<?xml version="1.0" encoding="UTF-8" standalone="no"?>
<svg xmlns:ffdec="https://www.free-decompiler.com/flash" xmlns:xlink="http://www.w3.org/1999/xlink" ffdec:objectType="frame" height="7.75px" width="7.35px" xmlns="http://www.w3.org/2000/svg">
  <g transform="matrix(1.0, 0.0, 0.0, 1.0, 0.0, 0.0)">
    <use ffdec:characterId="534" height="7.75" transform="matrix(1.0, 0.0, 0.0, 1.0, 0.0, 0.0)" width="6.75" xlink:href="#shape0"/>
  </g>
  <defs>
    <g id="shape0" transform="matrix(1.0, 0.0, 0.0, 1.0, 0.0, 0.0)">
      <path d="M6.7 0.45 L6.7 0.55 Q6.95 1.65 6.25 2.55 L5.95 2.95 5.85 3.4 4.8 4.3 3.55 6.2 3.35 7.15 Q3.05 7.75 2.5 7.75 2.0 7.75 0.5 6.8 L0.0 3.4 Q0.75 1.65 1.8 1.25 L3.55 0.45 Q4.5 0.0 5.25 0.0 6.15 0.0 6.7 0.45 M1.7 3.95 L2.2 5.0 2.95 5.7 3.2 5.65 Q3.2 4.95 2.6 4.15 L2.0 3.45 1.75 3.5 1.7 3.95 M4.5 1.2 Q3.05 1.2 3.05 1.8 3.05 2.45 4.4 2.45 5.25 2.45 5.2 1.85 5.1 1.2 4.5 1.2" fill="#b11612" fill-rule="evenodd" stroke="none"/>
      <path d="M4.5 1.2 Q5.1 1.2 5.2 1.85 5.25 2.45 4.4 2.45 3.05 2.45 3.05 1.8 3.05 1.2 4.5 1.2 M1.7 3.95 L1.75 3.5 2.0 3.45 2.6 4.15 Q3.2 4.95 3.2 5.65 L2.95 5.7 2.2 5.0 1.7 3.95" fill="#330605" fill-rule="evenodd" stroke="none"/>
    </g>
  </defs>
</svg>
