<?xml version="1.0" encoding="UTF-8" standalone="no"?>
<svg xmlns:ffdec="https://www.free-decompiler.com/flash" xmlns:xlink="http://www.w3.org/1999/xlink" ffdec:objectType="frame" height="7.75px" width="7.35px" xmlns="http://www.w3.org/2000/svg">
  <g transform="matrix(1.0, 0.0, 0.0, 1.0, 0.0, 0.0)">
    <use ffdec:characterId="531" height="5.35" transform="matrix(1.0, 0.0, 0.0, 1.0, 0.0, 0.0)" width="3.8" xlink:href="#shape0"/>
  </g>
  <defs>
    <g id="shape0" transform="matrix(1.0, 0.0, 0.0, 1.0, 0.0, 0.0)">
      <path d="M2.35 5.2 L2.3 5.2 1.45 5.3 Q0.8 5.25 0.35 4.7 L0.3 4.65 Q-0.1 4.15 0.05 3.2 L0.25 2.0 Q0.1 1.5 0.45 0.95 L0.9 0.25 Q1.8 -0.45 3.0 0.75 3.7 1.4 3.55 2.0 3.95 2.85 3.65 3.75 L3.5 3.4 Q2.85 2.4 2.15 2.95 1.1 3.85 1.7 4.55 L2.35 5.2" fill="#b11612" fill-rule="evenodd" stroke="none"/>
      <path d="M3.65 3.75 Q3.95 4.55 3.2 5.1 L2.35 5.2 1.7 4.55 Q1.1 3.85 2.15 2.95 2.85 2.4 3.5 3.4 L3.65 3.75" fill="#330605" fill-rule="evenodd" stroke="none"/>
    </g>
  </defs>
</svg>
