<?xml version="1.0" encoding="UTF-8" standalone="no"?>
<svg xmlns:ffdec="https://www.free-decompiler.com/flash" xmlns:xlink="http://www.w3.org/1999/xlink" ffdec:objectType="frame" height="55.65px" width="52.05px" xmlns="http://www.w3.org/2000/svg">
  <g transform="matrix(1.0, 0.0, 0.0, 1.0, 26.0, 29.35)">
    <use ffdec:characterId="2174" height="55.65" transform="matrix(1.0, 0.0, 0.0, 1.0, -26.0, -29.35)" width="52.05" xlink:href="#shape0"/>
  </g>
  <defs>
    <g id="shape0" transform="matrix(1.0, 0.0, 0.0, 1.0, 26.0, 29.35)">
      <path d="M13.15 19.05 L7.1 20.75 9.95 17.55 13.15 19.05 M4.9 20.6 L1.95 20.55 -0.25 19.85 -0.6 19.15 -1.7 18.85 Q-3.7 19.95 -6.1 19.4 L-6.1 18.4 -7.15 18.6 Q-7.15 20.55 -8.25 21.75 L-8.8 22.35 -9.0 22.5 -10.55 22.85 -11.85 20.05 -11.45 20.4 -10.5 20.5 Q-7.5 20.3 -7.4 17.1 L-7.55 16.0 Q-6.55 15.95 -5.8 15.4 L-5.25 14.8 -4.85 14.15 -4.6 16.05 -0.25 14.9 3.3 16.3 3.35 16.35 4.9 20.6 M-16.8 18.05 L-16.95 17.95 -18.35 10.95 -16.2 14.45 Q-16.0 14.7 -15.9 15.1 L-15.1 14.35 -14.65 11.75 Q-16.1 10.1 -18.4 9.9 L-18.4 9.3 -19.25 10.3 Q-22.0 10.8 -22.65 8.05 L-22.75 7.3 Q-17.95 8.75 -14.2 5.1 L-13.65 4.5 -12.75 3.6 -12.5 3.35 -16.45 3.45 -15.9 2.4 -12.95 1.4 -13.45 2.4 -13.55 2.55 -10.45 1.7 -10.25 0.55 -16.2 0.55 -16.1 0.05 -18.65 -3.9 -18.6 -4.65 Q-18.65 -8.05 -21.9 -9.2 L-22.3 -10.3 -22.3 -10.4 -17.15 -13.85 -20.65 -14.7 -15.7 -19.05 -15.25 -18.25 -15.9 -18.25 -16.6 -16.15 -10.4 -16.45 -11.25 -17.5 -13.6 -17.55 -13.5 -19.0 -11.35 -19.4 -11.1 -20.8 -12.8 -21.3 -14.15 -20.5 -14.35 -19.6 -14.45 -21.3 -6.5 -22.95 -6.85 -22.45 -7.45 -22.0 -5.8 -21.0 -8.85 -20.8 -9.0 -20.4 -6.6 -18.4 -5.8 -18.45 -3.55 -15.85 -2.9 -16.05 -2.3 -15.65 -1.2 -14.6 -0.8 -13.95 Q-0.45 -13.15 -0.4 -12.15 L-0.4 -12.0 -0.45 -11.2 -0.55 -10.55 -0.55 -10.45 -1.15 -11.8 -1.3 -11.45 -2.2 -9.5 -2.45 -11.45 -2.8 -12.3 -3.75 -13.4 -4.9 -14.2 -3.5 -10.95 -4.4 -7.45 -3.4 -8.05 -5.05 -4.7 -4.35 -5.0 -6.05 -3.7 -5.25 -2.7 -9.9 -2.05 -7.15 -0.9 -9.05 0.3 -7.95 0.5 -5.85 0.8 -5.15 0.9 -3.6 0.9 Q-2.1 0.75 -0.75 0.1 L-1.95 1.75 -5.5 2.6 -7.65 2.4 -7.65 2.45 -7.85 4.8 -6.45 4.95 -5.4 5.1 Q-1.25 5.8 2.25 7.95 L4.25 9.4 3.9 10.3 3.75 10.5 3.45 10.8 2.65 11.4 1.8 11.75 0.85 11.65 Q-0.05 11.4 -0.95 10.35 L-1.4 7.55 -4.15 7.35 -5.15 6.7 -7.4 6.9 -7.7 6.85 -8.45 6.3 -8.9 4.75 -8.75 3.95 -9.4 4.2 -10.15 4.35 -11.45 4.75 -13.25 5.35 -13.35 5.35 -13.3 5.45 -12.25 7.1 -12.45 7.75 -14.2 8.0 -12.9 9.75 -12.5 10.3 Q-11.35 12.95 -12.6 15.8 L-13.4 16.65 -13.65 17.1 -15.85 18.75 -16.8 18.05 M4.15 -15.8 L4.15 -15.65 3.8 -13.85 3.1 -13.6 2.3 -13.6 Q1.05 -13.6 0.2 -14.45 L0.1 -14.55 Q-0.85 -15.5 -0.85 -16.85 L0.15 -15.9 Q1.55 -14.9 3.5 -15.25 L4.15 -15.8 M-0.55 -3.85 L-1.1 -2.65 -0.9 -2.45 -2.8 -2.0 -3.0 -2.8 -0.55 -3.85 M-4.05 7.6 L-3.75 7.9 Q-3.3 8.4 -3.3 9.15 L-3.3 9.2 -3.7 10.55 -3.75 10.55 Q-4.3 11.45 -5.15 11.45 L-7.2 11.1 -8.25 10.35 -8.4 10.1 -8.65 9.2 -8.4 8.0 -8.35 7.9 -8.2 7.7 -7.8 7.3 -7.95 7.8 -7.95 7.9 -8.05 8.4 -7.9 9.15 -6.95 9.75 -6.15 9.8 Q-4.9 9.8 -4.4 9.4 L-4.3 9.3 Q-4.0 8.95 -4.0 8.1 L-4.0 8.05 -4.05 7.6 M-9.4 8.1 L-9.5 8.35 Q-9.85 8.85 -10.65 8.85 L-11.6 8.7 -12.05 8.25 -12.15 7.9 -11.05 7.95 Q-10.1 7.95 -9.6 7.4 L-9.45 7.25 -9.25 6.95 -9.25 7.2 -9.3 7.75 -9.4 8.1 M-13.4 -13.0 L-11.45 -11.65 -10.65 -11.35 -9.45 -11.05 -10.65 -9.4 Q-11.9 -10.4 -13.4 -10.75 L-14.0 -10.85 -15.35 -10.9 -16.05 -9.4 -15.9 -8.95 -16.55 -6.85 -13.85 -4.8 -15.15 -3.95 -14.9 -3.2 -12.2 -3.3 -12.25 -2.15 -10.7 -3.85 -8.9 -4.2 -9.7 -5.6 -8.7 -5.2 -8.2 -5.55 -7.05 -6.75 Q-6.3 -7.75 -5.9 -8.95 L-5.75 -9.45 -5.6 -10.35 Q-5.5 -11.05 -5.55 -11.75 L-5.55 -11.95 -7.1 -9.75 -7.25 -11.85 -7.25 -11.9 -8.15 -12.1 -8.95 -11.6 Q-9.15 -12.65 -9.8 -13.35 L-11.05 -14.15 -11.8 -14.45 -13.2 -14.95 -13.8 -13.45 -13.4 -13.0 M-16.4 -11.1 L-16.7 -11.45 -17.2 -11.55 -18.75 -11.1 -19.4 -10.35 -17.3 -8.45 -16.4 -11.1 M-3.85 -2.85 L-3.55 -3.6 -3.65 -2.9 -3.85 -2.85 M-11.15 6.15 L-10.7 6.05 -9.8 6.15 -9.35 6.55 -9.7 6.4 -10.9 6.15 -11.15 6.15 M-10.05 13.8 L-9.9 15.05 -9.0 15.7 -10.0 16.6 -10.6 15.15 Q-10.6 14.35 -10.05 13.8" fill="#990000" fill-rule="evenodd" stroke="none"/>
      <path d="M-17.5 19.6 L-16.8 18.05 -15.85 18.75 -16.2 19.4 -17.5 19.6 M-23.3 -6.6 L-23.5 -9.25 Q-23.65 -14.75 -20.35 -19.15 -18.95 -20.95 -17.05 -21.9 -16.35 -22.9 -14.8 -23.9 -12.0 -25.65 -9.95 -23.75 L-7.1 -24.35 -6.65 -24.4 -6.25 -23.8 -6.5 -22.95 -14.45 -21.3 -14.35 -19.6 -13.5 -19.0 -13.6 -17.55 -11.25 -17.5 -10.4 -16.45 -16.6 -16.15 -15.9 -18.25 -15.25 -18.25 -15.7 -19.05 -20.65 -14.7 -17.15 -13.85 -22.3 -10.4 -22.35 -10.4 -22.3 -10.3 -21.9 -9.2 Q-18.65 -8.05 -18.6 -4.65 L-18.65 -3.9 -18.9 -3.1 -20.55 -2.25 -22.85 -2.8 -23.0 -4.05 -20.9 -5.05 -20.4 -5.8 -22.0 -7.0 -22.2 -6.35 -23.3 -6.6 M4.15 -15.8 L3.5 -15.25 Q1.55 -14.9 0.15 -15.9 L-0.85 -16.85 -0.8 -18.3 -0.35 -18.65 1.1 -18.75 4.05 -17.6 4.35 -16.8 4.15 -15.8 M5.9 -12.65 L7.45 -12.55 Q9.75 -11.85 8.8 -9.35 L6.8 -8.6 6.35 -8.8 Q4.55 -10.2 5.55 -12.05 L5.9 -12.65 M7.45 -6.1 L7.95 -5.8 8.65 -5.1 Q9.8 -3.7 10.1 -1.65 L10.8 -1.4 10.75 -0.4 10.35 1.2 9.4 1.9 7.75 1.45 7.6 1.2 8.05 -1.0 4.65 -4.4 4.6 -4.55 Q4.6 -5.2 5.45 -5.65 L7.45 -6.1 M-0.55 -10.45 L0.25 -8.65 0.6 -8.65 Q1.45 -8.45 0.8 -6.7 L0.6 -6.3 -1.35 -6.15 -1.85 -6.45 -3.05 -5.75 -4.35 -5.0 -5.05 -4.7 -3.4 -8.05 -4.4 -7.45 -3.5 -10.95 -4.9 -14.2 -3.75 -13.4 -2.8 -12.3 -2.45 -11.45 -2.2 -9.5 -1.3 -11.45 -1.15 -11.8 -0.55 -10.45 M-2.6 -5.25 Q-1.75 -5.65 -0.55 -4.8 L-0.55 -3.85 -3.0 -2.8 -2.8 -2.0 -0.9 -2.45 -0.6 -1.4 -0.5 -0.8 -0.75 0.1 Q-2.1 0.75 -3.6 0.9 L-5.15 0.9 -5.85 0.8 -7.95 0.5 -9.05 0.3 -7.15 -0.9 -9.9 -2.05 -5.25 -2.7 -5.2 -2.65 -5.05 -2.5 -3.95 -2.85 -3.85 -2.85 -3.65 -2.9 -3.55 -3.6 -3.55 -4.35 -2.75 -5.15 -2.6 -5.25 M-5.0 2.85 L-4.15 3.75 -3.55 3.7 -1.55 3.85 -1.5 3.85 Q0.85 4.05 2.75 5.25 L3.3 5.6 3.45 5.7 4.3 6.35 4.65 9.1 4.25 9.4 2.25 7.95 Q-1.25 5.8 -5.4 5.1 L-6.45 4.95 -7.85 4.8 -7.65 2.45 -7.65 2.4 -5.5 2.6 -5.0 2.85 M-4.15 7.35 L-4.1 7.5 -4.05 7.6 -4.0 8.05 -4.0 8.1 Q-4.0 8.95 -4.3 9.3 L-4.4 9.4 Q-4.9 9.8 -6.15 9.8 L-6.95 9.75 -7.9 9.15 -8.05 8.4 -7.95 7.9 -7.95 7.8 -7.8 7.3 -7.7 7.15 -7.4 6.9 -5.15 6.7 -4.15 7.35 M-12.9 9.75 L-12.75 9.85 -12.5 10.25 -12.5 10.3 -12.9 9.75 M-4.85 14.15 L-5.25 14.8 -5.8 15.4 Q-6.55 15.95 -7.55 16.0 L-7.4 17.1 Q-7.5 20.3 -10.5 20.5 L-11.45 20.4 -11.85 20.05 -10.95 17.1 Q-10.55 16.6 -10.0 16.6 L-9.0 15.7 -9.9 15.05 -10.05 13.8 -9.4 13.3 -9.1 13.05 -8.5 12.75 -7.45 12.4 Q-6.75 12.25 -6.0 12.4 L-5.25 12.6 -4.85 14.15 M-16.2 0.55 L-10.25 0.55 -10.45 1.7 -13.55 2.55 -13.45 2.4 -12.95 1.4 -15.9 2.4 -16.45 3.45 -12.5 3.35 -12.75 3.6 -13.65 4.5 -14.2 5.1 Q-17.95 8.75 -22.75 7.3 L-22.25 4.85 Q-20.95 4.35 -19.55 4.85 L-18.0 5.7 -17.35 4.3 -17.7 3.95 -16.2 0.55 M-18.4 9.9 Q-16.1 10.1 -14.65 11.75 L-15.1 14.35 -15.9 15.1 Q-16.0 14.7 -16.2 14.45 L-18.35 10.95 -18.45 10.4 -18.4 9.9 M-4.7 -20.3 L-4.5 -19.8 -4.7 -19.0 -5.1 -18.7 -4.9 -18.55 -4.3 -18.15 Q-3.3 -17.4 -2.9 -16.05 L-3.55 -15.85 -5.8 -18.45 -6.6 -18.4 -9.0 -20.4 -8.85 -20.8 -5.8 -21.0 -4.7 -20.3 M-16.4 -11.1 L-17.3 -8.45 -19.4 -10.35 -18.75 -11.1 -17.2 -11.55 -16.7 -11.45 -16.4 -11.1 M-12.25 7.1 Q-12.25 6.25 -11.15 6.15 L-10.9 6.15 -9.7 6.4 -9.35 6.55 -9.15 6.7 -9.25 6.95 -9.45 7.25 -9.6 7.4 Q-10.1 7.95 -11.05 7.95 L-12.15 7.9 -12.15 7.65 -12.25 7.1" fill="#ff0000" fill-rule="evenodd" stroke="none"/>
      <path d="M-13.4 -13.0 L-13.8 -13.45 -13.2 -14.95 -11.8 -14.45 -11.05 -14.15 -9.8 -13.35 Q-9.15 -12.65 -8.95 -11.6 L-8.15 -12.1 -7.25 -11.9 -7.25 -11.85 -7.1 -9.75 -5.55 -11.95 -5.55 -11.75 Q-5.5 -11.05 -5.6 -10.35 L-5.75 -9.45 -5.9 -8.95 Q-6.3 -7.75 -7.05 -6.75 L-8.2 -5.55 -8.7 -5.2 -9.7 -5.6 -8.9 -4.2 -10.7 -3.85 -12.25 -2.15 -12.2 -3.3 -14.9 -3.2 -15.15 -3.95 -13.85 -4.8 -16.55 -6.85 -15.9 -8.95 -16.05 -9.4 -15.35 -10.9 -14.0 -10.85 -13.4 -10.75 Q-11.9 -10.4 -10.65 -9.4 L-9.45 -11.05 -10.65 -11.35 -11.45 -11.65 -13.4 -13.0" fill="#650101" fill-rule="evenodd" stroke="none"/>
      <path d="M-20.5 17.2 L-20.75 17.1 Q-22.75 16.25 -24.2 12.8 -25.1 10.65 -25.4 8.9 -26.0 6.95 -26.0 5.5 L-25.25 2.55 -25.0 1.6 -23.3 -6.6 -22.2 -6.35 -23.0 -4.05 -22.85 -2.8 -22.95 -2.1 Q-23.15 0.45 -20.6 0.9 L-21.1 1.6 -23.25 4.0 Q-24.7 5.75 -24.35 6.9 L-24.4 7.05 -24.55 7.15 Q-24.25 8.9 -23.4 10.9 -22.05 14.0 -19.65 17.1 L-19.8 17.35 -20.5 17.2" fill="#6b476b" fill-rule="evenodd" stroke="none"/>
      <path d="M-0.25 19.85 L-0.25 19.9 Q-0.25 20.95 -2.35 22.25 -4.4 23.5 -6.1 23.55 L-8.8 22.35 -8.25 21.75 Q-7.15 20.55 -7.15 18.6 L-6.1 18.4 -6.1 19.4 Q-3.7 19.95 -1.7 18.85 L-0.6 19.15 -0.25 19.85 M-16.95 17.95 Q-17.3 18.05 -17.65 18.25 -19.2 18.45 -20.5 17.2 L-19.8 17.35 -19.65 17.1 Q-22.05 14.0 -23.4 10.9 -24.25 8.9 -24.55 7.15 L-24.4 7.05 -24.35 6.9 Q-24.7 5.75 -23.25 4.0 L-21.1 1.6 -20.6 0.9 Q-23.15 0.45 -22.95 -2.1 L-22.85 -2.8 -20.55 -2.25 -18.9 -3.1 -18.65 -3.9 -16.1 0.05 -16.2 0.55 -17.7 3.95 -17.35 4.3 -18.0 5.7 -19.55 4.85 Q-20.95 4.35 -22.25 4.85 L-22.75 7.3 -22.65 8.05 Q-22.0 10.8 -19.25 10.3 L-18.4 9.3 -18.4 9.9 -18.45 10.4 -18.35 10.95 -16.95 17.95 M-22.2 -6.35 L-22.0 -7.0 -20.4 -5.8 -20.9 -5.05 -23.0 -4.05 -22.2 -6.35" fill="#4d334d" fill-rule="evenodd" stroke="none"/>
      <path d="M5.05 -20.2 L5.3 -20.0 6.0 -19.7 5.9 -19.5 6.15 -19.25 7.75 -17.35 8.55 -15.45 9.5 -13.6 10.85 -11.75 Q15.9 -6.4 21.5 -1.65 L24.25 2.6 Q26.7 7.05 25.85 10.45 L24.45 13.85 23.05 15.65 22.6 16.05 Q22.35 12.15 21.4 10.85 20.25 9.25 18.65 8.2 17.05 7.1 15.65 6.75 L13.5 6.1 Q12.75 5.8 10.35 1.2 L10.75 -0.4 10.8 -1.4 10.1 -1.65 Q9.8 -3.7 8.65 -5.1 L7.95 -5.8 7.45 -6.1 6.8 -8.6 8.8 -9.35 Q9.75 -11.85 7.45 -12.55 L5.9 -12.65 5.7 -13.6 5.2 -14.3 4.15 -15.65 4.15 -15.8 4.35 -16.8 4.05 -17.6 1.1 -18.75 -0.35 -19.85 -6.85 -22.45 -6.5 -22.95 -6.25 -23.8 -6.65 -24.4 -4.9 -23.85 -6.65 -25.9 -4.8 -25.8 -4.55 -26.15 -5.55 -29.35 Q-3.1 -25.0 -0.15 -24.45 2.75 -23.95 3.4 -27.15 L3.6 -24.05 Q3.8 -22.5 4.5 -20.9 L4.7 -20.6 5.05 -20.2 M21.1 19.15 L21.25 19.35 21.0 19.35 21.1 19.15" fill="#d6d88e" fill-rule="evenodd" stroke="none"/>
      <path d="M4.7 -20.6 L4.95 -20.35 5.05 -20.2 4.7 -20.6 M-0.85 -16.85 Q-0.85 -15.5 0.1 -14.55 L0.2 -14.45 Q1.05 -13.6 2.3 -13.6 L3.2 -10.35 3.45 -9.35 3.55 -7.9 3.5 -6.15 2.95 -3.15 2.9 -3.0 2.8 -2.7 Q2.0 -0.7 0.85 1.05 L-0.15 2.45 -0.55 2.85 -1.55 3.85 -3.55 3.7 -3.5 3.35 -3.6 2.95 -3.9 2.75 -4.15 2.95 -4.3 3.35 -4.15 3.75 -5.0 2.85 -4.8 2.45 -3.85 2.45 -3.4 3.25 -2.55 2.9 -1.95 1.75 -0.75 0.1 -0.5 -0.8 -0.6 -1.4 -0.9 -2.45 -1.1 -2.65 -0.55 -3.85 -0.55 -4.8 Q-1.75 -5.65 -2.6 -5.25 L-2.9 -5.6 -3.05 -5.75 -1.85 -6.45 -1.35 -6.15 0.6 -6.3 0.8 -6.7 Q1.45 -8.45 0.6 -8.65 L0.25 -8.65 -0.55 -10.45 -0.55 -10.55 -0.45 -11.2 -0.4 -12.0 -0.4 -12.15 Q-0.45 -13.15 -0.8 -13.95 L-1.2 -14.6 -2.3 -15.65 -2.9 -16.05 Q-3.3 -17.4 -4.3 -18.15 L-4.9 -18.55 -5.1 -18.7 -4.7 -19.0 -4.5 -19.8 -4.7 -20.3 -0.8 -18.3 -0.85 -16.85 M-8.35 7.9 L-9.2 8.05 -9.4 8.1 -9.3 7.75 -9.25 7.2 -9.25 6.95 -9.15 6.7 -9.35 6.55 -9.8 6.15 -10.7 6.05 -11.15 6.15 Q-12.25 6.25 -12.25 7.1 L-13.3 5.45 -13.25 5.35 -11.45 4.75 -11.65 5.6 -10.5 5.65 -10.15 4.35 -9.4 4.2 -8.9 4.75 -8.45 6.3 -7.7 6.85 -7.4 6.9 -7.7 7.15 -7.8 7.3 -8.2 7.7 -8.35 7.9 M-12.05 8.25 L-13.05 8.15 -14.2 8.0 -12.45 7.75 -12.25 7.1 -12.15 7.65 -12.15 7.9 -12.05 8.25 M-13.5 -19.0 L-14.35 -19.6 -14.15 -20.5 -12.8 -21.3 -11.1 -20.8 -11.35 -19.4 -13.5 -19.0" fill="#ffcc99" fill-rule="evenodd" stroke="none"/>
      <path d="M7.1 20.75 L6.15 24.75 5.6 24.75 4.9 20.6 3.35 16.35 3.3 16.3 -0.25 14.9 -4.6 16.05 -4.85 14.15 -5.25 12.6 -6.0 12.4 Q-6.75 12.25 -7.45 12.4 L-8.5 12.75 -9.1 13.05 -9.4 13.3 -10.05 13.8 Q-10.6 14.35 -10.6 15.15 L-10.0 16.6 Q-10.55 16.6 -10.95 17.1 L-11.85 20.05 -10.55 22.85 -9.0 22.5 -9.4 26.0 -9.8 26.3 Q-12.35 20.35 -14.95 20.9 L-18.8 22.25 -18.45 21.2 -18.1 21.0 -18.0 20.45 -17.5 19.6 -16.2 19.4 -15.85 18.75 -13.65 17.1 -13.4 16.65 -12.6 15.8 Q-11.35 12.95 -12.5 10.3 L-12.5 10.25 -12.75 9.85 -12.9 9.75 -14.2 8.0 -13.05 8.15 -12.05 8.25 -11.6 8.7 -10.65 8.85 Q-9.85 8.85 -9.5 8.35 L-9.4 8.1 -9.2 8.05 -8.35 7.9 -8.4 8.0 -8.65 9.2 -8.4 10.1 -8.25 10.35 -7.2 11.1 -5.15 11.45 Q-4.3 11.45 -3.75 10.55 L-3.7 10.55 -3.3 9.2 -3.3 9.15 Q-3.3 8.4 -3.75 7.9 L-4.05 7.6 -4.1 7.5 -4.15 7.35 -1.4 7.55 -0.95 10.35 -1.6 10.5 -2.65 10.45 -4.4 13.7 -4.25 14.15 -3.0 13.8 -1.45 13.5 0.3 13.4 1.3 13.45 2.8 13.8 2.9 13.85 3.6 14.25 3.75 14.35 5.65 15.25 6.9 15.8 7.05 15.85 8.1 16.35 9.95 17.55 7.1 20.75 M2.3 -13.6 L3.1 -13.6 3.8 -13.85 4.2 -13.25 Q4.35 -12.2 3.95 -11.5 L3.2 -10.35 2.3 -13.6 M-0.55 2.85 L-0.15 2.45 0.85 1.05 Q2.0 -0.7 2.8 -2.7 L2.9 -3.0 2.95 -3.15 3.1 -3.65 3.3 -2.75 3.35 -0.7 3.15 -0.1 2.2 2.65 4.85 5.8 4.3 6.35 3.45 5.7 3.3 5.6 2.75 5.25 Q0.85 4.05 -1.5 3.85 L-0.55 2.85 M3.9 10.3 L4.25 9.4 4.65 9.1 4.5 9.55 4.2 10.0 3.9 10.3" fill="#a45619" fill-rule="evenodd" stroke="none"/>
      <path d="M22.6 16.05 L20.05 18.1 21.1 19.15 21.0 19.35 17.15 19.55 Q17.65 18.9 18.25 18.4 15.95 18.8 13.7 18.4 L8.7 16.35 7.1 15.35 5.5 14.45 4.75 14.05 4.45 13.9 3.8 13.55 Q2.65 13.0 1.85 12.8 L2.65 12.7 3.8 12.9 4.95 13.25 5.35 13.4 7.55 14.5 Q10.25 15.95 15.1 15.65 19.95 15.3 15.2 11.35 L10.2 7.45 Q9.95 7.3 9.85 7.3 9.2 7.2 8.05 4.9 L7.15 3.1 Q6.0 0.25 5.15 -2.6 L5.0 -3.2 4.65 -4.4 8.05 -1.0 7.6 1.2 7.75 1.45 9.4 1.9 10.35 1.2 Q12.75 5.8 13.5 6.1 L15.65 6.75 Q17.05 7.1 18.65 8.2 20.25 9.25 21.4 10.85 22.35 12.15 22.6 16.05 M3.8 -13.85 L4.15 -15.65 5.2 -14.3 5.7 -13.6 5.9 -12.65 5.55 -12.05 Q4.55 -10.2 6.35 -8.8 L6.8 -8.6 7.45 -6.1 5.45 -5.65 Q4.6 -5.2 4.6 -4.55 L3.45 -9.35 3.2 -10.35 3.95 -11.5 Q4.35 -12.2 4.2 -13.25 L3.8 -13.85 M-1.55 3.85 L-0.55 2.85 -1.5 3.85 -1.55 3.85 M-5.8 -21.0 L-7.45 -22.0 -6.85 -22.45 -0.35 -19.85 1.1 -18.75 -0.35 -18.65 -0.8 -18.3 -4.7 -20.3 -5.8 -21.0" fill="#c6c553" fill-rule="evenodd" stroke="none"/>
      <path d="M17.15 19.55 L13.7 19.15 13.15 19.05 9.95 17.55 8.1 16.35 7.05 15.85 6.9 15.8 5.65 15.25 3.75 14.35 3.6 14.25 2.9 13.85 2.8 13.8 1.3 13.45 0.3 13.4 -1.45 13.5 -3.0 13.8 -4.25 14.15 -4.4 13.7 -2.65 10.45 -1.6 10.5 -0.95 10.35 Q-0.05 11.4 0.85 11.65 L1.8 11.75 2.65 11.4 3.45 10.8 3.75 10.5 3.9 10.3 4.2 10.0 4.5 9.55 4.65 9.1 4.3 6.35 4.85 5.8 2.2 2.65 3.15 -0.1 3.35 -0.7 3.3 -2.75 3.1 -3.65 2.95 -3.15 3.5 -6.15 3.55 -7.9 3.45 -9.35 4.6 -4.55 4.65 -4.4 5.0 -3.2 5.15 -2.6 Q6.0 0.25 7.15 3.1 L8.05 4.9 Q9.2 7.2 9.85 7.3 9.95 7.3 10.2 7.45 L15.2 11.35 Q19.95 15.3 15.1 15.65 10.25 15.95 7.55 14.5 L5.35 13.4 4.95 13.25 3.8 12.9 2.65 12.7 1.85 12.8 Q2.65 13.0 3.8 13.55 L4.45 13.9 4.75 14.05 5.5 14.45 7.1 15.35 8.7 16.35 13.7 18.4 Q15.95 18.8 18.25 18.4 17.65 18.9 17.15 19.55 M-18.45 21.2 L-18.0 20.45 -18.1 21.0 -18.45 21.2" fill="#b1b134" fill-rule="evenodd" stroke="none"/>
      <path d="M-4.35 -5.0 L-3.05 -5.75 -2.9 -5.6 -2.6 -5.25 -2.75 -5.15 -3.55 -4.35 -3.55 -3.6 -3.85 -2.85 -3.95 -2.85 -5.05 -2.5 -5.2 -2.65 -5.25 -2.7 -6.05 -3.7 -4.35 -5.0 M-1.95 1.75 L-2.55 2.9 -3.4 3.25 -3.85 2.45 -4.8 2.45 -5.0 2.85 -5.5 2.6 -1.95 1.75 M-4.15 3.75 L-4.3 3.35 -4.15 2.95 -3.9 2.75 -3.6 2.95 -3.5 3.35 -3.55 3.7 -4.15 3.75 M-8.9 4.75 L-9.4 4.2 -8.75 3.95 -8.9 4.75 M-10.15 4.35 L-10.5 5.65 -11.65 5.6 -11.45 4.75 -10.15 4.35 M-13.25 5.35 L-13.3 5.45 -13.35 5.35 -13.25 5.35" fill="#ebbb98" fill-rule="evenodd" stroke="none"/>
    </g>
  </defs>
</svg>
