<?xml version="1.0" encoding="UTF-8" standalone="no"?>
<svg xmlns:ffdec="https://www.free-decompiler.com/flash" xmlns:xlink="http://www.w3.org/1999/xlink" ffdec:objectType="frame" height="72.65px" width="46.1px" xmlns="http://www.w3.org/2000/svg">
  <g transform="matrix(1.0, 0.0, 0.0, 1.0, 18.65, 36.95)">
    <use ffdec:characterId="1699" height="72.65" transform="matrix(1.0, 0.0, 0.0, 1.0, -18.65, -36.95)" width="46.1" xlink:href="#shape0"/>
    <use ffdec:characterId="1081" height="100.0" id="shape" transform="matrix(0.33, 0.0, 0.0, 0.7001, -16.5001, -35.0029)" width="100.0" xlink:href="#sprite0"/>
  </g>
  <defs>
    <g id="shape0" transform="matrix(1.0, 0.0, 0.0, 1.0, 18.65, 36.95)">
      <path d="M18.5 -34.4 L18.35 -34.4 19.1 -35.25 19.65 -36.4 20.2 -35.05 20.45 -34.25 20.55 -34.2 20.55 -34.15 20.75 -33.2 21.0 -30.0 20.0 -23.9 Q18.85 -27.25 17.4 -29.75 L17.3 -30.25 17.0 -31.15 17.1 -31.85 17.3 -32.6 Q17.65 -33.55 18.5 -34.4 M-16.25 -18.7 L-16.25 -20.4 -16.0 -18.95 -16.25 -18.7" fill="#e98d8d" fill-rule="evenodd" stroke="none"/>
      <path d="M-10.2 -35.9 L-9.7 -36.05 -1.4 -36.95 -0.25 -36.95 0.1 -36.95 1.25 -36.85 8.75 -36.45 Q10.75 -35.75 12.55 -34.75 13.7 -34.0 14.95 -33.75 L15.0 -33.75 Q16.1 -33.25 16.15 -31.15 L16.55 -29.35 16.55 -23.45 Q16.55 -21.9 16.15 -21.05 L14.9 -21.05 12.85 -21.05 11.65 -20.85 10.1 -19.55 Q8.75 -20.7 7.05 -20.95 L6.35 -21.05 5.3 -20.35 3.3 -20.2 2.75 -20.15 -0.7 -20.05 -5.05 -20.15 -5.05 -20.3 -5.95 -22.05 -8.25 -25.25 Q-8.2 -24.1 -7.6 -22.35 L-7.1 -20.75 -7.05 -20.55 -7.55 -20.5 -8.65 -20.3 -9.3 -19.5 -10.05 -19.45 Q-10.85 -20.1 -12.55 -20.1 L-13.05 -20.05 -13.35 -20.55 -13.25 -23.5 Q-13.25 -25.2 -13.9 -26.4 -14.5 -27.55 -14.5 -29.0 -14.5 -32.0 -12.85 -33.55 L-10.2 -35.9" fill="#8e3c3c" fill-rule="evenodd" stroke="none"/>
      <path d="M20.0 -23.9 L19.25 -19.85 16.15 -21.05 Q16.55 -21.9 16.55 -23.45 L16.55 -29.35 16.15 -31.15 Q16.1 -33.25 15.0 -33.75 L15.55 -33.6 16.45 -33.6 18.5 -34.4 Q17.65 -33.55 17.3 -32.6 L17.1 -31.85 17.0 -31.15 17.3 -30.25 17.4 -29.75 Q18.85 -27.25 20.0 -23.9 M-16.25 -20.4 L-16.25 -20.7 -17.0 -23.25 -17.45 -24.6 -18.1 -26.3 Q-18.3 -26.75 -18.3 -27.85 -18.3 -30.0 -16.9 -32.45 L-16.85 -32.5 -16.6 -32.9 -16.35 -33.4 -16.35 -33.45 -16.3 -33.5 -15.75 -33.85 -15.7 -33.85 Q-13.75 -35.1 -10.2 -35.9 L-12.85 -33.55 Q-14.5 -32.0 -14.5 -29.0 -14.5 -27.55 -13.9 -26.4 -13.25 -25.2 -13.25 -23.5 L-13.35 -20.55 -13.05 -20.05 -13.35 -20.05 Q-14.85 -19.95 -15.35 -19.3 L-15.4 -19.3 -16.0 -18.95 -16.25 -20.4 M-7.05 -20.55 L-7.1 -20.75 -7.6 -22.35 Q-8.2 -24.1 -8.25 -25.25 L-5.95 -22.05 -5.05 -20.3 -5.05 -20.15 -7.05 -20.55" fill="#ad4949" fill-rule="evenodd" stroke="none"/>
      <path d="M14.15 -1.6 L12.75 4.05 Q10.75 12.85 10.75 17.5 L10.8 18.85 10.9 18.9 11.0 19.0 10.75 21.55 Q10.75 22.45 15.25 24.25 20.35 26.3 21.25 27.15 L20.5 27.9 22.1 28.15 24.85 27.65 25.8 27.85 26.8 28.35 27.15 29.7 24.15 31.05 22.75 31.55 Q22.95 29.4 19.0 29.15 17.75 29.1 16.4 28.4 L14.25 27.15 Q13.05 26.55 7.75 25.35 3.25 24.3 3.25 23.8 L3.75 23.0 6.25 22.0 Q8.6 20.85 9.25 19.15 7.55 20.0 7.15 17.95 7.0 17.25 7.0 14.15 L7.05 12.75 Q7.25 10.5 7.9 7.3 L8.25 1.3 8.25 -0.5 10.85 -0.7 Q12.6 -0.95 14.15 -1.6 M-17.55 30.4 L-17.5 28.6 -17.55 27.5 -17.55 27.2 -15.8 19.65 -15.55 17.95 -15.15 16.2 Q-15.85 10.2 -15.3 6.3 -14.8 2.45 -15.1 -1.25 L-13.65 -1.25 -10.45 -1.0 -10.5 -0.5 -9.6 4.65 Q-8.75 9.15 -8.75 10.8 -8.75 11.8 -9.25 13.6 L-9.75 15.8 -9.25 16.75 Q-8.75 17.5 -8.75 18.4 -8.75 19.35 -9.5 19.9 L-10.5 20.35 -10.95 19.95 Q-11.7 18.65 -13.5 17.6 L-14.0 17.9 -14.0 18.5 Q-14.0 18.95 -13.4 19.55 L-13.4 22.45 Q-13.3 23.65 -12.8 24.5 -13.05 25.55 -13.45 26.25 L-15.25 28.9 -15.25 30.85 -15.5 30.8 -17.55 30.4 M-12.65 20.3 L-13.05 19.95 -12.6 20.35 -12.65 20.3" fill="#333333" fill-rule="evenodd" stroke="none"/>
      <path d="M19.25 -19.85 Q20.6 -17.85 20.05 -15.5 L19.75 -14.3 18.9 -11.5 18.8 -11.2 18.7 -10.95 Q17.9 -8.55 18.8 -6.35 L18.55 -5.85 18.0 -5.25 17.95 -4.8 16.5 -6.55 14.75 -8.75 14.75 -10.5 Q15.25 -10.0 16.5 -9.75 L17.2 -11.2 17.25 -12.9 Q17.25 -13.9 15.25 -15.9 L15.5 -16.15 17.75 -16.4 Q17.5 -20.0 15.25 -19.4 15.25 -20.45 14.9 -21.05 L16.15 -21.05 19.25 -19.85 M-16.45 -3.55 L-17.55 -4.35 -18.1 -5.4 -18.15 -5.5 Q-18.35 -6.25 -18.2 -7.15 L-17.95 -8.35 -18.0 -8.8 -18.65 -10.9 Q-18.65 -12.85 -18.2 -13.6 -18.3 -15.55 -17.15 -17.0 L-16.25 -18.7 -16.0 -18.95 -15.4 -19.3 -15.35 -19.3 Q-14.85 -19.95 -13.35 -20.05 L-13.05 -20.05 -12.55 -20.1 Q-10.85 -20.1 -10.05 -19.45 L-9.3 -19.5 -8.65 -20.3 -7.55 -20.5 -9.85 -17.65 -11.85 -18.4 -13.3 -17.75 -13.5 -17.3 -13.2 -16.15 -11.0 -16.15 -11.5 -15.0 -12.2 -13.85 -12.75 -13.4 -14.5 -13.4 -14.5 -14.65 -13.2 -16.15 -15.35 -15.2 -15.75 -14.8 -16.75 -13.4 -14.5 -12.15 -15.95 -11.55 -16.05 -8.25 -14.75 -6.75 -16.2 -5.85 -16.45 -3.55" fill="#fff9d4" fill-rule="evenodd" stroke="none"/>
      <path d="M17.95 -4.8 L17.9 -4.6 17.75 -4.25 17.7 -4.15 Q17.25 -3.25 16.25 -3.25 L14.55 -3.25 13.8 -3.25 13.9 -5.55 12.5 -5.75 11.75 -7.85 10.15 -5.55 Q8.25 -5.5 7.3 -7.15 L10.05 -9.35 10.75 -10.0 11.25 -10.75 9.75 -11.9 Q11.3 -13.05 12.15 -14.8 L12.45 -16.05 Q12.65 -17.8 12.2 -19.4 L11.75 -19.4 10.95 -18.3 Q10.7 -17.9 10.25 -17.9 9.3 -17.9 8.1 -19.65 L7.05 -20.95 Q8.75 -20.7 10.1 -19.55 L11.65 -20.85 12.85 -21.05 14.9 -21.05 Q15.25 -20.45 15.25 -19.4 17.5 -20.0 17.75 -16.4 L15.5 -16.15 15.25 -15.9 Q17.25 -13.9 17.25 -12.9 L17.2 -11.2 16.5 -9.75 Q15.25 -10.0 14.75 -10.5 L14.75 -8.75 16.5 -6.55 17.95 -4.8 M-15.35 -3.2 L-16.45 -3.55 -16.2 -5.85 -14.75 -6.75 -16.05 -8.25 -15.95 -11.55 -14.5 -12.15 -16.75 -13.4 -15.75 -14.8 -15.35 -15.2 -13.2 -16.15 -14.5 -14.65 -14.5 -13.4 -12.75 -13.4 -12.2 -13.85 -11.5 -15.0 -11.0 -16.15 -13.2 -16.15 -13.5 -17.3 -13.3 -17.75 -11.85 -18.4 -9.85 -17.65 -7.55 -20.5 -7.05 -20.55 -5.05 -20.15 -0.7 -20.05 2.75 -20.15 Q1.85 -19.6 0.25 -19.15 -1.1 -18.85 -2.25 -18.15 L-2.8 -17.75 Q-3.35 -17.9 -3.95 -18.4 -4.95 -19.15 -6.0 -19.15 L-7.1 -19.15 Q-7.45 -18.55 -7.4 -17.65 L-7.5 -16.35 -7.8 -14.4 -7.75 -12.9 -9.65 -12.0 -9.3 -10.65 -12.2 -9.0 -11.0 -6.25 -9.6 -6.6 -9.1 -7.4 -7.85 -7.4 Q-7.25 -7.25 -6.85 -6.3 L-6.65 -5.6 -8.85 -5.0 -9.55 -5.6 -11.3 -5.7 -11.65 -5.45 -11.85 -3.15 -15.35 -3.2 M11.95 -14.8 Q10.95 -14.05 9.7 -14.3 L9.45 -17.05 11.45 -17.05 12.4 -16.1 Q12.4 -15.15 11.95 -14.8" fill="#cec9ab" fill-rule="evenodd" stroke="none"/>
      <path d="M7.05 -20.95 L8.1 -19.65 Q9.3 -17.9 10.25 -17.9 10.7 -17.9 10.95 -18.3 L11.75 -19.4 12.2 -19.4 Q12.65 -17.8 12.45 -16.05 L12.15 -14.8 Q11.3 -13.05 9.75 -11.9 L11.25 -10.75 10.75 -10.0 10.05 -9.35 7.3 -7.15 Q8.25 -5.5 10.15 -5.55 L11.75 -7.85 12.5 -5.75 13.9 -5.55 13.8 -3.25 11.2 -3.3 10.45 -2.8 10.05 -2.6 8.2 -1.95 6.9 -1.75 0.75 -1.5 Q-2.3 -1.35 -5.1 -2.6 L-6.35 -3.15 -7.55 -3.05 -8.0 -2.35 -9.95 -2.3 -10.35 -2.35 Q-11.25 -2.55 -11.85 -3.15 L-11.65 -5.45 -11.3 -5.7 -9.55 -5.6 -8.85 -5.0 -6.65 -5.6 -6.85 -6.3 Q-7.25 -7.25 -7.85 -7.4 L-9.1 -7.4 -9.6 -6.6 -11.0 -6.25 -12.2 -9.0 -9.3 -10.65 -9.65 -12.0 -7.75 -12.9 -7.8 -14.4 -7.5 -16.35 -7.4 -17.65 Q-7.45 -18.55 -7.1 -19.15 L-6.0 -19.15 Q-4.95 -19.15 -3.95 -18.4 -3.35 -17.9 -2.8 -17.75 L-2.25 -18.15 Q-1.1 -18.85 0.25 -19.15 1.85 -19.6 2.75 -20.15 L3.3 -20.2 5.3 -20.35 6.35 -21.05 7.05 -20.95 M11.95 -14.8 Q12.4 -15.15 12.4 -16.1 L11.45 -17.05 9.45 -17.05 9.7 -14.3 Q10.95 -14.05 11.95 -14.8" fill="#9c9982" fill-rule="evenodd" stroke="none"/>
      <path d="M11.0 19.0 L11.7 19.95 11.9 20.05 13.35 20.85 14.6 21.5 15.1 21.75 16.65 22.5 17.5 22.9 18.85 23.5 20.9 24.35 23.8 25.4 Q24.2 25.35 25.05 25.8 L25.4 26.05 25.8 26.5 26.8 28.35 25.8 27.85 24.85 27.65 22.1 28.15 20.5 27.9 21.25 27.15 Q20.35 26.3 15.25 24.25 10.75 22.45 10.75 21.55 L11.0 19.0 M27.15 29.7 L27.25 30.05 27.25 30.1 Q25.15 31.4 22.2 32.3 L21.85 32.4 16.05 33.3 0.35 33.15 Q-12.2 32.85 -17.45 31.65 L-17.55 30.4 -15.5 30.8 -15.25 30.85 -12.75 31.4 -6.5 32.1 1.65 32.35 Q5.3 32.25 9.05 32.45 L11.45 32.6 Q17.35 33.4 22.75 31.55 L24.15 31.05 27.15 29.7" fill="#666666" fill-rule="evenodd" stroke="none"/>
      <path d="M27.25 30.1 L27.45 30.95 27.45 32.1 Q21.5 36.0 14.2 35.7 L-0.1 35.3 -12.8 35.1 Q-17.4 35.0 -17.45 31.65 -12.2 32.85 0.35 33.15 L16.05 33.3 21.85 32.4 22.2 32.3 Q25.15 31.4 27.25 30.1" fill="#e5e5e5" fill-rule="evenodd" stroke="none"/>
      <path d="M14.55 -3.25 L14.15 -1.6 Q12.6 -0.95 10.85 -0.7 L8.25 -0.5 8.25 1.3 7.9 7.3 Q7.25 10.5 7.05 12.75 L7.0 14.15 Q7.0 17.25 7.15 17.95 7.55 20.0 9.25 19.15 8.6 20.85 6.25 22.0 L3.75 23.0 3.25 23.8 Q3.25 24.3 7.75 25.35 13.05 26.55 14.25 27.15 L16.4 28.4 Q17.75 29.1 19.0 29.15 22.95 29.4 22.75 31.55 17.35 33.4 11.45 32.6 L9.05 32.45 Q5.3 32.25 1.65 32.35 L-6.5 32.1 -12.75 31.4 -15.25 30.85 -15.25 28.9 -13.45 26.25 Q-13.05 25.55 -12.8 24.5 -13.3 23.65 -13.4 22.45 L-13.4 19.55 Q-14.0 18.95 -14.0 18.5 L-14.0 17.9 -13.5 17.6 Q-11.7 18.65 -10.95 19.95 L-10.5 20.35 -9.5 19.9 Q-8.75 19.35 -8.75 18.4 -8.75 17.5 -9.25 16.75 L-9.75 15.8 -9.25 13.6 Q-8.75 11.8 -8.75 10.8 -8.75 9.15 -9.6 4.65 L-10.5 -0.5 -10.45 -1.0 -13.65 -1.25 -15.1 -1.25 -15.35 -3.2 -11.85 -3.15 Q-11.25 -2.55 -10.35 -2.35 L-9.95 -2.3 -8.0 -2.35 -7.55 -3.05 -6.35 -3.15 -5.1 -2.6 Q-2.3 -1.35 0.75 -1.5 L6.9 -1.75 8.2 -1.95 10.05 -2.6 10.45 -2.8 11.2 -3.3 13.8 -3.25 14.55 -3.25 M1.4 19.3 L1.45 19.15 1.4 19.15 1.4 19.3 M-12.65 20.3 L-12.6 20.35 -13.05 19.95 -12.65 20.3" fill="#111111" fill-rule="evenodd" stroke="none"/>
    </g>
    <g id="sprite0" transform="matrix(1.0, 0.0, 0.0, 1.0, 50.0, 50.0)">
      <use ffdec:characterId="1080" height="100.0" transform="matrix(1.0, 0.0, 0.0, 1.0, -50.0, -50.0)" width="100.0" xlink:href="#shape1"/>
    </g>
    <g id="shape1" transform="matrix(1.0, 0.0, 0.0, 1.0, 50.0, 50.0)">
      <path d="M50.0 50.0 L-50.0 50.0 -50.0 -50.0 50.0 -50.0 50.0 50.0 Z" fill="none" stroke="#9900ff" stroke-linecap="round" stroke-linejoin="round" stroke-width="0.05"/>
    </g>
  </defs>
</svg>
