<?xml version="1.0" encoding="UTF-8" standalone="no"?>
<svg xmlns:ffdec="https://www.free-decompiler.com/flash" xmlns:xlink="http://www.w3.org/1999/xlink" ffdec:objectType="frame" height="67.95px" width="21.4px" xmlns="http://www.w3.org/2000/svg">
  <g transform="matrix(1.0, 0.0, 0.0, 1.0, 12.3, 6.95)">
    <use ffdec:characterId="2577" ffdec:characterName="game_fla.lowerarm1_286" height="67.95" id="lowerArm1" transform="matrix(1.0, 0.0, 0.0, 1.0, -12.3, -6.95)" width="21.4" xlink:href="#sprite0"/>
  </g>
  <defs>
    <g id="sprite0" transform="matrix(1.0, 0.0, 0.0, 1.0, 11.85, 30.35)">
      <use ffdec:characterId="2573" height="61.25" transform="matrix(1.0, 0.0, 0.0, 1.0, -11.85, -30.35)" width="19.8" xlink:href="#shape0"/>
      <use ffdec:characterId="2575" ffdec:characterName="game_fla.hand1_287" height="24.55" id="hand" transform="matrix(1.0, 0.0, 0.0, 1.0, -8.95, 13.05)" width="16.7" xlink:href="#sprite1"/>
      <use ffdec:characterId="1081" height="100.0" id="shape" transform="matrix(0.15, 0.0, 0.0, 0.6, -7.4997, -29.9995)" width="100.0" xlink:href="#sprite2"/>
    </g>
    <g id="shape0" transform="matrix(1.0, 0.0, 0.0, 1.0, 11.85, 30.35)">
      <path d="M1.5 -1.6 L2.35 -1.75 3.4 -1.9 3.6 8.95 4.25 9.55 5.05 11.1 Q4.85 11.75 3.25 11.85 L-1.65 12.1 Q-1.75 12.15 -1.9 12.0 L-2.1 9.75 -3.15 2.85 Q-2.05 3.5 -1.5 5.15 -1.15 4.65 -0.75 3.6 L-0.65 3.3 -0.55 3.25 Q-1.3 2.65 -1.9 1.4 -2.65 -0.1 -2.5 -0.55 -1.95 -1.55 -1.15 -1.45 L-0.75 -1.4 0.3 -0.5 1.05 -1.3 1.5 -1.6 M3.9 -2.3 L4.25 -2.9 4.55 -4.0 4.75 -3.9 5.0 -3.45 Q5.35 -2.8 5.05 -1.15 4.75 0.6 5.35 1.4 5.15 3.05 5.1 4.75 4.7 1.15 3.9 -2.3 M5.45 12.65 L5.55 13.25 7.75 22.5 7.15 24.15 6.0 25.6 6.2 28.25 5.55 27.25 Q3.85 27.95 2.2 29.0 L0.85 28.05 Q0.0 29.2 -0.75 28.9 L-1.6 28.6 -2.15 27.8 -5.85 26.7 -5.5 26.0 Q-4.4 23.65 -3.9 21.1 -3.55 19.05 -2.85 17.25 -2.35 16.0 -2.15 14.8 L-2.05 14.2 2.0 13.7 1.75 14.2 2.15 14.6 2.6 14.8 4.55 17.95 5.35 14.75 Q5.5 14.0 5.25 13.3 L5.45 12.65 M-4.35 14.45 L-4.05 13.5 -4.15 13.15 Q-4.1 8.9 -5.05 3.1 -4.8 2.65 -4.4 2.55 L-3.55 6.35 Q-2.4 10.7 -4.35 14.45 M-5.85 -1.5 L-6.45 -4.9 -5.8 -4.85 -5.2 -4.45 -5.2 -4.15 -5.05 -2.85 -5.25 -2.35 Q-5.5 -1.7 -5.85 -1.5 M-2.85 -10.25 Q-2.45 -11.0 -1.6 -10.7 -0.25 -10.2 -0.65 -8.4 -1.6 -5.15 -3.05 -5.7 L-3.4 -5.9 -3.4 -6.05 -2.85 -10.25" fill="#ffcc99" fill-rule="evenodd" stroke="none"/>
      <path d="M3.4 -1.9 L3.9 -2.3 Q4.7 1.15 5.1 4.75 L5.15 9.6 5.3 11.2 5.45 12.15 5.45 12.65 5.25 13.3 Q5.5 14.0 5.35 14.75 L4.55 17.95 2.6 14.8 2.15 14.6 1.75 14.2 2.0 13.7 -2.05 14.2 -2.15 14.8 Q-2.35 16.0 -2.85 17.25 -3.55 19.05 -3.9 21.1 -4.4 23.65 -5.5 26.0 L-5.85 26.7 -2.15 27.8 -1.6 28.6 -0.75 28.9 Q0.0 29.2 0.85 28.05 L2.2 29.0 Q3.85 27.95 5.55 27.25 L6.2 28.25 6.15 28.65 6.1 28.8 4.1 30.0 3.05 29.65 2.9 29.6 2.4 30.05 1.25 30.6 0.1 30.9 -0.8 29.9 -0.85 29.95 -1.45 30.45 -2.65 30.45 Q-4.5 29.95 -5.1 28.25 L-6.15 27.85 -6.8 26.8 -6.9 26.55 Q-6.8 21.8 -5.1 16.9 L-4.35 14.45 Q-2.4 10.7 -3.55 6.35 L-4.4 2.55 -3.75 2.55 -3.15 2.85 -2.1 9.75 -1.9 12.0 Q-1.75 12.15 -1.65 12.1 L3.25 11.85 Q4.85 11.75 5.05 11.1 L4.25 9.55 3.6 8.95 3.4 -1.9 M-3.4 -5.9 Q-4.5 -6.75 -2.95 -10.0 L-2.85 -10.25 -3.4 -6.05 -3.4 -5.9 M-5.05 -2.85 L-5.2 -4.15 -5.2 -4.45 Q-4.75 -3.95 -5.05 -2.85" fill="#ebbb98" fill-rule="evenodd" stroke="none"/>
      <path d="M0.25 -29.95 L2.8 -30.35 3.05 -30.25 Q6.35 -29.65 6.95 -26.45 L7.0 -25.65 7.5 -20.7 Q8.1 -14.8 7.9 -12.35 8.05 -10.4 7.8 -7.35 L7.25 -0.3 7.25 0.7 7.3 1.3 6.85 1.5 6.05 1.85 5.35 1.4 Q4.75 0.6 5.05 -1.15 5.35 -2.8 5.0 -3.45 L4.75 -3.9 4.55 -4.0 4.25 -2.9 3.9 -2.3 3.4 -1.9 2.35 -1.75 1.5 -1.6 1.55 -1.8 1.5 -2.0 Q2.0 -2.25 2.1 -2.5 2.3 -8.25 2.45 -8.75 L2.65 -8.95 Q2.45 -9.5 3.25 -10.2 3.55 -11.05 2.6 -13.05 L2.55 -13.1 Q1.6 -15.0 2.0 -16.2 L3.45 -18.3 3.75 -19.45 3.15 -21.1 3.1 -21.45 1.7 -20.3 Q0.7 -19.6 -0.15 -19.3 L-0.9 -19.15 -1.8 -19.3 Q-2.4 -19.5 -2.25 -20.8 L-1.95 -22.2 -1.2 -23.2 0.15 -24.4 Q1.75 -25.7 2.45 -27.3 L2.55 -27.65 2.45 -27.6 1.15 -27.3 -0.25 -27.35 Q-0.85 -27.55 -1.15 -27.85 -1.7 -28.45 -1.35 -29.45 L0.25 -29.95" fill="#8d8c47" fill-rule="evenodd" stroke="none"/>
      <path d="M0.25 -29.95 L-1.35 -29.45 Q-1.7 -28.45 -1.15 -27.85 -0.85 -27.55 -0.25 -27.35 L1.15 -27.3 2.45 -27.6 2.55 -27.65 2.45 -27.3 Q1.75 -25.7 0.15 -24.4 L-1.2 -23.2 -1.95 -22.2 -2.25 -20.8 Q-2.4 -19.5 -1.8 -19.3 L-0.9 -19.15 -0.15 -19.3 Q0.7 -19.6 1.7 -20.3 L3.1 -21.45 3.15 -21.1 3.75 -19.45 3.45 -18.3 2.0 -16.2 Q1.6 -15.0 2.55 -13.1 L2.6 -13.05 Q3.55 -11.05 3.25 -10.2 2.45 -9.5 2.65 -8.95 L2.45 -8.75 Q2.3 -8.25 2.1 -2.5 2.0 -2.25 1.5 -2.0 L1.55 -1.8 1.5 -1.6 1.05 -1.3 0.3 -0.5 -0.75 -1.4 -1.15 -1.45 Q-1.95 -1.55 -2.5 -0.55 -2.65 -0.1 -1.9 1.4 -1.3 2.65 -0.55 3.25 L-0.65 3.3 -0.75 3.6 Q-1.15 4.65 -1.5 5.15 -2.05 3.5 -3.15 2.85 L-3.75 2.55 -4.4 2.55 Q-4.8 2.65 -5.05 3.1 L-5.1 3.15 Q-5.9 3.5 -6.75 4.75 -8.05 6.7 -8.5 6.55 -9.25 6.3 -9.0 5.6 -8.5 4.2 -6.7 1.35 L-6.8 1.05 -6.75 1.05 -6.45 1.05 Q-6.55 1.7 -5.75 1.95 L-5.25 2.1 -4.5 2.05 Q-3.8 1.85 -3.4 1.0 L-3.25 0.6 Q-3.0 0.0 -3.0 -1.85 L-2.85 -2.1 -2.15 -1.6 Q-1.35 -1.3 -0.85 -2.7 -0.3 -4.8 -1.1 -5.05 L-2.9 -5.0 -3.45 -5.25 Q-5.3 -6.15 -4.6 -8.0 L-2.9 -11.7 Q-2.5 -12.8 -2.8 -13.75 -2.7 -14.1 -3.3 -17.7 L-3.55 -19.15 Q-4.45 -24.2 -4.05 -25.35 -3.6 -26.6 -2.6 -27.85 L-1.5 -29.15 -1.7 -29.6 0.25 -29.95 M-2.85 -10.25 L-2.95 -10.0 Q-4.5 -6.75 -3.4 -5.9 L-3.05 -5.7 Q-1.6 -5.15 -0.65 -8.4 -0.25 -10.2 -1.6 -10.7 -2.45 -11.0 -2.85 -10.25 M-3.15 -3.55 L-3.1 -3.5 -3.2 -3.55 -3.15 -3.55" fill="#666633" fill-rule="evenodd" stroke="none"/>
      <path d="M-6.45 1.05 Q-6.0 0.95 -5.75 0.55 L-5.6 0.15 -6.1 -1.45 -5.85 -1.5 Q-5.5 -1.7 -5.25 -2.35 L-5.05 -2.85 Q-4.75 -3.95 -5.2 -4.45 L-5.8 -4.85 -6.45 -4.9 Q-7.0 -4.75 -7.35 -3.9 L-7.55 -3.0 -8.3 -3.05 Q-8.75 -3.05 -9.05 -2.7 -9.6 -1.95 -10.3 -1.8 -10.65 -2.95 -9.45 -5.7 -8.3 -8.25 -9.2 -10.0 -9.4 -10.45 -10.05 -10.65 L-11.85 -10.35 -10.35 -12.6 -9.05 -15.15 -7.55 -20.55 -7.5 -21.45 Q-7.15 -26.9 -5.8 -28.9 L-3.3 -29.35 -1.85 -29.7 -1.7 -29.6 -1.5 -29.15 -2.6 -27.85 Q-3.6 -26.6 -4.05 -25.35 -4.45 -24.2 -3.55 -19.15 L-3.3 -17.7 Q-2.7 -14.1 -2.8 -13.75 -2.5 -12.8 -2.9 -11.7 L-4.6 -8.0 Q-5.3 -6.15 -3.45 -5.25 L-2.9 -5.0 -1.1 -5.05 Q-0.3 -4.8 -0.85 -2.7 -1.35 -1.3 -2.15 -1.6 L-2.85 -2.1 -3.0 -1.85 Q-3.0 0.0 -3.25 0.6 L-3.4 1.0 Q-3.8 1.85 -4.5 2.05 L-5.25 2.1 -5.75 1.95 Q-6.55 1.7 -6.45 1.05 M-3.15 -3.55 L-3.2 -3.55 -3.1 -3.5 -3.15 -3.55" fill="#78783c" fill-rule="evenodd" stroke="none"/>
    </g>
    <g id="sprite1" transform="matrix(1.0, 0.0, 0.0, 1.0, 9.35, 8.9)">
      <use ffdec:characterId="1547" height="17.85" transform="matrix(1.0, 0.0, 0.0, 1.0, -7.3, -8.9)" width="14.65" xlink:href="#shape1"/>
    </g>
    <g id="shape1" transform="matrix(1.0, 0.0, 0.0, 1.0, 7.3, 8.9)">
      <path d="M4.95 -8.9 L5.15 -8.9 5.15 -8.7 7.35 0.55 6.75 2.2 5.6 3.65 5.8 6.3 5.15 5.3 Q3.45 6.0 1.8 7.05 L0.45 6.1 Q-0.4 7.25 -1.15 6.95 L-2.0 6.65 -2.55 5.85 -6.25 4.75 -5.9 4.05 Q-4.8 1.7 -4.3 -0.85 -3.95 -2.9 -3.25 -4.7 -2.75 -5.95 -2.55 -7.15 L-2.45 -7.75 1.6 -8.25 1.35 -7.75 1.75 -7.35 2.2 -7.15 4.15 -4.0 4.95 -7.2 Q5.1 -7.95 4.85 -8.65 L4.95 -8.9 M-4.75 -7.5 L-4.45 -8.45 -4.55 -8.8 -4.55 -8.9 -4.05 -8.9 -4.75 -7.5" fill="#ffcc99" fill-rule="evenodd" stroke="none"/>
      <path d="M5.8 6.3 L5.75 6.7 5.7 6.85 Q4.9 7.55 3.7 8.05 L2.65 7.7 2.5 7.65 2.0 8.1 0.85 8.65 -0.3 8.95 -1.2 7.95 -1.25 8.0 -1.85 8.5 -3.05 8.5 Q-4.9 8.0 -5.5 6.3 L-6.55 5.9 -7.2 4.85 -7.3 4.6 Q-7.2 -0.15 -5.5 -5.05 L-4.75 -7.5 -4.05 -8.9 4.95 -8.9 4.85 -8.65 Q5.1 -7.95 4.95 -7.2 L4.15 -4.0 2.2 -7.15 1.75 -7.35 1.35 -7.75 1.6 -8.25 -2.45 -7.75 -2.55 -7.15 Q-2.75 -5.95 -3.25 -4.7 -3.95 -2.9 -4.3 -0.85 -4.8 1.7 -5.9 4.05 L-6.25 4.75 -2.55 5.85 -2.0 6.65 -1.15 6.95 Q-0.4 7.25 0.45 6.1 L1.8 7.05 Q3.45 6.0 5.15 5.3 L5.8 6.3" fill="#ebbb98" fill-rule="evenodd" stroke="none"/>
    </g>
    <g id="sprite2" transform="matrix(1.0, 0.0, 0.0, 1.0, 50.0, 50.0)">
      <use ffdec:characterId="1080" height="100.0" transform="matrix(1.0, 0.0, 0.0, 1.0, -50.0, -50.0)" width="100.0" xlink:href="#shape2"/>
    </g>
    <g id="shape2" transform="matrix(1.0, 0.0, 0.0, 1.0, 50.0, 50.0)">
      <path d="M50.0 50.0 L-50.0 50.0 -50.0 -50.0 50.0 -50.0 50.0 50.0 Z" fill="none" stroke="#9900ff" stroke-linecap="round" stroke-linejoin="round" stroke-width="0.05"/>
    </g>
  </defs>
</svg>
