<?xml version="1.0" encoding="UTF-8" standalone="no"?>
<svg xmlns:ffdec="https://www.free-decompiler.com/flash" xmlns:xlink="http://www.w3.org/1999/xlink" ffdec:objectType="frame" height="88.05px" width="59.95px" xmlns="http://www.w3.org/2000/svg">
  <g transform="matrix(1.0, 0.0, 0.0, 1.0, 31.25, 45.65)">
    <use ffdec:characterId="1172" height="88.05" transform="matrix(1.0, 0.0, 0.0, 1.0, -31.25, -45.65)" width="59.95" xlink:href="#shape0"/>
  </g>
  <defs>
    <g id="shape0" transform="matrix(1.0, 0.0, 0.0, 1.0, 31.25, 45.65)">
      <path d="M22.25 6.05 L21.4 6.05 17.95 5.75 18.1 3.4 18.7 0.2 18.85 -0.7 18.45 -0.8 15.95 -1.0 15.25 -1.0 Q18.0 -1.5 19.15 -2.2 L19.75 -6.2 20.0 -8.25 19.15 -9.85 Q17.55 -12.5 18.2 -13.35 19.6 -12.35 20.25 -14.6 L20.35 -15.15 20.9 -18.75 20.95 -19.65 22.1 -18.5 Q22.85 -17.55 23.1 -16.5 L23.45 -18.55 24.4 -17.4 Q24.0 -13.1 23.95 -11.4 L23.9 -10.8 23.5 -6.2 23.4 -5.5 22.65 0.15 22.3 3.4 22.25 6.05 M-13.45 4.7 L-14.2 4.75 -14.6 4.8 -17.7 5.0 -18.35 0.0 -18.1 -5.15 -18.1 -6.2 Q-18.15 -7.55 -18.6 -6.2 L-20.2 -0.1 Q-20.0 -3.4 -20.15 -6.2 L-20.45 -9.7 Q-21.0 -13.7 -22.35 -16.5 L-24.85 -20.4 -24.9 -21.85 -23.65 -21.15 -22.45 -21.75 -21.75 -21.4 -19.8 -19.3 Q-20.3 -18.5 -20.25 -17.6 -20.2 -14.8 -17.7 -15.8 L-17.2 -19.4 -15.3 -20.0 -15.15 -19.85 -15.05 -18.15 -14.75 -16.15 -14.75 -15.4 Q-13.95 -12.45 -13.5 -8.35 L-12.6 -8.75 -10.5 -9.5 -9.55 -9.8 Q-6.6 -10.65 -5.6 -11.25 -5.75 -10.95 -9.55 -8.15 L-10.75 -7.25 -12.1 -6.2 -13.25 -5.1 -12.65 -1.15 -13.2 1.3 -13.3 2.4 -13.45 4.7" fill="#90bce7" fill-rule="evenodd" stroke="none"/>
      <path d="M-4.25 -26.6 L-3.25 -26.0 -1.1 -25.95 -1.05 -24.5 -1.0 -15.0 -1.0 -12.85 -1.15 -9.0 -1.35 -6.2 -1.6 -3.6 Q-2.05 -0.1 -2.15 4.5 L-7.5 4.35 -13.45 4.7 -13.3 2.4 -13.2 1.3 -12.65 -1.15 -13.25 -5.1 -12.1 -6.2 -10.75 -7.25 -9.55 -8.15 Q-5.75 -10.95 -5.6 -11.25 -6.6 -10.65 -9.55 -9.8 L-10.5 -9.5 -12.6 -8.75 -13.5 -8.35 Q-13.95 -12.45 -14.75 -15.4 L-14.75 -16.15 -15.05 -18.15 -15.15 -19.85 -14.8 -19.6 -13.55 -21.1 -12.25 -16.95 Q-13.3 -15.9 -13.55 -14.6 L-13.65 -13.5 -13.15 -13.05 -10.95 -13.15 Q-9.25 -17.6 -9.95 -22.6 -8.75 -21.15 -7.05 -20.8 L-6.35 -20.85 -5.7 -21.4 -5.6 -23.05 -5.95 -24.0 -8.8 -24.35 -7.9 -26.5 -6.85 -25.85 -4.25 -26.6 M-1.0 -25.95 L-0.6 -25.95 Q0.35 -25.95 1.05 -26.4 1.7 -26.9 1.7 -27.55 L1.9 -28.4 1.85 -26.95 0.1 -24.6 -0.05 -23.85 Q-0.6 -20.85 2.45 -20.0 3.0 -20.0 3.4 -20.35 3.75 -20.75 3.75 -21.3 L4.05 -22.2 2.95 -24.5 3.75 -26.25 4.3 -26.3 Q5.65 -25.5 6.65 -24.05 7.8 -22.25 7.8 -20.2 L7.7 -16.5 9.3 -14.8 12.3 -20.75 13.95 -19.75 16.7 -20.7 16.2 -19.5 15.85 -18.2 18.05 -17.05 17.3 -15.6 17.55 -14.9 17.9 -13.55 18.2 -13.35 Q17.55 -12.5 19.15 -9.85 L20.0 -8.25 19.75 -6.2 19.15 -2.2 Q18.0 -1.5 15.25 -1.0 L15.95 -1.0 18.45 -0.8 18.85 -0.7 18.7 0.2 18.1 3.4 17.95 5.75 4.75 5.15 0.7 4.75 -1.2 4.55 Q-1.15 1.4 -0.6 -2.15 L-0.15 -6.2 -0.05 -8.65 0.0 -11.75 0.0 -12.8 Q-0.05 -19.65 -1.0 -25.95 M15.1 -15.25 Q14.25 -15.25 13.65 -14.65 13.05 -14.05 13.05 -13.2 13.05 -12.35 13.65 -11.75 14.25 -11.15 15.1 -11.15 15.95 -11.15 16.55 -11.75 17.15 -12.35 17.15 -13.2 17.15 -14.05 16.55 -14.65 15.95 -15.25 15.1 -15.25 M-8.6 -19.6 L-9.2 -18.4 -8.15 -16.05 -8.75 -15.25 -8.7 -14.3 -6.75 -13.75 -6.1 -15.5 -4.75 -16.6 -4.7 -18.6 -6.2 -19.55 -8.6 -19.6 M-21.75 -21.4 L-19.1 -20.15 -19.8 -19.3 -21.75 -21.4" fill="#82add7" fill-rule="evenodd" stroke="none"/>
      <path d="M-1.1 -25.95 L-1.0 -25.95 Q-0.05 -19.65 0.0 -12.8 L0.0 -11.75 -0.05 -8.65 -0.15 -6.2 -0.6 -2.15 Q-1.15 1.4 -1.2 4.55 L-2.15 4.5 Q-2.05 -0.1 -1.6 -3.6 L-1.35 -6.2 -1.15 -9.0 -1.0 -12.85 -1.0 -15.0 -1.05 -24.5 -1.1 -25.95" fill="#7091b1" fill-rule="evenodd" stroke="none"/>
      <path d="M26.75 -12.75 L26.65 -11.0 26.6 -8.8 26.55 -6.45 26.55 -6.2 25.75 -0.3 Q25.4 1.8 25.45 3.4 L26.05 6.55 22.25 6.05 22.3 3.4 22.65 0.15 23.4 -5.5 23.5 -6.2 23.9 -10.8 23.95 -11.4 Q24.0 -13.1 24.4 -17.4 L24.7 -17.0 26.75 -12.75 M-19.25 5.05 L-23.45 5.05 -24.05 -2.2 -24.55 -6.2 -24.75 -7.25 Q-25.5 -10.65 -26.95 -15.45 -27.65 -17.6 -27.8 -19.8 L-27.7 -19.65 -26.4 -20.1 -24.85 -18.05 -24.85 -20.4 -22.35 -16.5 Q-21.0 -13.7 -20.45 -9.7 L-20.15 -6.2 Q-20.0 -3.4 -20.2 -0.1 L-18.6 -6.2 Q-18.15 -7.55 -18.1 -6.2 L-18.1 -5.15 -18.35 0.0 -17.7 5.0 -18.2 5.05 -19.25 5.05 M-27.8 -23.6 L-27.75 -24.05 -27.55 -23.8 -27.8 -23.6" fill="#aacdf0" fill-rule="evenodd" stroke="none"/>
      <path d="M21.4 6.05 L21.05 9.0 20.7 8.9 17.35 8.3 8.6 7.75 3.05 8.15 1.75 8.3 -0.9 8.5 -1.75 8.5 -2.25 8.45 -6.5 8.1 -11.5 7.75 -17.1 7.9 -18.9 7.95 -19.25 5.45 -19.25 5.05 -18.2 5.05 -17.7 5.0 -14.6 4.8 -14.2 4.75 -13.45 4.7 -7.5 4.35 -2.15 4.5 -1.2 4.55 0.7 4.75 4.75 5.15 17.95 5.75 21.4 6.05" fill="#e2b181" fill-rule="evenodd" stroke="none"/>
      <path d="M25.7 -22.15 L25.75 -22.1 25.45 -22.3 25.7 -22.15 M21.05 9.0 L20.8 10.75 21.15 9.45 Q20.6 11.6 20.15 15.05 19.55 19.4 19.0 21.25 L18.35 23.15 Q14.55 25.75 10.75 25.75 7.65 25.75 6.3 25.05 L4.95 23.9 2.95 21.7 Q3.4 24.25 4.85 26.05 L5.0 26.25 Q6.9 28.5 9.1 28.5 12.1 28.5 16.25 25.9 L17.8 24.85 Q17.6 25.9 17.65 26.9 17.7 27.9 17.2 30.05 L17.05 30.9 Q12.3 41.8 3.85 42.35 -5.35 42.95 -10.55 38.45 -15.75 33.95 -15.75 30.85 L-15.55 26.5 -15.4 25.4 Q-13.6 25.35 -12.05 26.0 L-10.7 26.7 -8.75 27.5 -8.6 27.5 -10.65 26.55 -13.0 25.25 -14.4 24.3 Q-14.75 24.05 -15.1 23.9 L-15.0 22.95 Q-15.0 21.9 -15.35 20.25 -15.85 17.85 -17.1 14.1 L-18.9 7.95 -17.1 7.9 -11.5 7.75 -6.5 8.1 -2.25 8.45 -1.75 8.5 -0.9 8.5 1.75 8.3 3.05 8.15 8.6 7.75 17.35 8.3 20.7 8.9 21.05 9.0 M22.4 -22.35 L20.9 -21.1 20.5 -21.25 19.7 -21.65 15.95 -23.45 16.35 -24.55 16.5 -24.95 22.4 -22.35 M7.05 -33.1 L5.5 -32.85 4.7 -32.1 3.65 -30.25 4.05 -29.35 3.65 -29.5 1.9 -28.4 1.7 -27.55 Q1.7 -26.9 1.05 -26.4 0.35 -25.95 -0.6 -25.95 L-1.0 -25.95 -1.1 -25.95 -3.25 -26.0 -4.25 -26.6 -7.55 -28.55 Q-6.9 -28.5 -6.75 -29.05 L-6.0 -31.25 -4.7 -28.8 Q-3.2 -28.3 -2.1 -28.15 L-1.45 -28.05 Q2.55 -27.7 -0.25 -32.4 L0.85 -33.6 Q3.25 -30.1 3.75 -33.85 4.25 -32.7 7.05 -33.1 M12.4 -25.6 L11.6 -25.85 12.15 -29.35 14.3 -29.0 14.45 -26.9 12.65 -25.75 12.4 -25.6 M-14.6 -27.8 L-13.75 -28.25 -11.4 -29.5 Q-11.4 -27.6 -12.6 -26.25 -13.8 -24.9 -15.5 -24.9 -17.1 -25.9 -18.65 -24.15 L-19.05 -23.3 -20.85 -22.6 -21.55 -23.25 -14.6 -27.8 M-4.45 16.45 L-3.35 12.45 -3.5 12.65 Q-4.35 14.8 -5.45 16.55 L-6.8 18.4 -7.0 19.4 -7.35 21.9 -5.55 18.8 -4.45 16.45" fill="#ffcc99" fill-rule="evenodd" stroke="none"/>
      <path d="M18.35 23.15 L18.05 23.95 17.8 24.85 16.25 25.9 Q12.1 28.5 9.1 28.5 6.9 28.5 5.0 26.25 L4.85 26.05 Q3.4 24.25 2.95 21.7 L4.95 23.9 6.3 25.05 Q7.65 25.75 10.75 25.75 14.55 25.75 18.35 23.15 M-15.4 25.4 L-15.4 25.05 -15.4 24.95 -15.15 24.2 -15.1 23.9 Q-14.75 24.05 -14.4 24.3 L-13.0 25.25 -10.65 26.55 -8.6 27.5 -8.75 27.5 -10.7 26.7 -12.05 26.0 Q-13.6 25.35 -15.4 25.4 M-4.45 16.45 L-5.55 18.8 -7.35 21.9 -7.0 19.4 -6.8 18.4 -5.45 16.55 Q-4.35 14.8 -3.5 12.65 L-3.35 12.45 -4.45 16.45" fill="#ebbb98" fill-rule="evenodd" stroke="none"/>
      <path d="M24.75 -26.0 L24.9 -25.65 24.75 -25.85 24.75 -26.0 M25.75 -22.1 L25.9 -22.1 25.9 -22.05 25.8 -22.05 25.75 -22.1" fill="#336699" fill-rule="evenodd" stroke="none"/>
      <path d="M24.9 -25.65 L25.35 -24.85 24.85 -24.35 24.3 -24.35 24.75 -25.85 24.9 -25.65 M-11.65 -38.85 L-10.7 -39.5 -6.05 -39.3 -2.95 -36.5 -2.85 -36.45 -0.8 -35.75 0.45 -35.05 1.4 -35.25 1.3 -34.4 0.9 -34.1 0.85 -33.6 -0.25 -32.4 -2.45 -34.25 -3.25 -33.75 -4.65 -35.15 -8.3 -35.25 -6.15 -36.85 -11.7 -38.05 -11.65 -38.85 M2.4 -41.5 L9.1 -37.9 8.85 -36.05 8.05 -35.65 5.85 -36.4 6.35 -37.5 2.4 -41.5 M11.6 -36.75 L11.65 -36.75 12.35 -35.75 12.3 -34.85 15.15 -33.6 Q17.25 -32.7 17.9 -30.6 L21.05 -29.1 12.75 -30.85 13.4 -32.4 14.75 -32.05 13.25 -33.0 13.15 -33.05 10.05 -35.25 10.7 -37.05 11.6 -36.75 M22.15 -27.0 L24.25 -26.25 24.3 -26.25 23.5 -24.55 22.15 -25.1 16.4 -26.2 16.5 -24.95 16.35 -24.55 15.1 -23.35 13.0 -23.45 12.4 -24.2 12.65 -25.75 14.45 -26.9 16.1 -26.7 16.65 -27.15 22.15 -27.0 M20.5 -21.25 L20.65 -20.8 21.0 -20.55 20.95 -19.65 20.9 -18.75 19.4 -14.45 18.5 -14.3 17.55 -14.9 17.3 -15.6 18.05 -17.05 19.1 -18.55 18.7 -18.35 16.65 -20.1 17.05 -21.35 17.9 -21.8 19.7 -21.65 20.5 -21.25 M4.7 -32.1 L5.5 -32.85 7.05 -33.1 7.2 -33.15 9.55 -31.7 11.6 -32.6 12.9 -32.6 11.7 -30.9 11.6 -30.95 9.6 -31.35 Q7.65 -28.95 5.75 -30.8 L4.7 -32.1 M-10.25 -31.45 Q-10.25 -32.35 -10.5 -32.8 -10.75 -33.25 -11.05 -33.15 L-11.55 -32.45 -11.7 -31.25 -13.65 -31.7 -14.2 -32.7 -17.15 -31.1 -13.75 -28.25 -14.6 -27.8 -21.5 -29.0 -20.55 -31.15 -17.5 -31.25 -16.5 -32.1 -16.0 -32.4 -14.25 -33.1 Q-10.5 -34.35 -6.75 -33.8 L-6.35 -33.25 -10.25 -31.45 M-15.5 -24.9 L-15.05 -23.75 -15.35 -23.0 -16.0 -22.5 Q-17.3 -21.8 -18.6 -22.95 L-18.65 -24.15 Q-17.1 -25.9 -15.5 -24.9 M-22.25 -24.0 L-24.5 -26.35 -22.75 -26.95 -21.0 -25.9 -22.25 -24.0 M-8.8 -24.35 L-5.95 -24.0 -5.6 -23.05 -6.55 -21.9 -7.55 -21.8 -9.3 -22.95 -10.7 -22.45 -10.3 -20.65 Q-9.6 -16.8 -12.4 -13.8 L-12.45 -13.8 -13.15 -14.05 -13.45 -14.9 -12.25 -16.95 -13.55 -21.1 -14.0 -23.6 -13.25 -23.95 -8.8 -24.35" fill="#ff0000" fill-rule="evenodd" stroke="none"/>
      <path d="M25.35 -24.85 L25.85 -22.85 25.7 -22.15 25.45 -22.3 24.3 -24.35 24.85 -24.35 25.35 -24.85 M-27.9 -23.55 L-27.8 -23.6 -27.55 -23.8 -26.15 -25.0 -25.7 -24.3 -26.7 -22.45 -27.8 -23.5 -27.9 -23.55 M-24.95 -27.15 L-23.65 -29.3 Q-21.05 -33.35 -16.4 -34.65 L-16.0 -34.45 -11.65 -38.85 -11.7 -38.05 -6.15 -36.85 -8.3 -35.25 -4.65 -35.15 -3.25 -33.75 -2.45 -34.25 -0.25 -32.4 Q2.55 -27.7 -1.45 -28.05 L-2.1 -28.15 Q-3.2 -28.3 -4.7 -28.8 L-6.0 -31.25 -6.75 -29.05 Q-6.9 -28.5 -7.55 -28.55 L-10.25 -31.45 -6.35 -33.25 -6.75 -33.8 Q-10.5 -34.35 -14.25 -33.1 L-16.0 -32.4 -16.5 -32.1 -17.5 -31.25 -20.55 -31.15 -21.5 -29.0 -14.6 -27.8 -21.55 -23.25 -22.25 -24.0 -21.0 -25.9 -22.75 -26.95 -24.5 -26.35 -24.95 -27.15 M-6.05 -39.3 L-2.9 -40.75 -2.95 -36.5 -6.05 -39.3 M1.25 -41.75 L2.4 -41.5 6.35 -37.5 5.85 -36.4 8.05 -35.65 8.85 -36.05 9.1 -37.9 11.6 -36.75 10.7 -37.05 10.05 -35.25 13.15 -33.05 12.9 -32.6 11.6 -32.6 9.55 -31.7 7.2 -33.15 7.05 -33.1 Q4.25 -32.7 3.75 -33.85 3.25 -30.1 0.85 -33.6 L0.9 -34.1 1.3 -34.4 1.4 -35.25 0.45 -35.05 -0.8 -35.75 1.3 -37.85 1.25 -41.75 M21.05 -29.1 L22.15 -27.0 16.65 -27.15 16.1 -26.7 14.45 -26.9 14.3 -29.0 12.15 -29.35 12.75 -30.85 21.05 -29.1 M23.5 -24.55 L22.4 -22.35 16.5 -24.95 16.4 -26.2 22.15 -25.1 23.5 -24.55 M4.05 -29.35 L3.65 -30.25 4.7 -32.1 5.75 -30.8 Q7.65 -28.95 9.6 -31.35 L11.6 -30.95 11.7 -30.9 10.7 -29.9 10.05 -30.15 9.5 -29.0 6.3 -27.35 5.9 -27.6 Q4.55 -28.05 4.05 -29.35 M16.7 -20.7 L17.05 -21.35 16.65 -20.1 18.7 -18.35 19.1 -18.55 18.05 -17.05 15.85 -18.2 16.2 -19.5 16.7 -20.7 M15.95 -23.45 Q15.5 -22.35 14.2 -22.1 12.4 -22.1 11.3 -23.5 L12.4 -25.6 12.65 -25.75 12.4 -24.2 13.0 -23.45 15.1 -23.35 16.35 -24.55 15.95 -23.45 M13.4 -32.4 L13.25 -33.0 14.75 -32.05 13.4 -32.4 M17.55 -14.9 L18.5 -14.3 19.4 -14.45 20.9 -18.75 20.35 -15.15 20.25 -14.6 Q19.6 -12.35 18.2 -13.35 L17.9 -13.55 17.55 -14.9 M-13.75 -28.25 L-17.15 -31.1 -14.2 -32.7 -13.65 -31.7 -11.7 -31.25 -11.85 -30.55 -11.4 -29.5 -13.75 -28.25 M-15.35 -23.0 L-15.35 -21.7 Q-16.0 -20.95 -16.65 -20.8 -17.45 -20.7 -18.35 -21.4 L-18.95 -21.95 -19.05 -23.3 -18.65 -24.15 -18.6 -22.95 Q-17.3 -21.8 -16.0 -22.5 L-15.35 -23.0 M-5.6 -23.05 L-5.7 -21.4 -6.35 -20.85 -7.05 -20.8 Q-8.75 -21.15 -9.95 -22.6 -9.25 -17.6 -10.95 -13.15 L-13.15 -13.05 -13.65 -13.5 -13.55 -14.6 Q-13.3 -15.9 -12.25 -16.95 L-13.45 -14.9 -13.15 -14.05 -12.45 -13.8 -12.4 -13.8 Q-9.6 -16.8 -10.3 -20.65 L-10.7 -22.45 -9.3 -22.95 -7.55 -21.8 -6.55 -21.9 -5.6 -23.05" fill="#990000" fill-rule="evenodd" stroke="none"/>
      <path d="M-2.9 -40.75 L-2.75 -43.15 -2.55 -44.0 Q-2.05 -45.55 -0.85 -45.6 1.2 -45.75 2.0 -45.15 L2.25 -44.4 1.25 -41.75 1.3 -37.85 -0.8 -35.75 -2.85 -36.45 -2.95 -36.5 -2.9 -40.75" fill="#ffffff" fill-rule="evenodd" stroke="none"/>
      <path d="M9.5 -29.0 L10.05 -30.15 10.7 -29.9 9.5 -29.0" fill="#583a30" fill-rule="evenodd" stroke="none"/>
      <path d="M24.3 -26.25 L24.8 -26.75 24.75 -26.0 24.75 -25.85 24.3 -24.35 25.45 -22.3 25.75 -22.1 25.8 -22.05 25.9 -22.05 26.05 -22.1 28.25 -24.15 28.5 -24.2 Q29.0 -23.25 28.2 -22.25 L28.1 -22.1 27.85 -21.75 27.3 -17.8 26.75 -17.6 26.85 -12.5 26.75 -12.75 24.7 -17.0 24.4 -17.4 23.45 -18.55 23.1 -16.5 Q22.85 -17.55 22.1 -18.5 L20.95 -19.65 21.0 -20.55 20.65 -20.8 20.5 -21.25 20.9 -21.1 22.4 -22.35 23.5 -24.55 24.3 -26.25 M-27.8 -19.8 L-31.25 -24.25 -30.5 -24.55 Q-28.95 -24.65 -27.95 -23.65 L-27.9 -23.55 -27.8 -23.5 -26.7 -22.45 -25.7 -24.3 -26.15 -25.0 -28.7 -28.25 -28.6 -28.75 -26.8 -27.9 -27.2 -32.65 -24.95 -27.15 -24.5 -26.35 -22.25 -24.0 -21.55 -23.25 -20.85 -22.6 -19.05 -23.3 -18.95 -21.95 -18.35 -21.4 Q-17.45 -20.7 -16.65 -20.8 -16.0 -20.95 -15.35 -21.7 L-15.35 -23.0 -15.05 -23.75 -15.5 -24.9 Q-13.8 -24.9 -12.6 -26.25 -11.4 -27.6 -11.4 -29.5 L-11.85 -30.55 -11.7 -31.25 -11.55 -32.45 -11.05 -33.15 Q-10.75 -33.25 -10.5 -32.8 -10.25 -32.35 -10.25 -31.45 L-7.55 -28.55 -4.25 -26.6 -6.85 -25.85 -7.9 -26.5 -8.8 -24.35 -13.25 -23.95 -14.0 -23.6 -13.55 -21.1 -14.8 -19.6 -15.15 -19.85 -15.3 -20.0 -17.2 -19.4 -17.7 -15.8 Q-20.2 -14.8 -20.25 -17.6 -20.3 -18.5 -19.8 -19.3 L-19.1 -20.15 -21.75 -21.4 -22.45 -21.75 -23.65 -21.15 -24.9 -21.85 -24.85 -20.4 -24.85 -18.05 -26.4 -20.1 -27.7 -19.65 -27.8 -19.8 M1.9 -28.4 L3.65 -29.5 4.05 -29.35 Q4.55 -28.05 5.9 -27.6 L6.3 -27.35 9.5 -29.0 10.7 -29.9 11.7 -30.9 12.9 -32.6 13.15 -33.05 13.25 -33.0 13.4 -32.4 12.75 -30.85 12.15 -29.35 11.6 -25.85 12.4 -25.6 11.3 -23.5 Q12.4 -22.1 14.2 -22.1 15.5 -22.35 15.95 -23.45 L19.7 -21.65 17.9 -21.8 17.05 -21.35 16.7 -20.7 13.95 -19.75 12.3 -20.75 9.3 -14.8 7.7 -16.5 7.8 -20.2 Q7.8 -22.25 6.65 -24.05 5.65 -25.5 4.3 -26.3 L3.75 -26.25 2.95 -24.5 4.05 -22.2 3.75 -21.3 Q3.75 -20.75 3.4 -20.35 3.0 -20.0 2.45 -20.0 -0.6 -20.85 -0.05 -23.85 L0.1 -24.6 1.85 -26.95 1.9 -28.4 M15.1 -15.25 Q15.95 -15.25 16.55 -14.65 17.15 -14.05 17.15 -13.2 17.15 -12.35 16.55 -11.75 15.95 -11.15 15.1 -11.15 14.25 -11.15 13.65 -11.75 13.05 -12.35 13.05 -13.2 13.05 -14.05 13.65 -14.65 14.25 -15.25 15.1 -15.25 M-8.6 -19.6 L-6.2 -19.55 -4.7 -18.6 -4.75 -16.6 -6.1 -15.5 -6.75 -13.75 -8.7 -14.3 -8.75 -15.25 -8.15 -16.05 -9.2 -18.4 -8.6 -19.6" fill="#8d5468" fill-rule="evenodd" stroke="none"/>
    </g>
  </defs>
</svg>
