<?xml version="1.0" encoding="UTF-8" standalone="no"?>
<svg xmlns:ffdec="https://www.free-decompiler.com/flash" xmlns:xlink="http://www.w3.org/1999/xlink" ffdec:objectType="frame" height="64.55px" width="26.5px" xmlns="http://www.w3.org/2000/svg">
  <g transform="matrix(1.0, 0.0, 0.0, 1.0, 12.4, 37.05)">
    <use ffdec:characterId="2378" height="56.0" transform="matrix(1.0, 0.0, 0.0, 1.0, -10.3, -28.65)" width="21.25" xlink:href="#shape0"/>
    <use ffdec:characterId="1081" height="100.0" id="shape" transform="matrix(0.18, 0.0, 0.0, 0.55, -8.9996, -27.4994)" width="100.0" xlink:href="#sprite0"/>
  </g>
  <defs>
    <g id="shape0" transform="matrix(1.0, 0.0, 0.0, 1.0, 10.3, 28.65)">
      <path d="M7.35 6.3 L7.2 9.4 -0.1 9.6 -6.05 8.85 -5.05 12.85 Q-4.1 16.75 -4.05 17.6 L-3.9 18.8 Q-4.2 16.6 -6.1 13.55 L-7.55 10.95 -8.0 5.55 -7.15 5.75 -6.35 5.8 1.6 6.3 3.7 6.25 3.7 6.4 5.0 6.25 5.05 6.2 7.35 6.3" fill="#e2b181" fill-rule="evenodd" stroke="none"/>
      <path d="M7.2 9.4 L6.95 13.0 Q6.65 17.8 6.9 20.15 7.0 21.75 5.95 24.0 4.35 27.05 1.3 27.3 -1.85 27.6 -3.8 26.65 -5.35 25.0 -6.15 22.75 L-6.75 20.9 -7.55 10.95 -6.1 13.55 Q-4.2 16.6 -3.9 18.8 L-4.05 17.6 Q-4.1 16.75 -5.05 12.85 L-6.05 8.85 -0.1 9.6 7.2 9.4" fill="#ffcc99" fill-rule="evenodd" stroke="none"/>
      <path d="M-8.35 -21.6 Q-7.2 -24.5 -6.3 -25.6 -4.6 -27.6 -2.3 -28.25 L-0.95 -28.55 3.45 -28.3 Q7.25 -27.8 9.3 -24.1 10.65 -21.5 10.95 -18.0 L10.45 -10.25 10.4 -10.05 10.4 -10.25 10.25 -12.1 Q9.95 -14.95 9.3 -17.7 8.65 -20.4 6.9 -22.05 3.25 -25.55 -0.7 -25.35 L-2.3 -25.15 Q-4.55 -24.6 -6.85 -22.85 L-8.35 -21.6" fill="#77ddb4" fill-rule="evenodd" stroke="none"/>
      <path d="M-8.35 -21.6 L-6.85 -22.85 Q-4.55 -24.6 -2.3 -25.15 L-0.7 -25.35 Q3.25 -25.55 6.9 -22.05 8.65 -20.4 9.3 -17.7 9.95 -14.95 10.25 -12.1 L10.4 -10.25 10.4 -10.05 9.1 3.7 8.6 6.2 7.35 6.3 5.05 6.2 5.0 6.25 3.7 6.4 3.7 6.25 3.65 6.2 3.55 6.15 3.55 5.0 3.5 4.2 2.0 -0.95 4.75 2.1 5.5 2.05 5.75 0.25 4.2 -3.1 Q3.0 -5.8 2.35 -8.35 L5.85 -4.6 6.45 -9.9 6.2 -14.0 Q7.65 -18.6 1.6 -20.9 L-0.35 -21.4 -2.2 -21.6 Q-5.5 -21.6 -7.25 -18.85 -7.6 -18.95 -8.1 -15.85 L-8.3 -14.6 -8.5 -13.05 -8.85 -9.75 -8.9 -8.65 -8.75 -7.75 Q-8.55 -6.9 -7.95 -5.8 L-7.6 -5.2 -7.2 -5.05 Q-6.6 -5.0 -6.4 -5.55 -5.2 -6.45 -3.4 -9.2 L-6.15 -2.9 -7.2 -1.1 -8.25 1.15 -8.4 2.4 -8.8 5.35 -9.4 5.15 Q-10.2 4.8 -10.25 4.2 L-10.25 1.35 -10.25 -5.6 -10.0 -12.9 -9.8 -15.85 Q-9.7 -18.3 -9.3 -19.2 L-8.8 -20.6 -8.35 -21.6" fill="#33cc99" fill-rule="evenodd" stroke="none"/>
      <path d="M-8.0 5.55 L-8.8 5.35 -8.4 2.4 -8.25 1.15 -7.2 -1.1 -6.15 -2.9 -3.4 -9.2 Q-5.2 -6.45 -6.4 -5.55 -6.6 -5.0 -7.2 -5.05 L-7.6 -5.2 -7.95 -5.8 Q-8.55 -6.9 -8.75 -7.75 L-8.9 -8.65 -8.85 -9.75 -8.5 -13.05 -8.3 -14.6 -8.1 -15.85 Q-7.6 -18.95 -7.25 -18.85 -5.5 -21.6 -2.2 -21.6 L-0.35 -21.4 1.6 -20.9 Q7.65 -18.6 6.2 -14.0 L6.45 -9.9 5.85 -4.6 2.35 -8.35 Q3.0 -5.8 4.2 -3.1 L5.75 0.25 5.5 2.05 4.75 2.1 2.0 -0.95 3.5 4.2 3.55 5.0 3.55 6.15 3.65 6.2 3.7 6.25 1.6 6.3 -6.35 5.8 -7.15 5.75 -8.0 5.55" fill="#2baa77" fill-rule="evenodd" stroke="none"/>
    </g>
    <g id="sprite0" transform="matrix(1.0, 0.0, 0.0, 1.0, 50.0, 50.0)">
      <use ffdec:characterId="1080" height="100.0" transform="matrix(1.0, 0.0, 0.0, 1.0, -50.0, -50.0)" width="100.0" xlink:href="#shape1"/>
    </g>
    <g id="shape1" transform="matrix(1.0, 0.0, 0.0, 1.0, 50.0, 50.0)">
      <path d="M50.0 50.0 L-50.0 50.0 -50.0 -50.0 50.0 -50.0 50.0 50.0 Z" fill="none" stroke="#9900ff" stroke-linecap="round" stroke-linejoin="round" stroke-width="0.05"/>
    </g>
  </defs>
</svg>
