<?xml version="1.0" encoding="UTF-8" standalone="no"?>
<svg xmlns:ffdec="https://www.free-decompiler.com/flash" xmlns:xlink="http://www.w3.org/1999/xlink" ffdec:objectType="frame" height="168.85px" width="82.95px" xmlns="http://www.w3.org/2000/svg">
  <g transform="matrix(1.0, 0.0, 0.0, 1.0, 41.45, 84.4)">
    <use ffdec:characterId="952" height="168.85" transform="matrix(1.0, 0.0, 0.0, 1.0, -41.45, -84.4)" width="82.95" xlink:href="#shape0"/>
  </g>
  <defs>
    <g id="shape0" transform="matrix(1.0, 0.0, 0.0, 1.0, 41.45, 84.4)">
      <path d="M27.75 -75.9 L30.25 -75.65 20.85 -29.5 18.4 -30.0 27.75 -75.9 M22.4 -27.15 L21.2 -21.25 18.05 -21.9 19.25 -27.8 22.4 -27.15 M1.55 25.25 L11.0 -21.3 12.4 -21.0 2.9 25.95 1.55 25.25 M11.4 -23.25 L12.6 -29.15 14.0 -28.85 12.8 -22.95 11.4 -23.25 M14.95 -30.7 L24.2 -76.1 25.2 -76.1 15.95 -30.5 14.95 -30.7 M-17.05 74.75 L-12.65 65.4 -11.95 65.45 -10.9 65.45 -10.25 65.4 -5.85 74.75 -6.2 74.85 -6.35 74.9 -6.8 74.95 -7.3 75.1 -7.65 75.15 -8.05 75.2 -8.5 75.25 -8.6 75.3 -8.65 75.3 -9.65 75.4 -13.4 75.4 -14.25 75.3 -14.5 75.25 -15.1 75.15 -15.9 75.0 -16.0 75.0 -16.1 75.0 -16.35 74.95 -16.45 74.9 -16.55 74.9 -17.05 74.75 M-11.45 66.3 Q-12.05 66.3 -12.45 66.8 -12.95 67.2 -12.95 67.8 -12.95 68.4 -12.45 68.9 -12.05 69.3 -11.45 69.3 -10.75 69.3 -10.35 68.9 -9.95 68.4 -9.95 67.8 -9.95 67.2 -10.35 66.8 -10.75 66.3 -11.45 66.3 M-9.75 70.6 Q-10.45 69.9 -11.45 69.9 -12.55 69.9 -13.25 70.6 -13.95 71.4 -13.95 72.4 L-13.7 73.5 -13.25 74.1 Q-12.55 74.9 -11.45 74.9 -10.45 74.9 -9.75 74.1 -8.95 73.4 -8.95 72.4 -8.95 71.55 -9.5 70.85 L-9.7 70.6 -9.75 70.6" fill="#8794a7" fill-rule="evenodd" stroke="none"/>
      <path d="M25.2 -76.1 L27.75 -75.9 18.4 -30.0 20.85 -29.5 22.8 -29.1 22.4 -27.15 19.25 -27.8 17.5 -28.15 16.3 -22.25 18.05 -21.9 21.2 -21.25 20.8 -19.3 17.65 -19.95 15.9 -20.3 6.1 28.0 4.65 27.05 2.9 25.95 12.4 -21.0 11.0 -21.3 11.4 -23.25 12.8 -22.95 14.0 -28.85 12.6 -29.15 13.0 -31.1 14.95 -30.7 15.95 -30.5 25.2 -76.1" fill="#c5cdd5" fill-rule="evenodd" stroke="none"/>
      <path d="M18.05 -21.9 L16.3 -22.25 17.5 -28.15 19.25 -27.8 18.05 -21.9 M6.1 28.0 L15.9 -20.3 17.65 -19.95 7.65 29.3 6.25 28.15 6.1 28.0" fill="#a3aebc" fill-rule="evenodd" stroke="none"/>
      <path d="M20.8 -19.3 L10.4 31.85 10.05 31.5 9.05 30.5 7.65 29.3 17.65 -19.95 20.8 -19.3" fill="#8a98a9" fill-rule="evenodd" stroke="none"/>
      <path d="M10.4 31.85 L12.1 33.75 12.1 35.85 12.1 40.6 Q10.2 37.2 7.25 34.25 -1.05 25.95 -12.9 25.95 -24.7 25.95 -33.1 34.25 -36.0 37.2 -37.9 40.55 L-37.9 40.15 -37.9 33.75 -35.85 31.5 Q-32.7 28.35 -29.1 26.25 -27.95 25.5 -26.7 24.95 L-23.2 23.55 -19.65 22.6 -17.6 22.25 -12.9 21.95 Q-5.9 21.95 0.05 24.55 L1.4 25.15 1.55 25.25 2.9 25.95 4.65 27.05 6.1 28.0 6.25 28.15 7.65 29.3 9.05 30.5 10.05 31.5 10.4 31.85 M4.25 37.0 Q2.75 35.6 1.1 34.55 L-0.2 33.75 Q-5.1 31.05 -11.05 30.95 L-11.9 30.95 Q-16.35 31.05 -20.25 32.65 -24.5 34.35 -28.05 37.85 -31.55 41.4 -33.25 45.65 -34.95 49.7 -34.95 54.45 -34.95 64.2 -28.05 71.05 -21.15 77.95 -11.45 77.95 -1.7 77.95 5.15 71.05 12.05 64.2 12.05 54.45 12.05 47.3 8.4 41.75 L5.75 38.5 5.15 37.85 4.25 37.0 M1.45 33.0 L4.6 35.3 6.1 36.7 6.2 36.8 8.8 39.75 Q13.55 46.1 13.55 54.45 13.55 64.8 6.2 72.1 -1.1 79.45 -11.45 79.45 -21.8 79.45 -29.1 72.1 -36.45 64.8 -36.45 54.45 -36.45 49.4 -34.7 45.1 -32.85 40.55 -29.1 36.8 -25.35 33.05 -20.8 31.2 -16.7 29.55 -11.95 29.45 L-11.05 29.45 Q-4.95 29.55 0.1 32.25 L1.45 33.0 M-12.65 65.4 Q-16.45 65.0 -19.2 62.2 L-20.55 60.65 Q-22.45 57.95 -22.45 54.45 L-22.45 53.95 Q-22.25 49.7 -19.2 46.7 -16.25 43.65 -12.05 43.45 L-11.0 43.45 -9.55 43.6 Q-7.2 43.95 -5.25 45.35 L-3.7 46.7 -3.0 47.45 -1.85 49.05 Q-0.45 51.45 -0.45 54.45 -0.45 56.25 -0.95 57.85 -1.75 60.25 -3.7 62.2 -6.45 65.0 -10.25 65.4 L-10.9 65.45 -11.95 65.45 -12.65 65.4 M-11.0 44.45 L-11.95 44.45 Q-15.8 44.65 -18.5 47.4 -21.45 50.3 -21.45 54.45 L-21.45 54.95 Q-21.3 57.85 -19.7 60.1 L-18.5 61.5 Q-15.6 64.45 -11.45 64.45 -7.3 64.45 -4.4 61.5 -2.65 59.8 -1.95 57.65 -1.45 56.15 -1.45 54.45 -1.45 52.35 -2.15 50.6 L-3.25 48.75 -4.4 47.4 -5.8 46.2 Q-7.5 44.95 -9.55 44.6 L-11.0 44.45 M-7.9 58.0 Q-9.35 59.45 -11.45 59.45 -13.5 59.45 -15.0 58.0 -16.45 56.55 -16.45 54.45 -16.45 52.35 -15.0 50.9 -13.5 49.45 -11.45 49.45 -9.35 49.45 -7.9 50.9 -6.45 52.35 -6.45 54.45 -6.45 56.55 -7.9 58.0 M-8.95 54.45 Q-8.95 53.45 -9.7 52.7 -10.4 51.95 -11.45 51.95 -12.5 51.95 -13.2 52.7 -13.95 53.45 -13.95 54.45 -13.95 55.5 -13.2 56.25 -12.5 56.95 -11.45 56.95 -10.4 56.95 -9.7 56.25 -8.95 55.5 -8.95 54.45" fill="#d1d8e0" fill-rule="evenodd" stroke="none"/>
      <path d="M4.25 37.0 L5.15 37.85 5.75 38.5 8.4 41.75 Q12.05 47.3 12.05 54.45 12.05 64.2 5.15 71.05 -1.7 77.95 -11.45 77.95 -21.15 77.95 -28.05 71.05 -34.95 64.2 -34.95 54.45 -34.95 49.7 -33.25 45.65 -31.55 41.4 -28.05 37.85 -24.5 34.35 -20.25 32.65 -16.35 31.05 -11.9 30.95 L-11.05 30.95 Q-5.1 31.05 -0.2 33.75 L1.1 34.55 Q2.75 35.6 4.25 37.0 M-5.85 74.75 Q-0.7 73.35 3.35 69.3 9.55 63.15 9.55 54.45 9.55 49.6 7.6 45.5 6.6 43.45 5.15 41.6 L3.65 39.9 3.35 39.6 Q2.0 38.25 0.55 37.25 -0.1 36.75 -0.7 36.4 -5.5 33.45 -11.45 33.45 -20.15 33.45 -26.35 39.6 -32.45 45.75 -32.45 54.45 -32.45 63.15 -26.35 69.3 -22.25 73.35 -17.05 74.75 L-16.55 74.9 -16.45 74.9 -16.35 74.95 -16.1 75.0 -16.0 75.0 -15.1 75.15 -14.5 75.25 -14.25 75.3 -13.4 75.4 -9.65 75.4 -8.65 75.3 -8.6 75.3 -8.05 75.2 -7.65 75.15 -7.3 75.1 -6.35 74.9 -6.2 74.85 -5.85 74.75" fill="url(#gradient0)" fill-rule="evenodd" stroke="none"/>
      <path d="M12.1 35.85 Q18.55 43.8 18.55 54.45 18.55 66.85 9.75 75.65 1.0 84.45 -11.45 84.45 -23.85 84.45 -32.65 75.65 -41.45 66.85 -41.45 54.45 -41.45 46.55 -37.9 40.15 L-37.9 40.55 Q-36.0 37.2 -33.1 34.25 -24.7 25.95 -12.9 25.95 -1.05 25.95 7.25 34.25 10.2 37.2 12.1 40.6 L12.1 35.85 M1.45 33.0 L0.1 32.25 Q-4.95 29.55 -11.05 29.45 L-11.95 29.45 Q-16.7 29.55 -20.8 31.2 -25.35 33.05 -29.1 36.8 -32.85 40.55 -34.7 45.1 -36.45 49.4 -36.45 54.45 -36.45 64.8 -29.1 72.1 -21.8 79.45 -11.45 79.45 -1.1 79.45 6.2 72.1 13.55 64.8 13.55 54.45 13.55 46.1 8.8 39.75 L6.2 36.8 6.1 36.7 4.6 35.3 1.45 33.0 M-11.0 44.45 L-9.55 44.6 Q-7.5 44.95 -5.8 46.2 L-4.4 47.4 -3.25 48.75 -2.15 50.6 Q-1.45 52.35 -1.45 54.45 -1.45 56.15 -1.95 57.65 -2.65 59.8 -4.4 61.5 -7.3 64.45 -11.45 64.45 -15.6 64.45 -18.5 61.5 L-19.7 60.1 Q-21.3 57.85 -21.45 54.95 L-21.45 54.45 Q-21.45 50.3 -18.5 47.4 -15.8 44.65 -11.95 44.45 L-11.0 44.45 M-7.9 58.0 Q-6.45 56.55 -6.45 54.45 -6.45 52.35 -7.9 50.9 -9.35 49.45 -11.45 49.45 -13.5 49.45 -15.0 50.9 -16.45 52.35 -16.45 54.45 -16.45 56.55 -15.0 58.0 -13.5 59.45 -11.45 59.45 -9.35 59.45 -7.9 58.0" fill="#333a4a" fill-rule="evenodd" stroke="none"/>
      <path d="M-17.05 74.75 Q-22.25 73.35 -26.35 69.3 -32.45 63.15 -32.45 54.45 -32.45 45.75 -26.35 39.6 -20.15 33.45 -11.45 33.45 -5.5 33.45 -0.7 36.4 -0.1 36.75 0.55 37.25 2.0 38.25 3.35 39.6 L3.65 39.9 5.15 41.6 Q6.6 43.45 7.6 45.5 9.55 49.6 9.55 54.45 9.55 63.15 3.35 69.3 -0.7 73.35 -5.85 74.75 L-10.25 65.4 Q-6.45 65.0 -3.7 62.2 -1.75 60.25 -0.95 57.85 -0.45 56.25 -0.45 54.45 -0.45 51.45 -1.85 49.05 L-3.0 47.45 -3.7 46.7 -5.25 45.35 Q-7.2 43.95 -9.55 43.6 L-11.0 43.45 -12.05 43.45 Q-16.25 43.65 -19.2 46.7 -22.25 49.7 -22.45 53.95 L-22.45 54.45 Q-22.45 57.95 -20.55 60.65 L-19.2 62.2 Q-16.45 65.0 -12.65 65.4 L-17.05 74.75 M-6.35 74.9 L-7.3 75.1 -6.8 74.95 -6.35 74.9 M-8.05 75.2 L-8.6 75.3 -8.5 75.25 -8.05 75.2 M-15.1 75.15 L-16.0 75.0 -15.9 75.0 -15.1 75.15 M-9.75 70.6 L-9.7 70.6 -9.5 70.85 -9.75 70.6" fill="url(#gradient1)" fill-rule="evenodd" stroke="none"/>
      <path d="M-8.95 54.45 Q-8.95 55.5 -9.7 56.25 -10.4 56.95 -11.45 56.95 -12.5 56.95 -13.2 56.25 -13.95 55.5 -13.95 54.45 -13.95 53.45 -13.2 52.7 -12.5 51.95 -11.45 51.95 -10.4 51.95 -9.7 52.7 -8.95 53.45 -8.95 54.45" fill="url(#gradient2)" fill-rule="evenodd" stroke="none"/>
      <path d="M-11.45 66.3 Q-10.75 66.3 -10.35 66.8 -9.95 67.2 -9.95 67.8 -9.95 68.4 -10.35 68.9 -10.75 69.3 -11.45 69.3 -12.05 69.3 -12.45 68.9 -12.95 68.4 -12.95 67.8 -12.95 67.2 -12.45 66.8 -12.05 66.3 -11.45 66.3 M-9.5 70.85 Q-8.95 71.55 -8.95 72.4 -8.95 73.4 -9.75 74.1 -10.45 74.9 -11.45 74.9 -12.55 74.9 -13.25 74.1 L-13.7 73.5 -13.95 72.4 Q-13.95 71.4 -13.25 70.6 -12.55 69.9 -11.45 69.9 -10.45 69.9 -9.75 70.6 L-9.5 70.85" fill="#333333" fill-rule="evenodd" stroke="none"/>
      <path d="M33.0 -84.4 L39.0 -84.4 Q40.05 -84.4 40.75 -83.55 41.5 -82.65 41.5 -81.4 L41.5 -80.55 Q41.5 -79.3 40.75 -78.45 40.05 -77.55 39.0 -77.55 L33.15 -77.55 33.6 -77.7 Q34.6 -78.0 35.1 -79.1 35.6 -80.15 35.35 -81.4 L35.15 -82.2 Q34.9 -83.4 33.95 -84.05 L33.0 -84.4" fill="#c5cdd5" fill-rule="evenodd" stroke="none"/>
      <path d="M33.15 -77.55 L32.2 -77.5 31.0 -78.3 17.2 -74.7 Q14.4 -73.7 12.0 -72.35 10.75 -71.6 9.55 -71.45 L8.65 -71.85 Q7.85 -72.4 7.7 -73.7 7.6 -74.65 7.95 -75.55 8.5 -76.55 9.5 -76.9 L13.7 -78.3 13.15 -78.1 14.25 -78.45 14.3 -78.4 27.45 -82.65 27.4 -82.7 32.15 -84.3 32.7 -84.4 33.0 -84.4 33.95 -84.05 Q34.9 -83.4 35.15 -82.2 L35.35 -81.4 Q35.6 -80.15 35.1 -79.1 34.6 -78.0 33.6 -77.7 L33.15 -77.55" fill="#8a98a9" fill-rule="evenodd" stroke="none"/>
    </g>
    <radialGradient cx="0" cy="0" gradientTransform="matrix(0.0542, 0.0, 0.0, 0.0542, -11.45, 33.2)" gradientUnits="userSpaceOnUse" id="gradient0" r="819.2" spreadMethod="pad">
      <stop offset="0.0" stop-color="#5e6f88"/>
      <stop offset="1.0" stop-color="#dce2e7"/>
    </radialGradient>
    <radialGradient cx="0" cy="0" fx="12.8" fy="0" gradientTransform="matrix(0.0495, 0.0, 0.0, 0.0488, -11.05, 71.7)" gradientUnits="userSpaceOnUse" id="gradient1" r="819.2" spreadMethod="pad">
      <stop offset="0.0" stop-color="#5e6f88"/>
      <stop offset="1.0" stop-color="#dce2e7"/>
    </radialGradient>
    <radialGradient cx="0" cy="0" gradientTransform="matrix(0.0063, 0.0, 0.0, 0.0063, -11.4, 52.0)" gradientUnits="userSpaceOnUse" id="gradient2" r="819.2" spreadMethod="pad">
      <stop offset="0.0" stop-color="#5e6f88"/>
      <stop offset="1.0" stop-color="#dce2e7"/>
    </radialGradient>
  </defs>
</svg>
