<?xml version="1.0" encoding="UTF-8" standalone="no"?>
<svg xmlns:ffdec="https://www.free-decompiler.com/flash" xmlns:xlink="http://www.w3.org/1999/xlink" ffdec:objectType="frame" height="41.0px" width="981.5px" xmlns="http://www.w3.org/2000/svg">
  <g transform="matrix(1.0, 0.0, 0.0, 1.0, 0.0, 0.0)">
    <use ffdec:characterId="2745" height="36.0" transform="matrix(1.0, 0.0, 0.0, 1.0, 0.5, 5.0)" width="6.0" xlink:href="#sprite0"/>
    <use ffdec:characterId="2747" height="8.0" transform="matrix(1.0, 0.0, 0.0, 1.0, 0.0, 0.0)" width="8.0" xlink:href="#sprite1"/>
    <use ffdec:characterId="2747" height="8.0" transform="matrix(1.0, 0.0, 0.0, 1.0, 0.0, 10.0)" width="8.0" xlink:href="#sprite1"/>
    <use ffdec:characterId="2747" height="8.0" transform="matrix(1.0, 0.0, 0.0, 1.0, 0.0, 20.0)" width="8.0" xlink:href="#sprite1"/>
    <use ffdec:characterId="2745" height="36.0" transform="matrix(1.0, 0.0, 0.0, 1.0, 122.5, 5.0)" width="6.0" xlink:href="#sprite0"/>
    <use ffdec:characterId="2749" height="6.0" transform="matrix(1.2, 0.0, 0.0, 1.0, 6.5, 1.0)" width="100.0" xlink:href="#sprite2"/>
    <use ffdec:characterId="2749" height="6.0" transform="matrix(1.2, 0.0, 0.0, 1.0, 6.5, 11.0)" width="100.0" xlink:href="#sprite2"/>
    <use ffdec:characterId="2749" height="6.0" transform="matrix(1.2, 0.0, 0.0, 1.0, 6.5, 21.0)" width="100.0" xlink:href="#sprite2"/>
    <use ffdec:characterId="2745" height="36.0" transform="matrix(1.0, 0.0, 0.0, 1.0, 304.5, 5.0)" width="6.0" xlink:href="#sprite0"/>
    <use ffdec:characterId="2749" height="6.0" transform="matrix(1.8, 0.0, 0.0, 1.0, 125.5, 1.0)" width="100.0" xlink:href="#sprite2"/>
    <use ffdec:characterId="2747" height="8.0" transform="matrix(1.0, 0.0, 0.0, 1.0, 121.5, 0.0)" width="8.0" xlink:href="#sprite1"/>
    <use ffdec:characterId="2749" height="6.0" transform="matrix(1.8, 0.0, 0.0, 1.0, 125.5, 11.0)" width="100.0" xlink:href="#sprite2"/>
    <use ffdec:characterId="2749" height="6.0" transform="matrix(1.8, 0.0, 0.0, 1.0, 125.5, 21.0)" width="100.0" xlink:href="#sprite2"/>
    <use ffdec:characterId="2747" height="8.0" transform="matrix(1.0, 0.0, 0.0, 1.0, 121.5, 10.0)" width="8.0" xlink:href="#sprite1"/>
    <use ffdec:characterId="2747" height="8.0" transform="matrix(1.0, 0.0, 0.0, 1.0, 121.5, 20.0)" width="8.0" xlink:href="#sprite1"/>
    <use ffdec:characterId="2745" height="36.0" transform="matrix(1.0, 0.0, 0.0, 1.0, 426.5, 5.0)" width="6.0" xlink:href="#sprite0"/>
    <use ffdec:characterId="2747" height="8.0" transform="matrix(1.0, 0.0, 0.0, 1.0, 425.5, 0.0)" width="8.0" xlink:href="#sprite1"/>
    <use ffdec:characterId="2747" height="8.0" transform="matrix(1.0, 0.0, 0.0, 1.0, 425.5, 10.0)" width="8.0" xlink:href="#sprite1"/>
    <use ffdec:characterId="2747" height="8.0" transform="matrix(1.0, 0.0, 0.0, 1.0, 425.5, 20.0)" width="8.0" xlink:href="#sprite1"/>
    <use ffdec:characterId="2749" height="6.0" transform="matrix(1.2, 0.0, 0.0, 1.0, 306.5, 1.0)" width="100.0" xlink:href="#sprite2"/>
    <use ffdec:characterId="2749" height="6.0" transform="matrix(1.2, 0.0, 0.0, 1.0, 306.5, 11.0)" width="100.0" xlink:href="#sprite2"/>
    <use ffdec:characterId="2749" height="6.0" transform="matrix(1.2, 0.0, 0.0, 1.0, 306.5, 21.0)" width="100.0" xlink:href="#sprite2"/>
    <use ffdec:characterId="2747" height="8.0" transform="matrix(1.0, 0.0, 0.0, 1.0, 303.5, 0.0)" width="8.0" xlink:href="#sprite1"/>
    <use ffdec:characterId="2747" height="8.0" transform="matrix(1.0, 0.0, 0.0, 1.0, 303.5, 10.0)" width="8.0" xlink:href="#sprite1"/>
    <use ffdec:characterId="2747" height="8.0" transform="matrix(1.0, 0.0, 0.0, 1.0, 303.5, 20.0)" width="8.0" xlink:href="#sprite1"/>
    <use ffdec:characterId="2749" height="6.0" transform="matrix(5.2, 0.0, 0.0, 1.0, 456.5, 1.0)" width="100.0" xlink:href="#sprite2"/>
    <use ffdec:characterId="2749" height="6.0" transform="matrix(5.2, 0.0, 0.0, 1.0, 456.5, 11.0)" width="100.0" xlink:href="#sprite2"/>
    <use ffdec:characterId="2749" height="6.0" transform="matrix(5.2, 0.0, 0.0, 1.0, 456.5, 21.0)" width="100.0" xlink:href="#sprite2"/>
    <use ffdec:characterId="2745" height="36.0" transform="matrix(1.0, 0.0, 0.0, 1.0, 452.5, 5.0)" width="6.0" xlink:href="#sprite0"/>
    <use ffdec:characterId="2747" height="8.0" transform="matrix(1.0, 0.0, 0.0, 1.0, 451.5, 0.0)" width="8.0" xlink:href="#sprite1"/>
    <use ffdec:characterId="2747" height="8.0" transform="matrix(1.0, 0.0, 0.0, 1.0, 451.5, 10.0)" width="8.0" xlink:href="#sprite1"/>
    <use ffdec:characterId="2747" height="8.0" transform="matrix(1.0, 0.0, 0.0, 1.0, 451.5, 20.0)" width="8.0" xlink:href="#sprite1"/>
    <use ffdec:characterId="2745" height="36.0" transform="matrix(1.0, 0.0, 0.0, 1.0, 974.5, 5.0)" width="6.0" xlink:href="#sprite0"/>
    <use ffdec:characterId="2747" height="8.0" transform="matrix(1.0, 0.0, 0.0, 1.0, 973.5, 0.0)" width="8.0" xlink:href="#sprite1"/>
    <use ffdec:characterId="2747" height="8.0" transform="matrix(1.0, 0.0, 0.0, 1.0, 973.5, 10.0)" width="8.0" xlink:href="#sprite1"/>
    <use ffdec:characterId="2747" height="8.0" transform="matrix(1.0, 0.0, 0.0, 1.0, 973.5, 20.0)" width="8.0" xlink:href="#sprite1"/>
  </g>
  <defs>
    <g id="sprite0" transform="matrix(1.0, 0.0, 0.0, 1.0, 0.0, 0.0)">
      <use ffdec:characterId="2744" height="36.0" transform="matrix(1.0, 0.0, 0.0, 1.0, 0.0, 0.0)" width="6.0" xlink:href="#shape0"/>
    </g>
    <g id="shape0" transform="matrix(1.0, 0.0, 0.0, 1.0, 0.0, 0.0)">
      <path d="M6.0 0.0 L6.0 36.0 0.0 36.0 0.0 0.0 6.0 0.0" fill="url(#gradient0)" fill-rule="evenodd" stroke="none"/>
    </g>
    <linearGradient gradientTransform="matrix(0.0037, 0.0, 0.0, 0.022, 3.0, 18.0)" gradientUnits="userSpaceOnUse" id="gradient0" spreadMethod="pad" x1="-819.2" x2="819.2">
      <stop offset="0.0" stop-color="#999999"/>
      <stop offset="0.5176470588235295" stop-color="#666666"/>
      <stop offset="1.0" stop-color="#999999"/>
    </linearGradient>
    <g id="sprite1" transform="matrix(1.0, 0.0, 0.0, 1.0, 4.0, 0.0)">
      <use ffdec:characterId="2746" height="8.0" transform="matrix(1.0, 0.0, 0.0, 1.0, -4.0, 0.0)" width="8.0" xlink:href="#shape1"/>
    </g>
    <g id="shape1" transform="matrix(1.0, 0.0, 0.0, 1.0, 4.0, 0.0)">
      <path d="M0.0 8.0 Q-1.7 8.0 -2.9 6.8 -4.0 5.65 -4.0 4.0 -4.0 2.3 -2.9 1.1 -1.7 0.0 0.0 0.0 1.65 0.0 2.8 1.1 4.0 2.3 4.0 4.0 4.0 5.65 2.8 6.8 1.65 8.0 0.0 8.0" fill="url(#gradient1)" fill-rule="evenodd" stroke="none"/>
    </g>
    <radialGradient cx="0" cy="0" gradientTransform="matrix(0.0104, 0.0, 0.0, 0.0095, -0.15, 0.1)" gradientUnits="userSpaceOnUse" id="gradient1" r="819.2" spreadMethod="pad">
      <stop offset="0.0" stop-color="#d9dbe1"/>
      <stop offset="0.49019607843137253" stop-color="#666666"/>
      <stop offset="1.0" stop-color="#cccccc"/>
    </radialGradient>
    <g id="sprite2" transform="matrix(1.0, 0.0, 0.0, 1.0, 0.0, 0.0)">
      <use ffdec:characterId="2748" height="6.0" transform="matrix(1.0, 0.0, 0.0, 1.0, 0.0, 0.0)" width="100.0" xlink:href="#shape2"/>
    </g>
    <g id="shape2" transform="matrix(1.0, 0.0, 0.0, 1.0, 0.0, 0.0)">
      <path d="M100.0 6.0 L0.0 6.0 0.0 0.0 100.0 0.0 100.0 6.0" fill="url(#gradient2)" fill-rule="evenodd" stroke="none"/>
    </g>
    <linearGradient gradientTransform="matrix(0.0, 0.0034, -0.0043, 0.0, 92.85, 2.9)" gradientUnits="userSpaceOnUse" id="gradient2" spreadMethod="pad" x1="-819.2" x2="819.2">
      <stop offset="0.0" stop-color="#d9dbe1"/>
      <stop offset="0.36470588235294116" stop-color="#666666"/>
      <stop offset="1.0" stop-color="#cccccc"/>
    </linearGradient>
  </defs>
</svg>
