<?xml version="1.0" encoding="UTF-8" standalone="no"?>
<svg xmlns:ffdec="https://www.free-decompiler.com/flash" xmlns:xlink="http://www.w3.org/1999/xlink" ffdec:objectType="frame" height="73.65px" width="24.7px" xmlns="http://www.w3.org/2000/svg">
  <g transform="matrix(1.0, 0.0, 0.0, 1.0, 12.6, 7.7)">
    <use ffdec:characterId="1193" ffdec:characterName="game_fla.lowerarm1_881" height="73.65" id="lowerArm1" transform="matrix(1.0, 0.0, 0.0, 1.0, -12.6, -7.7)" width="24.7" xlink:href="#sprite0"/>
  </g>
  <defs>
    <g id="sprite0" transform="matrix(1.0, 0.0, 0.0, 1.0, 13.15, 34.55)">
      <use ffdec:characterId="1188" height="51.7" transform="matrix(1.0, 0.0, 0.0, 1.0, -13.15, -34.55)" width="24.7" xlink:href="#shape0"/>
      <use ffdec:characterId="1191" ffdec:characterName="game_fla.hand1_882" height="23.0" id="hand" transform="matrix(1.0, 0.0, 0.0, 1.0, -9.25, 16.1)" width="18.65" xlink:href="#sprite1"/>
      <use ffdec:characterId="1081" height="100.0" id="shape" transform="matrix(0.2, 0.0, 0.0, 0.65, -9.9991, -32.5012)" width="100.0" xlink:href="#sprite2"/>
    </g>
    <g id="shape0" transform="matrix(1.0, 0.0, 0.0, 1.0, 13.15, 34.55)">
      <path d="M-4.2 -23.1 L-4.4 -23.55 -4.2 -23.1" fill="#583a30" fill-rule="evenodd" stroke="none"/>
      <path d="M-11.85 -26.9 L-11.8 -27.05 -11.8 -27.1 Q-8.9 -31.05 -6.75 -32.55 -3.9 -34.55 0.2 -34.55 L3.8 -34.2 Q5.0 -33.9 7.05 -32.8 L8.3 -31.95 8.75 -31.5 Q9.4 -30.8 9.65 -29.85 11.5 -24.3 11.55 -21.4 11.55 -18.2 9.7 -7.25 7.85 3.65 7.6 8.5 L7.15 16.65 7.25 17.15 -4.05 17.15 -3.75 16.9 Q-4.05 16.95 -3.2 11.25 -2.3 5.1 -5.5 -1.8 -5.35 -1.0 -5.35 2.55 L-5.5 11.6 Q-5.65 17.05 -4.85 17.15 L-6.35 17.15 -6.35 16.6 Q-6.35 13.3 -8.65 4.45 L-11.45 -6.2 -13.05 -14.05 -13.15 -16.2 Q-13.2 -18.1 -12.55 -20.15 L-11.7 -23.4 -11.3 -22.2 Q-10.8 -20.35 -9.25 -19.75 L-9.25 -21.75 -9.7 -23.35 -10.15 -25.0 -11.0 -26.0 -11.85 -26.9 M1.0 -8.95 Q1.5 -12.0 1.1 -14.95 L0.35 -18.85 Q-0.35 -21.1 -1.65 -23.2 -4.05 -27.05 -3.9 -31.4 L-3.8 -32.3 -4.0 -33.05 -4.6 -32.35 -5.9 -30.95 Q-6.6 -30.35 -6.6 -28.55 -6.6 -27.7 -5.65 -25.7 L-4.5 -23.5 -4.1 -22.85 -2.7 -19.0 Q-2.05 -16.95 -1.35 -13.0 -0.65 -9.05 -1.25 -1.95 0.45 -5.9 1.0 -8.95" fill="#ffcc99" fill-rule="evenodd" stroke="none"/>
      <path d="M1.0 -8.95 Q0.45 -5.9 -1.25 -1.95 -0.65 -9.05 -1.35 -13.0 -2.05 -16.95 -2.7 -19.0 L-4.1 -22.85 -4.5 -23.5 -5.65 -25.7 Q-6.6 -27.7 -6.6 -28.55 -6.6 -30.35 -5.9 -30.95 L-4.6 -32.35 -4.0 -33.05 -3.8 -32.3 -3.9 -31.4 Q-4.05 -27.05 -1.65 -23.2 -0.35 -21.1 0.35 -18.85 L1.1 -14.95 Q1.5 -12.0 1.0 -8.95 M-4.2 -23.1 L-4.4 -23.55 -4.2 -23.1" fill="#ebbb98" fill-rule="evenodd" stroke="none"/>
      <path d="M-4.05 17.15 L-4.85 17.15 Q-5.65 17.05 -5.5 11.6 L-5.35 2.55 Q-5.35 -1.0 -5.5 -1.8 -2.3 5.1 -3.2 11.25 -4.05 16.95 -3.75 16.9 L-4.05 17.15 M-11.7 -23.4 L-11.7 -23.6 -11.9 -25.35 -11.95 -25.95 -11.85 -26.85 -11.85 -26.9 -11.0 -26.0 -10.15 -25.0 -9.7 -23.35 -9.25 -21.75 -9.25 -19.75 Q-10.8 -20.35 -11.3 -22.2 L-11.7 -23.4" fill="#f4c398" fill-rule="evenodd" stroke="none"/>
    </g>
    <g id="sprite1" transform="matrix(1.0, 0.0, 0.0, 1.0, 9.65, 9.2)">
      <use ffdec:characterId="1189" height="18.4" transform="matrix(1.0, 0.0, 0.0, 1.0, -8.35, -9.2)" width="16.75" xlink:href="#shape1"/>
    </g>
    <g id="shape1" transform="matrix(1.0, 0.0, 0.0, 1.0, 8.35, 9.2)">
      <path d="M-1.75 -9.15 L6.75 -9.15 6.8 -8.7 6.05 -8.8 5.3 -8.8 Q5.1 -8.45 5.2 -8.2 L1.15 -8.25 -1.6 -8.3 -1.75 -9.15 M-1.4 -6.35 L1.15 -6.35 5.15 -6.25 5.15 -2.35 Q4.6 -0.75 2.2 -0.85 -0.25 -0.95 -0.7 -2.0 -1.2 -3.1 -1.4 -6.35" fill="#ffcc99" fill-rule="evenodd" stroke="none"/>
      <path d="M2.8 8.2 Q2.25 8.45 1.8 8.8 0.8 9.35 -0.15 9.1 -1.25 8.9 -1.65 7.95 L-2.85 7.7 Q-3.2 7.65 -3.55 7.4 L-3.75 7.3 -4.35 6.45 Q-5.0 5.25 -5.35 5.25 L-5.9 5.0 Q-7.35 4.25 -6.55 2.55 -6.1 2.45 -6.15 2.1 L-6.1 2.1 Q-5.35 2.15 -5.35 2.65 -5.35 3.15 -4.55 3.55 L-4.0 3.85 -3.7 4.0 -3.8 4.05 -5.0 5.0 -5.1 5.1 -5.0 5.25 -4.65 5.6 -3.8 5.85 -2.6 5.1 -2.6 5.05 -2.45 5.25 -2.3 5.4 -2.15 5.55 -1.25 6.15 -0.55 6.35 -0.25 6.5 -0.85 6.9 -1.65 7.95 0.3 7.65 1.1 7.1 2.45 8.1 2.8 8.2" fill="#ebbb98" fill-rule="evenodd" stroke="none"/>
      <path d="M-6.55 2.55 Q-8.7 1.85 -8.3 -0.15 L-7.55 -0.7 Q-7.25 2.05 -5.9 2.1 L-6.1 2.1 -6.15 2.1 Q-6.1 2.45 -6.55 2.55 M1.1 7.1 L0.3 7.65 -1.65 7.95 -0.85 6.9 -0.25 6.5 -0.55 6.35 0.2 6.4 1.0 6.3 1.1 7.05 1.1 7.1 M-2.45 5.25 L-2.6 5.05 -2.6 5.1 -3.8 5.85 -4.65 5.6 -5.0 5.25 -5.1 5.1 -5.0 5.0 -3.8 4.05 -3.7 4.0 -3.25 4.15 -2.65 4.3 -2.45 5.25" fill="#e2b181" fill-rule="evenodd" stroke="none"/>
      <path d="M-1.6 -8.3 L1.15 -8.25 5.2 -8.2 5.3 -8.2 5.15 -6.25 1.15 -6.35 -1.4 -6.35 -1.6 -8.3 M4.7 7.25 L4.15 7.75 3.8 7.9 Q3.25 8.0 2.8 8.2 L2.45 8.1 1.1 7.1 1.1 7.05 1.0 6.3 0.2 6.4 -0.55 6.35 -1.25 6.15 -2.15 5.55 -2.3 5.4 -2.45 5.25 -2.65 4.3 -3.25 4.15 -3.7 4.0 -4.0 3.85 -4.55 3.55 Q-5.35 3.15 -5.35 2.65 -5.35 2.15 -6.1 2.1 L-5.9 2.1 Q-7.25 2.05 -7.55 -0.7 L-7.4 -0.85 Q-7.25 -2.0 -7.35 -3.1 L-7.4 -4.25 Q-7.6 -5.85 -7.2 -7.25 L-6.8 -8.35 -6.8 -9.15 -5.9 -9.15 -5.85 -8.9 -5.25 -5.6 -5.4 -1.6 -5.2 -1.05 -4.5 -0.3 -3.75 0.75 -3.0 1.1 -2.75 1.45 -2.65 2.2 Q-2.65 2.8 -2.2 2.75 L-0.95 3.35 -0.9 3.35 0.15 4.6 3.1 4.0 3.4 4.85 3.3 5.3 2.95 5.65 3.9 7.15 4.7 7.25" fill="#242724" fill-rule="evenodd" stroke="none"/>
      <path d="M-1.75 -9.15 L-1.6 -8.3 -1.4 -6.35 Q-1.2 -3.1 -0.7 -2.0 -0.25 -0.95 2.2 -0.85 4.6 -0.75 5.15 -2.35 L5.15 -6.25 5.3 -8.2 5.2 -8.2 Q5.1 -8.45 5.3 -8.8 L6.05 -8.8 6.8 -8.7 6.9 -8.0 6.9 -7.85 7.15 -6.25 7.6 -4.55 Q8.3 -2.2 8.4 -0.7 L8.3 0.35 8.15 1.0 Q7.9 3.7 7.35 5.0 L6.6 6.15 5.8 6.85 5.5 7.0 4.7 7.25 3.9 7.15 2.95 5.65 3.3 5.3 3.4 4.85 3.1 4.0 0.15 4.6 -0.9 3.35 -0.95 3.35 -2.2 2.75 Q-2.65 2.8 -2.65 2.2 L-2.75 1.45 -3.0 1.1 -3.75 0.75 -4.5 -0.3 -5.2 -1.05 -5.4 -1.6 -5.25 -5.6 -5.85 -8.9 -5.9 -9.15 -4.8 -9.15 -3.45 -9.15 -1.75 -9.15" fill="#313531" fill-rule="evenodd" stroke="none"/>
    </g>
    <g id="sprite2" transform="matrix(1.0, 0.0, 0.0, 1.0, 50.0, 50.0)">
      <use ffdec:characterId="1080" height="100.0" transform="matrix(1.0, 0.0, 0.0, 1.0, -50.0, -50.0)" width="100.0" xlink:href="#shape2"/>
    </g>
    <g id="shape2" transform="matrix(1.0, 0.0, 0.0, 1.0, 50.0, 50.0)">
      <path d="M50.0 50.0 L-50.0 50.0 -50.0 -50.0 50.0 -50.0 50.0 50.0 Z" fill="none" stroke="#9900ff" stroke-linecap="round" stroke-linejoin="round" stroke-width="0.05"/>
    </g>
  </defs>
</svg>
