<?xml version="1.0" encoding="UTF-8" standalone="no"?>
<svg xmlns:ffdec="https://www.free-decompiler.com/flash" xmlns:xlink="http://www.w3.org/1999/xlink" ffdec:objectType="frame" height="38.3px" width="10.75px" xmlns="http://www.w3.org/2000/svg">
  <g transform="matrix(1.0, 0.0, 0.0, 1.0, 5.3, 20.1)">
    <use ffdec:characterId="1354" height="38.25" transform="matrix(1.0, 0.0, 0.0, 1.0, -5.3, -20.1)" width="10.75" xlink:href="#shape0"/>
  </g>
  <defs>
    <g id="shape0" transform="matrix(1.0, 0.0, 0.0, 1.0, 5.3, 20.1)">
      <path d="M4.1 -17.35 L4.65 -16.1 5.45 -13.55 5.15 -8.55 Q4.4 -8.55 4.4 -10.45 L4.55 -13.2 Q4.55 -14.15 3.55 -15.45 L3.65 -15.55 Q4.05 -15.9 4.1 -17.35 M-4.05 -9.0 L-4.1 -9.05 -4.25 -9.0 Q-4.55 -9.45 -4.9 -11.7 L-4.9 -11.75 -4.55 -11.75 Q-4.4 -12.3 -4.4 -13.5 L-4.4 -14.05 -3.85 -14.0 Q-2.15 -14.0 -1.7 -15.3 L-1.4 -17.35 -1.45 -17.75 -1.35 -17.75 Q-1.05 -17.75 -0.25 -18.3 0.65 -18.95 0.65 -19.5 L0.65 -19.75 1.75 -19.25 1.6 -19.1 1.6 -18.75 Q1.6 -18.5 1.95 -18.15 L2.25 -17.65 1.95 -17.05 0.8 -17.55 0.35 -17.35 -0.4 -17.2 -0.9 -17.25 -0.75 -16.3 Q-0.75 -15.6 -1.4 -14.8 L-1.4 -14.75 -1.75 -13.8 -1.75 -13.75 -1.75 -13.45 -1.95 -13.35 -2.0 -13.35 Q-2.35 -13.0 -2.85 -13.0 L-3.3 -13.0 -3.55 -11.7 -3.6 -10.85 -3.75 -9.25 -3.85 -9.15 -3.95 -8.7 -4.05 -9.0 M-5.0 -12.35 L-5.25 -15.1 -5.2 -14.8 -5.0 -14.45 -5.0 -12.35 M-3.15 -17.4 L-3.0 -17.5 -1.9 -17.8 -1.8 -17.8 -3.15 -17.4 M-2.15 -10.75 Q-1.9 -9.5 -1.0 -9.5 -0.35 -9.5 0.2 -10.2 L0.65 -11.4 0.35 -12.35 0.45 -12.4 Q1.0 -12.2 1.0 -11.0 1.0 -10.25 0.5 -9.4 -0.2 -8.25 -1.5 -8.25 -2.75 -8.25 -2.4 -9.8 L-2.15 -10.75" fill="#990000" fill-rule="evenodd" stroke="none"/>
      <path d="M1.75 -19.25 L3.25 -18.9 Q4.1 -18.5 4.1 -18.0 L4.1 -17.35 Q4.05 -15.9 3.65 -15.55 L3.55 -15.45 0.45 -12.4 0.35 -12.35 0.65 -11.4 0.2 -10.2 Q-0.35 -9.5 -1.0 -9.5 -1.9 -9.5 -2.15 -10.75 L-2.25 -11.15 Q-2.25 -12.6 -0.8 -12.7 L0.05 -12.55 0.75 -13.8 Q1.5 -15.1 1.5 -16.15 1.5 -16.55 1.9 -17.0 L1.95 -17.05 2.25 -17.65 1.95 -18.15 Q1.6 -18.5 1.6 -18.75 L1.6 -19.1 1.75 -19.25 M-4.9 -11.75 L-5.0 -11.75 -5.0 -12.35 -5.0 -14.45 -5.2 -14.8 -5.25 -15.1 -5.25 -15.65 Q-5.25 -16.65 -4.15 -17.1 L-3.15 -17.4 -1.8 -17.8 -1.9 -17.8 Q-2.4 -18.05 -2.4 -18.65 -2.4 -19.3 -1.65 -19.75 L0.5 -20.0 0.65 -19.75 0.65 -19.5 Q0.65 -18.95 -0.25 -18.3 -1.05 -17.75 -1.35 -17.75 L-1.45 -17.75 -1.4 -17.35 -1.7 -15.3 Q-2.15 -14.0 -3.85 -14.0 L-4.4 -14.05 -4.4 -13.5 Q-4.4 -12.3 -4.55 -11.75 L-4.9 -11.75" fill="#ff0000" fill-rule="evenodd" stroke="none"/>
      <path d="M5.15 -8.55 L4.7 -6.45 4.6 -6.1 4.5 -4.95 4.3 -2.55 3.65 3.25 3.65 3.75 3.6 4.25 3.55 5.1 3.45 6.1 Q3.2 8.4 3.25 13.6 3.25 14.85 2.8 15.9 2.5 16.8 1.55 17.45 -0.65 18.8 -2.95 17.5 -4.05 16.0 -4.1 13.85 L-4.0 11.0 Q-3.85 9.75 -3.85 8.55 L-3.8 7.1 -4.1 -4.3 -4.1 -4.95 -4.05 -9.0 -3.95 -8.7 -3.85 -9.15 -3.75 -9.25 -3.6 -10.85 -3.55 -11.7 -3.3 -13.0 -2.85 -13.0 Q-2.35 -13.0 -2.0 -13.35 L-1.95 -13.35 -1.75 -13.45 -1.75 -13.75 -1.75 -13.8 -1.4 -14.75 -1.4 -14.8 Q-0.75 -15.6 -0.75 -16.3 L-0.9 -17.25 -0.4 -17.2 0.35 -17.35 0.8 -17.55 1.95 -17.05 1.9 -17.0 Q1.5 -16.55 1.5 -16.15 1.5 -15.1 0.75 -13.8 L0.05 -12.55 -0.8 -12.7 Q-2.25 -12.6 -2.25 -11.15 L-2.15 -10.75 -2.4 -9.8 Q-2.75 -8.25 -1.5 -8.25 -0.2 -8.25 0.5 -9.4 1.0 -10.25 1.0 -11.0 1.0 -12.2 0.45 -12.4 L3.55 -15.45 Q4.55 -14.15 4.55 -13.2 L4.4 -10.45 Q4.4 -8.55 5.15 -8.55 M-1.5 0.8 L-1.4 0.8 -1.35 0.7 -1.5 0.8" fill="#ffcc99" fill-rule="evenodd" stroke="none"/>
      <path d="M-1.5 0.8 L-1.35 0.7 -1.4 0.8 -1.5 0.8" fill="#ffcc66" fill-rule="evenodd" stroke="none"/>
    </g>
  </defs>
</svg>
