<?xml version="1.0" encoding="UTF-8" standalone="no"?>
<svg xmlns:ffdec="https://www.free-decompiler.com/flash" xmlns:xlink="http://www.w3.org/1999/xlink" ffdec:objectType="frame" height="37.85px" width="40.05px" xmlns="http://www.w3.org/2000/svg">
  <g transform="matrix(1.0, 0.0, 0.0, 1.0, 20.0, 18.95)">
    <use ffdec:characterId="566" height="37.85" transform="matrix(1.0, 0.0, 0.0, 1.0, -20.0, -18.95)" width="40.05" xlink:href="#shape0"/>
  </g>
  <defs>
    <g id="shape0" transform="matrix(1.0, 0.0, 0.0, 1.0, 20.0, 18.95)">
      <path d="M-8.65 -10.85 L-2.85 -11.15 -2.5 -10.65 0.25 -10.9 1.45 -10.2 1.75 -10.7 3.7 -11.35 6.15 -10.6 6.85 -11.35 7.8 -11.4 8.1 -11.2 8.5 -10.95 8.2 -11.35 10.55 -11.15 10.75 -10.9 10.65 -10.55 10.2 -10.2 11.05 -8.15 10.9 -7.75 10.45 -8.1 Q9.7 -8.65 9.4 -9.45 L8.05 -9.65 8.3 -9.05 Q9.05 -7.5 8.4 -7.25 L8.05 -7.55 7.4 -8.55 Q6.25 -8.95 5.4 -9.9 L4.55 -10.0 4.15 -9.6 3.7 -8.9 3.6 -8.95 3.15 -8.7 Q3.55 -6.85 3.1 -4.9 2.3 -7.3 0.9 -9.4 -1.2 -9.0 -2.95 -9.9 -4.5 -8.7 -5.35 -7.15 L-6.1 -5.95 -5.65 -6.15 Q-5.75 -5.0 -6.45 -3.85 L-6.9 -3.15 Q-6.6 -6.0 -5.35 -8.45 L-4.6 -9.7 -6.05 -9.85 -9.55 -3.8 -9.95 -3.0 -9.0 -7.05 -9.3 -7.4 -10.55 -7.55 Q-12.9 -4.9 -14.1 -1.65 -14.8 0.15 -14.15 2.05 L-13.0 2.35 -12.75 2.2 Q-11.35 1.0 -10.75 -0.6 L-10.55 -1.2 -10.7 -0.45 Q-10.85 0.7 -10.6 1.75 L-10.05 3.1 -9.55 3.05 -9.3 3.45 Q-9.0 1.15 -7.75 -1.0 L-7.75 -0.8 -8.75 5.05 -8.9 10.5 -8.2 13.75 -7.95 10.25 -7.25 15.15 -7.85 15.25 -10.05 13.9 -10.55 12.55 -11.65 9.05 -12.4 5.15 -12.55 6.45 Q-12.7 9.2 -13.2 11.85 -13.3 12.5 -13.7 13.15 L-14.75 11.95 Q-15.9 10.1 -15.95 8.0 -16.0 4.7 -15.65 1.5 L-16.5 2.45 -16.6 3.35 -16.95 6.2 -17.1 7.15 -18.1 5.75 Q-18.95 4.25 -18.95 2.6 -18.95 0.25 -18.3 -2.05 L-18.15 -2.75 -15.4 -7.55 -15.4 -6.55 -12.85 -8.25 -13.3 -7.7 Q-14.75 -6.0 -15.65 -4.15 L-15.7 -2.5 -13.85 -3.9 Q-13.4 -5.4 -12.45 -6.35 L-8.05 -10.45 -8.65 -10.85 M-15.65 -4.15 L-16.15 -3.6 -18.2 4.45 -17.4 5.3 -17.6 4.55 -15.65 -4.15 M3.4 6.8 L3.6 5.75 Q4.65 7.9 6.4 9.4 L7.2 9.05 Q10.0 7.85 10.45 4.8 10.35 7.5 9.7 10.1 9.1 12.7 7.35 14.9 6.45 16.05 5.15 16.45 L5.5 15.1 5.95 13.85 4.7 15.1 5.0 14.75 4.1 15.55 3.65 15.55 2.95 14.75 3.35 10.0 3.4 6.8 M10.15 -2.4 L12.0 1.85 12.1 3.7 Q12.2 4.95 12.8 6.2 L12.95 6.25 14.8 6.4 15.35 4.95 14.6 9.25 14.15 10.7 Q13.25 13.5 11.05 15.35 L10.45 15.8 10.45 14.75 9.85 14.65 8.25 15.6 Q10.05 12.85 10.85 9.9 11.6 7.3 11.45 4.6 L11.1 1.15 10.15 -2.4 M11.6 -8.05 L11.4 -8.5 12.0 -7.65 11.6 -8.05 M15.1 -3.25 L15.7 -5.5 16.95 -3.85 16.65 -4.6 16.25 -5.8 16.0 -7.05 Q18.0 -4.75 18.85 -1.85 L20.05 2.85 Q19.75 5.8 18.55 8.45 L16.6 12.1 15.35 12.3 14.7 11.85 14.95 11.5 14.8 11.1 15.65 9.15 16.2 6.4 16.3 4.65 16.15 2.05 15.4 -0.85 16.7 2.2 17.3 2.1 17.3 1.5 Q17.25 -0.15 16.4 -1.15 L16.4 -0.5 15.1 -3.25 M-8.0 2.15 L-6.75 0.05 -6.9 2.35 -7.05 4.65 -6.2 6.05 -5.45 5.8 Q-5.3 7.85 -3.85 8.9 -2.75 9.8 -1.45 9.45 L-0.85 7.85 0.1 8.65 0.7 10.55 2.55 6.75 0.45 13.7 -0.1 14.1 Q-2.9 16.3 -5.15 13.65 L-6.15 12.15 Q-7.05 10.55 -7.2 8.65 L-7.3 7.8 -8.0 3.7 -8.0 2.15" fill="#e57128" fill-rule="evenodd" stroke="none"/>
      <path d="M-8.65 -10.85 L-8.05 -10.45 -12.45 -6.35 Q-13.4 -5.4 -13.85 -3.9 L-15.7 -2.5 -15.65 -4.15 Q-14.75 -6.0 -13.3 -7.7 L-12.85 -8.25 -15.4 -6.55 -15.4 -7.55 -14.9 -8.65 Q-12.2 -9.0 -9.85 -10.25 -9.25 -10.5 -8.65 -10.85 M-7.75 -0.8 L-7.75 -1.0 Q-9.0 1.15 -9.3 3.45 L-9.55 3.05 -10.05 3.1 -10.6 1.75 Q-10.85 0.7 -10.7 -0.45 L-10.55 -1.2 -10.75 -0.6 Q-11.35 1.0 -12.75 2.2 L-13.0 2.35 -14.15 2.05 Q-14.8 0.15 -14.1 -1.65 -12.9 -4.9 -10.55 -7.55 L-9.3 -7.4 -9.0 -7.05 -9.95 -3.0 -9.55 -3.8 -6.05 -9.85 -4.6 -9.7 -5.35 -8.45 Q-6.6 -6.0 -6.9 -3.15 L-6.45 -3.85 Q-5.75 -5.0 -5.65 -6.15 L-3.8 -7.05 -3.4 -6.65 -2.15 -7.5 -1.4 -7.15 -0.95 -7.45 -1.6 -8.95 -2.95 -8.25 Q-4.1 -7.6 -5.35 -7.15 -4.5 -8.7 -2.95 -9.9 -1.2 -9.0 0.9 -9.4 2.3 -7.3 3.1 -4.9 3.55 -6.85 3.15 -8.7 L3.6 -8.95 3.7 -8.9 5.35 -7.1 4.15 -9.6 4.55 -10.0 5.4 -9.9 Q6.25 -8.95 7.4 -8.55 L8.05 -7.55 8.4 -7.25 Q9.05 -7.5 8.3 -9.05 L8.05 -9.65 9.4 -9.45 Q9.7 -8.65 10.45 -8.1 L10.9 -7.75 11.05 -8.15 10.2 -10.2 10.65 -10.55 10.75 -10.9 10.55 -11.15 Q13.25 -10.45 15.15 -8.15 L16.0 -7.05 16.25 -5.8 16.65 -4.6 16.95 -3.85 15.7 -5.5 15.1 -3.25 13.25 -6.1 13.4 -5.7 12.0 -7.65 11.4 -8.5 11.6 -8.05 14.3 -1.85 13.7 -2.2 13.15 -2.15 12.0 1.85 10.15 -2.4 9.9 -2.95 9.95 -0.85 10.45 4.8 Q10.0 7.85 7.2 9.05 L6.4 9.4 Q4.65 7.9 3.6 5.75 L3.4 6.8 3.45 0.85 6.05 3.95 6.6 4.3 Q7.95 3.9 8.5 2.75 L8.8 2.0 9.65 2.2 Q9.7 -0.65 8.1 -3.2 L7.9 -3.5 7.35 -4.3 6.45 -4.45 5.95 -4.9 5.45 -4.85 5.0 -5.2 3.05 -3.15 3.15 -2.25 2.55 6.75 0.7 10.55 0.1 8.65 -0.85 7.85 -1.45 9.45 Q-2.75 9.8 -3.85 8.9 -5.3 7.85 -5.45 5.8 L-6.2 6.05 -7.05 4.65 -6.9 2.35 -6.75 0.05 -8.0 2.15 -7.75 -0.8 M8.2 -11.35 L8.5 -10.95 8.1 -11.2 8.1 -11.35 8.2 -11.35 M11.75 -2.05 L11.8 -4.5 10.8 -6.0 10.4 -3.7 11.75 -2.05 M-2.15 -5.4 L-2.8 -4.95 Q-5.3 -3.0 -4.55 0.15 L-4.25 -0.25 -4.15 0.55 Q-3.9 1.85 -3.0 2.8 -1.1 2.85 -0.2 1.45 1.8 -1.5 0.15 -4.9 L-0.15 -4.35 -0.8 -4.8 -1.55 -4.0 -2.15 -5.4" fill="#ef7f33" fill-rule="evenodd" stroke="none"/>
      <path d="M-5.65 -6.15 L-6.1 -5.95 -5.35 -7.15 Q-4.1 -7.6 -2.95 -8.25 L-1.6 -8.95 -0.95 -7.45 -1.4 -7.15 -2.15 -7.5 -3.4 -6.65 -3.8 -7.05 -5.65 -6.15 M3.7 -8.9 L4.15 -9.6 5.35 -7.1 3.7 -8.9 M3.15 -2.25 L3.05 -3.15 5.0 -5.2 5.45 -4.85 5.95 -4.9 6.45 -4.45 7.35 -4.3 7.9 -3.5 8.1 -3.2 Q9.7 -0.65 9.65 2.2 L8.8 2.0 8.5 2.75 Q7.95 3.9 6.6 4.3 L6.05 3.95 3.45 0.85 3.15 -2.25 M12.0 1.85 L13.15 -2.15 13.7 -2.2 14.3 -1.85 Q15.5 0.75 15.4 3.6 L15.4 4.65 15.35 4.95 14.8 6.4 12.95 6.25 12.8 6.2 Q12.2 4.95 12.1 3.7 L12.0 1.85 M13.4 -5.7 L13.25 -6.1 15.1 -3.25 16.4 -0.5 16.4 -1.15 Q17.25 -0.15 17.3 1.5 L17.3 2.1 16.7 2.2 15.4 -0.85 13.4 -5.7 M11.75 -2.05 L10.4 -3.7 10.8 -6.0 11.8 -4.5 11.75 -2.05 M-2.15 -5.4 L-1.55 -4.0 -0.8 -4.8 -0.15 -4.35 0.15 -4.9 Q1.8 -1.5 -0.2 1.45 -1.1 2.85 -3.0 2.8 -3.9 1.85 -4.15 0.55 L-4.25 -0.25 -4.55 0.15 Q-5.3 -3.0 -2.8 -4.95 L-2.15 -5.4" fill="#ff8c3f" fill-rule="evenodd" stroke="none"/>
      <path d="M-18.15 -2.75 L-18.3 -2.05 Q-18.95 0.25 -18.95 2.6 -18.95 4.25 -18.1 5.75 L-17.1 7.15 -16.95 6.2 -16.6 3.35 -16.5 2.45 -15.65 1.5 Q-16.0 4.7 -15.95 8.0 -15.9 10.1 -14.75 11.95 L-13.7 13.15 Q-13.3 12.5 -13.2 11.85 -12.7 9.2 -12.55 6.45 L-12.4 5.15 -11.65 9.05 -10.55 12.55 -10.05 13.9 -7.85 15.25 -7.25 15.15 -7.95 10.25 -8.0 3.7 -7.3 7.8 -7.2 8.65 Q-7.05 10.55 -6.15 12.15 L-5.15 13.65 Q-2.9 16.3 -0.1 14.1 L0.45 13.7 2.55 6.75 3.15 -2.25 3.45 0.85 3.4 6.8 3.35 10.0 2.95 14.75 3.65 15.55 4.1 15.55 5.0 14.75 4.7 15.1 5.95 13.85 5.5 15.1 5.15 16.45 Q6.45 16.05 7.35 14.9 9.1 12.7 9.7 10.1 10.35 7.5 10.45 4.8 L9.95 -0.85 9.9 -2.95 10.15 -2.4 11.1 1.15 11.45 4.6 Q11.6 7.3 10.85 9.9 10.05 12.85 8.25 15.6 L9.85 14.65 10.45 14.75 10.45 15.8 11.05 15.35 Q13.25 13.5 14.15 10.7 L14.6 9.25 15.35 4.95 15.4 4.65 15.4 3.6 Q15.5 0.75 14.3 -1.85 L11.6 -8.05 12.0 -7.65 13.4 -5.7 15.4 -0.85 16.15 2.05 16.3 4.65 16.2 6.4 15.65 9.15 14.8 11.1 14.95 11.5 14.7 11.85 15.35 12.3 16.6 12.1 18.55 8.45 Q19.75 5.8 20.05 2.85 20.2 5.65 19.25 8.3 18.25 10.95 16.55 13.3 14.8 15.65 12.0 16.85 9.45 17.95 6.7 17.85 3.9 18.2 1.2 17.85 L0.4 17.75 Q-1.5 19.2 -3.85 18.85 -4.95 18.6 -5.75 18.05 -9.15 18.85 -11.75 16.4 L-12.25 16.55 Q-15.05 15.95 -16.4 13.4 L-17.1 13.2 Q-18.45 10.8 -19.1 8.25 L-19.85 5.55 -20.0 3.25 -19.85 1.7 -18.15 -2.75" fill="#d45d23" fill-rule="evenodd" stroke="none"/>
      <path d="M-15.65 -4.15 L-17.6 4.55 -17.4 5.3 -18.2 4.45 -16.15 -3.6 -15.65 -4.15 M-7.95 10.25 L-8.2 13.75 -8.9 10.5 -8.75 5.05 -7.75 -0.8 -8.0 2.15 -8.0 3.7 -7.95 10.25" fill="#ff964f" fill-rule="evenodd" stroke="none"/>
      <path d="M4.0 -18.55 L4.0 -17.35 2.65 -16.3 -0.8 -11.5 0.8 -14.8 -1.4 -11.75 Q-1.1 -13.2 -0.25 -14.45 1.3 -16.85 4.0 -18.55" fill="#e9d3be" fill-rule="evenodd" stroke="none"/>
      <path d="M4.0 -17.35 L4.0 -17.3 0.95 -12.75 0.25 -11.5 3.3 -15.9 4.2 -16.9 4.2 -16.45 2.05 -13.25 4.75 -16.35 5.05 -15.85 4.5 -14.7 5.7 -15.75 5.35 -16.75 4.95 -16.95 4.3 -18.2 5.85 -17.3 6.1 -14.8 5.25 -14.0 3.4 -14.15 2.95 -13.5 2.25 -12.05 1.75 -10.7 1.45 -10.2 0.25 -10.9 -2.5 -10.65 -2.85 -11.15 0.75 -15.85 3.55 -18.95 4.0 -18.55 Q1.3 -16.85 -0.25 -14.45 -1.1 -13.2 -1.4 -11.75 L0.8 -14.8 -0.8 -11.5 2.65 -16.3 4.0 -17.35" fill="#837b72" fill-rule="evenodd" stroke="none"/>
      <path d="M4.0 -18.55 L4.3 -18.2 4.95 -16.95 5.35 -16.75 5.7 -15.75 4.5 -14.7 5.05 -15.85 4.75 -16.35 2.05 -13.25 4.2 -16.45 4.2 -16.9 3.3 -15.9 0.25 -11.5 0.95 -12.75 4.0 -17.3 4.0 -17.35 4.0 -18.55" fill="#bfaca1" fill-rule="evenodd" stroke="none"/>
      <path d="M7.8 -11.4 L8.1 -11.35 8.1 -11.2 7.8 -11.4" fill="#ef7f33" fill-rule="evenodd" stroke="none"/>
      <path d="M4.0 -17.35 L4.0 -17.3" fill="none" stroke="#333366" stroke-linecap="round" stroke-linejoin="round" stroke-width="0.05"/>
    </g>
  </defs>
</svg>
