<?xml version="1.0" encoding="UTF-8" standalone="no"?>
<svg xmlns:ffdec="https://www.free-decompiler.com/flash" xmlns:xlink="http://www.w3.org/1999/xlink" ffdec:objectType="frame" height="85.7px" width="30.15px" xmlns="http://www.w3.org/2000/svg">
  <g transform="matrix(1.0, 0.0, 0.0, 1.0, 14.25, 43.9)">
    <use ffdec:characterId="2555" height="85.1" transform="matrix(1.0, 0.0, 0.0, 1.0, -14.1, -43.9)" width="27.5" xlink:href="#shape0"/>
    <use ffdec:characterId="1081" height="100.0" id="shape" transform="matrix(0.26, 0.0, 0.0, 0.82, -12.9997, -40.9988)" width="100.0" xlink:href="#sprite0"/>
  </g>
  <defs>
    <g id="shape0" transform="matrix(1.0, 0.0, 0.0, 1.0, 14.1, 43.9)">
      <path d="M7.1 -21.5 L7.6 -23.5 7.7 -24.35 Q9.3 -34.65 8.15 -39.05 L7.85 -40.0 Q10.6 -37.7 13.15 -33.95 L13.05 -22.7 13.05 -22.0 13.05 -21.8 13.1 -20.5 13.1 -18.3 13.3 -9.55 13.4 -5.65 Q13.5 3.4 13.0 12.1 L12.9 13.7 Q12.35 20.7 10.9 26.65 9.9 30.35 8.55 33.7 5.05 42.25 -1.7 41.05 L-0.95 40.35 Q1.35 38.15 2.55 35.55 4.7 34.1 5.55 32.45 6.0 31.55 6.55 27.85 L7.15 26.15 8.2 23.45 Q9.6 20.0 9.9 18.2 10.3 15.55 9.9 11.65 L9.75 10.0 7.8 -5.4 7.75 -6.45 7.55 -8.55 Q7.9 -8.2 8.4 -8.1 9.9 -7.9 10.2 -9.9 10.6 -11.65 8.95 -11.9 7.85 -12.05 7.4 -11.35 L7.2 -16.2 7.15 -19.15 7.1 -21.5" fill="#bb77a7" fill-rule="evenodd" stroke="none"/>
      <path d="M7.85 -40.0 L8.15 -39.05 Q9.3 -34.65 7.7 -24.35 L7.6 -23.5 7.1 -21.5 6.45 -19.25 5.8 -17.15 5.75 -17.8 Q5.0 -19.0 3.9 -19.65 2.75 -20.35 1.2 -20.2 L0.9 -20.95 0.95 -21.45 1.55 -21.65 Q2.65 -22.7 2.85 -24.2 L2.95 -25.25 2.6 -25.65 Q0.9 -25.75 -0.05 -24.6 L-0.9 -22.7 -2.0 -21.75 -2.15 -21.0 -1.8 -20.55 -1.65 -20.4 -1.15 -19.95 -0.8 -19.9 -0.3 -20.1 Q-2.7 -18.15 -2.9 -15.05 L-2.95 -14.3 -2.65 -12.5 Q-1.95 -10.6 0.6 -10.55 L0.4 -9.9 Q-0.05 -8.1 1.1 -7.4 1.65 -7.1 2.8 -7.05 L2.9 -7.15 3.35 -7.85 4.35 -8.35 4.35 -8.1 4.45 -6.95 4.4 -6.1 4.35 -5.3 Q4.5 1.5 7.0 8.25 L7.75 10.35 8.1 11.4 8.5 13.0 Q9.2 16.25 8.75 18.25 L8.4 19.75 Q7.85 24.05 6.85 23.2 6.2 22.7 5.4 20.0 L4.6 17.4 Q3.3 13.4 3.05 14.85 2.85 16.0 3.15 19.1 L3.7 23.3 3.65 23.35 3.7 25.65 3.75 27.3 3.65 27.45 3.6 27.55 3.85 28.25 3.9 28.9 3.6 31.95 Q3.3 33.85 2.55 35.55 1.35 38.15 -0.95 40.35 L-1.7 41.05 -5.1 40.45 Q-6.9 39.9 -8.2 38.9 L-9.1 38.15 -7.15 36.4 -6.4 35.05 Q-6.1 33.05 -6.15 28.75 L-4.65 25.4 -4.6 24.5 -4.95 19.95 -4.9 19.95 Q-3.6 19.45 -3.25 17.1 L-3.2 16.8 Q-3.2 16.15 -3.5 15.7 -3.55 14.95 -3.95 14.45 L-4.1 14.25 -5.55 13.0 Q-4.35 12.9 -4.05 11.5 L-3.9 11.45 -3.2 10.8 -2.95 9.95 -2.95 9.85 Q-2.9 9.2 -3.45 8.4 L-4.05 7.25 Q-3.8 5.45 -2.7 5.15 L-2.25 4.85 -2.4 5.35 -2.35 6.05 -2.3 6.05 -1.05 6.85 2.95 4.85 Q3.15 3.65 2.95 2.55 L2.9 1.75 2.8 1.45 1.7 0.3 1.1 0.55 1.05 1.7 -0.5 3.9 -1.8 4.2 Q-1.5 3.65 -1.35 2.75 -1.25 2.0 -2.1 0.8 L-2.2 0.65 -2.9 -0.05 -3.4 -0.4 Q-4.15 -0.9 -5.1 -1.05 L-5.4 -0.9 Q-5.35 -4.5 -6.2 -8.45 -6.85 -11.9 -8.25 -15.6 -9.25 -18.2 -10.6 -20.95 L-11.0 -21.75 -12.4 -24.85 -13.1 -26.5 -14.05 -28.7 -14.05 -28.95 Q-14.5 -37.55 -10.0 -41.25 L-7.15 -43.0 Q-5.15 -44.25 -1.25 -43.8 3.55 -43.6 7.85 -40.0 M2.95 7.3 L2.2 7.8 1.95 8.8 1.85 10.3 2.1 10.55 2.9 11.15 4.15 11.45 4.4 10.85 Q4.7 9.7 4.15 8.6 3.85 7.75 2.95 7.3 M-8.65 -27.95 L-8.2 -27.15 Q-6.7 -25.65 -4.9 -26.7 -4.75 -27.4 -4.85 -28.0 -5.35 -30.75 -8.15 -30.7 -9.0 -29.3 -8.65 -27.95" fill="#ad5a95" fill-rule="evenodd" stroke="none"/>
      <path d="M-1.8 4.2 L-0.5 3.9 1.05 1.7 1.1 0.55 1.7 0.3 2.8 1.45 2.9 1.75 2.95 2.55 Q3.15 3.65 2.95 4.85 L-1.05 6.85 -2.3 6.05 -2.35 6.05 -2.4 5.35 -2.25 4.85 -2.2 4.8 -1.8 4.2 M3.35 -7.85 L2.9 -7.15 2.8 -7.05 Q1.65 -7.1 1.1 -7.4 -0.05 -8.1 0.4 -9.9 L0.6 -10.55 Q-1.95 -10.6 -2.65 -12.5 L-2.95 -14.3 -2.9 -15.05 Q-2.7 -18.15 -0.3 -20.1 L-0.8 -19.9 -1.15 -19.95 -1.65 -20.4 -1.8 -20.55 -2.15 -21.0 -2.0 -21.75 -0.9 -22.7 -0.05 -24.6 Q0.9 -25.75 2.6 -25.65 L2.95 -25.25 2.85 -24.2 Q2.65 -22.7 1.55 -21.65 L0.95 -21.45 0.9 -20.95 1.2 -20.2 Q2.75 -20.35 3.9 -19.65 5.0 -19.0 5.75 -17.8 L5.8 -17.15 6.15 -13.75 5.35 -12.0 5.95 -9.85 5.1 -8.7 4.65 -8.55 4.4 -9.2 4.9 -10.2 3.55 -11.5 Q4.85 -12.45 5.05 -14.35 L5.1 -15.7 4.95 -16.55 2.5 -19.1 1.45 -19.15 Q-0.75 -18.85 -1.8 -16.95 L-1.85 -15.0 -1.6 -14.05 Q-0.8 -12.1 2.15 -11.7 L1.8 -9.3 1.95 -8.75 2.9 -8.8 3.25 -8.4 3.35 -7.85 M2.95 7.3 Q3.85 7.75 4.15 8.6 4.7 9.7 4.4 10.85 L4.15 11.45 2.9 11.15 2.1 10.55 1.85 10.3 1.95 8.8 2.2 7.8 2.95 7.3 M-8.65 -27.95 Q-9.0 -29.3 -8.15 -30.7 -5.35 -30.75 -4.85 -28.0 -4.75 -27.4 -4.9 -26.7 -6.7 -25.65 -8.2 -27.15 L-8.65 -27.95" fill="#8a4664" fill-rule="evenodd" stroke="none"/>
      <path d="M13.1 -20.5 L13.05 -21.8 13.1 -21.2 13.1 -20.5 M-10.55 -6.55 Q-9.5 -6.3 -9.25 -6.8 L-8.8 -7.35 -8.8 -7.3 Q-8.05 -4.85 -7.85 -3.6 L-8.1 -2.8 Q-8.85 -1.9 -9.95 -1.8 L-10.3 -4.65 -10.55 -6.55 M-9.7 0.35 L-8.75 0.05 -8.75 0.1 -9.45 2.45 -9.7 0.35" fill="#e2b181" fill-rule="evenodd" stroke="none"/>
      <path d="M-14.05 -28.7 L-13.1 -26.5 -12.4 -24.85 -11.0 -21.75 -10.6 -20.95 Q-9.25 -18.2 -8.25 -15.6 -6.85 -11.9 -6.2 -8.45 -5.35 -4.5 -5.4 -0.9 L-8.75 0.05 -9.7 0.35 -10.9 0.7 -11.05 -0.8 -11.2 -1.85 -10.85 -1.8 -9.95 -1.8 Q-8.85 -1.9 -8.1 -2.8 -7.3 -3.85 -6.95 -6.0 L-7.0 -6.75 Q-7.15 -7.4 -7.7 -7.5 L-8.8 -7.35 -9.25 -6.8 Q-9.5 -6.3 -10.55 -6.55 L-11.1 -6.7 -14.1 -6.55 -13.8 -9.55 Q-13.3 -15.75 -13.6 -22.1 L-13.85 -26.6 -13.95 -27.25 -14.05 -28.7 M-4.05 11.5 Q-4.35 12.9 -5.55 13.0 L-4.1 14.25 -3.95 14.45 Q-3.55 14.95 -3.5 15.7 -3.75 15.25 -4.25 14.95 -4.9 14.65 -5.8 14.5 L-6.9 14.5 -7.6 13.0 Q-6.15 12.05 -5.55 11.15 L-4.6 11.45 -4.05 11.5 M-4.95 19.95 L-4.6 24.5 -4.65 25.4 -6.15 28.75 Q-6.1 33.05 -6.4 35.05 L-7.15 36.4 -9.1 38.15 -9.8 37.65 Q-13.9 34.65 -12.8 29.2 L-11.6 23.5 -11.3 21.75 -12.65 19.75 -10.9 18.65 -10.75 16.45 Q-10.2 16.55 -9.4 16.05 L-8.8 17.05 Q-9.05 18.2 -8.45 18.9 -7.85 19.7 -6.3 19.95 L-6.1 20.0 -4.95 19.95 M2.55 35.55 Q3.3 33.85 3.6 31.95 L3.9 28.9 3.85 28.25 3.6 27.55 3.65 27.45 3.75 27.3 3.7 25.65 3.65 23.35 3.7 23.3 3.15 19.1 Q2.85 16.0 3.05 14.85 3.3 13.4 4.6 17.4 L5.4 20.0 Q6.2 22.7 6.85 23.2 7.85 24.05 8.4 19.75 L8.75 18.25 Q9.2 16.25 8.5 13.0 L8.1 11.4 7.75 10.35 7.0 8.25 Q4.5 1.5 4.35 -5.3 L4.4 -6.1 4.45 -6.95 4.35 -8.1 4.35 -8.35 4.65 -8.55 5.1 -8.7 5.95 -9.85 5.35 -12.0 6.15 -13.75 5.8 -17.15 6.45 -19.25 7.1 -21.5 7.15 -19.15 7.2 -16.2 7.4 -11.35 Q7.1 -11.0 7.05 -10.45 6.95 -9.95 7.15 -9.3 L7.55 -8.55 7.75 -6.45 7.8 -5.4 9.75 10.0 9.9 11.65 Q10.3 15.55 9.9 18.2 9.6 20.0 8.2 23.45 L7.15 26.15 6.55 27.85 Q6.0 31.55 5.55 32.45 4.7 34.1 2.55 35.55" fill="#b66ba0" fill-rule="evenodd" stroke="none"/>
      <path d="M4.35 -8.35 L3.35 -7.85 3.25 -8.4 2.9 -8.8 1.95 -8.75 1.8 -9.3 2.15 -11.7 Q-0.8 -12.1 -1.6 -14.05 L-1.85 -15.0 -1.8 -16.95 Q-0.75 -18.85 1.45 -19.15 L2.5 -19.1 4.95 -16.55 5.1 -15.7 5.05 -14.35 Q4.85 -12.45 3.55 -11.5 L4.9 -10.2 4.4 -9.2 4.65 -8.55 4.35 -8.35" fill="#663333" fill-rule="evenodd" stroke="none"/>
      <path d="M7.4 -11.35 Q7.85 -12.05 8.95 -11.9 10.6 -11.65 10.2 -9.9 9.9 -7.9 8.4 -8.1 7.9 -8.2 7.55 -8.55 L7.15 -9.3 Q6.95 -9.95 7.05 -10.45 7.1 -11.0 7.4 -11.35" fill="#884444" fill-rule="evenodd" stroke="none"/>
      <path d="M-5.4 -0.9 L-5.1 -1.05 Q-4.15 -0.9 -3.4 -0.4 L-2.9 -0.05 -2.2 0.65 -2.2 4.8 -2.25 4.85 -2.7 5.15 Q-3.8 5.45 -4.05 7.25 L-3.45 8.4 Q-2.9 9.2 -2.95 9.85 L-2.95 9.95 -3.2 10.8 -3.9 11.45 -4.05 11.5 -4.6 11.45 -5.55 11.15 Q-6.15 12.05 -7.6 13.0 L-6.9 14.5 -5.8 14.5 Q-4.9 14.65 -4.25 14.95 L-4.5 16.15 Q-4.55 16.65 -6.3 19.95 -7.85 19.7 -8.45 18.9 -8.4 12.25 -9.45 2.45 L-8.75 0.1 -8.75 0.05 -5.4 -0.9 M-8.8 -7.35 L-7.7 -7.5 Q-7.15 -7.4 -7.0 -6.75 L-6.95 -6.0 Q-7.3 -3.85 -8.1 -2.8 L-7.85 -3.6 Q-8.05 -4.85 -8.8 -7.3 L-8.8 -7.35" fill="#f4c398" fill-rule="evenodd" stroke="none"/>
      <path d="M-2.2 0.65 L-2.1 0.8 Q-1.25 2.0 -1.35 2.75 -1.5 3.65 -1.8 4.2 L-2.2 4.8 -2.2 0.65 M-3.5 15.7 Q-3.2 16.15 -3.2 16.8 L-3.25 17.1 Q-3.6 19.45 -4.9 19.95 L-4.95 19.95 -6.1 20.0 -6.3 19.95 Q-4.55 16.65 -4.5 16.15 L-4.25 14.95 Q-3.75 15.25 -3.5 15.7 M-9.1 38.15 L-8.2 38.9 Q-9.1 38.45 -9.8 37.65 L-9.1 38.15" fill="#ffcc99" fill-rule="evenodd" stroke="none"/>
    </g>
    <g id="sprite0" transform="matrix(1.0, 0.0, 0.0, 1.0, 50.0, 50.0)">
      <use ffdec:characterId="1080" height="100.0" transform="matrix(1.0, 0.0, 0.0, 1.0, -50.0, -50.0)" width="100.0" xlink:href="#shape1"/>
    </g>
    <g id="shape1" transform="matrix(1.0, 0.0, 0.0, 1.0, 50.0, 50.0)">
      <path d="M50.0 50.0 L-50.0 50.0 -50.0 -50.0 50.0 -50.0 50.0 50.0 Z" fill="none" stroke="#9900ff" stroke-linecap="round" stroke-linejoin="round" stroke-width="0.05"/>
    </g>
  </defs>
</svg>
