<?xml version="1.0" encoding="UTF-8" standalone="no"?>
<svg xmlns:ffdec="https://www.free-decompiler.com/flash" xmlns:xlink="http://www.w3.org/1999/xlink" ffdec:objectType="frame" height="122.75px" width="29.9px" xmlns="http://www.w3.org/2000/svg">
  <g transform="matrix(1.0, 0.0, 0.0, 1.0, 16.85, 14.85)">
    <use ffdec:characterId="1727" ffdec:characterName="game_fla.upperarm1_652" height="62.75" id="upperArm1" transform="matrix(1.0, 0.0, 0.0, 1.0, -16.85, -14.85)" width="29.75" xlink:href="#sprite0"/>
    <use ffdec:characterId="1734" height="73.7" id="lowerArmOuter1" transform="matrix(1.0, 0.0, 0.0, 1.0, -12.45, 34.2)" width="25.5" xlink:href="#sprite2"/>
  </g>
  <defs>
    <g id="sprite0" transform="matrix(1.0, 0.0, 0.0, 1.0, 15.75, 31.9)">
      <use ffdec:characterId="1723" height="62.75" transform="matrix(1.0, 0.0, 0.0, 1.0, -14.45, -31.9)" width="27.9" xlink:href="#shape0"/>
      <use ffdec:characterId="1081" height="100.0" id="shape" transform="matrix(0.28, 0.0, 0.0, 0.58, -13.9984, -28.9986)" width="100.0" xlink:href="#sprite1"/>
    </g>
    <g id="shape0" transform="matrix(1.0, 0.0, 0.0, 1.0, 14.45, 31.9)">
      <path d="M11.7 12.6 L11.3 17.5 11.15 19.15 Q11.1 20.05 10.45 21.35 10.2 15.5 8.7 12.05 7.8 10.1 2.4 6.3 1.0 6.15 -0.3 5.45 -2.05 4.5 -4.5 4.5 L-5.4 4.75 -6.35 5.0 Q-8.05 5.0 -9.5 4.05 L-11.95 5.6 Q-11.75 12.2 -10.5 18.0 L-9.4 22.1 -7.85 27.05 Q-12.0 21.5 -13.6 8.05 -14.9 -3.4 -14.25 -15.15 L-14.2 -15.5 -14.0 -16.4 -13.8 -17.35 -13.8 -17.65 -13.8 -17.8 -13.7 -18.35 -13.35 -19.7 Q-12.45 -22.45 -9.55 -25.45 -5.45 -29.75 -0.1 -28.75 5.25 -27.8 7.25 -26.7 8.25 -25.25 9.35 -22.3 11.1 -17.35 11.1 -14.1 11.1 -12.35 10.25 -11.0 9.35 -9.65 9.35 -8.4 L10.5 -3.75 Q11.6 0.7 11.6 2.25 L11.3 5.2 11.0 8.2 Q11.0 9.85 11.5 11.95 L11.7 12.6 M7.25 -13.85 Q7.25 -17.05 5.25 -20.4 2.8 -24.4 -0.75 -24.4 L-1.7 -24.3 -3.35 -24.5 Q-7.15 -24.5 -9.7 -20.7 -12.3 -16.95 -12.4 -14.55 L-12.4 -11.3 -12.35 -11.2 -9.1 -8.9 Q-7.3 -7.5 -5.25 -7.0 L-5.25 -6.75 -9.35 -7.9 Q-12.05 -8.55 -11.8 -6.95 L-11.45 -5.2 -11.45 -4.75 -11.35 -3.85 -11.7 -1.2 Q-9.9 1.45 -8.5 1.65 -7.4 1.95 -6.1 3.2 -4.9 4.25 -4.0 4.3 L0.4 5.1 0.9 5.25 Q5.6 4.15 7.5 7.25 L7.5 6.35 Q6.75 1.15 7.0 -0.1 7.25 -1.35 5.8 -3.7 4.35 -6.1 3.55 -6.25 2.75 -6.4 5.0 -8.3 7.25 -10.2 7.25 -13.85" fill="#ad4949" fill-rule="evenodd" stroke="none"/>
      <path d="M-13.35 -19.7 L-13.0 -20.85 Q-11.9 -23.95 -10.2 -26.4 -4.95 -33.75 3.75 -31.3 9.55 -29.8 12.15 -25.45 14.0 -22.35 13.25 -17.85 L12.95 -15.75 12.75 -14.2 Q12.6 -10.25 12.7 -4.6 12.75 1.0 12.4 2.4 L12.05 6.6 11.7 12.6 11.5 11.95 Q11.0 9.85 11.0 8.2 L11.3 5.2 11.6 2.25 Q11.6 0.7 10.5 -3.75 L9.35 -8.4 Q9.35 -9.65 10.25 -11.0 11.1 -12.35 11.1 -14.1 11.1 -17.35 9.35 -22.3 8.25 -25.25 7.25 -26.7 5.25 -27.8 -0.1 -28.75 -5.45 -29.75 -9.55 -25.45 -12.45 -22.45 -13.35 -19.7" fill="#e98d8d" fill-rule="evenodd" stroke="none"/>
      <path d="M10.45 21.35 Q9.5 23.2 7.25 25.85 L6.55 26.7 Q2.65 30.85 -0.85 30.85 -4.95 30.85 -7.85 27.05 L-9.4 22.1 -10.5 18.0 Q-11.75 12.2 -11.95 5.6 L-9.5 4.05 Q-8.05 5.0 -6.35 5.0 L-5.4 4.75 -4.5 4.5 Q-2.05 4.5 -0.3 5.45 1.0 6.15 2.4 6.3 7.8 10.1 8.7 12.05 10.2 15.5 10.45 21.35 M7.25 -13.85 Q7.25 -10.2 5.0 -8.3 2.75 -6.4 3.55 -6.25 4.35 -6.1 5.8 -3.7 7.25 -1.35 7.0 -0.1 6.75 1.15 7.5 6.35 L7.5 7.25 Q5.6 4.15 0.9 5.25 L0.4 5.1 -4.0 4.3 Q-4.9 4.25 -6.1 3.2 -7.4 1.95 -8.5 1.65 -9.9 1.45 -11.7 -1.2 L-11.35 -3.85 -11.45 -4.75 -11.45 -5.2 -11.8 -6.95 Q-12.05 -8.55 -9.35 -7.9 L-5.25 -6.75 -5.25 -7.0 Q-7.3 -7.5 -9.1 -8.9 L-12.35 -11.2 -12.4 -11.3 -12.4 -14.55 Q-12.3 -16.95 -9.7 -20.7 -7.15 -24.5 -3.35 -24.5 L-1.7 -24.3 -0.75 -24.4 Q2.8 -24.4 5.25 -20.4 7.25 -17.05 7.25 -13.85" fill="#8e3c3c" fill-rule="evenodd" stroke="none"/>
    </g>
    <g id="sprite1" transform="matrix(1.0, 0.0, 0.0, 1.0, 50.0, 50.0)">
      <use ffdec:characterId="1080" height="100.0" transform="matrix(1.0, 0.0, 0.0, 1.0, -50.0, -50.0)" width="100.0" xlink:href="#shape1"/>
    </g>
    <g id="shape1" transform="matrix(1.0, 0.0, 0.0, 1.0, 50.0, 50.0)">
      <path d="M50.0 50.0 L-50.0 50.0 -50.0 -50.0 50.0 -50.0 50.0 50.0 Z" fill="none" stroke="#9900ff" stroke-linecap="round" stroke-linejoin="round" stroke-width="0.05"/>
    </g>
    <g id="sprite2" transform="matrix(1.0, 0.0, 0.0, 1.0, 12.45, 7.75)">
      <use ffdec:characterId="1733" ffdec:characterName="game_fla.lowerarm1_654" height="73.7" id="lowerArm1" transform="matrix(1.0, 0.0, 0.0, 1.0, -12.45, -7.75)" width="25.5" xlink:href="#sprite3"/>
    </g>
    <g id="sprite3" transform="matrix(1.0, 0.0, 0.0, 1.0, 13.0, 34.6)">
      <use ffdec:characterId="1730" ffdec:characterName="game_fla.hand1_655" height="22.95" id="hand" transform="matrix(1.0, 0.0, 0.0, 1.0, -9.25, 16.15)" width="18.65" xlink:href="#sprite4"/>
      <use ffdec:characterId="1731" height="56.15" transform="matrix(1.0, 0.0, 0.0, 1.0, -11.55, -34.6)" width="22.8" xlink:href="#shape3"/>
      <use ffdec:characterId="1081" height="100.0" id="shape" transform="matrix(0.2, 0.0, 0.0, 0.65, -9.9991, -32.5012)" width="100.0" xlink:href="#sprite1"/>
    </g>
    <g id="sprite4" transform="matrix(1.0, 0.0, 0.0, 1.0, 9.65, 9.15)">
      <use ffdec:characterId="1728" height="18.35" transform="matrix(1.0, 0.0, 0.0, 1.0, -8.35, -9.15)" width="16.7" xlink:href="#shape2"/>
    </g>
    <g id="shape2" transform="matrix(1.0, 0.0, 0.0, 1.0, 8.35, 9.15)">
      <path d="M-4.25 -9.15 L6.75 -9.15 7.15 -6.25 7.6 -4.55 Q8.6 -1.3 8.3 0.35 L8.15 1.0 Q7.9 3.7 7.35 5.0 L6.6 6.15 5.8 6.85 5.5 7.0 4.7 7.25 3.9 7.15 2.95 5.65 3.3 5.3 3.4 4.85 3.1 4.0 1.7 4.25 0.15 4.6 -1.05 3.15 -2.05 2.75 -2.05 2.7 -2.2 2.75 Q-2.65 2.8 -2.65 2.2 L-2.75 1.45 -3.0 1.1 -3.75 0.75 -4.5 -0.3 -5.2 -1.05 -5.4 -1.6 -5.25 -5.6 Q-4.45 -6.45 -4.5 -7.3 L-4.45 -8.45 -4.25 -9.15 M-6.8 -8.35 L-6.8 -9.15 -5.9 -9.15 -5.85 -8.9 -6.8 -8.35" fill="#ffcc99" fill-rule="evenodd" stroke="none"/>
      <path d="M4.7 7.25 L3.8 7.9 Q2.7 8.1 1.8 8.8 0.8 9.35 -0.15 9.1 -1.25 8.9 -1.65 7.95 L-2.85 7.7 Q-3.2 7.65 -3.55 7.4 L-3.75 7.3 -4.35 6.45 Q-5.0 5.25 -5.35 5.25 L-5.9 5.0 Q-7.35 4.25 -6.55 2.55 -5.0 2.2 -4.3 0.85 L-4.5 -0.3 -3.75 0.75 -3.0 1.1 -2.75 1.45 -2.65 2.2 Q-2.65 2.8 -2.2 2.75 L-2.05 2.75 -5.0 5.0 -5.1 5.1 -5.0 5.25 -4.65 5.6 -3.8 5.85 -2.35 4.9 -2.2 4.25 -2.05 2.75 -1.05 3.15 0.15 4.6 1.7 4.25 1.15 5.6 Q0.1 6.15 -0.85 6.9 L-1.65 7.95 0.3 7.65 2.05 6.2 2.95 5.65 3.9 7.15 4.7 7.25 M-5.9 -9.15 L-4.25 -9.15 -4.45 -8.45 -4.5 -7.3 Q-4.45 -6.45 -5.25 -5.6 L-5.85 -8.9 -5.9 -9.15" fill="#ebbb98" fill-rule="evenodd" stroke="none"/>
      <path d="M-6.55 2.55 Q-8.7 1.85 -8.3 -0.15 L-7.4 -0.85 Q-7.25 -2.0 -7.35 -3.1 L-7.4 -4.25 Q-7.7 -6.5 -6.8 -8.35 L-5.85 -8.9 -5.25 -5.6 -5.4 -1.6 -5.2 -1.05 -4.5 -0.3 -4.3 0.85 Q-5.0 2.2 -6.55 2.55 M1.7 4.25 L3.1 4.0 3.4 4.85 3.3 5.3 2.95 5.65 2.05 6.2 0.3 7.65 -1.65 7.95 -0.85 6.9 Q0.1 6.15 1.15 5.6 L1.7 4.25 M-2.05 2.75 L-2.2 4.25 -2.35 4.9 -3.8 5.85 -4.65 5.6 -5.0 5.25 -5.1 5.1 -5.0 5.0 -2.05 2.75" fill="#e2b181" fill-rule="evenodd" stroke="none"/>
    </g>
    <g id="shape3" transform="matrix(1.0, 0.0, 0.0, 1.0, 11.55, 34.6)">
      <path d="M8.5 6.0 Q7.55 1.75 5.75 -2.5 L5.75 -5.0 8.55 0.35 Q8.35 -3.15 8.75 -7.35 L9.45 -12.75 Q10.65 -20.3 10.5 -24.9 11.25 -20.35 11.25 -12.55 L11.05 -7.35 10.35 -0.3 9.6 7.8 9.35 7.0 8.5 6.0" fill="#e98d8d" fill-rule="evenodd" stroke="none"/>
      <path d="M1.5 5.85 Q1.6 -2.45 3.1 -7.35 L4.0 -9.75 Q8.75 -22.55 8.75 -25.85 8.75 -28.2 8.2 -30.3 L7.45 -32.7 Q9.2 -30.7 10.15 -26.5 L10.5 -24.9 Q10.65 -20.3 9.45 -12.75 L8.75 -7.35 Q8.35 -3.15 8.55 0.35 L5.75 -5.0 5.75 -2.5 Q7.55 1.75 8.5 6.0 L8.45 5.95 6.9 5.45 4.75 5.6 1.5 5.85 M3.15 -26.75 L2.95 -24.95 2.8 -25.3 Q1.1 -28.85 0.55 -30.35 0.0 -31.85 0.1 -32.4 2.75 -29.6 3.05 -28.85 3.3 -28.1 3.15 -26.75 M-7.15 -32.55 Q-10.1 -27.55 -9.65 -22.25 -9.25 -16.95 -7.6 -10.15 -6.0 -3.3 -6.0 -0.75 -6.0 1.45 -6.35 3.65 L-6.55 5.1 -6.7 6.4 -7.0 6.4 -7.95 6.65 -8.0 6.65 -8.6 7.0 -9.45 1.25 -10.9 -8.5 -10.9 -20.0 -11.35 -23.4 -11.55 -26.35 Q-11.55 -28.6 -8.85 -31.25 L-7.15 -32.55 M0.0 5.95 L-0.3 4.6 -0.7 2.0 -1.25 -1.25 1.35 5.85 0.65 5.9 0.0 5.95" fill="#ad4949" fill-rule="evenodd" stroke="none"/>
      <path d="M3.15 -26.75 Q3.3 -28.1 3.05 -28.85 2.75 -29.6 0.1 -32.4 0.0 -31.85 0.55 -30.35 1.1 -28.85 2.8 -25.3 L2.95 -24.95 3.15 -26.75 M7.45 -32.7 L8.2 -30.3 Q8.75 -28.2 8.75 -25.85 8.75 -22.55 4.0 -9.75 L3.1 -7.35 Q1.6 -2.45 1.5 5.85 L1.35 5.85 -1.25 -1.25 -0.7 2.0 -0.3 4.6 0.0 5.95 -3.6 6.15 -6.7 6.4 -6.55 5.1 -6.35 3.65 Q-6.0 1.45 -6.0 -0.75 -6.0 -3.3 -7.6 -10.15 -9.25 -16.95 -9.65 -22.25 -10.1 -27.55 -7.15 -32.55 -3.9 -34.6 0.75 -34.05 4.9 -35.6 7.45 -32.7" fill="#8e3c3c" fill-rule="evenodd" stroke="none"/>
      <path d="M4.75 5.6 L6.9 5.45 8.45 5.95 8.5 6.0 9.35 7.0 9.6 7.8 9.65 7.9 Q10.25 9.6 10.25 11.45 L10.15 12.8 10.15 13.75 10.1 17.4 10.05 17.65 9.7 19.0 9.0 18.5 8.1 17.65 7.65 16.95 7.05 15.65 7.75 15.5 7.75 14.0 7.15 13.65 6.75 13.1 6.9 12.5 Q6.9 12.05 6.0 11.25 L7.25 11.25 8.5 12.75 8.65 12.55 8.75 12.5 8.9 11.9 9.0 11.25 Q9.0 9.95 7.1 7.75 5.6 6.0 4.75 5.6 M-7.9 19.7 L-7.9 19.65 Q-9.05 17.9 -9.4 13.7 L-9.45 12.7 Q-9.7 9.75 -8.75 7.05 L-8.6 7.0 -8.0 6.65 -7.95 6.65 -6.9 7.8 -6.95 7.8 -7.0 8.25 -6.9 8.6 -6.75 9.0 Q-6.5 9.4 -6.5 9.75 -6.5 10.1 -7.25 10.8 -8.0 11.55 -8.0 12.75 -8.0 13.4 -7.5 14.25 L-6.5 15.25 -7.25 16.2 -7.5 16.85 -7.0 17.7 Q-6.5 18.55 -6.5 19.25 L-7.9 19.7" fill="#fff9d4" fill-rule="evenodd" stroke="none"/>
      <path d="M1.5 5.85 L4.75 5.6 Q5.6 6.0 7.1 7.75 9.0 9.95 9.0 11.25 L8.9 11.9 8.75 12.5 8.65 12.55 8.5 12.75 7.25 11.25 6.0 11.25 Q6.9 12.05 6.9 12.5 L6.75 13.1 7.15 13.65 7.75 14.0 7.75 15.5 7.05 15.65 7.65 16.95 8.1 17.65 9.0 18.5 9.7 19.0 Q9.25 20.3 8.4 20.9 L6.7 20.5 6.5 19.5 Q5.1 19.6 3.65 18.8 L1.7 17.75 1.6 17.65 1.45 17.45 2.75 17.0 2.5 15.9 Q1.7 14.85 0.45 15.05 L-1.0 15.25 -1.0 14.75 1.45 14.05 1.75 12.85 1.75 12.65 3.2 12.7 3.65 11.85 3.15 10.45 3.05 10.3 2.45 10.45 Q1.5 10.85 1.65 11.8 L0.65 11.15 0.55 11.05 Q0.75 10.85 1.0 10.7 L1.25 8.75 Q1.15 7.2 0.65 5.9 L1.35 5.85 1.5 5.85 M-6.7 6.4 L-3.6 6.15 -4.0 8.0 -5.45 7.9 -5.15 8.8 Q-4.9 9.5 -5.05 10.05 L-5.4 12.25 Q-4.65 13.85 -3.0 14.5 L-3.0 15.0 Q-4.55 15.5 -4.95 16.85 L-4.25 17.4 -4.65 18.25 -5.1 19.5 Q-5.3 20.4 -4.85 20.95 L-5.45 21.15 Q-6.6 20.85 -7.4 20.2 L-7.9 19.7 -6.5 19.25 Q-6.5 18.55 -7.0 17.7 L-7.5 16.85 -7.25 16.2 -6.5 15.25 -7.5 14.25 Q-8.0 13.4 -8.0 12.75 -8.0 11.55 -7.25 10.8 -6.5 10.1 -6.5 9.75 -6.5 9.4 -6.75 9.0 L-6.9 8.6 -7.0 8.25 -6.95 7.8 -6.9 7.8 -7.95 6.65 -7.0 6.4 -6.7 6.4" fill="#cec9ab" fill-rule="evenodd" stroke="none"/>
      <path d="M-3.6 6.15 L0.0 5.95 0.65 5.9 Q1.15 7.2 1.25 8.75 L1.0 10.7 Q0.75 10.85 0.55 11.05 L0.65 11.15 1.65 11.8 Q1.5 10.85 2.45 10.45 L3.05 10.3 3.15 10.45 3.65 11.85 3.2 12.7 1.75 12.65 1.75 12.85 1.45 14.05 -1.0 14.75 -1.0 15.25 0.45 15.05 Q1.7 14.85 2.5 15.9 L2.75 17.0 1.45 17.45 1.6 17.65 1.7 17.75 3.65 18.8 Q5.1 19.6 6.5 19.5 L6.7 20.5 8.4 20.9 6.05 21.55 3.75 21.45 -5.45 21.15 -4.85 20.95 Q-5.3 20.4 -5.1 19.5 L-4.65 18.25 -4.25 17.4 -4.95 16.85 Q-4.55 15.5 -3.0 15.0 L-3.0 14.5 Q-4.65 13.85 -5.4 12.25 L-5.05 10.05 Q-4.9 9.5 -5.15 8.8 L-5.45 7.9 -4.0 8.0 -3.6 6.15" fill="#9c9982" fill-rule="evenodd" stroke="none"/>
    </g>
  </defs>
</svg>
