<?xml version="1.0" encoding="UTF-8" standalone="no"?>
<svg xmlns:ffdec="https://www.free-decompiler.com/flash" xmlns:xlink="http://www.w3.org/1999/xlink" ffdec:objectType="frame" height="33.2px" width="9.2px" xmlns="http://www.w3.org/2000/svg">
  <g transform="matrix(1.0, 0.0, 0.0, 1.0, 5.15, 15.45)">
    <use ffdec:characterId="2216" height="33.2" transform="matrix(1.0, 0.0, 0.0, 1.0, -5.15, -15.45)" width="9.2" xlink:href="#shape0"/>
  </g>
  <defs>
    <g id="shape0" transform="matrix(1.0, 0.0, 0.0, 1.0, 5.15, 15.45)">
      <path d="M-2.65 -9.7 Q-3.25 -10.8 -2.4 -13.25 L-2.4 -13.35 -2.55 -14.55 Q-0.5 -16.15 -0.2 -14.85 L0.45 -12.4 0.55 -12.1 0.6 -12.0 1.05 -9.75 0.75 -9.15 0.75 -7.7 0.6 -7.75 0.25 -8.35 0.0 -9.4 -0.15 -9.75 -0.5 -11.05 -0.75 -10.45 -0.8 -10.35 -1.0 -10.3 Q-1.75 -11.4 -1.65 -12.9 L-1.65 -13.1 -1.65 -13.15 -1.75 -13.15 -1.85 -13.0 -2.25 -12.5 -2.6 -9.65 -2.65 -9.7 M3.8 -4.35 L3.95 -3.9 Q4.25 -3.1 3.65 -2.75 L2.55 -2.1 1.5 -2.6 1.2 -3.05 1.65 -4.35 2.1 -4.5 1.9 -5.1 2.7 -5.45 3.8 -4.35 M-4.05 -6.05 L-3.3 -6.75 -2.75 -6.6 -2.65 -6.5 -2.45 -5.8 Q-2.15 -5.7 -1.1 -6.1 L-1.55 -4.85 -1.7 -4.45 -1.45 -3.8 -1.9 -3.35 -2.3 -2.95 -2.7 -2.8 -3.05 -3.5 -4.05 -6.05 M0.05 -6.85 L0.5 -6.35 0.8 -5.75 0.9 -5.0 0.0 -4.3 -1.05 -6.2 -0.65 -7.25 0.05 -6.85" fill="#ff0000" fill-rule="evenodd" stroke="none"/>
      <path d="M-2.65 -9.7 L-2.6 -9.65 -2.25 -12.5 -1.85 -13.0 -1.65 -12.9 Q-1.75 -11.4 -1.0 -10.3 L-0.8 -10.35 Q-0.4 -8.35 -0.65 -7.25 L-1.05 -6.2 -1.1 -6.1 Q-2.15 -5.7 -2.45 -5.8 L-2.65 -6.5 -2.65 -6.6 -2.7 -9.25 -2.65 -9.7 M0.75 -7.7 L0.75 -9.15 1.05 -9.75 2.05 -6.25 1.9 -5.25 0.8 -5.75 0.5 -6.35 0.5 -6.6 0.75 -7.7" fill="#ffffff" fill-rule="evenodd" stroke="none"/>
      <path d="M2.05 -6.25 L3.3 -5.15 3.8 -4.35 2.7 -5.45 1.9 -5.1 2.1 -4.5 1.65 -4.35 1.2 -3.05 1.5 -2.6 2.55 -2.1 3.65 -2.75 3.35 -0.9 2.9 -0.8 1.95 -1.2 1.3 2.6 Q0.05 -0.05 0.05 -3.2 L-0.65 -2.9 Q-1.85 -1.3 -3.2 -0.6 L-3.65 -2.8 -4.05 -6.05 -3.05 -3.5 -2.7 -2.8 -2.3 -2.95 -1.9 -3.35 -1.45 -3.8 -1.7 -4.45 -1.55 -4.85 -1.1 -6.1 -1.05 -6.2 0.0 -4.3 0.9 -5.0 0.8 -5.75 1.9 -5.25 2.05 -6.25 M-2.75 -6.6 L-2.65 -6.6 -2.65 -6.5 -2.75 -6.6 M0.5 -6.35 L0.05 -6.85 Q0.3 -6.7 0.5 -6.6 L0.5 -6.35" fill="#990000" fill-rule="evenodd" stroke="none"/>
      <path d="M3.35 -0.9 L2.7 8.9 Q3.15 9.3 3.45 10.3 3.9 11.7 3.75 13.55 L3.65 14.05 Q3.65 14.55 3.25 14.85 2.8 15.2 2.25 15.15 L1.8 15.95 0.95 17.15 0.6 17.45 0.55 17.45 0.25 17.5 -1.25 17.75 -1.7 17.55 Q-1.4 17.15 -0.9 17.1 L0.05 17.05 0.15 16.9 0.25 16.9 1.4 15.4 -0.4 14.8 -0.3 14.2 Q-0.15 13.85 0.6 13.7 L0.85 13.7 1.35 13.3 1.3 12.65 Q1.25 12.1 1.35 11.7 1.55 11.15 2.0 10.75 L1.6 10.2 Q1.35 9.9 1.0 9.75 L0.8 9.75 0.45 9.7 Q-0.25 9.7 -0.9 10.25 L-1.85 11.6 -2.6 12.3 -2.9 12.5 -2.65 11.75 -2.5 11.15 Q-2.4 9.45 -2.05 8.7 L-2.25 6.45 Q-2.25 4.45 -2.8 1.45 L-3.2 -0.6 Q-1.85 -1.3 -0.65 -2.9 L0.05 -3.2 Q0.05 -0.05 1.3 2.6 L1.95 -1.2 2.9 -0.8 3.35 -0.9 M-1.35 4.4 Q-1.0 7.0 -1.45 8.75 L-0.65 8.7 0.15 8.7 Q-0.3 8.05 -0.4 6.75 L-0.5 4.35 Q-0.55 3.25 -1.4 1.9 L-1.8 1.1 -1.35 4.4" fill="#ffcc99" fill-rule="evenodd" stroke="none"/>
      <path d="M0.85 13.7 L0.75 13.45 0.3 12.35 -0.05 10.95 0.25 10.0 0.45 9.7 0.8 9.75 1.0 9.75 Q1.35 9.9 1.6 10.2 L2.0 10.75 Q1.55 11.15 1.35 11.7 1.25 12.1 1.3 12.65 L1.35 13.3 0.85 13.7" fill="#e2b181" fill-rule="evenodd" stroke="none"/>
      <path d="M-1.7 17.55 L-2.5 17.25 -2.65 16.75 -2.75 16.8 -3.25 16.9 Q-4.1 16.75 -4.25 16.0 L-5.15 15.7 -4.9 14.9 -4.25 14.5 Q-3.5 13.9 -3.0 12.85 L-2.9 12.5 -2.6 12.3 -1.85 11.6 -0.9 10.25 Q-0.25 9.7 0.45 9.7 L0.25 10.0 -0.05 10.95 0.3 12.35 0.75 13.45 0.85 13.7 0.6 13.7 Q-0.15 13.85 -0.3 14.2 L-0.4 14.8 1.4 15.4 0.25 16.9 0.15 16.9 0.05 17.05 -0.9 17.1 Q-1.4 17.15 -1.7 17.55 M-3.25 -7.95 L-3.25 -8.0 -3.15 -7.95 -3.25 -7.95 M-1.35 4.4 L-1.8 1.1 -1.4 1.9 Q-0.55 3.25 -0.5 4.35 L-0.4 6.75 Q-0.3 8.05 0.15 8.7 L-0.65 8.7 -1.45 8.75 Q-1.0 7.0 -1.35 4.4" fill="#ebbb98" fill-rule="evenodd" stroke="none"/>
    </g>
  </defs>
</svg>
