<?xml version="1.0" encoding="UTF-8" standalone="no"?>
<svg xmlns:ffdec="https://www.free-decompiler.com/flash" xmlns:xlink="http://www.w3.org/1999/xlink" ffdec:objectType="frame" height="43.2px" width="34.2px" xmlns="http://www.w3.org/2000/svg">
  <g transform="matrix(1.0, 0.0, 0.0, 1.0, 18.5, 24.4)">
    <use ffdec:characterId="1419" height="26.85" transform="matrix(1.0, 0.0, 0.0, 1.0, -14.4, -12.7)" width="28.8" xlink:href="#shape0"/>
    <use ffdec:characterId="1421" height="13.5" id="wound" transform="matrix(1.0, 0.0, 0.0, 1.0, -11.6, -20.0)" width="25.25" xlink:href="#sprite0"/>
  </g>
  <defs>
    <g id="shape0" transform="matrix(1.0, 0.0, 0.0, 1.0, 14.4, 12.7)">
      <path d="M10.25 -11.95 L12.85 -11.55 12.85 -9.1 Q12.85 -3.3 11.1 1.25 10.6 2.55 9.9 6.45 9.45 9.15 8.55 10.75 L8.4 10.9 8.15 11.15 Q6.65 12.7 4.65 13.4 L4.35 13.4 0.95 13.15 -1.4 12.55 -2.15 12.2 -4.05 10.8 Q-9.2 7.3 -9.85 4.7 -10.55 2.05 -10.25 -0.75 -10.0 -3.6 -8.0 -6.1 -6.0 -8.6 -5.7 -12.45 L-3.7 -12.4 Q-4.2 -10.1 -4.75 -8.75 L-6.4 -5.65 Q-7.55 -3.95 -7.9 -0.8 -8.3 2.35 -6.8 5.8 -5.3 9.25 -3.35 10.45 -1.45 11.6 1.9 12.45 5.25 13.25 6.7 11.1 8.15 8.9 8.85 5.5 L10.15 -0.25 Q10.85 -3.45 10.85 -6.2 L10.8 -8.35 10.25 -11.1 10.25 -11.95" fill="#90bce7" fill-rule="evenodd" stroke="none"/>
      <path d="M-3.7 -12.4 L-1.9 -12.25 Q1.3 -11.95 5.25 -12.1 L9.5 -12.1 10.15 -11.95 10.25 -11.95 10.25 -11.1 10.8 -8.35 10.85 -6.2 Q10.85 -3.45 10.15 -0.25 L8.85 5.5 Q8.15 8.9 6.7 11.1 5.25 13.25 1.9 12.45 -1.45 11.6 -3.35 10.45 -5.3 9.25 -6.8 5.8 -8.3 2.35 -7.9 -0.8 -7.55 -3.95 -6.4 -5.65 L-4.75 -8.75 Q-4.2 -10.1 -3.7 -12.4" fill="#82add7" fill-rule="evenodd" stroke="none"/>
      <path d="M12.85 -11.55 Q13.75 -11.25 13.85 -10.6 L14.2 -8.15 14.4 -2.6 Q12.9 6.4 8.55 10.75 9.45 9.15 9.9 6.45 10.6 2.55 11.1 1.25 12.85 -3.3 12.85 -9.1 L12.85 -11.55 M4.65 13.4 L3.85 13.65 -0.55 14.05 -3.0 13.7 -5.3 13.5 Q-8.3 13.3 -11.0 11.25 -14.5 8.2 -14.4 2.2 L-14.05 -3.8 -13.65 -5.7 -12.95 -7.5 -12.4 -8.75 -10.65 -12.7 -10.5 -12.4 -5.7 -12.45 Q-6.0 -8.6 -8.0 -6.1 -10.0 -3.6 -10.25 -0.75 -10.55 2.05 -9.85 4.7 -9.2 7.3 -4.05 10.8 L-2.15 12.2 -1.4 12.55 0.95 13.15 4.35 13.4 4.65 13.4" fill="#aacdf0" fill-rule="evenodd" stroke="none"/>
    </g>
    <g id="sprite0" transform="matrix(1.0, 0.0, 0.0, 1.0, 12.65, 6.0)">
      <use ffdec:characterId="1420" height="13.5" transform="matrix(1.0, 0.0, 0.0, 1.0, -12.65, -6.0)" width="25.25" xlink:href="#shape1"/>
    </g>
    <g id="shape1" transform="matrix(1.0, 0.0, 0.0, 1.0, 12.65, 6.0)">
      <path d="M-2.35 -3.05 Q-4.25 -3.85 -4.8 -4.25 -3.6 -4.35 -3.4 -5.4 -3.2 -6.2 -2.3 -5.9 L-2.35 -5.0 Q-2.35 -4.65 -0.8 -4.05 0.75 -3.4 0.85 -2.25 L0.85 -2.2 0.8 -2.1 0.7 -2.0 2.25 -1.05 Q4.95 0.7 4.95 1.5 L4.8 2.2 4.45 2.25 3.9 2.0 1.7 0.4 Q-0.45 -1.25 -1.35 -1.25 L-2.25 -1.0 -3.15 -0.75 -3.55 -0.75 -3.65 -0.75 -4.45 -0.95 -5.3 -1.65 -6.05 -2.25 -6.05 -2.35 -5.55 -3.0 -2.8 -3.0 -2.7 -3.0 -2.65 -2.9 -2.6 -2.6 -2.6 -2.4 Q-2.6 -2.05 -2.8 -2.0 L-1.3 -2.05 -1.3 -2.6 -1.85 -2.85 -2.35 -3.05 M4.9 -1.05 L5.55 -1.25 6.55 -1.5 8.4 -1.05 9.55 0.1 9.95 0.5 9.55 0.95 8.6 1.0 9.15 2.5 9.2 2.9 9.15 3.55 8.95 4.0 8.75 4.35 Q8.45 4.75 7.95 4.75 L7.8 4.75 Q7.1 4.6 6.65 3.25 L6.6 3.05 6.3 1.3 6.35 0.75 Q6.55 0.35 7.2 0.2 6.4 -0.45 4.6 -0.9 L4.9 -1.05 M-7.05 4.15 L-7.1 3.7 -7.05 3.5 -6.95 3.15 Q-6.6 2.4 -5.15 2.35 L1.2 1.9 1.45 1.85 1.6 1.9 1.6 2.35 1.3 2.75 0.35 3.35 -1.35 3.2 -1.3 4.0 Q-1.15 4.2 -1.65 4.25 L-1.8 4.25 -2.15 4.0 -2.55 3.75 Q-3.1 3.75 -3.95 4.2 L-4.1 4.3 -4.3 4.45 Q-5.1 4.85 -5.55 4.85 -6.7 4.85 -7.0 4.3 L-7.05 4.15 M-9.9 3.45 L-9.8 4.0 Q-9.8 5.0 -10.8 5.0 -12.15 5.0 -12.5 4.25 L-12.55 3.45 -12.5 3.05 Q-12.35 2.0 -11.15 2.4 L-10.35 2.85 Q-10.05 3.1 -9.9 3.45 M-11.05 0.75 L-11.05 0.7 Q-11.05 -0.75 -9.25 -0.45 L-6.45 0.6 -6.35 0.75 -9.55 0.95 -9.75 1.0 -10.1 1.1 -10.25 1.25 -10.45 1.4 -10.55 1.5 -10.9 1.3 -10.95 1.2 -11.0 1.05 -11.05 0.75" fill="#ff0000" fill-rule="evenodd" stroke="none"/>
      <path d="M-2.35 -3.05 L-1.85 -2.85 -1.3 -2.6 -1.3 -2.05 -2.8 -2.0 Q-2.6 -2.05 -2.6 -2.4 L-2.6 -2.6 -2.45 -2.75 -2.65 -2.9 -2.7 -3.0 -2.8 -3.0 -2.35 -3.05 M-6.05 -2.35 L-6.05 -2.25 -5.3 -1.65 -5.05 -0.85 -4.8 -0.05 -4.8 0.1 -5.65 0.85 -6.05 1.25 -5.95 1.5 -5.75 1.55 -5.65 1.7 -5.3 1.75 -0.35 1.85 1.2 1.9 -5.15 2.35 Q-6.6 2.4 -6.95 3.15 L-8.05 2.8 -8.15 2.6 -8.2 2.0 -8.2 1.8 -9.55 1.75 -9.85 1.6 -11.2 1.6 -11.25 1.7 -11.35 1.35 -11.35 1.25 -11.2 0.95 -11.05 0.75 -11.0 1.05 -10.95 1.2 -10.9 1.3 -10.55 1.5 -10.45 1.4 -10.25 1.25 -10.1 1.1 -9.75 1.0 -9.55 0.95 -6.35 0.75 -6.45 0.6 -9.25 -0.45 -8.9 -0.7 Q-7.95 -1.4 -7.35 -2.15 L-6.55 -1.25 -6.2 -2.1 -6.05 -2.35 M-3.65 -0.75 L-3.55 -0.75 -3.6 -0.7 -3.65 -0.75 M3.9 2.0 L4.45 2.25 4.8 2.2 4.95 1.5 Q4.95 0.7 2.25 -1.05 L0.7 -2.0 0.8 -2.1 0.85 -2.2 Q1.55 -1.45 2.45 -1.0 L4.05 -0.45 Q4.1 -0.9 4.45 -1.0 L4.9 -1.05 4.6 -0.9 Q6.4 -0.45 7.2 0.2 6.55 0.35 6.35 0.75 L6.3 1.3 6.6 3.05 6.65 3.25 Q7.1 4.6 7.8 4.75 L7.95 4.75 Q8.45 4.75 8.75 4.35 L8.7 4.5 8.25 5.0 7.25 5.25 7.05 5.25 6.8 5.25 Q5.95 5.05 5.7 3.8 L5.7 3.65 5.6 2.45 5.6 2.25 4.7 2.25 4.45 2.25 2.5 2.25 1.8 2.9 -0.3 4.25 -0.35 4.3 -1.3 4.85 -1.55 4.95 -3.4 5.8 -4.3 5.95 -7.35 5.7 -7.45 5.55 -7.55 5.1 Q-7.55 4.6 -7.05 4.15 L-7.0 4.3 Q-6.7 4.85 -5.55 4.85 -5.1 4.85 -4.3 4.45 L-4.1 4.3 -3.95 4.2 Q-3.1 3.75 -2.55 3.75 L-2.15 4.0 -1.8 4.25 -1.65 4.25 Q-1.15 4.2 -1.3 4.0 L-1.35 3.2 0.35 3.35 1.3 2.75 1.6 2.35 1.6 1.9 3.7 2.1 3.9 2.0 M9.55 0.1 L10.95 0.85 11.2 0.85 12.0 1.25 Q12.5 1.55 12.6 2.0 L12.5 2.4 12.3 2.5 11.95 2.5 11.7 2.45 11.55 2.35 10.95 2.6 9.15 2.5 8.6 1.0 9.55 0.95 9.95 0.5 9.55 0.1" fill="#990000" fill-rule="evenodd" stroke="none"/>
      <path d="M-5.3 -1.65 L-4.45 -0.95 -3.65 -0.75 -3.6 -0.7 -3.55 -0.75 -3.15 -0.75 -2.25 -1.0 -1.35 -1.25 Q-0.45 -1.25 1.7 0.4 L3.9 2.0 3.7 2.1 1.6 1.9 1.45 1.85 1.2 1.9 -0.35 1.85 -5.3 1.75 -5.65 1.7 -5.75 1.55 -5.95 1.5 -6.05 1.25 -5.65 0.85 -4.8 0.1 -4.8 -0.05 -5.05 -0.85 -5.3 -1.65" fill="#ebbb98" fill-rule="evenodd" stroke="none"/>
      <path d="M-2.6 -2.6 L-2.65 -2.9 -2.45 -2.75 -2.6 -2.6 M-2.8 -3.0 L-5.55 -3.0 -6.05 -2.35 -6.2 -2.1 -6.55 -1.25 -7.35 -2.15 -7.45 -2.3 -8.05 -3.5 Q-8.05 -4.65 -5.9 -4.2 -4.15 -3.85 -2.8 -3.0" fill="#ffffff" fill-rule="evenodd" stroke="none"/>
      <path d="M12.3 2.5 L12.6 3.05 12.1 3.5 11.45 3.35 11.2 4.15 10.75 4.25 10.0 3.95 10.0 4.0 Q10.0 4.5 10.3 4.8 10.6 5.15 10.6 5.75 10.6 7.15 9.8 7.15 9.2 7.15 9.1 6.8 L8.85 5.75 8.4 5.15 8.25 5.0 8.7 4.5 8.75 4.35 8.95 4.0 9.15 3.55 9.2 2.9 9.15 2.5 10.95 2.6 11.55 2.35 11.7 2.45 11.95 2.5 12.3 2.5 M5.7 3.65 L4.75 3.75 4.2 5.85 3.0 6.0 2.35 4.35 1.6 4.85 1.05 5.2 -1.25 6.65 -1.3 6.45 -1.75 7.5 -3.4 5.8 -1.55 4.95 -1.3 4.85 -0.35 4.3 -0.3 4.25 1.8 2.9 2.5 2.25 4.45 2.25 4.7 2.25 5.6 2.25 5.6 2.45 5.7 3.65 M-7.05 3.5 L-9.1 3.0 -9.9 3.45 Q-10.05 3.1 -10.35 2.85 L-11.15 2.4 Q-12.35 2.0 -12.5 3.05 L-12.65 2.5 Q-12.65 1.7 -11.8 1.4 L-11.35 1.25 -11.35 1.35 -11.25 1.7 -11.2 1.6 -9.85 1.6 -9.55 1.75 -8.2 1.8 -8.2 2.0 -8.15 2.6 -8.05 2.8 -6.95 3.15 -7.05 3.5" fill="#73667c" fill-rule="evenodd" stroke="none"/>
    </g>
  </defs>
</svg>
