<?xml version="1.0" encoding="UTF-8" standalone="no"?>
<svg xmlns:ffdec="https://www.free-decompiler.com/flash" xmlns:xlink="http://www.w3.org/1999/xlink" ffdec:objectType="frame" height="43.2px" width="34.2px" xmlns="http://www.w3.org/2000/svg">
  <g transform="matrix(1.0, 0.0, 0.0, 1.0, 18.5, 24.4)">
    <use ffdec:characterId="1422" height="29.6" transform="matrix(1.0, 0.0, 0.0, 1.0, -14.4, -12.7)" width="29.35" xlink:href="#shape0"/>
  </g>
  <defs>
    <g id="shape0" transform="matrix(1.0, 0.0, 0.0, 1.0, 14.4, 12.7)">
      <path d="M-3.7 -12.4 L-1.9 -12.25 Q1.3 -11.95 5.25 -12.1 L9.5 -12.1 10.15 -11.95 10.25 -11.95 10.25 -11.1 10.8 -8.35 10.85 -6.2 10.85 -6.05 9.65 -5.7 9.5 -5.95 Q9.0 -6.9 8.35 -6.9 L7.2 -6.65 6.0 -6.4 4.45 -6.5 Q4.2 -6.7 4.0 -8.4 L4.0 -8.15 3.3 -7.1 Q2.85 -6.4 2.1 -6.4 L-0.5 -6.9 Q-1.5 -6.9 -3.0 -6.15 -4.5 -5.4 -5.1 -5.4 -5.6 -5.4 -6.1 -6.0 L-6.15 -6.05 Q-5.2 -7.55 -4.75 -8.75 -4.2 -10.1 -3.7 -12.4 M9.9 0.85 L9.8 -0.85 9.8 -1.45 10.25 -1.45 10.4 -1.45 10.15 -0.25 9.9 0.85 M-7.95 -0.4 L-7.9 -0.8 Q-7.65 -3.05 -7.0 -4.55 L-7.1 -3.05 Q-7.3 -1.55 -7.95 -0.4" fill="#82add7" fill-rule="evenodd" stroke="none"/>
      <path d="M10.25 -11.95 L12.85 -11.55 12.85 -9.1 12.55 -4.6 12.05 -5.6 Q11.6 -6.05 10.85 -6.05 L10.85 -6.2 10.8 -8.35 10.25 -11.1 10.25 -11.95 M5.75 12.95 L4.65 13.4 4.35 13.4 4.1 13.4 5.75 12.95 M-5.7 -12.45 L-3.7 -12.4 Q-4.2 -10.1 -4.75 -8.75 -5.2 -7.55 -6.15 -6.05 L-7.0 -7.15 -7.0 -4.55 Q-7.65 -3.05 -7.9 -0.8 L-7.95 -0.4 -8.4 0.25 -8.5 0.45 -8.55 0.4 -9.65 -0.55 Q-9.05 -1.4 -9.05 -1.8 L-9.05 -2.1 -9.05 -2.35 Q-9.05 -2.9 -9.7 -3.2 L-8.0 -6.1 Q-6.0 -8.6 -5.7 -12.45 M9.9 0.85 L10.15 -0.25 10.4 -1.45 Q11.35 -1.5 12.0 -2.1 L12.15 -2.25 11.1 1.25 11.1 1.3 10.0 1.5 9.9 0.85 M-10.35 0.3 L-10.1 0.05 -9.75 0.9 -9.4 1.75 -10.25 2.4 -10.35 0.3" fill="#90bce7" fill-rule="evenodd" stroke="none"/>
      <path d="M12.85 -11.55 Q13.75 -11.25 13.85 -10.6 L14.2 -8.15 14.4 -2.6 Q13.8 1.0 12.75 3.85 L12.45 3.85 12.0 1.1 11.1 1.3 11.1 1.25 12.15 -2.25 Q12.65 -2.85 12.65 -3.55 L12.55 -4.6 12.85 -9.1 12.85 -11.55 M12.5 4.5 L11.7 6.3 11.35 5.2 11.35 4.85 12.5 4.5 M4.65 13.4 L3.85 13.65 -0.55 14.05 -1.45 13.9 4.1 13.4 4.35 13.4 4.65 13.4 M-4.55 13.55 L-5.3 13.5 -7.4 13.15 -7.25 13.0 -4.55 13.55 M-12.65 12.5 L-12.3 11.1 -12.3 9.85 -12.8 9.1 Q-13.15 9.15 -13.35 9.4 -13.75 9.8 -14.15 9.85 L-14.25 9.4 Q-14.25 8.65 -13.75 7.55 L-13.65 7.35 Q-14.45 5.15 -14.4 2.3 L-14.4 2.2 -14.05 -3.8 -13.65 -5.7 -12.95 -7.5 -12.4 -8.75 -10.65 -12.7 -10.5 -12.4 -5.7 -12.45 Q-6.0 -8.6 -8.0 -6.1 L-9.7 -3.2 -10.75 -3.45 Q-11.9 -3.6 -12.3 -3.0 -13.0 -2.55 -13.0 -1.35 -13.0 -0.7 -12.45 -0.1 L-11.5 1.1 -10.35 0.3 -10.25 2.4 -11.25 3.1 -14.4 2.3 -14.35 3.3 Q-12.3 3.75 -11.7 5.55 L-11.5 6.35 -12.0 7.45 Q-10.9 8.9 -11.6 10.65 L-11.6 10.7 -12.3 12.0 -12.65 12.5 M-13.25 8.3 L-13.3 8.15 -13.4 8.35 -13.25 8.3" fill="#aacdf0" fill-rule="evenodd" stroke="none"/>
      <path d="M9.85 10.95 Q7.9 12.2 5.75 12.95 L4.1 13.4 -1.45 13.9 -2.3 13.85 -4.55 13.55 -7.25 13.0 -7.4 13.15 -8.0 13.25 Q-9.25 13.25 -9.8 12.45 L-9.75 12.1 -9.7 11.2 Q-9.75 10.45 -10.2 9.75 L-10.2 9.4 -10.25 8.75 -10.55 6.65 Q-10.6 5.9 -10.25 5.4 L-9.85 4.75 Q-9.2 3.35 -9.4 1.75 L-9.75 0.9 -10.1 0.05 -10.35 0.3 -11.5 1.1 -12.45 -0.1 Q-13.0 -0.7 -13.0 -1.35 -13.0 -2.55 -12.3 -3.0 L-12.5 -2.2 Q-12.4 -0.45 -11.35 -0.45 -10.8 -0.45 -10.25 -0.75 L-9.7 -1.2 Q-9.2 -1.7 -9.05 -2.1 L-9.05 -1.8 Q-9.05 -1.4 -9.65 -0.55 L-8.55 0.4 -8.5 0.45 -8.2 0.75 -7.95 1.0 Q-6.8 2.2 -6.5 2.85 L-6.0 2.45 -5.8 1.95 -5.9 0.6 Q-6.65 0.5 -7.0 -0.05 L-7.3 -1.0 Q-7.3 -2.55 -6.25 -2.75 L-6.05 -4.2 Q-6.25 -4.4 -5.65 -4.4 L-4.45 -3.95 Q-3.55 -3.35 -3.25 -2.15 -2.35 -4.0 -0.9 -4.9 1.85 -6.65 8.75 -4.7 L9.0 -4.4 9.15 -4.55 9.15 -4.4 Q9.15 -3.7 9.75 -3.05 L11.75 -3.05 12.2 -3.55 12.5 -3.95 12.5 -4.2 Q12.5 -5.15 12.05 -5.6 L12.55 -4.6 12.65 -3.55 Q12.65 -2.85 12.15 -2.25 L12.0 -2.1 Q11.35 -1.5 10.4 -1.45 L10.25 -1.45 9.8 -1.45 9.8 -0.85 9.9 0.85 10.0 1.5 Q10.15 2.25 10.5 2.6 L10.65 2.8 Q11.15 3.45 10.9 4.65 L10.2 4.8 9.85 4.85 9.05 4.85 Q8.75 6.1 9.05 6.5 L9.8 7.15 10.2 8.0 10.35 8.55 10.4 8.85 Q10.5 9.5 10.25 9.65 10.0 9.8 9.85 10.95 M1.2 -2.95 Q2.4 -2.25 4.5 -1.25 L6.4 -0.05 6.3 0.0 5.65 0.75 Q4.55 -1.05 3.25 -1.05 L2.35 -0.95 Q4.45 -0.35 5.25 1.15 L6.5 3.6 7.55 0.9 8.25 1.75 8.6 1.5 8.75 1.1 7.45 -0.45 Q6.7 -2.4 2.95 -4.1 -1.75 -6.25 -1.75 -2.05 L-1.7 -1.7 -1.5 -1.65 1.2 -2.95 M2.9 -3.9 Q3.55 -3.9 4.65 -2.75 3.5 -3.45 2.5 -3.65 L2.9 -3.9 M-7.25 -1.3 L-7.0 -0.65 Q-6.55 -0.15 -5.6 -0.15 -5.1 -0.15 -4.7 -0.65 -4.4 -1.1 -4.4 -1.55 -4.4 -2.4 -5.8 -2.6 -7.25 -2.8 -7.25 -1.3 M-6.8 5.35 L-6.95 5.4 Q-7.85 5.65 -8.55 6.95 L-8.55 7.0 Q-9.25 8.15 -9.25 9.1 -8.95 10.5 -8.5 10.75 L-8.25 10.6 -8.15 10.25 Q-8.4 9.9 -8.25 9.6 L-6.75 9.6 -5.75 9.8 -5.5 11.65 Q-4.8 12.6 -1.75 12.6 L-1.4 12.55 Q-1.25 12.5 -1.4 12.35 -1.55 11.65 -2.25 11.0 L-3.05 10.4 Q-3.7 9.95 -4.45 9.6 L-5.4 9.15 -5.4 9.1 -5.6 8.1 -5.8 7.15 Q-6.1 5.95 -6.8 5.35 M-5.0 4.2 L-5.0 5.9 Q-5.0 6.4 -4.25 7.45 L-2.75 9.1 -2.65 9.0 Q-3.2 7.9 -2.7 7.25 L-2.0 6.15 Q-2.0 5.9 -3.15 4.95 -4.15 4.15 -3.65 2.5 -4.75 2.55 -5.0 4.2 M-1.8 5.6 Q-1.8 6.25 -1.4 6.8 -0.7 7.85 1.1 7.85 2.35 7.85 3.25 6.55 4.0 5.5 4.0 4.6 4.0 1.75 1.1 1.75 -1.8 1.75 -1.8 5.6 M-0.6 7.75 Q-2.5 7.5 -2.5 8.5 L-2.15 9.45 Q-1.55 10.5 -0.35 10.5 1.25 10.5 1.25 9.5 1.25 8.0 -0.6 7.75 M7.25 4.0 L7.1 4.0 Q5.8 6.85 3.85 9.1 L4.5 9.2 5.8 7.9 5.6 9.15 5.45 10.4 Q5.1 10.75 3.15 11.0 L3.1 11.5 3.25 11.85 Q4.75 11.35 6.0 9.8 L6.85 8.45 7.45 8.9 7.75 9.15 8.4 9.55 9.65 8.4 9.5 8.3 8.4 7.4 8.25 7.35 7.9 7.5 7.5 6.6 7.4 6.2 7.25 6.25 7.35 5.15 7.25 4.0" fill="#990000" fill-rule="evenodd" stroke="none"/>
      <path d="M9.65 -5.7 L10.85 -6.05 Q11.6 -6.05 12.05 -5.6 12.5 -5.15 12.5 -4.2 L12.5 -3.95 12.2 -3.55 11.75 -3.05 9.75 -3.05 Q9.15 -3.7 9.15 -4.4 L9.15 -4.55 Q9.2 -5.35 9.65 -5.7 M2.9 -3.9 L2.5 -3.65 Q3.5 -3.45 4.65 -2.75 3.55 -3.9 2.9 -3.9 M1.2 -2.95 L-1.5 -1.65 -1.7 -1.7 -1.75 -2.05 Q-1.75 -6.25 2.95 -4.1 6.7 -2.4 7.45 -0.45 L8.75 1.1 8.6 1.5 8.25 1.75 7.55 0.9 6.5 3.6 5.25 1.15 Q4.45 -0.35 2.35 -0.95 L3.25 -1.05 Q4.55 -1.05 5.65 0.75 L6.3 0.0 6.4 -0.05 4.5 -1.25 Q2.4 -2.25 1.2 -2.95 M-9.05 -2.1 Q-9.2 -1.7 -9.7 -1.2 L-10.25 -0.75 Q-10.8 -0.45 -11.35 -0.45 -12.4 -0.45 -12.5 -2.2 L-12.3 -3.0 Q-11.9 -3.6 -10.75 -3.45 L-9.7 -3.2 Q-9.05 -2.9 -9.05 -2.35 L-9.05 -2.1 M-7.25 -1.3 Q-7.25 -2.8 -5.8 -2.6 -4.4 -2.4 -4.4 -1.55 -4.4 -1.1 -4.7 -0.65 -5.1 -0.15 -5.6 -0.15 -6.55 -0.15 -7.0 -0.65 L-7.25 -1.3 M-5.0 4.2 Q-4.75 2.55 -3.65 2.5 -4.15 4.15 -3.15 4.95 -2.0 5.9 -2.0 6.15 L-2.7 7.25 Q-3.2 7.9 -2.65 9.0 L-2.75 9.1 -4.25 7.45 Q-5.0 6.4 -5.0 5.9 L-5.0 4.2 M-6.8 5.35 Q-6.1 5.95 -5.8 7.15 L-5.6 8.1 -5.4 9.1 -5.4 9.15 -4.45 9.6 Q-3.7 9.95 -3.05 10.4 L-2.25 11.0 Q-1.55 11.65 -1.4 12.35 -1.25 12.5 -1.4 12.55 L-1.75 12.6 Q-4.8 12.6 -5.5 11.65 L-5.75 9.8 -6.75 9.6 -8.25 9.6 Q-8.4 9.9 -8.15 10.25 L-8.25 10.6 -8.5 10.75 Q-8.95 10.5 -9.25 9.1 -9.25 8.15 -8.55 7.0 L-8.55 6.95 Q-7.85 5.65 -6.95 5.4 L-6.8 5.35 M7.25 4.0 L7.35 5.15 7.25 6.25 7.4 6.2 7.5 6.6 7.9 7.5 8.25 7.35 8.4 7.4 9.5 8.3 9.65 8.4 8.4 9.55 7.75 9.15 7.45 8.9 6.85 8.45 6.0 9.8 Q4.75 11.35 3.25 11.85 L3.1 11.5 3.15 11.0 Q5.1 10.75 5.45 10.4 L5.6 9.15 5.8 7.9 4.5 9.2 3.85 9.1 Q5.8 6.85 7.1 4.0 L7.25 4.0" fill="#ff0000" fill-rule="evenodd" stroke="none"/>
      <path d="M-0.6 7.75 Q1.25 8.0 1.25 9.5 1.25 10.5 -0.35 10.5 -1.55 10.5 -2.15 9.45 L-2.5 8.5 Q-2.5 7.5 -0.6 7.75 M-1.8 5.6 Q-1.8 1.75 1.1 1.75 4.0 1.75 4.0 4.6 4.0 5.5 3.25 6.55 2.35 7.85 1.1 7.85 -0.7 7.85 -1.4 6.8 -1.8 6.25 -1.8 5.6" fill="#650101" fill-rule="evenodd" stroke="none"/>
      <path d="M12.75 3.85 L13.25 3.85 12.5 4.5 11.35 4.85 11.35 5.2 11.7 6.3 11.75 6.4 Q12.35 7.35 13.55 7.6 L14.95 11.45 14.8 11.85 11.8 9.9 11.65 9.25 11.5 9.8 11.35 9.85 11.4 9.8 11.25 9.9 11.1 10.25 10.8 10.5 10.75 10.4 9.85 10.95 Q10.0 9.8 10.25 9.65 10.5 9.5 10.4 8.85 L10.35 8.55 10.2 8.0 9.8 7.15 9.05 6.5 Q8.75 6.1 9.05 4.85 L9.85 4.85 10.2 4.8 10.9 4.65 Q11.15 3.45 10.65 2.8 L10.5 2.6 Q10.15 2.25 10.0 1.5 L11.1 1.3 12.0 1.1 12.45 3.85 12.75 3.85 M-9.8 12.45 L-10.85 14.95 -12.05 16.6 -12.5 16.9 -12.65 12.5 -12.3 12.0 -11.6 10.7 -11.6 10.65 Q-10.9 8.9 -12.0 7.45 L-11.5 6.35 -11.7 5.55 Q-12.3 3.75 -14.35 3.3 L-14.4 2.3 -11.25 3.1 -10.25 2.4 -9.4 1.75 Q-9.2 3.35 -9.85 4.75 L-10.25 5.4 Q-10.6 5.9 -10.55 6.65 L-10.25 8.75 -10.2 9.4 -10.2 9.75 Q-9.75 10.45 -9.7 11.2 L-9.75 12.1 -9.8 12.45 M-6.15 -6.05 L-6.1 -6.0 Q-5.6 -5.4 -5.1 -5.4 -4.5 -5.4 -3.0 -6.15 -1.5 -6.9 -0.5 -6.9 L2.1 -6.4 Q2.85 -6.4 3.3 -7.1 L4.0 -8.15 4.0 -8.4 Q4.2 -6.7 4.45 -6.5 L6.0 -6.4 7.2 -6.65 8.35 -6.9 Q9.0 -6.9 9.5 -5.95 L9.65 -5.7 Q9.2 -5.35 9.15 -4.55 L9.0 -4.4 8.75 -4.7 Q1.85 -6.65 -0.9 -4.9 -2.35 -4.0 -3.25 -2.15 -3.55 -3.35 -4.45 -3.95 L-5.65 -4.4 Q-6.25 -4.4 -6.05 -4.2 L-6.25 -2.75 Q-7.3 -2.55 -7.3 -1.0 L-7.0 -0.05 Q-6.65 0.5 -5.9 0.6 L-5.8 1.95 -6.0 2.45 -6.5 2.85 Q-6.8 2.2 -7.95 1.0 L-8.2 0.75 -8.5 0.45 -8.4 0.25 -7.95 -0.4 Q-7.3 -1.55 -7.1 -3.05 L-7.0 -4.55 -7.0 -7.15 -6.15 -6.05" fill="#73667c" fill-rule="evenodd" stroke="none"/>
    </g>
  </defs>
</svg>
