<?xml version="1.0" encoding="UTF-8" standalone="no"?>
<svg xmlns:ffdec="https://www.free-decompiler.com/flash" xmlns:xlink="http://www.w3.org/1999/xlink" ffdec:objectType="frame" height="47.65px" width="23.95px" xmlns="http://www.w3.org/2000/svg">
  <g transform="matrix(1.0, 0.0, 0.0, 1.0, 8.25, 5.75)">
    <use ffdec:characterId="2228" ffdec:characterName="game_fla.lowerleg2_382" height="47.65" id="lowerLeg2" transform="matrix(1.0, 0.0, 0.0, 1.0, -8.25, -5.75)" width="23.95" xlink:href="#sprite0"/>
  </g>
  <defs>
    <g id="sprite0" transform="matrix(1.0, 0.0, 0.0, 1.0, 7.5, 23.35)">
      <use ffdec:characterId="2225" height="40.5" transform="matrix(1.0, 0.0, 0.0, 1.0, -5.65, -22.75)" width="11.55" xlink:href="#shape0"/>
      <use ffdec:characterId="2226" height="14.55" transform="matrix(1.0, 0.0, 0.0, 1.0, -7.5, 9.75)" width="23.95" xlink:href="#shape1"/>
      <use ffdec:characterId="1081" height="100.0" id="shape" transform="matrix(0.11, 0.0, 0.0, 0.45, -5.5, -22.5014)" width="100.0" xlink:href="#sprite1"/>
    </g>
    <g id="shape0" transform="matrix(1.0, 0.0, 0.0, 1.0, 5.65, 22.75)">
      <path d="M-4.5 4.0 L-4.5 3.95 Q-5.15 -1.45 -5.0 -2.9 -4.9 -4.3 -5.2 -5.9 -5.9 -10.3 -5.5 -14.4 L-5.5 -15.55 Q-5.1 -20.05 -0.9 -22.6 L-0.25 -22.7 Q3.4 -23.3 5.9 -17.45 5.8 -13.5 5.3 -8.85 4.95 -0.65 4.3 4.0 L3.0 4.0 2.95 4.0 3.95 -7.25 Q2.9 -1.05 1.65 4.0 L-4.5 4.0" fill="#e2b181" fill-rule="evenodd" stroke="none"/>
      <path d="M1.65 4.0 Q2.9 -1.05 3.95 -7.25 L2.95 4.0 1.7 4.0 1.65 4.0" fill="#d5a675" fill-rule="evenodd" stroke="none"/>
      <path d="M4.3 4.0 L4.3 4.05 4.25 4.15 Q3.55 8.8 3.5 16.4 L1.85 16.4 3.0 4.0 4.3 4.0 M-2.95 17.25 L-4.7 17.75 -4.65 17.5 -4.65 17.25 -4.6 17.0 -4.6 16.75 -4.55 16.5 -4.25 9.2 Q-4.3 6.3 -4.5 4.0 L1.65 4.0 1.7 4.0 0.6 7.9 -3.05 17.2 -2.95 17.25" fill="#e1e1e1" fill-rule="evenodd" stroke="none"/>
      <path d="M1.85 16.4 L0.25 16.45 0.1 16.45 -2.95 17.25 -3.05 17.2 0.6 7.9 1.7 4.0 2.95 4.0 3.0 4.0 1.85 16.4" fill="#bfbfbf" fill-rule="evenodd" stroke="none"/>
    </g>
    <g id="shape1" transform="matrix(1.0, 0.0, 0.0, 1.0, 7.5, -9.75)">
      <path d="M1.65 9.95 L3.5 10.2 3.7 10.75 4.75 10.4 7.95 10.55 8.1 11.45 7.35 12.9 6.6 13.15 6.0 13.8 7.0 14.9 10.3 16.95 Q10.15 16.9 9.25 17.4 L7.4 18.0 Q6.5 18.0 4.95 16.85 L2.85 15.25 Q1.5 14.5 1.65 12.4 L1.65 9.95 M12.15 18.1 Q12.8 17.95 13.6 18.1 16.75 18.75 16.4 21.0 L16.35 21.55 -7.15 18.95 -7.05 18.5 -2.15 18.95 0.6 19.35 10.1 20.35 Q10.65 18.45 12.15 18.1 M16.25 22.05 L16.2 22.2 15.75 23.25 Q15.55 24.1 14.0 24.25 L6.5 23.6 -0.45 22.6 Q-4.05 22.65 -7.5 21.45 L-7.2 19.45 16.25 22.05 M5.5 10.7 Q4.3 11.1 6.45 12.2 L7.05 11.4 7.15 11.25 7.05 11.1 Q6.35 10.75 5.5 10.7 M5.0 11.85 L4.1 11.7 Q4.6 13.0 5.5 12.25 L5.0 11.85" fill="#ffffff" fill-rule="evenodd" stroke="none"/>
      <path d="M10.3 16.95 L12.15 18.1 Q10.65 18.45 10.1 20.35 L0.6 19.35 -2.15 18.95 -7.05 18.5 -6.65 16.5 Q-6.05 13.25 -4.8 11.1 -4.5 10.7 -2.55 10.25 L0.6 9.75 1.65 9.95 1.65 12.4 Q1.5 14.5 2.85 15.25 L4.95 16.85 Q6.5 18.0 7.4 18.0 L9.25 17.4 Q10.15 16.9 10.3 16.95" fill="#d21b15" fill-rule="evenodd" stroke="none"/>
      <path d="M16.35 21.55 L16.25 22.05 -7.2 19.45 -7.15 18.95 16.35 21.55" fill="#333333" fill-rule="evenodd" stroke="none"/>
    </g>
    <g id="sprite1" transform="matrix(1.0, 0.0, 0.0, 1.0, 50.0, 50.0)">
      <use ffdec:characterId="1080" height="100.0" transform="matrix(1.0, 0.0, 0.0, 1.0, -50.0, -50.0)" width="100.0" xlink:href="#shape2"/>
    </g>
    <g id="shape2" transform="matrix(1.0, 0.0, 0.0, 1.0, 50.0, 50.0)">
      <path d="M50.0 50.0 L-50.0 50.0 -50.0 -50.0 50.0 -50.0 50.0 50.0 Z" fill="none" stroke="#9900ff" stroke-linecap="round" stroke-linejoin="round" stroke-width="0.05"/>
    </g>
  </defs>
</svg>
