<?xml version="1.0" encoding="UTF-8" standalone="no"?>
<svg xmlns:ffdec="https://www.free-decompiler.com/flash" xmlns:xlink="http://www.w3.org/1999/xlink" ffdec:objectType="frame" height="50.0px" width="50.0px" xmlns="http://www.w3.org/2000/svg">
  <g transform="matrix(1.0, 0.0, 0.0, 1.0, 0.0, 50.0)">
    <use ffdec:characterId="478" height="50.0" transform="matrix(1.0, 0.0, 0.0, 1.0, 0.0, -50.0)" width="50.0" xlink:href="#shape0"/>
  </g>
  <defs>
    <g id="shape0" transform="matrix(1.0, 0.0, 0.0, 1.0, 0.0, 50.0)">
      <path d="M50.0 0.0 L41.05 0.0 7.95 0.0 0.0 0.0 0.0 -12.45 0.0 -37.55 0.0 -50.0 7.95 -50.0 41.05 -50.0 50.0 -50.0 50.0 -37.55 50.0 -12.45 50.0 0.0" fill="#fd8181" fill-rule="evenodd" stroke="none"/>
      <path d="M0.0 0.0 L0.0 -12.45 0.0 -37.55 0.0 -50.0 5.0 -47.0 5.0 -37.55 5.0 -12.45 5.0 -7.0 0.0 0.0 M50.0 -50.0 L50.0 -37.55 50.0 -12.45 50.0 0.0 45.0 -7.0 45.0 -12.45 45.0 -37.55 45.0 -47.0 50.0 -50.0" fill="#000000" fill-opacity="0.49803922" fill-rule="evenodd" stroke="none"/>
      <path d="M5.0 -47.0 L0.0 -50.0 7.95 -50.0 41.05 -50.0 50.0 -50.0 45.0 -47.0 41.05 -47.0 7.95 -47.0 5.0 -47.0" fill="#000000" fill-opacity="0.2509804" fill-rule="evenodd" stroke="none"/>
      <path d="M0.0 0.0 L5.0 -7.0 7.95 -7.0 41.05 -7.0 45.0 -7.0 50.0 0.0 41.05 0.0 7.95 0.0 0.0 0.0" fill="#000000" fill-opacity="0.7058824" fill-rule="evenodd" stroke="none"/>
    </g>
  </defs>
</svg>
