<?xml version="1.0" encoding="UTF-8" standalone="no"?>
<svg xmlns:ffdec="https://www.free-decompiler.com/flash" xmlns:xlink="http://www.w3.org/1999/xlink" ffdec:objectType="frame" height="39.1px" width="36.4px" xmlns="http://www.w3.org/2000/svg">
  <g transform="matrix(1.0, 0.0, 0.0, 1.0, 19.75, 19.9)">
    <use ffdec:characterId="1108" height="39.1" transform="matrix(1.0, 0.0, 0.0, 1.0, -19.75, -19.9)" width="36.4" xlink:href="#shape0"/>
  </g>
  <defs>
    <g id="shape0" transform="matrix(1.0, 0.0, 0.0, 1.0, 19.75, 19.9)">
      <path d="M7.1 -17.55 L4.15 -16.25 8.75 -16.25 14.1 -14.65 15.25 -14.25 15.75 -13.9 15.35 -13.5 16.55 -12.75 15.5 -13.1 12.45 -13.65 9.0 -14.4 6.3 -14.6 4.7 -14.7 4.7 -14.9 5.7 -14.9 6.45 -14.9 7.3 -15.0 2.3 -16.35 4.45 -17.1 -0.3 -17.4 -0.05 -17.45 0.0 -17.45 -0.55 -17.75 -0.4 -17.95 1.2 -18.8 1.9 -19.05 4.8 -19.55 7.65 -19.6 8.75 -19.15 3.45 -18.65 1.7 -18.15 1.15 -17.8 4.95 -18.3 10.8 -17.9 6.85 -17.7 6.65 -17.7 7.1 -17.55 M-15.15 5.05 L-16.6 4.6 -16.6 4.5 Q-16.05 4.4 -15.3 3.35 L-15.3 3.05 -15.55 3.1 -16.3 3.35 -16.75 3.35 -16.75 3.25 -16.45 2.9 -19.75 1.5 -19.4 1.55 -18.15 1.6 Q-16.4 1.2 -16.0 -0.45 L-15.75 -0.65 Q-14.25 -1.8 -14.15 -3.5 -15.35 -2.3 -17.4 -1.65 L-18.2 -1.4 -18.5 -1.3 -18.1 -1.55 Q-17.25 -2.2 -16.75 -3.25 L-17.45 -3.35 -16.15 -4.95 -18.5 -4.25 -17.9 -4.55 Q-16.0 -5.55 -15.45 -7.4 L-15.45 -8.95 -15.3 -10.85 -15.15 -11.6 -14.7 -13.55 Q-13.8 -13.75 -11.3 -15.35 L-12.05 -14.8 -11.65 -15.05 -12.35 -14.1 -10.15 -14.85 -13.05 -12.65 -13.85 -11.75 Q-11.6 -12.6 -9.8 -14.05 L-10.4 -12.7 Q-8.95 -13.65 -7.25 -14.3 L-6.15 -14.75 -8.8 -12.25 Q-6.9 -13.4 -4.8 -14.05 L-2.25 -14.45 -0.3 -14.5 -0.05 -14.25 0.2 -14.2 0.4 -14.1 1.05 -13.25 0.0 -13.25 Q-3.05 -11.85 -4.55 -11.2 L-6.65 -10.35 -2.0 -11.3 1.15 -11.4 1.15 -11.35 0.45 -9.25 0.25 -8.6 0.05 -8.0 Q-0.8 -7.15 -2.75 -6.6 L-3.3 -6.5 -4.4 -6.2 -5.5 -6.2 Q-6.45 -6.1 -7.05 -4.7 L-7.05 -4.6 -7.15 -4.35 -7.35 -4.2 -10.25 -1.7 Q-12.5 0.7 -15.0 1.0 L-12.85 1.25 Q-11.75 1.25 -10.65 0.25 -9.35 -0.9 -8.0 -1.25 -10.7 0.15 -11.75 2.25 L-12.0 2.25 Q-11.45 2.5 -10.45 2.0 L-9.5 1.25 -9.25 1.25 Q-10.0 2.55 -11.2 3.75 -12.4 5.0 -13.5 5.5 L-12.85 5.6 -12.9 5.65 -14.0 6.75 -13.9 5.5 -13.95 5.2 -14.15 5.2 -15.15 5.05 M-1.25 -18.95 L2.9 -19.9 0.8 -19.0 -2.55 -17.95 -2.45 -18.35 -1.8 -18.7 -1.25 -18.95 M-0.35 -5.15 L-0.05 -4.15 0.45 -1.75 0.55 -0.35 -2.15 -0.1 -2.2 0.15 Q-2.15 -1.05 -2.25 -2.0 L-2.5 -3.35 -2.95 -4.55 -2.95 -4.6 -2.3 -4.7 -1.0 -4.95 -0.8 -5.0 -0.35 -5.15 M5.9 -2.95 L4.65 -3.05 5.5 -3.4 8.4 -4.3 11.45 -5.1 12.75 -4.95 Q13.45 -4.65 13.45 -4.15 L13.3 -3.8 13.2 -3.65 13.05 -3.55 9.75 -3.3 8.2 -3.05 8.05 -3.05 7.55 -3.05 6.25 -2.95 5.9 -2.95 M-3.95 -15.7 Q-5.7 -14.85 -7.65 -14.8 L-8.35 -14.8 -6.35 -15.65 -5.85 -15.7 -3.95 -15.7 M-4.55 -7.65 L-2.65 -9.4 Q-4.05 -8.55 -6.05 -7.95 L-7.05 -7.6 Q-10.25 -6.4 -10.7 -4.3 -10.15 -4.75 -6.05 -6.8 -5.25 -7.2 -4.55 -7.65" fill="#593c1e" fill-rule="evenodd" stroke="none"/>
      <path d="M12.45 -13.65 Q13.45 -12.0 13.75 -9.8 L14.05 -8.4 14.5 -7.15 14.3 -6.75 14.35 -6.25 14.35 -5.65 14.55 -4.65 14.5 -3.95 14.05 -3.65 13.95 -2.25 14.1 -1.5 14.15 -1.4 15.2 0.7 16.3 3.05 16.65 4.0 16.55 4.45 16.35 4.75 16.35 4.65 16.15 4.4 15.6 4.3 14.95 4.3 14.45 4.45 12.55 4.75 12.45 4.75 12.3 5.0 12.35 5.1 Q11.9 5.25 11.9 5.0 11.9 4.4 12.45 2.85 L13.0 1.45 12.95 1.35 Q12.45 1.8 11.65 3.3 11.4 3.7 11.4 5.4 L10.7 7.1 10.35 7.4 8.25 8.8 6.95 9.4 6.6 9.5 Q5.5 8.75 4.8 8.45 L3.55 7.85 3.15 7.4 2.85 6.9 2.6 6.2 2.2 3.55 Q1.95 1.25 0.8 0.45 L0.55 -0.35 0.45 -1.75 -0.05 -4.15 -0.35 -5.15 -0.45 -5.95 0.05 -8.0 0.25 -8.6 0.45 -9.25 1.15 -11.35 1.15 -11.4 1.3 -12.0 Q1.3 -12.8 0.95 -13.2 L1.05 -13.25 0.4 -14.1 0.2 -14.2 -0.05 -14.25 -0.3 -14.5 -0.95 -14.8 Q-2.5 -15.45 -3.95 -15.7 L-5.85 -15.7 -6.35 -15.65 -10.15 -14.85 -12.35 -14.1 -11.65 -15.05 -11.3 -15.35 -10.6 -16.05 Q-10.1 -16.65 -6.25 -17.95 -3.55 -18.85 -1.25 -18.95 L-1.8 -18.7 -2.45 -18.35 -2.55 -17.95 0.8 -19.0 1.35 -19.05 1.9 -19.05 1.2 -18.8 -0.4 -17.95 -0.55 -17.75 0.0 -17.45 -0.05 -17.45 -0.3 -17.4 4.45 -17.1 2.3 -16.35 7.3 -15.0 6.45 -14.9 5.7 -14.9 4.7 -14.9 4.7 -14.7 6.3 -14.6 9.0 -14.4 12.45 -13.65 M14.55 8.1 L13.8 8.6 12.65 9.4 12.55 9.5 12.3 9.75 Q11.85 10.1 11.75 10.75 11.65 11.4 12.15 11.7 12.6 11.95 12.6 12.8 12.3 13.45 11.6 13.7 L11.35 13.75 11.3 13.75 Q10.85 13.85 10.65 14.25 L10.65 14.3 10.4 14.8 10.45 15.25 10.45 15.3 10.45 15.95 Q9.5 14.9 9.3 13.95 9.1 12.95 10.35 10.6 L10.7 10.1 Q12.15 8.2 13.95 7.15 L14.0 7.1 14.05 7.1 14.05 7.15 14.15 7.25 14.25 7.35 14.4 7.6 14.55 8.1 M7.05 18.3 L6.8 18.25 Q6.35 18.6 5.55 18.85 L5.25 18.95 5.15 18.95 3.15 19.2 -14.65 10.8 Q-16.05 9.85 -16.05 8.5 -16.05 6.4 -15.6 5.55 L-15.15 5.05 -14.15 5.2 -13.95 5.2 -13.9 5.5 -14.0 6.75 -12.9 5.65 -12.85 5.6 -12.8 5.6 -12.05 5.45 -12.0 5.45 -11.15 5.4 -9.6 4.7 -8.7 4.55 Q-8.2 4.4 -8.35 3.8 L-8.0 3.7 -6.9 3.3 Q-6.25 4.0 -4.9 4.0 L-4.2 3.95 Q-4.15 4.45 -4.55 5.0 -5.5 6.35 -5.3 6.45 -4.7 6.7 -4.45 7.3 L-4.2 8.3 Q-3.95 9.1 -2.9 9.65 L-2.45 9.9 -2.15 10.0 -0.45 10.7 0.05 10.7 -0.6 10.0 -1.3 9.45 -1.75 8.8 -1.85 8.4 -2.05 7.2 Q-2.5 5.5 -2.7 5.2 L-3.55 4.6 -3.6 4.6 -3.9 3.9 -3.9 3.85 -3.1 2.85 -3.55 2.95 -3.8 3.05 -4.55 3.1 -5.45 3.0 -6.05 2.25 -6.5 1.5 -6.5 1.45 -6.65 0.6 Q-6.8 -0.35 -7.05 -0.45 -7.35 -0.55 -7.5 -1.9 -7.65 -3.15 -7.15 -4.35 L-7.05 -4.6 -7.05 -4.7 Q-6.45 -6.1 -5.5 -6.2 L-4.4 -6.2 -4.05 -6.1 Q-3.55 -5.95 -2.95 -4.6 L-2.95 -4.55 -2.5 -3.35 -2.25 -2.0 Q-2.15 -1.05 -2.2 0.15 L-2.1 0.4 Q-2.0 0.55 -2.2 1.1 -2.35 1.45 -1.9 3.2 L-1.95 5.4 Q-1.95 6.5 -1.3 7.85 L-1.2 8.05 -0.25 9.3 -0.25 9.6 Q-0.2 10.35 0.6 11.1 L2.2 12.95 4.0 15.0 5.5 16.45 6.85 18.1 7.05 18.3 M3.45 -18.65 L3.8 -18.6 4.95 -18.3 1.15 -17.8 1.7 -18.15 3.45 -18.65 M6.85 -17.7 L7.05 -17.6 7.1 -17.55 6.65 -17.7 6.85 -17.7 M5.9 -2.95 L6.3 -1.25 6.3 -1.2 6.45 -0.7 6.7 0.2 6.7 0.25 Q6.85 0.55 7.65 0.75 L8.05 0.8 8.7 1.35 Q8.85 1.55 9.1 1.6 L10.35 1.05 10.45 1.0 11.05 0.6 12.0 -0.2 Q12.6 -0.8 12.85 -1.55 L12.9 -1.75 13.2 -3.65 13.3 -3.8 13.45 -4.15 Q13.45 -4.65 12.75 -4.95 L11.45 -5.1 8.4 -4.3 5.5 -3.4 4.65 -3.05 5.9 -2.95 M12.35 5.2 L12.85 5.8 13.15 6.15 12.15 6.35 Q12.45 5.7 12.35 5.2 M-5.2 -4.8 Q-5.95 -4.8 -6.35 -4.15 -6.7 -3.7 -6.65 -3.1 L-6.35 -3.4 -5.15 -3.7 Q-4.1 -3.7 -4.1 -2.95 -4.1 -2.55 -4.65 -2.35 -5.2 -2.2 -5.2 -2.05 L-5.2 -2.0 Q-5.1 -1.8 -4.8 -1.8 L-4.8 -1.7 Q-4.9 -1.75 -5.25 -1.45 L-5.6 -0.85 -4.95 -0.15 -3.95 -0.55 -3.95 -0.3 -4.1 0.1 Q-4.1 0.45 -3.9 0.45 L-3.55 0.2 -3.35 -0.4 Q-3.35 -0.9 -3.75 -1.2 L-4.2 -1.6 -3.95 -2.45 -3.7 -3.45 Q-3.7 -4.2 -4.15 -4.5 L-4.4 -4.65 -5.2 -4.8" fill="#ffcc99" fill-rule="evenodd" stroke="none"/>
      <path d="M16.35 4.75 L15.9 5.15 Q15.3 5.55 14.5 5.55 L14.3 5.55 14.3 5.6 14.25 6.05 14.25 6.15 14.2 6.4 14.35 6.7 14.45 6.9 14.55 7.05 14.7 7.45 14.7 7.6 14.55 8.1 14.4 7.6 14.25 7.35 14.15 7.25 14.05 7.15 14.05 7.1 14.0 7.1 13.15 6.15 12.85 5.8 12.35 5.2 12.35 5.1 12.3 5.0 12.45 4.75 12.55 4.75 14.45 4.45 14.95 4.3 15.6 4.3 16.15 4.4 16.35 4.65 16.35 4.75 M13.2 -3.65 L12.9 -1.75 12.85 -1.55 12.7 -1.55 Q12.0 -1.55 11.55 -1.0 11.1 -0.45 10.35 -0.45 9.9 -0.45 9.4 -0.75 L8.85 -1.05 8.15 -0.8 7.95 -0.7 7.9 -0.65 6.45 -0.7 6.3 -1.2 6.3 -1.25 6.95 -1.9 5.9 -2.95 6.25 -2.95 7.55 -3.05 8.05 -3.05 8.2 -3.05 9.75 -3.3 13.05 -3.55 13.2 -3.65 M9.95 -1.3 Q10.25 -0.55 11.15 -1.05 L11.6 -1.65 11.75 -2.0 11.65 -2.2 11.25 -2.65 10.55 -2.7 Q9.6 -2.4 9.1 -1.75 L8.75 -1.2 8.75 -1.05 9.95 -1.3 M-6.5 1.5 L-6.05 2.25 -5.45 3.0 -4.55 3.1 -3.8 3.05 -3.55 2.95 -3.1 2.85 -3.9 3.85 -3.9 3.9 -4.2 3.95 -4.9 4.0 Q-6.25 4.0 -6.9 3.3 L-6.6 2.85 Q-6.7 2.6 -6.45 2.55 L-6.45 2.3 -6.5 1.5 M-5.2 -4.8 L-4.4 -4.65 -4.15 -4.5 Q-3.7 -4.2 -3.7 -3.45 L-3.95 -2.45 -4.2 -1.6 -3.75 -1.2 Q-3.35 -0.9 -3.35 -0.4 L-3.55 0.2 -3.9 0.45 Q-4.1 0.45 -4.1 0.1 L-3.95 -0.3 -3.95 -0.55 -4.95 -0.15 -5.6 -0.85 -5.25 -1.45 Q-4.9 -1.75 -4.8 -1.7 L-4.8 -1.8 Q-5.1 -1.8 -5.2 -2.0 L-5.2 -2.05 Q-5.2 -2.2 -4.65 -2.35 -4.1 -2.55 -4.1 -2.95 -4.1 -3.7 -5.15 -3.7 L-6.35 -3.4 -6.65 -3.1 Q-6.7 -3.7 -6.35 -4.15 -5.95 -4.8 -5.2 -4.8" fill="#c79b68" fill-rule="evenodd" stroke="none"/>
      <path d="M10.7 7.1 L11.4 5.4 Q11.4 3.7 11.65 3.3 12.45 1.8 12.95 1.35 L13.0 1.45 12.45 2.85 Q11.9 4.4 11.9 5.0 11.9 5.25 12.35 5.1 L12.35 5.2 Q12.45 5.7 12.15 6.35 11.4 6.6 10.8 7.0 L10.7 7.1 M6.3 -1.25 L5.9 -2.95 6.95 -1.9 6.3 -1.25 M12.85 -1.55 Q12.6 -0.8 12.0 -0.2 L11.05 0.6 10.45 1.0 10.35 1.05 9.1 1.6 Q8.85 1.55 8.7 1.35 L8.05 0.8 7.65 0.75 Q6.85 0.55 6.7 0.25 L6.7 0.2 6.45 -0.7 7.9 -0.65 7.95 -0.7 8.15 -0.8 8.85 -1.05 9.4 -0.75 Q9.9 -0.45 10.35 -0.45 11.1 -0.45 11.55 -1.0 12.0 -1.55 12.7 -1.55 L12.85 -1.55 M-3.9 3.9 L-3.6 4.6 -3.55 4.6 -2.7 5.2 Q-2.5 5.5 -2.05 7.2 L-1.85 8.4 -1.75 8.8 -1.3 9.45 -0.6 10.0 0.05 10.7 -0.45 10.7 -2.15 10.0 -2.45 9.9 -2.9 9.65 Q-3.95 9.1 -4.2 8.3 L-4.45 7.3 Q-4.7 6.7 -5.3 6.45 -5.5 6.35 -4.55 5.0 -4.15 4.45 -4.2 3.95 L-3.9 3.9" fill="#ebbb98" fill-rule="evenodd" stroke="none"/>
      <path d="M9.95 -1.3 L8.75 -1.05 8.75 -1.2 9.1 -1.75 Q9.6 -2.4 10.55 -2.7 L11.25 -2.65 11.65 -2.2 11.75 -2.0 11.6 -1.65 11.15 -1.05 Q10.25 -0.55 9.95 -1.3" fill="#000000" fill-rule="evenodd" stroke="none"/>
      <path d="M10.45 15.95 L10.3 16.45 9.85 17.15 9.15 17.8 8.7 18.15 8.05 18.4 7.6 18.4 7.5 18.4 7.05 18.3 6.85 18.1 5.5 16.45 4.0 15.0 2.2 12.95 0.6 11.1 Q-0.2 10.35 -0.25 9.6 L-0.25 9.3 -1.2 8.05 -1.3 7.85 Q-1.95 6.5 -1.95 5.4 L-1.9 3.2 Q-2.35 1.45 -2.2 1.1 -2.0 0.55 -2.1 0.4 L-2.2 0.15 -2.15 -0.1 0.55 -0.35 0.8 0.45 Q1.95 1.25 2.2 3.55 L2.6 6.2 2.85 6.9 3.15 7.4 3.55 7.85 4.8 8.45 Q5.5 8.75 6.6 9.5 L6.95 9.4 8.25 8.8 10.35 7.4 10.7 7.1 10.8 7.0 Q11.4 6.6 12.15 6.35 L13.15 6.15 14.0 7.1 13.95 7.15 Q12.15 8.2 10.7 10.1 L10.35 10.6 Q9.1 12.95 9.3 13.95 9.5 14.9 10.45 15.95" fill="#dbb790" fill-rule="evenodd" stroke="none"/>
      <path d="M-16.0 -0.45 L-16.0 -0.5 -19.75 -0.75 -18.8 -1.2 -18.5 -1.3 -18.2 -1.4 -17.4 -1.65 Q-15.35 -2.3 -14.15 -3.5 -14.25 -1.8 -15.75 -0.65 L-16.0 -0.45 M0.05 -8.0 L-0.45 -5.95 -0.35 -5.15 -0.8 -5.0 -1.0 -4.95 -2.3 -4.7 -2.95 -4.6 Q-3.55 -5.95 -4.05 -6.1 L-4.4 -6.2 -3.3 -6.5 -2.75 -6.6 Q-0.8 -7.15 0.05 -8.0 M-7.15 -4.35 Q-7.65 -3.15 -7.5 -1.9 -7.35 -0.55 -7.05 -0.45 -6.8 -0.35 -6.65 0.6 L-6.5 1.45 -6.5 1.5 -6.45 2.3 -6.45 2.55 Q-6.7 2.6 -6.6 2.85 L-6.9 3.3 -8.0 3.7 -8.35 3.8 Q-8.2 4.4 -8.7 4.55 L-9.6 4.7 -11.15 5.4 -12.0 5.45 -12.05 5.45 -12.8 5.6 -12.85 5.6 -13.5 5.5 Q-12.4 5.0 -11.2 3.75 -10.0 2.55 -9.25 1.25 L-9.5 1.25 -10.45 2.0 Q-11.45 2.5 -12.0 2.25 L-11.75 2.25 Q-10.7 0.15 -8.0 -1.25 -9.35 -0.9 -10.65 0.25 -11.75 1.25 -12.85 1.25 L-15.0 1.0 Q-12.5 0.7 -10.25 -1.7 L-7.35 -4.2 -7.15 -4.35 M-4.55 -7.65 Q-5.25 -7.2 -6.05 -6.8 -10.15 -4.75 -10.7 -4.3 -10.25 -6.4 -7.05 -7.6 L-6.05 -7.95 Q-4.05 -8.55 -2.65 -9.4 L-4.55 -7.65" fill="#46321e" fill-rule="evenodd" stroke="none"/>
      <path d="M7.1 -17.55 L7.65 -17.45 8.55 -17.2 Q10.55 -17.4 12.45 -16.5 L14.2 -15.6 13.4 -15.5 15.25 -14.25 14.1 -14.65 8.75 -16.25 4.15 -16.25 7.1 -17.55 M1.05 -13.25 L0.95 -13.2 Q1.3 -12.8 1.3 -12.0 L1.15 -11.4 -2.0 -11.3 -6.65 -10.35 -4.55 -11.2 Q-3.05 -11.85 0.0 -13.25 L1.05 -13.25 M-0.3 -14.5 L-2.25 -14.45 -4.8 -14.05 Q-6.9 -13.4 -8.8 -12.25 L-6.15 -14.75 -7.25 -14.3 Q-8.95 -13.65 -10.4 -12.7 L-9.8 -14.05 Q-11.6 -12.6 -13.85 -11.75 L-13.05 -12.65 -10.15 -14.85 -6.35 -15.65 -8.35 -14.8 -7.65 -14.8 Q-5.7 -14.85 -3.95 -15.7 -2.5 -15.45 -0.95 -14.8 L-0.3 -14.5" fill="#794f24" fill-rule="evenodd" stroke="none"/>
    </g>
  </defs>
</svg>
