<?xml version="1.0" encoding="UTF-8" standalone="no"?>
<svg xmlns:ffdec="https://www.free-decompiler.com/flash" xmlns:xlink="http://www.w3.org/1999/xlink" ffdec:objectType="frame" height="23.0px" width="722.9px" xmlns="http://www.w3.org/2000/svg">
  <g transform="matrix(1.0, 0.0, 0.0, 1.0, 0.5, 0.5)">
    <use ffdec:characterId="610" height="100.0" transform="matrix(7.22, 0.0, 0.0, 0.22, 0.0, 0.0)" width="100.0" xlink:href="#shape0"/>
    <use ffdec:characterId="3013" height="23.0" transform="matrix(1.0, 0.0, 0.0, 1.0, -0.5, -0.5)" width="722.9" xlink:href="#shape1"/>
  </g>
  <defs>
    <g id="shape0" transform="matrix(1.0, 0.0, 0.0, 1.0, 0.0, 0.0)">
      <path d="M100.0 0.0 L100.0 100.0 0.0 100.0 0.0 0.0 100.0 0.0" fill="#ffffff" fill-rule="evenodd" stroke="none"/>
    </g>
    <g id="shape1" transform="matrix(1.0, 0.0, 0.0, 1.0, 0.5, 0.5)">
      <path d="M721.9 0.0 L642.0 0.0 M542.0 22.0 L542.0 0.0 M250.0 22.0 L250.0 0.0" fill="none" stroke="#cccccc" stroke-linecap="butt" stroke-linejoin="miter-clip" stroke-miterlimit="3.0" stroke-width="1.0"/>
      <path d="M642.0 0.0 L642.0 22.0 M442.0 0.0 L442.0 22.0 M420.0 0.0 L420.0 22.0 M250.0 0.0 L0.0 0.0" fill="none" stroke="#cccccc" stroke-linecap="round" stroke-linejoin="miter-clip" stroke-miterlimit="3.0" stroke-width="1.0"/>
      <path d="M542.0 0.0 L442.0 0.0 420.0 0.0 250.0 0.0 M542.0 0.0 L642.0 0.0" fill="none" stroke="#cccccc" stroke-linecap="round" stroke-linejoin="miter-clip" stroke-miterlimit="3.0" stroke-width="1.0"/>
    </g>
  </defs>
</svg>
