<?xml version="1.0" encoding="UTF-8" standalone="no"?>
<svg xmlns:ffdec="https://www.free-decompiler.com/flash" xmlns:xlink="http://www.w3.org/1999/xlink" ffdec:objectType="frame" height="67.1px" width="21.25px" xmlns="http://www.w3.org/2000/svg">
  <g transform="matrix(1.0, 0.0, 0.0, 1.0, 13.1, 31.7)">
    <use ffdec:characterId="1461" height="48.25" transform="matrix(1.0, 0.0, 0.0, 1.0, -9.15, -31.7)" width="16.35" xlink:href="#shape0"/>
    <use ffdec:characterId="1464" ffdec:characterName="game_fla.hand2_336" height="21.85" id="hand" transform="matrix(1.0, 0.0, 0.0, 1.0, -7.7, 13.55)" width="15.6" xlink:href="#sprite0"/>
    <use ffdec:characterId="1081" height="100.0" id="shape" transform="matrix(0.15, 0.0, 0.0, 0.6, -7.4997, -29.9995)" width="100.0" xlink:href="#sprite1"/>
  </g>
  <defs>
    <g id="shape0" transform="matrix(1.0, 0.0, 0.0, 1.0, 9.15, 31.7)">
      <path d="M-3.75 -25.1 Q-1.35 -30.8 1.55 -29.05 L5.45 -26.7 Q6.4 -26.05 6.75 -24.8 7.2 -23.45 7.2 -21.55 L7.15 -20.05 1.4 -20.65 -3.55 -20.3 -3.75 -25.1 M6.95 -16.7 L6.9 -16.55 5.3 2.4 5.3 4.4 6.15 12.35 6.55 14.1 Q4.35 16.8 3.5 16.5 1.25 12.4 0.65 10.15 L0.6 10.05 Q0.2 8.0 -0.05 5.8 -0.6 1.0 -0.3 -3.75 -0.55 -5.0 -2.1 -6.2 L-2.25 -6.3 -3.1 -7.65 -5.1 -12.1 -5.75 -14.4 -6.1 -16.0 -5.95 -14.1 -5.75 -12.3 -4.15 -3.0 Q-3.35 0.2 -3.0 4.0 L-2.55 16.05 -3.45 14.1 -3.5 10.25 -3.5 10.2 -4.2 3.65 Q-4.35 0.15 -5.45 -3.4 L-6.4 -6.7 -6.75 -10.05 -7.05 -12.75 -7.2 -15.4 -7.25 -17.05 -4.95 -17.1 0.45 -17.15 6.95 -16.7" fill="#ffcc99" fill-rule="evenodd" stroke="none"/>
      <path d="M3.5 16.5 L-2.55 16.05 -3.0 4.0 Q-3.35 0.2 -4.15 -3.0 L-5.75 -12.3 -5.95 -14.1 -6.1 -16.0 -5.75 -14.4 -5.1 -12.1 -3.1 -7.65 -2.25 -6.3 -2.1 -6.2 Q-0.55 -5.0 -0.3 -3.75 -0.6 1.0 -0.05 5.8 0.2 8.0 0.6 10.05 L0.65 10.15 Q1.25 12.4 3.5 16.5" fill="#ebbb98" fill-rule="evenodd" stroke="none"/>
      <path d="M-3.75 -25.1 L-3.55 -20.3 1.4 -20.65 7.15 -20.05 7.15 -19.85 7.2 -18.55 7.1 -16.7 6.95 -16.7 0.45 -17.15 -4.95 -17.1 -7.25 -17.05 -7.35 -17.05 Q-7.6 -17.05 -7.7 -18.05 L-7.3 -17.95 -6.95 -17.9 -6.25 -18.0 -6.15 -18.3 -6.15 -18.8 -6.2 -21.55 -6.25 -22.55 -6.5 -27.05 -6.55 -27.5 -6.65 -28.05 Q-6.95 -30.25 -7.45 -30.6 L-7.5 -30.6 Q-6.55 -31.55 -4.0 -31.7 L-3.75 -25.1" fill="#333333" fill-rule="evenodd" stroke="none"/>
      <path d="M-8.85 -29.25 Q-8.5 -30.65 -7.65 -30.65 L-7.5 -30.6 -7.45 -30.6 Q-6.95 -30.25 -6.65 -28.05 L-6.55 -27.5 -6.7 -27.9 -6.95 -28.5 Q-7.5 -29.6 -8.05 -29.6 -8.55 -29.6 -8.85 -29.25" fill="#f3f3f3" fill-rule="evenodd" stroke="none"/>
      <path d="M-9.15 -25.1 L-9.15 -26.05 -9.0 -28.45 -8.85 -29.25 Q-8.55 -29.6 -8.05 -29.6 -7.5 -29.6 -6.95 -28.5 L-6.7 -27.9 -6.55 -27.5 -6.5 -27.05 -6.25 -22.55 -6.55 -24.3 -7.05 -25.95 Q-7.45 -26.75 -7.95 -26.75 -8.6 -26.75 -9.0 -25.6 L-9.15 -25.1" fill="#e2e2e2" fill-rule="evenodd" stroke="none"/>
      <path d="M-7.7 -18.05 L-7.7 -18.25 Q-9.0 -20.45 -9.15 -25.1 L-9.0 -25.6 Q-8.6 -26.75 -7.95 -26.75 -7.45 -26.75 -7.05 -25.95 L-6.55 -24.3 -6.25 -22.55 -6.2 -21.55 -6.15 -18.8 -6.15 -18.3 -6.25 -18.0 -6.95 -17.9 -7.3 -17.95 -7.7 -18.05" fill="#d4d4d4" fill-rule="evenodd" stroke="none"/>
    </g>
    <g id="sprite0" transform="matrix(1.0, 0.0, 0.0, 1.0, 8.8, 7.45)">
      <use ffdec:characterId="1462" height="14.95" transform="matrix(1.0, 0.0, 0.0, 1.0, -6.75, -7.45)" width="13.55" xlink:href="#shape1"/>
    </g>
    <g id="shape1" transform="matrix(1.0, 0.0, 0.0, 1.0, 6.75, 7.45)">
      <path d="M0.85 -7.45 L5.35 -7.45 5.65 -6.2 6.25 -3.75 6.4 -3.35 6.45 -3.15 6.45 -3.0 4.9 2.05 4.0 4.55 -1.6 2.8 -2.45 2.45 Q-1.4 4.45 0.9 4.55 L0.25 4.85 -6.65 3.6 -6.75 3.1 -6.45 0.85 -6.3 0.05 -5.55 -0.6 -0.3 -1.0 -0.25 -1.0 -0.25 -1.05 -0.75 -3.5 0.55 -4.75 Q1.1 -5.35 2.85 -5.15 L2.15 -6.45 1.7 -6.55 1.35 -6.6 0.85 -7.45 M-3.75 -7.45 L-3.75 -6.75 -4.15 -4.95 -4.65 -4.85 -4.65 -6.05 -4.6 -6.6 -4.55 -6.7 -4.5 -7.45 -3.75 -7.45 M-5.1 -2.4 L-5.1 -2.2 -5.15 -2.3 -5.1 -2.4" fill="#ffcc99" fill-rule="evenodd" stroke="none"/>
      <path d="M0.85 -7.45 L1.35 -6.6 1.7 -6.55 2.15 -6.45 2.85 -5.15 Q1.1 -5.35 0.55 -4.75 L-0.75 -3.5 -0.25 -1.05 -0.3 -1.0 -5.55 -0.6 -5.1 -2.2 -5.1 -2.4 -4.65 -4.85 -4.15 -4.95 -3.75 -6.75 -3.75 -7.45 0.85 -7.45" fill="#ebbb98" fill-rule="evenodd" stroke="none"/>
      <path d="M-6.65 3.6 L0.25 4.85 0.9 4.55 Q-1.4 4.45 -2.45 2.45 L-1.6 2.8 4.0 4.55 4.9 2.05 6.45 -3.0 6.8 -0.1 Q6.9 2.8 6.0 5.6 L5.6 5.95 5.35 6.5 Q2.85 8.15 0.3 7.05 L-1.5 7.2 Q-4.45 7.25 -6.25 5.15 L-6.65 4.65 -6.7 3.6 -6.65 3.6" fill="#e2b181" fill-rule="evenodd" stroke="none"/>
    </g>
    <g id="sprite1" transform="matrix(1.0, 0.0, 0.0, 1.0, 50.0, 50.0)">
      <use ffdec:characterId="1080" height="100.0" transform="matrix(1.0, 0.0, 0.0, 1.0, -50.0, -50.0)" width="100.0" xlink:href="#shape2"/>
    </g>
    <g id="shape2" transform="matrix(1.0, 0.0, 0.0, 1.0, 50.0, 50.0)">
      <path d="M50.0 50.0 L-50.0 50.0 -50.0 -50.0 50.0 -50.0 50.0 50.0 Z" fill="none" stroke="#9900ff" stroke-linecap="round" stroke-linejoin="round" stroke-width="0.05"/>
    </g>
  </defs>
</svg>
