<?xml version="1.0" encoding="UTF-8" standalone="no"?>
<svg xmlns:ffdec="https://www.free-decompiler.com/flash" xmlns:xlink="http://www.w3.org/1999/xlink" ffdec:objectType="frame" height="59.45px" width="43.3px" xmlns="http://www.w3.org/2000/svg">
  <g transform="matrix(1.0, 0.0, 0.0, 1.0, 21.55, 62.15)">
    <use ffdec:characterId="1231" ffdec:characterName="game_fla.head_818" height="59.45" id="head" transform="matrix(1.0, 0.0, 0.0, 1.0, -21.55, -62.15)" width="43.3" xlink:href="#sprite0"/>
  </g>
  <defs>
    <g id="sprite0" transform="matrix(1.0, 0.0, 0.0, 1.0, 26.0, 38.55)">
      <use ffdec:characterId="1218" height="13.7" transform="matrix(1.0, 0.0, 0.0, 1.0, -7.65, 7.2)" width="10.35" xlink:href="#sprite1"/>
      <use ffdec:characterId="1220" height="25.05" transform="matrix(1.0, 0.0, 0.0, 1.0, -11.35, -12.9)" width="22.6" xlink:href="#sprite2"/>
      <use ffdec:characterId="1111" height="100.0" id="shape" transform="matrix(0.25, 0.0, 0.0, 0.25, -12.5, -12.5)" width="100.0" xlink:href="#sprite3"/>
    </g>
    <g id="sprite1" transform="matrix(1.0, 0.0, 0.0, 1.0, 3.35, 7.95)">
      <use ffdec:characterId="1217" height="13.7" transform="matrix(1.0, 0.0, 0.0, 1.0, -3.35, -7.95)" width="10.35" xlink:href="#shape0"/>
    </g>
    <g id="shape0" transform="matrix(1.0, 0.0, 0.0, 1.0, 3.35, 7.95)">
      <path d="M-0.3 -7.45 L1.4 -5.2 1.65 -5.05 1.5 -5.05 Q3.1 -3.1 4.45 -2.15 L5.35 -1.6 5.25 4.35 5.25 5.75 4.8 4.3 -3.35 2.65 Q-2.25 -0.1 -2.15 -2.95 -2.2 -4.6 -2.5 -5.85 L-2.65 -6.4 -3.05 -7.2 Q-2.3 -7.55 -1.6 -7.95 L-0.3 -7.45" fill="#ffcc99" fill-rule="evenodd" stroke="none"/>
      <path d="M5.35 -1.6 L4.45 -2.15 Q3.1 -3.1 1.5 -5.05 L1.65 -5.05 1.4 -5.2 -0.3 -7.45 7.0 -4.85 5.85 -3.1 5.45 -1.85 5.35 -1.6" fill="#e2b181" fill-rule="evenodd" stroke="none"/>
    </g>
    <g id="sprite2" transform="matrix(1.0, 0.0, 0.0, 1.0, 11.9, 13.85)">
      <use ffdec:characterId="1219" height="25.05" transform="matrix(1.0, 0.0, 0.0, 1.0, -11.9, -13.85)" width="22.6" xlink:href="#shape1"/>
    </g>
    <g id="shape1" transform="matrix(1.0, 0.0, 0.0, 1.0, 11.9, 13.85)">
      <path d="M9.65 -9.5 L8.95 -9.5 6.3 -9.2 Q5.15 -9.15 4.0 -9.85 L1.8 -11.1 0.65 -11.1 Q0.65 -10.1 0.3 -9.7 L-0.35 -10.35 Q-2.15 -8.45 -2.6 -7.45 L-2.7 -7.6 -2.85 -10.35 -4.6 -8.6 Q-5.75 -7.35 -6.35 -5.95 L-6.35 -7.95 Q-8.4 -5.8 -8.2 -3.6 L-8.35 -4.85 -7.85 -7.25 -7.35 -9.2 Q-8.65 -8.55 -9.4 -5.6 -10.1 -2.65 -9.6 -0.1 -10.35 -0.5 -10.35 -2.7 L-10.7 0.3 -11.55 -1.3 -11.8 -1.9 -11.9 -4.7 Q-11.95 -9.15 -8.75 -11.45 -5.55 -13.75 -0.95 -13.85 3.65 -13.9 6.4 -12.2 8.75 -10.75 9.65 -9.5 M3.65 -0.9 L3.4 -0.85 3.1 -0.9 3.0 -1.15 Q3.0 -1.7 5.6 -2.75 L8.15 -2.7 Q8.15 -2.1 7.55 -2.0 L7.4 -1.95 5.6 -1.75 3.65 -0.9" fill="#f5de71" fill-rule="evenodd" stroke="none"/>
      <path d="M-11.8 -1.9 L-11.55 -1.3 -10.7 0.3 -10.35 -2.7 Q-10.35 -0.5 -9.6 -0.1 -10.1 -2.65 -9.4 -5.6 -8.65 -8.55 -7.35 -9.2 L-7.85 -7.25 -8.35 -4.85 -8.2 -3.6 Q-8.4 -5.8 -6.35 -7.95 L-6.35 -5.95 Q-5.75 -7.35 -4.6 -8.6 L-2.85 -10.35 -2.7 -7.6 -2.6 -7.45 Q-2.15 -8.45 -0.35 -10.35 L0.3 -9.7 Q0.65 -10.1 0.65 -11.1 L1.8 -11.1 4.0 -9.85 Q5.15 -9.15 6.3 -9.2 L8.95 -9.5 9.65 -9.5 9.9 -9.05 9.8 -8.85 9.55 -8.4 8.95 -8.5 3.3 -8.5 1.2 -8.35 0.65 -6.15 0.3 -4.1 -0.05 -2.3 -0.4 -0.1 Q-0.6 1.85 -1.45 2.4 L-1.6 2.45 -2.3 2.35 -2.4 2.05 -2.1 -0.1 Q-2.1 -2.05 -3.6 -3.4 L-3.65 -3.4 -4.0 -3.25 Q-5.55 -3.25 -6.0 -1.9 L-6.2 -1.25 -6.15 -1.05 -6.2 -0.6 -6.0 0.55 Q-5.8 1.7 -5.35 2.15 -5.25 2.9 -5.85 4.05 L-5.9 6.15 -6.15 7.25 -6.45 7.35 Q-7.2 7.55 -7.5 7.8 -7.85 6.85 -8.85 6.35 -9.85 5.8 -10.45 4.1 L-11.2 2.15 -11.2 2.1 Q-11.65 0.5 -11.8 -1.9" fill="#d7ba62" fill-rule="evenodd" stroke="none"/>
      <path d="M-6.45 7.35 L-6.15 7.25 -5.9 6.15 -5.85 4.05 Q-5.25 2.9 -5.35 2.15 -5.8 1.7 -6.0 0.55 L-6.2 -0.6 -6.15 -1.05 -6.2 -1.25 -6.0 -1.9 Q-5.55 -3.25 -4.0 -3.25 L-3.65 -3.4 -3.6 -3.4 Q-2.1 -2.05 -2.1 -0.1 L-2.4 2.05 -2.3 2.35 -1.6 2.45 -1.45 2.4 Q-0.6 1.85 -0.4 -0.1 L-0.05 -2.3 0.3 -4.1 0.65 -6.15 1.2 -8.35 3.3 -8.5 8.95 -8.5 9.55 -8.4 9.8 -8.85 10.1 -8.4 Q10.65 -7.3 10.7 -6.1 10.8 -3.2 9.8 -1.85 8.8 -0.55 8.8 0.25 8.8 0.7 9.7 1.85 L10.55 3.45 10.15 4.35 9.4 4.5 Q8.85 4.65 8.85 5.4 L8.8 6.45 Q8.2 7.35 8.05 8.35 L7.95 9.2 Q7.95 9.9 6.85 10.5 5.5 11.2 3.3 11.2 L1.0 11.1 -1.3 10.25 Q-2.85 9.65 -3.2 9.15 L-6.45 7.35 M7.4 -1.95 L7.55 -2.0 Q8.15 -2.1 8.15 -2.7 L5.6 -2.75 Q3.0 -1.7 3.0 -1.15 L3.1 -0.9 3.4 -0.85 3.65 -0.9 3.6 -0.55 Q3.6 0.85 5.65 0.85 7.1 0.85 7.7 0.1 8.05 -0.35 8.05 -0.9 8.05 -1.7 7.4 -1.95 M-4.0 1.25 L-3.6 1.4 Q-3.15 1.4 -3.15 1.0 L-3.4 0.6 -4.15 0.55 -4.15 1.05 -4.0 1.25 M-4.8 -1.0 L-4.7 -1.35 -3.8 -1.35 -3.75 -1.05 -4.15 -0.6 Q-4.55 -0.35 -4.55 0.05 L-4.5 0.3 Q-4.4 0.5 -4.1 0.5 -3.6 0.5 -3.0 -0.95 -3.0 -1.85 -3.45 -2.2 L-4.75 -2.05 -5.2 -1.5 -4.95 -0.95 -4.8 -1.0" fill="#ffcc99" fill-rule="evenodd" stroke="none"/>
      <path d="M7.4 -1.95 Q8.05 -1.7 8.05 -0.9 8.05 -0.35 7.7 0.1 7.1 0.85 5.65 0.85 3.6 0.85 3.6 -0.55 L3.65 -0.9 5.6 -1.75 7.4 -1.95 M6.7 -1.1 L5.45 -1.0 Q4.9 -0.5 4.9 -0.1 L5.3 0.1 5.65 0.2 6.05 0.15 6.15 -0.6 6.1 -0.75 6.05 -0.75 6.7 -1.1 M-4.8 -1.0 L-4.95 -0.95 -5.2 -1.5 -4.75 -2.05 -3.45 -2.2 Q-3.0 -1.85 -3.0 -0.95 -3.6 0.5 -4.1 0.5 -4.4 0.5 -4.5 0.3 L-4.55 0.05 Q-4.55 -0.35 -4.15 -0.6 L-3.75 -1.05 -3.8 -1.35 -4.7 -1.35 -4.8 -1.0 M-4.0 1.25 L-4.15 1.05 -4.15 0.55 -3.4 0.6 -3.15 1.0 Q-3.15 1.4 -3.6 1.4 L-4.0 1.25" fill="#c79b68" fill-rule="evenodd" stroke="none"/>
      <path d="M6.7 -1.1 L6.05 -0.75 6.1 -0.75 6.15 -0.6 6.05 0.15 5.65 0.2 5.3 0.1 4.9 -0.1 Q4.9 -0.5 5.45 -1.0 L6.7 -1.1" fill="#000000" fill-rule="evenodd" stroke="none"/>
    </g>
    <g id="sprite3" transform="matrix(1.0, 0.0, 0.0, 1.0, 50.0, 50.0)">
      <use ffdec:characterId="1110" height="100.0" transform="matrix(1.0, 0.0, 0.0, 1.0, -50.0, -50.0)" width="100.0" xlink:href="#shape2"/>
    </g>
    <g id="shape2" transform="matrix(1.0, 0.0, 0.0, 1.0, 50.0, 50.0)">
      <path d="M35.35 -35.35 Q50.0 -20.7 50.0 0.0 50.0 20.7 35.35 35.35 20.7 50.0 0.0 50.0 -20.7 50.0 -35.35 35.35 -50.0 20.7 -50.0 0.0 -50.0 -20.7 -35.35 -35.35 -20.7 -50.0 0.0 -50.0 20.7 -50.0 35.35 -35.35 Z" fill="none" stroke="#9900ff" stroke-linecap="round" stroke-linejoin="round" stroke-width="0.05"/>
    </g>
  </defs>
</svg>
