<?xml version="1.0" encoding="UTF-8" standalone="no"?>
<svg xmlns:ffdec="https://www.free-decompiler.com/flash" xmlns:xlink="http://www.w3.org/1999/xlink" ffdec:objectType="frame" height="60.5px" width="20.45px" xmlns="http://www.w3.org/2000/svg">
  <g transform="matrix(1.0, 0.0, 0.0, 1.0, 9.3, 33.0)">
    <use ffdec:characterId="1824" height="55.0" transform="matrix(1.0, 0.0, 0.0, 1.0, -9.3, -27.65)" width="20.45" xlink:href="#shape0"/>
    <use ffdec:characterId="1081" height="100.0" id="shape" transform="matrix(0.18, 0.0, 0.0, 0.55, -8.9996, -27.4994)" width="100.0" xlink:href="#sprite0"/>
  </g>
  <defs>
    <g id="shape0" transform="matrix(1.0, 0.0, 0.0, 1.0, 9.3, 27.65)">
      <path d="M-9.2 -10.55 L-9.25 -11.2 -9.25 -14.5 -9.05 -17.4 -8.5 -20.25 -8.0 -21.6 -7.35 -22.65 -6.75 -23.4 Q-4.8 -25.65 -2.2 -26.75 L-2.1 -26.75 Q0.5 -27.9 3.45 -27.55 L4.5 -27.1 Q6.6 -26.3 8.3 -24.9 9.5 -23.65 10.15 -22.1 L10.9 -19.15 Q11.35 -17.05 11.05 -14.4 L10.5 -9.75 10.05 -6.45 9.95 -5.25 Q9.25 -5.15 7.9 -4.3 L7.65 -4.15 7.2 -3.85 8.05 -7.05 8.4 -8.15 8.2 -9.8 8.25 -12.9 8.25 -15.15 8.2 -15.9 8.3 -16.9 8.1 -17.6 7.2 -21.35 5.55 -23.8 Q4.1 -24.5 2.15 -24.6 L-0.5 -24.55 Q-1.2 -25.7 -4.6 -23.45 -8.85 -20.6 -8.85 -18.05 L-9.2 -10.55 M-8.9 -1.55 L-8.9 -1.85 -8.75 -2.15 -8.7 -1.9 -8.85 -1.65 -8.9 -1.55 M0.15 -9.05 L0.15 -9.7 0.15 -9.25 0.15 -9.05 M5.5 -2.15 L5.55 -3.0 5.35 -4.4 5.6 -5.6 6.65 -9.85 6.9 -8.7 6.9 -5.2 7.0 -3.65 5.5 -2.15" fill="#e8e7e6" fill-rule="evenodd" stroke="none"/>
      <path d="M-9.2 -10.55 L-8.85 -18.05 Q-8.85 -20.6 -4.6 -23.45 -1.2 -25.7 -0.5 -24.55 L2.15 -24.6 Q4.1 -24.5 5.55 -23.8 L7.2 -21.35 8.1 -17.6 8.3 -16.9 8.2 -15.9 8.25 -15.15 8.25 -12.9 8.2 -9.8 8.4 -8.15 8.05 -7.05 7.2 -3.85 7.0 -3.65 6.9 -5.2 6.9 -8.7 6.65 -9.85 5.6 -5.6 5.35 -4.4 5.55 -3.0 5.5 -2.15 5.5 -2.1 5.1 -1.4 4.8 -0.6 4.65 -0.1 4.6 0.15 4.55 0.95 Q4.5 1.8 4.6 2.4 L3.5 2.05 2.45 1.75 Q3.05 1.65 3.05 1.15 L2.85 -0.2 2.8 -0.35 2.6 -0.95 2.4 -1.5 1.4 -3.65 1.35 -3.7 0.4 -6.45 0.05 -7.45 0.0 -8.35 Q0.0 -9.45 0.15 -10.1 L0.15 -9.95 0.15 -9.7 0.15 -9.05 0.2 -8.75 0.2 -8.7 Q0.4 -7.5 1.3 -7.5 2.2 -7.5 2.8 -8.25 3.35 -8.95 3.35 -9.5 L3.3 -10.5 Q3.15 -11.85 2.5 -12.2 L3.0 -11.7 3.9 -14.55 3.75 -14.75 3.9 -15.7 Q3.9 -19.7 3.0 -19.85 2.2 -20.05 1.95 -20.4 L1.2 -21.8 -0.8 -21.8 -1.85 -21.4 -3.1 -20.75 -3.65 -19.85 -4.0 -19.45 -4.8 -17.15 -5.25 -16.1 -5.9 -14.2 Q-6.6 -11.3 -6.6 -8.9 L-6.55 -7.35 -6.5 -7.4 -6.65 -6.2 -6.6 -5.3 -6.35 -4.2 -6.35 -4.1 -6.4 -4.1 -6.4 -3.65 -6.6 -0.4 -6.65 0.5 -6.45 0.9 Q-6.8 0.05 -7.7 -0.3 L-7.75 -0.35 -7.85 -0.35 -9.05 -0.6 -9.1 -1.1 -8.9 -1.55 -8.85 -1.65 -8.7 -1.9 -8.75 -2.15 Q-9.2 -4.4 -9.2 -10.4 L-9.2 -10.55 M1.95 1.3 L2.1 1.6 1.95 1.35 1.95 1.3" fill="#d7d3d0" fill-rule="evenodd" stroke="none"/>
      <path d="M-6.5 -7.4 L-6.55 -7.35 -6.6 -8.9 Q-6.6 -11.3 -5.9 -14.2 L-5.25 -16.1 -4.8 -17.15 -4.0 -19.45 -3.65 -19.85 -3.1 -20.75 -1.85 -21.4 -0.8 -21.8 1.2 -21.8 1.95 -20.4 Q2.2 -20.05 3.0 -19.85 3.9 -19.7 3.9 -15.7 L3.75 -14.75 3.9 -14.55 3.0 -11.7 2.5 -12.2 1.85 -12.3 1.75 -12.3 Q0.2 -12.0 0.15 -10.1 0.0 -9.45 0.0 -8.35 L0.05 -7.45 0.4 -6.45 1.35 -3.7 1.4 -3.65 2.4 -1.5 2.6 -0.95 2.8 -0.35 2.85 -0.2 3.05 1.15 Q3.05 1.65 2.45 1.75 L2.2 1.75 2.1 1.6 1.95 1.3 Q1.2 -0.1 0.5 -0.15 L-0.6 -0.15 Q-2.1 1.55 -2.1 3.4 L-1.95 3.85 -1.8 4.25 -2.1 4.8 Q-2.25 5.6 -3.45 7.85 L-3.6 8.4 -3.95 8.55 -5.85 5.75 -6.0 5.85 -6.3 5.75 -6.35 5.4 -6.0 2.75 -6.2 1.7 -6.25 1.6 -6.3 1.4 -6.45 0.9 -6.65 0.5 -6.6 -0.4 -6.4 -3.65 Q-4.7 -2.55 -4.1 -2.55 L-3.95 -2.55 -3.85 -2.55 Q-3.6 -2.65 -3.65 -3.0 L-3.65 -3.05 -3.25 -3.85 -2.9 -4.95 Q-2.9 -5.85 -3.15 -6.5 L-3.3 -6.85 -3.3 -7.0 -4.1 -8.1 Q-4.55 -8.55 -4.75 -8.35 -5.05 -8.65 -5.55 -8.65 -6.45 -8.65 -6.5 -7.4 M-5.2 4.65 L-5.15 4.7 -5.2 4.55 -5.2 4.65" fill="#bbb4ae" fill-rule="evenodd" stroke="none"/>
      <path d="M7.6 2.3 L7.6 4.3 Q7.6 7.4 7.4 8.2 L6.95 9.45 7.2 9.4 6.95 13.0 6.95 13.6 Q6.65 17.95 6.9 20.15 7.0 21.75 5.95 24.0 4.35 27.05 1.3 27.3 -1.85 27.6 -3.8 26.65 -5.35 25.0 -6.15 22.75 L-6.75 20.9 -7.3 14.2 -7.4 13.95 -7.4 11.75 -7.3 9.1 -7.3 8.0 -7.4 7.2 -7.5 6.9 -7.5 6.4 -7.8 1.6 -7.75 1.65 -7.8 0.85 -7.75 -0.35 -7.7 -0.3 -7.75 0.1 Q-7.75 1.4 -7.35 2.25 L-7.35 2.4 -7.15 2.65 -7.25 3.05 -6.4 5.5 Q-5.6 7.85 -5.55 8.65 -5.55 9.75 -4.0 11.65 L-1.75 14.25 -1.4 14.15 -1.3 13.7 -2.55 11.25 -3.2 9.8 -3.1 8.9 -3.1 8.35 -2.3 6.1 -2.15 5.8 -2.0 5.65 -1.1 4.1 -0.5 3.5 0.0 3.05 1.4 2.65 4.1 2.95 4.6 2.95 4.8 2.95 5.0 2.9 5.45 2.7 5.85 2.45 5.95 2.45 7.05 2.9 7.15 2.9 7.35 3.1 7.5 2.75 7.45 2.3 7.6 2.3 M-3.15 -6.5 Q-2.9 -5.85 -2.9 -4.95 L-3.25 -3.85 -3.65 -3.05 -3.65 -3.0 Q-3.6 -2.65 -3.85 -2.55 L-3.95 -2.55 -4.1 -2.55 Q-4.7 -2.55 -6.4 -3.65 L-6.4 -4.1 -6.35 -4.1 -6.35 -4.15 -6.35 -4.2 -6.6 -5.3 -6.5 -5.3 Q-5.8 -5.3 -5.6 -5.9 L-5.55 -6.65 -4.25 -6.75 -3.2 -6.5 -3.15 -6.5 M3.3 -10.5 L3.35 -9.5 Q3.35 -8.95 2.8 -8.25 2.2 -7.5 1.3 -7.5 0.4 -7.5 0.2 -8.7 L0.2 -8.75 0.15 -9.05 0.15 -9.25 0.75 -9.15 Q1.4 -9.15 3.3 -10.5 M4.65 -0.1 L4.7 -0.05 4.6 0.15 4.65 -0.1 M5.5 -1.6 L5.55 -1.6 5.5 -1.5 5.5 -1.6 M5.55 -1.75 L5.6 -1.75 5.5 -1.65 5.55 -1.75 M0.5 2.6 L0.8 2.5 0.4 2.65 0.5 2.6 M-7.5 3.75 L-7.45 3.8 -7.5 3.6 -7.5 3.75 M-3.95 18.35 L-4.0 18.35 -3.9 18.8 -3.95 18.35" fill="#ffcc99" fill-rule="evenodd" stroke="none"/>
      <path d="M7.2 -3.85 L7.65 -4.15 7.9 -4.3 7.9 -3.1 7.6 1.1 7.65 1.65 7.6 2.25 7.6 2.3 7.45 2.3 7.5 2.75 7.35 3.1 7.15 2.9 7.05 2.9 5.95 2.45 5.85 2.45 5.45 2.7 5.0 2.9 4.8 2.95 4.6 2.95 4.1 2.95 1.4 2.65 0.0 3.05 -0.5 3.5 -1.1 4.1 -2.0 5.65 -2.15 5.8 -2.3 6.1 -3.1 8.35 -3.1 8.9 -3.2 9.8 -2.55 11.25 -1.3 13.7 -1.4 14.15 -1.75 14.25 -4.0 11.65 Q-5.55 9.75 -5.55 8.65 -5.6 7.85 -6.4 5.5 L-7.25 3.05 -7.15 2.65 -7.35 2.4 -7.35 2.25 Q-7.75 1.4 -7.75 0.1 L-7.7 -0.3 Q-6.8 0.05 -6.45 0.9 L-6.3 1.4 -6.25 1.6 -6.2 1.7 -6.0 2.75 -6.35 5.4 -6.3 5.75 -6.0 5.85 -5.85 5.75 -3.95 8.55 -3.6 8.4 -3.45 7.85 Q-2.25 5.6 -2.1 4.8 L-1.8 4.25 -1.95 3.85 -2.1 3.4 Q-2.1 1.55 -0.6 -0.15 L0.5 -0.15 Q1.2 -0.1 1.95 1.3 L1.95 1.35 2.1 1.6 2.2 1.75 2.45 1.75 3.5 2.05 4.6 2.4 Q4.5 1.8 4.55 0.95 L4.6 0.15 4.7 -0.05 4.65 -0.1 4.8 -0.6 5.1 -1.4 5.5 -2.1 5.5 -2.15 7.0 -3.65 7.2 -3.85 M-6.5 -7.4 Q-6.45 -8.65 -5.55 -8.65 -5.05 -8.65 -4.75 -8.35 -4.55 -8.55 -4.1 -8.1 L-3.3 -7.0 -3.3 -6.85 -3.15 -6.5 -3.2 -6.5 -4.25 -6.75 -5.55 -6.65 -5.6 -5.9 Q-5.8 -5.3 -6.5 -5.3 L-6.6 -5.3 -6.65 -6.2 -6.5 -7.4 M0.15 -10.1 Q0.2 -12.0 1.75 -12.3 L1.85 -12.3 2.5 -12.2 Q3.15 -11.85 3.3 -10.5 1.4 -9.15 0.75 -9.15 L0.15 -9.25 0.15 -9.7 0.15 -9.95 0.15 -10.1 M5.55 -1.75 L5.5 -1.65 5.6 -1.75 5.55 -1.75 M5.5 -1.6 L5.5 -1.5 5.55 -1.6 5.5 -1.6 M0.5 2.6 L0.4 2.65 0.8 2.5 0.5 2.6 M-5.2 4.65 L-5.2 4.55 -5.15 4.7 -5.2 4.65" fill="#ebbb98" fill-rule="evenodd" stroke="none"/>
      <path d="M-6.35 -4.2 L-6.35 -4.15 -6.35 -4.1 -6.35 -4.2 M-7.5 3.75 L-7.5 3.6 -7.45 3.8 -7.5 3.75" fill="#c4beb9" fill-rule="evenodd" stroke="none"/>
    </g>
    <g id="sprite0" transform="matrix(1.0, 0.0, 0.0, 1.0, 50.0, 50.0)">
      <use ffdec:characterId="1080" height="100.0" transform="matrix(1.0, 0.0, 0.0, 1.0, -50.0, -50.0)" width="100.0" xlink:href="#shape1"/>
    </g>
    <g id="shape1" transform="matrix(1.0, 0.0, 0.0, 1.0, 50.0, 50.0)">
      <path d="M50.0 50.0 L-50.0 50.0 -50.0 -50.0 50.0 -50.0 50.0 50.0 Z" fill="none" stroke="#9900ff" stroke-linecap="round" stroke-linejoin="round" stroke-width="0.05"/>
    </g>
  </defs>
</svg>
