<?xml version="1.0" encoding="UTF-8" standalone="no"?>
<svg xmlns:ffdec="https://www.free-decompiler.com/flash" xmlns:xlink="http://www.w3.org/1999/xlink" ffdec:objectType="frame" height="60.5px" width="20.45px" xmlns="http://www.w3.org/2000/svg">
  <g transform="matrix(1.0, 0.0, 0.0, 1.0, 9.3, 33.0)">
    <use ffdec:characterId="1827" height="53.75" transform="matrix(1.0, 0.0, 0.0, 1.0, -9.3, -33.0)" width="20.45" xlink:href="#shape0"/>
  </g>
  <defs>
    <g id="shape0" transform="matrix(1.0, 0.0, 0.0, 1.0, 9.3, 33.0)">
      <path d="M8.25 -30.1 L9.0 -30.5 9.6 -29.1 Q10.05 -27.9 9.7 -27.05 L9.1 -25.5 9.3 -24.35 8.9 -24.8 8.85 -25.6 7.4 -26.15 7.0 -25.85 Q6.7 -25.5 6.75 -24.9 L7.0 -23.6 7.0 -23.55 Q7.0 -22.6 7.5 -21.95 7.95 -21.3 8.6 -21.3 L9.6 -21.65 9.95 -22.6 10.15 -22.1 10.9 -19.15 Q11.35 -17.05 11.05 -14.4 L10.5 -9.75 10.05 -6.45 9.95 -5.25 Q9.25 -5.15 7.9 -4.3 L7.65 -4.15 7.2 -3.85 8.05 -7.05 8.4 -8.15 8.2 -9.75 8.2 -9.8 8.25 -12.9 8.25 -15.15 8.2 -15.9 8.3 -16.9 8.1 -17.6 7.2 -21.35 5.55 -23.8 5.25 -23.95 5.45 -25.0 6.5 -26.15 6.55 -26.15 6.75 -26.5 7.15 -27.05 7.75 -28.05 8.05 -29.25 8.25 -30.1 M-8.9 -1.55 L-8.9 -1.85 -8.75 -2.15 -8.7 -1.9 -8.85 -1.65 -8.9 -1.55 M-9.2 -10.55 L-9.25 -11.2 -9.25 -14.5 -9.05 -17.4 -8.5 -20.25 -8.0 -21.6 -7.8 -21.95 -7.1 -21.8 -6.45 -22.05 Q-8.85 -19.95 -8.85 -18.05 L-9.2 -10.55 M-7.85 -24.25 L-8.4 -25.25 -7.75 -26.0 -6.2 -27.1 -4.1 -27.0 -4.05 -26.1 -4.2 -25.55 -4.1 -25.25 -4.6 -24.6 -4.55 -24.85 -4.55 -25.3 -4.55 -25.4 -4.65 -26.05 -4.95 -26.5 -5.35 -26.55 -5.85 -25.9 Q-6.7 -25.9 -7.25 -25.4 -7.85 -24.95 -7.85 -24.25 M0.15 -9.05 L0.15 -9.7 0.15 -9.25 0.15 -9.05 M5.5 -2.15 Q5.45 -2.65 5.55 -3.0 L5.35 -4.4 5.6 -5.6 6.6 -9.75 6.65 -9.85 6.65 -9.75 6.9 -8.7 6.9 -5.2 7.0 -3.65 5.5 -2.15" fill="#e8e7e6" fill-rule="evenodd" stroke="none"/>
      <path d="M-7.75 -0.35 L-7.85 -0.35 -9.05 -0.6 -9.1 -1.1 -8.9 -1.55 -8.85 -1.65 -8.7 -1.9 -8.75 -2.15 Q-9.2 -4.3 -9.2 -9.75 L-9.2 -10.4 -9.2 -10.55 -8.85 -18.05 Q-8.85 -19.95 -6.45 -22.05 L-5.95 -22.25 -7.75 -20.4 Q-7.1 -18.1 -4.55 -17.95 L-4.8 -17.15 -5.25 -16.1 -5.45 -15.65 -5.6 -15.25 -6.45 -14.15 -7.15 -12.55 -7.15 -12.35 -6.55 -12.15 -6.25 -12.4 -6.55 -9.75 -6.6 -8.9 -6.55 -7.35 -6.5 -7.4 -6.65 -6.2 -6.6 -5.3 -6.35 -4.2 -6.35 -4.1 -6.4 -4.1 -6.4 -3.65 -6.6 -0.4 -6.65 0.5 -6.45 0.9 Q-6.8 0.05 -7.7 -0.3 L-7.75 -0.35 M5.25 -23.95 L5.55 -23.8 7.2 -21.35 8.1 -17.6 8.3 -16.9 8.2 -15.9 8.25 -15.15 8.25 -12.9 8.2 -9.8 8.2 -9.75 8.4 -8.15 8.05 -7.05 7.2 -3.85 7.0 -3.65 6.9 -5.2 6.9 -8.7 6.65 -9.75 6.65 -9.85 6.6 -9.75 5.6 -5.6 5.35 -4.4 5.55 -3.0 Q5.45 -2.65 5.5 -2.15 L5.5 -2.1 5.1 -1.4 4.8 -0.6 4.65 -0.1 4.6 0.15 4.55 0.95 Q4.5 1.8 4.6 2.4 L3.5 2.05 2.45 1.75 Q3.05 1.65 3.05 1.15 L2.85 -0.2 2.8 -0.35 2.6 -0.95 2.4 -1.5 1.4 -3.65 1.35 -3.7 0.4 -6.45 0.05 -7.45 0.0 -8.35 0.1 -9.75 0.15 -10.1 0.15 -9.95 0.15 -9.75 0.15 -9.7 0.15 -9.05 0.2 -8.75 0.2 -8.7 Q0.4 -7.5 1.3 -7.5 2.2 -7.5 2.8 -8.25 3.35 -8.95 3.35 -9.5 L3.35 -9.75 3.3 -10.5 Q3.15 -11.85 2.5 -12.2 L3.0 -11.7 3.9 -14.55 3.75 -14.75 3.9 -15.7 3.7 -18.65 4.1 -18.35 4.45 -17.25 5.5 -16.85 6.4 -17.45 6.35 -19.85 7.1 -20.1 7.1 -21.45 6.3 -22.5 Q6.3 -23.05 5.75 -23.15 L5.05 -23.15 5.25 -23.95 M1.95 1.3 L2.1 1.6 1.95 1.35 1.95 1.3" fill="#d7d3d0" fill-rule="evenodd" stroke="none"/>
      <path d="M3.7 -18.65 L3.9 -15.7 3.75 -14.75 3.9 -14.55 3.0 -11.7 2.5 -12.2 1.85 -12.3 1.75 -12.3 Q0.2 -12.0 0.15 -10.1 L0.1 -9.75 0.0 -8.35 0.05 -7.45 0.4 -6.45 1.35 -3.7 1.4 -3.65 2.4 -1.5 2.6 -0.95 2.8 -0.35 2.85 -0.2 3.05 1.15 Q3.05 1.65 2.45 1.75 L2.2 1.75 2.1 1.6 1.95 1.3 Q1.2 -0.1 0.5 -0.15 L-0.6 -0.15 Q-2.1 1.55 -2.1 3.4 L-1.95 3.85 -1.8 4.25 -2.1 4.8 -2.8 6.65 -3.8 5.9 -5.4 5.8 -5.65 6.1 -5.85 5.75 -6.0 5.85 -6.3 5.75 -6.35 5.4 -6.0 2.75 -6.2 1.7 -6.25 1.6 -6.3 1.4 -6.45 0.9 -6.65 0.5 -6.6 -0.4 -6.4 -3.65 Q-5.25 -2.9 -4.55 -2.65 L-4.95 -1.45 Q-4.9 0.55 -4.0 2.45 L-3.05 3.2 -2.3 2.7 -2.4 -0.25 -1.25 -1.3 -0.9 -0.7 -0.5 -1.5 -0.6 -2.05 -0.05 -3.4 0.2 -3.95 -0.15 -5.25 -1.4 -5.05 -3.0 -4.4 -2.9 -4.95 Q-2.9 -5.85 -3.15 -6.5 L-3.3 -6.85 -3.3 -7.0 -4.1 -8.1 Q-4.55 -8.55 -4.75 -8.35 -5.05 -8.65 -5.55 -8.65 -6.45 -8.65 -6.5 -7.4 L-6.55 -7.35 -6.6 -8.9 -6.55 -9.75 -6.25 -12.4 -6.0 -12.65 -5.45 -12.2 Q-4.45 -12.0 -3.6 -12.65 L-3.3 -12.9 -3.05 -15.2 -2.85 -16.25 -3.5 -16.35 -4.95 -16.0 -5.45 -15.65 -5.25 -16.1 -4.8 -17.15 -4.55 -17.95 -4.3 -17.95 -2.25 -18.4 Q-1.85 -18.45 -1.6 -18.8 L-1.05 -19.95 Q1.6 -20.2 3.7 -18.65 M-5.2 4.65 L-5.15 4.7 -5.2 4.55 -5.2 4.65" fill="#bbb4ae" fill-rule="evenodd" stroke="none"/>
      <path d="M7.6 2.3 L7.6 4.3 Q7.6 7.4 7.4 8.2 L6.95 9.45 7.2 9.4 7.15 10.4 Q6.8 10.0 6.1 10.25 5.05 10.45 4.45 11.45 L4.1 9.1 Q4.3 8.05 3.7 7.5 L2.75 6.95 0.65 7.25 0.4 7.75 0.45 8.3 -0.1 9.2 2.45 11.65 -0.4 11.65 -0.5 11.0 -0.45 10.0 -0.95 9.15 -1.9 9.15 -2.65 7.4 -2.7 7.1 -2.3 6.1 -2.15 5.8 -2.0 5.65 -1.1 4.1 -0.5 3.5 0.0 3.05 1.4 2.65 4.1 2.95 4.6 2.95 4.8 2.95 5.0 2.9 5.45 2.7 5.85 2.45 5.95 2.45 7.05 2.9 7.15 2.9 7.35 3.1 7.5 2.75 7.45 2.3 7.6 2.3 M-6.1 16.3 L-6.3 16.3 -7.1 16.4 -7.3 14.2 -7.4 13.95 -7.4 13.8 -7.35 13.8 -4.75 10.6 -4.0 11.65 -3.85 11.85 -3.85 12.3 -3.95 12.4 Q-3.95 12.95 -4.4 13.35 -4.85 13.7 -5.45 13.7 L-6.15 16.15 -6.1 16.3 M-7.3 8.45 L-7.3 8.0 -7.4 7.2 -7.5 6.9 -7.5 6.4 -7.8 1.6 -7.75 1.65 -7.8 0.85 -7.75 -0.35 -7.7 -0.3 -7.75 0.1 Q-7.75 1.4 -7.35 2.25 L-7.35 2.4 -7.15 2.65 -7.25 3.05 -6.4 5.5 -6.05 6.55 -7.15 8.15 -7.3 8.45 M3.3 -10.5 L3.35 -9.75 3.35 -9.5 Q3.35 -8.95 2.8 -8.25 2.2 -7.5 1.3 -7.5 0.4 -7.5 0.2 -8.7 L0.2 -8.75 0.15 -9.05 0.15 -9.25 0.75 -9.15 Q1.2 -9.15 2.2 -9.75 L3.3 -10.5 M4.6 0.15 L4.65 -0.1 4.7 -0.05 4.6 0.15 M5.5 -1.6 L5.55 -1.6 5.5 -1.5 5.5 -1.6 M5.55 -1.75 L5.6 -1.75 5.5 -1.65 5.55 -1.75 M-3.15 -6.5 Q-2.9 -5.85 -2.9 -4.95 L-3.0 -4.4 Q-4.05 -3.8 -4.55 -2.65 -5.25 -2.9 -6.4 -3.65 L-6.4 -4.1 -6.35 -4.1 -6.35 -4.15 -6.35 -4.2 -6.6 -5.3 -6.5 -5.3 Q-5.8 -5.3 -5.6 -5.9 L-5.55 -6.65 -4.25 -6.75 -3.2 -6.5 -3.15 -6.5 M-7.45 3.8 L-7.5 3.6 -7.5 3.75 -7.45 3.8 M6.9 4.0 L6.55 2.65 Q5.95 2.5 5.45 2.9 L3.95 4.45 Q3.85 4.55 3.9 4.75 L4.15 5.8 4.75 6.1 Q5.85 6.3 6.9 5.6 L6.9 4.0 M0.8 2.5 L0.4 2.65 0.5 2.6 0.8 2.5" fill="#ffcc99" fill-rule="evenodd" stroke="none"/>
      <path d="M7.9 -4.3 L7.9 -3.1 7.6 1.1 7.65 1.65 7.6 2.25 7.6 2.3 7.45 2.3 7.5 2.75 7.35 3.1 7.15 2.9 7.05 2.9 5.95 2.45 5.85 2.45 5.45 2.7 5.0 2.9 4.8 2.95 4.6 2.95 4.1 2.95 1.4 2.65 0.0 3.05 -0.5 3.5 -1.1 4.1 -2.0 5.65 -2.15 5.8 -2.3 6.1 -2.7 7.1 -2.8 6.65 -2.1 4.8 -1.8 4.25 -1.95 3.85 -2.1 3.4 Q-2.1 1.55 -0.6 -0.15 L0.5 -0.15 Q1.2 -0.1 1.95 1.3 L1.95 1.35 2.1 1.6 2.2 1.75 2.45 1.75 3.5 2.05 4.6 2.4 Q4.5 1.8 4.55 0.95 L4.6 0.15 4.7 -0.05 4.65 -0.1 4.8 -0.6 5.1 -1.4 5.5 -2.1 5.5 -2.15 7.0 -3.65 7.2 -3.85 7.65 -4.15 7.9 -4.3 M2.5 -12.2 Q3.15 -11.85 3.3 -10.5 L2.2 -9.75 Q1.2 -9.15 0.75 -9.15 L0.15 -9.25 0.15 -9.7 0.15 -9.75 0.15 -9.95 0.15 -10.1 Q0.2 -12.0 1.75 -12.3 L1.85 -12.3 2.5 -12.2 M5.55 -1.75 L5.5 -1.65 5.6 -1.75 5.55 -1.75 M5.5 -1.6 L5.5 -1.5 5.55 -1.6 5.5 -1.6 M-6.5 -7.4 Q-6.45 -8.65 -5.55 -8.65 -5.05 -8.65 -4.75 -8.35 -4.55 -8.55 -4.1 -8.1 L-3.3 -7.0 -3.3 -6.85 -3.15 -6.5 -3.2 -6.5 -4.25 -6.75 -5.55 -6.65 -5.6 -5.9 Q-5.8 -5.3 -6.5 -5.3 L-6.6 -5.3 -6.65 -6.2 -6.5 -7.4 M-6.45 0.9 L-6.3 1.4 -6.25 1.6 -6.2 1.7 -6.0 2.75 -6.35 5.4 -6.3 5.75 -6.0 5.85 -5.85 5.75 -5.65 6.1 -6.05 6.55 -6.4 5.5 -7.25 3.05 -7.15 2.65 -7.35 2.4 -7.35 2.25 Q-7.75 1.4 -7.75 0.1 L-7.7 -0.3 Q-6.8 0.05 -6.45 0.9 M-5.2 4.65 L-5.2 4.55 -5.15 4.7 -5.2 4.65 M-4.75 10.6 L-4.5 10.25 -3.8 11.05 -3.85 11.85 -4.0 11.65 -4.75 10.6 M0.8 2.5 L0.5 2.6 0.4 2.65 0.8 2.5" fill="#ebbb98" fill-rule="evenodd" stroke="none"/>
      <path d="M-6.35 -4.2 L-6.35 -4.15 -6.35 -4.1 -6.35 -4.2 M-7.45 3.8 L-7.5 3.75 -7.5 3.6 -7.45 3.8" fill="#c4beb9" fill-rule="evenodd" stroke="none"/>
      <path d="M-2.1 -30.5 L-2.15 -31.35 Q-1.95 -32.2 -1.1 -32.1 L1.3 -32.2 1.45 -31.6 3.8 -29.4 4.4 -28.45 4.4 -28.4 4.55 -28.45 7.15 -30.5 8.15 -30.9 8.25 -30.1 8.05 -29.25 Q7.7 -28.55 7.0 -28.1 5.95 -27.45 4.9 -26.95 L4.05 -26.55 4.25 -26.15 3.55 -24.8 1.95 -24.5 1.85 -24.6 1.35 -25.15 -3.75 -23.75 -4.1 -25.25 -4.2 -25.55 -4.05 -26.1 -3.7 -26.15 -2.35 -25.05 Q-0.95 -26.35 0.75 -26.55 L1.85 -26.65 2.35 -27.05 2.95 -27.0 2.0 -30.05 0.0 -30.85 -2.1 -30.5 M7.15 10.4 L7.35 10.95 5.1 12.75 4.3 12.5 4.45 11.45 Q5.05 10.45 6.1 10.25 6.8 10.0 7.15 10.4 M-3.8 17.55 L-5.3 17.95 -6.25 17.45 -6.1 17.2 -5.9 17.0 -2.45 13.55 -1.65 14.25 -2.3 16.15 -1.8 17.05 -2.15 18.5 -3.25 18.4 -3.8 17.55 M-8.05 10.45 L-7.3 8.45 -7.15 8.15 -6.05 6.55 -5.65 6.1 -5.4 5.8 -3.8 5.9 -2.8 6.65 -2.7 7.1 -2.65 7.4 -2.9 8.3 -3.7 8.65 -4.65 8.1 -7.7 10.95 -8.05 10.45 M7.0 -23.55 L7.0 -23.6 6.75 -24.9 Q6.7 -25.5 7.0 -25.85 L7.4 -26.15 8.85 -25.6 8.9 -24.8 8.75 -24.4 8.4 -23.7 Q8.1 -23.15 7.75 -23.25 L7.0 -23.55 M5.05 -23.15 L5.75 -23.15 Q6.3 -23.05 6.3 -22.5 5.5 -20.95 3.75 -20.75 2.55 -20.8 1.5 -21.2 L1.35 -21.3 1.1 -21.8 1.5 -22.6 5.05 -23.15 M-5.85 -25.9 L-5.35 -26.55 -4.95 -26.5 -4.65 -26.05 -4.55 -25.4 -4.55 -25.3 -4.55 -24.85 -4.6 -24.6 Q-5.05 -23.4 -6.25 -23.4 L-6.7 -23.45 Q-7.35 -23.55 -7.6 -24.05 L-7.6 -24.35 -5.85 -25.9 M-5.95 -22.25 L-2.7 -23.35 -2.2 -22.5 Q-2.95 -20.45 -4.85 -19.8 -6.45 -19.4 -7.75 -20.4 L-5.95 -22.25 M-3.5 -16.35 L-2.85 -16.25 -3.05 -15.2 Q-4.25 -13.75 -6.0 -13.4 L-6.05 -13.4 Q-6.7 -13.5 -6.45 -14.15 L-5.6 -15.25 -3.5 -16.35 M-3.0 -4.4 L-1.4 -5.05 -0.15 -5.25 0.2 -3.95 -0.05 -3.4 Q-1.6 -1.8 -3.85 -1.45 L-4.95 -1.45 -4.55 -2.65 Q-4.05 -3.8 -3.0 -4.4 M-1.9 9.15 L-0.95 9.15 -0.45 10.0 -0.5 11.0 -1.4 11.55 -3.0 9.9 -1.9 9.15 M-0.4 11.65 L2.45 11.65 2.6 12.65 -0.75 12.8 -0.9 12.4 -0.75 11.9 -0.4 11.65 M0.45 8.3 L0.4 7.75 0.65 7.25 2.75 6.95 3.7 7.5 Q4.3 8.05 4.1 9.1 L3.9 9.25 Q1.9 10.2 0.45 8.3 M-0.45 14.4 L-0.25 13.9 1.65 13.95 1.95 14.55 1.25 15.95 0.9 15.95 Q0.4 15.8 0.05 15.5 -0.45 15.05 -0.45 14.4 M3.9 4.75 Q3.85 4.55 3.95 4.45 L5.45 2.9 Q5.95 2.5 6.55 2.65 L6.9 4.0 6.7 4.9 Q5.6 4.2 4.9 5.05 L3.9 4.75" fill="#ff0000" fill-rule="evenodd" stroke="none"/>
      <path d="M4.4 -28.45 L4.55 -28.45 4.4 -28.4 4.4 -28.45 M7.15 -30.5 L8.3 -33.0 8.15 -30.9 7.15 -30.5 M9.3 -24.35 L9.75 -23.4 9.95 -22.6 9.6 -21.65 8.6 -21.3 Q7.95 -21.3 7.5 -21.95 7.0 -22.6 7.0 -23.55 L7.75 -23.25 Q8.1 -23.15 8.4 -23.7 L8.75 -24.4 8.9 -24.8 9.3 -24.35 M7.35 10.95 Q7.1 12.55 5.75 13.75 L3.5 16.3 1.25 16.0 1.25 15.95 1.95 14.55 1.65 13.95 -0.25 13.9 -0.45 14.4 -1.65 14.25 -2.45 13.55 -5.9 17.0 -6.1 16.3 -6.15 16.15 -5.45 13.7 Q-4.85 13.7 -4.4 13.35 -3.95 12.95 -3.95 12.4 L-3.85 12.3 -3.85 11.85 -3.8 11.05 -4.5 10.25 -4.75 10.6 -7.35 13.8 -7.4 13.8 -7.85 13.7 -8.5 12.05 -8.05 10.45 -7.7 10.95 -4.65 8.1 -3.7 8.65 -2.9 8.3 -2.65 7.4 -1.9 9.15 -3.0 9.9 -1.4 11.55 -0.5 11.0 -0.4 11.65 -0.75 11.9 -0.9 12.4 -0.75 12.8 2.6 12.65 2.45 11.65 -0.1 9.2 0.45 8.3 Q1.9 10.2 3.9 9.25 L4.1 9.1 4.45 11.45 4.3 12.5 5.1 12.75 7.35 10.95 M-7.8 -21.95 L-7.85 -22.0 -7.85 -24.25 Q-7.85 -24.95 -7.25 -25.4 -6.7 -25.9 -5.85 -25.9 L-7.6 -24.35 -7.6 -24.05 Q-7.35 -23.55 -6.7 -23.45 L-6.25 -23.4 Q-5.05 -23.4 -4.6 -24.6 L-4.1 -25.25 -3.75 -23.75 1.35 -25.15 1.85 -24.6 1.95 -24.5 3.55 -24.8 4.25 -26.15 4.05 -26.55 4.9 -26.95 Q5.95 -27.45 7.0 -28.1 7.7 -28.55 8.05 -29.25 L7.75 -28.05 7.15 -27.05 6.75 -26.5 6.5 -26.15 5.45 -25.0 5.25 -23.95 5.05 -23.15 1.5 -22.6 1.1 -21.8 1.35 -21.3 1.5 -21.2 Q2.55 -20.8 3.75 -20.75 5.5 -20.95 6.3 -22.5 L7.1 -21.45 7.1 -20.1 6.35 -19.85 6.4 -17.45 5.5 -16.85 4.45 -17.25 4.1 -18.35 3.7 -18.65 Q1.6 -20.2 -1.05 -19.95 L-1.6 -18.8 Q-1.85 -18.45 -2.25 -18.4 L-4.3 -17.95 -4.55 -17.95 Q-7.1 -18.1 -7.75 -20.4 -6.45 -19.4 -4.85 -19.8 -2.95 -20.45 -2.2 -22.5 L-2.7 -23.35 -5.95 -22.25 -6.45 -22.05 -7.1 -21.8 -7.8 -21.95 M-4.1 -27.0 L-3.95 -27.6 -2.1 -30.5 0.0 -30.85 2.0 -30.05 2.95 -27.0 2.35 -27.05 2.3 -28.55 0.75 -28.8 Q-2.0 -28.55 -3.7 -26.15 L-4.05 -26.1 -4.1 -27.0 M-5.45 -15.65 L-4.95 -16.0 -3.5 -16.35 -5.6 -15.25 -5.45 -15.65 M-3.05 -15.2 L-3.3 -12.9 -3.6 -12.65 Q-4.45 -12.0 -5.45 -12.2 L-6.0 -12.65 -6.25 -12.4 -6.55 -12.15 -7.15 -12.35 -7.15 -12.55 -6.45 -14.15 Q-6.7 -13.5 -6.05 -13.4 L-6.0 -13.4 Q-4.25 -13.75 -3.05 -15.2 M-0.05 -3.4 L-0.6 -2.05 -1.25 -1.3 -2.4 -0.25 -2.3 2.7 -3.05 3.2 -4.0 2.45 Q-4.9 0.55 -4.95 -1.45 L-3.85 -1.45 Q-1.6 -1.8 -0.05 -3.4 M3.9 4.75 L4.9 5.05 Q5.6 4.2 6.7 4.9 L6.9 4.0 6.9 5.6 Q5.85 6.3 4.75 6.1 L4.15 5.8 3.9 4.75" fill="#990000" fill-rule="evenodd" stroke="none"/>
      <path d="M1.25 16.0 L1.6 18.95 0.15 19.95 Q-1.1 20.85 -2.7 20.75 L-3.05 20.45 -3.8 17.55 -3.25 18.4 -2.15 18.5 -1.8 17.05 -2.3 16.15 -1.65 14.25 -0.45 14.4 Q-0.45 15.05 0.05 15.5 0.4 15.8 0.9 15.95 L1.25 15.95 1.25 16.0 M2.35 -27.05 L1.85 -26.65 0.75 -26.55 Q-0.95 -26.35 -2.35 -25.05 L-3.7 -26.15 Q-2.0 -28.55 0.75 -28.8 L2.3 -28.55 2.35 -27.05" fill="#ffffff" fill-rule="evenodd" stroke="none"/>
      <path d="M-0.6 -2.05 L-0.5 -1.5 -0.9 -0.7 -1.25 -1.3 -0.6 -2.05" fill="#5c617c" fill-rule="evenodd" stroke="none"/>
      <path d="M-6.25 17.45 L-6.3 17.35 -6.1 17.2 -6.25 17.45" fill="#727e94" fill-rule="evenodd" stroke="none"/>
    </g>
  </defs>
</svg>
