<?xml version="1.0" encoding="UTF-8" standalone="no"?>
<svg xmlns:ffdec="https://www.free-decompiler.com/flash" xmlns:xlink="http://www.w3.org/1999/xlink" ffdec:objectType="frame" height="23.0px" width="18.65px" xmlns="http://www.w3.org/2000/svg">
  <g transform="matrix(1.0, 0.0, 0.0, 1.0, 9.65, 9.2)">
    <use ffdec:characterId="1088" height="23.0" transform="matrix(1.0, 0.0, 0.0, 1.0, -9.65, -9.2)" width="18.65" xlink:href="#shape0"/>
  </g>
  <defs>
    <g id="shape0" transform="matrix(1.0, 0.0, 0.0, 1.0, 9.65, 9.2)">
      <path d="M0.65 6.75 L0.65 6.5 0.6 6.35 1.8 6.3 1.2 9.95 0.65 6.75 M-6.65 11.5 L-7.45 10.7 Q-7.75 9.85 -7.0 9.35 L-6.05 8.85 -5.25 8.15 Q-4.15 6.95 -4.1 5.0 L-4.1 4.95 -3.55 5.05 -3.7 3.9 -3.7 3.75 -3.45 2.55 -3.15 1.0 -2.95 -0.8 -2.95 -1.05 -2.65 -1.45 -2.7 -1.1 -2.7 -1.05 -2.65 -1.05 -2.45 -0.75 -2.45 1.1 -2.65 1.4 -2.45 2.7 Q-3.4 3.0 -3.4 4.5 L-3.35 5.1 -3.3 5.25 Q-3.1 6.05 -2.35 6.05 L-2.15 6.05 Q-2.6 8.05 -4.35 9.1 L-5.1 9.45 -5.4 9.6 -5.5 9.7 -5.9 10.1 -6.65 11.5 M-9.45 6.6 L-9.6 6.15 -9.65 6.1 -9.65 5.7 -8.7 4.5 -7.35 3.45 -7.35 3.05 -6.85 2.05 -6.9 1.8 -5.45 2.8 -4.75 3.3 -4.9 3.3 -8.15 6.35 -8.6 6.85 -9.15 6.5 -9.45 6.6 M4.9 5.65 L5.05 5.6 5.15 5.9 4.9 5.65" fill="#e2b181" fill-rule="evenodd" stroke="none"/>
      <path d="M-0.8 -9.2 L6.65 -9.2 6.65 -9.15 6.75 -9.15 6.8 -8.75 4.95 -8.5 2.0 -8.15 -0.3 -8.2 -0.8 -9.2 M8.65 4.75 L8.8 5.8 Q9.3 8.8 8.4 10.45 L7.4 12.5 6.8 13.35 Q5.65 13.5 5.65 12.6 L5.7 12.5 Q6.9 7.55 6.2 5.3 L6.9 5.1 8.65 4.75 M4.7 6.25 Q4.35 7.35 4.25 9.25 3.95 11.9 1.15 13.75 L0.75 13.7 Q1.8 13.15 2.35 11.0 L3.75 6.15 4.7 6.25 M0.25 5.95 L0.15 6.35 Q-0.4 8.3 -2.25 9.95 L-3.15 10.65 Q-5.65 11.85 -5.85 11.45 L-5.9 11.35 Q-3.75 11.25 -1.25 7.7 L-0.15 5.9 0.25 5.95 M-4.15 4.3 L-4.4 4.85 Q-5.3 6.35 -7.35 6.95 L-7.75 7.05 -8.0 7.0 -6.15 5.6 Q-4.7 4.25 -4.55 3.5 L-4.5 3.75 -4.15 4.3 M-6.8 -8.9 L-6.85 -9.2 -5.75 -9.2 -5.75 -8.8 -6.8 -8.9 M2.7 0.45 L-0.1 4.6 -1.15 5.65 -2.15 6.05 -2.35 6.05 Q-3.1 6.05 -3.3 5.25 L-3.35 5.1 -3.4 4.5 Q-3.4 3.0 -2.45 2.7 L-2.65 1.4 -2.45 1.1 -2.45 -0.75 -2.25 -1.85 -1.0 -2.15 Q0.3 -2.15 1.65 -0.85 L2.7 0.45 M-2.75 -8.45 L-2.85 -8.45 -4.25 -8.6 -4.5 -8.65 -4.35 -8.85 -2.75 -8.45" fill="#ffcc99" fill-rule="evenodd" stroke="none"/>
      <path d="M-0.8 -9.2 L-0.3 -8.2 -2.75 -8.45 -4.35 -8.85 -4.5 -8.65 -5.7 -8.8 -5.75 -8.8 -5.75 -9.2 -0.8 -9.2 M6.8 13.35 L5.8 13.65 Q4.5 13.45 4.3 12.9 L4.45 12.5 4.85 10.8 Q5.15 8.85 4.95 6.5 L4.75 6.25 4.7 6.15 4.5 5.75 4.9 5.65 5.15 5.9 5.05 5.6 6.2 5.3 Q6.9 7.55 5.7 12.5 L5.65 12.6 Q5.65 13.5 6.8 13.35 M1.15 13.75 L0.35 13.8 0.05 13.8 -0.1 13.8 Q-1.45 13.1 -0.8 12.25 0.15 10.9 0.55 9.5 0.85 8.4 0.65 6.75 L1.2 9.95 1.8 6.3 3.1 6.15 3.75 6.15 2.35 11.0 Q1.8 13.15 0.75 13.7 L1.15 13.75 M-5.85 11.45 L-6.65 11.5 -5.9 10.1 -5.5 9.7 -5.4 9.6 -5.1 9.45 -4.35 9.1 Q-2.6 8.05 -2.15 6.05 L-1.15 5.65 -0.15 5.9 -1.25 7.7 Q-3.75 11.25 -5.9 11.35 L-5.85 11.45 M-8.0 7.0 L-8.15 7.0 -8.6 6.85 -9.45 6.6 -9.15 6.5 -8.6 6.85 -8.15 6.35 -4.9 3.3 -4.75 3.3 -4.6 3.3 -4.55 3.45 -4.55 3.5 Q-4.7 4.25 -6.15 5.6 L-8.0 7.0 M-2.25 -1.85 L-2.45 -0.75 -2.65 -1.05 -2.7 -1.05 -2.7 -1.1 -2.65 -1.45 -2.35 -1.8 -2.25 -1.85" fill="#ebbb98" fill-rule="evenodd" stroke="none"/>
      <path d="M-0.3 -8.2 L2.0 -8.15 4.95 -8.5 6.8 -8.75 6.95 -8.8 6.95 -7.7 7.15 -6.25 7.6 -4.55 7.65 -4.45 7.7 -4.25 Q8.6 -1.2 8.3 0.35 L8.15 1.0 8.1 1.45 8.1 1.55 8.05 2.05 8.1 2.05 8.65 4.75 6.9 5.1 6.2 5.3 6.1 5.0 5.7 4.0 5.1 2.85 Q4.45 1.05 3.55 0.85 L3.4 0.75 2.7 0.4 2.7 0.45 1.65 -0.85 Q0.3 -2.15 -1.0 -2.15 L-2.25 -1.85 -1.4 -4.15 -1.5 -4.5 -1.45 -4.5 -1.7 -5.35 -1.9 -5.6 Q-2.3 -6.0 -3.4 -6.4 L-4.0 -6.55 -3.95 -6.85 -3.95 -7.15 -4.25 -7.8 -4.55 -8.55 -4.5 -8.65 -4.25 -8.6 -2.85 -8.45 -2.75 -8.45 -0.3 -8.2 M-7.45 -4.5 L-7.5 -5.5 -6.85 -8.3 -6.8 -8.9 -5.75 -8.8 -5.8 -8.15 -5.6 -6.25 -6.0 -6.0 Q-6.4 -5.65 -6.3 -4.5 L-6.25 -4.5 -6.25 -4.1 Q-6.3 -2.4 -7.3 -1.25 L-7.45 -4.5" fill="#313531" fill-rule="evenodd" stroke="none"/>
      <path d="M4.7 6.15 L4.7 6.25 3.75 6.15 3.1 6.15 1.8 6.3 0.6 6.35 0.35 5.35 0.3 5.75 0.25 5.95 -0.15 5.9 -1.15 5.65 -0.1 4.6 2.7 0.45 2.7 0.4 3.4 0.75 3.55 0.85 Q4.45 1.05 5.1 2.85 L5.7 4.0 6.1 5.0 6.2 5.3 5.05 5.6 4.9 5.65 4.5 5.75 4.7 6.15 M-4.1 4.95 L-4.1 4.3 -4.15 4.3 -4.5 3.75 -4.55 3.5 -4.55 3.45 -4.6 3.3 -4.75 3.3 -5.45 2.8 -6.9 1.8 -6.95 1.45 -6.9 1.45 -6.95 1.25 Q-7.65 -1.6 -7.45 -4.5 L-7.3 -1.25 Q-6.3 -2.4 -6.25 -4.1 L-6.25 -4.5 -6.3 -4.5 Q-6.4 -5.65 -6.0 -6.0 L-5.6 -6.25 -5.8 -8.15 -5.75 -8.8 -5.7 -8.8 -4.5 -8.65 -4.55 -8.55 -4.25 -7.8 -3.95 -7.15 -3.95 -6.85 -4.0 -6.55 -3.4 -6.4 Q-2.3 -6.0 -1.9 -5.6 L-1.7 -5.35 -1.45 -4.5 -1.5 -4.5 -1.4 -4.15 -2.25 -1.85 -2.35 -1.8 -2.65 -1.45 -2.95 -1.05 -2.95 -0.8 -3.15 1.0 -3.45 2.55 -3.7 3.75 -3.7 3.9 -3.55 5.05 -4.1 4.95" fill="#242724" fill-rule="evenodd" stroke="none"/>
    </g>
  </defs>
</svg>
