<?xml version="1.0" encoding="UTF-8" standalone="no"?>
<svg xmlns:ffdec="https://www.free-decompiler.com/flash" xmlns:xlink="http://www.w3.org/1999/xlink" ffdec:objectType="frame" height="81.15px" width="33.15px" xmlns="http://www.w3.org/2000/svg">
  <g transform="matrix(1.0, 0.0, 0.0, 1.0, 12.25, 39.25)">
    <use ffdec:characterId="1437" height="62.05" transform="matrix(1.0, 0.0, 0.0, 1.0, -11.45, -38.3)" width="21.6" xlink:href="#shape0"/>
  </g>
  <defs>
    <g id="shape0" transform="matrix(1.0, 0.0, 0.0, 1.0, 11.45, 38.3)">
      <path d="M-5.8 -0.95 L-5.55 -1.6 -4.1 -1.75 -2.65 -1.55 -2.95 -0.25 -3.15 0.7 -3.5 0.65 -4.4 0.75 -4.5 0.85 -4.5 1.7 -4.55 2.05 -4.5 2.25 -5.0 2.0 Q-6.0 1.4 -6.0 0.85 L-5.85 -0.25 -5.8 -0.55 -5.8 -0.95 M-1.45 2.35 L-1.2 1.65 -0.65 -0.25 -0.55 -0.75 0.5 -5.15 0.5 -5.25 0.5 -5.1 Q0.5 -1.35 0.9 3.0 L0.75 3.3 Q0.6 3.7 0.6 4.9 L0.6 6.2 0.7 6.4 Q0.85 6.95 1.4 7.15 L0.8 9.1 0.75 9.1 0.2 8.25 -0.4 7.4 -0.75 6.95 -1.4 6.15 -1.35 4.15 -1.35 3.6 -1.35 3.55 -1.45 2.35 M-5.05 8.25 L-4.3 8.75 -4.2 9.9 -4.25 12.5 -4.5 12.15 -4.65 11.9 -5.3 9.9 -5.5 9.25 -5.05 8.25" fill="#ebbb98" fill-rule="evenodd" stroke="none"/>
      <path d="M-2.65 -1.55 L-2.45 -1.5 Q-1.8 -1.15 -1.75 -0.25 L-1.75 -0.1 Q-1.75 0.65 -2.2 1.45 L-2.25 1.35 Q-2.45 0.8 -3.15 0.7 L-2.95 -0.25 -2.65 -1.55 M-1.9 2.5 L-1.5 2.5 -1.45 2.35 -1.35 3.55 -1.35 3.6 -1.35 4.15 -1.4 6.15 -1.55 6.15 -1.6 6.35 -1.85 6.2 Q-2.15 6.1 -2.4 7.35 L-2.65 8.55 -2.75 8.3 -2.75 7.85 Q-2.75 6.75 -3.05 6.05 L-3.05 5.8 Q-3.05 5.0 -3.75 4.7 L-3.7 4.5 -3.25 4.75 Q-2.9 4.75 -2.4 3.9 -1.9 3.1 -1.9 2.6 L-1.9 2.5 M5.85 11.9 L5.45 15.7 Q5.25 14.8 4.25 13.5 4.6 13.15 4.6 12.25 L4.4 12.0 4.4 11.9 4.15 11.2 4.05 11.0 5.25 9.25 Q5.4 10.15 5.9 11.3 L5.85 11.9 M-6.8 13.35 L-6.85 13.2 -7.0 11.9 -7.0 11.85 -7.05 11.5 -6.75 11.2 -6.55 10.95 -6.35 10.7 -6.15 10.45 -5.65 9.6 -5.6 9.45 -5.5 9.25 -5.3 9.9 -4.65 11.9 -4.5 12.15 -4.25 12.5 -4.2 9.9 -4.3 8.75 -3.4 8.55 -3.4 8.65 -3.15 10.0 -3.05 10.0 -3.8 11.9 -4.3 12.75 -5.3 12.3 -5.5 12.1 Q-6.55 12.45 -6.8 13.35 M1.4 7.15 L1.6 7.25 1.9 7.35 2.05 7.85 2.55 10.2 1.8 10.75 1.7 10.65 1.65 10.45 1.35 9.5 1.0 9.2 0.8 9.1 1.4 7.15" fill="#ffcc99" fill-rule="evenodd" stroke="none"/>
      <path d="M-5.2 -35.35 L-4.25 -36.55 -3.9 -36.85 -3.4 -37.25 Q-2.05 -38.25 -0.35 -38.3 5.2 -38.45 7.7 -36.1 9.45 -34.45 9.95 -33.05 L10.15 -32.0 Q10.15 -31.05 9.75 -30.2 L9.75 -30.15 9.7 -30.05 9.2 -29.4 7.2 -25.15 Q5.05 -21.2 4.5 -19.25 3.9 -17.1 3.55 -12.2 L3.0 -5.0 2.15 2.2 2.0 2.25 Q1.55 2.35 1.25 2.65 L0.9 3.0 Q0.5 -1.35 0.5 -5.1 L0.5 -5.25 0.5 -5.15 -0.55 -0.75 -0.6 -2.8 -0.5 -6.75 -0.1 -10.45 Q0.5 -14.4 1.5 -18.2 2.45 -22.0 1.5 -27.35 L1.2 -27.75 0.6 -23.15 1.0 -22.05 1.35 -21.0 1.15 -19.85 0.75 -18.6 Q0.6 -18.2 0.6 -17.1 L0.6 -15.55 -0.7 -6.85 -0.9 -4.55 -1.1 -0.25 -1.2 1.25 -1.2 1.65 -1.45 2.35 -1.5 2.5 -1.9 2.5 Q-1.9 1.85 -2.2 1.5 L-2.2 1.45 Q-1.75 0.65 -1.75 -0.1 L-1.75 -0.25 Q-1.8 -1.15 -2.45 -1.5 L-2.65 -1.55 -4.1 -1.75 -5.55 -1.6 -5.8 -0.95 -6.0 -1.2 -6.75 -2.0 Q-7.75 -3.1 -7.85 -4.1 L-7.65 0.0 -7.4 1.2 -7.35 1.5 Q-7.1 2.35 -7.1 3.3 L-7.7 5.7 Q-6.4 6.5 -6.2 8.55 L-7.6 6.15 -8.95 3.45 Q-9.5 2.05 -9.5 0.85 L-9.45 -0.25 Q-9.1 -4.4 -6.35 -11.6 -3.25 -19.8 -3.25 -24.1 L-3.65 -29.25 -3.9 -29.8 -4.5 -30.8 Q-5.25 -32.0 -5.25 -34.7 L-5.25 -35.2 -5.2 -35.35 M-2.9 -8.25 Q-3.7 -8.25 -3.95 -7.4 L-4.1 -5.85 -4.05 -5.7 -4.2 -4.05 -4.1 -3.8 -3.85 -3.4 -2.4 -2.4 Q-2.0 -2.9 -1.7 -4.3 L-1.5 -6.35 -1.5 -6.85 Q-1.7 -8.25 -2.9 -8.25" fill="#82add7" fill-rule="evenodd" stroke="none"/>
      <path d="M-5.2 -35.35 L-5.25 -35.2 -5.25 -35.3 -5.2 -35.35 M9.7 -30.05 L9.75 -30.15 9.0 -18.55 7.9 -5.0 7.5 4.05 7.75 5.65 7.9 6.4 8.25 9.5 8.25 10.2 8.25 10.4 8.0 10.15 7.7 9.8 Q7.05 8.9 6.6 6.95 L5.65 6.7 5.1 6.45 4.8 6.7 4.2 6.95 3.9 6.9 3.9 6.4 4.0 5.3 4.9 0.9 5.25 -0.3 Q5.25 -1.1 4.45 -1.2 L4.75 -6.0 Q5.2 -9.75 7.75 -19.05 9.4 -24.95 9.7 -30.05 M-7.0 11.9 L-7.05 11.9 -7.55 13.0 -9.75 16.75 -9.75 16.5 -8.85 13.95 -8.25 12.0 -8.25 6.5 -8.5 6.5 -8.95 7.35 -9.7 7.95 -11.45 9.25 -11.25 9.0 -10.1 5.8 -9.8 4.55 -9.65 2.25 -9.85 0.6 -9.95 -0.25 -10.0 -0.55 Q-10.65 -6.15 -10.5 -11.4 -10.4 -16.65 -8.15 -27.4 L-7.25 -30.95 -6.0 -34.05 -5.3 -31.45 -5.3 -31.3 -5.25 -30.3 -5.0 -26.05 Q-4.8 -23.35 -7.4 -17.35 -10.0 -11.4 -10.0 -4.85 L-9.7 -0.25 -9.35 2.35 -9.0 3.5 -7.0 9.5 -6.65 10.45 -6.65 10.5 -6.6 10.7 -6.55 10.95 -6.75 11.2 -7.05 11.5 -7.0 11.85 -7.0 11.9" fill="#aacdf0" fill-rule="evenodd" stroke="none"/>
      <path d="M-5.25 -35.2 L-5.25 -34.7 Q-5.25 -32.0 -4.5 -30.8 L-3.9 -29.8 -3.65 -29.25 -3.25 -24.1 Q-3.25 -19.8 -6.35 -11.6 -9.1 -4.4 -9.45 -0.25 L-9.5 0.85 Q-9.5 2.05 -8.95 3.45 L-7.6 6.15 -6.2 8.55 -6.15 9.45 -6.15 10.45 -6.35 10.7 -6.55 10.95 -6.6 10.7 -6.65 10.5 -6.65 10.45 -7.0 9.5 -9.0 3.5 -9.35 2.35 -9.7 -0.25 -10.0 -4.85 Q-10.0 -11.4 -7.4 -17.35 -4.8 -23.35 -5.0 -26.05 L-5.25 -30.3 -5.3 -31.3 -5.3 -31.45 -6.0 -34.05 -5.25 -35.3 -5.25 -35.2 M2.15 2.2 L3.0 -5.0 3.55 -12.2 Q3.9 -17.1 4.5 -19.25 5.05 -21.2 7.2 -25.15 L9.2 -29.4 9.7 -30.05 Q9.4 -24.95 7.75 -19.05 5.2 -9.75 4.75 -6.0 L4.45 -1.2 4.15 -1.25 Q3.0 -1.25 3.0 -0.45 L3.2 -0.15 3.15 0.0 Q3.15 0.55 3.45 0.8 3.25 1.9 2.3 2.15 L2.25 2.15 2.15 2.2 M4.0 5.3 L3.9 6.4 3.9 6.9 3.4 6.65 3.5 6.4 4.0 5.3" fill="#90bce7" fill-rule="evenodd" stroke="none"/>
      <path d="M-1.2 1.65 L-1.2 1.25 -1.1 -0.25 -0.9 -4.55 -0.7 -6.85 0.6 -15.55 0.6 -17.1 Q0.6 -18.2 0.75 -18.6 L1.15 -19.85 1.35 -21.0 1.0 -22.05 0.6 -23.15 1.2 -27.75 1.5 -27.35 Q2.45 -22.0 1.5 -18.2 0.5 -14.4 -0.1 -10.45 L-0.5 -6.75 -0.6 -2.8 -0.55 -0.75 -0.65 -0.25 -1.2 1.65" fill="#7091b1" fill-rule="evenodd" stroke="none"/>
      <path d="M-2.2 1.45 L-2.2 1.5 -2.25 2.05 -2.3 3.15 -3.35 3.25 -3.55 3.25 -4.3 3.15 -4.5 3.1 -4.5 2.35 -4.5 1.7 -4.5 0.85 -4.4 0.75 -3.5 0.65 -3.15 0.7 Q-2.45 0.8 -2.25 1.35 L-2.2 1.45 M2.0 2.25 L2.15 2.2 2.25 2.15 2.3 2.15 Q3.25 1.9 3.45 0.8 L3.5 0.15 3.25 -0.15 3.2 -0.15 3.0 -0.45 Q3.0 -1.25 4.15 -1.25 L4.45 -1.2 Q5.25 -1.1 5.25 -0.3 L4.9 0.9 4.15 3.1 Q3.15 5.5 2.35 5.5 L2.1 5.5 1.8 5.45 1.75 5.45 1.25 5.15 Q0.95 4.8 1.0 4.15 L1.0 4.05 1.0 4.0 Q1.0 3.4 1.25 2.95 L2.0 2.25 M0.8 9.1 L1.0 9.2 1.35 9.5 1.65 10.45 1.7 10.65 1.7 10.7 1.8 10.75 2.55 11.7 2.65 11.9 2.9 11.4 Q3.0 11.15 3.5 11.15 L3.55 11.15 3.8 11.3 4.35 11.9 4.4 12.0 4.6 12.25 Q4.6 13.15 4.25 13.5 L4.2 13.55 3.0 14.25 2.15 14.6 1.6 14.75 1.65 14.7 2.25 13.75 2.75 12.9 Q2.75 12.5 1.85 12.1 L1.55 12.0 1.25 12.0 1.0 11.9 0.45 11.25 0.4 11.25 0.65 11.9 0.65 12.15 0.2 13.05 0.1 13.2 -0.4 13.95 -0.8 14.25 -0.45 14.85 -0.4 14.95 Q-0.25 15.3 -0.25 15.6 -0.25 16.05 -0.4 16.25 L-1.65 14.1 Q-2.25 13.05 -2.25 12.05 L-2.2 11.9 -1.75 11.05 -1.7 11.0 Q-1.3 10.3 -1.4 10.1 L-1.05 10.1 -0.4 10.05 -0.25 10.05 -0.4 9.75 -0.95 8.6 -1.5 7.3 -1.75 6.65 -1.6 6.35 -1.55 6.15 -1.4 6.15 -0.75 6.95 -0.4 7.4 0.2 8.25 0.75 9.1 0.8 9.1 M-3.05 6.05 L-3.3 6.7 Q-3.6 7.25 -4.0 7.25 L-4.7 7.2 Q-5.5 7.05 -5.75 6.55 L-5.8 5.8 -5.8 5.65 -5.65 4.75 Q-5.5 4.5 -5.0 4.5 L-4.35 4.55 -3.75 4.7 Q-3.05 5.0 -3.05 5.8 L-3.05 6.05 M-4.3 12.75 L-3.5 13.3 Q-2.8 13.95 -2.8 14.5 L-2.85 14.9 -3.05 15.4 -3.55 16.35 -3.55 16.45 -3.75 16.5 -4.0 16.5 Q-4.6 16.5 -5.5 12.55 L-5.5 12.25 -5.3 12.3 -4.3 12.75" fill="#ff0000" fill-rule="evenodd" stroke="none"/>
      <path d="M-2.2 1.5 Q-1.9 1.85 -1.9 2.5 L-1.9 2.6 Q-1.9 3.1 -2.4 3.9 -2.9 4.75 -3.25 4.75 L-3.7 4.5 -4.05 3.9 -4.25 3.35 -4.3 3.15 -3.55 3.25 -3.35 3.25 -2.3 3.15 -2.25 2.05 -2.2 1.5 M0.9 3.0 L1.25 2.65 Q1.55 2.35 2.0 2.25 L1.25 2.95 Q1.0 3.4 1.0 4.0 L1.0 4.05 1.0 4.15 Q0.95 4.8 1.25 5.15 L1.75 5.45 1.8 5.45 2.1 5.5 2.35 5.5 Q3.15 5.5 4.15 3.1 L4.9 0.9 4.0 5.3 3.5 6.4 3.4 6.65 2.85 7.2 2.35 7.35 1.9 7.35 1.6 7.25 1.4 7.15 Q0.85 6.95 0.7 6.4 L0.6 6.2 0.6 4.9 Q0.6 3.7 0.75 3.3 L0.9 3.0 M5.45 15.7 L5.5 16.1 5.35 17.0 5.1 17.25 4.8 17.3 3.5 17.35 3.05 17.8 3.15 15.15 3.0 14.25 4.2 13.55 4.25 13.5 Q5.25 14.8 5.45 15.7 M0.85 19.25 L0.6 19.25 0.2 19.1 -0.4 18.8 -1.05 18.45 -1.0 17.8 Q-1.0 13.55 -2.45 14.55 L-2.85 14.9 -2.8 14.5 Q-2.8 13.95 -3.5 13.3 L-4.3 12.75 -3.8 11.9 -3.05 10.0 -3.15 10.0 -3.4 8.65 -3.4 8.55 -4.3 8.75 -5.05 8.25 -5.15 8.15 Q-5.9 7.35 -5.9 6.65 L-5.8 5.65 -5.8 5.8 -5.75 6.55 Q-5.5 7.05 -4.7 7.2 L-4.0 7.25 Q-3.6 7.25 -3.3 6.7 L-3.05 6.05 Q-2.75 6.75 -2.75 7.85 L-2.75 8.3 -2.65 8.55 -2.4 7.35 Q-2.15 6.1 -1.85 6.2 L-1.6 6.35 -1.75 6.65 -1.5 7.3 -0.95 8.6 -0.4 9.75 -0.25 10.05 -0.4 10.05 -1.05 10.1 -1.4 10.1 Q-1.3 10.3 -1.7 11.0 L-1.75 11.05 -2.2 11.9 -2.25 12.05 Q-2.25 13.05 -1.65 14.1 L-0.4 16.25 Q-0.25 16.05 -0.25 15.6 -0.25 15.3 -0.4 14.95 L-0.45 14.85 -0.8 14.25 -0.4 13.95 0.1 13.2 0.2 13.05 0.65 12.15 0.65 11.9 0.4 11.25 0.45 11.25 1.0 11.9 1.25 12.0 1.55 12.0 1.85 12.1 Q2.75 12.5 2.75 12.9 L2.25 13.75 1.65 14.7 Q0.6 15.3 0.6 16.45 0.6 17.35 0.9 18.05 L0.85 18.6 0.85 19.25 M-3.85 17.0 L-4.25 16.75 -6.35 15.35 Q-6.9 14.85 -6.9 14.0 L-6.8 13.35 Q-6.55 12.45 -5.5 12.1 L-5.3 12.3 -5.5 12.25 -5.5 12.55 Q-4.6 16.5 -4.0 16.5 L-3.75 16.5 -3.85 17.0 M3.2 -0.15 L3.25 -0.15 3.5 0.15 3.45 0.8 Q3.15 0.55 3.15 0.0 L3.2 -0.15 M1.7 10.65 L1.8 10.75 2.55 10.2 3.35 9.75 3.65 10.25 4.05 11.0 4.15 11.2 4.4 11.9 4.4 12.0 4.35 11.9 3.8 11.3 3.55 11.15 3.5 11.15 Q3.0 11.15 2.9 11.4 L2.65 11.9 2.55 11.7 1.8 10.75 1.7 10.7 1.7 10.65 M-4.5 1.7 L-4.5 2.35 -4.5 2.25 -4.55 2.05 -4.5 1.7" fill="#990000" fill-rule="evenodd" stroke="none"/>
      <path d="M5.35 17.0 L5.3 17.7 4.8 17.3 5.1 17.25 5.35 17.0 M3.35 22.1 L3.5 22.0 3.55 22.15 3.35 22.1" fill="#a58c7c" fill-rule="evenodd" stroke="none"/>
      <path d="M3.05 17.8 Q2.65 20.65 1.5 21.5 0.95 21.05 0.85 19.25 L0.85 18.6 0.9 18.05 Q0.6 17.35 0.6 16.45 0.6 15.3 1.65 14.7 L1.6 14.75 2.15 14.6 3.0 14.25 3.15 15.15 3.05 17.8 M-1.05 18.45 L-1.55 23.6 -2.4 23.75 Q-2.9 23.75 -3.2 22.85 L-3.25 23.0 -3.65 23.0 -3.8 19.75 -3.8 19.1 -3.9 17.9 -3.85 17.0 -3.75 16.5 -3.55 16.45 -3.55 16.35 -3.05 15.4 -2.85 14.9 -2.45 14.55 Q-1.0 13.55 -1.0 17.8 L-1.05 18.45" fill="#ffffff" fill-rule="evenodd" stroke="none"/>
      <path d="M-6.2 8.55 Q-6.4 6.5 -7.7 5.7 L-7.1 3.3 Q-7.1 2.35 -7.35 1.5 L-7.4 1.2 -7.65 0.0 -7.85 -4.1 Q-7.75 -3.1 -6.75 -2.0 L-6.0 -1.2 -5.8 -0.95 -5.8 -0.55 -5.85 -0.25 -6.0 0.85 Q-6.0 1.4 -5.0 2.0 L-4.5 2.25 -4.5 2.35 -4.5 3.1 -4.3 3.15 -4.25 3.35 -4.05 3.9 -3.7 4.5 -3.75 4.7 -4.35 4.55 -5.0 4.5 Q-5.5 4.5 -5.65 4.75 L-5.8 5.65 -5.9 6.65 Q-5.9 7.35 -5.15 8.15 L-5.05 8.25 -5.5 9.25 -5.6 9.45 -5.65 9.6 -6.15 10.45 -6.15 9.45 -6.2 8.55 M8.25 10.4 L8.0 15.25 7.75 15.25 6.2 11.9 5.85 11.9 5.9 11.3 Q5.4 10.15 5.25 9.25 L4.05 11.0 3.65 10.25 3.35 9.75 2.55 10.2 2.05 7.85 1.9 7.35 2.35 7.35 2.85 7.2 3.4 6.65 3.9 6.9 4.2 6.95 4.8 6.7 5.1 6.45 5.65 6.7 6.6 6.95 Q7.05 8.9 7.7 9.8 L8.0 10.15 8.25 10.4 M-2.9 -8.25 Q-1.7 -8.25 -1.5 -6.85 L-1.5 -6.35 -1.7 -4.3 Q-2.0 -2.9 -2.4 -2.4 L-3.85 -3.4 -4.1 -3.8 -4.2 -4.05 -4.05 -5.7 -4.1 -5.85 -3.95 -7.4 Q-3.7 -8.25 -2.9 -8.25" fill="#73667c" fill-rule="evenodd" stroke="none"/>
    </g>
  </defs>
</svg>
