<?xml version="1.0" encoding="UTF-8" standalone="no"?>
<svg xmlns:ffdec="https://www.free-decompiler.com/flash" xmlns:xlink="http://www.w3.org/1999/xlink" ffdec:objectType="frame" height="81.15px" width="33.15px" xmlns="http://www.w3.org/2000/svg">
  <g transform="matrix(1.0, 0.0, 0.0, 1.0, 12.25, 39.25)">
    <use ffdec:characterId="1438" height="63.0" transform="matrix(1.0, 0.0, 0.0, 1.0, -12.25, -39.25)" width="25.75" xlink:href="#shape0"/>
  </g>
  <defs>
    <g id="shape0" transform="matrix(1.0, 0.0, 0.0, 1.0, 12.25, 39.25)">
      <path d="M-0.05 -39.1 L-0.05 -39.25 0.0 -39.25 0.75 -38.3 0.75 -38.25 1.65 -36.75 1.65 -36.6 4.5 -34.8 5.55 -34.1 5.95 -33.8 7.15 -32.9 Q8.35 -31.85 8.35 -31.3 L8.25 -30.7 8.0 -30.25 Q7.6 -29.55 6.85 -29.55 5.45 -29.55 5.25 -30.2 5.1 -30.55 5.25 -31.0 3.4 -31.25 3.45 -31.95 3.5 -32.3 3.9 -33.05 L1.15 -35.1 Q0.5 -35.6 0.5 -36.6 L0.1 -37.1 -0.15 -38.3 -0.05 -39.1 M7.55 -26.95 L7.95 -26.55 Q8.35 -26.05 8.35 -25.3 L8.3 -24.55 8.25 -24.3 6.8 -24.35 5.85 -24.5 5.3 -23.35 4.55 -22.8 5.25 -21.25 5.6 -20.6 5.5 -20.0 5.1 -19.8 5.15 -19.35 4.85 -15.75 4.7 -15.95 4.65 -15.55 4.4 -14.95 4.2 -14.65 3.75 -14.25 Q3.0 -13.8 1.75 -13.8 L1.45 -13.8 Q0.85 -13.85 0.55 -14.15 L0.4 -14.3 0.15 -15.0 0.1 -15.3 0.15 -15.85 0.6 -16.75 0.85 -17.0 1.25 -17.25 Q2.1 -17.75 3.5 -17.75 L3.6 -17.75 4.15 -17.65 4.2 -17.65 4.2 -17.75 4.0 -20.15 4.0 -20.25 Q2.45 -21.15 2.65 -22.05 2.9 -23.1 2.5 -24.55 2.5 -26.05 3.1 -26.25 L3.95 -24.2 5.1 -26.5 Q5.75 -28.05 7.05 -27.3 L7.55 -26.95 M-0.65 -31.65 L0.7 -31.85 1.6 -32.0 1.75 -31.75 Q1.25 -31.05 -0.15 -30.3 -0.8 -29.95 -1.35 -29.75 L-1.65 -29.65 -2.75 -29.5 Q-3.5 -29.5 -3.8 -29.85 L-3.8 -29.9 -3.9 -30.1 -4.05 -30.8 -4.0 -31.5 -4.0 -31.65 -3.55 -31.6 -3.4 -31.55 -2.55 -31.4 -1.65 -31.5 -0.65 -31.65 M1.25 -24.65 Q1.1 -23.9 0.65 -23.65 L0.0 -23.5 -0.1 -23.5 Q-1.25 -23.55 -0.9 -24.6 L-0.85 -24.9 -0.5 -25.6 0.2 -25.95 0.3 -25.95 0.95 -25.9 1.25 -25.1 1.25 -24.65 M-1.15 -23.45 Q-1.0 -23.05 -1.0 -22.5 -1.0 -20.5 -2.6 -20.5 -3.2 -20.5 -3.55 -20.85 -4.05 -21.3 -4.15 -22.35 L-4.1 -22.75 -3.85 -23.35 -3.75 -23.45 -3.25 -23.85 -2.65 -24.0 -2.55 -24.05 Q-1.5 -24.2 -1.15 -23.45 M5.0 -12.8 L6.8 -15.45 8.5 -17.75 7.25 -13.55 6.65 -11.85 6.55 -11.55 6.5 -11.35 7.0 -10.45 7.45 -9.45 7.5 -9.4 7.65 -9.0 7.65 -8.85 7.6 -7.8 7.45 -7.3 7.4 -7.1 7.3 -6.9 7.05 -6.25 6.95 -5.9 6.75 -5.15 6.65 -5.8 6.65 -6.25 6.65 -6.4 6.55 -7.25 6.2 -8.45 5.95 -9.5 5.85 -9.9 5.25 -8.85 5.1 -8.6 4.05 -7.2 4.0 -7.15 3.35 -6.5 3.15 -6.25 3.1 -6.25 2.85 -6.05 Q2.5 -5.8 2.0 -5.7 L1.25 -5.4 0.5 -4.65 Q0.15 -4.0 0.15 -3.0 0.15 -1.95 -0.25 -1.1 L-0.55 -0.55 -0.6 -0.45 -0.85 -0.25 -1.1 -0.1 -1.6 0.0 -1.75 0.0 Q-2.5 -0.05 -2.65 -0.6 L-2.65 -1.25 -2.6 -1.55 -2.25 -2.5 -1.9 -3.1 -0.9 -4.5 -0.6 -4.9 0.3 -5.95 0.4 -6.05 0.6 -6.25 1.0 -7.4 1.05 -7.7 1.1 -8.5 Q1.45 -9.35 2.65 -9.2 L2.95 -9.15 3.4 -10.0 3.6 -10.4 3.95 -11.05 4.2 -11.5 5.0 -12.8 M2.0 2.25 L2.15 2.2 2.25 2.15 2.3 2.15 Q3.25 1.9 3.45 0.8 L3.5 0.15 3.25 -0.15 3.2 -0.15 3.0 -0.45 Q3.0 -1.25 4.15 -1.25 L4.45 -1.2 Q5.0 -1.15 5.2 -0.7 L5.25 -0.3 4.9 0.9 4.7 1.6 4.2 3.0 4.15 3.1 3.95 3.5 Q3.1 5.5 2.35 5.5 L2.1 5.5 1.8 5.45 1.75 5.45 1.25 5.15 Q0.95 4.8 1.0 4.15 L1.0 4.05 1.0 4.0 1.05 3.5 1.25 2.95 2.0 2.25 M7.35 -2.3 L7.1 0.0 6.75 -0.3 6.25 1.1 5.9 0.05 5.7 -0.65 5.6 -1.3 6.0 -2.2 6.75 -3.15 7.1 -2.9 7.35 -2.3 M-4.5 1.7 L-4.5 0.85 -4.4 0.75 -3.5 0.65 -3.15 0.7 Q-2.45 0.8 -2.25 1.35 L-2.2 1.45 -2.2 1.5 -2.25 2.05 -2.3 3.15 -3.35 3.25 -3.55 3.25 -4.3 3.15 -4.5 3.1 -4.5 2.35 -4.5 1.7 M-1.4 6.15 L-0.75 6.95 -0.4 7.4 0.2 8.25 0.75 9.1 0.8 9.1 1.0 9.2 1.35 9.5 1.65 10.45 1.7 10.65 1.7 10.7 1.8 10.75 2.55 11.7 2.65 11.9 2.9 11.4 Q3.0 11.15 3.5 11.15 L3.55 11.15 3.8 11.3 4.35 11.9 4.4 12.0 4.6 12.25 Q4.6 13.15 4.25 13.5 L4.2 13.55 3.0 14.25 2.15 14.6 1.6 14.75 1.65 14.7 2.25 13.75 2.75 12.9 Q2.75 12.5 1.85 12.1 L1.55 12.0 1.25 12.0 1.0 11.9 0.45 11.25 0.4 11.25 0.65 11.9 0.65 12.15 0.2 13.05 0.1 13.2 -0.4 13.95 -0.8 14.25 -0.45 14.85 -0.4 14.95 Q-0.25 15.3 -0.25 15.6 -0.25 16.05 -0.4 16.25 L-1.65 14.1 Q-2.25 13.05 -2.25 12.05 L-2.2 11.9 -1.75 11.05 -1.7 11.0 Q-1.3 10.3 -1.4 10.1 L-1.05 10.1 -0.4 10.05 -0.25 10.05 -0.4 9.75 -0.95 8.6 -1.5 7.3 -1.75 6.65 -1.6 6.35 -1.55 6.15 -1.4 6.15 M-3.75 4.7 Q-3.05 5.0 -3.05 5.8 L-3.05 6.05 -3.3 6.7 Q-3.6 7.25 -4.0 7.25 L-4.7 7.2 Q-5.5 7.05 -5.75 6.55 L-5.8 5.8 -5.8 5.65 -5.65 4.75 Q-5.5 4.5 -5.0 4.5 L-4.35 4.55 -3.75 4.7 M-4.3 12.75 L-3.5 13.3 Q-2.8 13.95 -2.8 14.5 L-2.85 14.9 -3.05 15.4 -3.55 16.35 -3.55 16.45 -3.75 16.5 -4.0 16.5 Q-4.6 16.5 -5.5 12.55 L-5.5 12.25 -5.3 12.3 -4.3 12.75" fill="#ff0000" fill-rule="evenodd" stroke="none"/>
      <path d="M8.25 -30.7 L8.35 -30.4 Q8.35 -29.75 7.95 -28.6 L7.5 -27.1 7.55 -26.95 7.05 -27.3 Q5.75 -28.05 5.1 -26.5 L3.95 -24.2 3.1 -26.25 Q2.5 -26.05 2.5 -24.55 2.9 -23.1 2.65 -22.05 2.45 -21.15 4.0 -20.25 L4.0 -20.15 3.5 -20.25 Q2.5 -20.45 1.9 -20.9 L1.5 -21.35 Q1.1 -22.0 1.1 -23.15 L1.15 -23.7 0.9 -23.15 0.65 -22.8 0.0 -22.5 -0.1 -22.5 -0.75 -22.65 -1.0 -22.85 -0.85 -22.25 -0.8 -21.4 -1.05 -20.45 -1.25 -20.2 Q-1.6 -19.8 -2.25 -19.8 L-2.8 -19.8 -3.7 -20.1 -4.4 -20.95 -4.5 -21.65 -4.25 -22.85 -3.85 -23.35 -4.1 -22.75 -4.15 -22.35 Q-4.05 -21.3 -3.55 -20.85 -3.2 -20.5 -2.6 -20.5 -1.0 -20.5 -1.0 -22.5 -1.0 -23.05 -1.15 -23.45 L-1.15 -23.6 -0.85 -24.9 -0.9 -24.6 Q-1.25 -23.55 -0.1 -23.5 L0.0 -23.5 0.65 -23.65 Q1.1 -23.9 1.25 -24.65 L1.25 -24.3 1.25 -24.05 1.75 -25.7 1.95 -26.25 Q2.9 -28.65 3.75 -29.25 L3.2 -29.8 2.35 -30.7 Q0.45 -29.0 -1.15 -28.6 L-1.6 -28.5 -2.05 -28.5 -2.1 -28.5 -3.0 -28.6 Q-3.4 -28.7 -3.6 -28.95 L-3.75 -29.15 -3.8 -29.55 -3.8 -29.85 Q-3.5 -29.5 -2.75 -29.5 L-1.65 -29.65 -1.35 -29.75 Q-0.8 -29.95 -0.15 -30.3 1.25 -31.05 1.75 -31.75 L1.6 -32.0 0.7 -31.85 0.95 -32.15 -0.3 -33.4 -0.5 -33.6 Q-1.25 -34.55 -1.55 -35.75 L-1.65 -36.25 -1.8 -37.8 -1.75 -38.1 -1.7 -38.25 Q-1.45 -38.75 -0.7 -39.05 L-0.05 -39.1 -0.15 -38.3 0.1 -37.1 0.5 -36.6 Q0.5 -35.6 1.15 -35.1 L3.9 -33.05 Q3.5 -32.3 3.45 -31.95 3.4 -31.25 5.25 -31.0 5.1 -30.55 5.25 -30.2 5.45 -29.55 6.85 -29.55 7.6 -29.55 8.0 -30.25 L8.25 -30.7 M8.3 -24.55 L8.4 -24.3 7.65 -22.8 Q5.75 -18.9 5.75 -16.8 L5.8 -16.3 5.95 -16.2 5.9 -15.8 6.1 -14.75 7.05 -16.35 Q8.05 -16.85 8.75 -18.3 L9.05 -18.9 9.45 -19.9 Q9.85 -18.8 9.85 -17.75 L9.8 -17.55 8.7 -15.25 Q7.9 -13.8 7.25 -13.55 L8.5 -17.75 6.8 -15.45 5.0 -12.8 Q4.75 -13.65 4.65 -14.95 L4.65 -15.55 4.7 -15.95 4.85 -15.75 5.15 -19.35 5.1 -19.8 5.5 -20.0 5.6 -20.6 5.25 -21.25 4.55 -22.8 5.3 -23.35 5.85 -24.5 6.8 -24.35 8.25 -24.3 8.3 -24.55 M5.45 15.7 L5.5 16.1 5.35 17.0 5.1 17.25 4.8 17.3 3.5 17.35 3.05 17.8 3.15 15.15 3.0 14.25 4.2 13.55 4.25 13.5 Q5.25 14.8 5.45 15.7 M0.85 19.25 L0.6 19.25 0.2 19.1 -0.4 18.8 -1.05 18.45 -1.0 17.8 Q-1.0 13.55 -2.45 14.55 L-2.85 14.9 -2.8 14.5 Q-2.8 13.95 -3.5 13.3 L-4.3 12.75 -3.8 11.9 -3.05 10.0 -3.15 10.0 -3.4 8.65 -3.4 8.55 -4.3 8.75 -5.05 8.25 -5.15 8.15 Q-5.9 7.35 -5.9 6.65 L-5.8 5.65 -5.8 5.8 -5.75 6.55 Q-5.5 7.05 -4.7 7.2 L-4.0 7.25 Q-3.6 7.25 -3.3 6.7 L-3.05 6.05 Q-2.75 6.75 -2.75 7.85 L-2.75 8.3 -2.65 8.55 -2.4 7.35 Q-2.15 6.1 -1.85 6.2 L-1.6 6.35 -1.75 6.65 -1.5 7.3 -0.95 8.6 -0.4 9.75 -0.25 10.05 -0.4 10.05 -1.05 10.1 -1.4 10.1 Q-1.3 10.3 -1.7 11.0 L-1.75 11.05 -2.2 11.9 -2.25 12.05 Q-2.25 13.05 -1.65 14.1 L-0.4 16.25 Q-0.25 16.05 -0.25 15.6 -0.25 15.3 -0.4 14.95 L-0.45 14.85 -0.8 14.25 -0.4 13.95 0.1 13.2 0.2 13.05 0.65 12.15 0.65 11.9 0.4 11.25 0.45 11.25 1.0 11.9 1.25 12.0 1.55 12.0 1.85 12.1 Q2.75 12.5 2.75 12.9 L2.25 13.75 1.65 14.7 Q0.6 15.3 0.6 16.45 0.6 17.35 0.9 18.05 L0.85 18.6 0.85 19.25 M-3.85 17.0 L-4.25 16.75 -6.35 15.35 Q-6.9 14.85 -6.9 14.0 L-6.8 13.35 Q-6.55 12.45 -5.5 12.1 L-5.3 12.3 -5.5 12.25 -5.5 12.55 Q-4.6 16.5 -4.0 16.5 L-3.75 16.5 -3.85 17.0 M0.15 -15.85 L0.1 -15.3 0.15 -15.0 0.4 -14.3 0.55 -14.15 Q0.85 -13.85 1.45 -13.8 L1.75 -13.8 Q3.0 -13.8 3.75 -14.25 L4.2 -14.65 4.0 -14.1 3.8 -13.65 3.65 -13.4 Q2.95 -12.5 1.75 -12.5 L0.85 -12.6 0.3 -12.85 0.2 -12.95 Q-0.25 -13.3 -0.25 -14.0 L-0.15 -14.85 0.15 -15.85 M7.5 -9.4 L7.45 -9.45 7.0 -10.45 6.5 -11.35 6.55 -11.55 7.05 -10.55 7.1 -10.45 7.45 -9.5 7.5 -9.4 M5.95 -9.5 L6.2 -8.45 6.55 -7.25 6.65 -6.4 6.65 -6.25 6.65 -5.8 6.75 -5.15 6.95 -5.9 7.05 -6.25 7.3 -6.9 7.25 -6.25 7.2 -6.0 7.0 -3.5 7.1 -3.05 7.15 -3.0 7.25 -2.75 7.5 -2.05 Q7.5 -0.9 7.1 0.4 L6.8 1.2 Q6.3 2.25 5.5 2.25 4.95 2.25 4.75 1.85 L4.45 3.5 4.05 5.05 4.0 5.3 3.5 6.4 3.4 6.65 2.85 7.2 2.35 7.35 1.9 7.35 1.6 7.25 1.4 7.15 Q0.85 6.95 0.7 6.4 L0.6 6.2 0.6 4.9 0.7 3.5 0.75 3.3 0.9 3.0 1.25 2.65 Q1.55 2.35 2.0 2.25 L1.25 2.95 1.05 3.5 1.0 4.0 1.0 4.05 1.0 4.15 Q0.95 4.8 1.25 5.15 L1.75 5.45 1.8 5.45 2.1 5.5 2.35 5.5 Q3.1 5.5 3.95 3.5 L4.15 3.1 4.2 3.0 4.7 1.6 4.9 0.9 5.25 -0.3 5.2 -0.7 5.75 -2.15 5.5 -3.05 5.25 -4.0 5.4 -5.2 5.55 -6.25 5.65 -6.95 5.8 -8.1 5.95 -9.5 M-2.25 -2.5 L-2.6 -1.55 -2.65 -1.25 -2.65 -0.6 Q-2.5 -0.05 -1.75 0.0 L-1.6 0.0 -1.1 -0.1 -0.85 -0.25 -0.6 -0.45 -0.55 -0.55 -0.25 -1.1 Q0.15 -1.95 0.15 -3.0 0.15 -4.0 0.5 -4.65 L1.25 -5.4 2.0 -5.7 Q2.5 -5.8 2.85 -6.05 L3.1 -6.25 3.15 -6.25 3.1 -6.1 2.45 -5.15 2.3 -4.85 2.15 -4.65 Q1.6 -3.9 0.65 -4.15 L0.75 -1.55 0.75 -1.45 0.75 -1.4 0.75 -1.3 0.75 -1.25 0.75 -0.65 0.7 -0.15 0.7 -0.2 0.6 0.1 0.05 0.95 -0.5 1.1 -0.6 1.1 -1.05 1.1 -1.15 1.05 -1.5 1.0 -1.9 0.8 -2.1 0.7 -2.65 -0.1 -2.8 -0.8 -2.8 -1.4 -2.75 -1.6 -2.6 -1.95 -2.25 -2.5 M3.45 0.8 Q3.15 0.55 3.15 0.0 L3.2 -0.15 3.25 -0.15 3.5 0.15 3.45 0.8 M7.35 -2.3 L7.1 -2.9 6.75 -3.15 6.0 -2.2 5.6 -1.3 5.7 -0.65 5.9 0.05 6.25 1.1 6.75 -0.3 7.1 0.0 7.35 -2.3 M-4.5 2.25 L-4.55 2.05 -4.5 1.7 -4.5 2.35 -4.5 2.25 M-2.2 1.5 Q-1.9 1.85 -1.9 2.5 L-1.9 2.6 -2.15 3.5 -2.4 3.9 Q-2.9 4.75 -3.25 4.75 L-3.7 4.5 -4.05 3.9 -4.2 3.5 -4.25 3.35 -4.3 3.15 -3.55 3.25 -3.35 3.25 -2.3 3.15 -2.25 2.05 -2.2 1.5 M2.55 10.2 L3.35 9.75 3.65 10.25 4.05 11.0 4.15 11.2 4.4 11.9 4.4 12.0 4.35 11.9 3.8 11.3 3.55 11.15 3.5 11.15 Q3.0 11.15 2.9 11.4 L2.65 11.9 2.55 11.7 1.8 10.75 1.7 10.7 1.7 10.65 1.8 10.75 2.55 10.2" fill="#990000" fill-rule="evenodd" stroke="none"/>
      <path d="M9.8 -17.55 L10.75 -18.75 Q9.75 -16.8 8.85 -13.55 L8.45 -12.0 8.35 -11.6 7.45 -10.95 7.35 -10.85 7.05 -10.55 6.55 -11.55 6.65 -11.85 7.25 -13.55 Q7.9 -13.8 8.7 -15.25 L9.8 -17.55 M5.85 11.9 L5.45 15.7 Q5.25 14.8 4.25 13.5 4.6 13.15 4.6 12.25 L4.4 12.0 4.4 11.9 4.15 11.2 4.05 11.0 5.25 9.25 Q5.4 10.15 5.9 11.3 L5.85 11.9 M-6.8 13.35 L-6.85 13.2 -7.0 11.9 -7.0 11.85 -7.05 11.5 -6.75 11.2 -6.55 10.95 -6.35 10.7 -6.15 10.45 -5.65 9.6 -5.6 9.45 -5.5 9.25 -5.3 9.9 -4.65 11.9 -4.5 12.15 -4.25 12.5 -4.2 9.9 -4.3 8.75 -3.4 8.55 -3.4 8.65 -3.15 10.0 -3.05 10.0 -3.8 11.9 -4.3 12.75 -5.3 12.3 -5.5 12.1 Q-6.55 12.45 -6.8 13.35 M-4.6 -34.5 L-4.5 -34.55 -2.75 -35.3 Q-2.05 -35.7 -1.65 -36.25 L-1.55 -35.75 -2.7 -34.2 -3.15 -33.5 -3.3 -33.55 -3.95 -33.75 -4.5 -34.35 -4.55 -34.45 -4.6 -34.5 M-0.3 -33.4 L0.95 -32.15 0.7 -31.85 -0.65 -31.65 -0.3 -33.4 M-1.15 -28.6 Q0.45 -29.0 2.35 -30.7 L3.2 -29.8 1.55 -27.9 1.3 -27.65 1.15 -27.45 0.3 -25.95 0.2 -25.95 -0.5 -25.6 -0.85 -27.25 -1.15 -28.6 M3.5 -20.25 L4.0 -20.15 4.2 -17.75 4.2 -17.65 4.15 -17.65 3.6 -17.75 3.5 -19.35 3.5 -20.25 M4.2 -14.65 L4.4 -14.95 4.65 -15.55 4.65 -14.95 Q4.75 -13.65 5.0 -12.8 L4.2 -11.5 3.95 -11.05 3.8 -13.65 4.0 -14.1 4.2 -14.65 M-1.85 -14.2 L-2.0 -14.15 -2.0 -14.1 -2.3 -14.0 -2.5 -16.7 -2.1 -17.05 -1.6 -17.4 -1.8 -15.0 -1.85 -14.2 M5.1 -8.6 L5.25 -8.85 5.85 -9.9 5.95 -9.5 5.8 -8.1 5.6 -8.25 5.2 -8.5 5.1 -8.6 M-3.15 0.7 L-2.95 -0.25 -2.8 -0.8 -2.65 -0.1 -2.1 0.7 -1.9 0.8 -2.2 1.45 -2.25 1.35 Q-2.45 0.8 -3.15 0.7 M-1.45 2.35 L-1.35 3.5 -1.35 3.55 -1.35 3.6 -1.35 4.15 -1.4 6.15 -1.55 6.15 -1.6 6.35 -1.85 6.2 Q-2.15 6.1 -2.4 7.35 L-2.65 8.55 -2.75 8.3 -2.75 7.85 Q-2.75 6.75 -3.05 6.05 L-3.05 5.8 Q-3.05 5.0 -3.75 4.7 L-3.7 4.5 -3.25 4.75 Q-2.9 4.75 -2.4 3.9 L-2.15 3.5 -1.9 2.6 -1.9 2.5 -1.5 2.5 -1.45 2.35 M0.8 9.1 L1.4 7.15 1.6 7.25 1.9 7.35 2.05 7.85 2.55 10.2 1.8 10.75 1.7 10.65 1.65 10.45 1.35 9.5 1.0 9.2 0.8 9.1" fill="#ffcc99" fill-rule="evenodd" stroke="none"/>
      <path d="M-9.75 -18.75 L-9.05 -22.85 -8.5 -22.6 Q-7.0 -22.0 -7.0 -20.35 L-7.25 -18.75 -9.75 -18.75 M-0.3 -33.4 L-0.65 -31.65 -1.65 -31.5 -1.75 -33.25 -3.15 -33.5 -2.7 -34.2 -1.55 -35.75 Q-1.25 -34.55 -0.5 -33.6 L-0.3 -33.4 M3.2 -29.8 L3.75 -29.25 Q2.9 -28.65 1.95 -26.25 L1.75 -25.7 1.25 -24.05 1.25 -24.3 1.25 -24.65 1.25 -25.1 0.95 -25.9 0.3 -25.95 1.15 -27.45 1.3 -27.65 1.55 -27.9 3.2 -29.8 M0.0 -22.5 L0.65 -22.8 0.9 -23.15 1.15 -23.7 1.1 -23.15 Q1.1 -22.0 1.5 -21.35 L1.9 -20.9 Q2.5 -20.45 3.5 -20.25 L3.5 -19.35 3.6 -17.75 3.5 -17.75 Q2.1 -17.75 1.25 -17.25 L0.85 -17.0 0.6 -16.75 0.15 -15.85 -0.15 -14.85 -1.85 -14.2 -1.8 -15.0 -1.6 -17.4 Q-0.25 -18.4 -0.25 -18.75 L0.0 -22.0 0.0 -22.5 M-0.5 -10.75 L-0.1 -11.15 0.05 -11.3 0.55 -12.0 0.85 -12.6 1.75 -12.5 Q2.95 -12.5 3.65 -13.4 L3.8 -13.65 3.95 -11.05 3.6 -10.4 3.45 -10.5 2.5 -10.75 -0.1 -10.3 -0.25 -10.25 -0.3 -10.25 -0.45 -10.2 Q-2.0 -9.6 -2.5 -9.5 L-2.5 -9.75 Q-1.4 -9.95 -0.5 -10.75 M0.7 -0.15 L0.9 3.0 0.75 3.3 0.7 3.5 0.6 4.9 0.6 6.2 0.7 6.4 Q0.85 6.95 1.4 7.15 L0.8 9.1 0.75 9.1 0.2 8.25 -0.4 7.4 -0.75 6.95 -1.4 6.15 -1.35 4.15 -1.35 3.6 -1.35 3.55 -1.35 3.5 -1.45 2.35 -1.2 1.65 -1.05 1.1 -0.6 1.1 -0.5 1.1 0.05 0.95 0.6 0.1 0.7 -0.2 0.7 -0.15 M-2.3 -14.0 Q-4.8 -13.0 -6.25 -11.0 -4.65 -15.0 -2.5 -16.7 L-2.3 -14.0 M-5.8 -0.95 L-5.55 -1.6 -4.1 -1.75 -2.75 -1.6 -2.8 -1.4 -2.8 -0.8 -2.95 -0.25 -3.15 0.7 -3.5 0.65 -4.4 0.75 -4.5 0.85 -4.5 1.7 -4.55 2.05 -4.5 2.25 -5.0 2.0 Q-6.0 1.4 -6.0 0.85 L-5.85 -0.25 -5.8 -0.55 -5.8 -0.95 M-5.05 8.25 L-4.3 8.75 -4.2 9.9 -4.25 12.5 -4.5 12.15 -4.65 11.9 -5.3 9.9 -5.5 9.25 -5.05 8.25" fill="#ebbb98" fill-rule="evenodd" stroke="none"/>
      <path d="M8.4 -24.3 L9.3 -26.15 9.6 -26.85 10.25 -28.25 10.75 -28.25 10.6 -26.4 10.6 -26.25 Q11.6 -26.55 12.2 -27.5 12.85 -28.45 13.35 -28.65 13.5 -29.0 13.5 -28.4 13.5 -27.9 12.15 -25.4 L10.0 -21.5 9.45 -19.9 9.05 -18.9 8.75 -18.3 Q8.05 -16.85 7.05 -16.35 L6.1 -14.75 5.9 -15.8 5.95 -16.2 5.8 -16.3 5.75 -16.8 Q5.75 -18.9 7.65 -22.8 L8.4 -24.3 M3.05 17.8 Q2.65 20.65 1.5 21.5 0.95 21.05 0.85 19.25 L0.85 18.6 0.9 18.05 Q0.6 17.35 0.6 16.45 0.6 15.3 1.65 14.7 L1.6 14.75 2.15 14.6 3.0 14.25 3.15 15.15 3.05 17.8 M-1.05 18.45 L-1.55 23.6 -2.4 23.75 Q-2.9 23.75 -3.2 22.85 L-3.25 23.0 -3.65 23.0 -3.8 19.75 -3.8 19.1 -3.9 17.9 -3.85 17.0 -3.75 16.5 -3.55 16.45 -3.55 16.35 -3.05 15.4 -2.85 14.9 -2.45 14.55 Q-1.0 13.55 -1.0 17.8 L-1.05 18.45" fill="#ffffff" fill-rule="evenodd" stroke="none"/>
      <path d="M8.85 -13.55 Q9.5 -14.2 11.8 -14.65 8.75 -10.4 8.1 -6.05 L8.05 -6.05 7.65 -6.05 7.3 -6.0 7.3 -6.25 7.4 -7.1 7.45 -7.3 7.6 -7.8 7.65 -8.85 7.65 -9.0 7.5 -9.4 7.45 -9.5 7.1 -10.45 7.05 -10.55 7.35 -10.85 7.45 -10.95 8.35 -11.6 8.45 -12.0 8.85 -13.55 M8.25 10.4 L8.0 15.25 7.75 15.25 6.2 11.9 5.85 11.9 5.9 11.3 Q5.4 10.15 5.25 9.25 L4.05 11.0 3.65 10.25 3.35 9.75 2.55 10.2 2.05 7.85 1.9 7.35 2.35 7.35 2.85 7.2 3.4 6.65 3.9 6.9 4.2 6.95 4.8 6.7 5.1 6.45 5.65 6.7 6.6 6.95 Q7.05 8.9 7.7 9.8 L8.0 10.15 8.25 10.4 M-7.2 -34.5 L-7.15 -34.6 -6.85 -35.1 Q-6.4 -36.1 -6.5 -37.25 L-5.2 -35.35 -4.6 -34.5 -4.55 -34.45 -4.5 -34.35 -3.95 -33.75 -3.3 -33.55 -3.15 -33.5 -1.75 -33.25 -1.65 -31.5 -2.55 -31.4 -3.4 -31.55 -3.55 -31.6 Q-3.75 -32.4 -4.25 -32.95 L-5.75 -34.0 -6.5 -34.25 -7.2 -34.5 M-2.05 -28.5 L-1.6 -28.5 -1.15 -28.6 -0.85 -27.25 -0.5 -25.6 -0.85 -24.9 -1.15 -23.6 -1.15 -23.45 Q-1.5 -24.2 -2.55 -24.05 L-2.65 -24.0 -3.25 -23.85 -3.75 -23.45 -3.85 -23.35 -4.25 -22.85 -4.7 -23.3 -5.2 -23.7 -6.25 -24.25 -5.0 -25.6 -4.5 -26.25 -4.35 -26.0 -4.25 -25.75 -3.3 -25.75 -2.25 -25.75 Q-2.35 -27.3 -2.05 -28.5 M-0.15 -14.85 L-0.25 -14.0 Q-0.25 -13.3 0.2 -12.95 L0.3 -12.85 0.85 -12.6 0.55 -12.0 0.05 -11.3 -0.1 -11.15 -0.5 -10.75 Q-0.65 -11.65 -1.25 -12.05 -2.1 -12.6 -2.1 -13.25 L-2.0 -14.1 -2.0 -14.15 -1.85 -14.2 -0.15 -14.85 M5.1 -8.6 L5.2 -8.5 5.6 -8.25 5.8 -8.1 5.65 -6.95 5.55 -6.25 5.4 -5.2 4.85 -5.7 4.75 -5.8 4.1 -6.45 4.0 -7.15 4.05 -7.2 5.1 -8.6 M3.4 -10.0 L2.95 -9.15 2.65 -9.2 Q1.45 -9.35 1.1 -8.5 L1.05 -7.7 0.8 -7.7 Q0.55 -7.7 0.2 -7.95 L-0.35 -8.25 -0.55 -8.2 Q-1.05 -8.15 -1.7 -7.55 L-1.5 -6.85 -1.5 -6.35 -1.7 -4.3 Q-2.0 -2.9 -2.4 -2.4 L-3.85 -3.4 -4.1 -3.8 -4.2 -4.05 -4.05 -5.7 -4.1 -5.85 -3.95 -7.4 Q-3.7 -8.25 -2.9 -8.25 L-2.2 -8.05 -1.8 -8.55 -0.55 -9.2 Q-0.45 -9.25 -0.45 -10.15 L-0.45 -10.2 -0.3 -10.25 -0.25 -10.25 -0.1 -10.3 2.5 -10.75 3.45 -10.5 3.4 -10.0 M-6.15 10.45 L-6.15 9.45 -6.2 8.55 Q-6.4 6.5 -7.7 5.7 L-7.15 3.5 -7.1 3.3 Q-7.1 2.35 -7.35 1.5 L-7.4 1.2 -7.65 0.0 -7.85 -4.1 Q-7.75 -3.1 -6.75 -2.0 L-6.0 -1.2 -5.8 -0.95 -5.8 -0.55 -5.85 -0.25 -6.0 0.85 Q-6.0 1.4 -5.0 2.0 L-4.5 2.25 -4.5 2.35 -4.5 3.1 -4.3 3.15 -4.25 3.35 -4.2 3.5 -4.05 3.9 -3.7 4.5 -3.75 4.7 -4.35 4.55 -5.0 4.5 Q-5.5 4.5 -5.65 4.75 L-5.8 5.65 -5.9 6.65 Q-5.9 7.35 -5.15 8.15 L-5.05 8.25 -5.5 9.25 -5.6 9.45 -5.65 9.6 -6.15 10.45" fill="#73667c" fill-rule="evenodd" stroke="none"/>
      <path d="M5.35 17.0 L5.3 17.7 4.8 17.3 5.1 17.25 5.35 17.0 M-0.85 -22.25 L-1.0 -22.85 -0.75 -22.65 -0.85 -22.25 M7.3 -6.9 L7.4 -7.1 7.3 -6.25 7.3 -6.0 7.1 -3.15 7.1 -3.05 7.0 -3.5 7.2 -6.0 7.25 -6.25 7.3 -6.9 M3.35 22.1 L3.5 22.0 3.55 22.15 3.35 22.1" fill="#a58c7c" fill-rule="evenodd" stroke="none"/>
      <path d="M-3.8 -29.85 L-3.8 -29.55 -3.75 -29.15 -3.6 -28.95 -3.3 -25.75 -4.25 -25.75 -4.35 -26.0 -4.5 -26.25 -5.0 -25.6 -5.0 -26.05 -5.25 -29.5 -5.25 -30.3 -5.25 -30.35 Q-5.7 -32.15 -6.5 -34.25 L-5.75 -34.0 -4.25 -32.95 -4.0 -31.5 -4.05 -30.8 -3.9 -30.1 -3.8 -29.9 -3.8 -29.85 M-4.25 -22.85 L-4.5 -21.65 -4.4 -20.95 -3.7 -20.1 Q-4.45 -16.55 -6.35 -11.6 L-6.6 -10.85 -6.8 -10.4 -8.05 -6.75 -9.2 -2.15 -9.45 -0.25 -9.5 0.85 Q-9.5 2.05 -8.95 3.45 L-8.95 3.5 -7.6 6.15 -6.2 8.55 -6.15 9.45 -6.15 10.45 -6.35 10.7 -6.55 10.95 -6.6 10.7 -6.65 10.5 -6.65 10.45 -7.0 9.5 -9.0 3.5 -9.1 3.05 -9.35 2.35 -9.7 -0.25 -9.9 -2.6 -10.0 -4.85 -9.8 -8.1 -9.85 -8.1 -9.4 -10.75 -9.45 -10.7 -9.25 -11.5 -8.2 -15.25 -6.55 -19.45 Q-5.6 -21.95 -5.2 -23.7 L-4.7 -23.3 -4.25 -22.85 M4.0 -7.15 L4.1 -6.45 4.75 -5.8 4.45 -1.2 4.15 -1.25 Q3.0 -1.25 3.0 -0.45 L3.2 -0.15 3.15 0.0 Q3.15 0.55 3.45 0.8 3.25 1.9 2.3 2.15 L2.25 2.15 2.15 2.2 2.3 0.9 3.0 -5.0 3.1 -6.1 3.15 -6.25 3.35 -6.5 4.0 -7.15 M3.45 -10.5 L3.6 -10.4 3.4 -10.0 3.45 -10.5 M4.05 5.05 L3.9 6.4 3.9 6.9 3.4 6.65 3.5 6.4 4.0 5.3 4.05 5.05" fill="#90bce7" fill-rule="evenodd" stroke="none"/>
      <path d="M-3.6 -28.95 Q-3.4 -28.7 -3.0 -28.6 L-2.1 -28.5 -2.05 -28.5 Q-2.35 -27.3 -2.25 -25.75 L-3.3 -25.75 -3.6 -28.95 M-3.7 -20.1 L-2.8 -19.8 -2.25 -19.8 Q-1.6 -19.8 -1.25 -20.2 L-1.05 -20.45 -0.8 -21.4 -0.85 -22.25 -0.75 -22.65 -0.1 -22.5 0.0 -22.5 0.0 -22.0 -0.25 -18.75 Q-0.25 -18.4 -1.6 -17.4 L-2.1 -17.05 -2.5 -16.7 Q-4.65 -15.0 -6.25 -11.0 -4.8 -13.0 -2.3 -14.0 L-2.0 -14.1 -2.1 -13.25 Q-2.1 -12.6 -1.25 -12.05 -0.65 -11.65 -0.5 -10.75 -1.4 -9.95 -2.5 -9.75 L-2.5 -9.5 Q-2.0 -9.6 -0.45 -10.2 L-0.45 -10.15 Q-0.45 -9.25 -0.55 -9.2 L-1.8 -8.55 -2.2 -8.05 -2.9 -8.25 Q-3.7 -8.25 -3.95 -7.4 L-4.1 -5.85 -4.05 -5.7 -4.2 -4.05 -4.1 -3.8 -3.85 -3.4 -2.4 -2.4 Q-2.0 -2.9 -1.7 -4.3 L-1.5 -6.35 -1.5 -6.85 -1.7 -7.55 Q-1.05 -8.15 -0.55 -8.2 L-0.9 -4.55 -0.9 -4.5 -1.9 -3.1 -2.25 -2.5 -2.6 -1.95 -2.75 -1.6 -4.1 -1.75 -5.55 -1.6 -5.8 -0.95 -6.0 -1.2 -6.75 -2.0 Q-7.75 -3.1 -7.85 -4.1 L-7.65 0.0 -7.4 1.2 -7.35 1.5 Q-7.1 2.35 -7.1 3.3 L-7.15 3.5 -7.7 5.7 Q-6.4 6.5 -6.2 8.55 L-7.6 6.15 -8.95 3.5 -8.95 3.45 Q-9.5 2.05 -9.5 0.85 L-9.45 -0.25 -9.2 -2.15 -8.05 -6.75 -6.8 -10.4 -6.6 -10.85 -6.35 -11.6 Q-4.45 -16.55 -3.7 -20.1 M1.05 -7.7 L1.0 -7.4 0.6 -6.25 0.4 -6.05 0.3 -5.95 -0.6 -4.9 -0.35 -8.25 0.2 -7.95 Q0.55 -7.7 0.8 -7.7 L1.05 -7.7 M3.1 -6.1 L3.0 -5.0 2.3 0.9 2.15 2.2 2.0 2.25 Q1.55 2.35 1.25 2.65 L0.9 3.0 0.7 -0.15 0.75 -0.65 0.75 -1.25 0.75 -1.3 0.75 -1.4 0.75 -1.45 0.75 -1.55 0.65 -4.15 Q1.6 -3.9 2.15 -4.65 L2.3 -4.85 2.45 -5.15 3.1 -6.1 M-4.0 -31.5 L-4.25 -32.95 Q-3.75 -32.4 -3.55 -31.6 L-4.0 -31.65 -4.0 -31.5 M-1.9 0.8 L-1.5 1.0 -1.15 1.05 -1.2 1.25 -1.2 1.65 -1.45 2.35 -1.5 2.5 -1.9 2.5 Q-1.9 1.85 -2.2 1.5 L-2.2 1.45 -1.9 0.8" fill="#82add7" fill-rule="evenodd" stroke="none"/>
      <path d="M8.1 -6.05 L7.95 -4.4 7.65 1.2 7.85 6.4 7.9 6.4 8.25 9.5 8.25 10.2 8.25 10.4 8.0 10.15 7.7 9.8 Q7.05 8.9 6.6 6.95 L5.65 6.7 5.1 6.45 4.8 6.7 4.2 6.95 3.9 6.9 3.9 6.4 4.05 5.05 4.45 3.5 4.75 1.85 Q4.95 2.25 5.5 2.25 6.3 2.25 6.8 1.2 L7.1 0.4 Q7.5 -0.9 7.5 -2.05 L7.25 -2.75 7.15 -3.0 7.1 -3.05 7.1 -3.15 7.3 -6.0 7.65 -6.05 8.05 -6.05 8.1 -6.05 M-7.0 11.9 L-7.05 11.9 -7.55 13.0 -9.75 16.75 -9.75 16.5 -8.85 13.95 -8.25 12.0 -8.25 6.5 -8.5 6.5 -8.95 7.35 -9.7 7.95 -11.45 9.25 -11.25 9.0 -10.1 5.8 -9.8 4.55 -9.65 2.25 -9.7 2.1 -9.85 0.6 -9.95 -0.25 -10.0 -0.55 -10.2 -2.8 -10.55 -9.75 -10.5 -11.4 Q-10.5 -13.45 -10.1 -16.35 L-10.65 -17.25 -12.25 -19.5 -12.25 -19.75 -11.0 -18.75 -9.75 -18.75 -7.25 -18.75 -7.0 -20.35 Q-7.0 -22.0 -8.5 -22.6 L-9.05 -22.85 Q-10.35 -23.6 -10.75 -25.0 L-10.75 -25.5 -10.05 -25.25 -9.25 -25.0 Q-9.0 -25.0 -8.55 -25.35 L-8.5 -25.75 -8.25 -26.85 -8.25 -28.25 -8.35 -31.25 -9.35 -33.9 Q-8.05 -33.3 -7.2 -34.5 L-6.5 -34.25 Q-5.7 -32.15 -5.25 -30.35 L-5.25 -30.3 -5.25 -29.5 -5.0 -26.05 -5.0 -25.6 -6.25 -24.25 -5.2 -23.7 Q-5.6 -21.95 -6.55 -19.45 L-8.2 -15.25 -9.25 -11.5 -9.45 -10.7 -9.4 -10.75 -9.85 -8.1 -9.8 -8.1 -10.0 -4.85 -9.9 -2.6 -9.7 -0.25 -9.35 2.35 -9.1 3.05 -9.0 3.5 -7.0 9.5 -6.65 10.45 -6.65 10.5 -6.6 10.7 -6.55 10.95 -6.75 11.2 -7.05 11.5 -7.0 11.85 -7.0 11.9 M4.75 -5.8 L4.85 -5.7 5.4 -5.2 5.25 -4.0 5.5 -3.05 5.75 -2.15 5.2 -0.7 Q5.0 -1.15 4.45 -1.2 L4.75 -5.8" fill="#aacdf0" fill-rule="evenodd" stroke="none"/>
      <path d="M-0.6 -4.9 L-0.9 -4.5 -0.9 -4.55 -0.55 -8.2 -0.35 -8.25 -0.6 -4.9 M-1.15 1.05 L-1.05 1.1 -1.2 1.65 -1.2 1.25 -1.15 1.05" fill="#7091b1" fill-rule="evenodd" stroke="none"/>
    </g>
  </defs>
</svg>
