<?xml version="1.0" encoding="UTF-8" standalone="no"?>
<svg xmlns:ffdec="https://www.free-decompiler.com/flash" xmlns:xlink="http://www.w3.org/1999/xlink" ffdec:objectType="frame" height="82.75px" width="16.5px" xmlns="http://www.w3.org/2000/svg">
  <g transform="matrix(1.0, 0.0, 0.0, 1.0, 8.25, 9.5)">
    <use ffdec:characterId="2600" height="61.0" id="flames" transform="matrix(1.0, 0.0, 0.0, 1.0, -6.25, 12.25)" width="12.0" xlink:href="#sprite0"/>
    <use ffdec:characterId="2601" height="25.15" transform="matrix(1.0, 0.0, 0.0, 1.0, -8.25, -9.5)" width="16.5" xlink:href="#shape1"/>
    <use ffdec:characterId="2604" height="3.0" id="lights" transform="matrix(0.5167, 0.0, 0.0, 0.5, -7.7499, 2.5)" width="30.0" xlink:href="#sprite1"/>
  </g>
  <defs>
    <g id="sprite0" transform="matrix(1.0, 0.0, 0.0, 1.0, 6.0, 0.0)">
      <use ffdec:characterId="2599" height="61.0" transform="matrix(1.0, 0.0, 0.0, 1.0, -6.0, 0.0)" width="12.0" xlink:href="#shape0"/>
    </g>
    <g id="shape0" transform="matrix(1.0, 0.0, 0.0, 1.0, 6.0, 0.0)">
      <path d="M4.25 8.95 Q6.0 17.85 6.0 30.5 6.0 43.15 4.25 52.1 2.5 61.0 0.0 61.0 -2.5 61.0 -4.25 52.1 -6.0 43.15 -6.0 30.5 -6.0 17.85 -4.25 8.95 -2.5 0.0 0.0 0.0 2.5 0.0 4.25 8.95" fill="url(#gradient0)" fill-rule="evenodd" stroke="none"/>
    </g>
    <radialGradient cx="0" cy="0" fx="598.4" fy="0" gradientTransform="matrix(0.0, -0.0406, 0.0102, 0.0, 0.0, 30.5)" gradientUnits="userSpaceOnUse" id="gradient0" r="819.2" spreadMethod="pad">
      <stop offset="0.0" stop-color="#0000ff" stop-opacity="0.6"/>
      <stop offset="0.3215686274509804" stop-color="#bcbdfe" stop-opacity="0.49803922"/>
      <stop offset="0.8470588235294118" stop-color="#0000ff" stop-opacity="0.0"/>
    </radialGradient>
    <g id="shape1" transform="matrix(1.0, 0.0, 0.0, 1.0, 8.25, 9.5)">
      <path d="M7.75 -3.5 L7.75 -2.5 -7.75 -2.5 -7.75 -3.5 7.75 -3.5 M6.25 9.5 L6.25 10.5 4.9 10.5 -4.9 10.5 -6.25 10.5 -6.25 9.5 6.25 9.5 M5.55 12.0 L5.55 12.8 4.85 15.25 4.2 15.55 4.2 12.25 4.2 12.0 5.55 12.0 M2.9 12.25 L2.7 15.65 -2.65 15.65 -2.85 12.25 -2.9 12.0 2.9 12.0 2.9 12.25 M-4.2 12.25 L-4.2 15.55 -4.85 15.25 -5.5 12.8 -5.5 12.0 -4.2 12.0 -4.2 12.25" fill="#545454" fill-rule="evenodd" stroke="none"/>
      <path d="M4.9 10.5 L4.9 11.15 4.2 11.15 4.2 12.0 4.2 12.25 2.9 12.25 2.9 12.0 3.0 11.25 -2.95 11.25 -2.9 12.0 -2.85 12.25 -4.2 12.25 -4.2 12.0 -4.2 11.15 -4.9 11.15 -4.9 10.5 4.9 10.5 M-7.75 3.5 L-7.75 2.5 -6.85 2.5 -6.85 3.5 -7.75 3.5 M5.1 2.5 L6.85 2.5 6.85 3.5 5.1 3.5 5.1 2.5 M2.7 2.5 L2.7 3.5 0.0 3.5 0.0 2.5 2.7 2.5 M-2.65 2.5 L-2.65 3.5 -5.05 3.5 -5.05 2.5 -2.65 2.5" fill="#202020" fill-rule="evenodd" stroke="none"/>
      <path d="M4.9 11.15 Q5.45 11.25 5.55 12.0 L4.2 12.0 4.2 11.15 4.9 11.15 M-5.5 12.0 Q-5.45 11.25 -4.9 11.15 L-4.2 11.15 -4.2 12.0 -5.5 12.0 M-2.9 12.0 L-2.95 11.25 3.0 11.25 2.9 12.0 -2.9 12.0" fill="#787878" fill-rule="evenodd" stroke="none"/>
      <path d="M1.05 -1.05 L1.5 0.0 Q1.5 0.65 1.05 1.1 0.65 1.5 0.0 1.5 -0.6 1.5 -1.05 1.1 -1.5 0.65 -1.5 0.0 L-1.05 -1.05 0.0 -1.5 1.05 -1.05" fill="#b8bdc6" fill-rule="evenodd" stroke="none"/>
      <path d="M7.75 3.5 L7.75 4.0 6.85 4.0 6.85 3.5 7.75 3.5 M5.1 3.5 L5.1 4.0 2.7 4.0 2.7 3.5 5.1 3.5 M0.0 3.5 L0.0 4.0 -2.65 4.0 -2.65 3.5 0.0 3.5 M-5.05 3.5 L-5.05 4.0 -6.85 4.0 -6.85 3.5 -5.05 3.5" fill="#666666" fill-rule="evenodd" stroke="none"/>
      <path d="M7.75 2.5 L7.75 3.5 6.85 3.5 6.85 2.5 7.75 2.5 M5.1 2.5 L5.1 3.5 2.7 3.5 2.7 2.5 5.1 2.5 M0.0 3.5 L-2.65 3.5 -2.65 2.5 0.0 2.5 0.0 3.5 M-5.05 2.5 L-5.05 3.5 -6.85 3.5 -6.85 2.5 -5.05 2.5" fill="#515151" fill-rule="evenodd" stroke="none"/>
      <path d="M-7.75 4.0 L-7.75 3.5 -6.85 3.5 -6.85 4.0 -7.75 4.0 M5.1 4.0 L5.1 3.5 6.85 3.5 6.85 4.0 5.1 4.0 M0.0 4.0 L0.0 3.5 2.7 3.5 2.7 4.0 0.0 4.0 M-2.65 3.5 L-2.65 4.0 -5.05 4.0 -5.05 3.5 -2.65 3.5" fill="#3c3c3c" fill-rule="evenodd" stroke="none"/>
      <path d="M7.75 -2.5 L8.25 -2.5 8.25 2.5 7.75 2.5 6.85 2.5 5.1 2.5 2.7 2.5 0.0 2.5 -2.65 2.5 -5.05 2.5 -6.85 2.5 -7.75 2.5 -8.25 2.5 -8.25 -2.5 -7.75 -2.5 7.75 -2.5 M1.05 -1.05 L0.0 -1.5 -1.05 -1.05 -1.5 0.0 Q-1.5 0.65 -1.05 1.1 -0.6 1.5 0.0 1.5 0.65 1.5 1.05 1.1 1.5 0.65 1.5 0.0 L1.05 -1.05" fill="url(#gradient1)" fill-rule="evenodd" stroke="none"/>
      <path d="M7.75 -4.5 L7.75 -3.5 -7.75 -3.5 -7.75 -4.5 7.75 -4.5 M7.75 4.0 L7.75 7.0 -7.75 7.0 -7.75 4.0 -6.85 4.0 -5.05 4.0 -2.65 4.0 0.0 4.0 2.7 4.0 5.1 4.0 6.85 4.0 7.75 4.0" fill="url(#gradient2)" fill-rule="evenodd" stroke="none"/>
      <path d="M-7.75 -4.5 L-7.75 -4.6 Q-7.75 -9.5 -2.75 -9.5 L2.75 -9.5 Q7.75 -9.5 7.75 -4.6 L7.75 -4.5 -7.75 -4.5" fill="url(#gradient3)" fill-rule="evenodd" stroke="none"/>
      <path d="M7.75 7.0 L7.4 8.5 Q7.1 9.5 6.25 9.5 L-6.25 9.5 Q-7.05 9.5 -7.35 8.5 L-7.75 7.0 7.75 7.0" fill="url(#gradient4)" fill-rule="evenodd" stroke="none"/>
    </g>
    <linearGradient gradientTransform="matrix(0.0102, 0.0, 0.0, 0.0042, 0.0, 15.3)" gradientUnits="userSpaceOnUse" id="gradient1" spreadMethod="pad" x1="-819.2" x2="819.2">
      <stop offset="0.0" stop-color="#dce7ef"/>
      <stop offset="0.11764705882352941" stop-color="#999999"/>
      <stop offset="0.30196078431372547" stop-color="#dce7ef"/>
      <stop offset="0.39215686274509803" stop-color="#dce7ef"/>
      <stop offset="0.6039215686274509" stop-color="#666666"/>
      <stop offset="1.0" stop-color="#dce7ef"/>
    </linearGradient>
    <linearGradient gradientTransform="matrix(0.0093, 0.0, 0.0, 0.0185, 0.0, 48.65)" gradientUnits="userSpaceOnUse" id="gradient2" spreadMethod="pad" x1="-819.2" x2="819.2">
      <stop offset="0.0" stop-color="#dce7ef"/>
      <stop offset="0.11764705882352941" stop-color="#6692bb"/>
      <stop offset="0.30196078431372547" stop-color="#dce7ef"/>
      <stop offset="0.39215686274509803" stop-color="#dce7ef"/>
      <stop offset="0.6039215686274509" stop-color="#426693"/>
      <stop offset="1.0" stop-color="#dce7ef"/>
    </linearGradient>
    <radialGradient cx="0" cy="0" gradientTransform="matrix(0.0, -0.0033, 0.0088, 0.0, -0.1, -7.65)" gradientUnits="userSpaceOnUse" id="gradient3" r="819.2" spreadMethod="pad">
      <stop offset="0.0" stop-color="#666666"/>
      <stop offset="1.0" stop-color="#000000"/>
    </radialGradient>
    <linearGradient gradientTransform="matrix(0.0093, 0.0, 0.0, 0.0185, 0.0, 63.55)" gradientUnits="userSpaceOnUse" id="gradient4" spreadMethod="pad" x1="-819.2" x2="819.2">
      <stop offset="0.0" stop-color="#c9d3da"/>
      <stop offset="0.11764705882352941" stop-color="#5d85aa"/>
      <stop offset="0.30196078431372547" stop-color="#c9d3da"/>
      <stop offset="0.39215686274509803" stop-color="#c6d0d8"/>
      <stop offset="0.6039215686274509" stop-color="#3c5d86"/>
      <stop offset="1.0" stop-color="#c9d3da"/>
    </linearGradient>
    <g id="sprite1" transform="matrix(1.0, 0.0, 0.0, 1.0, 15.0, 0.0)">
      <use ffdec:characterId="2602" height="3.0" transform="matrix(1.0, 0.0, 0.0, 1.0, -15.0, 0.0)" width="30.0" xlink:href="#shape2"/>
    </g>
    <g id="shape2" transform="matrix(1.0, 0.0, 0.0, 1.0, 15.0, 0.0)">
      <path d="M13.25 3.0 L13.25 2.0 15.0 2.0 15.0 3.0 13.25 3.0 M9.8 2.0 L9.8 3.0 5.2 3.0 5.2 2.0 9.8 2.0 M0.0 2.0 L0.0 3.0 -5.2 3.0 -5.2 2.0 0.0 2.0 M-9.8 3.0 L-13.25 3.0 -13.25 2.0 -9.8 2.0 -9.8 3.0" fill="#666666" fill-rule="evenodd" stroke="none"/>
      <path d="M13.25 2.0 L13.25 3.0 9.8 3.0 9.8 2.0 13.25 2.0 M5.2 2.0 L5.2 3.0 0.0 3.0 0.0 2.0 5.2 2.0 M-5.2 2.0 L-5.2 3.0 -9.8 3.0 -9.8 2.0 -5.2 2.0 M-13.25 3.0 L-15.0 3.0 -15.0 2.0 -13.25 2.0 -13.25 3.0" fill="#ffff00" fill-rule="evenodd" stroke="none"/>
      <path d="M13.25 2.0 L9.8 2.0 9.8 0.0 13.25 0.0 13.25 2.0 M5.2 0.0 L5.2 2.0 0.0 2.0 0.0 0.0 5.2 0.0 M-15.0 2.0 L-15.0 0.0 -13.25 0.0 -13.25 2.0 -15.0 2.0 M-9.8 0.0 L-5.2 0.0 -5.2 2.0 -9.8 2.0 -9.8 0.0" fill="#cccc00" fill-opacity="0.99607843" fill-rule="evenodd" stroke="none"/>
      <path d="M15.0 2.0 L13.25 2.0 13.25 0.0 15.0 0.0 15.0 2.0 M9.8 0.0 L9.8 2.0 5.2 2.0 5.2 0.0 9.8 0.0 M0.0 0.0 L0.0 2.0 -5.2 2.0 -5.2 0.0 0.0 0.0 M-13.25 0.0 L-9.8 0.0 -9.8 2.0 -13.25 2.0 -13.25 0.0" fill="#515151" fill-rule="evenodd" stroke="none"/>
    </g>
  </defs>
</svg>
