<?xml version="1.0" encoding="UTF-8" standalone="no"?>
<svg xmlns:ffdec="https://www.free-decompiler.com/flash" xmlns:xlink="http://www.w3.org/1999/xlink" ffdec:objectType="frame" height="265.95px" width="55.85px" xmlns="http://www.w3.org/2000/svg">
  <g transform="matrix(1.0, 0.0, 0.0, 1.0, 27.0, 92.75)">
    <use ffdec:characterId="1376" height="97.25" id="arm2" transform="matrix(1.0, 0.0, 0.0, 1.0, -9.95, -31.75)" width="16.8" xlink:href="#sprite0"/>
    <use ffdec:characterId="1388" height="140.0" id="leg2" transform="matrix(1.0, 0.0, 0.0, 1.0, -16.05, 33.2)" width="34.4" xlink:href="#sprite6"/>
    <use ffdec:characterId="1403" height="65.45" id="headOuter" transform="matrix(1.0, 0.0, 0.0, 1.0, -24.8, -92.75)" width="47.3" xlink:href="#sprite10"/>
    <use ffdec:characterId="1418" ffdec:characterName="game_fla.chest_750" height="109.7" id="chest" transform="matrix(1.0, 0.0, 0.0, 1.0, -27.0, -70.9)" width="55.85" xlink:href="#sprite14"/>
    <use ffdec:characterId="1429" ffdec:characterName="game_fla.pelvis_757" height="43.2" id="pelvis" transform="matrix(1.0, 0.0, 0.0, 1.0, -20.1, 17.9)" width="34.2" xlink:href="#sprite16"/>
    <use ffdec:characterId="1441" height="140.0" id="leg1" transform="matrix(0.9999, 0.0, 0.0, 0.9999, -14.8988, 33.201)" width="33.15" xlink:href="#sprite17"/>
    <use ffdec:characterId="1454" height="99.4" id="arm1" transform="matrix(1.0, 0.0, 0.0, 1.0, -10.1, -33.85)" width="17.25" xlink:href="#sprite21"/>
  </g>
  <defs>
    <g id="sprite0" transform="matrix(1.0, 0.0, 0.0, 1.0, 8.8, 10.95)">
      <use ffdec:characterId="1368" ffdec:characterName="game_fla.upperarm2_735" height="45.75" id="upperArm2" transform="matrix(1.0, 0.0, 0.0, 1.0, -8.8, -10.95)" width="16.8" xlink:href="#sprite1"/>
      <use ffdec:characterId="1375" height="59.9" id="lowerArmOuter2" transform="matrix(1.0, 0.0, 0.0, 1.0, -6.95, 26.4)" width="12.85" xlink:href="#sprite3"/>
    </g>
    <g id="sprite1" transform="matrix(1.0, 0.0, 0.0, 1.0, 8.5, 23.75)">
      <use ffdec:characterId="1364" height="43.8" transform="matrix(1.0, 0.0, 0.0, 1.0, -8.5, -22.0)" width="16.8" xlink:href="#shape0"/>
      <use ffdec:characterId="1081" height="100.0" id="shape" transform="matrix(0.15, 0.0, 0.0, 0.44, -7.4989, -21.9994)" width="100.0" xlink:href="#sprite2"/>
    </g>
    <g id="shape0" transform="matrix(1.0, 0.0, 0.0, 1.0, 8.5, 22.0)">
      <path d="M6.7 1.6 Q6.35 -2.45 6.3 -5.35 L6.25 -6.75 6.5 -10.85 6.75 -14.85 Q6.75 -17.7 4.5 -19.5 2.3 -21.25 -1.0 -21.25 -3.05 -21.25 -5.25 -20.0 L-5.65 -19.75 Q-3.9 -22.15 -0.3 -22.0 4.4 -21.85 6.25 -19.35 8.1 -16.85 8.1 -14.4 L7.95 -11.15 7.7 -5.45 7.65 -4.55 Q7.65 -3.3 7.8 -2.2 L8.0 -1.25 Q8.3 0.2 7.8 1.6 L8.3 1.65 7.05 1.6 6.7 1.6" fill="#a07acd" fill-rule="evenodd" stroke="none"/>
      <path d="M5.1 1.5 L4.05 -1.8 Q3.55 -3.55 3.65 -4.35 3.65 -5.2 4.1 -6.35 4.55 -7.6 4.85 -10.0 L5.15 -14.55 Q5.15 -16.75 3.05 -18.5 0.9 -20.25 -1.5 -20.25 -4.2 -20.25 -5.75 -16.5 -7.0 -13.45 -7.0 -9.6 -7.0 -7.8 -6.6 -5.6 L-6.25 -2.25 -6.25 -1.5 Q-6.25 -0.15 -6.7 1.05 -8.55 1.05 -8.5 0.4 L-8.45 -1.65 -8.4 -2.25 -8.25 -7.2 -8.2 -9.15 -7.5 -14.75 -7.4 -15.2 -7.15 -16.2 -6.5 -18.1 -5.65 -19.75 -5.25 -20.0 Q-3.05 -21.25 -1.0 -21.25 2.3 -21.25 4.5 -19.5 6.75 -17.7 6.75 -14.85 L6.5 -10.85 6.25 -6.75 6.3 -5.35 Q6.35 -2.45 6.7 1.6 L6.25 1.55 5.1 1.5" fill="#8667aa" fill-rule="evenodd" stroke="none"/>
      <path d="M-6.7 1.05 Q-6.25 -0.15 -6.25 -1.5 L-6.25 -2.25 -6.6 -5.6 Q-7.0 -7.8 -7.0 -9.6 -7.0 -13.45 -5.75 -16.5 -4.2 -20.25 -1.5 -20.25 0.9 -20.25 3.05 -18.5 5.15 -16.75 5.15 -14.55 L4.85 -10.0 Q4.55 -7.6 4.1 -6.35 3.65 -5.2 3.65 -4.35 3.55 -3.55 4.05 -1.8 L5.1 1.5 3.45 1.35 1.3 1.2 -6.0 1.0 -6.15 1.0 -6.35 1.0 -6.7 1.05" fill="#775d95" fill-rule="evenodd" stroke="none"/>
      <path d="M-6.15 1.0 L-6.0 1.0 1.3 1.2 3.45 1.35 5.1 1.5 6.25 1.55 6.2 3.75 4.15 3.75 2.55 3.65 -1.1 3.45 -1.1 4.0 -1.25 11.0 -1.9 6.7 -2.25 4.0 -2.3 3.4 -2.8 3.35 -5.2 3.65 -5.8 3.75 -6.2 3.55 -6.15 1.0" fill="#e2b181" fill-rule="evenodd" stroke="none"/>
      <path d="M6.2 3.75 L6.2 3.9 6.15 4.45 5.5 11.5 Q5.2 14.25 5.15 18.0 4.6 21.6 -0.75 21.8 -6.1 22.0 -6.35 13.8 L-6.2 3.55 -5.8 3.75 -5.2 3.65 -2.8 3.35 -2.3 3.4 -2.25 4.0 -1.9 6.7 -1.25 11.0 -1.1 4.0 -1.1 3.45 2.55 3.65 4.15 3.75 6.2 3.75" fill="#ffcc99" fill-rule="evenodd" stroke="none"/>
    </g>
    <g id="sprite2" transform="matrix(1.0, 0.0, 0.0, 1.0, 50.0, 50.0)">
      <use ffdec:characterId="1080" height="100.0" transform="matrix(1.0, 0.0, 0.0, 1.0, -50.0, -50.0)" width="100.0" xlink:href="#shape1"/>
    </g>
    <g id="shape1" transform="matrix(1.0, 0.0, 0.0, 1.0, 50.0, 50.0)">
      <path d="M50.0 50.0 L-50.0 50.0 -50.0 -50.0 50.0 -50.0 50.0 50.0 Z" fill="none" stroke="#9900ff" stroke-linecap="round" stroke-linejoin="round" stroke-width="0.05"/>
    </g>
    <g id="sprite3" transform="matrix(1.0, 0.0, 0.0, 1.0, 6.9, 4.65)">
      <use ffdec:characterId="1374" ffdec:characterName="game_fla.lowerarm2_737" height="59.9" id="lowerArm2" transform="matrix(1.0, 0.0, 0.0, 1.0, -6.9, -4.65)" width="12.85" xlink:href="#sprite4"/>
    </g>
    <g id="sprite4" transform="matrix(1.0, 0.0, 0.0, 1.0, 6.85, 27.2)">
      <use ffdec:characterId="1371" ffdec:characterName="game_fla.hand2_738" height="17.45" id="hand" transform="matrix(1.0, 0.0, 0.0, 1.0, -6.85, 15.25)" width="12.35" xlink:href="#sprite5"/>
      <use ffdec:characterId="1372" height="44.55" transform="matrix(1.0, 0.0, 0.0, 1.0, -6.05, -27.2)" width="11.3" xlink:href="#shape3"/>
      <use ffdec:characterId="1081" height="100.0" id="shape" transform="matrix(0.12, 0.0, 0.0, 0.54, -5.999, -27.0004)" width="100.0" xlink:href="#sprite2"/>
    </g>
    <g id="sprite5" transform="matrix(1.0, 0.0, 0.0, 1.0, 7.05, 5.95)">
      <use ffdec:characterId="1369" height="11.85" transform="matrix(1.0, 0.0, 0.0, 1.0, -5.4, -5.95)" width="10.7" xlink:href="#shape2"/>
    </g>
    <g id="shape2" transform="matrix(1.0, 0.0, 0.0, 1.0, 5.4, 5.95)">
      <path d="M0.7 -5.95 L4.3 -5.95 4.5 -4.95 5.0 -3.0 5.1 -2.7 5.15 -2.5 5.15 -2.4 3.9 1.65 Q3.65 2.7 2.95 3.15 L-1.3 2.25 -1.95 1.95 Q-1.1 3.55 0.7 3.65 L0.2 3.9 -5.3 2.9 -5.4 2.5 -5.15 0.7 -5.05 0.05 -4.45 -0.5 -0.25 -0.8 -0.2 -0.8 -0.2 -0.85 -0.6 -2.8 0.45 -3.8 Q0.9 -4.3 2.3 -4.1 L1.7 -5.15 1.35 -5.25 1.1 -5.3 0.7 -5.95 M-3.7 -3.9 L-3.7 -4.85 -3.7 -5.3 -3.65 -5.35 -3.6 -5.95 -3.0 -5.95 -3.0 -5.4 -3.3 -3.95 -3.7 -3.9" fill="#ffcc99" fill-rule="evenodd" stroke="none"/>
      <path d="M0.7 -5.95 L1.1 -5.3 1.35 -5.25 1.7 -5.15 2.3 -4.1 Q0.9 -4.3 0.45 -3.8 L-0.6 -2.8 -0.2 -0.85 -0.25 -0.8 -4.45 -0.5 -4.1 -1.75 -4.1 -1.9 -3.7 -3.9 -3.3 -3.95 -3.0 -5.4 -3.0 -5.95 0.7 -5.95" fill="#ebbb98" fill-rule="evenodd" stroke="none"/>
      <path d="M-5.3 2.9 L0.2 3.9 0.7 3.65 Q-1.1 3.55 -1.95 1.95 L-1.3 2.25 2.95 3.15 Q3.65 2.7 3.9 1.65 L5.15 -2.4 5.25 0.2 4.8 4.5 4.5 4.75 4.3 5.2 Q2.75 6.15 1.2 5.8 L-1.9 5.25 Q-3.4 5.0 -4.75 4.2 L-5.3 2.9" fill="#e2b181" fill-rule="evenodd" stroke="none"/>
    </g>
    <g id="shape3" transform="matrix(1.0, 0.0, 0.0, 1.0, 6.05, 27.2)">
      <path d="M-4.95 -24.85 Q-4.65 -25.75 -3.9 -26.3 -2.45 -27.35 0.65 -27.15 2.1 -27.05 3.1 -26.3 L3.75 -25.65 Q5.3 -23.8 5.25 -19.55 5.05 -12.3 4.45 -6.1 3.8 0.05 3.9 4.2 L3.8 9.95 3.85 10.25 4.0 13.1 Q4.4 14.6 4.4 15.6 4.4 16.2 4.1 16.2 L3.95 16.2 3.85 17.35 Q2.65 17.0 1.8 15.95 L1.5 15.55 0.35 15.55 -1.15 15.5 -3.4 15.5 Q-3.75 11.6 -4.15 9.25 L-4.9 3.25 -5.05 1.9 Q-5.75 -4.45 -6.0 -11.2 L-6.0 -12.35 Q-6.2 -17.9 -5.8 -21.4 L-5.1 -20.45 Q-4.8 -21.75 -5.15 -23.15 L-4.95 -24.85 M1.1 -8.5 L1.3 -9.05 1.05 -8.5 1.1 -8.5 M2.4 -16.6 Q2.4 -17.85 1.7 -19.85 L0.4 -23.15 0.3 -23.15 Q0.9 -20.15 0.9 -18.6 0.9 -17.4 1.2 -15.8 L1.45 -13.4 1.55 -12.0 1.3 -10.65 1.35 -10.25 1.4 -10.3 2.4 -16.6 M-3.15 9.65 L-3.15 10.7 -2.95 12.6 -2.75 14.9 -2.45 14.95 1.1 14.65 1.1 14.15 Q0.8 12.8 0.25 8.0 -0.2 4.0 -0.9 2.15 L-0.65 12.3 Q-0.65 13.0 -1.25 13.9 L-1.9 13.9 Q-2.0 13.1 -2.45 11.7 L-3.15 9.65" fill="#ffcc99" fill-rule="evenodd" stroke="none"/>
      <path d="M-5.8 -21.4 L-5.9 -22.8 Q-5.9 -23.8 -4.95 -24.85 L-5.15 -23.15 Q-4.8 -21.75 -5.1 -20.45 L-5.8 -21.4 M2.4 -16.6 L1.4 -10.3 1.35 -10.25 1.3 -10.65 1.55 -12.0 1.45 -13.4 1.2 -15.8 Q0.9 -17.4 0.9 -18.6 0.9 -20.15 0.3 -23.15 L0.4 -23.15 1.7 -19.85 Q2.4 -17.85 2.4 -16.6 M1.1 -8.5 L1.05 -8.5 1.3 -9.05 1.1 -8.5 M-3.15 9.65 L-2.45 11.7 Q-2.0 13.1 -1.9 13.9 L-1.25 13.9 Q-0.65 13.0 -0.65 12.3 L-0.9 2.15 Q-0.2 4.0 0.25 8.0 0.8 12.8 1.1 14.15 L1.1 14.65 -2.45 14.95 -2.75 14.9 -2.95 12.6 -3.15 10.7 -3.15 9.65" fill="#f4c398" fill-rule="evenodd" stroke="none"/>
    </g>
    <g id="sprite6" transform="matrix(1.0, 0.0, 0.0, 1.0, 14.4, 10.45)">
      <use ffdec:characterId="1381" ffdec:characterName="game_fla.upperleg2_740" height="74.4" id="upperLeg2" transform="matrix(1.0, 0.0, 0.0, 1.0, -14.4, -10.45)" width="30.0" xlink:href="#sprite7"/>
      <use ffdec:characterId="1387" height="80.9" id="lowerLegOuter2" transform="matrix(1.0, 0.0, 0.0, 1.0, -11.9, 48.65)" width="31.9" xlink:href="#sprite8"/>
    </g>
    <g id="sprite7" transform="matrix(1.0, 0.0, 0.0, 1.0, 16.25, 37.0)">
      <use ffdec:characterId="1377" height="74.2" transform="matrix(1.0, 0.0, 0.0, 1.0, -14.5, -36.8)" width="27.5" xlink:href="#shape4"/>
      <use ffdec:characterId="1081" height="100.0" id="shape" transform="matrix(0.24, 0.0, 0.0, 0.74, -11.9987, -36.9995)" width="100.0" xlink:href="#sprite2"/>
    </g>
    <g id="shape4" transform="matrix(1.0, 0.0, 0.0, 1.0, 14.5, 36.8)">
      <path d="M-7.1 -35.2 L-7.0 -35.25 -6.75 -35.4 -5.1 -36.0 -4.6 -36.15 -2.9 -36.55 2.9 -36.3 5.75 -35.25 7.75 -34.05 7.85 -33.95 8.75 -33.15 9.8 -31.9 Q10.85 -30.2 9.2 -27.25 L7.2 -23.5 Q5.75 -19.1 5.75 -15.25 L6.25 -6.0 6.0 0.0 4.8 -4.4 3.5 -9.0 3.5 -7.75 4.4 1.9 4.65 4.4 5.25 11.5 5.1 15.9 5.05 16.9 5.05 17.5 Q4.95 20.35 5.25 20.4 5.6 20.4 6.6 24.4 7.6 28.35 7.3 29.9 L7.0 31.6 6.75 32.0 6.35 33.0 5.7 34.15 4.8 35.3 Q3.25 36.8 0.9 37.05 L-1.5 37.4 -2.0 37.4 -3.3 37.15 Q-4.45 36.75 -5.4 35.9 L-5.7 35.45 -6.65 34.3 Q-7.3 33.65 -7.55 32.15 L-7.65 31.9 -7.9 31.05 Q-7.55 26.3 -6.0 19.6 L-5.2 15.9 -4.9 14.25 Q-4.0 9.25 -4.0 6.0 L-4.0 4.4 Q-4.3 -4.75 -7.6 -9.3 L-10.1 -12.45 Q-11.25 -14.05 -11.35 -18.35 -11.5 -22.7 -10.45 -28.25 -9.5 -33.5 -7.1 -35.2 M1.1 10.25 L0.15 4.4 0.1 4.25 -1.0 -3.0 -1.4 -16.5 -1.55 -16.5 -1.65 -10.75 Q-1.65 -2.0 -0.9 4.4 L-0.75 5.6 Q-0.05 10.85 0.1 15.9 L0.15 18.75 0.0 21.25 0.1 21.15 0.7 15.9 0.7 15.85 1.1 10.25" fill="#749bc1" fill-rule="evenodd" stroke="none"/>
      <path d="M1.1 10.25 L0.7 15.85 0.7 15.9 0.1 21.15 0.0 21.25 0.15 18.75 0.1 15.9 Q-0.05 10.85 -0.75 5.6 L-0.9 4.4 Q-1.65 -2.0 -1.65 -10.75 L-1.55 -16.5 -1.4 -16.5 -1.0 -3.0 0.1 4.25 0.15 4.4 1.1 10.25" fill="#64829f" fill-rule="evenodd" stroke="none"/>
      <path d="M-7.1 -35.2 Q-9.5 -33.5 -10.45 -28.25 -11.5 -22.7 -11.35 -18.35 -11.25 -14.05 -10.1 -12.45 L-7.6 -9.3 Q-4.3 -4.75 -4.0 4.4 L-4.0 6.0 Q-4.0 9.25 -4.9 14.25 L-5.2 15.9 -6.0 19.6 Q-7.55 26.3 -7.9 31.05 L-8.45 28.2 -8.45 28.05 -7.35 20.3 -6.65 15.9 -6.45 13.85 -6.25 10.35 Q-6.25 7.25 -6.5 4.4 -7.15 -2.85 -9.5 -8.65 L-11.75 -13.8 Q-12.75 -16.35 -13.1 -21.95 -13.5 -27.6 -9.0 -33.75 L-8.8 -33.85 -8.55 -34.05 -7.1 -35.2 M7.0 31.6 L7.3 29.9 Q7.6 28.35 6.6 24.4 5.6 20.4 5.25 20.4 4.95 20.35 5.05 17.5 L5.05 16.9 5.1 15.9 5.25 11.5 4.65 4.4 4.4 1.9 3.5 -7.75 3.5 -9.0 4.8 -4.4 6.0 0.0 6.25 -6.0 5.75 -15.25 Q5.75 -19.1 7.2 -23.5 L9.2 -27.25 Q10.85 -30.2 9.8 -31.9 L10.6 -30.5 Q11.05 -29.3 10.0 -26.05 8.9 -22.8 7.75 -22.25 L7.75 -17.25 9.5 -17.25 10.5 -17.5 9.0 -16.25 Q8.25 -15.5 8.25 -14.75 L8.75 -10.0 Q8.75 -8.75 8.25 -6.75 7.75 -4.75 7.75 -3.5 L8.25 4.85 7.9 13.1 7.75 15.9 7.6 18.3 7.5 21.35 Q7.5 24.1 8.05 25.15 L8.95 27.4 8.65 28.15 7.25 31.1 7.0 31.6" fill="#81a8cf" fill-rule="evenodd" stroke="none"/>
      <path d="M10.6 -30.5 L10.75 -30.25 10.85 -29.95 Q11.7 -27.95 11.95 -25.4 12.5 -23.1 12.8 -18.85 L12.8 -18.35 12.9 -16.2 13.0 -8.85 13.0 -3.4 12.8 4.4 12.3 11.15 12.25 11.7 11.7 15.9 11.1 19.3 10.95 20.1 10.7 21.1 9.7 25.0 9.55 25.6 9.25 26.5 8.95 27.4 8.05 25.15 Q7.5 24.1 7.5 21.35 L7.6 18.3 7.75 15.9 7.9 13.1 8.25 4.85 7.75 -3.5 Q7.75 -4.75 8.25 -6.75 8.75 -8.75 8.75 -10.0 L8.25 -14.75 Q8.25 -15.5 9.0 -16.25 L10.5 -17.5 9.5 -17.25 7.75 -17.25 7.75 -22.25 Q8.9 -22.8 10.0 -26.05 11.05 -29.3 10.6 -30.5 M-8.45 28.05 L-8.5 27.85 -8.75 25.4 Q-8.7 22.0 -8.95 18.5 L-9.15 16.2 -9.15 15.9 -9.5 13.15 -9.55 12.9 -9.7 11.25 -9.9 4.4 -10.05 -0.4 Q-10.2 -4.8 -11.05 -9.1 L-11.95 -12.75 -12.15 -13.6 Q-13.25 -15.45 -13.85 -18.7 L-14.0 -19.55 -14.45 -23.5 -14.5 -26.05 Q-14.5 -29.8 -10.35 -32.85 L-9.65 -33.3 -9.55 -33.4 -9.0 -33.75 Q-13.5 -27.6 -13.1 -21.95 -12.75 -16.35 -11.75 -13.8 L-9.5 -8.65 Q-7.15 -2.85 -6.5 4.4 -6.25 7.25 -6.25 10.35 L-6.45 13.85 -6.65 15.9 -7.35 20.3 -8.45 28.05" fill="#98b8d7" fill-rule="evenodd" stroke="none"/>
    </g>
    <g id="sprite8" transform="matrix(1.0, 0.0, 0.0, 1.0, 13.05, 7.25)">
      <use ffdec:characterId="1386" ffdec:characterName="game_fla.lowerleg2_742" height="80.9" id="lowerLeg2" transform="matrix(1.0, 0.0, 0.0, 1.0, -13.05, -7.25)" width="31.9" xlink:href="#sprite9"/>
    </g>
    <g id="sprite9" transform="matrix(1.0, 0.0, 0.0, 1.0, 11.0, 39.0)">
      <use ffdec:characterId="1382" height="80.2" transform="matrix(1.0, 0.0, 0.0, 1.0, -10.55, -38.3)" width="31.45" xlink:href="#shape5"/>
      <use ffdec:characterId="1081" height="100.0" id="shape" transform="matrix(0.18, 0.0, 0.0, 0.7801, -8.9996, -39.0045)" width="100.0" xlink:href="#sprite2"/>
    </g>
    <g id="shape5" transform="matrix(1.0, 0.0, 0.0, 1.0, 10.55, 38.3)">
      <path d="M-5.25 -35.3 L-5.2 -35.35 -5.25 -35.2 -5.25 -35.3" fill="#aacdf0" fill-rule="evenodd" stroke="none"/>
      <path d="M1.25 23.45 L1.2 23.6 1.2 25.05 Q1.3 25.8 1.7 26.15 L1.65 26.7 1.65 26.9 1.7 26.95 2.05 27.6 Q3.3 29.55 5.65 31.15 L5.6 31.5 5.55 31.6 5.6 31.95 5.0 32.15 3.5 32.5 2.4 32.55 2.2 32.55 -3.15 32.0 -3.25 32.0 -3.3 31.6 -3.35 31.5 -3.8 30.75 -3.8 31.0 -4.0 31.1 -4.35 30.8 -4.5 30.15 -4.05 26.3 -3.35 22.75 1.1 23.4 1.25 23.45 M0.1 27.15 L0.0 27.3 -0.05 27.45 -0.05 27.55 -0.1 27.65 -0.15 27.6 -0.35 27.45 -0.7 27.15 -0.8 27.05 -0.9 27.0 -1.1 26.9 Q-1.15 25.8 -1.5 24.8 L-2.4 25.6 -2.45 26.7 -2.45 26.9 -2.65 27.35 -2.8 28.05 -2.8 28.15 -2.85 28.35 -2.85 28.8 -2.5 30.25 Q-1.9 31.6 -0.6 31.6 -0.05 31.6 0.5 30.5 L1.0 28.75 0.0 27.75 0.1 27.3 0.1 27.1 0.1 27.05 0.1 27.15 M-6.9 31.4 L-5.6 29.15 Q-5.4 29.75 -5.45 30.5 L-5.6 31.7 -5.5 31.75 -5.55 31.75 -6.1 31.6 -6.9 31.4" fill="#ebbb98" fill-rule="evenodd" stroke="none"/>
      <path d="M4.9 23.8 Q4.9 25.45 5.4 26.9 L5.75 27.75 Q6.4 28.95 7.5 30.0 L7.4 30.0 Q6.45 30.05 5.85 30.95 L5.7 31.15 5.65 31.15 Q3.3 29.55 2.05 27.6 L1.7 26.95 1.65 26.9 1.65 26.7 1.7 26.15 Q1.3 25.8 1.2 25.05 L1.2 23.6 1.25 23.45 4.9 23.8 M-8.15 31.05 L-8.15 31.0 -7.4 28.2 -7.2 27.25 -6.6 24.3 -6.3 22.5 -4.4 22.5 -3.35 22.75 -4.05 26.3 -4.5 30.15 -4.35 30.8 -4.0 31.1 -3.8 31.0 -3.8 30.75 -3.35 31.5 -3.3 31.6 -3.25 32.0 -5.5 31.75 -5.6 31.7 -5.45 30.5 Q-5.4 29.75 -5.6 29.15 L-6.9 31.4 -7.8 31.1 -8.05 31.05 -8.15 31.05" fill="#ffcc99" fill-rule="evenodd" stroke="none"/>
      <path d="M8.65 30.6 L8.85 30.6 10.2 30.6 Q11.05 30.7 11.25 31.05 L11.25 32.25 11.15 32.25 10.5 32.25 Q10.0 31.9 9.35 31.7 L8.95 31.4 7.5 30.6 8.65 30.6 M15.75 34.8 L16.8 35.25 16.4 35.6 14.5 37.25 14.25 37.25 13.75 36.9 Q11.7 35.6 8.7 34.0 L8.5 33.25 8.45 33.2 8.4 33.05 8.25 32.35 9.8 33.5 13.85 36.75 14.6 35.85 15.15 35.25 15.75 34.8 M20.9 38.65 L20.9 39.0 20.75 40.2 Q17.65 40.4 14.25 40.25 L5.45 39.25 -0.65 38.6 -2.85 38.4 Q-7.25 38.4 -9.75 37.2 L-9.75 36.45 -9.7 35.85 Q-8.2 37.0 -5.5 37.35 L1.35 37.8 8.4 39.0 14.9 39.6 18.2 39.5 20.9 38.65 M3.5 32.5 L5.0 32.15 5.6 31.95 5.55 31.6 5.6 31.5 5.95 31.5 5.9 32.1 6.0 32.65 5.9 32.6 5.75 32.5 3.5 32.5 M6.9 32.35 L7.3 33.3 Q7.7 34.2 7.7 34.85 L7.65 35.5 7.55 35.65 Q6.7 35.3 6.7 33.95 L6.8 33.05 6.9 32.35" fill="#d0c9bf" fill-rule="evenodd" stroke="none"/>
      <path d="M7.5 30.0 L7.9 30.1 8.65 30.6 7.5 30.6 8.95 31.4 9.35 31.7 Q10.0 31.9 10.5 32.25 L11.15 32.25 14.75 34.4 15.55 34.75 15.75 34.8 15.15 35.25 14.6 35.85 13.85 36.75 9.8 33.5 8.25 32.35 8.4 33.05 8.45 33.2 8.5 33.25 8.7 34.0 Q11.7 35.6 13.75 36.9 L14.25 37.25 14.5 37.25 16.4 35.6 16.8 35.25 19.05 36.55 Q20.8 37.7 20.9 38.65 L18.2 39.5 14.9 39.6 8.4 39.0 1.35 37.8 -5.5 37.35 Q-8.2 37.0 -9.7 35.85 L-9.45 33.5 -9.0 31.4 Q-8.95 30.65 -8.2 31.0 L-8.15 31.05 -8.05 31.05 -7.8 31.1 -6.9 31.4 -6.1 31.6 -5.55 31.75 -5.5 31.75 -3.25 32.0 -3.15 32.0 2.2 32.55 2.4 32.55 3.5 32.5 5.75 32.5 5.9 32.6 6.0 32.65 5.9 32.1 5.95 31.5 5.6 31.5 5.65 31.15 5.7 31.15 5.85 30.95 Q6.45 30.05 7.4 30.0 L7.5 30.0 M20.75 40.2 L20.75 40.65 Q20.85 41.2 19.45 41.6 L17.3 41.9 14.75 41.85 14.25 41.85 11.45 41.7 8.0 41.2 5.45 40.85 4.25 40.65 1.3 40.25 -1.9 40.0 -5.75 39.75 -8.35 39.45 Q-9.15 39.2 -9.75 38.6 L-9.75 37.2 Q-7.25 38.4 -2.85 38.4 L-0.65 38.6 5.45 39.25 14.25 40.25 Q17.65 40.4 20.75 40.2 M7.55 35.65 L7.85 35.7 8.1 34.6 8.0 33.65 7.7 32.65 7.5 32.0 7.5 31.95 7.1 30.75 6.95 31.75 6.95 31.8 6.9 32.35 6.8 33.05 6.7 33.95 Q6.7 35.3 7.55 35.65 M6.8 36.95 Q7.65 36.95 8.2 36.05 L8.55 35.3 Q8.25 36.2 7.15 36.2 L7.1 36.2 Q5.8 36.15 5.75 34.7 L5.9 33.5 Q5.7 34.05 5.45 35.55 5.45 36.2 5.85 36.55 6.25 36.95 6.8 36.95" fill="#e9e1d6" fill-rule="evenodd" stroke="none"/>
      <path d="M4.65 22.1 L4.95 22.15 4.9 22.85 4.9 23.35 4.9 23.8 1.25 23.45 1.1 23.4 -3.35 22.75 -4.4 22.5 -6.3 22.5 -6.3 22.45 -6.25 22.0 -6.2 21.5 -3.45 21.65 1.95 21.95 4.35 22.1 4.6 22.1 4.65 22.1 M0.1 27.15 L0.1 27.05 0.1 27.1 0.1 27.3 0.0 27.75 1.0 28.75 0.5 30.5 Q-0.05 31.6 -0.6 31.6 -1.9 31.6 -2.5 30.25 L-2.85 28.8 -2.85 28.35 -2.8 28.15 -2.8 28.05 -2.65 27.35 -2.45 26.9 -2.45 26.7 -2.4 25.6 -1.5 24.8 Q-1.15 25.8 -1.1 26.9 L-0.9 27.0 -0.8 27.05 -0.7 27.15 -0.35 27.45 -0.15 27.6 -0.1 27.65 -0.05 27.55 -0.05 27.45 0.0 27.3 0.1 27.15" fill="#e2b181" fill-rule="evenodd" stroke="none"/>
      <path d="M6.9 32.35 L6.95 31.8 6.95 31.75 7.1 30.75 7.5 31.95 7.5 32.0 7.7 32.65 8.0 33.65 8.1 34.6 7.85 35.7 7.55 35.65 7.65 35.5 7.7 34.85 Q7.7 34.2 7.3 33.3 L6.9 32.35 M6.8 36.95 Q6.25 36.95 5.85 36.55 5.45 36.2 5.45 35.55 5.7 34.05 5.9 33.5 L5.75 34.7 Q5.8 36.15 7.1 36.2 L7.15 36.2 Q8.25 36.2 8.55 35.3 L8.2 36.05 Q7.65 36.95 6.8 36.95" fill="#b1aba3" fill-rule="evenodd" stroke="none"/>
      <path d="M9.7 -28.0 L9.0 -18.55 7.9 -5.0 7.3 8.55 7.15 11.7 7.1 12.75 7.0 14.2 6.35 19.9 6.35 19.95 6.3 20.0 Q5.95 22.15 5.5 22.15 L4.65 22.1 4.6 22.1 4.35 22.1 4.25 20.25 4.25 19.7 6.35 19.95 4.25 19.35 4.05 14.05 4.0 12.5 Q3.8 9.15 4.2 4.6 L5.0 -3.0 Q5.45 -7.9 7.4 -17.1 L9.7 -28.0 M-5.15 21.55 L-7.7 21.4 -7.9 18.95 -7.9 18.75 -7.95 18.25 -8.3 14.1 -8.3 13.95 -8.3 13.75 -8.55 10.75 -8.95 7.35 -9.85 0.6 -10.0 -0.55 Q-10.65 -6.15 -10.5 -11.4 -10.4 -16.65 -8.15 -27.4 L-7.25 -30.95 -6.0 -34.05 -5.6 -34.7 -6.0 -29.75 Q-6.0 -27.05 -4.0 -23.9 -2.0 -20.75 -2.0 -17.35 -2.0 -14.65 -3.0 -12.9 L-4.75 -10.7 -4.75 -13.25 -4.8 -16.85 Q-4.9 -17.6 -5.75 -20.75 L-6.85 -7.5 Q-8.5 -3.7 -8.5 2.75 -8.5 5.15 -6.3 13.95 L-6.2 14.45 -5.5 17.8 Q-6.4 18.0 -7.6 18.75 L-5.35 18.75 -5.15 21.55" fill="#98b8d7" fill-rule="evenodd" stroke="none"/>
      <path d="M-4.5 -36.25 L-4.75 -30.25 Q-4.75 -26.45 -2.85 -22.8 -1.0 -19.2 -1.0 -16.25 -1.0 -12.3 -3.75 -7.75 -6.5 -3.25 -6.5 3.6 L-5.45 13.95 -4.95 17.75 -5.0 17.75 -5.5 17.8 -6.2 14.45 -6.3 13.95 Q-8.5 5.15 -8.5 2.75 -8.5 -3.7 -6.85 -7.5 L-5.75 -20.75 Q-4.9 -17.6 -4.8 -16.85 L-4.75 -13.25 -4.75 -10.7 -3.0 -12.9 Q-2.0 -14.65 -2.0 -17.35 -2.0 -20.75 -4.0 -23.9 -6.0 -27.05 -6.0 -29.75 L-5.6 -34.7 -5.25 -35.3 -5.25 -35.2 -5.2 -35.35 -4.5 -36.25 M2.2 18.9 L2.45 14.0 2.55 8.6 Q2.7 -1.2 4.25 -6.25 4.85 -11.5 7.0 -19.35 L9.75 -29.35 9.7 -28.0 7.4 -17.1 Q5.45 -7.9 5.0 -3.0 L4.2 4.6 Q3.8 9.15 4.0 12.5 L4.05 14.05 4.25 19.35 2.2 18.9 M-4.45 21.6 L-5.15 21.55 -5.35 18.75 -4.85 18.75 -4.45 21.6 M2.15 19.45 L3.3 19.55 4.25 19.7 4.25 20.25 4.35 22.1 1.95 21.95 2.15 19.45" fill="#81a8cf" fill-rule="evenodd" stroke="none"/>
      <path d="M-4.5 -36.25 L-4.25 -36.55 -3.9 -36.85 -3.4 -37.25 Q-2.05 -38.25 -0.35 -38.3 5.2 -38.45 7.7 -36.1 9.45 -34.45 9.95 -33.05 L10.15 -32.0 10.1 -31.25 9.75 -30.2 9.75 -30.15 9.75 -29.35 7.0 -19.35 Q4.85 -11.5 4.25 -6.25 2.7 -1.2 2.55 8.6 L2.45 14.0 2.2 18.9 1.75 18.8 -1.2 18.25 -1.05 18.15 -0.85 15.85 -0.65 14.2 0.25 1.65 Q-0.4 3.0 -0.55 9.15 -0.65 11.6 -1.25 13.5 -1.8 15.2 -1.8 17.15 L-1.65 18.15 -4.95 17.75 -5.45 13.95 -6.5 3.6 Q-6.5 -3.25 -3.75 -7.75 -1.0 -12.3 -1.0 -16.25 -1.0 -19.2 -2.85 -22.8 -4.75 -26.45 -4.75 -30.25 L-4.5 -36.25 M-3.45 21.65 L-4.45 21.6 -4.85 18.75 -3.25 18.75 2.15 19.45 1.95 21.95 -3.45 21.65 M1.35 -24.25 L0.75 -20.75 1.05 -16.1 Q1.15 -14.75 0.35 -9.25 L0.05 -7.95 Q0.85 -11.0 1.4 -16.0 L1.9 -22.65 1.5 -24.25 1.35 -24.25" fill="#749bc1" fill-rule="evenodd" stroke="none"/>
      <path d="M-4.95 17.75 L-1.65 18.15 -1.8 17.15 Q-1.8 15.2 -1.25 13.5 -0.65 11.6 -0.55 9.15 -0.4 3.0 0.25 1.65 L-0.65 14.2 -0.85 15.85 -1.05 18.15 -1.2 18.25 1.75 18.8 2.2 18.9 4.25 19.35 6.35 19.95 4.25 19.7 3.3 19.55 2.15 19.45 -3.25 18.75 -4.85 18.75 -5.35 18.75 -7.6 18.75 Q-6.4 18.0 -5.5 17.8 L-5.0 17.75 -4.95 17.75 M1.35 -24.25 L1.5 -24.25 1.9 -22.65 1.4 -16.0 Q0.85 -11.0 0.05 -7.95 L0.35 -9.25 Q1.15 -14.75 1.05 -16.1 L0.75 -20.75 1.35 -24.25" fill="#64829f" fill-rule="evenodd" stroke="none"/>
    </g>
    <g id="sprite10" transform="matrix(1.0, 0.0, 0.0, 1.0, 25.3, 72.9)">
      <use ffdec:characterId="1402" ffdec:characterName="game_fla.head_744" height="65.45" id="head" transform="matrix(1.0, 0.0, 0.0, 1.0, -25.3, -72.9)" width="47.3" xlink:href="#sprite11"/>
    </g>
    <g id="sprite11" transform="matrix(1.0, 0.0, 0.0, 1.0, 28.55, 40.4)">
      <use ffdec:characterId="1389" height="28.7" transform="matrix(1.0, 0.0, 0.0, 1.0, -13.0, -3.65)" width="20.35" xlink:href="#shape6"/>
      <use ffdec:characterId="1391" height="31.6" transform="matrix(1.0, 0.0, 0.0, 1.0, -16.4, -18.15)" width="30.55" xlink:href="#sprite12"/>
      <use ffdec:characterId="1111" height="100.0" id="shape" transform="matrix(0.3, 0.0, 0.0, 0.3, -15.0009, -15.0009)" width="100.0" xlink:href="#sprite13"/>
    </g>
    <g id="shape6" transform="matrix(1.0, 0.0, 0.0, 1.0, 13.0, 3.65)">
      <path d="M-7.0 -0.6 L-5.35 1.65 -5.4 1.8 Q-5.4 2.85 -4.7 3.8 L-3.5 5.0 -3.0 5.4 -2.5 6.4 Q-1.75 7.5 -1.2 9.15 L-0.25 11.7 0.0 12.2 0.3 12.45 1.85 13.45 2.3 15.8 1.8 18.0 1.65 18.45 1.45 19.45 1.7 21.05 2.7 25.05 Q2.0 24.25 0.8 23.75 -0.6 22.95 -1.6 22.85 L-3.7 22.35 -5.4 22.25 -13.0 22.75 -11.25 19.1 -10.2 14.2 -9.8 12.75 -9.7 10.85 Q-9.45 5.15 -8.2 1.65 L-7.55 0.25 -7.0 -0.6" fill="#ffcc99" fill-rule="evenodd" stroke="none"/>
      <path d="M2.3 15.8 L1.85 13.45 0.3 12.45 0.0 12.2 -0.25 11.7 -1.2 9.15 Q-1.75 7.5 -2.5 6.4 L-3.0 5.4 -3.5 5.0 -4.7 3.8 Q-5.4 2.85 -5.4 1.8 L-5.35 1.65 -7.0 -0.6 Q-3.65 -5.45 2.0 -2.55 7.75 0.4 7.3 9.25 7.45 10.45 6.75 13.25 L4.45 13.45 4.4 13.45 3.7 13.9 Q2.55 14.75 2.3 15.8" fill="#e2b181" fill-rule="evenodd" stroke="none"/>
    </g>
    <g id="sprite12" transform="matrix(1.0, 0.0, 0.0, 1.0, 15.4, 17.4)">
      <use ffdec:characterId="1390" height="31.6" transform="matrix(1.0, 0.0, 0.0, 1.0, -15.4, -17.4)" width="30.55" xlink:href="#shape7"/>
    </g>
    <g id="shape7" transform="matrix(1.0, 0.0, 0.0, 1.0, 15.4, 17.4)">
      <path d="M11.95 -9.55 L12.85 -7.65 12.95 -7.35 13.25 -6.1 13.3 -5.45 13.35 -4.45 13.35 -2.8 13.35 -2.55 13.15 -0.5 13.15 -0.3 13.15 0.3 13.2 0.8 13.45 1.35 13.75 1.95 14.85 4.3 15.0 4.5 15.1 4.75 Q14.95 5.55 12.8 5.55 L11.6 5.45 11.15 5.55 Q11.7 5.55 12.05 6.15 L12.6 7.15 12.55 7.25 12.65 7.45 12.65 7.5 12.85 7.9 12.3 7.9 Q11.9 7.9 11.1 8.5 10.3 9.1 9.5 8.95 L9.65 9.05 9.7 9.05 9.95 9.2 11.35 9.65 12.65 9.8 12.55 9.95 12.2 10.3 11.9 10.6 11.7 10.9 11.85 11.4 11.95 12.2 11.6 13.25 Q11.25 13.9 10.7 14.05 L9.6 14.2 9.35 14.2 7.75 14.0 3.3 12.2 Q1.55 11.65 0.7 10.75 -0.2 9.85 -0.6 8.25 L-0.95 7.05 -1.0 6.9 -1.05 6.7 -1.2 6.1 -1.25 5.65 Q-1.3 5.15 -2.05 4.95 L-3.1 4.3 -3.05 4.2 -3.35 3.9 -4.05 3.1 Q-5.1 1.9 -5.3 0.95 -5.5 0.0 -5.3 -0.8 L-5.05 -1.8 -5.0 -1.8 Q-5.05 -2.5 -4.05 -2.95 -3.1 -3.4 -2.35 -3.25 -1.65 -3.15 -1.0 -1.8 -0.4 -0.45 -0.4 0.45 L-0.65 1.55 -0.65 2.45 -0.25 2.6 Q0.25 2.6 0.55 0.05 L1.1 -2.1 2.0 -4.75 2.8 -6.1 3.7 -7.35 4.05 -7.75 4.5 -8.3 4.55 -8.3 4.6 -8.45 4.8 -9.0 Q4.8 -9.9 2.85 -10.8 L-0.65 -11.45 -1.75 -11.65 -1.7 -11.7 -0.5 -11.55 3.3 -11.05 3.45 -10.95 3.9 -10.7 4.55 -10.45 5.75 -9.8 Q6.85 -9.0 8.15 -8.95 L8.75 -9.1 8.85 -9.1 9.45 -9.2 9.75 -9.2 11.2 -9.45 11.55 -9.45 11.85 -9.55 11.95 -9.55 M6.05 -1.05 L5.9 -1.0 5.9 -0.95 6.05 -1.05 M12.25 -1.3 L12.3 -1.3 12.6 -1.55 12.05 -2.1 11.75 -2.2 10.2 -2.5 9.75 -2.45 7.75 -2.05 6.95 -1.35 6.35 -0.85 6.85 -1.0 6.6 -0.65 6.15 0.2 7.55 1.2 Q8.85 2.05 9.2 2.05 L11.1 1.4 12.2 0.65 12.3 0.4 12.15 -0.35 12.15 -0.5 12.2 -0.55 12.2 -0.7 12.25 -1.3 M-4.5 -0.85 L-4.5 -0.6 -4.2 -1.15 -3.6 -1.3 Q-1.8 -1.3 -1.7 0.0 L-1.7 -0.1 -1.6 -0.75 Q-1.6 -1.45 -1.95 -1.95 L-2.85 -2.45 Q-3.7 -2.45 -4.05 -2.0 L-4.5 -0.85 M-2.05 0.7 Q-2.5 0.05 -2.95 0.05 L-3.35 0.4 -3.5 0.95 Q-3.5 1.3 -2.9 1.65 L-2.9 2.45 Q-2.9 2.8 -2.35 2.8 -1.95 2.8 -1.95 2.25 L-2.15 1.85 -2.25 1.85 -2.45 1.55 -2.6 1.1 Q-2.6 0.95 -2.0 0.75 L-2.05 0.7 M0.2 3.8 L0.2 4.0 Q0.15 4.65 1.45 5.3 L3.45 6.35 4.0 6.55 2.2 5.05 Q0.65 3.7 0.2 3.8" fill="#ffcc99" fill-rule="evenodd" stroke="none"/>
      <path d="M15.1 4.75 L15.15 5.05 14.9 5.5 14.75 5.75 14.5 5.85 13.3 6.2 13.25 6.2 Q12.7 6.4 12.6 7.15 L12.05 6.15 Q11.7 5.55 11.15 5.55 L11.6 5.45 12.8 5.55 Q14.95 5.55 15.1 4.75 M-4.5 -0.85 L-4.05 -2.0 Q-3.7 -2.45 -2.85 -2.45 L-1.95 -1.95 Q-1.6 -1.45 -1.6 -0.75 L-1.7 -0.1 -1.7 0.0 Q-1.8 -1.3 -3.6 -1.3 L-4.2 -1.15 -4.5 -0.6 -4.5 -0.85 M-2.05 0.7 L-2.0 0.75 Q-2.6 0.95 -2.6 1.1 L-2.45 1.55 -2.25 1.85 -2.15 1.85 -1.95 2.25 Q-1.95 2.8 -2.35 2.8 -2.9 2.8 -2.9 2.45 L-2.9 1.65 Q-3.5 1.3 -3.5 0.95 L-3.35 0.4 -2.95 0.05 Q-2.5 0.05 -2.05 0.7" fill="#c79b68" fill-rule="evenodd" stroke="none"/>
      <path d="M11.0 -0.3 L10.6 0.45 10.4 0.95 10.1 1.25 9.95 1.3 8.45 0.25 8.65 0.2 9.7 -0.2 10.55 -0.4 10.65 -0.4 11.0 -0.3" fill="#000000" fill-rule="evenodd" stroke="none"/>
      <path d="M6.85 -1.0 L7.0 -1.05 7.35 -1.2 9.8 -1.7 10.55 -1.75 11.35 -1.6 11.8 -1.4 11.95 -1.35 12.25 -1.3 12.2 -0.7 12.2 -0.55 12.15 -0.5 12.15 -0.35 12.3 0.4 12.2 0.65 11.1 1.4 9.2 2.05 Q8.85 2.05 7.55 1.2 L6.15 0.2 6.6 -0.65 6.85 -1.0 M11.0 -0.3 L10.65 -0.4 10.55 -0.4 9.7 -0.2 8.65 0.2 8.45 0.25 9.95 1.3 10.1 1.25 10.4 0.95 10.6 0.45 11.0 -0.3" fill="#e2b181" fill-rule="evenodd" stroke="none"/>
      <path d="M12.85 7.9 L12.55 8.65 10.9 8.9 9.7 9.05 9.65 9.05 9.5 8.95 Q10.3 9.1 11.1 8.5 11.9 7.9 12.3 7.9 L12.85 7.9" fill="#b94f4f" fill-rule="evenodd" stroke="none"/>
      <path d="M12.55 8.65 L12.85 9.2 12.65 9.8 11.35 9.65 9.95 9.2 9.7 9.05 10.9 8.9 12.55 8.65" fill="#fd8181" fill-rule="evenodd" stroke="none"/>
      <path d="M0.2 3.8 Q0.65 3.7 2.2 5.05 L4.0 6.55 3.45 6.35 1.45 5.3 Q0.15 4.65 0.2 4.0 L0.2 3.8" fill="#f0bf98" fill-rule="evenodd" stroke="none"/>
      <path d="M-3.1 4.3 L-3.15 4.25 -3.1 4.35 -4.3 6.05 Q-5.55 7.9 -5.7 8.7 -5.8 9.25 -6.75 9.75 L-8.0 10.6 Q-8.25 10.9 -8.3 11.95 -8.35 12.65 -8.9 12.7 L-9.3 11.6 -9.7 11.05 -10.65 9.0 -11.95 6.0 Q-10.7 4.0 -9.65 1.5 L-8.6 -1.85 -7.85 -3.95 Q-9.5 -2.25 -10.85 0.65 L-11.85 3.0 Q-11.4 -1.15 -10.0 -3.8 L-8.85 -5.65 -8.0 -6.25 -7.55 -6.4 Q-4.9 -7.4 -2.0 -7.4 L0.25 -7.25 Q1.3 -7.0 1.45 -6.35 L1.4 -6.1 1.3 -5.2 2.15 -6.1 2.4 -6.3 3.7 -7.35 2.8 -6.1 2.0 -4.75 1.1 -2.1 0.55 0.05 Q0.25 2.6 -0.25 2.6 L-0.65 2.45 -0.65 1.55 -0.4 0.45 Q-0.4 -0.45 -1.0 -1.8 -1.65 -3.15 -2.35 -3.25 -3.1 -3.4 -4.05 -2.95 -5.05 -2.5 -5.0 -1.8 L-5.05 -1.8 -5.3 -0.8 Q-5.5 0.0 -5.3 0.95 -5.1 1.9 -4.05 3.1 L-3.35 3.9 -3.05 4.2 -3.1 4.3 M-13.75 2.25 L-14.55 0.55 -13.05 -1.95 -13.9 1.15 -13.75 2.25 M4.4 -12.75 L6.95 -12.4 Q8.0 -11.95 8.25 -10.65 L8.55 -11.5 Q8.55 -13.05 6.3 -13.05 L4.1 -12.85 2.75 -12.7 4.4 -12.75 M1.65 -14.7 L1.95 -14.65 -3.3 -13.35 -7.55 -12.35 -8.15 -12.25 -8.8 -12.15 -8.65 -12.25 -6.15 -13.25 -3.6 -14.35 -0.9 -14.85 1.65 -14.7 M-1.75 -11.65 L-4.45 -12.1 -1.8 -12.9 Q2.5 -14.25 4.3 -14.25 L7.75 -14.0 Q9.5 -13.45 9.5 -11.6 L9.45 -11.25 9.5 -11.3 Q10.0 -12.05 10.0 -12.75 L10.2 -10.2 Q10.6 -11.65 11.4 -12.15 L11.1 -10.4 11.2 -9.45 9.75 -9.2 9.45 -9.2 8.85 -9.1 8.75 -9.1 8.15 -8.95 Q6.85 -9.0 5.75 -9.8 L4.55 -10.45 3.9 -10.7 3.45 -10.95 3.3 -11.05 -0.5 -11.55 -1.7 -11.7 -1.75 -11.65 M1.0 -8.4 L0.5 -8.35 -0.35 -8.6 -1.75 -8.65 Q-4.65 -8.65 -7.55 -6.8 L-8.3 -6.3 -7.55 -7.05 -7.2 -7.35 -3.4 -9.95 Q-5.45 -9.8 -7.55 -8.65 -8.85 -8.0 -10.15 -7.0 L-10.95 -6.1 -10.7 -6.75 Q-10.0 -8.6 -8.05 -9.65 L-7.55 -9.9 Q-6.05 -10.6 -4.35 -10.6 -1.9 -10.6 -0.4 -9.75 0.55 -9.2 1.0 -8.4 M-4.6 -5.5 L-6.25 -3.4 Q-3.9 -5.4 -2.2 -6.1 L-0.6 -6.45 0.1 -6.35 -2.65 -6.55 -3.9 -6.1 -4.6 -5.5" fill="#d7ba62" fill-rule="evenodd" stroke="none"/>
      <path d="M-14.55 0.55 L-15.25 -0.6 -15.4 -1.9 Q-15.4 -3.4 -14.8 -4.8 L-13.15 -7.7 -12.6 -9.2 -11.9 -10.3 -10.45 -11.2 -10.1 -11.4 -10.05 -11.45 -9.85 -11.8 -9.5 -12.2 -8.1 -13.3 -7.55 -13.65 -7.15 -13.9 Q-5.05 -15.05 -4.3 -14.8 L-1.75 -15.85 Q1.7 -17.25 5.0 -17.4 L8.25 -17.4 10.05 -16.8 Q12.8 -15.65 12.8 -14.1 L12.55 -12.5 11.95 -11.05 11.95 -10.15 11.95 -9.95 11.95 -9.85 11.95 -9.55 11.85 -9.55 11.55 -9.45 11.2 -9.45 11.1 -10.4 11.4 -12.15 Q10.6 -11.65 10.2 -10.2 L10.0 -12.75 Q10.0 -12.05 9.5 -11.3 L9.45 -11.25 9.5 -11.6 Q9.5 -13.45 7.75 -14.0 L4.3 -14.25 Q2.5 -14.25 -1.8 -12.9 L-4.45 -12.1 -1.75 -11.65 -0.65 -11.45 2.85 -10.8 Q4.8 -9.9 4.8 -9.0 L4.6 -8.45 4.55 -8.3 4.5 -8.3 4.05 -7.75 3.7 -7.35 2.4 -6.3 2.15 -6.1 1.3 -5.2 1.4 -6.1 1.45 -6.35 Q1.3 -7.0 0.25 -7.25 L-2.0 -7.4 Q-4.9 -7.4 -7.55 -6.4 L-8.0 -6.25 -8.85 -5.65 -10.0 -3.8 Q-11.4 -1.15 -11.85 3.0 L-10.85 0.65 Q-9.5 -2.25 -7.85 -3.95 L-8.6 -1.85 -9.65 1.5 Q-10.7 4.0 -11.95 6.0 L-12.0 5.85 -12.4 5.1 -12.6 4.7 -13.75 2.25 -13.9 1.15 -13.05 -1.95 -14.55 0.55 M1.65 -14.7 L-0.9 -14.85 -3.6 -14.35 -6.15 -13.25 -8.65 -12.25 -8.8 -12.15 -8.15 -12.25 -7.55 -12.35 -3.3 -13.35 1.95 -14.65 1.65 -14.7 M4.4 -12.75 L2.75 -12.7 4.1 -12.85 6.3 -13.05 Q8.55 -13.05 8.55 -11.5 L8.25 -10.65 Q8.0 -11.95 6.95 -12.4 L4.4 -12.75 M1.0 -8.4 Q0.55 -9.2 -0.4 -9.75 -1.9 -10.6 -4.35 -10.6 -6.05 -10.6 -7.55 -9.9 L-8.05 -9.65 Q-10.0 -8.6 -10.7 -6.75 L-10.95 -6.1 -10.15 -7.0 Q-8.85 -8.0 -7.55 -8.65 -5.45 -9.8 -3.4 -9.95 L-7.2 -7.35 -7.55 -7.05 -8.3 -6.3 -7.55 -6.8 Q-4.65 -8.65 -1.75 -8.65 L-0.35 -8.6 0.5 -8.35 1.0 -8.4 M6.85 -1.0 L6.35 -0.85 6.95 -1.35 7.75 -2.05 9.75 -2.45 10.2 -2.5 11.75 -2.2 12.05 -2.1 12.6 -1.55 12.3 -1.3 12.25 -1.3 11.95 -1.35 11.8 -1.4 11.35 -1.6 10.55 -1.75 9.8 -1.7 7.35 -1.2 7.0 -1.05 6.85 -1.0 M-4.6 -5.5 L-3.9 -6.1 -2.65 -6.55 0.1 -6.35 -0.6 -6.45 -2.2 -6.1 Q-3.9 -5.4 -6.25 -3.4 L-4.6 -5.5" fill="#f5de71" fill-rule="evenodd" stroke="none"/>
    </g>
    <g id="sprite13" transform="matrix(1.0, 0.0, 0.0, 1.0, 50.0, 50.0)">
      <use ffdec:characterId="1110" height="100.0" transform="matrix(1.0, 0.0, 0.0, 1.0, -50.0, -50.0)" width="100.0" xlink:href="#shape8"/>
    </g>
    <g id="shape8" transform="matrix(1.0, 0.0, 0.0, 1.0, 50.0, 50.0)">
      <path d="M35.35 -35.35 Q50.0 -20.7 50.0 0.0 50.0 20.7 35.35 35.35 20.7 50.0 0.0 50.0 -20.7 50.0 -35.35 35.35 -50.0 20.7 -50.0 0.0 -50.0 -20.7 -35.35 -35.35 -20.7 -50.0 0.0 -50.0 20.7 -50.0 35.35 -35.35 Z" fill="none" stroke="#9900ff" stroke-linecap="round" stroke-linejoin="round" stroke-width="0.05"/>
    </g>
    <g id="sprite14" transform="matrix(1.0, 0.0, 0.0, 1.0, 27.0, 70.9)">
      <use ffdec:characterId="1404" height="67.45" transform="matrix(1.0, 0.0, 0.0, 1.0, -14.75, -35.2)" width="29.9" xlink:href="#shape9"/>
      <use ffdec:characterId="1081" height="100.0" id="shape" transform="matrix(0.2601, 0.0, 0.0, 0.68, -13.0058, -34.0019)" width="100.0" xlink:href="#sprite2"/>
      <use ffdec:characterId="1138" height="0.0" id="spineRef" transform="matrix(1.0, 0.0, 0.0, 1.0, 0.85, -40.9)" width="0.0" xlink:href="#sprite15"/>
    </g>
    <g id="shape9" transform="matrix(1.0, 0.0, 0.0, 1.0, 14.75, 35.2)">
      <path d="M15.05 -5.8 Q14.85 -7.25 13.35 -8.1 L11.7 -9.15 10.5 -10.25 8.55 -13.55 Q8.55 -12.5 7.5 -16.75 6.15 -21.95 6.05 -23.75 5.9 -25.6 5.5 -26.3 5.1 -27.0 5.0 -28.2 4.9 -29.4 4.25 -30.15 2.4 -32.25 -0.35 -32.25 -5.9 -32.25 -9.7 -26.15 -12.85 -21.05 -13.0 -15.75 L-13.25 -22.25 -13.15 -24.15 -12.45 -26.5 Q-11.85 -28.65 -6.7 -33.15 -1.6 -37.7 3.8 -32.05 L9.35 -26.2 Q10.2 -23.25 11.75 -19.55 13.75 -14.85 14.6 -11.6 L15.0 -9.55 15.15 -7.4 15.15 -6.7 15.05 -5.8" fill="#a07acd" fill-rule="evenodd" stroke="none"/>
      <path d="M-14.55 -9.5 Q-14.05 -6.4 -12.9 -3.0 L-9.5 6.25 -9.25 6.4 -9.0 6.5 Q-9.3 4.95 -9.2 3.3 L-9.25 -4.5 Q-9.9 -13.3 -8.75 -16.6 -8.75 -21.15 -6.75 -24.0 -4.6 -27.0 -0.85 -27.0 4.8 -27.0 5.75 -21.25 6.1 -19.25 5.95 -15.65 L5.75 -9.75 Q5.75 -4.9 11.7 -4.1 L13.75 -4.0 13.75 -2.5 13.3 -1.4 12.85 -0.65 Q11.55 1.65 11.55 2.5 L11.55 2.85 Q4.75 19.2 4.75 21.25 L5.15 24.65 5.25 25.4 Q5.7 23.75 6.3 22.05 7.05 19.95 8.75 16.1 L8.85 16.1 8.85 16.6 Q7.6 22.2 7.5 24.25 7.35 25.9 7.35 27.85 L7.1 29.75 6.85 30.95 Q6.85 31.55 7.85 31.7 L9.35 31.75 11.0 32.25 6.05 32.2 -1.3 32.05 -9.25 31.75 -9.25 31.0 -9.85 26.45 -10.5 22.85 -10.5 22.0 Q-10.3 23.05 -8.8 25.6 -7.6 27.65 -7.75 29.5 L-7.5 29.5 Q-7.25 28.75 -7.25 26.35 -7.25 22.55 -7.65 19.7 -8.05 16.9 -9.0 13.75 -9.45 12.1 -11.65 8.45 L-13.35 5.1 -14.25 -5.4 -14.55 -9.5" fill="#775d95" fill-rule="evenodd" stroke="none"/>
      <path d="M-13.15 -24.15 L-13.25 -22.25 -13.0 -15.75 Q-12.85 -21.05 -9.7 -26.15 -5.9 -32.25 -0.35 -32.25 2.4 -32.25 4.25 -30.15 4.9 -29.4 5.0 -28.2 5.1 -27.0 5.5 -26.3 5.9 -25.6 6.05 -23.75 6.15 -21.95 7.5 -16.75 8.55 -12.5 8.55 -13.55 L10.5 -10.25 11.7 -9.15 13.35 -8.1 Q14.85 -7.25 15.05 -5.8 L14.95 -5.15 Q14.55 -3.45 13.45 -1.6 L13.3 -1.4 13.75 -2.5 13.75 -4.0 11.7 -4.1 Q5.75 -4.9 5.75 -9.75 L5.95 -15.65 Q6.1 -19.25 5.75 -21.25 4.8 -27.0 -0.85 -27.0 -4.6 -27.0 -6.75 -24.0 -8.75 -21.15 -8.75 -16.6 -9.9 -13.3 -9.25 -4.5 L-9.2 3.3 Q-9.3 4.95 -9.0 6.5 L-9.25 6.4 -9.5 6.25 -12.9 -3.0 Q-14.05 -6.4 -14.55 -9.5 L-14.75 -13.55 -14.75 -14.25 Q-14.8 -18.4 -13.95 -21.25 L-13.15 -24.15 M11.55 2.85 L11.3 7.0 10.75 13.45 Q10.4 16.45 11.15 23.7 11.9 30.9 12.25 31.65 L12.1 32.25 11.75 32.25 11.0 32.25 9.35 31.75 7.85 31.7 Q6.85 31.55 6.85 30.95 L7.1 29.75 7.35 27.85 Q7.35 25.9 7.5 24.25 7.6 22.2 8.85 16.6 L8.85 16.1 8.75 16.1 Q7.05 19.95 6.3 22.05 5.7 23.75 5.25 25.4 L5.15 24.65 4.75 21.25 Q4.75 19.2 11.55 2.85 M-9.25 31.75 L-12.5 31.55 -12.25 25.75 Q-12.25 21.55 -13.05 9.85 L-13.35 5.1 -11.65 8.45 Q-9.45 12.1 -9.0 13.75 -8.05 16.9 -7.65 19.7 -7.25 22.55 -7.25 26.35 -7.25 28.75 -7.5 29.5 L-7.75 29.5 Q-7.6 27.65 -8.8 25.6 -10.3 23.05 -10.5 22.0 L-10.5 22.85 -9.85 26.45 -9.25 31.0 -9.25 31.75" fill="#8667aa" fill-rule="evenodd" stroke="none"/>
    </g>
    <g id="sprite16" transform="matrix(1.0, 0.0, 0.0, 1.0, 18.5, 24.4)">
      <use ffdec:characterId="1419" height="26.85" transform="matrix(1.0, 0.0, 0.0, 1.0, -14.4, -12.7)" width="28.8" xlink:href="#shape10"/>
      <use ffdec:characterId="1081" height="100.0" id="shape" transform="matrix(0.29, 0.0, 0.0, 0.27, -14.4997, -13.4995)" width="100.0" xlink:href="#sprite2"/>
    </g>
    <g id="shape10" transform="matrix(1.0, 0.0, 0.0, 1.0, 14.4, 12.7)">
      <path d="M10.25 -11.95 L12.85 -11.55 12.85 -9.1 Q12.85 -3.3 11.1 1.25 10.6 2.55 9.9 6.45 9.45 9.15 8.55 10.75 L8.4 10.9 8.15 11.15 Q6.65 12.7 4.65 13.4 L4.35 13.4 0.95 13.15 -1.4 12.55 -2.15 12.2 -4.05 10.8 Q-9.2 7.3 -9.85 4.7 -10.55 2.05 -10.25 -0.75 -10.0 -3.6 -8.0 -6.1 -6.0 -8.6 -5.7 -12.45 L-3.7 -12.4 Q-4.2 -10.1 -4.75 -8.75 L-6.4 -5.65 Q-7.55 -3.95 -7.9 -0.8 -8.3 2.35 -6.8 5.8 -5.3 9.25 -3.35 10.45 -1.45 11.6 1.9 12.45 5.25 13.25 6.7 11.1 8.15 8.9 8.85 5.5 L10.15 -0.25 Q10.85 -3.45 10.85 -6.2 L10.8 -8.35 10.25 -11.1 10.25 -11.95" fill="#90bce7" fill-rule="evenodd" stroke="none"/>
      <path d="M-3.7 -12.4 L-1.9 -12.25 Q1.3 -11.95 5.25 -12.1 L9.5 -12.1 10.15 -11.95 10.25 -11.95 10.25 -11.1 10.8 -8.35 10.85 -6.2 Q10.85 -3.45 10.15 -0.25 L8.85 5.5 Q8.15 8.9 6.7 11.1 5.25 13.25 1.9 12.45 -1.45 11.6 -3.35 10.45 -5.3 9.25 -6.8 5.8 -8.3 2.35 -7.9 -0.8 -7.55 -3.95 -6.4 -5.65 L-4.75 -8.75 Q-4.2 -10.1 -3.7 -12.4" fill="#82add7" fill-rule="evenodd" stroke="none"/>
      <path d="M12.85 -11.55 Q13.75 -11.25 13.85 -10.6 L14.2 -8.15 14.4 -2.6 Q12.9 6.4 8.55 10.75 9.45 9.15 9.9 6.45 10.6 2.55 11.1 1.25 12.85 -3.3 12.85 -9.1 L12.85 -11.55 M4.65 13.4 L3.85 13.65 -0.55 14.05 -3.0 13.7 -5.3 13.5 Q-8.3 13.3 -11.0 11.25 -14.5 8.2 -14.4 2.2 L-14.05 -3.8 -13.65 -5.7 -12.95 -7.5 -12.4 -8.75 -10.65 -12.7 -10.5 -12.4 -5.7 -12.45 Q-6.0 -8.6 -8.0 -6.1 -10.0 -3.6 -10.25 -0.75 -10.55 2.05 -9.85 4.7 -9.2 7.3 -4.05 10.8 L-2.15 12.2 -1.4 12.55 0.95 13.15 4.35 13.4 4.65 13.4" fill="#aacdf0" fill-rule="evenodd" stroke="none"/>
    </g>
    <g id="sprite17" transform="matrix(1.0, 0.0, 0.0, 1.0, 13.35, 10.5)">
      <use ffdec:characterId="1434" ffdec:characterName="game_fla.upperleg1_763" height="74.8" id="upperLeg1" transform="matrix(1.0, 0.0, 0.0, 1.0, -12.65, -10.5)" width="27.8" xlink:href="#sprite18"/>
      <use ffdec:characterId="1440" height="81.15" id="lowerLegOuter1" transform="matrix(1.0, 0.0, 0.0, 1.0, -13.35, 48.35)" width="33.15" xlink:href="#sprite19"/>
    </g>
    <g id="sprite18" transform="matrix(1.0, 0.0, 0.0, 1.0, 14.5, 37.0)">
      <use ffdec:characterId="1430" height="74.2" transform="matrix(1.0, 0.0, 0.0, 1.0, -14.5, -36.8)" width="27.5" xlink:href="#shape11"/>
      <use ffdec:characterId="1081" height="100.0" id="shape" transform="matrix(0.24, 0.0, 0.0, 0.74, -11.9987, -36.9995)" width="100.0" xlink:href="#sprite2"/>
    </g>
    <g id="shape11" transform="matrix(1.0, 0.0, 0.0, 1.0, 14.5, 36.8)">
      <path d="M7.0 31.6 L7.2 30.9 7.25 29.95 7.05 28.15 6.0 22.95 5.85 22.3 Q5.15 19.15 4.95 16.95 L4.45 14.6 1.55 20.05 0.9 21.2 2.35 15.4 4.35 6.9 Q4.75 1.6 6.0 -8.35 L5.5 -15.45 Q5.5 -15.75 5.8 -16.15 L5.9 -16.25 6.1 -16.9 5.95 -17.55 5.6 -18.7 4.75 -20.8 Q6.35 -20.8 6.35 -22.1 6.35 -24.0 7.85 -26.75 9.05 -29.0 9.4 -28.55 9.1 -29.25 8.5 -29.25 L6.0 -27.95 3.5 -26.5 2.5 -27.0 Q4.15 -27.45 5.7 -28.4 7.25 -29.4 7.65 -30.1 L7.8 -30.7 8.4 -32.0 8.75 -33.15 Q9.95 -31.9 10.75 -30.25 L10.85 -29.95 9.0 -25.85 7.15 -22.4 7.25 -20.1 8.5 -20.75 10.0 -20.75 Q9.75 -19.9 8.25 -18.9 L7.4 -18.35 Q7.55 -16.5 7.85 -14.8 L8.95 -15.25 11.0 -15.75 11.0 -15.55 9.3 -13.65 8.45 -12.55 8.25 -12.25 Q8.65 -9.25 8.65 -6.0 8.65 -1.0 8.1 1.8 L7.95 2.55 7.45 11.15 7.4 12.05 7.15 15.5 Q7.0 16.7 7.15 18.5 7.25 20.3 7.5 21.5 L7.65 23.45 Q7.75 25.95 9.25 26.5 L8.65 28.15 7.25 31.1 7.0 31.6 M-7.0 -35.25 L-7.75 -32.75 -8.0 -30.65 -8.25 -29.6 Q-8.2 -27.6 -8.85 -23.5 L-8.95 -22.8 -10.1 -19.7 Q-10.75 -17.55 -10.75 -16.1 -10.75 -14.85 -10.1 -13.9 L-9.1 -12.75 -7.8 -11.95 Q-5.15 -10.7 -4.8 -7.4 L-4.25 -3.05 Q-4.0 -1.25 -4.0 0.55 -4.0 2.9 -4.5 6.15 -4.95 9.05 -5.0 11.6 L-5.0 12.35 -5.2 15.65 -6.0 20.75 Q-6.3 22.55 -7.15 25.45 -7.7 27.2 -7.75 28.95 L-7.75 29.2 -7.75 29.4 -7.75 30.8 -7.55 32.15 -7.65 31.9 -8.45 28.2 -7.8 24.25 -7.65 23.45 -7.2 17.9 -6.75 13.35 Q-5.75 5.0 -5.75 0.35 -5.75 -5.9 -8.85 -10.3 L-10.75 -12.75 -11.0 -13.05 Q-12.0 -14.35 -12.0 -15.25 L-12.0 -15.3 Q-12.8 -17.25 -13.0 -18.8 L-12.95 -19.65 -12.85 -20.25 -12.9 -20.9 -12.95 -23.75 Q-12.95 -29.55 -9.65 -33.3 L-9.55 -33.4 Q-9.2 -33.65 -8.8 -33.85 L-7.0 -35.25" fill="#90bce7" fill-rule="evenodd" stroke="none"/>
      <path d="M8.75 -33.15 L8.4 -32.0 7.8 -30.7 7.65 -30.1 Q7.25 -29.4 5.7 -28.4 4.15 -27.45 2.5 -27.0 L3.5 -26.5 6.0 -27.95 8.5 -29.25 Q9.1 -29.25 9.4 -28.55 9.05 -29.0 7.85 -26.75 6.35 -24.0 6.35 -22.1 6.35 -20.8 4.75 -20.8 L5.6 -18.7 5.95 -17.55 6.1 -16.9 5.9 -16.25 5.8 -16.15 Q5.5 -15.75 5.5 -15.45 L6.0 -8.35 Q4.75 1.6 4.35 6.9 L2.35 15.4 0.9 21.2 1.55 20.05 4.45 14.6 4.95 16.95 Q5.15 19.15 5.85 22.3 L6.0 22.95 7.05 28.15 7.25 29.95 7.2 30.9 7.0 31.6 6.75 32.0 5.7 34.15 Q4.0 36.75 0.9 37.05 L-1.5 37.4 -2.0 37.4 -3.3 37.15 Q-4.45 36.75 -5.4 35.9 L-5.7 35.45 -6.65 34.3 Q-7.3 33.65 -7.55 32.15 L-7.75 30.8 -7.75 29.4 -7.75 29.2 -7.75 28.95 Q-7.7 27.2 -7.15 25.45 -6.3 22.55 -6.0 20.75 L-5.2 15.65 -5.0 12.35 -5.0 11.6 Q-4.95 9.05 -4.5 6.15 -4.0 2.9 -4.0 0.55 -4.0 -1.25 -4.25 -3.05 L-4.8 -7.4 Q-5.15 -10.7 -7.8 -11.95 L-9.1 -12.75 -10.1 -13.9 Q-10.75 -14.85 -10.75 -16.1 -10.75 -17.55 -10.1 -19.7 L-8.95 -22.8 -8.85 -23.5 Q-8.2 -27.6 -8.25 -29.6 L-8.0 -30.65 -7.75 -32.75 -7.0 -35.25 Q-6.05 -35.9 -2.9 -36.55 L2.9 -36.3 5.75 -35.25 7.75 -34.05 7.85 -33.95 8.75 -33.15 M7.5 -33.5 L7.25 -33.5 Q7.6 -32.25 5.45 -30.75 L3.0 -29.5 1.05 -28.45 Q0.95 -27.75 2.0 -27.75 5.7 -27.75 7.85 -33.05 L7.5 -33.5 M0.15 -4.25 L0.0 -8.1 -0.15 -9.7 -0.15 -8.9 -0.65 2.0 -0.55 11.15 -0.45 20.75 0.05 18.05 0.15 -4.25 M-1.8 -24.5 L-2.05 -21.3 -1.1 -15.4 -0.3 -10.75 -0.9 -16.8 -1.65 -24.5 -1.8 -24.5" fill="#82add7" fill-rule="evenodd" stroke="none"/>
      <path d="M9.25 26.5 Q7.75 25.95 7.65 23.45 L7.5 21.5 Q7.25 20.3 7.15 18.5 7.0 16.7 7.15 15.5 L7.4 12.05 7.45 11.15 7.95 2.55 8.1 1.8 Q8.65 -1.0 8.65 -6.0 8.65 -9.25 8.25 -12.25 L8.45 -12.55 9.3 -13.65 11.0 -15.55 11.0 -15.75 8.95 -15.25 7.85 -14.8 Q7.55 -16.5 7.4 -18.35 L8.25 -18.9 Q9.75 -19.9 10.0 -20.75 L8.5 -20.75 7.25 -20.1 7.15 -22.4 9.0 -25.85 10.85 -29.95 Q11.7 -27.95 11.95 -25.4 12.65 -22.45 12.9 -16.2 L13.0 -8.85 13.0 -3.4 Q13.0 4.45 12.3 11.15 L12.25 11.7 10.95 20.1 10.7 21.1 9.7 25.0 9.55 25.6 9.25 26.5 M-8.45 28.2 L-8.5 27.85 Q-8.95 24.45 -8.8 20.95 L-9.05 18.55 -9.1 17.95 -9.05 16.2 -9.85 11.25 -9.85 -0.4 -10.35 -4.3 -10.85 -8.45 -11.95 -12.75 -12.15 -13.6 Q-13.25 -15.45 -13.85 -18.7 L-14.0 -19.55 -14.45 -23.5 -14.5 -26.05 Q-14.5 -29.8 -10.35 -32.85 L-9.65 -33.3 Q-12.95 -29.55 -12.95 -23.75 L-12.9 -20.9 -12.85 -20.25 -12.95 -19.65 -13.0 -18.8 Q-12.8 -17.25 -12.0 -15.3 L-12.0 -15.25 Q-12.0 -14.35 -11.0 -13.05 L-10.75 -12.75 -8.85 -10.3 Q-5.75 -5.9 -5.75 0.35 -5.75 5.0 -6.75 13.35 L-7.2 17.9 -7.65 23.45 -7.8 24.25 -8.45 28.2" fill="#aacdf0" fill-rule="evenodd" stroke="none"/>
      <path d="M7.5 -33.5 L7.85 -33.05 Q5.7 -27.75 2.0 -27.75 0.95 -27.75 1.05 -28.45 L3.0 -29.5 5.45 -30.75 Q7.6 -32.25 7.25 -33.5 L7.5 -33.5 M0.15 -4.25 L0.05 18.05 -0.45 20.75 -0.55 11.15 -0.65 2.0 -0.15 -8.9 -0.15 -9.7 0.0 -8.1 0.15 -4.25 M-1.8 -24.5 L-1.65 -24.5 -0.9 -16.8 -0.3 -10.75 -1.1 -15.4 -2.05 -21.3 -1.8 -24.5" fill="#7091b1" fill-rule="evenodd" stroke="none"/>
    </g>
    <g id="sprite19" transform="matrix(1.0, 0.0, 0.0, 1.0, 14.3, 7.6)">
      <use ffdec:characterId="1439" ffdec:characterName="game_fla.lowerleg1_765" height="81.15" id="lowerLeg1" transform="matrix(1.0, 0.0, 0.0, 1.0, -14.3, -7.6)" width="33.15" xlink:href="#sprite20"/>
    </g>
    <g id="sprite20" transform="matrix(1.0, 0.0, 0.0, 1.0, 12.25, 39.25)">
      <use ffdec:characterId="1435" height="80.2" transform="matrix(1.0, 0.0, 0.0, 1.0, -10.55, -38.3)" width="31.45" xlink:href="#shape12"/>
      <use ffdec:characterId="1081" height="100.0" id="shape" transform="matrix(0.18, 0.0, 0.0, 0.7801, -8.9996, -39.0045)" width="100.0" xlink:href="#sprite2"/>
    </g>
    <g id="shape12" transform="matrix(1.0, 0.0, 0.0, 1.0, 10.55, 38.3)">
      <path d="M-0.15 21.85 L0.85 21.9 0.9 22.0 1.3 22.8 1.2 23.6 1.2 25.05 Q1.3 25.8 1.7 26.15 L1.65 26.9 1.7 26.95 Q2.9 29.25 5.65 31.15 L5.6 31.5 5.55 31.6 5.6 31.95 5.0 32.15 3.5 32.5 2.2 32.55 -3.25 32.0 -3.45 30.25 -3.35 30.0 -3.6 28.1 -3.6 27.95 Q-3.55 27.1 -3.15 26.45 -2.75 25.75 -2.75 25.15 L-3.15 22.7 -2.9 22.0 -2.8 21.7 -0.15 21.85 M0.5 30.5 L1.0 28.75 0.0 27.75 0.1 27.3 0.1 27.05 0.0 27.3 -0.1 27.65 -0.35 27.45 -0.9 27.0 -1.1 26.9 Q-1.15 25.8 -1.5 24.8 L-2.4 25.6 -2.45 26.7 -2.45 26.9 -2.8 28.05 -2.85 28.8 -2.5 30.25 Q-1.9 31.6 -0.6 31.6 -0.05 31.6 0.5 30.5 M-5.5 31.75 L-6.1 31.6 -6.9 31.4 -5.6 29.15 Q-5.4 29.75 -5.45 30.5 L-5.6 31.7 -5.5 31.75" fill="#ebbb98" fill-rule="evenodd" stroke="none"/>
      <path d="M4.95 22.15 L4.9 22.85 Q4.75 25.05 5.4 26.9 6.05 28.6 7.5 30.0 6.5 29.95 5.85 30.95 L5.7 31.15 5.65 31.15 Q2.9 29.25 1.7 26.95 L1.65 26.9 1.7 26.15 Q1.3 25.8 1.2 25.05 L1.2 23.6 1.3 22.8 0.9 22.0 0.85 21.9 2.05 21.95 4.95 22.15 M-8.15 31.05 L-8.15 31.0 -7.4 28.2 -7.2 27.25 -6.6 24.3 -6.25 22.0 -6.2 21.5 -5.7 21.55 -3.1 21.7 -2.8 21.7 -2.9 22.0 -3.15 22.7 -2.75 25.15 Q-2.75 25.75 -3.15 26.45 -3.55 27.1 -3.6 27.95 L-3.6 28.1 -3.35 30.0 -3.45 30.25 -3.25 32.0 -5.5 31.75 -5.6 31.7 -5.45 30.5 Q-5.4 29.75 -5.6 29.15 L-6.9 31.4 -7.8 31.1 -8.05 31.05 -8.15 31.05" fill="#ffcc99" fill-rule="evenodd" stroke="none"/>
      <path d="M0.5 30.5 Q-0.05 31.6 -0.6 31.6 -1.9 31.6 -2.5 30.25 L-2.85 28.8 -2.8 28.05 -2.45 26.9 -2.45 26.7 -2.4 25.6 -1.5 24.8 Q-1.15 25.8 -1.1 26.9 L-0.9 27.0 -0.35 27.45 -0.1 27.65 0.0 27.3 0.1 27.05 0.1 27.3 0.0 27.75 1.0 28.75 0.5 30.5" fill="#e2b181" fill-rule="evenodd" stroke="none"/>
      <path d="M7.5 30.0 L7.9 30.1 8.65 30.6 7.5 30.6 8.95 31.4 9.35 31.7 Q10.0 31.9 10.5 32.25 L11.15 32.25 14.75 34.4 15.55 34.75 15.75 34.8 15.15 35.25 14.6 35.85 13.85 36.75 9.8 33.5 8.25 32.35 8.4 33.05 8.45 33.2 8.5 33.25 8.7 34.0 Q11.7 35.6 13.75 36.9 L14.25 37.25 14.5 37.25 16.4 35.6 16.8 35.25 19.05 36.55 Q20.8 37.7 20.9 38.65 L18.2 39.5 14.9 39.6 8.4 39.0 1.35 37.8 -5.5 37.35 Q-8.2 37.0 -9.7 35.85 L-9.45 33.5 -9.0 31.4 Q-8.95 30.65 -8.2 31.0 L-8.15 31.05 -8.05 31.05 -7.8 31.1 -6.9 31.4 -6.1 31.6 -5.5 31.75 -3.25 32.0 2.2 32.55 3.5 32.5 5.75 32.5 5.9 32.6 6.0 32.65 5.9 32.1 5.95 31.5 5.6 31.5 5.65 31.15 5.7 31.15 5.85 30.95 Q6.5 29.95 7.5 30.0 M20.75 40.2 L20.75 40.65 Q20.85 41.2 19.45 41.6 L17.3 41.9 14.75 41.85 14.25 41.85 11.45 41.7 8.0 41.2 5.45 40.85 4.25 40.65 1.3 40.25 -1.9 40.0 -5.75 39.75 -8.35 39.45 Q-9.15 39.2 -9.75 38.6 L-9.75 37.2 Q-7.25 38.4 -2.85 38.4 L-0.65 38.6 5.45 39.25 14.25 40.25 Q17.65 40.4 20.75 40.2 M7.55 35.65 L7.85 35.7 8.1 34.6 8.0 33.65 7.7 32.65 7.5 31.95 7.1 30.75 6.95 31.75 6.95 31.8 6.9 32.35 6.8 33.05 6.7 33.95 Q6.7 35.3 7.55 35.65 M7.15 36.2 L7.1 36.2 Q5.8 36.15 5.75 34.7 L5.9 33.5 Q5.7 34.05 5.45 35.55 5.45 36.2 5.85 36.55 6.25 36.95 6.8 36.95 7.65 36.95 8.2 36.05 L8.55 35.3 Q8.25 36.2 7.15 36.2" fill="#e9e1d6" fill-rule="evenodd" stroke="none"/>
      <path d="M8.65 30.6 L8.85 30.6 10.2 30.6 Q11.05 30.7 11.25 31.05 L11.25 32.25 11.15 32.25 10.5 32.25 Q10.0 31.9 9.35 31.7 L8.95 31.4 7.5 30.6 8.65 30.6 M15.75 34.8 L16.8 35.25 16.4 35.6 14.5 37.25 14.25 37.25 13.75 36.9 Q11.7 35.6 8.7 34.0 L8.5 33.25 8.45 33.2 8.4 33.05 8.25 32.35 9.8 33.5 13.85 36.75 14.6 35.85 15.15 35.25 15.75 34.8 M20.9 38.65 L20.9 39.0 20.75 40.2 Q17.65 40.4 14.25 40.25 L5.45 39.25 -0.65 38.6 -2.85 38.4 Q-7.25 38.4 -9.75 37.2 L-9.75 36.45 -9.7 35.85 Q-8.2 37.0 -5.5 37.35 L1.35 37.8 8.4 39.0 14.9 39.6 18.2 39.5 20.9 38.65 M3.5 32.5 L5.0 32.15 5.6 31.95 5.55 31.6 5.6 31.5 5.95 31.5 5.9 32.1 6.0 32.65 5.9 32.6 5.75 32.5 3.5 32.5 M6.9 32.35 L7.3 33.3 Q7.7 34.2 7.7 34.85 L7.65 35.5 7.55 35.65 Q6.7 35.3 6.7 33.95 L6.8 33.05 6.9 32.35" fill="#d0c9bf" fill-rule="evenodd" stroke="none"/>
      <path d="M6.9 32.35 L6.95 31.8 6.95 31.75 7.1 30.75 7.5 31.95 7.7 32.65 8.0 33.65 8.1 34.6 7.85 35.7 7.55 35.65 7.65 35.5 7.7 34.85 Q7.7 34.2 7.3 33.3 L6.9 32.35 M7.15 36.2 Q8.25 36.2 8.55 35.3 L8.2 36.05 Q7.65 36.95 6.8 36.95 6.25 36.95 5.85 36.55 5.45 36.2 5.45 35.55 5.7 34.05 5.9 33.5 L5.75 34.7 Q5.8 36.15 7.1 36.2 L7.15 36.2" fill="#b1aba3" fill-rule="evenodd" stroke="none"/>
      <path d="M-5.2 -35.35 L-4.25 -36.55 -3.9 -36.85 -3.4 -37.25 Q-2.05 -38.25 -0.35 -38.3 5.2 -38.45 7.7 -36.1 9.45 -34.45 9.95 -33.05 L10.15 -32.0 Q10.15 -31.05 9.75 -30.2 L9.75 -30.15 9.7 -30.05 9.2 -29.4 7.2 -25.15 Q5.05 -21.2 4.5 -19.25 3.9 -17.1 3.55 -12.2 L3.0 -5.0 1.35 9.25 1.3 9.75 0.4 17.55 0.35 18.05 0.0 18.0 -0.5 18.0 -1.05 18.0 -1.05 17.9 -1.0 17.55 -1.0 16.1 -1.15 11.6 -0.75 7.0 Q-0.4 4.1 -0.45 2.5 L-0.6 -2.8 Q-0.7 -6.5 -0.1 -10.45 0.5 -14.4 1.5 -18.2 2.45 -22.0 1.5 -27.35 L1.2 -27.75 0.6 -23.15 1.0 -22.05 1.35 -21.0 1.15 -19.85 0.75 -18.6 Q0.6 -18.2 0.6 -17.1 L0.6 -15.55 Q-0.9 -6.75 -0.9 -4.55 L-1.2 1.25 -1.5 7.15 -1.9 17.55 -1.9 17.9 -1.9 18.05 -3.4 18.2 -3.45 17.85 -3.5 17.55 -5.0 11.25 -5.35 10.25 Q-6.0 8.75 -7.6 6.15 -9.5 3.1 -9.5 0.85 -9.5 -3.4 -6.35 -11.6 -3.25 -19.8 -3.25 -24.1 L-3.65 -29.25 -3.9 -29.8 -4.5 -30.8 Q-5.25 -32.0 -5.25 -34.7 L-5.25 -35.2 -5.2 -35.35 M0.15 19.5 L0.1 20.05 -0.15 21.85 -2.8 21.7 -3.1 21.7 -3.25 19.2 -2.0 19.3 -1.85 19.35 -1.2 19.4 -0.15 19.45 0.15 19.5" fill="#82add7" fill-rule="evenodd" stroke="none"/>
      <path d="M-5.2 -35.35 L-5.25 -35.2 -5.25 -35.3 -5.2 -35.35 M9.7 -30.05 L9.75 -30.15 9.0 -18.55 7.9 -5.0 7.3 8.55 7.15 11.7 7.1 12.75 6.35 19.9 5.15 19.5 3.75 18.85 2.75 18.45 2.9 17.55 3.4 13.0 3.65 9.9 3.75 8.95 4.75 -6.0 Q5.2 -9.75 7.75 -19.05 9.4 -24.95 9.7 -30.05 M6.3 20.0 Q5.95 22.15 5.5 22.15 L4.95 22.15 2.05 21.95 2.55 19.7 5.1 19.9 6.3 20.0 M-6.2 21.5 L-7.7 21.4 -7.9 18.75 -7.8 18.75 -6.15 18.95 -5.6 19.0 -5.6 19.95 -5.7 21.55 -6.2 21.5 M-7.95 18.25 L-8.3 14.1 -8.3 13.75 -8.55 10.75 -8.95 7.35 -9.85 0.6 -10.0 -0.55 Q-10.65 -6.15 -10.5 -11.4 -10.4 -16.65 -8.15 -27.4 L-7.25 -30.95 -6.0 -34.05 -5.3 -31.45 -5.3 -31.3 -5.25 -30.3 -5.0 -26.05 Q-4.8 -23.35 -7.4 -17.35 -10.0 -11.4 -10.0 -4.85 -10.0 -1.5 -9.35 2.35 L-7.0 9.5 -6.65 10.45 -6.65 10.5 -6.15 14.25 -5.75 17.55 -5.65 18.35 -6.25 18.35 -6.5 18.35 -7.95 18.25" fill="#aacdf0" fill-rule="evenodd" stroke="none"/>
      <path d="M-5.25 -35.2 L-5.25 -34.7 Q-5.25 -32.0 -4.5 -30.8 L-3.9 -29.8 -3.65 -29.25 -3.25 -24.1 Q-3.25 -19.8 -6.35 -11.6 -9.5 -3.4 -9.5 0.85 -9.5 3.1 -7.6 6.15 -6.0 8.75 -5.35 10.25 L-5.0 11.25 -3.5 17.55 -3.45 17.85 -3.4 18.2 -3.6 18.2 -5.65 18.35 -5.75 17.55 -6.15 14.25 -6.65 10.5 -6.65 10.45 -7.0 9.5 -9.35 2.35 Q-10.0 -1.5 -10.0 -4.85 -10.0 -11.4 -7.4 -17.35 -4.8 -23.35 -5.0 -26.05 L-5.25 -30.3 -5.3 -31.3 -5.3 -31.45 -6.0 -34.05 -5.25 -35.3 -5.25 -35.2 M0.35 18.05 L0.4 17.55 1.3 9.75 1.35 9.25 3.0 -5.0 3.55 -12.2 Q3.9 -17.1 4.5 -19.25 5.05 -21.2 7.2 -25.15 L9.2 -29.4 9.7 -30.05 Q9.4 -24.95 7.75 -19.05 5.2 -9.75 4.75 -6.0 L3.75 8.95 3.65 9.9 3.4 13.0 2.9 17.55 2.75 18.45 0.35 18.05 M0.15 19.5 L0.4 19.5 2.55 19.7 2.05 21.95 0.85 21.9 -0.15 21.85 0.1 20.05 0.15 19.5 M-5.7 21.55 L-5.6 19.95 -5.6 19.0 -3.25 19.2 -3.1 21.7 -5.7 21.55" fill="#90bce7" fill-rule="evenodd" stroke="none"/>
      <path d="M-3.4 18.2 L-1.9 18.05 -1.9 17.9 -1.9 17.55 -1.5 7.15 -1.2 1.25 -0.9 -4.55 Q-0.9 -6.75 0.6 -15.55 L0.6 -17.1 Q0.6 -18.2 0.75 -18.6 L1.15 -19.85 1.35 -21.0 1.0 -22.05 0.6 -23.15 1.2 -27.75 1.5 -27.35 Q2.45 -22.0 1.5 -18.2 0.5 -14.4 -0.1 -10.45 -0.7 -6.5 -0.6 -2.8 L-0.45 2.5 Q-0.4 4.1 -0.75 7.0 L-1.15 11.6 -1.0 16.1 -1.0 17.55 -1.05 17.9 -1.05 18.0 -0.5 18.0 0.0 18.0 0.35 18.05 2.75 18.45 3.75 18.85 5.15 19.5 6.35 19.9 6.3 20.0 5.1 19.9 2.55 19.7 0.4 19.5 0.15 19.5 -0.15 19.45 -1.2 19.4 -1.85 19.35 -2.0 19.3 -3.25 19.2 -5.6 19.0 -6.15 18.95 -7.8 18.75 -7.9 18.75 -7.95 18.25 -6.5 18.35 -6.25 18.35 -5.65 18.35 -3.6 18.2 -3.4 18.2" fill="#7091b1" fill-rule="evenodd" stroke="none"/>
    </g>
    <g id="sprite21" transform="matrix(1.0, 0.0, 0.0, 1.0, 8.95, 13.05)">
      <use ffdec:characterId="1446" ffdec:characterName="game_fla.upperarm1_767" height="47.9" id="upperArm1" transform="matrix(1.0, 0.0, 0.0, 1.0, -8.95, -13.05)" width="17.25" xlink:href="#sprite22"/>
      <use ffdec:characterId="1453" height="60.0" id="lowerArmOuter1" transform="matrix(1.0, 0.0, 0.0, 1.0, -7.65, 26.3501)" width="13.5" xlink:href="#sprite23"/>
    </g>
    <g id="sprite22" transform="matrix(1.0, 0.0, 0.0, 1.0, 8.65, 25.9)">
      <use ffdec:characterId="1442" height="43.8" transform="matrix(1.0, 0.0, 0.0, 1.0, -8.5, -22.0)" width="17.1" xlink:href="#shape13"/>
      <use ffdec:characterId="1081" height="100.0" id="shape" transform="matrix(0.15, 0.0, 0.0, 0.44, -7.4989, -21.9994)" width="100.0" xlink:href="#sprite2"/>
    </g>
    <g id="shape13" transform="matrix(1.0, 0.0, 0.0, 1.0, 8.5, 22.0)">
      <path d="M3.45 1.35 Q2.75 -2.2 2.75 -3.1 2.75 -6.15 3.5 -7.2 L4.15 -8.6 4.5 -10.85 Q4.75 -13.45 3.75 -15.85 2.75 -18.25 0.25 -18.25 -2.8 -18.25 -4.25 -17.25 -6.0 -16.0 -6.0 -13.1 -6.0 -11.85 -5.35 -9.65 L-5.05 -8.45 Q-4.75 -6.95 -4.75 -5.75 -4.75 -3.85 -5.75 -0.85 L-6.35 1.0 Q-8.55 1.1 -8.5 0.4 L-8.4 -2.25 -7.75 -4.6 Q-7.0 -7.7 -7.0 -9.6 L-7.5 -14.25 -7.5 -14.75 -7.15 -16.2 -5.85 -18.1 Q-4.7 -19.75 -0.85 -20.0 2.95 -20.25 5.0 -17.8 7.0 -15.35 7.0 -12.1 L6.9 -10.2 6.65 -8.6 Q6.25 -6.4 6.25 -5.0 6.25 -3.7 6.75 -1.95 7.2 -0.35 7.75 0.5 L7.8 -2.2 8.0 -1.25 8.6 1.15 8.3 1.65 7.05 1.6 6.25 1.55 3.45 1.35" fill="#8667aa" fill-rule="evenodd" stroke="none"/>
      <path d="M-6.2 3.55 Q-4.65 4.2 -3.9 6.3 -3.25 8.15 -3.25 11.65 L-3.0 8.05 -2.85 4.0 1.4 3.75 6.2 3.75 5.5 11.5 Q5.2 14.25 5.15 18.0 4.6 21.6 -0.75 21.8 -6.1 22.0 -6.35 13.8 L-6.2 3.55" fill="#ffcc99" fill-rule="evenodd" stroke="none"/>
      <path d="M7.8 -2.2 L7.75 0.5 Q7.2 -0.35 6.75 -1.95 6.25 -3.7 6.25 -5.0 6.25 -6.4 6.65 -8.6 L6.9 -10.2 7.0 -12.1 Q7.0 -15.35 5.0 -17.8 2.95 -20.25 -0.85 -20.0 -4.7 -19.75 -5.85 -18.1 L-7.15 -16.2 -6.5 -18.1 Q-4.95 -22.2 -0.3 -22.0 4.4 -21.85 6.25 -19.35 8.1 -16.85 8.1 -14.4 L7.95 -11.15 7.65 -4.55 Q7.65 -3.3 7.8 -2.2 M-7.5 -14.75 L-7.5 -14.25 -7.0 -9.6 Q-7.0 -7.7 -7.75 -4.6 L-8.4 -2.25 -8.25 -7.2 -8.2 -9.15 -7.5 -14.75" fill="#a07acd" fill-rule="evenodd" stroke="none"/>
      <path d="M-6.35 1.0 L-5.75 -0.85 Q-4.75 -3.85 -4.75 -5.75 -4.75 -6.95 -5.05 -8.45 L-5.35 -9.65 Q-6.0 -11.85 -6.0 -13.1 -6.0 -16.0 -4.25 -17.25 -2.8 -18.25 0.25 -18.25 2.75 -18.25 3.75 -15.85 4.75 -13.45 4.5 -10.85 L4.15 -8.6 3.5 -7.2 Q2.75 -6.15 2.75 -3.1 2.75 -2.2 3.45 1.35 L1.3 1.2 -6.0 1.0 -6.15 1.0 -6.35 1.0" fill="#775d95" fill-rule="evenodd" stroke="none"/>
      <path d="M3.45 1.35 L6.25 1.55 6.2 3.75 1.4 3.75 -2.85 4.0 -3.0 8.05 -3.25 11.65 Q-3.25 8.15 -3.9 6.3 -4.65 4.2 -6.2 3.55 L-6.15 1.0 -6.0 1.0 1.3 1.2 3.45 1.35" fill="#e2b181" fill-rule="evenodd" stroke="none"/>
    </g>
    <g id="sprite23" transform="matrix(1.0, 0.0, 0.0, 1.0, 7.55, 4.65)">
      <use ffdec:characterId="1452" ffdec:characterName="game_fla.lowerarm1_769" height="60.0" id="lowerArm1" transform="matrix(1.0, 0.0, 0.0, 1.0, -7.55, -4.65)" width="13.5" xlink:href="#sprite24"/>
    </g>
    <g id="sprite24" transform="matrix(1.0, 0.0, 0.0, 1.0, 7.5, 27.2)">
      <use ffdec:characterId="1449" ffdec:characterName="game_fla.hand1_770" height="19.6" id="hand" transform="matrix(1.0, 0.0, 0.0, 1.0, -7.5, 13.2)" width="13.1" xlink:href="#sprite25"/>
      <use ffdec:characterId="1450" height="44.55" transform="matrix(1.0, 0.0, 0.0, 1.0, -6.05, -27.2)" width="11.3" xlink:href="#shape15"/>
      <use ffdec:characterId="1081" height="100.0" id="shape" transform="matrix(0.12, 0.0, 0.0, 0.54, -5.999, -27.0004)" width="100.0" xlink:href="#sprite2"/>
    </g>
    <g id="sprite25" transform="matrix(1.0, 0.0, 0.0, 1.0, 7.5, 7.1)">
      <use ffdec:characterId="1447" height="14.1" transform="matrix(1.0, 0.0, 0.0, 1.0, -5.75, -7.1)" width="11.35" xlink:href="#shape14"/>
    </g>
    <g id="shape14" transform="matrix(1.0, 0.0, 0.0, 1.0, 5.75, 7.1)">
      <path d="M3.95 -7.1 L4.1 -7.1 4.1 -6.95 5.5 0.15 Q5.7 1.2 5.4 1.75 L4.5 2.9 4.65 5.05 4.1 4.25 Q2.75 4.8 1.45 5.65 L0.35 4.9 Q-0.3 5.8 -0.9 5.55 L-1.6 5.3 -2.05 4.7 -5.0 3.8 -4.7 3.25 Q-3.85 1.35 -3.45 -0.7 L-2.6 -3.75 Q-2.2 -4.75 -2.05 -5.7 L-1.95 -6.2 1.3 -6.6 1.1 -6.2 1.4 -5.9 1.75 -5.7 3.3 -3.2 3.95 -5.75 3.9 -6.9 3.95 -7.1 M-3.8 -6.0 L-3.55 -6.75 -3.65 -7.05 -3.65 -7.1 -3.25 -7.1 -3.8 -6.0" fill="#ffcc99" fill-rule="evenodd" stroke="none"/>
      <path d="M4.65 5.05 L4.6 5.35 4.55 5.5 2.95 6.45 2.1 6.15 2.0 6.1 1.6 6.5 0.7 6.9 0.05 6.85 -0.95 6.35 -1.0 6.4 -1.5 6.8 -2.4 6.5 -4.4 5.05 -5.25 4.7 -5.75 3.9 -5.45 1.85 -4.55 -2.55 -3.8 -6.0 -3.25 -7.1 3.95 -7.1 3.9 -6.9 3.95 -5.75 3.3 -3.2 1.75 -5.7 1.4 -5.9 1.1 -6.2 1.3 -6.6 -1.95 -6.2 -2.05 -5.7 Q-2.2 -4.75 -2.6 -3.75 L-3.45 -0.7 Q-3.85 1.35 -4.7 3.25 L-5.0 3.8 -2.05 4.7 -1.6 5.3 -0.9 5.55 Q-0.3 5.8 0.35 4.9 L1.45 5.65 Q2.75 4.8 4.1 4.25 L4.65 5.05" fill="#ebbb98" fill-rule="evenodd" stroke="none"/>
    </g>
    <g id="shape15" transform="matrix(1.0, 0.0, 0.0, 1.0, 6.05, 27.2)">
      <path d="M0.35 -16.65 L-0.25 -19.5 -0.55 -20.75 -0.75 -22.0 Q-0.75 -22.85 -1.05 -23.2 L-1.6 -23.5 -2.1 -22.45 -2.15 -21.0 Q-2.15 -20.1 -1.05 -16.5 -0.3 -14.0 -0.1 -11.2 L0.0 -8.7 -0.15 -6.8 0.5 -11.2 0.6 -14.25 0.35 -16.65 M-4.95 -24.85 Q-4.65 -25.75 -3.9 -26.3 -2.45 -27.35 0.65 -27.15 2.1 -27.05 3.1 -26.3 L3.75 -25.65 Q5.3 -23.8 5.25 -19.55 5.05 -12.3 4.45 -6.1 3.8 0.05 3.9 4.2 L3.8 9.95 3.85 10.25 Q4.2 14.75 3.85 17.35 2.65 17.0 1.8 15.95 L0.65 14.6 -0.7 14.75 -2.25 14.75 -2.25 14.6 -2.7 13.05 -3.25 11.5 -3.9 7.5 -4.8 3.7 -4.9 3.25 -5.05 1.9 Q-5.75 -4.45 -6.0 -11.2 L-6.0 -12.35 Q-6.2 -17.9 -5.8 -21.4 L-5.1 -20.45 Q-4.8 -21.75 -5.15 -23.15 L-4.95 -24.85" fill="#ffcc99" fill-rule="evenodd" stroke="none"/>
      <path d="M0.35 -16.65 L0.6 -14.25 0.5 -11.2 -0.15 -6.8 0.0 -8.7 -0.1 -11.2 Q-0.3 -14.0 -1.05 -16.5 -2.15 -20.1 -2.15 -21.0 L-2.1 -22.45 -1.6 -23.5 -1.05 -23.2 Q-0.75 -22.85 -0.75 -22.0 L-0.55 -20.75 -0.25 -19.5 0.35 -16.65 M-2.25 14.75 L-2.65 14.7 -3.9 14.4 -4.2 10.8 -4.9 3.25 -4.8 3.7 -3.9 7.5 -3.25 11.5 -2.7 13.05 -2.25 14.6 -2.25 14.75" fill="#ebbb98" fill-rule="evenodd" stroke="none"/>
      <path d="M-5.8 -21.4 L-5.9 -22.8 Q-5.9 -23.8 -4.95 -24.85 L-5.15 -23.15 Q-4.8 -21.75 -5.1 -20.45 L-5.8 -21.4" fill="#f4c398" fill-rule="evenodd" stroke="none"/>
    </g>
  </defs>
</svg>
