<?xml version="1.0" encoding="UTF-8" standalone="no"?>
<svg xmlns:ffdec="https://www.free-decompiler.com/flash" xmlns:xlink="http://www.w3.org/1999/xlink" ffdec:objectType="frame" height="155.15px" width="238.05px" xmlns="http://www.w3.org/2000/svg">
  <g transform="matrix(1.0, 0.0, 0.0, 1.0, 118.75, 77.55)">
    <use ffdec:characterId="959" height="155.15" transform="matrix(1.0, 0.0, 0.0, 1.0, -118.75, -77.55)" width="238.05" xlink:href="#shape0"/>
  </g>
  <defs>
    <g id="shape0" transform="matrix(1.0, 0.0, 0.0, 1.0, 118.75, 77.55)">
      <path d="M-92.4 4.35 Q-97.6 3.7 -99.45 0.05 -101.3 -3.65 -102.6 -8.0 -104.2 -13.7 -107.4 -31.3 -110.7 -49.6 -110.55 -53.05 L-110.6 -56.0 -110.5 -57.6 Q-110.4 -58.4 -109.4 -59.1 L-108.7 -59.5 Q-107.0 -60.35 -106.0 -60.15 L-103.6 -59.1 Q-102.25 -58.45 -101.75 -57.15 L-100.6 -54.0 Q-100.3 -53.4 -96.05 -33.25 -92.25 -15.45 -88.95 -12.65 L-88.75 -12.45 Q-86.05 -10.3 -82.6 -9.4 L-78.75 -8.65 -74.25 -8.4 -64.75 -8.15 -61.3 -8.25 Q-54.15 -8.45 -47.45 -8.05 L-40.35 -7.55 Q-36.7 -7.4 -34.9 -4.95 -33.15 -2.5 -33.1 -0.1 -33.05 1.45 -33.8 2.45 L-34.85 3.3 -36.15 3.9 -39.5 4.35 -92.4 4.35 M13.0 -60.35 L1.45 -58.1 -1.15 -67.5 12.2 -71.7 17.4 -77.55 Q19.7 -75.9 21.95 -74.3 L24.85 -62.65 22.9 -62.25 22.6 -62.2 13.0 -60.35 M-100.4 -35.1 Q-99.75 -29.95 -98.7 -25.0 L-96.15 -13.8 Q-95.45 -10.8 -92.55 -10.85 L-91.95 -11.8 Q-93.6 -14.25 -94.4 -17.1 L-97.6 -29.3 Q-98.7 -33.6 -99.2 -38.15 -99.95 -46.2 -103.45 -53.35 L-102.25 -46.25 Q-101.15 -40.7 -100.4 -35.1 M-91.55 -8.1 L-90.4 -9.2 -89.85 -10.05 -90.1 -11.25 Q-91.1 -11.35 -91.75 -10.45 L-93.05 -8.55 -93.8 -7.1 Q-92.5 -7.2 -91.55 -8.1 M-86.25 -8.5 Q-87.25 -8.65 -87.2 -7.15 L-87.7 -4.6 -87.2 -4.1 -86.05 -5.85 -85.25 -7.4 Q-85.25 -8.3 -86.25 -8.5 M-89.4 -6.6 L-88.75 -7.3 Q-88.0 -8.15 -88.0 -8.45 -88.0 -9.6 -88.75 -9.1 L-89.6 -8.35 Q-91.2 -6.55 -91.2 -5.95 L-91.1 -5.05 -89.4 -6.6 M-84.05 -6.9 L-84.25 -6.65 Q-84.5 -5.95 -83.95 -5.2 -83.75 -4.85 -84.25 -3.1 L-83.65 -3.95 -82.45 -5.05 -80.2 -5.45 -64.75 -5.35 -36.7 -3.65 Q-38.1 -4.45 -39.55 -4.95 -43.3 -6.35 -47.35 -6.35 -56.05 -6.3 -64.75 -6.4 L-84.05 -6.9 M-105.7 -39.15 L-101.5 -10.95 Q-100.0 0.25 -90.85 1.9 L-55.95 1.85 -90.85 0.95 Q-98.3 0.3 -100.7 -12.55 L-105.7 -39.15" fill="#081410" fill-rule="evenodd" stroke="none"/>
      <path d="M24.25 -62.25 L24.8 -62.1 25.2 -61.6 24.25 -62.25" fill="#999999" fill-rule="evenodd" stroke="none"/>
      <path d="M13.0 -60.35 L22.6 -62.2 22.9 -62.25 24.25 -62.25 25.2 -61.6 Q27.45 -59.9 29.35 -55.65 L31.75 -47.75 30.65 -47.7 30.6 -47.7 30.65 -47.7 31.75 -47.75 37.25 -29.4 36.1 -29.35 37.25 -29.4 39.55 -21.7 39.85 -16.75 39.55 -21.7 42.05 -13.3 40.9 -13.25 42.05 -13.3 47.3 4.15 47.3 4.3 47.35 4.3 47.3 4.3 46.1 4.3 47.3 4.3 47.3 4.15 47.35 4.3 51.45 17.9 50.25 18.05 50.2 18.05 46.1 4.3 40.9 -13.25 39.85 -16.75 36.1 -29.35 30.7 -47.45 30.6 -47.7 27.9 -56.8 26.45 -59.1 Q22.0 -62.9 24.85 -59.55 L25.6 -57.95 26.1 -56.45 Q22.3 -61.95 13.0 -60.35 M30.7 -47.45 L30.65 -47.7 30.7 -47.45" fill="#727b7e" fill-rule="evenodd" stroke="none"/>
      <path d="M48.6 4.3 L52.6 17.7 52.0 17.8 51.5 17.85 51.45 17.9 47.35 4.3 47.3 4.15 42.05 -13.3 39.55 -21.7 37.25 -29.4 31.75 -47.75 29.35 -55.65 Q27.45 -59.9 25.2 -61.6 L24.8 -62.1 Q28.15 -61.15 30.8 -55.2 L33.0 -47.8 31.75 -47.75 33.0 -47.8 38.5 -29.45 37.25 -29.4 38.5 -29.45 39.2 -27.15 39.55 -21.7 39.2 -27.15 43.3 -13.35 42.05 -13.3 43.3 -13.35 47.1 -0.7 48.6 4.3 47.35 4.3 48.6 4.3 M47.1 -0.7 L47.3 4.15 47.1 -0.7" fill="#eceefa" fill-rule="evenodd" stroke="none"/>
      <path d="M48.9 18.25 L44.75 4.3 46.1 4.3 50.2 18.05 49.5 18.15 48.9 18.25 M26.1 -56.45 L25.6 -57.95 24.85 -59.55 Q22.0 -62.9 26.45 -59.1 L27.9 -56.8 30.6 -47.7 29.25 -47.6 30.6 -47.7 30.7 -47.45 36.1 -29.35 34.7 -29.25 36.1 -29.35 39.85 -16.75 40.05 -13.2 39.55 -13.15 40.05 -13.2 39.85 -16.75 40.9 -13.25 40.05 -13.2 40.2 -10.95 40.05 -13.2 40.9 -13.25 46.1 4.3 44.75 4.3 40.2 -10.95 39.55 -13.15 34.7 -29.25 31.25 -40.95 29.25 -47.6 27.25 -54.2 26.1 -56.45 M31.25 -40.95 L30.7 -47.45 31.25 -40.95" fill="#b8bdc6" fill-rule="evenodd" stroke="none"/>
      <path d="M91.7 49.5 L91.75 49.35 100.9 18.5 Q101.5 15.75 101.7 13.5 101.85 11.2 100.25 10.5 98.6 9.8 94.05 9.55 L63.85 9.55 63.85 4.35 98.95 4.35 Q106.45 5.2 107.45 8.5 108.45 11.75 106.75 18.5 L97.6 49.35 Q93.85 59.6 91.0 61.9 90.05 62.55 88.75 63.0 L88.7 63.0 83.0 63.75 79.85 63.65 76.5 63.65 76.5 57.8 85.4 57.8 Q87.1 58.0 88.2 57.05 L89.05 55.95 90.15 53.85 90.15 53.8 91.7 49.5 M32.25 63.65 L-35.25 63.65 -35.25 60.65 -35.25 59.4 32.25 59.4 32.25 60.2 32.25 63.65 M-115.25 60.05 L-117.2 59.8 -118.25 58.95 Q-119.0 57.55 -118.65 55.9 -118.5 55.2 -117.85 54.8 -117.0 54.35 -116.05 54.25 L-98.4 55.05 -97.35 55.85 Q-96.6 57.25 -97.0 58.45 L-97.5 59.25 -98.05 59.85 -115.25 60.05 M-100.85 22.45 L-101.85 19.2 Q-102.55 16.95 -102.55 14.7 L-102.5 13.9 Q-102.45 12.1 -101.95 10.85 -101.45 9.2 -100.05 7.55 -98.65 5.85 -97.05 5.3 L-92.4 4.35 -39.5 4.35 Q-31.2 5.6 -30.35 16.0 L-30.15 20.4 Q-30.15 29.4 -32.8 41.35 -36.1 56.3 -36.5 57.3 -38.45 56.35 -40.6 54.4 L-38.05 41.45 Q-35.6 28.75 -35.3 21.4 L-35.25 20.4 Q-35.25 13.85 -37.15 11.75 -39.2 9.45 -43.45 9.55 L-89.85 9.55 Q-93.3 9.4 -95.95 11.05 -97.55 12.05 -97.85 13.9 -98.05 15.05 -97.7 16.5 L-96.6 21.7 Q-98.95 21.9 -100.85 22.45 M106.5 10.75 Q106.5 8.8 105.05 7.6 103.35 6.25 100.45 7.05 104.5 9.2 105.0 13.15 105.3 15.35 104.8 19.45 L105.05 19.45 Q106.5 12.55 106.5 10.75 M-39.25 6.55 L-39.3 6.65 -39.4 6.85 Q-34.3 9.1 -32.6 12.9 -31.65 15.1 -31.6 19.45 L-31.35 19.45 -31.3 18.75 Q-31.3 14.65 -32.8 10.95 -35.0 5.55 -39.25 6.55 M-95.8 7.7 L-95.9 7.1 -96.05 7.0 Q-97.95 6.65 -99.55 8.9 -101.0 10.85 -101.0 12.35 L-100.95 13.05 -100.85 13.35 -100.6 13.35 Q-99.7 11.3 -97.65 9.45 L-95.8 7.7 M-117.35 55.85 L-117.5 56.8 -114.15 55.85 -117.35 55.85" fill="#0c160d" fill-rule="evenodd" stroke="none"/>
      <path d="M-35.25 57.8 L32.25 57.8 32.25 59.4 -35.25 59.4 -35.25 57.8 M106.5 10.75 Q106.5 12.55 105.05 19.45 L104.8 19.45 Q105.3 15.35 105.0 13.15 104.5 9.2 100.45 7.05 103.35 6.25 105.05 7.6 106.5 8.8 106.5 10.75 M-39.25 6.55 Q-35.0 5.55 -32.8 10.95 -31.3 14.65 -31.3 18.75 L-31.35 19.45 -31.6 19.45 Q-31.65 15.1 -32.6 12.9 -34.3 9.1 -39.4 6.85 L-39.3 6.65 -39.25 6.55 M-95.8 7.7 L-97.65 9.45 Q-99.7 11.3 -100.6 13.35 L-100.85 13.35 -100.95 13.05 -101.0 12.35 Q-101.0 10.85 -99.55 8.9 -97.95 6.65 -96.05 7.0 L-95.9 7.1 -95.8 7.7 M-117.35 55.85 L-114.15 55.85 -117.5 56.8 -117.35 55.85" fill="#535c59" fill-rule="evenodd" stroke="none"/>
      <path d="M52.6 17.7 L59.0 16.85 Q60.85 17.35 61.75 19.05 62.6 20.7 63.15 22.85 L63.85 25.8 Q75.1 21.35 78.8 23.7 82.7 26.15 85.85 31.45 90.65 39.55 91.7 49.5 L90.15 53.8 90.15 53.85 89.05 55.95 88.2 57.05 Q87.05 48.55 85.05 42.2 L84.0 39.3 Q82.25 34.9 79.95 31.95 76.9 28.1 72.75 28.2 L66.95 28.75 Q65.25 29.15 56.0 32.8 46.7 36.4 44.55 39.2 43.15 41.05 41.75 44.3 L39.35 49.6 Q36.95 54.5 33.85 58.0 L39.5 56.7 44.65 55.4 49.1 53.85 49.6 53.65 51.3 52.8 56.15 50.1 56.9 49.65 Q61.0 47.6 64.0 46.9 L66.4 46.5 Q68.6 46.4 70.55 47.45 L73.0 49.2 Q74.1 50.25 74.9 51.7 75.9 53.55 76.3 56.05 74.85 53.75 73.4 52.35 71.4 50.35 69.45 50.05 L68.6 49.95 65.55 50.45 Q63.55 50.95 60.7 52.05 L58.65 52.8 51.2 56.05 51.05 56.1 49.65 56.6 44.8 57.7 40.1 58.45 34.75 59.4 32.25 60.2 32.25 59.4 32.25 57.8 Q37.45 50.9 38.45 47.45 L39.8 41.95 Q40.05 40.7 41.65 38.85 L41.9 23.35 42.2 21.65 Q42.7 19.85 43.75 19.35 44.45 19.0 47.95 18.4 L48.9 18.25 49.5 18.15 50.2 18.05 50.25 18.05 51.45 17.9 51.5 17.85 52.0 17.8 52.6 17.7 M-116.25 46.3 Q-116.1 40.2 -114.9 38.65 L-111.35 34.7 -110.95 34.25 -107.6 32.95 Q-103.65 31.4 -101.3 31.4 -97.3 31.4 -93.45 32.6 -89.85 33.7 -86.4 35.8 L-83.65 37.65 -80.35 39.95 -74.3 44.1 -72.05 45.65 -66.45 49.4 -62.1 52.1 Q-56.55 55.5 -52.1 57.65 -56.4 56.15 -61.65 53.45 L-66.15 51.0 Q-69.75 49.05 -72.1 47.85 -72.6 47.55 -73.05 47.35 -78.95 43.95 -83.1 41.9 L-84.8 41.1 Q-87.95 39.65 -90.8 38.75 L-94.2 37.85 -99.7 37.25 -103.55 37.7 Q-107.9 38.65 -112.0 41.85 -114.75 43.95 -116.25 46.3 M-109.1 30.05 L-109.05 29.75 Q-107.25 24.2 -100.85 22.45 -98.95 21.9 -96.6 21.7 L-95.1 21.6 -90.0 21.75 Q-73.9 23.0 -64.9 28.55 -56.0 34.15 -48.5 45.0 -44.3 51.15 -40.6 54.4 -38.45 56.35 -36.5 57.3 L-35.25 57.8 -35.25 59.4 -35.25 60.65 Q-42.0 57.9 -48.05 51.65 L-56.45 41.65 Q-64.45 32.1 -72.8 29.45 -81.1 26.8 -91.35 26.8 -101.6 26.75 -104.2 27.05 -106.8 27.3 -109.1 30.05 M87.15 39.3 L87.25 39.15 Q85.65 33.7 84.05 31.05 81.5 26.75 77.8 25.3 75.25 25.2 75.25 24.85 L75.2 24.25 75.1 24.1 Q74.3 24.1 72.25 24.8 70.1 25.5 69.75 25.95 L74.35 25.5 Q79.65 28.0 83.0 31.8 85.95 35.15 87.15 39.3 M62.3 22.7 L61.75 22.9 61.65 21.6 Q61.7 19.95 60.55 18.7 57.6 17.45 54.85 18.8 L55.3 19.2 55.95 18.9 60.0 20.3 62.1 26.3 62.2 25.75 62.65 25.25 62.3 22.7 M47.3 21.4 Q44.95 22.15 44.05 23.95 43.25 25.6 43.15 29.15 L43.25 37.15 44.35 36.1 Q48.4 32.45 60.7 27.15 60.1 24.25 59.05 22.8 57.45 20.7 54.3 20.7 L53.5 20.7 52.3 20.75 51.0 20.8 49.7 20.95 47.3 21.4 M65.85 48.65 L69.95 48.9 71.05 49.05 70.05 48.6 68.25 47.9 Q66.4 47.25 65.85 47.4 L65.65 47.95 Q65.65 48.75 65.85 48.65 M64.25 48.65 L63.85 48.15 Q62.75 48.1 62.0 48.65 L60.65 49.7 61.45 49.75 62.65 49.35 64.25 48.65 M-65.25 29.85 Q-68.45 27.6 -70.85 26.55 -78.55 23.15 -95.95 23.45 -69.2 24.95 -58.8 34.65 -55.85 37.4 -52.15 43.1 -48.6 48.7 -46.0 51.0 L-45.9 50.75 -52.1 41.9 Q-55.85 36.7 -59.65 33.5 -61.65 32.45 -65.25 29.85 M-73.25 45.6 L-85.95 37.2 -90.0 34.8 Q-91.6 34.15 -93.1 33.95 L-95.75 33.5 -96.2 33.35 Q-100.3 32.05 -104.7 32.95 L-104.55 34.4 -97.95 34.05 -94.2 34.7 -89.25 37.0 -89.2 37.0 -86.1 38.8 -82.95 40.6 -72.75 46.45 -67.35 49.6 -73.25 45.6 M-106.5 35.0 Q-106.2 35.0 -105.95 34.8 L-105.75 34.25 -105.95 33.7 Q-106.2 33.45 -106.5 33.45 L-107.1 33.7 -107.3 34.25 -107.1 34.8 -106.5 35.0" fill="#9f2d2d" fill-rule="evenodd" stroke="none"/>
      <path d="M46.35 63.65 L32.25 63.65 32.25 60.2 34.75 59.4 40.1 58.45 44.8 57.7 49.65 56.6 51.05 56.1 51.2 56.05 58.65 52.8 60.7 52.05 Q63.55 50.95 65.55 50.45 L68.6 49.95 69.45 50.05 Q71.4 50.35 73.4 52.35 74.85 53.75 76.3 56.05 75.9 53.55 74.9 51.7 74.1 50.25 73.0 49.2 L70.55 47.45 Q68.6 46.4 66.4 46.5 L64.0 46.9 Q61.0 47.6 56.9 49.65 L56.15 50.1 51.3 52.8 49.6 53.65 49.1 53.85 44.65 55.4 39.5 56.7 33.85 58.0 Q36.95 54.5 39.35 49.6 L41.75 44.3 Q43.15 41.05 44.55 39.2 46.7 36.4 56.0 32.8 65.25 29.15 66.95 28.75 L72.75 28.2 Q76.9 28.1 79.95 31.95 82.25 34.9 84.0 39.3 L85.05 42.2 Q87.05 48.55 88.2 57.05 87.1 58.0 85.4 57.8 L76.5 57.8 76.5 63.65 71.15 63.65 63.7 63.65 51.8 63.65 46.35 63.65 M-35.25 63.65 L-67.55 63.65 -73.0 63.65 -84.85 63.65 -92.3 63.65 -104.2 63.65 -109.65 63.65 -114.55 63.65 -115.25 60.05 -98.05 59.85 -97.5 59.25 -97.0 58.45 Q-96.6 57.25 -97.35 55.85 L-98.4 55.05 -116.05 54.25 -116.25 51.3 -116.25 46.3 Q-114.75 43.95 -112.0 41.85 -107.9 38.65 -103.55 37.7 L-99.7 37.25 -94.2 37.85 -90.8 38.75 Q-87.95 39.65 -84.8 41.1 L-83.1 41.9 Q-78.95 43.95 -73.05 47.35 -72.6 47.55 -72.1 47.85 -69.75 49.05 -66.15 51.0 L-61.65 53.45 Q-56.4 56.15 -52.1 57.65 -56.55 55.5 -62.1 52.1 L-66.45 49.4 -72.05 45.65 -74.3 44.1 -80.35 39.95 -83.65 37.65 -86.4 35.8 Q-89.85 33.7 -93.45 32.6 -97.3 31.4 -101.3 31.4 -103.65 31.4 -107.6 32.95 L-110.95 34.25 Q-109.55 32.6 -109.1 30.05 -106.8 27.3 -104.2 27.05 -101.6 26.75 -91.35 26.8 -81.1 26.8 -72.8 29.45 -64.45 32.1 -56.45 41.65 L-48.05 51.65 Q-42.0 57.9 -35.25 60.65 L-35.25 63.65 M47.3 21.4 L49.7 20.95 51.0 20.8 52.3 20.75 53.5 20.7 54.3 20.7 Q57.45 20.7 59.05 22.8 60.1 24.25 60.7 27.15 48.4 32.45 44.35 36.1 L43.25 37.15 43.15 29.15 Q43.25 25.6 44.05 23.95 44.95 22.15 47.3 21.4" fill="#691f1f" fill-rule="evenodd" stroke="none"/>
      <path d="M87.15 39.3 Q85.95 35.15 83.0 31.8 79.65 28.0 74.35 25.5 L69.75 25.95 Q70.1 25.5 72.25 24.8 74.3 24.1 75.1 24.1 L75.2 24.25 75.25 24.85 Q75.25 25.2 77.8 25.3 81.5 26.75 84.05 31.05 85.65 33.7 87.25 39.15 L87.15 39.3 M62.3 22.7 L62.65 25.25 62.2 25.75 62.1 26.3 60.0 20.3 55.95 18.9 55.3 19.2 54.85 18.8 Q57.6 17.45 60.55 18.7 61.7 19.95 61.65 21.6 L61.75 22.9 62.3 22.7 M64.25 48.65 L62.65 49.35 61.45 49.75 60.65 49.7 62.0 48.65 Q62.75 48.1 63.85 48.15 L64.25 48.65 M65.85 48.65 Q65.65 48.75 65.65 47.95 L65.85 47.4 Q66.4 47.25 68.25 47.9 L70.05 48.6 71.05 49.05 69.95 48.9 65.85 48.65 M-65.25 29.85 Q-61.65 32.45 -59.65 33.5 -55.85 36.7 -52.1 41.9 L-45.9 50.75 -46.0 51.0 Q-48.6 48.7 -52.15 43.1 -55.85 37.4 -58.8 34.65 -69.2 24.95 -95.95 23.45 -78.55 23.15 -70.85 26.55 -68.45 27.6 -65.25 29.85 M-73.25 45.6 L-67.35 49.6 -72.75 46.45 -82.95 40.6 -86.1 38.8 -89.2 37.0 -89.25 37.0 -94.2 34.7 -97.95 34.05 -104.55 34.4 -104.7 32.95 Q-100.3 32.05 -96.2 33.35 L-95.75 33.5 -93.1 33.95 Q-91.6 34.15 -90.0 34.8 L-85.95 37.2 -73.25 45.6 M-106.5 35.0 L-107.1 34.8 -107.3 34.25 -107.1 33.7 -106.5 33.45 Q-106.2 33.45 -105.95 33.7 L-105.75 34.25 -105.95 34.8 Q-106.2 35.0 -106.5 35.0" fill="#cd5454" fill-rule="evenodd" stroke="none"/>
      <path d="M76.5 63.65 L79.85 63.65 83.0 63.75 81.0 66.5 80.95 66.55 Q75.85 70.6 69.05 71.05 L68.15 71.1 71.6 70.6 Q73.55 69.55 72.95 67.9 L71.15 63.65 76.5 63.65 M63.7 63.65 L61.85 67.9 Q61.25 69.55 63.2 70.6 L66.65 71.1 65.75 71.05 Q58.8 70.6 53.75 66.4 L51.8 63.65 63.7 63.65 M-73.0 63.65 L-75.0 66.5 -75.05 66.55 Q-80.15 70.6 -86.95 71.05 L-87.85 71.1 -84.4 70.6 Q-82.45 69.55 -83.05 67.9 L-84.85 63.65 -73.0 63.65 M-102.25 66.4 L-104.2 63.65 -92.3 63.65 -94.15 67.9 Q-94.75 69.55 -92.8 70.6 L-89.35 71.1 -90.25 71.05 Q-97.2 70.6 -102.25 66.4" fill="#577c5a" fill-rule="evenodd" stroke="none"/>
      <path d="M88.75 63.0 Q87.05 67.35 83.5 70.95 76.8 77.6 67.4 77.6 58.0 77.6 51.3 70.95 48.0 67.65 46.35 63.65 L51.8 63.65 53.75 66.4 54.15 66.85 54.2 66.95 54.75 67.5 Q60.0 72.7 67.4 72.7 74.8 72.7 80.05 67.5 L80.4 67.15 80.95 66.55 81.0 66.5 83.0 63.75 88.7 63.0 88.75 63.0 M-67.55 63.65 Q-69.2 67.65 -72.5 70.95 -79.2 77.6 -88.6 77.6 -98.0 77.6 -104.7 70.95 -108.0 67.65 -109.65 63.65 L-104.2 63.65 -102.25 66.4 -101.85 66.85 -101.8 66.95 -101.25 67.5 Q-96.0 72.7 -88.6 72.7 -81.2 72.7 -75.95 67.5 L-75.6 67.15 -75.05 66.55 -75.0 66.5 -73.0 63.65 -67.55 63.65 M66.65 71.1 L63.2 70.6 Q61.25 69.55 61.85 67.9 L63.7 63.65 71.15 63.65 72.95 67.9 Q73.55 69.55 71.6 70.6 L68.15 71.1 66.65 71.1 M-84.85 63.65 L-83.05 67.9 Q-82.45 69.55 -84.4 70.6 L-87.85 71.1 -89.35 71.1 -92.8 70.6 Q-94.75 69.55 -94.15 67.9 L-92.3 63.65 -84.85 63.65" fill="#1a2a1f" fill-rule="evenodd" stroke="none"/>
      <path d="M66.65 71.1 L68.15 71.1 69.05 71.05 Q75.85 70.6 80.95 66.55 L80.4 67.15 80.05 67.5 Q74.8 72.7 67.4 72.7 60.0 72.7 54.75 67.5 L54.2 66.95 54.15 66.85 53.75 66.4 Q58.8 70.6 65.75 71.05 L66.65 71.1 M-75.05 66.55 L-75.6 67.15 -75.95 67.5 Q-81.2 72.7 -88.6 72.7 -96.0 72.7 -101.25 67.5 L-101.8 66.95 -101.85 66.85 -102.25 66.4 Q-97.2 70.6 -90.25 71.05 L-89.35 71.1 -87.85 71.1 -86.95 71.05 Q-80.15 70.6 -75.05 66.55" fill="#92bca8" fill-rule="evenodd" stroke="none"/>
      <path d="M-100.4 -35.1 Q-101.15 -40.7 -102.25 -46.25 L-103.45 -53.35 Q-99.95 -46.2 -99.2 -38.15 -98.7 -33.6 -97.6 -29.3 L-94.4 -17.1 Q-93.6 -14.25 -91.95 -11.8 L-92.55 -10.85 Q-95.45 -10.8 -96.15 -13.8 L-98.7 -25.0 Q-99.75 -29.95 -100.4 -35.1 M-91.55 -8.1 Q-92.5 -7.2 -93.8 -7.1 L-93.05 -8.55 -91.75 -10.45 Q-91.1 -11.35 -90.1 -11.25 L-89.85 -10.05 -90.4 -9.2 -91.55 -8.1 M-84.05 -6.9 L-64.75 -6.4 Q-56.05 -6.3 -47.35 -6.35 -43.3 -6.35 -39.55 -4.95 -38.1 -4.45 -36.7 -3.65 L-64.75 -5.35 -80.2 -5.45 -82.45 -5.05 -83.65 -3.95 -84.25 -3.1 Q-83.75 -4.85 -83.95 -5.2 -84.5 -5.95 -84.25 -6.65 L-84.05 -6.9 M-89.4 -6.6 L-91.1 -5.05 -91.2 -5.95 Q-91.2 -6.55 -89.6 -8.35 L-88.75 -9.1 Q-88.0 -9.6 -88.0 -8.45 -88.0 -8.15 -88.75 -7.3 L-89.4 -6.6 M-86.25 -8.5 Q-85.25 -8.3 -85.25 -7.4 L-86.05 -5.85 -87.2 -4.1 -87.7 -4.6 -87.2 -7.15 Q-87.25 -8.65 -86.25 -8.5 M-105.7 -39.15 L-100.7 -12.55 Q-98.3 0.3 -90.85 0.95 L-55.95 1.85 -90.85 1.9 Q-100.0 0.25 -101.5 -10.95 L-105.7 -39.15" fill="#2b493d" fill-rule="evenodd" stroke="none"/>
      <path d="M66.9 -49.65 L66.55 -31.1 73.4 -31.55 74.15 -50.05 66.9 -49.65 59.65 -49.25 59.65 -30.75 66.55 -31.1 66.2 -14.65 72.75 -15.0 73.4 -31.55 80.3 -31.95 81.15 -50.4 74.15 -50.05 M74.2 -50.8 Q74.4 -55.7 77.1 -55.65 L81.35 -55.85 88.7 -56.15 96.2 -56.55 103.45 -56.85 110.95 -57.2 118.8 -57.55 117.95 -52.35 115.05 -33.9 112.45 -17.2 109.4 1.95 Q109.0 4.35 106.5 4.3 L102.85 4.3 96.7 4.3 90.5 4.3 84.35 4.3 78.15 4.3 72.0 4.3 65.8 4.3 59.65 4.3 53.45 4.3 48.6 4.3 47.35 4.3 47.3 4.3 46.1 4.3 44.75 4.3 41.1 4.3 34.95 4.3 30.1 4.3 Q28.7 4.25 28.6 2.95 L27.05 -12.45 25.55 -12.4 M33.0 -47.8 L37.9 -48.1 45.15 -48.45 52.4 -48.85 59.65 -49.25 M29.25 -47.6 L30.6 -47.7 30.65 -47.7 31.75 -47.75 33.0 -47.8 M30.7 -47.45 L31.25 -40.95 32.2 -29.15 34.7 -29.25 36.1 -29.35 37.25 -29.4 38.5 -29.45 39.05 -29.5 37.9 -48.1 M30.65 -47.7 L30.7 -47.45 M23.6 -28.65 L25.35 -28.75 23.4 -47.35 21.85 -47.25 M29.25 -47.6 L23.4 -47.35 M39.55 -13.15 L40.05 -13.2 39.85 -16.75 39.55 -21.7 39.2 -27.15 39.05 -29.5 45.9 -29.95 45.15 -48.45 M25.35 -28.75 L32.2 -29.15 33.55 -12.8 39.55 -13.15 M40.2 -10.95 L40.05 -13.2 40.9 -13.25 42.05 -13.3 43.3 -13.35 46.55 -13.55 45.9 -29.95 52.75 -30.35 52.4 -48.85 M25.35 -28.75 L27.05 -12.45 33.55 -12.8 34.95 4.3 M52.75 -30.35 L59.65 -30.75 59.65 -14.3 66.2 -14.65 65.8 4.3 M47.3 4.15 L47.1 -0.7 46.55 -13.55 53.1 -13.9 59.65 -14.3 59.65 4.3 M53.45 4.3 L53.1 -13.9 52.75 -30.35 M78.15 4.3 L79.3 -15.35 72.75 -15.0 72.0 4.3 M79.3 -15.35 L85.9 -15.7 87.2 -32.3 80.3 -31.95 79.3 -15.35 M81.35 -55.85 L81.15 -50.4 88.4 -50.8 88.7 -56.15 M88.4 -50.8 L95.7 -51.15 96.2 -56.55 M103.45 -56.85 L102.9 -51.55 110.3 -51.9 110.95 -57.2 M117.95 -52.35 L110.3 -51.9 107.9 -33.5 115.05 -33.9 M95.7 -51.15 L94.1 -32.7 101.05 -33.1 102.9 -51.55 95.7 -51.15 M88.4 -50.8 L87.2 -32.3 94.1 -32.7 92.5 -16.1 99.1 -16.45 101.05 -33.1 107.9 -33.5 105.7 -16.8 112.45 -17.2 M90.5 4.3 L92.5 -16.1 85.9 -15.7 84.35 4.3 M99.1 -16.45 L105.7 -16.8 102.85 4.3 M47.3 4.15 L47.3 4.3 M40.2 -10.95 L41.1 4.3 M99.1 -16.45 L96.7 4.3" fill="none" stroke="#000000" stroke-linecap="round" stroke-linejoin="round" stroke-opacity="0.49803922" stroke-width="1.0"/>
    </g>
  </defs>
</svg>
