<?xml version="1.0" encoding="UTF-8" standalone="no"?>
<svg xmlns:ffdec="https://www.free-decompiler.com/flash" xmlns:xlink="http://www.w3.org/1999/xlink" ffdec:objectType="frame" height="21.55px" width="19.05px" xmlns="http://www.w3.org/2000/svg">
  <g transform="matrix(1.0, 0.0, 0.0, 1.0, 9.55, 10.8)">
    <use ffdec:characterId="2519" height="21.55" transform="matrix(1.0, 0.0, 0.0, 1.0, -9.55, -10.8)" width="19.05" xlink:href="#shape0"/>
  </g>
  <defs>
    <g id="shape0" transform="matrix(1.0, 0.0, 0.0, 1.0, 9.55, 10.8)">
      <path d="M4.05 -3.75 L3.35 -3.5 Q2.6 -5.45 0.6 -6.5 L-0.75 -7.1 -0.35 -6.5 -1.2 -7.1 -1.65 -8.15 -2.35 -8.35 -3.25 -7.8 -5.75 -8.2 -6.25 -7.85 -6.2 -8.15 -5.3 -9.9 -5.05 -10.25 -4.7 -9.6 -3.9 -9.3 -3.4 -9.75 -1.4 -9.65 -0.85 -8.15 2.45 -6.9 4.05 -3.75 M-2.55 4.5 L-2.6 3.65 -2.75 1.45 -1.15 3.75 -1.6 4.5 -1.45 4.9 -2.05 4.9 -2.25 4.85 -2.55 4.5 M3.3 2.95 L3.65 4.35 2.05 3.7 3.45 6.15 2.1 6.1 0.65 4.3 0.75 3.75 1.05 3.4 0.25 1.6 Q1.05 3.2 2.65 3.2 L3.3 2.95 M-4.4 5.9 L-5.55 5.25 Q-7.6 3.85 -7.45 1.25 L-8.25 1.65 -9.2 1.4 -9.1 -0.05 -7.95 -0.8 -3.95 3.3 -2.8 4.75 -3.1 5.4 -2.65 6.45 -3.45 6.5 -4.4 5.9 M-8.95 -1.85 L-9.5 -2.9 -9.0 -3.95 Q-8.25 -5.7 -9.35 -6.9 L-7.05 -8.0 -7.2 -6.8 -8.0 -6.25 -7.75 -5.1 -7.3 -4.8 Q-7.3 -3.6 -7.75 -2.7 -8.25 -1.85 -8.95 -1.85" fill="#990000" fill-rule="evenodd" stroke="none"/>
      <path d="M3.35 -3.5 L4.05 -3.75 7.45 -3.45 7.65 -2.95 6.9 -2.1 5.05 -2.3 4.55 -2.6 3.2 -2.75 3.35 -3.5 M-6.2 -8.15 L-6.25 -7.85 -6.4 -7.15 -6.65 -6.65 -7.2 -6.8 -7.05 -8.0 -6.2 -8.15 M-1.2 -7.1 L-0.35 -6.5 1.2 -4.4 0.65 -4.7 0.0 -5.3 -0.7 -5.4 -2.7 -6.6 -2.8 -7.0 -1.2 -7.1" fill="#ffcc99" fill-rule="evenodd" stroke="none"/>
      <path d="M-3.4 -9.75 L-3.9 -9.3 -4.7 -9.6 -5.05 -10.25 -5.3 -9.9 -6.2 -8.15 -7.05 -8.0 -9.35 -6.9 -9.55 -7.4 -8.15 -9.0 -7.6 -9.05 -7.2 -10.15 Q-5.4 -10.9 -3.45 -10.75 L-3.4 -9.75 M-6.25 -7.85 L-5.75 -8.2 -3.25 -7.8 -2.35 -8.35 -1.65 -8.15 -1.2 -7.1 -2.8 -7.0 -4.05 -6.65 -4.6 -5.65 -5.65 -5.6 -6.4 -7.15 -6.25 -7.85 M-0.35 -6.5 L-0.75 -7.1 0.6 -6.5 Q2.6 -5.45 3.35 -3.5 L3.2 -2.75 2.35 -1.15 1.35 -1.7 1.35 -3.7 1.2 -4.4 -0.35 -6.5 M-6.6 -2.3 L-6.3 -2.5 -5.7 -2.5 -5.05 -0.65 -3.6 3.25 -3.95 3.3 -7.95 -0.8 -7.8 -1.8 -7.45 -2.05 -6.85 -1.95 -6.6 -2.3 M-1.8 -1.4 L-2.25 -2.35 -2.1 -2.75 -1.65 -3.2 -0.8 -3.15 -0.6 -2.9 -0.3 -2.05 -0.6 -1.25 -1.5 -1.1 -1.8 -1.4 M0.2 1.45 L0.7 0.8 Q2.35 1.05 3.35 2.4 L3.3 2.95 2.65 3.2 Q1.05 3.2 0.25 1.6 L0.2 1.55 0.2 1.45 M3.65 4.35 L4.55 6.8 3.45 6.15 2.05 3.7 3.65 4.35 M-7.2 -6.8 L-6.65 -6.65 -6.55 -5.5 -7.3 -4.8 -7.75 -5.1 -8.0 -6.25 -7.2 -6.8 M-2.75 1.45 L-3.45 0.5 -3.2 -0.3 -2.45 0.15 Q-0.15 1.9 0.0 4.7 L-1.45 4.9 -1.6 4.5 -1.15 3.75 -2.75 1.45" fill="#ff0000" fill-rule="evenodd" stroke="none"/>
      <path d="M3.2 -2.75 L4.55 -2.6 5.05 -2.3 4.35 -2.05 6.55 -0.2 Q8.05 1.45 8.5 3.65 L8.55 0.35 Q9.75 2.7 9.45 5.35 L9.35 6.65 8.25 5.65 8.1 10.2 5.55 7.35 4.55 4.55 4.65 6.85 4.55 6.8 3.65 4.35 3.3 2.95 3.35 2.4 Q2.35 1.05 0.7 0.8 L0.2 1.45 -1.5 -1.1 -0.6 -1.25 -0.3 -2.05 -0.6 -2.9 -0.8 -3.15 -1.65 -3.2 -2.1 -2.75 -2.25 -2.35 -1.8 -1.4 -2.45 -2.05 -1.35 0.3 -2.05 -0.35 Q-2.95 -1.3 -3.35 -2.3 L-3.9 -3.5 -4.65 -3.05 -4.85 -1.45 -2.6 3.65 -2.55 4.5 -3.6 3.25 -5.05 -0.65 -5.7 -2.5 -5.65 -3.25 -6.3 -2.5 -6.6 -2.3 -5.65 -5.6 -4.6 -5.65 -4.05 -6.65 -2.8 -7.0 -2.7 -6.6 -2.35 -5.2 -1.75 -4.7 -0.55 -4.8 -0.7 -5.4 0.0 -5.3 0.65 -4.7 -0.35 -3.2 0.65 -3.8 1.35 -3.7 1.35 -1.7 2.35 -1.15 3.2 -2.75 M7.15 5.5 Q6.95 3.3 6.1 1.3 L4.35 0.8 Q6.5 3.9 6.65 7.65 L7.15 7.35 7.15 5.5 M-2.05 4.9 L-2.05 5.0 -2.25 4.85 -2.05 4.9" fill="#999999" fill-rule="evenodd" stroke="none"/>
      <path d="M5.05 -2.3 L6.9 -2.1 8.55 0.35 8.5 3.65 Q8.05 1.45 6.55 -0.2 L4.35 -2.05 5.05 -2.3 M1.35 -3.7 L0.65 -3.8 -0.35 -3.2 0.65 -4.7 1.2 -4.4 1.35 -3.7 M-0.7 -5.4 L-0.55 -4.8 -1.75 -4.7 -2.35 -5.2 -2.7 -6.6 -0.7 -5.4" fill="#cccccc" fill-rule="evenodd" stroke="none"/>
      <path d="M-5.65 -5.6 L-6.6 -2.3 -6.85 -1.95 -7.45 -2.05 -7.8 -1.8 -7.95 -0.8 -9.1 -0.05 -9.2 1.4 -9.2 -0.15 -8.95 -1.85 Q-8.25 -1.85 -7.75 -2.7 -7.3 -3.6 -7.3 -4.8 L-6.55 -5.5 -6.65 -6.65 -6.4 -7.15 -5.65 -5.6 M-6.3 -2.5 L-5.65 -3.25 -5.7 -2.5 -6.3 -2.5 M-3.6 3.25 L-2.55 4.5 -2.25 4.85 -2.05 5.0 -2.05 4.9 -1.45 4.9 0.0 4.7 Q-0.15 1.9 -2.45 0.15 L-3.2 -0.3 -3.45 0.5 -2.75 1.45 -2.6 3.65 -4.85 -1.45 -4.65 -3.05 -3.9 -3.5 -3.35 -2.3 Q-2.95 -1.3 -2.05 -0.35 L-1.35 0.3 -2.45 -2.05 -1.8 -1.4 -1.5 -1.1 0.2 1.45 0.2 1.55 0.25 1.6 1.05 3.4 0.75 3.75 0.65 4.3 2.1 6.1 Q1.45 7.0 1.9 8.05 L2.15 8.45 1.3 8.85 1.15 10.75 -0.2 7.35 -1.0 6.9 Q-2.35 7.15 -3.25 7.95 L-4.4 5.9 -3.45 6.5 -2.65 6.45 -3.1 5.4 -2.8 4.75 -3.95 3.3 -3.6 3.25 M4.65 6.85 L4.55 4.55 5.55 7.35 4.65 6.85 M7.15 5.5 L7.15 7.35 6.65 7.65 Q6.5 3.9 4.35 0.8 L6.1 1.3 Q6.95 3.3 7.15 5.5" fill="#666666" fill-rule="evenodd" stroke="none"/>
    </g>
  </defs>
</svg>
