<?xml version="1.0" encoding="UTF-8" standalone="no"?>
<svg xmlns:ffdec="https://www.free-decompiler.com/flash" xmlns:xlink="http://www.w3.org/1999/xlink" ffdec:objectType="frame" height="21.0px" width="7.0px" xmlns="http://www.w3.org/2000/svg">
  <g transform="matrix(1.0, 0.0, 0.0, 1.0, 3.0, 3.0)">
    <use ffdec:characterId="2854" height="21.0" transform="matrix(1.0, 0.0, 0.0, 1.0, -3.0, -3.0)" width="7.0" xlink:href="#shape0"/>
  </g>
  <defs>
    <g id="shape0" transform="matrix(1.0, 0.0, 0.0, 1.0, 3.0, 3.0)">
      <path d="M4.0 -2.0 L3.0 -2.0 3.0 -0.95 2.0 -0.95 2.0 0.1 1.0 0.1 1.0 15.0 2.0 15.0 2.0 16.0 3.0 16.0 3.0 17.0 4.0 17.0 4.0 18.0 -3.0 18.0 -3.0 17.0 -2.0 17.0 -2.0 16.0 -1.0 16.0 -1.0 15.0 0.0 15.0 0.0 0.1 -1.0 0.1 -1.0 -0.95 -2.0 -0.95 -2.0 -2.0 -3.0 -2.0 -3.0 -3.0 4.0 -3.0 4.0 -2.0" fill="#ffffff" fill-rule="evenodd" stroke="none"/>
    </g>
  </defs>
</svg>
