<?xml version="1.0" encoding="UTF-8" standalone="no"?>
<svg xmlns:ffdec="https://www.free-decompiler.com/flash" xmlns:xlink="http://www.w3.org/1999/xlink" ffdec:objectType="frame" height="74.5px" width="30.1px" xmlns="http://www.w3.org/2000/svg">
  <g transform="matrix(1.0, 0.0, 0.0, 1.0, 13.75, 37.15)">
    <use ffdec:characterId="1945" height="73.25" transform="matrix(1.0, 0.0, 0.0, 1.0, -13.75, -37.1)" width="30.1" xlink:href="#shape0"/>
  </g>
  <defs>
    <g id="shape0" transform="matrix(1.0, 0.0, 0.0, 1.0, 13.75, 37.1)">
      <path d="M2.05 -9.15 L1.8 -9.15 1.55 6.2 2.85 17.55 3.0 18.75 Q3.9 24.95 4.7 25.4 5.55 25.8 6.5 24.05 L7.75 21.7 Q8.0 21.15 7.9 19.8 L7.7 18.75 6.65 15.95 Q5.5 13.45 5.55 13.05 L5.55 12.35 Q4.6 11.15 4.0 7.85 L3.8 6.6 3.75 7.5 3.4 5.4 2.75 -1.8 2.05 -9.15 M-12.5 -17.05 L-12.65 -17.65 -12.95 -19.25 -13.1 -20.2 -13.15 -20.45 -13.45 -23.25 Q-13.9 -28.2 -9.1 -32.95 -4.35 -37.75 0.8 -36.9 5.9 -36.05 9.1 -31.8 12.3 -27.6 12.45 -21.55 L12.6 -13.7 12.6 -11.9 12.6 1.55 12.6 2.15 Q12.55 12.85 11.25 18.75 L10.75 20.55 9.1 25.4 Q8.8 24.3 8.8 23.65 7.5 24.35 6.5 25.55 L6.25 25.55 5.95 25.55 Q4.15 25.5 4.0 26.2 L3.85 26.3 3.35 25.95 Q2.3 25.15 2.5 23.95 L1.55 24.65 Q1.1 24.05 0.9 22.6 L0.55 20.65 0.05 20.65 Q0.4 22.85 0.0 25.15 -0.2 26.4 -0.55 27.3 L-0.95 27.45 -2.15 28.05 -2.9 27.45 -1.95 27.15 Q-0.95 26.7 -0.95 25.9 -0.95 24.95 -2.85 24.3 -4.0 23.7 -4.6 23.75 -5.1 21.75 -5.55 20.45 L-5.7 24.25 -5.7 25.5 Q-5.9 28.4 -6.8 29.75 L-7.3 29.6 -7.4 29.55 Q-8.0 29.05 -8.35 29.1 L-8.3 28.7 -8.15 26.9 -7.95 22.15 -7.6 18.75 -7.45 16.95 -7.55 15.9 -7.7 12.4 -7.8 7.35 -8.05 2.85 -7.95 3.1 -7.15 5.05 -5.25 18.75 -5.0 20.65 -4.85 20.65 -4.6 18.75 -4.6 17.6 -5.35 9.5 Q-5.0 6.8 -5.05 3.9 L-4.8 4.9 Q-2.65 13.45 -1.75 15.15 L-2.65 8.25 -3.75 1.4 -5.0 -5.25 -5.7 -9.05 -5.75 -13.4 -5.65 -13.5 Q-5.2 -13.9 -5.2 -14.1 -5.2 -14.7 -5.75 -14.35 L-8.45 -14.65 Q-10.55 -15.35 -10.55 -15.5 L-12.05 -16.5 -12.5 -17.05" fill="#8c786b" fill-rule="evenodd" stroke="none"/>
      <path d="M2.05 -9.15 L2.75 -1.8 3.4 5.4 3.75 7.5 3.8 6.6 4.0 7.85 Q4.6 11.15 5.55 12.35 L5.55 13.05 Q5.5 13.45 6.65 15.95 L7.7 18.75 7.9 19.8 Q8.0 21.15 7.75 21.7 L6.5 24.05 Q5.55 25.8 4.7 25.4 3.9 24.95 3.0 18.75 L2.85 17.55 1.55 6.2 1.8 -9.15 2.05 -9.15 M-8.05 2.85 L-8.15 2.15 Q-8.8 -2.95 -10.6 -9.35 L-11.1 -11.15 -11.35 -12.1 -11.65 -13.05 -12.15 -14.95 -12.4 -16.45 -12.5 -17.05 -12.05 -16.5 -10.55 -15.5 Q-10.55 -15.35 -8.45 -14.65 L-5.75 -14.35 Q-5.2 -14.7 -5.2 -14.1 -5.2 -13.9 -5.65 -13.5 L-5.75 -13.4 -5.7 -9.05 -5.0 -5.25 -3.75 1.4 -2.65 8.25 -1.75 15.15 Q-2.65 13.45 -4.8 4.9 L-5.05 3.9 Q-5.0 6.8 -5.35 9.5 L-4.6 17.6 -4.6 18.75 -4.85 20.65 -5.0 20.65 -5.25 18.75 -7.15 5.05 -7.95 3.1 -8.05 2.85" fill="#816c5b" fill-rule="evenodd" stroke="none"/>
      <path d="M9.1 25.4 L8.25 27.4 6.55 31.55 6.55 31.1 6.1 30.55 Q5.7 29.55 5.2 29.3 7.2 27.65 7.2 27.0 L7.05 26.15 7.05 26.05 6.9 25.6 6.55 25.55 6.5 25.55 Q7.5 24.35 8.8 23.65 8.8 24.3 9.1 25.4 M-4.6 23.75 L-4.65 23.75 Q-5.1 23.85 -5.25 24.25 L-5.3 24.35 -5.6 25.3 -5.25 26.4 -4.5 27.3 -3.7 27.5 -2.9 27.45 -2.15 28.05 -2.6 28.3 Q-3.05 28.4 -3.4 28.75 L-3.8 29.15 Q-4.2 29.55 -4.2 29.95 L-4.2 30.0 -4.35 30.05 -4.5 30.15 -4.95 30.45 -6.45 29.85 -6.8 29.75 Q-5.9 28.4 -5.7 25.5 L-5.7 24.25 -5.55 20.45 Q-5.1 21.75 -4.6 23.75 M-0.55 27.3 Q-0.2 26.4 0.0 25.15 0.4 22.85 0.05 20.65 L0.55 20.65 0.9 22.6 Q1.1 24.05 1.55 24.65 L2.5 23.95 Q2.3 25.15 3.35 25.95 L3.85 26.3 Q3.3 26.75 3.3 27.3 L3.55 28.05 3.8 28.75 3.45 29.3 3.35 29.4 1.05 28.9 Q2.1 26.3 -0.55 27.3" fill="#ebbc8d" fill-rule="evenodd" stroke="none"/>
      <path d="M-5.3 24.35 L-5.25 24.25 Q-5.1 23.85 -4.65 23.75 L-4.6 23.75 Q-4.0 23.7 -2.85 24.3 L-1.45 25.15 -2.4 26.15 Q-2.7 26.55 -3.5 26.65 L-3.95 26.65 -4.5 26.6 Q-5.15 26.45 -5.35 25.95 L-5.45 25.2 -5.3 24.35 M-4.95 30.45 L-4.5 30.15 -4.35 30.05 -4.2 30.0 -4.2 29.95 Q-4.2 29.55 -3.8 29.15 L-3.4 28.75 Q-3.05 28.4 -2.6 28.3 L-1.95 28.15 -1.1 28.3 -0.7 28.4 -0.2 29.15 -1.45 29.75 -1.0 30.35 -0.45 30.9 1.3 29.65 1.65 29.9 -0.05 31.8 -1.2 33.25 -1.45 33.2 -1.45 33.4 -2.0 34.45 Q-2.35 34.85 -2.7 34.9 -3.2 34.75 -3.2 34.05 -3.2 32.9 -2.2 32.95 L-1.95 31.55 -2.6 31.3 -3.25 32.0 Q-3.8 32.65 -4.5 32.75 L-4.7 32.75 -6.35 32.15 Q-7.85 31.5 -8.25 30.9 L-8.2 30.5 Q-7.4 31.15 -6.1 31.15 L-4.95 30.45 M4.0 26.2 Q4.15 25.5 5.95 25.55 L6.25 25.55 6.5 25.55 6.55 25.55 6.9 25.6 7.05 26.05 7.05 26.15 Q7.0 27.65 5.4 27.65 4.1 27.65 3.95 26.4 L3.95 26.35 4.0 26.2 M5.2 29.3 Q5.7 29.55 6.1 30.55 L6.45 31.65 6.4 31.9 6.3 32.05 5.8 32.15 4.5 31.85 2.8 31.4 2.7 31.05 Q4.05 29.0 4.95 29.2 L5.2 29.3 M1.1 33.0 L2.8 32.5 5.55 32.55 Q4.9 33.65 3.45 33.75 L3.05 33.75 2.05 33.65 1.3 33.45 0.65 33.15 1.1 33.0" fill="#ff0000" fill-rule="evenodd" stroke="none"/>
      <path d="M6.55 31.55 L6.5 32.4 Q6.35 33.25 5.75 33.4 L5.55 33.4 5.3 33.4 Q4.75 34.9 3.15 34.9 L2.55 34.65 2.3 34.5 3.05 33.75 3.45 33.75 Q4.9 33.65 5.55 32.55 L2.8 32.5 1.1 33.0 1.05 33.0 Q1.05 31.1 -0.05 31.8 L1.65 29.9 1.3 29.65 -0.45 30.9 -1.0 30.35 -1.45 29.75 -0.2 29.15 -0.7 28.4 -1.1 28.3 -1.95 28.15 -2.6 28.3 -2.15 28.05 -0.95 27.45 -0.55 27.3 Q2.1 26.3 1.05 28.9 L3.35 29.4 3.45 29.3 3.8 28.75 3.55 28.05 3.3 27.3 Q3.3 26.75 3.85 26.3 L4.0 26.2 3.95 26.35 3.95 26.4 Q4.1 27.65 5.4 27.65 7.0 27.65 7.05 26.15 L7.2 27.0 Q7.2 27.65 5.2 29.3 L4.95 29.2 Q4.05 29.0 2.7 31.05 L2.8 31.4 4.5 31.85 5.8 32.15 6.3 32.05 6.4 31.9 6.45 31.65 6.1 30.55 6.55 31.1 6.55 31.55 M-0.9 35.6 L-2.3 36.15 Q-3.5 36.15 -4.75 35.25 L-6.6 33.55 -8.3 31.1 Q-8.7 30.3 -8.7 29.7 -8.7 29.1 -8.35 29.1 -8.0 29.05 -7.4 29.55 L-7.3 29.6 -6.8 29.75 -6.45 29.85 -4.95 30.45 -6.1 31.15 Q-7.4 31.15 -8.2 30.5 L-8.25 30.9 Q-7.85 31.5 -6.35 32.15 L-4.7 32.75 -4.5 32.75 Q-3.8 32.65 -3.25 32.0 L-2.6 31.3 -1.95 31.55 -2.2 32.95 Q-3.2 32.9 -3.2 34.05 -3.2 34.75 -2.7 34.9 -2.35 34.85 -2.0 34.45 L-2.0 34.55 -1.4 35.25 -0.9 35.6 M-2.9 27.45 L-3.7 27.5 -4.5 27.3 -5.25 26.4 -5.6 25.3 -5.3 24.35 -5.45 25.2 -5.35 25.95 Q-5.15 26.45 -4.5 26.6 L-3.95 26.65 -3.5 26.65 Q-2.7 26.55 -2.4 26.15 L-1.45 25.15 -2.85 24.3 Q-0.95 24.95 -0.95 25.9 -0.95 26.7 -1.95 27.15 L-2.9 27.45" fill="#990000" fill-rule="evenodd" stroke="none"/>
      <path d="M2.3 34.5 L0.15 35.8 -0.9 35.6 -1.4 35.25 -2.0 34.55 -2.0 34.45 -1.45 33.4 -1.45 33.2 -1.2 33.25 -0.05 31.8 Q1.05 31.1 1.05 33.0 L1.1 33.0 0.65 33.15 1.3 33.45 2.05 33.65 3.05 33.75 2.3 34.5" fill="#ffffff" fill-rule="evenodd" stroke="none"/>
      <path d="M9.1 -31.75 Q12.3 -27.55 12.45 -21.5 L12.55 -15.85 12.7 -12.7 Q12.85 -11.05 13.3 -9.45 L14.4 -6.4 14.8 -5.2 Q15.0 -4.35 16.35 -2.7 L13.95 -2.7 14.3 -0.8 14.65 0.55 12.1 0.4 12.15 -0.15 Q12.25 -0.95 11.65 -1.6 10.65 -2.7 9.1 -2.5 6.7 -2.5 6.15 0.05 L5.75 0.25 5.05 -1.25 4.9 -1.95 Q4.9 -3.0 4.3 -3.9 3.7 -4.85 2.55 -4.65 L1.6 -4.25 0.35 0.95 Q-0.9 -2.1 -3.75 -2.45 -4.8 -2.3 -5.6 -1.45 L-6.35 -0.3 Q-7.05 1.25 -6.9 2.95 L-10.65 3.45 -9.7 -2.7 -8.6 -2.7 Q-7.9 -2.8 -7.45 -3.25 L-7.0 -3.85 Q-6.5 -4.85 -7.05 -5.9 L-7.4 -6.15 -8.0 -6.55 -10.0 -6.55 -12.3 -15.85 -12.4 -16.4 -12.65 -17.6 -12.95 -19.2 -13.15 -20.4 -13.7 -25.0 Q-14.15 -28.35 -9.3 -33.1 -4.55 -37.9 0.7 -36.95 5.9 -36.0 9.1 -31.75 M3.75 -8.55 Q3.15 -8.55 2.75 -8.1 2.3 -7.7 2.3 -7.1 2.3 -6.5 2.75 -6.05 3.15 -5.65 3.75 -5.65 4.35 -5.65 4.8 -6.05 5.2 -6.5 5.2 -7.1 5.2 -7.7 4.8 -8.1 4.35 -8.55 3.75 -8.55" fill="#333333" fill-rule="evenodd" stroke="none"/>
    </g>
  </defs>
</svg>
