<?xml version="1.0" encoding="UTF-8" standalone="no"?>
<svg xmlns:ffdec="https://www.free-decompiler.com/flash" xmlns:xlink="http://www.w3.org/1999/xlink" ffdec:objectType="frame" height="20.0px" width="20.0px" xmlns="http://www.w3.org/2000/svg">
  <g transform="matrix(1.0, 0.0, 0.0, 1.0, 0.0, 0.0)">
    <use ffdec:characterId="774" height="20.0" transform="matrix(1.0, 0.0, 0.0, 1.0, 0.0, 0.0)" width="20.0" xlink:href="#shape0"/>
  </g>
  <defs>
    <g id="shape0" transform="matrix(1.0, 0.0, 0.0, 1.0, 0.0, 0.0)">
      <path d="M0.0 0.0 L4.95 0.0 15.05 0.0 20.0 0.0 18.0 2.0 15.05 2.0 4.95 2.0 2.0 2.0 0.0 0.0" fill="#8e8e8e" fill-rule="evenodd" stroke="none"/>
      <path d="M20.0 0.0 L20.0 4.95 20.0 15.05 20.0 20.0 18.0 18.0 18.0 15.05 18.0 4.95 18.0 2.0 20.0 0.0 M0.0 20.0 L0.0 15.05 0.0 4.95 0.0 0.0 2.0 2.0 2.0 4.95 2.0 15.05 2.0 18.0 0.0 20.0" fill="#b7b7b7" fill-rule="evenodd" stroke="none"/>
      <path d="M20.0 20.0 L15.05 20.0 4.95 20.0 0.0 20.0 2.0 18.0 4.95 18.0 15.05 18.0 18.0 18.0 20.0 20.0" fill="#e6e6e6" fill-rule="evenodd" stroke="none"/>
      <path d="M18.0 2.0 L18.0 4.95 18.0 15.05 18.0 18.0 15.05 18.0 4.95 18.0 2.0 18.0 2.0 15.05 2.0 4.95 2.0 2.0 4.95 2.0 15.05 2.0 18.0 2.0" fill="#cccccc" fill-rule="evenodd" stroke="none"/>
    </g>
  </defs>
</svg>
