<?xml version="1.0" encoding="UTF-8" standalone="no"?>
<svg xmlns:ffdec="https://www.free-decompiler.com/flash" xmlns:xlink="http://www.w3.org/1999/xlink" ffdec:objectType="frame" height="54.8px" width="52.0px" xmlns="http://www.w3.org/2000/svg">
  <g transform="matrix(1.0, 0.0, 0.0, 1.0, 26.0, 0.0)">
    <use ffdec:characterId="105" height="47.3" transform="matrix(1.0, 0.0, 0.0, 1.0, -26.0, 7.5)" width="52.0" xlink:href="#shape0"/>
    <use ffdec:characterId="112" height="20.0" transform="matrix(1.0, 0.0, 0.0, 1.0, -10.5, 12.5)" width="5.0" xlink:href="#shape1"/>
  </g>
  <defs>
    <g id="shape0" transform="matrix(1.0, 0.0, 0.0, 1.0, 26.0, -7.5)">
      <path d="M19.85 9.3 L19.9 10.5 20.0 44.55 Q20.0 46.05 19.3 46.8 18.55 47.55 16.9 47.55 L11.2 48.2 1.0 48.55 0.0 48.5 -1.0 48.55 -11.2 48.2 -16.9 47.55 Q-18.55 47.55 -19.3 46.8 -20.0 46.05 -20.0 44.55 L-19.9 10.5 -19.85 9.3 -19.3 8.3 Q-18.55 7.5 -16.9 7.5 L-11.2 8.15 -1.0 8.55 0.0 8.5 1.0 8.55 11.2 8.15 16.9 7.5 Q18.55 7.5 19.3 8.3 L19.85 9.3" fill="#cccccc" fill-rule="evenodd" stroke="none"/>
      <path d="M19.85 9.3 L25.4 19.15 Q26.0 19.9 26.0 21.25 L26.0 54.8 0.0 54.8 0.0 48.5 1.0 48.55 11.2 48.2 16.9 47.55 Q18.55 47.55 19.3 46.8 20.0 46.05 20.0 44.55 L19.9 10.5 19.85 9.3" fill="url(#gradient0)" fill-rule="evenodd" stroke="none"/>
      <path d="M0.0 48.5 L0.0 54.8 -26.0 54.8 -26.0 21.25 Q-26.0 19.9 -25.4 19.15 L-19.85 9.3 -19.9 10.5 -20.0 44.55 Q-20.0 46.05 -19.3 46.8 -18.55 47.55 -16.9 47.55 L-11.2 48.2 -1.0 48.55 0.0 48.5" fill="url(#gradient1)" fill-rule="evenodd" stroke="none"/>
    </g>
    <linearGradient gradientTransform="matrix(0.0129, -0.0043, 0.0047, 0.0142, 36.4, 77.6)" gradientUnits="userSpaceOnUse" id="gradient0" spreadMethod="pad" x1="-819.2" x2="819.2">
      <stop offset="0.0" stop-color="#999999"/>
      <stop offset="0.17254901960784313" stop-color="#cccccc"/>
      <stop offset="0.21176470588235294" stop-color="#cccccc"/>
      <stop offset="0.3215686274509804" stop-color="#999999"/>
    </linearGradient>
    <linearGradient gradientTransform="matrix(-0.0129, -0.0043, -0.0047, 0.0142, -36.4, 77.6)" gradientUnits="userSpaceOnUse" id="gradient1" spreadMethod="pad" x1="-819.2" x2="819.2">
      <stop offset="0.0" stop-color="#999999"/>
      <stop offset="0.17254901960784313" stop-color="#cccccc"/>
      <stop offset="0.21176470588235294" stop-color="#cccccc"/>
      <stop offset="0.3215686274509804" stop-color="#999999"/>
    </linearGradient>
    <g id="shape1" transform="matrix(1.0, 0.0, 0.0, 1.0, 2.5, 10.0)">
      <path d="M2.5 0.0 L1.0 0.0 1.0 10.0 -1.0 10.0 -1.0 0.0 -2.5 0.0 0.0 -10.0 2.5 0.0" fill="#ff0000" fill-rule="evenodd" stroke="none"/>
    </g>
  </defs>
</svg>
