<?xml version="1.0" encoding="UTF-8" standalone="no"?>
<svg xmlns:ffdec="https://www.free-decompiler.com/flash" xmlns:xlink="http://www.w3.org/1999/xlink" ffdec:objectType="frame" height="65.8px" width="26.5px" xmlns="http://www.w3.org/2000/svg">
  <g transform="matrix(1.0, 0.0, 0.0, 1.0, 12.4, 37.05)">
    <use ffdec:characterId="2472" height="65.8" transform="matrix(1.0, 0.0, 0.0, 1.0, -12.4, -37.05)" width="26.5" xlink:href="#shape0"/>
  </g>
  <defs>
    <g id="shape0" transform="matrix(1.0, 0.0, 0.0, 1.0, 12.4, 37.05)">
      <path d="M2.35 -27.05 L1.85 -26.65 0.75 -26.55 Q-1.0 -26.45 -2.35 -25.05 L-3.65 -25.75 -3.7 -26.15 Q-0.9 -29.7 2.3 -28.55 L2.35 -27.05" fill="#ffcc99" fill-rule="evenodd" stroke="none"/>
      <path d="M3.9 -26.9 L4.25 -26.15 3.55 -24.8 1.95 -24.5 1.35 -25.15 -3.75 -23.75 -4.1 -25.25 -4.35 -26.1 -3.7 -26.15 -3.65 -25.75 -2.35 -25.05 Q-1.0 -26.45 0.75 -26.55 L1.85 -26.65 2.35 -27.05 2.95 -27.0 3.8 -26.95 3.9 -26.9" fill="#e2b181" fill-rule="evenodd" stroke="none"/>
      <path d="M4.4 -28.45 L4.25 -27.2 3.9 -26.9 3.8 -26.95 2.95 -27.0 2.0 -30.05 0.0 -30.85 -2.1 -30.5 Q-2.9 -32.6 1.3 -32.2 L1.45 -31.6 3.15 -30.2 Q4.0 -29.6 4.3 -28.6 L4.4 -28.45 M-5.95 -22.25 L-2.7 -23.35 -2.2 -22.5 -2.6 -21.8 Q-4.55 -18.55 -7.75 -20.4 L-5.95 -22.25 M1.35 -21.3 Q0.8 -21.85 1.25 -22.25 L1.5 -22.6 5.05 -23.15 5.75 -23.15 6.15 -22.95 6.3 -22.5 Q4.85 -20.2 2.6 -20.95 L1.35 -21.3" fill="#ff0000" fill-rule="evenodd" stroke="none"/>
      <path d="M-2.2 -22.5 L-1.5 -21.9 -1.05 -19.95 Q-1.1 -19.15 -1.45 -18.7 L-1.75 -18.45 Q-2.15 -18.15 -2.85 -18.05 -6.05 -17.8 -7.2 -19.15 -7.65 -19.6 -7.75 -20.4 -4.55 -18.55 -2.6 -21.8 L-2.2 -22.5 M6.35 -19.85 L2.9 -19.9 1.4 -20.25 1.35 -21.3 2.6 -20.95 Q4.85 -20.2 6.3 -22.5 L7.1 -21.45 7.1 -20.1 6.35 -19.85 M-4.0 -27.7 L-2.1 -30.5 0.0 -30.85 2.0 -30.05 2.95 -27.0 2.35 -27.05 2.3 -28.55 Q-0.9 -29.7 -3.7 -26.15 L-4.35 -26.1 -4.1 -27.15 -4.05 -27.65 -4.0 -27.7 M6.7 -22.75 L7.55 -25.05 8.3 -24.9 Q10.25 -22.7 9.9 -20.95 L9.25 -21.2 7.7 -21.75 6.95 -22.4 6.65 -22.65 6.7 -22.75" fill="#990000" fill-rule="evenodd" stroke="none"/>
      <path d="M4.4 -28.45 Q6.75 -28.95 7.7 -31.7 L8.3 -33.0 7.9 -27.15 6.55 -26.4 5.45 -25.0 5.45 -24.4 5.05 -23.15 1.5 -22.6 1.25 -22.25 Q0.8 -21.85 1.35 -21.3 L1.4 -20.25 2.9 -19.9 6.35 -19.85 6.4 -17.45 5.75 -16.85 5.5 -16.85 4.45 -17.25 4.1 -18.35 2.95 -19.1 Q0.95 -20.35 -1.05 -19.95 L-1.5 -21.9 -2.2 -22.5 -2.7 -23.35 -5.95 -22.25 -4.95 -24.1 -4.1 -25.25 -3.75 -23.75 1.35 -25.15 1.95 -24.5 3.55 -24.8 4.25 -26.15 3.9 -26.9 4.25 -27.2 4.4 -28.45 M-1.75 -18.45 Q-1.85 -15.9 -3.85 -15.7 -4.95 -15.6 -6.05 -16.15 -7.15 -16.6 -7.2 -17.1 L-7.2 -19.15 Q-6.05 -17.8 -2.85 -18.05 -2.15 -18.15 -1.75 -18.45" fill="#834753" fill-rule="evenodd" stroke="none"/>
      <path d="M5.45 -24.4 L5.45 -25.0 6.55 -26.4 8.3 -24.9 7.55 -25.05 6.7 -22.75 6.25 -23.35 5.95 -23.75 5.45 -24.4 M9.2 1.25 L8.85 2.7 8.85 2.75 8.35 3.45 7.8 3.65 7.5 4.25 6.85 4.3 Q5.25 4.3 3.9 3.55 L3.0 3.0 2.3 2.45 2.15 2.35 1.05 1.3 0.35 0.4 0.7 0.4 1.1 0.05 1.15 -0.65 9.2 1.25 M7.9 10.85 L8.95 14.9 7.5 17.55 6.6 17.05 6.2 17.65 5.4 17.85 4.45 17.15 4.3 15.85 6.15 15.7 6.7 14.0 4.8 10.15 5.3 9.5 6.2 8.85 7.25 8.4 7.6 8.85 7.6 10.5 7.65 10.55 7.9 10.85 M-7.35 13.85 L-7.35 11.2 -7.45 8.45 -7.6 5.55 -8.15 0.85 -8.95 -5.45 -9.0 -6.6 -9.05 -7.35 -9.15 -8.6 -9.2 -10.55 -9.2 -10.7 -9.25 -11.2 -9.3 -11.4 -9.35 -14.2 -9.3 -14.85 -9.3 -15.25 Q-9.6 -20.8 -12.4 -25.6 L-10.6 -23.75 Q-8.45 -24.25 -7.8 -26.65 -7.4 -28.05 -7.9 -29.6 L-6.7 -37.05 Q-6.9 -34.5 -6.45 -32.5 L-6.2 -31.45 Q-5.45 -27.6 -7.6 -22.4 L-8.0 -21.6 -8.05 -21.45 -8.3 -20.25 Q-8.7 -17.75 -8.45 -15.25 -8.3 -13.35 -7.75 -11.35 L-7.55 -10.7 -7.4 -10.4 -7.1 -9.75 -6.15 -7.7 -5.7 -7.05 -5.7 -7.0 -5.6 -6.9 -4.95 -5.1 -4.85 -4.4 Q-4.95 -3.5 -5.7 -2.5 L-6.05 -2.05 Q-7.5 -0.5 -7.0 1.65 L-6.75 3.35 -6.55 7.75 -6.8 10.25 -7.25 13.35 -7.35 13.85 M6.95 -22.4 L7.7 -21.75 9.25 -21.2 9.45 -18.4 9.45 -17.95 9.4 -17.2 9.0 -15.7 9.4 -15.5 Q8.95 -13.5 8.65 -10.75 L8.6 -10.55 8.35 -7.5 8.3 -6.3 8.2 -6.3 8.1 -6.5 7.75 -7.0 7.1 -9.15 Q6.55 -10.0 4.9 -10.7 L4.15 -11.0 3.8 -11.1 2.7 -11.5 Q4.8 -12.55 5.85 -14.1 5.85 -15.0 6.8 -15.45 L7.3 -16.75 7.35 -17.0 Q8.5 -19.85 6.95 -22.4" fill="#9299a9" fill-rule="evenodd" stroke="none"/>
      <path d="M-4.1 -25.25 L-4.95 -24.1 -5.95 -22.25 -7.75 -20.4 Q-7.65 -19.6 -7.2 -19.15 L-7.2 -17.1 Q-7.15 -16.6 -6.05 -16.15 -4.95 -15.6 -3.85 -15.7 -1.85 -15.9 -1.75 -18.45 L-1.45 -18.7 Q-1.1 -19.15 -1.05 -19.95 0.95 -20.35 2.95 -19.1 L4.1 -18.35 4.45 -17.25 3.4 -16.6 3.05 -16.45 0.85 -15.85 -0.45 -15.6 -3.2 -15.45 -5.5 -14.55 -5.55 -13.95 -5.05 -13.0 -3.95 -11.15 -3.9 -11.05 -3.9 -11.0 -3.7 -10.7 Q-3.15 -9.5 -2.9 -8.1 L-2.8 -7.65 -2.7 -7.15 -2.65 -6.0 -2.4 -3.05 -2.05 -2.5 -0.9 -0.7 -0.75 -1.1 -0.7 -1.2 -0.5 -1.5 -0.85 -3.85 -0.8 -4.3 -0.55 -4.65 Q-0.15 -4.95 1.1 -4.15 L2.2 -3.5 2.65 -3.35 3.1 -3.15 3.3 -3.05 3.35 -3.1 3.6 -3.05 Q5.9 -2.0 6.4 -2.05 6.75 -2.1 6.9 -2.3 L6.4 -3.0 4.75 -4.7 4.35 -5.05 4.05 -5.3 3.9 -5.5 2.85 -6.7 1.75 -7.85 1.55 -8.0 1.25 -8.35 -0.15 -9.9 0.95 -12.3 0.95 -12.4 1.15 -12.6 Q2.35 -13.6 3.95 -14.25 5.4 -14.85 5.75 -16.85 L6.4 -17.45 6.35 -19.85 7.1 -20.1 7.1 -21.45 6.3 -22.5 6.15 -22.95 5.75 -23.15 5.05 -23.15 5.45 -24.4 5.95 -23.75 6.25 -23.35 6.7 -22.75 6.65 -22.65 6.95 -22.4 Q8.5 -19.85 7.35 -17.0 L7.3 -16.75 6.8 -15.45 Q5.85 -15.0 5.85 -14.1 4.8 -12.55 2.7 -11.5 L3.8 -11.1 4.15 -11.0 4.9 -10.7 Q6.55 -10.0 7.1 -9.15 L7.75 -7.0 8.1 -6.5 8.2 -6.3 8.3 -6.3 8.35 -7.5 8.6 -10.55 8.65 -10.75 Q8.95 -13.5 9.4 -15.5 L9.0 -15.7 9.4 -17.2 9.45 -17.95 9.45 -18.4 9.25 -21.2 9.9 -20.95 Q10.25 -22.7 8.3 -24.9 9.5 -23.65 10.15 -22.2 11.45 -21.5 11.8 -21.9 L12.65 -22.65 14.1 -22.7 Q11.15 -19.35 11.15 -17.0 L11.05 -14.4 10.65 -10.7 10.5 -9.75 10.05 -6.45 9.2 1.25 1.15 -0.65 1.1 0.05 0.7 0.4 0.35 0.4 1.05 1.3 2.15 2.35 2.3 2.45 3.0 3.0 3.9 3.55 Q5.25 4.3 6.85 4.3 L7.5 4.25 7.8 3.65 8.35 3.45 8.85 2.75 8.35 5.15 Q7.9 7.75 7.9 10.85 L7.65 10.55 7.6 10.5 7.6 8.85 7.25 8.4 6.2 8.85 5.3 9.5 4.8 10.15 6.7 14.0 6.15 15.7 4.3 15.85 4.45 17.15 5.4 17.85 6.2 17.65 6.6 17.05 7.5 17.55 8.95 14.9 9.45 17.9 9.25 18.95 8.8 19.35 7.95 19.05 7.0 18.75 6.95 18.75 6.2 18.6 0.7 24.7 2.95 24.55 3.3 23.9 8.2 22.9 8.45 22.45 Q8.3 24.05 7.75 25.1 6.6 27.15 3.4 27.45 L2.5 27.8 0.1 28.65 Q-1.8 29.1 -4.0 26.85 -6.2 24.55 -6.65 21.7 L-7.2 17.3 -7.25 16.7 -7.2 16.35 -7.35 15.1 -7.35 13.85 -7.25 13.35 -6.8 10.25 -6.55 7.75 -6.75 3.35 -7.0 1.65 Q-7.5 -0.5 -6.05 -2.05 L-5.7 -2.5 Q-4.95 -3.5 -4.85 -4.4 L-4.95 -5.1 -5.6 -6.9 -5.7 -7.0 -5.7 -7.05 -6.15 -7.7 -7.1 -9.75 -7.4 -10.4 -7.55 -10.7 -7.75 -11.35 Q-8.3 -13.35 -8.45 -15.25 -8.7 -17.75 -8.3 -20.25 L-8.05 -21.45 -8.0 -21.6 -7.6 -22.4 Q-5.45 -27.6 -6.2 -31.45 L-5.7 -30.3 -3.85 -28.8 -4.0 -27.7 -4.05 -27.65 -4.1 -27.15 -4.35 -26.1 -4.1 -25.25 M0.3 2.3 L-0.45 1.75 -0.65 1.15 -1.15 1.1 -1.7 0.85 -3.3 0.4 -3.5 0.3 -5.65 0.0 -5.8 0.65 Q-4.15 1.7 -2.7 3.45 L-2.65 3.45 -2.15 4.25 -1.85 4.8 Q-1.3 5.65 -1.0 6.75 L0.3 8.05 1.45 9.4 1.3 9.55 0.8 9.2 -0.7 8.05 Q-0.5 9.4 -0.55 10.85 L0.1 11.95 0.15 12.05 0.2 12.75 0.2 14.4 Q-0.2 16.85 -1.2 18.95 L-3.4 24.25 -3.85 25.5 -2.9 25.65 1.05 20.15 2.4 18.2 2.25 17.7 2.0 17.05 Q1.9 15.75 2.6 15.75 3.1 15.7 3.6 16.35 L4.75 14.35 Q4.7 13.7 3.65 12.45 L2.55 10.75 2.6 10.55 3.75 9.55 4.3 7.95 4.55 7.65 4.65 6.6 4.15 5.55 4.05 5.45 1.5 3.1 0.55 2.5 0.3 2.3" fill="#727e94" fill-rule="evenodd" stroke="none"/>
      <path d="M4.45 -17.25 L5.5 -16.85 5.75 -16.85 Q5.4 -14.85 3.95 -14.25 2.35 -13.6 1.15 -12.6 L0.95 -12.4 0.95 -12.3 -0.15 -9.9 1.25 -8.35 1.55 -8.0 1.75 -7.85 2.85 -6.7 3.9 -5.5 4.05 -5.3 4.35 -5.05 4.75 -4.7 6.4 -3.0 6.9 -2.3 Q6.75 -2.1 6.4 -2.05 5.9 -2.0 3.6 -3.05 L3.35 -3.1 3.3 -3.05 3.1 -3.15 2.65 -3.35 2.2 -3.5 1.1 -4.15 Q-0.15 -4.95 -0.55 -4.65 L-0.8 -4.3 -0.85 -3.85 -0.5 -1.5 -0.7 -1.2 -0.75 -1.1 -0.9 -0.7 -2.05 -2.5 -2.4 -3.05 -2.65 -6.0 -2.7 -7.15 -2.8 -7.65 -2.9 -8.1 Q-3.15 -9.5 -3.7 -10.7 L-3.9 -11.0 -3.9 -11.05 -3.95 -11.15 -5.05 -13.0 -5.55 -13.95 -5.5 -14.55 -3.2 -15.45 -0.45 -15.6 0.85 -15.85 3.05 -16.45 3.4 -16.6 4.45 -17.25 M8.8 19.35 L8.85 21.9 8.5 22.4 8.4 21.2 Q7.6 21.4 6.85 21.75 L3.85 23.55 3.3 23.9 2.95 24.55 0.7 24.7 6.2 18.6 6.95 18.75 7.0 18.75 7.95 19.05 8.8 19.35 M0.3 2.3 L0.55 2.5 1.5 3.1 4.05 5.45 4.15 5.55 4.65 6.6 4.55 7.65 4.3 7.95 3.75 9.55 2.6 10.55 2.55 10.75 3.65 12.45 Q4.7 13.7 4.75 14.35 L3.6 16.35 Q3.1 15.7 2.6 15.75 1.9 15.75 2.0 17.05 L2.25 17.7 2.4 18.2 1.05 20.15 -2.9 25.65 -3.85 25.5 -3.4 24.25 -1.2 18.95 Q-0.2 16.85 0.2 14.4 L0.2 12.75 0.15 12.05 0.1 11.95 -0.55 10.85 Q-0.5 9.4 -0.7 8.05 L0.8 9.2 1.3 9.55 1.45 9.4 0.3 8.05 -1.0 6.75 Q-1.3 5.65 -1.85 4.8 L-2.15 4.25 -2.65 3.45 -2.7 3.45 Q-4.15 1.7 -5.8 0.65 L-5.65 0.0 -3.5 0.3 -3.3 0.4 -1.7 0.85 -1.15 1.1 -0.65 1.15 -0.45 1.75 0.3 2.3" fill="#5c617c" fill-rule="evenodd" stroke="none"/>
      <path d="M8.5 22.4 L8.45 22.45 8.2 22.9 3.3 23.9 3.85 23.55 6.85 21.75 Q7.6 21.4 8.4 21.2 L8.5 22.4" fill="#464564" fill-rule="evenodd" stroke="none"/>
    </g>
  </defs>
</svg>
