<?xml version="1.0" encoding="UTF-8" standalone="no"?>
<svg xmlns:ffdec="https://www.free-decompiler.com/flash" xmlns:xlink="http://www.w3.org/1999/xlink" ffdec:objectType="frame" height="316.45px" width="400.0px" xmlns="http://www.w3.org/2000/svg">
  <g transform="matrix(1.0, 0.0, 0.0, 1.0, 0.0, 0.0)">
    <use ffdec:characterId="986" height="316.45" transform="matrix(1.0, 0.0, 0.0, 1.0, 0.0, 0.0)" width="400.0" xlink:href="#shape0"/>
  </g>
  <defs>
    <g id="shape0" transform="matrix(1.0, 0.0, 0.0, 1.0, 0.0, 0.0)">
      <path d="M400.0 4.0 L400.0 12.0 235.0 12.0 235.0 9.0 235.0 5.0 235.0 4.0 400.0 4.0 M180.0 99.85 L178.5 99.95 178.5 89.35 180.0 89.45 180.0 99.85 M177.0 100.0 L175.5 100.05 175.5 98.3 175.5 89.1 177.0 89.2 177.0 100.0 M181.5 89.55 L183.0 89.7 183.0 99.4 182.6 99.75 181.5 99.8 181.5 89.55 M197.5 170.9 L190.7 167.85 190.35 167.7 Q189.15 167.15 187.7 167.15 185.05 167.15 183.1 169.05 182.1 170.05 181.65 171.3 L181.35 172.4 181.25 173.65 181.35 174.9 181.9 176.5 182.2 177.05 184.65 181.45 185.8 183.6 183.55 182.9 Q181.9 182.15 180.5 180.75 177.55 177.8 177.55 173.6 177.55 169.4 180.5 166.4 183.5 163.45 187.7 163.45 191.3 163.45 194.0 165.6 L194.85 166.4 Q196.85 168.4 197.5 170.9 M184.5 89.8 L186.0 89.9 186.0 97.0 184.5 98.2 184.5 89.8 M180.35 123.2 L181.3 124.25 183.15 126.3 180.5 128.7 178.65 126.65 177.7 125.65 176.1 123.85 175.0 122.65 177.65 120.3 177.65 120.25 178.4 121.05 180.35 123.2 M175.05 142.6 L177.65 140.25 178.4 141.05 180.35 143.2 181.3 144.25 183.15 146.3 183.15 146.35 180.55 148.7 180.5 148.7 178.65 146.65 177.7 145.65 175.75 143.45 175.0 142.65 175.05 142.6 M104.75 307.95 L104.7 307.45 104.75 306.95 Q104.9 306.2 105.4 305.65 106.15 304.95 107.2 304.95 108.25 304.95 108.95 305.65 109.5 306.2 109.65 306.95 L109.7 307.45 109.65 307.95 109.5 307.45 108.95 306.65 Q108.25 305.95 107.2 305.95 106.15 305.95 105.4 306.65 L104.9 307.45 104.75 307.95 M308.0 307.95 L307.95 307.45 308.0 306.95 Q308.15 306.2 308.65 305.65 309.4 304.95 310.45 304.95 311.5 304.95 312.2 305.65 312.75 306.2 312.9 306.95 L312.95 307.45 312.9 307.95 312.75 307.45 312.2 306.65 Q311.5 305.95 310.45 305.95 309.4 305.95 308.65 306.65 L308.15 307.45 308.0 307.95" fill="#55555b" fill-rule="evenodd" stroke="none"/>
      <path d="M165.0 10.0 L165.0 12.0 0.0 12.0 0.0 10.0 165.0 10.0 M235.0 4.0 L235.0 2.0 400.0 2.0 400.0 4.0 235.0 4.0 M181.3 124.25 L182.35 123.25 182.3 123.35 182.7 122.95 184.45 121.55 Q185.5 120.9 186.25 121.05 186.95 121.15 187.5 121.75 188.0 122.35 188.0 123.2 L187.95 123.5 187.9 123.55 183.95 127.15 183.15 126.3 181.3 124.25 M182.3 123.35 L182.25 123.4 182.15 123.55 182.65 123.05 182.3 123.35 M156.5 155.5 Q155.75 157.3 155.25 159.25 L154.75 159.9 153.35 162.1 Q153.0 160.35 153.0 158.85 153.0 156.05 153.75 152.85 L153.75 152.75 Q154.8 149.95 155.75 148.25 156.5 146.85 157.15 146.2 L178.65 126.65 180.5 128.7 181.3 129.55 162.8 146.3 Q158.65 150.3 156.5 155.5 M187.95 143.5 L187.9 143.55 187.9 143.6 183.9 147.2 183.15 146.35 183.15 146.3 181.3 144.25 182.35 143.25 182.3 143.35 182.7 142.95 184.45 141.55 Q185.5 140.9 186.25 141.05 186.95 141.15 187.5 141.75 188.0 142.35 188.0 143.2 L188.0 143.35 187.95 143.5 M154.65 179.35 Q154.05 181.25 153.7 183.25 L153.65 183.5 153.55 183.95 153.2 183.05 153.2 183.0 Q153.0 182.05 152.95 178.95 152.9 175.8 153.35 174.3 L153.6 173.45 154.7 170.2 Q155.65 167.65 157.15 166.2 L178.65 146.65 180.5 148.7 180.55 148.7 181.3 149.55 162.8 166.3 Q156.95 172.0 154.65 179.35 M113.2 307.45 Q113.2 309.95 111.45 311.7 109.7 313.45 107.2 313.45 104.7 313.45 102.95 311.7 101.2 309.95 101.2 307.45 101.2 305.4 102.45 303.8 L102.95 303.2 Q104.6 301.55 107.0 301.45 L107.2 301.45 109.45 301.9 Q110.55 302.3 111.45 303.2 113.2 305.0 113.2 307.45 M109.65 307.95 L109.7 307.45 109.65 306.95 Q109.5 306.2 108.95 305.65 108.25 304.95 107.2 304.95 106.15 304.95 105.4 305.65 104.9 306.2 104.75 306.95 L104.7 307.45 104.75 307.95 Q104.85 308.65 105.4 309.2 106.15 309.95 107.2 309.95 108.25 309.95 108.95 309.2 109.5 308.65 109.65 307.95 M104.9 307.45 L105.4 306.65 Q106.15 305.95 107.2 305.95 108.25 305.95 108.95 306.65 L109.5 307.45 108.95 308.2 Q108.25 308.95 107.2 308.95 106.15 308.95 105.4 308.2 L104.9 307.45 M316.45 307.45 Q316.45 309.95 314.7 311.7 312.95 313.45 310.45 313.45 307.95 313.45 306.2 311.7 304.45 309.95 304.45 307.45 304.45 305.4 305.7 303.8 L306.2 303.2 Q307.85 301.55 310.25 301.45 L310.45 301.45 312.7 301.9 Q313.8 302.3 314.7 303.2 316.45 305.0 316.45 307.45 M312.9 307.95 L312.95 307.45 312.9 306.95 Q312.75 306.2 312.2 305.65 311.5 304.95 310.45 304.95 309.4 304.95 308.65 305.65 308.15 306.2 308.0 306.95 L307.95 307.45 308.0 307.95 Q308.1 308.65 308.65 309.2 309.4 309.95 310.45 309.95 311.5 309.95 312.2 309.2 312.75 308.65 312.9 307.95 M308.15 307.45 L308.65 306.65 Q309.4 305.95 310.45 305.95 311.5 305.95 312.2 306.65 L312.75 307.45 312.2 308.2 Q311.5 308.95 310.45 308.95 309.4 308.95 308.65 308.2 L308.15 307.45" fill="#8f9098" fill-rule="evenodd" stroke="none"/>
      <path d="M235.0 9.0 L215.0 9.0 215.0 5.0 235.0 5.0 235.0 9.0 M205.0 12.0 L205.0 14.0 195.0 14.0 195.0 12.0 205.0 12.0 M204.75 48.0 L204.75 49.9 195.25 49.9 195.25 48.0 204.75 48.0 M209.0 67.2 L204.75 75.4 195.25 75.4 192.9 70.8 191.0 67.2 209.0 67.2 M272.3 181.7 L272.3 175.3 273.85 175.6 275.45 175.3 275.45 181.7 272.3 181.7 M310.45 298.45 Q314.2 298.45 316.8 301.05 319.45 303.7 319.45 307.45 319.45 311.2 316.8 313.8 314.2 316.45 310.45 316.45 306.7 316.45 304.05 313.8 301.45 311.2 301.45 307.45 301.45 304.55 303.0 302.3 L304.05 301.05 Q305.95 299.2 308.4 298.7 L310.45 298.45 M248.35 230.15 L248.35 232.4 243.1 232.4 243.1 243.15 240.35 243.15 240.35 232.4 229.9 232.4 229.9 231.3 228.75 231.3 228.75 230.15 248.35 230.15 M192.25 246.15 L190.25 246.15 Q191.4 244.9 191.4 243.2 191.4 241.95 190.75 240.9 L190.75 232.4 184.95 232.4 184.95 230.15 204.25 230.15 204.25 231.3 201.65 231.3 201.65 232.4 192.25 232.4 192.25 246.15 M114.9 302.75 Q116.2 304.85 116.2 307.45 116.2 311.2 113.55 313.8 110.95 316.45 107.2 316.45 103.45 316.45 100.8 313.8 98.2 311.2 98.2 307.45 98.2 303.7 100.8 301.05 103.45 298.45 107.2 298.45 L108.7 298.55 111.05 299.25 Q112.4 299.9 113.55 301.05 L114.9 302.75 M185.0 9.0 L165.0 9.0 165.0 5.0 185.0 5.0 185.0 9.0 M202.0 46.0 L198.0 46.0 198.0 20.0 202.0 20.0 202.0 46.0 M113.2 307.45 Q113.2 305.0 111.45 303.2 110.55 302.3 109.45 301.9 L107.2 301.45 107.0 301.45 Q104.6 301.55 102.95 303.2 L102.45 303.8 Q101.2 305.4 101.2 307.45 101.2 309.95 102.95 311.7 104.7 313.45 107.2 313.45 109.7 313.45 111.45 311.7 113.2 309.95 113.2 307.45 M251.85 271.95 L255.7 271.95 255.7 274.95 255.7 275.45 251.85 275.45 251.85 274.95 251.85 271.95 M175.7 271.95 L179.55 271.95 179.55 274.95 179.55 275.45 175.7 275.45 175.7 274.95 175.7 271.95 M182.55 271.95 L193.1 271.95 193.1 274.95 193.1 275.45 182.55 275.45 182.55 274.95 182.55 271.95 M198.3 271.95 L212.7 271.95 212.7 274.95 212.7 275.45 198.3 275.45 198.3 274.95 198.3 271.95 M218.7 271.95 L233.1 271.95 233.1 274.95 233.1 275.45 218.7 275.45 218.7 274.95 218.7 271.95 M238.3 271.95 L248.85 271.95 248.85 274.95 248.85 275.45 238.3 275.45 238.3 274.95 238.3 271.95 M227.25 242.15 L206.25 242.15 206.25 236.4 227.25 236.4 227.25 242.15 M316.45 307.45 Q316.45 305.0 314.7 303.2 313.8 302.3 312.7 301.9 L310.45 301.45 310.25 301.45 Q307.85 301.55 306.2 303.2 L305.7 303.8 Q304.45 305.4 304.45 307.45 304.45 309.95 306.2 311.7 307.95 313.45 310.45 313.45 312.95 313.45 314.7 311.7 316.45 309.95 316.45 307.45" fill="#1a1b1e" fill-rule="evenodd" stroke="none"/>
      <path d="M215.0 9.0 L215.0 12.0 205.0 12.0 195.0 12.0 185.0 12.0 185.0 9.0 185.0 5.0 185.0 2.0 195.0 2.0 195.0 0.0 205.0 0.0 205.0 2.0 215.0 2.0 215.0 5.0 215.0 9.0 M205.0 14.0 L205.0 18.0 209.0 18.0 209.0 48.0 204.75 48.0 195.25 48.0 191.0 48.0 191.0 18.0 195.0 18.0 195.0 14.0 205.0 14.0 M204.75 49.9 L204.75 57.9 195.25 57.9 195.25 49.9 204.75 49.9 M209.0 62.9 L209.0 67.2 191.0 67.2 191.0 62.9 209.0 62.9 M204.75 75.4 L204.75 89.6 Q204.1 88.6 203.25 88.1 L203.25 81.4 Q203.05 79.05 200.85 79.1 L195.25 79.1 195.25 75.4 204.75 75.4 M272.3 175.3 L271.1 174.45 Q269.95 173.3 269.95 171.7 269.95 170.1 271.1 168.95 272.25 167.8 273.85 167.8 275.45 167.8 276.6 168.95 277.75 170.1 277.75 171.7 277.75 173.3 276.6 174.45 L275.45 175.3 273.85 175.6 272.3 175.3 M248.35 232.4 L249.5 232.4 249.5 244.15 243.1 244.15 243.1 243.15 243.1 232.4 248.35 232.4 M240.35 243.15 L240.35 246.15 229.9 246.15 229.9 245.3 227.25 245.3 227.25 242.15 227.25 236.4 227.25 233.55 229.9 233.55 229.9 232.4 240.35 232.4 240.35 243.15 M206.25 247.55 L206.25 248.65 192.25 248.65 192.25 246.15 192.25 232.4 201.65 232.4 201.65 233.55 206.25 233.55 206.25 236.4 206.25 242.15 206.25 245.3 201.65 245.3 201.65 247.55 206.25 247.55 M183.75 240.25 L183.75 236.4 183.75 234.7 183.75 232.4 184.95 232.4 190.75 232.4 190.75 240.9 190.1 240.1 Q188.8 238.8 187.0 238.8 185.2 238.8 183.9 240.1 L183.75 240.25 M164.65 109.4 L164.65 107.1 166.1 107.1 166.1 112.5 164.65 112.5 164.65 109.4 M202.0 46.0 L206.0 46.0 206.0 20.0 202.0 20.0 198.0 20.0 194.0 20.0 194.0 46.0 198.0 46.0 202.0 46.0 M271.75 170.55 Q271.75 171.45 272.4 172.1 273.05 172.75 273.95 172.75 274.85 172.75 275.5 172.1 276.15 171.45 276.15 170.55 276.15 169.65 275.5 169.0 274.85 168.35 273.95 168.35 273.05 168.35 272.4 169.0 271.75 169.65 271.75 170.55 M248.85 274.95 L251.85 274.95 251.85 275.45 255.7 275.45 255.7 274.95 257.7 274.95 257.7 282.95 173.7 282.95 173.7 274.95 175.7 274.95 175.7 275.45 179.55 275.45 179.55 274.95 182.55 274.95 182.55 275.45 193.1 275.45 193.1 274.95 198.3 274.95 198.3 275.45 212.7 275.45 212.7 274.95 218.7 274.95 218.7 275.45 233.1 275.45 233.1 274.95 238.3 274.95 238.3 275.45 248.85 275.45 248.85 274.95" fill="#30353f" fill-rule="evenodd" stroke="none"/>
      <path d="M280.5 187.55 L280.5 189.0 Q280.25 190.9 278.75 191.45 L219.65 191.45 211.6 188.7 207.15 187.15 197.95 184.0 199.0 185.7 202.3 189.65 Q205.6 193.15 207.25 196.3 L207.3 198.8 Q207.0 202.75 206.25 204.65 L206.1 204.8 204.4 205.65 202.75 206.3 203.8 205.6 Q205.0 204.8 205.5 202.8 205.95 200.75 204.6 200.65 203.25 200.5 202.25 200.65 L200.75 200.7 200.1 200.65 197.65 197.1 193.85 192.55 191.05 190.1 191.0 190.05 191.4 189.55 Q193.35 186.9 195.1 183.05 L196.2 183.4 194.05 182.65 193.0 182.3 186.45 180.05 185.9 179.95 184.8 179.45 183.1 178.2 182.7 177.8 182.55 177.6 182.2 177.05 181.9 176.5 181.35 174.9 181.75 173.65 Q182.2 174.8 183.1 175.7 184.2 176.8 185.55 177.3 L186.45 177.55 215.45 187.5 215.35 186.55 215.45 185.6 215.5 185.4 215.6 185.35 Q215.65 186.9 216.95 188.0 L219.75 188.95 278.75 188.95 Q279.8 188.95 280.5 187.55 M264.3 220.3 L264.65 221.3 264.85 223.6 264.8 223.95 Q264.75 224.9 264.35 225.8 L264.15 226.15 263.35 226.75 262.75 227.0 262.55 227.0 261.95 227.1 173.25 227.1 172.65 227.0 171.85 226.75 171.05 226.15 170.85 225.8 Q170.45 224.9 170.4 223.95 L170.35 223.6 Q170.3 222.4 170.55 221.3 170.85 219.95 171.7 219.5 L172.85 219.2 174.1 219.15 177.5 219.15 200.95 219.15 Q205.1 222.35 240.65 219.65 250.9 219.15 254.4 219.5 L258.0 219.9 264.3 220.3 M254.45 228.9 L261.05 227.8 308.4 298.7 Q305.95 299.2 304.05 301.05 L303.0 302.3 297.25 293.6 255.25 230.2 255.25 230.15 254.4 228.9 254.45 228.9 M171.65 238.35 L114.9 302.75 113.55 301.05 Q112.4 299.9 111.05 299.25 L174.0 227.9 180.35 228.45 180.4 228.45 178.9 230.15 175.15 234.4 171.65 238.35 M155.7 199.7 Q152.95 195.7 153.0 190.65 L153.1 186.4 153.15 186.4 153.55 183.95 153.65 183.5 153.7 183.25 Q154.05 181.25 154.65 179.35 157.25 174.35 160.75 170.35 162.6 168.3 171.95 159.5 L183.65 148.75 Q186.7 146.0 187.9 143.6 L187.9 143.55 187.95 143.5 188.15 143.3 Q189.05 142.35 189.4 141.15 L189.55 140.0 Q189.65 137.75 188.25 136.2 186.75 134.6 184.6 134.55 182.5 134.4 180.95 135.85 L176.95 139.5 177.65 140.25 175.05 142.6 174.35 141.85 155.95 158.5 155.25 159.25 Q155.75 157.3 156.5 155.5 L158.25 153.1 Q160.2 150.25 165.5 145.15 L172.8 138.3 176.85 134.8 180.0 131.95 184.35 128.1 187.4 125.05 188.4 123.05 Q189.1 122.15 189.4 121.15 L189.55 120.0 Q189.65 117.75 188.25 116.2 186.75 114.6 184.6 114.55 182.5 114.4 180.95 115.85 L176.95 119.5 177.65 120.3 175.0 122.65 176.1 123.85 175.7 123.45 174.3 121.9 156.5 138.0 156.5 137.9 156.75 135.65 156.85 134.05 157.2 130.95 Q160.05 125.9 166.25 118.65 175.25 108.2 182.65 102.15 L190.9 95.35 191.6 94.75 Q197.05 90.65 200.3 90.65 202.3 90.65 203.3 93.35 L202.8 93.1 201.8 92.85 199.7 93.0 198.55 93.35 198.05 93.55 197.7 93.7 197.5 93.8 Q194.85 95.55 192.35 97.45 L192.1 97.65 Q188.85 100.05 185.8 102.65 182.2 105.7 178.95 109.0 175.1 112.85 171.75 117.0 L171.45 117.35 174.2 115.3 178.65 112.1 182.75 109.15 187.2 105.75 191.15 102.8 193.15 101.3 193.9 100.85 195.0 100.1 197.5 99.75 Q202.9 99.75 204.0 105.05 204.7 108.3 205.1 117.35 L205.2 118.15 Q205.65 121.9 205.7 126.75 L205.85 136.1 205.9 136.65 205.9 137.2 204.6 140.6 203.8 142.2 Q203.3 143.3 203.6 144.5 L201.3 152.55 Q199.95 156.75 198.6 159.1 196.55 163.15 195.05 164.55 L194.0 165.6 Q191.3 163.45 187.7 163.45 183.5 163.45 180.5 166.4 177.55 169.4 177.55 173.6 177.55 177.8 180.5 180.75 181.9 182.15 183.55 182.9 L181.0 188.35 Q179.55 190.95 178.35 191.85 L171.35 197.25 Q169.7 198.6 167.15 199.2 L166.05 199.4 159.75 198.9 158.25 198.9 Q161.75 202.2 165.75 202.9 L174.5 203.15 188.05 202.2 195.65 201.05 197.35 200.85 198.85 200.7 200.1 200.65 202.75 206.25 202.75 206.3 202.9 206.75 202.8 206.65 202.95 207.15 200.05 207.55 198.35 207.65 181.95 208.0 177.5 208.0 Q166.9 207.7 161.7 205.15 L159.95 204.1 159.75 203.95 158.2 202.65 Q156.7 201.25 155.7 199.7 M165.0 9.0 L165.0 10.0 0.0 10.0 0.0 2.0 165.0 2.0 165.0 5.0 165.0 9.0 M104.75 307.95 L104.9 307.45 105.4 308.2 Q106.15 308.95 107.2 308.95 108.25 308.95 108.95 308.2 L109.5 307.45 109.65 307.95 Q109.5 308.65 108.95 309.2 108.25 309.95 107.2 309.95 106.15 309.95 105.4 309.2 104.85 308.65 104.75 307.95 M257.7 269.95 L173.7 269.95 173.7 269.55 Q174.15 267.6 175.7 267.55 L255.7 267.55 Q257.2 267.85 257.7 269.55 L257.7 269.95 M218.7 256.95 L218.7 265.95 212.7 265.95 212.7 256.95 218.7 256.95 M308.0 307.95 L308.15 307.45 308.65 308.2 Q309.4 308.95 310.45 308.95 311.5 308.95 312.2 308.2 L312.75 307.45 312.9 307.95 Q312.75 308.65 312.2 309.2 311.5 309.95 310.45 309.95 309.4 309.95 308.65 309.2 308.1 308.65 308.0 307.95" fill="#cccccc" fill-rule="evenodd" stroke="none"/>
      <path d="M204.75 57.9 L209.0 62.9 191.0 62.9 195.25 57.9 204.75 57.9 M229.9 246.15 L229.9 247.55 206.25 247.55 201.65 247.55 201.65 245.3 206.25 245.3 227.25 245.3 229.9 245.3 229.9 246.15 M190.25 246.15 L190.1 246.3 Q188.8 247.6 187.0 247.6 185.2 247.6 183.9 246.3 L183.75 246.15 Q182.6 244.9 182.6 243.2 182.6 241.5 183.75 240.25 L183.9 240.1 Q185.2 238.8 187.0 238.8 188.8 238.8 190.1 240.1 L190.75 240.9 Q191.4 241.95 191.4 243.2 191.4 244.9 190.25 246.15 M271.75 170.55 Q271.75 169.65 272.4 169.0 273.05 168.35 273.95 168.35 274.85 168.35 275.5 169.0 276.15 169.65 276.15 170.55 276.15 171.45 275.5 172.1 274.85 172.75 273.95 172.75 273.05 172.75 272.4 172.1 271.75 171.45 271.75 170.55 M251.85 271.95 L248.85 271.95 238.3 271.95 233.1 271.95 218.7 271.95 212.7 271.95 198.3 271.95 193.1 271.95 182.55 271.95 179.55 271.95 175.7 271.95 173.7 271.95 173.7 269.95 257.7 269.95 257.7 271.95 255.7 271.95 251.85 271.95 M206.25 233.55 L201.65 233.55 201.65 232.4 201.65 231.3 204.25 231.3 228.75 231.3 229.9 231.3 229.9 232.4 229.9 233.55 227.25 233.55 206.25 233.55" fill="#404858" fill-rule="evenodd" stroke="none"/>
      <path d="M262.75 227.0 L263.0 227.4 254.4 228.85 254.45 228.9 254.4 228.9 255.25 230.15 248.35 230.15 228.75 230.15 204.25 230.15 184.95 230.15 178.9 230.15 180.4 228.45 180.35 228.45 180.4 228.4 171.1 227.6 171.85 226.75 172.65 227.0 173.25 227.1 261.95 227.1 262.55 227.0 262.75 227.0 M151.4 181.75 Q150.95 179.8 150.85 177.6 151.15 170.85 153.05 166.25 L153.95 164.3 154.4 163.6 154.45 163.45 Q155.6 161.6 157.15 160.2 L175.75 143.45 177.7 145.65 173.0 149.85 173.0 149.9 170.35 152.35 170.3 152.3 157.15 164.2 Q154.9 166.45 153.95 168.6 L153.65 169.35 152.4 172.85 Q152.1 173.85 151.75 175.8 151.35 177.75 151.35 180.55 L151.4 181.75 M151.4 161.75 Q150.95 159.8 150.85 157.6 151.3 146.4 156.25 141.1 L157.15 140.2 175.7 123.45 176.1 123.85 177.7 125.65 173.0 129.85 173.0 129.9 170.45 132.3 170.35 132.35 170.3 132.3 157.15 144.2 155.95 145.55 Q154.3 147.5 153.65 149.35 L152.4 152.85 Q152.1 153.85 151.75 155.8 151.35 157.75 151.35 160.55 L151.4 161.75 M166.1 107.1 L166.1 105.5 175.85 105.5 171.0 109.75 169.35 111.25 168.0 112.45 166.1 114.05 166.1 112.5 166.1 107.1 M180.65 101.35 L180.1 101.4 180.0 99.85 180.0 89.45 180.0 84.95 180.0 84.25 181.5 84.4 181.5 85.1 181.5 89.55 181.5 99.8 181.5 100.6 181.45 100.65 180.75 101.25 180.65 101.35 M178.5 99.95 L178.5 101.45 177.0 101.55 177.0 100.0 177.0 89.2 177.0 84.65 177.0 83.95 178.5 84.1 178.5 84.8 178.5 89.35 178.5 99.95 M163.5 98.05 L163.5 84.5 165.4 82.35 174.0 82.35 175.5 83.85 175.5 84.5 175.5 89.1 175.5 98.3 173.8 102.3 165.3 102.3 163.5 98.05 M183.0 85.25 L183.0 84.55 184.5 84.7 184.5 85.4 184.5 89.8 184.5 98.2 183.0 99.4 183.0 89.7 183.0 85.25 M186.0 85.55 L186.0 83.15 187.85 80.5 200.5 80.5 Q201.85 80.4 202.35 81.6 L202.75 87.85 Q200.0 86.8 195.25 90.15 L195.05 90.3 186.0 97.0 186.0 89.9 186.0 85.55 M171.95 90.8 Q172.6 91.45 172.9 92.3 L173.0 91.8 Q172.8 90.65 171.95 89.8 170.95 88.8 169.5 88.8 168.05 88.8 167.0 89.8 166.2 90.65 166.05 91.8 L166.15 92.3 Q166.35 91.45 167.0 90.8 168.05 89.8 169.5 89.8 170.95 89.8 171.95 90.8 M166.05 92.8 Q166.15 93.9 167.0 94.75 168.05 95.8 169.5 95.8 170.95 95.8 171.95 94.75 172.8 93.9 173.0 92.8 L172.9 92.3 171.95 93.75 Q170.95 94.8 169.5 94.8 168.05 94.8 167.0 93.75 166.35 93.1 166.15 92.3 L166.05 92.8 M188.15 123.3 L188.35 122.8 188.5 122.2 Q188.5 121.0 187.7 120.35 186.9 119.7 185.4 119.85 L184.4 120.1 Q183.3 120.5 182.15 121.55 L180.35 123.2 178.4 121.05 178.8 120.65 178.6 120.8 182.15 117.55 Q183.6 116.6 186.4 117.1 188.95 118.0 189.4 121.15 189.1 122.15 188.4 123.05 L188.15 123.3 M189.4 141.15 Q189.05 142.35 188.15 143.3 L188.35 142.8 188.5 142.2 188.5 141.85 Q188.4 140.9 187.7 140.35 186.9 139.7 185.4 139.85 183.9 140.0 182.15 141.55 L180.35 143.2 178.4 141.05 178.8 140.65 178.6 140.8 182.15 137.55 Q183.6 136.6 186.4 137.1 188.95 138.0 189.4 141.15" fill="#9d9ea8" fill-rule="evenodd" stroke="none"/>
      <path d="M150.85 177.6 L150.85 177.2 150.85 176.35 150.9 173.2 Q151.1 168.25 152.3 164.7 152.75 163.3 153.35 162.1 L154.75 159.9 155.25 159.25 155.95 158.5 174.35 141.85 175.05 142.6 175.0 142.65 175.75 143.45 157.15 160.2 Q155.6 161.6 154.45 163.45 L154.4 163.6 153.95 164.3 153.05 166.25 Q151.15 170.85 150.85 177.6 M150.85 157.6 L150.85 157.2 150.85 156.35 150.9 153.2 Q151.2 144.85 154.4 140.3 L155.95 138.5 156.5 138.0 174.3 121.9 175.7 123.45 157.15 140.2 156.25 141.1 Q151.3 146.4 150.85 157.6 M163.5 84.5 L163.5 83.65 165.0 80.65 174.0 80.65 175.5 82.65 175.5 83.85 174.0 82.35 165.4 82.35 163.5 84.5 M177.0 83.95 L177.0 82.8 178.5 82.95 178.5 84.1 177.0 83.95 M180.0 84.25 L180.0 83.1 181.5 83.2 181.5 84.4 180.0 84.25 M183.0 84.55 L183.0 83.35 184.5 83.45 184.5 84.7 183.0 84.55 M186.0 83.15 L186.0 80.75 188.0 79.1 195.25 79.1 200.85 79.1 Q203.05 79.05 203.25 81.4 L203.25 88.1 202.75 87.85 202.35 81.6 Q201.85 80.4 200.5 80.5 L187.85 80.5 186.0 83.15 M166.05 92.8 L166.15 92.3 Q166.35 93.1 167.0 93.75 168.05 94.8 169.5 94.8 170.95 94.8 171.95 93.75 L172.9 92.3 173.0 92.8 Q172.8 93.9 171.95 94.75 170.95 95.8 169.5 95.8 168.05 95.8 167.0 94.75 166.15 93.9 166.05 92.8 M177.65 140.25 L176.95 139.5 180.95 135.85 Q182.5 134.4 184.6 134.55 186.75 134.6 188.25 136.2 189.65 137.75 189.55 140.0 L189.4 141.15 Q188.95 138.0 186.4 137.1 183.6 136.6 182.15 137.55 L178.6 140.8 178.8 140.65 178.4 141.05 177.65 140.25 M177.65 120.3 L176.95 119.5 180.95 115.85 Q182.5 114.4 184.6 114.55 186.75 114.6 188.25 116.2 189.65 117.75 189.55 120.0 L189.4 121.15 Q188.95 118.0 186.4 117.1 183.6 116.6 182.15 117.55 L178.6 120.8 178.8 120.65 178.4 121.05 177.65 120.25 177.65 120.3" fill="#b3b5c2" fill-rule="evenodd" stroke="none"/>
      <path d="M153.1 186.4 Q151.95 184.25 151.4 181.75 L151.35 180.55 Q151.35 177.75 151.75 175.8 152.1 173.85 152.4 172.85 L153.65 169.35 153.95 168.6 Q154.9 166.45 157.15 164.2 L170.3 152.3 170.35 152.35 173.0 149.9 173.0 149.85 177.7 145.65 178.65 146.65 157.15 166.2 Q155.65 167.65 154.7 170.2 L153.6 173.45 153.35 174.3 Q152.9 175.8 152.95 178.95 153.0 182.05 153.2 183.0 L153.2 183.05 153.55 183.95 153.15 186.4 153.1 186.4 M152.3 164.7 Q151.7 163.25 151.4 161.75 L151.35 160.55 Q151.35 157.75 151.75 155.8 152.1 153.85 152.4 152.85 L153.65 149.35 Q154.3 147.5 155.95 145.55 L157.15 144.2 170.3 132.3 170.35 132.35 170.45 132.3 173.0 129.9 173.0 129.85 177.7 125.65 178.65 126.65 157.15 146.2 Q156.5 146.85 155.75 148.25 154.8 149.95 153.75 152.75 L153.75 152.85 Q153.0 156.05 153.0 158.85 153.0 160.35 153.35 162.1 152.75 163.3 152.3 164.7 M175.5 100.05 L175.5 101.65 174.0 103.65 165.0 103.65 163.5 100.65 163.5 98.05 165.3 102.3 173.8 102.3 175.5 98.3 175.5 100.05 M175.5 84.5 L177.0 84.65 177.0 89.2 175.5 89.1 175.5 84.5 M178.5 84.8 L180.0 84.95 180.0 89.45 178.5 89.35 178.5 84.8 M181.5 85.1 L183.0 85.25 183.0 89.7 181.5 89.55 181.5 85.1 M184.5 85.4 L186.0 85.55 186.0 89.9 184.5 89.8 184.5 85.4 M171.95 90.8 Q170.95 89.8 169.5 89.8 168.05 89.8 167.0 90.8 166.35 91.45 166.15 92.3 L166.05 91.8 Q166.2 90.65 167.0 89.8 168.05 88.8 169.5 88.8 170.95 88.8 171.95 89.8 172.8 90.65 173.0 91.8 L172.9 92.3 Q172.6 91.45 171.95 90.8 M187.95 123.5 L188.0 123.2 Q188.0 122.35 187.5 121.75 186.95 121.15 186.25 121.05 185.5 120.9 184.45 121.55 L182.7 122.95 182.3 123.35 182.35 123.25 181.3 124.25 180.35 123.2 182.15 121.55 Q183.3 120.5 184.4 120.1 L185.4 119.85 Q186.9 119.7 187.7 120.35 188.5 121.0 188.5 122.2 L188.35 122.8 188.15 123.3 187.95 123.5 M182.3 123.35 L182.65 123.05 182.15 123.55 182.25 123.4 182.3 123.35 M188.15 143.3 L187.95 143.5 188.0 143.35 188.0 143.2 Q188.0 142.35 187.5 141.75 186.95 141.15 186.25 141.05 185.5 140.9 184.45 141.55 L182.7 142.95 182.3 143.35 182.35 143.25 181.3 144.25 180.35 143.2 182.15 141.55 Q183.9 140.0 185.4 139.85 186.9 139.7 187.7 140.35 188.4 140.9 188.5 141.85 L188.5 142.2 188.35 142.8 188.15 143.3" fill="#84858c" fill-rule="evenodd" stroke="none"/>
      <path d="M204.75 89.6 Q205.4 90.6 205.8 92.2 L205.85 92.9 206.1 99.9 207.0 175.15 212.0 177.35 221.75 181.7 272.3 181.7 275.45 181.7 278.75 181.7 Q280.3 182.0 280.5 184.55 L280.5 186.15 Q280.1 184.4 278.75 184.2 L221.75 184.2 221.65 184.15 220.8 184.05 217.8 184.4 Q216.75 184.65 215.6 185.35 L215.6 184.95 215.9 184.3 Q216.2 183.6 216.75 183.05 217.15 182.65 217.65 182.4 L190.7 170.35 190.35 170.2 190.0 170.05 187.7 169.65 Q185.05 169.65 183.1 171.55 182.2 172.5 181.75 173.65 L181.35 174.9 181.25 173.65 181.35 172.4 181.65 171.3 Q182.1 170.05 183.1 169.05 185.05 167.15 187.7 167.15 189.15 167.15 190.35 167.7 L190.7 167.85 197.5 170.9 198.7 171.45 Q200.55 164.8 202.4 156.65 205.05 144.95 205.9 137.65 L205.9 137.2 205.9 136.65 205.85 136.1 205.7 126.75 Q205.65 121.9 205.2 118.15 L204.5 103.9 204.1 97.3 203.55 94.6 203.15 94.25 201.5 94.15 Q198.05 94.15 183.05 107.0 175.55 113.45 171.75 117.0 175.1 112.85 178.95 109.0 182.2 105.7 185.8 102.65 188.85 100.05 192.1 97.65 L192.35 97.45 Q194.85 95.55 197.5 93.8 L197.7 93.7 198.05 93.55 198.55 93.35 199.7 93.0 201.8 92.85 202.8 93.1 203.3 93.35 Q202.3 90.65 200.3 90.65 197.05 90.65 191.6 94.75 L190.9 95.35 182.65 102.15 Q175.25 108.2 166.25 118.65 160.05 125.9 157.2 130.95 L157.7 128.2 Q159.7 119.9 166.1 114.05 L168.0 112.45 169.35 111.25 171.0 109.75 175.85 105.5 180.15 101.8 180.65 101.35 180.75 101.25 181.45 100.65 181.5 100.6 182.6 99.75 183.0 99.4 184.5 98.2 186.0 97.0 195.05 90.3 195.25 90.15 Q200.0 86.8 202.75 87.85 L203.25 88.1 Q204.1 88.6 204.75 89.6 M261.05 227.8 L263.0 227.45 307.2 293.6 310.45 298.45 308.4 298.7 261.05 227.8 M108.7 298.55 L164.35 235.3 167.55 231.7 171.1 227.65 174.0 227.9 111.05 299.25 108.7 298.55 M166.05 199.4 L166.1 199.4 Q171.55 199.4 175.9 197.5 183.35 194.25 185.5 193.65 188.65 192.7 191.05 190.1 L193.85 192.55 197.65 197.1 200.1 200.65 198.85 200.7 197.35 200.85 195.65 201.05 188.05 202.2 174.5 203.15 165.75 202.9 Q161.75 202.2 158.25 198.9 L159.75 198.9 166.05 199.4 M207.25 196.3 Q205.6 193.15 202.3 189.65 L199.0 185.7 197.95 184.0 207.15 187.15 207.25 196.3 M173.7 269.55 L173.7 267.95 Q174.15 266.0 175.7 265.95 L210.7 265.95 210.7 254.95 220.7 254.95 220.7 265.95 255.7 265.95 Q257.2 266.25 257.7 267.95 L257.7 269.55 Q257.2 267.85 255.7 267.55 L175.7 267.55 Q174.15 267.6 173.7 269.55 M218.7 256.95 L212.7 256.95 212.7 265.95 218.7 265.95 218.7 256.95" fill="#dedede" fill-rule="evenodd" stroke="none"/>
      <path d="M280.5 186.15 L280.5 187.55 Q279.8 188.95 278.75 188.95 L219.75 188.95 216.95 188.0 Q215.65 186.9 215.6 185.35 L215.5 185.4 215.45 185.6 215.35 186.55 215.45 187.5 186.45 177.55 185.55 177.3 Q184.2 176.8 183.1 175.7 182.2 174.8 181.75 173.65 182.2 172.5 183.1 171.55 185.05 169.65 187.7 169.65 L190.0 170.05 190.35 170.2 190.7 170.35 217.65 182.4 Q217.15 182.65 216.75 183.05 216.2 183.6 215.9 184.3 L215.6 184.95 215.6 185.35 Q216.75 184.65 217.8 184.4 L220.8 184.05 221.65 184.15 221.75 184.2 278.75 184.2 Q280.1 184.4 280.5 186.15 M171.75 117.0 Q175.55 113.45 183.05 107.0 198.05 94.15 201.5 94.15 L203.15 94.25 203.55 94.6 204.1 97.3 204.5 103.9 205.2 118.15 205.1 117.35 Q204.7 108.3 204.0 105.05 202.9 99.75 197.5 99.75 L195.0 100.1 193.9 100.85 193.15 101.3 191.15 102.8 187.2 105.75 182.75 109.15 178.65 112.1 174.2 115.3 171.45 117.35 171.75 117.0 M205.9 137.2 L205.9 137.65 Q205.05 144.95 202.4 156.65 200.55 164.8 198.7 171.45 L197.5 170.9 Q196.85 168.4 194.85 166.4 L194.0 165.6 195.05 164.55 Q196.55 163.15 198.6 159.1 199.95 156.75 201.3 152.55 L203.6 144.5 Q203.3 143.3 203.8 142.2 L204.6 140.6 205.9 137.2 M183.55 182.9 L185.8 183.6 Q187.4 186.0 191.0 190.05 L191.05 190.1 Q188.65 192.7 185.5 193.65 183.35 194.25 175.9 197.5 171.55 199.4 166.1 199.4 L166.05 199.4 167.15 199.2 Q169.7 198.6 171.35 197.25 L178.35 191.85 Q179.55 190.95 181.0 188.35 L183.55 182.9" fill="#d5d5d5" fill-rule="evenodd" stroke="none"/>
      <path d="M205.85 92.9 L206.3 92.9 Q209.0 91.25 210.55 98.8 212.05 106.3 212.45 117.75 L212.45 117.9 Q213.2 132.7 212.6 147.45 212.05 161.2 212.0 175.05 L212.0 177.35 207.0 175.15 206.1 99.9 205.85 92.9 M211.6 188.7 L211.25 193.65 210.8 197.85 209.1 204.0 Q209.35 206.1 209.75 206.55 211.15 207.95 212.9 208.7 214.35 209.4 216.2 209.9 220.2 211.0 224.6 211.0 225.95 211.0 230.9 207.75 235.8 204.5 241.35 204.5 248.95 204.5 259.1 208.25 270.85 212.6 271.05 216.2 271.25 219.75 266.85 220.15 L264.3 220.3 258.0 219.9 254.4 219.5 Q250.9 219.15 240.65 219.65 205.1 222.35 200.95 219.15 L200.85 219.1 Q200.2 218.75 199.7 218.25 L198.85 217.25 Q197.85 215.55 197.85 211.0 L198.1 207.75 198.35 207.65 200.05 207.55 202.95 207.15 204.1 206.85 Q205.8 206.25 206.45 205.25 L206.5 205.15 207.0 203.7 207.3 200.4 207.3 198.8 207.25 196.3 207.15 187.15 211.6 188.7" fill="#a3426c" fill-rule="evenodd" stroke="none"/>
      <path d="M187.95 123.5 L188.15 123.3 188.4 123.05 187.4 125.05 184.35 128.1 180.0 131.95 176.85 134.8 172.8 138.3 165.5 145.15 Q160.2 150.25 158.25 153.1 L156.5 155.5 Q158.65 150.3 162.8 146.3 L181.3 129.55 180.5 128.7 183.15 126.3 183.95 127.15 187.9 123.55 187.95 123.5 M187.9 143.6 Q186.7 146.0 183.65 148.75 L171.95 159.5 Q162.6 168.3 160.75 170.35 157.25 174.35 154.65 179.35 156.95 172.0 162.8 166.3 L181.3 149.55 180.55 148.7 183.15 146.35 183.9 147.2 187.9 143.6 M191.0 190.05 Q187.4 186.0 185.8 183.6 L187.5 183.75 187.7 183.75 189.55 183.6 Q191.4 183.3 193.0 182.3 L194.05 182.65 195.1 183.05 Q193.35 186.9 191.4 189.55 L191.0 190.05 M200.1 200.65 L200.75 200.7 202.25 200.65 Q203.25 200.5 204.6 200.65 205.95 200.75 205.5 202.8 205.0 204.8 203.8 205.6 L202.75 206.3 204.4 205.65 206.1 204.8 206.25 204.65 Q207.0 202.75 207.3 198.8 L207.3 200.4 207.0 203.7 206.5 205.15 206.45 205.25 Q205.8 206.25 204.1 206.85 L202.95 207.15 202.8 206.65 202.9 206.75 202.75 206.3 202.75 206.25 200.1 200.65" fill="#b1b1b1" fill-rule="evenodd" stroke="none"/>
      <path d="M185.8 183.6 L184.65 181.45 182.2 177.05 182.55 177.6 182.7 177.8 183.1 178.2 184.8 179.45 185.9 179.95 186.45 180.05 193.0 182.3 Q191.4 183.3 189.55 183.6 L187.7 183.75 187.5 183.75 185.8 183.6 M177.5 219.15 L177.5 208.0 181.95 208.0 198.35 207.65 198.1 207.75 197.85 211.0 Q197.85 215.55 198.85 217.25 L199.7 218.25 Q200.2 218.75 200.85 219.1 L200.95 219.15 177.5 219.15" fill="#333333" fill-rule="evenodd" stroke="none"/>
      <path d="M248.85 271.95 L251.85 271.95 251.85 274.95 248.85 274.95 248.85 271.95 M179.55 271.95 L182.55 271.95 182.55 274.95 179.55 274.95 179.55 271.95 M193.1 271.95 L198.3 271.95 198.3 274.95 193.1 274.95 193.1 271.95 M212.7 271.95 L218.7 271.95 218.7 274.95 212.7 274.95 212.7 271.95 M233.1 271.95 L238.3 271.95 238.3 274.95 233.1 274.95 233.1 271.95" fill="#666666" fill-rule="evenodd" stroke="none"/>
      <path d="M154.4 140.3 Q153.65 139.55 153.35 138.65 L152.85 135.65 Q151.45 129.7 151.45 128.2 151.45 125.2 152.1 123.05 152.8 120.6 154.25 117.3 155.7 113.95 159.25 111.7 162.75 109.4 164.65 109.4" fill="none" stroke="#000000" stroke-linecap="butt" stroke-linejoin="round" stroke-opacity="0.49803922" stroke-width="3.0"/>
      <path d="M183.75 236.4 L180.15 237.6 Q176.85 238.65 174.5 238.65 L171.65 238.35 M164.35 235.3 Q162.75 233.7 162.25 231.4 L160.15 224.65 Q158.75 220.55 158.75 217.9 L158.8 216.9 157.7 215.15 Q154.25 209.45 154.25 205.4 154.25 202.85 155.3 200.55 L155.7 199.7 M161.7 205.15 Q160.7 206.95 160.0 209.5 158.9 213.35 158.8 216.9 L164.0 225.65 165.6 229.85 Q166.25 231.1 167.5 231.7 L167.55 231.7 M175.15 234.4 L175.45 234.5 176.9 234.95 178.25 235.15 180.85 234.9 183.75 234.7" fill="none" stroke="#000000" stroke-linecap="butt" stroke-linejoin="round" stroke-opacity="0.49803922" stroke-width="1.0"/>
      <path d="M255.7 273.95 L175.7 273.95 175.7 271.95 255.7 271.95 255.7 273.95" fill="#1a1b1e" fill-opacity="0.49803922" fill-rule="evenodd" stroke="none"/>
    </g>
  </defs>
</svg>
