<?xml version="1.0" encoding="UTF-8" standalone="no"?>
<svg xmlns:ffdec="https://www.free-decompiler.com/flash" xmlns:xlink="http://www.w3.org/1999/xlink" ffdec:objectType="frame" height="30.4px" width="26.5px" xmlns="http://www.w3.org/2000/svg">
  <g transform="matrix(1.0, 0.0, 0.0, 1.0, 12.1, 12.4)">
    <use ffdec:characterId="1762" height="30.4" transform="matrix(1.0, 0.0, 0.0, 1.0, -12.1, -12.4)" width="26.5" xlink:href="#shape0"/>
  </g>
  <defs>
    <g id="shape0" transform="matrix(1.0, 0.0, 0.0, 1.0, 12.1, 12.4)">
      <path d="M9.65 3.1 L9.45 3.25 8.5 1.4 Q7.9 -0.25 6.65 -1.6 L4.05 -4.75 2.6 -7.05 Q1.1 -9.2 0.9 -11.9 L1.35 -11.0 3.0 -7.85 Q3.95 -5.9 5.9 -5.0 9.15 -3.6 12.5 -2.35 L14.4 -1.7 Q12.25 -1.8 10.95 -0.1 L10.7 0.35 9.65 3.1" fill="#c79b68" fill-rule="evenodd" stroke="none"/>
      <path d="M0.9 -11.9 Q1.1 -9.2 2.6 -7.05 L4.05 -4.75 6.65 -1.6 Q7.9 -0.25 8.5 1.4 L9.45 3.25 9.65 3.1 9.05 8.75 8.2 13.65 Q7.95 14.75 7.3 15.75 L6.4 16.8 5.2 17.5 2.85 18.0 Q0.0 17.75 -2.4 16.75 -5.15 15.5 -7.6 13.9 L-9.6 12.55 Q-12.3 11.0 -11.95 7.75 L-11.8 7.25 -12.1 6.8 -8.75 -1.55 Q-8.3 -2.7 -8.0 -4.05 -7.5 -6.0 -7.5 -8.0 L-7.4 -10.15 -6.55 -9.0 -6.35 -9.05 -5.75 -9.35 -5.45 -9.25 -5.25 -9.45 -5.2 -10.05 -5.15 -10.9 -4.65 -10.45 -3.85 -10.4 -3.55 -10.0 -2.9 -10.95 -2.15 -10.6 -1.8 -11.5 -0.75 -11.65 -0.75 -12.4 0.9 -11.9" fill="#ffcc99" fill-rule="evenodd" stroke="none"/>
    </g>
  </defs>
</svg>
