<?xml version="1.0" encoding="UTF-8" standalone="no"?>
<svg xmlns:ffdec="https://www.free-decompiler.com/flash" xmlns:xlink="http://www.w3.org/1999/xlink" ffdec:objectType="frame" height="78.5px" width="39.3px" xmlns="http://www.w3.org/2000/svg">
  <g transform="matrix(1.0, 0.0, 0.0, 1.0, 11.8, 38.3)">
    <use ffdec:characterId="1536" height="60.25" transform="matrix(1.0, 0.0, 0.0, 1.0, -11.0, -32.1)" width="25.85" xlink:href="#shape0"/>
    <use ffdec:characterId="1535" height="18.55" transform="matrix(1.0, 0.0, 0.0, 1.0, -11.8, 21.65)" width="39.3" xlink:href="#shape1"/>
  </g>
  <defs>
    <g id="shape0" transform="matrix(1.0, 0.0, 0.0, 1.0, 11.0, 32.1)">
      <path d="M3.05 -27.2 L2.5 -26.7 Q0.45 -24.6 -1.45 -24.1 L-1.85 -25.1 -1.4 -26.55 -1.35 -26.75 -0.4 -27.65 Q0.05 -27.7 0.3 -26.7 L0.9 -27.9 0.5 -28.35 Q0.05 -28.8 0.65 -29.25 L3.05 -27.2 M-1.05 -23.55 L-0.45 -23.55 1.6 -24.15 1.6 -23.6 1.35 -22.3 0.45 -22.45 Q-0.45 -22.85 -1.05 -23.55 M2.15 -24.35 L2.8 -24.65 4.4 -25.3 4.45 -25.2 5.2 -23.5 4.85 -23.1 Q3.3 -23.45 2.15 -24.35 M5.9 -21.25 L5.85 -21.15 5.65 -20.4 5.5 -20.4 4.4 -20.35 4.15 -21.1 Q4.1 -21.9 5.05 -22.05 L5.15 -22.05 5.9 -21.25 M5.3 -19.25 L5.1 -18.65 4.95 -18.75 5.1 -19.2 5.3 -19.25 M3.25 -17.15 L2.75 -17.35 3.2 -17.85 3.7 -17.85 3.25 -17.15 M1.95 -13.6 Q2.45 -13.35 3.05 -13.05 L4.3 -11.55 4.85 -10.15 6.35 -11.6 7.35 -11.2 6.8 -10.45 6.95 -9.65 5.65 -7.8 4.35 -8.05 3.3 -6.95 2.55 -7.4 2.5 -8.05 1.95 -8.05 2.45 -5.6 0.7 -0.5 -0.45 0.45 -1.25 0.15 -0.75 -0.7 Q1.3 -3.85 0.7 -7.35 L0.05 -7.8 0.6 -9.2 0.65 -10.0 1.05 -10.2 3.6 -9.35 3.95 -10.0 3.6 -10.4 2.4 -11.85 2.35 -12.9 1.85 -13.1 1.95 -13.6 M9.15 -24.5 L9.15 -24.65 Q9.15 -25.8 10.4 -25.4 L10.8 -25.25 11.05 -25.15 11.2 -25.05 Q12.4 -24.35 12.4 -23.75 L12.25 -22.35 Q11.9 -21.55 11.0 -21.55 9.6 -21.55 9.25 -23.25 9.05 -23.95 9.15 -24.5 M11.6 -20.2 Q12.1 -20.0 12.1 -19.2 L11.95 -18.45 11.85 -18.25 Q11.6 -17.75 11.25 -17.75 L10.3 -17.9 10.15 -19.05 Q10.15 -20.3 11.15 -20.3 L11.6 -20.2 M-0.9 -13.6 L-0.35 -14.3 0.6 -14.0 0.7 -14.0 0.9 -13.7 Q0.95 -13.0 0.15 -12.9 L-0.6 -13.05 -0.6 -12.95 Q-0.55 -12.6 -1.35 -11.6 -2.2 -10.6 -2.55 -10.55 L-3.1 -10.75 -3.45 -11.8 Q-3.6 -12.85 -2.75 -13.3 L-1.85 -13.6 -1.25 -13.5 -1.0 -13.45 -0.9 -13.6 M6.0 -5.7 Q6.4 -5.5 6.8 -5.35 L7.05 -6.4 6.1 -7.7 6.3 -8.2 6.9 -8.45 7.9 -8.65 8.6 -8.15 8.25 -4.85 7.1 -4.05 6.6 -3.65 6.55 -3.65 6.55 -3.6 Q6.6 -2.8 6.3 -2.15 5.95 -1.6 5.4 -1.5 L5.1 -1.6 Q4.25 -2.5 4.55 -3.5 4.85 -4.4 5.65 -4.95 L6.0 -5.7 M3.95 -0.05 Q4.95 0.6 4.85 1.65 L4.6 2.35 4.1 3.15 4.05 3.2 4.1 3.2 Q4.8 4.3 4.55 5.25 L4.25 5.9 4.2 6.05 3.35 6.55 1.45 3.7 1.85 2.6 2.4 2.4 3.0 2.15 3.05 1.75 3.15 0.4 3.95 -0.05 M-10.4 -25.55 L-9.75 -25.95 Q-8.7 -24.4 -10.15 -22.9 L-10.7 -22.45 -10.4 -25.55 M-2.75 -26.3 L-3.1 -25.15 -4.15 -24.7 -4.6 -24.95 -5.15 -26.85 -5.7 -27.1 -5.9 -27.5 -5.8 -28.0 -6.25 -27.7 -7.35 -24.95 -8.85 -25.55 -9.1 -27.95 -10.3 -28.5 -10.2 -28.9 -6.7 -28.7 -5.45 -29.75 -5.25 -30.85 -4.45 -31.3 -3.4 -30.95 Q-3.15 -30.1 -3.4 -29.2 L-3.55 -28.7 -4.1 -28.5 -3.05 -27.5 -2.75 -26.3" fill="#ff0000" fill-rule="evenodd" stroke="none"/>
      <path d="M1.6 -24.15 L2.15 -24.35 Q3.3 -23.45 4.85 -23.1 L4.95 -22.95 5.15 -23.15 5.6 -22.85 5.0 -22.05 5.05 -22.05 Q4.1 -21.9 4.15 -21.1 L4.4 -20.35 5.5 -20.4 5.65 -20.4 5.3 -19.25 5.1 -19.2 4.95 -18.75 5.1 -18.65 4.35 -16.55 3.25 -17.15 3.7 -17.85 4.25 -18.15 3.65 -20.55 Q3.55 -21.85 3.75 -22.7 L3.7 -22.7 2.95 -22.65 Q2.5 -22.3 2.25 -22.3 L2.2 -22.25 1.55 -22.25 1.35 -22.3 1.6 -23.6 1.6 -24.15 M0.95 -14.15 L1.95 -13.6 1.85 -13.1 2.35 -12.9 2.4 -11.85 2.25 -11.8 1.05 -11.9 Q-0.4 -11.75 -0.65 -10.85 -0.95 -9.95 -1.6 -9.9 L-1.95 -9.85 Q-2.75 -9.9 -3.1 -10.75 L-2.55 -10.55 Q-2.2 -10.6 -1.35 -11.6 -0.55 -12.6 -0.6 -12.95 L-0.6 -13.05 0.15 -12.9 Q0.95 -13.0 0.9 -13.7 L0.7 -14.0 0.95 -14.15 M3.05 -13.05 L4.0 -12.65 4.7 -12.35 4.35 -11.6 4.3 -11.55 3.05 -13.05 M8.75 -22.2 L8.75 -22.35 8.7 -22.7 8.85 -23.3 9.0 -24.2 9.15 -24.5 Q9.05 -23.95 9.25 -23.25 9.6 -21.55 11.0 -21.55 11.9 -21.55 12.25 -22.35 L12.4 -23.75 Q12.4 -24.35 11.2 -25.05 L11.75 -24.75 Q12.5 -24.2 12.5 -23.35 L12.25 -21.1 11.55 -20.25 11.6 -20.2 11.15 -20.3 Q10.15 -20.3 10.15 -19.05 L10.3 -17.9 11.25 -17.75 Q11.6 -17.75 11.85 -18.25 L11.95 -18.45 12.0 -18.1 12.0 -17.9 Q12.0 -17.35 11.6 -17.0 11.15 -16.6 10.45 -16.6 9.85 -16.6 9.35 -17.25 8.85 -17.85 8.85 -18.55 8.85 -19.0 9.35 -19.75 L9.7 -20.15 Q9.2 -20.4 9.0 -21.05 L8.75 -22.2 M0.65 -29.25 Q0.05 -28.8 0.5 -28.35 L0.9 -27.9 0.3 -26.7 Q0.05 -27.7 -0.4 -27.65 L-1.35 -26.75 -1.4 -26.55 -1.85 -25.1 -2.0 -26.7 Q-2.0 -27.95 -1.6 -28.75 -1.25 -29.65 -0.35 -30.0 L-1.55 -31.15 -0.9 -31.25 -0.9 -31.2 Q0.1 -30.4 0.35 -29.7 L0.65 -29.25 M0.05 -7.8 L0.7 -7.35 Q1.3 -3.85 -0.75 -0.7 L-1.25 0.15 -0.45 0.45 0.7 -0.5 Q0.4 0.85 -0.85 1.3 L-1.7 1.0 Q-2.05 0.65 -2.0 0.2 -1.95 -1.35 -0.8 -2.55 0.0 -3.4 0.45 -4.45 0.95 -5.6 0.55 -6.7 L0.05 -7.8 M2.45 -5.6 L1.95 -8.05 2.5 -8.05 2.55 -7.4 3.3 -6.95 4.35 -8.05 3.65 -6.8 Q3.1 -6.75 2.7 -6.35 2.4 -6.0 2.45 -5.6 M6.1 -7.7 L7.05 -6.4 6.8 -5.35 Q6.4 -5.5 6.0 -5.7 L5.9 -6.3 Q5.8 -7.15 6.1 -7.7 M5.65 -4.95 Q4.85 -4.4 4.55 -3.5 4.25 -2.5 5.1 -1.6 4.9 -1.45 4.7 -1.45 4.15 -1.4 3.85 -1.7 3.45 -2.1 3.4 -3.0 L3.5 -3.75 Q3.75 -4.85 5.45 -5.0 L5.65 -4.95 M6.55 -3.6 L6.55 -3.65 6.6 -3.65 6.55 -3.6 M7.9 -8.65 L6.9 -8.45 7.6 -8.65 7.65 -8.7 7.7 -8.7 7.9 -8.65 M1.85 2.6 L1.45 3.7 3.35 6.55 2.85 6.85 2.25 6.8 1.6 6.3 0.95 5.3 Q0.6 4.3 1.4 3.05 L1.85 2.6 M-10.4 -25.55 L-10.3 -28.5 -9.1 -27.95 -8.85 -25.55 -7.35 -24.95 -6.25 -27.7 -5.8 -28.0 -5.9 -27.5 -5.7 -27.1 -5.15 -26.85 -4.6 -24.95 -4.15 -24.7 -3.1 -25.15 -2.75 -26.3 Q-2.6 -24.95 -3.25 -23.75 L-3.45 -23.45 -4.65 -23.2 -5.65 -25.2 -7.25 -24.45 -7.15 -23.55 Q-8.6 -22.2 -10.75 -21.65 L-10.7 -22.45 -10.15 -22.9 Q-8.7 -24.4 -9.75 -25.95 L-10.4 -25.55 M-3.05 -27.5 L-4.1 -28.5 -3.55 -28.7 -3.4 -29.2 Q-3.15 -30.1 -3.4 -30.95 L-2.9 -30.45 -2.6 -29.6 -2.65 -28.45 -3.4 -28.0 -3.05 -27.5 M-1.25 -13.5 L-0.9 -13.6 -1.0 -13.45 -1.25 -13.5" fill="#990000" fill-rule="evenodd" stroke="none"/>
      <path d="M4.7 -12.35 L6.35 -11.6 4.85 -10.15 4.3 -11.55 4.35 -11.6 4.7 -12.35" fill="#ffffff" fill-rule="evenodd" stroke="none"/>
      <path d="M7.35 -11.2 L8.35 -10.7 7.65 -8.85 7.6 -8.65 6.9 -8.45 6.3 -8.2 6.1 -7.7 Q5.8 -7.15 5.9 -6.3 L6.0 -5.7 5.65 -4.95 5.45 -5.0 Q3.75 -4.85 3.5 -3.75 L3.4 -3.9 3.65 -6.55 3.65 -6.8 4.35 -8.05 5.65 -7.8 6.95 -9.65 6.8 -10.45 7.35 -11.2 M-1.55 -31.15 L-0.35 -30.0 Q-1.25 -29.65 -1.6 -28.75 L-2.6 -29.6 -2.9 -30.45 -2.2 -31.6 -1.85 -32.1 -1.85 -31.85 -1.6 -31.1 -1.55 -31.15 M1.55 -22.25 L2.2 -22.25 2.25 -22.3 Q2.5 -22.3 2.95 -22.65 L3.7 -22.7 3.75 -22.7 Q3.55 -21.85 3.65 -20.55 L4.25 -18.15 3.7 -17.85 3.2 -17.85 2.8 -18.85 1.9 -21.3 1.55 -22.25 M3.6 -10.4 L3.95 -10.0 3.6 -9.35 3.6 -10.4 M5.1 -1.6 L5.4 -1.5 5.1 1.45 5.1 1.65 5.0 1.65 4.85 1.65 Q4.95 0.6 3.95 -0.05 L3.85 -1.7 Q4.15 -1.4 4.7 -1.45 4.9 -1.45 5.1 -1.6" fill="#ebbb98" fill-rule="evenodd" stroke="none"/>
      <path d="M-1.45 -24.1 L-2.7 -24.0 -1.05 -23.55 Q-0.45 -22.85 0.45 -22.45 L1.35 -22.3 1.55 -22.25 1.9 -21.3 2.8 -18.85 3.2 -17.85 2.75 -17.35 Q0.65 -18.8 -2.4 -19.7 -5.45 -20.7 -10.8 -21.25 L-10.8 -21.6 -10.75 -21.65 Q-8.6 -22.2 -7.15 -23.55 L-7.25 -24.45 -5.65 -25.2 -4.65 -23.2 -3.45 -23.45 -3.25 -23.75 Q-2.6 -24.95 -2.75 -26.3 L-3.05 -27.5 -3.4 -28.0 -2.65 -28.45 -2.6 -29.6 -1.6 -28.75 Q-2.0 -27.95 -2.0 -26.7 L-1.85 -25.1 -1.45 -24.1 M-10.95 -18.2 L-9.6 -18.2 -4.55 -17.1 Q-1.7 -16.25 0.0 -14.85 L0.95 -14.15 0.7 -14.0 0.6 -14.0 -0.35 -14.3 -0.9 -13.6 -1.25 -13.5 -1.85 -13.6 -2.75 -13.3 -3.1 -15.2 -6.2 -10.85 -7.95 -8.45 -9.95 -8.95 -8.7 -4.8 -7.6 -0.55 -7.0 2.0 -7.15 2.0 -7.05 2.65 -7.8 -0.55 -8.5 -2.9 -9.05 -4.7 Q-10.7 -10.6 -10.7 -11.55 L-10.8 -14.45 -11.0 -17.1 -10.95 -18.2 M2.4 -11.85 L3.6 -10.4 3.6 -9.35 1.05 -10.2 0.65 -10.0 0.6 -9.2 0.05 -7.8 0.55 -6.7 Q0.95 -5.6 0.45 -4.45 0.0 -3.4 -0.8 -2.55 -1.95 -1.35 -2.0 0.2 -2.05 0.65 -1.7 1.0 L-0.85 1.3 Q0.4 0.85 0.7 -0.5 L2.45 -5.6 Q2.4 -6.0 2.7 -6.35 3.1 -6.75 3.65 -6.8 L3.65 -6.55 3.4 -3.9 3.5 -3.75 3.4 -3.0 Q3.45 -2.1 3.85 -1.7 L3.95 -0.05 3.15 0.4 3.05 1.75 2.55 1.75 0.05 1.85 -3.2 1.95 -3.2 0.55 -3.2 -1.2 -2.85 -5.6 -2.8 -6.3 -2.7 -6.3 -2.05 -8.25 -1.6 -9.15 -1.8 -9.25 -1.95 -9.85 -1.6 -9.9 Q-0.95 -9.95 -0.65 -10.85 -0.4 -11.75 1.05 -11.9 L2.25 -11.8 2.4 -11.85 M5.4 -1.5 Q5.95 -1.6 6.3 -2.15 6.6 -2.8 6.55 -3.6 L6.6 -3.65 7.1 -4.05 7.0 -3.45 6.95 -2.65 6.7 1.25 6.7 1.55 5.1 1.65 5.1 1.45 5.4 -1.5 M7.6 -8.65 L7.65 -8.85 7.65 -8.7 7.6 -8.65 M-3.4 -30.95 L-3.0 -31.2 -2.2 -31.6 -2.9 -30.45 -3.4 -30.95" fill="#ffcc99" fill-rule="evenodd" stroke="none"/>
      <path d="M-3.1 -10.75 Q-2.75 -9.9 -1.95 -9.85 L-1.8 -9.25 -1.6 -9.15 -2.05 -8.25 -2.7 -6.3 -2.8 -6.3 -2.85 -5.6 -3.2 -1.2 -3.2 0.55 -3.2 1.95 -3.55 1.95 -6.25 2.0 -7.0 2.0 -7.6 -0.55 -8.7 -4.8 -9.95 -8.95 -7.95 -8.45 -6.2 -10.85 -3.1 -15.2 -2.75 -13.3 Q-3.6 -12.85 -3.45 -11.8 L-3.1 -10.75" fill="#f4c398" fill-rule="evenodd" stroke="none"/>
      <path d="M10.4 -25.4 Q11.1 -27.0 12.65 -27.0 14.0 -27.0 14.5 -26.3 L14.65 -26.1 14.5 -26.1 Q12.45 -26.1 11.4 -25.45 L11.05 -25.15 10.8 -25.25 10.4 -25.4 M5.0 1.65 L5.1 1.65 6.7 1.55 6.6 3.1 6.65 4.4 6.65 5.2 5.15 5.25 5.15 4.65 5.1 4.4 5.0 2.4 5.0 1.65 M6.75 7.4 L6.75 7.6 6.85 9.05 6.9 10.15 5.6 10.3 5.4 8.2 5.35 7.6 5.35 7.45 6.75 7.4 M7.1 12.95 L7.1 13.2 7.15 13.55 7.15 13.8 7.45 16.8 7.7 21.05 Q7.85 24.1 7.45 24.4 L6.85 24.75 Q6.6 19.0 5.95 13.55 L5.9 13.05 6.7 12.95 7.1 12.95 M-7.1 26.15 Q-8.25 24.35 -7.3 20.9 L-7.2 19.45 -6.55 13.0 -4.95 13.1 -4.95 13.2 -5.2 18.45 Q-5.4 21.4 -7.1 26.15 M-6.35 10.5 L-6.4 7.3 -6.4 7.2 -6.25 7.25 -5.45 7.35 -5.1 10.65 -6.35 10.5 M-6.65 5.05 L-6.75 4.4 -6.75 4.25 -7.05 2.65 -7.15 2.0 -7.0 2.0 -6.25 2.0 -5.85 4.4 -5.85 4.65 -5.75 5.15 -6.65 5.05" fill="#f3f3f3" fill-rule="evenodd" stroke="none"/>
      <path d="M6.65 5.2 L6.7 6.2 6.75 7.4 5.35 7.45 5.15 5.25 6.65 5.2 M6.9 10.15 L7.0 11.5 7.1 12.95 6.7 12.95 5.9 13.05 5.6 10.3 6.9 10.15 M-6.55 13.0 L-6.4 11.55 -6.35 10.5 -5.1 10.65 -4.95 13.1 -6.55 13.0 M-6.4 7.2 L-6.65 5.05 -5.75 5.15 -5.45 7.35 -6.25 7.25 -6.4 7.2" fill="#e07373" fill-rule="evenodd" stroke="none"/>
      <path d="M7.35 -12.85 L7.25 -12.9 Q6.45 -13.5 6.45 -14.9 6.45 -17.8 7.95 -20.65 L8.75 -22.2 9.0 -21.05 Q9.2 -20.4 9.7 -20.15 L9.35 -19.75 Q8.85 -19.0 8.85 -18.55 L8.55 -18.6 Q7.8 -18.6 7.3 -16.95 6.95 -15.7 6.95 -14.45 L7.15 -13.3 7.35 -12.85 M11.05 -25.15 L11.4 -25.45 Q12.45 -26.1 14.5 -26.1 L14.65 -26.1 14.75 -25.85 14.85 -23.55 Q14.85 -21.85 14.3 -19.65 L12.95 -18.65 Q12.5 -18.3 12.0 -18.1 L11.95 -18.45 12.1 -19.2 Q12.1 -20.0 11.6 -20.2 L11.55 -20.25 12.25 -21.1 12.5 -23.35 Q12.5 -24.2 11.75 -24.75 L11.2 -25.05 11.05 -25.15 M4.85 1.65 L5.0 1.65 5.0 2.4 5.1 4.4 5.15 4.65 5.15 5.25 4.55 5.25 Q4.8 4.3 4.1 3.2 L4.05 3.2 4.1 3.15 4.6 2.35 4.85 1.65 M6.85 24.75 Q3.7 28.15 -2.2 28.15 L-3.55 28.05 Q-6.1 27.7 -7.1 26.15 -5.4 21.4 -5.2 18.45 L-4.95 13.2 -4.95 13.1 -2.15 13.15 -1.85 13.15 -1.7 16.65 -2.65 20.4 -3.6 25.0 Q-3.6 27.35 -1.65 27.35 -0.2 27.35 0.8 26.1 1.7 25.0 1.7 23.7 1.7 22.4 1.25 21.25 0.75 20.1 0.75 19.65 0.75 18.55 1.4 16.95 L1.8 15.85 Q2.0 17.05 2.45 17.6 L3.65 19.75 3.9 20.3 2.35 14.3 2.05 13.15 4.1 13.1 5.9 13.05 5.95 13.55 Q6.6 19.0 6.85 24.75 M3.05 1.75 L3.0 2.15 2.4 2.4 2.55 1.75 3.05 1.75 M-3.55 1.95 L-3.3 3.65 -3.15 4.4 -3.1 4.65 -3.0 5.3 -5.75 5.15 -5.85 4.65 -5.85 4.4 -6.25 2.0 -3.55 1.95 M1.7 7.6 L3.7 7.55 4.45 7.5 4.8 7.5 5.35 7.45 5.35 7.6 5.4 8.2 5.6 10.3 1.85 10.7 1.7 7.6 M-2.1 10.95 L-2.45 10.85 -5.1 10.65 -5.45 7.35 -2.6 7.6 -2.35 9.15 -2.1 10.95" fill="#e2e2e2" fill-rule="evenodd" stroke="none"/>
      <path d="M9.15 -11.95 Q7.85 -12.5 7.35 -12.85 L7.15 -13.3 6.95 -14.45 Q6.95 -15.7 7.3 -16.95 7.8 -18.6 8.55 -18.6 L8.85 -18.55 Q8.85 -17.85 9.35 -17.25 9.85 -16.6 10.45 -16.6 11.15 -16.6 11.6 -17.0 12.0 -17.35 12.0 -17.9 L12.0 -18.1 Q12.5 -18.3 12.95 -18.65 L14.3 -19.65 12.95 -15.85 Q12.1 -14.25 10.9 -13.0 9.7 -11.75 9.3 -11.9 L9.15 -11.95 M2.4 2.4 L1.85 2.6 1.4 3.05 Q0.6 4.3 0.95 5.3 L-3.0 5.3 -3.1 4.65 -3.15 4.4 -3.3 3.65 -3.55 1.95 -3.2 1.95 0.05 1.85 2.55 1.75 2.4 2.4 M1.7 7.6 L1.85 10.7 1.65 10.7 -2.1 10.95 -2.35 9.15 -2.6 7.6 -0.75 7.65 1.7 7.6 M2.05 13.15 L2.35 14.3 3.9 20.3 3.65 19.75 2.45 17.6 Q2.0 17.05 1.8 15.85 L1.4 16.95 Q0.75 18.55 0.75 19.65 0.75 20.1 1.25 21.25 1.7 22.4 1.7 23.7 1.7 25.0 0.8 26.1 -0.2 27.35 -1.65 27.35 -3.6 27.35 -3.6 25.0 L-2.65 20.4 -1.7 16.65 -1.85 13.15 2.05 13.15" fill="#d4d4d4" fill-rule="evenodd" stroke="none"/>
      <path d="M5.15 5.25 L5.35 7.45 4.8 7.5 4.45 7.5 3.7 7.55 1.7 7.6 1.6 6.3 2.25 6.8 2.85 6.85 3.35 6.55 4.2 6.05 4.25 5.9 4.55 5.25 5.15 5.25 M1.85 10.7 L5.6 10.3 5.9 13.05 4.1 13.1 2.05 13.15 1.85 10.7 M-1.85 13.15 L-2.15 13.15 -4.95 13.1 -5.1 10.65 -2.45 10.85 -2.1 10.95 -1.85 13.15 M-2.6 7.6 L-5.45 7.35 -5.75 5.15 -3.0 5.3 -2.6 7.6" fill="#cc4343" fill-rule="evenodd" stroke="none"/>
      <path d="M0.95 5.3 L1.6 6.3 1.7 7.6 -0.75 7.65 -2.6 7.6 -3.0 5.3 0.95 5.3 M-2.1 10.95 L1.65 10.7 1.85 10.7 2.05 13.15 -1.85 13.15 -2.1 10.95" fill="#a83636" fill-rule="evenodd" stroke="none"/>
      <path d="M-1.45 -24.1 Q0.45 -24.6 2.5 -26.7 L3.05 -27.2 Q5.6 -29.55 8.45 -29.55 L11.2 -29.0 14.7 -28.05 14.5 -26.3 Q14.0 -27.0 12.65 -27.0 11.1 -27.0 10.4 -25.4 9.15 -25.8 9.15 -24.65 L9.15 -24.5 9.0 -24.2 8.85 -23.3 8.7 -22.7 8.75 -22.35 8.75 -22.2 7.95 -20.65 Q6.45 -17.8 6.45 -14.9 6.45 -13.5 7.25 -12.9 L7.35 -12.85 Q7.85 -12.5 9.15 -11.95 L9.05 -11.65 8.7 -10.55 8.35 -10.7 7.35 -11.2 6.35 -11.6 4.7 -12.35 4.0 -12.65 3.05 -13.05 Q2.45 -13.35 1.95 -13.6 L0.95 -14.15 0.0 -14.85 Q-1.7 -16.25 -4.55 -17.1 L-9.6 -18.2 -10.95 -18.2 -10.95 -20.4 -10.85 -20.9 -10.8 -21.25 Q-5.45 -20.7 -2.4 -19.7 0.65 -18.8 2.75 -17.35 L3.25 -17.15 4.35 -16.55 5.1 -18.65 5.3 -19.25 5.65 -20.4 5.85 -21.15 5.9 -21.25 7.7 -26.25 6.8 -26.25 4.4 -25.3 2.8 -24.65 2.15 -24.35 1.6 -24.15 -0.45 -23.55 -1.05 -23.55 -2.7 -24.0 -1.45 -24.1" fill="#333333" fill-rule="evenodd" stroke="none"/>
    </g>
    <g id="shape1" transform="matrix(1.0, 0.0, 0.0, 1.0, 11.8, -21.65)">
      <path d="M-11.7 34.75 Q-11.1 35.3 -10.15 35.6 L-8.45 35.8 Q-5.05 35.6 -3.75 35.75 L-0.7 36.05 0.9 36.2 6.45 36.6 14.2 36.9 15.3 37.0 19.45 37.35 20.5 37.45 25.9 37.75 27.4 37.55 Q28.05 40.2 23.6 40.2 L15.1 40.1 8.6 39.5 8.9 39.55 -7.55 38.45 -10.45 38.35 -11.75 37.85 -11.7 34.75" fill="#333333" fill-rule="evenodd" stroke="none"/>
      <path d="M6.55 25.05 L8.1 24.6 9.25 24.45 9.55 25.45 9.85 26.35 8.5 26.8 Q7.45 27.15 6.75 27.6 L7.0 26.7 6.55 25.05 M17.1 30.0 L16.55 30.25 Q16.05 30.45 15.3 31.35 14.8 31.9 14.6 32.4 L13.25 31.95 12.65 31.75 Q13.7 30.15 14.9 29.3 L15.4 29.45 16.9 29.9 17.0 29.95 17.1 30.0 M8.4 30.5 Q9.25 28.9 10.2 27.8 L10.55 27.45 12.2 28.35 12.55 28.5 12.0 29.05 Q11.4 29.75 10.7 31.15 L8.4 30.5" fill="#f3f3f3" fill-rule="evenodd" stroke="none"/>
      <path d="M6.55 25.05 L6.4 24.4 6.25 23.85 Q5.8 23.1 4.65 23.1 L-0.7 24.0 -4.9 23.5 -7.05 22.95 -7.1 22.95 -7.95 24.45 Q-9.3 27.05 -9.3 28.95 L-9.15 30.2 -9.4 30.9 -10.15 35.6 Q-11.1 35.3 -11.7 34.75 L-11.7 34.7 -11.55 32.25 Q-11.55 31.25 -10.95 28.6 L-10.1 25.35 -9.5 23.6 Q-9.0 22.65 -8.1 21.95 L-6.2 21.75 -5.45 22.0 -1.7 23.4 1.8 23.4 5.35 22.5 5.6 22.45 5.85 22.35 6.7 22.15 Q7.65 21.8 7.95 21.8 8.25 21.8 8.9 23.55 L9.25 24.45 8.1 24.6 6.55 25.05 M-0.7 36.05 Q0.35 33.85 2.1 31.85 L2.15 31.8 Q4.25 29.3 6.25 28.4 L6.75 27.6 Q7.45 27.15 8.5 26.8 L9.85 26.35 10.15 27.15 10.55 27.45 10.2 27.8 Q9.25 28.9 8.4 30.5 L5.55 30.05 5.6 29.9 3.4 32.65 3.1 33.05 0.9 36.2 -0.7 36.05 M14.6 32.4 Q14.8 31.9 15.3 31.35 16.05 30.45 16.55 30.25 L17.1 30.0 19.35 30.85 19.55 30.95 19.75 31.05 22.25 32.05 25.15 33.25 24.05 33.85 22.65 34.0 20.7 33.75 19.2 33.7 17.85 33.35 Q18.85 33.9 19.5 34.85 20.2 35.9 20.5 37.45 L19.45 37.35 Q19.3 36.35 18.45 35.05 L18.35 34.9 16.95 33.1 14.8 32.55 14.8 32.45 14.6 32.4 M14.9 29.3 Q13.7 30.15 12.65 31.75 L10.75 31.15 10.7 31.15 Q11.4 29.75 12.0 29.05 L12.55 28.5 14.9 29.3" fill="#b4b4b4" fill-rule="evenodd" stroke="none"/>
      <path d="M-10.15 35.6 L-9.4 30.9 -9.15 30.2 -9.3 28.95 Q-9.3 27.05 -7.95 24.45 L-7.1 22.95 -7.05 22.95 -4.9 23.5 -0.7 24.0 4.65 23.1 Q5.8 23.1 6.25 23.85 L6.4 24.4 6.55 25.05 7.0 26.7 6.75 27.6 6.25 28.4 Q4.25 29.3 2.15 31.8 L2.1 31.85 Q0.35 33.85 -0.7 36.05 L-3.75 35.75 Q-5.05 35.6 -8.45 35.8 L-10.15 35.6 M14.6 32.4 L14.8 32.45 14.8 32.55 16.95 33.1 18.35 34.9 18.45 35.05 Q19.3 36.35 19.45 37.35 L15.3 37.0 14.2 36.9 6.45 36.6 0.9 36.2 3.1 33.05 3.4 32.65 5.6 29.9 5.55 30.05 8.4 30.5 10.7 31.15 10.75 31.15 12.65 31.75 13.25 31.95 14.6 32.4 M20.5 37.45 Q20.2 35.9 19.5 34.85 18.85 33.9 17.85 33.35 L19.2 33.7 20.7 33.75 22.65 34.0 24.05 33.85 25.15 33.25 26.75 34.5 27.0 34.8 27.35 35.7 Q27.55 36.4 27.4 37.55 L25.9 37.75 20.5 37.45" fill="#a1a1a1" fill-rule="evenodd" stroke="none"/>
    </g>
  </defs>
</svg>
