<?xml version="1.0" encoding="UTF-8" standalone="no"?>
<svg xmlns:ffdec="https://www.free-decompiler.com/flash" xmlns:xlink="http://www.w3.org/1999/xlink" ffdec:objectType="frame" height="31.95px" width="48.6px" xmlns="http://www.w3.org/2000/svg">
  <g transform="matrix(1.0, 0.0, 0.0, 1.0, 24.55, 17.95)">
    <use ffdec:characterId="2820" height="31.95" transform="matrix(1.0, 0.0, 0.0, 1.0, -24.55, -17.95)" width="48.6" xlink:href="#shape0"/>
  </g>
  <defs>
    <g id="shape0" transform="matrix(1.0, 0.0, 0.0, 1.0, 24.55, 17.95)">
      <path d="M19.75 -14.0 L19.0 -15.9 -3.5 -14.3 -17.3 -15.95 -17.8 -14.0 -18.85 -14.0 -18.3 -17.95 -3.35 -15.6 20.0 -17.9 20.75 -14.0 19.75 -14.0 M0.6 -2.9 L1.35 -2.85 1.3 -2.15 1.3 -2.1 0.55 -2.15 0.6 -2.9 M2.05 -2.05 L2.05 -2.15 2.1 -2.8 2.85 -2.75 2.8 -2.15 2.8 -2.0 2.05 -2.05 M22.35 -8.75 Q22.4 -7.8 21.85 -7.1 21.25 -6.4 20.4 -6.4 19.55 -6.4 19.0 -7.1 18.4 -7.8 18.4 -8.7 L18.45 -8.6 18.45 -8.75 Q20.05 -6.1 22.2 -8.5 L22.25 -8.7 22.35 -8.75 M12.65 -5.35 L14.65 -5.35 14.65 -3.35 12.65 -3.35 12.65 -5.35 M17.5 -3.35 L15.5 -3.35 15.5 -5.35 17.5 -5.35 17.5 -3.35 M20.2 9.7 Q18.15 11.75 15.25 11.75 12.35 11.75 10.3 9.7 8.25 7.6 8.25 4.7 L9.0 2.15 Q10.35 -1.2 13.95 -1.65 21.35 -2.5 22.25 4.7 22.25 7.6 20.2 9.7 M16.4 3.85 L16.4 3.7 16.3 3.7 16.4 3.85 M0.25 9.85 L0.25 10.6 -0.5 10.6 -0.5 9.85 0.25 9.85 M1.0 10.6 L1.0 9.85 1.75 9.85 1.75 10.6 1.0 10.6 M2.5 10.6 L2.5 9.85 3.25 9.85 3.25 10.6 2.5 10.6 M5.05 7.85 L-5.25 7.85 -5.25 1.85 5.05 1.85 5.05 7.85 M-18.95 -0.8 Q-17.85 -1.5 -16.55 -1.55 -9.15 -2.4 -8.25 4.8 -8.25 7.7 -10.3 9.8 -12.35 11.85 -15.25 11.85 -18.15 11.85 -20.2 9.8 -22.25 7.7 -22.25 4.8 -22.1 1.15 -18.95 -0.8 M-21.1 -7.05 L-21.4 -7.75 -21.1 -8.45 -20.4 -8.75 -19.7 -8.45 Q-19.4 -8.15 -19.4 -7.75 -19.4 -7.35 -19.7 -7.05 -20.0 -6.75 -20.4 -6.75 -20.8 -6.75 -21.1 -7.05 M-21.1 -9.95 L-21.4 -10.65 -21.1 -11.35 -20.4 -11.65 -19.7 -11.35 Q-19.4 -11.05 -19.4 -10.65 -19.4 -10.25 -19.7 -9.95 -20.0 -9.65 -20.4 -9.65 -20.8 -9.65 -21.1 -9.95 M-17.85 -5.25 L-15.85 -5.25 -15.85 -3.25 -17.85 -3.25 -17.85 -5.25 M-13.0 -3.25 L-15.0 -3.25 -15.0 -5.25 -13.0 -5.25 -13.0 -3.25 M-0.15 -3.0 L-0.2 -2.25 -0.95 -2.3 -0.9 -3.05 -0.15 -3.0 M-3.9 -3.25 L-3.15 -3.2 -3.2 -2.45 -3.95 -2.5 -3.9 -3.25 M-2.4 -3.15 L-1.65 -3.1 -1.7 -2.35 -2.45 -2.4 -2.4 -3.15 M-1.25 10.6 L-2.0 10.6 -2.0 9.85 -1.25 9.85 -1.25 10.6 M-3.5 10.6 L-3.5 9.85 -2.75 9.85 -2.75 10.6 -3.5 10.6 M-14.2 3.8 L-14.1 3.95 -14.1 3.8 -14.2 3.8" fill="#4e4e4e" fill-rule="evenodd" stroke="none"/>
      <path d="M2.05 -2.05 L2.8 -2.0 2.8 -2.15 2.85 -2.75 2.1 -2.8 2.05 -2.15 2.05 -2.05 M0.6 -2.9 L0.55 -2.15 1.3 -2.1 1.3 -2.15 1.35 -2.85 0.6 -2.9 M3.5 -0.95 L1.5 -1.1 -7.0 -1.8 -6.75 -4.7 6.05 -3.7 5.8 -0.8 3.5 -0.95 M-2.4 -3.15 L-2.45 -2.4 -1.7 -2.35 -1.65 -3.1 -2.4 -3.15 M-3.9 -3.25 L-3.95 -2.5 -3.2 -2.45 -3.15 -3.2 -3.9 -3.25 M-0.15 -3.0 L-0.9 -3.05 -0.95 -2.3 -0.2 -2.25 -0.15 -3.0" fill="#303030" fill-rule="evenodd" stroke="none"/>
      <path d="M3.5 -0.95 L3.5 -0.4 1.5 -0.4 1.5 -1.1 3.5 -0.95 M22.35 -8.75 L22.25 -8.7 22.25 -8.75 Q20.9 -11.2 18.7 -9.2 L18.45 -8.75 18.45 -8.6 18.4 -8.7 18.4 -8.75 Q18.4 -9.7 19.0 -10.4 19.55 -11.1 20.4 -11.1 21.25 -11.1 21.85 -10.4 22.4 -9.7 22.35 -8.75" fill="#efefef" fill-rule="evenodd" stroke="none"/>
      <path d="M1.5 -1.1 L1.5 -0.4 3.5 -0.4 3.5 -0.95 5.8 -0.8 6.05 -3.7 -6.75 -4.7 -7.0 -1.8 1.5 -1.1 M18.4 -8.7 Q18.4 -7.8 19.0 -7.1 19.55 -6.4 20.4 -6.4 21.25 -6.4 21.85 -7.1 22.4 -7.8 22.35 -8.75 22.4 -9.7 21.85 -10.4 21.25 -11.1 20.4 -11.1 19.55 -11.1 19.0 -10.4 18.4 -9.7 18.4 -8.75 L18.4 -8.7 M22.25 -8.7 L22.2 -8.5 Q20.05 -6.1 18.45 -8.75 L18.7 -9.2 Q20.9 -11.2 22.25 -8.75 L22.25 -8.7 M12.65 -5.35 L10.7 -5.35 10.7 -3.35 12.65 -3.35 14.65 -3.35 14.65 -5.35 12.65 -5.35 M17.5 -5.35 L15.5 -5.35 15.5 -3.35 17.5 -3.35 19.45 -3.35 19.45 -5.35 17.5 -5.35 M24.0 -12.75 L24.05 -4.15 22.6 -1.6 24.0 12.75 6.3 12.75 6.3 0.85 -6.5 0.85 -6.5 12.75 -8.5 11.6 -23.95 12.75 -24.55 3.3 -23.4 -6.55 -24.3 -12.55 9.7 -11.55 24.0 -12.75 M20.2 9.7 Q22.25 7.6 22.25 4.7 21.35 -2.5 13.95 -1.65 10.35 -1.2 9.0 2.15 L8.25 4.7 Q8.25 7.6 10.3 9.7 12.35 11.75 15.25 11.75 18.15 11.75 20.2 9.7 M2.5 10.6 L3.25 10.6 3.25 9.85 2.5 9.85 2.5 10.6 M1.0 10.6 L1.75 10.6 1.75 9.85 1.0 9.85 1.0 10.6 M0.25 9.85 L-0.5 9.85 -0.5 10.6 0.25 10.6 0.25 9.85 M5.05 12.75 L-5.25 12.75 -5.25 8.85 5.05 8.85 5.05 12.75 M-21.1 -9.95 Q-20.8 -9.65 -20.4 -9.65 -20.0 -9.65 -19.7 -9.95 -19.4 -10.25 -19.4 -10.65 -19.4 -11.05 -19.7 -11.35 L-20.4 -11.65 -21.1 -11.35 -21.4 -10.65 -21.1 -9.95 M-21.1 -7.05 Q-20.8 -6.75 -20.4 -6.75 -20.0 -6.75 -19.7 -7.05 -19.4 -7.35 -19.4 -7.75 -19.4 -8.15 -19.7 -8.45 L-20.4 -8.75 -21.1 -8.45 -21.4 -7.75 -21.1 -7.05 M-18.95 -0.8 Q-22.1 1.15 -22.25 4.8 -22.25 7.7 -20.2 9.8 -18.15 11.85 -15.25 11.85 -12.35 11.85 -10.3 9.8 -8.25 7.7 -8.25 4.8 -9.15 -2.4 -16.55 -1.55 -17.85 -1.5 -18.95 -0.8 M-17.85 -3.25 L-15.85 -3.25 -15.85 -5.25 -17.85 -5.25 -19.8 -5.25 -19.8 -3.25 -17.85 -3.25 M-13.0 -5.25 L-15.0 -5.25 -15.0 -3.25 -13.0 -3.25 -11.05 -3.25 -11.05 -5.25 -13.0 -5.25 M-3.5 10.6 L-2.75 10.6 -2.75 9.85 -3.5 9.85 -3.5 10.6 M-1.25 10.6 L-1.25 9.85 -2.0 9.85 -2.0 10.6 -1.25 10.6" fill="#cccccc" fill-rule="evenodd" stroke="none"/>
      <path d="M12.65 -3.35 L10.7 -3.35 10.7 -5.35 12.65 -5.35 12.65 -3.35 M17.5 -3.35 L17.5 -5.35 19.45 -5.35 19.45 -3.35 17.5 -3.35 M-23.95 12.75 L-8.5 11.6 -6.5 12.75 -6.5 0.85 6.3 0.85 6.3 12.75 24.0 12.75 24.0 14.0 -6.25 14.0 -8.85 12.7 -23.95 14.0 -23.95 12.75 M5.05 7.85 L5.05 1.85 -5.25 1.85 -5.25 7.85 5.05 7.85 M5.05 12.75 L5.05 8.85 -5.25 8.85 -5.25 12.75 5.05 12.75 M-17.85 -3.25 L-19.8 -3.25 -19.8 -5.25 -17.85 -5.25 -17.85 -3.25 M-13.0 -3.25 L-13.0 -5.25 -11.05 -5.25 -11.05 -3.25 -13.0 -3.25" fill="#a8a8a8" fill-rule="evenodd" stroke="none"/>
      <path d="M-17.8 -14.0 L9.5 -12.35 19.75 -14.0 20.75 -14.0 24.0 -14.0 24.0 -12.75 9.7 -11.55 -24.3 -12.55 -23.95 -14.0 -18.85 -14.0 -17.8 -14.0" fill="#e9e9e9" fill-rule="evenodd" stroke="none"/>
      <path d="M16.4 3.85 L16.3 3.7 16.4 3.7 16.4 3.85 M-14.2 3.8 L-14.1 3.8 -14.1 3.95 -14.2 3.8" fill="#3e3e3e" fill-rule="evenodd" stroke="none"/>
      <path d="M16.6 -11.75 L16.8 -7.75 -16.2 -6.35 -16.4 -10.35 16.6 -11.75 M-6.35 -9.75 L-10.35 -9.6 -10.25 -7.6 -6.25 -7.75 -6.35 -9.75" fill="#4e4e4e" fill-rule="evenodd" stroke="none"/>
      <path d="M-6.35 -9.75 L-6.25 -7.75 -10.25 -7.6 -10.35 -9.6 -6.35 -9.75" fill="#e9e9e9" fill-rule="evenodd" stroke="none"/>
      <path d="M-16.1 -6.9 L-15.25 -8.75 -11.65 -7.05 -12.4 -5.2 -16.1 -6.9" fill="#e9e9e9" fill-rule="evenodd" stroke="none"/>
      <path d="M22.75 6.0 Q22.75 8.9 20.7 11.0 18.65 13.05 15.75 13.05 12.85 13.05 10.8 11.0 8.75 8.9 8.75 6.0 L9.75 6.0 10.0 7.85 Q14.2 15.05 20.35 9.6 21.25 8.8 21.5 7.85 L21.75 6.0 22.75 6.0" fill="#a8a8a8" fill-rule="evenodd" stroke="none"/>
      <path d="M22.75 6.0 L21.75 6.0 21.2 3.8 Q20.6 2.1 19.0 1.45 11.6 -2.0 9.75 6.0 L8.75 6.0 9.5 3.45 Q10.85 0.1 14.45 -0.35 21.85 -1.2 22.75 6.0" fill="#e9e9e9" fill-rule="evenodd" stroke="none"/>
      <path d="M21.75 6.0 L21.5 7.85 16.9 5.0 16.8 5.0 16.65 4.85 15.8 4.65 15.0 4.85 14.8 5.0 14.6 5.0 10.0 7.85 9.75 6.0 Q11.6 -2.0 19.0 1.45 20.6 2.1 21.2 3.8 L21.75 6.0" fill="#303030" fill-rule="evenodd" stroke="none"/>
      <path d="M21.5 7.85 Q21.25 8.8 20.35 9.6 14.2 15.05 10.0 7.85 L14.6 5.0 Q14.6 6.1 14.95 6.9 15.25 7.65 15.75 7.65 16.25 7.65 16.6 6.9 L16.9 5.65 16.95 5.35 16.9 5.15 16.9 5.0 21.5 7.85" fill="#4e4e4e" fill-rule="evenodd" stroke="none"/>
      <path d="M16.9 5.65 L16.65 5.85 15.8 6.05 15.0 5.85 Q14.65 5.65 14.65 5.35 14.65 5.15 14.8 5.0 L15.0 4.85 15.8 4.65 16.65 4.85 16.8 5.0 16.9 5.15 16.95 5.35 16.9 5.65" fill="#999999" fill-rule="evenodd" stroke="none"/>
      <path d="M14.8 5.0 Q14.65 5.15 14.65 5.35 14.65 5.65 15.0 5.85 L15.8 6.05 16.65 5.85 16.9 5.65 16.6 6.9 Q16.25 7.65 15.75 7.65 15.25 7.65 14.95 6.9 14.6 6.1 14.6 5.0 L14.8 5.0" fill="#3e3e3e" fill-rule="evenodd" stroke="none"/>
      <path d="M-23.65 3.9 Q-23.5 0.25 -20.35 -1.7 -19.25 -2.4 -17.95 -2.45 -10.55 -3.3 -9.65 3.9 L-10.65 3.9 -11.25 1.7 Q-11.9 0.0 -13.4 -0.7 -20.75 -4.05 -22.65 3.9 L-23.65 3.9" fill="#e9e9e9" fill-rule="evenodd" stroke="none"/>
      <path d="M-22.65 3.9 Q-20.75 -4.05 -13.4 -0.7 -11.9 0.0 -11.25 1.7 L-10.65 3.9 -10.9 5.75 -15.5 2.9 -15.6 2.9 -15.75 2.75 -16.6 2.55 -17.4 2.75 -17.6 2.9 -17.8 2.9 -22.4 5.75 -22.65 3.9" fill="#303030" fill-rule="evenodd" stroke="none"/>
      <path d="M-23.65 3.9 L-22.65 3.9 -22.4 5.75 Q-18.2 13.05 -11.95 7.6 -11.15 6.85 -10.9 5.75 L-10.65 3.9 -9.65 3.9 Q-9.65 6.8 -11.7 8.9 -13.75 10.95 -16.65 10.95 -19.55 10.95 -21.6 8.9 -23.65 6.8 -23.65 3.9" fill="#a8a8a8" fill-rule="evenodd" stroke="none"/>
      <path d="M-10.9 5.75 Q-11.15 6.85 -11.95 7.6 -18.2 13.05 -22.4 5.75 L-17.8 2.9 Q-17.8 4.0 -17.45 4.8 -17.15 5.55 -16.65 5.55 -16.15 5.55 -15.8 4.8 L-15.5 3.55 -15.45 3.25 -15.5 3.05 -15.5 2.9 -10.9 5.75" fill="#4e4e4e" fill-rule="evenodd" stroke="none"/>
      <path d="M-17.6 2.9 L-17.4 2.75 -16.6 2.55 -15.75 2.75 -15.6 2.9 -15.5 3.05 -15.45 3.25 -15.5 3.55 -15.75 3.75 -16.6 3.95 -17.4 3.75 -17.75 3.25 -17.6 2.9" fill="#999999" fill-rule="evenodd" stroke="none"/>
      <path d="M-17.6 2.9 L-17.75 3.25 -17.4 3.75 -16.6 3.95 -15.75 3.75 -15.5 3.55 -15.8 4.8 Q-16.15 5.55 -16.65 5.55 -17.15 5.55 -17.45 4.8 -17.8 4.0 -17.8 2.9 L-17.6 2.9" fill="#3e3e3e" fill-rule="evenodd" stroke="none"/>
      <path d="M3.9 5.95 L-2.9 4.35 -3.25 5.9 3.55 7.5 3.9 5.95 M4.5 10.15 L-5.5 7.75 -4.4 3.15 5.6 5.55 4.5 10.15" fill="#cccccc" fill-rule="evenodd" stroke="none"/>
      <path d="M3.9 5.95 L3.55 7.5 -3.25 5.9 -2.9 4.35 3.9 5.95" fill="#4e4e4e" fill-rule="evenodd" stroke="none"/>
    </g>
  </defs>
</svg>
