<?xml version="1.0" encoding="UTF-8" standalone="no"?>
<svg xmlns:ffdec="https://www.free-decompiler.com/flash" xmlns:xlink="http://www.w3.org/1999/xlink" ffdec:objectType="frame" height="513.9px" width="383.5px" xmlns="http://www.w3.org/2000/svg">
  <g transform="matrix(1.0, 0.0, 0.0, 1.0, 183.4, 511.25)">
    <use ffdec:characterId="204" height="390.95" transform="matrix(1.0, 0.0, 0.0, 1.0, -152.4, -394.35)" width="334.9" xlink:href="#shape0"/>
  </g>
  <defs>
    <g id="shape0" transform="matrix(1.0, 0.0, 0.0, 1.0, 152.4, 394.35)">
      <path d="M159.35 -265.9 Q157.3 -264.75 154.75 -264.75 153.85 -264.75 152.25 -265.85 L152.25 -265.75 Q152.25 -264.5 153.4 -262.55 L154.0 -261.45 Q152.45 -260.15 151.7 -257.55 151.4 -256.5 151.25 -255.2 L149.85 -253.7 Q148.35 -260.0 144.55 -266.45 138.75 -276.2 131.85 -276.2 129.95 -276.2 126.75 -275.15 123.55 -274.15 121.4 -274.15 L115.25 -273.8 112.35 -271.25 116.05 -271.7 Q118.8 -271.7 124.45 -268.6 131.25 -264.85 132.05 -260.65 132.45 -258.6 135.6 -258.05 139.6 -257.45 140.65 -256.55 L144.55 -252.95 Q144.75 -252.55 144.75 -249.0 L145.35 -246.5 145.55 -245.1 Q142.0 -243.05 142.0 -241.0 L142.2 -239.85 141.95 -239.85 Q135.65 -236.0 125.75 -236.0 L121.3 -236.5 Q123.9 -234.8 129.65 -231.25 L131.45 -230.05 131.15 -230.25 133.1 -226.65 Q134.1 -224.1 134.1 -219.3 134.1 -215.45 131.85 -210.5 L129.6 -205.55 131.25 -203.05 Q132.95 -200.3 133.3 -198.4 134.2 -194.3 135.75 -192.25 138.95 -188.1 137.4 -177.95 L137.4 -171.65 135.05 -167.75 Q131.75 -162.45 131.75 -161.0 131.75 -158.9 127.2 -156.35 123.25 -154.15 121.75 -154.15 L119.7 -154.45 116.05 -149.25 Q111.35 -142.5 109.65 -138.8 L110.85 -136.5 Q110.5 -134.8 110.5 -133.0 110.5 -131.3 114.3 -126.65 106.7 -122.15 100.5 -112.0 L100.5 -111.6 Q101.35 -111.85 105.55 -113.95 108.3 -115.3 111.35 -115.3 118.35 -115.3 121.75 -113.05 125.15 -110.8 129.4 -110.8 130.65 -110.8 132.1 -111.5 L132.5 -111.9 133.85 -113.35 Q140.55 -119.8 143.7 -119.8 144.8 -119.8 147.25 -118.35 149.7 -116.95 150.9 -116.95 L158.25 -119.0 Q162.15 -119.0 164.8 -115.3 167.25 -111.85 167.25 -107.5 167.25 -105.15 166.5 -102.35 165.7 -99.45 165.65 -97.7 170.25 -96.25 172.45 -87.05 173.8 -81.3 173.8 -76.4 173.8 -75.1 173.15 -73.5 171.75 -72.4 170.15 -71.65 168.75 -70.15 166.0 -68.1 160.35 -63.9 157.25 -63.9 149.45 -63.9 143.5 -69.05 142.4 -66.95 137.0 -62.3 L137.0 -61.15 Q137.0 -55.75 131.0 -49.1 125.5 -43.0 118.35 -41.4 L115.15 -37.95 Q104.55 -27.4 95.25 -27.9 85.65 -28.5 79.3 -25.35 75.7 -23.6 69.75 -18.05 63.95 -12.65 59.25 -10.45 51.7 -6.9 40.25 -6.9 36.05 -6.9 34.15 -8.85 23.05 -5.9 7.25 -5.9 L-13.65 -3.4 Q-19.65 -3.4 -21.5 -4.75 -22.3 -6.15 -23.25 -6.15 L-29.2 -4.9 Q-33.9 -3.65 -35.15 -3.65 -47.75 -3.65 -54.65 -11.4 L-55.65 -12.65 -55.8 -12.8 -56.05 -13.15 -56.2 -13.35 -57.15 -14.9 -57.25 -14.8 -58.4 -16.35 -59.9 -17.0 -59.9 -17.9 Q-59.9 -21.25 -63.0 -23.9 -65.25 -25.8 -65.9 -26.75 L-66.15 -27.4 Q-66.15 -28.65 -65.0 -29.8 -63.9 -31.0 -63.9 -32.25 -63.9 -38.75 -74.15 -44.9 -84.35 -51.0 -98.9 -51.95 L-101.85 -52.1 Q-103.05 -53.75 -105.05 -54.7 -111.95 -56.7 -115.9 -58.25 -120.15 -59.95 -123.2 -62.9 -125.55 -73.25 -125.55 -75.15 -125.55 -79.8 -120.8 -81.7 L-117.6 -83.05 Q-116.1 -83.9 -116.1 -85.4 L-116.95 -90.3 Q-116.95 -96.7 -111.2 -101.75 -105.55 -106.7 -98.55 -106.7 L-92.4 -105.05 Q-84.3 -105.05 -80.1 -111.2 -77.85 -114.55 -76.8 -115.45 -74.55 -117.35 -70.9 -117.35 -65.4 -117.35 -58.65 -115.55 -51.6 -113.65 -48.95 -111.2 -51.9 -116.4 -54.15 -118.9 -57.5 -122.55 -62.05 -124.3 L-62.05 -124.25 -63.7 -125.0 Q-67.85 -126.75 -69.85 -126.75 L-80.9 -126.35 Q-83.35 -126.35 -85.2 -124.1 -87.15 -121.85 -89.1 -121.85 -90.95 -121.85 -95.1 -124.35 L-99.85 -127.0 -99.5 -128.7 Q-110.4 -131.3 -116.35 -142.1 L-117.2 -143.75 Q-116.8 -146.05 -115.1 -147.45 -112.85 -149.3 -112.85 -152.35 -112.85 -156.45 -110.95 -159.9 -108.85 -163.8 -105.45 -164.45 -105.5 -165.3 -106.3 -166.9 -107.1 -168.45 -107.1 -169.55 -107.1 -177.6 -99.75 -180.0 -95.85 -181.25 -84.6 -181.25 -83.5 -181.25 -79.7 -180.1 -75.75 -178.95 -75.15 -178.35 L-75.15 -179.6 Q-75.15 -180.1 -77.9 -185.8 L-78.5 -185.95 -77.3 -185.65 Q-76.4 -187.1 -76.4 -188.9 L-77.2 -190.0 Q-76.05 -188.8 -75.5 -186.5 -74.75 -187.7 -75.05 -190.6 L-76.15 -190.15 Q-77.85 -192.6 -77.35 -194.15 -76.4 -195.55 -76.4 -196.65 -76.4 -197.5 -80.15 -204.25 -83.9 -210.95 -83.9 -216.5 -83.9 -218.65 -81.85 -223.6 -79.15 -230.05 -75.4 -231.9 L-78.6 -235.35 -80.4 -235.9 -82.45 -235.4 -86.65 -235.15 -87.1 -235.15 -87.1 -235.9 Q-89.75 -232.1 -94.9 -228.45 -104.45 -221.65 -116.15 -221.65 -125.65 -221.65 -130.15 -226.1 -131.3 -227.25 -131.95 -228.35 L-132.4 -228.45 Q-136.65 -229.45 -136.65 -232.15 -136.65 -233.45 -135.6 -234.35 L-135.4 -234.5 Q-139.1 -235.2 -141.5 -239.9 L-141.5 -240.8 Q-141.5 -247.2 -139.45 -248.8 -137.7 -250.15 -133.3 -251.65 -131.1 -253.25 -129.1 -257.8 -127.1 -262.35 -125.5 -263.55 -117.4 -269.55 -110.8 -269.25 -108.75 -269.15 -107.4 -271.15 L-104.65 -275.0 Q-102.5 -277.05 -97.05 -277.05 -93.95 -277.05 -91.1 -275.4 -87.3 -273.2 -85.5 -272.6 -89.45 -285.25 -105.45 -285.25 -110.35 -285.25 -111.2 -284.4 -115.95 -290.6 -120.2 -293.85 -120.2 -294.25 -120.6 -294.25 -115.05 -298.35 -106.7 -298.35 -102.0 -298.35 -96.25 -295.9 -95.25 -295.9 -93.65 -300.3 -91.5 -306.15 -87.45 -310.2 -85.1 -312.55 -77.45 -314.4 L-76.3 -315.45 Q-73.9 -317.2 -71.25 -317.2 -64.65 -317.2 -60.8 -306.25 -57.75 -297.5 -58.35 -291.4 -53.05 -297.5 -53.05 -304.3 -53.05 -306.9 -53.9 -310.3 -54.8 -314.0 -55.9 -314.7 -54.0 -316.25 -48.8 -317.4 -43.2 -318.65 -41.55 -319.65 -40.45 -317.8 -39.25 -313.4 -37.85 -309.7 -34.6 -308.6 L-35.85 -311.4 Q-36.65 -313.75 -36.65 -314.95 -36.65 -316.85 -35.4 -319.3 L-35.2 -319.65 -36.05 -323.25 -36.65 -327.45 Q-36.65 -332.55 -32.15 -338.5 -27.55 -344.6 -23.35 -344.6 -14.5 -344.6 -13.75 -335.2 L-13.75 -334.4 Q-12.9 -337.9 -8.55 -338.4 L-0.6 -338.9 Q2.4 -339.5 5.9 -341.85 8.8 -343.8 12.05 -343.8 13.95 -343.8 22.55 -341.1 25.95 -343.65 31.25 -346.25 38.0 -349.55 41.75 -349.55 44.85 -349.55 48.65 -347.0 51.75 -344.95 53.0 -343.0 53.65 -341.95 53.85 -339.8 L54.1 -336.15 Q54.65 -331.8 58.75 -331.5 62.1 -331.25 64.25 -329.0 67.2 -325.95 69.4 -324.95 71.8 -323.85 73.25 -320.25 L74.35 -317.6 74.7 -317.6 Q75.25 -317.1 76.2 -315.0 77.2 -312.8 77.2 -311.85 77.2 -308.35 75.35 -305.15 73.25 -301.45 70.2 -301.6 70.2 -301.2 69.8 -301.2 72.1 -300.0 79.4 -300.0 L84.25 -300.35 84.0 -300.0 Q77.95 -290.75 71.25 -290.75 L70.15 -291.0 Q69.45 -281.25 63.7 -280.55 L62.4 -279.35 61.75 -278.8 61.5 -277.5 65.0 -277.0 Q66.3 -275.45 66.4 -273.1 66.45 -271.45 66.1 -268.45 69.45 -268.45 78.0 -265.2 79.25 -265.2 79.6 -266.1 80.05 -267.35 81.3 -268.05 L79.35 -272.0 80.0 -273.5 Q80.0 -274.55 78.35 -278.5 80.05 -279.9 84.3 -288.25 89.25 -298.15 89.25 -300.6 L88.9 -302.7 Q94.35 -309.25 99.7 -311.05 L108.05 -313.45 115.05 -315.15 Q120.1 -315.15 123.3 -312.45 125.6 -310.55 127.9 -306.25 130.95 -300.5 131.85 -299.25 134.45 -295.6 138.2 -294.25 138.65 -294.7 140.7 -295.5 142.7 -296.3 143.3 -296.3 146.75 -296.3 150.5 -293.45 154.6 -290.35 154.6 -286.7 154.6 -284.35 152.95 -278.9 152.95 -278.35 156.3 -272.55 158.9 -268.15 159.15 -265.8 L159.35 -265.9 M10.45 -250.8 L10.45 -251.25 10.95 -251.4 10.45 -250.8 M57.75 -262.5 Q51.4 -266.8 47.25 -266.8 39.65 -266.8 37.05 -262.3 36.15 -260.75 32.3 -259.1 28.65 -257.55 27.65 -255.3 26.05 -256.15 24.55 -256.15 22.1 -256.15 17.3 -254.6 13.55 -253.35 11.75 -252.05 7.9 -252.7 4.35 -251.25 1.45 -250.1 -2.65 -246.7 L-2.65 -252.85 Q-2.2 -261.35 -5.9 -268.1 -10.1 -275.8 -17.4 -275.8 -21.6 -275.8 -27.65 -271.3 -28.75 -270.45 -30.65 -266.55 -32.65 -262.55 -33.4 -261.85 L-37.3 -258.6 Q-39.4 -256.8 -40.75 -254.9 L-43.0 -250.15 Q-44.85 -245.8 -44.85 -244.25 L-42.8 -238.15 Q-42.8 -237.15 -43.2 -236.1 -47.8 -237.4 -52.0 -234.0 -56.3 -230.45 -56.3 -224.85 -56.3 -222.3 -54.5 -218.0 -52.85 -214.1 -51.8 -213.15 -57.1 -210.85 -59.5 -209.45 -63.7 -207.0 -63.7 -202.1 -63.7 -197.9 -62.85 -193.9 -61.6 -188.15 -59.2 -188.15 -57.65 -188.15 -55.7 -189.6 -53.8 -191.05 -51.6 -191.05 L-48.55 -190.6 -48.55 -190.2 Q-52.55 -189.55 -54.8 -184.85 -56.7 -180.95 -56.7 -176.1 -56.7 -171.85 -55.6 -168.9 -53.35 -172.55 -48.8 -181.7 -43.7 -189.65 -36.65 -189.4 -39.55 -196.25 -39.55 -198.2 -38.7 -200.1 -38.7 -201.1 L-39.5 -203.3 Q-40.35 -204.95 -40.35 -206.0 -40.35 -209.45 -34.4 -209.45 -30.7 -209.45 -18.65 -204.15 -17.8 -204.15 -16.15 -205.15 -14.5 -206.2 -13.75 -206.2 -12.7 -206.2 -10.65 -205.15 -8.55 -204.15 -8.0 -204.15 -5.7 -204.15 -2.05 -206.2 1.6 -208.25 3.85 -208.25 8.3 -208.25 12.35 -204.9 18.0 -200.3 19.45 -199.65 10.7 -216.4 1.8 -216.4 L1.5 -216.4 Q1.2 -220.1 1.4 -221.75 2.8 -223.55 4.85 -227.7 7.15 -232.4 8.4 -234.3 13.4 -241.8 22.3 -241.8 24.2 -241.8 26.25 -240.95 28.25 -240.15 29.05 -240.15 L33.0 -242.4 Q37.5 -244.65 40.9 -244.65 L45.1 -243.8 Q47.6 -242.95 48.1 -242.2 47.9 -243.95 50.8 -245.75 53.65 -247.55 56.3 -247.55 61.95 -247.55 69.25 -243.25 75.1 -239.8 78.4 -236.1 L78.4 -237.3 Q78.4 -238.8 76.6 -242.55 74.95 -246.1 73.9 -247.15 72.2 -248.9 68.55 -251.05 65.95 -252.55 65.3 -254.5 64.15 -258.2 57.75 -262.5 M84.15 -132.05 Q84.15 -135.65 81.5 -138.1 L76.35 -141.5 Q74.9 -142.4 71.95 -145.8 69.15 -149.1 67.35 -150.1 66.65 -150.5 64.65 -153.25 L60.5 -158.8 Q54.4 -166.45 49.75 -166.45 45.75 -166.45 35.05 -161.0 25.9 -156.35 22.3 -152.9 L33.15 -152.55 Q37.55 -152.55 44.05 -148.25 50.6 -143.95 53.4 -143.95 L54.8 -143.75 55.1 -143.7 56.45 -144.35 Q58.35 -145.15 59.55 -145.15 62.6 -145.15 67.6 -140.5 L72.25 -135.75 Q79.35 -133.75 82.55 -126.05 L83.35 -128.15 Q84.15 -130.65 84.15 -132.05 M68.95 -176.05 Q66.75 -180.2 68.0 -185.15 62.2 -187.4 58.5 -192.35 56.5 -194.95 55.6 -197.6 55.0 -199.25 54.85 -200.9 54.6 -199.2 54.0 -197.6 52.9 -195.05 50.7 -192.8 46.9 -189.0 42.6 -189.5 43.0 -187.6 42.3 -184.85 41.55 -182.1 40.45 -181.65 L43.35 -179.1 Q45.0 -177.45 45.25 -176.0 L47.85 -176.0 Q55.7 -174.7 61.75 -171.35 66.35 -168.85 69.0 -165.65 L70.65 -163.3 71.05 -163.3 71.2 -165.65 71.5 -171.2 Q71.5 -172.0 70.65 -173.35 L68.95 -176.05 M14.5 -159.05 Q9.05 -164.8 4.9 -164.8 -1.45 -164.8 -7.85 -162.15 -13.4 -159.85 -15.05 -156.75 L-11.7 -157.45 -6.8 -158.25 Q-4.15 -158.25 2.55 -153.85 8.8 -149.8 10.4 -147.65 13.75 -152.25 19.35 -152.85 17.65 -155.75 14.5 -159.05 M17.4 -100.7 Q8.05 -100.7 5.0 -108.6 L5.0 -106.6 Q5.0 -100.65 11.65 -94.3 19.2 -87.05 29.05 -87.55 23.7 -81.9 17.25 -81.9 L13.2 -82.0 7.6 -83.2 7.6 -82.8 Q8.85 -82.2 10.15 -80.65 L12.85 -77.55 10.05 -75.45 6.95 -75.35 2.8 -75.8 Q4.05 -72.6 5.7 -70.95 L7.25 -69.65 14.6 -69.65 Q17.9 -68.8 20.9 -68.8 21.85 -68.8 22.8 -69.3 L24.25 -68.5 Q26.7 -67.45 30.35 -67.45 41.4 -67.45 42.25 -74.45 39.0 -75.25 37.45 -75.9 34.7 -77.0 34.3 -79.25 L40.7 -79.35 Q45.3 -79.75 46.1 -81.9 L41.65 -84.0 Q39.65 -85.3 38.9 -87.5 53.1 -80.55 63.25 -82.7 L63.6 -82.8 59.25 -79.95 Q56.85 -78.55 50.3 -79.45 52.25 -81.45 50.5 -79.7 48.75 -78.0 48.75 -76.65 48.75 -75.15 52.7 -73.6 56.0 -72.3 57.45 -72.3 62.2 -72.3 71.05 -75.8 77.95 -78.5 81.55 -85.85 78.95 -84.95 76.55 -84.95 73.0 -84.95 69.75 -87.15 65.4 -90.15 65.4 -95.7 L67.15 -101.6 67.15 -102.45 Q63.65 -100.7 61.85 -100.7 59.9 -100.7 58.1 -102.2 56.2 -103.85 56.2 -105.95 L50.75 -104.25 46.35 -103.8 Q41.15 -103.8 39.4 -105.75 L35.6 -112.95 35.2 -112.95 Q35.15 -110.95 33.2 -106.9 30.9 -102.05 28.6 -102.05 27.7 -102.05 26.9 -102.9 26.15 -103.8 25.35 -103.8 20.45 -100.7 17.4 -100.7 M30.65 -87.55 L30.65 -87.4 30.4 -85.75 30.5 -86.95 30.65 -87.55 M29.5 -87.6 L29.05 -87.55 29.05 -87.6 29.5 -87.6 M38.7 -88.05 L38.9 -87.5 38.7 -87.6 38.7 -88.05 M16.45 -57.0 Q21.75 -53.45 26.65 -53.45 28.55 -53.45 30.95 -54.95 L34.75 -57.4 34.75 -58.3 Q28.95 -58.35 25.6 -60.05 24.85 -58.8 22.35 -57.9 19.85 -56.95 17.25 -56.95 L16.45 -57.0 M5.9 -32.4 L5.15 -32.2 5.7 -32.6 5.9 -32.4 M22.5 -42.95 L17.25 -42.95 Q14.95 -43.8 8.1 -48.0 3.0 -41.65 -0.05 -41.65 -0.7 -41.65 -3.3 -42.55 L-3.3 -42.1 Q-2.45 -37.15 3.7 -37.3 -0.4 -35.9 -7.0 -32.3 -13.3 -28.95 -20.15 -28.95 L-17.3 -27.75 Q-9.65 -24.6 -7.5 -24.6 -6.2 -24.6 -2.0 -26.1 2.0 -27.5 2.8 -28.1 3.8 -26.4 8.95 -24.9 13.2 -23.7 15.05 -23.7 17.7 -23.7 20.7 -25.75 L26.2 -30.25 Q34.0 -36.85 41.25 -36.85 L44.1 -36.6 43.25 -37.9 41.8 -41.2 Q47.7 -39.8 52.65 -43.35 55.4 -45.3 59.25 -50.4 46.2 -46.05 43.95 -46.05 40.85 -46.05 38.6 -47.75 L34.75 -50.85 Q34.45 -49.4 30.55 -48.3 27.1 -47.3 23.8 -47.3 21.65 -47.3 20.3 -48.3 L17.25 -50.85 18.9 -46.45 Q20.15 -43.7 22.5 -43.4 L22.5 -42.95 M113.85 -76.1 Q111.15 -77.45 109.55 -79.25 L105.75 -75.45 Q103.75 -74.05 100.8 -73.6 L96.15 -73.4 Q93.65 -73.1 92.05 -70.55 90.95 -68.75 89.0 -61.3 L88.55 -59.8 90.1 -60.05 Q92.7 -60.05 98.4 -58.5 104.1 -56.95 106.75 -56.95 108.1 -56.95 109.2 -57.6 110.3 -58.3 111.75 -58.3 111.3 -59.15 111.3 -61.1 111.3 -64.2 114.85 -69.3 L119.2 -74.9 Q116.95 -74.6 113.85 -76.1 M-31.3 -157.1 Q-35.9 -156.9 -38.9 -159.2 -41.95 -162.3 -44.0 -163.75 -44.7 -159.55 -51.3 -156.7 -55.9 -154.75 -61.1 -154.1 -61.1 -152.35 -59.75 -150.0 -59.75 -146.3 -65.45 -141.8 -64.45 -140.8 -62.5 -139.65 -61.1 -138.5 -61.1 -136.35 -61.1 -135.6 -61.8 -133.95 L-57.4 -132.3 -51.45 -129.6 Q-50.1 -131.35 -46.45 -137.15 -42.45 -142.05 -37.4 -142.25 -38.75 -143.6 -38.75 -149.75 -38.75 -152.55 -36.0 -154.45 -35.05 -155.1 -31.3 -156.75 L-31.3 -157.1 M-26.55 -76.65 L-31.6 -76.2 Q-38.3 -76.2 -43.65 -79.25 L-43.65 -77.75 Q-43.65 -74.9 -40.8 -71.45 -37.95 -68.05 -35.1 -67.9 -42.75 -68.15 -50.0 -75.05 -57.1 -81.75 -57.2 -88.05 L-57.65 -88.45 Q-61.5 -86.7 -66.9 -86.7 -67.8 -86.7 -72.7 -88.6 -77.6 -90.5 -78.2 -91.1 -78.2 -91.55 -78.65 -91.55 -79.35 -87.2 -72.0 -82.75 -65.15 -78.65 -59.85 -78.8 -60.45 -76.2 -66.3 -73.25 -71.65 -70.55 -74.55 -70.55 -75.2 -70.55 -76.9 -71.4 -75.45 -68.95 -70.15 -67.3 -65.15 -65.8 -62.9 -66.6 L-62.45 -66.6 Q-65.3 -63.45 -67.55 -61.65 -69.25 -60.25 -70.9 -59.5 -70.05 -57.75 -66.8 -56.7 L-59.4 -55.2 Q-57.35 -54.8 -54.55 -52.5 -52.2 -50.55 -49.7 -50.85 -47.85 -42.4 -45.6 -41.0 -44.5 -40.3 -42.4 -40.25 L-37.5 -40.35 -33.2 -40.8 -30.35 -41.25 Q-32.4 -41.35 -36.0 -43.15 -40.85 -45.6 -43.2 -48.2 L-43.2 -48.65 Q-42.0 -47.45 -39.25 -46.85 L-34.4 -46.85 -33.95 -47.3 Q-36.15 -49.3 -36.2 -50.85 L-28.95 -49.95 -23.9 -50.05 Q-22.1 -50.3 -20.0 -51.7 -20.6 -52.8 -24.55 -55.85 -28.55 -58.85 -29.65 -60.9 -28.8 -60.05 -27.45 -60.05 -24.55 -60.05 -20.1 -66.2 L-15.2 -73.6 Q-17.0 -72.15 -21.65 -73.85 -26.25 -75.5 -26.55 -77.55 L-26.55 -76.65 M-22.85 -69.75 L-22.8 -69.8 -22.6 -69.8 -22.85 -69.75 M-2.9 -50.2 Q-2.9 -52.15 -3.3 -53.05 -3.3 -52.6 -3.75 -52.6 -4.6 -50.25 -10.2 -47.45 -15.65 -44.7 -19.1 -44.7 -20.55 -44.7 -21.3 -45.85 L-21.65 -46.4 -21.4 -45.8 Q-18.35 -39.45 -12.35 -39.45 -2.9 -39.45 -2.9 -50.2 M-62.0 -70.6 L-62.2 -70.45 -62.4 -70.45 -62.0 -70.6 M-5.4 -30.3 L-5.7 -30.2 -5.7 -30.45 -5.4 -30.3" fill="#484848" fill-rule="evenodd" stroke="none"/>
      <path d="M-141.5 -239.9 Q-142.5 -241.95 -143.3 -244.75 -145.9 -253.8 -144.15 -259.0 -150.25 -260.7 -151.85 -266.15 -152.4 -268.1 -152.4 -274.9 -152.4 -282.4 -149.55 -285.35 -148.5 -286.45 -134.9 -295.75 -136.9 -300.9 -136.9 -309.6 -136.9 -311.55 -133.05 -316.6 L-130.2 -320.05 -130.15 -320.5 -130.05 -320.25 Q-127.0 -323.8 -123.15 -327.25 -107.7 -341.25 -95.15 -341.25 -85.3 -341.25 -78.1 -336.7 L-77.1 -336.05 -77.1 -335.8 Q-63.4 -333.95 -57.55 -324.4 L-53.2 -329.0 Q-46.45 -335.75 -45.15 -335.75 L-41.55 -335.6 -42.85 -340.05 Q-44.15 -345.45 -44.65 -351.1 -44.65 -353.55 -38.75 -361.8 -33.4 -369.2 -29.9 -371.5 L-28.75 -371.3 -24.9 -374.55 Q-17.5 -379.85 -8.65 -379.85 -3.8 -379.85 -0.55 -376.6 2.65 -373.35 5.35 -373.35 L5.5 -373.35 Q5.3 -374.2 5.25 -375.0 5.25 -380.4 18.25 -387.4 31.15 -394.35 40.75 -394.35 50.05 -394.35 58.2 -384.1 L58.25 -384.1 Q72.15 -384.1 78.3 -366.5 80.25 -360.85 81.2 -354.05 81.75 -349.95 81.75 -347.75 81.75 -346.5 80.65 -344.55 L81.9 -341.45 Q86.6 -338.4 90.25 -328.0 L90.05 -326.7 92.75 -326.25 Q94.8 -326.25 96.35 -327.15 L96.8 -324.9 97.0 -325.5 Q99.15 -331.7 102.55 -333.95 L102.55 -334.05 Q104.45 -334.25 105.5 -334.85 L107.5 -336.75 Q110.25 -339.5 121.25 -339.5 130.55 -339.5 140.05 -335.75 L141.5 -335.15 144.85 -330.8 Q148.8 -324.95 150.5 -318.55 152.05 -312.75 151.0 -310.0 158.7 -303.75 161.05 -300.55 L161.3 -300.2 Q163.15 -298.2 164.55 -294.55 166.1 -290.45 166.5 -286.1 166.5 -279.55 165.05 -274.5 L164.8 -273.65 164.55 -272.9 159.35 -265.9 159.15 -265.8 Q158.9 -268.15 156.3 -272.55 152.95 -278.35 152.95 -278.9 154.6 -284.35 154.6 -286.7 154.6 -290.35 150.5 -293.45 146.75 -296.3 143.3 -296.3 142.7 -296.3 140.7 -295.5 138.65 -294.7 138.2 -294.25 134.45 -295.6 131.85 -299.25 130.95 -300.5 127.9 -306.25 125.6 -310.55 123.3 -312.45 120.1 -315.15 115.05 -315.15 L108.05 -313.45 99.7 -311.05 Q94.35 -309.25 88.9 -302.7 88.45 -304.7 87.45 -305.95 L84.25 -300.35 79.4 -300.0 Q72.1 -300.0 69.8 -301.2 70.2 -301.2 70.2 -301.6 73.25 -301.45 75.35 -305.15 77.2 -308.35 77.2 -311.85 77.2 -312.8 76.2 -315.0 75.25 -317.1 74.7 -317.6 L74.35 -317.6 73.25 -320.25 Q71.8 -323.85 69.4 -324.95 67.2 -325.95 64.25 -329.0 62.1 -331.25 58.75 -331.5 54.65 -331.8 54.1 -336.15 L53.85 -339.8 Q53.65 -341.95 53.0 -343.0 51.75 -344.95 48.65 -347.0 44.85 -349.55 41.75 -349.55 38.0 -349.55 31.25 -346.25 25.95 -343.65 22.55 -341.1 13.95 -343.8 12.05 -343.8 8.8 -343.8 5.9 -341.85 2.4 -339.5 -0.6 -338.9 L-8.55 -338.4 Q-12.9 -337.9 -13.75 -334.4 L-13.75 -335.2 Q-14.5 -344.6 -23.35 -344.6 -27.55 -344.6 -32.15 -338.5 -36.65 -332.55 -36.65 -327.45 L-36.05 -323.25 -35.2 -319.65 -35.4 -319.3 Q-36.65 -316.85 -36.65 -314.95 -36.65 -313.75 -35.85 -311.4 L-34.6 -308.6 Q-37.85 -309.7 -39.25 -313.4 -40.45 -317.8 -41.55 -319.65 -43.2 -318.65 -48.8 -317.4 -54.0 -316.25 -55.9 -314.7 -54.8 -314.0 -53.9 -310.3 -53.05 -306.9 -53.05 -304.3 -53.05 -297.5 -58.35 -291.4 -57.75 -297.5 -60.8 -306.25 -64.65 -317.2 -71.25 -317.2 -73.9 -317.2 -76.3 -315.45 L-77.45 -314.4 Q-85.1 -312.55 -87.45 -310.2 -91.5 -306.15 -93.65 -300.3 -95.25 -295.9 -96.25 -295.9 -102.0 -298.35 -106.7 -298.35 -115.05 -298.35 -120.6 -294.25 -120.2 -294.25 -120.2 -293.85 -115.95 -290.6 -111.2 -284.4 -110.35 -285.25 -105.45 -285.25 -89.45 -285.25 -85.5 -272.6 -87.3 -273.2 -91.1 -275.4 -93.95 -277.05 -97.05 -277.05 -102.5 -277.05 -104.65 -275.0 L-107.4 -271.15 Q-108.75 -269.15 -110.8 -269.25 -117.4 -269.55 -125.5 -263.55 -127.1 -262.35 -129.1 -257.8 -131.1 -253.25 -133.3 -251.65 -137.7 -250.15 -139.45 -248.8 -141.5 -247.2 -141.5 -240.8 L-141.5 -239.9 M149.85 -253.7 L149.65 -253.5 149.75 -251.9 Q149.75 -249.45 148.8 -247.2 147.7 -246.25 146.2 -245.45 L145.55 -245.1 145.35 -246.5 144.75 -249.0 Q144.75 -252.55 144.55 -252.95 L140.65 -256.55 Q139.6 -257.45 135.6 -258.05 132.45 -258.6 132.05 -260.65 131.25 -264.85 124.45 -268.6 118.8 -271.7 116.05 -271.7 L112.35 -271.25 115.25 -273.8 121.4 -274.15 Q123.55 -274.15 126.75 -275.15 129.95 -276.2 131.85 -276.2 138.75 -276.2 144.55 -266.45 148.35 -260.0 149.85 -253.7 M131.45 -230.05 L143.2 -217.9 143.5 -217.15 Q144.75 -213.85 147.05 -205.2 149.75 -195.0 149.75 -191.65 149.75 -188.85 148.35 -187.2 146.7 -185.15 140.75 -181.4 L140.7 -181.45 140.6 -181.2 Q138.65 -175.7 138.5 -174.15 138.45 -173.6 137.4 -171.65 L137.4 -177.95 Q138.95 -188.1 135.75 -192.25 134.2 -194.3 133.3 -198.4 132.95 -200.3 131.25 -203.05 L129.6 -205.55 131.85 -210.5 Q134.1 -215.45 134.1 -219.3 134.1 -224.1 133.1 -226.65 L131.15 -230.25 131.45 -230.05 M114.3 -126.65 L114.35 -126.55 114.55 -125.85 119.1 -127.85 Q128.8 -131.9 129.75 -131.9 132.7 -131.9 134.65 -131.15 134.5 -132.0 134.5 -133.4 134.5 -135.45 142.25 -138.85 150.25 -142.4 155.75 -142.4 164.35 -142.4 174.3 -117.9 179.25 -105.65 182.5 -93.15 182.5 -87.25 178.75 -80.35 L178.45 -79.75 174.3 -74.45 173.15 -73.5 Q173.8 -75.1 173.8 -76.4 173.8 -81.3 172.45 -87.05 170.25 -96.25 165.65 -97.7 165.7 -99.45 166.5 -102.35 167.25 -105.15 167.25 -107.5 167.25 -111.85 164.8 -115.3 162.15 -119.0 158.25 -119.0 L150.9 -116.95 Q149.7 -116.95 147.25 -118.35 144.8 -119.8 143.7 -119.8 140.55 -119.8 133.85 -113.35 L132.5 -111.9 132.1 -111.5 Q130.65 -110.8 129.4 -110.8 125.15 -110.8 121.75 -113.05 118.35 -115.3 111.35 -115.3 108.3 -115.3 105.55 -113.95 101.35 -111.85 100.5 -111.6 L100.5 -112.0 Q106.7 -122.15 114.3 -126.65 M-123.2 -62.9 Q-125.25 -64.95 -126.75 -67.6 -131.65 -76.4 -131.65 -93.5 -131.65 -101.05 -129.55 -103.85 -128.3 -105.5 -124.9 -106.35 L-124.25 -106.5 Q-126.15 -109.75 -126.15 -114.15 -126.15 -118.7 -123.1 -122.4 -121.15 -124.8 -118.3 -126.05 L-118.6 -128.0 -117.1 -127.6 -115.3 -127.1 -110.15 -127.65 Q-103.5 -127.65 -99.9 -125.8 L-99.9 -126.25 -99.85 -127.0 -95.1 -124.35 Q-90.95 -121.85 -89.1 -121.85 -87.15 -121.85 -85.2 -124.1 -83.35 -126.35 -80.9 -126.35 L-69.85 -126.75 Q-67.85 -126.75 -63.7 -125.0 L-62.05 -124.25 -62.05 -124.3 Q-57.5 -122.55 -54.15 -118.9 -51.9 -116.4 -48.95 -111.2 -51.6 -113.65 -58.65 -115.55 -65.4 -117.35 -70.9 -117.35 -74.55 -117.35 -76.8 -115.45 -77.85 -114.55 -80.1 -111.2 -84.3 -105.05 -92.4 -105.05 L-98.55 -106.7 Q-105.55 -106.7 -111.2 -101.75 -116.95 -96.7 -116.95 -90.3 L-116.1 -85.4 Q-116.1 -83.9 -117.6 -83.05 L-120.8 -81.7 Q-125.55 -79.8 -125.55 -75.15 -125.55 -73.25 -123.2 -62.9 M-117.2 -143.75 L-117.2 -143.7 -117.7 -144.7 -121.15 -158.65 -121.35 -161.55 -121.35 -163.6 -122.4 -167.35 -122.65 -169.5 Q-122.65 -177.4 -119.1 -184.1 -112.95 -195.9 -98.15 -195.9 -91.65 -195.9 -90.15 -193.35 L-89.65 -193.4 Q-84.6 -193.4 -81.9 -189.15 -81.05 -187.8 -80.55 -186.4 L-80.3 -186.35 -78.5 -185.95 -77.9 -185.8 Q-75.15 -180.1 -75.15 -179.6 L-75.15 -178.35 Q-75.75 -178.95 -79.7 -180.1 -83.5 -181.25 -84.6 -181.25 -95.85 -181.25 -99.75 -180.0 -107.1 -177.6 -107.1 -169.55 -107.1 -168.45 -106.3 -166.9 -105.5 -165.3 -105.45 -164.45 -108.85 -163.8 -110.95 -159.9 -112.85 -156.45 -112.85 -152.35 -112.85 -149.3 -115.1 -147.45 -116.8 -146.05 -117.2 -143.75 M79.35 -272.0 L81.3 -268.05 Q80.05 -267.35 79.6 -266.1 79.25 -265.2 78.0 -265.2 69.45 -268.45 66.1 -268.45 66.45 -271.45 66.4 -273.1 66.3 -275.45 65.0 -277.0 66.95 -276.3 68.15 -274.6 69.8 -272.2 69.25 -271.0 L73.25 -270.35 77.1 -269.5 77.2 -269.6 78.3 -270.75 79.35 -272.0 M57.75 -262.5 Q64.15 -258.2 65.3 -254.5 65.95 -252.55 68.55 -251.05 72.2 -248.9 73.9 -247.15 74.95 -246.1 76.6 -242.55 78.4 -238.8 78.4 -237.3 L78.4 -236.1 Q75.1 -239.8 69.25 -243.25 61.95 -247.55 56.3 -247.55 53.65 -247.55 50.8 -245.75 47.9 -243.95 48.1 -242.2 47.6 -242.95 45.1 -243.8 L40.9 -244.65 Q37.5 -244.65 33.0 -242.4 L29.05 -240.15 Q28.25 -240.15 26.25 -240.95 24.2 -241.8 22.3 -241.8 13.4 -241.8 8.4 -234.3 7.15 -232.4 4.85 -227.7 2.8 -223.55 1.4 -221.75 1.2 -220.1 1.5 -216.4 L1.8 -216.4 Q10.7 -216.4 19.45 -199.65 18.0 -200.3 12.35 -204.9 8.3 -208.25 3.85 -208.25 1.6 -208.25 -2.05 -206.2 -5.7 -204.15 -8.0 -204.15 -8.55 -204.15 -10.65 -205.15 -12.7 -206.2 -13.75 -206.2 -14.5 -206.2 -16.15 -205.15 -17.8 -204.15 -18.65 -204.15 -30.7 -209.45 -34.4 -209.45 -40.35 -209.45 -40.35 -206.0 -40.35 -204.95 -39.5 -203.3 L-38.7 -201.1 Q-38.7 -200.1 -39.55 -198.2 -39.55 -196.25 -36.65 -189.4 -43.7 -189.65 -48.8 -181.7 -53.35 -172.55 -55.6 -168.9 -56.7 -171.85 -56.7 -176.1 -56.7 -180.95 -54.8 -184.85 -52.55 -189.55 -48.55 -190.2 L-48.55 -190.6 -51.6 -191.05 Q-53.8 -191.05 -55.7 -189.6 -57.65 -188.15 -59.2 -188.15 -61.6 -188.15 -62.85 -193.9 -63.7 -197.9 -63.7 -202.1 -63.7 -207.0 -59.5 -209.45 -57.1 -210.85 -51.8 -213.15 -52.85 -214.1 -54.5 -218.0 -56.3 -222.3 -56.3 -224.85 -56.3 -230.45 -52.0 -234.0 -47.8 -237.4 -43.2 -236.1 -42.8 -237.15 -42.8 -238.15 L-44.85 -244.25 Q-44.85 -245.8 -43.0 -250.15 L-40.75 -254.9 Q-39.4 -256.8 -37.3 -258.6 L-33.4 -261.85 Q-32.65 -262.55 -30.65 -266.55 -28.75 -270.45 -27.65 -271.3 -21.6 -275.8 -17.4 -275.8 -10.1 -275.8 -5.9 -268.1 -2.2 -261.35 -2.65 -252.85 L-2.65 -246.7 Q1.45 -250.1 4.35 -251.25 7.9 -252.7 11.75 -252.05 13.55 -253.35 17.3 -254.6 22.1 -256.15 24.55 -256.15 26.05 -256.15 27.65 -255.3 28.65 -257.55 32.3 -259.1 36.15 -260.75 37.05 -262.3 39.65 -266.8 47.25 -266.8 51.4 -266.8 57.75 -262.5 M10.45 -250.8 L10.95 -251.4 10.45 -251.25 10.45 -250.8 M84.15 -132.05 Q84.15 -130.65 83.35 -128.15 L82.55 -126.05 Q79.35 -133.75 72.25 -135.75 L67.6 -140.5 Q62.6 -145.15 59.55 -145.15 58.35 -145.15 56.45 -144.35 L55.1 -143.7 54.8 -143.75 53.4 -143.95 Q50.6 -143.95 44.05 -148.25 37.55 -152.55 33.15 -152.55 L22.3 -152.9 Q25.9 -156.35 35.05 -161.0 45.75 -166.45 49.75 -166.45 54.4 -166.45 60.5 -158.8 L64.65 -153.25 Q66.65 -150.5 67.35 -150.1 69.15 -149.1 71.95 -145.8 74.9 -142.4 76.35 -141.5 L81.5 -138.1 Q84.15 -135.65 84.15 -132.05 M14.5 -159.05 Q17.65 -155.75 19.35 -152.85 13.75 -152.25 10.4 -147.65 8.8 -149.8 2.55 -153.85 -4.15 -158.25 -6.8 -158.25 L-11.7 -157.45 -15.05 -156.75 Q-13.4 -159.85 -7.85 -162.15 -1.45 -164.8 4.9 -164.8 9.05 -164.8 14.5 -159.05" fill="#666666" fill-rule="evenodd" stroke="none"/>
      <path d="M66.5 -175.1 Q68.95 -170.75 68.95 -169.7 L68.95 -168.7 Q63.2 -174.45 58.05 -175.25 55.35 -175.7 50.65 -177.1 48.15 -177.85 46.9 -178.35 L46.75 -178.4 Q46.35 -179.5 45.45 -180.1 L43.8 -181.4 Q45.35 -182.6 44.9 -186.4 46.9 -186.1 50.1 -187.2 53.35 -188.35 54.5 -189.9 55.15 -187.9 58.95 -184.55 63.05 -181.0 64.8 -181.85 64.25 -179.15 66.5 -175.1 M63.05 -175.5 L62.6 -178.55 Q52.9 -181.35 53.0 -185.35 50.5 -184.1 47.3 -182.9 48.25 -181.85 48.4 -180.2 L49.55 -179.6 Q51.75 -178.35 53.2 -178.1 60.3 -176.85 62.7 -175.5 L63.05 -175.5 M34.8 -102.2 Q32.4 -98.15 30.5 -97.0 28.6 -95.85 24.4 -95.85 22.65 -95.85 21.9 -96.7 20.45 -95.0 17.95 -93.95 19.15 -93.45 20.95 -93.0 24.45 -92.15 26.9 -92.15 29.4 -92.15 32.4 -94.1 33.25 -92.85 35.35 -91.9 37.25 -91.05 38.85 -91.05 41.55 -91.05 41.8 -92.15 43.95 -89.9 49.65 -88.3 54.05 -87.1 56.25 -87.1 L61.5 -87.75 Q59.75 -88.05 59.75 -92.25 59.75 -93.7 60.6 -94.95 59.8 -94.3 58.3 -94.3 53.6 -94.3 50.55 -99.15 L44.4 -98.25 Q42.15 -98.25 38.5 -100.0 35.45 -101.5 34.8 -102.2 M30.65 -87.55 Q30.25 -89.5 30.2 -90.6 29.45 -89.7 27.0 -89.7 24.4 -89.7 22.7 -90.65 20.95 -91.6 17.7 -92.8 14.4 -94.0 10.45 -98.9 18.6 -96.0 20.0 -96.4 21.35 -96.8 22.3 -99.15 L26.8 -98.25 Q29.7 -98.25 32.3 -101.0 34.6 -103.4 35.65 -106.8 36.05 -104.75 38.7 -102.45 41.65 -99.8 44.85 -99.8 46.95 -99.8 50.0 -100.85 L54.25 -102.4 Q54.05 -100.45 56.7 -98.55 59.35 -96.7 62.25 -96.7 L64.1 -96.95 Q62.6 -92.25 62.6 -91.05 62.6 -90.0 63.2 -87.95 L63.8 -86.2 55.7 -85.35 Q52.2 -85.35 47.35 -87.5 L43.2 -89.7 Q40.55 -88.85 39.05 -88.85 34.35 -88.85 32.4 -91.25 L32.4 -89.95 Q32.4 -86.9 35.1 -84.85 37.35 -83.15 40.5 -82.7 36.95 -80.2 31.05 -80.55 29.5 -78.15 32.7 -75.45 36.25 -72.45 39.15 -72.65 33.25 -70.05 31.4 -70.05 28.3 -70.05 25.65 -71.35 L23.3 -72.65 21.0 -72.2 Q19.25 -72.2 17.65 -72.75 L15.5 -73.45 16.6 -74.1 18.8 -76.8 Q15.3 -78.3 13.55 -79.45 L13.35 -79.9 14.65 -79.9 18.8 -79.45 Q22.65 -79.45 26.3 -81.2 29.5 -82.7 30.4 -85.75 L30.65 -87.4 30.65 -87.55 M65.0 -79.65 L66.75 -79.2 Q67.95 -79.2 71.1 -80.55 L67.15 -81.4 65.0 -79.65 M75.7 -82.3 L75.9 -82.3 Q74.3 -79.5 67.6 -78.05 62.15 -76.85 59.25 -77.35 63.65 -79.0 67.6 -84.05 69.25 -81.65 73.25 -81.65 74.8 -81.65 75.7 -82.3 M28.45 -78.7 Q28.45 -79.75 28.9 -80.55 L28.65 -80.55 25.15 -79.05 Q22.4 -78.0 20.55 -78.35 L20.55 -78.15 21.45 -77.4 Q21.45 -76.05 19.85 -74.95 20.95 -73.1 25.35 -73.1 L32.8 -73.1 Q28.45 -77.45 28.45 -78.7 M26.7 -57.55 L30.65 -56.45 Q30.4 -56.25 28.45 -55.8 L25.8 -55.35 23.95 -55.6 24.75 -55.95 Q26.1 -56.65 26.7 -57.55 M5.9 -32.4 L7.95 -30.8 10.8 -30.65 Q19.65 -30.65 23.0 -34.35 24.4 -35.95 28.9 -37.0 31.15 -37.55 36.1 -39.6 33.15 -41.05 33.05 -43.1 L32.6 -43.1 Q31.6 -42.0 26.95 -39.95 21.8 -37.65 19.15 -37.65 18.0 -37.65 15.6 -38.5 12.95 -39.5 12.5 -40.3 12.35 -38.0 9.5 -35.1 7.45 -33.05 5.9 -32.4 L5.7 -32.6 5.15 -32.2 5.9 -32.4 M40.05 -39.85 Q38.0 -37.5 32.55 -36.2 26.95 -34.85 26.05 -33.95 22.45 -30.25 18.4 -29.0 15.4 -28.05 10.25 -28.05 7.65 -28.05 4.75 -29.0 L1.95 -30.0 Q-0.7 -29.1 -2.3 -29.1 L-3.35 -29.5 Q-0.05 -30.45 2.7 -31.8 9.8 -35.3 11.15 -40.95 10.75 -40.3 7.75 -40.3 L2.85 -41.35 Q8.35 -41.65 10.05 -44.65 14.15 -40.7 20.2 -40.7 23.8 -40.7 28.65 -43.1 31.1 -44.35 33.25 -45.55 35.9 -45.55 36.2 -44.45 36.8 -42.25 39.85 -40.05 L40.05 -39.85 M110.5 -77.05 Q111.1 -76.1 112.45 -74.9 114.1 -73.5 115.1 -73.55 L115.1 -73.3 Q112.75 -72.05 110.85 -68.85 108.95 -65.55 108.95 -62.4 108.95 -61.9 109.2 -61.7 105.35 -59.75 103.9 -59.75 L98.35 -60.35 Q94.55 -61.0 93.65 -61.5 L93.85 -61.5 95.85 -61.05 Q97.15 -61.05 97.9 -61.65 L100.0 -63.9 99.8 -63.9 Q99.25 -63.45 98.65 -63.45 97.5 -63.45 95.6 -64.8 93.65 -66.25 93.65 -67.3 L93.75 -67.7 94.15 -67.45 95.95 -67.4 Q99.3 -67.4 104.25 -70.6 109.35 -73.9 110.5 -77.05 M108.55 -70.7 L108.55 -71.35 Q108.05 -69.5 105.35 -67.95 103.4 -66.85 101.7 -66.7 L102.45 -65.55 Q103.2 -64.55 104.05 -64.55 107.45 -64.55 108.55 -70.7 M-38.45 -155.8 L-40.5 -153.0 Q-41.1 -151.85 -41.1 -149.0 L-40.85 -145.05 Q-43.85 -144.75 -47.8 -140.4 -51.75 -136.1 -52.05 -133.05 -52.2 -133.6 -54.6 -134.8 L-57.05 -135.9 -56.85 -136.85 Q-56.85 -138.0 -57.5 -139.0 L-58.8 -141.15 Q-57.45 -141.7 -56.2 -144.5 -54.75 -147.8 -55.75 -150.55 -44.2 -151.4 -42.6 -158.2 -39.65 -156.75 -38.45 -155.8 M-43.05 -146.8 Q-44.1 -147.95 -43.5 -151.4 -44.0 -149.95 -47.05 -148.35 -49.9 -146.9 -51.6 -146.8 -53.05 -146.75 -54.25 -144.35 L-55.95 -141.15 Q-53.3 -138.2 -52.8 -136.35 -51.4 -139.9 -49.0 -142.8 -45.6 -146.9 -43.05 -146.8 M-22.85 -69.75 L-22.6 -69.8 -22.8 -69.8 -22.85 -69.75 Q-24.6 -69.5 -26.95 -70.55 L-30.25 -71.8 Q-27.2 -69.4 -27.2 -69.15 -27.2 -68.4 -27.65 -68.05 L-28.95 -67.2 Q-25.65 -67.4 -22.85 -69.75 M-30.25 -68.7 L-30.25 -69.6 Q-31.85 -68.7 -32.2 -68.7 -34.65 -68.7 -37.25 -70.5 L-39.6 -72.65 -37.9 -72.45 Q-35.3 -72.45 -30.05 -73.95 -29.55 -73.95 -26.7 -72.55 -23.85 -71.15 -22.05 -71.15 L-19.1 -71.35 Q-21.9 -65.2 -30.8 -65.2 L-31.55 -65.2 Q-30.25 -67.05 -30.25 -68.7 M-35.5 -65.45 L-35.05 -65.45 Q-35.1 -61.05 -32.3 -57.8 -29.85 -54.95 -26.1 -53.85 -28.9 -52.3 -30.9 -52.3 L-43.6 -53.85 Q-43.55 -52.9 -42.45 -51.9 -41.5 -51.0 -40.95 -51.0 L-42.05 -51.0 -42.4 -51.0 Q-45.85 -51.45 -49.25 -53.05 L-54.55 -55.8 Q-58.3 -57.55 -66.35 -59.95 L-66.55 -60.2 Q-60.1 -61.95 -57.15 -69.6 -57.5 -69.1 -59.1 -68.55 L-61.55 -68.05 Q-66.45 -68.05 -68.1 -70.7 -65.95 -70.8 -61.55 -72.0 -60.3 -72.1 -58.75 -72.9 -57.1 -74.65 -56.7 -77.05 -51.5 -69.55 -48.6 -67.35 -45.2 -64.8 -39.55 -64.8 -36.0 -64.8 -35.5 -65.45 M-31.55 -54.5 Q-33.5 -55.05 -35.65 -57.45 -38.1 -60.3 -37.45 -62.8 L-42.2 -62.35 Q-45.65 -62.35 -50.9 -66.35 -55.2 -69.6 -55.6 -71.35 L-55.6 -71.15 Q-55.6 -66.2 -55.95 -65.15 -56.7 -63.0 -59.45 -61.4 L-52.05 -55.85 Q-49.55 -54.3 -44.6 -54.3 L-34.5 -54.05 -31.55 -54.5 M-62.0 -70.6 L-62.4 -70.45 -62.2 -70.45 -62.0 -70.6 M-7.5 -43.85 Q-9.7 -42.05 -11.95 -42.05 L-14.65 -42.45 Q-15.8 -42.8 -16.2 -43.15 -13.7 -43.4 -10.6 -44.6 -6.95 -46.05 -5.45 -47.7 L-5.45 -47.95 Q-5.15 -45.8 -7.5 -43.85" fill="#ffcc00" fill-rule="evenodd" stroke="none"/>
      <path d="M63.05 -175.5 L62.7 -175.5 Q60.3 -176.85 53.2 -178.1 51.75 -178.35 49.55 -179.6 L48.4 -180.2 Q48.25 -181.85 47.3 -182.9 50.5 -184.1 53.0 -185.35 52.9 -181.35 62.6 -178.55 L63.05 -175.5 M34.8 -99.35 L34.55 -99.15 31.3 -96.0 Q32.15 -95.25 33.95 -94.3 36.55 -93.0 38.3 -93.0 38.85 -93.0 42.0 -94.1 L44.6 -92.6 Q47.35 -91.05 48.8 -90.8 53.0 -90.1 57.1 -88.85 L56.65 -90.6 Q57.35 -92.1 57.35 -93.0 54.6 -93.0 52.0 -94.1 48.9 -95.4 48.15 -97.6 L45.95 -96.55 43.55 -96.5 Q41.8 -96.5 38.65 -97.4 35.2 -98.4 34.8 -99.35 M34.8 -102.2 Q35.45 -101.5 38.5 -100.0 42.15 -98.25 44.4 -98.25 L50.55 -99.15 Q53.6 -94.3 58.3 -94.3 59.8 -94.3 60.6 -94.95 59.75 -93.7 59.75 -92.25 59.75 -88.05 61.5 -87.75 L56.25 -87.1 Q54.05 -87.1 49.65 -88.3 43.95 -89.9 41.8 -92.15 41.55 -91.05 38.85 -91.05 37.25 -91.05 35.35 -91.9 33.25 -92.85 32.4 -94.1 29.4 -92.15 26.9 -92.15 24.45 -92.15 20.95 -93.0 19.15 -93.45 17.95 -93.95 20.45 -95.0 21.9 -96.7 22.65 -95.85 24.4 -95.85 28.6 -95.85 30.5 -97.0 32.4 -98.15 34.8 -102.2 M65.0 -79.65 L67.15 -81.4 71.1 -80.55 Q67.95 -79.2 66.75 -79.2 L65.0 -79.65 M28.45 -78.7 Q28.45 -77.45 32.8 -73.1 L25.35 -73.1 Q20.95 -73.1 19.85 -74.95 21.45 -76.05 21.45 -77.4 L20.55 -78.15 20.55 -78.35 Q22.4 -78.0 25.15 -79.05 L28.65 -80.55 28.9 -80.55 Q28.45 -79.75 28.45 -78.7 M5.9 -32.4 Q7.45 -33.05 9.5 -35.1 12.35 -38.0 12.5 -40.3 12.95 -39.5 15.6 -38.5 18.0 -37.65 19.15 -37.65 21.8 -37.65 26.95 -39.95 31.6 -42.0 32.6 -43.1 L33.05 -43.1 Q33.15 -41.05 36.1 -39.6 31.15 -37.55 28.9 -37.0 24.4 -35.95 23.0 -34.35 19.65 -30.65 10.8 -30.65 L7.95 -30.8 5.9 -32.4 M10.45 -33.35 L12.35 -32.85 Q18.0 -32.85 22.1 -36.8 20.45 -36.1 18.45 -36.1 L15.65 -36.7 Q13.75 -37.3 13.35 -37.65 13.45 -36.35 10.45 -33.35 M108.55 -70.7 Q107.45 -64.55 104.05 -64.55 103.2 -64.55 102.45 -65.55 L101.7 -66.7 Q103.4 -66.85 105.35 -67.95 108.05 -69.5 108.55 -71.35 L108.55 -70.7 M-43.05 -146.8 Q-45.6 -146.9 -49.0 -142.8 -51.4 -139.9 -52.8 -136.35 -53.3 -138.2 -55.95 -141.15 L-54.25 -144.35 Q-53.05 -146.75 -51.6 -146.8 -49.9 -146.9 -47.05 -148.35 -44.0 -149.95 -43.5 -151.4 -44.1 -147.95 -43.05 -146.8 M-22.85 -69.75 Q-25.65 -67.4 -28.95 -67.2 L-27.65 -68.05 Q-27.2 -68.4 -27.2 -69.15 -27.2 -69.4 -30.25 -71.8 L-26.95 -70.55 Q-24.6 -69.5 -22.85 -69.75 M-31.55 -54.5 L-34.5 -54.05 -44.6 -54.3 Q-49.55 -54.3 -52.05 -55.85 L-59.45 -61.4 Q-56.7 -63.0 -55.95 -65.15 -55.6 -66.2 -55.6 -71.15 L-55.6 -71.35 Q-55.2 -69.6 -50.9 -66.35 -45.65 -62.35 -42.2 -62.35 L-37.45 -62.8 Q-38.1 -60.3 -35.65 -57.45 -33.5 -55.05 -31.55 -54.5 M-36.8 -57.1 L-37.05 -57.35 Q-38.0 -57.35 -38.95 -58.7 -39.95 -60.1 -39.85 -61.3 -41.55 -60.2 -44.9 -60.2 -51.75 -60.2 -53.0 -65.45 -53.05 -62.7 -54.75 -61.5 L-54.95 -61.35 Q-54.9 -58.65 -48.6 -57.1 -44.3 -56.05 -41.2 -56.05 -38.35 -56.05 -36.8 -57.1" fill="#ffff00" fill-rule="evenodd" stroke="none"/>
      <path d="M66.5 -175.1 Q64.25 -179.15 64.8 -181.85 63.05 -181.0 58.95 -184.55 55.15 -187.9 54.5 -189.9 53.35 -188.35 50.1 -187.2 46.9 -186.1 44.9 -186.4 45.35 -182.6 43.8 -181.4 L45.45 -180.1 Q46.35 -179.5 46.75 -178.4 L46.9 -178.35 Q48.15 -177.85 50.65 -177.1 55.35 -175.7 58.05 -175.25 63.2 -174.45 68.95 -168.7 L68.95 -169.7 Q68.95 -170.75 66.5 -175.1 M68.95 -176.05 L70.65 -173.35 Q71.5 -172.0 71.5 -171.2 L71.2 -165.65 71.05 -163.3 70.65 -163.3 69.0 -165.65 Q66.35 -168.85 61.75 -171.35 55.7 -174.7 47.85 -176.0 L45.25 -176.0 Q45.0 -177.45 43.35 -179.1 L40.45 -181.65 Q41.55 -182.1 42.3 -184.85 43.0 -187.6 42.6 -189.5 46.9 -189.0 50.7 -192.8 52.9 -195.05 54.0 -197.6 54.6 -199.2 54.85 -200.9 55.0 -199.25 55.6 -197.6 56.5 -194.95 58.5 -192.35 62.2 -187.4 68.0 -185.15 66.75 -180.2 68.95 -176.05 M17.4 -100.7 Q20.45 -100.7 25.35 -103.8 26.15 -103.8 26.9 -102.9 27.7 -102.05 28.6 -102.05 30.9 -102.05 33.2 -106.9 35.15 -110.95 35.2 -112.95 L35.6 -112.95 39.4 -105.75 Q41.15 -103.8 46.35 -103.8 L50.75 -104.25 56.2 -105.95 Q56.2 -103.85 58.1 -102.2 59.9 -100.7 61.85 -100.7 63.65 -100.7 67.15 -102.45 L67.15 -101.6 65.4 -95.7 Q65.4 -90.15 69.75 -87.15 73.0 -84.95 76.55 -84.95 78.95 -84.95 81.55 -85.85 77.95 -78.5 71.05 -75.8 62.2 -72.3 57.45 -72.3 56.0 -72.3 52.7 -73.6 48.75 -75.15 48.75 -76.65 48.75 -78.0 50.5 -79.7 52.25 -81.45 50.3 -79.45 56.85 -78.55 59.25 -79.95 L63.6 -82.8 63.25 -82.7 Q53.1 -80.55 38.9 -87.5 39.65 -85.3 41.65 -84.0 L46.1 -81.9 Q45.3 -79.75 40.7 -79.35 L34.3 -79.25 Q34.7 -77.0 37.45 -75.9 39.0 -75.25 42.25 -74.45 41.4 -67.45 30.35 -67.45 26.7 -67.45 24.25 -68.5 L22.8 -69.3 Q21.85 -68.8 20.9 -68.8 17.9 -68.8 14.6 -69.65 L7.25 -69.65 5.7 -70.95 Q4.05 -72.6 2.8 -75.8 L6.95 -75.35 10.05 -75.45 12.85 -77.55 10.15 -80.65 Q8.85 -82.2 7.6 -82.8 L7.6 -83.2 13.2 -82.0 17.25 -81.9 Q23.7 -81.9 29.05 -87.55 19.2 -87.05 11.65 -94.3 5.0 -100.65 5.0 -106.6 L5.0 -108.6 Q8.05 -100.7 17.4 -100.7 M30.4 -85.75 Q29.5 -82.7 26.3 -81.2 22.65 -79.45 18.8 -79.45 L14.65 -79.9 13.35 -79.9 13.55 -79.45 Q15.3 -78.3 18.8 -76.8 L16.6 -74.1 15.5 -73.45 17.65 -72.75 Q19.25 -72.2 21.0 -72.2 L23.3 -72.65 25.65 -71.35 Q28.3 -70.05 31.4 -70.05 33.25 -70.05 39.15 -72.65 36.25 -72.45 32.7 -75.45 29.5 -78.15 31.05 -80.55 36.95 -80.2 40.5 -82.7 37.35 -83.15 35.1 -84.85 32.4 -86.9 32.4 -89.95 L32.4 -91.25 Q34.35 -88.85 39.05 -88.85 40.55 -88.85 43.2 -89.7 L47.35 -87.5 Q52.2 -85.35 55.7 -85.35 L63.8 -86.2 63.2 -87.95 Q62.6 -90.0 62.6 -91.05 62.6 -92.25 64.1 -96.95 L62.25 -96.7 Q59.35 -96.7 56.7 -98.55 54.05 -100.45 54.25 -102.4 L50.0 -100.85 Q46.95 -99.8 44.85 -99.8 41.65 -99.8 38.7 -102.45 36.05 -104.75 35.65 -106.8 34.6 -103.4 32.3 -101.0 29.7 -98.25 26.8 -98.25 L22.3 -99.15 Q21.35 -96.8 20.0 -96.4 18.6 -96.0 10.45 -98.9 14.4 -94.0 17.7 -92.8 20.95 -91.6 22.7 -90.65 24.4 -89.7 27.0 -89.7 29.45 -89.7 30.2 -90.6 30.25 -89.5 30.65 -87.55 L30.5 -86.95 30.4 -85.75 M75.7 -82.3 Q74.8 -81.65 73.25 -81.65 69.25 -81.65 67.6 -84.05 63.65 -79.0 59.25 -77.35 62.15 -76.85 67.6 -78.05 74.3 -79.5 75.9 -82.3 L75.7 -82.3 M38.7 -88.05 L38.7 -87.6 38.9 -87.5 38.7 -88.05 M29.5 -87.6 L29.05 -87.6 29.05 -87.55 29.5 -87.6 M16.45 -57.0 L17.25 -56.95 Q19.85 -56.95 22.35 -57.9 24.85 -58.8 25.6 -60.05 28.95 -58.35 34.75 -58.3 L34.75 -57.4 30.95 -54.95 Q28.55 -53.45 26.65 -53.45 21.75 -53.45 16.45 -57.0 M26.7 -57.55 Q26.1 -56.65 24.75 -55.95 L23.95 -55.6 25.8 -55.35 28.45 -55.8 Q30.4 -56.25 30.65 -56.45 L26.7 -57.55 M40.05 -39.85 L39.85 -40.05 Q36.8 -42.25 36.2 -44.45 35.9 -45.55 33.25 -45.55 31.1 -44.35 28.65 -43.1 23.8 -40.7 20.2 -40.7 14.15 -40.7 10.05 -44.65 8.35 -41.65 2.85 -41.35 L7.75 -40.3 Q10.75 -40.3 11.15 -40.95 9.8 -35.3 2.7 -31.8 -0.05 -30.45 -3.35 -29.5 L-2.3 -29.1 Q-0.7 -29.1 1.95 -30.0 L4.75 -29.0 Q7.65 -28.05 10.25 -28.05 15.4 -28.05 18.4 -29.0 22.45 -30.25 26.05 -33.95 26.95 -34.85 32.55 -36.2 38.0 -37.5 40.05 -39.85 M22.5 -42.95 L22.5 -43.4 Q20.15 -43.7 18.9 -46.45 L17.25 -50.85 20.3 -48.3 Q21.65 -47.3 23.8 -47.3 27.1 -47.3 30.55 -48.3 34.45 -49.4 34.75 -50.85 L38.6 -47.75 Q40.85 -46.05 43.95 -46.05 46.2 -46.05 59.25 -50.4 55.4 -45.3 52.65 -43.35 47.7 -39.8 41.8 -41.2 L43.25 -37.9 44.1 -36.6 41.25 -36.85 Q34.0 -36.85 26.2 -30.25 L20.7 -25.75 Q17.7 -23.7 15.05 -23.7 13.2 -23.7 8.95 -24.9 3.8 -26.4 2.8 -28.1 2.0 -27.5 -2.0 -26.1 -6.2 -24.6 -7.5 -24.6 -9.65 -24.6 -17.3 -27.75 L-20.15 -28.95 Q-13.3 -28.95 -7.0 -32.3 -0.4 -35.9 3.7 -37.3 -2.45 -37.15 -3.3 -42.1 L-3.3 -42.55 Q-0.7 -41.65 -0.05 -41.65 3.0 -41.65 8.1 -48.0 14.95 -43.8 17.25 -42.95 L22.5 -42.95 M110.5 -77.05 Q109.35 -73.9 104.25 -70.6 99.3 -67.4 95.95 -67.4 L94.15 -67.45 93.75 -67.7 93.65 -67.3 Q93.65 -66.25 95.6 -64.8 97.5 -63.45 98.65 -63.45 99.25 -63.45 99.8 -63.9 L100.0 -63.9 97.9 -61.65 Q97.15 -61.05 95.85 -61.05 L93.85 -61.5 93.65 -61.5 Q94.55 -61.0 98.35 -60.35 L103.9 -59.75 Q105.35 -59.75 109.2 -61.7 108.95 -61.9 108.95 -62.4 108.95 -65.55 110.85 -68.85 112.75 -72.05 115.1 -73.3 L115.1 -73.55 Q114.1 -73.5 112.45 -74.9 111.1 -76.1 110.5 -77.05 M113.85 -76.1 Q116.95 -74.6 119.2 -74.9 L114.85 -69.3 Q111.3 -64.2 111.3 -61.1 111.3 -59.15 111.75 -58.3 110.3 -58.3 109.2 -57.6 108.1 -56.95 106.75 -56.95 104.1 -56.95 98.4 -58.5 92.7 -60.05 90.1 -60.05 L88.55 -59.8 89.0 -61.3 Q90.95 -68.75 92.05 -70.55 93.65 -73.1 96.15 -73.4 L100.8 -73.6 Q103.75 -74.05 105.75 -75.45 L109.55 -79.25 Q111.15 -77.45 113.85 -76.1 M-38.45 -155.8 Q-39.65 -156.75 -42.6 -158.2 -44.2 -151.4 -55.75 -150.55 -54.75 -147.8 -56.2 -144.5 -57.45 -141.7 -58.8 -141.15 L-57.5 -139.0 Q-56.85 -138.0 -56.85 -136.85 L-57.05 -135.9 -54.6 -134.8 Q-52.2 -133.6 -52.05 -133.05 -51.75 -136.1 -47.8 -140.4 -43.85 -144.75 -40.85 -145.05 L-41.1 -149.0 Q-41.1 -151.85 -40.5 -153.0 L-38.45 -155.8 M-31.3 -157.1 L-31.3 -156.75 Q-35.05 -155.1 -36.0 -154.45 -38.75 -152.55 -38.75 -149.75 -38.75 -143.6 -37.4 -142.25 -42.45 -142.05 -46.45 -137.15 -50.1 -131.35 -51.45 -129.6 L-57.4 -132.3 -61.8 -133.95 Q-61.1 -135.6 -61.1 -136.35 -61.1 -138.5 -62.5 -139.65 -64.45 -140.8 -65.45 -141.8 -59.75 -146.3 -59.75 -150.0 -61.1 -152.35 -61.1 -154.1 -55.9 -154.75 -51.3 -156.7 -44.7 -159.55 -44.0 -163.75 -41.95 -162.3 -38.9 -159.2 -35.9 -156.9 -31.3 -157.1 M-26.55 -76.65 L-26.55 -77.55 Q-26.25 -75.5 -21.65 -73.85 -17.0 -72.15 -15.2 -73.6 L-20.1 -66.2 Q-24.55 -60.05 -27.45 -60.05 -28.8 -60.05 -29.65 -60.9 -28.55 -58.85 -24.55 -55.85 -20.6 -52.8 -20.0 -51.7 -22.1 -50.3 -23.9 -50.05 L-28.95 -49.95 -36.2 -50.85 Q-36.15 -49.3 -33.95 -47.3 L-34.4 -46.85 -39.25 -46.85 Q-42.0 -47.45 -43.2 -48.65 L-43.2 -48.2 Q-40.85 -45.6 -36.0 -43.15 -32.4 -41.35 -30.35 -41.25 L-33.2 -40.8 -37.5 -40.35 -42.4 -40.25 Q-44.5 -40.3 -45.6 -41.0 -47.85 -42.4 -49.7 -50.85 -52.2 -50.55 -54.55 -52.5 -57.35 -54.8 -59.4 -55.2 L-66.8 -56.7 Q-70.05 -57.75 -70.9 -59.5 -69.25 -60.25 -67.55 -61.65 -65.3 -63.45 -62.45 -66.6 L-62.9 -66.6 Q-65.15 -65.8 -70.15 -67.3 -75.45 -68.95 -76.9 -71.4 -75.2 -70.55 -74.55 -70.55 -71.65 -70.55 -66.3 -73.25 -60.45 -76.2 -59.85 -78.8 -65.15 -78.65 -72.0 -82.75 -79.35 -87.2 -78.65 -91.55 -78.2 -91.55 -78.2 -91.1 -77.6 -90.5 -72.7 -88.6 -67.8 -86.7 -66.9 -86.7 -61.5 -86.7 -57.65 -88.45 L-57.2 -88.05 Q-57.1 -81.75 -50.0 -75.05 -42.75 -68.15 -35.1 -67.9 -37.95 -68.05 -40.8 -71.45 -43.65 -74.9 -43.65 -77.75 L-43.65 -79.25 Q-38.3 -76.2 -31.6 -76.2 L-26.55 -76.65 M-30.25 -68.7 Q-30.25 -67.05 -31.55 -65.2 L-30.8 -65.2 Q-21.9 -65.2 -19.1 -71.35 L-22.05 -71.15 Q-23.85 -71.15 -26.7 -72.55 -29.55 -73.95 -30.05 -73.95 -35.3 -72.45 -37.9 -72.45 L-39.6 -72.65 -37.25 -70.5 Q-34.65 -68.7 -32.2 -68.7 -31.85 -68.7 -30.25 -69.6 L-30.25 -68.7 M-35.5 -65.45 Q-36.0 -64.8 -39.55 -64.8 -45.2 -64.8 -48.6 -67.35 -51.5 -69.55 -56.7 -77.05 -57.1 -74.65 -58.75 -72.9 -60.3 -72.1 -61.55 -72.0 -65.95 -70.8 -68.1 -70.7 -66.45 -68.05 -61.55 -68.05 L-59.1 -68.55 Q-57.5 -69.1 -57.15 -69.6 -60.1 -61.95 -66.55 -60.2 L-66.35 -59.95 Q-58.3 -57.55 -54.55 -55.8 L-49.25 -53.05 Q-45.85 -51.45 -42.4 -51.0 L-42.05 -51.0 -40.95 -51.0 Q-41.5 -51.0 -42.45 -51.9 -43.55 -52.9 -43.6 -53.85 L-30.9 -52.3 Q-28.9 -52.3 -26.1 -53.85 -29.85 -54.95 -32.3 -57.8 -35.1 -61.05 -35.05 -65.45 L-35.5 -65.45 M-2.9 -50.2 Q-2.9 -39.45 -12.35 -39.45 -18.35 -39.45 -21.4 -45.8 L-21.65 -46.4 -21.3 -45.85 Q-20.55 -44.7 -19.1 -44.7 -15.65 -44.7 -10.2 -47.45 -4.6 -50.25 -3.75 -52.6 -3.3 -52.6 -3.3 -53.05 -2.9 -52.15 -2.9 -50.2 M-7.5 -43.85 Q-5.15 -45.8 -5.45 -47.95 L-5.45 -47.7 Q-6.95 -46.05 -10.6 -44.6 -13.7 -43.4 -16.2 -43.15 -15.8 -42.8 -14.65 -42.45 L-11.95 -42.05 Q-9.7 -42.05 -7.5 -43.85 M-5.4 -30.3 L-5.7 -30.45 -5.7 -30.2 -5.4 -30.3" fill="#844823" fill-rule="evenodd" stroke="none"/>
      <path d="M34.8 -99.35 Q35.2 -98.4 38.65 -97.4 41.8 -96.5 43.55 -96.5 L45.95 -96.55 48.15 -97.6 Q48.9 -95.4 52.0 -94.1 54.6 -93.0 57.35 -93.0 57.35 -92.1 56.65 -90.6 L57.1 -88.85 Q53.0 -90.1 48.8 -90.8 47.35 -91.05 44.6 -92.6 L42.0 -94.1 Q38.85 -93.0 38.3 -93.0 36.55 -93.0 33.95 -94.3 32.15 -95.25 31.3 -96.0 L34.55 -99.15 34.8 -99.35 M10.45 -33.35 Q13.45 -36.35 13.35 -37.65 13.75 -37.3 15.65 -36.7 L18.45 -36.1 Q20.45 -36.1 22.1 -36.8 18.0 -32.85 12.35 -32.85 L10.45 -33.35 M-36.8 -57.1 Q-38.35 -56.05 -41.2 -56.05 -44.3 -56.05 -48.6 -57.1 -54.9 -58.65 -54.95 -61.35 L-54.75 -61.5 Q-53.05 -62.7 -53.0 -65.45 -51.75 -60.2 -44.9 -60.2 -41.55 -60.2 -39.85 -61.3 -39.95 -60.1 -38.95 -58.7 -38.0 -57.35 -37.05 -57.35 L-36.8 -57.1" fill="#ffffff" fill-rule="evenodd" stroke="none"/>
    </g>
  </defs>
</svg>
