<?xml version="1.0" encoding="UTF-8" standalone="no"?>
<svg xmlns:ffdec="https://www.free-decompiler.com/flash" xmlns:xlink="http://www.w3.org/1999/xlink" ffdec:objectType="frame" height="513.9px" width="383.5px" xmlns="http://www.w3.org/2000/svg">
  <g transform="matrix(1.0, 0.0, 0.0, 1.0, 183.4, 511.25)">
    <use ffdec:characterId="205" height="398.45" transform="matrix(1.0, 0.0, 0.0, 1.0, -154.45, -401.85)" width="333.3" xlink:href="#shape0"/>
  </g>
  <defs>
    <g id="shape0" transform="matrix(1.0, 0.0, 0.0, 1.0, 154.45, 401.85)">
      <path d="M167.6 -272.85 L167.65 -269.5 Q167.65 -266.75 164.0 -264.2 160.05 -261.45 154.8 -261.45 151.6 -261.45 150.0 -259.55 150.25 -263.85 147.95 -268.55 145.9 -272.75 143.5 -274.5 L137.25 -280.55 Q134.15 -283.5 129.5 -283.5 126.85 -283.5 125.3 -282.6 L123.15 -280.6 Q120.45 -277.95 114.0 -278.5 110.5 -278.8 106.9 -275.15 L105.35 -273.25 105.4 -273.3 Q107.45 -274.5 111.25 -274.5 113.95 -274.5 116.85 -273.45 119.85 -272.35 120.5 -271.0 121.25 -271.9 123.5 -272.0 126.8 -272.0 130.5 -269.5 134.5 -266.8 134.5 -263.75 134.5 -261.5 134.0 -260.5 L134.5 -260.5 Q138.55 -262.15 142.85 -258.1 146.6 -254.55 147.0 -250.15 146.1 -247.95 144.75 -246.7 142.1 -244.3 136.8 -244.0 134.6 -242.85 132.3 -242.15 135.25 -241.1 137.75 -239.5 138.75 -237.85 139.95 -234.7 142.0 -229.25 142.0 -225.25 142.0 -219.55 140.7 -216.4 139.2 -212.7 135.0 -209.5 L137.35 -203.25 Q138.75 -199.7 141.0 -198.5 142.35 -197.8 144.5 -195.05 147.5 -191.2 147.5 -187.75 L147.5 -187.7 146.25 -185.45 Q140.2 -176.9 137.2 -170.95 135.75 -168.05 130.05 -163.35 L126.45 -161.85 124.5 -161.0 124.35 -160.05 Q119.35 -160.0 116.75 -158.15 L115.35 -156.8 115.15 -156.8 Q113.4 -155.35 111.45 -150.3 L111.45 -150.2 108.25 -148.2 107.15 -148.3 Q105.6 -144.75 105.6 -141.5 105.6 -138.5 103.55 -133.75 100.8 -132.3 99.35 -130.05 98.65 -129.05 97.1 -125.2 98.55 -125.7 101.25 -126.85 104.4 -128.0 107.0 -128.0 108.5 -128.0 111.55 -127.0 114.6 -126.0 115.5 -126.0 116.2 -126.0 117.65 -126.75 119.15 -127.5 121.0 -127.5 123.5 -127.5 125.4 -126.35 127.6 -125.1 128.45 -122.2 128.2 -124.05 136.0 -127.5 L140.2 -130.7 Q143.75 -133.5 144.25 -133.5 145.95 -133.5 147.55 -129.0 149.1 -124.55 153.2 -126.7 157.3 -128.9 163.1 -127.5 166.85 -126.65 168.25 -122.1 168.05 -115.55 166.0 -110.0 171.95 -110.65 173.6 -109.3 175.0 -108.15 175.0 -103.5 175.0 -102.25 174.0 -97.25 174.0 -96.15 175.5 -93.75 L177.3 -90.6 176.65 -88.7 Q175.0 -83.75 173.15 -81.9 172.0 -78.7 169.05 -75.45 163.15 -68.95 154.1 -68.95 147.15 -68.95 141.85 -73.0 140.15 -74.3 139.0 -75.6 L136.95 -73.55 Q133.0 -69.85 132.9 -68.75 132.0 -60.65 131.15 -58.35 129.15 -52.7 125.4 -47.3 120.8 -40.7 115.5 -37.6 107.85 -33.1 92.8 -28.85 78.4 -24.85 76.4 -23.45 70.2 -18.15 65.05 -14.45 55.2 -7.25 49.1 -7.25 L45.95 -7.6 45.8 -7.6 Q37.1 -7.65 31.8 -8.85 20.65 -8.8 5.75 -6.1 -9.5 -3.4 -14.6 -3.4 L-27.05 -3.85 -31.7 -4.3 Q-43.55 -4.3 -47.2 -6.65 -48.3 -7.4 -49.1 -8.75 L-49.75 -9.8 Q-56.0 -14.55 -64.25 -30.55 -67.5 -36.85 -71.65 -46.2 -74.8 -53.3 -75.0 -53.3 -76.15 -53.3 -78.3 -52.15 -80.45 -51.0 -84.9 -51.0 -94.65 -51.0 -103.6 -55.9 -107.5 -58.05 -109.5 -59.9 -116.75 -61.95 -121.9 -70.85 L-123.0 -72.9 Q-122.95 -76.0 -120.75 -81.45 L-118.5 -86.5 -120.0 -94.0 Q-120.0 -96.15 -116.5 -101.15 L-112.5 -107.0 Q-111.7 -109.55 -107.7 -111.8 -103.75 -114.0 -100.0 -114.0 L-96.9 -113.65 -94.5 -112.0 -94.9 -112.8 Q-94.15 -112.0 -93.25 -112.0 -91.1 -112.0 -89.15 -114.05 L-85.65 -118.5 Q-80.8 -125.0 -74.75 -125.0 L-63.75 -123.75 Q-52.15 -121.95 -48.0 -119.5 L-48.0 -120.0 -50.85 -123.55 Q-52.45 -125.35 -53.55 -126.05 -62.05 -135.5 -64.75 -135.5 L-66.25 -135.1 Q-67.1 -135.7 -68.75 -137.7 L-70.65 -139.5 -72.25 -138.5 Q-74.55 -137.1 -77.1 -136.25 L-78.0 -136.5 Q-85.55 -133.45 -89.2 -134.0 -92.9 -134.55 -97.1 -133.0 L-102.5 -137.55 -102.4 -137.55 Q-112.25 -141.1 -116.85 -149.45 L-118.1 -152.25 -117.9 -157.2 -117.0 -164.05 Q-116.0 -165.05 -116.45 -164.4 L-114.35 -165.7 Q-112.55 -167.2 -111.9 -169.15 -113.0 -171.95 -113.0 -174.25 -113.0 -179.1 -108.5 -182.5 -104.5 -185.5 -100.0 -185.5 L-96.3 -185.35 -92.5 -184.75 Q-92.5 -187.0 -91.0 -187.0 L-86.5 -185.5 Q-85.3 -185.5 -80.9 -184.1 -76.5 -182.7 -76.65 -185.0 -76.8 -187.3 -74.75 -190.55 L-75.0 -190.95 -74.55 -190.7 -73.85 -192.0 Q-73.0 -193.35 -73.0 -194.25 -73.0 -195.25 -75.7 -201.5 -77.25 -205.15 -77.9 -208.5 -79.3 -210.9 -80.65 -214.05 -82.3 -218.0 -83.6 -222.65 L-84.6 -226.9 Q-84.6 -230.95 -84.15 -232.05 L-80.5 -238.45 -80.35 -238.7 Q-81.65 -239.05 -83.25 -240.1 L-85.3 -241.5 Q-88.4 -236.8 -93.8 -232.65 -104.4 -224.5 -119.95 -224.5 -130.25 -224.5 -139.75 -237.8 L-140.7 -241.0 Q-142.0 -246.0 -142.0 -248.0 -142.0 -250.25 -141.0 -252.5 -139.65 -255.5 -137.25 -255.5 L-135.8 -255.35 -135.0 -254.5 Q-133.45 -268.35 -126.5 -269.5 -123.4 -270.05 -121.45 -271.5 L-118.95 -273.9 Q-116.75 -276.1 -111.5 -273.5 -112.15 -277.05 -105.85 -280.35 -99.9 -283.5 -94.0 -283.5 -91.0 -283.5 -85.5 -278.0 -86.5 -282.45 -91.0 -286.35 -95.8 -290.5 -100.75 -290.5 -103.9 -290.5 -107.85 -289.35 -110.2 -288.65 -111.5 -287.85 -112.9 -291.7 -116.65 -294.8 -118.4 -296.25 -120.35 -297.2 L-115.3 -301.85 Q-108.65 -307.5 -106.0 -307.5 -101.45 -307.5 -100.5 -305.5 -98.55 -306.5 -98.9 -311.4 -99.35 -317.7 -98.5 -320.0 -96.6 -325.45 -87.0 -326.0 L-87.0 -328.5 -79.0 -328.5 -72.9 -324.0 Q-69.15 -321.3 -69.5 -319.5 -66.4 -319.5 -62.3 -313.3 -58.2 -307.25 -59.0 -304.5 -58.5 -304.5 -58.5 -304.0 -56.8 -304.9 -55.6 -308.4 -54.5 -311.6 -54.5 -314.5 -54.5 -317.15 -55.8 -319.6 -54.3 -322.5 -50.4 -324.95 -45.65 -327.95 -42.5 -327.5 -43.0 -327.25 -43.0 -326.0 -43.0 -324.85 -40.95 -323.0 L-38.0 -320.5 -38.0 -321.5 Q-38.85 -323.15 -38.95 -326.0 -39.45 -326.9 -40.25 -332.7 L-41.0 -339.5 Q-41.0 -344.25 -38.0 -350.0 -34.35 -357.0 -29.25 -357.0 -26.2 -357.0 -22.35 -353.8 -18.5 -350.6 -18.5 -348.0 -18.0 -348.0 -18.0 -347.5 -13.7 -352.45 -11.85 -353.1 L-4.25 -353.5 -2.65 -353.35 0.05 -359.1 Q1.4 -360.5 7.25 -360.5 14.0 -360.5 21.05 -358.2 26.1 -356.55 28.3 -354.25 L32.35 -358.0 Q39.35 -365.0 44.5 -365.0 52.7 -365.0 58.0 -360.5 63.0 -356.25 63.0 -350.25 63.0 -348.95 61.75 -346.9 L60.5 -344.75 Q60.5 -342.3 65.5 -339.5 69.9 -337.0 71.75 -337.0 72.85 -337.0 73.3 -337.75 73.75 -338.5 74.25 -338.5 77.95 -338.5 81.0 -332.0 83.5 -326.65 83.5 -323.25 83.5 -320.7 82.6 -317.85 84.2 -316.05 84.45 -311.85 L84.4 -307.0 Q76.1 -295.35 72.7 -295.35 L70.5 -295.45 65.7 -294.75 65.95 -292.9 Q65.95 -290.05 64.55 -287.6 63.15 -285.15 63.15 -283.6 63.15 -282.6 63.7 -281.4 64.2 -280.25 64.2 -277.1 L65.0 -277.0 Q66.6 -274.75 67.5 -268.5 68.95 -267.85 71.85 -266.9 74.05 -265.65 74.0 -262.5 L77.5 -263.9 Q80.75 -265.0 82.0 -265.0 83.8 -265.0 86.4 -263.7 L90.5 -261.5 Q89.65 -263.2 89.75 -265.6 L90.0 -269.25 Q90.0 -269.9 87.75 -273.0 L86.15 -275.3 86.15 -275.2 Q87.3 -281.5 90.1 -286.05 88.0 -288.55 87.35 -295.65 86.8 -301.15 87.15 -307.1 L87.25 -310.75 Q88.25 -314.15 89.35 -319.7 91.05 -326.0 94.5 -327.5 97.7 -328.9 106.0 -331.15 114.4 -333.5 116.5 -333.5 122.95 -333.5 127.5 -329.5 132.0 -325.5 132.0 -319.75 131.0 -313.75 131.0 -312.5 L131.5 -309.0 Q135.7 -309.0 138.25 -307.25 140.8 -305.5 141.5 -305.5 143.75 -305.5 148.25 -307.0 153.45 -307.0 157.0 -302.0 160.0 -297.75 160.0 -293.25 159.0 -287.75 159.0 -286.5 160.0 -283.75 160.0 -282.5 L159.25 -280.8 Q158.5 -279.25 158.5 -278.5 158.5 -278.45 164.3 -275.95 166.45 -274.55 167.6 -272.85 M11.0 -255.45 L11.0 -255.5 11.5 -255.5 11.0 -255.45 M51.25 -250.5 Q52.65 -252.0 54.5 -252.0 59.1 -252.0 68.25 -247.5 80.7 -247.5 85.0 -236.0 L85.0 -239.75 Q85.0 -243.0 79.7 -249.4 73.5 -256.8 67.5 -256.5 L67.5 -260.5 Q67.6 -263.0 66.65 -264.95 L65.75 -266.4 64.05 -268.05 Q60.6 -270.7 55.55 -270.5 L55.25 -270.5 Q50.45 -273.0 45.75 -273.0 41.05 -273.0 37.0 -268.95 33.8 -265.75 32.5 -262.0 L28.8 -262.35 Q26.3 -262.2 25.5 -261.5 22.15 -257.0 20.5 -257.0 L11.05 -256.6 Q9.2 -256.15 7.9 -255.1 L2.6 -254.55 Q-1.0 -253.6 -2.6 -250.95 -4.75 -252.4 -7.0 -253.0 -4.9 -256.55 -4.55 -258.5 L-3.75 -266.05 Q-4.55 -271.8 -7.5 -276.0 -11.7 -282.0 -18.5 -282.0 -24.8 -282.0 -29.5 -279.0 -35.5 -275.15 -35.5 -267.75 -35.5 -266.0 -35.0 -265.5 -46.35 -263.5 -47.0 -255.0 -49.0 -253.65 -49.0 -248.0 -49.0 -245.4 -48.2 -243.55 -47.8 -242.65 -47.0 -242.0 -52.0 -241.35 -56.55 -237.2 -61.25 -232.9 -61.5 -229.0 L-61.5 -226.5 -61.25 -225.95 Q-61.15 -224.95 -61.5 -222.0 L-58.95 -218.05 Q-57.15 -215.1 -55.5 -214.5 L-55.5 -214.0 Q-60.3 -214.35 -63.75 -210.5 -67.0 -206.85 -67.0 -202.0 -67.0 -199.5 -63.5 -192.5 -62.0 -196.7 -59.4 -198.25 -57.2 -199.5 -52.75 -199.5 -49.95 -199.5 -48.5 -198.35 L-45.55 -195.55 Q-50.35 -194.5 -53.2 -188.2 -55.5 -183.05 -55.5 -177.5 -55.5 -175.0 -54.5 -173.0 -54.0 -173.8 -52.4 -177.9 -50.75 -182.0 -49.35 -184.35 -45.05 -191.5 -38.0 -190.0 -38.5 -191.5 -38.5 -192.75 -38.5 -194.85 -40.75 -197.3 -43.0 -199.75 -43.0 -201.0 -41.5 -202.9 -41.5 -203.25 -41.5 -204.5 -43.0 -207.55 -44.5 -210.55 -44.5 -211.25 -44.5 -214.95 -40.5 -217.0 -37.5 -218.5 -34.25 -218.5 -31.95 -218.5 -27.4 -215.7 L-26.5 -216.1 -19.25 -216.5 -14.0 -219.0 Q-13.05 -219.0 -12.35 -218.1 -12.5 -217.5 -13.0 -217.0 L-11.95 -217.4 Q-7.65 -219.0 -0.2 -218.6 L8.55 -218.2 Q9.9 -218.2 12.95 -216.05 12.45 -218.8 7.95 -222.45 3.05 -226.45 -0.6 -226.5 -0.45 -228.45 2.25 -232.25 4.8 -235.8 6.55 -237.4 L6.8 -237.6 7.4 -238.1 8.5 -239.75 Q9.55 -241.75 10.0 -242.0 11.6 -243.05 17.0 -245.5 L33.5 -245.5 33.5 -245.0 34.65 -245.9 Q37.75 -250.0 42.0 -250.0 L48.5 -249.0 Q49.8 -249.0 51.25 -250.5 M53.9 -200.5 Q53.15 -196.2 51.05 -195.1 44.0 -191.15 44.0 -187.0 L46.3 -184.75 47.85 -182.7 48.0 -182.45 50.95 -182.95 Q56.2 -182.95 62.6 -176.9 66.0 -173.65 70.35 -168.25 L70.35 -170.5 Q69.8 -175.45 69.05 -178.35 66.55 -183.4 66.55 -185.95 66.55 -186.35 68.05 -189.75 62.95 -191.7 59.4 -196.65 56.05 -201.4 55.1 -207.25 54.5 -205.4 53.9 -200.5 M87.5 -129.0 Q88.0 -130.0 88.0 -132.0 88.0 -138.4 86.5 -141.65 84.05 -146.75 77.0 -149.0 77.35 -152.9 72.0 -156.85 65.75 -161.45 65.5 -162.0 63.2 -168.7 61.55 -171.25 58.75 -175.5 52.0 -175.5 47.2 -175.5 45.05 -174.3 42.7 -172.95 40.0 -168.5 39.25 -167.25 36.45 -164.85 L32.5 -161.5 33.65 -161.5 Q32.25 -161.15 30.85 -159.95 28.55 -158.0 27.5 -155.0 L34.5 -157.5 Q37.45 -157.5 43.4 -154.75 49.35 -152.0 53.75 -152.0 54.4 -152.0 54.4 -152.5 54.4 -153.0 55.0 -153.0 56.25 -153.0 59.0 -152.0 60.25 -152.0 62.0 -153.0 65.35 -153.0 74.5 -143.5 74.5 -142.25 74.0 -141.0 83.15 -139.5 87.5 -128.5 L87.5 -129.0 M11.5 -154.5 Q11.95 -155.45 14.15 -156.45 16.4 -157.5 18.0 -157.5 20.0 -157.5 22.0 -156.5 L22.0 -159.0 Q20.7 -162.25 15.15 -167.3 8.85 -173.0 4.75 -173.0 1.85 -173.0 -7.0 -167.8 L-14.05 -163.4 -10.75 -163.5 Q-4.55 -163.5 1.9 -161.25 9.5 -158.6 11.5 -154.5 M10.5 -100.6 L10.5 -100.25 Q12.7 -98.8 16.75 -93.05 21.15 -88.2 27.0 -89.15 26.4 -82.6 17.75 -82.6 L13.45 -82.7 Q11.9 -82.9 9.5 -84.1 10.05 -82.05 13.15 -80.65 14.85 -79.9 17.6 -79.0 L17.6 -78.75 Q11.85 -75.75 8.65 -75.75 L6.5 -76.15 Q7.8 -74.3 11.05 -72.5 14.85 -70.4 17.75 -70.4 19.75 -70.4 23.0 -71.45 L29.65 -69.4 Q33.3 -69.4 35.85 -71.05 37.7 -72.25 40.4 -75.5 L40.4 -76.0 Q36.75 -76.25 32.9 -78.4 29.05 -80.55 28.25 -82.85 L28.25 -83.1 Q32.7 -81.25 36.5 -81.25 L40.25 -81.5 Q40.8 -81.7 41.2 -82.05 36.95 -82.4 32.55 -92.2 33.05 -91.2 37.7 -89.4 44.25 -86.85 50.25 -86.4 56.2 -85.95 60.75 -87.9 L60.75 -87.65 Q59.6 -85.25 54.9 -84.05 L47.75 -82.35 51.6 -80.85 54.9 -80.75 Q68.15 -80.75 75.65 -93.25 71.9 -90.45 68.3 -90.45 65.05 -90.45 62.45 -91.45 59.15 -92.7 59.15 -95.0 L59.75 -97.0 Q57.25 -96.85 54.2 -99.75 51.05 -102.7 51.05 -105.65 L51.3 -107.55 41.9 -106.15 Q40.25 -106.75 38.25 -107.9 33.9 -110.45 34.1 -112.0 31.4 -101.6 20.15 -101.6 L20.15 -101.35 23.05 -99.75 23.7 -99.4 Q21.45 -98.5 19.4 -98.5 L10.5 -100.6 M23.1 -55.2 Q25.05 -55.2 27.6 -56.35 30.25 -57.6 30.8 -59.0 L30.8 -59.5 Q23.45 -56.95 19.0 -57.05 19.6 -56.7 20.45 -56.3 22.65 -55.2 23.1 -55.2 M33.75 -48.4 Q33.0 -48.4 30.75 -47.6 28.5 -46.85 26.6 -46.85 24.85 -46.85 18.1 -48.9 L18.1 -47.35 Q21.95 -41.8 25.25 -42.0 L25.25 -41.75 20.9 -41.75 14.85 -42.6 Q11.3 -43.2 8.75 -44.85 3.35 -39.65 -1.9 -40.5 L0.05 -37.4 Q1.45 -35.5 3.15 -35.45 -3.95 -33.15 -7.85 -32.15 -1.75 -29.65 4.05 -29.65 L6.45 -30.2 Q8.1 -30.8 8.5 -31.4 11.65 -28.35 16.35 -28.35 21.8 -28.35 28.75 -34.2 34.1 -38.45 41.5 -38.0 L38.15 -42.25 38.15 -42.5 41.3 -42.0 Q44.4 -42.0 48.05 -44.95 L52.35 -48.65 Q51.0 -48.1 48.45 -47.45 L43.35 -46.6 38.15 -47.1 33.75 -48.4 M113.15 -80.75 Q111.65 -81.75 111.25 -81.75 L105.9 -79.5 Q101.05 -77.25 96.7 -77.25 L92.6 -78.0 Q91.9 -73.8 87.9 -64.85 L91.4 -65.35 Q97.15 -65.35 108.85 -60.5 L109.1 -63.55 108.1 -69.5 Q108.1 -70.45 111.45 -73.6 115.05 -77.0 116.35 -79.8 L115.7 -79.75 Q114.65 -79.75 113.15 -80.75 M-38.35 -170.75 Q-41.4 -166.25 -44.2 -164.25 -47.0 -162.35 -52.75 -160.65 -56.0 -159.7 -56.7 -157.15 -57.1 -155.65 -57.15 -152.0 -57.45 -149.5 -60.0 -145.15 L-58.8 -144.1 Q-57.05 -142.3 -57.4 -140.85 -55.25 -141.4 -52.85 -140.35 -51.9 -139.95 -51.25 -139.4 -49.25 -145.0 -42.45 -147.45 -43.2 -149.2 -43.2 -150.5 -43.2 -154.55 -37.2 -160.25 -31.85 -165.35 -29.75 -165.45 L-29.75 -165.7 Q-37.1 -166.95 -38.1 -170.5 L-38.35 -170.75 M-19.1 -75.0 Q-20.9 -75.0 -24.5 -77.5 L-28.1 -80.0 -33.7 -79.0 Q-37.7 -79.0 -39.85 -79.65 -41.8 -80.2 -44.65 -82.05 -43.7 -78.15 -35.1 -73.45 -42.7 -72.35 -47.95 -77.9 -49.3 -78.45 -50.75 -79.6 -53.35 -81.6 -53.35 -83.2 -52.25 -85.6 -52.25 -87.5 -52.25 -89.55 -53.85 -91.45 -54.85 -92.65 -55.25 -93.6 -56.95 -92.8 -61.1 -92.0 -66.3 -90.95 -69.4 -90.95 -70.75 -90.95 -71.25 -91.7 L-71.85 -91.7 -71.85 -89.45 Q-71.25 -85.15 -65.6 -82.5 -60.8 -80.2 -55.35 -80.25 L-55.35 -79.9 Q-56.85 -77.4 -61.7 -76.5 -60.6 -75.65 -57.35 -75.2 L-53.45 -75.05 -59.6 -73.4 Q-61.2 -72.7 -65.75 -72.7 L-69.55 -73.45 Q-68.5 -71.35 -63.45 -67.9 -58.25 -64.4 -56.1 -63.6 -59.35 -59.4 -63.2 -59.5 -61.8 -58.65 -56.75 -57.9 L-51.25 -57.25 -47.85 -58.25 -45.05 -55.6 Q-41.95 -52.95 -40.0 -52.95 L-39.4 -52.95 -42.2 -56.5 -42.2 -56.75 Q-40.9 -55.4 -36.5 -54.25 -32.5 -53.2 -29.65 -53.2 -25.35 -53.2 -23.95 -53.95 -26.7 -55.85 -29.45 -58.85 -32.5 -62.25 -32.5 -63.95 L-32.5 -64.85 Q-31.5 -64.1 -30.65 -64.1 -26.9 -64.1 -22.15 -69.0 L-16.6 -75.0 -16.35 -75.5 -19.1 -75.0" fill="#4a4a4a" fill-rule="evenodd" stroke="none"/>
      <path d="M-139.75 -237.8 L-141.1 -239.8 Q-144.8 -245.3 -147.3 -251.4 -149.55 -256.75 -149.55 -258.9 L-149.55 -260.5 -151.65 -264.05 -154.45 -270.8 Q-154.45 -272.15 -147.6 -284.8 L-142.4 -293.95 -142.25 -294.15 -142.55 -294.85 Q-144.1 -298.85 -144.1 -302.2 -144.1 -319.85 -128.6 -333.35 -122.35 -338.85 -115.05 -342.05 -109.7 -344.4 -105.3 -344.95 L-104.1 -345.5 Q-99.1 -347.5 -91.1 -347.5 -73.85 -347.5 -63.8 -334.55 -60.65 -330.5 -58.6 -325.65 L-56.2 -330.15 Q-50.65 -339.15 -43.9 -341.4 L-44.65 -344.05 Q-45.8 -348.7 -46.4 -353.55 -46.4 -355.35 -43.8 -359.85 -40.85 -364.85 -36.65 -369.45 -25.05 -382.15 -12.85 -382.15 -5.3 -382.15 -0.1 -379.85 0.6 -378.3 2.45 -378.3 L2.7 -378.3 2.85 -378.2 2.85 -378.4 Q4.0 -378.9 6.2 -382.0 10.35 -387.9 12.25 -390.05 22.5 -401.85 37.2 -401.85 48.1 -401.85 53.95 -397.9 L55.0 -397.1 55.3 -397.1 Q63.4 -397.1 69.2 -389.7 71.9 -386.3 73.0 -383.6 75.75 -382.0 77.45 -370.65 87.75 -360.1 89.95 -353.7 90.5 -351.95 90.5 -348.8 L90.55 -343.75 Q90.85 -339.7 94.9 -339.25 L95.85 -339.1 Q97.5 -341.1 100.2 -343.25 108.2 -349.7 117.5 -349.7 L117.9 -349.7 121.35 -350.55 Q128.55 -350.55 132.9 -345.6 L133.65 -344.7 135.6 -343.2 Q138.4 -340.9 142.2 -331.0 L145.05 -331.05 Q151.4 -331.05 155.25 -325.2 157.55 -321.7 158.1 -318.2 158.45 -315.9 161.5 -310.8 L164.25 -305.9 Q166.25 -292.0 166.25 -289.15 165.85 -285.85 165.75 -282.6 167.25 -279.2 167.6 -272.85 166.45 -274.55 164.3 -275.95 158.5 -278.45 158.5 -278.5 158.5 -279.25 159.25 -280.8 L160.0 -282.5 Q160.0 -283.75 159.0 -286.5 159.0 -287.75 160.0 -293.25 160.0 -297.75 157.0 -302.0 153.45 -307.0 148.25 -307.0 143.75 -305.5 141.5 -305.5 140.8 -305.5 138.25 -307.25 135.7 -309.0 131.5 -309.0 L131.0 -312.5 Q131.0 -313.75 132.0 -319.75 132.0 -325.5 127.5 -329.5 122.95 -333.5 116.5 -333.5 114.4 -333.5 106.0 -331.15 97.7 -328.9 94.5 -327.5 91.05 -326.0 89.35 -319.7 88.25 -314.15 87.25 -310.75 L87.3 -311.0 87.3 -311.15 87.3 -311.2 84.4 -307.0 84.45 -311.85 Q84.2 -316.05 82.6 -317.85 83.5 -320.7 83.5 -323.25 83.5 -326.65 81.0 -332.0 77.95 -338.5 74.25 -338.5 73.75 -338.5 73.3 -337.75 72.85 -337.0 71.75 -337.0 69.9 -337.0 65.5 -339.5 60.5 -342.3 60.5 -344.75 L61.75 -346.9 Q63.0 -348.95 63.0 -350.25 63.0 -356.25 58.0 -360.5 52.7 -365.0 44.5 -365.0 39.35 -365.0 32.35 -358.0 L28.3 -354.25 Q26.1 -356.55 21.05 -358.2 14.0 -360.5 7.25 -360.5 1.4 -360.5 0.05 -359.1 L-2.65 -353.35 -4.25 -353.5 -11.85 -353.1 Q-13.7 -352.45 -18.0 -347.5 -18.0 -348.0 -18.5 -348.0 -18.5 -350.6 -22.35 -353.8 -26.2 -357.0 -29.25 -357.0 -34.35 -357.0 -38.0 -350.0 -41.0 -344.25 -41.0 -339.5 L-40.25 -332.7 Q-39.45 -326.9 -38.95 -326.0 -38.85 -323.15 -38.0 -321.5 L-38.0 -320.5 -40.95 -323.0 Q-43.0 -324.85 -43.0 -326.0 -43.0 -327.25 -42.5 -327.5 -45.65 -327.95 -50.4 -324.95 -54.3 -322.5 -55.8 -319.6 -54.5 -317.15 -54.5 -314.5 -54.5 -311.6 -55.6 -308.4 -56.8 -304.9 -58.5 -304.0 -58.5 -304.5 -59.0 -304.5 -58.2 -307.25 -62.3 -313.3 -66.4 -319.5 -69.5 -319.5 -69.15 -321.3 -72.9 -324.0 L-79.0 -328.5 -87.0 -328.5 -87.0 -326.0 Q-96.6 -325.45 -98.5 -320.0 -99.35 -317.7 -98.9 -311.4 -98.55 -306.5 -100.5 -305.5 -101.45 -307.5 -106.0 -307.5 -108.65 -307.5 -115.3 -301.85 L-120.35 -297.2 Q-118.4 -296.25 -116.65 -294.8 -112.9 -291.7 -111.5 -287.85 -110.2 -288.65 -107.85 -289.35 -103.9 -290.5 -100.75 -290.5 -95.8 -290.5 -91.0 -286.35 -86.5 -282.45 -85.5 -278.0 -91.0 -283.5 -94.0 -283.5 -99.9 -283.5 -105.85 -280.35 -112.15 -277.05 -111.5 -273.5 -116.75 -276.1 -118.95 -273.9 L-121.45 -271.5 Q-123.4 -270.05 -126.5 -269.5 -133.45 -268.35 -135.0 -254.5 L-135.8 -255.35 -137.25 -255.5 Q-139.65 -255.5 -141.0 -252.5 -142.0 -250.25 -142.0 -248.0 -142.0 -246.0 -140.7 -241.0 L-139.75 -237.8 M150.0 -259.55 L149.4 -258.7 Q148.9 -257.8 147.75 -252.7 L147.0 -250.15 Q146.6 -254.55 142.85 -258.1 138.55 -262.15 134.5 -260.5 L134.0 -260.5 Q134.5 -261.5 134.5 -263.75 134.5 -266.8 130.5 -269.5 126.8 -272.0 123.5 -272.0 121.25 -271.9 120.5 -271.0 119.85 -272.35 116.85 -273.45 113.95 -274.5 111.25 -274.5 107.45 -274.5 105.4 -273.3 L105.35 -273.25 106.9 -275.15 Q110.5 -278.8 114.0 -278.5 120.45 -277.95 123.15 -280.6 L125.3 -282.6 Q126.85 -283.5 129.5 -283.5 134.15 -283.5 137.25 -280.55 L143.5 -274.5 Q145.9 -272.75 147.95 -268.55 150.25 -263.85 150.0 -259.55 M137.75 -239.5 L138.1 -239.25 143.85 -234.0 143.9 -233.9 144.0 -233.8 144.15 -233.55 144.4 -233.2 Q148.55 -227.35 148.55 -221.35 148.55 -219.6 146.8 -210.7 146.8 -209.5 147.85 -204.85 148.85 -200.15 148.85 -195.55 148.85 -190.9 147.5 -187.7 L147.5 -187.75 Q147.5 -191.2 144.5 -195.05 142.35 -197.8 141.0 -198.5 138.75 -199.7 137.35 -203.25 L135.0 -209.5 Q139.2 -212.7 140.7 -216.4 142.0 -219.55 142.0 -225.25 142.0 -229.25 139.95 -234.7 138.75 -237.85 137.75 -239.5 M103.55 -133.75 L103.5 -133.7 103.7 -133.45 104.15 -133.85 104.85 -134.7 106.1 -135.75 Q108.3 -136.75 117.85 -136.75 L129.95 -135.0 137.35 -141.5 Q146.2 -148.05 154.45 -148.05 171.25 -148.05 176.65 -124.25 179.35 -112.15 178.75 -98.15 L178.75 -98.05 178.75 -97.85 178.75 -97.65 178.75 -97.55 178.7 -96.9 178.55 -95.6 178.5 -95.45 178.4 -95.0 177.3 -90.6 175.5 -93.75 Q174.0 -96.15 174.0 -97.25 175.0 -102.25 175.0 -103.5 175.0 -108.15 173.6 -109.3 171.95 -110.65 166.0 -110.0 168.05 -115.55 168.25 -122.1 166.85 -126.65 163.1 -127.5 157.3 -128.9 153.2 -126.7 149.1 -124.55 147.55 -129.0 145.95 -133.5 144.25 -133.5 143.75 -133.5 140.2 -130.7 L136.0 -127.5 Q128.2 -124.05 128.45 -122.2 127.6 -125.1 125.4 -126.35 123.5 -127.5 121.0 -127.5 119.15 -127.5 117.65 -126.75 116.2 -126.0 115.5 -126.0 114.6 -126.0 111.55 -127.0 108.5 -128.0 107.0 -128.0 104.4 -128.0 101.25 -126.85 98.55 -125.7 97.1 -125.2 98.65 -129.05 99.35 -130.05 100.8 -132.3 103.55 -133.75 M-123.0 -72.9 Q-124.4 -75.7 -125.45 -78.85 L-126.5 -82.25 Q-128.4 -87.5 -128.6 -92.95 L-129.7 -95.1 Q-130.75 -97.8 -130.75 -99.05 -130.75 -100.15 -127.95 -104.75 L-124.85 -110.0 -124.35 -116.15 Q-124.15 -118.8 -122.1 -119.35 -121.6 -124.3 -118.55 -128.9 -113.3 -136.85 -102.5 -137.55 L-97.1 -133.0 Q-92.9 -134.55 -89.2 -134.0 -85.55 -133.45 -78.0 -136.5 L-77.1 -136.25 -77.55 -136.1 -76.9 -135.8 -76.5 -135.6 -76.0 -135.35 -72.45 -133.45 Q-71.0 -133.45 -66.05 -135.0 L-66.25 -135.1 -64.75 -135.5 Q-62.05 -135.5 -53.55 -126.05 -52.45 -125.35 -50.85 -123.55 L-48.0 -120.0 -48.0 -119.5 Q-52.15 -121.95 -63.75 -123.75 L-74.75 -125.0 Q-80.8 -125.0 -85.65 -118.5 L-89.15 -114.05 Q-91.1 -112.0 -93.25 -112.0 -94.15 -112.0 -94.9 -112.8 L-94.5 -112.0 -96.9 -113.65 -100.0 -114.0 Q-103.75 -114.0 -107.7 -111.8 -111.7 -109.55 -112.5 -107.0 L-116.5 -101.15 Q-120.0 -96.15 -120.0 -94.0 L-118.5 -86.5 -120.75 -81.45 Q-122.95 -76.0 -123.0 -72.9 M-118.1 -152.25 L-118.1 -152.2 -118.4 -153.05 -120.5 -168.25 -120.3 -169.55 -119.65 -170.85 Q-121.7 -176.85 -121.7 -179.45 -121.7 -181.15 -120.6 -185.1 -119.15 -190.35 -116.8 -194.75 L-114.5 -198.5 Q-107.3 -205.1 -97.05 -205.1 -83.05 -205.1 -74.55 -190.7 L-75.0 -190.95 -74.75 -190.55 Q-76.8 -187.3 -76.65 -185.0 -76.5 -182.7 -80.9 -184.1 -85.3 -185.5 -86.5 -185.5 L-91.0 -187.0 Q-92.5 -187.0 -92.5 -184.75 L-96.3 -185.35 -100.0 -185.5 Q-104.5 -185.5 -108.5 -182.5 -113.0 -179.1 -113.0 -174.25 -113.0 -171.95 -111.9 -169.15 -112.55 -167.2 -114.35 -165.7 L-116.45 -164.4 Q-116.0 -165.05 -117.0 -164.05 L-117.9 -157.2 -118.1 -152.25 M86.15 -275.2 L86.15 -275.3 87.75 -273.0 Q90.0 -269.9 90.0 -269.25 L89.75 -265.6 Q89.65 -263.2 90.5 -261.5 L86.4 -263.7 Q83.8 -265.0 82.0 -265.0 80.75 -265.0 77.5 -263.9 L74.0 -262.5 Q74.05 -265.65 71.85 -266.9 68.95 -267.85 67.5 -268.5 66.6 -274.75 65.0 -277.0 67.0 -276.6 68.1 -274.9 L69.75 -272.2 71.5 -273.4 Q73.6 -274.5 78.2 -274.5 L82.25 -273.9 85.75 -272.9 85.8 -273.1 86.15 -275.2 M143.45 -327.05 L143.5 -326.85 143.6 -327.0 143.45 -327.05 M51.25 -250.5 Q49.8 -249.0 48.5 -249.0 L42.0 -250.0 Q37.75 -250.0 34.65 -245.9 L33.5 -245.0 33.5 -245.5 17.0 -245.5 Q11.6 -243.05 10.0 -242.0 9.55 -241.75 8.5 -239.75 L7.4 -238.1 6.8 -237.6 6.55 -237.4 Q4.8 -235.8 2.25 -232.25 -0.45 -228.45 -0.6 -226.5 3.05 -226.45 7.95 -222.45 12.45 -218.8 12.95 -216.05 9.9 -218.2 8.55 -218.2 L-0.2 -218.6 Q-7.65 -219.0 -11.95 -217.4 L-13.0 -217.0 Q-12.5 -217.5 -12.35 -218.1 -13.05 -219.0 -14.0 -219.0 L-19.25 -216.5 -26.5 -216.1 -27.4 -215.7 Q-31.95 -218.5 -34.25 -218.5 -37.5 -218.5 -40.5 -217.0 -44.5 -214.95 -44.5 -211.25 -44.5 -210.55 -43.0 -207.55 -41.5 -204.5 -41.5 -203.25 -41.5 -202.9 -43.0 -201.0 -43.0 -199.75 -40.75 -197.3 -38.5 -194.85 -38.5 -192.75 -38.5 -191.5 -38.0 -190.0 -45.05 -191.5 -49.35 -184.35 -50.75 -182.0 -52.4 -177.9 -54.0 -173.8 -54.5 -173.0 -55.5 -175.0 -55.5 -177.5 -55.5 -183.05 -53.2 -188.2 -50.35 -194.5 -45.55 -195.55 L-48.5 -198.35 Q-49.95 -199.5 -52.75 -199.5 -57.2 -199.5 -59.4 -198.25 -62.0 -196.7 -63.5 -192.5 -67.0 -199.5 -67.0 -202.0 -67.0 -206.85 -63.75 -210.5 -60.3 -214.35 -55.5 -214.0 L-55.5 -214.5 Q-57.15 -215.1 -58.95 -218.05 L-61.5 -222.0 Q-61.15 -224.95 -61.25 -225.95 L-61.5 -226.5 -61.5 -229.0 Q-61.25 -232.9 -56.55 -237.2 -52.0 -241.35 -47.0 -242.0 -47.8 -242.65 -48.2 -243.55 -49.0 -245.4 -49.0 -248.0 -49.0 -253.65 -47.0 -255.0 -46.35 -263.5 -35.0 -265.5 -35.5 -266.0 -35.5 -267.75 -35.5 -275.15 -29.5 -279.0 -24.8 -282.0 -18.5 -282.0 -11.7 -282.0 -7.5 -276.0 -4.55 -271.8 -3.75 -266.05 L-4.55 -258.5 Q-4.9 -256.55 -7.0 -253.0 -4.75 -252.4 -2.6 -250.95 -1.0 -253.6 2.6 -254.55 L7.9 -255.1 Q9.2 -256.15 11.05 -256.6 L20.5 -257.0 Q22.15 -257.0 25.5 -261.5 26.3 -262.2 28.8 -262.35 L32.5 -262.0 Q33.8 -265.75 37.0 -268.95 41.05 -273.0 45.75 -273.0 50.45 -273.0 55.25 -270.5 L55.55 -270.5 Q60.6 -270.7 64.05 -268.05 L65.75 -266.4 66.65 -264.95 Q67.6 -263.0 67.5 -260.5 L67.5 -256.5 Q73.5 -256.8 79.7 -249.4 85.0 -243.0 85.0 -239.75 L85.0 -236.0 Q80.7 -247.5 68.25 -247.5 59.1 -252.0 54.5 -252.0 52.65 -252.0 51.25 -250.5 M11.0 -255.45 L11.5 -255.5 11.0 -255.5 11.0 -255.45 M87.5 -129.0 L87.5 -128.5 Q83.15 -139.5 74.0 -141.0 74.5 -142.25 74.5 -143.5 65.35 -153.0 62.0 -153.0 60.25 -152.0 59.0 -152.0 56.25 -153.0 55.0 -153.0 54.4 -153.0 54.4 -152.5 54.4 -152.0 53.75 -152.0 49.35 -152.0 43.4 -154.75 37.45 -157.5 34.5 -157.5 L27.5 -155.0 Q28.55 -158.0 30.85 -159.95 32.25 -161.15 33.65 -161.5 L32.5 -161.5 36.45 -164.85 Q39.25 -167.25 40.0 -168.5 42.7 -172.95 45.05 -174.3 47.2 -175.5 52.0 -175.5 58.75 -175.5 61.55 -171.25 63.2 -168.7 65.5 -162.0 65.75 -161.45 72.0 -156.85 77.35 -152.9 77.0 -149.0 84.05 -146.75 86.5 -141.65 88.0 -138.4 88.0 -132.0 88.0 -130.0 87.5 -129.0 M11.5 -154.5 Q9.5 -158.6 1.9 -161.25 -4.55 -163.5 -10.75 -163.5 L-14.05 -163.4 -7.0 -167.8 Q1.85 -173.0 4.75 -173.0 8.85 -173.0 15.15 -167.3 20.7 -162.25 22.0 -159.0 L22.0 -156.5 Q20.0 -157.5 18.0 -157.5 16.4 -157.5 14.15 -156.45 11.95 -155.45 11.5 -154.5 M-117.0 -164.05 L-117.1 -164.25 -117.1 -164.05 -117.0 -164.05" fill="#666666" fill-rule="evenodd" stroke="none"/>
      <path d="M53.9 -200.5 Q54.5 -205.4 55.1 -207.25 56.05 -201.4 59.4 -196.65 62.95 -191.7 68.05 -189.75 66.55 -186.35 66.55 -185.95 66.55 -183.4 69.05 -178.35 69.8 -175.45 70.35 -170.5 L70.35 -168.25 Q66.0 -173.65 62.6 -176.9 56.2 -182.95 50.95 -182.95 L48.0 -182.45 47.85 -182.7 46.3 -184.75 44.0 -187.0 Q44.0 -191.15 51.05 -195.1 53.15 -196.2 53.9 -200.5 M66.6 -174.2 L66.6 -174.6 65.55 -181.45 Q64.6 -185.95 62.0 -186.5 57.65 -187.45 56.15 -190.95 55.0 -193.55 55.1 -198.8 54.8 -194.65 52.75 -191.95 51.1 -189.85 47.4 -187.65 49.45 -186.7 49.45 -184.95 L51.6 -184.95 Q56.2 -185.3 60.6 -182.2 65.05 -179.0 66.6 -174.2 M10.5 -100.6 L19.4 -98.5 Q21.45 -98.5 23.7 -99.4 L23.05 -99.75 20.15 -101.35 20.15 -101.6 Q31.4 -101.6 34.1 -112.0 33.9 -110.45 38.25 -107.9 40.25 -106.75 41.9 -106.15 L51.3 -107.55 51.05 -105.65 Q51.05 -102.7 54.2 -99.75 57.25 -96.85 59.75 -97.0 L59.15 -95.0 Q59.15 -92.7 62.45 -91.45 65.05 -90.45 68.3 -90.45 71.9 -90.45 75.65 -93.25 68.15 -80.75 54.9 -80.75 L51.6 -80.85 47.75 -82.35 54.9 -84.05 Q59.6 -85.25 60.75 -87.65 L60.75 -87.9 Q56.2 -85.95 50.25 -86.4 44.25 -86.85 37.7 -89.4 33.05 -91.2 32.55 -92.2 36.95 -82.4 41.2 -82.05 40.8 -81.7 40.25 -81.5 L36.5 -81.25 Q32.7 -81.25 28.25 -83.1 L28.25 -82.85 Q29.05 -80.55 32.9 -78.4 36.75 -76.25 40.4 -76.0 L40.4 -75.5 Q37.7 -72.25 35.85 -71.05 33.3 -69.4 29.65 -69.4 L23.0 -71.45 Q19.75 -70.4 17.75 -70.4 14.85 -70.4 11.05 -72.5 7.8 -74.3 6.5 -76.15 L8.65 -75.75 Q11.85 -75.75 17.6 -78.75 L17.6 -79.0 Q14.85 -79.9 13.15 -80.65 10.05 -82.05 9.5 -84.1 11.9 -82.9 13.45 -82.7 L17.75 -82.6 Q26.4 -82.6 27.0 -89.15 21.15 -88.2 16.75 -93.05 12.7 -98.8 10.5 -100.25 L10.5 -100.6 M34.75 -105.9 L30.8 -102.4 Q28.45 -100.25 24.75 -100.55 25.0 -99.5 27.05 -98.2 22.85 -95.55 19.75 -95.55 17.8 -95.55 17.3 -96.25 17.8 -94.5 20.05 -93.0 22.6 -91.3 25.15 -91.3 27.5 -91.3 30.5 -92.1 29.35 -94.35 29.35 -94.75 L39.15 -91.1 Q47.4 -88.25 51.25 -88.25 52.75 -88.25 54.15 -89.0 55.55 -89.8 57.75 -89.8 56.65 -92.05 52.65 -96.7 49.15 -100.8 48.55 -103.2 L48.55 -102.85 44.5 -102.45 Q41.85 -102.45 38.9 -103.3 35.35 -104.35 34.75 -105.9 M63.15 -84.8 Q67.15 -86.25 69.3 -88.25 L68.9 -88.25 65.95 -88.45 63.5 -89.0 Q63.05 -87.8 61.45 -86.1 60.25 -84.85 59.3 -84.3 59.45 -83.5 63.15 -84.8 M26.3 -82.1 Q24.05 -80.65 20.55 -80.95 21.8 -79.4 19.55 -76.85 18.05 -75.15 16.75 -74.65 L17.85 -73.7 Q19.05 -72.9 20.7 -72.9 L25.3 -73.65 27.85 -73.05 Q29.4 -72.5 30.5 -72.5 L33.2 -73.15 Q35.35 -73.9 35.9 -74.45 32.1 -74.7 29.4 -76.75 26.55 -78.9 26.3 -82.1 M31.3 -88.65 L30.5 -88.65 29.35 -85.15 33.2 -83.15 34.75 -83.25 34.75 -83.65 Q33.15 -84.05 32.15 -85.7 31.25 -87.2 31.3 -88.65 M23.1 -55.2 Q22.65 -55.2 20.45 -56.3 19.6 -56.7 19.0 -57.05 23.45 -56.95 30.8 -59.5 L30.8 -59.0 Q30.25 -57.6 27.6 -56.35 25.05 -55.2 23.1 -55.2 M33.75 -48.4 L38.15 -47.1 43.35 -46.6 48.45 -47.45 Q51.0 -48.1 52.35 -48.65 L48.05 -44.95 Q44.4 -42.0 41.3 -42.0 L38.15 -42.5 38.15 -42.25 41.5 -38.0 Q34.1 -38.45 28.75 -34.2 21.8 -28.35 16.35 -28.35 11.65 -28.35 8.5 -31.4 8.1 -30.8 6.45 -30.2 L4.05 -29.65 Q-1.75 -29.65 -7.85 -32.15 -3.95 -33.15 3.15 -35.45 1.45 -35.5 0.05 -37.4 L-1.9 -40.5 Q3.35 -39.65 8.75 -44.85 11.3 -43.2 14.85 -42.6 L20.9 -41.75 25.25 -41.75 25.25 -42.0 Q21.95 -41.8 18.1 -47.35 L18.1 -48.9 Q24.85 -46.85 26.6 -46.85 28.5 -46.85 30.75 -47.6 33.0 -48.4 33.75 -48.4 M34.35 -46.05 L33.6 -46.05 Q32.7 -44.8 29.65 -44.8 L24.35 -45.25 24.35 -44.9 28.2 -43.7 Q27.75 -43.25 27.15 -41.5 L26.15 -39.6 25.8 -39.5 Q23.7 -38.75 20.9 -38.75 L15.35 -38.9 Q14.05 -39.15 9.8 -41.4 L5.05 -37.0 Q7.3 -33.85 9.65 -32.8 11.9 -31.85 17.1 -31.85 21.85 -31.85 24.9 -34.65 29.75 -39.1 31.3 -39.9 L31.3 -40.25 36.25 -40.25 Q33.3 -43.6 34.35 -46.05 M29.75 -40.2 L29.75 -40.25 30.95 -40.25 29.75 -40.2 M110.35 -78.25 L109.95 -78.25 Q107.0 -76.75 105.25 -75.95 102.1 -74.45 99.0 -74.45 L98.2 -74.55 98.45 -73.3 Q98.45 -70.7 96.1 -69.1 94.55 -68.0 92.55 -67.6 94.65 -66.85 98.5 -66.15 L105.75 -64.85 Q105.25 -68.05 106.9 -71.75 L110.35 -78.25 M113.15 -80.75 Q114.65 -79.75 115.7 -79.75 L116.35 -79.8 Q115.05 -77.0 111.45 -73.6 108.1 -70.45 108.1 -69.5 L109.1 -63.55 108.85 -60.5 Q97.15 -65.35 91.4 -65.35 L87.9 -64.85 Q91.9 -73.8 92.6 -78.0 L96.7 -77.25 Q101.05 -77.25 105.9 -79.5 L111.25 -81.75 Q111.65 -81.75 113.15 -80.75 M-38.55 -166.15 Q-39.6 -164.35 -49.7 -158.1 L-52.1 -157.25 Q-53.45 -156.65 -54.3 -153.85 L-55.25 -150.35 Q-56.0 -148.35 -57.75 -147.35 L-56.55 -144.9 -56.15 -143.55 -55.05 -143.9 -53.5 -143.8 Q-53.0 -143.6 -52.4 -142.35 -50.65 -145.25 -44.7 -146.95 -46.85 -152.25 -42.95 -158.15 -39.45 -163.45 -35.1 -164.6 L-35.1 -165.0 Q-36.1 -165.0 -38.55 -166.15 M-38.35 -170.75 L-38.1 -170.5 Q-37.1 -166.95 -29.75 -165.7 L-29.75 -165.45 Q-31.85 -165.35 -37.2 -160.25 -43.2 -154.55 -43.2 -150.5 -43.2 -149.2 -42.45 -147.45 -49.25 -145.0 -51.25 -139.4 -51.9 -139.95 -52.85 -140.35 -55.25 -141.4 -57.4 -140.85 -57.05 -142.3 -58.8 -144.1 L-60.0 -145.15 Q-57.45 -149.5 -57.15 -152.0 -57.1 -155.65 -56.7 -157.15 -56.0 -159.7 -52.75 -160.65 -47.0 -162.35 -44.2 -164.25 -41.4 -166.25 -38.35 -170.75 M-19.1 -75.0 L-16.35 -75.5 -16.6 -75.0 -22.15 -69.0 Q-26.9 -64.1 -30.65 -64.1 -31.5 -64.1 -32.5 -64.85 L-32.5 -63.95 Q-32.5 -62.25 -29.45 -58.85 -26.7 -55.85 -23.95 -53.95 -25.35 -53.2 -29.65 -53.2 -32.5 -53.2 -36.5 -54.25 -40.9 -55.4 -42.2 -56.75 L-42.2 -56.5 -39.4 -52.95 -40.0 -52.95 Q-41.95 -52.95 -45.05 -55.6 L-47.85 -58.25 -51.25 -57.25 -56.75 -57.9 Q-61.8 -58.65 -63.2 -59.5 -59.35 -59.4 -56.1 -63.6 -58.25 -64.4 -63.45 -67.9 -68.5 -71.35 -69.55 -73.45 L-65.75 -72.7 Q-61.2 -72.7 -59.6 -73.4 L-53.45 -75.05 -57.35 -75.2 Q-60.6 -75.65 -61.7 -76.5 -56.85 -77.4 -55.35 -79.9 L-55.35 -80.25 Q-60.8 -80.2 -65.6 -82.5 -71.25 -85.15 -71.85 -89.45 L-71.85 -91.7 -71.25 -91.7 Q-70.75 -90.95 -69.4 -90.95 -66.3 -90.95 -61.1 -92.0 -56.95 -92.8 -55.25 -93.6 -54.85 -92.65 -53.85 -91.45 -52.25 -89.55 -52.25 -87.5 -52.25 -85.6 -53.35 -83.2 -53.35 -81.6 -50.75 -79.6 -49.3 -78.45 -47.95 -77.9 -42.7 -72.35 -35.1 -73.45 -43.7 -78.15 -44.65 -82.05 -41.8 -80.2 -39.85 -79.65 -37.7 -79.0 -33.7 -79.0 L-28.1 -80.0 -24.5 -77.5 Q-20.9 -75.0 -19.1 -75.0 M-34.1 -75.05 Q-32.85 -74.0 -30.5 -73.65 -30.8 -71.95 -33.25 -70.25 L-34.75 -69.35 Q-32.2 -69.35 -28.5 -70.35 -24.05 -71.55 -22.05 -72.9 L-21.7 -72.9 Q-27.35 -73.2 -30.15 -76.75 -30.6 -76.75 -32.95 -75.55 -33.55 -75.25 -34.1 -75.05 M-37.25 -68.65 Q-40.6 -68.65 -45.1 -70.3 -49.6 -71.95 -49.7 -73.3 -51.35 -71.15 -55.6 -69.45 -60.1 -67.7 -62.75 -68.65 -58.1 -65.35 -51.6 -65.2 -51.7 -64.6 -53.9 -61.75 L-54.2 -61.75 -51.65 -61.4 Q-48.1 -61.4 -47.4 -62.55 -42.1 -60.0 -31.65 -56.4 L-31.3 -56.4 Q-33.3 -57.2 -36.25 -61.75 L-36.25 -68.75 -37.25 -68.65 M-56.2 -84.8 L-57.35 -88.65 Q-59.95 -86.8 -63.75 -86.2 -62.05 -85.4 -58.9 -84.4 L-56.6 -84.4 -56.2 -84.8" fill="#844823" fill-rule="evenodd" stroke="none"/>
      <path d="M66.6 -174.2 Q65.05 -179.0 60.6 -182.2 56.2 -185.3 51.6 -184.95 L49.45 -184.95 Q49.45 -186.7 47.4 -187.65 51.1 -189.85 52.75 -191.95 54.8 -194.65 55.1 -198.8 55.0 -193.55 56.15 -190.95 57.65 -187.45 62.0 -186.5 64.6 -185.95 65.55 -181.45 L66.6 -174.6 66.6 -174.2 M54.7 -190.35 L54.3 -190.35 51.6 -187.25 Q55.25 -186.1 56.25 -186.1 54.15 -189.1 54.7 -190.35 M34.75 -102.05 Q32.95 -98.95 31.3 -97.6 34.0 -95.85 39.3 -93.3 46.6 -89.8 49.7 -89.8 51.0 -89.8 53.15 -90.55 L49.8 -94.85 Q47.5 -97.65 47.4 -99.35 44.05 -98.65 40.2 -99.2 35.6 -99.9 34.75 -102.05 M34.75 -105.9 Q35.35 -104.35 38.9 -103.3 41.85 -102.45 44.5 -102.45 L48.55 -102.85 48.55 -103.2 Q49.15 -100.8 52.65 -96.7 56.65 -92.05 57.75 -89.8 55.55 -89.8 54.15 -89.0 52.75 -88.25 51.25 -88.25 47.4 -88.25 39.15 -91.1 L29.35 -94.75 Q29.35 -94.35 30.5 -92.1 27.5 -91.3 25.15 -91.3 22.6 -91.3 20.05 -93.0 17.8 -94.5 17.3 -96.25 17.8 -95.55 19.75 -95.55 22.85 -95.55 27.05 -98.2 25.0 -99.5 24.75 -100.55 28.45 -100.25 30.8 -102.4 L34.75 -105.9 M63.15 -84.8 Q59.45 -83.5 59.3 -84.3 60.25 -84.85 61.45 -86.1 63.05 -87.8 63.5 -89.0 L65.95 -88.45 68.9 -88.25 69.3 -88.25 Q67.15 -86.25 63.15 -84.8 M31.3 -88.65 Q31.25 -87.2 32.15 -85.7 33.15 -84.05 34.75 -83.65 L34.75 -83.25 33.2 -83.15 29.35 -85.15 30.5 -88.65 31.3 -88.65 M26.3 -82.1 Q26.55 -78.9 29.4 -76.75 32.1 -74.7 35.9 -74.45 35.35 -73.9 33.2 -73.15 L30.5 -72.5 Q29.4 -72.5 27.85 -73.05 L25.3 -73.65 20.7 -72.9 Q19.05 -72.9 17.85 -73.7 L16.75 -74.65 Q18.05 -75.15 19.55 -76.85 21.8 -79.4 20.55 -80.95 24.05 -80.65 26.3 -82.1 M23.2 -78.65 Q23.1 -76.75 21.8 -75.45 L25.1 -74.05 28.2 -74.45 Q26.55 -74.65 25.7 -75.9 L23.6 -79.05 Q23.6 -78.65 23.2 -78.65 M34.35 -46.05 Q33.3 -43.6 36.25 -40.25 L31.3 -40.25 31.3 -39.9 Q29.75 -39.1 24.9 -34.65 21.85 -31.85 17.1 -31.85 11.9 -31.85 9.65 -32.8 7.3 -33.85 5.05 -37.0 L9.8 -41.4 Q14.05 -39.15 15.35 -38.9 L20.9 -38.75 Q23.7 -38.75 25.8 -39.5 L26.15 -39.6 27.15 -41.5 Q27.75 -43.25 28.2 -43.7 L24.35 -44.9 24.35 -45.25 29.65 -44.8 Q32.7 -44.8 33.6 -46.05 L34.35 -46.05 M29.75 -40.2 L30.95 -40.25 29.75 -40.25 29.75 -40.2 M13.15 -37.25 Q10.8 -38.65 10.55 -39.1 10.55 -37.85 9.0 -36.3 10.45 -33.35 14.95 -33.35 19.8 -33.35 22.45 -37.2 19.55 -35.65 16.9 -35.65 15.75 -35.65 13.15 -37.25 M110.35 -78.25 L106.9 -71.75 Q105.25 -68.05 105.75 -64.85 L98.5 -66.15 Q94.65 -66.85 92.55 -67.6 94.55 -68.0 96.1 -69.1 98.45 -70.7 98.45 -73.3 L98.2 -74.55 99.0 -74.45 Q102.1 -74.45 105.25 -75.95 107.0 -76.75 109.95 -78.25 L110.35 -78.25 M99.65 -68.6 L100.75 -68.3 102.65 -68.3 Q102.1 -70.75 104.6 -72.1 L104.6 -72.5 100.0 -72.5 99.65 -68.6 M-38.55 -166.15 Q-36.1 -165.0 -35.1 -165.0 L-35.1 -164.6 Q-39.45 -163.45 -42.95 -158.15 -46.85 -152.25 -44.7 -146.95 -50.65 -145.25 -52.4 -142.35 -53.0 -143.6 -53.5 -143.8 L-55.05 -143.9 -56.15 -143.55 -56.55 -144.9 -57.75 -147.35 Q-56.0 -148.35 -55.25 -150.35 L-54.3 -153.85 Q-53.45 -156.65 -52.1 -157.25 L-49.7 -158.1 Q-39.6 -164.35 -38.55 -166.15 M-53.3 -148.6 Q-52.9 -147.6 -53.55 -146.2 -51.6 -146.95 -49.8 -147.3 -48.0 -148.05 -48.15 -150.8 -48.35 -154.45 -45.85 -157.7 L-46.45 -157.7 -50.4 -153.9 Q-53.9 -150.3 -53.9 -149.65 L-53.3 -148.6 M-37.25 -68.65 L-36.25 -68.75 -36.25 -61.75 Q-33.3 -57.2 -31.3 -56.4 L-31.65 -56.4 Q-42.1 -60.0 -47.4 -62.55 -48.1 -61.4 -51.65 -61.4 L-54.2 -61.75 -53.9 -61.75 Q-51.7 -64.6 -51.6 -65.2 -58.1 -65.35 -62.75 -68.65 -60.1 -67.7 -55.6 -69.45 -51.35 -71.15 -49.7 -73.3 -49.6 -71.95 -45.1 -70.3 -40.6 -68.65 -37.25 -68.65 M-34.1 -75.05 Q-33.55 -75.25 -32.95 -75.55 -30.6 -76.75 -30.15 -76.75 -27.35 -73.2 -21.7 -72.9 L-22.05 -72.9 Q-24.05 -71.55 -28.5 -70.35 -32.2 -69.35 -34.75 -69.35 L-33.25 -70.25 Q-30.8 -71.95 -30.5 -73.65 -32.85 -74.0 -34.1 -75.05 M-38.55 -61.75 Q-38.55 -65.6 -38.2 -66.75 L-44.65 -67.65 Q-48.4 -68.65 -49.3 -70.2 -50.4 -69.1 -51.7 -68.4 L-50.0 -67.2 Q-48.65 -65.85 -48.9 -64.5 -46.05 -64.95 -43.3 -64.0 L-38.55 -61.75 M-56.2 -84.8 L-56.6 -84.4 -58.9 -84.4 Q-62.05 -85.4 -63.75 -86.2 -59.95 -86.8 -57.35 -88.65 L-56.2 -84.8" fill="#ffcc00" fill-rule="evenodd" stroke="none"/>
      <path d="M54.7 -190.35 Q54.15 -189.1 56.25 -186.1 55.25 -186.1 51.6 -187.25 L54.3 -190.35 54.7 -190.35 M34.75 -102.05 Q35.6 -99.9 40.2 -99.2 44.05 -98.65 47.4 -99.35 47.5 -97.65 49.8 -94.85 L53.15 -90.55 Q51.0 -89.8 49.7 -89.8 46.6 -89.8 39.3 -93.3 34.0 -95.85 31.3 -97.6 32.95 -98.95 34.75 -102.05 M46.25 -96.3 L45.5 -96.3 Q44.75 -95.55 43.95 -95.55 40.45 -95.55 37.9 -96.55 40.95 -93.75 48.15 -92.1 L48.15 -92.85 Q46.35 -94.35 46.25 -96.3 M23.2 -78.65 Q23.6 -78.65 23.6 -79.05 L25.7 -75.9 Q26.55 -74.65 28.2 -74.45 L25.1 -74.05 21.8 -75.45 Q23.1 -76.75 23.2 -78.65 M13.15 -37.25 Q15.75 -35.65 16.9 -35.65 19.55 -35.65 22.45 -37.2 19.8 -33.35 14.95 -33.35 10.45 -33.35 9.0 -36.3 10.55 -37.85 10.55 -39.1 10.8 -38.65 13.15 -37.25 M99.65 -68.6 L100.0 -72.5 104.6 -72.5 104.6 -72.1 Q102.1 -70.75 102.65 -68.3 L100.75 -68.3 99.65 -68.6 M-53.3 -148.6 L-53.9 -149.65 Q-53.9 -150.3 -50.4 -153.9 L-46.45 -157.7 -45.85 -157.7 Q-48.35 -154.45 -48.15 -150.8 -48.0 -148.05 -49.8 -147.3 -51.6 -146.95 -53.55 -146.2 -52.9 -147.6 -53.3 -148.6 M-38.55 -61.75 L-43.3 -64.0 Q-46.05 -64.95 -48.9 -64.5 -48.65 -65.85 -50.0 -67.2 L-51.7 -68.4 Q-50.4 -69.1 -49.3 -70.2 -48.4 -68.65 -44.65 -67.65 L-38.2 -66.75 Q-38.55 -65.6 -38.55 -61.75" fill="#ffff00" fill-rule="evenodd" stroke="none"/>
      <path d="M46.25 -96.3 Q46.35 -94.35 48.15 -92.85 L48.15 -92.1 Q40.95 -93.75 37.9 -96.55 40.45 -95.55 43.95 -95.55 44.75 -95.55 45.5 -96.3 L46.25 -96.3" fill="#ffffff" fill-rule="evenodd" stroke="none"/>
    </g>
  </defs>
</svg>
