<?xml version="1.0" encoding="UTF-8" standalone="no"?>
<svg xmlns:ffdec="https://www.free-decompiler.com/flash" xmlns:xlink="http://www.w3.org/1999/xlink" ffdec:objectType="frame" height="513.9px" width="383.5px" xmlns="http://www.w3.org/2000/svg">
  <g transform="matrix(1.0, 0.0, 0.0, 1.0, 183.4, 511.25)">
    <use ffdec:characterId="209" height="431.7" transform="matrix(1.0, 0.0, 0.0, 1.0, -166.05, -434.85)" width="352.85" xlink:href="#shape0"/>
  </g>
  <defs>
    <g id="shape0" transform="matrix(1.0, 0.0, 0.0, 1.0, 166.05, 434.85)">
      <path d="M75.0 -390.1 Q71.4 -386.8 63.2 -385.85 63.8 -383.7 64.0 -380.85 L68.5 -380.1 68.5 -370.5 Q68.95 -370.5 69.8 -371.0 L71.25 -371.5 Q73.05 -371.5 74.35 -370.45 75.6 -369.5 75.5 -368.5 79.8 -369.9 82.55 -371.7 83.7 -372.5 87.75 -372.5 93.15 -372.5 94.5 -370.5 95.5 -369.05 95.5 -363.25 95.5 -361.9 93.0 -357.5 94.15 -357.5 96.55 -356.35 L98.55 -355.35 Q99.0 -357.3 99.25 -361.3 100.1 -365.05 103.5 -365.5 L108.95 -366.7 114.0 -367.5 117.2 -364.6 121.5 -360.0 Q122.25 -359.1 126.0 -358.1 129.0 -357.25 129.0 -355.0 L128.8 -354.25 Q131.75 -352.95 134.95 -349.25 L135.05 -349.55 136.1 -353.65 Q136.0 -351.4 134.6 -348.55 132.3 -343.9 131.45 -341.35 L133.55 -339.7 Q134.1 -330.45 134.5 -328.0 136.35 -329.65 137.2 -329.9 L140.25 -330.0 Q143.6 -330.0 149.25 -327.0 150.75 -327.0 153.2 -328.5 155.65 -330.0 158.0 -330.0 163.65 -330.0 167.9 -325.5 171.9 -321.3 171.9 -316.5 170.75 -311.3 170.4 -311.0 L172.65 -311.5 Q175.2 -311.5 177.4 -307.5 179.4 -303.95 179.4 -301.0 179.4 -298.5 178.4 -291.5 179.1 -290.9 182.5 -288.85 L183.4 -288.75 183.05 -285.35 Q182.25 -277.75 170.8 -269.55 167.9 -267.5 167.05 -264.6 L165.7 -260.5 Q163.7 -257.7 152.25 -256.95 147.15 -254.55 142.3 -254.55 L140.7 -254.55 142.6 -252.55 Q147.6 -246.8 148.6 -243.6 L144.6 -250.15 143.75 -250.1 Q143.75 -248.2 142.85 -246.45 L140.0 -242.0 Q144.45 -239.05 147.55 -235.8 L147.15 -234.95 Q144.9 -230.05 140.65 -227.9 L145.85 -225.15 Q145.4 -222.95 144.0 -220.5 144.0 -219.5 147.85 -215.3 150.45 -212.45 152.0 -209.8 151.35 -206.75 149.9 -203.25 146.9 -196.0 143.25 -194.25 136.1 -190.8 130.65 -187.15 L123.85 -182.15 Q120.85 -180.0 118.15 -179.2 115.35 -178.4 110.7 -178.25 110.15 -174.25 107.9 -170.3 103.35 -162.3 93.85 -162.3 90.95 -162.3 88.5 -163.1 88.05 -158.25 86.85 -152.7 85.5 -146.65 83.55 -143.3 L89.3 -143.6 Q95.75 -143.6 99.3 -135.35 100.05 -138.6 101.55 -142.05 L101.85 -141.75 Q106.75 -145.8 108.55 -146.7 113.15 -149.0 121.75 -149.0 L127.05 -148.8 131.35 -145.6 Q131.05 -147.95 135.3 -150.9 139.75 -154.0 142.75 -154.0 146.95 -154.0 148.2 -152.75 149.3 -151.7 150.0 -147.5 L155.75 -148.5 160.4 -148.2 Q162.5 -147.45 162.5 -144.0 163.4 -144.05 166.4 -146.05 169.3 -148.0 171.4 -148.0 176.1 -148.0 178.9 -144.0 181.4 -140.45 181.4 -135.5 L181.05 -128.6 181.8 -128.6 177.4 -124.15 Q173.7 -120.55 173.25 -118.25 L173.1 -112.4 Q173.0 -107.8 171.7 -104.75 167.7 -95.35 150.65 -95.35 145.3 -95.35 135.85 -99.25 133.2 -100.35 131.25 -101.35 L128.5 -98.45 Q125.55 -95.65 122.1 -94.05 121.55 -92.85 119.6 -91.3 117.15 -89.3 115.45 -88.8 L116.45 -86.1 120.0 -86.35 120.65 -86.3 121.65 -86.35 Q127.4 -86.35 127.4 -74.65 127.4 -64.9 124.35 -57.95 117.75 -43.1 99.4 -43.1 93.55 -44.75 91.9 -44.75 91.25 -44.75 89.55 -44.0 L88.8 -43.65 87.05 -43.15 85.1 -42.8 85.7 -41.9 85.65 -41.8 Q86.75 -39.8 87.45 -36.5 88.35 -32.2 88.25 -27.85 88.25 -26.65 86.85 -24.05 L86.9 -24.0 86.85 -24.0 82.75 -17.7 Q76.6 -9.0 72.25 -9.0 68.4 -10.35 66.8 -10.35 65.25 -10.35 63.7 -9.35 L60.25 -7.05 Q54.0 -3.8 39.65 -3.8 35.45 -3.8 30.15 -5.1 28.75 -4.2 26.8 -4.2 18.1 -4.2 12.85 -5.3 L2.95 -6.4 Q-13.25 -3.55 -17.05 -3.55 L-19.95 -3.95 -31.9 -3.15 Q-39.0 -3.15 -44.05 -9.05 -47.7 -13.4 -47.7 -15.4 -45.9 -21.6 -45.9 -22.65 -50.8 -31.1 -51.8 -34.55 -67.85 -35.8 -67.85 -48.4 -67.85 -51.2 -66.3 -53.95 -64.35 -57.4 -60.75 -58.8 L-63.5 -65.9 Q-63.7 -66.7 -63.7 -70.65 -63.7 -73.5 -59.95 -80.55 -57.75 -84.65 -55.6 -86.75 -60.55 -91.5 -61.75 -93.1 -64.8 -97.2 -64.85 -103.35 -67.9 -102.25 -72.15 -102.2 L-71.25 -98.3 Q-70.5 -93.75 -70.6 -89.0 -70.6 -66.7 -94.15 -66.7 -109.4 -66.7 -116.85 -85.35 -119.15 -91.1 -120.35 -97.95 L-120.2 -97.2 -119.2 -92.65 Q-118.75 -96.95 -117.6 -99.7 L-115.4 -104.45 Q-113.8 -107.95 -112.5 -112.0 -111.45 -115.45 -108.55 -116.85 -104.85 -118.6 -104.5 -119.0 -99.25 -125.5 -93.5 -125.5 -90.65 -125.5 -89.55 -124.65 L-89.35 -124.85 -94.25 -129.6 Q-97.9 -132.75 -102.5 -132.0 L-102.5 -136.0 Q-100.8 -138.5 -97.1 -145.5 -93.05 -151.25 -87.0 -151.0 -87.8 -153.6 -90.45 -154.85 -94.7 -156.85 -95.5 -157.5 L-97.2 -157.5 -96.45 -159.55 -96.2 -160.15 Q-103.65 -161.75 -109.4 -170.3 -111.85 -173.9 -113.45 -178.05 L-113.85 -179.15 Q-116.45 -180.4 -118.85 -183.45 -118.6 -186.25 -117.9 -188.8 -116.4 -194.2 -116.0 -197.0 -115.4 -201.55 -112.2 -203.5 -109.75 -205.05 -104.5 -205.5 -106.35 -211.25 -100.9 -215.15 -96.25 -218.5 -90.0 -218.5 -87.2 -218.5 -85.0 -216.5 -83.2 -214.85 -82.7 -212.6 -80.8 -210.75 -78.85 -209.95 L-78.75 -210.6 -79.15 -206.85 -76.15 -202.35 Q-73.2 -197.9 -73.2 -195.2 L-73.2 -194.8 -71.25 -195.2 -65.5 -195.85 -64.75 -195.85 -64.85 -196.9 Q-64.85 -200.05 -61.4 -203.2 -59.5 -204.95 -57.35 -205.8 -58.6 -207.55 -59.6 -210.0 -60.65 -212.55 -61.3 -215.6 L-61.75 -218.3 Q-61.75 -219.1 -60.9 -220.3 -60.1 -221.55 -60.1 -222.35 L-62.25 -229.75 Q-64.4 -237.05 -64.4 -242.75 L-64.05 -245.2 Q-67.85 -246.6 -73.4 -250.2 -83.75 -256.8 -85.0 -263.15 -84.65 -266.9 -84.8 -268.5 -85.05 -271.2 -89.75 -272.65 L-95.85 -277.95 Q-96.65 -276.0 -97.8 -274.1 -95.1 -272.8 -93.5 -267.3 -92.45 -263.65 -92.2 -259.8 -92.2 -252.1 -97.2 -246.0 -105.8 -235.5 -126.4 -235.5 -142.65 -235.5 -151.9 -247.25 L-151.75 -247.45 Q-153.0 -250.3 -153.0 -251.75 -153.0 -253.7 -150.9 -255.85 -148.85 -257.95 -146.5 -258.5 -147.45 -261.3 -146.45 -266.15 -145.4 -271.35 -143.0 -273.0 -141.55 -274.0 -135.65 -275.45 -131.3 -276.55 -130.2 -278.1 L-130.1 -278.3 -130.0 -278.4 Q-128.05 -278.2 -126.45 -279.85 -124.15 -282.15 -123.0 -282.5 L-118.0 -283.0 Q-118.0 -286.45 -117.5 -288.0 -116.3 -291.5 -112.0 -293.65 -107.6 -295.8 -102.6 -295.1 -105.75 -298.0 -108.0 -298.0 -116.05 -298.0 -119.0 -293.0 -119.5 -295.0 -121.3 -296.7 -122.25 -297.55 -123.05 -297.85 -127.2 -300.0 -131.5 -300.0 -136.35 -300.0 -139.25 -297.7 -142.35 -295.25 -142.05 -290.85 L-146.1 -290.55 Q-148.75 -290.55 -153.85 -293.5 L-153.35 -293.25 -154.25 -295.65 Q-155.5 -299.55 -155.5 -303.25 -155.5 -308.15 -150.0 -315.5 -144.0 -323.5 -138.25 -323.5 -133.7 -323.5 -130.8 -320.75 -127.85 -318.0 -127.25 -318.0 -126.25 -318.0 -124.85 -319.3 L-124.95 -320.15 Q-124.95 -324.85 -121.0 -324.85 L-120.85 -324.85 -119.4 -325.8 Q-118.0 -326.35 -118.0 -328.25 -118.0 -329.5 -117.25 -330.15 -120.85 -332.55 -126.5 -331.0 L-126.5 -332.0 -122.65 -337.9 Q-120.7 -340.3 -118.1 -340.8 L-118.0 -340.85 Q-117.8 -343.9 -114.5 -346.0 -111.35 -348.0 -107.75 -348.0 -102.85 -348.0 -97.25 -345.45 -91.8 -343.0 -91.5 -341.0 -90.0 -341.0 -87.0 -342.0 -83.65 -342.0 -81.55 -338.6 L-78.5 -339.0 Q-74.25 -339.0 -72.8 -336.8 -71.85 -335.3 -69.5 -330.0 -68.85 -328.85 -68.8 -326.1 -68.75 -323.5 -68.0 -322.5 -67.1 -322.35 -65.7 -320.5 -64.3 -318.6 -64.5 -317.5 -61.2 -318.55 -57.45 -317.45 L-57.0 -317.5 -56.85 -317.5 Q-55.9 -317.45 -55.0 -316.75 -54.05 -316.0 -53.0 -316.0 -50.65 -316.0 -44.75 -321.75 L-44.0 -322.5 -39.5 -323.0 Q-40.95 -325.15 -42.8 -329.8 L-43.95 -332.85 -44.35 -333.1 Q-46.5 -334.4 -46.5 -335.75 -46.5 -336.35 -43.75 -339.3 L-41.0 -342.25 Q-41.0 -343.5 -42.0 -349.0 -42.0 -350.4 -40.5 -352.0 -39.1 -353.5 -38.25 -353.5 -37.35 -353.5 -36.45 -352.85 -35.35 -357.15 -32.1 -360.4 L-31.95 -360.55 -31.4 -361.05 -30.5 -362.0 Q-29.15 -363.2 -26.9 -363.65 L-19.5 -364.0 Q-20.7 -366.7 -17.45 -369.9 -14.35 -373.0 -11.25 -373.0 -9.95 -373.0 -8.05 -372.2 L-7.9 -372.35 Q-4.85 -374.5 -3.0 -374.5 -0.75 -374.5 1.05 -372.5 L4.0 -369.5 5.45 -371.7 6.5 -373.75 Q6.5 -374.35 6.0 -374.6 5.5 -374.85 5.4 -375.65 5.3 -376.45 6.85 -377.15 8.35 -377.9 9.5 -386.05 7.25 -389.0 5.7 -394.75 L5.35 -396.1 Q6.55 -401.75 10.75 -406.2 15.75 -411.5 21.5 -411.5 L23.2 -410.75 Q24.75 -410.0 25.75 -410.0 29.75 -410.0 33.5 -411.5 34.3 -411.8 36.1 -413.9 37.45 -415.5 40.0 -415.5 L41.9 -415.25 Q42.95 -416.35 44.6 -417.35 48.3 -419.5 51.75 -419.5 57.3 -419.5 63.0 -415.5 69.5 -410.95 69.5 -404.75 69.5 -403.5 68.5 -401.5 L73.25 -396.6 Q75.0 -394.3 75.0 -390.75 L75.0 -390.1 M167.4 -283.0 Q166.6 -283.8 165.15 -286.0 164.85 -286.5 162.75 -286.5 L161.95 -286.45 161.35 -287.5 Q159.15 -291.5 154.75 -291.5 152.1 -291.5 149.65 -289.5 147.25 -287.5 145.75 -287.5 145.0 -287.5 143.0 -288.25 141.0 -289.0 140.0 -289.0 L131.55 -286.05 Q136.6 -284.75 144.5 -279.5 145.8 -279.5 147.3 -280.5 148.75 -281.5 149.5 -281.5 L152.0 -281.1 152.15 -281.25 Q153.0 -282.2 153.75 -282.4 L156.5 -282.5 Q160.7 -282.5 164.0 -278.0 166.25 -274.95 166.75 -272.15 167.4 -273.55 167.4 -276.0 L167.2 -278.45 167.2 -278.5 167.4 -278.5 167.4 -283.0 M111.55 -300.9 Q112.2 -302.8 113.3 -304.85 115.95 -309.85 119.55 -313.15 113.15 -311.55 106.15 -314.85 97.15 -315.3 92.55 -322.0 89.55 -326.4 89.55 -329.7 89.55 -331.8 91.45 -337.4 L91.55 -337.6 91.5 -337.6 Q88.9 -336.2 86.8 -336.2 85.0 -336.2 83.2 -337.3 81.4 -338.4 80.55 -338.4 77.65 -333.6 73.4 -328.5 64.95 -318.25 57.6 -316.5 58.25 -315.0 58.25 -312.4 56.8 -302.65 56.8 -301.05 59.4 -297.2 59.4 -294.2 L59.4 -293.15 Q56.75 -297.05 55.15 -298.25 52.25 -300.5 46.75 -300.5 42.1 -300.5 38.25 -295.75 L38.0 -296.0 Q34.65 -294.1 33.5 -290.0 L33.65 -289.7 Q39.95 -292.0 40.75 -292.0 44.75 -292.0 48.85 -287.45 L54.5 -280.5 54.5 -280.0 54.3 -280.1 Q49.45 -283.0 46.25 -283.0 45.05 -283.0 42.35 -281.2 L39.75 -279.2 39.5 -279.5 32.0 -281.5 Q26.45 -281.5 24.7 -275.5 23.75 -272.3 23.0 -267.0 L23.2 -266.55 Q26.9 -268.4 32.2 -270.5 41.25 -274.0 45.5 -274.0 51.15 -274.0 53.5 -270.25 L54.9 -267.65 Q55.6 -266.5 56.5 -266.5 57.75 -266.5 60.25 -268.0 62.75 -269.5 64.25 -269.5 65.5 -269.5 67.75 -268.5 L69.4 -268.85 69.75 -268.95 Q71.55 -272.0 79.5 -272.0 80.45 -272.0 82.8 -271.0 85.1 -270.0 85.5 -269.5 85.25 -271.85 81.6 -273.65 L75.85 -275.85 75.55 -276.05 Q73.85 -277.15 72.05 -277.85 L71.8 -277.95 72.15 -278.0 Q69.3 -280.55 68.05 -283.4 69.35 -288.9 73.35 -291.4 77.55 -294.0 86.25 -294.0 88.0 -294.0 89.4 -292.95 91.1 -291.75 92.5 -291.5 L99.0 -291.0 Q100.4 -290.3 101.25 -289.0 L101.5 -289.0 101.75 -287.95 102.0 -285.75 101.95 -285.4 Q101.8 -284.65 101.05 -283.0 100.2 -281.1 100.5 -280.0 108.75 -279.05 111.75 -278.05 117.85 -275.9 118.0 -271.25 L118.0 -275.0 Q116.6 -284.75 113.0 -284.0 113.0 -285.9 115.5 -289.75 115.5 -290.95 113.5 -294.95 111.7 -298.5 111.55 -300.9 M59.4 -293.05 Q59.3 -287.3 58.5 -283.55 L58.6 -283.95 58.8 -285.05 59.4 -293.05 M54.05 -248.9 Q50.4 -245.0 47.15 -235.35 48.45 -237.55 51.7 -242.35 54.25 -246.55 54.2 -249.1 L54.05 -248.9 M-25.75 -309.5 Q-32.95 -309.5 -38.5 -304.0 L-40.55 -301.6 Q-41.05 -287.8 -37.0 -279.5 L-37.2 -279.2 Q-39.0 -280.9 -41.7 -282.05 L-41.8 -282.05 -41.5 -281.95 -41.95 -281.95 -43.75 -281.75 -45.3 -281.9 Q-48.4 -281.55 -48.5 -280.0 -51.0 -282.5 -56.25 -282.5 -61.0 -282.5 -65.3 -277.25 -69.5 -272.05 -69.05 -266.5 L-69.5 -266.5 -69.5 -265.25 Q-69.5 -262.5 -66.85 -260.1 L-63.5 -257.0 Q-63.05 -257.95 -60.85 -258.95 -58.6 -260.0 -57.0 -260.0 L-53.5 -259.5 -57.75 -256.15 Q-61.0 -253.55 -61.0 -252.25 -61.0 -250.85 -59.95 -250.0 L-58.75 -248.95 Q-55.75 -248.45 -53.1 -246.2 -50.0 -243.6 -50.0 -240.5 -56.1 -237.9 -57.0 -234.0 -59.0 -225.85 -59.0 -224.75 -59.0 -223.5 -58.5 -222.0 L-57.95 -221.9 Q-57.0 -229.6 -50.7 -233.05 -46.6 -235.3 -41.0 -235.45 L-40.5 -235.5 Q-37.85 -235.7 -35.55 -237.75 -33.55 -239.55 -31.0 -238.5 -31.85 -241.9 -29.2 -244.3 -26.8 -246.5 -23.5 -246.5 L-23.05 -246.5 -20.5 -243.5 Q-19.6 -242.6 -17.55 -241.8 -15.5 -241.0 -14.5 -240.0 L-13.95 -239.9 Q-13.0 -246.5 -3.25 -246.5 -2.55 -246.5 -1.75 -245.75 L-1.3 -246.4 -6.95 -250.55 Q-11.05 -252.65 -15.5 -251.0 -15.5 -253.65 -18.5 -256.05 L-21.5 -258.0 Q-21.5 -259.65 -16.7 -262.0 -12.55 -264.0 -11.75 -264.0 L-11.5 -264.5 Q-15.45 -266.5 -16.5 -266.5 -19.2 -266.5 -22.1 -265.15 -25.3 -263.35 -27.0 -262.5 L-27.0 -264.0 Q-30.3 -264.0 -31.9 -265.5 -33.55 -267.0 -35.75 -267.0 L-39.2 -266.55 -39.5 -268.25 Q-39.5 -271.45 -36.0 -273.9 -32.5 -276.35 -32.5 -277.25 -33.5 -282.25 -33.5 -283.5 -33.5 -298.5 -19.25 -298.5 -6.85 -298.5 -1.05 -289.85 L-0.95 -289.95 Q-1.0 -297.0 -8.75 -303.15 -16.75 -309.5 -25.75 -309.5 M13.5 -180.5 Q16.75 -180.5 18.85 -178.75 22.25 -175.85 23.0 -175.5 22.1 -179.05 19.4 -181.9 16.4 -185.0 13.0 -185.0 L9.5 -184.85 Q8.8 -184.65 8.0 -184.1 9.1 -183.45 9.65 -182.55 L11.0 -179.5 Q12.0 -180.5 13.5 -180.5 M86.5 -163.0 Q86.5 -166.0 83.7 -169.7 81.95 -171.95 80.55 -172.85 80.6 -174.7 79.2 -177.0 77.35 -180.0 74.5 -180.0 L70.5 -179.5 70.5 -178.5 68.0 -181.0 Q69.0 -182.0 69.0 -182.75 69.0 -187.05 65.0 -191.5 60.55 -196.5 54.75 -196.5 52.7 -196.5 47.45 -193.95 50.55 -193.65 55.5 -189.0 60.5 -184.3 60.5 -182.5 L60.5 -182.35 59.5 -182.5 Q55.85 -182.5 53.65 -179.5 L50.3 -175.25 54.0 -176.0 59.05 -175.25 Q62.0 -174.5 63.25 -174.5 64.4 -174.5 65.35 -173.55 66.4 -172.55 66.5 -171.0 68.75 -172.5 70.75 -172.5 74.05 -172.5 76.1 -170.15 78.8 -167.05 80.0 -166.5 85.85 -163.9 85.0 -159.0 L85.5 -159.0 Q86.5 -161.0 86.5 -163.0 M-26.7 -247.3 L-27.0 -247.0 -27.5 -247.0 -26.7 -247.3 M-45.5 -145.75 Q-49.05 -149.9 -51.2 -157.95 -53.05 -164.9 -53.05 -170.9 L-52.9 -173.5 -52.3 -174.75 -56.8 -173.85 Q-58.1 -170.25 -61.8 -167.4 -66.7 -163.6 -76.7 -160.4 -76.7 -156.5 -79.7 -152.6 -81.1 -150.75 -82.85 -149.35 L-82.2 -147.35 -82.1 -147.05 Q-84.2 -140.2 -85.0 -138.5 L-85.0 -137.5 Q-81.9 -137.5 -80.2 -136.25 -78.55 -135.0 -75.75 -135.0 -73.3 -135.0 -69.1 -132.15 -64.95 -129.35 -64.5 -127.5 -63.65 -128.35 -60.9 -129.8 -58.9 -130.8 -58.5 -132.5 -58.15 -134.0 -55.8 -136.55 -53.1 -139.5 -51.0 -139.5 -49.7 -139.5 -47.25 -138.55 -44.7 -137.55 -43.5 -137.5 -42.45 -139.65 -37.3 -141.9 -32.55 -144.0 -30.0 -144.0 L-29.0 -143.45 -28.5 -144.0 Q-31.05 -147.2 -35.6 -148.4 -41.5 -149.35 -45.5 -145.75" fill="#545454" fill-rule="evenodd" stroke="none"/>
      <path d="M5.35 -396.1 Q4.05 -401.35 3.75 -406.75 3.75 -412.0 7.35 -417.55 13.15 -426.55 25.5 -426.8 26.85 -428.5 29.65 -430.3 36.65 -434.85 47.8 -434.85 62.05 -434.85 70.9 -421.15 77.75 -410.45 77.75 -400.4 L77.9 -396.95 Q77.85 -394.45 76.9 -392.6 76.2 -391.25 75.0 -390.1 L75.0 -390.75 Q75.0 -394.3 73.25 -396.6 L68.5 -401.5 Q69.5 -403.5 69.5 -404.75 69.5 -410.95 63.0 -415.5 57.3 -419.5 51.75 -419.5 48.3 -419.5 44.6 -417.35 42.95 -416.35 41.9 -415.25 L40.0 -415.5 Q37.45 -415.5 36.1 -413.9 34.3 -411.8 33.5 -411.5 29.75 -410.0 25.75 -410.0 24.75 -410.0 23.2 -410.75 L21.5 -411.5 Q15.75 -411.5 10.75 -406.2 6.55 -401.75 5.35 -396.1 M68.5 -380.1 L71.75 -378.75 Q73.05 -378.05 73.95 -377.25 75.6 -378.85 78.75 -380.4 85.6 -383.75 93.55 -383.75 98.45 -383.75 101.35 -376.05 L102.1 -373.15 102.2 -373.2 Q107.5 -375.35 113.9 -375.2 129.3 -373.4 133.9 -365.9 136.1 -362.4 136.1 -353.95 L136.1 -353.65 135.05 -349.55 134.95 -349.25 Q131.75 -352.95 128.8 -354.25 L129.0 -355.0 Q129.0 -357.25 126.0 -358.1 122.25 -359.1 121.5 -360.0 L117.2 -364.6 114.0 -367.5 108.95 -366.7 103.5 -365.5 Q100.1 -365.05 99.25 -361.3 99.0 -357.3 98.55 -355.35 L96.55 -356.35 Q94.15 -357.5 93.0 -357.5 95.5 -361.9 95.5 -363.25 95.5 -369.05 94.5 -370.5 93.15 -372.5 87.75 -372.5 83.7 -372.5 82.55 -371.7 79.8 -369.9 75.5 -368.5 75.6 -369.5 74.35 -370.45 73.05 -371.5 71.25 -371.5 L69.8 -371.0 Q68.95 -370.5 68.5 -370.5 L68.5 -380.1 M133.55 -339.7 L134.2 -339.1 134.65 -338.75 134.9 -338.45 137.9 -335.35 138.0 -335.25 138.45 -334.7 140.95 -336.05 Q148.25 -339.4 161.3 -339.4 184.2 -339.4 184.2 -317.6 184.2 -299.15 183.4 -288.75 L182.5 -288.85 Q179.1 -290.9 178.4 -291.5 179.4 -298.5 179.4 -301.0 179.4 -303.95 177.4 -307.5 175.2 -311.5 172.65 -311.5 L170.4 -311.0 Q170.75 -311.3 171.9 -316.5 171.9 -321.3 167.9 -325.5 163.65 -330.0 158.0 -330.0 155.65 -330.0 153.2 -328.5 150.75 -327.0 149.25 -327.0 143.6 -330.0 140.25 -330.0 L137.2 -329.9 Q136.35 -329.65 134.5 -328.0 134.1 -330.45 133.55 -339.7 M148.6 -243.6 L148.7 -243.2 148.75 -243.15 148.75 -243.05 148.85 -242.2 Q148.85 -239.1 147.55 -235.8 144.45 -239.05 140.0 -242.0 L142.85 -246.45 Q143.75 -248.2 143.75 -250.1 L144.6 -250.15 148.6 -243.6 M145.85 -225.15 Q148.8 -223.35 150.3 -221.85 L150.45 -221.7 150.8 -221.3 Q152.6 -219.1 152.6 -214.8 152.6 -212.5 152.0 -209.8 150.45 -212.45 147.85 -215.3 144.0 -219.5 144.0 -220.5 145.4 -222.95 145.85 -225.15 M101.55 -142.05 L102.65 -144.55 Q109.25 -158.4 122.2 -158.4 129.9 -158.4 134.15 -153.9 136.55 -156.4 141.3 -160.35 151.3 -168.65 154.45 -168.65 168.4 -168.65 174.6 -164.45 177.7 -162.35 180.3 -156.95 L184.65 -148.7 Q186.8 -144.5 186.8 -142.25 186.8 -138.55 186.05 -136.25 185.2 -133.75 182.4 -129.4 L182.3 -129.2 181.8 -128.6 181.05 -128.6 181.4 -135.5 Q181.4 -140.45 178.9 -144.0 176.1 -148.0 171.4 -148.0 169.3 -148.0 166.4 -146.05 163.4 -144.05 162.5 -144.0 162.5 -147.45 160.4 -148.2 L155.75 -148.5 150.0 -147.5 Q149.3 -151.7 148.2 -152.75 146.95 -154.0 142.75 -154.0 139.75 -154.0 135.3 -150.9 131.05 -147.95 131.35 -145.6 L127.05 -148.8 121.75 -149.0 Q113.15 -149.0 108.55 -146.7 106.75 -145.8 101.85 -141.75 L101.55 -142.05 M-120.35 -97.95 L-120.45 -98.4 Q-121.3 -103.05 -121.3 -104.8 -121.3 -107.3 -119.35 -113.4 L-118.5 -115.7 -118.55 -115.9 Q-118.55 -120.1 -116.8 -122.1 -115.75 -123.25 -112.9 -124.4 -110.15 -125.55 -109.05 -126.85 -107.3 -129.0 -107.3 -133.4 L-111.4 -142.8 Q-111.4 -147.05 -109.85 -150.05 -106.55 -156.35 -97.5 -156.6 L-97.2 -157.5 -95.5 -157.5 Q-94.7 -156.85 -90.45 -154.85 -87.8 -153.6 -87.0 -151.0 -93.05 -151.25 -97.1 -145.5 -100.8 -138.5 -102.5 -136.0 L-102.5 -132.0 Q-97.9 -132.75 -94.25 -129.6 L-89.35 -124.85 -89.55 -124.65 Q-90.65 -125.5 -93.5 -125.5 -99.25 -125.5 -104.5 -119.0 -104.85 -118.6 -108.55 -116.85 -111.45 -115.45 -112.5 -112.0 -113.8 -107.95 -115.4 -104.45 L-117.6 -99.7 Q-118.75 -96.95 -119.2 -92.65 L-120.2 -97.2 -120.35 -97.95 M-118.85 -183.45 Q-120.6 -185.7 -122.3 -188.85 -126.8 -197.25 -126.8 -200.75 -126.8 -203.2 -125.15 -207.8 -123.05 -213.65 -119.5 -218.3 -109.25 -231.85 -91.9 -228.95 -79.05 -222.4 -78.0 -217.65 -77.65 -216.05 -78.3 -212.9 L-78.75 -210.6 -78.85 -209.95 Q-80.8 -210.75 -82.7 -212.6 -83.2 -214.85 -85.0 -216.5 -87.2 -218.5 -90.0 -218.5 -96.25 -218.5 -100.9 -215.15 -106.35 -211.25 -104.5 -205.5 -109.75 -205.05 -112.2 -203.5 -115.4 -201.55 -116.0 -197.0 -116.4 -194.2 -117.9 -188.8 -118.6 -186.25 -118.85 -183.45 M-151.9 -247.25 L-153.65 -249.6 -153.8 -249.85 Q-156.8 -254.5 -158.55 -260.05 -159.75 -263.9 -159.75 -265.35 -159.75 -273.65 -150.65 -280.95 -144.9 -285.5 -140.4 -286.8 L-140.85 -291.1 -142.05 -290.85 Q-142.35 -295.25 -139.25 -297.7 -136.35 -300.0 -131.5 -300.0 -127.2 -300.0 -123.05 -297.85 -122.25 -297.55 -121.3 -296.7 -119.5 -295.0 -119.0 -293.0 -116.05 -298.0 -108.0 -298.0 -105.75 -298.0 -102.6 -295.1 -107.6 -295.8 -112.0 -293.65 -116.3 -291.5 -117.5 -288.0 -118.0 -286.45 -118.0 -283.0 L-123.0 -282.5 Q-124.15 -282.15 -126.45 -279.85 -128.05 -278.2 -130.0 -278.4 L-130.1 -278.3 -130.2 -278.1 Q-131.3 -276.55 -135.65 -275.45 -141.55 -274.0 -143.0 -273.0 -145.4 -271.35 -146.45 -266.15 -147.45 -261.3 -146.5 -258.5 -148.85 -257.95 -150.9 -255.85 -153.0 -253.7 -153.0 -251.75 -153.0 -250.3 -151.75 -247.45 L-151.9 -247.25 M-153.85 -293.5 L-154.65 -294.0 -154.8 -294.1 Q-161.1 -298.0 -163.15 -302.0 L-166.05 -314.1 Q-166.05 -317.1 -163.3 -320.9 -161.2 -323.75 -158.35 -325.0 -158.2 -329.25 -151.15 -337.55 -144.05 -345.95 -144.15 -348.75 -143.6 -355.4 -138.25 -361.95 -130.75 -371.15 -118.05 -371.15 -113.9 -371.15 -109.9 -368.9 L-109.85 -368.85 -108.6 -368.9 Q-103.85 -368.9 -101.9 -365.75 L-101.55 -366.0 Q-99.25 -367.4 -95.8 -367.4 -87.3 -367.4 -84.95 -359.4 -84.25 -356.9 -84.25 -353.9 L-84.35 -351.4 -84.35 -350.5 -83.85 -350.5 Q-75.25 -350.5 -67.95 -339.2 -63.3 -332.0 -62.2 -326.9 L-61.45 -326.15 Q-57.65 -322.2 -56.3 -319.75 L-48.3 -325.6 Q-50.3 -328.0 -51.25 -332.25 -52.3 -337.1 -51.9 -342.15 -51.9 -345.45 -48.65 -350.4 -46.3 -353.9 -43.35 -355.5 L-43.4 -357.85 Q-43.4 -365.75 -42.1 -368.7 L-38.5 -373.45 Q-35.75 -376.8 -35.75 -379.35 -35.75 -384.3 -32.4 -389.7 -27.35 -397.95 -17.4 -397.95 -5.3 -397.95 1.8 -387.3 3.7 -384.45 4.9 -381.5 L7.2 -383.95 9.5 -386.05 Q8.35 -377.9 6.85 -377.15 5.3 -376.45 5.4 -375.65 5.5 -374.85 6.0 -374.6 6.5 -374.35 6.5 -373.75 L5.45 -371.7 4.0 -369.5 1.05 -372.5 Q-0.75 -374.5 -3.0 -374.5 -4.85 -374.5 -7.9 -372.35 L-8.05 -372.2 Q-9.95 -373.0 -11.25 -373.0 -14.35 -373.0 -17.45 -369.9 -20.7 -366.7 -19.5 -364.0 L-26.9 -363.65 Q-29.15 -363.2 -30.5 -362.0 L-31.4 -361.05 -31.95 -360.55 -32.1 -360.4 Q-35.35 -357.15 -36.45 -352.85 -37.35 -353.5 -38.25 -353.5 -39.1 -353.5 -40.5 -352.0 -42.0 -350.4 -42.0 -349.0 -41.0 -343.5 -41.0 -342.25 L-43.75 -339.3 Q-46.5 -336.35 -46.5 -335.75 -46.5 -334.4 -44.35 -333.1 L-43.95 -332.85 -42.8 -329.8 Q-40.95 -325.15 -39.5 -323.0 L-44.0 -322.5 -44.75 -321.75 Q-50.65 -316.0 -53.0 -316.0 -54.05 -316.0 -55.0 -316.75 -55.9 -317.45 -56.85 -317.5 L-57.0 -317.5 -57.45 -317.45 Q-61.2 -318.55 -64.5 -317.5 -64.3 -318.6 -65.7 -320.5 -67.1 -322.35 -68.0 -322.5 -68.75 -323.5 -68.8 -326.1 -68.85 -328.85 -69.5 -330.0 -71.85 -335.3 -72.8 -336.8 -74.25 -339.0 -78.5 -339.0 L-81.55 -338.6 Q-83.65 -342.0 -87.0 -342.0 -90.0 -341.0 -91.5 -341.0 -91.8 -343.0 -97.25 -345.45 -102.85 -348.0 -107.75 -348.0 -111.35 -348.0 -114.5 -346.0 -117.8 -343.9 -118.0 -340.85 L-118.1 -340.8 Q-120.7 -340.3 -122.65 -337.9 L-126.5 -332.0 -126.5 -331.0 Q-120.85 -332.55 -117.25 -330.15 -118.0 -329.5 -118.0 -328.25 -118.0 -326.35 -119.4 -325.8 L-120.85 -324.85 -121.0 -324.85 Q-124.95 -324.85 -124.95 -320.15 L-124.85 -319.3 Q-126.25 -318.0 -127.25 -318.0 -127.85 -318.0 -130.8 -320.75 -133.7 -323.5 -138.25 -323.5 -144.0 -323.5 -150.0 -315.5 -155.5 -308.15 -155.5 -303.25 -155.5 -299.55 -154.25 -295.65 L-153.35 -293.25 -153.85 -293.5 M167.4 -283.0 L167.4 -278.5 167.2 -278.5 167.2 -278.45 167.4 -276.0 Q167.4 -273.55 166.75 -272.15 166.25 -274.95 164.0 -278.0 160.7 -282.5 156.5 -282.5 L153.75 -282.4 Q153.0 -282.2 152.15 -281.25 L152.0 -281.1 149.5 -281.5 Q148.75 -281.5 147.3 -280.5 145.8 -279.5 144.5 -279.5 136.6 -284.75 131.55 -286.05 L140.0 -289.0 Q141.0 -289.0 143.0 -288.25 145.0 -287.5 145.75 -287.5 147.25 -287.5 149.65 -289.5 152.1 -291.5 154.75 -291.5 159.15 -291.5 161.35 -287.5 L161.95 -286.45 162.75 -286.5 Q164.85 -286.5 165.15 -286.0 166.6 -283.8 167.4 -283.0 M59.4 -293.15 L59.4 -293.05 58.8 -285.05 58.6 -283.95 58.5 -283.55 58.7 -281.05 Q58.65 -278.8 59.75 -277.75 69.0 -277.55 71.8 -277.95 L72.05 -277.85 Q73.85 -277.15 75.55 -276.05 L75.85 -275.85 81.6 -273.65 Q85.25 -271.85 85.5 -269.5 85.1 -270.0 82.8 -271.0 80.45 -272.0 79.5 -272.0 71.55 -272.0 69.75 -268.95 L69.4 -268.85 67.75 -268.5 Q65.5 -269.5 64.25 -269.5 62.75 -269.5 60.25 -268.0 57.75 -266.5 56.5 -266.5 55.6 -266.5 54.9 -267.65 L53.5 -270.25 Q51.15 -274.0 45.5 -274.0 41.25 -274.0 32.2 -270.5 26.9 -268.4 23.2 -266.55 L23.0 -267.0 Q23.75 -272.3 24.7 -275.5 26.45 -281.5 32.0 -281.5 L39.5 -279.5 39.75 -279.2 42.35 -281.2 Q45.05 -283.0 46.25 -283.0 49.45 -283.0 54.3 -280.1 L54.5 -280.0 54.5 -280.5 48.85 -287.45 Q44.75 -292.0 40.75 -292.0 39.95 -292.0 33.65 -289.7 L33.5 -290.0 Q34.65 -294.1 38.0 -296.0 L38.25 -295.75 Q42.1 -300.5 46.75 -300.5 52.25 -300.5 55.15 -298.25 56.75 -297.05 59.4 -293.15 M68.05 -283.4 Q66.95 -285.8 66.95 -288.45 66.95 -293.8 70.65 -297.65 76.6 -303.9 90.6 -303.15 99.1 -299.1 101.95 -295.0 104.0 -292.0 104.0 -286.6 L103.95 -286.2 103.85 -285.55 103.9 -285.55 Q105.15 -286.7 107.25 -287.7 109.45 -288.75 112.2 -289.5 L111.65 -290.95 Q110.85 -293.25 110.5 -295.7 110.5 -298.1 111.55 -300.9 111.7 -298.5 113.5 -294.95 115.5 -290.95 115.5 -289.75 113.0 -285.9 113.0 -284.0 116.6 -284.75 118.0 -275.0 L118.0 -271.25 Q117.85 -275.9 111.75 -278.05 108.75 -279.05 100.5 -280.0 100.2 -281.1 101.05 -283.0 101.8 -284.65 101.95 -285.4 L102.0 -285.75 101.75 -287.95 101.5 -289.0 101.25 -289.0 Q100.4 -290.3 99.0 -291.0 L92.5 -291.5 Q91.1 -291.75 89.4 -292.95 88.0 -294.0 86.25 -294.0 77.55 -294.0 73.35 -291.4 69.35 -288.9 68.05 -283.4 M86.5 -163.0 Q86.5 -161.0 85.5 -159.0 L85.0 -159.0 Q85.85 -163.9 80.0 -166.5 78.8 -167.05 76.1 -170.15 74.05 -172.5 70.75 -172.5 68.75 -172.5 66.5 -171.0 66.4 -172.55 65.35 -173.55 64.4 -174.5 63.25 -174.5 62.0 -174.5 59.05 -175.25 L54.0 -176.0 50.3 -175.25 53.65 -179.5 Q55.85 -182.5 59.5 -182.5 L60.5 -182.35 60.5 -182.5 Q60.5 -184.3 55.5 -189.0 50.55 -193.65 47.45 -193.95 52.7 -196.5 54.75 -196.5 60.55 -196.5 65.0 -191.5 69.0 -187.05 69.0 -182.75 69.0 -182.0 68.0 -181.0 L70.5 -178.5 70.5 -179.5 74.5 -180.0 Q77.35 -180.0 79.2 -177.0 80.6 -174.7 80.55 -172.85 81.95 -171.95 83.7 -169.7 86.5 -166.0 86.5 -163.0 M13.5 -180.5 Q12.0 -180.5 11.0 -179.5 L9.65 -182.55 Q9.1 -183.45 8.0 -184.1 8.8 -184.65 9.5 -184.85 L13.0 -185.0 Q16.4 -185.0 19.4 -181.9 22.1 -179.05 23.0 -175.5 22.25 -175.85 18.85 -178.75 16.75 -180.5 13.5 -180.5 M-25.75 -309.5 Q-16.75 -309.5 -8.75 -303.15 -1.0 -297.0 -0.95 -289.95 L-1.05 -289.85 Q-6.85 -298.5 -19.25 -298.5 -33.5 -298.5 -33.5 -283.5 -33.5 -282.25 -32.5 -277.25 -32.5 -276.35 -36.0 -273.9 -39.5 -271.45 -39.5 -268.25 L-39.2 -266.55 -35.75 -267.0 Q-33.55 -267.0 -31.9 -265.5 -30.3 -264.0 -27.0 -264.0 L-27.0 -262.5 Q-25.3 -263.35 -22.1 -265.15 -19.2 -266.5 -16.5 -266.5 -15.45 -266.5 -11.5 -264.5 L-11.75 -264.0 Q-12.55 -264.0 -16.7 -262.0 -21.5 -259.65 -21.5 -258.0 L-18.5 -256.05 Q-15.5 -253.65 -15.5 -251.0 -11.05 -252.65 -6.95 -250.55 L-1.3 -246.4 -1.75 -245.75 Q-2.55 -246.5 -3.25 -246.5 -13.0 -246.5 -13.95 -239.9 L-14.5 -240.0 Q-15.5 -241.0 -17.55 -241.8 -19.6 -242.6 -20.5 -243.5 L-23.05 -246.5 -23.5 -246.5 Q-26.8 -246.5 -29.2 -244.3 -31.85 -241.9 -31.0 -238.5 -33.55 -239.55 -35.55 -237.75 -37.85 -235.7 -40.5 -235.5 L-41.0 -235.45 Q-46.6 -235.3 -50.7 -233.05 -57.0 -229.6 -57.95 -221.9 L-58.5 -222.0 Q-59.0 -223.5 -59.0 -224.75 -59.0 -225.85 -57.0 -234.0 -56.1 -237.9 -50.0 -240.5 -50.0 -243.6 -53.1 -246.2 -55.75 -248.45 -58.75 -248.95 L-59.95 -250.0 Q-61.0 -250.85 -61.0 -252.25 -61.0 -253.55 -57.75 -256.15 L-53.5 -259.5 -57.0 -260.0 Q-58.6 -260.0 -60.85 -258.95 -63.05 -257.95 -63.5 -257.0 L-66.85 -260.1 Q-69.5 -262.5 -69.5 -265.25 L-69.5 -266.5 -69.05 -266.5 Q-69.5 -272.05 -65.3 -277.25 -61.0 -282.5 -56.25 -282.5 -51.0 -282.5 -48.5 -280.0 -48.4 -281.55 -45.3 -281.9 L-43.75 -281.75 -41.95 -281.95 -41.5 -281.95 -41.8 -282.05 -41.7 -282.05 Q-39.0 -280.9 -37.2 -279.2 L-37.0 -279.5 Q-41.05 -287.8 -40.55 -301.6 L-38.5 -304.0 Q-32.95 -309.5 -25.75 -309.5 M-26.7 -247.3 L-27.5 -247.0 -27.0 -247.0 -26.7 -247.3 M-82.1 -147.05 Q-81.6 -144.7 -81.55 -142.25 -79.3 -143.15 -77.75 -143.15 -71.1 -143.15 -65.05 -136.65 -62.55 -138.15 -60.65 -139.9 -57.65 -141.7 -45.5 -145.75 -41.5 -149.35 -35.6 -148.4 -31.05 -147.2 -28.5 -144.0 L-29.0 -143.45 -30.0 -144.0 Q-32.55 -144.0 -37.3 -141.9 -42.45 -139.65 -43.5 -137.5 -44.7 -137.55 -47.25 -138.55 -49.7 -139.5 -51.0 -139.5 -53.1 -139.5 -55.8 -136.55 -58.15 -134.0 -58.5 -132.5 -58.9 -130.8 -60.9 -129.8 -63.65 -128.35 -64.5 -127.5 -64.95 -129.35 -69.1 -132.15 -73.3 -135.0 -75.75 -135.0 -78.55 -135.0 -80.2 -136.25 -81.9 -137.5 -85.0 -137.5 L-85.0 -138.5 Q-84.2 -140.2 -82.1 -147.05" fill="#666666" fill-rule="evenodd" stroke="none"/>
    </g>
  </defs>
</svg>
