<?xml version="1.0" encoding="UTF-8" standalone="no"?>
<svg xmlns:ffdec="https://www.free-decompiler.com/flash" xmlns:xlink="http://www.w3.org/1999/xlink" ffdec:objectType="frame" height="513.9px" width="383.5px" xmlns="http://www.w3.org/2000/svg">
  <g transform="matrix(1.0, 0.0, 0.0, 1.0, 183.4, 511.25)">
    <use ffdec:characterId="211" height="442.55" transform="matrix(1.0, 0.0, 0.0, 1.0, -168.5, -447.3)" width="360.6" xlink:href="#shape0"/>
  </g>
  <defs>
    <g id="shape0" transform="matrix(1.0, 0.0, 0.0, 1.0, 168.5, 447.3)">
      <path d="M4.05 -416.6 L4.05 -416.5 3.75 -415.05 Q5.05 -416.65 7.05 -418.05 13.35 -422.5 21.0 -422.5 L27.0 -421.5 Q27.6 -421.5 31.3 -424.0 35.65 -426.5 39.5 -426.5 L39.0 -428.5 Q39.0 -431.2 43.5 -433.0 47.2 -434.5 50.75 -434.5 55.35 -434.5 62.5 -428.0 69.5 -421.65 69.5 -418.0 69.5 -416.0 68.5 -414.0 75.35 -412.6 79.5 -398.5 L79.75 -398.3 79.85 -398.45 80.45 -399.4 79.05 -397.35 Q75.8 -393.25 70.95 -393.25 66.65 -394.7 65.0 -394.7 63.95 -394.7 62.2 -393.15 60.45 -391.65 58.75 -391.65 55.95 -391.65 54.85 -392.8 L55.5 -389.35 Q55.5 -385.05 54.05 -380.7 53.35 -378.6 52.4 -377.05 L54.2 -373.6 Q53.15 -377.3 57.0 -380.95 L58.8 -382.35 Q60.3 -381.15 63.0 -379.5 64.3 -377.55 65.9 -377.3 L69.0 -377.0 Q78.9 -373.9 78.0 -367.5 79.1 -368.15 82.8 -368.55 85.7 -368.85 86.5 -370.5 L88.9 -375.5 Q89.4 -376.0 93.0 -376.0 97.45 -376.0 98.95 -374.65 100.5 -373.2 101.5 -368.0 103.05 -368.55 104.8 -369.95 106.0 -371.0 107.75 -371.0 111.2 -371.0 115.55 -368.65 122.95 -364.65 124.5 -364.0 127.85 -362.6 130.25 -358.95 L132.6 -354.8 Q132.0 -353.05 130.25 -350.7 L130.1 -350.45 131.3 -350.5 Q133.15 -350.5 134.35 -349.25 L135.0 -348.45 Q132.4 -344.4 131.0 -343.0 L131.0 -342.0 Q136.5 -340.6 141.0 -337.35 144.9 -334.5 145.5 -334.5 L149.75 -335.5 Q150.45 -335.5 153.5 -334.0 156.6 -332.5 157.25 -332.5 158.45 -332.5 160.35 -335.0 162.25 -337.5 166.0 -337.5 166.9 -337.5 177.75 -333.0 179.0 -333.0 180.75 -334.0 183.5 -334.0 185.7 -328.7 L187.15 -324.15 187.6 -324.45 Q187.45 -321.2 186.9 -320.0 L185.8 -318.25 Q186.95 -316.85 187.95 -314.55 L187.95 -314.5 Q187.7 -312.95 186.05 -308.15 L184.0 -302.5 188.8 -297.35 190.35 -294.65 190.2 -294.15 189.2 -292.05 Q186.55 -286.85 182.5 -286.5 180.6 -283.2 176.15 -278.8 L174.9 -276.8 Q170.75 -270.55 164.35 -268.75 L154.8 -261.6 Q148.6 -261.6 143.2 -263.7 141.25 -264.45 139.95 -265.15 L137.45 -263.1 137.55 -262.75 Q137.55 -261.8 137.15 -260.9 L138.85 -260.35 Q139.5 -258.15 139.5 -256.75 139.5 -255.5 138.5 -252.25 138.5 -251.5 141.75 -248.6 L144.4 -245.9 143.8 -244.25 Q142.9 -242.5 141.05 -241.0 143.85 -240.0 145.85 -237.6 L145.85 -237.55 Q145.45 -234.1 144.0 -233.0 147.9 -229.8 150.15 -225.4 L150.3 -222.1 Q150.3 -215.3 148.35 -211.9 145.6 -207.1 136.75 -202.45 129.8 -198.8 117.9 -190.35 112.35 -186.45 105.15 -186.45 L96.75 -186.8 Q94.0 -185.85 88.35 -185.85 79.55 -185.85 73.7 -189.2 72.55 -189.85 71.7 -190.45 L70.45 -189.25 70.8 -189.6 Q67.2 -200.5 58.0 -200.5 56.3 -200.5 54.3 -199.6 52.65 -198.85 52.5 -198.5 54.3 -197.6 57.4 -196.15 58.9 -195.0 59.1 -192.85 L61.8 -187.95 Q62.5 -184.95 62.5 -183.5 L61.95 -180.7 Q64.6 -180.05 66.8 -177.75 70.0 -174.45 70.0 -170.0 70.0 -169.2 69.4 -167.0 L68.5 -164.5 Q69.55 -163.4 71.8 -162.25 74.0 -161.15 75.0 -160.0 75.55 -159.4 78.0 -158.25 L79.8 -157.25 77.6 -153.05 78.05 -153.8 Q75.25 -153.3 73.95 -152.1 72.05 -149.55 70.0 -147.5 L70.05 -147.0 Q72.05 -147.0 76.25 -148.0 L92.55 -150.0 Q97.65 -143.15 100.55 -143.4 L98.8 -141.45 Q96.0 -138.8 95.65 -136.95 95.25 -134.6 96.3 -128.85 L96.3 -127.65 96.95 -128.05 Q102.25 -131.3 102.3 -132.15 L103.35 -138.0 Q107.9 -146.6 109.7 -148.45 114.05 -153.0 123.25 -153.0 126.55 -153.0 129.45 -150.85 132.6 -148.5 132.0 -145.5 L136.8 -145.9 Q140.1 -146.05 141.0 -145.0 140.6 -147.35 142.35 -148.15 L146.0 -149.0 144.4 -150.75 Q144.0 -151.2 144.0 -153.0 144.0 -155.65 145.5 -158.0 147.7 -161.5 152.5 -161.5 157.65 -161.5 166.8 -157.85 178.5 -153.2 178.5 -147.0 180.3 -147.4 181.3 -148.6 L182.5 -150.5 186.9 -147.05 Q189.0 -145.4 189.0 -143.0 189.0 -140.45 185.2 -134.35 L183.3 -131.45 184.15 -130.95 Q183.15 -129.7 181.15 -128.35 176.95 -125.6 171.95 -125.6 L169.7 -125.3 169.8 -124.45 Q169.8 -118.5 167.0 -112.8 165.8 -110.4 164.3 -108.65 162.9 -103.15 154.45 -103.15 146.7 -103.15 144.3 -106.95 143.55 -108.15 143.4 -109.65 L143.4 -110.05 140.35 -109.9 Q132.7 -109.9 128.45 -112.05 L125.0 -107.25 Q118.3 -98.95 111.0 -98.95 107.65 -98.95 105.3 -100.15 102.95 -101.35 101.65 -101.35 100.0 -101.35 97.0 -102.4 94.05 -103.45 93.2 -104.3 92.3 -102.5 92.3 -101.35 92.3 -100.75 92.45 -100.05 L92.95 -100.4 Q93.55 -99.4 93.55 -97.15 L100.6 -96.95 Q107.5 -93.35 109.6 -89.9 110.2 -88.95 111.35 -88.75 L117.75 -88.5 Q118.55 -88.5 119.5 -89.25 120.45 -90.0 121.75 -90.0 123.3 -90.0 129.95 -83.85 L132.85 -81.1 Q133.4 -78.55 133.4 -75.7 133.4 -68.75 129.65 -62.1 123.4 -50.9 109.35 -50.9 104.9 -50.9 101.25 -53.3 97.6 -55.7 91.9 -55.7 91.55 -55.7 91.25 -55.1 L90.4 -53.7 Q88.7 -51.75 83.85 -51.75 81.8 -51.75 74.55 -55.05 L66.95 -58.65 Q66.2 -57.1 65.5 -54.2 75.75 -53.5 83.05 -37.5 84.35 -36.25 85.1 -33.85 L85.1 -32.65 85.65 -31.15 84.95 -30.25 Q84.0 -21.35 78.35 -17.9 76.55 -16.85 72.05 -15.1 63.55 -5.75 61.35 -5.75 L60.65 -5.75 59.8 -5.55 37.7 -4.75 42.9 -5.4 Q27.65 -5.0 9.95 -5.35 L-5.75 -5.75 -10.1 -6.2 Q-12.75 -4.75 -18.05 -4.75 -33.65 -4.75 -39.95 -12.45 -43.8 -17.15 -43.8 -24.1 -43.8 -28.9 -41.85 -33.25 -39.95 -37.55 -39.95 -38.4 -39.95 -40.9 -42.7 -43.05 -43.95 -44.0 -44.65 -45.2 -48.35 -43.1 -49.95 -43.1 -57.6 -43.1 -62.35 -51.3 -65.7 -57.05 -65.7 -60.6 -65.7 -63.75 -63.7 -67.3 -60.85 -72.3 -55.75 -72.45 L-55.35 -77.45 Q-55.0 -79.75 -55.0 -81.8 -55.0 -84.55 -52.6 -89.25 -50.6 -93.15 -47.95 -94.65 -57.2 -95.7 -61.85 -104.7 -64.8 -110.35 -65.0 -115.4 L-66.8 -115.35 Q-70.0 -115.35 -72.2 -116.7 -74.35 -118.1 -75.05 -118.1 L-75.5 -118.1 Q-73.95 -114.05 -72.7 -106.45 -71.3 -98.4 -70.75 -90.15 -70.75 -85.1 -73.65 -81.2 -77.85 -75.55 -86.75 -75.55 -102.55 -75.55 -111.35 -90.1 -113.5 -93.6 -115.0 -97.65 -114.95 -108.2 -107.0 -106.5 -104.55 -114.25 -99.0 -114.5 -95.7 -114.7 -93.2 -115.9 -90.95 -117.0 -88.0 -117.0 L-84.5 -116.25 Q-82.2 -115.5 -81.05 -115.5 L-81.0 -116.0 Q-85.25 -124.5 -90.25 -124.5 L-91.75 -124.3 Q-94.75 -126.0 -98.0 -127.0 L-101.8 -127.0 -100.25 -128.1 -100.6 -130.95 -100.75 -136.45 -100.7 -137.55 Q-105.35 -138.25 -107.95 -143.95 L-108.9 -146.35 Q-107.15 -151.0 -100.0 -150.5 -100.1 -152.8 -96.9 -153.65 L-91.5 -154.5 -97.5 -160.5 -99.6 -160.5 -97.65 -162.25 Q-99.2 -164.0 -99.2 -167.75 L-99.0 -170.35 -100.0 -170.35 -102.7 -170.55 -104.75 -171.25 Q-108.7 -173.2 -110.75 -179.2 -111.6 -181.7 -112.25 -185.5 -112.8 -188.6 -113.0 -188.8 -119.6 -194.6 -122.9 -199.0 L-123.0 -201.75 Q-123.0 -208.15 -119.5 -211.5 -116.4 -214.5 -111.25 -214.5 -110.0 -214.5 -109.5 -215.0 L-112.2 -217.3 Q-113.0 -218.05 -113.0 -219.75 -113.0 -222.6 -105.5 -226.5 -98.75 -230.0 -96.25 -230.0 -92.7 -230.0 -87.5 -225.0 -87.0 -225.0 -85.5 -225.5 -84.25 -225.5 -82.35 -222.05 -80.6 -218.9 -80.85 -214.25 L-80.75 -214.2 Q-82.1 -209.9 -83.8 -207.2 L-76.75 -207.5 -76.55 -207.5 Q-77.45 -204.9 -79.5 -200.5 -75.9 -201.15 -71.4 -198.9 -67.8 -197.05 -65.5 -194.5 -64.25 -195.75 -61.75 -199.6 -59.15 -203.05 -56.5 -204.0 -53.6 -205.05 -50.85 -208.6 -48.6 -211.5 -45.5 -211.5 L-42.9 -211.0 Q-41.0 -210.5 -40.5 -210.0 L-40.05 -210.15 Q-41.25 -214.85 -44.6 -216.45 -46.0 -217.15 -50.9 -218.3 L-50.75 -218.05 -49.9 -216.55 Q-51.75 -219.45 -53.35 -224.0 -54.7 -227.8 -55.7 -232.4 L-56.4 -236.35 Q-56.4 -239.1 -55.75 -242.05 L-55.65 -242.45 Q-56.9 -244.25 -57.4 -247.55 -58.3 -253.2 -57.05 -258.25 -62.3 -261.85 -62.55 -261.85 L-71.9 -260.55 Q-76.95 -260.55 -79.9 -268.85 L-81.9 -277.3 -81.85 -278.6 Q-89.15 -278.9 -94.5 -286.55 L-95.95 -288.75 Q-97.35 -284.85 -99.9 -281.75 -95.8 -277.4 -91.05 -260.95 -91.05 -258.75 -92.75 -255.4 -94.9 -251.1 -98.75 -247.6 -109.65 -237.65 -129.35 -237.65 -143.45 -237.65 -151.2 -249.3 -153.3 -252.5 -154.65 -256.15 L-154.45 -255.65 Q-153.55 -257.3 -151.75 -259.15 L-148.95 -261.65 -149.0 -261.9 -149.5 -265.75 Q-149.5 -271.0 -145.5 -275.5 -141.45 -280.0 -136.5 -280.0 -134.15 -280.0 -129.5 -278.5 L-122.0 -279.0 Q-121.5 -280.6 -118.85 -282.5 -116.0 -284.5 -113.75 -284.5 -112.6 -284.5 -108.0 -282.0 -111.3 -287.85 -113.05 -289.1 -115.1 -290.5 -121.0 -290.5 -123.3 -290.5 -125.65 -289.25 -127.85 -288.05 -131.55 -288.0 -132.6 -289.9 -132.85 -291.15 L-133.0 -295.05 -133.0 -295.15 Q-135.05 -295.85 -137.6 -297.35 L-138.9 -296.7 Q-145.1 -293.75 -150.95 -293.75 -161.85 -293.75 -166.2 -301.1 L-167.0 -302.6 -163.6 -310.65 Q-160.5 -317.0 -157.0 -318.5 -152.35 -320.45 -148.7 -324.8 -146.4 -327.5 -139.5 -327.5 -137.6 -327.5 -136.15 -326.9 -134.55 -327.9 -131.9 -328.2 L-128.5 -328.4 -128.55 -329.25 Q-132.85 -331.6 -134.0 -332.0 -134.6 -333.9 -132.6 -336.3 L-131.0 -338.0 Q-131.4 -340.6 -133.55 -341.6 L-137.0 -342.5 Q-139.5 -343.05 -139.5 -349.0 -139.5 -353.1 -132.5 -356.5 -126.3 -359.5 -121.0 -359.5 L-118.7 -359.15 Q-117.3 -363.5 -110.5 -363.5 -102.35 -363.5 -99.0 -361.5 -97.2 -360.35 -96.85 -356.2 -96.4 -350.6 -96.0 -349.5 -95.15 -347.05 -91.4 -346.4 -86.8 -345.6 -85.5 -344.5 -84.4 -343.5 -79.5 -335.75 -81.7 -330.2 -83.15 -328.4 L-82.5 -328.0 Q-81.85 -328.0 -78.95 -329.5 -76.0 -331.0 -73.75 -331.0 -69.7 -331.0 -66.5 -327.5 -63.5 -324.2 -63.5 -320.75 -63.5 -319.75 -64.25 -318.2 L-65.0 -316.5 Q-65.0 -315.7 -60.85 -311.75 -58.75 -309.75 -57.75 -308.25 L-58.35 -306.05 -58.45 -300.35 Q-56.05 -299.85 -52.5 -298.1 -49.25 -292.4 -46.5 -284.0 L-46.5 -283.5 Q-52.75 -286.5 -56.5 -286.5 -63.55 -286.5 -69.0 -275.5 L-63.5 -277.0 -58.0 -278.0 -52.8 -277.7 Q-50.0 -276.85 -51.5 -273.5 -49.8 -273.7 -47.9 -273.0 L-50.0 -273.0 Q-55.15 -270.3 -60.0 -263.0 -54.1 -264.65 -48.75 -261.6 -43.5 -258.6 -43.5 -254.0 -43.5 -253.35 -44.0 -252.85 L-44.1 -252.65 Q-39.3 -249.55 -39.0 -245.0 -36.4 -251.55 -35.4 -252.6 -34.0 -254.0 -29.25 -254.0 L-26.2 -253.85 Q-25.15 -253.45 -24.0 -251.5 -23.2 -251.85 -19.1 -254.05 -14.9 -256.0 -12.5 -256.0 -14.5 -258.0 -21.0 -258.0 -26.55 -258.0 -27.0 -257.0 -27.95 -261.2 -33.2 -261.55 L-40.5 -261.0 Q-39.5 -264.0 -39.5 -266.75 -39.5 -269.55 -40.65 -272.9 -41.2 -274.6 -41.9 -275.5 -41.6 -276.7 -39.7 -278.4 L-36.0 -281.5 -37.1 -282.95 Q-37.7 -283.75 -37.95 -284.85 L-37.95 -284.8 -37.85 -285.6 Q-37.85 -286.25 -39.15 -289.2 L-39.5 -290.1 Q-39.1 -291.9 -37.8 -293.45 -36.0 -295.5 -33.4 -296.15 -32.05 -298.35 -29.55 -299.8 -27.55 -301.0 -24.1 -302.15 L-18.5 -304.0 Q-22.6 -306.05 -23.5 -306.35 L-28.25 -306.5 Q-33.85 -306.5 -36.95 -304.15 -40.25 -301.65 -41.95 -295.65 -45.3 -297.4 -48.15 -301.4 -51.85 -306.65 -51.9 -309.3 L-51.1 -306.8 -50.5 -307.0 Q-50.5 -312.8 -46.25 -317.8 -42.0 -322.8 -36.5 -323.5 L-36.0 -324.0 Q-36.95 -325.85 -38.9 -327.8 L-42.2 -331.2 Q-43.25 -332.5 -44.1 -334.15 L-44.3 -334.1 Q-45.2 -338.9 -45.25 -343.8 -45.25 -347.9 -44.3 -352.1 -39.2 -357.15 -33.0 -359.5 -31.35 -360.1 -26.55 -365.65 -22.15 -370.65 -20.0 -370.5 L-21.05 -374.7 Q-22.0 -378.2 -22.0 -380.0 -22.0 -383.25 -17.45 -386.0 -13.35 -388.5 -9.75 -388.5 0.25 -388.5 2.5 -383.0 3.95 -379.3 6.45 -377.4 8.55 -375.85 9.0 -373.5 11.4 -376.15 12.85 -376.85 15.2 -378.05 19.0 -377.5 18.15 -379.75 16.45 -382.3 L15.3 -384.15 17.15 -384.25 17.55 -384.9 17.55 -394.55 Q10.95 -396.3 6.7 -400.2 2.75 -403.85 2.75 -407.5 2.75 -410.55 4.05 -416.6 M163.5 -284.0 L166.25 -285.5 168.4 -284.45 Q170.5 -283.25 171.0 -282.5 172.5 -285.1 172.5 -286.5 172.5 -290.0 167.0 -292.5 162.6 -294.5 159.5 -294.5 157.65 -294.5 153.85 -291.75 L151.1 -289.9 Q157.35 -289.35 163.5 -284.0 M112.5 -301.3 Q111.85 -305.9 111.65 -310.65 111.65 -312.9 117.1 -316.95 122.45 -321.0 127.2 -321.45 125.2 -325.45 125.2 -326.0 125.2 -327.8 126.15 -329.7 L126.35 -330.05 126.1 -330.05 Q124.1 -328.3 121.4 -326.55 116.0 -323.05 111.65 -323.05 107.9 -323.05 104.85 -324.3 94.95 -324.75 91.25 -331.55 89.4 -334.95 89.4 -339.7 89.4 -342.4 90.65 -346.75 L91.35 -348.9 Q84.85 -349.0 80.65 -353.0 L80.45 -353.2 79.4 -349.6 Q77.65 -344.0 75.0 -339.1 67.45 -325.0 57.15 -325.0 52.4 -325.0 48.4 -328.25 49.35 -324.55 49.85 -318.75 47.9 -316.1 43.65 -314.6 35.5 -311.75 34.5 -311.0 39.3 -310.55 42.85 -308.0 47.0 -305.0 47.0 -300.5 48.5 -297.0 48.5 -293.5 47.5 -294.5 46.25 -294.5 43.5 -294.5 39.8 -291.1 L35.2 -286.9 35.35 -286.8 35.35 -286.85 35.95 -287.35 38.5 -287.5 Q44.6 -287.5 50.15 -284.2 55.75 -280.85 58.45 -275.55 L58.5 -274.95 58.35 -271.6 58.0 -269.0 58.3 -268.65 Q56.95 -264.95 56.95 -262.55 L57.0 -262.25 54.0 -258.6 Q48.3 -252.3 40.25 -247.5 L41.3 -243.3 42.4 -239.1 Q42.3 -235.05 40.85 -231.85 L38.75 -227.6 Q37.5 -225.0 37.0 -222.5 41.2 -221.4 42.45 -217.35 L44.0 -210.5 Q50.05 -213.5 56.0 -215.5 55.7 -216.8 54.5 -217.25 53.5 -217.65 53.5 -219.0 L55.0 -223.5 50.3 -234.05 50.3 -234.7 Q50.3 -238.85 54.0 -248.55 56.65 -255.45 59.15 -259.3 60.7 -260.45 62.1 -262.1 60.75 -265.5 60.3 -267.65 L60.35 -267.35 Q61.1 -269.0 62.55 -270.25 65.25 -272.5 69.0 -272.5 70.65 -272.5 73.85 -271.55 78.1 -270.25 79.0 -268.5 L82.0 -269.0 Q83.8 -269.0 85.5 -267.95 L88.5 -266.0 88.5 -271.0 Q86.85 -276.5 80.25 -276.5 L78.4 -276.3 78.25 -276.5 Q76.4 -279.5 77.6 -281.6 70.5 -282.65 68.0 -286.85 66.45 -289.5 66.45 -294.8 66.45 -297.0 67.05 -299.2 L67.95 -298.95 Q70.65 -301.0 73.0 -301.0 75.0 -301.0 77.0 -300.0 82.05 -305.5 86.75 -305.5 89.65 -305.5 92.35 -303.25 95.15 -301.0 95.9 -297.6 L96.55 -298.65 95.1 -296.55 94.6 -295.9 92.8 -294.65 Q93.35 -293.55 93.55 -291.7 L93.45 -291.3 93.65 -291.35 Q94.2 -291.55 94.65 -291.85 95.6 -292.4 97.05 -293.8 L97.2 -293.9 Q98.0 -288.7 97.5 -287.0 98.85 -287.25 101.0 -288.5 102.75 -289.5 104.75 -289.5 107.05 -289.5 112.75 -287.5 L115.0 -288.75 Q117.05 -290.0 117.75 -290.0 L123.0 -289.0 Q124.25 -289.0 124.5 -289.5 123.55 -290.75 121.3 -292.5 L117.2 -295.7 Q114.3 -298.2 112.6 -301.35 L112.5 -301.3 M73.4 -278.1 Q76.15 -277.95 77.55 -276.6 L73.4 -278.1 M109.85 -232.25 L113.1 -231.8 Q117.35 -231.8 120.65 -237.15 L113.25 -237.15 109.85 -232.25 M106.8 -177.55 L106.6 -175.65 Q106.6 -167.35 94.5 -167.35 90.1 -167.35 89.25 -170.8 L89.2 -174.75 Q89.2 -184.4 98.4 -184.4 105.0 -184.4 106.45 -180.5 106.9 -179.25 106.8 -177.55 M52.95 -104.0 L53.25 -101.55 53.4 -100.9 Q62.15 -109.1 62.15 -109.75 62.15 -110.4 60.45 -113.8 59.15 -116.45 58.85 -118.15 56.1 -107.7 52.95 -104.0 M63.2 -10.55 L63.45 -11.6 62.45 -11.1 62.75 -10.65 63.2 -10.55 M-49.55 -216.1 L-49.9 -216.55 -49.75 -216.4 -49.55 -216.1 M-45.2 -148.75 Q-46.7 -150.9 -47.8 -154.0 -49.0 -157.25 -49.65 -161.15 L-50.1 -164.75 Q-50.1 -171.7 -47.8 -174.3 -45.75 -176.55 -34.95 -185.2 L-37.05 -192.15 Q-38.45 -191.35 -40.35 -190.6 -42.6 -189.7 -45.3 -189.0 -49.2 -187.35 -52.25 -187.35 L-54.15 -187.35 -64.35 -186.5 Q-64.4 -182.35 -67.5 -176.15 -71.15 -168.9 -76.0 -168.15 L-76.15 -168.25 -76.95 -168.55 Q-80.7 -168.6 -82.0 -169.5 L-82.05 -168.75 Q-81.4 -166.4 -81.4 -165.65 -81.4 -157.2 -88.5 -157.1 L-88.8 -156.8 -89.2 -156.4 -86.65 -155.6 Q-87.1 -154.8 -87.1 -153.8 -87.1 -147.15 -88.8 -144.0 L-85.8 -143.65 -86.25 -141.0 Q-86.7 -138.3 -87.5 -137.0 L-80.25 -136.0 Q-77.95 -136.0 -76.1 -139.25 -74.25 -142.5 -70.25 -142.5 -66.1 -142.5 -63.85 -140.5 -61.65 -138.5 -55.75 -138.5 -55.6 -138.5 -53.25 -140.0 -52.25 -140.0 -46.5 -137.5 -45.8 -145.0 -38.0 -145.0 -36.5 -145.0 -33.5 -144.0 L-33.0 -144.1 Q-33.05 -146.45 -37.1 -147.85 -40.45 -149.0 -44.0 -149.0 L-45.2 -148.75" fill="#595959" fill-rule="evenodd" stroke="none"/>
      <path d="M80.45 -399.4 L79.85 -398.45 79.75 -398.3 79.5 -398.5 Q75.35 -412.6 68.5 -414.0 69.5 -416.0 69.5 -418.0 69.5 -421.65 62.5 -428.0 55.35 -434.5 50.75 -434.5 47.2 -434.5 43.5 -433.0 39.0 -431.2 39.0 -428.5 L39.5 -426.5 Q35.65 -426.5 31.3 -424.0 27.6 -421.5 27.0 -421.5 L21.0 -422.5 Q13.35 -422.5 7.05 -418.05 5.05 -416.65 3.75 -415.05 L4.05 -416.5 4.05 -416.6 4.05 -416.65 4.05 -416.7 Q4.7 -419.75 5.5 -421.7 L5.45 -422.6 Q5.45 -430.85 14.8 -433.15 L22.2 -434.45 Q26.2 -435.1 27.55 -436.3 39.7 -447.3 50.4 -447.3 67.15 -447.3 77.3 -429.45 80.75 -423.35 82.85 -416.2 84.45 -410.65 84.45 -408.15 84.45 -405.75 83.55 -403.25 82.5 -400.3 80.55 -399.5 L80.45 -399.4 M15.3 -384.15 L16.45 -382.3 Q18.15 -379.75 19.0 -377.5 15.2 -378.05 12.85 -376.85 11.4 -376.15 9.0 -373.5 8.55 -375.85 6.45 -377.4 3.95 -379.3 2.5 -383.0 0.25 -388.5 -9.75 -388.5 -13.35 -388.5 -17.45 -386.0 -22.0 -383.25 -22.0 -380.0 -22.0 -378.2 -21.05 -374.7 L-20.0 -370.5 Q-22.15 -370.65 -26.55 -365.65 -31.35 -360.1 -33.0 -359.5 -39.2 -357.15 -44.3 -352.1 L-44.05 -353.15 Q-43.1 -356.95 -41.4 -360.85 -37.05 -370.8 -29.8 -375.85 -30.55 -377.45 -31.75 -382.35 -32.9 -387.05 -32.9 -388.0 -32.9 -392.05 -28.8 -396.7 -22.65 -403.75 -10.95 -403.75 -1.75 -403.75 5.7 -393.3 9.25 -388.3 11.15 -383.1 12.55 -383.9 15.3 -384.15 M-44.3 -334.1 L-44.1 -334.15 Q-43.25 -332.5 -42.2 -331.2 L-38.9 -327.8 Q-36.95 -325.85 -36.0 -324.0 L-36.5 -323.5 Q-42.0 -322.8 -46.25 -317.8 -50.5 -312.8 -50.5 -307.0 L-51.1 -306.8 -51.9 -309.3 -51.9 -309.35 -51.8 -311.35 Q-53.35 -312.8 -53.35 -313.15 -53.35 -316.6 -49.9 -321.5 -46.25 -326.6 -42.25 -327.5 -43.5 -329.9 -44.3 -334.1 M-41.95 -295.65 Q-40.25 -301.65 -36.95 -304.15 -33.85 -306.5 -28.25 -306.5 L-23.5 -306.35 Q-22.6 -306.05 -18.5 -304.0 L-24.1 -302.15 Q-27.55 -301.0 -29.55 -299.8 -32.05 -298.35 -33.4 -296.15 -36.0 -295.5 -37.8 -293.45 -39.1 -291.9 -39.5 -290.1 -40.45 -292.4 -40.45 -293.55 L-40.4 -295.0 -41.95 -295.65 M-37.95 -284.8 L-37.95 -284.85 Q-37.7 -283.75 -37.1 -282.95 L-36.0 -281.5 -39.7 -278.4 Q-41.6 -276.7 -41.9 -275.5 -41.2 -274.6 -40.65 -272.9 -39.5 -269.55 -39.5 -266.75 -39.5 -264.0 -40.5 -261.0 L-33.2 -261.55 Q-27.95 -261.2 -27.0 -257.0 -26.55 -258.0 -21.0 -258.0 -14.5 -258.0 -12.5 -256.0 -14.9 -256.0 -19.1 -254.05 -23.2 -251.85 -24.0 -251.5 -25.15 -253.45 -26.2 -253.85 L-29.25 -254.0 Q-34.0 -254.0 -35.4 -252.6 -36.4 -251.55 -39.0 -245.0 -39.3 -249.55 -44.1 -252.65 L-44.0 -252.85 Q-43.5 -253.35 -43.5 -254.0 -43.5 -258.6 -48.75 -261.6 -54.1 -264.65 -60.0 -263.0 -55.15 -270.3 -50.0 -273.0 L-47.9 -273.0 Q-49.8 -273.7 -51.5 -273.5 -50.0 -276.85 -52.8 -277.7 L-58.0 -278.0 -63.5 -277.0 -69.0 -275.5 Q-63.55 -286.5 -56.5 -286.5 -52.75 -286.5 -46.5 -283.5 L-46.5 -284.0 Q-49.25 -292.4 -52.5 -298.1 L-50.35 -297.0 Q-43.65 -293.35 -41.75 -290.15 -40.85 -288.6 -40.2 -286.85 -38.9 -286.25 -37.95 -284.8 M-57.75 -308.25 Q-58.75 -309.75 -60.85 -311.75 -65.0 -315.7 -65.0 -316.5 L-64.25 -318.2 Q-63.5 -319.75 -63.5 -320.75 -63.5 -324.2 -66.5 -327.5 -69.7 -331.0 -73.75 -331.0 -76.0 -331.0 -78.95 -329.5 -81.85 -328.0 -82.5 -328.0 L-83.15 -328.4 Q-81.7 -330.2 -79.5 -335.75 -84.4 -343.5 -85.5 -344.5 -86.8 -345.6 -91.4 -346.4 -95.15 -347.05 -96.0 -349.5 -96.4 -350.6 -96.85 -356.2 -97.2 -360.35 -99.0 -361.5 -102.35 -363.5 -110.5 -363.5 -117.3 -363.5 -118.7 -359.15 L-121.0 -359.5 Q-126.3 -359.5 -132.5 -356.5 -139.5 -353.1 -139.5 -349.0 -139.5 -343.05 -137.0 -342.5 L-133.55 -341.6 Q-131.4 -340.6 -131.0 -338.0 L-132.6 -336.3 Q-134.6 -333.9 -134.0 -332.0 -132.85 -331.6 -128.55 -329.25 L-128.5 -328.4 -131.9 -328.2 Q-134.55 -327.9 -136.15 -326.9 -137.6 -327.5 -139.5 -327.5 -146.4 -327.5 -148.7 -324.8 -152.35 -320.45 -157.0 -318.5 -160.5 -317.0 -163.6 -310.65 L-167.0 -302.6 Q-168.5 -305.8 -168.5 -309.5 -168.5 -316.35 -165.2 -321.7 -161.95 -326.9 -156.0 -329.35 -154.95 -333.2 -148.9 -343.45 L-153.15 -355.3 Q-153.15 -362.55 -148.15 -369.55 -145.25 -373.6 -141.25 -375.95 L-132.65 -378.2 Q-130.55 -379.85 -128.7 -379.85 -119.9 -379.85 -112.3 -372.75 -108.55 -374.55 -104.8 -374.55 -97.05 -374.55 -93.5 -368.2 -91.4 -364.45 -91.4 -361.0 -91.4 -358.4 -92.85 -354.7 L-93.85 -352.4 Q-84.5 -352.0 -78.9 -346.4 -74.35 -341.8 -74.35 -336.95 L-74.35 -336.5 Q-63.45 -336.45 -59.45 -330.5 -57.2 -327.15 -57.2 -320.55 -57.2 -319.95 -57.35 -319.45 -56.95 -317.05 -56.95 -314.55 -56.95 -311.85 -57.75 -308.25 M-131.55 -288.0 Q-127.85 -288.05 -125.65 -289.25 -123.3 -290.5 -121.0 -290.5 -115.1 -290.5 -113.05 -289.1 -111.3 -287.85 -108.0 -282.0 -112.6 -284.5 -113.75 -284.5 -116.0 -284.5 -118.85 -282.5 -121.5 -280.6 -122.0 -279.0 L-129.5 -278.5 Q-134.15 -280.0 -136.5 -280.0 -141.45 -280.0 -145.5 -275.5 -149.5 -271.0 -149.5 -265.75 L-149.0 -261.9 -148.95 -261.65 -151.75 -259.15 Q-153.55 -257.3 -154.45 -255.65 L-154.65 -256.15 -155.3 -257.95 Q-156.4 -261.45 -156.4 -263.2 -156.4 -266.85 -156.05 -267.75 -155.5 -269.05 -154.0 -270.2 L-154.6 -270.85 Q-154.6 -276.45 -143.8 -284.65 L-142.2 -284.2 Q-138.25 -285.45 -130.65 -286.5 L-130.7 -286.55 -130.85 -286.8 -131.4 -287.75 -131.55 -288.0 M-49.9 -216.55 L-50.75 -218.05 -50.9 -218.3 Q-46.0 -217.15 -44.6 -216.45 -41.25 -214.85 -40.05 -210.15 L-40.5 -210.0 Q-41.0 -210.5 -42.9 -211.0 L-45.5 -211.5 Q-48.6 -211.5 -50.85 -208.6 -53.6 -205.05 -56.5 -204.0 -59.15 -203.05 -61.75 -199.6 -64.25 -195.75 -65.5 -194.5 -67.8 -197.05 -71.4 -198.9 -75.9 -201.15 -79.5 -200.5 -77.45 -204.9 -76.55 -207.5 -74.25 -207.45 -71.1 -205.45 -67.9 -203.4 -66.95 -203.4 -66.15 -203.4 -61.3 -209.7 -55.95 -215.05 -49.4 -215.85 L-49.45 -215.9 -49.55 -216.1 -49.75 -216.4 -49.9 -216.55 M-80.75 -214.2 L-80.85 -214.25 Q-80.6 -218.9 -82.35 -222.05 -84.25 -225.5 -85.5 -225.5 -87.0 -225.0 -87.5 -225.0 -92.7 -230.0 -96.25 -230.0 -98.75 -230.0 -105.5 -226.5 -113.0 -222.6 -113.0 -219.75 -113.0 -218.05 -112.2 -217.3 L-109.5 -215.0 Q-110.0 -214.5 -111.25 -214.5 -116.4 -214.5 -119.5 -211.5 -123.0 -208.15 -123.0 -201.75 L-122.9 -199.0 Q-126.25 -203.45 -126.25 -206.5 -126.25 -208.45 -123.75 -215.45 L-120.25 -224.4 Q-118.3 -228.65 -110.65 -232.6 -102.9 -236.65 -96.45 -236.65 -84.45 -236.65 -80.4 -230.5 -78.65 -227.8 -78.65 -223.35 L-78.65 -223.2 -78.7 -222.85 -79.0 -221.35 -79.05 -221.05 Q-79.8 -217.25 -80.75 -214.2 M-99.6 -160.5 L-97.5 -160.5 -91.5 -154.5 -96.9 -153.65 Q-100.1 -152.8 -100.0 -150.5 -107.15 -151.0 -108.9 -146.35 -109.85 -149.05 -109.85 -151.2 L-109.3 -153.25 -107.1 -155.1 -106.0 -156.85 -103.85 -158.9 -101.65 -158.55 -100.45 -159.7 -99.6 -160.5 M-101.8 -127.0 L-98.0 -127.0 Q-94.75 -126.0 -91.75 -124.3 L-90.25 -124.5 Q-85.25 -124.5 -81.0 -116.0 L-81.05 -115.5 Q-82.2 -115.5 -84.5 -116.25 L-88.0 -117.0 Q-90.95 -117.0 -93.2 -115.9 -95.7 -114.7 -99.0 -114.5 -104.55 -114.25 -107.0 -106.5 -114.95 -108.2 -115.0 -97.65 L-116.0 -100.7 Q-117.25 -104.95 -117.25 -106.8 -117.25 -114.45 -112.75 -118.85 -110.9 -120.65 -106.9 -123.45 L-101.8 -127.0 M132.85 -81.1 L129.95 -83.85 Q123.3 -90.0 121.75 -90.0 120.45 -90.0 119.5 -89.25 118.55 -88.5 117.75 -88.5 L111.35 -88.75 Q110.2 -88.95 109.6 -89.9 107.5 -93.35 100.6 -96.95 104.25 -96.7 105.55 -96.1 107.85 -95.05 114.15 -95.05 126.55 -95.05 131.15 -85.8 132.25 -83.6 132.85 -81.1 M184.15 -130.95 L183.3 -131.45 185.2 -134.35 Q189.0 -140.45 189.0 -143.0 189.0 -145.4 186.9 -147.05 L182.5 -150.5 181.3 -148.6 Q180.3 -147.4 178.5 -147.0 178.5 -153.2 166.8 -157.85 157.65 -161.5 152.5 -161.5 147.7 -161.5 145.5 -158.0 144.0 -155.65 144.0 -153.0 144.0 -151.2 144.4 -150.75 L146.0 -149.0 142.35 -148.15 Q140.6 -147.35 141.0 -145.0 140.1 -146.05 136.8 -145.9 L132.0 -145.5 Q132.6 -148.5 129.45 -150.85 126.55 -153.0 123.25 -153.0 114.05 -153.0 109.7 -148.45 107.9 -146.6 103.35 -138.0 L104.15 -143.3 105.15 -146.6 Q106.45 -150.2 108.25 -153.25 114.0 -162.8 122.55 -162.8 128.15 -162.8 131.05 -158.9 133.2 -156.0 133.25 -152.5 136.45 -152.5 138.4 -151.65 138.4 -158.5 141.15 -165.15 146.65 -178.5 160.65 -178.5 175.35 -178.5 185.05 -165.7 188.3 -161.4 190.45 -156.35 192.1 -152.45 192.1 -151.0 192.1 -137.4 184.15 -130.95 M100.55 -143.4 Q97.65 -143.15 92.55 -150.0 L76.25 -148.0 Q72.05 -147.0 70.05 -147.0 L70.0 -147.5 Q72.05 -149.55 73.95 -152.1 75.25 -153.3 78.05 -153.8 L77.6 -153.05 77.15 -152.4 81.2 -154.1 Q87.6 -156.6 89.95 -156.6 96.4 -156.6 99.55 -151.15 101.1 -148.45 101.4 -145.65 L101.4 -145.4 101.15 -144.5 100.55 -143.4 M79.8 -157.25 L78.0 -158.25 Q75.55 -159.4 75.0 -160.0 74.0 -161.15 71.8 -162.25 69.55 -163.4 68.5 -164.5 L69.4 -167.0 Q70.0 -169.2 70.0 -170.0 70.0 -174.45 66.8 -177.75 64.6 -180.05 61.95 -180.7 L62.5 -183.5 Q62.5 -184.95 61.8 -187.95 L59.1 -192.85 Q58.9 -195.0 57.4 -196.15 54.3 -197.6 52.5 -198.5 52.65 -198.85 54.3 -199.6 56.3 -200.5 58.0 -200.5 67.2 -200.5 70.8 -189.6 L70.45 -189.25 70.05 -188.9 70.2 -188.8 Q77.15 -185.3 79.7 -180.0 80.5 -178.4 80.95 -176.35 L81.4 -173.0 81.5 -170.6 81.75 -170.85 82.6 -165.45 Q81.75 -162.3 80.3 -158.55 L79.8 -157.25 M150.15 -225.4 Q147.9 -229.8 144.0 -233.0 145.45 -234.1 145.85 -237.55 L145.85 -237.6 Q147.15 -236.0 148.1 -233.85 L150.05 -226.6 150.2 -225.4 150.15 -225.4 M144.4 -245.9 L141.75 -248.6 Q138.5 -251.5 138.5 -252.25 139.5 -255.5 139.5 -256.75 139.5 -258.15 138.85 -260.35 141.3 -259.3 142.9 -256.95 144.9 -254.0 144.9 -250.85 L144.9 -250.35 144.9 -250.2 144.9 -250.05 Q144.85 -247.6 144.4 -245.9 M190.2 -294.15 L190.35 -294.65 188.8 -297.35 184.0 -302.5 186.05 -308.15 Q187.7 -312.95 187.95 -314.5 L187.95 -314.55 189.5 -309.95 Q190.95 -304.45 191.25 -298.75 191.25 -296.85 190.2 -294.15 M187.6 -324.45 L187.15 -324.15 185.7 -328.7 Q183.5 -334.0 180.75 -334.0 179.0 -333.0 177.75 -333.0 166.9 -337.5 166.0 -337.5 162.25 -337.5 160.35 -335.0 158.45 -332.5 157.25 -332.5 156.6 -332.5 153.5 -334.0 150.45 -335.5 149.75 -335.5 L145.5 -334.5 Q144.9 -334.5 141.0 -337.35 136.5 -340.6 131.0 -342.0 L131.0 -343.0 Q132.4 -344.4 135.0 -348.45 L136.35 -346.5 Q139.55 -342.5 147.4 -342.5 152.25 -342.5 155.5 -340.75 156.2 -343.2 158.2 -345.15 162.95 -349.85 173.55 -349.85 181.1 -349.85 185.35 -340.4 188.25 -333.85 188.25 -328.75 188.25 -327.1 187.6 -324.45 M132.6 -354.8 L130.25 -358.95 Q127.85 -362.6 124.5 -364.0 122.95 -364.65 115.55 -368.65 111.2 -371.0 107.75 -371.0 106.0 -371.0 104.8 -369.95 103.05 -368.55 101.5 -368.0 100.5 -373.2 98.95 -374.65 97.45 -376.0 93.0 -376.0 89.4 -376.0 88.9 -375.5 L86.5 -370.5 Q85.7 -368.85 82.8 -368.55 79.1 -368.15 78.0 -367.5 78.9 -373.9 69.0 -377.0 L65.9 -377.3 Q64.3 -377.55 63.0 -379.5 60.3 -381.15 58.8 -382.35 61.75 -384.35 65.95 -384.95 L66.5 -385.0 69.65 -385.2 Q74.6 -385.2 77.1 -380.85 78.35 -378.65 78.6 -376.5 L78.55 -375.5 78.35 -374.5 78.5 -374.2 79.3 -375.5 Q82.0 -379.9 84.85 -383.25 93.05 -392.9 99.1 -390.55 L99.7 -390.6 Q104.3 -390.6 107.8 -387.7 110.3 -385.65 111.15 -383.45 112.2 -380.85 114.5 -379.35 115.85 -378.45 119.2 -376.6 128.9 -370.0 130.35 -368.6 133.25 -365.75 133.25 -361.1 133.25 -359.15 132.65 -357.25 L132.85 -356.35 132.85 -356.15 132.85 -355.95 132.8 -355.75 132.65 -355.0 132.6 -354.8 M163.5 -284.0 Q157.35 -289.35 151.1 -289.9 L153.85 -291.75 Q157.65 -294.5 159.5 -294.5 162.6 -294.5 167.0 -292.5 172.5 -290.0 172.5 -286.5 172.5 -285.1 171.0 -282.5 170.5 -283.25 168.4 -284.45 L166.25 -285.5 163.5 -284.0 M49.85 -318.75 L50.1 -316.0 50.2 -314.55 50.2 -314.2 Q50.2 -311.15 49.55 -307.95 50.0 -307.65 50.55 -307.5 53.7 -304.45 56.3 -296.65 56.3 -290.05 54.2 -285.9 56.05 -285.3 57.1 -283.15 58.1 -281.25 58.1 -279.65 L58.5 -274.95 58.45 -275.55 Q55.75 -280.85 50.15 -284.2 44.6 -287.5 38.5 -287.5 L35.95 -287.35 35.35 -286.85 35.35 -286.8 35.2 -286.9 39.8 -291.1 Q43.5 -294.5 46.25 -294.5 47.5 -294.5 48.5 -293.5 48.5 -297.0 47.0 -300.5 47.0 -305.0 42.85 -308.0 39.3 -310.55 34.5 -311.0 35.5 -311.75 43.65 -314.6 47.9 -316.1 49.85 -318.75 M42.4 -239.1 L44.05 -232.95 Q46.5 -223.5 46.8 -220.85 L51.3 -221.3 51.9 -221.3 51.25 -225.95 Q50.4 -231.1 50.3 -234.05 L55.0 -223.5 53.5 -219.0 Q53.5 -217.65 54.5 -217.25 55.7 -216.8 56.0 -215.5 50.05 -213.5 44.0 -210.5 L42.45 -217.35 Q41.2 -221.4 37.0 -222.5 37.5 -225.0 38.75 -227.6 L40.85 -231.85 Q42.3 -235.05 42.4 -239.1 M60.3 -267.65 L60.1 -268.65 60.05 -269.3 60.05 -269.5 Q60.05 -278.15 72.55 -278.15 L72.7 -278.15 72.95 -278.15 73.1 -278.15 73.4 -278.1 77.55 -276.6 77.95 -276.2 78.05 -276.05 78.1 -275.95 78.55 -275.1 79.9 -274.3 78.4 -276.3 80.25 -276.5 Q86.85 -276.5 88.5 -271.0 L88.5 -266.0 85.5 -267.95 Q83.8 -269.0 82.0 -269.0 L79.0 -268.5 Q78.1 -270.25 73.85 -271.55 70.65 -272.5 69.0 -272.5 65.25 -272.5 62.55 -270.25 61.1 -269.0 60.35 -267.35 L60.3 -267.65 M67.05 -299.2 Q67.8 -302.0 69.55 -304.75 L70.1 -305.6 70.2 -305.8 Q75.7 -313.7 86.45 -313.7 89.05 -313.7 91.35 -311.25 95.1 -310.65 96.65 -306.5 L97.45 -301.45 97.45 -301.35 Q97.4 -300.2 96.55 -298.65 L95.9 -297.6 Q95.15 -301.0 92.35 -303.25 89.65 -305.5 86.75 -305.5 82.05 -305.5 77.0 -300.0 75.0 -301.0 73.0 -301.0 70.65 -301.0 67.95 -298.95 L67.05 -299.2 M97.2 -293.9 Q100.65 -296.35 110.35 -296.35 L113.5 -296.1 Q112.95 -298.2 112.5 -301.3 L112.6 -301.35 Q114.3 -298.2 117.2 -295.7 L121.3 -292.5 Q123.55 -290.75 124.5 -289.5 124.25 -289.0 123.0 -289.0 L117.75 -290.0 Q117.05 -290.0 115.0 -288.75 L112.75 -287.5 Q107.05 -289.5 104.75 -289.5 102.75 -289.5 101.0 -288.5 98.85 -287.25 97.5 -287.0 98.0 -288.7 97.2 -293.9 M-85.8 -143.65 L-85.55 -143.6 -84.8 -143.45 -82.25 -142.6 -82.15 -142.55 -82.1 -142.55 -81.8 -142.4 -81.5 -142.25 Q-81.2 -144.5 -78.0 -147.25 -74.15 -150.55 -70.25 -150.55 -65.05 -150.55 -62.0 -145.05 L-55.75 -145.75 Q-52.25 -145.75 -49.45 -143.95 -49.35 -143.95 -45.15 -146.5 L-44.0 -147.15 -45.2 -148.75 -44.0 -149.0 Q-40.45 -149.0 -37.1 -147.85 -33.05 -146.45 -33.0 -144.1 L-33.5 -144.0 Q-36.5 -145.0 -38.0 -145.0 -45.8 -145.0 -46.5 -137.5 -52.25 -140.0 -53.25 -140.0 -55.6 -138.5 -55.75 -138.5 -61.65 -138.5 -63.85 -140.5 -66.1 -142.5 -70.25 -142.5 -74.25 -142.5 -76.1 -139.25 -77.95 -136.0 -80.25 -136.0 L-87.5 -137.0 Q-86.7 -138.3 -86.25 -141.0 L-85.8 -143.65" fill="#666666" fill-rule="evenodd" stroke="none"/>
    </g>
  </defs>
</svg>
