<?xml version="1.0" encoding="UTF-8" standalone="no"?>
<svg xmlns:ffdec="https://www.free-decompiler.com/flash" xmlns:xlink="http://www.w3.org/1999/xlink" ffdec:objectType="frame" height="513.9px" width="383.5px" xmlns="http://www.w3.org/2000/svg">
  <g transform="matrix(1.0, 0.0, 0.0, 1.0, 183.4, 511.25)">
    <use ffdec:characterId="213" height="452.65" transform="matrix(1.0, 0.0, 0.0, 1.0, -168.5, -456.75)" width="364.8" xlink:href="#shape0"/>
  </g>
  <defs>
    <g id="shape0" transform="matrix(1.0, 0.0, 0.0, 1.0, 168.5, 456.75)">
      <path d="M90.4 -414.25 Q87.1 -404.65 83.9 -403.35 L83.2 -402.55 Q81.0 -400.4 77.75 -400.4 74.3 -400.4 68.9 -401.85 64.55 -403.05 61.95 -404.65 61.05 -402.45 59.4 -399.9 54.95 -392.95 48.7 -392.6 49.4 -390.0 49.65 -385.95 49.65 -382.55 47.2 -378.2 L44.7 -373.75 50.05 -367.05 51.0 -368.55 53.25 -372.75 Q54.7 -375.3 56.4 -376.65 L55.2 -378.45 Q52.6 -382.8 52.6 -385.05 52.6 -388.25 54.25 -390.6 L54.8 -390.25 Q58.65 -392.5 62.25 -392.5 68.3 -392.5 72.5 -388.5 76.5 -384.7 76.5 -379.75 76.5 -377.0 75.5 -375.0 L77.7 -373.0 Q79.15 -371.5 80.0 -371.5 80.45 -371.5 84.55 -373.5 89.35 -375.8 91.0 -377.5 L103.25 -382.5 Q107.15 -382.5 110.0 -379.5 L111.95 -376.75 Q113.0 -377.6 114.2 -377.85 L118.5 -378.0 Q125.5 -378.0 128.2 -372.5 L130.45 -367.3 Q131.4 -365.2 132.65 -363.6 L132.45 -362.95 Q131.5 -360.1 129.25 -358.75 L134.9 -357.9 134.25 -358.05 Q133.5 -354.35 133.5 -353.5 142.1 -351.95 141.0 -336.0 L151.0 -335.0 159.25 -331.5 Q160.25 -331.5 162.75 -333.75 165.25 -336.0 166.25 -336.0 L167.95 -335.65 169.0 -334.5 170.5 -337.55 Q171.5 -339.85 173.0 -340.5 178.6 -343.0 181.25 -343.0 183.1 -343.0 183.8 -341.45 184.6 -339.5 186.0 -339.0 L189.2 -337.85 Q190.7 -337.15 191.0 -336.0 L193.15 -329.8 193.4 -328.8 193.6 -328.85 Q191.2 -322.7 186.6 -320.85 188.85 -320.05 190.85 -318.0 L191.5 -314.75 Q189.5 -306.85 189.5 -305.75 189.5 -303.7 192.4 -302.25 193.55 -301.7 194.2 -300.95 L194.15 -300.9 190.8 -297.4 Q189.5 -295.45 187.2 -293.15 181.35 -287.3 175.45 -287.3 L173.2 -287.35 Q172.3 -284.55 169.85 -281.95 164.15 -275.9 152.6 -275.9 L148.4 -276.3 146.1 -276.15 Q143.0 -276.15 138.4 -277.5 134.3 -278.7 133.1 -279.55 131.35 -276.8 129.95 -275.4 L129.65 -275.1 131.2 -273.7 132.5 -273.75 Q133.85 -271.6 134.0 -268.0 134.15 -267.85 136.35 -266.6 138.1 -265.6 138.5 -264.5 139.05 -263.05 142.6 -259.6 144.15 -258.1 144.75 -256.75 L143.15 -252.0 Q141.4 -247.9 139.05 -246.45 L143.5 -245.7 143.15 -244.2 Q142.6 -242.15 142.0 -241.5 L146.8 -239.3 Q149.85 -237.95 151.7 -236.65 154.25 -234.8 155.7 -232.15 L155.75 -232.2 Q155.75 -225.05 151.95 -220.05 146.8 -213.25 135.65 -212.4 134.35 -209.3 131.0 -205.4 124.2 -197.35 115.15 -197.35 107.95 -197.35 103.55 -200.1 L102.8 -200.6 101.8 -200.9 101.35 -200.75 Q95.45 -198.2 88.1 -198.2 L83.9 -198.4 83.9 -198.35 82.1 -199.95 Q79.15 -202.5 78.25 -202.5 L76.5 -202.5 Q78.2 -200.0 74.5 -195.5 L75.0 -195.5 Q75.5 -195.5 76.5 -196.0 L76.5 -194.1 Q79.0 -189.95 83.8 -183.8 85.35 -181.5 86.2 -179.25 85.5 -177.25 84.2 -175.55 82.15 -172.95 78.75 -171.6 77.35 -170.45 75.35 -169.25 70.55 -166.4 64.85 -165.45 L65.8 -160.95 65.55 -158.8 67.75 -159.2 Q70.1 -159.2 72.25 -157.05 L74.0 -157.75 73.0 -157.35 73.0 -153.5 Q73.5 -153.5 73.5 -153.0 L76.0 -153.0 Q87.25 -160.5 94.0 -160.5 98.6 -160.5 99.95 -157.75 L100.8 -155.85 Q101.35 -155.0 102.5 -155.0 L106.0 -156.25 Q109.05 -157.5 110.0 -157.5 119.45 -157.5 125.7 -154.05 132.9 -150.15 133.0 -143.0 134.4 -144.0 136.0 -144.0 137.1 -144.0 139.9 -142.95 L143.0 -141.5 143.5 -142.0 145.05 -148.25 Q146.1 -152.55 148.5 -153.5 147.35 -154.0 147.1 -155.2 L147.0 -158.0 147.0 -158.1 Q147.0 -161.05 147.2 -161.85 147.7 -163.9 150.0 -164.5 150.95 -167.3 155.0 -169.3 159.45 -171.5 164.25 -171.5 169.65 -171.5 176.85 -161.95 183.05 -153.8 183.5 -150.5 185.0 -150.5 188.25 -151.5 190.35 -151.5 191.75 -149.75 L191.75 -143.95 Q191.75 -141.4 187.15 -136.2 182.0 -130.4 177.7 -130.4 171.0 -130.4 166.05 -133.1 L167.0 -127.8 Q167.0 -123.65 164.1 -119.25 160.05 -113.15 152.85 -113.15 148.45 -113.15 141.15 -119.1 L137.85 -121.95 133.25 -120.55 Q129.25 -120.55 125.35 -125.65 123.4 -128.2 121.95 -131.35 L121.9 -131.2 Q123.2 -128.75 123.25 -123.55 123.25 -118.9 120.85 -115.0 117.25 -109.25 109.7 -109.25 104.45 -109.25 100.85 -111.5 98.7 -110.25 95.8 -110.25 90.25 -110.25 85.5 -116.45 L85.4 -116.6 81.25 -116.3 Q81.25 -111.05 80.6 -108.75 86.4 -107.75 87.65 -106.45 88.4 -105.65 88.4 -102.5 L88.4 -102.35 Q90.35 -103.45 94.15 -103.6 L95.25 -100.45 Q96.3 -97.4 98.0 -96.5 104.75 -92.95 106.5 -90.5 107.55 -91.4 112.7 -92.45 L120.0 -93.5 Q125.05 -93.5 126.75 -92.2 128.05 -91.2 132.0 -85.0 132.45 -84.25 136.8 -79.85 L138.4 -77.8 137.25 -74.2 Q131.55 -60.4 109.35 -60.4 101.4 -60.4 96.3 -64.45 L95.15 -65.4 Q91.6 -63.45 85.8 -63.45 76.15 -63.45 69.4 -68.65 64.9 -72.15 64.4 -74.35 L62.1 -71.2 56.4 -63.85 55.75 -62.75 Q55.0 -61.8 55.0 -61.0 63.0 -53.25 63.65 -53.25 65.5 -53.25 67.2 -54.4 68.95 -55.55 70.6 -55.55 77.5 -55.55 82.1 -48.6 85.5 -43.45 85.5 -40.1 85.5 -36.0 81.7 -31.6 77.2 -26.4 70.0 -25.95 L68.25 -23.6 64.05 -17.7 Q64.05 -16.95 65.45 -14.5 66.8 -12.05 66.8 -10.6 66.8 -5.05 62.45 -4.75 61.45 -4.1 60.4 -4.1 53.75 -4.1 47.25 -6.35 41.9 -8.6 41.2 -8.6 29.8 -8.6 23.4 -7.4 L2.95 -6.25 Q-12.3 -6.25 -16.95 -7.6 -18.1 -6.9 -20.95 -6.9 -29.1 -6.9 -34.95 -14.1 -39.65 -19.9 -39.65 -24.35 -39.65 -29.15 -37.7 -35.85 -36.0 -41.75 -33.5 -44.25 -32.15 -44.75 -30.8 -45.6 L-31.9 -48.95 Q-29.8 -60.2 -29.8 -60.85 L-29.8 -62.45 -30.3 -64.1 Q-31.3 -61.25 -34.75 -57.9 -38.9 -53.9 -42.55 -53.9 -64.4 -53.9 -64.4 -64.4 L-64.25 -65.25 -64.8 -66.9 -66.3 -74.4 -65.85 -74.1 Q-61.8 -80.5 -53.5 -80.5 L-49.25 -80.4 Q-47.35 -80.05 -45.0 -78.5 L-45.0 -88.0 -47.9 -91.7 -48.35 -92.6 -46.85 -95.25 Q-43.9 -99.6 -39.0 -99.6 L-37.2 -99.3 Q-36.25 -100.5 -33.6 -102.15 L-30.55 -103.8 -31.4 -106.1 Q-36.5 -103.15 -42.25 -103.15 -54.95 -103.15 -59.15 -109.85 -61.1 -112.95 -61.1 -118.7 L-61.1 -119.5 Q-68.3 -120.25 -72.2 -124.75 L-73.05 -125.8 Q-74.5 -124.95 -77.0 -124.1 -80.6 -122.85 -84.3 -122.15 -84.95 -123.85 -89.45 -126.3 L-99.25 -129.1 Q-105.7 -126.9 -108.75 -121.3 L-109.55 -119.65 Q-105.3 -129.75 -94.8 -130.15 -94.8 -136.4 -94.45 -137.65 -93.75 -140.45 -92.05 -141.95 L-91.75 -142.0 Q-90.25 -142.0 -88.55 -140.8 L-85.5 -138.5 -82.55 -138.45 -79.0 -138.0 -72.5 -138.0 Q-72.5 -138.45 -73.0 -138.9 -73.5 -139.35 -73.5 -140.0 -73.5 -143.45 -71.0 -144.0 -69.6 -144.35 -66.5 -144.0 -62.4 -144.0 -60.55 -141.55 -58.95 -139.4 -54.5 -140.0 -51.3 -140.4 -48.1 -138.35 L-45.85 -139.1 -43.9 -136.6 -43.85 -136.65 Q-45.9 -140.05 -45.9 -144.9 L-45.45 -144.65 Q-44.05 -147.2 -41.4 -148.3 L-37.1 -149.3 -34.0 -150.0 Q-34.15 -151.95 -37.1 -153.65 -39.9 -155.3 -42.6 -154.75 -44.65 -157.25 -46.35 -160.85 -48.2 -164.65 -49.4 -169.2 L-50.3 -173.45 Q-50.3 -175.45 -49.55 -177.7 L-45.0 -182.5 Q-37.1 -189.5 -31.75 -189.5 -26.1 -189.5 -22.0 -186.5 -22.4 -188.85 -24.7 -190.6 L-26.7 -192.1 -26.9 -193.85 Q-27.1 -196.3 -26.7 -198.8 -26.4 -200.65 -25.8 -201.95 L-26.45 -204.1 Q-27.65 -202.2 -29.45 -200.55 -37.3 -193.25 -54.2 -193.25 -60.65 -193.25 -65.15 -195.4 L-66.15 -195.9 -66.35 -193.75 Q-66.35 -189.25 -67.95 -185.05 -70.85 -177.4 -77.75 -177.4 -82.3 -177.4 -86.7 -181.2 L-88.65 -183.0 -89.75 -181.8 Q-92.45 -179.3 -96.75 -179.3 -105.95 -179.3 -108.35 -184.75 -109.1 -186.45 -109.1 -188.5 L-108.95 -190.35 -108.9 -192.35 Q-114.75 -192.9 -115.45 -198.8 -121.25 -194.85 -125.2 -202.0 L-126.75 -205.5 Q-119.65 -219.8 -110.5 -218.0 -110.5 -219.4 -111.5 -221.05 -112.5 -222.7 -112.5 -223.25 -112.5 -226.15 -108.0 -228.5 -104.15 -230.5 -101.25 -230.5 -97.1 -230.5 -91.95 -227.75 -86.8 -224.95 -86.1 -221.7 L-85.9 -221.75 Q-86.75 -218.9 -88.3 -215.85 -91.2 -210.1 -95.4 -207.5 L-94.35 -206.5 -92.65 -204.3 -91.3 -205.1 Q-88.15 -206.85 -87.15 -208.1 L-85.5 -203.5 Q-80.7 -208.5 -77.25 -208.5 -74.95 -208.5 -71.95 -207.0 -68.95 -205.5 -67.5 -205.5 L-64.5 -206.0 Q-64.5 -211.55 -57.45 -215.35 -53.9 -217.2 -50.25 -218.0 L-41.2 -216.75 Q-34.9 -215.55 -34.0 -215.0 L-33.65 -215.25 Q-36.3 -219.1 -38.1 -220.4 -40.35 -222.0 -45.9 -223.5 L-41.3 -222.8 Q-43.2 -225.0 -44.8 -228.6 -48.0 -235.65 -48.0 -239.75 L-47.85 -245.4 Q-50.9 -244.3 -56.4 -244.3 -61.7 -244.3 -63.7 -250.25 -64.3 -252.1 -64.5 -254.35 L-64.6 -256.25 Q-64.6 -265.25 -55.7 -266.3 L-58.95 -269.55 -61.9 -273.1 -64.2 -272.75 Q-75.85 -272.75 -80.25 -279.4 -81.45 -281.25 -82.55 -284.55 -83.55 -287.45 -84.15 -288.1 L-89.4 -291.9 Q-92.8 -294.15 -93.2 -296.0 -93.4 -297.05 -94.7 -300.35 L-95.15 -301.6 Q-97.25 -300.25 -100.9 -300.25 L-103.2 -300.45 -103.35 -298.1 Q-103.35 -293.1 -107.3 -288.55 L-107.3 -288.1 Q-107.3 -287.15 -107.9 -286.5 L-108.8 -285.35 Q-104.4 -282.6 -104.15 -282.8 -102.5 -284.05 -98.05 -284.05 -93.5 -284.05 -91.1 -278.05 -89.9 -275.1 -89.6 -272.1 -89.6 -270.3 -91.7 -266.05 -94.05 -261.2 -97.45 -256.8 -106.85 -244.7 -116.75 -244.7 -119.65 -244.7 -121.15 -245.25 L-122.35 -243.95 Q-126.5 -240.4 -134.45 -240.4 -148.85 -240.4 -153.6 -251.85 -154.35 -253.65 -154.8 -255.95 -153.95 -259.4 -152.0 -263.0 -147.85 -270.5 -142.0 -270.5 -139.45 -270.5 -137.65 -269.3 -135.45 -267.85 -135.5 -265.0 -134.5 -266.0 -132.75 -266.0 -130.95 -266.0 -127.9 -264.75 -124.9 -263.5 -124.5 -263.5 -124.05 -263.5 -122.0 -265.0 -119.95 -266.5 -119.25 -266.5 -118.15 -266.5 -112.5 -264.5 -110.55 -270.5 -109.05 -272.55 -106.1 -276.45 -100.5 -276.0 -105.4 -277.5 -107.25 -277.5 -109.4 -277.5 -110.7 -275.55 -112.0 -273.6 -114.4 -273.1 L-114.45 -273.7 -114.4 -274.55 Q-119.9 -275.95 -123.5 -281.2 -126.75 -286.0 -126.75 -289.0 -126.75 -291.0 -126.2 -292.4 -126.8 -294.35 -126.8 -297.15 -126.8 -297.95 -126.0 -299.0 L-125.4 -299.65 -125.45 -299.75 -127.4 -299.6 Q-134.45 -299.6 -138.5 -302.7 L-140.35 -304.35 -142.15 -303.0 Q-148.0 -298.95 -156.4 -298.95 -162.1 -298.95 -165.3 -302.2 L-165.5 -305.5 Q-165.5 -313.25 -160.5 -317.0 -156.55 -320.0 -150.5 -320.0 -149.0 -320.0 -148.0 -319.0 -148.45 -322.45 -151.5 -325.05 L-151.7 -324.9 -151.5 -324.65 Q-153.65 -327.1 -153.65 -330.55 -153.65 -331.3 -152.25 -333.55 L-151.55 -333.15 -144.5 -332.5 Q-144.5 -334.15 -144.0 -335.05 -143.5 -336.0 -143.5 -337.0 -143.5 -337.95 -145.5 -340.0 L-149.1 -339.05 -149.3 -339.0 -148.95 -338.55 Q-150.05 -340.15 -155.25 -343.2 -157.1 -344.3 -158.2 -345.5 L-157.35 -344.7 -156.9 -345.2 -158.0 -348.5 Q-158.0 -354.65 -153.7 -357.95 -149.3 -361.4 -143.5 -359.0 -142.6 -361.35 -139.95 -362.8 -137.75 -364.0 -135.75 -364.0 -133.55 -364.0 -131.1 -362.05 -129.0 -360.3 -129.0 -359.5 -127.6 -359.25 -125.35 -360.7 -123.0 -362.2 -120.5 -362.45 L-120.5 -362.5 Q-119.95 -363.85 -117.85 -364.95 -115.75 -366.0 -113.75 -366.0 -106.55 -366.0 -104.05 -358.8 -103.15 -356.1 -102.0 -345.0 -95.65 -345.35 -92.05 -342.45 -90.4 -341.15 -86.5 -335.5 -83.65 -336.35 -80.8 -335.55 -77.65 -334.65 -76.0 -332.0 -75.0 -330.45 -70.9 -329.2 -67.8 -328.3 -68.5 -325.5 -65.85 -325.85 -63.65 -323.15 L-62.25 -321.05 Q-63.0 -318.8 -64.15 -316.85 -62.6 -314.4 -62.15 -312.45 -61.9 -311.4 -61.9 -306.25 -61.9 -302.3 -62.85 -300.65 L-59.95 -300.7 -58.85 -300.65 Q-58.95 -299.1 -59.35 -297.4 -60.1 -294.45 -61.45 -293.35 L-61.25 -293.15 Q-59.85 -294.0 -56.25 -294.0 -47.45 -294.0 -40.45 -285.7 -33.9 -277.95 -34.0 -269.5 -30.75 -274.75 -26.3 -277.05 -25.0 -277.75 -24.55 -278.8 -24.0 -280.2 -24.0 -284.0 -24.0 -287.05 -22.0 -289.0 -19.95 -291.0 -16.75 -291.0 -15.1 -291.0 -10.5 -288.0 L-10.5 -291.0 Q-14.6 -295.0 -17.0 -295.0 -22.3 -295.0 -24.55 -292.85 L-28.4 -289.45 -26.05 -292.45 -26.15 -292.65 Q-28.35 -289.25 -31.9 -289.25 -37.2 -289.25 -40.9 -293.95 L-42.75 -296.65 -42.0 -297.0 Q-42.0 -301.3 -35.9 -306.75 -31.55 -310.6 -28.0 -311.4 L-28.25 -312.0 Q-34.8 -312.0 -37.6 -310.6 -39.85 -309.5 -42.95 -306.05 L-43.7 -306.7 -46.9 -309.35 Q-51.6 -313.55 -51.6 -318.0 -51.6 -319.45 -50.75 -320.35 L-50.2 -320.1 Q-48.3 -324.5 -44.5 -328.0 -37.9 -334.0 -30.25 -334.0 -28.35 -334.0 -23.0 -330.45 -25.5 -338.05 -31.45 -341.1 L-31.0 -346.45 -31.5 -347.85 Q-32.5 -350.15 -32.5 -353.5 -32.5 -360.2 -32.2 -361.45 -31.35 -365.2 -27.5 -367.0 -26.3 -367.55 -22.75 -372.2 -18.9 -376.15 -15.0 -374.5 -15.0 -376.0 -17.5 -383.0 -17.5 -386.85 -13.5 -390.0 -9.7 -393.0 -5.5 -393.0 5.9 -393.0 8.0 -383.0 10.9 -383.45 13.9 -380.45 17.1 -377.3 16.5 -373.5 L25.0 -373.5 25.0 -381.45 24.25 -381.45 Q24.7 -381.85 25.3 -382.25 L26.85 -383.3 27.3 -385.05 Q28.05 -387.35 29.35 -388.3 23.35 -388.3 21.5 -392.6 20.55 -394.8 20.8 -397.25 20.8 -400.45 22.6 -403.3 23.25 -404.35 24.05 -405.05 L22.25 -405.05 Q19.9 -405.05 17.25 -406.05 11.9 -406.45 7.35 -410.8 4.35 -413.7 3.55 -415.65 2.7 -416.65 1.95 -418.65 L2.85 -418.4 Q3.8 -421.95 7.2 -425.7 13.8 -433.0 21.0 -433.0 24.4 -433.0 26.55 -431.85 28.25 -430.9 31.0 -428.0 31.9 -428.4 33.5 -430.35 34.8 -431.9 37.0 -432.0 42.5 -432.1 42.5 -437.0 42.5 -440.4 46.95 -442.6 50.7 -444.5 54.75 -444.5 62.65 -444.5 68.0 -439.0 73.0 -433.9 73.0 -427.5 73.0 -425.5 72.0 -422.5 77.45 -423.7 83.9 -420.4 88.9 -417.85 90.4 -414.25 M-68.55 -112.0 Q-66.35 -109.15 -66.35 -104.15 -66.35 -97.05 -69.6 -92.05 -75.55 -82.85 -90.9 -82.85 -97.2 -82.85 -101.8 -84.8 L-102.0 -86.05 Q-106.55 -87.85 -109.4 -95.85 L-108.9 -95.8 Q-108.45 -99.2 -105.9 -99.85 -101.9 -100.9 -100.5 -104.0 -98.8 -107.85 -96.25 -111.6 L-93.05 -115.5 -88.5 -115.5 Q-86.0 -113.0 -79.5 -107.5 -78.6 -110.25 -76.9 -111.35 -75.15 -112.5 -71.5 -112.5 L-68.55 -112.0 M163.3 -297.65 L161.4 -296.95 Q165.55 -296.4 172.5 -291.0 173.45 -291.0 174.5 -292.0 175.5 -292.95 175.5 -293.75 175.5 -296.15 172.5 -297.5 170.15 -298.5 167.5 -298.5 165.5 -298.5 163.3 -297.65 M113.35 -308.0 Q114.0 -309.7 115.4 -311.95 113.3 -312.85 112.0 -316.6 111.1 -319.05 110.85 -321.7 110.85 -325.55 113.5 -328.95 117.05 -333.45 123.5 -333.45 L123.7 -333.45 125.55 -335.05 Q129.05 -339.0 131.0 -340.1 130.55 -340.65 130.75 -341.65 L130.85 -343.15 Q130.3 -344.75 123.25 -344.75 121.8 -342.75 119.75 -340.8 117.7 -338.8 115.45 -337.8 L115.45 -337.6 Q115.45 -336.4 113.25 -335.4 110.45 -334.1 105.45 -334.1 96.95 -334.1 91.9 -338.8 88.1 -342.35 88.1 -345.65 88.1 -349.25 92.7 -354.9 L96.3 -358.7 Q90.3 -359.45 85.6 -362.05 84.3 -361.0 82.25 -360.25 L73.65 -356.8 73.85 -351.35 Q73.85 -346.1 67.35 -339.9 59.55 -332.5 49.1 -332.5 44.0 -332.5 40.9 -336.3 L40.45 -336.85 40.15 -335.55 Q41.15 -333.05 41.6 -328.2 41.6 -323.7 40.05 -318.7 L39.85 -318.05 40.25 -317.0 Q41.2 -314.85 41.1 -310.4 41.1 -308.9 42.05 -305.1 L42.1 -305.0 Q40.4 -302.4 40.5 -301.5 L42.0 -301.5 Q44.9 -302.75 47.1 -302.75 51.7 -302.75 55.1 -296.15 56.35 -293.65 58.2 -287.85 58.05 -284.05 57.55 -282.95 56.25 -280.05 52.1 -277.9 51.75 -273.05 47.7 -267.65 41.75 -259.8 31.85 -261.25 37.35 -259.85 39.3 -253.9 40.25 -251.0 40.25 -244.3 40.25 -238.05 36.9 -224.8 35.0 -222.05 31.6 -218.55 33.85 -218.8 37.1 -217.15 40.7 -215.35 41.0 -213.5 43.0 -214.95 47.2 -215.35 L53.5 -216.0 53.4 -219.8 Q53.35 -222.05 54.5 -223.0 54.25 -223.75 51.0 -227.0 L51.0 -229.35 50.3 -229.35 Q52.9 -235.15 52.9 -237.7 52.9 -241.9 50.05 -244.0 47.15 -246.15 47.15 -250.3 47.15 -251.15 47.65 -252.5 L48.25 -252.3 Q52.15 -255.45 57.5 -255.5 58.1 -259.4 61.25 -261.75 64.45 -264.15 69.0 -264.0 67.55 -265.25 68.2 -267.45 L66.85 -267.65 58.0 -265.7 Q62.1 -268.1 66.85 -267.65 L68.25 -267.45 68.25 -267.6 Q68.85 -269.65 71.2 -272.5 76.0 -278.5 79.5 -278.5 81.95 -278.5 88.8 -275.55 L89.0 -276.0 Q87.25 -276.85 84.9 -279.2 82.75 -281.35 81.0 -282.0 81.0 -285.0 82.15 -288.0 L81.7 -288.35 81.2 -287.7 82.95 -289.75 Q86.5 -293.3 90.7 -293.75 L89.8 -293.6 90.75 -292.7 93.0 -289.5 Q94.2 -289.5 97.4 -291.25 100.65 -293.0 101.5 -293.0 100.5 -296.0 100.5 -296.75 100.5 -300.65 105.5 -303.0 109.8 -305.0 115.25 -305.0 117.0 -305.0 120.0 -303.5 L120.5 -303.5 Q120.5 -304.9 118.55 -306.3 L116.0 -308.0 113.35 -308.0 M98.55 -311.05 Q98.5 -307.45 96.65 -305.7 95.35 -304.5 92.4 -303.8 88.9 -303.0 88.0 -302.5 85.9 -301.35 85.65 -298.75 85.4 -296.6 81.8 -291.85 78.3 -287.25 77.1 -287.25 70.2 -287.25 67.0 -294.5 65.9 -296.95 65.45 -299.4 67.05 -303.6 74.5 -308.5 L80.7 -312.8 Q84.3 -315.0 87.75 -315.0 90.65 -315.0 94.1 -312.8 97.1 -310.9 98.3 -308.85 L98.35 -308.95 98.55 -311.05 M11.0 -366.05 Q10.15 -365.7 10.15 -364.1 L12.3 -360.7 13.35 -361.55 Q14.25 -362.35 16.2 -362.45 L11.0 -366.2 11.0 -366.05 M51.2 -201.9 Q51.65 -200.8 52.55 -200.25 L57.95 -203.4 Q62.4 -205.5 68.25 -206.25 66.65 -208.25 66.65 -209.9 66.65 -210.6 66.9 -211.1 61.3 -208.85 52.6 -208.45 52.6 -207.4 49.8 -204.05 50.45 -203.6 51.2 -201.9 M126.8 -243.95 L132.75 -245.8 132.7 -245.85 Q119.7 -246.1 116.6 -253.9 115.55 -253.7 114.4 -252.95 112.9 -252.0 112.25 -251.75 108.95 -250.45 101.4 -252.15 L100.7 -250.7 Q100.2 -249.7 100.2 -248.75 100.2 -246.5 96.15 -239.75 L100.45 -240.35 Q102.35 -237.95 104.5 -234.0 108.3 -236.45 109.8 -236.8 L114.25 -237.0 Q116.55 -237.0 119.1 -235.95 121.75 -234.8 122.0 -233.5 126.65 -238.35 129.0 -238.5 L126.8 -243.95 M108.4 -189.35 Q109.1 -187.6 108.55 -185.7 108.55 -176.55 96.8 -176.55 93.65 -176.55 92.1 -180.85 91.15 -183.4 91.15 -185.45 L91.2 -186.15 Q92.2 -187.35 94.05 -188.4 97.8 -190.5 102.0 -190.5 106.05 -190.5 107.7 -189.35 L108.1 -189.05 108.4 -189.35 M90.8 -129.5 Q91.5 -127.7 91.5 -125.0 92.5 -126.0 93.5 -126.0 95.3 -126.0 97.75 -125.05 100.3 -124.05 102.0 -124.0 L102.0 -127.0 Q100.5 -130.05 99.3 -133.2 99.75 -136.15 100.1 -137.1 L100.85 -138.9 Q101.8 -141.75 101.8 -143.55 L101.05 -148.7 Q98.6 -144.55 91.6 -144.25 L90.35 -143.4 Q87.45 -141.35 87.45 -140.05 87.45 -139.2 88.2 -137.4 L88.9 -134.75 88.05 -129.2 90.8 -129.5 M58.75 -126.6 L58.8 -131.65 Q58.9 -136.65 60.2 -140.2 L60.05 -140.05 Q53.1 -134.45 50.15 -129.8 46.95 -124.9 46.95 -119.35 46.95 -115.45 50.3 -110.9 L52.0 -111.8 Q53.05 -109.55 53.5 -106.0 55.1 -107.05 57.7 -113.05 60.5 -119.5 60.5 -123.25 60.5 -124.4 59.6 -126.8 L58.75 -126.6 M15.55 -83.75 L15.55 -83.5 Q17.5 -83.7 19.45 -84.7 18.05 -87.9 16.9 -88.6 L15.55 -83.75 M-112.2 -326.7 L-111.2 -328.4 -111.05 -328.65 Q-112.65 -329.0 -116.25 -330.8 L-115.8 -328.1 Q-115.2 -326.3 -112.2 -326.7 M-107.25 -156.85 L-104.6 -157.65 -97.0 -158.5 Q-97.0 -159.7 -95.75 -162.1 L-94.5 -164.25 Q-94.5 -165.0 -95.75 -165.95 -97.0 -166.95 -97.0 -168.5 -97.0 -171.15 -95.0 -172.8 L-89.95 -173.45 Q-86.5 -173.45 -85.15 -168.95 -85.15 -161.9 -88.75 -160.25 -88.2 -158.35 -88.4 -156.4 -88.4 -144.25 -99.7 -144.25 -103.85 -144.25 -106.6 -146.85 -108.55 -148.75 -108.55 -149.7 -108.55 -153.1 -107.25 -156.85" fill="#5e5e5e" fill-rule="evenodd" stroke="none"/>
      <path d="M1.95 -418.65 Q0.8 -421.7 0.8 -422.75 0.8 -428.6 3.1 -432.9 7.6 -441.5 19.65 -441.5 23.0 -441.5 26.85 -438.25 L27.35 -437.8 Q28.25 -440.65 30.3 -444.15 35.45 -453.0 43.9 -453.0 L45.6 -452.9 47.65 -454.25 Q53.45 -457.65 60.4 -456.45 69.2 -454.9 74.25 -447.2 78.1 -441.3 78.1 -435.65 L78.05 -432.7 81.0 -432.85 Q86.55 -432.85 89.75 -426.2 90.8 -424.05 91.45 -421.5 L91.9 -419.2 90.4 -414.25 Q88.9 -417.85 83.9 -420.4 77.45 -423.7 72.0 -422.5 73.0 -425.5 73.0 -427.5 73.0 -433.9 68.0 -439.0 62.65 -444.5 54.75 -444.5 50.7 -444.5 46.95 -442.6 42.5 -440.4 42.5 -437.0 42.5 -432.1 37.0 -432.0 34.8 -431.9 33.5 -430.35 31.9 -428.4 31.0 -428.0 28.25 -430.9 26.55 -431.85 24.4 -433.0 21.0 -433.0 13.8 -433.0 7.2 -425.7 3.8 -421.95 2.85 -418.4 L1.95 -418.65 M54.25 -390.6 L54.75 -391.25 55.2 -391.75 55.25 -391.85 Q60.25 -396.95 73.2 -395.35 76.45 -395.1 79.45 -390.45 82.05 -386.45 82.05 -384.3 82.05 -381.9 81.15 -380.75 L81.95 -380.0 Q86.7 -382.7 93.85 -387.15 L94.0 -387.1 Q94.8 -388.85 96.45 -390.65 101.2 -395.85 109.7 -395.85 116.8 -395.85 118.9 -390.65 119.55 -389.0 119.6 -387.0 L119.55 -385.2 119.3 -381.95 Q119.95 -382.35 120.35 -382.35 133.1 -382.35 133.1 -369.8 L133.1 -369.55 133.1 -368.65 Q133.05 -365.35 132.65 -363.6 131.4 -365.2 130.45 -367.3 L128.2 -372.5 Q125.5 -378.0 118.5 -378.0 L114.2 -377.85 Q113.0 -377.6 111.95 -376.75 L110.0 -379.5 Q107.15 -382.5 103.25 -382.5 L91.0 -377.5 Q89.35 -375.8 84.55 -373.5 80.45 -371.5 80.0 -371.5 79.15 -371.5 77.7 -373.0 L75.5 -375.0 Q76.5 -377.0 76.5 -379.75 76.5 -384.7 72.5 -388.5 68.3 -392.5 62.25 -392.5 58.65 -392.5 54.8 -390.25 L54.25 -390.6 M134.9 -357.9 L135.5 -357.7 Q138.1 -356.8 140.0 -355.2 L140.1 -355.15 140.15 -355.05 140.75 -354.5 140.95 -354.3 142.3 -352.6 Q144.7 -349.0 144.7 -344.2 144.7 -342.65 143.25 -341.2 152.4 -339.55 157.0 -337.45 157.45 -342.65 160.0 -347.75 165.1 -358.15 176.4 -358.15 185.2 -358.15 190.4 -350.95 L192.3 -347.95 Q193.3 -346.7 193.9 -344.75 195.45 -343.05 195.5 -339.25 195.5 -333.8 193.6 -328.85 L193.4 -328.8 193.15 -329.8 191.0 -336.0 Q190.7 -337.15 189.2 -337.85 L186.0 -339.0 Q184.6 -339.5 183.8 -341.45 183.1 -343.0 181.25 -343.0 178.6 -343.0 173.0 -340.5 171.5 -339.85 170.5 -337.55 L169.0 -334.5 167.95 -335.65 166.25 -336.0 Q165.25 -336.0 162.75 -333.75 160.25 -331.5 159.25 -331.5 L151.0 -335.0 141.0 -336.0 Q142.1 -351.95 133.5 -353.5 133.5 -354.35 134.25 -358.05 L134.9 -357.9 M190.85 -318.0 L193.25 -314.85 Q196.3 -309.95 196.3 -307.2 L196.3 -306.95 196.3 -306.8 196.3 -306.5 196.2 -305.8 Q195.85 -303.2 194.2 -300.95 193.55 -301.7 192.4 -302.25 189.5 -303.7 189.5 -305.75 189.5 -306.85 191.5 -314.75 L190.85 -318.0 M132.5 -273.75 L133.9 -273.8 Q140.25 -273.8 142.9 -262.85 L145.2 -260.6 144.75 -256.75 Q144.15 -258.1 142.6 -259.6 139.05 -263.05 138.5 -264.5 138.1 -265.6 136.35 -266.6 134.15 -267.85 134.0 -268.0 133.85 -271.6 132.5 -273.75 M143.5 -245.7 Q149.05 -244.25 152.45 -239.9 155.75 -235.65 155.75 -232.2 L155.7 -232.15 Q154.25 -234.8 151.7 -236.65 149.85 -237.95 146.8 -239.3 L142.0 -241.5 Q142.6 -242.15 143.15 -244.2 L143.5 -245.7 M83.9 -198.35 L84.9 -195.35 Q86.5 -189.65 86.8 -183.5 86.8 -181.2 86.2 -179.25 85.35 -181.5 83.8 -183.8 79.0 -189.95 76.5 -194.1 L76.5 -196.0 Q75.5 -195.5 75.0 -195.5 L74.5 -195.5 Q78.2 -200.0 76.5 -202.5 L78.25 -202.5 Q79.15 -202.5 82.1 -199.95 L83.9 -198.35 M74.0 -157.75 Q89.3 -164.1 91.55 -164.9 L91.9 -165.05 Q99.6 -165.05 101.7 -160.0 L101.8 -159.7 103.15 -161.15 Q107.8 -165.05 120.6 -165.05 L127.0 -164.35 127.15 -164.15 Q132.4 -163.4 134.65 -156.5 136.05 -152.2 136.05 -147.5 L138.85 -146.6 139.5 -146.65 Q139.75 -149.7 141.15 -152.65 143.15 -157.0 146.7 -158.1 145.5 -160.1 144.9 -163.45 L144.3 -171.8 Q144.3 -175.65 149.2 -179.55 155.35 -184.4 165.2 -184.4 173.85 -184.4 178.05 -179.3 179.45 -177.55 180.1 -176.0 181.85 -174.15 182.9 -169.75 183.7 -166.25 183.9 -162.55 L186.25 -160.85 Q191.25 -156.95 191.6 -154.6 L191.75 -149.75 Q190.35 -151.5 188.25 -151.5 185.0 -150.5 183.5 -150.5 183.05 -153.8 176.85 -161.95 169.65 -171.5 164.25 -171.5 159.45 -171.5 155.0 -169.3 150.95 -167.3 150.0 -164.5 147.7 -163.9 147.2 -161.85 147.0 -161.05 147.0 -158.1 L147.0 -158.0 147.1 -155.2 Q147.35 -154.0 148.5 -153.5 146.1 -152.55 145.05 -148.25 L143.5 -142.0 143.0 -141.5 139.9 -142.95 Q137.1 -144.0 136.0 -144.0 134.4 -144.0 133.0 -143.0 132.9 -150.15 125.7 -154.05 119.45 -157.5 110.0 -157.5 109.05 -157.5 106.0 -156.25 L102.5 -155.0 Q101.35 -155.0 100.8 -155.85 L99.95 -157.75 Q98.6 -160.5 94.0 -160.5 87.25 -160.5 76.0 -153.0 L73.5 -153.0 Q73.5 -153.5 73.0 -153.5 L73.0 -157.35 74.0 -157.75 M94.15 -103.6 L95.5 -103.65 Q99.65 -103.65 103.7 -97.75 L108.05 -99.35 Q116.65 -102.35 120.6 -102.35 131.45 -102.35 136.1 -96.45 138.7 -93.2 138.7 -90.0 L139.1 -84.3 Q139.1 -80.8 138.4 -77.8 L136.8 -79.85 Q132.45 -84.25 132.0 -85.0 128.05 -91.2 126.75 -92.2 125.05 -93.5 120.0 -93.5 L112.7 -92.45 Q107.55 -91.4 106.5 -90.5 104.75 -92.95 98.0 -96.5 96.3 -97.4 95.25 -100.45 L94.15 -103.6 M-66.3 -74.4 Q-66.3 -76.6 -62.85 -80.55 -58.55 -85.55 -53.2 -85.55 -51.8 -85.55 -50.0 -84.35 L-47.8 -83.9 -49.15 -88.95 Q-49.15 -90.7 -48.35 -92.6 L-47.9 -91.7 -45.0 -88.0 -45.0 -78.5 Q-47.35 -80.05 -49.25 -80.4 L-53.5 -80.5 Q-61.8 -80.5 -65.85 -74.1 L-66.3 -74.4 M-84.3 -122.15 L-82.05 -119.6 Q-80.2 -117.3 -79.3 -115.7 L-78.4 -115.85 -78.2 -115.85 -78.05 -115.85 Q-71.45 -115.75 -68.55 -112.0 L-71.5 -112.5 Q-75.15 -112.5 -76.9 -111.35 -78.6 -110.25 -79.5 -107.5 -86.0 -113.0 -88.5 -115.5 L-93.05 -115.5 -96.25 -111.6 Q-98.8 -107.85 -100.5 -104.0 -101.9 -100.9 -105.9 -99.85 -108.45 -99.2 -108.9 -95.8 L-109.4 -95.85 Q-111.85 -102.65 -111.85 -106.75 -111.85 -114.05 -109.6 -119.55 L-109.55 -119.65 -108.75 -121.3 Q-105.7 -126.9 -99.25 -129.1 L-89.45 -126.3 Q-84.95 -123.85 -84.3 -122.15 M-92.05 -141.95 Q-90.0 -143.8 -86.45 -143.8 -80.1 -143.8 -78.85 -142.2 L-78.8 -142.8 -80.9 -149.55 Q-80.9 -152.4 -77.7 -154.4 -74.35 -156.55 -69.05 -156.55 -62.5 -156.55 -59.3 -151.8 -57.65 -149.45 -57.35 -146.8 -57.35 -146.0 -58.1 -144.2 L-55.1 -144.25 Q-50.25 -144.25 -45.85 -139.1 L-48.1 -138.35 Q-51.3 -140.4 -54.5 -140.0 -58.95 -139.4 -60.55 -141.55 -62.4 -144.0 -66.5 -144.0 -69.6 -144.35 -71.0 -144.0 -73.5 -143.45 -73.5 -140.0 -73.5 -139.35 -73.0 -138.9 -72.5 -138.45 -72.5 -138.0 L-79.0 -138.0 -82.55 -138.45 -85.5 -138.5 -88.55 -140.8 Q-90.25 -142.0 -91.75 -142.0 L-92.05 -141.95 M-45.9 -144.9 Q-45.9 -147.25 -42.6 -149.8 -41.1 -150.95 -39.4 -151.65 -41.1 -152.9 -42.6 -154.75 -39.9 -155.3 -37.1 -153.65 -34.15 -151.95 -34.0 -150.0 L-37.1 -149.3 -41.4 -148.3 Q-44.05 -147.2 -45.45 -144.65 L-45.9 -144.9 M-49.55 -177.7 Q-48.6 -180.7 -46.35 -184.05 -40.9 -192.3 -31.6 -192.3 -28.45 -192.3 -26.55 -191.55 L-26.7 -192.1 -24.7 -190.6 Q-22.4 -188.85 -22.0 -186.5 -26.1 -189.5 -31.75 -189.5 -37.1 -189.5 -45.0 -182.5 L-49.55 -177.7 M-126.75 -205.5 L-127.35 -207.4 -128.05 -210.35 Q-128.05 -212.1 -126.1 -214.9 -123.65 -218.3 -120.55 -218.3 L-119.2 -218.25 -119.85 -219.65 Q-121.05 -222.65 -121.05 -224.55 -121.05 -228.05 -117.4 -232.35 -113.2 -237.3 -107.95 -237.3 L-106.5 -237.15 Q-103.95 -238.3 -100.65 -238.3 -93.95 -238.3 -88.95 -233.9 -85.0 -230.4 -85.0 -228.1 L-85.0 -227.9 -85.0 -227.7 -85.0 -227.5 -85.0 -227.45 Q-85.1 -224.7 -85.9 -221.75 L-86.1 -221.7 Q-86.8 -224.95 -91.95 -227.75 -97.1 -230.5 -101.25 -230.5 -104.15 -230.5 -108.0 -228.5 -112.5 -226.15 -112.5 -223.25 -112.5 -222.7 -111.5 -221.05 -110.5 -219.4 -110.5 -218.0 -119.65 -219.8 -126.75 -205.5 M-87.15 -208.1 L-86.95 -208.45 Q-86.95 -210.25 -85.85 -211.8 -85.0 -213.05 -83.6 -213.55 L-83.85 -214.1 -79.35 -214.7 Q-70.85 -214.7 -67.85 -211.25 -67.25 -213.7 -65.9 -215.9 -61.65 -222.95 -51.9 -223.25 L-48.4 -223.55 -48.3 -223.55 -48.25 -223.55 -48.15 -223.55 -47.65 -223.55 -45.95 -223.5 -45.9 -223.5 Q-40.35 -222.0 -38.1 -220.4 -36.3 -219.1 -33.65 -215.25 L-34.0 -215.0 Q-34.9 -215.55 -41.2 -216.75 L-50.25 -218.0 Q-53.9 -217.2 -57.45 -215.35 -64.5 -211.55 -64.5 -206.0 L-67.5 -205.5 Q-68.95 -205.5 -71.95 -207.0 -74.95 -208.5 -77.25 -208.5 -80.7 -208.5 -85.5 -203.5 L-87.15 -208.1 M-154.8 -255.95 Q-155.6 -259.75 -155.6 -264.95 -155.6 -270.1 -153.3 -274.05 -149.05 -281.35 -138.05 -281.35 -129.25 -281.35 -124.0 -276.3 -121.45 -273.85 -120.65 -271.85 L-119.6 -272.3 Q-116.4 -272.3 -114.35 -271.5 L-114.35 -271.7 -114.35 -271.85 -114.4 -272.2 -114.4 -272.5 -114.4 -272.95 -114.4 -273.1 Q-112.0 -273.6 -110.7 -275.55 -109.4 -277.5 -107.25 -277.5 -105.4 -277.5 -100.5 -276.0 -106.1 -276.45 -109.05 -272.55 -110.55 -270.5 -112.5 -264.5 -118.15 -266.5 -119.25 -266.5 -119.95 -266.5 -122.0 -265.0 -124.05 -263.5 -124.5 -263.5 -124.9 -263.5 -127.9 -264.75 -130.95 -266.0 -132.75 -266.0 -134.5 -266.0 -135.5 -265.0 -135.45 -267.85 -137.65 -269.3 -139.45 -270.5 -142.0 -270.5 -147.85 -270.5 -152.0 -263.0 -153.95 -259.4 -154.8 -255.95 M-165.3 -302.2 L-166.7 -304.0 Q-167.7 -305.6 -168.2 -307.55 L-168.5 -309.35 Q-168.5 -313.95 -165.7 -318.9 -161.8 -325.9 -154.75 -325.9 -153.2 -325.9 -151.65 -324.6 L-151.45 -324.45 -151.5 -324.65 -151.7 -324.9 -151.5 -325.05 Q-148.45 -322.45 -148.0 -319.0 -149.0 -320.0 -150.5 -320.0 -156.55 -320.0 -160.5 -317.0 -165.5 -313.25 -165.5 -305.5 L-165.3 -302.2 M-152.25 -333.55 L-151.55 -334.7 -148.85 -338.4 -148.95 -338.55 -149.3 -339.0 -149.1 -339.05 -145.5 -340.0 Q-143.5 -337.95 -143.5 -337.0 -143.5 -336.0 -144.0 -335.05 -144.5 -334.15 -144.5 -332.5 L-151.55 -333.15 -152.25 -333.55 M-158.2 -345.5 L-159.85 -348.15 -159.9 -348.2 -159.9 -348.3 -159.95 -348.4 -160.15 -349.45 -160.8 -360.35 Q-160.8 -365.65 -157.2 -371.15 -152.1 -378.95 -142.5 -378.95 -133.05 -378.95 -127.7 -372.4 L-126.0 -370.05 Q-124.9 -372.25 -122.15 -374.55 -117.2 -378.8 -111.55 -378.8 -103.9 -378.8 -100.25 -370.0 -99.1 -367.25 -98.5 -363.9 L-98.15 -361.0 Q-98.15 -353.75 -99.35 -349.65 -93.4 -349.25 -87.35 -345.05 L-84.25 -342.65 -81.35 -344.55 Q-77.25 -346.85 -74.8 -346.85 -66.0 -346.85 -62.7 -338.7 -61.1 -334.65 -61.1 -329.5 L-61.1 -328.6 Q-61.2 -324.45 -62.25 -321.05 L-63.65 -323.15 Q-65.85 -325.85 -68.5 -325.5 -67.8 -328.3 -70.9 -329.2 -75.0 -330.45 -76.0 -332.0 -77.65 -334.65 -80.8 -335.55 -83.65 -336.35 -86.5 -335.5 -90.4 -341.15 -92.05 -342.45 -95.65 -345.35 -102.0 -345.0 -103.15 -356.1 -104.05 -358.8 -106.55 -366.0 -113.75 -366.0 -115.75 -366.0 -117.85 -364.95 -119.95 -363.85 -120.5 -362.5 L-120.5 -362.45 Q-123.0 -362.2 -125.35 -360.7 -127.6 -359.25 -129.0 -359.5 -129.0 -360.3 -131.1 -362.05 -133.55 -364.0 -135.75 -364.0 -137.75 -364.0 -139.95 -362.8 -142.6 -361.35 -143.5 -359.0 -149.3 -361.4 -153.7 -357.95 -158.0 -354.65 -158.0 -348.5 L-156.9 -345.2 -157.35 -344.7 -158.2 -345.5 M-58.85 -300.65 Q-45.25 -300.2 -37.85 -287.95 -35.35 -283.85 -33.9 -278.95 L-33.85 -278.8 Q-33.2 -281.3 -30.15 -286.65 L-28.4 -289.45 -24.55 -292.85 Q-22.3 -295.0 -17.0 -295.0 -14.6 -295.0 -10.5 -291.0 L-10.5 -288.0 Q-15.1 -291.0 -16.75 -291.0 -19.95 -291.0 -22.0 -289.0 -24.0 -287.05 -24.0 -284.0 -24.0 -280.2 -24.55 -278.8 -25.0 -277.75 -26.3 -277.05 -30.75 -274.75 -34.0 -269.5 -33.9 -277.95 -40.45 -285.7 -47.45 -294.0 -56.25 -294.0 -59.85 -294.0 -61.25 -293.15 L-61.45 -293.35 Q-60.1 -294.45 -59.35 -297.4 -58.95 -299.1 -58.85 -300.65 M-42.75 -296.65 Q-43.6 -298.15 -43.6 -299.1 -43.6 -300.7 -42.25 -305.1 L-42.25 -305.15 -42.95 -306.05 Q-39.85 -309.5 -37.6 -310.6 -34.8 -312.0 -28.25 -312.0 L-28.0 -311.4 Q-31.55 -310.6 -35.9 -306.75 -42.0 -301.3 -42.0 -297.0 L-42.75 -296.65 M-50.75 -320.35 Q-50.0 -324.0 -47.1 -329.65 -41.75 -340.15 -34.2 -341.5 L-34.9 -342.45 Q-36.15 -344.55 -37.5 -349.8 -39.0 -355.7 -39.0 -357.5 -39.0 -360.7 -37.5 -364.8 -36.45 -367.65 -34.9 -369.2 -34.7 -372.2 -31.95 -375.6 -28.3 -380.15 -23.15 -379.75 L-22.5 -379.7 -23.2 -381.45 Q-24.25 -384.5 -24.45 -387.55 -24.45 -393.65 -22.9 -398.85 -21.35 -404.05 -18.55 -405.85 L-17.7 -406.85 Q-15.1 -408.95 -8.05 -408.95 2.85 -408.95 7.4 -399.9 9.75 -395.2 9.9 -389.95 L11.65 -390.25 Q16.65 -390.25 19.65 -385.25 21.35 -382.4 21.75 -380.25 L21.8 -380.25 22.25 -379.45 22.3 -379.55 22.35 -379.6 22.45 -379.75 22.55 -379.85 24.25 -381.45 25.0 -381.45 25.0 -373.5 16.5 -373.5 Q17.1 -377.3 13.9 -380.45 10.9 -383.45 8.0 -383.0 5.9 -393.0 -5.5 -393.0 -9.7 -393.0 -13.5 -390.0 -17.5 -386.85 -17.5 -383.0 -15.0 -376.0 -15.0 -374.5 -18.9 -376.15 -22.75 -372.2 -26.3 -367.55 -27.5 -367.0 -31.35 -365.2 -32.2 -361.45 -32.5 -360.2 -32.5 -353.5 -32.5 -350.15 -31.5 -347.85 L-31.0 -346.45 -31.45 -341.1 Q-25.5 -338.05 -23.0 -330.45 -28.35 -334.0 -30.25 -334.0 -37.9 -334.0 -44.5 -328.0 -48.3 -324.5 -50.2 -320.1 L-50.75 -320.35 M163.3 -297.65 Q165.5 -298.5 167.5 -298.5 170.15 -298.5 172.5 -297.5 175.5 -296.15 175.5 -293.75 175.5 -292.95 174.5 -292.0 173.45 -291.0 172.5 -291.0 165.55 -296.4 161.4 -296.95 L163.3 -297.65 M42.1 -305.0 L42.3 -304.15 Q43.95 -305.45 46.15 -305.45 55.55 -305.45 57.8 -298.6 58.95 -295.15 58.25 -291.15 L58.2 -287.85 Q56.35 -293.65 55.1 -296.15 51.7 -302.75 47.1 -302.75 44.9 -302.75 42.0 -301.5 L40.5 -301.5 Q40.4 -302.4 42.1 -305.0 M36.9 -224.8 L35.85 -220.95 35.7 -220.75 Q40.4 -222.05 44.55 -222.05 L47.95 -221.8 Q48.45 -225.25 50.3 -229.35 L51.0 -229.35 51.0 -227.0 Q54.25 -223.75 54.5 -223.0 53.35 -222.05 53.4 -219.8 L53.5 -216.0 47.2 -215.35 Q43.0 -214.95 41.0 -213.5 40.7 -215.35 37.1 -217.15 33.85 -218.8 31.6 -218.55 35.0 -222.05 36.9 -224.8 M47.65 -252.5 L48.45 -254.55 48.55 -254.75 Q50.15 -258.2 52.6 -261.05 55.0 -263.85 57.65 -265.45 L58.0 -265.7 66.85 -267.65 68.2 -267.45 Q67.55 -265.25 69.0 -264.0 64.45 -264.15 61.25 -261.75 58.1 -259.4 57.5 -255.5 52.15 -255.45 48.25 -252.3 L47.65 -252.5 M68.25 -267.6 L66.85 -271.95 Q66.15 -273.45 66.15 -274.85 66.15 -277.75 67.9 -280.35 70.45 -284.05 75.5 -284.05 77.8 -284.05 79.4 -283.1 L79.4 -283.15 79.4 -283.25 79.4 -283.3 79.4 -283.4 79.4 -283.5 79.4 -283.55 81.2 -287.7 81.7 -288.35 82.15 -288.0 Q81.0 -285.0 81.0 -282.0 82.75 -281.35 84.9 -279.2 87.25 -276.85 89.0 -276.0 L88.8 -275.55 Q81.95 -278.5 79.5 -278.5 76.0 -278.5 71.2 -272.5 68.85 -269.65 68.25 -267.6 M90.7 -293.75 L91.65 -293.8 91.9 -293.8 95.15 -293.5 Q94.5 -295.25 94.2 -297.15 94.2 -300.85 96.95 -304.6 100.9 -310.0 108.4 -310.0 111.55 -310.0 113.35 -308.0 L116.0 -308.0 118.55 -306.3 Q120.5 -304.9 120.5 -303.5 L120.0 -303.5 Q117.0 -305.0 115.25 -305.0 109.8 -305.0 105.5 -303.0 100.5 -300.65 100.5 -296.75 100.5 -296.0 101.5 -293.0 100.65 -293.0 97.4 -291.25 94.2 -289.5 93.0 -289.5 L90.75 -292.7 89.8 -293.6 90.7 -293.75 M65.45 -299.4 Q65.0 -301.5 65.0 -303.65 65.0 -307.85 70.85 -313.85 78.2 -321.35 88.4 -321.35 95.55 -321.35 97.75 -316.4 98.45 -314.85 98.55 -312.95 L98.55 -311.3 98.55 -311.2 98.55 -311.05 98.35 -308.95 98.3 -308.85 Q97.1 -310.9 94.1 -312.8 90.65 -315.0 87.75 -315.0 84.3 -315.0 80.7 -312.8 L74.5 -308.5 Q67.05 -303.6 65.45 -299.4 M100.45 -240.35 L101.9 -240.4 105.35 -239.95 105.6 -240.4 Q108.15 -244.05 117.4 -244.05 121.0 -244.05 123.6 -242.8 L126.8 -243.95 129.0 -238.5 Q126.65 -238.35 122.0 -233.5 121.75 -234.8 119.1 -235.95 116.55 -237.0 114.25 -237.0 L109.8 -236.8 Q108.3 -236.45 104.5 -234.0 102.35 -237.95 100.45 -240.35 M108.4 -189.35 L108.1 -189.05 107.7 -189.35 Q106.05 -190.5 102.0 -190.5 97.8 -190.5 94.05 -188.4 92.2 -187.35 91.2 -186.15 L91.4 -187.5 Q92.35 -191.7 97.6 -192.55 L97.7 -192.6 97.95 -192.65 98.15 -192.65 98.35 -192.7 98.9 -192.75 99.2 -192.75 99.35 -192.75 99.65 -192.8 99.95 -192.8 100.05 -192.8 100.4 -192.8 100.6 -192.8 Q106.95 -192.8 108.4 -189.35 M99.3 -133.2 Q100.5 -130.05 102.0 -127.0 L102.0 -124.0 Q100.3 -124.05 97.75 -125.05 95.3 -126.0 93.5 -126.0 92.5 -126.0 91.5 -125.0 91.5 -127.7 90.8 -129.5 L94.85 -129.65 Q96.45 -129.65 98.55 -128.45 L99.3 -133.2 M52.0 -111.8 Q58.35 -115.7 58.75 -123.6 L58.75 -123.7 58.75 -124.3 58.75 -125.25 58.75 -125.6 58.75 -125.9 58.75 -126.6 59.6 -126.8 Q60.5 -124.4 60.5 -123.25 60.5 -119.5 57.7 -113.05 55.1 -107.05 53.5 -106.0 53.05 -109.55 52.0 -111.8 M-107.25 -156.85 L-106.65 -158.5 Q-103.75 -165.75 -97.9 -166.05 L-98.15 -166.7 -97.9 -170.6 Q-97.15 -172.1 -95.0 -172.8 -97.0 -171.15 -97.0 -168.5 -97.0 -166.95 -95.75 -165.95 -94.5 -165.0 -94.5 -164.25 L-95.75 -162.1 Q-97.0 -159.7 -97.0 -158.5 L-104.6 -157.65 -107.25 -156.85" fill="#666666" fill-rule="evenodd" stroke="none"/>
    </g>
  </defs>
</svg>
