<?xml version="1.0" encoding="UTF-8" standalone="no"?>
<svg xmlns:ffdec="https://www.free-decompiler.com/flash" xmlns:xlink="http://www.w3.org/1999/xlink" ffdec:objectType="frame" height="513.9px" width="383.5px" xmlns="http://www.w3.org/2000/svg">
  <g transform="matrix(1.0, 0.0, 0.0, 1.0, 183.4, 511.25)">
    <use ffdec:characterId="216" height="467.7" transform="matrix(1.0, 0.0, 0.0, 1.0, -172.1, -470.85)" width="371.85" xlink:href="#shape0"/>
  </g>
  <defs>
    <g id="shape0" transform="matrix(1.0, 0.0, 0.0, 1.0, 172.1, 470.85)">
      <path d="M107.8 -373.8 Q105.4 -373.0 102.25 -373.0 97.6 -373.0 93.8 -375.3 L93.4 -375.55 Q91.35 -367.1 78.25 -367.1 74.35 -367.1 70.65 -370.55 L68.3 -368.85 Q69.15 -366.9 69.5 -364.85 69.5 -361.2 63.75 -355.9 57.55 -350.1 51.75 -350.1 L51.05 -350.1 Q49.85 -348.1 46.25 -348.1 42.5 -348.1 41.0 -349.85 38.05 -349.95 36.15 -350.85 L35.0 -349.4 Q31.75 -344.9 31.75 -342.6 31.75 -341.3 32.15 -340.15 30.2 -338.75 28.45 -338.1 L27.05 -336.2 Q30.55 -334.25 32.0 -328.5 31.8 -321.35 30.0 -315.05 L29.8 -314.35 32.25 -307.1 34.05 -302.5 32.3 -300.25 32.15 -300.05 36.35 -298.05 Q37.15 -297.0 37.75 -297.0 L38.4 -297.05 39.55 -296.4 Q39.85 -299.75 41.7 -305.0 44.55 -312.85 48.25 -312.85 52.55 -312.85 55.25 -310.2 L56.15 -310.5 57.8 -307.6 59.8 -304.45 59.65 -304.6 58.7 -303.8 58.75 -303.6 Q58.75 -296.05 58.05 -292.75 56.35 -285.0 50.75 -285.0 47.55 -285.0 45.25 -285.85 L45.25 -285.1 Q45.25 -273.5 32.75 -273.5 28.9 -273.5 19.9 -280.0 L11.5 -286.5 Q7.05 -286.5 4.45 -284.25 L4.5 -284.2 Q7.2 -279.55 8.5 -274.65 4.7 -268.8 1.5 -265.05 6.6 -263.3 9.5 -259.5 L11.5 -262.8 Q14.0 -265.75 17.75 -265.75 L18.75 -265.65 19.75 -266.5 Q25.4 -270.75 32.25 -270.75 35.1 -270.75 38.25 -266.75 41.0 -263.25 41.0 -261.9 L41.75 -260.75 Q43.0 -258.35 43.0 -255.65 43.0 -252.1 33.75 -246.8 32.5 -241.2 29.25 -238.4 L28.75 -237.65 Q40.7 -239.6 45.75 -235.1 48.0 -237.7 48.0 -240.15 48.0 -244.9 53.75 -244.9 58.25 -244.9 61.2 -244.1 62.85 -244.9 63.75 -244.9 66.05 -244.9 68.45 -244.05 L70.75 -244.4 71.5 -244.35 70.5 -244.65 Q69.7 -246.25 70.75 -248.9 65.9 -251.8 60.45 -253.9 L52.85 -256.55 Q49.45 -257.75 48.1 -259.15 46.5 -260.85 46.5 -264.0 46.5 -269.4 50.0 -271.45 53.9 -273.75 64.75 -273.75 66.05 -273.75 71.9 -267.85 71.5 -269.05 71.5 -270.5 71.5 -272.9 73.75 -275.7 70.15 -276.6 67.5 -278.75 64.0 -281.65 64.0 -284.35 64.0 -287.2 66.3 -290.0 68.75 -293.0 71.75 -293.0 76.2 -293.0 77.8 -290.0 L78.9 -287.95 Q79.3 -287.4 79.95 -287.2 78.5 -289.2 78.5 -290.75 78.5 -292.4 80.5 -296.75 82.8 -301.75 84.75 -301.75 95.6 -301.75 100.0 -293.25 L101.2 -290.55 103.0 -291.1 Q107.55 -292.25 108.85 -293.05 111.5 -294.55 111.5 -297.75 111.5 -299.0 110.25 -301.65 109.6 -303.05 109.3 -304.05 106.2 -299.5 101.25 -299.5 97.1 -299.5 95.25 -304.85 94.35 -307.55 94.25 -310.5 94.25 -318.5 100.25 -318.5 108.5 -318.5 111.05 -315.3 111.95 -314.15 112.0 -311.9 L122.0 -317.25 Q120.5 -317.75 119.4 -319.1 L117.75 -319.0 Q111.05 -319.0 108.75 -324.35 107.6 -327.05 107.75 -330.0 107.75 -332.6 111.05 -336.75 115.0 -341.75 119.75 -341.75 124.85 -341.75 127.95 -339.9 L128.15 -340.0 Q127.75 -341.15 127.75 -342.0 127.75 -343.7 129.05 -345.8 128.15 -346.5 127.75 -347.45 125.15 -346.5 121.85 -346.5 L118.25 -346.85 Q112.55 -341.75 104.25 -341.75 102.85 -341.75 95.55 -349.25 L88.5 -356.75 Q88.5 -358.85 90.8 -361.25 93.4 -364.0 96.75 -364.0 100.5 -364.0 106.75 -359.5 107.85 -362.0 112.45 -364.7 116.8 -367.25 121.6 -368.4 114.6 -366.9 110.25 -370.75 108.55 -372.25 107.8 -373.8 M40.8 -465.4 Q46.5 -470.85 50.75 -470.85 65.45 -470.85 70.05 -465.85 71.5 -464.3 71.9 -461.25 75.45 -459.6 77.3 -456.35 79.0 -453.35 79.0 -448.85 79.0 -446.15 77.7 -444.05 80.1 -442.35 82.55 -439.55 L86.25 -439.85 Q91.5 -439.85 95.5 -431.7 97.15 -428.3 98.1 -424.8 101.5 -422.35 101.5 -417.35 101.5 -413.9 98.3 -409.1 94.05 -402.85 87.75 -402.85 82.8 -402.85 78.05 -408.7 74.25 -413.4 74.25 -414.85 74.25 -416.15 75.4 -418.3 L75.7 -418.8 73.75 -419.35 Q68.45 -420.9 65.75 -423.15 62.7 -420.05 62.0 -417.55 L62.5 -414.85 62.25 -412.55 Q66.8 -410.95 71.75 -404.45 73.9 -401.65 75.75 -398.4 L77.25 -395.5 Q77.25 -391.85 75.55 -390.65 73.25 -389.1 65.75 -389.1 55.8 -389.1 55.05 -396.65 54.75 -399.35 55.45 -402.6 L55.2 -402.35 Q53.85 -401.05 51.5 -400.45 L51.5 -400.85 Q51.7 -403.95 48.95 -405.1 L45.75 -400.9 Q43.3 -397.85 42.2 -395.95 L44.25 -395.85 46.85 -396.2 46.1 -395.5 Q49.25 -392.8 52.25 -385.5 52.25 -379.75 50.6 -376.7 52.8 -375.9 54.55 -374.6 L57.25 -376.6 58.35 -376.55 Q58.0 -377.35 58.0 -377.85 58.0 -383.6 64.75 -383.6 L66.1 -383.5 67.05 -384.1 74.75 -384.35 Q76.2 -384.35 78.95 -385.7 81.7 -387.1 82.25 -387.1 89.0 -387.1 92.05 -383.15 L92.5 -382.5 93.1 -382.9 Q92.25 -384.25 92.25 -386.25 92.25 -387.85 99.5 -395.65 107.35 -404.1 111.25 -404.1 120.0 -404.1 123.75 -394.75 123.75 -392.8 122.1 -390.25 123.15 -388.1 123.85 -385.0 L123.6 -381.7 Q125.65 -380.8 127.25 -378.5 128.55 -376.6 129.0 -374.75 129.0 -370.6 128.15 -366.45 130.9 -365.75 132.65 -364.05 134.1 -364.9 136.25 -365.75 143.6 -365.75 150.25 -355.1 150.25 -353.85 149.4 -350.95 148.5 -348.1 148.5 -346.85 148.5 -343.6 145.8 -341.5 143.45 -339.75 140.75 -339.75 L138.25 -339.95 137.4 -339.6 Q139.0 -338.4 138.75 -336.0 L138.7 -334.8 139.0 -334.25 Q138.9 -333.85 138.6 -333.6 L138.45 -333.45 138.15 -332.45 Q139.55 -330.3 141.1 -328.85 141.55 -328.75 141.85 -328.45 L143.25 -330.75 Q144.8 -332.8 146.85 -333.85 149.4 -336.5 152.75 -336.5 L154.7 -336.15 155.25 -335.7 Q158.95 -340.1 168.75 -336.75 L169.3 -336.95 Q166.15 -339.0 164.0 -342.3 162.2 -345.0 161.3 -348.25 160.75 -350.25 160.75 -351.1 160.75 -355.0 166.75 -362.75 169.6 -366.45 172.3 -368.55 175.15 -370.25 179.25 -370.25 187.45 -370.25 192.5 -363.75 196.5 -358.65 196.5 -353.6 196.5 -349.4 193.5 -343.5 191.95 -340.4 191.2 -337.65 188.85 -335.55 186.25 -334.55 184.9 -325.75 175.95 -324.65 178.75 -321.4 179.5 -319.25 180.65 -319.9 183.55 -324.15 187.05 -328.0 191.75 -328.0 196.85 -328.0 198.8 -324.9 199.8 -323.3 199.75 -321.5 199.75 -316.35 196.55 -309.5 192.2 -300.25 185.25 -300.25 180.95 -300.25 178.1 -301.25 L176.55 -301.75 175.1 -301.4 Q169.6 -300.15 167.25 -295.5 166.5 -291.9 165.65 -290.3 164.1 -287.5 158.75 -287.5 152.15 -287.5 147.75 -291.6 L144.75 -294.45 Q143.1 -295.75 141.25 -295.75 L138.7 -295.8 Q136.35 -294.65 133.25 -294.5 133.1 -293.95 132.25 -293.75 L131.95 -294.5 Q126.85 -294.55 123.75 -296.3 L123.45 -296.05 Q122.5 -295.1 122.5 -292.0 122.5 -289.8 118.3 -288.35 L133.75 -286.75 Q139.75 -286.75 148.75 -272.0 148.75 -268.45 147.5 -265.25 145.65 -260.5 141.75 -260.5 134.2 -260.5 130.55 -265.25 128.25 -268.25 128.25 -270.9 L128.3 -271.6 126.25 -271.25 Q125.65 -271.25 123.05 -272.75 120.2 -274.4 119.0 -275.75 116.5 -273.3 112.15 -270.5 108.15 -268.0 107.25 -268.0 101.35 -268.0 98.05 -271.1 L95.75 -274.25 89.1 -273.6 Q86.7 -272.5 83.5 -271.5 L83.25 -271.7 Q83.0 -271.55 83.0 -270.0 L85.75 -265.15 Q85.75 -261.8 81.0 -258.75 L80.7 -258.55 83.75 -254.75 Q83.75 -250.5 81.8 -247.65 79.4 -244.15 74.75 -244.15 L72.95 -244.2 Q76.15 -243.6 78.45 -241.15 L78.7 -240.85 Q79.35 -243.85 82.25 -246.15 86.6 -249.65 94.25 -249.65 99.1 -249.65 101.95 -248.0 109.0 -258.25 113.75 -258.25 119.5 -258.25 120.5 -248.15 L120.4 -247.85 Q122.25 -246.9 123.05 -244.75 L123.55 -242.75 Q124.65 -244.75 126.5 -247.35 132.2 -255.4 138.25 -255.4 146.45 -255.4 150.0 -250.85 152.0 -248.25 152.0 -245.65 152.0 -240.2 147.5 -235.85 141.75 -230.4 131.25 -230.4 L127.25 -231.0 127.0 -227.4 Q126.25 -226.65 123.75 -226.65 L118.4 -227.05 Q119.15 -225.3 119.5 -223.5 119.5 -220.85 117.05 -218.6 114.6 -216.4 111.75 -216.4 105.15 -216.4 102.45 -219.25 100.65 -222.4 99.25 -222.9 L92.5 -218.55 Q85.95 -214.4 81.25 -214.4 L78.55 -214.5 78.4 -214.35 Q74.75 -209.8 74.75 -208.15 79.5 -196.65 79.5 -195.0 79.5 -191.9 60.75 -183.65 52.8 -183.65 52.3 -192.15 49.1 -192.35 48.7 -193.6 L48.3 -195.65 48.1 -196.5 45.5 -196.4 46.45 -194.15 Q47.0 -192.7 47.0 -191.15 47.0 -190.25 46.25 -188.85 47.5 -187.75 48.25 -186.15 49.25 -184.05 49.25 -180.15 49.25 -175.3 46.0 -168.9 L44.25 -165.9 44.25 -165.75 Q46.1 -165.05 47.4 -162.75 L50.35 -162.45 Q50.8 -164.75 54.05 -166.1 56.7 -167.25 59.9 -167.35 L60.65 -167.65 Q67.35 -169.9 68.75 -169.9 72.75 -169.9 75.55 -167.3 L79.25 -169.65 82.4 -169.3 83.3 -170.1 Q86.75 -172.9 92.25 -172.9 98.65 -172.9 101.5 -164.2 101.55 -168.4 105.75 -168.4 108.0 -168.4 109.7 -167.65 L110.0 -168.25 Q112.0 -172.1 112.0 -173.15 112.0 -176.9 116.25 -176.9 125.8 -176.9 128.3 -171.15 129.0 -169.5 129.0 -163.65 129.0 -159.15 126.3 -157.65 124.45 -156.65 120.0 -156.65 112.25 -153.9 109.1 -153.9 L106.25 -154.65 108.7 -157.5 Q107.95 -157.7 107.15 -158.1 L107.2 -158.05 107.15 -158.1 Q105.8 -158.75 104.5 -159.85 102.7 -161.3 102.0 -162.55 L102.25 -161.5 Q102.25 -156.35 89.5 -151.9 84.85 -150.3 82.3 -148.7 83.5 -146.0 83.25 -143.15 L83.0 -141.55 83.55 -141.35 Q89.5 -138.95 89.5 -135.9 L89.4 -134.9 Q96.0 -134.85 96.0 -129.4 96.0 -123.15 91.75 -123.15 86.75 -123.15 85.0 -125.6 84.0 -127.05 84.0 -130.15 L84.0 -130.4 82.75 -130.15 82.15 -131.05 Q81.2 -129.7 81.0 -128.9 82.1 -128.15 79.6 -128.15 76.2 -128.15 74.15 -131.9 L73.75 -131.9 Q72.85 -131.9 71.7 -133.15 L70.5 -133.15 Q70.5 -131.65 67.7 -129.35 64.3 -126.55 59.5 -125.9 60.7 -124.1 60.65 -121.45 60.65 -118.9 61.0 -118.4 66.75 -114.65 67.25 -112.4 L70.5 -113.1 73.75 -113.65 Q77.75 -113.65 80.65 -109.9 81.1 -111.3 82.25 -111.85 84.25 -112.9 90.75 -112.9 98.95 -112.9 101.5 -109.85 102.5 -108.65 102.5 -106.15 102.5 -104.05 102.0 -101.9 L103.25 -103.1 Q114.25 -112.9 126.75 -112.9 133.1 -112.9 136.5 -100.0 136.5 -92.1 128.55 -86.15 118.9 -78.9 101.75 -78.9 100.3 -78.9 97.05 -84.25 94.9 -87.75 94.3 -89.1 L91.2 -86.15 Q86.85 -82.2 82.15 -79.6 77.7 -77.15 75.25 -77.15 70.25 -77.15 67.5 -82.5 65.75 -87.95 65.75 -88.15 65.75 -92.45 69.25 -94.15 L68.7 -94.65 63.1 -94.85 Q62.1 -90.9 55.7 -81.95 48.9 -72.4 45.75 -69.9 47.75 -65.9 47.75 -64.25 L47.7 -63.45 48.4 -63.25 55.75 -62.65 62.95 -56.9 64.0 -58.15 Q72.05 -67.65 73.75 -67.65 78.75 -67.65 87.0 -52.65 87.0 -47.35 85.55 -45.15 81.9 -39.65 69.75 -39.65 66.7 -39.65 65.35 -41.1 L62.25 -35.0 Q62.25 -33.75 63.25 -31.8 64.25 -29.9 64.25 -28.65 64.25 -27.25 57.5 -15.4 56.9 -14.05 57.35 -11.65 L58.25 -7.6 Q58.9 -3.15 53.25 -3.15 50.35 -3.15 46.65 -5.9 42.95 -8.65 40.25 -8.65 L28.85 -9.15 Q27.55 -9.15 26.7 -9.8 L18.5 -7.55 Q5.35 -4.4 -3.15 -4.4 -13.8 -4.4 -19.15 -10.65 L-19.95 -11.7 -22.15 -11.65 Q-27.4 -11.65 -31.4 -19.85 L-34.4 -28.15 Q-34.4 -28.9 -32.4 -30.4 -30.4 -31.9 -30.4 -32.65 -30.4 -33.9 -31.5 -36.4 -32.65 -38.9 -32.65 -40.15 -32.65 -41.55 -30.65 -46.15 -28.65 -50.7 -28.65 -52.15 -28.65 -53.95 -26.6 -55.85 -24.6 -57.8 -22.35 -57.9 -18.7 -60.4 -13.15 -60.4 L-10.9 -60.25 -9.15 -60.4 -9.1 -61.05 Q-11.45 -61.8 -14.9 -65.85 -18.65 -70.3 -18.65 -71.15 L-18.5 -72.25 Q-22.65 -74.1 -25.1 -78.15 -26.55 -80.5 -27.25 -83.3 L-27.35 -83.95 Q-30.5 -84.4 -33.4 -86.85 -33.45 -79.25 -34.85 -75.15 -38.15 -65.9 -48.15 -65.9 -55.9 -65.9 -60.9 -73.05 -62.5 -75.35 -63.6 -78.05 -64.4 -80.05 -64.4 -80.5 -64.4 -86.45 -52.4 -92.15 -51.5 -92.6 -50.55 -93.0 L-50.9 -93.8 -52.15 -99.25 Q-52.15 -101.75 -50.6 -103.4 -48.95 -105.15 -46.15 -105.15 -42.95 -105.15 -39.7 -103.6 L-37.75 -103.65 -36.15 -103.9 Q-27.7 -103.9 -22.6 -97.35 -20.8 -95.05 -19.95 -93.2 L-17.15 -96.55 Q-16.35 -98.55 -15.15 -99.4 L-14.95 -99.2 Q-9.4 -106.05 -9.4 -109.25 -9.4 -110.15 -11.2 -112.4 -16.35 -112.9 -22.05 -121.95 -23.05 -121.4 -24.65 -121.4 L-26.5 -121.7 Q-28.65 -115.35 -35.1 -114.3 -37.25 -112.6 -42.65 -109.9 L-43.65 -109.9 Q-45.3 -109.15 -46.65 -109.15 -52.9 -109.15 -56.15 -116.2 -57.15 -118.45 -57.75 -121.1 L-58.15 -123.5 Q-58.15 -127.25 -57.25 -130.8 -60.9 -132.0 -63.1 -136.85 -64.0 -138.95 -64.55 -141.4 L-64.6 -141.6 -65.25 -141.7 Q-65.9 -141.15 -66.65 -141.15 -69.65 -141.15 -71.75 -142.0 L-74.65 -140.15 Q-73.35 -136.6 -75.85 -131.6 -77.9 -127.55 -80.6 -126.65 -82.9 -123.95 -86.15 -123.3 -86.6 -122.55 -87.65 -122.0 L-88.75 -120.5 -90.1 -119.25 Q-88.0 -117.35 -85.95 -114.6 L-84.9 -116.4 Q-80.35 -123.15 -72.15 -123.15 -61.9 -123.15 -61.9 -111.75 -61.9 -107.15 -64.35 -102.35 -68.25 -94.9 -76.15 -94.9 L-80.2 -95.15 -81.35 -93.65 Q-85.0 -89.15 -89.15 -89.15 -97.1 -89.15 -105.1 -97.85 -108.0 -101.0 -110.05 -104.4 -111.9 -107.35 -111.9 -108.4 -111.9 -110.25 -109.1 -114.95 -109.65 -116.35 -109.65 -117.15 -109.65 -119.45 -108.65 -120.5 -107.0 -122.2 -100.9 -124.4 L-101.75 -125.6 -99.75 -124.65 -99.75 -124.75 Q-99.75 -126.7 -98.5 -128.2 -96.8 -130.25 -93.5 -130.25 L-92.15 -130.15 -92.9 -132.0 -93.9 -137.65 Q-93.9 -142.8 -89.15 -147.15 L-87.85 -145.45 -86.1 -147.35 Q-81.75 -151.9 -80.65 -151.9 -79.25 -151.9 -77.45 -150.9 -75.6 -149.9 -75.15 -149.9 L-75.65 -152.3 Q-76.65 -152.95 -77.15 -153.9 -77.65 -154.85 -77.55 -156.05 L-77.4 -157.25 Q-77.4 -160.45 -76.35 -161.4 -75.25 -162.4 -71.15 -162.4 -66.4 -162.4 -63.85 -160.1 -62.15 -158.5 -62.15 -157.15 L-62.35 -155.45 Q-61.9 -153.75 -61.9 -152.0 L-61.9 -151.05 Q-59.3 -150.3 -58.15 -147.9 -52.95 -147.65 -49.1 -142.85 -47.1 -140.35 -46.15 -137.65 -46.15 -136.65 -46.8 -135.55 L-45.55 -134.85 Q-44.5 -134.15 -43.35 -133.25 L-41.65 -131.75 Q-41.05 -132.8 -40.5 -134.7 -42.3 -137.2 -43.15 -139.15 -44.5 -142.2 -45.95 -147.55 -47.65 -153.8 -47.65 -157.15 -47.65 -159.85 -47.1 -160.85 -46.2 -162.65 -43.15 -162.65 -40.75 -162.65 -39.5 -161.35 L-40.15 -164.4 Q-40.15 -165.65 -39.15 -167.75 L-38.55 -169.15 Q-49.05 -169.7 -52.6 -178.05 L-52.65 -178.2 -53.25 -178.7 Q-56.9 -181.95 -56.9 -184.5 -56.9 -191.0 -56.15 -193.85 -54.2 -201.4 -47.65 -201.4 -44.0 -201.4 -43.1 -199.95 L-43.0 -199.6 Q-39.45 -201.65 -32.65 -201.65 -26.45 -201.65 -24.8 -196.95 -24.0 -194.5 -24.4 -191.65 -19.7 -192.7 -17.2 -189.8 -15.4 -187.7 -15.4 -185.15 -15.4 -183.9 -16.55 -180.85 L-11.15 -182.65 Q-11.65 -185.3 -11.65 -187.45 -11.65 -190.9 -9.95 -191.5 -11.35 -193.0 -12.45 -195.1 -14.05 -198.2 -14.6 -201.7 -19.4 -202.95 -19.4 -206.15 -19.4 -208.85 -16.85 -210.65 -14.55 -212.3 -11.0 -211.5 L-8.35 -211.9 -9.6 -214.2 -10.15 -214.15 Q-20.15 -214.15 -22.85 -220.1 -23.6 -221.8 -23.65 -226.5 L-24.1 -226.5 -24.65 -224.4 Q-23.65 -223.9 -26.15 -223.9 -26.95 -223.9 -27.65 -225.25 L-27.8 -222.35 Q-28.35 -219.9 -32.15 -219.9 -37.95 -219.9 -41.1 -230.05 L-41.75 -232.35 -39.75 -231.85 -40.6 -234.25 -41.65 -241.0 Q-41.65 -245.75 -36.9 -250.15 -32.6 -254.1 -32.2 -256.3 -34.35 -257.45 -35.9 -259.7 L-36.2 -260.2 Q-37.7 -261.5 -38.6 -263.9 L-39.3 -267.4 -40.15 -267.5 Q-41.45 -266.1 -42.7 -265.25 L-42.9 -263.75 -49.25 -262.3 Q-50.1 -260.15 -52.6 -257.6 -56.75 -253.4 -61.15 -253.4 -65.9 -253.4 -67.1 -257.25 L-67.4 -261.4 Q-67.4 -272.5 -59.65 -272.5 -55.15 -272.5 -52.35 -270.2 L-52.2 -271.0 Q-53.6 -272.05 -54.35 -273.65 -55.0 -275.05 -55.15 -276.8 L-55.15 -278.4 Q-55.15 -282.35 -53.6 -284.45 L-52.35 -285.75 -54.2 -290.1 Q-58.05 -290.45 -59.75 -292.2 L-61.1 -291.55 Q-65.8 -289.2 -69.0 -287.9 L-69.35 -287.25 Q-72.4 -281.75 -78.15 -281.75 -83.55 -281.75 -86.6 -289.35 -88.15 -293.15 -88.65 -297.25 -88.65 -301.05 -87.7 -302.1 L-81.3 -307.6 -81.85 -308.2 Q-83.9 -309.6 -84.9 -311.25 L-83.7 -312.25 -83.95 -313.3 Q-84.7 -316.85 -84.65 -320.6 -84.65 -326.5 -78.65 -326.5 -76.15 -326.5 -72.15 -324.5 L-71.9 -325.25 -75.8 -327.9 Q-78.2 -329.5 -79.0 -330.65 -81.35 -327.0 -83.65 -327.0 -84.55 -327.0 -86.45 -327.7 -87.0 -322.45 -93.05 -322.0 L-92.9 -320.95 -92.9 -319.35 Q-92.9 -315.1 -94.1 -313.05 -96.4 -309.25 -103.15 -309.25 -106.95 -309.25 -109.45 -310.55 -110.0 -310.1 -110.75 -309.8 L-109.9 -308.75 Q-108.65 -306.85 -108.65 -304.6 -108.65 -302.05 -111.4 -300.25 -111.4 -296.7 -111.6 -295.8 -111.95 -294.05 -112.75 -293.0 -109.15 -290.1 -109.15 -287.85 -109.15 -286.3 -113.15 -284.0 -117.5 -281.5 -121.65 -281.5 -127.05 -281.5 -129.85 -285.55 L-131.65 -289.85 Q-131.65 -291.15 -129.85 -294.0 -127.95 -297.05 -125.8 -297.4 L-125.9 -297.7 Q-127.1 -298.25 -127.6 -299.3 -128.1 -300.3 -127.9 -301.5 L-126.75 -302.65 Q-127.05 -305.45 -126.9 -308.35 -126.9 -310.1 -126.4 -311.55 L-127.75 -312.15 Q-129.35 -310.5 -132.15 -310.5 -136.3 -310.5 -138.95 -312.25 -144.45 -312.35 -147.65 -314.05 -147.85 -311.65 -150.15 -308.55 -153.45 -304.0 -158.65 -304.0 -167.55 -304.0 -169.85 -309.3 -171.0 -311.95 -170.4 -314.85 -170.4 -318.55 -166.85 -321.25 -163.25 -324.0 -158.15 -324.0 L-156.85 -323.95 Q-157.4 -325.1 -157.4 -326.0 -157.4 -327.95 -155.15 -329.75 L-154.5 -330.2 Q-153.85 -333.95 -150.1 -335.55 L-148.7 -336.0 Q-149.4 -336.85 -149.4 -338.25 -149.4 -339.45 -149.0 -340.75 L-150.75 -342.25 Q-154.0 -339.75 -155.15 -339.75 -167.4 -339.75 -170.85 -351.75 -172.5 -357.4 -171.95 -363.05 L-171.55 -364.1 Q-167.35 -373.2 -158.45 -374.15 -155.05 -376.0 -151.65 -376.0 -142.55 -376.0 -136.1 -369.8 L-134.35 -367.9 -134.0 -372.7 Q-132.35 -373.75 -130.05 -376.1 -126.15 -380.25 -121.25 -380.25 -118.95 -380.25 -113.75 -376.7 L-113.4 -376.25 Q-111.25 -373.45 -111.15 -370.6 L-112.0 -369.3 -111.9 -368.75 -111.65 -362.0 -112.85 -359.45 Q-108.35 -354.95 -103.4 -346.1 -103.4 -345.5 -104.15 -344.6 L-100.9 -341.8 Q-99.55 -343.0 -98.15 -343.0 -96.15 -343.0 -93.65 -340.5 L-93.65 -343.85 Q-93.8 -347.2 -93.45 -349.45 -92.35 -357.0 -86.15 -357.0 -80.4 -357.0 -76.1 -353.7 -72.65 -351.1 -72.65 -349.25 -72.65 -346.65 -74.45 -341.15 -71.05 -339.6 -68.1 -334.05 -64.9 -327.95 -64.9 -325.0 -64.9 -322.0 -66.55 -320.1 -67.5 -318.95 -70.15 -317.3 L-71.8 -316.1 Q-66.75 -315.4 -64.35 -311.55 -63.25 -309.75 -62.85 -307.75 L-61.15 -308.0 Q-60.15 -308.0 -58.55 -306.9 L-56.9 -307.95 Q-56.05 -305.8 -51.65 -299.9 -46.25 -292.65 -41.8 -291.45 L-42.15 -290.5 Q-37.15 -287.0 -37.15 -285.0 -37.15 -282.85 -39.5 -280.6 -35.45 -281.5 -30.65 -281.5 -27.9 -281.5 -25.4 -280.3 L-25.65 -280.8 Q-26.15 -281.75 -27.15 -281.75 -28.9 -281.75 -29.2 -282.2 -29.4 -282.45 -29.4 -284.5 -29.4 -287.65 -25.65 -298.8 -22.35 -308.6 -19.65 -310.8 L-26.4 -311.25 -27.7 -309.0 Q-29.1 -306.75 -32.15 -306.75 -38.9 -306.75 -38.9 -311.5 -38.9 -317.8 -35.4 -319.8 -32.85 -321.25 -26.45 -321.75 L-28.3 -322.85 Q-30.75 -324.5 -33.4 -324.5 -34.65 -324.5 -35.75 -323.35 -36.9 -322.25 -38.15 -322.25 -47.1 -322.25 -49.85 -327.75 -50.9 -329.85 -50.9 -334.1 -50.9 -340.55 -48.1 -344.95 -44.1 -351.35 -35.15 -351.35 -32.0 -351.35 -28.15 -345.6 L-26.35 -347.55 -26.2 -347.75 -27.4 -349.35 Q-27.4 -351.35 -26.3 -353.0 -26.95 -353.55 -27.2 -354.2 -30.55 -356.05 -32.6 -360.1 L-34.1 -363.6 -32.55 -364.05 -32.4 -365.35 Q-32.4 -368.7 -30.65 -371.1 -28.9 -373.55 -25.8 -374.15 L-25.75 -374.3 -24.65 -374.35 -24.2 -374.35 -23.65 -374.35 -21.85 -374.2 -20.5 -375.15 -20.25 -376.25 -20.6 -376.9 Q-23.65 -382.75 -23.65 -384.75 -23.65 -387.35 -20.1 -389.4 -16.8 -391.35 -13.15 -391.35 L-10.1 -391.1 -8.4 -404.0 Q-8.4 -408.4 -7.85 -409.6 -6.6 -412.6 -1.65 -412.6 8.85 -412.6 17.25 -401.6 17.25 -399.25 9.75 -390.35 L5.0 -385.2 5.35 -384.7 Q8.1 -386.85 9.75 -386.85 21.95 -386.85 25.75 -382.15 25.8 -384.9 27.25 -386.35 28.5 -387.6 30.75 -388.25 30.8 -391.5 32.0 -393.4 L26.4 -402.1 Q22.8 -402.75 21.55 -404.95 20.95 -405.95 20.95 -407.2 L21.0 -408.35 Q21.0 -410.9 25.75 -415.9 30.25 -420.6 31.75 -420.6 35.4 -420.6 37.5 -418.85 L37.4 -419.3 37.3 -419.65 37.3 -419.75 37.25 -419.85 Q36.3 -423.1 33.9 -424.3 L32.6 -424.95 Q31.55 -424.1 30.25 -424.1 26.3 -424.1 23.85 -425.4 18.05 -417.35 12.25 -417.35 6.65 -417.35 1.8 -422.7 -0.7 -423.9 -1.4 -426.75 -2.05 -429.25 -1.4 -432.0 -1.4 -436.0 0.1 -439.1 1.6 -442.2 4.35 -443.45 10.45 -447.85 17.75 -447.85 23.55 -447.85 26.55 -444.85 32.9 -444.65 35.25 -435.95 36.2 -437.1 38.25 -437.1 L38.9 -437.05 38.75 -439.5 Q38.75 -439.9 39.3 -440.8 37.85 -443.1 36.8 -447.15 35.55 -451.8 35.25 -456.75 35.25 -460.1 40.8 -465.4 M91.75 -326.5 Q91.75 -326.1 83.9 -317.45 L84.25 -315.0 Q84.25 -312.0 83.0 -309.75 81.2 -306.5 77.25 -306.5 75.6 -306.5 74.35 -307.2 L73.25 -306.0 Q70.55 -306.0 68.8 -308.7 67.5 -310.7 67.5 -311.75 67.5 -315.55 72.5 -323.7 78.2 -333.0 83.25 -333.0 89.55 -333.0 91.25 -329.9 92.15 -328.3 91.75 -326.5 M158.25 -314.0 Q157.05 -314.4 156.0 -315.45 153.65 -314.0 150.75 -314.0 147.0 -314.0 144.6 -315.9 L139.95 -310.85 143.75 -310.0 Q149.0 -308.75 150.25 -308.75 L155.55 -312.35 158.25 -314.0 M12.0 -374.35 Q10.25 -374.35 9.8 -373.55 9.5 -372.95 9.5 -370.85 9.5 -368.7 6.9 -368.05 4.05 -367.3 1.25 -369.6 L-0.8 -359.3 Q-2.05 -354.4 -4.9 -350.6 L3.9 -348.6 Q6.45 -356.65 25.0 -363.75 23.45 -364.75 22.55 -366.45 L21.5 -370.6 21.95 -371.9 17.4 -373.1 12.0 -374.35 M132.2 -278.6 L132.3 -278.5 132.5 -278.75 132.2 -278.6 M149.5 -178.25 Q149.5 -192.4 164.75 -192.4 174.25 -192.4 178.8 -188.85 181.75 -186.55 181.75 -184.0 181.75 -182.25 181.0 -179.55 182.0 -177.85 182.0 -176.15 182.0 -173.65 179.5 -168.6 177.1 -163.7 174.2 -162.5 L175.25 -162.15 175.95 -161.9 179.75 -162.4 Q187.15 -162.4 189.8 -158.85 L190.55 -157.45 190.75 -157.2 Q191.75 -155.85 191.75 -154.0 191.75 -149.75 188.7 -144.6 184.2 -136.9 175.75 -136.9 172.55 -136.9 171.25 -139.65 169.9 -142.4 166.75 -142.4 L166.45 -142.4 Q166.1 -139.45 162.3 -132.9 157.95 -125.4 155.75 -125.4 148.7 -125.4 146.8 -133.2 L146.3 -136.15 144.85 -136.95 Q142.2 -135.15 136.75 -135.15 131.1 -135.15 125.75 -138.4 120.25 -141.65 120.25 -145.25 120.25 -147.4 122.0 -149.4 124.0 -151.65 126.75 -151.65 134.85 -151.65 140.75 -149.15 L144.4 -147.1 Q147.1 -146.85 149.3 -145.4 L151.25 -146.6 151.35 -146.65 150.8 -147.35 Q148.5 -150.7 148.5 -152.65 148.5 -154.35 153.8 -157.85 L157.35 -160.1 Q154.75 -162.7 152.75 -167.2 151.2 -170.6 150.2 -174.7 149.5 -177.6 149.5 -178.25 M110.0 -187.15 Q109.25 -184.9 106.1 -184.9 L95.25 -186.65 91.5 -187.15 Q91.25 -186.9 91.25 -189.4 91.25 -190.65 92.75 -193.1 94.55 -196.15 96.75 -196.15 103.75 -196.15 106.9 -192.6 108.6 -190.65 110.0 -187.15 M113.15 -149.9 Q113.9 -148.3 113.6 -146.5 113.6 -143.8 112.75 -141.3 116.0 -130.0 116.0 -128.15 116.0 -119.9 108.25 -119.9 102.8 -119.9 98.5 -128.05 L95.25 -136.5 Q95.25 -139.1 97.9 -144.5 L97.85 -144.9 Q97.85 -153.0 106.35 -153.0 111.65 -153.0 113.15 -149.9 M93.3 -141.4 L93.9 -139.75 93.25 -141.0 93.3 -141.4 M49.0 -158.15 Q49.0 -156.15 44.0 -151.6 38.55 -146.65 34.75 -146.65 30.65 -146.65 27.85 -147.8 29.0 -144.85 29.0 -143.15 L28.35 -141.85 Q31.3 -141.2 34.1 -134.05 L38.25 -121.9 Q38.85 -120.4 38.9 -117.05 39.0 -113.3 39.25 -112.15 40.1 -108.3 43.7 -106.65 L45.9 -105.35 48.5 -109.1 51.25 -112.85 Q47.5 -116.15 47.5 -118.15 49.5 -124.0 49.5 -128.65 49.5 -132.25 54.8 -137.6 60.35 -143.2 65.45 -143.4 L65.35 -144.05 65.3 -145.15 Q64.75 -146.55 64.75 -147.0 64.75 -149.9 66.5 -151.85 67.4 -152.85 68.6 -153.4 L68.85 -153.65 70.2 -154.65 Q68.2 -155.2 66.75 -156.15 64.95 -157.35 64.45 -158.95 59.6 -156.65 57.75 -156.65 52.7 -156.65 51.05 -158.9 L49.0 -158.3 49.0 -158.15 M18.2 -105.8 Q17.6 -100.85 17.6 -98.4 17.6 -96.6 15.85 -92.0 14.1 -87.45 14.1 -85.25 L15.45 -79.95 16.75 -80.3 Q20.9 -81.35 23.5 -82.9 25.9 -84.35 26.4 -87.25 L26.5 -91.15 Q26.5 -96.35 30.5 -97.2 29.25 -99.65 29.25 -101.9 22.15 -102.7 18.2 -105.8 M-126.35 -342.15 L-127.65 -342.0 -129.7 -342.2 -131.45 -340.1 Q-131.5 -339.05 -131.65 -338.8 -132.25 -337.75 -134.85 -337.2 -126.9 -336.7 -121.85 -330.25 -119.9 -327.75 -118.85 -325.2 -115.2 -324.9 -112.55 -322.95 -111.75 -324.85 -110.2 -326.1 L-114.05 -329.0 Q-120.2 -329.25 -123.4 -337.9 L-126.35 -342.15 M-93.45 -289.2 L-93.15 -287.5 Q-93.15 -284.95 -94.65 -283.0 -96.05 -281.25 -97.65 -281.25 L-98.35 -281.25 -97.9 -280.45 Q-94.3 -280.1 -93.1 -277.6 -92.4 -276.1 -92.65 -274.4 -92.65 -274.05 -107.7 -261.75 L-109.4 -259.6 Q-112.25 -256.65 -115.15 -256.65 -116.6 -256.65 -118.05 -257.3 -121.15 -251.15 -126.15 -251.15 L-126.25 -251.15 Q-128.25 -244.65 -134.65 -244.65 -137.25 -244.65 -140.1 -247.05 L-142.05 -247.35 -144.65 -247.15 -145.55 -248.45 Q-149.1 -250.05 -151.1 -253.2 -152.35 -255.2 -152.9 -257.6 L-153.1 -259.2 -153.65 -260.0 Q-153.65 -261.1 -153.0 -262.45 L-152.65 -264.3 -152.0 -265.3 -152.9 -267.5 Q-152.9 -269.7 -150.9 -272.0 -148.55 -274.75 -145.15 -274.75 -140.4 -274.75 -136.4 -272.75 L-134.8 -271.85 -134.45 -271.95 Q-132.45 -269.05 -130.4 -268.6 L-129.1 -266.9 -128.85 -266.45 -128.15 -266.5 -123.3 -266.25 -120.85 -269.0 Q-117.85 -272.1 -116.6 -272.6 L-117.0 -273.1 Q-117.9 -274.3 -117.9 -275.75 -117.9 -279.15 -108.3 -280.1 -108.9 -281.3 -108.9 -282.25 L-108.85 -283.7 Q-108.55 -283.85 -108.4 -284.25 L-107.95 -284.5 -106.15 -284.75 -103.25 -284.45 -103.5 -286.0 Q-104.7 -286.45 -105.35 -287.7 -105.9 -288.8 -105.9 -290.0 -105.9 -291.95 -103.35 -294.5 -100.7 -297.25 -98.15 -297.25 -91.0 -297.25 -91.9 -292.25 -91.9 -290.05 -93.45 -289.2 M-127.8 -210.75 L-129.1 -212.6 Q-131.4 -216.35 -131.4 -217.9 -131.4 -221.0 -128.85 -223.85 -125.75 -227.4 -120.65 -227.4 L-118.6 -227.15 -119.45 -230.05 -119.9 -232.9 Q-119.9 -237.25 -117.7 -241.1 -114.5 -246.65 -108.15 -246.65 L-96.8 -239.25 -95.65 -239.4 Q-90.6 -239.4 -88.4 -235.35 -87.25 -233.3 -87.15 -231.0 -87.15 -227.7 -89.15 -224.6 -91.8 -220.55 -96.65 -220.2 L-96.65 -220.0 -95.15 -220.15 Q-93.75 -220.15 -92.45 -219.15 -91.1 -218.15 -90.65 -218.15 L-87.45 -223.3 Q-86.15 -224.65 -82.65 -224.65 -77.65 -224.65 -76.9 -218.15 -76.9 -215.75 -78.5 -213.4 L-77.9 -212.95 -75.15 -213.4 Q-71.5 -213.4 -69.75 -211.8 -70.4 -213.95 -70.35 -216.55 L-70.15 -219.15 Q-70.15 -221.6 -67.1 -225.1 -63.6 -229.15 -59.65 -229.15 -46.25 -229.15 -41.35 -223.85 -40.2 -222.55 -39.6 -221.2 L-37.1 -220.05 -37.15 -217.65 -37.05 -216.5 -36.75 -215.3 Q-38.4 -212.95 -38.4 -211.25 L-38.3 -210.05 -40.45 -207.6 Q-43.35 -204.15 -46.65 -204.15 L-48.4 -204.65 Q-48.9 -204.0 -49.05 -204.85 -52.75 -203.65 -57.65 -203.65 L-59.4 -203.7 -61.0 -202.1 Q-63.15 -200.15 -69.15 -200.15 L-70.1 -200.25 Q-72.35 -198.15 -78.65 -198.15 -84.75 -198.15 -85.35 -202.2 -88.0 -200.95 -89.95 -200.45 -89.4 -198.95 -89.4 -197.15 -89.4 -193.85 -91.65 -191.85 -93.9 -189.9 -97.65 -189.9 -102.9 -189.9 -104.15 -192.8 L-104.4 -196.0 Q-104.4 -198.0 -103.55 -201.05 -105.45 -201.5 -106.6 -203.25 -107.65 -204.8 -107.65 -205.9 -107.65 -211.05 -107.1 -212.6 -106.25 -215.2 -103.7 -215.9 L-104.65 -215.9 Q-109.3 -215.9 -112.7 -218.4 -112.4 -216.15 -112.65 -213.75 -112.65 -211.1 -114.4 -209.6 -114.75 -203.4 -122.65 -203.4 -126.95 -203.4 -127.85 -206.1 L-127.9 -209.15 -127.8 -210.75 M-93.4 -175.15 Q-93.4 -173.5 -96.2 -171.45 -92.85 -170.3 -92.15 -166.15 -92.15 -164.8 -96.9 -160.15 L-93.5 -157.1 Q-91.15 -155.25 -91.15 -154.15 -91.15 -147.9 -97.65 -147.9 -98.75 -147.9 -100.2 -148.65 -105.05 -148.95 -107.6 -151.65 -109.1 -153.2 -109.5 -154.85 -107.75 -158.55 -107.4 -165.55 L-102.4 -169.5 Q-104.6 -169.9 -105.65 -171.75 -106.4 -173.05 -106.4 -174.4 -106.4 -177.3 -102.4 -178.6 -100.05 -179.4 -97.65 -179.4 -93.9 -179.4 -93.4 -175.15 M-85.6 -156.6 L-84.7 -155.85 Q-85.65 -156.4 -86.2 -157.25 L-85.6 -156.6" fill="#666666" fill-rule="evenodd" stroke="none"/>
    </g>
  </defs>
</svg>
