<?xml version="1.0" encoding="UTF-8" standalone="no"?>
<svg xmlns:ffdec="https://www.free-decompiler.com/flash" xmlns:xlink="http://www.w3.org/1999/xlink" ffdec:objectType="frame" height="513.9px" width="383.5px" xmlns="http://www.w3.org/2000/svg">
  <g transform="matrix(1.0, 0.0, 0.0, 1.0, 183.4, 511.25)">
    <use ffdec:characterId="217" height="468.75" transform="matrix(1.0, 0.0, 0.0, 1.0, -177.35, -474.1)" width="375.1" xlink:href="#shape0"/>
  </g>
  <defs>
    <g id="shape0" transform="matrix(1.0, 0.0, 0.0, 1.0, 177.35, 474.1)">
      <path d="M80.85 -461.35 Q81.65 -458.15 81.85 -454.3 L81.85 -450.95 Q81.85 -447.4 80.4 -445.05 L82.55 -441.5 Q88.05 -442.85 91.05 -439.5 92.65 -437.75 93.1 -435.7 94.9 -433.6 96.3 -429.25 96.3 -427.4 94.0 -421.8 L94.0 -421.75 Q94.95 -420.65 95.65 -419.0 L96.95 -414.0 Q96.95 -411.7 94.85 -409.1 91.9 -405.55 86.7 -405.55 73.05 -405.55 73.05 -415.6 73.05 -418.3 75.35 -421.4 71.95 -421.85 69.55 -424.85 L68.55 -426.2 Q63.7 -425.8 63.2 -425.35 62.35 -422.45 59.8 -420.4 65.0 -416.95 70.95 -405.3 72.55 -405.1 72.75 -402.6 72.75 -399.55 71.1 -397.35 68.8 -394.25 63.85 -394.25 59.5 -394.25 57.15 -398.45 55.5 -401.35 55.5 -403.75 L55.6 -404.5 Q54.3 -404.75 52.8 -405.45 50.3 -406.65 49.55 -408.15 44.7 -407.45 43.5 -401.65 L42.5 -397.4 Q47.05 -396.85 48.75 -392.75 49.4 -391.25 49.6 -389.4 L49.65 -387.8 46.95 -382.45 Q50.65 -380.95 52.0 -379.0 L54.2 -378.15 Q55.75 -378.15 58.75 -380.2 L59.05 -380.15 60.85 -381.85 Q64.25 -384.8 65.5 -384.9 70.4 -385.5 73.65 -388.2 76.55 -390.6 79.7 -390.6 82.85 -390.6 87.7 -387.9 L91.3 -385.55 Q92.15 -393.55 99.2 -399.3 106.15 -404.9 113.25 -404.9 118.45 -404.9 120.95 -400.95 122.25 -399.0 122.45 -396.85 121.15 -391.25 121.15 -389.6 121.15 -389.1 122.65 -388.15 L125.9 -385.9 Q130.65 -382.25 130.65 -377.25 L130.4 -372.45 Q130.1 -371.7 128.4 -369.65 130.7 -369.1 131.35 -366.5 L131.8 -363.55 Q134.5 -366.55 139.7 -366.55 145.6 -366.55 148.55 -359.65 149.45 -357.45 149.95 -354.85 L150.3 -352.55 150.0 -350.55 150.35 -349.4 148.55 -346.2 Q143.85 -338.75 136.45 -338.9 136.2 -338.4 136.5 -337.75 136.9 -336.85 136.9 -336.05 136.9 -331.95 136.3 -330.35 L135.35 -328.15 Q139.8 -327.75 142.1 -322.15 L143.65 -316.15 143.65 -315.2 Q144.95 -314.6 146.25 -312.8 L147.8 -310.15 147.9 -310.95 Q147.9 -312.65 151.0 -315.5 154.0 -318.2 153.65 -319.9 L153.35 -322.15 152.85 -322.15 Q147.35 -322.15 145.6 -325.8 145.05 -326.95 144.95 -328.35 L144.95 -329.65 Q144.95 -331.1 145.35 -331.7 145.9 -332.5 148.15 -333.95 L149.0 -333.9 Q150.4 -335.2 152.45 -336.5 158.6 -340.4 165.1 -340.9 164.55 -342.2 164.1 -343.9 163.3 -346.75 162.85 -349.7 161.15 -350.35 161.15 -356.6 161.15 -360.0 165.7 -365.55 171.1 -372.15 177.4 -372.15 187.65 -372.15 192.9 -364.55 196.15 -359.85 196.15 -356.35 196.15 -350.85 194.05 -346.85 191.75 -342.55 186.3 -338.45 L185.9 -338.75 185.0 -337.55 Q183.95 -336.4 180.95 -336.2 L180.85 -336.15 180.6 -335.9 179.6 -330.15 Q179.05 -327.6 177.95 -325.75 L178.7 -325.65 Q179.35 -325.65 180.5 -326.3 L180.15 -325.25 186.55 -331.2 187.45 -331.9 Q189.15 -333.3 189.65 -333.3 193.55 -333.3 195.35 -331.05 196.45 -329.6 196.45 -327.95 196.45 -327.1 197.1 -326.45 197.75 -325.8 197.75 -325.0 197.75 -321.2 196.2 -319.65 190.35 -304.15 183.9 -304.15 L171.3 -304.6 Q170.05 -304.85 169.15 -305.4 168.95 -302.6 165.55 -298.95 160.7 -293.8 153.15 -293.8 146.55 -293.8 144.65 -295.1 L142.95 -297.45 Q140.1 -300.3 134.45 -299.45 L127.1 -298.6 125.15 -293.2 124.45 -291.45 126.75 -291.55 Q135.75 -291.55 136.4 -286.7 L143.55 -283.4 143.7 -283.0 Q145.2 -279.2 145.55 -275.25 145.55 -271.45 145.25 -270.85 143.7 -267.95 136.75 -267.95 132.55 -267.95 130.55 -272.35 L128.85 -277.75 Q123.5 -277.8 119.9 -281.2 L119.7 -281.4 118.85 -280.5 Q112.95 -274.05 104.5 -274.05 98.95 -274.05 95.85 -278.9 L94.8 -280.7 Q94.45 -279.35 93.4 -278.55 90.85 -276.65 83.55 -276.65 L81.8 -276.7 80.2 -276.3 81.5 -276.15 Q81.5 -275.65 81.85 -274.75 81.85 -263.45 78.25 -262.75 L79.85 -259.15 Q81.2 -255.7 81.2 -254.05 81.2 -252.2 79.75 -250.6 77.95 -248.6 74.85 -248.6 72.8 -248.6 71.4 -250.2 68.55 -250.6 67.0 -251.7 L64.35 -254.85 Q62.4 -257.2 59.55 -257.85 L52.25 -259.55 Q48.9 -260.6 47.45 -262.35 L48.55 -262.4 Q48.0 -263.55 47.5 -265.3 L46.5 -270.2 Q46.5 -271.2 47.35 -273.35 47.95 -274.85 48.7 -275.65 L48.3 -276.05 Q51.2 -277.6 55.85 -277.6 67.8 -277.6 75.5 -267.1 L75.6 -266.95 75.25 -267.75 Q74.35 -269.7 74.35 -270.7 74.35 -272.15 75.7 -273.95 L75.5 -273.95 Q75.0 -274.5 75.0 -275.65 L75.1 -276.0 Q68.8 -276.3 66.0 -279.9 64.2 -282.2 64.2 -284.85 64.2 -287.35 67.1 -289.9 70.75 -293.15 76.45 -293.15 77.75 -293.15 79.3 -292.15 78.1 -293.25 78.1 -295.9 78.1 -298.55 80.4 -300.7 83.8 -303.95 91.25 -303.95 98.3 -303.95 99.4 -296.45 L100.25 -291.3 Q101.1 -288.95 103.45 -288.95 104.8 -288.95 108.5 -290.05 L110.1 -293.35 Q112.4 -297.8 113.5 -298.75 111.3 -303.25 111.15 -305.8 L111.0 -305.7 Q107.85 -303.95 106.1 -303.95 L102.9 -304.3 Q102.25 -303.8 101.65 -303.8 98.7 -303.8 96.5 -307.4 94.85 -310.1 94.85 -311.2 94.85 -315.9 95.0 -316.5 96.25 -320.85 101.9 -320.85 107.75 -320.85 110.75 -318.15 L112.5 -316.35 Q113.35 -315.5 114.15 -315.5 L118.0 -317.85 119.45 -318.7 119.55 -320.05 119.55 -321.0 116.1 -320.85 Q109.7 -320.85 107.6 -326.5 106.75 -328.8 106.75 -332.8 106.75 -335.75 109.4 -338.6 113.3 -342.8 121.25 -342.8 L125.75 -342.4 128.9 -346.25 130.5 -348.0 Q128.8 -349.7 128.7 -352.6 126.75 -351.45 123.55 -349.85 114.4 -345.4 108.05 -345.4 99.7 -345.4 95.95 -350.3 94.9 -351.65 94.4 -353.0 91.65 -353.35 90.55 -356.45 89.95 -358.15 89.95 -360.45 89.95 -364.15 91.85 -365.55 94.45 -367.5 102.3 -367.5 106.7 -367.5 109.55 -363.75 L111.1 -361.2 Q112.25 -365.25 115.95 -369.15 111.7 -373.85 110.1 -376.45 L108.05 -376.35 Q105.05 -376.35 103.5 -377.1 101.5 -376.2 98.65 -376.2 96.95 -376.2 95.75 -377.05 L94.5 -377.8 Q93.65 -376.45 91.9 -375.05 88.65 -372.45 85.5 -372.45 74.9 -372.45 69.65 -376.0 L68.0 -377.35 64.05 -373.1 Q65.5 -369.2 65.5 -367.6 65.5 -363.55 58.6 -358.7 51.3 -353.6 43.9 -353.6 41.05 -353.6 38.1 -354.65 L34.2 -355.7 Q30.8 -348.4 27.65 -344.25 30.45 -342.45 32.1 -338.15 33.05 -335.8 33.5 -333.0 L33.75 -330.35 Q33.75 -329.05 32.35 -324.55 L32.9 -322.8 Q32.9 -321.35 31.6 -318.45 30.3 -315.5 30.3 -314.1 30.3 -313.75 32.5 -310.75 34.7 -307.75 34.7 -307.05 34.7 -300.4 33.35 -297.25 L33.9 -297.3 Q37.7 -297.3 41.1 -294.2 40.95 -295.2 40.95 -296.55 40.95 -301.1 42.65 -303.1 L42.6 -303.25 Q42.1 -304.95 41.95 -306.8 41.95 -309.65 43.9 -312.85 46.55 -317.15 50.95 -317.15 56.0 -317.15 57.8 -314.45 58.7 -313.1 58.6 -311.6 58.6 -309.1 57.0 -307.2 L57.35 -304.8 Q57.65 -301.55 57.3 -298.3 57.8 -294.0 57.3 -291.2 56.45 -285.95 51.6 -285.95 49.15 -285.95 47.1 -286.85 L47.15 -286.4 Q47.15 -284.65 43.55 -281.95 39.25 -278.75 33.9 -278.75 26.7 -278.75 20.55 -284.65 16.9 -288.15 15.9 -290.35 L14.55 -290.25 Q11.2 -290.25 8.05 -292.35 L7.75 -292.6 Q3.8 -286.95 -1.4 -285.9 L0.15 -281.9 Q0.15 -277.65 -0.35 -276.05 L-0.65 -275.25 Q6.65 -273.2 11.0 -260.05 12.5 -263.0 16.15 -266.45 23.25 -273.15 31.6 -273.15 39.5 -273.15 42.45 -267.45 43.25 -265.9 43.65 -264.05 L43.55 -264.05 43.0 -263.8 42.85 -262.8 Q42.85 -257.8 38.65 -255.15 28.7 -248.8 25.5 -246.0 25.5 -245.55 25.8 -245.0 L27.95 -244.85 26.45 -244.0 26.6 -243.8 27.8 -243.9 Q34.8 -243.9 42.25 -239.15 L42.25 -239.4 Q42.25 -243.1 48.95 -248.1 56.0 -253.4 62.65 -253.4 64.65 -253.4 68.15 -248.2 L69.65 -248.45 Q75.85 -248.45 80.85 -243.4 L82.15 -242.0 84.75 -244.1 Q89.4 -247.45 92.25 -247.45 L102.95 -246.55 102.95 -247.3 Q102.95 -248.2 103.45 -249.7 102.95 -250.15 102.95 -250.95 102.95 -253.8 106.6 -257.25 110.4 -260.85 113.9 -260.85 117.0 -260.85 118.4 -259.15 119.25 -258.05 119.95 -255.25 120.7 -252.25 121.45 -251.05 L121.95 -250.45 Q123.25 -252.15 126.8 -254.15 133.65 -258.1 142.6 -258.1 149.0 -258.1 152.9 -248.75 152.9 -244.95 147.9 -240.45 142.35 -235.5 136.1 -235.5 132.0 -235.5 128.05 -236.7 L124.75 -237.95 Q123.9 -237.95 123.4 -237.05 L122.55 -235.25 Q121.1 -232.95 116.6 -234.55 117.65 -232.55 115.75 -229.55 113.45 -226.0 108.7 -226.0 103.35 -226.0 100.4 -228.9 L99.8 -229.65 Q97.35 -227.35 93.2 -224.4 83.35 -217.4 78.75 -217.4 74.3 -217.4 72.85 -218.45 72.15 -219.5 71.5 -219.5 71.0 -219.5 69.75 -218.45 68.55 -217.45 65.0 -217.7 69.0 -215.95 71.35 -211.45 73.2 -207.9 73.2 -204.95 73.2 -200.15 71.5 -196.0 68.75 -189.35 62.65 -189.35 61.2 -189.35 53.65 -195.0 L43.4 -202.6 Q44.7 -198.65 42.9 -187.1 L44.55 -180.85 Q44.55 -179.55 41.75 -172.65 41.75 -172.2 43.95 -169.25 46.15 -166.25 46.15 -165.4 46.15 -163.75 45.6 -162.45 47.3 -161.7 47.3 -159.65 47.3 -155.1 44.2 -153.5 40.15 -151.4 27.55 -151.4 L21.3 -145.0 21.95 -141.45 21.9 -138.5 Q22.55 -137.25 23.55 -136.05 L30.7 -127.45 38.1 -119.0 Q42.45 -114.0 42.85 -110.45 L49.05 -110.0 Q49.2 -111.85 50.75 -114.05 52.35 -116.35 54.55 -117.0 L53.25 -116.95 Q51.2 -116.95 48.8 -121.9 46.8 -126.05 46.8 -127.05 46.8 -129.2 48.6 -131.2 49.45 -132.15 50.45 -132.7 L50.75 -133.15 50.2 -133.15 50.45 -134.85 51.75 -134.7 Q50.85 -137.25 50.85 -138.1 50.85 -140.6 55.15 -142.9 59.4 -145.25 64.2 -145.5 L67.3 -145.25 67.35 -145.15 67.45 -145.2 68.35 -145.45 Q65.35 -149.05 65.35 -150.35 65.35 -152.75 66.85 -155.8 L68.1 -157.8 66.0 -159.35 Q64.8 -160.55 64.25 -161.95 L62.35 -159.7 Q59.6 -156.8 58.45 -156.8 53.85 -156.8 51.0 -160.2 48.75 -162.8 48.75 -165.05 48.75 -166.95 51.55 -168.6 54.75 -170.5 59.75 -170.5 L60.95 -170.45 62.75 -172.15 Q65.3 -174.1 67.75 -174.1 71.1 -174.1 78.1 -171.35 L83.35 -174.1 91.15 -175.45 Q91.8 -176.1 94.2 -176.1 102.15 -176.1 104.0 -163.1 104.0 -162.1 102.7 -160.7 101.25 -159.05 99.7 -159.05 L94.65 -159.6 Q92.45 -157.2 89.05 -157.1 L89.55 -154.9 Q89.55 -150.35 86.8 -145.45 82.8 -138.25 75.15 -138.25 L70.75 -138.3 Q70.05 -135.8 67.6 -133.2 64.0 -129.4 58.7 -128.85 L58.75 -128.75 Q60.05 -125.6 60.05 -123.0 60.05 -118.4 56.15 -117.3 L56.5 -117.3 Q59.55 -117.3 60.95 -115.25 62.0 -114.95 62.95 -114.2 L63.0 -114.2 63.7 -113.95 Q66.8 -116.0 73.2 -116.0 75.65 -116.0 80.6 -108.05 L82.3 -109.5 Q88.3 -114.2 93.85 -114.2 97.95 -114.2 101.0 -109.75 102.65 -107.35 103.15 -105.65 104.35 -107.2 106.95 -109.15 112.6 -113.4 118.7 -113.4 125.6 -113.4 128.9 -108.1 130.55 -105.4 130.8 -102.5 130.8 -96.05 126.3 -91.1 119.85 -84.05 106.45 -84.05 100.85 -84.05 97.6 -87.45 95.5 -89.6 95.2 -91.65 L91.5 -92.25 Q90.9 -89.65 88.65 -87.4 85.0 -83.6 78.75 -83.6 69.7 -83.6 67.15 -87.7 66.3 -89.0 66.3 -92.35 66.3 -94.2 66.6 -95.55 65.0 -95.45 64.05 -96.15 64.05 -94.5 61.45 -91.45 58.8 -88.35 57.15 -88.35 L54.1 -88.65 52.75 -85.7 Q51.25 -82.6 49.75 -80.7 49.85 -79.35 49.55 -77.9 49.55 -75.35 48.25 -70.1 46.95 -64.85 46.95 -63.25 L46.95 -62.25 50.0 -62.45 Q54.85 -62.45 57.8 -59.1 L58.65 -58.05 61.95 -61.95 Q68.1 -69.05 70.3 -69.05 79.75 -69.05 84.55 -63.0 86.95 -59.95 87.45 -56.75 87.45 -52.7 83.2 -48.7 77.95 -43.75 69.65 -43.75 65.25 -43.75 61.9 -44.9 L62.75 -42.65 Q62.75 -40.95 61.7 -37.8 60.55 -34.45 59.05 -33.85 L60.2 -31.6 60.75 -27.25 60.9 -26.55 Q59.9 -23.7 57.8 -22.15 L55.1 -20.45 Q53.9 -19.6 53.9 -18.5 55.85 -12.95 55.85 -11.9 55.85 -5.35 51.95 -5.35 48.75 -5.35 44.3 -7.75 39.85 -10.2 39.0 -10.2 17.75 -10.2 9.55 -8.1 7.2 -7.5 5.85 -6.65 4.8 -6.0 4.55 -6.0 L-3.65 -6.45 Q-4.2 -5.35 -5.1 -5.35 -11.5 -5.35 -24.1 -14.9 -30.15 -19.6 -30.15 -27.35 -30.15 -28.7 -28.25 -31.65 -26.4 -34.6 -26.4 -35.55 -26.4 -36.4 -27.05 -37.7 -27.7 -39.05 -27.7 -39.85 -27.7 -58.8 -18.7 -58.8 L-17.4 -58.55 -17.35 -58.6 Q-14.0 -61.35 -11.1 -61.65 -12.4 -66.1 -12.4 -70.15 L-12.35 -72.9 Q-18.7 -73.75 -22.2 -79.2 -23.5 -81.25 -24.2 -83.7 L-24.7 -85.85 Q-24.9 -89.1 -26.6 -90.85 L-26.5 -91.45 Q-27.5 -93.45 -27.65 -95.35 L-28.0 -95.35 -36.4 -96.05 -36.1 -95.85 Q-31.9 -92.8 -31.9 -90.95 L-31.95 -89.65 -31.75 -89.65 Q-31.6 -88.45 -31.6 -87.0 -31.6 -85.2 -33.1 -80.8 -33.85 -78.65 -34.65 -77.1 -36.45 -70.75 -47.75 -70.75 -55.65 -70.75 -59.15 -76.85 -60.25 -78.75 -60.8 -81.1 L-61.1 -83.15 -61.1 -85.5 Q-60.9 -86.75 -60.1 -87.2 -59.0 -91.85 -55.95 -98.75 -51.85 -108.05 -48.15 -109.75 L-47.95 -109.9 Q-51.15 -111.6 -53.0 -117.05 L-53.15 -117.55 Q-54.7 -120.25 -55.85 -125.7 L-57.25 -135.9 -57.95 -136.35 Q-60.05 -137.45 -60.65 -138.25 -61.75 -139.75 -61.85 -142.65 -66.3 -142.75 -69.3 -145.55 L-76.05 -145.35 Q-75.25 -140.2 -77.75 -133.5 -80.9 -125.2 -87.0 -125.2 L-87.7 -125.2 -88.65 -123.75 Q-90.4 -121.45 -92.85 -121.45 L-92.9 -121.45 Q-92.05 -120.7 -91.6 -119.5 L-90.35 -119.25 Q-89.5 -117.9 -88.95 -115.9 L-88.55 -114.45 -86.5 -117.15 Q-80.05 -124.85 -72.55 -124.85 -65.4 -124.85 -63.1 -119.05 -61.95 -116.15 -62.25 -113.25 -62.25 -108.85 -63.25 -107.2 -64.6 -105.0 -70.45 -100.9 -72.45 -99.45 -76.5 -99.65 -80.15 -99.85 -83.35 -96.65 -86.35 -93.75 -88.4 -93.15 L-97.75 -92.6 Q-99.15 -92.6 -100.95 -94.05 L-102.5 -95.7 Q-109.85 -96.25 -109.85 -105.05 -109.85 -112.4 -109.15 -114.85 -107.2 -122.05 -100.25 -122.45 L-100.25 -122.5 -97.1 -122.75 -96.8 -122.75 -97.45 -123.7 -97.75 -126.15 Q-97.75 -129.85 -94.7 -130.95 -95.2 -132.55 -95.3 -134.4 L-95.3 -136.25 Q-95.3 -141.9 -93.0 -145.65 -89.9 -150.75 -83.2 -150.75 -79.45 -150.75 -77.35 -149.85 -76.4 -149.45 -74.65 -149.15 -76.05 -150.25 -77.45 -152.3 L-79.8 -156.7 Q-79.8 -159.1 -78.0 -161.3 -75.3 -164.6 -69.95 -164.6 -65.65 -164.6 -63.75 -159.2 -63.1 -157.35 -62.85 -155.5 -60.8 -155.0 -59.15 -152.95 -57.8 -151.3 -57.15 -149.35 L-55.1 -149.55 Q-51.35 -149.55 -48.3 -145.15 L-48.8 -147.1 Q-51.75 -155.95 -51.75 -159.0 -51.75 -163.7 -46.85 -164.55 L-43.05 -165.3 Q-41.0 -165.9 -40.3 -167.45 L-37.9 -172.7 -37.8 -172.9 Q-40.1 -174.1 -40.3 -174.1 -45.5 -171.5 -48.35 -171.5 -55.15 -171.5 -58.95 -181.8 -60.15 -185.05 -60.9 -188.95 L-61.4 -192.45 -60.1 -195.2 Q-58.45 -198.1 -56.5 -200.4 -50.5 -207.35 -44.85 -204.9 L-30.6 -204.9 Q-28.6 -203.7 -24.6 -198.05 -20.8 -192.6 -20.8 -191.4 L-20.8 -191.1 Q-19.0 -190.25 -18.05 -187.25 L-18.05 -182.3 -13.55 -182.6 Q-12.7 -182.6 -10.9 -181.85 -9.2 -181.15 -8.7 -180.65 -8.45 -181.15 -7.95 -186.2 -7.6 -189.85 -4.3 -191.95 -5.8 -193.85 -9.3 -199.75 -12.75 -205.65 -12.75 -206.25 -12.75 -207.45 -11.3 -209.15 -9.2 -211.65 -5.6 -211.0 L-5.75 -215.1 -5.75 -216.5 Q-20.65 -217.75 -20.65 -228.55 L-20.65 -228.95 -28.0 -229.2 Q-29.35 -229.2 -30.95 -226.7 -32.5 -224.2 -33.8 -224.2 -38.25 -224.2 -40.45 -226.95 -42.1 -229.05 -42.1 -231.85 -42.1 -234.85 -39.95 -234.85 L-39.8 -234.85 -40.15 -236.15 -39.8 -239.1 Q-41.1 -243.5 -41.1 -245.1 -41.1 -248.1 -37.65 -251.05 L-30.45 -256.0 Q-36.25 -259.85 -36.25 -269.05 L-36.2 -270.8 Q-36.85 -271.05 -37.15 -271.5 -37.95 -272.65 -39.15 -272.65 -40.0 -272.65 -42.25 -271.65 -44.4 -270.7 -47.35 -270.85 -47.35 -267.85 -50.75 -263.8 -54.6 -259.25 -59.0 -259.25 -64.75 -259.25 -66.2 -261.65 L-66.55 -263.6 -66.75 -264.1 -67.2 -266.55 Q-67.2 -270.35 -62.95 -273.8 -58.2 -277.6 -57.7 -279.25 -54.85 -287.8 -50.85 -290.65 L-56.95 -294.45 -58.65 -295.65 -60.1 -294.45 Q-63.85 -291.55 -65.8 -291.55 -68.8 -291.55 -70.55 -292.2 -71.45 -290.9 -73.2 -289.45 -77.2 -286.15 -82.2 -286.15 -87.5 -286.15 -91.05 -291.2 -93.65 -294.85 -93.65 -296.8 -93.65 -301.05 -91.65 -304.6 -89.3 -308.75 -85.0 -309.75 L-85.2 -310.65 -85.2 -310.7 Q-87.1 -311.7 -88.15 -314.1 -89.05 -316.15 -89.1 -318.45 -89.1 -320.95 -88.4 -323.3 -87.75 -325.5 -86.6 -326.4 L-86.7 -326.45 -86.6 -326.65 -91.55 -326.3 Q-90.9 -325.6 -92.55 -325.6 L-94.1 -325.6 -94.0 -324.05 Q-94.0 -321.6 -96.3 -317.45 -99.0 -312.5 -102.2 -312.5 -105.25 -312.5 -107.0 -313.25 -108.75 -313.8 -110.4 -315.55 -111.95 -317.15 -112.35 -318.25 -112.4 -315.85 -113.45 -314.2 L-114.6 -312.75 Q-113.45 -310.85 -112.35 -307.95 -112.35 -304.15 -113.15 -301.65 -111.7 -300.4 -111.4 -296.8 -112.7 -293.15 -112.7 -291.55 -112.7 -290.7 -112.05 -289.95 -111.4 -289.15 -111.4 -288.35 -111.4 -286.05 -113.15 -285.35 -115.35 -284.45 -122.85 -284.45 -125.6 -284.45 -127.45 -288.1 L-128.75 -291.8 Q-128.75 -293.05 -127.7 -294.45 -126.45 -296.15 -124.8 -296.15 L-124.35 -296.05 -124.3 -296.15 -124.65 -296.35 -123.8 -296.85 -123.5 -297.2 Q-126.25 -298.05 -127.4 -301.7 -128.15 -304.05 -128.1 -306.5 -128.1 -307.7 -126.55 -309.45 -125.0 -311.2 -123.8 -311.2 L-123.55 -311.15 -124.55 -311.85 -128.15 -314.65 Q-134.15 -318.75 -144.95 -318.75 L-147.55 -316.4 Q-147.7 -313.95 -150.0 -310.55 -153.1 -305.9 -157.7 -305.9 -163.85 -305.9 -167.3 -310.0 -169.3 -312.4 -169.65 -314.6 -169.65 -315.3 -168.65 -315.9 L-168.5 -315.8 Q-167.65 -319.4 -161.25 -321.9 -157.5 -323.4 -153.45 -324.3 -154.95 -327.75 -154.95 -330.05 -154.95 -333.85 -152.65 -337.75 -151.3 -340.1 -149.4 -341.45 L-148.85 -343.15 Q-148.2 -344.65 -148.2 -345.5 -148.2 -345.9 -148.75 -346.35 -149.25 -345.15 -150.1 -343.95 -153.1 -339.7 -158.65 -339.7 -167.6 -339.7 -173.1 -346.2 -177.35 -351.2 -177.35 -355.7 -177.35 -361.25 -174.25 -365.85 -168.7 -374.1 -155.2 -374.1 -147.6 -374.1 -142.8 -370.85 L-141.1 -369.6 -138.6 -374.9 Q-134.3 -382.15 -128.7 -382.15 -119.6 -382.15 -116.75 -377.2 -115.45 -375.0 -115.45 -370.45 -115.45 -368.35 -117.7 -363.25 -112.9 -360.5 -108.55 -347.05 L-108.55 -346.95 Q-105.9 -346.25 -100.4 -342.3 -98.8 -342.3 -97.35 -343.6 -98.55 -347.85 -98.55 -349.7 -98.55 -358.4 -89.6 -358.4 -80.25 -358.4 -77.85 -352.0 -77.05 -349.95 -77.05 -347.2 L-77.2 -344.25 Q-77.2 -342.2 -77.35 -340.6 -74.8 -339.2 -73.2 -334.25 L-71.75 -327.1 Q-71.75 -323.95 -72.05 -323.25 -72.95 -321.45 -76.95 -320.2 L-76.1 -314.1 -76.1 -314.05 -71.25 -314.6 Q-68.3 -314.6 -66.9 -312.6 -66.15 -311.6 -65.65 -310.2 -64.1 -308.8 -59.45 -308.05 -54.5 -307.25 -53.8 -306.8 -52.05 -305.75 -49.0 -298.05 -49.0 -297.35 -49.4 -296.0 L-48.5 -296.7 Q-47.1 -297.45 -43.85 -297.45 -38.45 -297.45 -36.15 -292.05 -34.3 -287.85 -35.1 -284.65 -30.45 -281.9 -28.5 -278.25 L-28.4 -278.4 -28.5 -279.3 Q-28.5 -281.55 -28.05 -282.9 L-28.7 -284.65 -28.85 -287.3 Q-27.3 -292.85 -24.75 -299.05 -21.95 -305.95 -19.1 -310.25 -21.3 -310.75 -23.0 -312.65 L-24.25 -314.3 Q-26.75 -310.4 -32.55 -310.4 -38.4 -310.4 -39.95 -313.5 -40.4 -314.45 -40.4 -315.65 L-40.3 -316.65 Q-40.3 -320.05 -36.55 -323.1 -33.55 -325.6 -30.05 -326.15 L-30.3 -326.45 Q-31.5 -328.15 -31.7 -329.7 L-36.05 -329.5 Q-43.9 -329.5 -48.2 -332.3 -51.1 -334.25 -51.1 -335.9 L-51.05 -337.15 Q-51.6 -337.6 -51.75 -338.6 L-51.75 -340.55 Q-51.75 -346.05 -49.3 -350.3 -45.7 -356.45 -38.0 -356.45 -31.3 -356.45 -26.75 -346.75 L-26.05 -346.85 Q-25.35 -346.85 -21.45 -344.9 -22.55 -347.6 -21.55 -351.35 L-20.35 -354.25 -20.85 -354.25 Q-28.1 -354.25 -32.2 -359.2 -35.1 -362.7 -35.1 -365.45 -35.1 -369.4 -31.65 -372.8 -30.7 -373.75 -29.55 -374.55 L-28.95 -375.55 Q-26.5 -379.15 -22.1 -379.65 L-22.2 -379.8 Q-23.25 -381.25 -23.25 -383.1 L-23.1 -387.15 Q-22.5 -391.2 -20.3 -392.55 L-16.55 -392.55 -11.95 -393.1 Q-9.85 -393.1 -8.4 -391.7 L-9.55 -395.7 Q-10.8 -400.6 -10.8 -401.8 -10.8 -404.9 -8.2 -408.65 -4.85 -413.4 0.35 -413.4 7.55 -413.4 10.35 -409.5 11.8 -407.5 11.8 -404.95 11.8 -401.3 8.45 -396.0 6.35 -392.65 4.0 -391.1 4.85 -389.65 5.3 -387.15 9.1 -389.6 13.6 -389.6 19.55 -389.6 22.85 -387.25 23.9 -388.85 26.05 -391.05 30.3 -395.45 32.6 -395.55 L31.9 -399.1 Q30.2 -400.3 28.55 -402.8 25.8 -403.1 24.7 -405.7 24.05 -407.25 24.05 -409.1 24.05 -410.45 24.4 -411.9 24.5 -413.55 25.4 -415.35 26.6 -417.8 28.5 -417.95 L29.55 -420.2 Q31.6 -424.05 34.55 -424.05 L35.1 -424.05 35.05 -424.4 Q35.05 -426.05 36.35 -427.95 36.35 -428.75 36.5 -428.95 L31.3 -428.45 22.3 -429.1 Q21.4 -427.45 19.7 -425.55 15.2 -420.55 9.05 -420.55 3.4 -420.55 0.35 -425.85 -1.8 -429.5 -1.8 -432.65 -1.8 -437.0 2.3 -442.25 7.9 -449.4 17.4 -449.4 28.0 -449.4 34.1 -440.9 L35.8 -441.95 Q39.8 -444.25 42.2 -444.85 L42.05 -445.65 Q39.15 -446.95 37.95 -451.4 37.15 -454.5 37.3 -457.7 37.3 -462.35 40.9 -466.9 46.55 -474.1 58.45 -474.1 64.35 -474.1 67.45 -471.25 L67.55 -471.15 70.6 -471.5 Q78.35 -471.5 80.85 -461.35 M91.25 -334.1 Q92.55 -332.35 92.55 -330.7 92.55 -328.0 88.0 -325.6 82.4 -322.75 80.85 -320.2 80.55 -319.7 80.7 -317.65 80.85 -315.2 80.65 -314.0 79.8 -309.25 72.9 -309.25 68.95 -309.25 66.8 -313.55 L65.5 -317.95 Q65.5 -320.2 68.65 -322.25 73.95 -325.7 75.65 -327.35 76.1 -327.8 77.65 -332.5 80.05 -336.95 84.85 -336.95 89.15 -336.95 91.25 -334.1 M22.1 -374.6 Q19.6 -374.85 17.35 -375.85 L15.2 -377.15 Q12.1 -371.5 8.4 -371.5 5.0 -371.5 2.75 -372.2 L0.95 -372.95 -0.85 -369.9 -4.15 -364.6 Q-4.85 -362.05 -4.95 -358.7 L-5.05 -353.1 -3.15 -353.6 Q3.35 -353.6 6.25 -351.65 6.65 -352.9 7.6 -354.1 9.2 -356.2 10.9 -356.4 11.55 -360.55 16.3 -364.6 19.05 -366.9 22.65 -368.75 L22.45 -369.35 Q21.95 -371.3 22.1 -373.5 L22.1 -374.6 M150.95 -182.15 Q150.95 -186.0 153.1 -189.35 156.5 -194.75 164.2 -194.75 176.15 -194.75 179.45 -187.9 181.15 -184.4 180.45 -180.45 180.45 -176.45 175.0 -162.8 175.0 -161.95 175.65 -161.75 L176.15 -161.4 Q177.9 -163.1 182.9 -163.1 189.6 -163.1 191.95 -159.7 193.1 -158.0 192.9 -156.3 192.9 -152.35 190.8 -148.6 187.35 -142.5 179.65 -142.5 172.9 -142.5 169.45 -144.05 167.2 -145.65 166.5 -145.65 L164.55 -145.35 Q164.55 -141.2 163.2 -138.0 160.65 -131.85 154.15 -131.85 148.55 -131.85 146.9 -135.85 145.7 -138.75 146.65 -141.85 L138.7 -140.85 134.15 -141.1 Q133.5 -140.2 131.3 -140.2 125.8 -140.2 123.5 -145.35 122.3 -148.1 122.3 -150.95 122.3 -153.55 125.5 -155.95 128.75 -158.4 132.6 -158.4 140.05 -158.4 144.85 -155.15 L147.5 -152.85 148.05 -152.9 149.6 -152.75 Q149.0 -154.6 149.0 -155.75 149.0 -160.05 155.15 -164.6 L156.55 -168.1 157.4 -170.05 Q154.9 -171.15 152.9 -175.8 L150.95 -182.15 M130.8 -169.45 Q123.6 -158.1 114.8 -158.1 108.0 -158.1 106.1 -160.35 105.45 -161.15 105.45 -163.55 105.45 -165.0 111.3 -171.95 117.0 -178.7 117.4 -178.7 124.55 -178.7 128.25 -174.95 130.8 -172.3 130.8 -169.45 M108.1 -190.0 Q106.3 -189.05 98.75 -189.05 92.45 -189.05 92.45 -192.45 92.45 -194.4 94.4 -195.75 96.95 -197.55 102.0 -197.55 108.7 -197.55 108.7 -191.95 108.7 -190.35 108.1 -190.0 M104.6 -153.75 L105.8 -153.8 Q112.55 -153.8 113.25 -147.45 113.25 -145.7 111.8 -143.25 L111.05 -142.15 Q114.95 -140.6 115.3 -132.1 115.3 -128.55 114.6 -126.95 113.05 -123.4 108.05 -123.4 100.95 -123.4 98.05 -130.35 97.15 -132.55 96.8 -135.2 L96.6 -137.6 Q96.6 -138.5 97.6 -140.8 L97.6 -140.85 Q97.6 -141.9 98.45 -143.55 97.75 -145.0 97.75 -145.5 97.75 -149.5 98.4 -150.75 99.45 -152.7 102.2 -153.4 102.95 -153.8 103.85 -153.8 L104.6 -153.75 M87.35 -140.7 Q94.1 -140.7 95.65 -136.4 93.75 -127.6 89.4 -127.6 84.4 -127.6 82.1 -130.35 80.6 -132.1 80.6 -134.05 80.6 -136.1 82.1 -138.1 84.0 -140.7 87.35 -140.7 M25.1 -193.15 Q25.15 -191.9 22.85 -187.35 19.0 -179.75 18.8 -177.75 L18.85 -177.1 Q26.8 -186.35 26.8 -187.6 L25.1 -193.15 M24.7 -193.65 L25.0 -193.55 24.85 -193.9 24.7 -193.9 24.7 -193.65 M15.65 -110.7 L16.5 -106.55 Q16.5 -101.05 13.7 -93.1 12.35 -89.35 10.9 -86.7 13.95 -83.95 16.1 -78.05 18.25 -77.35 20.2 -75.35 20.45 -78.0 21.5 -79.2 22.35 -80.15 24.0 -80.95 24.65 -83.55 27.4 -87.85 31.35 -94.0 34.05 -93.75 31.35 -99.75 31.0 -100.8 30.8 -101.4 30.8 -105.35 22.8 -105.45 17.6 -109.15 L15.65 -110.7 M-132.45 -346.3 Q-134.35 -343.75 -136.6 -342.05 L-137.05 -341.5 Q-131.25 -338.7 -121.6 -329.4 -113.55 -321.6 -112.5 -319.1 -112.5 -321.95 -111.9 -322.75 L-109.75 -324.6 -109.25 -326.7 -109.2 -326.95 Q-113.65 -327.35 -121.05 -337.0 -124.2 -341.15 -125.95 -344.2 L-127.4 -344.1 Q-130.25 -344.1 -132.45 -346.3 M-97.5 -278.05 Q-99.85 -272.3 -103.65 -269.25 L-106.95 -266.7 Q-109.5 -260.55 -112.5 -260.55 L-115.75 -260.55 Q-122.55 -256.1 -126.7 -254.1 -128.65 -249.1 -136.4 -249.1 -152.65 -249.1 -152.65 -261.45 -152.65 -263.25 -152.45 -263.7 L-151.8 -264.55 Q-152.35 -266.35 -152.35 -267.45 -152.35 -269.3 -148.05 -271.7 -143.25 -274.35 -138.05 -274.35 -134.4 -274.35 -129.95 -271.35 L-125.3 -268.4 Q-124.4 -268.4 -123.1 -270.5 -121.95 -272.3 -119.2 -271.45 -117.05 -280.85 -112.85 -280.35 L-111.7 -280.15 -106.6 -285.0 -106.95 -285.4 Q-108.4 -287.35 -108.4 -289.2 -108.4 -290.6 -106.45 -293.3 -104.1 -296.55 -101.55 -296.55 -94.9 -296.55 -95.3 -289.1 -95.3 -283.5 -97.5 -278.05 M-129.05 -224.55 Q-127.5 -226.3 -121.7 -227.8 -123.35 -232.35 -118.65 -240.0 -113.45 -248.45 -106.1 -248.45 -103.05 -248.45 -100.95 -245.65 -99.2 -243.3 -99.2 -241.05 L-99.2 -240.9 Q-92.35 -241.05 -89.3 -236.6 -87.5 -234.0 -87.5 -231.3 -87.5 -228.75 -87.7 -228.35 L-88.2 -227.6 -88.0 -226.5 Q-87.15 -224.85 -84.65 -224.7 L-81.4 -224.55 Q-79.85 -224.05 -75.9 -219.6 L-73.85 -221.15 -73.8 -221.1 Q-73.55 -225.45 -70.7 -228.45 -66.15 -233.4 -55.75 -233.4 -45.1 -233.4 -41.1 -225.2 -39.15 -221.15 -39.15 -216.0 -39.15 -214.35 -40.6 -212.15 -42.35 -209.5 -44.85 -208.8 L-45.0 -208.95 Q-46.75 -208.4 -49.05 -208.4 L-57.2 -209.15 -60.6 -206.65 Q-68.45 -201.8 -82.55 -201.8 -84.25 -201.8 -85.0 -202.45 -86.25 -203.65 -87.1 -204.05 L-90.1 -204.05 Q-90.4 -202.1 -89.6 -198.3 -89.6 -196.45 -91.2 -194.85 -93.35 -192.8 -97.4 -192.8 -101.75 -192.8 -101.85 -198.35 L-101.05 -204.25 Q-101.05 -204.65 -102.75 -207.55 -104.5 -210.45 -104.5 -211.55 -102.55 -217.7 -102.55 -218.05 -102.55 -219.3 -103.45 -220.2 L-106.65 -219.85 Q-109.1 -219.85 -110.85 -221.0 -111.35 -218.7 -114.3 -214.05 -118.3 -207.75 -121.55 -207.75 -122.9 -207.75 -126.55 -212.45 -130.0 -216.85 -130.0 -217.55 L-129.9 -217.85 -129.95 -218.1 -130.0 -220.55 Q-130.0 -223.5 -129.05 -224.55 M-35.5 -110.3 L-33.2 -108.25 Q-30.5 -105.35 -29.55 -102.55 L-23.45 -101.95 -22.5 -101.8 -21.2 -102.1 Q-20.4 -102.1 -16.25 -99.4 -15.7 -109.1 -13.2 -113.6 -15.55 -115.2 -18.0 -119.15 L-20.1 -123.2 -22.25 -123.0 Q-25.55 -123.0 -27.3 -124.5 -28.0 -121.35 -30.25 -118.0 -30.95 -116.45 -32.55 -114.05 -34.35 -111.35 -35.5 -110.3 M-93.2 -173.75 Q-93.2 -171.9 -95.9 -171.35 -95.05 -170.0 -94.3 -167.75 L-94.3 -167.1 -94.05 -167.05 -94.35 -166.75 Q-94.55 -165.6 -95.25 -165.0 -96.0 -164.4 -97.65 -163.9 -95.3 -163.3 -93.35 -161.2 -91.05 -158.75 -91.05 -157.25 -91.05 -154.55 -91.7 -153.4 -93.3 -150.55 -98.7 -150.55 -104.0 -150.55 -106.7 -155.5 -108.4 -158.6 -108.4 -160.85 -108.4 -162.6 -107.1 -163.45 -107.5 -164.55 -107.5 -165.95 -107.5 -167.65 -106.55 -170.05 L-106.1 -170.5 -105.95 -170.6 -105.55 -171.35 Q-107.25 -171.9 -107.25 -174.1 -107.25 -174.9 -104.75 -176.15 -101.85 -177.6 -98.4 -177.6 -93.6 -177.6 -93.2 -173.75 M-10.3 -12.5 L-9.45 -12.1 -8.6 -12.7 -10.3 -12.5" fill="#686868" fill-rule="evenodd" stroke="none"/>
    </g>
  </defs>
</svg>
