<?xml version="1.0" encoding="UTF-8" standalone="no"?>
<svg xmlns:ffdec="https://www.free-decompiler.com/flash" xmlns:xlink="http://www.w3.org/1999/xlink" ffdec:objectType="frame" height="513.9px" width="383.5px" xmlns="http://www.w3.org/2000/svg">
  <g transform="matrix(1.0, 0.0, 0.0, 1.0, 183.4, 511.25)">
    <use ffdec:characterId="218" height="472.45" transform="matrix(1.0, 0.0, 0.0, 1.0, -183.4, -476.85)" width="380.9" xlink:href="#shape0"/>
  </g>
  <defs>
    <g id="shape0" transform="matrix(1.0, 0.0, 0.0, 1.0, 183.4, 476.85)">
      <path d="M72.35 -475.5 Q78.25 -475.5 82.4 -466.95 83.7 -464.2 84.65 -461.0 L85.35 -458.1 Q85.35 -454.8 84.05 -452.95 L86.5 -448.0 Q86.5 -447.1 84.5 -444.35 89.1 -443.0 91.8 -438.1 93.65 -434.7 94.0 -431.35 94.0 -429.0 91.05 -426.1 88.7 -423.8 86.55 -423.25 89.85 -419.55 93.25 -412.25 93.25 -405.6 86.75 -405.6 76.3 -405.6 73.25 -410.5 72.3 -412.1 72.15 -414.0 L72.25 -415.75 Q72.25 -417.3 77.65 -424.4 73.85 -425.95 71.55 -429.35 L70.35 -431.45 Q66.35 -429.35 62.75 -429.35 L60.65 -429.45 Q59.65 -424.45 55.7 -420.1 L69.75 -408.0 Q69.75 -406.25 67.0 -403.1 64.35 -400.1 63.25 -400.1 60.2 -400.1 58.0 -401.85 55.8 -403.6 54.75 -403.6 52.95 -403.6 51.4 -406.7 49.5 -410.5 48.25 -411.35 45.95 -407.85 42.0 -409.1 43.1 -405.95 41.8 -402.55 L41.2 -401.25 Q46.9 -399.65 48.5 -393.35 48.5 -392.35 46.4 -391.6 43.05 -390.4 39.75 -387.1 41.05 -383.7 41.4 -381.45 42.55 -382.1 43.75 -382.1 51.7 -382.1 56.55 -379.55 57.15 -382.1 64.25 -385.1 L67.2 -386.2 68.75 -387.65 Q74.2 -392.35 78.75 -392.35 85.45 -392.35 86.75 -388.45 89.15 -387.85 91.25 -386.1 L91.3 -386.05 91.0 -387.35 92.0 -388.35 Q91.75 -390.45 92.1 -392.6 92.1 -400.75 98.85 -400.75 101.6 -400.75 103.6 -400.0 L111.75 -407.85 Q118.25 -407.85 120.5 -402.1 121.2 -400.3 121.45 -398.1 L121.5 -396.1 Q121.5 -393.15 119.7 -389.55 L123.85 -390.0 Q129.75 -390.0 131.9 -384.8 132.55 -383.2 132.75 -381.2 L132.85 -379.35 Q132.85 -375.1 130.35 -373.3 L130.0 -372.7 Q132.5 -370.65 132.5 -369.75 132.5 -367.15 130.2 -364.9 L129.85 -364.55 Q127.8 -361.55 121.0 -356.15 110.9 -348.1 105.75 -348.1 101.1 -348.1 98.75 -352.4 L97.45 -356.15 Q96.4 -357.2 95.35 -358.6 91.65 -364.6 90.75 -365.1 L90.75 -367.35 100.25 -368.85 103.55 -368.35 103.75 -368.35 Q109.65 -368.35 111.75 -365.35 112.55 -364.25 112.7 -362.75 113.1 -365.05 113.65 -366.9 115.1 -371.45 117.95 -373.5 115.9 -374.35 114.15 -375.75 L113.85 -375.95 Q108.1 -376.4 106.0 -378.1 104.5 -379.35 104.5 -382.6 L104.5 -382.7 Q102.65 -380.5 100.35 -380.5 95.85 -380.5 93.8 -383.3 L94.0 -382.35 Q94.0 -377.1 87.75 -377.1 85.65 -377.1 82.15 -378.7 L80.95 -379.25 79.45 -378.85 Q70.2 -377.85 66.75 -376.6 L65.55 -377.6 65.5 -377.6 61.3 -375.55 Q62.5 -373.7 62.5 -371.6 62.5 -368.15 60.5 -364.85 57.75 -360.35 52.75 -360.35 42.35 -360.35 37.25 -364.1 L35.8 -365.3 Q33.9 -363.1 33.75 -361.6 32.8 -362.35 31.95 -363.25 31.5 -361.45 30.3 -360.1 26.6 -356.0 24.75 -352.6 23.95 -351.25 23.8 -349.6 30.1 -349.35 32.55 -344.05 33.35 -342.3 33.6 -340.15 L33.75 -338.25 Q33.75 -335.5 28.3 -322.85 L28.25 -322.65 Q31.0 -321.55 31.25 -319.1 31.4 -317.7 30.75 -315.8 L30.0 -313.85 Q30.0 -313.15 33.15 -310.15 36.25 -307.1 36.25 -306.0 36.25 -304.75 35.15 -302.05 34.0 -299.35 34.0 -298.1 34.0 -296.15 36.05 -295.15 37.05 -294.7 40.65 -293.8 L41.45 -293.55 Q41.7 -295.2 42.65 -296.7 L44.15 -298.5 41.15 -302.1 Q39.75 -304.3 39.75 -308.0 39.75 -310.35 42.8 -314.35 45.55 -317.9 48.6 -318.75 49.85 -320.5 51.85 -320.5 56.85 -320.5 58.6 -314.0 58.6 -310.3 53.55 -309.8 L54.4 -308.5 Q56.0 -306.2 56.0 -305.5 55.75 -299.95 54.85 -296.45 L54.9 -296.3 Q55.6 -294.45 55.35 -292.35 55.35 -286.5 48.35 -286.5 L47.1 -286.55 Q46.65 -284.75 45.05 -283.0 42.7 -280.5 39.75 -280.5 30.85 -280.5 22.55 -289.25 17.6 -294.45 15.9 -298.8 L13.75 -298.6 Q10.15 -298.6 7.95 -304.55 L7.1 -303.5 Q2.85 -298.3 -0.6 -295.9 -1.9 -294.05 -4.1 -292.0 L-5.5 -290.75 Q-6.15 -283.0 -11.55 -279.15 L-10.5 -278.1 -8.15 -278.5 Q1.05 -278.5 6.5 -273.25 9.7 -270.15 10.5 -267.0 L11.5 -267.5 Q27.85 -275.5 34.25 -275.5 37.9 -275.5 41.3 -272.0 44.25 -269.0 44.25 -267.15 44.25 -261.75 21.7 -249.6 L23.75 -248.9 Q31.45 -246.1 35.75 -243.5 L36.75 -243.15 Q39.0 -242.35 40.25 -242.15 40.3 -246.3 48.25 -251.85 56.15 -257.4 61.75 -257.4 66.35 -257.4 67.5 -254.95 68.15 -253.6 68.0 -251.15 74.3 -250.15 79.6 -247.5 83.45 -245.6 84.9 -243.55 87.3 -245.65 90.75 -245.65 96.9 -245.65 103.0 -242.75 101.95 -243.95 101.25 -245.6 100.5 -247.45 100.15 -249.65 L100.0 -251.65 Q100.0 -254.5 101.75 -257.6 104.35 -262.15 109.25 -262.15 115.7 -262.15 116.7 -253.75 119.45 -252.9 121.25 -250.4 122.25 -258.9 139.25 -258.9 148.9 -258.9 152.5 -254.85 154.35 -252.8 154.25 -250.5 154.25 -247.35 143.75 -243.65 134.6 -240.4 131.25 -240.4 L118.0 -243.9 116.15 -241.35 Q115.15 -240.15 113.25 -240.15 L112.15 -240.2 109.75 -239.9 109.7 -239.9 Q111.85 -238.2 113.75 -235.0 113.75 -233.1 111.75 -231.65 109.75 -230.15 107.25 -230.15 102.35 -230.15 100.0 -232.4 L99.75 -232.65 Q81.95 -222.4 79.25 -222.4 73.6 -222.4 71.3 -224.55 69.75 -223.4 66.25 -223.4 61.6 -223.4 59.4 -225.55 L57.5 -228.4 48.1 -221.25 47.9 -221.05 Q55.15 -219.35 62.3 -214.25 66.25 -211.4 69.0 -208.35 71.5 -205.6 71.5 -204.5 71.15 -201.9 69.75 -199.4 67.0 -194.4 61.75 -194.4 57.2 -194.4 44.0 -203.55 37.4 -208.1 34.3 -210.6 L32.7 -208.45 Q38.6 -206.6 41.0 -198.65 42.55 -193.45 42.25 -188.0 42.25 -185.55 39.85 -181.1 37.15 -176.1 34.25 -174.65 36.85 -170.65 42.05 -169.85 L45.05 -169.25 Q46.25 -168.75 46.25 -167.25 L46.4 -163.0 Q46.45 -159.95 45.75 -157.85 43.7 -151.65 34.75 -151.65 29.5 -151.65 28.4 -152.95 27.95 -154.55 26.75 -155.15 L26.4 -155.6 Q26.0 -155.7 26.0 -154.15 L25.45 -153.55 24.65 -152.7 Q23.25 -151.15 23.25 -150.4 L23.3 -148.7 21.5 -148.9 Q18.6 -148.9 17.75 -150.7 L17.55 -152.0 Q12.5 -149.1 9.35 -149.75 9.1 -149.0 9.1 -147.5 9.1 -145.9 14.6 -132.5 15.1 -131.05 15.85 -129.85 21.7 -128.1 25.9 -123.75 L26.95 -122.6 27.25 -122.4 Q28.45 -121.6 28.75 -120.0 L29.55 -118.6 30.6 -115.9 Q30.6 -115.25 30.1 -114.3 31.3 -115.25 33.35 -115.25 L34.25 -115.2 37.85 -115.5 Q41.35 -115.5 44.05 -111.9 45.1 -112.5 46.35 -112.5 49.45 -112.5 51.45 -110.55 52.95 -112.05 55.15 -113.7 61.65 -118.5 65.85 -118.5 72.2 -118.5 75.05 -114.2 78.3 -111.8 79.1 -106.5 79.1 -105.4 78.7 -104.25 L79.65 -103.95 79.6 -104.5 Q79.6 -106.25 83.35 -109.75 87.35 -113.5 90.35 -113.5 96.65 -113.5 99.1 -109.1 L99.25 -108.8 Q102.85 -111.75 111.35 -111.75 122.2 -111.75 126.4 -107.2 128.6 -104.8 128.6 -101.65 128.6 -96.15 125.35 -93.75 121.0 -90.5 109.35 -90.5 100.55 -90.5 97.9 -92.75 96.85 -93.6 96.55 -95.5 95.0 -94.75 92.85 -94.75 89.1 -94.75 86.25 -96.05 L86.85 -93.5 Q86.85 -87.0 76.85 -87.0 69.3 -87.0 67.35 -90.1 66.75 -91.1 66.75 -92.35 L66.85 -93.5 Q66.85 -95.3 67.55 -97.45 66.05 -97.8 64.9 -98.55 63.3 -97.65 61.85 -97.1 61.55 -91.0 55.85 -91.0 L50.85 -91.65 47.45 -88.05 43.65 -81.25 Q44.2 -80.1 44.35 -78.5 L44.35 -78.45 Q47.7 -77.4 47.85 -74.15 47.95 -72.85 47.45 -69.8 46.95 -66.95 47.1 -65.75 47.45 -63.05 48.35 -60.6 50.1 -59.55 52.3 -58.65 L55.85 -59.0 60.2 -65.45 60.85 -67.25 61.5 -67.3 Q66.2 -73.25 70.35 -73.25 72.2 -73.25 73.6 -72.6 L77.35 -73.0 Q84.1 -73.0 83.85 -68.75 L83.2 -66.7 Q83.75 -65.05 83.85 -63.25 83.85 -59.95 81.1 -57.45 79.9 -56.35 78.4 -55.7 75.6 -53.6 68.05 -50.55 L67.9 -50.5 Q64.45 -48.85 61.05 -47.75 59.25 -45.3 55.6 -46.4 L54.15 -46.15 54.15 -46.05 Q57.05 -45.45 60.0 -42.85 60.85 -40.15 60.85 -37.75 L58.35 -33.7 57.05 -31.5 55.35 -31.5 55.35 -30.75 Q54.9 -30.05 53.3 -29.75 56.6 -25.85 56.6 -25.15 56.6 -21.5 50.35 -20.75 50.85 -17.0 52.35 -9.9 L52.35 -9.8 Q49.85 -8.7 46.9 -6.7 L46.75 -6.6 44.95 -9.15 40.85 -8.75 Q40.0 -8.75 38.75 -9.35 L35.85 -9.15 31.85 -11.55 28.45 -10.85 15.1 -10.0 -7.65 -4.4 Q-12.0 -4.4 -13.15 -10.0 L-13.25 -12.05 Q-14.1 -10.5 -16.15 -10.5 -18.75 -10.5 -23.15 -18.95 L-24.15 -20.95 -25.1 -22.3 -25.55 -23.95 Q-27.15 -27.45 -27.15 -28.75 -27.15 -31.9 -25.35 -34.7 L-24.35 -36.0 -24.6 -36.55 Q-24.9 -37.55 -24.9 -42.5 -24.9 -46.65 -23.1 -51.5 -20.5 -58.65 -15.35 -59.4 -15.25 -61.4 -13.9 -64.5 -12.15 -68.45 -11.65 -71.75 L-11.65 -76.6 -12.5 -79.1 -14.15 -79.0 Q-18.1 -79.0 -19.35 -81.9 L-19.6 -83.4 Q-21.65 -85.55 -24.1 -89.1 L-28.4 -95.75 -29.15 -95.75 Q-31.05 -95.75 -33.35 -97.2 L-37.15 -99.25 Q-37.35 -97.8 -38.1 -96.7 -39.15 -95.1 -41.3 -94.65 L-40.65 -93.85 -39.05 -91.35 -38.6 -90.85 -35.65 -91.25 Q-29.25 -91.25 -28.9 -85.15 -28.9 -84.0 -29.4 -82.85 L-29.4 -82.65 Q-29.4 -79.3 -32.85 -76.25 -37.45 -72.25 -45.65 -72.25 -52.7 -72.25 -56.1 -77.8 -57.2 -79.55 -57.8 -81.7 L-58.05 -83.0 -60.15 -81.05 Q-60.15 -82.6 -59.75 -83.95 L-61.4 -86.25 Q-61.4 -87.7 -59.5 -93.3 -57.75 -98.45 -58.15 -101.25 -57.85 -103.3 -52.65 -108.7 -49.2 -112.3 -47.4 -113.45 L-46.5 -114.35 -46.6 -114.75 -47.05 -117.7 Q-51.15 -118.65 -53.8 -123.8 -55.35 -124.8 -56.2 -127.3 L-58.25 -136.95 Q-59.05 -140.7 -60.35 -143.85 -65.65 -144.55 -71.4 -148.45 -74.0 -150.2 -75.55 -151.75 L-77.15 -151.75 Q-81.35 -151.75 -82.5 -155.0 L-82.75 -158.4 Q-82.75 -160.9 -79.25 -163.0 -75.95 -165.0 -72.65 -165.0 -67.35 -165.0 -65.35 -161.4 -64.35 -159.55 -64.4 -157.5 -62.5 -156.1 -58.8 -152.5 L-58.75 -152.5 Q-57.5 -152.5 -55.95 -153.5 L-54.45 -154.25 Q-56.15 -157.95 -56.15 -159.5 L-55.6 -160.45 -56.15 -161.75 Q-56.15 -165.4 -52.65 -166.25 L-46.75 -166.5 -46.4 -166.5 -41.7 -169.05 Q-41.15 -170.1 -41.15 -171.25 -41.15 -172.5 -42.25 -173.85 -43.4 -175.25 -43.4 -176.5 L-43.4 -176.6 Q-44.65 -173.9 -50.15 -173.9 -59.85 -173.9 -64.1 -183.2 -65.4 -186.1 -66.05 -189.65 L-66.4 -192.75 Q-66.4 -194.0 -59.4 -201.35 -52.6 -208.5 -52.15 -208.5 L-38.15 -207.5 Q-30.4 -207.5 -21.4 -191.25 -21.4 -190.75 -22.25 -189.55 -21.45 -187.45 -22.15 -184.9 -10.05 -182.9 -6.15 -179.6 L-5.5 -181.1 Q-3.4 -185.55 -3.4 -188.65 -3.4 -192.15 -6.15 -195.8 -8.9 -199.45 -8.9 -202.5 -8.9 -204.0 -6.3 -205.9 -3.35 -208.05 -2.4 -212.5 -2.4 -215.7 -2.05 -218.0 -6.4 -218.7 -9.15 -221.0 -14.15 -221.2 -16.1 -225.0 -16.8 -226.25 -17.05 -227.75 L-17.15 -229.15 -17.15 -229.4 -21.55 -230.7 Q-26.05 -231.95 -27.75 -233.3 -31.2 -229.25 -40.15 -229.25 -43.05 -229.25 -43.85 -231.6 L-44.15 -234.25 -41.9 -236.75 Q-39.65 -238.8 -39.65 -239.4 -39.65 -240.65 -40.65 -242.95 -41.65 -245.25 -41.65 -246.5 -41.65 -249.3 -38.1 -253.25 -36.1 -255.5 -34.0 -256.6 -31.85 -258.4 -29.15 -258.75 -30.05 -264.25 -31.7 -266.95 -32.8 -268.8 -32.9 -271.6 L-35.15 -271.25 Q-36.65 -271.25 -37.2 -271.6 L-38.65 -272.5 -38.9 -278.5 Q-40.65 -277.95 -41.6 -275.7 -42.4 -273.75 -44.15 -273.75 -45.3 -273.75 -47.15 -276.5 L-51.4 -276.5 Q-50.65 -271.25 -50.65 -270.25 -50.65 -267.75 -53.35 -264.95 -56.45 -261.75 -60.65 -261.75 -64.3 -261.75 -66.35 -266.75 L-67.65 -272.0 Q-67.65 -273.25 -56.85 -281.25 -48.4 -287.5 -45.4 -288.85 L-45.7 -289.15 Q-48.6 -291.85 -49.8 -294.0 L-50.15 -294.0 Q-51.5 -294.0 -54.1 -295.85 -56.75 -297.75 -57.4 -299.25 -59.45 -295.55 -61.1 -295.5 -64.1 -292.5 -66.15 -292.5 -70.05 -292.5 -70.95 -295.45 -71.45 -297.0 -71.4 -299.5 -73.55 -296.95 -74.6 -294.45 L-75.7 -291.45 Q-76.65 -289.75 -84.15 -289.75 -90.8 -289.75 -94.1 -297.05 -95.8 -300.7 -96.15 -304.5 -96.15 -307.05 -94.85 -308.05 -93.6 -309.05 -91.2 -309.25 L-91.4 -309.75 Q-91.75 -311.4 -90.65 -313.5 -90.65 -314.75 -91.9 -317.4 -93.15 -320.1 -93.15 -321.35 -93.15 -324.95 -91.85 -327.75 -90.0 -331.75 -86.15 -331.75 -86.45 -332.75 -88.85 -334.5 L-92.45 -337.05 Q-93.75 -336.0 -96.5 -336.0 L-97.3 -336.0 -96.65 -334.1 Q-96.65 -326.35 -97.1 -323.25 -98.35 -315.0 -102.65 -315.0 -109.3 -315.0 -109.85 -317.25 -110.15 -318.6 -109.15 -322.5 -109.15 -323.9 -110.9 -328.4 L-111.1 -329.0 Q-116.0 -331.2 -120.15 -337.0 -123.4 -341.5 -124.8 -345.7 L-124.85 -345.75 -126.15 -345.5 Q-129.05 -345.5 -130.1 -347.85 -130.65 -349.0 -130.65 -350.5 L-130.6 -351.25 -132.15 -350.25 -132.3 -350.3 -132.35 -350.25 Q-133.75 -348.75 -135.15 -348.15 L-134.65 -345.25 Q-134.65 -342.55 -135.5 -340.75 -132.25 -338.9 -127.65 -334.5 -124.3 -331.3 -122.4 -329.1 -116.25 -328.35 -115.5 -322.85 -115.9 -316.9 -119.65 -315.6 L-119.05 -315.45 -118.15 -315.5 Q-115.75 -315.5 -113.9 -311.25 L-114.0 -310.25 -114.0 -309.85 Q-114.0 -306.55 -115.65 -304.85 L-116.3 -303.0 Q-111.25 -302.95 -111.25 -299.1 -111.25 -296.6 -113.0 -293.5 L-113.25 -293.1 -113.5 -292.3 -113.35 -292.1 Q-111.9 -290.2 -111.9 -288.75 -111.9 -286.5 -119.15 -284.5 -121.2 -284.5 -122.7 -285.95 -124.9 -286.7 -125.85 -288.5 L-126.4 -291.5 -125.9 -293.7 Q-125.85 -296.0 -124.65 -296.9 L-124.75 -297.6 Q-124.75 -298.55 -122.6 -299.95 -121.9 -301.4 -121.9 -302.0 -121.9 -302.5 -122.5 -303.4 -125.45 -303.95 -126.5 -306.35 -127.2 -307.9 -127.0 -309.75 L-126.85 -310.9 -126.1 -312.6 -125.5 -313.5 -124.45 -314.6 -125.65 -314.5 -125.95 -314.5 -125.25 -315.65 Q-128.25 -316.5 -129.5 -319.05 -130.1 -320.25 -130.25 -321.75 L-130.25 -323.1 -130.2 -323.7 -132.65 -323.25 -142.3 -323.85 -142.6 -321.4 -144.25 -322.0 -145.25 -320.7 -148.3 -316.6 Q-147.75 -315.55 -147.75 -314.1 -147.75 -311.5 -150.5 -309.25 -153.55 -306.75 -158.0 -306.75 -161.05 -306.75 -162.65 -308.25 -167.15 -308.5 -168.1 -310.6 -168.65 -311.8 -168.15 -313.25 -168.15 -317.65 -158.55 -322.25 -153.85 -324.5 -148.9 -325.9 -152.65 -328.3 -152.65 -333.5 -152.65 -335.75 -147.85 -339.0 L-147.4 -339.25 Q-147.9 -340.05 -147.9 -341.35 -147.9 -344.75 -145.85 -348.5 L-145.35 -349.35 -145.3 -349.45 Q-148.3 -350.75 -149.15 -350.75 L-150.25 -350.8 -150.4 -349.5 Q-150.4 -345.75 -152.35 -342.75 -155.3 -338.25 -161.65 -338.25 -175.25 -338.25 -180.6 -347.5 -183.4 -352.3 -183.4 -358.0 -183.4 -359.7 -179.6 -364.0 -174.6 -369.75 -168.15 -369.75 -162.2 -369.75 -157.75 -368.35 -154.6 -370.5 -149.15 -370.5 L-145.1 -370.0 -142.7 -369.55 Q-143.2 -371.35 -143.25 -373.25 L-143.15 -374.35 -144.15 -375.5 Q-144.15 -377.6 -140.1 -380.5 -136.3 -383.25 -134.15 -383.25 -120.9 -383.25 -119.95 -373.6 -119.4 -367.65 -122.4 -362.25 L-122.15 -362.05 -120.45 -360.9 -117.5 -358.8 Q-116.15 -358.15 -115.75 -356.75 -115.4 -355.9 -115.4 -354.85 -115.4 -354.35 -115.7 -353.7 L-114.65 -353.0 Q-109.05 -348.95 -107.35 -346.15 L-106.3 -345.7 Q-103.45 -344.5 -101.8 -343.15 L-100.35 -344.3 Q-103.4 -348.4 -103.4 -352.6 -103.4 -356.65 -102.4 -358.25 -101.15 -360.25 -97.65 -360.25 -91.1 -360.25 -83.35 -351.75 -79.5 -347.5 -76.9 -343.1 L-77.4 -337.1 Q-77.4 -334.25 -80.15 -331.5 L-80.4 -331.25 Q-77.9 -330.7 -76.85 -329.55 -75.9 -328.4 -76.4 -327.25 -76.4 -326.5 -78.0 -325.7 -80.8 -324.4 -82.65 -323.0 -78.15 -316.35 -78.15 -314.75 -78.15 -313.45 -78.55 -311.9 L-77.55 -312.3 Q-74.7 -313.25 -73.15 -313.25 -70.4 -313.25 -65.35 -309.15 L-62.15 -310.25 Q-53.9 -310.25 -50.35 -304.75 -48.5 -301.9 -48.2 -298.3 L-46.9 -298.95 -44.15 -300.0 Q-37.25 -300.0 -34.35 -295.75 -32.65 -293.25 -32.65 -290.1 -32.65 -288.3 -34.8 -286.8 L-34.15 -285.9 Q-32.7 -284.75 -31.4 -283.25 -29.3 -280.85 -28.35 -279.15 L-26.3 -281.25 Q-28.9 -283.15 -28.9 -285.85 -28.9 -288.3 -26.75 -289.9 -25.75 -290.65 -24.4 -291.05 L-24.4 -291.1 Q-24.4 -294.0 -20.6 -302.25 -16.75 -310.65 -16.65 -312.0 -21.4 -311.6 -22.7 -313.8 -23.15 -314.55 -23.15 -316.85 -23.15 -318.6 -21.75 -321.85 L-21.15 -323.35 -24.15 -322.2 -24.15 -322.85 -24.25 -323.75 Q-30.3 -323.85 -32.95 -331.15 L-33.15 -331.7 -34.75 -332.2 Q-35.15 -332.9 -35.15 -333.75 -35.15 -335.45 -34.3 -336.25 L-43.15 -335.5 Q-48.8 -335.5 -50.4 -338.4 -50.9 -339.35 -50.95 -340.5 L-50.9 -341.6 Q-50.9 -348.6 -48.35 -353.25 -44.85 -359.75 -37.15 -359.75 -31.2 -359.75 -25.85 -346.1 -21.75 -345.4 -18.2 -343.15 L-17.5 -344.55 -15.9 -347.1 Q-17.55 -347.7 -19.75 -351.1 -20.9 -352.85 -21.5 -354.35 -30.8 -354.85 -33.85 -361.85 -35.55 -365.65 -35.15 -370.1 -35.15 -372.8 -31.15 -377.6 -26.95 -382.7 -22.35 -383.25 L-22.85 -384.4 Q-23.85 -386.9 -23.9 -389.6 -23.9 -392.3 -20.95 -393.95 -17.15 -396.0 -10.65 -394.35 L-8.6 -394.4 Q-7.9 -394.5 -7.9 -396.1 -7.9 -396.4 -9.65 -398.7 -11.4 -400.95 -11.4 -402.1 -11.4 -411.85 -0.65 -411.85 5.95 -411.85 8.0 -408.35 9.0 -406.75 9.0 -403.1 9.0 -399.1 1.35 -392.65 L-0.95 -390.8 Q1.4 -389.15 2.45 -386.05 L2.6 -386.05 Q3.45 -387.55 6.25 -389.35 10.4 -392.1 13.75 -392.1 17.7 -392.1 20.45 -389.7 L22.5 -390.85 Q24.55 -392.15 29.9 -397.7 31.95 -399.85 33.75 -400.9 L33.25 -402.7 33.2 -403.0 31.3 -404.85 Q27.95 -407.75 26.95 -409.2 25.0 -411.9 25.0 -415.5 25.0 -418.65 37.05 -429.85 L38.45 -431.15 Q36.65 -432.05 34.65 -434.4 33.25 -433.1 31.75 -433.1 29.2 -433.1 28.0 -434.4 25.75 -433.9 22.45 -434.45 21.4 -433.45 20.75 -432.1 20.75 -429.85 19.8 -427.6 17.95 -423.1 13.25 -423.1 L10.25 -423.45 8.75 -423.35 Q2.4 -423.35 0.1 -427.95 -0.6 -429.45 -0.8 -431.2 L-0.9 -432.85 Q-0.9 -439.15 2.0 -443.35 6.8 -450.35 18.75 -450.35 24.25 -450.35 28.75 -446.35 30.6 -444.7 31.55 -443.3 32.6 -444.55 34.75 -445.85 38.4 -448.1 39.75 -448.1 43.2 -448.1 46.0 -446.45 42.8 -449.0 42.0 -450.2 40.75 -451.95 40.75 -456.75 40.75 -463.45 42.8 -468.4 46.25 -476.85 54.75 -476.85 60.4 -476.85 65.6 -474.1 68.65 -475.5 72.35 -475.5 M48.3 -444.6 L49.4 -443.4 49.55 -443.65 48.3 -444.6 M177.25 -371.1 Q186.5 -371.1 191.25 -366.1 194.5 -362.75 194.5 -359.35 186.75 -339.75 177.35 -338.2 L177.35 -336.9 Q177.3 -335.0 176.4 -333.9 L175.5 -333.05 177.5 -327.35 Q181.35 -326.8 182.55 -328.4 183.25 -329.4 183.2 -332.25 183.1 -335.3 183.7 -336.4 184.7 -338.35 188.25 -338.35 194.35 -338.35 196.55 -331.85 197.2 -329.85 197.45 -327.35 L197.5 -325.1 Q197.5 -316.6 174.75 -305.1 172.4 -305.1 166.7 -308.55 153.8 -298.35 150.25 -298.35 149.15 -298.35 142.5 -302.95 L141.85 -303.4 139.75 -303.1 Q138.5 -303.1 135.25 -303.95 L130.75 -304.85 Q128.6 -304.85 123.8 -306.9 L124.25 -304.0 Q124.25 -302.2 123.65 -300.95 L129.25 -296.1 129.25 -295.8 Q137.75 -295.5 140.5 -293.5 141.5 -292.75 141.5 -290.85 L141.05 -287.7 Q144.2 -284.45 146.25 -277.15 146.25 -272.25 140.25 -272.25 137.9 -272.25 133.25 -276.75 L129.75 -280.35 128.75 -280.25 Q127.45 -280.25 122.75 -285.95 L120.95 -288.2 120.05 -285.75 Q118.6 -282.5 116.75 -282.5 115.9 -282.5 114.4 -283.4 111.15 -281.75 103.75 -281.75 L100.75 -282.25 Q100.5 -282.0 100.5 -284.5 L100.5 -284.65 Q99.1 -283.5 96.75 -283.5 93.65 -283.5 91.5 -284.55 88.7 -285.9 83.9 -286.9 78.2 -282.25 76.5 -278.25 L75.55 -275.95 Q75.1 -275.25 73.75 -275.25 68.0 -275.25 65.25 -279.25 63.5 -281.85 63.5 -284.5 63.5 -286.1 67.0 -290.25 70.7 -294.6 72.75 -294.6 78.55 -294.6 82.45 -292.2 L82.7 -292.4 81.8 -293.25 Q79.75 -295.4 79.75 -298.35 79.75 -301.1 82.25 -303.65 84.65 -306.1 87.25 -306.1 94.1 -306.1 97.75 -303.65 100.75 -301.6 100.75 -298.75 100.75 -297.55 98.4 -294.7 L97.6 -293.65 Q99.4 -292.85 100.25 -291.1 101.0 -289.45 101.4 -286.5 102.35 -287.6 104.3 -288.75 106.2 -289.85 107.55 -290.35 107.7 -291.65 109.0 -293.55 L109.0 -294.0 109.05 -295.4 109.5 -296.1 111.45 -296.35 Q112.65 -297.35 113.75 -297.35 L114.1 -297.35 113.75 -297.85 Q111.75 -300.9 111.75 -303.85 111.75 -305.7 112.5 -306.7 L112.5 -306.85 112.6 -307.85 111.75 -307.85 Q103.6 -307.85 99.25 -312.85 96.25 -316.3 96.25 -319.6 96.25 -324.35 100.25 -324.35 109.3 -324.35 113.8 -315.85 114.7 -317.0 116.3 -318.35 L119.35 -320.5 Q118.8 -321.4 118.55 -322.75 118.05 -325.0 118.25 -327.5 L118.35 -328.5 Q115.95 -327.1 114.25 -327.1 109.5 -327.1 107.0 -330.65 105.25 -333.05 105.25 -335.1 105.25 -338.2 108.5 -341.9 112.7 -346.6 119.25 -346.6 122.0 -346.6 124.05 -345.35 125.45 -346.35 126.75 -346.35 131.65 -346.35 134.75 -343.4 L135.15 -343.0 Q134.6 -343.95 134.5 -346.0 133.75 -347.7 133.75 -348.25 133.75 -350.15 136.45 -356.6 L135.25 -358.25 Q134.25 -360.15 134.25 -361.5 134.25 -366.35 141.25 -366.35 144.75 -366.35 147.75 -364.35 150.5 -362.55 150.5 -361.0 L150.3 -359.8 Q151.25 -357.7 151.25 -354.6 L150.65 -353.2 Q150.15 -351.3 147.5 -346.85 L145.7 -344.05 Q142.35 -339.1 139.75 -339.1 138.45 -339.1 136.8 -341.65 L135.8 -342.25 Q137.0 -340.8 137.0 -339.6 L133.35 -335.85 133.55 -335.5 Q135.15 -332.4 135.75 -329.1 135.75 -326.15 131.55 -322.35 L131.4 -322.2 Q135.8 -321.25 140.7 -318.1 144.5 -315.65 145.9 -314.2 145.75 -315.0 145.75 -315.85 145.75 -321.85 151.25 -321.85 L157.15 -321.25 Q157.5 -322.75 158.85 -325.8 L155.75 -325.6 Q149.3 -325.6 147.8 -328.5 147.3 -329.45 147.35 -330.6 L147.5 -331.75 Q147.5 -335.2 160.0 -342.1 L164.55 -344.55 163.25 -346.4 Q161.5 -349.1 160.25 -352.3 159.25 -354.75 159.25 -355.35 159.25 -357.05 165.5 -363.65 172.5 -371.1 177.25 -371.1 M90.1 -328.7 L90.1 -328.35 Q90.1 -323.25 83.85 -323.25 L80.25 -323.75 Q79.5 -322.5 77.75 -321.6 76.15 -320.85 75.0 -320.65 74.8 -318.7 74.0 -317.15 72.6 -314.35 69.75 -314.35 68.75 -314.35 65.75 -315.1 65.25 -319.6 65.25 -322.25 65.25 -324.0 66.5 -325.6 67.9 -327.35 69.75 -327.35 L71.45 -326.9 71.55 -327.1 Q72.7 -328.85 74.35 -329.05 L74.25 -329.6 Q74.25 -332.1 77.0 -336.35 80.45 -341.6 84.75 -341.6 88.1 -341.6 92.25 -332.1 92.25 -330.4 90.1 -328.7 M3.75 -376.1 Q2.1 -377.25 1.65 -379.0 L0.85 -379.0 -2.3 -379.25 -12.15 -368.65 -11.25 -367.8 Q-9.9 -366.4 -9.9 -365.85 -9.9 -364.35 -11.85 -361.6 -9.05 -360.8 -7.05 -358.9 -4.6 -356.55 -4.15 -353.85 1.2 -357.65 8.0 -351.35 L9.0 -350.4 Q8.55 -352.35 8.5 -354.35 8.5 -358.9 13.25 -364.15 18.5 -369.85 25.55 -370.3 L25.5 -370.35 Q20.55 -373.35 21.25 -377.35 L17.55 -379.3 16.15 -377.75 Q13.5 -375.5 8.35 -375.5 5.8 -375.5 4.5 -376.45 L3.75 -376.1 M51.75 -279.25 Q62.2 -279.25 72.5 -271.25 76.45 -268.2 79.05 -264.85 81.5 -261.7 81.5 -260.0 81.5 -257.6 79.5 -255.5 77.6 -253.5 75.75 -253.5 71.35 -253.5 69.7 -255.2 68.95 -256.0 68.15 -258.85 67.5 -261.45 65.8 -262.55 63.25 -264.25 57.25 -264.25 56.0 -264.25 54.75 -263.25 53.5 -262.25 52.25 -262.25 47.9 -262.25 46.55 -265.0 L46.0 -268.0 Q46.0 -268.9 48.5 -274.0 51.05 -279.25 51.75 -279.25 M23.75 -204.15 L24.0 -205.65 23.75 -205.65 22.2 -205.65 22.5 -203.15 Q22.5 -200.4 19.9 -197.7 17.25 -195.0 17.25 -193.0 17.25 -189.7 14.25 -185.2 11.25 -180.7 11.25 -173.65 11.25 -172.45 7.25 -167.6 L7.2 -167.5 7.1 -166.5 7.1 -166.25 12.6 -165.75 Q12.6 -169.1 12.75 -169.55 13.55 -171.9 16.85 -172.2 16.25 -174.15 16.25 -175.15 16.25 -179.65 22.75 -184.3 L27.2 -187.9 Q29.25 -190.1 29.25 -192.65 29.25 -194.1 26.5 -198.7 23.75 -203.25 23.75 -204.15 M99.35 -200.0 Q106.0 -200.0 105.85 -195.9 105.85 -194.55 104.85 -193.25 103.65 -191.75 101.85 -191.75 96.05 -191.75 94.9 -193.65 94.5 -194.3 94.65 -195.1 L94.85 -195.9 Q94.85 -198.4 95.9 -199.25 96.8 -200.0 99.35 -200.0 M153.65 -192.5 Q157.1 -196.75 162.85 -196.75 172.35 -196.75 176.9 -189.5 179.2 -185.9 179.6 -182.0 179.6 -178.35 175.65 -170.0 L175.05 -168.8 174.05 -166.85 173.55 -166.05 173.7 -166.1 Q173.2 -164.7 172.85 -162.95 177.75 -166.25 182.35 -166.25 188.95 -166.25 190.15 -161.65 190.8 -159.3 190.1 -156.75 190.1 -150.6 188.15 -149.2 186.45 -148.05 181.1 -147.65 178.35 -145.0 172.85 -145.0 167.9 -145.0 166.4 -146.8 165.25 -145.85 164.95 -144.25 L163.1 -144.5 163.1 -144.4 Q163.1 -139.5 161.65 -137.5 159.4 -134.5 152.85 -134.5 148.25 -134.5 147.1 -137.6 L146.85 -141.0 Q146.85 -141.95 148.75 -144.75 148.05 -144.95 147.45 -145.25 146.1 -146.0 142.35 -146.0 131.3 -146.0 127.15 -149.0 124.1 -151.15 124.1 -155.75 124.1 -161.75 131.35 -161.75 141.75 -161.75 149.5 -157.45 L149.35 -159.0 Q149.35 -163.6 150.1 -166.45 151.5 -171.9 155.25 -172.8 L155.15 -173.0 151.1 -186.5 Q151.1 -189.35 153.65 -192.5 M127.4 -167.95 Q124.65 -165.75 121.35 -165.75 119.2 -165.75 117.6 -166.65 117.55 -164.35 114.85 -163.2 113.1 -162.5 111.35 -162.5 108.2 -162.5 107.35 -165.25 L107.1 -168.25 Q107.1 -169.45 108.15 -170.45 109.45 -171.75 111.85 -171.75 L114.35 -171.45 113.6 -174.9 Q113.6 -177.45 114.1 -178.25 115.35 -180.25 119.85 -180.25 125.2 -180.25 128.15 -177.0 130.1 -174.75 130.1 -172.9 130.1 -170.15 127.4 -167.95 M99.8 -173.6 Q102.0 -169.85 102.0 -168.5 L101.85 -166.6 102.25 -165.15 Q102.25 -159.9 98.75 -159.9 90.15 -159.9 89.35 -163.35 L87.5 -163.4 Q84.95 -163.4 82.7 -161.4 85.3 -160.0 85.85 -156.15 85.85 -152.9 81.9 -150.5 78.6 -148.5 75.85 -148.5 71.1 -148.5 69.9 -150.7 L69.6 -153.0 Q69.6 -156.25 71.9 -159.0 L72.05 -159.15 Q71.5 -159.6 71.25 -160.25 68.0 -160.8 65.35 -163.5 64.6 -162.25 62.85 -160.75 59.95 -158.25 58.35 -158.25 54.35 -158.25 53.1 -161.9 L52.65 -165.55 Q51.45 -165.95 51.0 -166.65 L52.8 -167.7 Q53.7 -171.25 58.35 -171.25 L60.7 -171.05 61.1 -171.15 Q61.35 -172.4 63.0 -174.35 65.35 -177.15 67.75 -177.15 71.7 -177.15 75.0 -173.75 86.85 -175.8 95.75 -178.4 97.45 -177.6 99.8 -173.6 M99.15 -153.5 Q101.15 -155.75 106.85 -155.75 111.5 -155.75 112.9 -153.5 113.6 -152.35 113.35 -151.25 113.35 -148.35 111.4 -146.0 109.7 -143.95 107.05 -143.3 114.6 -141.9 114.6 -136.25 114.6 -133.75 111.4 -131.0 107.9 -128.0 103.85 -128.0 99.1 -128.0 97.65 -132.6 L97.1 -137.5 Q97.1 -140.9 97.65 -142.0 98.3 -143.4 100.25 -143.65 98.5 -144.4 97.9 -146.0 L97.85 -149.0 Q97.85 -152.05 99.15 -153.5 M83.1 -139.9 Q83.1 -144.75 87.35 -144.75 92.0 -144.75 92.35 -139.0 92.35 -134.5 88.35 -134.5 84.35 -134.5 83.35 -137.05 L83.1 -139.9 M13.4 -102.5 L13.35 -102.15 Q13.35 -96.65 11.35 -91.25 10.4 -88.7 9.15 -86.95 L14.1 -80.15 Q21.35 -69.55 21.35 -61.0 21.35 -58.1 21.0 -55.85 23.55 -56.65 24.8 -57.5 27.45 -59.15 28.0 -62.25 26.6 -63.9 25.6 -67.0 24.1 -71.55 24.1 -75.25 24.1 -78.05 26.15 -81.0 L30.6 -86.4 Q34.4 -91.0 36.0 -96.1 L34.35 -100.0 34.4 -102.6 34.3 -102.75 Q33.5 -104.25 33.15 -105.75 29.8 -105.95 28.9 -107.9 28.65 -108.35 28.65 -109.65 L27.1 -109.0 Q26.65 -109.2 26.55 -109.3 26.4 -109.35 26.4 -110.1 24.95 -109.0 23.85 -109.0 21.25 -109.0 18.05 -110.55 L13.4 -102.5 M66.6 -135.75 Q63.45 -133.75 55.5 -133.75 58.35 -131.95 58.35 -127.0 58.35 -124.5 57.85 -125.0 57.85 -124.5 55.35 -124.5 49.55 -124.5 47.85 -126.95 47.1 -128.05 47.1 -130.75 47.1 -134.5 50.8 -134.7 L49.85 -135.75 49.6 -138.0 Q49.6 -139.75 52.9 -143.2 56.45 -147.0 59.35 -147.0 65.9 -147.0 68.4 -144.7 69.6 -143.55 69.6 -142.15 69.6 -137.6 66.6 -135.75 M-40.15 -321.0 Q-40.15 -325.0 -34.15 -325.0 -27.5 -325.0 -27.65 -320.85 -27.65 -314.5 -35.15 -314.5 -37.6 -314.5 -39.1 -317.6 -40.15 -319.75 -40.15 -321.0 M-99.55 -279.0 L-100.05 -278.0 Q-101.55 -275.4 -104.8 -274.05 L-106.35 -273.55 Q-107.05 -267.6 -113.7 -267.25 -114.25 -262.5 -121.85 -257.5 -125.45 -255.15 -129.15 -253.75 -131.2 -252.15 -134.15 -252.15 L-135.6 -252.15 -139.65 -251.9 Q-147.35 -251.9 -151.1 -258.25 -152.35 -260.3 -152.95 -262.75 L-153.4 -265.0 Q-153.4 -268.1 -150.1 -270.7 -146.2 -273.75 -139.65 -273.75 -135.55 -273.75 -132.3 -270.75 -129.1 -267.75 -128.65 -267.75 -125.9 -267.75 -123.7 -270.35 -122.35 -272.0 -121.1 -272.6 L-121.25 -273.75 Q-121.25 -279.75 -111.0 -279.75 L-109.2 -279.55 -107.4 -281.15 -109.0 -282.75 Q-110.75 -285.0 -110.75 -286.85 L-110.5 -288.65 -111.4 -289.5 Q-108.2 -294.0 -104.15 -294.0 -99.85 -294.0 -98.6 -290.85 L-97.25 -289.5 Q-95.95 -287.9 -95.75 -286.1 -95.75 -279.4 -99.55 -279.0 M-103.4 -248.8 Q-101.25 -246.3 -98.9 -245.05 L-98.6 -243.1 Q-98.2 -241.0 -97.4 -239.2 -96.6 -239.75 -95.5 -239.75 -89.15 -239.75 -88.25 -233.25 -88.25 -230.1 -89.6 -227.4 -85.65 -226.95 -83.85 -224.6 L-83.1 -225.2 -82.4 -223.0 -78.15 -223.25 -74.1 -222.6 -73.85 -223.0 Q-72.85 -224.35 -71.15 -224.65 -71.05 -234.55 -66.75 -234.65 -61.6 -236.9 -54.65 -236.9 -50.8 -236.9 -48.05 -234.85 L-45.95 -232.8 -45.8 -232.65 -45.85 -232.6 Q-45.15 -231.25 -44.9 -229.25 -44.9 -225.4 -46.65 -222.15 -49.05 -217.65 -53.65 -217.65 -56.5 -217.65 -57.8 -219.7 L-59.4 -218.75 -59.4 -218.4 Q-59.4 -217.3 -60.65 -216.05 L-60.65 -214.0 Q-60.65 -211.8 -62.15 -209.9 -63.9 -207.65 -66.65 -207.65 L-67.05 -207.65 -67.4 -207.4 Q-69.05 -206.15 -71.65 -206.15 L-77.95 -206.7 Q-79.25 -206.0 -80.5 -206.0 L-82.0 -206.1 -82.75 -205.5 Q-85.85 -203.0 -89.0 -203.0 L-91.1 -203.2 Q-92.15 -201.45 -92.15 -199.75 -92.15 -195.4 -96.65 -195.4 -99.5 -196.75 -101.4 -198.15 L-97.85 -204.7 Q-99.4 -205.5 -101.1 -208.25 -103.15 -211.5 -103.15 -212.4 L-102.65 -214.65 -100.7 -215.0 -102.65 -221.0 -102.6 -221.75 -104.1 -222.75 Q-108.55 -224.4 -110.15 -227.65 -112.65 -227.4 -114.9 -225.15 -111.65 -221.0 -111.65 -218.0 -111.65 -217.65 -123.15 -209.4 -123.5 -209.4 -131.4 -221.9 -131.4 -223.4 -129.65 -225.7 -127.35 -228.8 -124.15 -228.15 L-124.4 -231.15 Q-124.4 -233.55 -119.35 -239.35 -116.45 -242.75 -113.5 -244.5 L-112.65 -246.15 Q-110.65 -249.15 -106.65 -249.15 L-103.4 -248.8 M-79.0 -103.5 Q-82.0 -103.5 -87.95 -97.75 -93.9 -92.0 -96.5 -92.0 -104.95 -92.0 -107.5 -97.0 -108.5 -98.85 -108.5 -102.65 -108.5 -104.8 -106.8 -106.45 L-107.2 -107.1 -108.0 -110.5 Q-108.0 -114.7 -107.2 -116.45 -105.3 -120.75 -99.0 -120.75 -92.5 -120.75 -90.75 -116.75 -89.85 -114.7 -90.25 -112.25 -90.25 -110.8 -90.65 -109.6 L-90.0 -109.5 Q-87.2 -113.95 -83.8 -118.3 -76.95 -127.0 -73.65 -127.0 -67.35 -127.0 -63.65 -121.65 -61.75 -118.95 -61.15 -116.0 -61.15 -113.75 -65.65 -109.3 -71.5 -103.5 -79.0 -103.5 M-25.15 -128.9 Q-25.7 -125.55 -26.6 -121.75 -28.0 -115.9 -29.95 -112.45 -27.65 -109.25 -25.4 -104.5 -21.9 -104.4 -18.2 -103.2 L-18.45 -104.45 -18.9 -107.9 Q-18.9 -112.75 -15.6 -118.75 L-15.5 -118.9 Q-20.3 -122.1 -24.85 -128.5 L-25.15 -128.9 M-96.5 -175.15 L-96.4 -173.8 Q-96.2 -172.35 -95.5 -171.15 L-95.4 -171.0 Q-95.4 -169.9 -98.2 -167.05 -95.4 -166.0 -92.95 -163.75 -89.25 -160.3 -89.25 -158.0 -89.25 -155.0 -90.7 -154.5 L-96.5 -154.25 -97.05 -154.25 -97.3 -154.0 Q-98.75 -152.4 -100.15 -152.4 -104.9 -152.4 -106.85 -159.15 L-107.9 -165.9 Q-107.9 -174.9 -101.15 -174.9 -98.95 -174.9 -97.6 -174.3 L-97.65 -174.4 -96.5 -175.35 -96.5 -175.15 M-85.0 -126.9 Q-85.0 -124.0 -89.5 -124.0 -92.65 -124.0 -95.95 -127.0 -99.0 -129.85 -99.0 -132.0 -99.0 -137.15 -96.25 -143.0 -92.5 -151.0 -86.0 -151.0 -77.5 -151.0 -78.4 -147.15 -78.4 -140.35 -81.7 -134.45 -85.0 -128.55 -85.0 -126.9" fill="#6b6b6b" fill-rule="evenodd" stroke="none"/>
    </g>
  </defs>
</svg>
