<?xml version="1.0" encoding="UTF-8" standalone="no"?>
<svg xmlns:ffdec="https://www.free-decompiler.com/flash" xmlns:xlink="http://www.w3.org/1999/xlink" ffdec:objectType="frame" height="513.9px" width="383.5px" xmlns="http://www.w3.org/2000/svg">
  <g transform="matrix(1.0, 0.0, 0.0, 1.0, 183.4, 511.25)">
    <use ffdec:characterId="219" height="474.7" transform="matrix(1.0, 0.0, 0.0, 1.0, -181.25, -480.5)" width="379.35" xlink:href="#shape0"/>
  </g>
  <defs>
    <g id="shape0" transform="matrix(1.0, 0.0, 0.0, 1.0, 181.25, 480.5)">
      <path d="M67.6 -477.0 L68.35 -476.3 Q70.05 -477.45 71.6 -477.45 82.8 -477.45 87.05 -468.6 89.2 -464.1 89.2 -458.2 89.2 -454.95 88.6 -453.45 L87.25 -449.85 Q92.3 -449.0 96.45 -444.55 100.5 -440.15 100.5 -437.6 100.5 -435.3 97.0 -431.35 94.85 -428.9 92.45 -427.7 93.6 -425.35 94.25 -421.45 94.25 -417.8 93.3 -415.6 91.75 -411.45 82.95 -411.45 73.2 -411.45 73.2 -421.35 73.2 -424.85 74.05 -426.25 L74.1 -426.9 Q74.1 -427.9 77.2 -431.25 L78.4 -432.5 77.95 -433.05 74.75 -437.95 Q72.55 -436.1 69.4 -436.1 66.05 -436.1 63.8 -437.15 L61.75 -432.25 Q59.15 -426.3 57.25 -423.05 L59.75 -423.15 Q67.6 -423.15 71.05 -418.95 73.05 -416.45 73.05 -413.8 73.05 -411.25 71.7 -408.8 69.5 -404.9 64.85 -404.9 58.2 -404.9 53.55 -409.2 50.25 -412.25 49.55 -415.05 43.35 -414.6 40.75 -410.85 L39.4 -408.95 Q44.7 -407.0 46.8 -397.25 46.8 -395.2 44.2 -390.95 L42.1 -387.65 45.85 -387.8 Q56.8 -387.8 61.0 -381.8 63.2 -378.75 63.2 -374.8 63.2 -369.9 61.5 -368.35 58.6 -365.7 48.45 -365.7 42.5 -365.7 38.5 -367.35 L35.2 -369.2 35.2 -370.15 34.15 -370.5 Q33.5 -368.65 27.3 -362.3 20.5 -355.3 19.35 -355.3 15.15 -355.3 12.45 -357.9 10.35 -360.0 10.35 -362.05 10.35 -364.7 16.2 -371.0 21.65 -376.95 25.7 -377.7 L25.55 -377.85 Q21.45 -383.55 20.85 -386.55 20.1 -384.2 17.65 -381.95 13.65 -378.3 8.05 -378.3 2.85 -378.3 0.6 -380.9 -0.7 -382.45 -0.7 -384.1 -0.7 -387.6 3.0 -391.1 7.25 -395.2 13.25 -395.2 19.9 -395.2 21.15 -389.2 21.85 -390.95 23.95 -393.2 L29.9 -399.6 25.4 -403.7 Q23.75 -405.4 23.75 -407.0 23.75 -408.75 25.45 -409.85 L26.2 -411.25 Q22.45 -414.8 22.45 -418.6 22.45 -421.6 26.85 -429.25 29.65 -434.1 32.05 -436.2 31.2 -437.9 31.2 -439.0 L31.25 -439.8 Q29.85 -437.8 28.45 -437.8 L20.25 -438.3 20.1 -435.85 Q20.1 -432.65 17.35 -429.75 14.1 -426.35 9.05 -426.35 3.3 -426.35 -0.5 -431.9 -3.3 -435.95 -3.3 -438.25 L-2.6 -438.45 -2.65 -439.15 Q-2.65 -441.6 -0.8 -443.3 0.75 -445.45 4.1 -447.8 11.5 -453.0 21.3 -453.0 28.35 -453.0 31.4 -449.15 32.95 -447.15 33.1 -445.0 L33.1 -444.35 34.55 -445.95 Q38.75 -449.7 46.9 -450.15 46.2 -451.15 45.65 -452.5 44.45 -455.45 44.35 -458.75 44.35 -465.05 47.35 -471.35 51.65 -480.5 60.05 -480.5 63.8 -480.5 67.6 -477.0 M7.8 -407.7 Q7.8 -404.1 5.05 -401.25 1.6 -397.65 -4.8 -397.65 -10.8 -397.65 -12.35 -401.9 -12.75 -403.0 -12.75 -406.9 -12.75 -409.25 -9.2 -412.05 -5.2 -415.2 -0.55 -415.2 5.35 -415.2 7.15 -411.55 8.05 -409.7 7.8 -407.7 M116.1 -407.5 Q120.65 -407.5 122.45 -403.4 123.45 -401.2 123.45 -398.6 123.45 -394.15 121.95 -392.95 L121.5 -390.1 124.8 -390.6 Q131.1 -390.6 132.95 -386.05 133.6 -384.45 133.6 -380.75 L133.65 -377.3 Q133.25 -374.55 131.0 -374.55 L129.7 -374.9 129.65 -374.95 129.35 -374.75 Q127.05 -373.1 123.5 -373.1 118.45 -373.1 116.6 -377.2 L115.85 -380.7 115.2 -380.65 Q109.6 -380.65 107.6 -383.75 L106.65 -386.8 106.6 -386.85 106.5 -386.95 105.55 -386.4 Q102.65 -384.75 101.0 -384.75 L99.85 -384.85 97.45 -384.55 Q95.35 -384.55 93.95 -385.2 93.2 -383.2 90.7 -382.95 L78.1 -383.25 Q76.2 -383.25 73.8 -381.85 71.4 -380.5 69.4 -380.5 65.35 -380.5 63.0 -382.1 61.05 -383.4 61.05 -384.9 61.05 -387.8 63.2 -390.25 66.7 -394.25 74.5 -394.25 85.85 -394.25 91.0 -391.25 L91.05 -391.2 91.15 -391.95 Q91.15 -395.2 93.15 -398.45 96.3 -403.6 102.95 -403.6 105.6 -403.6 106.6 -401.65 107.35 -403.05 109.05 -404.55 112.4 -407.5 116.1 -407.5 M187.65 -353.15 Q180.7 -343.3 176.75 -343.3 L173.15 -343.55 173.9 -343.0 Q175.5 -341.6 175.5 -339.9 175.5 -336.3 172.45 -332.8 L173.7 -331.35 175.85 -328.0 175.85 -326.85 Q176.65 -327.5 178.4 -328.35 181.7 -329.95 181.95 -330.85 181.95 -331.95 182.7 -333.75 L183.45 -335.1 183.4 -335.5 Q183.4 -339.7 189.65 -339.7 194.05 -339.7 196.5 -336.3 197.75 -334.55 198.1 -332.75 198.1 -331.05 196.15 -327.45 194.0 -323.55 190.9 -319.9 182.7 -310.2 174.85 -310.2 169.25 -310.2 166.8 -312.7 163.1 -309.6 150.65 -304.3 135.15 -308.35 131.65 -308.7 122.85 -309.65 119.65 -310.7 117.25 -311.45 116.2 -312.8 114.55 -312.85 113.95 -314.05 113.6 -314.7 113.6 -315.5 113.6 -318.0 116.6 -320.55 120.05 -323.45 124.8 -323.45 135.1 -323.45 142.0 -318.45 146.85 -314.9 148.2 -310.85 L148.15 -310.5 149.55 -310.75 148.65 -312.5 Q147.85 -314.4 147.5 -316.4 147.5 -322.15 154.85 -322.15 157.75 -322.15 160.65 -320.55 L160.65 -320.8 Q160.65 -322.3 162.65 -325.9 L164.05 -328.1 160.3 -327.75 Q150.65 -327.75 148.2 -330.5 147.4 -331.4 147.4 -332.6 L147.55 -333.95 Q147.55 -336.5 151.6 -340.7 156.5 -345.75 162.25 -345.75 L167.3 -345.45 Q164.75 -346.8 162.9 -349.1 159.65 -353.05 159.65 -356.85 159.65 -359.75 165.85 -366.0 173.0 -373.25 179.65 -373.25 189.55 -373.25 192.6 -370.05 194.05 -368.5 194.05 -364.75 194.05 -362.2 187.65 -353.15 M135.45 -361.25 Q135.45 -367.5 142.6 -367.5 148.5 -367.5 150.8 -363.9 152.0 -362.1 151.95 -360.25 151.95 -356.6 150.3 -352.3 147.9 -345.9 143.25 -345.9 138.95 -345.9 136.75 -353.45 135.7 -357.25 135.45 -361.25 M130.35 -347.05 Q136.65 -347.05 138.6 -343.85 139.6 -342.25 139.35 -340.55 139.35 -338.0 138.8 -337.4 137.7 -336.2 132.3 -334.6 133.1 -333.25 133.1 -332.4 133.1 -329.75 131.2 -327.4 128.8 -324.45 124.8 -324.45 121.4 -324.45 119.4 -326.35 L117.6 -328.9 117.6 -332.9 Q112.1 -328.9 108.95 -328.9 104.45 -328.9 103.45 -331.75 102.95 -333.15 103.3 -334.75 103.3 -337.45 104.95 -339.6 106.2 -341.25 109.7 -343.95 L110.1 -343.65 111.2 -345.1 Q114.25 -348.35 120.0 -348.35 L126.75 -347.7 Q128.2 -347.05 130.35 -347.05 M128.05 -361.15 Q123.4 -357.1 119.35 -357.1 115.75 -357.1 113.85 -358.55 L113.75 -358.4 Q110.7 -353.6 105.45 -353.6 101.1 -353.6 96.6 -358.85 92.95 -363.1 92.95 -364.25 92.95 -372.15 106.45 -372.15 112.1 -372.15 114.35 -369.3 116.9 -372.6 122.55 -372.6 129.45 -372.6 131.5 -370.25 132.3 -369.3 132.3 -366.85 132.3 -364.85 128.05 -361.15 M90.05 -330.15 Q86.9 -326.95 80.05 -326.95 73.6 -326.95 73.6 -332.65 73.6 -335.2 75.85 -338.95 78.75 -343.8 82.95 -343.8 92.3 -343.8 92.3 -335.9 92.3 -332.45 90.05 -330.15 M96.6 -318.85 Q96.6 -321.9 97.75 -323.15 99.45 -324.95 104.5 -324.95 109.9 -324.95 111.45 -321.2 111.95 -320.0 112.0 -318.6 L111.95 -317.35 Q111.95 -312.5 105.45 -312.5 98.7 -312.5 97.0 -315.45 96.6 -316.15 96.6 -318.85 M98.9 -300.45 Q98.9 -298.0 96.95 -295.9 97.75 -294.85 97.75 -293.3 L97.45 -292.0 Q97.45 -291.7 95.8 -291.7 L92.55 -293.1 88.1 -292.5 Q82.4 -292.5 80.75 -296.2 79.9 -298.05 80.2 -300.05 80.2 -306.8 90.05 -306.8 98.9 -306.8 98.9 -300.45 M116.1 -310.7 Q122.95 -310.7 126.25 -305.25 128.4 -301.7 128.4 -297.95 138.35 -294.55 142.75 -288.05 149.7 -287.8 150.3 -282.25 150.3 -279.85 148.6 -278.05 146.65 -276.0 143.25 -276.0 133.9 -279.55 131.45 -283.55 130.2 -285.55 126.05 -288.15 121.5 -290.75 120.0 -291.85 117.75 -290.15 113.55 -288.0 108.65 -285.5 106.75 -285.5 102.75 -285.5 102.0 -287.65 101.6 -288.7 102.0 -289.85 102.0 -291.9 102.2 -292.3 102.55 -293.15 103.75 -293.6 104.35 -294.45 107.6 -296.7 111.65 -299.5 113.1 -299.75 112.45 -301.8 111.2 -303.65 110.35 -304.95 110.35 -306.3 110.35 -308.3 110.6 -308.75 111.1 -309.6 112.95 -310.35 L113.15 -310.4 113.9 -310.7 114.35 -310.6 116.1 -310.7 M14.2 -353.95 L14.55 -353.55 Q15.6 -354.15 17.4 -354.4 19.35 -354.4 21.4 -353.4 27.15 -353.15 30.05 -348.45 31.65 -345.9 31.95 -343.35 31.95 -339.4 29.7 -332.0 27.9 -326.0 25.75 -323.85 29.85 -322.45 33.45 -316.8 37.3 -310.7 37.3 -307.6 37.3 -304.5 36.6 -300.65 38.3 -299.9 39.7 -298.45 L41.3 -296.5 41.1 -297.7 Q41.1 -299.95 43.9 -303.3 45.05 -304.7 46.1 -305.5 42.2 -305.7 39.8 -309.9 L38.1 -314.45 Q38.1 -316.45 40.9 -321.0 44.1 -326.3 47.15 -326.3 54.05 -326.3 56.85 -321.5 58.25 -319.1 58.25 -316.7 58.25 -314.0 54.4 -309.9 52.4 -307.8 50.5 -306.65 53.85 -306.05 55.5 -302.25 56.55 -299.95 56.65 -297.45 56.65 -290.95 50.65 -290.95 45.5 -290.95 42.8 -294.05 L41.9 -295.3 41.95 -294.8 Q41.95 -292.6 40.1 -290.7 37.7 -288.3 33.25 -288.3 28.05 -288.3 24.75 -290.8 L22.45 -293.4 22.45 -293.85 Q18.85 -297.85 18.85 -300.95 13.9 -301.9 11.25 -304.25 8.6 -306.6 9.25 -309.25 L9.25 -309.55 4.15 -309.1 3.8 -309.1 4.9 -305.65 Q4.9 -301.4 3.4 -295.5 3.0 -293.75 -0.35 -290.15 -3.5 -286.7 -3.5 -285.85 -3.5 -283.7 -0.8 -281.95 0.2 -281.3 5.15 -279.05 11.0 -276.35 12.9 -272.9 14.7 -274.7 18.2 -276.8 25.5 -281.1 30.4 -281.1 37.45 -281.1 41.55 -277.4 44.5 -274.7 44.35 -272.9 L44.2 -272.15 44.2 -271.9 Q44.2 -268.9 39.55 -264.0 34.45 -258.6 29.75 -258.6 L27.95 -258.6 28.35 -256.7 Q28.35 -254.5 27.5 -252.75 L28.75 -252.75 Q35.15 -252.75 40.3 -250.05 42.6 -251.5 46.95 -252.9 L46.8 -253.9 Q46.8 -256.05 49.3 -258.65 52.45 -261.9 57.15 -261.9 L58.5 -261.75 60.05 -261.9 Q66.55 -261.9 69.7 -253.0 L69.55 -251.05 74.2 -251.6 Q79.25 -251.6 83.2 -248.2 85.1 -246.55 86.3 -244.55 L88.8 -246.8 Q93.05 -250.3 96.8 -250.3 98.25 -250.3 100.05 -249.45 L99.85 -249.75 Q98.95 -251.25 98.65 -253.1 L98.55 -254.7 Q98.55 -258.25 100.5 -260.95 103.1 -264.5 108.4 -264.5 114.7 -264.5 117.75 -259.3 L119.1 -256.15 121.65 -259.0 Q125.05 -261.9 129.7 -261.9 135.65 -261.9 138.9 -256.25 L139.7 -256.7 Q142.0 -257.95 144.9 -257.95 152.45 -257.95 152.45 -250.85 152.45 -248.25 150.35 -246.45 147.6 -244.2 141.95 -244.2 L135.95 -244.8 131.95 -244.55 Q124.3 -244.55 120.3 -247.35 L118.7 -248.8 118.4 -248.25 Q116.35 -245.0 110.35 -245.0 L106.8 -245.3 Q107.8 -244.1 107.9 -241.75 107.9 -238.8 105.5 -236.5 102.75 -233.9 98.4 -233.9 94.05 -233.9 91.5 -235.55 L91.0 -235.9 89.55 -234.55 Q82.95 -228.7 77.1 -228.7 71.95 -228.7 69.3 -229.75 L66.45 -229.35 Q60.1 -229.35 56.1 -232.85 L55.15 -233.9 Q54.15 -232.15 52.6 -230.15 50.1 -226.95 47.2 -225.15 58.35 -223.75 64.2 -218.7 68.9 -214.6 68.9 -210.5 68.9 -208.05 66.5 -204.7 63.55 -200.65 59.75 -200.65 54.15 -200.65 41.6 -209.65 L39.7 -211.0 Q38.75 -206.95 37.3 -205.7 38.9 -201.15 39.8 -192.15 39.8 -187.75 38.75 -184.9 37.75 -182.25 35.45 -179.3 L35.35 -176.95 Q45.35 -173.25 45.35 -167.0 45.35 -163.85 41.8 -160.05 37.55 -155.5 31.95 -155.5 31.1 -155.5 29.55 -156.2 L27.15 -156.95 Q26.35 -156.95 25.05 -156.2 23.75 -155.5 22.9 -155.5 22.0 -155.5 21.0 -156.15 L20.65 -156.15 Q18.25 -156.15 16.7 -157.5 18.15 -153.95 18.15 -152.7 18.15 -149.9 14.75 -146.0 L11.3 -141.85 13.25 -138.25 Q15.2 -134.8 15.2 -133.05 L15.15 -131.85 15.55 -131.85 Q23.45 -131.85 27.95 -126.8 30.95 -123.4 30.95 -121.3 30.95 -117.35 27.65 -115.7 26.2 -115.0 13.9 -111.05 L14.5 -109.7 Q15.05 -108.45 15.05 -107.45 15.05 -106.45 12.7 -101.0 10.35 -95.55 10.35 -93.25 L15.45 -78.65 Q20.5 -63.05 20.5 -57.25 20.5 -55.65 19.25 -51.15 L24.65 -50.85 Q25.15 -50.85 29.25 -58.75 L30.05 -60.2 Q28.3 -62.4 27.35 -66.75 L26.35 -75.7 Q26.35 -79.7 29.3 -85.35 32.7 -91.85 37.2 -92.4 L37.4 -92.8 38.95 -96.15 Q33.9 -105.45 33.45 -107.85 L30.4 -108.45 Q28.05 -108.45 26.65 -109.55 25.5 -110.5 25.5 -111.55 25.5 -117.15 35.5 -117.15 41.75 -117.15 50.75 -112.6 53.8 -111.05 55.65 -109.9 L55.65 -110.3 55.85 -112.1 Q55.85 -114.35 57.6 -116.45 59.7 -118.9 63.5 -119.4 65.75 -120.2 67.75 -120.2 76.55 -120.2 77.95 -111.95 77.95 -109.0 75.95 -106.4 76.95 -107.15 78.1 -107.15 80.8 -107.15 82.55 -106.05 L82.55 -106.35 Q82.55 -108.35 85.1 -111.7 88.4 -116.0 92.9 -116.0 96.4 -116.0 98.5 -115.05 L99.55 -116.3 Q101.55 -118.25 103.85 -118.25 108.6 -118.25 117.25 -111.75 125.4 -105.7 125.4 -103.65 125.4 -100.25 122.45 -97.65 118.5 -94.2 110.65 -94.2 106.1 -94.2 96.15 -97.4 L85.6 -100.9 85.8 -98.3 Q85.8 -90.9 77.1 -90.9 70.35 -90.9 68.3 -94.05 67.45 -95.3 67.45 -97.95 67.45 -101.15 69.35 -102.15 L69.85 -103.25 69.4 -103.25 62.65 -103.85 Q62.15 -100.75 59.8 -97.6 56.2 -92.9 50.65 -92.9 L48.55 -93.0 Q48.45 -89.85 47.85 -88.3 47.25 -86.7 45.15 -83.85 48.75 -82.4 49.4 -75.7 49.4 -74.15 47.2 -69.25 L45.2 -65.35 Q47.25 -62.25 49.7 -56.7 L50.5 -57.45 Q50.75 -58.55 52.6 -60.5 L54.4 -60.4 54.5 -60.5 58.6 -63.3 Q58.45 -63.75 58.45 -64.25 58.45 -67.95 61.8 -71.45 66.4 -76.35 75.15 -76.35 82.3 -76.35 84.7 -70.95 85.9 -68.25 85.65 -65.45 85.65 -63.1 83.55 -60.3 81.35 -57.45 78.65 -57.15 77.3 -55.7 75.6 -56.1 72.35 -57.65 70.35 -58.0 68.85 -55.6 65.4 -53.0 60.9 -49.7 56.8 -49.7 54.45 -49.7 51.9 -51.2 L56.15 -39.3 Q56.15 -36.65 54.05 -33.1 51.65 -29.05 48.6 -28.25 50.45 -26.25 50.45 -24.2 50.45 -23.35 49.95 -22.25 49.4 -21.1 49.4 -20.3 L49.1 -17.0 49.8 -16.85 Q49.7 -12.85 48.75 -11.65 46.2 -8.25 36.4 -8.25 L28.35 -9.45 19.45 -10.7 Q17.75 -10.7 14.35 -9.2 11.5 -8.0 9.75 -7.8 9.4 -7.35 8.7 -7.3 L5.85 -7.35 4.25 -7.7 Q0.4 -7.7 -0.05 -6.75 -0.55 -5.8 -2.6 -5.8 -7.65 -5.8 -9.0 -6.8 L-10.8 -9.05 -10.5 -9.4 Q-18.75 -14.4 -21.5 -18.75 -25.15 -24.4 -24.35 -26.5 L-23.3 -28.65 Q-22.6 -30.3 -22.6 -32.55 -26.4 -42.55 -26.4 -44.4 -26.4 -49.2 -25.1 -53.6 -22.7 -61.5 -17.05 -61.5 L-13.35 -61.1 Q-12.95 -60.9 -12.1 -59.7 L-8.6 -65.3 Q-10.1 -66.45 -11.15 -68.65 L-12.6 -73.4 Q-12.6 -75.7 -11.9 -78.75 L-11.05 -81.5 Q-12.1 -82.35 -12.8 -84.05 L-13.05 -85.05 -13.25 -85.5 Q-17.75 -86.55 -23.85 -94.85 L-24.6 -95.85 Q-26.8 -96.55 -28.35 -98.4 -30.15 -100.6 -30.15 -102.75 L-29.85 -104.55 -29.95 -105.05 -29.8 -105.85 -29.3 -105.85 -28.35 -107.15 Q-26.6 -109.1 -24.45 -109.1 -20.85 -109.1 -17.8 -107.25 L-16.4 -111.75 Q-15.1 -115.1 -13.85 -116.2 L-16.0 -126.35 Q-20.2 -128.05 -23.9 -132.4 L-25.6 -134.5 -26.45 -133.35 -26.6 -133.15 -26.4 -129.8 Q-26.4 -124.85 -28.4 -120.25 -30.15 -116.1 -33.05 -114.1 L-32.65 -113.25 Q-31.25 -110.15 -31.25 -108.2 -31.25 -102.05 -38.45 -98.65 L-38.65 -98.3 Q-26.05 -96.9 -26.05 -87.4 -26.05 -83.6 -28.8 -80.3 -32.8 -75.55 -40.95 -75.55 -46.2 -75.55 -48.8 -77.7 -50.55 -79.15 -50.75 -81.0 -57.45 -79.9 -59.35 -85.35 -59.95 -87.1 -59.95 -91.8 -59.95 -100.1 -56.35 -106.3 -53.15 -111.75 -46.15 -117.4 -48.5 -119.0 -50.1 -122.55 L-52.9 -131.7 -52.9 -135.75 Q-61.25 -141.9 -61.25 -149.7 L-61.15 -153.35 -61.75 -152.5 Q-63.15 -150.7 -64.85 -150.7 -79.8 -150.7 -79.8 -160.85 -79.8 -167.45 -73.2 -167.45 -66.85 -167.45 -63.05 -161.65 -61.5 -159.3 -60.75 -156.85 -59.1 -168.1 -51.4 -168.85 -48.1 -170.65 -44.45 -171.0 L-43.2 -171.7 Q-39.1 -173.7 -38.85 -174.6 L-38.95 -178.45 Q-41.45 -177.25 -43.55 -177.25 -46.6 -177.25 -50.25 -178.65 L-52.0 -179.35 -53.0 -178.35 Q-55.85 -175.45 -57.7 -175.45 -60.55 -175.45 -62.8 -177.25 -66.85 -177.6 -68.3 -182.35 L-68.95 -187.65 Q-68.95 -190.6 -67.4 -193.3 -65.7 -196.4 -62.7 -197.1 L-62.85 -197.8 -63.05 -201.45 Q-63.05 -204.25 -60.45 -207.2 -57.0 -211.15 -51.25 -211.15 L-50.1 -211.1 -48.65 -211.15 Q-44.55 -211.15 -41.75 -207.6 L-40.2 -205.35 -37.05 -205.55 Q-30.85 -205.55 -28.0 -198.3 -26.65 -194.9 -26.4 -191.25 -26.0 -189.8 -25.75 -187.6 L-25.1 -188.25 -25.25 -186.8 Q-22.35 -189.85 -19.35 -189.85 -10.5 -189.85 -5.3 -184.2 -3.5 -182.25 -2.5 -180.3 L-1.15 -184.15 Q0.35 -187.55 0.35 -188.45 -2.3 -190.5 -4.95 -193.2 -10.3 -198.6 -10.3 -202.55 -10.3 -205.05 -8.0 -207.5 -5.0 -210.75 -0.05 -209.5 -1.3 -210.35 -2.05 -212.7 -2.65 -214.45 -2.65 -215.6 -2.65 -218.4 -2.25 -219.25 L-1.85 -219.85 Q-8.3 -221.0 -12.4 -227.1 -15.2 -231.25 -15.75 -234.5 L-17.05 -234.55 Q-21.05 -234.55 -23.1 -235.8 L-25.0 -237.2 -28.85 -237.15 Q-33.0 -231.95 -36.7 -231.95 -42.1 -231.95 -43.6 -234.65 -44.1 -235.5 -44.1 -236.55 L-44.05 -237.55 Q-44.05 -239.4 -43.35 -241.6 -42.2 -245.35 -39.65 -245.35 L-39.45 -245.35 -40.15 -247.35 -40.8 -251.35 Q-40.8 -253.95 -39.0 -256.0 -36.45 -258.85 -31.25 -258.85 -28.85 -258.85 -27.1 -258.05 L-27.2 -258.8 -27.3 -263.8 Q-29.55 -266.0 -38.0 -280.2 L-37.9 -282.3 Q-40.6 -278.9 -43.2 -278.9 -46.25 -278.9 -49.25 -279.85 -50.45 -280.2 -51.1 -280.5 -51.15 -275.4 -51.6 -273.55 -53.0 -267.95 -58.0 -267.95 -64.2 -267.95 -65.85 -271.8 -66.4 -273.05 -66.45 -274.6 L-66.35 -276.15 Q-66.35 -279.35 -65.0 -281.95 -63.2 -285.5 -59.65 -285.5 -55.8 -285.5 -53.1 -283.5 L-51.45 -281.95 Q-50.45 -283.75 -47.7 -284.2 L-49.35 -288.9 Q-49.8 -290.1 -49.8 -292.0 -49.8 -294.6 -48.65 -296.8 -46.75 -300.55 -42.25 -300.55 -36.6 -300.55 -34.2 -297.3 -32.75 -295.35 -32.75 -293.0 -32.75 -290.75 -35.9 -285.3 L-36.45 -284.4 -34.2 -284.7 Q-32.0 -284.7 -27.7 -281.4 -26.4 -291.1 -20.95 -296.35 -18.3 -298.9 -17.55 -300.2 -16.1 -302.75 -16.1 -306.95 -16.1 -307.95 -18.05 -311.6 -18.05 -312.9 -16.75 -315.5 L-16.55 -315.65 Q-20.95 -314.55 -22.2 -318.5 -22.6 -319.75 -22.6 -323.2 L-22.5 -324.45 Q-25.65 -325.65 -27.75 -328.65 -28.8 -330.2 -29.65 -332.3 L-30.45 -334.5 -30.45 -336.7 -36.15 -340.05 -39.0 -339.2 -41.9 -338.4 Q-46.15 -338.4 -48.95 -343.65 L-50.95 -349.05 Q-50.95 -352.5 -48.45 -355.3 -44.55 -359.7 -35.8 -359.7 -29.9 -359.7 -26.7 -355.65 -25.05 -353.55 -24.3 -351.0 -23.45 -349.7 -18.45 -347.55 -19.5 -348.9 -20.4 -350.75 L-22.9 -355.7 Q-24.45 -358.2 -26.4 -358.9 -33.0 -361.35 -35.75 -364.7 -37.65 -367.05 -38.05 -370.35 -39.0 -372.1 -39.0 -375.45 -39.0 -378.95 -37.2 -380.5 -34.2 -383.1 -25.4 -383.1 L-23.35 -382.75 -23.85 -383.8 Q-24.5 -385.6 -24.45 -387.55 -24.45 -390.55 -22.75 -393.55 -20.35 -397.8 -15.85 -397.8 -8.05 -397.8 -4.6 -394.75 -2.85 -393.2 -2.65 -391.55 -2.65 -385.2 -3.9 -382.8 -5.9 -378.9 -12.8 -375.55 -11.25 -374.2 -11.1 -373.35 -8.85 -371.8 -5.6 -365.85 L-1.7 -358.25 2.6 -358.4 Q6.1 -358.4 8.35 -356.75 12.0 -356.4 14.2 -353.95 M74.25 -322.5 L75.35 -321.6 Q75.3 -320.0 74.3 -318.65 73.0 -316.95 70.7 -316.95 66.15 -316.95 64.7 -320.2 63.95 -321.85 64.1 -323.65 64.1 -325.35 65.85 -327.0 67.55 -328.65 69.4 -328.65 71.1 -328.65 72.4 -327.45 L72.45 -327.35 Q74.25 -326.1 74.25 -323.0 L74.25 -322.5 M67.1 -275.9 Q72.7 -275.9 76.8 -270.5 80.05 -266.3 80.05 -263.7 80.05 -261.35 79.55 -260.35 78.25 -257.95 73.85 -257.95 70.55 -257.95 65.0 -264.0 L61.65 -267.75 Q58.55 -266.0 51.35 -266.0 49.15 -266.0 48.1 -269.7 L47.45 -273.6 Q47.45 -277.35 48.1 -278.4 49.8 -281.2 56.5 -281.2 62.2 -281.2 63.7 -277.8 64.2 -276.7 64.25 -275.45 L67.1 -275.9 M75.8 -295.9 Q80.05 -295.9 81.5 -292.05 82.25 -290.15 82.15 -288.05 82.15 -285.65 78.95 -281.2 75.35 -276.3 72.25 -276.3 67.6 -276.3 66.05 -280.4 65.25 -282.45 65.35 -284.7 65.35 -287.8 67.5 -291.2 70.45 -295.9 75.8 -295.9 M20.1 -208.4 Q16.65 -203.95 16.0 -201.8 17.25 -198.15 14.55 -188.7 14.55 -188.05 16.3 -187.1 17.85 -186.35 18.85 -184.95 21.1 -187.25 23.55 -187.25 L29.25 -186.55 Q28.3 -187.5 27.55 -189.35 L26.5 -193.25 Q28.1 -200.25 28.1 -201.9 L21.05 -209.7 20.1 -208.4 M98.75 -201.3 Q103.6 -201.3 105.95 -197.35 105.95 -196.1 105.0 -195.15 103.95 -194.1 102.3 -194.1 98.2 -194.1 96.8 -196.55 L96.15 -199.2 Q96.15 -200.45 97.35 -201.0 L98.75 -201.3 M154.3 -189.3 Q154.3 -190.05 156.3 -192.45 L157.9 -194.15 157.9 -194.45 158.9 -194.95 159.35 -195.15 159.45 -195.15 162.25 -195.6 Q172.2 -195.6 176.15 -191.3 178.25 -189.0 178.25 -186.05 178.25 -180.65 176.4 -175.4 174.4 -169.9 171.05 -168.05 L170.45 -167.1 170.3 -166.95 172.85 -166.8 Q174.5 -167.6 176.6 -168.0 L177.7 -168.25 178.15 -168.2 181.3 -168.4 Q187.45 -168.4 189.3 -164.4 190.25 -162.4 189.95 -160.3 L189.9 -158.8 190.45 -158.75 189.65 -157.25 189.4 -156.5 189.5 -156.45 188.95 -155.6 Q185.0 -149.7 176.75 -149.7 172.95 -149.7 168.35 -152.85 L166.35 -154.35 165.7 -151.6 Q165.0 -149.55 164.2 -148.75 L163.85 -148.8 162.8 -146.45 Q159.9 -141.35 153.5 -141.35 147.55 -141.35 146.15 -145.5 145.25 -148.2 146.2 -150.55 L146.2 -150.7 138.7 -150.05 Q124.3 -150.05 124.3 -156.6 124.3 -158.95 125.25 -161.5 126.75 -165.65 130.0 -165.65 L130.9 -165.6 Q133.55 -166.9 136.45 -166.3 144.15 -165.85 150.0 -161.85 L150.5 -161.5 149.8 -162.3 Q148.85 -163.35 148.85 -164.5 148.85 -172.8 155.3 -176.2 154.6 -177.55 154.1 -179.7 L153.25 -185.4 Q153.25 -186.2 153.8 -187.35 154.3 -188.45 154.3 -189.3 M129.2 -175.05 Q129.2 -173.25 125.25 -171.15 120.25 -168.55 112.8 -168.55 109.8 -168.55 109.2 -170.3 L109.2 -172.2 Q109.2 -177.25 113.6 -177.25 115.2 -177.25 116.75 -176.05 116.5 -177.6 118.05 -179.3 119.85 -181.3 122.55 -181.3 128.85 -181.3 129.2 -175.05 M99.35 -175.35 Q100.4 -173.85 100.5 -172.2 100.5 -167.4 100.2 -166.1 99.1 -161.65 94.85 -161.65 89.8 -161.65 85.1 -166.4 L82.75 -168.95 Q81.5 -166.95 78.65 -166.55 80.95 -165.85 82.5 -163.9 84.2 -161.75 84.2 -160.05 84.2 -158.35 83.2 -156.6 81.8 -154.0 79.05 -154.0 L78.9 -154.0 78.9 -153.8 Q79.4 -153.35 77.75 -153.35 74.25 -153.35 72.9 -154.85 69.15 -156.25 69.15 -159.8 69.15 -162.25 70.6 -164.3 71.8 -165.95 73.55 -166.55 71.05 -166.8 69.65 -167.35 68.25 -168.25 67.45 -168.25 L65.3 -164.95 Q62.85 -162.3 59.1 -162.3 55.45 -162.3 54.7 -164.05 L54.7 -165.95 Q54.7 -166.3 56.0 -168.85 57.7 -172.2 59.65 -174.7 65.7 -182.55 71.8 -179.25 79.8 -179.35 82.5 -176.95 L83.4 -175.7 83.85 -176.1 Q87.0 -178.4 92.55 -178.4 97.3 -178.4 99.35 -175.35 M100.05 -155.8 Q102.15 -157.1 108.05 -157.1 113.2 -157.1 112.7 -152.55 112.7 -149.9 110.35 -148.1 108.95 -147.0 107.25 -146.55 110.4 -145.9 111.8 -143.8 112.85 -142.2 112.7 -140.45 112.7 -137.45 110.7 -134.85 108.35 -131.85 104.8 -131.85 98.25 -131.85 98.25 -139.7 98.25 -141.75 98.9 -143.5 99.95 -146.25 102.3 -146.8 100.8 -147.5 99.75 -149.05 98.4 -150.95 98.4 -152.25 98.4 -154.8 100.05 -155.8 M86.15 -146.65 Q90.2 -146.65 91.9 -142.75 91.9 -137.1 89.05 -137.1 84.25 -137.1 83.15 -140.1 L82.95 -143.3 Q82.95 -144.6 84.05 -145.65 85.05 -146.65 86.15 -146.65 M11.65 -177.6 L8.65 -173.2 Q6.95 -170.8 4.5 -169.45 7.75 -167.4 13.6 -162.65 L14.55 -161.6 Q14.4 -162.35 14.4 -163.1 L14.45 -164.3 Q12.1 -168.15 12.1 -169.45 12.1 -171.7 13.4 -175.2 L11.65 -177.6 M65.0 -140.0 Q64.15 -139.35 59.55 -136.8 L60.05 -135.7 Q60.4 -135.1 60.4 -134.2 60.4 -127.45 54.55 -127.45 49.85 -127.45 47.5 -129.55 45.85 -131.0 45.85 -132.55 L47.15 -140.3 Q47.15 -142.55 50.25 -145.2 53.75 -148.25 58.1 -148.25 64.05 -148.25 66.0 -145.9 67.0 -144.7 66.8 -143.45 66.8 -141.45 65.0 -140.0 M74.35 -104.7 L74.4 -104.75 74.35 -104.7 M-66.85 -311.15 L-65.2 -313.3 Q-62.6 -316.15 -59.95 -316.15 -53.65 -316.15 -51.15 -310.7 -49.8 -307.7 -49.8 -303.95 -49.55 -301.65 -49.8 -300.55 -50.2 -298.6 -52.8 -298.6 -57.35 -300.05 -59.0 -300.05 -62.4 -294.6 -68.3 -294.6 -73.15 -294.6 -74.75 -297.75 L-75.4 -301.1 -75.35 -302.3 Q-78.55 -300.6 -79.45 -299.75 -80.0 -299.25 -80.35 -297.75 L-81.0 -295.0 Q-82.15 -291.55 -86.05 -291.55 -94.2 -291.55 -98.3 -297.0 -101.05 -300.65 -101.05 -304.3 -101.05 -305.8 -98.7 -308.9 L-98.35 -309.35 -98.45 -309.8 Q-98.45 -311.75 -94.3 -313.3 -91.05 -314.5 -88.65 -314.6 L-86.05 -314.85 -85.9 -314.85 Q-87.8 -315.2 -89.95 -316.65 -92.7 -318.55 -93.2 -320.4 L-93.8 -321.05 Q-95.95 -323.55 -95.95 -325.15 -95.95 -331.35 -91.55 -331.35 -82.55 -331.35 -82.55 -326.4 L-82.8 -324.7 Q-80.75 -323.95 -81.25 -320.95 -81.25 -319.1 -81.6 -317.8 L-81.4 -316.95 Q-81.4 -314.9 -84.4 -314.75 -82.2 -314.5 -79.65 -313.6 L-78.95 -313.95 -75.45 -314.6 Q-71.8 -314.6 -68.5 -312.4 L-66.85 -311.15 M-34.1 -326.25 Q-29.9 -326.25 -29.65 -322.55 -29.65 -320.55 -31.4 -318.45 -33.35 -316.15 -35.75 -316.15 -38.2 -316.15 -39.15 -318.95 -39.65 -320.35 -39.65 -321.85 -39.65 -324.5 -38.8 -325.3 -37.8 -326.25 -34.1 -326.25 M-107.45 -362.95 Q-105.65 -364.75 -102.85 -364.75 -93.75 -364.75 -86.8 -353.15 -84.4 -349.1 -82.75 -344.5 -81.4 -340.65 -81.4 -339.15 -81.4 -337.25 -83.05 -334.75 -84.75 -332.15 -86.35 -332.15 -87.45 -332.15 -88.75 -333.2 L-91.05 -334.75 Q-94.15 -335.85 -96.95 -336.2 L-97.35 -334.75 Q-97.35 -333.95 -96.7 -333.9 -96.05 -333.9 -96.05 -333.05 -96.05 -330.9 -97.3 -328.45 -98.95 -325.25 -101.55 -325.25 -107.25 -325.25 -108.45 -330.9 L-109.0 -335.25 Q-109.25 -337.5 -109.9 -338.15 -111.65 -339.9 -114.7 -343.9 L-116.1 -344.5 -116.1 -343.95 -116.75 -343.8 -116.8 -344.85 -117.15 -345.0 Q-120.1 -346.4 -122.2 -346.4 -131.1 -346.4 -132.65 -351.35 -134.35 -349.8 -135.8 -349.3 -137.0 -346.05 -137.0 -344.6 L-136.35 -343.65 Q-133.4 -342.65 -119.9 -334.35 L-119.65 -334.2 -118.6 -334.25 Q-115.6 -334.25 -115.1 -328.6 L-115.1 -328.05 Q-113.65 -324.75 -113.65 -322.55 -113.65 -315.4 -120.25 -315.4 -124.3 -315.4 -126.75 -320.05 -128.05 -322.5 -128.35 -324.45 -129.7 -325.15 -131.15 -326.65 -132.7 -325.25 -136.1 -325.25 -140.0 -325.25 -142.05 -327.2 L-142.65 -326.85 Q-144.3 -325.95 -146.3 -325.9 L-145.85 -325.15 -145.25 -324.95 -145.7 -324.75 -145.6 -323.65 Q-145.6 -321.65 -145.9 -321.2 -146.45 -320.4 -148.3 -320.25 L-148.9 -319.45 Q-149.55 -318.9 -149.55 -318.1 -149.55 -317.2 -148.9 -316.65 -148.2 -316.1 -148.2 -315.65 L-148.35 -315.1 Q-147.8 -314.5 -147.05 -314.1 -150.5 -308.05 -155.1 -308.05 -161.6 -308.05 -164.45 -311.7 -166.05 -313.8 -166.05 -315.85 -166.05 -317.65 -159.0 -321.5 -152.2 -325.25 -148.9 -325.4 L-147.8 -326.0 Q-151.3 -326.65 -153.15 -330.7 L-154.45 -335.55 Q-154.45 -337.95 -154.25 -338.5 -153.8 -339.85 -152.15 -340.4 L-152.35 -341.75 Q-152.35 -343.3 -150.65 -344.95 L-147.55 -347.5 Q-150.3 -351.7 -151.55 -354.2 L-151.5 -353.45 Q-151.5 -349.8 -153.95 -345.75 -157.9 -339.25 -166.05 -339.25 -176.5 -339.25 -179.85 -346.7 -181.55 -350.5 -181.2 -354.9 -181.2 -358.4 -180.45 -360.1 -179.3 -362.9 -175.4 -365.25 -173.85 -366.2 -156.05 -370.65 L-141.85 -370.0 Q-142.75 -371.1 -143.6 -373.05 -145.1 -376.45 -145.1 -377.6 -145.1 -379.95 -142.65 -383.1 -139.75 -386.85 -136.1 -386.85 -129.75 -386.85 -126.7 -382.0 -124.8 -378.9 -124.8 -375.7 -124.8 -374.25 -123.45 -370.85 -122.4 -368.25 -121.5 -367.15 -117.95 -366.6 -115.35 -362.95 -113.75 -360.75 -112.5 -357.65 L-112.5 -357.6 Q-110.7 -356.3 -110.9 -352.8 L-110.95 -351.85 -109.65 -351.45 Q-107.45 -350.65 -106.85 -350.85 L-108.35 -353.5 -109.6 -356.45 Q-109.6 -357.7 -109.0 -358.35 L-109.1 -359.4 Q-109.1 -361.4 -107.45 -362.95 M-121.85 -314.2 Q-120.8 -314.75 -119.9 -314.75 -117.0 -314.75 -115.95 -311.3 -115.95 -308.05 -119.25 -308.05 -121.3 -308.05 -122.5 -309.9 -123.35 -311.2 -123.35 -312.1 -123.35 -313.45 -121.85 -314.2 M-111.05 -299.15 Q-111.05 -290.55 -117.4 -290.55 -121.25 -290.55 -123.0 -293.8 L-124.0 -297.2 Q-124.0 -303.95 -117.0 -303.95 -114.1 -303.95 -112.35 -301.85 -111.05 -300.35 -111.05 -299.15 M-98.95 -284.1 Q-101.45 -278.4 -104.5 -278.4 -110.4 -278.4 -110.4 -282.05 -110.4 -286.0 -109.6 -289.9 -108.2 -296.55 -105.05 -296.55 -98.0 -296.55 -96.85 -291.6 -96.85 -288.8 -98.95 -284.1 M-108.95 -276.3 Q-108.95 -275.35 -114.8 -268.75 L-114.95 -268.7 -114.9 -268.25 Q-132.9 -254.45 -139.9 -254.45 -145.7 -254.45 -148.6 -258.9 -150.4 -261.7 -150.4 -264.05 -150.4 -267.05 -148.8 -269.1 -147.45 -270.9 -143.5 -273.55 L-142.6 -273.35 -142.35 -272.75 -137.0 -273.3 Q-135.05 -273.3 -125.45 -268.75 L-124.3 -268.9 -123.8 -269.4 -123.0 -270.2 Q-124.2 -272.05 -124.2 -273.8 -124.2 -276.1 -122.65 -277.9 -120.45 -280.55 -115.75 -280.55 -111.0 -280.55 -108.95 -276.3 M-108.6 -251.3 Q-104.35 -251.3 -101.05 -246.95 -99.75 -245.2 -99.0 -243.45 L-98.05 -243.55 Q-93.65 -243.55 -89.95 -235.85 -89.95 -233.15 -91.05 -230.95 -92.05 -229.05 -93.65 -228.25 L-92.5 -227.35 -91.65 -226.55 -90.9 -226.6 Q-84.35 -226.6 -82.7 -222.45 L-74.65 -223.25 -75.0 -230.15 Q-75.0 -231.5 -72.25 -235.05 -69.65 -238.35 -68.25 -238.65 -64.25 -241.75 -60.95 -241.75 -51.75 -241.75 -48.85 -236.45 -47.35 -233.75 -47.7 -230.7 -48.15 -222.45 -52.55 -222.45 L-57.1 -222.85 Q-57.95 -223.45 -59.3 -224.05 -59.55 -219.75 -61.4 -216.4 -64.9 -210.15 -73.35 -209.85 L-73.65 -209.7 Q-77.4 -207.75 -83.5 -207.75 -87.7 -207.75 -90.25 -209.55 L-90.4 -205.1 Q-91.0 -200.65 -93.5 -200.65 -99.1 -200.65 -100.9 -203.55 -101.45 -204.5 -101.55 -205.6 L-101.55 -206.5 Q-101.55 -208.75 -99.9 -211.25 -97.7 -214.7 -93.85 -214.7 L-93.1 -214.65 -92.95 -215.0 Q-94.45 -215.65 -95.75 -216.8 L-96.65 -217.65 Q-99.55 -217.75 -101.05 -221.25 -102.05 -223.55 -102.05 -225.2 L-101.85 -226.2 Q-103.8 -226.45 -106.4 -227.75 -109.6 -229.35 -113.15 -229.35 L-113.35 -229.35 Q-113.45 -225.65 -114.5 -222.45 -116.45 -216.35 -121.2 -216.35 -131.2 -216.35 -131.2 -224.95 -131.2 -226.15 -129.95 -228.05 -129.05 -229.4 -128.05 -229.95 L-128.05 -230.3 Q-128.05 -234.15 -124.75 -236.65 -122.95 -238.0 -118.75 -240.15 L-118.8 -241.45 Q-118.8 -244.95 -117.95 -246.15 -117.15 -247.3 -114.9 -248.25 -112.35 -251.3 -108.6 -251.3 M-61.55 -123.85 Q-60.1 -121.2 -60.1 -118.85 -60.1 -116.3 -66.5 -111.25 -72.75 -106.4 -75.8 -106.0 -82.95 -105.1 -86.65 -99.65 -88.6 -96.8 -89.35 -96.1 -91.05 -94.55 -93.85 -94.55 L-97.0 -94.9 -98.4 -94.85 Q-103.45 -94.85 -103.65 -100.5 L-103.45 -101.8 -104.65 -103.65 -103.15 -104.05 -102.85 -106.35 Q-105.15 -110.9 -105.15 -112.0 -105.15 -115.65 -104.15 -117.3 -102.2 -120.55 -96.1 -120.55 -91.65 -120.55 -89.7 -116.75 L-88.2 -114.2 Q-87.1 -113.0 -85.2 -113.0 -84.85 -113.0 -83.5 -114.95 -81.55 -120.75 -79.4 -123.55 -75.7 -128.45 -69.6 -128.45 -64.1 -128.45 -61.55 -123.85 M-78.8 -141.8 Q-80.3 -139.65 -82.15 -139.1 -82.65 -136.45 -85.45 -131.7 -89.6 -124.7 -93.85 -124.7 -99.3 -124.7 -100.9 -129.5 -101.4 -131.0 -101.45 -132.8 L-101.4 -134.45 Q-101.4 -136.55 -98.55 -140.55 -96.8 -143.0 -94.8 -144.25 L-94.95 -144.65 -95.15 -147.2 Q-95.15 -149.5 -94.3 -150.55 -92.7 -152.5 -87.65 -152.5 -77.1 -152.5 -77.1 -145.9 -77.1 -144.15 -78.8 -141.8 M-106.8 -171.0 Q-106.15 -173.3 -102.55 -173.3 -99.0 -173.3 -97.2 -171.65 L-96.05 -170.45 -92.75 -168.95 -91.15 -168.15 -89.95 -168.25 Q-83.35 -168.25 -83.35 -164.75 -83.35 -162.7 -85.2 -159.35 -87.35 -155.5 -89.6 -155.5 -100.6 -155.5 -104.8 -161.3 -106.15 -163.15 -106.6 -165.45 L-106.85 -167.6 -106.8 -171.0" fill="#6d6d6d" fill-rule="evenodd" stroke="none"/>
    </g>
  </defs>
</svg>
