<?xml version="1.0" encoding="UTF-8" standalone="no"?>
<svg xmlns:ffdec="https://www.free-decompiler.com/flash" xmlns:xlink="http://www.w3.org/1999/xlink" ffdec:objectType="frame" height="513.9px" width="383.5px" xmlns="http://www.w3.org/2000/svg">
  <g transform="matrix(1.0, 0.0, 0.0, 1.0, 183.4, 511.25)">
    <use ffdec:characterId="220" height="475.75" transform="matrix(1.0, 0.0, 0.0, 1.0, -181.35, -483.0)" width="381.45" xlink:href="#shape0"/>
  </g>
  <defs>
    <g id="shape0" transform="matrix(1.0, 0.0, 0.0, 1.0, 181.35, 483.0)">
      <path d="M70.55 -481.4 Q73.1 -479.65 73.35 -477.25 L76.5 -478.65 Q78.35 -479.5 79.85 -479.5 85.95 -479.5 89.9 -472.65 91.85 -469.15 92.6 -465.5 92.6 -460.9 87.3 -453.75 L89.85 -454.25 Q102.85 -454.25 105.1 -443.0 105.1 -440.15 103.55 -437.75 101.15 -434.0 95.85 -434.0 L93.25 -434.05 93.6 -432.1 Q93.6 -431.15 92.4 -429.2 L92.85 -426.75 Q92.85 -415.75 86.35 -415.75 83.2 -415.75 80.55 -418.3 76.8 -418.65 75.15 -421.05 L74.1 -424.0 Q74.1 -426.6 74.95 -429.2 L74.35 -430.85 Q74.35 -432.0 77.15 -434.0 78.8 -436.5 81.0 -437.3 79.35 -438.95 79.35 -442.5 L81.2 -446.95 Q76.0 -442.5 70.85 -442.5 65.6 -442.5 61.3 -444.15 L61.35 -443.35 Q61.35 -440.9 58.9 -438.5 L57.85 -437.55 59.1 -435.75 Q60.55 -433.1 60.6 -430.5 60.6 -428.2 59.7 -426.25 L63.85 -426.5 Q70.4 -426.5 72.9 -422.25 74.15 -420.1 74.1 -417.75 74.1 -409.0 62.35 -409.0 54.45 -409.0 51.9 -413.35 51.05 -414.75 50.9 -416.4 L50.85 -418.0 Q50.85 -420.0 51.55 -421.5 L51.35 -421.5 Q49.1 -421.5 47.25 -422.15 44.6 -420.0 39.3 -420.95 L39.35 -419.1 Q39.35 -415.85 37.15 -413.55 34.2 -410.5 28.35 -410.5 21.85 -410.5 19.35 -416.05 18.1 -418.85 18.1 -421.85 18.1 -425.55 23.1 -432.75 26.9 -438.2 30.6 -440.05 L30.6 -440.25 Q30.6 -442.0 31.1 -443.3 L31.1 -443.35 31.35 -443.85 Q32.5 -446.3 35.5 -447.2 L37.9 -448.75 Q44.65 -453.0 46.35 -453.0 L50.45 -452.7 49.55 -454.2 Q48.35 -456.3 48.35 -457.1 48.35 -464.8 51.9 -472.5 56.7 -483.0 65.35 -483.0 68.1 -483.0 70.55 -481.4 M19.35 -456.75 Q25.4 -456.75 27.6 -452.3 28.7 -450.1 28.6 -447.6 28.6 -438.6 15.35 -442.5 16.0 -439.9 15.25 -437.75 13.75 -433.5 6.85 -433.5 -0.05 -433.5 -2.15 -437.9 -2.8 -439.3 -2.9 -441.05 L-2.9 -442.6 Q-2.9 -448.9 2.85 -452.75 8.85 -456.75 19.35 -456.75 M0.8 -404.25 Q-2.75 -403.0 -7.65 -403.0 -12.65 -403.0 -13.9 -405.35 L-14.15 -408.0 Q-14.15 -411.0 -11.4 -414.8 -8.0 -419.5 -3.15 -419.5 1.85 -419.5 4.1 -414.3 L5.35 -408.85 Q5.35 -405.8 0.8 -404.25 M22.8 -402.25 L22.7 -402.45 22.6 -402.85 Q22.6 -408.5 28.85 -408.5 42.35 -408.5 43.9 -401.9 44.35 -399.8 43.6 -397.0 L42.6 -394.0 Q47.0 -390.65 51.95 -390.25 56.6 -389.9 59.35 -387.5 60.95 -386.1 62.3 -383.8 63.85 -381.15 63.85 -379.25 63.85 -376.15 61.1 -373.25 58.05 -370.0 53.85 -370.0 42.95 -370.0 31.6 -378.5 27.25 -381.75 24.35 -385.25 21.6 -388.5 21.6 -390.1 21.6 -391.9 23.2 -393.85 L26.1 -397.25 Q25.65 -398.8 24.05 -400.65 L22.8 -402.25 M92.35 -397.5 Q92.35 -399.75 94.55 -402.75 97.15 -406.25 100.35 -406.25 105.35 -406.25 106.6 -403.25 L106.7 -402.25 106.9 -402.5 Q112.05 -407.75 115.35 -407.75 126.35 -407.75 126.35 -397.0 126.35 -395.75 121.9 -391.8 117.6 -388.0 116.85 -388.0 108.75 -388.0 104.9 -391.8 L103.9 -392.9 Q102.15 -391.75 99.35 -391.75 93.95 -391.75 92.65 -394.55 92.2 -395.4 92.25 -396.5 L92.35 -397.5 M191.9 -372.55 Q193.2 -370.1 193.35 -367.35 193.35 -362.35 187.6 -355.5 180.9 -347.5 172.85 -347.5 163.55 -347.5 160.9 -352.1 160.05 -353.55 160.0 -355.35 L160.1 -357.0 Q160.1 -363.05 164.65 -369.05 171.1 -377.5 183.35 -377.5 189.25 -377.5 191.9 -372.55 M189.65 -322.8 Q179.25 -313.75 173.35 -313.75 167.2 -313.75 165.65 -317.6 164.9 -319.55 165.35 -321.75 165.35 -324.15 171.55 -326.55 179.45 -329.55 181.35 -331.25 L181.45 -331.3 Q181.35 -331.95 181.4 -332.65 L181.6 -334.85 Q181.6 -337.85 184.6 -339.75 186.3 -340.85 188.4 -341.25 189.75 -342.5 191.35 -342.5 196.3 -342.5 198.3 -338.65 L198.4 -338.55 Q200.1 -336.6 200.1 -335.1 200.1 -330.75 199.15 -328.75 197.35 -324.9 191.85 -324.75 L189.65 -322.8 M166.35 -331.0 L153.35 -331.75 Q148.15 -331.75 146.9 -334.1 L146.6 -336.75 Q146.6 -338.3 150.9 -342.8 155.4 -347.5 157.85 -347.5 173.1 -347.5 173.1 -339.0 173.1 -336.9 171.85 -334.55 169.95 -331.0 166.35 -331.0 M127.35 -374.75 Q120.85 -374.75 118.6 -379.8 117.45 -382.3 117.6 -385.0 117.6 -386.6 120.4 -388.8 123.25 -391.0 125.35 -391.0 131.4 -391.0 133.9 -387.0 135.35 -384.75 135.35 -382.1 135.35 -379.4 133.4 -377.25 131.1 -374.75 127.35 -374.75 M125.35 -361.0 Q119.85 -361.0 117.15 -363.5 115.6 -364.9 115.25 -366.75 114.85 -364.9 113.15 -363.0 110.9 -360.5 108.85 -360.5 100.1 -360.5 97.15 -363.0 95.35 -364.5 95.35 -367.85 95.35 -374.5 100.85 -374.5 109.75 -374.5 112.9 -372.75 114.85 -371.7 115.25 -369.2 115.95 -371.75 119.85 -371.75 131.6 -371.75 131.6 -365.75 131.6 -361.0 125.35 -361.0 M140.65 -368.8 L146.85 -369.25 Q152.1 -369.25 150.85 -363.6 150.85 -360.6 149.65 -358.0 148.0 -354.5 144.85 -354.5 144.5 -354.5 136.85 -363.75 136.85 -367.7 140.65 -368.8 M92.85 -390.1 Q92.85 -387.75 91.9 -386.75 90.2 -385.0 84.85 -385.0 L74.6 -387.0 Q73.6 -387.2 72.15 -386.4 70.6 -385.5 69.35 -385.5 L67.35 -386.0 66.55 -386.45 Q66.35 -386.7 66.35 -388.25 76.0 -397.25 76.35 -397.25 83.35 -397.25 88.6 -394.25 92.85 -391.8 92.85 -390.1 M118.0 -336.6 L117.25 -336.75 Q115.7 -336.75 114.1 -334.6 112.55 -332.5 108.35 -332.5 105.2 -332.5 104.35 -335.6 103.9 -337.15 104.1 -339.0 104.1 -340.15 109.9 -344.75 115.85 -349.5 117.85 -349.5 125.6 -349.5 139.6 -336.0 139.6 -333.75 138.6 -333.0 135.45 -334.5 129.85 -334.5 L127.55 -334.35 Q128.35 -333.25 128.35 -332.0 128.35 -326.05 125.05 -325.0 128.5 -321.6 135.55 -321.5 L135.6 -320.0 Q144.6 -318.9 144.6 -314.0 144.6 -312.05 142.9 -311.0 141.7 -310.25 140.35 -310.25 136.1 -310.25 130.85 -311.7 128.4 -312.4 126.6 -313.25 124.15 -311.25 119.85 -311.25 115.0 -311.25 114.05 -313.6 113.6 -314.8 114.1 -316.25 114.1 -323.25 123.35 -323.25 L123.35 -323.5 123.45 -324.75 123.35 -324.75 Q119.4 -324.75 117.65 -328.4 116.75 -330.25 116.6 -332.35 116.6 -334.25 117.4 -335.75 L118.0 -336.6 M110.1 -323.1 Q110.1 -318.0 103.35 -318.0 99.8 -318.0 98.15 -320.35 97.1 -321.75 97.1 -323.0 97.1 -324.65 99.4 -326.0 101.45 -327.25 103.35 -327.25 110.35 -327.25 110.1 -323.1 M87.85 -335.25 Q85.5 -333.0 81.35 -333.0 77.2 -333.0 75.65 -334.95 74.85 -335.95 74.85 -337.25 74.85 -339.25 77.4 -342.5 80.3 -346.25 83.35 -346.25 90.1 -346.25 89.85 -339.75 89.85 -337.15 87.85 -335.25 M88.85 -309.75 Q92.65 -309.75 94.35 -307.5 95.35 -306.15 95.35 -304.85 95.35 -301.9 92.15 -300.55 90.05 -299.65 83.85 -298.75 L82.15 -299.15 Q81.6 -299.5 81.6 -301.1 81.6 -302.2 84.85 -306.0 88.05 -309.75 88.85 -309.75 M118.3 -310.15 L118.85 -310.25 119.9 -309.9 Q122.75 -309.1 123.15 -306.6 L123.75 -305.75 123.85 -305.75 Q131.2 -305.75 131.35 -299.3 134.75 -297.3 142.35 -291.8 L144.35 -292.0 Q149.65 -292.0 151.15 -289.05 151.9 -287.6 151.6 -285.85 151.6 -282.95 149.65 -281.75 147.65 -280.5 142.85 -280.5 138.45 -280.5 137.35 -283.4 137.0 -284.35 137.0 -285.3 133.05 -285.85 131.05 -289.35 129.6 -291.95 129.6 -294.75 L127.95 -295.1 125.85 -294.75 Q123.4 -294.75 121.8 -296.0 L120.35 -296.5 120.6 -297.25 120.1 -298.0 119.7 -299.35 119.2 -298.9 118.1 -297.85 Q117.9 -293.35 116.4 -292.25 114.3 -290.75 105.35 -290.75 L102.6 -291.0 Q101.85 -290.5 101.85 -293.0 101.85 -294.45 106.45 -299.2 L110.55 -303.2 Q109.6 -304.25 109.6 -305.35 109.6 -308.6 111.05 -308.75 L111.95 -308.7 Q113.5 -310.25 116.85 -310.25 L118.3 -310.15 M148.15 -314.4 Q147.7 -315.35 147.7 -316.5 L147.85 -317.6 Q147.85 -322.0 151.85 -322.0 157.2 -322.0 160.15 -318.8 162.1 -316.6 162.1 -315.0 162.1 -311.5 155.35 -311.5 149.55 -311.5 148.15 -314.4 M30.35 -373.25 Q30.35 -371.6 17.35 -359.5 13.45 -359.5 12.4 -362.6 11.85 -364.15 12.1 -366.0 12.1 -368.4 16.15 -374.3 20.35 -380.5 22.85 -380.5 29.6 -380.5 30.35 -373.25 M17.1 -391.75 Q17.1 -389.6 14.65 -387.55 11.65 -385.0 6.85 -385.0 3.15 -385.0 1.9 -387.35 1.35 -388.4 1.35 -390.0 1.35 -392.1 4.15 -394.55 6.95 -397.0 9.35 -397.0 13.1 -397.0 15.4 -394.8 17.1 -393.15 17.1 -391.75 M14.0 -353.65 Q16.2 -355.25 20.35 -355.25 26.45 -355.25 27.9 -352.5 28.35 -351.6 28.35 -347.25 28.35 -341.6 28.15 -340.55 27.35 -336.65 24.6 -335.75 23.7 -333.35 21.15 -332.4 L21.3 -331.75 Q26.45 -329.9 31.4 -324.5 37.85 -317.5 37.85 -314.0 37.85 -307.7 37.15 -305.0 36.65 -303.05 35.8 -301.6 36.55 -300.5 37.1 -299.0 37.1 -297.25 33.85 -295.25 31.0 -293.5 29.85 -293.5 24.6 -293.5 22.6 -295.6 21.6 -296.65 21.6 -298.0 L21.65 -299.65 Q17.2 -302.7 13.6 -310.05 12.2 -312.85 11.1 -315.95 7.15 -315.4 4.65 -313.85 L4.6 -313.95 4.5 -314.15 0.85 -314.0 -1.95 -314.2 -1.9 -312.85 Q-1.9 -306.75 -7.65 -306.75 L-8.45 -306.8 -9.45 -305.95 -9.6 -305.75 -9.6 -305.7 Q-7.7 -306.5 -5.15 -306.5 1.4 -306.5 3.9 -302.25 5.15 -300.1 5.1 -297.75 5.1 -294.65 2.65 -291.0 1.55 -289.4 0.25 -288.3 L4.4 -284.4 Q10.55 -283.9 13.35 -279.0 14.2 -277.5 14.65 -275.95 31.05 -285.25 31.85 -285.25 35.6 -285.25 38.25 -284.25 43.9 -283.95 44.85 -274.4 44.85 -271.35 43.1 -268.05 L41.95 -268.75 Q39.2 -264.5 28.35 -264.5 L27.55 -264.6 Q27.1 -263.1 27.1 -261.15 L27.0 -259.9 Q27.0 -258.6 27.6 -257.55 29.45 -254.25 36.35 -254.25 41.4 -254.25 44.15 -256.5 L43.85 -259.4 Q43.85 -261.8 45.15 -262.45 L46.4 -262.8 46.35 -262.9 Q48.45 -265.5 51.35 -265.5 60.05 -265.5 66.65 -261.25 72.35 -257.5 72.35 -254.15 L72.25 -252.7 Q81.0 -252.35 84.7 -247.15 91.2 -252.0 93.35 -252.0 97.95 -252.0 99.15 -249.05 100.45 -248.3 101.15 -247.0 102.05 -245.35 101.85 -243.65 101.85 -238.0 96.85 -238.0 92.35 -238.0 90.05 -239.4 88.15 -238.5 86.45 -238.05 86.0 -236.9 85.15 -236.25 83.15 -234.75 78.35 -234.35 75.95 -232.25 71.35 -232.25 64.05 -232.25 53.9 -237.25 L51.15 -238.7 51.1 -238.5 Q51.1 -235.0 39.85 -225.7 L33.25 -220.75 Q36.85 -217.4 42.1 -211.0 42.1 -208.2 40.5 -205.6 L36.85 -205.75 Q34.0 -205.75 32.0 -204.25 36.1 -204.15 37.15 -197.95 37.65 -194.8 37.35 -191.4 37.35 -189.0 35.65 -186.5 33.55 -183.5 30.35 -183.5 27.05 -183.5 25.4 -187.55 24.35 -190.05 24.35 -191.9 24.35 -193.15 25.1 -195.45 25.85 -197.75 25.85 -199.0 25.85 -200.35 27.15 -202.0 L27.2 -202.05 Q22.75 -203.55 20.65 -207.75 19.6 -209.8 19.25 -212.3 L19.1 -214.5 19.15 -215.75 18.2 -215.8 18.1 -215.4 Q18.1 -212.05 15.1 -209.0 13.3 -207.15 11.05 -206.25 14.35 -202.85 14.35 -201.0 14.35 -197.05 12.6 -193.45 L11.35 -191.35 Q14.0 -190.5 15.4 -188.6 16.4 -187.2 16.6 -185.65 18.05 -186.5 19.85 -186.5 25.75 -186.5 27.9 -183.1 28.95 -181.35 28.85 -179.4 L28.4 -177.55 Q41.85 -176.3 41.85 -167.0 41.85 -163.85 40.35 -161.0 38.0 -156.5 32.85 -156.5 26.85 -156.5 19.6 -163.0 14.7 -167.45 13.65 -169.45 12.2 -170.35 11.6 -172.0 L11.35 -175.75 11.6 -177.7 Q11.0 -177.35 10.4 -177.15 10.15 -175.0 9.6 -173.95 8.45 -171.8 5.95 -170.65 9.75 -164.1 12.85 -157.4 L12.8 -156.6 13.35 -155.5 Q15.4 -151.0 15.6 -146.15 15.6 -138.5 13.85 -134.75 15.95 -135.5 18.35 -135.5 24.75 -135.5 28.1 -127.15 28.1 -122.55 27.15 -121.5 26.0 -120.25 21.35 -120.25 20.05 -120.25 17.4 -119.25 14.7 -118.25 13.6 -118.25 L15.15 -114.4 Q16.1 -111.9 16.1 -110.4 16.1 -108.15 14.6 -105.6 9.85 -104.25 9.85 -98.4 9.85 -97.7 11.45 -92.95 13.0 -91.9 13.9 -89.95 14.9 -87.8 14.85 -85.5 L14.75 -83.7 18.35 -73.25 19.8 -58.2 19.85 -58.05 18.6 -44.9 18.5 -43.6 Q22.25 -43.1 25.9 -40.25 L27.0 -39.35 27.85 -43.0 Q28.6 -46.0 29.45 -47.75 L29.35 -48.9 Q29.35 -50.15 30.35 -54.3 31.35 -58.5 31.35 -59.75 31.35 -60.25 28.75 -66.35 26.1 -72.45 26.1 -75.9 26.1 -80.55 28.15 -84.5 30.4 -88.95 34.6 -90.35 38.45 -96.7 39.85 -97.95 38.9 -99.1 38.15 -100.6 37.25 -102.45 36.75 -104.7 35.05 -105.7 33.15 -107.75 29.85 -111.35 29.85 -113.0 29.85 -115.7 31.9 -116.5 L36.85 -117.0 Q41.95 -117.0 43.9 -113.7 L44.2 -113.15 46.85 -113.25 Q52.95 -113.25 55.9 -108.85 57.35 -106.6 57.6 -104.15 57.6 -100.65 54.9 -97.75 51.85 -94.5 47.35 -94.5 L45.95 -94.55 46.1 -92.9 Q46.1 -91.6 44.95 -88.55 47.1 -86.45 48.4 -82.45 49.8 -78.15 49.85 -73.65 49.85 -72.5 47.5 -69.5 45.1 -66.5 45.1 -65.4 45.1 -64.15 46.25 -61.65 47.35 -59.15 47.35 -57.9 47.35 -56.4 45.15 -54.35 43.5 -52.85 42.8 -51.0 47.5 -49.05 51.85 -39.5 51.85 -36.8 48.85 -33.05 45.85 -29.3 45.85 -28.25 45.85 -27.0 47.0 -24.7 48.1 -22.4 48.1 -21.15 48.1 -18.45 45.85 -14.75 43.35 -10.75 40.85 -10.75 L39.35 -10.8 39.35 -10.15 39.1 -8.25 Q37.85 -7.5 35.35 -7.5 33.75 -7.5 32.7 -8.0 L32.35 -8.0 Q31.1 -8.0 26.85 -9.1 22.6 -10.25 21.35 -10.25 15.1 -10.25 12.15 -8.75 9.2 -7.25 4.35 -7.25 -11.65 -7.25 -18.35 -15.75 -22.15 -20.5 -22.15 -25.9 -22.15 -27.85 -21.0 -31.7 -25.6 -33.25 -27.35 -38.05 -28.15 -40.25 -28.2 -43.0 L-28.15 -45.4 Q-28.15 -64.0 -16.15 -64.0 -9.75 -64.0 -7.85 -60.9 L-7.3 -59.8 -6.4 -61.0 Q-3.7 -64.5 -2.65 -68.15 -7.9 -69.25 -11.15 -73.0 -14.15 -76.45 -14.15 -79.0 -14.15 -83.25 -13.85 -84.25 -12.8 -88.0 -8.65 -88.2 L-10.4 -90.8 -11.75 -92.85 -12.65 -92.75 Q-17.8 -92.75 -19.1 -96.05 L-20.15 -96.0 Q-25.05 -96.0 -27.1 -101.35 L-28.15 -107.0 Q-28.15 -109.1 -26.35 -110.75 -24.25 -112.75 -20.65 -112.75 -17.45 -112.75 -15.35 -111.35 -14.65 -113.45 -15.3 -117.05 L-16.15 -122.15 Q-16.15 -125.05 -13.9 -131.25 L-20.15 -132.75 Q-25.35 -134.4 -27.15 -137.25 L-28.95 -133.5 -30.15 -131.85 -29.9 -130.9 Q-28.75 -126.7 -28.65 -122.25 -28.65 -119.25 -31.1 -116.2 -32.55 -114.4 -34.35 -113.5 L-33.9 -111.65 Q-33.9 -108.2 -35.25 -106.3 -35.9 -105.3 -38.15 -103.6 -42.1 -100.65 -42.35 -94.5 -39.9 -98.5 -34.65 -98.5 -28.45 -98.5 -25.4 -95.0 -23.4 -92.75 -23.4 -90.5 -23.4 -86.3 -26.1 -82.25 -29.85 -76.75 -36.65 -76.75 -42.0 -76.75 -43.85 -80.25 L-44.65 -84.0 -44.45 -87.75 Q-47.0 -84.5 -51.65 -84.5 -57.9 -84.5 -60.65 -90.25 -61.5 -92.05 -61.9 -94.25 L-62.15 -96.25 Q-59.1 -103.45 -55.45 -110.45 -48.55 -123.75 -45.5 -124.45 -47.65 -129.5 -47.65 -130.25 L-47.6 -130.9 Q-52.05 -133.25 -55.65 -138.75 -57.6 -141.75 -59.05 -145.35 L-60.15 -148.5 Q-60.15 -151.8 -59.5 -154.2 L-60.85 -155.45 Q-62.65 -157.65 -62.65 -162.25 -62.65 -165.4 -52.1 -171.95 -41.55 -178.5 -36.65 -178.5 -34.7 -178.5 -33.25 -177.9 -32.15 -180.15 -32.15 -182.5 L-31.8 -184.55 -32.1 -184.25 Q-35.5 -180.75 -39.65 -180.75 -46.4 -180.75 -51.55 -182.9 L-51.65 -182.75 Q-55.1 -175.5 -59.65 -175.5 -68.95 -175.5 -71.6 -179.5 -72.45 -180.75 -72.5 -182.25 L-72.4 -183.65 Q-72.4 -187.85 -69.1 -193.75 -66.7 -198.0 -63.65 -199.9 L-63.65 -200.0 Q-63.65 -204.9 -61.85 -209.0 -58.8 -216.0 -51.65 -216.0 -43.25 -216.0 -40.6 -209.4 -39.75 -207.2 -39.6 -204.9 -33.7 -203.75 -30.85 -198.5 -28.9 -194.85 -28.9 -191.0 -28.9 -189.85 -29.25 -188.65 -27.55 -190.25 -25.15 -190.25 L-23.1 -190.15 Q-21.65 -194.5 -16.15 -194.5 -10.4 -194.5 -1.7 -182.55 -0.35 -184.25 1.15 -185.05 0.85 -185.9 0.85 -186.5 L1.05 -188.35 Q-4.5 -189.65 -7.6 -195.5 -10.15 -200.2 -10.15 -203.75 -10.15 -207.35 -9.1 -209.0 -7.3 -211.95 -1.85 -212.0 L-2.4 -213.0 Q-2.4 -215.05 -0.6 -218.2 1.75 -222.5 5.35 -222.5 L8.75 -222.35 8.6 -223.75 Q2.35 -220.3 -4.85 -227.85 -7.5 -230.6 -9.4 -234.05 -11.15 -237.2 -11.15 -238.75 L-11.25 -241.5 -11.65 -241.5 Q-12.9 -241.5 -13.9 -242.5 -14.9 -243.5 -16.15 -243.5 -23.1 -239.9 -28.65 -239.75 -28.95 -238.65 -29.6 -237.7 -31.15 -235.5 -34.15 -235.5 L-36.4 -235.7 -36.65 -235.5 Q-39.1 -235.5 -40.85 -238.25 -42.1 -240.2 -42.15 -241.15 L-42.4 -242.75 Q-42.4 -244.7 -40.6 -246.5 -39.3 -247.85 -37.65 -248.3 L-39.65 -255.9 Q-39.65 -259.0 -37.15 -260.0 L-30.15 -260.75 Q-27.4 -260.75 -25.4 -260.0 L-25.45 -260.4 -25.4 -261.9 Q-30.0 -263.6 -33.65 -269.6 -35.25 -272.25 -36.5 -275.45 L-37.4 -278.25 Q-37.4 -281.45 -35.9 -282.7 -34.1 -284.25 -29.15 -284.25 L-27.9 -284.2 Q-27.25 -287.25 -24.35 -289.75 L-22.5 -291.05 -22.45 -291.25 Q-20.35 -297.25 -16.65 -297.25 L-14.8 -297.1 Q-14.55 -300.9 -12.9 -303.15 L-14.15 -303.0 Q-15.8 -303.0 -17.85 -305.7 -19.65 -308.05 -19.65 -308.75 -19.65 -312.8 -16.35 -313.55 L-16.25 -313.9 -15.6 -316.2 Q-19.8 -317.3 -21.1 -320.65 -22.05 -323.15 -21.4 -325.85 -21.4 -327.2 -21.0 -328.35 -23.5 -329.65 -24.85 -331.8 -26.05 -333.7 -26.15 -337.25 L-27.15 -337.25 Q-32.15 -337.25 -34.15 -340.05 L-34.4 -340.8 -36.15 -340.75 Q-44.4 -340.75 -46.15 -343.5 -46.75 -344.4 -46.65 -345.7 L-47.35 -346.0 Q-50.65 -347.5 -50.65 -352.0 -50.65 -356.6 -46.85 -359.55 -42.65 -362.75 -35.15 -362.75 -28.7 -362.75 -24.35 -354.65 L-20.35 -352.7 -22.45 -357.85 Q-25.15 -365.05 -25.15 -366.6 L-25.05 -369.35 -26.65 -369.25 Q-31.9 -369.25 -35.9 -374.8 -38.9 -378.95 -38.9 -380.6 -38.9 -382.5 -36.35 -384.75 -33.3 -387.5 -29.15 -387.5 -25.2 -387.5 -22.45 -386.05 L-23.15 -387.5 Q-24.0 -390.2 -23.15 -393.5 L-23.15 -398.75 Q-22.2 -403.0 -17.15 -403.0 -8.75 -403.0 -5.15 -399.0 -2.9 -396.55 -2.9 -393.35 -2.9 -390.55 -7.1 -386.25 -11.05 -382.25 -12.65 -382.25 -16.75 -382.25 -19.3 -383.4 L-18.85 -382.75 Q-17.65 -381.0 -17.15 -379.2 -11.75 -378.9 -8.8 -374.7 -7.1 -372.3 -5.65 -368.25 -4.4 -366.0 -1.45 -363.9 L6.1 -359.0 14.0 -353.65 M39.95 -308.3 Q38.6 -309.5 38.6 -311.6 L38.6 -311.7 Q39.2 -309.85 39.95 -308.3 M74.1 -329.0 Q74.1 -326.9 72.35 -324.0 73.35 -323.5 70.85 -323.5 68.75 -323.5 67.6 -325.55 66.85 -326.85 66.85 -327.75 66.85 -330.25 70.85 -331.75 L74.1 -329.0 M48.85 -331.0 Q54.6 -331.0 58.1 -322.0 58.1 -318.0 52.35 -318.0 51.25 -318.0 49.55 -314.75 47.8 -311.5 45.85 -311.5 42.95 -311.5 41.15 -316.3 39.85 -319.65 39.85 -321.35 39.85 -323.0 43.6 -327.0 47.35 -331.0 48.85 -331.0 M43.6 -308.25 Q45.45 -311.0 48.35 -311.0 54.75 -311.0 55.6 -302.25 55.6 -300.15 54.4 -298.55 52.8 -296.5 49.85 -296.5 46.3 -296.5 43.9 -300.15 42.1 -302.85 42.1 -304.1 42.1 -306.1 43.6 -308.25 M74.15 -274.2 Q78.35 -270.0 78.35 -268.0 78.35 -266.15 76.65 -264.95 75.2 -264.0 73.85 -264.0 72.8 -264.0 62.45 -272.85 61.6 -272.35 60.4 -271.75 56.0 -269.5 54.35 -269.5 49.45 -269.5 48.4 -273.0 L48.35 -276.75 Q48.35 -280.55 48.65 -281.2 49.6 -283.5 53.85 -283.5 59.45 -283.5 62.65 -279.7 L63.25 -278.9 64.85 -279.0 Q69.3 -279.0 74.15 -274.2 M73.85 -279.0 Q70.7 -279.0 67.6 -283.15 65.1 -286.55 65.1 -287.6 75.6 -298.0 75.85 -298.0 81.6 -298.0 81.6 -292.25 81.6 -290.05 78.85 -284.7 75.9 -279.0 73.85 -279.0 M39.85 -224.2 Q41.2 -226.5 45.35 -226.5 58.0 -226.5 63.85 -221.75 68.1 -218.25 68.1 -213.15 68.1 -209.55 67.15 -208.25 65.25 -205.75 58.85 -205.75 50.1 -205.75 43.9 -212.25 39.1 -217.2 39.1 -220.15 39.1 -222.95 39.85 -224.2 M139.05 -256.35 Q140.9 -258.5 143.35 -258.5 148.25 -258.5 150.65 -254.75 152.1 -252.4 152.1 -250.25 152.1 -247.5 150.1 -245.0 147.7 -242.0 143.85 -242.0 135.6 -242.0 135.6 -246.25 L135.85 -249.05 134.35 -249.0 Q117.1 -249.0 117.1 -257.4 117.1 -259.65 118.4 -261.5 119.9 -263.75 122.35 -263.75 129.35 -263.75 139.05 -256.35 M97.9 -263.0 Q100.6 -268.0 106.85 -268.0 111.85 -268.0 113.85 -262.1 114.85 -259.1 114.85 -255.9 114.85 -250.75 109.35 -250.75 104.15 -250.75 99.85 -253.5 96.35 -255.75 96.35 -257.0 96.35 -260.15 97.9 -263.0 M98.05 -198.95 L97.1 -200.25 Q97.1 -201.75 97.35 -203.0 L97.35 -203.25 98.85 -203.5 Q100.4 -203.5 101.45 -202.9 L103.1 -201.75 103.35 -199.5 Q102.85 -198.25 100.35 -198.25 98.8 -198.25 98.05 -198.95 M154.9 -183.95 L154.85 -186.5 Q154.85 -190.2 157.4 -192.5 160.15 -195.0 165.35 -195.0 172.35 -195.0 175.15 -189.35 176.6 -186.45 176.6 -183.4 176.6 -180.5 173.9 -176.2 170.55 -171.0 166.35 -171.0 L164.9 -171.05 Q165.4 -169.9 165.35 -168.65 165.35 -166.0 163.65 -163.75 162.25 -161.95 160.05 -161.2 L160.9 -160.25 Q162.35 -158.35 162.35 -156.5 162.35 -154.05 160.4 -151.25 157.75 -147.5 153.35 -147.5 149.05 -147.5 146.65 -153.05 L146.05 -155.35 138.85 -154.75 Q131.15 -154.75 128.65 -158.8 127.85 -160.1 127.65 -161.65 L127.6 -163.15 Q127.6 -165.1 128.65 -167.2 130.1 -170.25 132.85 -170.25 141.9 -170.25 147.85 -166.25 L148.7 -165.65 148.6 -167.5 Q148.6 -175.75 155.35 -175.75 L155.8 -175.75 Q157.0 -174.95 158.3 -174.3 156.75 -176.0 155.9 -178.6 155.05 -181.0 154.9 -183.95 M128.35 -181.25 Q128.35 -179.3 126.85 -177.5 124.95 -175.25 121.85 -175.25 120.7 -175.25 119.85 -175.75 119.75 -174.0 117.65 -172.75 115.95 -171.75 114.85 -171.75 110.35 -171.75 110.35 -175.25 110.35 -177.5 110.65 -178.2 111.15 -179.25 112.85 -179.25 L117.85 -178.9 Q117.6 -179.9 117.6 -181.0 117.6 -183.8 119.15 -184.75 120.3 -185.5 123.35 -185.5 128.75 -185.5 128.35 -181.25 M81.0 -178.2 Q81.4 -176.65 82.85 -175.0 L82.85 -174.9 Q82.85 -172.35 80.9 -170.75 79.0 -169.25 76.35 -169.25 73.75 -169.25 72.35 -170.45 L69.85 -172.5 66.7 -168.85 Q63.8 -166.0 59.85 -166.0 56.35 -166.0 55.15 -168.35 54.6 -169.4 54.6 -171.0 54.6 -172.05 61.1 -177.0 67.35 -181.75 67.85 -181.75 75.8 -181.75 79.9 -179.0 L81.0 -178.2 M96.1 -174.2 Q97.6 -171.3 98.1 -168.25 98.1 -165.55 97.4 -164.5 96.45 -163.15 93.95 -163.0 92.75 -162.25 91.35 -162.25 88.6 -162.25 87.1 -165.9 86.1 -168.35 86.1 -169.9 L86.25 -170.95 Q83.85 -174.8 83.85 -175.5 83.85 -180.0 88.35 -180.0 93.15 -180.0 96.1 -174.2 M83.1 -163.15 Q83.1 -157.75 78.35 -157.75 74.2 -157.75 72.65 -161.15 L71.85 -164.9 Q71.85 -166.9 72.1 -167.5 72.7 -169.0 74.85 -169.0 79.75 -169.0 81.85 -166.5 83.1 -165.0 83.1 -163.15 M100.9 -156.25 Q102.95 -159.0 106.85 -159.0 113.25 -159.0 113.6 -152.9 113.6 -151.5 110.4 -149.2 L107.85 -147.7 Q110.55 -146.6 110.1 -143.25 110.1 -141.7 107.9 -139.45 105.4 -137.0 102.85 -137.0 99.55 -137.0 98.9 -139.9 L98.85 -143.15 Q98.85 -146.25 99.9 -147.25 100.15 -147.5 100.55 -147.65 99.95 -148.15 99.65 -148.9 99.35 -149.6 99.35 -151.4 99.35 -154.1 100.9 -156.25 M88.85 -114.0 Q88.85 -117.1 89.65 -118.45 91.3 -121.25 96.35 -121.25 106.75 -121.25 121.6 -107.0 121.6 -104.2 119.3 -100.25 116.45 -95.25 112.35 -95.25 108.95 -95.25 105.3 -99.3 101.25 -103.8 99.85 -104.25 L96.5 -105.5 Q95.6 -101.25 88.85 -101.25 84.85 -101.25 84.1 -103.4 L84.1 -105.9 Q84.1 -109.3 84.8 -110.75 85.9 -112.9 88.9 -113.2 L88.85 -114.0 M64.6 -143.5 Q63.3 -141.55 58.2 -138.85 L57.35 -138.4 Q58.85 -137.45 58.85 -135.5 58.85 -133.25 57.4 -132.5 56.0 -131.75 51.85 -131.75 49.95 -131.75 48.85 -133.75 48.1 -135.1 48.1 -136.0 48.1 -137.25 48.85 -138.0 L47.65 -139.25 Q46.1 -141.25 46.1 -142.25 46.1 -145.55 49.9 -147.3 53.1 -148.75 57.85 -148.75 59.85 -148.75 62.15 -146.7 64.0 -144.95 64.6 -143.5 M54.9 -114.25 L55.1 -115.4 Q55.1 -123.75 63.85 -123.75 70.35 -123.75 72.9 -119.45 74.15 -117.3 74.1 -115.0 74.1 -112.4 73.15 -111.2 71.1 -108.75 64.85 -108.75 57.2 -108.75 55.4 -112.0 54.8 -113.0 54.9 -114.25 M76.85 -107.0 Q84.5 -107.0 84.1 -98.5 84.1 -95.85 83.15 -94.7 81.65 -93.0 77.35 -93.0 71.8 -93.0 70.15 -95.75 69.65 -96.6 69.55 -97.7 L69.6 -98.75 Q69.6 -100.95 72.4 -104.0 75.1 -107.0 76.85 -107.0 M58.1 -70.75 Q65.1 -77.75 78.85 -77.75 83.7 -77.75 86.65 -72.4 88.1 -69.7 88.6 -66.75 88.6 -63.95 84.1 -61.45 80.05 -59.25 76.85 -59.25 75.4 -59.25 73.2 -60.75 L69.6 -63.5 Q68.35 -60.4 62.95 -56.0 L61.05 -54.45 60.65 -53.45 Q59.6 -51.75 56.35 -51.75 L56.0 -51.75 55.85 -51.75 55.45 -51.75 Q51.7 -52.05 50.9 -54.5 L50.85 -57.5 50.85 -60.5 Q51.3 -62.0 53.85 -62.0 L55.45 -61.95 Q56.75 -62.95 57.35 -64.0 L58.1 -70.75 M168.85 -168.5 Q172.65 -170.75 182.35 -170.75 188.0 -170.75 190.6 -167.5 191.9 -165.85 192.1 -164.15 192.1 -160.35 188.3 -157.75 184.4 -155.0 178.35 -155.0 170.35 -155.0 167.3 -158.75 165.85 -160.6 165.85 -162.9 165.85 -166.75 168.85 -168.5 M-65.9 -315.25 Q-65.1 -318.0 -61.65 -318.0 -54.75 -318.0 -52.65 -312.45 -52.0 -310.7 -51.9 -308.55 L-51.9 -306.6 Q-51.9 -301.75 -55.15 -301.75 -59.95 -301.75 -62.65 -303.95 L-63.85 -303.0 Q-68.05 -299.75 -70.15 -299.75 -74.1 -299.75 -75.1 -301.55 -75.4 -302.05 -75.4 -303.6 -75.4 -304.9 -73.9 -307.0 L-74.0 -307.0 Q-80.5 -307.35 -83.75 -301.75 -85.45 -298.3 -86.55 -296.95 -88.35 -294.75 -91.5 -294.75 -97.15 -294.75 -101.75 -300.25 L-105.25 -305.85 Q-105.25 -310.2 -96.0 -313.75 -87.65 -317.0 -80.15 -317.0 -75.75 -317.0 -71.85 -313.5 L-69.9 -311.5 -65.9 -315.25 M-41.15 -302.0 Q-36.15 -302.0 -32.9 -294.85 -32.9 -292.05 -36.65 -287.75 -40.15 -283.75 -41.65 -283.75 -44.15 -283.75 -45.9 -284.45 -47.45 -288.7 -48.95 -291.4 L-48.4 -297.25 Q-48.4 -300.6 -46.35 -301.5 L-41.15 -302.0 M-38.95 -327.75 Q-37.9 -330.75 -36.15 -330.75 -31.65 -330.75 -31.65 -327.0 -31.65 -325.45 -32.6 -323.3 -33.85 -320.5 -35.65 -320.5 -39.65 -320.5 -39.65 -324.0 -39.65 -325.65 -38.95 -327.75 M-108.5 -366.5 Q-102.4 -366.5 -100.0 -362.8 -94.7 -357.75 -87.0 -342.0 -87.0 -339.5 -88.45 -336.8 -89.2 -335.4 -90.15 -334.55 L-93.85 -333.3 Q-95.3 -333.65 -99.05 -336.6 -101.2 -335.0 -105.0 -335.0 -109.65 -335.0 -111.25 -337.35 -112.0 -338.4 -112.0 -340.0 -112.0 -343.75 -111.5 -345.25 -110.85 -347.4 -109.3 -348.45 L-111.05 -353.5 Q-112.15 -354.5 -112.8 -355.95 L-112.9 -356.15 Q-113.35 -353.95 -115.25 -351.55 -115.5 -348.5 -118.0 -348.5 L-118.85 -348.5 Q-120.75 -347.5 -123.0 -347.5 -129.9 -347.5 -131.5 -353.05 -131.95 -354.6 -131.95 -356.25 L-132.0 -356.25 -137.2 -356.75 Q-135.85 -353.95 -135.25 -351.0 -135.25 -349.45 -138.3 -346.5 L-138.75 -346.05 Q-137.3 -345.4 -136.45 -344.5 -135.85 -343.9 -135.5 -342.8 -132.75 -342.35 -131.25 -340.8 -130.2 -339.7 -130.0 -338.55 L-127.5 -339.0 Q-122.75 -339.0 -121.0 -336.1 -120.1 -336.75 -119.0 -336.75 -116.95 -336.75 -115.8 -334.95 -115.0 -333.75 -115.0 -332.85 -115.0 -332.25 -115.25 -331.75 L-115.15 -331.7 Q-113.45 -330.95 -112.45 -329.55 -111.45 -328.05 -111.5 -326.5 -113.65 -316.75 -117.0 -316.75 -121.0 -316.75 -123.2 -319.45 -124.7 -320.45 -125.75 -322.3 -126.9 -324.25 -127.15 -325.75 -129.2 -325.9 -131.2 -329.55 L-131.65 -330.4 Q-133.65 -326.75 -139.0 -326.75 -142.85 -326.75 -144.9 -328.4 L-145.5 -328.5 Q-146.4 -328.65 -147.3 -329.1 -148.55 -328.25 -151.0 -328.25 -154.3 -328.25 -155.45 -331.05 -156.05 -332.45 -156.0 -334.0 -156.0 -337.1 -154.25 -338.3 -155.75 -341.35 -155.75 -342.5 -155.75 -347.75 -150.0 -347.75 L-149.05 -347.75 -150.0 -349.95 Q-151.1 -353.25 -151.25 -356.75 L-155.35 -355.5 Q-155.15 -354.1 -155.1 -352.5 L-155.25 -349.85 Q-155.25 -343.95 -157.45 -341.25 -160.35 -337.75 -168.0 -337.75 -175.25 -337.75 -178.75 -342.05 -181.0 -344.75 -181.0 -347.25 L-181.3 -351.55 Q-181.45 -355.15 -180.75 -357.75 -178.6 -365.75 -168.5 -365.75 -164.5 -365.75 -161.65 -364.45 L-160.7 -365.8 -160.75 -366.0 Q-160.75 -368.75 -159.5 -369.75 -157.7 -371.25 -152.0 -371.25 -149.85 -371.25 -148.5 -369.65 L-148.05 -369.05 -147.95 -369.0 -147.45 -371.45 -148.5 -373.65 Q-149.45 -376.25 -149.75 -379.1 -149.75 -382.15 -146.0 -385.5 -142.35 -388.75 -139.5 -388.75 -133.65 -388.75 -131.5 -382.8 -130.8 -380.95 -130.6 -378.65 L-130.6 -378.5 -130.0 -378.5 Q-124.95 -378.5 -112.95 -363.0 L-112.25 -364.25 Q-110.8 -366.5 -108.5 -366.5 M-161.5 -315.35 Q-161.5 -317.5 -158.25 -321.0 -155.0 -324.5 -153.0 -324.5 -147.0 -324.5 -146.0 -315.0 -146.0 -312.35 -146.75 -311.25 -148.25 -309.0 -153.0 -309.0 -157.2 -309.0 -159.75 -312.0 -161.5 -314.05 -161.5 -315.35 M-99.75 -327.5 Q-99.75 -329.65 -97.95 -331.25 -96.3 -332.75 -94.5 -332.75 -87.75 -332.75 -87.75 -328.75 -87.75 -324.2 -87.95 -323.5 -88.75 -321.0 -92.5 -321.0 -96.85 -321.0 -98.7 -324.1 -99.75 -325.8 -99.75 -327.5 M-110.0 -301.1 Q-110.0 -298.05 -112.0 -295.5 -114.25 -292.75 -117.5 -292.75 L-121.0 -293.25 -121.5 -299.4 -121.75 -301.0 Q-121.75 -303.7 -120.25 -305.55 -118.9 -307.25 -117.0 -307.25 -113.35 -307.25 -112.35 -304.95 -109.95 -304.1 -110.0 -301.1 M-101.1 -289.35 Q-102.0 -286.1 -102.0 -284.85 -102.0 -282.9 -105.15 -281.0 -108.5 -279.0 -112.25 -279.25 -112.75 -278.4 -112.75 -280.9 -112.75 -281.65 -111.35 -283.9 -110.0 -286.2 -110.0 -286.5 -110.0 -287.75 -111.0 -288.75 -112.0 -289.75 -112.0 -291.0 -112.0 -298.0 -107.0 -298.0 -100.0 -298.0 -100.25 -293.85 -100.25 -292.6 -101.1 -289.35 M-113.5 -277.0 Q-113.5 -275.6 -116.25 -270.95 L-117.9 -268.3 -117.75 -267.75 Q-130.65 -256.25 -141.0 -256.25 -146.3 -256.25 -148.0 -260.0 -148.6 -261.2 -148.7 -262.7 L-148.75 -264.15 Q-148.75 -266.05 -146.0 -269.0 -142.75 -272.5 -139.0 -272.5 -131.8 -272.5 -125.9 -271.35 L-126.25 -273.5 Q-126.25 -277.2 -124.05 -277.9 L-121.3 -278.5 Q-119.25 -278.9 -117.5 -279.75 L-114.0 -279.25 Q-113.5 -279.5 -113.5 -277.0 M-110.0 -254.0 Q-99.75 -254.0 -99.75 -247.9 L-99.8 -245.45 -99.45 -245.25 Q-93.5 -241.5 -93.5 -238.9 -93.5 -235.9 -95.75 -234.0 -97.8 -232.25 -100.5 -232.25 -103.9 -232.25 -105.65 -234.7 L-105.75 -234.75 -106.1 -235.45 Q-106.65 -236.55 -107.0 -238.0 L-110.5 -237.2 Q-111.6 -233.5 -117.0 -233.5 L-118.85 -233.8 -118.0 -232.0 Q-118.0 -228.85 -118.75 -227.45 -119.2 -226.55 -120.05 -226.0 L-120.0 -225.9 Q-120.0 -223.35 -121.45 -221.0 -123.1 -218.25 -125.5 -218.25 -128.2 -218.25 -131.2 -224.75 -133.75 -230.15 -133.75 -231.5 -133.75 -232.7 -133.25 -233.75 -132.3 -235.75 -130.0 -235.75 L-129.8 -235.6 -128.0 -236.95 Q-125.35 -238.5 -123.0 -238.5 L-121.9 -238.05 -122.25 -240.75 Q-122.25 -241.75 -121.75 -242.55 L-122.0 -244.75 Q-122.0 -249.75 -120.25 -251.5 -117.8 -254.0 -110.0 -254.0 M-89.1 -224.55 L-86.0 -223.25 -83.55 -221.55 -79.65 -222.0 Q-75.8 -222.0 -73.9 -220.25 L-73.7 -220.55 -71.9 -222.25 Q-77.15 -224.35 -77.15 -226.75 -77.15 -234.3 -74.9 -237.25 -70.9 -242.5 -58.15 -242.5 -51.15 -242.5 -50.4 -234.5 -50.4 -231.6 -52.4 -229.75 -55.55 -226.8 -62.65 -228.75 -62.15 -227.25 -62.15 -226.5 -62.15 -225.3 -64.6 -220.5 -67.2 -215.5 -68.15 -215.5 L-72.15 -215.8 -72.15 -215.5 Q-72.15 -212.85 -74.15 -211.0 -76.3 -209.0 -79.65 -209.0 -85.45 -209.0 -87.3 -212.3 -87.8 -213.15 -87.95 -214.2 -90.8 -213.2 -95.05 -213.2 L-95.15 -212.8 -93.75 -212.25 -93.5 -212.45 Q-93.25 -212.3 -93.25 -210.75 -97.65 -204.5 -99.0 -204.25 -102.75 -206.95 -102.75 -209.25 L-102.1 -211.3 -102.25 -213.5 Q-102.25 -215.25 -99.15 -216.7 L-98.25 -218.15 -98.95 -219.05 Q-99.5 -220.0 -99.5 -221.9 -99.5 -224.35 -98.7 -225.25 -97.6 -226.5 -94.0 -226.5 -90.7 -226.5 -89.1 -224.55 M-55.85 -285.3 L-53.8 -282.25 -53.65 -281.0 Q-53.65 -278.95 -55.85 -277.25 -58.25 -275.5 -61.65 -275.5 -66.25 -275.5 -67.65 -278.8 L-68.15 -282.4 Q-68.15 -284.1 -66.7 -285.7 -64.8 -287.75 -61.65 -287.75 -58.2 -287.75 -56.05 -285.8 L-55.85 -285.3 M-71.15 -158.25 Q-76.8 -158.25 -78.3 -161.55 -78.8 -162.6 -78.85 -163.9 L-78.75 -165.15 Q-78.75 -170.75 -73.15 -170.75 -68.25 -170.75 -65.9 -167.5 -64.4 -165.4 -64.4 -163.4 -64.4 -158.25 -71.15 -158.25 M-51.65 -160.5 L-51.35 -160.5 -51.7 -161.2 -52.15 -161.0 -51.9 -160.5 -51.65 -160.5 M-77.4 -144.25 Q-79.1 -142.8 -81.35 -142.75 L-81.75 -142.25 Q-82.9 -141.0 -84.5 -141.0 L-86.4 -141.35 -87.45 -140.75 Q-86.85 -139.3 -87.25 -137.65 -87.25 -133.85 -89.55 -130.5 -92.25 -126.5 -96.5 -126.5 -101.65 -126.5 -102.7 -129.6 L-102.75 -133.0 Q-102.75 -136.5 -100.7 -139.75 -98.2 -143.75 -94.0 -143.75 L-93.05 -143.7 -91.3 -145.45 -91.15 -145.55 Q-93.0 -146.85 -93.0 -148.0 -93.0 -152.25 -92.7 -153.25 -91.8 -156.5 -88.0 -156.5 -78.75 -156.5 -75.65 -148.0 -75.65 -145.8 -77.4 -144.25 M-69.15 -133.25 Q-64.6 -133.25 -61.45 -127.45 -59.85 -124.55 -59.15 -121.5 -59.15 -120.75 -78.15 -106.5 -83.45 -106.5 -84.5 -110.35 L-84.5 -114.5 Q-84.5 -118.05 -80.0 -125.0 -74.7 -133.25 -69.15 -133.25 M-105.75 -165.9 Q-105.75 -169.75 -102.5 -169.75 L-95.45 -168.75 -95.0 -170.0 Q-93.75 -172.0 -90.0 -172.0 -83.0 -172.0 -83.0 -167.15 -83.0 -161.8 -89.55 -161.3 -92.45 -159.0 -94.0 -159.0 -95.55 -159.0 -96.5 -159.55 L-97.0 -159.5 Q-103.0 -159.5 -104.95 -162.5 -105.75 -163.75 -105.75 -165.9 M-104.5 -110.5 Q-104.5 -113.15 -103.8 -114.2 L-102.45 -115.35 Q-102.25 -117.55 -100.0 -119.0 -97.7 -120.5 -94.5 -120.5 -87.5 -120.5 -86.75 -112.9 -86.75 -112.2 -87.2 -111.45 L-87.0 -111.25 Q-82.25 -106.95 -82.25 -104.9 -82.25 -103.0 -85.0 -100.0 -88.15 -96.5 -91.5 -96.5 -99.45 -96.5 -102.75 -103.35 -103.8 -105.55 -104.25 -108.15 L-104.5 -110.5" fill="#6f6f6f" fill-rule="evenodd" stroke="none"/>
    </g>
  </defs>
</svg>
