<?xml version="1.0" encoding="UTF-8" standalone="no"?>
<svg xmlns:ffdec="https://www.free-decompiler.com/flash" xmlns:xlink="http://www.w3.org/1999/xlink" ffdec:objectType="frame" height="513.9px" width="383.5px" xmlns="http://www.w3.org/2000/svg">
  <g transform="matrix(1.0, 0.0, 0.0, 1.0, 183.4, 511.25)">
    <use ffdec:characterId="225" height="480.8" transform="matrix(1.0, 0.0, 0.0, 1.0, -168.85, -494.75)" width="361.4" xlink:href="#shape0"/>
  </g>
  <defs>
    <g id="shape0" transform="matrix(1.0, 0.0, 0.0, 1.0, 168.85, 494.75)">
      <path d="M56.55 -479.2 L56.55 -478.8 56.55 -479.2 M59.2 -487.9 L59.4 -487.9 59.4 -488.1 59.4 -488.2 59.2 -487.9 M72.95 -481.4 L72.75 -481.35 72.95 -481.35 72.95 -481.4 M71.7 -490.3 Q73.6 -487.35 74.0 -485.3 74.7 -486.6 75.85 -487.75 80.0 -491.8 88.5 -491.8 95.85 -491.8 98.85 -487.1 100.45 -484.55 100.45 -481.65 100.45 -477.5 89.1 -468.85 80.15 -462.0 75.9 -460.05 L75.35 -459.85 74.95 -460.0 Q72.45 -458.6 70.8 -458.6 67.5 -458.6 65.35 -460.85 63.4 -461.7 62.2 -463.5 L60.85 -467.1 Q60.85 -469.95 61.45 -471.85 57.3 -472.05 55.25 -475.75 L53.95 -479.8 Q53.95 -480.65 54.6 -481.2 54.65 -484.75 57.15 -489.45 58.4 -491.8 59.8 -493.3 L61.3 -493.35 Q62.35 -494.75 63.65 -494.75 65.15 -494.75 66.5 -493.8 L68.05 -494.05 Q70.0 -492.95 71.7 -490.3 M43.3 -449.8 L44.1 -449.85 45.25 -449.9 Q49.0 -447.65 49.75 -445.4 L50.05 -445.5 50.9 -445.35 Q51.1 -445.35 51.1 -444.35 51.1 -440.55 46.25 -440.55 42.2 -440.55 39.65 -443.2 L38.45 -444.6 38.25 -444.7 Q38.0 -444.8 38.0 -445.4 L37.85 -445.95 37.75 -445.9 Q33.85 -443.7 30.95 -443.65 29.95 -442.15 27.8 -442.15 26.4 -442.15 25.75 -443.0 24.1 -443.7 23.65 -444.8 23.5 -445.2 23.5 -446.8 23.5 -450.9 27.9 -459.55 33.35 -470.35 39.75 -470.35 44.75 -470.35 49.0 -466.7 52.8 -463.45 52.8 -460.85 52.8 -457.85 44.1 -450.5 L43.3 -449.8 M8.05 -450.4 Q10.0 -447.15 10.4 -445.25 L11.05 -444.1 Q11.05 -442.9 9.9 -441.85 8.5 -440.55 6.25 -440.55 3.05 -440.55 -0.05 -443.95 -2.65 -446.8 -2.65 -448.0 -2.65 -449.7 0.45 -456.05 3.8 -462.95 5.6 -462.95 11.3 -462.95 12.7 -461.35 13.0 -461.0 13.0 -459.5 13.0 -457.1 10.2 -455.3 L6.3 -453.15 8.05 -450.4 M37.55 -437.55 Q35.35 -429.1 33.95 -429.1 30.8 -429.1 26.95 -434.3 23.65 -438.65 23.65 -439.65 23.65 -441.75 27.75 -441.95 L28.75 -442.0 Q32.0 -442.0 34.95 -440.2 37.55 -438.65 37.55 -437.55 M34.65 -403.25 L48.45 -404.05 Q54.4 -404.05 57.7 -399.75 59.35 -397.6 59.8 -395.45 59.8 -390.9 52.25 -390.9 44.5 -390.9 37.85 -394.05 31.85 -396.95 31.85 -399.45 31.85 -402.5 34.65 -403.25 M24.95 -412.75 Q29.0 -418.1 33.3 -418.1 35.4 -418.1 37.05 -415.95 38.35 -414.25 38.35 -413.4 32.35 -403.25 26.5 -403.25 22.35 -403.25 21.55 -404.7 L21.55 -406.35 Q21.55 -408.35 24.95 -412.75 M62.55 -433.2 Q59.0 -429.6 57.2 -429.6 53.55 -429.6 51.5 -433.35 L50.2 -437.3 Q50.2 -437.9 52.35 -439.6 55.05 -441.7 57.85 -441.7 62.25 -441.7 64.45 -439.9 65.9 -438.7 65.9 -437.55 65.9 -436.55 62.55 -433.2 M73.15 -440.3 Q73.15 -443.95 77.1 -448.75 81.95 -454.75 88.8 -454.75 92.7 -454.75 93.6 -453.3 94.1 -452.55 93.75 -451.85 93.75 -448.85 89.95 -446.45 86.0 -443.9 83.45 -446.3 83.3 -443.45 81.3 -439.1 79.0 -434.15 76.85 -434.15 74.9 -434.15 73.8 -437.15 73.3 -438.7 73.15 -440.3 M78.8 -409.6 Q83.3 -409.6 85.9 -404.4 85.9 -403.65 85.25 -402.5 84.45 -401.2 83.6 -401.2 76.45 -401.2 74.3 -402.5 73.15 -403.25 73.15 -405.2 73.15 -406.15 75.15 -407.85 77.25 -409.6 78.8 -409.6 M105.25 -453.65 Q111.5 -453.65 114.15 -449.1 115.7 -446.45 115.7 -443.3 115.7 -436.95 108.15 -436.95 103.85 -436.95 100.15 -442.3 97.2 -446.55 97.2 -448.1 97.2 -453.65 105.25 -453.65 M98.3 -420.4 Q99.15 -422.1 100.45 -422.1 103.5 -422.1 105.9 -419.75 107.85 -417.75 107.85 -416.35 107.85 -415.55 107.05 -414.5 L106.5 -413.85 107.85 -414.2 Q109.6 -414.2 115.25 -409.6 120.75 -405.1 120.75 -404.0 120.75 -403.15 120.1 -401.95 119.3 -400.55 118.45 -400.55 113.95 -400.55 109.65 -404.55 105.55 -408.35 105.55 -411.7 105.55 -413.0 106.15 -413.6 105.3 -413.0 104.15 -413.0 100.4 -413.0 98.65 -415.25 97.65 -416.55 97.65 -417.7 97.65 -419.0 98.3 -420.4 M109.25 -410.85 L109.15 -410.9 109.15 -410.75 109.25 -410.85 M127.8 -401.2 Q131.4 -401.2 132.35 -397.95 132.95 -394.25 129.45 -394.25 125.95 -394.25 124.65 -395.75 124.0 -396.45 124.0 -397.4 124.0 -398.75 125.25 -400.0 126.45 -401.2 127.8 -401.2 M184.75 -392.45 Q187.25 -390.6 187.85 -385.15 187.3 -381.55 185.25 -378.15 181.25 -371.5 173.95 -371.5 167.65 -371.5 165.95 -373.75 165.45 -374.4 165.45 -376.5 L165.25 -376.75 166.1 -377.0 166.1 -377.25 Q166.1 -379.05 167.2 -381.35 L168.95 -382.85 170.7 -385.75 Q175.05 -392.55 179.8 -392.55 L181.5 -392.25 183.0 -392.55 184.75 -392.45 M167.55 -352.3 L166.65 -352.3 Q163.65 -349.65 161.15 -349.65 L156.65 -349.7 Q156.25 -351.3 156.25 -352.4 156.25 -354.2 160.9 -357.05 165.5 -359.85 168.1 -359.85 171.3 -359.85 171.15 -357.75 L171.6 -357.7 171.85 -356.45 Q171.85 -355.35 170.1 -353.8 168.4 -352.3 167.55 -352.3 M182.95 -342.3 L181.0 -342.75 181.4 -342.1 181.35 -340.85 Q177.4 -331.5 172.65 -331.5 L168.75 -332.0 Q168.75 -334.2 172.8 -338.6 176.95 -343.15 179.5 -343.15 L180.3 -343.05 179.7 -343.45 Q178.75 -344.2 178.75 -345.4 178.75 -348.4 189.1 -348.4 192.65 -348.4 192.55 -345.25 192.55 -343.7 191.15 -342.8 190.05 -342.15 189.1 -342.15 L182.95 -342.3 M127.0 -354.4 Q127.75 -353.75 128.15 -352.65 L129.05 -351.5 Q128.25 -349.65 126.9 -349.65 123.5 -349.65 122.55 -351.4 L122.2 -353.35 Q122.2 -356.35 126.05 -356.45 L127.0 -354.5 127.05 -354.4 127.0 -354.4 M123.35 -347.3 L123.5 -346.55 123.35 -345.1 Q120.5 -344.1 117.8 -344.1 117.0 -344.1 116.5 -344.75 116.05 -345.4 115.2 -345.4 113.6 -345.4 112.4 -342.95 111.15 -340.55 109.45 -340.55 106.55 -340.55 105.05 -342.65 L104.15 -344.85 104.2 -346.6 104.15 -347.1 Q104.15 -349.9 107.0 -351.2 L112.85 -353.85 113.65 -355.2 113.15 -356.05 Q112.2 -357.8 112.2 -358.5 112.2 -359.6 113.1 -360.95 114.5 -362.95 117.15 -362.95 119.1 -362.95 120.1 -361.35 120.75 -360.3 120.75 -359.45 120.5 -356.8 119.45 -355.35 119.9 -355.05 120.1 -354.15 L121.4 -352.3 122.1 -351.1 Q123.3 -348.8 123.35 -347.3 M108.95 -382.7 Q108.95 -381.3 107.85 -380.05 106.2 -378.15 102.95 -378.15 L98.15 -378.3 Q97.85 -379.2 97.85 -381.25 97.85 -382.6 99.15 -385.05 100.55 -387.65 101.65 -387.65 105.7 -387.65 107.7 -385.4 108.95 -383.95 108.95 -382.7 M115.65 -353.6 L115.7 -353.75 115.4 -353.8 115.35 -353.75 115.65 -353.6 M109.8 -306.75 Q106.95 -301.55 103.6 -301.55 102.05 -301.55 102.05 -304.8 102.05 -306.0 102.95 -307.15 104.25 -308.75 106.85 -308.75 109.2 -308.75 109.8 -306.75 M128.65 -328.5 L128.75 -330.45 Q129.0 -331.2 130.1 -331.2 135.7 -331.2 134.95 -325.5 L134.8 -324.75 Q135.6 -324.3 134.0 -324.3 130.35 -324.3 129.15 -326.35 L128.65 -328.5 M13.9 -379.2 Q17.15 -379.1 19.05 -376.5 20.4 -374.6 20.4 -372.95 L20.15 -371.25 20.25 -368.9 Q20.25 -363.45 10.25 -357.5 L2.75 -353.85 Q4.55 -352.95 6.45 -351.1 8.95 -348.65 10.1 -346.1 L10.75 -346.45 Q11.95 -346.1 12.05 -344.5 L13.2 -347.35 Q16.3 -354.1 21.4 -354.1 25.35 -354.1 26.6 -350.65 L26.85 -348.9 26.1 -348.4 Q26.05 -345.75 21.7 -341.2 L25.4 -337.05 26.05 -337.55 Q29.55 -335.9 30.25 -326.95 28.2 -320.7 24.95 -320.7 22.3 -320.7 21.1 -321.95 L19.25 -324.45 Q19.25 -325.25 19.85 -325.85 19.2 -326.55 19.1 -327.65 18.95 -328.55 19.1 -330.55 L16.15 -332.75 Q13.85 -334.2 13.35 -335.6 12.8 -335.95 12.25 -336.55 10.9 -337.9 10.9 -338.35 L11.1 -340.65 Q9.35 -338.15 4.55 -338.15 -1.95 -338.15 -6.05 -342.15 L-7.75 -344.0 -8.3 -343.95 Q-12.95 -343.95 -15.8 -348.15 -17.05 -350.0 -17.5 -351.3 -19.9 -351.9 -21.35 -355.05 L-21.85 -356.7 -22.15 -356.7 Q-27.25 -356.7 -29.55 -358.7 -31.9 -360.7 -32.35 -360.7 -34.7 -360.7 -37.75 -355.15 -40.85 -349.65 -43.45 -349.65 -52.2 -349.65 -54.6 -352.5 -55.35 -353.4 -55.35 -354.5 L-55.25 -355.55 -55.2 -356.55 -56.0 -357.15 Q-56.2 -357.4 -56.2 -358.5 -56.2 -360.5 -51.65 -365.75 -46.65 -371.5 -43.15 -371.5 -41.3 -371.5 -39.5 -370.7 L-39.4 -370.65 -39.4 -371.0 Q-39.4 -372.55 -37.45 -373.45 -36.0 -374.1 -34.75 -374.1 -32.7 -374.1 -31.75 -372.45 L-26.0 -372.45 -26.0 -372.8 -25.9 -372.8 Q-22.55 -372.5 -22.35 -369.55 L-21.2 -368.15 Q-19.35 -365.7 -15.3 -364.5 L-13.15 -363.7 Q-13.5 -365.25 -13.5 -367.35 L-13.1 -373.9 -16.0 -373.75 Q-19.6 -373.75 -22.35 -377.35 -24.55 -380.3 -24.55 -382.35 -24.55 -384.55 -22.35 -386.05 -19.95 -387.65 -16.0 -387.65 -11.4 -387.65 1.05 -372.45 L3.7 -375.2 Q8.85 -380.0 12.05 -380.0 13.1 -380.0 13.75 -379.35 L13.9 -379.2 M17.3 -368.45 L17.35 -368.55 16.85 -368.6 17.3 -368.45 M37.85 -342.7 Q37.85 -344.9 38.1 -345.4 38.95 -347.1 42.65 -347.1 52.35 -347.1 52.35 -343.15 L52.15 -340.2 42.65 -339.25 Q38.65 -339.25 37.85 -340.9 L37.85 -342.7 M11.85 -300.7 Q11.85 -299.5 11.2 -298.45 14.4 -296.95 18.6 -292.35 24.75 -285.55 24.95 -281.2 25.45 -272.0 27.7 -263.45 27.7 -256.6 23.5 -255.65 L23.4 -255.6 23.55 -255.45 Q24.3 -254.55 24.3 -253.05 24.3 -250.3 23.5 -248.7 L22.65 -247.35 Q26.3 -245.3 26.75 -237.95 26.75 -232.6 22.05 -232.6 13.3 -232.6 11.1 -234.7 10.35 -235.4 10.35 -238.1 10.35 -241.8 11.15 -243.75 9.2 -245.8 6.9 -251.9 L4.0 -261.2 Q5.8 -264.7 5.8 -266.45 5.8 -269.65 2.7 -271.65 1.0 -272.75 -4.15 -274.5 -9.1 -276.2 -11.2 -277.7 -14.55 -280.05 -14.95 -283.8 -15.1 -285.6 -18.0 -293.05 L-20.6 -300.45 -24.55 -305.35 Q-28.9 -311.2 -28.9 -311.5 L-28.25 -314.45 Q-27.15 -317.2 -24.7 -317.2 -21.95 -317.2 -20.05 -315.9 L-17.25 -313.3 Q-13.85 -310.1 -6.75 -311.35 -7.65 -312.65 -7.65 -314.85 -7.65 -317.25 -6.0 -319.45 -3.7 -322.5 0.75 -322.5 7.9 -322.5 7.4 -317.7 7.4 -315.85 5.4 -313.3 L3.7 -311.25 Q6.45 -309.25 8.65 -306.8 11.85 -303.15 11.85 -300.7 M35.6 -304.6 Q42.2 -304.6 42.2 -297.45 42.2 -293.0 40.1 -289.3 36.85 -283.55 29.75 -283.55 26.0 -283.55 24.95 -286.0 24.65 -286.75 24.65 -288.75 24.65 -291.65 25.65 -292.0 27.9 -292.85 30.3 -296.35 30.6 -296.75 30.95 -300.75 31.95 -304.6 35.6 -304.6 M47.55 -326.05 Q51.2 -326.05 50.3 -321.75 L50.05 -319.05 Q49.55 -318.0 47.55 -318.0 43.8 -318.0 42.85 -319.3 42.65 -319.6 42.65 -320.8 42.65 -321.95 44.3 -323.95 46.1 -326.05 47.55 -326.05 M69.85 -304.8 Q71.35 -307.15 72.95 -307.15 75.55 -307.15 75.55 -305.0 75.55 -298.65 69.0 -299.9 68.5 -300.4 68.5 -301.35 68.5 -302.75 69.85 -304.8 M55.6 -280.2 Q61.6 -280.2 64.3 -272.9 64.3 -267.2 60.3 -264.05 L64.75 -256.8 Q64.75 -255.5 63.95 -254.35 62.9 -252.9 61.1 -252.9 52.2 -252.9 49.8 -255.5 49.15 -256.2 49.15 -258.45 49.15 -259.5 49.85 -260.65 L49.8 -261.6 Q49.8 -262.2 51.4 -264.2 53.0 -266.15 53.0 -266.65 53.0 -267.65 52.7 -267.95 L52.4 -268.1 52.4 -268.6 Q51.35 -268.1 49.75 -268.1 47.0 -268.1 45.8 -270.5 45.1 -271.85 45.1 -273.15 45.1 -275.35 46.9 -277.25 48.9 -279.4 51.7 -279.4 L53.3 -279.35 Q54.25 -280.2 55.6 -280.2 M51.35 -291.4 Q52.3 -292.35 53.3 -292.35 61.9 -292.35 61.35 -286.5 L57.55 -286.15 Q52.95 -286.15 51.55 -287.0 50.45 -287.6 50.45 -289.4 50.45 -290.45 51.35 -291.4 M42.5 -259.75 Q41.25 -249.75 36.55 -249.75 32.15 -249.75 30.05 -259.55 L28.85 -269.7 Q28.85 -271.35 30.05 -273.5 31.65 -276.3 33.95 -276.3 40.25 -276.3 42.85 -270.15 43.15 -264.8 42.5 -259.75 M71.1 -251.05 Q75.35 -251.05 76.85 -246.1 76.85 -242.6 75.35 -242.6 67.35 -242.6 67.35 -245.2 67.35 -246.6 68.3 -248.55 69.5 -251.05 71.1 -251.05 M6.5 -228.3 Q5.4 -225.85 1.0 -225.85 -2.05 -225.85 -3.1 -228.95 L-3.5 -232.2 Q-3.5 -232.95 -1.55 -233.85 0.3 -234.7 1.4 -234.7 6.9 -234.7 6.9 -232.6 6.9 -229.2 6.5 -228.3 M0.85 -211.4 Q1.2 -210.6 1.9 -210.35 4.8 -209.15 9.45 -207.75 11.4 -207.15 11.4 -206.25 11.4 -201.65 2.05 -201.65 L-0.3 -201.7 1.25 -200.1 2.45 -197.65 Q6.5 -194.25 12.05 -177.9 12.05 -169.25 8.45 -164.25 3.7 -157.6 -8.05 -154.55 L-5.7 -154.2 Q-6.65 -153.7 -7.0 -152.85 L-10.55 -152.65 -10.6 -152.65 -11.55 -152.3 -11.75 -152.65 Q-20.25 -152.85 -22.85 -155.35 -23.9 -156.35 -23.9 -159.0 -23.9 -162.0 -21.05 -164.45 -18.25 -166.9 -18.25 -168.4 L-18.3 -168.8 -18.45 -168.7 -20.4 -167.45 Q-22.85 -166.15 -24.1 -166.15 -26.1 -166.15 -26.5 -167.2 L-26.5 -168.4 Q-26.5 -170.35 -23.85 -174.7 L-23.1 -175.85 -22.5 -175.8 -17.5 -179.65 -16.75 -179.45 -15.9 -179.9 -12.6 -181.3 -14.15 -184.25 -18.25 -183.9 Q-24.1 -183.9 -28.55 -187.5 L-30.5 -189.25 Q-32.4 -190.1 -33.45 -191.3 -36.15 -194.55 -36.95 -196.35 -37.75 -198.05 -37.75 -200.6 -37.75 -204.05 -35.3 -207.3 -31.9 -211.95 -25.4 -211.95 -20.8 -211.95 -18.85 -210.65 -17.75 -209.9 -16.85 -207.75 -15.95 -205.7 -14.55 -204.9 -12.35 -203.6 -7.35 -203.6 L-9.1 -205.05 Q-10.4 -206.6 -10.4 -208.95 -10.4 -210.95 -9.1 -212.75 -7.6 -214.9 -5.35 -214.9 -0.95 -214.9 0.2 -212.95 L0.85 -211.4 M13.8 -204.9 Q13.8 -207.75 17.8 -207.75 20.4 -207.75 21.85 -206.35 23.0 -205.25 23.0 -204.15 23.0 -200.75 21.4 -197.55 19.15 -193.1 14.9 -193.1 10.75 -193.1 10.75 -199.2 L15.3 -199.7 15.3 -202.45 Q13.8 -203.25 13.8 -204.9 M23.0 -211.45 Q19.25 -215.15 19.25 -216.65 19.25 -221.15 25.3 -221.15 31.95 -221.15 35.25 -217.1 37.4 -214.45 37.4 -212.05 37.4 -206.65 33.95 -206.65 27.9 -206.65 23.0 -211.45 M52.0 -230.25 L42.4 -231.45 Q40.95 -231.45 40.55 -233.25 L40.45 -235.2 Q40.45 -236.5 43.0 -239.3 46.1 -242.75 49.5 -242.75 51.2 -242.75 54.8 -239.05 58.2 -235.55 58.2 -234.45 58.2 -230.25 52.0 -230.25 M124.95 -275.0 Q121.85 -275.0 118.95 -275.9 116.55 -276.7 115.95 -277.45 L115.95 -282.05 119.1 -282.5 Q127.0 -282.5 126.35 -278.65 126.35 -275.0 124.95 -275.0 M133.1 -263.5 Q132.95 -264.2 132.35 -263.85 132.05 -263.7 132.05 -265.35 132.05 -266.45 132.85 -266.75 L136.5 -267.1 Q141.9 -267.1 144.35 -264.65 145.75 -263.2 145.75 -261.75 144.4 -258.1 143.65 -258.1 135.55 -258.1 133.75 -261.45 133.45 -261.95 133.1 -263.5 M135.95 -268.25 Q135.3 -267.75 133.65 -267.75 L130.9 -268.25 Q130.6 -269.05 130.6 -270.7 130.6 -271.4 131.25 -272.05 131.95 -272.75 132.7 -272.75 136.45 -272.75 136.1 -269.95 L135.95 -268.25 M109.15 -276.4 Q109.15 -274.65 107.7 -272.7 105.55 -269.9 101.65 -269.9 98.05 -269.9 96.8 -271.9 L96.2 -274.05 Q96.2 -281.35 103.6 -281.35 108.8 -281.35 109.15 -276.4 M154.45 -185.8 Q154.45 -185.45 137.15 -172.85 L132.2 -173.1 Q131.9 -173.5 131.9 -174.25 131.9 -176.3 133.45 -177.9 134.35 -180.2 137.75 -181.05 141.45 -181.95 142.35 -184.25 142.95 -186.85 143.55 -188.0 144.55 -190.0 147.25 -190.0 L148.0 -189.9 149.1 -190.0 Q152.05 -190.0 153.5 -188.25 154.45 -187.05 154.45 -185.8 M150.05 -177.6 Q151.45 -180.2 154.0 -180.2 157.7 -180.2 157.7 -178.0 157.7 -173.75 157.4 -172.9 156.45 -170.05 152.35 -170.05 149.7 -170.05 149.1 -171.7 L149.0 -173.5 Q149.0 -175.6 150.05 -177.6 M82.8 -188.05 Q82.8 -189.3 83.85 -190.15 84.9 -191.0 86.2 -191.0 89.85 -191.0 89.3 -186.1 L89.15 -182.6 Q89.15 -182.3 87.5 -182.3 82.8 -182.3 82.8 -188.05 M89.8 -141.85 Q90.35 -143.15 92.7 -143.15 98.1 -143.15 99.6 -136.05 L99.3 -129.75 96.55 -129.55 95.25 -129.75 93.35 -128.25 91.65 -128.55 Q91.25 -128.75 91.25 -129.8 91.25 -130.6 92.55 -131.9 L92.65 -132.0 Q91.9 -133.05 91.25 -134.5 L89.65 -139.65 Q89.65 -141.45 89.8 -141.85 M96.35 -122.9 Q96.35 -124.85 98.5 -124.85 102.15 -124.85 105.6 -122.05 108.65 -119.6 108.65 -117.95 108.65 -114.05 104.9 -114.05 98.9 -114.05 97.05 -118.4 96.45 -119.75 96.35 -121.4 L96.35 -122.9 M61.1 -177.35 L57.55 -177.4 57.55 -181.8 Q57.5 -183.65 57.6 -185.0 57.75 -187.5 59.15 -187.5 L61.9 -190.35 Q64.4 -193.25 66.55 -193.25 70.95 -193.25 71.45 -190.35 71.45 -189.7 61.1 -177.35 M49.5 -156.45 Q51.5 -156.45 56.9 -151.1 56.9 -149.3 55.15 -147.95 53.5 -146.65 51.7 -146.65 48.35 -146.65 47.55 -148.2 L47.4 -149.9 Q47.4 -150.55 48.05 -153.25 48.85 -156.45 49.5 -156.45 M33.3 -184.1 Q33.3 -182.0 31.75 -180.7 30.4 -179.55 28.75 -179.55 24.8 -179.55 21.05 -182.95 17.8 -185.9 17.8 -187.8 17.8 -190.45 18.35 -191.45 19.3 -193.1 22.35 -193.1 28.95 -193.1 33.3 -184.1 M16.85 -156.45 Q22.45 -156.45 24.95 -149.65 24.95 -145.9 22.5 -143.1 19.65 -139.9 14.65 -139.9 11.25 -139.9 10.55 -143.15 L10.55 -146.55 Q10.55 -148.75 11.7 -151.8 13.5 -156.45 16.85 -156.45 M7.95 -125.65 Q7.95 -122.35 4.3 -122.35 -3.6 -122.35 -4.55 -128.25 -3.15 -128.35 -2.35 -130.6 -1.8 -132.25 -1.8 -133.85 -1.8 -135.8 -3.25 -137.15 -4.5 -138.35 -4.65 -140.1 L-5.2 -141.5 -4.95 -143.8 -5.45 -144.15 -5.2 -144.65 Q-3.15 -148.25 -0.9 -148.25 8.2 -148.25 8.85 -139.25 8.85 -134.5 7.95 -125.65 M8.2 -100.0 Q8.2 -97.1 6.5 -93.9 4.45 -90.0 1.4 -90.0 -7.3 -90.0 -11.8 -95.15 -13.2 -96.8 -14.0 -98.75 L-14.55 -100.5 Q-14.55 -104.2 -11.75 -104.2 -9.9 -104.2 -7.55 -103.35 -5.15 -102.45 -2.85 -102.45 L6.7 -101.65 Q8.2 -101.2 8.2 -100.0 M5.6 -109.5 Q5.6 -105.85 0.35 -105.85 -2.15 -105.85 -5.75 -109.85 -8.75 -113.15 -9.4 -116.2 L-10.0 -116.15 Q-21.85 -116.15 -21.85 -123.0 L-21.7 -125.8 Q-20.5 -127.6 -14.7 -127.6 -7.8 -127.6 -6.8 -123.1 L-6.0 -123.15 Q-1.45 -123.15 2.55 -116.3 4.55 -112.9 5.6 -109.5 M37.25 -120.8 Q40.45 -122.9 44.95 -122.9 50.65 -122.9 50.65 -118.2 50.65 -113.05 48.45 -113.05 34.45 -113.05 34.45 -117.3 34.45 -119.0 37.25 -120.8 M64.1 -130.4 Q62.55 -124.7 59.8 -124.7 54.9 -124.7 53.95 -125.55 L53.95 -126.55 Q53.95 -128.35 55.4 -129.55 L59.15 -131.7 63.85 -131.7 64.1 -130.4 M73.45 -87.6 Q75.35 -85.75 75.35 -84.7 75.35 -83.0 73.5 -81.75 71.8 -80.65 69.8 -80.65 67.55 -80.65 66.25 -81.95 65.95 -81.55 66.05 -77.15 65.45 -72.95 61.75 -72.95 59.05 -72.95 58.35 -78.55 L58.2 -84.4 60.05 -89.15 Q62.2 -93.9 63.65 -93.9 67.0 -93.9 69.5 -92.3 71.5 -91.0 71.5 -90.0 71.5 -89.5 73.45 -87.6 M42.65 -88.4 Q37.75 -82.3 35.6 -82.3 33.85 -82.3 32.85 -84.55 32.2 -86.05 32.2 -87.0 32.2 -90.95 34.35 -96.65 37.5 -105.05 43.0 -105.05 45.2 -105.05 47.85 -98.95 47.85 -94.85 42.65 -88.4 M40.55 -55.35 Q36.2 -49.2 29.75 -49.2 26.3 -49.2 24.65 -51.6 23.65 -53.05 23.65 -54.35 23.65 -63.95 34.45 -65.6 33.0 -67.9 33.0 -69.5 33.0 -71.05 34.3 -72.9 35.95 -75.35 38.5 -75.35 42.85 -75.35 44.6 -71.05 44.6 -70.0 43.55 -68.55 42.5 -67.1 42.5 -66.45 42.5 -65.6 43.25 -65.25 43.95 -64.9 43.95 -64.1 43.95 -60.2 40.55 -55.35 M20.95 -82.45 Q20.95 -80.9 20.1 -78.5 18.9 -75.35 17.15 -75.35 16.3 -75.35 12.7 -80.05 9.25 -84.6 9.25 -84.95 9.25 -86.55 10.6 -89.0 12.3 -92.1 14.65 -92.1 19.0 -92.1 20.4 -87.35 21.1 -85.0 20.95 -82.45 M9.7 -58.55 Q9.7 -57.8 10.0 -57.2 11.3 -58.4 13.35 -58.4 20.75 -58.4 21.35 -53.05 21.65 -50.3 20.3 -47.1 28.7 -40.05 29.0 -38.6 29.1 -38.05 28.6 -36.45 27.95 -34.5 27.95 -32.3 33.15 -25.8 33.15 -24.9 33.15 -23.0 31.85 -21.0 30.15 -18.4 27.25 -18.4 21.95 -18.4 21.4 -23.25 L21.85 -28.25 Q21.85 -28.95 19.15 -30.65 L15.95 -32.65 Q15.65 -30.85 15.7 -27.6 15.75 -24.4 15.4 -22.9 14.35 -17.85 6.9 -14.35 L6.7 -14.4 2.05 -13.95 Q-3.1 -13.95 -5.35 -17.35 L-7.0 -21.4 -7.0 -21.5 Q-8.3 -23.7 -8.3 -27.6 -8.3 -29.4 -7.55 -32.2 L-7.95 -34.75 -9.1 -47.25 Q-9.1 -49.6 -7.5 -54.55 -5.55 -60.5 -3.5 -60.5 L0.15 -60.0 Q-0.05 -60.4 -0.05 -61.5 -0.05 -68.65 4.35 -71.2 L5.3 -72.25 Q7.15 -73.9 9.75 -73.9 15.1 -73.9 16.5 -68.8 16.5 -65.45 13.1 -62.75 9.7 -60.05 9.7 -58.55 M162.0 -189.85 Q162.0 -195.2 165.6 -195.2 170.55 -195.2 170.55 -190.2 170.55 -186.3 167.55 -186.3 162.0 -186.3 162.0 -189.85 M169.5 -180.7 Q170.1 -181.5 173.65 -181.5 179.1 -181.5 180.75 -179.85 181.35 -179.2 181.35 -177.65 181.35 -174.75 179.5 -174.75 169.5 -174.75 169.5 -179.2 169.15 -180.2 169.5 -180.7 M-12.4 -423.4 L-13.0 -425.75 Q-13.0 -426.7 -11.85 -427.5 -10.7 -428.3 -9.25 -428.3 -4.45 -428.3 -3.9 -424.55 -3.9 -423.2 -5.3 -422.1 -6.5 -421.2 -7.3 -421.2 -11.05 -421.2 -12.4 -423.4 M-32.15 -400.55 Q-28.0 -400.55 -25.2 -394.0 -25.2 -392.35 -27.95 -390.0 -30.55 -387.8 -31.85 -387.8 -39.7 -387.8 -41.95 -389.9 -42.7 -390.6 -42.75 -391.4 L-42.65 -392.05 Q-42.65 -392.75 -37.5 -396.7 L-32.15 -400.55 M-27.8 -410.0 Q-27.8 -412.0 -25.75 -413.55 -23.4 -415.35 -19.55 -415.35 L-18.75 -415.25 -18.25 -415.3 Q-13.15 -415.3 -14.15 -412.05 -14.15 -411.25 -15.2 -409.15 -16.45 -404.45 -21.5 -404.45 -25.9 -404.45 -27.25 -407.15 L-27.8 -410.0 M-51.75 -316.45 Q-51.65 -318.1 -51.2 -318.7 -50.0 -320.4 -45.65 -320.4 -41.5 -320.4 -40.5 -316.15 L-40.45 -315.8 Q-40.2 -314.85 -40.55 -313.4 -40.35 -312.15 -40.5 -311.2 -40.85 -309.4 -42.8 -309.4 -44.75 -309.4 -45.8 -310.25 L-46.55 -310.15 -51.75 -316.45 M-71.15 -324.3 Q-73.8 -322.65 -78.7 -322.65 -81.7 -322.65 -83.6 -325.1 -84.9 -326.85 -84.9 -327.75 -84.9 -331.0 -81.15 -331.0 L-70.85 -330.55 Q-68.9 -330.0 -68.9 -327.7 -68.9 -325.7 -71.15 -324.3 M-17.7 -333.2 Q-17.1 -335.0 -14.7 -335.0 -8.1 -335.0 -8.1 -331.35 -7.55 -325.0 -12.4 -325.0 L-17.45 -325.25 -17.55 -325.85 -19.1 -326.3 -19.25 -329.5 Q-19.25 -332.3 -17.7 -333.2 M-109.6 -361.8 Q-107.4 -361.8 -106.35 -358.4 -106.35 -350.35 -109.25 -350.35 -113.45 -350.35 -115.75 -353.45 L-117.5 -357.0 -117.05 -357.05 -117.15 -357.2 -117.3 -357.65 Q-118.7 -358.15 -119.65 -360.1 -120.55 -361.9 -120.55 -362.85 -120.55 -365.1 -119.95 -366.25 L-120.55 -367.05 -120.9 -366.85 Q-122.9 -369.5 -122.9 -373.2 -122.9 -374.25 -122.0 -375.35 L-120.9 -376.35 Q-117.85 -376.35 -114.0 -369.7 -111.6 -365.65 -110.2 -361.7 L-109.6 -361.8 M-115.2 -351.0 Q-114.65 -345.75 -118.3 -345.75 -122.4 -345.75 -125.85 -349.45 -127.3 -351.0 -127.9 -352.05 L-128.45 -353.35 Q-128.45 -354.55 -127.3 -355.9 -126.05 -357.35 -124.7 -357.35 -123.8 -357.35 -119.6 -354.75 -115.2 -352.05 -115.2 -351.0 M-133.1 -378.0 Q-128.5 -378.0 -126.3 -374.7 -125.2 -373.05 -125.05 -371.25 -125.05 -369.9 -125.65 -368.35 -126.5 -366.2 -127.95 -366.2 -129.85 -366.2 -134.55 -368.3 L-134.85 -368.3 Q-135.7 -368.3 -136.8 -368.85 -136.95 -367.0 -140.4 -364.0 L-140.4 -364.45 -140.6 -364.15 -140.7 -364.1 Q-142.2 -362.3 -145.45 -362.3 -149.9 -362.3 -152.0 -364.25 L-152.0 -364.65 -152.05 -364.65 -152.8 -364.6 -152.8 -364.4 -153.2 -365.35 Q-154.3 -368.7 -154.7 -369.45 -155.7 -371.25 -157.4 -372.15 L-158.25 -371.35 Q-159.8 -370.1 -160.55 -370.1 -165.2 -370.1 -167.25 -372.45 -168.4 -373.8 -168.4 -375.15 -168.4 -379.65 -167.75 -381.15 -166.05 -385.05 -159.9 -385.05 -159.05 -385.05 -155.45 -383.65 L-154.1 -383.9 Q-152.1 -383.9 -150.7 -381.6 -148.05 -381.2 -145.35 -378.8 L-144.25 -377.75 Q-141.5 -377.6 -139.7 -376.1 L-139.6 -376.2 Q-137.6 -378.0 -133.1 -378.0 M-145.6 -360.35 L-146.3 -360.25 -146.5 -360.25 -145.6 -360.35 M-156.4 -348.35 Q-162.2 -348.35 -165.05 -351.6 L-166.8 -354.9 -166.65 -358.3 Q-165.85 -360.5 -162.15 -360.5 -158.5 -360.5 -154.7 -358.0 -151.5 -355.9 -151.5 -355.05 -151.5 -353.2 -152.5 -351.2 -153.9 -348.35 -156.4 -348.35 M-149.75 -349.5 Q-150.15 -350.1 -150.15 -350.8 L-150.05 -351.5 Q-150.05 -352.85 -146.3 -356.0 -142.25 -359.45 -139.25 -359.45 -134.7 -359.45 -134.55 -356.3 -134.55 -353.7 -136.15 -351.2 -138.45 -347.7 -142.85 -347.7 -148.35 -347.7 -149.75 -349.5 M-134.55 -351.95 Q-133.65 -353.6 -132.2 -353.6 -129.45 -353.6 -128.35 -351.75 -128.0 -351.15 -127.8 -350.35 -127.8 -349.3 -129.7 -348.2 -131.4 -347.2 -132.25 -347.2 -134.4 -347.2 -135.0 -348.55 -135.2 -348.95 -135.2 -350.05 -135.2 -350.8 -134.55 -351.95 M-153.9 -325.35 Q-153.9 -326.65 -152.5 -328.0 -151.0 -329.5 -149.25 -329.5 -145.35 -329.5 -145.65 -326.4 -145.65 -325.55 -146.15 -324.45 -146.85 -323.0 -147.95 -323.0 -152.75 -323.0 -153.8 -324.15 L-153.9 -325.35 M-91.15 -324.6 L-91.5 -324.1 -91.9 -324.55 Q-92.55 -323.8 -95.1 -321.65 -98.6 -318.7 -98.8 -316.7 -99.15 -312.55 -101.35 -312.1 L-106.35 -312.35 Q-107.15 -312.35 -107.8 -311.7 -108.45 -311.05 -109.25 -311.05 L-113.5 -311.5 -113.75 -314.3 -113.5 -316.95 Q-112.75 -316.95 -111.8 -317.8 -110.6 -320.3 -106.5 -324.45 -100.2 -330.85 -95.7 -330.85 -91.0 -330.85 -91.0 -325.6 L-91.15 -324.6 M-106.0 -261.8 L-105.9 -261.8 Q-101.2 -261.4 -101.4 -258.0 -101.4 -257.15 -102.8 -256.65 L-106.65 -255.5 -110.9 -255.5 Q-111.15 -255.65 -111.15 -257.3 -111.15 -258.2 -110.35 -259.7 L-110.25 -259.8 -111.15 -260.35 -112.2 -261.1 -112.3 -258.9 -114.7 -258.75 Q-118.3 -258.75 -119.0 -259.9 L-119.0 -261.35 -118.8 -262.55 -118.95 -263.05 Q-118.95 -265.6 -115.65 -266.75 -113.7 -267.45 -108.6 -268.4 L-105.85 -268.4 -105.55 -266.65 Q-105.55 -263.4 -105.85 -262.3 L-106.0 -261.8 M-134.4 -272.1 Q-135.9 -272.1 -136.8 -273.3 -137.45 -274.15 -137.45 -274.75 -137.45 -275.75 -135.1 -277.6 -132.2 -279.85 -131.05 -282.0 -130.9 -282.9 -130.85 -286.2 -130.35 -289.1 -127.65 -289.1 -123.25 -289.1 -124.05 -285.2 -128.85 -272.1 -134.4 -272.1 M-133.25 -244.05 Q-133.25 -245.65 -132.05 -246.95 -131.0 -248.1 -130.25 -248.1 -126.35 -248.1 -126.35 -244.05 L-126.35 -242.55 Q-126.65 -241.75 -128.3 -241.75 L-133.0 -242.1 -133.25 -244.05 M-90.75 -235.85 Q-91.4 -234.85 -92.15 -234.2 -93.6 -232.9 -96.1 -232.9 L-98.45 -233.4 Q-98.65 -233.75 -98.65 -235.35 -98.65 -237.05 -98.0 -238.75 -97.1 -241.1 -95.4 -241.1 -88.7 -241.1 -84.55 -237.85 -81.5 -235.45 -81.5 -233.55 -81.5 -231.95 -81.8 -231.15 -81.15 -230.8 -82.8 -230.8 -87.05 -230.8 -89.1 -233.05 L-90.6 -235.7 -90.75 -235.85 M-31.5 -278.9 Q-26.6 -278.9 -22.85 -274.85 -19.75 -271.5 -19.75 -269.05 -19.75 -267.15 -20.05 -266.6 -20.85 -265.15 -23.9 -265.15 -27.4 -265.15 -27.65 -265.75 -28.2 -267.0 -29.1 -267.45 -32.5 -259.9 -35.1 -259.9 L-39.7 -260.2 Q-40.7 -266.8 -40.7 -268.4 -40.7 -270.35 -38.25 -274.15 -35.15 -278.9 -31.5 -278.9 M-68.1 -252.6 Q-68.1 -249.4 -71.45 -247.0 -76.25 -243.55 -78.25 -240.45 L-79.7 -240.4 Q-80.0 -240.45 -80.0 -242.1 -80.0 -245.25 -77.4 -249.9 -74.25 -255.5 -70.25 -255.5 -67.35 -255.5 -68.1 -252.6 M-62.8 -290.25 Q-66.75 -290.25 -67.85 -292.35 L-68.1 -294.45 Q-68.1 -298.3 -65.05 -298.3 -62.1 -298.3 -60.35 -296.6 -59.05 -295.35 -59.05 -294.4 -59.05 -293.15 -60.35 -291.7 -61.65 -290.25 -62.8 -290.25 M-61.8 -222.45 Q-54.55 -222.45 -53.75 -218.15 -53.25 -215.75 -54.25 -211.15 L-52.5 -211.4 Q-51.6 -213.4 -47.95 -213.4 -42.0 -213.4 -42.0 -209.1 -42.0 -204.8 -58.5 -195.6 -56.3 -194.7 -55.0 -192.55 -54.15 -191.05 -53.95 -189.65 L-53.8 -189.85 Q-52.5 -189.4 -52.5 -187.8 -52.5 -186.35 -53.95 -184.7 -55.55 -182.95 -57.35 -182.95 -60.55 -182.95 -62.95 -187.6 L-64.3 -190.5 Q-67.5 -192.25 -70.85 -198.35 -74.75 -205.45 -74.75 -207.9 -74.75 -212.0 -72.1 -216.35 -68.45 -222.45 -61.8 -222.45 M-167.3 -367.85 Q-162.35 -367.85 -162.35 -364.25 -162.35 -363.2 -163.75 -361.95 -165.0 -360.9 -165.65 -360.9 -168.2 -360.9 -168.7 -362.1 -169.0 -362.75 -168.75 -363.5 -168.75 -367.85 -167.3 -367.85 M-28.25 -165.75 L-28.1 -165.25 Q-28.1 -163.85 -29.9 -162.5 -31.8 -161.0 -34.1 -161.0 -34.75 -161.0 -38.0 -162.85 -40.2 -164.1 -41.85 -164.35 L-42.25 -164.2 Q-44.6 -163.45 -44.6 -161.8 -44.6 -161.35 -43.3 -159.4 -42.0 -157.4 -42.0 -156.7 -42.0 -154.55 -43.6 -152.05 -45.45 -149.25 -47.6 -149.25 -58.25 -149.25 -65.4 -155.8 -71.0 -160.95 -71.0 -165.0 -71.0 -167.75 -66.7 -170.2 L-65.75 -170.15 -65.25 -171.45 Q-64.6 -172.7 -64.6 -173.5 -64.6 -174.35 -65.25 -175.45 -65.9 -176.6 -65.9 -177.4 -65.9 -180.3 -62.3 -181.15 L-54.1 -181.65 -49.05 -181.3 -48.75 -181.4 -48.55 -181.2 -43.8 -181.3 Q-33.5 -181.3 -29.05 -175.7 -26.8 -172.9 -26.65 -169.95 L-26.75 -168.4 Q-27.05 -166.15 -28.25 -165.75 M-49.9 -125.35 Q-50.2 -124.95 -50.8 -120.85 L-49.55 -121.05 Q-48.75 -121.05 -46.6 -118.6 -44.6 -116.25 -44.6 -115.65 -44.6 -111.7 -50.55 -111.7 -52.6 -111.7 -53.45 -113.9 -53.95 -115.1 -53.95 -116.3 L-53.8 -117.5 -53.75 -117.6 -54.1 -117.6 Q-56.5 -117.6 -57.4 -121.1 L-57.9 -124.75 Q-57.9 -128.1 -56.1 -131.0 -53.4 -135.5 -47.6 -135.5 -41.4 -135.5 -39.9 -132.85 -39.55 -132.3 -39.55 -129.8 -39.55 -126.55 -43.9 -126.45 -49.15 -126.35 -49.9 -125.35 M-77.45 -135.95 Q-75.15 -141.35 -71.25 -141.35 -68.1 -141.35 -68.1 -139.3 -68.1 -136.85 -69.7 -132.75 -71.85 -127.15 -75.05 -127.15 L-78.7 -127.3 Q-79.05 -127.8 -79.05 -129.0 -79.05 -132.1 -77.45 -135.95 M-38.6 -107.2 L-37.95 -110.8 Q-37.2 -113.4 -36.4 -113.4 -31.7 -113.4 -28.45 -110.45 -26.0 -108.2 -26.0 -106.65 -26.0 -105.95 -27.8 -104.2 -29.6 -102.45 -30.55 -102.45 -36.2 -102.45 -37.95 -104.75 -38.5 -105.5 -38.6 -106.35 L-38.6 -107.2 M-97.3 -183.1 L-97.55 -184.55 Q-97.55 -189.85 -93.45 -189.85 -89.85 -189.85 -89.45 -185.7 -89.45 -184.0 -91.1 -182.75 -92.6 -181.65 -94.1 -181.65 -96.55 -181.65 -97.3 -183.1 M-97.65 -177.85 Q-95.95 -179.65 -94.75 -180.2 L-91.0 -180.0 -90.75 -177.5 Q-90.75 -175.85 -91.8 -174.35 -93.35 -172.15 -96.35 -172.15 L-99.95 -172.3 -99.95 -175.25 -97.65 -177.85 M-89.3 -162.0 Q-85.0 -162.0 -85.7 -159.2 -85.7 -158.3 -87.0 -156.8 -88.65 -154.85 -90.9 -154.85 -93.5 -154.85 -94.05 -156.45 L-94.1 -158.25 Q-94.1 -162.0 -89.3 -162.0 M-101.65 -144.35 L-101.8 -146.8 Q-101.8 -150.2 -100.15 -150.2 -95.7 -150.2 -95.2 -146.95 -95.2 -146.05 -96.35 -145.0 -97.55 -143.8 -98.85 -143.8 -100.4 -143.8 -101.65 -144.35 M-90.25 -120.0 Q-81.0 -120.0 -81.0 -114.55 -81.0 -113.1 -82.3 -111.7 -84.05 -109.75 -87.1 -109.75 -91.5 -109.75 -93.3 -112.4 L-94.25 -115.25 Q-94.25 -120.0 -90.25 -120.0 M-32.0 -71.95 Q-29.85 -79.2 -22.5 -79.2 -16.5 -79.2 -11.5 -73.25 -7.3 -68.2 -7.3 -64.55 -7.3 -62.75 -8.45 -60.15 -9.8 -57.1 -11.45 -57.1 -13.85 -57.1 -15.5 -58.65 L-17.15 -60.2 Q-17.8 -60.2 -19.6 -59.05 -21.4 -57.9 -22.15 -57.9 -32.8 -57.9 -32.8 -62.55 -32.8 -69.25 -32.0 -71.95" fill="#7c7c7c" fill-rule="evenodd" stroke="none"/>
    </g>
  </defs>
</svg>
