<?xml version="1.0" encoding="UTF-8" standalone="no"?>
<svg xmlns:ffdec="https://www.free-decompiler.com/flash" xmlns:xlink="http://www.w3.org/1999/xlink" ffdec:objectType="frame" height="513.9px" width="383.5px" xmlns="http://www.w3.org/2000/svg">
  <g transform="matrix(1.0, 0.0, 0.0, 1.0, 183.4, 511.25)">
    <use ffdec:characterId="229" height="476.35" transform="matrix(1.0, 0.0, 0.0, 1.0, -172.95, -503.6)" width="361.25" xlink:href="#shape0"/>
  </g>
  <defs>
    <g id="shape0" transform="matrix(1.0, 0.0, 0.0, 1.0, 172.95, 503.6)">
      <path d="M92.4 -498.6 Q104.3 -498.6 104.3 -493.9 104.3 -489.95 97.1 -484.4 90.05 -478.95 83.7 -478.4 L84.15 -478.35 84.4 -477.5 Q84.4 -476.15 80.55 -473.35 76.4 -470.35 73.25 -470.35 71.1 -470.35 69.75 -472.85 L68.8 -475.5 69.0 -477.35 Q69.45 -479.1 71.0 -479.1 L72.05 -479.0 Q72.55 -480.6 77.05 -482.1 74.9 -484.25 74.9 -485.1 74.9 -488.95 77.55 -492.3 81.45 -497.2 89.9 -498.35 L92.4 -498.6 M61.0 -503.6 Q70.25 -503.6 70.25 -493.35 70.25 -491.3 69.25 -489.25 67.8 -486.25 65.0 -486.25 57.65 -486.25 55.75 -490.9 55.25 -492.1 55.25 -496.3 55.25 -503.6 61.0 -503.6 M45.35 -463.25 Q42.95 -459.75 39.0 -459.75 35.65 -459.75 33.75 -462.95 L33.15 -464.55 32.3 -463.1 Q29.35 -458.35 24.6 -458.35 L24.0 -458.0 23.4 -458.55 Q22.6 -458.95 22.25 -460.0 L22.05 -461.85 Q22.05 -464.05 24.55 -469.0 27.6 -475.0 31.0 -475.0 31.8 -475.0 32.5 -474.25 33.0 -475.4 34.05 -476.5 36.5 -479.0 40.0 -479.0 46.4 -479.0 47.3 -469.4 47.3 -466.1 45.35 -463.25 M47.55 -447.65 Q47.55 -449.75 48.25 -450.45 49.35 -451.6 53.0 -451.6 54.7 -451.6 56.05 -451.0 L56.25 -451.0 Q59.0 -451.0 59.0 -449.05 59.0 -447.9 57.25 -447.0 L56.1 -446.5 Q54.4 -444.6 52.5 -444.6 50.0 -444.6 48.55 -446.1 L47.55 -447.65 M79.3 -460.25 Q79.3 -461.35 81.4 -462.1 83.15 -462.75 84.4 -462.75 90.65 -462.75 90.65 -461.1 90.65 -460.7 88.95 -459.25 87.25 -457.85 86.9 -457.85 81.35 -457.85 79.8 -458.95 79.3 -459.35 79.3 -460.25 M6.8 -448.5 L6.55 -446.6 Q6.15 -446.1 4.5 -446.1 0.6 -446.1 -1.7 -450.2 L-3.25 -454.4 Q-3.25 -455.05 -2.5 -455.75 -1.8 -456.35 -1.25 -456.35 1.8 -456.35 4.55 -452.75 6.8 -449.8 6.8 -448.5 M34.75 -452.6 Q38.0 -452.6 38.0 -448.9 38.0 -445.5 35.5 -445.5 29.55 -445.5 29.55 -448.25 29.55 -449.75 31.05 -451.1 32.7 -452.6 34.75 -452.6 M32.8 -423.25 Q28.55 -414.85 25.0 -414.85 24.7 -414.85 23.5 -415.5 L23.5 -418.1 Q25.65 -421.45 31.25 -425.35 L32.75 -425.1 32.8 -423.25 M39.0 -408.1 Q40.0 -409.0 40.75 -409.0 43.7 -409.0 46.05 -407.25 L47.55 -405.85 47.55 -405.9 47.75 -406.6 Q47.75 -411.35 53.5 -411.35 55.05 -411.35 57.0 -409.85 58.8 -408.5 58.8 -407.75 58.8 -406.15 58.05 -404.75 57.05 -402.75 55.0 -402.75 49.45 -402.75 48.0 -404.3 47.8 -402.35 46.0 -402.35 42.0 -402.35 39.5 -404.0 L37.75 -405.65 Q37.75 -407.05 39.0 -408.1 M100.05 -458.25 Q100.95 -460.1 101.4 -460.1 105.45 -460.1 108.45 -458.4 111.3 -456.75 111.3 -454.75 111.3 -451.75 106.9 -451.75 103.4 -451.75 101.0 -453.35 99.15 -454.65 99.15 -455.6 99.15 -456.4 100.05 -458.25 M168.8 -390.6 Q168.8 -392.25 171.7 -395.15 174.8 -398.25 177.4 -398.25 183.15 -398.25 183.15 -394.1 183.15 -392.5 180.55 -390.35 177.4 -387.85 173.4 -387.85 169.75 -387.85 168.95 -389.1 168.8 -389.3 168.8 -390.6 M180.8 -354.4 Q180.8 -356.1 183.4 -356.1 L188.05 -355.85 Q188.3 -355.75 188.3 -354.5 188.3 -352.1 184.15 -352.1 181.75 -352.1 181.05 -353.2 L180.8 -354.4 M112.55 -357.65 Q112.55 -356.55 111.7 -355.8 L108.65 -353.35 106.05 -353.35 Q105.55 -353.85 105.55 -355.05 105.55 -356.4 106.8 -357.85 108.3 -359.6 110.4 -359.6 112.55 -359.6 112.55 -357.65 M5.9 -372.45 Q2.85 -368.35 0.35 -368.35 -3.15 -368.35 -4.25 -370.85 -4.8 -372.15 -4.7 -373.5 -4.7 -375.9 -0.7 -382.85 4.0 -391.0 8.0 -391.0 14.0 -391.0 15.75 -387.35 16.3 -386.15 16.3 -383.25 16.3 -376.6 8.75 -376.6 L5.9 -372.45 M14.65 -356.15 Q19.9 -355.95 25.5 -357.5 L27.3 -357.25 Q27.5 -357.0 27.5 -355.75 27.5 -353.65 23.8 -351.4 20.05 -349.1 16.5 -349.1 14.05 -349.1 13.05 -351.5 12.55 -352.7 12.55 -354.05 12.55 -355.6 12.95 -355.95 L14.65 -356.15 M1.75 -352.1 Q-2.3 -352.1 -10.25 -358.0 L-13.75 -360.65 Q-15.5 -360.95 -15.95 -362.1 L-16.0 -362.65 Q-17.7 -364.3 -17.7 -365.05 -17.7 -366.85 -15.5 -366.85 -13.25 -366.85 -10.5 -365.2 -7.75 -363.55 -4.0 -363.6 1.15 -363.65 5.05 -361.95 8.8 -360.3 8.8 -358.3 8.8 -356.4 6.8 -354.35 4.55 -352.1 1.75 -352.1 M27.0 -339.4 Q25.15 -338.25 22.25 -338.25 20.6 -338.25 19.25 -340.7 18.25 -342.55 18.25 -343.3 18.25 -346.5 24.5 -346.5 28.4 -346.5 28.55 -341.5 28.55 -340.4 27.0 -339.4 M5.25 -326.25 Q5.25 -319.6 1.5 -319.6 L-6.5 -325.25 Q-6.5 -325.85 -7.1 -326.65 -7.7 -327.4 -7.7 -328.05 -7.7 -330.75 -1.5 -330.75 3.4 -330.75 4.75 -328.9 5.25 -328.2 5.25 -326.25 M6.05 -316.9 L7.25 -317.0 Q15.0 -317.0 15.0 -310.85 15.0 -307.6 12.55 -304.25 14.4 -305.0 16.5 -305.0 18.8 -305.0 24.3 -288.8 24.3 -287.2 22.75 -284.5 L21.2 -282.35 Q22.5 -281.6 23.3 -280.3 24.3 -278.7 24.25 -277.0 24.25 -272.7 24.05 -271.95 23.0 -267.95 18.5 -267.95 L16.7 -268.1 Q15.55 -262.25 15.0 -262.25 7.0 -262.25 4.85 -265.05 4.15 -265.95 4.15 -267.05 L4.25 -268.0 5.05 -271.2 5.85 -271.2 Q5.9 -272.1 6.15 -272.4 6.5 -272.9 7.6 -273.35 L8.25 -274.3 Q9.5 -275.8 9.5 -276.6 L9.0 -277.9 Q8.5 -278.55 8.5 -279.2 8.5 -283.3 15.4 -283.5 12.7 -284.0 10.05 -290.75 8.95 -293.6 8.2 -296.55 L8.0 -296.6 7.9 -297.7 7.8 -298.15 7.8 -298.45 7.8 -298.5 8.0 -299.65 Q3.95 -296.75 -1.0 -296.75 -4.6 -296.75 -6.75 -301.75 -8.15 -305.0 -8.25 -307.2 L-8.45 -308.0 -9.0 -311.3 -9.0 -311.55 Q-10.4 -310.75 -12.0 -310.75 -13.05 -310.75 -15.05 -312.35 L-16.1 -313.2 -16.95 -314.05 -17.2 -314.35 -17.1 -314.55 -17.0 -315.25 Q-17.0 -316.15 -16.45 -316.9 -16.45 -318.15 -13.75 -319.35 -11.2 -320.5 -8.75 -320.5 -2.45 -320.5 -2.45 -317.4 -2.45 -316.9 -3.15 -315.75 L-2.65 -316.0 Q1.35 -317.65 4.25 -318.1 L5.8 -317.85 Q6.05 -318.0 6.05 -316.9 M37.75 -309.5 L38.3 -306.1 Q38.3 -305.6 36.55 -304.85 34.7 -304.1 33.25 -304.1 30.6 -304.1 28.55 -306.2 27.0 -307.85 27.0 -308.5 27.0 -309.35 28.25 -310.9 29.75 -312.75 31.5 -312.75 36.25 -312.75 37.75 -309.5 M39.8 -299.8 Q39.8 -296.5 39.5 -295.5 38.35 -291.85 34.0 -291.85 31.45 -291.85 29.5 -294.0 28.0 -295.65 28.0 -296.4 28.0 -298.2 30.5 -300.35 33.0 -302.5 35.0 -302.5 36.9 -302.5 38.5 -301.35 39.8 -300.4 39.8 -299.8 M59.8 -283.0 Q62.25 -281.3 62.25 -279.25 62.25 -277.5 60.55 -277.25 L61.05 -276.0 Q61.05 -275.2 50.5 -266.95 48.35 -266.95 48.0 -267.85 L48.0 -268.9 Q48.0 -269.75 49.5 -271.95 L49.65 -271.75 51.35 -273.25 Q54.2 -275.5 55.5 -275.5 57.05 -275.5 57.65 -274.75 58.8 -276.1 59.2 -277.25 55.75 -277.4 51.5 -278.45 46.3 -279.75 46.3 -281.15 47.05 -283.7 47.05 -285.1 L49.5 -285.35 Q56.4 -285.35 59.8 -283.0 M30.75 -277.75 Q29.8 -278.9 29.8 -280.45 29.8 -283.5 34.75 -283.5 39.5 -283.5 41.3 -274.5 41.3 -272.9 37.25 -269.7 33.95 -269.7 33.45 -272.05 33.6 -274.65 33.25 -275.2 L30.75 -277.75 M19.5 -257.7 Q23.0 -257.7 25.05 -252.7 25.6 -247.0 21.0 -247.0 15.85 -247.0 14.6 -248.9 14.3 -249.35 14.3 -251.15 14.3 -252.8 15.5 -254.95 17.1 -257.7 19.5 -257.7 M24.5 -226.75 Q26.6 -226.75 29.75 -225.2 32.8 -223.7 32.8 -222.85 32.8 -222.2 31.8 -220.95 L30.5 -219.75 Q21.05 -219.75 21.05 -224.75 21.05 -226.75 24.5 -226.75 M2.75 -239.65 L2.55 -238.25 Q2.1 -237.95 0.85 -237.95 -1.65 -237.95 -2.45 -239.7 L-2.75 -241.65 Q-2.75 -243.7 0.0 -243.7 3.25 -243.7 2.75 -239.65 M7.55 -210.05 Q5.8 -207.8 4.05 -208.0 4.6 -206.35 7.05 -200.65 7.8 -198.85 7.8 -194.95 7.8 -193.7 6.8 -189.9 6.8 -189.35 7.55 -188.05 L8.25 -186.2 9.8 -183.25 Q9.8 -179.5 9.4 -178.4 8.45 -175.8 4.8 -174.45 3.95 -174.15 -0.6 -170.25 -4.1 -167.25 -9.5 -167.25 -12.1 -167.25 -14.7 -168.25 -17.2 -169.2 -17.2 -170.0 -17.2 -172.2 -16.0 -175.2 -15.7 -174.8 -15.55 -174.0 -15.25 -174.9 -14.2 -175.6 L-10.5 -177.75 -10.15 -177.7 -10.45 -180.65 Q-10.45 -181.4 -8.6 -183.65 L-6.4 -185.85 -8.45 -189.3 -9.5 -190.5 -10.25 -193.0 -10.2 -194.0 -11.5 -196.15 Q-14.25 -201.1 -14.25 -202.15 -14.25 -203.15 -12.25 -206.4 L-10.45 -209.05 -10.75 -209.45 Q-10.1 -211.0 -8.95 -212.5 -5.1 -217.5 2.5 -217.5 8.0 -217.5 9.0 -212.85 9.0 -211.95 7.55 -210.05 M52.3 -243.5 L47.25 -243.0 Q42.2 -243.0 41.25 -244.25 L41.25 -246.15 Q41.25 -249.25 42.5 -249.25 50.0 -249.25 52.0 -247.15 53.0 -246.1 52.5 -244.9 52.5 -243.65 52.3 -243.5 M65.25 -198.65 Q65.25 -195.5 61.6 -195.5 58.75 -195.5 58.75 -198.1 58.75 -199.1 59.35 -199.95 59.9 -200.75 60.5 -200.75 66.15 -200.75 65.25 -198.65 M98.9 -281.0 L95.9 -281.2 Q95.9 -282.7 95.05 -285.4 95.05 -288.85 99.15 -288.85 103.4 -288.85 103.4 -286.0 103.4 -284.5 102.45 -283.0 101.15 -281.0 98.9 -281.0 M144.65 -200.95 L145.9 -200.85 147.05 -201.2 Q147.2 -201.1 147.3 -201.05 L147.55 -200.2 147.55 -199.85 147.65 -199.2 Q147.65 -198.0 146.2 -196.2 144.45 -194.0 142.4 -194.0 L139.65 -194.2 Q139.4 -193.65 139.4 -194.9 139.4 -196.6 141.05 -198.7 142.85 -200.95 144.65 -200.95 M93.5 -151.75 Q98.35 -151.75 98.05 -143.45 97.4 -142.45 96.5 -142.45 94.1 -142.45 92.5 -145.5 91.3 -147.75 91.3 -149.15 91.3 -151.75 93.5 -151.75 M5.8 -151.35 L6.0 -149.15 5.75 -147.9 Q6.5 -147.2 6.5 -146.75 6.5 -143.0 4.5 -143.0 L2.85 -145.25 2.25 -145.45 2.35 -145.85 1.95 -146.3 Q-0.1 -148.8 -2.05 -149.15 L-2.35 -148.55 Q-3.35 -146.45 -5.0 -146.45 -5.75 -146.45 -6.8 -147.55 -7.7 -148.55 -7.7 -148.85 -7.7 -149.85 -4.55 -152.0 -1.8 -153.9 0.45 -154.3 L5.8 -151.35 M13.55 -160.1 Q13.55 -161.4 14.8 -162.7 16.0 -163.95 17.0 -163.95 22.25 -163.95 21.05 -159.0 21.05 -154.2 17.75 -154.2 14.55 -154.2 13.75 -157.0 L13.55 -160.1 M0.75 -119.2 Q-3.8 -119.2 -5.2 -120.7 L-5.7 -122.4 Q-5.7 -123.05 -4.75 -124.25 -3.75 -125.5 -3.0 -125.5 -0.65 -125.5 1.5 -124.45 3.8 -123.25 3.8 -121.75 3.8 -119.2 0.75 -119.2 M39.25 -110.7 Q41.15 -110.7 42.5 -109.45 43.5 -108.5 43.5 -107.95 41.8 -97.95 37.0 -97.95 34.75 -97.95 33.8 -99.8 L33.3 -101.85 Q33.3 -102.7 36.0 -106.7 38.7 -110.7 39.25 -110.7 M64.5 -104.2 Q69.25 -104.2 69.5 -101.4 69.5 -98.75 68.3 -96.5 66.4 -92.95 62.1 -92.95 59.3 -92.95 58.55 -95.3 L58.3 -97.85 Q58.3 -99.4 59.8 -101.5 61.75 -104.2 64.5 -104.2 M3.8 -78.55 L3.05 -78.75 Q3.25 -79.9 4.05 -81.0 5.55 -82.95 8.25 -82.95 11.15 -82.95 14.25 -77.9 L14.0 -77.7 14.3 -76.6 13.65 -74.95 13.3 -74.9 11.5 -73.55 Q9.35 -72.2 8.25 -72.2 6.15 -72.2 4.75 -75.0 3.75 -77.05 3.75 -78.1 L3.8 -78.55 M22.5 -91.15 L22.05 -90.75 21.25 -89.85 Q16.45 -92.7 15.0 -92.7 L14.2 -92.6 Q14.05 -93.05 14.05 -93.4 14.05 -96.2 18.5 -96.2 21.9 -96.2 22.5 -91.15 M11.25 -74.7 L11.1 -74.7 11.05 -74.5 11.25 -74.7 M15.95 -65.85 Q19.95 -65.85 21.9 -62.1 22.85 -60.25 23.0 -58.3 23.0 -56.65 21.05 -54.4 18.75 -51.8 15.95 -51.8 12.2 -51.8 10.8 -55.1 L10.15 -58.55 Q10.15 -60.7 11.0 -62.6 12.5 -65.85 15.95 -65.85 M9.85 -71.5 L10.05 -71.6 10.55 -71.55 10.0 -71.5 9.85 -71.5 M7.1 -67.35 Q7.15 -65.3 5.95 -62.95 5.95 -60.75 7.4 -55.45 8.85 -50.15 8.85 -45.15 7.55 -27.25 2.35 -27.25 L0.4 -27.45 Q-2.85 -38.1 -6.3 -42.75 -7.35 -44.1 -7.6 -45.6 -7.95 -47.55 -7.95 -53.1 -7.95 -57.6 -6.15 -63.25 -3.65 -71.3 0.75 -71.3 7.0 -71.3 7.1 -67.35 M33.0 -72.55 L36.0 -73.2 Q38.05 -73.2 39.5 -69.65 39.5 -67.25 37.0 -67.25 L36.95 -67.25 35.75 -66.4 35.45 -65.75 Q34.5 -64.4 29.25 -64.25 L29.1 -64.25 28.75 -64.25 28.5 -64.25 28.1 -64.25 26.85 -64.5 Q25.75 -64.95 25.75 -66.0 25.75 -66.6 26.1 -67.3 26.15 -67.8 26.8 -68.45 L28.55 -70.2 Q30.6 -71.9 33.0 -72.55 M18.25 -41.5 Q15.3 -44.0 15.3 -46.35 15.3 -49.85 17.8 -49.85 24.3 -49.85 24.95 -43.3 24.95 -39.5 23.0 -37.6 L18.25 -41.5 M-26.0 -423.25 Q-21.7 -423.25 -21.75 -418.4 -21.75 -417.6 -23.05 -416.35 -24.25 -415.25 -24.5 -415.25 -27.25 -415.25 -28.0 -417.75 -28.35 -419.05 -28.2 -420.4 -28.2 -420.95 -27.25 -422.1 L-26.0 -423.25 M-32.2 -401.9 Q-32.2 -400.5 -33.2 -399.5 -34.05 -398.6 -34.75 -398.6 -37.4 -398.6 -38.75 -400.6 -39.7 -401.95 -39.7 -403.25 -39.7 -403.7 -38.9 -404.75 L-38.0 -405.75 Q-35.15 -405.75 -33.45 -404.1 -32.2 -402.9 -32.2 -401.9 M-5.25 -392.5 Q-2.5 -392.5 -1.7 -388.75 -1.7 -386.6 -2.95 -385.0 -4.4 -383.1 -7.0 -383.1 -9.5 -384.35 -10.75 -384.35 -14.5 -383.1 -15.75 -383.1 -19.3 -383.1 -21.25 -385.1 -22.5 -386.4 -22.5 -387.35 -22.5 -390.9 -16.65 -391.5 -15.15 -391.5 -13.75 -392.5 -12.35 -393.5 -10.75 -393.5 L-7.3 -393.0 Q-6.1 -392.5 -5.25 -392.5 M-33.0 -379.25 Q-33.9 -377.75 -37.5 -377.75 -38.45 -377.75 -39.2 -379.25 -39.75 -380.4 -39.75 -381.1 -39.75 -385.1 -36.5 -385.1 -32.75 -385.1 -32.7 -381.85 -32.7 -379.75 -33.0 -379.25 M-21.7 -372.4 Q-21.7 -371.2 -22.95 -370.35 -24.0 -369.6 -25.0 -369.6 -28.05 -369.6 -29.95 -374.6 -31.25 -378.1 -31.25 -380.25 -31.25 -381.45 -29.75 -382.5 -28.55 -383.35 -28.0 -383.35 -22.4 -383.35 -21.7 -372.4 M-51.5 -376.0 Q-49.8 -378.35 -46.75 -378.35 -44.7 -378.35 -45.2 -373.6 L-45.25 -369.85 Q-45.75 -368.1 -48.75 -368.1 L-52.7 -368.5 -52.75 -372.25 Q-52.75 -374.2 -51.5 -376.0 M-55.0 -364.75 Q-55.0 -365.65 -53.5 -366.65 -52.15 -367.5 -51.5 -367.5 -48.45 -367.5 -43.7 -362.4 -43.7 -358.35 -47.0 -358.35 L-52.25 -358.85 Q-52.9 -358.85 -54.0 -361.75 L-55.0 -364.75 M-27.25 -325.35 Q-21.4 -325.35 -18.75 -322.7 -17.2 -321.15 -17.2 -319.65 -17.2 -317.85 -19.9 -317.85 L-28.0 -318.75 Q-33.0 -319.65 -33.0 -320.55 -33.0 -322.95 -32.45 -323.7 -31.3 -325.35 -27.25 -325.35 M-119.45 -367.0 Q-119.95 -364.85 -122.0 -364.85 -126.1 -364.85 -128.45 -367.45 L-130.0 -370.25 Q-130.0 -371.2 -129.25 -372.5 -128.5 -373.75 -128.0 -373.75 -121.65 -373.75 -119.95 -370.75 -119.45 -369.85 -119.45 -367.0 M-138.25 -383.05 Q-138.25 -382.3 -138.75 -381.0 -139.45 -379.25 -140.5 -379.25 -143.0 -379.25 -144.25 -380.7 -145.0 -381.65 -145.0 -382.35 L-143.95 -383.85 Q-142.7 -385.25 -141.5 -385.25 -137.15 -385.25 -138.25 -383.05 M-159.2 -378.25 Q-164.25 -380.95 -164.25 -382.1 -164.25 -383.65 -161.95 -385.1 -159.2 -386.85 -155.0 -386.85 -150.55 -386.85 -148.0 -385.35 -146.0 -384.15 -146.0 -382.85 -146.0 -381.15 -148.0 -378.4 -150.1 -375.5 -151.75 -375.5 -154.1 -375.5 -159.2 -378.25 M-155.0 -360.25 Q-159.4 -360.25 -160.5 -361.5 L-160.75 -363.0 Q-160.75 -364.3 -160.3 -364.5 L-153.5 -364.85 -151.7 -364.6 Q-151.2 -364.75 -151.2 -363.5 -151.2 -363.0 -152.95 -361.6 -154.65 -360.25 -155.0 -360.25 M-103.45 -338.9 Q-103.45 -338.0 -104.75 -336.1 -106.25 -334.0 -107.5 -334.0 -109.95 -334.0 -110.45 -335.25 -110.7 -335.9 -110.45 -336.55 -110.45 -337.3 -108.8 -339.0 -106.95 -340.85 -105.5 -340.85 -103.45 -340.85 -103.45 -338.9 M-111.95 -327.5 Q-111.95 -328.1 -109.95 -330.85 -107.85 -333.75 -107.0 -333.75 -103.15 -333.75 -103.75 -331.9 -102.65 -324.35 -108.5 -324.35 -111.0 -324.35 -111.7 -325.85 -112.05 -326.6 -111.95 -327.5 M-113.0 -272.0 L-114.2 -272.25 Q-114.7 -273.5 -114.7 -274.5 -114.7 -277.3 -107.25 -277.45 L-105.25 -277.2 -104.95 -275.7 Q-110.45 -272.0 -113.0 -272.0 M-37.95 -282.05 Q-38.4 -283.25 -38.45 -284.55 -38.45 -285.25 -35.8 -287.25 L-33.0 -289.1 Q-30.9 -289.1 -29.95 -286.25 -29.95 -282.4 -33.7 -284.35 L-33.8 -281.65 Q-33.95 -279.75 -35.0 -279.75 -37.05 -279.75 -37.95 -282.05 M-78.65 -221.75 Q-76.7 -225.95 -72.75 -225.95 -67.4 -225.95 -64.7 -221.0 -63.2 -218.3 -63.0 -215.9 L-62.7 -216.25 Q-60.15 -219.0 -55.25 -219.0 -52.75 -219.0 -52.0 -214.5 -52.0 -213.3 -55.0 -211.5 -58.25 -209.5 -61.25 -209.5 -62.75 -209.5 -63.55 -210.0 -65.0 -204.95 -70.0 -204.95 -79.95 -204.95 -79.95 -216.4 -79.95 -219.05 -78.65 -221.75 M-27.75 -220.95 Q-21.75 -220.95 -19.25 -214.4 -18.0 -211.15 -17.95 -207.75 -17.95 -205.05 -19.7 -201.5 -21.95 -196.95 -25.25 -196.95 -28.05 -196.95 -31.0 -198.15 L-33.3 -199.25 -35.2 -202.5 -37.2 -205.9 -37.2 -210.0 Q-37.2 -212.75 -35.45 -216.0 -32.85 -220.95 -27.75 -220.95 M-165.5 -380.5 L-164.5 -379.3 Q-164.5 -378.0 -166.35 -375.7 L-168.25 -373.1 Q-165.5 -368.25 -165.25 -367.1 -165.75 -366.25 -168.0 -366.25 -170.45 -366.25 -171.95 -369.75 -172.95 -372.15 -172.95 -373.65 -172.95 -374.4 -170.5 -377.85 -167.9 -381.5 -166.75 -381.5 -166.5 -381.5 -165.5 -380.5 M-14.75 -191.0 Q-10.25 -191.0 -9.0 -187.45 -9.0 -184.85 -10.0 -183.8 -12.1 -181.5 -18.9 -181.5 -21.25 -181.5 -21.95 -182.85 L-22.2 -184.4 Q-22.2 -186.0 -20.2 -188.25 -17.8 -191.0 -14.75 -191.0 M-39.25 -176.7 L-44.65 -178.25 Q-46.75 -178.25 -50.25 -176.1 -53.7 -174.0 -56.15 -174.0 -57.9 -174.0 -58.7 -175.8 L-59.2 -177.75 Q-59.2 -179.45 -54.5 -183.2 -49.7 -187.0 -47.0 -187.0 -38.7 -187.0 -36.5 -185.45 -35.5 -184.7 -35.5 -182.25 -35.5 -176.7 -39.25 -176.7 M-56.9 -194.5 Q-62.7 -194.5 -62.7 -197.4 -62.7 -199.75 -61.0 -199.75 -54.95 -199.75 -54.95 -196.85 -54.95 -196.1 -55.85 -195.25 -56.6 -194.5 -56.9 -194.5 M-65.5 -185.95 Q-62.5 -185.95 -61.1 -182.0 -60.45 -181.45 -60.5 -180.25 -60.5 -178.85 -62.45 -177.4 -64.45 -175.95 -66.65 -175.95 -70.85 -175.95 -72.2 -178.25 L-72.7 -180.6 -72.55 -181.5 -72.75 -181.5 -72.9 -181.5 Q-72.15 -185.95 -65.5 -185.95 M-68.75 -172.2 Q-63.6 -172.2 -62.85 -171.45 -62.15 -170.75 -59.45 -170.75 -58.8 -170.75 -57.95 -171.35 L-56.5 -172.0 Q-52.9 -172.0 -50.65 -169.5 -49.0 -167.65 -49.0 -166.2 -49.0 -161.0 -58.0 -161.0 -65.0 -161.0 -69.25 -164.5 -72.45 -167.15 -72.45 -169.45 -72.45 -170.3 -71.2 -171.25 -69.95 -172.2 -68.75 -172.2 M-49.95 -137.45 L-51.0 -136.5 Q-52.15 -135.75 -52.75 -135.75 L-53.35 -135.85 -55.5 -134.95 Q-58.95 -134.95 -59.65 -136.35 L-59.7 -137.9 Q-59.7 -139.15 -58.25 -140.65 -56.75 -142.25 -55.25 -142.25 -46.5 -142.25 -46.5 -140.1 -46.5 -139.25 -49.95 -137.45 M-15.5 -132.5 Q-6.75 -132.5 -6.75 -129.5 -6.75 -128.55 -8.0 -127.75 -9.55 -126.75 -12.0 -126.75 -16.5 -126.75 -17.7 -128.7 -18.0 -129.2 -18.0 -130.95 -18.0 -132.05 -17.7 -132.25 L-15.5 -132.5 M-32.7 -118.9 Q-32.7 -116.15 -37.75 -115.95 -38.2 -115.75 -38.2 -117.0 L-37.95 -119.25 Q-37.35 -120.45 -35.0 -120.45 -32.7 -120.45 -32.7 -118.9 M-1.75 -101.45 Q-1.5 -101.2 -2.75 -101.2 -5.65 -101.2 -8.5 -104.2 -10.95 -106.75 -10.95 -108.2 -10.95 -110.45 -10.0 -110.45 -6.2 -110.45 -3.0 -108.5 -0.2 -106.8 -0.2 -105.35 -0.2 -104.7 -0.8 -103.75 -1.55 -102.65 -1.75 -101.45 M-16.0 -84.3 Q-13.5 -82.85 -13.0 -79.15 -13.0 -76.5 -16.4 -76.0 L-21.6 -75.95 Q-23.4 -75.95 -25.0 -73.75 L-26.2 -71.5 Q-26.2 -71.2 -25.2 -69.7 -24.25 -68.25 -24.25 -67.45 -24.25 -65.15 -27.0 -64.45 L-30.75 -64.45 Q-32.7 -69.75 -32.7 -72.35 -32.7 -76.1 -29.5 -80.2 -26.85 -83.6 -23.4 -84.7 L-23.0 -84.95 Q-20.55 -86.5 -19.5 -86.5 -17.15 -86.5 -16.45 -85.4 L-16.0 -84.3 M-29.0 -65.75 L-29.0 -66.2 -29.2 -65.75 -29.0 -65.75" fill="#868686" fill-rule="evenodd" stroke="none"/>
    </g>
  </defs>
</svg>
