<?xml version="1.0" encoding="UTF-8" standalone="no"?>
<svg xmlns:ffdec="https://www.free-decompiler.com/flash" xmlns:xlink="http://www.w3.org/1999/xlink" ffdec:objectType="frame" height="513.9px" width="383.5px" xmlns="http://www.w3.org/2000/svg">
  <g transform="matrix(1.0, 0.0, 0.0, 1.0, 183.4, 511.25)">
    <use ffdec:characterId="231" height="472.0" transform="matrix(1.0, 0.0, 0.0, 1.0, -175.0, -507.25)" width="354.9" xlink:href="#shape0"/>
  </g>
  <defs>
    <g id="shape0" transform="matrix(1.0, 0.0, 0.0, 1.0, 175.0, 507.25)">
      <path d="M101.9 -495.75 Q101.9 -492.65 96.7 -488.35 90.9 -483.6 84.9 -483.6 78.45 -483.6 76.8 -485.7 76.3 -486.4 76.3 -488.9 76.3 -490.95 82.55 -495.75 89.5 -501.1 95.15 -501.1 101.9 -501.1 101.9 -495.75 M61.5 -507.25 Q65.9 -507.25 67.25 -503.6 L67.75 -499.8 Q67.75 -496.25 67.05 -494.75 65.6 -491.6 61.0 -491.6 58.65 -491.6 57.0 -494.75 L55.8 -497.9 Q55.8 -502.4 56.05 -503.35 57.1 -507.25 61.5 -507.25 M71.75 -481.1 Q73.2 -482.6 74.0 -482.6 82.9 -482.6 82.65 -480.5 82.65 -478.9 81.15 -477.45 78.95 -475.35 74.5 -475.35 71.25 -475.35 70.45 -477.0 70.05 -477.8 70.3 -478.85 70.3 -479.65 71.75 -481.1 M48.5 -450.85 Q46.5 -452.15 46.5 -454.3 46.5 -455.05 48.3 -456.25 50.15 -457.5 51.5 -457.5 55.5 -457.5 55.5 -455.1 55.5 -452.45 54.0 -452.15 L53.2 -452.15 Q52.5 -451.75 51.0 -451.25 L48.95 -451.25 48.5 -450.85 M40.5 -466.5 Q35.9 -466.5 34.5 -467.75 33.85 -469.1 33.25 -469.35 29.4 -464.5 25.6 -464.5 23.7 -464.5 23.3 -467.2 23.1 -468.6 23.25 -470.1 23.25 -472.3 30.05 -477.1 36.7 -481.85 39.25 -481.85 45.75 -481.85 45.75 -477.0 45.0 -466.5 40.5 -466.5 M46.55 -411.1 Q46.55 -411.65 47.55 -412.5 48.8 -413.6 50.5 -413.6 54.8 -413.6 54.75 -411.05 54.75 -410.45 53.5 -409.35 52.0 -408.1 50.25 -408.1 48.0 -408.1 47.05 -409.6 L46.55 -411.1 M100.6 -459.9 L100.8 -460.5 Q100.8 -462.3 101.05 -462.75 101.6 -463.85 103.9 -463.85 107.55 -463.85 109.65 -460.8 109.65 -459.85 109.05 -458.7 108.35 -457.35 107.4 -457.35 101.9 -457.35 100.8 -458.85 100.45 -459.3 100.6 -459.9 M179.9 -397.4 Q179.9 -394.25 173.9 -394.25 171.95 -394.25 171.45 -395.65 171.2 -396.35 171.3 -397.1 171.3 -399.85 176.65 -399.85 179.9 -399.85 179.9 -397.4 M6.55 -381.0 Q5.65 -374.6 1.25 -374.6 -1.85 -374.6 -2.5 -376.5 -2.8 -377.45 -2.5 -378.55 -2.5 -380.2 -0.75 -384.75 1.15 -389.75 2.5 -389.75 L3.6 -389.55 3.5 -391.05 Q3.5 -397.0 8.0 -397.0 12.5 -397.0 15.75 -388.1 15.75 -383.75 11.0 -383.75 8.1 -383.75 6.3 -384.85 L6.55 -381.0 M14.05 -356.5 Q13.7 -357.4 13.75 -358.4 13.75 -359.55 14.25 -359.9 L19.75 -360.1 22.5 -360.5 Q24.1 -360.5 25.1 -359.25 25.8 -358.35 25.8 -357.55 25.8 -355.55 25.0 -355.25 L17.0 -354.75 Q14.8 -354.75 14.05 -356.5 M7.05 -363.6 Q7.05 -359.0 4.25 -359.0 L0.25 -359.15 -2.0 -358.85 Q-3.9 -358.85 -4.65 -360.05 L-5.7 -360.5 Q-9.55 -363.4 -14.75 -366.25 -13.0 -368.25 -12.5 -368.25 -10.65 -368.25 -7.45 -366.1 -4.2 -366.1 -1.95 -366.85 0.25 -367.6 1.25 -367.6 4.5 -367.6 6.05 -365.85 7.05 -364.75 7.05 -363.6 M1.0 -324.5 Q-1.55 -324.5 -4.25 -326.6 -6.5 -328.4 -6.5 -329.0 -6.5 -331.05 -4.7 -332.6 -2.65 -334.35 0.5 -334.35 4.6 -334.35 4.55 -329.4 4.55 -328.45 3.5 -326.65 2.25 -324.5 1.0 -324.5 M14.1 -308.1 Q18.2 -308.1 21.0 -301.95 22.4 -298.85 23.0 -295.65 23.0 -288.6 20.0 -288.6 16.5 -288.6 13.05 -295.7 L10.3 -302.85 Q10.3 -303.65 11.8 -305.85 13.35 -308.1 14.1 -308.1 M0.6 -304.0 Q-2.55 -304.0 -4.2 -306.4 L-5.2 -308.8 Q-5.2 -320.6 -0.25 -320.6 15.8 -320.6 15.8 -316.55 10.05 -304.0 0.6 -304.0 M36.3 -311.8 Q36.3 -308.35 31.5 -308.35 29.65 -308.35 28.75 -309.6 28.25 -310.4 28.25 -311.05 28.25 -312.15 29.75 -313.5 31.25 -314.85 32.5 -314.85 36.1 -314.85 36.3 -311.8 M37.75 -302.3 Q37.75 -300.7 36.55 -299.5 35.15 -298.1 32.85 -298.1 28.5 -298.1 28.5 -300.6 28.5 -301.15 31.0 -303.15 33.65 -305.25 35.0 -305.25 37.35 -305.25 37.75 -302.3 M47.5 -288.6 Q53.25 -288.6 55.75 -287.1 57.25 -286.25 57.25 -285.25 L57.0 -284.1 Q57.25 -283.75 56.0 -283.75 51.55 -283.75 49.0 -285.0 46.8 -286.1 46.8 -287.6 L46.7 -288.55 47.5 -288.6 M36.75 -286.35 Q39.3 -286.35 39.5 -282.1 39.5 -278.2 37.75 -278.2 34.3 -278.2 32.55 -280.45 31.5 -281.85 31.5 -283.0 31.5 -283.75 32.65 -284.6 L32.95 -284.95 34.15 -285.55 Q35.7 -286.35 36.75 -286.35 M21.25 -276.7 Q19.5 -274.7 17.0 -274.7 L16.3 -274.7 Q16.25 -273.05 14.55 -270.25 12.55 -266.95 10.5 -266.95 7.6 -266.95 6.5 -269.55 L6.0 -272.25 Q6.0 -273.9 8.0 -276.45 9.1 -277.85 10.2 -278.5 9.6 -279.05 9.3 -279.95 L9.0 -282.4 Q9.0 -283.65 10.3 -285.1 11.55 -286.5 12.5 -286.5 L17.5 -285.85 Q22.6 -285.85 22.8 -280.25 22.8 -278.45 21.25 -276.7 M17.05 -258.0 Q18.8 -259.95 20.25 -259.95 23.6 -259.95 24.25 -256.0 24.25 -253.25 22.0 -253.25 15.5 -253.25 15.5 -255.45 15.5 -256.25 17.05 -258.0 M23.05 -227.2 L22.5 -228.75 Q22.5 -230.3 22.8 -230.75 23.5 -231.75 26.0 -231.75 28.65 -231.75 29.1 -230.7 L29.75 -228.7 29.75 -226.0 Q30.25 -225.75 29.0 -225.75 24.5 -225.75 23.05 -227.2 M6.5 -201.75 Q6.5 -200.1 5.3 -195.95 5.3 -195.35 6.6 -194.55 L8.05 -193.1 Q9.15 -192.3 10.0 -190.4 10.0 -186.3 9.15 -184.6 7.15 -180.7 0.8 -181.25 -4.15 -172.25 -11.0 -172.25 -14.0 -172.25 -15.0 -174.7 L-15.45 -177.35 Q-15.45 -179.5 -13.2 -182.2 -10.25 -185.75 -5.75 -185.75 L-5.4 -185.75 -6.15 -187.4 Q-7.45 -190.55 -7.45 -191.85 L-4.7 -196.7 Q-4.7 -197.9 -6.8 -199.85 -8.95 -201.8 -8.95 -205.2 L-7.45 -211.95 -6.85 -214.1 Q-7.1 -213.95 -7.2 -213.95 -7.5 -214.0 -7.5 -215.25 -7.5 -216.8 -5.0 -219.0 -2.5 -221.2 -0.75 -221.2 6.0 -221.2 8.8 -217.5 10.3 -215.55 10.3 -213.45 10.3 -212.75 9.5 -210.75 L8.75 -210.7 8.45 -210.75 8.25 -209.8 Q7.65 -208.75 4.8 -207.95 6.5 -205.8 6.5 -201.75 M4.0 -154.7 Q4.0 -152.5 1.85 -152.5 0.4 -152.5 -0.6 -153.2 -1.55 -153.95 -1.85 -153.95 -2.45 -153.95 -2.4 -153.45 -2.35 -152.95 -3.0 -152.95 -5.8 -152.95 -6.75 -154.75 -6.55 -156.7 -4.15 -157.2 L1.5 -157.5 Q4.15 -157.5 4.0 -154.7 M14.05 -163.75 Q14.55 -164.65 16.55 -165.6 L18.5 -166.45 Q20.25 -166.45 20.3 -163.6 20.3 -160.2 16.25 -160.2 L14.05 -160.45 14.05 -163.75 M38.75 -111.5 Q41.4 -111.5 41.75 -109.35 41.75 -108.6 40.75 -107.0 39.7 -105.25 39.0 -105.25 33.8 -105.25 33.8 -107.9 33.8 -108.9 35.5 -110.2 37.2 -111.5 38.75 -111.5 M67.25 -105.2 Q67.25 -104.05 66.1 -102.2 64.65 -99.95 63.0 -99.95 60.25 -99.95 59.25 -101.8 L58.8 -103.75 Q58.8 -106.05 59.55 -107.0 60.7 -108.45 64.0 -108.45 68.35 -108.45 67.25 -105.2 M35.0 -75.15 Q35.0 -73.6 32.75 -71.0 30.3 -68.2 28.0 -68.2 26.9 -68.2 26.5 -69.35 L26.3 -70.7 Q26.3 -71.95 28.75 -74.45 31.3 -77.0 33.0 -77.0 35.0 -77.0 35.0 -75.15 M11.3 -85.2 Q11.3 -84.9 12.75 -82.2 12.75 -81.1 11.8 -79.95 10.85 -78.75 10.0 -78.75 6.85 -78.75 5.25 -80.0 4.25 -80.8 4.25 -81.5 4.25 -87.25 8.0 -87.25 11.75 -87.25 11.3 -85.2 M15.75 -71.5 Q20.65 -71.5 21.55 -64.35 21.55 -58.75 14.6 -58.75 10.75 -58.75 10.0 -61.25 L10.0 -64.15 Q10.0 -66.4 11.0 -68.4 12.55 -71.5 15.75 -71.5 M1.25 -66.5 L-0.35 -64.65 Q1.75 -66.55 3.55 -67.0 L4.0 -66.0 3.7 -65.4 Q7.45 -65.1 8.25 -60.95 8.7 -58.7 8.25 -56.1 5.8 -35.25 3.5 -35.25 0.4 -35.25 -4.0 -44.0 L-7.75 -52.9 -6.9 -53.9 -7.0 -54.65 Q-7.0 -56.85 -3.35 -61.45 L-1.55 -63.5 Q-3.3 -61.95 -4.5 -61.95 -6.85 -61.95 -7.5 -62.95 L-7.7 -64.15 Q-7.7 -67.6 -6.2 -70.7 -3.9 -75.45 1.0 -75.45 4.8 -75.45 4.75 -72.2 4.75 -70.75 1.25 -66.5 M18.75 -53.45 Q24.5 -53.45 24.55 -47.2 L24.5 -45.0 Q25.25 -44.95 24.0 -44.95 19.1 -44.95 17.05 -47.85 L16.0 -50.9 Q16.0 -53.45 18.75 -53.45 M-5.0 -396.35 Q-5.0 -391.5 -9.75 -391.5 L-13.95 -391.9 Q-13.95 -390.2 -14.2 -389.65 -15.1 -387.5 -18.5 -387.5 -21.0 -387.5 -22.0 -389.0 L-22.5 -390.5 Q-22.5 -391.7 -20.95 -393.5 -19.15 -395.5 -17.25 -395.5 -15.95 -395.5 -15.1 -394.6 -14.65 -396.0 -12.7 -397.1 -10.2 -398.5 -7.0 -398.5 -5.0 -398.5 -5.0 -396.35 M-37.25 -383.75 Q-39.4 -383.75 -40.0 -385.05 -40.3 -385.75 -40.2 -386.55 -40.2 -387.25 -38.9 -388.7 -38.0 -389.75 -37.05 -390.3 L-34.9 -389.8 Q-35.05 -389.65 -35.3 -389.65 L-36.2 -389.6 Q-33.7 -389.3 -33.7 -387.0 -33.7 -386.3 -34.7 -385.15 -35.9 -383.75 -37.25 -383.75 M-29.5 -383.5 Q-29.5 -386.0 -27.0 -386.0 -25.65 -386.0 -22.0 -379.25 -22.0 -375.6 -25.0 -375.6 -27.8 -375.6 -28.9 -379.35 -29.5 -381.3 -29.5 -383.5 M-47.75 -374.1 Q-49.7 -371.8 -49.7 -370.6 -49.7 -369.8 -50.05 -369.25 L-49.0 -369.35 Q-45.45 -369.35 -45.45 -366.4 -45.45 -364.1 -47.5 -364.1 -52.5 -364.1 -52.5 -366.8 -52.5 -367.75 -52.0 -368.35 L-52.4 -368.35 Q-54.65 -368.35 -55.4 -370.2 L-55.75 -372.1 -55.25 -375.5 Q-54.55 -378.75 -53.5 -378.75 -49.55 -378.75 -48.5 -376.85 -47.95 -375.85 -47.75 -374.1 M-11.0 -324.35 Q-5.35 -324.35 -5.75 -321.05 -5.75 -315.85 -13.5 -315.85 -16.45 -315.85 -17.5 -318.0 L-17.95 -320.25 Q-17.95 -321.3 -14.95 -322.9 -12.15 -324.35 -11.0 -324.35 M-23.2 -326.4 Q-23.2 -324.05 -31.0 -322.0 -33.5 -321.55 -33.5 -323.25 -33.5 -324.7 -30.2 -326.6 -27.15 -328.35 -25.5 -328.35 -23.2 -328.35 -23.2 -326.4 M-128.25 -372.1 Q-128.65 -371.6 -130.5 -371.6 -134.2 -371.6 -135.0 -372.85 -135.2 -373.15 -135.2 -374.9 -135.2 -377.35 -131.5 -377.35 -128.85 -377.35 -128.0 -374.15 -128.0 -372.45 -128.25 -372.1 M-152.45 -388.25 Q-150.5 -387.2 -150.5 -386.25 -154.65 -381.75 -161.5 -381.75 -163.6 -381.75 -164.5 -383.0 L-165.0 -384.3 Q-165.0 -389.35 -156.75 -389.35 -154.5 -389.35 -152.45 -388.25 M-157.25 -368.6 Q-153.95 -368.6 -151.7 -366.35 -153.0 -364.95 -158.95 -364.5 L-159.25 -366.75 Q-159.25 -368.6 -157.25 -368.6 M-113.25 -339.65 L-113.0 -342.45 Q-112.3 -344.1 -109.5 -344.1 -106.9 -344.1 -107.45 -341.6 L-107.5 -339.0 Q-108.05 -337.1 -110.5 -337.1 -112.8 -337.1 -113.25 -338.35 -113.5 -339.0 -113.25 -339.65 M-61.5 -218.95 Q-56.95 -218.95 -56.95 -215.5 -56.95 -212.45 -59.5 -212.45 -61.35 -212.45 -63.0 -213.7 -64.45 -214.75 -64.45 -215.45 -64.45 -216.45 -63.4 -217.7 -62.4 -218.95 -61.5 -218.95 M-67.75 -210.95 Q-70.4 -208.7 -74.0 -208.7 -77.9 -208.7 -79.45 -213.6 L-80.2 -218.7 Q-80.2 -226.7 -74.0 -226.7 -68.55 -226.7 -66.5 -220.95 -65.5 -218.15 -65.5 -214.6 -65.5 -212.85 -67.75 -210.95 M-33.4 -206.95 L-33.95 -207.25 -33.4 -206.7 -33.4 -206.95 M-34.9 -220.7 Q-32.9 -223.0 -30.0 -223.0 -23.7 -223.0 -20.2 -216.7 -20.2 -212.55 -20.95 -209.5 -22.55 -202.95 -27.0 -202.95 -34.45 -202.95 -36.2 -210.0 -36.75 -212.25 -36.7 -215.0 L-36.5 -217.6 Q-36.5 -218.9 -34.9 -220.7 M-172.0 -373.25 Q-169.15 -373.65 -168.45 -372.65 -168.25 -372.35 -168.25 -370.5 -168.25 -369.5 -168.75 -368.25 -169.35 -366.75 -170.25 -366.75 -172.85 -366.75 -174.2 -369.7 -174.85 -371.2 -175.0 -372.85 -175.0 -375.9 -173.25 -376.0 L-172.25 -375.85 Q-172.0 -375.1 -172.0 -373.25 M-16.0 -188.25 Q-20.1 -188.25 -21.25 -189.45 -21.7 -189.9 -21.7 -191.25 -21.7 -192.3 -20.45 -193.5 -19.15 -194.75 -18.0 -194.75 -12.9 -194.75 -13.7 -191.7 -13.7 -191.1 -14.45 -189.75 -15.3 -188.25 -16.0 -188.25 M-53.65 -188.15 Q-48.7 -192.5 -43.5 -192.5 -39.5 -192.5 -39.5 -188.45 -39.5 -185.7 -56.4 -178.5 -57.85 -178.5 -58.2 -179.75 L-58.2 -181.15 Q-58.2 -184.2 -53.65 -188.15 M-69.25 -179.45 Q-70.45 -179.45 -71.2 -181.0 -71.7 -182.1 -71.7 -182.9 -71.7 -186.75 -69.5 -186.75 -63.15 -186.75 -63.2 -183.9 -63.2 -182.25 -64.5 -181.0 -66.15 -179.45 -69.25 -179.45 M-66.3 -172.95 Q-60.85 -175.5 -60.25 -175.5 -56.35 -175.5 -56.7 -169.2 -56.7 -167.45 -58.0 -166.7 -60.1 -165.45 -66.4 -165.45 -70.4 -165.45 -71.7 -167.2 L-72.2 -169.1 Q-72.2 -170.2 -66.3 -172.95 M-14.75 -134.2 Q-13.75 -135.7 -12.75 -135.7 -9.4 -135.7 -8.75 -133.15 -8.75 -132.1 -9.75 -131.0 -10.7 -129.95 -11.5 -129.95 L-15.45 -130.0 -15.7 -131.75 Q-15.7 -132.8 -14.75 -134.2 M-28.45 -84.0 Q-24.45 -89.25 -21.5 -89.25 -17.85 -89.25 -17.75 -86.0 -17.75 -85.25 -30.0 -73.45 -31.8 -73.45 -32.2 -74.85 L-32.2 -76.4 Q-32.2 -79.1 -28.45 -84.0" fill="#8b8b8b" fill-rule="evenodd" stroke="none"/>
    </g>
  </defs>
</svg>
