<?xml version="1.0" encoding="UTF-8" standalone="no"?>
<svg xmlns:ffdec="https://www.free-decompiler.com/flash" xmlns:xlink="http://www.w3.org/1999/xlink" ffdec:objectType="frame" height="513.9px" width="383.5px" xmlns="http://www.w3.org/2000/svg">
  <g transform="matrix(1.0, 0.0, 0.0, 1.0, 183.4, 511.25)">
    <use ffdec:characterId="232" height="469.1" transform="matrix(1.0, 0.0, 0.0, 1.0, -172.5, -508.5)" width="351.85" xlink:href="#shape0"/>
  </g>
  <defs>
    <g id="shape0" transform="matrix(1.0, 0.0, 0.0, 1.0, 172.5, 508.5)">
      <path d="M100.1 -497.75 Q100.1 -494.0 94.9 -490.0 89.7 -486.0 84.85 -486.0 80.75 -486.0 78.1 -486.75 L78.1 -493.5 Q79.4 -494.4 86.4 -498.25 93.65 -502.25 94.35 -502.25 100.1 -502.25 100.1 -497.75 M58.15 -505.75 Q60.15 -508.5 61.35 -508.5 65.1 -508.5 67.1 -500.85 67.1 -495.0 62.35 -495.0 57.5 -495.0 56.4 -497.5 56.1 -498.15 56.1 -501.6 56.1 -503.05 58.15 -505.75 M76.85 -484.0 Q79.6 -484.0 80.85 -479.75 80.85 -477.0 76.35 -477.0 73.65 -477.0 73.15 -478.05 72.3 -479.8 71.1 -480.5 72.4 -482.1 74.6 -483.2 76.25 -484.0 76.85 -484.0 M44.35 -477.35 L44.1 -472.5 Q43.15 -469.75 38.85 -469.75 34.3 -469.75 33.0 -471.7 31.45 -469.15 27.85 -467.75 26.25 -468.75 26.0 -469.2 25.6 -469.8 25.6 -471.6 25.6 -474.35 28.1 -476.5 30.1 -478.25 31.35 -478.25 L32.9 -478.25 Q34.0 -483.5 39.35 -483.5 43.5 -483.5 44.35 -480.55 L44.35 -477.35 M54.6 -456.35 L54.35 -454.75 52.85 -454.25 48.1 -454.25 47.75 -454.3 Q47.35 -454.35 47.35 -455.85 47.35 -458.1 49.85 -458.75 L54.1 -458.75 Q54.6 -458.85 54.6 -456.35 M6.35 -400.0 Q13.1 -400.0 13.85 -390.85 13.85 -388.9 13.55 -388.5 13.15 -388.0 11.35 -388.0 8.25 -388.0 6.15 -389.75 L6.35 -386.5 Q6.35 -382.95 6.15 -382.4 5.55 -381.0 1.85 -377.75 -1.65 -380.55 -1.65 -383.5 -1.65 -389.85 2.85 -391.5 L4.8 -391.15 Q2.85 -393.75 2.85 -397.0 2.85 -398.35 4.4 -399.3 5.55 -400.0 6.35 -400.0 M46.85 -413.5 Q48.25 -415.25 51.35 -415.25 52.9 -415.25 53.35 -414.05 L53.85 -412.25 Q53.1 -410.0 50.85 -410.0 L47.85 -410.5 Q47.85 -411.25 46.85 -413.5 M107.75 -459.95 Q105.2 -461.0 101.85 -461.2 L101.85 -462.25 Q101.85 -463.75 102.1 -465.25 L104.85 -465.75 107.6 -465.25 108.1 -464.8 Q108.6 -464.45 108.6 -463.0 108.6 -461.65 107.75 -459.95 M179.35 -399.0 Q179.35 -396.3 174.85 -395.5 L172.45 -395.9 Q171.35 -396.35 171.35 -398.0 171.35 -398.75 173.35 -400.35 L174.85 -401.5 179.35 -399.0 M4.85 -366.0 Q3.35 -363.45 1.2 -363.25 0.2 -362.5 -1.65 -362.5 -2.55 -362.5 -6.15 -365.25 L-7.15 -364.75 Q-9.75 -365.95 -10.35 -366.6 -10.65 -366.95 -10.65 -368.0 L-7.65 -367.75 Q-6.4 -367.75 -3.65 -369.0 -0.9 -370.25 0.35 -370.25 2.05 -370.25 3.55 -368.35 4.7 -366.9 4.85 -366.0 M17.35 -364.0 Q21.2 -364.0 22.85 -362.6 23.95 -361.7 24.85 -359.0 24.5 -357.0 21.35 -357.0 19.25 -357.0 16.9 -359.0 14.85 -360.7 14.85 -361.35 14.85 -362.5 15.35 -363.75 L17.35 -364.0 M2.6 -332.0 Q2.6 -327.25 -1.15 -327.25 -4.0 -327.25 -5.25 -328.2 -6.05 -328.75 -7.9 -331.5 -5.35 -335.75 -2.4 -335.75 -0.7 -335.75 0.85 -334.75 2.6 -333.65 2.6 -332.0 M1.85 -307.75 Q-2.45 -307.75 -3.35 -311.05 -3.8 -312.7 -3.4 -314.6 -3.4 -319.05 -2.35 -320.25 -0.65 -322.25 5.85 -322.25 11.7 -322.25 13.35 -321.0 14.1 -320.45 14.1 -318.75 14.1 -315.9 11.15 -312.3 7.35 -307.75 1.85 -307.75 M12.65 -308.5 Q13.95 -309.75 15.35 -309.75 21.1 -309.75 23.1 -296.5 23.1 -294.9 22.4 -293.5 21.45 -291.75 19.85 -291.75 16.3 -291.75 13.4 -298.0 11.1 -302.9 11.1 -305.1 11.1 -307.1 12.65 -308.5 M34.35 -316.0 Q35.35 -314.75 35.35 -314.25 35.35 -313.55 33.85 -312.0 L33.65 -311.75 32.85 -311.0 32.8 -311.0 Q32.15 -310.5 31.85 -310.5 30.25 -310.5 29.55 -311.1 L28.6 -312.25 28.5 -312.05 Q28.35 -312.2 28.35 -313.75 L28.65 -314.5 Q28.8 -316.35 29.85 -316.25 L30.1 -316.2 Q31.4 -317.5 31.85 -317.5 33.15 -317.5 34.35 -316.0 M28.1 -301.35 Q28.1 -303.85 34.35 -306.75 36.05 -306.75 36.4 -305.95 36.6 -305.5 36.6 -303.25 36.6 -301.05 35.35 -300.15 33.75 -299.0 29.1 -298.75 L28.3 -299.4 Q28.1 -299.75 28.1 -301.35 M47.85 -290.0 L51.85 -290.25 Q53.5 -290.25 55.85 -288.5 L56.1 -287.75 Q56.25 -287.0 53.75 -287.0 48.5 -287.0 47.85 -288.0 L47.85 -290.0 M36.85 -281.25 Q32.35 -281.25 32.35 -284.75 32.35 -287.75 35.85 -287.75 38.35 -287.75 39.3 -285.25 39.95 -283.4 39.6 -282.0 39.35 -281.25 36.85 -281.25 M14.35 -287.25 Q22.1 -287.25 21.1 -283.15 21.1 -280.75 19.6 -278.95 17.75 -276.75 14.35 -276.75 L13.05 -276.95 Q13.8 -276.25 14.35 -275.0 14.35 -273.5 13.8 -272.35 L12.85 -270.5 11.85 -269.75 7.35 -269.75 Q6.85 -272.5 6.85 -275.0 6.85 -278.0 10.35 -278.0 L11.35 -277.85 9.4 -280.05 Q7.6 -282.65 7.6 -283.65 7.6 -285.45 10.15 -286.45 12.1 -287.25 14.35 -287.25 M16.1 -259.5 Q16.1 -260.65 17.15 -261.75 18.1 -262.75 18.85 -262.75 20.55 -262.75 22.15 -261.25 23.6 -259.9 23.6 -259.0 23.6 -255.25 19.85 -255.25 17.6 -255.25 16.65 -257.25 16.1 -258.35 16.1 -259.5 M28.35 -229.5 Q28.1 -229.5 27.35 -228.75 L23.1 -228.75 22.45 -229.2 22.35 -231.0 Q22.35 -232.85 22.75 -233.25 23.85 -234.35 28.1 -233.75 L28.35 -233.3 28.6 -231.4 28.35 -229.5 M5.1 -200.4 L4.95 -197.5 Q8.6 -195.85 8.6 -190.5 8.6 -186.6 7.9 -185.25 6.55 -182.5 1.85 -182.5 L-2.05 -183.0 Q-4.5 -180.25 -10.15 -176.5 -13.45 -176.5 -14.35 -178.85 L-14.65 -181.5 Q-14.65 -184.5 -12.0 -185.6 L-6.7 -187.5 -6.95 -189.3 -6.9 -190.65 Q-6.9 -192.6 -3.6 -195.5 L-3.5 -195.55 Q-4.6 -196.75 -5.6 -198.75 -7.65 -202.65 -7.65 -204.0 -7.65 -206.45 -6.1 -208.5 L-5.3 -209.4 Q-7.35 -209.95 -8.35 -212.55 -9.15 -214.45 -9.15 -216.15 -9.15 -218.95 -6.35 -220.75 -3.35 -222.75 1.85 -222.75 L3.1 -222.7 Q7.55 -218.85 9.6 -215.75 L9.8 -213.1 Q8.1 -212.0 4.9 -211.0 L1.75 -210.1 Q4.75 -207.95 5.1 -200.4 M19.6 -166.0 Q18.35 -164.25 16.85 -163.25 L14.6 -163.25 Q14.1 -162.4 14.1 -164.9 14.1 -166.55 15.4 -167.5 16.4 -168.25 17.35 -168.25 18.95 -168.25 19.3 -167.4 L19.6 -166.0 M2.5 -158.6 L3.6 -157.0 Q3.15 -155.65 2.35 -155.5 L-5.9 -155.0 Q-6.4 -153.65 -6.4 -156.15 -6.15 -157.25 -6.15 -158.75 -3.65 -158.75 0.35 -159.75 1.55 -159.75 2.5 -158.6 M40.1 -113.15 L40.5 -112.9 Q40.85 -112.65 40.85 -111.15 40.85 -110.2 39.4 -108.85 37.95 -107.45 36.85 -107.4 L35.5 -107.8 Q35.1 -108.15 35.1 -109.75 35.1 -111.25 36.7 -112.35 38.35 -113.4 40.1 -113.15 M58.6 -106.75 Q58.6 -109.1 61.0 -110.15 L63.85 -110.9 65.85 -110.25 Q66.35 -109.85 66.35 -108.15 L65.85 -103.65 Q65.35 -102.9 62.85 -102.9 59.7 -102.9 58.85 -104.7 58.6 -105.2 58.6 -106.75 M33.0 -77.85 L33.1 -76.15 Q33.1 -75.25 29.35 -70.15 L27.1 -70.15 Q26.6 -70.9 26.6 -73.15 26.6 -76.4 28.85 -77.9 L32.85 -77.65 33.0 -77.85 M7.85 -88.9 Q11.6 -88.9 11.6 -85.0 11.6 -83.0 10.9 -82.35 9.85 -81.4 6.35 -81.4 L3.85 -82.15 Q4.3 -86.25 4.75 -87.15 5.5 -88.9 7.85 -88.9 M19.55 -70.1 Q21.1 -67.9 21.1 -65.65 21.1 -62.75 19.9 -62.15 L13.85 -61.65 Q12.6 -61.65 11.1 -64.1 9.85 -66.2 9.85 -66.75 9.85 -68.75 10.85 -70.85 11.95 -73.15 13.35 -73.15 17.4 -73.15 19.55 -70.1 M1.85 -68.1 Q-1.0 -64.15 -3.15 -64.15 L-7.15 -64.65 -7.15 -69.9 Q-1.8 -75.15 -1.15 -76.9 L4.1 -76.9 4.6 -74.15 Q4.6 -71.9 1.85 -68.1 M8.1 -62.4 Q8.1 -61.8 7.1 -60.4 6.95 -58.45 5.65 -55.65 L5.55 -55.4 Q6.6 -54.3 6.6 -52.4 6.6 -50.4 5.65 -48.65 5.1 -47.6 4.35 -47.05 5.6 -44.95 5.6 -43.0 L5.35 -39.9 Q5.85 -39.4 3.35 -39.4 0.75 -39.4 -3.35 -46.6 -7.15 -53.3 -7.15 -55.65 -7.15 -57.3 -2.35 -62.4 2.3 -67.4 3.35 -67.4 8.35 -67.4 8.1 -62.4 M18.35 -54.65 Q20.7 -54.65 22.15 -53.0 23.45 -51.45 23.35 -49.4 L23.4 -48.35 Q23.3 -47.9 21.75 -47.9 21.1 -47.9 18.7 -49.6 15.95 -51.6 15.35 -53.4 16.2 -54.65 18.35 -54.65 M-9.65 -400.75 L-6.9 -400.25 Q-6.4 -400.5 -6.4 -398.0 -6.4 -396.35 -7.35 -395.0 -8.45 -393.5 -10.15 -393.5 L-14.15 -393.95 -14.15 -393.6 Q-14.15 -390.15 -18.15 -390.0 L-22.4 -390.0 -22.75 -390.25 Q-23.15 -390.5 -23.15 -392.0 L-21.6 -393.9 -19.15 -396.0 -16.15 -396.0 Q-16.15 -397.1 -13.4 -398.95 -10.8 -400.75 -9.65 -400.75 M-26.65 -387.25 Q-25.5 -387.25 -24.5 -385.0 -23.65 -383.1 -23.65 -382.0 L-23.55 -380.95 Q-23.6 -380.5 -25.15 -380.5 -27.4 -380.5 -29.4 -381.5 L-29.65 -384.1 Q-29.65 -387.25 -26.65 -387.25 M-35.1 -390.75 Q-34.15 -389.65 -34.15 -389.25 -34.15 -388.5 -34.9 -386.25 L-37.15 -385.5 Q-38.6 -385.8 -39.5 -387.25 -40.15 -388.35 -40.15 -389.1 -40.15 -392.0 -37.15 -392.0 -36.25 -392.0 -35.1 -390.75 M-50.15 -371.4 L-47.9 -371.75 Q-47.4 -371.85 -47.4 -369.35 L-47.65 -368.25 Q-47.65 -367.75 -47.8 -367.55 L-49.65 -367.25 -51.9 -367.75 -52.25 -367.35 Q-52.65 -367.3 -52.65 -368.85 L-52.4 -370.0 Q-56.3 -370.05 -57.1 -372.3 -57.55 -373.45 -57.15 -374.85 -57.15 -377.55 -56.6 -378.3 -56.1 -379.0 -54.15 -379.0 -49.5 -379.0 -50.15 -373.25 L-50.15 -371.4 M-12.65 -326.25 Q-8.25 -326.25 -8.4 -321.75 L-8.65 -318.75 -17.4 -318.0 Q-18.1 -321.5 -16.3 -324.05 -14.7 -326.25 -12.65 -326.25 M-33.25 -323.55 Q-33.65 -323.7 -33.65 -325.25 -33.65 -326.05 -32.6 -327.5 -31.2 -329.5 -29.15 -329.5 -26.25 -329.5 -25.65 -327.75 L-32.9 -323.75 -33.25 -323.55 M-133.65 -373.0 L-137.25 -373.75 -137.25 -378.75 -137.45 -379.0 -136.0 -379.25 Q-132.9 -379.25 -132.05 -377.25 -131.6 -376.25 -131.75 -373.75 -131.15 -373.0 -133.65 -373.0 M-153.75 -390.75 Q-153.25 -390.85 -153.25 -388.35 -153.25 -387.25 -155.0 -386.3 L-161.0 -383.5 Q-163.8 -382.95 -165.0 -384.45 -165.75 -385.35 -165.75 -386.35 -165.75 -388.5 -159.0 -390.75 L-153.75 -390.75 M-153.75 -368.0 Q-154.1 -366.0 -156.0 -365.25 L-158.8 -365.5 Q-159.5 -365.65 -159.5 -367.25 -159.5 -370.25 -156.5 -370.25 -154.5 -370.25 -153.75 -368.0 M-113.5 -345.5 L-112.0 -345.75 -110.2 -345.5 Q-109.5 -345.3 -109.5 -343.75 -109.5 -342.3 -110.15 -341.1 L-111.0 -339.25 -112.75 -339.0 Q-113.75 -342.0 -113.75 -343.85 L-113.5 -345.5 M-67.85 -223.1 Q-67.1 -221.6 -67.4 -219.9 -67.4 -210.5 -73.65 -210.5 -78.2 -210.5 -79.8 -213.25 L-80.5 -216.25 Q-80.5 -219.15 -79.0 -222.25 -77.25 -226.0 -74.65 -226.0 -69.4 -226.0 -67.85 -223.1 M-62.65 -219.25 Q-61.1 -219.25 -60.65 -218.4 L-60.15 -217.0 Q-60.4 -216.1 -60.8 -215.4 -61.6 -214.05 -63.15 -213.5 L-65.65 -213.75 Q-66.65 -216.0 -66.65 -217.5 -64.9 -219.25 -62.65 -219.25 M-36.65 -217.15 Q-36.65 -219.4 -35.15 -221.25 -33.1 -223.75 -29.15 -223.75 -24.5 -223.75 -23.1 -219.9 -22.4 -217.95 -22.65 -215.75 -22.65 -213.0 -23.6 -210.5 -25.1 -206.75 -28.15 -206.75 -34.8 -206.75 -36.35 -211.5 -36.65 -212.3 -36.65 -217.15 M-167.25 -371.35 L-167.5 -368.75 Q-168.0 -368.0 -169.0 -367.5 L-172.05 -369.55 Q-172.5 -369.9 -172.5 -370.75 -172.5 -373.0 -171.5 -374.25 L-170.75 -374.25 Q-167.25 -374.25 -167.25 -371.35 M-15.15 -194.65 Q-15.15 -191.65 -17.7 -191.1 L-18.15 -190.75 -18.5 -191.0 -18.65 -191.0 -21.4 -191.25 Q-21.9 -191.15 -21.9 -193.65 L-21.8 -194.25 -22.4 -195.5 -22.5 -196.05 -21.15 -196.25 -20.25 -196.15 -20.2 -196.2 Q-18.45 -197.3 -15.9 -197.0 L-15.5 -196.55 Q-15.15 -196.15 -15.15 -194.65 M-42.65 -189.75 Q-42.65 -185.75 -47.35 -185.0 L-53.15 -185.0 Q-55.4 -182.0 -56.65 -182.0 L-59.15 -182.5 Q-59.15 -185.4 -55.65 -189.3 -52.05 -193.25 -49.15 -193.25 -46.65 -193.25 -43.15 -192.0 L-42.9 -191.55 Q-42.65 -191.2 -42.65 -189.75 M-63.15 -177.25 Q-59.4 -177.25 -58.9 -171.9 -58.9 -169.5 -61.15 -168.4 -63.35 -167.4 -69.15 -167.0 -71.4 -169.65 -71.4 -170.5 -71.4 -171.95 -67.4 -174.7 -63.75 -177.25 -63.15 -177.25 M-68.15 -180.75 Q-70.4 -180.75 -72.4 -181.75 L-72.65 -185.15 Q-72.65 -187.25 -70.8 -188.2 -69.7 -188.75 -68.65 -188.75 -64.9 -188.75 -65.4 -184.9 -65.4 -183.5 -66.1 -182.2 -66.95 -180.75 -68.15 -180.75 M-10.65 -132.9 L-14.9 -131.9 Q-15.65 -130.9 -15.65 -133.4 -15.65 -137.35 -12.15 -136.75 L-10.8 -136.45 Q-10.4 -136.15 -10.4 -134.5 L-10.65 -132.9 M-21.75 -89.55 L-21.15 -88.65 -20.9 -88.85 Q-20.65 -88.7 -20.65 -87.15 -20.65 -85.85 -23.2 -83.6 L-26.65 -80.4 -28.9 -80.4 Q-29.4 -79.75 -29.4 -82.25 -29.4 -84.3 -27.1 -87.15 -24.95 -89.9 -23.65 -89.9 L-21.75 -89.55" fill="#8d8d8d" fill-rule="evenodd" stroke="none"/>
    </g>
  </defs>
</svg>
