<?xml version="1.0" encoding="UTF-8" standalone="no"?>
<svg xmlns:ffdec="https://www.free-decompiler.com/flash" xmlns:xlink="http://www.w3.org/1999/xlink" ffdec:objectType="frame" height="513.9px" width="383.5px" xmlns="http://www.w3.org/2000/svg">
  <g transform="matrix(1.0, 0.0, 0.0, 1.0, 183.4, 511.25)">
    <use ffdec:characterId="233" height="466.35" transform="matrix(1.0, 0.0, 0.0, 1.0, -165.95, -508.35)" width="264.5" xlink:href="#shape0"/>
  </g>
  <defs>
    <g id="shape0" transform="matrix(1.0, 0.0, 0.0, 1.0, 165.95, 508.35)">
      <path d="M98.55 -499.0 Q98.55 -496.3 94.3 -492.25 89.6 -487.75 85.0 -487.75 80.95 -487.75 79.75 -489.15 L79.3 -490.65 Q79.3 -492.95 84.5 -497.6 90.05 -502.6 93.9 -502.6 98.8 -502.6 98.55 -499.0 M61.75 -508.35 Q66.35 -508.35 66.3 -502.5 66.3 -497.75 62.25 -497.75 56.75 -497.75 56.75 -503.1 56.75 -504.9 58.0 -506.45 59.45 -508.35 61.75 -508.35 M73.5 -481.0 Q73.25 -481.35 73.25 -482.5 73.25 -485.85 76.25 -485.85 78.4 -485.85 79.5 -484.5 80.25 -483.55 80.25 -482.6 78.35 -479.75 78.0 -479.75 74.45 -479.75 73.5 -481.0 M28.3 -476.25 L30.5 -478.75 32.1 -478.5 Q32.35 -479.85 33.55 -482.15 35.45 -485.75 37.5 -485.75 44.85 -485.75 44.0 -481.8 42.25 -472.5 37.5 -472.5 35.45 -472.5 33.85 -474.4 L33.05 -473.9 27.5 -471.25 Q26.25 -471.85 26.25 -473.05 26.25 -473.65 28.3 -476.25 M10.55 -396.35 L10.5 -393.35 10.05 -392.25 Q4.9 -395.0 3.75 -395.0 L3.15 -394.95 3.05 -396.35 Q3.05 -401.75 4.5 -401.75 8.75 -401.75 10.05 -399.1 10.75 -397.8 10.55 -396.35 M2.0 -383.1 Q-0.55 -383.1 -1.5 -384.95 L-1.95 -386.9 Q-1.95 -387.8 -0.7 -390.1 0.75 -392.75 2.0 -392.75 L3.2 -392.5 Q3.8 -392.2 4.3 -391.6 5.1 -390.55 5.5 -388.5 5.5 -383.1 2.0 -383.1 M1.25 -365.6 Q-0.2 -364.6 -1.75 -364.6 -2.4 -364.6 -4.45 -365.8 L-6.7 -367.5 Q-4.25 -371.25 -3.5 -371.25 2.75 -371.25 2.8 -368.05 2.8 -366.7 1.25 -365.6 M7.75 -325.85 Q13.15 -325.85 12.3 -320.55 10.3 -311.0 2.35 -311.0 -1.3 -311.0 -2.75 -314.1 -3.5 -315.65 -3.5 -317.35 -3.5 -319.25 0.55 -322.5 4.75 -325.85 7.75 -325.85 M11.75 -308.85 L11.75 -310.75 Q12.15 -312.25 14.0 -312.25 20.65 -312.25 22.0 -301.9 22.0 -295.0 18.85 -295.0 16.35 -295.0 13.8 -301.85 12.55 -305.3 11.75 -308.85 M35.55 -305.75 L35.55 -304.25 Q35.55 -299.85 32.25 -299.85 L29.05 -300.0 Q28.8 -300.75 28.8 -302.05 28.8 -303.45 29.5 -304.9 30.5 -307.0 32.5 -307.0 35.1 -307.0 35.55 -305.75 M19.75 -284.9 Q19.75 -283.45 19.0 -281.75 18.05 -279.5 16.5 -279.5 12.9 -279.5 10.5 -281.5 8.75 -282.95 8.75 -283.9 8.75 -288.35 14.25 -288.35 20.3 -288.35 19.75 -284.9 M10.0 -278.0 Q11.6 -278.0 12.55 -276.95 13.25 -276.2 13.25 -275.65 13.25 -274.85 12.75 -273.95 12.2 -272.95 11.5 -272.95 9.55 -272.95 8.5 -274.2 L7.8 -275.5 Q7.8 -276.75 8.8 -277.5 9.5 -278.0 10.0 -278.0 M6.85 -214.65 Q4.85 -212.7 -0.75 -211.85 2.55 -210.85 4.3 -202.7 4.45 -199.65 3.7 -198.15 6.05 -197.35 7.05 -195.45 7.75 -194.15 7.75 -191.7 7.75 -184.95 0.6 -184.95 -3.45 -184.95 -4.75 -188.8 L-5.25 -192.85 Q-5.25 -197.15 -2.55 -198.3 -3.75 -199.35 -4.7 -201.2 L-5.95 -204.85 Q-7.25 -205.5 -7.25 -206.1 -7.25 -209.05 -5.55 -210.15 -5.35 -211.4 -5.45 -211.75 -6.15 -213.9 -7.1 -215.1 -7.7 -215.8 -7.7 -217.25 -7.7 -223.5 -2.0 -223.5 5.75 -223.5 8.3 -218.6 8.3 -216.05 6.85 -214.65 M65.8 -112.65 Q65.8 -109.95 65.4 -109.0 64.6 -107.0 61.65 -107.0 59.35 -107.0 58.65 -108.3 L58.4 -109.75 Q58.4 -111.25 59.65 -112.95 61.15 -114.95 63.15 -114.95 66.0 -114.95 65.8 -112.65 M3.55 -77.2 L3.75 -76.1 Q2.5 -66.45 -2.5 -66.45 -6.0 -66.45 -6.7 -67.75 L-6.7 -69.25 Q-6.7 -72.1 -4.65 -74.45 -2.4 -76.95 1.0 -77.45 L3.55 -77.2 M2.75 -50.0 L6.5 -43.75 6.45 -42.4 Q6.35 -42.0 5.5 -42.0 1.8 -42.0 -2.2 -49.75 -5.5 -56.2 -5.5 -58.25 -5.5 -60.45 -3.85 -60.5 -3.4 -62.05 -0.75 -64.95 2.65 -68.7 5.0 -68.7 6.1 -68.7 8.05 -67.0 L8.05 -64.45 7.55 -64.3 Q7.5 -62.0 4.65 -55.65 3.1 -52.25 2.75 -50.0 M11.0 -69.9 Q11.0 -75.0 14.5 -75.0 19.6 -75.0 20.3 -68.35 20.3 -64.95 17.35 -64.95 12.45 -64.95 11.25 -67.35 L11.0 -69.9 M-9.75 -400.85 L-8.45 -400.6 -8.25 -398.9 Q-8.25 -396.35 -10.25 -395.75 L-14.7 -395.5 -15.25 -395.25 -15.25 -394.8 Q-15.25 -392.6 -20.15 -392.6 -23.0 -392.6 -23.0 -394.1 -23.0 -396.1 -20.0 -396.25 L-16.3 -396.1 Q-15.8 -397.3 -13.6 -398.95 -10.8 -401.1 -9.75 -400.85 M-51.2 -377.35 Q-51.2 -375.95 -52.2 -374.35 -53.25 -372.6 -54.5 -372.6 -55.1 -372.6 -56.95 -374.55 L-58.7 -376.65 Q-58.7 -377.75 -57.45 -378.75 -56.05 -379.85 -54.0 -379.85 -51.6 -379.85 -51.2 -377.35 M-6.7 -334.1 Q-6.7 -337.6 -4.0 -337.6 1.75 -337.6 1.75 -333.4 1.75 -330.75 -0.5 -330.75 -6.7 -330.75 -6.7 -334.1 M-11.45 -321.85 Q-13.0 -320.0 -15.0 -320.0 -18.3 -320.0 -18.95 -321.1 L-19.0 -322.35 -13.5 -327.35 Q-10.5 -327.35 -10.2 -324.3 -10.2 -323.35 -11.45 -321.85 M-154.95 -392.35 Q-154.7 -392.4 -154.7 -391.15 -154.7 -390.0 -156.95 -388.35 -159.4 -386.6 -161.75 -386.6 -165.95 -386.6 -165.95 -388.3 -165.95 -389.15 -163.0 -390.7 -160.75 -391.95 -159.5 -392.35 L-154.95 -392.35 M-80.0 -217.0 Q-80.95 -218.35 -80.95 -220.25 -80.95 -221.9 -78.95 -223.95 -76.5 -226.45 -73.0 -226.45 -69.25 -226.45 -68.2 -221.0 -68.2 -218.75 -69.2 -216.7 -70.45 -214.2 -72.5 -214.2 -78.0 -214.2 -80.0 -217.0 M-36.5 -215.3 L-36.45 -216.25 Q-36.45 -219.1 -34.95 -221.7 -33.0 -224.95 -29.75 -224.95 -26.4 -224.95 -24.25 -221.9 -24.25 -217.1 -24.5 -215.65 -25.3 -210.5 -28.5 -210.5 -34.25 -210.5 -35.9 -213.3 -36.45 -214.2 -36.5 -215.3 M-5.95 -207.0 L-5.95 -206.9 -5.8 -206.75 -5.45 -207.35 -5.5 -207.45 -5.95 -207.0 M-4.45 -186.35 Q-4.45 -184.45 -6.5 -182.2 -9.0 -179.45 -12.5 -179.45 -13.9 -179.45 -14.2 -180.55 L-14.2 -181.75 Q-14.2 -184.0 -13.45 -186.0 -12.35 -189.0 -10.0 -189.0 -7.7 -189.0 -5.95 -187.95 -4.45 -187.05 -4.45 -186.35 M-44.2 -192.1 Q-45.25 -186.95 -49.0 -186.95 -52.1 -186.95 -53.95 -188.0 -54.95 -186.5 -55.4 -186.5 L-57.2 -186.95 -57.2 -189.2 Q-56.8 -189.5 -56.5 -190.4 -56.25 -190.7 -55.65 -190.85 -55.2 -194.95 -48.5 -194.95 -44.25 -194.95 -44.2 -192.1 M-68.65 -177.0 Q-67.15 -179.0 -65.25 -179.0 -63.55 -179.0 -61.7 -177.45 -60.0 -176.0 -60.0 -175.2 -60.0 -173.5 -61.5 -172.25 -63.1 -170.95 -65.5 -170.95 -70.0 -170.95 -70.0 -173.65 -70.0 -175.25 -68.65 -177.0" fill="#909090" fill-rule="evenodd" stroke="none"/>
    </g>
  </defs>
</svg>
