<?xml version="1.0" encoding="UTF-8" standalone="no"?>
<svg xmlns:ffdec="https://www.free-decompiler.com/flash" xmlns:xlink="http://www.w3.org/1999/xlink" ffdec:objectType="frame" height="513.9px" width="383.5px" xmlns="http://www.w3.org/2000/svg">
  <g transform="matrix(1.0, 0.0, 0.0, 1.0, 183.4, 511.25)">
    <use ffdec:characterId="234" height="462.1" transform="matrix(1.0, 0.0, 0.0, 1.0, -166.0, -508.5)" width="262.35" xlink:href="#shape0"/>
  </g>
  <defs>
    <g id="shape0" transform="matrix(1.0, 0.0, 0.0, 1.0, 166.0, 508.5)">
      <path d="M96.35 -498.75 Q96.35 -496.35 93.4 -493.8 89.1 -490.15 81.1 -490.0 L80.65 -490.25 80.6 -491.85 Q80.6 -493.65 84.85 -497.75 89.5 -502.25 92.85 -502.25 96.35 -502.25 96.35 -498.75 M60.85 -508.5 Q66.0 -508.5 65.1 -503.35 65.1 -502.05 62.65 -500.7 60.35 -499.45 58.35 -499.25 57.35 -502.25 57.35 -504.1 57.35 -506.15 58.95 -507.5 60.15 -508.5 60.85 -508.5 M79.85 -483.0 L79.6 -482.5 Q79.35 -482.0 77.85 -482.0 74.85 -482.0 74.85 -485.5 74.85 -487.35 75.15 -487.7 L77.35 -488.0 Q80.0 -488.0 80.15 -485.95 L79.85 -483.0 M41.4 -479.25 Q39.95 -476.25 38.35 -476.25 35.65 -476.25 33.65 -478.75 L33.35 -479.15 33.35 -478.75 Q29.25 -472.75 27.1 -471.75 L26.75 -471.35 Q26.35 -471.3 26.35 -472.85 26.35 -474.45 27.5 -477.15 28.7 -480.05 29.85 -480.75 L32.5 -480.5 Q32.1 -481.25 32.1 -481.75 32.1 -486.75 39.85 -488.0 42.05 -487.35 42.5 -486.0 L42.6 -483.75 Q42.6 -481.85 41.4 -479.25 M8.85 -396.25 L3.6 -397.0 3.35 -398.5 3.35 -403.25 4.85 -403.5 Q7.2 -403.5 10.35 -398.75 L10.45 -397.2 Q10.4 -396.25 8.85 -396.25 M4.6 -389.0 Q3.85 -388.5 2.85 -388.25 L2.65 -388.45 2.6 -386.0 1.85 -385.25 Q-1.15 -387.55 -1.15 -389.6 -1.15 -392.65 -0.15 -393.0 L0.15 -392.95 0.35 -394.5 2.35 -394.75 Q4.45 -394.75 4.6 -392.3 4.45 -389.55 4.6 -389.0 M1.1 -368.25 Q2.35 -367.75 -0.15 -367.75 L-4.9 -368.0 -5.35 -368.25 -5.4 -369.85 -5.15 -371.75 Q-4.15 -372.0 -4.15 -372.25 L0.35 -372.0 Q1.1 -371.25 1.1 -368.25 M0.35 -337.0 L0.1 -334.75 Q0.25 -334.0 -2.25 -334.0 L-5.4 -334.75 -5.9 -335.2 Q-6.4 -335.55 -6.4 -337.0 -6.4 -338.65 -4.95 -339.05 L-1.65 -339.25 Q-0.1 -339.25 0.2 -338.4 L0.35 -337.0 M9.65 -316.25 Q7.25 -314.0 5.35 -314.0 -3.4 -314.0 -3.4 -318.85 -3.4 -320.1 5.35 -327.25 11.1 -327.25 12.1 -320.75 12.1 -318.6 9.65 -316.25 M12.35 -313.0 Q13.1 -313.75 14.85 -313.75 18.05 -313.75 20.1 -308.75 21.6 -305.1 21.6 -302.75 L21.35 -299.75 Q20.35 -299.0 18.1 -299.0 L14.3 -305.5 Q12.1 -309.35 12.1 -311.85 L12.35 -313.0 M31.35 -307.4 Q31.85 -308.35 32.85 -308.75 34.85 -307.95 34.85 -305.6 34.85 -302.35 31.35 -302.25 L31.15 -302.65 30.05 -302.6 Q29.6 -302.55 29.6 -304.1 29.6 -306.1 31.35 -307.4 M8.9 -282.55 Q8.6 -283.15 8.6 -284.6 8.6 -286.4 10.4 -288.0 12.1 -289.5 13.85 -289.5 18.35 -289.5 18.35 -286.0 18.35 -284.05 16.15 -282.3 14.25 -280.75 12.85 -280.75 9.8 -280.75 8.9 -282.55 M0.85 -199.75 Q-2.0 -199.75 -3.7 -201.85 L-5.9 -205.5 -5.9 -212.25 -2.15 -213.0 Q2.35 -213.0 4.1 -204.0 4.1 -201.8 3.65 -201.0 3.0 -199.75 0.85 -199.75 M4.15 -216.0 Q2.3 -214.75 -0.15 -214.75 -5.05 -214.75 -6.65 -216.0 -7.65 -216.75 -7.65 -218.65 -7.65 -225.25 -3.15 -225.25 6.35 -225.25 6.35 -220.15 6.35 -217.5 4.15 -216.0 M1.35 -188.0 Q-2.9 -188.0 -4.45 -191.65 L-5.15 -195.65 Q-5.15 -198.35 -3.15 -199.0 L1.85 -199.25 Q6.5 -199.25 6.85 -193.9 6.85 -188.0 1.35 -188.0 M65.6 -115.5 L66.35 -111.9 Q65.35 -110.4 63.35 -110.4 60.45 -110.4 59.9 -111.8 L59.85 -113.5 Q59.85 -114.9 61.15 -116.15 62.2 -117.15 62.85 -117.15 65.0 -117.15 65.6 -115.5 M1.35 -76.5 Q1.35 -73.8 0.55 -72.8 -0.65 -71.25 -4.9 -70.15 -5.4 -69.15 -5.4 -71.65 -5.4 -73.2 -3.05 -75.7 -0.85 -78.05 0.35 -78.4 0.75 -78.0 1.15 -78.1 1.35 -78.0 1.35 -76.5 M15.35 -76.9 Q18.35 -76.9 19.6 -71.5 L19.35 -69.65 Q18.35 -68.4 15.85 -68.4 14.45 -68.4 14.05 -68.75 13.3 -69.4 12.6 -69.65 12.1 -72.65 12.1 -74.15 12.1 -75.6 13.6 -76.35 14.6 -76.9 15.35 -76.9 M6.85 -69.15 L7.1 -68.7 7.35 -66.9 Q7.35 -64.2 4.6 -60.45 1.85 -56.75 1.85 -54.9 1.85 -53.2 4.4 -52.1 7.15 -50.95 7.6 -47.65 8.35 -46.4 5.85 -46.4 1.0 -46.4 -2.2 -52.65 L-4.4 -59.0 Q-4.4 -61.7 -1.7 -65.55 1.3 -69.8 4.35 -69.65 L6.85 -69.15 M-20.15 -397.75 L-17.0 -397.5 -15.8 -398.3 Q-12.05 -400.55 -10.65 -400.75 L-9.9 -399.25 Q-11.35 -398.05 -15.0 -396.65 L-15.45 -396.45 -14.65 -394.75 -22.4 -394.25 -22.65 -394.3 Q-22.9 -394.35 -22.9 -395.85 L-22.65 -397.5 -20.15 -397.75 M-53.4 -379.3 L-53.4 -376.0 Q-53.15 -375.25 -55.65 -375.25 -57.75 -375.25 -58.4 -377.05 L-58.65 -379.1 Q-58.65 -382.0 -55.65 -381.75 -53.55 -381.75 -53.4 -379.3 M-12.9 -328.25 Q-12.65 -329.25 -12.65 -326.75 -12.65 -323.25 -18.9 -322.75 L-19.25 -322.35 Q-19.65 -322.3 -19.65 -323.85 -19.65 -325.25 -16.15 -328.5 L-12.9 -328.25 M-156.5 -392.75 Q-157.05 -391.95 -160.7 -390.55 -164.25 -389.25 -165.5 -389.25 L-165.75 -389.05 -166.0 -390.75 Q-166.0 -391.55 -163.75 -393.0 -161.45 -394.5 -160.0 -394.5 -157.75 -394.5 -156.75 -393.5 L-156.5 -392.75 M-75.65 -216.25 Q-77.0 -216.25 -79.0 -217.9 -80.75 -219.4 -80.75 -219.9 -80.75 -221.75 -78.5 -224.0 -76.25 -226.25 -74.65 -226.25 -69.25 -226.25 -70.15 -221.15 -70.15 -218.15 -71.1 -217.25 -72.15 -216.25 -75.65 -216.25 M-36.15 -221.75 Q-33.75 -225.5 -32.65 -225.5 -26.15 -225.5 -26.15 -220.0 -26.15 -213.0 -32.15 -213.0 L-36.15 -213.5 -36.15 -221.75 M-14.9 -185.0 Q-14.9 -187.05 -13.4 -188.75 -12.05 -190.25 -10.9 -190.25 -7.15 -190.25 -7.15 -187.65 -7.15 -186.05 -8.6 -184.25 -10.25 -182.25 -12.15 -182.25 L-14.4 -182.75 Q-14.9 -183.5 -14.9 -185.0 M-50.15 -197.75 Q-48.3 -197.75 -46.85 -196.6 -45.65 -195.7 -45.4 -194.75 -46.05 -192.55 -52.15 -190.5 L-54.45 -190.9 Q-55.4 -191.35 -55.4 -193.0 -55.4 -195.4 -53.35 -196.75 -51.85 -197.75 -50.15 -197.75 M-62.9 -178.5 Q-62.9 -174.0 -66.15 -174.0 L-69.4 -174.25 Q-69.9 -174.15 -69.9 -176.65 -69.9 -181.0 -65.15 -181.25 L-63.35 -180.6 Q-62.9 -180.2 -62.9 -178.5" fill="#939393" fill-rule="evenodd" stroke="none"/>
    </g>
  </defs>
</svg>
