<?xml version="1.0" encoding="UTF-8" standalone="no"?>
<svg xmlns:ffdec="https://www.free-decompiler.com/flash" xmlns:xlink="http://www.w3.org/1999/xlink" ffdec:objectType="frame" height="513.9px" width="383.5px" xmlns="http://www.w3.org/2000/svg">
  <g transform="matrix(1.0, 0.0, 0.0, 1.0, 183.4, 511.25)">
    <use ffdec:characterId="235" height="462.6" transform="matrix(1.0, 0.0, 0.0, 1.0, -79.2, -510.35)" width="174.7" xlink:href="#shape0"/>
  </g>
  <defs>
    <g id="shape0" transform="matrix(1.0, 0.0, 0.0, 1.0, 79.2, 510.35)">
      <path d="M85.85 -500.75 Q89.85 -503.0 91.65 -503.0 96.05 -503.0 95.4 -500.65 95.4 -499.6 90.9 -496.1 86.0 -492.35 83.0 -492.35 L80.25 -492.5 80.0 -494.0 Q80.0 -494.65 81.8 -497.55 81.8 -498.5 85.85 -500.75 M61.0 -510.35 Q63.25 -510.35 64.3 -506.4 64.3 -505.5 63.7 -504.4 63.1 -503.25 62.5 -503.25 59.1 -503.25 58.25 -505.25 L58.05 -507.3 Q58.05 -508.35 59.05 -509.35 60.05 -510.35 61.0 -510.35 M33.25 -482.0 Q32.5 -483.4 32.5 -484.85 32.5 -486.7 33.75 -488.25 35.5 -490.35 39.0 -490.35 40.75 -490.35 41.8 -487.85 40.55 -479.75 37.0 -479.75 34.45 -479.75 33.25 -482.0 M10.5 -325.0 Q10.5 -322.6 9.55 -320.5 7.65 -316.35 2.85 -316.35 0.2 -316.35 -1.5 -318.7 -2.75 -320.4 -2.75 -321.25 -2.75 -322.3 -0.25 -325.0 2.3 -327.75 3.5 -327.75 8.75 -327.75 10.0 -326.9 10.5 -326.55 10.5 -325.0 M14.5 -314.1 Q18.35 -314.1 20.75 -307.5 L20.55 -304.5 Q20.75 -303.85 19.5 -303.85 16.85 -303.85 14.35 -307.6 12.3 -310.6 12.3 -311.5 12.3 -314.1 14.5 -314.1 M16.8 -287.9 Q16.8 -287.0 15.85 -285.85 14.45 -284.25 12.0 -284.25 8.9 -284.25 8.3 -285.05 L8.3 -286.0 Q8.3 -287.25 11.05 -288.6 13.5 -289.85 14.75 -289.85 16.8 -289.85 16.8 -287.9 M2.0 -202.75 Q-2.35 -202.75 -4.45 -206.35 L-5.7 -210.15 Q-5.7 -213.75 -3.5 -213.75 3.0 -213.75 3.75 -206.45 L3.75 -204.2 Q3.45 -202.75 2.0 -202.75 M3.95 -220.95 L4.0 -221.0 Q4.05 -220.35 4.05 -221.15 L3.95 -220.95 M0.0 -217.75 Q-5.3 -217.75 -6.65 -219.8 L-7.0 -222.0 Q-7.0 -223.2 -5.45 -224.45 -3.6 -225.95 -0.75 -225.95 7.9 -225.95 6.75 -223.15 6.75 -217.75 0.0 -217.75 M4.5 -193.25 Q3.1 -191.45 1.5 -191.45 -2.55 -191.45 -3.65 -194.35 L-4.0 -197.4 Q-4.0 -198.4 -3.5 -199.45 -3.0 -200.5 -2.5 -200.5 4.55 -200.5 5.75 -195.95 5.75 -194.85 4.5 -193.25 M12.3 -77.35 Q12.3 -79.25 14.5 -79.25 16.9 -79.25 18.8 -76.2 18.8 -75.4 18.05 -73.95 17.05 -72.0 15.6 -72.0 13.7 -72.0 12.8 -74.6 L12.3 -77.35 M5.2 -52.9 L6.75 -50.7 6.75 -48.45 Q7.25 -47.75 6.0 -47.75 4.2 -47.75 1.55 -49.95 L-0.75 -52.15 -0.45 -54.45 0.5 -54.5 Q3.8 -54.5 5.2 -52.9 M6.75 -66.65 Q6.75 -64.6 3.45 -61.5 0.35 -58.7 1.0 -56.25 -0.1 -55.5 -0.65 -55.5 -2.35 -55.5 -3.2 -57.8 L-3.75 -60.25 Q-3.75 -62.0 -1.95 -65.7 0.35 -70.25 3.0 -70.25 6.65 -70.25 6.75 -66.65 M-79.2 -219.5 L-79.2 -221.4 Q-79.2 -225.95 -74.25 -225.95 -70.9 -225.95 -70.75 -222.35 -70.75 -221.15 -71.95 -219.7 -73.4 -217.95 -75.5 -217.95 -78.6 -217.95 -79.2 -219.5 M-32.75 -225.5 Q-28.45 -225.5 -27.5 -221.75 -27.5 -216.5 -32.65 -216.5 -35.55 -216.5 -35.65 -217.85 L-35.25 -219.35 Q-35.25 -219.95 -35.85 -220.0 -36.5 -220.0 -36.5 -220.65 -36.5 -221.95 -35.7 -223.45 -34.6 -225.5 -32.75 -225.5" fill="#959595" fill-rule="evenodd" stroke="none"/>
    </g>
  </defs>
</svg>
