<?xml version="1.0" encoding="UTF-8" standalone="no"?>
<svg xmlns:ffdec="https://www.free-decompiler.com/flash" xmlns:xlink="http://www.w3.org/1999/xlink" ffdec:objectType="frame" height="513.9px" width="383.5px" xmlns="http://www.w3.org/2000/svg">
  <g transform="matrix(1.0, 0.0, 0.0, 1.0, 183.4, 511.25)">
    <use ffdec:characterId="236" height="459.6" transform="matrix(1.0, 0.0, 0.0, 1.0, -78.15, -511.25)" width="172.5" xlink:href="#shape0"/>
  </g>
  <defs>
    <g id="shape0" transform="matrix(1.0, 0.0, 0.0, 1.0, 78.15, 511.25)">
      <path d="M83.05 -496.55 Q82.35 -496.65 82.35 -498.25 82.35 -499.8 85.9 -502.45 89.05 -504.75 90.85 -505.25 94.35 -504.7 94.35 -501.25 94.35 -500.2 92.15 -498.85 89.7 -497.35 85.85 -496.5 L83.05 -496.55 M58.35 -508.25 Q58.35 -509.2 58.65 -509.85 58.55 -510.35 58.6 -511.0 L60.0 -511.1 61.0 -511.2 61.35 -511.25 61.45 -511.15 62.35 -511.0 63.35 -508.0 63.2 -506.95 Q62.95 -506.5 61.35 -506.5 L59.1 -506.75 58.75 -506.55 Q58.35 -506.7 58.35 -508.25 M39.85 -490.0 Q39.85 -488.7 38.3 -486.3 36.55 -483.65 34.35 -482.25 L32.8 -484.5 Q31.85 -486.0 31.85 -487.5 31.85 -488.95 33.65 -490.7 35.95 -492.95 39.1 -492.0 39.85 -492.5 39.85 -490.0 M8.6 -324.85 Q8.6 -322.85 7.15 -320.8 5.55 -318.5 3.35 -318.5 1.55 -318.5 -0.35 -320.55 -1.9 -322.2 -1.9 -322.75 -1.9 -324.6 -0.35 -326.55 1.65 -329.0 4.85 -329.0 9.25 -329.0 8.6 -324.85 M12.1 -313.25 Q12.1 -314.75 12.3 -315.05 12.7 -315.75 14.35 -315.75 15.4 -315.75 17.1 -313.55 18.95 -311.25 19.1 -309.25 18.6 -308.5 17.35 -308.25 L12.1 -313.25 M15.85 -290.0 Q15.85 -287.35 11.85 -285.75 L9.2 -285.8 Q8.6 -285.9 8.6 -287.5 8.6 -288.85 11.05 -290.45 13.45 -292.0 15.1 -292.0 15.85 -292.5 15.85 -290.0 M2.6 -206.0 Q2.35 -205.25 -0.15 -205.25 -1.05 -205.25 -4.1 -208.2 -7.15 -211.15 -7.15 -211.75 -7.15 -215.0 -4.15 -215.0 -0.5 -215.0 1.5 -211.9 3.25 -209.15 2.6 -206.0 M2.65 -221.55 Q0.05 -219.5 -4.15 -219.0 -7.4 -221.7 -7.4 -222.15 -7.4 -223.5 -4.8 -224.75 L-0.15 -227.0 4.1 -227.0 4.5 -226.75 Q4.85 -226.5 4.85 -225.0 4.85 -223.25 2.65 -221.55 M0.1 -193.75 Q-0.25 -193.75 -3.65 -198.25 -3.65 -202.75 -0.65 -202.75 3.5 -202.75 4.35 -197.0 L4.1 -195.5 Q2.35 -193.75 0.1 -193.75 M17.35 -77.15 Q17.25 -76.75 17.45 -76.1 17.4 -75.65 15.85 -75.65 11.85 -75.65 11.85 -79.65 L12.1 -81.65 12.25 -81.9 13.85 -82.15 Q15.85 -82.15 16.65 -80.05 17.1 -78.95 17.35 -77.15 M7.1 -68.4 Q4.65 -63.3 2.5 -61.6 2.0 -60.65 -0.15 -60.65 -1.65 -60.65 -1.95 -61.0 L-2.65 -61.9 Q-3.15 -61.65 -3.15 -64.15 -3.15 -65.85 -1.95 -66.85 -1.5 -68.0 0.1 -69.35 2.2 -71.15 3.35 -71.15 5.5 -71.15 7.1 -68.4 M1.05 -52.05 Q0.35 -52.35 0.35 -54.0 0.35 -55.55 1.1 -55.65 L1.85 -55.65 5.1 -54.65 5.25 -55.0 5.35 -53.5 5.1 -52.4 Q4.6 -51.9 3.85 -51.65 L1.05 -52.05 M-78.15 -220.5 Q-78.15 -224.1 -77.5 -225.5 -76.75 -227.25 -74.65 -227.25 L-72.35 -227.2 Q-71.9 -226.95 -71.9 -225.25 L-72.4 -220.75 Q-72.65 -220.0 -75.15 -220.0 L-78.15 -220.5 M-36.75 -225.75 L-35.15 -226.0 Q-29.75 -226.0 -30.65 -219.75 -31.15 -218.5 -33.65 -218.5 -35.7 -218.5 -36.6 -220.5 -37.15 -221.65 -37.15 -222.75 L-36.9 -225.5 -36.75 -225.75" fill="#999999" fill-rule="evenodd" stroke="none"/>
    </g>
  </defs>
</svg>
