<?xml version="1.0" encoding="UTF-8" standalone="no"?>
<svg xmlns:ffdec="https://www.free-decompiler.com/flash" xmlns:xlink="http://www.w3.org/1999/xlink" ffdec:objectType="frame" height="513.9px" width="383.5px" xmlns="http://www.w3.org/2000/svg">
  <g transform="matrix(1.0, 0.0, 0.0, 1.0, 183.4, 511.25)">
    <use ffdec:characterId="237" height="442.65" transform="matrix(1.0, 0.0, 0.0, 1.0, -5.75, -506.1)" width="99.0" xlink:href="#shape0"/>
  </g>
  <defs>
    <g id="shape0" transform="matrix(1.0, 0.0, 0.0, 1.0, 5.75, 506.1)">
      <path d="M84.3 -499.95 L84.25 -501.25 Q86.85 -506.1 87.0 -506.1 93.25 -506.1 93.25 -503.55 93.25 -502.6 91.25 -500.75 89.2 -498.85 88.0 -498.85 84.95 -498.85 84.3 -499.95 M38.5 -491.3 Q38.5 -487.1 35.25 -487.1 33.55 -487.1 32.75 -489.1 32.3 -490.3 32.3 -491.3 32.3 -494.0 36.5 -494.0 38.65 -494.0 38.5 -491.3 M7.5 -327.5 Q6.5 -321.85 2.85 -321.85 0.3 -321.85 -0.7 -324.3 -1.2 -325.55 -1.2 -326.9 -1.2 -330.6 4.5 -330.6 7.85 -330.6 7.5 -327.5 M1.0 -206.95 Q-0.8 -206.95 -3.45 -210.0 -5.75 -212.7 -5.75 -213.25 -5.75 -214.75 -4.5 -214.75 -2.85 -214.75 0.1 -212.45 2.75 -210.3 2.75 -209.75 2.0 -206.95 1.0 -206.95 M3.25 -199.6 Q3.25 -198.65 2.6 -197.65 1.95 -196.75 1.5 -196.75 -0.2 -196.75 -1.5 -198.75 -2.5 -200.3 -2.5 -201.0 -2.5 -202.75 -1.0 -202.75 0.95 -202.75 2.25 -201.4 3.25 -200.4 3.25 -199.6 M3.75 -226.0 Q3.75 -221.95 -2.0 -221.95 -4.9 -221.95 -5.5 -223.05 L-5.5 -224.25 Q-5.5 -227.75 2.0 -227.75 3.8 -227.75 3.75 -226.0 M6.25 -68.85 Q6.25 -66.4 3.3 -64.7 0.75 -63.25 -0.75 -63.45 -1.75 -64.25 -1.75 -65.5 -1.75 -66.7 -0.7 -68.7 0.65 -71.2 2.5 -71.2 5.65 -71.2 6.25 -68.85" fill="#999999" fill-rule="evenodd" stroke="none"/>
    </g>
  </defs>
</svg>
