<?xml version="1.0" encoding="UTF-8" standalone="no"?>
<svg xmlns:ffdec="https://www.free-decompiler.com/flash" xmlns:xlink="http://www.w3.org/1999/xlink" ffdec:objectType="frame" height="513.9px" width="383.5px" xmlns="http://www.w3.org/2000/svg">
  <g transform="matrix(1.0, 0.0, 0.0, 1.0, 183.4, 511.25)">
    <use ffdec:characterId="238" height="441.35" transform="matrix(1.0, 0.0, 0.0, 1.0, -5.9, -507.75)" width="97.5" xlink:href="#shape0"/>
  </g>
  <defs>
    <g id="shape0" transform="matrix(1.0, 0.0, 0.0, 1.0, 5.9, 507.75)">
      <path d="M85.35 -506.5 Q86.1 -507.25 89.85 -507.75 L91.2 -507.3 Q91.6 -506.95 91.6 -505.35 L91.1 -502.75 86.1 -502.0 Q85.35 -504.25 85.35 -506.5 M35.85 -490.5 L33.35 -490.75 Q33.3 -491.8 33.4 -492.65 L33.35 -493.25 Q33.35 -493.85 33.75 -494.35 34.45 -496.25 36.35 -496.25 L38.35 -493.25 Q37.75 -491.45 35.85 -490.5 M7.2 -331.3 Q7.6 -330.95 7.6 -329.35 7.6 -326.75 5.65 -325.25 4.3 -324.25 3.35 -324.25 0.6 -324.25 0.1 -325.85 -0.15 -326.65 0.1 -327.75 0.1 -330.1 0.9 -330.65 L5.85 -331.75 7.2 -331.3 M0.1 -207.75 L-2.8 -211.0 Q-4.5 -211.6 -5.9 -213.5 -5.7 -214.75 -3.65 -215.75 L-0.65 -215.25 -0.3 -213.9 Q2.0 -213.15 2.6 -210.65 2.6 -208.15 2.35 -208.75 1.85 -208.0 0.1 -207.75 M0.9 -201.6 L1.35 -201.0 1.1 -199.5 0.35 -198.75 Q-1.25 -199.85 -1.95 -200.95 L-3.4 -201.9 Q-3.4 -203.45 -2.75 -203.9 L-2.15 -204.25 1.1 -203.25 0.9 -201.6 M1.6 -224.75 Q-1.45 -222.0 -2.65 -222.0 L-4.4 -222.5 -5.05 -222.8 -5.15 -224.4 Q-5.15 -225.8 -3.85 -227.0 -2.8 -228.0 -2.15 -228.0 L-1.85 -227.95 -0.15 -229.5 Q1.9 -229.15 2.35 -227.75 1.6 -226.7 0.6 -226.25 L1.6 -224.75 M5.2 -71.65 Q5.6 -71.45 5.6 -69.9 4.1 -67.15 1.85 -66.4 0.85 -66.4 -0.4 -66.9 -0.9 -65.5 -0.9 -68.0 -0.9 -69.3 1.15 -70.75 3.1 -72.1 3.85 -71.9 L5.2 -71.65" fill="#999999" fill-rule="evenodd" stroke="none"/>
    </g>
  </defs>
</svg>
