<?xml version="1.0" encoding="UTF-8" standalone="no"?>
<svg xmlns:ffdec="https://www.free-decompiler.com/flash" xmlns:xlink="http://www.w3.org/1999/xlink" ffdec:objectType="frame" height="513.9px" width="383.5px" xmlns="http://www.w3.org/2000/svg">
  <g transform="matrix(1.0, 0.0, 0.0, 1.0, 183.4, 511.25)">
    <use ffdec:characterId="240" height="5.75" transform="matrix(1.0, 0.0, 0.0, 1.0, 0.1, -334.0)" width="5.75" xlink:href="#shape0"/>
  </g>
  <defs>
    <g id="shape0" transform="matrix(1.0, 0.0, 0.0, 1.0, -0.1, 334.0)">
      <path d="M5.85 -332.0 Q5.85 -330.6 5.65 -330.5 5.3 -330.3 5.1 -329.75 L2.85 -328.5 2.4 -328.45 Q2.1 -328.3 1.85 -328.25 L1.55 -328.35 0.95 -328.35 Q0.5 -328.3 0.4 -329.15 L0.1 -329.5 0.35 -329.9 Q0.45 -331.3 3.85 -334.0 L5.3 -333.75 Q5.85 -333.55 5.85 -332.0" fill="#999999" fill-rule="evenodd" stroke="none"/>
    </g>
  </defs>
</svg>
