<?xml version="1.0" encoding="UTF-8" standalone="no"?>
<svg xmlns:ffdec="https://www.free-decompiler.com/flash" xmlns:xlink="http://www.w3.org/1999/xlink" ffdec:objectType="frame" height="12.0px" width="34.0px" xmlns="http://www.w3.org/2000/svg">
  <g transform="matrix(1.0, 0.0, 0.0, 1.0, 0.0, 0.0)">
    <use ffdec:characterId="667" height="12.0" transform="matrix(1.0, 0.0, 0.0, 1.0, 0.0, 0.0)" width="34.0" xlink:href="#shape0"/>
  </g>
  <defs>
    <g id="shape0" transform="matrix(1.0, 0.0, 0.0, 1.0, 0.0, 0.0)">
      <path d="M33.0 4.6 L32.65 3.5 32.45 3.75 31.75 4.2 Q31.35 4.55 31.0 5.25 30.4 6.35 30.4 6.9 L30.4 7.0 28.9 7.75 27.95 8.0 28.1 7.65 28.8 7.5 29.05 5.8 Q29.05 4.55 28.1 3.75 L27.55 1.8 27.45 1.8 27.3 1.9 27.05 2.85 27.05 3.15 26.35 2.9 26.35 2.85 26.15 2.05 26.0 2.8 25.65 2.75 24.9 1.8 27.45 1.6 28.8 1.5 28.75 1.25 27.45 1.2 27.45 1.1 26.65 0.55 27.45 0.6 Q31.75 0.75 33.05 2.7 L33.45 4.3 33.55 4.95 33.55 5.5 33.5 6.7 33.3 7.5 33.0 4.6 M27.9 8.0 L27.5 8.05 Q27.6 8.05 27.75 8.2 L24.9 8.1 24.9 8.05 26.1 8.0 26.25 8.0 26.4 7.75 26.9 7.75 27.8 7.7 27.9 8.0 M32.8 9.0 Q32.3 10.0 31.5 10.45 L29.9 11.0 Q27.45 11.35 14.9 11.35 4.3 11.35 1.65 10.1 0.85 9.7 0.6 8.6 L0.25 5.7 0.25 5.6 0.7 5.25 0.8 5.7 1.4 7.9 2.45 9.9 6.1 10.45 10.95 10.75 16.5 10.7 21.9 10.65 27.35 10.45 Q30.2 10.15 32.8 9.0 M0.35 3.85 L0.65 2.9 0.9 2.4 1.6 1.6 Q2.3 1.0 3.55 0.85 L4.35 0.75 4.35 0.8 1.75 1.75 1.85 2.15 0.35 3.85 M23.7 8.1 L23.7 8.05 24.8 8.05 24.85 8.1 23.7 8.1 M19.7 2.65 Q19.2 2.3 18.65 2.1 L20.05 2.05 19.7 2.65 M10.9 3.65 L11.1 3.65 10.9 3.8 10.9 3.65 M13.3 8.75 L13.75 8.65 13.8 8.65 14.55 8.55 14.55 8.8 11.4 9.0 13.3 8.75 M14.75 8.75 L14.8 8.5 16.5 8.25 19.9 8.15 19.9 8.2 14.75 8.75 M8.15 8.7 L7.1 9.0 6.4 8.8 Q4.95 8.4 3.6 7.55 L4.1 7.4 6.05 8.3 6.5 8.15 7.25 8.45 7.3 8.6 7.55 8.55 7.95 8.65 8.15 8.7 M8.1 7.6 L7.9 7.6 7.5 7.6 7.35 2.65 8.0 2.8 8.1 6.5 8.05 6.5 8.1 6.55 8.1 7.6 M19.95 8.2 L19.95 8.15 20.7 8.1 19.95 8.2 M4.1 3.0 L4.8 3.1 5.05 4.95 3.75 4.15 4.1 3.0 M5.05 5.25 L5.3 3.35 5.75 3.65 6.5 5.75 6.5 3.5 6.4 2.8 7.0 3.05 7.1 7.6 6.3 7.6 6.3 7.8 5.4 7.45 4.25 6.0 5.05 5.25 M9.0 5.5 L9.2 3.3 9.75 3.75 9.95 3.7 9.9 4.65 9.0 5.5 M2.05 3.15 L1.8 3.6 1.8 3.4 2.05 3.15 M1.85 4.95 L2.05 5.8 1.85 5.55 1.85 4.95" fill="#b2aba1" fill-rule="evenodd" stroke="none"/>
      <path d="M26.65 0.55 L27.45 1.1 27.45 1.2 28.75 1.25 28.8 1.5 27.45 1.6 24.9 1.8 23.95 1.85 23.3 1.9 23.1 1.9 22.5 1.9 21.9 1.95 21.4 1.95 20.05 2.05 18.65 2.1 18.55 2.1 18.45 1.55 18.3 2.1 16.4 2.25 Q15.75 2.35 15.75 2.1 L15.8 1.8 17.0 1.6 12.85 1.05 12.75 1.05 11.35 1.3 11.3 1.3 11.35 1.35 12.2 1.55 10.35 1.75 10.3 1.65 10.25 1.6 9.85 1.2 9.6 1.15 2.6 1.8 2.5 1.85 2.3 1.9 Q2.1 2.05 1.85 2.15 L1.75 1.75 4.35 0.8 4.35 0.75 5.95 0.7 12.75 0.6 23.95 0.55 26.65 0.55" fill="#9d8c70" fill-rule="evenodd" stroke="none"/>
      <path d="M26.0 2.8 L26.15 2.05 26.35 2.85 26.35 2.9 26.35 3.8 25.8 7.25 25.8 6.45 26.0 2.85 26.0 2.8 M27.05 3.15 L27.05 2.85 27.3 1.9 27.45 1.8 27.55 1.8 28.1 3.75 28.25 4.55 Q28.55 6.1 28.1 7.65 L27.95 8.0 27.9 8.0 27.8 7.7 27.5 6.9 Q27.0 5.15 27.05 3.15 M24.55 4.0 L25.0 2.05 25.1 3.65 Q25.35 5.3 25.1 6.85 L24.95 7.6 24.9 8.05 24.9 8.1 24.85 8.1 24.8 8.05 24.6 7.55 24.55 4.0" fill="#b4ada3" fill-rule="evenodd" stroke="none"/>
      <path d="M25.65 2.75 L26.0 2.8 26.0 2.85 25.8 6.45 25.8 7.25 26.35 3.8 26.35 2.9 27.05 3.15 Q27.0 5.15 27.5 6.9 L27.8 7.7 26.9 7.75 26.4 7.75 24.95 7.6 25.1 6.85 Q25.35 5.3 25.1 3.65 L25.65 2.85 25.65 2.75 M28.1 3.75 Q29.05 4.55 29.05 5.8 L28.8 7.5 28.1 7.65 Q28.55 6.1 28.25 4.55 L28.1 3.75 M23.65 4.5 L24.55 4.0 24.6 7.55 23.85 7.35 23.65 4.5 M23.0 4.85 L23.1 7.05 22.75 6.9 22.65 6.8 22.65 5.0 23.0 4.85 M22.25 6.6 Q21.8 6.3 21.8 6.0 L21.9 4.95 22.1 5.0 22.25 6.6" fill="#bbb8b1" fill-rule="evenodd" stroke="none"/>
      <path d="M33.3 7.5 L33.5 6.7 33.55 5.5 33.55 4.95 33.45 4.3 33.05 2.7 Q31.75 0.75 27.45 0.6 L26.65 0.55 23.95 0.55 12.75 0.6 5.95 0.7 4.35 0.75 3.55 0.85 Q2.3 1.0 1.6 1.6 L0.9 2.4 0.65 2.9 0.35 3.85 0.2 4.75 0.25 5.6 0.25 5.7 0.6 8.6 Q0.85 9.7 1.65 10.1 4.3 11.35 14.9 11.35 27.45 11.35 29.9 11.0 L31.5 10.45 Q32.3 10.0 32.8 9.0 L33.3 7.5 M31.0 0.0 Q33.8 0.0 34.0 2.7 L34.0 9.2 Q33.95 12.0 31.0 12.0 L3.0 12.0 Q0.05 12.0 0.0 9.2 L0.0 2.85 Q0.1 0.0 3.0 0.0 L31.0 0.0" fill="#221f18" fill-rule="evenodd" stroke="none"/>
      <path d="M24.9 1.8 L25.65 2.75 25.65 2.85 25.1 3.65 25.0 2.05 24.55 4.0 23.65 4.5 23.3 1.9 23.95 1.85 24.9 1.8 M23.1 1.9 L23.0 4.85 22.65 5.0 22.5 1.9 23.1 1.9 M20.05 2.05 L21.4 1.95 21.9 1.95 22.1 5.0 21.9 4.95 21.05 4.5 20.85 2.6 20.7 4.2 20.5 4.0 Q19.65 3.15 19.65 2.9 L19.7 2.65 20.05 2.05" fill="#c7bba5" fill-rule="evenodd" stroke="none"/>
      <path d="M27.95 8.0 L28.9 7.75 30.4 7.0 30.4 6.9 Q30.4 6.35 31.0 5.25 31.35 4.55 31.75 4.2 L32.45 3.75 32.65 3.5 33.0 4.6 32.9 4.95 Q32.4 7.25 30.3 8.4 L29.45 8.75 29.15 8.6 27.75 8.2 Q27.6 8.05 27.5 8.05 L27.9 8.0 27.95 8.0 M7.1 9.0 L7.05 9.2 7.2 9.5 Q4.2 10.0 2.4 7.45 L1.55 6.05 1.85 5.55 2.05 5.8 2.15 6.95 3.0 7.55 3.6 7.55 Q4.95 8.4 6.4 8.8 L7.1 9.0" fill="#d6ccc2" fill-rule="evenodd" stroke="none"/>
      <path d="M33.0 4.6 L33.3 7.5 32.8 9.0 Q30.2 10.15 27.35 10.45 L21.9 10.65 16.5 10.7 10.95 10.75 6.1 10.45 2.45 9.9 1.4 7.9 0.8 5.7 0.7 5.25 1.8 3.4 1.8 3.6 1.55 4.25 1.85 4.95 1.85 5.55 1.55 6.05 2.4 7.45 Q4.2 10.0 7.2 9.5 L7.75 9.8 8.95 9.85 29.45 8.75 30.3 8.4 Q32.4 7.25 32.9 4.95 L33.0 4.6" fill="#e8ded5" fill-rule="evenodd" stroke="none"/>
      <path d="M27.75 8.2 L29.15 8.6 29.45 8.75 8.95 9.85 7.75 9.8 7.2 9.5 7.05 9.2 7.1 9.0 8.15 8.7 11.4 9.0 14.55 8.8 14.75 8.75 19.9 8.2 19.95 8.2 20.7 8.1 20.9 8.1 20.95 8.1 23.2 8.05 23.7 8.1 24.85 8.1 24.9 8.1 27.75 8.2" fill="#dbc5b7" fill-rule="evenodd" stroke="none"/>
      <path d="M24.95 7.6 L26.4 7.75 26.25 8.0 26.1 8.0 24.9 8.05 24.95 7.6 M23.1 7.05 L23.2 8.05 20.95 8.1 21.0 7.55 22.3 7.2 22.45 7.95 22.65 7.0 22.75 6.9 23.1 7.05 M23.7 8.05 L23.85 7.35 24.6 7.55 24.8 8.05 23.7 8.05 M18.8 7.35 L19.85 7.5 19.9 8.15 16.5 8.25 14.8 8.5 14.8 7.55 15.9 7.45 16.0 7.45 17.05 7.3 17.2 7.8 17.3 7.3 18.6 7.35 18.8 7.35 M20.05 7.5 L20.4 7.55 20.85 7.55 20.9 8.1 20.7 8.1 19.95 8.15 20.05 7.5 M10.65 7.7 L12.35 7.7 13.3 7.65 13.3 8.75 11.4 9.0 8.15 8.7 7.95 8.65 7.55 8.55 7.5 7.6 7.9 7.6 8.1 7.6 8.1 8.6 8.55 8.6 8.9 7.2 8.95 7.2 9.95 7.55 10.55 8.3 10.65 7.7 M13.75 8.65 L13.65 7.65 14.5 7.55 14.55 8.55 13.8 8.65 13.75 8.65 M7.1 7.6 L7.25 8.45 6.5 8.15 6.3 7.8 6.3 7.6 7.1 7.6" fill="#a8927d" fill-rule="evenodd" stroke="none"/>
      <path d="M23.3 1.9 L23.65 4.5 23.85 7.35 23.7 8.05 23.7 8.1 23.2 8.05 23.1 7.05 23.0 4.85 23.1 1.9 23.3 1.9 M21.9 1.95 L22.5 1.9 22.65 5.0 22.65 6.8 22.65 7.0 22.45 7.95 22.3 7.2 22.25 6.6 22.1 5.0 21.9 1.95 M21.05 4.5 L21.0 7.55 20.95 8.1 20.9 8.1 20.85 7.55 20.7 4.2 20.85 2.6 21.05 4.5" fill="#afa389" fill-rule="evenodd" stroke="none"/>
      <path d="M18.3 2.1 L18.3 2.25 17.25 3.1 17.05 3.25 15.75 3.75 15.5 2.05 15.5 3.8 14.65 3.85 14.35 3.85 14.15 3.35 14.05 3.85 13.35 3.85 13.25 2.3 13.05 3.85 12.05 3.8 12.05 2.45 11.95 2.5 11.8 2.8 11.6 3.75 11.1 3.65 10.9 3.65 10.35 1.75 12.2 1.55 11.35 1.35 11.3 1.3 11.35 1.3 12.75 1.05 12.85 1.05 17.0 1.6 15.8 1.8 15.75 2.1 Q15.75 2.35 16.4 2.25 L18.3 2.1" fill="#9d8762" fill-rule="evenodd" stroke="none"/>
      <path d="M18.55 2.1 Q19.0 4.25 18.9 6.35 L18.8 7.35 18.6 7.35 18.3 2.25 18.3 2.1 18.45 1.55 18.55 2.1 M19.85 7.5 Q19.4 5.8 19.65 4.35 L19.75 3.55 20.05 6.7 20.05 7.5 19.95 8.15 19.95 8.2 19.9 8.2 19.9 8.15 19.85 7.5 M14.05 3.85 L14.15 3.35 14.35 3.85 14.8 7.55 14.8 8.5 14.75 8.75 14.55 8.8 14.55 8.55 14.5 7.55 14.05 3.85 M15.5 3.8 L15.5 2.05 15.75 3.75 16.0 6.75 16.0 7.45 15.9 7.45 15.5 3.8 M17.05 3.25 L17.25 3.1 17.3 7.3 17.2 7.8 17.05 7.3 17.05 3.25" fill="#a58f6a" fill-rule="evenodd" stroke="none"/>
      <path d="M21.9 4.95 L21.8 6.0 Q21.8 6.3 22.25 6.6 L22.3 7.2 21.0 7.55 21.05 4.5 21.9 4.95 M19.7 2.65 L19.65 2.9 Q19.65 3.15 20.5 4.0 L20.7 4.2 20.85 7.55 20.4 7.55 20.05 7.5 20.05 6.7 19.75 3.55 19.65 4.35 Q19.4 5.8 19.85 7.5 L18.8 7.35 18.9 6.35 Q19.0 4.25 18.55 2.1 L18.65 2.1 Q19.2 2.3 19.7 2.65 M22.65 6.8 L22.75 6.9 22.65 7.0 22.65 6.8 M18.3 2.25 L18.6 7.35 17.3 7.3 17.25 3.1 18.3 2.25 M11.1 3.65 L11.6 3.75 Q11.45 5.2 11.7 6.6 L11.8 7.25 12.05 3.8 13.05 3.85 13.3 7.65 12.35 7.7 10.65 7.7 10.75 5.1 10.9 3.8 11.1 3.65 M13.35 3.85 L14.05 3.85 14.5 7.55 13.65 7.65 13.35 3.85 M14.35 3.85 L14.65 3.85 15.5 3.8 15.9 7.45 14.8 7.55 14.35 3.85 M15.75 3.75 L17.05 3.25 17.05 7.3 16.0 7.45 16.0 6.75 15.75 3.75 M9.95 7.55 L8.95 7.2 8.9 7.2 9.0 5.5 9.9 4.65 9.95 7.55 M8.1 6.5 L8.1 6.55 8.05 6.5 8.1 6.5" fill="#c7b18c" fill-rule="evenodd" stroke="none"/>
      <path d="M8.9 7.2 L8.55 8.6 8.1 8.6 8.1 7.6 8.1 6.55 8.1 6.5 8.0 2.8 8.1 2.05 7.45 2.4 7.4 2.5 7.35 2.65 7.5 7.6 7.55 8.55 7.3 8.6 7.25 8.45 7.1 7.6 7.0 3.05 6.4 2.8 6.5 3.5 6.5 5.75 5.75 3.65 5.3 3.35 5.05 5.25 5.05 4.95 4.8 3.1 4.1 3.0 3.3 3.25 3.65 2.5 2.55 2.4 2.55 1.85 2.6 1.8 9.6 1.15 9.85 1.2 10.25 1.6 10.0 2.85 9.2 3.3 9.0 5.5 8.9 7.2" fill="#a69986" fill-rule="evenodd" stroke="none"/>
      <path d="M0.25 5.6 L0.2 4.75 0.35 3.85 1.85 2.15 Q2.1 2.05 2.3 1.9 L2.35 2.55 2.05 3.15 1.8 3.4 0.7 5.25 0.25 5.6 M7.35 2.65 L7.4 2.5 7.45 2.4 8.1 2.05 8.0 2.8 7.35 2.65 M2.6 1.8 L2.55 1.85 2.5 1.85 2.6 1.8 M9.2 3.3 L10.0 2.85 9.95 3.7 9.75 3.75 9.2 3.3" fill="#c0b19c" fill-rule="evenodd" stroke="none"/>
      <path d="M2.55 1.85 L2.55 2.4 3.65 2.5 3.3 3.25 4.1 3.0 3.75 4.15 5.05 4.95 5.05 5.25 4.25 6.0 5.4 7.45 6.3 7.8 6.5 8.15 6.05 8.3 4.1 7.4 3.6 7.55 3.0 7.55 2.15 6.95 2.05 5.8 1.85 4.95 1.55 4.25 1.8 3.6 2.05 3.15 2.35 2.55 2.3 1.9 2.5 1.85 2.55 1.85" fill="#999184" fill-rule="evenodd" stroke="none"/>
      <path d="M10.35 1.75 L10.9 3.65 10.9 3.8 10.75 5.1 10.65 7.7 10.55 8.3 9.95 7.55 9.9 4.65 9.95 3.7 10.0 2.85 10.25 1.6 10.3 1.65 10.35 1.75 M11.6 3.75 L11.8 2.8 11.95 2.5 12.05 2.45 12.05 3.8 11.8 7.25 11.7 6.6 Q11.45 5.2 11.6 3.75 M13.05 3.85 L13.25 2.3 13.35 3.85 13.65 7.65 13.75 8.65 13.3 8.75 13.3 7.65 13.05 3.85" fill="#998263" fill-rule="evenodd" stroke="none"/>
    </g>
  </defs>
</svg>
