<?xml version="1.0" encoding="UTF-8" standalone="no"?>
<svg xmlns:ffdec="https://www.free-decompiler.com/flash" xmlns:xlink="http://www.w3.org/1999/xlink" ffdec:objectType="frame" height="2625.0px" width="2215.0px" xmlns="http://www.w3.org/2000/svg">
  <g transform="matrix(1.0, 0.0, 0.0, 1.0, -105.0, -250.0)">
    <use ffdec:characterId="3118" height="2100.0" id="b1" transform="matrix(1.0, 0.0, 0.0, 1.0, 699.95, 775.0)" width="301.0" xlink:href="#sprite0"/>
    <use ffdec:characterId="3124" height="1250.0" id="b2" transform="matrix(1.0, 0.0, 0.0, 1.0, 105.0, 250.0)" width="415.0" xlink:href="#sprite4"/>
    <use ffdec:characterId="3134" height="185.0" id="b3" transform="matrix(1.0, 0.0, 0.0, 1.0, 1208.1, 650.0)" width="356.0" xlink:href="#sprite8"/>
    <use ffdec:characterId="3141" height="126.65" id="b4" transform="matrix(1.0, 0.0, 0.0, 1.0, 1800.0, 440.0)" width="520.0" xlink:href="#sprite13"/>
  </g>
  <defs>
    <g id="sprite0" transform="matrix(1.0, 0.0, 0.0, 1.0, 0.0, 0.0)">
      <use ffdec:characterId="3117" height="4200.0" transform="matrix(0.5, 0.0, 0.0, 0.5, 0.0, 0.0)" width="602.0" xlink:href="#sprite1"/>
    </g>
    <g id="sprite1" transform="matrix(1.0, 0.0, 0.0, 1.0, 0.0, 0.0)">
      <use ffdec:characterId="3112" height="4200.0" transform="matrix(1.0, 0.0, 0.0, 1.0, 0.0, 0.0)" width="600.0" xlink:href="#shape0"/>
      <use ffdec:characterId="3116" height="99.95" transform="matrix(1.0, 0.0, 0.0, 1.0, 0.0, 0.05)" width="602.0" xlink:href="#sprite2"/>
      <use ffdec:characterId="3116" height="99.95" transform="matrix(1.0, 0.0, 0.0, 1.0, 0.0, 100.05)" width="602.0" xlink:href="#sprite2"/>
      <use ffdec:characterId="3116" height="99.95" transform="matrix(1.0, 0.0, 0.0, 1.0, 0.0, 200.05)" width="602.0" xlink:href="#sprite2"/>
      <use ffdec:characterId="3116" height="99.95" transform="matrix(1.0, 0.0, 0.0, 1.0, 0.0, 300.05)" width="602.0" xlink:href="#sprite2"/>
      <use ffdec:characterId="3116" height="99.95" transform="matrix(1.0, 0.0, 0.0, 1.0, 0.0, 400.05)" width="602.0" xlink:href="#sprite2"/>
      <use ffdec:characterId="3116" height="99.95" transform="matrix(1.0, 0.0, 0.0, 1.0, 0.0, 500.05)" width="602.0" xlink:href="#sprite2"/>
      <use ffdec:characterId="3116" height="99.95" transform="matrix(1.0, 0.0, 0.0, 1.0, 0.0, 600.05)" width="602.0" xlink:href="#sprite2"/>
      <use ffdec:characterId="3116" height="99.95" transform="matrix(1.0, 0.0, 0.0, 1.0, 0.0, 700.05)" width="602.0" xlink:href="#sprite2"/>
      <use ffdec:characterId="3116" height="99.95" transform="matrix(1.0, 0.0, 0.0, 1.0, 0.0, 800.05)" width="602.0" xlink:href="#sprite2"/>
      <use ffdec:characterId="3116" height="99.95" transform="matrix(1.0, 0.0, 0.0, 1.0, 0.0, 900.05)" width="602.0" xlink:href="#sprite2"/>
      <use ffdec:characterId="3116" height="99.95" transform="matrix(1.0, 0.0, 0.0, 1.0, 0.0, 1000.05)" width="602.0" xlink:href="#sprite2"/>
      <use ffdec:characterId="3116" height="99.95" transform="matrix(1.0, 0.0, 0.0, 1.0, 0.0, 1100.05)" width="602.0" xlink:href="#sprite2"/>
      <use ffdec:characterId="3116" height="99.95" transform="matrix(1.0, 0.0, 0.0, 1.0, 0.0, 1200.05)" width="602.0" xlink:href="#sprite2"/>
      <use ffdec:characterId="3116" height="99.95" transform="matrix(1.0, 0.0, 0.0, 1.0, 0.0, 1300.05)" width="602.0" xlink:href="#sprite2"/>
      <use ffdec:characterId="3116" height="99.95" transform="matrix(1.0, 0.0, 0.0, 1.0, 0.0, 1400.05)" width="602.0" xlink:href="#sprite2"/>
      <use ffdec:characterId="3116" height="99.95" transform="matrix(1.0, 0.0, 0.0, 1.0, 0.0, 1500.05)" width="602.0" xlink:href="#sprite2"/>
      <use ffdec:characterId="3116" height="99.95" transform="matrix(1.0, 0.0, 0.0, 1.0, 0.0, 1600.05)" width="602.0" xlink:href="#sprite2"/>
      <use ffdec:characterId="3116" height="99.95" transform="matrix(1.0, 0.0, 0.0, 1.0, 0.0, 1700.05)" width="602.0" xlink:href="#sprite2"/>
      <use ffdec:characterId="3116" height="99.95" transform="matrix(1.0, 0.0, 0.0, 1.0, 0.0, 1800.05)" width="602.0" xlink:href="#sprite2"/>
      <use ffdec:characterId="3116" height="99.95" transform="matrix(1.0, 0.0, 0.0, 1.0, 0.0, 1900.05)" width="602.0" xlink:href="#sprite2"/>
      <use ffdec:characterId="3116" height="99.95" transform="matrix(1.0, 0.0, 0.0, 1.0, 0.0, 2000.05)" width="602.0" xlink:href="#sprite2"/>
      <use ffdec:characterId="3116" height="99.95" transform="matrix(1.0, 0.0, 0.0, 1.0, 0.0, 2099.95)" width="602.0" xlink:href="#sprite2"/>
      <use ffdec:characterId="3116" height="99.95" transform="matrix(1.0, 0.0, 0.0, 1.0, 0.0, 2199.95)" width="602.0" xlink:href="#sprite2"/>
      <use ffdec:characterId="3116" height="99.95" transform="matrix(1.0, 0.0, 0.0, 1.0, 0.0, 2299.95)" width="602.0" xlink:href="#sprite2"/>
      <use ffdec:characterId="3116" height="99.95" transform="matrix(1.0, 0.0, 0.0, 1.0, 0.0, 2399.95)" width="602.0" xlink:href="#sprite2"/>
      <use ffdec:characterId="3116" height="99.95" transform="matrix(1.0, 0.0, 0.0, 1.0, 0.0, 2499.95)" width="602.0" xlink:href="#sprite2"/>
      <use ffdec:characterId="3116" height="99.95" transform="matrix(1.0, 0.0, 0.0, 1.0, 0.0, 2599.95)" width="602.0" xlink:href="#sprite2"/>
      <use ffdec:characterId="3116" height="99.95" transform="matrix(1.0, 0.0, 0.0, 1.0, 0.0, 2699.95)" width="602.0" xlink:href="#sprite2"/>
      <use ffdec:characterId="3116" height="99.95" transform="matrix(1.0, 0.0, 0.0, 1.0, 0.0, 2799.95)" width="602.0" xlink:href="#sprite2"/>
      <use ffdec:characterId="3116" height="99.95" transform="matrix(1.0, 0.0, 0.0, 1.0, 0.0, 2899.95)" width="602.0" xlink:href="#sprite2"/>
      <use ffdec:characterId="3116" height="99.95" transform="matrix(1.0, 0.0, 0.0, 1.0, 0.0, 2999.95)" width="602.0" xlink:href="#sprite2"/>
      <use ffdec:characterId="3116" height="99.95" transform="matrix(1.0, 0.0, 0.0, 1.0, 0.0, 3099.95)" width="602.0" xlink:href="#sprite2"/>
      <use ffdec:characterId="3116" height="99.95" transform="matrix(1.0, 0.0, 0.0, 1.0, 0.0, 3199.95)" width="602.0" xlink:href="#sprite2"/>
      <use ffdec:characterId="3116" height="99.95" transform="matrix(1.0, 0.0, 0.0, 1.0, 0.0, 3299.95)" width="602.0" xlink:href="#sprite2"/>
      <use ffdec:characterId="3116" height="99.95" transform="matrix(1.0, 0.0, 0.0, 1.0, 0.0, 3399.95)" width="602.0" xlink:href="#sprite2"/>
      <use ffdec:characterId="3116" height="99.95" transform="matrix(1.0, 0.0, 0.0, 1.0, 0.0, 3499.95)" width="602.0" xlink:href="#sprite2"/>
      <use ffdec:characterId="3116" height="99.95" transform="matrix(1.0, 0.0, 0.0, 1.0, 0.0, 3599.95)" width="602.0" xlink:href="#sprite2"/>
      <use ffdec:characterId="3116" height="99.95" transform="matrix(1.0, 0.0, 0.0, 1.0, 0.0, 3699.95)" width="602.0" xlink:href="#sprite2"/>
      <use ffdec:characterId="3116" height="99.95" transform="matrix(1.0, 0.0, 0.0, 1.0, 0.0, 3799.95)" width="602.0" xlink:href="#sprite2"/>
      <use ffdec:characterId="3116" height="99.95" transform="matrix(1.0, 0.0, 0.0, 1.0, 0.0, 3899.95)" width="602.0" xlink:href="#sprite2"/>
      <use ffdec:characterId="3116" height="99.95" transform="matrix(1.0, 0.0, 0.0, 1.0, 0.0, 3999.95)" width="602.0" xlink:href="#sprite2"/>
      <use ffdec:characterId="3116" height="99.95" transform="matrix(1.0, 0.0, 0.0, 1.0, 0.0, 4099.95)" width="602.0" xlink:href="#sprite2"/>
    </g>
    <g id="shape0" transform="matrix(1.0, 0.0, 0.0, 1.0, 0.0, 0.0)">
      <path d="M600.0 0.0 L600.0 2100.0 600.0 4200.0 0.0 4200.0 0.0 2100.0 0.0 0.0 600.0 0.0" fill="url(#gradient0)" fill-rule="evenodd" stroke="none"/>
    </g>
    <radialGradient cx="0" cy="0" gradientTransform="matrix(1.4784, 0.0, 0.0, 6.2282, 538.35, 203.7)" gradientUnits="userSpaceOnUse" id="gradient0" r="819.2" spreadMethod="pad">
      <stop offset="0.0" stop-color="#ffffff"/>
      <stop offset="0.3607843137254902" stop-color="#95afca"/>
      <stop offset="0.611764705882353" stop-color="#ffffff"/>
      <stop offset="0.8941176470588236" stop-color="#95afca"/>
    </radialGradient>
    <g id="sprite2" transform="matrix(1.0, 0.0, 0.0, 1.0, 0.0, 0.0)">
      <use ffdec:characterId="3114" height="99.95" transform="matrix(1.0, 0.0, 0.0, 1.0, 0.0, 0.0)" width="40.0" xlink:href="#sprite3"/>
      <use ffdec:characterId="3114" height="99.95" transform="matrix(1.0, 0.0, 0.0, 1.0, 40.0, 0.0)" width="40.0" xlink:href="#sprite3"/>
      <use ffdec:characterId="3114" height="99.95" transform="matrix(1.0, 0.0, 0.0, 1.0, 80.0, 0.0)" width="40.0" xlink:href="#sprite3"/>
      <use ffdec:characterId="3114" height="99.95" transform="matrix(1.0, 0.0, 0.0, 1.0, 120.0, 0.0)" width="40.0" xlink:href="#sprite3"/>
      <use ffdec:characterId="3114" height="99.95" transform="matrix(1.0, 0.0, 0.0, 1.0, 160.0, 0.0)" width="40.0" xlink:href="#sprite3"/>
      <use ffdec:characterId="3114" height="99.95" transform="matrix(1.0, 0.0, 0.0, 1.0, 200.0, 0.0)" width="40.0" xlink:href="#sprite3"/>
      <use ffdec:characterId="3114" height="99.95" transform="matrix(1.0, 0.0, 0.0, 1.0, 240.0, 0.0)" width="40.0" xlink:href="#sprite3"/>
      <use ffdec:characterId="3114" height="99.95" transform="matrix(1.0, 0.0, 0.0, 1.0, 280.0, 0.0)" width="40.0" xlink:href="#sprite3"/>
      <use ffdec:characterId="3114" height="99.95" transform="matrix(1.0, 0.0, 0.0, 1.0, 320.0, 0.0)" width="40.0" xlink:href="#sprite3"/>
      <use ffdec:characterId="3114" height="99.95" transform="matrix(1.0, 0.0, 0.0, 1.0, 360.0, 0.0)" width="40.0" xlink:href="#sprite3"/>
      <use ffdec:characterId="3114" height="99.95" transform="matrix(1.0, 0.0, 0.0, 1.0, 400.0, 0.0)" width="40.0" xlink:href="#sprite3"/>
      <use ffdec:characterId="3114" height="99.95" transform="matrix(1.0, 0.0, 0.0, 1.0, 440.0, 0.0)" width="40.0" xlink:href="#sprite3"/>
      <use ffdec:characterId="3114" height="99.95" transform="matrix(1.0, 0.0, 0.0, 1.0, 480.0, 0.0)" width="40.0" xlink:href="#sprite3"/>
      <use ffdec:characterId="3114" height="99.95" transform="matrix(1.0, 0.0, 0.0, 1.0, 520.0, 0.0)" width="40.0" xlink:href="#sprite3"/>
      <use ffdec:characterId="3114" height="99.95" transform="matrix(1.0, 0.0, 0.0, 1.0, 560.0, 0.0)" width="40.0" xlink:href="#sprite3"/>
      <use ffdec:characterId="3115" height="99.95" transform="matrix(1.0, 0.0, 0.0, 1.0, 600.0, 0.0)" width="2.0" xlink:href="#shape2"/>
    </g>
    <g id="sprite3" transform="matrix(1.0, 0.0, 0.0, 1.0, 0.0, 0.0)">
      <use ffdec:characterId="3113" height="99.95" transform="matrix(1.0, 0.0, 0.0, 1.0, 0.0, 0.0)" width="40.0" xlink:href="#shape1"/>
    </g>
    <g id="shape1" transform="matrix(1.0, 0.0, 0.0, 1.0, 0.0, 0.0)">
      <path d="M0.0 89.95 L0.0 0.0 2.0 0.0 2.0 5.0 2.0 59.95 38.5 59.95 40.0 59.95 40.0 61.95 2.0 61.95 2.0 63.95 2.0 89.95 0.0 89.95" fill="#495e73" fill-rule="evenodd" stroke="none"/>
      <path d="M40.0 89.95 L40.0 96.95 0.0 96.95 0.0 89.95 2.0 89.95 38.5 89.95 40.0 89.95" fill="#aaaeba" fill-rule="evenodd" stroke="none"/>
      <path d="M2.0 0.0 L40.0 0.0 40.0 59.95 38.5 59.95 38.5 5.0 2.0 5.0 2.0 0.0 M40.0 61.95 L40.0 89.95 38.5 89.95 38.5 63.95 2.0 63.95 2.0 61.95 40.0 61.95" fill="#000000" fill-opacity="0.29803923" fill-rule="evenodd" stroke="none"/>
      <path d="M40.0 96.95 L40.0 99.95 0.0 99.95 0.0 96.95 40.0 96.95" fill="#2e3e4e" fill-rule="evenodd" stroke="none"/>
    </g>
    <g id="shape2" transform="matrix(1.0, 0.0, 0.0, 1.0, -600.0, 0.0)">
      <path d="M602.0 90.0 L602.0 99.95 600.0 99.95 600.0 90.0 602.0 90.0" fill="#aaaeba" fill-rule="evenodd" stroke="none"/>
      <path d="M600.0 90.0 L600.0 0.0 602.0 0.0 602.0 90.0 600.0 90.0" fill="#495e73" fill-rule="evenodd" stroke="none"/>
    </g>
    <g id="sprite4" transform="matrix(1.0, 0.0, 0.0, 1.0, 0.0, 0.0)">
      <use ffdec:characterId="3123" height="2500.0" transform="matrix(0.5, 0.0, 0.0, 0.5, 0.0, 0.0)" width="830.0" xlink:href="#sprite5"/>
    </g>
    <g id="sprite5" transform="matrix(1.0, 0.0, 0.0, 1.0, 0.0, 0.0)">
      <use ffdec:characterId="3119" height="2500.0" transform="matrix(1.0, 0.0, 0.0, 1.0, 0.0, 0.0)" width="830.0" xlink:href="#shape3"/>
      <use ffdec:characterId="3122" height="100.0" transform="matrix(1.0, 0.0, 0.0, 1.0, 40.0, 40.0)" width="750.0" xlink:href="#sprite6"/>
      <use ffdec:characterId="3122" height="100.0" transform="matrix(1.0, 0.0, 0.0, 1.0, 40.0, 140.0)" width="750.0" xlink:href="#sprite6"/>
      <use ffdec:characterId="3122" height="100.0" transform="matrix(1.0, 0.0, 0.0, 1.0, 40.0, 240.0)" width="750.0" xlink:href="#sprite6"/>
      <use ffdec:characterId="3122" height="100.0" transform="matrix(1.0, 0.0, 0.0, 1.0, 40.0, 340.0)" width="750.0" xlink:href="#sprite6"/>
      <use ffdec:characterId="3122" height="100.0" transform="matrix(1.0, 0.0, 0.0, 1.0, 40.0, 440.0)" width="750.0" xlink:href="#sprite6"/>
      <use ffdec:characterId="3122" height="100.0" transform="matrix(1.0, 0.0, 0.0, 1.0, 40.0, 540.0)" width="750.0" xlink:href="#sprite6"/>
      <use ffdec:characterId="3122" height="100.0" transform="matrix(1.0, 0.0, 0.0, 1.0, 40.0, 640.0)" width="750.0" xlink:href="#sprite6"/>
      <use ffdec:characterId="3122" height="100.0" transform="matrix(1.0, 0.0, 0.0, 1.0, 40.0, 740.0)" width="750.0" xlink:href="#sprite6"/>
      <use ffdec:characterId="3122" height="100.0" transform="matrix(1.0, 0.0, 0.0, 1.0, 40.0, 840.0)" width="750.0" xlink:href="#sprite6"/>
      <use ffdec:characterId="3122" height="100.0" transform="matrix(1.0, 0.0, 0.0, 1.0, 40.0, 940.0)" width="750.0" xlink:href="#sprite6"/>
      <use ffdec:characterId="3122" height="100.0" transform="matrix(1.0, 0.0, 0.0, 1.0, 40.0, 1040.0)" width="750.0" xlink:href="#sprite6"/>
      <use ffdec:characterId="3122" height="100.0" transform="matrix(1.0, 0.0, 0.0, 1.0, 40.0, 1140.0)" width="750.0" xlink:href="#sprite6"/>
      <use ffdec:characterId="3122" height="100.0" transform="matrix(1.0, 0.0, 0.0, 1.0, 40.0, 1240.0)" width="750.0" xlink:href="#sprite6"/>
      <use ffdec:characterId="3122" height="100.0" transform="matrix(1.0, 0.0, 0.0, 1.0, 40.0, 1340.0)" width="750.0" xlink:href="#sprite6"/>
      <use ffdec:characterId="3122" height="100.0" transform="matrix(1.0, 0.0, 0.0, 1.0, 40.0, 1440.0)" width="750.0" xlink:href="#sprite6"/>
      <use ffdec:characterId="3122" height="100.0" transform="matrix(1.0, 0.0, 0.0, 1.0, 40.0, 1540.0)" width="750.0" xlink:href="#sprite6"/>
      <use ffdec:characterId="3122" height="100.0" transform="matrix(1.0, 0.0, 0.0, 1.0, 40.0, 1640.0)" width="750.0" xlink:href="#sprite6"/>
      <use ffdec:characterId="3122" height="100.0" transform="matrix(1.0, 0.0, 0.0, 1.0, 40.0, 1740.0)" width="750.0" xlink:href="#sprite6"/>
      <use ffdec:characterId="3122" height="100.0" transform="matrix(1.0, 0.0, 0.0, 1.0, 40.0, 1840.0)" width="750.0" xlink:href="#sprite6"/>
      <use ffdec:characterId="3122" height="100.0" transform="matrix(1.0, 0.0, 0.0, 1.0, 40.0, 1940.0)" width="750.0" xlink:href="#sprite6"/>
      <use ffdec:characterId="3122" height="100.0" transform="matrix(1.0, 0.0, 0.0, 1.0, 40.0, 2040.0)" width="750.0" xlink:href="#sprite6"/>
      <use ffdec:characterId="3122" height="100.0" transform="matrix(1.0, 0.0, 0.0, 1.0, 40.0, 2140.0)" width="750.0" xlink:href="#sprite6"/>
      <use ffdec:characterId="3122" height="100.0" transform="matrix(1.0, 0.0, 0.0, 1.0, 40.0, 2240.0)" width="750.0" xlink:href="#sprite6"/>
      <use ffdec:characterId="3122" height="100.0" transform="matrix(1.0, 0.0, 0.0, 1.0, 40.0, 2340.0)" width="750.0" xlink:href="#sprite6"/>
    </g>
    <g id="shape3" transform="matrix(1.0, 0.0, 0.0, 1.0, 0.0, 0.0)">
      <path d="M830.0 0.0 L830.0 2500.0 0.0 2500.0 0.0 0.0 830.0 0.0" fill="#e3e8eb" fill-rule="evenodd" stroke="none"/>
    </g>
    <g id="sprite6" transform="matrix(1.0, 0.0, 0.0, 1.0, 0.0, 0.0)">
      <use ffdec:characterId="3121" height="100.0" transform="matrix(1.0, 0.0, 0.0, 1.0, 0.0, 0.0)" width="30.0" xlink:href="#sprite7"/>
      <use ffdec:characterId="3121" height="100.0" transform="matrix(1.0, 0.0, 0.0, 1.0, 60.0, 0.0)" width="30.0" xlink:href="#sprite7"/>
      <use ffdec:characterId="3121" height="100.0" transform="matrix(1.0, 0.0, 0.0, 1.0, 120.0, 0.0)" width="30.0" xlink:href="#sprite7"/>
      <use ffdec:characterId="3121" height="100.0" transform="matrix(1.0, 0.0, 0.0, 1.0, 180.0, 0.0)" width="30.0" xlink:href="#sprite7"/>
      <use ffdec:characterId="3121" height="100.0" transform="matrix(1.0, 0.0, 0.0, 1.0, 240.0, 0.0)" width="30.0" xlink:href="#sprite7"/>
      <use ffdec:characterId="3121" height="100.0" transform="matrix(1.0, 0.0, 0.0, 1.0, 300.0, 0.0)" width="30.0" xlink:href="#sprite7"/>
      <use ffdec:characterId="3121" height="100.0" transform="matrix(1.0, 0.0, 0.0, 1.0, 360.0, 0.0)" width="30.0" xlink:href="#sprite7"/>
      <use ffdec:characterId="3121" height="100.0" transform="matrix(1.0, 0.0, 0.0, 1.0, 420.0, 0.0)" width="30.0" xlink:href="#sprite7"/>
      <use ffdec:characterId="3121" height="100.0" transform="matrix(1.0, 0.0, 0.0, 1.0, 480.0, 0.0)" width="30.0" xlink:href="#sprite7"/>
      <use ffdec:characterId="3121" height="100.0" transform="matrix(1.0, 0.0, 0.0, 1.0, 540.0, 0.0)" width="30.0" xlink:href="#sprite7"/>
      <use ffdec:characterId="3121" height="100.0" transform="matrix(1.0, 0.0, 0.0, 1.0, 600.0, 0.0)" width="30.0" xlink:href="#sprite7"/>
      <use ffdec:characterId="3121" height="100.0" transform="matrix(1.0, 0.0, 0.0, 1.0, 660.0, 0.0)" width="30.0" xlink:href="#sprite7"/>
      <use ffdec:characterId="3121" height="100.0" transform="matrix(1.0, 0.0, 0.0, 1.0, 720.0, 0.0)" width="30.0" xlink:href="#sprite7"/>
    </g>
    <g id="sprite7" transform="matrix(1.0, 0.0, 0.0, 1.0, 0.0, 0.0)">
      <use ffdec:characterId="3120" height="100.0" transform="matrix(1.0, 0.0, 0.0, 1.0, 0.0, 0.0)" width="30.0" xlink:href="#shape4"/>
    </g>
    <g id="shape4" transform="matrix(1.0, 0.0, 0.0, 1.0, 0.0, 0.0)">
      <path d="M30.0 60.0 L30.0 100.0 0.0 100.0 0.0 60.0 30.0 60.0" fill="#525f67" fill-rule="evenodd" stroke="none"/>
      <path d="M0.0 60.0 L0.0 0.0 30.0 0.0 30.0 60.0 0.0 60.0" fill="#292e44" fill-rule="evenodd" stroke="none"/>
      <path d="M30.0 0.0 L30.0 100.0 0.0 100.0 0.0 98.5 28.0 98.5 28.0 66.0 0.0 66.0 0.0 62.0 28.0 62.0 28.0 4.0 0.0 4.0 0.0 0.0 30.0 0.0" fill="#000000" fill-opacity="0.29803923" fill-rule="evenodd" stroke="none"/>
    </g>
    <g id="sprite8" transform="matrix(1.0, 0.0, 0.0, 1.0, 0.0, 0.0)">
      <use ffdec:characterId="3133" height="370.0" transform="matrix(0.5, 0.0, 0.0, 0.5, 0.0, 0.0)" width="712.0" xlink:href="#sprite9"/>
    </g>
    <g id="sprite9" transform="matrix(1.0, 0.0, 0.0, 1.0, 0.0, 0.0)">
      <use ffdec:characterId="3125" height="358.0" transform="matrix(1.0, 0.0, 0.0, 1.0, 6.0, 12.0)" width="700.0" xlink:href="#shape5"/>
      <use ffdec:characterId="3127" height="100.0" transform="matrix(1.0, 0.0, 0.0, 1.0, 6.0, 52.0)" width="72.0" xlink:href="#sprite10"/>
      <use ffdec:characterId="3127" height="100.0" transform="matrix(1.0, 0.0, 0.0, 1.0, 6.0, 152.0)" width="72.0" xlink:href="#sprite10"/>
      <use ffdec:characterId="3127" height="100.0" transform="matrix(1.0, 0.0, 0.0, 1.0, 634.0, 52.0)" width="72.0" xlink:href="#sprite10"/>
      <use ffdec:characterId="3127" height="100.0" transform="matrix(1.0, 0.0, 0.0, 1.0, 634.0, 152.0)" width="72.0" xlink:href="#sprite10"/>
      <use ffdec:characterId="3131" height="76.0" transform="matrix(1.0, 0.0, 0.0, 1.0, 119.0, 92.0)" width="124.0" xlink:href="#sprite11"/>
      <use ffdec:characterId="3131" height="76.0" transform="matrix(1.0, 0.0, 0.0, 1.0, 293.0, 92.0)" width="124.0" xlink:href="#sprite11"/>
      <use ffdec:characterId="3131" height="76.0" transform="matrix(1.0, 0.0, 0.0, 1.0, 467.0, 92.0)" width="124.0" xlink:href="#sprite11"/>
      <use ffdec:characterId="3131" height="76.0" transform="matrix(1.0, 0.0, 0.0, 1.0, 119.0, 192.0)" width="124.0" xlink:href="#sprite11"/>
      <use ffdec:characterId="3131" height="76.0" transform="matrix(1.0, 0.0, 0.0, 1.0, 293.0, 192.0)" width="124.0" xlink:href="#sprite11"/>
      <use ffdec:characterId="3131" height="76.0" transform="matrix(1.0, 0.0, 0.0, 1.0, 467.0, 192.0)" width="124.0" xlink:href="#sprite11"/>
      <use ffdec:characterId="3131" height="76.0" transform="matrix(1.0, 0.0, 0.0, 1.0, 119.0, 292.0)" width="124.0" xlink:href="#sprite11"/>
      <use ffdec:characterId="3131" height="76.0" transform="matrix(1.0, 0.0, 0.0, 1.0, 293.0, 292.0)" width="124.0" xlink:href="#sprite11"/>
      <use ffdec:characterId="3131" height="76.0" transform="matrix(1.0, 0.0, 0.0, 1.0, 467.0, 292.0)" width="124.0" xlink:href="#sprite11"/>
      <use ffdec:characterId="3132" height="32.0" transform="matrix(1.0, 0.0, 0.0, 1.0, 0.0, 0.0)" width="712.0" xlink:href="#shape9"/>
    </g>
    <g id="shape5" transform="matrix(1.0, 0.0, 0.0, 1.0, -6.0, -12.0)">
      <path d="M77.95 370.0 L6.0 370.0 6.0 308.9 6.0 12.0 706.0 12.0 706.0 370.0 633.95 370.0 633.95 52.0 77.95 52.0 77.95 308.9 77.95 370.0" fill="#b8b794" fill-rule="evenodd" stroke="none"/>
      <path d="M633.95 370.0 L631.0 370.0 95.1 370.0 81.0 370.0 77.95 370.0 77.95 308.9 77.95 52.0 633.95 52.0 633.95 370.0" fill="#ccc9b3" fill-rule="evenodd" stroke="none"/>
      <path d="M42.0 92.0 L78.0 92.0 78.0 112.0 58.0 112.0 42.0 112.0 42.0 92.0 M6.0 172.0 L6.0 152.0 24.0 152.0 24.0 172.0 6.0 172.0" fill="#beba9e" fill-rule="evenodd" stroke="none"/>
      <path d="M78.0 112.0 L78.0 132.0 58.0 132.0 58.0 112.0 78.0 112.0 M6.0 112.0 L6.0 92.0 42.0 92.0 42.0 112.0 24.0 112.0 6.0 112.0 M42.0 152.0 L60.0 152.0 60.0 172.0 42.0 172.0 24.0 172.0 24.0 152.0 42.0 152.0" fill="#b5b08e" fill-rule="evenodd" stroke="none"/>
      <path d="M6.0 152.0 L6.0 132.0 24.0 132.0 42.0 132.0 42.0 152.0 24.0 152.0 6.0 152.0" fill="#bbb899" fill-rule="evenodd" stroke="none"/>
      <path d="M78.0 132.0 L78.0 152.0 60.0 152.0 42.0 152.0 42.0 132.0 58.0 132.0 78.0 132.0" fill="#baaf9a" fill-rule="evenodd" stroke="none"/>
      <path d="M78.0 152.0 L78.0 192.0 42.0 192.0 42.0 172.0 60.0 172.0 60.0 152.0 78.0 152.0 M42.0 112.0 L58.0 112.0 58.0 132.0 42.0 132.0 24.0 132.0 24.0 112.0 42.0 112.0" fill="#b8b494" fill-rule="evenodd" stroke="none"/>
      <path d="M42.0 192.0 L6.0 192.0 6.0 172.0 24.0 172.0 42.0 172.0 42.0 192.0 M6.0 132.0 L6.0 112.0 24.0 112.0 24.0 132.0 6.0 132.0" fill="#c0b5a5" fill-rule="evenodd" stroke="none"/>
    </g>
    <g id="sprite10" transform="matrix(1.0, 0.0, 0.0, 1.0, 0.0, 0.0)">
      <use ffdec:characterId="3126" height="100.0" transform="matrix(1.0, 0.0, 0.0, 1.0, 0.0, 0.0)" width="72.0" xlink:href="#shape6"/>
    </g>
    <g id="shape6" transform="matrix(1.0, 0.0, 0.0, 1.0, 0.0, 0.0)">
      <path d="M72.0 20.0 L52.0 20.0 52.0 0.0 72.0 0.0 72.0 20.0 M36.0 40.0 L54.0 40.0 54.0 60.0 36.0 60.0 18.0 60.0 18.0 40.0 36.0 40.0 M0.0 80.0 L36.0 80.0 36.0 100.0 0.0 100.0 0.0 80.0" fill="#b5b08e" fill-rule="evenodd" stroke="none"/>
      <path d="M72.0 40.0 L54.0 40.0 36.0 40.0 36.0 20.0 52.0 20.0 72.0 20.0 72.0 40.0" fill="#baaf9a" fill-rule="evenodd" stroke="none"/>
      <path d="M54.0 40.0 L72.0 40.0 72.0 80.0 36.0 80.0 36.0 60.0 54.0 60.0 54.0 40.0 M52.0 20.0 L36.0 20.0 18.0 20.0 18.0 0.0 52.0 0.0 52.0 20.0" fill="#b8b494" fill-rule="evenodd" stroke="none"/>
      <path d="M36.0 80.0 L72.0 80.0 72.0 100.0 36.0 100.0 36.0 80.0 M0.0 40.0 L18.0 40.0 18.0 60.0 0.0 60.0 0.0 40.0" fill="#beba9e" fill-rule="evenodd" stroke="none"/>
      <path d="M36.0 60.0 L36.0 80.0 0.0 80.0 0.0 60.0 18.0 60.0 36.0 60.0 M18.0 0.0 L18.0 20.0 0.0 20.0 0.0 0.0 18.0 0.0" fill="#c0b5a5" fill-rule="evenodd" stroke="none"/>
      <path d="M36.0 20.0 L36.0 40.0 18.0 40.0 0.0 40.0 0.0 20.0 18.0 20.0 36.0 20.0" fill="#bbb899" fill-rule="evenodd" stroke="none"/>
    </g>
    <g id="sprite11" transform="matrix(1.0, 0.0, 0.0, 1.0, 2.0, 0.0)">
      <use ffdec:characterId="3129" height="67.95" transform="matrix(1.0, 0.0, 0.0, 1.0, 0.0, 0.0)" width="38.0" xlink:href="#sprite12"/>
      <use ffdec:characterId="3129" height="67.95" transform="matrix(1.0, 0.0, 0.0, 1.0, 42.0, 0.0)" width="38.0" xlink:href="#sprite12"/>
      <use ffdec:characterId="3129" height="67.95" transform="matrix(1.0, 0.0, 0.0, 1.0, 84.0, 0.0)" width="38.0" xlink:href="#sprite12"/>
      <use ffdec:characterId="3130" height="8.0" transform="matrix(1.0, 0.0, 0.0, 1.0, -2.0, 68.0)" width="124.0" xlink:href="#shape8"/>
    </g>
    <g id="sprite12" transform="matrix(1.0, 0.0, 0.0, 1.0, 4.0, 8.0)">
      <use ffdec:characterId="3128" height="67.95" transform="matrix(1.0, 0.0, 0.0, 1.0, -4.0, -8.0)" width="38.0" xlink:href="#shape7"/>
    </g>
    <g id="shape7" transform="matrix(1.0, 0.0, 0.0, 1.0, 4.0, 8.0)">
      <path d="M30.0 0.0 L0.0 0.0 -4.0 -8.0 34.0 -8.0 30.0 0.0" fill="#000000" fill-opacity="0.29803923" fill-rule="evenodd" stroke="none"/>
      <path d="M0.0 0.0 L30.0 0.0 30.0 59.95 0.0 59.95 0.0 0.0" fill="#333333" fill-rule="evenodd" stroke="none"/>
      <path d="M30.0 0.0 L34.0 -8.0 34.0 59.95 30.0 59.95 30.0 0.0" fill="#000000" fill-opacity="0.2" fill-rule="evenodd" stroke="none"/>
      <path d="M-4.0 -8.0 L0.0 0.0 0.0 59.95 -4.0 59.95 -4.0 -8.0" fill="#ffffff" fill-opacity="0.2" fill-rule="evenodd" stroke="none"/>
      <path d="M28.0 30.0 L28.0 58.0 2.0 58.0 2.0 30.0 28.0 30.0" fill="url(#gradient1)" fill-rule="evenodd" stroke="none"/>
      <path d="M28.0 2.0 L28.0 29.0 2.0 29.0 2.0 2.0 28.0 2.0" fill="url(#gradient2)" fill-rule="evenodd" stroke="none"/>
      <path d="M2.0 30.0 L28.0 30.0 28.0 32.0 2.0 32.0 2.0 30.0" fill="#000000" fill-opacity="0.29803923" fill-rule="evenodd" stroke="none"/>
    </g>
    <linearGradient gradientTransform="matrix(0.0, -0.0159, 0.0171, 0.0, 15.0, 44.0)" gradientUnits="userSpaceOnUse" id="gradient1" spreadMethod="pad" x1="-819.2" x2="819.2">
      <stop offset="0.0" stop-color="#2e3746"/>
      <stop offset="1.0" stop-color="#3e4a5b"/>
    </linearGradient>
    <linearGradient gradientTransform="matrix(0.0, -0.0159, 0.0165, 0.0, 15.0, 15.5)" gradientUnits="userSpaceOnUse" id="gradient2" spreadMethod="pad" x1="-819.2" x2="819.2">
      <stop offset="0.0" stop-color="#3a4556"/>
      <stop offset="1.0" stop-color="#5c6b81"/>
    </linearGradient>
    <g id="shape8" transform="matrix(1.0, 0.0, 0.0, 1.0, 2.0, -68.0)">
      <path d="M120.0 76.0 L-2.0 76.0 -2.0 72.0 0.0 68.0 0.0 72.0 122.0 72.0 120.0 76.0" fill="#000000" fill-opacity="0.29803923" fill-rule="evenodd" stroke="none"/>
    </g>
    <g id="shape9" transform="matrix(1.0, 0.0, 0.0, 1.0, 0.0, 0.0)">
      <path d="M709.0 18.0 L3.0 18.0 3.0 6.0 709.0 6.0 709.0 18.0" fill="#ccc9b3" fill-rule="evenodd" stroke="none"/>
      <path d="M709.0 12.0 L709.0 18.0 706.0 18.0 706.0 32.0 6.0 32.0 6.0 18.0 3.0 18.0 3.0 12.0 709.0 12.0" fill="#000000" fill-opacity="0.2" fill-rule="evenodd" stroke="none"/>
      <path d="M3.0 12.0 L0.0 12.0 0.0 0.0 712.0 0.0 712.0 12.0 709.0 12.0 3.0 12.0" fill="#ccc9b3" fill-rule="evenodd" stroke="none"/>
    </g>
    <g id="sprite13" transform="matrix(1.0, 0.0, 0.0, 1.0, 0.0, 0.0)">
      <use ffdec:characterId="3140" height="253.3" transform="matrix(0.5, 0.0, 0.0, 0.5, 0.0, -0.025)" width="1040.0" xlink:href="#sprite14"/>
    </g>
    <g id="sprite14" transform="matrix(1.0, 0.0, 0.0, 1.0, 0.0, 4.05)">
      <use ffdec:characterId="3135" height="241.95" transform="matrix(1.0, 0.0, 0.0, 1.0, 0.0, 0.0)" width="1040.0" xlink:href="#shape10"/>
      <use ffdec:characterId="3137" height="249.25" transform="matrix(1.0, 0.0, 0.0, 1.0, 790.0, 0.0)" width="210.0" xlink:href="#sprite15"/>
      <use ffdec:characterId="3139" height="241.95" transform="matrix(1.0, 0.0, 0.0, 1.0, 753.0, 0.0)" width="37.0" xlink:href="#sprite16"/>
      <use ffdec:characterId="3137" height="249.25" transform="matrix(1.0, 0.0, 0.0, 1.0, 40.0, 0.0)" width="210.0" xlink:href="#sprite15"/>
      <use ffdec:characterId="3139" height="241.95" transform="matrix(1.0, 0.0, 0.0, 1.0, 3.0, 0.0)" width="37.0" xlink:href="#sprite16"/>
      <use ffdec:characterId="3137" height="249.25" transform="matrix(1.0, 0.0, 0.0, 1.0, 290.0, 0.0)" width="210.0" xlink:href="#sprite15"/>
      <use ffdec:characterId="3139" height="241.95" transform="matrix(1.0, 0.0, 0.0, 1.0, 253.0, 0.0)" width="37.0" xlink:href="#sprite16"/>
      <use ffdec:characterId="3137" height="249.25" transform="matrix(1.0, 0.0, 0.0, 1.0, 540.0, 0.0)" width="210.0" xlink:href="#sprite15"/>
      <use ffdec:characterId="3139" height="241.95" transform="matrix(1.0, 0.0, 0.0, 1.0, 503.0, 0.0)" width="37.0" xlink:href="#sprite16"/>
      <use ffdec:characterId="3137" height="249.25" transform="matrix(1.0, 0.0, 0.0, 1.0, 40.0, -4.05)" width="210.0" xlink:href="#sprite15"/>
    </g>
    <g id="shape10" transform="matrix(1.0, 0.0, 0.0, 1.0, 0.0, 0.0)">
      <path d="M1040.0 241.95 L0.0 241.95 0.0 0.0 1040.0 0.0 1040.0 241.95" fill="#1e2c40" fill-rule="evenodd" stroke="none"/>
    </g>
    <g id="sprite15" transform="matrix(1.0, 0.0, 0.0, 1.0, 0.0, 40.0)">
      <use ffdec:characterId="3136" height="249.25" transform="matrix(1.0, 0.0, 0.0, 1.0, 0.0, -40.0)" width="210.0" xlink:href="#shape11"/>
    </g>
    <g id="shape11" transform="matrix(1.0, 0.0, 0.0, 1.0, 0.0, 40.0)">
      <path d="M181.0 4.05 L210.0 4.05 210.0 64.0 181.0 64.0 181.0 4.05 M179.0 4.05 L179.0 64.0 151.0 64.0 151.0 4.05 179.0 4.05 M119.0 4.05 L119.0 64.0 91.0 64.0 91.0 4.05 119.0 4.05 M121.0 64.0 L121.0 4.05 149.0 4.05 149.0 64.0 121.0 64.0 M89.0 4.05 L89.0 64.0 61.0 64.0 61.0 4.05 89.0 4.05 M29.0 4.05 L29.0 64.0 0.0 64.0 0.0 4.05 29.0 4.05 M31.0 64.0 L31.0 4.05 59.0 4.05 59.0 64.0 31.0 64.0" fill="url(#gradient3)" fill-rule="evenodd" stroke="none"/>
      <path d="M206.0 0.0 L206.0 -40.0 210.0 -40.0 210.0 0.0 208.0 0.0 206.0 0.0 M208.0 1.0 L210.0 1.0 210.0 209.25 206.0 209.25 206.0 72.0 0.0 72.0 0.0 68.0 208.0 68.0 208.0 64.0 206.0 64.0 206.0 10.0 181.0 10.0 181.0 6.0 179.0 6.0 179.0 64.0 177.0 64.0 177.0 10.0 151.0 10.0 151.0 6.0 149.0 6.0 149.0 64.0 147.0 64.0 147.0 10.0 121.0 10.0 121.0 6.0 119.0 6.0 119.0 64.0 117.0 64.0 117.0 10.0 91.0 10.0 91.0 6.0 89.0 6.0 89.0 64.0 87.0 64.0 87.0 10.0 61.0 10.0 61.0 6.0 59.0 6.0 59.0 64.0 57.0 64.0 57.0 10.0 31.0 10.0 31.0 6.0 29.0 6.0 29.0 64.0 27.0 64.0 27.0 10.0 0.0 10.0 0.0 4.05 208.0 4.05 208.0 1.0" fill="#000000" fill-opacity="0.2" fill-rule="evenodd" stroke="none"/>
      <path d="M208.0 0.0 L208.0 1.0 0.0 1.0 0.0 0.0 206.0 0.0 208.0 0.0" fill="#ffffff" fill-opacity="0.08627451" fill-rule="evenodd" stroke="none"/>
    </g>
    <linearGradient gradientTransform="matrix(0.0, -0.0342, 0.0366, 0.0, 14.95, 34.05)" gradientUnits="userSpaceOnUse" id="gradient3" spreadMethod="pad" x1="-819.2" x2="819.2">
      <stop offset="0.0" stop-color="#445068"/>
      <stop offset="1.0" stop-color="#6a7e98"/>
    </linearGradient>
    <g id="sprite16" transform="matrix(1.0, 0.0, 0.0, 1.0, -3.0, 0.0)">
      <use ffdec:characterId="3138" height="241.95" transform="matrix(1.0, 0.0, 0.0, 1.0, 3.0, 0.0)" width="37.0" xlink:href="#shape12"/>
    </g>
    <g id="shape12" transform="matrix(1.0, 0.0, 0.0, 1.0, -3.0, 0.0)">
      <path d="M40.0 0.0 L40.0 241.95 39.0 241.95 39.0 0.0 40.0 0.0 M4.0 0.0 L4.0 241.95 3.0 241.95 3.0 0.0 4.0 0.0" fill="#ffffff" fill-opacity="0.08627451" fill-rule="evenodd" stroke="none"/>
      <path d="M36.0 0.0 L36.0 241.95 34.0 241.95 34.0 0.0 36.0 0.0" fill="#000000" fill-opacity="0.2" fill-rule="evenodd" stroke="none"/>
    </g>
  </defs>
</svg>
