<?xml version="1.0" encoding="UTF-8" standalone="no"?>
<svg xmlns:ffdec="https://www.free-decompiler.com/flash" xmlns:xlink="http://www.w3.org/1999/xlink" ffdec:objectType="frame" height="16.35px" width="19.3px" xmlns="http://www.w3.org/2000/svg">
  <g transform="matrix(1.0, 0.0, 0.0, 1.0, 8.9, 8.4)">
    <use ffdec:characterId="1587" height="16.35" transform="matrix(1.0, 0.0, 0.0, 1.0, -8.9, -8.4)" width="19.3" xlink:href="#shape0"/>
  </g>
  <defs>
    <g id="shape0" transform="matrix(1.0, 0.0, 0.0, 1.0, 8.9, 8.4)">
      <path d="M10.4 -2.05 L10.25 -1.45 6.25 -1.75 4.9 -1.15 4.9 0.0 3.65 -0.1 2.0 -2.3 Q4.35 -3.65 6.8 -3.05 L10.4 -2.05 M6.15 0.65 Q6.4 0.65 6.6 0.95 L6.8 1.7 4.35 2.1 4.05 1.2 3.9 0.7 6.15 1.2 6.15 0.65 M-5.05 3.35 L-8.1 0.95 -7.25 0.7 -7.05 -0.4 -7.7 -2.55 -6.3 -5.45 -5.85 -2.65 -4.9 -5.6 -4.15 -4.75 -4.35 -2.8 -5.45 -2.75 -5.7 -0.9 -5.9 -0.5 -6.3 -0.3 -5.05 3.35 M-2.3 -7.35 Q-0.1 -6.55 1.45 -4.95 L2.2 -4.4 -0.05 -3.5 -2.6 -5.45 -2.3 -5.9 -0.8 -5.85 -2.3 -7.35 M-3.1 -7.15 L-3.0 -7.0 Q-3.5 -6.8 -3.1 -7.15 M-0.6 3.1 Q-0.75 4.2 -1.6 4.2 -2.8 4.2 -3.05 3.1 L-3.05 1.9 Q-3.85 2.0 -4.25 1.1 -4.9 0.8 -5.15 -0.2 L-5.2 -0.45 -4.6 -0.35 -3.85 -0.65 -3.6 0.05 Q-3.3 0.9 -2.5 0.85 L-1.95 1.35 Q-2.75 1.85 -2.75 2.55 -2.75 3.45 -1.75 3.45 -0.95 3.45 -0.6 3.1" fill="#990000" fill-rule="evenodd" stroke="none"/>
      <path d="M2.0 -2.3 L3.65 -0.1 3.9 0.65 3.85 0.7 3.35 1.3 2.25 2.9 2.2 2.95 2.2 3.05 2.3 2.9 4.05 1.2 4.35 2.1 6.8 1.7 7.05 1.65 Q7.5 2.05 7.4 2.5 L7.35 2.75 5.65 3.0 Q5.35 3.0 5.15 3.15 4.85 3.4 4.85 3.9 L4.8 3.95 Q4.8 4.4 5.15 4.45 L5.9 4.55 6.65 4.4 6.85 4.35 6.75 4.7 6.7 5.95 Q6.7 6.6 5.75 7.6 4.75 8.5 0.2 7.2 L-1.25 6.85 -3.05 6.1 Q-4.3 5.5 -5.05 3.35 L-6.3 -0.3 -5.9 -0.5 -5.7 -0.9 -5.2 -0.45 -5.15 -0.2 Q-4.9 0.8 -4.25 1.1 -3.85 2.0 -3.05 1.9 L-3.05 3.1 Q-2.8 4.2 -1.6 4.2 -0.75 4.2 -0.6 3.1 -0.25 2.8 -0.25 2.0 -0.25 0.55 -1.5 1.1 L-1.95 1.35 -2.5 0.85 -2.4 0.7 Q-2.35 -1.25 -2.9 -2.0 -3.5 -2.8 -4.35 -2.8 L-4.15 -4.75 -3.35 -4.55 -2.6 -5.45 -0.05 -3.5 2.0 -2.3" fill="#ffcc99" fill-rule="evenodd" stroke="none"/>
      <path d="M10.4 -2.05 L6.8 -3.05 Q4.35 -3.65 2.0 -2.3 L-0.05 -3.5 2.2 -4.4 Q7.15 -5.65 10.2 -2.35 L10.4 -2.05 M-8.1 0.95 L-8.7 0.85 Q-9.4 -1.25 -7.7 -2.55 L-7.05 -0.4 -7.25 0.7 -8.1 0.95 M-6.3 -5.45 L-7.05 -7.5 -6.45 -8.3 -4.1 -8.15 -2.3 -7.35 -0.8 -5.85 -2.3 -5.9 -2.6 -5.45 -3.35 -4.55 -4.15 -4.75 -4.9 -5.6 -5.85 -2.65 -6.3 -5.45 M-3.1 -7.15 Q-3.5 -6.8 -3.0 -7.0 L-3.1 -7.15 M-5.2 -0.45 L-5.7 -0.9 -5.45 -2.75 -4.35 -2.8 Q-3.5 -2.8 -2.9 -2.0 -2.35 -1.25 -2.4 0.7 L-2.5 0.85 Q-3.3 0.9 -3.6 0.05 L-3.85 -0.65 -4.6 -0.35 -5.2 -0.45 M-1.95 1.35 L-1.5 1.1 Q-0.25 0.55 -0.25 2.0 -0.25 2.8 -0.6 3.1 -0.95 3.45 -1.75 3.45 -2.75 3.45 -2.75 2.55 -2.75 1.85 -1.95 1.35" fill="#ff0000" fill-rule="evenodd" stroke="none"/>
      <path d="M3.65 -0.1 L4.9 0.0 6.15 0.2 6.15 0.65 6.15 1.2 3.9 0.7 3.9 0.65 3.65 -0.1" fill="#ffffff" fill-rule="evenodd" stroke="none"/>
      <path d="M7.35 2.75 L6.95 3.65 6.85 4.35 6.65 4.4 5.9 4.55 5.15 4.45 Q4.8 4.4 4.8 3.95 L4.85 3.9 Q4.85 3.4 5.15 3.15 5.35 3.0 5.65 3.0 L7.35 2.75 M3.9 0.7 L4.05 1.2 2.3 2.9 2.2 3.05 2.2 2.95 2.25 2.9 3.35 1.3 3.85 0.7 3.9 0.65 3.9 0.7" fill="#ebbb98" fill-rule="evenodd" stroke="none"/>
    </g>
  </defs>
</svg>
