<?xml version="1.0" encoding="UTF-8" standalone="no"?>
<svg xmlns:ffdec="https://www.free-decompiler.com/flash" xmlns:xlink="http://www.w3.org/1999/xlink" ffdec:objectType="frame" height="721.05px" width="803.55px" xmlns="http://www.w3.org/2000/svg">
  <g transform="matrix(1.0, 0.0, 0.0, 1.0, 1196.55, 78.6)">
    <use ffdec:characterId="3103" height="721.05" transform="matrix(1.0, 0.0, 0.0, 1.0, -1196.55, -78.6)" width="803.55" xlink:href="#shape0"/>
  </g>
  <defs>
    <g id="shape0" transform="matrix(1.0, 0.0, 0.0, 1.0, 1196.55, 78.6)">
      <path d="M-393.0 201.6 L-393.0 642.45 -1196.55 642.45 Q-1157.65 605.55 -1108.6 549.5 L-750.5 201.6 -721.45 201.6 -721.0 203.0 Q-719.1 202.3 -715.4 201.6 L-393.0 201.6" fill="url(#gradient0)" fill-rule="evenodd" stroke="none"/>
      <path d="M-411.0 -38.4 Q-402.5 -46.5 -402.5 -47.75 -402.5 -49.3 -403.0 -49.45 L-403.5 -49.25 Q-411.6 -47.2 -419.6 -38.4 -424.2 -33.35 -430.75 -23.25 -433.8 -18.5 -447.05 -5.35 L-450.5 -1.85 Q-462.6 8.1 -471.1 16.7 -464.7 9.7 -453.2 -1.45 -440.5 -13.7 -440.5 -14.1 -440.5 -15.55 -440.75 -15.7 L-441.0 -16.0 Q-456.9 -8.45 -478.85 16.85 -484.0 22.75 -488.05 28.2 L-491.5 30.25 -490.4 30.45 -492.05 32.2 -490.8 31.9 -489.85 30.4 -489.5 30.2 -490.75 31.9 -488.0 31.3 -479.7 28.25 -474.9 26.55 Q-470.0 24.9 -465.6 22.5 L-463.2 21.1 -449.6 15.2 -438.05 10.0 -438.0 10.0 Q-433.75 10.0 -430.45 6.5 L-424.25 3.6 -416.55 2.5 -398.25 -0.1 -395.55 -0.3 -394.85 -0.35 -395.5 0.25 -393.0 -0.2 -393.0 2.45 -402.75 5.75 Q-408.85 7.95 -425.2 12.15 -438.5 16.4 -438.5 21.5 L-438.7 22.4 -446.25 26.25 -445.1 27.45 -445.85 28.0 -461.45 31.9 Q-477.3 36.0 -481.25 37.25 L-487.8 39.55 -500.15 42.2 -501.15 43.5 -503.05 46.25 Q-513.3 51.3 -514.5 53.75 L-514.0 54.25 Q-513.45 53.7 -510.15 52.25 L-505.75 50.25 -505.75 50.35 Q-509.35 51.65 -513.2 57.4 -517.6 64.0 -518.35 64.0 -519.6 64.0 -520.7 64.75 -521.85 65.5 -523.1 65.5 L-524.05 65.3 Q-524.1 64.8 -524.25 64.85 L-524.35 65.0 -524.55 64.5 Q-524.75 63.5 -526.0 63.5 -526.55 63.5 -529.35 66.65 -530.8 67.55 -532.25 69.05 L-534.25 69.15 Q-534.3 68.05 -534.5 68.1 L-534.75 68.5 -538.05 69.2 Q-538.2 68.45 -538.55 68.45 L-541.0 68.75 Q-542.05 68.75 -548.15 71.5 -552.2 73.35 -553.85 74.75 L-554.35 74.45 -555.0 74.25 Q-556.75 75.4 -558.6 78.45 L-559.8 80.75 -561.0 81.6 Q-569.0 87.6 -587.75 104.75 -587.5 105.45 -586.25 105.7 L-590.15 109.8 -594.9 113.05 -600.05 117.0 Q-600.2 116.35 -600.55 116.25 L-602.0 116.0 -613.8 124.7 -614.5 124.0 Q-632.85 136.55 -667.65 161.4 L-683.35 172.65 -683.35 172.5 Q-689.0 174.75 -701.45 182.85 -710.85 188.95 -720.85 196.4 L-727.8 201.6 -729.25 202.7 Q-766.55 231.4 -785.1 255.25 L-785.3 255.55 -795.8 263.3 Q-820.05 282.2 -826.85 286.35 L-826.6 287.5 -813.0 281.3 -800.8 275.8 -803.55 279.0 Q-817.15 294.5 -831.6 301.0 -851.55 310.0 -864.3 323.9 L-874.1 334.9 Q-880.05 341.1 -886.6 345.5 -912.95 363.15 -934.75 388.9 -946.9 403.25 -969.0 435.75 -973.1 441.8 -984.7 455.65 -999.15 472.8 -1004.6 479.9 -1011.15 488.3 -1015.9 495.75 -1020.9 498.75 -1024.65 502.55 -1031.0 508.95 -1031.0 515.0 L-1030.9 516.4 -1031.25 516.6 Q-1033.3 517.95 -1034.45 521.75 L-1036.25 527.85 Q-1037.8 531.8 -1047.65 538.75 -1059.45 547.1 -1069.25 547.1 -1076.75 547.1 -1079.25 541.1 -1080.05 539.2 -1080.2 536.9 L-1080.25 534.75 -1080.2 532.35 -1081.75 534.0 Q-1089.05 535.75 -1098.65 541.65 L-1096.5 537.1 Q-1093.1 532.0 -1086.1 524.9 -1078.3 517.0 -1075.5 513.35 -1065.85 500.75 -1046.55 485.15 L-1032.7 474.2 Q-1025.7 468.6 -1022.75 465.5 -1013.25 455.35 -998.85 441.7 L-973.9 418.2 Q-943.45 389.25 -928.0 368.5 -921.7 360.0 -903.1 344.0 L-876.1 321.25 Q-871.55 317.25 -853.3 297.75 -839.7 283.2 -826.35 274.25 -824.5 273.05 -807.55 255.6 -786.35 233.75 -773.8 221.75 L-766.0 214.45 Q-763.15 208.1 -752.9 203.0 -742.6 194.55 -736.4 191.6 -724.9 182.3 -692.45 162.65 L-654.8 140.1 Q-635.75 128.6 -631.3 125.05 -623.25 118.6 -607.3 104.55 -591.65 90.75 -583.3 84.2 -562.2 67.5 -542.1 59.3 -536.45 53.1 -525.5 42.4 L-508.65 26.35 Q-505.6 22.05 -503.5 19.85 -499.35 15.55 -495.15 13.95 L-492.05 11.15 Q-472.85 -9.0 -447.7 -31.5 -431.5 -46.0 -405.8 -67.8 L-393.0 -78.6 -393.0 -61.9 -408.5 -49.75 -407.0 -49.5 Q-399.2 -53.75 -393.0 -58.65 L-393.0 -53.75 -395.5 -50.75 -393.0 -52.45 -393.0 -51.7 Q-397.15 -46.45 -402.85 -40.45 -408.45 -34.5 -413.25 -30.0 L-416.9 -27.35 Q-411.0 -35.95 -411.0 -38.25 L-411.0 -38.4 M-393.0 22.7 L-393.0 26.55 -394.0 26.5 Q-394.0 30.6 -395.75 32.0 -397.1 31.15 -398.65 30.8 L-400.25 30.75 -400.1 32.85 Q-400.0 34.0 -401.5 34.0 L-404.1 33.95 Q-404.95 33.95 -405.25 34.25 L-405.25 37.05 -406.05 37.4 -407.25 36.45 Q-408.5 35.5 -410.0 35.5 -411.55 35.5 -411.6 35.9 L-411.5 36.25 Q-411.5 37.55 -410.65 39.4 L-412.65 40.25 -412.75 40.25 Q-414.9 38.1 -420.5 39.75 L-420.45 43.65 -424.55 45.35 Q-426.9 44.5 -430.0 44.5 -431.5 44.5 -431.6 44.9 L-431.75 45.25 -432.0 47.1 -431.85 48.4 -437.75 50.75 Q-437.85 49.95 -438.1 49.75 L-438.5 49.5 -441.0 49.5 -442.55 51.05 -446.25 51.5 -446.5 54.2 -459.5 59.0 -459.5 58.85 Q-459.5 57.3 -459.6 57.35 L-459.75 57.75 -462.0 57.5 Q-463.2 58.55 -469.6 59.75 L-482.65 62.0 Q-499.3 65.05 -500.4 68.85 L-503.0 69.2 -506.4 70.25 -506.85 70.25 Q-508.1 70.25 -510.4 69.15 -512.75 68.0 -514.0 68.0 L-515.2 68.05 -514.2 67.5 -514.15 67.5 -512.35 67.1 Q-479.75 62.4 -448.15 46.6 L-443.2 44.05 -422.6 36.0 Q-407.9 30.3 -399.55 25.85 -396.8 24.75 -393.0 22.7 M-507.0 60.5 L-514.2 65.75 -513.75 65.3 -513.1 64.8 -507.05 60.45 -507.0 60.5 M-416.15 31.1 L-405.15 26.2 -405.1 26.2 -403.75 25.75 -394.75 21.7 -399.95 25.35 -416.15 31.1 M-500.35 53.1 L-502.3 54.35 -502.65 54.15 Q-503.3 53.75 -503.8 53.6 L-500.45 50.85 -500.5 51.75 -500.35 53.1 M-512.25 75.5 L-513.4 76.0 -513.55 75.2 -512.25 75.5 M-538.0 89.25 L-540.6 91.05 -539.4 89.2 -538.25 88.25 -538.0 89.25 M-553.85 100.65 L-559.0 104.55 -559.0 104.0 -559.05 102.95 Q-556.7 101.8 -554.15 100.0 L-553.85 100.65 M-600.75 131.2 L-603.2 132.6 Q-599.85 129.7 -596.8 126.45 L-596.25 127.0 -598.8 128.75 Q-600.65 129.95 -600.75 131.2 M-613.55 134.75 L-621.05 141.05 -620.3 140.1 -617.8 137.15 -614.6 134.1 -613.7 134.65 -613.55 134.75 M-662.55 167.35 L-664.15 168.3 -664.05 168.15 -662.7 167.1 -662.55 167.35 M-679.15 176.3 L-679.2 176.1 -679.1 176.0 -679.15 176.3 M-566.95 105.05 L-569.9 107.15 Q-576.35 112.0 -577.0 112.0 -579.5 112.0 -579.25 111.5 -579.25 109.65 -577.6 107.75 L-576.1 105.6 Q-572.05 101.35 -564.7 95.4 L-550.85 84.1 -550.75 84.5 -555.95 93.5 Q-560.5 101.1 -560.5 101.75 L-560.5 102.1 -562.25 102.6 -561.5 101.5 Q-563.45 102.1 -566.95 105.05 M-537.4 74.25 L-537.35 74.2 -538.25 75.0 -537.75 74.5 -537.4 74.25 M-528.2 83.0 L-528.0 82.75 -525.15 79.7 Q-525.95 81.25 -528.2 83.0 M-496.9 52.4 L-497.0 52.45 -496.9 52.35 -496.9 52.4 M-504.25 62.55 L-505.5 63.05 -503.6 61.65 -503.05 61.25 -502.3 60.75 -502.25 61.15 -504.25 62.55 M-495.4 68.75 L-495.0 68.55 Q-494.15 68.1 -492.1 67.9 L-494.8 68.8 -495.4 68.75 M-586.6 107.5 L-578.3 101.0 -576.1 99.3 -568.1 94.3 -565.3 92.6 Q-573.2 99.15 -577.0 103.45 L-578.5 103.0 Q-579.15 103.0 -583.9 105.8 L-586.6 107.5 M-624.05 144.45 L-622.45 142.6 -621.2 142.8 -624.05 144.45 M-1028.0 498.6 Q-1025.45 498.55 -1023.55 496.0 -1022.25 494.25 -1022.0 492.9 L-1028.0 498.1 -1028.0 498.6" fill="#7f9d01" fill-rule="evenodd" stroke="none"/>
      <path d="M-411.0 -38.4 L-411.0 -38.25 Q-411.0 -35.95 -416.9 -27.35 L-413.25 -30.0 -414.25 -29.1 Q-414.25 -27.55 -413.8 -27.6 L-412.0 -27.75 Q-401.8 -32.45 -393.7 -42.55 L-393.0 -43.45 -393.0 -36.5 Q-398.0 -32.95 -407.15 -27.15 -421.35 -18.1 -426.0 -13.75 L-437.05 -3.55 -433.15 -3.7 -432.0 -3.7 -424.2 -3.1 -423.45 -3.0 -426.5 -2.0 Q-426.1 -1.6 -424.95 -1.05 L-424.3 -0.75 -424.85 -0.35 -424.05 -0.55 -424.0 -0.5 Q-410.65 -0.2 -408.95 -0.9 -407.5 -2.4 -404.45 -4.15 -403.7 -3.95 -403.5 -3.0 -403.25 -1.75 -402.0 -1.75 L-395.25 -4.05 -393.0 -4.75 -393.0 -0.85 -398.25 -0.1 -416.55 2.5 -424.25 3.6 -428.7 4.3 -429.4 5.25 -430.45 6.5 Q-433.75 10.0 -438.0 10.0 L-438.05 10.0 Q-442.15 10.0 -444.25 7.0 L-449.5 8.15 -450.05 8.3 -450.2 8.45 Q-456.15 10.8 -467.05 16.5 L-474.4 20.45 -474.25 20.25 -471.1 16.7 Q-462.6 8.1 -450.5 -1.85 L-459.5 7.1 Q-459.5 8.65 -458.9 8.65 L-457.0 8.5 Q-449.75 3.25 -445.05 -0.6 L-443.6 -1.8 -440.2 -4.95 Q-435.55 -9.5 -429.25 -18.5 -423.7 -26.35 -412.05 -37.4 L-411.0 -38.4 M-465.6 22.5 Q-470.0 24.9 -474.9 26.55 L-479.7 28.25 -478.7 26.7 Q-475.45 26.15 -464.85 21.8 L-465.6 22.5 M-396.05 13.7 L-395.75 13.5 -395.0 13.25 Q-398.25 12.75 -398.75 12.0 -397.6 10.25 -395.55 8.95 -397.45 9.95 -398.75 10.95 -401.25 11.85 -401.25 12.0 L-401.25 12.25 -402.75 12.25 -406.75 11.9 -406.8 11.9 Q-396.0 8.2 -393.0 6.75 L-393.0 14.5 -393.25 14.6 Q-397.05 15.75 -398.75 16.5 L-401.25 16.25 Q-398.65 15.3 -396.05 13.7 M-393.0 18.6 L-393.0 22.7 Q-396.8 24.75 -399.55 25.85 -407.9 30.3 -422.6 36.0 L-443.2 44.05 -446.25 45.25 Q-439.4 39.75 -425.55 34.4 L-416.15 31.1 -399.95 25.35 -394.75 21.7 -403.75 25.75 -405.1 26.2 -405.15 26.2 Q-406.3 26.25 -406.45 25.2 L-393.0 18.6 M-393.0 39.4 L-393.0 41.9 -394.0 42.75 Q-400.8 48.2 -425.8 56.9 -449.2 65.0 -454.5 65.0 -465.75 65.0 -499.1 79.55 -525.0 90.8 -534.6 96.5 -536.65 97.7 -566.85 118.6 -593.75 137.25 -596.1 137.25 -597.35 137.25 -599.45 136.15 -601.6 135.0 -602.85 135.0 -613.45 135.0 -629.1 150.5 -637.1 158.45 -645.1 168.25 -655.6 177.6 -675.1 189.15 L-682.55 193.7 -685.3 193.95 -687.1 195.05 Q-687.7 195.6 -689.1 196.0 -692.85 197.15 -702.1 197.5 -703.2 198.4 -708.55 201.6 L-714.55 205.15 Q-724.6 211.75 -724.6 215.75 L-724.5 217.1 -724.85 217.4 Q-735.45 222.65 -743.1 230.8 -748.85 236.95 -758.35 249.9 L-761.1 253.0 -764.15 256.45 Q-770.65 263.3 -779.9 271.75 L-800.85 290.75 Q-806.45 296.05 -825.5 309.0 -843.7 321.4 -848.35 326.25 -852.15 330.25 -871.85 347.2 -883.1 356.95 -886.9 360.75 -892.7 364.85 -895.1 367.25 -899.1 371.25 -911.65 382.45 -922.5 393.05 -924.0 399.75 -926.0 408.95 -929.25 415.9 -935.85 430.0 -945.25 430.0 L-946.2 429.95 Q-947.95 433.25 -951.4 438.0 -956.7 445.2 -960.75 449.25 L-960.2 447.3 -963.25 451.5 -963.5 450.05 -963.75 448.5 Q-963.75 442.9 -957.05 434.0 -953.3 429.0 -950.2 426.2 L-950.25 425.75 Q-950.25 416.55 -929.55 391.75 -910.6 369.0 -900.35 362.25 -888.2 354.2 -865.7 335.45 -843.7 317.15 -828.1 307.0 -810.7 295.6 -793.35 277.15 -789.1 272.6 -764.9 244.15 -748.15 224.45 -735.5 213.95 L-726.65 207.15 Q-726.05 204.05 -723.6 201.6 L-721.95 200.15 Q-721.0 199.4 -719.85 198.8 L-716.6 197.2 -705.5 193.55 Q-700.2 191.55 -696.85 189.75 L-697.4 190.8 -694.85 188.9 Q-681.3 177.6 -679.2 176.1 L-679.15 176.3 Q-679.35 177.0 -679.0 177.55 -678.5 178.5 -676.85 178.5 -674.2 178.5 -669.45 174.6 -665.75 171.55 -664.15 168.3 L-662.55 167.35 Q-662.05 168.0 -660.85 168.0 L-658.6 166.5 Q-656.6 165.0 -656.1 165.0 -655.0 165.0 -648.3 158.95 L-647.7 159.2 -646.85 158.75 Q-638.35 156.35 -618.6 137.9 L-617.8 137.15 -620.3 140.1 -621.05 141.05 -613.55 134.75 -613.0 135.0 -611.1 133.8 -609.75 133.0 Q-610.5 133.75 -610.5 135.25 L-603.9 128.95 -598.5 123.25 Q-598.25 124.8 -596.8 126.45 -599.85 129.7 -603.2 132.6 L-600.75 131.2 -600.75 131.35 Q-600.75 133.85 -600.5 132.5 -586.05 125.2 -576.7 119.85 -559.8 110.1 -559.0 104.55 L-553.85 100.65 -553.7 100.8 -552.0 101.25 -544.65 94.25 -539.4 89.2 -540.6 91.05 -538.0 89.25 -537.95 89.55 Q-537.6 90.25 -536.0 90.25 -535.45 90.25 -532.25 87.1 -528.55 85.35 -520.6 82.25 -513.25 79.4 -513.25 76.75 L-513.4 76.0 -512.25 75.5 -512.0 75.5 Q-509.5 75.5 -465.95 64.6 -422.6 53.75 -418.0 52.0 -411.45 49.45 -393.0 39.4 M-396.55 13.7 L-398.9 14.8 -400.1 15.15 -401.55 16.0 Q-417.25 23.1 -439.85 31.35 L-470.95 42.75 -475.8 44.4 -485.2 47.55 -488.85 48.75 -489.7 49.2 -490.0 49.2 -490.05 49.15 -492.65 51.45 Q-502.35 56.3 -502.35 59.6 L-502.35 59.9 -504.3 61.5 Q-506.0 61.5 -507.0 60.5 L-507.05 60.45 -513.1 64.8 -513.75 65.3 Q-524.75 72.9 -534.25 77.55 L-534.5 77.3 Q-526.05 70.7 -515.1 63.0 L-508.2 58.25 -508.3 57.55 Q-508.3 56.25 -507.55 55.15 -506.55 53.55 -504.45 53.5 L-504.0 53.75 -503.8 53.6 Q-503.3 53.75 -502.65 54.15 L-502.3 54.35 -500.35 53.1 -495.8 50.25 -495.75 50.25 Q-492.6 47.45 -489.55 43.4 -487.9 42.75 -486.6 42.75 L-484.8 42.75 -485.2 43.2 -483.85 42.7 -482.4 42.25 Q-475.6 40.25 -470.5 40.25 -464.7 40.25 -455.25 36.25 L-437.05 27.5 Q-429.45 23.65 -423.0 21.0 -424.75 20.7 -425.25 19.25 -419.75 16.35 -407.75 12.2 L-402.95 12.95 -396.55 13.7 M-422.95 21.0 L-417.25 18.75 Q-419.6 18.75 -422.95 21.0 M-445.65 4.3 L-448.5 6.85 -445.0 5.75 -445.65 4.3 M-482.5 65.75 L-476.75 63.75 -473.7 63.7 -486.2 67.15 -482.5 65.75 M-578.8 131.2 Q-588.85 138.4 -595.7 140.55 L-578.8 131.2 M-602.1 140.1 L-602.2 140.0 -602.45 139.7 -602.1 139.5 -602.1 140.1 M-566.95 105.05 Q-563.45 102.1 -561.5 101.5 L-562.25 102.6 Q-564.3 103.3 -566.95 105.05 M-496.9 52.4 L-496.9 52.35 -497.0 52.45 -496.9 52.4 M-506.4 70.25 L-503.0 69.2 -500.4 68.85 -500.5 69.35 -500.5 69.85 -506.4 70.25 M-492.1 67.9 L-488.7 67.75 -496.25 69.25 -495.4 68.75 -494.8 68.8 -492.1 67.9 M-624.05 144.45 L-621.2 142.8 -622.45 142.6 -624.05 144.45 M-664.05 168.15 Q-663.4 166.7 -663.1 165.25 L-662.8 166.9 -662.7 167.1 -664.05 168.15" fill="#729108" fill-rule="evenodd" stroke="none"/>
      <path d="M-432.0 -3.7 L-431.7 -3.95 -431.35 -4.25 -426.5 -7.75 Q-410.5 -16.6 -393.0 -31.4 L-393.0 -24.9 Q-399.3 -22.2 -400.65 -19.15 -406.95 -18.1 -412.2 -14.95 -415.3 -13.1 -418.65 -10.0 L-423.5 -5.5 -422.45 -4.6 -421.75 -4.25 -412.7 -8.2 Q-406.0 -11.1 -404.75 -11.25 L-405.0 -10.0 -409.9 -6.75 -409.5 -6.75 -409.15 -6.75 -402.5 -8.25 -402.2 -7.35 -402.15 -7.2 -394.95 -8.45 -393.0 -8.9 -393.0 -6.15 -401.75 -5.6 -404.45 -4.15 Q-407.5 -2.4 -408.95 -0.9 -410.65 -0.2 -424.0 -0.5 L-424.05 -0.55 -424.85 -0.35 -424.3 -0.75 -424.95 -1.05 Q-426.1 -1.6 -426.5 -2.0 L-423.45 -3.0 -424.2 -3.1 -432.0 -3.7 M-393.0 14.5 L-393.0 15.55 -397.75 17.5 -393.25 14.6 -393.0 14.5 M-393.0 48.5 L-393.0 49.05 -394.0 49.6 Q-395.15 49.6 -399.65 53.0 L-402.75 55.3 -404.75 56.3 -405.7 55.75 Q-406.35 55.15 -406.9 55.1 -399.05 52.5 -393.0 48.5 M-755.0 259.35 L-759.45 265.1 Q-766.9 273.8 -776.35 280.75 L-780.6 283.75 Q-779.75 279.45 -771.45 272.9 -765.6 268.3 -762.8 265.7 L-760.6 263.25 -759.65 261.45 -757.05 256.7 -756.85 256.05 -756.1 254.25 Q-751.35 243.05 -739.45 232.2 -729.1 222.8 -711.55 212.15 L-707.85 209.9 -695.4 202.95 -692.95 201.6 -690.6 200.35 -678.8 193.95 -670.4 189.45 Q-652.4 179.8 -641.05 172.75 L-640.9 172.6 -617.4 151.5 Q-606.3 141.65 -602.45 139.7 L-602.2 140.0 -602.1 140.1 -602.05 142.2 Q-601.75 143.0 -600.35 143.0 L-595.7 140.55 Q-588.85 138.4 -578.8 131.2 L-540.9 110.0 Q-481.95 77.0 -476.35 77.0 L-446.25 67.3 Q-415.9 57.45 -413.75 57.0 L-408.3 55.55 -408.4 57.55 -408.5 58.05 -409.8 58.65 -409.95 58.3 Q-410.25 57.75 -411.05 57.75 L-412.0 57.95 -412.3 58.1 Q-412.45 59.3 -412.85 59.9 L-414.5 60.55 -414.6 60.55 Q-417.4 60.2 -418.55 61.35 L-419.0 62.25 -424.6 64.4 -425.55 64.0 Q-427.05 63.6 -427.05 65.05 L-427.25 65.4 -433.25 67.6 -435.45 68.0 Q-437.6 68.65 -440.55 69.85 -443.35 69.85 -444.15 71.3 L-448.1 72.55 -448.6 72.05 Q-449.25 71.35 -449.55 71.35 -449.9 71.35 -450.55 72.0 L-451.65 73.35 -452.3 72.85 Q-452.8 72.35 -453.55 72.35 L-460.55 76.6 -463.35 77.5 -463.95 77.05 Q-464.65 76.35 -465.3 76.35 -466.3 76.35 -466.8 77.0 -467.15 77.5 -467.15 78.1 L-467.9 78.95 -476.35 81.65 Q-497.1 88.85 -505.8 93.55 L-508.3 94.65 Q-517.45 97.95 -537.1 109.5 -547.8 115.75 -597.05 146.9 -597.95 145.05 -601.8 144.95 -606.25 144.8 -609.25 146.9 -613.1 147.5 -619.35 153.75 L-632.2 168.9 -637.9 172.5 Q-646.05 179.9 -659.4 187.8 L-664.5 190.75 -678.0 197.8 -685.7 201.6 -703.85 210.25 Q-719.95 217.8 -732.95 231.55 L-743.55 243.7 -742.85 243.5 -755.0 259.35 M-476.1 44.65 L-483.5 47.35 -486.35 48.55 -485.2 47.55 -475.8 44.4 -476.1 44.65 M-490.0 49.2 L-491.2 50.75 -492.65 51.45 -490.05 49.15 -490.0 49.2 M-426.2 30.45 L-424.65 29.95 Q-430.05 33.0 -433.55 35.85 L-454.6 44.2 Q-458.85 48.5 -469.15 51.9 L-477.85 54.6 -485.1 56.7 -492.35 58.75 -492.7 58.2 -494.4 58.75 Q-494.5 59.2 -494.55 58.8 -496.75 59.5 -499.35 60.55 L-494.6 57.25 Q-494.25 52.35 -460.2 41.05 -436.0 33.65 -426.2 30.45 M-452.5 41.25 L-452.75 40.75 Q-454.2 40.7 -459.45 43.35 -466.25 46.8 -470.5 48.25 -464.15 47.05 -459.4 44.7 -454.9 42.2 -452.5 41.25 M-502.25 61.15 L-502.15 61.6 -502.1 61.65 -504.25 62.55 -502.25 61.15 M-614.2 152.9 L-615.5 154.75 Q-617.35 156.85 -624.3 163.25 L-626.75 165.5 -628.6 166.65 -628.3 166.3 -622.55 159.6 Q-618.7 155.5 -614.2 152.9" fill="#628804" fill-rule="evenodd" stroke="none"/>
      <path d="M-393.0 -8.9 L-394.95 -8.45 -393.55 -10.25 -393.15 -10.75 -393.0 -10.75 -393.0 -8.9 M-393.0 55.75 L-393.0 201.6 -667.2 201.6 -650.25 189.7 Q-619.6 167.5 -619.0 167.5 -615.15 167.5 -591.65 151.35 -564.35 132.55 -562.85 131.75 -546.95 123.1 -524.05 109.65 L-506.85 99.35 Q-501.35 97.95 -490.75 93.5 -474.4 86.55 -474.05 86.5 -461.45 83.95 -450.4 80.0 L-431.05 72.5 -409.35 64.35 Q-399.85 60.4 -393.0 55.75 M-398.9 14.8 L-401.55 16.0 -400.1 15.15 -398.9 14.8 M-505.8 93.55 L-506.8 94.15 -508.3 94.65 -505.8 93.55 M-426.2 30.45 L-425.75 30.25 -423.8 29.45 -424.65 29.95 -426.2 30.45" fill="#538001" fill-rule="evenodd" stroke="none"/>
      <path d="M-394.95 -8.45 L-402.15 -7.2 -402.2 -7.35 -402.5 -8.25 -409.15 -6.75 -409.5 -6.75 -409.9 -6.75 -405.0 -10.0 -404.75 -11.25 Q-406.0 -11.1 -412.7 -8.2 L-421.75 -4.25 -422.45 -4.6 -423.5 -5.5 -418.65 -10.0 Q-415.3 -13.1 -412.2 -14.95 -406.95 -18.1 -400.65 -19.15 -399.3 -22.2 -393.0 -24.9 L-393.0 -10.75 -393.15 -10.75 -393.55 -10.25 -394.95 -8.45 M-393.0 49.05 L-393.0 55.75 Q-399.85 60.4 -409.35 64.35 L-431.05 72.5 -450.4 80.0 Q-461.45 83.95 -474.05 86.5 -474.4 86.55 -490.75 93.5 -501.35 97.95 -506.85 99.35 L-524.05 109.65 Q-546.95 123.1 -562.85 131.75 -564.35 132.55 -591.65 151.35 -615.15 167.5 -619.0 167.5 -619.6 167.5 -650.25 189.7 L-667.2 201.6 -675.9 201.6 Q-697.85 210.45 -719.65 228.25 -726.7 234.0 -738.9 245.1 -749.5 254.85 -755.0 259.35 L-742.85 243.5 -743.55 243.7 -732.95 231.55 Q-719.95 217.8 -703.85 210.25 L-685.7 201.6 -678.0 197.8 -673.65 197.35 Q-667.5 193.95 -659.4 187.8 -646.05 179.9 -637.9 172.5 L-632.2 168.9 -619.35 153.75 Q-613.1 147.5 -609.25 146.9 -606.25 144.8 -601.8 144.95 -597.95 145.05 -597.05 146.9 -547.8 115.75 -537.1 109.5 -517.45 97.95 -508.3 94.65 L-506.8 94.15 -505.8 93.55 Q-497.1 88.85 -476.35 81.65 L-467.9 78.95 -467.15 78.1 Q-467.15 77.5 -466.8 77.0 -466.3 76.35 -465.3 76.35 -464.65 76.35 -463.95 77.05 L-463.35 77.5 -460.55 76.6 -453.55 72.35 Q-452.8 72.35 -452.3 72.85 L-451.65 73.35 -450.55 72.0 Q-449.9 71.35 -449.55 71.35 -449.25 71.35 -448.6 72.05 L-448.1 72.55 -444.15 71.3 Q-443.35 69.85 -440.55 69.85 -437.6 68.65 -435.45 68.0 L-433.25 67.6 -427.25 65.4 -427.05 65.05 Q-427.05 63.6 -425.55 64.0 L-424.6 64.4 -419.0 62.25 -418.55 61.35 Q-417.4 60.2 -414.6 60.55 L-414.5 60.55 -412.85 59.9 Q-412.45 59.3 -412.3 58.1 L-412.0 57.95 -411.05 57.75 Q-410.25 57.75 -409.95 58.3 L-409.8 58.65 -408.5 58.05 -408.4 57.55 -408.3 55.55 -406.9 55.1 Q-406.35 55.15 -405.7 55.75 L-404.75 56.3 -402.75 55.3 -399.65 53.0 Q-395.15 49.6 -394.0 49.6 L-393.0 49.05 M-470.95 42.75 L-476.1 44.65 -475.8 44.4 -470.95 42.75 M-477.85 54.6 Q-482.75 56.45 -485.1 56.7 L-477.85 54.6 M-452.5 41.25 Q-454.9 42.2 -459.4 44.7 -464.15 47.05 -470.5 48.25 -466.25 46.8 -459.45 43.35 -454.2 40.7 -452.75 40.75 L-452.5 41.25 M-695.4 202.95 L-707.85 209.9 -711.55 212.15 -702.55 206.5 Q-698.95 204.5 -695.4 202.95 M-756.1 254.25 L-756.85 256.05 -756.85 256.0 Q-756.85 255.4 -756.1 254.25 M-614.2 152.9 Q-618.7 155.5 -622.55 159.6 L-628.3 166.3 -628.6 166.65 -626.75 165.5 -624.3 163.25 Q-617.35 156.85 -615.5 154.75 L-614.2 152.9" fill="#5a8302" fill-rule="evenodd" stroke="none"/>
      <path d="M-450.5 -1.85 L-447.05 -5.35 Q-433.8 -18.5 -430.75 -23.25 -424.2 -33.35 -419.6 -38.4 -411.6 -47.2 -403.5 -49.25 L-403.0 -49.45 Q-402.5 -49.3 -402.5 -47.75 -402.5 -46.5 -411.0 -38.4 L-412.05 -37.4 Q-423.7 -26.35 -429.25 -18.5 -435.55 -9.5 -440.2 -4.95 L-443.6 -1.8 -445.05 -0.6 Q-449.75 3.25 -457.0 8.5 L-458.9 8.65 Q-459.5 8.65 -459.5 7.1 L-450.5 -1.85 M-413.25 -30.0 Q-408.45 -34.5 -402.85 -40.45 -397.15 -46.45 -393.0 -51.7 L-393.0 -43.45 -393.7 -42.55 Q-401.8 -32.45 -412.0 -27.75 L-413.8 -27.6 Q-414.25 -27.55 -414.25 -29.1 L-413.25 -30.0 M-393.0 -52.45 L-395.5 -50.75 -393.0 -53.75 -393.0 -52.45 M-393.0 -58.65 Q-399.2 -53.75 -407.0 -49.5 L-408.5 -49.75 -393.0 -61.9 -393.0 -58.65 M-1015.9 495.75 Q-1011.15 488.3 -1004.6 479.9 -999.15 472.8 -984.7 455.65 -973.1 441.8 -969.0 435.75 -946.9 403.25 -934.75 388.9 -912.95 363.15 -886.6 345.5 -880.05 341.1 -874.1 334.9 L-864.3 323.9 Q-851.55 310.0 -831.6 301.0 -817.15 294.5 -803.55 279.0 L-800.8 275.8 -813.0 281.3 -826.6 287.5 -826.85 286.35 Q-820.05 282.2 -795.8 263.3 L-785.3 255.55 -785.1 255.25 Q-766.55 231.4 -729.25 202.7 L-727.8 201.6 -720.85 196.4 Q-710.85 188.95 -701.45 182.85 -689.0 174.75 -683.35 172.5 L-683.35 172.65 -667.65 161.4 Q-632.85 136.55 -614.5 124.0 L-613.8 124.7 -602.0 116.0 -600.55 116.25 Q-600.2 116.35 -600.05 117.0 L-594.9 113.05 -590.15 109.8 -586.25 105.7 Q-587.5 105.45 -587.75 104.75 -569.0 87.6 -561.0 81.6 L-559.8 80.75 -558.6 78.45 Q-556.75 75.4 -555.0 74.25 L-554.35 74.45 -553.85 74.75 Q-552.2 73.35 -548.15 71.5 -542.05 68.75 -541.0 68.75 L-538.55 68.45 Q-538.2 68.45 -538.05 69.2 L-534.75 68.5 -534.5 68.1 Q-534.3 68.05 -534.25 69.15 L-532.25 69.05 Q-530.8 67.55 -529.35 66.65 -526.55 63.5 -526.0 63.5 -524.75 63.5 -524.55 64.5 L-524.35 65.0 -524.25 64.85 Q-524.1 64.8 -524.05 65.3 L-523.1 65.5 Q-521.85 65.5 -520.7 64.75 -519.6 64.0 -518.35 64.0 -517.6 64.0 -513.2 57.4 -509.35 51.65 -505.75 50.35 L-505.75 50.25 -510.15 52.25 Q-513.45 53.7 -514.0 54.25 L-514.5 53.75 Q-513.3 51.3 -503.05 46.25 L-501.15 43.5 -500.15 42.2 -487.8 39.55 -481.25 37.25 Q-477.3 36.0 -461.45 31.9 L-445.85 28.0 -445.1 27.45 -446.25 26.25 -438.7 22.4 -438.5 21.5 Q-438.5 16.4 -425.2 12.15 -408.85 7.95 -402.75 5.75 L-393.0 2.45 -393.0 6.75 Q-396.0 8.2 -406.8 11.9 L-406.75 11.9 -402.75 12.25 -401.25 12.25 -401.25 12.0 Q-401.25 11.85 -398.75 10.95 -397.45 9.95 -395.55 8.95 -397.6 10.25 -398.75 12.0 -398.25 12.75 -395.0 13.25 L-395.75 13.5 -396.05 13.7 -396.55 13.7 -402.95 12.95 -407.75 12.2 Q-419.75 16.35 -425.25 19.25 -424.75 20.7 -423.0 21.0 -429.45 23.65 -437.05 27.5 L-455.25 36.25 Q-464.7 40.25 -470.5 40.25 -475.6 40.25 -482.4 42.25 L-483.85 42.7 -484.8 42.75 -486.6 42.75 Q-487.9 42.75 -489.55 43.4 -492.6 47.45 -495.75 50.25 L-495.8 50.25 -500.35 53.1 -500.5 51.75 -500.45 50.85 -503.8 53.6 -504.0 53.75 -504.45 53.5 Q-506.55 53.55 -507.55 55.15 -508.3 56.25 -508.3 57.55 L-508.2 58.25 -515.1 63.0 Q-526.05 70.7 -534.5 77.3 L-534.25 77.55 Q-524.75 72.9 -513.75 65.3 L-514.2 65.75 -522.55 72.05 -521.3 71.55 -515.2 68.05 -514.0 68.0 Q-512.75 68.0 -510.4 69.15 -508.1 70.25 -506.85 70.25 L-506.4 70.25 -500.5 69.85 -500.5 69.35 -500.4 68.85 Q-499.3 65.05 -482.65 62.0 L-469.6 59.75 Q-463.2 58.55 -462.0 57.5 L-459.75 57.75 -459.6 57.35 Q-459.5 57.3 -459.5 58.85 L-459.5 59.0 -446.5 54.2 -446.25 51.5 -442.55 51.05 -441.0 49.5 -438.5 49.5 -438.1 49.75 Q-437.85 49.95 -437.75 50.75 L-431.85 48.4 -432.0 47.1 -431.75 45.25 -431.6 44.9 Q-431.5 44.5 -430.0 44.5 -426.9 44.5 -424.55 45.35 L-420.45 43.65 -420.5 39.75 Q-414.9 38.1 -412.75 40.25 L-412.65 40.25 -410.65 39.4 Q-411.5 37.55 -411.5 36.25 L-411.6 35.9 Q-411.55 35.5 -410.0 35.5 -408.5 35.5 -407.25 36.45 L-406.05 37.4 -405.25 37.05 -405.25 34.25 Q-404.95 33.95 -404.1 33.95 L-401.5 34.0 Q-400.0 34.0 -400.1 32.85 L-400.25 30.75 -398.65 30.8 Q-397.1 31.15 -395.75 32.0 -394.0 30.6 -394.0 26.5 L-393.0 26.55 -393.0 39.4 Q-411.45 49.45 -418.0 52.0 -422.6 53.75 -465.95 64.6 -509.5 75.5 -512.0 75.5 L-512.25 75.5 -513.55 75.2 -513.4 76.0 -513.25 76.75 Q-513.25 79.4 -520.6 82.25 -528.55 85.35 -532.25 87.1 -535.45 90.25 -536.0 90.25 -537.6 90.25 -537.95 89.55 L-538.0 89.25 -538.25 88.25 -539.4 89.2 -544.65 94.25 -552.0 101.25 -553.7 100.8 -553.85 100.65 -554.15 100.0 Q-556.7 101.8 -559.05 102.95 L-559.0 104.0 -559.0 104.55 Q-559.8 110.1 -576.7 119.85 -586.05 125.2 -600.5 132.5 -600.75 133.85 -600.75 131.35 L-600.75 131.2 Q-600.65 129.95 -598.8 128.75 L-596.25 127.0 -596.8 126.45 Q-598.25 124.8 -598.5 123.25 L-603.9 128.95 -610.5 135.25 Q-610.5 133.75 -609.75 133.0 L-611.1 133.8 -613.0 135.0 -613.55 134.75 -613.7 134.65 -614.6 134.1 -617.8 137.15 -618.6 137.9 Q-638.35 156.35 -646.85 158.75 L-647.7 159.2 -648.3 158.95 Q-655.0 165.0 -656.1 165.0 -656.6 165.0 -658.6 166.5 L-660.85 168.0 Q-662.05 168.0 -662.55 167.35 L-662.7 167.1 -662.8 166.9 -663.1 165.25 Q-663.4 166.7 -664.05 168.15 L-664.15 168.3 Q-665.75 171.55 -669.45 174.6 -674.2 178.5 -676.85 178.5 -678.5 178.5 -679.0 177.55 -679.35 177.0 -679.15 176.3 L-679.1 176.0 -679.2 176.1 Q-681.3 177.6 -694.85 188.9 L-697.4 190.8 -696.85 189.75 Q-700.2 191.55 -705.5 193.55 L-716.6 197.2 -719.85 198.8 Q-721.0 199.4 -721.95 200.15 L-723.6 201.6 Q-726.05 204.05 -726.65 207.15 L-735.5 213.95 Q-748.15 224.45 -764.9 244.15 -789.1 272.6 -793.35 277.15 -810.7 295.6 -828.1 307.0 -843.7 317.15 -865.7 335.45 -888.2 354.2 -900.35 362.25 -910.6 369.0 -929.55 391.75 -950.25 416.55 -950.25 425.75 L-950.2 426.2 Q-953.3 429.0 -957.05 434.0 -963.75 442.9 -963.75 448.5 L-963.5 450.05 Q-968.7 457.1 -977.05 470.2 -985.35 483.25 -991.3 491.0 -992.75 489.0 -996.85 489.05 -1002.65 489.1 -1010.75 492.95 L-1015.9 495.75 M-393.0 -0.2 L-395.5 0.25 -394.85 -0.35 -395.55 -0.3 -398.25 -0.1 -393.0 -0.85 -393.0 -0.2 M-424.25 3.6 L-430.45 6.5 -429.4 5.25 -428.7 4.3 -424.25 3.6 M-438.05 10.0 L-449.6 15.2 -463.2 21.1 -464.85 21.8 Q-475.45 26.15 -478.7 26.7 L-479.7 28.25 -488.0 31.3 -490.75 31.9 -489.5 30.2 -489.85 30.4 -490.8 31.9 -492.05 32.2 -490.4 30.45 -491.5 30.25 -488.05 28.2 Q-484.0 22.75 -478.85 16.85 -456.9 -8.45 -441.0 -16.0 L-440.75 -15.7 Q-440.5 -15.55 -440.5 -14.1 -440.5 -13.7 -453.2 -1.45 -464.7 9.7 -471.1 16.7 L-474.25 20.25 -474.4 20.45 -467.05 16.5 Q-456.15 10.8 -450.2 8.45 L-449.5 8.15 -444.25 7.0 Q-442.15 10.0 -438.05 10.0 M-422.95 21.0 Q-419.6 18.75 -417.25 18.75 L-422.95 21.0 M-482.5 65.75 L-486.2 67.15 -473.7 63.7 -476.75 63.75 -482.5 65.75 M-537.4 74.25 L-537.75 74.5 -538.25 75.0 -537.35 74.2 -537.4 74.25 M-562.25 102.6 L-560.5 102.1 -560.5 101.75 Q-560.5 101.1 -555.95 93.5 L-550.75 84.5 -550.85 84.1 -564.7 95.4 Q-572.05 101.35 -576.1 105.6 L-577.6 107.75 Q-579.25 109.65 -579.25 111.5 -579.5 112.0 -577.0 112.0 -576.35 112.0 -569.9 107.15 L-566.95 105.05 Q-564.3 103.3 -562.25 102.6 M-528.2 83.0 Q-525.95 81.25 -525.15 79.7 L-528.0 82.75 -528.2 83.0 M-495.4 68.75 L-496.25 69.25 -488.7 67.75 -492.1 67.9 Q-494.15 68.1 -495.0 68.55 L-495.4 68.75 M-586.6 107.5 L-583.9 105.8 Q-579.15 103.0 -578.5 103.0 L-577.0 103.45 Q-573.2 99.15 -565.3 92.6 L-568.1 94.3 -576.1 99.3 -578.3 101.0 -586.6 107.5" fill="#789604" fill-rule="evenodd" stroke="none"/>
      <path d="M-463.2 21.1 L-465.6 22.5 -464.85 21.8 -463.2 21.1 M-432.0 -3.7 L-433.15 -3.7 -437.05 -3.55 -426.0 -13.75 Q-421.35 -18.1 -407.15 -27.15 -398.0 -32.95 -393.0 -36.5 L-393.0 -31.4 Q-410.5 -16.6 -426.5 -7.75 L-431.35 -4.25 -431.7 -3.95 -432.0 -3.7 M-404.45 -4.15 L-401.75 -5.6 -393.0 -6.15 -393.0 -4.75 -395.25 -4.05 -402.0 -1.75 Q-403.25 -1.75 -403.5 -3.0 -403.7 -3.95 -404.45 -4.15 M-393.0 15.55 L-393.0 18.6 -406.45 25.2 Q-406.3 26.25 -405.15 26.2 L-416.15 31.1 -425.55 34.4 Q-439.4 39.75 -446.25 45.25 L-443.2 44.05 -448.15 46.6 Q-479.75 62.4 -512.35 67.1 L-514.15 67.5 -514.2 67.5 -515.2 68.05 -521.3 71.55 -522.55 72.05 -514.2 65.75 -507.0 60.5 Q-506.0 61.5 -504.3 61.5 L-502.35 59.9 -502.35 59.6 Q-502.35 56.3 -492.65 51.45 L-491.2 50.75 -490.0 49.2 -489.7 49.2 -488.85 48.75 -485.2 47.55 -486.35 48.55 -483.5 47.35 -476.1 44.65 -470.95 42.75 -439.85 31.35 Q-417.25 23.1 -401.55 16.0 L-398.9 14.8 -396.55 13.7 -396.05 13.7 Q-398.65 15.3 -401.25 16.25 L-398.75 16.5 Q-397.05 15.75 -393.25 14.6 L-397.75 17.5 -393.0 15.55 M-393.0 41.9 L-393.0 48.5 Q-399.05 52.5 -406.9 55.1 L-408.3 55.55 -413.75 57.0 Q-415.9 57.45 -446.25 67.3 L-476.35 77.0 Q-481.95 77.0 -540.9 110.0 L-578.8 131.2 -595.7 140.55 -600.35 143.0 Q-601.75 143.0 -602.05 142.2 L-602.1 140.1 -602.1 139.5 -602.45 139.7 Q-606.3 141.65 -617.4 151.5 L-640.9 172.6 -641.05 172.75 Q-652.4 179.8 -670.4 189.45 L-678.8 193.95 -690.6 200.35 -692.95 201.6 -695.4 202.95 Q-698.95 204.5 -702.55 206.5 L-711.55 212.15 Q-729.1 222.8 -739.45 232.2 -751.35 243.05 -756.1 254.25 -756.85 255.4 -756.85 256.0 L-756.85 256.05 -757.05 256.7 -759.65 261.45 -762.8 265.7 Q-765.6 268.3 -771.45 272.9 -779.75 279.45 -780.6 283.75 L-776.35 280.75 Q-786.5 290.75 -797.1 297.75 L-797.25 297.7 Q-804.85 304.35 -817.7 312.4 -836.05 323.85 -842.35 329.0 -845.5 331.6 -852.1 339.05 -858.35 346.15 -863.35 350.0 -867.5 353.25 -875.35 358.0 L-887.1 364.75 -888.45 364.7 Q-888.85 364.6 -888.85 363.1 -888.85 362.7 -886.9 360.75 -883.1 356.95 -871.85 347.2 -852.15 330.25 -848.35 326.25 -843.7 321.4 -825.5 309.0 -806.45 296.05 -800.85 290.75 L-779.9 271.75 Q-770.65 263.3 -764.15 256.45 L-761.1 253.0 -758.35 249.9 Q-748.85 236.95 -743.1 230.8 -735.45 222.65 -724.85 217.4 L-724.5 217.2 -724.5 217.1 -724.6 215.75 Q-724.6 211.75 -714.55 205.15 L-708.55 201.6 Q-703.2 198.4 -702.1 197.5 -692.85 197.15 -689.1 196.0 -687.7 195.6 -687.1 195.05 L-685.3 193.95 -682.55 193.7 -675.1 189.15 Q-655.6 177.6 -645.1 168.25 -637.1 158.45 -629.1 150.5 -613.45 135.0 -602.85 135.0 -601.6 135.0 -599.45 136.15 -597.35 137.25 -596.1 137.25 -593.75 137.25 -566.85 118.6 -536.65 97.7 -534.6 96.5 -525.0 90.8 -499.1 79.55 -465.75 65.0 -454.5 65.0 -449.2 65.0 -425.8 56.9 -400.8 48.2 -394.0 42.75 L-393.0 41.9 M-483.85 42.7 L-485.2 43.2 -484.8 42.75 -483.85 42.7 M-659.4 187.8 Q-667.5 193.95 -673.65 197.35 L-678.0 197.8 -664.5 190.75 -659.4 187.8 M-449.5 8.15 L-450.2 8.45 -450.05 8.3 -449.5 8.15 M-424.65 29.95 L-423.8 29.45 -425.75 30.25 -426.2 30.45 Q-436.0 33.65 -460.2 41.05 -494.25 52.35 -494.6 57.25 L-499.35 60.55 Q-496.75 59.5 -494.55 58.8 -494.5 59.2 -494.4 58.75 L-492.7 58.2 -492.35 58.75 -485.1 56.7 Q-482.75 56.45 -477.85 54.6 L-469.15 51.9 Q-458.85 48.5 -454.6 44.2 L-433.55 35.85 Q-430.05 33.0 -424.65 29.95 M-445.65 4.3 L-445.0 5.75 -448.5 6.85 -445.65 4.3 M-502.25 61.15 L-502.3 60.75 -503.05 61.25 -503.6 61.65 -505.5 63.05 -504.25 62.55 -502.1 61.65 -502.15 61.6 -502.25 61.15" fill="#698c05" fill-rule="evenodd" stroke="none"/>
    </g>
    <linearGradient gradientTransform="matrix(0.0, 0.2123, -0.205, 0.0, -1285.95, 375.5)" gradientUnits="userSpaceOnUse" id="gradient0" spreadMethod="pad" x1="-819.2" x2="819.2">
      <stop offset="0.0" stop-color="#538001"/>
      <stop offset="1.0" stop-color="#7f9d01"/>
    </linearGradient>
  </defs>
</svg>
