<?xml version="1.0" encoding="UTF-8" standalone="no"?>
<svg xmlns:ffdec="https://www.free-decompiler.com/flash" xmlns:xlink="http://www.w3.org/1999/xlink" ffdec:objectType="frame" height="45.75px" width="16.8px" xmlns="http://www.w3.org/2000/svg">
  <g transform="matrix(1.0, 0.0, 0.0, 1.0, 8.5, 23.75)">
    <use ffdec:characterId="1364" height="43.8" transform="matrix(1.0, 0.0, 0.0, 1.0, -8.5, -22.0)" width="16.8" xlink:href="#shape0"/>
    <use ffdec:characterId="1081" height="100.0" id="shape" transform="matrix(0.15, 0.0, 0.0, 0.44, -7.4989, -21.9994)" width="100.0" xlink:href="#sprite0"/>
  </g>
  <defs>
    <g id="shape0" transform="matrix(1.0, 0.0, 0.0, 1.0, 8.5, 22.0)">
      <path d="M6.7 1.6 Q6.35 -2.45 6.3 -5.35 L6.25 -6.75 6.5 -10.85 6.75 -14.85 Q6.75 -17.7 4.5 -19.5 2.3 -21.25 -1.0 -21.25 -3.05 -21.25 -5.25 -20.0 L-5.65 -19.75 Q-3.9 -22.15 -0.3 -22.0 4.4 -21.85 6.25 -19.35 8.1 -16.85 8.1 -14.4 L7.95 -11.15 7.7 -5.45 7.65 -4.55 Q7.65 -3.3 7.8 -2.2 L8.0 -1.25 Q8.3 0.2 7.8 1.6 L8.3 1.65 7.05 1.6 6.7 1.6" fill="#a07acd" fill-rule="evenodd" stroke="none"/>
      <path d="M5.1 1.5 L4.05 -1.8 Q3.55 -3.55 3.65 -4.35 3.65 -5.2 4.1 -6.35 4.55 -7.6 4.85 -10.0 L5.15 -14.55 Q5.15 -16.75 3.05 -18.5 0.9 -20.25 -1.5 -20.25 -4.2 -20.25 -5.75 -16.5 -7.0 -13.45 -7.0 -9.6 -7.0 -7.8 -6.6 -5.6 L-6.25 -2.25 -6.25 -1.5 Q-6.25 -0.15 -6.7 1.05 -8.55 1.05 -8.5 0.4 L-8.45 -1.65 -8.4 -2.25 -8.25 -7.2 -8.2 -9.15 -7.5 -14.75 -7.4 -15.2 -7.15 -16.2 -6.5 -18.1 -5.65 -19.75 -5.25 -20.0 Q-3.05 -21.25 -1.0 -21.25 2.3 -21.25 4.5 -19.5 6.75 -17.7 6.75 -14.85 L6.5 -10.85 6.25 -6.75 6.3 -5.35 Q6.35 -2.45 6.7 1.6 L6.25 1.55 5.1 1.5" fill="#8667aa" fill-rule="evenodd" stroke="none"/>
      <path d="M-6.7 1.05 Q-6.25 -0.15 -6.25 -1.5 L-6.25 -2.25 -6.6 -5.6 Q-7.0 -7.8 -7.0 -9.6 -7.0 -13.45 -5.75 -16.5 -4.2 -20.25 -1.5 -20.25 0.9 -20.25 3.05 -18.5 5.15 -16.75 5.15 -14.55 L4.85 -10.0 Q4.55 -7.6 4.1 -6.35 3.65 -5.2 3.65 -4.35 3.55 -3.55 4.05 -1.8 L5.1 1.5 3.45 1.35 1.3 1.2 -6.0 1.0 -6.15 1.0 -6.35 1.0 -6.7 1.05" fill="#775d95" fill-rule="evenodd" stroke="none"/>
      <path d="M-6.15 1.0 L-6.0 1.0 1.3 1.2 3.45 1.35 5.1 1.5 6.25 1.55 6.2 3.75 4.15 3.75 2.55 3.65 -1.1 3.45 -1.1 4.0 -1.25 11.0 -1.9 6.7 -2.25 4.0 -2.3 3.4 -2.8 3.35 -5.2 3.65 -5.8 3.75 -6.2 3.55 -6.15 1.0" fill="#e2b181" fill-rule="evenodd" stroke="none"/>
      <path d="M6.2 3.75 L6.2 3.9 6.15 4.45 5.5 11.5 Q5.2 14.25 5.15 18.0 4.6 21.6 -0.75 21.8 -6.1 22.0 -6.35 13.8 L-6.2 3.55 -5.8 3.75 -5.2 3.65 -2.8 3.35 -2.3 3.4 -2.25 4.0 -1.9 6.7 -1.25 11.0 -1.1 4.0 -1.1 3.45 2.55 3.65 4.15 3.75 6.2 3.75" fill="#ffcc99" fill-rule="evenodd" stroke="none"/>
    </g>
    <g id="sprite0" transform="matrix(1.0, 0.0, 0.0, 1.0, 50.0, 50.0)">
      <use ffdec:characterId="1080" height="100.0" transform="matrix(1.0, 0.0, 0.0, 1.0, -50.0, -50.0)" width="100.0" xlink:href="#shape1"/>
    </g>
    <g id="shape1" transform="matrix(1.0, 0.0, 0.0, 1.0, 50.0, 50.0)">
      <path d="M50.0 50.0 L-50.0 50.0 -50.0 -50.0 50.0 -50.0 50.0 50.0 Z" fill="none" stroke="#9900ff" stroke-linecap="round" stroke-linejoin="round" stroke-width="0.05"/>
    </g>
  </defs>
</svg>
