<?xml version="1.0" encoding="UTF-8" standalone="no"?>
<svg xmlns:ffdec="https://www.free-decompiler.com/flash" xmlns:xlink="http://www.w3.org/1999/xlink" ffdec:objectType="frame" height="45.75px" width="16.8px" xmlns="http://www.w3.org/2000/svg">
  <g transform="matrix(1.0, 0.0, 0.0, 1.0, 8.5, 23.75)">
    <use ffdec:characterId="1366" height="43.5" transform="matrix(1.0, 0.0, 0.0, 1.0, -8.5, -22.0)" width="16.8" xlink:href="#shape0"/>
  </g>
  <defs>
    <g id="shape0" transform="matrix(1.0, 0.0, 0.0, 1.0, 8.5, 22.0)">
      <path d="M6.7 1.6 Q6.35 -2.45 6.3 -5.35 L6.25 -6.75 6.5 -10.85 6.75 -14.85 Q6.75 -17.7 4.5 -19.5 2.3 -21.25 -1.0 -21.25 -3.05 -21.25 -5.25 -20.0 L-5.65 -19.75 Q-3.9 -22.15 -0.3 -22.0 4.4 -21.85 6.25 -19.35 8.1 -16.85 8.1 -14.4 L7.95 -11.15 7.7 -5.45 7.65 -4.55 Q7.65 -3.3 7.8 -2.2 L8.0 -1.25 Q8.3 0.2 7.8 1.6 L8.3 1.65 7.05 1.6 6.7 1.6" fill="#a07acd" fill-rule="evenodd" stroke="none"/>
      <path d="M-5.65 -19.75 L-5.25 -20.0 Q-3.05 -21.25 -1.0 -21.25 2.3 -21.25 4.5 -19.5 6.75 -17.7 6.75 -14.85 L6.5 -10.85 6.25 -6.75 6.3 -5.35 Q6.35 -2.45 6.7 1.6 L6.25 1.55 5.1 1.5 4.05 -1.8 Q3.55 -3.55 3.65 -4.35 3.65 -5.2 4.1 -6.35 4.55 -7.6 4.85 -10.0 L5.15 -14.55 Q5.15 -16.75 3.05 -18.5 0.9 -20.25 -1.5 -20.25 -4.2 -20.25 -5.75 -16.5 -7.0 -13.45 -7.0 -9.6 -7.0 -7.8 -6.6 -5.6 L-6.25 -2.25 -6.25 -1.5 Q-6.25 -0.15 -6.7 1.05 -8.55 1.05 -8.5 0.4 L-8.45 -1.65 -8.4 -2.25 -8.25 -7.2 -8.2 -9.15 -7.5 -14.75 -7.4 -15.2 -7.15 -16.2 -6.5 -18.1 -5.65 -19.75" fill="#8667aa" fill-rule="evenodd" stroke="none"/>
      <path d="M-6.7 1.05 Q-6.25 -0.15 -6.25 -1.5 L-6.25 -2.25 -6.6 -5.6 Q-7.0 -7.8 -7.0 -9.6 -7.0 -13.45 -5.75 -16.5 -4.2 -20.25 -1.5 -20.25 0.9 -20.25 3.05 -18.5 5.15 -16.75 5.15 -14.55 L4.85 -10.0 Q4.55 -7.6 4.1 -6.35 3.65 -5.2 3.65 -4.35 3.55 -3.55 4.05 -1.8 L5.1 1.5 3.45 1.35 1.3 1.2 -6.0 1.0 -6.15 1.0 -6.35 1.0 -6.7 1.05" fill="#775d95" fill-rule="evenodd" stroke="none"/>
      <path d="M5.1 1.5 L6.25 1.55 6.25 2.2 6.2 3.75 4.15 3.75 2.55 3.65 -1.1 3.45 -1.1 4.0 -1.15 8.0 -1.65 8.0 -1.9 6.7 -2.25 4.0 -2.3 3.4 -2.8 3.35 -5.2 3.65 -5.8 3.75 -6.2 3.55 -6.15 1.0 -6.0 1.0 1.3 1.2 3.45 1.35 5.1 1.5" fill="#e2b181" fill-rule="evenodd" stroke="none"/>
      <path d="M-2.35 5.85 L-2.25 5.55 Q-2.25 4.9 -3.35 4.4 -4.2 4.05 -4.4 4.65 L-4.65 5.4 Q-4.65 7.25 -3.5 7.25 -2.3 7.25 -2.3 6.3 L-2.35 5.85 M-1.15 8.0 L-1.1 4.0 -1.1 3.45 2.55 3.65 4.15 3.75 6.2 3.75 6.2 3.9 6.15 4.45 5.5 11.5 5.5 11.25 4.35 11.1 4.15 10.85 4.15 10.5 Q4.15 10.1 4.3 9.7 L4.8 8.5 5.4 7.05 5.3 6.45 5.35 5.85 5.3 4.9 Q5.1 4.3 4.3 3.9 L4.0 3.75 3.4 4.3 Q2.85 4.5 2.85 5.05 L3.25 5.8 3.6 6.65 3.45 7.55 2.75 8.05 1.75 9.4 1.75 10.5 1.9 10.6 1.9 10.95 Q2.15 11.65 3.0 11.65 L3.95 11.4 4.0 11.75 3.85 12.6 3.75 13.0 3.35 12.6 Q2.9 12.6 1.6 13.5 L0.6 14.25 0.15 14.2 Q-0.65 11.9 -2.7 12.8 L-3.0 13.0 Q-5.2 12.8 -6.3 11.45 L-6.2 3.55 -5.8 3.75 -5.2 3.65 -2.8 3.35 -2.3 3.4 -2.25 4.0 -1.9 6.7 -1.65 8.0 -2.8 8.0 -2.8 8.25 -2.9 8.35 -3.15 9.3 -3.0 10.3 Q-2.55 11.25 -1.0 11.25 -0.2 11.25 0.25 10.75 L0.6 9.8 0.1 8.9 -0.2 8.55 -0.8 7.95 -1.15 8.0" fill="#ffcc99" fill-rule="evenodd" stroke="none"/>
      <path d="M-4.4 4.65 Q-4.2 4.05 -3.35 4.4 -2.25 4.9 -2.25 5.55 L-2.35 5.85 -2.7 6.25 -3.25 6.6 -4.4 6.35 -4.5 5.25 -4.4 4.65 M-1.15 8.0 L-0.8 7.95 -0.2 8.55 0.1 9.5 Q-0.15 9.85 -0.85 9.85 L-1.2 9.85 -1.4 9.85 -2.35 9.65 Q-2.35 9.3 -2.8 9.0 L-2.8 8.25 -2.8 8.0 -1.65 8.0 -1.15 8.0 M0.15 14.2 L0.6 14.25 2.95 15.0 4.15 14.65 2.4 16.6 1.75 16.65 1.0 16.5 0.95 16.25 -0.55 15.15 -2.5 13.35 0.15 14.2 M1.9 10.6 L1.75 10.5 1.75 9.4 2.75 8.05 3.45 7.55 4.25 7.4 3.35 8.9 3.15 9.8 Q3.15 10.55 2.35 10.65 L1.9 10.6 M3.4 4.3 L4.0 3.75 4.3 3.9 Q5.1 4.3 5.3 4.9 L5.35 5.85 5.3 6.45 4.85 7.65 4.4 7.65 Q4.25 6.75 3.65 6.05 3.1 5.35 3.1 5.05 3.1 4.65 3.4 4.3 M-1.6 15.75 L-1.4 18.0 Q-2.35 18.0 -3.0 17.15 -3.7 16.25 -3.7 15.0 L-1.6 15.75" fill="#ff0000" fill-rule="evenodd" stroke="none"/>
      <path d="M-4.4 4.65 L-4.5 5.25 -4.4 6.35 -3.25 6.6 -2.7 6.25 -2.35 5.85 -2.3 6.3 Q-2.3 7.25 -3.5 7.25 -4.65 7.25 -4.65 5.4 L-4.4 4.65 M-0.2 8.55 L0.1 8.9 0.6 9.8 0.25 10.75 Q-0.2 11.25 -1.0 11.25 -2.55 11.25 -3.0 10.3 L-3.15 9.3 -2.9 8.35 -2.8 8.25 -2.8 9.0 Q-2.35 9.3 -2.35 9.65 L-1.4 9.85 -1.2 9.85 -0.85 9.85 Q-0.15 9.85 0.1 9.5 L-0.2 8.55 M-6.3 11.45 Q-5.2 12.8 -3.0 13.0 L-2.7 12.8 Q-0.65 11.9 0.15 14.2 L-2.5 13.35 -0.55 15.15 -1.75 14.5 -1.6 15.75 -3.7 15.0 -4.1 14.45 -4.45 14.0 -5.75 12.9 -6.3 12.35 -6.3 11.45 M0.6 14.25 L1.6 13.5 Q2.9 12.6 3.35 12.6 L3.75 13.0 3.85 12.6 4.0 11.75 3.95 11.4 3.0 11.65 Q2.15 11.65 1.9 10.95 L1.9 10.6 2.35 10.65 Q3.15 10.55 3.15 9.8 L3.35 8.9 4.25 7.4 3.45 7.55 3.6 6.65 3.25 5.8 2.85 5.05 Q2.85 4.5 3.4 4.3 3.1 4.65 3.1 5.05 3.1 5.35 3.65 6.05 4.25 6.75 4.4 7.65 L4.85 7.65 5.3 6.45 5.4 7.05 4.8 8.5 4.3 9.7 Q4.15 10.1 4.15 10.5 L4.15 10.85 4.35 11.1 5.5 11.25 5.5 11.5 5.4 12.45 4.75 13.3 Q4.55 13.5 4.5 14.15 L4.65 13.95 4.3 14.45 4.15 14.65 2.95 15.0 0.6 14.25" fill="#990000" fill-rule="evenodd" stroke="none"/>
      <path d="M-1.6 15.75 L-1.75 14.5 -0.55 15.15 0.95 16.25 1.0 16.5 1.75 16.65 1.75 20.75 Q1.5 20.75 1.5 21.25 L-1.25 21.5 -1.4 18.0 -1.6 15.75" fill="#ffffff" fill-rule="evenodd" stroke="none"/>
    </g>
  </defs>
</svg>
