<?xml version="1.0" encoding="UTF-8" standalone="no"?>
<svg xmlns:ffdec="https://www.free-decompiler.com/flash" xmlns:xlink="http://www.w3.org/1999/xlink" ffdec:objectType="frame" height="3.5px" width="26.55px" xmlns="http://www.w3.org/2000/svg">
  <g transform="matrix(1.0, 0.0, 0.0, 1.0, 13.3, 1.75)">
    <use ffdec:characterId="2835" height="3.5" transform="matrix(1.0, 0.0, 0.0, 1.0, -13.25, -1.75)" width="26.5" xlink:href="#shape0"/>
  </g>
  <defs>
    <g id="shape0" transform="matrix(1.0, 0.0, 0.0, 1.0, 13.25, 1.75)">
      <path d="M13.25 0.5 Q12.1 0.4 10.8 -0.35 L10.05 -0.75 13.25 -0.75 13.25 0.5 M7.75 -0.75 L9.15 0.6 9.25 0.75 -2.25 0.75 -11.25 0.75 -13.25 0.75 -13.25 -0.75 -11.25 -0.75 -2.25 -0.75 7.75 -0.75" fill="#998369" fill-rule="evenodd" stroke="none"/>
      <path d="M-11.25 -0.75 L-13.25 -1.75 -4.25 -1.75 -2.25 -0.75 -11.25 -0.75 M-2.25 0.75 L-4.25 1.75 -13.25 1.75 -11.25 0.75 -2.25 0.75" fill="#ffcc33" fill-rule="evenodd" stroke="none"/>
      <path d="M10.05 -0.75 L10.8 -0.35 Q12.1 0.4 13.25 0.5 L13.25 0.75 9.25 0.75 9.15 0.6 7.75 -0.75 10.05 -0.75" fill="#990000" fill-rule="evenodd" stroke="none"/>
    </g>
  </defs>
</svg>
