<?xml version="1.0" encoding="UTF-8" standalone="no"?>
<svg xmlns:ffdec="https://www.free-decompiler.com/flash" xmlns:xlink="http://www.w3.org/1999/xlink" ffdec:objectType="frame" height="3.5px" width="26.55px" xmlns="http://www.w3.org/2000/svg">
  <g transform="matrix(1.0, 0.0, 0.0, 1.0, 13.3, 1.75)">
    <use ffdec:characterId="2828" height="1.5" transform="matrix(1.0, 0.0, 0.0, 1.0, -13.25, -0.75)" width="26.5" xlink:href="#shape0"/>
  </g>
  <defs>
    <g id="shape0" transform="matrix(1.0, 0.0, 0.0, 1.0, 13.25, 0.75)">
      <path d="M6.0 -0.75 L7.35 -0.75 6.4 0.75 4.55 0.75 6.0 -0.75" fill="#999999" fill-rule="evenodd" stroke="none"/>
      <path d="M11.65 -0.4 L13.25 0.0 10.7 0.65 11.65 -0.4" fill="#666666" fill-rule="evenodd" stroke="none"/>
      <path d="M-2.45 0.75 L-6.55 0.75 -6.35 0.65 -3.4 -0.75 -0.8 -0.75 -2.45 0.75" fill="#998369" fill-rule="evenodd" stroke="none"/>
      <path d="M7.35 -0.75 L10.25 -0.75 11.65 -0.4 10.7 0.65 10.25 0.75 6.4 0.75 7.35 -0.75 M4.55 0.75 L-2.45 0.75 -0.8 -0.75 6.0 -0.75 4.55 0.75 M-6.55 0.75 L-13.25 0.75 -13.25 -0.75 -3.4 -0.75 -6.35 0.65 -6.55 0.75" fill="#990000" fill-rule="evenodd" stroke="none"/>
    </g>
  </defs>
</svg>
