<?xml version="1.0" encoding="UTF-8" standalone="no"?>
<svg xmlns:ffdec="https://www.free-decompiler.com/flash" xmlns:xlink="http://www.w3.org/1999/xlink" ffdec:objectType="frame" height="22.95px" width="25.0px" xmlns="http://www.w3.org/2000/svg">
  <g transform="matrix(1.0, 0.0, 0.0, 1.0, 12.5, 12.55)">
    <use ffdec:characterId="568" height="22.95" transform="matrix(1.0, 0.0, 0.0, 1.0, -12.5, -12.55)" width="25.0" xlink:href="#shape0"/>
  </g>
  <defs>
    <g id="shape0" transform="matrix(1.0, 0.0, 0.0, 1.0, 12.5, 12.55)">
      <path d="M3.2 -12.15 L3.5 -11.8 4.15 -10.55 4.55 -10.35 4.9 -9.35 3.7 -8.3 4.25 -9.45 3.95 -9.95 1.25 -6.85 3.4 -10.05 3.4 -10.5 -0.55 -5.1 3.05 -10.65 3.2 -10.9 3.3 -10.8 3.2 -12.15" fill="#bfaca1" fill-rule="evenodd" stroke="none"/>
      <path d="M3.5 -11.8 L5.05 -10.9 5.3 -8.4 4.45 -7.6 2.6 -7.75 0.95 -4.3 0.7 -3.8 -0.55 -4.5 -3.3 -4.25 -3.65 -4.75 -1.85 -7.05 0.0 -9.45 2.75 -12.55 3.2 -12.15 0.85 -10.2 -0.15 -9.2 -1.0 -8.0 -1.7 -6.7 -2.2 -5.35 0.0 -8.4 -1.6 -5.1 2.0 -9.75 3.05 -10.65 -0.55 -5.1 3.4 -10.5 3.4 -10.05 1.25 -6.85 3.95 -9.95 4.25 -9.45 3.7 -8.3 4.9 -9.35 4.55 -10.35 4.15 -10.55 3.5 -11.8" fill="#837b72" fill-rule="evenodd" stroke="none"/>
      <path d="M3.2 -12.15 L3.3 -10.8 3.2 -10.9 3.05 -10.65 2.0 -9.75 -1.6 -5.1 0.0 -8.4 -2.2 -5.35 -1.7 -6.7 -1.0 -8.0 -0.15 -9.2 0.85 -10.2 3.2 -12.15" fill="#e9d3be" fill-rule="evenodd" stroke="none"/>
      <path d="M0.95 -4.3 L2.9 -5.0 5.35 -4.2 6.05 -4.95 9.25 -4.85 Q11.0 -4.8 12.05 -3.85 L11.55 -2.45 Q10.35 -3.4 9.0 -3.55 L6.55 -3.95 5.95 -3.65 8.5 1.5 7.1 2.05 6.4 0.1 6.55 0.7 Q5.9 -1.0 4.9 -2.4 L3.5 -3.95 0.5 -2.85 1.65 2.3 0.0 2.35 -0.05 2.2 -1.25 -2.8 -3.0 -3.1 -4.65 -3.2 Q-6.25 -2.65 -7.4 -1.1 L-8.15 -1.9 -10.5 -1.55 -12.35 -2.75 -12.5 -2.85 -11.4 -3.25 -11.0 -3.5 Q-9.75 -4.55 -8.1 -4.85 L-7.05 -4.95 -6.65 -4.6 -3.65 -4.75 -3.3 -4.25 -0.55 -4.5 0.7 -3.8 0.95 -4.3" fill="#e57128" fill-rule="evenodd" stroke="none"/>
      <path d="M2.45 -2.3 L2.05 -2.45 2.05 -3.2 3.5 -3.2 4.6 -0.7 2.8 -2.6 2.45 -2.3 M2.95 2.25 L3.1 1.75 3.95 1.05 4.65 1.55 5.2 1.5 5.6 2.05 6.25 1.0 6.55 2.15 2.95 2.25 M2.65 2.25 L2.0 2.25 1.6 -0.3 2.65 2.25 M0.0 2.35 L-2.05 2.1 -1.55 1.6 -0.95 2.05 -0.65 1.5 -0.05 2.2 0.0 2.35 M-2.45 2.0 L-4.55 1.45 -3.4 0.3 -2.45 2.0 M-6.2 0.1 L-6.5 -0.2 -5.95 -1.1 -2.4 -2.55 -1.75 -1.1 -2.15 -0.75 -2.9 -1.1 -4.2 -0.25 -4.6 -0.65 -6.2 0.1" fill="#ff8c3f" fill-rule="evenodd" stroke="none"/>
      <path d="M6.1 5.15 L5.05 5.9 4.5 6.2 3.6 5.95 3.4 5.8 3.3 6.0 3.3 6.5 2.3 6.75 1.75 9.0 1.45 7.0 1.4 7.45 0.35 6.55 0.25 6.8 -0.4 6.85 0.15 8.65 0.5 7.85 1.2 8.25 -0.05 9.25 Q-0.4 9.05 -0.7 8.9 L-0.7 9.05 -1.55 8.8 -0.35 8.6 -0.8 7.1 -0.95 6.7 -0.9 6.6 -2.05 5.65 -1.55 6.95 -1.65 7.9 -2.2 8.35 -1.85 7.0 -2.3 8.05 -2.85 6.45 -2.95 6.45 -3.0 5.65 Q-3.85 5.7 -3.9 6.55 L-4.3 7.15 -4.65 5.75 -4.15 5.05 -4.85 4.7 -4.95 4.65 -5.2 4.55 -5.2 4.65 -5.6 4.9 -5.75 5.05 -6.25 4.65 -6.4 3.85 -7.55 3.4 -6.05 7.0 Q-7.05 5.05 -8.2 3.25 -9.15 1.75 -10.25 0.4 L-8.3 2.45 -9.25 0.55 -9.05 0.6 -8.15 1.8 -8.15 1.1 -7.65 1.55 -6.3 3.8 -6.2 2.95 -4.65 3.8 -3.85 4.8 -3.35 4.2 -2.95 4.3 -3.1 4.4 -2.65 4.8 -2.05 4.5 -1.6 4.6 -2.0 5.2 -0.95 4.75 -0.9 4.8 -0.75 4.8 -0.4 5.4 -0.3 5.5 -0.7 4.8 0.4 4.95 0.5 4.9 0.55 5.0 0.75 5.0 0.7 5.05 1.4 5.05 4.05 5.2 2.5 5.65 5.1 5.2 6.1 5.15 M-0.2 10.25 L-0.3 10.4 -0.25 10.2 -0.2 10.25 M-5.2 6.15 L-5.25 7.0 -5.45 6.25 -5.2 6.15 M2.45 -2.3 L2.8 -2.6 4.6 -0.7 3.5 -3.2 2.05 -3.2 2.05 -2.45 2.45 -2.3 M1.65 2.3 L0.5 -2.85 3.5 -3.95 4.9 -2.4 Q5.9 -1.0 6.55 0.7 L6.8 2.15 6.55 2.15 6.25 1.0 5.6 2.05 5.2 1.5 4.65 1.55 3.95 1.05 3.1 1.75 2.95 2.25 2.65 2.25 1.6 -0.3 2.0 2.25 1.65 2.3 M8.5 1.5 L5.95 -3.65 6.55 -3.95 9.0 -3.55 Q10.35 -3.4 11.55 -2.45 L11.15 -1.4 10.65 -2.0 11.05 -1.1 10.3 0.85 Q10.15 0.6 9.95 0.6 L9.9 0.7 9.45 0.95 Q9.35 1.0 9.4 1.15 L8.5 1.5 M-2.05 2.1 L-2.45 2.0 -3.4 0.3 -4.55 1.45 -4.9 1.3 -6.2 0.1 -4.6 -0.65 -4.2 -0.25 -2.9 -1.1 -2.15 -0.75 -1.75 -1.1 -2.4 -2.55 -5.95 -1.1 -6.5 -0.2 -7.4 -1.1 Q-6.25 -2.65 -4.65 -3.2 L-3.0 -3.1 -1.25 -2.8 -0.05 2.2 -0.65 1.5 -0.95 2.05 -1.55 1.6 -2.05 2.1 M-0.9 4.8 L-1.55 5.45 -0.85 5.9 -0.9 4.8 M1.6 6.1 L1.35 6.0 1.1 6.1 1.0 6.35 1.1 6.6 1.35 6.7 1.6 6.6 1.7 6.35 1.6 6.1 M0.1 6.35 Q0.3 5.6 0.0 6.25 L0.0 5.7 -0.6 5.7 -0.6 6.25 -0.15 6.45 0.1 6.35 M-4.1 5.2 L-4.2 6.05 -3.5 5.5 -4.1 5.2 M-7.4 2.9 L-7.4 2.8 Q-7.85 2.6 -7.4 2.9 M-6.1 3.95 L-5.6 4.9 -6.2 3.4 -6.1 3.95" fill="#ef7f33" fill-rule="evenodd" stroke="none"/>
      <path d="M12.05 -3.85 L12.5 -3.6 Q12.55 -1.35 11.95 0.65 11.35 2.65 9.8 3.65 L7.95 4.6 6.1 5.15 5.1 5.2 4.05 5.2 1.4 5.05 0.75 5.0 0.55 5.0 0.5 4.9 0.4 4.95 -0.7 4.8 -0.75 4.8 -0.9 4.8 -0.95 4.75 -1.6 4.6 -2.05 4.5 -2.95 4.3 -3.35 4.2 -4.65 3.8 -6.2 2.95 -7.65 1.55 -8.15 1.1 -9.05 0.6 -9.25 0.55 -10.25 0.4 Q-12.25 0.1 -12.4 -1.95 L-12.35 -2.75 -10.5 -1.55 -8.15 -1.9 -7.4 -1.1 -6.5 -0.2 -6.2 0.1 -4.9 1.3 -4.55 1.45 -2.45 2.0 -2.05 2.1 0.0 2.35 1.65 2.3 2.0 2.25 2.65 2.25 2.95 2.25 6.55 2.15 6.8 2.15 7.1 2.05 8.5 1.5 9.4 1.15 Q9.35 1.0 9.45 0.95 L9.9 0.7 9.95 0.6 Q10.15 0.6 10.3 0.85 L11.05 -1.1 10.65 -2.0 11.15 -1.4 11.55 -2.45 12.05 -3.85" fill="#ffc670" fill-rule="evenodd" stroke="none"/>
      <path d="M6.55 0.7 L6.4 0.1 7.1 2.05 6.8 2.15 6.55 0.7" fill="#ffa966" fill-rule="evenodd" stroke="none"/>
      <path d="M4.5 6.2 L4.7 6.9 Q4.8 7.4 4.2 7.35 L3.9 7.15 3.3 6.5 3.3 6.0 3.4 5.8 3.6 5.95 4.5 6.2 M1.4 7.45 L1.45 7.65 Q1.6 7.95 1.2 8.25 L0.5 7.85 0.25 6.8 0.35 6.55 1.4 7.45 M-0.05 9.25 L0.05 9.35 Q0.6 9.55 0.55 10.25 L-0.2 10.25 -0.25 10.2 -0.7 9.7 -0.7 9.05 -0.7 8.9 Q-0.4 9.05 -0.05 9.25 M-0.8 7.1 L-0.85 7.75 -1.0 7.9 Q-1.4 8.45 -1.65 7.9 L-1.55 6.95 -1.45 6.75 -0.95 6.7 -0.8 7.1 M-2.95 6.45 L-3.0 6.9 -3.35 7.1 -3.7 6.95 -3.9 6.55 Q-3.85 5.7 -3.0 5.65 L-2.95 6.45 M-4.85 4.7 L-4.75 5.2 Q-4.8 5.65 -5.2 6.15 L-5.45 6.25 -5.65 6.2 Q-6.35 5.8 -5.75 5.05 L-5.6 4.9 -5.2 4.65 -4.95 4.65 -4.85 4.7" fill="#e5cea4" fill-rule="evenodd" stroke="none"/>
    </g>
  </defs>
</svg>
