<?xml version="1.0" encoding="UTF-8" standalone="no"?>
<svg xmlns:ffdec="https://www.free-decompiler.com/flash" xmlns:xlink="http://www.w3.org/1999/xlink" ffdec:objectType="frame" height="32.0px" width="6.0px" xmlns="http://www.w3.org/2000/svg">
  <g transform="matrix(1.0, 0.0, 0.0, 1.0, 2.0, 16.0)">
    <use ffdec:characterId="2689" height="32.0" transform="matrix(1.0, 0.0, 0.0, 1.0, -2.0, -16.0)" width="6.0" xlink:href="#shape0"/>
  </g>
  <defs>
    <g id="shape0" transform="matrix(1.0, 0.0, 0.0, 1.0, 2.0, 16.0)">
      <path d="M-0.9 13.0 L-0.9 12.45 -1.05 9.55 -1.05 9.35 -1.65 -7.75 -1.85 -13.2 -1.85 -13.35 -1.95 -14.5 -1.95 -14.75 -1.95 -15.45 -2.0 -16.0 -0.75 -16.0 Q3.7 -14.55 3.65 -5.5 L2.95 13.0 -0.9 13.0" fill="#cccc99" fill-rule="evenodd" stroke="none"/>
      <path d="M2.95 13.0 L2.9 13.35 2.8 14.7 2.75 16.0 -0.75 16.0 -0.8 14.7 -0.9 13.35 -0.9 13.0 2.95 13.0" fill="#666666" fill-rule="evenodd" stroke="none"/>
      <path d="M-0.75 -16.0 L4.0 -16.0 4.0 -15.45 4.0 -14.75 4.0 -14.2 4.0 -13.6 3.95 -13.2 3.65 -5.5 Q3.7 -14.55 -0.75 -16.0" fill="#aca77d" fill-rule="evenodd" stroke="none"/>
    </g>
  </defs>
</svg>
