<?xml version="1.0" encoding="UTF-8" standalone="no"?>
<svg xmlns:ffdec="https://www.free-decompiler.com/flash" xmlns:xlink="http://www.w3.org/1999/xlink" ffdec:objectType="frame" height="78.2px" width="42.95px" xmlns="http://www.w3.org/2000/svg">
  <g transform="matrix(1.0, 0.0, 0.0, 1.0, 13.75, 38.15)">
    <use ffdec:characterId="1800" height="67.15" transform="matrix(1.0, 0.0, 0.0, 1.0, -13.75, -36.6)" width="27.8" xlink:href="#shape0"/>
    <use ffdec:characterId="1799" height="27.85" transform="matrix(1.0, 0.0, 0.0, 1.0, -12.05, 12.2)" width="41.25" xlink:href="#shape1"/>
  </g>
  <defs>
    <g id="shape0" transform="matrix(1.0, 0.0, 0.0, 1.0, 13.75, 36.6)">
      <path d="M8.35 -10.7 L8.25 -8.4 7.9 -8.65 7.7 -8.7 7.65 -8.7 7.6 -8.65 7.65 -8.85 8.35 -10.7 M8.1 -4.75 L8.0 2.6 Q7.5 3.85 7.5 6.7 L7.6 7.75 7.45 8.3 7.35 10.55 7.45 12.05 7.2 14.55 7.25 17.1 7.05 18.8 Q7.35 21.0 7.85 22.0 L7.85 22.2 8.8 23.3 9.05 23.55 9.05 23.6 9.05 25.05 8.75 26.45 8.0 27.0 7.65 27.6 6.65 27.75 5.75 26.95 Q4.4 29.8 1.5 30.45 -1.3 30.9 -3.9 29.6 -5.2 30.75 -7.05 29.95 -9.15 29.05 -9.9 27.05 L-9.8 26.45 -9.3 23.6 -9.25 23.3 Q-8.3 21.25 -7.85 15.35 -7.85 14.0 -8.0 13.4 L-8.35 11.65 -8.35 11.45 -8.4 11.2 -9.15 6.0 -10.75 0.45 -10.95 -0.55 Q-11.55 -0.65 -12.2 -2.7 L-13.0 -6.25 -13.5 -9.35 -13.75 -11.9 -13.7 -12.9 -13.75 -13.4 -13.6 -14.35 -13.45 -16.25 -13.15 -20.65 -12.9 -22.8 -12.5 -22.65 -12.7 -22.35 Q-13.05 -21.3 -11.7 -21.3 -10.75 -21.3 -9.65 -22.45 L-9.3 -22.8 Q-8.65 -23.6 -8.65 -24.05 L-8.7 -25.4 -6.9 -26.7 -6.6 -26.3 Q-7.0 -25.15 -6.85 -24.55 -6.7 -23.65 -4.8 -23.5 L-3.8 -23.45 Q-2.25 -23.45 -1.7 -24.0 L-1.55 -24.15 -1.45 -24.0 -1.05 -23.95 -0.4 -23.95 -0.85 -23.15 -0.55 -23.05 Q-0.1 -22.6 0.15 -22.6 L0.5 -22.7 Q0.75 -22.4 1.15 -22.35 L1.35 -22.3 1.55 -22.25 2.2 -20.55 2.8 -18.85 3.2 -17.85 3.15 -17.8 2.7 -17.35 Q1.75 -16.3 1.65 -14.9 L1.1 -14.3 0.7 -14.0 0.6 -14.0 -0.35 -14.3 -0.9 -13.6 -1.25 -13.5 -1.85 -13.6 -2.7 -13.3 -2.75 -13.3 -2.9 -14.3 -3.1 -15.2 -5.3 -12.0 -6.2 -10.85 -7.95 -8.45 -9.95 -8.95 -8.7 -4.8 -7.6 -0.55 -6.75 3.15 -6.55 4.3 Q-6.1 6.45 -4.95 8.35 L-4.7 8.8 -4.65 8.95 -4.6 9.0 Q-3.5 6.25 -3.2 2.65 L-3.2 0.55 -3.2 0.3 -1.95 -0.1 Q-0.85 -0.75 -0.25 -2.2 L-0.05 -1.85 0.65 -0.45 0.7 -0.4 0.7 -0.5 2.45 -5.6 Q2.4 -6.0 2.7 -6.35 3.1 -6.75 3.65 -6.8 L3.65 -6.55 3.4 -3.9 3.5 -3.75 3.5 -3.7 3.4 -3.0 Q3.45 -2.1 3.85 -1.7 L3.9 -0.75 4.05 2.2 3.45 2.3 3.05 1.9 2.9 1.8 2.85 1.3 Q2.8 0.65 2.4 0.4 L0.9 0.05 0.5 0.15 Q0.15 0.25 -0.05 0.55 L-0.25 1.05 -0.35 1.6 0.2 3.55 1.7 3.8 2.35 6.15 3.75 6.45 4.25 6.35 4.45 7.05 4.55 6.3 5.0 6.2 5.55 5.7 5.8 3.9 6.2 3.05 5.85 2.2 5.1 1.9 5.05 1.95 5.1 1.45 5.2 0.3 5.25 0.35 5.35 -1.0 5.4 -1.5 Q5.95 -1.6 6.3 -2.15 6.6 -2.8 6.55 -3.6 L6.6 -3.65 8.1 -4.75 M2.4 -11.85 L3.6 -10.4 3.6 -9.35 1.05 -10.2 0.65 -10.0 0.6 -9.2 0.05 -7.8 0.55 -6.7 Q0.95 -5.6 0.45 -4.45 L-0.2 -3.25 -0.35 -4.0 -1.45 -4.3 -2.95 -4.55 -2.85 -5.6 -2.8 -6.3 -2.7 -6.3 -2.05 -8.25 -1.6 -9.15 -1.8 -9.25 -1.95 -9.85 -1.6 -9.9 Q-0.95 -9.95 -0.65 -10.85 -0.4 -11.75 1.05 -11.9 L2.25 -11.8 2.4 -11.85 M-2.4 -11.7 L-2.25 -11.7 -2.35 -11.5 -2.4 -11.7 M-4.75 -19.45 L-4.9 -19.9 -5.5 -20.3 -7.9 -20.35 Q-8.4 -20.3 -8.7 -19.7 -9.05 -19.1 -8.95 -18.3 L-8.85 -17.4 -9.45 -16.75 -10.2 -16.3 -10.7 -15.6 -10.65 -14.55 -10.9 -13.9 -10.15 -12.9 Q-7.25 -13.45 -5.5 -15.8 L-5.5 -16.3 -5.05 -16.8 Q-4.25 -17.55 -4.25 -18.5 L-4.75 -19.45" fill="#ffcc99" fill-rule="evenodd" stroke="none"/>
      <path d="M2.65 -36.45 L1.1 -35.45 2.25 -36.6 2.65 -36.45 M5.05 -22.1 L5.05 -22.05 5.0 -22.05 5.05 -22.1 M-2.8 -10.55 L-2.9 -10.4 Q-2.55 -9.9 -1.95 -9.85 L-1.8 -9.25 -1.6 -9.15 -2.05 -8.25 -2.7 -6.3 -2.8 -6.3 -2.85 -5.6 -2.95 -4.55 Q-4.65 -4.7 -6.35 -3.85 L-6.5 -2.35 -6.4 -1.8 Q-6.2 -0.7 -5.35 0.1 L-4.8 0.25 -4.05 0.35 -3.2 0.3 -3.2 0.55 -3.2 2.65 Q-3.5 6.25 -4.6 9.0 L-4.65 8.95 -4.7 8.8 -4.95 8.35 Q-6.1 6.45 -6.55 4.3 L-6.75 3.15 -7.6 -0.55 -8.7 -4.8 -9.95 -8.95 -7.95 -8.45 -6.2 -10.85 -5.3 -12.0 -3.1 -15.2 -2.9 -14.3 -2.75 -13.3 Q-3.6 -12.85 -3.45 -11.8 L-2.4 -11.7 -2.35 -11.5 -2.8 -10.55 M3.9 -0.75 L5.2 0.3 5.1 1.45 5.05 1.95 4.05 2.2 3.9 -0.75 M4.55 6.3 L4.45 7.05 4.25 6.35 4.55 6.3" fill="#f4c398" fill-rule="evenodd" stroke="none"/>
      <path d="M9.15 -13.85 Q9.25 -13.15 8.35 -10.7 L7.65 -8.85 7.6 -8.65 6.9 -8.45 6.45 -8.3 6.3 -8.2 6.1 -7.7 5.9 -6.95 5.9 -6.3 6.0 -5.7 5.65 -4.95 5.45 -5.0 Q3.75 -4.85 3.5 -3.75 L3.4 -3.9 3.65 -6.55 3.65 -6.8 4.35 -8.05 5.65 -7.8 6.95 -9.65 6.8 -10.45 9.15 -13.85 M1.55 -22.25 L1.6 -22.25 2.25 -22.3 Q2.5 -22.3 2.95 -22.65 L3.7 -22.7 3.75 -22.7 Q3.55 -21.85 3.65 -20.55 L4.25 -18.15 3.7 -17.85 3.2 -17.85 2.8 -18.85 2.2 -20.55 1.55 -22.25 M3.6 -10.4 L3.65 -10.35 3.95 -10.0 3.6 -9.35 3.6 -10.4 M3.85 -1.7 Q4.15 -1.4 4.7 -1.45 4.9 -1.45 5.1 -1.6 L5.4 -1.5 5.35 -1.0 5.25 0.35 5.2 0.3 3.9 -0.75 3.85 -1.7" fill="#ebbb98" fill-rule="evenodd" stroke="none"/>
      <path d="M0.65 -29.25 Q3.05 -27.7 4.45 -25.2 L5.2 -23.5 4.85 -23.1 4.45 -23.2 Q2.8 -23.65 1.6 -24.85 1.55 -24.15 1.65 -23.4 L1.35 -22.3 1.15 -22.35 0.6 -22.75 0.5 -22.7 0.15 -22.6 Q-0.1 -22.6 -0.55 -23.05 L-0.85 -23.15 -0.4 -23.95 -1.05 -23.95 -1.45 -24.0 -1.55 -24.15 -1.45 -24.55 -1.5 -25.55 -2.35 -25.65 -3.5 -25.8 Q-4.35 -25.8 -4.65 -26.25 L-4.75 -26.65 Q-4.75 -27.5 -2.4 -28.05 L-0.65 -27.9 -0.45 -27.75 -0.4 -27.65 -0.35 -27.65 Q0.05 -27.65 0.3 -26.7 L0.9 -27.9 0.5 -28.35 Q0.05 -28.8 0.65 -29.25 M5.05 -22.05 L5.15 -22.05 6.05 -21.1 6.0 -20.85 6.0 -20.75 5.5 -20.4 5.45 -20.4 4.4 -20.35 4.15 -21.1 Q4.1 -21.9 5.05 -22.05 M6.55 -19.35 L6.85 -19.3 7.15 -18.75 7.1 -18.1 Q7.0 -17.65 6.55 -17.6 L6.4 -17.7 Q6.0 -17.95 4.95 -18.75 L5.1 -19.2 5.4 -19.3 5.75 -19.35 6.55 -19.35 M8.85 -14.15 L9.15 -13.85 6.8 -10.45 6.95 -9.65 5.65 -7.8 4.35 -8.05 3.3 -6.95 2.55 -7.4 2.5 -8.05 1.95 -8.05 2.45 -5.6 0.7 -0.5 0.65 -0.45 -0.05 -1.85 Q1.2 -4.5 0.7 -7.35 L0.05 -7.8 0.6 -9.2 0.65 -10.0 1.05 -10.2 3.6 -9.35 3.95 -10.0 3.65 -10.35 3.6 -10.4 2.4 -11.85 2.35 -12.9 1.85 -13.1 2.2 -15.2 1.65 -14.9 Q1.75 -16.3 2.7 -17.35 L3.15 -17.8 3.2 -17.85 3.7 -17.85 2.8 -16.5 4.2 -16.2 Q4.75 -15.3 4.15 -14.35 L4.0 -14.0 3.7 -13.95 3.6 -13.95 Q3.15 -14.1 2.85 -14.3 L2.85 -13.3 4.3 -11.55 4.85 -10.15 8.85 -14.15 M8.25 -8.4 L8.6 -8.15 8.25 -4.85 8.1 -4.75 6.6 -3.65 6.55 -3.65 6.55 -3.6 Q6.6 -2.8 6.3 -2.15 5.95 -1.6 5.4 -1.5 L5.1 -1.6 Q4.25 -2.5 4.55 -3.5 4.85 -4.4 5.65 -4.95 L6.0 -5.7 Q6.4 -5.5 6.8 -5.35 L7.05 -6.4 6.1 -7.7 6.3 -8.2 6.45 -8.3 6.9 -8.45 7.9 -8.65 8.25 -8.4 M-12.9 -22.8 Q-13.15 -23.0 -13.05 -23.35 -13.05 -24.25 -12.45 -24.8 L-12.3 -24.95 -11.0 -25.5 Q-9.0 -25.95 -9.0 -24.7 L-12.2 -22.65 -12.5 -22.65 -12.9 -22.8 M-11.4 -28.8 L-11.5 -29.15 Q-11.5 -30.4 -10.1 -30.25 L-9.95 -30.2 -8.9 -29.95 -8.15 -29.85 -7.75 -30.1 -7.1 -30.4 -6.65 -30.25 -6.6 -30.35 Q-6.3 -30.65 -5.8 -30.75 -5.65 -31.75 -4.15 -31.7 L-3.5 -31.6 -3.5 -31.65 Q-2.9 -32.4 -1.7 -32.4 0.15 -32.4 0.15 -30.6 L0.0 -30.3 -0.5 -29.95 Q-0.95 -29.7 -2.35 -29.0 L-2.8 -28.8 -4.45 -27.85 Q-5.45 -27.3 -5.7 -27.3 -6.55 -27.3 -6.85 -27.75 -7.4 -27.2 -7.9 -27.2 -9.7 -27.2 -10.75 -28.05 L-11.3 -28.6 -11.4 -28.8 M0.7 -14.0 L0.9 -13.7 Q0.95 -13.0 0.15 -12.9 L-0.6 -13.05 -0.6 -12.95 Q-0.55 -12.6 -1.35 -11.6 L-2.15 -10.75 Q-2.4 -10.55 -2.55 -10.55 L-2.8 -10.55 -2.35 -11.5 -2.25 -11.7 -2.4 -11.7 -3.45 -11.8 Q-3.6 -12.85 -2.75 -13.3 L-2.7 -13.3 -1.85 -13.6 -1.25 -13.5 -1.0 -13.45 -0.9 -13.6 -0.35 -14.3 0.6 -14.0 0.7 -14.0 M-0.2 -3.25 L-0.15 -2.7 -1.55 -1.5 -3.2 -1.05 Q-4.35 -1.05 -5.65 -1.85 L-6.5 -2.35 -6.35 -3.85 Q-4.65 -4.7 -2.95 -4.55 L-1.45 -4.3 -0.35 -4.0 -0.2 -3.25 M5.05 1.95 L5.1 1.9 5.85 2.2 6.2 3.05 5.8 3.9 4.7 5.0 4.6 5.05 4.15 5.2 3.4 5.25 2.9 5.15 1.85 2.65 1.75 2.45 1.1 2.55 -0.35 1.6 -0.25 1.05 -0.05 0.55 Q0.15 0.25 0.5 0.15 L0.9 0.05 2.4 0.4 2.9 1.8 3.05 1.9 3.45 2.3 4.05 2.2 5.05 1.95 M-4.75 -19.45 L-4.8 -18.7 -5.35 -18.4 -5.3 -17.75 Q-7.1 -15.1 -10.2 -14.35 L-10.65 -14.55 -10.7 -15.6 -10.2 -16.3 -9.45 -16.75 -7.7 -17.5 -7.65 -17.95 -8.45 -17.95 -8.95 -18.3 Q-9.05 -19.1 -8.7 -19.7 -8.4 -20.3 -7.9 -20.35 L-5.5 -20.3 -4.9 -19.9 -4.75 -19.45" fill="#ff0000" fill-rule="evenodd" stroke="none"/>
      <path d="M4.85 -23.1 L4.95 -22.95 5.15 -23.15 5.6 -22.85 5.05 -22.1 5.0 -22.05 5.05 -22.05 Q4.1 -21.9 4.15 -21.1 L4.4 -20.35 5.45 -20.4 5.5 -20.4 6.0 -20.75 6.0 -20.85 6.9 -20.9 6.55 -19.35 5.75 -19.35 5.4 -19.3 5.1 -19.2 4.95 -18.75 Q6.0 -17.95 6.4 -17.7 L6.55 -17.6 Q7.0 -17.65 7.1 -18.1 L7.25 -17.85 6.9 -16.9 5.65 -14.25 4.35 -11.6 4.3 -11.55 2.85 -13.3 2.85 -14.3 Q3.15 -14.1 3.6 -13.95 L3.7 -13.95 4.0 -14.0 4.15 -14.35 Q4.75 -15.3 4.2 -16.2 L2.8 -16.5 3.7 -17.85 4.25 -18.15 3.65 -20.55 Q3.55 -21.85 3.75 -22.7 L3.7 -22.7 2.95 -22.65 Q2.5 -22.3 2.25 -22.3 L1.6 -22.25 1.55 -22.25 1.35 -22.3 1.65 -23.4 Q1.55 -24.15 1.6 -24.85 2.8 -23.65 4.45 -23.2 L4.85 -23.1 M-12.45 -24.8 Q-12.1 -27.45 -11.4 -28.8 L-11.3 -28.6 -10.75 -28.05 Q-9.7 -27.2 -7.9 -27.2 -7.4 -27.2 -6.85 -27.75 -6.55 -27.3 -5.7 -27.3 -5.45 -27.3 -4.45 -27.85 L-2.8 -28.8 -2.35 -29.0 Q-0.95 -29.7 -0.5 -29.95 L0.0 -30.3 0.35 -29.7 0.65 -29.25 Q0.05 -28.8 0.5 -28.35 L0.9 -27.9 0.3 -26.7 Q0.05 -27.65 -0.35 -27.65 L-0.4 -27.65 -0.45 -27.75 -0.65 -27.9 -2.4 -28.05 Q-4.75 -27.5 -4.75 -26.65 L-4.65 -26.25 Q-4.35 -25.8 -3.5 -25.8 L-2.35 -25.65 -1.5 -25.55 -1.45 -24.55 -1.55 -24.15 -1.7 -24.0 Q-2.25 -23.45 -3.8 -23.45 L-4.8 -23.5 Q-6.7 -23.65 -6.85 -24.55 -7.0 -25.15 -6.6 -26.3 L-6.9 -26.7 -8.7 -25.4 -8.65 -24.05 Q-8.65 -23.6 -9.3 -22.8 L-9.65 -22.45 Q-10.75 -21.3 -11.7 -21.3 -13.05 -21.3 -12.7 -22.35 L-12.5 -22.65 -12.2 -22.65 -9.0 -24.7 Q-9.0 -25.95 -11.0 -25.5 L-12.3 -24.95 -12.45 -24.8 M-9.95 -30.2 L-9.65 -30.25 -8.9 -29.95 -9.95 -30.2 M0.5 -22.7 L0.6 -22.75 1.15 -22.35 Q0.75 -22.4 0.5 -22.7 M1.65 -14.9 L2.2 -15.2 1.85 -13.1 2.35 -12.9 2.4 -11.85 2.25 -11.8 1.05 -11.9 Q-0.4 -11.75 -0.65 -10.85 -0.95 -9.95 -1.6 -9.9 L-1.95 -9.85 Q-2.55 -9.9 -2.9 -10.4 L-2.8 -10.55 -2.55 -10.55 Q-2.4 -10.55 -2.15 -10.75 L-1.35 -11.6 Q-0.55 -12.6 -0.6 -12.95 L-0.6 -13.05 0.15 -12.9 Q0.95 -13.0 0.9 -13.7 L0.7 -14.0 1.1 -14.3 1.65 -14.9 M0.05 -7.8 L0.7 -7.35 Q1.2 -4.5 -0.05 -1.85 L-0.25 -2.2 Q-0.85 -0.75 -1.95 -0.1 L-3.2 0.3 -4.05 0.35 -4.8 0.25 -5.35 0.1 Q-6.2 -0.7 -6.4 -1.8 L-6.5 -2.35 -5.65 -1.85 Q-4.35 -1.05 -3.2 -1.05 L-1.55 -1.5 -0.15 -2.7 -0.2 -3.25 0.45 -4.45 Q0.95 -5.6 0.55 -6.7 L0.05 -7.8 M0.65 -0.45 L0.7 -0.5 0.7 -0.4 0.65 -0.45 M2.45 -5.6 L1.95 -8.05 2.5 -8.05 2.55 -7.4 3.3 -6.95 4.35 -8.05 3.65 -6.8 Q3.1 -6.75 2.7 -6.35 2.4 -6.0 2.45 -5.6 M-0.9 -13.6 L-1.0 -13.45 -1.25 -13.5 -0.9 -13.6 M6.0 -5.7 L5.9 -6.3 5.9 -6.95 6.1 -7.7 7.05 -6.4 6.8 -5.35 Q6.4 -5.5 6.0 -5.7 M6.9 -8.45 L7.6 -8.65 7.65 -8.7 7.7 -8.7 7.9 -8.65 6.9 -8.45 M3.5 -3.75 Q3.75 -4.85 5.45 -5.0 L5.65 -4.95 Q4.85 -4.4 4.55 -3.5 4.25 -2.5 5.1 -1.6 4.9 -1.45 4.7 -1.45 4.15 -1.4 3.85 -1.7 3.45 -2.1 3.4 -3.0 L3.5 -3.7 3.5 -3.75 M6.6 -3.65 L6.55 -3.6 6.55 -3.65 6.6 -3.65 M2.9 1.8 L2.4 0.4 Q2.8 0.65 2.85 1.3 L2.9 1.8 M-0.35 1.6 L1.1 2.55 1.75 2.45 1.85 2.65 2.9 5.15 3.4 5.25 4.15 5.2 4.6 5.05 4.7 5.0 5.8 3.9 5.55 5.7 5.0 6.2 4.55 6.3 4.25 6.35 3.75 6.45 2.35 6.15 1.7 3.8 0.2 3.55 -0.35 1.6 M-10.65 -14.55 L-10.2 -14.35 Q-7.1 -15.1 -5.3 -17.75 L-5.35 -18.4 -4.8 -18.7 -4.75 -19.45 -4.25 -18.5 Q-4.25 -17.55 -5.05 -16.8 L-5.5 -16.3 -5.5 -15.8 Q-7.25 -13.45 -10.15 -12.9 L-10.9 -13.9 -10.65 -14.55 M-8.95 -18.3 L-8.45 -17.95 -7.65 -17.95 -7.7 -17.5 -9.45 -16.75 -8.85 -17.4 -8.95 -18.3" fill="#990000" fill-rule="evenodd" stroke="none"/>
      <path d="M7.25 -17.85 L8.8 -20.0 8.85 -20.1 9.35 -22.65 Q9.3 -24.15 10.5 -24.55 L13.3 -24.85 Q13.95 -24.9 14.05 -23.95 14.15 -23.15 12.7 -21.15 L11.9 -20.2 9.65 -15.8 8.85 -14.15 4.85 -10.15 4.3 -11.55 4.35 -11.6 5.65 -14.25 6.9 -16.9 7.25 -17.85" fill="#ffffff" fill-rule="evenodd" stroke="none"/>
    </g>
    <g id="shape1" transform="matrix(1.0, 0.0, 0.0, 1.0, 12.05, -12.2)">
      <path d="M4.4 12.2 L7.8 12.2 7.8 12.4 8.15 17.8 8.2 18.55 7.9 18.55 6.35 18.55 5.0 18.65 Q4.35 16.45 4.35 13.95 L4.4 12.2 M-8.85 19.2 L-8.85 18.95 -8.55 16.15 -8.8 13.0 -8.45 13.0 -5.8 12.85 Q-4.95 16.55 -4.95 19.0 L-4.95 19.5 -5.55 19.5 -6.25 19.4 -7.65 19.4 -8.65 19.15 -8.85 19.2" fill="#f9f9f9" fill-rule="evenodd" stroke="none"/>
      <path d="M-5.8 12.85 L-3.2 12.65 3.25 12.2 4.4 12.2 4.35 13.95 Q4.35 16.45 5.0 18.65 L4.6 18.75 4.25 19.15 3.8 20.05 3.4 21.2 3.4 21.75 3.3 21.9 3.3 21.7 3.3 20.9 3.2 19.15 3.2 19.1 3.15 18.95 2.95 18.8 Q2.7 18.65 2.4 18.8 L-0.25 18.8 -0.3 18.85 -0.7 18.75 -4.95 19.5 -4.95 19.0 Q-4.95 16.55 -5.8 12.85" fill="#eaeaea" fill-rule="evenodd" stroke="none"/>
      <path d="M8.2 18.55 Q9.25 18.6 9.25 18.95 L9.2 19.4 8.85 21.1 8.9 22.05 8.9 22.25 9.0 22.5 10.15 23.6 10.25 23.7 10.7 24.15 12.25 25.7 13.25 26.6 14.2 27.45 15.25 28.25 16.25 29.0 16.35 29.0 16.7 29.15 17.05 29.25 18.7 29.9 20.0 30.4 23.1 30.9 Q25.05 30.9 26.5 32.45 L27.25 33.65 27.35 34.0 27.6 34.85 26.3 34.9 25.25 35.3 23.4 35.3 22.15 35.25 20.3 35.0 19.0 34.75 17.6 34.4 15.75 33.9 15.5 33.8 14.05 33.25 11.85 32.4 Q10.2 31.75 8.85 30.5 L7.8 29.4 7.7 29.3 6.5 30.5 Q6.05 30.95 5.45 31.1 L4.1 31.05 Q3.05 31.0 2.8 29.9 L2.6 28.25 2.6 26.5 2.9 24.15 2.95 23.6 Q3.0 22.65 3.3 21.9 L3.4 21.75 3.4 21.2 3.8 20.05 4.25 19.15 4.6 18.75 5.0 18.65 6.35 18.55 7.9 18.55 8.2 18.55 M25.0 33.1 L25.8 33.7 Q26.5 33.55 26.05 32.75 25.6 31.85 24.65 31.9 L19.85 31.35 Q20.3 32.3 22.05 32.3 L23.95 32.8 25.0 33.1" fill="#5c4627" fill-rule="evenodd" stroke="none"/>
      <path d="M27.6 34.85 L28.15 35.65 28.3 35.75 27.55 36.15 26.35 36.85 24.45 37.4 22.6 37.55 20.7 37.7 19.7 37.7 18.7 37.6 17.15 37.35 15.55 37.25 13.65 37.05 12.65 36.9 11.65 36.65 10.2 36.35 8.65 35.85 7.3 35.5 5.9 35.0 4.3 34.5 2.5 34.0 1.6 33.75 1.4 33.7 0.5 33.6 -1.45 33.25 -2.9 32.95 -4.5 32.95 -6.15 32.95 -7.3 33.15 -8.6 33.3 -10.1 33.35 -11.7 33.35 -11.75 33.15 -11.75 32.9 -12.05 30.9 -12.05 30.75 -12.0 30.65 -11.9 30.3 -11.95 29.3 -11.75 28.05 -11.65 27.9 -11.05 25.85 -10.3 23.85 -10.2 23.6 -9.6 21.45 -9.35 20.15 -9.05 19.5 -9.05 19.4 -8.85 19.2 -8.65 19.15 -7.65 19.4 -6.25 19.4 -5.55 19.5 -4.95 19.5 -0.7 18.75 -0.3 18.85 -0.25 18.8 2.4 18.8 Q2.7 18.65 2.95 18.8 L3.15 18.95 3.2 19.1 3.2 19.15 3.3 20.9 3.3 21.7 3.3 21.9 Q3.0 22.65 2.95 23.6 L2.9 24.15 2.6 26.5 2.6 28.25 2.8 29.9 Q3.05 31.0 4.1 31.05 L5.45 31.1 Q6.05 30.95 6.5 30.5 L7.7 29.3 7.8 29.4 8.85 30.5 Q10.2 31.75 11.85 32.4 L14.05 33.25 15.5 33.8 15.75 33.9 17.6 34.4 19.0 34.75 20.3 35.0 22.15 35.25 23.4 35.3 25.25 35.3 26.3 34.9 27.6 34.85 M28.7 36.4 L29.2 37.65 28.2 38.5 Q27.2 39.25 26.05 39.45 L24.8 39.8 23.35 39.95 21.65 40.05 20.0 40.0 18.3 39.8 16.6 39.55 14.65 39.25 12.85 39.05 11.1 38.6 9.1 38.25 8.1 38.05 7.1 37.85 6.4 37.65 4.9 37.15 3.25 36.75 2.35 36.45 2.0 37.8 1.15 38.0 -1.4 38.05 -3.2 38.05 -5.0 38.05 -6.8 37.85 -8.65 37.5 -10.4 37.3 -10.75 37.2 Q-10.9 37.1 -11.1 36.95 L-11.6 33.9 -10.6 33.95 -8.8 33.8 -7.4 33.7 -6.95 33.65 -5.25 33.6 -3.85 33.65 -3.0 33.7 -2.15 33.8 -0.3 34.15 1.4 34.5 2.95 34.9 4.8 35.5 5.9 35.85 7.3 36.35 8.7 36.85 10.05 36.95 11.25 37.2 13.1 37.75 14.85 38.0 16.75 38.1 18.6 38.1 20.3 38.5 22.1 38.45 24.0 38.3 25.85 37.75 27.6 37.2 Q28.25 37.05 28.7 36.4" fill="#42321c" fill-rule="evenodd" stroke="none"/>
      <path d="M28.3 35.75 L28.45 35.75 28.7 36.4 Q28.25 37.05 27.6 37.2 L25.85 37.75 24.0 38.3 22.1 38.45 20.3 38.5 18.6 38.1 16.75 38.1 14.85 38.0 13.1 37.75 11.25 37.2 10.05 36.95 8.7 36.85 7.3 36.35 5.9 35.85 4.8 35.5 2.95 34.9 1.4 34.5 -0.3 34.15 -2.15 33.8 -3.0 33.7 -3.85 33.65 -5.25 33.6 -6.95 33.65 -7.4 33.7 -8.8 33.8 -10.6 33.95 -11.6 33.9 -11.7 33.35 -10.1 33.35 -8.6 33.3 -7.3 33.15 -6.15 32.95 -4.5 32.95 -2.9 32.95 -1.45 33.25 0.5 33.6 1.4 33.7 1.6 33.75 2.5 34.0 4.3 34.5 5.9 35.0 7.3 35.5 8.65 35.85 10.2 36.35 11.65 36.65 12.65 36.9 13.65 37.05 15.55 37.25 17.15 37.35 18.7 37.6 19.7 37.7 20.7 37.7 22.6 37.55 24.45 37.4 26.35 36.85 27.55 36.15 28.3 35.75" fill="#6a502d" fill-rule="evenodd" stroke="none"/>
      <path d="M25.0 33.1 L23.95 32.8 22.05 32.3 Q20.3 32.3 19.85 31.35 L24.65 31.9 Q25.6 31.85 26.05 32.75 26.5 33.55 25.8 33.7 L25.0 33.1" fill="#b68b52" fill-rule="evenodd" stroke="none"/>
    </g>
  </defs>
</svg>
