<?xml version="1.0" encoding="UTF-8" standalone="no"?>
<svg xmlns:ffdec="https://www.free-decompiler.com/flash" xmlns:xlink="http://www.w3.org/1999/xlink" ffdec:objectType="frame" height="15.25px" width="23.75px" xmlns="http://www.w3.org/2000/svg">
  <g transform="matrix(1.0, 0.0, 0.0, 1.0, 11.9, 7.65)">
    <use ffdec:characterId="2052" height="15.25" transform="matrix(1.0, 0.0, 0.0, 1.0, -11.9, -7.65)" width="23.75" xlink:href="#shape0"/>
  </g>
  <defs>
    <g id="shape0" transform="matrix(1.0, 0.0, 0.0, 1.0, 11.9, 7.65)">
      <path d="M-10.5 -1.6 L-10.85 -2.1 -11.9 -3.3 Q-11.1 -3.4 -10.8 -3.9 L-10.15 -5.15 Q-9.45 -5.8 -7.75 -6.15 L-5.4 -6.35 -4.6 -6.8 Q-3.3 -7.7 -1.95 -6.5 L-1.7 -6.3 -0.95 -6.15 -0.75 -6.05 -0.5 -6.35 0.25 -6.85 1.45 -7.3 2.75 -7.6 3.7 -7.65 Q5.7 -7.65 7.35 -6.0 L8.3 -4.8 9.75 -3.45 Q11.65 -1.3 11.65 0.2 L11.65 0.85 11.85 2.1 11.85 2.75 11.8 2.95 11.45 3.05 11.5 3.0 11.5 2.75 11.3 2.4 11.1 2.25 10.7 2.0 Q10.9 0.9 9.85 0.35 6.85 -1.2 4.15 -3.15 L3.55 -3.0 3.45 -1.85 0.65 -1.25 2.05 -0.65 0.6 -0.75 2.3 2.5 1.85 2.35 1.75 2.75 -0.3 2.95 -1.05 2.35 -2.55 2.5 -3.1 3.2 Q-6.0 2.5 -10.85 -2.3 L-10.5 -1.6 M-3.8 -1.25 L-3.8 -1.2 -3.8 -1.1 -3.55 -0.6 -3.05 0.1 -2.4 -0.05 -1.9 0.0 Q-0.85 0.0 -0.8 -1.05 L-0.6 -2.25 Q-0.6 -3.65 -2.2 -4.0 -3.85 -4.35 -3.85 -2.35 L-3.8 -1.25" fill="#594737" fill-rule="evenodd" stroke="none"/>
      <path d="M11.45 3.05 L10.9 3.2 Q10.9 2.8 10.4 2.5 9.9 2.2 9.2 2.2 6.2 0.45 2.75 -0.4 L2.05 -0.65 0.65 -1.25 3.45 -1.85 3.55 -3.0 4.15 -3.15 Q6.85 -1.2 9.85 0.35 10.9 0.9 10.7 2.0 L11.1 2.25 11.3 2.4 11.5 2.75 11.5 3.0 11.45 3.05 M1.75 2.75 L1.85 2.35 2.3 2.5 2.35 2.6 1.75 2.75" fill="#4f3d31" fill-rule="evenodd" stroke="none"/>
      <path d="M2.3 2.5 L0.6 -0.75 2.05 -0.65 2.75 -0.4 Q6.2 0.45 9.2 2.2 L8.95 2.5 Q6.9 1.25 4.5 1.95 L2.35 2.6 2.3 2.5" fill="#ffcc99" fill-rule="evenodd" stroke="none"/>
      <path d="M-2.6 6.5 L-4.4 5.95 -6.45 5.65 -8.05 3.2 -8.45 2.55 -5.55 5.2 -4.85 4.45 -3.65 4.4 -2.6 6.5 M-9.45 1.0 L-10.5 -1.6 -10.85 -2.3 Q-6.0 2.5 -3.1 3.2 L-2.55 2.5 -1.05 2.35 -0.3 2.95 1.75 2.75 2.35 2.6 4.5 1.95 Q6.9 1.25 8.95 2.5 L6.85 3.0 6.8 3.4 2.3 3.5 5.65 4.7 0.5 5.4 Q-4.35 2.65 -9.45 1.0 M-0.8 -1.05 L-0.8 -1.15 Q-0.8 -1.85 -2.3 -2.5 -3.85 -3.15 -3.85 -1.65 L-3.75 -1.35 -3.8 -1.25 -3.85 -2.35 Q-3.85 -4.35 -2.2 -4.0 -0.6 -3.65 -0.6 -2.25 L-0.8 -1.05" fill="#ff0000" fill-rule="evenodd" stroke="none"/>
      <path d="M10.9 3.2 L10.35 3.75 9.2 3.5 7.8 3.85 7.35 4.35 Q5.7 5.9 3.75 6.85 L1.3 6.9 Q0.25 7.2 -0.4 7.6 L-0.45 7.55 -2.6 6.5 -3.65 4.4 -4.85 4.45 -5.55 5.2 -8.45 2.55 -9.45 1.0 Q-4.35 2.65 0.5 5.4 L5.65 4.7 2.3 3.5 6.8 3.4 6.85 3.0 8.95 2.5 9.2 2.2 Q9.9 2.2 10.4 2.5 10.9 2.8 10.9 3.2 M-0.8 -1.05 Q-0.85 0.0 -1.9 0.0 L-2.4 -0.05 -3.05 0.1 -3.55 -0.6 -3.8 -1.1 -3.8 -1.2 -3.8 -1.25 -3.75 -1.35 -3.85 -1.65 Q-3.85 -3.15 -2.3 -2.5 -0.8 -1.85 -0.8 -1.15 L-0.8 -1.05" fill="#990000" fill-rule="evenodd" stroke="none"/>
    </g>
  </defs>
</svg>
