<?xml version="1.0" encoding="UTF-8" standalone="no"?>
<svg xmlns:ffdec="https://www.free-decompiler.com/flash" xmlns:xlink="http://www.w3.org/1999/xlink" ffdec:objectType="frame" height="85.95px" width="59.95px" xmlns="http://www.w3.org/2000/svg">
  <g transform="matrix(1.0, 0.0, 0.0, 1.0, 30.3, 41.65)">
    <use ffdec:characterId="2186" height="82.4" transform="matrix(1.0, 0.0, 0.0, 1.0, -30.3, -41.65)" width="59.95" xlink:href="#shape0"/>
  </g>
  <defs>
    <g id="shape0" transform="matrix(1.0, 0.0, 0.0, 1.0, 30.3, 41.65)">
      <path d="M-1.95 -36.75 Q-2.0 -41.5 0.1 -41.6 2.15 -41.75 2.95 -41.15 L3.2 -40.4 2.2 -37.75 2.25 -33.85 0.15 -31.75 -2.0 -32.5 -1.95 -36.75 M11.55 35.05 L11.75 35.8 Q11.75 37.05 10.75 38.55 9.25 40.75 6.5 40.75 5.7 40.75 5.1 40.05 L4.7 39.4 6.7 36.9 10.0 35.05 11.55 35.05 M3.6 31.55 L3.7 31.45 3.8 31.4 3.95 31.35 Q5.2 30.45 5.5 31.25 L5.25 33.05 Q4.45 36.1 1.35 35.0 L1.65 33.95 Q2.15 32.4 3.6 31.55" fill="#ffffff" fill-rule="evenodd" stroke="none"/>
      <path d="M2.2 -37.75 L3.35 -37.5 7.3 -33.5 6.8 -32.4 9.0 -31.65 9.8 -32.05 10.05 -33.9 12.55 -32.75 11.65 -33.05 11.0 -31.25 14.1 -29.05 13.85 -28.6 12.55 -28.6 10.5 -27.7 8.15 -29.15 8.0 -29.1 Q5.2 -28.7 4.7 -29.85 4.2 -26.1 1.8 -29.6 L1.85 -30.1 2.25 -30.4 2.35 -31.25 1.4 -31.05 0.15 -31.75 2.25 -33.85 2.2 -37.75 M22.0 -25.1 L23.1 -23.0 17.6 -23.15 17.05 -22.7 15.4 -22.9 15.25 -25.0 13.1 -25.35 13.7 -26.85 22.0 -25.1 M26.3 -20.85 L26.8 -18.85 26.65 -18.15 26.4 -18.3 25.25 -20.35 25.8 -20.35 26.3 -20.85 M19.25 27.65 Q19.75 29.0 19.25 30.45 L18.95 31.2 18.0 31.0 Q13.35 30.2 11.55 35.05 L10.0 35.05 13.9 27.3 14.55 26.7 14.15 24.3 11.9 23.4 12.3 20.95 12.3 22.25 Q13.6 23.25 15.0 22.65 L16.0 22.25 16.2 23.7 14.75 25.75 15.45 26.25 17.15 26.05 17.55 25.35 17.55 26.15 17.3 27.05 15.5 29.0 15.0 29.85 Q16.85 29.95 18.15 28.55 L18.8 27.8 18.55 27.25 19.25 27.65 M4.7 39.4 L2.65 39.15 Q-0.15 38.6 -2.35 37.2 L-1.45 37.15 -2.7 34.7 3.2 38.65 3.75 38.6 4.35 37.4 Q2.6 36.35 0.8 35.55 L-3.05 34.2 -4.3 33.05 -5.1 32.55 Q-6.05 32.2 -7.0 32.0 L-6.5 32.95 -7.25 33.0 Q-8.45 31.75 -9.4 31.05 L-9.65 31.1 Q-14.7 32.55 -14.7 26.5 L-11.3 27.15 -11.25 27.15 -12.9 26.2 -12.65 23.85 -12.65 23.8 -11.9 23.1 -12.15 24.0 -11.95 25.35 -11.55 26.05 -9.45 26.0 -9.05 25.5 -8.25 25.55 -8.55 26.5 -9.15 27.05 -10.5 27.25 -9.3 27.4 Q-6.8 27.8 -5.0 29.9 -4.25 31.35 -3.05 32.4 L-2.55 32.65 -2.0 32.5 Q-0.7 33.15 0.55 33.75 L1.75 32.7 Q2.65 32.05 3.6 31.55 2.15 32.4 1.65 33.95 L1.35 35.0 Q4.45 36.1 5.25 33.05 L5.5 31.25 7.55 31.75 8.85 31.05 11.6 28.95 Q10.65 30.05 9.85 31.3 8.5 33.15 7.5 35.2 L6.7 36.9 4.7 39.4 M-27.65 -16.55 L-27.85 -17.1 -27.25 -16.35 -27.65 -16.55 M-26.95 -19.55 L-25.2 -21.0 -24.75 -20.3 -25.75 -18.45 -26.95 -19.55 M-24.0 -23.15 L-22.7 -25.3 Q-20.1 -29.35 -15.45 -30.65 L-15.05 -30.45 -10.7 -34.85 -10.75 -34.05 -5.2 -32.85 -7.35 -31.25 -3.7 -31.15 -2.3 -29.75 -1.5 -30.25 0.7 -28.4 Q4.4 -22.2 -3.75 -24.8 L-5.05 -27.25 -5.8 -25.05 Q-5.95 -24.5 -6.6 -24.55 L-9.3 -27.45 -5.4 -29.25 -5.8 -29.8 Q-9.55 -30.35 -13.3 -29.1 L-15.05 -28.4 -15.55 -28.1 -16.55 -27.25 -19.6 -27.15 -20.55 -25.0 -13.65 -23.8 -20.6 -19.25 -21.3 -20.0 -20.05 -21.9 -21.8 -22.95 -23.55 -22.35 -24.0 -23.15 M-5.1 -35.3 L-1.95 -36.75 -2.0 -32.5 -5.1 -35.3 M5.0 -25.35 L4.6 -26.25 5.65 -28.1 Q6.1 -27.4 6.7 -26.8 8.6 -24.95 10.55 -27.35 L12.55 -26.95 12.65 -26.9 11.65 -25.9 11.0 -26.15 10.45 -25.0 7.25 -23.35 6.85 -23.6 Q5.5 -24.05 5.0 -25.35 M17.65 -16.7 L18.0 -17.35 17.6 -16.1 19.65 -14.35 20.05 -14.55 19.0 -13.05 16.8 -14.2 17.15 -15.5 17.65 -16.7 M16.9 -19.45 Q16.45 -18.35 15.15 -18.1 13.35 -18.1 12.25 -19.5 L13.35 -21.6 13.6 -21.75 13.35 -20.2 13.95 -19.45 16.05 -19.35 17.3 -20.55 16.9 -19.45 M14.35 -28.4 L14.2 -29.0 15.7 -28.05 14.35 -28.4 M17.45 -20.95 L17.35 -22.2 23.1 -21.1 24.45 -20.55 23.35 -18.35 17.45 -20.95 M4.75 0.95 L10.9 8.45 9.35 9.1 9.2 9.15 7.7 7.6 Q5.05 4.65 4.75 0.95 M5.55 12.9 L6.5 14.1 12.6 9.35 12.35 8.3 14.0 11.4 12.15 13.4 10.5 15.2 9.6 15.7 Q7.3 16.35 5.5 14.8 L5.55 12.9 M18.5 -10.9 L19.45 -10.3 20.35 -10.45 21.85 -14.75 Q21.95 -14.3 21.3 -11.15 20.65 -8.0 18.85 -9.55 L18.5 -10.9 M12.75 2.45 L12.85 3.2 Q14.75 5.1 17.1 4.05 L17.75 2.7 Q17.7 4.8 16.95 6.1 16.15 7.4 15.15 7.3 14.35 7.2 13.75 6.35 L13.4 5.75 Q12.7 4.3 12.75 2.45 M-9.0 11.9 Q-9.3 11.2 -9.25 10.25 -7.45 13.5 -5.2 10.95 L-4.65 10.25 -4.2 11.55 -4.35 11.9 -5.2 13.5 -6.1 13.55 Q-7.35 13.55 -8.1 13.05 L-8.6 12.6 -9.0 11.9 M14.4 20.15 L14.7 20.2 13.95 20.15 14.4 20.15 M6.65 26.5 L7.25 27.95 7.25 28.0 7.25 28.5 6.5 30.0 5.7 30.1 Q2.4 30.9 1.9 27.25 3.75 29.5 5.2 28.7 L6.3 27.5 6.35 27.35 6.65 26.5 M-2.55 26.0 Q-2.6 25.5 -3.1 24.95 -3.6 24.4 -4.4 24.1 L-4.65 23.4 -4.2 22.15 Q-4.2 23.3 -3.65 24.2 -3.15 25.05 -2.35 25.1 -1.55 25.15 -0.95 24.35 -0.35 23.55 -0.35 22.3 0.5 25.05 -1.95 25.8 L-2.55 26.0 M-10.75 -27.25 L-10.9 -26.55 -10.45 -25.5 -12.8 -24.25 -16.2 -27.1 -13.25 -28.7 -12.7 -27.7 -10.75 -27.25 M-14.4 -19.0 L-14.4 -17.7 Q-15.75 -16.1 -17.4 -17.4 L-18.0 -17.95 -18.1 -19.3 -17.7 -20.15 -17.65 -18.95 Q-16.35 -17.8 -15.05 -18.5 L-14.4 -19.0 M-11.3 -12.95 L-12.5 -10.9 -12.2 -10.05 -11.45 -9.8 Q-8.65 -12.8 -9.35 -16.65 L-9.75 -18.45 -8.35 -18.95 -6.6 -17.8 -5.6 -17.9 -4.65 -19.05 -4.75 -17.4 -5.4 -16.85 -6.1 -16.8 Q-7.8 -17.15 -9.0 -18.6 -8.3 -13.6 -10.0 -9.15 L-12.2 -9.05 -12.7 -9.5 -12.6 -10.6 Q-12.35 -11.9 -11.3 -12.95 M-7.45 30.65 Q-7.05 29.1 -10.85 28.7 L-12.3 28.65 -12.55 29.4 -11.8 30.35 -9.85 30.75 -7.45 30.65" fill="#990000" fill-rule="evenodd" stroke="none"/>
      <path d="M3.35 -37.5 L10.05 -33.9 9.8 -32.05 9.0 -31.65 6.8 -32.4 7.3 -33.5 3.35 -37.5 M12.55 -32.75 L12.6 -32.75 13.3 -31.75 13.25 -30.85 16.1 -29.6 Q18.2 -28.7 18.85 -26.6 L22.0 -25.1 13.7 -26.85 14.35 -28.4 15.7 -28.05 14.2 -29.0 14.1 -29.05 11.0 -31.25 11.65 -33.05 12.55 -32.75 M23.1 -23.0 L25.25 -22.25 24.45 -20.55 23.1 -21.1 17.35 -22.2 17.45 -20.95 17.3 -20.55 16.05 -19.35 13.95 -19.45 13.35 -20.2 13.6 -21.75 15.4 -22.9 17.05 -22.7 17.6 -23.15 23.1 -23.0 M25.7 -21.85 L26.3 -20.85 25.8 -20.35 25.25 -20.35 25.7 -21.85 M-2.35 37.2 Q-3.85 36.25 -4.95 34.85 L-6.5 32.95 -7.0 32.0 Q-6.05 32.2 -5.1 32.55 L-4.3 33.05 -3.05 34.2 0.8 35.55 Q2.6 36.35 4.35 37.4 L3.75 38.6 3.2 38.65 -2.7 34.7 -1.45 37.15 -2.35 37.2 M-10.7 -34.85 L-9.75 -35.5 -5.1 -35.3 -2.0 -32.5 0.15 -31.75 1.4 -31.05 2.35 -31.25 2.25 -30.4 1.85 -30.1 1.8 -29.6 0.7 -28.4 -1.5 -30.25 -2.3 -29.75 -3.7 -31.15 -7.35 -31.25 -5.2 -32.85 -10.75 -34.05 -10.7 -34.85 M5.65 -28.1 L6.45 -28.85 8.0 -29.1 8.15 -29.15 10.5 -27.7 12.55 -28.6 13.85 -28.6 12.65 -26.9 12.55 -26.95 10.55 -27.35 Q8.6 -24.95 6.7 -26.8 6.1 -27.4 5.65 -28.1 M18.0 -17.35 L18.85 -17.8 20.65 -17.65 21.45 -17.25 21.6 -16.8 21.95 -16.55 21.9 -15.65 21.85 -14.75 20.35 -10.45 19.45 -10.3 18.5 -10.9 18.25 -11.6 19.0 -13.05 20.05 -14.55 19.65 -14.35 17.6 -16.1 18.0 -17.35 M4.75 0.95 L6.0 -1.7 7.65 -0.9 9.25 0.75 10.0 1.85 10.25 2.3 12.15 6.15 12.75 7.4 12.35 8.3 12.6 9.35 6.5 14.1 5.55 12.9 Q5.55 12.35 5.7 11.85 5.95 10.95 6.65 10.25 7.7 9.15 9.2 9.15 L9.35 9.1 10.9 8.45 4.75 0.95 M17.75 2.7 L17.1 4.05 Q14.75 5.1 12.85 3.2 L12.75 2.45 13.65 1.65 14.65 0.65 16.8 0.9 17.75 2.7 M-9.25 10.25 L-8.9 9.75 Q-7.15 7.6 -4.75 9.5 L-4.65 10.25 -5.2 10.95 Q-7.45 13.5 -9.25 10.25 M14.7 20.2 L15.6 20.45 16.0 20.85 16.1 21.6 16.0 22.25 15.0 22.65 Q13.6 23.25 12.3 22.25 L12.3 20.95 13.95 20.15 14.7 20.2 M3.05 25.2 L4.05 25.2 5.9 25.6 Q6.65 25.95 6.65 26.5 L6.35 27.35 6.3 27.5 5.2 28.7 Q3.75 29.5 1.9 27.25 2.4 30.9 5.7 30.1 L6.5 30.0 7.25 28.5 7.5 28.1 7.5 28.05 8.35 26.7 Q7.4 24.75 6.95 22.45 L6.7 20.9 7.15 20.9 Q7.25 19.0 13.25 27.15 L13.9 27.3 10.0 35.05 6.7 36.9 7.5 35.2 Q8.5 33.15 9.85 31.3 10.65 30.05 11.6 28.95 L11.9 28.5 11.35 28.5 10.9 28.45 9.75 27.6 9.5 28.55 Q9.5 29.4 8.95 30.0 8.4 30.6 7.65 30.6 L8.25 30.85 8.85 31.05 7.55 31.75 5.5 31.25 Q5.2 30.45 3.95 31.35 L3.8 31.4 3.7 31.45 3.6 31.55 Q2.65 32.05 1.75 32.7 L0.55 33.75 Q-0.7 33.15 -2.0 32.5 L-2.55 32.65 -3.05 32.4 Q-4.25 31.35 -5.0 29.9 L-4.45 27.8 -4.95 26.75 -7.4 25.25 -8.25 25.55 -9.05 25.5 -9.45 26.0 -11.55 26.05 -11.95 25.35 -12.15 24.0 -11.9 23.1 -10.4 22.7 Q-6.85 22.35 -4.4 24.1 -3.6 24.4 -3.1 24.95 -2.6 25.5 -2.55 26.0 -1.75 27.1 1.9 27.2 1.9 26.35 2.25 25.8 2.55 25.2 3.05 25.2 M16.2 23.7 L17.55 24.35 17.55 25.35 17.15 26.05 15.45 26.25 14.75 25.75 16.2 23.7 M18.55 27.25 L18.8 27.8 18.15 28.55 Q16.85 29.95 15.0 29.85 L15.5 29.0 17.3 27.05 18.1 26.95 18.55 27.25 M-13.65 -23.8 L-20.55 -25.0 -19.6 -27.15 -16.55 -27.25 -15.55 -28.1 -15.05 -28.4 -13.3 -29.1 Q-9.55 -30.35 -5.8 -29.8 L-5.4 -29.25 -9.3 -27.45 Q-9.3 -28.35 -9.55 -28.8 -9.8 -29.25 -10.1 -29.15 L-10.6 -28.45 -10.75 -27.25 -12.7 -27.7 -13.25 -28.7 -16.2 -27.1 -12.8 -24.25 Q-13.2 -24.0 -13.65 -23.8 M-14.55 -20.9 L-14.1 -19.75 -14.4 -19.0 -15.05 -18.5 Q-16.35 -17.8 -17.65 -18.95 L-17.7 -20.15 Q-16.15 -21.9 -14.55 -20.9 M-21.3 -20.0 L-23.55 -22.35 -21.8 -22.95 -20.05 -21.9 -21.3 -20.0 M-12.6 -17.1 L-13.05 -19.6 -12.3 -19.95 -7.85 -20.35 -5.0 -20.0 -4.65 -19.05 -5.6 -17.9 -6.6 -17.8 -8.35 -18.95 -9.75 -18.45 -9.35 -16.65 Q-8.65 -12.8 -11.45 -9.8 L-12.2 -10.05 -12.5 -10.9 -11.3 -12.95 -12.6 -17.1 M-0.35 22.3 Q-0.35 23.55 -0.95 24.35 -1.55 25.15 -2.35 25.1 -3.15 25.05 -3.65 24.2 -4.2 23.3 -4.2 22.15 -3.2 21.2 -1.85 21.05 L-1.5 21.1 -0.35 22.3 M-7.45 30.65 L-9.85 30.75 -11.8 30.35 -12.55 29.4 -12.3 28.65 -10.85 28.7 Q-7.05 29.1 -7.45 30.65" fill="#ff0000" fill-rule="evenodd" stroke="none"/>
      <path d="M20.4 22.85 L19.65 24.9 17.55 26.15 17.55 25.35 17.55 24.35 16.2 23.7 16.0 22.25 16.1 21.6 16.0 20.85 15.6 20.45 15.95 20.6 16.0 20.6 18.2 21.4 Q19.2 21.75 20.4 22.85 M19.65 24.95 Q19.3 25.8 19.35 27.25 L19.25 27.2 19.25 27.35 19.25 27.65 18.55 27.25 18.1 26.95 18.25 26.75 18.3 26.75 19.65 24.95 M-17.6 20.6 L-17.9 19.85 -18.1 19.25 -14.3 18.4 Q-11.95 18.0 -8.75 18.35 L-5.95 18.65 Q-4.45 18.95 -3.95 19.55 L-1.0 19.85 Q-0.9 18.55 0.2 17.05 L1.75 14.6 2.1 17.25 2.2 20.2 4.9 20.0 11.4 19.8 11.95 19.85 14.15 20.1 14.4 20.15 13.95 20.15 12.3 20.95 11.9 23.4 14.15 24.3 14.55 26.7 13.9 27.3 13.25 27.15 Q7.25 19.0 7.15 20.9 L6.7 20.9 6.95 22.45 Q7.4 24.75 8.35 26.7 L7.5 28.05 7.5 28.1 7.25 28.0 7.25 27.95 6.65 26.5 Q6.65 25.95 5.9 25.6 L4.05 25.2 3.05 23.15 2.9 24.65 3.05 25.2 Q2.55 25.2 2.25 25.8 1.9 26.35 1.9 27.2 -1.75 27.1 -2.55 26.0 L-1.95 25.8 Q0.5 25.05 -0.35 22.3 L-1.5 21.1 -1.85 21.05 Q-3.2 21.2 -4.2 22.15 L-4.65 23.4 -4.4 24.1 Q-6.85 22.35 -10.4 22.7 L-11.9 23.1 -12.65 23.8 -13.75 23.3 -16.5 21.35 -17.6 20.15 -17.6 20.6 M5.0 -25.35 L4.6 -25.5 2.85 -24.4 2.65 -23.55 Q2.65 -22.9 2.0 -22.4 1.3 -21.95 0.35 -21.95 L-2.3 -22.0 -3.3 -22.6 -6.6 -24.55 Q-5.95 -24.5 -5.8 -25.05 L-5.05 -27.25 -3.75 -24.8 Q4.4 -22.2 0.7 -28.4 L1.8 -29.6 Q4.2 -26.1 4.7 -29.85 5.2 -28.7 8.0 -29.1 L6.45 -28.85 5.65 -28.1 4.6 -26.25 5.0 -25.35 M20.65 -17.65 L16.9 -19.45 17.3 -20.55 17.45 -20.95 23.35 -18.35 21.85 -17.1 21.45 -17.25 20.65 -17.65 M13.35 -21.6 L12.55 -21.85 13.1 -25.35 15.25 -25.0 15.4 -22.9 13.6 -21.75 13.35 -21.6 M11.65 -25.9 L10.45 -25.0 11.0 -26.15 11.65 -25.9 M26.4 -18.3 L26.65 -18.15 26.75 -18.05 26.4 -18.3 M11.35 28.5 L9.85 28.6 9.5 28.55 9.75 27.6 10.9 28.45 11.35 28.5 M-4.95 26.75 L-4.45 27.8 -5.0 29.9 Q-6.8 27.8 -9.3 27.4 L-10.5 27.25 -9.15 27.05 -8.55 26.5 -6.3 26.55 -4.95 26.75 M-10.45 -25.5 Q-10.45 -23.6 -11.65 -22.25 -12.85 -20.9 -14.55 -20.9 -16.15 -21.9 -17.7 -20.15 L-18.1 -19.3 -19.9 -18.6 -20.6 -19.25 -13.65 -23.8 Q-13.2 -24.0 -12.8 -24.25 L-10.45 -25.5" fill="#ffcc99" fill-rule="evenodd" stroke="none"/>
      <path d="M25.25 -22.25 L25.75 -22.75 25.7 -21.85 25.25 -20.35 26.4 -18.3 26.75 -18.05 27.0 -18.1 29.2 -20.15 29.45 -20.2 Q29.95 -19.25 29.15 -18.25 L28.8 -17.75 28.25 -13.8 27.7 -13.6 27.8 -8.5 25.65 -13.0 24.4 -14.55 24.05 -12.5 23.05 -14.5 21.9 -15.65 21.95 -16.55 21.6 -16.8 21.45 -17.25 21.85 -17.1 23.35 -18.35 24.45 -20.55 25.25 -22.25 M-27.85 -17.1 L-30.3 -20.25 -29.55 -20.55 Q-27.95 -20.65 -26.95 -19.55 L-25.75 -18.45 -24.75 -20.3 -25.2 -21.0 -27.75 -24.25 -27.65 -24.75 -25.85 -23.9 -26.25 -28.65 -24.0 -23.15 -23.55 -22.35 -21.3 -20.0 -20.6 -19.25 -19.9 -18.6 -18.1 -19.3 -18.0 -17.95 -17.4 -17.4 Q-15.75 -16.1 -14.4 -17.7 L-14.4 -19.0 -14.1 -19.75 -14.55 -20.9 Q-12.85 -20.9 -11.65 -22.25 -10.45 -23.6 -10.45 -25.5 L-10.9 -26.55 -10.75 -27.25 -10.6 -28.45 -10.1 -29.15 Q-9.8 -29.25 -9.55 -28.8 -9.3 -28.35 -9.3 -27.45 L-6.6 -24.55 -3.3 -22.6 -5.9 -21.85 -6.95 -22.5 -7.85 -20.35 -12.3 -19.95 -13.05 -19.6 -12.6 -17.1 -13.85 -15.6 -14.35 -16.0 -16.25 -15.4 -16.75 -11.8 Q-19.25 -10.8 -19.3 -13.6 -19.35 -15.0 -18.15 -16.15 L-21.5 -17.75 -22.7 -17.15 -23.95 -17.85 -23.9 -14.05 -25.45 -16.1 -26.75 -15.65 -27.25 -16.35 -27.85 -17.1 M2.85 -24.4 L4.6 -25.5 5.0 -25.35 Q5.5 -24.05 6.85 -23.6 L7.25 -23.35 10.45 -25.0 11.65 -25.9 12.65 -26.9 13.85 -28.6 14.1 -29.05 14.2 -29.0 14.35 -28.4 13.7 -26.85 13.1 -25.35 12.55 -21.85 13.35 -21.6 12.25 -19.5 Q13.35 -18.1 15.15 -18.1 16.45 -18.35 16.9 -19.45 L20.65 -17.65 18.85 -17.8 18.0 -17.35 17.65 -16.7 14.9 -15.75 13.25 -16.75 10.25 -10.8 8.65 -12.5 8.75 -16.2 Q8.75 -18.25 7.6 -20.05 6.6 -21.5 5.25 -22.3 L4.7 -22.25 3.9 -20.5 5.0 -18.2 4.7 -17.3 Q4.7 -16.75 4.35 -16.35 3.95 -16.0 3.4 -16.0 0.35 -16.85 0.9 -19.85 L1.05 -20.6 2.8 -22.95 2.85 -24.4 M6.7 -8.95 L6.65 -9.4 6.75 -9.5 6.7 -8.95 M5.7 11.85 Q5.55 12.35 5.55 12.9 L5.5 14.8 Q7.3 16.35 9.6 15.7 L10.5 15.2 12.15 13.4 Q16.9 12.25 19.35 8.05 L19.7 7.3 20.25 8.5 17.05 16.25 17.4 16.65 18.0 16.75 17.9 17.55 17.8 18.4 12.8 17.35 11.75 17.3 9.0 17.3 4.35 17.85 4.0 13.5 4.15 13.5 4.25 12.7 4.25 12.5 4.2 12.1 5.7 11.85 M12.15 6.15 L10.25 2.3 12.25 -1.75 12.75 -1.75 13.65 1.65 12.75 2.45 Q12.7 4.3 13.4 5.75 L13.75 6.35 12.15 6.15 M16.05 -7.15 Q15.2 -7.15 14.6 -7.75 14.0 -8.35 14.0 -9.2 14.0 -10.05 14.6 -10.65 15.2 -11.25 16.05 -11.25 16.9 -11.25 17.5 -10.65 18.1 -10.05 18.1 -9.2 18.1 -8.35 17.5 -7.75 16.9 -7.15 16.05 -7.15 M0.0 15.15 L-0.25 15.75 -0.95 17.75 -1.1 18.15 -4.8 17.3 -9.1 16.75 Q-9.35 14.15 -11.3 12.6 L-12.4 11.95 Q-13.95 11.25 -14.75 9.8 L-15.05 9.15 -11.9 10.05 -9.0 11.9 -8.6 12.6 -8.1 13.05 Q-7.35 13.55 -6.1 13.55 L-5.2 13.5 -4.35 11.9 -1.25 7.5 -0.4 8.15 -2.75 12.35 -2.5 14.25 -0.4 14.3 0.0 15.15 M-7.65 -15.6 L-5.25 -15.55 -3.75 -14.6 -3.8 -12.6 -5.15 -11.5 -5.8 -9.75 -7.75 -10.3 -7.8 -11.25 -7.2 -12.05 -8.25 -14.4 -7.65 -15.6" fill="#6e2a41" fill-rule="evenodd" stroke="none"/>
      <path d="M-18.9 15.9 L-19.95 15.75 -20.1 7.45 -20.1 4.1 -20.15 2.9 -20.05 2.5 -18.9 -1.15 -17.9 -5.25 -17.1 -9.0 -19.2 -5.4 -20.5 -2.85 -22.25 -11.75 -22.45 -12.95 -22.7 -17.15 -21.5 -17.75 -18.15 -16.15 Q-19.35 -15.0 -19.3 -13.6 -19.25 -10.8 -16.75 -11.8 L-16.25 -15.4 -14.35 -16.0 -13.85 -15.6 -12.6 -17.1 -11.3 -12.95 Q-12.35 -11.9 -12.6 -10.6 L-12.7 -9.5 -12.2 -9.05 -10.0 -9.15 Q-8.3 -13.6 -9.0 -18.6 -7.8 -17.15 -6.1 -16.8 L-5.4 -16.85 -4.75 -17.4 -4.65 -19.05 -5.0 -20.0 -7.85 -20.35 -6.95 -22.5 -5.9 -21.85 -3.3 -22.6 -2.3 -22.0 -2.5 -20.2 Q-2.15 -16.55 -0.65 -11.7 1.1 -6.2 3.65 -1.0 L4.1 1.1 4.75 4.1 5.2 6.6 5.05 8.35 4.6 10.8 4.3 10.75 3.95 7.4 4.15 9.95 4.2 12.1 4.25 12.5 4.25 12.7 4.15 13.5 4.0 13.5 3.95 13.5 3.2 9.3 2.95 7.55 2.95 5.25 2.95 3.5 2.9 2.0 2.4 2.3 Q0.4 -0.85 -2.1 -11.0 -2.3 -10.8 -2.5 -10.7 L-3.1 -5.75 -3.9 0.0 Q-4.0 1.1 -5.25 4.1 L-5.4 4.45 Q-6.75 7.5 -7.4 8.5 -7.3 8.3 -7.35 7.75 L-7.4 6.95 -6.8 4.95 -6.55 4.1 Q-6.15 2.75 -6.05 1.8 L-6.15 -2.6 -5.95 -4.2 Q-7.6 -0.9 -8.8 1.05 L-9.4 4.1 Q-10.15 6.7 -11.5 8.6 L-11.5 8.45 -11.8 9.65 -11.9 10.05 -15.05 9.15 -14.75 9.8 Q-13.95 11.25 -12.4 11.95 L-12.55 12.45 Q-12.85 12.65 -11.85 13.25 L-10.05 14.2 -11.95 14.35 -16.4 14.75 -19.2 15.6 Q-19.55 15.75 -18.75 15.9 L-18.9 15.9 M0.35 -21.95 Q1.3 -21.95 2.0 -22.4 2.65 -22.9 2.65 -23.55 L2.8 -22.95 1.05 -20.6 0.35 -21.95 M3.4 -16.0 Q3.95 -16.0 4.35 -16.35 4.7 -16.75 4.7 -17.3 L5.1 -16.45 5.4 -12.8 5.3 -9.95 Q4.75 -12.85 3.4 -16.0 M5.25 -22.3 Q6.6 -21.5 7.6 -20.05 8.75 -18.25 8.75 -16.2 L8.65 -12.5 10.25 -10.8 13.25 -16.75 14.9 -15.75 17.65 -16.7 17.15 -15.5 16.8 -14.2 19.0 -13.05 18.25 -11.6 18.5 -10.9 18.85 -9.55 Q20.65 -8.0 21.3 -11.15 21.95 -14.3 21.85 -14.75 L21.9 -15.65 23.05 -14.5 24.05 -12.5 24.4 -14.55 25.65 -13.0 25.5 -12.95 25.25 -8.45 24.4 2.8 24.25 4.1 23.05 9.3 Q21.85 13.75 21.6 15.95 L21.4 18.4 21.5 19.1 20.35 18.9 20.65 18.9 21.1 18.95 Q20.5 18.45 17.9 17.55 L18.0 16.75 17.4 16.65 17.05 16.25 20.25 8.5 19.7 7.3 19.35 8.05 Q16.9 12.25 12.15 13.4 L14.0 11.4 12.35 8.3 12.75 7.4 12.15 6.15 13.75 6.35 Q14.35 7.2 15.15 7.3 16.15 7.4 16.95 6.1 17.7 4.8 17.75 2.7 L16.8 0.9 14.65 0.65 13.65 1.65 12.75 -1.75 12.25 -1.75 10.25 2.3 10.0 1.85 10.15 1.3 10.5 -0.6 10.5 -4.1 10.45 -4.2 Q10.3 -2.4 9.4 0.15 L9.35 0.35 9.25 0.75 7.65 -0.9 7.75 -2.8 7.4 -3.6 6.9 -6.3 6.7 -8.95 6.75 -9.5 6.65 -9.4 6.25 -13.65 6.8 -12.2 7.05 -11.55 6.8 -15.1 5.65 -20.2 5.25 -22.3 M16.05 -7.15 Q16.9 -7.15 17.5 -7.75 18.1 -8.35 18.1 -9.2 18.1 -10.05 17.5 -10.65 16.9 -11.25 16.05 -11.25 15.2 -11.25 14.6 -10.65 14.0 -10.05 14.0 -9.2 14.0 -8.35 14.6 -7.75 15.2 -7.15 16.05 -7.15 M-7.65 -15.6 L-8.25 -14.4 -7.2 -12.05 -7.8 -11.25 -7.75 -10.3 -5.8 -9.75 -5.15 -11.5 -3.8 -12.6 -3.75 -14.6 -5.25 -15.55 -7.65 -15.6 M-14.25 5.8 L-14.3 6.85 -14.1 5.8 -14.25 5.8" fill="#435584" fill-rule="evenodd" stroke="none"/>
      <path d="M-2.3 -22.0 L0.35 -21.95 1.05 -20.6 0.9 -19.85 Q0.35 -16.85 3.4 -16.0 4.75 -12.85 5.3 -9.95 L5.4 -12.8 5.1 -16.45 4.7 -17.3 5.0 -18.2 3.9 -20.5 4.7 -22.25 5.25 -22.3 5.65 -20.2 6.8 -15.1 7.05 -11.55 6.8 -12.2 6.25 -13.65 6.65 -9.4 6.7 -8.95 6.9 -6.3 7.4 -3.6 7.75 -2.8 7.65 -0.9 6.0 -1.7 4.75 0.95 Q5.05 4.65 7.7 7.6 L9.2 9.15 Q7.7 9.15 6.65 10.25 5.95 10.95 5.7 11.85 L4.2 12.1 4.15 9.95 3.95 7.4 4.3 10.75 4.6 10.8 5.05 8.35 5.2 6.6 4.75 4.1 4.1 1.1 3.65 -1.0 Q1.1 -6.2 -0.65 -11.7 -2.15 -16.55 -2.5 -20.2 L-2.3 -22.0 M2.65 -23.55 L2.85 -24.4 2.8 -22.95 2.65 -23.55 M10.0 1.85 L9.25 0.75 9.35 0.35 9.4 0.15 Q10.3 -2.4 10.45 -4.2 L10.5 -4.1 10.5 -0.6 10.15 1.3 10.0 1.85 M20.35 18.9 L17.8 18.4 17.9 17.55 Q20.5 18.45 21.1 18.95 L20.65 18.9 20.35 18.9 M2.95 7.55 L2.85 7.55 1.0 12.45 0.0 15.15 -0.4 14.3 -2.5 14.25 -2.75 12.35 -0.4 8.15 -1.25 7.5 -4.35 11.9 -4.2 11.55 -4.65 10.25 -4.75 9.5 Q-7.15 7.6 -8.9 9.75 L-9.25 10.25 Q-9.3 11.2 -9.0 11.9 L-11.9 10.05 -11.8 9.65 -11.5 8.45 -11.5 8.6 Q-10.15 6.7 -9.4 4.1 L-8.8 1.05 Q-7.6 -0.9 -5.95 -4.2 L-6.15 -2.6 -6.05 1.8 Q-6.15 2.75 -6.55 4.1 L-6.8 4.95 -7.4 6.95 -7.35 7.75 Q-7.3 8.3 -7.4 8.5 -6.75 7.5 -5.4 4.45 L-5.25 4.1 Q-4.0 1.1 -3.9 0.0 L-3.1 -5.75 -2.5 -10.7 Q-2.3 -10.8 -2.1 -11.0 0.4 -0.85 2.4 2.3 L2.9 2.0 2.95 3.5 2.95 5.25 2.95 7.55 M-9.1 16.75 L-9.85 16.6 -14.75 16.1 -17.25 16.05 -18.45 15.95 -18.6 15.95 -18.75 15.9 Q-19.55 15.75 -19.2 15.6 L-16.4 14.75 -11.95 14.35 -10.05 14.2 -11.85 13.25 Q-12.85 12.65 -12.55 12.45 L-12.4 11.95 -11.3 12.6 Q-9.35 14.15 -9.1 16.75" fill="#404d7b" fill-rule="evenodd" stroke="none"/>
      <path d="M26.8 -18.85 L27.0 -18.1 26.75 -18.05 26.65 -18.15 26.8 -18.85 M27.8 -8.5 L27.8 -8.45 Q27.55 -1.8 26.3 4.1 L26.25 4.45 25.65 6.9 25.0 9.5 Q23.8 13.95 23.65 15.35 L23.2 19.5 21.5 19.1 21.4 18.4 21.6 15.95 Q21.85 13.75 23.05 9.3 L24.25 4.1 24.4 2.8 25.25 -8.45 25.5 -12.95 25.65 -13.0 27.8 -8.5 M-19.95 15.75 L-21.5 15.4 -23.55 14.7 -23.55 12.9 -22.95 4.1 -22.75 2.4 -22.6 0.7 -23.35 -1.9 -24.95 -7.35 -26.85 -12.45 -27.05 -12.95 -27.65 -16.55 -27.25 -16.35 -26.75 -15.65 -25.45 -16.1 -23.9 -14.05 -23.95 -17.85 -22.7 -17.15 -22.45 -12.95 -22.25 -11.75 -20.5 -2.85 -19.2 -5.4 -17.1 -9.0 -17.9 -5.25 -18.9 -1.15 -20.05 2.5 -20.15 2.9 -20.1 4.1 -20.1 7.45 -19.95 15.75" fill="#4f689e" fill-rule="evenodd" stroke="none"/>
      <path d="M21.5 19.1 Q20.55 21.8 20.5 22.55 L20.4 22.85 Q19.2 21.75 18.2 21.4 L16.0 20.6 15.95 20.6 15.6 20.45 14.7 20.2 14.4 20.15 14.15 20.1 11.95 19.85 11.4 19.8 4.9 20.0 2.2 20.2 2.1 17.25 1.75 14.6 0.2 17.05 Q-0.9 18.55 -1.0 19.85 L-3.95 19.55 Q-4.45 18.95 -5.95 18.65 L-8.75 18.35 Q-11.95 18.0 -14.3 18.4 L-18.1 19.25 -18.35 18.55 -18.9 15.9 -18.75 15.9 -18.6 15.95 -18.45 15.95 -17.25 16.05 -14.75 16.1 -9.85 16.6 -9.1 16.75 -4.8 17.3 -1.1 18.15 -0.95 17.75 -0.25 15.75 0.0 15.15 1.0 12.45 2.85 7.55 2.95 7.55 3.2 9.3 3.95 13.5 4.0 13.5 4.35 17.85 9.0 17.3 11.75 17.3 12.8 17.35 17.8 18.4 20.35 18.9 21.5 19.1" fill="#e2b181" fill-rule="evenodd" stroke="none"/>
      <path d="M19.65 24.9 L19.65 24.95 18.3 26.75 18.25 26.75 18.1 26.95 17.3 27.05 17.55 26.15 19.65 24.9 M-14.7 26.5 L-14.95 26.3 -16.5 24.15 -17.35 22.1 -17.6 20.6 -17.6 20.15 -16.5 21.35 -13.75 23.3 -12.65 23.8 -12.65 23.85 -12.9 26.2 -11.25 27.15 -11.3 27.15 -14.7 26.5 M3.05 25.2 L2.9 24.65 3.05 23.15 4.05 25.2 3.05 25.2 M7.25 28.0 L7.5 28.1 7.25 28.5 7.25 28.0 M11.35 28.5 L11.9 28.5 11.6 28.95 8.85 31.05 8.25 30.85 7.65 30.6 Q8.4 30.6 8.95 30.0 9.5 29.4 9.5 28.55 L9.85 28.6 11.35 28.5 M-8.25 25.55 L-7.4 25.25 -4.95 26.75 -6.3 26.55 -8.55 26.5 -8.25 25.55" fill="#ebbb98" fill-rule="evenodd" stroke="none"/>
      <path d="M-14.25 5.8 L-14.1 5.8 -14.3 6.85 -14.25 5.8" fill="#37426a" fill-rule="evenodd" stroke="none"/>
    </g>
  </defs>
</svg>
