<?xml version="1.0" encoding="UTF-8" standalone="no"?>
<svg xmlns:ffdec="https://www.free-decompiler.com/flash" xmlns:xlink="http://www.w3.org/1999/xlink" ffdec:objectType="frame" height="23.1px" width="18.05px" xmlns="http://www.w3.org/2000/svg">
  <g transform="matrix(1.0, 0.0, 0.0, 1.0, 9.9, 13.05)">
    <use ffdec:characterId="1585" height="23.1" transform="matrix(1.0, 0.0, 0.0, 1.0, -9.9, -13.05)" width="18.05" xlink:href="#shape0"/>
  </g>
  <defs>
    <g id="shape0" transform="matrix(1.0, 0.0, 0.0, 1.0, 9.9, 13.05)">
      <path d="M2.1 -13.0 L2.65 -13.05 Q3.75 -13.0 4.05 -12.2 L3.85 -11.15 Q3.6 -10.7 3.25 -10.7 L2.55 -11.5 1.95 -11.6 1.45 -12.05 -1.35 -10.3 0.3 -9.2 0.1 -8.9 0.3 -8.7 1.95 -7.4 2.4 -7.0 Q3.0 -6.45 2.7 -5.75 1.75 -5.2 0.65 -5.35 -0.05 -5.45 -0.35 -6.15 L-0.2 -7.55 -0.15 -7.6 -0.8 -8.5 -1.15 -8.9 -3.45 -8.55 -5.55 -7.55 -5.95 -7.7 -3.5 -10.05 -4.55 -10.15 -0.45 -12.0 0.4 -12.4 1.45 -12.85 2.1 -13.0 M-7.95 2.5 Q-9.85 1.2 -9.9 0.3 L-9.55 -2.2 -8.05 -3.55 -8.2 -1.7 -7.9 1.15 -7.95 2.5 M0.6 6.5 Q0.55 6.95 0.15 6.65 -0.7 6.1 -1.8 6.1 L-3.05 6.45 Q-4.4 6.3 -5.55 5.45 -5.25 5.15 -4.85 5.0 L-1.45 4.9 Q-1.0 5.4 -0.35 5.4 L0.6 6.5 M-2.15 2.85 L-2.2 3.85 -4.8 4.55 -5.3 3.4 -5.15 2.85 -4.7 2.45 -3.65 2.2 Q-2.5 2.15 -2.15 2.85 M-3.85 -4.65 L-3.95 -3.25 -6.95 -3.25 -7.0 -3.55 Q-6.95 -5.75 -4.85 -5.35 -4.0 -5.2 -3.85 -4.65" fill="#ff0000" fill-rule="evenodd" stroke="none"/>
      <path d="M1.45 -12.85 L1.45 -13.05 2.1 -13.0 1.45 -12.85 M5.25 8.15 L5.2 9.0 Q4.55 9.7 3.7 10.05 L-0.5 9.65 3.75 9.7 4.0 9.1 3.95 8.8 1.55 8.7 0.8 9.2 0.8 8.55 -0.15 8.4 -0.1 9.05 -2.2 8.9 Q-4.05 7.7 -5.45 5.9 -6.1 5.05 -6.15 3.95 L-6.55 3.9 -7.95 2.5 -7.9 1.15 -8.2 -1.7 -8.05 -3.55 -9.55 -2.2 -9.25 -2.65 Q-8.0 -4.05 -8.0 -5.8 L-8.0 -5.85 -7.6 -7.15 Q-6.7 -9.2 -4.55 -10.15 L-3.5 -10.05 -5.95 -7.7 -5.55 -7.55 -3.45 -8.55 -1.15 -8.9 -0.8 -8.5 -2.8 -7.15 -3.1 -6.95 -4.85 -5.35 Q-6.95 -5.75 -7.0 -3.55 L-6.95 -3.25 -3.95 -3.25 -3.85 -4.65 -3.4 -4.2 Q-3.4 -3.55 -3.55 -2.95 L-3.9 -2.2 -5.85 -2.3 -5.95 -2.45 Q-6.4 -1.25 -6.4 0.2 L-6.45 1.0 -4.7 2.45 -5.15 2.85 -5.3 3.4 -4.8 4.55 -2.2 3.85 -2.15 2.85 Q-2.15 3.9 -1.6 4.65 L-1.45 4.9 -4.85 5.0 Q-5.25 5.15 -5.55 5.45 -4.4 6.3 -3.05 6.45 L-1.8 6.1 Q-0.7 6.1 0.15 6.65 0.55 6.95 0.6 6.5 L1.6 8.15 2.25 8.15 5.25 8.15 M3.25 -10.7 L3.1 -10.5 2.65 -10.1 2.3 -9.8 Q1.3 -9.0 0.3 -8.7 L0.1 -8.9 0.3 -9.2 -1.35 -10.3 1.45 -12.05 1.95 -11.6 2.55 -11.5 3.25 -10.7 M1.95 -7.4 Q3.45 -6.7 3.45 -4.85 L3.3 -3.85 3.3 -3.8 Q3.0 -3.3 1.95 -3.3 L1.3 -3.4 Q0.45 -3.7 -0.05 -4.9 L-0.35 -6.15 Q-0.05 -5.45 0.65 -5.35 1.75 -5.2 2.7 -5.75 3.0 -6.45 2.4 -7.0 L1.95 -7.4" fill="#990000" fill-rule="evenodd" stroke="none"/>
      <path d="M5.9 -4.35 L6.15 -2.4 6.1 -1.75 5.7 -1.0 5.75 -0.35 6.25 1.4 6.45 1.85 7.75 3.2 8.15 4.0 8.15 4.4 Q8.15 5.4 7.7 5.75 L7.3 5.45 Q6.85 5.15 6.5 5.15 6.2 5.15 5.7 5.5 L4.75 5.8 4.05 5.75 Q3.9 5.6 3.7 4.9 3.6 5.8 4.45 6.95 L4.95 7.55 5.1 7.9 5.15 7.9 5.25 8.15 2.25 8.15 2.7 7.5 2.85 7.2 2.85 7.15 3.4 4.65 3.6 4.1 3.15 5.15 2.6 6.25 2.15 7.2 2.1 7.3 1.95 7.6 1.6 8.15 0.6 6.5 -0.35 5.4 Q-1.0 5.4 -1.45 4.9 L-1.6 4.65 Q-2.15 3.9 -2.15 2.85 -2.5 2.15 -3.65 2.2 L-4.7 2.45 -6.45 1.0 -6.4 0.2 -5.85 -1.05 Q-5.05 -1.0 -4.55 -1.35 L-3.5 -1.95 -1.95 -2.55 -2.5 -5.2 -3.1 -6.95 -2.8 -7.15 -1.9 -5.4 -1.3 -2.75 1.3 -3.4 1.95 -3.3 Q3.0 -3.3 3.3 -3.8 L3.8 -3.9 5.9 -4.35 M-2.7 -0.45 L-3.3 -0.15 -0.95 1.4 Q0.15 2.0 0.5 2.6 L0.8 3.4 0.8 3.5 3.3 1.35 3.55 1.0 Q4.05 0.25 4.45 0.0 L4.8 -0.1 Q4.7 -0.2 4.7 -0.85 L4.8 -1.4 4.35 -2.0 4.45 -2.45 Q4.45 -3.05 4.2 -2.8 L3.55 -2.4 1.2 -1.95 -2.5 -0.75 -2.75 -0.65 -2.7 -0.45 M-1.3 -1.6 L-1.2 -1.35 -1.2 -1.5 -1.3 -1.6" fill="#ffcc99" fill-rule="evenodd" stroke="none"/>
      <path d="M7.7 5.75 L6.95 6.0 5.45 6.35 Q4.95 6.6 4.85 6.95 L4.95 7.55 4.45 6.95 Q3.6 5.8 3.7 4.9 3.9 5.6 4.05 5.75 L4.75 5.8 5.7 5.5 Q6.2 5.15 6.5 5.15 6.85 5.15 7.3 5.45 L7.7 5.75 M-2.7 -0.45 L-2.05 -0.4 3.15 -1.5 Q4.1 -1.8 4.35 -2.0 L4.8 -1.4 4.7 -0.85 Q4.7 -0.2 4.8 -0.1 L4.45 0.0 Q4.05 0.25 3.55 1.0 L3.3 1.35 0.8 3.5 0.8 3.4 0.5 2.6 Q0.15 2.0 -0.95 1.4 L-3.3 -0.15 -2.7 -0.45 M2.8 -0.15 L2.65 -0.4 0.55 0.05 1.2 0.75 1.6 1.0 2.15 1.2 2.8 -0.15" fill="#c79b68" fill-rule="evenodd" stroke="none"/>
      <path d="M2.8 -0.15 L2.15 1.2 1.6 1.0 1.2 0.75 0.55 0.05 2.65 -0.4 2.8 -0.15" fill="#000000" fill-rule="evenodd" stroke="none"/>
      <path d="M1.6 8.15 L1.95 7.6 2.1 7.3 2.15 7.2 2.6 6.25 3.15 5.15 3.6 4.1 3.4 4.65 2.85 7.15 2.85 7.2 2.7 7.5 2.25 8.15 1.6 8.15" fill="#ebbb98" fill-rule="evenodd" stroke="none"/>
      <path d="M-0.5 9.65 L-2.25 9.65 -2.2 8.9 -0.1 9.05 -0.15 8.4 0.8 8.55 0.8 9.2 1.55 8.7 3.95 8.8 4.0 9.1 3.75 9.7 -0.5 9.65" fill="#ffffff" fill-rule="evenodd" stroke="none"/>
      <path d="M4.05 -12.2 L4.3 -12.5 4.75 -12.0 6.3 -9.5 6.5 -9.0 Q7.2 -7.1 7.6 -4.5 L5.9 -4.35 3.8 -3.9 3.3 -3.8 3.3 -3.85 3.45 -4.85 Q3.45 -6.7 1.95 -7.4 L0.3 -8.7 Q1.3 -9.0 2.3 -9.8 L2.65 -10.1 3.3 -9.5 3.7 -9.0 3.5 -9.5 3.1 -10.5 3.25 -10.7 Q3.6 -10.7 3.85 -11.15 L4.05 -12.2 M-0.35 -6.15 L-0.05 -4.9 Q0.45 -3.7 1.3 -3.4 L-1.3 -2.75 -1.9 -5.4 -2.8 -7.15 -0.8 -8.5 -0.15 -7.6 -0.2 -7.55 -0.35 -6.15 M3.85 -8.65 L3.85 -8.75 3.75 -8.9 3.85 -8.65 M-6.4 0.2 Q-6.4 -1.25 -5.95 -2.45 L-5.85 -2.3 -3.9 -2.2 -3.55 -2.95 Q-3.4 -3.55 -3.4 -4.2 L-3.85 -4.65 Q-4.0 -5.2 -4.85 -5.35 L-3.1 -6.95 -2.5 -5.2 -1.95 -2.55 -3.5 -1.95 -4.55 -1.35 Q-5.05 -1.0 -5.85 -1.05 L-6.4 0.2" fill="#5b3f23" fill-rule="evenodd" stroke="none"/>
      <path d="M-8.0 -5.8 L-8.05 -5.9 -8.0 -5.85 -8.0 -5.8 M2.65 -10.1 L3.1 -10.5 3.5 -9.5 3.7 -9.0 3.3 -9.5 2.65 -10.1 M4.35 -2.0 Q4.1 -1.8 3.15 -1.5 L-2.05 -0.4 -2.7 -0.45 -2.75 -0.65 -2.5 -0.75 1.2 -1.95 3.55 -2.4 4.2 -2.8 Q4.45 -3.05 4.45 -2.45 L4.35 -2.0 M-1.3 -1.6 L-1.2 -1.5 -1.2 -1.35 -1.3 -1.6" fill="#724f2c" fill-rule="evenodd" stroke="none"/>
    </g>
  </defs>
</svg>
