<?xml version="1.0" encoding="UTF-8" standalone="no"?>
<svg xmlns:ffdec="https://www.free-decompiler.com/flash" xmlns:xlink="http://www.w3.org/1999/xlink" ffdec:objectType="frame" height="36.2px" width="30.95px" xmlns="http://www.w3.org/2000/svg">
  <g transform="matrix(1.0, 0.0, 0.0, 1.0, 14.25, 17.85)">
    <use ffdec:characterId="1507" height="36.2" transform="matrix(1.0, 0.0, 0.0, 1.0, -14.25, -17.85)" width="30.95" xlink:href="#shape0"/>
  </g>
  <defs>
    <g id="shape0" transform="matrix(1.0, 0.0, 0.0, 1.0, 14.25, 17.85)">
      <path d="M16.7 14.9 L16.55 14.65 16.7 14.8 16.7 14.9" fill="#8d8c47" fill-rule="evenodd" stroke="none"/>
      <path d="M3.7 -12.8 L4.8 -12.35 Q5.05 -12.1 4.7 -11.8 L4.7 -11.75 3.5 -11.45 2.7 -11.35 2.4 -11.4 Q2.05 -11.4 1.85 -11.05 1.6 -10.75 1.6 -10.3 L1.65 -8.85 1.6 -8.45 1.55 -8.3 1.4 -8.35 1.25 -8.35 Q2.5 -7.35 3.3 -5.7 4.8 -2.5 4.8 3.55 L4.8 4.0 5.1 3.5 6.45 1.6 6.25 3.95 6.0 4.95 5.3 6.6 5.5 7.0 5.45 7.4 5.45 8.15 5.55 8.4 5.65 8.55 4.65 9.0 4.9 9.55 0.9 10.55 0.85 10.4 Q0.85 9.9 1.1 9.55 1.3 9.2 1.6 9.2 L2.75 9.3 2.25 8.95 2.25 7.45 1.5 7.35 1.25 8.35 1.2 8.35 1.25 8.4 1.25 8.45 0.05 8.35 1.05 6.9 -0.45 6.65 Q-2.35 6.2 -3.0 5.4 L-4.4 6.35 -6.2 4.75 -6.85 4.3 -7.3 2.55 -5.35 2.65 -4.05 3.8 -5.3 0.55 -4.55 -0.45 -4.85 -1.55 -5.35 -1.6 -5.05 -2.1 -3.75 -1.55 Q-2.5 -1.6 -2.1 -2.75 L-2.15 -3.2 Q-2.2 -4.35 -2.95 -5.35 L-2.15 -5.35 -1.8 -5.6 0.3 -4.8 0.0 -3.4 1.6 -1.5 0.95 -0.95 1.15 0.25 3.2 -0.05 3.25 -0.05 2.75 -1.55 3.65 -2.5 3.55 -3.3 Q3.3 -4.55 2.3 -5.55 L1.8 -6.1 -1.45 -5.75 -2.0 -6.05 -2.1 -8.15 -1.85 -8.5 -2.95 -8.7 -4.45 -8.8 Q-6.5 -8.8 -8.45 -8.05 L-8.05 -7.2 -4.95 -6.45 -6.55 -6.55 -8.7 -6.7 -9.15 -6.1 Q-10.6 -6.35 -11.6 -5.25 L-11.85 -5.0 -12.25 -4.5 -12.95 -4.45 -14.2 -2.4 Q-14.45 -4.2 -13.35 -5.35 L-13.15 -6.0 -13.05 -6.8 -12.9 -6.75 -12.6 -6.8 -12.65 -6.95 -12.7 -7.85 -12.65 -8.85 -12.6 -9.35 -11.9 -9.15 -10.6 -9.6 -10.45 -10.05 -9.45 -9.95 -9.05 -9.55 -8.15 -10.05 -8.9 -10.45 -6.1 -13.35 -4.45 -12.8 -3.9 -13.0 -3.05 -12.7 -2.25 -11.4 -1.1 -11.5 -0.7 -12.95 -2.8 -15.2 0.05 -13.45 0.9 -15.45 1.85 -15.45 2.2 -14.15 1.1 -13.4 3.15 -12.9 3.7 -12.8 M8.2 14.3 L7.75 14.8 6.7 15.0 8.2 14.3 M9.2 9.55 L9.6 10.0 8.9 11.9 6.3 12.6 6.05 12.25 7.05 11.9 6.55 11.05 8.25 10.25 9.25 10.2 9.2 9.55 M1.2 2.1 L-0.4 3.7 1.25 3.55 1.75 3.6 2.05 3.05 4.45 3.6 4.3 1.8 1.7 2.15 1.2 2.1 M5.1 11.65 L5.05 12.15 4.7 12.5 5.05 13.1 4.1 13.8 0.35 15.45 2.6 13.2 5.1 11.65 M0.55 16.05 L3.7 15.8 Q2.75 16.75 1.25 16.45 L0.55 16.05 M-10.55 2.2 L-10.85 1.35 -12.65 0.95 -12.65 0.45 -13.05 -0.45 -13.35 -1.55 -13.35 -1.6 -11.9 -1.7 -11.5 -2.4 -9.85 -2.15 -9.9 -2.8 -9.5 -3.3 -8.7 -2.9 -8.35 -2.35 -9.5 -2.05 -10.25 -1.05 -10.25 -0.35 -9.45 -0.25 -9.7 1.4 -10.25 1.5 -10.55 2.2 M-10.6 2.6 L-10.4 3.3 -10.8 2.9 -10.6 2.6 M-3.15 -10.2 L-2.55 -9.45 -1.8 -9.25 -1.4 -10.05 -3.5 -11.7 -5.4 -10.2 -3.6 -9.9 -3.15 -10.2 M-0.8 -1.85 Q-3.6 -1.95 -3.4 0.85 L-3.3 1.35 -2.0 2.1 -1.35 2.4 0.3 0.75 Q0.45 -0.65 -0.5 -1.65 L-0.8 -1.85 M-3.1 7.8 L-1.65 7.15 -1.7 8.05 -3.1 7.8" fill="#990000" fill-rule="evenodd" stroke="none"/>
      <path d="M3.05 -16.1 L3.15 -13.35 3.15 -12.9 1.1 -13.4 2.2 -14.15 1.85 -15.45 0.9 -15.45 0.05 -13.45 -2.8 -15.2 -0.7 -12.95 -1.1 -11.5 -2.25 -11.4 -3.05 -12.7 -3.9 -13.0 -4.45 -12.8 -6.1 -13.35 -8.9 -10.45 -8.15 -10.05 -9.05 -9.55 -9.45 -9.95 -10.45 -10.05 -10.6 -9.6 -11.9 -9.15 -12.6 -9.35 -12.95 -10.1 -12.2 -11.85 Q-9.15 -11.95 -8.4 -14.8 L-8.0 -16.05 -5.95 -15.85 -5.65 -17.6 Q-1.05 -18.5 3.05 -16.1 M-12.05 2.3 L-12.6 1.8 -13.75 -0.75 -14.2 -2.4 -12.95 -4.45 -12.25 -4.5 -11.85 -5.0 -11.6 -5.25 Q-10.6 -6.35 -9.15 -6.1 L-9.5 -3.3 -9.9 -2.8 -9.85 -2.15 -11.5 -2.4 -11.9 -1.7 -13.35 -1.6 -13.35 -1.55 -13.05 -0.45 -12.65 0.45 -12.65 0.95 -10.85 1.35 -10.55 2.2 -10.6 2.6 -10.8 2.9 -12.05 2.3 M7.7 8.35 L7.95 8.65 8.45 8.7 9.2 9.55 9.25 10.2 8.25 10.25 -0.05 11.2 0.9 10.55 4.9 9.55 4.65 9.0 5.65 8.55 6.15 8.85 6.6 8.9 Q7.25 8.9 7.7 8.35 M8.9 11.9 L8.3 13.95 4.45 14.95 4.1 13.8 5.05 13.1 6.3 12.6 8.9 11.9 M-4.95 -6.45 L-8.05 -7.2 -8.45 -8.05 Q-6.5 -8.8 -4.45 -8.8 L-2.95 -8.7 -1.85 -8.5 -2.1 -8.15 -2.0 -6.05 -1.45 -5.75 1.8 -6.1 2.3 -5.55 Q3.3 -4.55 3.55 -3.3 L3.65 -2.5 2.75 -1.55 3.25 -0.05 3.2 -0.05 1.15 0.25 0.95 -0.95 1.6 -1.5 0.0 -3.4 0.3 -4.8 -1.8 -5.6 -2.15 -5.35 -2.95 -5.35 -4.95 -6.45 M-5.05 -2.1 L-5.35 -1.6 -5.7 -1.25 -6.6 -1.25 -7.65 -1.95 -6.3 -2.15 -6.55 -5.95 -6.25 -6.3 Q-5.45 -5.5 -5.15 -4.45 -5.0 -3.8 -5.0 -3.0 L-5.05 -2.1 M-4.4 6.35 L-3.0 5.4 Q-2.35 6.2 -0.45 6.65 L1.05 6.9 0.05 8.35 -1.1 8.3 -1.7 8.05 -1.65 7.15 -3.1 7.8 Q-3.55 8.35 -4.35 8.15 L-4.75 7.95 -4.75 6.6 -4.4 6.35 M1.2 2.1 L1.7 2.15 4.3 1.8 4.45 3.6 2.05 3.05 1.75 3.6 1.25 3.55 -0.4 3.7 1.2 2.1 M6.55 11.05 L7.05 11.9 6.05 12.25 5.05 12.15 5.1 11.65 6.55 11.05 M-3.15 -10.2 L-3.6 -9.9 -5.4 -10.2 -3.5 -11.7 -1.4 -10.05 -1.8 -9.25 -2.55 -9.45 -3.15 -10.2" fill="#ff0000" fill-rule="evenodd" stroke="none"/>
      <path d="M-13.05 -6.8 L-12.65 -8.85 -12.7 -7.85 -12.65 -6.95 -12.6 -6.8 -12.9 -6.75 -13.05 -6.8" fill="#764701" fill-rule="evenodd" stroke="none"/>
      <path d="M-2.95 -5.35 Q-2.2 -4.35 -2.15 -3.2 L-2.1 -2.75 Q-2.5 -1.6 -3.75 -1.55 L-5.05 -2.1 -5.0 -3.0 Q-5.0 -3.8 -5.15 -4.45 -5.45 -5.5 -6.25 -6.3 L-6.55 -6.55 -4.95 -6.45 -2.95 -5.35 M-5.35 -1.6 L-4.85 -1.55 -4.55 -0.45 -5.3 0.55 -4.05 3.8 -5.35 2.65 -7.3 2.55 -6.85 4.3 -7.15 5.7 -7.2 5.95 -7.45 6.35 -8.7 6.3 -10.4 3.3 -10.6 2.6 -10.55 2.2 -10.25 1.5 -9.7 1.4 -9.45 -0.25 -10.25 -0.35 -10.25 -1.05 -9.5 -2.05 -8.35 -2.35 -7.65 -1.95 -6.6 -1.25 -5.7 -1.25 -5.35 -1.6 M-0.8 -1.85 L-0.5 -1.65 Q0.45 -0.65 0.3 0.75 L-1.35 2.4 -2.0 2.1 -3.3 1.35 -3.4 0.85 Q-3.6 -1.95 -0.8 -1.85" fill="#650101" fill-rule="evenodd" stroke="none"/>
      <path d="M8.25 14.3 L8.2 14.3 6.7 15.0 4.4 15.65 3.7 15.8 0.55 16.05 -0.25 15.7 0.35 15.45 4.1 13.8 4.45 14.95 8.3 13.95 8.25 14.3 M6.55 11.05 L5.1 11.65 2.6 13.2 -4.45 13.2 -4.95 12.9 -5.2 12.05 -0.05 11.2 8.25 10.25 6.55 11.05 M-9.15 -6.1 L-8.7 -6.7 -6.55 -6.55 -6.25 -6.3 -6.55 -5.95 -6.3 -2.15 -7.65 -1.95 -8.35 -2.35 -8.7 -2.9 -9.5 -3.3 -9.15 -6.1" fill="#ffffff" fill-rule="evenodd" stroke="none"/>
      <path d="M6.7 15.0 Q6.3 16.65 4.85 17.55 L4.15 17.95 3.75 17.15 4.4 15.65 6.7 15.0 M-4.25 14.1 L-5.15 14.8 Q-8.8 13.1 -9.9 9.35 L-4.75 14.3 -4.25 14.05 -4.25 14.1 M-6.85 4.3 L-6.2 4.75 -4.4 6.35 -4.75 6.6 -4.75 7.95 -4.35 8.15 Q-3.55 8.35 -3.1 7.8 L-1.7 8.05 -1.1 8.3 0.05 8.35 1.25 8.45 1.6 9.2 Q1.3 9.2 1.1 9.55 0.85 9.9 0.85 10.4 L-0.75 9.8 -1.45 10.15 -2.7 9.5 -3.5 9.85 -5.7 8.1 -6.2 7.35 -6.85 6.25 -7.15 5.7 -6.85 4.3 M6.05 12.25 L6.3 12.6 5.05 13.1 4.7 12.5 5.05 12.15 6.05 12.25" fill="#6b476b" fill-rule="evenodd" stroke="none"/>
      <path d="M4.15 17.95 Q-0.75 19.5 -3.6 15.25 L-4.25 14.1 -4.25 14.05 -4.2 14.05 -4.2 14.0 -4.15 13.95 -4.45 13.2 2.6 13.2 0.35 15.45 -0.25 15.7 0.55 16.05 1.25 16.45 Q2.75 16.75 3.7 15.8 L4.4 15.65 3.75 17.15 4.15 17.95 M1.25 8.4 L1.2 8.35 1.25 8.35 1.25 8.4 M0.85 10.4 L0.9 10.55 -0.05 11.2 -5.2 12.05 -7.15 6.0 -7.2 5.95 -7.15 5.7 -6.85 6.25 -6.2 7.35 -5.7 8.1 -3.5 9.85 -2.7 9.5 -1.45 10.15 -0.75 9.8 0.85 10.4" fill="#996699" fill-rule="evenodd" stroke="none"/>
      <path d="M-9.9 9.35 L-11.45 5.2 -12.05 2.3 -10.8 2.9 -10.4 3.3 -8.7 6.3 -7.45 6.35 -7.2 5.95 -7.15 6.0 -5.2 12.05 -4.95 12.9 -4.45 13.2 -4.15 13.95 -4.2 14.0 -4.2 14.05 -4.25 14.05 -4.75 14.3 -9.9 9.35 M1.25 8.45 L1.25 8.4 1.25 8.35 1.5 7.35 2.25 7.45 2.25 8.95 2.75 9.3 1.6 9.2 1.25 8.45" fill="#4d334d" fill-rule="evenodd" stroke="none"/>
      <path d="M7.7 -0.45 L7.9 -0.8 7.7 -0.35 7.7 -0.45" fill="#62543a" fill-rule="evenodd" stroke="none"/>
      <path d="M3.05 -16.1 L4.8 -17.85 4.65 -14.8 7.6 -15.85 8.15 -15.6 8.1 -13.85 8.6 -10.6 8.7 -10.45 9.55 -8.85 10.75 -6.5 Q11.85 -4.15 12.5 -0.25 L12.45 -0.3 10.6 -4.35 9.7 -5.9 9.1 -7.0 8.9 -7.35 7.2 -9.2 6.65 -9.75 4.7 -11.75 4.7 -11.8 Q5.05 -12.1 4.8 -12.35 L3.7 -12.8 3.15 -13.35 3.05 -16.1" fill="#e07373" fill-rule="evenodd" stroke="none"/>
      <path d="M3.15 -13.35 L3.7 -12.8 3.15 -12.9 3.15 -13.35 M4.7 -11.75 L6.65 -9.75 7.2 -9.2 8.9 -7.35 9.1 -7.0 9.7 -5.9 10.6 -4.35 12.45 -0.3 12.5 -0.05 13.15 2.75 Q13.45 3.9 13.45 8.45 L13.7 11.7 14.15 14.55 12.0 12.2 9.0 18.2 8.6 16.15 10.35 8.3 10.75 5.95 Q10.75 -1.85 6.5 -7.2 L5.05 -8.8 2.7 -11.35 3.5 -11.45 4.7 -11.75" fill="#cc4343" fill-rule="evenodd" stroke="none"/>
      <path d="M1.55 -8.3 L1.6 -8.45 1.65 -8.85 1.6 -10.3 3.7 -8.85 4.25 -8.3 5.25 -7.2 6.0 -6.15 Q5.0 -6.15 4.9 -5.05 4.3 -5.3 4.2 -6.1 L4.2 -8.0 3.8 -8.0 1.55 -8.3 M7.15 -3.9 L7.65 -2.6 8.1 -2.3 8.1 -2.25 7.95 -1.3 6.5 -2.1 Q5.85 -2.65 5.5 -3.45 L5.95 -3.4 Q6.85 -3.4 7.15 -3.9 M8.1 -1.2 L8.1 -1.0 8.1 -0.8 8.1 -0.5 8.1 -0.3 Q7.9 2.25 7.35 4.15 L7.0 5.1 6.95 5.1 6.9 5.1 Q6.05 5.15 5.75 5.95 L5.55 6.6 5.5 6.95 5.5 7.0 5.3 6.6 6.0 4.95 6.25 3.95 6.45 1.6 6.95 0.85 7.7 -0.45 7.7 -0.35 7.9 -0.8 8.1 -1.2" fill="#a01b1b" fill-rule="evenodd" stroke="none"/>
      <path d="M6.0 -6.15 L6.1 -6.15 Q7.3 -6.1 7.3 -4.6 L7.15 -3.9 Q6.85 -3.4 5.95 -3.4 L5.5 -3.45 Q5.85 -2.65 6.5 -2.1 L7.95 -1.3 8.1 -1.2 7.9 -0.8 7.7 -0.45 6.95 0.85 6.45 1.6 5.1 3.5 4.8 4.0 4.8 3.55 Q4.8 -2.5 3.3 -5.7 2.5 -7.35 1.25 -8.35 L1.4 -8.35 1.55 -8.3 3.8 -8.0 4.2 -8.0 4.2 -6.1 Q4.3 -5.3 4.9 -5.05 5.0 -6.15 6.0 -6.15 M7.0 5.1 Q7.8 5.15 8.15 5.6 L8.3 6.25 8.25 6.85 8.0 7.75 7.8 8.15 7.7 8.35 Q7.25 8.9 6.6 8.9 L6.15 8.85 5.65 8.55 5.55 8.4 5.45 8.15 5.45 7.4 5.5 7.0 5.5 6.95 5.55 6.6 5.75 5.95 Q6.05 5.15 6.9 5.1 L6.95 5.1 7.0 5.1" fill="#9c4d4d" fill-rule="evenodd" stroke="none"/>
      <path d="M8.6 16.15 L8.25 14.3 8.3 13.95 8.9 11.9 9.6 10.0 9.2 9.55 8.45 8.7 7.95 8.65 7.7 8.35 7.8 8.15 8.0 7.75 8.25 6.85 8.3 6.25 8.15 5.6 Q7.8 5.15 7.0 5.1 L7.35 4.15 Q7.9 2.25 8.1 -0.3 L8.1 -0.5 8.1 -0.8 8.1 -1.0 8.1 -1.2 7.95 -1.3 8.1 -2.25 8.1 -2.3 7.65 -2.6 7.15 -3.9 7.3 -4.6 Q7.3 -6.1 6.1 -6.15 L6.0 -6.15 5.25 -7.2 4.25 -8.3 3.7 -8.85 1.6 -10.3 Q1.6 -10.75 1.85 -11.05 2.05 -11.4 2.4 -11.4 L2.7 -11.35 5.05 -8.8 6.5 -7.2 Q10.75 -1.85 10.75 5.95 L10.35 8.3 8.6 16.15" fill="#a83636" fill-rule="evenodd" stroke="none"/>
    </g>
  </defs>
</svg>
