<?xml version="1.0" encoding="UTF-8" standalone="no"?>
<svg xmlns:ffdec="https://www.free-decompiler.com/flash" xmlns:xlink="http://www.w3.org/1999/xlink" ffdec:objectType="frame" height="44.0px" width="126.0px" xmlns="http://www.w3.org/2000/svg">
  <g transform="matrix(1.0, 0.0, 0.0, 1.0, 0.0, 0.0)">
    <use ffdec:characterId="3144" height="44.0" transform="matrix(1.0, 0.0, 0.0, 1.0, 0.0, 0.0)" width="126.0" xlink:href="#shape0"/>
    <use ffdec:characterId="3146" height="44.0" transform="matrix(1.0, 0.0, 0.0, 1.0, 0.0, 0.0)" width="30.0" xlink:href="#sprite0"/>
    <use ffdec:characterId="3146" height="44.0" transform="matrix(1.0, 0.0, 0.0, 1.0, 32.0, 0.0)" width="30.0" xlink:href="#sprite0"/>
    <use ffdec:characterId="3146" height="44.0" transform="matrix(1.0, 0.0, 0.0, 1.0, 64.0, 0.0)" width="30.0" xlink:href="#sprite0"/>
    <use ffdec:characterId="3146" height="44.0" transform="matrix(1.0, 0.0, 0.0, 1.0, 96.0, 0.0)" width="30.0" xlink:href="#sprite0"/>
  </g>
  <defs>
    <g id="shape0" transform="matrix(1.0, 0.0, 0.0, 1.0, 0.0, 0.0)">
      <path d="M126.0 44.0 L0.0 44.0 0.0 0.0 126.0 0.0 126.0 44.0" fill="#31374f" fill-rule="evenodd" stroke="none"/>
    </g>
    <g id="sprite0" transform="matrix(1.0, 0.0, 0.0, 1.0, 0.0, 0.0)">
      <use ffdec:characterId="3145" height="44.0" transform="matrix(1.0, 0.0, 0.0, 1.0, 0.0, 0.0)" width="30.0" xlink:href="#shape1"/>
    </g>
    <g id="shape1" transform="matrix(1.0, 0.0, 0.0, 1.0, 0.0, 0.0)">
      <path d="M30.0 44.0 L0.0 44.0 0.0 0.0 30.0 0.0 30.0 44.0" fill="#1e2130" fill-rule="evenodd" stroke="none"/>
    </g>
  </defs>
</svg>
