<?xml version="1.0" encoding="UTF-8" standalone="no"?>
<svg xmlns:ffdec="https://www.free-decompiler.com/flash" xmlns:xlink="http://www.w3.org/1999/xlink" ffdec:objectType="frame" height="31.95px" width="47.95px" xmlns="http://www.w3.org/2000/svg">
  <g transform="matrix(1.0, 0.0, 0.0, 1.0, 23.95, 16.0)">
    <use ffdec:characterId="2814" height="31.95" transform="matrix(1.0, 0.0, 0.0, 1.0, -23.95, -16.0)" width="47.95" xlink:href="#shape0"/>
  </g>
  <defs>
    <g id="shape0" transform="matrix(1.0, 0.0, 0.0, 1.0, 23.95, 17.95)">
      <path d="M18.8 -15.95 L-18.8 -15.95 -18.8 -13.95 -19.8 -13.95 -19.8 -17.95 19.8 -17.95 19.8 -13.95 18.8 -13.95 18.8 -15.95" fill="#4e4e4e" fill-rule="evenodd" stroke="none"/>
      <path d="M0.25 -3.85 L0.25 -3.1 -0.5 -3.1 -0.5 -3.85 0.25 -3.85 M1.0 -3.1 L1.0 -3.85 1.75 -3.85 1.75 -3.1 1.0 -3.1 M3.25 -3.85 L3.25 -3.1 2.5 -3.1 2.5 -3.85 3.25 -3.85 M22.35 -8.75 Q22.4 -7.8 21.85 -7.1 21.25 -6.4 20.4 -6.4 19.55 -6.4 19.0 -7.1 18.4 -7.8 18.4 -8.7 L18.45 -8.6 18.45 -8.75 Q20.05 -6.1 22.2 -8.5 L22.25 -8.7 22.35 -8.75 M16.5 -11.25 L16.5 -7.25 -16.5 -7.25 -16.5 -11.25 16.5 -11.25 M12.65 -3.35 L12.65 -5.35 14.65 -5.35 14.65 -3.35 12.65 -3.35 M17.5 -3.35 L15.5 -3.35 15.5 -5.35 17.5 -5.35 17.5 -3.35 M9.5 6.55 L14.1 3.7 Q14.1 4.8 14.45 5.6 14.75 6.35 15.25 6.35 15.75 6.35 16.1 5.6 L16.4 4.35 16.45 4.05 16.4 3.85 16.4 3.7 21.0 6.55 Q20.75 7.5 19.85 8.3 13.7 13.75 9.5 6.55 M2.5 10.6 L2.5 9.85 3.25 9.85 3.25 10.6 2.5 10.6 M1.0 10.6 L1.0 9.85 1.75 9.85 1.75 10.6 1.0 10.6 M0.25 9.85 L0.25 10.6 -0.5 10.6 -0.5 9.85 0.25 9.85 M3.5 2.9 L3.5 4.9 -3.5 4.9 -3.5 2.9 3.5 2.9 M-20.4 -9.65 Q-20.8 -9.65 -21.1 -9.95 L-21.4 -10.65 -21.1 -11.35 -20.4 -11.65 -19.7 -11.35 Q-19.4 -11.05 -19.4 -10.65 -19.4 -10.25 -19.7 -9.95 -20.0 -9.65 -20.4 -9.65 M-21.4 -7.75 L-21.1 -8.45 -20.4 -8.75 -19.7 -8.45 Q-19.4 -8.15 -19.4 -7.75 -19.4 -7.35 -19.7 -7.05 -20.0 -6.75 -20.4 -6.75 -20.8 -6.75 -21.1 -7.05 L-21.4 -7.75 M-11.5 -10.25 L-15.5 -10.25 -15.5 -8.25 -11.5 -8.25 -11.5 -10.25 M-10.5 -8.25 L-6.5 -8.25 -6.5 -10.25 -10.5 -10.25 -10.5 -8.25 M-17.85 -5.25 L-15.85 -5.25 -15.85 -3.25 -17.85 -3.25 -17.85 -5.25 M-13.0 -3.25 L-15.0 -3.25 -15.0 -5.25 -13.0 -5.25 -13.0 -3.25 M-2.75 -3.85 L-2.75 -3.1 -3.5 -3.1 -3.5 -3.85 -2.75 -3.85 M-2.0 -3.85 L-1.25 -3.85 -1.25 -3.1 -2.0 -3.1 -2.0 -3.85 M-2.0 10.6 L-2.0 9.85 -1.25 9.85 -1.25 10.6 -2.0 10.6 M-2.75 10.6 L-3.5 10.6 -3.5 9.85 -2.75 9.85 -2.75 10.6 M-9.5 6.65 Q-9.75 7.75 -10.55 8.5 -16.8 13.95 -21.0 6.65 L-16.4 3.8 Q-16.4 4.9 -16.05 5.7 -15.75 6.45 -15.25 6.45 -14.75 6.45 -14.4 5.7 L-14.1 4.45 -14.05 4.15 -14.1 3.95 -14.1 3.8 -9.5 6.65" fill="#4e4e4e" fill-rule="evenodd" stroke="none"/>
      <path d="M3.25 -3.85 L2.5 -3.85 2.5 -3.1 3.25 -3.1 3.25 -3.85 M1.0 -3.1 L1.75 -3.1 1.75 -3.85 1.0 -3.85 1.0 -3.1 M0.25 -3.85 L-0.5 -3.85 -0.5 -3.1 0.25 -3.1 0.25 -3.85 M6.35 -5.05 L6.35 -2.15 -6.45 -2.15 -6.45 -5.05 6.35 -5.05 M9.25 4.7 Q11.1 -3.3 18.5 0.15 20.1 0.8 20.7 2.5 L21.25 4.7 21.0 6.55 16.4 3.7 16.3 3.7 16.15 3.55 15.3 3.35 14.5 3.55 14.3 3.7 14.1 3.7 9.5 6.55 9.25 4.7 M-21.25 4.8 Q-19.35 -3.15 -12.0 0.2 -10.5 0.9 -9.85 2.6 L-9.25 4.8 -9.5 6.65 -14.1 3.8 -14.2 3.8 -14.35 3.65 -15.2 3.45 -16.0 3.65 -16.2 3.8 -16.4 3.8 -21.0 6.65 -21.25 4.8 M-2.0 -3.85 L-2.0 -3.1 -1.25 -3.1 -1.25 -3.85 -2.0 -3.85 M-2.75 -3.85 L-3.5 -3.85 -3.5 -3.1 -2.75 -3.1 -2.75 -3.85" fill="#303030" fill-rule="evenodd" stroke="none"/>
      <path d="M1.5 -0.4 L1.5 -1.15 3.5 -1.15 3.5 -0.4 1.5 -0.4 M22.35 -8.75 L22.25 -8.7 22.25 -8.75 Q20.9 -11.2 18.7 -9.2 L18.45 -8.75 18.45 -8.6 18.4 -8.7 18.4 -8.75 Q18.4 -9.7 19.0 -10.4 19.55 -11.1 20.4 -11.1 21.25 -11.1 21.85 -10.4 22.4 -9.7 22.35 -8.75" fill="#efefef" fill-rule="evenodd" stroke="none"/>
      <path d="M1.5 -0.4 L3.5 -0.4 3.5 -1.15 1.5 -1.15 1.5 -0.4 M6.35 -5.05 L-6.45 -5.05 -6.45 -2.15 6.35 -2.15 6.35 -5.05 M18.4 -8.7 Q18.4 -7.8 19.0 -7.1 19.55 -6.4 20.4 -6.4 21.25 -6.4 21.85 -7.1 22.4 -7.8 22.35 -8.75 22.4 -9.7 21.85 -10.4 21.25 -11.1 20.4 -11.1 19.55 -11.1 19.0 -10.4 18.4 -9.7 18.4 -8.75 L18.4 -8.7 M22.25 -8.7 L22.2 -8.5 Q20.05 -6.1 18.45 -8.75 L18.7 -9.2 Q20.9 -11.2 22.25 -8.75 L22.25 -8.7 M16.5 -11.25 L-16.5 -11.25 -16.5 -7.25 16.5 -7.25 16.5 -11.25 M12.65 -5.35 L10.7 -5.35 10.7 -3.35 12.65 -3.35 14.65 -3.35 14.65 -5.35 12.65 -5.35 M17.5 -5.35 L15.5 -5.35 15.5 -3.35 17.5 -3.35 19.45 -3.35 19.45 -5.35 17.5 -5.35 M-23.95 -12.75 L24.0 -12.75 24.0 12.75 6.3 12.75 6.3 0.85 -6.5 0.85 -6.5 12.75 -23.95 12.75 -23.95 -12.75 M22.25 4.7 Q21.35 -2.5 13.95 -1.65 10.35 -1.2 9.0 2.15 L8.25 4.7 Q8.25 7.6 10.3 9.7 12.35 11.75 15.25 11.75 18.15 11.75 20.2 9.7 22.25 7.6 22.25 4.7 M3.5 2.9 L-3.5 2.9 -3.5 4.9 3.5 4.9 3.5 2.9 M0.25 9.85 L-0.5 9.85 -0.5 10.6 0.25 10.6 0.25 9.85 M1.0 10.6 L1.75 10.6 1.75 9.85 1.0 9.85 1.0 10.6 M2.5 10.6 L3.25 10.6 3.25 9.85 2.5 9.85 2.5 10.6 M5.05 7.85 L-5.25 7.85 -5.25 1.85 5.05 1.85 5.05 7.85 M5.05 12.75 L-5.25 12.75 -5.25 8.85 5.05 8.85 5.05 12.75 M-21.4 -7.75 L-21.1 -7.05 Q-20.8 -6.75 -20.4 -6.75 -20.0 -6.75 -19.7 -7.05 -19.4 -7.35 -19.4 -7.75 -19.4 -8.15 -19.7 -8.45 L-20.4 -8.75 -21.1 -8.45 -21.4 -7.75 M-20.4 -9.65 Q-20.0 -9.65 -19.7 -9.95 -19.4 -10.25 -19.4 -10.65 -19.4 -11.05 -19.7 -11.35 L-20.4 -11.65 -21.1 -11.35 -21.4 -10.65 -21.1 -9.95 Q-20.8 -9.65 -20.4 -9.65 M-8.25 4.8 Q-9.15 -2.4 -16.55 -1.55 -17.85 -1.5 -18.95 -0.8 -22.1 1.15 -22.25 4.8 -22.25 7.7 -20.2 9.8 -18.15 11.85 -15.25 11.85 -12.35 11.85 -10.3 9.8 -8.25 7.7 -8.25 4.8 M-17.85 -3.25 L-15.85 -3.25 -15.85 -5.25 -17.85 -5.25 -19.8 -5.25 -19.8 -3.25 -17.85 -3.25 M-13.0 -5.25 L-15.0 -5.25 -15.0 -3.25 -13.0 -3.25 -11.05 -3.25 -11.05 -5.25 -13.0 -5.25 M-2.75 10.6 L-2.75 9.85 -3.5 9.85 -3.5 10.6 -2.75 10.6 M-2.0 10.6 L-1.25 10.6 -1.25 9.85 -2.0 9.85 -2.0 10.6" fill="#cccccc" fill-rule="evenodd" stroke="none"/>
      <path d="M12.65 -3.35 L10.7 -3.35 10.7 -5.35 12.65 -5.35 12.65 -3.35 M17.5 -5.35 L19.45 -5.35 19.45 -3.35 17.5 -3.35 17.5 -5.35 M24.0 12.75 L24.0 14.0 -23.95 14.0 -23.95 12.75 -6.5 12.75 -6.5 0.85 6.3 0.85 6.3 12.75 24.0 12.75 M21.25 4.7 L22.25 4.7 Q22.25 7.6 20.2 9.7 18.15 11.75 15.25 11.75 12.35 11.75 10.3 9.7 8.25 7.6 8.25 4.7 L9.25 4.7 9.5 6.55 Q13.7 13.75 19.85 8.3 20.75 7.5 21.0 6.55 L21.25 4.7 M5.05 7.85 L5.05 1.85 -5.25 1.85 -5.25 7.85 5.05 7.85 M5.05 12.75 L5.05 8.85 -5.25 8.85 -5.25 12.75 5.05 12.75 M-22.25 4.8 L-21.25 4.8 -21.0 6.65 Q-16.8 13.95 -10.55 8.5 -9.75 7.75 -9.5 6.65 L-9.25 4.8 -8.25 4.8 Q-8.25 7.7 -10.3 9.8 -12.35 11.85 -15.25 11.85 -18.15 11.85 -20.2 9.8 -22.25 7.7 -22.25 4.8 M-17.85 -5.25 L-17.85 -3.25 -19.8 -3.25 -19.8 -5.25 -17.85 -5.25 M-13.0 -5.25 L-11.05 -5.25 -11.05 -3.25 -13.0 -3.25 -13.0 -5.25" fill="#a8a8a8" fill-rule="evenodd" stroke="none"/>
      <path d="M-23.95 -12.75 L-23.95 -14.0 24.0 -14.0 24.0 -12.75 -23.95 -12.75 M21.25 4.7 L20.7 2.5 Q20.1 0.8 18.5 0.15 11.1 -3.3 9.25 4.7 L8.25 4.7 9.0 2.15 Q10.35 -1.2 13.95 -1.65 21.35 -2.5 22.25 4.7 L21.25 4.7 M-10.5 -8.25 L-10.5 -10.25 -6.5 -10.25 -6.5 -8.25 -10.5 -8.25 M-11.5 -10.25 L-11.5 -8.25 -15.5 -8.25 -15.5 -10.25 -11.5 -10.25 M-22.25 4.8 Q-22.1 1.15 -18.95 -0.8 -17.85 -1.5 -16.55 -1.55 -9.15 -2.4 -8.25 4.8 L-9.25 4.8 -9.85 2.6 Q-10.5 0.9 -12.0 0.2 -19.35 -3.15 -21.25 4.8 L-22.25 4.8" fill="#e9e9e9" fill-rule="evenodd" stroke="none"/>
      <path d="M14.1 3.7 L14.3 3.7 14.15 4.05 Q14.15 4.35 14.5 4.55 L15.3 4.75 16.15 4.55 16.4 4.35 16.1 5.6 Q15.75 6.35 15.25 6.35 14.75 6.35 14.45 5.6 14.1 4.8 14.1 3.7 M16.3 3.7 L16.4 3.7 16.4 3.85 16.3 3.7 M-14.1 3.8 L-14.1 3.95 -14.2 3.8 -14.1 3.8 M-14.1 4.45 L-14.4 5.7 Q-14.75 6.45 -15.25 6.45 -15.75 6.45 -16.05 5.7 -16.4 4.9 -16.4 3.8 L-16.2 3.8 -16.35 4.15 -16.0 4.65 -15.2 4.85 Q-14.7 4.85 -14.35 4.65 L-14.1 4.45" fill="#3e3e3e" fill-rule="evenodd" stroke="none"/>
      <path d="M14.3 3.7 L14.5 3.55 15.3 3.35 16.15 3.55 16.3 3.7 16.4 3.85 16.45 4.05 16.4 4.35 16.15 4.55 15.3 4.75 14.5 4.55 Q14.15 4.35 14.15 4.05 L14.3 3.7 M-14.2 3.8 L-14.1 3.95 -14.05 4.15 -14.1 4.45 -14.35 4.65 Q-14.7 4.85 -15.2 4.85 L-16.0 4.65 -16.35 4.15 -16.2 3.8 -16.0 3.65 -15.2 3.45 -14.35 3.65 -14.2 3.8" fill="#999999" fill-rule="evenodd" stroke="none"/>
    </g>
  </defs>
</svg>
