<?xml version="1.0" encoding="UTF-8" standalone="no"?>
<svg xmlns:ffdec="https://www.free-decompiler.com/flash" xmlns:xlink="http://www.w3.org/1999/xlink" ffdec:objectType="frame" height="22.8px" width="8.6px" xmlns="http://www.w3.org/2000/svg">
  <g transform="matrix(1.0, 0.0, 0.0, 1.0, 4.05, 11.15)">
    <use ffdec:characterId="874" height="22.35" transform="matrix(1.0, 0.0, 0.0, 1.0, -3.95, -11.15)" width="8.15" xlink:href="#shape0"/>
  </g>
  <defs>
    <g id="shape0" transform="matrix(1.0, 0.0, 0.0, 1.0, 3.95, 11.15)">
      <path d="M-0.1 -10.3 L0.55 -10.85 1.5 -10.55 1.05 -10.45 0.65 -9.65 -0.1 -10.3 M-1.25 -4.95 L-1.15 -8.6 -1.95 -9.75 -1.85 -11.05 -1.25 -11.15 -0.35 -6.75 -0.35 -5.0 -1.25 -4.95" fill="#afa96b" fill-rule="evenodd" stroke="none"/>
      <path d="M1.5 -10.55 Q1.8 -9.2 0.85 -8.55 L1.0 -5.5 0.5 -6.0 0.25 -5.55 0.35 -5.0 -0.05 -5.0 -0.35 -5.0 -0.35 -6.75 -1.25 -11.15 -0.1 -10.3 0.65 -9.65 1.05 -10.45 1.5 -10.55" fill="#e1dfc8" fill-rule="evenodd" stroke="none"/>
      <path d="M1.0 -5.5 L1.1 -4.85 2.3 -0.9 3.8 3.25 2.25 3.65 2.05 4.05 0.95 4.3 0.15 5.9 0.1 6.1 -0.4 8.7 0.6 10.8 1.15 10.85 1.3 11.2 -0.95 11.0 -1.85 7.35 -1.1 5.2 Q-0.65 3.85 -0.55 3.05 L-0.9 1.5 -0.9 0.65 -1.3 0.25 -1.4 -0.55 -1.0 -0.9 -0.85 -1.7 -0.7 -1.75 -0.5 -1.6 -0.05 -5.0 0.35 -5.0 0.25 -5.55 0.5 -6.0 1.0 -5.5" fill="#c4713b" fill-rule="evenodd" stroke="none"/>
      <path d="M-0.95 11.0 Q-2.95 9.25 -3.6 6.95 -4.25 4.75 -3.65 2.6 L-3.05 0.6 -1.55 -4.05 -1.25 -4.95 -0.35 -5.0 -0.05 -5.0 -0.5 -1.6 -0.7 -1.75 -0.85 -1.7 -1.0 -0.9 -1.4 -0.55 -1.3 0.25 -0.9 0.65 -0.9 1.5 -0.55 3.05 Q-0.65 3.85 -1.1 5.2 L-1.85 7.35 -0.95 11.0" fill="#995027" fill-rule="evenodd" stroke="none"/>
      <path d="M3.8 3.25 L4.1 4.75 3.15 4.75 3.3 3.95 2.5 3.65 1.75 4.95 2.1 6.05 1.55 6.4 1.5 5.35 0.9 5.3 0.7 5.4 0.15 5.9 0.95 4.3 2.05 4.05 2.25 3.65 3.8 3.25 M2.35 6.7 L2.45 7.1 0.7 7.7 0.7 8.4 1.25 8.7 1.15 8.95 1.1 9.25 1.15 10.85 0.6 10.8 -0.4 8.7 0.1 6.1 0.15 6.7 1.05 7.1 1.55 6.55 2.35 6.7" fill="#feb16b" fill-rule="evenodd" stroke="none"/>
      <path d="M4.1 4.75 L4.2 5.35 3.95 5.65 3.5 5.45 2.6 6.0 2.35 6.5 2.35 6.7 1.55 6.55 1.05 7.1 0.15 6.7 0.1 6.1 0.15 5.9 0.7 5.4 0.9 5.3 1.5 5.35 1.55 6.4 2.1 6.05 1.75 4.95 2.5 3.65 3.3 3.95 3.15 4.75 4.1 4.75 M2.45 7.1 L2.55 7.55 2.25 7.75 2.1 7.95 2.05 8.15 2.05 8.5 1.25 8.7 0.7 8.4 0.7 7.7 2.45 7.1 M1.1 9.25 L1.2 10.05 1.6 10.45 1.9 11.15 1.3 11.2 1.15 10.85 1.1 9.25" fill="#cd8d46" fill-rule="evenodd" stroke="none"/>
    </g>
  </defs>
</svg>
