<?xml version="1.0" encoding="UTF-8" standalone="no"?>
<svg xmlns:ffdec="https://www.free-decompiler.com/flash" xmlns:xlink="http://www.w3.org/1999/xlink" ffdec:objectType="frame" height="70.7px" width="43.35px" xmlns="http://www.w3.org/2000/svg">
  <g transform="matrix(1.0, 0.0, 0.0, 1.0, 16.25, 35.0)">
    <use ffdec:characterId="1099" height="54.45" transform="matrix(1.0, 0.0, 0.0, 1.0, -16.25, -31.25)" width="33.85" xlink:href="#shape0"/>
    <use ffdec:characterId="1100" height="16.25" transform="matrix(1.0, 0.0, 0.0, 1.0, -14.35, 19.45)" width="41.45" xlink:href="#shape1"/>
    <use ffdec:characterId="1081" height="100.0" id="shape" transform="matrix(0.3, 0.0, 0.0, 0.7001, -15.0002, -35.0029)" width="100.0" xlink:href="#sprite0"/>
  </g>
  <defs>
    <g id="shape0" transform="matrix(1.0, 0.0, 0.0, 1.0, 16.25, 31.25)">
      <path d="M-4.05 20.45 L-4.85 20.45 -4.95 20.55 -4.9 20.4 -4.05 20.45" fill="#e0d9bb" fill-rule="evenodd" stroke="none"/>
      <path d="M5.5 19.85 L5.5 20.0 5.45 19.75 5.5 19.6 5.5 19.85" fill="#c2bca3" fill-rule="evenodd" stroke="none"/>
      <path d="M-14.6 -4.2 L-15.75 -10.3 -16.2 -14.75 Q-16.45 -19.25 -14.3 -25.1 -12.2 -30.95 -10.35 -31.1 -7.2 -31.7 -4.7 -29.55 -4.2 -29.5 -3.55 -29.0 10.85 -21.95 16.35 -25.5 18.15 -25.8 17.4 -24.05 L17.4 -24.0 17.35 -23.85 17.3 -23.65 17.2 -23.05 17.1 -22.2 Q15.0 -18.05 13.7 -11.65 L12.1 -2.75 9.9 -2.9 6.6 -3.05 -7.8 -3.85 -11.6 -4.05 -14.6 -4.2 M4.5 -20.05 L4.25 -24.05 Q3.95 -26.6 2.85 -25.85 1.75 -25.1 1.75 -23.85 1.75 -23.15 2.3 -19.95 2.95 -16.2 3.55 -14.5 4.5 -15.45 4.5 -20.05" fill="#ebbc8d" fill-rule="evenodd" stroke="none"/>
      <path d="M4.1 23.2 L2.0 23.2 1.8 21.85 1.25 16.5 Q1.1 15.35 -0.35 11.9 L-1.65 8.55 -4.45 15.65 Q-6.0 19.25 -6.0 23.1 L-6.0 23.2 -8.0 23.2 -7.1 20.7 Q-5.5 16.5 -5.5 13.25 -5.5 9.7 -6.15 5.4 L-6.5 3.35 -7.8 -3.85 6.6 -3.05 4.5 6.65 4.3 7.65 Q3.0 13.65 3.0 16.75 3.0 20.2 4.1 23.2" fill="#c9c4b2" fill-rule="evenodd" stroke="none"/>
      <path d="M6.3 23.2 L4.1 23.2 Q3.0 20.2 3.0 16.75 3.0 13.65 4.3 7.65 L4.5 6.65 6.6 -3.05 9.9 -2.9 7.45 7.8 7.35 8.35 Q6.0 14.65 6.0 18.25 6.0 22.2 6.25 23.05 L6.3 23.2 M2.0 23.2 L-6.0 23.2 -6.0 23.1 Q-6.0 19.25 -4.45 15.65 L-1.65 8.55 -0.35 11.9 Q1.1 15.35 1.25 16.5 L1.8 21.85 2.0 23.2 M-8.0 23.2 L-8.75 23.2 -8.4 21.9 Q-7.25 18.05 -7.25 16.35 -7.25 12.6 -9.2 6.2 L-9.65 4.6 Q-11.15 -0.35 -11.6 -4.05 L-7.8 -3.85 -6.5 3.35 -6.15 5.4 Q-5.5 9.7 -5.5 13.25 -5.5 16.5 -7.1 20.7 L-8.0 23.2 M5.5 19.85 L5.5 19.6 5.45 19.75 5.5 20.0 5.5 19.85 M-4.05 20.45 L-3.7 21.15 Q-3.0 22.35 -2.0 22.0 L-1.25 20.25 Q-0.75 19.35 -0.75 18.35 -1.75 12.9 -2.25 12.0 L-2.5 12.25 -3.55 15.7 -4.4 19.25 -4.05 20.45 -4.9 20.4 -4.95 20.55 -4.85 20.45 -4.05 20.45" fill="#d1cbb9" fill-rule="evenodd" stroke="none"/>
      <path d="M13.05 -2.7 L12.6 -1.05 9.95 7.6 9.6 8.8 Q7.8 14.85 7.8 19.6 7.8 20.65 8.4 22.3 8.55 22.75 9.35 23.2 L6.3 23.2 6.25 23.05 Q6.0 22.2 6.0 18.25 6.0 14.65 7.35 8.35 L7.45 7.8 9.9 -2.9 12.1 -2.75 13.05 -2.7 M-8.75 23.2 L-11.45 23.2 Q-10.25 20.05 -10.25 17.25 -10.25 15.05 -10.8 12.15 L-12.1 6.95 -12.2 6.6 -12.7 4.85 -12.8 4.5 -12.95 3.9 -13.35 2.35 -13.5 1.7 -14.6 -4.2 -11.6 -4.05 Q-11.15 -0.35 -9.65 4.6 L-9.2 6.2 Q-7.25 12.6 -7.25 16.35 -7.25 18.05 -8.4 21.9 L-8.75 23.2 M-4.05 20.45 L-4.4 19.25 -3.55 15.7 -2.5 12.25 -2.25 12.0 Q-1.75 12.9 -0.75 18.35 -0.75 19.35 -1.25 20.25 L-2.0 22.0 Q-3.0 22.35 -3.7 21.15 L-4.05 20.45" fill="#dad4c0" fill-rule="evenodd" stroke="none"/>
      <path d="M17.1 -22.2 L17.0 -20.7 14.35 -8.15 13.4 -4.05 13.35 -3.9 13.25 -3.45 13.05 -2.7 12.1 -2.75 13.7 -11.65 Q15.0 -18.05 17.1 -22.2 M4.5 -20.05 Q4.5 -15.45 3.55 -14.5 2.95 -16.2 2.3 -19.95 1.75 -23.15 1.75 -23.85 1.75 -25.1 2.85 -25.85 3.95 -26.6 4.25 -24.05 L4.5 -20.05" fill="#d8ac8c" fill-rule="evenodd" stroke="none"/>
    </g>
    <g id="shape1" transform="matrix(1.0, 0.0, 0.0, 1.0, 14.35, -19.45)">
      <path d="M26.3 28.25 L23.6 26.85 Q21.45 27.55 19.85 29.15 L15.1 27.9 12.6 27.05 10.25 25.85 8.65 24.85 5.8 23.1 Q5.1 22.25 4.25 22.25 3.45 22.2 2.5 22.8 0.8 23.45 -1.3 23.5 L-9.1 22.9 -11.25 22.65 -12.5 24.15 Q-13.55 26.3 -14.2 28.55 -13.7 24.3 -11.55 20.6 -10.45 21.35 -5.55 22.3 -1.35 23.1 2.7 20.8 3.4 20.4 3.95 20.45 4.45 20.5 4.85 20.85 L5.4 21.5 6.7 22.75 8.2 23.95 9.8 25.0 11.9 26.1 13.55 26.85 15.45 27.6 18.35 25.05 20.0 25.25 Q24.7 25.65 26.3 28.25" fill="#c98644" fill-rule="evenodd" stroke="none"/>
      <path d="M-14.2 28.55 Q-13.55 26.3 -12.5 24.15 L-11.25 22.65 -9.1 22.9 -1.3 23.5 Q0.8 23.45 2.5 22.8 3.45 22.2 4.25 22.25 5.1 22.25 5.8 23.1 L8.65 24.85 10.25 25.85 12.6 27.05 15.1 27.9 19.85 29.15 Q21.45 27.55 23.6 26.85 L26.3 28.25 26.9 29.65 Q25.1 31.7 22.25 31.9 L18.05 32.1 14.5 32.3 11.05 32.35 7.7 32.4 4.45 32.45 1.3 32.45 -4.4 32.3 -9.1 31.9 Q-11.9 31.8 -14.35 30.95 L-14.2 28.55 M13.55 26.85 L11.9 26.1 13.6 24.6 Q14.0 24.25 14.4 24.05 L16.35 24.65 Q15.8 25.0 15.1 25.6 L13.55 26.85 M9.8 25.0 L8.2 23.95 10.9 22.4 12.4 23.2 11.5 23.75 9.8 25.0 M6.7 22.75 L5.4 21.5 7.75 20.2 7.85 20.15 9.45 21.45 Q8.95 21.65 8.35 21.95 L6.7 22.75" fill="#b47b43" fill-rule="evenodd" stroke="none"/>
      <path d="M-14.35 30.95 Q-11.9 31.8 -9.1 31.9 L-4.4 32.3 1.3 32.45 4.45 32.45 7.7 32.4 11.05 32.35 14.5 32.3 18.05 32.1 22.25 31.9 Q25.1 31.7 26.9 29.65 L27.05 30.4 26.9 30.55 Q25.45 32.1 23.4 32.6 L19.1 32.95 18.05 33.0 4.45 33.35 Q-8.9 33.35 -14.35 31.85 L-14.35 30.95 M18.35 25.05 L15.45 27.6 13.55 26.85 15.1 25.6 Q15.8 25.0 16.35 24.65 L14.4 24.05 Q14.0 24.25 13.6 24.6 L11.9 26.1 9.8 25.0 11.5 23.75 12.4 23.2 10.9 22.4 8.2 23.95 6.7 22.75 8.35 21.95 Q8.95 21.65 9.45 21.45 L7.85 20.15 7.75 20.2 7.75 19.9 7.8 19.5 7.95 19.45 10.35 21.05 12.7 22.8 15.05 24.1 16.55 24.7 18.35 25.05" fill="#986d42" fill-rule="evenodd" stroke="none"/>
      <path d="M-14.35 31.85 Q-8.9 33.35 4.45 33.35 L18.05 33.0 19.1 32.95 23.4 32.6 Q25.45 32.1 26.9 30.55 L27.05 30.4 27.1 31.6 Q27.1 32.25 25.15 33.95 23.6 35.2 19.5 35.55 L16.95 35.65 3.9 35.7 -12.25 35.05 -13.4 34.9 Q-14.2 33.9 -14.35 31.85" fill="#af947a" fill-rule="evenodd" stroke="none"/>
    </g>
    <g id="sprite0" transform="matrix(1.0, 0.0, 0.0, 1.0, 50.0, 50.0)">
      <use ffdec:characterId="1080" height="100.0" transform="matrix(1.0, 0.0, 0.0, 1.0, -50.0, -50.0)" width="100.0" xlink:href="#shape2"/>
    </g>
    <g id="shape2" transform="matrix(1.0, 0.0, 0.0, 1.0, 50.0, 50.0)">
      <path d="M50.0 50.0 L-50.0 50.0 -50.0 -50.0 50.0 -50.0 50.0 50.0 Z" fill="none" stroke="#9900ff" stroke-linecap="round" stroke-linejoin="round" stroke-width="0.05"/>
    </g>
  </defs>
</svg>
