<?xml version="1.0" encoding="UTF-8" standalone="no"?>
<svg xmlns:ffdec="https://www.free-decompiler.com/flash" xmlns:xlink="http://www.w3.org/1999/xlink" ffdec:objectType="frame" height="70.7px" width="43.35px" xmlns="http://www.w3.org/2000/svg">
  <g transform="matrix(1.0, 0.0, 0.0, 1.0, 16.25, 35.0)">
    <use ffdec:characterId="1102" height="59.4" transform="matrix(1.0, 0.0, 0.0, 1.0, -16.25, -31.25)" width="33.85" xlink:href="#shape0"/>
  </g>
  <defs>
    <g id="shape0" transform="matrix(1.0, 0.0, 0.0, 1.0, 16.25, 31.25)">
      <path d="M17.1 -22.2 Q15.0 -18.05 13.7 -11.65 L12.1 -2.75 9.9 -2.9 6.6 -3.05 -7.8 -3.85 -11.6 -4.05 -14.6 -4.2 -15.75 -10.3 -16.2 -14.75 Q-16.45 -19.25 -14.3 -25.1 -12.2 -30.95 -10.35 -31.1 -7.2 -31.7 -4.7 -29.55 -4.2 -29.5 -3.55 -29.0 10.85 -21.95 16.35 -25.5 18.15 -25.8 17.4 -24.05 L17.4 -24.0 17.35 -23.85 17.3 -23.65 17.2 -23.05 17.1 -22.2 M4.5 -20.05 L4.25 -24.05 Q3.95 -26.6 2.85 -25.85 1.75 -25.1 1.75 -23.85 1.75 -23.15 2.3 -19.95 2.95 -16.2 3.55 -14.5 4.5 -15.45 4.5 -20.05" fill="#ebbc8d" fill-rule="evenodd" stroke="none"/>
      <path d="M-5.55 10.55 L-6.15 5.4 -6.5 3.35 -7.8 -3.85 6.6 -3.05 4.5 6.65 4.3 7.65 Q3.65 10.55 3.35 12.8 2.4 9.55 0.3 6.8 L-0.15 7.0 -0.5 8.6 0.0 9.5 -2.9 6.65 Q-2.3 6.65 -1.9 6.1 -1.5 5.5 -1.5 4.65 L-1.35 3.65 -1.8 2.85 -5.5 2.95 -5.65 4.3 -5.7 5.95 -5.75 6.5 Q-5.75 7.3 -4.75 8.25 -3.75 9.25 -3.75 9.85 -3.75 10.45 -4.35 11.2 -4.9 10.7 -5.55 10.55" fill="#c9c4b2" fill-rule="evenodd" stroke="none"/>
      <path d="M6.6 -3.05 L9.9 -2.9 7.45 7.8 7.35 8.35 6.55 12.55 5.75 12.4 3.7 14.45 3.5 13.4 3.35 12.8 Q3.65 10.55 4.3 7.65 L4.5 6.65 6.6 -3.05 M-11.6 -4.05 L-7.8 -3.85 -6.5 3.35 -6.15 5.4 -5.55 10.55 Q-6.55 10.35 -7.75 10.9 L-7.9 11.2 -9.2 6.2 -9.65 4.6 Q-11.15 -0.35 -11.6 -4.05 M5.15 17.15 L5.4 15.3 6.2 15.4 6.05 17.2 5.15 17.15" fill="#d1cbb9" fill-rule="evenodd" stroke="none"/>
      <path d="M12.1 -2.75 L13.05 -2.7 12.6 -1.05 9.95 7.6 9.6 8.8 Q8.25 13.3 7.95 17.1 L6.4 17.05 6.3 17.25 6.25 17.25 6.05 17.2 6.2 15.4 6.95 15.45 Q7.95 13.05 6.55 12.55 L7.35 8.35 7.45 7.8 9.9 -2.9 12.1 -2.75 M-10.25 17.05 Q-10.3 14.95 -10.8 12.15 L-12.1 6.95 -12.2 6.6 -12.7 4.85 -12.8 4.5 -12.95 3.9 -13.35 2.35 -13.5 1.7 -14.6 -4.2 -11.6 -4.05 Q-11.15 -0.35 -9.65 4.6 L-9.2 6.2 -7.9 11.2 -8.05 12.05 -7.75 13.4 Q-8.8 13.8 -9.0 14.85 L-9.4 16.85 -10.25 17.05" fill="#dad4c0" fill-rule="evenodd" stroke="none"/>
      <path d="M17.1 -22.2 L17.0 -20.7 14.35 -8.15 13.4 -4.05 13.35 -3.9 13.25 -3.45 13.05 -2.7 12.1 -2.75 13.7 -11.65 Q15.0 -18.05 17.1 -22.2 M4.5 -20.05 Q4.5 -15.45 3.55 -14.5 2.95 -16.2 2.3 -19.95 1.75 -23.15 1.75 -23.85 1.75 -25.1 2.85 -25.85 3.95 -26.6 4.25 -24.05 L4.5 -20.05" fill="#d8ac8c" fill-rule="evenodd" stroke="none"/>
      <path d="M7.95 17.1 L8.15 17.1 8.75 17.95 8.8 18.3 Q8.85 19.4 8.3 20.45 L6.35 19.4 6.0 18.8 Q5.85 18.3 6.0 17.8 L6.1 17.55 6.3 17.25 6.4 17.05 7.95 17.1 M-1.5 23.6 L-1.85 25.65 -2.15 25.85 -2.8 25.55 -2.75 23.2 -2.7 22.05 -2.7 22.0 Q-2.6 20.0 -3.85 20.85 L-4.7 21.6 -7.5 20.6 -6.95 20.3 -5.65 19.7 Q-5.0 19.4 -4.35 19.35 -2.55 19.0 -1.1 20.05 L-0.8 20.3 -1.5 23.6 M-7.75 10.9 Q-6.55 10.35 -5.55 10.55 -4.9 10.7 -4.35 11.2 L-3.55 12.2 Q-3.35 12.5 -3.3 12.9 L-4.2 13.9 -5.5 13.9 Q-6.3 13.7 -6.85 13.15 L-7.35 12.55 -7.75 11.95 -7.95 11.55 -7.75 10.9 M3.35 12.8 L3.5 13.4 3.7 14.45 5.75 12.4 6.55 12.55 Q7.95 13.05 6.95 15.45 L6.2 15.4 5.4 15.3 5.15 17.15 4.8 19.45 -1.35 15.25 -1.4 15.2 -1.35 15.2 -0.8 15.0 0.4 14.9 1.05 13.9 1.35 11.9 -0.15 11.55 -0.5 11.05 0.1 9.7 0.0 9.5 -0.5 8.6 -0.15 7.0 0.3 6.8 Q2.4 9.55 3.35 12.8 M-5.65 4.3 L-5.5 2.95 -1.8 2.85 -1.35 3.65 -1.5 4.65 -5.35 4.75 -5.65 4.3 M-4.9 16.6 L-4.8 16.6 -3.45 15.95 -3.0 14.7 Q-2.0 14.85 -1.3 15.5 L-0.7 16.2 Q-0.15 17.0 -0.25 17.95 L1.5 18.45 3.15 19.25 Q4.85 20.2 6.1 21.8 L6.35 22.15 6.1 22.1 3.75 21.45 1.45 20.1 -2.75 17.5 -4.25 18.35 -5.15 18.75 -5.5 18.85 -6.5 19.05 -7.6 19.0 -9.3 18.55 -7.6 17.95 -7.6 17.9 -7.4 17.8 -6.0 17.15 -4.9 16.6" fill="#ff0000" fill-rule="evenodd" stroke="none"/>
      <path d="M8.3 20.45 L7.2 23.2 7.1 23.2 5.05 23.65 4.35 23.5 3.75 21.45 6.1 22.1 6.35 22.15 6.1 21.8 Q4.85 20.2 3.15 19.25 L1.5 18.45 -0.25 17.95 Q-0.15 17.0 -0.7 16.2 L-1.3 15.5 Q-2.0 14.85 -3.0 14.7 L-3.45 15.95 -4.8 16.6 -4.9 16.6 -4.45 15.2 -5.6 15.1 Q-6.8 14.85 -7.4 14.05 L-7.75 13.4 -8.05 12.05 -7.9 11.2 -7.75 10.9 -7.95 11.55 -7.75 11.95 -7.35 12.55 -6.85 13.15 Q-6.3 13.7 -5.5 13.9 L-4.2 13.9 -3.3 12.9 -3.3 12.95 -3.45 14.35 -3.1 14.25 -1.65 14.4 -1.5 14.45 Q-1.15 14.65 -0.8 15.0 L-1.35 15.2 -1.4 15.2 -1.35 15.25 4.8 19.45 6.9 21.0 6.35 19.4 8.3 20.45 M0.85 22.8 L-1.45 23.6 -1.5 23.6 -0.8 20.3 -1.1 20.05 Q-2.55 19.0 -4.35 19.35 -5.0 19.4 -5.65 19.7 L-6.95 20.3 -7.5 20.6 -4.7 21.6 -4.5 23.55 -6.2 23.2 -7.7 22.3 -8.2 21.75 -8.3 21.65 -10.45 19.55 Q-10.9 19.2 -10.65 17.4 L-10.25 17.05 -9.4 16.85 Q-8.7 16.85 -7.9 17.5 L-7.6 17.95 -9.3 18.55 -7.6 19.0 -6.5 19.05 -5.5 18.85 -5.15 18.75 -4.25 18.35 -2.75 17.5 1.45 20.1 0.9 20.15 0.85 22.8 M-1.5 4.65 Q-1.5 5.5 -1.9 6.1 -2.3 6.65 -2.9 6.65 -4.15 7.0 -5.3 6.25 L-5.7 5.95 -5.65 4.3 -5.35 4.75 -1.5 4.65" fill="#990000" fill-rule="evenodd" stroke="none"/>
      <path d="M4.35 23.5 Q3.5 25.85 2.05 27.65 L1.6 28.15 0.7 28.05 0.85 22.8 0.9 20.15 1.45 20.1 3.75 21.45 4.35 23.5 M-2.8 25.55 L-2.95 25.55 Q-3.6 25.55 -4.05 24.95 -4.5 24.35 -4.5 23.55 L-4.7 21.6 -3.85 20.85 Q-2.6 20.0 -2.7 22.0 L-2.7 22.05 -2.75 23.2 -2.8 25.55" fill="#ffffff" fill-rule="evenodd" stroke="none"/>
      <path d="M-2.9 6.65 L0.0 9.5 0.1 9.7 -0.5 11.05 -0.15 11.55 1.35 11.9 1.05 13.9 0.4 14.9 -0.8 15.0 Q-1.15 14.65 -1.5 14.45 L-1.65 14.4 -3.1 14.25 -3.45 14.35 -3.3 12.95 -3.3 12.9 Q-3.35 12.5 -3.55 12.2 L-4.35 11.2 Q-3.75 10.45 -3.75 9.85 -3.75 9.25 -4.75 8.25 -5.75 7.3 -5.75 6.5 L-5.7 5.95 -5.3 6.25 Q-4.15 7.0 -2.9 6.65 M-7.75 13.4 L-7.4 14.05 Q-6.8 14.85 -5.6 15.1 L-4.45 15.2 -4.9 16.6 -6.0 17.15 -7.4 17.8 -7.6 17.9 -7.6 17.95 -7.9 17.5 Q-8.7 16.85 -9.4 16.85 L-9.0 14.85 Q-8.8 13.8 -7.75 13.4 M4.8 19.45 L5.15 17.15 6.05 17.2 6.25 17.25 6.3 17.25 6.1 17.55 6.0 17.8 Q5.85 18.3 6.0 18.8 L6.35 19.4 6.9 21.0 4.8 19.45" fill="#b05f56" fill-rule="evenodd" stroke="none"/>
    </g>
  </defs>
</svg>
