<?xml version="1.0" encoding="UTF-8" standalone="no"?>
<svg xmlns:ffdec="https://www.free-decompiler.com/flash" xmlns:xlink="http://www.w3.org/1999/xlink" ffdec:objectType="frame" height="70.7px" width="43.35px" xmlns="http://www.w3.org/2000/svg">
  <g transform="matrix(1.0, 0.0, 0.0, 1.0, 16.25, 35.0)">
    <use ffdec:characterId="1103" height="61.4" transform="matrix(1.0, 0.0, 0.0, 1.0, -16.25, -33.25)" width="32.15" xlink:href="#shape0"/>
  </g>
  <defs>
    <g id="shape0" transform="matrix(1.0, 0.0, 0.0, 1.0, 16.25, 33.25)">
      <path d="M3.1 -16.05 L3.15 -15.95 3.6 -14.55 3.55 -14.5 3.1 -16.05" fill="#d8ac8c" fill-rule="evenodd" stroke="none"/>
      <path d="M-14.6 -4.2 L-15.75 -10.3 -16.2 -14.75 Q-16.45 -19.25 -14.3 -25.1 L-13.2 -27.8 -9.55 -28.6 -9.05 -28.4 -9.85 -27.6 Q-10.5 -26.4 -9.7 -25.4 -7.55 -22.65 -4.45 -26.0 L-4.65 -23.95 Q-4.7 -23.4 -4.25 -22.85 L-3.9 -22.65 Q-0.4 -21.55 1.6 -18.85 L1.65 -18.8 1.95 -18.25 1.65 -18.45 0.15 -18.7 Q-1.5 -18.6 -1.95 -17.7 -2.5 -17.25 -2.5 -16.45 L-2.05 -15.1 Q-1.4 -14.0 -0.15 -14.0 0.7 -14.0 1.35 -14.6 L1.95 -15.35 2.1 -15.95 Q2.4 -16.3 2.4 -17.0 L2.4 -17.4 3.1 -16.05 3.55 -14.5 3.6 -14.55 4.6 -11.45 Q3.8 -9.4 3.45 -7.1 3.3 -6.15 2.55 -5.65 1.65 -5.1 1.75 -4.05 L1.95 -3.3 -2.25 -3.55 -7.8 -3.85 -11.6 -4.05 -14.6 -4.2 M5.85 -23.15 L5.85 -23.2 5.9 -23.2 5.85 -23.15 M4.5 -3.2 L5.45 -4.0 6.0 -4.5 6.6 -4.8 7.4 -4.85 7.8 -3.0 7.8 -2.85 6.6 -3.05 4.5 -3.2 M-9.05 -14.9 L-9.1 -15.65 -9.35 -17.6 -10.05 -17.9 Q-11.55 -18.15 -12.45 -17.0 -12.65 -16.35 -12.45 -15.8 -10.65 -11.05 -5.8 -10.25 L-5.15 -11.65 -4.85 -12.0 -4.9 -12.45 Q-6.0 -14.85 -9.05 -14.9" fill="#ebbc8d" fill-rule="evenodd" stroke="none"/>
      <path d="M-7.8 -3.85 L-6.5 3.35 -6.15 5.4 -5.55 10.55 Q-6.55 10.35 -7.75 10.9 L-7.9 11.2 -9.2 6.2 -9.65 4.6 Q-11.15 -0.35 -11.6 -4.05 L-7.8 -3.85 M3.35 12.8 Q3.65 10.55 4.3 7.65 L4.5 6.65 5.0 4.55 7.85 4.7 8.0 5.4 7.45 7.8 7.35 8.35 6.55 12.55 5.75 12.4 3.7 14.45 3.5 13.4 3.35 12.8 M6.2 15.4 L6.05 17.2 5.15 17.15 5.4 15.3 6.2 15.4" fill="#d1cbb9" fill-rule="evenodd" stroke="none"/>
      <path d="M13.05 -2.7 L12.6 -1.05 9.95 7.6 13.05 -2.7 M9.8 8.1 L9.6 8.8 Q8.25 13.3 7.95 17.1 L6.4 17.05 6.3 17.25 6.25 17.25 6.05 17.2 6.2 15.4 6.95 15.45 Q7.95 13.05 6.55 12.55 L7.35 8.35 7.45 7.8 8.0 5.4 8.0 5.45 9.8 8.1 M-10.25 17.05 Q-10.3 14.95 -10.8 12.15 L-12.1 6.95 -12.2 6.6 -12.7 4.85 -12.8 4.5 -12.95 3.9 -13.35 2.35 -13.5 1.7 -14.6 -4.2 -11.6 -4.05 Q-11.15 -0.35 -9.65 4.6 L-9.2 6.2 -7.9 11.2 -8.05 12.05 -7.75 13.4 Q-8.8 13.8 -9.0 14.85 L-9.4 16.85 -10.25 17.05" fill="#dad4c0" fill-rule="evenodd" stroke="none"/>
      <path d="M3.2 -2.8 Q3.9 -2.85 4.5 -3.2 L6.6 -3.05 6.15 -0.75 4.8 0.65 4.55 1.55 Q4.15 3.05 5.0 4.55 L4.5 6.65 4.3 7.65 Q3.65 10.55 3.35 12.8 2.4 9.55 0.3 6.8 L-0.15 7.0 -0.5 8.6 0.0 9.5 -2.9 6.65 Q-2.3 6.65 -1.9 6.1 -1.5 5.5 -1.5 4.65 L-1.35 3.65 -1.8 2.85 -5.5 2.95 -5.65 4.3 -5.7 5.95 -5.75 6.5 Q-5.75 7.3 -4.75 8.25 -3.75 9.25 -3.75 9.85 -3.75 10.45 -4.35 11.2 -4.9 10.7 -5.55 10.55 L-6.15 5.4 -6.5 3.35 -7.8 -3.85 -2.25 -3.55 -1.3 -2.05 Q-0.45 -1.0 1.0 -1.0 2.2 -1.0 3.05 -2.55 L3.2 -2.8" fill="#c9c4b2" fill-rule="evenodd" stroke="none"/>
      <path d="M13.9 -13.95 L14.3 -13.35 14.4 -13.2 15.15 -11.9 15.35 -11.35 15.45 -11.25 15.9 -9.8 15.7 -8.25 15.45 -10.0 15.25 -10.4 14.9 -10.75 14.75 -10.85 14.15 -11.25 13.7 -11.5 13.05 -11.8 Q12.05 -12.2 11.75 -13.1 L11.3 -14.65 13.7 -12.35 13.9 -13.95 M8.3 20.45 L7.2 23.2 7.1 23.2 5.05 23.65 4.35 23.5 3.75 21.45 6.1 22.1 6.35 22.15 6.1 21.8 Q4.85 20.2 3.15 19.25 L1.5 18.45 -0.25 17.95 Q-0.15 17.0 -0.7 16.2 L-1.3 15.5 Q-2.0 14.85 -3.0 14.7 L-3.45 15.95 -4.8 16.6 -4.9 16.6 -4.45 15.2 -5.6 15.1 Q-6.8 14.85 -7.4 14.05 L-7.75 13.4 -8.05 12.05 -7.9 11.2 -7.75 10.9 -7.95 11.55 -7.75 11.95 -7.35 12.55 -6.85 13.15 Q-6.3 13.7 -5.5 13.9 L-4.2 13.9 -3.3 12.9 -3.3 12.95 -3.45 14.35 -3.1 14.25 -1.65 14.4 -1.5 14.45 Q-1.15 14.65 -0.8 15.0 L-1.35 15.2 -1.4 15.2 -1.35 15.25 4.8 19.45 6.9 21.0 6.35 19.4 8.3 20.45 M0.85 22.8 L-1.45 23.6 -1.5 23.6 -0.8 20.3 -1.1 20.05 Q-2.55 19.0 -4.35 19.35 -5.0 19.4 -5.65 19.7 L-6.95 20.3 -7.5 20.6 -4.7 21.6 -4.5 23.55 -6.2 23.2 -7.7 22.3 -8.2 21.75 -8.3 21.65 -10.45 19.55 Q-10.9 19.2 -10.65 17.4 L-10.25 17.05 -9.4 16.85 Q-8.7 16.85 -7.9 17.5 L-7.6 17.95 -9.3 18.55 -7.6 19.0 -6.5 19.05 -5.5 18.85 -5.15 18.75 -4.25 18.35 -2.75 17.5 1.45 20.1 0.9 20.15 0.85 22.8 M-13.2 -27.8 L-13.15 -27.9 -13.1 -28.05 -11.5 -30.15 -11.5 -30.1 -11.4 -29.55 -9.95 -29.55 -7.8 -30.15 -6.65 -29.0 -5.45 -28.9 -4.85 -29.55 -3.3 -28.8 -3.5 -28.3 -2.5 -27.2 1.7 -27.05 1.3 -27.85 2.7 -27.2 2.8 -24.0 -0.8 -25.45 3.45 -21.7 -1.25 -22.45 4.35 -19.4 4.85 -18.55 7.1 -17.95 7.1 -17.5 6.1 -16.75 6.95 -13.85 5.65 -14.1 6.75 -11.75 7.85 -9.5 8.25 -8.95 9.45 -7.75 9.1 -6.9 9.2 -6.45 8.0 -5.8 7.8 -5.65 7.45 -5.5 6.8 -5.55 6.4 -5.65 6.35 -5.65 Q5.6 -5.85 5.2 -6.7 L4.85 -11.95 4.6 -11.45 3.6 -14.55 3.15 -15.95 3.1 -16.05 2.4 -17.4 1.95 -18.25 1.65 -18.8 1.6 -18.85 Q-0.4 -21.55 -3.9 -22.65 L-4.25 -22.85 Q-4.7 -23.4 -4.65 -23.95 L-4.45 -26.0 Q-7.55 -22.65 -9.7 -25.4 -10.5 -26.4 -9.85 -27.6 -10.0 -26.8 -9.3 -26.25 -7.8 -25.1 -6.1 -25.7 L-5.6 -27.7 -6.3 -28.2 -9.05 -28.4 -9.55 -28.6 -13.2 -27.8 M11.0 -15.35 L8.6 -18.2 8.3 -19.05 7.35 -20.05 6.5 -20.55 6.0 -21.75 7.6 -22.2 8.75 -20.7 11.45 -22.7 11.0 -15.35 M-1.95 -17.7 L-2.15 -16.95 -2.15 -16.15 Q-1.8 -15.45 -0.25 -15.45 1.4 -15.45 1.9 -15.8 L2.1 -15.95 1.95 -15.35 1.35 -14.6 Q0.7 -14.0 -0.15 -14.0 -1.4 -14.0 -2.05 -15.1 L-2.5 -16.45 Q-2.5 -17.25 -1.95 -17.7 M-5.7 5.95 L-5.65 4.3 -5.35 4.75 -1.5 4.65 Q-1.5 5.5 -1.9 6.1 -2.3 6.65 -2.9 6.65 -4.15 7.0 -5.3 6.25 L-5.7 5.95 M5.0 4.55 Q4.15 3.05 4.55 1.55 L4.8 0.65 4.7 2.5 5.1 2.8 5.35 2.95 Q7.0 3.75 8.65 2.55 L8.75 2.5 7.85 4.7 5.0 4.55 M-9.1 -15.65 L-9.05 -14.9 -9.95 -14.35 -8.95 -12.95 Q-7.45 -10.85 -5.15 -11.65 L-5.8 -10.25 Q-10.65 -11.05 -12.45 -15.8 -12.65 -16.35 -12.45 -17.0 L-12.15 -16.4 Q-10.95 -14.4 -9.1 -15.65" fill="#990000" fill-rule="evenodd" stroke="none"/>
      <path d="M3.85 -32.7 Q4.75 -32.7 5.4 -31.55 6.0 -30.45 6.0 -28.9 L3.1 -24.95 3.2 -26.0 3.2 -26.1 3.85 -32.7 M6.85 -23.95 L8.85 -22.95 9.35 -23.2 9.8 -23.4 11.4 -23.55 11.45 -22.7 8.75 -20.7 7.6 -22.2 6.0 -21.75 6.5 -20.55 7.35 -20.05 8.3 -19.05 8.6 -18.2 11.0 -15.35 11.3 -14.65 11.75 -13.1 Q12.05 -12.2 13.05 -11.8 L13.7 -11.5 14.15 -11.25 14.75 -10.85 14.9 -10.75 15.25 -10.4 15.45 -10.0 15.7 -8.25 15.7 -8.15 15.45 -7.1 14.85 -6.7 14.3 -6.0 14.3 -5.9 14.3 -5.85 13.85 -3.95 13.1 -2.75 13.05 -2.7 7.8 -2.85 7.8 -3.0 7.4 -4.85 6.6 -4.8 6.0 -4.5 5.45 -4.0 4.5 -3.2 Q3.9 -2.85 3.2 -2.8 L2.35 -2.85 2.05 -3.15 1.95 -3.3 1.75 -4.05 Q1.65 -5.1 2.55 -5.65 3.3 -6.15 3.45 -7.1 3.8 -9.4 4.6 -11.45 L4.85 -11.95 5.2 -6.7 Q5.6 -5.85 6.35 -5.65 L6.4 -5.65 6.8 -5.55 7.45 -5.5 7.8 -5.65 8.0 -5.8 9.2 -6.45 9.1 -6.9 9.45 -7.75 8.25 -8.95 7.85 -9.5 6.75 -11.75 5.65 -14.1 6.95 -13.85 6.1 -16.75 7.1 -17.5 7.1 -17.95 4.85 -18.55 4.35 -19.4 -1.25 -22.45 3.45 -21.7 -0.8 -25.45 2.8 -24.0 3.35 -23.45 3.55 -23.25 Q3.95 -22.95 4.4 -22.8 5.1 -22.65 5.85 -23.15 L5.9 -23.2 6.2 -23.7 6.85 -23.95 M7.95 17.1 L8.15 17.1 8.75 17.95 8.8 18.3 Q8.85 19.4 8.3 20.45 L6.35 19.4 6.0 18.8 Q5.85 18.3 6.0 17.8 L6.1 17.55 6.3 17.25 6.4 17.05 7.95 17.1 M-1.5 23.6 L-1.85 25.65 -2.15 25.85 -2.8 25.55 -2.75 23.2 -2.7 22.05 -2.7 22.0 Q-2.6 20.0 -3.85 20.85 L-4.7 21.6 -7.5 20.6 -6.95 20.3 -5.65 19.7 Q-5.0 19.4 -4.35 19.35 -2.55 19.0 -1.1 20.05 L-0.8 20.3 -1.5 23.6 M-11.5 -30.15 L-11.45 -30.5 -11.45 -30.55 Q-11.1 -32.15 -8.65 -31.65 -6.0 -31.2 -4.8 -29.7 L-4.8 -29.65 -4.85 -29.55 -5.45 -28.9 -6.65 -29.0 -7.8 -30.15 -9.95 -29.55 -11.4 -29.55 -11.5 -30.1 -11.5 -30.15 M-3.3 -28.8 L-3.2 -28.8 -2.0 -28.85 -0.9 -28.7 Q0.55 -28.4 1.3 -27.85 L1.7 -27.05 -2.5 -27.2 -3.5 -28.3 -3.3 -28.8 M-9.85 -27.6 L-9.05 -28.4 -6.3 -28.2 -5.6 -27.7 -6.1 -25.7 Q-7.8 -25.1 -9.3 -26.25 -10.0 -26.8 -9.85 -27.6 M2.1 -15.95 L1.9 -15.8 Q1.4 -15.45 -0.25 -15.45 -1.8 -15.45 -2.15 -16.15 L-2.15 -16.95 -1.95 -17.7 Q-1.5 -18.6 0.15 -18.7 L1.65 -18.45 1.95 -18.25 2.4 -17.4 2.4 -17.0 Q2.4 -16.3 2.1 -15.95 M-5.55 10.55 Q-4.9 10.7 -4.35 11.2 L-3.55 12.2 Q-3.35 12.5 -3.3 12.9 L-4.2 13.9 -5.5 13.9 Q-6.3 13.7 -6.85 13.15 L-7.35 12.55 -7.75 11.95 -7.95 11.55 -7.75 10.9 Q-6.55 10.35 -5.55 10.55 M-5.65 4.3 L-5.5 2.95 -1.8 2.85 -1.35 3.65 -1.5 4.65 -5.35 4.75 -5.65 4.3 M0.0 9.5 L-0.5 8.6 -0.15 7.0 0.3 6.8 Q2.4 9.55 3.35 12.8 L3.5 13.4 3.7 14.45 5.75 12.4 6.55 12.55 Q7.95 13.05 6.95 15.45 L6.2 15.4 5.4 15.3 5.15 17.15 4.8 19.45 -1.35 15.25 -1.4 15.2 -1.35 15.2 -0.8 15.0 0.4 14.9 1.05 13.9 1.35 11.9 -0.15 11.55 -0.5 11.05 0.1 9.7 0.0 9.5 M4.8 0.65 L6.15 -0.75 7.45 -0.85 8.9 -0.3 8.95 -0.25 9.1 0.6 9.1 0.75 Q9.25 1.75 8.75 2.5 L8.65 2.55 Q7.0 3.75 5.35 2.95 L5.1 2.8 4.7 2.5 4.8 0.65 M3.75 21.45 L1.45 20.1 -2.75 17.5 -4.25 18.35 -5.15 18.75 -5.5 18.85 -6.5 19.05 -7.6 19.0 -9.3 18.55 -7.6 17.95 -7.6 17.9 -7.4 17.8 -6.0 17.15 -4.9 16.6 -4.8 16.6 -3.45 15.95 -3.0 14.7 Q-2.0 14.85 -1.3 15.5 L-0.7 16.2 Q-0.15 17.0 -0.25 17.95 L1.5 18.45 3.15 19.25 Q4.85 20.2 6.1 21.8 L6.35 22.15 6.1 22.1 3.75 21.45 M-9.05 -14.9 Q-6.0 -14.85 -4.9 -12.45 L-4.85 -12.0 -5.15 -11.65 Q-7.45 -10.85 -8.95 -12.95 L-9.95 -14.35 -9.05 -14.9 M-12.45 -17.0 Q-11.55 -18.15 -10.05 -17.9 L-9.35 -17.6 -9.1 -15.65 Q-10.95 -14.4 -12.15 -16.4 L-12.45 -17.0" fill="#ff0000" fill-rule="evenodd" stroke="none"/>
      <path d="M9.95 7.6 L9.8 8.1 8.0 5.45 8.0 5.4 7.85 4.7 8.75 2.5 Q9.25 1.75 9.1 0.75 L9.1 0.6 8.95 -0.25 8.9 -0.3 7.45 -0.85 6.15 -0.75 6.6 -3.05 7.8 -2.85 13.05 -2.7 9.95 7.6 M1.95 -3.3 L2.05 -3.15 2.35 -2.85 3.2 -2.8 3.05 -2.55 Q2.2 -1.0 1.0 -1.0 -0.45 -1.0 -1.3 -2.05 L-2.25 -3.55 1.95 -3.3 M-4.35 11.2 Q-3.75 10.45 -3.75 9.85 -3.75 9.25 -4.75 8.25 -5.75 7.3 -5.75 6.5 L-5.7 5.95 -5.3 6.25 Q-4.15 7.0 -2.9 6.65 L0.0 9.5 0.1 9.7 -0.5 11.05 -0.15 11.55 1.35 11.9 1.05 13.9 0.4 14.9 -0.8 15.0 Q-1.15 14.65 -1.5 14.45 L-1.65 14.4 -3.1 14.25 -3.45 14.35 -3.3 12.95 -3.3 12.9 Q-3.35 12.5 -3.55 12.2 L-4.35 11.2 M6.05 17.2 L6.25 17.25 6.3 17.25 6.1 17.55 6.0 17.8 Q5.85 18.3 6.0 18.8 L6.35 19.4 6.9 21.0 4.8 19.45 5.15 17.15 6.05 17.2 M-7.6 17.95 L-7.9 17.5 Q-8.7 16.85 -9.4 16.85 L-9.0 14.85 Q-8.8 13.8 -7.75 13.4 L-7.4 14.05 Q-6.8 14.85 -5.6 15.1 L-4.45 15.2 -4.9 16.6 -6.0 17.15 -7.4 17.8 -7.6 17.9 -7.6 17.95" fill="#b05f56" fill-rule="evenodd" stroke="none"/>
      <path d="M2.7 -27.2 Q2.2 -29.85 2.4 -32.5 L2.6 -33.25 3.35 -33.25 3.85 -32.7 3.2 -26.1 3.2 -26.0 3.1 -24.95 6.0 -28.9 Q6.7 -27.05 6.85 -25.0 L6.85 -24.3 6.85 -23.95 6.2 -23.7 5.9 -23.2 5.85 -23.2 5.85 -23.15 Q5.1 -22.65 4.4 -22.8 3.95 -22.95 3.55 -23.25 L3.35 -23.45 2.8 -24.0 2.7 -27.2 M11.4 -23.55 L11.2 -28.7 11.9 -29.6 12.4 -28.4 Q13.6 -26.7 14.25 -24.6 L14.45 -23.8 Q15.15 -20.5 14.3 -16.25 L13.9 -13.95 13.7 -12.35 11.3 -14.65 11.0 -15.35 11.45 -22.7 11.4 -23.55 M4.35 23.5 Q3.5 25.85 2.05 27.65 L1.6 28.15 0.7 28.05 0.85 22.8 0.9 20.15 1.45 20.1 3.75 21.45 4.35 23.5 M-2.8 25.55 L-2.95 25.55 Q-3.6 25.55 -4.05 24.95 -4.5 24.35 -4.5 23.55 L-4.7 21.6 -3.85 20.85 Q-2.6 20.0 -2.7 22.0 L-2.7 22.05 -2.75 23.2 -2.8 25.55" fill="#ffffff" fill-rule="evenodd" stroke="none"/>
    </g>
  </defs>
</svg>
