<?xml version="1.0" encoding="UTF-8" standalone="no"?>
<svg xmlns:ffdec="https://www.free-decompiler.com/flash" xmlns:xlink="http://www.w3.org/1999/xlink" ffdec:objectType="frame" height="26.8px" width="19.05px" xmlns="http://www.w3.org/2000/svg">
  <g transform="matrix(1.0, 0.0, 0.0, 1.0, 9.55, 14.9)">
    <use ffdec:characterId="2260" height="26.8" transform="matrix(1.0, 0.0, 0.0, 1.0, -9.55, -14.9)" width="19.05" xlink:href="#shape0"/>
  </g>
  <defs>
    <g id="shape0" transform="matrix(1.0, 0.0, 0.0, 1.0, 9.55, 14.9)">
      <path d="M-3.1 -6.65 L-3.1 -7.05 -2.65 -6.4 -1.8 -6.15 -1.2 -6.4 Q-0.65 -6.7 -0.5 -7.25 L-0.45 -7.6 -0.5 -7.95 -0.1 -7.35 0.25 -7.85 0.5 -8.05 0.5 -8.1 Q1.2 -8.7 2.3 -9.0 L2.2 -8.25 3.45 -7.6 3.65 -6.75 4.1 -6.7 4.4 -7.35 4.65 -8.95 4.25 -9.25 4.4 -9.4 5.2 -9.95 5.45 -10.1 6.9 -10.15 7.05 -10.0 Q5.65 -9.9 5.3 -8.55 L5.15 -7.9 Q5.75 -6.35 7.25 -5.95 L7.8 -6.1 Q7.55 -4.3 6.25 -4.3 L5.45 -4.4 5.4 -4.85 Q3.95 -5.8 2.65 -4.85 L1.75 -2.35 2.65 -1.75 2.95 -1.15 3.75 -0.75 4.5 -1.25 4.35 0.65 4.0 0.9 4.7 3.95 3.65 3.75 2.8 4.3 2.2 4.0 1.15 4.7 0.75 4.75 Q0.0 4.75 -1.0 2.95 L-0.7 2.3 -0.8 1.55 Q-1.05 0.45 -2.1 -0.1 L-1.85 -0.85 -1.9 -1.05 -2.05 -1.95 -2.1 -3.0 -1.6 -4.75 -1.65 -4.75 -2.35 -4.95 -3.1 -6.5 -3.1 -6.65 M5.3 -4.05 L5.3 -3.95 Q5.3 -3.5 4.9 -3.2 L4.6 -1.5 4.4 -2.45 3.4 -3.2 Q3.0 -3.6 3.05 -3.9 L4.3 -3.8 5.3 -4.05 M4.4 7.7 L4.25 8.25 2.0 10.2 Q-0.7 13.05 -3.9 10.8 L-4.75 10.2 -2.9 9.8 -0.3 10.3 0.25 10.5 -0.1 9.75 0.4 8.55 0.55 8.2 0.9 8.05 1.05 6.75 1.1 6.25 1.15 6.25 1.1 6.2 0.95 5.9 1.15 5.6 1.2 5.55 2.0 4.85 2.05 4.8 2.1 4.75 2.1 4.8 2.15 5.9 3.5 6.35 2.85 7.4 2.2 7.6 4.4 7.7 M0.85 -6.45 Q0.95 -6.3 1.35 -6.3 L1.4 -6.3 2.3 -7.45 Q0.75 -7.5 0.75 -6.85 L0.85 -6.45 M0.25 -5.85 L-0.55 -5.6 -1.4 -1.2 0.1 0.8 -0.1 2.05 0.35 2.95 2.05 2.8 2.85 2.05 0.9 1.0 0.75 -0.65 0.4 -0.95 0.4 -1.65 -0.35 -2.55 0.85 -5.4 0.25 -5.85 M-0.45 6.55 Q-0.35 8.05 -1.85 8.3 L-2.7 8.4 -2.8 8.3 Q-3.5 7.5 -3.55 6.5 L-3.55 5.85 -3.3 6.35 Q-2.45 7.55 -0.75 6.95 L-0.45 6.55" fill="#990000" fill-rule="evenodd" stroke="none"/>
      <path d="M-3.1 -7.05 L-3.0 -7.6 -2.2 -8.05 -2.0 -8.15 -0.6 -8.05 -0.5 -7.95 -0.45 -7.6 -0.5 -7.25 Q-0.65 -6.7 -1.2 -6.4 L-1.8 -6.15 -2.65 -6.4 -3.1 -7.05 M7.05 -10.0 L7.55 -9.3 Q8.35 -7.75 7.8 -6.1 L7.25 -5.95 Q5.75 -6.35 5.15 -7.9 L5.3 -8.55 Q5.65 -9.9 7.05 -10.0 M5.45 -4.4 L5.3 -4.05 4.3 -3.8 3.05 -3.9 Q3.0 -3.6 3.4 -3.2 L4.4 -2.45 4.6 -1.5 4.5 -1.25 3.75 -0.75 2.95 -1.15 2.65 -1.75 1.75 -2.35 2.65 -4.85 Q3.95 -5.8 5.4 -4.85 L5.45 -4.4 M4.7 3.95 L4.4 4.55 4.7 5.4 Q5.15 6.6 4.4 7.7 L2.2 7.6 2.85 7.4 3.5 6.35 2.15 5.9 2.1 4.8 2.8 4.3 3.65 3.75 4.7 3.95 M4.25 -9.25 L4.65 -8.95 4.4 -7.35 4.1 -6.7 3.65 -6.75 3.45 -7.6 2.2 -8.25 2.3 -9.0 4.25 -9.25 M0.85 -6.45 L0.75 -6.85 Q0.75 -7.5 2.3 -7.45 L1.4 -6.3 1.35 -6.3 Q0.95 -6.3 0.85 -6.45 M0.25 -5.85 L0.85 -5.4 -0.35 -2.55 0.4 -1.65 0.4 -0.95 0.75 -0.65 0.9 1.0 2.85 2.05 2.05 2.8 0.35 2.95 -0.1 2.05 0.1 0.8 -1.4 -1.2 -0.55 -5.6 0.25 -5.85 M1.7 5.05 L2.05 4.8 2.0 4.85 1.7 5.05 M-1.0 2.95 L-2.3 1.85 -2.8 1.4 -3.1 1.0 -3.1 -0.15 -2.85 -0.4 -2.5 -0.35 -2.4 -0.3 -2.1 -0.1 Q-1.05 0.45 -0.8 1.55 L-0.7 2.3 -1.0 2.95 M-2.3 4.25 L-0.9 4.05 Q-0.05 4.75 -0.25 5.9 L-0.45 6.55 -0.75 6.95 Q-2.45 7.55 -3.3 6.35 L-3.55 5.85 -3.6 5.4 -3.15 4.9 -2.3 4.25" fill="#ff0000" fill-rule="evenodd" stroke="none"/>
      <path d="M-4.35 -5.7 L-3.9 -6.7 Q-3.1 -8.4 -1.65 -9.75 L-0.2 -10.95 1.05 -11.65 1.2 -11.75 1.35 -11.8 1.3 -11.85 2.8 -14.9 4.0 -12.6 4.05 -12.6 4.95 -12.65 5.05 -12.65 5.2 -12.65 6.1 -12.65 6.6 -12.6 7.2 -12.5 6.9 -11.8 6.55 -11.6 9.5 -11.45 9.5 -11.35 6.9 -10.15 5.45 -10.1 5.55 -10.45 6.2 -10.8 5.65 -11.0 4.25 -11.2 2.9 -11.05 1.6 -10.7 0.3 -10.2 -0.35 -9.9 -1.6 -9.1 -2.2 -8.05 -3.0 -7.6 -3.1 -7.05 -3.1 -6.65 -4.15 -5.3 -4.35 -5.7" fill="#ffcc66" fill-rule="evenodd" stroke="none"/>
      <path d="M-4.35 -5.7 L-4.15 -5.3 -3.1 -6.65 -3.1 -6.5 -3.7 -4.95 -3.85 -4.35 -3.9 -2.9 -3.75 -1.85 -3.45 -1.05 -4.75 2.4 -3.1 2.95 -2.85 3.1 -2.95 3.85 -3.15 4.9 -3.6 5.4 -3.55 5.85 -3.55 6.5 Q-3.5 7.5 -2.8 8.3 L-2.9 9.8 -4.75 10.2 -5.15 10.95 -7.15 11.9 -7.55 11.45 -9.55 11.2 Q-8.8 10.95 -8.15 10.15 L-7.3 8.85 -8.65 7.85 -6.2 4.3 -6.25 3.1 -6.15 1.75 -5.95 0.45 -5.65 -0.95 -5.15 -2.9 -4.65 -4.75 -4.35 -5.7 M-2.2 -8.05 L-1.6 -9.1 -0.35 -9.9 0.3 -10.2 1.6 -10.7 2.9 -11.05 4.25 -11.2 5.65 -11.0 6.2 -10.8 5.55 -10.45 5.45 -10.1 5.2 -9.95 4.4 -10.1 3.75 -10.15 0.25 -9.95 -0.2 -9.75 Q-1.3 -9.15 -2.0 -8.15 L-2.2 -8.05" fill="#feb445" fill-rule="evenodd" stroke="none"/>
      <path d="M-2.0 -8.15 Q-1.3 -9.15 -0.2 -9.75 L0.25 -9.95 3.75 -10.15 4.4 -10.1 5.2 -9.95 4.4 -9.4 4.25 -9.25 2.3 -9.0 Q1.2 -8.7 0.5 -8.1 L0.5 -8.05 0.25 -7.85 -0.1 -7.35 -0.5 -7.95 -0.6 -8.05 -2.0 -8.15 M1.2 5.55 L1.15 5.6 0.95 5.9 1.1 6.2 1.1 6.25 0.1 6.55 0.25 7.55 0.1 8.3 -1.35 9.1 -2.25 8.95 -2.7 8.4 -1.85 8.3 Q-0.35 8.05 -0.45 6.55 L-0.25 5.9 Q-0.05 4.75 -0.9 4.05 L-2.3 4.25 -2.45 3.5 -2.85 3.1 -3.1 2.95 -4.75 2.4 -3.45 -1.05 -3.75 -1.85 -3.9 -2.9 -3.85 -4.35 -3.7 -4.95 -3.1 -6.5 -2.35 -4.95 -1.65 -4.75 -1.6 -4.75 -2.1 -3.0 -2.05 -1.95 -1.9 -1.05 -1.85 -0.85 -2.1 -0.1 -2.4 -0.3 -2.5 -0.35 -2.85 -0.4 -3.1 -0.15 -3.1 1.0 -2.8 1.4 -2.3 1.85 -1.0 2.95 Q0.0 4.75 0.75 4.75 L1.15 4.7 2.2 4.0 2.8 4.3 2.1 4.8 2.1 4.75 2.05 4.8 1.7 5.05 1.2 5.55 M1.05 6.75 L0.9 8.05 0.55 8.2 0.4 8.55 0.4 8.3 0.5 7.65 0.8 7.1 1.05 6.75 M-0.1 9.75 L0.25 10.5 -0.3 10.3 -0.1 9.75" fill="#ca5821" fill-rule="evenodd" stroke="none"/>
      <path d="M-2.85 3.1 L-2.45 3.5 -2.3 4.25 -3.15 4.9 -2.95 3.85 -2.85 3.1 M-2.7 8.4 L-2.25 8.95 -1.35 9.1 0.1 8.3 0.25 7.55 0.1 6.55 1.1 6.25 1.05 6.75 0.8 7.1 0.5 7.65 0.4 8.3 0.4 8.55 -0.1 9.75 -0.3 10.3 -2.9 9.8 -2.8 8.3 -2.7 8.4" fill="#fd9802" fill-rule="evenodd" stroke="none"/>
    </g>
  </defs>
</svg>
