<?xml version="1.0" encoding="UTF-8" standalone="no"?>
<svg xmlns:ffdec="https://www.free-decompiler.com/flash" xmlns:xlink="http://www.w3.org/1999/xlink" ffdec:objectType="frame" height="89.15px" width="54.0px" xmlns="http://www.w3.org/2000/svg">
  <g transform="matrix(1.0, 0.0, 0.0, 1.0, 32.05, 40.4)">
    <use ffdec:characterId="1863" height="39.75" transform="matrix(1.0, 0.0, 0.0, 1.0, -32.05, 9.0)" width="42.15" xlink:href="#shape0"/>
    <use ffdec:characterId="1865" height="39.25" transform="matrix(1.0, 0.0, 0.0, 1.0, -17.15, -18.0)" width="33.6" xlink:href="#sprite0"/>
    <use ffdec:characterId="1111" height="100.0" id="shape" transform="matrix(0.35, 0.0, 0.0, 0.35, -17.5011, -17.5011)" width="100.0" xlink:href="#sprite1"/>
  </g>
  <defs>
    <g id="shape0" transform="matrix(1.0, 0.0, 0.0, 1.0, 32.05, -9.0)">
      <path d="M4.2 17.85 Q4.6 19.1 6.05 21.15 L7.15 22.95 8.6 25.8 Q9.55 27.8 9.7 30.2 L9.95 31.75 10.1 35.3 Q10.1 37.6 7.95 39.95 6.15 41.85 4.9 42.2 -0.8 48.75 -12.85 48.75 -17.3 48.75 -20.4 46.45 L-21.55 45.15 Q-24.25 41.95 -26.2 38.5 L-26.3 38.35 -27.0 37.2 -27.15 36.95 -30.05 32.9 Q-31.8 30.65 -32.0 27.5 -32.25 24.3 -31.25 22.45 -30.25 20.55 -29.15 19.25 -28.05 17.9 -26.6 16.9 -25.15 15.85 -23.6 15.1 L-21.3 14.0 -18.9 12.55 Q-15.15 8.5 -10.1 9.1 -5.5 9.95 -1.4 12.05 1.2 13.35 3.25 15.35 4.2 16.35 4.2 17.85" fill="#583a30" fill-rule="evenodd" stroke="none"/>
    </g>
    <g id="sprite0" transform="matrix(1.0, 0.0, 0.0, 1.0, 16.8, 18.7)">
      <use ffdec:characterId="1864" height="39.25" transform="matrix(1.0, 0.0, 0.0, 1.0, -16.8, -18.7)" width="33.6" xlink:href="#shape1"/>
    </g>
    <g id="shape1" transform="matrix(1.0, 0.0, 0.0, 1.0, 16.8, 18.7)">
      <path d="M11.3 -0.95 Q11.4 -0.4 10.95 -0.75 L10.35 -1.4 9.0 -1.25 9.05 -1.3 9.2 -1.55 9.55 -1.65 11.05 -2.35 11.9 -2.75 12.1 -2.4 11.8 -1.9 11.3 -0.95" fill="#000000" fill-rule="evenodd" stroke="none"/>
      <path d="M-13.6 -12.55 L-11.8 -14.9 Q-10.5 -16.3 -8.8 -17.15 L-6.8 -17.9 -3.5 -18.7 0.4 -18.7 Q4.0 -18.75 6.9 -17.65 9.8 -16.55 11.35 -15.55 L13.75 -13.15 14.55 -10.9 14.6 -10.1 14.7 -8.65 12.25 -8.95 13.85 -8.35 14.2 -8.15 14.7 -8.2 14.6 -6.15 11.1 -6.4 14.1 -5.7 14.55 -5.65 14.5 -5.35 14.55 -4.25 14.5 -3.95 Q14.0 -3.2 14.0 -2.4 L14.2 -1.45 15.0 -0.25 15.7 1.0 16.35 1.85 16.6 2.3 Q16.85 2.75 16.75 3.45 L16.0 4.05 15.5 4.05 14.5 3.75 13.05 3.7 12.3 3.95 Q11.8 3.85 11.95 3.25 L12.15 2.55 Q11.2 2.35 11.15 3.95 L11.2 4.15 11.3 5.1 11.55 5.6 12.15 6.25 12.5 5.55 13.1 5.7 13.15 5.7 13.8 6.25 14.6 6.55 14.7 6.25 14.7 6.3 Q15.1 6.6 15.35 7.35 L14.7 7.35 Q14.45 7.35 13.75 7.8 L13.15 8.25 12.9 8.35 12.65 8.45 12.5 8.35 12.15 8.1 11.85 8.9 11.65 9.8 12.0 9.55 12.5 9.2 12.55 9.2 12.55 9.15 13.15 8.65 13.5 8.5 13.8 8.45 13.85 8.4 14.8 8.2 14.7 8.35 15.0 8.45 15.35 8.8 15.5 9.35 15.5 9.75 15.2 10.05 12.9 9.5 13.95 11.25 14.05 12.4 14.1 13.35 13.8 14.25 13.35 15.3 13.25 15.4 Q13.65 14.85 12.95 15.1 L12.1 15.3 10.75 15.75 12.3 16.35 Q12.0 16.65 11.85 17.05 L11.6 17.55 10.8 18.55 9.45 19.45 8.0 20.0 5.3 20.5 2.4 20.35 Q1.1 20.1 -5.9 15.65 L-7.05 15.25 -8.65 14.7 Q-12.8 12.75 -15.9 10.7 L-15.95 10.5 -16.3 10.1 -16.3 9.95 -16.4 9.75 -16.8 8.15 -16.5 6.4 -16.5 6.3 Q-15.95 3.3 -14.95 3.2 L-14.9 2.95 -14.6 3.4 -12.4 3.75 Q-11.7 4.75 -10.2 4.55 -9.35 4.7 -8.55 5.0 L-7.6 5.25 -7.45 5.2 Q-7.1 5.25 -6.9 5.5 L-6.75 5.5 -6.65 4.25 -6.6 3.85 -6.55 3.7 Q-6.35 4.3 -6.3 4.85 L-6.05 6.8 -6.15 8.65 -6.2 8.95 -11.1 9.8 -7.2 10.0 -5.6 10.7 -4.85 10.9 -3.7 11.75 -2.1 12.9 -2.0 13.05 Q-2.2 12.3 -2.65 11.9 L-3.25 11.35 -3.65 10.75 -4.1 9.9 -4.05 9.05 -4.8 7.25 -4.55 6.3 -4.2 5.75 -3.95 5.35 -3.9 5.2 Q-3.45 5.05 -3.15 4.75 L-3.2 4.35 -3.2 4.3 -3.45 4.25 -3.2 4.35 -3.8 4.45 -4.35 4.5 -5.1 4.25 Q-5.6 3.5 -5.65 2.55 -5.7 2.05 -6.05 1.8 L-6.95 0.85 -7.4 0.35 -7.85 -1.45 -7.85 -2.6 -7.25 -3.9 -7.1 -4.05 -6.5 -4.3 -5.6 -4.55 -4.35 -4.25 -3.3 -3.6 -2.1 -2.35 -1.95 0.15 -1.75 1.15 0.7 1.2 Q1.1 0.15 0.9 -1.3 L0.65 -2.7 0.35 -4.7 0.25 -5.5 Q0.7 -5.8 0.5 -6.2 L0.35 -6.5 0.45 -7.55 0.85 -8.05 1.1 -9.75 0.05 -11.0 -0.95 -11.8 -2.25 -12.45 -3.6 -13.0 -5.3 -13.15 -6.45 -13.15 -8.1 -12.85 -8.6 -12.9 -9.25 -12.7 -13.6 -12.55 M0.95 -11.95 Q1.2 -11.35 1.6 -10.8 2.3 -9.8 2.6 -10.7 2.55 -11.55 1.7 -11.95 1.2 -12.2 0.95 -11.95 M8.8 -12.7 L8.45 -12.55 8.3 -12.2 8.45 -11.85 8.8 -11.7 9.15 -11.85 9.3 -12.2 9.15 -12.55 8.8 -12.7 M4.5 -9.0 L4.85 -4.05 4.85 -3.5 5.0 -3.45 Q5.5 -3.45 6.05 -3.85 6.2 -4.55 5.85 -5.3 L5.6 -5.95 5.15 -7.85 4.85 -8.45 4.5 -9.0 M6.15 -2.55 L5.4 -1.95 4.75 -1.55 5.05 -1.25 5.55 -0.95 5.55 -0.85 Q7.0 -0.1 7.85 0.85 L8.4 0.25 8.6 0.35 9.15 0.3 9.85 0.35 11.1 0.0 11.55 -0.3 11.8 -0.35 11.9 -0.4 Q12.2 -0.15 12.45 -0.15 12.9 -0.15 13.3 -1.0 L13.55 -1.85 13.6 -2.05 13.55 -2.2 13.75 -2.65 13.75 -2.75 13.6 -3.1 13.25 -3.55 13.4 -4.0 13.35 -4.15 Q12.65 -4.8 12.0 -4.85 L11.35 -4.9 10.45 -5.15 9.8 -4.7 9.0 -4.95 8.8 -4.9 8.5 -4.7 8.4 -4.55 7.3 -4.35 6.7 -4.15 6.55 -3.95 6.5 -3.75 5.85 -3.4 5.45 -3.25 5.45 -3.05 6.45 -3.0 6.15 -2.55 M10.95 12.35 L10.8 12.0 10.45 12.45 9.65 13.3 9.25 13.55 Q8.4 14.2 7.35 14.6 L3.45 15.4 2.25 15.05 0.8 15.1 0.95 15.2 1.75 15.5 2.15 15.9 4.5 16.15 8.65 16.55 9.4 15.75 10.05 15.6 9.85 14.8 10.7 13.95 10.7 13.8 10.95 12.35 M1.35 5.3 L-0.05 4.85 1.8 7.2 2.0 7.55 1.65 9.4 1.05 11.05 2.25 10.15 Q2.6 10.45 3.0 10.35 L3.6 10.65 Q4.2 10.35 4.65 9.2 L5.4 7.4 5.9 6.35 4.5 7.35 4.05 8.0 Q3.25 8.35 2.9 7.5 L2.0 6.05 1.35 5.3 M-1.8 -14.45 Q-1.1 -14.1 -1.3 -14.85 L-1.6 -14.95 Q-2.3 -14.7 -1.8 -14.45 M-7.25 -0.65 L-6.95 -1.5 Q-6.25 -2.15 -5.35 -2.25 L-5.0 -1.7 -4.75 -0.8 -5.25 0.2 -5.15 0.9 -4.6 1.5 -4.8 2.25 -4.1 2.55 -3.65 2.6 -3.5 2.3 Q-3.4 1.65 -3.8 0.9 L-4.15 0.85 -4.5 0.5 -3.9 -0.65 -3.35 -0.7 Q-3.45 -2.75 -5.25 -3.4 L-7.25 -2.7 Q-7.75 -1.65 -7.25 -0.65" fill="#583a30" fill-rule="evenodd" stroke="none"/>
      <path d="M-6.95 0.85 L-6.05 1.8 Q-5.7 2.05 -5.65 2.55 -5.6 3.5 -5.1 4.25 L-4.35 4.5 -3.8 4.45 -3.2 4.35 Q-3.2 4.75 -3.4 4.75 L-4.45 5.15 -4.65 5.5 -4.85 5.95 -5.15 7.55 -5.3 6.2 Q-5.35 5.3 -5.7 4.6 L-5.9 3.9 Q-5.95 3.05 -6.4 2.15 L-6.95 0.85 M12.3 16.35 L10.75 15.75 12.1 15.3 12.95 15.1 Q13.65 14.85 13.25 15.4 L12.3 16.35 M14.8 8.2 L13.85 8.4 13.8 8.45 13.5 8.5 13.15 8.65 12.55 9.15 12.55 9.2 12.5 9.2 12.65 8.45 12.9 8.35 13.15 8.25 13.75 7.8 Q14.45 7.35 14.7 7.35 L15.35 7.35 Q15.35 8.2 14.8 8.2 M14.7 6.25 L14.6 6.55 13.8 6.25 13.15 5.7 13.1 5.7 12.5 5.55 12.2 5.2 11.95 4.75 12.15 4.85 12.25 4.85 12.55 4.7 12.6 4.25 13.05 3.7 14.5 3.75 15.5 4.05 16.0 4.05 16.75 3.45 Q16.4 4.35 15.55 4.85 14.7 5.35 14.7 5.7 14.55 5.95 14.7 6.25 M8.8 -12.7 L9.15 -12.55 9.3 -12.2 9.15 -11.85 8.8 -11.7 8.45 -11.85 8.3 -12.2 8.45 -12.55 8.8 -12.7 M0.95 -11.95 Q1.2 -12.2 1.7 -11.95 2.55 -11.55 2.6 -10.7 2.3 -9.8 1.6 -10.8 1.2 -11.35 0.95 -11.95 M11.55 -0.3 L11.3 -0.95 11.8 -1.9 11.75 -1.1 11.8 -0.35 11.55 -0.3 M9.2 -1.55 L7.5 -2.15 6.15 -2.55 6.45 -3.0 7.85 -3.4 9.55 -3.65 11.4 -3.75 12.55 -3.55 Q12.85 -3.3 13.25 -3.55 L13.6 -3.1 13.75 -2.75 13.75 -2.65 13.55 -2.2 13.6 -2.05 13.55 -1.85 12.8 -1.25 12.1 -2.4 11.9 -2.75 11.7 -3.05 Q11.0 -2.85 10.2 -2.25 L9.55 -1.65 9.2 -1.55 M15.3 4.45 L15.3 4.4 13.7 3.85 13.4 4.05 13.15 4.25 12.9 4.75 14.3 5.1 Q15.15 5.3 15.3 4.45 M-1.8 -14.45 Q-2.3 -14.7 -1.6 -14.95 L-1.3 -14.85 Q-1.1 -14.1 -1.8 -14.45 M-7.25 -0.65 Q-7.75 -1.65 -7.25 -2.7 L-5.25 -3.4 Q-3.45 -2.75 -3.35 -0.7 L-3.9 -0.65 -4.5 0.5 -4.15 0.85 -3.8 0.9 Q-3.4 1.65 -3.5 2.3 L-3.65 2.6 -4.1 2.55 -4.8 2.25 -4.6 1.5 -5.15 0.9 -5.25 0.2 -4.75 -0.8 -5.0 -1.7 -5.35 -2.25 Q-6.25 -2.15 -6.95 -1.5 L-7.25 -0.65" fill="#34221c" fill-rule="evenodd" stroke="none"/>
      <path d="M-13.6 -12.55 L-9.25 -12.7 -9.45 -12.25 -9.35 -12.25 -11.85 -12.1 -11.85 -11.45 Q-12.5 -12.45 -13.4 -11.9 -13.45 -11.15 -12.7 -10.75 -12.25 -10.55 -12.05 -11.0 L-11.85 -11.35 Q-10.9 -11.1 -10.2 -11.55 L-9.75 -11.75 -8.1 -11.7 -7.95 -11.65 -7.6 -12.05 -7.2 -11.9 -5.75 -12.5 -6.3 -12.75 -6.85 -12.55 -7.2 -12.8 -8.1 -12.85 -6.45 -13.15 -5.3 -13.15 -3.6 -13.0 -2.25 -12.45 -0.95 -11.8 0.05 -11.0 1.1 -9.75 0.85 -8.05 0.45 -7.55 0.35 -6.5 -0.35 -9.1 -0.75 -9.15 Q-1.8 -9.1 -1.55 -8.25 L-1.45 -8.2 Q-0.1 -8.8 -0.45 -7.75 L-1.0 -7.45 -1.1 -7.4 -2.25 -7.65 Q-2.4 -7.25 -2.65 -7.55 -3.25 -8.35 -3.45 -7.65 L-3.75 -7.65 -3.7 -7.55 -4.15 -7.4 -4.65 -7.3 -4.75 -6.75 -5.45 -6.55 -4.25 -6.4 -3.65 -6.9 -3.4 -7.05 -1.8 -5.65 -1.85 -5.3 -2.4 -5.25 -3.65 -5.3 -4.1 -5.65 Q-3.85 -6.0 -4.35 -6.0 -7.1 -5.55 -6.6 -7.8 L-5.85 -7.15 -5.3 -7.05 Q-5.4 -8.35 -4.7 -8.1 L-3.8 -8.25 -3.8 -8.8 Q-3.85 -9.75 -4.25 -8.95 -4.75 -8.85 -4.8 -9.55 L-6.35 -9.3 -6.45 -8.8 -7.4 -8.65 -7.7 -9.35 -6.95 -9.2 Q-6.7 -9.2 -6.7 -9.5 L-7.3 -10.7 Q-7.8 -9.3 -7.65 -9.95 -8.25 -10.45 -8.95 -9.8 L-11.1 -9.75 -11.2 -9.15 -11.8 -8.55 -11.5 -7.9 -12.35 -8.2 -12.1 -9.15 -13.1 -9.75 -14.0 -9.35 -14.45 -8.5 -13.1 -8.5 -13.25 -8.1 -13.6 -7.85 -13.0 -7.35 -13.05 -6.9 -11.65 -7.0 -11.45 -7.5 -10.4 -7.4 -10.4 -6.35 -10.25 -6.2 Q-8.65 -6.6 -8.2 -5.45 -8.25 -5.3 -8.35 -5.4 L-10.65 -5.1 Q-10.75 -5.1 -10.85 -5.2 L-11.0 -5.3 -11.65 -4.15 -12.95 -4.3 -13.7 -3.65 -14.3 -3.65 -14.75 -3.35 -14.9 -4.3 -14.55 -4.65 -14.85 -4.7 -15.8 -5.55 -16.35 -6.15 -16.15 -6.95 -16.5 -7.8 -16.3 -8.2 -16.5 -8.75 -15.9 -9.85 -15.95 -10.0 -15.8 -10.5 -15.2 -10.65 -15.15 -10.75 -15.0 -11.6 -14.7 -11.95 Q-14.3 -12.5 -13.6 -12.55 M5.85 -3.4 L6.5 -3.75 6.55 -3.95 6.7 -4.15 7.3 -4.35 8.4 -4.55 8.5 -4.7 8.8 -4.9 9.0 -4.95 9.8 -4.7 10.45 -5.15 11.35 -4.9 12.0 -4.85 Q12.65 -4.8 13.35 -4.15 L12.25 -4.2 9.05 -4.05 7.75 -3.65 5.85 -3.4 M-4.7 -12.4 Q-4.8 -11.8 -4.1 -11.45 L-3.35 -10.75 Q-2.75 -10.5 -2.25 -10.75 -2.0 -11.35 -1.85 -10.8 L-1.6 -10.5 -1.45 -10.45 Q-0.5 -10.3 -0.75 -11.4 L-0.85 -11.6 Q-1.25 -11.9 -1.8 -11.6 L-2.05 -11.2 Q-2.75 -12.25 -4.05 -12.05 -4.4 -11.9 -4.55 -12.4 L-4.7 -12.4 M-14.65 -8.45 L-15.45 -8.3 -15.75 -7.15 -14.65 -6.8 -14.65 -8.45 M-13.65 -6.9 L-14.3 -4.9 -13.9 -5.05 -13.4 -5.2 -13.4 -5.45 -13.45 -5.65 -13.4 -6.3 -13.65 -6.9 M-11.15 -6.4 L-11.6 -6.85 -12.5 -5.35 -12.0 -4.75 -11.85 -5.15 -11.15 -6.4 M-10.3 -7.65 L-10.5 -8.05 Q-10.75 -8.3 -9.75 -8.75 L-8.5 -8.95 Q-8.35 -8.8 -8.5 -8.45 L-8.7 -8.1 -9.25 -7.3 Q-9.45 -7.15 -9.7 -7.15 L-9.8 -7.15 -10.1 -7.3 -10.3 -7.65 M-10.9 -4.05 L-10.4 -3.7 -10.6 -2.25 -11.7 -2.35 -11.55 -3.8 -10.9 -4.05" fill="#6b6b6b" fill-rule="evenodd" stroke="none"/>
      <path d="M-9.25 -12.7 L-8.6 -12.9 -8.1 -12.85 -7.2 -12.8 -6.85 -12.55 -6.3 -12.75 -5.75 -12.5 -7.2 -11.9 -7.6 -12.05 -7.95 -11.65 -8.1 -11.7 -9.75 -11.75 -10.2 -11.55 Q-10.9 -11.1 -11.85 -11.35 L-12.05 -11.0 Q-12.25 -10.55 -12.7 -10.75 -13.45 -11.15 -13.4 -11.9 -12.5 -12.45 -11.85 -11.45 L-11.85 -12.1 -9.35 -12.25 -9.45 -12.25 -9.25 -12.7 M-4.7 -12.4 L-4.55 -12.4 Q-4.4 -11.9 -4.05 -12.05 -2.75 -12.25 -2.05 -11.2 L-1.8 -11.6 Q-1.25 -11.9 -0.85 -11.6 L-0.75 -11.4 Q-0.5 -10.3 -1.45 -10.45 L-1.6 -10.5 -1.85 -10.8 Q-2.0 -11.35 -2.25 -10.75 -2.75 -10.5 -3.35 -10.75 L-4.1 -11.45 Q-4.8 -11.8 -4.7 -12.4" fill="#cccccc" fill-rule="evenodd" stroke="none"/>
      <path d="M0.35 -6.5 L0.5 -6.2 Q0.7 -5.8 0.25 -5.5 L0.35 -4.7 0.65 -2.7 0.9 -1.3 Q1.1 0.15 0.7 1.2 L-1.75 1.15 -1.95 0.15 -2.1 -2.35 -3.3 -3.6 -4.35 -4.25 -5.6 -4.55 -6.5 -4.3 -7.1 -4.05 -7.25 -3.9 -7.85 -2.6 -7.85 -1.45 -7.4 0.35 -6.95 1.9 -6.95 2.45 -6.9 2.6 -6.55 3.7 -6.6 3.85 -6.65 4.25 -6.75 5.5 -6.9 5.5 Q-7.1 5.25 -7.45 5.2 L-7.6 5.25 -8.55 5.0 Q-9.35 4.7 -10.2 4.55 -11.7 4.75 -12.4 3.75 L-14.6 3.4 -14.9 2.95 -15.0 2.6 -14.95 1.85 -15.95 -0.35 -16.25 -1.6 -16.5 -2.9 -16.75 -4.7 -16.7 -4.85 -16.55 -4.9 -16.4 -4.95 -16.55 -6.75 -16.15 -6.95 -16.35 -6.15 -15.8 -5.55 -14.85 -4.7 -14.55 -4.65 -14.9 -4.3 -14.75 -3.35 -14.3 -3.65 -13.7 -3.65 -12.95 -4.3 -11.65 -4.15 -11.0 -5.3 -10.85 -5.2 Q-10.75 -5.1 -10.65 -5.1 L-8.35 -5.4 Q-8.25 -5.3 -8.2 -5.45 -8.65 -6.6 -10.25 -6.2 L-10.4 -6.35 -10.4 -7.4 -11.45 -7.5 -11.65 -7.0 -13.05 -6.9 -13.0 -7.35 -13.6 -7.85 -13.25 -8.1 -13.1 -8.5 -14.45 -8.5 -14.0 -9.35 -13.1 -9.75 -12.1 -9.15 -12.35 -8.2 -11.5 -7.9 -11.8 -8.55 -11.2 -9.15 -11.1 -9.75 -8.95 -9.8 Q-8.25 -10.45 -7.65 -9.95 -7.8 -9.3 -7.3 -10.7 L-6.7 -9.5 Q-6.7 -9.2 -6.95 -9.2 L-7.7 -9.35 -7.4 -8.65 -6.45 -8.8 -6.35 -9.3 -4.8 -9.55 Q-4.75 -8.85 -4.25 -8.95 -3.85 -9.75 -3.8 -8.8 L-3.8 -8.25 -4.7 -8.1 Q-5.4 -8.35 -5.3 -7.05 L-5.85 -7.15 -6.6 -7.8 Q-7.1 -5.55 -4.35 -6.0 -3.85 -6.0 -4.1 -5.65 L-3.65 -5.3 -2.4 -5.25 -1.85 -5.3 -1.8 -5.65 -3.4 -7.05 -3.65 -6.9 -4.25 -6.4 -5.45 -6.55 -4.75 -6.75 -4.65 -7.3 -4.15 -7.4 -3.7 -7.55 -3.75 -7.65 -3.45 -7.65 Q-3.25 -8.35 -2.65 -7.55 -2.4 -7.25 -2.25 -7.65 L-1.1 -7.4 -1.0 -7.45 -0.45 -7.75 Q-0.1 -8.8 -1.45 -8.2 L-1.55 -8.25 Q-1.8 -9.1 -0.75 -9.15 L-0.35 -9.1 0.35 -6.5 M6.45 -3.0 L5.45 -3.05 5.45 -3.25 5.85 -3.4 7.75 -3.65 9.05 -4.05 12.25 -4.2 13.35 -4.15 13.4 -4.0 13.25 -3.55 Q12.85 -3.3 12.55 -3.55 L11.4 -3.75 9.55 -3.65 7.85 -3.4 6.45 -3.0 M-13.65 -6.9 L-13.4 -6.3 -13.45 -5.65 -13.4 -5.45 -13.4 -5.2 -13.9 -5.05 -14.3 -4.9 -13.65 -6.9 M-14.65 -8.45 L-14.65 -6.8 -15.75 -7.15 -15.45 -8.3 -14.65 -8.45 M-10.3 -7.65 L-10.1 -7.3 -9.8 -7.15 -9.7 -7.15 Q-9.45 -7.15 -9.25 -7.3 L-8.7 -8.1 -8.5 -8.45 Q-8.35 -8.8 -8.5 -8.95 L-9.75 -8.75 Q-10.75 -8.3 -10.5 -8.05 L-10.3 -7.65 M-11.15 -6.4 L-11.85 -5.15 -12.0 -4.75 -12.5 -5.35 -11.6 -6.85 -11.15 -6.4 M-10.9 -4.05 L-11.55 -3.8 -11.7 -2.35 -10.6 -2.25 -10.4 -3.7 -10.9 -4.05" fill="#464646" fill-rule="evenodd" stroke="none"/>
      <path d="M4.5 -9.0 L4.85 -8.45 5.15 -7.85 5.6 -5.95 5.85 -5.3 Q6.2 -4.55 6.05 -3.85 5.5 -3.45 5.0 -3.45 L4.85 -3.5 4.85 -4.05 4.5 -9.0 M1.35 5.3 L2.0 6.05 2.9 7.5 Q3.25 8.35 4.05 8.0 L4.5 7.35 5.9 6.35 5.4 7.4 4.65 9.2 Q4.2 10.35 3.6 10.65 L3.0 10.35 Q2.6 10.45 2.25 10.15 L1.05 11.05 1.65 9.4 2.0 7.55 1.8 7.2 -0.05 4.85 1.35 5.3" fill="#4e332a" fill-rule="evenodd" stroke="none"/>
      <path d="M-7.4 0.35 L-6.95 0.85 -6.4 2.15 Q-5.95 3.05 -5.9 3.9 L-5.7 4.6 Q-5.35 5.3 -5.3 6.2 L-5.15 7.55 -4.85 5.95 -4.65 5.5 -4.45 5.15 -3.4 4.75 Q-3.2 4.75 -3.2 4.35 L-3.45 4.25 -3.2 4.3 -3.2 4.35 -3.15 4.75 Q-3.45 5.05 -3.9 5.2 L-3.95 5.35 -4.2 5.75 -4.55 6.3 -4.8 7.25 -4.05 9.05 -4.1 9.9 -3.65 10.75 -3.25 11.35 -2.65 11.9 Q-2.2 12.3 -2.0 13.05 L-2.1 12.9 -3.7 11.75 -4.85 10.9 -5.6 10.7 -7.2 10.0 -11.1 9.8 -6.2 8.95 -6.15 8.65 -6.05 6.8 -6.3 4.85 Q-6.35 4.3 -6.55 3.7 L-6.9 2.6 -6.95 2.45 -6.95 1.9 -7.4 0.35 M13.95 11.25 L12.9 9.5 15.2 10.05 15.5 9.75 Q15.35 10.45 14.1 10.85 L13.95 11.25 M12.5 9.2 L12.0 9.55 11.65 9.8 11.85 8.9 12.15 8.1 12.5 8.35 12.65 8.45 12.5 9.2 M12.5 5.55 L12.15 6.25 11.55 5.6 11.3 5.1 11.2 4.15 11.15 3.95 Q11.2 2.35 12.15 2.55 L11.95 3.25 Q11.8 3.85 12.3 3.95 L13.05 3.7 12.6 4.25 12.55 4.7 12.25 4.85 12.15 4.85 11.95 4.75 12.2 5.2 12.5 5.55 M14.55 -5.65 L14.1 -5.7 11.1 -6.4 14.6 -6.15 14.55 -5.65 M14.7 -8.2 L14.2 -8.15 13.85 -8.35 12.25 -8.95 14.7 -8.65 14.7 -8.2 M11.55 -0.3 L11.1 0.0 9.85 0.35 9.15 0.3 8.6 0.35 8.4 0.25 7.85 0.85 Q7.0 -0.1 5.55 -0.85 L5.55 -0.95 5.05 -1.25 4.75 -1.55 5.4 -1.95 6.15 -2.55 7.5 -2.15 9.2 -1.55 9.05 -1.3 9.0 -1.25 10.35 -1.4 10.95 -0.75 Q11.4 -0.4 11.3 -0.95 L11.55 -0.3 M13.55 -1.85 L13.3 -1.0 Q12.9 -0.15 12.45 -0.15 12.2 -0.15 11.9 -0.4 L11.8 -0.35 11.75 -1.1 11.8 -1.9 12.1 -2.4 12.8 -1.25 13.55 -1.85 M9.55 -1.65 L10.2 -2.25 Q11.0 -2.85 11.7 -3.05 L11.9 -2.75 11.05 -2.35 9.55 -1.65 M10.95 12.35 L10.7 13.8 10.7 13.95 9.85 14.8 10.05 15.6 9.4 15.75 8.65 16.55 4.5 16.15 2.15 15.9 1.75 15.5 0.95 15.2 0.8 15.1 2.25 15.05 3.45 15.4 7.35 14.6 Q8.4 14.2 9.25 13.55 L9.65 13.3 10.45 12.45 10.8 12.0 10.95 12.35" fill="#462e26" fill-rule="evenodd" stroke="none"/>
      <path d="M15.3 4.45 Q15.15 5.3 14.3 5.1 L12.9 4.75 13.15 4.25 13.4 4.05 13.7 3.85 15.3 4.4 15.3 4.45" fill="#231713" fill-rule="evenodd" stroke="none"/>
    </g>
    <g id="sprite1" transform="matrix(1.0, 0.0, 0.0, 1.0, 50.0, 50.0)">
      <use ffdec:characterId="1110" height="100.0" transform="matrix(1.0, 0.0, 0.0, 1.0, -50.0, -50.0)" width="100.0" xlink:href="#shape2"/>
    </g>
    <g id="shape2" transform="matrix(1.0, 0.0, 0.0, 1.0, 50.0, 50.0)">
      <path d="M35.35 -35.35 Q50.0 -20.7 50.0 0.0 50.0 20.7 35.35 35.35 20.7 50.0 0.0 50.0 -20.7 50.0 -35.35 35.35 -50.0 20.7 -50.0 0.0 -50.0 -20.7 -35.35 -35.35 -20.7 -50.0 0.0 -50.0 20.7 -50.0 35.35 -35.35 Z" fill="none" stroke="#9900ff" stroke-linecap="round" stroke-linejoin="round" stroke-width="0.05"/>
    </g>
  </defs>
</svg>
