<?xml version="1.0" encoding="UTF-8" standalone="no"?>
<svg xmlns:ffdec="https://www.free-decompiler.com/flash" xmlns:xlink="http://www.w3.org/1999/xlink" ffdec:objectType="frame" height="87.15px" width="41.5px" xmlns="http://www.w3.org/2000/svg">
  <g transform="matrix(1.0, 0.0, 0.0, 1.0, 24.3, 44.7)">
    <use ffdec:characterId="2441" height="87.15" transform="matrix(1.0, 0.0, 0.0, 1.0, -19.9, -44.7)" width="37.1" xlink:href="#shape0"/>
    <use ffdec:characterId="1081" height="100.0" id="shape" transform="matrix(0.3, 0.0, 0.0, 0.82, -14.9994, -40.9988)" width="100.0" xlink:href="#sprite0"/>
  </g>
  <defs>
    <g id="shape0" transform="matrix(1.0, 0.0, 0.0, 1.0, 19.9, 44.7)">
      <path d="M3.2 -43.15 L4.15 -42.5 Q5.1 -42.1 5.65 -40.8 6.6 -36.05 4.4 -31.8 L4.35 -28.0 Q4.3 -25.05 1.0 -24.45 0.9 -32.8 1.35 -41.3 L2.3 -41.95 2.5 -42.85 3.2 -43.15 M3.7 -19.2 L1.95 -19.05 1.2 -20.9 -0.25 -21.6 0.0 -22.4 1.3 -23.1 4.1 -22.85 3.7 -19.2 M2.95 -13.4 L2.3 -13.0 1.0 -15.05 -0.3 -15.85 -0.35 -16.3 -1.05 -16.7 2.55 -18.3 4.15 -18.0 Q5.3 -15.1 2.95 -13.4 M4.55 -7.0 Q5.1 2.55 3.75 12.2 2.55 20.95 -4.55 24.55 L-6.05 25.15 -5.1 21.9 -5.3 21.35 Q-1.1 14.05 0.25 5.1 1.35 -1.75 1.55 -8.85 L-0.1 -8.85 0.5 -10.15 1.45 -10.45 1.65 -11.35 2.05 -11.55 4.35 -11.4 4.55 -10.5 5.45 -7.85 4.55 -7.0 M0.2 23.0 L-0.65 24.4 -1.15 24.65 -1.15 25.4 -3.55 29.25 -5.0 29.6 -5.5 27.1 Q-2.75 24.35 0.5 22.35 L0.2 23.0 M-6.5 33.1 L-6.55 32.5 -6.35 32.05 Q-6.15 31.8 -5.9 31.85 L-5.55 32.15 -5.45 32.7 Q-5.5 33.05 -5.7 33.2 L-6.15 33.35 -6.5 33.1" fill="#5c617c" fill-rule="evenodd" stroke="none"/>
      <path d="M-13.5 -38.65 L-13.3 -38.45 Q-14.0 -37.95 -15.4 -33.0 -16.8 -27.95 -15.8 -16.4 L-15.1 -9.1 Q-13.2 -3.35 -12.35 2.6 L-12.0 5.85 -11.75 8.25 -11.3 13.75 -12.35 15.35 -12.65 15.3 -12.7 15.25 -12.7 14.9 -12.9 13.0 -14.5 5.45 -17.65 -9.5 -19.05 -15.25 Q-21.15 -23.0 -18.2 -30.65 -16.45 -35.25 -13.5 -38.65 M12.75 14.2 Q11.0 21.05 9.45 25.2 L9.25 26.5 Q8.8 29.65 7.35 32.75 5.6 36.4 3.15 37.3 L4.25 38.65 Q4.1 39.6 2.7 40.9 1.1 42.55 -0.7 42.3 -3.2 41.9 -4.65 41.0 -6.2 40.05 -6.0 38.8 L-5.65 37.9 -4.55 37.95 -4.5 36.75 -4.55 35.6 Q-4.1 32.9 -2.5 33.0 L-2.55 30.0 Q-2.35 28.85 0.2 27.1 L3.45 24.45 4.85 21.7 Q6.05 19.25 6.15 18.45 6.4 17.15 5.7 11.05 6.85 7.5 7.4 4.0 8.05 -0.15 6.9 -8.65 6.55 -11.65 6.9 -12.65 7.3 -13.6 8.85 -14.6 L9.75 -15.3 9.5 -15.35 9.4 -15.3 6.15 -15.0 5.8 -17.45 Q6.2 -18.85 12.0 -18.55 7.5 -20.3 5.55 -20.65 L5.5 -20.8 Q5.5 -22.8 5.3 -23.2 8.25 -23.7 11.65 -23.2 L12.1 -23.2 12.15 -23.45 5.55 -25.95 5.6 -28.4 5.7 -29.65 6.15 -33.15 7.3 -39.15 Q6.8 -41.05 5.25 -43.0 L4.9 -43.5 6.5 -42.8 Q11.15 -40.55 13.9 -36.3 L15.0 -34.35 15.05 -34.25 Q18.1 -27.9 16.85 -21.1 L15.45 -10.0 15.3 -8.0 14.55 0.35 14.1 4.45 13.6 8.2 Q13.8 9.2 13.45 11.35 L12.75 14.2 M5.2 6.6 L5.2 6.45 5.25 6.4 5.2 6.6 M-12.15 10.4 L-12.3 10.35 -12.15 10.55 -12.15 10.4" fill="#9299a9" fill-rule="evenodd" stroke="none"/>
      <path d="M-13.5 -38.65 L-11.05 -41.1 -9.2 -42.55 Q-6.7 -44.35 -3.65 -44.7 L3.8 -44.35 4.9 -43.5 5.25 -43.0 Q6.8 -41.05 7.3 -39.15 L6.15 -33.15 5.7 -29.65 5.6 -28.4 5.55 -25.95 12.15 -23.45 12.1 -23.2 11.65 -23.2 Q8.25 -23.7 5.3 -23.2 5.5 -22.8 5.5 -20.8 L5.55 -20.65 Q7.5 -20.3 12.0 -18.55 6.2 -18.85 5.8 -17.45 L6.15 -15.0 9.4 -15.3 9.5 -15.35 9.75 -15.3 8.85 -14.6 Q7.3 -13.6 6.9 -12.65 6.55 -11.65 6.9 -8.65 8.05 -0.15 7.4 4.0 6.85 7.5 5.7 11.05 6.4 17.15 6.15 18.45 6.05 19.25 4.85 21.7 L3.45 24.45 0.2 27.1 Q-2.35 28.85 -2.55 30.0 L-2.5 33.0 Q-4.1 32.9 -4.55 35.6 L-4.5 36.75 -4.55 37.95 -5.65 37.9 -6.0 38.8 Q-6.2 40.05 -4.65 41.0 -3.2 41.9 -0.7 42.3 1.1 42.55 2.7 40.9 4.1 39.6 4.25 38.65 L3.15 37.3 Q5.6 36.4 7.35 32.75 8.8 29.65 9.25 26.5 L9.45 25.2 Q11.0 21.05 12.75 14.2 L12.5 16.15 Q11.75 23.85 9.75 30.35 5.8 43.45 -1.35 42.35 -7.95 41.3 -10.65 38.7 -12.95 36.5 -13.2 32.4 L-12.6 23.8 Q-12.2 19.2 -12.65 15.3 L-12.35 15.35 -11.3 13.75 -11.75 8.25 -12.0 5.85 -12.35 2.6 Q-13.2 -3.35 -15.1 -9.1 L-15.8 -16.4 Q-16.8 -27.95 -15.4 -33.0 -14.0 -37.95 -13.3 -38.45 L-13.5 -38.65 M3.2 -43.15 L2.5 -42.85 2.3 -41.95 1.35 -41.3 Q0.9 -32.8 1.0 -24.45 4.3 -25.05 4.35 -28.0 L4.4 -31.8 Q6.6 -36.05 5.65 -40.8 5.1 -42.1 4.15 -42.5 L3.2 -43.15 M3.7 -19.2 L4.1 -22.85 1.3 -23.1 0.0 -22.4 -0.25 -21.6 1.2 -20.9 1.95 -19.05 3.7 -19.2 M2.95 -13.4 Q5.3 -15.1 4.15 -18.0 L2.55 -18.3 -1.05 -16.7 -0.35 -16.3 -0.3 -15.85 1.0 -15.05 2.3 -13.0 2.95 -13.4 M4.55 -7.0 L5.45 -7.85 4.55 -10.5 4.35 -11.4 2.05 -11.55 1.65 -11.35 1.45 -10.45 0.5 -10.15 -0.1 -8.85 1.55 -8.85 Q1.35 -1.75 0.25 5.1 -1.1 14.05 -5.3 21.35 L-5.1 21.9 -6.05 25.15 -4.55 24.55 Q2.55 20.95 3.75 12.2 5.1 2.55 4.55 -7.0 M5.2 6.6 L5.25 6.4 5.2 6.45 5.2 6.6 M0.2 23.0 L0.5 22.35 Q-2.75 24.35 -5.5 27.1 L-5.0 29.6 -3.55 29.25 -1.15 25.4 -1.15 24.65 -0.65 24.4 0.2 23.0 M-12.15 10.4 L-12.15 10.55 -12.3 10.35 -12.15 10.4 M-6.5 33.1 L-6.15 33.35 -5.7 33.2 Q-5.5 33.05 -5.45 32.7 L-5.55 32.15 -5.9 31.85 Q-6.15 31.8 -6.35 32.05 L-6.55 32.5 -6.5 33.1" fill="#727e94" fill-rule="evenodd" stroke="none"/>
    </g>
    <g id="sprite0" transform="matrix(1.0, 0.0, 0.0, 1.0, 50.0, 50.0)">
      <use ffdec:characterId="1080" height="100.0" transform="matrix(1.0, 0.0, 0.0, 1.0, -50.0, -50.0)" width="100.0" xlink:href="#shape1"/>
    </g>
    <g id="shape1" transform="matrix(1.0, 0.0, 0.0, 1.0, 50.0, 50.0)">
      <path d="M50.0 50.0 L-50.0 50.0 -50.0 -50.0 50.0 -50.0 50.0 50.0 Z" fill="none" stroke="#9900ff" stroke-linecap="round" stroke-linejoin="round" stroke-width="0.05"/>
    </g>
  </defs>
</svg>
