<?xml version="1.0" encoding="UTF-8" standalone="no"?>
<svg xmlns:ffdec="https://www.free-decompiler.com/flash" xmlns:xlink="http://www.w3.org/1999/xlink" ffdec:objectType="frame" height="99.4px" width="17.25px" xmlns="http://www.w3.org/2000/svg">
  <g transform="matrix(1.0, 0.0, 0.0, 1.0, 8.95, 13.05)">
    <use ffdec:characterId="1446" ffdec:characterName="game_fla.upperarm1_767" height="47.9" id="upperArm1" transform="matrix(1.0, 0.0, 0.0, 1.0, -8.95, -13.05)" width="17.25" xlink:href="#sprite0"/>
    <use ffdec:characterId="1453" height="60.0" id="lowerArmOuter1" transform="matrix(1.0, 0.0, 0.0, 1.0, -7.65, 26.3501)" width="13.5" xlink:href="#sprite2"/>
  </g>
  <defs>
    <g id="sprite0" transform="matrix(1.0, 0.0, 0.0, 1.0, 8.65, 25.9)">
      <use ffdec:characterId="1442" height="43.8" transform="matrix(1.0, 0.0, 0.0, 1.0, -8.5, -22.0)" width="17.1" xlink:href="#shape0"/>
      <use ffdec:characterId="1081" height="100.0" id="shape" transform="matrix(0.15, 0.0, 0.0, 0.44, -7.4989, -21.9994)" width="100.0" xlink:href="#sprite1"/>
    </g>
    <g id="shape0" transform="matrix(1.0, 0.0, 0.0, 1.0, 8.5, 22.0)">
      <path d="M3.45 1.35 Q2.75 -2.2 2.75 -3.1 2.75 -6.15 3.5 -7.2 L4.15 -8.6 4.5 -10.85 Q4.75 -13.45 3.75 -15.85 2.75 -18.25 0.25 -18.25 -2.8 -18.25 -4.25 -17.25 -6.0 -16.0 -6.0 -13.1 -6.0 -11.85 -5.35 -9.65 L-5.05 -8.45 Q-4.75 -6.95 -4.75 -5.75 -4.75 -3.85 -5.75 -0.85 L-6.35 1.0 Q-8.55 1.1 -8.5 0.4 L-8.4 -2.25 -7.75 -4.6 Q-7.0 -7.7 -7.0 -9.6 L-7.5 -14.25 -7.5 -14.75 -7.15 -16.2 -5.85 -18.1 Q-4.7 -19.75 -0.85 -20.0 2.95 -20.25 5.0 -17.8 7.0 -15.35 7.0 -12.1 L6.9 -10.2 6.65 -8.6 Q6.25 -6.4 6.25 -5.0 6.25 -3.7 6.75 -1.95 7.2 -0.35 7.75 0.5 L7.8 -2.2 8.0 -1.25 8.6 1.15 8.3 1.65 7.05 1.6 6.25 1.55 3.45 1.35" fill="#8667aa" fill-rule="evenodd" stroke="none"/>
      <path d="M-6.2 3.55 Q-4.65 4.2 -3.9 6.3 -3.25 8.15 -3.25 11.65 L-3.0 8.05 -2.85 4.0 1.4 3.75 6.2 3.75 5.5 11.5 Q5.2 14.25 5.15 18.0 4.6 21.6 -0.75 21.8 -6.1 22.0 -6.35 13.8 L-6.2 3.55" fill="#ffcc99" fill-rule="evenodd" stroke="none"/>
      <path d="M7.8 -2.2 L7.75 0.5 Q7.2 -0.35 6.75 -1.95 6.25 -3.7 6.25 -5.0 6.25 -6.4 6.65 -8.6 L6.9 -10.2 7.0 -12.1 Q7.0 -15.35 5.0 -17.8 2.95 -20.25 -0.85 -20.0 -4.7 -19.75 -5.85 -18.1 L-7.15 -16.2 -6.5 -18.1 Q-4.95 -22.2 -0.3 -22.0 4.4 -21.85 6.25 -19.35 8.1 -16.85 8.1 -14.4 L7.95 -11.15 7.65 -4.55 Q7.65 -3.3 7.8 -2.2 M-7.5 -14.75 L-7.5 -14.25 -7.0 -9.6 Q-7.0 -7.7 -7.75 -4.6 L-8.4 -2.25 -8.25 -7.2 -8.2 -9.15 -7.5 -14.75" fill="#a07acd" fill-rule="evenodd" stroke="none"/>
      <path d="M-6.35 1.0 L-5.75 -0.85 Q-4.75 -3.85 -4.75 -5.75 -4.75 -6.95 -5.05 -8.45 L-5.35 -9.65 Q-6.0 -11.85 -6.0 -13.1 -6.0 -16.0 -4.25 -17.25 -2.8 -18.25 0.25 -18.25 2.75 -18.25 3.75 -15.85 4.75 -13.45 4.5 -10.85 L4.15 -8.6 3.5 -7.2 Q2.75 -6.15 2.75 -3.1 2.75 -2.2 3.45 1.35 L1.3 1.2 -6.0 1.0 -6.15 1.0 -6.35 1.0" fill="#775d95" fill-rule="evenodd" stroke="none"/>
      <path d="M3.45 1.35 L6.25 1.55 6.2 3.75 1.4 3.75 -2.85 4.0 -3.0 8.05 -3.25 11.65 Q-3.25 8.15 -3.9 6.3 -4.65 4.2 -6.2 3.55 L-6.15 1.0 -6.0 1.0 1.3 1.2 3.45 1.35" fill="#e2b181" fill-rule="evenodd" stroke="none"/>
    </g>
    <g id="sprite1" transform="matrix(1.0, 0.0, 0.0, 1.0, 50.0, 50.0)">
      <use ffdec:characterId="1080" height="100.0" transform="matrix(1.0, 0.0, 0.0, 1.0, -50.0, -50.0)" width="100.0" xlink:href="#shape1"/>
    </g>
    <g id="shape1" transform="matrix(1.0, 0.0, 0.0, 1.0, 50.0, 50.0)">
      <path d="M50.0 50.0 L-50.0 50.0 -50.0 -50.0 50.0 -50.0 50.0 50.0 Z" fill="none" stroke="#9900ff" stroke-linecap="round" stroke-linejoin="round" stroke-width="0.05"/>
    </g>
    <g id="sprite2" transform="matrix(1.0, 0.0, 0.0, 1.0, 7.55, 4.65)">
      <use ffdec:characterId="1452" ffdec:characterName="game_fla.lowerarm1_769" height="60.0" id="lowerArm1" transform="matrix(1.0, 0.0, 0.0, 1.0, -7.55, -4.65)" width="13.5" xlink:href="#sprite3"/>
    </g>
    <g id="sprite3" transform="matrix(1.0, 0.0, 0.0, 1.0, 7.5, 27.2)">
      <use ffdec:characterId="1449" ffdec:characterName="game_fla.hand1_770" height="19.6" id="hand" transform="matrix(1.0, 0.0, 0.0, 1.0, -7.5, 13.2)" width="13.1" xlink:href="#sprite4"/>
      <use ffdec:characterId="1450" height="44.55" transform="matrix(1.0, 0.0, 0.0, 1.0, -6.05, -27.2)" width="11.3" xlink:href="#shape3"/>
      <use ffdec:characterId="1081" height="100.0" id="shape" transform="matrix(0.12, 0.0, 0.0, 0.54, -5.999, -27.0004)" width="100.0" xlink:href="#sprite1"/>
    </g>
    <g id="sprite4" transform="matrix(1.0, 0.0, 0.0, 1.0, 7.5, 7.1)">
      <use ffdec:characterId="1447" height="14.1" transform="matrix(1.0, 0.0, 0.0, 1.0, -5.75, -7.1)" width="11.35" xlink:href="#shape2"/>
    </g>
    <g id="shape2" transform="matrix(1.0, 0.0, 0.0, 1.0, 5.75, 7.1)">
      <path d="M3.95 -7.1 L4.1 -7.1 4.1 -6.95 5.5 0.15 Q5.7 1.2 5.4 1.75 L4.5 2.9 4.65 5.05 4.1 4.25 Q2.75 4.8 1.45 5.65 L0.35 4.9 Q-0.3 5.8 -0.9 5.55 L-1.6 5.3 -2.05 4.7 -5.0 3.8 -4.7 3.25 Q-3.85 1.35 -3.45 -0.7 L-2.6 -3.75 Q-2.2 -4.75 -2.05 -5.7 L-1.95 -6.2 1.3 -6.6 1.1 -6.2 1.4 -5.9 1.75 -5.7 3.3 -3.2 3.95 -5.75 3.9 -6.9 3.95 -7.1 M-3.8 -6.0 L-3.55 -6.75 -3.65 -7.05 -3.65 -7.1 -3.25 -7.1 -3.8 -6.0" fill="#ffcc99" fill-rule="evenodd" stroke="none"/>
      <path d="M4.65 5.05 L4.6 5.35 4.55 5.5 2.95 6.45 2.1 6.15 2.0 6.1 1.6 6.5 0.7 6.9 0.05 6.85 -0.95 6.35 -1.0 6.4 -1.5 6.8 -2.4 6.5 -4.4 5.05 -5.25 4.7 -5.75 3.9 -5.45 1.85 -4.55 -2.55 -3.8 -6.0 -3.25 -7.1 3.95 -7.1 3.9 -6.9 3.95 -5.75 3.3 -3.2 1.75 -5.7 1.4 -5.9 1.1 -6.2 1.3 -6.6 -1.95 -6.2 -2.05 -5.7 Q-2.2 -4.75 -2.6 -3.75 L-3.45 -0.7 Q-3.85 1.35 -4.7 3.25 L-5.0 3.8 -2.05 4.7 -1.6 5.3 -0.9 5.55 Q-0.3 5.8 0.35 4.9 L1.45 5.65 Q2.75 4.8 4.1 4.25 L4.65 5.05" fill="#ebbb98" fill-rule="evenodd" stroke="none"/>
    </g>
    <g id="shape3" transform="matrix(1.0, 0.0, 0.0, 1.0, 6.05, 27.2)">
      <path d="M0.35 -16.65 L-0.25 -19.5 -0.55 -20.75 -0.75 -22.0 Q-0.75 -22.85 -1.05 -23.2 L-1.6 -23.5 -2.1 -22.45 -2.15 -21.0 Q-2.15 -20.1 -1.05 -16.5 -0.3 -14.0 -0.1 -11.2 L0.0 -8.7 -0.15 -6.8 0.5 -11.2 0.6 -14.25 0.35 -16.65 M-4.95 -24.85 Q-4.65 -25.75 -3.9 -26.3 -2.45 -27.35 0.65 -27.15 2.1 -27.05 3.1 -26.3 L3.75 -25.65 Q5.3 -23.8 5.25 -19.55 5.05 -12.3 4.45 -6.1 3.8 0.05 3.9 4.2 L3.8 9.95 3.85 10.25 Q4.2 14.75 3.85 17.35 2.65 17.0 1.8 15.95 L0.65 14.6 -0.7 14.75 -2.25 14.75 -2.25 14.6 -2.7 13.05 -3.25 11.5 -3.9 7.5 -4.8 3.7 -4.9 3.25 -5.05 1.9 Q-5.75 -4.45 -6.0 -11.2 L-6.0 -12.35 Q-6.2 -17.9 -5.8 -21.4 L-5.1 -20.45 Q-4.8 -21.75 -5.15 -23.15 L-4.95 -24.85" fill="#ffcc99" fill-rule="evenodd" stroke="none"/>
      <path d="M0.35 -16.65 L0.6 -14.25 0.5 -11.2 -0.15 -6.8 0.0 -8.7 -0.1 -11.2 Q-0.3 -14.0 -1.05 -16.5 -2.15 -20.1 -2.15 -21.0 L-2.1 -22.45 -1.6 -23.5 -1.05 -23.2 Q-0.75 -22.85 -0.75 -22.0 L-0.55 -20.75 -0.25 -19.5 0.35 -16.65 M-2.25 14.75 L-2.65 14.7 -3.9 14.4 -4.2 10.8 -4.9 3.25 -4.8 3.7 -3.9 7.5 -3.25 11.5 -2.7 13.05 -2.25 14.6 -2.25 14.75" fill="#ebbb98" fill-rule="evenodd" stroke="none"/>
      <path d="M-5.8 -21.4 L-5.9 -22.8 Q-5.9 -23.8 -4.95 -24.85 L-5.15 -23.15 Q-4.8 -21.75 -5.1 -20.45 L-5.8 -21.4" fill="#f4c398" fill-rule="evenodd" stroke="none"/>
    </g>
  </defs>
</svg>
