<?xml version="1.0" encoding="UTF-8" standalone="no"?>
<svg xmlns:ffdec="https://www.free-decompiler.com/flash" xmlns:xlink="http://www.w3.org/1999/xlink" ffdec:objectType="frame" height="66.15px" width="23.1px" xmlns="http://www.w3.org/2000/svg">
  <g transform="matrix(1.0, 0.0, 0.0, 1.0, 9.8, 30.75)">
    <use ffdec:characterId="2394" height="58.95" transform="matrix(1.0, 0.0, 0.0, 1.0, -9.8, -30.45)" width="18.65" xlink:href="#shape0"/>
    <use ffdec:characterId="2396" ffdec:characterName="game_fla.hand2_293" height="21.85" id="hand" transform="matrix(1.0, 0.0, 0.0, 1.0, -7.7, 13.55)" width="15.6" xlink:href="#sprite0"/>
    <use ffdec:characterId="1081" height="100.0" id="shape" transform="matrix(0.15, 0.0, 0.0, 0.6, -7.4997, -29.9995)" width="100.0" xlink:href="#sprite1"/>
  </g>
  <defs>
    <g id="shape0" transform="matrix(1.0, 0.0, 0.0, 1.0, 9.8, 30.45)">
      <path d="M6.85 -25.75 Q6.3 -17.15 6.7 -8.4 7.0 -0.3 6.1 7.7 L3.25 7.6 Q4.15 -1.0 0.2 -8.55 L-0.9 -10.75 3.15 -9.2 3.35 -9.8 -1.05 -16.0 1.1 -16.3 2.35 -22.55 Q2.5 -24.15 3.95 -27.55 L6.85 -25.75 M-5.7 8.65 L-7.05 1.9 Q-8.75 -6.85 -9.65 -15.7 -10.5 -23.65 -5.65 -29.9 -6.85 -21.2 -6.65 -12.55 -6.45 -2.35 -3.7 7.35 L-3.9 8.05 -5.7 8.65" fill="#727e94" fill-rule="evenodd" stroke="none"/>
      <path d="M6.1 7.7 L8.4 7.6 8.35 8.7 7.75 8.9 7.05 9.0 6.25 9.15 1.9 9.25 1.25 9.25 -2.35 9.25 -2.6 9.2 -4.35 9.6 -4.5 9.6 -4.75 9.7 -5.55 9.35 -5.7 8.65 -3.9 8.05 -3.7 7.35 Q-6.45 -2.35 -6.65 -12.55 -6.85 -21.2 -5.65 -29.9 L-2.25 -30.45 Q-0.35 -30.5 3.95 -27.55 2.5 -24.15 2.35 -22.55 L1.1 -16.3 -1.05 -16.0 3.35 -9.8 3.15 -9.2 -0.9 -10.75 0.2 -8.55 Q4.15 -1.0 3.25 7.6 L6.1 7.7" fill="#5c617c" fill-rule="evenodd" stroke="none"/>
      <path d="M6.85 -25.75 Q9.25 -17.35 8.75 -8.95 8.2 -0.6 8.4 7.6 L6.1 7.7 Q7.0 -0.3 6.7 -8.4 6.3 -17.15 6.85 -25.75" fill="#9299a9" fill-rule="evenodd" stroke="none"/>
      <path d="M7.75 8.9 L7.85 11.3 6.4 11.25 1.65 11.25 -2.35 11.2 -3.55 11.2 -4.55 11.2 -4.5 9.6 -4.35 9.6 -2.6 9.2 -2.35 9.25 1.25 9.25 1.9 9.25 6.25 9.15 7.05 9.0 7.75 8.9" fill="#ffffff" fill-rule="evenodd" stroke="none"/>
      <path d="M6.4 11.25 L6.5 12.5 6.75 14.8 7.35 17.25 7.5 17.65 7.55 17.85 7.55 18.0 6.0 23.05 5.1 25.55 -0.5 23.8 -1.35 23.45 Q-0.3 25.45 2.0 25.55 L1.35 25.85 -5.55 24.6 -5.65 24.1 -5.35 21.85 -5.2 21.05 -4.45 20.4 0.8 20.0 0.85 20.0 0.85 19.95 0.35 17.5 1.65 16.25 Q2.2 15.65 3.95 15.85 L3.25 14.55 2.8 14.45 2.45 14.4 1.65 11.25 6.4 11.25 M-4.0 18.8 L-4.05 18.7 -4.0 18.6 -4.0 18.8 M-3.55 16.15 L-3.55 14.95 -3.5 14.4 -3.45 14.3 -3.5 11.95 -3.55 11.2 -2.35 11.2 -2.65 14.25 -3.05 16.05 -3.55 16.15" fill="#ffcc99" fill-rule="evenodd" stroke="none"/>
      <path d="M-4.45 20.4 L-4.0 18.8 -4.0 18.6 -3.55 16.15 -3.05 16.05 -2.65 14.25 -2.35 11.2 1.65 11.25 2.45 14.4 2.8 14.45 3.25 14.55 3.95 15.85 Q2.2 15.65 1.65 16.25 L0.35 17.5 0.85 19.95 0.8 20.0 -4.45 20.4" fill="#ebbb98" fill-rule="evenodd" stroke="none"/>
      <path d="M7.55 18.0 L7.9 20.9 Q8.0 23.8 7.1 26.6 L6.7 26.95 6.45 27.5 Q3.95 29.15 1.4 28.05 L-0.4 28.2 Q-3.35 28.25 -5.15 26.15 L-5.55 25.65 -5.6 24.6 -5.55 24.6 1.35 25.85 2.0 25.55 Q-0.3 25.45 -1.35 23.45 L-0.5 23.8 5.1 25.55 6.0 23.05 7.55 18.0" fill="#e2b181" fill-rule="evenodd" stroke="none"/>
    </g>
    <g id="sprite0" transform="matrix(1.0, 0.0, 0.0, 1.0, 8.8, 7.45)">
      <use ffdec:characterId="1462" height="14.95" transform="matrix(1.0, 0.0, 0.0, 1.0, -6.75, -7.45)" width="13.55" xlink:href="#shape1"/>
    </g>
    <g id="shape1" transform="matrix(1.0, 0.0, 0.0, 1.0, 6.75, 7.45)">
      <path d="M0.85 -7.45 L5.35 -7.45 5.65 -6.2 6.25 -3.75 6.4 -3.35 6.45 -3.15 6.45 -3.0 4.9 2.05 4.0 4.55 -1.6 2.8 -2.45 2.45 Q-1.4 4.45 0.9 4.55 L0.25 4.85 -6.65 3.6 -6.75 3.1 -6.45 0.85 -6.3 0.05 -5.55 -0.6 -0.3 -1.0 -0.25 -1.0 -0.25 -1.05 -0.75 -3.5 0.55 -4.75 Q1.1 -5.35 2.85 -5.15 L2.15 -6.45 1.7 -6.55 1.35 -6.6 0.85 -7.45 M-3.75 -7.45 L-3.75 -6.75 -4.15 -4.95 -4.65 -4.85 -4.65 -6.05 -4.6 -6.6 -4.55 -6.7 -4.5 -7.45 -3.75 -7.45 M-5.1 -2.4 L-5.1 -2.2 -5.15 -2.3 -5.1 -2.4" fill="#ffcc99" fill-rule="evenodd" stroke="none"/>
      <path d="M0.85 -7.45 L1.35 -6.6 1.7 -6.55 2.15 -6.45 2.85 -5.15 Q1.1 -5.35 0.55 -4.75 L-0.75 -3.5 -0.25 -1.05 -0.3 -1.0 -5.55 -0.6 -5.1 -2.2 -5.1 -2.4 -4.65 -4.85 -4.15 -4.95 -3.75 -6.75 -3.75 -7.45 0.85 -7.45" fill="#ebbb98" fill-rule="evenodd" stroke="none"/>
      <path d="M-6.65 3.6 L0.25 4.85 0.9 4.55 Q-1.4 4.45 -2.45 2.45 L-1.6 2.8 4.0 4.55 4.9 2.05 6.45 -3.0 6.8 -0.1 Q6.9 2.8 6.0 5.6 L5.6 5.95 5.35 6.5 Q2.85 8.15 0.3 7.05 L-1.5 7.2 Q-4.45 7.25 -6.25 5.15 L-6.65 4.65 -6.7 3.6 -6.65 3.6" fill="#e2b181" fill-rule="evenodd" stroke="none"/>
    </g>
    <g id="sprite1" transform="matrix(1.0, 0.0, 0.0, 1.0, 50.0, 50.0)">
      <use ffdec:characterId="1080" height="100.0" transform="matrix(1.0, 0.0, 0.0, 1.0, -50.0, -50.0)" width="100.0" xlink:href="#shape2"/>
    </g>
    <g id="shape2" transform="matrix(1.0, 0.0, 0.0, 1.0, 50.0, 50.0)">
      <path d="M50.0 50.0 L-50.0 50.0 -50.0 -50.0 50.0 -50.0 50.0 50.0 Z" fill="none" stroke="#9900ff" stroke-linecap="round" stroke-linejoin="round" stroke-width="0.05"/>
    </g>
  </defs>
</svg>
