<?xml version="1.0" encoding="UTF-8" standalone="no"?>
<svg xmlns:ffdec="https://www.free-decompiler.com/flash" xmlns:xlink="http://www.w3.org/1999/xlink" ffdec:objectType="frame" height="100.0px" width="72.0px" xmlns="http://www.w3.org/2000/svg">
  <g transform="matrix(1.0, 0.0, 0.0, 1.0, 0.0, 0.0)">
    <use ffdec:characterId="3126" height="100.0" transform="matrix(1.0, 0.0, 0.0, 1.0, 0.0, 0.0)" width="72.0" xlink:href="#shape0"/>
  </g>
  <defs>
    <g id="shape0" transform="matrix(1.0, 0.0, 0.0, 1.0, 0.0, 0.0)">
      <path d="M72.0 20.0 L52.0 20.0 52.0 0.0 72.0 0.0 72.0 20.0 M36.0 40.0 L54.0 40.0 54.0 60.0 36.0 60.0 18.0 60.0 18.0 40.0 36.0 40.0 M0.0 80.0 L36.0 80.0 36.0 100.0 0.0 100.0 0.0 80.0" fill="#b5b08e" fill-rule="evenodd" stroke="none"/>
      <path d="M72.0 40.0 L54.0 40.0 36.0 40.0 36.0 20.0 52.0 20.0 72.0 20.0 72.0 40.0" fill="#baaf9a" fill-rule="evenodd" stroke="none"/>
      <path d="M54.0 40.0 L72.0 40.0 72.0 80.0 36.0 80.0 36.0 60.0 54.0 60.0 54.0 40.0 M52.0 20.0 L36.0 20.0 18.0 20.0 18.0 0.0 52.0 0.0 52.0 20.0" fill="#b8b494" fill-rule="evenodd" stroke="none"/>
      <path d="M36.0 80.0 L72.0 80.0 72.0 100.0 36.0 100.0 36.0 80.0 M0.0 40.0 L18.0 40.0 18.0 60.0 0.0 60.0 0.0 40.0" fill="#beba9e" fill-rule="evenodd" stroke="none"/>
      <path d="M36.0 60.0 L36.0 80.0 0.0 80.0 0.0 60.0 18.0 60.0 36.0 60.0 M18.0 0.0 L18.0 20.0 0.0 20.0 0.0 0.0 18.0 0.0" fill="#c0b5a5" fill-rule="evenodd" stroke="none"/>
      <path d="M36.0 20.0 L36.0 40.0 18.0 40.0 0.0 40.0 0.0 20.0 18.0 20.0 36.0 20.0" fill="#bbb899" fill-rule="evenodd" stroke="none"/>
    </g>
  </defs>
</svg>
