<?xml version="1.0" encoding="UTF-8" standalone="no"?>
<svg xmlns:ffdec="https://www.free-decompiler.com/flash" xmlns:xlink="http://www.w3.org/1999/xlink" ffdec:objectType="frame" height="130.15px" width="364.05px" xmlns="http://www.w3.org/2000/svg">
  <g transform="matrix(1.0, 0.0, 0.0, 1.0, 182.0, 98.5)">
    <use ffdec:characterId="79" height="130.15" transform="matrix(1.0, 0.0, 0.0, 1.0, -182.0, -98.5)" width="364.05" xlink:href="#shape0"/>
  </g>
  <defs>
    <g id="shape0" transform="matrix(1.0, 0.0, 0.0, 1.0, 182.0, 98.5)">
      <path d="M76.2 -87.15 Q94.25 -81.45 110.8 -73.5 119.8 -69.2 123.25 -63.65 L123.25 -63.6 Q124.65 -61.45 125.25 -59.35 L125.7 -60.05 Q126.75 -61.85 128.8 -62.3 130.8 -62.8 132.55 -61.7 140.55 -56.85 145.7 -53.2 L158.45 -43.65 Q159.6 -42.75 160.1 -41.45 161.4 -41.3 162.5 -40.35 168.3 -35.65 171.8 -32.4 L180.6 -23.85 Q182.05 -22.4 182.05 -20.35 182.05 -18.3 180.6 -16.8 L176.9 -13.1 176.8 -13.05 Q175.55 -11.85 173.9 -11.65 L146.25 1.3 144.45 3.35 142.35 4.8 83.15 31.65 Q48.2 0.0 0.05 0.0 -47.7 0.0 -82.6 31.2 L-173.75 -11.65 Q-175.5 -11.85 -176.8 -13.1 L-180.5 -16.8 Q-182.0 -18.3 -182.0 -20.35 -182.0 -22.4 -180.5 -23.85 L-168.85 -34.9 -168.8 -34.95 Q-164.05 -39.25 -156.6 -45.0 -155.5 -45.85 -154.15 -46.0 -153.7 -47.3 -152.5 -48.2 -146.75 -52.5 -142.6 -55.25 L-132.55 -61.65 Q-131.55 -62.3 -130.45 -62.4 L-128.9 -63.8 -115.0 -71.5 Q-109.35 -74.4 -100.65 -78.1 -98.75 -78.9 -96.85 -78.15 -94.95 -77.35 -94.1 -75.45 L-92.35 -71.45 Q-91.25 -74.5 -89.2 -77.4 -82.85 -86.7 -71.15 -89.85 -67.45 -90.95 -61.95 -91.05 L-61.9 -91.05 -57.3 -90.95 -56.35 -92.2 Q-55.3 -93.25 -53.85 -93.55 L-46.95 -94.9 Q-45.05 -95.3 -43.4 -94.25 L-43.2 -94.4 Q-42.15 -95.25 -40.8 -95.45 -14.7 -98.85 11.55 -98.45 12.9 -98.45 14.05 -97.7 15.25 -97.0 15.9 -95.75 16.5 -94.55 16.45 -93.2 L16.25 -88.75 Q18.95 -91.3 22.7 -93.1 32.65 -98.1 44.95 -95.95 57.15 -93.85 64.8 -85.65 L64.85 -85.6 Q67.3 -83.1 68.85 -80.35 L69.95 -83.85 Q70.55 -85.85 72.4 -86.8 74.2 -87.8 76.2 -87.15 M-151.5 -34.35 L-151.35 -34.25 -151.5 -34.35" fill="url(#gradient0)" fill-rule="evenodd" stroke="none"/>
      <path d="M73.15 -77.35 L74.7 -82.4 Q92.4 -76.8 108.6 -69.0 116.1 -65.4 119.05 -60.9 121.9 -56.5 119.5 -52.35 115.8 -45.8 105.25 -49.8 L105.2 -49.7 Q108.7 -46.7 109.7 -44.6 110.75 -42.0 109.1 -38.95 L106.0 -33.5 Q105.05 -31.65 107.05 -30.55 109.0 -29.4 110.95 -32.6 L112.15 -34.7 116.2 -32.25 115.15 -30.5 Q112.6 -26.4 109.45 -25.4 105.65 -24.25 100.3 -27.2 90.95 -32.3 95.15 -40.95 L97.25 -45.4 Q98.45 -47.9 97.85 -49.1 97.1 -50.4 93.2 -52.15 L87.8 -54.5 83.8 -44.95 Q82.85 -42.75 85.3 -41.7 L89.2 -40.0 87.0 -35.2 Q80.05 -38.35 75.1 -40.2 L62.9 -44.35 64.5 -49.4 68.4 -48.15 Q70.9 -47.3 71.7 -49.6 L79.75 -72.6 Q80.5 -74.95 77.65 -75.85 L73.15 -77.35 M43.1 -85.6 Q32.05 -87.5 29.95 -71.85 29.0 -64.05 30.85 -59.95 32.7 -55.9 37.6 -55.05 42.55 -54.15 45.7 -57.3 48.9 -60.5 50.65 -68.2 52.4 -75.9 50.6 -80.25 48.7 -84.6 43.1 -85.6 M61.2 -82.2 Q68.8 -74.3 65.75 -64.3 63.05 -55.35 54.2 -51.4 46.2 -47.85 36.65 -49.5 27.2 -51.2 20.9 -57.25 13.9 -64.05 14.45 -73.35 15.05 -83.8 24.9 -88.65 33.5 -92.9 44.05 -91.05 54.6 -89.2 61.2 -82.2 M0.55 -53.95 L-12.2 -53.65 -24.85 -52.45 -25.45 -57.75 -21.3 -58.15 Q-18.7 -58.45 -18.9 -60.8 L-21.25 -87.5 Q-27.4 -86.95 -29.7 -83.95 -31.6 -81.45 -30.95 -76.45 L-37.7 -75.45 -40.15 -90.5 Q-14.4 -93.85 11.45 -93.45 L10.75 -78.25 3.95 -78.45 Q4.1 -83.4 1.85 -85.75 -0.8 -88.5 -6.95 -88.35 L-6.2 -61.5 Q-6.05 -59.2 -3.5 -59.2 L0.55 -59.25 0.55 -53.95 M127.2 -52.95 L129.95 -57.45 142.85 -49.1 155.35 -39.75 152.05 -35.6 149.45 -37.65 Q147.55 -39.15 146.9 -38.4 146.45 -37.8 146.65 -36.0 L146.95 -25.35 157.55 -27.2 Q159.5 -27.55 159.8 -27.9 160.4 -28.7 158.5 -30.3 L156.0 -32.4 159.35 -36.5 Q165.0 -31.9 168.4 -28.75 L177.05 -20.35 173.35 -16.65 172.1 -17.85 Q169.1 -20.85 166.9 -20.6 156.4 -19.5 145.4 -17.25 L140.05 -10.8 Q138.55 -9.0 140.6 -7.15 L144.25 -4.0 140.7 0.0 Q134.6 -5.6 130.15 -9.1 125.9 -12.45 119.05 -17.1 L122.05 -21.5 125.8 -18.8 Q128.1 -17.2 129.5 -19.15 L134.4 -25.9 Q134.15 -35.35 133.2 -45.15 132.9 -47.7 132.1 -49.0 131.2 -50.4 128.65 -52.05 L127.2 -52.95 M94.1 -69.75 L89.75 -59.35 Q93.7 -57.75 96.3 -56.55 100.4 -54.75 102.35 -54.9 104.8 -55.15 106.3 -58.2 107.75 -61.1 105.95 -63.25 104.35 -65.3 99.25 -67.5 L94.1 -69.75 M-173.3 -16.65 L-177.0 -20.35 -165.55 -31.2 Q-160.85 -35.4 -153.55 -41.05 L-150.3 -36.9 -154.4 -33.75 Q-156.25 -32.1 -155.45 -31.15 L-153.95 -30.0 -152.1 -29.05 Q-142.85 -24.15 -133.7 -18.55 L-133.55 -18.6 Q-136.55 -29.1 -138.85 -39.2 -139.45 -42.1 -140.05 -43.0 -140.75 -44.0 -142.75 -42.6 L-146.4 -39.9 -149.5 -44.2 -139.85 -51.1 -129.95 -57.4 -127.2 -52.9 -128.8 -51.9 Q-131.05 -50.55 -131.65 -49.2 -132.3 -47.9 -131.9 -45.5 -130.2 -35.35 -128.8 -29.05 -127.4 -22.35 -124.8 -13.0 L-134.45 -5.4 Q-143.3 -10.3 -149.15 -13.1 -155.3 -16.1 -164.5 -19.95 -166.8 -20.9 -168.3 -20.5 -169.8 -20.1 -172.0 -17.9 L-173.3 -16.65 M-85.1 -74.55 Q-79.7 -82.35 -69.85 -85.05 -66.6 -85.95 -61.8 -86.05 -56.4 -86.2 -53.7 -85.05 L-52.9 -88.65 -46.0 -90.0 -43.0 -74.0 -49.7 -72.6 Q-50.75 -77.5 -54.55 -79.8 -58.75 -82.35 -64.75 -80.7 -77.45 -77.2 -72.5 -62.2 -70.15 -55.0 -66.6 -52.2 -62.5 -49.15 -56.05 -50.9 -51.1 -52.2 -48.9 -56.1 -46.85 -59.7 -47.8 -64.05 L-41.4 -65.3 Q-40.1 -57.45 -44.4 -52.3 -48.35 -47.55 -57.3 -44.8 -66.6 -41.95 -74.8 -44.85 -83.75 -47.95 -87.3 -56.7 -91.0 -66.1 -85.1 -74.55 M-102.7 -63.25 L-92.4 -41.1 Q-91.3 -38.95 -88.9 -40.1 L-85.15 -41.8 -83.05 -36.9 Q-90.2 -33.85 -94.8 -31.5 -99.4 -29.2 -106.25 -25.2 L-108.9 -29.8 -105.25 -31.8 Q-102.9 -33.2 -104.05 -35.25 L-116.1 -57.45 Q-116.9 -58.9 -119.5 -57.4 L-123.7 -54.9 -126.4 -59.5 -112.75 -67.05 Q-107.2 -69.85 -98.7 -73.5 L-96.6 -68.65 -101.0 -66.75 -102.85 -65.4 Q-103.3 -64.65 -102.7 -63.25" fill="#ffffff" fill-rule="evenodd" stroke="none"/>
    </g>
    <radialGradient cx="0" cy="0" gradientTransform="matrix(0.1961, 0.0, 0.0, 0.1372, 1.0, 54.0)" gradientUnits="userSpaceOnUse" id="gradient0" r="819.2" spreadMethod="pad">
      <stop offset="0.17254901960784313" stop-color="#ffffff"/>
      <stop offset="1.0" stop-color="#fd8181"/>
    </radialGradient>
  </defs>
</svg>
