<?xml version="1.0" encoding="UTF-8" standalone="no"?>
<svg xmlns:ffdec="https://www.free-decompiler.com/flash" xmlns:xlink="http://www.w3.org/1999/xlink" ffdec:objectType="frame" height="60.65px" width="43.0px" xmlns="http://www.w3.org/2000/svg">
  <g transform="matrix(1.0, 0.0, 0.0, 1.0, 17.4, 30.7)">
    <use ffdec:characterId="2188" height="15.0" transform="matrix(1.0, 0.0, 0.0, 1.0, -14.55, 14.95)" width="40.15" xlink:href="#shape0"/>
    <use ffdec:characterId="2190" height="49.05" transform="matrix(1.0, 0.0, 0.0, 1.0, -17.4, -30.7)" width="35.25" xlink:href="#shape1"/>
  </g>
  <defs>
    <g id="shape0" transform="matrix(1.0, 0.0, 0.0, 1.0, 14.55, -14.95)">
      <path d="M17.05 29.8 L16.5 29.85 7.85 29.35 3.05 29.0 -6.1 29.35 -9.75 28.85 Q-12.15 28.35 -13.35 27.45 L-12.5 27.55 -9.25 27.8 -5.1 27.55 -1.05 27.3 7.2 28.3 14.6 29.3 Q14.75 28.85 15.55 28.75 16.3 28.6 16.5 29.0 L17.65 28.6 17.15 27.6 17.75 27.75 18.3 28.8 17.4 29.35 17.05 29.8 M-14.3 21.85 L-14.1 21.3 Q-13.65 20.2 -12.75 19.0 L-9.6 15.05 -8.65 15.0 3.7 15.0 3.55 15.25 2.95 16.0 2.6 16.25 2.1 16.9 -0.15 19.1 -0.8 20.15 Q-1.55 20.95 -3.35 20.95 -4.35 20.95 -6.4 19.3 L-8.3 17.65 Q-9.5 17.65 -11.5 19.55 L-14.25 22.0 -14.3 21.85 M18.95 28.0 L18.3 27.3 18.6 27.2 Q19.2 27.1 19.35 27.6 L19.4 27.65 19.35 28.0 18.95 28.0 M21.1 26.75 L19.95 25.6 20.85 25.6 21.75 27.1 21.1 26.75 M22.95 26.45 L21.35 24.45 Q22.6 24.8 23.65 25.7 L23.6 26.25 23.3 26.6 22.95 26.45 M-2.75 17.45 L-4.4 17.35 -5.25 17.1 -6.15 16.85 Q-7.05 16.15 -7.8 15.8 L-6.45 18.4 Q-5.5 19.8 -4.6 20.0 L-4.5 20.2 -3.8 20.7 -3.5 20.6 -3.45 20.6 -2.65 20.9 -2.65 20.8 -3.35 20.35 -3.35 20.05 Q-3.35 19.4 -3.5 19.0 L-3.75 18.35 -3.2 18.35 -2.65 18.25 -1.95 17.95 -2.15 17.8 -1.0 17.6 -0.6 17.45 -0.9 17.3 -2.75 17.45" fill="#ebbb98" fill-rule="evenodd" stroke="none"/>
      <path d="M3.7 15.0 L3.9 15.05 9.85 16.7 Q11.75 17.35 16.4 20.3 L20.55 23.25 22.2 23.45 22.8 23.6 Q24.5 23.6 25.15 24.35 L25.4 24.65 24.3 26.8 23.5 26.7 23.3 26.6 23.6 26.25 23.65 25.7 Q22.6 24.8 21.35 24.45 L22.95 26.45 22.15 27.4 21.75 27.1 20.85 25.6 19.95 25.6 21.1 26.75 20.9 27.15 20.6 27.6 20.4 28.3 19.4 27.65 19.35 27.6 Q19.2 27.1 18.6 27.2 L18.3 27.3 18.95 28.0 18.3 28.8 17.75 27.75 17.15 27.6 17.65 28.6 16.5 29.0 Q16.3 28.6 15.55 28.75 14.75 28.85 14.6 29.3 L7.2 28.3 -1.05 27.3 -5.1 27.55 -9.25 27.8 -12.5 27.55 -13.35 27.45 Q-14.55 26.55 -14.55 25.3 L-14.3 21.85 -14.25 22.0 -11.5 19.55 Q-9.5 17.65 -8.3 17.65 L-6.4 19.3 Q-4.35 20.95 -3.35 20.95 -1.55 20.95 -0.8 20.15 L-0.15 19.1 2.1 16.9 2.6 16.25 2.95 16.0 3.55 15.25 3.7 15.0" fill="#ffcc99" fill-rule="evenodd" stroke="none"/>
      <path d="M25.4 24.65 L25.55 25.3 25.6 25.55 25.55 26.15 Q25.45 26.75 24.9 27.0 L21.95 28.5 19.35 29.6 17.05 29.8 17.4 29.35 18.3 28.8 18.95 28.0 19.35 28.0 19.4 27.65 20.4 28.3 20.6 27.6 20.9 27.15 21.1 26.75 21.75 27.1 22.15 27.4 22.95 26.45 23.3 26.6 23.5 26.7 24.3 26.8 25.4 24.65 M-2.75 17.45 L-0.9 17.3 -0.6 17.45 -1.0 17.6 -2.15 17.8 -1.95 17.95 -2.65 18.25 -3.2 18.35 -3.75 18.35 -3.5 19.0 Q-3.35 19.4 -3.35 20.05 L-3.35 20.35 -2.65 20.8 -2.65 20.9 -3.45 20.6 -3.5 20.6 -3.8 20.7 -4.5 20.2 -4.6 20.0 Q-5.5 19.8 -6.45 18.4 L-7.8 15.8 Q-7.05 16.15 -6.15 16.85 L-5.25 17.1 -4.4 17.35 -2.75 17.45 M-4.5 18.35 L-4.5 18.3 -4.55 18.3 -4.5 18.35" fill="#e2b181" fill-rule="evenodd" stroke="none"/>
    </g>
    <g id="shape1" transform="matrix(1.0, 0.0, 0.0, 1.0, 17.4, 30.7)">
      <path d="M12.55 -14.55 L14.9 -20.3 Q15.2 -21.05 15.45 -21.2 L15.55 -21.2 Q15.75 -21.3 14.75 -19.0 13.8 -16.7 15.05 -18.25 16.25 -19.85 16.4 -19.55 L16.4 -19.05 16.55 -17.9 17.25 -18.35 17.85 -17.05 16.75 -14.5 16.55 -14.0 15.75 -12.35 15.45 -11.7 14.7 -10.0 14.6 -9.6 14.6 -9.45 Q10.35 0.85 11.65 -10.45 L11.65 -11.9 12.45 -14.2 12.55 -14.55 M4.2 -27.4 L4.35 -29.2 6.25 -28.9 8.0 -30.7 8.15 -30.6 8.3 -27.2 8.0 -26.5 Q7.6 -24.65 5.8 -24.3 L5.0 -24.1 4.6 -23.8 3.35 -24.45 4.1 -25.5 4.2 -27.4" fill="#ffffff" fill-rule="evenodd" stroke="none"/>
      <path d="M8.0 -26.5 Q8.85 -26.5 9.45 -25.7 10.0 -24.9 10.0 -23.75 L9.55 -22.95 8.6 -22.75 8.25 -22.4 1.4 -24.0 4.1 -25.5 3.35 -24.45 4.6 -23.8 5.0 -24.1 5.8 -24.3 Q7.6 -24.65 8.0 -26.5 M9.7 -21.5 L10.65 -21.3 10.95 -20.25 10.5 -19.3 7.45 -18.9 6.15 -17.7 7.2 -19.65 Q8.0 -21.0 9.7 -21.5 M11.15 -17.55 L11.85 -17.5 Q12.95 -16.6 12.65 -15.05 L12.55 -14.55 12.45 -14.2 6.15 -11.2 9.2 -15.7 7.1 -13.8 6.55 -13.75 5.85 -12.75 5.35 -13.85 5.9 -17.3 6.35 -17.45 7.15 -15.45 11.15 -17.55 M15.55 -21.2 L16.35 -22.5 16.9 -22.1 17.0 -21.6 Q17.35 -20.2 16.4 -19.05 L16.4 -19.55 Q16.25 -19.85 15.05 -18.25 13.8 -16.7 14.75 -19.0 15.75 -21.3 15.55 -21.2 M14.6 -9.45 L15.45 -8.45 15.85 -7.6 Q15.85 -6.75 15.15 -5.35 L14.9 -4.75 14.6 -4.25 Q13.85 -3.25 12.6 -3.55 L12.1 -0.3 12.1 -1.35 Q12.05 -5.3 8.3 -6.7 8.4 -10.4 11.1 -12.0 L11.65 -11.9 11.65 -10.45 Q10.35 0.85 14.6 -9.45 M-10.25 -26.8 Q-9.85 -27.85 -6.15 -28.6 L-2.45 -28.4 Q-0.95 -28.15 -0.75 -27.0 L-0.7 -25.95 -2.0 -24.85 -2.95 -24.3 -3.55 -24.3 -4.95 -24.3 -3.45 -25.5 -5.55 -27.35 -9.8 -26.0 -10.2 -26.25 -10.25 -26.8 M6.35 -21.65 L6.7 -21.2 1.15 -22.25 Q4.15 -23.7 6.35 -21.65 M-2.75 -22.0 L-1.95 -22.4 0.6 -20.85 -1.7 -18.0 -1.75 -17.15 -1.15 -17.15 0.5 -19.3 4.1 -17.45 Q4.8 -14.5 3.45 -11.95 L3.65 -10.8 2.9 -10.85 1.65 -11.7 -0.95 -11.35 Q-0.7 -9.55 -3.2 -8.8 L-4.75 -8.8 -4.75 -10.35 -1.9 -13.15 -3.2 -13.65 -5.5 -12.1 Q-6.7 -11.45 -8.1 -11.8 L-11.55 -8.85 -11.6 -8.8 -12.1 -8.8 Q-12.65 -8.95 -12.9 -9.4 -13.2 -9.9 -13.15 -10.45 L-13.3 -11.05 -10.55 -12.25 -10.4 -13.4 -5.1 -14.15 -4.8 -14.9 -4.85 -15.15 -5.3 -15.75 Q-7.4 -15.05 -8.8 -16.5 L-8.55 -18.55 -8.2 -19.0 -5.65 -19.2 -4.5 -18.05 -4.2 -18.05 -3.45 -18.2 -3.45 -20.3 -2.75 -22.0 M3.35 -4.75 L4.45 -8.35 6.1 -5.35 5.2 -3.85 0.95 -0.8 -1.35 3.7 -2.45 3.65 -2.7 1.9 -2.2 0.85 -0.15 -1.5 3.2 -4.5 3.4 -4.7 3.35 -4.75 M10.35 7.75 Q10.45 8.65 10.05 9.45 9.3 11.1 7.45 10.6 L7.65 9.5 8.45 7.8 10.35 7.75 M7.65 0.4 Q8.5 0.4 9.1 0.75 9.7 1.05 9.7 1.55 L8.25 3.25 Q8.9 4.35 8.15 5.3 L7.3 6.15 5.5 5.65 5.45 5.4 5.4 5.2 6.2 4.1 6.45 3.9 7.2 3.1 5.65 1.8 6.15 0.7 7.65 0.4" fill="#ff0000" fill-rule="evenodd" stroke="none"/>
      <path d="M10.0 -23.75 L10.0 -22.75 9.7 -21.5 Q8.0 -21.0 7.2 -19.65 L6.15 -17.7 7.45 -18.9 10.5 -19.3 10.95 -20.25 10.85 -17.9 11.15 -17.55 7.15 -15.45 6.35 -17.45 5.9 -17.3 5.35 -13.85 5.85 -12.75 6.55 -13.75 7.1 -13.8 9.2 -15.7 6.15 -11.2 12.45 -14.2 11.65 -11.9 11.1 -12.0 Q8.4 -10.4 8.3 -6.7 12.05 -5.3 12.1 -1.35 L12.1 -0.3 12.6 -3.55 Q13.85 -3.25 14.6 -4.25 L14.9 -4.75 14.4 -3.4 14.3 -3.15 13.3 -0.9 11.35 1.95 10.4 1.65 10.35 0.3 Q10.1 -4.25 6.1 -5.35 L4.45 -8.35 3.35 -4.75 1.7 -9.25 2.9 -10.85 3.65 -10.8 3.45 -11.95 Q4.8 -14.5 4.1 -17.45 L0.5 -19.3 -1.15 -17.15 -1.75 -17.15 -1.7 -18.0 0.6 -20.85 -1.95 -22.4 -2.75 -22.0 -3.95 -22.45 -4.6 -23.45 -5.35 -23.55 Q-6.9 -24.2 -7.15 -25.95 L-7.15 -26.05 -7.3 -26.0 Q-9.65 -24.05 -12.5 -24.75 L-12.3 -25.55 -10.25 -26.8 -10.2 -26.25 -9.8 -26.0 -5.55 -27.35 -3.45 -25.5 -4.95 -24.3 -3.55 -24.3 -2.95 -24.3 -2.0 -24.85 -0.7 -25.95 -0.75 -27.0 4.2 -27.4 4.1 -25.5 1.4 -24.0 8.25 -22.4 8.6 -22.75 9.55 -22.95 10.0 -23.75 M6.35 -21.65 Q4.15 -23.7 1.15 -22.25 L6.7 -21.2 6.35 -21.65 M-2.7 1.9 L-2.45 3.65 -1.35 3.7 0.95 -0.8 5.2 -3.85 Q1.3 -0.65 -0.5 4.05 L-1.1 4.85 -2.2 4.85 -2.7 4.6 -2.85 4.2 -2.9 3.05 -2.7 1.9 M10.45 8.3 L10.5 9.25 Q10.6 10.95 9.6 12.5 L9.35 12.85 8.6 13.15 6.7 12.35 6.8 11.1 Q7.0 9.15 8.45 7.8 L7.65 9.5 7.45 10.6 Q9.3 11.1 10.05 9.45 10.45 8.65 10.35 7.75 L10.45 8.3 M9.7 1.55 Q10.0 5.25 7.8 8.05 6.55 8.2 5.75 7.65 L4.9 6.95 5.1 6.1 5.45 5.4 5.5 5.65 7.3 6.15 8.15 5.3 Q8.9 4.35 8.25 3.25 L9.7 1.55 M6.45 3.9 L5.65 2.85 5.4 2.1 Q5.4 0.15 7.65 0.4 L6.15 0.7 5.65 1.8 7.2 3.1 6.45 3.9" fill="#990000" fill-rule="evenodd" stroke="none"/>
      <path d="M14.4 -3.4 L13.2 2.25 Q11.35 5.2 10.95 6.25 L10.45 8.3 10.35 7.75 8.45 7.8 Q7.0 9.15 6.8 11.1 L6.7 12.35 8.6 13.15 9.35 12.85 9.6 12.5 Q8.8 15.1 7.5 16.1 L7.4 16.1 5.2 15.7 5.45 15.95 4.05 15.45 4.7 14.6 4.45 13.75 4.2 12.85 Q4.45 9.45 4.3 7.75 L4.15 7.75 Q4.5 9.35 3.55 11.5 2.75 13.45 1.15 15.25 L1.45 15.85 1.3 15.85 0.7 15.9 0.7 15.7 -1.05 15.15 -2.3 14.45 -4.05 13.9 -5.55 13.45 Q-6.9 12.8 -8.4 11.45 L-10.7 8.95 Q-12.85 6.05 -14.2 2.7 -15.3 -0.05 -16.3 -4.9 -17.05 -7.5 -17.35 -12.1 -17.65 -16.75 -15.4 -21.5 -13.95 -24.5 -12.3 -25.55 L-12.5 -24.75 Q-9.65 -24.05 -7.3 -26.0 L-7.15 -25.95 Q-6.9 -24.2 -5.35 -23.55 L-4.6 -23.45 -3.95 -22.45 -3.95 -22.35 -4.4 -19.0 -4.5 -18.05 -5.65 -19.2 -8.2 -19.0 -8.55 -18.55 -8.8 -16.5 Q-7.4 -15.05 -5.3 -15.75 L-4.85 -15.15 -4.85 -14.9 -4.8 -14.9 -5.1 -14.15 -10.4 -13.4 -10.55 -12.25 -13.3 -11.05 -13.15 -10.45 Q-13.2 -9.9 -12.9 -9.4 -12.65 -8.95 -12.1 -8.8 L-11.6 -8.8 -11.55 -8.85 -8.1 -11.8 Q-6.7 -11.45 -5.5 -12.1 L-3.2 -13.65 -1.9 -13.15 -4.75 -10.35 -4.75 -8.8 -3.2 -8.8 Q-0.7 -9.55 -0.95 -11.35 L1.65 -11.7 2.9 -10.85 1.7 -9.25 3.35 -4.75 3.4 -4.7 3.2 -4.5 -0.15 -1.5 -2.2 0.85 -2.7 1.9 -2.9 3.05 -2.85 4.2 -2.7 4.6 -2.2 4.85 -1.1 4.85 -0.5 4.05 Q1.3 -0.65 5.2 -3.85 L6.1 -5.35 Q10.1 -4.25 10.35 0.3 L10.4 1.65 11.35 1.95 13.3 -0.9 Q12.9 2.55 14.2 -2.75 L14.3 -3.15 14.4 -3.4 M-3.45 -20.3 L-3.45 -18.2 -4.2 -18.05 -3.45 -20.3 M9.7 1.55 Q9.7 1.05 9.1 0.75 8.5 0.4 7.65 0.4 5.4 0.15 5.4 2.1 L5.65 2.85 6.45 3.9 6.2 4.1 5.4 5.2 5.45 5.4 5.1 6.1 4.9 6.95 5.75 7.65 Q6.55 8.2 7.8 8.05 10.0 5.25 9.7 1.55" fill="#ffcc99" fill-rule="evenodd" stroke="none"/>
      <path d="M13.2 2.25 L10.9 13.2 10.9 13.15 10.85 13.25 10.35 15.1 9.8 16.15 9.85 16.7 Q9.55 17.35 8.25 17.35 7.0 17.35 5.45 15.95 L5.2 15.7 7.4 16.1 7.5 16.1 Q8.8 15.1 9.6 12.5 10.6 10.95 10.5 9.25 L10.45 8.3 10.95 6.25 Q11.35 5.2 13.2 2.25 M4.05 15.45 Q3.95 15.5 3.8 15.6 L2.8 16.1 2.6 16.25 -0.6 17.45 -0.9 17.3 -2.75 17.45 -4.4 17.35 -5.25 17.1 -6.15 16.85 Q-7.05 16.15 -7.8 15.8 L-9.6 15.05 -10.65 13.6 -11.65 11.9 -13.7 7.35 -14.05 6.0 -14.9 3.05 Q-15.9 -0.5 -16.3 -4.9 -15.3 -0.05 -14.2 2.7 -12.85 6.05 -10.7 8.95 L-8.4 11.45 Q-6.9 12.8 -5.55 13.45 L-4.05 13.9 -2.3 14.45 -1.05 15.15 0.7 15.7 0.7 15.9 1.3 15.85 1.45 15.85 1.15 15.25 Q2.75 13.45 3.55 11.5 4.5 9.35 4.15 7.75 L4.3 7.75 Q4.45 9.45 4.2 12.85 L4.45 13.75 4.7 14.6 4.05 15.45 M-2.75 -22.0 L-3.45 -20.3 -4.2 -18.05 -4.5 -18.05 -4.4 -19.0 -3.95 -22.35 -3.95 -22.45 -2.75 -22.0 M-4.85 -15.15 L-4.8 -14.9 -4.85 -14.9 -4.85 -15.15 M13.3 -0.9 L14.3 -3.15 14.2 -2.75 Q12.9 2.55 13.3 -0.9 M-4.55 18.3 L-4.5 18.3 -4.5 18.35 -4.55 18.3" fill="#ebbb98" fill-rule="evenodd" stroke="none"/>
    </g>
  </defs>
</svg>
