<?xml version="1.0" encoding="UTF-8" standalone="no"?>
<svg xmlns:ffdec="https://www.free-decompiler.com/flash" xmlns:xlink="http://www.w3.org/1999/xlink" ffdec:objectType="frame" height="94.0px" width="19.05px" xmlns="http://www.w3.org/2000/svg">
  <g transform="matrix(1.0, 0.0, 0.0, 1.0, 10.15, 11.0)">
    <use ffdec:characterId="1560" ffdec:characterName="game_fla.upperarm2_658" height="49.5" id="upperArm2" transform="matrix(1.0, 0.0, 0.0, 1.0, -10.15, -11.0)" width="19.05" xlink:href="#sprite0"/>
    <use ffdec:characterId="1564" height="56.15" id="lowerArmOuter2" transform="matrix(1.0, 0.0, 0.0, 1.0, -9.05, 26.85)" width="17.5" xlink:href="#sprite2"/>
  </g>
  <defs>
    <g id="sprite0" transform="matrix(1.0, 0.0, 0.0, 1.0, 10.0, 25.75)">
      <use ffdec:characterId="1556" height="45.65" transform="matrix(1.0, 0.0, 0.0, 1.0, -8.0, -23.15)" width="16.0" xlink:href="#shape0"/>
      <use ffdec:characterId="1081" height="100.0" id="shape" transform="matrix(0.14, 0.0, 0.0, 0.44, -7.0, -22.0001)" width="100.0" xlink:href="#sprite1"/>
    </g>
    <g id="shape0" transform="matrix(1.0, 0.0, 0.0, 1.0, 8.0, 23.15)">
      <path d="M-1.6 -22.75 Q3.05 -24.1 6.15 -20.65 7.1 -19.45 7.6 -14.65 L7.7 -13.75 6.25 -17.55 Q3.5 -22.65 -1.6 -22.75 M7.6 -3.65 Q7.6 0.35 7.2 4.55 L7.1 5.45 6.75 3.95 Q6.25 2.15 6.25 0.35 6.25 -1.65 7.25 -3.15 L7.6 -3.65 M5.0 20.55 L5.0 20.6 5.0 20.3 5.0 20.55" fill="#90dd79" fill-rule="evenodd" stroke="none"/>
      <path d="M-1.6 -22.75 Q3.5 -22.65 6.25 -17.55 L7.7 -13.75 7.95 -11.3 8.0 -9.0 7.85 -7.5 7.6 -4.15 7.6 -3.65 7.25 -3.15 Q6.25 -1.65 6.25 0.35 6.25 2.15 6.75 3.95 L7.1 5.45 6.9 7.55 6.6 9.65 6.6 16.75 Q6.2 19.15 5.0 20.55 L5.0 20.3 Q6.1 15.55 4.25 2.95 3.5 -1.95 3.5 -3.0 L4.9 -5.35 Q6.25 -7.85 6.25 -10.1 6.25 -14.8 4.9 -17.55 3.5 -20.3 -0.7 -20.5 -4.9 -20.7 -5.25 -17.85 L-6.35 -11.65 -6.5 -8.75 Q-6.5 -6.75 -5.75 -3.45 L-5.55 -0.65 Q-5.35 1.55 -5.5 1.35 L-5.75 12.5 -5.65 11.95 -5.65 12.0 Q-6.05 16.8 -5.05 19.15 -4.05 21.45 -3.35 21.85 -4.75 21.15 -5.5 19.8 -6.05 18.9 -7.25 13.5 L-7.25 2.25 Q-7.85 0.45 -7.95 -1.85 L-8.0 -6.1 Q-8.0 -9.05 -7.5 -11.2 -7.05 -13.35 -7.05 -15.2 L-6.9 -16.9 Q-6.3 -21.0 -2.55 -22.45 L-1.95 -22.65 -1.6 -22.75" fill="#4ec262" fill-rule="evenodd" stroke="none"/>
      <path d="M5.0 20.6 Q3.3 22.5 0.1 22.5 L-3.35 21.85 Q-4.05 21.45 -5.05 19.15 -6.05 16.8 -5.65 12.0 L-5.65 11.95 -5.75 12.5 -5.5 1.35 Q-5.35 1.55 -5.55 -0.65 L-5.75 -3.45 Q-6.5 -6.75 -6.5 -8.75 L-6.35 -11.65 -5.25 -17.85 Q-4.9 -20.7 -0.7 -20.5 3.5 -20.3 4.9 -17.55 6.25 -14.8 6.25 -10.1 6.25 -7.85 4.9 -5.35 L3.5 -3.0 Q3.5 -1.95 4.25 2.95 6.1 15.55 5.0 20.3 L5.0 20.6" fill="#3e9f4c" fill-rule="evenodd" stroke="none"/>
    </g>
    <g id="sprite1" transform="matrix(1.0, 0.0, 0.0, 1.0, 50.0, 50.0)">
      <use ffdec:characterId="1080" height="100.0" transform="matrix(1.0, 0.0, 0.0, 1.0, -50.0, -50.0)" width="100.0" xlink:href="#shape1"/>
    </g>
    <g id="shape1" transform="matrix(1.0, 0.0, 0.0, 1.0, 50.0, 50.0)">
      <path d="M50.0 50.0 L-50.0 50.0 -50.0 -50.0 50.0 -50.0 50.0 50.0 Z" fill="none" stroke="#9900ff" stroke-linecap="round" stroke-linejoin="round" stroke-width="0.05"/>
    </g>
    <g id="sprite2" transform="matrix(1.0, 0.0, 0.0, 1.0, 8.55, 5.35)">
      <use ffdec:characterId="1563" ffdec:characterName="game_fla.lowerarm2_660" height="56.15" id="lowerArm2" transform="matrix(1.0, 0.0, 0.0, 1.0, -8.55, -5.35)" width="17.5" xlink:href="#sprite3"/>
    </g>
    <g id="sprite3" transform="matrix(1.0, 0.0, 0.0, 1.0, 9.0, 25.15)">
      <use ffdec:characterId="1464" ffdec:characterName="game_fla.hand2_336" height="21.85" id="hand" transform="matrix(0.9, 0.0, 0.0, 0.9, -7.8699, 11.345)" width="15.6" xlink:href="#sprite4"/>
      <use ffdec:characterId="1561" height="39.0" transform="matrix(1.0, 0.0, 0.0, 1.0, -6.8, -24.25)" width="14.8" xlink:href="#shape3"/>
      <use ffdec:characterId="1081" height="100.0" id="shape" transform="matrix(0.12, 0.0, 0.0, 0.4805, -5.9998, -24.025)" width="100.0" xlink:href="#sprite1"/>
    </g>
    <g id="sprite4" transform="matrix(1.0, 0.0, 0.0, 1.0, 8.8, 7.45)">
      <use ffdec:characterId="1462" height="14.95" transform="matrix(1.0, 0.0, 0.0, 1.0, -6.75, -7.45)" width="13.55" xlink:href="#shape2"/>
    </g>
    <g id="shape2" transform="matrix(1.0, 0.0, 0.0, 1.0, 6.75, 7.45)">
      <path d="M0.85 -7.45 L5.35 -7.45 5.65 -6.2 6.25 -3.75 6.4 -3.35 6.45 -3.15 6.45 -3.0 4.9 2.05 4.0 4.55 -1.6 2.8 -2.45 2.45 Q-1.4 4.45 0.9 4.55 L0.25 4.85 -6.65 3.6 -6.75 3.1 -6.45 0.85 -6.3 0.05 -5.55 -0.6 -0.3 -1.0 -0.25 -1.0 -0.25 -1.05 -0.75 -3.5 0.55 -4.75 Q1.1 -5.35 2.85 -5.15 L2.15 -6.45 1.7 -6.55 1.35 -6.6 0.85 -7.45 M-3.75 -7.45 L-3.75 -6.75 -4.15 -4.95 -4.65 -4.85 -4.65 -6.05 -4.6 -6.6 -4.55 -6.7 -4.5 -7.45 -3.75 -7.45 M-5.1 -2.4 L-5.1 -2.2 -5.15 -2.3 -5.1 -2.4" fill="#ffcc99" fill-rule="evenodd" stroke="none"/>
      <path d="M0.85 -7.45 L1.35 -6.6 1.7 -6.55 2.15 -6.45 2.85 -5.15 Q1.1 -5.35 0.55 -4.75 L-0.75 -3.5 -0.25 -1.05 -0.3 -1.0 -5.55 -0.6 -5.1 -2.2 -5.1 -2.4 -4.65 -4.85 -4.15 -4.95 -3.75 -6.75 -3.75 -7.45 0.85 -7.45" fill="#ebbb98" fill-rule="evenodd" stroke="none"/>
      <path d="M-6.65 3.6 L0.25 4.85 0.9 4.55 Q-1.4 4.45 -2.45 2.45 L-1.6 2.8 4.0 4.55 4.9 2.05 6.45 -3.0 6.8 -0.1 Q6.9 2.8 6.0 5.6 L5.6 5.95 5.35 6.5 Q2.85 8.15 0.3 7.05 L-1.5 7.2 Q-4.45 7.25 -6.25 5.15 L-6.65 4.65 -6.7 3.6 -6.65 3.6" fill="#e2b181" fill-rule="evenodd" stroke="none"/>
    </g>
    <g id="shape3" transform="matrix(1.0, 0.0, 0.0, 1.0, 6.8, 24.25)">
      <path d="M4.45 -22.6 L5.1 -20.8 5.25 -18.35 5.05 -12.75 4.75 -7.3 Q4.75 -5.7 5.5 -2.8 L6.5 0.9 6.5 4.3 5.6 4.25 5.3 4.3 4.6 4.4 4.45 4.45 4.5 3.1 Q4.5 0.45 3.65 -2.9 2.75 -6.25 2.75 -10.35 2.75 -13.75 3.65 -16.4 4.5 -19.0 4.5 -21.6 L4.45 -22.6 M-6.15 -16.7 L-5.1 -11.3 -3.25 -2.5 -4.75 -4.0 -4.75 3.25 -4.45 4.5 -4.5 4.5 -5.1 4.65 -5.8 5.05 Q-6.75 -5.75 -6.75 -8.9 -6.75 -11.8 -6.15 -16.7" fill="#4ec262" fill-rule="evenodd" stroke="none"/>
      <path d="M6.5 0.9 L5.5 -2.8 Q4.75 -5.7 4.75 -7.3 L5.05 -12.75 5.25 -18.35 5.1 -20.8 Q6.5 -15.9 6.85 -3.15 L6.5 -1.15 6.5 0.9" fill="#90dd79" fill-rule="evenodd" stroke="none"/>
      <path d="M4.45 4.45 L4.6 4.4 5.3 4.3 5.5 4.45 6.25 5.25 6.25 7.0 4.75 6.75 4.5 7.25 Q5.25 8.0 5.65 9.35 5.95 10.3 6.75 10.5 L6.75 11.75 5.75 11.75 5.5 13.25 5.6 14.5 5.25 14.5 4.8 14.4 Q4.9 13.35 4.05 12.3 3.3 11.3 2.5 11.25 3.1 10.3 3.75 10.5 3.8 8.1 1.75 8.0 L2.5 6.75 2.25 5.4 2.05 4.2 3.55 4.55 4.05 4.7 4.45 4.45 M-3.9 4.5 L-3.75 4.5 -3.05 4.65 -2.95 4.6 -1.9 4.3 -2.75 5.35 Q-3.75 6.55 -3.75 7.25 L-3.3 7.85 Q-2.85 8.0 -3.0 9.0 L-0.75 9.25 -0.6 9.5 -0.5 9.75 Q-2.4 8.9 -3.2 10.7 -3.65 11.65 -4.0 13.75 L-4.25 13.25 -4.75 13.25 -4.9 14.25 -5.0 14.25 -5.55 13.55 -5.65 13.55 -5.1 11.95 -4.5 10.1 Q-4.5 9.85 -5.0 9.15 -5.5 8.4 -5.5 7.75 -5.5 5.9 -4.9 5.15 L-4.4 4.75 -3.9 4.5" fill="#cec9ab" fill-rule="evenodd" stroke="none"/>
      <path d="M4.45 -22.6 L4.5 -21.6 Q4.5 -19.0 3.65 -16.4 2.75 -13.75 2.75 -10.35 2.75 -6.25 3.65 -2.9 4.5 0.45 4.5 3.1 L4.45 4.45 4.05 4.7 3.55 4.55 2.05 4.2 2.0 4.2 0.75 4.1 -1.9 4.3 -2.95 4.6 -3.05 4.65 -3.75 4.5 -3.9 4.5 -4.05 4.5 -4.45 4.5 -4.75 3.25 -4.75 -4.0 -3.25 -2.5 -5.1 -11.3 -6.15 -16.7 -6.0 -17.7 -5.75 -19.5 -5.25 -21.45 Q-3.55 -25.5 2.75 -23.7 L4.0 -23.3 4.45 -22.6" fill="#3e9f4c" fill-rule="evenodd" stroke="none"/>
      <path d="M5.3 4.3 L5.6 4.25 6.5 4.3 Q7.9 4.55 7.9 5.8 L7.55 7.6 7.75 8.8 7.95 10.55 7.85 12.1 7.85 12.25 Q7.85 13.4 7.4 13.85 L6.8 14.3 5.6 14.5 5.5 13.25 5.75 11.75 6.75 11.75 6.75 10.5 Q5.95 10.3 5.65 9.35 5.25 8.0 4.5 7.25 L4.75 6.75 6.25 7.0 6.25 5.25 5.5 4.45 5.3 4.3 M-4.45 4.5 L-4.05 4.5 -3.9 4.5 -4.4 4.75 -4.9 5.15 Q-5.5 5.9 -5.5 7.75 -5.5 8.4 -5.0 9.15 -4.5 9.85 -4.5 10.1 L-5.1 11.95 -5.65 13.55 Q-6.3 13.3 -6.5 12.2 L-6.55 10.8 Q-6.55 10.15 -6.25 9.85 L-6.25 9.8 -6.5 9.45 -6.8 8.1 Q-6.8 5.9 -5.8 5.05 L-5.1 4.65 -4.5 4.5 -4.45 4.5" fill="#fff9d4" fill-rule="evenodd" stroke="none"/>
      <path d="M-1.9 4.3 L0.75 4.1 2.0 4.2 2.05 4.2 2.25 5.4 2.5 6.75 1.75 8.0 Q3.8 8.1 3.75 10.5 3.1 10.3 2.5 11.25 3.3 11.3 4.05 12.3 4.9 13.35 4.8 14.4 L4.6 14.3 -0.25 14.75 -1.8 14.5 -4.25 14.25 -4.4 14.25 -4.9 14.25 -4.75 13.25 -4.25 13.25 -4.0 13.75 Q-3.65 11.65 -3.2 10.7 -2.4 8.9 -0.5 9.75 L-0.6 9.5 -0.75 9.25 -3.0 9.0 Q-2.85 8.0 -3.3 7.85 L-3.75 7.25 Q-3.75 6.55 -2.75 5.35 L-1.9 4.3" fill="#9c9982" fill-rule="evenodd" stroke="none"/>
    </g>
  </defs>
</svg>
