<?xml version="1.0" encoding="UTF-8" standalone="no"?>
<svg xmlns:ffdec="https://www.free-decompiler.com/flash" xmlns:xlink="http://www.w3.org/1999/xlink" ffdec:objectType="frame" height="30.0px" width="30.0px" xmlns="http://www.w3.org/2000/svg">
  <g transform="matrix(1.0, 0.0, 0.0, 1.0, 0.0, 0.0)">
    <use ffdec:characterId="791" height="30.0" transform="matrix(1.0, 0.0, 0.0, 1.0, 0.0, 0.0)" width="30.0" xlink:href="#shape0"/>
  </g>
  <defs>
    <g id="shape0" transform="matrix(1.0, 0.0, 0.0, 1.0, 0.0, 0.0)">
      <path d="M30.0 0.0 L28.0 3.0 27.05 3.0 2.95 3.0 2.0 3.0 0.0 0.0 2.95 0.0 27.05 0.0 30.0 0.0" fill="#666666" fill-rule="evenodd" stroke="none"/>
      <path d="M30.0 0.0 L30.0 3.45 30.0 28.05 30.0 30.0 28.0 29.0 28.0 28.05 28.0 3.45 28.0 3.0 30.0 0.0" fill="#cccccc" fill-rule="evenodd" stroke="none"/>
      <path d="M0.0 30.0 L0.0 28.05 0.0 3.45 0.0 0.0 2.0 3.0 2.0 3.45 2.0 28.05 2.0 29.0 0.0 30.0" fill="#999999" fill-rule="evenodd" stroke="none"/>
      <path d="M28.0 29.0 L30.0 30.0 27.05 30.0 2.95 30.0 0.0 30.0 2.0 29.0 2.95 29.0 27.05 29.0 28.0 29.0" fill="#eaeaea" fill-rule="evenodd" stroke="none"/>
      <path d="M28.0 3.0 L28.0 3.45 28.0 28.05 28.0 29.0 27.05 29.0 2.95 29.0 2.0 29.0 2.0 28.05 2.0 3.45 2.0 3.0 2.95 3.0 27.05 3.0 28.0 3.0" fill="#ffffff" fill-rule="evenodd" stroke="none"/>
    </g>
  </defs>
</svg>
