<?xml version="1.0" encoding="UTF-8" standalone="no"?>
<svg xmlns:ffdec="https://www.free-decompiler.com/flash" xmlns:xlink="http://www.w3.org/1999/xlink" ffdec:objectType="frame" height="18.0px" width="100.0px" xmlns="http://www.w3.org/2000/svg">
  <g transform="matrix(1.0, 0.0, 0.0, 1.0, 50.0, 8.75)">
    <use ffdec:characterId="1062" ffdec:characterName="RailMC" height="18.0" id="inner" transform="matrix(1.0, 0.0, 0.0, 1.0, -50.0, -8.75)" width="100.0" xlink:href="#sprite0"/>
  </g>
  <defs>
    <g id="sprite0" transform="matrix(1.0, 0.0, 0.0, 1.0, 50.0, 8.75)">
      <use ffdec:characterId="1061" height="18.0" transform="matrix(1.0, 0.0, 0.0, 1.0, -50.0, -8.75)" width="100.0" xlink:href="#shape0"/>
    </g>
    <g id="shape0" transform="matrix(1.0, 0.0, 0.0, 1.0, 50.0, 8.75)">
      <path d="M50.0 -6.25 L50.0 -3.75 -50.0 -3.75 -50.0 -6.25 50.0 -6.25 M50.0 6.75 L50.0 9.25 -50.0 9.25 -50.0 6.75 50.0 6.75" fill="#5f5f5f" fill-rule="evenodd" stroke="none"/>
      <path d="M50.0 -3.75 L50.0 6.75 -50.0 6.75 -50.0 -3.75 50.0 -3.75" fill="#7f7f7f" fill-rule="evenodd" stroke="none"/>
      <path d="M-50.0 -6.25 L-50.0 -8.75 50.0 -8.75 50.0 -6.25 -50.0 -6.25" fill="#b5b5b5" fill-rule="evenodd" stroke="none"/>
    </g>
  </defs>
</svg>
