<?xml version="1.0" encoding="UTF-8" standalone="no"?>
<svg xmlns:ffdec="https://www.free-decompiler.com/flash" xmlns:xlink="http://www.w3.org/1999/xlink" ffdec:objectType="frame" height="24.35px" width="23.7px" xmlns="http://www.w3.org/2000/svg">
  <g transform="matrix(1.0, 0.0, 0.0, 1.0, 10.65, 12.05)">
    <use ffdec:characterId="2363" height="24.35" transform="matrix(1.0, 0.0, 0.0, 1.0, -10.65, -12.05)" width="23.7" xlink:href="#shape0"/>
  </g>
  <defs>
    <g id="shape0" transform="matrix(1.0, 0.0, 0.0, 1.0, 10.65, 12.05)">
      <path d="M6.45 -9.5 L6.95 -9.4 8.7 -7.3 7.7 -5.15 Q6.15 -5.15 5.05 -4.25 3.95 -3.4 3.95 -2.2 L2.5 -2.7 1.55 -1.65 -0.95 -1.1 -0.55 -3.3 -3.3 -2.1 Q-5.85 -1.1 -6.7 0.95 -5.15 1.4 -2.5 0.1 L-3.7 5.45 -5.6 3.6 -4.0 6.0 -3.45 6.3 -2.5 7.05 Q1.2 9.75 5.6 8.95 L4.75 7.7 5.85 8.0 7.0 7.35 8.1 6.5 8.3 4.6 10.65 3.15 9.6 2.2 10.8 2.3 10.95 5.45 11.55 5.6 11.45 5.85 9.75 8.45 10.75 10.8 Q5.35 13.55 -0.2 11.2 L-3.45 9.65 -4.8 8.55 -6.05 7.3 -6.3 6.1 -5.85 5.55 -6.85 4.05 -8.15 3.4 -8.0 1.85 -7.25 1.5 -7.35 -0.55 -8.2 -1.05 -6.65 -6.05 -8.1 -7.35 -8.6 -8.25 Q-7.0 -8.25 -5.85 -8.95 -4.9 -9.6 -4.75 -10.45 L-4.9 -7.85 -4.0 -8.75 -3.6 -7.95 0.8 -11.4 0.2 -12.05 Q1.45 -11.75 2.35 -10.5 L3.05 -9.4 1.6 -7.6 3.5 -7.35 0.5 -3.65 3.5 -5.6 3.65 -6.35 5.0 -7.4 4.1 -8.55 6.45 -8.4 6.5 -9.4 6.45 -9.5 M8.3 -1.4 L9.05 -0.4 8.2 0.7 4.05 0.65 2.55 5.45 1.55 4.95 1.5 5.0 1.0 4.65 1.25 5.0 1.15 5.35 1.5 5.85 2.0 6.45 2.0 7.05 3.5 7.65 3.3 8.3 0.95 7.85 -2.2 3.75 -1.5 2.0 1.0 2.15 1.4 1.75 2.0 1.65 2.15 -0.55 8.1 -0.8 8.3 -1.4 M9.4 1.2 L9.5 1.15 9.4 1.25 9.4 1.2 M-0.7 -6.9 L-1.7 -7.3 -3.2 -6.2 -2.35 -6.0 -2.05 -6.15 -0.7 -6.9" fill="#990000" fill-rule="evenodd" stroke="none"/>
      <path d="M6.45 -9.5 L6.5 -9.4 6.45 -8.4 4.1 -8.55 5.0 -7.4 3.65 -6.35 3.5 -5.6 0.5 -3.65 3.5 -7.35 1.6 -7.6 3.05 -9.4 6.45 -9.5 M0.2 -12.05 L0.8 -11.4 -3.6 -7.95 -4.0 -8.75 -3.7 -10.7 -1.4 -11.7 0.2 -12.05 M-4.75 -10.45 Q-4.9 -9.6 -5.85 -8.95 -7.0 -8.25 -8.6 -8.25 -8.85 -10.1 -8.05 -11.8 L-8.05 -11.85 -5.5 -11.85 -4.75 -11.5 -4.75 -10.7 -4.75 -10.45 M11.55 5.6 L10.95 5.45 10.8 2.3 9.6 2.2 9.4 1.25 9.5 1.15 9.65 1.1 Q10.55 0.85 11.3 1.1 L12.6 1.9 13.05 2.45 11.55 5.6 M7.0 7.35 L5.85 8.0 4.75 7.7 5.6 8.95 Q1.2 9.75 -2.5 7.05 L-3.45 6.3 -4.0 6.0 -5.6 3.6 -3.7 5.45 -2.5 0.1 Q-5.15 1.4 -6.7 0.95 -5.85 -1.1 -3.3 -2.1 L-0.55 -3.3 -0.95 -1.1 1.55 -1.65 2.5 -2.7 3.95 -2.2 4.4 -2.05 7.25 -2.65 Q7.7 -2.65 8.0 -2.25 L8.3 -1.4 8.1 -0.8 2.15 -0.55 2.0 1.65 1.4 1.75 1.0 2.15 -1.5 2.0 -2.2 3.75 0.95 7.85 3.3 8.3 3.5 7.65 2.0 7.05 2.0 6.45 1.5 5.85 1.15 5.35 1.25 5.0 1.0 4.65 1.5 5.0 1.55 4.95 2.55 5.45 7.0 7.35 M-0.7 -6.9 L-2.05 -6.15 -2.35 -6.0 -3.2 -6.2 -1.7 -7.3 -0.7 -6.9" fill="#ff0000" fill-rule="evenodd" stroke="none"/>
      <path d="M9.6 2.2 L10.65 3.15 8.3 4.6 8.1 6.5 7.0 7.35 2.55 5.45 4.05 0.65 8.2 0.7 8.8 1.35 9.4 1.2 9.4 1.25 9.6 2.2 M3.95 -2.2 Q3.95 -3.4 5.05 -4.25 6.15 -5.15 7.7 -5.15 L7.25 -2.65 4.4 -2.05 3.95 -2.2" fill="#650101" fill-rule="evenodd" stroke="none"/>
      <path d="M-10.6 -2.6 L-10.65 -2.95 -10.65 -4.05 -10.6 -4.4 -10.6 -4.05 -10.55 -2.6 -10.6 -2.6" fill="#ffffff" fill-rule="evenodd" stroke="none"/>
      <path d="M-8.25 -11.85 L-8.05 -11.85 -8.05 -11.8 -8.25 -11.85" fill="#b66ba0" fill-rule="evenodd" stroke="none"/>
      <path d="M-8.6 -8.25 L-8.1 -7.35 -8.85 -6.7 -8.75 -5.6 -8.7 -4.9 -8.65 -4.0 Q-8.65 -1.4 -10.25 0.85 L-10.55 -1.1 -10.6 -2.2 -10.6 -2.4 -10.6 -2.6 -10.55 -2.6 -10.6 -4.05 -10.6 -4.4 -10.6 -4.5 -10.6 -4.7 -10.6 -4.9 -10.6 -5.0 -10.35 -8.45 -10.15 -10.1 -10.15 -10.15 -8.25 -11.85 -8.05 -11.8 Q-8.85 -10.1 -8.6 -8.25" fill="#bfa47b" fill-rule="evenodd" stroke="none"/>
      <path d="M-4.0 -8.75 L-4.9 -7.85 -4.75 -10.45 -4.75 -10.7 -4.75 -11.5 -4.0 -11.1 -3.7 -10.7 -4.0 -8.75 M-8.1 -7.35 L-6.65 -6.05 -8.2 -1.05 -7.35 -0.55 -7.25 1.5 -8.0 1.85 -8.15 3.4 -6.85 4.05 -5.85 5.55 -6.3 6.1 -6.05 7.3 Q-8.35 5.3 -9.65 2.35 L-10.25 0.85 Q-8.65 -1.4 -8.65 -4.0 L-8.7 -4.9 -8.75 -5.6 -8.85 -6.7 -8.1 -7.35" fill="#a54930" fill-rule="evenodd" stroke="none"/>
    </g>
  </defs>
</svg>
