<?xml version="1.0" encoding="UTF-8" standalone="no"?>
<svg xmlns:ffdec="https://www.free-decompiler.com/flash" xmlns:xlink="http://www.w3.org/1999/xlink" ffdec:objectType="frame" height="287.25px" width="69.15px" xmlns="http://www.w3.org/2000/svg">
  <g transform="matrix(1.0, 0.0, 0.0, 1.0, 34.5, 107.95)">
    <use ffdec:characterId="2400" height="109.3" id="arm2" transform="matrix(1.0, 0.0, 0.0, 1.0, -12.3, -40.2)" width="24.35" xlink:href="#sprite0"/>
    <use ffdec:characterId="2413" height="149.45" id="leg2" transform="matrix(1.0, 0.0, 0.0, 1.0, -20.85, 29.85)" width="45.75" xlink:href="#sprite6"/>
    <use ffdec:characterId="2427" height="77.65" id="headOuter" transform="matrix(1.0, 0.0, 0.0, 1.0, -15.25, -107.95)" width="39.35" xlink:href="#sprite10"/>
    <use ffdec:characterId="2440" ffdec:characterName="game_fla.pelvis_306" height="57.85" id="pelvis" transform="matrix(0.999, -7.0E-4, 7.0E-4, 0.999, -31.1438, 8.2587)" width="59.7" xlink:href="#sprite15"/>
    <use ffdec:characterId="2453" height="145.3" id="leg1" transform="matrix(1.0, 0.0, 0.0, 1.0, -25.55, 34.0)" width="49.9" xlink:href="#sprite17"/>
    <use ffdec:characterId="2470" ffdec:characterName="game_fla.chest_317" height="105.6" id="chest" transform="matrix(1.0, 0.0, 0.0, 1.0, -34.5, -62.2)" width="69.15" xlink:href="#sprite21"/>
    <use ffdec:characterId="2482" height="120.75" id="arm1" transform="matrix(1.0, 0.0, 0.0, 1.0, -15.8, -45.8)" width="26.5" xlink:href="#sprite24"/>
  </g>
  <defs>
    <g id="sprite0" transform="matrix(1.0, 0.0, 0.0, 1.0, 8.8, 13.35)">
      <use ffdec:characterId="2393" ffdec:characterName="game_fla.upperarm2_290" height="56.35" id="upperArm2" transform="matrix(1.0, 0.0, 0.0, 1.0, -8.8, -13.35)" width="19.25" xlink:href="#sprite1"/>
      <use ffdec:characterId="2399" height="66.15" id="lowerArmOuter2" transform="matrix(1.0, 0.0, 0.0, 1.0, -7.55, 29.8)" width="23.1" xlink:href="#sprite3"/>
    </g>
    <g id="sprite1" transform="matrix(1.0, 0.0, 0.0, 1.0, 9.7, 29.6)">
      <use ffdec:characterId="2389" height="52.75" transform="matrix(1.0, 0.0, 0.0, 1.0, -9.65, -26.0)" width="19.2" xlink:href="#shape0"/>
      <use ffdec:characterId="1081" height="100.0" id="shape" transform="matrix(0.18, 0.0, 0.0, 0.53, -8.9996, -26.4992)" width="100.0" xlink:href="#sprite2"/>
    </g>
    <g id="shape0" transform="matrix(1.0, 0.0, 0.0, 1.0, 9.65, 26.0)">
      <path d="M3.2 -25.35 L3.6 -25.25 Q9.5 -23.1 9.55 -16.5 L9.5 -15.95 9.5 -13.95 Q9.15 -8.45 8.3 -3.2 L8.0 0.55 8.0 1.75 7.95 2.35 8.0 2.9 8.2 4.1 8.6 7.15 8.9 13.05 8.9 15.05 8.9 15.5 8.85 15.35 Q8.95 17.55 7.45 21.1 L7.1 22.0 7.05 21.95 6.1 11.15 6.0 11.4 5.6 8.1 5.55 7.15 5.15 4.1 4.25 -2.6 3.0 -1.45 1.6 -0.15 2.75 -4.5 6.05 -7.5 8.45 -11.5 8.2 -13.95 8.2 -14.15 7.8 -16.25 Q6.6 -21.45 3.2 -25.35" fill="#9299a9" fill-rule="evenodd" stroke="none"/>
      <path d="M7.1 22.0 L7.05 22.0 Q5.0 26.2 1.7 26.65 -2.3 27.2 -4.65 24.65 -6.45 22.85 -6.7 20.75 L-7.0 15.9 -6.95 15.9 Q-7.05 11.45 -7.3 7.15 L-7.45 4.4 -7.45 4.35 -7.45 4.05 -7.45 3.8 -7.9 -0.9 -7.9 -1.05 Q-8.25 -6.6 -9.35 -11.9 L-9.6 -13.95 Q-10.05 -19.3 -6.45 -23.05 -3.05 -26.5 1.25 -25.9 L2.55 -25.6 3.2 -25.35 Q6.6 -21.45 7.8 -16.25 L8.2 -14.15 8.2 -13.95 8.45 -11.5 6.05 -7.5 Q7.1 -10.8 6.8 -13.95 L6.4 -16.1 Q6.0 -17.65 5.2 -19.25 3.6 -22.7 1.5 -23.8 -0.85 -25.15 -3.9 -23.25 -9.2 -19.9 -8.5 -13.9 L-8.4 -13.45 Q-7.5 -7.2 -7.05 -6.2 L-6.45 -1.6 -6.4 16.1 -5.9 15.25 -6.1 16.75 -6.1 19.05 Q-5.8 21.4 -5.0 23.05 -3.65 25.9 -1.3 25.95 L-1.2 25.95 1.15 26.0 Q3.95 25.65 4.55 20.3 4.95 17.65 4.65 14.75 L4.15 12.15 3.45 9.2 2.9 7.8 2.65 7.1 2.2 5.5 1.75 4.05 1.6 3.9 3.0 -1.45 4.25 -2.6 5.15 4.1 5.55 7.15 5.6 8.1 6.0 11.4 6.1 11.15 7.05 21.95 7.1 22.0 M2.75 -4.5 L1.6 -0.15 0.25 1.55 Q1.0 -3.5 2.25 -8.65 L2.6 -10.25 Q2.3 -8.25 2.4 -6.55 2.5 -5.55 2.75 -4.5" fill="#727e94" fill-rule="evenodd" stroke="none"/>
      <path d="M6.05 -7.5 L2.75 -4.5 Q2.5 -5.55 2.4 -6.55 2.3 -8.25 2.6 -10.25 L2.25 -8.65 Q1.0 -3.5 0.25 1.55 L1.6 -0.15 3.0 -1.45 1.6 3.9 1.75 4.05 2.2 5.5 2.65 7.1 2.9 7.8 3.45 9.2 4.15 12.15 4.65 14.75 Q4.95 17.65 4.55 20.3 3.95 25.65 1.15 26.0 L-1.2 25.95 -1.3 25.95 Q-3.65 25.9 -5.0 23.05 -5.8 21.4 -6.1 19.05 L-6.1 16.75 -5.9 15.25 -6.4 16.1 -6.45 -1.6 -7.05 -6.2 Q-7.5 -7.2 -8.4 -13.45 L-8.5 -13.9 Q-9.2 -19.9 -3.9 -23.25 -0.85 -25.15 1.5 -23.8 3.6 -22.7 5.2 -19.25 6.0 -17.65 6.4 -16.1 L6.8 -13.95 Q7.1 -10.8 6.05 -7.5" fill="#5c617c" fill-rule="evenodd" stroke="none"/>
    </g>
    <g id="sprite2" transform="matrix(1.0, 0.0, 0.0, 1.0, 50.0, 50.0)">
      <use ffdec:characterId="1080" height="100.0" transform="matrix(1.0, 0.0, 0.0, 1.0, -50.0, -50.0)" width="100.0" xlink:href="#shape1"/>
    </g>
    <g id="shape1" transform="matrix(1.0, 0.0, 0.0, 1.0, 50.0, 50.0)">
      <path d="M50.0 50.0 L-50.0 50.0 -50.0 -50.0 50.0 -50.0 50.0 50.0 Z" fill="none" stroke="#9900ff" stroke-linecap="round" stroke-linejoin="round" stroke-width="0.05"/>
    </g>
    <g id="sprite3" transform="matrix(1.0, 0.0, 0.0, 1.0, 9.9, 5.8)">
      <use ffdec:characterId="2398" ffdec:characterName="game_fla.lowerarm2_292" height="66.15" id="lowerArm2" transform="matrix(1.0, 0.0, 0.0, 1.0, -9.9, -5.8)" width="23.1" xlink:href="#sprite4"/>
    </g>
    <g id="sprite4" transform="matrix(1.0, 0.0, 0.0, 1.0, 9.8, 30.75)">
      <use ffdec:characterId="2394" height="58.95" transform="matrix(1.0, 0.0, 0.0, 1.0, -9.8, -30.45)" width="18.65" xlink:href="#shape2"/>
      <use ffdec:characterId="2396" ffdec:characterName="game_fla.hand2_293" height="21.85" id="hand" transform="matrix(1.0, 0.0, 0.0, 1.0, -7.7, 13.55)" width="15.6" xlink:href="#sprite5"/>
      <use ffdec:characterId="1081" height="100.0" id="shape" transform="matrix(0.15, 0.0, 0.0, 0.6, -7.4997, -29.9995)" width="100.0" xlink:href="#sprite2"/>
    </g>
    <g id="shape2" transform="matrix(1.0, 0.0, 0.0, 1.0, 9.8, 30.45)">
      <path d="M6.85 -25.75 Q6.3 -17.15 6.7 -8.4 7.0 -0.3 6.1 7.7 L3.25 7.6 Q4.15 -1.0 0.2 -8.55 L-0.9 -10.75 3.15 -9.2 3.35 -9.8 -1.05 -16.0 1.1 -16.3 2.35 -22.55 Q2.5 -24.15 3.95 -27.55 L6.85 -25.75 M-5.7 8.65 L-7.05 1.9 Q-8.75 -6.85 -9.65 -15.7 -10.5 -23.65 -5.65 -29.9 -6.85 -21.2 -6.65 -12.55 -6.45 -2.35 -3.7 7.35 L-3.9 8.05 -5.7 8.65" fill="#727e94" fill-rule="evenodd" stroke="none"/>
      <path d="M6.1 7.7 L8.4 7.6 8.35 8.7 7.75 8.9 7.05 9.0 6.25 9.15 1.9 9.25 1.25 9.25 -2.35 9.25 -2.6 9.2 -4.35 9.6 -4.5 9.6 -4.75 9.7 -5.55 9.35 -5.7 8.65 -3.9 8.05 -3.7 7.35 Q-6.45 -2.35 -6.65 -12.55 -6.85 -21.2 -5.65 -29.9 L-2.25 -30.45 Q-0.35 -30.5 3.95 -27.55 2.5 -24.15 2.35 -22.55 L1.1 -16.3 -1.05 -16.0 3.35 -9.8 3.15 -9.2 -0.9 -10.75 0.2 -8.55 Q4.15 -1.0 3.25 7.6 L6.1 7.7" fill="#5c617c" fill-rule="evenodd" stroke="none"/>
      <path d="M6.85 -25.75 Q9.25 -17.35 8.75 -8.95 8.2 -0.6 8.4 7.6 L6.1 7.7 Q7.0 -0.3 6.7 -8.4 6.3 -17.15 6.85 -25.75" fill="#9299a9" fill-rule="evenodd" stroke="none"/>
      <path d="M7.75 8.9 L7.85 11.3 6.4 11.25 1.65 11.25 -2.35 11.2 -3.55 11.2 -4.55 11.2 -4.5 9.6 -4.35 9.6 -2.6 9.2 -2.35 9.25 1.25 9.25 1.9 9.25 6.25 9.15 7.05 9.0 7.75 8.9" fill="#ffffff" fill-rule="evenodd" stroke="none"/>
      <path d="M6.4 11.25 L6.5 12.5 6.75 14.8 7.35 17.25 7.5 17.65 7.55 17.85 7.55 18.0 6.0 23.05 5.1 25.55 -0.5 23.8 -1.35 23.45 Q-0.3 25.45 2.0 25.55 L1.35 25.85 -5.55 24.6 -5.65 24.1 -5.35 21.85 -5.2 21.05 -4.45 20.4 0.8 20.0 0.85 20.0 0.85 19.95 0.35 17.5 1.65 16.25 Q2.2 15.65 3.95 15.85 L3.25 14.55 2.8 14.45 2.45 14.4 1.65 11.25 6.4 11.25 M-4.0 18.8 L-4.05 18.7 -4.0 18.6 -4.0 18.8 M-3.55 16.15 L-3.55 14.95 -3.5 14.4 -3.45 14.3 -3.5 11.95 -3.55 11.2 -2.35 11.2 -2.65 14.25 -3.05 16.05 -3.55 16.15" fill="#ffcc99" fill-rule="evenodd" stroke="none"/>
      <path d="M-4.45 20.4 L-4.0 18.8 -4.0 18.6 -3.55 16.15 -3.05 16.05 -2.65 14.25 -2.35 11.2 1.65 11.25 2.45 14.4 2.8 14.45 3.25 14.55 3.95 15.85 Q2.2 15.65 1.65 16.25 L0.35 17.5 0.85 19.95 0.8 20.0 -4.45 20.4" fill="#ebbb98" fill-rule="evenodd" stroke="none"/>
      <path d="M7.55 18.0 L7.9 20.9 Q8.0 23.8 7.1 26.6 L6.7 26.95 6.45 27.5 Q3.95 29.15 1.4 28.05 L-0.4 28.2 Q-3.35 28.25 -5.15 26.15 L-5.55 25.65 -5.6 24.6 -5.55 24.6 1.35 25.85 2.0 25.55 Q-0.3 25.45 -1.35 23.45 L-0.5 23.8 5.1 25.55 6.0 23.05 7.55 18.0" fill="#e2b181" fill-rule="evenodd" stroke="none"/>
    </g>
    <g id="sprite5" transform="matrix(1.0, 0.0, 0.0, 1.0, 8.8, 7.45)">
      <use ffdec:characterId="1462" height="14.95" transform="matrix(1.0, 0.0, 0.0, 1.0, -6.75, -7.45)" width="13.55" xlink:href="#shape3"/>
    </g>
    <g id="shape3" transform="matrix(1.0, 0.0, 0.0, 1.0, 6.75, 7.45)">
      <path d="M0.85 -7.45 L5.35 -7.45 5.65 -6.2 6.25 -3.75 6.4 -3.35 6.45 -3.15 6.45 -3.0 4.9 2.05 4.0 4.55 -1.6 2.8 -2.45 2.45 Q-1.4 4.45 0.9 4.55 L0.25 4.85 -6.65 3.6 -6.75 3.1 -6.45 0.85 -6.3 0.05 -5.55 -0.6 -0.3 -1.0 -0.25 -1.0 -0.25 -1.05 -0.75 -3.5 0.55 -4.75 Q1.1 -5.35 2.85 -5.15 L2.15 -6.45 1.7 -6.55 1.35 -6.6 0.85 -7.45 M-3.75 -7.45 L-3.75 -6.75 -4.15 -4.95 -4.65 -4.85 -4.65 -6.05 -4.6 -6.6 -4.55 -6.7 -4.5 -7.45 -3.75 -7.45 M-5.1 -2.4 L-5.1 -2.2 -5.15 -2.3 -5.1 -2.4" fill="#ffcc99" fill-rule="evenodd" stroke="none"/>
      <path d="M0.85 -7.45 L1.35 -6.6 1.7 -6.55 2.15 -6.45 2.85 -5.15 Q1.1 -5.35 0.55 -4.75 L-0.75 -3.5 -0.25 -1.05 -0.3 -1.0 -5.55 -0.6 -5.1 -2.2 -5.1 -2.4 -4.65 -4.85 -4.15 -4.95 -3.75 -6.75 -3.75 -7.45 0.85 -7.45" fill="#ebbb98" fill-rule="evenodd" stroke="none"/>
      <path d="M-6.65 3.6 L0.25 4.85 0.9 4.55 Q-1.4 4.45 -2.45 2.45 L-1.6 2.8 4.0 4.55 4.9 2.05 6.45 -3.0 6.8 -0.1 Q6.9 2.8 6.0 5.6 L5.6 5.95 5.35 6.5 Q2.85 8.15 0.3 7.05 L-1.5 7.2 Q-4.45 7.25 -6.25 5.15 L-6.65 4.65 -6.7 3.6 -6.65 3.6" fill="#e2b181" fill-rule="evenodd" stroke="none"/>
    </g>
    <g id="sprite6" transform="matrix(1.0, 0.0, 0.0, 1.0, 18.45, 20.6)">
      <use ffdec:characterId="2405" ffdec:characterName="game_fla.upperleg2_295" height="86.35" id="upperLeg2" transform="matrix(1.0, 0.0, 0.0, 1.0, -18.45, -20.6)" width="39.25" xlink:href="#sprite7"/>
      <use ffdec:characterId="2412" height="81.2" id="lowerLegOuter2" transform="matrix(1.0, 0.0, 0.0, 1.0, -12.85, 47.65)" width="40.15" xlink:href="#sprite8"/>
    </g>
    <g id="sprite7" transform="matrix(1.0, 0.0, 0.0, 1.0, 21.15, 45.35)">
      <use ffdec:characterId="2401" height="85.95" transform="matrix(1.0, 0.0, 0.0, 1.0, -18.3, -45.2)" width="36.4" xlink:href="#shape4"/>
      <use ffdec:characterId="1081" height="100.0" id="shape" transform="matrix(0.32, 0.0, 0.0, 0.82, -15.9996, -40.9988)" width="100.0" xlink:href="#sprite2"/>
    </g>
    <g id="shape4" transform="matrix(1.0, 0.0, 0.0, 1.0, 18.3, 45.2)">
      <path d="M13.0 -26.25 L13.05 -26.25 13.1 -26.0 13.0 -26.25 M3.8 39.95 L3.95 39.35 4.05 39.0 Q5.85 37.0 7.35 31.7 L8.95 24.9 9.35 21.95 9.5 18.15 9.35 18.15 8.3 23.5 Q7.4 26.95 7.2 24.4 7.2 21.95 7.65 19.3 8.65 13.4 11.2 3.9 L13.8 -6.5 14.45 -11.55 14.5 -15.4 14.7 -21.0 Q14.9 -26.8 14.6 -28.7 L13.4 -35.95 Q12.85 -38.2 11.4 -39.65 9.2 -41.95 4.3 -43.65 -5.1 -45.8 -10.35 -39.45 -13.55 -35.7 -14.5 -30.3 L-14.35 -29.25 -15.1 -26.25 Q-15.8 -22.3 -15.3 -20.1 -14.9 -18.2 -12.45 -12.4 L-10.75 -8.75 -10.0 -7.1 -7.65 2.45 -6.35 1.3 -4.5 -0.95 Q-2.35 -4.05 -0.7 -8.1 L-0.35 -9.0 -0.95 -5.05 Q-1.35 -3.1 -4.25 2.9 L-5.6 5.6 -7.25 10.5 -7.3 10.9 Q-7.35 13.0 -8.15 16.75 L-9.0 20.55 -9.05 21.25 -5.65 13.7 -5.85 14.65 -7.65 21.05 -8.9 26.8 -9.0 27.2 -9.25 27.65 -9.15 28.2 -9.45 29.85 -9.55 31.15 -9.9 32.85 -10.0 34.55 -10.05 34.65 Q-10.25 35.95 -9.5 37.35 -8.95 38.45 -7.9 39.15 L-7.85 39.2 -8.8 38.55 Q-11.45 36.85 -11.8 35.45 L-12.55 30.35 -12.7 25.55 Q-11.7 17.45 -12.8 9.55 L-16.05 -8.15 -16.7 -11.5 -18.25 -21.05 Q-18.45 -25.0 -18.05 -27.3 L-17.4 -29.65 -16.55 -32.3 -15.55 -34.75 -15.1 -35.25 Q-10.4 -45.6 1.4 -45.2 12.85 -42.95 16.5 -34.95 17.9 -32.0 18.1 -28.65 17.6 -18.85 16.6 -9.2 15.65 0.45 13.85 10.05 12.1 19.5 10.0 28.8 L9.9 29.05 Q8.4 37.7 3.8 39.95 M-12.65 -25.15 L-12.6 -25.0 -12.7 -25.0 -12.65 -25.15" fill="#727e94" fill-rule="evenodd" stroke="none"/>
      <path d="M-7.85 39.2 L-7.9 39.15 Q-8.95 38.45 -9.5 37.35 -10.25 35.95 -10.05 34.65 L-10.0 34.55 -9.9 32.85 -9.55 31.15 -9.45 29.85 -9.15 28.2 -9.25 27.65 -9.0 27.2 -8.9 26.8 -7.65 21.05 -5.85 14.65 -5.65 13.7 -9.05 21.25 -9.0 20.55 -8.15 16.75 Q-7.35 13.0 -7.3 10.9 L-7.25 10.5 -5.6 5.6 -4.25 2.9 Q-1.35 -3.1 -0.95 -5.05 L-0.35 -9.0 -0.7 -8.1 Q-2.35 -4.05 -4.5 -0.95 L-6.35 1.3 -7.65 2.45 -10.0 -7.1 -10.75 -8.75 -12.45 -12.4 Q-14.9 -18.2 -15.3 -20.1 -15.8 -22.3 -15.1 -26.25 L-14.35 -29.25 -14.5 -30.3 Q-13.55 -35.7 -10.35 -39.45 -5.1 -45.8 4.3 -43.65 9.2 -41.95 11.4 -39.65 12.85 -38.2 13.4 -35.95 L14.6 -28.7 Q14.9 -26.8 14.7 -21.0 L14.5 -15.4 14.45 -11.55 13.8 -6.5 11.2 3.9 Q8.65 13.4 7.65 19.3 7.2 21.95 7.2 24.4 7.4 26.95 8.3 23.5 L9.35 18.15 9.5 18.15 9.35 21.95 8.95 24.9 7.35 31.7 Q5.85 37.0 4.05 39.0 L3.95 39.35 3.8 39.95 Q3.55 40.3 3.2 40.25 L3.15 40.25 -1.8 40.55 -4.35 40.6 Q-5.95 40.3 -7.85 39.2 M13.0 -26.25 L13.1 -26.0 13.05 -26.25 13.0 -26.25 M-12.65 -25.15 L-12.7 -25.0 -12.6 -25.0 -12.65 -25.15" fill="#5c617c" fill-rule="evenodd" stroke="none"/>
    </g>
    <g id="sprite8" transform="matrix(1.0, 0.0, 0.0, 1.0, 14.1, 8.05)">
      <use ffdec:characterId="2411" ffdec:characterName="game_fla.lowerleg2_297" height="81.2" id="lowerLeg2" transform="matrix(1.0, 0.0, 0.0, 1.0, -14.1, -8.05)" width="40.15" xlink:href="#sprite9"/>
    </g>
    <g id="sprite9" transform="matrix(1.0, 0.0, 0.0, 1.0, 13.75, 39.85)">
      <use ffdec:characterId="2406" height="21.55" transform="matrix(1.0, 0.0, 0.0, 1.0, -12.4, 19.8)" width="38.8" xlink:href="#shape5"/>
      <use ffdec:characterId="2407" height="69.8" transform="matrix(1.0, 0.0, 0.0, 1.0, -12.7, -39.85)" width="24.25" xlink:href="#shape6"/>
      <use ffdec:characterId="1081" height="100.0" id="shape" transform="matrix(0.2, 0.0, 0.0, 0.7601, -9.9998, -38.0028)" width="100.0" xlink:href="#sprite2"/>
    </g>
    <g id="shape5" transform="matrix(1.0, 0.0, 0.0, 1.0, 12.4, -19.8)">
      <path d="M26.35 36.5 L26.4 36.8 26.35 37.0 26.35 36.5 M26.35 37.1 L26.2 37.6 26.25 37.45 26.35 37.1" fill="#ffcc99" fill-rule="evenodd" stroke="none"/>
      <path d="M26.35 37.0 L26.35 37.05 26.35 37.1 26.25 37.45 26.35 36.5 26.35 37.0" fill="#e2b181" fill-rule="evenodd" stroke="none"/>
      <path d="M-3.1 23.5 L-0.05 22.7 1.65 22.35 2.45 22.15 2.6 22.15 2.65 22.15 Q4.15 21.75 7.1 19.8 L7.65 20.85 Q7.7 21.1 7.85 21.15 L9.25 23.2 Q11.8 26.45 15.45 28.6 L17.05 29.55 17.1 29.55 Q20.1 30.75 23.25 31.6 26.55 32.3 26.35 36.45 L26.35 36.5 26.25 37.45 26.2 37.6 26.2 37.65 26.15 37.65 25.15 37.65 23.8 37.55 23.6 37.55 18.8 37.2 18.15 37.1 14.75 36.65 Q9.05 35.8 5.95 30.15 L4.35 27.65 3.6 26.85 2.85 28.85 2.25 29.8 1.0 31.15 Q-2.8 31.1 -3.2 27.25 L-3.15 24.8 -3.1 23.5 M26.1 40.4 L25.35 41.35 Q18.2 41.1 12.5 39.75 L6.4 38.4 2.25 37.8 -0.2 38.15 -12.4 36.65 -12.35 36.55 -12.4 35.9 -12.35 35.7 -12.3 34.95 -12.15 34.5 -9.8 35.05 -1.8 36.05 Q3.75 36.3 9.25 37.65 L16.35 39.25 18.65 39.75 19.05 39.8 22.6 40.3 26.1 40.4 M-11.75 33.05 L-11.7 29.3 Q-11.25 26.3 -10.25 23.5 L-10.15 23.5 -7.25 23.65 -7.4 23.7 Q-9.05 24.05 -9.0 26.55 -8.95 30.0 -8.4 31.2 -8.2 32.6 -9.1 32.85 L-10.45 33.1 -11.1 33.05 -11.75 33.05 M17.1 32.35 L20.3 33.15 23.8 33.5 24.05 33.2 Q21.45 31.2 18.55 31.75 L18.1 31.9 17.1 32.35" fill="#333333" fill-rule="evenodd" stroke="none"/>
      <path d="M17.1 32.35 L18.1 31.9 18.55 31.75 Q21.45 31.2 24.05 33.2 L23.8 33.5 20.3 33.15 17.1 32.35" fill="#999999" fill-rule="evenodd" stroke="none"/>
      <path d="M26.2 37.65 L25.8 39.55 25.25 39.4 24.5 39.35 24.1 39.35 20.6 38.8 19.65 38.65 19.55 38.65 18.8 38.5 16.7 38.2 Q14.35 37.75 12.7 37.05 L8.4 36.2 6.2 35.95 3.2 35.55 2.35 35.4 1.05 35.2 -1.45 34.85 -5.5 34.85 -8.25 34.6 -10.5 34.15 -11.6 33.8 -11.7 33.25 -11.75 33.05 -11.1 33.05 -10.45 33.1 -9.1 32.85 Q-8.2 32.6 -8.4 31.2 -8.95 30.0 -9.0 26.55 -9.05 24.05 -7.4 23.7 L-7.25 23.65 -4.9 23.8 -3.55 23.5 -3.5 23.5 -3.3 23.55 -3.1 23.5 -3.15 24.8 -3.2 27.25 Q-2.8 31.1 1.0 31.15 L2.25 29.8 2.85 28.85 3.6 26.85 4.35 27.65 5.95 30.15 Q9.05 35.8 14.75 36.65 L18.15 37.1 18.8 37.2 23.6 37.55 23.8 37.55 25.15 37.65 26.15 37.65 26.2 37.65" fill="#151515" fill-rule="evenodd" stroke="none"/>
      <path d="M25.8 39.55 Q26.2 39.8 26.1 40.25 L26.1 40.4 22.6 40.3 19.05 39.8 18.65 39.75 16.35 39.25 9.25 37.65 Q3.75 36.3 -1.8 36.05 L-9.8 35.05 -12.15 34.5 -12.15 34.45 -11.7 33.25 -11.6 33.8 -10.5 34.15 -8.25 34.6 -5.5 34.85 -1.45 34.85 1.05 35.2 2.35 35.4 3.2 35.55 6.2 35.95 8.4 36.2 12.7 37.05 Q14.35 37.75 16.7 38.2 L18.8 38.5 19.55 38.65 19.65 38.65 20.6 38.8 24.1 39.35 24.5 39.35 25.25 39.4 25.8 39.55" fill="#666666" fill-rule="evenodd" stroke="none"/>
      <path d="M-10.25 23.5 L-10.15 23.4 -10.1 23.4 -10.15 23.5 -10.25 23.5" fill="#3333ff" fill-rule="evenodd" stroke="none"/>
    </g>
    <g id="shape6" transform="matrix(1.0, 0.0, 0.0, 1.0, 12.7, 39.85)">
      <path d="M-9.75 -31.65 Q-8.2 -33.5 -5.6 -35.4 -0.05 -39.5 2.85 -39.8 L5.5 -39.65 Q4.05 -38.75 3.35 -35.7 L3.25 -35.2 Q2.8 -32.85 2.85 -30.8 L2.85 -30.3 2.9 -29.75 Q2.95 -29.15 3.6 -27.45 L4.3 -25.5 Q4.45 -25.55 4.45 -25.4 5.85 -26.65 8.05 -29.45 5.9 -21.05 5.55 -16.25 5.3 -12.95 5.9 -6.95 L6.0 -5.65 Q6.4 -2.2 5.55 2.05 4.45 7.4 4.35 8.95 L5.4 7.8 6.5 6.45 6.65 6.45 6.65 6.55 3.65 17.15 3.6 17.25 3.75 17.4 Q5.25 19.1 5.35 19.95 L5.3 21.1 5.15 21.75 4.85 22.95 4.95 23.8 5.35 23.8 6.65 24.05 7.05 24.2 Q5.7 25.3 -0.5 27.15 -6.75 28.9 -10.85 29.4 L-10.35 26.5 Q-9.85 23.4 -8.9 21.5 -7.75 19.2 -6.7 15.9 L-6.15 13.85 -4.8 8.7 -4.55 7.8 -4.65 7.75 -5.0 8.35 -6.05 10.2 -6.35 10.65 -7.65 12.2 -7.65 11.95 -7.3 9.9 Q-6.95 7.75 -6.95 6.95 L-7.2 3.75 -7.45 0.7 -7.55 -0.1 -7.55 -0.3 Q-7.7 -3.25 -7.45 -8.35 L-7.4 -9.2 Q-7.25 -13.4 -7.4 -14.7 L-8.5 -19.6 Q-9.55 -23.0 -9.9 -26.5 L-9.9 -28.0 -9.75 -31.65" fill="#5c617c" fill-rule="evenodd" stroke="none"/>
      <path d="M5.5 -39.65 Q8.45 -38.9 9.95 -35.2 L11.1 -29.45 Q11.25 -28.3 10.7 -20.95 L10.0 -12.2 9.7 -7.95 9.4 -3.55 Q8.4 3.6 8.55 4.95 L9.6 9.1 10.45 12.2 10.4 15.15 Q10.2 16.65 10.45 18.95 10.55 19.9 11.55 21.35 11.7 22.6 7.05 24.2 L6.65 24.05 5.35 23.8 4.95 23.8 4.85 22.95 5.15 21.75 5.3 21.1 5.35 19.95 Q5.25 19.1 3.75 17.4 L3.6 17.25 3.65 17.15 6.65 6.55 6.65 6.45 6.5 6.45 5.4 7.8 4.35 8.95 Q4.45 7.4 5.55 2.05 6.4 -2.2 6.0 -5.65 L5.9 -6.95 Q5.3 -12.95 5.55 -16.25 5.9 -21.05 8.05 -29.45 5.85 -26.65 4.45 -25.4 4.45 -25.55 4.3 -25.5 L3.6 -27.45 Q2.95 -29.15 2.9 -29.75 L2.85 -30.3 2.85 -30.8 Q2.8 -32.85 3.25 -35.2 L3.35 -35.7 Q4.05 -38.75 5.5 -39.65 M-10.85 29.4 L-12.5 29.9 -12.7 29.75 -12.0 26.8 -11.4 25.1 Q-10.65 18.05 -10.9 15.85 L-10.8 8.1 -10.6 -0.05 -12.05 -15.7 -12.1 -18.4 Q-11.95 -19.85 -12.05 -21.85 L-12.2 -23.3 Q-12.3 -24.3 -12.05 -24.9 L-11.85 -25.4 -11.9 -26.0 Q-12.2 -28.75 -9.75 -31.65 L-9.9 -28.0 -9.9 -26.5 Q-9.55 -23.0 -8.5 -19.6 L-7.4 -14.7 Q-7.25 -13.4 -7.4 -9.2 L-7.45 -8.35 Q-7.7 -3.25 -7.55 -0.3 L-7.55 -0.1 -7.45 0.7 -7.2 3.75 -6.95 6.95 Q-6.95 7.75 -7.3 9.9 L-7.65 11.95 -7.65 12.2 -6.35 10.65 -6.05 10.2 -5.0 8.35 -4.65 7.75 -4.55 7.8 -4.8 8.7 -6.15 13.85 -6.7 15.9 Q-7.75 19.2 -8.9 21.5 -9.85 23.4 -10.35 26.5 L-10.85 29.4" fill="#727e94" fill-rule="evenodd" stroke="none"/>
    </g>
    <g id="sprite10" transform="matrix(1.0, 0.0, 0.0, 1.0, 13.6, 88.2)">
      <use ffdec:characterId="2426" ffdec:characterName="game_fla.head_299" height="77.65" id="head" transform="matrix(1.0, 0.0, 0.0, 1.0, -13.6, -88.2)" width="39.35" xlink:href="#sprite11"/>
    </g>
    <g id="sprite11" transform="matrix(1.0, 0.0, 0.0, 1.0, 22.3, 47.5)">
      <use ffdec:characterId="2415" height="23.2" transform="matrix(1.0, 0.0, 0.0, 1.0, -16.0, 6.95)" width="25.05" xlink:href="#sprite12"/>
      <use ffdec:characterId="2417" height="35.0" transform="matrix(1.0, 0.0, 0.0, 1.0, -15.25, -17.2)" width="31.2" xlink:href="#sprite13"/>
      <use ffdec:characterId="1111" height="100.0" id="shape" transform="matrix(0.34, 0.0, 0.0, 0.34, -17.0006, -17.0021)" width="100.0" xlink:href="#sprite14"/>
    </g>
    <g id="sprite12" transform="matrix(1.0, 0.0, 0.0, 1.0, 12.5, 11.6)">
      <use ffdec:characterId="2414" height="23.2" transform="matrix(1.0, 0.0, 0.0, 1.0, -12.5, -11.6)" width="25.05" xlink:href="#shape7"/>
    </g>
    <g id="shape7" transform="matrix(1.0, 0.0, 0.0, 1.0, 12.5, 11.6)">
      <path d="M2.75 -10.45 L5.85 -9.25 6.25 -9.05 Q7.25 -8.65 7.95 -7.85 L8.95 -6.5 Q9.8 -5.45 11.05 -4.75 L12.1 -4.15 12.15 -3.75 12.5 -3.55 Q12.8 -2.5 11.65 0.05 10.95 1.75 9.75 2.8 8.8 4.15 8.9 5.9 L8.95 6.15 8.05 4.7 Q7.1 1.9 3.8 -3.95 0.45 -9.8 2.1 -10.35 L2.75 -10.45 M5.9 9.0 L4.0 7.75 1.55 6.65 1.0 6.45 Q-0.45 4.6 -1.2 2.4 -1.55 1.35 -1.45 -0.55 L-1.3 -3.25 Q0.65 2.15 2.9 5.1 L6.0 9.0 5.9 9.0" fill="#e2b181" fill-rule="evenodd" stroke="none"/>
      <path d="M2.75 -10.45 L2.1 -10.35 Q0.45 -9.8 3.8 -3.95 7.1 1.9 8.05 4.7 L8.95 6.15 8.8 8.9 9.35 10.0 9.55 10.85 9.4 11.6 7.9 10.55 6.1 9.15 5.9 9.0 6.0 9.0 2.9 5.1 Q0.65 2.15 -1.3 -3.25 L-1.45 -0.55 Q-1.55 1.35 -1.2 2.4 -0.45 4.6 1.0 6.45 -2.5 5.15 -4.2 4.95 -6.65 4.5 -9.85 4.85 L-12.45 5.0 Q-12.65 4.5 -11.8 3.25 L-10.65 1.15 -9.45 -2.7 -8.2 -6.45 -7.9 -8.35 Q-7.8 -9.25 -6.55 -10.3 -4.05 -12.4 0.8 -11.1 L2.75 -10.45 M8.6 10.05 L8.6 10.1 8.65 10.15 8.6 10.05" fill="#ffcc99" fill-rule="evenodd" stroke="none"/>
    </g>
    <g id="sprite13" transform="matrix(1.0, 0.0, 0.0, 1.0, 15.6, 17.5)">
      <use ffdec:characterId="2416" height="35.0" transform="matrix(1.0, 0.0, 0.0, 1.0, -15.6, -17.5)" width="31.2" xlink:href="#shape8"/>
    </g>
    <g id="shape8" transform="matrix(1.0, 0.0, 0.0, 1.0, 15.6, 17.5)">
      <path d="M9.95 -10.05 L12.05 -9.35 12.15 -8.85 12.25 -8.4 12.6 -6.6 12.6 -6.55 12.7 -5.95 12.7 -5.25 12.7 -4.6 12.7 -4.3 12.75 -4.2 12.75 -4.15 12.8 -4.1 12.8 -4.0 13.05 -3.35 12.95 -2.2 12.85 -1.5 12.8 -1.45 12.7 -0.95 12.65 -0.65 12.5 -1.55 12.5 -1.65 12.3 -2.45 11.8 -3.25 Q8.65 -2.55 7.75 -1.65 L6.6 -0.7 6.3 -1.35 6.85 -2.55 6.7 -3.85 5.45 -1.0 4.9 -1.05 3.65 0.3 5.45 1.5 6.6 1.2 6.95 1.6 10.45 2.35 11.1 1.9 Q12.75 1.15 12.65 -0.6 L12.85 -0.4 13.75 1.6 14.4 2.95 Q14.9 3.15 15.15 3.5 15.5 3.8 15.55 4.25 15.7 5.4 15.1 5.75 L14.45 6.0 14.35 6.0 14.15 6.1 13.55 6.0 13.15 5.85 13.0 5.8 12.85 5.7 12.45 5.8 11.5 5.95 11.3 5.95 11.65 6.35 12.1 6.8 Q12.55 7.5 13.15 7.65 L13.15 7.8 13.15 8.5 12.7 8.2 12.2 8.1 10.7 9.9 13.0 8.8 13.1 8.9 13.3 9.05 Q13.75 9.0 13.75 9.55 L13.7 10.0 11.9 11.1 12.4 11.6 13.05 11.55 13.55 13.25 Q13.65 13.8 13.2 14.85 L12.4 16.0 11.75 16.2 9.35 15.9 10.3 15.1 Q10.75 14.35 10.65 13.45 L10.4 10.3 10.4 9.9 Q10.35 9.1 10.55 8.55 L10.75 7.05 10.75 6.9 11.05 6.35 10.95 5.7 11.55 4.9 12.15 4.15 11.35 4.0 10.1 5.6 10.05 7.7 Q9.9 9.5 9.2 11.3 L8.55 12.65 Q7.65 14.4 6.25 15.85 L5.4 16.45 3.6 17.45 3.6 17.5 3.3 17.4 Q0.5 17.8 -0.85 16.4 L-1.75 14.75 -3.1 12.95 Q-3.6 12.35 -3.7 11.55 L-3.6 11.0 -3.4 10.6 -3.8 8.75 -3.85 8.55 -4.05 8.5 -4.15 8.15 -4.2 8.05 Q-4.85 8.05 -5.35 7.45 L-5.7 6.65 Q-5.9 6.05 -6.9 5.15 L-8.3 3.7 Q-9.1 2.8 -9.25 2.0 L-9.15 0.0 Q-8.8 -1.6 -7.65 -1.75 L-7.2 -1.75 Q-5.95 -1.6 -5.1 -0.6 L-4.8 -0.15 -3.4 2.65 -3.3 2.75 -2.05 5.95 0.65 5.3 1.15 3.65 1.2 3.65 1.2 3.6 0.8 1.65 0.65 -0.6 0.7 -1.85 Q1.05 -4.1 1.75 -6.0 L2.0 -6.9 Q2.35 -8.65 1.8 -10.1 L1.35 -11.15 -3.2 -12.3 -7.2 -13.1 -9.4 -13.3 -3.65 -12.65 1.75 -11.4 Q4.45 -10.5 7.1 -10.2 L9.95 -10.05 M13.7 10.1 L13.7 10.15 13.55 10.65 13.7 10.1 M-7.55 -0.7 L-8.1 -0.15 -8.55 1.85 -8.25 2.15 Q-7.75 1.1 -6.7 1.5 -5.9 1.65 -5.65 2.45 L-5.6 2.5 Q-5.1 3.75 -5.6 5.0 L-3.85 6.05 -3.3 5.1 -3.7 4.05 -5.05 4.35 -4.2 3.1 -5.55 0.7 Q-6.6 -1.15 -7.55 -0.7 M-0.1 7.85 L-1.65 8.0 0.15 8.75 1.0 8.2 Q2.1 7.65 3.0 6.8 L3.2 6.75 3.95 7.4 Q4.8 7.7 4.8 8.6 L4.0 10.6 2.25 11.65 2.05 12.4 Q4.0 11.9 5.25 10.55 L8.8 6.65 6.8 7.65 6.45 7.2 Q4.4 6.1 3.0 6.8 L1.25 7.2 0.8 7.05 -0.1 7.85" fill="#ffcc99" fill-rule="evenodd" stroke="none"/>
      <path d="M12.5 -1.55 L12.65 -0.65 12.65 -0.6 Q12.75 1.15 11.1 1.9 L10.45 2.35 6.95 1.6 6.6 1.2 6.7 1.1 7.15 0.95 7.25 1.0 7.4 0.9 Q9.55 -0.65 12.15 -1.45 L12.25 -1.5 12.5 -1.55 M13.0 5.8 L13.05 5.9 12.8 6.0 12.75 6.1 12.85 6.25 13.1 7.45 13.15 7.55 13.15 7.65 Q12.55 7.5 12.1 6.8 L11.65 6.35 11.3 5.95 11.5 5.95 12.45 5.8 12.85 5.7 13.0 5.8 M-7.55 -0.7 Q-6.6 -1.15 -5.55 0.7 L-4.2 3.1 -5.05 4.35 -3.7 4.05 -3.3 5.1 -3.85 6.05 -5.6 5.0 Q-5.1 3.75 -5.6 2.5 L-5.65 2.45 Q-5.9 1.65 -6.7 1.5 -7.75 1.1 -8.25 2.15 L-8.55 1.85 -8.1 -0.15 -7.55 -0.7 M9.0 0.4 L10.35 1.25 11.25 -0.4 9.0 0.4" fill="#c79b68" fill-rule="evenodd" stroke="none"/>
      <path d="M6.6 -0.7 L5.85 0.75 6.7 1.1 6.6 1.2 5.45 1.5 3.65 0.3 4.9 -1.05 5.45 -1.0 6.7 -3.85 6.85 -2.55 6.3 -1.35 6.6 -0.7 M13.15 8.5 L13.0 8.8 10.7 9.9 12.2 8.1 12.7 8.2 13.15 8.5 M13.7 10.0 L13.7 10.1 13.55 10.65 13.05 11.55 12.4 11.6 11.9 11.1 13.7 10.0 M6.35 17.25 L3.6 17.5 3.6 17.45 5.4 16.45 6.25 15.85 Q7.65 14.4 8.55 12.65 L9.2 11.3 Q9.9 9.5 10.05 7.7 L10.1 5.6 11.35 4.0 12.15 4.15 11.55 4.9 10.65 5.3 9.2 13.45 6.35 17.25 M-0.1 7.85 L0.8 7.05 1.25 7.2 3.0 6.8 Q4.4 6.1 6.45 7.2 L6.8 7.65 8.8 6.65 5.25 10.55 Q4.0 11.9 2.05 12.4 L2.25 11.65 4.0 10.6 4.8 8.6 Q4.8 7.7 3.95 7.4 L3.2 6.75 3.0 6.8 Q2.1 7.65 1.0 8.2 L0.15 8.75 -1.65 8.0 -0.1 7.85" fill="#ebbb98" fill-rule="evenodd" stroke="none"/>
      <path d="M9.0 0.4 L11.25 -0.4 10.35 1.25 9.0 0.4" fill="#000000" fill-rule="evenodd" stroke="none"/>
      <path d="M1.15 3.6 L1.2 3.6 1.2 3.65 1.15 3.6" fill="#996633" fill-rule="evenodd" stroke="none"/>
      <path d="M-3.4 2.65 L-3.3 2.7 -3.3 2.75 -3.4 2.65" fill="#cccccc" fill-rule="evenodd" stroke="none"/>
      <path d="M1.15 3.65 L1.15 3.6 1.2 3.65 1.15 3.65" fill="#999999" fill-rule="evenodd" stroke="none"/>
      <path d="M9.95 -10.05 L10.55 -10.65 9.85 -11.25 9.35 -11.95 8.95 -12.1 8.5 -11.95 7.5 -12.55 7.95 -13.1 7.55 -13.3 6.65 -13.0 6.15 -13.25 7.05 -14.05 5.25 -14.25 4.75 -14.95 1.85 -14.8 3.0 -15.65 -1.25 -15.5 -1.75 -16.45 Q-4.95 -15.9 -7.95 -14.75 L-10.45 -13.6 -10.4 -13.35 -9.4 -13.3 -7.2 -13.1 -3.2 -12.3 1.35 -11.15 1.8 -10.1 Q2.35 -8.65 2.0 -6.9 L1.75 -6.0 Q1.05 -4.1 0.7 -1.85 L0.65 -0.6 0.8 1.65 0.3 -0.35 -0.2 0.2 -1.05 -0.8 -0.55 -3.05 -1.55 -1.75 Q-1.95 -4.5 -1.25 -6.3 L-2.55 -5.35 -2.4 -6.2 -3.6 -5.6 -3.8 -6.5 -2.7 -7.95 -5.7 -6.5 -4.45 -7.95 -4.95 -8.55 -6.15 -8.4 -5.05 -9.9 -5.85 -10.45 -8.1 -8.7 -10.45 -8.6 -11.3 -7.3 -12.15 -8.4 -12.75 -8.05 -12.65 -5.65 -13.55 -6.8 -13.7 -3.3 Q-13.6 -2.3 -14.2 -1.0 L-14.95 0.35 -15.3 -0.85 Q-15.75 -3.2 -15.55 -5.75 L-15.5 -6.55 -15.35 -7.4 -14.65 -9.95 -14.1 -11.25 Q-12.8 -13.85 -10.25 -15.35 -7.85 -16.85 -4.9 -17.3 -1.95 -17.65 0.95 -17.35 L6.15 -16.6 Q8.85 -15.85 10.8 -13.9 13.0 -11.65 12.15 -8.85 L12.05 -9.35 9.95 -10.05 M6.6 -0.7 L7.75 -1.65 Q8.65 -2.55 11.8 -3.25 L12.3 -2.45 9.45 -1.6 Q7.7 -1.1 5.85 0.75 L6.6 -0.7 M12.5 -1.65 L12.5 -1.55 12.25 -1.5 12.5 -1.65 M7.4 0.9 L7.25 1.0 7.15 0.95 7.4 0.9 M-3.75 -9.3 L-3.75 -9.35 -3.8 -9.3 -3.75 -9.3" fill="#795128" fill-rule="evenodd" stroke="none"/>
      <path d="M-9.4 -13.3 L-10.4 -13.35 -10.45 -13.6 -7.95 -14.75 Q-4.95 -15.9 -1.75 -16.45 L-1.25 -15.5 3.0 -15.65 1.85 -14.8 4.75 -14.95 5.25 -14.25 7.05 -14.05 6.15 -13.25 6.65 -13.0 7.55 -13.3 7.95 -13.1 7.5 -12.55 8.5 -11.95 8.95 -12.1 9.35 -11.95 9.85 -11.25 10.55 -10.65 9.95 -10.05 7.1 -10.2 Q4.45 -10.5 1.75 -11.4 L-3.65 -12.65 -9.4 -13.3 M-14.95 0.35 L-14.2 -1.0 Q-13.6 -2.3 -13.7 -3.3 L-13.55 -6.8 -12.65 -5.65 -12.75 -8.05 -12.15 -8.4 -11.3 -7.3 -10.45 -8.6 -8.1 -8.7 -5.85 -10.45 -5.05 -9.9 -6.15 -8.4 -4.95 -8.55 -4.45 -7.95 -5.7 -6.5 -2.7 -7.95 -3.8 -6.5 -3.6 -5.6 -2.4 -6.2 -2.55 -5.35 -1.25 -6.3 Q-1.95 -4.5 -1.55 -1.75 L-0.55 -3.05 -1.05 -0.8 -0.2 0.2 0.3 -0.35 0.8 1.65 1.2 3.6 1.15 3.6 1.15 3.65 0.65 5.3 -2.05 5.95 -3.3 2.75 -3.3 2.7 -3.4 2.65 -4.8 -0.15 -5.1 -0.6 Q-5.95 -1.6 -7.2 -1.75 L-7.65 -1.75 Q-8.8 -1.6 -9.15 0.0 L-9.25 2.0 Q-9.1 2.8 -8.3 3.7 L-6.9 5.15 Q-5.9 6.05 -5.7 6.65 L-5.35 7.45 Q-4.85 8.05 -4.2 8.05 L-4.15 8.15 Q-6.2 10.5 -9.1 8.8 -11.6 7.25 -13.0 4.75 L-13.55 3.8 -14.95 0.35 M5.85 0.75 Q7.7 -1.1 9.45 -1.6 L12.3 -2.45 12.5 -1.65 12.25 -1.5 12.15 -1.45 Q9.55 -0.65 7.4 0.9 L7.15 0.95 6.7 1.1 5.85 0.75" fill="#53371c" fill-rule="evenodd" stroke="none"/>
      <path d="M11.75 16.2 L9.7 17.0 6.35 17.25 9.2 13.45 10.65 5.3 11.55 4.9 10.95 5.7 11.05 6.35 10.75 6.9 10.75 7.05 10.55 8.55 Q10.35 9.1 10.4 9.9 L10.4 10.3 10.65 13.45 Q10.75 14.35 10.3 15.1 L9.35 15.9 11.75 16.2" fill="#e2b181" fill-rule="evenodd" stroke="none"/>
      <path d="M-3.75 -9.3 L-3.8 -9.3 -3.75 -9.35 -3.75 -9.3" fill="#4d331a" fill-rule="evenodd" stroke="none"/>
    </g>
    <g id="sprite14" transform="matrix(1.0, 0.0, 0.0, 1.0, 50.0, 50.0)">
      <use ffdec:characterId="1110" height="100.0" transform="matrix(1.0, 0.0, 0.0, 1.0, -50.0, -50.0)" width="100.0" xlink:href="#shape9"/>
    </g>
    <g id="shape9" transform="matrix(1.0, 0.0, 0.0, 1.0, 50.0, 50.0)">
      <path d="M35.35 -35.35 Q50.0 -20.7 50.0 0.0 50.0 20.7 35.35 35.35 20.7 50.0 0.0 50.0 -20.7 50.0 -35.35 35.35 -50.0 20.7 -50.0 0.0 -50.0 -20.7 -35.35 -35.35 -20.7 -50.0 0.0 -50.0 20.7 -50.0 35.35 -35.35 Z" fill="none" stroke="#9900ff" stroke-linecap="round" stroke-linejoin="round" stroke-width="0.05"/>
    </g>
    <g id="sprite15" transform="matrix(1.0, 0.0, 0.0, 1.0, 30.7, 36.75)">
      <use ffdec:characterId="2429" height="33.4" id="mc" transform="matrix(1.045, 0.0, 0.0, 1.0, -22.9934, -15.9)" width="43.05" xlink:href="#sprite16"/>
      <use ffdec:characterId="1081" height="100.0" id="shape" transform="matrix(0.44, 0.0, 0.0, 0.33, -22.0001, -16.5001)" width="100.0" xlink:href="#sprite2"/>
    </g>
    <g id="sprite16" transform="matrix(1.0, 0.0, 0.0, 1.0, 18.75, 30.6)">
      <use ffdec:characterId="2428" height="33.4" transform="matrix(1.0, 0.0, 0.0, 1.0, -18.75, -30.6)" width="43.05" xlink:href="#shape10"/>
    </g>
    <g id="shape10" transform="matrix(1.0, 0.0, 0.0, 1.0, 18.75, 30.6)">
      <path d="M-18.7 -12.5 L-18.65 -10.6 -18.7 -10.6 -18.7 -12.5" fill="#ffffff" fill-rule="evenodd" stroke="none"/>
      <path d="M10.25 -26.6 L10.0 -26.4 10.15 -26.65 10.25 -26.6" fill="#bb77a7" fill-rule="evenodd" stroke="none"/>
      <path d="M-10.25 -30.05 Q-13.5 -22.35 -13.75 -15.45 L-13.8 -14.2 Q-13.8 -12.25 -13.2 -10.05 -11.7 -4.6 -6.45 2.15 -9.0 1.75 -11.0 0.85 -15.1 -1.1 -16.8 -3.95 L-17.9 -6.05 Q-18.5 -7.55 -18.65 -9.1 L-18.7 -9.95 -18.7 -10.6 -18.65 -10.6 -18.7 -12.5 -18.5 -15.45 -18.4 -16.45 -18.15 -18.1 -16.8 -25.9 -16.6 -26.85 -16.05 -30.05 -10.25 -30.05 M10.25 1.95 Q14.6 0.25 14.4 -4.95 L14.35 -10.55 14.45 -15.45 14.65 -18.35 15.1 -24.5 Q15.1 -25.1 13.4 -26.0 11.8 -26.8 11.2 -26.8 L10.25 -26.6 10.15 -26.65 10.15 -26.7 Q11.7 -29.45 20.8 -29.45 L23.8 -28.85 23.8 -28.55 23.8 -28.35 23.85 -27.3 23.85 -26.85 24.2 -22.0 24.1 -21.8 24.2 -21.3 24.25 -21.05 24.25 -20.9 24.3 -19.1 24.2 -18.6 24.1 -18.05 23.75 -15.45 22.8 -10.7 22.75 -10.25 22.65 -10.05 22.55 -9.55 Q19.5 1.8 13.15 1.8 L12.65 1.75 10.25 1.95" fill="#9299a9" fill-rule="evenodd" stroke="none"/>
      <path d="M-10.25 -30.05 L10.35 -30.05 16.15 -30.5 23.05 -30.2 23.8 -28.85 20.8 -29.45 Q11.7 -29.45 10.15 -26.7 L10.15 -26.65 10.0 -26.4 10.25 -26.6 11.2 -26.8 Q11.8 -26.8 13.4 -26.0 15.1 -25.1 15.1 -24.5 L14.65 -18.35 14.45 -15.45 14.35 -10.55 14.4 -4.95 Q14.6 0.25 10.25 1.95 L10.1 1.95 6.25 2.65 1.35 2.8 0.8 2.65 -5.85 2.25 -6.45 2.15 Q-11.7 -4.6 -13.2 -10.05 -13.8 -12.25 -13.8 -14.2 L-13.75 -15.45 Q-13.5 -22.35 -10.25 -30.05" fill="#727e94" fill-rule="evenodd" stroke="none"/>
    </g>
    <g id="sprite17" transform="matrix(1.0, 0.0, 0.0, 1.0, 22.85, 16.35)">
      <use ffdec:characterId="2445" ffdec:characterName="game_fla.upperleg1_314" height="87.15" id="upperLeg1" transform="matrix(1.0, 0.0, 0.0, 1.0, -22.85, -16.35)" width="41.5" xlink:href="#sprite18"/>
      <use ffdec:characterId="2452" height="81.0" id="lowerLegOuter1" transform="matrix(1.0, 0.0, 0.0, 1.0, -18.25, 47.95)" width="45.3" xlink:href="#sprite19"/>
    </g>
    <g id="sprite18" transform="matrix(1.0, 0.0, 0.0, 1.0, 24.3, 44.7)">
      <use ffdec:characterId="2441" height="87.15" transform="matrix(1.0, 0.0, 0.0, 1.0, -19.9, -44.7)" width="37.1" xlink:href="#shape11"/>
      <use ffdec:characterId="1081" height="100.0" id="shape" transform="matrix(0.3, 0.0, 0.0, 0.82, -14.9994, -40.9988)" width="100.0" xlink:href="#sprite2"/>
    </g>
    <g id="shape11" transform="matrix(1.0, 0.0, 0.0, 1.0, 19.9, 44.7)">
      <path d="M3.2 -43.15 L4.15 -42.5 Q5.1 -42.1 5.65 -40.8 6.6 -36.05 4.4 -31.8 L4.35 -28.0 Q4.3 -25.05 1.0 -24.45 0.9 -32.8 1.35 -41.3 L2.3 -41.95 2.5 -42.85 3.2 -43.15 M3.7 -19.2 L1.95 -19.05 1.2 -20.9 -0.25 -21.6 0.0 -22.4 1.3 -23.1 4.1 -22.85 3.7 -19.2 M2.95 -13.4 L2.3 -13.0 1.0 -15.05 -0.3 -15.85 -0.35 -16.3 -1.05 -16.7 2.55 -18.3 4.15 -18.0 Q5.3 -15.1 2.95 -13.4 M4.55 -7.0 Q5.1 2.55 3.75 12.2 2.55 20.95 -4.55 24.55 L-6.05 25.15 -5.1 21.9 -5.3 21.35 Q-1.1 14.05 0.25 5.1 1.35 -1.75 1.55 -8.85 L-0.1 -8.85 0.5 -10.15 1.45 -10.45 1.65 -11.35 2.05 -11.55 4.35 -11.4 4.55 -10.5 5.45 -7.85 4.55 -7.0 M0.2 23.0 L-0.65 24.4 -1.15 24.65 -1.15 25.4 -3.55 29.25 -5.0 29.6 -5.5 27.1 Q-2.75 24.35 0.5 22.35 L0.2 23.0 M-6.5 33.1 L-6.55 32.5 -6.35 32.05 Q-6.15 31.8 -5.9 31.85 L-5.55 32.15 -5.45 32.7 Q-5.5 33.05 -5.7 33.2 L-6.15 33.35 -6.5 33.1" fill="#5c617c" fill-rule="evenodd" stroke="none"/>
      <path d="M-13.5 -38.65 L-13.3 -38.45 Q-14.0 -37.95 -15.4 -33.0 -16.8 -27.95 -15.8 -16.4 L-15.1 -9.1 Q-13.2 -3.35 -12.35 2.6 L-12.0 5.85 -11.75 8.25 -11.3 13.75 -12.35 15.35 -12.65 15.3 -12.7 15.25 -12.7 14.9 -12.9 13.0 -14.5 5.45 -17.65 -9.5 -19.05 -15.25 Q-21.15 -23.0 -18.2 -30.65 -16.45 -35.25 -13.5 -38.65 M12.75 14.2 Q11.0 21.05 9.45 25.2 L9.25 26.5 Q8.8 29.65 7.35 32.75 5.6 36.4 3.15 37.3 L4.25 38.65 Q4.1 39.6 2.7 40.9 1.1 42.55 -0.7 42.3 -3.2 41.9 -4.65 41.0 -6.2 40.05 -6.0 38.8 L-5.65 37.9 -4.55 37.95 -4.5 36.75 -4.55 35.6 Q-4.1 32.9 -2.5 33.0 L-2.55 30.0 Q-2.35 28.85 0.2 27.1 L3.45 24.45 4.85 21.7 Q6.05 19.25 6.15 18.45 6.4 17.15 5.7 11.05 6.85 7.5 7.4 4.0 8.05 -0.15 6.9 -8.65 6.55 -11.65 6.9 -12.65 7.3 -13.6 8.85 -14.6 L9.75 -15.3 9.5 -15.35 9.4 -15.3 6.15 -15.0 5.8 -17.45 Q6.2 -18.85 12.0 -18.55 7.5 -20.3 5.55 -20.65 L5.5 -20.8 Q5.5 -22.8 5.3 -23.2 8.25 -23.7 11.65 -23.2 L12.1 -23.2 12.15 -23.45 5.55 -25.95 5.6 -28.4 5.7 -29.65 6.15 -33.15 7.3 -39.15 Q6.8 -41.05 5.25 -43.0 L4.9 -43.5 6.5 -42.8 Q11.15 -40.55 13.9 -36.3 L15.0 -34.35 15.05 -34.25 Q18.1 -27.9 16.85 -21.1 L15.45 -10.0 15.3 -8.0 14.55 0.35 14.1 4.45 13.6 8.2 Q13.8 9.2 13.45 11.35 L12.75 14.2 M5.2 6.6 L5.2 6.45 5.25 6.4 5.2 6.6 M-12.15 10.4 L-12.3 10.35 -12.15 10.55 -12.15 10.4" fill="#9299a9" fill-rule="evenodd" stroke="none"/>
      <path d="M-13.5 -38.65 L-11.05 -41.1 -9.2 -42.55 Q-6.7 -44.35 -3.65 -44.7 L3.8 -44.35 4.9 -43.5 5.25 -43.0 Q6.8 -41.05 7.3 -39.15 L6.15 -33.15 5.7 -29.65 5.6 -28.4 5.55 -25.95 12.15 -23.45 12.1 -23.2 11.65 -23.2 Q8.25 -23.7 5.3 -23.2 5.5 -22.8 5.5 -20.8 L5.55 -20.65 Q7.5 -20.3 12.0 -18.55 6.2 -18.85 5.8 -17.45 L6.15 -15.0 9.4 -15.3 9.5 -15.35 9.75 -15.3 8.85 -14.6 Q7.3 -13.6 6.9 -12.65 6.55 -11.65 6.9 -8.65 8.05 -0.15 7.4 4.0 6.85 7.5 5.7 11.05 6.4 17.15 6.15 18.45 6.05 19.25 4.85 21.7 L3.45 24.45 0.2 27.1 Q-2.35 28.85 -2.55 30.0 L-2.5 33.0 Q-4.1 32.9 -4.55 35.6 L-4.5 36.75 -4.55 37.95 -5.65 37.9 -6.0 38.8 Q-6.2 40.05 -4.65 41.0 -3.2 41.9 -0.7 42.3 1.1 42.55 2.7 40.9 4.1 39.6 4.25 38.65 L3.15 37.3 Q5.6 36.4 7.35 32.75 8.8 29.65 9.25 26.5 L9.45 25.2 Q11.0 21.05 12.75 14.2 L12.5 16.15 Q11.75 23.85 9.75 30.35 5.8 43.45 -1.35 42.35 -7.95 41.3 -10.65 38.7 -12.95 36.5 -13.2 32.4 L-12.6 23.8 Q-12.2 19.2 -12.65 15.3 L-12.35 15.35 -11.3 13.75 -11.75 8.25 -12.0 5.85 -12.35 2.6 Q-13.2 -3.35 -15.1 -9.1 L-15.8 -16.4 Q-16.8 -27.95 -15.4 -33.0 -14.0 -37.95 -13.3 -38.45 L-13.5 -38.65 M3.2 -43.15 L2.5 -42.85 2.3 -41.95 1.35 -41.3 Q0.9 -32.8 1.0 -24.45 4.3 -25.05 4.35 -28.0 L4.4 -31.8 Q6.6 -36.05 5.65 -40.8 5.1 -42.1 4.15 -42.5 L3.2 -43.15 M3.7 -19.2 L4.1 -22.85 1.3 -23.1 0.0 -22.4 -0.25 -21.6 1.2 -20.9 1.95 -19.05 3.7 -19.2 M2.95 -13.4 Q5.3 -15.1 4.15 -18.0 L2.55 -18.3 -1.05 -16.7 -0.35 -16.3 -0.3 -15.85 1.0 -15.05 2.3 -13.0 2.95 -13.4 M4.55 -7.0 L5.45 -7.85 4.55 -10.5 4.35 -11.4 2.05 -11.55 1.65 -11.35 1.45 -10.45 0.5 -10.15 -0.1 -8.85 1.55 -8.85 Q1.35 -1.75 0.25 5.1 -1.1 14.05 -5.3 21.35 L-5.1 21.9 -6.05 25.15 -4.55 24.55 Q2.55 20.95 3.75 12.2 5.1 2.55 4.55 -7.0 M5.2 6.6 L5.25 6.4 5.2 6.45 5.2 6.6 M0.2 23.0 L0.5 22.35 Q-2.75 24.35 -5.5 27.1 L-5.0 29.6 -3.55 29.25 -1.15 25.4 -1.15 24.65 -0.65 24.4 0.2 23.0 M-12.15 10.4 L-12.15 10.55 -12.3 10.35 -12.15 10.4 M-6.5 33.1 L-6.15 33.35 -5.7 33.2 Q-5.5 33.05 -5.45 32.7 L-5.55 32.15 -5.9 31.85 Q-6.15 31.8 -6.35 32.05 L-6.55 32.5 -6.5 33.1" fill="#727e94" fill-rule="evenodd" stroke="none"/>
    </g>
    <g id="sprite19" transform="matrix(1.0, 0.0, 0.0, 1.0, 15.1, 9.0)">
      <use ffdec:characterId="2451" ffdec:characterName="game_fla.lowerleg1_316" height="81.0" id="lowerLeg1" transform="matrix(1.0, 0.0, 0.0, 1.0, -15.1, -9.0)" width="45.3" xlink:href="#sprite20"/>
    </g>
    <g id="sprite20" transform="matrix(1.0, 0.0, 0.0, 1.0, 18.9, 39.65)">
      <use ffdec:characterId="2446" height="21.55" transform="matrix(1.0, 0.0, 0.0, 1.0, -12.4, 19.8)" width="38.8" xlink:href="#shape12"/>
      <use ffdec:characterId="2447" height="69.75" transform="matrix(1.0, 0.0, 0.0, 1.0, -12.2, -39.65)" width="23.5" xlink:href="#shape13"/>
      <use ffdec:characterId="1081" height="100.0" id="shape" transform="matrix(0.2, 0.0, 0.0, 0.7601, -9.9998, -38.0028)" width="100.0" xlink:href="#sprite2"/>
    </g>
    <g id="shape12" transform="matrix(1.0, 0.0, 0.0, 1.0, 12.4, -19.8)">
      <path d="M26.35 36.5 L26.4 36.8 26.35 37.0 26.35 36.5 M26.35 37.1 L26.2 37.6 26.25 37.45 26.35 37.1" fill="#ffcc99" fill-rule="evenodd" stroke="none"/>
      <path d="M26.35 37.0 L26.35 37.05 26.35 37.1 26.25 37.45 26.35 36.5 26.35 37.0" fill="#e2b181" fill-rule="evenodd" stroke="none"/>
      <path d="M-3.1 23.5 L-0.05 22.7 1.65 22.35 2.45 22.15 2.6 22.15 2.65 22.15 Q4.15 21.75 7.1 19.8 L7.65 20.85 Q7.7 21.1 7.85 21.15 L9.25 23.2 Q11.8 26.45 15.45 28.6 L17.05 29.55 17.1 29.55 Q20.1 30.75 23.25 31.6 26.55 32.3 26.35 36.45 L26.35 36.5 26.25 37.45 26.2 37.6 26.2 37.65 26.15 37.65 25.15 37.65 23.8 37.55 23.6 37.55 18.8 37.2 18.15 37.1 14.75 36.65 Q9.05 35.8 5.95 30.15 L4.35 27.65 3.6 26.85 2.85 28.85 2.25 29.8 1.0 31.15 Q-2.8 31.1 -3.2 27.25 L-3.15 24.8 -3.1 23.5 M26.1 40.4 L25.35 41.35 Q18.2 41.1 12.5 39.75 L6.4 38.4 2.25 37.8 -0.2 38.15 -12.4 36.65 -12.35 36.55 -12.4 35.9 -12.35 35.7 -12.3 34.95 -12.15 34.5 -9.8 35.05 -1.8 36.05 Q3.75 36.3 9.25 37.65 L16.35 39.25 18.65 39.75 19.05 39.8 22.6 40.3 26.1 40.4 M-11.75 33.05 L-11.7 29.3 Q-11.25 26.3 -10.25 23.5 L-10.15 23.5 -7.25 23.65 -7.4 23.7 Q-9.05 24.05 -9.0 26.55 -8.95 30.0 -8.4 31.2 -8.2 32.6 -9.1 32.85 L-10.45 33.1 -11.1 33.05 -11.75 33.05 M17.1 32.35 L20.3 33.15 23.8 33.5 24.05 33.2 Q21.45 31.2 18.55 31.75 L18.1 31.9 17.1 32.35" fill="#333333" fill-rule="evenodd" stroke="none"/>
      <path d="M17.1 32.35 L18.1 31.9 18.55 31.75 Q21.45 31.2 24.05 33.2 L23.8 33.5 20.3 33.15 17.1 32.35" fill="#999999" fill-rule="evenodd" stroke="none"/>
      <path d="M26.2 37.65 L25.8 39.55 25.25 39.4 24.5 39.35 24.1 39.35 20.6 38.8 19.65 38.65 19.55 38.65 18.8 38.5 16.7 38.2 Q14.35 37.75 12.7 37.05 L8.4 36.2 6.2 35.95 3.2 35.55 2.35 35.4 1.05 35.2 -1.45 34.85 -5.5 34.85 -8.25 34.6 -10.5 34.15 -11.6 33.8 -11.7 33.25 -11.75 33.05 -11.1 33.05 -10.45 33.1 -9.1 32.85 Q-8.2 32.6 -8.4 31.2 -8.95 30.0 -9.0 26.55 -9.05 24.05 -7.4 23.7 L-7.25 23.65 -4.9 23.8 -3.55 23.5 -3.5 23.5 -3.3 23.55 -3.1 23.5 -3.15 24.8 -3.2 27.25 Q-2.8 31.1 1.0 31.15 L2.25 29.8 2.85 28.85 3.6 26.85 4.35 27.65 5.95 30.15 Q9.05 35.8 14.75 36.65 L18.15 37.1 18.8 37.2 23.6 37.55 23.8 37.55 25.15 37.65 26.15 37.65 26.2 37.65" fill="#151515" fill-rule="evenodd" stroke="none"/>
      <path d="M25.8 39.55 Q26.2 39.8 26.1 40.25 L26.1 40.4 22.6 40.3 19.05 39.8 18.65 39.75 16.35 39.25 9.25 37.65 Q3.75 36.3 -1.8 36.05 L-9.8 35.05 -12.15 34.5 -12.15 34.45 -11.7 33.25 -11.6 33.8 -10.5 34.15 -8.25 34.6 -5.5 34.85 -1.45 34.85 1.05 35.2 2.35 35.4 3.2 35.55 6.2 35.95 8.4 36.2 12.7 37.05 Q14.35 37.75 16.7 38.2 L18.8 38.5 19.55 38.65 19.65 38.65 20.6 38.8 24.1 39.35 24.5 39.35 25.25 39.4 25.8 39.55" fill="#666666" fill-rule="evenodd" stroke="none"/>
      <path d="M-10.25 23.5 L-10.15 23.4 -10.1 23.4 -10.15 23.5 -10.25 23.5" fill="#3333ff" fill-rule="evenodd" stroke="none"/>
    </g>
    <g id="shape13" transform="matrix(1.0, 0.0, 0.0, 1.0, 12.2, 39.65)">
      <path d="M1.55 -39.15 Q6.55 -40.65 8.6 -37.5 L10.0 -34.65 10.35 -33.5 10.9 -27.85 10.75 -22.6 Q10.95 -14.7 9.4 -8.45 8.4 -4.6 8.8 -1.2 9.15 2.15 8.65 2.6 8.15 3.0 8.75 6.45 L9.5 10.45 Q10.45 12.85 10.4 15.15 L10.45 19.5 Q10.55 20.4 11.3 21.55 11.35 22.0 8.95 23.05 L8.85 20.05 Q8.7 15.4 7.1 17.1 5.5 18.75 5.8 15.8 6.05 12.95 6.45 10.85 L6.6 7.75 3.4 13.1 2.8 13.9 Q-1.35 19.7 -3.0 22.55 -1.9 19.6 -1.2 16.45 -0.8 15.1 0.75 12.1 L2.65 8.5 Q5.9 2.65 5.45 -1.4 5.0 -5.4 3.45 -5.1 1.95 -4.85 2.9 -8.35 3.1 -11.4 3.65 -13.85 4.8 -18.45 4.55 -21.95 4.85 -24.5 5.6 -26.95 6.25 -29.0 4.4 -29.95 4.45 -32.3 2.95 -33.9 L2.45 -34.7 Q1.3 -36.25 1.2 -37.15 1.15 -38.0 1.5 -38.95 L1.55 -39.15 M-11.0 18.5 L-11.0 18.45 Q-10.8 12.5 -10.9 5.0 -10.9 2.35 -11.2 -0.5 L-12.05 -10.6 -12.0 -15.15 Q-11.8 -17.15 -11.85 -19.3 -11.65 -20.95 -11.95 -22.65 L-12.0 -23.6 -9.5 -23.65 -8.5 -24.0 -7.4 -23.6 -8.5 -19.65 -8.3 -17.5 -8.7 -2.4 -8.95 2.1 -9.05 6.7 -9.05 7.05 Q-8.0 6.05 -7.2 4.25 L-9.2 11.2 -10.3 15.9 -11.0 18.5" fill="#9299a9" fill-rule="evenodd" stroke="none"/>
      <path d="M-12.0 -23.6 L-12.0 -26.15 -11.05 -28.4 Q-10.95 -30.1 -7.55 -33.6 L-6.95 -34.2 -3.65 -36.75 Q-1.5 -38.1 1.15 -39.0 L1.55 -39.15 1.5 -38.95 Q1.15 -38.0 1.2 -37.15 1.3 -36.25 2.45 -34.7 L2.95 -33.9 Q4.45 -32.3 4.4 -29.95 6.25 -29.0 5.6 -26.95 4.85 -24.5 4.55 -21.95 4.8 -18.45 3.65 -13.85 3.1 -11.4 2.9 -8.35 1.95 -4.85 3.45 -5.1 5.0 -5.4 5.45 -1.4 5.9 2.65 2.65 8.5 L0.75 12.1 Q-0.8 15.1 -1.2 16.45 -1.9 19.6 -3.0 22.55 -1.35 19.7 2.8 13.9 L3.4 13.1 6.6 7.75 6.45 10.85 Q6.05 12.95 5.8 15.8 5.5 18.75 7.1 17.1 8.7 15.4 8.85 20.05 L8.95 23.05 7.55 23.65 7.25 23.75 6.75 23.9 3.65 25.2 4.25 23.2 3.2 22.6 3.2 21.05 3.05 19.0 4.55 15.3 4.8 13.25 0.85 18.8 -1.9 22.6 -3.9 24.4 Q-3.8 22.15 -2.8 19.55 L-1.3 15.1 Q-0.8 13.2 -0.85 12.15 L-0.65 11.35 0.9 7.0 Q1.85 4.3 2.05 2.9 L1.85 -0.25 1.9 -3.15 1.9 -3.9 -0.15 -2.3 -0.2 -5.8 0.0 -6.6 0.45 -8.8 0.2 -9.0 -0.1 -9.45 0.4 -10.65 0.85 -11.95 0.65 -12.35 0.75 -13.1 1.15 -17.15 2.15 -21.6 Q3.4 -23.85 3.3 -26.5 L3.1 -28.5 2.3 -28.65 Q0.25 -26.75 -2.5 -25.65 -0.25 -27.2 0.9 -29.45 L2.1 -32.15 -3.45 -31.2 -0.65 -36.75 -0.75 -37.2 -4.05 -32.55 -5.65 -29.35 -0.25 -30.35 Q-0.85 -28.25 -2.85 -27.25 -4.35 -26.4 -6.1 -26.6 L-6.4 -25.5 -4.1 -24.3 -3.95 -23.2 Q-1.7 -23.5 0.3 -24.7 0.9 -23.15 0.8 -21.75 L0.75 -21.05 0.75 -20.65 0.35 -18.8 -0.5 -14.15 -1.85 -9.85 -2.55 -6.45 -2.75 -3.0 -2.3 1.4 -1.8 1.3 -0.55 0.35 Q-0.25 1.55 -0.25 2.8 L-0.3 4.35 -1.15 7.9 -1.35 8.75 -1.5 9.0 -2.15 8.8 -6.3 17.7 -6.35 18.4 Q-6.6 21.1 -7.55 23.75 L-8.85 26.4 -7.8 28.3 -8.45 28.35 -8.5 28.4 -12.2 30.1 Q-11.25 24.45 -11.0 18.75 L-11.0 18.5 -10.3 15.9 -9.2 11.2 -7.2 4.25 Q-8.0 6.05 -9.05 7.05 L-9.05 6.7 -8.95 2.1 -8.7 -2.4 -8.3 -17.5 -8.5 -19.65 -7.4 -23.6 -8.5 -24.0 -9.5 -23.65 -12.0 -23.6" fill="#727e94" fill-rule="evenodd" stroke="none"/>
      <path d="M3.65 25.2 Q0.95 26.65 -4.0 27.6 L-7.8 28.3 -8.85 26.4 -7.55 23.75 Q-6.6 21.1 -6.35 18.4 L-6.3 17.7 -2.15 8.8 -1.5 9.0 -1.35 8.75 -1.15 7.9 -0.3 4.35 -0.25 2.8 Q-0.25 1.55 -0.55 0.35 L-1.8 1.3 -2.3 1.4 -2.75 -3.0 -2.55 -6.45 -1.85 -9.85 -0.5 -14.15 0.35 -18.8 0.75 -20.65 0.75 -21.05 0.8 -21.75 Q0.9 -23.15 0.3 -24.7 -1.7 -23.5 -3.95 -23.2 L-4.1 -24.3 -6.4 -25.5 -6.1 -26.6 Q-4.35 -26.4 -2.85 -27.25 -0.85 -28.25 -0.25 -30.35 L-5.65 -29.35 -4.05 -32.55 -0.75 -37.2 -0.65 -36.75 -3.45 -31.2 2.1 -32.15 0.9 -29.45 Q-0.25 -27.2 -2.5 -25.65 0.25 -26.75 2.3 -28.65 L3.1 -28.5 3.3 -26.5 Q3.4 -23.85 2.15 -21.6 L1.15 -17.15 0.75 -13.1 0.65 -12.35 0.85 -11.95 0.4 -10.65 -0.1 -9.45 0.2 -9.0 0.45 -8.8 0.0 -6.6 -0.2 -5.8 -0.15 -2.3 1.9 -3.9 1.9 -3.15 1.85 -0.25 2.05 2.9 Q1.85 4.3 0.9 7.0 L-0.65 11.35 -0.85 12.15 Q-0.8 13.2 -1.3 15.1 L-2.8 19.55 Q-3.8 22.15 -3.9 24.4 L-1.9 22.6 0.85 18.8 4.8 13.25 4.55 15.3 3.05 19.0 3.2 21.05 3.2 22.6 4.25 23.2 3.65 25.2" fill="#5c617c" fill-rule="evenodd" stroke="none"/>
    </g>
    <g id="sprite21" transform="matrix(1.0, 0.0, 0.0, 1.0, 34.5, 62.2)">
      <use ffdec:characterId="2455" height="86.85" transform="matrix(1.0, 1.0E-4, -1.0E-4, 1.0, -25.4438, -43.4523)" width="50.15" xlink:href="#sprite22"/>
      <use ffdec:characterId="1081" height="100.0" id="shape" transform="matrix(0.4004, 0.0, 0.0, 0.82, -20.0203, -40.9981)" width="100.0" xlink:href="#sprite2"/>
      <use ffdec:characterId="1138" height="0.0" id="spineRef" transform="matrix(1.0, 0.0, 0.0, 1.0, 8.35, -50.2)" width="0.0" xlink:href="#sprite23"/>
    </g>
    <g id="sprite22" transform="matrix(1.0, 0.0, 0.0, 1.0, 24.7, 67.2)">
      <use ffdec:characterId="2454" height="86.85" transform="matrix(1.0, 0.0, 0.0, 1.0, -24.7, -67.2)" width="50.15" xlink:href="#shape14"/>
    </g>
    <g id="shape14" transform="matrix(1.0, 0.0, 0.0, 1.0, 24.7, 67.2)">
      <path d="M8.45 -37.35 Q8.05 -39.25 7.95 -41.2 7.8 -45.1 7.05 -48.15 L5.55 -52.95 4.4 -55.5 3.6 -56.15 Q-3.7 -60.45 -10.65 -54.85 -14.1 -50.25 -15.1 -42.85 L-18.85 -43.5 -18.6 -45.25 Q-16.6 -55.0 -9.35 -61.65 L-9.5 -60.9 Q-9.5 -59.75 -9.0 -59.75 L-4.4 -60.05 -1.7 -60.8 -1.3 -60.85 -0.25 -60.95 -0.1 -60.95 -0.1 -60.85 -0.05 -60.95 Q6.65 -60.95 9.65 -53.4 12.7 -45.9 12.75 -28.95 11.3 -36.3 8.85 -38.1 L8.45 -37.35 M-14.85 -28.45 L-13.0 -18.9 -18.05 -17.75 -18.25 -19.05 -18.15 -19.05 Q-16.5 -19.05 -16.5 -21.6 -16.5 -23.45 -18.3 -23.45 L-18.85 -23.4 -18.95 -24.35 -19.05 -26.1 -18.35 -26.0 Q-16.8 -26.0 -16.8 -27.35 L-17.05 -28.05 -17.2 -28.25 -16.55 -28.7 -14.95 -28.45 -14.85 -28.45 M-11.0 -10.4 L-10.8 -9.5 -9.75 -4.85 -10.8 -4.4 Q-13.25 -3.55 -15.95 -3.65 L-16.4 -3.6 -19.5 -5.15 -18.75 -6.15 Q-17.7 -7.6 -17.35 -9.45 L-17.3 -9.8 -11.0 -10.4" fill="#78783c" fill-rule="evenodd" stroke="none"/>
      <path d="M-15.1 -42.85 Q-14.1 -50.25 -10.65 -54.85 -3.7 -60.45 3.6 -56.15 L4.4 -55.5 5.55 -52.95 7.05 -48.15 Q7.8 -45.1 7.95 -41.2 8.05 -39.25 8.45 -37.35 L8.4 -37.2 8.85 -34.45 9.95 -29.0 Q10.95 -24.25 11.7 -21.35 L11.6 -19.55 11.6 -19.2 Q10.9 -20.7 9.5 -22.1 8.9 -21.85 8.9 -21.0 8.9 -20.65 10.95 -16.05 L10.05 -12.8 9.8 -11.85 Q9.0 -11.55 8.85 -10.6 L7.95 -11.45 Q6.7 -11.45 5.7 -9.55 L4.35 -4.7 0.0 -3.45 -2.05 -4.3 -2.85 -4.65 -2.7 -5.2 -2.6 -6.3 -2.8 -7.0 -3.35 -7.65 -3.8 -7.95 -4.65 -7.65 Q-5.2 -7.5 -5.45 -7.0 -5.7 -6.5 -5.4 -6.15 L-4.8 -5.1 -9.75 -4.85 -10.8 -9.5 -11.0 -10.4 -9.0 -10.6 -10.4 -19.5 -13.0 -18.9 -14.85 -28.45 -14.45 -28.4 -6.35 -26.8 -6.15 -28.65 -8.2 -32.65 -5.6 -32.65 -5.45 -34.9 -7.9 -35.8 -5.3 -37.25 -5.05 -40.75 -5.05 -42.1 Q-7.5 -41.7 -14.6 -42.8 L-14.65 -42.8 -15.1 -42.85 M-0.05 -60.95 L-0.1 -60.85 -0.1 -60.95 -0.05 -60.95 M1.55 -11.4 L1.65 -12.15 Q1.65 -13.5 0.2 -13.5 L-0.45 -13.35 -0.5 -12.65 Q-0.7 -11.15 0.75 -11.15 1.5 -11.15 1.55 -11.4" fill="#666633" fill-rule="evenodd" stroke="none"/>
      <path d="M8.45 -37.35 L8.85 -38.1 Q11.3 -36.3 12.75 -28.95 12.7 -45.9 9.65 -53.4 6.65 -60.95 -0.05 -60.95 L-0.1 -60.95 -0.25 -60.95 -1.3 -60.85 -1.7 -60.8 -4.4 -60.05 -9.0 -59.75 Q-9.5 -59.75 -9.5 -60.9 L-9.35 -61.65 -7.85 -63.0 -5.7 -64.7 -3.3 -65.1 Q0.8 -65.1 4.5 -63.85 8.1 -62.75 10.8 -59.95 L12.75 -57.45 13.6 -55.85 14.8 -53.5 Q18.1 -46.35 17.0 -25.55 L16.6 -25.05 15.9 -21.5 16.55 -19.65 19.2 -14.1 19.2 -13.5 Q18.6 -14.75 17.45 -15.2 16.55 -13.9 16.55 -11.25 16.55 -10.0 18.35 -5.3 18.05 -5.3 18.05 -4.7 15.85 -5.7 16.05 -6.75 L14.7 -6.75 13.4 -6.75 Q12.0 -6.2 12.0 -4.35 L11.6 -4.7 11.55 -4.75 10.2 -5.15 10.25 -6.1 9.85 -7.75 10.75 -7.55 11.6 -7.8 Q12.35 -8.45 12.35 -10.5 12.35 -12.0 10.7 -12.0 L9.8 -11.85 10.05 -12.8 10.95 -16.05 Q8.9 -20.65 8.9 -21.0 8.9 -21.85 9.5 -22.1 10.9 -20.7 11.6 -19.2 L11.6 -19.55 11.7 -21.35 Q10.95 -24.25 9.95 -29.0 L8.85 -34.45 8.4 -37.2 8.45 -37.35" fill="#8d8c47" fill-rule="evenodd" stroke="none"/>
      <path d="M-9.75 -4.85 L-4.8 -5.1 -5.4 -6.15 Q-5.7 -6.5 -5.45 -7.0 -5.2 -7.5 -4.65 -7.65 L-3.8 -7.95 -3.35 -7.65 -2.8 -7.0 -2.6 -6.3 -2.7 -5.2 -2.85 -5.2 Q-5.05 -5.2 -5.05 -3.7 -4.7 -3.55 -4.7 -2.95 L-8.2 -2.5 Q-10.05 -2.5 -12.5 -3.2 -13.85 -3.2 -15.8 -2.6 L-15.95 -3.65 Q-13.25 -3.55 -10.8 -4.4 L-9.75 -4.85 M-2.05 -4.3 L0.0 -3.45 4.35 -4.7 5.7 -9.55 Q6.7 -11.45 7.95 -11.45 L8.85 -10.6 Q9.0 -11.55 9.8 -11.85 L10.7 -12.0 Q12.35 -12.0 12.35 -10.5 12.35 -8.45 11.6 -7.8 11.4 -9.35 10.2 -9.35 9.4 -9.35 9.15 -8.9 9.1 -9.45 8.6 -9.45 6.4 -9.45 6.9 -4.2 4.55 -3.5 3.65 -3.6 2.6 -3.6 1.9 -3.0 1.2 -2.4 0.55 -2.4 -0.3 -2.4 -2.5 -3.1 L-2.5 -3.15 Q-2.05 -3.6 -2.05 -4.1 L-2.05 -4.3 M14.7 -6.75 L14.7 -4.2 13.5 -3.9 12.65 -3.5 12.0 -3.75 11.3 -3.5 11.25 -3.6 11.55 -4.7 11.6 -4.7 12.0 -4.35 Q12.0 -6.2 13.4 -6.75 L14.7 -6.75 M1.55 -11.4 Q1.5 -11.15 0.75 -11.15 -0.7 -11.15 -0.5 -12.65 L-0.45 -13.35 0.2 -13.5 Q1.65 -13.5 1.65 -12.15 L1.55 -11.4" fill="#cccc66" fill-rule="evenodd" stroke="none"/>
      <path d="M-2.7 -5.2 L-2.85 -4.65 -2.05 -4.3 -2.05 -4.1 Q-2.05 -3.6 -2.5 -3.15 L-2.5 -3.1 Q-0.3 -2.4 0.55 -2.4 1.2 -2.4 1.9 -3.0 2.6 -3.6 3.65 -3.6 4.55 -3.5 6.9 -4.2 6.4 -9.45 8.6 -9.45 9.1 -9.45 9.15 -8.9 9.4 -9.35 10.2 -9.35 11.4 -9.35 11.6 -7.8 L10.75 -7.55 9.85 -7.75 10.25 -6.1 10.2 -5.15 11.55 -4.75 11.6 -4.7 11.55 -4.7 11.25 -3.6 11.3 -3.5 12.0 -3.75 12.65 -3.5 13.5 -3.9 14.7 -4.2 14.65 2.8 12.75 3.4 -14.55 4.25 -15.0 2.65 -15.5 0.0 -15.8 -2.6 Q-13.85 -3.2 -12.5 -3.2 -10.05 -2.5 -8.2 -2.5 L-4.7 -2.95 Q-4.7 -3.55 -5.05 -3.7 -5.05 -5.2 -2.85 -5.2 L-2.7 -5.2" fill="#fefda3" fill-rule="evenodd" stroke="none"/>
      <path d="M-14.6 -42.8 Q-7.5 -41.7 -5.05 -42.1 L-5.05 -40.75 -5.3 -37.25 -7.9 -35.8 -5.45 -34.9 -5.6 -32.65 -8.2 -32.65 -6.15 -28.65 -6.35 -26.8 -14.45 -28.4 -14.85 -28.45 -14.95 -28.45 -15.1 -34.85 -14.6 -42.8" fill="#2f3f27" fill-rule="evenodd" stroke="none"/>
      <path d="M-18.85 -43.5 L-15.1 -42.85 -14.65 -42.8 -14.6 -42.8 -15.1 -34.85 -14.95 -28.45 -16.55 -28.7 -19.2 -28.9 -19.25 -37.3 -19.0 -42.05 -18.85 -43.5" fill="#3a4f31" fill-rule="evenodd" stroke="none"/>
      <path d="M-13.0 -18.9 L-10.4 -19.5 -9.0 -10.6 -11.0 -10.4 -11.85 -13.9 -13.0 -18.9" fill="#cc6600" fill-rule="evenodd" stroke="none"/>
      <path d="M-17.3 -9.8 Q-16.8 -11.95 -17.2 -14.75 L-17.65 -16.05 -18.05 -17.75 -13.0 -18.9 -11.85 -13.9 -11.0 -10.4 -17.3 -9.8" fill="#e37302" fill-rule="evenodd" stroke="none"/>
      <path d="M1.5 -64.15 L1.55 -64.15 5.3 -63.55 Q8.45 -62.1 11.1 -59.8 L12.35 -58.7 16.5 -52.65 16.7 -52.1 17.5 -49.3 Q18.9 -43.95 19.5 -38.3 L19.5 -38.15 19.15 -38.25 Q18.3 -43.75 16.4 -48.75 14.4 -54.05 10.8 -58.25 L10.4 -58.7 5.45 -62.7 1.5 -64.05 1.5 -64.15 M-19.25 -42.95 L-18.8 -38.7 Q-18.25 -34.45 -17.5 -32.3 L-15.65 -25.95 Q-14.25 -20.8 -14.25 -19.75 L-14.45 -16.95 -14.05 -14.8 -13.45 -10.95 -13.35 -9.35 -12.95 -3.3 -11.75 -4.6 -10.25 -6.25 -5.15 -13.1 -9.5 -10.05 -4.45 -17.5 -4.85 -18.5 -9.55 -15.3 -6.9 -26.45 -12.15 -23.2 Q-12.15 -25.15 -11.55 -27.0 L-11.2 -27.95 -9.9 -30.15 Q-8.2 -33.35 -8.3 -37.0 L-8.7 -37.05 Q-9.95 -32.0 -13.6 -28.3 L-14.15 -29.75 Q-12.1 -34.55 -11.25 -39.85 -12.5 -37.85 -14.35 -36.15 L-13.75 -42.85 -14.15 -43.25 -13.85 -44.65 -13.15 -47.0 -11.95 -49.3 Q-9.6 -53.35 -5.55 -55.9 -9.4 -54.5 -12.85 -52.3 L-11.75 -54.25 Q-9.35 -58.25 -4.9 -59.8 -1.9 -60.25 0.35 -59.9 2.4 -56.75 3.0 -53.6 L5.1 -48.85 Q8.6 -42.2 7.1 -31.6 L6.75 -29.65 6.7 -29.25 6.75 -29.35 Q10.05 -31.85 10.3 -36.0 L10.35 -37.25 Q11.6 -35.25 10.75 -33.05 L10.05 -31.6 14.9 -37.2 15.9 -37.05 Q19.4 -29.45 11.9 -26.45 L9.65 -25.65 9.1 -26.1 8.55 -24.9 7.95 -25.0 7.35 -24.2 5.55 -21.15 0.35 -2.85 3.6 -8.15 Q7.25 -13.15 8.5 -14.25 10.2 -8.8 10.5 -0.15 10.75 8.5 9.75 12.4 L9.55 13.15 8.75 16.4 9.0 16.85 9.25 17.3 Q9.25 17.85 8.85 18.15 L8.75 18.25 22.65 18.75 22.25 19.65 10.5 19.5 10.35 19.5 -4.9 19.5 -5.95 19.45 -9.4 19.15 Q-19.55 18.15 -24.7 15.75 L-24.7 14.2 Q-22.6 8.95 -21.0 0.7 L-20.2 -4.1 -19.4 -9.35 -18.75 -15.0 -19.3 -25.5 -19.45 -27.95 Q-19.75 -32.8 -19.5 -39.15 L-19.25 -42.95 M24.65 1.5 L24.2 1.8 23.75 -1.95 22.35 -12.5 21.4 -18.55 20.35 -23.05 19.5 -16.9 19.15 -20.9 19.3 -25.35 19.55 -25.35 Q20.5 -30.15 19.7 -35.0 L19.85 -35.05 19.9 -34.65 20.25 -33.05 20.3 -32.65 20.8 -30.35 20.85 -30.15 21.65 -27.35 Q23.1 -22.5 24.15 -17.65 L24.85 -13.65 25.45 -4.05 25.4 -1.95 24.65 1.5 M2.2 -21.9 Q8.05 -32.2 6.55 -39.95 5.0 -47.75 3.1 -49.9 -0.2 -53.6 -5.1 -48.9 -7.05 -47.05 -6.25 -44.65 -3.55 -36.9 -5.35 -30.5 L-1.95 -33.85 -4.25 -22.5 -2.9 -23.65 -2.1 -24.2 Q0.7 -26.1 1.65 -29.4 L-0.9 -18.65 2.2 -21.9 M6.35 -4.0 Q6.35 -4.65 6.25 -4.25 4.65 -0.25 1.85 5.25 2.5 4.7 4.4 1.1 6.35 -2.75 6.35 -4.0 M-3.5 4.45 L-3.55 4.5 -3.4 4.5 -3.25 4.25 -3.4 4.15 -3.5 4.45 M-2.05 9.8 Q-2.05 10.45 -2.0 10.0 -0.95 8.6 0.25 5.65 -0.35 5.9 -1.25 7.6 -2.05 9.2 -2.05 9.8 M6.35 2.25 Q6.35 1.65 6.1 1.9 5.15 2.45 4.05 4.5 L2.1 7.9 2.25 8.0 2.85 7.35 -1.4 16.35 -1.0 16.65 -0.3 16.2 0.05 15.85 0.6 16.0 0.85 16.25 Q0.3 17.05 0.85 17.75 L1.4 18.25 Q2.55 19.0 3.75 19.0 L5.1 18.55 Q5.9 18.05 5.9 17.5 L4.65 16.4 4.6 16.35 5.25 14.35 5.55 13.15 5.85 11.25 5.3 10.45 4.75 9.75 4.75 8.75 Q5.75 4.8 5.75 3.75 L5.75 3.7 6.35 2.25 M-17.05 16.65 L-17.05 16.6 -17.05 16.65" fill="#727e94" fill-rule="evenodd" stroke="none"/>
      <path d="M1.5 -64.15 L1.5 -64.05 5.3 -60.8 7.15 -58.7 8.9 -56.2 Q11.9 -51.45 13.95 -46.4 L15.85 -41.05 18.85 -28.0 19.35 -26.0 19.3 -25.35 19.15 -20.9 19.5 -16.9 20.35 -23.05 21.4 -18.55 22.35 -12.5 23.75 -1.95 24.2 1.8 24.65 1.5 Q25.15 7.1 24.25 12.65 23.75 15.8 22.65 18.75 L8.75 18.25 8.85 18.15 Q9.25 17.85 9.25 17.3 L9.0 16.85 8.75 16.4 9.55 13.15 9.75 12.4 Q10.75 8.5 10.5 -0.15 10.2 -8.8 8.5 -14.25 7.25 -13.15 3.6 -8.15 L0.35 -2.85 5.55 -21.15 7.35 -24.2 7.95 -25.0 8.55 -24.9 9.1 -26.1 9.65 -25.65 11.9 -26.45 Q19.4 -29.45 15.9 -37.05 L14.9 -37.2 10.05 -31.6 10.75 -33.05 Q11.6 -35.25 10.35 -37.25 L10.3 -36.0 Q10.05 -31.85 6.75 -29.35 L6.7 -29.25 6.75 -29.65 7.1 -31.6 Q8.6 -42.2 5.1 -48.85 L3.0 -53.6 Q2.4 -56.75 0.35 -59.9 -1.9 -60.25 -4.9 -59.8 -9.35 -58.25 -11.75 -54.25 L-12.85 -52.3 Q-9.4 -54.5 -5.55 -55.9 -9.6 -53.35 -11.95 -49.3 L-13.15 -47.0 -13.85 -44.65 -14.15 -43.25 -13.75 -42.85 -14.35 -36.15 Q-12.5 -37.85 -11.25 -39.85 -12.1 -34.55 -14.15 -29.75 L-13.6 -28.3 Q-9.95 -32.0 -8.7 -37.05 L-8.3 -37.0 Q-8.2 -33.35 -9.9 -30.15 L-11.2 -27.95 -11.55 -27.0 Q-12.15 -25.15 -12.15 -23.2 L-6.9 -26.45 -9.55 -15.3 -4.85 -18.5 -4.45 -17.5 -9.5 -10.05 -5.15 -13.1 -10.25 -6.25 -11.75 -4.6 -12.95 -3.3 -13.35 -9.35 -13.45 -10.95 -14.05 -14.8 -14.45 -16.95 -14.25 -19.75 Q-14.25 -20.8 -15.65 -25.95 L-17.5 -32.3 Q-18.25 -34.45 -18.8 -38.7 L-19.25 -42.95 -18.6 -47.0 Q-17.9 -50.35 -16.45 -53.65 L-14.85 -56.65 -14.85 -56.7 -14.4 -57.45 -14.2 -57.6 -14.15 -57.65 Q-12.3 -60.35 -9.65 -62.5 L-9.0 -62.95 -3.65 -63.95 1.5 -64.15 M-17.05 16.65 L-17.05 16.6 -17.05 16.65" fill="#9299a9" fill-rule="evenodd" stroke="none"/>
      <path d="M16.5 -52.65 L12.35 -58.7 11.1 -59.8 Q8.45 -62.1 5.3 -63.55 L1.55 -64.15 1.5 -64.15 -3.65 -63.95 -9.0 -62.95 Q-5.3 -66.6 -0.15 -67.15 L5.3 -66.7 Q10.25 -64.75 14.55 -61.4 L15.5 -60.65 18.35 -58.0 17.95 -55.1 16.9 -52.5 16.5 -52.65" fill="#ffffff" fill-rule="evenodd" stroke="none"/>
      <path d="M1.5 -64.05 L5.45 -62.7 8.75 -58.7 8.9 -58.5 Q12.7 -53.9 15.2 -48.7 17.65 -43.5 19.1 -37.9 L19.7 -35.0 Q20.5 -30.15 19.55 -25.35 L19.35 -26.0 18.85 -28.0 15.85 -41.05 13.95 -46.4 Q11.9 -51.45 8.9 -56.2 L7.15 -58.7 5.3 -60.8 1.5 -64.05" fill="#464564" fill-rule="evenodd" stroke="none"/>
      <path d="M5.45 -62.7 L10.4 -58.7 10.8 -58.25 Q14.4 -54.05 16.4 -48.75 18.3 -43.75 19.15 -38.25 L19.85 -35.05 19.7 -35.0 19.1 -37.9 Q17.65 -43.5 15.2 -48.7 12.7 -53.9 8.9 -58.5 L8.75 -58.7 5.45 -62.7 M6.35 -4.0 Q6.35 -2.75 4.4 1.1 2.5 4.7 1.85 5.25 4.65 -0.25 6.25 -4.25 6.35 -4.65 6.35 -4.0 M2.2 -21.9 L-0.9 -18.65 1.65 -29.4 Q0.7 -26.1 -2.1 -24.2 L-2.9 -23.65 -4.25 -22.5 -1.95 -33.85 -5.35 -30.5 Q-3.55 -36.9 -6.25 -44.65 -7.05 -47.05 -5.1 -48.9 -0.2 -53.6 3.1 -49.9 5.0 -47.75 6.55 -39.95 8.05 -32.2 2.2 -21.9 M6.35 2.25 L5.75 3.7 5.75 3.75 Q5.75 4.8 4.75 8.75 L4.75 9.75 5.3 10.45 5.85 11.25 5.55 13.15 5.25 14.35 4.6 16.35 4.65 16.4 5.9 17.5 Q5.9 18.05 5.1 18.55 L3.75 19.0 Q2.55 19.0 1.4 18.25 L0.85 17.75 Q0.3 17.05 0.85 16.25 L0.6 16.0 0.05 15.85 -0.3 16.2 -1.0 16.65 -1.4 16.35 2.85 7.35 2.25 8.0 2.1 7.9 4.05 4.5 Q5.15 2.45 6.1 1.9 6.35 1.65 6.35 2.25 M-2.05 9.8 Q-2.05 9.2 -1.25 7.6 -0.35 5.9 0.25 5.65 -0.95 8.6 -2.0 10.0 -2.05 10.45 -2.05 9.8 M-3.5 4.45 L-3.4 4.15 -3.25 4.25 -3.4 4.5 -3.55 4.5 -3.5 4.45" fill="#5c617c" fill-rule="evenodd" stroke="none"/>
      <path d="M19.5 -38.15 L19.5 -38.3 Q18.9 -43.95 17.5 -49.3 L16.7 -52.1 16.9 -52.5 17.95 -55.1 18.8 -55.7 19.35 -51.7 18.5 -50.55 Q20.5 -46.25 21.25 -41.35 21.95 -36.5 21.55 -33.7 L20.85 -30.3 20.8 -30.35 20.3 -32.65 20.35 -32.85 19.9 -34.65 19.85 -35.05 19.5 -38.15" fill="#3f072e" fill-rule="evenodd" stroke="none"/>
      <path d="M19.15 -38.25 L19.5 -38.15 19.85 -35.05 19.15 -38.25 M20.85 -30.3 L20.85 -30.15 20.8 -30.35 20.85 -30.3 M20.3 -32.65 L20.25 -33.05 20.35 -32.85 20.3 -32.65" fill="#848c9f" fill-rule="evenodd" stroke="none"/>
      <path d="M19.3 -25.35 L19.35 -26.0 19.55 -25.35 19.3 -25.35" fill="#67646b" fill-rule="evenodd" stroke="none"/>
    </g>
    <g id="sprite24" transform="matrix(1.0, 0.0, 0.0, 1.0, 13.7, 20.4)">
      <use ffdec:characterId="2475" ffdec:characterName="game_fla.upperarm1_327" height="65.8" id="upperArm1" transform="matrix(1.0, 0.0, 0.0, 1.0, -13.7, -20.4)" width="26.5" xlink:href="#sprite25"/>
      <use ffdec:characterId="2481" height="67.95" id="lowerArmOuter1" transform="matrix(1.0, 0.0, 0.0, 1.0, -10.75, 32.4)" width="20.75" xlink:href="#sprite26"/>
    </g>
    <g id="sprite25" transform="matrix(1.0, 0.0, 0.0, 1.0, 12.4, 37.05)">
      <use ffdec:characterId="2471" height="56.35" transform="matrix(1.0, 0.0, 0.0, 1.0, -9.3, -27.65)" width="20.45" xlink:href="#shape15"/>
      <use ffdec:characterId="1081" height="100.0" id="shape" transform="matrix(0.18, 0.0, 0.0, 0.55, -8.9996, -27.4994)" width="100.0" xlink:href="#sprite2"/>
    </g>
    <g id="shape15" transform="matrix(1.0, 0.0, 0.0, 1.0, 9.3, 27.65)">
      <path d="M3.45 -27.55 Q4.75 -25.15 6.25 -23.35 8.7 -20.35 7.35 -17.0 L7.3 -16.75 6.8 -15.45 Q5.85 -15.0 5.85 -14.1 4.8 -12.55 2.7 -11.5 6.25 -10.45 7.1 -9.15 L7.75 -7.0 8.2 -6.3 8.3 -6.3 8.6 -10.55 9.4 -15.5 9.0 -15.7 9.4 -17.2 9.45 -17.95 Q9.6 -21.55 8.3 -24.9 9.5 -23.65 10.15 -22.1 L10.9 -19.15 Q11.35 -17.05 11.05 -14.4 L10.5 -9.75 10.05 -6.45 9.2 1.25 1.15 -0.65 1.1 0.05 0.7 0.4 0.35 0.4 2.15 2.35 3.0 3.0 3.9 3.55 Q5.25 4.3 6.85 4.3 L7.5 4.25 7.8 3.65 8.35 3.45 8.85 2.75 8.35 5.15 Q7.9 7.75 7.9 10.85 L7.6 10.5 7.6 8.85 7.25 8.4 Q6.05 8.75 5.3 9.5 L4.8 10.15 6.7 14.0 6.15 15.7 4.3 15.85 4.45 17.15 5.4 17.85 6.2 17.65 6.6 17.05 7.5 17.55 8.95 14.9 9.45 17.9 9.25 18.95 8.8 19.35 7.95 19.05 7.0 18.75 6.2 18.6 0.7 24.7 2.95 24.55 3.3 23.9 8.2 22.9 8.45 22.45 Q8.3 24.05 7.75 25.1 6.6 27.15 3.4 27.45 L2.5 27.8 0.1 28.65 Q-1.8 29.1 -4.0 26.85 -6.2 24.55 -6.65 21.7 L-7.35 15.1 -7.35 13.85 -6.8 10.25 -6.55 7.75 -6.75 3.35 -7.0 1.65 Q-7.5 -0.5 -6.05 -2.05 -4.6 -3.65 -4.95 -5.1 L-5.6 -6.9 -5.7 -7.0 -7.4 -10.4 -7.55 -10.7 -7.75 -11.35 Q-8.3 -13.35 -8.45 -15.25 -8.7 -17.75 -8.3 -20.25 L-8.0 -21.6 -7.35 -22.65 -6.75 -23.4 Q-4.8 -25.65 -2.2 -26.75 L-2.1 -26.75 Q0.5 -27.9 3.45 -27.55 M5.75 -19.4 L5.65 -19.75 Q5.75 -16.8 0.85 -15.85 L-0.45 -15.6 -3.2 -15.45 -5.5 -14.55 -5.55 -13.95 -5.05 -13.0 -3.95 -11.15 -3.9 -11.05 Q-2.95 -9.25 -2.7 -7.15 L-2.65 -6.0 -2.4 -3.05 -0.9 -0.7 -0.75 -1.1 -0.7 -1.2 -0.5 -1.5 -0.85 -3.85 Q-1.0 -5.5 1.1 -4.15 L2.2 -3.5 2.65 -3.35 3.3 -3.05 3.35 -3.1 Q5.85 -2.0 6.4 -2.05 6.75 -2.1 6.9 -2.3 L6.4 -3.0 4.35 -5.05 4.05 -5.3 3.9 -5.5 2.85 -6.7 1.55 -8.0 1.25 -8.35 -0.15 -9.9 0.95 -12.3 0.95 -12.4 1.15 -12.6 Q2.35 -13.6 3.95 -14.25 5.4 -14.85 5.75 -16.85 6.0 -18.05 5.75 -19.4 M1.5 3.1 L0.55 2.5 -0.45 1.75 -0.65 1.15 -1.7 0.85 -3.5 0.3 -5.65 0.0 -5.8 0.65 Q-4.15 1.7 -2.7 3.45 L-2.65 3.45 -2.15 4.25 Q-1.45 5.45 -1.0 6.75 L1.45 9.4 1.3 9.55 -0.7 8.05 Q-0.5 9.4 -0.55 10.85 L0.1 11.95 0.15 12.05 0.2 12.75 0.2 14.4 Q-0.2 16.85 -1.2 18.95 L-3.4 24.25 -3.85 25.5 -2.9 25.65 1.05 20.15 2.4 18.2 2.25 17.7 2.0 17.05 Q1.9 15.75 2.6 15.75 3.1 15.7 3.6 16.35 L4.75 14.35 Q4.7 13.7 3.65 12.45 L2.55 10.75 2.6 10.55 3.75 9.55 4.3 7.95 4.55 7.65 4.65 6.6 4.15 5.55 4.05 5.45 1.5 3.1" fill="#727e94" fill-rule="evenodd" stroke="none"/>
      <path d="M3.45 -27.55 L4.5 -27.1 Q6.6 -26.3 8.3 -24.9 9.6 -21.55 9.45 -17.95 L9.4 -17.2 9.0 -15.7 9.4 -15.5 8.6 -10.55 8.3 -6.3 8.2 -6.3 7.75 -7.0 7.1 -9.15 Q6.25 -10.45 2.7 -11.5 4.8 -12.55 5.85 -14.1 5.85 -15.0 6.8 -15.45 L7.3 -16.75 7.35 -17.0 Q8.7 -20.35 6.25 -23.35 4.75 -25.15 3.45 -27.55 M9.2 1.25 L8.85 2.7 8.85 2.75 8.35 3.45 7.8 3.65 7.5 4.25 6.85 4.3 Q5.25 4.3 3.9 3.55 L3.0 3.0 2.15 2.35 0.35 0.4 0.7 0.4 1.1 0.05 1.15 -0.65 9.2 1.25 M7.9 10.85 L8.95 14.9 7.5 17.55 6.6 17.05 6.2 17.65 5.4 17.85 4.45 17.15 4.3 15.85 6.15 15.7 6.7 14.0 4.8 10.15 5.3 9.5 Q6.05 8.75 7.25 8.4 L7.6 8.85 7.6 10.5 7.9 10.85 M-7.35 13.85 L-7.35 11.2 -7.45 8.45 -7.6 5.55 -8.15 0.85 -8.95 -5.45 -9.0 -6.6 -9.05 -7.35 -9.2 -10.55 -9.25 -11.2 -9.25 -14.5 -9.05 -17.4 -8.5 -20.25 -8.0 -21.6 -8.3 -20.25 Q-8.7 -17.75 -8.45 -15.25 -8.3 -13.35 -7.75 -11.35 L-7.55 -10.7 -7.4 -10.4 -5.7 -7.0 -5.6 -6.9 -4.95 -5.1 Q-4.6 -3.65 -6.05 -2.05 -7.5 -0.5 -7.0 1.65 L-6.75 3.35 -6.55 7.75 -6.8 10.25 -7.35 13.85" fill="#9299a9" fill-rule="evenodd" stroke="none"/>
      <path d="M8.5 22.4 L8.45 22.45 8.2 22.9 3.3 23.9 3.85 23.55 Q5.9 21.9 8.4 21.2 L8.5 22.4" fill="#464564" fill-rule="evenodd" stroke="none"/>
      <path d="M8.8 19.35 L8.85 21.9 8.5 22.4 8.4 21.2 Q5.9 21.9 3.85 23.55 L3.3 23.9 2.95 24.55 0.7 24.7 6.2 18.6 7.0 18.75 7.95 19.05 8.8 19.35 M5.75 -19.4 Q6.0 -18.05 5.75 -16.85 5.4 -14.85 3.95 -14.25 2.35 -13.6 1.15 -12.6 L0.95 -12.4 0.95 -12.3 -0.15 -9.9 1.25 -8.35 1.55 -8.0 2.85 -6.7 3.9 -5.5 4.05 -5.3 4.35 -5.05 6.4 -3.0 6.9 -2.3 Q6.75 -2.1 6.4 -2.05 5.85 -2.0 3.35 -3.1 L3.3 -3.05 2.65 -3.35 2.2 -3.5 1.1 -4.15 Q-1.0 -5.5 -0.85 -3.85 L-0.5 -1.5 -0.7 -1.2 -0.75 -1.1 -0.9 -0.7 -2.4 -3.05 -2.65 -6.0 -2.7 -7.15 Q-2.95 -9.25 -3.9 -11.05 L-3.95 -11.15 -5.05 -13.0 -5.55 -13.95 -5.5 -14.55 -3.2 -15.45 -0.45 -15.6 0.85 -15.85 Q5.75 -16.8 5.65 -19.75 L5.75 -19.4 M1.5 3.1 L4.05 5.45 4.15 5.55 4.65 6.6 4.55 7.65 4.3 7.95 3.75 9.55 2.6 10.55 2.55 10.75 3.65 12.45 Q4.7 13.7 4.75 14.35 L3.6 16.35 Q3.1 15.7 2.6 15.75 1.9 15.75 2.0 17.05 L2.25 17.7 2.4 18.2 1.05 20.15 -2.9 25.65 -3.85 25.5 -3.4 24.25 -1.2 18.95 Q-0.2 16.85 0.2 14.4 L0.2 12.75 0.15 12.05 0.1 11.95 -0.55 10.85 Q-0.5 9.4 -0.7 8.05 L1.3 9.55 1.45 9.4 -1.0 6.75 Q-1.45 5.45 -2.15 4.25 L-2.65 3.45 -2.7 3.45 Q-4.15 1.7 -5.8 0.65 L-5.65 0.0 -3.5 0.3 -1.7 0.85 -0.65 1.15 -0.45 1.75 0.55 2.5 1.5 3.1" fill="#5c617c" fill-rule="evenodd" stroke="none"/>
    </g>
    <g id="sprite26" transform="matrix(1.0, 0.0, 0.0, 1.0, 11.65, 5.45)">
      <use ffdec:characterId="2480" ffdec:characterName="game_fla.lowerarm1_329" height="67.95" id="lowerArm1" transform="matrix(1.0, 0.0, 0.0, 1.0, -11.65, -5.45)" width="20.75" xlink:href="#sprite27"/>
    </g>
    <g id="sprite27" transform="matrix(1.0, 0.0, 0.0, 1.0, 11.2, 30.35)">
      <use ffdec:characterId="2476" height="44.7" transform="matrix(1.0, 0.0, 0.0, 1.0, -8.05, -29.75)" width="16.8" xlink:href="#shape16"/>
      <use ffdec:characterId="2478" ffdec:characterName="game_fla.hand_330" height="24.55" id="hand" transform="matrix(1.0, 0.0, 0.0, 1.0, -8.95, 13.05)" width="16.7" xlink:href="#sprite28"/>
      <use ffdec:characterId="1081" height="100.0" id="shape" transform="matrix(0.15, 0.0, 0.0, 0.6, -7.4997, -29.9995)" width="100.0" xlink:href="#sprite2"/>
    </g>
    <g id="shape16" transform="matrix(1.0, 0.0, 0.0, 1.0, 8.05, 29.75)">
      <path d="M7.6 -22.6 Q7.15 -17.05 7.5 -11.65 L7.8 -6.0 Q8.05 -0.4 7.35 5.5 L7.0 7.5 3.75 8.15 3.15 8.25 2.35 8.35 2.2 7.35 3.3 6.1 3.0 3.95 2.85 -1.75 Q2.5 -7.4 3.55 -13.05 5.25 -16.1 5.25 -19.75 L5.15 -22.05 3.05 -20.75 2.95 -21.65 5.3 -23.9 2.85 -28.3 3.8 -29.35 5.0 -29.4 Q7.6 -26.5 7.6 -22.6" fill="#9299a9" fill-rule="evenodd" stroke="none"/>
      <path d="M7.9 8.5 L-0.3 9.2 0.65 8.05 0.75 7.4 0.75 7.35 0.05 6.6 0.8 5.25 0.85 3.2 -0.15 -1.4 0.35 -14.2 0.6 -15.25 1.3 -17.9 2.0 -19.65 1.6 -20.2 -0.6 -20.05 1.55 -21.7 1.8 -23.2 -1.3 -23.45 3.95 -25.05 3.8 -25.45 -3.5 -29.1 3.8 -29.35 2.85 -28.3 5.3 -23.9 2.95 -21.65 3.05 -20.75 5.15 -22.05 5.25 -19.75 Q5.25 -16.1 3.55 -13.05 2.5 -7.4 2.85 -1.75 L3.0 3.95 3.3 6.1 2.2 7.35 2.35 8.35 3.15 8.25 3.75 8.15 7.0 7.5 7.35 5.5 Q8.05 -0.4 7.8 -6.0 L7.5 -11.65 Q7.15 -17.05 7.6 -22.6 L8.5 -11.3 8.75 -5.5 Q8.7 0.15 8.1 5.75 L7.9 8.5 M-3.7 -29.1 L-3.95 -28.15 -2.05 -25.55 -2.3 -25.05 -2.2 -24.55 -3.7 -22.9 -1.4 -21.85 -4.9 -19.0 -4.85 -18.35 -2.15 -19.1 -1.55 -18.9 -2.55 -17.5 -1.15 0.4 -1.8 1.0 -1.9 2.2 -1.6 5.45 -2.5 7.05 -1.75 7.75 -2.1 8.1 -2.25 8.8 -7.1 9.65 Q-7.7 5.85 -7.8 1.9 L-7.85 0.1 -8.05 -7.1 -8.0 -16.8 Q-7.95 -22.2 -7.2 -24.8 L-6.05 -28.45 Q-6.05 -28.95 -3.7 -29.1 M7.8 9.15 L7.9 9.0 7.9 9.1 7.8 9.15" fill="#727e94" fill-rule="evenodd" stroke="none"/>
      <path d="M-3.5 -29.1 L3.8 -25.45 3.95 -25.05 -1.3 -23.45 1.8 -23.2 1.55 -21.7 -0.6 -20.05 1.6 -20.2 2.0 -19.65 1.3 -17.9 0.6 -15.25 0.35 -14.2 -0.15 -1.4 0.85 3.2 0.8 5.25 0.05 6.6 0.75 7.35 0.75 7.4 0.65 8.05 -0.3 9.2 7.9 8.5 7.9 9.0 7.8 9.15 7.25 9.15 -6.55 10.25 -6.85 10.25 -7.1 9.65 -2.25 8.8 -2.1 8.1 -1.75 7.75 -2.5 7.05 -1.6 5.45 -1.9 2.2 -1.8 1.0 -1.15 0.4 -2.55 -17.5 -1.55 -18.9 -2.15 -19.1 -4.85 -18.35 -4.9 -19.0 -1.4 -21.85 -3.7 -22.9 -2.2 -24.55 -2.3 -25.05 -2.05 -25.55 -3.95 -28.15 -3.7 -29.1 -3.7 -29.2 -3.5 -29.1" fill="#5c617c" fill-rule="evenodd" stroke="none"/>
      <path d="M-6.55 10.25 L7.25 9.15 7.5 11.35 5.35 11.45 4.8 11.45 -1.9 11.75 -3.4 11.8 -4.2 11.85 -6.4 12.0 -6.55 10.25" fill="#ffffff" fill-rule="evenodd" stroke="none"/>
      <path d="M-1.9 11.75 Q0.85 12.4 3.55 11.8 L4.7 11.5 4.8 11.45 5.35 11.45 5.45 12.65 5.25 13.25 Q1.95 13.45 -1.5 14.35 L-3.65 14.95 -3.85 13.4 -3.4 11.8 -1.9 11.75" fill="#ebbb98" fill-rule="evenodd" stroke="none"/>
      <path d="M4.8 11.45 L4.7 11.5 3.55 11.8 Q0.85 12.4 -1.9 11.75 L4.8 11.45 M-3.4 11.8 L-3.85 13.4 -3.95 13.35 -4.05 13.5 -4.15 13.15 -4.2 11.85 -3.4 11.8 M5.25 13.25 L5.45 12.65 5.55 13.25 5.55 13.35 5.25 13.25" fill="#ffcc99" fill-rule="evenodd" stroke="none"/>
    </g>
    <g id="sprite28" transform="matrix(1.0, 0.0, 0.0, 1.0, 9.35, 8.9)">
      <use ffdec:characterId="1547" height="17.85" transform="matrix(1.0, 0.0, 0.0, 1.0, -7.3, -8.9)" width="14.65" xlink:href="#shape17"/>
    </g>
    <g id="shape17" transform="matrix(1.0, 0.0, 0.0, 1.0, 7.3, 8.9)">
      <path d="M4.95 -8.9 L5.15 -8.9 5.15 -8.7 7.35 0.55 6.75 2.2 5.6 3.65 5.8 6.3 5.15 5.3 Q3.45 6.0 1.8 7.05 L0.45 6.1 Q-0.4 7.25 -1.15 6.95 L-2.0 6.65 -2.55 5.85 -6.25 4.75 -5.9 4.05 Q-4.8 1.7 -4.3 -0.85 -3.95 -2.9 -3.25 -4.7 -2.75 -5.95 -2.55 -7.15 L-2.45 -7.75 1.6 -8.25 1.35 -7.75 1.75 -7.35 2.2 -7.15 4.15 -4.0 4.95 -7.2 Q5.1 -7.95 4.85 -8.65 L4.95 -8.9 M-4.75 -7.5 L-4.45 -8.45 -4.55 -8.8 -4.55 -8.9 -4.05 -8.9 -4.75 -7.5" fill="#ffcc99" fill-rule="evenodd" stroke="none"/>
      <path d="M5.8 6.3 L5.75 6.7 5.7 6.85 Q4.9 7.55 3.7 8.05 L2.65 7.7 2.5 7.65 2.0 8.1 0.85 8.65 -0.3 8.95 -1.2 7.95 -1.25 8.0 -1.85 8.5 -3.05 8.5 Q-4.9 8.0 -5.5 6.3 L-6.55 5.9 -7.2 4.85 -7.3 4.6 Q-7.2 -0.15 -5.5 -5.05 L-4.75 -7.5 -4.05 -8.9 4.95 -8.9 4.85 -8.65 Q5.1 -7.95 4.95 -7.2 L4.15 -4.0 2.2 -7.15 1.75 -7.35 1.35 -7.75 1.6 -8.25 -2.45 -7.75 -2.55 -7.15 Q-2.75 -5.95 -3.25 -4.7 -3.95 -2.9 -4.3 -0.85 -4.8 1.7 -5.9 4.05 L-6.25 4.75 -2.55 5.85 -2.0 6.65 -1.15 6.95 Q-0.4 7.25 0.45 6.1 L1.8 7.05 Q3.45 6.0 5.15 5.3 L5.8 6.3" fill="#ebbb98" fill-rule="evenodd" stroke="none"/>
    </g>
  </defs>
</svg>
