<?xml version="1.0" encoding="UTF-8" standalone="no"?>
<svg xmlns:ffdec="https://www.free-decompiler.com/flash" xmlns:xlink="http://www.w3.org/1999/xlink" ffdec:objectType="frame" height="81.15px" width="33.15px" xmlns="http://www.w3.org/2000/svg">
  <g transform="matrix(1.0, 0.0, 0.0, 1.0, 14.3, 7.6)">
    <use ffdec:characterId="1439" ffdec:characterName="game_fla.lowerleg1_765" height="81.15" id="lowerLeg1" transform="matrix(1.0, 0.0, 0.0, 1.0, -14.3, -7.6)" width="33.15" xlink:href="#sprite0"/>
  </g>
  <defs>
    <g id="sprite0" transform="matrix(1.0, 0.0, 0.0, 1.0, 12.25, 39.25)">
      <use ffdec:characterId="1435" height="80.2" transform="matrix(1.0, 0.0, 0.0, 1.0, -10.55, -38.3)" width="31.45" xlink:href="#shape0"/>
      <use ffdec:characterId="1081" height="100.0" id="shape" transform="matrix(0.18, 0.0, 0.0, 0.7801, -8.9996, -39.0045)" width="100.0" xlink:href="#sprite1"/>
    </g>
    <g id="shape0" transform="matrix(1.0, 0.0, 0.0, 1.0, 10.55, 38.3)">
      <path d="M-0.15 21.85 L0.85 21.9 0.9 22.0 1.3 22.8 1.2 23.6 1.2 25.05 Q1.3 25.8 1.7 26.15 L1.65 26.9 1.7 26.95 Q2.9 29.25 5.65 31.15 L5.6 31.5 5.55 31.6 5.6 31.95 5.0 32.15 3.5 32.5 2.2 32.55 -3.25 32.0 -3.45 30.25 -3.35 30.0 -3.6 28.1 -3.6 27.95 Q-3.55 27.1 -3.15 26.45 -2.75 25.75 -2.75 25.15 L-3.15 22.7 -2.9 22.0 -2.8 21.7 -0.15 21.85 M0.5 30.5 L1.0 28.75 0.0 27.75 0.1 27.3 0.1 27.05 0.0 27.3 -0.1 27.65 -0.35 27.45 -0.9 27.0 -1.1 26.9 Q-1.15 25.8 -1.5 24.8 L-2.4 25.6 -2.45 26.7 -2.45 26.9 -2.8 28.05 -2.85 28.8 -2.5 30.25 Q-1.9 31.6 -0.6 31.6 -0.05 31.6 0.5 30.5 M-5.5 31.75 L-6.1 31.6 -6.9 31.4 -5.6 29.15 Q-5.4 29.75 -5.45 30.5 L-5.6 31.7 -5.5 31.75" fill="#ebbb98" fill-rule="evenodd" stroke="none"/>
      <path d="M4.95 22.15 L4.9 22.85 Q4.75 25.05 5.4 26.9 6.05 28.6 7.5 30.0 6.5 29.95 5.85 30.95 L5.7 31.15 5.65 31.15 Q2.9 29.25 1.7 26.95 L1.65 26.9 1.7 26.15 Q1.3 25.8 1.2 25.05 L1.2 23.6 1.3 22.8 0.9 22.0 0.85 21.9 2.05 21.95 4.95 22.15 M-8.15 31.05 L-8.15 31.0 -7.4 28.2 -7.2 27.25 -6.6 24.3 -6.25 22.0 -6.2 21.5 -5.7 21.55 -3.1 21.7 -2.8 21.7 -2.9 22.0 -3.15 22.7 -2.75 25.15 Q-2.75 25.75 -3.15 26.45 -3.55 27.1 -3.6 27.95 L-3.6 28.1 -3.35 30.0 -3.45 30.25 -3.25 32.0 -5.5 31.75 -5.6 31.7 -5.45 30.5 Q-5.4 29.75 -5.6 29.15 L-6.9 31.4 -7.8 31.1 -8.05 31.05 -8.15 31.05" fill="#ffcc99" fill-rule="evenodd" stroke="none"/>
      <path d="M0.5 30.5 Q-0.05 31.6 -0.6 31.6 -1.9 31.6 -2.5 30.25 L-2.85 28.8 -2.8 28.05 -2.45 26.9 -2.45 26.7 -2.4 25.6 -1.5 24.8 Q-1.15 25.8 -1.1 26.9 L-0.9 27.0 -0.35 27.45 -0.1 27.65 0.0 27.3 0.1 27.05 0.1 27.3 0.0 27.75 1.0 28.75 0.5 30.5" fill="#e2b181" fill-rule="evenodd" stroke="none"/>
      <path d="M7.5 30.0 L7.9 30.1 8.65 30.6 7.5 30.6 8.95 31.4 9.35 31.7 Q10.0 31.9 10.5 32.25 L11.15 32.25 14.75 34.4 15.55 34.75 15.75 34.8 15.15 35.25 14.6 35.85 13.85 36.75 9.8 33.5 8.25 32.35 8.4 33.05 8.45 33.2 8.5 33.25 8.7 34.0 Q11.7 35.6 13.75 36.9 L14.25 37.25 14.5 37.25 16.4 35.6 16.8 35.25 19.05 36.55 Q20.8 37.7 20.9 38.65 L18.2 39.5 14.9 39.6 8.4 39.0 1.35 37.8 -5.5 37.35 Q-8.2 37.0 -9.7 35.85 L-9.45 33.5 -9.0 31.4 Q-8.95 30.65 -8.2 31.0 L-8.15 31.05 -8.05 31.05 -7.8 31.1 -6.9 31.4 -6.1 31.6 -5.5 31.75 -3.25 32.0 2.2 32.55 3.5 32.5 5.75 32.5 5.9 32.6 6.0 32.65 5.9 32.1 5.95 31.5 5.6 31.5 5.65 31.15 5.7 31.15 5.85 30.95 Q6.5 29.95 7.5 30.0 M20.75 40.2 L20.75 40.65 Q20.85 41.2 19.45 41.6 L17.3 41.9 14.75 41.85 14.25 41.85 11.45 41.7 8.0 41.2 5.45 40.85 4.25 40.65 1.3 40.25 -1.9 40.0 -5.75 39.75 -8.35 39.45 Q-9.15 39.2 -9.75 38.6 L-9.75 37.2 Q-7.25 38.4 -2.85 38.4 L-0.65 38.6 5.45 39.25 14.25 40.25 Q17.65 40.4 20.75 40.2 M7.55 35.65 L7.85 35.7 8.1 34.6 8.0 33.65 7.7 32.65 7.5 31.95 7.1 30.75 6.95 31.75 6.95 31.8 6.9 32.35 6.8 33.05 6.7 33.95 Q6.7 35.3 7.55 35.65 M7.15 36.2 L7.1 36.2 Q5.8 36.15 5.75 34.7 L5.9 33.5 Q5.7 34.05 5.45 35.55 5.45 36.2 5.85 36.55 6.25 36.95 6.8 36.95 7.65 36.95 8.2 36.05 L8.55 35.3 Q8.25 36.2 7.15 36.2" fill="#e9e1d6" fill-rule="evenodd" stroke="none"/>
      <path d="M8.65 30.6 L8.85 30.6 10.2 30.6 Q11.05 30.7 11.25 31.05 L11.25 32.25 11.15 32.25 10.5 32.25 Q10.0 31.9 9.35 31.7 L8.95 31.4 7.5 30.6 8.65 30.6 M15.75 34.8 L16.8 35.25 16.4 35.6 14.5 37.25 14.25 37.25 13.75 36.9 Q11.7 35.6 8.7 34.0 L8.5 33.25 8.45 33.2 8.4 33.05 8.25 32.35 9.8 33.5 13.85 36.75 14.6 35.85 15.15 35.25 15.75 34.8 M20.9 38.65 L20.9 39.0 20.75 40.2 Q17.65 40.4 14.25 40.25 L5.45 39.25 -0.65 38.6 -2.85 38.4 Q-7.25 38.4 -9.75 37.2 L-9.75 36.45 -9.7 35.85 Q-8.2 37.0 -5.5 37.35 L1.35 37.8 8.4 39.0 14.9 39.6 18.2 39.5 20.9 38.65 M3.5 32.5 L5.0 32.15 5.6 31.95 5.55 31.6 5.6 31.5 5.95 31.5 5.9 32.1 6.0 32.65 5.9 32.6 5.75 32.5 3.5 32.5 M6.9 32.35 L7.3 33.3 Q7.7 34.2 7.7 34.85 L7.65 35.5 7.55 35.65 Q6.7 35.3 6.7 33.95 L6.8 33.05 6.9 32.35" fill="#d0c9bf" fill-rule="evenodd" stroke="none"/>
      <path d="M6.9 32.35 L6.95 31.8 6.95 31.75 7.1 30.75 7.5 31.95 7.7 32.65 8.0 33.65 8.1 34.6 7.85 35.7 7.55 35.65 7.65 35.5 7.7 34.85 Q7.7 34.2 7.3 33.3 L6.9 32.35 M7.15 36.2 Q8.25 36.2 8.55 35.3 L8.2 36.05 Q7.65 36.95 6.8 36.95 6.25 36.95 5.85 36.55 5.45 36.2 5.45 35.55 5.7 34.05 5.9 33.5 L5.75 34.7 Q5.8 36.15 7.1 36.2 L7.15 36.2" fill="#b1aba3" fill-rule="evenodd" stroke="none"/>
      <path d="M-5.2 -35.35 L-4.25 -36.55 -3.9 -36.85 -3.4 -37.25 Q-2.05 -38.25 -0.35 -38.3 5.2 -38.45 7.7 -36.1 9.45 -34.45 9.95 -33.05 L10.15 -32.0 Q10.15 -31.05 9.75 -30.2 L9.75 -30.15 9.7 -30.05 9.2 -29.4 7.2 -25.15 Q5.05 -21.2 4.5 -19.25 3.9 -17.1 3.55 -12.2 L3.0 -5.0 1.35 9.25 1.3 9.75 0.4 17.55 0.35 18.05 0.0 18.0 -0.5 18.0 -1.05 18.0 -1.05 17.9 -1.0 17.55 -1.0 16.1 -1.15 11.6 -0.75 7.0 Q-0.4 4.1 -0.45 2.5 L-0.6 -2.8 Q-0.7 -6.5 -0.1 -10.45 0.5 -14.4 1.5 -18.2 2.45 -22.0 1.5 -27.35 L1.2 -27.75 0.6 -23.15 1.0 -22.05 1.35 -21.0 1.15 -19.85 0.75 -18.6 Q0.6 -18.2 0.6 -17.1 L0.6 -15.55 Q-0.9 -6.75 -0.9 -4.55 L-1.2 1.25 -1.5 7.15 -1.9 17.55 -1.9 17.9 -1.9 18.05 -3.4 18.2 -3.45 17.85 -3.5 17.55 -5.0 11.25 -5.35 10.25 Q-6.0 8.75 -7.6 6.15 -9.5 3.1 -9.5 0.85 -9.5 -3.4 -6.35 -11.6 -3.25 -19.8 -3.25 -24.1 L-3.65 -29.25 -3.9 -29.8 -4.5 -30.8 Q-5.25 -32.0 -5.25 -34.7 L-5.25 -35.2 -5.2 -35.35 M0.15 19.5 L0.1 20.05 -0.15 21.85 -2.8 21.7 -3.1 21.7 -3.25 19.2 -2.0 19.3 -1.85 19.35 -1.2 19.4 -0.15 19.45 0.15 19.5" fill="#82add7" fill-rule="evenodd" stroke="none"/>
      <path d="M-5.2 -35.35 L-5.25 -35.2 -5.25 -35.3 -5.2 -35.35 M9.7 -30.05 L9.75 -30.15 9.0 -18.55 7.9 -5.0 7.3 8.55 7.15 11.7 7.1 12.75 6.35 19.9 5.15 19.5 3.75 18.85 2.75 18.45 2.9 17.55 3.4 13.0 3.65 9.9 3.75 8.95 4.75 -6.0 Q5.2 -9.75 7.75 -19.05 9.4 -24.95 9.7 -30.05 M6.3 20.0 Q5.95 22.15 5.5 22.15 L4.95 22.15 2.05 21.95 2.55 19.7 5.1 19.9 6.3 20.0 M-6.2 21.5 L-7.7 21.4 -7.9 18.75 -7.8 18.75 -6.15 18.95 -5.6 19.0 -5.6 19.95 -5.7 21.55 -6.2 21.5 M-7.95 18.25 L-8.3 14.1 -8.3 13.75 -8.55 10.75 -8.95 7.35 -9.85 0.6 -10.0 -0.55 Q-10.65 -6.15 -10.5 -11.4 -10.4 -16.65 -8.15 -27.4 L-7.25 -30.95 -6.0 -34.05 -5.3 -31.45 -5.3 -31.3 -5.25 -30.3 -5.0 -26.05 Q-4.8 -23.35 -7.4 -17.35 -10.0 -11.4 -10.0 -4.85 -10.0 -1.5 -9.35 2.35 L-7.0 9.5 -6.65 10.45 -6.65 10.5 -6.15 14.25 -5.75 17.55 -5.65 18.35 -6.25 18.35 -6.5 18.35 -7.95 18.25" fill="#aacdf0" fill-rule="evenodd" stroke="none"/>
      <path d="M-5.25 -35.2 L-5.25 -34.7 Q-5.25 -32.0 -4.5 -30.8 L-3.9 -29.8 -3.65 -29.25 -3.25 -24.1 Q-3.25 -19.8 -6.35 -11.6 -9.5 -3.4 -9.5 0.85 -9.5 3.1 -7.6 6.15 -6.0 8.75 -5.35 10.25 L-5.0 11.25 -3.5 17.55 -3.45 17.85 -3.4 18.2 -3.6 18.2 -5.65 18.35 -5.75 17.55 -6.15 14.25 -6.65 10.5 -6.65 10.45 -7.0 9.5 -9.35 2.35 Q-10.0 -1.5 -10.0 -4.85 -10.0 -11.4 -7.4 -17.35 -4.8 -23.35 -5.0 -26.05 L-5.25 -30.3 -5.3 -31.3 -5.3 -31.45 -6.0 -34.05 -5.25 -35.3 -5.25 -35.2 M0.35 18.05 L0.4 17.55 1.3 9.75 1.35 9.25 3.0 -5.0 3.55 -12.2 Q3.9 -17.1 4.5 -19.25 5.05 -21.2 7.2 -25.15 L9.2 -29.4 9.7 -30.05 Q9.4 -24.95 7.75 -19.05 5.2 -9.75 4.75 -6.0 L3.75 8.95 3.65 9.9 3.4 13.0 2.9 17.55 2.75 18.45 0.35 18.05 M0.15 19.5 L0.4 19.5 2.55 19.7 2.05 21.95 0.85 21.9 -0.15 21.85 0.1 20.05 0.15 19.5 M-5.7 21.55 L-5.6 19.95 -5.6 19.0 -3.25 19.2 -3.1 21.7 -5.7 21.55" fill="#90bce7" fill-rule="evenodd" stroke="none"/>
      <path d="M-3.4 18.2 L-1.9 18.05 -1.9 17.9 -1.9 17.55 -1.5 7.15 -1.2 1.25 -0.9 -4.55 Q-0.9 -6.75 0.6 -15.55 L0.6 -17.1 Q0.6 -18.2 0.75 -18.6 L1.15 -19.85 1.35 -21.0 1.0 -22.05 0.6 -23.15 1.2 -27.75 1.5 -27.35 Q2.45 -22.0 1.5 -18.2 0.5 -14.4 -0.1 -10.45 -0.7 -6.5 -0.6 -2.8 L-0.45 2.5 Q-0.4 4.1 -0.75 7.0 L-1.15 11.6 -1.0 16.1 -1.0 17.55 -1.05 17.9 -1.05 18.0 -0.5 18.0 0.0 18.0 0.35 18.05 2.75 18.45 3.75 18.85 5.15 19.5 6.35 19.9 6.3 20.0 5.1 19.9 2.55 19.7 0.4 19.5 0.15 19.5 -0.15 19.45 -1.2 19.4 -1.85 19.35 -2.0 19.3 -3.25 19.2 -5.6 19.0 -6.15 18.95 -7.8 18.75 -7.9 18.75 -7.95 18.25 -6.5 18.35 -6.25 18.35 -5.65 18.35 -3.6 18.2 -3.4 18.2" fill="#7091b1" fill-rule="evenodd" stroke="none"/>
    </g>
    <g id="sprite1" transform="matrix(1.0, 0.0, 0.0, 1.0, 50.0, 50.0)">
      <use ffdec:characterId="1080" height="100.0" transform="matrix(1.0, 0.0, 0.0, 1.0, -50.0, -50.0)" width="100.0" xlink:href="#shape1"/>
    </g>
    <g id="shape1" transform="matrix(1.0, 0.0, 0.0, 1.0, 50.0, 50.0)">
      <path d="M50.0 50.0 L-50.0 50.0 -50.0 -50.0 50.0 -50.0 50.0 50.0 Z" fill="none" stroke="#9900ff" stroke-linecap="round" stroke-linejoin="round" stroke-width="0.05"/>
    </g>
  </defs>
</svg>
