<?xml version="1.0" encoding="UTF-8" standalone="no"?>
<svg xmlns:ffdec="https://www.free-decompiler.com/flash" xmlns:xlink="http://www.w3.org/1999/xlink" ffdec:objectType="frame" height="41.8px" width="15.15px" xmlns="http://www.w3.org/2000/svg">
  <g transform="matrix(1.0, 0.0, 0.0, 1.0, 7.9, 23.6)">
    <use ffdec:characterId="2286" height="36.25" transform="matrix(1.0, 0.0, 0.0, 1.0, -6.4, -18.1)" width="12.8" xlink:href="#shape0"/>
    <use ffdec:characterId="1081" height="100.0" id="shape" transform="matrix(0.1, 0.0, 0.0, 0.36, -4.9995, -17.9993)" width="100.0" xlink:href="#sprite0"/>
  </g>
  <defs>
    <g id="shape0" transform="matrix(1.0, 0.0, 0.0, 1.0, 6.4, 18.1)">
      <path d="M3.55 5.1 L3.45 6.1 Q3.2 8.4 3.25 13.6 3.25 14.85 2.8 15.9 2.5 16.8 1.55 17.45 -0.65 18.8 -2.95 17.5 -4.05 16.0 -4.1 13.85 L-4.0 11.0 Q-3.85 9.75 -3.85 8.55 L-3.8 4.05 -3.8 5.75 -2.85 5.4 Q-1.05 4.7 0.6 4.65 2.15 4.6 3.55 5.1" fill="#ffcc99" fill-rule="evenodd" stroke="none"/>
      <path d="M2.35 3.35 L2.6 1.6 Q2.75 0.3 3.2 -0.7 L3.2 -1.3 2.75 -1.3 0.7 -0.35 Q-0.5 0.35 -1.35 0.7 L-0.25 -1.95 Q0.4 -3.45 1.35 -4.6 L2.1 -5.45 3.2 -6.75 Q4.05 -7.95 4.05 -9.3 4.05 -11.45 3.3 -13.15 L2.75 -14.1 Q2.05 -15.05 1.05 -15.05 -1.15 -15.05 -2.2 -13.0 -3.05 -10.45 -3.6 -9.55 L-3.85 -12.65 Q-3.85 -14.1 -2.8 -15.9 L-2.8 -15.95 -2.75 -16.1 -1.45 -17.45 -0.95 -17.9 0.5 -18.1 Q3.05 -18.1 4.5 -15.4 L5.1 -14.1 Q5.7 -12.4 5.7 -10.5 L6.0 -5.45 6.1 -2.8 6.4 2.65 Q6.4 3.25 6.1 3.25 L5.25 3.1 3.65 3.25 2.35 3.35 M-1.35 0.7 L-1.4 0.8 -1.5 0.8 -1.35 0.7" fill="#ffcc66" fill-rule="evenodd" stroke="none"/>
      <path d="M-0.95 -17.9 L-1.45 -17.45 -2.75 -16.1 -2.8 -15.95 -2.8 -15.9 Q-3.85 -14.1 -3.85 -12.65 L-3.6 -9.55 Q-3.05 -10.45 -2.2 -13.0 -1.15 -15.05 1.05 -15.05 2.05 -15.05 2.75 -14.1 L3.3 -13.15 Q4.05 -11.45 4.05 -9.3 4.05 -7.95 3.2 -6.75 L2.1 -5.45 1.35 -4.6 Q0.4 -3.45 -0.25 -1.95 L-1.35 0.7 Q-0.5 0.35 0.7 -0.35 L2.75 -1.3 3.2 -1.3 3.2 -0.7 Q2.75 0.3 2.6 1.6 L2.35 3.35 2.25 3.35 0.85 3.55 1.0 2.85 1.65 0.8 0.9 0.8 Q-0.15 1.6 -2.1 2.1 L-2.25 2.25 -1.85 2.4 -1.85 2.8 -2.2 3.9 -3.8 4.05 -5.35 4.1 Q-6.15 4.1 -6.25 1.4 L-6.15 -1.35 -6.4 -6.5 -6.05 -11.45 Q-6.05 -13.05 -4.6 -15.2 -3.1 -17.35 -0.95 -17.9 M2.75 -8.75 Q2.75 -10.25 1.8 -10.25 L0.45 -9.75 Q-0.2 -9.25 -0.75 -8.2 -1.1 -7.45 -2.0 -6.45 L-2.55 -5.85 -0.75 -6.05 -1.25 -3.6 -1.3 -3.6 -1.9 -0.3 Q-0.9 -3.45 0.6 -5.45 L1.55 -6.45 Q2.75 -7.1 2.75 -8.75 M-1.35 0.7 L-1.5 0.8 -1.4 0.8 -1.35 0.7" fill="#feb445" fill-rule="evenodd" stroke="none"/>
      <path d="M-2.2 3.9 L-1.85 2.8 -1.85 2.4 -2.25 2.25 -2.1 2.1 Q-0.15 1.6 0.9 0.8 L1.65 0.8 1.0 2.85 0.85 3.55 -0.2 3.65 -2.2 3.9 M2.75 -8.75 Q2.75 -7.1 1.55 -6.45 L0.6 -5.45 Q-0.9 -3.45 -1.9 -0.3 L-1.3 -3.6 -1.25 -3.6 -0.75 -6.05 -2.55 -5.85 -2.0 -6.45 Q-1.1 -7.45 -0.75 -8.2 -0.2 -9.25 0.45 -9.75 L1.8 -10.25 Q2.75 -10.25 2.75 -8.75" fill="#fd9802" fill-rule="evenodd" stroke="none"/>
      <path d="M2.35 3.35 L3.65 3.25 3.65 3.75 3.6 4.25 3.55 5.1 Q2.15 4.6 0.6 4.65 -1.05 4.7 -2.85 5.4 L-3.8 5.75 -3.8 4.05 -2.2 3.9 -0.2 3.65 0.85 3.55 2.25 3.35 2.35 3.35" fill="#ebbb98" fill-rule="evenodd" stroke="none"/>
    </g>
    <g id="sprite0" transform="matrix(1.0, 0.0, 0.0, 1.0, 50.0, 50.0)">
      <use ffdec:characterId="1080" height="100.0" transform="matrix(1.0, 0.0, 0.0, 1.0, -50.0, -50.0)" width="100.0" xlink:href="#shape1"/>
    </g>
    <g id="shape1" transform="matrix(1.0, 0.0, 0.0, 1.0, 50.0, 50.0)">
      <path d="M50.0 50.0 L-50.0 50.0 -50.0 -50.0 50.0 -50.0 50.0 50.0 Z" fill="none" stroke="#9900ff" stroke-linecap="round" stroke-linejoin="round" stroke-width="0.05"/>
    </g>
  </defs>
</svg>
