<?xml version="1.0" encoding="UTF-8" standalone="no"?>
<svg xmlns:ffdec="https://www.free-decompiler.com/flash" xmlns:xlink="http://www.w3.org/1999/xlink" ffdec:objectType="frame" height="41.8px" width="15.15px" xmlns="http://www.w3.org/2000/svg">
  <g transform="matrix(1.0, 0.0, 0.0, 1.0, 7.9, 23.6)">
    <use ffdec:characterId="2288" height="36.3" transform="matrix(1.0, 0.0, 0.0, 1.0, -6.4, -18.1)" width="12.8" xlink:href="#shape0"/>
  </g>
  <defs>
    <g id="shape0" transform="matrix(1.0, 0.0, 0.0, 1.0, 6.4, 18.1)">
      <path d="M1.85 4.65 L3.55 5.1 3.45 6.1 3.45 6.25 3.2 14.45 2.55 12.6 Q3.45 10.85 2.2 9.15 L1.1 8.05 0.15 8.55 -0.4 11.05 -1.3 11.75 -1.45 11.3 -1.85 10.95 -1.6 8.7 -1.6 7.45 -1.9 7.05 -3.85 7.4 -3.8 6.25 -3.8 5.75 -2.85 5.4 -0.45 4.7 -0.2 6.1 1.75 6.15 1.85 4.65 M-4.1 13.8 L-4.0 11.05 -3.3 11.15 -3.35 13.15 -3.85 13.6 -4.1 13.8" fill="#ffcc99" fill-rule="evenodd" stroke="none"/>
      <path d="M1.6 2.2 L2.25 3.15 2.25 3.35 2.2 4.0 1.85 4.65 1.75 6.15 -0.2 6.1 -0.45 4.7 -2.5 4.1 -3.7 3.1 -3.55 2.2 Q-3.4 1.2 -2.75 0.6 L-3.0 2.7 Q-2.05 3.95 -0.35 3.75 L1.35 3.75 1.5 3.6 1.6 2.2 M3.2 14.45 L2.9 15.75 1.7 15.7 2.75 15.15 2.9 13.9 1.5 13.5 1.15 13.95 1.05 12.8 1.75 12.65 1.9 10.75 -1.3 11.75 -0.4 11.05 0.15 8.55 1.1 8.05 2.2 9.15 Q3.45 10.85 2.55 12.6 L3.2 14.45 M1.1 15.65 L1.05 15.65 1.05 15.6 1.1 15.65 M-2.0 15.5 Q-2.85 15.5 -3.45 15.05 -4.1 14.5 -4.1 13.8 L-3.85 13.6 -2.05 14.25 -2.0 15.5 M-4.0 11.05 L-4.7 9.9 -4.7 8.9 -4.0 9.85 -2.9 10.05 -2.15 9.6 -1.6 8.7 -1.85 10.95 -3.3 11.15 -4.0 11.05" fill="#990000" fill-rule="evenodd" stroke="none"/>
      <path d="M-0.85 0.1 L-0.3 0.25 0.9 0.85 1.4 1.5 1.6 2.2 1.5 3.6 1.35 3.75 -0.35 3.75 Q-2.05 3.95 -3.0 2.7 L-2.75 0.6 -0.85 0.1 M1.7 15.7 L1.1 15.65 1.05 15.6 1.15 13.95 1.5 13.5 2.9 13.9 2.75 15.15 1.7 15.7 M-1.95 15.65 L-2.0 15.5 -2.05 14.25 -3.85 13.6 -3.35 13.15 -3.3 11.15 -1.85 10.95 -1.45 11.3 -1.3 11.75 1.9 10.75 1.75 12.65 1.05 12.8 Q0.65 12.05 0.1 12.8 L-0.4 13.25 -0.95 13.75 -1.2 16.4 -1.95 15.65 M-4.7 8.9 L-4.45 7.9 Q-4.2 7.4 -3.85 7.4 L-1.9 7.05 -1.6 7.45 -1.6 8.7 -2.15 9.6 -2.9 10.05 -4.0 9.85 -4.7 8.9" fill="#ff0000" fill-rule="evenodd" stroke="none"/>
      <path d="M1.05 15.65 Q1.25 16.9 0.4 17.55 L-1.0 18.2 -1.75 17.8 -1.95 15.65 -1.2 16.4 -0.95 13.75 -0.4 13.25 0.1 12.8 Q0.65 12.05 1.05 12.8 L1.15 13.95 1.05 15.6 1.05 15.65" fill="#ffffff" fill-rule="evenodd" stroke="none"/>
      <path d="M-1.0 -0.05 L-0.25 -1.95 Q0.4 -3.45 1.35 -4.6 L2.1 -5.45 3.2 -6.75 Q4.05 -7.95 4.05 -9.3 4.05 -11.45 3.3 -13.15 L2.75 -14.1 Q2.05 -15.05 1.05 -15.05 -1.15 -15.05 -2.2 -13.0 -3.05 -10.45 -3.6 -9.55 L-3.85 -12.65 Q-3.85 -14.1 -2.8 -15.9 L-2.8 -15.95 -2.75 -16.1 -1.45 -17.45 -0.95 -17.9 0.5 -18.1 Q3.05 -18.1 4.5 -15.4 L5.1 -14.1 Q5.7 -12.4 5.7 -10.5 L6.0 -5.45 6.1 -2.8 6.4 2.65 Q6.4 3.25 6.1 3.25 L5.25 3.1 3.65 3.25 2.35 3.35 2.35 3.15 3.5 3.05 3.65 3.0 4.25 2.55 Q4.4 2.2 4.0 1.95 L3.7 1.85 2.6 1.65 2.6 1.6 Q2.75 0.3 3.2 -0.7 L3.2 -1.3 2.75 -1.3 0.7 -0.35 -0.3 0.25 -0.85 0.1 -1.0 -0.05" fill="#ffcc66" fill-rule="evenodd" stroke="none"/>
      <path d="M-0.95 -17.9 L-1.45 -17.45 -2.75 -16.1 -2.8 -15.95 -2.8 -15.9 Q-3.85 -14.1 -3.85 -12.65 L-3.6 -9.55 Q-3.05 -10.45 -2.2 -13.0 -1.15 -15.05 1.05 -15.05 2.05 -15.05 2.75 -14.1 L3.3 -13.15 Q4.05 -11.45 4.05 -9.3 4.05 -7.95 3.2 -6.75 L2.1 -5.45 1.35 -4.6 Q0.4 -3.45 -0.25 -1.95 L-1.0 -0.05 -1.75 -0.75 Q-0.8 -3.65 0.6 -5.45 L1.55 -6.45 Q2.75 -7.1 2.75 -8.75 2.75 -10.25 1.8 -10.25 L0.45 -9.75 Q-0.2 -9.25 -0.75 -8.2 -1.1 -7.45 -2.0 -6.45 L-2.55 -5.85 -0.75 -6.05 -1.25 -3.6 -1.3 -3.6 Q-1.55 -3.3 -1.8 -0.85 L-2.85 -1.05 -3.9 0.55 -4.9 3.1 -5.0 4.1 -5.35 4.1 Q-6.15 4.1 -6.25 1.4 L-6.15 -1.35 -6.4 -6.5 -6.05 -11.45 Q-6.05 -13.05 -4.6 -15.2 -3.1 -17.35 -0.95 -17.9 M-0.3 0.25 L0.7 -0.35 2.75 -1.3 3.2 -1.3 3.2 -0.7 Q2.75 0.3 2.6 1.6 L2.6 1.65 1.45 1.5 1.65 0.8 0.9 0.8 0.9 0.85 -0.3 0.25 M2.35 3.15 L2.35 3.35 2.25 3.35 2.25 3.15 2.35 3.15" fill="#feb445" fill-rule="evenodd" stroke="none"/>
      <path d="M-1.8 -0.85 Q-1.55 -3.3 -1.3 -3.6 L-1.25 -3.6 -0.75 -6.05 -2.55 -5.85 -2.0 -6.45 Q-1.1 -7.45 -0.75 -8.2 -0.2 -9.25 0.45 -9.75 L1.8 -10.25 Q2.75 -10.25 2.75 -8.75 2.75 -7.1 1.55 -6.45 L0.6 -5.45 Q-0.8 -3.65 -1.75 -0.75 L-1.8 -0.85 M1.45 1.5 L1.4 1.5 0.9 0.85 0.9 0.8 1.65 0.8 1.45 1.5" fill="#fd9802" fill-rule="evenodd" stroke="none"/>
      <path d="M-1.0 -0.05 L-0.85 0.1 -2.75 0.6 Q-3.4 1.2 -3.55 2.2 L-3.7 3.1 -2.5 4.1 -3.8 4.6 -5.0 4.1 -4.9 3.1 -3.9 0.55 -2.85 -1.05 -1.8 -0.85 -1.75 -0.75 -1.0 -0.05 M2.6 1.65 L3.7 1.85 4.0 1.95 Q4.4 2.2 4.25 2.55 L3.65 3.0 3.5 3.05 2.35 3.15 2.25 3.15 1.6 2.2 1.4 1.5 1.45 1.5 2.6 1.65" fill="#ca5821" fill-rule="evenodd" stroke="none"/>
      <path d="M2.35 3.35 L3.65 3.25 3.65 3.75 3.6 4.25 3.55 5.1 1.85 4.65 2.2 4.0 2.25 3.35 2.35 3.35 M-2.5 4.1 L-0.45 4.7 -2.85 5.4 -3.8 5.75 -3.8 4.6 -2.5 4.1" fill="#ebbb98" fill-rule="evenodd" stroke="none"/>
    </g>
  </defs>
</svg>
