<?xml version="1.0" encoding="UTF-8" standalone="no"?>
<svg xmlns:ffdec="https://www.free-decompiler.com/flash" xmlns:xlink="http://www.w3.org/1999/xlink" ffdec:objectType="frame" height="78.2px" width="42.95px" xmlns="http://www.w3.org/2000/svg">
  <g transform="matrix(1.0, 0.0, 0.0, 1.0, 9.95, 7.5)">
    <use ffdec:characterId="1803" ffdec:characterName="game_fla.lowerleg1_602" height="78.2" id="lowerLeg1" transform="matrix(1.0, 0.0, 0.0, 1.0, -9.95, -7.5)" width="42.95" xlink:href="#sprite0"/>
  </g>
  <defs>
    <g id="sprite0" transform="matrix(1.0, 0.0, 0.0, 1.0, 13.75, 38.15)">
      <use ffdec:characterId="1798" height="68.7" transform="matrix(1.0, 0.0, 0.0, 1.0, -13.75, -38.15)" width="23.2" xlink:href="#shape0"/>
      <use ffdec:characterId="1799" height="27.85" transform="matrix(1.0, 0.0, 0.0, 1.0, -12.05, 12.2)" width="41.25" xlink:href="#shape1"/>
      <use ffdec:characterId="1081" height="100.0" id="shape" transform="matrix(0.2, 0.0, 0.0, 0.7601, -9.9998, -38.0028)" width="100.0" xlink:href="#sprite1"/>
    </g>
    <g id="shape0" transform="matrix(1.0, 0.0, 0.0, 1.0, 13.75, 38.15)">
      <path d="M3.35 -35.7 L4.7 -37.65 6.4 -37.7 Q7.95 -36.55 8.85 -34.1 L9.2 -33.0 9.45 -28.95 8.75 -30.85 8.15 -30.8 7.25 -31.4 3.85 -28.9 3.7 -28.85 2.85 -30.3 2.7 -33.1 3.35 -35.7 M8.75 -17.9 L8.85 -16.8 8.4 -13.1 8.2 -7.0 8.0 2.6 Q7.5 3.85 7.5 6.7 L7.6 7.75 7.45 8.3 7.35 10.55 7.45 12.05 7.2 14.55 7.25 17.1 7.05 18.8 Q7.35 21.0 7.85 22.0 L7.85 22.2 8.8 23.3 9.05 23.55 9.05 23.6 9.05 25.05 8.75 26.45 8.0 27.0 7.65 27.6 6.65 27.75 5.75 26.95 Q4.4 29.8 1.5 30.45 -1.3 30.9 -3.9 29.6 -5.2 30.75 -7.05 29.95 -9.15 29.05 -9.9 27.05 L-9.8 26.45 -9.3 23.6 -9.25 23.3 Q-8.3 21.25 -7.85 15.35 -7.85 14.0 -8.0 13.4 L-8.35 11.65 -8.35 11.45 -8.4 11.2 -9.15 6.0 -10.75 0.45 -10.95 -0.55 Q-11.55 -0.65 -12.2 -2.7 L-13.0 -6.25 -13.5 -9.35 -13.75 -11.9 -13.7 -12.9 -13.75 -13.4 -13.6 -14.35 -13.45 -16.25 -13.15 -20.65 Q-13.0 -23.85 -11.75 -26.1 -11.6 -28.5 -10.55 -30.1 -8.25 -33.65 -5.0 -33.45 L-3.4 -33.15 -1.2 -33.0 Q-0.55 -32.75 -1.25 -32.25 L-1.4 -32.15 -1.9 -31.85 -2.05 -31.75 -2.2 -31.65 -2.2 -31.6 -3.15 -30.1 -0.1 -27.4 1.0 -24.0 2.8 -18.85 3.45 -17.1 3.6 -15.8 3.65 -6.55 3.4 -3.9 3.8 -2.7 4.2 6.15 4.45 7.05 4.6 6.1 5.1 1.45 5.5 -2.45 5.85 -6.85 5.85 -6.9 Q7.5 -10.5 8.2 -14.5 L8.55 -16.7 8.75 -17.9 M-2.05 -8.25 L-1.6 -9.15 -1.8 -9.25 -3.1 -15.2 -6.2 -10.85 -7.95 -8.45 -9.95 -8.95 -8.7 -4.8 -7.6 -0.55 -6.75 3.15 -6.55 4.3 Q-6.1 6.45 -4.95 8.35 L-4.7 8.8 -4.65 8.95 -4.6 9.0 Q-3.5 6.25 -3.2 2.65 L-3.2 0.55 -3.2 -1.2 -2.85 -5.6 -2.8 -6.3 -2.7 -6.3 -2.05 -8.25" fill="#ffcc99" fill-rule="evenodd" stroke="none"/>
      <path d="M9.45 -23.9 L9.4 -23.0 8.75 -17.9 8.55 -16.7 8.2 -14.5 Q7.5 -10.5 5.85 -6.9 L5.85 -6.85 5.5 -2.45 5.1 1.45 4.6 6.1 4.45 7.05 4.2 6.15 3.8 -2.7 3.4 -3.9 3.65 -6.55 3.6 -15.8 3.45 -17.1 2.8 -18.85 1.0 -24.0 -0.1 -27.4 -3.15 -30.1 -2.2 -31.6 -2.2 -31.65 -2.05 -31.75 -1.9 -31.85 -1.4 -32.15 -1.25 -32.25 Q-0.55 -32.75 -1.2 -33.0 L-0.1 -34.3 2.25 -36.6 3.3 -36.15 3.35 -35.7 2.7 -33.1 2.85 -30.3 3.7 -28.85 3.85 -28.9 Q3.9 -26.25 5.35 -23.95 L6.9 -22.0 7.55 -21.15 9.45 -23.9 M-2.05 -8.25 L-2.7 -6.3 -2.8 -6.3 -2.85 -5.6 -3.2 -1.2 -3.2 0.55 -3.2 2.65 Q-3.5 6.25 -4.6 9.0 L-4.65 8.95 -4.7 8.8 -4.95 8.35 Q-6.1 6.45 -6.55 4.3 L-6.75 3.15 -7.6 -0.55 -8.7 -4.8 -9.95 -8.95 -7.95 -8.45 -6.2 -10.85 -3.1 -15.2 -1.8 -9.25 -1.6 -9.15 -2.05 -8.25" fill="#f4c398" fill-rule="evenodd" stroke="none"/>
      <path d="M9.45 -28.95 L9.45 -23.9 7.55 -21.15 6.9 -22.0 5.35 -23.95 Q3.9 -26.25 3.85 -28.9 L7.25 -31.4 8.15 -30.8 8.75 -30.85 9.45 -28.95" fill="#ebbb98" fill-rule="evenodd" stroke="none"/>
    </g>
    <g id="shape1" transform="matrix(1.0, 0.0, 0.0, 1.0, 12.05, -12.2)">
      <path d="M4.4 12.2 L7.8 12.2 7.8 12.4 8.15 17.8 8.2 18.55 7.9 18.55 6.35 18.55 5.0 18.65 Q4.35 16.45 4.35 13.95 L4.4 12.2 M-8.85 19.2 L-8.85 18.95 -8.55 16.15 -8.8 13.0 -8.45 13.0 -5.8 12.85 Q-4.95 16.55 -4.95 19.0 L-4.95 19.5 -5.55 19.5 -6.25 19.4 -7.65 19.4 -8.65 19.15 -8.85 19.2" fill="#f9f9f9" fill-rule="evenodd" stroke="none"/>
      <path d="M-5.8 12.85 L-3.2 12.65 3.25 12.2 4.4 12.2 4.35 13.95 Q4.35 16.45 5.0 18.65 L4.6 18.75 4.25 19.15 3.8 20.05 3.4 21.2 3.4 21.75 3.3 21.9 3.3 21.7 3.3 20.9 3.2 19.15 3.2 19.1 3.15 18.95 2.95 18.8 Q2.7 18.65 2.4 18.8 L-0.25 18.8 -0.3 18.85 -0.7 18.75 -4.95 19.5 -4.95 19.0 Q-4.95 16.55 -5.8 12.85" fill="#eaeaea" fill-rule="evenodd" stroke="none"/>
      <path d="M8.2 18.55 Q9.25 18.6 9.25 18.95 L9.2 19.4 8.85 21.1 8.9 22.05 8.9 22.25 9.0 22.5 10.15 23.6 10.25 23.7 10.7 24.15 12.25 25.7 13.25 26.6 14.2 27.45 15.25 28.25 16.25 29.0 16.35 29.0 16.7 29.15 17.05 29.25 18.7 29.9 20.0 30.4 23.1 30.9 Q25.05 30.9 26.5 32.45 L27.25 33.65 27.35 34.0 27.6 34.85 26.3 34.9 25.25 35.3 23.4 35.3 22.15 35.25 20.3 35.0 19.0 34.75 17.6 34.4 15.75 33.9 15.5 33.8 14.05 33.25 11.85 32.4 Q10.2 31.75 8.85 30.5 L7.8 29.4 7.7 29.3 6.5 30.5 Q6.05 30.95 5.45 31.1 L4.1 31.05 Q3.05 31.0 2.8 29.9 L2.6 28.25 2.6 26.5 2.9 24.15 2.95 23.6 Q3.0 22.65 3.3 21.9 L3.4 21.75 3.4 21.2 3.8 20.05 4.25 19.15 4.6 18.75 5.0 18.65 6.35 18.55 7.9 18.55 8.2 18.55 M25.0 33.1 L25.8 33.7 Q26.5 33.55 26.05 32.75 25.6 31.85 24.65 31.9 L19.85 31.35 Q20.3 32.3 22.05 32.3 L23.95 32.8 25.0 33.1" fill="#5c4627" fill-rule="evenodd" stroke="none"/>
      <path d="M27.6 34.85 L28.15 35.65 28.3 35.75 27.55 36.15 26.35 36.85 24.45 37.4 22.6 37.55 20.7 37.7 19.7 37.7 18.7 37.6 17.15 37.35 15.55 37.25 13.65 37.05 12.65 36.9 11.65 36.65 10.2 36.35 8.65 35.85 7.3 35.5 5.9 35.0 4.3 34.5 2.5 34.0 1.6 33.75 1.4 33.7 0.5 33.6 -1.45 33.25 -2.9 32.95 -4.5 32.95 -6.15 32.95 -7.3 33.15 -8.6 33.3 -10.1 33.35 -11.7 33.35 -11.75 33.15 -11.75 32.9 -12.05 30.9 -12.05 30.75 -12.0 30.65 -11.9 30.3 -11.95 29.3 -11.75 28.05 -11.65 27.9 -11.05 25.85 -10.3 23.85 -10.2 23.6 -9.6 21.45 -9.35 20.15 -9.05 19.5 -9.05 19.4 -8.85 19.2 -8.65 19.15 -7.65 19.4 -6.25 19.4 -5.55 19.5 -4.95 19.5 -0.7 18.75 -0.3 18.85 -0.25 18.8 2.4 18.8 Q2.7 18.65 2.95 18.8 L3.15 18.95 3.2 19.1 3.2 19.15 3.3 20.9 3.3 21.7 3.3 21.9 Q3.0 22.65 2.95 23.6 L2.9 24.15 2.6 26.5 2.6 28.25 2.8 29.9 Q3.05 31.0 4.1 31.05 L5.45 31.1 Q6.05 30.95 6.5 30.5 L7.7 29.3 7.8 29.4 8.85 30.5 Q10.2 31.75 11.85 32.4 L14.05 33.25 15.5 33.8 15.75 33.9 17.6 34.4 19.0 34.75 20.3 35.0 22.15 35.25 23.4 35.3 25.25 35.3 26.3 34.9 27.6 34.85 M28.7 36.4 L29.2 37.65 28.2 38.5 Q27.2 39.25 26.05 39.45 L24.8 39.8 23.35 39.95 21.65 40.05 20.0 40.0 18.3 39.8 16.6 39.55 14.65 39.25 12.85 39.05 11.1 38.6 9.1 38.25 8.1 38.05 7.1 37.85 6.4 37.65 4.9 37.15 3.25 36.75 2.35 36.45 2.0 37.8 1.15 38.0 -1.4 38.05 -3.2 38.05 -5.0 38.05 -6.8 37.85 -8.65 37.5 -10.4 37.3 -10.75 37.2 Q-10.9 37.1 -11.1 36.95 L-11.6 33.9 -10.6 33.95 -8.8 33.8 -7.4 33.7 -6.95 33.65 -5.25 33.6 -3.85 33.65 -3.0 33.7 -2.15 33.8 -0.3 34.15 1.4 34.5 2.95 34.9 4.8 35.5 5.9 35.85 7.3 36.35 8.7 36.85 10.05 36.95 11.25 37.2 13.1 37.75 14.85 38.0 16.75 38.1 18.6 38.1 20.3 38.5 22.1 38.45 24.0 38.3 25.85 37.75 27.6 37.2 Q28.25 37.05 28.7 36.4" fill="#42321c" fill-rule="evenodd" stroke="none"/>
      <path d="M28.3 35.75 L28.45 35.75 28.7 36.4 Q28.25 37.05 27.6 37.2 L25.85 37.75 24.0 38.3 22.1 38.45 20.3 38.5 18.6 38.1 16.75 38.1 14.85 38.0 13.1 37.75 11.25 37.2 10.05 36.95 8.7 36.85 7.3 36.35 5.9 35.85 4.8 35.5 2.95 34.9 1.4 34.5 -0.3 34.15 -2.15 33.8 -3.0 33.7 -3.85 33.65 -5.25 33.6 -6.95 33.65 -7.4 33.7 -8.8 33.8 -10.6 33.95 -11.6 33.9 -11.7 33.35 -10.1 33.35 -8.6 33.3 -7.3 33.15 -6.15 32.95 -4.5 32.95 -2.9 32.95 -1.45 33.25 0.5 33.6 1.4 33.7 1.6 33.75 2.5 34.0 4.3 34.5 5.9 35.0 7.3 35.5 8.65 35.85 10.2 36.35 11.65 36.65 12.65 36.9 13.65 37.05 15.55 37.25 17.15 37.35 18.7 37.6 19.7 37.7 20.7 37.7 22.6 37.55 24.45 37.4 26.35 36.85 27.55 36.15 28.3 35.75" fill="#6a502d" fill-rule="evenodd" stroke="none"/>
      <path d="M25.0 33.1 L23.95 32.8 22.05 32.3 Q20.3 32.3 19.85 31.35 L24.65 31.9 Q25.6 31.85 26.05 32.75 26.5 33.55 25.8 33.7 L25.0 33.1" fill="#b68b52" fill-rule="evenodd" stroke="none"/>
    </g>
    <g id="sprite1" transform="matrix(1.0, 0.0, 0.0, 1.0, 50.0, 50.0)">
      <use ffdec:characterId="1080" height="100.0" transform="matrix(1.0, 0.0, 0.0, 1.0, -50.0, -50.0)" width="100.0" xlink:href="#shape2"/>
    </g>
    <g id="shape2" transform="matrix(1.0, 0.0, 0.0, 1.0, 50.0, 50.0)">
      <path d="M50.0 50.0 L-50.0 50.0 -50.0 -50.0 50.0 -50.0 50.0 50.0 Z" fill="none" stroke="#9900ff" stroke-linecap="round" stroke-linejoin="round" stroke-width="0.05"/>
    </g>
  </defs>
</svg>
