<?xml version="1.0" encoding="UTF-8" standalone="no"?>
<svg xmlns:ffdec="https://www.free-decompiler.com/flash" xmlns:xlink="http://www.w3.org/1999/xlink" ffdec:objectType="frame" height="120.0px" width="375.0px" xmlns="http://www.w3.org/2000/svg">
  <g transform="matrix(1.0, 0.0, 0.0, 1.0, 0.0, 30.05)">
    <use ffdec:characterId="629" height="120.0" transform="matrix(1.0, 0.0, 0.0, 1.0, 0.0, -30.05)" width="375.0" xlink:href="#shape0"/>
  </g>
  <defs>
    <g id="shape0" transform="matrix(1.0, 0.0, 0.0, 1.0, 0.0, 30.05)">
      <path d="M315.0 89.95 L315.0 60.0 235.0 60.0 235.0 0.0 315.0 0.0 315.0 -30.05 375.0 30.0 315.0 89.95" fill="#3d88c7" fill-rule="evenodd" stroke="none"/>
      <path d="M265.0 0.0 Q270.0 0.0 270.0 5.0 L270.0 55.0 Q270.0 60.0 265.0 60.0 L5.0 60.0 Q0.0 60.0 0.0 55.0 L0.0 5.0 Q0.0 0.0 5.0 0.0 L265.0 0.0" fill="#3d88c7" fill-rule="evenodd" stroke="none"/>
    </g>
  </defs>
</svg>
