<?xml version="1.0" encoding="UTF-8" standalone="no"?>
<svg xmlns:ffdec="https://www.free-decompiler.com/flash" xmlns:xlink="http://www.w3.org/1999/xlink" ffdec:objectType="frame" height="126.9px" width="35.5px" xmlns="http://www.w3.org/2000/svg">
  <g transform="matrix(1.0, 0.0, 0.0, 1.0, 18.85, 19.0)">
    <use ffdec:characterId="1085" ffdec:characterName="game_fla.upperarm2_847" height="67.2" id="upperArm2" transform="matrix(1.0, 0.0, 0.0, 1.0, -18.85, -19.0)" width="35.5" xlink:href="#sprite0"/>
    <use ffdec:characterId="1092" height="73.65" id="lowerArmOuter2" transform="matrix(1.0, 0.0, 0.0, 1.0, -13.15, 34.25)" width="25.65" xlink:href="#sprite2"/>
  </g>
  <defs>
    <g id="sprite0" transform="matrix(1.0, 0.0, 0.0, 1.0, 17.75, 36.0)">
      <use ffdec:characterId="1079" height="63.2" transform="matrix(1.0, 0.0, 0.0, 1.0, -15.3, -32.0)" width="30.9" xlink:href="#shape0"/>
      <use ffdec:characterId="1081" height="100.0" id="shape" transform="matrix(0.28, 0.0, 0.0, 0.58, -13.9984, -28.9986)" width="100.0" xlink:href="#sprite1"/>
    </g>
    <g id="shape0" transform="matrix(1.0, 0.0, 0.0, 1.0, 15.3, 32.0)">
      <path d="M-14.45 5.0 L-14.8 5.0 -14.95 1.7 -15.15 -2.6 -15.2 -4.45 -15.25 -6.2 -15.25 -6.35 -15.25 -7.45 -15.25 -7.7 -15.25 -8.8 -15.25 -10.2 -15.25 -10.3 -15.25 -10.45 -15.25 -12.1 -15.2 -12.55 -15.2 -12.75 -15.2 -12.9 -15.2 -13.4 -15.15 -14.45 -15.1 -15.1 -14.9 -17.2 -14.85 -17.55 -14.85 -17.6 -14.75 -18.2 -14.4 -19.95 -14.15 -20.95 -14.1 -21.05 -14.0 -21.45 -13.9 -21.7 -13.65 -22.5 -12.75 -24.75 -12.65 -24.95 -12.45 -25.4 -11.45 -27.15 -11.4 -27.3 Q-8.15 -32.4 1.3 -31.95 10.7 -31.55 13.35 -25.25 14.85 -21.5 15.35 -18.75 L15.3 -18.75 14.5 -18.8 Q12.05 -18.85 10.05 -17.9 L9.75 -18.0 8.9 -18.2 9.6 -18.6 9.95 -18.8 10.35 -19.25 10.6 -19.75 10.75 -20.0 9.45 -19.9 9.05 -19.85 Q7.15 -19.65 5.6 -18.7 L5.0 -18.85 12.8 -23.65 11.55 -23.55 Q9.0 -23.35 6.75 -22.4 4.0 -21.25 1.7 -18.95 L0.4 -18.8 Q-3.45 -22.15 -8.4 -22.95 L-9.15 -23.1 -9.55 -21.25 -1.9 -18.1 -2.65 -17.7 Q-6.65 -19.95 -10.95 -18.95 L-11.0 -18.3 -9.0 -17.7 Q-6.55 -17.5 -4.35 -16.6 L-5.15 -15.9 Q-6.85 -14.2 -6.45 -12.0 L-6.75 -11.0 -6.8 -9.25 Q-9.15 -8.9 -11.3 -7.6 L-11.45 -7.5 -12.8 -6.5 -8.6 -7.0 -9.9 -6.4 Q-11.55 -5.5 -12.75 -4.05 L-14.35 -1.75 -8.7 -4.05 -10.6 -1.9 Q-12.05 -0.25 -12.9 1.7 L-12.25 2.8 -9.45 0.6 -7.3 -0.65 -7.6 0.7 -7.55 2.65 -6.15 1.75 -6.0 1.85 -2.95 -0.35 Q-2.85 0.35 -1.8 0.35 L-1.75 0.35 3.5 -0.4 3.95 -0.55 5.3 -0.9 7.9 -0.8 4.25 0.65 13.65 0.4 13.25 2.5 13.25 2.7 13.05 5.05 12.75 5.1 12.55 5.1 11.9 5.1 11.6 5.05 11.55 5.05 2.8 5.0 -0.55 5.0 -0.9 5.0 -14.45 5.0 M15.4 -18.6 L15.6 -16.6 15.6 -16.45 15.5 -15.45 15.4 -13.0 15.3 -12.0 15.25 -12.0 12.4 -12.1 11.15 -13.1 13.6 -14.75 8.4 -13.65 8.45 -13.8 10.9 -15.05 9.8 -15.7 15.3 -18.6 15.4 -18.6 M15.15 -11.35 L14.8 -8.55 13.45 -8.4 13.65 -9.0 12.85 -10.1 15.15 -11.35 M14.65 -7.45 L14.3 -4.95 11.05 -4.4 10.8 -4.6 8.0 -4.85 10.6 -6.1 12.9 -6.35 Q13.65 -6.4 13.85 -6.8 L13.25 -6.9 14.65 -7.45 M-7.5 -24.05 L-6.85 -23.75 Q-2.6 -21.7 2.0 -20.4 L1.25 -21.5 Q-0.9 -24.65 -4.2 -24.65 -5.75 -24.7 -7.5 -24.05 M-5.75 -7.9 L-5.45 -7.65 -7.2 -7.4 -5.75 -7.9 M-3.4 -6.4 L-2.95 -6.2 -4.35 -5.6 -4.4 -5.85 -3.4 -6.4 M8.5 -11.0 L8.5 -11.25 9.25 -11.25 9.15 -11.2 9.1 -11.2 8.5 -11.0 M-0.6 -2.2 L4.1 -2.65 4.15 -2.65 5.25 -2.75 7.15 -2.9 4.85 -2.4 4.0 -2.35 0.15 -1.95 -0.85 -1.75 -0.6 -2.2 M5.15 -4.65 L0.85 -4.2 0.9 -4.5 0.9 -4.75 1.0 -4.75 4.3 -4.95 5.0 -5.1 5.15 -4.65 M8.8 -7.5 L7.55 -7.55 6.55 -7.55 6.7 -7.8 8.0 -8.2 8.9 -8.55 11.65 -8.2 8.8 -7.5" fill="#242724" fill-rule="evenodd" stroke="none"/>
      <path d="M-8.7 -4.05 Q-7.8 -5.1 -6.55 -5.6 L-5.25 -5.9 -4.4 -5.85 -4.35 -5.6 -4.3 -4.85 -4.8 -4.15 Q-6.85 -1.5 -9.45 0.6 L-12.25 2.8 -12.9 1.7 Q-12.05 -0.25 -10.6 -1.9 L-8.7 -4.05 M-0.85 -1.75 L-2.0 0.0 -2.0 -0.05 -2.05 -0.15 -2.1 -0.2 Q-2.8 -1.9 -1.7 -3.25 -1.2 -3.9 -0.2 -4.35 L-0.6 -2.2 -0.85 -1.75 M-7.3 -0.65 Q-6.05 -2.4 -4.35 -3.65 L-4.2 -3.8 -2.95 -4.55 Q-2.85 -3.2 -3.15 -2.0 L-3.85 -0.45 Q-4.6 0.95 -6.15 1.75 L-7.55 2.65 -7.6 0.7 -7.3 -0.65" fill="#8ab66c" fill-rule="evenodd" stroke="none"/>
      <path d="M-1.9 -18.1 L-9.55 -21.25 -9.15 -23.1 -8.4 -22.95 Q-3.45 -22.15 0.4 -18.8 L-1.9 -18.1 M8.9 -18.2 L9.75 -18.0 10.05 -17.9 9.9 -17.2 9.85 -17.2 9.5 -16.8 Q8.95 -16.35 8.2 -16.35 L7.85 -16.95 Q7.15 -18.2 5.7 -18.7 L8.9 -18.2 M-7.5 -24.05 Q-5.75 -24.7 -4.2 -24.65 -0.9 -24.65 1.25 -21.5 L2.0 -20.4 Q-2.6 -21.7 -6.85 -23.75 L-7.5 -24.05 M-3.85 -16.85 L-4.35 -16.6 Q-6.55 -17.5 -9.0 -17.7 L-11.0 -18.3 -10.95 -18.95 Q-6.65 -19.95 -2.65 -17.7 L-3.85 -16.85 M-6.8 -9.25 L-5.75 -7.9 -7.2 -7.4 -5.45 -7.65 -3.4 -6.4 -4.4 -5.85 -5.25 -5.9 -6.55 -5.6 Q-7.8 -5.1 -8.7 -4.05 L-14.35 -1.75 -12.75 -4.05 Q-11.55 -5.5 -9.9 -6.4 L-8.6 -7.0 -12.8 -6.5 -11.45 -7.5 -11.3 -7.6 Q-9.15 -8.9 -6.8 -9.25 M-2.95 -6.2 L-1.55 -5.85 Q-0.2 -5.15 1.35 -5.15 4.75 -5.15 6.55 -7.55 L7.55 -7.55 8.8 -7.5 13.25 -6.9 13.85 -6.8 Q13.65 -6.4 12.9 -6.35 L10.6 -6.1 5.0 -5.1 4.3 -4.95 1.0 -4.75 0.9 -4.75 0.9 -4.5 0.85 -4.2 5.15 -4.65 8.0 -4.85 10.8 -4.6 11.05 -4.4 11.75 -3.8 11.5 -3.45 Q9.4 -2.65 7.15 -2.9 L5.25 -2.75 4.15 -2.65 4.1 -2.65 -0.6 -2.2 -0.2 -4.35 Q-1.2 -3.9 -1.7 -3.25 -2.8 -1.9 -2.1 -0.2 L-2.05 -0.15 -2.0 -0.05 -2.0 0.0 -0.85 -1.75 0.15 -1.95 4.0 -2.35 4.85 -2.4 7.45 -2.35 7.4 -1.55 5.3 -0.9 3.95 -0.55 3.5 -0.4 -1.75 0.35 -1.8 0.35 Q-2.85 0.35 -2.95 -0.35 L-6.0 1.85 -6.15 1.75 Q-4.6 0.95 -3.85 -0.45 L-3.15 -2.0 Q-2.85 -3.2 -2.95 -4.55 L-4.2 -3.8 -4.35 -3.65 Q-6.05 -2.4 -7.3 -0.65 L-9.45 0.6 Q-6.85 -1.5 -4.8 -4.15 L-4.3 -4.85 -4.35 -5.6 -2.95 -6.2 M7.5 -8.65 L7.85 -8.95 Q8.65 -9.9 8.5 -11.0 L12.85 -10.1 13.65 -9.0 13.45 -8.4 12.75 -8.05 11.65 -8.2 8.9 -8.55 7.5 -8.65 M8.5 -11.25 L8.3 -12.9 8.35 -13.55 9.6 -13.55 9.65 -13.55 10.0 -13.55 11.15 -13.1 12.4 -12.1 12.65 -11.75 Q11.1 -10.75 9.25 -11.25 L8.5 -11.25 M8.45 -13.8 L8.35 -15.9 9.8 -15.7 10.9 -15.05 8.45 -13.8" fill="#44855a" fill-rule="evenodd" stroke="none"/>
      <path d="M15.35 -18.75 L15.4 -18.6 15.3 -18.6 9.8 -15.7 8.35 -15.9 8.2 -16.35 Q8.95 -16.35 9.5 -16.8 L9.85 -17.2 9.9 -17.2 10.05 -17.9 Q12.05 -18.85 14.5 -18.8 L15.3 -18.75 15.35 -18.75 M15.25 -12.0 L15.15 -11.35 12.85 -10.1 8.5 -11.0 9.1 -11.2 9.15 -11.2 9.25 -11.25 Q11.1 -10.75 12.65 -11.75 L12.4 -12.1 15.25 -12.0 M14.8 -8.55 L14.65 -7.45 13.25 -6.9 8.8 -7.5 11.65 -8.2 12.75 -8.05 13.45 -8.4 14.8 -8.55 M14.3 -4.95 L13.95 -2.1 13.95 -1.95 13.65 0.4 4.25 0.65 7.9 -0.8 5.3 -0.9 7.4 -1.55 7.45 -2.35 4.85 -2.4 7.15 -2.9 Q9.4 -2.65 11.5 -3.45 L11.75 -3.8 11.05 -4.4 14.3 -4.95 M1.7 -18.95 Q4.0 -21.25 6.75 -22.4 9.0 -23.35 11.55 -23.55 L12.8 -23.65 5.0 -18.85 1.7 -18.95 M5.6 -18.7 Q7.15 -19.65 9.05 -19.85 L9.45 -19.9 10.75 -20.0 10.6 -19.75 10.35 -19.25 9.95 -18.8 9.6 -18.6 8.9 -18.2 5.7 -18.7 5.6 -18.7 M6.8 -7.95 L7.5 -8.65 8.9 -8.55 8.0 -8.2 6.7 -7.8 6.8 -7.95 M8.35 -13.55 L8.4 -13.65 13.6 -14.75 11.15 -13.1 10.0 -13.55 9.65 -13.55 9.6 -13.55 8.35 -13.55 M8.0 -4.85 L5.15 -4.65 5.0 -5.1 10.6 -6.1 8.0 -4.85" fill="#2c5277" fill-rule="evenodd" stroke="none"/>
      <path d="M-1.9 -18.1 L0.4 -18.8 1.7 -18.95 5.0 -18.85 5.6 -18.7 5.7 -18.7 Q7.15 -18.2 7.85 -16.95 L8.2 -16.35 8.35 -15.9 8.45 -13.8 8.4 -13.65 8.35 -13.55 8.3 -12.9 8.5 -11.25 8.5 -11.0 Q8.65 -9.9 7.85 -8.95 L7.5 -8.65 6.8 -7.95 Q3.85 -5.6 0.25 -5.6 L-1.55 -5.85 -2.95 -6.2 -3.4 -6.4 -5.45 -7.65 -5.75 -7.9 -6.8 -9.25 -6.75 -11.0 -6.45 -12.0 Q-1.3 -6.65 3.2 -11.7 L3.8 -12.5 0.6 -15.0 Q6.45 -15.45 4.65 -10.4 L4.05 -9.15 Q8.1 -11.05 5.5 -14.1 3.7 -16.2 1.0 -15.75 -1.3 -15.45 -2.6 -13.45 L-0.1 -11.3 Q-3.2 -11.25 -3.95 -14.1 -4.3 -15.5 -3.85 -16.85 L-2.65 -17.7 -1.9 -18.1" fill="#e58a8a" fill-rule="evenodd" stroke="none"/>
      <path d="M-3.85 -16.85 Q-4.3 -15.5 -3.95 -14.1 -3.2 -11.25 -0.1 -11.3 L-2.6 -13.45 Q-1.3 -15.45 1.0 -15.75 3.7 -16.2 5.5 -14.1 8.1 -11.05 4.05 -9.15 L4.65 -10.4 Q6.45 -15.45 0.6 -15.0 L3.8 -12.5 3.2 -11.7 Q-1.3 -6.65 -6.45 -12.0 -6.85 -14.2 -5.15 -15.9 L-4.35 -16.6 -3.85 -16.85 M-1.55 -5.85 L0.25 -5.6 Q3.85 -5.6 6.8 -7.95 L6.7 -7.8 6.55 -7.55 Q4.75 -5.15 1.35 -5.15 -0.2 -5.15 -1.55 -5.85" fill="#a65b5b" fill-rule="evenodd" stroke="none"/>
      <path d="M11.9 5.1 L11.75 7.55 2.6 6.95 2.8 5.0 11.55 5.05 11.6 5.05 11.9 5.1 M-14.0 7.6 L-14.45 5.0 -0.9 5.0 -0.55 5.0 -0.25 6.95 -9.55 7.25 -14.0 7.6" fill="#e2b181" fill-rule="evenodd" stroke="none"/>
      <path d="M2.6 6.95 Q1.9 12.85 1.9 14.2 L1.9 14.35 1.6 13.2 0.4 9.0 -0.25 7.0 -0.25 6.95 2.6 6.95" fill="#f4c398" fill-rule="evenodd" stroke="none"/>
      <path d="M11.75 7.55 L11.3 14.9 10.85 18.25 10.45 20.2 9.95 21.25 9.6 21.75 7.0 25.45 6.3 26.35 4.0 28.85 3.75 29.1 3.65 29.15 Q2.25 31.05 0.05 31.2 -2.05 31.2 -4.2 30.25 L-7.05 28.75 -8.45 27.45 Q-9.2 26.5 -9.55 25.55 L-10.7 22.8 Q-12.9 17.0 -12.95 12.45 L-12.95 12.35 -13.45 10.25 -14.0 7.6 -9.55 7.25 -0.25 6.95 -0.25 7.0 0.4 9.0 1.6 13.2 1.9 14.35 1.9 14.2 Q1.9 12.85 2.6 6.95 L11.75 7.55" fill="#ffcc99" fill-rule="evenodd" stroke="none"/>
      <path d="M-0.55 5.0 L2.8 5.0 2.6 6.95 -0.25 6.95 -0.55 5.0" fill="#cda57e" fill-rule="evenodd" stroke="none"/>
    </g>
    <g id="sprite1" transform="matrix(1.0, 0.0, 0.0, 1.0, 50.0, 50.0)">
      <use ffdec:characterId="1080" height="100.0" transform="matrix(1.0, 0.0, 0.0, 1.0, -50.0, -50.0)" width="100.0" xlink:href="#shape1"/>
    </g>
    <g id="shape1" transform="matrix(1.0, 0.0, 0.0, 1.0, 50.0, 50.0)">
      <path d="M50.0 50.0 L-50.0 50.0 -50.0 -50.0 50.0 -50.0 50.0 50.0 Z" fill="none" stroke="#9900ff" stroke-linecap="round" stroke-linejoin="round" stroke-width="0.05"/>
    </g>
    <g id="sprite2" transform="matrix(1.0, 0.0, 0.0, 1.0, 13.2, 7.7)">
      <use ffdec:characterId="1091" ffdec:characterName="game_fla.lowerarm2_849" height="73.65" id="lowerArm2" transform="matrix(1.0, 0.0, 0.0, 1.0, -13.2, -7.7)" width="25.65" xlink:href="#sprite3"/>
    </g>
    <g id="sprite3" transform="matrix(1.0, 0.0, 0.0, 1.0, 13.75, 34.55)">
      <use ffdec:characterId="1086" height="52.0" transform="matrix(1.0, 0.0, 0.0, 1.0, -13.15, -34.55)" width="24.7" xlink:href="#shape2"/>
      <use ffdec:characterId="1089" ffdec:characterName="game_fla.hand2_850" height="23.0" id="hand" transform="matrix(1.0, 0.0, 0.0, 1.0, -9.25, 16.1)" width="18.65" xlink:href="#sprite4"/>
      <use ffdec:characterId="1081" height="100.0" id="shape" transform="matrix(0.2, 0.0, 0.0, 0.65, -9.9991, -32.5012)" width="100.0" xlink:href="#sprite1"/>
    </g>
    <g id="shape2" transform="matrix(1.0, 0.0, 0.0, 1.0, 13.15, 34.55)">
      <path d="M-3.0 17.15 L-4.65 17.15 -4.65 17.0 -4.65 16.55 -3.0 17.15" fill="#583a30" fill-rule="evenodd" stroke="none"/>
      <path d="M-0.85 17.15 Q-1.15 17.45 -1.75 17.45 L-3.0 17.15 -4.65 16.55 -4.65 17.0 -4.65 17.15 -5.0 17.45 -5.35 17.15 -5.4 16.65 -5.2 15.45 -4.95 13.8 -4.75 12.25 -4.8 11.1 -4.55 11.35 -4.3 3.9 -4.15 3.9 Q-3.6 5.4 -3.3 8.95 -3.15 11.2 -2.7 12.65 -2.65 12.65 -2.55 12.75 -2.35 12.3 -2.3 11.6 -1.8 11.05 -1.45 7.85 L-1.35 6.6 Q-1.1 9.35 -1.0 15.05 L-0.5 16.05 Q-0.5 16.8 -0.85 17.15" fill="#ebbb98" fill-rule="evenodd" stroke="none"/>
      <path d="M-5.35 17.15 L-6.35 17.15 -6.35 16.6 Q-6.35 13.3 -8.65 4.45 L-11.45 -6.2 -13.05 -14.05 -13.15 -16.2 Q-13.2 -18.1 -12.55 -20.15 L-11.7 -23.4 -11.7 -23.6 -11.9 -25.35 -11.95 -25.95 -11.85 -26.85 -11.85 -26.9 -11.8 -27.05 -11.8 -27.1 Q-8.9 -31.05 -6.75 -32.55 -3.9 -34.55 0.2 -34.55 L3.8 -34.2 Q5.0 -33.9 7.05 -32.8 L8.3 -31.95 8.75 -31.5 Q9.4 -30.8 9.65 -29.85 11.5 -24.3 11.55 -21.4 11.55 -18.2 9.7 -7.25 7.85 3.65 7.6 8.5 L7.15 16.65 7.25 17.15 -0.85 17.15 Q-0.5 16.8 -0.5 16.05 L-1.0 15.05 Q-1.1 9.35 -1.35 6.6 L-1.45 7.85 Q-1.8 11.05 -2.3 11.6 -2.35 12.3 -2.55 12.75 -2.65 12.65 -2.7 12.65 -3.15 11.2 -3.3 8.95 -3.6 5.4 -4.15 3.9 L-4.3 3.9 -4.55 11.35 -4.8 11.1 -4.75 12.25 -4.95 13.8 -5.2 15.45 -5.4 16.65 -5.35 17.15" fill="#ffcc99" fill-rule="evenodd" stroke="none"/>
    </g>
    <g id="sprite4" transform="matrix(1.0, 0.0, 0.0, 1.0, 9.65, 9.2)">
      <use ffdec:characterId="1087" height="18.45" transform="matrix(1.0, 0.0, 0.0, 1.0, -8.3, -9.2)" width="16.6" xlink:href="#shape3"/>
    </g>
    <g id="shape3" transform="matrix(1.0, 0.0, 0.0, 1.0, 8.3, 9.2)">
      <path d="M-0.3 -8.2 L-2.75 -8.45 -4.35 -8.85 -4.5 -8.65 -5.75 -8.8 -5.75 -9.2 -0.8 -9.2 -0.3 -8.2 M-1.7 8.0 L-2.95 7.75 -3.6 7.45 -3.8 7.35 -4.45 6.5 Q-5.05 5.3 -5.4 5.3 L-6.0 5.05 Q-7.4 4.3 -6.6 2.6 -8.75 1.9 -8.2 0.0 L-7.6 -0.8 -7.4 -1.1 -7.3 -1.25 -7.2 -1.45 -7.0 -1.6 -5.4 -2.15 -6.2 -1.25 -5.05 0.7 -5.6 1.85 -5.75 2.3 Q-6.2 3.85 -5.4 5.3 L-5.65 3.35 -4.7 1.55 -3.6 1.15 Q-3.2 0.25 -3.05 -1.0 L-2.95 -2.0 -2.4 -2.1 -2.65 -0.65 -2.7 0.1 Q-2.7 1.3 -3.05 1.4 L-2.85 2.25 -3.2 2.25 Q-4.75 1.6 -4.65 2.45 -4.55 3.35 -3.55 3.95 L-2.35 4.75 -2.75 5.65 -2.4 6.75 -2.35 6.75 -1.6 6.5 -1.4 5.8 -1.7 5.0 -1.05 5.05 -0.45 4.85 -0.25 4.55 0.05 4.0 0.55 2.85 1.05 3.3 2.45 3.05 2.2 2.15 1.7 1.8 1.45 1.7 1.85 1.3 Q2.5 1.45 2.85 2.45 L3.4 4.5 3.9 5.1 3.4 5.6 2.95 6.05 2.45 6.55 1.8 7.15 1.65 7.2 1.25 6.2 1.15 5.9 0.4 5.1 0.25 5.15 -0.35 5.4 -0.45 5.45 Q-1.0 5.8 -1.0 6.1 -1.0 7.55 -0.45 8.0 L-0.1 8.15 -0.15 8.15 -0.45 8.35 -0.7 8.35 Q-1.45 8.35 -1.7 8.0 M-3.45 4.3 Q-4.1 4.7 -4.0 6.05 L-3.95 6.85 Q-3.35 6.15 -3.1 5.3 L-3.45 4.3" fill="#ebbb98" fill-rule="evenodd" stroke="none"/>
      <path d="M6.7 -8.8 L4.95 -8.5 2.0 -8.15 -0.3 -8.2 -0.8 -9.2 6.65 -9.2 6.7 -8.8 M-2.75 -8.45 L-2.85 -8.45 -4.5 -8.65 -4.35 -8.85 -2.75 -8.45 M-2.4 -2.1 L-1.6 -2.15 Q0.35 -2.15 1.2 -1.55 1.95 -1.0 2.45 0.65 L1.85 1.3 1.45 1.7 0.55 2.85 0.05 4.0 -0.25 4.55 -0.45 4.85 -1.05 5.05 -1.7 5.0 -2.35 4.75 -3.55 3.95 Q-4.55 3.35 -4.65 2.45 -4.75 1.6 -3.2 2.25 L-2.85 2.25 -3.05 1.4 Q-2.7 1.3 -2.7 0.1 L-2.65 -0.65 -2.4 -2.1 M3.9 5.1 L3.95 5.1 4.65 5.75 5.0 6.6 5.15 7.25 Q4.25 7.8 3.75 7.95 2.65 8.15 1.7 8.85 0.75 9.45 -0.25 9.15 L-0.45 9.1 Q-1.4 8.85 -1.7 8.0 -1.45 8.35 -0.7 8.35 L-0.45 8.35 -0.15 8.15 -0.1 8.15 -0.45 8.0 Q-1.0 7.55 -1.0 6.1 -1.0 5.8 -0.45 5.45 L-0.35 5.4 0.25 5.15 0.4 5.1 1.15 5.9 1.25 6.2 1.65 7.2 1.8 7.15 2.45 6.55 2.95 6.05 3.4 5.6 3.9 5.1 M-7.4 -1.1 L-7.35 -1.35 -7.2 -1.45 -7.3 -1.25 -7.4 -1.1 M-6.8 -8.9 L-6.85 -9.2 -5.75 -9.2 -5.75 -8.8 -6.8 -8.9" fill="#ffcc99" fill-rule="evenodd" stroke="none"/>
      <path d="M-5.4 -2.15 L-5.1 -2.15 Q-4.35 -2.15 -3.65 -1.6 -3.5 -1.9 -2.95 -2.0 L-3.05 -1.0 Q-3.2 0.25 -3.6 1.15 L-4.7 1.55 -5.65 3.35 -5.4 5.3 Q-6.2 3.85 -5.75 2.3 L-5.6 1.85 -5.05 0.7 -6.2 -1.25 -5.4 -2.15 M-2.35 4.75 L-1.7 5.0 -1.4 5.8 -1.6 6.5 -2.35 6.75 -2.4 6.75 -2.75 5.65 -2.35 4.75 M0.55 2.85 L1.45 1.7 1.7 1.8 2.2 2.15 2.45 3.05 1.05 3.3 0.55 2.85 M-3.45 4.3 L-3.1 5.3 Q-3.35 6.15 -3.95 6.85 L-4.0 6.05 Q-4.1 4.7 -3.45 4.3" fill="#e2b181" fill-rule="evenodd" stroke="none"/>
      <path d="M6.7 -8.8 L7.05 -6.2 7.55 -4.5 Q8.55 -1.25 8.2 0.4 L8.1 1.05 Q7.8 3.75 7.3 5.05 L6.55 6.2 5.75 6.9 5.45 7.05 5.15 7.25 5.0 6.6 4.65 5.75 3.95 5.1 3.9 5.1 4.55 4.55 4.1 3.6 Q3.6 2.95 3.8 1.0 L2.7 0.4 2.45 0.65 Q1.95 -1.0 1.2 -1.55 0.35 -2.15 -1.6 -2.15 L-2.4 -2.1 -2.2 -2.7 -1.5 -3.8 -1.45 -4.5 -1.7 -5.35 -3.4 -6.4 -4.0 -6.55 -3.95 -6.85 -4.25 -7.8 -4.55 -8.55 -4.5 -8.65 -2.85 -8.45 -2.75 -8.45 -0.3 -8.2 2.0 -8.15 4.95 -8.5 6.7 -8.8 M-7.35 -1.35 L-7.35 -1.45 Q-7.3 -2.25 -7.4 -3.05 L-7.45 -4.2 -7.45 -4.5 Q-7.7 -6.55 -6.85 -8.3 L-6.8 -8.9 -5.75 -8.8 -5.8 -8.15 -5.6 -6.25 -6.0 -6.0 Q-6.4 -5.65 -6.3 -4.5 L-6.3 -4.35 Q-6.55 -2.35 -7.15 -1.55 L-7.2 -1.45 -7.35 -1.35" fill="#313531" fill-rule="evenodd" stroke="none"/>
      <path d="M-4.5 -8.65 L-4.55 -8.55 -4.25 -7.8 -3.95 -6.85 -4.0 -6.55 -3.4 -6.4 -1.7 -5.35 -1.45 -4.5 -1.5 -3.8 -2.2 -2.7 -2.4 -2.1 -2.95 -2.0 Q-3.5 -1.9 -3.65 -1.6 -4.35 -2.15 -5.1 -2.15 L-5.4 -2.15 -7.0 -1.6 -7.2 -1.45 -7.15 -1.55 Q-6.55 -2.35 -6.3 -4.35 L-6.3 -4.5 Q-6.4 -5.65 -6.0 -6.0 L-5.6 -6.25 -5.8 -8.15 -5.75 -8.8 -4.5 -8.65 M2.45 0.65 L2.7 0.4 3.8 1.0 Q3.6 2.95 4.1 3.6 L4.55 4.55 3.9 5.1 3.4 4.5 2.85 2.45 Q2.5 1.45 1.85 1.3 L2.45 0.65" fill="#242724" fill-rule="evenodd" stroke="none"/>
    </g>
  </defs>
</svg>
