<?xml version="1.0" encoding="UTF-8" standalone="no"?>
<svg xmlns:ffdec="https://www.free-decompiler.com/flash" xmlns:xlink="http://www.w3.org/1999/xlink" ffdec:objectType="frame" height="283.9px" width="156.35px" xmlns="http://www.w3.org/2000/svg">
  <g transform="matrix(1.0, 0.0, 0.0, 1.0, 49.1, 99.7)">
    <use ffdec:characterId="1849" height="123.35" id="arm2" transform="matrix(1.0, 0.0, 0.0, 1.0, -16.0, -40.9)" width="31.65" xlink:href="#sprite0"/>
    <use ffdec:characterId="1862" height="138.15" id="leg2" transform="matrix(1.0, 0.0, 0.0, 1.0, -29.8, 45.9)" width="56.75" xlink:href="#sprite6"/>
    <use ffdec:characterId="1876" height="89.15" id="headOuter" transform="matrix(1.0, 0.0, 0.0, 1.0, -20.55, -99.7)" width="54.0" xlink:href="#sprite10"/>
    <use ffdec:characterId="1888" ffdec:characterName="game_fla.pelvis_552" height="101.0" id="pelvis" transform="matrix(1.0, 0.0, 0.0, 1.0, -48.8, 1.2)" width="156.05" xlink:href="#sprite14"/>
    <use ffdec:characterId="1903" ffdec:characterName="game_fla.chest_557" height="147.15" id="chest" transform="matrix(1.0, 0.0, 0.0, 1.0, -49.1, -86.8)" width="100.35" xlink:href="#sprite15"/>
    <use ffdec:characterId="1916" height="138.05" id="leg1" transform="matrix(1.0, 0.0, 0.0, 1.0, -30.55, 46.15)" width="59.95" xlink:href="#sprite17"/>
    <use ffdec:characterId="1929" height="123.9" id="arm1" transform="matrix(1.0, 0.0, 0.0, 1.0, -15.7, -41.2)" width="31.65" xlink:href="#sprite21"/>
  </g>
  <defs>
    <g id="sprite0" transform="matrix(1.0, 0.0, 0.0, 1.0, 16.95, 15.45)">
      <use ffdec:characterId="1841" ffdec:characterName="game_fla.upperarm2_537" height="63.65" id="upperArm2" transform="matrix(1.0, 0.0, 0.0, 1.0, -16.95, -15.45)" width="31.65" xlink:href="#sprite1"/>
      <use ffdec:characterId="1848" height="73.65" id="lowerArmOuter2" transform="matrix(1.0, 0.0, 0.0, 1.0, -13.15, 34.25)" width="25.65" xlink:href="#sprite3"/>
    </g>
    <g id="sprite1" transform="matrix(1.0, 0.0, 0.0, 1.0, 15.85, 32.45)">
      <use ffdec:characterId="1837" height="62.8" transform="matrix(1.0, 0.0, 0.0, 1.0, -15.85, -31.6)" width="31.65" xlink:href="#shape0"/>
      <use ffdec:characterId="1081" height="100.0" id="shape" transform="matrix(0.28, 0.0, 0.0, 0.58, -13.9984, -28.9986)" width="100.0" xlink:href="#sprite2"/>
    </g>
    <g id="shape0" transform="matrix(1.0, 0.0, 0.0, 1.0, 15.85, 31.6)">
      <path d="M15.8 -11.3 Q15.8 -9.2 13.75 0.25 L11.7 9.8 11.4 14.25 10.85 18.25 10.45 20.2 9.6 21.75 Q7.05 25.95 3.65 29.15 2.25 31.05 0.05 31.2 -2.05 31.2 -4.2 30.25 L-7.05 28.75 -8.45 27.45 Q-9.2 26.5 -9.55 25.55 L-10.7 22.8 Q-12.9 17.0 -12.95 12.45 L-13.45 10.25 Q-15.6 0.25 -15.85 -8.25 -16.15 -16.75 -12.3 -24.25 -8.45 -31.75 0.8 -31.6 10.05 -31.45 13.95 -23.3 15.8 -19.5 15.8 -11.3 M9.9 -16.45 Q9.9 -19.95 6.85 -22.35 4.1 -24.45 0.15 -24.85 -3.75 -25.3 -6.45 -23.85 -8.75 -23.2 -10.4 -21.2 -12.4 -18.85 -12.8 -16.35 L-13.0 -18.45 -13.5 -14.65 -13.45 -14.1 -13.5 -13.4 Q-13.4 -11.4 -12.5 -9.5 -11.35 -6.95 -9.2 -6.05 -6.35 -6.55 -3.8 -2.95 -1.45 0.35 -0.75 3.05 L-0.65 3.15 -0.65 3.45 -0.25 7.0 0.4 9.0 1.6 13.2 1.9 14.35 1.9 14.2 Q1.9 12.15 3.5 -0.65 3.6 -2.2 5.25 -4.45 L8.0 -8.25 Q8.85 -9.8 9.4 -12.45 9.9 -14.8 9.9 -16.45" fill="#583a30" fill-rule="evenodd" stroke="none"/>
      <path d="M9.9 -16.45 Q9.9 -14.8 9.4 -12.45 8.85 -9.8 8.0 -8.25 L5.25 -4.45 Q3.6 -2.2 3.5 -0.65 1.9 12.15 1.9 14.2 L1.9 14.35 1.6 13.2 0.4 9.0 -0.25 7.0 -0.65 3.45 -0.65 3.15 -0.75 3.05 Q-1.45 0.35 -3.8 -2.95 -6.35 -6.55 -9.2 -6.05 -11.35 -6.95 -12.5 -9.5 -13.4 -11.4 -13.5 -13.4 L-13.45 -14.1 -13.5 -14.65 -13.0 -18.45 -12.8 -16.35 Q-12.4 -18.85 -10.4 -21.2 -8.75 -23.2 -6.45 -23.85 -3.75 -25.3 0.15 -24.85 4.1 -24.45 6.85 -22.35 9.9 -19.95 9.9 -16.45" fill="#4e332a" fill-rule="evenodd" stroke="none"/>
    </g>
    <g id="sprite2" transform="matrix(1.0, 0.0, 0.0, 1.0, 50.0, 50.0)">
      <use ffdec:characterId="1080" height="100.0" transform="matrix(1.0, 0.0, 0.0, 1.0, -50.0, -50.0)" width="100.0" xlink:href="#shape1"/>
    </g>
    <g id="shape1" transform="matrix(1.0, 0.0, 0.0, 1.0, 50.0, 50.0)">
      <path d="M50.0 50.0 L-50.0 50.0 -50.0 -50.0 50.0 -50.0 50.0 50.0 Z" fill="none" stroke="#9900ff" stroke-linecap="round" stroke-linejoin="round" stroke-width="0.05"/>
    </g>
    <g id="sprite3" transform="matrix(1.0, 0.0, 0.0, 1.0, 13.2, 7.7)">
      <use ffdec:characterId="1847" ffdec:characterName="game_fla.lowerarm2_539" height="73.65" id="lowerArm2" transform="matrix(1.0, 0.0, 0.0, 1.0, -13.2, -7.7)" width="25.65" xlink:href="#sprite4"/>
    </g>
    <g id="sprite4" transform="matrix(1.0, 0.0, 0.0, 1.0, 13.75, 34.55)">
      <use ffdec:characterId="1842" height="52.0" transform="matrix(1.0, 0.0, 0.0, 1.0, -13.15, -34.55)" width="24.7" xlink:href="#shape2"/>
      <use ffdec:characterId="1845" ffdec:characterName="game_fla.hand2_540" height="23.0" id="hand" transform="matrix(1.0, 0.0, 0.0, 1.0, -9.25, 16.1)" width="18.65" xlink:href="#sprite5"/>
      <use ffdec:characterId="1081" height="100.0" id="shape" transform="matrix(0.2, 0.0, 0.0, 0.65, -9.9991, -32.5012)" width="100.0" xlink:href="#sprite2"/>
    </g>
    <g id="shape2" transform="matrix(1.0, 0.0, 0.0, 1.0, 13.15, 34.55)">
      <path d="M-5.35 17.15 L-6.35 17.15 -6.35 16.6 Q-6.35 13.3 -8.65 4.45 L-11.45 -6.2 -13.05 -14.05 -13.15 -16.2 Q-13.2 -18.1 -12.55 -20.15 L-11.7 -23.4 -11.7 -23.6 -11.9 -25.35 -11.95 -25.95 -11.85 -26.85 -11.85 -26.9 -11.8 -27.05 -11.8 -27.1 Q-8.9 -31.05 -6.75 -32.55 -3.9 -34.55 0.2 -34.55 L3.8 -34.2 Q5.0 -33.9 7.05 -32.8 L8.3 -31.95 8.75 -31.5 Q9.4 -30.8 9.65 -29.85 11.5 -24.3 11.55 -21.4 11.55 -18.2 9.7 -7.25 7.85 3.65 7.6 8.5 L7.15 16.65 7.25 17.15 -0.85 17.15 Q-0.5 16.8 -0.5 16.05 L-1.0 15.05 Q-1.1 9.35 -1.35 6.6 L-1.45 7.85 Q-1.8 11.05 -2.3 11.6 -2.35 12.3 -2.55 12.75 -2.65 12.65 -2.7 12.65 -3.15 11.2 -3.3 8.95 -3.6 5.4 -4.15 3.9 L-4.3 3.9 -4.55 11.35 -4.8 11.1 -4.75 12.25 -4.95 13.8 -5.2 15.45 -5.4 16.65 -5.35 17.15 M-3.0 17.15 L-4.65 17.15 -4.65 17.0 -4.65 16.55 -3.0 17.15 M2.25 -31.9 L2.7 -31.45 Q2.45 -32.15 1.95 -32.15 L2.25 -31.9 M-0.25 11.45 L-0.25 11.6 -0.05 11.7 0.15 11.6 Q0.0 11.45 -0.25 11.45" fill="#583a30" fill-rule="evenodd" stroke="none"/>
      <path d="M-0.85 17.15 Q-1.15 17.45 -1.75 17.45 L-3.0 17.15 -4.65 16.55 -4.65 17.0 -4.65 17.15 -5.0 17.45 -5.35 17.15 -5.4 16.65 -5.2 15.45 -4.95 13.8 -4.75 12.25 -4.8 11.1 -4.55 11.35 -4.3 3.9 -4.15 3.9 Q-3.6 5.4 -3.3 8.95 -3.15 11.2 -2.7 12.65 -2.65 12.65 -2.55 12.75 -2.35 12.3 -2.3 11.6 -1.8 11.05 -1.45 7.85 L-1.35 6.6 Q-1.1 9.35 -1.0 15.05 L-0.5 16.05 Q-0.5 16.8 -0.85 17.15 M2.25 -31.9 L1.95 -32.15 Q2.45 -32.15 2.7 -31.45 L2.25 -31.9 M-0.25 11.45 Q0.0 11.45 0.15 11.6 L-0.05 11.7 -0.25 11.6 -0.25 11.45" fill="#4e332a" fill-rule="evenodd" stroke="none"/>
    </g>
    <g id="sprite5" transform="matrix(1.0, 0.0, 0.0, 1.0, 9.65, 9.2)">
      <use ffdec:characterId="1843" height="18.45" transform="matrix(1.0, 0.0, 0.0, 1.0, -8.3, -9.2)" width="16.6" xlink:href="#shape3"/>
    </g>
    <g id="shape3" transform="matrix(1.0, 0.0, 0.0, 1.0, 8.3, 9.2)">
      <path d="M-0.8 -9.2 L6.65 -9.2 7.05 -6.2 7.55 -4.5 Q8.55 -1.25 8.2 0.4 L8.1 1.05 Q7.8 3.75 7.3 5.05 L6.55 6.2 5.75 6.9 5.45 7.05 3.75 7.95 Q2.65 8.15 1.7 8.85 0.75 9.45 -0.25 9.15 L-0.45 9.1 Q-1.4 8.85 -1.7 8.0 -1.45 8.35 -0.7 8.35 L-0.45 8.35 -0.15 8.15 -0.1 8.15 -0.45 8.0 Q-1.0 7.55 -1.0 6.1 -1.0 5.8 -0.45 5.45 L-0.35 5.4 0.25 5.15 0.4 5.1 1.15 5.9 1.25 6.2 1.65 7.2 1.8 7.15 2.45 6.55 2.95 6.05 3.4 5.6 4.55 4.55 4.1 3.6 Q3.6 2.95 3.8 1.0 L2.7 0.4 1.45 1.7 0.55 2.85 0.05 4.0 -0.25 4.55 -0.45 4.85 -1.05 5.05 -1.7 5.0 -2.35 4.75 -3.55 3.95 Q-4.55 3.35 -4.65 2.45 -4.75 1.6 -3.2 2.25 L-2.85 2.25 -3.05 1.4 Q-2.7 1.3 -2.7 0.1 -2.7 -1.6 -2.2 -2.7 L-1.5 -3.8 -1.45 -4.5 -1.7 -5.35 -3.4 -6.4 -4.0 -6.55 -3.95 -6.85 -4.25 -7.8 -4.55 -8.55 -4.35 -8.85 -2.25 -8.35 -0.4 -8.05 Q-0.05 -8.05 -0.8 -9.2 M-7.4 -1.1 L-7.35 -1.45 Q-7.3 -2.25 -7.4 -3.05 L-7.45 -4.2 Q-7.75 -6.45 -6.85 -8.3 L-6.85 -9.2 -5.75 -9.2 -5.8 -8.15 -5.6 -6.25 -6.0 -6.0 Q-6.45 -5.65 -6.3 -4.35 -6.55 -2.35 -7.15 -1.55 L-7.3 -1.25 -7.4 -1.1" fill="#583a30" fill-rule="evenodd" stroke="none"/>
      <path d="M-1.7 8.0 L-2.95 7.75 -3.6 7.45 -3.8 7.35 -4.45 6.5 Q-5.05 5.3 -5.4 5.3 L-6.0 5.05 Q-7.4 4.3 -6.6 2.6 -8.75 1.9 -8.2 0.0 L-7.6 -0.8 -7.4 -1.1 -7.3 -1.25 -7.15 -1.55 Q-6.55 -2.35 -6.3 -4.35 -6.45 -5.65 -6.0 -6.0 L-5.6 -6.25 -5.8 -8.15 -5.75 -9.2 -0.8 -9.2 Q-0.05 -8.05 -0.4 -8.05 L-2.25 -8.35 -4.35 -8.85 -4.55 -8.55 -4.25 -7.8 -3.95 -6.85 -4.0 -6.55 -3.4 -6.4 -1.7 -5.35 -1.45 -4.5 -1.5 -3.8 -2.2 -2.7 Q-2.7 -1.6 -2.7 0.1 -2.7 1.3 -3.05 1.4 L-2.85 2.25 -3.2 2.25 Q-4.75 1.6 -4.65 2.45 -4.55 3.35 -3.55 3.95 L-2.35 4.75 -2.75 5.65 -2.4 6.75 -2.35 6.75 -1.6 6.5 -1.4 5.8 -1.7 5.0 -1.05 5.05 -0.45 4.85 -0.25 4.55 0.05 4.0 0.55 2.85 1.05 3.3 2.45 3.05 2.2 2.15 1.7 1.8 1.45 1.7 2.7 0.4 3.8 1.0 Q3.6 2.95 4.1 3.6 L4.55 4.55 3.4 5.6 2.95 6.05 2.45 6.55 1.8 7.15 1.65 7.2 1.25 6.2 1.15 5.9 0.4 5.1 0.25 5.15 -0.35 5.4 -0.45 5.45 Q-1.0 5.8 -1.0 6.1 -1.0 7.55 -0.45 8.0 L-0.1 8.15 -0.15 8.15 -0.45 8.35 -0.7 8.35 Q-1.45 8.35 -1.7 8.0 M-5.4 5.3 L-5.65 3.35 -4.7 1.55 -3.6 1.15 Q-3.2 0.25 -3.05 -1.0 -2.75 -2.95 -3.35 -4.5 L-6.2 -1.25 -5.05 0.7 -5.6 1.85 -5.75 2.3 Q-6.2 3.85 -5.4 5.3 M-4.0 6.05 L-3.95 6.85 Q-3.35 6.15 -3.1 5.3 L-3.45 4.3 Q-4.1 4.7 -4.0 6.05" fill="#4e332a" fill-rule="evenodd" stroke="none"/>
      <path d="M-2.35 4.75 L-1.7 5.0 -1.4 5.8 -1.6 6.5 -2.35 6.75 -2.4 6.75 -2.75 5.65 -2.35 4.75 M0.55 2.85 L1.45 1.7 1.7 1.8 2.2 2.15 2.45 3.05 1.05 3.3 0.55 2.85 M-5.4 5.3 Q-6.2 3.85 -5.75 2.3 L-5.6 1.85 -5.05 0.7 -6.2 -1.25 -3.35 -4.5 Q-2.75 -2.95 -3.05 -1.0 -3.2 0.25 -3.6 1.15 L-4.7 1.55 -5.65 3.35 -5.4 5.3 M-4.0 6.05 Q-4.1 4.7 -3.45 4.3 L-3.1 5.3 Q-3.35 6.15 -3.95 6.85 L-4.0 6.05" fill="#462e26" fill-rule="evenodd" stroke="none"/>
    </g>
    <g id="sprite6" transform="matrix(1.0, 0.0, 0.0, 1.0, 30.3, 9.3)">
      <use ffdec:characterId="1854" ffdec:characterName="game_fla.upperleg2_542" height="90.25" id="upperLeg2" transform="matrix(1.0, 0.0, 0.0, 1.0, -30.3, -9.3)" width="56.75" xlink:href="#sprite7"/>
      <use ffdec:characterId="1861" height="73.85" id="lowerLegOuter2" transform="matrix(1.0, 0.0, 0.0, 1.0, -21.249, 55.0003)" width="47.2" xlink:href="#sprite8"/>
    </g>
    <g id="sprite7" transform="matrix(1.0, 0.0, 0.0, 1.0, 30.1, 45.75)">
      <use ffdec:characterId="1850" height="86.9" transform="matrix(1.0, 0.0, 0.0, 1.0, -28.4, -43.2)" width="55.05" xlink:href="#shape4"/>
      <use ffdec:characterId="1081" height="100.0" id="shape" transform="matrix(0.48, 0.0, 0.0, 0.8, -23.9983, -40.0009)" width="100.0" xlink:href="#sprite2"/>
    </g>
    <g id="shape4" transform="matrix(1.0, 0.0, 0.0, 1.0, 28.4, 43.2)">
      <path d="M-26.0 -33.45 L-26.0 -33.15 Q-26.35 -29.15 -25.75 -25.9 L-25.55 -24.95 Q-24.8 -19.3 -21.45 -12.05 L-20.45 -14.2 Q-19.8 -15.9 -19.5 -17.7 L-19.15 -19.5 -18.75 -16.65 -18.3 -16.45 -18.3 -15.95 -18.1 -10.95 -18.0 -9.3 -17.95 -9.3 Q-17.4 -1.55 -15.8 6.0 L-15.75 7.65 -16.5 12.65 -16.95 15.85 -17.85 16.75 Q-18.9 17.8 -18.9 19.85 L-18.55 21.25 -18.35 21.6 Q-18.1 23.25 -17.1 24.8 -16.05 26.5 -13.15 29.5 L-11.8 31.1 -10.6 33.1 Q-6.45 42.0 3.7 39.2 L5.3 38.75 Q8.85 37.7 9.3 37.05 L9.9 36.15 10.55 35.5 11.6 34.05 13.3 31.6 14.35 29.65 14.8 28.2 15.15 26.25 15.25 25.35 15.25 25.25 15.15 21.0 15.2 20.5 15.15 20.25 14.9 17.75 14.85 17.1 15.0 15.85 14.95 14.35 17.0 6.15 Q18.3 0.35 19.85 -10.25 L20.35 -14.15 Q19.85 -15.65 19.5 -21.1 L19.15 -25.9 19.1 -26.4 19.85 -31.9 19.7 -33.15 19.3 -35.15 19.1 -36.1 21.7 -33.15 21.95 -32.9 22.0 -32.8 23.4 -29.6 22.75 -30.55 23.15 -29.25 23.25 -28.65 23.55 -25.9 23.85 -22.85 Q24.8 -14.1 24.85 -10.25 L24.85 -10.05 Q24.85 -7.7 23.35 -0.45 22.65 2.9 22.3 5.85 L22.25 6.35 20.9 10.7 20.6 12.6 Q19.95 16.45 18.85 17.95 L18.75 18.6 17.1 27.35 17.05 27.55 17.1 30.0 Q17.2 32.15 15.8 34.6 14.4 37.05 12.55 38.3 L9.15 40.4 Q7.55 41.3 5.05 41.9 L-1.25 41.65 -2.2 41.4 -3.4 41.15 Q-8.25 39.7 -11.8 35.8 L-14.65 32.0 -17.95 26.8 -18.6 24.75 -19.35 22.2 -19.75 20.65 Q-20.4 17.7 -19.35 14.95 L-19.1 14.1 -19.35 11.3 -19.4 10.6 Q-20.15 3.15 -21.4 -4.25 L-22.8 -8.5 -23.4 -10.25 Q-26.55 -19.5 -26.65 -24.65 -27.4 -22.5 -27.55 -19.5 L-28.4 -27.6 Q-28.35 -29.45 -27.6 -30.95 L-27.15 -31.75 -26.0 -33.45" fill="#2e5c8a" fill-rule="evenodd" stroke="none"/>
      <path d="M-27.55 -19.5 Q-27.4 -22.5 -26.65 -24.65 -26.55 -19.5 -23.4 -10.25 L-22.8 -8.5 -21.4 -4.25 Q-20.15 3.15 -19.4 10.6 L-19.35 11.3 -19.1 14.1 -19.35 14.95 Q-20.4 17.7 -19.75 20.65 L-19.35 22.2 -18.6 24.75 -17.95 26.8 -14.65 32.0 -11.8 35.8 Q-8.25 39.7 -3.4 41.15 L-2.2 41.4 -1.25 41.65 5.05 41.9 Q7.55 41.3 9.15 40.4 L12.55 38.3 Q14.4 37.05 15.8 34.6 17.2 32.15 17.1 30.0 L17.05 27.55 17.1 27.35 18.75 18.6 18.85 17.95 Q19.95 16.45 20.6 12.6 L20.9 10.7 22.25 6.35 22.3 5.85 Q22.65 2.9 23.35 -0.45 24.85 -7.7 24.85 -10.05 L24.85 -10.25 Q24.8 -14.1 23.85 -22.85 L23.55 -25.9 23.25 -28.65 23.15 -29.25 22.75 -30.55 23.4 -29.6 Q24.65 -27.6 25.05 -25.25 L25.05 -25.1 Q26.25 -21.35 26.4 -18.7 L26.6 -7.6 Q24.85 3.7 22.85 10.85 L22.0 14.0 20.65 18.6 19.3 23.5 19.0 27.35 Q18.95 29.5 17.05 33.55 15.1 37.65 12.05 40.4 9.0 43.15 2.7 43.7 -3.2 43.55 -6.1 42.4 L-8.25 41.4 -11.8 39.15 -12.1 38.9 Q-15.25 36.5 -16.6 32.6 L-17.3 29.95 -17.9 28.75 -19.3 25.1 -19.65 23.85 Q-21.95 18.35 -21.35 12.5 L-21.15 10.6 -21.15 10.1 Q-21.15 8.65 -24.15 -2.45 L-26.35 -10.25 -27.0 -12.4 -27.55 -19.5" fill="#4a76a2" fill-rule="evenodd" stroke="none"/>
      <path d="M21.95 -32.9 L21.7 -33.15 19.1 -36.1 19.3 -35.15 19.7 -33.15 19.85 -31.9 19.1 -26.4 19.15 -25.9 19.5 -21.1 Q19.85 -15.65 20.35 -14.15 L19.85 -10.25 Q18.3 0.35 17.0 6.15 L14.95 14.35 15.0 15.85 14.85 17.1 14.9 17.75 15.15 20.25 15.2 20.5 15.15 21.0 15.25 25.25 15.25 25.35 15.15 26.25 14.8 28.2 14.35 29.65 13.3 31.6 11.6 34.05 10.55 35.5 9.9 36.15 9.3 37.05 Q8.85 37.7 5.3 38.75 L3.7 39.2 Q-6.45 42.0 -10.6 33.1 L-11.8 31.1 -13.15 29.5 Q-16.05 26.5 -17.1 24.8 -18.1 23.25 -18.35 21.6 L-18.55 21.25 -18.9 19.85 Q-18.9 17.8 -17.85 16.75 L-16.95 15.85 -16.5 12.65 -15.75 7.65 -15.8 6.0 Q-17.4 -1.55 -17.95 -9.3 L-18.0 -9.3 -18.1 -10.95 -18.3 -15.95 -18.3 -16.45 -18.75 -16.65 -19.15 -19.5 -19.5 -17.7 Q-19.8 -15.9 -20.45 -14.2 L-21.45 -12.05 Q-24.8 -19.3 -25.55 -24.95 L-25.75 -25.9 Q-26.35 -29.15 -26.0 -33.15 L-26.0 -33.45 Q-23.8 -36.5 -20.6 -39.2 L-19.3 -40.1 -17.95 -40.65 -17.35 -40.85 -13.1 -41.8 -5.6 -42.95 -2.05 -43.2 -1.95 -43.2 0.75 -42.9 7.1 -42.0 13.15 -39.55 Q17.85 -37.5 19.2 -36.35 L19.35 -36.2 21.95 -32.9 M0.9 5.6 L-0.15 0.0 -0.65 -3.4 -0.5 -1.55 Q-0.05 3.35 0.1 8.25 L-0.15 13.1 Q-0.45 15.4 -0.3 17.75 L-0.3 18.0 Q1.1 15.15 0.9 14.25 L0.55 12.65 Q0.1 9.3 0.9 5.85 L0.9 5.6 M-0.75 -5.35 Q-0.5 -9.1 -1.4 -12.75 L-1.35 -11.45 -0.75 -4.3 -0.75 -5.35" fill="#29537e" fill-rule="evenodd" stroke="none"/>
      <path d="M-0.75 -5.35 L-0.75 -4.3 -1.35 -11.45 -1.4 -12.75 Q-0.5 -9.1 -0.75 -5.35 M0.9 5.6 L0.9 5.85 Q0.1 9.3 0.55 12.65 L0.9 14.25 Q1.1 15.15 -0.3 18.0 L-0.3 17.75 Q-0.45 15.4 -0.15 13.1 L0.1 8.25 Q-0.05 3.35 -0.5 -1.55 L-0.65 -3.4 -0.15 0.0 0.9 5.6" fill="#254b71" fill-rule="evenodd" stroke="none"/>
    </g>
    <g id="sprite8" transform="matrix(1.0, 0.0, 0.0, 1.0, 21.65, 6.6)">
      <use ffdec:characterId="1860" ffdec:characterName="game_fla.lowerleg2_544" height="73.85" id="lowerLeg2" transform="matrix(1.0, 0.0, 0.0, 1.0, -21.65, -6.6)" width="47.2" xlink:href="#sprite9"/>
    </g>
    <g id="sprite9" transform="matrix(1.0, 0.0, 0.0, 1.0, 19.75, 38.15)">
      <use ffdec:characterId="1855" height="22.25" transform="matrix(1.0, 0.0, 0.0, 1.0, -17.55, 13.45)" width="45.0" xlink:href="#shape5"/>
      <use ffdec:characterId="1856" height="58.15" transform="matrix(1.0, 0.0, 0.0, 1.0, -19.05, -37.25)" width="40.3" xlink:href="#shape6"/>
      <use ffdec:characterId="1081" height="100.0" id="shape" transform="matrix(0.33, 0.0, 0.0, 0.7001, -16.5001, -35.0029)" width="100.0" xlink:href="#sprite2"/>
    </g>
    <g id="shape5" transform="matrix(1.0, 0.0, 0.0, 1.0, 17.55, -13.45)">
      <path d="M6.9 15.2 L7.05 15.4 7.75 16.1 4.85 17.9 4.25 18.35 Q2.65 19.5 2.1 20.7 L2.0 21.0 1.05 20.45 Q1.05 19.75 1.2 19.55 L1.4 19.3 1.7 18.65 2.85 17.75 3.1 17.65 3.2 17.6 6.9 15.2 M8.65 16.9 L9.15 17.3 9.65 17.75 8.8 18.6 Q7.9 19.05 7.1 19.7 5.5 20.85 4.95 22.05 L4.9 22.2 3.6 21.75 3.75 21.45 Q4.4 20.3 6.1 19.0 L7.4 17.95 8.65 16.9 M11.0 19.0 L11.7 19.95 11.9 20.05 11.8 20.1 10.1 21.2 Q8.5 22.35 7.95 23.55 L6.55 22.9 6.6 22.8 Q7.25 21.65 8.95 20.35 L10.35 19.35 11.0 19.0 M13.35 20.85 L14.6 21.5 15.1 21.75 13.4 22.85 Q11.8 24.0 11.25 25.2 L9.8 24.45 9.6 24.35 9.6 24.3 Q10.25 23.15 11.95 21.85 12.7 21.25 13.35 20.85 M16.65 22.5 L17.5 22.9 18.85 23.5 Q17.4 23.65 14.65 26.35 L14.25 26.25 12.9 25.95 13.1 26.05 12.9 25.95 Q13.55 24.8 15.25 23.5 L16.65 22.5 M-17.55 30.4 L-17.5 28.6 -17.55 27.5 -17.55 27.2 -15.8 19.65 -15.55 17.95 Q-15.4 16.5 -14.95 15.85 -14.0 14.55 -11.55 13.95 L-7.7 14.1 Q-6.45 14.75 -6.45 20.1 -6.45 22.45 -8.1 23.0 L-12.45 23.45 Q-14.3 23.65 -15.1 25.65 -15.85 27.55 -15.5 30.8 L-17.55 30.4 M-6.5 32.1 Q-3.15 23.1 0.0 23.1 1.3 23.1 5.35 24.9 L10.05 27.15 Q9.3 28.0 9.15 29.55 L9.05 32.45 Q5.3 32.25 1.65 32.35 L-6.5 32.1" fill="#af5745" fill-rule="evenodd" stroke="none"/>
      <path d="M-0.45 14.5 L6.25 13.9 Q6.35 14.55 6.9 15.2 L3.2 17.6 3.1 17.65 2.85 17.75 1.7 18.65 1.4 19.3 Q0.7 15.4 -0.45 14.5" fill="#cbbfaf" fill-rule="evenodd" stroke="none"/>
      <path d="M7.75 16.1 L7.85 16.2 8.05 16.35 8.65 16.9 7.4 17.95 6.1 19.0 Q4.4 20.3 3.75 21.45 L3.6 21.75 4.9 22.2 4.95 22.05 Q5.5 20.85 7.1 19.7 7.9 19.05 8.8 18.6 L9.65 17.75 9.75 17.85 10.9 18.9 11.0 19.0 10.35 19.35 8.95 20.35 Q7.25 21.65 6.6 22.8 L6.55 22.9 7.95 23.55 Q8.5 22.35 10.1 21.2 L11.8 20.1 11.9 20.05 13.35 20.85 Q12.7 21.25 11.95 21.85 10.25 23.15 9.6 24.3 L9.6 24.35 9.8 24.45 11.25 25.2 Q11.8 24.0 13.4 22.85 L15.1 21.75 16.65 22.5 15.25 23.5 Q13.55 24.8 12.9 25.95 L13.1 26.05 12.9 25.95 14.25 26.25 13.45 27.3 Q12.45 28.45 12.45 29.15 12.45 29.75 12.75 30.0 L13.45 30.15 Q13.9 30.15 16.55 29.05 19.2 27.95 19.7 27.9 L23.35 27.3 Q25.0 26.8 25.4 26.05 L26.45 27.55 26.95 28.85 27.15 29.35 27.15 29.7 24.15 31.05 Q18.1 33.5 11.45 32.6 L9.05 32.45 9.15 29.55 Q9.3 28.0 10.05 27.15 L5.35 24.9 Q1.3 23.1 0.0 23.1 -3.15 23.1 -6.5 32.1 L-12.75 31.4 -15.5 30.8 Q-15.85 27.55 -15.1 25.65 -14.3 23.65 -12.45 23.45 L-8.1 23.0 Q-6.45 22.45 -6.45 20.1 -6.45 14.75 -7.7 14.1 L-11.55 13.95 -7.95 13.5 Q-2.65 13.3 -1.0 14.15 L-0.45 14.5 Q0.7 15.4 1.4 19.3 L1.2 19.55 Q1.05 19.75 1.05 20.45 L2.0 21.0 2.1 20.7 Q2.65 19.5 4.25 18.35 L4.85 17.9 7.75 16.1" fill="#b4b4b4" fill-rule="evenodd" stroke="none"/>
      <path d="M18.85 23.5 L20.9 24.35 23.8 25.4 Q24.2 25.35 25.05 25.8 L25.4 26.05 Q25.0 26.8 23.35 27.3 L19.7 27.9 Q19.2 27.95 16.55 29.05 13.9 30.15 13.45 30.15 L12.75 30.0 Q12.45 29.75 12.45 29.15 12.45 28.45 13.45 27.3 L14.25 26.25 14.65 26.35 Q17.4 23.65 18.85 23.5" fill="#cbcbcb" fill-rule="evenodd" stroke="none"/>
      <path d="M27.15 29.7 L27.25 30.1 Q25.15 31.4 22.2 32.3 19.2 33.15 16.05 33.3 L0.35 33.15 Q-12.2 32.85 -17.45 31.65 L-17.55 30.4 -15.5 30.8 -12.75 31.4 -6.5 32.1 1.65 32.35 Q5.3 32.25 9.05 32.45 L11.45 32.6 Q18.1 33.5 24.15 31.05 L27.15 29.7" fill="#666666" fill-rule="evenodd" stroke="none"/>
      <path d="M27.25 30.1 L27.45 30.95 27.45 32.1 Q21.5 36.0 14.2 35.7 L-0.1 35.3 -12.8 35.1 Q-17.4 35.0 -17.45 31.65 -12.2 32.85 0.35 33.15 L16.05 33.3 Q19.2 33.15 22.2 32.3 25.15 31.4 27.25 30.1" fill="#e5e5e5" fill-rule="evenodd" stroke="none"/>
    </g>
    <g id="shape6" transform="matrix(1.0, 0.0, 0.0, 1.0, 19.05, 37.25)">
      <path d="M-15.25 -33.55 L-15.05 -32.8 -15.0 -32.55 -15.0 -32.4 -14.95 -32.1 -14.7 -31.3 -12.4 -28.95 -12.4 -28.8 -12.4 -28.65 -12.5 -26.9 -12.65 -25.15 Q-12.75 -24.2 -13.55 -24.0 -12.45 -18.3 -12.75 -12.55 L-9.6 -17.2 -9.25 -17.25 Q-9.5 -15.6 -10.2 -13.85 -13.9 -5.1 -14.05 4.3 L-10.35 -1.5 -9.8 -2.6 -6.9 -10.15 Q-6.55 -9.4 -6.65 -8.8 L-6.9 -7.5 Q-8.2 -2.7 -10.4 1.85 L-11.55 4.9 Q-12.1 6.9 -12.95 8.9 -13.85 11.0 -13.8 13.0 L-13.8 13.15 -13.4 18.3 -12.4 19.15 -12.75 20.15 -14.65 20.1 -15.75 20.15 Q-16.85 17.4 -16.5 14.6 L-16.25 13.15 -16.75 5.75 Q-16.75 0.65 -15.6 -6.45 -14.5 -13.6 -14.5 -20.5 L-14.9 -22.5 -15.3 -24.4 -15.2 -25.9 -15.25 -25.9 Q-16.35 -25.9 -16.55 -27.4 L-16.5 -28.8 -16.5 -29.0 -16.45 -31.4 -15.85 -32.8 -15.25 -33.55 M11.5 20.9 Q12.65 19.85 11.95 18.1 L10.95 15.2 10.25 13.45 Q9.95 7.05 10.55 5.9 11.1 4.75 13.6 8.65 L13.7 7.5 13.1 5.5 12.85 4.25 Q11.55 1.9 11.35 1.05 11.25 0.55 12.25 -2.05 13.25 -4.7 13.5 -8.2 13.7 -11.75 14.15 -13.2 L10.45 -5.75 Q7.85 -0.85 4.75 1.25 L4.75 1.0 Q7.35 -0.8 9.5 -6.35 L12.75 -15.75 14.75 -20.4 Q16.1 -23.7 16.0 -25.5 15.85 -27.4 16.15 -30.55 L16.45 -34.0 18.0 -34.4 18.0 -31.6 18.4 -31.35 18.6 -30.55 19.15 -26.9 19.7 -19.8 19.1 -16.9 17.15 -13.1 Q16.2 -11.4 15.6 -9.5 14.65 -6.65 14.55 -3.25 L14.5 -2.8 14.6 -2.0 15.0 0.05 15.75 2.75 15.95 6.45 15.95 8.2 15.15 10.3 15.2 10.2 Q13.6 13.2 13.55 14.65 L14.0 16.15 Q14.7 18.65 13.2 20.85 L11.5 20.9 M14.15 -13.2 L14.25 -13.5 14.25 -13.75 14.15 -13.2" fill="#2e5c8a" fill-rule="evenodd" stroke="none"/>
      <path d="M-15.25 -33.55 L-15.85 -32.8 -16.45 -31.4 -16.5 -29.0 -16.5 -28.8 -16.55 -27.4 Q-16.35 -25.9 -15.25 -25.9 L-15.2 -25.9 -15.3 -24.4 -14.9 -22.5 -14.5 -20.5 Q-14.5 -13.6 -15.6 -6.45 -16.75 0.65 -16.75 5.75 L-16.25 13.15 -16.5 14.6 Q-16.85 17.4 -15.75 20.15 L-17.95 19.95 -19.0 13.15 -19.05 11.25 -17.65 2.3 Q-16.25 -7.1 -16.25 -15.25 -16.25 -17.7 -17.8 -26.95 L-17.7 -28.8 Q-17.5 -31.65 -16.45 -32.8 L-15.35 -33.75 -15.25 -33.55 M18.0 -34.4 Q18.7 -34.9 19.1 -35.75 19.3 -36.2 19.75 -36.0 20.85 -35.65 21.15 -31.8 L21.25 -27.5 19.7 -19.8 19.15 -26.9 18.6 -30.55 18.4 -31.35 18.0 -31.6 18.0 -34.4 M19.1 -16.9 L18.35 -13.05 Q16.25 -8.7 16.25 -4.4 L16.1 -2.45 Q15.95 0.35 16.3 2.95 16.4 4.0 16.65 4.9 L16.75 5.35 16.5 8.2 16.3 10.45 Q16.05 13.2 16.15 14.65 15.4 15.65 15.6 18.35 15.75 21.0 13.2 20.85 14.7 18.65 14.0 16.15 L13.55 14.65 Q13.6 13.2 15.2 10.2 L15.15 10.3 15.95 8.2 15.95 6.45 15.75 2.75 15.0 0.05 14.6 -2.0 14.5 -2.8 14.55 -3.25 Q14.65 -6.65 15.6 -9.5 16.2 -11.4 17.15 -13.1 L19.1 -16.9" fill="#4a76a2" fill-rule="evenodd" stroke="none"/>
      <path d="M-12.75 20.15 L-12.4 19.15 -13.4 18.3 -13.8 13.15 -13.8 13.0 Q-13.85 11.0 -12.95 8.9 -12.1 6.9 -11.55 4.9 L-10.4 1.85 Q-8.2 -2.7 -6.9 -7.5 L-6.65 -8.8 Q-6.55 -9.4 -6.9 -10.15 L-9.8 -2.6 -10.35 -1.5 -14.05 4.3 Q-13.9 -5.1 -10.2 -13.85 -9.5 -15.6 -9.25 -17.25 L-9.6 -17.2 -12.75 -12.55 Q-12.45 -18.3 -13.55 -24.0 -12.75 -24.2 -12.65 -25.15 L-12.5 -26.9 -12.4 -28.65 -12.4 -28.8 -12.4 -28.95 -14.7 -31.3 -14.95 -32.1 -15.0 -32.4 -15.0 -32.55 -15.05 -32.8 -15.25 -33.55 -15.35 -33.75 Q-11.6 -35.8 -7.45 -36.35 L-2.5 -37.0 4.75 -37.25 5.25 -37.2 9.9 -36.0 15.05 -34.2 16.45 -34.0 16.15 -30.55 Q15.85 -27.4 16.0 -25.5 16.1 -23.7 14.75 -20.4 L12.75 -15.75 9.5 -6.35 Q7.35 -0.8 4.75 1.0 L4.75 1.25 Q7.85 -0.85 10.45 -5.75 L14.15 -13.2 Q13.7 -11.75 13.5 -8.2 13.25 -4.7 12.25 -2.05 11.25 0.55 11.35 1.05 11.55 1.9 12.85 4.25 L13.1 5.5 13.7 7.5 13.6 8.65 Q11.1 4.75 10.55 5.9 9.95 7.05 10.25 13.45 L10.95 15.2 11.95 18.1 Q12.65 19.85 11.5 20.9 3.0 18.25 -12.75 20.15 M-0.1 -3.45 Q0.5 0.95 -0.05 5.55 L-0.7 13.8 -0.75 16.35 -0.75 16.45 0.55 11.8 1.2 8.0 1.4 5.3 1.35 3.6 0.75 -5.6 0.35 -6.15 0.25 -7.1 0.55 -7.85 0.45 -8.7 Q0.35 -9.7 0.55 -10.75 L0.8 -12.3 1.15 -15.15 1.2 -17.3 1.0 -18.0 -0.75 -12.5 Q-0.7 -7.95 -0.1 -3.45 M14.15 -13.2 L14.25 -13.75 14.25 -13.5 14.15 -13.2" fill="#29537e" fill-rule="evenodd" stroke="none"/>
      <path d="M-0.1 -3.45 Q-0.7 -7.95 -0.75 -12.5 L1.0 -18.0 1.2 -17.3 1.15 -15.15 0.8 -12.3 0.55 -10.75 Q0.35 -9.7 0.45 -8.7 L0.55 -7.85 0.25 -7.1 0.35 -6.15 0.75 -5.6 1.35 3.6 1.4 5.3 1.2 8.0 0.55 11.8 -0.75 16.45 -0.75 16.35 -0.7 13.8 -0.05 5.55 Q0.5 0.95 -0.1 -3.45" fill="#254b71" fill-rule="evenodd" stroke="none"/>
    </g>
    <g id="sprite10" transform="matrix(1.0, 0.0, 0.0, 1.0, 18.55, 74.7)">
      <use ffdec:characterId="1875" ffdec:characterName="game_fla.head_546" height="89.15" id="head" transform="matrix(1.0, 0.0, 0.0, 1.0, -18.55, -74.7)" width="54.0" xlink:href="#sprite11"/>
    </g>
    <g id="sprite11" transform="matrix(1.0, 0.0, 0.0, 1.0, 32.05, 40.4)">
      <use ffdec:characterId="1863" height="39.75" transform="matrix(1.0, 0.0, 0.0, 1.0, -32.05, 9.0)" width="42.15" xlink:href="#shape7"/>
      <use ffdec:characterId="1865" height="39.25" transform="matrix(1.0, 0.0, 0.0, 1.0, -17.15, -18.0)" width="33.6" xlink:href="#sprite12"/>
      <use ffdec:characterId="1111" height="100.0" id="shape" transform="matrix(0.35, 0.0, 0.0, 0.35, -17.5011, -17.5011)" width="100.0" xlink:href="#sprite13"/>
    </g>
    <g id="shape7" transform="matrix(1.0, 0.0, 0.0, 1.0, 32.05, -9.0)">
      <path d="M4.2 17.85 Q4.6 19.1 6.05 21.15 L7.15 22.95 8.6 25.8 Q9.55 27.8 9.7 30.2 L9.95 31.75 10.1 35.3 Q10.1 37.6 7.95 39.95 6.15 41.85 4.9 42.2 -0.8 48.75 -12.85 48.75 -17.3 48.75 -20.4 46.45 L-21.55 45.15 Q-24.25 41.95 -26.2 38.5 L-26.3 38.35 -27.0 37.2 -27.15 36.95 -30.05 32.9 Q-31.8 30.65 -32.0 27.5 -32.25 24.3 -31.25 22.45 -30.25 20.55 -29.15 19.25 -28.05 17.9 -26.6 16.9 -25.15 15.85 -23.6 15.1 L-21.3 14.0 -18.9 12.55 Q-15.15 8.5 -10.1 9.1 -5.5 9.95 -1.4 12.05 1.2 13.35 3.25 15.35 4.2 16.35 4.2 17.85" fill="#583a30" fill-rule="evenodd" stroke="none"/>
    </g>
    <g id="sprite12" transform="matrix(1.0, 0.0, 0.0, 1.0, 16.8, 18.7)">
      <use ffdec:characterId="1864" height="39.25" transform="matrix(1.0, 0.0, 0.0, 1.0, -16.8, -18.7)" width="33.6" xlink:href="#shape8"/>
    </g>
    <g id="shape8" transform="matrix(1.0, 0.0, 0.0, 1.0, 16.8, 18.7)">
      <path d="M11.3 -0.95 Q11.4 -0.4 10.95 -0.75 L10.35 -1.4 9.0 -1.25 9.05 -1.3 9.2 -1.55 9.55 -1.65 11.05 -2.35 11.9 -2.75 12.1 -2.4 11.8 -1.9 11.3 -0.95" fill="#000000" fill-rule="evenodd" stroke="none"/>
      <path d="M-13.6 -12.55 L-11.8 -14.9 Q-10.5 -16.3 -8.8 -17.15 L-6.8 -17.9 -3.5 -18.7 0.4 -18.7 Q4.0 -18.75 6.9 -17.65 9.8 -16.55 11.35 -15.55 L13.75 -13.15 14.55 -10.9 14.6 -10.1 14.7 -8.65 12.25 -8.95 13.85 -8.35 14.2 -8.15 14.7 -8.2 14.6 -6.15 11.1 -6.4 14.1 -5.7 14.55 -5.65 14.5 -5.35 14.55 -4.25 14.5 -3.95 Q14.0 -3.2 14.0 -2.4 L14.2 -1.45 15.0 -0.25 15.7 1.0 16.35 1.85 16.6 2.3 Q16.85 2.75 16.75 3.45 L16.0 4.05 15.5 4.05 14.5 3.75 13.05 3.7 12.3 3.95 Q11.8 3.85 11.95 3.25 L12.15 2.55 Q11.2 2.35 11.15 3.95 L11.2 4.15 11.3 5.1 11.55 5.6 12.15 6.25 12.5 5.55 13.1 5.7 13.15 5.7 13.8 6.25 14.6 6.55 14.7 6.25 14.7 6.3 Q15.1 6.6 15.35 7.35 L14.7 7.35 Q14.45 7.35 13.75 7.8 L13.15 8.25 12.9 8.35 12.65 8.45 12.5 8.35 12.15 8.1 11.85 8.9 11.65 9.8 12.0 9.55 12.5 9.2 12.55 9.2 12.55 9.15 13.15 8.65 13.5 8.5 13.8 8.45 13.85 8.4 14.8 8.2 14.7 8.35 15.0 8.45 15.35 8.8 15.5 9.35 15.5 9.75 15.2 10.05 12.9 9.5 13.95 11.25 14.05 12.4 14.1 13.35 13.8 14.25 13.35 15.3 13.25 15.4 Q13.65 14.85 12.95 15.1 L12.1 15.3 10.75 15.75 12.3 16.35 Q12.0 16.65 11.85 17.05 L11.6 17.55 10.8 18.55 9.45 19.45 8.0 20.0 5.3 20.5 2.4 20.35 Q1.1 20.1 -5.9 15.65 L-7.05 15.25 -8.65 14.7 Q-12.8 12.75 -15.9 10.7 L-15.95 10.5 -16.3 10.1 -16.3 9.95 -16.4 9.75 -16.8 8.15 -16.5 6.4 -16.5 6.3 Q-15.95 3.3 -14.95 3.2 L-14.9 2.95 -14.6 3.4 -12.4 3.75 Q-11.7 4.75 -10.2 4.55 -9.35 4.7 -8.55 5.0 L-7.6 5.25 -7.45 5.2 Q-7.1 5.25 -6.9 5.5 L-6.75 5.5 -6.65 4.25 -6.6 3.85 -6.55 3.7 Q-6.35 4.3 -6.3 4.85 L-6.05 6.8 -6.15 8.65 -6.2 8.95 -11.1 9.8 -7.2 10.0 -5.6 10.7 -4.85 10.9 -3.7 11.75 -2.1 12.9 -2.0 13.05 Q-2.2 12.3 -2.65 11.9 L-3.25 11.35 -3.65 10.75 -4.1 9.9 -4.05 9.05 -4.8 7.25 -4.55 6.3 -4.2 5.75 -3.95 5.35 -3.9 5.2 Q-3.45 5.05 -3.15 4.75 L-3.2 4.35 -3.2 4.3 -3.45 4.25 -3.2 4.35 -3.8 4.45 -4.35 4.5 -5.1 4.25 Q-5.6 3.5 -5.65 2.55 -5.7 2.05 -6.05 1.8 L-6.95 0.85 -7.4 0.35 -7.85 -1.45 -7.85 -2.6 -7.25 -3.9 -7.1 -4.05 -6.5 -4.3 -5.6 -4.55 -4.35 -4.25 -3.3 -3.6 -2.1 -2.35 -1.95 0.15 -1.75 1.15 0.7 1.2 Q1.1 0.15 0.9 -1.3 L0.65 -2.7 0.35 -4.7 0.25 -5.5 Q0.7 -5.8 0.5 -6.2 L0.35 -6.5 0.45 -7.55 0.85 -8.05 1.1 -9.75 0.05 -11.0 -0.95 -11.8 -2.25 -12.45 -3.6 -13.0 -5.3 -13.15 -6.45 -13.15 -8.1 -12.85 -8.6 -12.9 -9.25 -12.7 -13.6 -12.55 M0.95 -11.95 Q1.2 -11.35 1.6 -10.8 2.3 -9.8 2.6 -10.7 2.55 -11.55 1.7 -11.95 1.2 -12.2 0.95 -11.95 M8.8 -12.7 L8.45 -12.55 8.3 -12.2 8.45 -11.85 8.8 -11.7 9.15 -11.85 9.3 -12.2 9.15 -12.55 8.8 -12.7 M4.5 -9.0 L4.85 -4.05 4.85 -3.5 5.0 -3.45 Q5.5 -3.45 6.05 -3.85 6.2 -4.55 5.85 -5.3 L5.6 -5.95 5.15 -7.85 4.85 -8.45 4.5 -9.0 M6.15 -2.55 L5.4 -1.95 4.75 -1.55 5.05 -1.25 5.55 -0.95 5.55 -0.85 Q7.0 -0.1 7.85 0.85 L8.4 0.25 8.6 0.35 9.15 0.3 9.85 0.35 11.1 0.0 11.55 -0.3 11.8 -0.35 11.9 -0.4 Q12.2 -0.15 12.45 -0.15 12.9 -0.15 13.3 -1.0 L13.55 -1.85 13.6 -2.05 13.55 -2.2 13.75 -2.65 13.75 -2.75 13.6 -3.1 13.25 -3.55 13.4 -4.0 13.35 -4.15 Q12.65 -4.8 12.0 -4.85 L11.35 -4.9 10.45 -5.15 9.8 -4.7 9.0 -4.95 8.8 -4.9 8.5 -4.7 8.4 -4.55 7.3 -4.35 6.7 -4.15 6.55 -3.95 6.5 -3.75 5.85 -3.4 5.45 -3.25 5.45 -3.05 6.45 -3.0 6.15 -2.55 M10.95 12.35 L10.8 12.0 10.45 12.45 9.65 13.3 9.25 13.55 Q8.4 14.2 7.35 14.6 L3.45 15.4 2.25 15.05 0.8 15.1 0.95 15.2 1.75 15.5 2.15 15.9 4.5 16.15 8.65 16.55 9.4 15.75 10.05 15.6 9.85 14.8 10.7 13.95 10.7 13.8 10.95 12.35 M1.35 5.3 L-0.05 4.85 1.8 7.2 2.0 7.55 1.65 9.4 1.05 11.05 2.25 10.15 Q2.6 10.45 3.0 10.35 L3.6 10.65 Q4.2 10.35 4.65 9.2 L5.4 7.4 5.9 6.35 4.5 7.35 4.05 8.0 Q3.25 8.35 2.9 7.5 L2.0 6.05 1.35 5.3 M-1.8 -14.45 Q-1.1 -14.1 -1.3 -14.85 L-1.6 -14.95 Q-2.3 -14.7 -1.8 -14.45 M-7.25 -0.65 L-6.95 -1.5 Q-6.25 -2.15 -5.35 -2.25 L-5.0 -1.7 -4.75 -0.8 -5.25 0.2 -5.15 0.9 -4.6 1.5 -4.8 2.25 -4.1 2.55 -3.65 2.6 -3.5 2.3 Q-3.4 1.65 -3.8 0.9 L-4.15 0.85 -4.5 0.5 -3.9 -0.65 -3.35 -0.7 Q-3.45 -2.75 -5.25 -3.4 L-7.25 -2.7 Q-7.75 -1.65 -7.25 -0.65" fill="#583a30" fill-rule="evenodd" stroke="none"/>
      <path d="M-6.95 0.85 L-6.05 1.8 Q-5.7 2.05 -5.65 2.55 -5.6 3.5 -5.1 4.25 L-4.35 4.5 -3.8 4.45 -3.2 4.35 Q-3.2 4.75 -3.4 4.75 L-4.45 5.15 -4.65 5.5 -4.85 5.95 -5.15 7.55 -5.3 6.2 Q-5.35 5.3 -5.7 4.6 L-5.9 3.9 Q-5.95 3.05 -6.4 2.15 L-6.95 0.85 M12.3 16.35 L10.75 15.75 12.1 15.3 12.95 15.1 Q13.65 14.85 13.25 15.4 L12.3 16.35 M14.8 8.2 L13.85 8.4 13.8 8.45 13.5 8.5 13.15 8.65 12.55 9.15 12.55 9.2 12.5 9.2 12.65 8.45 12.9 8.35 13.15 8.25 13.75 7.8 Q14.45 7.35 14.7 7.35 L15.35 7.35 Q15.35 8.2 14.8 8.2 M14.7 6.25 L14.6 6.55 13.8 6.25 13.15 5.7 13.1 5.7 12.5 5.55 12.2 5.2 11.95 4.75 12.15 4.85 12.25 4.85 12.55 4.7 12.6 4.25 13.05 3.7 14.5 3.75 15.5 4.05 16.0 4.05 16.75 3.45 Q16.4 4.35 15.55 4.85 14.7 5.35 14.7 5.7 14.55 5.95 14.7 6.25 M8.8 -12.7 L9.15 -12.55 9.3 -12.2 9.15 -11.85 8.8 -11.7 8.45 -11.85 8.3 -12.2 8.45 -12.55 8.8 -12.7 M0.95 -11.95 Q1.2 -12.2 1.7 -11.95 2.55 -11.55 2.6 -10.7 2.3 -9.8 1.6 -10.8 1.2 -11.35 0.95 -11.95 M11.55 -0.3 L11.3 -0.95 11.8 -1.9 11.75 -1.1 11.8 -0.35 11.55 -0.3 M9.2 -1.55 L7.5 -2.15 6.15 -2.55 6.45 -3.0 7.85 -3.4 9.55 -3.65 11.4 -3.75 12.55 -3.55 Q12.85 -3.3 13.25 -3.55 L13.6 -3.1 13.75 -2.75 13.75 -2.65 13.55 -2.2 13.6 -2.05 13.55 -1.85 12.8 -1.25 12.1 -2.4 11.9 -2.75 11.7 -3.05 Q11.0 -2.85 10.2 -2.25 L9.55 -1.65 9.2 -1.55 M15.3 4.45 L15.3 4.4 13.7 3.85 13.4 4.05 13.15 4.25 12.9 4.75 14.3 5.1 Q15.15 5.3 15.3 4.45 M-1.8 -14.45 Q-2.3 -14.7 -1.6 -14.95 L-1.3 -14.85 Q-1.1 -14.1 -1.8 -14.45 M-7.25 -0.65 Q-7.75 -1.65 -7.25 -2.7 L-5.25 -3.4 Q-3.45 -2.75 -3.35 -0.7 L-3.9 -0.65 -4.5 0.5 -4.15 0.85 -3.8 0.9 Q-3.4 1.65 -3.5 2.3 L-3.65 2.6 -4.1 2.55 -4.8 2.25 -4.6 1.5 -5.15 0.9 -5.25 0.2 -4.75 -0.8 -5.0 -1.7 -5.35 -2.25 Q-6.25 -2.15 -6.95 -1.5 L-7.25 -0.65" fill="#34221c" fill-rule="evenodd" stroke="none"/>
      <path d="M-13.6 -12.55 L-9.25 -12.7 -9.45 -12.25 -9.35 -12.25 -11.85 -12.1 -11.85 -11.45 Q-12.5 -12.45 -13.4 -11.9 -13.45 -11.15 -12.7 -10.75 -12.25 -10.55 -12.05 -11.0 L-11.85 -11.35 Q-10.9 -11.1 -10.2 -11.55 L-9.75 -11.75 -8.1 -11.7 -7.95 -11.65 -7.6 -12.05 -7.2 -11.9 -5.75 -12.5 -6.3 -12.75 -6.85 -12.55 -7.2 -12.8 -8.1 -12.85 -6.45 -13.15 -5.3 -13.15 -3.6 -13.0 -2.25 -12.45 -0.95 -11.8 0.05 -11.0 1.1 -9.75 0.85 -8.05 0.45 -7.55 0.35 -6.5 -0.35 -9.1 -0.75 -9.15 Q-1.8 -9.1 -1.55 -8.25 L-1.45 -8.2 Q-0.1 -8.8 -0.45 -7.75 L-1.0 -7.45 -1.1 -7.4 -2.25 -7.65 Q-2.4 -7.25 -2.65 -7.55 -3.25 -8.35 -3.45 -7.65 L-3.75 -7.65 -3.7 -7.55 -4.15 -7.4 -4.65 -7.3 -4.75 -6.75 -5.45 -6.55 -4.25 -6.4 -3.65 -6.9 -3.4 -7.05 -1.8 -5.65 -1.85 -5.3 -2.4 -5.25 -3.65 -5.3 -4.1 -5.65 Q-3.85 -6.0 -4.35 -6.0 -7.1 -5.55 -6.6 -7.8 L-5.85 -7.15 -5.3 -7.05 Q-5.4 -8.35 -4.7 -8.1 L-3.8 -8.25 -3.8 -8.8 Q-3.85 -9.75 -4.25 -8.95 -4.75 -8.85 -4.8 -9.55 L-6.35 -9.3 -6.45 -8.8 -7.4 -8.65 -7.7 -9.35 -6.95 -9.2 Q-6.7 -9.2 -6.7 -9.5 L-7.3 -10.7 Q-7.8 -9.3 -7.65 -9.95 -8.25 -10.45 -8.95 -9.8 L-11.1 -9.75 -11.2 -9.15 -11.8 -8.55 -11.5 -7.9 -12.35 -8.2 -12.1 -9.15 -13.1 -9.75 -14.0 -9.35 -14.45 -8.5 -13.1 -8.5 -13.25 -8.1 -13.6 -7.85 -13.0 -7.35 -13.05 -6.9 -11.65 -7.0 -11.45 -7.5 -10.4 -7.4 -10.4 -6.35 -10.25 -6.2 Q-8.65 -6.6 -8.2 -5.45 -8.25 -5.3 -8.35 -5.4 L-10.65 -5.1 Q-10.75 -5.1 -10.85 -5.2 L-11.0 -5.3 -11.65 -4.15 -12.95 -4.3 -13.7 -3.65 -14.3 -3.65 -14.75 -3.35 -14.9 -4.3 -14.55 -4.65 -14.85 -4.7 -15.8 -5.55 -16.35 -6.15 -16.15 -6.95 -16.5 -7.8 -16.3 -8.2 -16.5 -8.75 -15.9 -9.85 -15.95 -10.0 -15.8 -10.5 -15.2 -10.65 -15.15 -10.75 -15.0 -11.6 -14.7 -11.95 Q-14.3 -12.5 -13.6 -12.55 M5.85 -3.4 L6.5 -3.75 6.55 -3.95 6.7 -4.15 7.3 -4.35 8.4 -4.55 8.5 -4.7 8.8 -4.9 9.0 -4.95 9.8 -4.7 10.45 -5.15 11.35 -4.9 12.0 -4.85 Q12.65 -4.8 13.35 -4.15 L12.25 -4.2 9.05 -4.05 7.75 -3.65 5.85 -3.4 M-4.7 -12.4 Q-4.8 -11.8 -4.1 -11.45 L-3.35 -10.75 Q-2.75 -10.5 -2.25 -10.75 -2.0 -11.35 -1.85 -10.8 L-1.6 -10.5 -1.45 -10.45 Q-0.5 -10.3 -0.75 -11.4 L-0.85 -11.6 Q-1.25 -11.9 -1.8 -11.6 L-2.05 -11.2 Q-2.75 -12.25 -4.05 -12.05 -4.4 -11.9 -4.55 -12.4 L-4.7 -12.4 M-14.65 -8.45 L-15.45 -8.3 -15.75 -7.15 -14.65 -6.8 -14.65 -8.45 M-13.65 -6.9 L-14.3 -4.9 -13.9 -5.05 -13.4 -5.2 -13.4 -5.45 -13.45 -5.65 -13.4 -6.3 -13.65 -6.9 M-11.15 -6.4 L-11.6 -6.85 -12.5 -5.35 -12.0 -4.75 -11.85 -5.15 -11.15 -6.4 M-10.3 -7.65 L-10.5 -8.05 Q-10.75 -8.3 -9.75 -8.75 L-8.5 -8.95 Q-8.35 -8.8 -8.5 -8.45 L-8.7 -8.1 -9.25 -7.3 Q-9.45 -7.15 -9.7 -7.15 L-9.8 -7.15 -10.1 -7.3 -10.3 -7.65 M-10.9 -4.05 L-10.4 -3.7 -10.6 -2.25 -11.7 -2.35 -11.55 -3.8 -10.9 -4.05" fill="#6b6b6b" fill-rule="evenodd" stroke="none"/>
      <path d="M-9.25 -12.7 L-8.6 -12.9 -8.1 -12.85 -7.2 -12.8 -6.85 -12.55 -6.3 -12.75 -5.75 -12.5 -7.2 -11.9 -7.6 -12.05 -7.95 -11.65 -8.1 -11.7 -9.75 -11.75 -10.2 -11.55 Q-10.9 -11.1 -11.85 -11.35 L-12.05 -11.0 Q-12.25 -10.55 -12.7 -10.75 -13.45 -11.15 -13.4 -11.9 -12.5 -12.45 -11.85 -11.45 L-11.85 -12.1 -9.35 -12.25 -9.45 -12.25 -9.25 -12.7 M-4.7 -12.4 L-4.55 -12.4 Q-4.4 -11.9 -4.05 -12.05 -2.75 -12.25 -2.05 -11.2 L-1.8 -11.6 Q-1.25 -11.9 -0.85 -11.6 L-0.75 -11.4 Q-0.5 -10.3 -1.45 -10.45 L-1.6 -10.5 -1.85 -10.8 Q-2.0 -11.35 -2.25 -10.75 -2.75 -10.5 -3.35 -10.75 L-4.1 -11.45 Q-4.8 -11.8 -4.7 -12.4" fill="#cccccc" fill-rule="evenodd" stroke="none"/>
      <path d="M0.35 -6.5 L0.5 -6.2 Q0.7 -5.8 0.25 -5.5 L0.35 -4.7 0.65 -2.7 0.9 -1.3 Q1.1 0.15 0.7 1.2 L-1.75 1.15 -1.95 0.15 -2.1 -2.35 -3.3 -3.6 -4.35 -4.25 -5.6 -4.55 -6.5 -4.3 -7.1 -4.05 -7.25 -3.9 -7.85 -2.6 -7.85 -1.45 -7.4 0.35 -6.95 1.9 -6.95 2.45 -6.9 2.6 -6.55 3.7 -6.6 3.85 -6.65 4.25 -6.75 5.5 -6.9 5.5 Q-7.1 5.25 -7.45 5.2 L-7.6 5.25 -8.55 5.0 Q-9.35 4.7 -10.2 4.55 -11.7 4.75 -12.4 3.75 L-14.6 3.4 -14.9 2.95 -15.0 2.6 -14.95 1.85 -15.95 -0.35 -16.25 -1.6 -16.5 -2.9 -16.75 -4.7 -16.7 -4.85 -16.55 -4.9 -16.4 -4.95 -16.55 -6.75 -16.15 -6.95 -16.35 -6.15 -15.8 -5.55 -14.85 -4.7 -14.55 -4.65 -14.9 -4.3 -14.75 -3.35 -14.3 -3.65 -13.7 -3.65 -12.95 -4.3 -11.65 -4.15 -11.0 -5.3 -10.85 -5.2 Q-10.75 -5.1 -10.65 -5.1 L-8.35 -5.4 Q-8.25 -5.3 -8.2 -5.45 -8.65 -6.6 -10.25 -6.2 L-10.4 -6.35 -10.4 -7.4 -11.45 -7.5 -11.65 -7.0 -13.05 -6.9 -13.0 -7.35 -13.6 -7.85 -13.25 -8.1 -13.1 -8.5 -14.45 -8.5 -14.0 -9.35 -13.1 -9.75 -12.1 -9.15 -12.35 -8.2 -11.5 -7.9 -11.8 -8.55 -11.2 -9.15 -11.1 -9.75 -8.95 -9.8 Q-8.25 -10.45 -7.65 -9.95 -7.8 -9.3 -7.3 -10.7 L-6.7 -9.5 Q-6.7 -9.2 -6.95 -9.2 L-7.7 -9.35 -7.4 -8.65 -6.45 -8.8 -6.35 -9.3 -4.8 -9.55 Q-4.75 -8.85 -4.25 -8.95 -3.85 -9.75 -3.8 -8.8 L-3.8 -8.25 -4.7 -8.1 Q-5.4 -8.35 -5.3 -7.05 L-5.85 -7.15 -6.6 -7.8 Q-7.1 -5.55 -4.35 -6.0 -3.85 -6.0 -4.1 -5.65 L-3.65 -5.3 -2.4 -5.25 -1.85 -5.3 -1.8 -5.65 -3.4 -7.05 -3.65 -6.9 -4.25 -6.4 -5.45 -6.55 -4.75 -6.75 -4.65 -7.3 -4.15 -7.4 -3.7 -7.55 -3.75 -7.65 -3.45 -7.65 Q-3.25 -8.35 -2.65 -7.55 -2.4 -7.25 -2.25 -7.65 L-1.1 -7.4 -1.0 -7.45 -0.45 -7.75 Q-0.1 -8.8 -1.45 -8.2 L-1.55 -8.25 Q-1.8 -9.1 -0.75 -9.15 L-0.35 -9.1 0.35 -6.5 M6.45 -3.0 L5.45 -3.05 5.45 -3.25 5.85 -3.4 7.75 -3.65 9.05 -4.05 12.25 -4.2 13.35 -4.15 13.4 -4.0 13.25 -3.55 Q12.85 -3.3 12.55 -3.55 L11.4 -3.75 9.55 -3.65 7.85 -3.4 6.45 -3.0 M-13.65 -6.9 L-13.4 -6.3 -13.45 -5.65 -13.4 -5.45 -13.4 -5.2 -13.9 -5.05 -14.3 -4.9 -13.65 -6.9 M-14.65 -8.45 L-14.65 -6.8 -15.75 -7.15 -15.45 -8.3 -14.65 -8.45 M-10.3 -7.65 L-10.1 -7.3 -9.8 -7.15 -9.7 -7.15 Q-9.45 -7.15 -9.25 -7.3 L-8.7 -8.1 -8.5 -8.45 Q-8.35 -8.8 -8.5 -8.95 L-9.75 -8.75 Q-10.75 -8.3 -10.5 -8.05 L-10.3 -7.65 M-11.15 -6.4 L-11.85 -5.15 -12.0 -4.75 -12.5 -5.35 -11.6 -6.85 -11.15 -6.4 M-10.9 -4.05 L-11.55 -3.8 -11.7 -2.35 -10.6 -2.25 -10.4 -3.7 -10.9 -4.05" fill="#464646" fill-rule="evenodd" stroke="none"/>
      <path d="M4.5 -9.0 L4.85 -8.45 5.15 -7.85 5.6 -5.95 5.85 -5.3 Q6.2 -4.55 6.05 -3.85 5.5 -3.45 5.0 -3.45 L4.85 -3.5 4.85 -4.05 4.5 -9.0 M1.35 5.3 L2.0 6.05 2.9 7.5 Q3.25 8.35 4.05 8.0 L4.5 7.35 5.9 6.35 5.4 7.4 4.65 9.2 Q4.2 10.35 3.6 10.65 L3.0 10.35 Q2.6 10.45 2.25 10.15 L1.05 11.05 1.65 9.4 2.0 7.55 1.8 7.2 -0.05 4.85 1.35 5.3" fill="#4e332a" fill-rule="evenodd" stroke="none"/>
      <path d="M-7.4 0.35 L-6.95 0.85 -6.4 2.15 Q-5.95 3.05 -5.9 3.9 L-5.7 4.6 Q-5.35 5.3 -5.3 6.2 L-5.15 7.55 -4.85 5.95 -4.65 5.5 -4.45 5.15 -3.4 4.75 Q-3.2 4.75 -3.2 4.35 L-3.45 4.25 -3.2 4.3 -3.2 4.35 -3.15 4.75 Q-3.45 5.05 -3.9 5.2 L-3.95 5.35 -4.2 5.75 -4.55 6.3 -4.8 7.25 -4.05 9.05 -4.1 9.9 -3.65 10.75 -3.25 11.35 -2.65 11.9 Q-2.2 12.3 -2.0 13.05 L-2.1 12.9 -3.7 11.75 -4.85 10.9 -5.6 10.7 -7.2 10.0 -11.1 9.8 -6.2 8.95 -6.15 8.65 -6.05 6.8 -6.3 4.85 Q-6.35 4.3 -6.55 3.7 L-6.9 2.6 -6.95 2.45 -6.95 1.9 -7.4 0.35 M13.95 11.25 L12.9 9.5 15.2 10.05 15.5 9.75 Q15.35 10.45 14.1 10.85 L13.95 11.25 M12.5 9.2 L12.0 9.55 11.65 9.8 11.85 8.9 12.15 8.1 12.5 8.35 12.65 8.45 12.5 9.2 M12.5 5.55 L12.15 6.25 11.55 5.6 11.3 5.1 11.2 4.15 11.15 3.95 Q11.2 2.35 12.15 2.55 L11.95 3.25 Q11.8 3.85 12.3 3.95 L13.05 3.7 12.6 4.25 12.55 4.7 12.25 4.85 12.15 4.85 11.95 4.75 12.2 5.2 12.5 5.55 M14.55 -5.65 L14.1 -5.7 11.1 -6.4 14.6 -6.15 14.55 -5.65 M14.7 -8.2 L14.2 -8.15 13.85 -8.35 12.25 -8.95 14.7 -8.65 14.7 -8.2 M11.55 -0.3 L11.1 0.0 9.85 0.35 9.15 0.3 8.6 0.35 8.4 0.25 7.85 0.85 Q7.0 -0.1 5.55 -0.85 L5.55 -0.95 5.05 -1.25 4.75 -1.55 5.4 -1.95 6.15 -2.55 7.5 -2.15 9.2 -1.55 9.05 -1.3 9.0 -1.25 10.35 -1.4 10.95 -0.75 Q11.4 -0.4 11.3 -0.95 L11.55 -0.3 M13.55 -1.85 L13.3 -1.0 Q12.9 -0.15 12.45 -0.15 12.2 -0.15 11.9 -0.4 L11.8 -0.35 11.75 -1.1 11.8 -1.9 12.1 -2.4 12.8 -1.25 13.55 -1.85 M9.55 -1.65 L10.2 -2.25 Q11.0 -2.85 11.7 -3.05 L11.9 -2.75 11.05 -2.35 9.55 -1.65 M10.95 12.35 L10.7 13.8 10.7 13.95 9.85 14.8 10.05 15.6 9.4 15.75 8.65 16.55 4.5 16.15 2.15 15.9 1.75 15.5 0.95 15.2 0.8 15.1 2.25 15.05 3.45 15.4 7.35 14.6 Q8.4 14.2 9.25 13.55 L9.65 13.3 10.45 12.45 10.8 12.0 10.95 12.35" fill="#462e26" fill-rule="evenodd" stroke="none"/>
      <path d="M15.3 4.45 Q15.15 5.3 14.3 5.1 L12.9 4.75 13.15 4.25 13.4 4.05 13.7 3.85 15.3 4.4 15.3 4.45" fill="#231713" fill-rule="evenodd" stroke="none"/>
    </g>
    <g id="sprite13" transform="matrix(1.0, 0.0, 0.0, 1.0, 50.0, 50.0)">
      <use ffdec:characterId="1110" height="100.0" transform="matrix(1.0, 0.0, 0.0, 1.0, -50.0, -50.0)" width="100.0" xlink:href="#shape9"/>
    </g>
    <g id="shape9" transform="matrix(1.0, 0.0, 0.0, 1.0, 50.0, 50.0)">
      <path d="M35.35 -35.35 Q50.0 -20.7 50.0 0.0 50.0 20.7 35.35 35.35 20.7 50.0 0.0 50.0 -20.7 50.0 -35.35 35.35 -50.0 20.7 -50.0 0.0 -50.0 -20.7 -35.35 -35.35 -20.7 -50.0 0.0 -50.0 20.7 -50.0 35.35 -35.35 Z" fill="none" stroke="#9900ff" stroke-linecap="round" stroke-linejoin="round" stroke-width="0.05"/>
    </g>
    <g id="sprite14" transform="matrix(1.0, 0.0, 0.0, 1.0, 48.25, 53.9)">
      <use ffdec:characterId="1877" height="57.55" transform="matrix(1.0, 0.0, 0.0, 1.0, -39.85, -28.9)" width="79.7" xlink:href="#shape10"/>
      <use ffdec:characterId="1081" height="100.0" id="shape" transform="matrix(0.75, 0.0, 0.0, 0.55, -37.5, -27.4986)" width="100.0" xlink:href="#sprite2"/>
    </g>
    <g id="shape10" transform="matrix(1.0, 0.0, 0.0, 1.0, 39.85, 28.9)">
      <path d="M25.85 -5.15 L24.6 -4.7 24.1 -4.5 21.8 -4.05 24.5 -5.65 24.95 -5.9 25.3 -6.1 Q29.15 -8.2 33.55 -14.9 L34.1 -14.3 34.1 -14.2 34.45 -13.15 33.9 -12.45 33.55 -11.2 Q30.2 -6.95 25.85 -5.15 M33.9 -19.8 L36.5 -17.85 Q39.85 -14.85 39.85 -11.95 L39.8 -11.25 39.85 -11.25 39.75 -10.7 39.6 -10.05 39.45 -9.55 36.65 1.8 36.05 3.55 34.2 7.35 32.55 10.8 Q31.35 13.6 30.4 16.95 L29.55 18.25 25.75 22.55 25.7 22.6 25.6 22.65 Q23.35 25.3 20.25 26.35 6.0 30.05 -8.45 27.8 L-13.45 27.05 -18.85 26.05 -21.75 25.4 -22.6 25.15 -24.6 24.1 -27.25 22.5 -27.6 22.2 -29.65 19.35 Q-33.55 16.1 -36.05 10.8 L-36.8 9.05 Q-37.85 6.5 -38.5 3.55 -39.85 -2.05 -39.85 -8.95 L-39.5 -11.7 -39.15 -13.05 -36.9 -19.3 -35.05 -23.45 Q-32.65 -27.35 -28.45 -28.35 L-23.7 -28.5 -27.0 -26.55 -28.6 -24.55 -28.7 -24.5 Q-30.2 -23.15 -30.95 -21.4 L-31.55 -19.55 Q-33.1 -17.6 -33.35 -15.0 L-33.4 -14.35 -33.5 -14.25 -34.1 -14.2 -33.75 -12.45 -34.2 -12.5 -34.25 -11.7 -34.9 -5.45 -32.3 -4.8 -29.9 -4.45 -36.15 -4.2 -36.15 -1.95 -34.0 3.55 -33.8 4.05 Q-32.4 7.65 -32.15 10.05 L-32.05 10.8 Q-31.6 12.8 -29.8 14.35 L-28.45 15.5 -24.4 20.95 -21.7 23.25 -20.2 23.8 -18.85 24.3 -13.45 26.0 -12.75 26.2 -9.25 26.85 -5.15 27.45 -1.4 28.0 4.25 28.3 7.7 28.25 7.75 28.25 Q14.15 28.2 19.35 25.8 L21.5 24.8 Q27.4 20.8 29.2 15.9 L29.85 12.4 30.45 10.8 33.0 3.55 Q35.85 -5.0 35.85 -8.2 35.85 -8.65 36.45 -9.6 L36.45 -13.25 Q37.45 -16.85 33.9 -19.8" fill="#5383b4" fill-rule="evenodd" stroke="none"/>
      <path d="M-20.15 -28.6 L-20.85 -28.05 Q-22.2 -26.85 -22.95 -25.05 -25.1 -20.5 -26.4 -18.3 -27.15 -15.95 -28.0 -14.55 L-28.15 -13.55 -28.2 -12.55 -28.25 -11.85 -28.6 -11.9 -28.95 -9.35 -29.4 -5.45 Q-29.4 -4.9 -28.2 -4.4 L-26.65 -3.7 -29.15 -3.7 -29.15 -0.45 Q-28.3 1.4 -27.75 3.55 L-27.55 4.7 -27.5 5.0 Q-27.1 10.4 -23.15 15.95 L-21.6 17.9 -20.4 20.2 -19.6 20.75 Q-18.0 21.85 -16.35 22.55 L-15.25 23.25 -8.35 25.0 Q4.5 27.65 18.75 23.15 L22.45 19.85 23.6 17.55 26.65 11.45 Q28.8 7.2 29.05 5.4 L29.8 3.55 30.9 0.9 Q34.0 -6.55 34.0 -8.2 L33.4 -8.85 33.35 -8.95 31.9 -7.25 Q31.05 -6.75 29.8 -6.4 L25.85 -5.15 Q30.2 -6.95 33.55 -11.2 L33.9 -12.45 34.45 -13.15 34.1 -14.2 34.1 -14.3 33.55 -14.9 Q32.55 -15.85 31.8 -21.3 L33.9 -19.8 Q37.45 -16.85 36.45 -13.25 L36.45 -9.6 Q35.85 -8.65 35.85 -8.2 35.85 -5.0 33.0 3.55 L30.45 10.8 29.85 12.4 29.2 15.9 Q27.4 20.8 21.5 24.8 L19.35 25.8 Q14.15 28.2 7.75 28.25 L7.7 28.25 4.25 28.3 -1.4 28.0 -5.15 27.45 -9.25 26.85 -12.75 26.2 -13.45 26.0 -18.85 24.3 -20.2 23.8 -21.7 23.25 -24.4 20.95 -28.45 15.5 -29.8 14.35 Q-31.6 12.8 -32.05 10.8 L-32.15 10.05 Q-32.4 7.65 -33.8 4.05 L-34.0 3.55 -36.15 -1.95 -36.15 -4.2 -29.9 -4.45 -32.3 -4.8 -34.9 -5.45 -34.25 -11.7 -34.2 -12.5 -33.75 -12.45 -34.1 -14.2 -33.5 -14.25 -33.4 -14.35 -33.35 -15.0 Q-33.1 -17.6 -31.55 -19.55 L-30.95 -21.4 Q-30.2 -23.15 -28.7 -24.5 L-28.6 -24.55 -27.0 -26.55 -23.7 -28.5 -20.15 -28.6" fill="#336699" fill-rule="evenodd" stroke="none"/>
      <path d="M-20.15 -28.6 L-1.25 -28.9 -0.9 -28.6 1.4 -28.65 Q10.45 -28.75 19.05 -26.2 L22.8 -25.05 Q26.35 -24.05 30.2 -22.15 L31.8 -21.3 31.0 -16.45 Q31.0 -15.75 29.75 -13.05 L29.2 -11.95 28.1 -10.05 27.85 -9.5 Q26.95 -7.65 25.3 -6.1 L24.95 -5.9 24.5 -5.65 21.8 -4.05 24.1 -4.5 24.6 -4.7 25.85 -5.15 29.8 -6.4 Q31.05 -6.75 31.9 -7.25 L33.35 -8.95 33.4 -8.85 34.0 -8.2 Q34.0 -6.55 30.9 0.9 L29.8 3.55 29.05 5.4 Q28.8 7.2 26.65 11.45 L23.6 17.55 22.45 19.85 18.75 23.15 Q4.5 27.65 -8.35 25.0 L-15.25 23.25 -16.35 22.55 Q-18.0 21.85 -19.6 20.75 L-20.4 20.2 -21.6 17.9 -23.15 15.95 Q-27.1 10.4 -27.5 5.0 L-27.55 4.7 -27.75 3.55 Q-28.3 1.4 -29.15 -0.45 L-29.15 -3.7 -26.65 -3.7 -28.2 -4.4 Q-29.4 -4.9 -29.4 -5.45 L-28.95 -9.35 -28.6 -11.9 -28.25 -11.85 -28.2 -12.55 -28.15 -13.55 -28.0 -14.55 Q-27.15 -15.95 -26.4 -18.3 -25.1 -20.5 -22.95 -25.05 -22.2 -26.85 -20.85 -28.05 L-20.15 -28.6" fill="#2e5d8c" fill-rule="evenodd" stroke="none"/>
      <path d="M25.3 -6.1 Q26.95 -7.65 27.85 -9.5 L28.1 -10.05 29.2 -11.95 29.75 -13.05 Q31.0 -15.75 31.0 -16.45 L31.8 -21.3 31.8 -21.35 31.8 -21.3 Q32.55 -15.85 33.55 -14.9 29.15 -8.2 25.3 -6.1" fill="#2a547e" fill-rule="evenodd" stroke="none"/>
    </g>
    <g id="sprite15" transform="matrix(1.0, 0.0, 0.0, 1.0, 49.1, 86.8)">
      <use ffdec:characterId="1889" height="87.7" transform="matrix(1.0, 0.0, 0.0, 1.0, -39.45, -43.85)" width="78.9" xlink:href="#shape11"/>
      <use ffdec:characterId="1081" height="100.0" id="shape" transform="matrix(0.7503, 0.0, 0.0, 0.85, -37.5168, -42.5011)" width="100.0" xlink:href="#sprite2"/>
      <use ffdec:characterId="1138" height="0.0" id="spineRef" transform="matrix(1.0, 0.0, 0.0, 1.0, 10.85, -50.9)" width="0.0" xlink:href="#sprite16"/>
    </g>
    <g id="shape11" transform="matrix(1.0, 0.0, 0.0, 1.0, 39.45, 43.85)">
      <path d="M14.6 -37.7 L20.3 -33.05 21.5 -30.35 22.05 -29.1 Q23.45 -26.0 24.8 -24.2 L24.8 -24.05 25.95 -22.2 27.75 -19.05 28.45 -17.7 29.85 -14.75 27.45 -18.4 27.35 -18.55 25.35 -20.9 24.45 -22.0 23.25 -23.95 19.85 -29.5 17.1 -34.05 16.25 -35.5 16.2 -35.55 15.15 -37.1 14.6 -37.7 M-14.5 -27.9 L-13.9 -29.7 -12.2 -34.0 Q-11.45 -35.75 -10.2 -37.1 L-10.1 -37.2 Q-7.25 -40.35 -2.95 -40.35 1.5 -40.4 5.7 -39.2 8.25 -38.55 10.4 -37.1 L13.4 -34.35 14.75 -32.65 Q16.35 -30.7 16.3 -28.1 L16.3 -27.2 16.0 -26.3 15.15 -24.2 14.4 -22.95 13.25 -21.15 10.6 -17.65 Q9.35 -15.8 6.7 -14.4 4.1 -13.0 1.9 -13.0 L-3.25 -13.6 Q-7.3 -14.35 -8.9 -15.65 -11.5 -17.7 -12.75 -19.05 L-13.8 -20.35 -14.2 -23.35 -14.5 -27.9" fill="#583a30" fill-rule="evenodd" stroke="none"/>
      <path d="M29.85 -14.75 L30.5 -13.7 31.5 -11.65 Q32.85 -8.3 32.5 -4.55 L28.35 -9.45 26.35 -11.95 24.8 -14.2 24.35 -14.95 21.45 -20.05 20.45 -21.85 Q18.25 -25.85 16.75 -30.05 15.35 -34.0 12.3 -36.9 L12.1 -37.1 11.5 -37.6 Q9.7 -39.1 7.35 -40.05 L3.65 -41.05 -0.6 -41.45 Q-5.65 -41.9 -9.75 -39.2 L-10.2 -38.9 Q-13.45 -36.65 -15.9 -33.4 L-19.55 -27.95 Q-21.15 -25.35 -22.4 -22.55 -23.65 -19.85 -24.5 -17.05 -25.6 -13.15 -28.45 -7.2 -26.45 -16.2 -24.65 -22.95 L-23.35 -27.05 -27.35 -20.65 -31.7 -12.95 -32.95 -10.45 -35.55 -4.95 -37.35 -0.95 -36.45 -6.15 Q-35.85 -9.5 -34.45 -12.5 L-33.4 -14.55 -32.8 -15.8 -31.65 -19.1 Q-30.65 -22.05 -28.7 -24.6 L-27.65 -25.9 -26.3 -27.95 -22.65 -33.0 Q-20.7 -35.9 -19.3 -37.15 -17.8 -38.5 -15.55 -39.5 -13.4 -41.25 -10.2 -42.15 L-10.05 -42.2 -5.85 -43.2 -2.4 -43.75 -2.1 -43.75 -1.05 -43.85 4.0 -43.5 Q6.65 -43.4 8.75 -42.1 L12.15 -39.85 14.5 -37.8 14.6 -37.7 15.15 -37.1 16.2 -35.55 16.25 -35.5 17.1 -34.05 19.85 -29.5 23.25 -23.95 24.45 -22.0 25.35 -20.9 27.35 -18.55 27.45 -18.4 29.85 -14.75 M32.15 8.6 L32.7 10.1 32.95 10.95 33.45 12.3 Q34.65 14.95 35.65 17.95 37.05 22.25 37.95 26.55 38.75 30.3 39.1 34.3 L39.45 42.6 39.3 43.85 35.95 43.85 31.8 43.15 31.65 42.2 31.75 41.95 Q32.9 38.45 31.6 34.8 L35.3 41.15 35.95 37.05 36.3 37.4 Q37.1 35.5 36.95 33.6 36.55 28.15 35.65 22.7 L35.5 21.95 Q34.75 19.65 33.4 17.75 L29.6 12.5 26.7 8.7 28.3 4.6 29.3 4.9 32.15 8.6 M-39.45 27.2 L-39.3 22.7 Q-39.05 15.1 -38.4 7.7 L-38.25 6.5 -36.7 11.15 -30.95 -0.1 Q-31.25 2.15 -31.95 4.35 L-32.85 6.6 -34.6 10.95 Q-35.85 14.95 -36.5 19.1 -37.2 23.5 -39.45 27.2" fill="#ecdecb" fill-rule="evenodd" stroke="none"/>
      <path d="M32.5 -4.55 L32.2 -1.55 31.9 0.7 Q31.75 2.2 30.5 3.0 L32.15 8.6 29.3 4.9 28.3 4.6 26.7 8.7 29.6 12.5 33.4 17.75 Q34.75 19.65 35.5 21.95 L35.65 22.7 Q36.55 28.15 36.95 33.6 37.1 35.5 36.3 37.4 L35.95 37.05 35.3 41.15 31.6 34.8 Q32.9 38.45 31.75 41.95 L31.65 42.2 31.8 43.15 28.8 43.15 30.75 40.8 Q31.25 40.0 31.1 39.2 L30.8 36.55 Q30.4 32.25 29.4 28.25 L28.7 25.6 25.9 32.15 Q25.9 27.15 27.55 22.25 L25.5 18.75 Q25.1 21.5 23.6 24.0 22.6 25.6 21.9 27.2 L21.15 28.65 21.6 26.5 22.95 21.2 23.5 17.9 Q23.65 16.55 23.05 15.3 L18.65 11.4 20.55 7.65 Q19.7 8.3 18.8 8.9 L17.55 8.9 25.5 1.4 Q25.4 -0.8 24.25 -2.75 L20.35 -9.5 20.3 -9.6 Q19.05 -11.7 18.05 -13.9 17.1 -16.0 16.3 -18.15 L16.3 -27.2 16.3 -28.1 Q16.35 -30.7 14.75 -32.65 L13.4 -34.35 10.4 -37.1 Q8.25 -38.55 5.7 -39.2 1.5 -40.4 -2.95 -40.35 -7.25 -40.35 -10.1 -37.2 L-10.2 -37.1 Q-11.45 -35.75 -12.2 -34.0 L-13.9 -29.7 -14.5 -27.9 -14.6 -27.7 -18.55 -20.05 -22.05 -12.7 Q-23.25 -10.5 -25.05 -5.4 L-26.35 -1.75 Q-29.1 6.25 -27.35 7.05 -25.65 7.8 -26.25 10.5 -26.9 13.2 -28.25 17.25 L-30.4 23.5 -30.65 25.05 -26.0 19.2 Q-25.95 20.8 -26.75 22.3 L-27.65 24.1 -28.15 25.0 -29.0 26.45 Q-31.25 30.0 -32.8 34.05 L-33.4 35.45 Q-31.75 33.65 -29.75 32.2 L-26.8 29.75 -25.35 28.4 -24.4 27.3 -23.0 24.4 Q-21.95 21.6 -19.5 20.0 -20.15 22.3 -21.25 24.4 -22.2 26.2 -23.6 27.7 L-24.65 28.95 -26.25 30.8 -27.65 32.3 Q-30.65 35.6 -32.3 39.85 L-32.8 41.1 -32.9 41.1 -34.65 40.9 -39.3 41.1 -39.45 27.2 Q-37.2 23.5 -36.5 19.1 -35.85 14.95 -34.6 10.95 L-32.85 6.6 -31.95 4.35 Q-31.25 2.15 -30.95 -0.1 L-36.7 11.15 -38.25 6.5 -37.35 -0.95 -35.55 -4.95 -32.95 -10.45 -31.7 -12.95 -27.35 -20.65 -23.35 -27.05 -24.65 -22.95 Q-26.45 -16.2 -28.45 -7.2 -25.6 -13.15 -24.5 -17.05 -23.65 -19.85 -22.4 -22.55 -21.15 -25.35 -19.55 -27.95 L-15.9 -33.4 Q-13.45 -36.65 -10.2 -38.9 L-9.75 -39.2 Q-5.65 -41.9 -0.6 -41.45 L3.65 -41.05 7.35 -40.05 Q9.7 -39.1 11.5 -37.6 L12.1 -37.1 12.3 -36.9 Q15.35 -34.0 16.75 -30.05 18.25 -25.85 20.45 -21.85 L21.45 -20.05 24.35 -14.95 24.8 -14.2 26.35 -11.95 28.35 -9.45 32.5 -4.55 M-25.9 41.65 L-26.7 41.65 -28.05 41.6 -27.2 39.25 -27.2 39.4 -27.15 39.15 -26.8 38.05 -26.1 36.95 -24.7 35.15 -24.45 35.15 Q-24.85 36.1 -25.9 41.6 L-25.9 41.65" fill="#d7c9b5" fill-rule="evenodd" stroke="none"/>
      <path d="M28.8 43.15 L28.2 43.15 25.8 43.05 24.65 42.65 22.4 42.35 20.15 42.15 16.35 41.4 11.35 40.85 Q3.45 40.4 -2.3 40.55 L-6.95 39.9 -17.7 40.8 -25.9 41.65 -25.9 41.6 Q-24.85 36.1 -24.45 35.15 L-24.7 35.15 -26.1 36.95 -26.8 38.05 -27.15 39.15 -27.2 39.4 -27.2 39.25 -28.05 41.6 -32.8 41.1 -32.3 39.85 Q-30.65 35.6 -27.65 32.3 L-26.25 30.8 -24.65 28.95 -23.6 27.7 Q-22.2 26.2 -21.25 24.4 -20.15 22.3 -19.5 20.0 -21.95 21.6 -23.0 24.4 L-24.4 27.3 -25.35 28.4 -26.8 29.75 -29.75 32.2 Q-31.75 33.65 -33.4 35.45 L-32.8 34.05 Q-31.25 30.0 -29.0 26.45 L-28.15 25.0 -27.65 24.1 -26.75 22.3 Q-25.95 20.8 -26.0 19.2 L-30.65 25.05 -30.4 23.5 -28.25 17.25 Q-26.9 13.2 -26.25 10.5 -25.65 7.8 -27.35 7.05 -29.1 6.25 -26.35 -1.75 L-25.05 -5.4 Q-23.25 -10.5 -22.05 -12.7 L-18.55 -20.05 -14.6 -27.7 Q-16.05 -23.55 -16.3 -22.15 L-16.65 -18.3 -16.7 -16.3 Q-16.7 -12.25 -15.95 -9.3 -16.0 -5.6 -14.35 -2.35 L-14.15 -1.85 -14.1 -1.55 Q-21.05 -0.35 -17.55 4.1 -16.55 5.3 -15.55 3.9 -14.25 2.05 -15.2 -0.1 L-13.85 -0.3 Q-14.5 3.6 -10.95 4.4 -8.1 5.15 -6.95 2.15 -3.2 1.8 0.2 3.45 2.1 7.05 2.55 11.1 1.85 11.4 1.25 11.85 0.7 12.25 0.3 12.8 L1.65 14.4 2.8 14.3 3.45 13.45 4.05 13.65 Q4.8 8.7 3.05 4.15 L5.05 4.0 Q7.05 6.0 7.3 8.9 L9.05 8.9 9.05 6.15 Q7.8 4.75 7.7 2.9 7.65 1.75 8.6 1.0 L9.3 0.55 Q12.15 -0.95 13.7 -3.75 L14.7 -6.1 Q16.15 -10.45 16.3 -18.15 17.1 -16.0 18.05 -13.9 19.05 -11.7 20.3 -9.6 L20.35 -9.5 24.25 -2.75 Q25.4 -0.8 25.5 1.4 L17.55 8.9 18.8 8.9 Q19.7 8.3 20.55 7.65 L18.65 11.4 23.05 15.3 Q23.65 16.55 23.5 17.9 L22.95 21.2 21.6 26.5 21.15 28.65 21.9 27.2 Q22.6 25.6 23.6 24.0 25.1 21.5 25.5 18.75 L27.55 22.25 Q25.9 27.15 25.9 32.15 L28.7 25.6 29.4 28.25 Q30.4 32.25 30.8 36.55 L31.1 39.2 Q31.25 40.0 30.75 40.8 L28.8 43.15 M14.05 -1.65 Q13.7 -1.35 13.7 -0.85 13.7 -0.35 14.05 0.0 L14.85 0.3 15.7 0.0 16.0 -0.85 15.7 -1.65 Q15.35 -2.0 14.85 -2.0 14.35 -2.0 14.05 -1.65 M-3.55 10.4 Q-3.9 10.7 -3.9 11.2 -3.9 11.7 -3.55 12.05 L-2.75 12.35 -1.9 12.05 Q-1.6 11.7 -1.6 11.2 -1.6 10.7 -1.9 10.4 -2.25 10.05 -2.75 10.05 -3.25 10.05 -3.55 10.4" fill="#bbaa91" fill-rule="evenodd" stroke="none"/>
      <path d="M9.3 0.55 L8.6 1.0 Q7.65 1.75 7.7 2.9 7.8 4.75 9.05 6.15 L9.05 8.9 7.3 8.9 Q7.05 6.0 5.05 4.0 L3.05 4.15 Q4.8 8.7 4.05 13.65 L3.45 13.45 2.8 14.3 1.65 14.4 0.3 12.8 Q0.7 12.25 1.25 11.85 1.85 11.4 2.55 11.1 2.1 7.05 0.2 3.45 -3.2 1.8 -6.95 2.15 -8.1 5.15 -10.95 4.4 -14.5 3.6 -13.85 -0.3 L-15.2 -0.1 Q-14.25 2.05 -15.55 3.9 -16.55 5.3 -17.55 4.1 -21.05 -0.35 -14.1 -1.55 L-14.15 -1.85 -14.35 -2.35 Q-16.0 -5.6 -15.95 -9.3 -15.2 -6.1 -12.95 -3.9 -11.5 -2.45 -9.9 -1.3 -1.55 4.7 9.3 0.55 M14.05 -1.65 Q14.35 -2.0 14.85 -2.0 15.35 -2.0 15.7 -1.65 L16.0 -0.85 15.7 0.0 14.85 0.3 14.05 0.0 Q13.7 -0.35 13.7 -0.85 13.7 -1.35 14.05 -1.65 M-3.55 10.4 Q-3.25 10.05 -2.75 10.05 -2.25 10.05 -1.9 10.4 -1.6 10.7 -1.6 11.2 -1.6 11.7 -1.9 12.05 L-2.75 12.35 -3.55 12.05 Q-3.9 11.7 -3.9 11.2 -3.9 10.7 -3.55 10.4" fill="#c0ac6d" fill-rule="evenodd" stroke="none"/>
      <path d="M-14.5 -27.9 L-14.2 -23.35 -13.8 -20.35 -12.75 -19.05 Q-11.5 -17.7 -8.9 -15.65 -7.3 -14.35 -3.25 -13.6 L1.9 -13.0 Q4.1 -13.0 6.7 -14.4 9.35 -15.8 10.6 -17.65 L13.25 -21.15 14.4 -22.95 15.15 -24.2 16.0 -26.3 16.3 -27.2 16.3 -18.15 Q16.15 -10.45 14.7 -6.1 L13.7 -3.75 Q12.15 -0.95 9.3 0.55 -1.55 4.7 -9.9 -1.3 -11.5 -2.45 -12.95 -3.9 -15.2 -6.1 -15.95 -9.3 -16.7 -12.25 -16.7 -16.3 L-16.65 -18.3 -16.3 -22.15 Q-16.05 -23.55 -14.6 -27.7 L-14.5 -27.9" fill="#462e26" fill-rule="evenodd" stroke="none"/>
    </g>
    <g id="sprite17" transform="matrix(1.0, 0.0, 0.0, 1.0, 31.45, 9.2)">
      <use ffdec:characterId="1908" ffdec:characterName="game_fla.upperleg1_565" height="89.35" id="upperLeg1" transform="matrix(1.0, 0.0, 0.0, 1.0, -31.45, -9.2)" width="59.95" xlink:href="#sprite18"/>
      <use ffdec:characterId="1915" height="73.2" id="lowerLegOuter1" transform="matrix(0.9999, 0.0, 0.0, 0.9999, -21.4988, 55.651)" width="47.45" xlink:href="#sprite19"/>
    </g>
    <g id="sprite18" transform="matrix(1.0, 0.0, 0.0, 1.0, 31.25, 45.65)">
      <use ffdec:characterId="1904" height="86.9" transform="matrix(1.0, 0.0, 0.0, 1.0, -28.4, -43.2)" width="55.3" xlink:href="#shape12"/>
      <use ffdec:characterId="1081" height="100.0" id="shape" transform="matrix(0.48, 0.0, 0.0, 0.8, -23.9983, -40.0009)" width="100.0" xlink:href="#sprite2"/>
    </g>
    <g id="shape12" transform="matrix(1.0, 0.0, 0.0, 1.0, 28.4, 43.2)">
      <path d="M21.95 -32.9 L21.7 -33.15 19.1 -36.1 19.3 -35.15 19.7 -33.15 19.85 -31.9 19.1 -26.4 19.15 -25.9 19.5 -21.1 Q19.85 -15.65 20.35 -14.15 L19.85 -10.25 Q18.3 0.35 17.0 6.15 L14.95 14.35 15.0 15.85 14.85 17.1 14.9 17.75 15.3 23.05 15.3 23.25 15.3 23.4 15.3 24.5 15.25 25.25 15.15 26.25 14.8 28.2 14.35 29.65 13.3 31.6 10.8 34.5 9.8 35.45 8.7 36.35 7.6 36.95 3.8 38.25 Q1.05 39.2 -0.45 38.75 L-2.35 38.15 -3.0 38.0 -3.95 37.7 -6.7 36.15 -8.6 34.45 -9.05 34.1 -11.2 31.85 -13.15 29.5 Q-16.05 26.5 -17.1 24.8 -18.1 23.25 -18.35 21.6 L-18.55 21.25 -18.9 19.85 Q-18.9 17.8 -17.85 16.75 -15.3 14.1 -14.4 12.85 L-13.6 11.6 -13.45 10.55 -12.6 6.7 -12.55 5.6 -12.4 5.5 -12.3 5.7 -12.0 4.95 -12.6 3.8 Q-13.2 3.25 -12.6 -10.25 L-12.4 -14.3 Q-12.7 -12.3 -13.2 -11.05 L-13.55 -10.25 -15.05 -7.15 -16.1 -5.75 Q-16.8 -4.95 -17.0 -6.45 -17.2 -7.6 -18.4 -10.25 L-19.35 -12.1 -24.1 -21.15 Q-25.25 -23.3 -25.75 -25.9 -26.35 -29.15 -26.0 -33.15 L-26.0 -33.45 Q-23.8 -36.5 -20.6 -39.2 L-19.3 -40.1 -17.95 -40.65 -17.35 -40.85 -13.1 -41.8 -5.6 -42.95 -2.05 -43.2 -1.95 -43.2 0.75 -42.9 7.1 -42.0 13.15 -39.55 Q17.85 -37.5 19.2 -36.35 L19.35 -36.2 21.95 -32.9 M-1.15 5.65 L-1.25 2.35 -3.45 8.3 -3.65 11.15 -3.3 14.8 -3.2 14.0 Q-2.25 8.05 -1.15 5.65 M-1.9 -40.35 L-2.05 -42.95 Q-3.3 -39.95 -3.3 -38.25 L-2.8 -36.35 Q-2.3 -35.2 -2.3 -34.0 L-1.9 -20.75 -2.75 -13.15 -2.75 -10.25 -3.05 0.65 -2.25 -2.95 Q-2.25 -3.9 -1.45 -6.35 L-1.65 -14.25 -1.45 -25.9 -1.5 -31.55 -1.5 -33.15 -1.9 -40.35" fill="#2e5d8c" fill-rule="evenodd" stroke="none"/>
      <path d="M-1.9 -40.35 L-1.5 -33.15 -1.5 -31.55 -1.45 -25.9 -1.65 -14.25 -1.45 -6.35 Q-2.25 -3.9 -2.25 -2.95 L-3.05 0.65 -2.75 -10.25 -2.75 -13.15 -1.9 -20.75 -2.3 -34.0 Q-2.3 -35.2 -2.8 -36.35 L-3.3 -38.25 Q-3.3 -39.95 -2.05 -42.95 L-1.9 -40.35 M-1.15 5.65 Q-2.25 8.05 -3.2 14.0 L-3.3 14.8 -3.65 11.15 -3.45 8.3 -1.25 2.35 -1.15 5.65" fill="#2a547e" fill-rule="evenodd" stroke="none"/>
      <path d="M26.4 -18.7 L24.35 -25.9 23.4 -28.6 23.15 -29.25 23.25 -28.65 23.55 -25.9 23.85 -22.85 Q24.8 -14.1 24.85 -10.25 L24.85 -10.05 Q24.85 -7.7 23.35 -0.45 22.65 2.9 22.3 5.85 L22.25 6.35 Q21.15 10.25 18.75 16.4 17.15 20.4 17.1 23.15 L17.1 23.5 17.05 24.25 17.05 27.2 17.1 30.0 Q17.2 32.15 15.8 34.6 14.4 37.05 12.55 38.3 L9.15 40.4 Q7.55 41.3 5.05 41.9 L-1.25 41.65 Q-5.05 40.75 -8.25 38.85 -11.45 36.9 -14.65 32.0 L-17.95 26.8 -18.6 24.75 -20.3 19.0 Q-20.0 16.85 -18.65 12.65 -16.9 7.15 -16.9 3.85 L-17.05 0.0 -18.25 5.0 -18.85 6.8 Q-19.6 0.6 -22.8 -8.5 L-23.4 -10.25 Q-26.55 -19.5 -26.65 -24.65 -27.4 -22.5 -27.55 -19.5 L-28.4 -27.6 Q-28.35 -29.45 -27.6 -30.95 L-27.15 -31.75 -26.0 -33.45 -26.0 -33.15 Q-26.35 -29.15 -25.75 -25.9 -25.25 -23.3 -24.1 -21.15 L-19.35 -12.1 -18.4 -10.25 Q-17.2 -7.6 -17.0 -6.45 -16.8 -4.95 -16.1 -5.75 L-15.05 -7.15 -13.55 -10.25 -13.2 -11.05 Q-12.7 -12.3 -12.4 -14.3 L-12.6 -10.25 Q-13.2 3.25 -12.6 3.8 L-12.0 4.95 -12.3 5.7 -12.4 5.5 -12.55 5.6 -12.6 6.7 -13.45 10.55 -13.6 11.6 -14.4 12.85 Q-15.3 14.1 -17.85 16.75 -18.9 17.8 -18.9 19.85 L-18.55 21.25 -18.35 21.6 Q-18.1 23.25 -17.1 24.8 -16.05 26.5 -13.15 29.5 L-11.2 31.85 -9.05 34.1 -8.6 34.45 -6.7 36.15 -3.95 37.7 -3.0 38.0 -2.35 38.15 -0.45 38.75 Q1.05 39.2 3.8 38.25 L7.6 36.95 8.7 36.35 9.8 35.45 10.8 34.5 13.3 31.6 14.35 29.65 14.8 28.2 15.15 26.25 15.25 25.25 15.3 24.5 15.3 23.4 15.3 23.25 15.3 23.05 14.9 17.75 14.85 17.1 15.0 15.85 14.95 14.35 17.0 6.15 Q18.3 0.35 19.85 -10.25 L20.35 -14.15 Q19.85 -15.65 19.5 -21.1 L19.15 -25.9 19.1 -26.4 19.85 -31.9 19.7 -33.15 19.3 -35.15 19.1 -36.1 21.7 -33.15 21.95 -32.9 22.0 -32.8 Q26.15 -23.7 26.4 -18.7" fill="#336699" fill-rule="evenodd" stroke="none"/>
      <path d="M-27.55 -19.5 Q-27.4 -22.5 -26.65 -24.65 -26.55 -19.5 -23.4 -10.25 L-22.8 -8.5 Q-19.6 0.6 -18.85 6.8 L-18.25 5.0 -17.05 0.0 -16.9 3.85 Q-16.9 7.15 -18.65 12.65 -20.0 16.85 -20.3 19.0 L-18.6 24.75 -17.95 26.8 -14.65 32.0 Q-11.45 36.9 -8.25 38.85 -5.05 40.75 -1.25 41.65 L5.05 41.9 Q7.55 41.3 9.15 40.4 L12.55 38.3 Q14.4 37.05 15.8 34.6 17.2 32.15 17.1 30.0 L17.05 27.2 17.05 24.25 17.1 23.5 17.1 23.15 Q17.15 20.4 18.75 16.4 21.15 10.25 22.25 6.35 L22.3 5.85 Q22.65 2.9 23.35 -0.45 24.85 -7.7 24.85 -10.05 L24.85 -10.25 Q24.8 -14.1 23.85 -22.85 L23.55 -25.9 23.25 -28.65 23.15 -29.25 23.4 -28.6 24.35 -25.9 26.4 -18.7 26.9 -9.35 26.6 -7.6 Q24.85 3.7 22.85 10.85 L22.0 14.0 20.05 20.35 20.0 20.55 Q19.55 21.5 19.35 22.75 L19.3 23.35 19.2 24.05 19.0 27.25 Q19.0 29.4 17.05 33.55 15.1 37.65 12.05 40.4 9.0 43.15 2.7 43.7 -3.2 43.55 -6.1 42.4 -9.0 41.25 -12.1 38.9 -15.25 36.5 -16.6 32.6 L-17.3 29.95 -17.9 28.75 -19.3 25.1 -20.3 21.3 -20.5 20.35 -20.85 19.85 Q-22.15 17.55 -21.8 14.25 -21.15 11.0 -21.15 10.1 -21.15 8.65 -24.15 -2.45 L-26.35 -10.25 -27.0 -12.4 -27.55 -19.5" fill="#5383b4" fill-rule="evenodd" stroke="none"/>
    </g>
    <g id="sprite19" transform="matrix(1.0, 0.0, 0.0, 1.0, 21.9, 5.95)">
      <use ffdec:characterId="1914" ffdec:characterName="game_fla.lowerleg1_567" height="73.2" id="lowerLeg1" transform="matrix(1.0, 0.0, 0.0, 1.0, -21.9, -5.95)" width="47.45" xlink:href="#sprite20"/>
    </g>
    <g id="sprite20" transform="matrix(1.0, 0.0, 0.0, 1.0, 20.0, 37.5)">
      <use ffdec:characterId="1909" height="22.25" transform="matrix(1.0, 0.0, 0.0, 1.0, -17.55, 13.45)" width="45.0" xlink:href="#shape13"/>
      <use ffdec:characterId="1910" height="57.35" transform="matrix(1.0, 0.0, 0.0, 1.0, -20.0, -36.95)" width="41.0" xlink:href="#shape14"/>
      <use ffdec:characterId="1081" height="100.0" id="shape" transform="matrix(0.33, 0.0, 0.0, 0.7001, -16.5001, -35.0029)" width="100.0" xlink:href="#sprite2"/>
    </g>
    <g id="shape13" transform="matrix(1.0, 0.0, 0.0, 1.0, 17.55, -13.45)">
      <path d="M-0.45 14.5 L6.25 13.9 Q6.35 14.55 6.9 15.2 L3.2 17.6 3.1 17.65 2.85 17.75 1.7 18.65 1.4 19.3 Q0.7 15.4 -0.45 14.5" fill="#cbbfaf" fill-rule="evenodd" stroke="none"/>
      <path d="M6.9 15.2 L7.05 15.4 7.75 16.1 4.85 17.9 4.25 18.35 Q2.65 19.5 2.1 20.7 L2.0 21.0 1.05 20.45 Q1.05 19.75 1.2 19.55 L1.4 19.3 1.7 18.65 2.85 17.75 3.1 17.65 3.2 17.6 6.9 15.2 M8.65 16.9 L9.15 17.3 9.65 17.75 8.8 18.6 Q7.9 19.05 7.1 19.7 5.5 20.85 4.95 22.05 L4.9 22.2 3.6 21.75 3.75 21.45 Q4.4 20.3 6.1 19.0 L7.4 17.95 8.65 16.9 M11.0 19.0 L11.7 19.95 11.9 20.05 11.8 20.1 10.1 21.2 Q8.5 22.35 7.95 23.55 L6.55 22.9 6.6 22.8 Q7.25 21.65 8.95 20.35 L10.35 19.35 11.0 19.0 M13.35 20.85 L14.6 21.5 15.1 21.75 13.4 22.85 Q11.8 24.0 11.25 25.2 L9.8 24.45 9.6 24.35 9.6 24.3 Q10.25 23.15 11.95 21.85 12.7 21.25 13.35 20.85 M16.65 22.5 L17.5 22.9 18.85 23.5 Q17.4 23.65 14.65 26.35 L14.25 26.25 12.9 25.95 13.1 26.05 12.9 25.95 Q13.55 24.8 15.25 23.5 L16.65 22.5 M-17.55 30.4 L-17.5 28.6 -17.55 27.5 -17.55 27.2 -15.8 19.65 -15.55 17.95 Q-15.4 16.5 -14.95 15.85 -14.0 14.55 -11.55 13.95 L-7.7 14.1 Q-6.45 14.75 -6.45 20.1 -6.45 22.45 -8.1 23.0 L-12.45 23.45 Q-14.3 23.65 -15.1 25.65 -15.85 27.55 -15.5 30.8 L-17.55 30.4 M-6.5 32.1 Q-3.15 23.1 0.0 23.1 1.3 23.1 5.35 24.9 L10.05 27.15 Q9.3 28.0 9.15 29.55 L9.05 32.45 Q5.3 32.25 1.65 32.35 L-6.5 32.1" fill="#af5745" fill-rule="evenodd" stroke="none"/>
      <path d="M27.25 30.1 L27.45 30.95 27.45 32.1 Q21.5 36.0 14.2 35.7 L-0.1 35.3 -12.8 35.1 Q-17.4 35.0 -17.45 31.65 -12.2 32.85 0.35 33.15 L16.05 33.3 Q19.2 33.15 22.2 32.3 25.15 31.4 27.25 30.1" fill="#e5e5e5" fill-rule="evenodd" stroke="none"/>
      <path d="M7.75 16.1 L7.85 16.2 8.05 16.35 8.65 16.9 7.4 17.95 6.1 19.0 Q4.4 20.3 3.75 21.45 L3.6 21.75 4.9 22.2 4.95 22.05 Q5.5 20.85 7.1 19.7 7.9 19.05 8.8 18.6 L9.65 17.75 9.75 17.85 10.9 18.9 11.0 19.0 10.35 19.35 8.95 20.35 Q7.25 21.65 6.6 22.8 L6.55 22.9 7.95 23.55 Q8.5 22.35 10.1 21.2 L11.8 20.1 11.9 20.05 13.35 20.85 Q12.7 21.25 11.95 21.85 10.25 23.15 9.6 24.3 L9.6 24.35 9.8 24.45 11.25 25.2 Q11.8 24.0 13.4 22.85 L15.1 21.75 16.65 22.5 15.25 23.5 Q13.55 24.8 12.9 25.95 L13.1 26.05 12.9 25.95 14.25 26.25 13.45 27.3 Q12.45 28.45 12.45 29.15 12.45 29.75 12.75 30.0 L13.45 30.15 Q13.9 30.15 16.55 29.05 19.2 27.95 19.7 27.9 L23.35 27.3 Q25.0 26.8 25.4 26.05 L26.45 27.55 26.95 28.85 27.15 29.35 27.15 29.7 24.15 31.05 Q18.1 33.5 11.45 32.6 L9.05 32.45 9.15 29.55 Q9.3 28.0 10.05 27.15 L5.35 24.9 Q1.3 23.1 0.0 23.1 -3.15 23.1 -6.5 32.1 L-12.75 31.4 -15.5 30.8 Q-15.85 27.55 -15.1 25.65 -14.3 23.65 -12.45 23.45 L-8.1 23.0 Q-6.45 22.45 -6.45 20.1 -6.45 14.75 -7.7 14.1 L-11.55 13.95 -7.95 13.5 Q-2.65 13.3 -1.0 14.15 L-0.45 14.5 Q0.7 15.4 1.4 19.3 L1.2 19.55 Q1.05 19.75 1.05 20.45 L2.0 21.0 2.1 20.7 Q2.65 19.5 4.25 18.35 L4.85 17.9 7.75 16.1" fill="#b4b4b4" fill-rule="evenodd" stroke="none"/>
      <path d="M18.85 23.5 L20.9 24.35 23.8 25.4 Q24.2 25.35 25.05 25.8 L25.4 26.05 Q25.0 26.8 23.35 27.3 L19.7 27.9 Q19.2 27.95 16.55 29.05 13.9 30.15 13.45 30.15 L12.75 30.0 Q12.45 29.75 12.45 29.15 12.45 28.45 13.45 27.3 L14.25 26.25 14.65 26.35 Q17.4 23.65 18.85 23.5" fill="#cbcbcb" fill-rule="evenodd" stroke="none"/>
      <path d="M27.15 29.7 L27.25 30.1 Q25.15 31.4 22.2 32.3 19.2 33.15 16.05 33.3 L0.35 33.15 Q-12.2 32.85 -17.45 31.65 L-17.55 30.4 -15.5 30.8 -12.75 31.4 -6.5 32.1 1.65 32.35 Q5.3 32.25 9.05 32.45 L11.45 32.6 Q18.1 33.5 24.15 31.05 L27.15 29.7" fill="#666666" fill-rule="evenodd" stroke="none"/>
    </g>
    <g id="shape14" transform="matrix(1.0, 0.0, 0.0, 1.0, 20.0, 36.95)">
      <path d="M11.6 20.3 L9.7 20.4 8.9 20.3 2.65 19.15 2.4 19.1 -2.6 19.1 Q-2.3 18.05 -2.15 16.75 L-2.1 16.25 -1.8 11.5 -0.6 6.7 Q0.2 3.8 -0.05 1.9 -0.35 0.2 0.25 -2.85 L0.5 -4.0 0.95 -7.65 1.15 -9.95 -0.05 -7.45 -0.35 -4.0 Q-0.85 0.7 -1.9 4.65 -3.5 10.7 -3.85 16.75 L-3.95 19.1 -12.55 19.6 Q-11.3 18.4 -10.35 16.75 L-9.4 15.1 Q-6.9 10.9 -6.45 9.75 L-6.3 9.65 Q-7.7 10.35 -9.3 11.75 -9.65 13.0 -10.6 14.1 -12.05 15.75 -14.05 15.75 -15.25 15.75 -15.85 14.5 L-16.15 13.25 Q-16.15 11.1 -15.35 2.8 L-14.6 -4.0 -13.8 -8.75 -10.35 -19.6 -9.4 -22.65 -8.7 -25.85 -11.2 -20.35 Q-11.9 -20.55 -12.1 -21.65 L-12.4 -23.25 Q-15.3 -23.25 -16.25 -24.2 L-16.35 -24.3 -16.65 -25.1 -16.7 -26.05 -16.55 -27.5 Q-16.05 -28.3 -14.05 -28.25 -13.35 -29.75 -12.0 -31.25 L-9.85 -33.3 -9.3 -33.7 -9.8 -35.05 Q-12.0 -34.0 -13.55 -34.0 L-15.75 -33.85 Q-13.65 -35.2 -9.7 -36.05 L-1.4 -36.95 -0.25 -36.95 0.1 -36.95 3.3 -36.75 5.65 -36.65 Q7.95 -36.95 10.1 -36.05 L11.65 -35.2 13.05 -34.2 15.55 -33.6 15.55 -31.3 16.2 -27.05 15.65 -23.1 14.05 -21.3 Q10.1 -17.9 8.85 -13.85 L7.5 -9.35 10.2 -12.1 Q11.2 -12.95 12.25 -15.0 L13.7 -17.65 13.85 -17.55 13.85 -17.1 Q13.85 -15.15 12.15 -10.1 L10.25 -4.0 9.7 -1.75 8.25 6.1 Q7.7 9.8 7.7 13.35 L8.1 14.15 9.05 14.85 Q9.45 12.35 12.8 12.35 L13.55 12.4 13.8 12.75 13.6 13.1 13.6 13.15 13.35 14.25 12.8 15.75 12.35 16.75 11.95 17.6 12.7 18.3 13.2 18.95 Q13.2 19.8 12.45 20.1 L11.6 20.3 M0.45 -32.1 L0.3 -32.1 Q-0.35 -30.2 -1.1 -28.6 L-1.9 -27.05 Q-2.2 -26.55 -2.2 -23.65 -2.2 -22.9 -1.65 -21.85 L-1.4 -21.45 -0.8 -23.05 -1.05 -25.2 0.55 -31.15 0.45 -32.1 M0.1 -36.95 Q-2.2 -34.0 -2.4 -32.4 L-2.05 -32.25 Q-1.65 -32.7 -0.8 -34.45 L-0.7 -34.65 Q-0.2 -34.65 -0.3 -34.9 L-0.2 -35.45 -0.2 -35.6 0.1 -36.55 0.1 -36.95" fill="#2e5d8c" fill-rule="evenodd" stroke="none"/>
      <path d="M20.0 -23.9 L19.25 -19.8 19.1 -19.05 Q14.8 -10.95 13.4 -4.0 12.7 -0.55 12.7 2.6 12.7 6.9 13.95 8.95 15.2 10.95 15.2 14.1 L15.05 16.75 14.95 18.25 14.9 19.3 12.45 20.3 11.6 20.3 12.45 20.1 Q13.2 19.8 13.2 18.95 L12.7 18.3 11.95 17.6 12.35 16.75 12.8 15.75 13.35 14.25 13.6 13.15 13.6 13.1 13.8 12.75 13.55 12.4 12.8 12.35 Q9.45 12.35 9.05 14.85 L8.1 14.15 7.7 13.35 Q7.7 9.8 8.25 6.1 L9.7 -1.75 10.25 -4.0 12.15 -10.1 Q13.85 -15.15 13.85 -17.1 L13.85 -17.55 13.7 -17.65 12.25 -15.0 Q11.2 -12.95 10.2 -12.1 L7.5 -9.35 8.85 -13.85 Q10.1 -17.9 14.05 -21.3 L15.65 -23.1 16.2 -27.05 15.55 -31.3 15.55 -33.6 16.45 -33.6 18.5 -34.4 Q17.65 -33.55 17.3 -32.6 L17.1 -31.85 17.0 -31.15 17.3 -30.25 17.4 -29.75 Q18.85 -27.25 20.0 -23.9 M-12.55 19.6 L-15.55 19.25 Q-16.8 19.25 -17.9 19.75 L-18.05 16.75 Q-18.05 11.1 -16.55 0.45 L-15.9 -4.0 -15.05 -10.5 Q-15.05 -13.45 -15.6 -16.7 L-16.25 -20.4 -16.25 -24.2 Q-15.3 -23.25 -12.4 -23.25 L-12.1 -21.65 Q-11.9 -20.55 -11.2 -20.35 L-8.7 -25.85 -9.4 -22.65 -10.35 -19.6 -13.8 -8.75 -14.6 -4.0 -15.35 2.8 Q-16.15 11.1 -16.15 13.25 L-15.85 14.5 Q-15.25 15.75 -14.05 15.75 -12.05 15.75 -10.6 14.1 -9.65 13.0 -9.3 11.75 -7.7 10.35 -6.3 9.65 L-6.45 9.75 Q-6.9 10.9 -9.4 15.1 L-10.35 16.75 Q-11.3 18.4 -12.55 19.6 M-16.65 -25.1 Q-17.3 -25.3 -17.7 -25.7 L-17.1 -27.8 -16.3 -30.65 -16.85 -32.5 -16.35 -33.45 -15.75 -33.85 -13.55 -34.0 Q-12.0 -34.0 -9.8 -35.05 L-9.3 -33.7 -9.85 -33.3 -12.0 -31.25 Q-13.35 -29.75 -14.05 -28.25 -16.05 -28.3 -16.55 -27.5 L-16.7 -26.05 -16.65 -25.1" fill="#336699" fill-rule="evenodd" stroke="none"/>
      <path d="M18.5 -34.4 L18.35 -34.4 19.1 -35.25 19.65 -36.4 20.2 -35.05 20.45 -34.25 20.55 -34.2 20.55 -34.15 20.75 -33.2 21.0 -30.0 20.0 -23.9 Q18.85 -27.25 17.4 -29.75 L17.3 -30.25 17.0 -31.15 17.1 -31.85 17.3 -32.6 Q17.65 -33.55 18.5 -34.4 M19.1 -19.05 L17.45 -12.25 16.6 -9.55 Q16.45 -6.85 16.45 -4.0 L16.45 -3.85 15.95 17.15 15.95 18.95 14.9 19.3 14.95 18.25 15.05 16.75 15.2 14.1 Q15.2 10.95 13.95 8.95 12.7 6.9 12.7 2.6 12.7 -0.55 13.4 -4.0 14.8 -10.95 19.1 -19.05 M-17.9 19.75 L-18.25 19.9 -19.3 16.75 -20.0 14.15 Q-20.0 11.35 -18.25 -0.05 L-17.6 -4.0 -16.25 -12.0 -16.25 -20.4 -15.6 -16.7 Q-15.05 -13.45 -15.05 -10.5 L-15.9 -4.0 -16.55 0.45 Q-18.05 11.1 -18.05 16.75 L-17.9 19.75 M-17.7 -25.7 L-18.05 -26.25 -18.3 -27.85 Q-18.3 -30.0 -16.9 -32.45 L-16.85 -32.5 -16.3 -30.65 -17.1 -27.8 -17.7 -25.7" fill="#5383b4" fill-rule="evenodd" stroke="none"/>
      <path d="M-2.6 19.1 L-3.95 19.1 -3.85 16.75 Q-3.5 10.7 -1.9 4.65 -0.85 0.7 -0.35 -4.0 L-0.05 -7.45 1.15 -9.95 0.95 -7.65 0.5 -4.0 0.25 -2.85 Q-0.35 0.2 -0.05 1.9 0.2 3.8 -0.6 6.7 L-1.8 11.5 -2.1 16.25 -2.15 16.75 Q-2.3 18.05 -2.6 19.1 M0.1 -36.95 L0.1 -36.55 -0.2 -35.6 -0.2 -35.45 -0.3 -34.9 Q-0.2 -34.65 -0.7 -34.65 L-0.8 -34.45 Q-1.65 -32.7 -2.05 -32.25 L-2.4 -32.4 Q-2.2 -34.0 0.1 -36.95 M0.45 -32.1 L0.55 -31.15 -1.05 -25.2 -0.8 -23.05 -1.4 -21.45 -1.65 -21.85 Q-2.2 -22.9 -2.2 -23.65 -2.2 -26.55 -1.9 -27.05 L-1.1 -28.6 Q-0.35 -30.2 0.3 -32.1 L0.45 -32.1" fill="#2a547e" fill-rule="evenodd" stroke="none"/>
    </g>
    <g id="sprite21" transform="matrix(1.0, 0.0, 0.0, 1.0, 16.95, 16.0)">
      <use ffdec:characterId="1921" ffdec:characterName="game_fla.upperarm1_569" height="64.25" id="upperArm1" transform="matrix(1.0, 0.0, 0.0, 1.0, -16.95, -16.0)" width="31.65" xlink:href="#sprite22"/>
      <use ffdec:characterId="1928" height="73.65" id="lowerArmOuter1" transform="matrix(1.0, 0.0, 0.0, 1.0, -12.6, 34.25)" width="24.7" xlink:href="#sprite23"/>
    </g>
    <g id="sprite22" transform="matrix(1.0, 0.0, 0.0, 1.0, 15.85, 33.05)">
      <use ffdec:characterId="1917" height="62.8" transform="matrix(1.0, 0.0, 0.0, 1.0, -15.85, -31.6)" width="31.65" xlink:href="#shape15"/>
      <use ffdec:characterId="1081" height="100.0" id="shape" transform="matrix(0.28, 0.0, 0.0, 0.58, -13.9984, -28.9986)" width="100.0" xlink:href="#sprite2"/>
    </g>
    <g id="shape15" transform="matrix(1.0, 0.0, 0.0, 1.0, 15.85, 31.6)">
      <path d="M14.15 -20.5 L14.0 -20.25 13.5 -17.8 13.0 -16.6 12.75 -14.8 13.5 -15.35 Q14.25 -16.1 14.6 -17.55 14.95 -19.05 14.15 -20.5 M5.5 -13.05 Q1.95 -10.05 -2.5 -10.05 -9.4 -10.05 -11.8 -13.8 -12.95 -15.55 -13.0 -18.45 L-13.5 -14.65 -13.45 -14.1 -13.5 -13.4 Q-13.4 -11.4 -12.5 -9.5 -10.75 -5.65 -6.85 -5.65 -0.45 -5.65 2.15 -8.25 L3.2 -9.4 3.55 -9.8 5.65 -12.55 5.8 -13.3 5.5 -13.05 M15.8 -11.3 Q15.8 -9.2 13.75 0.25 L11.7 9.8 11.4 14.25 10.85 18.25 10.45 20.2 9.6 21.75 Q7.05 25.95 3.65 29.15 2.25 31.05 0.05 31.2 -2.05 31.2 -4.2 30.25 L-7.05 28.75 -8.45 27.45 Q-9.2 26.5 -9.55 25.55 L-10.7 22.8 Q-12.9 17.0 -12.95 12.45 L-13.45 10.25 Q-15.6 0.25 -15.85 -8.25 -16.15 -16.75 -12.3 -24.25 -8.45 -31.75 0.8 -31.6 10.05 -31.45 13.95 -23.3 15.8 -19.5 15.8 -11.3 M-7.6 9.05 L-9.8 6.35 Q-11.5 3.3 -13.3 0.6 L-13.75 -0.45 -13.7 1.05 -13.7 2.8 -13.5 4.2 -12.45 6.6 -12.3 7.25 -12.05 8.1 Q-11.95 8.75 -11.15 9.55 -10.5 10.2 -8.7 11.3 -7.85 11.3 -6.2 13.0 L-5.85 13.35 -6.0 11.6 Q-6.1 10.8 -7.6 9.05" fill="#583a30" fill-rule="evenodd" stroke="none"/>
      <path d="M14.15 -20.5 Q14.95 -19.05 14.6 -17.55 14.25 -16.1 13.5 -15.35 L12.75 -14.8 13.0 -16.6 13.5 -17.8 14.0 -20.25 14.15 -20.5 M5.5 -13.05 L5.8 -13.3 5.65 -12.55 3.55 -9.8 3.2 -9.4 2.15 -8.25 Q-0.45 -5.65 -6.85 -5.65 -10.75 -5.65 -12.5 -9.5 -13.4 -11.4 -13.5 -13.4 L-13.45 -14.1 -13.5 -14.65 -13.0 -18.45 Q-12.95 -15.55 -11.8 -13.8 -9.4 -10.05 -2.5 -10.05 1.95 -10.05 5.5 -13.05 M-7.6 9.05 Q-6.1 10.8 -6.0 11.6 L-5.85 13.35 -6.2 13.0 Q-7.85 11.3 -8.7 11.3 -10.5 10.2 -11.15 9.55 -11.95 8.75 -12.05 8.1 L-12.3 7.25 -12.45 6.6 -13.5 4.2 -13.7 2.8 -13.7 1.05 -13.75 -0.45 -13.3 0.6 Q-11.5 3.3 -9.8 6.35 L-7.6 9.05" fill="#4e332a" fill-rule="evenodd" stroke="none"/>
    </g>
    <g id="sprite23" transform="matrix(1.0, 0.0, 0.0, 1.0, 12.6, 7.7)">
      <use ffdec:characterId="1927" ffdec:characterName="game_fla.lowerarm1_571" height="73.65" id="lowerArm1" transform="matrix(1.0, 0.0, 0.0, 1.0, -12.6, -7.7)" width="24.7" xlink:href="#sprite24"/>
    </g>
    <g id="sprite24" transform="matrix(1.0, 0.0, 0.0, 1.0, 13.15, 34.55)">
      <use ffdec:characterId="1922" height="51.7" transform="matrix(1.0, 0.0, 0.0, 1.0, -13.15, -34.55)" width="24.7" xlink:href="#shape16"/>
      <use ffdec:characterId="1925" ffdec:characterName="game_fla.hand1_572" height="22.95" id="hand" transform="matrix(1.0, 0.0, 0.0, 1.0, -9.25, 16.15)" width="18.65" xlink:href="#sprite25"/>
      <use ffdec:characterId="1081" height="100.0" id="shape" transform="matrix(0.2, 0.0, 0.0, 0.65, -9.9991, -32.5012)" width="100.0" xlink:href="#sprite2"/>
    </g>
    <g id="shape16" transform="matrix(1.0, 0.0, 0.0, 1.0, 13.15, 34.55)">
      <path d="M-11.7 -23.4 L-11.7 -23.6 -11.9 -25.35 -11.95 -25.95 -11.85 -26.85 -11.85 -26.9 -11.0 -26.0 -10.15 -25.0 -9.7 -23.35 -9.25 -21.75 -9.25 -19.75 Q-10.8 -20.35 -11.3 -22.2 L-11.7 -23.4" fill="#462e26" fill-rule="evenodd" stroke="none"/>
      <path d="M-11.85 -26.9 L-11.8 -27.05 -11.8 -27.1 Q-8.9 -31.05 -6.75 -32.55 -3.9 -34.55 0.2 -34.55 L3.8 -34.2 Q5.0 -33.9 7.05 -32.8 L8.3 -31.95 8.75 -31.5 Q9.4 -30.8 9.65 -29.85 11.5 -24.3 11.55 -21.4 11.55 -18.2 9.7 -7.25 7.85 3.65 7.6 8.5 L7.15 16.65 7.25 17.15 -4.05 17.15 -3.75 16.9 Q-4.05 16.95 -3.2 11.25 -2.3 5.1 -5.5 -1.8 -5.35 -1.0 -5.35 2.55 L-5.5 11.6 Q-5.65 17.05 -4.85 17.15 L-6.35 17.15 -6.35 16.6 Q-6.35 13.3 -8.65 4.45 L-11.45 -6.2 -13.05 -14.05 -13.15 -16.2 Q-13.2 -18.1 -12.55 -20.15 L-11.7 -23.4 -11.3 -22.2 Q-10.8 -20.35 -9.25 -19.75 L-9.25 -21.75 -9.7 -23.35 -10.15 -25.0 -11.0 -26.0 -11.85 -26.9 M-4.4 -23.55 L-4.2 -23.1 -4.4 -23.55 M1.0 -8.95 Q1.5 -12.0 1.1 -14.95 L0.35 -18.85 Q-0.35 -21.1 -1.65 -23.2 -4.05 -27.05 -3.9 -31.4 L-3.8 -32.3 -4.0 -33.05 -4.6 -32.35 -5.9 -30.95 Q-6.6 -30.35 -6.6 -28.55 -6.6 -27.7 -5.65 -25.7 L-4.5 -23.5 -4.1 -22.85 -2.7 -19.0 Q-2.05 -16.95 -1.35 -13.0 -0.65 -9.05 -1.25 -1.95 0.45 -5.9 1.0 -8.95" fill="#583a30" fill-rule="evenodd" stroke="none"/>
      <path d="M-4.05 17.15 L-4.85 17.15 Q-5.65 17.05 -5.5 11.6 L-5.35 2.55 Q-5.35 -1.0 -5.5 -1.8 -2.3 5.1 -3.2 11.25 -4.05 16.95 -3.75 16.9 L-4.05 17.15 M1.0 -8.95 Q0.45 -5.9 -1.25 -1.95 -0.65 -9.05 -1.35 -13.0 -2.05 -16.95 -2.7 -19.0 L-4.1 -22.85 -4.5 -23.5 -5.65 -25.7 Q-6.6 -27.7 -6.6 -28.55 -6.6 -30.35 -5.9 -30.95 L-4.6 -32.35 -4.0 -33.05 -3.8 -32.3 -3.9 -31.4 Q-4.05 -27.05 -1.65 -23.2 -0.35 -21.1 0.35 -18.85 L1.1 -14.95 Q1.5 -12.0 1.0 -8.95 M-4.4 -23.55 L-4.2 -23.1 -4.4 -23.55" fill="#4e332a" fill-rule="evenodd" stroke="none"/>
    </g>
    <g id="sprite25" transform="matrix(1.0, 0.0, 0.0, 1.0, 9.65, 9.15)">
      <use ffdec:characterId="1923" height="18.35" transform="matrix(1.0, 0.0, 0.0, 1.0, -8.35, -9.15)" width="16.7" xlink:href="#shape17"/>
    </g>
    <g id="shape17" transform="matrix(1.0, 0.0, 0.0, 1.0, 8.35, 9.15)">
      <path d="M-4.25 -9.15 L6.75 -9.15 7.15 -6.25 7.6 -4.55 Q8.6 -1.3 8.3 0.35 L8.15 1.0 Q7.9 3.7 7.35 5.0 L6.6 6.15 5.8 6.85 5.5 7.0 4.7 7.25 3.9 7.15 2.95 5.65 3.3 5.3 3.4 4.85 3.1 4.0 1.7 4.25 0.15 4.6 -1.05 3.15 -2.05 2.75 -2.05 2.7 -2.2 2.75 Q-2.65 2.8 -2.65 2.2 L-2.75 1.45 -3.0 1.1 -3.75 0.75 -4.5 -0.3 -5.2 -1.05 -5.4 -1.6 -5.25 -5.6 Q-4.45 -6.45 -4.5 -7.3 L-4.45 -8.45 -4.25 -9.15 M-6.8 -8.35 L-6.8 -9.15 -5.9 -9.15 -5.85 -8.9 -6.8 -8.35" fill="#583a30" fill-rule="evenodd" stroke="none"/>
      <path d="M-6.55 2.55 Q-8.7 1.85 -8.3 -0.15 L-7.4 -0.85 Q-7.25 -2.0 -7.35 -3.1 L-7.4 -4.25 Q-7.7 -6.5 -6.8 -8.35 L-5.85 -8.9 -5.25 -5.6 -5.4 -1.6 -5.2 -1.05 -4.5 -0.3 -4.3 0.85 Q-5.0 2.2 -6.55 2.55 M1.7 4.25 L3.1 4.0 3.4 4.85 3.3 5.3 2.95 5.65 2.05 6.2 0.3 7.65 -1.65 7.95 -0.85 6.9 Q0.1 6.15 1.15 5.6 L1.7 4.25 M-3.8 5.85 L-4.65 5.6 -5.0 5.25 -5.1 5.1 -5.0 5.0 -2.05 2.75 -2.2 4.25 -2.35 4.9 -3.8 5.85" fill="#462e26" fill-rule="evenodd" stroke="none"/>
      <path d="M4.7 7.25 L3.8 7.9 Q2.7 8.1 1.8 8.8 0.8 9.35 -0.15 9.1 -1.25 8.9 -1.65 7.95 L-2.85 7.7 Q-3.2 7.65 -3.55 7.4 L-3.75 7.3 -4.35 6.45 Q-5.0 5.25 -5.35 5.25 L-5.9 5.0 Q-7.35 4.25 -6.55 2.55 -5.0 2.2 -4.3 0.85 L-4.5 -0.3 -3.75 0.75 -3.0 1.1 -2.75 1.45 -2.65 2.2 Q-2.65 2.8 -2.2 2.75 L-2.05 2.75 -1.05 3.15 0.15 4.6 1.7 4.25 1.15 5.6 Q0.1 6.15 -0.85 6.9 L-1.65 7.95 0.3 7.65 2.05 6.2 2.95 5.65 3.9 7.15 4.7 7.25 M-5.9 -9.15 L-4.25 -9.15 -4.45 -8.45 -4.5 -7.3 Q-4.45 -6.45 -5.25 -5.6 L-5.85 -8.9 -5.9 -9.15 M-3.8 5.85 L-2.35 4.9 -2.2 4.25 -2.05 2.75 -5.0 5.0 -5.1 5.1 -5.0 5.25 -4.65 5.6 -3.8 5.85" fill="#4e332a" fill-rule="evenodd" stroke="none"/>
    </g>
  </defs>
</svg>
