<?xml version="1.0" encoding="UTF-8" standalone="no"?>
<svg xmlns:ffdec="https://www.free-decompiler.com/flash" xmlns:xlink="http://www.w3.org/1999/xlink" ffdec:objectType="frame" height="359.55px" width="657.25px" xmlns="http://www.w3.org/2000/svg">
  <g transform="matrix(1.0, 0.0, 0.0, 1.0, 242.7, 135.45)">
    <use ffdec:characterId="990" height="359.55" id="mc" transform="matrix(1.0, 0.0, 0.0, 1.0, -242.7, -135.45)" width="657.25" xlink:href="#sprite0"/>
  </g>
  <defs>
    <g id="sprite0" transform="matrix(1.0, 0.0, 0.0, 1.0, 242.7, 135.45)">
      <use ffdec:characterId="948" height="196.25" transform="matrix(1.0, 0.0, 0.0, 1.0, -18.85, -77.5)" width="140.0" xlink:href="#shape0"/>
      <use ffdec:characterId="950" height="157.35" id="vehicle" transform="matrix(1.0, 0.0, 0.0, 1.0, -75.4, -22.25)" width="176.4" xlink:href="#sprite1"/>
    </g>
    <g id="shape0" transform="matrix(1.0, 0.0, 0.0, 1.0, 18.85, 77.5)">
      <path d="M46.05 -69.2 L46.85 -72.0 Q48.0 -74.6 49.9 -76.8 L50.4 -77.0 50.85 -77.4 Q53.8 -77.9 55.7 -75.85 L57.35 -75.25 Q60.05 -74.1 60.85 -71.5 L61.0 -70.85 60.65 -69.9 60.6 -69.9 54.8 -73.85 54.15 -73.8 Q56.15 -72.8 56.35 -70.55 L55.7 -71.2 51.3 -75.05 49.5 -73.15 46.05 -69.2 M23.75 37.85 L24.35 37.9 25.25 38.0 23.75 38.0 23.75 37.85 M120.45 101.6 L120.65 101.75 120.85 102.1 120.9 102.1 120.9 102.3 120.95 102.35 120.95 102.85 120.9 102.9 120.9 103.2 120.85 103.55 Q120.65 104.7 120.2 104.85 L119.95 104.6 120.05 105.25 119.8 105.65 119.65 105.7 119.45 105.8 119.45 106.05 Q119.25 106.6 118.3 106.95 L118.0 107.1 116.25 107.45 116.15 107.4 115.75 107.05 115.7 106.95 115.75 106.95 116.25 106.15 116.6 105.7 116.8 105.05 117.7 106.05 118.05 105.85 118.3 105.8 Q118.95 105.55 118.8 104.45 L118.65 103.75 118.8 103.7 119.4 104.35 119.8 104.45 120.15 104.4 Q120.35 103.9 120.1 103.3 L120.05 103.25 119.35 102.05 119.65 101.6 119.75 101.45 Q120.15 101.3 120.45 101.6 M83.65 103.65 L83.35 103.1 81.7 99.9 82.25 99.65 82.3 99.65 82.4 99.6 83.75 102.3 83.7 102.6 83.65 103.65 M4.55 -42.25 L4.3 -41.65 Q3.7 -40.25 3.55 -38.75 3.45 -37.75 3.5 -36.6 L2.6 -37.0 Q1.8 -37.45 1.15 -38.75 L0.45 -40.15 0.75 -40.65 Q1.8 -42.15 1.75 -43.75 L2.4 -45.1 2.45 -45.2 2.3 -45.65 2.15 -46.4 1.85 -46.85 2.75 -46.45 3.0 -46.4 3.4 -45.9 3.65 -45.1 Q3.95 -43.6 4.55 -42.25 M3.95 -36.4 Q4.45 -37.8 5.15 -37.95 L6.1 -35.55 6.2 -35.25 5.85 -35.65 4.3 -36.3 3.95 -36.4 M7.85 -32.15 L8.5 -32.95 10.25 -31.05 10.25 -30.75 10.3 -30.5 10.5 -29.25 9.75 -30.85 9.6 -31.25 9.55 -31.4 9.5 -31.4 9.3 -31.05 9.35 -29.65 9.65 -28.15 8.8 -29.75 7.85 -32.15 M33.3 -32.9 L35.05 -34.9 Q34.8 -32.85 35.4 -30.85 L37.05 -30.25 39.2 -28.7 40.05 -27.6 37.05 -27.65 35.85 -27.7 34.15 -27.7 31.75 -26.3 30.65 -25.75 30.05 -25.45 28.25 -24.75 29.8 -26.5 30.7 -27.6 31.0 -28.05 30.4 -31.0 31.5 -31.05 33.3 -32.9 M1.75 -29.3 L1.75 -30.35 Q1.6 -32.05 0.5 -34.35 L0.15 -34.95 0.05 -35.2 -0.25 -35.7 -0.3 -35.8 -0.35 -35.9 1.95 -33.85 3.95 -31.8 5.05 -30.45 5.3 -30.1 5.7 -29.5 5.8 -29.35 6.3 -28.55 7.05 -27.2 Q3.6 -28.9 2.2 -29.2 L1.75 -29.3 M15.7 -14.1 Q14.95 -14.8 15.25 -15.4 L15.55 -15.7 15.65 -15.85 15.7 -15.85 16.25 -15.35 16.2 -15.25 15.8 -14.25 15.7 -14.1 M16.25 -12.9 L16.65 -12.65 17.2 -12.5 17.6 -12.25 Q17.35 -11.9 17.65 -10.55 L17.75 -10.3 Q17.2 -9.9 16.5 -10.3 15.15 -11.0 15.6 -11.95 L16.25 -12.9 M18.8 -8.65 L19.4 -8.6 20.25 -8.6 20.75 -7.4 Q21.15 -6.45 22.0 -6.05 L22.45 -6.0 Q21.55 -5.1 19.7 -5.75 18.15 -6.6 18.8 -8.65 M27.95 -18.8 L32.1 -20.75 Q34.25 -21.7 36.35 -22.35 L37.7 -22.75 36.7 -22.1 36.4 -21.9 Q34.55 -20.75 32.45 -19.7 L29.55 -18.2 27.95 -18.8 M11.05 38.25 L9.95 38.3 10.35 38.25 11.05 38.25 M31.6 60.1 L31.65 60.1 34.0 60.8 31.9 61.05 31.6 60.1 M25.0 61.9 L25.1 61.25 24.75 60.6 Q24.4 60.45 24.2 60.15 L24.25 60.15 25.3 59.85 26.2 59.6 27.95 59.2 28.15 59.3 28.75 59.45 Q29.65 60.2 29.75 61.3 L26.9 61.65 25.0 61.9 M115.0 107.2 L115.55 107.6 115.6 107.95 115.5 108.4 115.05 108.65 114.45 108.85 114.15 108.95 113.15 109.0 112.95 108.7 112.9 108.65 113.7 106.45 113.9 105.9 114.25 105.8 114.3 105.85 114.5 106.5 114.75 106.9 114.8 106.95 114.75 107.0 115.0 107.2" fill="#e2b181" fill-rule="evenodd" stroke="none"/>
      <path d="M60.6 -69.9 L60.5 -69.45 Q60.1 -68.5 59.3 -67.5 L58.8 -66.8 57.9 -66.55 52.95 -68.25 52.4 -65.85 Q51.55 -65.45 50.7 -65.2 49.95 -64.9 48.45 -65.8 L48.55 -64.3 48.65 -64.25 48.9 -64.1 49.2 -63.9 49.35 -62.9 49.05 -63.0 45.25 -64.7 45.45 -65.95 45.9 -68.4 45.95 -68.85 46.0 -69.05 46.0 -69.1 46.05 -69.2 49.5 -73.15 51.3 -75.05 55.7 -71.2 56.35 -70.55 Q56.15 -72.8 54.15 -73.8 L54.8 -73.85 60.6 -69.9 M56.85 -65.3 L56.85 -65.15 56.8 -65.1 56.85 -65.3 M55.4 -63.0 L54.9 -61.95 54.65 -61.5 54.55 -61.4 54.5 -61.3 54.45 -61.2 54.4 -61.1 54.35 -61.0 54.3 -60.9 54.25 -60.8 54.2 -60.75 53.5 -61.05 53.8 -61.7 54.2 -62.2 54.85 -63.15 55.4 -63.0 M51.9 -54.75 L50.9 -50.4 50.2 -47.2 49.2 -47.95 49.6 -49.9 Q50.0 -52.25 50.7 -54.5 L51.9 -54.75 M49.35 -42.9 L48.75 -39.8 47.75 -35.5 46.3 -30.8 Q45.35 -27.95 43.7 -25.65 L39.75 -20.95 39.2 -20.35 38.5 -20.8 Q37.5 -19.55 35.65 -19.45 L33.75 -19.1 32.7 -18.8 30.05 -18.05 29.55 -18.2 32.45 -19.7 Q34.55 -20.75 36.4 -21.9 L36.7 -22.1 37.7 -22.75 36.35 -22.35 Q34.25 -21.7 32.1 -20.75 L27.95 -18.8 26.15 -19.45 30.55 -21.8 26.05 -23.45 26.3 -24.7 22.25 -24.6 19.3 -25.1 21.25 -26.0 21.5 -25.95 22.0 -25.9 22.05 -26.35 24.15 -27.05 25.8 -27.5 26.25 -28.3 24.8 -28.85 24.55 -28.95 24.65 -29.8 29.35 -30.85 29.55 -30.85 29.6 -32.75 Q29.85 -35.75 31.25 -38.05 L33.85 -42.6 37.65 -48.6 40.0 -52.95 Q41.9 -50.05 44.15 -47.7 43.6 -45.85 43.85 -45.45 46.25 -41.0 45.45 -35.95 L44.75 -32.8 Q46.85 -38.2 48.25 -43.75 L49.35 -42.9 M18.2 -13.95 Q20.45 -12.35 23.8 -10.1 L23.8 -10.05 23.75 -10.05 Q23.1 -8.75 22.45 -8.3 22.9 -6.8 22.65 -6.35 L22.45 -6.0 22.0 -6.05 Q21.15 -6.45 20.75 -7.4 L20.25 -8.6 19.4 -8.6 18.8 -8.65 19.4 -10.0 19.1 -10.95 Q18.35 -10.55 17.95 -10.5 L17.8 -10.3 17.75 -10.3 17.65 -10.55 Q17.35 -11.9 17.6 -12.25 L17.2 -12.5 16.65 -12.65 16.25 -12.9 16.7 -13.5 15.7 -14.1 15.8 -14.25 16.2 -15.25 16.25 -15.35 17.45 -14.45 18.2 -13.95 M54.35 -6.8 L57.65 -7.0 50.9 -4.9 50.25 -5.15 49.1 -5.3 49.2 -5.45 49.6 -5.75 Q50.2 -6.2 51.85 -6.15 53.65 -6.1 54.35 -6.8 M65.4 -8.45 L74.8 -12.15 76.45 -11.75 78.05 -10.8 80.65 -11.35 79.75 -10.6 80.75 -9.05 81.95 -7.55 81.95 -7.5 81.2 -6.1 Q82.45 -5.4 82.25 -4.6 L82.15 -4.2 82.1 -3.75 81.55 -3.25 81.35 -3.1 80.75 0.7 80.05 0.45 Q77.55 -0.3 75.0 -0.45 L71.6 -0.85 71.1 -0.95 70.45 -1.05 67.95 -1.35 66.95 -5.15 66.95 -5.2 67.4 -5.1 67.75 -5.5 67.9 -5.95 70.7 -8.35 67.45 -8.65 67.3 -8.65 67.15 -8.65 66.5 -8.5 66.1 -8.35 66.05 -8.35 65.4 -8.45 M68.5 0.95 L67.55 0.8 67.25 0.95 Q63.0 1.45 57.45 3.15 L56.8 2.65 60.45 1.25 Q63.85 -0.2 67.1 0.55 L67.05 0.45 68.5 0.9 68.25 0.85 68.5 0.95 M53.0 4.6 L49.8 5.7 49.75 5.0 50.0 4.35 50.3 4.35 51.6 4.0 52.15 4.15 Q52.8 4.3 53.0 4.6 M94.2 92.9 L97.0 97.5 97.05 98.1 97.8 98.85 99.3 100.7 Q100.0 101.1 102.25 101.35 L102.85 101.5 102.85 101.45 108.05 101.9 108.2 101.9 108.8 101.85 111.1 101.8 114.5 101.75 115.35 101.5 116.7 100.5 117.95 100.35 Q118.75 100.2 119.45 100.7 L120.45 101.6 Q120.15 101.3 119.75 101.45 L119.65 101.6 119.35 102.05 120.05 103.25 120.1 103.3 Q120.35 103.9 120.15 104.4 L119.8 104.45 119.4 104.35 118.8 103.7 118.65 103.75 118.8 104.45 Q118.95 105.55 118.3 105.8 L118.05 105.85 117.7 106.05 116.8 105.05 116.6 105.7 116.25 106.15 115.75 106.95 115.7 106.95 115.5 106.95 115.0 107.2 114.75 107.0 114.8 106.95 114.75 106.9 114.5 106.5 114.3 105.85 114.25 105.8 113.9 105.9 113.7 106.45 112.9 108.65 112.95 108.7 112.35 109.0 111.45 109.4 111.1 109.3 111.0 109.3 108.95 108.95 108.8 109.0 Q101.0 110.55 91.85 116.25 90.3 117.5 88.35 117.35 86.85 117.25 85.15 116.3 L85.9 117.0 Q85.15 116.75 84.35 116.3 L83.95 115.6 83.8 115.3 Q83.1 113.5 83.65 103.65 L83.7 102.6 83.75 102.3 82.4 99.6 81.65 98.15 81.15 97.05 80.6 95.95 Q78.9 92.45 75.95 89.0 L74.7 87.6 73.35 86.15 71.55 84.5 70.2 83.2 67.1 80.15 67.75 80.4 68.2 80.8 68.4 81.25 68.5 81.1 70.4 82.9 73.5 86.05 74.65 87.3 76.1 88.9 76.85 89.75 Q78.6 91.65 80.9 92.85 80.45 89.95 78.85 86.7 L77.85 84.85 77.0 83.35 76.0 81.35 75.1 79.3 74.8 78.75 74.9 78.65 74.5 76.65 74.45 75.9 74.45 75.7 74.2 75.65 70.1 71.2 69.95 73.15 69.55 72.2 69.35 71.65 Q67.5 72.7 66.15 71.15 64.4 68.75 66.2 67.45 L66.3 67.4 69.2 67.5 69.75 67.95 Q70.85 67.0 73.3 68.45 L73.45 70.9 Q73.85 69.45 75.2 68.95 L75.8 68.8 Q76.15 68.85 76.6 69.2 L80.25 75.3 81.4 77.7 Q81.85 77.95 82.3 78.5 L87.1 86.0 87.8 86.65 85.65 81.7 85.55 81.5 84.2 78.5 83.9 77.95 82.55 75.05 82.05 73.95 82.0 73.9 Q81.75 71.25 81.05 68.65 L81.1 68.65 81.05 68.25 80.9 68.15 80.25 66.1 80.15 65.9 80.2 65.85 80.4 66.35 81.2 68.1 82.65 71.5 83.3 72.95 84.35 75.45 84.7 76.3 85.05 77.05 86.1 79.05 86.8 80.5 87.65 82.2 89.3 84.9 92.0 89.3 92.7 90.45 94.2 92.9 M120.65 101.75 L120.75 101.85 120.85 102.1 120.65 101.75 M120.95 102.35 L121.0 102.8 120.95 102.85 120.95 102.35 M120.9 102.9 L121.0 103.25 120.9 103.2 120.9 102.9 M-8.85 -30.95 L-8.55 -33.0 -7.6 -36.3 -6.2 -39.85 -5.9 -40.4 -5.25 -41.55 -4.55 -41.8 Q-3.3 -42.35 -2.3 -42.95 L-2.45 -40.25 -1.85 -39.85 -1.25 -40.95 0.05 -39.65 0.45 -40.15 1.15 -38.75 Q1.8 -37.45 2.6 -37.0 L3.5 -36.6 3.5 -36.3 3.8 -36.0 3.95 -36.4 4.3 -36.3 5.85 -35.65 6.2 -35.25 7.05 -32.25 7.4 -31.15 7.85 -32.15 8.8 -29.75 9.65 -28.15 9.35 -29.65 9.3 -31.05 9.5 -31.4 9.55 -31.4 9.6 -31.25 9.75 -30.85 10.5 -29.25 12.55 -22.65 9.95 -25.25 8.5 -26.25 7.05 -27.2 6.3 -28.55 5.8 -29.35 5.7 -29.5 5.3 -30.1 5.05 -30.45 3.95 -31.8 1.95 -33.85 -0.35 -35.9 -0.3 -35.8 -0.25 -35.7 0.05 -35.2 0.15 -34.95 0.5 -34.35 Q1.6 -32.05 1.75 -30.35 L1.75 -29.3 -1.4 -29.8 -2.7 -29.85 -6.4 -29.85 -8.75 -29.75 -8.8 -29.7 -9.1 -29.5 -8.85 -30.95 M-3.3 -64.9 L-2.95 -65.3 Q-1.1 -67.15 1.15 -67.65 L6.05 -68.1 10.55 -67.6 Q12.5 -67.35 14.35 -66.5 L15.95 -65.6 18.05 -63.55 19.2 -62.2 19.7 -61.1 20.1 -58.9 20.1 -58.7 20.15 -58.65 20.15 -57.25 20.15 -56.95 20.4 -56.05 20.8 -54.35 20.6 -53.75 20.0 -53.5 19.65 -53.6 19.9 -53.8 20.35 -54.3 20.25 -55.05 Q19.3 -55.9 18.2 -56.15 L17.3 -56.35 11.8 -54.95 Q13.05 -57.2 12.5 -59.75 L12.05 -60.95 Q12.45 -57.85 10.4 -55.95 L10.35 -54.9 11.1 -53.9 11.4 -53.75 11.25 -53.2 Q12.8 -51.05 16.1 -50.75 L17.5 -49.95 Q18.8 -50.95 19.65 -52.45 L19.85 -52.55 20.0 -51.95 21.35 -48.9 21.75 -47.25 21.9 -46.25 21.3 -45.95 20.15 -46.25 19.05 -46.3 18.2 -46.4 17.95 -46.35 18.05 -46.3 18.4 -45.75 16.8 -45.65 16.8 -45.7 17.25 -46.6 17.75 -46.75 18.1 -46.55 18.15 -47.65 18.8 -47.9 Q19.6 -47.9 18.85 -48.35 L17.9 -48.85 16.1 -47.2 15.95 -45.25 13.8 -43.8 13.65 -43.9 13.25 -44.05 13.1 -44.1 12.95 -44.1 Q13.15 -44.9 13.0 -45.8 L12.05 -44.15 11.6 -44.15 11.35 -44.15 10.95 -44.25 Q10.15 -44.15 9.4 -45.1 L9.2 -45.05 9.05 -45.35 8.95 -46.25 8.95 -46.9 Q8.95 -49.5 7.9 -52.0 7.55 -55.0 8.65 -57.85 L9.55 -60.8 6.9 -62.5 6.4 -62.2 Q4.35 -61.15 1.9 -61.65 L-0.1 -62.2 Q-1.6 -62.7 -3.0 -63.5 L-3.25 -64.45 -3.25 -64.5 -3.3 -64.9 M19.25 -44.5 L19.3 -44.4 19.2 -44.25 19.15 -44.15 18.85 -44.1 19.25 -44.4 19.15 -44.5 19.25 -44.5 M19.1 -43.9 L19.65 -43.2 19.35 -41.9 17.5 -41.85 17.2 -42.5 17.25 -42.8 17.7 -43.1 19.1 -43.9 M42.25 -57.45 L43.75 -60.85 47.5 -58.6 45.9 -58.1 42.25 -57.45 M45.55 -51.35 L43.65 -53.4 46.6 -53.85 45.55 -51.35 M3.2 -64.3 L3.35 -64.8 3.05 -65.25 2.35 -65.4 Q2.0 -65.35 1.8 -65.1 1.5 -64.85 1.55 -64.55 1.6 -64.25 1.95 -64.15 L2.55 -64.05 3.2 -64.3 M13.95 -62.25 L14.1 -62.8 13.85 -63.25 13.25 -63.4 Q12.95 -63.35 12.8 -63.1 12.55 -62.9 12.6 -62.6 L12.8 -62.2 12.9 -62.1 13.45 -62.0 13.9 -62.2 13.95 -62.25 M2.3 -50.9 L0.6 -52.25 -0.3 -51.25 0.0 -50.9 1.1 -51.35 1.8 -50.65 1.55 -48.7 2.95 -48.35 3.0 -48.4 3.3 -48.9 3.05 -49.55 2.1 -49.4 2.7 -50.25 2.3 -50.9 M1.85 -46.85 L1.2 -47.65 0.75 -48.25 -0.45 -50.05 -0.95 -51.0 -1.05 -51.4 -1.0 -52.2 -0.55 -52.95 -0.2 -53.3 0.6 -53.35 Q2.45 -52.65 3.55 -50.9 L4.0 -50.0 4.1 -49.9 5.3 -47.45 5.45 -47.0 5.45 -46.9 5.3 -46.2 4.55 -42.25 Q3.95 -43.6 3.65 -45.1 L3.4 -45.9 3.0 -46.4 2.75 -46.45 1.85 -46.85 M16.35 -59.85 Q16.3 -60.45 15.7 -60.15 L15.2 -59.4 Q15.6 -58.8 16.35 -58.7 L16.35 -59.85 M33.3 -32.9 L31.5 -31.05 30.4 -31.0 31.0 -28.05 30.7 -27.6 29.8 -26.5 28.25 -24.75 30.05 -25.45 30.65 -25.75 31.75 -26.3 34.15 -27.7 35.85 -27.7 37.05 -27.65 40.05 -27.6 39.2 -28.7 37.05 -30.25 35.4 -30.85 Q34.8 -32.85 35.05 -34.9 L33.3 -32.9 M51.95 -2.65 Q51.7 -2.95 51.65 -3.4 L51.4 -4.45 62.0 -6.15 62.5 -6.85 63.9 -7.85 Q64.6 -7.75 64.9 -6.2 65.2 -3.9 65.85 -1.45 L65.75 -1.15 63.6 -0.65 Q60.3 0.3 56.95 1.35 57.45 0.15 58.95 -0.55 L57.35 -1.1 57.05 -1.15 57.0 -1.25 Q56.5 -0.4 55.35 0.3 53.95 1.25 53.5 1.2 52.4 0.75 52.4 0.0 L52.4 -0.4 Q52.55 -1.0 53.15 -1.6 L52.25 -2.2 51.95 -2.65 M91.15 95.1 L90.45 93.15 90.1 92.3 89.55 90.8 89.5 90.75 85.75 86.7 85.45 86.35 Q85.5 87.6 86.65 90.05 L87.5 91.75 87.7 92.2 87.45 91.9 86.8 91.25 87.35 92.1 87.8 92.8 88.25 93.4 88.65 93.95 89.6 95.5 89.9 95.85 90.75 96.65 90.9 96.75 91.1 96.85 91.35 97.15 91.55 97.35 92.2 97.1 92.4 97.4 93.3 99.35 94.35 102.25 94.8 104.6 94.55 107.75 94.45 108.05 Q93.8 108.8 92.95 108.6 L92.75 108.5 91.45 108.05 90.2 105.9 Q89.55 104.45 89.3 102.9 L89.2 99.55 88.45 98.8 87.2 99.0 88.1 98.7 88.0 98.4 87.5 97.15 87.45 97.05 87.2 96.45 87.2 97.2 87.2 97.35 87.1 98.2 87.05 98.3 87.0 98.8 87.0 98.9 87.0 99.1 86.3 99.35 85.9 100.15 87.25 103.75 88.85 106.95 Q90.05 109.1 91.6 111.15 L91.95 111.6 92.2 111.15 95.65 111.0 96.7 109.2 96.5 108.65 97.4 107.35 97.05 106.3 96.55 106.5 97.4 104.0 93.2 97.1 93.9 97.2 91.15 95.1 M44.0 2.85 Q43.25 2.6 43.35 1.7 43.7 0.3 45.55 0.45 48.85 0.9 48.5 2.45 L48.35 2.8 48.2 2.85 44.0 2.85 M47.25 54.85 Q47.7 54.55 48.35 54.55 L48.65 54.6 Q51.0 54.95 51.5 56.25 L51.5 56.3 51.55 57.45 51.5 57.65 Q48.2 55.9 47.7 55.85 L46.5 55.6 Q46.8 55.1 47.25 54.85 M35.75 53.15 L36.35 53.55 35.4 53.55 34.7 53.5 32.2 53.55 32.35 53.45 Q33.55 52.6 34.3 52.7 35.2 52.85 35.75 53.15 M69.8 63.2 Q71.05 64.25 71.25 65.9 L71.25 66.3 Q70.75 67.6 69.5 67.1 67.6 66.05 68.0 63.75 68.15 63.15 68.9 62.95 69.35 62.85 69.8 63.2 M60.75 70.55 L59.4 67.55 Q60.15 67.45 60.6 68.05 60.95 68.55 60.95 69.4 L60.75 70.55 M68.25 79.7 L67.85 79.4 Q66.7 77.8 67.95 76.95 68.8 76.35 69.55 76.5 L69.25 79.45 68.25 79.7" fill="#ffcc99" fill-rule="evenodd" stroke="none"/>
      <path d="M57.9 -66.55 L56.85 -65.3 56.8 -65.1 55.4 -63.0 54.85 -63.15 54.2 -62.2 53.8 -61.7 53.5 -61.05 53.25 -61.15 49.35 -62.9 49.2 -63.9 48.9 -64.1 48.65 -64.25 48.55 -64.3 48.45 -65.8 Q49.95 -64.9 50.7 -65.2 51.55 -65.45 52.4 -65.85 L52.95 -68.25 57.9 -66.55 M57.65 -7.0 L63.95 -8.1 64.9 -8.4 65.4 -8.45 66.05 -8.35 66.1 -8.35 66.5 -8.5 67.15 -8.65 67.3 -8.65 67.45 -8.65 70.7 -8.35 67.9 -5.95 67.75 -5.5 67.4 -5.1 66.95 -5.2 66.95 -5.15 67.95 -1.35 70.45 -1.05 71.1 -0.95 71.6 -0.85 75.0 -0.45 Q77.55 -0.3 80.05 0.45 L80.75 0.7 81.35 -3.1 81.55 -3.25 82.1 -3.75 82.15 -4.2 82.25 -4.6 Q82.45 -5.4 81.2 -6.1 L81.95 -7.5 81.95 -7.55 80.75 -9.05 79.75 -10.6 80.65 -11.35 81.05 -11.4 81.2 -11.35 82.65 -9.55 82.5 -8.45 82.45 -8.3 82.85 -7.95 82.9 -7.85 83.65 -6.85 84.1 -5.75 83.2 -4.7 83.25 -4.65 83.85 -4.2 84.0 -3.3 84.0 -2.95 Q83.75 -1.05 82.2 -0.25 L81.95 0.85 81.0 1.65 80.8 1.75 80.75 1.75 71.05 1.3 68.5 0.95 68.25 0.85 68.5 0.9 67.05 0.45 67.1 0.55 Q63.85 -0.2 60.45 1.25 L56.8 2.65 56.7 2.0 56.95 1.35 Q60.3 0.3 63.6 -0.65 L65.75 -1.15 65.85 -1.45 Q65.2 -3.9 64.9 -6.2 64.6 -7.75 63.9 -7.85 L62.5 -6.85 62.0 -6.15 51.4 -4.45 50.9 -4.9 57.65 -7.0 M121.0 103.25 Q121.45 104.7 120.35 105.9 119.05 107.25 114.7 109.05 L112.25 110.65 111.65 110.7 109.75 110.9 102.7 112.95 Q99.25 114.35 96.25 116.45 92.9 118.9 90.0 118.75 86.9 118.95 84.35 116.3 85.15 116.75 85.9 117.0 L85.15 116.3 Q86.85 117.25 88.35 117.35 90.3 117.5 91.85 116.25 101.0 110.55 108.8 109.0 L108.95 108.95 111.0 109.3 111.1 109.3 111.45 109.4 112.35 109.0 112.95 108.7 113.15 109.0 114.15 108.95 114.45 108.85 115.05 108.65 115.5 108.4 115.6 107.95 115.55 107.6 115.0 107.2 115.5 106.95 115.7 106.95 115.75 107.05 116.15 107.4 116.25 107.45 118.0 107.1 118.3 106.95 Q119.25 106.6 119.45 106.05 L119.45 105.8 119.65 105.7 119.8 105.65 120.05 105.25 119.95 104.6 120.2 104.85 Q120.65 104.7 120.85 103.55 L120.9 103.2 121.0 103.25 M19.15 -44.15 L19.1 -43.9 17.7 -43.1 18.85 -44.1 19.15 -44.15 M46.6 -53.85 L47.35 -54.05 50.4 -54.5 50.7 -54.5 Q50.0 -52.25 49.6 -49.9 L49.2 -47.95 48.65 -48.45 48.4 -48.6 46.35 -50.5 46.1 -50.75 45.55 -51.35 46.6 -53.85 M44.7 -47.1 L47.65 -44.3 48.1 -43.95 48.25 -43.75 Q46.85 -38.2 44.75 -32.8 L45.45 -35.95 Q46.25 -41.0 43.85 -45.45 43.6 -45.85 44.15 -47.7 L44.7 -47.1 M12.05 -44.15 L13.0 -45.8 Q13.15 -44.9 12.95 -44.1 L12.05 -44.15 M15.95 -45.25 L16.1 -47.2 17.9 -48.85 18.85 -48.35 Q19.6 -47.9 18.8 -47.9 L18.15 -47.65 18.1 -46.55 17.75 -46.75 17.25 -46.6 16.8 -45.7 16.8 -45.65 15.95 -45.25 M11.4 -53.75 L11.1 -53.9 10.35 -54.9 10.4 -55.95 Q12.45 -57.85 12.05 -60.95 L12.5 -59.75 Q13.05 -57.2 11.8 -54.95 L11.5 -54.5 11.4 -53.95 11.4 -53.75 M17.2 -42.5 L17.05 -42.65 17.1 -42.65 17.25 -42.8 17.2 -42.5 M80.9 68.15 L80.6 67.85 Q79.7 66.65 80.15 65.9 L80.25 66.1 80.9 68.15 M81.05 68.65 Q81.75 71.25 82.0 73.9 L82.05 73.95 82.55 75.05 83.9 77.95 84.2 78.5 85.55 81.5 85.65 81.7 87.8 86.65 87.1 86.0 82.3 78.5 Q81.85 77.95 81.4 77.7 L80.25 75.3 76.6 69.2 76.95 69.45 78.25 67.75 78.35 67.65 81.05 68.65 M87.7 92.2 L88.0 92.75 88.35 93.35 88.65 93.95 88.25 93.4 87.8 92.8 87.35 92.1 86.8 91.25 87.45 91.9 87.7 92.2 M91.1 96.85 L91.5 96.8 91.35 95.9 91.15 95.1 93.9 97.2 93.2 97.1 97.4 104.0 96.55 106.5 96.4 106.75 95.6 107.75 94.95 107.7 94.45 108.05 94.55 107.75 94.8 104.6 94.35 102.25 93.3 99.35 92.4 97.4 92.2 97.1 91.55 97.35 91.35 97.15 91.1 96.85 M87.0 99.1 L87.0 98.9 87.0 98.8 87.05 98.3 87.1 98.2 87.2 97.35 87.2 97.2 87.2 96.45 87.45 97.05 87.5 97.15 88.0 98.4 88.1 98.7 87.2 99.0 87.0 99.1 M44.0 2.85 L48.2 2.85 48.35 2.8 44.25 2.95 44.0 2.85 M51.6 4.0 L50.3 4.35 50.0 4.35 Q50.45 3.85 51.6 4.0 M79.55 64.4 L78.5 64.15 76.8 63.55 Q76.3 62.85 77.0 62.3 L78.25 62.15 78.15 61.45 78.2 61.0 79.4 64.0 79.55 64.4 M71.9 58.9 L71.05 58.95 70.7 58.7 Q70.6 58.6 70.8 56.85 71.55 56.3 72.1 57.05 72.9 58.15 71.9 58.9" fill="#ebbb98" fill-rule="evenodd" stroke="none"/>
      <path d="M54.25 -60.8 L52.8 -57.1 51.9 -54.75 50.7 -54.5 50.4 -54.5 53.25 -61.15 53.5 -61.05 54.2 -60.75 54.25 -60.8 M50.2 -47.2 L49.35 -42.9 48.25 -43.75 48.1 -43.95 47.65 -44.3 48.65 -48.45 49.2 -47.95 50.2 -47.2 M-18.25 52.7 L-18.25 50.8 -18.2 52.7 -18.25 52.7 M40.0 -52.95 L40.15 -53.15 41.0 -54.75 42.25 -57.45 45.9 -58.1 47.5 -58.6 43.75 -60.85 44.25 -62.2 44.8 -63.75 45.45 -65.95 45.25 -64.7 49.05 -63.0 47.35 -54.05 46.6 -53.85 43.65 -53.4 45.55 -51.35 46.1 -50.75 44.7 -47.1 44.15 -47.7 Q41.9 -50.05 40.0 -52.95" fill="#ffffff" fill-rule="evenodd" stroke="none"/>
      <path d="M19.35 -41.9 L21.3 -39.75 Q21.8 -38.5 21.75 -37.25 L21.75 -36.45 20.45 -38.95 19.7 -39.65 Q17.9 -39.85 16.85 -41.5 L17.5 -41.85 19.35 -41.9 M49.05 -63.0 L49.35 -62.9 53.25 -61.15 50.4 -54.5 47.35 -54.05 49.05 -63.0 M46.1 -50.75 L46.35 -50.5 48.4 -48.6 48.65 -48.45 47.65 -44.3 44.7 -47.1 46.1 -50.75 M9.2 -45.05 L9.4 -45.1 Q10.15 -44.15 10.95 -44.25 L11.35 -44.15 11.75 -43.9 Q11.45 -43.25 10.8 -43.15 10.5 -43.1 9.8 -43.8 L9.05 -44.65 9.2 -45.05 M13.25 -44.05 L13.65 -43.9 13.8 -43.8 15.95 -45.25 16.8 -45.65 18.4 -45.75 18.65 -45.75 Q19.0 -45.25 18.45 -45.2 16.1 -44.75 14.5 -42.75 13.8 -41.8 13.9 -40.55 13.15 -41.6 13.75 -42.7 L12.95 -42.75 12.0 -42.0 Q12.05 -42.8 12.5 -43.4 L13.25 -44.05 M0.15 -60.4 L0.3 -58.75 -0.8 -58.6 -1.0 -59.6 -0.65 -60.2 0.15 -60.4 M6.35 -58.2 L5.45 -58.1 4.05 -59.0 3.05 -58.45 2.45 -59.1 4.5 -60.9 5.6 -60.65 7.05 -59.85 6.35 -58.2 M11.8 -54.95 L17.3 -56.35 18.2 -56.15 Q19.3 -55.9 20.25 -55.05 L20.35 -54.3 Q18.0 -56.05 15.05 -55.3 L11.5 -54.5 11.8 -54.95 M-6.3 -62.45 Q-6.45 -63.45 -4.7 -63.7 L-3.9 -63.65 -3.8 -63.4 Q-4.65 -62.85 -4.8 -62.2 L-4.85 -61.7 -5.15 -61.25 -4.5 -60.8 -3.9 -61.05 -4.25 -59.75 -4.9 -59.55 -5.05 -59.75 -7.35 -60.35 -7.45 -60.85 -6.35 -61.55 -6.35 -62.2 -6.3 -62.45 M-1.9 -59.9 L-2.15 -59.0 -2.95 -58.95 -2.85 -60.6 -1.9 -59.9" fill="#cccccc" fill-rule="evenodd" stroke="none"/>
      <path d="M13.95 -62.25 L13.9 -62.2 13.45 -62.0 12.9 -62.1 12.8 -62.2 12.6 -62.6 Q12.55 -62.9 12.8 -63.1 12.95 -63.35 13.25 -63.4 L13.85 -63.25 14.1 -62.8 13.95 -62.25 M3.2 -64.3 L2.55 -64.05 1.95 -64.15 Q1.6 -64.25 1.55 -64.55 1.5 -64.85 1.8 -65.1 2.0 -65.35 2.35 -65.4 L3.05 -65.25 3.35 -64.8 3.2 -64.3 M16.35 -59.85 L16.35 -58.7 Q15.6 -58.8 15.2 -59.4 L15.7 -60.15 Q16.3 -60.45 16.35 -59.85" fill="#996633" fill-rule="evenodd" stroke="none"/>
      <path d="M-7.8 -42.3 L-7.65 -43.1 -6.9 -44.15 -6.45 -44.85 -6.05 -47.65 -7.25 -47.3 -7.85 -47.5 -8.55 -46.55 Q-9.45 -45.3 -10.9 -45.05 L-9.95 -47.8 Q-9.15 -49.4 -9.05 -51.0 L-9.1 -51.95 -11.2 -50.8 -11.6 -51.0 -8.9 -54.95 -9.15 -58.6 Q-8.85 -60.5 -7.5 -62.2 L-7.2 -62.6 Q-5.15 -65.0 -3.3 -64.9 L-3.25 -64.5 -3.25 -64.45 -3.0 -63.5 Q-1.6 -62.7 -0.1 -62.2 L1.9 -61.65 Q4.35 -61.15 6.4 -62.2 L6.9 -62.5 9.55 -60.8 Q8.0 -57.9 7.0 -55.3 L6.45 -54.1 5.95 -54.2 Q6.4 -52.6 6.95 -51.75 L7.65 -50.65 8.05 -49.95 8.85 -48.4 8.85 -46.65 8.95 -46.25 9.05 -45.35 9.2 -45.05 9.05 -44.65 9.8 -43.8 Q10.5 -43.1 10.8 -43.15 11.45 -43.25 11.75 -43.9 L11.35 -44.15 11.6 -44.15 12.05 -44.15 12.95 -44.1 13.1 -44.1 13.25 -44.05 12.5 -43.4 Q12.05 -42.8 12.0 -42.0 L12.95 -42.75 13.75 -42.7 Q13.15 -41.6 13.9 -40.55 13.8 -41.8 14.5 -42.75 16.1 -44.75 18.45 -45.2 19.0 -45.25 18.65 -45.75 L18.9 -45.75 19.25 -45.65 19.45 -45.1 19.25 -44.5 19.15 -44.5 19.25 -44.4 18.85 -44.1 17.7 -43.1 17.25 -42.8 17.1 -42.65 17.05 -42.65 17.2 -42.5 17.5 -41.85 16.85 -41.5 Q17.9 -39.85 19.7 -39.65 L20.45 -38.95 21.75 -36.45 21.75 -37.25 Q21.8 -38.5 21.3 -39.75 22.7 -37.7 22.95 -35.2 23.15 -32.8 22.7 -31.3 L22.6 -31.05 22.25 -30.05 22.1 -29.1 22.1 -28.0 22.05 -26.7 22.05 -26.35 22.0 -25.9 21.1 -27.5 21.3 -27.95 20.55 -29.95 20.1 -28.9 19.4 -27.9 18.95 -27.35 19.4 -28.95 19.55 -29.65 19.6 -30.5 Q19.5 -32.95 17.95 -35.05 18.5 -32.65 18.5 -30.15 L18.5 -29.9 17.35 -33.0 16.9 -33.25 Q16.15 -36.3 13.7 -38.2 14.85 -36.65 15.15 -34.7 L14.75 -35.1 Q13.8 -36.25 13.25 -37.5 L13.05 -37.9 12.9 -38.2 12.05 -39.05 10.75 -40.0 10.1 -40.55 11.5 -38.4 Q9.15 -39.05 8.45 -41.8 L7.8 -41.25 7.8 -39.65 9.2 -37.5 9.3 -37.3 11.55 -33.6 7.9 -36.75 Q6.9 -38.5 6.8 -40.25 L6.75 -41.3 5.95 -40.05 6.0 -41.95 Q6.6 -43.8 6.65 -45.8 L6.65 -46.4 6.65 -46.6 6.55 -47.65 5.95 -48.7 Q5.9 -49.0 6.15 -49.7 L6.15 -49.75 5.8 -51.1 5.7 -51.75 Q4.7 -52.55 4.3 -53.8 L4.3 -53.95 4.35 -54.25 4.4 -54.7 4.45 -55.1 4.4 -55.15 3.65 -54.65 3.5 -54.05 2.4 -56.75 1.65 -55.0 1.35 -54.45 0.85 -54.7 0.25 -55.05 0.0 -55.05 -0.25 -55.0 -1.0 -53.85 -1.9 -53.75 -2.7 -54.35 -3.6 -55.95 -3.6 -52.85 -3.1 -51.85 -2.15 -48.85 -2.65 -49.45 -3.1 -49.25 -4.05 -46.55 -4.5 -46.45 -5.7 -44.4 -6.5 -43.3 -7.8 -42.3 M6.35 -58.2 L7.05 -59.85 5.6 -60.65 4.5 -60.9 2.45 -59.1 3.05 -58.45 4.05 -59.0 5.45 -58.1 6.35 -58.2 M0.15 -60.4 L-0.65 -60.2 -1.0 -59.6 -0.8 -58.6 0.3 -58.75 0.15 -60.4 M20.35 -54.3 L19.9 -53.8 Q17.7 -55.1 15.65 -54.7 L11.4 -53.95 11.5 -54.5 15.05 -55.3 Q18.0 -56.05 20.35 -54.3 M20.45 -32.25 L20.5 -32.2 20.5 -32.25 20.9 -32.6 Q20.9 -35.5 19.4 -37.85 L19.0 -38.45 17.25 -38.7 Q20.3 -36.1 20.45 -32.25 M-6.3 -62.45 L-6.35 -62.2 -6.35 -61.55 -7.45 -60.85 -7.35 -60.35 -5.05 -59.75 -4.9 -59.55 -4.25 -59.75 -3.9 -61.05 -4.5 -60.8 -5.15 -61.25 -4.85 -61.7 -4.8 -62.2 Q-4.65 -62.85 -3.8 -63.4 L-3.9 -63.65 -4.7 -63.7 Q-6.45 -63.45 -6.3 -62.45 M-1.9 -59.9 L-2.85 -60.6 -2.95 -58.95 -2.15 -59.0 -1.9 -59.9 M-4.55 -53.25 L-4.45 -55.2 -4.9 -55.65 -5.15 -53.25 -4.55 -53.25" fill="#999999" fill-rule="evenodd" stroke="none"/>
      <path d="M-5.65 -41.4 L-6.6 -41.25 -7.7 -41.15 -8.1 -41.6 -7.8 -42.3 -6.5 -43.3 -5.7 -44.4 -4.5 -46.45 -4.05 -46.55 -3.1 -49.25 -2.65 -49.45 -2.15 -48.85 -3.1 -51.85 -3.6 -52.85 -3.6 -55.95 -2.7 -54.35 -1.9 -53.75 -1.0 -53.85 -0.25 -55.0 0.0 -55.05 0.25 -55.05 0.85 -54.7 1.35 -54.45 1.65 -55.0 2.4 -56.75 3.5 -54.05 3.65 -54.65 4.4 -55.15 4.45 -55.1 4.4 -54.7 4.35 -54.25 4.3 -53.95 4.3 -53.8 Q4.7 -52.55 5.7 -51.75 L5.8 -51.1 6.15 -49.75 6.15 -49.7 Q5.9 -49.0 5.95 -48.7 L6.55 -47.65 6.65 -46.6 6.65 -46.4 6.65 -45.8 Q6.6 -43.8 6.0 -41.95 L5.95 -40.05 6.75 -41.3 6.8 -40.25 Q6.9 -38.5 7.9 -36.75 L11.55 -33.6 9.3 -37.3 9.2 -37.5 7.8 -39.65 7.8 -41.25 8.45 -41.8 Q9.15 -39.05 11.5 -38.4 L10.1 -40.55 10.75 -40.0 12.05 -39.05 12.9 -38.2 13.05 -37.9 13.25 -37.5 Q13.8 -36.25 14.75 -35.1 L15.15 -34.7 Q14.85 -36.65 13.7 -38.2 16.15 -36.3 16.9 -33.25 L17.35 -33.0 18.5 -29.9 18.5 -30.15 Q18.5 -32.65 17.95 -35.05 19.5 -32.95 19.6 -30.5 L19.55 -29.65 19.4 -28.95 18.95 -27.35 19.4 -27.9 20.1 -28.9 20.55 -29.95 21.3 -27.95 21.1 -27.5 22.0 -25.9 21.5 -25.95 21.25 -26.0 20.7 -26.4 Q20.25 -26.85 19.95 -27.4 L19.9 -27.5 19.75 -27.35 19.2 -26.75 Q18.35 -25.55 18.55 -24.15 L17.4 -25.6 17.55 -26.65 17.55 -26.7 17.6 -28.15 17.3 -29.75 17.2 -30.1 16.85 -30.4 15.3 -30.3 15.35 -29.2 15.4 -28.4 15.0 -29.2 13.65 -31.6 13.3 -31.75 12.8 -31.9 Q10.8 -31.65 10.7 -30.55 L10.25 -31.05 8.5 -32.95 7.85 -32.15 7.4 -31.15 7.05 -32.25 6.2 -35.25 6.1 -35.55 5.15 -37.95 Q4.45 -37.8 3.95 -36.4 L3.8 -36.0 3.5 -36.3 3.5 -36.6 Q3.45 -37.75 3.55 -38.75 3.7 -40.25 4.3 -41.65 L4.55 -42.25 5.3 -46.2 5.45 -46.9 5.45 -47.0 5.3 -47.45 4.1 -49.9 4.0 -50.0 3.55 -50.9 Q2.45 -52.65 0.6 -53.35 L-0.2 -53.3 -0.55 -52.95 -1.0 -52.2 -1.05 -51.4 -0.95 -51.0 -0.45 -50.05 0.75 -48.25 1.2 -47.65 1.85 -46.85 2.15 -46.4 2.3 -45.65 2.45 -45.2 2.4 -45.1 1.75 -43.75 Q1.8 -42.15 0.75 -40.65 L0.45 -40.15 0.05 -39.65 -1.25 -40.95 -1.85 -39.85 -2.45 -40.25 -2.3 -42.95 Q-3.3 -42.35 -4.55 -41.8 L-5.25 -41.55 -5.65 -41.4 M-6.45 -44.85 L-9.05 -43.65 -9.8 -43.25 -10.75 -43.5 -10.9 -45.05 Q-9.45 -45.3 -8.55 -46.55 L-7.85 -47.5 -7.25 -47.3 -6.05 -47.65 -6.45 -44.85 M-9.95 -47.8 L-9.4 -50.05 -10.3 -50.45 -10.85 -50.3 -11.2 -50.8 -9.1 -51.95 -9.05 -51.0 Q-9.15 -49.4 -9.95 -47.8 M9.55 -60.8 L8.65 -57.85 Q7.55 -55.0 7.9 -52.0 8.95 -49.5 8.95 -46.9 L8.95 -46.25 8.85 -46.65 8.85 -48.4 8.05 -49.95 7.65 -50.65 6.95 -51.75 Q6.4 -52.6 5.95 -54.2 L6.45 -54.1 7.0 -55.3 Q8.0 -57.9 9.55 -60.8 M19.9 -53.8 L19.65 -53.6 Q17.35 -54.6 14.85 -54.2 L11.4 -53.75 11.4 -53.95 15.65 -54.7 Q17.7 -55.1 19.9 -53.8 M20.5 -32.25 L20.45 -32.25 Q20.3 -36.1 17.25 -38.7 L19.0 -38.45 19.4 -37.85 Q20.9 -35.5 20.9 -32.6 L20.5 -32.25 M-4.55 -53.25 L-5.15 -53.25 -4.9 -55.65 -4.45 -55.2 -4.55 -53.25" fill="#666666" fill-rule="evenodd" stroke="none"/>
      <path d="M20.1 -58.9 L20.15 -58.65 20.1 -58.7 20.1 -58.9 M20.0 -53.5 L19.85 -52.55 19.65 -52.45 Q18.8 -50.95 17.5 -49.95 L16.1 -50.75 Q12.8 -51.05 11.25 -53.2 L11.4 -53.75 14.85 -54.2 Q17.35 -54.6 19.65 -53.6 L20.0 -53.5 M20.15 -46.25 L19.4 -46.1 19.25 -45.65 18.9 -45.75 18.65 -45.75 18.4 -45.75 18.05 -46.3 17.95 -46.35 18.2 -46.4 19.05 -46.3 20.15 -46.25 M2.3 -50.9 L2.7 -50.25 2.1 -49.4 3.05 -49.55 3.3 -48.9 3.0 -48.4 2.95 -48.35 1.55 -48.7 1.8 -50.65 1.1 -51.35 0.0 -50.9 -0.3 -51.25 0.6 -52.25 2.3 -50.9 M14.75 -52.55 Q15.95 -51.8 17.35 -51.9 L17.4 -52.3 15.05 -52.8 14.75 -52.55" fill="#c79b68" fill-rule="evenodd" stroke="none"/>
      <path d="M14.75 -52.55 L15.05 -52.8 17.4 -52.3 17.35 -51.9 Q15.95 -51.8 14.75 -52.55" fill="#000000" fill-rule="evenodd" stroke="none"/>
      <path d="M23.8 -10.1 Q25.1 -10.7 24.75 -11.7 L28.2 -8.85 28.9 -8.25 Q30.4 -6.85 32.2 -5.85 L32.3 -5.9 40.45 -7.4 45.35 -8.0 52.4 -8.45 53.4 -8.6 54.0 -8.75 Q54.05 -8.55 54.25 -8.3 L54.65 -7.55 54.35 -6.8 Q53.65 -6.1 51.85 -6.15 50.2 -6.2 49.6 -5.75 L49.2 -5.45 49.1 -5.3 50.25 -5.15 50.9 -4.9 51.4 -4.45 51.65 -3.4 Q51.7 -2.95 51.95 -2.65 L51.75 -2.65 51.55 -2.55 50.95 -3.05 44.75 -2.55 44.55 -2.7 Q44.0 -2.45 43.2 -3.15 42.35 -3.3 40.5 -2.1 L40.45 -2.05 Q38.75 -0.8 37.45 -1.05 L36.8 -1.4 37.2 -0.15 37.4 0.65 37.45 2.0 Q37.25 2.7 37.35 3.4 L37.05 3.75 36.8 4.35 35.55 5.8 35.15 6.1 35.0 6.3 Q34.4 7.5 32.55 7.65 L32.4 8.0 31.7 7.85 31.15 7.6 31.05 7.5 30.25 7.55 27.75 5.65 27.35 5.2 26.2 3.9 24.75 2.5 24.35 3.05 23.75 3.5 22.8 2.6 21.85 2.85 21.15 2.75 Q20.35 2.3 17.9 -2.3 L15.7 -6.7 Q15.4 -9.2 13.7 -12.3 L12.4 -14.7 11.65 -16.15 12.9 -10.35 13.85 -6.05 Q13.55 -5.55 13.25 -5.6 L13.05 -5.65 Q11.7 -6.3 10.4 -8.6 L8.75 -12.0 8.5 -12.7 6.0 -19.2 5.95 -19.4 Q5.15 -17.1 4.9 -12.5 L4.7 -9.35 Q4.25 -8.4 3.8 -8.35 1.9 -9.25 1.3 -16.0 L0.95 -21.0 0.85 -22.85 -0.3 -22.8 -1.0 -24.15 Q-1.8 -23.75 -4.0 -23.6 -6.1 -23.1 -7.2 -20.9 -7.55 -20.35 -7.25 -17.9 L-7.3 -17.65 -7.25 -17.5 -7.25 -17.4 -7.15 -16.25 Q-6.9 -15.85 -6.9 -15.15 L-7.0 -15.1 -6.9 -14.2 -7.05 -14.1 -7.3 -15.2 Q-11.05 -18.9 -11.0 -21.55 -11.05 -22.35 -10.7 -23.1 L-10.45 -23.25 -10.1 -23.65 -10.2 -23.75 -9.8 -24.4 Q-8.6 -26.6 -6.65 -28.1 L-5.0 -29.05 -2.25 -29.75 1.4 -28.95 Q3.85 -28.1 5.9 -26.6 L8.5 -24.65 10.4 -22.1 10.9 -21.3 10.8 -21.5 10.3 -22.85 10.3 -22.9 Q9.5 -24.85 8.5 -26.25 L9.95 -25.25 12.55 -22.65 10.5 -29.25 10.3 -30.5 11.45 -29.4 12.05 -28.8 13.8 -29.0 15.0 -29.2 15.4 -28.4 15.35 -29.2 15.6 -29.25 16.15 -29.4 17.3 -29.75 17.6 -28.15 17.55 -26.7 14.1 -25.65 14.25 -25.3 15.2 -23.5 15.45 -22.95 16.0 -21.55 16.05 -21.5 17.1 -17.25 17.4 -17.15 17.15 -16.9 17.4 -14.9 17.45 -14.45 16.25 -15.35 15.7 -15.85 15.65 -15.85 15.55 -15.7 15.25 -15.4 Q14.95 -14.8 15.7 -14.1 L16.7 -13.5 16.25 -12.9 15.6 -11.95 Q15.15 -11.0 16.5 -10.3 17.2 -9.9 17.75 -10.3 L17.8 -10.3 17.95 -10.5 Q18.35 -10.55 19.1 -10.95 L19.4 -10.0 18.8 -8.65 Q18.15 -6.6 19.7 -5.75 21.55 -5.1 22.45 -6.0 L22.65 -6.35 Q22.9 -6.8 22.45 -8.3 23.1 -8.75 23.75 -10.05 L23.8 -10.05 23.8 -10.1 M17.8 1.75 L17.65 4.95 17.25 5.45 16.55 9.0 17.2 10.85 19.85 16.35 19.85 16.95 Q19.25 15.7 18.1 15.25 17.2 16.55 17.2 19.2 17.2 20.45 19.0 25.15 18.7 25.15 18.7 25.75 16.5 24.75 16.7 23.7 L15.35 23.7 14.05 23.7 Q12.65 24.25 12.65 26.1 L12.25 25.75 12.2 25.7 10.85 25.3 10.9 24.35 10.5 22.7 11.4 22.9 12.25 22.65 Q13.0 22.0 13.0 19.95 13.0 18.45 11.35 18.45 L10.45 18.6 10.7 17.65 11.6 14.4 Q9.55 9.85 9.55 9.5 9.55 8.65 10.15 8.4 11.55 9.8 12.25 11.3 L12.25 10.95 12.35 9.15 Q11.6 6.25 10.6 1.5 L9.8 -2.35 12.85 -0.9 13.4 1.55 13.4 -0.65 15.6 0.4 Q16.05 0.6 17.8 1.75 M22.7 -31.3 L25.95 -32.0 27.9 -32.35 28.35 -32.4 24.65 -29.8 24.55 -28.95 24.8 -28.85 22.1 -28.0 22.1 -29.1 22.25 -30.05 22.6 -31.05 22.7 -31.3 M19.75 -27.35 L19.9 -27.5 19.95 -27.4 19.75 -27.35 M-2.7 -29.85 L-3.75 -29.5 -8.35 -29.2 Q-8.65 -29.2 -8.75 -29.65 L-8.8 -29.7 -8.75 -29.75 -6.4 -29.85 -2.7 -29.85 M-7.55 -16.7 L-7.5 -16.8 -7.75 -16.8 -7.55 -16.7" fill="#8d8c47" fill-rule="evenodd" stroke="none"/>
      <path d="M20.5 -32.25 L20.5 -32.2 20.45 -32.25 20.5 -32.25" fill="#3333ff" fill-rule="evenodd" stroke="none"/>
      <path d="M31.6 -17.4 L32.35 -17.1 20.2 -14.45 20.15 -14.4 19.65 -14.35 18.2 -13.95 17.45 -14.45 17.4 -14.9 31.6 -17.4 M55.65 4.85 L55.05 4.2 54.65 4.15 Q53.75 4.5 53.1 4.85 L53.0 4.6 Q52.8 4.3 52.15 4.15 L51.6 4.0 Q50.45 3.85 50.0 4.35 L49.75 5.0 49.8 5.7 Q50.0 6.2 50.85 6.45 L51.8 6.5 Q51.7 6.95 51.85 7.2 51.9 7.65 52.3 7.9 53.15 8.35 53.4 9.05 L49.4 8.75 Q46.75 7.95 45.15 9.1 44.7 9.35 44.6 10.05 L45.15 11.75 Q44.05 11.4 42.75 10.6 L40.05 9.65 34.55 8.95 33.65 9.0 Q28.25 9.45 26.05 8.35 L25.3 6.1 24.0 5.6 21.0 3.65 20.4 3.45 17.8 1.75 Q16.05 0.6 15.6 0.4 L13.4 -0.65 13.4 1.55 12.85 -0.9 9.8 -2.35 -0.05 -7.05 -4.3 -9.65 -4.45 -9.75 -4.75 -10.0 Q-6.1 -10.55 -7.15 -11.5 L-8.6 -13.25 -10.8 -17.1 Q-11.55 -18.45 -11.0 -21.55 -11.05 -18.9 -7.3 -15.2 L-7.05 -14.1 -6.9 -14.2 -7.0 -15.1 -6.9 -15.15 Q-6.9 -15.85 -7.15 -16.25 L-7.25 -17.4 -7.15 -17.5 -7.25 -17.5 -7.3 -17.65 -7.25 -17.9 Q-7.55 -20.35 -7.2 -20.9 -6.1 -23.1 -4.0 -23.6 -1.8 -23.75 -1.0 -24.15 L-0.3 -22.8 0.85 -22.85 0.95 -21.0 Q-0.45 -20.9 -1.9 -19.95 -3.55 -18.8 -4.3 -17.3 L-5.05 -14.7 Q-2.7 -11.8 -1.35 -10.6 0.05 -9.35 3.3 -7.65 L3.6 -8.0 3.8 -8.35 Q4.25 -8.4 4.7 -9.35 L4.9 -12.5 Q5.95 -8.75 8.2 -6.0 L8.45 -5.6 9.3 -4.95 10.85 -4.0 12.05 -3.5 13.35 -3.1 13.85 -2.95 Q16.1 -1.75 17.55 0.1 L17.85 0.45 Q19.25 2.0 21.1 2.95 L21.85 2.85 22.8 2.6 23.75 3.5 24.35 3.05 24.75 2.5 26.2 3.9 27.35 5.2 27.75 5.65 30.25 7.55 30.3 7.75 31.7 7.85 32.4 8.0 32.55 7.65 Q34.4 7.5 35.0 6.3 L35.15 6.1 35.55 5.8 36.8 4.35 Q40.2 3.25 40.55 3.3 L42.6 3.1 46.5 4.3 Q48.4 4.7 49.05 2.8 L49.2 2.2 Q48.8 0.85 48.9 0.45 49.05 -0.4 51.15 -0.15 52.6 0.2 52.45 0.95 L52.05 1.75 52.3 1.85 54.75 1.75 55.15 1.85 Q56.05 2.15 56.3 2.8 L56.5 3.5 56.4 4.05 Q56.25 4.85 55.65 4.85 M-15.3 26.8 L-15.75 26.85 -18.85 25.3 -18.1 24.3 Q-17.05 22.85 -16.7 21.0 L-16.65 20.65 -10.35 20.05 -10.15 20.95 -9.1 25.6 -10.15 26.05 Q-12.6 26.9 -15.3 26.8 M-17.4 12.75 L-17.6 11.45 -17.5 11.45 Q-15.85 11.45 -15.85 8.9 -15.85 7.05 -17.65 7.05 L-18.2 7.1 -18.3 6.15 -18.4 4.4 -17.7 4.5 Q-16.15 4.5 -16.15 3.15 L-16.4 2.45 -16.55 2.25 -15.9 1.8 -14.3 2.05 -14.2 2.05 -12.35 11.6 -17.4 12.75 M-18.2 -13.0 L-17.95 -14.75 Q-15.95 -24.35 -8.85 -30.95 L-9.1 -29.5 -8.8 -29.7 -8.75 -29.65 Q-8.65 -29.2 -8.35 -29.2 L-3.75 -29.5 -2.7 -29.85 -1.4 -29.8 1.75 -29.3 2.2 -29.2 Q3.6 -28.9 7.05 -27.2 L8.5 -26.25 Q9.5 -24.85 10.3 -22.9 L10.3 -22.85 10.8 -21.5 10.9 -21.3 10.4 -22.1 8.5 -24.65 5.9 -26.6 Q3.85 -28.1 1.4 -28.95 L-2.25 -29.75 -5.0 -29.05 -6.65 -28.1 Q-8.6 -26.6 -9.8 -24.4 L-10.0 -24.3 Q-13.45 -19.75 -14.45 -12.35 L-18.2 -13.0 M17.55 -26.7 L17.55 -26.65 17.4 -25.6 18.55 -24.15 Q18.35 -25.55 19.2 -26.75 L19.75 -27.35 19.95 -27.4 Q20.25 -26.85 20.7 -26.4 L21.25 -26.0 19.3 -25.1 22.25 -24.6 20.65 -23.75 19.45 -23.8 18.35 -23.25 15.2 -23.5 14.25 -25.3 14.1 -25.65 17.55 -26.7 M22.05 -26.35 L22.05 -26.7 22.1 -28.0 24.8 -28.85 26.25 -28.3 25.8 -27.5 24.15 -27.05 22.05 -26.35 M16.0 -21.55 L16.1 -21.5 16.05 -21.5 16.0 -21.55 M50.7 2.2 L50.65 2.25 50.65 2.3 50.7 2.2" fill="#78783c" fill-rule="evenodd" stroke="none"/>
      <path d="M30.05 -18.05 L31.6 -17.4 17.4 -14.9 17.15 -16.9 17.4 -17.15 17.1 -17.25 16.05 -21.5 16.1 -21.5 16.0 -21.55 15.45 -22.95 15.2 -23.5 18.35 -23.25 19.45 -23.8 20.65 -23.75 22.25 -24.6 26.3 -24.7 26.05 -23.45 30.55 -21.8 26.15 -19.45 27.95 -18.8 29.55 -18.2 30.05 -18.05 M57.45 3.15 L57.5 3.2 Q57.95 3.95 59.3 4.65 61.4 5.6 61.35 6.1 61.2 6.9 60.45 6.7 59.05 6.4 56.0 5.05 L55.7 5.2 55.7 5.15 55.65 4.85 Q56.25 4.85 56.4 4.05 L56.5 3.5 56.3 2.8 Q56.05 2.15 55.15 1.85 L54.75 1.75 52.3 1.85 52.05 1.75 52.45 0.95 Q52.6 0.2 51.15 -0.15 49.05 -0.4 48.9 0.45 48.8 0.85 49.2 2.2 L49.05 2.8 Q48.4 4.7 46.5 4.3 L42.6 3.1 40.55 3.3 Q40.2 3.25 36.8 4.35 L37.05 3.75 37.35 3.4 Q37.25 2.7 37.45 2.0 L37.4 0.65 37.2 -0.15 36.8 -1.4 37.45 -1.05 Q38.75 -0.8 40.45 -2.05 L40.5 -2.1 Q42.35 -3.3 43.2 -3.15 44.0 -2.45 44.55 -2.7 L44.75 -2.55 50.95 -3.05 51.55 -2.55 51.75 -2.65 51.95 -2.65 52.25 -2.2 53.15 -1.6 Q52.55 -1.0 52.4 -0.4 L52.4 0.0 Q52.4 0.75 53.5 1.2 53.95 1.25 55.35 0.3 56.5 -0.4 57.0 -1.25 L57.05 -1.15 57.35 -1.1 58.95 -0.55 Q57.45 0.15 56.95 1.35 L56.7 2.0 56.8 2.65 57.45 3.15 M4.9 -12.5 Q5.15 -17.1 5.95 -19.4 L6.0 -19.2 8.5 -12.7 8.75 -12.0 10.4 -8.6 Q11.7 -6.3 13.05 -5.65 L13.25 -5.6 Q13.55 -5.55 13.85 -6.05 L12.9 -10.35 11.65 -16.15 12.4 -14.7 13.7 -12.3 Q15.4 -9.2 15.7 -6.7 L17.9 -2.3 Q20.35 2.3 21.15 2.75 L21.85 2.85 21.1 2.95 Q19.25 2.0 17.85 0.45 L17.55 0.1 Q16.1 -1.75 13.85 -2.95 L13.35 -3.1 12.05 -3.5 10.85 -4.0 9.3 -4.95 8.45 -5.6 8.2 -6.0 Q5.95 -8.75 4.9 -12.5 M30.25 7.55 L31.05 7.5 31.15 7.6 31.7 7.85 30.3 7.75 30.25 7.55 M0.95 -21.0 L1.3 -16.0 Q1.9 -9.25 3.8 -8.35 L3.6 -8.0 3.3 -7.65 Q0.05 -9.35 -1.35 -10.6 -2.7 -11.8 -5.05 -14.7 L-4.3 -17.3 Q-3.55 -18.8 -1.9 -19.95 -0.45 -20.9 0.95 -21.0 M50.7 2.2 L50.65 2.3 50.65 2.25 50.7 2.2 M48.35 2.8 L48.5 2.45 Q48.85 0.9 45.55 0.45 43.7 0.3 43.35 1.7 43.25 2.6 44.0 2.85 L44.25 2.95 48.35 2.8 M9.8 -2.35 L10.6 1.5 Q11.6 6.25 12.35 9.15 L12.25 10.95 12.25 11.3 Q11.55 9.8 10.15 8.4 9.55 8.65 9.55 9.5 9.55 9.85 11.6 14.4 L10.7 17.65 10.45 18.6 Q9.65 18.9 9.5 19.85 9.0 19.0 8.6 19.0 7.35 19.0 6.35 20.9 L5.0 25.75 0.65 27.0 -1.4 26.15 -2.2 25.8 -2.05 25.25 -1.95 24.15 -2.15 23.45 Q-2.35 23.05 -2.7 22.8 -2.9 22.6 -3.15 22.5 L-4.0 22.8 Q-4.55 22.95 -4.8 23.45 -5.05 23.95 -4.75 24.3 L-4.15 25.35 -9.1 25.6 -10.15 20.95 -10.35 20.05 -8.35 19.85 -9.75 11.0 -12.35 11.6 -14.2 2.05 -13.8 2.1 -5.7 3.7 -5.5 1.85 -7.55 -2.15 -4.95 -2.15 -4.8 -4.4 -7.25 -5.3 -4.65 -6.75 -4.45 -9.4 -4.45 -9.75 -4.3 -9.65 -0.05 -7.05 9.8 -2.35 M0.2 17.1 L0.15 17.8 Q-0.05 19.3 1.4 19.3 L2.2 19.05 2.3 18.3 Q2.3 16.95 0.85 16.95 0.15 16.95 0.2 17.1 M-14.45 -12.35 Q-13.45 -19.75 -10.0 -24.3 L-9.8 -24.4 -10.2 -23.75 -10.1 -23.65 -10.45 -23.25 -10.7 -23.1 Q-11.05 -22.35 -11.0 -21.55 -11.55 -18.45 -10.8 -17.1 L-8.6 -13.25 -7.15 -11.5 -8.05 -11.55 -13.95 -12.3 -14.0 -12.3 -14.45 -12.35 M-7.25 -17.4 L-7.25 -17.5 -7.15 -17.5 -7.25 -17.4 M-7.55 -16.7 L-7.75 -16.8 -7.5 -16.8 -7.55 -16.7" fill="#666633" fill-rule="evenodd" stroke="none"/>
      <path d="M16.95 34.45 L16.95 34.75 16.95 34.95 17.0 36.0 17.0 36.45 17.05 37.1 17.1 38.2 22.0 38.05 23.75 38.0 25.25 38.0 25.9 37.95 Q34.95 37.85 43.65 38.35 L45.25 38.45 Q52.25 39.0 58.2 40.45 L58.65 40.6 Q62.1 41.55 65.25 42.8 L66.4 43.3 Q70.3 45.15 71.8 47.8 L72.45 48.5 76.5 54.5 79.05 57.05 Q79.05 57.6 79.7 58.65 80.35 59.65 81.7 60.7 L81.25 60.95 78.5 60.5 78.25 60.4 78.2 61.0 78.15 61.45 78.25 62.15 77.0 62.3 Q76.3 62.85 76.8 63.55 L78.5 64.15 79.55 64.4 80.2 64.45 80.35 64.55 81.35 65.3 80.7 65.35 80.55 65.45 80.2 65.85 80.15 65.9 Q79.7 66.65 80.6 67.85 L80.9 68.15 81.05 68.25 81.1 68.65 81.05 68.65 78.35 67.65 78.25 67.75 77.8 67.1 Q76.45 65.25 73.8 62.9 73.5 62.55 73.55 62.05 L73.6 61.05 72.1 60.8 Q71.1 60.55 70.2 59.35 68.9 57.55 68.7 56.8 68.6 56.4 68.65 56.0 68.95 55.75 69.3 56.25 69.35 55.7 70.0 54.25 L70.05 54.0 Q70.35 52.75 69.6 51.7 69.0 50.9 66.0 49.7 L65.6 48.8 65.5 48.2 65.5 48.05 Q65.25 47.75 63.85 47.6 L63.25 47.5 64.55 46.1 64.0 45.8 Q63.1 45.35 59.4 44.8 L57.7 44.2 55.0 43.15 54.1 42.8 Q51.3 41.7 49.75 41.45 47.1 41.05 43.2 41.45 L42.8 41.5 41.55 41.6 39.0 41.95 37.0 42.2 35.3 42.45 29.85 43.15 28.5 43.3 26.15 43.55 25.7 43.6 25.1 43.6 23.0 43.8 23.45 42.95 Q23.65 41.45 21.65 41.15 19.9 40.75 19.65 42.4 L19.65 43.0 Q19.7 43.65 20.2 43.95 L17.75 44.1 17.35 44.1 15.35 44.15 12.4 44.2 10.05 44.25 9.45 44.1 8.05 43.75 7.2 43.65 -7.5 43.2 -8.45 43.5 Q-6.15 40.75 -2.4 38.2 L8.85 38.3 9.55 38.3 8.35 37.3 8.15 37.2 Q7.0 36.5 6.5 36.5 L5.7 36.7 5.5 36.9 Q6.5 33.85 14.45 33.85 15.45 33.85 16.95 34.45 M9.3 64.95 L8.1 65.1 7.7 65.05 5.7 65.25 6.0 65.15 9.3 64.95 M11.05 38.25 L10.35 38.25 9.95 38.3 11.05 38.25 M56.95 56.65 L57.05 56.75 56.9 56.8 56.95 56.65 M71.9 58.9 Q72.9 58.15 72.1 57.05 71.55 56.3 70.8 56.85 70.6 58.6 70.7 58.7 L71.05 58.95 71.9 58.9" fill="#bb77a7" fill-rule="evenodd" stroke="none"/>
      <path d="M17.05 37.1 L20.05 37.0 24.0 37.0 23.8 37.7 23.75 37.85 23.75 38.0 22.0 38.05 17.1 38.2 17.05 37.1 M58.65 40.6 L58.85 40.6 Q63.4 41.3 66.4 43.3 L65.25 42.8 Q62.1 41.55 58.65 40.6 M81.3 66.65 L81.45 67.0 82.5 69.1 82.85 69.75 82.85 69.8 82.55 70.05 82.65 71.5 81.2 68.1 81.3 66.65 M85.55 74.8 Q87.0 77.4 89.35 78.95 L91.3 80.7 92.0 81.6 93.2 83.7 94.8 87.0 Q95.05 88.9 94.7 89.65 94.25 90.55 94.3 90.8 L94.35 90.85 94.0 90.95 93.95 90.95 Q93.55 90.35 92.95 90.4 93.5 89.8 92.95 88.2 92.3 86.05 90.7 84.35 L89.7 83.15 86.1 79.05 85.05 77.05 84.7 76.3 84.35 75.45 84.8 75.25 85.55 74.8 M78.25 99.1 L75.9 97.85 73.7 94.0 71.55 89.1 69.3 84.75 Q67.85 82.3 65.8 80.3 L65.65 80.15 Q66.3 79.85 67.1 80.15 L70.2 83.2 71.55 84.5 73.35 86.15 74.7 87.6 74.7 87.75 74.8 88.3 74.85 88.6 Q75.15 90.75 75.95 92.5 L76.85 94.4 80.55 95.9 80.6 95.95 81.15 97.05 80.5 97.15 80.4 97.2 Q79.55 97.3 78.95 97.7 78.55 98.0 78.35 98.85 L78.25 99.1 M65.45 80.25 L65.15 80.4 Q63.85 81.35 64.5 82.95 L66.4 86.35 66.2 86.85 Q65.6 86.4 65.05 86.2 63.55 85.75 62.75 87.3 L62.75 86.5 62.85 84.2 Q62.8 82.55 61.95 81.35 61.35 80.5 60.75 76.7 L61.75 75.45 59.15 71.15 Q57.35 68.05 56.4 64.85 L56.2 64.2 55.7 63.25 55.6 63.1 55.05 62.95 54.4 62.85 53.3 62.65 52.5 63.2 51.3 64.0 50.7 63.15 50.2 62.25 48.0 62.1 Q48.1 61.55 47.6 60.75 L48.6 60.15 Q49.75 60.4 50.45 59.8 51.25 59.2 51.5 57.65 L51.55 57.45 51.5 56.3 56.05 55.95 56.45 55.95 56.95 56.0 57.1 56.1 57.2 56.15 57.15 56.25 56.95 56.65 56.9 56.8 57.05 56.75 57.15 57.0 Q57.95 58.15 60.0 59.95 L61.2 61.0 62.85 62.4 63.6 63.0 Q64.3 66.25 63.25 67.0 L62.3 67.05 62.85 69.9 63.15 70.25 65.05 72.45 Q66.1 73.95 66.35 75.05 65.65 75.55 65.75 76.5 65.45 77.15 65.4 78.3 L65.45 79.9 65.45 80.25 M32.2 62.1 L32.25 62.25 30.75 62.4 29.7 62.55 29.75 62.2 29.8 62.0 29.75 61.3 Q29.65 60.2 28.75 59.45 L28.4 59.2 27.55 58.8 25.55 58.3 24.8 58.35 Q24.15 58.5 24.05 59.05 L24.05 59.7 24.2 60.15 Q24.4 60.45 24.75 60.6 L25.1 61.25 25.0 61.9 25.0 62.0 24.85 62.45 Q24.65 62.85 25.0 65.45 L22.0 65.15 Q15.8 64.65 9.45 64.95 L9.3 64.95 6.0 65.15 4.95 65.2 4.3 65.3 2.85 65.4 5.05 64.45 6.7 63.75 8.1 63.15 9.8 62.35 10.6 61.95 13.7 60.55 15.95 59.6 Q18.65 58.55 21.25 57.95 L22.55 57.65 23.1 57.55 Q27.05 56.7 30.65 56.75 L31.6 60.1 31.9 61.05 32.2 62.1 M-8.15 65.45 Q-10.2 65.05 -11.9 64.15 -15.3 62.2 -16.7 59.35 L-17.6 57.25 Q-18.1 55.75 -18.2 54.2 L-18.25 52.7 -18.2 52.7 -18.25 50.8 -18.0 46.85 -17.8 45.2 Q-17.45 41.25 -16.7 37.4 L-16.55 36.45 -16.05 33.25 -14.3 33.25 -11.25 33.25 -11.7 34.65 Q-14.2 42.25 -14.2 49.1 -14.2 51.85 -13.2 55.05 L-12.1 58.1 -11.75 58.8 Q-10.4 61.95 -8.15 65.45 M63.25 47.5 L63.1 47.7 60.45 47.45 59.8 47.5 59.1 47.75 59.0 47.7 58.85 47.6 57.2 47.65 54.9 47.7 54.85 47.65 50.65 48.2 46.8 48.35 46.4 48.3 Q45.35 48.1 47.15 47.4 L47.6 47.25 48.95 46.75 49.55 46.6 51.55 45.95 52.15 45.8 Q54.3 45.1 54.75 44.5 55.2 44.0 54.3 43.6 53.4 43.2 51.3 42.95 L50.05 42.65 49.8 42.6 46.75 42.5 44.55 42.85 42.95 43.25 42.45 43.4 41.9 43.6 39.8 44.35 36.3 45.5 32.8 46.3 26.25 47.0 25.45 46.95 24.6 46.9 23.45 47.0 23.2 47.0 23.0 46.7 22.85 46.25 21.7 45.4 19.55 46.0 19.5 45.95 17.8 45.2 14.4 45.55 12.3 44.9 10.05 44.25 12.4 44.2 15.35 44.15 17.35 44.1 17.75 44.1 20.2 43.95 21.1 44.3 22.25 44.2 23.0 43.8 25.1 43.6 25.7 43.6 26.15 43.55 28.5 43.3 29.85 43.15 35.3 42.45 37.0 42.2 39.0 41.95 41.55 41.6 42.8 41.5 43.2 41.45 Q47.1 41.05 49.75 41.45 51.3 41.7 54.1 42.8 L55.0 43.15 57.7 44.2 59.4 44.8 Q63.1 45.35 64.0 45.8 L64.55 46.1 63.25 47.5 M26.45 37.55 L26.55 37.5 26.55 37.6 26.45 37.55 M43.05 55.4 Q44.15 55.65 44.45 56.45 L44.55 56.9 45.8 55.45 46.0 55.3 Q46.5 54.9 47.25 54.85 46.8 55.1 46.5 55.6 46.2 56.25 46.05 57.15 L46.05 58.25 44.55 58.95 43.35 57.45 42.7 56.9 43.0 55.95 43.05 55.4 M60.75 70.55 L60.95 69.4 Q60.95 68.55 60.6 68.05 60.15 67.45 59.4 67.55 L60.75 70.55" fill="#b66ba0" fill-rule="evenodd" stroke="none"/>
      <path d="M78.5 60.5 L80.35 64.55 80.2 64.45 79.55 64.4 79.4 64.0 78.2 61.0 78.25 60.4 78.5 60.5 M80.7 65.35 L81.3 66.65 81.2 68.1 80.4 66.35 80.2 65.85 80.55 65.45 80.7 65.35 M82.85 69.8 L85.4 74.55 85.55 74.8 84.8 75.25 84.35 75.45 83.3 72.95 82.65 71.5 82.55 70.05 82.85 69.8 M94.4 91.95 Q94.5 92.45 94.2 92.9 L92.7 90.45 92.95 90.4 Q93.55 90.35 93.95 90.95 L94.0 90.95 94.4 91.95 M81.5 99.8 L80.9 99.75 Q79.5 99.75 78.25 99.1 L78.35 98.85 Q78.55 98.0 78.95 97.7 79.55 97.3 80.4 97.2 L80.5 97.15 81.15 97.05 81.65 98.15 Q81.35 98.65 81.35 99.1 L81.45 99.75 81.5 99.8 M54.15 63.25 L52.5 63.2 53.3 62.65 54.4 62.85 54.15 63.25 M46.85 63.0 L44.65 62.85 43.0 60.05 43.75 60.0 43.85 60.4 45.45 60.35 45.4 61.2 46.85 63.0 M75.8 68.8 L75.2 68.95 Q73.85 69.45 73.45 70.9 L73.3 68.45 Q70.85 67.0 69.75 67.95 L69.2 67.5 66.3 67.4 65.3 67.6 Q64.45 65.15 65.3 62.65 65.85 61.2 65.4 59.75 L64.65 59.55 64.85 58.75 64.95 58.2 65.4 57.55 66.05 58.2 65.6 58.65 67.15 59.0 67.05 59.4 67.7 60.5 69.05 60.5 69.3 60.7 69.85 61.15 70.15 61.45 70.2 61.85 74.45 64.95 75.35 67.1 75.65 68.05 75.8 68.8 M23.7 48.0 L24.4 48.45 24.5 48.55 24.15 50.25 Q23.45 51.4 21.65 50.95 L21.0 50.75 Q20.95 52.45 20.15 53.3 19.7 53.75 19.05 54.0 L17.25 54.3 16.5 54.25 15.8 54.2 Q13.2 53.75 11.45 51.65 L11.65 52.15 11.6 52.5 11.15 53.0 11.0 53.15 10.55 53.5 9.8 53.35 8.85 52.25 6.95 51.4 Q5.8 50.45 5.9 48.75 L6.3 48.4 7.35 48.5 Q8.35 48.65 9.2 49.2 L9.9 49.8 10.1 50.4 10.6 50.45 11.35 50.15 Q11.2 48.6 11.9 47.45 12.55 46.35 13.75 45.6 L14.4 45.55 17.8 45.2 19.5 45.95 19.55 46.0 21.7 45.4 22.85 46.25 23.0 46.7 22.35 46.95 21.35 46.45 20.05 47.8 19.05 46.85 Q18.25 46.4 17.2 46.3 L17.1 46.3 15.85 46.25 15.0 46.4 12.45 48.85 12.4 49.9 Q12.7 52.1 14.6 53.15 L16.0 53.25 16.55 53.2 17.5 52.95 Q19.45 52.15 19.85 49.2 L22.25 49.55 22.8 49.4 22.75 48.45 23.15 48.1 23.7 48.0 M43.0 47.2 L42.7 48.45 42.2 49.1 42.1 49.25 41.85 49.5 40.35 49.4 39.35 49.15 38.85 48.4 Q39.3 47.5 40.15 47.2 L41.2 46.9 42.4 46.95 43.0 47.2 M35.75 53.15 L35.45 51.85 33.25 50.3 32.1 50.25 31.85 49.65 33.0 48.55 33.3 48.45 34.1 48.4 Q35.2 48.2 36.4 48.4 L38.4 52.4 37.6 53.65 37.6 53.7 36.9 53.75 36.4 53.6 36.35 53.55 35.75 53.15 M4.85 56.25 Q5.9 58.05 4.4 59.55 4.1 59.85 3.6 60.0 2.25 60.35 0.85 59.5 0.8 56.7 3.55 56.2 L4.85 56.25 M66.5 55.4 L66.2 56.45 63.65 56.35 Q62.4 54.65 63.8 53.65 65.3 52.5 66.35 53.95 66.65 54.4 66.5 55.4 M69.8 63.2 Q69.35 62.85 68.9 62.95 68.15 63.15 68.0 63.75 67.6 66.05 69.5 67.1 70.75 67.6 71.25 66.3 L71.25 65.9 Q71.05 64.25 69.8 63.2 M82.4 99.6 L82.3 99.65 82.25 99.65 82.4 99.6" fill="#8a4664" fill-rule="evenodd" stroke="none"/>
      <path d="M15.3 33.0 L16.35 33.1 16.95 34.45 Q15.45 33.85 14.45 33.85 6.5 33.85 5.5 36.9 L5.7 36.7 6.5 36.5 Q7.0 36.5 8.15 37.2 L8.35 37.3 9.55 38.3 8.85 38.3 -2.4 38.2 Q-6.15 40.75 -8.45 43.5 L-7.5 43.2 7.2 43.65 8.05 43.75 9.45 44.1 10.05 44.25 12.3 44.9 14.4 45.55 13.75 45.6 Q12.55 46.35 11.9 47.45 11.2 48.6 11.35 50.15 L10.6 50.45 10.1 50.4 9.9 49.8 9.2 49.2 Q8.35 48.65 7.35 48.5 L6.3 48.4 5.9 48.75 Q5.8 50.45 6.95 51.4 L8.85 52.25 9.8 53.35 10.55 53.5 11.0 53.15 11.15 53.0 11.6 52.5 11.65 52.15 11.45 51.65 Q13.2 53.75 15.8 54.2 L16.5 54.25 17.25 54.3 19.05 54.0 Q19.7 53.75 20.15 53.3 20.95 52.45 21.0 50.75 L21.65 50.95 Q23.45 51.4 24.15 50.25 L24.5 48.55 24.4 48.45 23.7 48.0 23.2 47.0 23.45 47.0 24.6 46.9 25.45 46.95 26.25 47.0 32.8 46.3 36.3 45.5 39.8 44.35 41.9 43.6 42.45 43.4 42.95 43.25 44.55 42.85 46.75 42.5 49.8 42.6 50.05 42.65 51.3 42.95 Q53.4 43.2 54.3 43.6 55.2 44.0 54.75 44.5 54.3 45.1 52.15 45.8 L51.55 45.95 49.55 46.6 48.95 46.75 47.6 47.25 47.15 47.4 Q45.35 48.1 46.4 48.3 L46.8 48.35 50.65 48.2 54.85 47.65 54.9 47.7 57.2 47.65 58.85 47.6 59.0 47.7 59.1 47.75 59.8 47.5 60.45 47.45 63.1 47.7 63.25 47.5 63.85 47.6 Q65.25 47.75 65.5 48.05 L65.5 48.2 65.6 48.8 66.0 49.7 Q69.0 50.9 69.6 51.7 70.35 52.75 70.05 54.0 L70.0 54.25 Q69.35 55.7 69.3 56.25 68.95 55.75 68.65 56.0 68.6 56.4 68.7 56.8 68.9 57.55 70.2 59.35 71.1 60.55 72.1 60.8 L73.6 61.05 73.55 62.05 Q73.5 62.55 73.8 62.9 76.45 65.25 77.8 67.1 L78.25 67.75 76.95 69.45 76.6 69.2 Q76.15 68.85 75.8 68.8 L75.65 68.05 75.35 67.1 74.45 64.95 70.2 61.85 70.15 61.45 69.85 61.15 69.3 60.7 69.05 60.5 67.7 60.5 67.05 59.4 67.15 59.0 65.6 58.65 66.05 58.2 65.4 57.55 64.95 58.2 64.85 58.75 64.65 59.55 65.4 59.75 Q65.85 61.2 65.3 62.65 64.45 65.15 65.3 67.6 L66.3 67.4 66.2 67.45 Q64.4 68.75 66.15 71.15 67.5 72.7 69.35 71.65 L69.55 72.2 69.95 73.15 70.4 73.95 70.85 74.45 Q70.45 75.25 70.55 76.1 L70.75 77.2 Q70.15 76.6 69.55 76.5 68.8 76.35 67.95 76.95 66.7 77.8 67.85 79.4 L68.25 79.7 69.05 80.25 68.5 81.1 68.4 81.25 68.2 80.8 68.15 80.7 67.75 80.4 67.1 80.15 Q66.3 79.85 65.65 80.15 L65.45 80.25 65.45 79.9 65.4 78.3 Q65.45 77.15 65.75 76.5 65.65 75.55 66.35 75.05 66.1 73.95 65.05 72.45 L63.15 70.25 62.85 69.9 62.3 67.05 63.25 67.0 Q64.3 66.25 63.6 63.0 L62.85 62.4 61.2 61.0 60.0 59.95 Q57.95 58.15 57.15 57.0 L57.05 56.75 56.95 56.65 57.15 56.25 57.2 56.15 57.1 56.1 56.95 56.0 56.45 55.95 56.05 55.95 51.5 56.3 51.5 56.25 Q51.0 54.95 48.65 54.6 L48.35 54.55 Q47.7 54.55 47.25 54.85 46.5 54.9 46.0 55.3 L45.8 55.45 44.55 56.9 44.45 56.45 Q44.15 55.65 43.05 55.4 L43.0 55.25 42.35 54.55 41.95 54.45 41.5 54.3 41.4 54.3 Q40.75 54.25 39.95 54.8 L39.15 55.35 38.8 55.4 Q37.4 55.2 36.9 54.5 L36.7 54.05 36.6 53.85 36.4 53.6 36.9 53.75 37.6 53.7 37.6 53.65 38.4 52.4 36.4 48.4 Q35.2 48.2 34.1 48.4 L33.3 48.45 33.0 48.55 31.85 49.65 32.1 50.25 33.25 50.3 35.45 51.85 35.75 53.15 Q35.2 52.85 34.3 52.7 33.55 52.6 32.35 53.45 L32.2 53.55 32.15 53.65 31.5 54.25 31.15 54.75 Q30.65 55.5 30.5 56.45 L30.65 56.75 Q27.05 56.7 23.1 57.55 L22.55 57.65 21.25 57.95 Q18.65 58.55 15.95 59.6 L13.7 60.55 10.6 61.95 9.8 62.35 8.1 63.15 6.7 63.75 5.05 64.45 2.85 65.4 4.3 65.3 4.95 65.2 6.0 65.15 5.7 65.25 5.6 65.25 2.45 65.95 -1.65 66.1 -2.1 65.95 -7.6 65.55 -8.15 65.45 Q-10.4 61.95 -11.75 58.8 L-12.1 58.1 -13.2 55.05 Q-14.2 51.85 -14.2 49.1 -14.2 42.25 -11.7 34.65 L-11.25 33.25 5.8 33.25 10.65 32.8 15.3 33.0 M94.35 90.85 L94.45 91.7 94.4 91.95 94.0 90.95 94.35 90.85 M55.7 63.25 L54.15 63.25 54.4 62.85 55.05 62.95 55.6 63.1 55.7 63.25 M44.65 62.85 L38.25 62.4 32.2 62.1 31.9 61.05 34.0 60.8 43.0 60.05 44.65 62.85 M29.8 62.0 L25.0 62.0 25.0 61.9 26.9 61.65 29.75 61.3 29.8 62.0 M86.1 79.05 L89.7 83.15 90.7 84.35 Q92.3 86.05 92.95 88.2 93.5 89.8 92.95 90.4 L92.7 90.45 92.0 89.3 92.0 88.9 91.05 86.7 90.3 85.55 89.9 85.55 89.3 84.9 87.65 82.2 86.8 80.5 86.1 79.05 M43.0 47.2 L42.4 46.95 41.2 46.9 40.15 47.2 Q39.3 47.5 38.85 48.4 L39.35 49.15 40.35 49.4 41.85 49.5 42.1 49.25 42.2 49.1 42.7 48.45 43.0 47.2 M4.85 56.25 L3.55 56.2 Q0.8 56.7 0.85 59.5 2.25 60.35 3.6 60.0 4.1 59.85 4.4 59.55 5.9 58.05 4.85 56.25 M66.5 55.4 Q66.65 54.4 66.35 53.95 65.3 52.5 63.8 53.65 62.4 54.65 63.65 56.35 L66.2 56.45 66.5 55.4" fill="#ad5a95" fill-rule="evenodd" stroke="none"/>
      <path d="M74.7 87.6 L75.95 89.0 Q78.9 92.45 80.6 95.95 L80.55 95.9 76.85 94.4 75.95 92.5 Q75.15 90.75 74.85 88.6 L74.8 88.3 74.7 87.75 74.7 87.6 M89.3 84.9 L89.9 85.55 90.3 85.55 91.05 86.7 92.0 88.9 92.0 89.3 89.3 84.9" fill="#994d83" fill-rule="evenodd" stroke="none"/>
      <path d="M69.95 73.15 L70.1 71.2 74.2 75.65 74.45 75.7 74.45 75.9 74.5 76.65 74.9 78.65 74.8 78.75 75.1 79.3 76.0 81.35 77.0 83.35 77.85 84.85 78.85 86.7 Q80.45 89.95 80.9 92.85 78.6 91.65 76.85 89.75 L76.1 88.9 74.65 87.3 73.5 86.05 70.4 82.9 68.5 81.1 69.05 80.25 68.25 79.7 69.25 79.45 69.55 76.5 Q70.15 76.6 70.75 77.2 L70.55 76.1 Q70.45 75.25 70.85 74.45 L70.4 73.95 69.95 73.15 M68.2 80.8 L67.75 80.4 68.15 80.7 68.2 80.8 M87.7 92.2 L87.5 91.75 86.65 90.05 Q85.5 87.6 85.45 86.35 L85.75 86.7 89.5 90.75 89.55 90.8 90.1 92.3 90.45 93.15 91.15 95.1 91.35 95.9 91.5 96.8 91.1 96.85 90.9 96.75 90.75 96.65 89.9 95.85 89.6 95.5 88.65 93.95 88.35 93.35 88.0 92.75 87.7 92.2 M96.55 106.5 L97.05 106.3 97.4 107.35 96.5 108.65 96.7 109.2 95.65 111.0 92.2 111.15 91.95 111.6 91.6 111.15 Q90.05 109.1 88.85 106.95 L87.25 103.75 85.9 100.15 86.3 99.35 87.0 99.1 87.2 99.0 88.45 98.8 89.2 99.55 89.3 102.9 Q89.55 104.45 90.2 105.9 L91.45 108.05 92.75 108.5 92.95 108.6 Q93.8 108.8 94.45 108.05 L94.95 107.7 95.6 107.75 96.4 106.75 96.55 106.5 M36.4 53.6 L36.6 53.85 36.7 54.05 36.9 54.5 Q37.4 55.2 38.8 55.4 L39.15 55.35 39.95 54.8 Q40.75 54.25 41.4 54.3 L41.5 54.3 41.95 54.45 42.35 54.55 43.0 55.25 43.05 55.4 43.0 55.95 42.7 56.9 43.35 57.45 44.55 58.95 46.05 58.25 46.05 57.15 Q46.2 56.25 46.5 55.6 L47.7 55.85 Q48.2 55.9 51.5 57.65 51.25 59.2 50.45 59.8 L43.75 60.0 43.0 60.05 34.0 60.8 31.65 60.1 31.6 60.1 30.65 56.75 30.5 56.45 Q30.65 55.5 31.15 54.75 L31.5 54.25 32.15 53.65 32.2 53.55 34.7 53.5 35.4 53.55 36.35 53.55 36.4 53.6 M24.2 60.15 L24.05 59.7 24.05 59.05 Q24.15 58.5 24.8 58.35 L25.55 58.3 27.55 58.8 28.4 59.2 28.75 59.45 28.15 59.3 27.95 59.2 26.2 59.6 25.3 59.85 24.25 60.15 24.2 60.15" fill="#f4c398" fill-rule="evenodd" stroke="none"/>
      <path d="M15.35 23.7 L15.35 26.25 Q14.7 26.2 14.15 26.55 L13.3 26.95 12.65 26.7 11.95 26.95 11.9 26.85 12.2 25.75 12.25 25.75 12.65 26.1 Q12.65 24.25 14.05 23.7 L15.35 23.7 M-15.15 27.85 L-15.3 26.8 Q-12.6 26.9 -10.15 26.05 L-9.1 25.6 -4.15 25.35 -4.75 24.3 Q-5.05 23.95 -4.8 23.45 -4.55 22.95 -4.0 22.8 L-3.15 22.5 Q-2.9 22.6 -2.7 22.8 -2.35 23.05 -2.15 23.45 L-1.95 24.15 -2.05 25.25 -2.2 25.25 Q-4.4 25.25 -4.4 26.75 -4.05 26.9 -4.05 27.5 L-7.55 27.95 -11.85 27.25 -15.15 27.85 M-1.4 26.15 L0.65 27.0 5.0 25.75 6.35 20.9 Q7.35 19.0 8.6 19.0 9.0 19.0 9.5 19.85 9.65 18.9 10.45 18.6 L11.35 18.45 Q13.0 18.45 13.0 19.95 13.0 22.0 12.25 22.65 12.05 21.1 10.85 21.1 10.05 21.1 9.8 21.55 9.75 21.0 9.25 21.0 7.05 21.0 7.55 26.25 L4.3 26.85 Q3.25 26.85 2.55 27.45 1.85 28.05 1.2 28.05 L-1.85 27.35 -1.85 27.3 Q-1.4 26.85 -1.4 26.35 L-1.4 26.15 M0.2 17.1 Q0.15 16.95 0.85 16.95 2.3 16.95 2.3 18.3 L2.2 19.05 1.4 19.3 Q-0.05 19.3 0.15 17.8 L0.2 17.1" fill="#cccc66" fill-rule="evenodd" stroke="none"/>
      <path d="M15.35 26.25 L15.3 33.0 10.65 32.8 5.8 33.25 -11.25 33.25 -14.3 33.25 -14.35 33.1 -14.85 30.45 -15.15 27.85 -11.85 27.25 -7.55 27.95 -4.05 27.5 Q-4.05 26.9 -4.4 26.75 -4.4 25.25 -2.2 25.25 L-2.05 25.25 -2.2 25.8 -1.4 26.15 -1.4 26.35 Q-1.4 26.85 -1.85 27.3 L-1.85 27.35 1.2 28.05 Q1.85 28.05 2.55 27.45 3.25 26.85 4.3 26.85 L7.55 26.25 Q7.05 21.0 9.25 21.0 9.75 21.0 9.8 21.55 10.05 21.1 10.85 21.1 12.05 21.1 12.25 22.65 L11.4 22.9 10.5 22.7 10.9 24.35 10.85 25.3 12.2 25.7 12.25 25.75 12.2 25.75 11.9 26.85 11.95 26.95 12.65 26.7 13.3 26.95 14.15 26.55 Q14.7 26.2 15.35 26.25" fill="#fefda3" fill-rule="evenodd" stroke="none"/>
      <path d="M20.2 43.95 Q19.7 43.65 19.65 43.0 L19.65 42.4 Q19.9 40.75 21.65 41.15 23.65 41.45 23.45 42.95 L23.0 43.8 22.25 44.2 21.1 44.3 20.2 43.95" fill="#884444" fill-rule="evenodd" stroke="none"/>
      <path d="M81.7 99.9 L81.65 99.9 Q81.75 100.15 81.5 99.8 L81.45 99.75 81.35 99.1 Q81.35 98.65 81.65 98.15 L82.4 99.6 82.25 99.65 81.7 99.9 M50.7 63.15 L46.85 63.0 45.4 61.2 45.45 60.35 43.85 60.4 43.75 60.0 50.45 59.8 Q49.75 60.4 48.6 60.15 L47.6 60.75 Q48.1 61.55 48.0 62.1 L50.2 62.25 50.7 63.15 M23.2 47.0 L23.7 48.0 23.15 48.1 22.75 48.45 22.8 49.4 22.25 49.55 19.85 49.2 Q19.45 52.15 17.5 52.95 L16.55 53.2 16.0 53.25 14.6 53.15 Q12.7 52.1 12.4 49.9 L12.45 48.85 15.0 46.4 15.85 46.25 17.1 46.3 17.2 46.3 Q18.25 46.4 19.05 46.85 L20.05 47.8 21.35 46.45 22.35 46.95 23.0 46.7 23.2 47.0" fill="#663333" fill-rule="evenodd" stroke="none"/>
      <path d="M-5.9 -40.4 L-5.65 -41.4 -5.25 -41.55 -5.9 -40.4" fill="#ff0000" fill-rule="evenodd" stroke="none"/>
      <path d="M-15.9 1.8 L-18.55 1.6 -18.6 -6.8 -18.35 -11.55 -18.2 -13.0 -14.45 -12.35 -14.0 -12.3 -13.95 -12.3 -14.45 -4.35 -14.3 2.05 -15.9 1.8" fill="#3a4f31" fill-rule="evenodd" stroke="none"/>
      <path d="M-4.45 -9.75 L-4.45 -9.4 -4.65 -6.75 -7.25 -5.3 -4.8 -4.4 -4.95 -2.15 -7.55 -2.15 -5.5 1.85 -5.7 3.7 -13.8 2.1 -14.2 2.05 -14.3 2.05 -14.45 -4.35 -13.95 -12.3 -8.05 -11.55 -7.15 -11.5 Q-6.1 -10.55 -4.75 -10.0 L-4.45 -9.75" fill="#2f3f27" fill-rule="evenodd" stroke="none"/>
      <path d="M-16.65 20.65 Q-16.15 18.5 -16.55 15.7 L-17.0 14.4 -17.4 12.75 -12.35 11.6 -11.2 16.55 -10.35 20.05 -16.65 20.65" fill="#e37302" fill-rule="evenodd" stroke="none"/>
      <path d="M-12.35 11.6 L-9.75 11.0 -8.35 19.85 -10.35 20.05 -11.2 16.55 -12.35 11.6" fill="#cc6600" fill-rule="evenodd" stroke="none"/>
    </g>
    <g id="sprite1" transform="matrix(1.0, 0.0, 0.0, 1.0, 88.2, 78.65)">
      <use ffdec:characterId="949" height="157.35" transform="matrix(1.0, 0.0, 0.0, 1.0, -88.2, -78.65)" width="176.4" xlink:href="#shape1"/>
    </g>
    <g id="shape1" transform="matrix(1.0, 0.0, 0.0, 1.0, 88.2, 78.65)">
      <path d="M-30.8 -44.65 L-30.8 -46.55 29.1 -46.55 Q31.6 -46.4 32.1 -43.25 L32.1 -42.65 Q31.85 -44.6 30.6 -44.65 L-30.8 -44.65 M40.65 48.25 Q44.35 48.4 47.4 50.2 L48.85 51.2 50.45 52.6 Q54.8 56.95 54.8 63.2 54.8 69.45 50.45 73.8 46.05 78.2 39.8 78.2 33.55 78.2 29.2 73.8 24.8 69.45 24.8 63.2 24.8 60.1 25.9 57.45 L27.25 54.95 28.4 53.45 29.2 52.6 Q30.65 51.15 32.3 50.2 33.2 49.65 34.15 49.25 35.35 48.8 36.65 48.5 L37.9 48.3 38.7 48.25 39.05 48.2 39.8 48.2 39.85 48.2 40.65 48.25 M2.9 57.45 Q0.4 60.9 -2.75 64.05 L-6.85 67.75 Q-20.2 78.65 -38.1 78.7 L-38.2 78.7 Q-58.95 78.7 -73.5 64.05 -88.15 49.45 -88.2 28.7 -88.15 13.25 -80.05 1.2 L-77.4 -2.4 -73.5 -6.7 -71.75 -8.4 Q-58.1 -20.95 -39.3 -21.3 L-38.4 -21.3 -38.2 -21.3 -38.1 -21.3 -37.5 -21.3 Q-32.25 -21.25 -27.4 -20.25 -22.8 -19.3 -18.55 -17.5 -12.3 -14.85 -6.85 -10.4 L-4.9 -8.75 -2.75 -6.7 1.1 -2.4 4.6 2.45 Q6.7 5.8 8.2 9.45 L8.8 10.95 9.65 13.45 10.5 16.6 Q11.8 22.35 11.8 28.7 L11.5 34.6 Q10.45 44.85 5.45 53.45 L4.6 54.95 2.9 57.45 M-64.2 -77.65 L-64.2 -78.65 -45.8 -78.65 -45.8 -78.4 -45.8 -77.65 -64.2 -77.65 M4.5 10.95 L3.85 9.45 Q2.2 5.8 -0.15 2.45 -2.55 -0.9 -5.6 -3.95 -18.05 -16.4 -35.3 -17.3 L-37.5 -17.4 -38.15 -17.4 -38.4 -17.4 -39.3 -17.4 Q-57.65 -17.0 -70.7 -3.95 -84.15 9.5 -84.15 28.6 -84.15 43.65 -75.75 55.2 -73.6 58.2 -70.85 60.95 L-70.7 61.15 Q-57.25 74.6 -38.15 74.6 -19.1 74.6 -5.65 61.2 L-5.6 61.15 -2.25 57.45 -0.55 55.2 -0.35 54.95 0.65 53.45 Q6.25 44.95 7.5 34.6 7.85 31.65 7.85 28.6 7.85 22.3 6.4 16.6 L5.45 13.45 4.5 10.95 M38.7 51.3 L37.9 51.4 36.65 51.7 Q34.7 52.2 33.0 53.45 L31.4 54.8 31.25 54.95 Q30.1 56.15 29.35 57.45 27.85 60.05 27.85 63.25 27.85 68.15 31.4 71.7 L31.8 72.1 32.9 73.0 Q35.95 75.25 39.85 75.25 42.9 75.25 45.4 73.9 L46.8 73.0 48.3 71.7 Q51.85 68.15 51.85 63.25 51.85 58.35 48.3 54.8 45.05 51.55 40.65 51.3 L39.85 51.25 38.7 51.3" fill="#666666" fill-rule="evenodd" stroke="none"/>
      <path d="M32.1 -42.65 L32.1 -42.55 32.1 -40.6 32.1 -40.5 -30.8 -40.5 -30.8 -40.6 -30.8 -42.55 -30.8 -44.65 30.6 -44.65 Q31.85 -44.6 32.1 -42.65 M66.2 57.85 L87.65 48.6 88.2 50.0 63.15 60.85 62.5 59.45 62.55 59.45 63.55 59.0 64.6 58.55 66.2 57.85 M-45.8 -74.4 L-45.8 -74.15 -47.05 -74.15 -47.9 -73.8 -48.0 -73.6 -48.15 -73.4 -48.45 -73.05 -49.2 -72.85 Q-49.75 -72.85 -50.15 -73.25 L-50.35 -73.45 -50.6 -73.8 -50.95 -74.05 -51.45 -74.15 -51.5 -74.15 -52.1 -74.0 -52.45 -73.8 -52.55 -73.65 -52.7 -73.45 -53.0 -73.1 Q-53.2 -72.85 -53.75 -72.85 -54.3 -72.85 -54.7 -73.25 L-54.9 -73.45 -55.15 -73.8 Q-55.5 -74.15 -56.0 -74.15 L-56.05 -74.15 -57.0 -73.8 -57.1 -73.6 -57.25 -73.4 -57.55 -73.05 -58.3 -72.85 Q-58.85 -72.85 -59.25 -73.25 L-59.3 -73.3 -59.45 -73.45 -59.7 -73.8 Q-60.05 -74.15 -60.55 -74.15 L-60.6 -74.15 -61.55 -73.8 -61.65 -73.65 -61.8 -73.45 -62.0 -73.2 -62.1 -73.1 Q-62.3 -72.85 -62.8 -72.85 L-62.85 -72.85 Q-63.4 -72.85 -63.8 -73.25 -64.1 -73.55 -64.2 -74.15 L-64.2 -77.65 -45.8 -77.65 -45.8 -76.8 -45.8 -75.95 -45.8 -74.4 M18.2 13.45 L18.2 12.6 22.2 12.6 22.2 13.45 22.2 16.6 22.2 34.6 18.2 34.6 18.2 34.55 18.2 32.6 18.2 27.6 18.2 22.6 18.2 17.6 18.2 16.6 18.2 13.45 M4.5 10.95 L5.45 13.45 6.4 16.6 Q7.85 22.3 7.85 28.6 7.85 31.65 7.5 34.6 6.25 44.95 0.65 53.45 L-0.35 54.95 -0.55 55.2 -2.25 57.45 -5.6 61.15 -5.65 61.2 Q-19.1 74.6 -38.15 74.6 -57.25 74.6 -70.7 61.15 L-70.85 60.95 Q-73.6 58.2 -75.75 55.2 -84.15 43.65 -84.15 28.6 -84.15 9.5 -70.7 -3.95 -57.65 -17.0 -39.3 -17.4 L-38.4 -17.4 -38.15 -17.4 -37.5 -17.4 -35.3 -17.3 Q-18.05 -16.4 -5.6 -3.95 -2.55 -0.9 -0.15 2.45 2.2 5.8 3.85 9.45 L4.5 10.95 M1.75 16.6 L0.65 13.45 -0.4 10.95 -1.15 9.45 Q-3.1 5.8 -5.8 2.45 L-6.6 1.5 -7.55 2.45 -8.5 3.45 -10.65 1.15 -12.75 -0.8 -10.65 1.15 -8.5 3.45 -14.55 9.45 -16.05 10.95 -17.8 12.7 -17.8 13.45 -17.8 16.6 -17.8 19.3 -17.8 24.3 -17.8 25.7 -14.8 25.7 0.7 25.7 3.3 25.7 Q3.0 20.95 1.75 16.6 M0.7 31.7 L0.8 28.7 0.7 25.7 0.8 28.7 0.7 31.7 -14.8 31.7 -17.8 31.7 -17.8 34.3 -17.8 34.6 -21.8 34.6 -21.8 31.7 -28.6 31.7 -29.05 32.75 -29.2 33.1 -29.3 33.4 -9.25 53.45 -8.6 54.1 -7.75 54.95 -6.7 56.0 -6.05 55.3 -5.75 54.95 -4.6 53.45 Q1.65 45.1 3.05 34.6 L3.3 31.7 0.7 31.7 M-12.8 58.3 L-10.65 56.25 -8.6 54.1 -10.65 56.25 -12.8 58.3 -13.65 57.45 -16.15 54.95 -17.65 53.45 -33.5 37.6 -35.2 38.3 -35.2 53.45 -35.2 54.9 -35.2 57.45 -35.2 67.6 -35.2 70.3 Q-23.3 69.4 -14.0 62.6 L-11.5 60.7 -10.9 60.2 -12.8 58.3 M-41.2 67.6 L-38.2 67.7 -35.2 67.6 -38.2 67.7 -41.2 67.6 -41.2 38.3 -42.7 37.6 -63.5 58.4 -65.4 60.3 Q-55.0 69.4 -41.2 70.3 L-41.2 67.6 M-67.75 54.15 L-65.8 56.25 -63.85 58.1 -63.5 58.4 -63.85 58.1 -65.8 56.25 -67.75 54.15 -47.0 33.4 -47.7 31.7 -77.05 31.7 -79.8 31.7 Q-78.9 45.6 -69.6 56.0 L-67.75 54.15 M-77.05 25.7 L-77.2 28.7 -77.05 31.7 -77.2 28.7 -77.05 25.7 -47.8 25.7 -47.1 24.0 -67.8 3.3 -69.7 1.4 Q-78.9 11.8 -79.8 25.7 L-77.05 25.7 M-63.6 -0.9 L-63.85 -0.75 -65.8 1.15 -67.8 3.3 -65.8 1.15 -63.85 -0.75 -63.6 -0.9 -42.9 19.8 Q-42.1 19.4 -41.2 19.1 L-41.2 -10.2 -41.2 -12.8 Q-55.1 -12.0 -65.5 -2.8 L-63.6 -0.9 M-35.2 -10.2 L-38.2 -10.3 -41.2 -10.2 -38.2 -10.3 -35.2 -10.2 -35.2 2.45 -35.2 9.45 -35.2 10.95 -35.2 13.45 -35.2 19.2 Q-34.3 19.4 -33.5 19.9 L-27.05 13.45 -24.55 10.95 -23.05 9.45 -16.05 2.45 -12.75 -0.8 -10.9 -2.7 -14.0 -5.2 Q-23.3 -12.1 -35.2 -12.8 L-35.2 -10.2 M36.65 53.75 Q35.4 54.2 34.3 54.95 L32.8 56.2 31.75 57.45 Q30.75 58.8 30.3 60.3 L35.0 61.7 Q35.3 60.6 36.2 59.7 37.1 58.8 38.3 58.4 L38.05 57.45 37.9 57.05 36.95 53.7 36.65 53.75 M38.7 51.3 L39.85 51.25 40.65 51.3 Q45.05 51.55 48.3 54.8 51.85 58.35 51.85 63.25 51.85 68.15 48.3 71.7 L46.8 73.0 45.4 73.9 Q42.9 75.25 39.85 75.25 35.95 75.25 32.9 73.0 L31.8 72.1 31.4 71.7 Q27.85 68.15 27.85 63.25 27.85 60.05 29.35 57.45 30.1 56.15 31.25 54.95 L31.4 54.8 33.0 53.45 Q34.7 52.2 36.65 51.7 L37.9 51.4 38.7 51.3 M43.25 59.65 L43.3 59.7 Q44.35 60.65 44.65 62.0 L44.6 61.7 49.4 60.3 Q49.8 61.7 49.8 63.2 49.8 64.7 49.4 66.1 L44.6 64.7 Q44.2 65.8 43.3 66.8 42.4 67.6 41.3 68.0 L42.7 72.8 39.8 73.2 36.9 72.8 38.3 68.0 Q37.1 67.7 36.2 66.8 35.3 65.8 35.0 64.7 L30.3 66.1 30.25 66.1 Q30.95 68.45 32.8 70.3 L33.15 70.65 34.05 71.4 Q36.6 73.25 39.85 73.25 42.4 73.25 44.5 72.15 L45.65 71.4 46.9 70.3 Q49.85 67.35 49.85 63.25 49.85 59.15 46.9 56.2 45.3 54.6 43.4 53.9 L43.4 53.5 42.45 53.5 42.8 53.6 42.8 53.7 42.7 53.6 41.3 58.5 Q42.35 58.8 43.25 59.65 M-21.8 16.7 L-29.3 24.2 -29.2 24.3 -28.6 25.7 -21.8 25.7 -21.8 16.7" fill="#000000" fill-rule="evenodd" stroke="none"/>
      <path d="M32.1 -42.55 L33.35 -42.55 Q36.3 -42.45 38.45 -40.35 40.55 -38.25 40.65 -35.25 L40.65 16.45 42.2 16.45 Q44.4 16.5 46.1 17.15 47.8 17.8 49.2 20.3 L66.2 57.85 64.6 58.55 48.4 22.8 Q46.15 17.85 40.65 18.45 L40.65 19.55 40.65 20.45 40.65 48.25 39.85 48.2 39.8 48.2 39.05 48.2 38.7 48.25 38.7 -34.55 Q39.25 -36.75 37.1 -38.8 35.1 -40.65 32.1 -40.6 L32.1 -42.55 M62.2 58.7 L62.2 64.2 60.25 64.2 60.25 54.15 61.4 54.15 62.2 54.15 62.2 56.0 62.2 58.7 M-45.8 -78.4 L-45.4 -78.4 Q-34.85 -77.7 -35.45 -42.55 L-30.8 -42.55 -30.8 -40.6 -35.35 -40.6 -35.35 -39.9 -35.3 -38.55 -35.3 -22.05 36.65 -22.05 36.65 -20.25 -27.4 -20.25 Q-32.25 -21.25 -37.5 -21.3 L-37.5 -42.55 Q-37.05 -71.85 -45.05 -76.8 L-45.8 -76.8 -45.8 -77.65 -45.8 -78.4 M36.65 9.45 L36.65 10.95 8.8 10.95 8.2 9.45 36.65 9.45 M5.45 53.45 L28.4 53.45 27.25 54.95 4.6 54.95 5.45 53.45 M-4.6 53.45 L-5.75 54.95 -7.75 54.95 -8.6 54.1 -9.25 53.45 -8.05 53.45 -4.6 53.45 M-1.15 9.45 L-0.4 10.95 -3.35 10.95 -4.2 9.45 -3.35 10.95 -16.05 10.95 -14.55 9.45 -4.2 9.45 -1.15 9.45 M36.65 53.75 L36.65 54.95 34.3 54.95 Q35.4 54.2 36.65 53.75 M43.4 53.9 L43.4 58.7 43.25 59.65 Q42.35 58.8 41.3 58.5 L42.7 53.6 42.8 53.7 42.8 53.6 42.45 53.5 43.4 53.5 43.4 53.9 M-23.05 9.45 L-24.55 10.95 -35.2 10.95 -35.2 9.45 -23.05 9.45 M-17.65 53.45 L-16.15 54.95 -35.2 54.9 -35.2 53.45 -17.65 53.45 M-8.05 53.45 L-8.6 54.1 -8.05 53.45" fill="#eceefa" fill-rule="evenodd" stroke="none"/>
      <path d="M60.25 64.2 L59.45 64.2 59.45 54.15 60.15 54.15 60.25 54.15 60.25 64.2 M-30.8 -40.6 L-30.8 -40.5 32.1 -40.5 32.1 -40.6 Q35.1 -40.65 37.1 -38.8 39.25 -36.75 38.7 -34.55 L38.7 48.25 37.9 48.3 37.9 -33.85 Q38.45 -36.05 36.3 -38.1 34.1 -40.15 30.6 -39.9 L-35.35 -39.9 -35.35 -40.6 -30.8 -40.6 M40.65 19.55 L40.65 18.45 Q46.15 17.85 48.4 22.8 L64.6 58.55 63.55 59.0 62.2 56.0 62.2 54.15 61.4 54.15 47.2 22.65 Q45.85 19.95 43.1 19.55 L40.65 19.55 M-37.5 -21.3 L-38.1 -21.3 -38.2 -21.3 -38.4 -21.3 -38.4 -41.75 Q-38.1 -73.4 -45.8 -75.95 L-45.8 -76.8 -45.05 -76.8 Q-37.05 -71.85 -37.5 -42.55 L-37.5 -21.3 M37.9 57.45 L37.9 57.05 38.05 57.45 37.9 57.45" fill="#727b7e" fill-rule="evenodd" stroke="none"/>
      <path d="M62.55 59.45 L62.2 58.7 62.2 56.0 63.55 59.0 62.55 59.45 M59.45 64.2 L58.2 64.2 58.2 54.15 59.45 54.15 59.45 64.2 M60.15 54.15 L46.3 23.55 Q44.95 20.85 42.2 20.45 L40.65 20.45 40.65 19.55 43.1 19.55 Q45.85 19.95 47.2 22.65 L61.4 54.15 60.25 54.15 60.15 54.15 M25.9 57.45 L2.9 57.45 4.6 54.95 27.25 54.95 25.9 57.45 M-39.3 -21.3 L-39.3 -42.55 Q-38.85 -71.85 -45.4 -74.4 L-45.8 -74.4 -45.8 -75.95 Q-38.1 -73.4 -38.4 -41.75 L-38.4 -21.3 -39.3 -21.3 M36.65 -22.05 L36.65 -35.15 Q36.6 -36.55 35.6 -37.55 34.75 -38.4 33.55 -38.55 L33.15 -38.55 -35.3 -38.55 -35.35 -39.9 30.6 -39.9 Q34.1 -40.15 36.3 -38.1 38.45 -36.05 37.9 -33.85 L37.9 48.3 36.65 48.5 36.65 13.45 22.2 13.45 22.2 12.6 18.2 12.6 18.2 13.45 9.65 13.45 8.8 10.95 36.65 10.95 36.65 9.45 36.65 2.45 36.65 -20.25 36.65 -22.05 M-5.75 54.95 L-6.05 55.3 -6.7 56.0 -7.75 54.95 -5.75 54.95 M-0.4 10.95 L0.65 13.45 -2.2 13.45 -3.35 10.95 -2.2 13.45 -17.8 13.45 -17.8 12.7 -16.05 10.95 -3.35 10.95 -0.4 10.95 M34.3 54.95 L36.65 54.95 36.65 53.75 36.95 53.7 37.9 57.05 37.9 57.45 31.75 57.45 32.8 56.2 34.3 54.95 M-24.55 10.95 L-27.05 13.45 -35.2 13.45 -35.2 10.95 -24.55 10.95 M-16.15 54.95 L-13.65 57.45 -35.2 57.45 -35.2 54.9 -16.15 54.95" fill="#b8bdc6" fill-rule="evenodd" stroke="none"/>
      <path d="M36.65 -20.25 L36.65 2.45 4.6 2.45 1.1 -2.4 -2.75 -6.7 -4.9 -8.75 -6.85 -10.4 Q-12.3 -14.85 -18.55 -17.5 -22.8 -19.3 -27.4 -20.25 L36.65 -20.25 M-35.2 -10.2 L-35.2 -12.8 Q-23.3 -12.1 -14.0 -5.2 L-10.9 -2.7 -12.75 -0.8 Q-22.4 -9.3 -35.2 -10.2 -22.4 -9.3 -12.75 -0.8 L-16.05 2.45 -35.2 2.45 -35.2 -10.2 M-7.55 2.45 L-6.6 1.5 -5.8 2.45 -7.55 2.45" fill="url(#gradient0)" fill-rule="evenodd" stroke="none"/>
      <path d="M17.55 34.6 L15.2 34.6 15.2 34.3 18.2 32.6 18.2 34.55 17.55 34.6 M18.2 16.6 L18.2 17.6 15.2 19.3 15.2 16.6 18.2 16.6 M18.2 22.6 L18.2 27.6 15.2 29.3 15.2 24.3 18.2 22.6 M-17.8 16.6 L-14.8 16.6 -14.8 17.6 -17.8 19.3 -17.8 16.6 M-14.8 25.7 L-17.8 25.7 -17.8 24.3 -14.8 22.6 -14.8 25.7 M-17.8 34.6 L-17.8 34.3 -14.8 32.6 -14.8 34.55 -15.45 34.6 -17.8 34.6" fill="#ffff00" fill-rule="evenodd" stroke="none"/>
      <path d="M22.2 16.6 L25.2 16.6 Q30.2 16.6 30.2 21.6 L30.2 29.6 Q30.2 34.6 25.2 34.6 L22.2 34.6 22.2 16.6 M18.2 34.6 L17.55 34.6 18.2 34.55 18.2 34.6 M15.2 34.6 L11.5 34.6 11.8 28.7 Q11.8 22.35 10.5 16.6 L15.2 16.6 15.2 19.3 15.2 24.3 15.2 29.3 15.2 34.3 15.2 34.6 M1.75 16.6 Q3.0 20.95 3.3 25.7 L0.7 25.7 Q0.35 20.95 -1.0 16.6 0.35 20.95 0.7 25.7 L-14.8 25.7 -14.8 22.6 -14.8 17.6 -14.8 16.6 -1.0 16.6 1.75 16.6 M0.7 31.7 L3.3 31.7 3.05 34.6 0.4 34.6 0.7 31.7 0.4 34.6 -15.45 34.6 -14.8 34.55 -14.8 32.6 -14.8 31.7 0.7 31.7 M-21.8 16.7 L-21.8 25.7 -28.6 25.7 -29.2 24.3 -29.3 24.2 -21.8 16.7 M-29.05 32.75 L-28.6 31.7 -21.8 31.7 -21.8 34.6 -24.8 34.6 Q-27.85 34.6 -29.05 32.75" fill="url(#gradient1)" fill-rule="evenodd" stroke="none"/>
      <path d="M15.2 19.3 L18.2 17.6 18.2 22.6 15.2 24.3 15.2 19.3 M18.2 27.6 L18.2 32.6 15.2 34.3 15.2 29.3 18.2 27.6 M-17.8 24.3 L-17.8 19.3 -14.8 17.6 -14.8 22.6 -17.8 24.3 M-17.8 34.3 L-17.8 31.7 -14.8 31.7 -14.8 32.6 -17.8 34.3" fill="#333333" fill-rule="evenodd" stroke="none"/>
      <path d="M0.7 25.7 L0.8 28.7 0.7 31.7 0.4 34.6 Q-1.1 45.15 -8.05 53.45 L-8.6 54.1 -10.65 56.25 -12.8 58.3 Q-22.45 66.7 -35.2 67.6 L-38.2 67.7 -41.2 67.6 Q-50.25 67.0 -57.75 62.55 -60.75 60.8 -63.5 58.4 L-63.85 58.1 -65.8 56.25 -67.75 54.15 Q-72.55 48.7 -74.9 42.25 -76.5 37.8 -77.0 32.9 L-77.0 32.5 -77.05 31.7 -77.2 28.7 -77.05 25.7 -77.0 24.9 -77.0 24.65 Q-76.55 19.7 -74.9 15.2 -72.55 8.75 -67.8 3.3 L-65.8 1.15 -63.85 -0.75 -63.6 -0.9 Q-60.85 -3.35 -57.75 -5.2 -50.25 -9.6 -41.2 -10.2 L-38.2 -10.3 -35.2 -10.2 Q-22.4 -9.3 -12.75 -0.8 L-10.65 1.15 -8.5 3.45 Q-6.0 6.3 -4.2 9.45 L-3.35 10.95 -2.2 13.45 -1.0 16.6 Q0.35 20.95 0.7 25.7 Z" fill="none" stroke="#b8bdc6" stroke-linecap="round" stroke-linejoin="round" stroke-width="2.0"/>
      <path d="M-29.25 12.95 L-27.1 13.1 Q-23.35 13.55 -21.4 15.85 -19.25 18.35 -19.25 22.95 L-19.25 33.95 Q-19.25 38.75 -21.5 41.25 -23.55 43.4 -27.3 43.85 L-29.25 43.95 -29.65 43.95 -29.65 12.95 -29.25 12.95" fill="url(#gradient2)" fill-rule="evenodd" stroke="none"/>
      <path d="M-42.65 13.0 L-42.65 12.0 -34.65 12.0 -34.65 13.0 -34.65 44.0 -34.65 45.0 -42.65 45.0 -42.65 44.0 -42.65 13.0 M-38.45 31.5 Q-37.2 31.5 -36.35 30.6 -35.45 29.75 -35.45 28.5 -35.45 27.25 -36.35 26.35 -37.2 25.5 -38.45 25.5 -39.7 25.5 -40.6 26.35 -41.45 27.25 -41.45 28.5 -41.45 29.75 -40.6 30.6 -39.7 31.5 -38.45 31.5" fill="url(#gradient3)" fill-rule="evenodd" stroke="none"/>
      <path d="M-34.65 13.0 L-30.45 13.0 -30.45 44.0 -34.65 44.0 -34.65 13.0 M-42.65 44.0 L-50.65 44.0 -50.65 13.0 -42.65 13.0 -42.65 44.0" fill="url(#gradient4)" fill-rule="evenodd" stroke="none"/>
      <path d="M-38.45 31.5 Q-39.7 31.5 -40.6 30.6 -41.45 29.75 -41.45 28.5 -41.45 27.25 -40.6 26.35 -39.7 25.5 -38.45 25.5 -37.2 25.5 -36.35 26.35 -35.45 27.25 -35.45 28.5 -35.45 29.75 -36.35 30.6 -37.2 31.5 -38.45 31.5" fill="#b8bdc6" fill-rule="evenodd" stroke="none"/>
      <path d="M-50.65 44.0 L-53.6 43.25 Q-55.3 42.75 -55.6 41.55 L-55.65 41.0 -55.65 16.0 -55.6 15.55 Q-55.35 14.25 -53.6 13.75 L-50.65 13.0 -50.65 44.0" fill="url(#gradient5)" fill-rule="evenodd" stroke="none"/>
      <path d="M-55.65 41.0 L-57.65 41.0 -57.65 39.0 -57.65 18.0 -57.65 16.0 -55.65 16.0 -55.65 41.0" fill="#4a554f" fill-rule="evenodd" stroke="none"/>
      <path d="M-57.65 39.0 L-60.65 39.0 Q-63.1 38.95 -65.65 38.0 L-67.65 37.45 -67.65 19.6 -65.65 19.0 Q-63.1 18.05 -60.65 18.0 L-57.65 18.0 -57.65 39.0" fill="url(#gradient6)" fill-rule="evenodd" stroke="none"/>
    </g>
    <linearGradient gradientTransform="matrix(0.0, 0.0168, -0.0143, 0.0, 0.65, -9.8)" gradientUnits="userSpaceOnUse" id="gradient0" spreadMethod="pad" x1="-819.2" x2="819.2">
      <stop offset="0.0" stop-color="#a7adb4"/>
      <stop offset="1.0" stop-color="#eceefa"/>
    </linearGradient>
    <linearGradient gradientTransform="matrix(0.0, 0.0097, -0.0093, 0.0, -3.5, 24.25)" gradientUnits="userSpaceOnUse" id="gradient1" spreadMethod="pad" x1="-819.2" x2="819.2">
      <stop offset="0.0" stop-color="#dce7ef"/>
      <stop offset="0.26666666666666666" stop-color="#2d403c"/>
      <stop offset="1.0" stop-color="#a49689"/>
    </linearGradient>
    <radialGradient cx="0" cy="0" gradientTransform="matrix(0.0067, 0.0, 0.0, 0.0176, -23.0, 28.3)" gradientUnits="userSpaceOnUse" id="gradient2" r="819.2" spreadMethod="pad">
      <stop offset="0.0" stop-color="#666666"/>
      <stop offset="1.0" stop-color="#000000"/>
    </radialGradient>
    <linearGradient gradientTransform="matrix(0.0, 0.0203, -0.011, 0.0, -75.9, 28.5)" gradientUnits="userSpaceOnUse" id="gradient3" spreadMethod="pad" x1="-819.2" x2="819.2">
      <stop offset="0.0" stop-color="#dce7ef"/>
      <stop offset="0.11764705882352941" stop-color="#999999"/>
      <stop offset="0.30196078431372547" stop-color="#dce7ef"/>
      <stop offset="0.39215686274509803" stop-color="#dce7ef"/>
      <stop offset="0.6039215686274509" stop-color="#666666"/>
      <stop offset="1.0" stop-color="#dce7ef"/>
    </linearGradient>
    <linearGradient gradientTransform="matrix(0.0, 0.0186, -0.037, 0.0, -135.7, 28.5)" gradientUnits="userSpaceOnUse" id="gradient4" spreadMethod="pad" x1="-819.2" x2="819.2">
      <stop offset="0.0" stop-color="#dce7ef"/>
      <stop offset="0.11764705882352941" stop-color="#6692bb"/>
      <stop offset="0.30196078431372547" stop-color="#dce7ef"/>
      <stop offset="0.39215686274509803" stop-color="#dce7ef"/>
      <stop offset="0.6039215686274509" stop-color="#426693"/>
      <stop offset="1.0" stop-color="#dce7ef"/>
    </linearGradient>
    <linearGradient gradientTransform="matrix(0.0, 0.0186, -0.011, 0.0, -75.9, 28.5)" gradientUnits="userSpaceOnUse" id="gradient5" spreadMethod="pad" x1="-819.2" x2="819.2">
      <stop offset="0.0" stop-color="#dce7ef"/>
      <stop offset="0.11764705882352941" stop-color="#6692bb"/>
      <stop offset="0.30196078431372547" stop-color="#dce7ef"/>
      <stop offset="0.39215686274509803" stop-color="#dce7ef"/>
      <stop offset="0.6039215686274509" stop-color="#426693"/>
      <stop offset="1.0" stop-color="#dce7ef"/>
    </linearGradient>
    <linearGradient gradientTransform="matrix(0.0, 0.0134, -0.0208, 0.0, -73.75, 28.35)" gradientUnits="userSpaceOnUse" id="gradient6" spreadMethod="pad" x1="-819.2" x2="819.2">
      <stop offset="0.0" stop-color="#dce7ef"/>
      <stop offset="0.26666666666666666" stop-color="#2d403c"/>
      <stop offset="1.0" stop-color="#a49689"/>
    </linearGradient>
  </defs>
</svg>
