<?xml version="1.0" encoding="UTF-8" standalone="no"?>
<svg xmlns:ffdec="https://www.free-decompiler.com/flash" xmlns:xlink="http://www.w3.org/1999/xlink" ffdec:objectType="frame" height="40.0px" width="40.0px" xmlns="http://www.w3.org/2000/svg">
  <g transform="matrix(1.0, 0.0, 0.0, 1.0, 20.0, 20.0)">
    <use ffdec:characterId="62" height="37.4" transform="matrix(1.0, 0.0, 0.0, 1.0, -18.7, -18.7)" width="37.4" xlink:href="#shape0"/>
  </g>
  <defs>
    <g id="shape0" transform="matrix(1.0, 0.0, 0.0, 1.0, 18.7, 18.7)">
      <path d="M13.1 -13.1 Q18.7 -7.85 18.7 0.0 18.7 7.5 13.1 13.1 7.5 18.7 0.0 18.7 -7.85 18.7 -13.5 13.1 -18.7 7.5 -18.7 0.0 -18.7 -7.85 -13.5 -13.1 -7.85 -18.7 0.0 -18.7 7.5 -18.7 13.1 -13.1 M12.15 -12.15 Q6.9 -17.25 0.0 -17.25 -7.25 -17.25 -12.45 -12.15 -17.25 -7.25 -17.25 0.0 -17.25 6.9 -12.45 12.15 -7.25 17.25 0.0 17.25 6.9 17.25 12.15 12.15 17.25 6.9 17.25 0.0 17.25 -7.25 12.15 -12.15" fill="#ffffff" fill-rule="evenodd" stroke="none"/>
    </g>
  </defs>
</svg>
