<?xml version="1.0" encoding="UTF-8" standalone="no"?>
<svg xmlns:ffdec="https://www.free-decompiler.com/flash" xmlns:xlink="http://www.w3.org/1999/xlink" ffdec:objectType="frame" height="40.0px" width="40.0px" xmlns="http://www.w3.org/2000/svg">
  <g transform="matrix(1.0, 0.0, 0.0, 1.0, 20.0, 20.0)">
    <use ffdec:characterId="54" height="22.8" transform="matrix(1.0, 0.0, 0.0, 1.0, -11.4, -11.4)" width="22.8" xlink:href="#shape0"/>
  </g>
  <defs>
    <g id="shape0" transform="matrix(1.0, 0.0, 0.0, 1.0, 11.4, 11.4)">
      <path d="M7.95 -7.95 Q11.4 -4.8 11.4 0.0 11.4 4.55 7.95 7.95 4.55 11.4 0.0 11.4 -4.8 11.4 -8.2 7.95 -11.4 4.55 -11.4 0.0 -11.4 -4.8 -8.2 -7.95 -4.8 -11.4 0.0 -11.4 4.55 -11.4 7.95 -7.95 M2.5 -2.5 Q1.45 -3.55 0.0 -3.55 -1.5 -3.55 -2.55 -2.5 -3.55 -1.5 -3.55 0.0 -3.55 1.45 -2.55 2.5 -1.5 3.55 0.0 3.55 1.45 3.55 2.5 2.5 3.55 1.45 3.55 0.0 3.55 -1.5 2.5 -2.5" fill="#ffffff" fill-rule="evenodd" stroke="none"/>
    </g>
  </defs>
</svg>
