<?xml version="1.0" encoding="UTF-8" standalone="no"?>
<svg xmlns:ffdec="https://www.free-decompiler.com/flash" xmlns:xlink="http://www.w3.org/1999/xlink" ffdec:objectType="frame" height="40.0px" width="40.0px" xmlns="http://www.w3.org/2000/svg">
  <g transform="matrix(1.0, 0.0, 0.0, 1.0, 20.0, 20.0)">
    <use ffdec:characterId="55" height="25.3" transform="matrix(1.0, 0.0, 0.0, 1.0, -12.65, -12.65)" width="25.3" xlink:href="#shape0"/>
  </g>
  <defs>
    <g id="shape0" transform="matrix(1.0, 0.0, 0.0, 1.0, 12.65, 12.65)">
      <path d="M8.85 -8.85 Q12.65 -5.3 12.65 0.0 12.65 5.05 8.85 8.85 5.05 12.65 0.0 12.65 -5.3 12.65 -9.1 8.85 -12.65 5.05 -12.65 0.0 -12.65 -5.3 -9.1 -8.85 -5.3 -12.65 0.0 -12.65 5.05 -12.65 8.85 -8.85 M4.2 -4.2 Q2.4 -5.95 0.0 -5.95 -2.5 -5.95 -4.25 -4.2 -5.95 -2.5 -5.95 0.0 -5.95 2.4 -4.25 4.2 -2.5 5.95 0.0 5.95 2.4 5.95 4.2 4.2 5.95 2.4 5.95 0.0 5.95 -2.5 4.2 -4.2" fill="#ffffff" fill-rule="evenodd" stroke="none"/>
    </g>
  </defs>
</svg>
