<?xml version="1.0" encoding="UTF-8" standalone="no"?>
<svg xmlns:ffdec="https://www.free-decompiler.com/flash" xmlns:xlink="http://www.w3.org/1999/xlink" ffdec:objectType="frame" height="40.0px" width="40.0px" xmlns="http://www.w3.org/2000/svg">
  <g transform="matrix(1.0, 0.0, 0.0, 1.0, 20.0, 20.0)">
    <use ffdec:characterId="58" height="31.7" transform="matrix(1.0, 0.0, 0.0, 1.0, -15.85, -15.85)" width="31.7" xlink:href="#shape0"/>
  </g>
  <defs>
    <g id="shape0" transform="matrix(1.0, 0.0, 0.0, 1.0, 15.85, 15.85)">
      <path d="M11.1 -11.1 Q15.85 -6.65 15.85 0.0 15.85 6.35 11.1 11.1 6.35 15.85 0.0 15.85 -6.65 15.85 -11.4 11.1 -15.85 6.35 -15.85 0.0 -15.85 -6.65 -11.4 -11.1 -6.65 -15.85 0.0 -15.85 6.35 -15.85 11.1 -11.1 M8.4 -8.4 Q4.75 -11.95 0.0 -11.95 -5.0 -11.95 -8.6 -8.4 -11.95 -5.0 -11.95 0.0 -11.95 4.75 -8.6 8.4 -5.0 11.95 0.0 11.95 4.75 11.95 8.4 8.4 11.95 4.75 11.95 0.0 11.95 -5.0 8.4 -8.4" fill="#ffffff" fill-rule="evenodd" stroke="none"/>
    </g>
  </defs>
</svg>
