<?xml version="1.0" encoding="UTF-8" standalone="no"?>
<svg xmlns:ffdec="https://www.free-decompiler.com/flash" xmlns:xlink="http://www.w3.org/1999/xlink" ffdec:objectType="frame" height="40.0px" width="40.0px" xmlns="http://www.w3.org/2000/svg">
  <g transform="matrix(1.0, 0.0, 0.0, 1.0, 20.0, 20.0)">
    <use ffdec:characterId="61" height="36.3" transform="matrix(1.0, 0.0, 0.0, 1.0, -18.15, -18.15)" width="36.3" xlink:href="#shape0"/>
  </g>
  <defs>
    <g id="shape0" transform="matrix(1.0, 0.0, 0.0, 1.0, 18.15, 18.15)">
      <path d="M12.7 -12.7 Q18.15 -7.65 18.15 0.0 18.15 7.25 12.7 12.7 7.25 18.15 0.0 18.15 -7.65 18.15 -13.1 12.7 -18.15 7.25 -18.15 0.0 -18.15 -7.65 -13.1 -12.7 -7.65 -18.15 0.0 -18.15 7.25 -18.15 12.7 -12.7 M11.4 -11.4 Q6.5 -16.2 0.0 -16.2 -6.8 -16.2 -11.7 -11.4 -16.2 -6.8 -16.2 0.0 -16.2 6.5 -11.7 11.4 -6.8 16.2 0.0 16.2 6.5 16.2 11.4 11.4 16.2 6.5 16.2 0.0 16.2 -6.8 11.4 -11.4" fill="#ffffff" fill-rule="evenodd" stroke="none"/>
    </g>
  </defs>
</svg>
