<?xml version="1.0" encoding="UTF-8" standalone="no"?>
<svg xmlns:ffdec="https://www.free-decompiler.com/flash" xmlns:xlink="http://www.w3.org/1999/xlink" ffdec:objectType="frame" height="64.25px" width="31.65px" xmlns="http://www.w3.org/2000/svg">
  <g transform="matrix(1.0, 0.0, 0.0, 1.0, 15.85, 33.05)">
    <use ffdec:characterId="1920" height="63.3" transform="matrix(1.0, 0.0, 0.0, 1.0, -15.85, -33.05)" width="31.65" xlink:href="#shape0"/>
  </g>
  <defs>
    <g id="shape0" transform="matrix(1.0, 0.0, 0.0, 1.0, 15.85, 33.05)">
      <path d="M1.35 -32.05 L1.15 -31.05 Q-0.1 -29.85 -1.8 -29.3 L-2.25 -28.9 -1.55 -27.65 -2.2 -27.35 -3.2 -27.4 -3.3 -27.45 Q-4.4 -27.35 -5.3 -26.8 L-7.8 -25.05 -13.25 -20.65 -13.45 -20.45 -12.65 -22.65 -11.9 -24.4 -10.6 -25.7 Q-9.0 -26.7 -7.25 -26.55 L-5.2 -28.25 Q-4.3 -29.0 -3.2 -29.25 L-4.8 -29.4 -1.45 -32.25 0.5 -33.05 1.35 -32.05 M14.85 -22.55 L14.15 -21.55 Q10.3 -22.75 7.65 -25.5 L7.0 -26.5 6.35 -26.6 6.0 -27.15 6.9 -26.9 2.7 -29.8 3.1 -30.9 4.8 -31.4 6.75 -31.4 Q8.0 -31.4 8.9 -30.8 9.75 -30.25 9.75 -29.45 L8.5 -28.8 11.25 -27.9 12.5 -26.9 Q12.85 -26.5 12.35 -26.5 L10.55 -26.85 7.85 -27.3 7.8 -27.1 7.25 -26.55 9.8 -24.5 10.5 -24.85 Q12.3 -25.85 13.75 -24.45 L14.9 -23.0 14.85 -22.55 M-7.9 18.15 L-5.85 18.35 -3.45 17.9 -1.2 17.65 0.0 17.45 -0.25 16.65 2.45 15.8 5.95 14.3 6.35 13.9 5.6 13.05 Q5.5 11.1 7.55 10.95 L8.3 11.2 8.45 12.8 7.45 13.15 7.7 13.7 2.05 18.0 4.5 18.65 2.55 19.75 2.0 19.95 0.9 20.25 -0.4 21.05 -1.0 21.3 -3.1 22.3 -3.35 22.4 -3.35 22.45 -4.95 24.65 -5.05 22.65 -9.25 20.1 Q-6.65 19.5 -4.15 20.45 L-1.2 19.4 -1.5 19.0 Q-5.95 20.1 -10.0 18.25 L-9.8 17.85 -7.9 18.15 M-5.3 11.3 L-5.0 10.85 -2.55 10.6 -1.65 9.65 Q-0.6 8.65 0.25 8.65 L0.25 8.7 0.0 9.2 Q-0.85 11.5 -2.65 13.1 -3.85 14.15 -5.3 13.5 L-5.3 11.3 M-0.6 4.0 Q-0.25 3.6 0.5 3.6 2.0 3.6 2.0 5.0 L2.0 5.2 1.9 5.55 1.7 5.7 -1.0 5.85 -0.6 4.0 M-0.3 -24.05 L-0.95 -22.45 -1.25 -22.3 Q-2.9 -22.1 -3.3 -23.55 L-3.0 -24.75 -1.6 -25.05 -0.3 -24.05 M-4.85 -22.7 Q-4.0 -21.9 -4.2 -20.4 -4.3 -19.9 -4.55 -19.6 -5.5 -18.75 -6.75 -19.1 L-7.65 -19.7 Q-8.8 -20.95 -7.8 -22.45 L-6.4 -23.0 -4.85 -22.7 M-6.95 15.65 L-7.85 15.9 Q-8.5 15.9 -8.9 15.0 L-9.15 14.3 Q-9.15 13.5 -7.55 13.55 L-6.85 13.65 Q-6.0 13.85 -6.0 14.55 -6.0 15.05 -6.75 15.5 L-6.95 15.65 M5.0 22.15 L4.9 22.0 6.5 20.75 6.8 20.7 9.35 20.35 Q8.75 21.8 7.4 22.4 6.15 23.0 5.0 22.15" fill="#ff0000" fill-rule="evenodd" stroke="none"/>
      <path d="M1.35 -32.05 L2.6 -32.0 Q4.6 -32.15 6.75 -31.4 L4.8 -31.4 3.1 -30.9 2.7 -29.8 6.9 -26.9 6.0 -27.15 6.35 -26.6 7.0 -26.5 7.65 -25.5 Q10.3 -22.75 14.15 -21.55 L14.85 -22.55 15.1 -22.0 Q15.55 -20.85 15.15 -19.45 L14.7 -19.0 13.85 -19.2 7.85 -21.8 Q7.3 -20.9 6.35 -20.65 L5.25 -20.8 Q4.35 -22.1 4.45 -23.75 L4.65 -28.25 3.0 -28.4 Q1.2 -27.35 0.6 -25.35 L-0.1 -25.25 -0.8 -25.6 Q-2.15 -26.35 -3.2 -27.4 L-2.2 -27.35 -1.55 -27.65 -2.25 -28.9 -1.8 -29.3 Q-0.1 -29.85 1.15 -31.05 L1.35 -32.05 M9.75 -29.45 L11.25 -27.9 8.5 -28.8 9.75 -29.45 M12.35 -26.5 L13.75 -24.45 Q12.3 -25.85 10.5 -24.85 L9.8 -24.5 7.25 -26.55 7.8 -27.1 7.85 -27.3 10.55 -26.85 12.35 -26.5 M-13.2 -17.2 Q-14.3 -14.45 -14.25 -11.55 L-14.25 -9.5 -15.25 -15.7 -15.4 -16.85 -15.35 -17.95 Q-14.45 -20.65 -13.15 -23.15 L-11.45 -26.0 Q-10.4 -27.55 -8.85 -28.6 -7.4 -29.85 -5.6 -30.55 L-1.45 -32.25 -4.8 -29.4 -3.2 -29.25 Q-4.3 -29.0 -5.2 -28.25 L-7.25 -26.55 Q-9.0 -26.7 -10.6 -25.7 L-11.9 -24.4 -12.65 -22.65 -13.45 -20.45 -13.25 -20.65 -7.8 -25.05 -5.3 -26.8 Q-4.4 -27.35 -3.3 -27.45 -5.6 -26.25 -7.65 -24.55 -11.05 -21.75 -12.95 -17.8 L-13.2 -17.2 M-12.5 15.1 L-11.8 13.75 -7.9 18.15 -9.8 17.85 -10.0 18.25 Q-5.95 20.1 -1.5 19.0 L-1.2 19.4 -4.15 20.45 Q-6.65 19.5 -9.25 20.1 L-5.05 22.65 -4.95 24.65 -3.35 22.45 -3.35 22.4 -3.1 22.3 -2.8 25.5 Q-5.65 25.8 -8.1 24.25 -9.1 23.6 -9.45 22.35 L-9.85 20.95 -10.0 20.2 -11.4 19.0 -11.95 16.5 -12.5 15.1 M-5.85 18.35 L-3.95 17.6 -3.9 16.9 -2.75 16.6 -4.9 14.2 Q-6.1 12.9 -5.3 11.3 L-5.3 13.5 Q-3.85 14.15 -2.65 13.1 -0.85 11.5 0.0 9.2 L0.25 8.7 0.25 8.65 -0.5 6.9 Q-1.4 6.15 -1.35 5.2 L-1.2 4.45 -0.6 4.0 -1.0 5.85 1.7 5.7 1.9 5.55 1.75 6.55 1.3 7.0 Q1.65 7.85 1.4 8.6 L0.75 10.55 Q0.3 11.9 -1.15 12.45 -0.85 13.25 -1.2 14.05 L-2.0 15.75 -1.55 16.4 2.45 15.8 -0.25 16.65 0.0 17.45 -1.2 17.65 -3.45 17.9 -5.85 18.35 M5.95 14.3 L5.1 12.6 5.6 11.15 7.05 10.65 Q8.35 10.45 8.7 11.6 9.15 13.0 8.85 14.45 L5.65 16.15 5.9 17.3 6.75 18.2 6.25 18.95 Q5.4 19.7 5.85 20.05 L7.15 20.35 7.85 20.25 Q9.1 19.6 10.5 20.0 L10.6 20.95 7.85 23.3 6.1 23.95 Q4.15 24.35 2.45 23.3 L2.25 23.7 2.55 19.75 Q0.9 21.8 -0.4 21.05 L0.9 20.25 2.0 19.95 2.55 19.75 4.5 18.65 2.05 18.0 7.7 13.7 7.45 13.15 8.45 12.8 8.3 11.2 7.55 10.95 Q5.5 11.1 5.6 13.05 L6.35 13.9 5.95 14.3 M-1.6 -25.05 L-3.0 -24.75 -3.3 -23.55 Q-2.9 -22.1 -1.25 -22.3 L-0.95 -22.45 -0.3 -24.05 -0.15 -23.4 Q0.1 -21.4 -1.6 -20.45 L-1.85 -20.4 Q-3.0 -20.3 -3.75 -21.1 -4.0 -18.15 -6.85 -17.65 L-8.2 -18.1 Q-8.7 -18.35 -8.8 -18.8 -9.2 -20.15 -8.75 -21.35 L-8.25 -22.25 Q-7.4 -23.05 -6.4 -23.0 L-7.8 -22.45 Q-8.8 -20.95 -7.65 -19.7 L-6.75 -19.1 Q-5.5 -18.75 -4.55 -19.6 -4.3 -19.9 -4.2 -20.4 -4.0 -21.9 -4.85 -22.7 L-4.2 -22.3 Q-4.4 -23.05 -4.05 -23.85 L-3.6 -24.6 Q-2.8 -25.4 -1.6 -25.05 M-6.85 13.65 L-7.55 13.55 Q-9.15 13.5 -9.15 14.3 L-8.9 15.0 Q-8.5 15.9 -7.85 15.9 L-6.95 15.65 Q-7.3 16.35 -8.5 16.35 -10.25 16.35 -10.25 14.7 -10.25 13.7 -8.5 13.3 -7.2 13.0 -6.85 13.65 M5.0 22.15 Q6.15 23.0 7.4 22.4 8.75 21.8 9.35 20.35 L6.8 20.7 6.5 20.75 4.9 22.0 5.0 22.15" fill="#990000" fill-rule="evenodd" stroke="none"/>
      <path d="M-3.2 -27.4 Q-2.15 -26.35 -0.8 -25.6 L-0.1 -25.25 0.6 -25.35 Q1.2 -27.35 3.0 -28.4 L4.65 -28.25 4.45 -23.75 Q4.35 -22.1 5.25 -20.8 L6.35 -20.65 Q7.3 -20.9 7.85 -21.8 L13.85 -19.2 13.5 -17.8 13.0 -16.6 12.75 -14.8 13.5 -15.35 Q14.25 -16.1 14.6 -17.55 L14.7 -19.0 15.15 -19.45 Q15.8 -16.15 15.8 -11.3 15.8 -9.35 14.0 -0.9 L13.75 0.25 12.7 5.2 11.7 9.8 11.4 14.25 10.85 18.25 10.5 20.0 Q9.1 19.6 7.85 20.25 L7.15 20.35 5.85 20.05 Q5.4 19.7 6.25 18.95 L6.75 18.2 5.9 17.3 5.65 16.15 8.85 14.45 Q9.15 13.0 8.7 11.6 8.35 10.45 7.05 10.65 L5.6 11.15 5.1 12.6 5.95 14.3 2.45 15.8 -1.55 16.4 -2.0 15.75 -1.2 14.05 Q-0.85 13.25 -1.15 12.45 0.3 11.9 0.75 10.55 L1.4 8.6 Q1.65 7.85 1.3 7.0 L1.75 6.55 1.9 5.55 2.0 5.2 2.0 5.0 Q2.0 3.6 0.5 3.6 -0.25 3.6 -0.6 4.0 L-1.2 4.45 -1.35 5.2 Q-1.4 6.15 -0.5 6.9 L0.25 8.65 Q-0.6 8.65 -1.65 9.65 L-2.55 10.6 -5.0 10.85 -5.3 11.3 Q-6.1 12.9 -4.9 14.2 L-2.75 16.6 -3.9 16.9 -3.95 17.6 -5.85 18.35 -7.9 18.15 -11.8 13.75 -12.5 15.1 -12.8 14.75 -12.95 12.45 -13.45 10.25 -14.4 5.2 -15.3 -1.15 -15.35 -1.55 -15.85 -8.25 Q-16.0 -12.05 -15.25 -15.7 L-14.25 -9.5 -14.25 -11.55 Q-14.3 -14.45 -13.2 -17.2 L-13.5 -14.65 -13.45 -14.1 -13.5 -13.4 Q-13.4 -11.4 -12.5 -9.5 -10.75 -5.65 -6.85 -5.65 -0.45 -5.65 2.15 -8.25 L3.2 -9.4 3.55 -9.8 5.65 -12.55 5.8 -13.3 5.5 -13.05 Q1.95 -10.05 -2.5 -10.05 -9.4 -10.05 -11.8 -13.8 -12.8 -15.35 -12.95 -17.8 -11.05 -21.75 -7.65 -24.55 -5.6 -26.25 -3.3 -27.45 L-3.2 -27.4 M-1.6 -25.05 Q-2.8 -25.4 -3.6 -24.6 L-4.05 -23.85 Q-4.4 -23.05 -4.2 -22.3 L-4.85 -22.7 -6.4 -23.0 Q-7.4 -23.05 -8.25 -22.25 L-8.75 -21.35 Q-9.2 -20.15 -8.8 -18.8 -8.7 -18.35 -8.2 -18.1 L-6.85 -17.65 Q-4.0 -18.15 -3.75 -21.1 -3.0 -20.3 -1.85 -20.4 L-1.6 -20.45 Q0.1 -21.4 -0.15 -23.4 L-0.3 -24.05 -1.6 -25.05 M-9.8 6.35 L-10.45 5.2 -13.3 0.6 -13.75 -0.45 -13.7 1.05 -13.7 2.8 -13.5 4.2 -13.15 5.2 -12.45 6.6 -12.3 7.25 -12.05 8.1 Q-11.95 8.75 -11.15 9.55 -10.5 10.2 -8.7 11.3 -7.85 11.3 -6.2 13.0 L-5.85 13.35 -6.0 11.6 Q-6.1 10.8 -7.6 9.05 L-9.8 6.35 M-6.85 13.65 Q-7.2 13.0 -8.5 13.3 -10.25 13.7 -10.25 14.7 -10.25 16.35 -8.5 16.35 -7.3 16.35 -6.95 15.65 L-6.75 15.5 Q-6.0 15.05 -6.0 14.55 -6.0 13.85 -6.85 13.65" fill="#583a30" fill-rule="evenodd" stroke="none"/>
      <path d="M13.85 -19.2 L14.7 -19.0 14.6 -17.55 Q14.25 -16.1 13.5 -15.35 L12.75 -14.8 13.0 -16.6 13.5 -17.8 13.85 -19.2 M-12.95 -17.8 Q-12.8 -15.35 -11.8 -13.8 -9.4 -10.05 -2.5 -10.05 1.95 -10.05 5.5 -13.05 L5.8 -13.3 5.65 -12.55 3.55 -9.8 3.2 -9.4 2.15 -8.25 Q-0.45 -5.65 -6.85 -5.65 -10.75 -5.65 -12.5 -9.5 -13.4 -11.4 -13.5 -13.4 L-13.45 -14.1 -13.5 -14.65 -13.2 -17.2 -12.95 -17.8 M-9.8 6.35 L-7.6 9.05 Q-6.1 10.8 -6.0 11.6 L-5.85 13.35 -6.2 13.0 Q-7.85 11.3 -8.7 11.3 -10.5 10.2 -11.15 9.55 -11.95 8.75 -12.05 8.1 L-12.3 7.25 -12.45 6.6 -13.15 5.2 -13.5 4.2 -13.7 2.8 -13.7 1.05 -13.75 -0.45 -13.3 0.6 -10.45 5.2 -9.8 6.35" fill="#4e332a" fill-rule="evenodd" stroke="none"/>
      <path d="M-2.8 25.5 L-3.1 22.3 -1.0 21.3 -0.4 21.05 Q0.9 21.8 2.55 19.75 L2.25 23.7 1.35 30.25 0.8 29.8 -0.05 29.75 Q-3.0 28.8 -2.8 25.5" fill="#ffffff" fill-rule="evenodd" stroke="none"/>
    </g>
  </defs>
</svg>
