<?xml version="1.0" encoding="UTF-8" standalone="no"?>
<svg xmlns:ffdec="https://www.free-decompiler.com/flash" xmlns:xlink="http://www.w3.org/1999/xlink" ffdec:objectType="frame" height="31.0px" width="28.05px" xmlns="http://www.w3.org/2000/svg">
  <g transform="matrix(1.0, 0.0, 0.0, 1.0, 14.05, 17.75)">
    <use ffdec:characterId="1522" height="31.0" transform="matrix(1.0, 0.0, 0.0, 1.0, -14.05, -17.75)" width="28.05" xlink:href="#shape0"/>
  </g>
  <defs>
    <g id="shape0" transform="matrix(1.0, 0.0, 0.0, 1.0, 14.05, 17.75)">
      <path d="M-10.95 -6.05 L-11.45 -7.15 -10.3 -8.05 -9.2 -6.5 -6.35 -6.8 -6.4 -6.05 -7.2 -5.3 -9.1 -5.0 -10.3 -5.5 -10.45 -6.0 -10.5 -6.05 -10.95 -6.05 M-7.0 -9.6 L-6.85 -10.25 -7.5 -11.15 -8.45 -11.5 -8.85 -12.4 -8.45 -13.15 -5.55 -13.1 Q-4.4 -12.75 -3.6 -11.9 L-3.15 -11.3 -3.35 -10.8 -3.9 -10.45 -5.3 -10.25 -5.65 -9.5 -7.0 -9.6 M-3.9 -13.6 L-5.2 -17.75 -2.15 -15.95 0.8 -16.3 1.2 -15.3 0.75 -14.85 -0.15 -15.05 -1.7 -13.9 -0.95 -12.15 -1.7 -11.5 -2.3 -11.8 Q-3.4 -12.4 -3.9 -13.6" fill="#ffffff" fill-rule="evenodd" stroke="none"/>
      <path d="M0.75 -14.85 L0.35 -12.55 2.5 -12.4 Q3.5 -12.35 4.25 -11.7 L3.95 -10.95 -1.15 -9.75 -1.55 -8.9 0.2 -7.45 0.35 -5.95 3.25 -4.65 3.95 -5.25 2.35 -5.4 2.1 -5.95 2.8 -7.4 4.2 -7.95 4.35 -9.0 5.1 -9.25 13.4 -6.1 13.65 -5.4 13.1 -4.85 9.25 -5.0 Q7.35 -5.55 5.95 -7.0 L5.1 -6.5 7.9 -3.25 7.65 -2.0 6.1 -2.15 5.5 -2.2 5.65 -2.1 6.35 -1.05 6.45 -0.65 6.45 -0.35 6.4 -0.1 5.2 0.8 3.25 1.8 Q1.25 2.25 -0.6 1.85 L-2.0 1.5 -2.35 1.8 -2.6 2.6 -2.65 2.6 -2.65 2.65 -2.55 3.25 -2.5 4.55 Q-3.0 5.65 -3.75 6.15 L-7.0 6.2 Q-7.25 4.65 -6.3 3.35 L-5.75 2.8 -5.7 2.8 -5.65 2.8 -4.9 2.5 -4.8 2.45 -4.9 2.35 -5.2 1.6 -5.5 0.55 -5.4 -0.35 -4.9 -0.65 Q-2.5 -2.0 -0.1 -0.85 L0.25 -0.65 0.65 -0.45 0.6 -0.65 0.6 -1.3 Q0.6 -2.3 1.25 -3.15 L1.4 -3.35 Q-0.95 -4.35 -3.0 -6.2 L-3.85 -5.1 Q-5.5 -3.15 -8.0 -2.2 L-8.4 -0.05 -8.75 0.3 -9.25 0.3 -10.95 0.15 -10.95 -0.95 -10.15 -1.2 -9.9 -3.1 -9.05 -3.4 -8.55 -4.9 -5.8 -4.75 -4.6 -6.4 -4.95 -7.65 -5.7 -7.55 -6.35 -6.8 -9.2 -6.5 -10.3 -8.05 -10.2 -8.65 -7.0 -9.6 -5.65 -9.5 -5.3 -10.25 -3.9 -10.45 Q-3.9 -9.8 -3.25 -10.0 L-1.9 -10.35 -1.7 -11.5 -0.95 -12.15 -1.7 -13.9 -0.15 -15.05 0.75 -14.85 M14.0 -3.4 L13.8 -1.4 12.15 -3.4 14.0 -3.4 M10.1 7.7 L9.8 7.95 8.5 7.25 8.8 6.65 10.3 6.05 10.1 7.7 M-2.55 13.15 L-3.55 12.9 -3.75 12.75 -4.0 12.2 -4.3 10.8 -5.05 10.3 -3.75 9.4 -3.5 9.25 -3.45 9.3 -3.75 9.45 -3.75 10.0 -1.4 12.35 -2.55 13.15 M-11.8 6.4 L-12.5 4.6 -11.75 4.7 -11.4 5.75 -11.8 6.4 M-9.3 7.1 L-9.5 8.35 -10.0 8.55 -11.1 7.75 -10.0 7.1 -9.9 7.05 -9.3 7.1 M-8.35 7.2 Q-8.0 7.2 -7.75 7.6 L-7.55 8.55 -8.25 8.05 -8.35 7.2 M6.15 7.8 L2.75 9.4 2.0 9.65 2.7 8.25 3.25 7.5 4.25 6.75 6.15 7.8" fill="#ff0000" fill-rule="evenodd" stroke="none"/>
      <path d="M4.25 -11.7 L4.55 -11.2 4.4 -10.3 5.1 -9.25 4.35 -9.0 4.2 -7.95 2.8 -7.4 2.1 -5.95 2.35 -5.4 3.95 -5.25 3.25 -4.65 0.35 -5.95 0.2 -7.45 -1.55 -8.9 -1.15 -9.75 3.95 -10.95 4.25 -11.7 M13.65 -5.4 L14.0 -3.4 12.15 -3.4 13.8 -1.4 13.4 -0.3 13.6 0.9 Q14.05 5.0 10.75 7.3 L10.1 7.7 10.3 6.05 8.8 6.65 10.75 3.95 11.5 3.1 11.5 3.05 11.55 3.0 11.7 2.8 11.7 2.6 11.65 2.05 11.45 1.6 12.5 0.1 10.85 -0.2 10.9 -1.3 7.9 -3.25 5.1 -6.5 5.95 -7.0 Q7.35 -5.55 9.25 -5.0 L13.1 -4.85 13.65 -5.4 M9.8 7.95 L8.35 8.95 8.5 7.25 9.8 7.95 M6.95 9.15 L5.5 9.1 2.75 11.75 Q0.2 12.7 -2.55 13.15 L-1.4 12.35 -3.75 10.0 -3.75 9.45 -3.45 9.3 1.25 11.15 1.75 11.05 1.75 10.9 2.0 9.65 2.75 9.4 6.15 7.8 6.95 9.15 M-4.0 12.2 L-6.8 11.65 -5.05 10.3 -4.3 10.8 -4.0 12.2 M-8.2 10.95 L-11.15 7.8 -11.1 7.75 -10.0 8.55 -9.5 8.35 -9.3 7.1 -8.35 7.2 -8.25 8.05 -7.55 8.55 -8.2 10.95 M-13.0 -1.0 L-13.15 -1.2 -13.35 -1.5 -11.55 -3.25 -11.8 -3.65 -10.95 -6.05 -10.5 -6.05 -10.45 -6.0 -10.3 -5.5 -9.1 -5.0 -7.2 -5.3 -6.4 -6.05 -6.35 -6.8 -5.7 -7.55 -4.95 -7.65 -4.6 -6.4 -5.8 -4.75 -8.55 -4.9 -9.05 -3.4 -9.9 -3.1 -10.15 -1.2 -10.95 -0.95 -10.95 0.15 -11.35 -0.1 -13.0 -1.0 M-5.55 -13.1 L-3.9 -13.6 Q-3.4 -12.4 -2.3 -11.8 L-1.7 -11.5 -1.9 -10.35 -3.25 -10.0 Q-3.9 -9.8 -3.9 -10.45 L-3.35 -10.8 -3.15 -11.3 -3.6 -11.9 Q-4.4 -12.75 -5.55 -13.1 M-7.0 6.2 L-3.75 6.15 Q-3.0 5.65 -2.5 4.55 -2.5 5.75 -3.3 6.6 L-3.75 7.0 -4.35 7.3 -7.0 6.2 M-2.6 2.6 L-2.35 1.8 -2.0 1.5 -0.6 1.85 Q1.25 2.25 3.25 1.8 L5.2 0.8 6.4 -0.1 6.7 0.75 6.7 0.8 6.5 0.9 3.25 2.5 1.3 2.85 -2.6 2.6" fill="#990000" fill-rule="evenodd" stroke="none"/>
      <path d="M7.9 -3.25 L10.9 -1.3 10.85 -0.2 6.4 -0.1 6.45 -0.35 6.45 -0.65 6.35 -1.05 5.65 -2.1 5.5 -2.2 6.1 -2.15 7.65 -2.0 7.9 -3.25 M-8.4 -0.05 L-8.0 -2.2 Q-5.5 -3.15 -3.85 -5.1 L-3.0 -6.2 Q-0.95 -4.35 1.4 -3.35 L1.25 -3.15 Q0.6 -2.3 0.6 -1.3 L0.6 -0.65 0.65 -0.45 0.25 -0.65 -0.1 -0.85 Q-2.5 -2.0 -4.9 -0.65 L-5.4 -0.35 -7.65 0.0 -8.4 -0.05" fill="#ebbb98" fill-rule="evenodd" stroke="none"/>
      <path d="M-4.9 2.35 L-4.8 2.45 -4.9 2.5 -5.65 2.8 -5.7 2.8 -5.1 2.45 -4.9 2.35" fill="#ad5a95" fill-rule="evenodd" stroke="none"/>
      <path d="M-13.15 -0.65 L-13.0 -1.0 -11.35 -0.1 -13.25 -0.4 -13.15 -0.65" fill="#b18f5f" fill-rule="evenodd" stroke="none"/>
      <path d="M-14.05 -0.5 L-14.05 -0.65 -13.15 -0.65 -13.25 -0.4 -14.05 -0.5 M8.2 0.9 L8.2 0.85 8.25 0.9 8.2 0.9" fill="#bfa47b" fill-rule="evenodd" stroke="none"/>
      <path d="M-13.95 1.55 L-14.05 -0.5 -13.25 -0.4 -11.35 -0.1 -10.95 0.15 -9.25 0.3 -9.25 2.05 -13.4 1.6 -13.55 1.5 -13.55 1.6 -13.95 1.55 M-5.5 0.55 L-5.2 1.6 -4.9 2.35 -5.1 2.45 -7.8 2.2 -7.8 0.55 -5.5 0.55 M6.5 0.9 L8.2 0.9 8.25 0.9 9.0 0.9 9.05 0.95 9.35 2.4 8.95 2.45 8.9 2.35 8.7 2.45 7.7 2.5 1.3 2.85 3.25 2.5 6.5 0.9" fill="#000000" fill-rule="evenodd" stroke="none"/>
      <path d="M-12.5 4.6 L-13.9 2.55 -13.95 1.55 -13.55 1.6 -13.55 1.5 -13.4 1.6 -11.9 2.8 -11.75 4.7 -12.5 4.6 M8.95 2.45 L9.2 3.15 Q9.75 4.45 9.0 5.7 8.4 6.65 7.4 7.05 L6.85 7.45 5.95 5.45 7.1 4.0 5.7 4.2 5.25 4.95 4.5 4.9 3.9 3.55 3.25 5.05 1.45 5.2 2.5 3.55 7.5 3.0 7.7 2.5 8.7 2.45 8.9 2.35 8.95 2.45 M1.35 5.2 L0.05 5.3 -0.8 4.4 0.15 3.85 1.35 5.2" fill="#336699" fill-rule="evenodd" stroke="none"/>
      <path d="M8.35 8.95 L8.75 11.25 8.25 11.55 6.95 9.15 6.15 7.8 4.25 6.75 3.25 7.5 2.7 8.25 2.0 9.65 1.75 10.9 1.75 11.05 1.25 11.15 -3.45 9.3 -3.5 9.25 -3.75 9.4 -5.05 10.3 -6.8 11.65 -8.45 13.25 -8.2 10.95 -7.55 8.55 -7.75 7.6 Q-8.0 7.2 -8.35 7.2 L-9.3 7.1 -9.9 7.05 -10.0 7.1 -11.1 7.75 -11.15 7.8 -11.75 8.1 -12.5 7.65 -12.4 7.1 -11.8 6.4 -11.4 5.75 -11.75 4.7 -11.9 2.8 -13.4 1.6 -9.25 2.05 -9.25 0.3 -8.75 0.3 -8.4 -0.05 -7.65 0.0 -5.4 -0.35 -5.5 0.55 -7.8 0.55 -7.8 2.2 -5.1 2.45 -5.7 2.8 -5.75 2.8 -6.3 3.35 Q-7.25 4.65 -7.0 6.2 L-4.35 7.3 -3.75 7.0 -3.3 6.6 Q-2.5 5.75 -2.5 4.55 L-2.55 3.25 -2.65 2.65 -2.65 2.6 -2.6 2.6 1.3 2.85 7.7 2.5 7.5 3.0 2.5 3.55 1.45 5.2 3.25 5.05 3.9 3.55 4.5 4.9 5.25 4.95 5.7 4.2 7.1 4.0 5.95 5.45 6.85 7.45 7.4 7.05 Q8.4 6.65 9.0 5.7 9.75 4.45 9.2 3.15 L8.95 2.45 9.35 2.4 9.05 0.95 9.0 0.9 8.25 0.9 8.2 0.85 8.2 0.9 6.5 0.9 6.7 0.8 6.7 0.75 6.4 -0.1 10.85 -0.2 12.5 0.1 11.45 1.6 11.65 2.05 11.7 2.6 11.7 2.8 11.55 3.0 11.5 3.05 11.5 3.1 10.75 3.95 8.8 6.65 8.5 7.25 8.35 8.95 M1.35 5.2 L0.15 3.85 -0.8 4.4 0.05 5.3 1.35 5.2" fill="#2e5d8c" fill-rule="evenodd" stroke="none"/>
    </g>
  </defs>
</svg>
