<?xml version="1.0" encoding="UTF-8" standalone="no"?>
<svg xmlns:ffdec="https://www.free-decompiler.com/flash" xmlns:xlink="http://www.w3.org/1999/xlink" ffdec:objectType="frame" height="73.25px" width="43.1px" xmlns="http://www.w3.org/2000/svg">
  <g transform="matrix(1.0, 0.0, 0.0, 1.0, 22.3, 47.5)">
    <use ffdec:characterId="1581" height="14.45" transform="matrix(1.0, 0.0, 0.0, 1.0, -12.35, 0.75)" width="18.85" xlink:href="#shape0"/>
    <use ffdec:characterId="1580" height="31.75" transform="matrix(1.0, 0.0, 0.0, 1.0, -16.65, -18.05)" width="30.75" xlink:href="#sprite0"/>
    <use ffdec:characterId="1582" height="14.55" transform="matrix(1.0, 0.0, 0.0, 1.0, -11.95, 2.4)" width="15.5" xlink:href="#shape2"/>
  </g>
  <defs>
    <g id="shape0" transform="matrix(1.0, 0.0, 0.0, 1.0, 12.35, -0.75)">
      <path d="M-9.8 2.25 Q-7.75 0.75 -4.7 0.75 -1.45 0.75 2.55 3.8 6.5 6.8 6.5 9.1 6.5 10.75 5.65 12.05 L3.95 14.2 3.25 15.1 -2.3 14.7 -4.3 13.75 Q-5.1 5.6 -5.85 6.45 -7.0 7.75 -7.55 7.85 L-8.05 7.9 -9.8 2.25" fill="#e2b181" fill-rule="evenodd" stroke="none"/>
      <path d="M-9.8 2.25 L-8.05 7.9 -7.55 7.85 Q-7.0 7.75 -5.85 6.45 -5.1 5.6 -4.3 13.75 L-9.05 10.85 -12.0 8.55 -12.0 8.2 -12.15 7.5 -12.35 6.2 Q-12.35 4.6 -10.6 2.9 L-9.8 2.25" fill="#ffcc99" fill-rule="evenodd" stroke="none"/>
    </g>
    <g id="sprite0" transform="matrix(1.0, 0.0, 0.0, 1.0, 16.8, 18.45)">
      <use ffdec:characterId="1579" height="31.75" transform="matrix(1.0, 0.0, 0.0, 1.0, -16.8, -18.45)" width="30.75" xlink:href="#shape1"/>
    </g>
    <g id="shape1" transform="matrix(1.0, 0.0, 0.0, 1.0, 16.8, 18.45)">
      <path d="M6.3 -12.55 L6.2 -12.8 6.3 -12.7 6.3 -12.55 M3.45 -14.55 L1.1 -15.55 1.55 -15.2 Q2.75 -14.15 3.65 -12.2 3.0 -13.15 1.55 -13.9 L-1.85 -15.45 -2.6 -15.45 -0.7 -11.65 -0.6 -11.35 -0.6 -10.95 -0.7 -11.1 Q-2.0 -13.05 -3.0 -14.0 -4.5 -15.45 -6.45 -15.95 L-7.05 -15.95 Q-6.05 -16.8 -3.05 -16.8 L-2.05 -16.75 -2.25 -16.85 -4.35 -17.2 -4.35 -17.3 -0.65 -17.8 2.85 -17.4 6.15 -16.2 Q7.35 -15.75 8.3 -14.05 L9.3 -11.8 9.5 -11.3 9.1 -11.8 7.9 -12.9 Q6.5 -14.05 5.15 -14.7 L5.3 -14.55 5.8 -13.6 6.2 -12.8 3.45 -14.55 M9.65 -10.95 L9.55 -11.2 9.65 -11.05 9.65 -10.95 M3.65 -12.2 L3.9 -11.8 4.05 -11.45 4.05 -11.3 3.85 -11.8 3.65 -12.2 M10.15 -4.3 L8.95 -3.8 3.75 -2.7 3.1 -2.75 3.05 -2.95 3.3 -3.05 7.0 -4.25 9.35 -4.7 10.0 -5.1 Q10.25 -5.35 10.25 -4.75 L10.15 -4.3 M-12.95 -12.1 L-12.95 -11.95 -13.05 -9.5 -12.85 -6.8 -12.95 -5.6 -13.95 -4.85 Q-14.7 -4.15 -14.7 -2.35 -15.1 -3.05 -15.15 -4.35 L-15.2 -6.6 -14.6 -10.3 -14.25 -10.7 -12.95 -12.1 M-10.85 -10.25 L-11.8 -12.05 -11.7 -13.65 Q-9.95 -12.4 -8.3 -10.35 L-7.35 -9.05 -7.45 -8.9 -8.45 -8.4 -9.35 -7.7 -9.45 -7.65 -10.85 -10.25 M-8.05 -15.45 L-7.5 -15.4 Q-5.15 -15.25 -3.45 -13.55 -1.9 -11.95 -1.1 -9.2 L-1.1 -8.3 Q-2.7 -10.1 -4.45 -11.3 L-4.95 -11.3 -4.75 -10.65 -4.45 -10.05 -4.45 -9.2 Q-4.9 -10.15 -6.55 -11.65 -8.4 -13.4 -10.95 -14.3 L-9.65 -15.0 -8.05 -15.45" fill="#724f2c" fill-rule="evenodd" stroke="none"/>
      <path d="M3.45 -14.55 L6.2 -12.8 5.8 -13.6 5.3 -14.55 5.15 -14.7 Q6.5 -14.05 7.9 -12.9 L9.1 -11.8 9.5 -11.3 9.3 -11.8 8.3 -14.05 Q7.35 -15.75 6.15 -16.2 L2.85 -17.4 -0.65 -17.8 -4.35 -17.3 -4.35 -17.2 -2.25 -16.85 -2.05 -16.75 -3.05 -16.8 Q-6.05 -16.8 -7.05 -15.95 L-6.45 -15.95 Q-4.5 -15.45 -3.0 -14.0 -2.0 -13.05 -0.7 -11.1 L-0.6 -10.95 -0.6 -11.35 -0.7 -11.65 -2.6 -15.45 -1.85 -15.45 1.55 -13.9 Q3.0 -13.15 3.65 -12.2 2.75 -14.15 1.55 -15.2 L1.1 -15.55 3.45 -14.55 M6.3 -12.55 L6.3 -12.7 6.2 -12.8 6.3 -12.55 M11.7 -6.65 L9.6 -6.2 8.0 -5.9 7.3 -8.15 6.25 -9.65 6.95 -7.75 7.25 -5.75 4.5 -5.05 3.9 -7.7 2.3 -10.6 1.9 -11.2 2.3 -10.2 3.3 -7.5 3.85 -4.85 2.3 -4.25 1.25 -3.65 Q0.75 -3.3 -0.05 -3.35 L-0.6 -2.1 -0.7 -1.95 -2.1 -0.25 -2.1 -0.2 -2.35 -1.2 -3.9 -3.25 -7.95 -7.8 Q-8.85 -3.05 -8.4 -1.95 L-7.55 -0.4 -6.7 0.6 -5.9 2.0 -5.45 2.9 -5.4 3.5 -5.45 3.95 -5.55 5.05 -5.65 5.7 -5.7 6.25 -5.8 7.1 Q-7.45 7.2 -8.2 7.6 L-8.35 7.7 -9.75 8.45 -11.0 8.8 -11.7 8.85 -11.95 8.7 -12.05 8.65 Q-13.8 7.4 -14.65 6.25 -15.55 5.0 -16.0 2.6 L-16.75 -3.25 Q-17.1 -6.7 -14.8 -11.65 -12.55 -16.65 -5.8 -17.85 0.95 -19.05 4.7 -17.9 8.45 -16.8 10.55 -14.3 L12.1 -11.8 12.3 -11.3 Q13.0 -9.4 13.4 -6.8 L11.7 -6.65 M9.65 -10.95 L9.65 -11.05 9.55 -11.2 9.65 -10.95 M3.65 -12.2 L3.85 -11.8 4.05 -11.3 4.05 -11.45 3.9 -11.8 3.65 -12.2 M-8.05 -15.45 L-9.65 -15.0 -10.95 -14.3 Q-8.4 -13.4 -6.55 -11.65 -4.9 -10.15 -4.45 -9.2 L-4.45 -10.05 -4.75 -10.65 -4.95 -11.3 -4.45 -11.3 Q-2.7 -10.1 -1.1 -8.3 L-1.1 -9.2 Q-1.9 -11.95 -3.45 -13.55 -5.15 -15.25 -7.5 -15.4 L-8.05 -15.45 M-10.85 -10.25 L-9.45 -7.65 -9.35 -7.7 -8.45 -8.4 -7.45 -8.9 -7.35 -9.05 -8.3 -10.35 Q-9.95 -12.4 -11.7 -13.65 L-11.8 -12.05 -10.85 -10.25 M-12.95 -12.1 L-14.25 -10.7 -14.6 -10.3 -15.2 -6.6 -15.15 -4.35 Q-15.1 -3.05 -14.7 -2.35 -14.7 -4.15 -13.95 -4.85 L-12.95 -5.6 -12.85 -6.8 -13.05 -9.5 -12.95 -11.95 -12.95 -12.1" fill="#5b3f23" fill-rule="evenodd" stroke="none"/>
      <path d="M-5.45 2.9 L-5.9 2.0 -6.7 0.6 -7.55 -0.4 -8.4 -1.95 Q-8.85 -3.05 -7.95 -7.8 L-3.9 -3.25 -2.35 -1.2 -2.1 -0.2 -2.1 -0.25 -0.7 -1.95 -0.6 -2.1 -0.05 -3.35 Q0.75 -3.3 1.25 -3.65 L2.3 -4.25 3.85 -4.85 3.3 -7.5 2.3 -10.2 1.9 -11.2 2.3 -10.6 3.9 -7.7 4.5 -5.05 7.25 -5.75 6.95 -7.75 6.25 -9.65 7.3 -8.15 8.0 -5.9 9.6 -6.2 11.7 -6.65 11.95 -4.7 11.9 -4.05 11.5 -3.3 11.55 -2.65 12.05 -0.9 12.25 -0.45 13.55 0.9 13.95 1.7 13.95 2.1 Q13.95 3.1 13.5 3.45 L13.1 3.15 Q12.65 2.85 12.3 2.85 12.0 2.85 11.5 3.2 L10.55 3.5 9.85 3.45 9.5 2.6 Q9.4 3.5 10.25 4.65 L10.75 5.25 10.9 5.6 10.95 5.6 11.15 6.15 11.05 6.25 10.4 6.2 7.75 7.45 10.45 7.0 Q10.9 7.4 10.8 7.85 L10.75 8.1 9.05 8.35 8.55 8.5 Q8.25 8.75 8.25 9.25 L8.2 9.3 Q8.2 9.75 8.55 9.8 L9.3 9.9 10.05 9.75 10.25 9.7 10.15 10.05 10.1 11.3 Q10.1 11.95 9.15 12.95 8.15 13.85 3.6 12.55 L2.15 12.2 0.35 11.45 Q-0.9 10.85 -1.7 8.65 L-1.7 8.6 -2.85 5.7 Q-2.05 5.1 -1.4 3.65 -2.35 5.0 -3.45 4.85 -4.1 4.75 -4.6 4.15 L-5.35 3.0 -5.45 2.9 M3.1 -2.75 L2.5 -2.45 Q2.75 -2.2 4.85 -0.9 5.95 -0.3 6.3 0.3 L6.6 1.1 6.6 1.2 9.1 -0.95 9.35 -1.3 10.25 -2.3 10.6 -2.4 10.5 -3.15 10.6 -3.7 10.15 -4.3 10.25 -4.75 Q10.25 -5.35 10.0 -5.1 L9.35 -4.7 7.0 -4.25 3.3 -3.05 3.05 -2.95 3.1 -2.75 M9.4 1.8 L8.95 2.85 8.4 3.95 7.95 4.9 7.9 5.0 7.75 5.3 6.75 6.65 5.65 8.25 5.6 8.3 5.6 8.4 5.7 8.25 7.5 6.5 8.5 5.2 8.65 4.9 8.65 4.85 9.2 2.35 9.4 1.8 M-6.45 -2.0 L-5.65 -2.0 -5.5 -2.05 -5.05 -1.9 -4.45 -1.3 -4.45 -0.45 -4.65 0.0 -5.1 0.3 -5.25 0.8 -5.0 1.8 Q-4.65 2.6 -4.05 2.6 -3.35 2.6 -3.35 2.2 -3.35 1.85 -3.95 1.5 L-4.65 0.8 -3.95 0.15 -3.8 0.1 -3.75 -0.3 Q-3.7 -1.75 -5.05 -2.7 -6.4 -3.7 -6.75 -2.85 -7.1 -2.05 -6.45 -2.0" fill="#ffcc99" fill-rule="evenodd" stroke="none"/>
      <path d="M10.45 7.0 L7.75 7.45 10.4 6.2 11.05 6.25 10.45 7.0 M10.75 5.25 L10.25 4.65 Q9.4 3.5 9.5 2.6 L9.85 3.45 10.55 3.5 11.5 3.2 Q12.0 2.85 12.3 2.85 12.65 2.85 13.1 3.15 L13.5 3.45 12.75 3.7 Q11.65 3.8 11.25 4.05 10.75 4.3 10.65 4.65 L10.75 5.25 M3.1 -2.75 L3.75 -2.7 8.95 -3.8 10.15 -4.3 10.6 -3.7 10.5 -3.15 10.6 -2.4 10.25 -2.3 9.35 -1.3 9.1 -0.95 6.6 1.2 6.6 1.1 6.3 0.3 Q5.95 -0.3 4.85 -0.9 2.75 -2.2 2.5 -2.45 L3.1 -2.75 M6.35 -2.25 L7.0 -1.55 7.4 -1.3 7.95 -1.1 8.6 -2.45 8.45 -2.7 6.35 -2.25 M-6.45 -2.0 Q-7.1 -2.05 -6.75 -2.85 -6.4 -3.7 -5.05 -2.7 -3.7 -1.75 -3.75 -0.3 L-3.8 0.1 -3.95 0.15 -4.65 0.8 -3.95 1.5 Q-3.35 1.85 -3.35 2.2 -3.35 2.6 -4.05 2.6 -4.65 2.6 -5.0 1.8 L-5.25 0.8 -5.1 0.3 -4.65 0.0 -4.45 -0.45 -4.45 -1.3 -5.05 -1.9 -5.5 -2.05 -5.65 -2.0 -6.45 -2.0" fill="#c79b68" fill-rule="evenodd" stroke="none"/>
      <path d="M6.35 -2.25 L8.45 -2.7 8.6 -2.45 7.95 -1.1 7.4 -1.3 7.0 -1.55 6.35 -2.25" fill="#000000" fill-rule="evenodd" stroke="none"/>
      <path d="M10.25 9.7 L10.05 9.75 9.3 9.9 8.55 9.8 Q8.2 9.75 8.2 9.3 L8.25 9.25 Q8.25 8.75 8.55 8.5 L9.05 8.35 10.75 8.1 10.35 9.0 10.25 9.7 M9.4 1.8 L9.2 2.35 8.65 4.85 8.65 4.9 8.5 5.2 7.5 6.5 5.7 8.25 5.6 8.4 5.6 8.3 5.65 8.25 6.75 6.65 7.75 5.3 7.9 5.0 7.95 4.9 8.4 3.95 8.95 2.85 9.4 1.8" fill="#ebbb98" fill-rule="evenodd" stroke="none"/>
      <path d="M-5.45 2.9 L-5.35 3.0 -4.6 4.15 Q-4.1 4.75 -3.45 4.85 -2.35 5.0 -1.4 3.65 -2.05 5.1 -2.85 5.7 L-1.7 8.6 -5.8 7.1 -5.7 6.25 -5.65 5.7 -5.55 5.05 -5.45 3.95 -5.4 3.5 -5.45 2.9" fill="#e2b181" fill-rule="evenodd" stroke="none"/>
    </g>
    <g id="shape2" transform="matrix(1.0, 0.0, 0.0, 1.0, 11.95, -2.4)">
      <path d="M0.2 6.45 L0.05 6.5 Q-1.55 7.35 -1.55 9.8 -1.55 10.8 -1.15 11.1 L-0.25 9.95 Q0.05 10.75 1.1 12.35 L0.25 12.5 Q-0.5 12.5 -1.15 11.9 -1.75 11.4 -1.75 10.95 -1.75 7.25 0.0 6.5 L0.2 6.45 M-0.2 9.9 L0.55 9.2 Q1.6 8.3 1.6 7.65 L1.5 6.7 1.75 8.05 1.55 9.05 Q1.15 9.65 -0.2 9.9 M-2.7 14.0 L3.55 14.65 3.2 15.45 -0.25 16.75 -0.55 16.25 Q-0.95 15.7 -1.45 15.5 L-4.7 14.9 -4.4 14.3 -5.05 13.55 -5.65 14.2 -6.95 14.95 -8.2 13.55 -7.6 14.05 -6.6 12.9 -7.75 12.15 -8.2 12.75 -8.95 12.3 -9.65 12.35 -9.7 11.4 -11.95 9.05 -8.8 8.3 -9.3 8.15 -9.55 7.75 -9.4 6.3 -8.25 5.9 -8.2 5.7 -9.6 4.65 Q-10.25 4.2 -10.1 3.5 L-9.45 2.75 -9.5 4.25 -8.05 4.3 -7.7 4.05 -7.8 4.85 -6.8 6.1 -6.8 6.7 Q-6.8 7.3 -7.2 7.8 L-7.65 8.25 -8.7 8.35 -8.2 9.05 -8.55 11.15 -6.25 11.85 -5.7 11.25 -6.05 11.0 -6.5 10.3 -6.65 8.45 Q-6.65 7.1 -5.6 6.25 -6.3 7.25 -5.75 8.35 L-4.75 10.0 -3.5 7.85 -3.35 8.7 Q-3.15 9.9 -3.75 10.8 L-3.9 11.1 -3.95 13.6 -2.7 14.0" fill="#990000" fill-rule="evenodd" stroke="none"/>
      <path d="M-0.25 9.95 L-1.15 11.1 Q-1.55 10.8 -1.55 9.8 -1.55 7.35 0.05 6.5 L0.2 6.45 Q1.1 6.15 1.5 6.7 L1.6 7.65 Q1.6 8.3 0.55 9.2 L-0.2 9.9 -0.25 9.95 M-3.5 7.85 L-4.75 10.0 -5.75 8.35 Q-6.3 7.25 -5.6 6.25 L-4.75 6.1 Q-3.5 6.45 -3.5 7.75 L-3.5 7.85 M-7.7 4.05 L-8.05 4.3 -9.5 4.25 -9.45 2.75 -9.15 2.4 Q-8.85 2.35 -8.25 2.65 -7.8 2.7 -7.65 3.0 L-7.3 3.2 -7.5 3.8 -7.7 4.05 M-8.2 12.75 L-7.75 12.15 -6.6 12.9 -7.6 14.05 -8.2 13.55 -8.2 12.75 M-5.65 14.2 L-5.05 13.55 -4.4 14.3 -4.7 14.9 -1.45 15.5 Q-0.95 15.7 -0.55 16.25 L-0.25 16.75 -0.65 16.95 Q-2.85 15.55 -5.45 15.2 L-5.65 14.2" fill="#ff0000" fill-rule="evenodd" stroke="none"/>
      <path d="M-2.7 14.0 L-3.95 13.6 -3.9 11.1 -3.75 10.8 -2.35 11.8 -2.2 12.65 -2.7 14.0" fill="#650101" fill-rule="evenodd" stroke="none"/>
    </g>
  </defs>
</svg>
