<?xml version="1.0" encoding="UTF-8" standalone="no"?>
<svg xmlns:ffdec="https://www.free-decompiler.com/flash" xmlns:xlink="http://www.w3.org/1999/xlink" ffdec:objectType="frame" height="56.5px" width="42.8px" xmlns="http://www.w3.org/2000/svg">
  <g transform="matrix(1.0, 0.0, 0.0, 1.0, 25.2, 34.75)">
    <use ffdec:characterId="1233" height="36.25" transform="matrix(1.0, 0.0, 0.0, 1.0, -9.25, -18.65)" width="18.5" xlink:href="#shape0"/>
    <use ffdec:characterId="1081" height="100.0" id="shape" transform="matrix(0.18, 0.0, 0.0, 0.36, -8.9996, -18.0)" width="100.0" xlink:href="#sprite0"/>
    <use ffdec:characterId="1138" height="0.0" id="spineRef" transform="matrix(1.0, 0.0, 0.0, 1.0, 2.3, -25.2)" width="0.0" xlink:href="#sprite1"/>
  </g>
  <defs>
    <g id="shape0" transform="matrix(1.0, 0.0, 0.0, 1.0, 9.25, 18.65)">
      <path d="M8.9 -1.2 L8.55 6.85 9.25 11.55 9.15 16.05 8.8 17.6 6.55 17.35 5.55 17.4 5.75 17.0 Q6.25 16.35 6.25 15.5 L5.75 11.5 5.75 9.55 5.85 4.85 5.85 3.25 5.75 3.25 4.85 6.35 4.7 7.05 Q4.0 4.15 4.0 3.25 4.0 1.45 4.5 -1.0 L5.0 -5.0 Q5.0 -10.0 4.0 -12.75 2.6 -16.5 -0.85 -16.5 -5.1 -16.5 -6.5 -9.75 -7.25 -6.15 -7.25 1.85 L-6.85 7.75 Q-6.5 11.75 -6.5 13.75 -6.5 16.0 -6.75 16.75 L-8.25 16.65 -9.1 16.3 -9.25 15.65 -9.25 13.85 Q-9.25 7.95 -8.85 1.4 -8.85 -1.9 -8.5 -4.45 L-8.45 -5.75 -8.4 -6.35 -7.95 -8.35 -7.85 -10.95 -7.75 -12.3 -6.75 -14.5 Q-4.9 -17.5 -0.65 -17.3 3.55 -17.1 5.4 -12.25 7.25 -7.45 8.9 -1.2" fill="#2d6ed0" fill-rule="evenodd" stroke="none"/>
      <path d="M5.55 17.4 L0.85 17.25 -6.75 16.75 Q-6.5 16.0 -6.5 13.75 -6.5 11.75 -6.85 7.75 L-7.25 1.85 Q-7.25 -6.15 -6.5 -9.75 -5.1 -16.5 -0.85 -16.5 2.6 -16.5 4.0 -12.75 5.0 -10.0 5.0 -5.0 L4.5 -1.0 Q4.0 1.45 4.0 3.25 4.0 4.15 4.7 7.05 L4.85 6.35 5.75 3.25 5.85 3.25 5.85 4.85 5.75 9.55 5.75 11.5 6.25 15.5 Q6.25 16.35 5.75 17.0 L5.55 17.4" fill="#1a57b4" fill-rule="evenodd" stroke="none"/>
      <path d="M-7.75 -12.3 Q-7.4 -15.75 -5.2 -17.45 -4.2 -18.25 -3.05 -18.5 L-1.95 -18.65 0.55 -18.25 Q4.05 -17.1 6.35 -13.3 8.95 -8.95 8.95 -2.55 L8.9 -1.2 Q7.25 -7.45 5.4 -12.25 3.55 -17.1 -0.65 -17.3 -4.9 -17.5 -6.75 -14.5 L-7.75 -12.3" fill="#3f81e5" fill-rule="evenodd" stroke="none"/>
    </g>
    <g id="sprite0" transform="matrix(1.0, 0.0, 0.0, 1.0, 50.0, 50.0)">
      <use ffdec:characterId="1080" height="100.0" transform="matrix(1.0, 0.0, 0.0, 1.0, -50.0, -50.0)" width="100.0" xlink:href="#shape1"/>
    </g>
    <g id="shape1" transform="matrix(1.0, 0.0, 0.0, 1.0, 50.0, 50.0)">
      <path d="M50.0 50.0 L-50.0 50.0 -50.0 -50.0 50.0 -50.0 50.0 50.0 Z" fill="none" stroke="#9900ff" stroke-linecap="round" stroke-linejoin="round" stroke-width="0.05"/>
    </g>
  </defs>
</svg>
