<?xml version="1.0" encoding="UTF-8" standalone="no"?>
<svg xmlns:ffdec="https://www.free-decompiler.com/flash" xmlns:xlink="http://www.w3.org/1999/xlink" ffdec:objectType="frame" height="56.5px" width="42.8px" xmlns="http://www.w3.org/2000/svg">
  <g transform="matrix(1.0, 0.0, 0.0, 1.0, 25.2, 34.75)">
    <use ffdec:characterId="1235" height="15.4" id="neck" transform="matrix(1.0, 0.0, 0.0, 1.0, -4.45, -25.05)" width="10.6" xlink:href="#sprite0"/>
    <use ffdec:characterId="1233" height="36.25" transform="matrix(1.0, 0.0, 0.0, 1.0, -9.25, -18.65)" width="18.5" xlink:href="#shape1"/>
    <use ffdec:characterId="1237" height="17.95" id="wound" transform="matrix(1.0, 0.0, 0.0, 1.0, -7.9, -17.15)" width="14.95" xlink:href="#sprite1"/>
    <use ffdec:characterId="1138" height="0.0" id="spineRef" transform="matrix(1.0, 0.0, 0.0, 1.0, 2.3, -25.2)" width="0.0" xlink:href="#sprite2"/>
  </g>
  <defs>
    <g id="sprite0" transform="matrix(1.0, 0.0, 0.0, 1.0, 3.6, 7.4)">
      <use ffdec:characterId="1234" height="15.4" transform="matrix(1.0, 0.0, 0.0, 1.0, -3.6, -7.4)" width="10.6" xlink:href="#shape0"/>
    </g>
    <g id="shape0" transform="matrix(1.0, 0.0, 0.0, 1.0, 3.6, 7.4)">
      <path d="M2.95 -0.95 L3.0 -1.05 3.2 -1.4 3.4 -1.3 3.15 -0.75 2.95 -0.95 M4.0 -0.05 L4.8 -0.55 5.25 -0.4 5.4 -0.4 5.2 0.4 5.1 0.65 4.2 0.1 4.0 -0.05" fill="#e2b181" fill-rule="evenodd" stroke="none"/>
      <path d="M-3.0 -5.1 L-2.95 -4.6 -3.0 -4.4 -3.3 -4.95 -3.0 -5.1 M-2.45 -1.65 L-2.25 -1.5 -1.4 -2.45 Q-0.75 -3.35 -0.75 -3.65 L-0.75 -3.9 0.1 -3.3 0.0 -2.9 Q-0.05 -2.2 0.15 -1.55 0.45 -0.3 1.6 -0.3 2.45 -0.3 2.95 -0.95 L3.15 -0.75 3.35 0.6 3.5 0.6 4.0 -0.05 4.2 0.1 5.1 0.65 5.0 6.6 5.0 8.0 4.55 6.55 -3.6 4.9 Q-2.5 2.15 -2.4 -0.7 L-2.45 -1.65" fill="#ffcc99" fill-rule="evenodd" stroke="none"/>
      <path d="M-0.15 -5.5 L-0.15 -5.4 -0.05 -5.05 0.0 -5.0 0.85 -4.8 0.9 -4.8 2.8 -3.1 Q3.3 -2.65 3.75 -2.35 L3.1 -2.7 2.45 -3.1 Q2.2 -3.55 1.3 -3.9 0.15 -4.35 0.1 -3.3 L-0.75 -3.9 Q-0.85 -4.75 -1.7 -5.0 -1.2 -5.4 -0.15 -5.5 M1.8 -5.1 L1.85 -5.3 2.7 -5.1 1.8 -5.1 M0.1 -3.3 L0.1 -3.25 Q0.65 -1.25 1.75 -1.25 L2.35 -1.4 2.5 -2.55 3.85 -1.9 4.45 -1.9 Q3.7 -1.65 3.4 -1.3 L3.2 -1.4 3.0 -1.05 2.95 -0.95 Q2.45 -0.3 1.6 -0.3 0.45 -0.3 0.15 -1.55 -0.05 -2.2 0.0 -2.9 L0.1 -3.3 M4.8 -0.55 L5.6 -0.85 Q6.25 -1.05 6.6 -1.3 L6.5 -1.2 Q5.95 -0.5 5.4 -0.4 L5.25 -0.4 4.8 -0.55 M6.9 -1.85 L6.8 -2.25 6.6 -2.5 6.25 -2.4 6.25 -2.85 6.1 -3.55 Q7.0 -2.85 7.0 -2.35 L6.9 -1.85" fill="#990000" fill-rule="evenodd" stroke="none"/>
      <path d="M0.45 -6.75 L0.25 -6.5 -0.15 -5.5 Q-1.2 -5.4 -1.7 -5.0 -0.85 -4.75 -0.75 -3.9 L-0.75 -3.65 Q-0.75 -3.35 -1.4 -2.45 L-2.25 -1.5 -2.45 -1.65 Q-2.95 -2.15 -3.15 -3.35 L-3.0 -4.4 -2.95 -4.6 -3.0 -5.1 -3.0 -5.5 -2.0 -6.75 Q-1.05 -7.15 0.45 -6.75 M1.85 -5.3 L1.85 -5.5 1.55 -6.4 2.3 -6.1 4.85 -4.65 4.85 -4.6 4.8 -4.65 2.7 -5.1 1.85 -5.3 M3.4 -1.3 Q3.7 -1.65 4.45 -1.9 L3.85 -1.9 2.5 -2.55 2.35 -1.4 1.75 -1.25 Q0.65 -1.25 0.1 -3.25 L0.1 -3.3 Q0.15 -4.35 1.3 -3.9 2.2 -3.55 2.45 -3.1 L3.1 -2.7 3.75 -2.35 5.4 -2.2 6.25 -2.4 6.6 -2.5 6.8 -2.25 6.9 -1.85 6.9 -1.75 6.6 -1.3 Q6.25 -1.05 5.6 -0.85 L4.8 -0.55 4.0 -0.05 3.5 0.6 3.35 0.6 3.15 -0.75 3.4 -1.3" fill="#ff0000" fill-rule="evenodd" stroke="none"/>
      <path d="M0.9 -4.8 L1.75 -5.0 1.8 -5.1 2.7 -5.1 4.8 -4.65 4.85 -4.6 Q5.8 -4.2 6.1 -3.55 L6.25 -2.85 6.25 -2.4 5.4 -2.2 3.75 -2.35 Q3.3 -2.65 2.8 -3.1 L0.9 -4.8" fill="#650101" fill-rule="evenodd" stroke="none"/>
      <path d="M-0.15 -5.5 L0.25 -6.5 0.45 -6.75 1.0 -7.4 1.5 -6.5 1.55 -6.4 1.85 -5.5 1.85 -5.3 1.8 -5.1 1.75 -5.0 0.9 -4.8 0.85 -4.8 0.0 -5.0 -0.05 -5.05 -0.15 -5.4 -0.15 -5.5" fill="#ffffff" fill-rule="evenodd" stroke="none"/>
    </g>
    <g id="shape1" transform="matrix(1.0, 0.0, 0.0, 1.0, 9.25, 18.65)">
      <path d="M8.9 -1.2 L8.55 6.85 9.25 11.55 9.15 16.05 8.8 17.6 6.55 17.35 5.55 17.4 5.75 17.0 Q6.25 16.35 6.25 15.5 L5.75 11.5 5.75 9.55 5.85 4.85 5.85 3.25 5.75 3.25 4.85 6.35 4.7 7.05 Q4.0 4.15 4.0 3.25 4.0 1.45 4.5 -1.0 L5.0 -5.0 Q5.0 -10.0 4.0 -12.75 2.6 -16.5 -0.85 -16.5 -5.1 -16.5 -6.5 -9.75 -7.25 -6.15 -7.25 1.85 L-6.85 7.75 Q-6.5 11.75 -6.5 13.75 -6.5 16.0 -6.75 16.75 L-8.25 16.65 -9.1 16.3 -9.25 15.65 -9.25 13.85 Q-9.25 7.95 -8.85 1.4 -8.85 -1.9 -8.5 -4.45 L-8.45 -5.75 -8.4 -6.35 -7.95 -8.35 -7.85 -10.95 -7.75 -12.3 -6.75 -14.5 Q-4.9 -17.5 -0.65 -17.3 3.55 -17.1 5.4 -12.25 7.25 -7.45 8.9 -1.2" fill="#2d6ed0" fill-rule="evenodd" stroke="none"/>
      <path d="M5.55 17.4 L0.85 17.25 -6.75 16.75 Q-6.5 16.0 -6.5 13.75 -6.5 11.75 -6.85 7.75 L-7.25 1.85 Q-7.25 -6.15 -6.5 -9.75 -5.1 -16.5 -0.85 -16.5 2.6 -16.5 4.0 -12.75 5.0 -10.0 5.0 -5.0 L4.5 -1.0 Q4.0 1.45 4.0 3.25 4.0 4.15 4.7 7.05 L4.85 6.35 5.75 3.25 5.85 3.25 5.85 4.85 5.75 9.55 5.75 11.5 6.25 15.5 Q6.25 16.35 5.75 17.0 L5.55 17.4" fill="#1a57b4" fill-rule="evenodd" stroke="none"/>
      <path d="M-7.75 -12.3 Q-7.4 -15.75 -5.2 -17.45 -4.2 -18.25 -3.05 -18.5 L-1.95 -18.65 0.55 -18.25 Q4.05 -17.1 6.35 -13.3 8.95 -8.95 8.95 -2.55 L8.9 -1.2 Q7.25 -7.45 5.4 -12.25 3.55 -17.1 -0.65 -17.3 -4.9 -17.5 -6.75 -14.5 L-7.75 -12.3" fill="#3f81e5" fill-rule="evenodd" stroke="none"/>
    </g>
    <g id="sprite1" transform="matrix(1.0, 0.0, 0.0, 1.0, 9.05, 9.65)">
      <use ffdec:characterId="1236" height="17.95" transform="matrix(1.0, 0.0, 0.0, 1.0, -9.05, -9.65)" width="14.95" xlink:href="#shape2"/>
    </g>
    <g id="shape2" transform="matrix(1.0, 0.0, 0.0, 1.0, 9.05, 9.65)">
      <path d="M-5.45 -7.8 L-5.1 -7.25 -4.8 -7.7 -4.6 -7.9 Q-3.65 -8.65 -1.9 -8.95 L-0.9 -8.65 0.05 -8.35 1.3 -8.1 1.95 -8.35 2.45 -8.25 3.2 -7.55 3.35 -6.1 3.6 -5.65 3.75 -5.4 3.5 -5.05 3.3 -4.6 3.9 -2.05 3.6 -1.75 3.7 -1.05 Q3.8 2.4 2.45 3.5 1.05 4.6 0.4 4.6 L-0.8 4.55 -0.9 5.95 Q-1.2 6.4 -1.7 6.4 L-1.9 6.35 -1.95 5.3 -1.55 5.15 -1.3 5.0 -1.2 4.8 -1.05 4.3 -0.5 4.1 0.75 3.75 0.25 3.2 Q-0.65 2.2 -1.9 2.15 L-2.4 2.75 -2.6 2.65 -3.15 2.4 Q-3.8 3.0 -4.35 3.0 -5.0 3.0 -5.85 1.5 L-5.6 0.95 -5.7 0.3 Q-5.9 -0.65 -6.8 -1.1 L-6.55 -1.75 -6.6 -1.9 -6.8 -3.55 -6.35 -5.05 -6.4 -5.05 -7.0 -5.25 -7.65 -6.55 -7.65 -7.0 -7.25 -6.45 -6.55 -6.25 -6.0 -6.45 Q-5.3 -6.85 -5.45 -7.8 M0.8 -4.05 L0.6 -3.9 Q-0.35 -3.1 -0.1 -2.0 L0.4 -1.6 Q0.8 -1.3 1.4 -1.4 2.15 -3.0 0.8 -4.05 M2.4 -5.15 L1.85 -6.05 1.7 -6.8 Q0.1 -8.5 -1.3 -7.7 0.2 -6.05 2.25 -4.7 L2.4 -5.15 M5.9 1.45 L5.85 2.75 5.4 2.9 4.5 2.95 4.0 1.3 Q4.15 1.75 4.65 1.95 L4.95 2.0 Q5.6 2.1 5.9 1.45 M3.55 5.6 Q2.55 7.85 0.2 7.6 L-0.05 7.5 -0.1 6.8 1.35 6.3 3.45 5.2 3.55 5.6 M-4.3 -6.5 L-3.85 -6.4 Q-2.95 -6.4 -2.95 -7.05 L-3.0 -7.35 Q-4.35 -7.4 -4.35 -6.85 L-4.3 -6.5 M-1.05 -6.15 L-1.05 -6.65 Q-1.05 -7.85 -2.15 -7.25 -3.25 -6.55 -3.25 -5.45 -3.45 -4.65 -2.9 -4.45 L-2.85 -4.2 Q-1.25 -2.95 0.05 -4.4 -0.25 -5.6 -1.05 -6.15 M-5.75 -5.25 L-6.2 -3.1 -6.2 -2.05 -5.0 -0.5 -4.9 -0.35 -5.1 0.7 -4.7 1.5 -4.25 1.55 Q-3.55 1.6 -3.0 1.1 L-2.6 0.7 -4.25 -0.15 -4.35 -1.6 -4.65 -1.85 -4.65 -2.4 -5.3 -3.2 -4.1 -4.85 -4.3 -5.6 -4.8 -6.0 -5.45 -5.8 -5.75 -5.25 M-1.0 -0.1 L-0.75 -0.2 -0.4 -0.45 -0.65 -1.15 Q-0.9 -3.4 -3.15 -3.65 -4.15 -2.7 -3.8 -1.15 -2.25 -0.8 -1.0 -0.1 M-0.7 0.95 L-1.05 1.55 Q-0.1 2.65 1.35 2.9 3.1 0.6 3.05 -2.35 L0.75 0.3 1.25 1.0 0.9 1.45 -0.7 0.95 M-3.15 5.5 L-3.75 4.35 -3.75 4.2 -3.55 3.8 -2.95 4.9 Q-2.9 5.15 -3.15 5.5 M-7.3 6.1 Q-8.0 5.4 -8.0 4.5 L-8.0 3.95 Q-7.35 5.5 -5.65 4.9 L-5.4 4.55 Q-5.3 5.8 -6.55 6.05 L-7.3 6.1 M-3.75 6.05 L-3.55 7.35 -2.9 7.45 -1.95 6.5 Q-1.85 7.5 -2.3 8.1 L-3.35 8.3 -4.05 7.9 -4.1 7.35 Q-4.2 6.6 -3.75 6.05" fill="#990000" fill-rule="evenodd" stroke="none"/>
      <path d="M3.75 -5.4 L4.45 -5.05 4.55 -4.8 Q5.4 -3.1 4.25 -1.65 L3.7 -1.05 3.6 -1.75 3.9 -2.05 3.3 -4.6 3.5 -5.05 3.75 -5.4 M-6.7 -7.95 L-5.5 -7.85 -5.45 -7.8 Q-5.3 -6.85 -6.0 -6.45 L-6.55 -6.25 -7.25 -6.45 -7.65 -7.0 -7.55 -7.5 -6.7 -7.95 M-6.8 -1.1 Q-5.9 -0.65 -5.7 0.3 L-5.6 0.95 -5.85 1.5 -6.95 0.55 -7.65 -0.15 -7.65 -1.15 -7.4 -1.35 -7.15 -1.3 -6.8 -1.1 M-2.4 2.75 L-1.9 2.15 Q-0.65 2.2 0.25 3.2 L0.75 3.75 -0.5 4.1 -1.05 4.3 -1.2 4.8 -1.3 5.0 -1.55 5.15 -1.95 5.3 -1.9 6.35 -1.95 6.5 -2.9 7.45 -3.55 7.35 -3.75 6.05 -3.15 5.5 Q-2.9 5.15 -2.95 4.9 L-3.55 3.8 -3.55 3.2 -2.9 2.7 -2.4 2.75 M2.4 -5.15 L2.25 -4.7 Q0.2 -6.05 -1.3 -7.7 0.1 -8.5 1.7 -6.8 L1.85 -6.05 2.4 -5.15 M5.0 -0.1 L5.9 0.3 5.9 1.45 Q5.6 2.1 4.95 2.0 L4.65 1.95 Q4.15 1.75 4.0 1.3 L4.0 1.25 Q4.0 0.7 4.3 0.3 4.55 -0.1 5.0 -0.1 M-0.1 6.8 L-0.1 6.65 Q0.95 5.15 2.75 4.45 L3.35 4.3 3.45 5.2 1.35 6.3 -0.1 6.8 M-4.3 -6.5 L-4.35 -6.85 Q-4.35 -7.4 -3.0 -7.35 L-2.95 -7.05 Q-2.95 -6.4 -3.85 -6.4 L-4.3 -6.5 M-5.75 -5.25 L-5.45 -5.8 -4.8 -6.0 -4.3 -5.6 -4.1 -4.85 -5.3 -3.2 -4.65 -2.4 -4.65 -1.85 -4.35 -1.6 -4.25 -0.15 -2.6 0.7 -3.0 1.1 Q-3.55 1.6 -4.25 1.55 L-4.7 1.5 -5.1 0.7 -4.9 -0.35 -5.0 -0.5 -6.2 -2.05 -6.2 -3.1 -5.75 -5.25 M-0.7 0.95 L0.9 1.45 1.25 1.0 0.75 0.3 3.05 -2.35 Q3.1 0.6 1.35 2.9 -0.1 2.65 -1.05 1.55 L-0.7 0.95 M-8.0 3.95 L-8.05 3.55 -6.95 2.6 -5.75 2.4 Q-5.05 3.0 -5.2 4.0 L-5.4 4.55 -5.65 4.9 Q-7.35 5.5 -8.0 3.95" fill="#ff0000" fill-rule="evenodd" stroke="none"/>
      <path d="M0.8 -4.05 Q2.15 -3.0 1.4 -1.4 0.8 -1.3 0.4 -1.6 L-0.1 -2.0 Q-0.35 -3.1 0.6 -3.9 L0.8 -4.05 M-1.05 -6.15 Q-0.25 -5.6 0.05 -4.4 -1.25 -2.95 -2.85 -4.2 L-2.9 -4.45 -2.55 -4.4 Q-1.2 -4.4 -1.05 -6.15 M-1.0 -0.1 Q-2.25 -0.8 -3.8 -1.15 -4.15 -2.7 -3.15 -3.65 -0.9 -3.4 -0.65 -1.15 L-0.4 -0.45 -0.75 -0.2 -1.0 -0.1" fill="#650101" fill-rule="evenodd" stroke="none"/>
      <path d="M-2.9 -4.45 Q-3.45 -4.65 -3.25 -5.45 -3.25 -6.55 -2.15 -7.25 -1.05 -7.85 -1.05 -6.65 L-1.05 -6.15 Q-1.2 -4.4 -2.55 -4.4 L-2.9 -4.45" fill="#ffffff" fill-rule="evenodd" stroke="none"/>
      <path d="M3.75 -5.4 L3.6 -5.65 3.35 -6.1 3.2 -7.55 2.45 -8.25 1.95 -8.35 1.3 -8.1 0.05 -8.35 -0.9 -8.65 -1.9 -8.95 Q-3.65 -8.65 -4.6 -7.9 L-4.8 -7.7 -5.1 -7.25 -5.45 -7.8 -5.5 -7.85 -6.7 -7.95 -5.15 -9.3 -4.8 -9.5 -1.8 -9.65 -1.25 -9.6 0.65 -9.15 1.3 -8.95 Q2.7 -8.55 3.95 -8.95 L4.0 -8.95 3.95 -7.55 3.95 -7.25 Q3.9 -6.2 4.45 -5.05 L3.75 -5.4 M-7.65 -6.55 L-7.0 -5.25 -6.4 -5.05 -6.35 -5.05 -6.8 -3.55 -6.6 -1.9 -6.55 -1.75 -6.8 -1.1 -7.15 -1.3 -7.4 -1.35 -7.65 -1.15 -7.65 -0.15 -6.95 0.55 -5.85 1.5 Q-5.0 3.0 -4.35 3.0 -3.8 3.0 -3.15 2.4 L-2.6 2.65 -2.4 2.75 -2.9 2.7 -3.55 3.2 -3.55 3.8 -3.75 4.2 -4.9 4.55 -4.8 5.4 Q-4.8 6.7 -6.3 6.7 -7.1 6.7 -7.3 6.1 L-6.55 6.05 Q-5.3 5.8 -5.4 4.55 L-5.2 4.0 Q-5.05 3.0 -5.75 2.4 L-6.95 2.6 -7.1 1.95 Q-7.25 1.7 -7.65 1.5 L-9.05 1.0 -7.95 -1.9 -8.2 -2.6 -8.3 -3.5 -8.25 -4.7 -8.15 -5.25 -7.65 -6.55 M-0.9 5.95 L-0.8 4.55 0.4 4.6 Q1.05 4.6 2.45 3.5 3.8 2.4 3.7 -1.05 L4.25 -1.65 Q5.4 -3.1 4.55 -4.8 5.95 -2.95 5.35 -0.95 L5.0 -0.1 Q4.55 -0.1 4.3 0.3 4.0 0.7 4.0 1.25 L4.0 1.3 4.5 2.95 5.4 2.9 5.85 2.75 4.5 4.3 3.55 5.6 3.45 5.2 3.35 4.3 2.75 4.45 Q0.95 5.15 -0.1 6.65 L-0.9 5.95" fill="#582c5b" fill-rule="evenodd" stroke="none"/>
    </g>
  </defs>
</svg>
