<?xml version="1.0" encoding="UTF-8" standalone="no"?>
<svg xmlns:ffdec="https://www.free-decompiler.com/flash" xmlns:xlink="http://www.w3.org/1999/xlink" ffdec:objectType="frame" height="56.5px" width="42.8px" xmlns="http://www.w3.org/2000/svg">
  <g transform="matrix(1.0, 0.0, 0.0, 1.0, 25.2, 34.75)">
    <use ffdec:characterId="1235" height="15.4" id="neck" transform="matrix(1.0, 0.0, 0.0, 1.0, -4.45, -25.05)" width="10.6" xlink:href="#sprite0"/>
    <use ffdec:characterId="1238" height="39.55" transform="matrix(1.0, 0.0, 0.0, 1.0, -11.25, -18.65)" width="20.2" xlink:href="#shape1"/>
    <use ffdec:characterId="1138" height="0.0" id="spineRef" transform="matrix(1.0, 0.0, 0.0, 1.0, 2.3, -25.2)" width="0.0" xlink:href="#sprite1"/>
  </g>
  <defs>
    <g id="sprite0" transform="matrix(1.0, 0.0, 0.0, 1.0, 3.6, 7.4)">
      <use ffdec:characterId="1234" height="15.4" transform="matrix(1.0, 0.0, 0.0, 1.0, -3.6, -7.4)" width="10.6" xlink:href="#shape0"/>
    </g>
    <g id="shape0" transform="matrix(1.0, 0.0, 0.0, 1.0, 3.6, 7.4)">
      <path d="M2.95 -0.95 L3.0 -1.05 3.2 -1.4 3.4 -1.3 3.15 -0.75 2.95 -0.95 M4.0 -0.05 L4.8 -0.55 5.25 -0.4 5.4 -0.4 5.2 0.4 5.1 0.65 4.2 0.1 4.0 -0.05" fill="#e2b181" fill-rule="evenodd" stroke="none"/>
      <path d="M-3.0 -5.1 L-2.95 -4.6 -3.0 -4.4 -3.3 -4.95 -3.0 -5.1 M-2.45 -1.65 L-2.25 -1.5 -1.4 -2.45 Q-0.75 -3.35 -0.75 -3.65 L-0.75 -3.9 0.1 -3.3 0.0 -2.9 Q-0.05 -2.2 0.15 -1.55 0.45 -0.3 1.6 -0.3 2.45 -0.3 2.95 -0.95 L3.15 -0.75 3.35 0.6 3.5 0.6 4.0 -0.05 4.2 0.1 5.1 0.65 5.0 6.6 5.0 8.0 4.55 6.55 -3.6 4.9 Q-2.5 2.15 -2.4 -0.7 L-2.45 -1.65" fill="#ffcc99" fill-rule="evenodd" stroke="none"/>
      <path d="M-0.15 -5.5 L-0.15 -5.4 -0.05 -5.05 0.0 -5.0 0.85 -4.8 0.9 -4.8 2.8 -3.1 Q3.3 -2.65 3.75 -2.35 L3.1 -2.7 2.45 -3.1 Q2.2 -3.55 1.3 -3.9 0.15 -4.35 0.1 -3.3 L-0.75 -3.9 Q-0.85 -4.75 -1.7 -5.0 -1.2 -5.4 -0.15 -5.5 M1.8 -5.1 L1.85 -5.3 2.7 -5.1 1.8 -5.1 M0.1 -3.3 L0.1 -3.25 Q0.65 -1.25 1.75 -1.25 L2.35 -1.4 2.5 -2.55 3.85 -1.9 4.45 -1.9 Q3.7 -1.65 3.4 -1.3 L3.2 -1.4 3.0 -1.05 2.95 -0.95 Q2.45 -0.3 1.6 -0.3 0.45 -0.3 0.15 -1.55 -0.05 -2.2 0.0 -2.9 L0.1 -3.3 M4.8 -0.55 L5.6 -0.85 Q6.25 -1.05 6.6 -1.3 L6.5 -1.2 Q5.95 -0.5 5.4 -0.4 L5.25 -0.4 4.8 -0.55 M6.9 -1.85 L6.8 -2.25 6.6 -2.5 6.25 -2.4 6.25 -2.85 6.1 -3.55 Q7.0 -2.85 7.0 -2.35 L6.9 -1.85" fill="#990000" fill-rule="evenodd" stroke="none"/>
      <path d="M0.45 -6.75 L0.25 -6.5 -0.15 -5.5 Q-1.2 -5.4 -1.7 -5.0 -0.85 -4.75 -0.75 -3.9 L-0.75 -3.65 Q-0.75 -3.35 -1.4 -2.45 L-2.25 -1.5 -2.45 -1.65 Q-2.95 -2.15 -3.15 -3.35 L-3.0 -4.4 -2.95 -4.6 -3.0 -5.1 -3.0 -5.5 -2.0 -6.75 Q-1.05 -7.15 0.45 -6.75 M1.85 -5.3 L1.85 -5.5 1.55 -6.4 2.3 -6.1 4.85 -4.65 4.85 -4.6 4.8 -4.65 2.7 -5.1 1.85 -5.3 M3.4 -1.3 Q3.7 -1.65 4.45 -1.9 L3.85 -1.9 2.5 -2.55 2.35 -1.4 1.75 -1.25 Q0.65 -1.25 0.1 -3.25 L0.1 -3.3 Q0.15 -4.35 1.3 -3.9 2.2 -3.55 2.45 -3.1 L3.1 -2.7 3.75 -2.35 5.4 -2.2 6.25 -2.4 6.6 -2.5 6.8 -2.25 6.9 -1.85 6.9 -1.75 6.6 -1.3 Q6.25 -1.05 5.6 -0.85 L4.8 -0.55 4.0 -0.05 3.5 0.6 3.35 0.6 3.15 -0.75 3.4 -1.3" fill="#ff0000" fill-rule="evenodd" stroke="none"/>
      <path d="M0.9 -4.8 L1.75 -5.0 1.8 -5.1 2.7 -5.1 4.8 -4.65 4.85 -4.6 Q5.8 -4.2 6.1 -3.55 L6.25 -2.85 6.25 -2.4 5.4 -2.2 3.75 -2.35 Q3.3 -2.65 2.8 -3.1 L0.9 -4.8" fill="#650101" fill-rule="evenodd" stroke="none"/>
      <path d="M-0.15 -5.5 L0.25 -6.5 0.45 -6.75 1.0 -7.4 1.5 -6.5 1.55 -6.4 1.85 -5.5 1.85 -5.3 1.8 -5.1 1.75 -5.0 0.9 -4.8 0.85 -4.8 0.0 -5.0 -0.05 -5.05 -0.15 -5.4 -0.15 -5.5" fill="#ffffff" fill-rule="evenodd" stroke="none"/>
    </g>
    <g id="shape1" transform="matrix(1.0, 0.0, 0.0, 1.0, 11.25, 18.65)">
      <path d="M-7.75 -12.3 Q-7.4 -15.75 -5.2 -17.45 -4.2 -18.25 -3.05 -18.5 L-1.95 -18.65 0.55 -18.25 Q4.05 -17.1 6.35 -13.3 8.95 -8.95 8.95 -2.55 L8.9 -1.2 Q7.25 -7.45 5.4 -12.25 3.55 -17.1 -0.65 -17.3 -4.9 -17.5 -6.75 -14.5 L-7.75 -12.3" fill="#3f81e5" fill-rule="evenodd" stroke="none"/>
      <path d="M8.9 -1.2 L8.65 4.85 8.1 4.35 7.7 1.7 7.4 1.4 7.45 1.2 7.35 0.8 7.25 0.8 Q7.2 -0.3 6.4 -0.45 L5.9 -0.4 5.65 -0.35 5.4 -0.3 5.05 -0.1 Q4.5 0.05 4.3 0.3 L4.5 -1.0 5.0 -5.0 Q5.0 -10.0 4.0 -12.75 2.6 -16.5 -0.85 -16.5 -5.1 -16.5 -6.5 -9.75 -7.25 -6.15 -7.25 1.85 L-6.85 7.75 -6.75 8.95 -6.75 9.05 -6.75 9.1 -7.65 9.4 -8.05 8.6 -8.45 9.3 -9.2 9.9 -9.55 10.05 -9.35 9.7 -9.25 9.0 Q-9.25 7.85 -9.6 7.55 L-11.25 7.25 -11.25 7.1 Q-9.7 6.35 -9.05 5.65 L-8.85 1.4 Q-8.85 -1.9 -8.5 -4.45 L-8.45 -5.75 -8.4 -6.35 -7.95 -8.35 -7.85 -10.95 -7.75 -12.3 -6.75 -14.5 Q-4.9 -17.5 -0.65 -17.3 3.55 -17.1 5.4 -12.25 7.25 -7.45 8.9 -1.2 M4.05 3.75 L4.0 3.25 4.15 1.25 4.3 1.7 4.3 2.3 Q4.3 2.9 4.45 3.5 L4.5 3.6 4.5 3.65 4.05 3.75" fill="#2d6ed0" fill-rule="evenodd" stroke="none"/>
      <path d="M-6.75 8.95 L-6.85 7.75 -7.25 1.85 Q-7.25 -6.15 -6.5 -9.75 -5.1 -16.5 -0.85 -16.5 2.6 -16.5 4.0 -12.75 5.0 -10.0 5.0 -5.0 L4.5 -1.0 4.3 0.3 4.05 0.6 4.0 0.8 4.05 0.9 4.15 1.25 4.0 3.25 4.05 3.75 3.7 3.95 Q3.2 4.25 3.2 4.8 L3.2 4.9 3.15 5.05 3.1 5.5 3.25 6.15 3.3 6.2 3.4 6.35 3.7 6.55 3.2 7.1 2.4 5.75 2.2 4.35 1.95 4.0 1.15 3.7 Q-0.15 3.5 -1.35 4.25 L-2.2 3.65 -2.55 4.1 -2.8 4.55 -2.9 5.1 -2.85 5.7 -3.4 6.5 -3.15 7.3 -2.7 7.9 Q-2.2 8.4 -1.55 8.55 L-1.5 8.9 Q-2.15 8.9 -2.6 9.45 -3.1 9.9 -3.1 10.6 L-3.1 11.0 -3.1 11.45 -3.85 11.55 -3.95 11.45 -3.9 9.9 -3.7 9.15 -3.75 8.6 -3.7 8.25 Q-3.7 7.8 -3.95 7.5 -4.3 7.1 -5.15 6.95 L-5.25 6.95 Q-6.45 6.75 -6.5 8.1 L-6.6 8.3 -6.75 8.95" fill="#1a57b4" fill-rule="evenodd" stroke="none"/>
      <path d="M8.35 7.1 L8.35 7.15 8.3 7.2 8.1 7.45 7.15 8.6 6.8 8.15 6.85 7.5 5.6 6.75 5.5 6.7 5.5 6.55 5.55 5.8 5.8 5.5 7.5 5.45 7.7 5.9 7.35 6.3 8.3 7.1 8.35 7.1 M6.9 9.0 L7.5 9.9 7.35 11.6 6.0 12.75 5.85 12.85 5.45 13.45 5.1 13.55 5.05 13.55 3.6 12.65 3.5 12.5 3.3 12.6 0.25 12.0 1.55 13.45 1.5 13.65 1.35 13.7 1.25 13.75 1.05 13.7 0.7 13.55 0.65 14.2 -0.1 14.15 -0.7 14.8 -0.1 16.1 -0.45 17.35 -0.1 17.7 -0.15 18.15 -0.5 18.7 -1.55 18.85 -2.1 19.1 Q-2.8 19.55 -2.8 20.15 L-3.2 19.5 -2.8 18.95 -2.6 18.85 -2.3 18.55 Q-1.6 18.0 -1.35 17.15 L-1.25 16.35 -1.85 16.75 -2.45 16.3 -3.85 17.3 -3.7 16.95 -3.55 16.45 -3.3 15.95 -2.1 14.7 -0.6 14.1 -1.15 11.6 -1.6 11.35 -1.65 10.6 -3.1 10.6 Q-3.1 9.9 -2.6 9.45 -2.15 8.9 -1.5 8.9 L-0.7 8.9 0.05 9.45 -0.15 10.3 0.35 10.9 1.95 11.1 2.7 11.45 3.3 11.9 5.8 11.7 5.9 11.7 6.05 11.25 6.7 10.8 6.45 10.5 4.8 10.2 4.5 9.9 4.5 9.4 4.9 9.1 6.3 9.4 6.9 9.0 M4.3 0.3 Q4.5 0.05 5.05 -0.1 L5.4 -0.3 5.65 -0.35 5.9 -0.4 6.4 -0.45 Q7.2 -0.3 7.25 0.8 L7.25 0.95 Q7.25 1.4 6.85 1.95 L6.65 2.2 Q6.0 2.95 5.45 2.95 L4.75 2.55 4.7 2.5 4.35 1.8 4.3 1.7 4.15 1.25 4.05 0.9 4.0 0.8 4.05 0.6 4.3 0.3 M0.65 7.25 L0.55 6.3 1.1 5.3 Q0.5 5.55 -0.25 5.3 L-1.25 4.9 -1.35 4.25 Q-0.15 3.5 1.15 3.7 L1.95 4.0 2.2 4.35 2.4 5.75 2.45 6.2 1.75 7.3 0.65 7.25 M3.2 4.9 L3.2 4.8 Q3.2 4.25 3.7 3.95 L4.05 3.75 4.5 3.65 5.15 3.9 5.2 3.9 5.25 4.3 4.9 5.1 4.55 5.3 4.3 5.4 4.05 5.4 3.8 5.4 3.3 5.3 3.25 5.2 3.2 4.9 M-6.5 8.1 Q-6.45 6.75 -5.25 6.95 L-5.15 6.95 Q-4.3 7.1 -3.95 7.5 -3.7 7.8 -3.7 8.25 L-3.75 8.6 -3.9 8.9 -4.1 9.1 Q-4.6 9.6 -5.35 9.6 -6.65 9.6 -6.55 8.45 L-6.5 8.1 M-2.5 13.0 L-2.4 13.5 Q-2.4 14.0 -2.7 14.2 L-2.95 14.3 -3.75 14.4 -4.4 14.8 -4.5 14.9 -5.15 15.2 -5.2 15.2 -5.7 15.1 -5.85 14.6 Q-5.85 13.9 -4.5 13.3 L-4.25 13.15 -4.1 13.1 -2.5 13.0 M1.4 9.45 L0.65 8.5 0.75 8.1 1.9 7.8 1.85 8.45 2.35 9.3 2.2 9.6 1.4 9.45" fill="#ff0000" fill-rule="evenodd" stroke="none"/>
      <path d="M8.35 6.05 L8.35 7.1 8.3 7.1 7.35 6.3 7.7 5.9 8.3 6.05 8.35 6.05 M7.15 8.6 L6.9 9.0 6.3 9.4 4.9 9.1 4.8 7.6 6.8 8.15 7.15 8.6 M5.45 13.45 L5.6 14.45 4.9 14.7 4.45 14.85 3.6 14.7 3.55 14.65 3.35 14.6 2.5 14.4 Q1.9 14.4 1.7 14.85 L1.65 15.6 1.7 15.75 Q0.95 16.1 0.45 16.85 L0.2 17.2 -0.1 17.7 -0.45 17.35 -0.1 16.1 -0.7 14.8 -0.1 14.15 0.65 14.2 0.7 13.55 1.05 13.7 1.25 13.75 1.35 13.7 1.5 13.65 1.55 13.45 3.55 13.85 3.75 13.85 5.05 13.55 5.1 13.55 5.45 13.45 M-2.8 18.95 L-3.25 18.7 -2.5 17.9 -1.95 17.1 -1.85 16.75 -1.25 16.35 -1.35 17.15 Q-1.6 18.0 -2.3 18.55 L-2.6 18.85 -2.8 18.95 M-3.7 17.95 L-3.9 17.4 -4.05 17.3 -4.65 16.9 -5.95 15.75 -5.95 14.0 -7.05 14.0 -7.3 13.45 -7.95 11.0 -7.75 10.4 -5.9 12.55 -5.0 12.6 -4.8 13.2 -4.5 13.3 Q-5.85 13.9 -5.85 14.6 L-5.7 15.1 -5.2 15.2 -5.15 15.2 -4.7 15.95 -3.6 15.9 -3.3 15.45 Q-2.9 14.85 -2.95 14.3 L-2.7 14.2 Q-2.4 14.0 -2.4 13.5 L-2.5 13.0 -1.9 12.6 Q-2.8 12.55 -3.05 11.8 L-3.1 11.45 -3.1 11.0 -3.1 10.6 -1.65 10.6 -1.6 11.35 -1.15 11.6 -0.6 14.1 -2.1 14.7 -3.3 15.95 -3.55 16.45 -3.7 16.95 -3.85 17.3 -3.7 17.95 M7.25 0.8 L7.35 0.8 7.45 1.2 7.4 1.4 7.3 1.95 7.55 2.6 7.2 3.5 7.1 3.6 5.2 3.9 5.15 3.9 4.5 3.65 4.5 3.6 4.45 3.5 Q4.3 2.9 4.3 2.3 L4.3 1.7 4.35 1.8 4.7 2.5 4.75 2.55 5.45 2.95 Q6.0 2.95 6.65 2.2 L6.85 1.95 Q7.25 1.4 7.25 0.95 L7.25 0.8 M-0.7 8.9 L0.65 7.25 1.75 7.3 2.45 6.2 2.4 5.75 2.8 6.7 2.8 7.15 2.35 7.6 2.05 7.65 2.6 8.6 2.9 9.65 2.85 9.75 2.2 9.6 2.35 9.3 1.85 8.45 1.9 7.8 0.75 8.1 0.65 8.5 1.4 9.45 0.35 9.2 2.8 10.75 3.0 11.2 4.15 10.8 6.05 11.25 5.9 11.7 5.8 11.7 3.3 11.9 2.7 11.45 1.95 11.1 0.35 10.9 -0.15 10.3 0.05 9.45 -0.7 8.9 M0.55 6.3 L0.35 6.3 -0.8 6.0 -1.3 5.35 -1.25 4.9 -0.25 5.3 Q0.5 5.55 1.1 5.3 L0.55 6.3 M3.7 6.55 L3.4 6.35 3.3 6.2 3.25 6.15 3.1 5.5 3.15 5.05 3.2 4.9 3.25 5.2 3.3 5.3 3.8 5.4 4.05 5.4 4.3 5.4 4.55 5.3 4.9 5.1 5.25 4.3 5.4 4.4 5.5 4.5 5.8 5.5 5.55 5.8 5.5 6.55 4.05 6.7 3.95 6.7 3.7 6.55 M-6.5 8.1 L-6.55 8.45 Q-6.65 9.6 -5.35 9.6 -4.6 9.6 -4.1 9.1 L-3.9 8.9 -3.75 8.6 -3.7 9.15 -3.9 9.9 -4.1 10.15 Q-4.3 10.4 -4.65 10.5 L-4.65 10.7 -4.75 10.8 -4.8 10.8 -5.2 10.9 Q-5.7 10.9 -6.4 10.1 L-6.65 9.8 -6.75 9.7 -6.7 9.35 -6.65 9.2 -6.75 9.1 -6.75 9.05 -6.75 8.95 -6.6 8.3 -6.5 8.1 M3.3 12.6 L3.5 12.5 3.6 12.65 3.3 12.6" fill="#990000" fill-rule="evenodd" stroke="none"/>
      <path d="M-0.5 18.7 L-0.5 18.9 -0.45 19.35 Q-0.45 20.1 -0.8 20.5 -1.25 20.9 -2.35 20.9 L-2.85 20.8 -2.9 20.35 -2.8 20.15 Q-2.8 19.55 -2.1 19.1 L-1.55 18.85 -0.5 18.7 M-3.25 18.7 L-3.35 18.7 -3.5 18.35 -3.7 17.95 -3.85 17.3 -2.45 16.3 -1.85 16.75 -1.95 17.1 -2.5 17.9 -3.25 18.7 M-2.95 14.3 Q-2.9 14.85 -3.3 15.45 L-3.6 15.9 -4.7 15.95 -5.15 15.2 -4.5 14.9 -4.4 14.8 -3.75 14.4 -2.95 14.3 M1.55 13.45 L0.25 12.0 3.3 12.6 3.6 12.65 5.05 13.55 3.75 13.85 3.55 13.85 1.55 13.45 M5.5 6.7 L5.6 6.75 6.85 7.5 6.8 8.15 4.8 7.6 5.5 6.7 M2.85 9.75 L2.8 10.75 0.35 9.2 1.4 9.45 2.2 9.6 2.85 9.75 M4.15 10.8 L4.8 10.2 6.45 10.5 6.7 10.8 6.05 11.25 4.15 10.8" fill="#ffffff" fill-rule="evenodd" stroke="none"/>
      <path d="M8.65 4.85 L8.7 4.9 8.75 5.7 8.35 6.05 8.3 6.05 7.7 5.9 7.5 5.45 5.8 5.5 5.5 4.5 5.4 4.4 5.25 4.3 5.2 3.9 7.1 3.6 7.2 3.5 7.55 2.6 7.3 1.95 7.4 1.4 7.7 1.7 8.1 4.35 8.65 4.85 M-7.75 10.4 L-7.85 10.2 -9.7 10.2 -9.7 10.1 -9.55 10.05 -9.2 9.9 -8.45 9.3 -8.05 8.6 -7.65 9.4 -6.75 9.1 -6.65 9.2 -6.7 9.35 -6.75 9.7 -6.65 9.8 -6.4 10.1 Q-5.7 10.9 -5.2 10.9 L-4.8 10.8 -4.75 10.8 -4.65 10.7 -4.65 10.5 Q-4.3 10.4 -4.1 10.15 L-3.9 9.9 -3.95 11.45 -3.85 11.55 -3.1 11.45 -3.05 11.8 Q-2.8 12.55 -1.9 12.6 L-2.5 13.0 -4.1 13.1 -4.25 13.15 -4.5 13.3 -4.8 13.2 -5.0 12.6 -5.9 12.55 -7.75 10.4 M-1.5 8.9 L-1.55 8.55 Q-2.2 8.4 -2.7 7.9 L-3.15 7.3 -3.4 6.5 -2.85 5.7 -2.9 5.1 -2.8 4.55 -2.55 4.1 -2.2 3.65 -1.35 4.25 -1.25 4.9 -1.3 5.35 -0.8 6.0 0.35 6.3 0.55 6.3 0.65 7.25 -0.7 8.9 -1.5 8.9 M2.4 5.75 L3.2 7.1 3.7 6.55 3.95 6.7 4.05 6.7 5.5 6.55 5.5 6.7 4.8 7.6 4.9 9.1 4.5 9.4 4.5 9.9 4.8 10.2 4.15 10.8 3.0 11.2 2.8 10.75 2.85 9.75 2.9 9.65 2.6 8.6 2.05 7.65 2.35 7.6 2.8 7.15 2.8 6.7 2.4 5.75" fill="#582c5b" fill-rule="evenodd" stroke="none"/>
    </g>
  </defs>
</svg>
