<?xml version="1.0" encoding="UTF-8" standalone="no"?>
<svg xmlns:ffdec="https://www.free-decompiler.com/flash" xmlns:xlink="http://www.w3.org/1999/xlink" ffdec:objectType="frame" height="56.5px" width="42.8px" xmlns="http://www.w3.org/2000/svg">
  <g transform="matrix(1.0, 0.0, 0.0, 1.0, 25.2, 34.75)">
    <use ffdec:characterId="1169" height="24.15" id="heart" transform="matrix(0.65, 0.0, 0.0, 0.65, -25.2049, -34.7649)" width="18.6" xlink:href="#sprite0"/>
    <use ffdec:characterId="1240" height="19.75" id="chunk1" transform="matrix(1.0, 0.0, 0.0, 1.0, 3.85, -18.95)" width="13.15" xlink:href="#sprite6"/>
    <use ffdec:characterId="1242" height="19.4" id="chunk2" transform="matrix(1.0, 0.0, 0.0, 1.0, 0.95, 2.3)" width="16.65" xlink:href="#sprite7"/>
    <use ffdec:characterId="1244" height="19.45" id="chunk3" transform="matrix(1.0, 0.0, 0.0, 1.0, -18.5, 2.3)" width="15.9" xlink:href="#sprite8"/>
    <use ffdec:characterId="1246" height="22.75" id="chunk4" transform="matrix(1.0, 0.0, 0.0, 1.0, -18.75, -22.45)" width="16.15" xlink:href="#sprite9"/>
    <use ffdec:characterId="1138" height="0.0" id="spineRef" transform="matrix(1.0, 0.0, 0.0, 1.0, 2.3, -25.2)" width="0.0" xlink:href="#sprite10"/>
  </g>
  <defs>
    <g id="sprite0" transform="matrix(1.0, 0.0, 0.0, 1.0, 9.7, 14.1)">
      <use ffdec:characterId="1152" height="20.0" transform="matrix(1.0, 0.0, 0.0, 1.0, -7.25, -9.95)" width="15.2" xlink:href="#morphshape0"/>
      <use ffdec:characterId="1153" height="13.85" transform="matrix(1.0, 0.0, 0.0, 1.0, -1.95, -9.45)" width="8.55" xlink:href="#morphshape1"/>
      <use ffdec:characterId="1154" height="18.1" transform="matrix(1.0, 0.0, 0.0, 1.0, -5.75, -9.5)" width="11.1" xlink:href="#morphshape2"/>
      <use ffdec:characterId="1156" height="2.55" transform="matrix(1.0, 0.0, 0.0, 1.0, 3.65, -5.5)" width="3.65" xlink:href="#sprite1"/>
      <use ffdec:characterId="1158" height="5.2" transform="matrix(1.0, 0.0, 0.0, 1.0, -1.4, -13.35)" width="3.35" xlink:href="#sprite2"/>
      <use ffdec:characterId="1160" height="5.6" transform="matrix(1.0, 0.0, 0.0, 1.0, -5.65, -12.85)" width="2.4" xlink:href="#sprite3"/>
      <use ffdec:characterId="1162" height="1.7" transform="matrix(1.0, 0.0, 0.0, 1.0, -9.2, -5.0)" width="3.85" xlink:href="#sprite4"/>
      <use ffdec:characterId="1164" height="1.75" transform="matrix(1.0, 0.0, 0.0, 1.0, -9.7, -0.35)" width="3.15" xlink:href="#sprite5"/>
    </g>
    <g id="morphshape0" transform="matrix(1.0, 0.0, 0.0, 1.0, 7.25, 9.95)">
      <path d="M-7.2 -0.55 Q-7.55 4.3 -3.5 7.15 0.4 9.85 4.95 9.95 5.3 9.6 5.6 9.25 7.15 6.3 7.2 2.6 7.05 -4.4 2.4 -6.2 0.85 -8.95 -0.05 -9.9 L-1.2 -9.95 Q-3.05 -9.9 -4.55 -9.1 L-6.7 -3.5 Q-6.95 -2.0 -7.2 -0.55" fill="#990000" fill-rule="evenodd" stroke="none"/>
      <path d="M-7.2 -0.55 Q-6.95 -2.0 -6.7 -3.5 L-4.55 -9.1 Q-3.05 -9.9 -1.2 -9.95 L-0.05 -9.9 Q0.85 -8.95 2.4 -6.2 7.05 -4.4 7.2 2.6 7.15 6.3 5.6 9.25 5.3 9.6 4.95 9.95 0.4 9.85 -3.5 7.15 -7.55 4.3 -7.2 -0.55 Z" fill="none" stroke="#000000" stroke-linecap="round" stroke-linejoin="round" stroke-opacity="0.0" stroke-width="0.0"/>
    </g>
    <g id="morphshape1" transform="matrix(1.0, 0.0, 0.0, 1.0, 1.95, 9.45)">
      <path d="M-1.95 -8.1 Q-1.75 -6.85 -0.15 -5.95 -1.05 -4.55 1.1 -1.9 3.65 1.15 5.8 2.4 7.3 -2.85 0.8 -5.8 0.9 -6.95 0.6 -7.7 -0.1 -8.45 -0.8 -9.2 -1.9 -10.05 -1.95 -8.1" fill="#fe8989" fill-rule="evenodd" stroke="none"/>
      <path d="M-1.95 -8.1 Q-1.9 -10.05 -0.8 -9.2 -0.1 -8.45 0.6 -7.7 0.9 -6.95 0.8 -5.8 7.3 -2.85 5.8 2.4 3.65 1.15 1.1 -1.9 -1.05 -4.55 -0.15 -5.95 -1.75 -6.85 -1.95 -8.1 Z" fill="none" stroke="#000000" stroke-linecap="round" stroke-linejoin="round" stroke-opacity="0.0" stroke-width="0.0"/>
    </g>
    <g id="morphshape2" transform="matrix(1.0, 0.0, 0.0, 1.0, 5.75, 9.5)">
      <path d="M-5.75 0.9 L-5.75 1.05 Q-5.6 1.95 -4.2 4.3 L-3.5 5.2 Q-1.85 6.85 1.15 6.95 L1.55 7.1 Q2.55 7.5 3.15 8.6 3.8 8.55 4.45 8.5 L5.25 8.5 5.35 7.75 5.3 7.1 5.3 6.8 5.2 6.45 5.1 6.45 4.2 6.1 3.9 6.0 Q2.2 5.35 0.7 4.35 L-0.1 3.8 -0.6 3.35 -1.4 2.05 Q-1.5 1.3 -1.6 0.55 L-1.55 -0.05 Q-1.3 -2.25 0.75 -4.4 L0.75 -4.4 Q2.0 -6.0 3.65 -7.25 L4.3 -7.7 3.2 -8.85 3.0 -9.05 2.1 -8.35 1.5 -7.9 Q-0.7 -6.15 -2.9 -4.45 L-3.65 -3.95 Q-5.2 -2.55 -5.75 0.9" fill="#76015b" fill-rule="evenodd" stroke="none"/>
      <path d="M-5.75 0.9 Q-5.2 -2.55 -3.65 -3.95 L-2.9 -4.45 Q-0.7 -6.15 1.5 -7.9 L2.1 -8.35 3.0 -9.05 3.2 -8.85 4.3 -7.7 3.65 -7.25 Q2.0 -6.0 0.75 -4.4 L0.75 -4.4 Q-1.3 -2.25 -1.55 -0.05 L-1.6 0.55 Q-1.5 1.3 -1.4 2.05 L-0.6 3.35 -0.1 3.8 0.7 4.35 Q2.2 5.35 3.9 6.0 L4.2 6.1 5.1 6.45 5.2 6.45 5.3 6.8 5.3 7.1 5.35 7.75 5.25 8.5 4.45 8.5 Q3.8 8.55 3.15 8.6 2.55 7.5 1.55 7.1 L1.15 6.95 Q-1.85 6.85 -3.5 5.2 L-4.2 4.3 Q-5.6 1.95 -5.75 1.05 L-5.75 0.9 Z" fill="none" stroke="#000000" stroke-linecap="round" stroke-linejoin="round" stroke-opacity="0.0" stroke-width="0.0"/>
    </g>
    <g id="sprite1" transform="matrix(1.0, 0.0, 0.0, 1.0, 1.8, 1.3)">
      <use ffdec:characterId="1155" height="2.55" transform="matrix(1.0, 0.0, 0.0, 1.0, -1.8, -1.3)" width="3.65" xlink:href="#shape0"/>
    </g>
    <g id="shape0" transform="matrix(1.0, 0.0, 0.0, 1.0, 1.8, 1.3)">
      <path d="M-1.8 0.85 L-0.75 0.1 1.85 -1.3 1.85 0.15 Q0.8 0.95 -0.4 1.25 L-1.8 0.85" fill="#ff0000" fill-rule="evenodd" stroke="none"/>
    </g>
    <g id="sprite2" transform="matrix(1.0, 0.0, 0.0, 1.0, 1.65, 2.6)">
      <use ffdec:characterId="1157" height="5.2" transform="matrix(1.0, 0.0, 0.0, 1.0, -1.65, -2.6)" width="3.35" xlink:href="#shape1"/>
    </g>
    <g id="shape1" transform="matrix(1.0, 0.0, 0.0, 1.0, 1.65, 2.6)">
      <path d="M1.7 -1.75 Q0.1 0.35 -0.7 2.6 L-1.65 1.05 -0.65 -0.8 0.8 -2.6 1.7 -1.75" fill="#ff0000" fill-rule="evenodd" stroke="none"/>
    </g>
    <g id="sprite3" transform="matrix(1.0, 0.0, 0.0, 1.0, 1.2, 2.8)">
      <use ffdec:characterId="1159" height="5.6" transform="matrix(1.0, 0.0, 0.0, 1.0, -1.2, -2.8)" width="2.4" xlink:href="#shape2"/>
    </g>
    <g id="shape2" transform="matrix(1.0, 0.0, 0.0, 1.0, 1.2, 2.8)">
      <path d="M-1.05 -2.8 L0.15 -2.8 0.65 -1.3 Q1.3 0.9 1.2 1.8 1.1 2.65 0.5 2.7 L0.0 2.8 -0.05 2.8 -0.75 0.75 -1.2 -1.6 -1.05 -2.8" fill="#ff0000" fill-rule="evenodd" stroke="none"/>
    </g>
    <g id="sprite4" transform="matrix(1.0, 0.0, 0.0, 1.0, 1.95, 0.85)">
      <use ffdec:characterId="1161" height="1.7" transform="matrix(1.0, 0.0, 0.0, 1.0, -1.95, -0.85)" width="3.85" xlink:href="#shape3"/>
    </g>
    <g id="shape3" transform="matrix(1.0, 0.0, 0.0, 1.0, 1.95, 0.85)">
      <path d="M1.75 0.55 L1.3 0.85 -1.95 0.7 -1.95 -0.85 -0.4 -0.75 Q0.85 -0.75 1.9 0.15 L1.75 0.55" fill="#ff0000" fill-rule="evenodd" stroke="none"/>
    </g>
    <g id="sprite5" transform="matrix(1.0, 0.0, 0.0, 1.0, 1.6, 0.85)">
      <use ffdec:characterId="1163" height="1.75" transform="matrix(1.0, 0.0, 0.0, 1.0, -1.6, -0.85)" width="3.15" xlink:href="#shape4"/>
    </g>
    <g id="shape4" transform="matrix(1.0, 0.0, 0.0, 1.0, 1.6, 0.85)">
      <path d="M0.2 -0.85 L1.55 -0.75 1.25 0.35 -0.8 0.9 -1.6 0.85 -1.25 -0.3 0.2 -0.85" fill="#ff0000" fill-rule="evenodd" stroke="none"/>
    </g>
    <g id="sprite6" transform="matrix(1.0, 0.0, 0.0, 1.0, 6.15, 9.75)">
      <use ffdec:characterId="1239" height="19.75" transform="matrix(1.0, 0.0, 0.0, 1.0, -6.15, -9.75)" width="13.15" xlink:href="#shape5"/>
    </g>
    <g id="shape5" transform="matrix(1.0, 0.0, 0.0, 1.0, 6.15, 9.75)">
      <path d="M1.6 -7.95 L1.8 -7.15 1.45 -6.25 1.3 -6.1 1.25 -6.0 0.5 -6.05 -0.1 -5.75 -0.55 -6.35 -0.65 -6.6 -0.65 -6.9 -0.65 -7.5 Q-0.65 -6.3 0.35 -6.3 1.6 -6.3 1.6 -7.95 M5.7 4.15 L5.85 4.8 5.85 5.55 5.05 6.65 3.4 7.45 4.0 6.9 Q5.2 5.75 5.7 4.15 M6.55 6.8 L6.65 7.2 6.65 7.4 6.15 7.55 6.55 6.8 M4.1 8.8 L2.85 8.65 4.65 7.95 4.15 8.7 4.1 8.8 M0.8 8.0 L-0.5 7.65 3.05 6.1 3.3 6.5 2.75 6.85 0.8 8.0 M-2.65 7.45 L-3.25 7.2 Q-3.95 6.8 -3.95 6.3 L-3.9 5.9 -4.5 5.2 -4.6 4.1 Q-4.6 3.55 -4.25 2.95 -5.15 2.7 -5.7 1.55 L-6.1 0.1 -6.05 -0.5 -6.05 -0.2 -5.35 0.6 -4.45 1.6 -4.35 1.6 -3.95 1.85 -3.8 1.6 -4.2 1.25 -4.2 0.95 -4.7 0.1 -3.2 1.8 Q-2.65 1.5 -2.5 2.6 L-2.45 2.6 -2.2 2.45 -1.85 2.2 -2.05 1.55 Q-2.35 -0.7 -4.6 -1.0 L-4.8 -0.75 -4.7 0.1 -5.45 -0.95 -5.9 -1.0 -6.15 -2.4 -5.75 -6.8 Q-5.75 -7.45 -5.35 -8.0 L-5.15 -8.25 -5.2 -7.5 -4.6 -5.25 -5.2 -3.55 -4.95 -2.6 -4.5 -3.8 -4.1 -5.1 -3.75 -6.05 -3.55 -5.8 -2.6 -6.45 Q-1.95 -6.95 -1.9 -7.4 L-1.5 -7.65 -1.25 -8.05 -1.0 -9.2 -1.05 -9.5 Q-0.45 -9.55 -0.35 -9.1 L-0.3 -9.0 -0.65 -8.35 Q-0.75 -7.95 -1.45 -7.2 L-2.05 -6.5 -1.95 -6.4 -2.05 -6.4 -2.6 -5.95 -2.35 -5.95 -1.4 -5.7 -0.45 -5.5 -0.35 -5.45 -0.35 -5.3 -0.35 -5.0 0.45 -4.9 Q1.25 -4.9 1.35 -5.35 L1.75 -4.9 1.9 -3.4 2.15 -2.95 2.3 -2.7 2.05 -2.4 2.05 -2.35 1.85 -1.9 2.3 -0.25 2.45 0.65 2.2 0.95 2.15 0.95 2.2 1.0 2.25 1.6 2.15 3.7 2.0 4.4 1.9 4.8 1.6 5.5 2.05 5.3 2.65 5.45 -2.65 7.45 M-3.7 -8.7 L-2.9 -8.35 -2.65 -8.85 -2.65 -8.65 -2.8 -8.25 -2.9 -7.85 -2.9 -7.8 -2.95 -7.8 -3.3 -7.6 -3.7 -8.7 M0.4 -3.35 L0.25 -4.1 Q-1.35 -5.8 -2.75 -5.0 -1.2 -3.35 0.8 -2.05 L0.95 -2.45 0.4 -3.35 M-2.5 -3.5 L-2.5 -4.0 Q-2.5 -5.2 -3.6 -4.55 L-4.0 -4.25 -4.25 -2.4 -4.35 -1.8 -4.3 -1.55 Q-2.7 -0.25 -1.4 -1.75 -1.7 -2.95 -2.5 -3.5 M-2.9 -5.65 L-2.8 -5.8 -2.95 -5.6 -2.9 -5.65 M-0.65 -1.35 Q-0.75 -1.25 -0.85 -1.25 -1.8 -0.4 -1.55 0.7 L-1.05 1.1 -0.05 1.25 Q0.7 -0.35 -0.65 -1.35 M-0.5 3.25 Q-2.25 3.3 -3.7 4.1 L-4.2 4.4 -1.95 4.5 -1.95 4.75 Q-1.2 5.4 -0.1 5.55 1.65 3.25 1.6 0.35 L-0.7 2.95 -0.5 3.25 M-2.2 5.45 L-2.2 5.5 -1.4 5.65 Q-1.75 5.35 -2.05 5.2 L-2.2 5.45 M2.65 4.1 L2.75 4.35 3.5 4.65 4.2 4.3 4.4 5.45 3.05 5.6 2.65 4.1" fill="#990000" fill-rule="evenodd" stroke="none"/>
      <path d="M3.6 2.65 Q4.45 2.65 5.1 3.1 5.7 3.55 5.7 4.15 5.2 5.75 4.0 6.9 L3.4 7.45 2.75 7.9 Q1.7 8.6 1.1 8.65 L1.05 8.65 0.65 8.6 0.6 8.1 0.8 8.0 2.75 6.85 3.3 6.5 4.4 5.45 4.2 4.3 3.5 4.65 2.75 4.35 2.65 4.1 2.6 4.05 2.55 3.95 Q2.55 3.6 2.7 3.35 L2.75 3.1 3.55 2.6 3.6 2.65 M6.35 5.7 L6.55 6.8 6.15 7.55 5.25 8.7 4.85 9.1 4.2 9.1 4.15 9.0 4.1 8.8 4.15 8.7 4.65 7.95 5.05 6.65 5.85 5.55 6.35 5.7 M-6.05 -0.5 L-5.9 -1.0 -5.45 -0.95 -4.7 0.1 -4.2 0.95 -4.2 1.25 -3.8 1.6 -3.95 1.85 -4.35 1.6 -4.45 1.6 -5.35 0.6 -6.05 -0.2 -6.05 -0.5 M-5.15 -8.25 Q-4.95 -9.05 -4.25 -9.0 -3.9 -8.95 -3.7 -8.7 L-3.3 -7.6 -2.95 -7.8 -2.9 -7.8 -2.9 -7.85 -2.8 -8.25 -2.65 -8.65 -2.65 -8.85 Q-2.55 -9.45 -1.8 -9.7 -1.2 -9.85 -1.05 -9.5 L-1.0 -9.2 -1.25 -8.05 -1.5 -7.65 -1.9 -7.4 Q-1.95 -6.95 -2.6 -6.45 L-3.55 -5.8 -3.75 -6.05 -4.1 -5.1 -4.5 -3.8 -4.95 -2.6 -5.2 -3.55 -4.6 -5.25 -5.2 -7.5 -5.15 -8.25 M0.45 -8.9 Q1.6 -8.85 1.6 -8.05 L1.6 -7.95 Q1.6 -6.3 0.35 -6.3 -0.65 -6.3 -0.65 -7.5 L-0.65 -7.6 Q-0.65 -8.9 0.45 -8.9 M-0.1 -5.75 L0.5 -6.05 1.25 -6.0 1.35 -5.55 1.35 -5.35 Q1.25 -4.9 0.45 -4.9 L-0.35 -5.0 -0.35 -5.3 -0.35 -5.45 -0.1 -5.75 M0.4 -3.35 L0.95 -2.45 0.8 -2.05 Q-1.2 -3.35 -2.75 -5.0 -1.35 -5.8 0.25 -4.1 L0.4 -3.35 M3.0 -2.4 L3.1 -2.1 Q3.85 -0.65 3.1 0.65 L2.75 1.1 2.25 1.6 2.2 1.0 2.15 0.95 2.2 0.95 2.45 0.65 2.3 -0.25 1.85 -1.9 2.05 -2.35 2.05 -2.4 2.3 -2.7 3.0 -2.4 M-0.5 3.25 L-0.7 2.95 1.6 0.35 Q1.65 3.25 -0.1 5.55 -1.2 5.4 -1.95 4.75 L-1.95 4.5 -0.6 4.0 0.1 3.6 0.05 3.5 -0.05 3.35 -0.5 3.25 M-2.2 5.45 L-2.05 5.2 Q-1.75 5.35 -1.4 5.65 L-2.2 5.5 -2.2 5.45" fill="#ff0000" fill-rule="evenodd" stroke="none"/>
      <path d="M-4.7 0.1 L-4.8 -0.75 -4.6 -1.0 Q-2.35 -0.7 -2.05 1.55 L-1.85 2.2 -2.2 2.45 -2.45 2.6 -2.5 2.6 Q-2.65 1.5 -3.2 1.8 L-4.7 0.1 M-2.5 -3.5 Q-1.7 -2.95 -1.4 -1.75 -2.7 -0.25 -4.3 -1.55 L-4.35 -1.8 -4.0 -1.75 Q-2.65 -1.75 -2.5 -3.5 M-0.65 -1.35 Q0.7 -0.35 -0.05 1.25 L-1.05 1.1 -1.55 0.7 Q-1.8 -0.4 -0.85 -1.25 -0.75 -1.25 -0.65 -1.35" fill="#650101" fill-rule="evenodd" stroke="none"/>
      <path d="M6.65 7.4 L7.0 8.35 6.85 8.7 6.7 9.1 5.45 9.55 4.95 9.4 4.85 9.1 5.25 8.7 6.15 7.55 6.65 7.4 M2.85 8.65 L2.75 8.65 Q1.3 9.85 -0.5 10.0 L-0.9 9.85 1.1 8.65 Q1.7 8.6 2.75 7.9 L3.4 7.45 5.05 6.65 4.65 7.95 2.85 8.65 M-0.5 7.65 L-3.55 8.9 -4.05 8.55 -2.65 7.45 2.65 5.45 2.75 5.5 Q2.9 5.5 3.0 5.65 L3.05 6.1 -0.5 7.65 M-4.35 -1.8 L-4.25 -2.4 -4.0 -4.25 -3.6 -4.55 Q-2.5 -5.2 -2.5 -4.0 L-2.5 -3.5 Q-2.65 -1.75 -4.0 -1.75 L-4.35 -1.8 M-1.95 4.5 L-4.2 4.4 -3.7 4.1 Q-2.25 3.3 -0.5 3.25 L-0.05 3.35 0.05 3.5 0.1 3.6 -0.6 4.0 -1.95 4.5" fill="#ffffff" fill-rule="evenodd" stroke="none"/>
      <path d="M3.6 2.4 L3.6 2.65 3.55 2.6 3.6 2.4" fill="#feb445" fill-rule="evenodd" stroke="none"/>
      <path d="M1.3 -6.1 L2.5 -6.3 2.55 -6.25 2.55 -5.4 2.5 -4.9 2.5 -4.8 2.5 -4.55 2.55 -3.8 3.0 -2.4 2.3 -2.7 2.15 -2.95 1.9 -3.4 1.75 -4.9 1.35 -5.35 1.35 -5.55 1.25 -6.0 1.3 -6.1 M3.85 -0.7 L4.1 0.65 3.6 2.4 3.55 2.6 2.75 3.1 2.7 3.35 Q2.55 3.6 2.55 3.95 L2.6 4.05 2.65 4.1 3.05 5.6 4.4 5.45 3.3 6.5 3.05 6.1 3.0 5.65 Q2.9 5.5 2.75 5.5 L2.65 5.45 2.05 5.3 1.6 5.5 1.9 4.8 2.0 4.4 2.15 3.7 2.25 1.6 2.75 1.1 3.1 0.65 Q3.85 -0.65 3.1 -2.1 L3.85 -0.7 M5.85 4.8 L6.2 5.1 6.35 5.7 5.85 5.55 5.85 4.8 M-0.3 -9.0 L-0.25 -9.1 Q-0.05 -9.3 0.45 -8.9 -0.65 -8.9 -0.65 -7.6 L-0.65 -7.5 -0.65 -6.9 -1.05 -6.55 -0.8 -6.45 -0.55 -6.35 -0.1 -5.75 -0.35 -5.45 -0.45 -5.5 -1.4 -5.7 -2.35 -5.95 -2.6 -5.95 -2.05 -6.4 -1.95 -6.4 -2.05 -6.5 -1.45 -7.2 Q-0.75 -7.95 -0.65 -8.35 L-0.3 -9.0" fill="#582c5b" fill-rule="evenodd" stroke="none"/>
      <path d="M2.5 -4.8 L2.55 -4.75 3.2 -3.8 3.3 -3.6 3.75 -2.4 3.85 -1.15 3.85 -0.7 3.1 -2.1 3.0 -2.4 2.55 -3.8 2.5 -4.55 2.5 -4.8" fill="#2d6ed0" fill-rule="evenodd" stroke="none"/>
      <path d="M1.6 -7.95 L2.45 -7.45 Q3.3 -6.95 4.05 -5.4 L4.7 -3.8 5.8 0.65 6.65 7.2 6.55 6.8 6.35 5.7 6.2 5.1 5.85 4.8 5.7 4.15 Q5.7 3.55 5.1 3.1 4.45 2.65 3.6 2.65 L3.6 2.4 4.1 0.65 3.85 -0.7 3.85 -1.15 3.75 -2.4 3.3 -3.6 3.2 -3.8 2.55 -4.75 2.5 -4.8 2.5 -4.9 2.55 -5.4 2.55 -6.25 2.5 -6.3 1.3 -6.1 1.45 -6.25 1.8 -7.15 1.6 -7.95 M-0.65 -6.9 L-0.65 -6.6 -0.55 -6.35 -0.8 -6.45 -1.05 -6.55 -0.65 -6.9" fill="#3f81e5" fill-rule="evenodd" stroke="none"/>
    </g>
    <g id="sprite7" transform="matrix(1.0, 0.0, 0.0, 1.0, 9.05, 10.3)">
      <use ffdec:characterId="1241" height="19.4" transform="matrix(1.0, 0.0, 0.0, 1.0, -9.05, -10.3)" width="16.65" xlink:href="#shape6"/>
    </g>
    <g id="shape6" transform="matrix(1.0, 0.0, 0.0, 1.0, 9.05, 10.3)">
      <path d="M4.05 -8.0 L3.45 -8.75 4.95 -10.15 7.0 -10.3 7.45 -9.8 7.6 -9.0 7.15 -8.5 5.95 -9.05 4.95 -8.35 4.4 -7.95 4.05 -8.0 M7.1 -7.6 L7.1 -7.3 5.9 -2.5 5.55 -1.8 4.95 -0.55 4.85 -0.3 4.6 -0.3 4.6 -0.35 4.75 -0.8 5.4 -2.5 6.2 -5.05 5.4 -6.45 5.15 -7.0 5.15 -7.7 6.35 -8.15 7.1 -7.6 M4.75 2.85 L4.45 3.15 3.35 4.4 2.9 3.95 2.95 3.25 1.5 2.45 1.45 2.35 1.4 2.25 1.45 1.45 1.75 1.15 3.75 1.05 4.0 1.55 3.6 2.0 4.75 2.85 M3.1 4.85 L3.7 5.75 3.6 7.6 1.8 8.9 1.75 9.05 0.6 9.1 -0.1 8.55 -0.35 8.45 -1.85 7.65 Q-2.1 7.7 -2.3 7.85 -4.75 8.0 -5.1 5.55 L-5.65 4.6 -6.45 4.15 -8.05 3.0 -8.1 2.95 -9.05 1.65 -7.75 -0.8 -7.85 -1.9 -4.8 -3.05 -4.75 -3.05 -2.5 -2.2 -4.75 -1.1 -5.0 -0.35 -5.6 -0.05 -5.6 1.15 -6.6 2.05 -7.35 2.0 -6.8 2.85 -4.95 3.8 -4.25 5.15 -4.2 5.3 -3.9 6.0 -1.6 7.05 -1.45 7.15 -1.65 7.55 -1.05 7.9 1.9 7.7 2.05 7.2 2.85 6.75 2.55 6.4 0.6 6.1 0.3 5.8 0.25 5.25 0.7 4.95 2.35 5.25 3.1 4.85 M-3.05 -3.65 L-2.85 -4.2 -2.45 -4.75 -1.45 -4.95 0.1 -4.5 0.0 -3.95 -0.75 -3.6 0.25 -3.35 1.2 -3.7 2.6 -4.2 3.05 -4.35 3.75 -4.5 4.55 -4.5 5.0 -3.7 3.75 -3.5 1.2 -2.95 Q-0.5 -2.25 -2.2 -3.2 L-3.05 -3.65 M0.25 -5.75 L1.65 -7.15 2.8 -6.75 2.6 -5.8 2.2 -5.65 0.25 -5.75 M0.95 -0.5 L1.15 -0.2 0.95 0.45 Q0.85 0.2 0.55 0.2 L0.0 0.1 0.3 -0.4 0.6 -0.75 0.95 -0.5 M-4.35 1.95 L-3.9 1.2 -3.8 1.3 -2.45 -0.1 -1.95 -0.4 -0.45 -1.05 -0.4 -1.05 -0.35 -1.0 -0.25 -0.15 -0.45 0.0 -0.55 -0.05 Q-1.3 -0.15 -1.35 0.45 L-2.25 0.9 -2.3 0.9 -3.8 1.45 -3.7 2.15 -3.5 2.25 -2.35 2.25 -2.9 3.0 -4.25 2.95 -4.35 1.95 M-3.35 5.3 L-4.25 4.3 -4.0 3.85 -2.8 3.55 -2.85 4.25 -2.25 5.15 -2.45 5.45 -3.35 5.3" fill="#ff0000" fill-rule="evenodd" stroke="none"/>
      <path d="M7.15 -8.5 L7.1 -7.6 6.35 -8.15 5.15 -7.7 5.15 -7.0 2.8 -6.75 1.65 -7.15 -0.1 -8.75 3.05 -7.9 3.65 -7.75 4.4 -7.95 5.25 -8.45 5.95 -9.05 7.15 -8.5 M4.5 -0.3 L4.5 -0.25 3.75 0.55 2.65 0.4 2.3 -0.1 1.15 -0.2 0.95 -0.5 1.45 -1.2 2.55 -0.95 2.95 -1.2 4.25 -1.2 4.5 -0.3 M-4.8 -3.05 L-6.7 -3.9 -4.75 -3.8 -3.05 -3.65 -2.2 -3.2 Q-0.5 -2.25 1.2 -2.95 L3.75 -3.5 5.0 -3.7 4.55 -4.5 3.75 -4.65 3.05 -4.5 0.1 -4.5 -1.45 -4.95 -4.2 -7.2 0.25 -5.75 2.2 -5.65 3.05 -5.7 3.75 -5.75 5.0 -5.85 5.4 -6.45 6.2 -5.05 5.4 -2.5 4.75 -0.8 4.7 -0.8 Q4.35 -0.8 3.9 -2.5 L3.75 -2.8 2.2 -2.35 1.2 -2.2 -1.25 -1.95 -2.5 -2.2 -4.75 -3.05 -4.8 -3.05 M-1.65 5.65 L-1.75 6.7 -4.2 5.3 -4.25 5.15 -3.35 5.3 -2.45 5.45 -1.65 5.65 M-0.15 6.75 L0.6 6.1 2.55 6.4 2.85 6.75 2.05 7.2 -0.15 6.75 M0.6 3.35 L1.4 2.4 1.5 2.45 2.95 3.25 2.9 3.95 0.6 3.35" fill="#ffffff" fill-rule="evenodd" stroke="none"/>
      <path d="M5.55 -1.8 L5.35 -1.15 4.95 -0.55 5.55 -1.8 M4.6 -0.35 L4.5 -0.3 4.25 -1.2 2.95 -1.2 2.55 -0.95 1.45 -1.2 0.95 -0.5 0.6 -0.75 -0.35 -1.0 -0.4 -1.05 -0.45 -1.05 -4.5 -0.8 -4.6 0.6 -3.9 1.2 -4.35 1.95 -5.6 1.75 -6.0 2.75 -6.8 2.85 -7.35 2.0 -6.6 2.05 -5.6 1.15 -5.6 -0.05 -5.0 -0.35 -4.75 -1.1 -2.5 -2.2 -1.25 -1.95 1.2 -2.2 2.2 -2.35 3.75 -2.8 3.9 -2.5 Q4.35 -0.8 4.7 -0.8 L4.75 -0.8 4.6 -0.35 M4.75 1.7 L4.75 2.85 3.6 2.0 4.0 1.55 4.75 1.7 M3.35 4.4 L3.1 4.85 2.35 5.25 0.7 4.95 0.6 3.35 2.9 3.95 3.35 4.4 M3.65 -7.75 L4.05 -8.0 4.4 -7.95 4.95 -8.35 5.25 -8.45 4.4 -7.95 3.65 -7.75 M5.15 -7.0 L5.4 -6.45 5.0 -5.85 3.75 -5.75 3.05 -5.7 2.2 -5.65 2.6 -5.8 2.8 -6.75 5.15 -7.0 M4.55 -4.5 L3.75 -4.5 3.05 -4.35 2.6 -4.2 1.2 -3.7 0.25 -3.35 -0.75 -3.6 0.0 -3.95 0.1 -4.5 3.05 -4.5 3.75 -4.65 4.55 -4.5 M1.15 -0.2 L1.45 0.05 1.75 1.15 1.45 1.45 1.4 2.25 -0.25 2.35 -0.65 2.25 -1.15 1.85 -1.2 1.8 -1.25 1.75 -1.75 2.0 -1.85 2.05 -1.7 2.35 -1.75 2.85 -2.2 3.35 -2.6 3.4 -1.95 4.4 -1.65 5.5 -1.65 5.65 -2.45 5.45 -2.25 5.15 -2.85 4.25 -2.8 3.55 -4.0 3.85 -4.25 4.3 -3.35 5.3 -4.25 5.15 -4.95 3.8 -4.3 3.0 -4.25 2.95 -2.9 3.0 -2.35 2.25 -3.5 2.25 -3.7 2.15 -3.8 1.45 -2.3 0.9 -2.25 0.9 -1.35 0.45 Q-1.3 -0.15 -0.55 -0.05 L-0.45 0.0 -0.25 -0.15 -0.2 0.05 0.0 0.1 0.55 0.2 Q0.85 0.2 0.95 0.45 L1.15 -0.2 M-1.75 6.7 L-1.6 7.05 -3.9 6.0 -4.2 5.3 -1.75 6.7 M-1.45 7.15 L-0.15 6.75 2.05 7.2 1.9 7.7 -1.05 7.9 -1.65 7.55 -1.45 7.15" fill="#990000" fill-rule="evenodd" stroke="none"/>
      <path d="M1.4 2.4 L1.45 2.35 1.5 2.45 1.4 2.4" fill="#feb445" fill-rule="evenodd" stroke="none"/>
      <path d="M-0.65 2.25 L-1.3 2.85 -1.15 1.85 -0.65 2.25" fill="#3f81e5" fill-rule="evenodd" stroke="none"/>
      <path d="M4.5 -0.25 L4.5 -0.1 5.15 0.5 5.2 1.35 4.75 1.7 4.0 1.55 3.75 1.05 1.75 1.15 1.45 0.05 1.15 -0.2 2.3 -0.1 2.65 0.4 3.75 0.55 4.5 -0.25 M0.6 -0.75 L0.3 -0.4 0.0 0.1 -0.2 0.05 -0.25 -0.15 -0.35 -1.0 0.6 -0.75 M1.4 2.25 L1.45 2.35 1.4 2.4 0.6 3.35 0.7 4.95 0.25 5.25 0.3 5.8 0.6 6.1 -0.15 6.75 -1.45 7.15 -1.6 7.05 -1.75 6.7 -1.65 5.65 -1.65 5.5 -1.95 4.4 -2.6 3.4 -2.2 3.35 -1.75 2.85 -1.7 2.35 -1.85 2.05 -1.75 2.0 -1.3 2.85 -0.65 2.25 -0.25 2.35 1.4 2.25 M-6.8 2.85 L-6.0 2.75 -5.6 1.75 -4.35 1.95 -4.25 2.95 -4.3 3.0 -4.95 3.8 -6.8 2.85 M-3.9 1.2 L-4.6 0.6 -4.5 -0.8 -0.45 -1.05 -1.95 -0.4 -2.45 -0.1 -3.8 1.3 -3.9 1.2" fill="#582c5b" fill-rule="evenodd" stroke="none"/>
      <path d="M-1.3 2.85 L-1.75 2.0 -1.25 1.75 -1.2 1.8 -1.15 1.85 -1.3 2.85" fill="#2d6ed0" fill-rule="evenodd" stroke="none"/>
    </g>
    <g id="sprite8" transform="matrix(1.0, 0.0, 0.0, 1.0, 6.75, 8.7)">
      <use ffdec:characterId="1243" height="19.45" transform="matrix(1.0, 0.0, 0.0, 1.0, -6.75, -8.7)" width="15.9" xlink:href="#shape7"/>
    </g>
    <g id="shape7" transform="matrix(1.0, 0.0, 0.0, 1.0, 6.75, 8.7)">
      <path d="M2.2 -7.05 L1.95 -6.35 2.05 -5.95 0.65 -5.85 0.25 -4.8 2.15 -4.8 1.85 -4.35 2.3 -3.55 3.95 -4.5 3.9 -5.0 4.45 -5.4 4.45 -4.9 5.45 -4.4 4.6 -3.95 Q4.55 -3.05 5.1 -2.4 L6.1 -1.65 6.65 -2.05 5.6 0.55 4.9 0.75 2.7 -0.5 5.55 -0.65 1.2 -2.0 1.05 -2.1 0.5 -2.55 -1.1 -4.4 -3.35 -4.8 -5.35 -3.3 -5.9 -3.6 -4.55 -4.75 -2.55 -5.5 -1.25 -5.85 -1.55 -7.1 -1.25 -7.55 Q-0.65 -8.45 0.35 -8.7 L-0.8 -7.85 0.45 -6.55 1.0 -6.55 1.45 -6.55 2.2 -7.05 M-0.8 -0.25 L0.9 -0.25 0.95 0.55 1.45 0.85 2.1 3.45 0.4 4.1 -1.0 5.45 -1.35 5.95 -1.65 6.9 -1.45 7.6 -1.75 7.0 Q-3.15 6.25 -4.15 5.25 L-4.15 3.4 -5.4 3.4 -6.35 0.75 -6.45 0.2 -6.25 -0.45 -4.05 1.85 -3.05 1.9 -2.75 2.55 -2.45 2.6 Q-4.0 3.3 -4.0 4.0 L-3.9 4.55 -3.25 4.65 -3.2 4.65 Q-3.15 5.05 -2.7 5.45 L-1.35 5.4 -1.05 4.9 Q-0.55 4.25 -0.65 3.7 L-0.3 3.6 Q0.05 3.4 0.05 2.85 L-0.1 2.3 0.6 1.9 Q-0.45 1.85 -0.75 1.05 L-0.8 0.75 -0.8 0.65 -0.8 -0.25 M0.65 6.3 L1.4 5.9 Q1.2 7.4 0.15 8.2 L-0.45 8.65 -0.95 8.35 -0.1 7.55 0.65 6.3 M2.65 7.35 L2.3 6.95 2.65 5.65 2.05 4.25 2.7 3.55 3.55 3.6 3.65 2.9 4.0 3.1 4.3 3.1 4.4 3.1 4.45 3.1 4.6 2.8 8.75 2.9 9.15 2.8 8.4 3.7 4.85 4.25 4.85 5.25 4.45 5.45 3.35 6.4 2.65 7.35 M-5.05 -1.8 L-4.8 -2.9 -4.6 -1.7 -2.1 -1.8 -1.6 -2.35 Q-1.35 -1.05 -2.3 -0.25 -2.5 -0.1 -2.75 0.0 -3.7 0.0 -4.4 -0.55 -5.05 -1.1 -5.05 -1.8" fill="#990000" fill-rule="evenodd" stroke="none"/>
      <path d="M2.2 -7.05 L1.45 -6.55 1.0 -6.55 0.45 -6.55 -0.8 -7.85 0.35 -8.7 2.05 -8.55 2.35 -7.4 2.2 -7.05 M-1.55 -7.1 L-1.25 -5.85 -2.55 -5.5 -4.55 -4.75 -2.3 -7.25 -1.55 -7.1 M1.2 -2.0 L5.55 -0.65 2.7 -0.5 4.9 0.75 5.6 0.55 7.3 1.65 8.75 2.9 4.45 1.5 3.1 1.25 4.6 2.8 4.45 3.1 4.4 3.1 4.3 3.1 4.0 3.1 3.65 2.9 3.55 3.6 2.7 3.55 2.05 4.25 2.65 5.65 2.3 6.95 2.65 7.35 2.6 7.8 2.2 8.35 Q1.1 8.35 0.35 8.8 -0.45 9.3 -0.45 9.9 L-0.9 9.25 -0.45 8.65 0.15 8.2 Q1.2 7.4 1.4 5.9 L0.65 6.3 0.0 5.85 -1.65 6.9 -1.35 5.95 -1.0 5.45 0.4 4.1 2.1 3.45 1.45 0.85 0.95 0.55 0.9 -0.25 -0.8 -0.25 Q-0.8 -0.95 -0.2 -1.45 0.3 -2.0 1.05 -2.0 L1.2 -2.0 M6.65 -2.05 L6.1 -1.65 5.1 -2.4 Q4.55 -3.05 4.6 -3.95 L5.45 -4.4 4.45 -4.9 4.45 -5.4 5.3 -5.4 Q8.05 -5.05 6.85 -2.4 L6.65 -2.05 M3.9 -5.0 L3.95 -4.5 2.3 -3.55 1.85 -4.35 2.15 -4.8 0.25 -4.8 0.65 -5.85 2.05 -5.95 3.35 -5.65 Q3.9 -5.4 3.9 -5.0 M-4.8 -2.9 Q-4.8 -3.4 -4.35 -3.75 L-3.3 -4.1 -1.7 -3.4 -1.6 -2.35 -2.1 -1.8 -4.6 -1.7 -4.8 -2.9 M-2.45 2.6 L-1.95 2.4 -0.1 2.3 0.05 2.85 Q0.05 3.4 -0.3 3.6 L-0.65 3.7 -1.6 3.8 -2.3 4.25 -3.2 4.65 -3.25 4.65 -3.9 4.55 -4.0 4.0 Q-4.0 3.3 -2.45 2.6" fill="#ff0000" fill-rule="evenodd" stroke="none"/>
      <path d="M-1.65 6.9 L0.0 5.85 0.65 6.3 -0.1 7.55 -0.95 8.35 -1.1 8.35 -1.45 7.6 -1.65 6.9 M-0.45 9.9 Q-0.45 9.3 0.35 8.8 1.1 8.35 2.2 8.35 L2.3 9.05 Q2.3 9.9 1.9 10.25 1.4 10.75 0.05 10.75 L-0.5 10.6 -0.6 10.15 -0.45 9.9 M4.6 2.8 L3.1 1.25 4.45 1.5 8.75 2.9 4.6 2.8 M-0.65 3.7 Q-0.55 4.25 -1.05 4.9 L-1.35 5.4 -2.7 5.45 Q-3.15 5.05 -3.2 4.65 L-2.3 4.25 -1.6 3.8 -0.65 3.7" fill="#ffffff" fill-rule="evenodd" stroke="none"/>
      <path d="M1.05 -2.1 L1.2 -2.0 1.05 -2.0 1.05 -2.1" fill="#ca5821" fill-rule="evenodd" stroke="none"/>
      <path d="M-1.1 -4.4 L0.5 -2.55 Q-0.35 -3.05 -0.85 -3.9 L-1.1 -4.4 M-6.15 -1.5 L-5.05 -1.8 Q-5.05 -1.1 -4.4 -0.55 -3.7 0.0 -2.75 0.0 L-1.7 0.75 -1.65 0.8 -0.8 0.65 -0.8 0.75 -0.75 1.05 Q-0.45 1.85 0.6 1.9 L-0.1 2.3 -1.95 2.4 -2.45 2.6 -2.75 2.55 -3.05 1.9 -4.05 1.85 -6.25 -0.45 -6.65 -1.2 -6.15 -1.5" fill="#582c5b" fill-rule="evenodd" stroke="none"/>
      <path d="M-5.9 -3.6 L-5.35 -3.3 -3.35 -4.8 -3.3 -4.1 -4.35 -3.75 Q-4.8 -3.4 -4.8 -2.9 L-5.05 -1.8 -6.15 -1.5 -6.15 -2.25 -6.75 -2.8 -5.9 -3.6" fill="#3f81e5" fill-rule="evenodd" stroke="none"/>
      <path d="M-3.35 -4.8 L-1.1 -4.4 -0.85 -3.9 Q-0.35 -3.05 0.5 -2.55 L1.05 -2.1 1.05 -2.0 Q0.3 -2.0 -0.2 -1.45 -0.8 -0.95 -0.8 -0.25 L-0.8 0.65 -1.65 0.8 -1.7 0.75 -2.75 0.0 Q-2.5 -0.1 -2.3 -0.25 -1.35 -1.05 -1.6 -2.35 L-1.7 -3.4 -3.3 -4.1 -3.35 -4.8" fill="#2d6ed0" fill-rule="evenodd" stroke="none"/>
    </g>
    <g id="sprite9" transform="matrix(1.0, 0.0, 0.0, 1.0, 8.1, 12.9)">
      <use ffdec:characterId="1245" height="22.75" transform="matrix(1.0, 0.0, 0.0, 1.0, -8.1, -12.9)" width="16.15" xlink:href="#shape8"/>
    </g>
    <g id="shape8" transform="matrix(1.0, 0.0, 0.0, 1.0, 8.1, 12.9)">
      <path d="M-4.05 8.4 L-2.45 8.1 -0.25 8.5 0.2 8.65 -0.1 8.05 0.35 7.0 0.45 6.7 0.75 6.6 0.9 5.5 0.95 5.05 1.0 5.05 0.95 5.0 0.8 4.75 1.0 4.5 1.0 4.45 1.7 3.85 1.75 3.85 1.8 3.8 1.8 3.85 1.85 4.75 2.95 5.15 2.4 6.05 1.85 6.2 3.75 6.3 3.6 6.75 1.7 8.4 Q-0.6 10.85 -3.3 8.95 L-4.05 8.4 M-2.4 6.8 Q-2.95 6.1 -3.0 5.25 L-3.0 4.7 -2.8 5.15 Q-2.1 6.15 -0.65 5.65 L-0.4 5.3 Q-0.3 6.6 -1.55 6.8 L-2.3 6.9 -2.4 6.8 M-2.65 -5.75 L-2.65 -6.25 -2.25 -5.7 -1.55 -5.5 -1.0 -5.7 -0.4 -6.4 -0.4 -6.7 -0.4 -7.0 -0.1 -6.5 0.2 -6.9 0.4 -7.1 0.4 -7.15 Q1.0 -7.65 1.95 -7.9 L1.85 -7.25 2.95 -6.7 3.1 -6.0 3.5 -5.95 3.75 -6.5 3.95 -7.85 3.6 -8.1 3.75 -8.25 4.4 -8.7 4.65 -8.85 5.85 -8.9 6.0 -8.75 Q4.8 -8.65 4.5 -7.5 L4.4 -6.95 Q4.9 -5.65 6.15 -5.3 L6.65 -5.45 Q6.4 -3.9 5.3 -3.9 L4.65 -4.0 4.6 -4.35 Q3.35 -5.2 2.25 -4.35 L1.5 -2.25 2.25 -1.75 2.5 -1.25 3.2 -0.9 3.8 -1.3 3.7 0.3 3.4 0.5 4.0 3.1 3.1 2.95 2.4 3.4 1.85 3.15 1.0 3.75 0.65 3.8 Q0.0 3.8 -0.85 2.25 L-0.6 1.7 -0.7 1.05 Q-0.9 0.15 -1.8 -0.35 L-1.55 -0.95 -1.6 -1.15 -1.75 -1.9 -1.8 -2.8 -1.35 -4.3 -1.4 -4.3 -2.0 -4.45 -2.65 -5.75 M4.5 -3.7 L4.5 -3.6 Q4.5 -3.2 4.15 -2.95 L3.9 -1.5 3.75 -2.35 2.9 -2.95 Q2.55 -3.3 2.6 -3.55 L3.65 -3.5 4.5 -3.7 M0.2 -5.2 L-0.45 -5.0 -1.2 -1.25 0.1 0.45 -0.1 1.5 0.3 2.25 1.75 2.15 2.4 1.5 0.75 0.6 0.65 -0.8 0.35 -1.05 0.35 -1.65 -0.3 -2.4 0.7 -4.85 0.2 -5.2 M0.7 -5.75 Q0.8 -5.6 1.15 -5.6 L1.2 -5.6 1.95 -6.6 Q0.65 -6.6 0.65 -6.05 L0.7 -5.75" fill="#990000" fill-rule="evenodd" stroke="none"/>
      <path d="M-3.0 4.7 L-3.05 4.35 -2.7 3.9 -1.95 3.35 -0.75 3.2 Q-0.05 3.8 -0.2 4.75 L-0.4 5.3 -0.65 5.65 Q-2.1 6.15 -2.8 5.15 L-3.0 4.7 M-2.65 -6.25 L-2.55 -6.7 -1.85 -7.1 -1.7 -7.2 -0.5 -7.1 -0.4 -7.0 -0.4 -6.7 -0.4 -6.4 -1.0 -5.7 -1.55 -5.5 -2.25 -5.7 -2.65 -6.25 M6.0 -8.75 L6.4 -8.15 Q7.1 -6.85 6.65 -5.45 L6.15 -5.3 Q4.9 -5.65 4.4 -6.95 L4.5 -7.5 Q4.8 -8.65 6.0 -8.75 M4.65 -4.0 L4.5 -3.7 3.65 -3.5 2.6 -3.55 Q2.55 -3.3 2.9 -2.95 L3.75 -2.35 3.9 -1.5 3.8 -1.3 3.2 -0.9 2.5 -1.25 2.25 -1.75 1.5 -2.25 2.25 -4.35 Q3.35 -5.2 4.6 -4.35 L4.65 -4.0 M4.0 3.1 L3.75 3.6 4.0 4.35 Q4.4 5.35 3.75 6.3 L1.85 6.2 2.4 6.05 2.95 5.15 1.85 4.75 1.8 3.85 2.4 3.4 3.1 2.95 4.0 3.1 M3.6 -8.1 L3.95 -7.85 3.75 -6.5 3.5 -5.95 3.1 -6.0 2.95 -6.7 1.85 -7.25 1.95 -7.9 3.6 -8.1 M0.7 -5.75 L0.65 -6.05 Q0.65 -6.6 1.95 -6.6 L1.2 -5.6 1.15 -5.6 Q0.8 -5.6 0.7 -5.75 M0.2 -5.2 L0.7 -4.85 -0.3 -2.4 0.35 -1.65 0.35 -1.05 0.65 -0.8 0.75 0.6 2.4 1.5 1.75 2.15 0.3 2.25 -0.1 1.5 0.1 0.45 -1.2 -1.25 -0.45 -5.0 0.2 -5.2 M-0.85 2.25 L-1.95 1.3 -2.4 0.95 -2.65 0.6 -2.65 -0.4 -2.4 -0.6 -2.1 -0.55 -2.05 -0.5 -1.8 -0.35 Q-0.9 0.15 -0.7 1.05 L-0.6 1.7 -0.85 2.25" fill="#ff0000" fill-rule="evenodd" stroke="none"/>
      <path d="M-4.05 8.4 L-4.4 9.05 -6.1 9.85 -6.4 9.5 -8.1 9.25 -6.95 8.4 -6.2 7.25 -7.35 6.4 -5.25 3.4 -5.3 2.4 -5.25 1.25 -5.05 0.15 -4.8 -1.05 -4.4 -2.7 -3.95 -4.3 -3.7 -5.1 -3.3 -5.95 Q-2.65 -7.4 -1.4 -8.55 L-0.15 -9.55 0.9 -10.15 1.0 -10.25 1.1 -10.3 2.4 -12.9 3.4 -10.95 3.45 -10.95 4.2 -11.0 4.3 -11.0 4.4 -11.0 5.2 -11.0 5.6 -10.95 6.1 -10.85 5.85 -10.3 5.55 -10.1 8.05 -10.0 8.05 -9.9 5.85 -8.9 4.65 -8.85 4.7 -9.15 5.25 -9.45 4.8 -9.6 3.6 -9.75 2.45 -9.65 1.35 -9.35 0.25 -8.9 -0.3 -8.65 -1.35 -8.0 -1.85 -7.1 -2.55 -6.7 -2.65 -6.25 -2.65 -5.75 -3.15 -4.45 -3.25 -3.95 -3.3 -2.7 -3.2 -1.8 -2.95 -1.15 -4.05 1.8 -2.65 2.25 -2.4 2.4 -2.5 3.0 -2.7 3.9 -3.05 4.35 -3.0 4.7 -3.0 5.25 Q-2.95 6.1 -2.4 6.8 L-2.45 8.1 -4.05 8.4" fill="#3f81e5" fill-rule="evenodd" stroke="none"/>
      <path d="M-2.45 8.1 L-2.4 6.8 -2.3 6.9 -1.9 7.35 -1.15 7.5 0.1 6.8 0.2 6.15 0.1 5.3 0.95 5.05 0.9 5.5 0.7 5.8 0.4 6.25 0.35 6.8 0.35 7.0 -0.1 8.05 -0.25 8.5 -2.45 8.1 M-2.7 3.9 L-2.5 3.0 -2.4 2.4 -2.1 2.7 -1.95 3.35 -2.7 3.9 M-1.85 -7.1 L-1.35 -8.0 -0.3 -8.65 0.25 -8.9 1.35 -9.35 2.45 -9.65 3.6 -9.75 4.8 -9.6 5.25 -9.45 4.7 -9.15 4.65 -8.85 4.4 -8.7 3.75 -8.85 3.2 -8.9 0.2 -8.7 -0.15 -8.55 -1.7 -7.2 -1.85 -7.1" fill="#2d6ed0" fill-rule="evenodd" stroke="none"/>
      <path d="M-2.4 2.4 L-2.65 2.25 -4.05 1.8 -2.95 -1.15 -3.2 -1.8 -3.3 -2.7 -3.25 -3.95 -3.15 -4.45 -2.65 -5.75 -2.0 -4.45 -1.4 -4.3 -1.35 -4.3 -1.8 -2.8 -1.75 -1.9 -1.6 -1.15 -1.55 -0.95 -1.8 -0.35 -2.05 -0.5 -2.1 -0.55 -2.4 -0.6 -2.65 -0.4 -2.65 0.6 -2.4 0.95 -1.95 1.3 -0.85 2.25 Q0.0 3.8 0.65 3.8 L1.0 3.75 1.85 3.15 2.4 3.4 1.8 3.85 1.8 3.8 1.75 3.85 1.7 3.85 1.0 4.45 1.0 4.5 0.8 4.75 0.95 5.0 0.95 5.05 0.1 5.3 0.2 6.15 0.1 6.8 -1.15 7.5 -1.9 7.35 -2.3 6.9 -1.55 6.8 Q-0.3 6.6 -0.4 5.3 L-0.2 4.75 Q-0.05 3.8 -0.75 3.2 L-1.95 3.35 -2.1 2.7 -2.4 2.4 M1.95 -7.9 Q1.0 -7.65 0.4 -7.15 L0.4 -7.1 0.2 -6.9 -0.1 -6.5 -0.4 -7.0 -0.5 -7.1 -1.7 -7.2 -0.15 -8.55 0.2 -8.7 3.2 -8.9 3.75 -8.85 4.4 -8.7 3.75 -8.25 3.6 -8.1 1.95 -7.9 M0.9 5.5 L0.75 6.6 0.45 6.7 0.35 7.0 0.35 6.8 0.4 6.25 0.7 5.8 0.9 5.5 M-0.1 8.05 L0.2 8.65 -0.25 8.5 -0.1 8.05" fill="#582c5b" fill-rule="evenodd" stroke="none"/>
    </g>
  </defs>
</svg>
