<?xml version="1.0" encoding="UTF-8" standalone="no"?>
<svg xmlns:ffdec="https://www.free-decompiler.com/flash" xmlns:xlink="http://www.w3.org/1999/xlink" ffdec:objectType="frame" height="13.9px" width="25.4px" xmlns="http://www.w3.org/2000/svg">
  <g transform="matrix(1.0, 0.0, 0.0, 1.0, 12.7, 6.95)">
    <use ffdec:characterId="547" height="13.9" transform="matrix(1.0, 0.0, 0.0, 1.0, -12.7, -6.95)" width="25.4" xlink:href="#shape0"/>
  </g>
  <defs>
    <g id="shape0" transform="matrix(1.0, 0.0, 0.0, 1.0, 12.7, 6.95)">
      <path d="M-2.45 -5.8 L0.1 -6.95 1.85 -5.7 3.35 -5.3 3.6 -4.6 4.8 -3.3 5.85 -3.85 7.8 -1.95 9.3 -2.55 9.85 -0.55 11.4 -0.25 9.85 0.5 8.85 -1.35 -0.3 -2.55 -11.7 1.4 -12.4 0.15 -10.7 -0.05 -10.4 -0.8 -9.0 -0.65 -6.15 -3.6 -4.45 -3.85 -3.3 -5.45 -2.55 -5.8 -3.4 -4.1 -3.4 -3.85 -3.2 -3.85 Q-2.55 -3.75 -2.4 -4.8 -2.3 -5.85 -2.45 -5.8 M12.55 -0.05 L12.6 -0.05 12.5 0.0 12.55 -0.05 M-10.1 4.2 L-12.7 2.95 -11.85 1.9 -11.55 2.25 -10.85 2.6 -9.8 3.15 -10.1 4.2 M2.0 -4.1 L2.1 -4.4 2.25 -4.2 2.0 -4.1 M2.3 -4.9 Q1.75 -5.1 1.6 -4.1 1.65 -3.65 2.1 -3.6 2.65 -3.5 2.7 -4.15 2.8 -4.55 2.3 -4.9 M0.0 -4.55 L0.2 -5.1 0.0 -5.85 -0.45 -5.25 -0.75 -4.4 -0.75 -4.25 -0.5 -4.2 Q-0.25 -4.2 0.0 -4.55" fill="#b11612" fill-rule="evenodd" stroke="none"/>
      <path d="M-2.55 -5.8 L-2.45 -5.8 Q-2.3 -5.85 -2.4 -4.8 -2.55 -3.75 -3.2 -3.85 L-3.4 -3.85 -3.4 -4.1 -2.55 -5.8 M0.0 -4.55 Q-0.25 -4.2 -0.5 -4.2 L-0.75 -4.25 -0.75 -4.4 -0.45 -5.25 0.0 -5.85 0.2 -5.1 0.0 -4.55 M2.3 -4.9 Q2.8 -4.55 2.7 -4.15 2.65 -3.5 2.1 -3.6 1.65 -3.65 1.6 -4.1 1.75 -5.1 2.3 -4.9 M2.0 -4.1 L2.25 -4.2 2.1 -4.4 2.0 -4.1" fill="#330605" fill-rule="evenodd" stroke="none"/>
      <path d="M9.8 2.6 Q7.1 4.75 3.15 5.85 L2.2 6.05 -0.55 6.6 -4.1 6.95 -4.65 6.85 -5.7 6.35 0.1 5.85 2.05 5.45 2.65 5.3 Q8.25 3.9 11.5 0.35 L11.65 0.25 12.3 -0.05 12.25 0.1 9.8 2.6 M8.05 -0.75 L6.35 -0.25 6.2 0.1 5.75 0.25 5.7 0.1 5.25 -0.1 5.2 -0.35 4.5 -0.4 3.2 -0.45 2.95 -0.1 0.85 -1.05 0.7 -0.3 -0.4 -0.75 -0.75 -0.4 -2.35 -0.15 -3.15 0.6 -4.15 -0.3 -4.5 0.35 -5.25 0.0 -5.2 -0.1 -0.15 -1.55 8.05 -0.75 M-10.85 2.6 L-8.3 2.8 -7.45 3.35 -5.45 2.15 -4.7 2.8 -2.85 2.2 -2.2 2.45 -2.1 2.6 -2.1 2.9 -1.2 3.05 -1.15 3.0 -0.9 1.85 0.25 2.15 2.95 2.15 3.6 1.9 4.4 2.6 8.75 -0.15 9.55 1.05 7.8 2.15 7.05 3.25 -0.65 4.9 Q-0.6 5.65 -1.0 4.65 L-2.05 4.95 -4.15 4.4 -5.0 5.55 -6.0 4.65 -9.05 4.15 -8.85 3.6 -9.8 3.15 -10.85 2.6" fill="#3c5619" fill-rule="evenodd" stroke="none"/>
      <path d="M12.6 -0.15 L12.55 -0.05 12.5 0.0 9.8 2.6 12.25 0.1 12.3 -0.05 12.6 -0.15 M-5.25 0.0 L-4.5 0.35 -4.15 -0.3 -3.15 0.6 -2.35 -0.15 -0.75 -0.4 -0.4 -0.75 0.7 -0.3 0.85 -1.05 2.95 -0.1 3.2 -0.45 4.5 -0.4 5.2 -0.35 5.25 -0.1 5.7 0.1 5.75 0.25 6.2 0.1 6.35 -0.25 8.05 -0.75 8.35 -0.7 8.75 -0.15 4.4 2.6 3.6 1.9 2.95 2.15 0.25 2.15 -0.9 1.85 -1.15 3.0 -1.2 3.05 -2.1 2.9 -2.1 2.6 -2.2 2.45 -2.85 2.2 -4.7 2.8 -5.45 2.15 -7.45 3.35 -8.3 2.8 -10.85 2.6 -11.55 2.25 -8.5 1.15 -8.15 1.0 -5.35 -0.05 -5.25 0.0" fill="#6b7e00" fill-rule="evenodd" stroke="none"/>
      <path d="M11.4 -0.25 L12.7 -0.9 12.6 -0.15 12.3 -0.05 11.65 0.25 9.55 1.05 8.75 -0.15 8.35 -0.7 8.05 -0.75 -0.15 -1.55 -5.2 -0.1 -5.25 0.0 -5.35 -0.05 -8.15 1.0 -8.5 1.15 -11.55 2.25 -11.85 1.9 -12.15 1.55 -11.7 1.4 -0.3 -2.55 8.85 -1.35 9.85 0.5 11.4 -0.25 M-9.3 4.6 L-10.15 4.25 -10.1 4.2 -9.8 3.15 -8.85 3.6 -9.05 4.15 -9.3 4.6" fill="#d0d3a6" fill-rule="evenodd" stroke="none"/>
      <path d="M-5.7 6.35 L-9.3 4.6 -9.05 4.15 -6.0 4.65 -5.0 5.55 -4.15 4.4 -2.05 4.95 -1.0 4.65 Q-0.6 5.65 -0.65 4.9 L7.05 3.25 7.8 2.15 9.55 1.05 11.65 0.25 11.5 0.35 Q8.25 3.9 2.65 5.3 L2.05 5.45 0.1 5.85 -5.7 6.35" fill="#576600" fill-rule="evenodd" stroke="none"/>
    </g>
  </defs>
</svg>
