<?xml version="1.0" encoding="UTF-8" standalone="no"?>
<svg xmlns:ffdec="https://www.free-decompiler.com/flash" xmlns:xlink="http://www.w3.org/1999/xlink" ffdec:objectType="frame" height="67.05px" width="6.9px" xmlns="http://www.w3.org/2000/svg">
  <g transform="matrix(1.0, 0.0, 0.0, 1.0, 4.65, 29.85)">
    <use ffdec:characterId="3056" height="67.05" transform="matrix(1.0, 0.0, 0.0, 1.0, -4.65, -29.85)" width="6.9" xlink:href="#shape0"/>
  </g>
  <defs>
    <g id="shape0" transform="matrix(1.0, 0.0, 0.0, 1.0, 4.65, 29.85)">
      <path d="M2.25 -29.85 L2.25 19.15 2.25 19.65 2.2 33.6 2.1 36.5 Q1.9 37.25 0.95 37.2 L-2.05 37.2 Q-2.9 37.05 -2.85 36.5 L-2.85 36.2 -2.8 35.9 Q-2.7 34.85 -2.15 34.3 -1.8 33.9 -1.7 32.65 L-1.6 27.0 Q-1.55 25.2 -1.85 23.85 L-2.1 22.65 Q-2.2 22.0 -2.55 21.6 L-3.4 20.4 -3.2 19.8 -2.55 19.15 -4.65 -21.2 Q-4.45 -24.25 -2.25 -27.0 L-0.95 -28.35 0.15 -29.15 1.55 -29.75 2.25 -29.85 M0.7 35.8 L0.9 35.3 0.7 34.8 0.15 34.55 -0.35 34.8 -0.6 35.3 -0.35 35.8 0.15 36.05 0.7 35.8" fill="#66ff00" fill-rule="evenodd" stroke="none"/>
    </g>
  </defs>
</svg>
