<?xml version="1.0" encoding="UTF-8" standalone="no"?>
<svg xmlns:ffdec="https://www.free-decompiler.com/flash" xmlns:xlink="http://www.w3.org/1999/xlink" ffdec:objectType="frame" height="14.7px" width="17.8px" xmlns="http://www.w3.org/2000/svg">
  <g transform="matrix(1.0, 0.0, 0.0, 1.0, 8.9, 7.35)">
    <use ffdec:characterId="1398" height="14.7" transform="matrix(1.0, 0.0, 0.0, 1.0, -8.9, -7.35)" width="17.8" xlink:href="#shape0"/>
  </g>
  <defs>
    <g id="shape0" transform="matrix(1.0, 0.0, 0.0, 1.0, 8.9, 7.35)">
      <path d="M-0.6 -5.5 L-0.1 -4.6 0.25 -3.4 0.35 -3.1 -0.75 -2.75 2.9 -2.35 5.0 -2.55 8.45 -2.9 8.35 -2.65 7.95 -2.35 5.95 -1.5 4.85 -0.85 4.8 -0.85 4.8 -0.8 4.7 -0.75 4.05 -0.9 3.5 -0.25 4.3 0.15 4.75 -0.7 4.8 -0.65 Q4.95 0.8 6.55 0.9 L6.85 0.85 6.95 0.75 7.15 1.2 8.05 1.15 Q8.35 1.35 8.25 1.6 L7.9 2.1 6.6 2.45 6.25 2.3 6.2 2.25 Q3.25 -1.1 -1.1 -1.75 L-1.7 -1.85 -2.65 -4.2 Q-4.05 -3.35 -5.25 -1.85 L-5.85 -0.9 -5.1 -0.9 -4.5 1.3 -2.35 4.0 -1.85 4.25 -1.5 4.25 -1.45 4.4 -2.35 4.85 -5.15 4.0 -7.2 5.35 -7.75 5.2 -8.15 4.55 -8.45 2.9 -7.05 2.75 -6.7 3.25 -5.35 2.45 -5.7 2.1 -6.9 1.6 Q-7.75 1.55 -8.4 2.2 -9.15 0.05 -8.75 -1.8 -8.4 -3.7 -7.1 -5.05 L-5.75 -4.15 -6.75 -2.95 -6.75 -2.15 -7.5 -1.6 -7.5 -0.5 -6.95 -1.25 -5.5 -2.5 Q-3.85 -3.6 -2.65 -5.15 L-2.6 -5.6 -0.6 -5.5 M5.95 0.15 L5.9 0.15 5.9 0.1 5.95 0.15 M2.5 3.65 L2.4 4.35 2.8 5.0 Q3.35 5.65 4.2 5.65 5.55 5.65 5.55 4.85 L5.55 4.45 5.75 5.15 Q5.75 5.75 5.2 6.2 4.7 6.6 4.05 6.6 2.5 6.6 2.2 5.85 2.1 5.45 2.25 5.15 2.25 4.15 2.5 3.65 M-0.05 0.55 Q-0.5 0.7 -0.5 1.3 L-0.3 2.15 Q0.15 2.6 1.55 2.65 1.7 2.6 1.8 2.5 L1.9 1.45 1.9 1.35 2.15 2.5 Q2.15 3.85 0.95 3.85 -0.15 3.85 -0.6 2.6 L-0.85 1.4 Q-0.85 0.6 -0.05 0.55" fill="#990000" fill-rule="evenodd" stroke="none"/>
      <path d="M-1.45 4.4 L-1.5 4.25 -1.85 4.25 -2.35 4.0 -4.5 1.3 -5.1 -0.9 -5.85 -0.9 -5.25 -1.85 Q-4.05 -3.35 -2.65 -4.2 L-1.7 -1.85 -1.1 -1.75 Q3.25 -1.1 6.2 2.25 L6.25 2.3 6.25 2.4 6.3 2.4 6.3 2.45 6.75 2.65 6.8 2.65 7.3 2.75 7.5 2.75 8.25 2.95 8.5 2.95 8.0 3.55 7.75 3.85 8.0 4.4 8.3 5.6 8.05 6.2 Q8.0 7.05 6.9 7.2 L5.75 7.35 4.8 7.35 3.9 7.15 0.2 5.15 -1.45 4.4 M2.5 3.65 Q2.25 4.15 2.25 5.15 2.1 5.45 2.2 5.85 2.5 6.6 4.05 6.6 4.7 6.6 5.2 6.2 5.75 5.75 5.75 5.15 L5.55 4.45 Q5.3 3.4 4.0 3.1 2.8 2.8 2.5 3.65 M-0.05 0.55 Q-0.85 0.6 -0.85 1.4 L-0.6 2.6 Q-0.15 3.85 0.95 3.85 2.15 3.85 2.15 2.5 L1.9 1.35 Q1.8 0.6 0.7 0.45 L-0.05 0.55" fill="#ffcc99" fill-rule="evenodd" stroke="none"/>
      <path d="M-0.6 -5.5 L-2.6 -5.6 -2.65 -5.15 Q-3.85 -3.6 -5.5 -2.5 L-6.95 -1.25 -7.5 -0.5 -7.5 -1.6 -6.75 -2.15 -6.75 -2.95 -5.75 -4.15 -7.1 -5.05 -6.75 -6.45 Q-6.45 -6.85 -5.8 -6.9 L-3.55 -7.35 Q-2.4 -7.1 -1.35 -6.65 L-0.4 -5.8 Q-0.15 -5.45 -0.6 -5.5 M-8.4 2.2 Q-7.75 1.55 -6.9 1.6 L-5.7 2.1 -5.35 2.45 -6.7 3.25 -7.05 2.75 -8.45 2.9 -8.6 2.9 -8.65 2.85 -8.4 2.2 M8.45 -2.9 L5.0 -2.55 2.9 -2.35 -0.75 -2.75 0.35 -3.1 3.95 -4.2 Q6.9 -5.05 8.65 -3.6 L8.55 -2.9 8.45 -2.9 M5.55 4.45 L5.55 4.85 Q5.55 5.65 4.2 5.65 3.35 5.65 2.8 5.0 L2.4 4.35 2.5 3.65 Q2.8 2.8 4.0 3.1 5.3 3.4 5.55 4.45 M1.9 1.35 L1.9 1.45 1.8 2.5 Q1.7 2.6 1.55 2.65 0.15 2.6 -0.3 2.15 L-0.5 1.3 Q-0.5 0.7 -0.05 0.55 L0.7 0.45 Q1.8 0.6 1.9 1.35" fill="#ff0000" fill-rule="evenodd" stroke="none"/>
      <path d="M8.05 1.15 L7.15 1.2 6.95 0.75 6.85 0.85 6.55 0.9 Q4.95 0.8 4.8 -0.65 L4.8 -0.8 4.8 -0.85 4.85 -0.85 5.75 -0.85 5.9 -0.7 5.9 -0.25 5.9 0.1 5.9 0.15 5.95 0.15 6.15 -0.05 Q6.6 -0.35 6.8 -0.35 L7.3 0.15 7.25 0.25 8.0 0.15 8.2 0.2 8.25 0.6 8.05 1.15 M4.75 -0.7 L4.3 0.15 3.5 -0.25 4.05 -0.9 4.7 -0.75 4.75 -0.7" fill="#ffffff" fill-rule="evenodd" stroke="none"/>
      <path d="M6.25 2.3 L6.6 2.45 7.9 2.1 8.65 2.0 8.8 2.2 8.9 2.45 8.6 2.85 8.5 2.95 8.25 2.95 7.5 2.75 7.3 2.75 6.8 2.65 6.75 2.65 6.3 2.45 6.3 2.4 6.25 2.3 M7.85 2.35 L7.85 2.4 7.9 2.4 7.85 2.35" fill="#fd8181" fill-rule="evenodd" stroke="none"/>
    </g>
  </defs>
</svg>
