<?xml version="1.0" encoding="UTF-8" standalone="no"?>
<svg xmlns:ffdec="https://www.free-decompiler.com/flash" xmlns:xlink="http://www.w3.org/1999/xlink" ffdec:objectType="frame" height="119.35px" width="271.8px" xmlns="http://www.w3.org/2000/svg">
  <g transform="matrix(1.0, 0.0, 0.0, 1.0, 0.0, 0.0)">
    <use ffdec:characterId="2861" height="119.35" transform="matrix(1.0, 0.0, 0.0, 1.0, 0.0, 0.0)" width="271.8" xlink:href="#shape0"/>
  </g>
  <defs>
    <g id="shape0" transform="matrix(1.0, 0.0, 0.0, 1.0, 0.0, 0.0)">
      <path d="M264.15 9.3 L264.0 8.6 Q269.15 8.6 270.65 10.85 L270.15 11.5 268.5 9.95 Q267.45 9.0 264.25 9.5 L264.15 9.3 M271.7 8.05 L271.55 8.3 270.65 8.5 266.55 6.2 Q261.7 3.85 253.25 3.85 L247.45 4.65 242.75 5.75 237.35 6.65 237.15 6.8 238.25 6.55 Q239.85 6.15 246.5 7.5 L247.0 7.85 246.35 8.3 248.4 7.7 259.5 8.0 247.75 9.35 240.4 9.15 237.0 9.25 232.85 9.75 225.0 9.0 225.5 8.25 226.55 8.2 224.85 8.15 222.5 8.6 Q219.45 8.6 214.85 7.6 L212.7 7.1 207.75 7.0 207.0 7.1 203.25 7.6 198.85 7.2 197.45 7.05 193.25 8.1 181.6 8.75 175.25 9.25 Q174.45 9.7 174.25 10.35 L173.75 11.35 Q172.6 12.2 164.4 12.25 L164.15 12.25 164.0 12.25 163.75 12.25 163.5 12.25 160.0 12.0 147.2 10.65 122.75 9.0 119.35 9.0 120.25 9.25 Q128.5 11.7 132.0 12.0 L126.6 12.25 Q121.6 12.25 114.25 10.65 L111.9 10.4 110.75 10.6 105.85 9.7 100.0 8.75 96.65 9.25 93.25 9.75 83.8 8.75 Q86.65 7.5 89.5 6.8 L87.55 6.6 79.05 6.6 67.7 8.75 Q58.6 10.35 54.75 10.35 L50.9 10.3 Q48.9 10.9 45.85 12.05 42.8 13.2 37.75 14.1 L36.95 14.05 35.25 15.1 34.5 15.0 35.65 14.1 Q36.35 13.75 36.8 13.75 L36.95 13.9 Q38.85 13.4 41.7 12.2 45.5 10.6 46.25 10.35 L46.85 10.15 45.75 10.25 42.6 10.05 33.05 9.8 33.8 10.75 34.0 11.0 33.0 10.8 31.25 10.5 24.25 10.85 21.8 11.4 Q19.65 11.6 19.3 12.0 L18.5 12.0 19.65 10.1 20.6 8.75 12.8 8.45 Q11.85 9.4 10.45 9.7 8.0 10.25 7.0 11.0 L3.9 11.45 2.25 11.6 0.3 11.5 0.15 11.7 Q0.0 11.75 0.0 10.95 0.0 10.4 0.25 10.0 0.9 8.65 3.5 8.1 L5.35 7.85 Q8.35 6.75 11.65 6.05 17.0 4.85 21.75 4.85 L26.45 5.8 45.75 6.75 Q47.15 6.75 62.45 3.75 L63.35 3.8 Q74.0 3.95 81.8 2.1 L96.05 2.1 101.45 3.3 105.75 4.0 108.3 3.6 121.25 3.5 125.5 2.65 132.25 2.1 147.0 3.1 150.25 2.9 152.8 2.6 168.75 2.5 176.95 1.0 178.2 0.8 186.6 2.25 192.65 1.95 198.25 1.5 222.0 1.25 238.25 0.0 255.75 0.0 Q264.9 1.7 268.25 3.35 271.8 4.45 271.8 6.8 L271.75 7.9 271.7 8.05 M210.75 6.6 L209.4 6.75 211.8 6.85 210.75 6.6 M183.95 5.6 Q178.9 6.0 168.25 6.0 L153.75 5.0 149.75 5.35 149.5 5.5 154.1 7.35 158.0 7.75 178.15 6.9 186.7 6.45 183.95 5.6 M194.3 5.6 Q197.5 5.8 206.45 5.3 L194.75 4.1 188.65 4.75 194.3 5.8 194.3 5.6 M179.3 14.5 L172.25 14.95 168.75 15.35 158.7 14.8 150.0 13.6 Q154.75 13.35 164.0 13.6 L172.75 12.6 179.25 12.35 181.3 13.85 Q181.25 14.5 179.3 14.5 M229.65 105.15 L228.05 105.0 Q227.3 105.0 227.4 105.55 L227.5 106.1 Q227.3 105.75 227.3 104.0 L230.3 104.35 230.55 105.1 229.65 105.15 M224.05 111.35 L220.5 113.75 219.05 113.65 218.5 113.5 Q219.45 113.4 220.6 112.15 L222.5 109.85 Q224.7 107.45 226.75 110.85 L224.9 111.6 224.05 111.35 M113.6 10.5 L112.7 10.3 112.2 10.2 112.1 10.25 113.6 10.5 M81.25 20.75 L77.4 20.35 Q73.55 19.75 72.8 18.6 L65.55 17.6 59.5 17.1 69.65 16.8 Q79.65 17.15 83.0 20.5 L81.25 20.75 M23.0 117.85 Q24.7 115.8 27.5 116.05 L32.3 116.25 30.5 117.45 28.5 119.35 24.8 119.35 23.0 117.85" fill="#ffffff" fill-rule="evenodd" stroke="none"/>
    </g>
  </defs>
</svg>
