<?xml version="1.0" encoding="UTF-8" standalone="no"?>
<svg xmlns:ffdec="https://www.free-decompiler.com/flash" xmlns:xlink="http://www.w3.org/1999/xlink" ffdec:objectType="frame" height="43.2px" width="34.2px" xmlns="http://www.w3.org/2000/svg">
  <g transform="matrix(1.0, 0.0, 0.0, 1.0, 18.5, 24.4)">
    <use ffdec:characterId="1970" height="26.85" transform="matrix(1.0, 0.0, 0.0, 1.0, -14.4, -12.7)" width="28.8" xlink:href="#shape0"/>
    <use ffdec:characterId="1081" height="100.0" id="shape" transform="matrix(0.29, 0.0, 0.0, 0.27, -14.4997, -13.4995)" width="100.0" xlink:href="#sprite0"/>
  </g>
  <defs>
    <g id="shape0" transform="matrix(1.0, 0.0, 0.0, 1.0, 14.4, 12.7)">
      <path d="M9.5 -12.1 L10.15 -11.95 Q13.65 -11.85 13.85 -10.6 L14.2 -8.15 14.4 -2.6 Q12.85 6.55 8.4 10.9 6.5 12.95 3.85 13.65 L-0.55 14.05 -5.3 13.5 Q-8.3 13.3 -11.0 11.25 -14.5 8.2 -14.4 2.2 L-14.05 -3.8 -13.65 -5.7 -12.95 -7.5 -12.4 -8.75 -10.65 -12.7 -10.5 -12.4 Q-5.1 -12.6 -1.9 -12.25 1.3 -11.95 5.25 -12.1 L9.5 -12.1" fill="#333333" fill-rule="evenodd" stroke="none"/>
    </g>
    <g id="sprite0" transform="matrix(1.0, 0.0, 0.0, 1.0, 50.0, 50.0)">
      <use ffdec:characterId="1080" height="100.0" transform="matrix(1.0, 0.0, 0.0, 1.0, -50.0, -50.0)" width="100.0" xlink:href="#shape1"/>
    </g>
    <g id="shape1" transform="matrix(1.0, 0.0, 0.0, 1.0, 50.0, 50.0)">
      <path d="M50.0 50.0 L-50.0 50.0 -50.0 -50.0 50.0 -50.0 50.0 50.0 Z" fill="none" stroke="#9900ff" stroke-linecap="round" stroke-linejoin="round" stroke-width="0.05"/>
    </g>
  </defs>
</svg>
