<?xml version="1.0" encoding="UTF-8" standalone="no"?>
<svg xmlns:ffdec="https://www.free-decompiler.com/flash" xmlns:xlink="http://www.w3.org/1999/xlink" ffdec:objectType="frame" height="153.55px" width="40.25px" xmlns="http://www.w3.org/2000/svg">
  <g transform="matrix(1.0, 0.0, 0.0, 1.0, 14.95, 11.2)">
    <use ffdec:characterId="2370" ffdec:characterName="game_fla.upperleg1_366" height="86.15" id="upperLeg1" transform="matrix(1.0, 0.0, 0.0, 1.0, -13.45, -11.2)" width="29.75" xlink:href="#sprite0"/>
    <use ffdec:characterId="2376" height="79.9" id="lowerLegOuter1" transform="matrix(1.0, 0.0, 0.0, 1.0, -14.95, 62.45)" width="40.25" xlink:href="#sprite2"/>
  </g>
  <defs>
    <g id="sprite0" transform="matrix(1.0, 0.0, 0.0, 1.0, 13.85, 44.35)">
      <use ffdec:characterId="2366" height="84.85" transform="matrix(1.0, 0.0, 0.0, 1.0, -13.85, -44.35)" width="27.45" xlink:href="#shape0"/>
      <use ffdec:characterId="1081" height="100.0" id="shape" transform="matrix(0.26, 0.0, 0.0, 0.82, -12.9997, -40.9988)" width="100.0" xlink:href="#sprite1"/>
    </g>
    <g id="shape0" transform="matrix(1.0, 0.0, 0.0, 1.0, 13.85, 44.35)">
      <path d="M-9.4 2.65 Q-3.55 2.5 -2.4 2.65 L-2.2 2.7 -2.3 5.7 -5.7 5.9 -9.1 6.6 -9.4 2.65" fill="#e2b181" fill-rule="evenodd" stroke="none"/>
      <path d="M-2.2 2.7 L5.9 3.35 11.45 3.9 11.4 4.75 11.35 5.1 11.25 6.8 10.55 6.65 5.3 6.15 -0.3 5.8 -2.3 5.7 Q-2.4 7.4 -2.65 9.0 -4.05 13.25 -4.5 16.15 -4.55 16.7 -6.6 20.5 L-8.7 24.35 Q-8.05 17.85 -9.1 6.6 L-5.7 5.9 -2.3 5.7 -2.2 2.7 M6.8 22.9 Q7.0 24.05 6.85 25.3 L6.3 28.15 2.85 27.25 0.9 28.55 -1.0 29.05 -2.1 29.2 -3.05 28.15 Q0.9 21.05 6.55 15.4 L8.15 8.7 Q9.2 14.7 7.15 20.5 L6.55 22.1 6.8 22.9" fill="#f4c398" fill-rule="evenodd" stroke="none"/>
      <path d="M11.25 6.8 L11.05 10.25 Q10.55 17.8 8.9 26.85 8.35 29.95 7.15 32.75 L7.05 33.0 6.25 34.7 3.9 38.65 Q3.2 39.65 -0.5 40.3 -4.25 40.95 -7.1 39.4 -9.4 38.65 -10.75 36.4 L-11.6 34.85 -11.3 32.05 -10.3 29.85 -8.9 26.25 -8.7 24.35 -6.6 20.5 Q-4.55 16.7 -4.5 16.15 -4.05 13.25 -2.65 9.0 -2.4 7.4 -2.3 5.7 L-0.3 5.8 5.3 6.15 10.55 6.65 11.25 6.8 M6.8 22.9 L6.55 22.1 7.15 20.5 Q9.2 14.7 8.15 8.7 L6.55 15.4 Q0.9 21.05 -3.05 28.15 L-2.1 29.2 -1.0 29.05 0.9 28.55 2.85 27.25 6.3 28.15 6.85 25.3 Q7.0 24.05 6.8 22.9" fill="#ffcc99" fill-rule="evenodd" stroke="none"/>
      <path d="M-13.45 -34.9 L-13.25 -32.85 -12.65 -28.05 -12.5 -27.2 -10.9 -15.5 Q-9.65 -6.95 -9.75 -0.2 L-9.9 2.65 -12.2 2.65 -13.3 2.35 Q-14.0 -3.4 -13.75 -9.15 L-13.7 -15.9 -13.7 -25.2 -13.85 -28.25 -13.65 -32.9 -13.6 -34.3 -13.45 -34.9 M5.9 3.35 Q5.9 0.55 5.3 -3.25 L4.0 -10.35 6.15 -15.9 6.9 -17.7 Q6.2 -17.15 5.0 -16.7 L3.35 -16.05 3.4 -16.3 Q5.75 -22.35 7.3 -23.65 L5.45 -23.45 3.7 -22.9 Q4.55 -23.7 5.7 -25.8 L8.1 -26.2 6.05 -26.55 6.7 -28.1 Q8.35 -32.15 8.8 -35.05 L8.9 -35.65 10.4 -35.4 Q9.0 -27.65 8.15 -26.2 L8.75 -27.15 Q10.75 -32.15 11.15 -35.3 L11.15 -35.35 11.3 -36.05 9.0 -36.4 9.25 -38.05 9.25 -38.1 9.1 -39.9 10.5 -38.7 Q12.25 -36.95 13.55 -33.2 L13.45 -28.05 13.2 -23.05 Q13.05 -20.5 13.2 -17.5 L13.2 1.8 13.0 3.45 11.5 3.9 11.45 3.9 5.9 3.35" fill="#bfa47b" fill-rule="evenodd" stroke="none"/>
      <path d="M-13.45 -34.9 Q-12.85 -38.15 -10.6 -40.65 -6.95 -44.7 -0.5 -44.3 2.25 -43.55 4.45 -42.6 7.25 -41.4 9.1 -39.9 L9.25 -38.1 9.25 -38.05 9.0 -36.4 2.5 -37.4 Q1.15 -30.5 1.7 -28.05 L3.0 -36.55 8.9 -35.65 8.8 -35.05 Q8.35 -32.15 6.7 -28.1 L6.05 -26.55 8.1 -26.2 5.7 -25.8 Q4.55 -23.7 3.7 -22.9 L5.45 -23.45 7.3 -23.65 Q5.75 -22.35 3.4 -16.3 L3.35 -16.05 5.0 -16.7 Q6.2 -17.15 6.9 -17.7 L6.15 -15.9 4.0 -10.35 5.3 -3.25 Q5.9 0.55 5.9 3.35 L-2.2 2.7 -2.4 2.65 Q-3.55 2.5 -9.4 2.65 L-9.9 2.65 -9.75 -0.2 Q-9.65 -6.95 -10.9 -15.5 L-12.5 -27.2 -12.65 -28.05 -13.25 -32.85 -13.45 -34.9 M11.15 -35.3 Q10.75 -32.15 8.75 -27.15 L8.15 -26.2 Q9.0 -27.65 10.4 -35.4 L11.15 -35.3" fill="#b18f5f" fill-rule="evenodd" stroke="none"/>
      <path d="M8.9 -35.65 L3.0 -36.55 1.7 -28.05 Q1.15 -30.5 2.5 -37.4 L9.0 -36.4 11.3 -36.05 11.15 -35.35 11.15 -35.3 10.4 -35.4 8.9 -35.65" fill="#957648" fill-rule="evenodd" stroke="none"/>
    </g>
    <g id="sprite1" transform="matrix(1.0, 0.0, 0.0, 1.0, 50.0, 50.0)">
      <use ffdec:characterId="1080" height="100.0" transform="matrix(1.0, 0.0, 0.0, 1.0, -50.0, -50.0)" width="100.0" xlink:href="#shape1"/>
    </g>
    <g id="shape1" transform="matrix(1.0, 0.0, 0.0, 1.0, 50.0, 50.0)">
      <path d="M50.0 50.0 L-50.0 50.0 -50.0 -50.0 50.0 -50.0 50.0 50.0 Z" fill="none" stroke="#9900ff" stroke-linecap="round" stroke-linejoin="round" stroke-width="0.05"/>
    </g>
    <g id="sprite2" transform="matrix(1.0, 0.0, 0.0, 1.0, 15.75, 3.8)">
      <use ffdec:characterId="2375" ffdec:characterName="game_fla.lowerleg1_368" height="79.9" id="lowerLeg1" transform="matrix(1.0, 0.0, 0.0, 1.0, -15.75, -3.8)" width="40.25" xlink:href="#sprite3"/>
    </g>
    <g id="sprite3" transform="matrix(1.0, 0.0, 0.0, 1.0, 14.25, 38.15)">
      <use ffdec:characterId="2371" height="66.3" transform="matrix(1.0, 0.0, 0.0, 1.0, -11.0, -38.15)" width="20.45" xlink:href="#shape2"/>
      <use ffdec:characterId="2313" height="20.9" transform="matrix(1.0, 0.0, 0.0, 1.0, -14.25, 20.85)" width="40.25" xlink:href="#shape3"/>
      <use ffdec:characterId="1081" height="100.0" id="shape" transform="matrix(0.2, 0.0, 0.0, 0.7601, -9.9998, -38.0028)" width="100.0" xlink:href="#sprite1"/>
    </g>
    <g id="shape2" transform="matrix(1.0, 0.0, 0.0, 1.0, 11.0, 38.15)">
      <path d="M3.35 -35.7 L4.7 -37.65 6.4 -37.7 Q7.95 -36.55 8.85 -34.1 L9.2 -33.0 9.45 -28.95 8.75 -30.85 8.15 -30.8 7.25 -31.4 3.85 -28.9 3.7 -28.85 2.85 -30.3 2.7 -33.1 3.35 -35.7 M8.55 -16.7 L8.25 -14.2 7.45 -7.1 7.0 -3.45 6.95 -2.65 6.7 1.25 6.6 3.1 6.85 13.2 5.3 13.2 3.6 13.6 3.9 11.55 3.95 11.5 2.7 6.1 2.65 5.65 Q1.85 7.2 1.65 11.85 L1.35 10.55 1.65 13.8 1.65 13.95 1.55 13.95 -6.25 15.4 -6.7 15.6 -6.4 11.55 Q-6.15 7.65 -6.95 3.15 -7.3 1.3 -7.8 -0.55 L-8.5 -2.9 -9.05 -4.7 Q-10.7 -10.6 -10.7 -11.55 L-10.8 -14.45 -11.0 -17.1 -10.95 -20.4 -10.25 -27.8 Q-6.9 -33.25 -3.4 -33.15 L-1.2 -33.0 Q-0.55 -32.75 -1.25 -32.25 L-2.2 -31.65 -2.2 -31.6 -3.15 -30.1 -0.1 -27.4 Q1.2 -23.1 2.8 -18.85 L3.45 -17.1 3.6 -15.8 3.65 -6.55 3.4 -3.9 3.8 -2.7 4.2 6.15 4.45 7.05 5.1 1.45 5.5 -2.45 5.85 -6.85 5.85 -6.9 Q7.5 -10.5 8.2 -14.5 L8.55 -16.7 M-1.6 -9.15 L-1.8 -9.25 -3.1 -15.2 -6.2 -10.85 -7.95 -8.45 -9.95 -8.95 -8.7 -4.8 -7.6 -0.55 -6.75 3.15 -6.55 4.3 Q-6.0 6.8 -4.6 9.0 -3.5 6.25 -3.2 2.65 L-3.2 0.55 -3.2 -1.2 -2.85 -5.6 -2.8 -6.3 -2.7 -6.3 -2.05 -8.25 -1.6 -9.15" fill="#ffcc99" fill-rule="evenodd" stroke="none"/>
      <path d="M9.45 -23.9 L9.4 -23.0 8.55 -16.7 8.2 -14.5 Q7.5 -10.5 5.85 -6.9 L5.85 -6.85 5.5 -2.45 5.1 1.45 4.45 7.05 4.2 6.15 3.8 -2.7 3.4 -3.9 3.65 -6.55 3.6 -15.8 3.45 -17.1 2.8 -18.85 Q1.2 -23.1 -0.1 -27.4 L-3.15 -30.1 -2.2 -31.6 -2.2 -31.65 -1.25 -32.25 Q-0.55 -32.75 -1.2 -33.0 L-0.1 -34.3 2.25 -36.6 3.3 -36.15 3.35 -35.7 2.7 -33.1 2.85 -30.3 3.7 -28.85 3.85 -28.9 Q3.95 -25.05 6.9 -22.0 L7.55 -21.15 9.45 -23.9 M1.65 11.85 Q1.85 7.2 2.65 5.65 L2.7 6.1 3.95 11.5 3.9 11.55 3.6 13.6 3.5 13.6 1.65 13.95 1.65 13.8 1.65 11.85 M-1.6 -9.15 L-2.05 -8.25 -2.7 -6.3 -2.8 -6.3 -2.85 -5.6 -3.2 -1.2 -3.2 0.55 -3.2 2.65 Q-3.5 6.25 -4.6 9.0 -6.0 6.8 -6.55 4.3 L-6.75 3.15 -7.6 -0.55 -8.7 -4.8 -9.95 -8.95 -7.95 -8.45 -6.2 -10.85 -3.1 -15.2 -1.8 -9.25 -1.6 -9.15" fill="#f4c398" fill-rule="evenodd" stroke="none"/>
      <path d="M9.45 -28.95 L9.45 -23.9 7.55 -21.15 6.9 -22.0 Q3.95 -25.05 3.85 -28.9 L7.25 -31.4 8.15 -30.8 8.75 -30.85 9.45 -28.95 M1.65 13.8 L1.35 10.55 1.65 11.85 1.65 13.8" fill="#ebbb98" fill-rule="evenodd" stroke="none"/>
      <path d="M6.85 13.2 L7.1 13.2 7.45 16.8 7.75 19.3 Q7.85 21.1 7.0 22.65 4.05 28.15 -2.2 28.15 L-3.55 28.05 Q-9.05 27.3 -7.3 20.9 L-7.2 19.45 -7.3 15.9 -6.7 15.6 -6.25 15.4 1.55 13.95 1.65 14.65 2.2 17.5 2.4 18.05 3.35 20.35 4.15 21.65 4.35 22.0 4.4 21.7 Q4.45 20.25 3.95 18.8 L3.55 16.9 Q3.4 15.9 3.4 14.9 L3.5 13.6 3.6 13.6 5.3 13.2 6.85 13.2 M-0.85 16.05 L-1.1 16.35 -3.0 18.45 -3.45 19.0 Q-4.2 20.1 -4.0 21.9 L-3.8 22.45 -2.75 24.5 -1.5 19.0 -0.85 16.05" fill="#ffffff" fill-rule="evenodd" stroke="none"/>
      <path d="M1.65 13.95 L3.5 13.6 3.4 14.9 Q3.4 15.9 3.55 16.9 L3.95 18.8 Q4.45 20.25 4.4 21.7 L4.35 22.0 4.15 21.65 3.35 20.35 2.4 18.05 2.2 17.5 1.65 14.65 1.55 13.95 1.65 13.95 M-0.85 16.05 L-1.5 19.0 -2.75 24.5 -3.8 22.45 -4.0 21.9 Q-4.2 20.1 -3.45 19.0 L-3.0 18.45 -1.1 16.35 -0.85 16.05" fill="#cccccc" fill-rule="evenodd" stroke="none"/>
    </g>
    <g id="shape3" transform="matrix(1.0, 0.0, 0.0, 1.0, 14.25, -20.85)">
      <path d="M-13.35 31.25 L-12.95 28.3 Q-12.7 26.45 -11.4 23.7 -10.0 20.7 -8.9 20.85 L-6.9 21.75 Q-5.1 22.65 -2.65 22.95 -0.35 23.25 3.55 22.95 6.85 22.75 7.15 22.95 7.6 23.2 7.9 23.8 L8.2 24.35 7.3 24.65 Q5.95 25.25 5.1 26.1 L4.75 26.5 5.4 26.75 8.7 25.3 8.75 25.3 9.2 25.9 Q7.8 26.55 6.85 27.7 L5.95 28.85 7.55 28.4 Q9.05 27.8 10.25 26.85 L10.6 27.1 10.95 27.25 8.4 30.25 9.1 30.85 10.15 29.95 12.3 28.1 12.8 28.4 10.75 31.05 10.4 31.6 10.9 31.8 11.85 31.5 Q13.3 30.75 14.3 29.2 L14.8 29.5 13.0 32.0 12.5 32.5 13.35 33.05 14.05 32.65 16.1 30.25 16.7 30.6 17.15 30.85 15.05 33.25 15.25 34.2 15.9 33.95 Q17.45 33.1 18.4 31.55 L18.45 31.55 19.15 31.95 19.45 32.15 20.65 32.9 19.45 32.65 18.85 33.5 18.05 34.5 17.65 35.55 17.45 35.95 20.55 36.7 23.35 37.3 24.1 37.4 22.2 37.45 20.85 37.3 13.7 35.85 11.65 35.4 3.05 34.1 -13.25 31.75 -13.35 31.25 M-14.25 34.9 L-14.2 34.5 -13.6 34.65 -10.1 35.35 -5.25 35.85 -3.85 36.05 4.8 37.05 11.4 38.85 7.85 38.2 2.95 37.2 -2.85 36.55 -8.5 35.95 -13.65 35.05 -14.25 34.9" fill="#000000" fill-rule="evenodd" stroke="none"/>
      <path d="M8.2 24.35 L8.7 25.3 5.4 26.75 4.75 26.5 5.1 26.1 Q5.95 25.25 7.3 24.65 L8.2 24.35 M9.2 25.9 L10.25 26.85 Q9.05 27.8 7.55 28.4 L5.95 28.85 6.85 27.7 Q7.8 26.55 9.2 25.9 M10.95 27.25 L12.3 28.1 10.15 29.95 9.1 30.85 8.4 30.25 10.95 27.25 M12.8 28.4 L14.3 29.2 Q13.3 30.75 11.85 31.5 L10.9 31.8 10.4 31.6 10.75 31.05 12.8 28.4 M14.8 29.5 L16.1 30.25 14.05 32.65 13.35 33.05 12.5 32.5 13.0 32.0 14.8 29.5 M17.15 30.85 L18.4 31.55 Q17.45 33.1 15.9 33.95 L15.25 34.2 15.05 33.25 17.15 30.85 M20.65 32.9 Q22.25 33.2 23.5 33.9 L24.2 34.4 Q25.2 35.1 25.6 35.9 L25.8 36.75 Q26.15 38.25 25.85 39.65 L25.85 39.85 25.95 40.55 25.75 41.45 Q23.25 42.05 19.7 41.5 L0.3 37.9 -0.75 37.75 -5.6 37.3 -10.55 37.0 -11.55 36.9 -13.85 36.45 -14.2 35.35 -14.25 34.9 -13.65 35.05 -8.5 35.95 -2.85 36.55 2.95 37.2 7.85 38.2 11.4 38.85 4.8 37.05 -3.85 36.05 -5.25 35.85 -10.1 35.35 -13.6 34.65 -14.2 34.5 -13.35 31.25 -13.25 31.75 3.05 34.1 11.65 35.4 13.7 35.85 20.85 37.3 22.2 37.45 24.1 37.4 23.35 37.3 20.55 36.7 17.45 35.95 17.65 35.55 18.05 34.5 18.85 33.5 19.45 32.65 20.65 32.9" fill="#ffffff" fill-rule="evenodd" stroke="none"/>
      <path d="M8.7 25.3 L8.75 25.3" fill="none" stroke="#943965" stroke-linecap="round" stroke-linejoin="round" stroke-width="0.05"/>
    </g>
  </defs>
</svg>
