<?xml version="1.0" encoding="UTF-8" standalone="no"?>
<svg xmlns:ffdec="https://www.free-decompiler.com/flash" xmlns:xlink="http://www.w3.org/1999/xlink" ffdec:objectType="frame" height="24.55px" width="16.7px" xmlns="http://www.w3.org/2000/svg">
  <g transform="matrix(1.0, 0.0, 0.0, 1.0, 9.35, 8.9)">
    <use ffdec:characterId="1547" height="17.85" transform="matrix(1.0, 0.0, 0.0, 1.0, -7.3, -8.9)" width="14.65" xlink:href="#shape0"/>
  </g>
  <defs>
    <g id="shape0" transform="matrix(1.0, 0.0, 0.0, 1.0, 7.3, 8.9)">
      <path d="M4.95 -8.9 L5.15 -8.9 5.15 -8.7 7.35 0.55 6.75 2.2 5.6 3.65 5.8 6.3 5.15 5.3 Q3.45 6.0 1.8 7.05 L0.45 6.1 Q-0.4 7.25 -1.15 6.95 L-2.0 6.65 -2.55 5.85 -6.25 4.75 -5.9 4.05 Q-4.8 1.7 -4.3 -0.85 -3.95 -2.9 -3.25 -4.7 -2.75 -5.95 -2.55 -7.15 L-2.45 -7.75 1.6 -8.25 1.35 -7.75 1.75 -7.35 2.2 -7.15 4.15 -4.0 4.95 -7.2 Q5.1 -7.95 4.85 -8.65 L4.95 -8.9 M-4.75 -7.5 L-4.45 -8.45 -4.55 -8.8 -4.55 -8.9 -4.05 -8.9 -4.75 -7.5" fill="#ffcc99" fill-rule="evenodd" stroke="none"/>
      <path d="M5.8 6.3 L5.75 6.7 5.7 6.85 Q4.9 7.55 3.7 8.05 L2.65 7.7 2.5 7.65 2.0 8.1 0.85 8.65 -0.3 8.95 -1.2 7.95 -1.25 8.0 -1.85 8.5 -3.05 8.5 Q-4.9 8.0 -5.5 6.3 L-6.55 5.9 -7.2 4.85 -7.3 4.6 Q-7.2 -0.15 -5.5 -5.05 L-4.75 -7.5 -4.05 -8.9 4.95 -8.9 4.85 -8.65 Q5.1 -7.95 4.95 -7.2 L4.15 -4.0 2.2 -7.15 1.75 -7.35 1.35 -7.75 1.6 -8.25 -2.45 -7.75 -2.55 -7.15 Q-2.75 -5.95 -3.25 -4.7 -3.95 -2.9 -4.3 -0.85 -4.8 1.7 -5.9 4.05 L-6.25 4.75 -2.55 5.85 -2.0 6.65 -1.15 6.95 Q-0.4 7.25 0.45 6.1 L1.8 7.05 Q3.45 6.0 5.15 5.3 L5.8 6.3" fill="#ebbb98" fill-rule="evenodd" stroke="none"/>
    </g>
  </defs>
</svg>
