<?xml version="1.0" encoding="UTF-8" standalone="no"?>
<svg xmlns:ffdec="https://www.free-decompiler.com/flash" xmlns:xlink="http://www.w3.org/1999/xlink" ffdec:objectType="frame" height="24.55px" width="16.7px" xmlns="http://www.w3.org/2000/svg">
  <g transform="matrix(1.0, 0.0, 0.0, 1.0, 9.35, 8.9)">
    <use ffdec:characterId="2574" height="24.55" transform="matrix(1.0, 0.0, 0.0, 1.0, -9.35, -8.9)" width="15.9" xlink:href="#shape0"/>
  </g>
  <defs>
    <g id="shape0" transform="matrix(1.0, 0.0, 0.0, 1.0, 9.35, 8.9)">
      <path d="M4.95 -8.9 L5.15 -8.9 5.15 -8.7 6.55 -2.75 Q6.25 -0.8 6.25 2.85 L5.8 3.45 Q6.2 6.8 5.9 8.3 L5.35 12.0 Q5.05 14.2 2.05 14.85 L1.4 14.65 1.4 14.6 Q2.7 13.4 3.3 11.85 4.7 8.1 3.75 4.0 L2.75 8.1 Q2.5 12.05 0.95 13.8 L0.8 14.15 Q0.1 15.65 -1.3 15.65 L-2.0 15.6 -0.95 13.4 Q1.0 9.25 0.75 4.55 L-0.2 7.15 -0.2 6.8 -0.4 6.95 -0.45 7.35 -0.5 7.65 -1.55 11.4 Q-3.15 13.2 -5.55 13.75 -7.05 13.85 -7.35 13.1 -6.2 12.5 -5.2 11.7 -1.65 8.8 -2.75 4.0 L-4.1 6.5 -4.15 6.35 -4.35 6.65 -4.6 6.9 -4.7 7.05 Q-5.95 9.4 -7.8 9.4 L-8.75 9.15 -9.2 8.8 -8.25 8.25 Q-4.4 5.9 -4.85 1.4 L-4.3 -0.85 Q-3.95 -2.9 -3.25 -4.7 -2.75 -5.95 -2.55 -7.15 L-2.45 -7.75 1.6 -8.25 1.35 -7.75 1.75 -7.35 2.2 -7.15 4.15 -4.0 4.95 -7.2 Q5.1 -7.95 4.85 -8.65 L4.95 -8.9 M-4.75 -7.5 L-4.45 -8.45 -4.55 -8.8 -4.55 -8.9 -4.05 -8.9 -4.75 -7.5" fill="#ffcc99" fill-rule="evenodd" stroke="none"/>
      <path d="M1.4 14.6 Q1.15 13.25 1.65 13.05 L2.55 12.55 Q3.6 9.6 2.75 8.1 L3.75 4.0 Q4.7 8.1 3.3 11.85 2.7 13.4 1.4 14.6 M-2.0 15.6 L-2.55 15.1 -2.65 14.85 -2.55 14.45 Q-2.45 13.55 -1.85 13.1 L-1.75 13.05 -1.55 12.65 -1.1 12.15 Q0.0 9.9 -0.15 7.55 L-0.5 7.65 -0.45 7.35 -0.4 6.95 -0.2 6.8 -0.2 7.15 0.75 4.55 Q1.0 9.25 -0.95 13.4 L-2.0 15.6 M-7.35 13.1 L-7.4 13.05 Q-7.65 12.35 -7.0 11.65 -7.0 11.5 -6.3 11.3 -3.95 10.5 -4.2 8.45 L-4.05 6.8 -4.1 6.5 -2.75 4.0 Q-1.65 8.8 -5.2 11.7 -6.2 12.5 -7.35 13.1 M-9.2 8.8 L-9.35 8.4 Q-9.35 7.35 -8.45 7.2 -7.35 6.95 -7.15 6.65 -6.6 5.85 -5.95 3.55 -5.8 3.25 -5.8 2.8 -5.75 1.8 -6.3 0.0 L-6.15 -1.65 -5.9 -3.75 -5.5 -5.05 -4.75 -7.5 -4.05 -8.9 4.95 -8.9 4.85 -8.65 Q5.1 -7.95 4.95 -7.2 L4.15 -4.0 2.2 -7.15 1.75 -7.35 1.35 -7.75 1.6 -8.25 -2.45 -7.75 -2.55 -7.15 Q-2.75 -5.95 -3.25 -4.7 -3.95 -2.9 -4.3 -0.85 L-4.85 1.4 Q-4.4 5.9 -8.25 8.25 L-9.2 8.8" fill="#ebbb98" fill-rule="evenodd" stroke="none"/>
    </g>
  </defs>
</svg>
