<?xml version="1.0" encoding="UTF-8" standalone="no"?>
<svg xmlns:ffdec="https://www.free-decompiler.com/flash" xmlns:xlink="http://www.w3.org/1999/xlink" ffdec:objectType="frame" height="19.6px" width="13.1px" xmlns="http://www.w3.org/2000/svg">
  <g transform="matrix(1.0, 0.0, 0.0, 1.0, 7.5, 7.1)">
    <use ffdec:characterId="1447" height="14.1" transform="matrix(1.0, 0.0, 0.0, 1.0, -5.75, -7.1)" width="11.35" xlink:href="#shape0"/>
  </g>
  <defs>
    <g id="shape0" transform="matrix(1.0, 0.0, 0.0, 1.0, 5.75, 7.1)">
      <path d="M3.95 -7.1 L4.1 -7.1 4.1 -6.95 5.5 0.15 Q5.7 1.2 5.4 1.75 L4.5 2.9 4.65 5.05 4.1 4.25 Q2.75 4.8 1.45 5.65 L0.35 4.9 Q-0.3 5.8 -0.9 5.55 L-1.6 5.3 -2.05 4.7 -5.0 3.8 -4.7 3.25 Q-3.85 1.35 -3.45 -0.7 L-2.6 -3.75 Q-2.2 -4.75 -2.05 -5.7 L-1.95 -6.2 1.3 -6.6 1.1 -6.2 1.4 -5.9 1.75 -5.7 3.3 -3.2 3.95 -5.75 3.9 -6.9 3.95 -7.1 M-3.8 -6.0 L-3.55 -6.75 -3.65 -7.05 -3.65 -7.1 -3.25 -7.1 -3.8 -6.0" fill="#ffcc99" fill-rule="evenodd" stroke="none"/>
      <path d="M4.65 5.05 L4.6 5.35 4.55 5.5 2.95 6.45 2.1 6.15 2.0 6.1 1.6 6.5 0.7 6.9 0.05 6.85 -0.95 6.35 -1.0 6.4 -1.5 6.8 -2.4 6.5 -4.4 5.05 -5.25 4.7 -5.75 3.9 -5.45 1.85 -4.55 -2.55 -3.8 -6.0 -3.25 -7.1 3.95 -7.1 3.9 -6.9 3.95 -5.75 3.3 -3.2 1.75 -5.7 1.4 -5.9 1.1 -6.2 1.3 -6.6 -1.95 -6.2 -2.05 -5.7 Q-2.2 -4.75 -2.6 -3.75 L-3.45 -0.7 Q-3.85 1.35 -4.7 3.25 L-5.0 3.8 -2.05 4.7 -1.6 5.3 -0.9 5.55 Q-0.3 5.8 0.35 4.9 L1.45 5.65 Q2.75 4.8 4.1 4.25 L4.65 5.05" fill="#ebbb98" fill-rule="evenodd" stroke="none"/>
    </g>
  </defs>
</svg>
