<?xml version="1.0" encoding="UTF-8" standalone="no"?>
<svg xmlns:ffdec="https://www.free-decompiler.com/flash" xmlns:xlink="http://www.w3.org/1999/xlink" ffdec:objectType="frame" height="54.0px" width="47.65px" xmlns="http://www.w3.org/2000/svg">
  <g transform="matrix(1.0, 0.0, 0.0, 1.0, 24.0, 34.5)">
    <use ffdec:characterId="2543" height="33.4" id="mc" transform="matrix(1.045, 0.0, 0.0, 1.0, -17.8657, -16.4)" width="34.15" xlink:href="#sprite0"/>
    <use ffdec:characterId="2545" height="32.1" id="wound" transform="matrix(1.0E-4, 1.0, -1.0, 1.0E-4, 16.7991, -32.9515)" width="25.95" xlink:href="#sprite1"/>
  </g>
  <defs>
    <g id="sprite0" transform="matrix(1.0, 0.0, 0.0, 1.0, 14.8, 33.1)">
      <use ffdec:characterId="2542" height="33.4" transform="matrix(1.0, 0.0, 0.0, 1.0, -14.8, -33.1)" width="34.15" xlink:href="#shape0"/>
    </g>
    <g id="shape0" transform="matrix(1.0, 0.0, 0.0, 1.0, 14.8, 33.1)">
      <path d="M-14.75 -13.1 L-14.75 -15.0 -14.7 -13.1 -14.75 -13.1" fill="#ffffff" fill-rule="evenodd" stroke="none"/>
      <path d="M18.95 -31.35 L16.55 -31.95 Q8.95 -31.95 8.0 -28.9 L8.2 -29.1 8.95 -29.3 Q9.45 -29.3 10.7 -28.5 12.05 -27.6 12.05 -27.0 L11.7 -20.85 Q11.3 -14.75 11.5 -7.45 11.65 -2.25 8.2 -0.55 L8.1 -0.55 Q7.2 -0.05 5.05 0.15 L1.15 0.3 0.7 0.15 -4.55 -0.25 -5.05 -0.35 Q-10.85 -9.85 -10.85 -16.7 -10.85 -24.15 -8.05 -32.55 L8.3 -32.55 12.9 -33.0 18.35 -32.7 18.95 -31.35" fill="#ad5a95" fill-rule="evenodd" stroke="none"/>
      <path d="M8.2 -0.55 Q11.65 -2.25 11.5 -7.45 11.3 -14.75 11.7 -20.85 L12.05 -27.0 Q12.05 -27.6 10.7 -28.5 9.45 -29.3 8.95 -29.3 L8.2 -29.1 8.0 -28.9 Q8.95 -31.95 16.55 -31.95 L18.95 -31.35 18.95 -31.05 18.95 -30.85 19.0 -29.8 19.0 -29.35 19.25 -24.5 19.2 -24.3 19.25 -23.8 19.3 -23.55 19.3 -23.4 19.35 -21.6 19.25 -21.1 19.2 -20.55 18.15 -13.2 18.1 -12.75 18.05 -12.55 17.95 -12.05 Q15.55 -0.7 10.5 -0.7 L10.1 -0.75 8.2 -0.55" fill="#bb77a7" fill-rule="evenodd" stroke="none"/>
      <path d="M-8.05 -32.55 Q-10.85 -24.15 -10.85 -16.7 -10.85 -9.85 -5.05 -0.35 -7.05 -0.75 -8.65 -1.65 -11.9 -3.6 -13.25 -6.45 L-14.1 -8.55 Q-14.6 -10.05 -14.7 -11.6 L-14.75 -13.1 -14.7 -13.1 -14.75 -15.0 -14.5 -18.95 -14.3 -20.6 -13.25 -28.4 -13.1 -29.35 -12.65 -32.55 -8.05 -32.55" fill="#b66ba0" fill-rule="evenodd" stroke="none"/>
    </g>
    <g id="sprite1" transform="matrix(1.0, 0.0, 0.0, 1.0, 10.3, 15.85)">
      <use ffdec:characterId="2544" height="32.1" transform="matrix(1.0, 0.0, 0.0, 1.0, -10.3, -15.85)" width="25.95" xlink:href="#shape1"/>
    </g>
    <g id="shape1" transform="matrix(1.0, 0.0, 0.0, 1.0, 10.3, 15.85)">
      <path d="M4.7 -13.65 L6.15 -13.3 6.35 -12.7 6.0 -11.0 3.95 -11.05 4.3 -13.15 4.7 -13.65 M1.6 -11.6 L2.6 -10.6 Q3.05 -8.55 2.45 -6.8 1.85 -4.9 0.45 -3.45 L0.95 -2.6 4.2 -5.4 5.45 -5.15 5.3 -3.6 5.25 -3.0 5.35 -3.15 6.4 -3.85 7.1 -3.95 7.35 -3.9 8.9 -1.85 9.0 -1.4 9.05 -1.35 Q9.75 0.95 9.3 3.1 L8.95 4.5 9.25 4.85 10.05 5.1 10.05 5.15 Q10.5 6.0 10.2 6.65 L9.8 7.4 9.05 7.7 7.1 7.9 Q5.35 5.25 6.6 2.6 L7.0 1.85 6.15 1.9 Q5.15 1.9 4.3 1.25 L4.1 1.1 Q3.1 3.45 1.25 5.5 L2.35 6.35 Q4.3 8.0 5.25 10.5 L7.4 10.9 7.75 11.25 7.6 13.45 6.5 13.45 6.3 12.65 4.35 12.4 4.05 11.55 2.55 11.05 2.7 8.3 1.05 7.1 -0.2 7.45 -0.1 8.2 0.65 8.85 0.95 11.7 -0.6 12.8 -1.2 12.7 -2.15 9.5 -2.05 8.15 -2.8 7.8 -3.0 6.4 Q-2.35 6.4 -2.55 5.75 L-2.9 4.4 -4.05 4.2 -4.7 3.45 -6.45 4.2 -7.6 2.65 -7.4 1.75 -5.1 2.15 -4.95 0.0 Q-4.9 -1.0 -4.25 -1.75 L-3.5 -1.45 -2.3 3.65 -1.45 4.05 0.0 2.3 1.5 2.15 2.8 -0.75 2.2 -1.45 2.05 0.15 1.5 0.4 0.05 -0.3 -0.5 -1.7 -1.55 -1.85 -1.8 -2.6 1.6 -11.6" fill="#ff0000" fill-rule="evenodd" stroke="none"/>
      <path d="M6.65 -15.15 L6.95 -14.35 Q8.0 -11.25 7.25 -8.35 L6.15 -8.4 4.2 -5.4 0.95 -2.6 0.45 -3.45 Q1.85 -4.9 2.45 -6.8 3.05 -8.55 2.6 -10.6 L1.6 -11.6 1.85 -12.0 2.6 -11.9 Q3.7 -12.2 4.3 -13.15 L3.95 -11.05 6.0 -11.0 6.35 -12.7 6.15 -13.3 4.7 -13.65 6.4 -15.85 6.65 -15.15 M7.35 -3.9 L8.2 -4.2 8.6 -4.05 9.15 -2.95 Q10.9 0.95 10.05 5.1 L9.25 4.85 8.95 4.5 9.3 3.1 Q9.75 0.95 9.05 -1.35 L8.9 -1.85 7.35 -3.9 M-1.8 -2.6 L-1.55 -1.85 -0.5 -1.7 0.05 -0.3 1.5 0.4 2.05 0.15 2.2 -1.45 2.8 -0.75 1.5 2.15 0.0 2.3 -1.45 4.05 -2.3 3.65 -3.5 -1.45 -4.25 -1.75 -3.75 -2.05 -2.85 -1.9 -1.8 -2.6 M-4.05 4.2 L-2.9 4.4 -2.55 5.75 Q-2.35 6.4 -3.0 6.4 L-3.35 5.85 -3.85 5.65 -4.45 6.1 Q-5.3 6.9 -5.65 8.05 L-6.15 6.4 Q-4.95 5.9 -4.35 4.8 L-4.05 4.2 M0.65 8.85 L-0.1 8.2 -0.2 7.45 1.05 7.1 2.7 8.3 2.55 11.05 4.05 11.55 4.35 12.4 6.3 12.65 6.5 13.45 7.6 13.45 7.55 13.7 Q7.25 14.75 6.45 15.5 L5.95 15.85 4.2 14.05 3.8 14.3 1.4 13.45 1.4 13.0 1.95 12.8 2.45 11.6 2.15 9.7 1.4 8.9 0.65 8.85" fill="#990000" fill-rule="evenodd" stroke="none"/>
      <path d="M4.2 -5.4 L6.15 -8.4 7.25 -8.35 7.35 -3.9 7.1 -3.95 6.4 -3.85 5.35 -3.15 5.25 -3.0 5.3 -3.6 5.45 -5.15 4.2 -5.4 M7.4 10.9 L5.25 10.5 Q4.3 8.0 2.35 6.35 L1.25 5.5 Q3.1 3.45 4.1 1.1 L4.3 1.25 Q5.15 1.9 6.15 1.9 L7.0 1.85 6.6 2.6 Q5.35 5.25 7.1 7.9 L7.45 10.15 7.4 10.9" fill="#ebbb98" fill-rule="evenodd" stroke="none"/>
      <path d="M-7.4 1.75 L-7.6 2.65 -6.45 4.2 -4.7 3.45 -4.05 4.2 -4.35 4.8 Q-4.95 5.9 -6.15 6.4 L-10.3 7.7 -8.5 4.65 -8.85 1.7 -7.85 1.3 -7.4 1.75 M-3.0 6.4 L-2.8 7.8 -2.05 8.15 -2.15 9.5 -2.8 9.35 -3.7 10.0 -4.05 10.95 -4.95 11.35 -5.7 10.95 -5.65 8.05 Q-5.3 6.9 -4.45 6.1 L-3.85 5.65 -3.35 5.85 -3.0 6.4 M-0.6 12.8 L0.95 11.7 0.65 8.85 1.4 8.9 2.15 9.7 2.45 11.6 1.95 12.8 1.4 13.0 1.4 13.45 0.3 13.95 -0.6 12.8" fill="#ffffff" fill-rule="evenodd" stroke="none"/>
      <path d="M7.25 -8.35 Q8.0 -11.25 6.95 -14.35 L6.65 -15.15 12.3 -14.7 9.85 -12.2 10.65 -11.75 10.5 -10.55 11.4 -10.0 Q10.9 -9.65 10.85 -8.55 10.8 -7.55 11.25 -7.15 L8.3 -5.7 10.5 -5.0 11.0 0.0 12.7 1.1 11.3 2.35 12.75 4.95 12.0 4.7 Q10.7 4.7 10.05 5.15 L10.05 5.1 Q10.9 0.95 9.15 -2.95 L8.6 -4.05 8.2 -4.2 7.35 -3.9 7.25 -8.35 M7.6 13.45 L7.75 11.25 7.4 10.9 7.45 10.15 7.1 7.9 9.05 7.7 9.8 7.4 Q10.8 9.65 13.05 9.65 L14.65 9.3 15.05 9.15 15.65 10.25 Q15.2 12.4 10.45 12.35 L11.05 13.4 8.95 16.05 8.2 16.25 6.45 15.5 Q7.25 14.75 7.55 13.7 L7.6 13.45" fill="#8a4664" fill-rule="evenodd" stroke="none"/>
    </g>
  </defs>
</svg>
