<?xml version="1.0" encoding="UTF-8" standalone="no"?>
<svg xmlns:ffdec="https://www.free-decompiler.com/flash" xmlns:xlink="http://www.w3.org/1999/xlink" ffdec:objectType="frame" height="18.0px" width="13.7px" xmlns="http://www.w3.org/2000/svg">
  <g transform="matrix(1.0, 0.0, 0.0, 1.0, 7.35, 9.95)">
    <use ffdec:characterId="1309" height="18.0" transform="matrix(1.0, 0.0, 0.0, 1.0, -7.35, -9.95)" width="13.7" xlink:href="#shape0"/>
  </g>
  <defs>
    <g id="shape0" transform="matrix(1.0, 0.0, 0.0, 1.0, 7.35, 9.95)">
      <path d="M5.3 -8.05 L5.2 -7.9 Q4.35 -6.4 2.9 -5.4 L2.8 -5.4 2.15 -5.55 2.85 -6.15 3.3 -8.1 0.05 -6.65 -0.25 -8.05 Q0.9 -10.25 3.4 -9.9 L4.35 -9.0 5.3 -8.05 M1.8 6.05 L2.0 6.05 3.4 6.0 3.45 6.05 3.4 6.05 3.45 6.05 3.45 6.15 3.35 6.4 2.55 6.75 1.8 7.0 1.65 6.55 0.5 6.85 -0.15 6.5 -0.6 6.7 -0.85 7.05 -0.85 7.35 -1.0 7.35 -0.85 7.05 -1.3 6.35 -2.55 6.4 -3.5 4.9 -3.85 4.05 Q-4.25 3.05 -3.6 2.75 -2.95 1.6 -2.15 1.15 L-1.5 1.1 -1.4 1.25 -2.95 3.4 -2.3 3.4 -2.3 4.1 -2.05 4.5 Q-0.85 6.05 1.05 6.0 L1.55 6.05 1.8 6.05 M-7.35 0.3 Q-7.35 -0.85 -6.45 -1.65 -5.55 -2.5 -4.25 -2.5 L-3.8 -1.65 -5.8 -0.15 -4.7 0.15 -4.4 0.75 -3.9 0.2 -2.55 -3.65 -3.8 -3.8 -3.85 -4.5 -3.35 -5.1 Q-2.25 -6.4 -0.55 -6.7 L-0.35 -5.45 -0.85 -4.45 -1.3 -4.25 -3.1 -0.15 -3.0 0.3 -4.9 2.3 -5.3 1.7 -7.15 1.0 -7.35 0.3" fill="#ff0000" fill-rule="evenodd" stroke="none"/>
      <path d="M5.2 -7.9 L5.3 -8.05 5.45 -7.9 5.2 -7.9 M-0.25 -8.05 L0.05 -6.65 3.3 -8.1 2.85 -6.15 2.15 -5.55 -0.35 -5.45 -0.55 -6.7 -0.25 -8.05 M1.35 5.9 L1.05 6.0 Q-0.85 6.05 -2.05 4.5 L-2.3 4.1 0.6 5.05 1.1 5.75 1.35 5.9 M-3.5 4.9 L-5.8 4.2 -6.9 2.15 -7.35 0.3 -7.15 1.0 -5.3 1.7 -4.9 2.3 -4.9 2.5 -3.7 2.55 -3.6 2.75 Q-4.25 3.05 -3.85 4.05 L-3.5 4.9 M-4.25 -2.5 L-4.05 -2.55 -4.05 -4.3 -3.85 -4.5 -3.8 -3.8 -2.55 -3.65 -3.9 0.2 -4.4 0.75 -4.7 0.15 -5.8 -0.15 -3.8 -1.65 -4.25 -2.5 M-1.4 1.25 L-1.2 1.55 -1.2 1.8 -2.3 3.4 -2.95 3.4 -1.4 1.25" fill="#990000" fill-rule="evenodd" stroke="none"/>
      <path d="M2.15 -5.55 L2.8 -5.4 2.9 -5.4 Q4.35 -6.4 5.2 -7.9 L5.45 -7.9 5.7 -7.85 5.9 -5.75 5.9 -5.65 6.0 -5.65 5.9 -5.25 5.85 -4.85 5.75 -4.85 4.85 -2.6 Q4.4 -1.55 5.2 0.15 L5.9 1.15 Q6.55 1.95 6.3 2.8 L6.05 3.05 4.25 3.25 Q3.5 3.45 3.5 4.25 3.5 4.65 4.0 5.1 L4.15 5.25 4.2 5.3 4.3 5.4 4.35 5.45 4.25 5.45 4.0 5.5 3.85 5.55 3.7 5.6 3.55 5.65 3.3 5.45 2.75 5.55 2.8 5.6 2.6 5.65 2.15 5.85 Q1.9 5.9 1.8 6.05 L1.55 6.05 1.35 5.9 1.1 5.75 0.6 5.05 -2.3 4.1 -2.3 3.4 -1.2 1.8 -1.2 1.55 -1.4 1.25 -1.5 1.1 -2.15 1.15 Q-2.95 1.6 -3.6 2.75 L-3.7 2.55 -4.9 2.5 -4.9 2.3 -3.0 0.3 -3.1 -0.15 -1.3 -4.25 -0.85 -4.45 -0.35 -5.45 2.15 -5.55 M3.85 -3.55 Q4.35 -3.65 3.9 -3.9 L3.5 -4.15 3.25 -4.1 Q1.5 -3.95 0.05 -2.95 L-0.2 -2.8 -0.6 -2.5 -0.75 -2.4 0.3 -2.5 Q-0.45 -2.1 -0.45 -1.6 L0.2 -0.65 Q0.9 0.2 1.6 0.3 L1.75 0.3 2.15 0.3 3.25 -0.2 3.45 -0.35 Q4.3 -1.0 4.3 -1.7 L4.25 -2.9 3.85 -3.55 M4.35 5.05 L4.25 4.85 4.05 4.3 4.1 4.25 4.1 4.3 4.2 4.7 4.35 4.95 4.35 5.05 M4.2 6.05 L4.3 6.0 4.3 6.05 4.2 6.05" fill="#ffcc99" fill-rule="evenodd" stroke="none"/>
      <path d="M0.3 -2.5 L1.95 -2.95 3.25 -3.35 3.65 -3.45 3.85 -3.55 4.25 -2.9 4.3 -1.7 Q4.3 -1.0 3.45 -0.35 L3.25 -0.2 2.15 0.3 1.75 0.3 1.6 0.3 Q0.9 0.2 0.2 -0.65 L-0.45 -1.6 Q-0.45 -2.1 0.3 -2.5 M2.2 -2.3 L1.55 -2.1 1.5 -2.1 Q1.15 -1.95 1.15 -1.55 1.15 -1.0 1.5 -1.0 L1.75 -1.1 1.75 -1.15 2.2 -1.25 2.25 -1.35 2.25 -1.65 2.65 -2.0 2.7 -2.0 2.9 -2.15 2.95 -2.35 2.9 -2.55 2.2 -2.3 M6.05 3.05 L5.25 3.6 4.1 4.25 4.05 4.3 4.25 4.85 4.35 5.05 4.45 5.4 4.45 5.5 4.45 5.6 4.35 5.45 4.3 5.4 4.2 5.3 4.15 5.25 4.0 5.1 Q3.5 4.65 3.5 4.25 3.5 3.45 4.25 3.25 L6.05 3.05" fill="#c79b68" fill-rule="evenodd" stroke="none"/>
      <path d="M2.2 -2.3 L2.9 -2.55 2.95 -2.35 2.9 -2.15 2.7 -2.0 2.65 -2.0 2.25 -1.65 2.25 -1.35 2.2 -1.25 1.75 -1.15 1.75 -1.1 1.5 -1.0 Q1.15 -1.0 1.15 -1.55 1.15 -1.95 1.5 -2.1 L1.55 -2.1 2.2 -2.3" fill="#000000" fill-rule="evenodd" stroke="none"/>
      <path d="M4.35 5.45 L4.45 5.6 4.3 6.0 4.2 6.05 3.45 6.05 3.45 6.0 3.4 6.0 2.0 6.05 1.8 6.05 Q1.9 5.9 2.15 5.85 L2.6 5.65 2.8 5.6 2.75 5.55 3.3 5.45 3.55 5.65 3.7 5.6 3.85 5.55 4.0 5.5 4.25 5.45 4.35 5.45 M3.45 6.05 L3.4 6.05 3.45 6.05" fill="#ebbb98" fill-rule="evenodd" stroke="none"/>
      <path d="M2.55 6.75 L2.55 7.6 1.65 7.6 0.95 8.05 0.5 7.95 0.35 7.5 -0.45 7.65 -0.85 7.35 -0.85 7.05 -0.6 6.7 -0.15 6.5 0.5 6.85 1.65 6.55 1.8 7.0 2.55 6.75 M-1.0 7.35 L-2.1 7.1 -2.55 6.4 -1.3 6.35 -0.85 7.05 -1.0 7.35" fill="#ffffff" fill-rule="evenodd" stroke="none"/>
      <path d="M3.85 -3.55 L3.65 -3.45 3.25 -3.35 1.95 -2.95 0.3 -2.5 -0.75 -2.4 -0.6 -2.5 -0.2 -2.8 0.05 -2.95 Q1.5 -3.95 3.25 -4.1 L3.5 -4.15 3.9 -3.9 Q4.35 -3.65 3.85 -3.55" fill="#f5de71" fill-rule="evenodd" stroke="none"/>
    </g>
  </defs>
</svg>
