<?xml version="1.0" encoding="UTF-8" standalone="no"?>
<svg xmlns:ffdec="https://www.free-decompiler.com/flash" xmlns:xlink="http://www.w3.org/1999/xlink" ffdec:objectType="frame" height="166.85px" width="26.0px" xmlns="http://www.w3.org/2000/svg">
  <g transform="matrix(1.0, 0.0, 0.0, 1.0, 13.0, 83.5)">
    <use ffdec:characterId="3046" height="62.0" transform="matrix(1.0, 0.0, 0.0, 1.0, -9.1, -31.0)" width="18.2" xlink:href="#shape0"/>
  </g>
  <defs>
    <g id="shape0" transform="matrix(1.0, 0.0, 0.0, 1.0, 9.1, 31.0)">
      <path d="M7.25 6.25 L6.65 13.3 Q6.3 15.2 4.5 15.5 L1.5 15.5 1.5 27.75 1.0 27.95 0.8 28.25 0.75 28.5 1.0 29.0 1.5 29.25 1.5 29.5 1.05 30.55 0.5 30.9 0.0 31.0 -0.5 30.9 -1.05 30.55 -1.5 29.5 -1.5 29.25 -1.45 29.25 -0.95 29.0 -0.75 28.5 -0.8 28.25 -0.95 27.95 -1.5 27.75 -1.5 15.5 -4.5 15.5 Q-6.3 15.2 -6.65 13.3 L-7.25 6.25 -7.65 4.85 Q-8.15 4.0 -9.1 3.5 -8.2 3.75 -7.6 4.45 -7.05 5.1 -6.8 6.25 L-5.2 12.65 Q-5.05 13.35 -3.5 13.5 L-1.45 13.5 -0.1 -31.0 0.15 -31.0 1.5 13.5 3.5 13.5 Q5.05 13.35 5.2 12.65 L6.8 6.25 Q7.05 5.05 7.7 4.35 8.25 3.7 9.1 3.5 8.15 4.0 7.7 4.85 7.35 5.45 7.25 6.25" fill="#00ff00" fill-rule="evenodd" stroke="none"/>
    </g>
  </defs>
</svg>
