<?xml version="1.0" encoding="UTF-8" standalone="no"?>
<svg xmlns:ffdec="https://www.free-decompiler.com/flash" xmlns:xlink="http://www.w3.org/1999/xlink" ffdec:objectType="frame" height="166.85px" width="26.0px" xmlns="http://www.w3.org/2000/svg">
  <g transform="matrix(1.0, 0.0, 0.0, 1.0, 13.0, 83.5)">
    <use ffdec:characterId="3037" height="86.15" transform="matrix(1.0, 0.0, 0.0, 1.0, -4.05, -43.15)" width="8.0" xlink:href="#shape0"/>
  </g>
  <defs>
    <g id="shape0" transform="matrix(1.0, 0.0, 0.0, 1.0, 4.05, 43.15)">
      <path d="M3.95 -43.15 L3.65 -39.8 Q1.3 -11.05 1.4 17.35 L1.5 20.75 2.1 20.75 2.8 20.75 3.45 20.75 3.85 21.1 3.45 21.3 2.8 21.3 2.1 21.3 1.75 21.3 1.7 21.75 Q0.95 32.8 1.4 41.7 L1.4 42.0 1.5 42.3 1.4 42.4 1.0 42.8 0.15 43.0 Q-1.1 43.1 -1.35 42.7 L-1.4 42.2 -1.4 42.05 -1.4 41.95 Q-2.0 32.2 -1.65 21.75 L-1.55 21.3 -3.55 21.3 -3.9 21.2 -4.05 21.1 -3.55 20.75 -1.1 20.75 -1.15 17.35 Q-1.2 4.2 -0.6 -8.95 0.15 -22.75 1.8 -39.6 L1.95 -40.65 Q2.4 -41.75 3.2 -42.55 L3.95 -43.15" fill="#00ff00" fill-rule="evenodd" stroke="none"/>
    </g>
  </defs>
</svg>
