<?xml version="1.0" encoding="UTF-8" standalone="no"?>
<svg xmlns:ffdec="https://www.free-decompiler.com/flash" xmlns:xlink="http://www.w3.org/1999/xlink" ffdec:objectType="frame" height="166.85px" width="26.0px" xmlns="http://www.w3.org/2000/svg">
  <g transform="matrix(1.0, 0.0, 0.0, 1.0, 13.0, 83.5)">
    <use ffdec:characterId="3039" height="33.95" transform="matrix(1.0, 0.0, 0.0, 1.0, -5.0, -17.0)" width="10.0" xlink:href="#shape0"/>
  </g>
  <defs>
    <g id="shape0" transform="matrix(1.0, 0.0, 0.0, 1.0, 5.0, 17.0)">
      <path d="M3.7 -15.55 L4.05 -15.5 4.2 -15.5 4.45 -15.4 4.6 -15.35 4.7 -15.35 4.7 3.25 4.35 3.25 4.35 4.05 4.65 4.05 Q5.25 9.5 4.75 12.35 4.6 14.1 3.75 15.65 L2.8 16.65 2.45 16.85 Q1.9 17.05 1.45 16.85 L0.85 16.4 Q-0.25 15.2 0.5 13.8 L1.0 12.35 1.65 4.05 1.85 4.05 1.7 3.25 -4.9 3.25 -5.0 -2.2 -4.75 -7.05 -4.4 -10.55 -4.05 -13.0 -3.25 -17.0 -1.5 -16.6 -0.5 -16.4 1.4 -16.0 3.7 -15.55 M2.95 -13.95 Q3.05 -13.8 3.3 -13.8 L3.65 -13.9 3.7 -13.95 3.85 -14.35 3.7 -14.75 3.3 -14.9 3.15 -14.9 2.95 -14.75 2.75 -14.35 2.95 -13.95" fill="#00ff00" fill-rule="evenodd" stroke="none"/>
    </g>
  </defs>
</svg>
