<?xml version="1.0" encoding="UTF-8" standalone="no"?>
<svg xmlns:ffdec="https://www.free-decompiler.com/flash" xmlns:xlink="http://www.w3.org/1999/xlink" ffdec:objectType="frame" height="166.85px" width="26.0px" xmlns="http://www.w3.org/2000/svg">
  <g transform="matrix(1.0, 0.0, 0.0, 1.0, 13.0, 83.5)">
    <use ffdec:characterId="3042" height="166.85" transform="matrix(1.0, 0.0, 0.0, 1.0, -6.9, -83.5)" width="16.9" xlink:href="#shape0"/>
  </g>
  <defs>
    <g id="shape0" transform="matrix(1.0, 0.0, 0.0, 1.0, 6.9, 83.5)">
      <path d="M2.35 -61.95 Q3.2 -61.05 2.5 -60.05 1.95 -59.05 1.45 -59.0 L2.15 -57.9 1.75 -57.3 2.45 -56.55 5.6 -55.5 4.2 -55.05 5.2 -53.8 5.5 -53.6 7.4 -51.2 8.0 -50.5 10.0 -50.85 8.2 -49.95 8.35 -49.2 8.45 -48.0 7.7 -45.95 7.15 -49.65 6.45 -49.25 6.5 -48.55 7.15 -46.15 6.8 -43.75 6.35 -45.85 5.95 -43.4 5.95 -43.5 5.55 -42.7 5.55 -45.5 5.5 -45.3 3.3 -49.2 4.0 -47.9 3.85 -46.1 3.8 -46.15 Q2.8 -47.5 1.25 -48.55 L1.9 -43.95 0.95 -45.7 0.9 82.0 -0.35 83.25 Q-1.35 83.75 -2.1 82.0 -0.65 26.1 -0.7 -37.8 L-0.7 -40.55 -0.65 -46.7 -2.25 -40.95 -2.4 -42.7 -1.4 -46.0 -2.75 -51.15 -2.95 -50.95 Q-3.1 -50.8 -3.3 -50.8 L-5.2 -45.5 -3.8 -50.8 -4.85 -50.6 -5.55 -49.35 -5.5 -50.6 -6.35 -50.7 -6.9 -51.5 -5.2 -51.2 -1.55 -54.45 -1.7 -55.05 -3.25 -55.15 -1.15 -56.65 -1.3 -56.9 Q-2.75 -56.2 -4.1 -56.0 -5.5 -55.85 -6.35 -56.65 L-1.35 -57.1 -1.35 -57.25 -1.1 -57.25 -1.7 -57.85 -1.5 -58.8 -2.95 -61.25 -1.4 -62.65 -0.7 -62.65 -0.8 -66.05 -0.8 -69.25 -2.4 -74.6 -0.45 -83.0 -0.25 -83.5 2.1 -74.5 0.9 -69.25 0.9 -62.7 Q1.8 -62.45 2.35 -61.95" fill="#00ff00" fill-rule="evenodd" stroke="none"/>
    </g>
  </defs>
</svg>
