<?xml version="1.0" encoding="UTF-8" standalone="no"?>
<svg xmlns:ffdec="https://www.free-decompiler.com/flash" xmlns:xlink="http://www.w3.org/1999/xlink" ffdec:objectType="frame" height="15.0px" width="15.0px" xmlns="http://www.w3.org/2000/svg">
  <g transform="matrix(1.0, 0.0, 0.0, 1.0, 7.5, 7.5)">
    <use ffdec:characterId="403" height="15.0" transform="matrix(1.0, 0.0, 0.0, 1.0, -7.5, -7.5)" width="15.0" xlink:href="#shape0"/>
  </g>
  <defs>
    <g id="shape0" transform="matrix(1.0, 0.0, 0.0, 1.0, 7.5, 7.5)">
      <path d="M5.25 -5.35 Q7.5 -3.1 7.5 0.0 7.5 3.1 5.25 5.3 3.1 7.5 0.0 7.5 -3.1 7.5 -5.35 5.3 -7.5 3.1 -7.5 0.0 -7.5 -3.1 -5.35 -5.35 -3.1 -7.5 0.0 -7.5 3.1 -7.5 5.25 -5.35" fill="url(#gradient0)" fill-rule="evenodd" stroke="none"/>
      <path d="M4.2 -4.3 Q6.0 -2.5 6.0 0.0 6.0 2.5 4.2 4.25 2.5 6.0 0.0 6.0 -2.5 6.0 -4.3 4.25 -6.0 2.5 -6.0 0.0 -6.0 -2.5 -4.3 -4.3 -2.5 -6.0 0.0 -6.0 2.5 -6.0 4.2 -4.3" fill="url(#gradient1)" fill-rule="evenodd" stroke="none"/>
      <path d="M3.15 -3.2 Q4.5 -1.85 4.5 0.0 4.5 1.85 3.15 3.2 1.85 4.5 0.0 4.5 -1.85 4.5 -3.2 3.2 -4.5 1.85 -4.5 0.0 -4.5 -1.85 -3.2 -3.2 -1.85 -4.5 0.0 -4.5 1.85 -4.5 3.15 -3.2" fill="url(#gradient2)" fill-rule="evenodd" stroke="none"/>
      <path d="M1.4 -1.45 Q2.0 -0.85 2.0 0.0 2.0 0.85 1.4 1.4 0.85 2.0 0.0 2.0 -0.85 2.0 -1.45 1.4 -2.0 0.85 -2.0 0.0 -2.0 -0.85 -1.45 -1.45 -0.85 -2.0 0.0 -2.0 0.85 -2.0 1.4 -1.45" fill="url(#gradient3)" fill-rule="evenodd" stroke="none"/>
    </g>
    <linearGradient gradientTransform="matrix(0.0, -0.0092, 0.0092, 0.0, 0.0, 0.0)" gradientUnits="userSpaceOnUse" id="gradient0" spreadMethod="pad" x1="-819.2" x2="819.2">
      <stop offset="0.0" stop-color="#8e8e8e"/>
      <stop offset="1.0" stop-color="#e6e6e6"/>
    </linearGradient>
    <linearGradient gradientTransform="matrix(0.0, 0.0073, -0.0073, 0.0, 0.0, 0.0)" gradientUnits="userSpaceOnUse" id="gradient1" spreadMethod="pad" x1="-819.2" x2="819.2">
      <stop offset="0.0" stop-color="#8e8e8e"/>
      <stop offset="1.0" stop-color="#e6e6e6"/>
    </linearGradient>
    <linearGradient gradientTransform="matrix(0.0, -0.0058, 0.0092, 0.0, 0.0, 0.0)" gradientUnits="userSpaceOnUse" id="gradient2" spreadMethod="pad" x1="-819.2" x2="819.2">
      <stop offset="0.0" stop-color="#8e8e8e"/>
      <stop offset="1.0" stop-color="#e6e6e6"/>
    </linearGradient>
    <linearGradient gradientTransform="matrix(0.0, 0.0024, -0.0024, 0.0, 0.0, 0.0)" gradientUnits="userSpaceOnUse" id="gradient3" spreadMethod="pad" x1="-819.2" x2="819.2">
      <stop offset="0.0" stop-color="#8e8e8e"/>
      <stop offset="1.0" stop-color="#e6e6e6"/>
    </linearGradient>
  </defs>
</svg>
