<?xml version="1.0" encoding="UTF-8" standalone="no"?>
<svg xmlns:ffdec="https://www.free-decompiler.com/flash" xmlns:xlink="http://www.w3.org/1999/xlink" ffdec:objectType="frame" height="80.0px" width="44.8px" xmlns="http://www.w3.org/2000/svg">
  <g transform="matrix(1.0, 0.0, 0.0, 1.0, 14.55, 84.55)">
    <use ffdec:characterId="1497" ffdec:characterName="game_fla.head_702" height="80.0" id="head" transform="matrix(1.0, 0.0, 0.0, 1.0, -14.55, -84.55)" width="44.8" xlink:href="#sprite0"/>
  </g>
  <defs>
    <g id="sprite0" transform="matrix(1.0, 0.0, 0.0, 1.0, 22.3, 47.5)">
      <use ffdec:characterId="1483" height="24.6" transform="matrix(1.0, 0.0, 0.0, 1.0, -15.35, 5.8)" width="21.85" xlink:href="#sprite1"/>
      <use ffdec:characterId="1485" height="33.85" transform="matrix(1.0, 0.0, 0.0, 1.0, -15.2, -16.35)" width="30.3" xlink:href="#sprite2"/>
      <use ffdec:characterId="1486" height="17.95" transform="matrix(1.0, 0.0, 0.0, 1.0, -20.1, 14.55)" width="29.05" xlink:href="#shape2"/>
      <use ffdec:characterId="1111" height="100.0" id="shape" transform="matrix(0.32, 0.0, 0.0, 0.32, -16.0004, -16.0004)" width="100.0" xlink:href="#sprite3"/>
    </g>
    <g id="sprite1" transform="matrix(1.0, 0.0, 0.0, 1.0, 12.1, 12.4)">
      <use ffdec:characterId="1482" height="24.6" transform="matrix(1.0, 0.0, 0.0, 1.0, -12.1, -12.4)" width="21.85" xlink:href="#shape0"/>
    </g>
    <g id="shape0" transform="matrix(1.0, 0.0, 0.0, 1.0, 12.1, 12.4)">
      <path d="M-4.05 -11.6 Q-2.45 -12.8 -0.7 -12.15 L2.65 -10.65 Q3.7 -10.05 4.55 -9.75 6.95 -8.85 8.65 -7.2 L8.85 -6.95 Q9.5 -6.15 9.0 -5.35 L8.45 -4.35 7.9 -2.85 7.6 -1.7 7.6 -1.4 7.65 1.25 7.1 2.6 6.5 3.45 6.35 3.8 6.4 5.25 6.7 6.75 Q6.15 5.95 5.9 5.15 L4.8 2.7 2.9 -0.85 1.9 -2.25 0.25 -3.85 -0.65 -4.5 -1.15 -6.1 Q-1.25 -6.95 -1.95 -8.35 L-4.05 -11.6 M4.1 7.75 Q0.65 6.1 -0.75 5.8 L-1.25 5.75 Q-1.0 3.15 -3.4 -0.85 1.95 3.4 4.1 7.75" fill="#e2b181" fill-rule="evenodd" stroke="none"/>
      <path d="M-4.05 -11.6 L-1.95 -8.35 Q-1.25 -6.95 -1.15 -6.1 L-0.65 -4.5 0.25 -3.85 1.9 -2.25 2.9 -0.85 4.8 2.7 5.9 5.15 Q6.15 5.95 6.7 6.75 L6.4 5.25 6.35 3.8 6.5 3.45 6.75 4.05 7.6 5.6 9.75 12.2 7.1 9.65 4.1 7.75 Q1.95 3.4 -3.4 -0.85 -1.0 3.15 -1.25 5.75 L-4.4 5.3 Q-6.9 5.15 -9.35 5.3 L-11.75 5.45 -12.1 5.7 -11.75 3.8 -10.15 -0.25 -7.55 -6.2 -6.05 -9.75 -5.95 -9.9 -5.8 -10.05 -5.05 -10.7 -4.05 -11.6" fill="#ffcc99" fill-rule="evenodd" stroke="none"/>
    </g>
    <g id="sprite2" transform="matrix(1.0, 0.0, 0.0, 1.0, 15.35, 16.75)">
      <use ffdec:characterId="1484" height="33.85" transform="matrix(1.0, 0.0, 0.0, 1.0, -15.35, -16.75)" width="30.3" xlink:href="#shape1"/>
    </g>
    <g id="shape1" transform="matrix(1.0, 0.0, 0.0, 1.0, 15.35, 16.75)">
      <path d="M-5.25 5.75 L-5.85 7.3 Q-6.25 8.7 -6.1 10.35 L-6.05 11.25 -10.25 11.35 -11.0 11.25 -13.75 3.95 -14.0 3.6 -14.75 1.8 -14.95 0.7 -15.35 -2.65 Q-15.45 -4.15 -14.7 -6.8 -14.0 -9.5 -12.9 -10.7 L-12.85 -10.85 Q-12.2 -12.6 -10.2 -13.3 L-9.4 -13.6 -7.35 -15.1 -4.8 -16.4 -0.8 -16.7 Q2.25 -17.0 6.75 -15.4 11.25 -13.85 12.9 -9.45 L12.75 -9.2 Q10.75 -10.1 8.6 -10.45 L5.7 -10.1 5.45 -10.25 1.9 -11.5 -1.45 -12.1 Q2.55 -11.45 4.6 -8.8 L4.25 -7.15 4.35 -6.5 2.9 -4.0 2.1 -2.45 Q1.6 -1.6 1.65 -0.1 L1.65 3.3 1.5 3.3 -0.4 3.7 Q-0.8 3.55 -0.8 2.4 L-0.85 -0.75 Q-0.9 -2.8 -3.4 -2.8 -4.35 -2.8 -4.9 -2.4 L-5.5 -1.7 Q-5.9 -0.9 -5.5 1.9 L-5.45 2.2 -4.8 3.1 -4.55 4.0 -5.25 5.75 M12.25 -0.8 L11.85 -0.8 11.15 -0.9 9.25 -0.8 7.15 -0.4 6.6 -0.4 6.15 -0.45 6.95 -1.0 9.05 -1.7 11.5 -2.0 Q12.55 -1.95 12.45 -1.15 L12.25 -0.8" fill="#1c1917" fill-rule="evenodd" stroke="none"/>
      <path d="M12.75 -9.2 L12.95 -8.5 13.25 -7.0 13.25 -6.8 13.35 -3.3 13.3 -2.15 13.2 -0.7 Q13.05 2.0 14.45 4.55 L14.95 5.75 14.9 6.25 13.15 6.5 11.8 6.45 11.3 6.65 10.75 6.85 10.7 6.85 10.9 7.5 11.25 8.25 12.55 9.75 12.55 9.9 12.55 10.15 Q11.3 10.2 10.25 10.75 L9.45 11.05 10.7 11.05 12.3 10.85 12.25 10.9 12.5 11.45 12.5 11.55 12.35 12.1 11.6 13.55 11.65 13.7 11.7 14.35 11.7 14.7 11.55 15.55 10.8 16.7 Q10.2 17.25 7.9 17.05 L7.5 17.05 4.35 15.8 Q1.55 14.3 0.25 14.0 -1.45 13.5 -2.1 10.4 L-2.8 8.2 -3.15 7.4 -3.7 6.05 -3.35 6.0 -2.55 5.8 -3.5 5.65 -4.1 5.15 -4.45 4.55 -4.55 4.0 -4.8 3.1 -5.45 2.2 -5.5 1.9 Q-5.9 -0.9 -5.5 -1.7 L-4.9 -2.4 Q-4.35 -2.8 -3.4 -2.8 -0.9 -2.8 -0.85 -0.75 L-0.8 2.4 Q-0.8 3.55 -0.4 3.7 L1.5 3.3 1.65 3.3 1.65 -0.1 Q1.6 -1.6 2.1 -2.45 L2.9 -4.0 4.35 -6.5 4.25 -7.15 4.6 -8.8 Q2.55 -11.45 -1.45 -12.1 L1.9 -11.5 5.45 -10.25 5.7 -10.1 8.6 -10.45 Q10.75 -10.1 12.75 -9.2 M-1.8 -0.35 Q-1.8 -2.0 -3.35 -1.85 -4.9 -1.75 -4.9 -0.75 L-4.95 -0.3 -4.8 0.5 -4.7 0.5 -4.5 -0.35 Q-4.15 -1.05 -3.1 -1.05 -2.55 -1.05 -2.4 -0.45 L-2.3 0.3 -2.8 0.3 Q-3.95 0.25 -3.95 0.95 L-3.75 1.25 -3.4 1.55 -3.4 1.7 -3.3 1.95 -3.4 2.4 Q-3.4 2.9 -2.8 2.9 -2.25 2.9 -2.25 2.5 -2.35 1.85 -2.7 1.8 L-3.05 1.35 -2.8 1.2 -2.7 1.15 Q-2.0 1.05 -1.9 0.75 L-1.8 -0.35 M6.6 -0.4 L6.5 -0.2 6.3 0.6 Q6.8 0.75 7.3 1.65 7.75 2.5 8.3 2.6 9.3 2.75 9.7 4.85 11.65 2.3 12.3 -0.75 L12.25 -0.8 12.45 -1.15 Q12.55 -1.95 11.5 -2.0 L9.05 -1.7 6.95 -1.0 6.15 -0.45 6.6 -0.4" fill="#ffcc99" fill-rule="evenodd" stroke="none"/>
      <path d="M14.9 6.25 L14.25 6.95 13.6 7.4 12.45 7.8 12.35 8.3 12.45 8.9 12.55 9.75 11.25 8.25 10.9 7.5 10.7 6.85 10.75 6.85 11.3 6.65 11.8 6.45 13.15 6.5 14.9 6.25 M12.55 10.15 L12.3 10.85 10.7 11.05 9.45 11.05 10.25 10.75 Q11.3 10.2 12.55 10.15 M-3.7 6.05 L-5.05 5.8 -5.25 5.75 -4.55 4.0 -4.45 4.55 -4.1 5.15 -3.5 5.65 -2.55 5.8 -3.35 6.0 -3.7 6.05 M-1.8 -0.35 L-1.9 0.75 Q-2.0 1.05 -2.7 1.15 L-2.8 1.2 -3.05 1.35 -2.7 1.8 Q-2.35 1.85 -2.25 2.5 -2.25 2.9 -2.8 2.9 -3.4 2.9 -3.4 2.4 L-3.3 1.95 -3.4 1.7 -3.4 1.55 -3.75 1.25 -3.95 0.95 Q-3.95 0.25 -2.8 0.3 L-2.3 0.3 -2.4 -0.45 Q-2.55 -1.05 -3.1 -1.05 -4.15 -1.05 -4.5 -0.35 L-4.7 0.5 -4.8 0.5 -4.95 -0.3 -4.9 -0.75 Q-4.9 -1.75 -3.35 -1.85 -1.8 -2.0 -1.8 -0.35 M6.6 -0.4 L7.15 -0.4 9.25 -0.8 11.15 -0.9 11.85 -0.8 12.25 -0.8 12.3 -0.75 Q11.65 2.3 9.7 4.85 9.3 2.75 8.3 2.6 7.75 2.5 7.3 1.65 6.8 0.75 6.3 0.6 L6.5 -0.2 6.6 -0.4 M10.65 0.85 Q10.9 0.15 10.65 0.2 L9.75 0.45 8.05 1.05 8.75 1.15 9.35 1.1 9.45 1.6 9.65 1.95 10.0 1.8 10.65 0.85" fill="#c79b68" fill-rule="evenodd" stroke="none"/>
      <path d="M10.65 0.85 L10.0 1.8 9.65 1.95 9.45 1.6 9.35 1.1 8.75 1.15 8.05 1.05 9.75 0.45 10.65 0.2 Q10.9 0.15 10.65 0.85" fill="#000000" fill-rule="evenodd" stroke="none"/>
    </g>
    <g id="shape2" transform="matrix(1.0, 0.0, 0.0, 1.0, 20.1, -14.55)">
      <path d="M7.55 30.65 L7.3 32.5 7.0 32.0 Q4.95 30.1 1.55 29.35 L-1.65 28.55 -16.1 27.8 Q-17.15 27.85 -19.85 28.9 L-20.1 28.95 -19.15 25.25 -18.8 23.05 -18.1 19.6 Q-17.55 17.25 -16.45 16.0 L-15.9 15.45 Q-15.2 14.85 -14.3 14.65 -11.5 14.0 -4.0 17.0 3.5 20.0 8.95 22.8 8.45 22.9 8.1 26.1 L7.55 30.65" fill="#a83636" fill-rule="evenodd" stroke="none"/>
    </g>
    <g id="sprite3" transform="matrix(1.0, 0.0, 0.0, 1.0, 50.0, 50.0)">
      <use ffdec:characterId="1110" height="100.0" transform="matrix(1.0, 0.0, 0.0, 1.0, -50.0, -50.0)" width="100.0" xlink:href="#shape3"/>
    </g>
    <g id="shape3" transform="matrix(1.0, 0.0, 0.0, 1.0, 50.0, 50.0)">
      <path d="M35.35 -35.35 Q50.0 -20.7 50.0 0.0 50.0 20.7 35.35 35.35 20.7 50.0 0.0 50.0 -20.7 50.0 -35.35 35.35 -50.0 20.7 -50.0 0.0 -50.0 -20.7 -35.35 -35.35 -20.7 -50.0 0.0 -50.0 20.7 -50.0 35.35 -35.35 Z" fill="none" stroke="#9900ff" stroke-linecap="round" stroke-linejoin="round" stroke-width="0.05"/>
    </g>
  </defs>
</svg>
