<?xml version="1.0" encoding="UTF-8" standalone="no"?>
<svg xmlns:ffdec="https://www.free-decompiler.com/flash" xmlns:xlink="http://www.w3.org/1999/xlink" ffdec:objectType="frame" height="210.0px" width="106.55px" xmlns="http://www.w3.org/2000/svg">
  <g transform="matrix(1.0, 0.0, 0.0, 1.0, 2.0, 10.0)">
    <use ffdec:characterId="2643" height="210.0" transform="matrix(1.0, 0.0, 0.0, 1.0, -2.0, -10.0)" width="11.0" xlink:href="#shape0"/>
    <use ffdec:characterId="2644" height="51.95" transform="matrix(1.0, 0.0, 0.0, 1.0, 9.75, -1.4)" width="91.0" xlink:href="#shape1"/>
  </g>
  <defs>
    <g id="shape0" transform="matrix(1.0, 0.0, 0.0, 1.0, 2.0, 10.0)">
      <path d="M4.45 -10.0 L9.0 -10.0 9.0 0.0 7.0 0.0 4.5 0.0 4.45 0.0 4.45 -10.0 M-0.05 0.0 L-2.0 0.0 -2.0 -10.0 -0.05 -10.0 -0.05 0.0" fill="#cccccc" fill-rule="evenodd" stroke="none"/>
      <path d="M0.0 0.0 L-0.05 0.0 -0.05 -10.0 4.45 -10.0 4.45 0.0 1.5 0.0 0.0 0.0" fill="#666666" fill-rule="evenodd" stroke="none"/>
      <path d="M7.0 0.0 L7.0 200.0 4.5 200.0 4.5 0.0 7.0 0.0 M1.5 200.0 L0.0 200.0 0.0 0.0 1.5 0.0 1.5 200.0" fill="#c5bab1" fill-rule="evenodd" stroke="none"/>
      <path d="M4.5 200.0 L1.5 200.0 1.5 0.0 4.45 0.0 4.5 0.0 4.5 200.0" fill="#a7998b" fill-rule="evenodd" stroke="none"/>
    </g>
    <g id="shape1" transform="matrix(1.0, 0.0, 0.0, 1.0, -9.75, 1.4)">
      <path d="M12.5 10.85 L9.75 -0.05 10.5 -0.35 Q14.7 -1.55 18.95 -1.4 L21.25 -1.2 Q23.55 3.8 25.0 9.65 L21.75 9.5 18.95 9.7 Q16.2 10.0 12.5 10.85 M33.45 2.9 L39.5 6.0 41.4 6.9 43.7 7.75 Q44.9 11.2 47.05 15.55 51.9 17.15 56.05 18.0 L56.5 18.8 59.1 23.3 57.95 23.0 Q54.15 22.0 49.85 21.35 51.15 24.75 51.55 28.85 L53.1 28.95 61.25 30.0 61.75 30.1 Q62.9 34.2 63.4 38.4 L67.35 38.95 74.55 39.95 74.75 41.25 Q75.6 47.25 76.3 50.5 L73.15 50.55 63.1 49.3 63.4 47.9 Q63.75 46.75 63.75 44.5 63.75 41.45 63.4 38.4 L61.45 38.15 56.35 37.75 51.25 37.85 51.75 32.75 51.55 28.85 Q47.3 28.55 44.55 28.9 L40.75 29.2 Q40.65 24.5 39.75 20.3 L49.85 21.35 48.65 18.75 47.05 15.55 43.05 14.15 Q39.95 13.0 37.05 12.1 L38.15 14.65 Q39.15 17.35 39.75 20.3 L30.6 20.0 26.8 20.0 Q27.25 24.25 27.25 28.6 L27.25 29.75 36.85 29.25 40.75 29.2 40.75 30.25 Q40.75 32.95 39.75 38.15 L51.25 37.85 50.75 40.75 Q49.95 45.25 49.8 47.55 L38.0 47.55 Q38.35 44.7 39.25 40.5 L39.75 38.15 26.6 39.1 26.35 41.05 25.5 48.35 18.95 49.35 12.8 50.3 Q13.65 44.45 14.4 40.7 L18.95 40.2 24.4 39.4 26.6 39.1 27.25 29.75 27.1 29.75 18.95 30.25 17.5 30.25 16.0 30.25 Q15.95 26.4 14.9 20.9 L18.95 20.35 22.55 20.05 26.8 20.0 Q26.4 16.05 25.6 12.25 L25.0 9.65 Q30.45 10.1 37.05 12.1 34.9 7.0 33.45 2.9 M52.5 9.8 Q58.45 10.6 64.5 9.8 L64.5 10.1 Q64.5 13.8 65.8 18.7 L71.65 18.25 77.95 17.45 Q77.45 15.65 77.25 14.0 L77.25 7.65 82.0 7.75 89.55 7.0 89.65 8.65 91.45 14.55 Q89.4 14.5 86.95 15.2 L79.25 17.25 77.95 17.45 Q78.65 20.25 79.95 23.35 L80.8 25.45 86.8 24.35 93.65 23.0 94.85 27.65 95.75 32.2 94.4 32.4 88.6 33.35 84.1 33.5 Q84.95 36.4 85.8 40.7 L86.9 40.7 92.85 40.6 97.05 39.65 Q98.85 48.85 100.75 45.9 99.5 47.95 98.25 48.85 96.8 49.95 93.4 50.35 L87.5 50.4 86.0 41.9 85.8 40.7 78.85 40.45 74.55 39.95 Q73.65 34.45 71.75 31.85 L71.2 31.75 61.75 30.1 Q61.15 27.9 59.1 23.3 L67.9 25.2 66.7 21.8 65.8 18.7 63.35 18.75 56.05 18.0 Q53.25 13.0 52.5 9.8 M83.5 31.75 L80.8 25.45 76.6 26.0 67.9 25.2 Q69.55 29.3 71.25 31.25 L71.75 31.85 Q79.45 33.3 84.1 33.5 L83.5 31.75" fill="#000000" fill-rule="evenodd" stroke="none"/>
      <path d="M21.25 -1.2 Q25.8 -0.65 30.4 1.4 L33.45 2.9 Q34.9 7.0 37.05 12.1 30.45 10.1 25.0 9.65 23.55 3.8 21.25 -1.2 M43.7 7.75 L44.25 7.95 Q48.35 9.25 52.5 9.8 53.25 13.0 56.05 18.0 L63.35 18.75 65.8 18.7 Q64.5 13.8 64.5 10.1 L64.5 9.8 70.15 8.75 74.2 8.0 77.25 7.65 77.25 14.0 Q77.45 15.65 77.95 17.45 L71.65 18.25 65.8 18.7 66.7 21.8 67.9 25.2 59.1 23.3 Q61.15 27.9 61.75 30.1 L71.2 31.75 71.75 31.85 Q73.65 34.45 74.55 39.95 L78.85 40.45 85.8 40.7 Q84.95 36.4 84.1 33.5 L88.6 33.35 94.4 32.4 95.75 32.2 96.3 35.55 97.05 39.65 92.85 40.6 86.9 40.7 85.8 40.7 86.0 41.9 87.5 50.4 76.3 50.5 Q75.6 47.25 74.75 41.25 L74.55 39.95 67.35 38.95 63.4 38.4 Q62.9 34.2 61.75 30.1 L61.25 30.0 53.1 28.95 51.55 28.85 Q51.15 24.75 49.85 21.35 54.15 22.0 57.95 23.0 L59.1 23.3 56.5 18.8 56.05 18.0 Q51.9 17.15 47.05 15.55 L48.65 18.75 49.85 21.35 39.75 20.3 Q40.65 24.5 40.75 29.2 L44.55 28.9 Q47.3 28.55 51.55 28.85 L51.75 32.75 51.25 37.85 56.35 37.75 61.45 38.15 63.4 38.4 Q63.75 41.45 63.75 44.5 63.75 46.75 63.4 47.9 L63.1 49.3 62.3 49.15 59.55 48.65 Q53.85 47.55 50.4 47.55 L49.8 47.55 Q49.95 45.25 50.75 40.75 L51.25 37.85 39.75 38.15 Q40.75 32.95 40.75 30.25 L40.75 29.2 36.85 29.25 27.25 29.75 27.25 28.6 Q27.25 24.25 26.8 20.0 L30.6 20.0 39.75 20.3 Q39.15 17.35 38.15 14.65 L37.05 12.1 Q39.95 13.0 43.05 14.15 L47.05 15.55 Q44.9 11.2 43.7 7.75 M91.45 14.55 L93.65 23.0 86.8 24.35 80.8 25.45 79.95 23.35 Q78.65 20.25 77.95 17.45 L79.25 17.25 86.95 15.2 Q89.4 14.5 91.45 14.55 M38.0 47.55 L31.55 47.55 25.5 48.35 26.35 41.05 26.6 39.1 39.75 38.15 39.25 40.5 Q38.35 44.7 38.0 47.55 M14.4 40.7 Q16.0 32.65 16.0 30.75 L16.0 30.25 17.5 30.25 18.95 30.25 27.1 29.75 27.25 29.75 26.6 39.1 24.4 39.4 18.95 40.2 14.4 40.7 M14.9 20.9 L12.8 11.95 12.5 10.85 Q16.2 10.0 18.95 9.7 L21.75 9.5 25.0 9.65 25.6 12.25 Q26.4 16.05 26.8 20.0 L22.55 20.05 18.95 20.35 14.9 20.9 M83.5 31.75 L84.1 33.5 Q79.45 33.3 71.75 31.85 L71.25 31.25 Q69.55 29.3 67.9 25.2 L76.6 26.0 80.8 25.45 83.5 31.75" fill="#ffffff" fill-rule="evenodd" stroke="none"/>
    </g>
  </defs>
</svg>
