<?xml version="1.0" encoding="UTF-8" standalone="no"?>
<svg xmlns:ffdec="https://www.free-decompiler.com/flash" xmlns:xlink="http://www.w3.org/1999/xlink" ffdec:objectType="frame" height="210.0px" width="106.55px" xmlns="http://www.w3.org/2000/svg">
  <g transform="matrix(1.0, 0.0, 0.0, 1.0, 2.0, 10.0)">
    <use ffdec:characterId="2643" height="210.0" transform="matrix(1.0, 0.0, 0.0, 1.0, -2.0, -10.0)" width="11.0" xlink:href="#shape0"/>
    <use ffdec:characterId="2661" height="51.25" transform="matrix(1.0, 0.0, 0.0, 1.0, 9.75, -0.95)" width="93.5" xlink:href="#shape1"/>
  </g>
  <defs>
    <g id="shape0" transform="matrix(1.0, 0.0, 0.0, 1.0, 2.0, 10.0)">
      <path d="M4.45 -10.0 L9.0 -10.0 9.0 0.0 7.0 0.0 4.5 0.0 4.45 0.0 4.45 -10.0 M-0.05 0.0 L-2.0 0.0 -2.0 -10.0 -0.05 -10.0 -0.05 0.0" fill="#cccccc" fill-rule="evenodd" stroke="none"/>
      <path d="M0.0 0.0 L-0.05 0.0 -0.05 -10.0 4.45 -10.0 4.45 0.0 1.5 0.0 0.0 0.0" fill="#666666" fill-rule="evenodd" stroke="none"/>
      <path d="M7.0 0.0 L7.0 200.0 4.5 200.0 4.5 0.0 7.0 0.0 M1.5 200.0 L0.0 200.0 0.0 0.0 1.5 0.0 1.5 200.0" fill="#c5bab1" fill-rule="evenodd" stroke="none"/>
      <path d="M4.5 200.0 L1.5 200.0 1.5 0.0 4.45 0.0 4.5 0.0 4.5 200.0" fill="#a7998b" fill-rule="evenodd" stroke="none"/>
    </g>
    <g id="shape1" transform="matrix(1.0, 0.0, 0.0, 1.0, -9.75, 0.95)">
      <path d="M12.1 10.6 L10.9 4.7 9.75 -0.05 12.35 -0.6 Q16.85 -1.4 21.15 -0.4 L22.5 0.0 Q22.35 0.0 22.55 0.15 22.9 6.05 24.0 10.75 17.3 9.95 12.1 10.6 M33.95 3.5 L35.5 3.95 37.6 4.45 40.2 5.2 45.05 6.35 46.8 13.7 58.2 14.5 57.55 11.1 56.9 7.05 59.9 6.75 68.1 5.65 Q68.35 9.45 69.05 14.05 L77.95 12.2 80.6 11.3 Q79.95 7.2 79.65 3.05 L80.5 2.8 Q86.5 1.0 92.5 1.85 L92.85 3.4 93.6 7.6 Q85.15 9.6 80.6 11.3 81.2 15.65 82.1 19.95 85.9 18.8 90.4 16.9 92.5 15.95 94.25 15.45 L94.25 15.15 94.55 19.4 94.8 21.65 Q88.45 25.45 83.85 27.55 L86.05 35.0 90.25 33.1 Q94.05 31.2 96.5 29.2 L96.8 29.9 Q97.35 31.2 98.15 32.3 100.15 35.55 103.25 36.85 L98.8 39.35 95.35 41.1 92.85 42.0 88.9 43.2 Q87.35 39.1 86.05 35.0 80.35 37.2 74.2 37.95 L76.25 47.05 Q72.05 48.5 70.25 48.5 L63.85 48.2 63.2 42.85 62.55 38.4 73.35 38.05 74.2 37.95 72.4 30.55 Q68.15 30.9 63.2 30.55 L61.2 30.4 60.65 27.05 59.55 21.0 49.3 20.5 48.4 20.5 46.8 13.7 42.3 13.1 36.25 12.3 Q34.9 6.15 33.95 3.5 M51.0 46.5 L46.9 46.25 40.4 46.6 38.3 46.95 38.4 42.5 38.65 37.3 43.15 37.0 Q47.1 36.85 51.2 37.2 51.05 33.4 50.35 29.2 46.65 28.7 39.0 28.9 39.2 31.6 39.0 33.45 L38.65 37.3 26.45 38.75 25.6 44.15 25.1 48.5 12.8 50.3 14.7 40.55 24.5 39.0 26.45 38.75 27.25 29.65 23.45 30.15 17.6 31.0 16.5 30.95 16.5 30.5 Q16.5 28.35 15.15 20.25 L20.15 19.6 24.95 19.05 26.4 19.0 Q27.25 23.15 27.25 28.25 L27.25 29.65 37.8 28.95 39.0 28.9 Q38.75 25.15 37.75 19.7 L37.65 19.7 26.4 19.0 25.25 15.0 24.0 10.75 24.1 10.75 36.25 12.3 37.35 17.45 37.75 19.7 48.4 20.5 49.15 23.6 50.35 29.2 50.7 29.25 61.2 30.4 62.55 38.4 57.15 37.9 51.2 37.2 Q51.35 40.9 51.0 44.25 L51.0 46.5 M82.1 19.95 L77.55 21.05 70.4 21.6 Q71.2 25.65 72.35 30.2 L72.4 30.55 78.3 29.6 Q80.6 29.0 83.85 27.55 L82.1 19.95 M70.4 21.6 L69.05 14.05 61.45 14.55 58.2 14.5 59.55 21.0 61.65 21.2 70.4 21.6" fill="#000000" fill-rule="evenodd" stroke="none"/>
      <path d="M22.5 0.0 L22.55 0.0 33.15 3.35 33.95 3.5 Q34.9 6.15 36.25 12.3 L42.3 13.1 46.8 13.7 48.4 20.5 49.3 20.5 59.55 21.0 60.65 27.05 61.2 30.4 63.2 30.55 Q68.15 30.9 72.4 30.55 L74.2 37.95 73.35 38.05 62.55 38.4 63.2 42.85 63.85 48.2 57.0 47.55 51.0 46.5 51.0 44.25 Q51.35 40.9 51.2 37.2 L57.15 37.9 62.55 38.4 61.2 30.4 50.7 29.25 50.35 29.2 49.15 23.6 48.4 20.5 37.75 19.7 37.35 17.45 36.25 12.3 24.1 10.75 24.0 10.75 Q22.9 6.05 22.55 0.15 22.35 0.0 22.5 0.0 M45.05 6.35 L56.9 7.05 57.55 11.1 58.2 14.5 46.8 13.7 45.05 6.35 M68.1 5.65 L73.35 4.6 77.65 3.55 79.65 3.05 Q79.95 7.2 80.6 11.3 L77.95 12.2 69.05 14.05 Q68.35 9.45 68.1 5.65 M93.6 7.6 Q94.0 10.05 94.25 15.45 92.5 15.95 90.4 16.9 85.9 18.8 82.1 19.95 81.2 15.65 80.6 11.3 85.15 9.6 93.6 7.6 M94.8 21.65 L95.1 23.75 Q95.65 26.85 96.5 29.2 94.05 31.2 90.25 33.1 L86.05 35.0 83.85 27.55 Q88.45 25.45 94.8 21.65 M88.9 43.2 L83.5 44.75 81.25 45.3 76.3 47.0 76.25 47.05 74.2 37.95 Q80.35 37.2 86.05 35.0 87.35 39.1 88.9 43.2 M38.3 46.95 L25.1 48.5 25.6 44.15 26.45 38.75 38.65 37.3 39.0 33.45 Q39.2 31.6 39.0 28.9 46.65 28.7 50.35 29.2 51.05 33.4 51.2 37.2 47.1 36.85 43.15 37.0 L38.65 37.3 38.4 42.5 38.3 46.95 M14.7 40.55 L15.9 35.3 16.5 30.95 17.6 31.0 23.45 30.15 27.25 29.65 27.25 28.25 Q27.25 23.15 26.4 19.0 L24.95 19.05 20.15 19.6 15.15 20.25 Q14.45 18.95 14.0 16.65 13.55 14.35 12.1 10.6 17.3 9.95 24.0 10.75 L25.25 15.0 26.4 19.0 37.65 19.7 37.75 19.7 Q38.75 25.15 39.0 28.9 L37.8 28.95 27.25 29.65 26.45 38.75 24.5 39.0 14.7 40.55 M70.4 21.6 L61.65 21.2 59.55 21.0 58.2 14.5 61.45 14.55 69.05 14.05 70.4 21.6 77.55 21.05 82.1 19.95 83.85 27.55 Q80.6 29.0 78.3 29.6 L72.4 30.55 72.35 30.2 Q71.2 25.65 70.4 21.6" fill="#ffffff" fill-rule="evenodd" stroke="none"/>
    </g>
  </defs>
</svg>
