<?xml version="1.0" encoding="UTF-8" standalone="no"?>
<svg xmlns:ffdec="https://www.free-decompiler.com/flash" xmlns:xlink="http://www.w3.org/1999/xlink" ffdec:objectType="frame" height="210.0px" width="106.55px" xmlns="http://www.w3.org/2000/svg">
  <g transform="matrix(1.0, 0.0, 0.0, 1.0, 2.0, 10.0)">
    <use ffdec:characterId="2643" height="210.0" transform="matrix(1.0, 0.0, 0.0, 1.0, -2.0, -10.0)" width="11.0" xlink:href="#shape0"/>
    <use ffdec:characterId="2662" height="51.4" transform="matrix(1.0, 0.0, 0.0, 1.0, 9.75, -1.1)" width="92.8" xlink:href="#shape1"/>
  </g>
  <defs>
    <g id="shape0" transform="matrix(1.0, 0.0, 0.0, 1.0, 2.0, 10.0)">
      <path d="M4.45 -10.0 L9.0 -10.0 9.0 0.0 7.0 0.0 4.5 0.0 4.45 0.0 4.45 -10.0 M-0.05 0.0 L-2.0 0.0 -2.0 -10.0 -0.05 -10.0 -0.05 0.0" fill="#cccccc" fill-rule="evenodd" stroke="none"/>
      <path d="M0.0 0.0 L-0.05 0.0 -0.05 -10.0 4.45 -10.0 4.45 0.0 1.5 0.0 0.0 0.0" fill="#666666" fill-rule="evenodd" stroke="none"/>
      <path d="M7.0 0.0 L7.0 200.0 4.5 200.0 4.5 0.0 7.0 0.0 M1.5 200.0 L0.0 200.0 0.0 0.0 1.5 0.0 1.5 200.0" fill="#c5bab1" fill-rule="evenodd" stroke="none"/>
      <path d="M4.5 200.0 L1.5 200.0 1.5 0.0 4.45 0.0 4.5 0.0 4.5 200.0" fill="#a7998b" fill-rule="evenodd" stroke="none"/>
    </g>
    <g id="shape1" transform="matrix(1.0, 0.0, 0.0, 1.0, -9.75, 1.1)">
      <path d="M33.75 3.5 L36.25 4.25 38.25 5.0 40.5 5.6 44.65 6.65 46.85 14.2 57.3 15.25 Q56.75 13.95 56.45 12.25 L55.65 7.5 62.2 7.15 66.7 6.5 Q67.05 11.7 67.85 15.3 L75.55 14.2 79.95 13.1 78.8 4.5 Q88.2 1.5 91.65 1.7 91.75 3.35 92.0 4.85 L92.75 9.0 Q85.15 9.6 79.95 13.1 80.35 16.85 81.7 21.45 L89.65 19.0 93.75 17.8 93.85 18.9 Q94.05 21.35 94.35 22.25 L95.0 24.6 84.1 29.1 86.6 37.0 Q89.2 36.35 92.5 34.9 95.8 33.4 97.45 31.9 L98.7 34.15 100.15 36.1 Q100.75 37.0 102.55 37.65 98.15 42.95 88.75 45.95 87.35 39.1 86.6 37.0 80.5 38.65 74.4 38.8 75.6 43.95 76.05 48.9 L72.75 49.35 69.85 49.5 67.0 49.35 63.1 48.75 63.0 44.35 62.7 38.4 69.15 38.6 74.4 38.8 Q73.4 34.7 71.95 30.75 L65.65 30.25 61.15 29.95 Q62.55 35.6 62.7 38.4 L57.15 37.9 50.65 37.25 50.4 28.95 53.6 29.0 61.15 29.95 60.4 26.85 59.1 21.55 50.25 20.8 48.7 20.6 46.85 14.2 42.3 13.1 36.25 12.1 Q37.15 15.0 37.45 16.9 L38.2 19.85 48.7 20.6 49.65 24.7 50.4 28.95 Q46.65 28.7 39.25 28.7 39.45 31.8 39.15 33.65 38.8 35.45 38.6 37.3 L43.15 37.0 50.65 37.25 50.3 46.75 44.35 46.25 Q40.2 46.25 37.8 47.0 L38.15 42.6 38.6 37.3 26.3 38.8 Q27.1 33.4 27.0 29.85 L37.8 28.95 39.25 28.7 Q39.4 25.05 38.2 19.85 L37.65 19.7 26.65 19.4 25.25 15.0 Q24.6 13.15 24.05 10.35 29.3 10.75 36.25 12.1 L33.75 3.5 M24.75 48.95 L12.8 50.3 14.3 40.65 23.05 39.3 26.3 38.8 25.6 44.15 24.75 48.95 M16.25 31.0 L16.3 29.4 15.1 20.4 19.4 19.95 23.95 19.45 26.65 19.4 Q27.25 23.15 27.25 28.25 L27.0 29.85 22.35 30.35 18.2 30.8 16.25 31.0 M12.25 10.8 L11.95 9.9 Q11.15 7.0 11.0 5.65 10.85 4.1 9.75 -0.05 L12.35 -0.6 Q19.65 -1.65 22.15 -0.55 L22.7 1.5 Q22.9 6.05 24.05 10.35 L21.0 10.15 12.25 10.8 M84.1 29.1 Q82.45 25.05 81.7 21.45 78.3 22.55 75.7 22.6 L69.45 22.65 Q69.95 25.2 70.7 27.45 71.45 29.7 71.95 30.75 L74.65 30.8 79.3 30.45 83.55 29.3 84.1 29.1 M63.1 15.4 L57.3 15.25 59.1 21.55 64.9 22.2 69.45 22.65 Q68.3 18.65 67.85 15.3 L63.1 15.4" fill="#000000" fill-rule="evenodd" stroke="none"/>
      <path d="M22.15 -0.55 L22.8 -0.25 33.15 3.35 33.75 3.5 36.25 12.1 Q29.3 10.75 24.05 10.35 24.6 13.15 25.25 15.0 L26.65 19.4 37.65 19.7 38.2 19.85 Q39.4 25.05 39.25 28.7 L37.8 28.95 27.0 29.85 Q27.1 33.4 26.3 38.8 L38.6 37.3 38.15 42.6 37.8 47.0 24.75 48.95 25.6 44.15 26.3 38.8 23.05 39.3 14.3 40.65 Q15.45 36.75 16.25 31.0 L18.2 30.8 22.35 30.35 27.0 29.85 27.25 28.25 Q27.25 23.15 26.65 19.4 L23.95 19.45 19.4 19.95 15.1 20.4 Q14.45 18.95 14.0 16.65 L12.55 11.6 12.25 10.8 21.0 10.15 24.05 10.35 Q22.9 6.05 22.7 1.5 L22.15 -0.55 M44.65 6.65 L55.65 7.5 56.45 12.25 Q56.75 13.95 57.3 15.25 L46.85 14.2 44.65 6.65 M66.7 6.5 L73.3 5.5 78.8 4.5 79.95 13.1 75.55 14.2 67.85 15.3 Q67.05 11.7 66.7 6.5 M92.75 9.0 L93.75 17.8 89.65 19.0 81.7 21.45 Q80.35 16.85 79.95 13.1 85.15 9.6 92.75 9.0 M95.0 24.6 Q95.45 25.45 95.85 27.85 96.25 30.25 97.45 31.9 95.8 33.4 92.5 34.9 89.2 36.35 86.6 37.0 L84.1 29.1 95.0 24.6 M88.75 45.95 L84.75 47.25 81.65 48.2 79.9 48.5 76.05 48.9 Q75.6 43.95 74.4 38.8 80.5 38.65 86.6 37.0 87.35 39.1 88.75 45.95 M63.1 48.75 L56.7 47.65 50.3 46.75 50.65 37.25 57.15 37.9 62.7 38.4 Q62.55 35.6 61.15 29.95 L65.65 30.25 71.95 30.75 Q73.4 34.7 74.4 38.8 L69.15 38.6 62.7 38.4 63.0 44.35 63.1 48.75 M48.7 20.6 L50.25 20.8 59.1 21.55 60.4 26.85 61.15 29.95 53.6 29.0 50.4 28.95 49.65 24.7 48.7 20.6 38.2 19.85 37.45 16.9 Q37.15 15.0 36.25 12.1 L42.3 13.1 46.85 14.2 48.7 20.6 M63.1 15.4 L67.85 15.3 Q68.3 18.65 69.45 22.65 L64.9 22.2 59.1 21.55 57.3 15.25 63.1 15.4 M84.1 29.1 L83.55 29.3 79.3 30.45 74.65 30.8 71.95 30.75 Q71.45 29.7 70.7 27.45 69.95 25.2 69.45 22.65 L75.7 22.6 Q78.3 22.55 81.7 21.45 82.45 25.05 84.1 29.1 M50.4 28.95 L50.65 37.25 43.15 37.0 38.6 37.3 Q38.8 35.45 39.15 33.65 39.45 31.8 39.25 28.7 46.65 28.7 50.4 28.95" fill="#ffffff" fill-rule="evenodd" stroke="none"/>
    </g>
  </defs>
</svg>
