<?xml version="1.0" encoding="UTF-8" standalone="no"?>
<svg xmlns:ffdec="https://www.free-decompiler.com/flash" xmlns:xlink="http://www.w3.org/1999/xlink" ffdec:objectType="frame" height="210.0px" width="106.55px" xmlns="http://www.w3.org/2000/svg">
  <g transform="matrix(1.0, 0.0, 0.0, 1.0, 2.0, 10.0)">
    <use ffdec:characterId="2643" height="210.0" transform="matrix(1.0, 0.0, 0.0, 1.0, -2.0, -10.0)" width="11.0" xlink:href="#shape0"/>
    <use ffdec:characterId="2664" height="51.9" transform="matrix(1.0, 0.0, 0.0, 1.0, 9.85, -1.5)" width="91.65" xlink:href="#shape1"/>
  </g>
  <defs>
    <g id="shape0" transform="matrix(1.0, 0.0, 0.0, 1.0, 2.0, 10.0)">
      <path d="M4.45 -10.0 L9.0 -10.0 9.0 0.0 7.0 0.0 4.5 0.0 4.45 0.0 4.45 -10.0 M-0.05 0.0 L-2.0 0.0 -2.0 -10.0 -0.05 -10.0 -0.05 0.0" fill="#cccccc" fill-rule="evenodd" stroke="none"/>
      <path d="M0.0 0.0 L-0.05 0.0 -0.05 -10.0 4.45 -10.0 4.45 0.0 1.5 0.0 0.0 0.0" fill="#666666" fill-rule="evenodd" stroke="none"/>
      <path d="M7.0 0.0 L7.0 200.0 4.5 200.0 4.5 0.0 7.0 0.0 M1.5 200.0 L0.0 200.0 0.0 0.0 1.5 0.0 1.5 200.0" fill="#c5bab1" fill-rule="evenodd" stroke="none"/>
      <path d="M4.5 200.0 L1.5 200.0 1.5 0.0 4.45 0.0 4.5 0.0 4.5 200.0" fill="#a7998b" fill-rule="evenodd" stroke="none"/>
    </g>
    <g id="shape1" transform="matrix(1.0, 0.0, 0.0, 1.0, -9.85, 1.5)">
      <path d="M12.45 11.0 Q10.95 6.2 10.75 4.15 10.55 2.1 9.85 -0.05 L14.2 -1.0 17.7 -1.5 21.6 -1.15 22.45 1.4 23.35 4.65 24.05 7.15 24.7 9.85 Q21.85 9.6 18.15 9.95 14.4 10.25 12.45 11.0 M33.45 3.1 Q35.95 4.45 37.65 5.2 L41.85 6.7 44.15 7.35 Q45.5 10.45 46.95 15.0 45.4 14.45 42.6 13.65 L36.7 12.0 Q36.4 11.65 35.55 8.9 L33.45 3.1 M53.5 8.8 Q57.25 9.15 59.8 8.9 L65.0 8.45 Q65.05 11.95 65.55 14.05 L66.3 17.7 71.8 17.35 Q75.3 17.15 78.65 15.9 78.3 15.4 78.1 13.25 L77.65 6.65 Q82.7 5.5 89.9 4.95 90.35 8.75 91.4 12.5 L86.7 13.65 Q83.55 14.2 78.65 15.9 79.1 18.85 79.9 21.05 L81.1 24.25 86.9 22.75 90.25 22.1 92.55 21.75 93.5 21.65 94.45 25.15 95.0 27.0 95.75 30.0 90.9 30.85 84.2 31.95 86.35 39.65 94.25 38.65 Q97.1 38.25 98.15 37.6 100.5 43.35 101.5 44.3 100.6 44.85 97.9 46.2 95.15 47.55 93.3 47.95 L87.9 49.35 86.35 39.65 84.6 39.85 81.35 40.05 78.2 40.05 74.45 39.8 75.05 43.55 75.95 50.4 73.15 50.3 67.3 49.9 62.85 49.3 62.75 47.65 63.05 44.65 63.2 40.75 Q63.0 39.35 63.15 38.35 L65.25 38.7 74.45 39.8 Q73.8 36.4 72.7 33.5 L71.7 31.45 68.45 30.9 61.5 29.8 59.1 22.8 Q57.9 22.35 55.35 22.0 L49.35 21.05 47.85 17.45 46.95 15.0 Q51.4 16.25 56.4 17.05 L55.0 14.3 Q54.25 12.45 53.5 8.8 M49.75 47.3 L44.35 46.95 37.65 47.3 Q37.8 45.5 38.3 42.65 L39.0 37.75 44.85 37.65 50.75 37.4 49.75 47.3 M25.0 48.9 L20.35 49.5 12.8 50.3 14.2 40.75 14.2 40.7 20.25 39.85 26.35 39.0 25.85 42.65 25.0 48.9 M16.15 30.5 L15.9 26.4 15.35 22.45 15.0 20.75 26.8 19.85 26.0 14.7 24.7 9.85 Q29.1 10.05 36.7 12.0 38.4 16.35 39.2 20.05 L32.45 19.9 26.8 19.85 Q27.15 23.95 27.1 26.7 L27.05 29.9 16.15 30.5 M81.75 25.9 L81.1 24.25 77.2 25.0 73.25 25.0 68.3 24.65 71.7 31.45 78.2 32.1 84.2 31.95 82.75 28.5 81.75 25.9 M66.3 17.7 L56.4 17.05 58.65 21.75 59.1 22.8 68.3 24.65 Q67.1 21.35 66.3 17.7 M50.8 26.75 L51.0 28.8 40.15 28.95 39.5 34.3 39.0 37.75 30.0 38.6 26.35 39.0 27.05 29.9 30.0 29.65 40.15 28.95 40.15 26.35 39.2 20.05 49.35 21.05 Q50.75 25.25 50.8 26.75 M50.75 37.4 Q51.15 32.95 51.0 28.8 58.0 28.95 61.5 29.8 62.85 35.1 63.15 38.35 L50.75 37.4" fill="#000000" fill-rule="evenodd" stroke="none"/>
      <path d="M21.6 -1.15 Q26.45 -0.35 29.9 1.35 L33.45 3.1 35.55 8.9 Q36.4 11.65 36.7 12.0 L42.6 13.65 Q45.4 14.45 46.95 15.0 45.5 10.45 44.15 7.35 50.5 8.85 53.5 8.8 54.25 12.45 55.0 14.3 L56.4 17.05 66.3 17.7 Q67.1 21.35 68.3 24.65 L59.1 22.8 58.65 21.75 56.4 17.05 Q51.4 16.25 46.95 15.0 L47.85 17.45 49.35 21.05 55.35 22.0 Q57.9 22.35 59.1 22.8 L61.5 29.8 68.45 30.9 71.7 31.45 72.7 33.5 Q73.8 36.4 74.45 39.8 L65.25 38.7 63.15 38.35 Q63.0 39.35 63.2 40.75 L63.05 44.65 62.75 47.65 62.85 49.3 58.7 48.55 54.05 47.75 49.75 47.3 50.75 37.4 44.85 37.65 39.0 37.75 38.3 42.65 Q37.8 45.5 37.65 47.3 L31.65 48.0 25.0 48.9 25.85 42.65 26.35 39.0 20.25 39.85 14.2 40.7 Q15.8 34.7 16.15 30.5 L27.05 29.9 27.1 26.7 Q27.15 23.95 26.8 19.85 L15.0 20.75 13.65 15.35 12.45 11.0 Q14.4 10.25 18.15 9.95 21.85 9.6 24.7 9.85 L24.05 7.15 23.35 4.65 22.45 1.4 21.6 -1.15 M65.0 8.45 L77.65 6.65 78.1 13.25 Q78.3 15.4 78.65 15.9 75.3 17.15 71.8 17.35 L66.3 17.7 65.55 14.05 Q65.05 11.95 65.0 8.45 M91.4 12.5 Q91.95 14.2 92.5 17.4 93.0 20.55 93.25 21.1 L93.5 21.65 92.55 21.75 90.25 22.1 86.9 22.75 81.1 24.25 79.9 21.05 Q79.1 18.85 78.65 15.9 83.55 14.2 86.7 13.65 L91.4 12.5 M95.75 30.0 Q96.35 32.55 97.15 34.45 L98.15 37.6 Q97.1 38.25 94.25 38.65 L86.35 39.65 84.2 31.95 90.9 30.85 95.75 30.0 M87.9 49.35 L86.45 49.75 84.6 50.0 82.85 50.1 78.2 50.2 78.05 50.2 75.95 50.4 75.05 43.55 74.45 39.8 78.2 40.05 81.35 40.05 84.6 39.85 86.35 39.65 87.9 49.35 M81.75 25.9 L82.75 28.5 84.2 31.95 78.2 32.1 71.7 31.45 68.3 24.65 73.25 25.0 77.2 25.0 81.1 24.25 81.75 25.9 M50.75 37.4 L63.15 38.35 Q62.85 35.1 61.5 29.8 58.0 28.95 51.0 28.8 51.15 32.95 50.75 37.4 M50.8 26.75 Q50.75 25.25 49.35 21.05 L39.2 20.05 40.15 26.35 40.15 28.95 30.0 29.65 27.05 29.9 26.35 39.0 30.0 38.6 39.0 37.75 39.5 34.3 40.15 28.95 51.0 28.8 50.8 26.75 M26.8 19.85 L32.45 19.9 39.2 20.05 Q38.4 16.35 36.7 12.0 29.1 10.05 24.7 9.85 L26.0 14.7 26.8 19.85" fill="#ffffff" fill-rule="evenodd" stroke="none"/>
    </g>
  </defs>
</svg>
