<?xml version="1.0" encoding="UTF-8" standalone="no"?>
<svg xmlns:ffdec="https://www.free-decompiler.com/flash" xmlns:xlink="http://www.w3.org/1999/xlink" ffdec:objectType="frame" height="210.0px" width="106.55px" xmlns="http://www.w3.org/2000/svg">
  <g transform="matrix(1.0, 0.0, 0.0, 1.0, 2.0, 10.0)">
    <use ffdec:characterId="2643" height="210.0" transform="matrix(1.0, 0.0, 0.0, 1.0, -2.0, -10.0)" width="11.0" xlink:href="#shape0"/>
    <use ffdec:characterId="2650" height="52.15" transform="matrix(1.0, 0.0, 0.0, 1.0, 9.75, -0.8)" width="88.45" xlink:href="#shape1"/>
  </g>
  <defs>
    <g id="shape0" transform="matrix(1.0, 0.0, 0.0, 1.0, 2.0, 10.0)">
      <path d="M4.45 -10.0 L9.0 -10.0 9.0 0.0 7.0 0.0 4.5 0.0 4.45 0.0 4.45 -10.0 M-0.05 0.0 L-2.0 0.0 -2.0 -10.0 -0.05 -10.0 -0.05 0.0" fill="#cccccc" fill-rule="evenodd" stroke="none"/>
      <path d="M0.0 0.0 L-0.05 0.0 -0.05 -10.0 4.45 -10.0 4.45 0.0 1.5 0.0 0.0 0.0" fill="#666666" fill-rule="evenodd" stroke="none"/>
      <path d="M7.0 0.0 L7.0 200.0 4.5 200.0 4.5 0.0 7.0 0.0 M1.5 200.0 L0.0 200.0 0.0 0.0 1.5 0.0 1.5 200.0" fill="#c5bab1" fill-rule="evenodd" stroke="none"/>
      <path d="M4.5 200.0 L1.5 200.0 1.5 0.0 4.45 0.0 4.5 0.0 4.5 200.0" fill="#a7998b" fill-rule="evenodd" stroke="none"/>
    </g>
    <g id="shape1" transform="matrix(1.0, 0.0, 0.0, 1.0, -9.75, 0.8)">
      <path d="M46.65 3.7 Q50.8 6.6 52.4 7.35 L55.0 8.55 57.25 9.4 Q57.6 13.0 59.25 15.25 63.95 17.7 69.5 18.6 L71.9 23.9 Q76.35 25.65 82.0 25.9 L83.0 29.5 Q83.3 30.9 84.2 32.9 L89.55 33.6 Q92.3 33.8 94.6 33.6 95.15 37.7 96.2 41.1 L91.15 41.4 85.9 40.65 86.0 43.55 86.1 47.8 86.2 50.45 74.6 46.85 74.8 44.1 75.0 41.3 75.15 36.2 80.25 38.5 Q83.05 39.75 85.9 40.65 85.55 37.65 84.2 32.9 79.55 32.2 74.15 29.75 L74.75 32.0 75.15 36.2 Q70.1 34.05 63.75 34.05 L64.05 30.55 64.0 26.75 52.6 26.3 Q52.8 22.45 52.0 18.5 L48.55 18.4 40.45 18.75 Q39.7 14.55 38.65 11.6 L38.0 9.25 Q46.75 8.85 49.5 10.65 L46.65 3.7 M68.15 11.05 Q71.3 11.3 74.7 11.2 L81.1 10.7 Q80.0 15.4 80.6 19.2 77.65 19.45 74.75 19.3 L69.5 18.6 Q68.65 16.65 68.4 15.15 68.1 13.7 68.15 11.05 M94.3 17.35 Q93.95 20.45 94.2 22.3 L94.35 25.05 87.85 25.8 Q84.85 26.05 82.0 25.9 81.0 22.85 80.6 19.2 89.75 18.65 94.3 17.35 M62.6 44.85 L56.95 44.35 50.5 44.5 51.75 36.3 51.8 34.7 60.5 34.0 63.75 34.05 63.05 41.05 62.6 44.85 M37.85 46.1 L28.35 47.4 25.35 47.95 26.15 43.4 26.9 38.8 33.9 37.7 39.45 36.75 39.0 39.35 37.85 46.1 M14.95 40.3 Q16.0 34.8 15.9 33.25 L15.9 30.75 19.15 30.8 23.45 30.55 27.3 30.0 27.25 34.35 26.9 38.8 14.95 40.3 M15.15 21.0 Q14.35 17.55 13.55 15.2 L12.1 10.9 15.45 11.55 17.65 11.75 21.0 11.45 24.7 11.15 26.15 17.0 26.85 20.7 18.1 21.05 15.15 21.0 M22.6 1.6 L27.7 0.2 30.7 -0.5 32.25 -0.7 34.2 -0.8 Q35.05 2.7 38.0 9.25 L32.9 9.9 24.7 11.15 22.6 1.6 M62.15 20.05 L61.4 18.85 59.25 15.25 Q57.25 14.05 54.6 13.0 L49.5 10.65 51.15 15.4 52.0 18.5 Q57.95 18.8 62.15 20.05 63.5 22.25 64.0 26.75 L69.55 28.1 Q72.0 28.7 74.15 29.75 73.5 26.85 71.9 23.9 68.75 22.95 67.05 22.1 65.35 21.2 62.15 20.05 M33.8 19.8 L40.45 18.75 40.75 25.35 40.45 27.8 35.05 28.65 27.3 30.0 Q27.45 24.6 26.85 20.7 L33.8 19.8 M52.6 26.3 Q52.5 30.8 51.8 34.7 L39.45 36.75 Q40.4 31.1 40.45 27.8 L49.4 26.65 52.6 26.3" fill="#ffffff" fill-rule="evenodd" stroke="none"/>
      <path d="M34.2 -0.8 L37.25 -0.45 Q39.6 -0.15 42.8 1.4 46.0 2.9 46.65 3.7 L46.6 3.7 46.65 3.7 49.5 10.65 Q46.75 8.85 38.0 9.25 35.05 2.7 34.2 -0.8 M57.25 9.4 Q62.5 11.05 68.15 11.05 68.1 13.7 68.4 15.15 68.65 16.65 69.5 18.6 L74.75 19.3 Q77.65 19.45 80.6 19.2 80.0 15.4 81.1 10.7 L85.8 9.55 Q89.95 8.3 95.25 7.5 95.4 11.5 94.3 17.35 89.75 18.65 80.6 19.2 81.0 22.85 82.0 25.9 84.85 26.05 87.85 25.8 L94.35 25.05 94.6 33.6 Q92.3 33.8 89.55 33.6 L84.2 32.9 Q83.3 30.9 83.0 29.5 L82.0 25.9 Q76.35 25.65 71.9 23.9 L69.5 18.6 Q63.95 17.7 59.25 15.25 57.6 13.0 57.25 9.4 M96.2 41.1 L98.2 48.8 Q95.6 50.3 92.9 51.05 89.85 51.9 86.2 50.45 L86.1 47.8 86.0 43.55 85.9 40.65 91.15 41.4 96.2 41.1 M74.6 46.85 L70.75 45.95 Q67.3 45.05 62.6 44.85 L63.05 41.05 63.75 34.05 60.5 34.0 51.8 34.7 51.75 36.3 50.5 44.5 37.85 46.1 39.0 39.35 39.45 36.75 33.9 37.7 26.9 38.8 26.15 43.4 25.35 47.95 12.8 50.3 14.95 40.3 26.9 38.8 27.25 34.35 27.3 30.0 23.45 30.55 19.15 30.8 15.9 30.75 15.15 21.0 18.1 21.05 26.85 20.7 26.15 17.0 24.7 11.15 21.0 11.45 17.65 11.75 15.45 11.55 12.1 10.9 Q10.95 6.65 9.75 -0.05 13.1 2.35 20.05 1.95 L22.6 1.6 24.7 11.15 32.9 9.9 38.0 9.25 38.65 11.6 Q39.7 14.55 40.45 18.75 L48.55 18.4 52.0 18.5 Q52.8 22.45 52.6 26.3 L64.0 26.75 64.05 30.55 63.75 34.05 Q70.1 34.05 75.15 36.2 L74.75 32.0 74.15 29.75 Q79.55 32.2 84.2 32.9 85.55 37.65 85.9 40.65 83.05 39.75 80.25 38.5 L75.15 36.2 75.0 41.3 74.8 44.1 74.6 46.85 M62.15 20.05 Q65.35 21.2 67.05 22.1 68.75 22.95 71.9 23.9 73.5 26.85 74.15 29.75 72.0 28.7 69.55 28.1 L64.0 26.75 Q63.5 22.25 62.15 20.05 57.95 18.8 52.0 18.5 L51.15 15.4 49.5 10.65 54.6 13.0 Q57.25 14.05 59.25 15.25 L61.4 18.85 62.15 20.05 M52.6 26.3 L49.4 26.65 40.45 27.8 Q40.4 31.1 39.45 36.75 L51.8 34.7 Q52.5 30.8 52.6 26.3 M33.8 19.8 L26.85 20.7 Q27.45 24.6 27.3 30.0 L35.05 28.65 40.45 27.8 40.75 25.35 40.45 18.75 33.8 19.8" fill="#000000" fill-rule="evenodd" stroke="none"/>
    </g>
  </defs>
</svg>
