<?xml version="1.0" encoding="UTF-8" standalone="no"?>
<svg xmlns:ffdec="https://www.free-decompiler.com/flash" xmlns:xlink="http://www.w3.org/1999/xlink" ffdec:objectType="frame" height="210.0px" width="106.55px" xmlns="http://www.w3.org/2000/svg">
  <g transform="matrix(1.0, 0.0, 0.0, 1.0, 2.0, 10.0)">
    <use ffdec:characterId="2643" height="210.0" transform="matrix(1.0, 0.0, 0.0, 1.0, -2.0, -10.0)" width="11.0" xlink:href="#shape0"/>
    <use ffdec:characterId="2655" height="50.45" transform="matrix(1.0, 0.0, 0.0, 1.0, 9.75, -0.15)" width="92.85" xlink:href="#shape1"/>
  </g>
  <defs>
    <g id="shape0" transform="matrix(1.0, 0.0, 0.0, 1.0, 2.0, 10.0)">
      <path d="M4.45 -10.0 L9.0 -10.0 9.0 0.0 7.0 0.0 4.5 0.0 4.45 0.0 4.45 -10.0 M-0.05 0.0 L-2.0 0.0 -2.0 -10.0 -0.05 -10.0 -0.05 0.0" fill="#cccccc" fill-rule="evenodd" stroke="none"/>
      <path d="M0.0 0.0 L-0.05 0.0 -0.05 -10.0 4.45 -10.0 4.45 0.0 1.5 0.0 0.0 0.0" fill="#666666" fill-rule="evenodd" stroke="none"/>
      <path d="M7.0 0.0 L7.0 200.0 4.5 200.0 4.5 0.0 7.0 0.0 M1.5 200.0 L0.0 200.0 0.0 0.0 1.5 0.0 1.5 200.0" fill="#c5bab1" fill-rule="evenodd" stroke="none"/>
      <path d="M4.5 200.0 L1.5 200.0 1.5 0.0 4.45 0.0 4.5 0.0 4.5 200.0" fill="#a7998b" fill-rule="evenodd" stroke="none"/>
    </g>
    <g id="shape1" transform="matrix(1.0, 0.0, 0.0, 1.0, -9.75, 0.15)">
      <path d="M12.3 10.5 L9.75 -0.05 12.55 -0.1 18.75 0.4 19.9 0.6 21.3 0.8 23.9 1.7 24.1 6.2 Q24.4 8.65 25.55 11.65 L20.9 10.9 15.4 10.35 12.3 10.5 M36.6 4.05 L41.15 3.25 41.4 3.2 48.85 1.8 49.25 2.8 Q50.2 5.0 51.2 9.75 58.05 7.95 62.5 7.65 L62.2 6.3 61.2 1.1 62.8 1.55 64.15 2.15 67.65 3.75 72.4 5.85 74.25 10.45 Q77.75 12.6 84.5 16.35 84.05 15.1 84.15 14.75 L84.4 12.55 84.5 10.85 85.2 11.1 90.95 12.25 97.2 13.6 Q99.25 14.15 99.15 14.45 L98.95 14.9 98.1 17.55 97.2 20.55 Q92.15 20.65 85.95 17.15 L84.5 16.35 Q84.9 17.6 85.85 19.7 L86.8 21.95 Q91.9 25.7 94.45 26.25 L95.8 26.55 Q95.2 29.0 95.1 33.15 L95.05 33.7 Q92.7 32.35 89.2 28.1 L89.05 27.9 89.35 29.05 90.25 33.25 Q92.05 34.55 93.4 36.4 L98.4 43.2 102.6 49.95 99.75 48.75 95.15 45.9 93.05 44.7 Q91.7 44.0 90.2 43.45 L90.3 42.6 90.45 39.3 90.35 34.35 90.25 33.25 Q86.55 30.6 80.8 30.15 L79.45 30.1 Q79.15 33.2 78.15 37.95 L77.45 41.25 76.75 41.25 63.9 42.1 65.3 31.75 Q74.05 29.95 79.45 30.1 L79.5 28.25 Q79.5 24.8 78.95 21.9 L75.8 21.7 Q71.4 21.85 65.4 23.2 65.15 20.4 64.5 17.3 L64.2 15.75 Q69.65 14.7 72.5 14.75 74.5 14.8 76.8 15.6 L74.25 10.45 73.65 10.1 Q69.8 7.7 64.4 7.6 L62.5 7.65 64.2 15.75 52.8 18.35 52.5 18.4 52.75 22.95 52.6 26.8 54.65 26.15 Q60.55 24.3 65.4 23.2 65.8 27.7 65.3 31.55 L65.3 31.75 Q59.85 32.8 53.2 34.65 L51.85 35.0 50.9 43.95 39.45 45.95 38.15 46.2 39.3 38.7 39.35 38.15 51.85 35.0 52.6 26.8 Q46.0 28.75 40.35 29.8 L40.5 24.4 40.3 21.1 31.35 22.0 28.2 21.95 Q28.0 17.55 26.55 14.05 L25.55 11.65 29.0 12.35 Q32.95 13.25 36.0 13.25 L38.4 13.0 Q37.05 8.85 36.6 4.05 M25.15 48.25 L12.8 50.3 15.05 40.25 15.5 40.25 26.8 40.05 27.2 36.95 27.9 31.0 31.75 30.8 40.35 29.8 39.35 38.15 Q31.65 39.85 28.35 40.0 L26.8 40.05 25.15 48.25 M16.3 30.95 Q15.8 26.8 14.45 20.65 L22.55 21.5 28.2 21.95 28.25 23.5 27.9 31.0 21.0 31.5 16.3 30.95 M84.55 20.2 Q80.4 16.9 76.8 15.6 L77.4 16.75 Q78.45 19.05 78.95 21.9 84.75 22.8 89.05 27.9 L88.1 24.8 86.8 21.95 84.55 20.2 M51.2 9.75 L48.9 10.4 38.4 13.0 38.7 13.95 Q39.85 17.35 40.3 21.1 L52.5 18.4 51.6 12.1 51.2 9.75" fill="#000000" fill-rule="evenodd" stroke="none"/>
      <path d="M12.3 10.5 L15.4 10.35 20.9 10.9 25.55 11.65 Q24.4 8.65 24.1 6.2 L23.9 1.7 28.05 3.15 Q32.25 4.4 36.6 4.05 37.05 8.85 38.4 13.0 L48.9 10.4 51.2 9.75 Q50.2 5.0 49.25 2.8 L48.85 1.8 54.9 0.65 Q56.55 0.5 58.65 0.7 L61.2 1.1 62.2 6.3 62.5 7.65 Q58.05 7.95 51.2 9.75 L51.6 12.1 52.5 18.4 40.3 21.1 Q39.85 17.35 38.7 13.95 L38.4 13.0 36.0 13.25 Q32.95 13.25 29.0 12.35 L25.55 11.65 26.55 14.05 Q28.0 17.55 28.2 21.95 L31.35 22.0 40.3 21.1 40.5 24.4 40.35 29.8 Q46.0 28.75 52.6 26.8 L52.75 22.95 52.5 18.4 52.8 18.35 64.2 15.75 62.5 7.65 64.4 7.6 Q69.8 7.7 73.65 10.1 L74.25 10.45 76.8 15.6 Q74.5 14.8 72.5 14.75 69.65 14.7 64.2 15.75 L64.5 17.3 Q65.15 20.4 65.4 23.2 71.4 21.85 75.8 21.7 L78.95 21.9 Q79.5 24.8 79.5 28.25 L79.45 30.1 Q74.05 29.95 65.3 31.75 L63.9 42.1 50.9 43.95 51.85 35.0 53.2 34.65 Q59.85 32.8 65.3 31.75 L65.3 31.55 Q65.8 27.7 65.4 23.2 60.55 24.3 54.65 26.15 L52.6 26.8 51.85 35.0 39.35 38.15 39.3 38.7 38.15 46.2 25.15 48.25 26.8 40.05 28.35 40.0 Q31.65 39.85 39.35 38.15 L40.35 29.8 31.75 30.8 27.9 31.0 27.2 36.95 26.8 40.05 15.5 40.25 15.05 40.25 15.1 40.15 Q16.55 36.45 16.55 35.0 L16.3 30.95 21.0 31.5 27.9 31.0 28.25 23.5 28.2 21.95 22.55 21.5 14.45 20.65 13.8 17.9 Q12.9 14.1 12.3 10.5 M72.4 5.85 L74.9 7.0 78.35 8.5 84.5 10.85 84.4 12.55 84.15 14.75 Q84.05 15.1 84.5 16.35 L85.95 17.15 Q92.15 20.65 97.2 20.55 L96.85 22.4 96.05 25.6 95.8 26.55 94.45 26.25 Q91.9 25.7 86.8 21.95 L85.85 19.7 Q84.9 17.6 84.5 16.35 77.75 12.6 74.25 10.45 L72.4 5.85 M95.05 33.7 L95.0 34.35 Q95.0 37.0 96.8 39.8 L97.8 42.15 98.4 43.2 93.4 36.4 Q92.05 34.55 90.25 33.25 L89.35 29.05 89.05 27.9 89.2 28.1 Q92.7 32.35 95.05 33.7 M90.2 43.45 Q84.7 41.35 77.45 41.25 L78.15 37.95 Q79.15 33.2 79.45 30.1 L80.8 30.15 Q86.55 30.6 90.25 33.25 L90.35 34.35 90.45 39.3 90.3 42.6 90.2 43.45 M84.55 20.2 L86.8 21.95 88.1 24.8 89.05 27.9 Q84.75 22.8 78.95 21.9 78.45 19.05 77.4 16.75 L76.8 15.6 Q80.4 16.9 84.55 20.2" fill="#ffffff" fill-rule="evenodd" stroke="none"/>
    </g>
  </defs>
</svg>
