<?xml version="1.0" encoding="UTF-8" standalone="no"?>
<svg xmlns:ffdec="https://www.free-decompiler.com/flash" xmlns:xlink="http://www.w3.org/1999/xlink" ffdec:objectType="frame" height="14.9px" width="20.6px" xmlns="http://www.w3.org/2000/svg">
  <g transform="matrix(1.0, 0.0, 0.0, 1.0, 10.7, 7.85)">
    <use ffdec:characterId="2422" height="14.9" transform="matrix(1.0, 0.0, 0.0, 1.0, -10.7, -7.85)" width="20.6" xlink:href="#shape0"/>
  </g>
  <defs>
    <g id="shape0" transform="matrix(1.0, 0.0, 0.0, 1.0, 10.7, 7.85)">
      <path d="M2.05 -5.0 L1.4 -5.95 0.85 -5.5 1.6 -2.7 0.55 -4.15 0.25 -4.3 -0.75 -4.75 -2.1 -5.15 -6.35 -4.65 -6.55 -4.15 -7.15 -5.15 -7.9 -5.3 -7.75 -2.65 -7.3 -3.05 -7.85 -1.5 -9.15 -1.7 -10.4 -2.9 -9.25 -3.4 -8.3 -6.5 -4.5 -6.25 -3.4 -5.65 -3.0 -6.35 0.85 -6.25 2.0 -5.8 2.05 -5.0 M3.2 -0.05 L3.45 -0.4 3.85 0.15 4.75 0.3 5.0 -0.1 6.15 -0.35 6.2 -0.45 6.0 -0.65 5.2 -1.05 4.95 -0.65 4.55 -1.05 3.55 -1.0 2.75 -1.85 2.95 -2.7 3.85 -2.45 6.6 -1.4 6.4 -1.0 6.75 0.0 7.55 -0.4 7.85 0.05 6.95 0.8 6.8 1.4 6.4 1.7 6.05 1.7 5.55 1.7 5.5 1.7 5.4 1.7 4.85 1.65 3.95 1.35 3.65 0.85 3.3 0.1 3.2 -0.05 M-0.5 -2.9 L-1.5 -1.5 -2.3 -1.35 -3.0 -2.75 -2.9 -3.45 -0.5 -2.9 M0.05 7.0 Q-1.05 6.9 -1.7 6.4 L-2.45 5.4 -2.1 4.3 -2.8 3.8 -2.8 2.95 -1.95 2.95 0.05 7.0 M-3.0 6.3 L-3.8 6.75 -4.25 5.9 -3.0 6.3 M-4.8 5.6 L-5.3 5.95 -6.1 5.3 -6.45 3.7 -7.55 2.65 -7.85 2.4 Q-7.85 2.05 -8.0 1.8 L-8.4 1.55 -7.75 1.45 -7.85 0.45 -7.2 1.25 -6.95 1.45 -4.8 5.6 M3.05 4.05 L3.95 4.85 4.15 5.25 4.3 5.55 4.75 6.6 3.65 6.5 3.15 6.0 2.85 5.4 2.75 5.15 3.05 4.05" fill="#990000" fill-rule="evenodd" stroke="none"/>
      <path d="M-6.55 -4.15 L-6.35 -4.65 -2.1 -5.15 -3.05 -4.9 -2.95 -3.8 -3.4 -3.55 -5.0 -3.65 -3.0 -2.75 -2.3 -1.35 -1.5 -1.5 -0.5 -2.9 -0.1 -3.05 0.35 -3.65 0.7 -3.3 Q1.4 -2.8 1.3 -2.0 L0.2 -0.2 -1.75 0.55 -2.05 1.25 Q-0.3 1.1 1.1 0.2 L1.75 0.85 2.55 0.75 3.2 -0.05 3.3 0.1 3.65 0.85 3.95 1.35 4.85 1.65 4.95 1.7 4.3 2.65 4.05 2.65 2.9 3.35 3.05 4.05 1.5 5.35 0.8 5.75 Q1.05 2.55 -1.85 1.3 L-3.3 2.2 -3.2 2.7 -2.8 2.95 -2.8 3.8 -6.6 -0.35 -7.05 -0.45 -7.35 -1.05 -7.15 -1.4 -7.25 -2.2 -7.25 -3.1 -6.55 -4.15 M0.25 -4.3 L0.55 -4.15 0.4 -4.15 0.25 -4.3 M8.7 -0.25 L9.9 0.45 9.75 0.85 7.8 1.65 8.25 2.25 8.9 2.3 9.1 4.05 8.45 5.55 7.5 6.55 6.85 6.6 5.0 6.1 5.15 5.75 5.15 5.7 5.2 5.6 5.65 5.3 Q6.2 4.65 6.25 3.75 L6.4 1.7 6.8 1.4 6.95 0.8 7.85 0.05 8.6 -0.2 8.7 -0.25 M9.7 0.95 L9.7 1.0 9.5 1.5 9.7 0.95 M-1.7 6.4 L-3.0 6.3 -4.25 5.9 -4.8 5.6 -6.95 1.45 Q-4.35 2.7 -3.55 5.4 L-2.9 5.65 -2.45 5.4 -1.7 6.4" fill="#ffcc99" fill-rule="evenodd" stroke="none"/>
      <path d="M1.6 -2.7 L0.85 -5.5 1.4 -5.95 2.05 -5.0 2.95 -2.7 2.75 -1.85 3.55 -1.0 3.45 -0.4 3.2 -0.05 2.55 0.75 1.75 0.85 1.1 0.2 1.6 -2.7 M-3.0 -6.35 L-3.4 -5.65 -4.5 -6.25 -8.3 -6.5 -8.35 -7.1 -8.05 -7.65 -7.3 -7.8 Q-4.8 -8.1 -3.0 -6.35 M-10.4 -2.9 L-9.15 -1.7 -7.85 -1.5 -7.35 -1.05 -7.05 -0.45 -6.6 -0.35 -2.8 3.8 -2.1 4.3 -2.45 5.4 -2.9 5.65 -3.55 5.4 Q-4.35 2.7 -6.95 1.45 L-7.2 1.25 -7.85 0.45 -7.75 1.45 -8.4 1.55 Q-9.6 0.4 -10.3 -1.1 L-10.7 -2.0 -10.4 -2.9 M-7.3 -3.05 L-7.75 -2.65 -7.9 -5.3 -7.15 -5.15 -6.55 -4.15 -7.25 -3.1 -7.3 -3.05 M-2.1 -5.15 L-0.75 -4.75 0.25 -4.3 0.4 -4.15 0.35 -3.7 0.35 -3.65 -0.1 -3.05 -0.5 -2.9 -2.9 -3.45 -2.95 -3.8 -3.05 -4.9 -2.1 -5.15 M0.55 6.7 L0.5 6.8 0.05 7.0 -1.95 2.95 -2.8 2.95 -3.2 2.7 -3.3 2.2 -1.85 1.3 Q1.05 2.55 0.8 5.75 L0.8 5.8 0.55 6.7 M5.2 5.6 L5.15 5.7 5.15 5.75 5.0 6.1 4.75 6.55 4.3 5.55 4.15 5.25 3.95 4.85 3.05 4.05 2.9 3.35 4.05 2.65 4.3 2.65 4.35 2.65 4.85 3.45 Q5.3 4.5 5.2 5.6" fill="#ff0000" fill-rule="evenodd" stroke="none"/>
      <path d="M0.55 -4.15 L1.6 -2.7 1.1 0.2 Q-0.3 1.1 -2.05 1.25 L-1.75 0.55 0.2 -0.2 1.3 -2.0 Q1.4 -2.8 0.7 -3.3 L0.35 -3.65 0.35 -3.7 0.4 -4.15 0.55 -4.15 M-3.0 -2.75 L-5.0 -3.65 -3.4 -3.55 -2.95 -3.8 -2.9 -3.45 -3.0 -2.75 M8.6 -0.3 L8.65 -0.3 8.7 -0.25 8.6 -0.2 8.6 -0.3 M9.75 0.85 L9.7 0.95 9.5 1.5 8.9 2.3 8.25 2.25 7.8 1.65 9.75 0.85 M1.4 6.75 L0.55 6.7 0.8 5.8 0.8 5.75 1.5 5.35 3.05 4.05 2.75 5.15 2.85 5.4 1.4 6.75 M5.4 1.7 L5.5 1.7 4.85 3.45 4.35 2.65 4.3 2.65 4.95 1.7 5.4 1.7" fill="#ebbb98" fill-rule="evenodd" stroke="none"/>
      <path d="M3.45 -0.4 L3.55 -1.0 4.55 -1.05 4.95 -0.65 5.2 -1.05 6.0 -0.65 6.2 -0.45 6.15 -0.35 5.0 -0.1 4.75 0.3 3.85 0.15 3.45 -0.4 M7.85 0.05 L7.55 -0.4 6.75 0.0 6.4 -1.0 6.6 -1.4 8.0 -1.35 8.55 -0.75 8.6 -0.3 8.6 -0.2 7.85 0.05" fill="#ffffff" fill-rule="evenodd" stroke="none"/>
      <path d="M6.85 6.6 L4.7 7.05 1.4 6.75 2.85 5.4 3.15 6.0 3.65 6.5 4.75 6.6 4.3 5.55 4.75 6.55 5.0 6.1 6.85 6.6 M6.4 1.7 L6.25 3.75 Q6.2 4.65 5.65 5.3 L5.2 5.6 Q5.3 4.5 4.85 3.45 L5.5 1.7 5.55 1.7 6.05 1.7 6.4 1.7" fill="#e2b181" fill-rule="evenodd" stroke="none"/>
      <path d="M-7.85 -1.5 L-7.3 -3.05 -7.25 -3.1 -7.25 -2.2 -7.15 -1.4 -7.35 -1.05 -7.85 -1.5 M-7.55 2.65 L-7.85 2.5 -7.85 2.4 -7.55 2.65" fill="#c79b68" fill-rule="evenodd" stroke="none"/>
    </g>
  </defs>
</svg>
