<?xml version="1.0" encoding="UTF-8" standalone="no"?>
<svg xmlns:ffdec="https://www.free-decompiler.com/flash" xmlns:xlink="http://www.w3.org/1999/xlink" ffdec:objectType="frame" height="6.0px" width="78.25px" xmlns="http://www.w3.org/2000/svg">
  <g transform="matrix(1.0, 0.0, 0.0, 1.0, 39.15, 3.0)">
    <use ffdec:characterId="944" height="6.0" transform="matrix(1.0, 0.0, 0.0, 1.0, -39.15, -3.0)" width="78.25" xlink:href="#shape0"/>
  </g>
  <defs>
    <g id="shape0" transform="matrix(1.0, 0.0, 0.0, 1.0, 39.15, 3.0)">
      <path d="M28.75 -2.0 L32.1 -2.05 22.35 0.25 39.1 0.0 35.5 1.05 33.85 1.25 37.1 3.0 -36.15 3.0 Q-37.45 3.0 -38.35 2.1 -39.15 1.25 -39.15 0.0 L-38.9 -1.2 -38.8 -1.5 28.75 -2.0" fill="#cccc99" fill-rule="evenodd" stroke="none"/>
      <path d="M-38.8 -1.5 L-38.35 -2.15 Q-37.45 -3.0 -36.15 -3.0 L10.5 -3.0 28.75 -2.0 -38.8 -1.5" fill="#e9e8d1" fill-rule="evenodd" stroke="none"/>
    </g>
  </defs>
</svg>
