<?xml version="1.0" encoding="UTF-8" standalone="no"?>
<svg xmlns:ffdec="https://www.free-decompiler.com/flash" xmlns:xlink="http://www.w3.org/1999/xlink" ffdec:objectType="frame" height="47.9px" width="17.25px" xmlns="http://www.w3.org/2000/svg">
  <g transform="matrix(1.0, 0.0, 0.0, 1.0, 8.65, 25.9)">
    <use ffdec:characterId="1445" height="47.4" transform="matrix(1.0, 0.0, 0.0, 1.0, -8.65, -25.9)" width="17.25" xlink:href="#shape0"/>
  </g>
  <defs>
    <g id="shape0" transform="matrix(1.0, 0.0, 0.0, 1.0, 8.65, 25.9)">
      <path d="M7.8 -2.2 L8.0 -1.25 8.6 1.15 8.3 1.65 7.05 1.6 6.25 1.55 3.45 1.35 Q2.75 -2.2 2.75 -3.1 2.75 -4.5 2.9 -5.45 3.1 -6.6 3.5 -7.2 L4.15 -8.6 4.45 -10.2 4.5 -10.85 4.45 -13.4 4.85 -14.0 5.3 -14.5 5.6 -14.5 Q6.1 -14.5 6.5 -13.95 L6.85 -13.15 6.95 -13.4 7.0 -12.75 7.0 -12.1 6.9 -10.2 6.65 -8.6 6.25 -5.45 6.25 -5.0 Q6.25 -3.7 6.75 -1.95 7.2 -0.35 7.75 0.5 L7.8 -2.2 M-6.35 1.0 Q-8.55 1.1 -8.5 0.4 L-8.4 -2.25 -7.75 -4.6 -7.55 -5.45 Q-7.0 -7.95 -7.0 -9.6 L-7.0 -10.2 -7.5 -14.25 -7.5 -14.75 -7.35 -15.25 -7.5 -16.1 -7.8 -18.0 -8.15 -19.55 -6.3 -19.15 -5.75 -18.9 Q-4.95 -18.55 -4.65 -17.75 L-5.0 -16.5 Q-6.0 -15.3 -6.0 -13.1 L-5.5 -10.2 -5.35 -9.65 -5.05 -8.45 Q-4.75 -6.95 -4.75 -5.75 L-4.75 -5.45 Q-4.85 -3.6 -5.75 -0.85 L-6.35 1.0 M-5.35 -24.25 L-5.35 -25.0 -5.55 -25.9 -4.3 -24.55 -2.2 -22.3 -2.15 -22.25 -2.0 -22.05 -1.65 -21.55 -1.6 -21.6 -1.4 -21.45 -1.35 -21.35 -0.05 -20.0 1.3 -18.6 1.4 -18.1 0.25 -18.25 -0.4 -18.2 -0.75 -19.2 -2.35 -19.7 Q-3.7 -19.65 -4.25 -18.6 L-4.25 -18.75 -4.75 -20.65 -5.0 -21.55 -5.35 -24.25 M5.95 -16.4 L5.75 -16.1 5.4 -17.25 5.95 -16.4 M-6.75 -16.75 L-7.0 -16.75 -7.15 -16.2 -7.05 -16.35 -6.75 -16.75" fill="#8667aa" fill-rule="evenodd" stroke="none"/>
      <path d="M-6.15 1.0 L-6.35 1.0 -5.75 -0.85 Q-4.85 -3.6 -4.75 -5.45 L-4.75 -5.75 Q-4.75 -6.95 -5.05 -8.45 L-5.35 -9.65 -5.5 -10.2 -6.0 -13.1 Q-6.0 -15.3 -5.0 -16.5 L-5.0 -15.8 -4.9 -15.25 Q-4.25 -13.9 -2.75 -14.05 L-2.25 -14.1 Q-0.6 -15.25 -0.25 -17.2 L-0.25 -17.7 -0.4 -18.2 0.25 -18.25 1.4 -18.1 1.9 -16.1 1.9 -15.85 2.0 -15.85 2.35 -14.45 2.1 -13.9 2.2 -13.4 2.15 -13.4 Q1.6 -12.75 1.75 -11.75 L1.9 -11.4 2.85 -11.0 4.45 -13.4 4.5 -10.85 4.45 -10.2 4.15 -8.6 3.5 -7.2 Q3.1 -6.6 2.9 -5.45 2.75 -4.5 2.75 -3.1 2.75 -2.2 3.45 1.35 L1.3 1.2 -6.0 1.0 -6.15 1.0" fill="#775d95" fill-rule="evenodd" stroke="none"/>
      <path d="M8.1 -14.7 L8.1 -14.4 7.95 -11.15 7.9 -10.2 7.7 -5.45 7.65 -4.55 Q7.65 -3.3 7.8 -2.2 L7.75 0.5 Q7.2 -0.35 6.75 -1.95 6.25 -3.7 6.25 -5.0 L6.25 -5.45 6.65 -8.6 6.9 -10.2 7.0 -12.1 7.0 -12.75 6.95 -13.4 Q7.2 -14.05 7.85 -14.55 L8.1 -14.7 M-8.4 -2.25 L-8.3 -5.45 -8.25 -7.2 -8.2 -9.15 -8.1 -10.2 -7.5 -14.75 -7.5 -14.25 -7.0 -10.2 -7.0 -9.6 Q-7.0 -7.95 -7.55 -5.45 L-7.75 -4.6 -8.4 -2.25 M3.75 -21.25 Q3.75 -21.25 3.85 -21.2 L3.8 -21.15 3.75 -21.2 3.75 -21.25 M-6.75 -16.75 L-7.05 -16.35 -7.15 -16.2 -7.0 -16.75 -6.75 -16.75" fill="#a07acd" fill-rule="evenodd" stroke="none"/>
      <path d="M5.9 8.2 L5.85 8.7 5.8 9.15 5.75 9.25 Q5.45 9.6 4.6 9.85 3.9 10.05 3.75 10.5 L3.35 13.1 3.2 14.95 2.95 15.35 2.25 16.5 1.5 16.5 1.05 15.0 0.75 14.05 Q-0.2 11.35 -0.85 10.65 L-1.0 10.5 -1.25 10.5 -1.15 11.1 -2.3 12.7 -3.1 13.65 Q-3.7 12.6 -4.45 11.95 L-5.75 12.25 -6.1 11.0 -6.3 10.45 -6.25 8.35 Q-5.6 8.75 -5.4 9.3 L-5.3 9.2 Q-4.9 8.8 -4.15 9.0 L-3.95 8.8 -3.75 8.3 -4.75 5.8 -4.65 4.8 -4.35 4.0 -4.3 3.9 -4.35 4.0 -4.5 4.75 Q-4.5 5.9 -3.9 6.4 L-2.95 6.95 -2.3 7.15 -2.0 7.25 -0.35 7.3 -0.7 7.65 -3.05 9.25 -3.1 9.25 -3.35 9.25 -4.0 9.25 -4.1 9.9 -4.4 10.75 -4.1 10.75 -3.25 10.5 -3.25 11.65 -3.2 10.45 -2.5 10.0 Q-1.55 9.25 -0.5 9.25 0.2 9.25 0.85 10.75 L1.75 13.0 2.0 11.0 Q2.15 9.8 2.5 9.5 3.1 8.9 4.05 8.3 4.9 7.75 5.0 7.75 L5.85 8.2 5.9 8.2 M1.3 -18.6 L1.55 -19.1 1.75 -17.95 1.9 -17.55 2.6 -16.45 3.0 -16.1 2.35 -14.45 2.0 -15.85 1.9 -16.1 1.4 -18.1 1.3 -18.6 M-0.25 -17.7 L-0.25 -17.2 Q-0.6 -15.25 -2.25 -14.1 L-2.75 -14.05 Q-4.25 -13.9 -4.9 -15.25 L-5.0 -15.8 -5.0 -16.5 -4.65 -17.75 -4.35 -18.3 -4.3 -16.15 Q-3.25 -15.35 -2.0 -15.9 -1.1 -16.25 -0.55 -17.15 L-0.25 -17.7 M4.45 -13.4 L2.85 -11.0 1.9 -11.4 1.75 -11.75 Q1.6 -12.75 2.15 -13.4 L2.2 -13.4 2.75 -12.75 4.85 -14.0 4.45 -13.4 M2.1 4.75 L3.5 4.75 4.6 4.5 5.2 4.4 5.05 4.9 Q4.65 5.85 3.6 5.85 2.35 5.85 2.1 5.1 L2.1 4.75" fill="#990000" fill-rule="evenodd" stroke="none"/>
      <path d="M5.8 9.15 L5.6 10.8 4.55 12.8 3.2 14.95 3.35 13.1 3.75 10.5 Q3.9 10.05 4.6 9.85 5.45 9.6 5.75 9.25 L5.8 9.15 M-1.35 17.25 L-2.6 14.6 -2.8 14.15 -3.1 13.65 -2.3 12.7 -1.15 11.1 Q-1.1 12.2 -1.45 13.25 L-1.45 13.3 -1.75 14.15 -1.7 14.4 -1.45 16.5 -1.35 17.25 M-2.0 -22.05 L-1.75 -22.8 -1.5 -22.95 -1.35 -22.95 -0.6 -23.0 Q0.15 -23.95 1.5 -23.55 L1.9 -23.45 Q3.2 -23.05 3.35 -21.85 L3.2 -21.75 2.1 -21.75 1.9 -21.75 1.55 -21.75 1.4 -21.75 0.05 -22.0 -0.3 -22.2 -1.6 -21.6 -1.65 -21.55 -2.0 -22.05 M1.55 -19.1 L1.7 -19.3 1.9 -19.45 2.5 -19.45 Q3.1 -19.45 3.55 -18.75 4.0 -18.05 4.0 -17.05 L4.15 -16.9 4.4 -16.9 Q5.4 -16.65 5.65 -15.85 L5.7 -14.9 5.3 -14.5 4.85 -14.0 2.75 -12.75 2.2 -13.4 2.1 -13.9 2.35 -14.45 3.0 -16.1 2.6 -16.45 1.9 -17.55 1.75 -17.95 1.55 -19.1 M-0.4 -18.2 L-0.25 -17.7 -0.55 -17.15 Q-1.1 -16.25 -2.0 -15.9 -3.25 -15.35 -4.3 -16.15 L-4.35 -18.3 -4.25 -18.6 Q-3.7 -19.65 -2.35 -19.7 L-0.75 -19.2 -0.4 -18.2 M2.15 3.75 Q2.2 3.1 2.55 2.75 2.95 2.3 3.7 2.3 4.6 2.25 5.0 2.65 L5.25 3.45 5.25 3.75 5.2 4.4 4.6 4.5 3.5 4.75 2.1 4.75 2.1 4.3 2.15 3.75 M-0.35 7.3 L-2.0 7.25 -2.3 7.15 -2.95 6.95 -3.9 6.4 Q-4.5 5.9 -4.5 4.75 L-4.35 4.0 -4.3 3.9 Q-3.85 3.35 -2.95 3.55 L-2.4 3.75 -1.9 4.0 Q-0.05 5.0 -0.05 6.05 -0.05 6.8 -0.35 7.3" fill="#ff0000" fill-rule="evenodd" stroke="none"/>
      <path d="M6.25 1.55 L6.25 2.65 6.2 3.75 5.25 3.75 5.25 3.45 5.0 2.65 Q4.6 2.25 3.7 2.3 2.95 2.3 2.55 2.75 2.2 3.1 2.15 3.75 L1.4 3.75 0.4 3.9 -1.9 4.0 -2.4 3.75 -2.95 3.55 Q-3.85 3.35 -4.3 3.9 L-4.35 4.0 -4.65 4.8 -5.1 4.3 Q-5.6 3.8 -6.2 3.55 L-6.15 1.0 -6.0 1.0 1.3 1.2 3.45 1.35 6.25 1.55 M-3.2 10.45 L-3.25 11.65 -3.25 10.5 -3.35 9.25 -3.1 9.25 -3.2 10.45" fill="#e2b181" fill-rule="evenodd" stroke="none"/>
      <path d="M6.2 3.75 L5.9 8.0 5.9 8.2 5.85 8.2 5.0 7.75 Q4.9 7.75 4.05 8.3 3.1 8.9 2.5 9.5 2.15 9.8 2.0 11.0 L1.75 13.0 0.85 10.75 Q0.2 9.25 -0.5 9.25 -1.55 9.25 -2.5 10.0 L-3.2 10.45 -3.1 9.25 -3.05 9.25 -0.7 7.65 -0.35 7.3 Q-0.05 6.8 -0.05 6.05 -0.05 5.0 -1.9 4.0 L0.4 3.9 1.4 3.75 2.15 3.75 2.1 4.3 2.1 4.75 2.1 5.1 Q2.35 5.85 3.6 5.85 4.65 5.85 5.05 4.9 L5.2 4.4 5.25 3.75 6.2 3.75 M-6.25 8.35 L-6.2 3.55 Q-5.6 3.8 -5.1 4.3 L-4.65 4.8 -4.75 5.8 -3.75 8.3 -3.95 8.8 -4.15 9.0 Q-4.9 8.8 -5.3 9.2 L-5.4 9.3 Q-5.6 8.75 -6.25 8.35 M5.05 -20.5 L6.25 -19.35 7.1 -18.05 6.85 -17.75 6.7 -17.55 5.95 -16.4 5.4 -17.25 5.3 -17.6 5.05 -19.5 5.05 -20.5 M1.55 -19.1 L1.3 -18.6 -0.05 -20.0 -1.35 -21.35 -1.4 -21.45 -1.35 -21.4 3.1 -20.3 2.7 -19.75 2.5 -19.45 1.9 -19.45 1.7 -19.3 1.55 -19.1 M3.8 -21.15 L3.75 -21.1 3.75 -21.2 3.8 -21.15 M-3.25 10.5 L-4.1 10.75 -4.4 10.75 -4.1 9.9 -4.0 9.25 -3.35 9.25 -3.25 10.5" fill="#ffcc99" fill-rule="evenodd" stroke="none"/>
      <path d="M1.5 16.5 L1.75 18.35 Q1.75 20.35 1.55 20.4 -0.2 20.8 -1.25 21.5 -1.15 19.65 -1.35 17.25 L-1.45 16.5 -1.7 14.4 -1.75 14.15 -1.45 13.3 -1.45 13.25 Q-1.1 12.2 -1.15 11.1 L-1.25 10.5 -1.0 10.5 -0.85 10.65 Q-0.2 11.35 0.75 14.05 L1.05 15.0 1.5 16.5" fill="#ffffff" fill-rule="evenodd" stroke="none"/>
      <path d="M7.1 -18.05 L7.9 -18.9 8.55 -19.3 8.25 -17.6 7.85 -16.3 8.1 -14.95 8.1 -14.7 7.85 -14.55 Q7.2 -14.05 6.95 -13.4 L6.85 -13.15 6.5 -13.95 Q6.1 -14.5 5.6 -14.5 L5.3 -14.5 5.7 -14.9 5.65 -15.85 Q5.4 -16.65 4.4 -16.9 L4.15 -16.9 4.0 -17.05 Q4.0 -18.05 3.55 -18.75 3.1 -19.45 2.5 -19.45 L2.7 -19.75 3.1 -20.3 -1.35 -21.4 -1.4 -21.45 -1.6 -21.6 -0.3 -22.2 0.05 -22.0 1.4 -21.75 1.55 -21.75 1.9 -21.75 2.1 -21.75 3.2 -21.75 3.35 -21.85 3.75 -21.25 3.75 -21.2 3.75 -21.1 3.8 -21.15 3.85 -21.2 5.45 -22.4 5.05 -20.5 5.05 -19.5 5.3 -17.6 5.4 -17.25 5.75 -16.1 5.95 -16.4 6.7 -17.55 6.85 -17.75 7.1 -18.05 M-8.15 -19.55 L-8.65 -21.75 -7.8 -21.85 -6.05 -20.8 Q-6.6 -21.65 -5.95 -22.8 -5.65 -23.3 -5.5 -23.75 L-5.35 -24.25 -5.0 -21.55 -4.75 -20.65 -4.25 -18.75 -4.25 -18.6 -4.35 -18.3 -4.65 -17.75 Q-4.95 -18.55 -5.75 -18.9 L-6.3 -19.15 -8.15 -19.55" fill="#872f4c" fill-rule="evenodd" stroke="none"/>
      <path d="M1.9 -16.1 L2.0 -15.85 1.9 -15.85 1.9 -16.1" fill="#b74040" fill-rule="evenodd" stroke="none"/>
    </g>
  </defs>
</svg>
