<?xml version="1.0" encoding="UTF-8" standalone="no"?>
<svg xmlns:ffdec="https://www.free-decompiler.com/flash" xmlns:xlink="http://www.w3.org/1999/xlink" ffdec:objectType="frame" height="64.65px" width="42.5px" xmlns="http://www.w3.org/2000/svg">
  <g transform="matrix(1.0, 0.0, 0.0, 1.0, 25.2, 34.75)">
    <use ffdec:characterId="1319" height="18.05" id="neck" transform="matrix(1.0, 0.0, 0.0, 1.0, -8.15, -27.75)" width="16.1" xlink:href="#sprite0"/>
    <use ffdec:characterId="1317" height="38.15" transform="matrix(1.0, 0.0, 0.0, 1.0, -10.15, -19.7)" width="20.3" xlink:href="#shape1"/>
    <use ffdec:characterId="1138" height="0.0" id="spineRef" transform="matrix(1.0, 0.0, 0.0, 1.0, 2.3, -25.2)" width="0.0" xlink:href="#sprite1"/>
  </g>
  <defs>
    <g id="sprite0" transform="matrix(1.0, 0.0, 0.0, 1.0, 7.3, 10.1)">
      <use ffdec:characterId="1318" height="18.05" transform="matrix(1.0, 0.0, 0.0, 1.0, -7.3, -10.1)" width="16.1" xlink:href="#shape0"/>
    </g>
    <g id="shape0" transform="matrix(1.0, 0.0, 0.0, 1.0, 7.3, 10.1)">
      <path d="M-3.2 -8.1 L-3.2 -8.15 -3.25 -8.2 -3.35 -8.45 -3.25 -9.35 Q-3.05 -9.8 -2.5 -9.95 L0.1 -10.1 2.3 -9.95 Q3.05 -9.25 3.7 -8.85 4.9 -7.95 5.9 -8.2 6.8 -8.45 7.5 -6.85 L7.45 -6.6 7.2 -6.3 6.95 -6.45 Q4.15 -8.0 2.35 -8.1 L2.2 -8.1 2.25 -8.2 2.35 -8.8 Q2.15 -9.55 0.9 -9.65 -0.35 -9.7 -0.05 -8.6 0.05 -8.2 0.65 -7.9 L-0.25 -7.75 -1.35 -7.7 -0.85 -6.95 -0.4 -6.4 -0.1 -6.0 Q-0.05 -5.75 -0.3 -5.25 L-0.45 -4.95 -0.6 -4.8 Q-1.25 -4.6 -1.5 -5.0 -1.8 -5.4 -2.35 -5.25 -2.7 -5.15 -2.9 -4.35 -3.05 -3.6 -3.75 -3.3 L-3.8 -3.3 -4.0 -3.6 -3.75 -4.6 -3.15 -7.3 -2.95 -7.65 -2.9 -7.95 -3.2 -8.1 M7.15 -5.5 L7.35 -5.55 7.55 -4.9 7.6 -4.85 8.8 -2.25 8.15 -1.2 7.35 -0.2 7.2 -0.2 7.1 -0.15 7.15 -0.1 7.05 0.3 6.9 0.4 6.7 0.5 6.45 0.6 Q6.1 0.75 6.0 0.85 L5.45 0.15 5.05 -0.5 Q4.7 -1.85 6.3 -0.75 L6.3 -1.65 Q5.8 -1.9 5.6 -2.65 L5.6 -2.7 Q5.15 -2.7 4.55 -3.05 3.5 -3.55 3.7 -4.5 L1.25 -6.25 Q1.55 -6.55 2.0 -6.45 2.6 -6.4 3.65 -5.6 L5.75 -3.55 5.95 -3.35 6.5 -3.3 6.55 -3.3 7.1 -4.3 6.7 -4.9 6.9 -5.25 7.15 -5.5 M0.7 -5.15 L1.2 -5.35 Q2.4 -5.55 2.75 -4.3 2.9 -3.7 2.35 -3.4 L1.25 -3.05 Q0.7 -2.9 0.35 -3.65 L0.3 -4.0 0.3 -4.5 Q0.35 -4.95 0.7 -5.15 M4.3 -0.75 L4.55 -0.25 4.5 0.5 4.15 1.0 4.05 1.05 2.85 0.8 2.3 0.15 Q1.95 -1.1 3.1 -1.2 3.9 -1.25 4.3 -0.75" fill="#ff0000" fill-rule="evenodd" stroke="none"/>
      <path d="M2.2 -8.1 L1.8 -7.75 0.65 -7.9 Q0.05 -8.2 -0.05 -8.6 -0.35 -9.7 0.9 -9.65 2.15 -9.55 2.35 -8.8 L2.25 -8.2 2.2 -8.1" fill="#ffffff" fill-rule="evenodd" stroke="none"/>
      <path d="M6.95 -6.45 L7.15 -5.95 7.15 -5.5 6.9 -5.25 6.7 -4.9 7.1 -4.3 6.55 -3.3 6.5 -3.3 5.95 -3.35 5.75 -3.55 5.95 -3.6 Q6.2 -3.65 6.35 -4.45 L6.4 -5.45 Q6.05 -6.85 3.85 -7.25 1.75 -7.6 2.0 -6.45 1.55 -6.55 1.25 -6.25 L3.7 -4.5 Q3.5 -3.55 4.55 -3.05 5.15 -2.7 5.6 -2.7 L5.6 -2.65 Q5.8 -1.9 6.3 -1.65 L6.3 -0.75 Q4.7 -1.85 5.05 -0.5 L5.45 0.15 6.0 0.85 Q6.1 0.75 6.45 0.6 L6.35 1.4 6.3 1.9 5.8 2.25 4.15 1.0 4.5 0.5 4.55 -0.25 4.3 -0.75 4.3 -0.9 4.2 -1.75 Q3.8 -3.1 3.15 -3.2 L2.8 -2.55 2.5 -2.4 Q1.0 -2.0 0.45 -3.0 L0.25 -3.4 0.3 -4.0 0.35 -3.65 Q0.7 -2.9 1.25 -3.05 L2.35 -3.4 Q2.9 -3.7 2.75 -4.3 2.4 -5.55 1.2 -5.35 L0.7 -5.15 0.8 -5.3 Q0.65 -6.0 -0.4 -6.4 L-0.85 -6.95 -1.35 -7.7 -0.25 -7.75 0.65 -7.9 1.8 -7.75 2.2 -8.1 2.35 -8.1 Q4.15 -8.0 6.95 -6.45 M-2.95 -7.65 L-3.2 -8.1 -2.9 -7.95 -2.95 -7.65" fill="#990000" fill-rule="evenodd" stroke="none"/>
      <path d="M2.0 -6.45 Q1.75 -7.6 3.85 -7.25 6.05 -6.85 6.4 -5.45 L6.35 -4.45 Q6.2 -3.65 5.95 -3.6 L5.75 -3.55 3.65 -5.6 Q2.6 -6.4 2.0 -6.45" fill="#650101" fill-rule="evenodd" stroke="none"/>
      <path d="M7.2 -0.2 L7.15 -0.1 7.1 -0.15 7.2 -0.2 M7.05 0.3 L6.85 0.85 6.7 0.5 6.9 0.4 7.05 0.3 M-0.4 -6.4 Q0.65 -6.0 0.8 -5.3 L0.7 -5.15 Q0.35 -4.95 0.3 -4.5 L-0.45 -4.95 -0.3 -5.25 Q-0.05 -5.75 -0.1 -6.0 L-0.4 -6.4 M2.8 -2.55 L3.15 -3.2 Q3.8 -3.1 4.2 -1.75 L4.3 -0.9 2.8 -2.55" fill="#e2b181" fill-rule="evenodd" stroke="none"/>
      <path d="M6.85 0.85 L6.75 2.8 7.05 7.95 6.4 6.95 Q0.65 1.55 -7.3 1.8 L-6.15 1.05 -5.55 0.65 -4.7 -0.9 -3.85 -4.45 -3.75 -4.6 -4.0 -3.6 -3.8 -3.3 -3.75 -3.3 Q-3.05 -3.6 -2.9 -4.35 -2.7 -5.15 -2.35 -5.25 -1.8 -5.4 -1.5 -5.0 -1.25 -4.6 -0.6 -4.8 L-0.45 -4.95 0.3 -4.5 0.3 -4.0 0.25 -3.4 0.45 -3.0 Q1.0 -2.0 2.5 -2.4 L2.8 -2.55 4.3 -0.9 4.3 -0.75 Q3.9 -1.25 3.1 -1.2 1.95 -1.1 2.3 0.15 L2.85 0.8 4.05 1.05 4.15 1.0 5.8 2.25 6.3 1.9 6.35 1.4 6.45 0.6 6.7 0.5 6.85 0.85" fill="#ffcc99" fill-rule="evenodd" stroke="none"/>
    </g>
    <g id="shape1" transform="matrix(1.0, 0.0, 0.0, 1.0, 10.15, 19.7)">
      <path d="M8.55 18.15 L8.45 8.25 8.45 7.5 8.15 3.15 7.95 -0.6 Q7.85 -3.15 7.6 -3.7 7.3 -4.3 7.15 -7.3 L6.3 -4.75 5.95 -3.65 4.95 -1.5 5.5 -4.0 5.65 -12.05 Q5.65 -14.85 3.05 -16.45 0.9 -17.7 -1.85 -17.7 -5.1 -17.7 -7.15 -16.15 L-8.75 -14.4 -9.65 -12.6 -9.2 -14.4 -8.6 -15.65 -7.15 -17.9 Q-5.85 -19.0 -4.5 -19.3 L0.2 -19.7 Q5.45 -19.6 7.85 -12.35 9.25 -8.25 9.55 -1.65 L9.6 2.45 9.65 4.45 10.15 16.45 Q10.15 17.65 9.55 17.9 L8.55 18.15 M-9.75 -1.7 L-8.75 7.45 -8.3 13.45 -8.25 16.8 -8.3 18.15 -8.5 18.15 Q-9.4 17.55 -9.6 15.5 L-9.95 10.25 -10.15 6.2 Q-10.15 2.8 -9.75 -1.6 L-9.75 -1.7" fill="#f5b6f5" fill-rule="evenodd" stroke="none"/>
      <path d="M4.55 18.45 L4.4 16.15 5.55 12.3 5.65 8.95 5.9 2.3 6.1 -1.2 5.1 1.05 3.75 4.0 2.8 -0.95 2.35 -5.4 2.3 -5.65 3.05 -7.4 Q3.95 -9.85 3.95 -11.95 3.95 -13.65 2.2 -15.0 0.5 -16.3 -1.55 -16.3 -6.9 -16.2 -7.1 -8.55 L-7.1 -7.9 Q-7.1 -5.9 -6.35 -1.15 -5.6 3.6 -5.6 7.15 -5.6 9.0 -6.35 12.7 L-6.35 12.95 Q-6.6 15.85 -5.15 17.35 L-5.15 18.25 -8.3 18.15 -8.25 16.8 -8.3 13.45 -8.75 7.45 -9.75 -1.7 -9.9 -9.2 -9.9 -9.75 -9.65 -12.6 -8.75 -14.4 -7.15 -16.15 Q-5.1 -17.7 -1.85 -17.7 0.9 -17.7 3.05 -16.45 5.65 -14.85 5.65 -12.05 L5.5 -4.0 4.95 -1.5 5.95 -3.65 6.3 -4.75 7.15 -7.3 Q7.3 -4.3 7.6 -3.7 7.85 -3.15 7.95 -0.6 L8.15 3.15 8.45 7.5 8.45 8.25 8.55 18.15 4.55 18.45" fill="#e096e0" fill-rule="evenodd" stroke="none"/>
      <path d="M-5.15 18.25 L-5.15 17.35 Q-6.6 15.85 -6.35 12.95 L-6.35 12.7 Q-5.6 9.0 -5.6 7.15 -5.6 3.6 -6.35 -1.15 -7.1 -5.9 -7.1 -7.9 L-7.1 -8.55 Q-6.9 -16.2 -1.55 -16.3 0.5 -16.3 2.2 -15.0 3.95 -13.65 3.95 -11.95 3.95 -9.85 3.05 -7.4 L2.3 -5.65 2.35 -5.4 2.8 -0.95 3.75 4.0 5.1 1.05 6.1 -1.2 5.9 2.3 5.65 8.95 5.55 12.3 4.4 16.15 4.55 18.45 3.05 18.45 -5.15 18.25" fill="#db77db" fill-rule="evenodd" stroke="none"/>
    </g>
  </defs>
</svg>
