<?xml version="1.0" encoding="UTF-8" standalone="no"?>
<svg xmlns:ffdec="https://www.free-decompiler.com/flash" xmlns:xlink="http://www.w3.org/1999/xlink" ffdec:objectType="frame" height="64.65px" width="42.5px" xmlns="http://www.w3.org/2000/svg">
  <g transform="matrix(1.0, 0.0, 0.0, 1.0, 25.2, 34.75)">
    <use ffdec:characterId="1169" height="24.15" id="heart" transform="matrix(0.65, 0.0, 0.0, 0.65, -25.2049, -34.7649)" width="18.6" xlink:href="#sprite0"/>
    <use ffdec:characterId="1324" height="23.2" id="chunk1" transform="matrix(1.0, 0.0, 0.0, 1.0, 0.95, -21.1)" width="15.45" xlink:href="#sprite6"/>
    <use ffdec:characterId="1326" height="22.8" id="chunk2" transform="matrix(1.0, 0.0, 0.0, 1.0, -2.3, 2.1)" width="19.6" xlink:href="#sprite7"/>
    <use ffdec:characterId="1328" height="22.85" id="chunk3" transform="matrix(1.0, 0.0, 0.0, 1.0, -21.25, 7.05)" width="18.7" xlink:href="#sprite8"/>
    <use ffdec:characterId="1330" height="26.8" id="chunk4" transform="matrix(1.0, 0.0, 0.0, 1.0, -20.2, -22.45)" width="19.05" xlink:href="#sprite9"/>
    <use ffdec:characterId="1138" height="0.0" id="spineRef" transform="matrix(1.0, 0.0, 0.0, 1.0, 2.3, -25.2)" width="0.0" xlink:href="#sprite10"/>
  </g>
  <defs>
    <g id="sprite0" transform="matrix(1.0, 0.0, 0.0, 1.0, 9.7, 14.1)">
      <use ffdec:characterId="1152" height="20.0" transform="matrix(1.0, 0.0, 0.0, 1.0, -7.25, -9.95)" width="15.2" xlink:href="#morphshape0"/>
      <use ffdec:characterId="1153" height="13.85" transform="matrix(1.0, 0.0, 0.0, 1.0, -1.95, -9.45)" width="8.55" xlink:href="#morphshape1"/>
      <use ffdec:characterId="1154" height="18.1" transform="matrix(1.0, 0.0, 0.0, 1.0, -5.75, -9.5)" width="11.1" xlink:href="#morphshape2"/>
      <use ffdec:characterId="1156" height="2.55" transform="matrix(1.0, 0.0, 0.0, 1.0, 3.65, -5.5)" width="3.65" xlink:href="#sprite1"/>
      <use ffdec:characterId="1158" height="5.2" transform="matrix(1.0, 0.0, 0.0, 1.0, -1.4, -13.35)" width="3.35" xlink:href="#sprite2"/>
      <use ffdec:characterId="1160" height="5.6" transform="matrix(1.0, 0.0, 0.0, 1.0, -5.65, -12.85)" width="2.4" xlink:href="#sprite3"/>
      <use ffdec:characterId="1162" height="1.7" transform="matrix(1.0, 0.0, 0.0, 1.0, -9.2, -5.0)" width="3.85" xlink:href="#sprite4"/>
      <use ffdec:characterId="1164" height="1.75" transform="matrix(1.0, 0.0, 0.0, 1.0, -9.7, -0.35)" width="3.15" xlink:href="#sprite5"/>
    </g>
    <g id="morphshape0" transform="matrix(1.0, 0.0, 0.0, 1.0, 7.25, 9.95)">
      <path d="M-7.2 -0.55 Q-7.55 4.3 -3.5 7.15 0.4 9.85 4.95 9.95 5.3 9.6 5.6 9.25 7.15 6.3 7.2 2.6 7.05 -4.4 2.4 -6.2 0.85 -8.95 -0.05 -9.9 L-1.2 -9.95 Q-3.05 -9.9 -4.55 -9.1 L-6.7 -3.5 Q-6.95 -2.0 -7.2 -0.55" fill="#990000" fill-rule="evenodd" stroke="none"/>
      <path d="M-7.2 -0.55 Q-6.95 -2.0 -6.7 -3.5 L-4.55 -9.1 Q-3.05 -9.9 -1.2 -9.95 L-0.05 -9.9 Q0.85 -8.95 2.4 -6.2 7.05 -4.4 7.2 2.6 7.15 6.3 5.6 9.25 5.3 9.6 4.95 9.95 0.4 9.85 -3.5 7.15 -7.55 4.3 -7.2 -0.55 Z" fill="none" stroke="#000000" stroke-linecap="round" stroke-linejoin="round" stroke-opacity="0.0" stroke-width="0.0"/>
    </g>
    <g id="morphshape1" transform="matrix(1.0, 0.0, 0.0, 1.0, 1.95, 9.45)">
      <path d="M-1.95 -8.1 Q-1.75 -6.85 -0.15 -5.95 -1.05 -4.55 1.1 -1.9 3.65 1.15 5.8 2.4 7.3 -2.85 0.8 -5.8 0.9 -6.95 0.6 -7.7 -0.1 -8.45 -0.8 -9.2 -1.9 -10.05 -1.95 -8.1" fill="#fe8989" fill-rule="evenodd" stroke="none"/>
      <path d="M-1.95 -8.1 Q-1.9 -10.05 -0.8 -9.2 -0.1 -8.45 0.6 -7.7 0.9 -6.95 0.8 -5.8 7.3 -2.85 5.8 2.4 3.65 1.15 1.1 -1.9 -1.05 -4.55 -0.15 -5.95 -1.75 -6.85 -1.95 -8.1 Z" fill="none" stroke="#000000" stroke-linecap="round" stroke-linejoin="round" stroke-opacity="0.0" stroke-width="0.0"/>
    </g>
    <g id="morphshape2" transform="matrix(1.0, 0.0, 0.0, 1.0, 5.75, 9.5)">
      <path d="M-5.75 0.9 L-5.75 1.05 Q-5.6 1.95 -4.2 4.3 L-3.5 5.2 Q-1.85 6.85 1.15 6.95 L1.55 7.1 Q2.55 7.5 3.15 8.6 3.8 8.55 4.45 8.5 L5.25 8.5 5.35 7.75 5.3 7.1 5.3 6.8 5.2 6.45 5.1 6.45 4.2 6.1 3.9 6.0 Q2.2 5.35 0.7 4.35 L-0.1 3.8 -0.6 3.35 -1.4 2.05 Q-1.5 1.3 -1.6 0.55 L-1.55 -0.05 Q-1.3 -2.25 0.75 -4.4 L0.75 -4.4 Q2.0 -6.0 3.65 -7.25 L4.3 -7.7 3.2 -8.85 3.0 -9.05 2.1 -8.35 1.5 -7.9 Q-0.7 -6.15 -2.9 -4.45 L-3.65 -3.95 Q-5.2 -2.55 -5.75 0.9" fill="#76015b" fill-rule="evenodd" stroke="none"/>
      <path d="M-5.75 0.9 Q-5.2 -2.55 -3.65 -3.95 L-2.9 -4.45 Q-0.7 -6.15 1.5 -7.9 L2.1 -8.35 3.0 -9.05 3.2 -8.85 4.3 -7.7 3.65 -7.25 Q2.0 -6.0 0.75 -4.4 L0.75 -4.4 Q-1.3 -2.25 -1.55 -0.05 L-1.6 0.55 Q-1.5 1.3 -1.4 2.05 L-0.6 3.35 -0.1 3.8 0.7 4.35 Q2.2 5.35 3.9 6.0 L4.2 6.1 5.1 6.45 5.2 6.45 5.3 6.8 5.3 7.1 5.35 7.75 5.25 8.5 4.45 8.5 Q3.8 8.55 3.15 8.6 2.55 7.5 1.55 7.1 L1.15 6.95 Q-1.85 6.85 -3.5 5.2 L-4.2 4.3 Q-5.6 1.95 -5.75 1.05 L-5.75 0.9 Z" fill="none" stroke="#000000" stroke-linecap="round" stroke-linejoin="round" stroke-opacity="0.0" stroke-width="0.0"/>
    </g>
    <g id="sprite1" transform="matrix(1.0, 0.0, 0.0, 1.0, 1.8, 1.3)">
      <use ffdec:characterId="1155" height="2.55" transform="matrix(1.0, 0.0, 0.0, 1.0, -1.8, -1.3)" width="3.65" xlink:href="#shape0"/>
    </g>
    <g id="shape0" transform="matrix(1.0, 0.0, 0.0, 1.0, 1.8, 1.3)">
      <path d="M-1.8 0.85 L-0.75 0.1 1.85 -1.3 1.85 0.15 Q0.8 0.95 -0.4 1.25 L-1.8 0.85" fill="#ff0000" fill-rule="evenodd" stroke="none"/>
    </g>
    <g id="sprite2" transform="matrix(1.0, 0.0, 0.0, 1.0, 1.65, 2.6)">
      <use ffdec:characterId="1157" height="5.2" transform="matrix(1.0, 0.0, 0.0, 1.0, -1.65, -2.6)" width="3.35" xlink:href="#shape1"/>
    </g>
    <g id="shape1" transform="matrix(1.0, 0.0, 0.0, 1.0, 1.65, 2.6)">
      <path d="M1.7 -1.75 Q0.1 0.35 -0.7 2.6 L-1.65 1.05 -0.65 -0.8 0.8 -2.6 1.7 -1.75" fill="#ff0000" fill-rule="evenodd" stroke="none"/>
    </g>
    <g id="sprite3" transform="matrix(1.0, 0.0, 0.0, 1.0, 1.2, 2.8)">
      <use ffdec:characterId="1159" height="5.6" transform="matrix(1.0, 0.0, 0.0, 1.0, -1.2, -2.8)" width="2.4" xlink:href="#shape2"/>
    </g>
    <g id="shape2" transform="matrix(1.0, 0.0, 0.0, 1.0, 1.2, 2.8)">
      <path d="M-1.05 -2.8 L0.15 -2.8 0.65 -1.3 Q1.3 0.9 1.2 1.8 1.1 2.65 0.5 2.7 L0.0 2.8 -0.05 2.8 -0.75 0.75 -1.2 -1.6 -1.05 -2.8" fill="#ff0000" fill-rule="evenodd" stroke="none"/>
    </g>
    <g id="sprite4" transform="matrix(1.0, 0.0, 0.0, 1.0, 1.95, 0.85)">
      <use ffdec:characterId="1161" height="1.7" transform="matrix(1.0, 0.0, 0.0, 1.0, -1.95, -0.85)" width="3.85" xlink:href="#shape3"/>
    </g>
    <g id="shape3" transform="matrix(1.0, 0.0, 0.0, 1.0, 1.95, 0.85)">
      <path d="M1.75 0.55 L1.3 0.85 -1.95 0.7 -1.95 -0.85 -0.4 -0.75 Q0.85 -0.75 1.9 0.15 L1.75 0.55" fill="#ff0000" fill-rule="evenodd" stroke="none"/>
    </g>
    <g id="sprite5" transform="matrix(1.0, 0.0, 0.0, 1.0, 1.6, 0.85)">
      <use ffdec:characterId="1163" height="1.75" transform="matrix(1.0, 0.0, 0.0, 1.0, -1.6, -0.85)" width="3.15" xlink:href="#shape4"/>
    </g>
    <g id="shape4" transform="matrix(1.0, 0.0, 0.0, 1.0, 1.6, 0.85)">
      <path d="M0.2 -0.85 L1.55 -0.75 1.25 0.35 -0.8 0.9 -1.6 0.85 -1.25 -0.3 0.2 -0.85" fill="#ff0000" fill-rule="evenodd" stroke="none"/>
    </g>
    <g id="sprite6" transform="matrix(1.0, 0.0, 0.0, 1.0, 7.3, 11.45)">
      <use ffdec:characterId="1323" height="23.2" transform="matrix(1.0, 0.0, 0.0, 1.0, -7.3, -11.45)" width="15.45" xlink:href="#shape5"/>
    </g>
    <g id="shape5" transform="matrix(1.0, 0.0, 0.0, 1.0, 7.3, 11.45)">
      <path d="M7.75 8.5 L7.75 8.7 7.15 8.9 7.65 8.0 7.75 8.5 M4.75 10.35 L3.3 10.15 5.4 9.35 4.8 10.25 4.75 10.35 M0.9 9.4 L-0.65 9.0 3.55 7.15 3.85 7.65 3.2 8.05 Q2.95 8.1 0.9 9.4 M-3.2 8.75 L-3.9 8.45 Q-4.7 8.0 -4.7 7.4 L-4.65 6.95 -5.35 6.1 -5.45 4.85 Q-5.45 4.15 -5.05 3.45 -6.1 3.2 -6.75 1.85 L-7.25 0.1 -7.15 -0.6 -7.15 -0.25 -6.35 0.7 -5.3 1.9 -5.2 1.9 -4.7 2.2 -4.55 1.9 -5.0 1.5 -5.0 1.1 -5.6 0.1 -6.45 -1.1 -7.0 -1.15 -7.3 -2.8 -6.8 -8.0 -6.35 -9.4 -6.1 -9.7 -6.2 -8.8 Q-5.45 -6.75 -5.45 -6.2 L-6.2 -4.2 -5.9 -3.05 -5.35 -4.5 -4.9 -6.0 -4.45 -7.1 -4.25 -6.8 -3.1 -7.6 Q-2.35 -8.15 -2.3 -8.7 L-1.85 -9.0 Q-1.55 -9.3 -1.55 -9.5 L-1.25 -10.85 -1.3 -11.2 Q-0.6 -11.25 -0.5 -10.7 L-0.4 -10.6 -0.8 -9.8 -1.75 -8.5 -2.45 -7.65 -2.35 -7.55 -2.5 -7.55 -3.1 -7.0 -2.85 -7.0 -1.7 -6.7 -0.6 -6.45 -0.45 -6.4 -0.5 -6.25 -0.45 -5.9 0.5 -5.75 Q1.4 -5.75 1.55 -6.3 L2.0 -5.75 2.15 -4.0 2.45 -3.5 2.65 -3.2 2.35 -2.8 2.35 -2.75 2.1 -2.25 2.65 -0.3 2.8 0.75 2.55 1.1 2.5 1.1 2.55 1.2 2.6 1.9 2.5 4.35 2.3 5.2 2.15 5.65 1.8 6.45 2.35 6.25 3.05 6.4 -3.2 8.75 M-4.4 -10.25 L-3.5 -9.85 -3.45 -9.8 -3.15 -10.4 -3.2 -10.15 -3.35 -9.7 -3.5 -9.25 -3.5 -9.2 -3.55 -9.2 -3.95 -8.95 Q-4.05 -9.85 -4.4 -10.25 M-0.85 -8.8 Q-0.85 -7.4 0.35 -7.4 1.8 -7.4 1.85 -9.35 L2.05 -8.4 Q2.05 -7.9 1.65 -7.35 L1.5 -7.15 1.4 -7.05 0.55 -7.1 -0.2 -6.75 Q-0.55 -6.95 -0.7 -7.5 L-0.8 -7.75 -0.85 -8.1 -0.85 -8.8 M6.65 4.9 L6.85 5.65 6.85 6.55 5.9 7.8 3.95 8.75 4.65 8.1 Q6.05 6.75 6.65 4.9 M0.4 -3.95 L0.25 -4.85 Q-1.65 -6.85 -3.3 -5.9 -1.5 -3.95 0.9 -2.4 L1.05 -2.9 0.4 -3.95 M5.1 6.4 L3.55 6.6 3.05 4.85 3.2 5.1 4.05 5.5 4.9 5.05 5.1 6.4 M-0.65 3.8 Q-2.7 3.9 -4.4 4.8 L-5.0 5.2 -2.35 5.3 -2.35 5.6 Q-1.45 6.35 -0.15 6.55 1.9 3.85 1.85 0.4 L-0.9 3.5 -0.65 3.8 M-3.45 -6.65 L-3.35 -6.8 -3.55 -6.6 -3.45 -6.65 M-5.6 0.1 Q-4.25 1.35 -3.85 2.1 -3.2 1.75 -3.0 3.05 L-2.95 3.05 -2.65 2.9 -2.25 2.6 -2.5 1.8 Q-2.85 -0.85 -5.45 -1.15 L-5.7 -0.9 -5.6 0.1 M-5.15 -2.1 L-5.1 -1.8 Q-3.25 -0.3 -1.7 -2.05 -2.05 -3.45 -3.0 -4.1 L-3.0 -4.7 Q-3.0 -6.1 -4.3 -5.35 L-4.75 -5.0 -5.05 -2.8 -5.2 -2.1 -5.15 -2.1 M-0.8 -1.6 Q-0.95 -1.5 -1.05 -1.45 -2.2 -0.5 -1.9 0.8 L-1.3 1.3 -0.1 1.5 Q0.75 -0.4 -0.8 -1.6 M-2.65 6.45 L-1.7 6.65 -2.5 6.1 -2.65 6.4 -2.65 6.45" fill="#990000" fill-rule="evenodd" stroke="none"/>
      <path d="M0.5 -10.45 Q1.85 -10.4 1.85 -9.45 L1.85 -9.35 Q1.8 -7.4 0.35 -7.4 -0.85 -7.4 -0.85 -8.8 L-0.85 -8.95 Q-0.85 -10.5 0.5 -10.45 M5.65 10.7 L4.9 10.7 4.85 10.6 4.75 10.35 4.8 10.25 5.4 9.35 5.9 7.8 6.85 6.55 7.4 6.7 7.65 8.0 7.15 8.9 6.1 10.25 5.65 10.7 M1.25 10.15 L1.15 10.15 0.7 10.1 0.65 9.55 0.9 9.4 Q2.95 8.1 3.2 8.05 L3.85 7.65 5.1 6.4 4.9 5.05 4.05 5.5 3.2 5.1 3.05 4.85 3.0 4.75 2.95 4.65 Q2.95 4.25 3.1 3.95 L3.2 3.65 4.1 3.05 4.2 3.1 Q5.2 3.1 5.95 3.65 6.65 4.15 6.65 4.9 6.05 6.75 4.65 8.1 L3.95 8.75 3.2 9.3 Q1.95 10.1 1.25 10.15 M-7.15 -0.6 L-7.0 -1.15 -6.45 -1.1 -5.6 0.1 -5.0 1.1 -5.0 1.5 -4.55 1.9 -4.7 2.2 -5.2 1.9 -5.3 1.9 -6.35 0.7 -7.15 -0.25 -7.15 -0.6 M-6.1 -9.7 Q-5.9 -10.65 -5.05 -10.6 -4.65 -10.55 -4.4 -10.25 -4.05 -9.85 -3.95 -8.95 L-3.55 -9.2 -3.5 -9.2 -3.5 -9.25 -3.35 -9.7 -3.2 -10.15 -3.15 -10.4 Q-3.05 -11.1 -2.2 -11.4 -1.5 -11.6 -1.3 -11.2 L-1.25 -10.85 -1.55 -9.5 Q-1.55 -9.3 -1.85 -9.0 L-2.3 -8.7 Q-2.35 -8.15 -3.1 -7.6 L-4.25 -6.8 -4.45 -7.1 -4.9 -6.0 -5.35 -4.5 -5.9 -3.05 -6.2 -4.2 -5.45 -6.2 Q-5.45 -6.75 -6.2 -8.8 L-6.1 -9.7 M1.4 -7.05 L1.55 -6.55 1.55 -6.3 Q1.4 -5.75 0.5 -5.75 L-0.45 -5.9 -0.5 -6.25 -0.45 -6.4 -0.2 -6.75 0.55 -7.1 1.4 -7.05 M2.65 -3.2 L3.45 -2.8 3.6 -2.5 Q4.45 -0.75 3.6 0.75 L3.2 1.3 2.6 1.9 2.55 1.2 2.5 1.1 2.55 1.1 2.8 0.75 2.65 -0.3 2.1 -2.25 2.35 -2.75 2.35 -2.8 2.65 -3.2 M0.4 -3.95 L1.05 -2.9 0.9 -2.4 Q-1.5 -3.95 -3.3 -5.9 -1.65 -6.85 0.25 -4.85 L0.4 -3.95 M-2.35 5.3 L-0.75 4.7 0.05 4.25 0.0 4.1 -0.1 3.95 -0.65 3.8 -0.9 3.5 1.85 0.4 Q1.9 3.85 -0.15 6.55 -1.45 6.35 -2.35 5.6 L-2.35 5.3 M-2.65 6.45 L-2.65 6.4 -2.5 6.1 -1.7 6.65 -2.65 6.45" fill="#ff0000" fill-rule="evenodd" stroke="none"/>
      <path d="M-5.6 0.1 L-5.7 -0.9 -5.45 -1.15 Q-2.85 -0.85 -2.5 1.8 L-2.25 2.6 -2.65 2.9 -2.95 3.05 -3.0 3.05 Q-3.2 1.75 -3.85 2.1 -4.25 1.35 -5.6 0.1 M-3.0 -4.1 Q-2.05 -3.45 -1.7 -2.05 -3.25 -0.3 -5.1 -1.8 L-5.15 -2.1 -4.75 -2.05 Q-3.2 -2.05 -3.0 -4.1 M-0.8 -1.6 Q0.75 -0.4 -0.1 1.5 L-1.3 1.3 -1.9 0.8 Q-2.2 -0.5 -1.05 -1.45 -0.95 -1.5 -0.8 -1.6" fill="#650101" fill-rule="evenodd" stroke="none"/>
      <path d="M7.75 8.7 L8.15 9.8 8.0 10.25 7.85 10.7 Q7.05 11.0 6.35 11.25 L5.75 11.05 5.65 10.7 6.1 10.25 7.15 8.9 7.75 8.7 M3.3 10.15 L3.2 10.2 Q1.5 11.6 -0.65 11.75 L-1.1 11.6 1.25 10.15 Q1.95 10.1 3.2 9.3 L3.95 8.75 5.9 7.8 5.4 9.35 3.3 10.15 M-0.65 9.0 L-4.25 10.45 -4.85 10.05 -3.2 8.75 3.05 6.4 3.2 6.45 3.45 6.65 3.55 7.15 -0.65 9.0 M-0.65 3.8 L-0.1 3.95 0.0 4.1 0.05 4.25 -0.75 4.7 -2.35 5.3 -5.0 5.2 -4.4 4.8 Q-2.7 3.9 -0.65 3.8 M-5.15 -2.1 L-5.2 -2.1 -5.05 -2.8 -4.75 -5.0 -4.3 -5.35 Q-3.0 -6.1 -3.0 -4.7 L-3.0 -4.1 Q-3.2 -2.05 -4.75 -2.05 L-5.15 -2.1" fill="#ffffff" fill-rule="evenodd" stroke="none"/>
      <path d="M4.2 2.8 L4.2 3.1 4.1 3.05 4.2 2.8" fill="#feb445" fill-rule="evenodd" stroke="none"/>
      <path d="M-0.4 -10.6 L-0.35 -10.7 Q-0.1 -10.95 0.5 -10.45 -0.85 -10.5 -0.85 -8.95 L-0.85 -8.8 -0.85 -8.1 -1.3 -7.7 -1.0 -7.6 -0.7 -7.5 Q-0.55 -6.95 -0.2 -6.75 L-0.45 -6.4 -0.6 -6.45 -1.7 -6.7 -2.85 -7.0 -3.1 -7.0 -2.5 -7.55 -2.35 -7.55 -2.45 -7.65 -1.75 -8.5 -0.8 -9.8 -0.4 -10.6 M1.5 -7.15 L2.9 -7.4 2.95 -7.35 2.9 -5.75 2.9 -5.65 2.9 -5.35 Q2.85 -4.15 3.45 -2.8 L2.65 -3.2 2.45 -3.5 2.15 -4.0 2.0 -5.75 1.55 -6.3 1.55 -6.55 1.4 -7.05 1.5 -7.15 M4.5 -0.85 L4.75 0.75 4.2 2.8 4.1 3.05 3.2 3.65 3.1 3.95 Q2.95 4.25 2.95 4.65 L3.0 4.75 3.05 4.85 3.55 6.6 5.1 6.4 3.85 7.65 3.55 7.15 3.45 6.65 3.2 6.45 3.05 6.4 2.35 6.25 1.8 6.45 2.15 5.65 2.3 5.2 2.5 4.35 2.6 1.9 3.2 1.3 3.6 0.75 Q4.45 -0.75 3.6 -2.5 L4.5 -0.85 M6.85 5.65 L7.25 6.0 7.4 6.7 6.85 6.55 6.85 5.65" fill="#bc3f75" fill-rule="evenodd" stroke="none"/>
      <path d="M1.85 -9.35 L2.85 -8.75 Q5.15 -7.45 6.75 0.75 L7.75 8.5 7.65 8.0 7.4 6.7 7.25 6.0 6.85 5.65 6.65 4.9 Q6.65 4.15 5.95 3.65 5.2 3.1 4.2 3.1 L4.2 2.8 4.75 0.75 4.5 -0.85 4.5 -1.35 4.35 -2.8 3.85 -4.25 2.95 -5.6 2.9 -5.65 2.9 -5.75 2.95 -7.35 2.9 -7.4 1.5 -7.15 1.65 -7.35 Q2.05 -7.9 2.05 -8.4 L1.85 -9.35 M-0.85 -8.1 L-0.8 -7.75 -0.7 -7.5 -1.0 -7.6 -1.3 -7.7 -0.85 -8.1" fill="#f5b6f5" fill-rule="evenodd" stroke="none"/>
      <path d="M2.9 -5.65 L2.95 -5.6 3.85 -4.25 4.35 -2.8 4.5 -1.35 4.5 -0.85 3.6 -2.5 3.45 -2.8 Q2.85 -4.15 2.9 -5.35 L2.9 -5.65" fill="#e096e0" fill-rule="evenodd" stroke="none"/>
    </g>
    <g id="sprite7" transform="matrix(1.0, 0.0, 0.0, 1.0, 10.55, 12.0)">
      <use ffdec:characterId="1325" height="22.8" transform="matrix(1.0, 0.0, 0.0, 1.0, -10.55, -12.0)" width="19.6" xlink:href="#shape6"/>
    </g>
    <g id="shape6" transform="matrix(1.0, 0.0, 0.0, 1.0, 10.55, 12.0)">
      <path d="M4.9 -9.3 L4.2 -10.15 5.95 -11.85 8.35 -12.0 8.9 -11.4 9.05 -10.5 8.55 -9.9 7.1 -10.55 5.95 -9.7 5.3 -9.25 4.9 -9.3 M8.45 -8.8 L8.45 -8.5 7.05 -2.85 6.65 -2.0 5.95 -0.55 5.8 -0.25 5.55 -0.25 5.55 -0.3 5.7 -0.85 6.45 -2.85 7.4 -5.85 6.45 -7.45 6.2 -8.1 6.2 -8.95 7.6 -9.5 8.45 -8.8 M5.7 3.45 L5.7 3.5 5.35 3.85 4.05 5.3 3.55 4.75 3.6 3.95 1.9 3.0 1.8 2.9 1.75 2.75 1.85 1.8 2.2 1.45 4.55 1.35 4.85 1.95 4.35 2.45 5.7 3.45 M3.75 5.8 L4.5 6.9 4.35 9.05 2.25 10.6 2.15 10.75 0.8 10.8 0.0 10.2 -0.3 10.05 -2.05 9.1 -2.6 9.35 Q-5.45 9.55 -5.9 6.65 L-6.55 5.55 -7.45 5.0 -9.35 3.65 -9.4 3.6 -10.55 2.05 -9.0 -0.8 -9.1 -2.1 -5.55 -3.45 -5.45 -3.45 -2.85 -2.5 -5.45 -1.15 -5.75 -0.3 -6.5 0.05 -6.5 1.45 -7.65 2.55 -8.55 2.45 -7.9 3.5 -5.7 4.6 -4.9 6.15 -4.8 6.35 -4.45 7.2 -1.75 8.4 -1.6 8.55 -1.85 9.0 -1.1 9.4 2.35 9.2 2.55 8.6 3.45 8.05 3.1 7.65 0.85 7.3 0.45 6.95 0.4 6.3 0.95 5.95 2.9 6.3 3.75 5.8 M-3.45 -4.2 L-3.25 -4.85 -2.75 -5.45 -1.6 -5.7 0.25 -5.15 0.1 -4.55 -0.75 -4.1 0.4 -3.8 1.55 -4.25 3.15 -4.85 3.7 -5.0 4.55 -5.15 5.45 -5.15 6.0 -4.25 4.55 -4.0 1.55 -3.35 Q-0.5 -2.55 -2.5 -3.65 L-3.45 -4.2 M0.4 -6.65 L2.05 -8.3 3.4 -7.85 3.15 -6.7 2.7 -6.55 0.4 -6.65 M1.25 -0.45 L1.45 -0.1 1.25 0.65 Q1.1 0.35 0.75 0.35 L0.1 0.25 0.5 -0.35 0.8 -0.75 1.25 -0.45 M-0.3 -1.05 L-0.15 -0.05 -0.4 0.1 -0.55 0.05 Q-1.4 -0.05 -1.5 0.65 L-2.55 1.2 -2.6 1.2 -4.35 1.8 -4.25 2.65 -4.0 2.75 -2.65 2.75 -3.3 3.65 -4.9 3.6 -5.0 2.4 -4.45 1.55 -4.35 1.65 -2.75 0.0 -2.2 -0.35 -0.4 -1.1 -0.35 -1.1 -0.3 -1.05 M-3.85 6.35 L-4.9 5.2 -4.6 4.65 -3.15 4.3 -3.25 5.1 -2.55 6.15 -2.75 6.55 -3.85 6.35" fill="#ff0000" fill-rule="evenodd" stroke="none"/>
      <path d="M8.55 -9.9 L8.45 -8.8 7.6 -9.5 6.2 -8.95 6.2 -8.1 3.4 -7.85 2.05 -8.3 0.0 -10.2 3.7 -9.15 4.4 -9.0 5.3 -9.25 6.3 -9.8 7.1 -10.55 8.55 -9.9 M5.4 -0.25 L5.4 -0.15 4.55 0.75 3.25 0.6 2.85 0.0 1.45 -0.1 1.25 -0.45 1.85 -1.3 3.1 -1.0 3.6 -1.3 5.1 -1.3 5.4 -0.25 M-5.55 -3.45 L-7.75 -4.5 -5.45 -4.35 -3.45 -4.2 -2.5 -3.65 Q-0.5 -2.55 1.55 -3.35 L4.55 -4.0 6.0 -4.25 5.45 -5.15 4.55 -5.35 3.7 -5.2 0.25 -5.15 -1.6 -5.7 -4.8 -8.35 0.4 -6.65 2.7 -6.55 3.7 -6.6 4.55 -6.65 6.0 -6.75 6.45 -7.45 7.4 -5.85 6.45 -2.85 5.7 -0.85 5.65 -0.85 Q5.25 -0.85 4.7 -2.85 L4.55 -3.15 2.7 -2.65 1.55 -2.45 -1.35 -2.15 -2.85 -2.5 -5.45 -3.45 -5.55 -3.45 M1.75 2.95 L1.9 3.0 3.6 3.95 3.55 4.75 0.85 4.05 1.75 2.95 M0.85 7.3 L3.1 7.65 3.45 8.05 2.55 8.6 -0.05 8.05 0.85 7.3 M-4.8 6.35 L-4.9 6.15 -3.85 6.35 -2.75 6.55 -1.85 6.75 -1.95 8.0 -4.8 6.35" fill="#ffffff" fill-rule="evenodd" stroke="none"/>
      <path d="M6.65 -2.0 L6.4 -1.25 5.95 -0.55 6.65 -2.0 M5.55 -0.3 L5.4 -0.25 5.1 -1.3 3.6 -1.3 3.1 -1.0 1.85 -1.3 1.25 -0.45 0.8 -0.75 -0.3 -1.05 -0.35 -1.1 -0.4 -1.1 -5.15 -0.85 -5.3 0.8 -4.45 1.55 -5.0 2.4 -6.5 2.2 -6.95 3.35 -7.9 3.5 -8.55 2.45 -7.65 2.55 -6.5 1.45 -6.5 0.05 -5.75 -0.3 -5.45 -1.15 -2.85 -2.5 -1.35 -2.15 1.55 -2.45 2.7 -2.65 4.55 -3.15 4.7 -2.85 Q5.25 -0.85 5.65 -0.85 L5.7 -0.85 5.55 -0.3 M5.7 2.1 L5.7 3.45 4.35 2.45 4.85 1.95 5.7 2.1 M4.05 5.3 L3.75 5.8 2.9 6.3 0.95 5.95 0.85 4.05 3.55 4.75 4.05 5.3 M4.4 -9.0 L4.9 -9.3 5.3 -9.25 5.95 -9.7 6.3 -9.8 5.3 -9.25 4.4 -9.0 M6.2 -8.1 L6.45 -7.45 6.0 -6.75 4.55 -6.65 3.7 -6.6 2.7 -6.55 3.15 -6.7 3.4 -7.85 6.2 -8.1 M0.25 -5.15 L3.7 -5.2 4.55 -5.35 5.45 -5.15 4.55 -5.15 3.7 -5.0 3.15 -4.85 1.55 -4.25 0.4 -3.8 -0.75 -4.1 0.1 -4.55 0.25 -5.15 M0.1 0.25 L0.75 0.35 Q1.1 0.35 1.25 0.65 L1.45 -0.1 1.8 0.15 2.2 1.45 1.85 1.8 1.75 2.75 -0.2 2.9 -0.65 2.75 -1.25 2.3 -1.3 2.25 -1.35 2.15 -1.95 2.5 -2.05 2.55 -1.9 2.9 -1.95 3.5 -2.5 4.05 -2.95 4.1 -2.2 5.3 -1.8 6.6 -1.8 6.65 -1.85 6.75 -2.75 6.55 -2.55 6.15 -3.25 5.1 -3.15 4.3 -4.6 4.65 -4.9 5.2 -3.85 6.35 -4.9 6.15 -5.7 4.6 -4.95 3.65 -4.9 3.6 -3.3 3.65 -2.65 2.75 -4.0 2.75 -4.25 2.65 -4.35 1.8 -2.6 1.2 -2.55 1.2 -1.5 0.65 Q-1.4 -0.05 -0.55 0.05 L-0.4 0.1 -0.15 -0.05 -0.1 0.2 0.1 0.25 M2.55 8.6 L2.35 9.2 -1.1 9.4 -1.85 9.0 -1.6 8.55 -0.05 8.05 2.55 8.6 M-1.75 8.4 L-4.45 7.2 -4.8 6.35 -1.95 8.0 -1.75 8.4" fill="#990000" fill-rule="evenodd" stroke="none"/>
      <path d="M1.9 3.0 L1.75 2.95 1.8 2.9 1.9 3.0" fill="#feb445" fill-rule="evenodd" stroke="none"/>
      <path d="M5.4 -0.15 L5.4 0.0 6.15 0.7 6.25 1.7 5.7 2.1 4.85 1.95 4.55 1.35 2.2 1.45 1.8 0.15 1.45 -0.1 2.85 0.0 3.25 0.6 4.55 0.75 5.4 -0.15 M0.8 -0.75 L0.5 -0.35 0.1 0.25 -0.1 0.2 -0.15 -0.05 -0.3 -1.05 0.8 -0.75 M1.75 2.95 L0.85 4.05 0.95 5.95 0.4 6.3 0.45 6.95 0.85 7.3 -0.05 8.05 -1.6 8.55 -1.75 8.4 -1.95 8.0 -1.85 6.75 -1.8 6.65 -1.8 6.6 -2.2 5.3 -2.95 4.1 -2.5 4.05 -1.95 3.5 -1.9 2.9 -2.05 2.55 -1.95 2.5 -1.4 3.45 -0.65 2.75 -0.2 2.9 1.75 2.75 1.8 2.9 1.75 2.95 M-5.7 4.6 L-7.9 3.5 -6.95 3.35 -6.5 2.2 -5.0 2.4 -4.9 3.6 -4.95 3.65 -5.7 4.6 M-0.4 -1.1 L-2.2 -0.35 -2.75 0.0 -4.35 1.65 -4.45 1.55 -5.3 0.8 -5.15 -0.85 -0.4 -1.1" fill="#bc3f75" fill-rule="evenodd" stroke="none"/>
      <path d="M-1.95 2.5 L-1.35 2.15 -1.3 2.25 -1.25 2.3 -0.65 2.75 -1.4 3.45 -1.95 2.5" fill="#e096e0" fill-rule="evenodd" stroke="none"/>
    </g>
    <g id="sprite8" transform="matrix(1.0, 0.0, 0.0, 1.0, 8.15, 10.4)">
      <use ffdec:characterId="1327" height="22.85" transform="matrix(1.0, 0.0, 0.0, 1.0, -8.15, -10.4)" width="18.7" xlink:href="#shape7"/>
    </g>
    <g id="shape7" transform="matrix(1.0, 0.0, 0.0, 1.0, 8.15, 10.4)">
      <path d="M0.15 -10.4 L-1.2 -9.4 0.3 -7.9 0.95 -7.9 1.5 -7.9 Q2.05 -7.95 2.35 -8.45 L2.05 -7.65 2.15 -7.2 0.55 -7.05 0.05 -5.85 2.3 -5.85 1.95 -5.3 2.45 -4.35 4.4 -5.45 4.35 -6.05 5.0 -6.55 5.0 -5.95 6.15 -5.35 5.2 -4.8 Q5.1 -3.75 5.75 -3.0 L6.95 -2.1 7.6 -2.6 6.35 0.45 5.55 0.7 2.95 -0.75 6.3 -0.95 1.2 -2.55 1.0 -2.65 0.35 -3.2 -1.55 -5.35 -4.15 -5.8 -6.55 -4.05 -7.15 -4.4 -5.6 -5.75 -3.25 -6.65 -1.7 -7.05 -2.05 -8.55 -1.7 -9.05 Q-1.0 -10.1 0.15 -10.4 M10.05 3.25 L10.55 3.1 9.65 4.2 5.45 4.85 5.45 6.0 5.0 6.25 Q4.25 6.65 3.7 7.35 L2.9 8.45 2.5 8.0 2.9 6.45 2.15 4.8 2.95 4.0 3.95 4.05 4.05 3.25 4.5 3.45 4.8 3.5 4.95 3.45 5.0 3.45 5.2 3.1 10.05 3.25 M-0.75 10.0 L-1.35 9.65 -0.35 8.7 0.55 7.25 1.4 6.75 Q1.2 8.55 -0.05 9.5 L-0.75 10.0 M-1.95 8.75 L-2.3 8.05 Q-3.95 7.2 -5.1 6.0 L-5.1 3.8 -6.6 3.8 Q-7.35 2.4 -7.7 0.7 L-7.85 0.05 -7.6 -0.7 -5.0 2.0 -3.8 2.05 -3.5 2.8 -3.1 2.9 Q-4.95 3.7 -4.95 4.55 L-4.8 5.15 -4.05 5.3 -4.0 5.3 -3.4 6.25 -1.85 6.15 -1.45 5.6 Q-0.9 4.85 -1.0 4.2 L-0.6 4.05 Q-0.2 3.8 -0.2 3.15 -0.2 2.75 -0.35 2.55 L0.5 2.05 Q-0.75 2.0 -1.1 1.05 L-1.2 0.7 -1.2 0.6 -1.15 -0.45 0.85 -0.45 0.9 0.5 1.5 0.8 2.25 3.9 0.25 4.65 -1.4 6.25 -1.8 6.85 -2.2 7.95 -1.95 8.75 M-2.1 -2.95 Q-1.85 -1.4 -2.95 -0.45 L-3.45 -0.2 Q-4.6 -0.2 -5.4 -0.8 -6.2 -1.45 -6.2 -2.3 L-5.9 -3.6 -5.65 -2.15 Q-4.05 -1.05 -2.7 -2.3 L-2.1 -2.95" fill="#990000" fill-rule="evenodd" stroke="none"/>
      <path d="M0.15 -10.4 L2.15 -10.25 2.55 -8.9 2.35 -8.45 Q2.05 -7.95 1.5 -7.9 L0.95 -7.9 0.3 -7.9 -1.2 -9.4 0.15 -10.4 M2.15 -7.2 L3.7 -6.85 Q4.35 -6.55 4.35 -6.05 L4.4 -5.45 2.45 -4.35 1.95 -5.3 2.3 -5.85 0.05 -5.85 0.55 -7.05 2.15 -7.2 M5.0 -6.55 L6.0 -6.55 Q9.25 -6.1 7.8 -3.0 L7.6 -2.6 6.95 -2.1 5.75 -3.0 Q5.1 -3.75 5.2 -4.8 L6.15 -5.35 5.0 -5.95 5.0 -6.55 M6.35 0.45 L8.35 1.75 10.05 3.25 5.0 1.6 3.4 1.3 5.2 3.1 5.0 3.45 4.95 3.45 4.8 3.5 4.5 3.45 4.05 3.25 3.95 4.05 2.95 4.0 2.15 4.8 2.9 6.45 2.5 8.0 2.9 8.45 2.85 9.0 2.35 9.65 Q1.05 9.65 0.15 10.2 -0.75 10.75 -0.75 11.5 L-1.3 10.7 -0.75 10.0 -0.05 9.5 Q1.2 8.55 1.4 6.75 L0.55 7.25 -0.25 6.7 -2.2 7.95 -1.8 6.85 -1.4 6.25 0.25 4.65 2.25 3.9 1.5 0.8 0.9 0.5 0.85 -0.45 -1.15 -0.45 Q-1.15 -1.3 -0.5 -1.9 0.1 -2.55 1.0 -2.55 L1.2 -2.55 6.3 -0.95 2.95 -0.75 5.55 0.7 6.35 0.45 M-5.6 -5.75 L-2.95 -8.7 -2.05 -8.55 -1.7 -7.05 -3.25 -6.65 -5.6 -5.75 M-4.1 -5.0 L-2.25 -4.2 -2.1 -2.95 -2.7 -2.3 Q-4.05 -1.05 -5.65 -2.15 L-5.9 -3.6 Q-5.9 -4.2 -5.35 -4.6 -4.85 -5.0 -4.1 -5.0 M-0.35 2.55 Q-0.2 2.75 -0.2 3.15 -0.2 3.8 -0.6 4.05 L-1.0 4.2 -2.1 4.3 -2.95 4.8 -4.0 5.3 -4.05 5.3 -4.8 5.15 -4.95 4.55 Q-4.95 3.7 -3.1 2.9 L-2.55 2.65 -0.35 2.55" fill="#ff0000" fill-rule="evenodd" stroke="none"/>
      <path d="M2.35 9.65 L2.45 10.5 Q2.45 11.45 2.0 11.9 1.4 12.45 -0.15 12.45 L-0.8 12.3 -0.95 11.75 -0.75 11.5 Q-0.75 10.75 0.15 10.2 1.05 9.65 2.35 9.65 M-1.35 9.65 L-1.55 9.65 -1.95 8.75 -2.2 7.95 -0.25 6.7 0.55 7.25 -0.35 8.7 -1.35 9.65 M10.05 3.25 L5.2 3.1 3.4 1.3 5.0 1.6 10.05 3.25 M-1.0 4.2 Q-0.9 4.85 -1.45 5.6 L-1.85 6.15 -3.4 6.25 -4.0 5.3 -2.95 4.8 -2.1 4.3 -1.0 4.2" fill="#ffffff" fill-rule="evenodd" stroke="none"/>
      <path d="M1.0 -2.65 L1.2 -2.55 1.0 -2.55 1.0 -2.65" fill="#ca5821" fill-rule="evenodd" stroke="none"/>
      <path d="M1.0 -2.65 L1.0 -2.55 Q0.1 -2.55 -0.5 -1.9 -1.15 -1.3 -1.15 -0.45 L-1.2 0.6 -2.2 0.75 -2.25 0.7 -3.45 -0.2 -2.95 -0.45 Q-1.85 -1.4 -2.1 -2.95 L-2.25 -4.2 -4.1 -5.0 -4.15 -5.8 -1.55 -5.35 0.35 -3.2 1.0 -2.65" fill="#db77db" fill-rule="evenodd" stroke="none"/>
      <path d="M-7.5 -1.95 L-7.5 -2.8 -8.15 -3.5 -7.15 -4.4 -6.55 -4.05 -4.15 -5.8 -4.1 -5.0 Q-4.85 -5.0 -5.35 -4.6 -5.9 -4.2 -5.9 -3.6 L-6.2 -2.3 -7.5 -1.95" fill="#e096e0" fill-rule="evenodd" stroke="none"/>
      <path d="M-7.6 -0.7 L-8.05 -1.6 -7.5 -1.95 -6.2 -2.3 Q-6.2 -1.45 -5.4 -0.8 -4.6 -0.2 -3.45 -0.2 L-2.25 0.7 -2.2 0.75 -1.2 0.6 -1.2 0.7 -1.1 1.05 Q-0.75 2.0 0.5 2.05 L-0.35 2.55 -2.55 2.65 -3.1 2.9 -3.5 2.8 -3.8 2.05 -5.0 2.0 -7.6 -0.7" fill="#bc3f75" fill-rule="evenodd" stroke="none"/>
    </g>
    <g id="sprite9" transform="matrix(1.0, 0.0, 0.0, 1.0, 9.55, 14.9)">
      <use ffdec:characterId="1329" height="26.8" transform="matrix(1.0, 0.0, 0.0, 1.0, -9.55, -14.9)" width="19.05" xlink:href="#shape8"/>
    </g>
    <g id="shape8" transform="matrix(1.0, 0.0, 0.0, 1.0, 9.55, 14.9)">
      <path d="M-3.1 -6.65 L-3.1 -7.05 -2.65 -6.4 -1.8 -6.15 -1.2 -6.4 Q-0.65 -6.7 -0.5 -7.25 L-0.45 -7.6 -0.5 -7.95 -0.1 -7.35 0.25 -7.85 0.5 -8.05 0.5 -8.1 Q1.2 -8.7 2.3 -9.0 L2.2 -8.25 3.45 -7.6 3.65 -6.75 4.1 -6.7 4.4 -7.35 4.65 -8.95 4.25 -9.25 4.4 -9.4 5.2 -9.95 5.45 -10.1 6.9 -10.15 7.05 -10.0 Q5.65 -9.9 5.3 -8.55 L5.15 -7.9 Q5.75 -6.35 7.25 -5.95 L7.8 -6.1 Q7.55 -4.3 6.25 -4.3 L5.45 -4.4 5.4 -4.85 Q3.95 -5.8 2.65 -4.85 L1.75 -2.35 2.65 -1.75 2.95 -1.15 3.75 -0.75 4.5 -1.25 4.35 0.65 4.0 0.9 4.7 3.95 3.65 3.75 2.8 4.3 2.2 4.0 1.15 4.7 0.75 4.75 Q0.0 4.75 -1.0 2.95 L-0.7 2.3 -0.8 1.55 Q-1.05 0.45 -2.1 -0.1 L-1.85 -0.85 -1.9 -1.05 -2.05 -1.95 -2.1 -3.0 -1.6 -4.75 -1.65 -4.75 -2.35 -4.95 -3.1 -6.5 -3.1 -6.65 M5.3 -4.05 L5.3 -3.95 Q5.3 -3.5 4.9 -3.2 L4.6 -1.5 4.4 -2.45 3.4 -3.2 Q3.0 -3.6 3.05 -3.9 L4.3 -3.8 5.3 -4.05 M4.4 7.7 L4.25 8.25 2.0 10.2 Q-0.7 13.05 -3.9 10.8 L-4.75 10.2 -2.9 9.8 -0.3 10.3 0.25 10.5 -0.1 9.75 0.4 8.55 0.55 8.2 0.9 8.05 1.05 6.75 1.1 6.25 1.15 6.25 1.1 6.2 0.95 5.9 1.15 5.6 1.2 5.55 2.0 4.85 2.05 4.8 2.1 4.75 2.1 4.8 2.15 5.9 3.5 6.35 2.85 7.4 2.2 7.6 4.4 7.7 M0.85 -6.45 Q0.95 -6.3 1.35 -6.3 L1.4 -6.3 2.3 -7.45 Q0.75 -7.5 0.75 -6.85 L0.85 -6.45 M0.25 -5.85 L-0.55 -5.6 -1.4 -1.2 0.1 0.8 -0.1 2.05 0.35 2.95 2.05 2.8 2.85 2.05 0.9 1.0 0.75 -0.65 0.4 -0.95 0.4 -1.65 -0.35 -2.55 0.85 -5.4 0.25 -5.85 M-2.7 8.4 L-2.8 8.3 Q-3.5 7.5 -3.55 6.5 L-3.55 5.85 -3.3 6.35 Q-2.45 7.55 -0.75 6.95 L-0.45 6.55 Q-0.35 8.05 -1.85 8.3 L-2.7 8.4" fill="#990000" fill-rule="evenodd" stroke="none"/>
      <path d="M-3.1 -7.05 L-3.0 -7.6 -2.2 -8.05 -2.0 -8.15 -0.6 -8.05 -0.5 -7.95 -0.45 -7.6 -0.5 -7.25 Q-0.65 -6.7 -1.2 -6.4 L-1.8 -6.15 -2.65 -6.4 -3.1 -7.05 M7.05 -10.0 L7.55 -9.3 Q8.35 -7.75 7.8 -6.1 L7.25 -5.95 Q5.75 -6.35 5.15 -7.9 L5.3 -8.55 Q5.65 -9.9 7.05 -10.0 M5.45 -4.4 L5.3 -4.05 4.3 -3.8 3.05 -3.9 Q3.0 -3.6 3.4 -3.2 L4.4 -2.45 4.6 -1.5 4.5 -1.25 3.75 -0.75 2.95 -1.15 2.65 -1.75 1.75 -2.35 2.65 -4.85 Q3.95 -5.8 5.4 -4.85 L5.45 -4.4 M4.7 3.95 L4.4 4.55 4.7 5.4 Q5.15 6.6 4.4 7.7 L2.2 7.6 2.85 7.4 3.5 6.35 2.15 5.9 2.1 4.8 2.8 4.3 3.65 3.75 4.7 3.95 M4.25 -9.25 L4.65 -8.95 4.4 -7.35 4.1 -6.7 3.65 -6.75 3.45 -7.6 2.2 -8.25 2.3 -9.0 4.25 -9.25 M0.85 -6.45 L0.75 -6.85 Q0.75 -7.5 2.3 -7.45 L1.4 -6.3 1.35 -6.3 Q0.95 -6.3 0.85 -6.45 M0.25 -5.85 L0.85 -5.4 -0.35 -2.55 0.4 -1.65 0.4 -0.95 0.75 -0.65 0.9 1.0 2.85 2.05 2.05 2.8 0.35 2.95 -0.1 2.05 0.1 0.8 -1.4 -1.2 -0.55 -5.6 0.25 -5.85 M2.0 4.85 L1.7 5.05 2.05 4.8 2.0 4.85 M-2.1 -0.1 Q-1.05 0.45 -0.8 1.55 L-0.7 2.3 -1.0 2.95 -2.3 1.85 -2.8 1.4 -3.1 1.0 -3.1 -0.15 -2.85 -0.4 -2.5 -0.35 -2.4 -0.3 -2.1 -0.1 M-3.55 5.85 L-3.6 5.4 -3.15 4.9 -2.3 4.25 -0.9 4.05 Q-0.05 4.75 -0.25 5.9 L-0.45 6.55 -0.75 6.95 Q-2.45 7.55 -3.3 6.35 L-3.55 5.85" fill="#ff0000" fill-rule="evenodd" stroke="none"/>
      <path d="M-4.35 -5.7 L-3.9 -6.7 Q-3.1 -8.4 -1.65 -9.75 L-0.2 -10.95 1.05 -11.65 1.2 -11.75 1.35 -11.8 1.3 -11.85 2.8 -14.9 4.0 -12.6 4.05 -12.6 4.95 -12.65 5.05 -12.65 5.2 -12.65 6.1 -12.65 6.6 -12.6 7.2 -12.5 6.9 -11.8 6.55 -11.6 9.5 -11.45 9.5 -11.35 6.9 -10.15 5.45 -10.1 5.55 -10.45 6.2 -10.8 5.65 -11.0 4.25 -11.2 2.9 -11.05 1.6 -10.7 0.3 -10.2 -0.35 -9.9 -1.6 -9.1 -2.2 -8.05 -3.0 -7.6 -3.1 -7.05 -3.1 -6.65 -4.15 -5.3 -4.35 -5.7" fill="#f5b6f5" fill-rule="evenodd" stroke="none"/>
      <path d="M-4.35 -5.7 L-4.15 -5.3 -3.1 -6.65 -3.1 -6.5 -3.7 -4.95 -3.85 -4.35 -3.9 -2.9 -3.75 -1.85 -3.45 -1.05 -4.75 2.4 -3.1 2.95 -2.85 3.1 -2.95 3.85 -3.15 4.9 -3.6 5.4 -3.55 5.85 -3.55 6.5 Q-3.5 7.5 -2.8 8.3 L-2.9 9.8 -4.75 10.2 -5.15 10.95 -7.15 11.9 -7.55 11.45 -9.55 11.2 Q-8.8 10.95 -8.15 10.15 L-7.3 8.85 -8.65 7.85 -6.2 4.3 -6.25 3.1 -6.15 1.75 -5.95 0.45 -5.65 -0.95 -5.15 -2.9 -4.65 -4.75 -4.35 -5.7 M-2.2 -8.05 L-1.6 -9.1 -0.35 -9.9 0.3 -10.2 1.6 -10.7 2.9 -11.05 4.25 -11.2 5.65 -11.0 6.2 -10.8 5.55 -10.45 5.45 -10.1 5.2 -9.95 4.4 -10.1 3.75 -10.15 0.25 -9.95 -0.2 -9.75 Q-1.3 -9.15 -2.0 -8.15 L-2.2 -8.05" fill="#e096e0" fill-rule="evenodd" stroke="none"/>
      <path d="M-2.0 -8.15 Q-1.3 -9.15 -0.2 -9.75 L0.25 -9.95 3.75 -10.15 4.4 -10.1 5.2 -9.95 4.4 -9.4 4.25 -9.25 2.3 -9.0 Q1.2 -8.7 0.5 -8.1 L0.5 -8.05 0.25 -7.85 -0.1 -7.35 -0.5 -7.95 -0.6 -8.05 -2.0 -8.15 M2.0 4.85 L1.2 5.55 1.15 5.6 0.95 5.9 1.1 6.2 1.1 6.25 0.1 6.55 0.25 7.55 0.1 8.3 -1.35 9.1 -2.25 8.95 -2.7 8.4 -1.85 8.3 Q-0.35 8.05 -0.45 6.55 L-0.25 5.9 Q-0.05 4.75 -0.9 4.05 L-2.3 4.25 -2.45 3.5 -2.85 3.1 -3.1 2.95 -4.75 2.4 -3.45 -1.05 -3.75 -1.85 -3.9 -2.9 -3.85 -4.35 -3.7 -4.95 -3.1 -6.5 -2.35 -4.95 -1.65 -4.75 -1.6 -4.75 -2.1 -3.0 -2.05 -1.95 -1.9 -1.05 -1.85 -0.85 -2.1 -0.1 -2.4 -0.3 -2.5 -0.35 -2.85 -0.4 -3.1 -0.15 -3.1 1.0 -2.8 1.4 -2.3 1.85 -1.0 2.95 Q0.0 4.75 0.75 4.75 L1.15 4.7 2.2 4.0 2.8 4.3 2.1 4.8 2.1 4.75 2.05 4.8 1.7 5.05 2.0 4.85 M1.05 6.75 L0.9 8.05 0.55 8.2 0.4 8.55 0.4 8.3 0.5 7.65 0.8 7.1 1.05 6.75 M-0.1 9.75 L0.25 10.5 -0.3 10.3 -0.1 9.75" fill="#bc3f75" fill-rule="evenodd" stroke="none"/>
      <path d="M1.1 6.25 L1.05 6.75 0.8 7.1 0.5 7.65 0.4 8.3 0.4 8.55 -0.1 9.75 -0.3 10.3 -2.9 9.8 -2.8 8.3 -2.7 8.4 -2.25 8.95 -1.35 9.1 0.1 8.3 0.25 7.55 0.1 6.55 1.1 6.25 M-3.15 4.9 L-2.95 3.85 -2.85 3.1 -2.45 3.5 -2.3 4.25 -3.15 4.9" fill="#db77db" fill-rule="evenodd" stroke="none"/>
    </g>
  </defs>
</svg>
