<?xml version="1.0" encoding="UTF-8" standalone="no"?>
<svg xmlns:ffdec="https://www.free-decompiler.com/flash" xmlns:xlink="http://www.w3.org/1999/xlink" ffdec:objectType="frame" height="15.0px" width="23.2px" xmlns="http://www.w3.org/2000/svg">
  <g transform="matrix(1.0, 0.0, 0.0, 1.0, 11.6, 7.5)">
    <use ffdec:characterId="1960" height="15.0" transform="matrix(1.0, 0.0, 0.0, 1.0, -11.6, -7.5)" width="23.2" xlink:href="#shape0"/>
  </g>
  <defs>
    <g id="shape0" transform="matrix(1.0, 0.0, 0.0, 1.0, 11.6, 7.5)">
      <path d="M5.75 0.5 L5.35 0.45 5.3 -0.3 5.75 0.5 M2.65 1.2 Q1.75 1.65 1.4 2.55 L0.8 3.5 1.95 -1.4 2.65 1.2" fill="#ffcc99" fill-rule="evenodd" stroke="none"/>
      <path d="M11.2 0.45 L11.2 0.65 Q11.2 1.15 10.8 1.45 L10.75 1.45 9.2 2.25 8.35 2.2 8.4 1.55 8.7 1.3 9.2 2.25 9.45 0.9 Q10.2 0.5 10.65 0.4 L11.05 0.35 Q11.15 0.1 11.2 0.45 M7.3 3.35 L6.4 4.0 4.5 5.2 4.9 5.55 4.7 6.7 4.1 7.15 4.0 7.15 2.5 6.55 2.45 5.75 3.95 4.2 4.15 5.75 4.85 3.5 5.5 3.1 4.95 3.15 5.35 0.45 5.75 0.5 6.8 1.35 6.6 2.6 7.2 2.4 7.3 3.35 M-4.55 5.4 L-5.75 4.95 -6.15 4.8 -6.45 4.7 -6.75 4.55 -7.25 4.35 -7.3 4.3 -7.75 4.1 -7.25 3.85 -6.4 3.3 -6.15 3.1 -5.9 3.15 -4.55 3.25 Q-4.05 3.25 -3.5 3.65 L-3.1 4.15 -3.35 4.9 Q-3.75 5.4 -4.55 5.4 M-8.75 3.55 L-9.1 3.0 -8.5 2.75 -8.75 3.55 M7.3 -1.9 L7.2 -1.9 Q6.15 -1.9 5.15 -3.7 5.15 -4.8 6.55 -4.65 L6.75 -4.6 6.8 -4.6 6.85 -4.6 Q7.95 -4.35 7.95 -3.15 L7.7 -2.3 7.3 -1.9 M-3.45 -4.7 Q-2.45 -3.75 -2.3 -2.65 L-2.3 -2.5 Q-2.4 -2.35 -2.8 -2.35 -6.2 -4.3 -6.2 -4.55 L-6.1 -5.25 Q-5.85 -6.45 -4.35 -5.4 L-3.45 -4.7 M8.35 2.4 L8.4 2.5 8.3 2.6 8.35 2.4 M0.4 5.1 L0.75 4.9 0.8 4.85 Q2.8 3.85 3.15 1.9 L3.2 1.65 3.9 3.35 Q3.05 3.6 2.4 4.2 L0.75 5.45 0.2 5.75 0.4 5.1" fill="#ff0000" fill-rule="evenodd" stroke="none"/>
      <path d="M10.8 1.45 Q10.45 2.15 9.25 2.65 L8.3 3.0 8.3 2.6 8.4 2.5 8.35 2.4 8.35 2.2 9.2 2.25 10.75 1.45 10.8 1.45 M6.4 4.0 L6.05 4.45 4.85 5.45 4.9 5.55 4.5 5.2 6.4 4.0 M4.1 7.15 L4.0 7.2 3.45 7.25 Q2.45 7.25 1.8 5.7 L0.75 6.2 -0.15 6.6 0.2 5.75 0.75 5.45 2.4 4.2 Q3.05 3.6 3.9 3.35 L3.95 4.2 2.45 5.75 2.5 6.55 4.0 7.15 4.1 7.15 M-0.7 6.85 L-2.95 7.5 -3.4 7.35 -3.9 7.15 Q-4.45 7.15 -4.6 6.6 L-4.55 5.65 -4.55 5.4 Q-3.75 5.4 -3.35 4.9 L-3.1 4.15 -3.5 3.65 Q-4.05 3.25 -4.55 3.25 L-5.9 3.15 -6.15 3.1 -5.45 2.15 -4.45 2.75 -4.15 2.9 -3.1 3.3 -0.7 6.85 M-6.45 4.7 L-7.25 4.35 -6.75 4.55 -6.45 4.7 M-9.1 3.0 L-10.0 0.55 -8.7 -0.5 -8.05 0.65 -8.5 2.75 -9.1 3.0 M-10.1 -0.65 L-11.0 -4.15 Q-10.3 -4.3 -9.7 -2.9 L-9.3 -1.9 -10.1 -0.65 M-2.85 -0.9 L-3.1 -0.9 -3.15 -0.9 Q-3.85 -0.9 -3.95 -1.35 L-3.85 -2.0 Q-5.85 -2.8 -6.3 -3.25 L-6.55 -3.95 Q-6.55 -4.9 -6.1 -5.25 L-6.2 -4.55 Q-6.2 -4.3 -2.8 -2.35 -2.4 -2.35 -2.3 -2.5 L-2.3 -2.65 Q-2.45 -3.75 -3.45 -4.7 -1.85 -3.65 -1.85 -2.1 -1.85 -1.35 -2.2 -1.1 L-2.85 -0.9 M4.7 -2.75 L4.65 -3.25 Q4.65 -4.85 6.2 -4.75 L6.75 -4.6 6.55 -4.65 Q5.15 -4.8 5.15 -3.7 6.15 -1.9 7.2 -1.9 L7.3 -1.9 6.45 -1.65 5.6 -1.75 5.1 -1.95 4.7 -2.75 M9.65 0.65 L10.65 0.4 Q10.2 0.5 9.45 0.9 L9.65 0.65 M8.4 1.55 L8.45 0.9 8.7 1.3 8.4 1.55 M4.95 3.15 L5.5 3.1 4.85 3.5 4.95 3.15 M7.2 2.4 L6.6 2.6 6.8 1.35 7.2 2.4 M2.65 1.2 L3.2 1.65 3.15 1.9 Q2.8 3.85 0.8 4.85 L0.75 4.9 0.4 5.1 0.8 3.5 1.4 2.55 Q1.75 1.65 2.65 1.2" fill="#990000" fill-rule="evenodd" stroke="none"/>
      <path d="M-11.0 -4.15 L-11.6 -4.8 -7.25 -6.85 -5.85 -7.0 -3.3 -7.15 0.75 -7.5 0.95 -7.5 4.0 -7.0 Q5.3 -6.65 6.0 -5.95 L6.6 -5.7 6.7 -5.7 Q8.45 -5.7 9.45 -3.9 L9.7 -3.4 Q10.3 -2.0 10.45 -0.1 L10.35 0.0 8.9 -1.75 9.65 0.65 9.45 0.9 9.2 2.25 8.0 -0.45 7.35 0.3 5.6 -1.75 6.45 -1.65 7.3 -1.9 7.7 -2.3 7.95 -3.15 Q7.95 -4.35 6.85 -4.6 L6.8 -4.6 6.75 -4.6 6.2 -4.75 Q4.65 -4.85 4.65 -3.25 L4.7 -2.75 4.1 1.6 4.0 1.0 Q3.4 -2.45 0.95 -5.25 1.25 -2.9 0.75 -0.75 0.15 1.95 -1.75 4.25 L-2.25 3.2 Q-3.15 1.1 -2.85 -0.9 L-2.2 -1.1 Q-1.85 -1.35 -1.85 -2.1 -1.85 -3.65 -3.45 -4.7 L-4.35 -5.4 Q-5.85 -6.45 -6.1 -5.25 -6.55 -4.9 -6.55 -3.95 L-6.3 -3.25 Q-5.85 -2.8 -3.85 -2.0 L-3.95 -1.35 Q-3.85 -0.9 -3.15 -0.9 L-3.1 -0.9 -4.15 2.9 -4.45 2.75 -4.6 1.6 Q-4.6 0.35 -4.25 -0.7 L-4.85 0.4 -5.3 1.45 Q-5.3 1.8 -5.45 2.15 L-6.15 3.1 -6.4 3.3 -7.25 3.85 -7.75 4.1 -8.2 4.25 -9.6 6.0 -9.15 5.05 -9.35 4.5 -8.75 3.55 -8.5 2.75 -8.05 0.65 -8.7 -0.5 -10.0 0.55 -11.6 1.4 -10.1 -0.65 -9.3 -1.9 -9.7 -2.9 Q-10.3 -4.3 -11.0 -4.15" fill="#4f3d31" fill-rule="evenodd" stroke="none"/>
      <path d="M9.45 -3.9 Q11.05 -2.55 11.05 -1.0 L11.6 0.3 11.2 0.45 Q11.15 0.1 11.05 0.35 L10.65 0.4 9.65 0.65 8.9 -1.75 10.35 0.0 10.45 -0.1 Q10.3 -2.0 9.7 -3.4 L9.45 -3.9 M8.3 2.6 L7.95 4.85 7.3 3.35 7.2 2.4 6.8 1.35 5.75 0.5 5.3 -0.3 5.35 0.45 4.95 3.15 4.85 3.5 4.15 5.75 3.95 4.2 3.9 3.35 3.2 1.65 2.65 1.2 1.95 -1.4 0.8 3.5 0.4 5.1 0.2 5.75 -0.15 6.6 -0.3 7.4 -0.7 6.85 -3.1 3.3 -4.15 2.9 -3.1 -0.9 -2.85 -0.9 Q-3.15 1.1 -2.25 3.2 L-1.75 4.25 Q0.15 1.95 0.75 -0.75 1.25 -2.9 0.95 -5.25 3.4 -2.45 4.0 1.0 L4.1 1.6 4.7 -2.75 5.1 -1.95 5.6 -1.75 7.35 0.3 8.0 -0.45 9.2 2.25 8.7 1.3 8.45 0.9 8.4 1.55 8.35 2.2 8.35 2.4 8.3 2.6 M-5.45 2.15 Q-5.3 1.8 -5.3 1.45 L-4.85 0.4 -4.25 -0.7 Q-4.6 0.35 -4.6 1.6 L-4.45 2.75 -5.45 2.15" fill="#251c16" fill-rule="evenodd" stroke="none"/>
    </g>
  </defs>
</svg>
