<?xml version="1.0" encoding="UTF-8" standalone="no"?>
<svg xmlns:ffdec="https://www.free-decompiler.com/flash" xmlns:xlink="http://www.w3.org/1999/xlink" ffdec:objectType="frame" height="58.7px" width="43.05px" xmlns="http://www.w3.org/2000/svg">
  <g transform="matrix(1.0, 0.0, 0.0, 1.0, 17.4, 29.0)">
    <use ffdec:characterId="2135" height="15.05" transform="matrix(1.0, 0.0, 0.0, 1.0, -14.55, 14.65)" width="40.2" xlink:href="#shape0"/>
    <use ffdec:characterId="2137" height="47.35" transform="matrix(1.0, 0.0, 0.0, 1.0, -17.4, -29.0)" width="33.05" xlink:href="#shape1"/>
  </g>
  <defs>
    <g id="shape0" transform="matrix(1.0, 0.0, 0.0, 1.0, 14.55, -14.65)">
      <path d="M2.7 15.0 L3.7 15.0 3.9 15.05 9.85 16.7 Q11.75 17.35 16.4 20.3 L20.55 23.25 20.9 23.25 Q21.0 23.45 21.25 23.45 L23.05 23.75 23.9 23.9 24.8 24.3 25.45 25.1 24.3 24.45 22.25 24.7 25.65 25.6 25.55 26.4 24.7 26.85 Q22.9 27.8 21.15 27.25 L20.25 26.75 19.45 26.95 18.55 27.75 16.9 28.9 15.5 29.1 Q13.55 29.25 11.35 27.7 9.1 26.15 5.25 25.9 1.35 25.65 -3.55 26.9 -8.5 28.15 -10.85 27.9 -13.25 27.7 -14.45 25.6 L-14.5 25.55 -14.55 24.65 -14.3 21.85 -14.1 21.3 -14.0 21.1 -14.0 21.8 Q-12.2 19.35 -9.4 18.3 -6.8 19.5 -4.85 21.55 L-4.25 22.2 -3.2 21.75 Q-1.45 20.85 -0.05 19.6 L1.65 17.6 2.1 17.65 2.7 15.0 M-4.0 15.0 L0.85 15.0 -0.45 17.75 -1.2 18.75 -2.2 18.65 Q-4.0 18.25 -4.5 16.55 L-4.0 15.0" fill="#ebbc8d" fill-rule="evenodd" stroke="none"/>
      <path d="M25.45 25.1 L25.65 25.6 22.25 24.7 24.3 24.45 25.45 25.1 M25.55 26.4 Q26.0 26.95 23.5 28.7 L21.95 28.7 21.25 28.35 Q20.9 28.0 19.75 27.35 L18.8 28.7 17.7 28.9 Q14.3 29.85 10.75 29.65 L7.1 28.35 Q4.5 27.35 2.6 27.35 L-1.55 27.9 Q-2.95 28.25 -5.0 29.15 L-5.5 29.25 -6.1 29.35 -9.75 28.85 Q-11.6 28.45 -12.75 27.85 -14.1 27.15 -14.45 25.6 -13.25 27.7 -10.85 27.9 -8.5 28.15 -3.55 26.9 1.35 25.65 5.25 25.9 9.1 26.15 11.35 27.7 13.55 29.25 15.5 29.1 L16.9 28.9 18.55 27.75 19.45 26.95 20.25 26.75 21.15 27.25 Q22.9 27.8 24.7 26.85 L25.55 26.4 M-14.0 21.1 L-9.6 15.05 -4.6 14.7 -4.0 15.0 -4.5 16.55 Q-4.0 18.25 -2.2 18.65 L-1.2 18.75 -0.45 17.75 0.85 15.0 1.7 14.65 Q2.25 14.6 2.7 15.0 L2.1 17.65 1.65 17.6 -0.05 19.6 -1.05 19.85 -2.3 19.85 -3.45 19.75 -3.75 19.55 Q-5.45 18.6 -6.25 17.45 L-6.35 17.45 -6.4 18.0 -4.85 19.9 -4.3 20.4 -3.2 21.75 -4.25 22.2 -4.85 21.55 Q-6.8 19.5 -9.4 18.3 -12.2 19.35 -14.0 21.8 L-14.0 21.1" fill="#d8ac8c" fill-rule="evenodd" stroke="none"/>
      <path d="M21.95 28.7 L21.15 28.7 21.05 28.55 18.8 28.7 19.75 27.35 Q20.9 28.0 21.25 28.35 L21.95 28.7 M10.75 29.65 L7.85 29.35 3.05 29.0 Q-2.3 28.75 -5.0 29.15 -2.95 28.25 -1.55 27.9 L2.6 27.35 Q4.5 27.35 7.1 28.35 L10.75 29.65 M-0.05 19.6 Q-1.45 20.85 -3.2 21.75 L-4.3 20.4 -4.85 19.9 -6.4 18.0 -6.35 17.45 -6.25 17.45 Q-5.45 18.6 -3.75 19.55 L-3.45 19.75 -2.3 19.85 -1.05 19.85 -0.05 19.6" fill="#d0a376" fill-rule="evenodd" stroke="none"/>
    </g>
    <g id="shape1" transform="matrix(1.0, 0.0, 0.0, 1.0, 17.4, 29.0)">
      <path d="M5.75 -24.65 Q6.6 -22.35 6.6 -19.7 L5.95 -19.45 5.65 -18.95 5.6 -18.95 5.6 -18.9 Q4.35 -18.05 3.1 -19.2 L2.55 -19.75 2.45 -22.95 Q1.95 -25.6 2.15 -28.25 L2.35 -29.0 3.1 -29.0 3.6 -28.45 2.85 -20.7 5.75 -24.65 M11.15 -19.3 L10.95 -24.45 11.65 -25.35 12.15 -24.15 Q15.55 -19.45 14.05 -12.0 L13.65 -9.7 13.45 -8.1 11.05 -10.4 10.75 -11.1 11.2 -18.45 11.15 -19.3" fill="#ffffff" fill-rule="evenodd" stroke="none"/>
      <path d="M3.6 -28.45 Q4.5 -28.45 5.15 -27.3 5.75 -26.2 5.75 -24.65 L2.85 -20.7 3.6 -28.45 M-11.75 -25.9 Q-11.65 -27.95 -8.9 -27.4 -6.25 -26.95 -5.05 -25.45 L-5.1 -25.3 -5.7 -24.65 -6.9 -24.75 -8.05 -25.9 -10.2 -25.3 -11.65 -25.3 -11.75 -25.9 M-3.55 -24.55 L-2.25 -24.6 -1.15 -24.45 Q0.3 -24.15 1.05 -23.6 L1.45 -22.8 -2.75 -22.95 -3.75 -24.05 -3.55 -24.55 M-2.2 -13.45 Q-1.75 -14.35 -0.1 -14.45 L1.4 -14.2 1.7 -14.0 2.15 -13.15 2.15 -12.75 Q2.15 -12.05 1.85 -11.7 L1.65 -11.55 Q1.15 -11.2 -0.5 -11.2 -2.05 -11.2 -2.4 -11.9 L-2.4 -12.7 -2.2 -13.45 M-10.1 -23.35 L-9.3 -24.15 -6.55 -23.95 -5.85 -23.45 -6.35 -21.45 Q-8.05 -20.85 -9.55 -22.0 -10.25 -22.55 -10.1 -23.35 M-12.7 -12.75 Q-11.8 -13.9 -10.3 -13.65 L-9.6 -13.35 -9.35 -11.4 Q-11.2 -10.15 -12.4 -12.15 L-12.7 -12.75 M-9.3 -10.65 Q-6.25 -10.6 -5.15 -8.2 L-5.1 -7.75 -5.4 -7.4 Q-7.7 -6.6 -9.2 -8.7 L-10.2 -10.1 -9.3 -10.65" fill="#ff0000" fill-rule="evenodd" stroke="none"/>
      <path d="M6.6 -19.7 L8.6 -18.7 9.1 -18.95 9.55 -19.15 11.15 -19.3 11.2 -18.45 8.5 -16.45 7.35 -17.95 5.75 -17.5 6.25 -16.3 7.1 -15.8 8.05 -14.8 8.35 -13.95 10.75 -11.1 11.05 -10.4 11.5 -8.85 Q11.8 -7.95 12.8 -7.55 L14.5 -6.6 15.2 -5.75 15.45 -4.0 15.45 -3.9 15.2 -2.85 14.6 -2.45 14.35 -2.1 14.15 -2.2 13.9 -2.4 14.05 -1.65 14.05 -1.6 13.6 0.3 13.65 0.2 13.2 2.25 Q11.35 5.2 10.95 6.25 10.5 7.6 9.85 11.45 L9.4 13.05 7.65 16.0 7.5 16.1 7.4 16.1 5.2 15.7 5.45 15.95 2.5 16.9 2.5 15.7 2.8 15.3 2.8 15.0 Q2.75 9.8 -0.4 5.5 2.2 11.1 -0.1 17.5 L-0.1 17.55 -2.4 17.8 -3.75 17.55 -3.65 16.65 -3.9 14.6 Q-4.1 13.25 -3.45 11.35 -4.9 13.3 -5.55 15.8 L-5.55 15.95 -6.3 14.75 -7.25 12.4 -8.4 11.45 -10.7 8.95 Q-12.85 6.05 -14.2 2.7 L-15.5 -1.4 -16.3 -4.9 Q-17.05 -7.5 -17.35 -12.1 -17.65 -16.75 -15.4 -21.5 L-14.25 -23.5 -9.8 -24.35 -9.3 -24.15 -10.1 -23.35 Q-10.75 -22.15 -9.95 -21.15 -7.8 -18.4 -4.7 -21.75 L-4.9 -19.7 Q-4.95 -19.15 -4.5 -18.6 L-4.15 -18.4 Q-0.65 -17.3 1.35 -14.6 L1.4 -14.2 -0.1 -14.45 Q-1.75 -14.35 -2.2 -13.45 -2.75 -13.0 -2.75 -12.2 L-2.3 -10.85 Q-1.65 -9.75 -0.4 -9.75 0.45 -9.75 1.1 -10.35 L1.7 -11.1 1.95 -8.1 2.7 -10.9 2.9 -11.7 4.35 -7.2 4.6 -7.7 4.95 -2.45 Q5.35 -1.6 6.1 -1.4 L6.15 -1.4 6.55 -1.3 7.2 -1.25 7.55 -1.4 7.75 -1.55 8.95 -2.2 8.85 -2.65 9.2 -3.5 8.0 -4.7 7.6 -5.25 6.5 -7.5 5.4 -9.85 6.7 -9.6 5.85 -12.5 6.85 -13.25 6.85 -13.7 4.6 -14.3 4.1 -15.15 -1.5 -18.2 3.2 -17.45 -1.05 -21.2 2.55 -19.75 3.1 -19.2 Q4.35 -18.05 5.6 -18.9 L5.65 -18.95 5.95 -19.45 6.6 -19.7 M11.5 -3.3 L11.05 -3.2 10.75 -2.8 11.5 -3.3 M-9.35 -11.4 L-9.6 -13.35 -10.3 -13.65 Q-11.8 -13.9 -12.7 -12.75 -12.9 -12.1 -12.7 -11.55 -10.9 -6.8 -6.05 -6.0 L-5.4 -7.4 -5.1 -7.75 -5.15 -8.2 Q-6.25 -10.6 -9.3 -10.65 L-9.35 -11.4 M-1.4 10.65 L-1.3 10.8 -1.55 10.2 -1.7 10.2 -1.4 10.65" fill="#ebbc8d" fill-rule="evenodd" stroke="none"/>
      <path d="M13.65 -9.7 L14.05 -9.1 14.15 -8.95 15.1 -7.1 15.2 -7.0 15.65 -5.55 15.45 -4.0 15.2 -5.75 14.5 -6.6 12.8 -7.55 Q11.8 -7.95 11.5 -8.85 L11.05 -10.4 13.45 -8.1 13.65 -9.7 M-14.25 -23.5 L-11.75 -25.9 -11.65 -25.3 -10.2 -25.3 -8.05 -25.9 -6.9 -24.75 -5.7 -24.65 -5.1 -25.3 -3.55 -24.55 -3.75 -24.05 -2.75 -22.95 1.45 -22.8 1.05 -23.6 2.45 -22.95 2.55 -19.75 -1.05 -21.2 3.2 -17.45 -1.5 -18.2 4.1 -15.15 4.6 -14.3 6.85 -13.7 6.85 -13.25 5.85 -12.5 6.7 -9.6 5.4 -9.85 6.5 -7.5 7.6 -5.25 8.0 -4.7 9.2 -3.5 8.85 -2.65 8.95 -2.2 7.75 -1.55 7.55 -1.4 7.2 -1.25 6.55 -1.3 6.15 -1.4 6.1 -1.4 Q5.35 -1.6 4.95 -2.45 L4.6 -7.7 4.35 -7.2 2.9 -11.7 2.15 -13.15 1.7 -14.0 1.35 -14.6 Q-0.65 -17.3 -4.15 -18.4 L-4.5 -18.6 Q-4.95 -19.15 -4.9 -19.7 L-4.7 -21.75 Q-7.8 -18.4 -9.95 -21.15 -10.75 -22.15 -10.1 -23.35 -10.25 -22.55 -9.55 -22.0 -8.05 -20.85 -6.35 -21.45 L-5.85 -23.45 -6.55 -23.95 -9.3 -24.15 -9.8 -24.35 -14.25 -23.5 M5.65 -18.95 L5.6 -18.9 5.6 -18.95 5.65 -18.95 M1.7 -11.1 L1.1 -10.35 Q0.45 -9.75 -0.4 -9.75 -1.65 -9.75 -2.3 -10.85 L-2.75 -12.2 Q-2.75 -13.0 -2.2 -13.45 L-2.4 -12.7 -2.4 -11.9 Q-2.05 -11.2 -0.5 -11.2 1.15 -11.2 1.65 -11.55 L1.85 -11.7 1.7 -11.1 M10.75 -11.1 L8.35 -13.95 8.05 -14.8 7.1 -15.8 6.25 -16.3 5.75 -17.5 7.35 -17.95 8.5 -16.45 11.2 -18.45 10.75 -11.1 M11.5 -3.3 L10.75 -2.8 11.05 -3.2 11.5 -3.3 M-12.7 -12.75 L-12.4 -12.15 Q-11.2 -10.15 -9.35 -11.4 L-9.3 -10.65 -10.2 -10.1 -9.2 -8.7 Q-7.7 -6.6 -5.4 -7.4 L-6.05 -6.0 Q-10.9 -6.8 -12.7 -11.55 -12.9 -12.1 -12.7 -12.75" fill="#990000" fill-rule="evenodd" stroke="none"/>
      <path d="M14.15 -2.2 L14.05 -1.65 13.9 -2.4 14.15 -2.2 M13.2 2.25 L10.95 13.05 Q10.1 16.05 9.5 16.8 8.85 17.55 7.65 17.3 6.65 17.0 5.45 15.95 L5.2 15.7 7.4 16.1 7.5 16.1 7.65 16.0 9.4 13.05 9.85 11.45 Q10.5 7.6 10.95 6.25 11.35 5.2 13.2 2.25 M2.5 16.9 Q1.05 18.25 -0.1 17.55 L-0.1 17.5 Q2.2 11.1 -0.4 5.5 2.75 9.8 2.8 15.0 L2.8 15.3 2.5 15.7 2.5 16.9 M-3.75 17.55 L-5.8 17.0 -5.8 16.95 -6.15 16.85 Q-7.05 16.15 -7.8 15.8 L-9.6 15.05 -10.65 13.6 -11.65 11.9 -13.7 7.35 -14.05 6.0 -14.9 3.05 -15.85 -1.4 -16.3 -4.9 -15.5 -1.4 -14.2 2.7 Q-12.85 6.05 -10.7 8.95 L-8.4 11.45 -7.25 12.4 -6.3 14.75 -5.55 15.95 -5.55 15.8 Q-4.9 13.3 -3.45 11.35 -4.1 13.25 -3.9 14.6 L-3.65 16.65 -3.75 17.55 M2.9 -11.7 L2.7 -10.9 1.95 -8.1 1.7 -11.1 1.85 -11.7 Q2.15 -12.05 2.15 -12.75 L2.15 -13.15 2.9 -11.7 M1.4 -14.2 L1.35 -14.6 1.7 -14.0 1.4 -14.2 M-1.4 10.65 L-1.7 10.2 -1.55 10.2 -1.3 10.8 -1.4 10.65" fill="#d8ac8c" fill-rule="evenodd" stroke="none"/>
      <path d="M-4.5 18.35 L-4.55 18.3 -4.5 18.3 -4.5 18.35" fill="#ebbb98" fill-rule="evenodd" stroke="none"/>
    </g>
  </defs>
</svg>
