<?xml version="1.0" encoding="UTF-8" standalone="no"?>
<svg xmlns:ffdec="https://www.free-decompiler.com/flash" xmlns:xlink="http://www.w3.org/1999/xlink" ffdec:objectType="frame" height="58.7px" width="43.05px" xmlns="http://www.w3.org/2000/svg">
  <g transform="matrix(1.0, 0.0, 0.0, 1.0, 17.4, 29.0)">
    <use ffdec:characterId="2138" height="49.4" transform="matrix(1.0, 0.0, 0.0, 1.0, -17.4, -26.25)" width="35.0" xlink:href="#shape0"/>
  </g>
  <defs>
    <g id="shape0" transform="matrix(1.0, 0.0, 0.0, 1.0, 17.4, 26.25)">
      <path d="M14.05 -1.65 L14.05 -1.6 13.6 0.3 13.65 0.2 13.2 2.25 Q11.35 5.2 10.95 6.25 10.5 7.6 9.85 11.45 L9.7 12.1 6.9 12.05 6.6 12.55 Q6.15 13.55 6.85 14.4 L7.4 16.0 5.3 14.45 5.9 10.3 7.45 10.45 Q8.7 7.5 6.25 7.4 L4.2 9.45 4.0 8.4 Q3.1 4.8 0.8 1.8 L0.35 2.0 0.0 3.6 0.6 4.7 0.0 6.05 -0.4 5.5 Q0.6 7.65 0.9 9.9 L-0.3 10.0 -1.15 9.4 -2.95 9.35 -2.8 7.9 Q-2.85 7.5 -3.05 7.2 -4.55 4.65 -7.25 5.9 -7.6 6.5 -7.55 7.05 -7.3 10.25 -3.95 10.2 L-4.4 11.6 -7.1 12.9 -7.25 12.4 -8.4 11.45 -10.7 8.95 Q-12.85 6.05 -14.2 2.7 -15.3 -0.05 -16.3 -4.9 -17.05 -7.5 -17.35 -12.1 -17.65 -16.75 -15.4 -21.5 -13.15 -26.25 -10.35 -26.1 -7.2 -26.7 -4.7 -24.55 -4.2 -24.5 -3.55 -24.0 10.85 -16.95 16.35 -20.5 18.05 -20.8 17.45 -19.2 L17.2 -18.3 16.15 -17.25 15.0 -16.05 Q14.7 -15.75 14.7 -14.25 L14.2 -9.35 13.7 -5.2 Q13.7 -3.45 14.05 -1.65 M3.3 -19.7 L1.8 -21.0 0.8 -20.7 1.95 -8.1 2.7 -10.9 3.15 -13.85 3.3 -19.7 M1.55 8.9 L0.35 6.55 1.85 6.9 1.55 8.9" fill="#ebbc8d" fill-rule="evenodd" stroke="none"/>
      <path d="M17.2 -18.3 L16.9 -15.2 14.05 -1.65 Q13.7 -3.45 13.7 -5.2 L14.2 -9.35 14.7 -14.25 Q14.7 -15.75 15.0 -16.05 L16.15 -17.25 17.2 -18.3 M13.2 2.25 L10.95 13.05 Q10.2 15.7 9.65 16.6 L9.3 16.2 Q9.1 16.0 10.1 14.7 L10.0 13.35 9.7 12.1 9.85 11.45 Q10.5 7.6 10.95 6.25 11.35 5.2 13.2 2.25 M-10.8 13.3 L-11.65 11.9 -13.7 7.35 -14.05 6.0 -14.9 3.05 Q-15.9 -0.5 -16.3 -4.9 -15.3 -0.05 -14.2 2.7 -12.85 6.05 -10.7 8.95 L-8.4 11.45 -7.25 12.4 -7.1 12.9 -7.1 12.95 -7.4 12.5 Q-9.55 10.85 -10.8 13.3 M3.3 -19.7 L3.15 -13.85 2.7 -10.9 1.95 -8.1 0.8 -20.7 1.8 -21.0 3.3 -19.7 M0.35 6.55 L1.55 8.9 0.9 9.9 Q0.6 7.65 -0.4 5.5 L0.0 6.05 0.35 6.55" fill="#d8ac8c" fill-rule="evenodd" stroke="none"/>
      <path d="M-1.2 19.8 L-1.35 20.65 -1.65 20.85 -2.3 20.55 -2.2 17.0 Q-2.1 14.4 -4.2 16.6 L-7.0 15.6 Q-2.9 13.05 -0.3 15.3 L-1.0 18.6 -1.2 19.8 M0.0 6.05 L0.6 4.7 0.0 3.6 0.35 2.0 0.8 1.8 Q3.1 4.8 4.0 8.4 L4.2 9.45 6.25 7.4 Q8.7 7.5 7.45 10.45 L5.9 10.3 5.3 14.45 -0.9 10.2 -0.3 10.0 0.9 9.9 1.55 8.9 1.85 6.9 0.35 6.55 0.0 6.05 M6.85 14.4 Q6.15 13.55 6.6 12.55 L6.9 12.05 9.7 12.1 10.0 13.35 9.5 14.35 6.85 14.4 M4.25 16.45 L1.95 15.1 -2.25 12.5 -4.65 13.75 -8.8 13.55 -7.1 12.95 -7.1 12.9 -4.4 11.6 -2.95 10.95 -2.5 9.7 Q-1.0 9.95 -0.2 11.2 0.35 12.0 0.25 12.95 4.45 13.85 6.85 17.15 L4.25 16.45 M-2.8 7.9 L-3.7 8.9 Q-5.75 9.2 -6.85 7.55 L-7.45 6.55 -7.25 5.9 Q-4.55 4.65 -3.05 7.2 -2.85 7.5 -2.8 7.9" fill="#ff0000" fill-rule="evenodd" stroke="none"/>
      <path d="M9.65 16.6 L9.45 17.2 Q7.7 18.45 5.55 18.65 L4.85 18.5 4.25 16.45 6.85 17.15 Q4.45 13.85 0.25 12.95 0.35 12.0 -0.2 11.2 -1.0 9.95 -2.5 9.7 L-2.95 10.95 -4.4 11.6 -3.95 10.2 Q-7.3 10.25 -7.55 7.05 -7.6 6.5 -7.25 5.9 L-7.45 6.55 -6.85 7.55 Q-5.75 9.2 -3.7 8.9 L-2.8 7.9 -2.95 9.35 -1.15 9.4 -0.3 10.0 -0.9 10.2 5.3 14.45 7.4 16.0 6.85 14.4 9.5 14.35 10.0 13.35 10.1 14.7 Q9.1 16.0 9.3 16.2 L9.65 16.6 M1.35 17.8 L-0.95 18.6 -1.0 18.6 -0.3 15.3 Q-2.9 13.05 -7.0 15.6 L-4.2 16.6 -4.0 18.55 Q-6.3 18.45 -7.7 16.75 -9.1 15.1 -10.9 13.8 L-10.8 13.3 Q-9.55 10.85 -7.4 12.5 L-7.1 12.95 -8.8 13.55 -4.65 13.75 -2.25 12.5 1.95 15.1 1.4 15.15 1.35 17.8" fill="#990000" fill-rule="evenodd" stroke="none"/>
      <path d="M4.85 18.5 Q4.0 20.85 2.55 22.65 L2.1 23.15 1.2 23.05 1.35 17.8 1.4 15.15 1.95 15.1 4.25 16.45 4.85 18.5 M-0.95 18.6 Q-0.9 19.3 -1.2 19.8 L-1.0 18.6 -0.95 18.6 M-2.3 20.55 L-2.45 20.55 Q-3.1 20.55 -3.55 19.95 -4.0 19.35 -4.0 18.55 L-4.2 16.6 Q-2.1 14.4 -2.2 17.0 L-2.3 20.55" fill="#ffffff" fill-rule="evenodd" stroke="none"/>
    </g>
  </defs>
</svg>
