<?xml version="1.0" encoding="UTF-8" standalone="no"?>
<svg xmlns:ffdec="https://www.free-decompiler.com/flash" xmlns:xlink="http://www.w3.org/1999/xlink" ffdec:objectType="frame" height="14.45px" width="25.9px" xmlns="http://www.w3.org/2000/svg">
  <g transform="matrix(1.0, 0.0, 0.0, 1.0, 13.35, 7.1)">
    <use ffdec:characterId="2418" height="14.45" transform="matrix(1.0, 0.0, 0.0, 1.0, -13.35, -7.1)" width="25.9" xlink:href="#shape0"/>
  </g>
  <defs>
    <g id="shape0" transform="matrix(1.0, 0.0, 0.0, 1.0, 13.35, 7.1)">
      <path d="M0.1 -1.25 L1.15 -0.8 3.05 0.1 6.4 1.6 5.45 3.05 2.95 3.1 3.0 2.7 2.9 1.35 2.65 0.25 0.6 -0.65 0.45 -0.7 0.1 -1.25 M-1.65 -1.7 L-4.5 -2.8 -5.5 -3.1 -5.6 -3.1 -7.25 -3.55 -7.55 -3.65 -7.05 -3.55 -5.25 -3.1 -4.5 -2.9 -2.05 -2.1 -1.3 -1.85 -1.6 -1.7 -1.65 -1.7" fill="#ffcc99" fill-rule="evenodd" stroke="none"/>
      <path d="M-3.75 -6.8 L-3.1 -6.25 -2.75 -5.2 -3.0 -4.7 Q-5.5 -4.7 -7.3 -6.35 L-6.9 -7.1 -3.75 -6.8 M-2.15 -5.4 L0.15 -5.5 0.4 -4.7 -0.25 -3.5 -1.8 -3.65 -2.3 -4.85 -2.15 -5.4 M9.75 -0.15 L12.4 0.35 12.4 0.4 11.65 1.25 11.1 1.35 9.95 3.1 10.2 3.8 10.0 4.4 9.6 4.55 9.3 4.25 8.55 2.05 9.5 1.35 9.75 -0.15 M7.85 4.35 L7.25 5.2 6.55 5.2 6.55 4.4 5.45 3.55 5.45 3.05 6.4 1.6 7.3 1.0 7.8 2.8 7.35 3.6 7.85 4.35 M3.0 5.75 L2.5 6.2 1.9 6.15 2.0 5.45 3.25 4.7 3.0 5.75 M-1.05 6.45 L-1.65 6.95 Q-3.1 7.9 -4.2 6.6 L-4.25 6.55 -4.0 6.7 -3.9 6.75 -3.75 6.8 -0.8 5.6 -1.05 6.45 M0.1 -1.25 L0.45 -0.7 0.55 0.1 -0.3 0.9 -2.1 -0.9 -2.0 -1.4 -1.65 -1.7 -1.6 -1.7 -0.35 -1.55 0.1 -1.25 M-4.85 3.9 L-5.75 4.3 -6.25 2.6 -6.85 2.05 -6.7 1.2 -5.4 2.05 -4.9 3.5 -4.85 3.6 -4.85 3.9 M-7.6 1.65 L-8.05 1.75 -7.75 3.8 -8.6 2.95 -9.65 3.05 -10.2 2.4 -10.2 1.8 -9.3 0.65 -10.15 0.05 -9.85 -1.75 Q-8.75 -1.75 -7.95 -0.9 -7.2 -0.1 -7.2 1.05 L-7.6 1.65" fill="#ff0000" fill-rule="evenodd" stroke="none"/>
      <path d="M-3.1 -6.25 L-2.6 -5.35 -2.8 -4.45 -5.9 -4.3 -6.7 -4.7 -8.0 -5.85 -7.65 -6.7 Q-7.35 -7.1 -6.9 -7.1 L-7.3 -6.35 Q-5.5 -4.7 -3.0 -4.7 L-2.75 -5.2 -3.1 -6.25 M9.4 -0.55 L9.75 -0.15 9.5 1.35 8.55 2.05 9.3 4.25 7.85 4.35 7.35 3.6 7.8 2.8 7.3 1.0 6.4 1.6 8.8 -0.7 9.4 -0.55 M12.4 0.35 L12.45 0.4 12.4 0.4 12.4 0.35 M7.25 5.2 L6.5 5.65 4.5 4.05 4.15 4.25 3.5 4.9 3.0 5.75 3.25 4.7 2.0 5.45 1.9 6.15 2.5 6.2 Q1.55 7.15 0.15 6.95 L-0.55 6.7 -1.05 6.45 -0.8 5.6 -3.75 6.8 -3.9 6.75 -4.0 6.7 -4.25 6.55 -4.2 6.6 -5.55 5.95 Q-8.0 4.7 -10.2 3.1 L-12.3 1.4 -12.0 0.95 -11.2 0.75 -11.15 0.7 -9.85 -1.75 -10.15 0.05 -9.3 0.65 -10.2 1.8 -10.2 2.4 -9.65 3.05 -8.6 2.95 -7.75 3.8 -8.05 1.75 -7.6 1.65 -6.9 1.1 -6.15 1.1 -5.4 2.05 -6.7 1.2 -6.85 2.05 -6.25 2.6 -5.75 4.3 -4.85 3.9 -3.25 5.4 -2.15 5.2 Q-1.35 3.95 -0.55 3.45 0.75 3.0 1.85 3.75 L2.2 4.0 2.95 3.1 5.45 3.05 5.45 3.55 6.55 4.4 6.55 5.2 7.25 5.2 M0.55 0.1 L0.3 1.5 -1.6 1.85 -2.95 0.0 -2.0 -1.4 -2.1 -0.9 -0.3 0.9 0.55 0.1 M-0.35 -1.55 L-1.6 -1.7 -1.3 -1.85 -1.05 -1.9 -0.35 -1.55" fill="#990000" fill-rule="evenodd" stroke="none"/>
      <path d="M-3.75 -6.8 L-2.5 -6.8 -0.5 -6.65 3.1 -5.95 3.25 -5.9 Q5.9 -5.4 8.25 -4.3 L8.95 -3.95 9.5 -3.6 9.6 -3.55 9.9 -3.35 11.0 -2.45 11.65 -1.8 12.55 0.45 12.45 0.4 12.4 0.35 9.75 -0.15 9.4 -0.55 9.4 -0.6 9.1 -0.85 8.15 -0.65 7.75 -1.0 8.75 -1.7 6.95 -2.2 6.6 -2.95 3.75 -3.3 4.95 -3.9 0.75 -4.45 0.4 -5.5 0.15 -5.5 -2.15 -5.4 -2.6 -5.35 -3.1 -6.25 -3.75 -6.8 M-11.15 0.7 Q-10.25 -1.15 -11.1 -1.9 L-13.35 -1.2 -10.2 -4.7 Q-9.25 -5.4 -8.1 -5.8 L-8.0 -5.85 -6.7 -4.7 -8.6 -4.15 -8.6 -3.9 -7.55 -3.65 -7.25 -3.55 -5.6 -3.1 -5.5 -3.1 -4.5 -2.8 -1.65 -1.7 -2.0 -1.4 -2.95 0.0 -1.6 1.85 0.3 1.5 0.55 0.1 0.45 -0.7 0.6 -0.65 2.65 0.25 2.9 1.35 3.0 2.7 2.95 3.1 2.2 4.0 1.85 3.75 Q0.75 3.0 -0.55 3.45 -1.35 3.95 -2.15 5.2 L-1.9 4.45 -3.25 4.8 -3.25 3.95 -1.9 2.7 -4.85 3.6 -4.9 3.5 -3.65 2.4 -4.05 1.75 -5.25 1.7 -3.9 0.4 -4.6 -0.25 -7.05 1.05 -7.2 1.05 Q-7.2 -0.1 -7.95 -0.9 -8.75 -1.75 -9.85 -1.75 L-11.15 0.7 M-2.75 1.25 L-2.7 1.25 -2.7 1.2 -2.75 1.25" fill="#795128" fill-rule="evenodd" stroke="none"/>
      <path d="M-2.6 -5.35 L-2.15 -5.4 -2.3 -4.85 -1.8 -3.65 -0.25 -3.5 0.4 -4.7 0.15 -5.5 0.4 -5.5 0.75 -4.45 4.95 -3.9 3.75 -3.3 6.6 -2.95 6.95 -2.2 8.75 -1.7 7.75 -1.0 8.15 -0.65 9.1 -0.85 9.4 -0.6 9.4 -0.55 8.8 -0.7 6.4 1.6 3.05 0.1 1.15 -0.8 0.1 -1.25 -0.35 -1.55 -1.05 -1.9 -1.3 -1.85 -2.05 -2.1 -4.5 -2.9 -5.25 -3.1 -7.05 -3.55 -7.55 -3.65 -8.6 -3.9 -8.6 -4.15 -6.7 -4.7 -5.9 -4.3 -2.8 -4.45 -2.6 -5.35 M-2.15 5.2 L-3.25 5.4 -4.85 3.9 -4.85 3.6 -1.9 2.7 -3.25 3.95 -3.25 4.8 -1.9 4.45 -2.15 5.2 M-5.4 2.05 L-6.15 1.1 -6.9 1.1 -7.6 1.65 -7.2 1.05 -7.05 1.05 -4.6 -0.25 -3.9 0.4 -5.25 1.7 -4.05 1.75 -3.65 2.4 -4.9 3.5 -5.4 2.05" fill="#53371c" fill-rule="evenodd" stroke="none"/>
      <path d="M-2.75 1.25 L-2.7 1.2 -2.7 1.25 -2.75 1.25" fill="#4d331a" fill-rule="evenodd" stroke="none"/>
    </g>
  </defs>
</svg>
