<?xml version="1.0" encoding="UTF-8" standalone="no"?>
<svg xmlns:ffdec="https://www.free-decompiler.com/flash" xmlns:xlink="http://www.w3.org/1999/xlink" ffdec:objectType="frame" height="73.85px" width="39.95px" xmlns="http://www.w3.org/2000/svg">
  <g transform="matrix(1.0, 0.0, 0.0, 1.0, 18.95, 37.05)">
    <use ffdec:characterId="1499" height="73.85" transform="matrix(1.0, 0.0, 0.0, 1.0, -18.95, -37.05)" width="39.95" xlink:href="#shape0"/>
  </g>
  <defs>
    <g id="shape0" transform="matrix(1.0, 0.0, 0.0, 1.0, 18.95, 37.05)">
      <path d="M-15.2 20.35 L-11.5 20.25 -11.05 20.25 -11.6 23.15 Q-13.1 31.25 -12.7 36.6 L-14.4 36.5 Q-14.35 34.3 -14.45 32.4 -14.8 29.65 -14.8 24.05 L-15.2 20.35 M10.7 36.45 L10.7 30.45 11.15 29.75 9.8 31.45 8.7 32.95 8.45 26.6 8.7 21.2 15.55 21.7 15.5 23.5 15.45 26.05 15.85 29.5 16.1 32.4 16.1 36.05 12.75 36.3 10.7 36.45" fill="#b4b4b4" fill-rule="evenodd" stroke="none"/>
      <path d="M-15.2 20.35 L-16.05 10.55 -17.1 -2.05 -18.1 -15.95 -18.1 -16.3 Q-18.1 -20.55 -13.95 -27.75 -11.8 -31.55 -9.45 -33.7 L-8.75 -34.35 -8.75 -34.4 Q-7.85 -35.05 -6.15 -35.9 -4.5 -36.8 0.35 -36.8 5.15 -36.8 9.45 -32.75 12.6 -29.8 14.45 -26.55 L14.35 -26.45 14.55 -26.05 Q18.15 -19.9 18.1 -15.5 18.05 -10.85 17.1 -0.5 L16.9 1.5 16.75 3.15 16.35 8.0 16.25 8.85 16.25 9.0 16.05 11.5 Q15.65 16.95 15.55 21.7 L8.7 21.2 8.45 26.6 8.7 32.95 9.8 31.45 11.15 29.75 10.7 30.45 10.7 36.45 Q-0.25 37.05 -12.7 36.6 -13.1 31.25 -11.6 23.15 L-11.05 20.25 -11.5 20.25 -15.2 20.35" fill="#a1a1a1" fill-rule="evenodd" stroke="none"/>
      <path d="M-18.75 -8.25 L-18.6 -7.85 -17.4 -4.3 -17.6 -8.3 -17.75 -13.0 Q-17.75 -15.25 -15.05 -21.45 -12.4 -27.7 -10.5 -30.5 -8.6 -33.35 -6.6 -34.55 -4.65 -35.8 0.25 -35.65 5.1 -35.5 7.5 -34.0 9.85 -32.55 12.2 -30.25 L13.9 -28.4 14.1 -28.05 14.7 -26.95 15.6 -25.4 17.45 -21.35 18.15 -18.3 Q18.5 -17.0 18.4 -11.6 18.25 -7.0 16.85 -0.5 L16.4 1.5 16.35 1.7 Q15.45 5.4 15.25 8.0 L15.15 9.0 Q15.05 10.45 15.25 11.5 L15.5 12.45 17.2 17.8 17.55 18.9 16.05 18.9 15.1 17.6 Q14.05 16.0 13.5 14.15 13.1 12.9 13.0 11.5 L12.75 11.5 12.5 13.75 12.25 16.0 12.4 19.25 11.5 19.25 10.5 19.25 9.75 19.25 9.75 18.35 Q9.75 13.45 10.25 11.25 10.4 10.4 10.9 9.0 L11.45 7.5 12.75 3.75 12.5 3.75 10.75 6.0 9.25 7.4 8.8 7.75 4.25 11.5 4.25 11.25 Q5.5 9.7 9.25 1.85 L9.45 1.5 10.45 -0.7 Q15.75 -11.95 15.75 -15.1 15.75 -22.9 11.5 -28.25 7.15 -33.75 0.5 -33.75 -7.8 -33.75 -10.75 -26.5 -12.75 -21.55 -12.75 -10.5 -12.75 -5.1 -12.25 -1.05 -11.75 3.05 -11.75 6.75 -11.75 8.5 -12.25 12.45 L-12.7 18.25 -16.9 17.5 Q-18.95 17.25 -18.95 15.3 L-18.7 7.45 Q-18.45 1.5 -18.75 -7.25 L-18.75 -8.25" fill="#cc4343" fill-rule="evenodd" stroke="none"/>
      <path d="M-12.7 18.25 L-12.25 12.45 Q-11.75 8.5 -11.75 6.75 -11.75 3.05 -12.25 -1.05 -12.75 -5.1 -12.75 -10.5 -12.75 -21.55 -10.75 -26.5 -7.8 -33.75 0.5 -33.75 7.15 -33.75 11.5 -28.25 15.75 -22.9 15.75 -15.1 15.75 -11.95 10.45 -0.7 L9.45 1.5 9.25 1.85 Q5.5 9.7 4.25 11.25 L4.25 11.5 8.8 7.75 9.25 7.4 10.75 6.0 12.5 3.75 12.75 3.75 11.45 7.5 10.9 9.0 Q10.4 10.4 10.25 11.25 9.75 13.45 9.75 18.35 L9.75 19.25 -0.85 19.25 -8.7 18.75 -12.7 18.25 M12.4 19.25 L12.25 16.0 12.5 13.75 12.75 11.5 13.0 11.5 Q13.1 12.9 13.5 14.15 14.05 16.0 15.1 17.6 L16.05 18.9 15.0 19.0 13.5 19.15 12.4 19.25 M8.25 -26.75 Q6.2 -31.0 1.25 -31.0 -3.6 -31.0 -6.5 -27.25 -9.25 -23.6 -9.25 -17.85 -9.25 -11.05 -7.25 -7.9 -4.65 -3.75 2.0 -4.25 7.65 -6.45 8.9 -9.3 9.75 -11.25 9.75 -17.5 9.75 -23.55 8.25 -26.75" fill="#a83636" fill-rule="evenodd" stroke="none"/>
      <path d="M13.9 -28.4 L12.2 -30.25 Q9.85 -32.55 7.5 -34.0 5.1 -35.5 0.25 -35.65 -4.65 -35.8 -6.6 -34.55 -8.6 -33.35 -10.5 -30.5 -12.4 -27.7 -15.05 -21.45 -17.75 -15.25 -17.75 -13.0 L-17.6 -8.3 -17.4 -4.3 -18.6 -7.85 -18.75 -8.25 Q-18.7 -13.95 -18.35 -16.35 -18.9 -18.95 -14.55 -26.75 -12.5 -30.5 -10.8 -32.7 -9.0 -35.2 -7.6 -35.85 -4.95 -37.2 2.0 -37.0 8.8 -36.8 13.9 -28.4 M17.55 18.9 L17.2 17.8 15.5 12.45 15.25 11.5 Q15.05 10.45 15.15 9.0 L15.25 8.0 Q15.45 5.4 16.35 1.7 L16.4 1.5 16.85 -0.5 Q18.25 -7.0 18.4 -11.6 18.5 -17.0 18.15 -18.3 L17.45 -21.35 Q19.15 -17.1 19.1 -13.9 19.0 -8.5 18.4 -2.7 L18.2 -0.5 18.0 1.5 17.75 5.6 18.0 8.0 18.15 9.0 18.7 11.5 19.0 12.8 Q20.25 17.7 21.0 18.75 L18.75 19.0 18.0 18.95 17.55 18.9" fill="#e07373" fill-rule="evenodd" stroke="none"/>
    </g>
  </defs>
</svg>
