<?xml version="1.0" encoding="UTF-8" standalone="no"?>
<svg xmlns:ffdec="https://www.free-decompiler.com/flash" xmlns:xlink="http://www.w3.org/1999/xlink" ffdec:objectType="frame" height="79.65px" width="38.3px" xmlns="http://www.w3.org/2000/svg">
  <g transform="matrix(1.0, 0.0, 0.0, 1.0, 12.05, 84.55)">
    <use ffdec:characterId="2334" ffdec:characterName="game_fla.head_342" height="79.65" id="head" transform="matrix(1.0, 0.0, 0.0, 1.0, -12.05, -84.55)" width="38.3" xlink:href="#sprite0"/>
  </g>
  <defs>
    <g id="sprite0" transform="matrix(1.0, 0.0, 0.0, 1.0, 22.3, 47.5)">
      <use ffdec:characterId="2321" height="23.75" transform="matrix(1.0, 0.0, 0.0, 1.0, -15.35, 6.65)" width="21.85" xlink:href="#sprite1"/>
      <use ffdec:characterId="2323" height="33.6" transform="matrix(1.0, 0.0, 0.0, 1.0, -15.65, -16.4)" width="31.55" xlink:href="#sprite2"/>
      <use ffdec:characterId="2324" height="16.75" transform="matrix(1.0, 0.0, 0.0, 1.0, -20.1, 15.4)" width="27.25" xlink:href="#shape2"/>
      <use ffdec:characterId="1111" height="100.0" id="shape" transform="matrix(0.32, 0.0, 0.0, 0.32, -16.0004, -16.0004)" width="100.0" xlink:href="#sprite3"/>
    </g>
    <g id="sprite1" transform="matrix(1.0, 0.0, 0.0, 1.0, 12.1, 11.55)">
      <use ffdec:characterId="2320" height="23.75" transform="matrix(1.0, 0.0, 0.0, 1.0, -12.1, -11.55)" width="21.85" xlink:href="#shape0"/>
    </g>
    <g id="shape0" transform="matrix(1.0, 0.0, 0.0, 1.0, 12.1, 11.55)">
      <path d="M-5.05 -10.7 Q-3.2 -12.05 -0.2 -11.3 L2.85 -10.45 4.55 -9.75 Q6.95 -8.85 8.65 -7.2 L8.85 -6.95 Q9.5 -6.15 9.0 -5.35 L8.45 -4.35 7.9 -2.85 7.6 -1.7 7.6 -1.4 7.65 1.25 7.1 2.6 6.5 3.45 6.35 3.8 6.4 5.25 6.7 6.75 Q6.15 5.95 5.9 5.15 L4.8 2.7 Q3.3 -0.25 2.8 -0.75 2.2 -1.15 1.25 -1.35 L-0.5 -2.0 Q-1.3 -2.45 -1.95 -3.75 -2.6 -5.1 -3.7 -6.45 L-6.05 -9.75 -5.95 -9.9 -5.8 -10.05 -5.05 -10.7 M4.1 7.75 Q0.65 6.1 -0.75 5.8 L-1.25 5.75 Q-1.0 3.15 -3.4 -0.85 1.95 3.4 4.1 7.75" fill="#e2b181" fill-rule="evenodd" stroke="none"/>
      <path d="M-5.05 -10.7 L-5.8 -10.05 -5.15 -10.85 -5.05 -10.7 M-6.05 -9.75 L-3.7 -6.45 Q-2.6 -5.1 -1.95 -3.75 -1.3 -2.45 -0.5 -2.0 L1.25 -1.35 Q2.2 -1.15 2.8 -0.75 3.3 -0.25 4.8 2.7 L5.9 5.15 Q6.15 5.95 6.7 6.75 L6.4 5.25 6.35 3.8 6.5 3.45 6.75 4.05 7.6 5.6 9.75 12.2 7.1 9.65 4.1 7.75 Q1.95 3.4 -3.4 -0.85 -1.0 3.15 -1.25 5.75 L-4.4 5.3 Q-6.9 5.15 -9.35 5.3 L-11.75 5.45 -12.1 5.7 -11.75 3.8 -10.15 -0.25 -7.55 -6.2 -6.05 -9.75" fill="#ffcc99" fill-rule="evenodd" stroke="none"/>
    </g>
    <g id="sprite2" transform="matrix(1.0, 0.0, 0.0, 1.0, 15.8, 16.8)">
      <use ffdec:characterId="2322" height="33.6" transform="matrix(1.0, 0.0, 0.0, 1.0, -15.8, -16.8)" width="31.55" xlink:href="#shape1"/>
    </g>
    <g id="shape1" transform="matrix(1.0, 0.0, 0.0, 1.0, 15.8, 16.8)">
      <path d="M12.45 -10.5 L12.55 -10.4 13.0 -9.45 Q13.0 -4.8 13.15 -3.85 13.3 -2.95 13.6 -2.15 L13.05 -0.75 13.0 -0.45 13.15 0.25 13.55 0.95 14.3 2.15 14.65 2.9 15.4 3.75 15.6 4.55 15.75 5.6 15.65 5.8 15.35 6.3 15.05 6.5 15.0 6.35 14.45 5.8 14.35 5.8 12.9 5.5 11.85 6.0 11.55 6.2 11.0 6.0 Q10.75 5.65 10.9 5.35 L11.7 3.8 10.4 4.95 9.8 5.7 Q8.6 7.1 8.75 7.6 L9.0 8.45 10.15 6.8 10.7 6.25 11.4 7.0 11.6 7.25 Q10.65 7.4 9.5 8.25 8.9 8.7 8.6 9.05 L8.75 10.85 8.85 10.95 9.2 10.3 9.65 9.6 10.3 9.1 11.9 8.25 12.65 8.15 13.25 8.45 13.45 8.6 13.4 8.7 13.25 8.9 13.0 9.35 12.95 8.95 12.85 8.8 12.45 8.75 Q12.0 8.7 11.4 9.0 L9.6 10.1 9.95 10.15 12.05 9.6 12.45 9.6 12.95 9.5 13.05 9.75 13.2 10.2 13.05 11.05 12.8 11.55 13.0 11.05 12.7 10.95 11.5 11.25 Q10.6 11.45 10.65 11.8 L11.35 12.45 12.15 13.05 12.55 12.9 12.75 14.5 12.55 15.3 12.5 15.4 Q12.1 16.15 11.55 16.3 L9.85 16.75 8.95 16.8 8.0 16.65 5.8 16.2 4.35 15.85 3.3 15.5 0.25 15.15 Q-1.9 14.85 -2.5 14.2 L-3.9 10.95 -5.25 8.05 -5.4 7.9 -6.1 6.3 -6.6 5.45 -7.15 4.65 -8.5 2.15 -8.6 1.9 -8.7 1.3 Q-9.2 -0.5 -7.15 -0.8 -6.05 -0.9 -5.35 0.0 L-4.95 0.25 Q-3.75 1.05 -3.25 2.45 L-2.95 4.8 -2.8 5.1 -3.1 5.5 Q-3.0 6.1 -0.55 6.45 L1.9 6.95 2.0 6.85 1.15 6.05 0.8 5.7 0.1 5.45 -0.65 5.3 Q-0.3 5.1 -0.25 4.75 L-0.25 4.1 -0.1 2.55 0.05 2.2 0.1 1.45 Q0.05 0.85 -0.45 -0.05 L-0.75 -0.6 -1.05 -1.3 -0.85 -1.45 -0.7 -1.7 0.25 -2.85 Q1.45 -4.6 1.2 -6.4 L0.9 -7.1 0.3 -10.0 2.9 -10.95 5.4 -11.45 9.2 -10.95 12.1 -10.4 12.45 -10.5 M12.3 -1.1 L11.7 -1.95 Q10.8 -2.75 8.65 -2.15 6.45 -1.6 5.95 -0.9 L5.6 -0.15 Q4.7 0.4 4.8 0.9 L4.8 0.95 7.05 1.15 8.95 1.9 10.7 2.65 11.2 1.4 11.15 0.5 11.8 0.05 11.9 0.05 12.3 -0.15 12.4 -0.65 12.4 -0.75 12.3 -1.1 M-5.0 5.2 L-4.1 4.7 -5.15 3.9 -4.45 3.3 Q-4.7 2.65 -5.05 2.15 L-6.7 0.2 -7.65 0.9 -7.65 2.3 -6.85 2.05 -6.45 1.6 -5.4 2.8 -6.2 3.8 -5.0 5.2 M2.55 8.15 L2.85 8.1 2.9 8.05 2.85 8.05 2.5 8.05 2.55 8.15" fill="#ffcc99" fill-rule="evenodd" stroke="none"/>
      <path d="M15.05 6.5 L14.55 6.6 14.4 6.65 14.3 6.65 14.15 6.65 14.0 6.7 13.5 7.2 13.5 7.35 13.35 7.2 11.95 7.15 11.6 7.25 11.4 7.0 10.7 6.25 10.75 6.05 11.0 6.0 11.55 6.2 11.85 6.0 12.9 5.5 14.35 5.8 14.45 5.8 15.0 6.35 15.05 6.5 M13.5 8.05 L13.45 8.6 13.25 8.45 12.65 8.15 13.35 8.1 13.5 8.05 M13.0 9.35 L12.95 9.5 12.45 9.6 12.05 9.6 9.95 10.15 9.6 10.1 11.4 9.0 Q12.0 8.7 12.45 8.75 L12.85 8.8 12.95 8.95 13.0 9.35 M5.6 -0.15 L5.95 -0.15 9.3 -1.35 10.4 -1.55 10.9 -1.35 Q11.5 -0.95 12.1 -1.05 L12.3 -1.1 12.4 -0.75 12.4 -0.65 12.3 -0.15 11.9 0.05 11.8 0.05 11.15 0.5 11.2 1.4 10.7 2.65 8.95 1.9 7.05 1.15 4.8 0.95 4.8 0.9 Q4.7 0.4 5.6 -0.15 M-5.0 5.2 L-6.2 3.8 -5.4 2.8 -6.45 1.6 -6.85 2.05 -7.65 2.3 -7.65 0.9 -6.7 0.2 -5.05 2.15 Q-4.7 2.65 -4.45 3.3 L-5.15 3.9 -4.1 4.7 -5.0 5.2 M10.3 0.75 L10.55 0.25 10.6 -0.1 Q10.4 -0.65 8.15 0.2 8.6 0.5 9.1 0.6 L9.75 0.75 9.95 1.15 10.3 0.75" fill="#c79b68" fill-rule="evenodd" stroke="none"/>
      <path d="M12.8 11.55 L12.75 11.75 12.65 12.15 12.55 12.9 12.15 13.05 11.35 12.45 10.65 11.8 Q10.6 11.45 11.5 11.25 L12.7 10.95 13.0 11.05 12.8 11.55 M-0.65 5.3 L0.1 5.45 0.8 5.7 1.15 6.05 2.0 6.85 1.9 6.95 -0.55 6.45 Q-3.0 6.1 -3.1 5.5 L-2.8 5.1 -1.0 5.35 -0.65 5.3 M10.7 6.25 L10.15 6.8 9.0 8.45 8.75 7.6 Q8.6 7.1 9.8 5.7 L10.4 4.95 11.7 3.8 10.9 5.35 Q10.75 5.65 11.0 6.0 L10.75 6.05 10.7 6.25 M2.55 8.15 L2.5 8.05 2.85 8.05 2.9 8.05 2.85 8.1 2.55 8.15" fill="#ebbb98" fill-rule="evenodd" stroke="none"/>
      <path d="M10.3 0.75 L9.95 1.15 9.75 0.75 9.1 0.6 Q8.6 0.5 8.15 0.2 10.4 -0.65 10.6 -0.1 L10.55 0.25 10.3 0.75" fill="#000000" fill-rule="evenodd" stroke="none"/>
      <path d="M-13.9 3.75 L-15.15 -0.3 -15.75 -3.55 -15.75 -4.6 Q-15.65 -10.35 -10.65 -13.75 -9.15 -14.7 -7.45 -15.25 L2.55 -16.7 4.65 -16.8 9.4 -15.8 9.55 -15.8 13.45 -14.05 14.0 -13.6 13.8 -12.35 13.7 -12.2 13.5 -12.6 11.65 -11.85 11.75 -13.05 9.35 -12.05 9.6 -13.25 7.2 -12.8 7.3 -13.65 Q3.55 -11.4 -0.85 -10.85 0.45 -7.85 0.2 -4.7 L-2.95 -1.85 -2.55 -3.4 -3.3 -2.85 -3.5 -2.5 -3.85 -1.8 -5.25 -4.0 -6.15 -3.0 -8.3 -3.9 -10.3 -0.35 -10.95 -0.9 -11.3 -1.05 -11.55 -1.05 -10.8 2.9 -13.55 0.9 -13.45 1.3 -13.1 2.3 -13.15 2.45 -13.75 2.1 -12.95 4.35 -13.9 3.75 M13.5 7.35 L13.5 7.4 13.55 7.55 13.5 8.05 13.35 8.1 12.65 8.15 11.9 8.25 10.3 9.1 9.65 9.6 9.2 10.3 8.85 10.95 8.75 10.85 8.6 9.05 Q8.9 8.7 9.5 8.25 10.65 7.4 11.6 7.25 L11.95 7.15 13.35 7.2 13.5 7.35 M1.65 -13.95 L-3.2 -13.45 -2.9 -14.25 -7.9 -12.5 -4.15 -12.9 -6.95 -11.6 -1.65 -11.45 2.3 -12.8 0.65 -12.8 1.65 -13.95 M12.3 -1.1 L12.1 -1.05 Q11.5 -0.95 10.9 -1.35 L10.4 -1.55 9.3 -1.35 5.95 -0.15 5.6 -0.15 5.95 -0.9 Q6.45 -1.6 8.65 -2.15 10.8 -2.75 11.7 -1.95 L12.3 -1.1" fill="#996633" fill-rule="evenodd" stroke="none"/>
      <path d="M13.7 -12.2 L13.45 -11.75 Q12.95 -10.75 12.45 -10.5 L12.1 -10.4 9.2 -10.95 5.4 -11.45 2.9 -10.95 0.3 -10.0 0.9 -7.1 1.2 -6.4 Q1.45 -4.6 0.25 -2.85 L-0.7 -1.7 -0.85 -1.45 -1.05 -1.3 -0.75 -0.6 -0.45 -0.05 Q0.05 0.85 0.1 1.45 L0.05 2.2 -0.1 2.55 -0.25 4.1 -0.25 4.75 Q-0.3 5.1 -0.65 5.3 L-1.0 5.35 -2.8 5.1 -2.95 4.8 -3.25 2.45 Q-3.75 1.05 -4.95 0.25 L-5.35 0.0 Q-6.05 -0.9 -7.15 -0.8 -9.2 -0.5 -8.7 1.3 L-8.6 1.9 -8.5 2.15 -7.15 4.65 -6.6 5.45 -6.1 6.3 -7.1 7.6 -7.5 8.95 -7.35 9.45 -10.0 10.05 -10.3 10.05 Q-12.5 7.15 -13.9 3.75 L-12.95 4.35 -13.75 2.1 -13.15 2.45 -13.1 2.3 -13.45 1.3 -13.55 0.9 -10.8 2.9 -11.55 -1.05 -11.3 -1.05 -10.95 -0.9 -10.3 -0.35 -8.3 -3.9 -6.15 -3.0 -5.25 -4.0 -3.85 -1.8 -3.5 -2.5 -3.3 -2.85 -2.55 -3.4 -2.95 -1.85 0.2 -4.7 Q0.45 -7.85 -0.85 -10.85 3.55 -11.4 7.3 -13.65 L7.2 -12.8 9.6 -13.25 9.35 -12.05 11.75 -13.05 11.65 -11.85 13.5 -12.6 13.7 -12.2 M1.65 -13.95 L0.65 -12.8 2.3 -12.8 -1.65 -11.45 -6.95 -11.6 -4.15 -12.9 -7.9 -12.5 -2.9 -14.25 -3.2 -13.45 1.65 -13.95" fill="#795128" fill-rule="evenodd" stroke="none"/>
      <path d="M-8.6 1.9 L-8.5 2.15" fill="none" stroke="#943965" stroke-linecap="round" stroke-linejoin="round" stroke-width="0.05"/>
    </g>
    <g id="shape2" transform="matrix(1.0, 0.0, 0.0, 1.0, 20.1, -15.4)">
      <path d="M1.55 29.35 L-1.65 28.55 -16.1 27.8 Q-17.2 27.85 -20.1 28.95 -17.85 20.0 -16.3 15.5 -14.6 15.15 -11.45 15.95 L-3.45 18.1 Q1.35 19.45 3.1 20.55 4.9 21.65 6.15 23.2 L7.15 32.15 Q5.1 30.15 1.55 29.35" fill="#2baa77" fill-rule="evenodd" stroke="none"/>
    </g>
    <g id="sprite3" transform="matrix(1.0, 0.0, 0.0, 1.0, 50.0, 50.0)">
      <use ffdec:characterId="1110" height="100.0" transform="matrix(1.0, 0.0, 0.0, 1.0, -50.0, -50.0)" width="100.0" xlink:href="#shape3"/>
    </g>
    <g id="shape3" transform="matrix(1.0, 0.0, 0.0, 1.0, 50.0, 50.0)">
      <path d="M35.35 -35.35 Q50.0 -20.7 50.0 0.0 50.0 20.7 35.35 35.35 20.7 50.0 0.0 50.0 -20.7 50.0 -35.35 35.35 -50.0 20.7 -50.0 0.0 -50.0 -20.7 -35.35 -35.35 -20.7 -50.0 0.0 -50.0 20.7 -50.0 35.35 -35.35 Z" fill="none" stroke="#9900ff" stroke-linecap="round" stroke-linejoin="round" stroke-width="0.05"/>
    </g>
  </defs>
</svg>
