<?xml version="1.0" encoding="UTF-8" standalone="no"?>
<svg xmlns:ffdec="https://www.free-decompiler.com/flash" xmlns:xlink="http://www.w3.org/1999/xlink" ffdec:objectType="frame" height="153.55px" width="50.0px" xmlns="http://www.w3.org/2000/svg">
  <g transform="matrix(1.0, 0.0, 0.0, 1.0, 25.0, 137.55)">
    <use ffdec:characterId="2623" height="49.25" transform="matrix(1.0, 0.0, 0.0, 1.0, -25.0, -33.25)" width="50.0" xlink:href="#shape0"/>
    <use ffdec:characterId="2632" height="109.4" id="turret" transform="matrix(1.0, 0.0, 0.0, 1.0, -8.8, -137.55)" width="18.45" xlink:href="#sprite0"/>
    <use ffdec:characterId="2635" height="9.0" transform="matrix(1.0, 0.0, 0.0, 1.0, -4.45, -39.45)" width="8.95" xlink:href="#shape5"/>
  </g>
  <defs>
    <g id="shape0" transform="matrix(1.0, 0.0, 0.0, 1.0, 25.0, 33.25)">
      <path d="M3.0 -21.5 L4.5 -21.5 8.0 -21.5 8.0 -18.5 5.0 -18.5 -0.25 -18.5 -4.25 -18.5 -5.75 -18.5 -8.0 -18.5 -8.0 -21.5 -1.6 -21.5 0.5 -21.5 3.0 -21.5 M25.0 -14.5 L25.0 14.5 -25.0 14.5 -25.0 -14.5 25.0 -14.5 M5.5 -0.25 L3.45 -0.05 3.0 0.8 Q6.0 3.7 10.0 1.75 L10.7 2.45 11.9 2.1 12.1 0.65 11.15 -0.15 11.75 -1.75 11.15 -3.0 12.25 -2.25 11.8 -2.9 7.75 -2.8 5.5 -0.25 M17.85 -11.75 L17.85 -11.15 20.35 -10.5 19.1 -6.2 20.7 -3.75 20.6 -2.25 Q16.85 0.3 14.05 3.9 L19.05 2.6 19.65 2.95 20.0 4.35 15.8 11.65 16.4 8.65 12.6 6.8 13.35 7.5 11.25 7.5 10.3 8.45 10.3 9.95 4.5 12.25 22.8 13.0 Q23.3 6.75 21.3 2.65 L23.6 -0.75 22.0 -8.4 Q23.1 -9.8 22.5 -11.45 L22.2 -12.1 21.75 -12.25 Q20.4 -11.6 18.65 -11.55 L17.85 -11.75 M0.35 10.3 Q-3.35 10.5 -6.9 10.25 -4.0 13.85 1.1 11.55 L0.35 10.3 M-23.15 -16.0 L-24.8 -16.0 -24.0 -17.25 Q-22.95 -18.3 -21.5 -18.3 -20.1 -18.3 -19.05 -17.25 L-18.2 -16.0 -19.8 -16.0 -20.25 -16.7 Q-20.8 -17.25 -21.5 -17.25 -22.2 -17.25 -22.75 -16.7 L-23.15 -16.0 M-21.0 -11.7 L-21.45 -11.3 -22.55 -10.1 -21.15 -7.6 -21.9 -6.8 -21.75 -4.9 -18.75 -2.75 -19.15 -2.5 -19.7 -2.8 -20.5 -2.7 -21.2 -2.4 -22.6 -1.5 -21.35 -0.15 -22.75 1.9 -22.55 2.6 -21.8 3.7 -21.25 4.05 -20.6 4.05 -20.25 3.5 -19.7 1.75 -19.6 -0.1 -16.1 -2.65 Q-15.15 -3.25 -14.0 -3.5 -12.2 -4.1 -10.6 -5.1 -9.4 -5.95 -8.85 -7.15 L-17.05 -6.6 -18.9 -8.0 Q-17.3 -9.15 -15.25 -9.4 L-12.8 -9.35 -10.55 -9.0 -8.25 -8.55 -7.9 -8.45 Q-5.55 -10.15 -2.75 -11.0 L-0.9 -11.5 -4.35 -12.5 -5.05 -12.3 Q-5.9 -11.1 -7.25 -10.8 L-7.35 -10.75 -8.6 -10.45 -9.75 -10.6 -10.05 -10.65 -15.6 -12.5 -18.6 -12.8 -19.25 -12.65 -19.7 -12.45 -20.25 -12.2 -21.0 -11.7 M-21.8 7.05 L-21.9 9.85 Q-21.05 13.25 -14.8 8.9 -17.75 8.15 -20.6 7.05 -21.15 6.9 -21.8 7.05" fill="#999999" fill-rule="evenodd" stroke="none"/>
      <path d="M5.5 -0.25 L7.75 -2.8 11.8 -2.9 12.25 -2.25 11.15 -3.0 11.75 -1.75 11.15 -0.15 12.1 0.65 11.9 2.1 10.7 2.45 10.0 1.75 Q6.0 3.7 3.0 0.8 L3.45 -0.05 5.5 -0.25 M17.85 -11.75 L18.65 -11.55 Q20.4 -11.6 21.75 -12.25 L22.2 -12.1 22.5 -11.45 Q23.1 -9.8 22.0 -8.4 L23.6 -0.75 21.3 2.65 Q23.3 6.75 22.8 13.0 L4.5 12.25 10.3 9.95 10.3 8.45 11.25 7.5 13.35 7.5 12.6 6.8 16.4 8.65 15.8 11.65 20.0 4.35 19.65 2.95 19.05 2.6 14.05 3.9 Q16.85 0.3 20.6 -2.25 L20.7 -3.75 19.1 -6.2 20.35 -10.5 17.85 -11.15 17.85 -11.75 M0.35 10.3 L1.1 11.55 Q-4.0 13.85 -6.9 10.25 -3.35 10.5 0.35 10.3 M-21.0 -11.7 L-20.25 -12.2 -19.7 -12.45 -19.25 -12.65 -18.6 -12.8 -15.6 -12.5 -10.05 -10.65 -9.75 -10.6 -8.6 -10.45 -7.35 -10.75 -7.25 -10.8 Q-5.9 -11.1 -5.05 -12.3 L-4.35 -12.5 -0.9 -11.5 -2.75 -11.0 Q-5.55 -10.15 -7.9 -8.45 L-8.25 -8.55 -10.55 -9.0 -12.8 -9.35 -15.25 -9.4 Q-17.3 -9.15 -18.9 -8.0 L-17.05 -6.6 -8.85 -7.15 Q-9.4 -5.95 -10.6 -5.1 -12.2 -4.1 -14.0 -3.5 -15.15 -3.25 -16.1 -2.65 L-19.6 -0.1 -19.7 1.75 -20.25 3.5 -20.6 4.05 -21.25 4.05 -21.8 3.7 -22.55 2.6 -22.75 1.9 -21.35 -0.15 -22.6 -1.5 -21.2 -2.4 -20.5 -2.7 -19.7 -2.8 -19.15 -2.5 -18.75 -2.75 -21.75 -4.9 -21.9 -6.8 -21.15 -7.6 -22.55 -10.1 -21.45 -11.3 -21.0 -11.7 M-21.8 7.05 Q-21.15 6.9 -20.6 7.05 -17.75 8.15 -14.8 8.9 -21.05 13.25 -21.9 9.85 L-21.8 7.05" fill="#919191" fill-rule="evenodd" stroke="none"/>
      <path d="M10.5 -16.0 L25.0 -16.0 25.0 -14.5 -25.0 -14.5 -25.0 -16.0 -24.95 -16.0 Q-24.8 -17.1 -24.0 -17.95 -22.95 -19.0 -21.5 -19.0 -20.1 -19.0 -19.05 -17.95 -18.2 -17.1 -18.0 -16.0 L-10.5 -16.0 -7.0 -16.0 -5.25 -16.0 -0.25 -16.0 6.1 -16.0 10.5 -16.0 M-19.8 -16.0 L-18.2 -16.0 -19.05 -17.25 Q-20.1 -18.3 -21.5 -18.3 -22.95 -18.3 -24.0 -17.25 L-24.8 -16.0 -23.15 -16.0 -19.8 -16.0" fill="#cccccc" fill-rule="evenodd" stroke="none"/>
      <path d="M25.0 14.5 L25.0 16.0 -25.0 16.0 -25.0 14.5 25.0 14.5" fill="#666666" fill-rule="evenodd" stroke="none"/>
      <path d="M3.0 -33.25 L3.0 -21.5 0.5 -21.5 0.5 -33.25 3.0 -33.25 M5.0 -18.5 L6.1 -16.0 -0.25 -16.0 -0.25 -18.5 5.0 -18.5 M-5.75 -18.5 L-4.25 -18.5 -5.25 -16.0 -7.0 -16.0 -5.75 -18.5" fill="#333333" fill-rule="evenodd" stroke="none"/>
      <path d="M3.0 -33.25 L4.5 -33.25 4.5 -21.5 3.0 -21.5 3.0 -33.25 M8.0 -18.5 L10.5 -16.0 6.1 -16.0 5.0 -18.5 8.0 -18.5 M-10.5 -16.0 L-8.0 -18.5 -5.75 -18.5 -7.0 -16.0 -10.5 -16.0 M-1.6 -21.5 L-1.6 -33.25 0.5 -33.25 0.5 -21.5 -1.6 -21.5 M-4.25 -18.5 L-0.25 -18.5 -0.25 -16.0 -5.25 -16.0 -4.25 -18.5" fill="#444444" fill-rule="evenodd" stroke="none"/>
    </g>
    <g id="sprite0" transform="matrix(1.0, 0.0, 0.0, 1.0, 8.8, 102.55)">
      <use ffdec:characterId="2625" ffdec:characterName="HarpoonMC" height="14.55" id="harpoon" transform="matrix(1.0E-4, -1.0, 1.0, 1.0E-4, -7.2048, 2.4493)" width="105.0" xlink:href="#sprite1"/>
      <use ffdec:characterId="2626" height="54.1" transform="matrix(1.0, 0.0, 0.0, 1.0, -8.8, -47.25)" width="18.45" xlink:href="#shape2"/>
      <use ffdec:characterId="2631" ffdec:characterName="game_fla.harpoongunlight_211" height="5.0" id="light" transform="matrix(1.0, 0.0, 0.0, 1.0, -2.25, -32.25)" width="5.0" xlink:href="#sprite2"/>
    </g>
    <g id="sprite1" transform="matrix(1.0, 0.0, 0.0, 1.0, 52.5, 7.25)">
      <use ffdec:characterId="2624" height="14.55" transform="matrix(1.0, 0.0, 0.0, 1.0, -52.5, -7.25)" width="105.0" xlink:href="#shape1"/>
    </g>
    <g id="shape1" transform="matrix(1.0, 0.0, 0.0, 1.0, 52.5, 7.25)">
      <path d="M-52.5 -1.4 L-52.5 -2.25 -3.15 -2.25 -3.15 -1.5 40.1 -1.5 40.1 -2.25 28.65 -7.25 52.5 0.0 28.65 7.3 40.1 2.25 40.1 1.5 -3.15 1.5 -3.15 2.25 -52.5 2.25 -52.5 1.35 -3.15 1.35 -3.15 0.75 43.95 0.75 43.95 0.0 -3.15 0.0 -3.15 0.3 -52.5 0.3 -52.5 -0.35 43.95 -0.35 43.95 -0.9 -3.15 -0.9 -3.15 -1.4 -52.5 -1.4" fill="#999999" fill-rule="evenodd" stroke="none"/>
      <path d="M-52.5 1.35 L-52.5 0.3 -3.15 0.3 -3.15 0.0 43.95 0.0 43.95 0.75 -3.15 0.75 -3.15 1.35 -52.5 1.35" fill="#cccccc" fill-rule="evenodd" stroke="none"/>
      <path d="M-52.5 -0.35 L-52.5 -1.4 -3.15 -1.4 -3.15 -0.9 43.95 -0.9 43.95 -0.35 -52.5 -0.35" fill="#666666" fill-rule="evenodd" stroke="none"/>
    </g>
    <g id="shape2" transform="matrix(1.0, 0.0, 0.0, 1.0, 8.8, 47.25)">
      <path d="M-5.0 -23.55 L-5.0 -37.75 -3.45 -39.45 -2.1 -40.7 4.25 -40.7 4.25 -21.7 -1.6 -21.7 -3.3 -22.75 -5.0 -23.55 M4.25 -19.7 L4.25 -17.7 -0.05 -17.7 -0.05 -18.7 -0.2 -19.7 4.25 -19.7 M4.25 -15.7 L4.25 -13.7 -0.05 -13.7 -0.05 -15.7 4.25 -15.7 M4.25 -11.7 L4.25 -9.7 -0.05 -9.7 -0.05 -11.7 4.25 -11.7 M4.25 -7.7 L4.25 -5.5 3.0 -6.5 1.45 -7.7 4.25 -7.7" fill="#333333" fill-rule="evenodd" stroke="none"/>
      <path d="M4.25 -40.7 L5.5 -40.7 5.5 -9.7 4.25 -9.7 4.25 -11.7 4.25 -13.7 4.25 -15.7 4.25 -17.7 4.25 -19.7 4.25 -21.7 4.25 -40.7 M5.5 -7.7 L5.5 -3.2 4.5 -0.35 4.5 1.75 -3.15 1.75 Q-4.15 -0.15 -5.1 -3.15 -5.5 -5.3 -5.0 -6.45 L-5.0 -7.7 -4.0 -7.7 1.45 -7.7 3.0 -6.5 4.25 -5.5 4.25 -7.7 5.5 -7.7 M-4.0 -9.7 L-5.0 -9.7 -5.0 -11.7 -4.0 -11.7 -0.05 -11.7 -0.05 -9.7 -4.0 -9.7 M-4.0 -13.7 L-5.0 -13.7 -5.0 -15.7 -4.0 -15.7 -0.05 -15.7 -0.05 -13.7 -4.0 -13.7 M-4.0 -17.7 L-5.0 -17.7 -5.0 -19.7 -4.0 -19.7 -0.2 -19.7 -0.05 -18.7 -0.05 -17.7 -4.0 -17.7 M-4.0 -21.7 L-5.0 -21.7 -5.0 -23.55 -3.3 -22.75 -1.6 -21.7 -4.0 -21.7 M-5.0 -37.75 L-5.0 -40.7 -2.1 -40.7 -3.45 -39.45 -5.0 -37.75" fill="#555555" fill-rule="evenodd" stroke="none"/>
      <path d="M5.5 -9.7 L5.5 -7.7 4.25 -7.7 4.25 -9.7 5.5 -9.7 M-4.0 -7.7 L-4.0 -9.7 -0.05 -9.7 -0.05 -8.8 0.0 -8.8 1.45 -7.7 -4.0 -7.7 M-4.0 -11.7 L-4.0 -13.7 -0.05 -13.7 -0.05 -11.7 -4.0 -11.7 M-4.0 -15.7 L-4.0 -17.7 -0.05 -17.7 -0.05 -17.55 -0.05 -15.7 -4.0 -15.7 M-4.0 -19.7 L-4.0 -21.7 -1.6 -21.7 Q-0.55 -20.8 -0.2 -19.7 L-4.0 -19.7" fill="#444444" fill-rule="evenodd" stroke="none"/>
      <path d="M4.25 -21.7 L4.25 -19.7 -0.2 -19.7 Q-0.55 -20.8 -1.6 -21.7 L4.25 -21.7 M4.25 -17.7 L4.25 -15.7 -0.05 -15.7 -0.05 -17.55 -0.05 -17.7 4.25 -17.7 M4.25 -13.7 L4.25 -11.7 -0.05 -11.7 -0.05 -13.7 4.25 -13.7 M1.45 -7.7 L0.0 -8.8 -0.05 -8.8 -0.05 -9.7 4.25 -9.7 4.25 -7.7 1.45 -7.7" fill="#222222" fill-rule="evenodd" stroke="none"/>
      <path d="M-8.1 -32.95 L-7.6 -35.05 -7.55 -35.15 -7.5 -35.15 -7.4 -35.1 -7.35 -35.05 -7.85 -32.85 -8.35 -30.8 Q-8.35 -28.55 -6.1 -28.2 L-6.05 -28.2 -1.65 -27.9 -1.2 -27.8 -1.15 -27.75 -1.1 -27.65 -1.15 -27.6 -1.25 -27.55 -1.7 -27.65 -6.1 -27.95 Q-8.65 -28.35 -8.6 -30.8 L-8.1 -32.95 M6.2 -9.3 L6.3 -9.3 6.35 -9.25 8.05 -6.85 8.85 -5.7 8.9 -6.45 Q8.85 -7.8 7.75 -9.45 L5.8 -11.7 5.8 -11.8 5.85 -11.9 5.9 -11.9 6.0 -11.85 7.95 -9.6 Q9.15 -7.9 9.15 -6.45 L9.05 -5.35 9.65 -3.7 Q9.65 0.05 5.4 1.65 L5.4 1.8 5.35 1.9 5.25 1.95 5.15 1.9 5.15 1.8 5.15 1.5 5.2 1.45 Q9.35 -0.1 9.4 -3.7 L8.95 -5.0 8.05 -3.5 Q6.95 -2.35 5.55 -2.05 5.45 -2.05 5.45 -2.1 L5.4 -2.15 5.4 -2.25 5.5 -2.3 Q6.85 -2.55 7.85 -3.65 L8.8 -5.3 7.85 -6.7 6.15 -9.1 6.15 -9.2 6.2 -9.3" fill="#000000" fill-rule="evenodd" stroke="none"/>
      <path d="M3.0 -40.0 L4.25 -41.25 4.25 -8.7 3.0 -9.7 3.0 -40.0 M5.25 -42.25 L6.75 -43.75 6.75 -6.75 5.5 -7.75 5.25 -7.95 5.25 -42.25 M-4.15 -32.85 L-3.25 -33.75 -3.25 -25.15 -4.15 -25.6 -4.15 -32.85 M6.7 -4.35 L6.7 5.75 5.25 6.45 1.35 6.85 Q-2.2 6.75 -4.15 4.5 L-5.05 2.7 Q-6.0 -0.4 -5.1 -3.15 L-4.05 -5.95 4.75 -5.95 6.7 -4.35 M-5.6 -43.4 L-4.6 -43.4 -4.6 -43.25 Q-4.6 -38.55 -5.25 -36.45 L-5.6 -35.35 Q-6.1 -34.3 -6.7 -34.3 -7.3 -34.3 -7.75 -35.3 L-8.2 -36.45 Q-8.8 -38.6 -8.8 -43.25 L-8.8 -43.4 -8.05 -43.4 Q-8.0 -39.4 -7.75 -37.65 -7.55 -35.9 -7.1 -35.6 -6.7 -35.25 -6.3 -35.85 -5.9 -36.45 -5.6 -43.4" fill="#999999" fill-rule="evenodd" stroke="none"/>
      <path d="M-2.25 -34.75 L1.25 -38.25 1.25 -22.6 -0.8 -24.0 -2.25 -24.65 -2.25 -34.75" fill="#666666" fill-rule="evenodd" stroke="none"/>
      <path d="M1.25 -38.25 L3.0 -40.0 3.0 -9.7 2.5 -10.05 2.45 -10.05 2.45 -18.8 2.45 -19.95 Q2.45 -21.45 1.25 -22.6 L1.25 -38.25 M-3.25 -33.75 L-2.25 -34.75 -2.25 -24.65 -3.25 -25.15 -3.25 -33.75" fill="#878787" fill-rule="evenodd" stroke="none"/>
      <path d="M4.25 -41.25 L5.25 -42.25 5.25 -7.95 4.25 -8.7 4.25 -41.25" fill="#cccccc" fill-rule="evenodd" stroke="none"/>
      <path d="M-8.05 -43.4 L-5.6 -43.4 Q-5.9 -36.45 -6.3 -35.85 -6.7 -35.25 -7.1 -35.6 -7.55 -35.9 -7.75 -37.65 -8.0 -39.4 -8.05 -43.4" fill="#777777" fill-rule="evenodd" stroke="none"/>
      <path d="M3.0 -40.0 L1.25 -38.25 -2.25 -34.75 -3.25 -33.75 -4.15 -32.85 -4.15 -36.4 6.45 -47.0 6.75 -47.25 6.75 -43.75 5.25 -42.25 4.25 -41.25 3.0 -40.0" fill="#ffcc33" fill-rule="evenodd" stroke="none"/>
      <path d="M6.75 -47.25 L6.75 -43.75 -4.15 -32.85 -4.15 -36.4 6.45 -47.0 6.75 -47.25" fill="#ffcc33" fill-rule="evenodd" stroke="none"/>
    </g>
    <g id="sprite2" transform="matrix(1.0, 0.0, 0.0, 1.0, 0.0, 0.0)">
      <use ffdec:characterId="2627" height="5.0" transform="matrix(1.0, 0.0, 0.0, 1.0, 0.0, 0.0)" width="5.0" xlink:href="#shape3"/>
      <use ffdec:characterId="2628" height="3.0" transform="matrix(1.0, 0.0, 0.0, 1.0, 1.0, 1.0)" width="3.0" xlink:href="#shape4"/>
    </g>
    <g id="shape3" transform="matrix(1.0, 0.0, 0.0, 1.0, 0.0, 0.0)">
      <path d="M5.0 0.0 L2.5 2.5 0.0 0.0 5.0 0.0" fill="#333333" fill-rule="evenodd" stroke="none"/>
      <path d="M2.5 2.5 L5.0 5.0 0.0 5.0 2.5 2.5" fill="#999999" fill-rule="evenodd" stroke="none"/>
      <path d="M5.0 0.0 L5.0 5.0 2.5 2.5 5.0 0.0 M0.0 5.0 L0.0 0.0 2.5 2.5 0.0 5.0" fill="#666666" fill-rule="evenodd" stroke="none"/>
    </g>
    <g id="shape4" transform="matrix(1.0, 0.0, 0.0, 1.0, -1.0, -1.0)">
      <path d="M4.0 1.0 L4.0 4.0 1.0 4.0 1.0 1.0 4.0 1.0" fill="#ff5454" fill-rule="evenodd" stroke="none"/>
    </g>
    <g id="shape5" transform="matrix(1.0, 0.0, 0.0, 1.0, 4.45, 39.45)">
      <path d="M4.4 -34.95 L4.5 -34.45 Q4.35 -32.9 3.2 -31.8 1.9 -30.45 0.0 -30.45 -1.85 -30.45 -3.2 -31.8 -4.3 -32.9 -4.45 -34.45 L-4.4 -34.95 Q-4.15 -33.7 -3.2 -32.8 -1.85 -31.45 0.0 -31.45 1.9 -31.45 3.2 -32.8 4.15 -33.7 4.4 -34.95 M2.3 -35.0 L1.75 -35.75 Q1.05 -36.5 0.0 -36.5 -1.05 -36.5 -1.8 -35.75 L-2.3 -35.0 -2.45 -34.5 -2.5 -35.0 -2.45 -35.5 -1.8 -36.75 Q-1.05 -37.5 0.0 -37.5 1.05 -37.5 1.75 -36.75 L2.45 -35.5 2.5 -35.0 2.45 -34.5 2.3 -35.0" fill="#666666" fill-rule="evenodd" stroke="none"/>
      <path d="M0.0 -39.45 Q1.9 -39.45 3.2 -38.15 4.35 -37.0 4.5 -35.45 L4.4 -34.95 Q4.15 -36.2 3.2 -37.15 1.9 -38.45 0.0 -38.45 -1.85 -38.45 -3.2 -37.15 -4.15 -36.2 -4.4 -34.95 L-4.45 -35.45 Q-4.3 -37.0 -3.2 -38.15 -1.85 -39.45 0.0 -39.45 M-2.3 -35.0 L-1.8 -34.2 Q-1.05 -33.5 0.0 -33.5 1.05 -33.5 1.75 -34.2 L2.3 -35.0 2.45 -34.5 Q2.3 -33.75 1.75 -33.2 1.05 -32.5 0.0 -32.5 -1.05 -32.5 -1.8 -33.2 -2.35 -33.75 -2.45 -34.5 L-2.3 -35.0" fill="#cccccc" fill-rule="evenodd" stroke="none"/>
    </g>
  </defs>
</svg>
