<?xml version="1.0" encoding="UTF-8" standalone="no"?>
<svg xmlns:ffdec="https://www.free-decompiler.com/flash" xmlns:xlink="http://www.w3.org/1999/xlink" ffdec:objectType="frame" height="101.0px" width="156.05px" xmlns="http://www.w3.org/2000/svg">
  <g transform="matrix(1.0, 0.0, 0.0, 1.0, 48.25, 53.9)">
    <use ffdec:characterId="1125" height="52.95" transform="matrix(1.0, 0.0, 0.0, 1.0, -36.65, -26.6)" width="73.3" xlink:href="#shape0"/>
    <use ffdec:characterId="1127" height="29.45" id="wound" transform="matrix(1.0, 0.0, 0.0, 1.0, -30.9, -39.25)" width="67.95" xlink:href="#sprite0"/>
  </g>
  <defs>
    <g id="shape0" transform="matrix(1.0, 0.0, 0.0, 1.0, 36.65, 26.6)">
      <path d="M29.2 -4.2 L29.0 -4.15 Q26.0 -3.3 22.7 -3.25 L22.25 -3.25 21.7 -3.25 23.0 -3.5 Q24.55 -3.95 26.2 -4.75 L28.85 -6.1 29.5 -6.45 29.8 -6.6 32.55 -8.05 32.6 -8.1 32.6 -8.15 32.85 -8.35 33.2 -9.75 33.35 -10.35 33.35 -10.4 33.35 -10.5 33.6 -11.5 34.4 -15.6 Q36.4 -13.55 36.65 -11.5 L36.65 -11.0 36.6 -10.35 36.65 -10.35 36.55 -9.85 36.45 -9.25 36.3 -8.8 35.35 -4.75 33.85 1.25 33.7 1.65 33.15 3.25 31.45 6.75 29.95 9.95 Q28.85 12.5 27.95 15.6 L27.2 16.8 27.05 17.05 23.7 20.75 23.65 20.8 23.55 20.85 Q21.5 23.3 18.65 24.25 14.25 25.4 9.9 25.9 L11.85 25.4 15.25 24.75 Q18.6 23.05 21.0 21.0 L25.4 16.8 26.0 16.0 Q27.75 13.45 28.25 10.0 28.7 6.9 30.2 1.25 L31.6 -3.85 31.85 -4.75 31.9 -4.85 32.05 -5.45 31.9 -5.35 31.4 -5.1 30.65 -4.75 29.25 -4.25 29.2 -4.2 M-5.3 25.95 L-7.75 25.6 -12.35 24.9 -17.35 23.95 -20.0 23.35 -20.8 23.15 -22.65 22.15 -25.05 20.7 -25.4 20.4 -27.3 17.8 Q-30.25 15.3 -32.35 11.5 L-33.15 9.95 -33.85 8.35 Q-34.8 6.0 -35.4 3.25 L-35.9 0.75 Q-36.5 -2.4 -36.6 -6.0 L-36.65 -8.25 -36.35 -10.75 -36.0 -12.0 -33.95 -17.75 Q-33.1 -20.2 -32.25 -21.55 -30.8 -23.95 -28.6 -25.15 -30.35 -16.85 -31.35 -13.35 -31.9 -10.9 -31.95 -6.0 L-32.0 -4.0 -31.75 1.0 Q-31.2 5.95 -29.45 8.85 L-27.25 11.5 -20.5 19.5 Q-18.65 21.65 -15.05 23.1 -13.2 23.85 -8.75 25.0 L-5.3 25.95" fill="#aacdf0" fill-rule="evenodd" stroke="none"/>
      <path d="M30.0 -7.6 L30.25 -8.7 30.8 -11.5 Q31.5 -15.3 31.5 -17.25 L31.45 -18.05 33.6 -16.4 34.4 -15.6 33.6 -11.5 33.35 -10.5 33.35 -10.4 33.35 -10.35 33.2 -9.75 Q32.6 -8.9 31.2 -8.2 L30.0 -7.6 M-22.4 -26.15 Q-23.95 -25.2 -24.8 -22.3 -26.45 -16.8 -26.75 -16.25 -27.95 -13.85 -28.3 -10.35 L-28.45 -6.0 -28.5 -3.6 -28.2 1.45 Q-27.5 7.15 -25.1 11.5 -23.0 15.45 -19.5 18.25 -11.05 25.0 4.85 25.0 12.95 25.0 17.85 21.2 21.05 18.7 23.5 14.05 L25.0 10.75 Q26.0 8.15 27.8 1.25 L28.65 -2.05 29.2 -4.2 29.25 -4.25 30.65 -4.75 31.4 -5.1 31.9 -5.35 32.05 -5.45 31.9 -4.85 31.85 -4.75 31.6 -3.85 30.2 1.25 Q28.7 6.9 28.25 10.0 27.75 13.45 26.0 16.0 L25.4 16.8 21.0 21.0 Q18.6 23.05 15.25 24.75 L11.85 25.4 9.9 25.9 Q2.3 26.8 -5.3 25.95 L-8.75 25.0 Q-13.2 23.85 -15.05 23.1 -18.65 21.65 -20.5 19.5 L-27.25 11.5 -29.45 8.85 Q-31.2 5.95 -31.75 1.0 L-32.0 -4.0 -31.95 -6.0 Q-31.9 -10.9 -31.35 -13.35 -30.35 -16.85 -28.6 -25.15 -27.45 -25.8 -26.15 -26.1 L-22.4 -26.15" fill="#90bce7" fill-rule="evenodd" stroke="none"/>
      <path d="M31.45 -18.05 L31.5 -17.25 Q31.5 -15.3 30.8 -11.5 L30.25 -8.7 30.0 -7.6 28.15 -6.6 27.95 -6.4 24.9 -4.75 24.6 -4.6 23.0 -3.5 21.7 -3.25 22.25 -3.25 22.7 -3.25 Q26.0 -3.3 29.0 -4.15 L29.2 -4.2 28.65 -2.05 27.8 1.25 Q26.0 8.15 25.0 10.75 L23.5 14.05 Q21.05 18.7 17.85 21.2 12.95 25.0 4.85 25.0 -11.05 25.0 -19.5 18.25 -23.0 15.45 -25.1 11.5 -27.5 7.15 -28.2 1.45 L-28.5 -3.6 -28.45 -6.0 -28.3 -10.35 Q-27.95 -13.85 -26.75 -16.25 -26.45 -16.8 -24.8 -22.3 -23.95 -25.2 -22.4 -26.15 L-1.15 -26.6 -0.85 -26.3 1.3 -26.35 Q9.6 -26.45 17.55 -24.1 L21.0 -23.05 Q24.25 -22.15 27.8 -20.4 L29.25 -19.6 30.2 -19.0 31.2 -18.2 31.45 -18.05" fill="#82add7" fill-rule="evenodd" stroke="none"/>
      <path d="M23.0 -3.5 L24.6 -4.6 24.9 -4.75 27.95 -6.4 28.15 -6.6 30.0 -7.6 31.2 -8.2 Q32.6 -8.9 33.2 -9.75 L32.85 -8.35 32.6 -8.15 32.6 -8.1 32.55 -8.05 29.8 -6.6 29.5 -6.45 28.85 -6.1 26.2 -4.75 Q24.55 -3.95 23.0 -3.5" fill="#7091b1" fill-rule="evenodd" stroke="none"/>
    </g>
    <g id="sprite0" transform="matrix(1.0, 0.0, 0.0, 1.0, 36.95, 12.45)">
      <use ffdec:characterId="1126" height="29.45" transform="matrix(1.0, 0.0, 0.0, 1.0, -36.95, -12.45)" width="67.95" xlink:href="#shape1"/>
    </g>
    <g id="shape1" transform="matrix(1.0, 0.0, 0.0, 1.0, 36.95, 12.45)">
      <path d="M1.1 -3.4 L4.65 -1.8 5.9 -1.95 9.3 -2.35 9.6 -1.35 9.4 -0.65 3.6 -0.5 4.05 0.25 4.15 0.65 3.95 2.2 Q3.7 3.05 3.1 3.3 L2.75 3.4 Q1.1 3.65 0.15 2.4 L0.55 1.55 -0.3 1.05 -1.35 0.35 -2.85 0.85 -5.95 0.35 -7.55 -0.65 Q-2.9 -2.5 -0.75 -1.75 L0.8 -0.6 1.55 -1.05 1.25 -2.0 Q-0.85 -1.75 -2.6 -2.8 -4.2 -3.85 -6.2 -3.35 L-6.55 -3.75 Q-5.2 -5.0 -3.15 -4.35 L-2.0 -4.2 1.1 -3.4 M15.15 -0.1 L17.0 -0.2 17.0 -0.25 Q17.0 -1.6 19.4 -1.1 L21.2 -0.45 22.75 -0.55 24.9 0.25 25.0 0.7 24.15 2.6 24.25 3.25 Q24.55 4.4 25.35 5.25 L27.7 7.5 31.0 10.4 30.7 12.9 29.7 13.35 29.1 13.15 28.85 12.65 29.5 11.4 26.95 10.15 27.0 10.85 26.75 11.4 26.7 11.5 26.8 11.6 27.05 12.05 Q27.85 13.55 27.25 15.0 L26.85 15.4 25.2 15.1 25.0 12.0 Q24.0 12.05 23.5 11.05 L23.05 9.7 23.8 9.0 Q24.2 8.8 24.7 8.7 L25.25 8.75 Q23.75 5.75 21.5 3.4 L21.5 3.3 21.45 3.25 21.45 3.35 20.95 2.85 Q19.95 1.85 18.65 1.4 L14.6 -0.05 15.15 -0.1 M21.0 9.5 L20.95 10.05 Q20.3 10.85 19.1 10.5 17.15 10.45 16.6 8.7 16.3 7.8 16.85 7.1 L17.65 7.1 Q18.5 7.4 19.3 7.85 20.5 8.45 21.0 9.5 M-34.2 0.9 L-34.1 -0.3 -33.55 -0.65 -31.05 -0.55 -29.7 -0.15 Q-28.5 0.0 -28.3 0.9 L-28.8 1.65 -29.25 1.85 -33.0 1.4 Q-33.75 1.45 -34.2 0.9 M-28.0 -5.35 L-25.85 -6.05 -25.35 -5.6 -25.3 -5.55 -25.25 -5.65 Q-25.05 -7.6 -22.95 -7.65 -21.3 -7.65 -20.65 -6.35 L-20.8 -5.45 Q-22.5 -4.15 -24.65 -4.85 L-25.05 -5.0 -25.4 -4.3 -26.55 -3.95 -27.5 -4.0 -31.05 -2.3 Q-30.25 -4.25 -28.0 -5.35 M-18.05 -8.25 L-18.1 -8.25 -18.25 -8.25 Q-19.45 -8.35 -19.25 -9.65 -19.25 -11.1 -16.65 -10.7 L-15.65 -10.55 Q-10.85 -9.5 -9.75 -9.8 L-9.25 -9.75 -9.1 -9.55 -9.2 -8.65 -9.4 -8.45 -14.0 -8.25 -14.4 -8.4 -16.9 -8.8 -17.5 -8.5 Q-17.8 -8.25 -18.05 -8.25 M15.85 4.0 L16.1 4.55 Q16.5 5.85 15.65 6.65 L12.7 6.6 Q11.3 5.95 11.55 4.25 L11.9 3.85 Q13.9 2.45 15.85 4.0 M-11.0 1.7 L-6.05 5.95 -5.75 6.0 -0.65 4.9 Q0.7 4.55 1.8 5.4 L1.9 6.6 Q0.5 7.65 -1.15 7.75 L-6.65 7.4 Q-7.75 7.2 -8.65 6.45 L-9.55 5.6 -8.75 5.6 -18.3 1.75 -16.15 0.85 -14.8 0.7 Q-12.75 0.5 -11.0 1.7 M-14.0 -5.0 L-21.0 -0.75 -22.8 -1.55 Q-23.3 -3.3 -21.65 -4.1 L-17.5 -4.5 Q-17.0 -4.45 -16.45 -4.75 -13.85 -6.35 -10.9 -6.75 L-11.45 -6.4 -14.0 -5.0 M-21.95 2.15 L-18.0 3.5 Q-18.85 3.55 -19.5 3.95 L-20.8 4.65 Q-23.25 5.9 -25.35 4.45 L-25.45 3.8 -25.4 3.5 Q-25.4 1.3 -22.95 1.8 L-21.95 2.15 M-7.2 6.1 L-7.25 6.15 Q-6.35 6.35 -7.2 6.1" fill="#ff0000" fill-rule="evenodd" stroke="none"/>
      <path d="M1.1 -3.4 L1.5 -3.3 Q3.25 -2.95 4.65 -1.8 L1.1 -3.4 M9.6 -1.35 L10.7 -0.7 11.35 -0.55 12.8 -0.55 13.25 -0.65 Q14.45 -0.8 15.15 -0.1 L14.6 -0.05 18.65 1.4 Q19.95 1.85 20.95 2.85 L21.45 3.35 21.35 3.65 21.15 3.75 21.15 3.3 15.95 2.95 Q14.75 2.55 14.15 1.55 L13.3 0.2 11.0 0.15 10.0 1.25 4.05 0.25 3.6 -0.5 9.4 -0.65 9.6 -1.35 M22.75 -0.55 L23.05 -0.6 Q25.25 -0.7 25.25 1.65 L25.25 2.3 26.25 4.25 26.25 4.5 Q26.15 5.25 25.35 5.25 24.55 4.4 24.25 3.25 L24.15 2.6 25.0 0.7 24.9 0.25 22.75 -0.55 M30.7 12.9 Q30.55 13.5 30.0 13.5 L29.7 13.35 30.7 12.9 M28.85 12.65 L28.3 12.1 27.0 10.85 26.95 10.15 29.5 11.4 28.85 12.65 M26.75 11.4 L26.8 11.6 26.7 11.5 26.75 11.4 M27.25 15.0 Q27.55 16.1 26.6 16.7 L26.0 16.75 Q24.85 16.85 24.3 15.95 L25.0 13.05 23.8 11.85 Q22.85 10.85 22.6 9.65 L23.15 7.3 22.75 6.75 22.35 6.4 Q21.35 5.4 21.45 4.05 L21.5 3.4 Q23.75 5.75 25.25 8.75 L24.7 8.7 Q24.2 8.8 23.8 9.0 L23.05 9.7 23.5 11.05 Q24.0 12.05 25.0 12.0 L25.2 15.1 26.85 15.4 27.25 15.0 M20.95 10.05 L20.9 10.55 20.65 11.65 20.45 11.95 20.0 12.0 Q18.1 11.85 16.75 10.25 L15.25 8.5 14.75 8.5 12.8 7.95 Q11.95 7.7 11.4 7.1 10.9 6.55 10.8 5.85 10.7 5.4 10.85 4.9 L11.55 4.25 Q11.3 5.95 12.7 6.6 L15.65 6.65 Q16.5 5.85 16.1 4.55 L15.85 4.0 16.55 4.9 16.85 7.1 Q16.3 7.8 16.6 8.7 17.15 10.45 19.1 10.5 20.3 10.85 20.95 10.05 M1.65 9.55 L1.0 9.9 -1.95 10.25 -5.0 9.5 Q-7.3 8.8 -9.35 7.7 L-15.15 4.95 -17.05 4.0 -19.4 5.3 -19.95 7.05 -20.4 7.6 Q-21.5 8.6 -23.1 8.35 L-24.55 8.1 Q-26.25 7.6 -26.5 5.9 L-25.45 3.8 -25.35 4.45 Q-23.25 5.9 -20.8 4.65 L-19.5 3.95 Q-18.85 3.55 -18.0 3.5 L-21.95 2.15 -23.05 0.9 -23.75 -0.45 Q-23.8 -2.55 -22.5 -4.0 -24.2 -5.0 -25.7 -3.95 L-26.1 -2.7 -26.85 -2.75 -27.45 -2.7 Q-28.7 -1.95 -30.25 -1.8 -30.85 -1.6 -31.3 -1.95 L-31.55 -2.55 Q-31.5 -3.5 -30.75 -4.05 -29.55 -4.9 -28.0 -5.35 -30.25 -4.25 -31.05 -2.3 L-27.5 -4.0 -26.55 -3.95 -25.4 -4.3 -25.05 -5.0 -24.65 -4.85 Q-22.5 -4.15 -20.8 -5.45 L-20.65 -6.35 -19.8 -5.9 -18.9 -6.0 Q-16.9 -6.55 -15.6 -8.25 L-14.0 -8.25 -9.4 -8.45 -9.2 -8.65 -9.1 -9.55 -9.0 -9.8 -8.5 -8.75 -9.4 -7.5 -9.2 -7.0 -11.45 -6.4 -10.9 -6.75 Q-13.85 -6.35 -16.45 -4.75 -17.0 -4.45 -17.5 -4.5 L-21.65 -4.1 Q-23.3 -3.3 -22.8 -1.55 L-21.0 -0.75 -14.0 -5.0 -10.1 -4.8 -8.05 -5.05 Q-7.45 -5.35 -7.5 -5.95 L-2.0 -4.2 -3.15 -4.35 Q-5.2 -5.0 -6.55 -3.75 L-6.2 -3.35 Q-4.2 -3.85 -2.6 -2.8 -0.85 -1.75 1.25 -2.0 L1.55 -1.05 0.8 -0.6 -0.75 -1.75 Q-2.9 -2.5 -7.55 -0.65 L-5.95 0.35 -2.85 0.85 -1.35 0.35 -0.3 1.05 0.55 1.55 0.15 2.4 Q1.1 3.65 2.75 3.4 L3.1 3.3 Q3.7 3.05 3.95 2.2 L4.15 0.65 Q4.6 1.25 4.6 2.4 L4.5 3.1 4.1 3.9 Q3.45 5.0 2.1 5.0 0.0 5.0 0.0 2.95 L0.0 2.9 0.0 2.55 -0.3 2.8 -1.75 3.15 -1.85 3.15 Q-5.05 3.15 -5.45 2.15 L-6.0 0.5 -7.6 -0.55 Q-9.2 0.0 -10.55 -0.9 L-12.5 -2.35 -13.1 -2.35 -16.15 -1.65 -16.8 0.1 -16.15 0.85 -18.3 1.75 -8.75 5.6 -9.55 5.6 -8.65 6.45 Q-7.75 7.2 -6.65 7.4 L-1.15 7.75 Q0.5 7.65 1.9 6.6 L1.8 5.4 Q3.45 6.2 3.0 7.85 2.75 8.95 1.65 9.55 M-30.45 2.9 Q-32.3 3.05 -33.85 2.3 L-34.2 2.5 -35.0 2.9 Q-36.15 3.0 -36.75 2.05 -37.2 1.3 -36.65 0.8 L-34.25 1.45 -34.2 0.9 Q-33.75 1.45 -33.0 1.4 L-29.25 1.85 -28.8 1.65 -28.3 0.9 Q-28.5 0.0 -29.7 -0.15 L-31.05 -0.55 -30.85 -0.55 -29.45 -0.25 Q-28.65 0.0 -28.2 0.7 -27.45 1.9 -27.95 3.0 L-30.45 2.9 M-25.35 -5.6 L-25.25 -5.65 -25.3 -5.55 -25.35 -5.6 M-7.2 6.1 Q-6.35 6.35 -7.25 6.15 L-7.2 6.1" fill="#990000" fill-rule="evenodd" stroke="none"/>
      <path d="M-15.6 -8.25 L-18.05 -8.25 Q-17.8 -8.25 -17.5 -8.5 L-16.9 -8.8 -14.4 -8.4 -14.0 -8.25 -15.6 -8.25 M-16.65 -10.7 Q-14.6 -11.25 -13.9 -11.8 L-10.55 -11.7 -9.0 -10.0 -9.0 -9.8 -9.1 -9.55 -9.25 -9.75 -9.75 -9.8 Q-10.85 -9.5 -15.65 -10.55 L-16.65 -10.7 M-9.2 -7.0 Q-7.5 -7.15 -7.5 -6.0 L-7.5 -5.95 Q-7.45 -5.35 -8.05 -5.05 L-10.1 -4.8 -14.0 -5.0 -11.45 -6.4 -9.2 -7.0" fill="#ffffff" fill-rule="evenodd" stroke="none"/>
      <path d="M0.0 2.9 L-0.05 2.8 -0.25 2.8 -0.3 2.8 0.0 2.55 0.0 2.9" fill="#583a30" fill-rule="evenodd" stroke="none"/>
      <path d="M26.25 4.5 Q27.2 5.15 27.55 5.85 L27.55 5.95 28.4 6.65 28.2 7.15 27.75 7.5 27.7 7.5 25.35 5.25 Q26.15 5.25 26.25 4.5 M-30.3 -1.55 L-32.1 -1.85 -31.55 -2.55 -31.3 -1.95 Q-30.85 -1.6 -30.25 -1.8 -28.7 -1.95 -27.45 -2.7 L-26.85 -2.75 -26.1 -2.7 -25.7 -3.95 Q-24.2 -5.0 -22.5 -4.0 -23.8 -2.55 -23.75 -0.45 L-30.3 -1.55 M4.05 0.25 L10.0 1.25 11.0 0.15 13.3 0.2 14.15 1.55 Q14.75 2.55 15.95 2.95 L21.15 3.3 21.15 3.75 21.35 3.65 21.45 3.35 21.45 3.25 21.5 3.3 21.5 3.4 21.45 4.05 Q21.35 5.4 22.35 6.4 L22.75 6.75 21.95 6.5 17.6 5.2 16.55 4.9 15.85 4.0 Q13.9 2.45 11.9 3.85 L11.55 4.25 10.85 4.9 9.6 4.85 8.95 5.45 8.25 5.75 Q7.4 5.75 6.4 4.4 L5.55 3.05 5.25 3.0 4.5 3.1 4.6 2.4 Q4.6 1.25 4.15 0.65 L4.05 0.25 M-1.85 3.15 L-4.5 3.75 -6.45 2.5 -6.65 2.3 -11.0 1.7 Q-12.75 0.5 -14.8 0.7 L-16.15 0.85 -16.8 0.1 -16.15 -1.65 -13.1 -2.35 -12.5 -2.35 -10.55 -0.9 Q-9.2 0.0 -7.6 -0.55 L-6.0 0.5 -5.45 2.15 Q-5.05 3.15 -1.85 3.15" fill="#ffcc99" fill-rule="evenodd" stroke="none"/>
      <path d="M22.6 9.65 L21.0 9.5 Q20.5 8.45 19.3 7.85 18.5 7.4 17.65 7.1 L16.85 7.1 16.55 4.9 17.6 5.2 21.95 6.5 22.75 6.75 23.15 7.3 22.6 9.65 M16.75 10.25 L15.4 11.25 Q13.95 12.85 13.5 17.0 12.2 16.15 9.9 12.7 7.9 9.75 7.1 9.75 6.85 9.75 5.7 11.55 L5.3 12.15 Q4.5 11.6 2.9 11.7 L2.05 11.8 1.65 9.55 Q2.75 8.95 3.0 7.85 3.45 6.2 1.8 5.4 0.7 4.55 -0.65 4.9 L-5.75 6.0 -6.05 5.95 -11.0 1.7 -6.65 2.3 -6.45 2.5 -4.5 3.75 -1.85 3.15 -1.75 3.15 -0.3 2.8 -0.25 2.8 -0.05 2.8 0.0 2.9 0.0 2.95 Q0.0 5.0 2.1 5.0 3.45 5.0 4.1 3.9 L4.5 3.1 5.25 3.0 5.55 3.05 6.4 4.4 Q7.4 5.75 8.25 5.75 L8.95 5.45 9.6 4.85 10.85 4.9 Q10.7 5.4 10.8 5.85 10.9 6.55 11.4 7.1 11.95 7.7 12.8 7.95 L14.75 8.5 15.25 8.5 16.75 10.25 M-1.95 10.25 L-2.1 10.7 -2.35 11.75 Q-3.2 12.05 -3.7 12.45 L-5.65 12.85 -7.75 13.5 Q-7.95 11.35 -8.7 9.35 L-9.35 7.7 Q-7.3 8.8 -5.0 9.5 L-1.95 10.25 M-15.15 4.95 Q-15.8 5.5 -16.2 6.55 L-17.75 10.25 Q-17.75 8.95 -18.65 7.95 -19.3 7.2 -19.95 7.05 L-19.4 5.3 -17.05 4.0 -15.15 4.95 M-23.1 8.35 L-25.15 10.0 -25.25 10.1 Q-26.2 9.9 -27.75 10.1 L-27.75 10.0 -28.05 8.05 -28.25 7.35 Q-28.45 4.4 -29.75 3.55 L-30.45 2.9 -27.95 3.0 Q-27.45 1.9 -28.2 0.7 -28.65 0.0 -29.45 -0.25 L-30.85 -0.55 -30.75 -0.7 -30.3 -1.55 -23.75 -0.45 -23.05 0.9 -21.95 2.15 -22.95 1.8 Q-25.4 1.3 -25.4 3.5 L-25.45 3.8 -26.5 5.9 Q-26.25 7.6 -24.55 8.1 L-23.1 8.35" fill="#8d586d" fill-rule="evenodd" stroke="none"/>
    </g>
  </defs>
</svg>
