<?xml version="1.0" encoding="UTF-8" standalone="no"?>
<svg xmlns:ffdec="https://www.free-decompiler.com/flash" xmlns:xlink="http://www.w3.org/1999/xlink" ffdec:objectType="frame" height="101.0px" width="156.05px" xmlns="http://www.w3.org/2000/svg">
  <g transform="matrix(1.0, 0.0, 0.0, 1.0, 48.25, 53.9)">
    <use ffdec:characterId="1128" height="56.75" transform="matrix(1.0, 0.0, 0.0, 1.0, -36.65, -26.6)" width="73.3" xlink:href="#shape0"/>
  </g>
  <defs>
    <g id="shape0" transform="matrix(1.0, 0.0, 0.0, 1.0, 36.65, 26.6)">
      <path d="M30.3 -8.95 L31.25 -9.85 31.25 -10.0 31.25 -10.25 30.95 -10.65 30.7 -10.85 Q31.5 -15.1 31.5 -17.25 L31.45 -18.05 33.6 -16.4 34.4 -15.6 33.35 -10.5 33.35 -10.4 33.35 -10.35 33.2 -9.75 Q32.6 -8.9 31.2 -8.2 L30.0 -7.6 30.05 -7.9 30.65 -8.6 30.3 -8.9 30.3 -8.95 M4.3 26.35 L-4.8 26.0 Q-0.5 24.9 4.3 26.35 M-28.6 -25.15 Q-27.45 -25.8 -26.15 -26.1 L-22.4 -26.15 Q-23.95 -25.2 -24.8 -22.3 L-25.4 -20.2 -27.15 -20.65 Q-29.5 -21.55 -29.5 -18.35 -29.5 -17.2 -28.6 -16.9 L-27.4 -16.8 -26.5 -16.8 -26.75 -16.25 -27.7 -13.65 -27.9 -13.65 -29.15 -14.5 -30.85 -15.1 Q-29.95 -18.65 -28.6 -25.15 M31.3 -5.05 L31.4 -5.1 31.9 -5.35 32.05 -5.45 31.9 -4.85 31.85 -4.75 31.7 -4.05 31.6 -4.2 31.3 -5.05 M30.45 0.45 Q28.75 6.7 28.25 10.0 27.8 13.05 26.4 15.4 L26.4 15.05 Q26.4 14.15 25.75 13.4 L25.3 12.15 24.45 12.05 24.65 11.6 25.65 12.15 25.85 11.85 25.3 10.8 25.15 10.4 25.55 9.15 25.75 9.15 Q27.45 9.15 28.25 7.8 28.75 6.95 28.75 5.8 28.75 4.9 28.25 4.5 L30.15 0.5 30.45 0.45 M21.4 20.7 L21.0 21.0 17.15 23.7 17.25 23.35 18.95 20.7 19.5 20.8 20.75 20.35 21.05 20.5 21.4 20.7 M-30.95 -14.85 L-28.1 -11.65 -28.3 -10.35 -28.3 -10.0 -28.45 -9.95 -29.75 -9.05 -29.9 -8.85 -30.55 -7.55 -30.55 -7.5 Q-31.15 -5.8 -30.05 -4.35 L-29.65 -3.95 -28.5 -4.0 -28.5 -3.6 -28.25 1.05 -28.4 1.9 -27.55 6.25 Q-28.25 5.25 -29.5 5.3 -30.25 5.35 -30.8 5.65 -31.45 3.6 -31.75 1.0 L-32.0 -4.0 -31.95 -6.0 Q-31.9 -10.9 -31.35 -13.35 L-30.95 -14.85 M-27.3 9.6 L-26.7 10.1 -26.95 11.85 -27.25 11.5 -28.05 10.55 Q-27.5 10.25 -27.3 9.6" fill="#90bce7" fill-rule="evenodd" stroke="none"/>
      <path d="M12.05 -14.1 L12.85 -13.05 12.35 -13.6 12.05 -14.1 M20.9 -5.25 Q19.9 -6.8 20.1 -8.5 20.2 -9.45 20.85 -10.25 21.4 -10.95 21.3 -11.75 L21.15 -13.25 21.6 -13.7 Q22.55 -13.85 23.5 -14.3 L23.65 -14.5 19.75 -17.5 18.45 -16.45 Q17.6 -15.7 16.25 -15.7 14.3 -15.65 13.05 -17.0 11.4 -18.7 11.5 -21.15 L9.15 -18.75 -0.75 -19.25 -1.6 -18.5 -4.55 -18.6 Q-5.9 -18.5 -6.4 -19.7 L-6.7 -21.0 -6.65 -22.1 -8.05 -20.6 Q-8.95 -19.75 -10.05 -19.45 -10.55 -19.3 -11.15 -19.45 -10.85 -20.05 -11.55 -20.55 L-14.9 -22.6 -16.35 -24.05 -17.5 -25.6 Q-18.05 -23.2 -17.9 -20.75 L-17.8 -20.1 Q-18.15 -19.05 -18.75 -18.4 L-19.55 -17.85 -21.45 -17.6 Q-22.6 -18.65 -24.0 -19.55 L-25.4 -20.2 -24.8 -22.3 Q-23.95 -25.2 -22.4 -26.15 L-1.15 -26.6 -0.85 -26.3 1.3 -26.35 Q9.6 -26.45 17.55 -24.1 L21.0 -23.05 Q24.25 -22.15 27.8 -20.4 L29.25 -19.6 30.2 -19.0 31.2 -18.2 31.45 -18.05 31.5 -17.25 Q31.5 -15.1 30.7 -10.85 L29.75 -10.9 29.15 -10.65 Q28.05 -10.1 27.05 -9.05 L27.0 -9.0 26.75 -8.85 26.35 -8.55 21.7 -5.65 20.9 -5.25 M30.25 -8.9 L30.3 -8.95 30.3 -8.9 30.25 -8.9 M30.05 -7.9 L30.0 -7.6 28.5 -6.8 30.05 -7.9 M28.1 -6.5 L28.05 -6.55 28.3 -6.65 28.15 -6.6 28.1 -6.5 M25.4 -5.0 L25.6 -5.15 25.95 -5.35 25.95 -5.3 25.4 -5.0 M25.7 -3.45 L25.65 -3.0 24.75 -2.75 24.05 -3.3 25.7 -3.45 M25.55 9.15 L25.15 10.4 24.8 9.1 25.55 9.15 M24.65 11.6 L24.45 12.05 Q23.25 12.1 22.7 13.4 L22.45 14.1 22.35 13.9 22.25 12.8 Q22.25 10.95 24.25 11.45 L24.65 11.6 M-22.4 -14.45 L-22.4 -13.65 -27.7 -13.65 -26.75 -16.25 -26.5 -16.8 Q-24.25 -16.75 -22.75 -15.25 L-22.4 -14.45 M-28.1 -11.65 L-27.0 -10.4 -27.75 -10.25 -28.3 -10.0 -28.3 -10.35 -28.1 -11.65 M-25.5 -5.9 L-23.65 -4.1 Q-23.55 -2.65 -24.5 -1.5 L-25.65 -0.7 -26.85 -0.9 -27.45 -1.5 -28.2 0.8 -28.25 1.05 -28.5 -3.6 -28.5 -4.0 -26.7 -4.5 Q-25.5 -5.1 -25.5 -5.9" fill="#82add7" fill-rule="evenodd" stroke="none"/>
      <path d="M30.0 -7.6 L31.2 -8.2 Q32.6 -8.9 33.2 -9.75 L32.85 -8.35 32.6 -8.15 32.6 -8.1 32.55 -8.05 29.8 -6.6 29.5 -6.45 29.25 -6.3 29.2 -6.3 28.4 -6.4 28.1 -6.5 28.15 -6.6 28.3 -6.65 28.3 -6.7 28.5 -6.8 30.0 -7.6 M23.7 -3.7 L25.4 -5.0 25.95 -5.3 25.85 -4.55 Q24.75 -4.05 23.7 -3.7" fill="#7091b1" fill-rule="evenodd" stroke="none"/>
      <path d="M34.4 -15.6 Q36.65 -13.25 36.65 -11.0 L36.6 -10.35 36.65 -10.35 36.55 -9.85 36.45 -9.25 36.3 -8.8 35.35 -4.75 33.7 1.65 33.15 3.25 31.45 6.75 29.95 9.95 Q28.85 12.5 27.95 15.6 L27.2 16.8 27.05 17.05 23.7 20.75 23.65 20.8 23.55 20.85 Q21.5 23.3 18.65 24.25 L17.0 24.65 17.1 23.9 17.15 23.7 21.0 21.0 21.4 20.7 21.75 20.75 Q22.6 20.75 22.6 19.65 L22.6 19.55 24.9 18.3 25.45 17.95 26.05 17.25 26.25 16.75 26.4 15.4 Q27.8 13.05 28.25 10.0 28.75 6.7 30.45 0.45 32.4 0.1 32.4 -1.95 32.4 -3.0 31.7 -4.05 L31.85 -4.75 31.9 -4.85 32.05 -5.45 31.9 -5.35 31.4 -5.1 31.3 -5.05 Q30.75 -5.95 29.25 -6.3 L29.5 -6.45 29.8 -6.6 32.55 -8.05 32.6 -8.1 32.6 -8.15 32.85 -8.35 33.2 -9.75 33.35 -10.35 33.35 -10.4 33.35 -10.5 34.4 -15.6 M-16.05 24.2 L-17.35 23.95 -20.0 23.35 -20.5 23.25 -18.55 23.5 Q-17.25 23.7 -16.05 24.2 M-26.65 18.75 L-27.3 17.8 Q-30.25 15.3 -32.35 11.5 L-33.15 9.95 -33.85 8.35 Q-34.8 6.0 -35.4 3.25 L-35.9 0.75 Q-36.5 -2.4 -36.6 -6.0 L-36.65 -8.25 -36.35 -10.75 -36.0 -12.0 -33.95 -17.75 Q-33.1 -20.2 -32.25 -21.55 -30.8 -23.95 -28.6 -25.15 -29.95 -18.65 -30.85 -15.1 L-31.35 -15.3 -30.95 -14.85 -31.35 -13.35 Q-31.9 -10.9 -31.95 -6.0 L-32.0 -4.0 -31.75 1.0 Q-31.45 3.6 -30.8 5.65 L-31.35 6.0 Q-33.0 8.0 -31.2 9.9 L-30.05 10.5 -28.6 10.7 -28.05 10.55 -27.25 11.5 -26.95 11.85 -27.2 13.35 -28.25 15.2 -26.6 18.4 -26.65 18.75 M23.6 -3.65 L23.7 -3.7 Q24.75 -4.05 25.85 -4.55 L25.7 -3.45 24.05 -3.3 23.6 -3.65" fill="#aacdf0" fill-rule="evenodd" stroke="none"/>
      <path d="M12.85 -13.05 L12.05 -14.1 11.1 -15.2 10.75 -15.5 8.65 -16.85 Q7.75 -17.4 6.75 -17.6 L3.1 -18.0 0.85 -15.85 0.1 -14.5 -0.25 -13.4 -0.5 -13.1 -0.8 -13.65 -1.3 -15.0 Q-1.6 -15.75 -2.5 -16.15 L-3.3 -15.55 Q-5.0 -14.4 -5.25 -12.45 L-5.45 -8.5 -5.3 -7.65 -6.05 -6.1 -6.65 -6.85 -7.25 -6.9 -7.25 -7.35 -6.8 -7.65 -8.25 -12.3 Q-9.4 -15.95 -12.9 -17.45 L-15.35 -17.55 Q-16.1 -17.45 -16.7 -17.0 L-18.4 -15.5 -19.05 -14.85 -21.45 -17.6 -19.55 -17.85 -18.75 -18.4 Q-18.15 -19.05 -17.8 -20.1 L-17.9 -20.75 Q-18.05 -23.2 -17.5 -25.6 L-16.35 -24.05 -14.9 -22.6 -11.55 -20.55 Q-10.85 -20.05 -11.15 -19.45 -10.55 -19.3 -10.05 -19.45 -8.95 -19.75 -8.05 -20.6 L-6.65 -22.1 -6.7 -21.0 -6.4 -19.7 Q-5.9 -18.5 -4.55 -18.6 L-1.6 -18.5 -0.75 -19.25 9.15 -18.75 11.5 -21.15 Q11.4 -18.7 13.05 -17.0 14.3 -15.65 16.25 -15.7 17.6 -15.7 18.45 -16.45 L19.75 -17.5 23.65 -14.5 23.5 -14.3 Q22.55 -13.85 21.6 -13.7 L21.15 -13.25 21.3 -11.75 Q21.4 -10.95 20.85 -10.25 20.2 -9.45 20.1 -8.5 19.9 -6.8 20.9 -5.25 L20.9 -5.2 20.2 -4.9 19.95 -4.75 19.25 -4.25 19.2 -4.4 19.0 -4.8 18.05 -11.2 16.75 -11.1 15.85 -8.95 15.75 -9.15 14.65 -7.9 13.7 -6.95 12.55 -4.25 11.55 -3.85 11.5 -4.35 11.65 -5.5 11.45 -6.7 12.2 -8.25 12.65 -10.1 13.3 -12.5 12.85 -13.05 M18.0 4.2 Q18.35 4.3 18.7 4.5 L19.45 4.8 19.5 4.8 21.1 5.65 23.6 5.0 23.45 5.45 Q23.0 6.15 23.0 7.2 L23.1 8.2 Q23.5 8.9 24.8 9.1 L25.15 10.4 25.3 10.8 25.85 11.85 25.65 12.15 24.65 11.6 24.25 11.45 Q22.25 10.95 22.25 12.8 L22.35 13.9 22.45 14.1 22.4 15.15 Q22.05 15.95 21.2 16.25 L20.4 16.6 Q18.65 16.85 18.6 18.45 L18.35 18.65 17.35 19.1 17.7 18.8 17.9 18.1 18.5 15.7 Q18.5 15.1 17.7 13.05 L17.9 12.4 16.05 9.85 14.8 8.25 13.75 6.95 13.1 6.15 13.25 6.0 13.8 6.25 14.7 6.75 16.9 8.15 18.05 9.15 18.75 9.9 18.85 10.05 20.5 10.65 21.75 10.65 21.75 9.55 20.95 8.35 19.75 6.9 19.5 6.75 17.7 5.9 Q16.3 5.2 14.85 4.75 16.45 3.8 18.0 4.2 M17.0 24.65 L16.5 28.75 15.9 28.8 12.05 25.9 10.95 26.1 9.95 26.6 Q9.45 26.8 9.05 27.1 L8.25 27.9 Q6.25 26.9 4.3 26.35 -0.5 24.9 -4.8 26.0 -8.85 27.0 -12.5 30.15 L-13.0 29.2 Q-11.9 27.25 -13.35 25.9 -14.6 24.8 -16.05 24.2 -17.25 23.7 -18.55 23.5 L-20.5 23.25 -23.0 23.05 -23.0 22.5 -27.7 22.8 -27.85 22.6 -26.9 19.95 -26.65 18.75 -26.6 18.4 -28.25 15.2 -27.2 13.35 -26.95 11.85 -26.7 10.1 -27.3 9.6 Q-26.55 8.2 -27.2 6.95 L-27.55 6.3 -27.55 6.25 -28.4 1.9 -28.25 1.05 -28.2 0.8 -27.45 -1.5 -26.85 -0.9 -25.65 -0.7 -24.5 -1.5 Q-23.55 -2.65 -23.65 -4.1 L-25.5 -5.9 Q-24.35 -7.7 -25.1 -9.4 L-25.35 -9.7 -25.9 -10.05 -27.0 -10.4 -28.1 -11.65 -30.95 -14.85 -31.35 -15.3 -30.85 -15.1 -29.15 -14.5 -27.9 -13.65 -27.7 -13.65 -22.4 -13.65 -22.4 -14.45 -21.0 -12.2 -22.5 -6.4 Q-19.85 -2.9 -18.8 1.0 L-20.35 0.95 Q-23.4 -0.45 -26.5 1.3 L-26.85 0.9 -27.25 1.5 -25.75 6.45 -26.4 8.1 -25.9 8.45 Q-22.0 10.0 -21.15 14.0 L-22.0 13.3 Q-22.7 12.2 -24.0 12.4 L-24.55 12.5 -24.8 12.7 -25.1 13.1 -25.2 13.4 -25.2 13.45 -25.2 13.55 -25.2 13.6 -25.25 13.65 -25.3 13.85 -25.6 15.05 Q-25.85 16.95 -24.3 18.0 -22.85 19.05 -21.35 18.5 L-20.45 18.05 Q-19.0 22.3 -14.3 22.9 L-7.0 23.85 Q5.45 25.85 16.05 20.1 L18.95 20.7 17.25 23.35 17.15 23.7 17.1 23.9 17.0 24.65 M25.65 -3.0 L25.6 -2.85 Q25.6 -2.15 26.5 -1.05 27.7 0.5 29.55 0.5 L30.15 0.5 28.25 4.5 28.1 4.35 27.25 3.7 24.9 3.75 23.8 2.4 24.5 1.4 24.0 -1.25 23.4 -1.4 23.05 -1.75 23.15 -2.5 22.05 -2.5 22.85 -3.1 23.6 -3.65 24.05 -3.3 24.75 -2.75 25.65 -3.0" fill="#8d586d" fill-rule="evenodd" stroke="none"/>
      <path d="M12.85 -13.05 L13.3 -12.5 12.65 -10.1 11.3 -11.55 Q8.45 -14.6 4.6 -15.0 8.3 -17.35 10.75 -15.5 L11.1 -15.2 12.05 -14.1 12.35 -13.6 12.85 -13.05 M12.2 -8.25 L11.45 -6.7 11.35 -6.9 Q10.35 -8.75 7.85 -9.75 L8.0 -9.9 Q10.15 -9.85 12.2 -8.25 M11.65 -5.5 L11.5 -4.35 Q9.65 -4.35 8.25 -5.45 L6.2 -6.9 Q4.4 -8.25 2.25 -8.4 L4.6 -8.3 Q8.9 -8.65 11.65 -5.5 M12.55 -4.25 L13.7 -6.95 Q15.5 -4.95 16.8 -2.5 L17.9 -0.65 18.55 0.65 Q19.55 2.5 19.5 4.8 L19.45 4.8 18.7 4.5 Q18.35 4.3 18.0 4.2 L18.0 3.75 17.95 3.05 Q17.45 3.6 16.35 3.65 16.75 2.85 16.75 1.8 13.85 -1.8 12.6 -4.0 L12.55 -4.25 M14.65 -7.9 L15.75 -9.15 15.85 -8.95 16.1 -7.95 15.35 -7.15 14.65 -7.9 M19.95 -4.75 L20.2 -4.9 20.9 -5.2 20.9 -5.25 21.7 -5.65 26.35 -8.55 26.75 -8.85 27.0 -9.0 Q29.6 -10.75 30.65 -10.7 L30.95 -10.65 31.25 -10.25 31.25 -10.0 31.25 -9.85 30.3 -8.95 30.25 -8.9 27.85 -8.15 24.5 -6.55 20.2 -4.85 19.95 -4.75 M-21.45 -17.6 L-19.05 -14.85 -17.55 -13.25 -18.0 -13.05 Q-19.45 -12.6 -20.2 -13.75 L-21.55 -15.95 Q-22.85 -18.0 -25.0 -18.85 L-26.0 -18.25 -26.05 -18.25 -28.45 -18.55 -29.2 -18.75 -28.7 -20.45 -27.15 -20.65 -25.4 -20.2 -24.0 -19.55 Q-22.6 -18.65 -21.45 -17.6 M-8.25 -12.3 L-6.8 -7.65 -7.25 -7.35 Q-9.3 -6.2 -10.9 -4.5 -11.85 -3.6 -12.1 -2.45 L-12.3 -0.45 -12.6 -1.25 Q-13.7 -5.4 -10.55 -8.4 L-15.8 -6.2 Q-16.0 -8.5 -14.15 -9.9 -11.6 -11.85 -8.25 -12.3 M-5.45 -8.5 L-5.25 -12.45 -0.15 -11.35 -5.45 -8.5 M19.2 -4.4 L19.15 -4.4 19.2 -4.4 M29.25 -6.3 Q30.75 -5.95 31.3 -5.05 L31.6 -4.2 31.6 -3.95 Q31.6 -3.25 31.25 -2.7 30.7 -1.75 29.35 -1.75 27.5 -1.75 26.95 -3.15 L26.75 -4.4 Q26.75 -6.4 28.4 -6.4 L29.2 -6.3 29.25 -6.3 M24.45 12.05 L25.3 12.15 25.75 13.4 25.6 14.05 24.95 15.2 Q23.1 17.7 20.35 19.1 L19.95 19.25 Q18.85 19.5 18.6 18.45 18.65 16.85 20.4 16.6 L21.2 16.25 Q22.05 15.95 22.4 15.15 L22.45 14.1 22.7 13.4 Q23.25 12.1 24.45 12.05 M28.1 4.35 L28.25 5.3 28.1 6.2 26.75 7.15 24.5 7.15 Q23.4 6.5 23.4 5.95 L23.45 5.45 23.6 5.0 24.9 3.75 27.25 3.7 28.1 4.35 M18.75 9.9 L18.05 9.15 16.9 8.15 17.7 5.9 19.5 6.75 19.5 6.85 18.75 9.9 M14.7 6.75 L13.8 6.25 14.1 2.05 14.25 2.05 14.7 6.75 M13.75 6.95 L14.8 8.25 14.45 12.4 16.05 9.85 17.9 12.4 17.7 13.05 16.75 15.25 16.15 16.1 Q14.25 17.85 11.85 18.95 L9.0 20.05 7.35 20.25 9.3 18.1 10.45 16.55 5.85 19.35 Q4.0 20.25 2.1 20.15 1.45 20.8 0.5 20.9 L-14.1 19.55 Q-15.8 19.35 -17.4 18.6 -18.5 18.05 -19.4 17.3 L-19.9 16.65 -20.75 14.25 -20.5 13.9 Q-14.95 17.45 -8.5 18.5 -13.9 14.9 -17.7 9.7 L-16.8 13.0 -18.3 12.75 Q-19.45 12.3 -19.8 11.25 -20.55 9.1 -20.45 6.9 -20.4 6.2 -20.7 5.35 L-21.55 2.8 Q-20.35 4.2 -19.45 6.0 L-18.0 8.45 -16.05 10.75 Q-14.25 12.65 -12.1 14.35 -10.1 15.85 -7.7 16.8 -4.4 18.2 -0.95 18.15 L2.15 18.6 10.55 16.25 Q11.5 14.65 11.75 12.8 11.9 11.75 12.4 10.95 13.55 9.05 13.75 6.95 M-25.25 13.65 L-25.2 13.6 -25.2 13.55 -25.2 13.45 -25.2 13.4 -25.1 13.1 -24.8 12.7 -24.55 12.5 -24.0 12.4 Q-22.7 12.2 -22.0 13.3 L-22.0 13.4 Q-22.0 14.65 -22.65 15.15 L-23.75 15.4 -23.95 15.4 Q-25.05 15.35 -25.25 14.55 L-25.25 13.65 M-25.9 -10.05 L-25.35 -9.7 Q-25.05 -9.0 -25.3 -8.15 -25.55 -7.1 -26.7 -6.6 -27.65 -6.15 -28.45 -6.3 L-29.85 -7.15 -29.75 -9.05 -28.45 -9.95 -25.9 -10.05 M-27.55 6.25 L-27.55 6.3 Q-27.6 7.4 -28.2 8.1 -28.8 8.8 -29.5 8.75 L-29.55 8.75 Q-30.35 8.65 -30.85 7.85 -31.4 7.05 -31.35 6.0 L-30.8 5.65 Q-30.25 5.35 -29.5 5.3 -28.25 5.25 -27.55 6.25 M-5.9 -4.85 Q-3.4 -6.85 0.85 -5.85 -2.55 -5.3 -4.55 -3.8 L-7.55 -1.1 Q-8.0 -3.15 -5.9 -4.85 M-10.5 10.8 L-11.0 10.9 Q-15.0 9.45 -15.55 8.5 -16.65 6.65 -16.65 5.3 -16.65 2.45 -13.75 5.7 -11.05 8.75 -10.5 10.65 L-10.5 10.8" fill="#ff0000" fill-rule="evenodd" stroke="none"/>
      <path d="M12.65 -10.1 L12.2 -8.25 Q10.15 -9.85 8.0 -9.9 L7.85 -9.75 Q10.35 -8.75 11.35 -6.9 L11.45 -6.7 11.65 -5.5 Q8.9 -8.65 4.6 -8.3 L2.25 -8.4 Q4.4 -8.25 6.2 -6.9 L8.25 -5.45 Q9.65 -4.35 11.5 -4.35 L11.55 -3.85 12.55 -4.25 12.6 -4.0 Q13.85 -1.8 16.75 1.8 16.75 2.85 16.35 3.65 17.45 3.6 17.95 3.05 L18.0 3.75 18.0 4.2 Q16.45 3.8 14.85 4.75 16.3 5.2 17.7 5.9 L16.9 8.15 14.7 6.75 14.25 2.05 14.1 2.05 13.8 6.25 13.25 6.0 13.1 6.15 13.75 6.95 Q13.55 9.05 12.4 10.95 11.9 11.75 11.75 12.8 11.5 14.65 10.55 16.25 L2.15 18.6 -0.95 18.15 Q-4.4 18.2 -7.7 16.8 -10.1 15.85 -12.1 14.35 -14.25 12.65 -16.05 10.75 L-18.0 8.45 -19.45 6.0 Q-20.35 4.2 -21.55 2.8 L-20.7 5.35 Q-20.4 6.2 -20.45 6.9 -20.55 9.1 -19.8 11.25 -19.45 12.3 -18.3 12.75 L-16.8 13.0 -17.7 9.7 Q-13.9 14.9 -8.5 18.5 -14.95 17.45 -20.5 13.9 L-20.75 14.25 -19.9 16.65 -19.4 17.3 Q-18.5 18.05 -17.4 18.6 -15.8 19.35 -14.1 19.55 L0.5 20.9 Q1.45 20.8 2.1 20.15 4.0 20.25 5.85 19.35 L10.45 16.55 9.3 18.1 7.35 20.25 9.0 20.05 11.85 18.95 Q14.25 17.85 16.15 16.1 L16.75 15.25 17.7 13.05 Q18.5 15.1 18.5 15.7 L17.9 18.1 17.7 18.8 17.35 19.1 18.35 18.65 18.6 18.45 Q18.85 19.5 19.95 19.25 L20.35 19.1 Q23.1 17.7 24.95 15.2 L25.6 14.05 25.75 13.4 Q26.4 14.15 26.4 15.05 L26.4 15.4 26.25 16.75 26.05 17.25 25.45 17.95 24.9 18.3 22.6 19.55 22.0 19.8 20.75 20.35 19.5 20.8 18.95 20.7 16.05 20.1 Q5.45 25.85 -7.0 23.85 L-14.3 22.9 Q-19.0 22.3 -20.45 18.05 L-21.35 18.5 Q-22.85 19.05 -24.3 18.0 -25.85 16.95 -25.6 15.05 L-25.3 13.85 -25.25 13.65 -25.25 14.55 Q-25.05 15.35 -23.95 15.4 L-23.75 15.4 -22.65 15.15 Q-22.0 14.65 -22.0 13.4 L-22.0 13.3 -21.15 14.0 Q-22.0 10.0 -25.9 8.45 L-26.4 8.1 -25.75 6.45 -27.25 1.5 -26.85 0.9 -26.5 1.3 Q-23.4 -0.45 -20.35 0.95 L-18.8 1.0 Q-19.85 -2.9 -22.5 -6.4 L-21.0 -12.2 -22.4 -14.45 -22.75 -15.25 Q-24.25 -16.75 -26.5 -16.8 L-27.4 -16.8 -28.6 -16.9 Q-29.5 -17.2 -29.5 -18.35 -29.5 -21.55 -27.15 -20.65 L-28.7 -20.45 -29.2 -18.75 -28.45 -18.55 -26.05 -18.25 -26.0 -18.25 -25.0 -18.85 Q-22.85 -18.0 -21.55 -15.95 L-20.2 -13.75 Q-19.45 -12.6 -18.0 -13.05 L-17.55 -13.25 -19.05 -14.85 -18.4 -15.5 -16.7 -17.0 Q-16.1 -17.45 -15.35 -17.55 L-12.9 -17.45 Q-9.4 -15.95 -8.25 -12.3 -11.6 -11.85 -14.15 -9.9 -16.0 -8.5 -15.8 -6.2 L-10.55 -8.4 Q-13.7 -5.4 -12.6 -1.25 L-12.3 -0.45 -12.1 -2.45 Q-11.85 -3.6 -10.9 -4.5 -9.3 -6.2 -7.25 -7.35 L-7.25 -6.9 -6.65 -6.85 -6.05 -6.1 -5.3 -7.65 -5.45 -8.5 -0.15 -11.35 -5.25 -12.45 Q-5.0 -14.4 -3.3 -15.55 L-2.5 -16.15 Q-1.6 -15.75 -1.3 -15.0 L-0.8 -13.65 -0.5 -13.1 -0.25 -13.4 0.1 -14.5 0.85 -15.85 3.1 -18.0 6.75 -17.6 Q7.75 -17.4 8.65 -16.85 L10.75 -15.5 Q8.3 -17.35 4.6 -15.0 8.45 -14.6 11.3 -11.55 L12.65 -10.1 M13.7 -6.95 L14.65 -7.9 15.35 -7.15 16.1 -7.95 15.85 -8.95 16.75 -11.1 18.05 -11.2 19.0 -4.8 19.2 -4.4 19.25 -4.25 19.95 -4.75 20.2 -4.85 24.5 -6.55 27.85 -8.15 30.25 -8.9 30.3 -8.9 30.65 -8.6 30.05 -7.9 28.5 -6.8 28.3 -6.7 28.3 -6.65 28.05 -6.55 28.1 -6.5 28.4 -6.4 Q26.75 -6.4 26.75 -4.4 L26.95 -3.15 Q27.5 -1.75 29.35 -1.75 30.7 -1.75 31.25 -2.7 31.6 -3.25 31.6 -3.95 L31.6 -4.2 31.7 -4.05 Q32.4 -3.0 32.4 -1.95 32.4 0.1 30.45 0.45 L30.15 0.5 29.55 0.5 Q27.7 0.5 26.5 -1.05 25.6 -2.15 25.6 -2.85 L25.65 -3.0 25.7 -3.45 25.85 -4.55 25.95 -5.3 25.95 -5.35 25.6 -5.15 25.4 -5.0 23.7 -3.7 23.6 -3.65 22.85 -3.1 22.05 -2.5 23.15 -2.5 23.05 -1.75 23.4 -1.4 24.0 -1.25 24.5 1.4 23.8 2.4 24.9 3.75 23.6 5.0 21.1 5.65 19.5 4.8 Q19.55 2.5 18.55 0.65 L17.9 -0.65 16.8 -2.5 Q15.5 -4.95 13.7 -6.95 M2.75 -3.35 L4.05 -2.15 Q5.9 -0.55 6.95 1.75 L5.55 1.2 3.5 0.75 Q1.3 0.6 -0.65 1.55 -2.0 2.15 -2.4 3.35 L-3.35 5.7 -4.1 7.1 -4.5 5.55 -4.35 4.45 Q-4.3 4.15 -4.4 3.9 L-4.75 3.3 Q-5.85 4.15 -5.95 5.55 -6.1 7.55 -4.5 8.9 L-2.25 10.3 -0.15 11.15 Q2.7 11.3 5.1 9.9 L6.4 8.55 Q7.8 6.2 7.5 3.2 8.55 6.65 7.6 10.0 6.8 12.75 4.35 14.4 L5.25 14.5 7.8 12.9 Q9.1 12.9 9.95 11.65 L10.4 10.45 10.4 6.25 Q10.25 3.8 8.85 1.75 7.4 -0.25 5.3 -1.7 L2.75 -3.35 M30.95 -10.65 L30.65 -10.7 Q29.6 -10.75 27.0 -9.0 L27.05 -9.05 Q28.05 -10.1 29.15 -10.65 L29.75 -10.9 30.7 -10.85 30.95 -10.65 M19.2 -4.4 L19.15 -4.4 19.2 -4.4 M28.25 4.5 Q28.75 4.9 28.75 5.8 28.75 6.95 28.25 7.8 27.45 9.15 25.75 9.15 L25.55 9.15 24.8 9.1 Q23.5 8.9 23.1 8.2 L23.0 7.2 Q23.0 6.15 23.45 5.45 L23.4 5.95 Q23.4 6.5 24.5 7.15 L26.75 7.15 28.1 6.2 28.25 5.3 28.1 4.35 28.25 4.5 M19.5 6.75 L19.75 6.9 20.95 8.35 21.75 9.55 21.75 10.65 20.5 10.65 18.85 10.05 18.75 9.9 19.5 6.85 19.5 6.75 M14.8 8.25 L16.05 9.85 14.45 12.4 14.8 8.25 M-27.0 -10.4 L-25.9 -10.05 -28.45 -9.95 -28.3 -10.0 -27.75 -10.25 -27.0 -10.4 M-25.35 -9.7 L-25.1 -9.4 Q-24.35 -7.7 -25.5 -5.9 -25.5 -5.1 -26.7 -4.5 L-28.5 -4.0 -29.65 -3.95 -30.05 -4.35 Q-31.15 -5.8 -30.55 -7.5 L-30.55 -7.55 -29.9 -8.85 -29.75 -9.05 -29.85 -7.15 -28.45 -6.3 Q-27.65 -6.15 -26.7 -6.6 -25.55 -7.1 -25.3 -8.15 -25.05 -9.0 -25.35 -9.7 M-27.55 6.3 L-27.2 6.95 Q-26.55 8.2 -27.3 9.6 -27.5 10.25 -28.05 10.55 L-28.6 10.7 -30.05 10.5 -31.2 9.9 Q-33.0 8.0 -31.35 6.0 -31.4 7.05 -30.85 7.85 -30.35 8.65 -29.55 8.75 L-29.5 8.75 Q-28.8 8.8 -28.2 8.1 -27.6 7.4 -27.55 6.3 M-5.9 -4.85 Q-8.0 -3.15 -7.55 -1.1 L-4.55 -3.8 Q-2.55 -5.3 0.85 -5.85 -3.4 -6.85 -5.9 -4.85 M-2.15 12.3 Q-3.05 9.5 -4.85 9.5 -10.55 9.5 -9.9 5.75 L-10.15 5.75 Q-10.15 6.8 -10.5 8.45 -5.8 15.15 -4.6 15.15 -2.15 15.15 -2.15 12.3 M-10.5 10.8 L-10.5 10.65 Q-11.05 8.75 -13.75 5.7 -16.65 2.45 -16.65 5.3 -16.65 6.65 -15.55 8.5 -15.0 9.45 -11.0 10.9 L-10.5 10.8" fill="#990000" fill-rule="evenodd" stroke="none"/>
      <path d="M2.75 -3.35 L5.3 -1.7 Q7.4 -0.25 8.85 1.75 10.25 3.8 10.4 6.25 L10.4 10.45 9.95 11.65 Q9.1 12.9 7.8 12.9 L5.25 14.5 4.35 14.4 Q6.8 12.75 7.6 10.0 8.55 6.65 7.5 3.2 7.8 6.2 6.4 8.55 L5.1 9.9 Q2.7 11.3 -0.15 11.15 L-2.25 10.3 -4.5 8.9 Q-6.1 7.55 -5.95 5.55 -5.85 4.15 -4.75 3.3 L-4.4 3.9 Q-4.3 4.15 -4.35 4.45 L-4.5 5.55 -4.1 7.1 -3.35 5.7 -2.4 3.35 Q-2.0 2.15 -0.65 1.55 1.3 0.6 3.5 0.75 L5.55 1.2 6.95 1.75 Q5.9 -0.55 4.05 -2.15 L2.75 -3.35 M-2.15 12.3 Q-2.15 15.15 -4.6 15.15 -5.8 15.15 -10.5 8.45 -10.15 6.8 -10.15 5.75 L-9.9 5.75 Q-10.55 9.5 -4.85 9.5 -3.05 9.5 -2.15 12.3" fill="#650101" fill-rule="evenodd" stroke="none"/>
      <path d="M22.6 19.55 L22.6 19.65 Q22.6 20.75 21.75 20.75 L21.4 20.7 21.05 20.5 20.75 20.35 22.0 19.8 22.6 19.55" fill="#642d45" fill-rule="evenodd" stroke="none"/>
    </g>
  </defs>
</svg>
