<?xml version="1.0" encoding="UTF-8" standalone="no"?>
<svg xmlns:ffdec="https://www.free-decompiler.com/flash" xmlns:xlink="http://www.w3.org/1999/xlink" ffdec:objectType="frame" height="35.65px" width="30.2px" xmlns="http://www.w3.org/2000/svg">
  <g transform="matrix(1.0, 0.0, 0.0, 1.0, 13.45, 25.55)">
    <use ffdec:characterId="2048" height="35.65" transform="matrix(1.0, 0.0, 0.0, 1.0, -13.45, -25.55)" width="30.2" xlink:href="#shape0"/>
  </g>
  <defs>
    <g id="shape0" transform="matrix(1.0, 0.0, 0.0, 1.0, 13.45, 25.55)">
      <path d="M15.25 -14.7 L15.5 -14.35 15.5 -10.5 15.35 -10.15 15.65 -9.15 15.15 -7.35 14.6 -6.05 15.65 -3.85 Q16.7 -1.55 16.7 -0.1 L16.75 0.05 16.5 1.7 15.3 1.0 14.75 0.8 14.0 0.8 12.6 0.7 12.65 0.65 12.55 0.65 12.75 0.3 13.3 -0.7 12.4 0.0 11.7 0.85 10.75 3.0 11.7 2.2 Q12.3 1.65 12.3 1.25 L12.35 1.0 12.45 1.5 12.45 1.55 12.5 1.7 12.9 2.65 13.35 3.45 Q12.25 3.55 11.65 3.9 L11.55 4.0 10.35 4.1 Q10.05 4.1 9.95 4.25 L10.85 4.45 10.8 4.45 11.0 4.45 11.4 4.45 12.3 4.3 12.4 4.25 13.2 4.35 13.3 4.35 13.2 4.5 13.3 4.35 Q13.5 5.25 12.95 5.55 L12.85 5.65 12.85 5.55 12.8 5.3 12.55 5.3 11.3 6.1 11.3 6.95 11.45 7.0 12.55 6.0 12.35 7.15 Q12.35 8.0 11.7 8.95 10.9 10.1 9.75 10.1 8.65 10.1 4.8 8.7 L0.95 7.5 -0.15 6.6 -1.5 5.5 -1.65 4.15 -1.95 2.55 -2.1 1.6 Q-2.15 1.15 -2.5 0.95 -3.05 0.45 -3.35 0.65 L-3.3 0.55 -2.8 -0.4 -2.4 -0.6 -2.25 -1.45 Q-5.0 -4.65 -3.95 -8.35 L-2.35 -9.5 -1.7 -9.15 Q1.2 -6.4 1.0 -2.0 L0.9 -1.35 1.5 -1.2 2.0 -1.25 2.5 -1.45 3.1 -1.85 4.0 -1.45 4.15 -1.75 3.8 -4.15 4.55 -5.7 Q5.65 -7.6 4.55 -9.15 4.8 -10.65 5.7 -11.75 L6.35 -12.4 6.75 -12.75 6.65 -13.35 6.35 -14.2 5.9 -15.4 4.2 -18.65 5.65 -18.55 6.35 -18.3 Q10.75 -17.2 14.45 -14.65 L14.8 -14.6 15.25 -14.7 M13.6 3.65 L13.55 3.8 13.55 3.65 13.6 3.65 M9.1 -6.1 Q7.9 -5.65 7.9 -5.4 L9.75 -4.15 Q11.65 -2.9 11.85 -2.9 12.5 -2.9 13.4 -4.2 14.2 -5.35 14.2 -5.9 L14.1 -6.5 14.35 -7.0 Q14.15 -7.3 13.95 -7.25 10.8 -7.85 8.1 -6.7 L9.1 -6.1 M-2.65 -6.95 L-2.45 -7.1 Q-1.6 -7.0 -1.55 -5.95 -1.55 -5.0 -1.9 -4.05 L-2.0 -3.3 -1.95 -3.15 Q-1.15 -2.75 -0.35 -3.5 -0.4 -4.35 -1.35 -4.9 L-0.65 -6.25 Q-1.25 -7.7 -2.85 -7.7 -3.45 -7.15 -3.05 -6.45 L-2.95 -6.4 -2.65 -6.95 M2.5 4.65 L1.85 5.5 1.3 6.5 1.3 6.65 1.45 6.7 2.65 5.55 3.15 4.95 3.25 4.7 3.65 4.5 4.15 3.95 4.95 3.35 6.3 2.2 5.0 2.7 4.0 3.15 3.7 3.0 2.9 3.6 Q2.5 4.2 2.5 4.65" fill="#ffcc99" fill-rule="evenodd" stroke="none"/>
      <path d="M-11.9 -3.0 L-12.0 -3.4 -12.65 -5.6 -13.45 -7.15 -13.45 -7.65 -13.3 -8.6 Q-12.75 -10.4 -13.1 -12.5 L-13.15 -12.75 Q-13.15 -16.65 -12.6 -18.2 -11.7 -21.0 -8.75 -21.15 -7.55 -21.2 -7.2 -21.8 L-6.55 -23.05 Q-5.85 -23.7 -4.15 -24.05 L-1.8 -24.25 -1.0 -24.7 Q0.3 -25.6 1.65 -24.4 L1.9 -24.2 2.65 -24.05 2.85 -23.95 3.1 -24.25 3.85 -24.75 5.05 -25.2 6.35 -25.5 7.3 -25.55 Q9.3 -25.55 10.95 -23.9 L11.9 -22.7 13.35 -21.35 Q15.25 -19.2 15.25 -17.7 L15.25 -17.05 15.45 -15.8 15.45 -15.15 15.25 -14.7 14.8 -14.6 14.45 -14.65 14.75 -14.65 14.9 -14.7 15.1 -14.9 15.1 -15.15 14.9 -15.5 14.7 -15.65 14.3 -15.9 Q14.5 -17.0 13.45 -17.55 10.45 -19.1 7.75 -21.05 L7.15 -20.9 7.05 -19.75 4.25 -19.15 5.65 -18.55 4.2 -18.65 5.9 -15.4 5.45 -15.55 5.25 -14.7 Q4.95 -13.3 3.85 -12.6 L3.2 -12.15 2.8 -12.4 2.25 -12.5 2.05 -13.75 1.65 -15.15 1.45 -15.0 Q-0.05 -12.85 -2.5 -12.15 L-2.25 -13.2 -1.8 -13.5 Q-1.0 -14.0 -0.8 -14.85 L-0.65 -15.65 -1.35 -15.35 Q-2.1 -14.65 -2.45 -13.75 L-2.85 -13.6 -3.45 -12.85 -4.6 -13.4 -4.3 -15.35 -5.0 -14.6 Q-6.0 -13.35 -6.5 -11.95 L-7.45 -11.45 Q-6.2 -13.95 -6.8 -16.55 -7.95 -12.55 -9.7 -8.85 L-9.9 -9.25 Q-10.75 -11.85 -8.6 -14.2 L-9.4 -14.1 Q-12.0 -10.35 -9.55 -6.75 L-9.95 -5.65 -10.45 -5.35 -11.05 -6.65 -11.55 -6.9 -11.45 -5.9 -11.2 -4.95 -11.9 -3.0 M-6.9 -20.9 L-6.85 -20.9 -6.9 -20.9" fill="#594737" fill-rule="evenodd" stroke="none"/>
      <path d="M-3.35 0.65 L-3.8 0.55 -4.4 1.05 -4.7 0.65 -10.3 1.35 -11.15 -0.25 Q-11.8 -1.5 -11.9 -3.0 L-11.2 -4.95 -11.45 -5.9 -11.55 -6.9 -11.05 -6.65 -10.45 -5.35 -9.95 -5.65 -9.55 -6.75 Q-12.0 -10.35 -9.4 -14.1 L-8.6 -14.2 Q-10.75 -11.85 -9.9 -9.25 L-9.7 -8.85 Q-7.95 -12.55 -6.8 -16.55 -6.2 -13.95 -7.45 -11.45 L-6.5 -11.95 Q-6.0 -13.35 -5.0 -14.6 L-4.3 -15.35 -4.6 -13.4 -3.45 -12.85 -2.85 -13.6 -2.45 -13.75 Q-2.1 -14.65 -1.35 -15.35 L-0.65 -15.65 -0.8 -14.85 Q-1.0 -14.0 -1.8 -13.5 L-2.25 -13.2 -2.5 -12.15 Q-0.05 -12.85 1.45 -15.0 L1.65 -15.15 2.05 -13.75 2.25 -12.5 2.8 -12.4 3.2 -12.15 3.85 -12.6 Q4.95 -13.3 5.25 -14.7 L5.45 -15.55 5.9 -15.4 6.35 -14.2 6.65 -13.35 6.75 -12.75 6.35 -12.4 5.7 -11.75 Q4.8 -10.65 4.55 -9.15 5.65 -7.6 4.55 -5.7 L3.8 -4.15 4.15 -1.75 4.0 -1.45 3.1 -1.85 2.5 -1.45 2.0 -1.25 1.5 -1.2 0.9 -1.35 1.0 -2.0 Q1.2 -6.4 -1.7 -9.15 L-2.35 -9.5 -3.95 -8.35 Q-5.0 -4.65 -2.25 -1.45 L-2.4 -0.6 -2.8 -0.4 -3.3 0.55 -3.35 0.65 M5.65 -18.55 L4.25 -19.15 7.05 -19.75 7.15 -20.9 7.75 -21.05 Q10.45 -19.1 13.45 -17.55 14.5 -17.0 14.3 -15.9 L14.7 -15.65 14.9 -15.5 15.1 -15.15 15.1 -14.9 14.9 -14.7 14.75 -14.65 14.45 -14.65 Q10.75 -17.2 6.35 -18.3 L5.65 -18.55 M9.1 -6.1 L8.1 -6.7 Q10.8 -7.85 13.95 -7.25 14.15 -7.3 14.35 -7.0 L14.1 -6.5 9.1 -6.1" fill="#4f3d31" fill-rule="evenodd" stroke="none"/>
      <path d="M16.5 1.7 L16.05 2.0 15.4 2.0 14.05 1.65 13.8 2.95 13.7 3.25 13.7 3.3 13.7 3.35 13.6 3.65 13.55 3.65 13.55 3.8 13.3 4.35 13.2 4.35 12.4 4.25 12.3 4.3 11.4 4.45 11.0 4.45 10.8 4.45 10.85 4.45 9.95 4.25 Q10.05 4.1 10.35 4.1 L11.55 4.0 11.65 3.9 Q12.25 3.55 13.35 3.45 L12.9 2.65 12.5 1.7 12.45 1.55 12.45 1.5 12.35 1.0 12.55 0.65 12.65 0.65 12.6 0.7 14.0 0.8 14.75 0.8 15.3 1.0 16.5 1.7 M14.1 -6.5 L14.2 -5.9 Q14.2 -5.35 13.4 -4.2 12.5 -2.9 11.85 -2.9 11.65 -2.9 9.75 -4.15 L7.9 -5.4 Q7.9 -5.65 9.1 -6.1 L14.1 -6.5 M12.75 -5.2 L12.9 -5.6 12.8 -5.8 12.45 -5.65 10.7 -5.15 10.85 -4.9 Q11.55 -5.05 11.75 -4.6 12.0 -4.15 12.2 -4.15 L12.35 -4.2 12.75 -5.2 M-2.65 -6.95 L-2.95 -6.4 -3.05 -6.45 Q-3.45 -7.15 -2.85 -7.7 -1.25 -7.7 -0.65 -6.25 L-1.35 -4.9 Q-0.4 -4.35 -0.35 -3.5 -1.15 -2.75 -1.95 -3.15 L-2.0 -3.3 -1.9 -4.05 Q-1.55 -5.0 -1.55 -5.95 -1.6 -7.0 -2.45 -7.1 L-2.65 -6.95" fill="#c79b68" fill-rule="evenodd" stroke="none"/>
      <path d="M12.85 5.65 L12.55 6.0 11.45 7.0 11.3 6.95 11.3 6.1 12.55 5.3 12.8 5.3 12.85 5.55 12.85 5.65 M12.55 0.65 L12.35 1.0 12.3 1.25 Q12.3 1.65 11.7 2.2 L10.75 3.0 11.7 0.85 12.4 0.0 13.3 -0.7 12.75 0.3 12.55 0.65 M2.5 4.65 Q2.5 4.2 2.9 3.6 L3.7 3.0 4.0 3.15 5.0 2.7 6.3 2.2 4.95 3.35 4.15 3.95 3.65 4.5 3.25 4.7 3.15 4.95 2.65 5.55 1.45 6.7 1.3 6.65 1.3 6.5 1.85 5.5 2.5 4.65" fill="#ebbb98" fill-rule="evenodd" stroke="none"/>
      <path d="M12.75 -5.2 L12.35 -4.2 12.2 -4.15 Q12.0 -4.15 11.75 -4.6 11.55 -5.05 10.85 -4.9 L10.7 -5.15 12.45 -5.65 12.8 -5.8 12.9 -5.6 12.75 -5.2" fill="#000000" fill-rule="evenodd" stroke="none"/>
    </g>
  </defs>
</svg>
