<?xml version="1.0" encoding="UTF-8" standalone="no"?>
<svg xmlns:ffdec="https://www.free-decompiler.com/flash" xmlns:xlink="http://www.w3.org/1999/xlink" ffdec:objectType="frame" height="59.45px" width="43.3px" xmlns="http://www.w3.org/2000/svg">
  <g transform="matrix(1.0, 0.0, 0.0, 1.0, 26.0, 38.55)">
    <use ffdec:characterId="1221" height="13.65" transform="matrix(1.0, 0.0, 0.0, 1.0, -10.0, 1.35)" width="11.55" xlink:href="#shape0"/>
    <use ffdec:characterId="1220" height="25.05" transform="matrix(1.0, 0.0, 0.0, 1.0, -11.35, -12.9)" width="22.6" xlink:href="#sprite0"/>
    <use ffdec:characterId="1222" height="12.95" transform="matrix(1.0, 0.0, 0.0, 1.0, -10.4, -0.55)" width="14.4" xlink:href="#shape2"/>
  </g>
  <defs>
    <g id="shape0" transform="matrix(1.0, 0.0, 0.0, 1.0, 10.0, -1.35)">
      <path d="M-1.15 14.15 L-1.15 14.0 -1.3 13.65 -1.65 13.0 -1.85 12.75 -3.25 12.55 Q-5.4 9.15 -9.45 8.65 L-9.65 9.35 -9.8 9.45 -9.35 8.2 Q-7.85 4.75 -5.95 1.35 0.9 1.8 1.5 8.05 1.8 11.85 -1.15 14.15" fill="#c79b68" fill-rule="evenodd" stroke="none"/>
      <path d="M-9.8 9.45 L-9.65 9.35 -9.45 8.65 Q-5.4 9.15 -3.25 12.55 L-1.85 12.75 -1.65 13.0 -1.3 13.65 -1.15 14.0 -1.15 14.15 -1.2 14.55 -3.3 14.6 -4.55 13.4 -5.05 13.05 -4.5 12.8 -4.2 12.45 Q-4.2 11.55 -5.25 11.35 -6.15 11.25 -6.3 11.85 L-6.35 12.15 -6.0 12.6 -7.45 11.9 -9.5 11.45 -9.5 11.3 Q-10.05 11.15 -10.0 10.0 L-10.0 9.95 -9.8 9.45" fill="#990000" fill-rule="evenodd" stroke="none"/>
      <path d="M-6.0 12.6 L-6.35 12.15 -6.3 11.85 Q-6.15 11.25 -5.25 11.35 -4.2 11.55 -4.2 12.45 L-4.5 12.8 -5.05 13.05 -5.3 13.15 -6.0 12.6" fill="#650101" fill-rule="evenodd" stroke="none"/>
    </g>
    <g id="sprite0" transform="matrix(1.0, 0.0, 0.0, 1.0, 11.9, 13.85)">
      <use ffdec:characterId="1219" height="25.05" transform="matrix(1.0, 0.0, 0.0, 1.0, -11.9, -13.85)" width="22.6" xlink:href="#shape1"/>
    </g>
    <g id="shape1" transform="matrix(1.0, 0.0, 0.0, 1.0, 11.9, 13.85)">
      <path d="M9.65 -9.5 L8.95 -9.5 6.3 -9.2 Q5.15 -9.15 4.0 -9.85 L1.8 -11.1 0.65 -11.1 Q0.65 -10.1 0.3 -9.7 L-0.35 -10.35 Q-2.15 -8.45 -2.6 -7.45 L-2.7 -7.6 -2.85 -10.35 -4.6 -8.6 Q-5.75 -7.35 -6.35 -5.95 L-6.35 -7.95 Q-8.4 -5.8 -8.2 -3.6 L-8.35 -4.85 -7.85 -7.25 -7.35 -9.2 Q-8.65 -8.55 -9.4 -5.6 -10.1 -2.65 -9.6 -0.1 -10.35 -0.5 -10.35 -2.7 L-10.7 0.3 -11.55 -1.3 -11.8 -1.9 -11.9 -4.7 Q-11.95 -9.15 -8.75 -11.45 -5.55 -13.75 -0.95 -13.85 3.65 -13.9 6.4 -12.2 8.75 -10.75 9.65 -9.5 M3.65 -0.9 L3.4 -0.85 3.1 -0.9 3.0 -1.15 Q3.0 -1.7 5.6 -2.75 L8.15 -2.7 Q8.15 -2.1 7.55 -2.0 L7.4 -1.95 5.6 -1.75 3.65 -0.9" fill="#f5de71" fill-rule="evenodd" stroke="none"/>
      <path d="M-11.8 -1.9 L-11.55 -1.3 -10.7 0.3 -10.35 -2.7 Q-10.35 -0.5 -9.6 -0.1 -10.1 -2.65 -9.4 -5.6 -8.65 -8.55 -7.35 -9.2 L-7.85 -7.25 -8.35 -4.85 -8.2 -3.6 Q-8.4 -5.8 -6.35 -7.95 L-6.35 -5.95 Q-5.75 -7.35 -4.6 -8.6 L-2.85 -10.35 -2.7 -7.6 -2.6 -7.45 Q-2.15 -8.45 -0.35 -10.35 L0.3 -9.7 Q0.65 -10.1 0.65 -11.1 L1.8 -11.1 4.0 -9.85 Q5.15 -9.15 6.3 -9.2 L8.95 -9.5 9.65 -9.5 9.9 -9.05 9.8 -8.85 9.55 -8.4 8.95 -8.5 3.3 -8.5 1.2 -8.35 0.65 -6.15 0.3 -4.1 -0.05 -2.3 -0.4 -0.1 Q-0.6 1.85 -1.45 2.4 L-1.6 2.45 -2.3 2.35 -2.4 2.05 -2.1 -0.1 Q-2.1 -2.05 -3.6 -3.4 L-3.65 -3.4 -4.0 -3.25 Q-5.55 -3.25 -6.0 -1.9 L-6.2 -1.25 -6.15 -1.05 -6.2 -0.6 -6.0 0.55 Q-5.8 1.7 -5.35 2.15 -5.25 2.9 -5.85 4.05 L-5.9 6.15 -6.15 7.25 -6.45 7.35 Q-7.2 7.55 -7.5 7.8 -7.85 6.85 -8.85 6.35 -9.85 5.8 -10.45 4.1 L-11.2 2.15 -11.2 2.1 Q-11.65 0.5 -11.8 -1.9" fill="#d7ba62" fill-rule="evenodd" stroke="none"/>
      <path d="M-6.45 7.35 L-6.15 7.25 -5.9 6.15 -5.85 4.05 Q-5.25 2.9 -5.35 2.15 -5.8 1.7 -6.0 0.55 L-6.2 -0.6 -6.15 -1.05 -6.2 -1.25 -6.0 -1.9 Q-5.55 -3.25 -4.0 -3.25 L-3.65 -3.4 -3.6 -3.4 Q-2.1 -2.05 -2.1 -0.1 L-2.4 2.05 -2.3 2.35 -1.6 2.45 -1.45 2.4 Q-0.6 1.85 -0.4 -0.1 L-0.05 -2.3 0.3 -4.1 0.65 -6.15 1.2 -8.35 3.3 -8.5 8.95 -8.5 9.55 -8.4 9.8 -8.85 10.1 -8.4 Q10.65 -7.3 10.7 -6.1 10.8 -3.2 9.8 -1.85 8.8 -0.55 8.8 0.25 8.8 0.7 9.7 1.85 L10.55 3.45 10.15 4.35 9.4 4.5 Q8.85 4.65 8.85 5.4 L8.8 6.45 Q8.2 7.35 8.05 8.35 L7.95 9.2 Q7.95 9.9 6.85 10.5 5.5 11.2 3.3 11.2 L1.0 11.1 -1.3 10.25 Q-2.85 9.65 -3.2 9.15 L-6.45 7.35 M7.4 -1.95 L7.55 -2.0 Q8.15 -2.1 8.15 -2.7 L5.6 -2.75 Q3.0 -1.7 3.0 -1.15 L3.1 -0.9 3.4 -0.85 3.65 -0.9 3.6 -0.55 Q3.6 0.85 5.65 0.85 7.1 0.85 7.7 0.1 8.05 -0.35 8.05 -0.9 8.05 -1.7 7.4 -1.95 M-4.0 1.25 L-3.6 1.4 Q-3.15 1.4 -3.15 1.0 L-3.4 0.6 -4.15 0.55 -4.15 1.05 -4.0 1.25 M-4.8 -1.0 L-4.7 -1.35 -3.8 -1.35 -3.75 -1.05 -4.15 -0.6 Q-4.55 -0.35 -4.55 0.05 L-4.5 0.3 Q-4.4 0.5 -4.1 0.5 -3.6 0.5 -3.0 -0.95 -3.0 -1.85 -3.45 -2.2 L-4.75 -2.05 -5.2 -1.5 -4.95 -0.95 -4.8 -1.0" fill="#ffcc99" fill-rule="evenodd" stroke="none"/>
      <path d="M7.4 -1.95 Q8.05 -1.7 8.05 -0.9 8.05 -0.35 7.7 0.1 7.1 0.85 5.65 0.85 3.6 0.85 3.6 -0.55 L3.65 -0.9 5.6 -1.75 7.4 -1.95 M6.7 -1.1 L5.45 -1.0 Q4.9 -0.5 4.9 -0.1 L5.3 0.1 5.65 0.2 6.05 0.15 6.15 -0.6 6.1 -0.75 6.05 -0.75 6.7 -1.1 M-4.8 -1.0 L-4.95 -0.95 -5.2 -1.5 -4.75 -2.05 -3.45 -2.2 Q-3.0 -1.85 -3.0 -0.95 -3.6 0.5 -4.1 0.5 -4.4 0.5 -4.5 0.3 L-4.55 0.05 Q-4.55 -0.35 -4.15 -0.6 L-3.75 -1.05 -3.8 -1.35 -4.7 -1.35 -4.8 -1.0 M-4.0 1.25 L-4.15 1.05 -4.15 0.55 -3.4 0.6 -3.15 1.0 Q-3.15 1.4 -3.6 1.4 L-4.0 1.25" fill="#c79b68" fill-rule="evenodd" stroke="none"/>
      <path d="M6.7 -1.1 L6.05 -0.75 6.1 -0.75 6.15 -0.6 6.05 0.15 5.65 0.2 5.3 0.1 4.9 -0.1 Q4.9 -0.5 5.45 -1.0 L6.7 -1.1" fill="#000000" fill-rule="evenodd" stroke="none"/>
    </g>
    <g id="shape2" transform="matrix(1.0, 0.0, 0.0, 1.0, 10.4, 0.55)">
      <path d="M-3.35 5.85 L-3.3 6.25 -3.5 7.35 -4.25 7.95 -4.15 8.0 -2.75 8.55 -0.8 10.35 0.6 11.4 1.5 11.1 1.95 10.8 2.15 11.45 2.1 12.1 Q2.1 12.4 1.5 12.4 -1.8 10.5 -2.5 10.5 -3.25 10.5 -3.8 10.85 L-4.1 11.05 -4.05 10.25 Q-4.05 9.1 -5.25 9.45 L-5.3 9.45 -4.75 8.9 Q-5.6 8.6 -5.75 7.75 -6.3 7.35 -6.4 6.35 L-6.15 5.5 -7.6 5.35 -9.35 5.15 Q-10.55 5.15 -10.4 3.35 L-10.35 2.6 Q-10.15 3.25 -9.45 3.45 L-6.75 4.1 Q-6.45 4.2 -6.15 5.5 L-6.15 5.6 Q-5.85 6.75 -4.6 6.75 -3.55 6.75 -3.35 5.85 M-2.0 8.75 L-1.75 8.75 -1.45 8.95 -1.5 8.55 Q-1.5 7.95 -0.75 7.0 L0.2 6.1 0.1 6.4 0.2 7.35 0.5 7.75 Q0.0 7.9 -0.1 8.4 -0.25 9.1 -0.8 9.1 L-1.95 8.75 -2.0 8.75 M3.5 7.55 L4.0 8.0 Q4.0 8.5 3.25 9.0 L1.35 8.9 1.25 9.3 1.15 9.05 1.3 8.15 2.35 8.25 3.25 8.1 3.5 7.55 M1.2 0.65 L1.25 1.0 Q1.25 3.1 -1.25 4.0 L-1.75 2.8 -1.5 1.85 -1.25 0.95 Q-1.25 0.05 -0.45 -0.05 -1.15 0.4 -1.15 1.05 L-0.95 1.95 -0.8 2.85 Q0.05 2.95 0.7 1.85 L1.2 0.65" fill="#990000" fill-rule="evenodd" stroke="none"/>
      <path d="M-10.35 2.6 L-10.4 2.05 Q-10.4 1.2 -9.45 1.15 -8.35 1.05 -6.4 2.0 -5.8 2.45 -5.65 3.25 L-5.6 3.5 Q-5.35 3.95 -5.25 4.5 L-4.35 4.25 Q-3.3 4.7 -3.3 5.3 L-3.35 5.85 Q-3.55 6.75 -4.6 6.75 -5.85 6.75 -6.15 5.6 L-6.15 5.5 Q-6.45 4.2 -6.75 4.1 L-9.45 3.45 Q-10.15 3.25 -10.35 2.6 M-2.75 8.55 L-2.8 8.5 -2.75 8.35 -2.0 8.75 -1.95 8.75 -0.8 9.1 Q-0.25 9.1 -0.1 8.4 0.0 7.9 0.5 7.75 L0.2 7.35 0.1 6.4 0.2 6.1 1.8 5.95 Q3.5 6.4 3.5 7.3 L3.5 7.55 3.25 8.1 2.35 8.25 1.3 8.15 1.15 9.05 1.25 9.3 2.1 10.5 1.95 10.8 1.5 11.1 0.6 11.4 -0.8 10.35 -2.75 8.55 M-4.1 11.05 L-4.15 11.75 -4.25 11.9 -4.75 12.0 -7.4 9.9 -7.15 9.9 -6.5 10.0 Q-5.9 9.6 -5.3 9.45 L-5.25 9.45 Q-4.05 9.1 -4.05 10.25 L-4.1 11.05 M-0.45 -0.05 L0.05 -0.35 Q1.25 -0.95 1.25 0.3 L1.2 0.65 0.7 1.85 Q0.05 2.95 -0.8 2.85 L-0.95 1.95 -1.15 1.05 Q-1.15 0.4 -0.45 -0.05" fill="#ff0000" fill-rule="evenodd" stroke="none"/>
    </g>
  </defs>
</svg>
