<?xml version="1.0" encoding="UTF-8" standalone="no"?>
<svg xmlns:ffdec="https://www.free-decompiler.com/flash" xmlns:xlink="http://www.w3.org/1999/xlink" ffdec:objectType="frame" height="10.75px" width="15.65px" xmlns="http://www.w3.org/2000/svg">
  <g transform="matrix(1.0, 0.0, 0.0, 1.0, 8.1, 5.5)">
    <use ffdec:characterId="862" height="10.75" transform="matrix(1.0, 0.0, 0.0, 1.0, -6.0, -5.5)" width="13.55" xlink:href="#shape0"/>
  </g>
  <defs>
    <g id="shape0" transform="matrix(1.0, 0.0, 0.0, 1.0, 6.0, 5.5)">
      <path d="M-5.85 4.3 L-5.2 1.35 -4.95 1.05 -4.6 0.85 -4.7 0.75 -4.6 0.65 -4.65 0.45 -4.65 0.35 -5.55 -2.25 Q-5.05 -1.7 -5.25 -2.6 L-5.55 -3.8 -5.65 -4.2 -4.0 -2.6 -4.1 -2.3 -4.15 -1.95 Q-4.2 -1.4 -3.95 -1.25 L-3.5 -1.25 -3.15 -1.85 -2.75 -1.45 -2.45 -0.1 -2.15 -1.05 -1.25 -1.0 -1.3 -0.25 -0.9 -0.65 -0.45 -1.15 0.7 -1.45 0.65 -0.55 Q1.0 -0.05 1.1 -1.0 L1.2 -1.55 2.3 -1.75 2.35 -0.65 3.2 -0.2 3.3 0.0 Q3.55 1.0 2.65 1.0 L2.3 1.8 1.75 1.15 0.8 0.4 0.4 0.45 Q0.05 0.45 0.05 1.1 L0.05 1.2 -1.65 0.8 -2.4 1.5 -2.3 0.65 -3.05 1.5 -2.85 1.95 -3.45 2.5 Q-3.95 1.65 -4.5 1.45 L-4.75 1.65 -4.7 3.0 -4.55 3.4 -5.85 4.3 M-5.95 -4.2 L-6.0 -4.3 -5.95 -4.5 -5.7 -4.25 -5.95 -4.2" fill="#768dad" fill-rule="evenodd" stroke="none"/>
      <path d="M5.55 1.0 L5.25 2.2 Q4.9 1.0 5.2 -0.25 4.75 -0.55 5.05 -1.5 L5.2 -2.1 Q5.5 -1.55 5.2 -0.65 L5.2 -0.25 5.35 -0.1 5.45 0.85 5.55 1.0 M-0.5 -3.3 L-0.4 -3.45 1.0 -3.5 1.0 -3.1 0.8 -2.15 Q0.75 -2.75 0.3 -2.85 -0.1 -2.9 -0.45 -3.3 L-0.5 -3.3 M3.2 -0.2 L3.0 -1.3 3.1 -1.6 3.4 -2.0 4.0 -2.35 4.1 -3.2 4.8 -2.55 4.7 -2.35 4.4 -2.3 Q3.6 -2.0 4.5 -1.55 L4.4 -0.9 4.25 -0.2 4.15 0.55 4.4 1.5 4.8 2.55 4.45 2.55 4.15 3.0 4.0 3.4 3.9 3.5 3.7 3.3 3.6 3.2 3.45 3.15 3.15 3.2 2.9 3.1 2.7 3.15 2.05 3.05 1.8 3.05 1.1 3.15 1.05 3.1 0.85 2.8 0.85 2.6 0.85 2.3 0.75 1.75 0.8 1.7 0.95 1.5 1.05 1.5 1.55 2.1 1.85 2.45 3.45 2.15 3.75 2.0 3.55 1.6 3.8 0.8 3.3 0.0 3.2 -0.2 M-4.1 -2.3 L-4.0 -2.6 -3.65 -2.65 Q-3.15 -2.45 -3.15 -1.95 L-3.65 -2.2 -4.1 -2.3" fill="#ffa4a4" fill-rule="evenodd" stroke="none"/>
      <path d="M3.7 -4.2 L5.0 -2.9 4.8 -2.55 4.1 -3.2 4.0 -2.35 3.4 -2.0 3.1 -1.6 3.0 -1.3 3.2 -0.2 2.35 -0.65 2.3 -1.75 2.45 -2.25 3.55 -2.65 3.7 -4.2 M5.3 -2.45 L5.55 -1.7 5.7 -0.9 5.5 -0.55 5.35 -0.1 5.2 -0.25 5.2 -0.65 Q5.5 -1.55 5.2 -2.1 L5.3 -2.45 M4.9 3.25 Q4.9 3.65 4.5 3.85 L3.65 4.15 3.55 3.8 3.45 3.8 3.2 3.7 3.2 3.8 3.1 3.95 3.0 4.2 2.7 4.6 2.35 4.5 2.15 4.35 1.95 4.3 1.9 4.25 1.7 4.2 1.3 4.45 0.8 4.15 0.0 4.15 -0.55 3.85 -0.85 3.4 -0.85 3.3 -1.05 2.8 -0.95 2.65 -0.9 2.6 Q-1.0 2.0 -0.5 2.1 L-0.25 1.45 -0.15 1.4 Q0.35 1.75 0.05 1.1 0.05 0.45 0.4 0.45 L0.8 0.4 1.75 1.15 2.3 1.8 2.65 1.0 Q3.55 1.0 3.3 0.0 L3.8 0.8 3.55 1.6 3.75 2.0 3.45 2.15 1.85 2.45 1.55 2.1 1.05 1.5 0.95 1.5 0.8 1.7 0.75 1.75 0.85 2.3 0.85 2.6 0.85 2.8 1.05 3.1 1.1 3.15 1.8 3.05 2.05 3.05 2.7 3.15 2.9 3.1 3.15 3.2 3.45 3.15 3.6 3.2 3.7 3.3 3.9 3.5 4.0 3.4 4.15 3.0 4.45 2.55 4.8 2.55 4.9 3.1 4.9 3.25 M-0.65 -2.7 L-0.7 -2.9 -0.5 -3.3 -0.45 -3.3 Q-0.1 -2.9 0.3 -2.85 0.75 -2.75 0.8 -2.15 L0.65 -1.85 Q0.3 -1.45 -0.2 -1.85 L-0.65 -2.7 M-3.15 -1.85 L-3.5 -1.25 -3.95 -1.25 Q-4.2 -1.4 -4.15 -1.95 L-4.1 -2.3 -3.65 -2.2 -3.15 -1.95 -3.15 -1.85 M4.5 -1.55 Q3.6 -2.0 4.4 -2.3 L4.7 -2.35 4.5 -1.55" fill="#ff5555" fill-rule="evenodd" stroke="none"/>
      <path d="M5.0 -2.9 L5.25 -3.3 5.45 -3.4 5.3 -2.45 5.2 -2.1 5.05 -1.5 Q4.75 -0.55 5.2 -0.25 4.9 1.0 5.25 2.2 4.45 0.65 4.45 0.0 L4.4 -0.9 4.5 -1.55 4.7 -2.35 4.8 -2.55 5.0 -2.9 M5.7 -0.9 L5.85 -1.6 6.45 -2.3 6.1 -0.75 6.3 -0.5 6.45 -0.1 6.5 -0.1 6.6 -0.05 6.5 0.35 6.5 0.4 6.65 0.85 6.5 0.85 6.4 0.8 6.25 0.95 5.5 -0.55 5.7 -0.9 M6.75 -0.2 L6.85 -0.7 Q6.8 -2.05 7.35 -1.55 L7.3 -0.6 7.55 0.55 6.75 -0.2 M5.0 3.6 L4.9 3.25 4.9 3.1 5.0 3.6" fill="#ffffff" fill-rule="evenodd" stroke="none"/>
      <path d="M6.6 -0.05 L6.75 -0.2 7.55 0.55 7.4 0.9 Q7.75 2.1 7.1 2.25 L6.85 0.85 6.65 0.85 6.5 0.4 6.5 0.35 6.6 -0.05 M6.25 0.95 Q5.95 1.15 6.2 2.05 L6.15 2.5 6.05 2.35 Q5.65 1.7 5.55 1.0 L5.45 0.85 5.35 -0.1 5.5 -0.55 6.25 0.95 M5.25 2.2 Q5.15 3.35 5.55 4.3 L5.25 4.1 5.0 3.6 4.9 3.1 4.8 2.55 4.4 1.5 4.15 0.55 4.25 -0.2 4.4 -0.9 4.45 0.0 Q4.45 0.65 5.25 2.2" fill="#cccccc" fill-rule="evenodd" stroke="none"/>
      <path d="M3.65 4.15 L3.1 3.95 3.2 3.8 3.2 3.7 3.45 3.8 3.55 3.8 3.65 4.15 M-1.05 2.8 L-1.45 2.7 -4.25 4.6 -5.55 5.05 -6.0 5.25 -5.85 4.3 -4.55 3.4 -4.7 3.0 -4.75 1.65 -4.5 1.45 Q-3.95 1.65 -3.45 2.5 L-2.85 1.95 -3.05 1.5 -2.3 0.65 -2.4 1.5 -1.65 0.8 0.05 1.2 0.05 1.1 Q0.35 1.75 -0.15 1.4 L-0.25 1.45 -0.5 2.1 Q-1.0 2.0 -0.9 2.6 L-0.95 2.65 -1.05 2.8" fill="#a6b5ca" fill-rule="evenodd" stroke="none"/>
      <path d="M1.0 -3.5 L1.55 -3.8 Q2.4 -4.3 3.25 -4.05 L3.7 -4.2 3.55 -2.65 2.45 -2.25 2.3 -1.75 1.2 -1.55 1.55 -2.25 Q0.95 -2.75 0.7 -1.45 L-0.45 -1.15 Q-0.15 -1.65 -0.55 -1.7 L-1.0 -1.5 -1.25 -1.0 -2.15 -1.05 -2.1 -2.1 -0.65 -2.7 -0.2 -1.85 Q0.3 -1.45 0.65 -1.85 L0.8 -2.15 1.0 -3.1 1.0 -3.5 M-5.95 -4.5 L-5.95 -4.8 -5.95 -5.5 -5.1 -5.1 -4.85 -5.0 -4.35 -4.5 -4.1 -4.2 -2.4 -2.2 -2.75 -1.45 -3.15 -1.85 -3.15 -1.95 Q-3.15 -2.45 -3.65 -2.65 L-4.0 -2.6 -5.65 -4.2 -5.7 -4.25 -5.95 -4.5" fill="#6882a4" fill-rule="evenodd" stroke="none"/>
      <path d="M-5.55 -2.25 L-5.6 -2.65 Q-5.5 -3.45 -5.9 -4.0 L-5.95 -4.2 -5.7 -4.25 -5.65 -4.2 -5.55 -3.8 -5.25 -2.6 Q-5.05 -1.7 -5.55 -2.25 M-2.4 -2.2 L-2.35 -2.3 -2.1 -2.1 -2.15 -1.05 -2.45 -0.1 -2.75 -1.45 -2.4 -2.2 M1.2 -1.55 L1.1 -1.0 Q1.0 -0.05 0.65 -0.55 L0.7 -1.45 Q0.95 -2.75 1.55 -2.25 L1.2 -1.55 M-0.45 -1.15 L-0.9 -0.65 -1.3 -0.25 -1.25 -1.0 -1.0 -1.5 -0.55 -1.7 Q-0.15 -1.65 -0.45 -1.15" fill="#5a7496" fill-rule="evenodd" stroke="none"/>
    </g>
  </defs>
</svg>
