<?xml version="1.0" encoding="UTF-8" standalone="no"?>
<svg xmlns:ffdec="https://www.free-decompiler.com/flash" xmlns:xlink="http://www.w3.org/1999/xlink" ffdec:objectType="frame" height="32.6px" width="30.55px" xmlns="http://www.w3.org/2000/svg">
  <g transform="matrix(1.0, 0.0, 0.0, 1.0, 15.0, 15.9)">
    <use ffdec:characterId="1819" height="32.6" transform="matrix(1.0, 0.0, 0.0, 1.0, -15.0, -15.9)" width="30.55" xlink:href="#shape0"/>
  </g>
  <defs>
    <g id="shape0" transform="matrix(1.0, 0.0, 0.0, 1.0, 15.0, 15.9)">
      <path d="M-3.65 -15.5 L-3.65 -14.75 0.2 -12.55 0.95 -13.2 1.2 -13.2 0.95 -12.0 0.3 -11.55 -1.85 -11.0 -2.8 -9.95 -3.95 -9.75 Q-7.2 -10.35 -9.05 -13.1 L-9.55 -12.55 -11.5 -10.75 -12.1 -11.1 Q-10.2 -11.9 -9.7 -13.7 L-9.65 -14.25 -8.15 -15.0 -8.15 -13.8 -7.5 -13.9 Q-4.9 -13.05 -3.6 -11.0 L-2.7 -11.05 -2.3 -12.05 -3.05 -12.45 -3.1 -13.2 -5.0 -14.5 Q-5.0 -14.9 -4.6 -15.2 L-3.65 -15.5 M8.0 -10.05 L7.9 -9.25 8.2 -8.55 9.7 -8.85 Q9.1 -6.85 10.3 -5.4 L10.8 -5.4 Q11.15 -5.3 10.7 -5.05 L9.4 -5.45 8.45 -5.7 8.45 -5.75 8.4 -5.75 7.65 -5.8 3.4 -9.25 3.35 -9.35 2.25 -10.65 2.65 -11.65 4.15 -11.25 3.7 -10.7 Q4.65 -9.2 6.5 -8.65 L6.6 -9.65 6.2 -10.15 8.0 -10.05 M12.95 -4.05 L13.05 -4.5 12.85 -5.05 13.45 -5.1 14.85 -3.85 15.15 -3.4 14.65 -3.05 Q14.05 -3.35 13.6 -3.7 L12.95 -4.05 M-9.35 -3.95 L-8.45 -4.5 -8.15 -4.5 -7.75 -4.15 -7.7 -4.2 -4.7 -4.55 Q-4.0 -6.75 -3.25 -6.8 -2.15 -6.85 -2.0 -4.7 L-0.95 -5.1 0.55 -5.5 Q1.2 -5.55 2.05 -6.6 L2.45 -7.15 2.9 -7.8 4.95 -5.9 4.75 -3.0 2.95 -4.55 2.35 -4.6 1.15 -3.55 1.2 -3.3 -1.15 -4.2 -3.75 -1.8 -3.8 -1.75 -4.1 -0.8 -3.45 0.1 -1.35 -1.5 -0.8 -1.15 -0.65 -0.7 -0.9 0.15 Q-0.05 0.0 0.55 -0.55 1.05 -1.05 1.35 -1.85 L1.65 -3.0 3.7 -1.2 Q4.1 -2.2 3.45 -3.25 L6.5 -1.3 6.65 -1.3 6.75 -1.2 8.6 0.75 8.9 0.15 9.0 -0.8 8.85 -2.0 8.9 -3.25 11.45 -1.85 11.7 -2.1 11.7 -2.25 13.85 -1.7 13.8 -1.65 Q13.9 -1.25 14.15 -1.1 L14.85 -0.1 13.15 -1.4 12.7 -1.25 11.5 1.2 13.15 1.45 14.0 3.75 13.3 4.35 12.65 4.25 9.25 6.65 8.55 6.6 8.25 7.05 7.35 8.2 7.4 8.45 7.1 8.4 6.6 8.65 5.9 8.4 4.85 9.5 Q4.0 9.2 3.55 9.7 L3.85 8.25 3.15 7.7 1.25 8.2 1.05 10.15 3.4 9.95 Q3.25 10.15 3.25 10.5 L3.2 10.5 3.4 11.15 3.2 11.25 2.9 11.1 2.85 11.2 1.75 11.65 Q0.75 11.45 -0.5 12.2 -0.6 12.7 0.05 13.15 L-0.05 13.45 -1.45 12.8 -1.65 12.3 -5.2 12.2 -5.3 9.95 -3.0 9.5 Q-2.1 9.0 -2.1 8.35 L-1.95 6.2 -1.35 6.15 -1.0 6.85 1.4 6.6 1.5 6.1 2.6 5.6 3.05 5.25 3.4 4.75 4.3 4.45 5.1 4.9 5.05 5.2 4.25 5.75 4.6 6.75 5.85 6.75 6.05 6.3 Q6.45 5.45 6.85 5.25 L6.75 5.1 6.35 4.4 6.4 4.4 6.3 3.8 6.3 3.55 6.05 2.8 5.2 3.45 Q4.35 3.25 3.6 3.75 L2.6 4.25 1.7 4.7 1.1 4.95 -2.5 4.45 -4.55 6.25 -5.7 6.3 -6.25 4.9 -5.1 4.1 -4.35 3.7 -4.2 2.35 -5.0 0.8 -5.6 0.6 -7.0 0.8 -7.55 1.05 -7.65 0.5 -7.8 0.45 -8.25 0.9 -8.25 0.85 -8.35 0.95 -8.55 1.05 -8.7 1.1 Q-9.15 0.9 -9.7 -0.1 L-10.6 -1.6 -10.55 -1.8 Q-9.95 -3.3 -9.35 -3.95 M4.45 -0.3 L4.3 -0.5 4.4 1.15 5.0 1.25 5.3 1.15 5.85 2.3 6.35 1.3 7.55 1.85 Q7.75 1.4 8.75 0.85 L5.0 0.05 4.45 -0.3 M3.05 2.35 L3.05 2.3 2.85 1.3 0.1 2.95 0.6 3.75 1.05 3.7 3.05 2.35 M4.95 8.05 L5.05 8.05 5.05 8.0 4.95 8.05 M-11.7 -8.8 L-10.6 -9.5 -10.1 -8.4 -6.55 -8.6 -5.85 -7.95 -6.8 -7.15 -7.3 -7.05 -7.95 -7.15 -8.8 -7.15 -9.35 -6.9 -9.3 -4.9 -9.8 -4.6 -10.35 -4.5 Q-11.75 -4.4 -12.35 -5.8 L-12.2 -6.7 -12.0 -6.0 -10.45 -6.45 -10.35 -7.15 -10.9 -7.6 -10.9 -8.3 -10.9 -8.35 -10.95 -8.4 -11.7 -8.8 M-8.75 -2.5 L-8.0 -0.95 -7.35 -0.3 -7.0 -0.4 -6.7 -0.55 -6.2 -0.85 -5.8 -1.2 -5.45 -1.75 -5.4 -2.0 -5.35 -2.75 Q-5.5 -3.4 -6.0 -3.95 L-6.6 -4.15 -7.7 -4.0 -8.25 -3.75 -8.55 -3.6 -8.55 -3.5 -8.9 -2.8 -8.75 -2.5 -8.85 -2.45 -8.75 -2.45 -8.75 -2.5 M-8.7 3.05 L-8.85 3.5 -9.15 3.6 Q-9.75 3.25 -9.85 2.6 L-9.85 2.45 -9.65 2.95 -9.3 3.2 -8.7 3.05" fill="#990000" fill-rule="evenodd" stroke="none"/>
      <path d="M0.95 -13.2 L0.2 -12.55 -3.65 -14.75 -3.65 -15.5 -3.05 -15.9 0.2 -15.3 1.05 -14.0 0.95 -13.2 M-5.0 -14.5 L-3.1 -13.2 -3.05 -12.45 -2.3 -12.05 -2.7 -11.05 -3.6 -11.0 Q-4.9 -13.05 -7.5 -13.9 L-8.15 -13.8 -8.15 -15.0 -7.65 -15.15 Q-6.2 -15.3 -5.0 -14.5 M-9.65 -14.25 L-9.7 -13.7 Q-10.2 -11.9 -12.1 -11.1 L-11.5 -10.75 -9.7 -11.25 -9.45 -10.55 Q-6.9 -11.1 -5.3 -9.05 L-5.85 -7.95 -6.55 -8.6 -10.1 -8.4 -10.6 -9.5 -11.7 -8.8 -13.75 -9.65 -13.7 -11.95 -13.1 -12.05 -13.2 -13.05 -12.4 -14.0 Q-11.2 -15.2 -9.65 -14.25 M10.7 -5.05 Q11.15 -5.3 10.8 -5.4 L10.3 -5.4 Q9.1 -6.85 9.7 -8.85 L8.2 -8.55 7.9 -9.25 8.0 -10.05 Q11.45 -9.75 11.65 -6.4 L11.6 -5.65 12.85 -5.05 13.05 -4.5 12.95 -4.05 12.8 -3.7 12.35 -3.4 Q11.55 -3.35 11.2 -3.7 L10.7 -5.05 M6.2 -10.15 L6.6 -9.65 6.5 -8.65 Q4.65 -9.2 3.7 -10.7 L4.15 -11.25 5.6 -10.9 Q6.2 -10.6 6.2 -10.15 M-8.7 1.1 L-8.55 1.05 -8.35 0.95 -8.25 0.9 -7.8 0.45 -7.65 0.5 -7.55 1.05 -7.0 0.8 -5.6 0.6 -5.0 0.8 -4.2 2.35 -4.35 3.7 -5.1 4.1 -6.55 3.05 -7.1 3.35 -7.5 3.05 -7.2 2.25 -5.55 1.8 -7.75 2.05 Q-8.4 2.4 -8.7 3.05 L-9.3 3.2 -9.65 2.95 -9.85 2.45 Q-9.75 1.4 -8.8 1.1 L-8.7 1.1 M-4.55 6.25 L-2.5 4.45 1.1 4.95 1.7 4.7 2.6 4.25 3.6 3.75 Q4.35 3.25 5.2 3.45 L6.05 2.8 6.3 3.55 6.3 3.8 6.4 4.4 6.35 4.4 6.75 5.1 6.85 5.25 Q6.45 5.45 6.05 6.3 L5.85 6.75 4.6 6.75 4.25 5.75 5.05 5.2 5.1 4.9 4.3 4.45 3.4 4.75 3.05 5.25 2.6 5.6 1.5 6.1 1.4 6.6 -1.0 6.85 -1.35 6.15 -1.95 6.2 -2.1 8.35 Q-3.4 8.25 -4.6 7.35 L-5.25 6.85 -4.55 6.25 M-5.2 12.2 L-1.65 12.3 -1.45 12.8 -1.6 14.15 -2.75 14.35 -3.25 13.7 -3.85 13.55 -5.6 14.05 Q-6.15 13.9 -6.05 13.25 L-5.9 12.7 -5.2 12.2 M3.4 9.95 L1.05 10.15 1.25 8.2 3.15 7.7 3.85 8.25 3.55 9.7 3.4 9.95 M14.0 3.75 L13.15 1.45 11.5 1.2 12.7 -1.25 13.15 -1.4 14.85 -0.1 15.2 0.4 Q16.2 2.55 14.0 3.75 M11.7 -2.25 L11.7 -2.1 11.45 -1.85 8.9 -3.25 8.95 -3.7 9.05 -4.25 10.0 -3.7 10.4 -3.4 11.7 -2.25 M6.65 -1.3 L6.5 -1.3 3.45 -3.25 Q4.1 -2.2 3.7 -1.2 L1.65 -3.0 1.35 -1.85 Q1.05 -1.05 0.55 -0.55 -0.05 0.0 -0.9 0.15 L-0.65 -0.7 -0.8 -1.15 -1.35 -1.5 -3.45 0.1 -4.1 -0.8 -3.8 -1.75 -3.75 -1.8 -1.15 -4.2 1.2 -3.3 1.15 -3.55 2.35 -4.6 2.95 -4.55 4.75 -3.0 4.7 -2.85 5.4 -2.3 6.65 -1.3 M4.95 -5.9 L2.9 -7.8 3.4 -8.65 Q4.05 -8.65 4.5 -7.85 4.95 -7.05 4.95 -5.9 M4.45 -0.3 L5.0 0.05 8.75 0.85 Q7.75 1.4 7.55 1.85 L6.35 1.3 5.85 2.3 5.3 1.15 5.0 1.25 4.4 1.15 4.3 -0.5 4.45 -0.3 M3.05 2.35 L1.05 3.7 0.6 3.75 0.1 2.95 2.85 1.3 3.05 2.3 3.05 2.35 M-10.9 -7.6 L-10.35 -7.15 -10.45 -6.45 -12.0 -6.0 -12.2 -6.7 -12.0 -7.15 -10.9 -7.6 M-8.75 -2.5 L-8.9 -2.8 -8.55 -3.5 -8.55 -3.6 -8.25 -3.75 -7.7 -4.0 -6.6 -4.15 -6.0 -3.95 Q-5.5 -3.4 -5.35 -2.75 L-5.4 -2.0 -5.45 -1.75 -5.8 -1.2 -6.2 -0.85 -6.7 -0.55 -7.0 -0.4 -7.35 -0.3 -8.0 -0.95 -8.75 -2.5" fill="#ff0000" fill-rule="evenodd" stroke="none"/>
      <path d="M10.7 -5.05 L11.2 -3.7 Q11.55 -3.35 12.35 -3.4 L12.8 -3.7 12.95 -4.05 13.6 -3.7 Q14.05 -3.35 14.65 -3.05 L15.55 -2.4 15.45 -1.75 13.85 -1.7 11.7 -2.25 10.4 -3.4 10.0 -3.7 9.05 -4.25 9.4 -5.45 10.7 -5.05 M-5.1 4.1 L-6.25 4.9 -8.9 4.8 -8.9 3.7 -8.85 3.5 -8.7 3.05 Q-8.4 2.4 -7.75 2.05 L-5.55 1.8 -7.2 2.25 -7.5 3.05 -7.1 3.35 -6.55 3.05 -5.1 4.1 M-5.7 6.3 L-4.55 6.25 -5.25 6.85 -4.6 7.35 Q-3.4 8.25 -2.1 8.35 -2.1 9.0 -3.0 9.5 L-5.3 9.95 -6.1 10.0 -6.95 9.4 Q-7.6 7.25 -5.7 6.3 M-1.45 12.8 L-0.05 13.45 Q0.25 14.85 -0.65 16.0 L-1.15 16.65 Q-4.35 16.95 -5.6 14.05 L-3.85 13.55 -3.25 13.7 -2.75 14.35 -1.6 14.15 -1.45 12.8" fill="#ffffff" fill-rule="evenodd" stroke="none"/>
      <path d="M-11.5 -10.75 L-9.55 -12.55 -9.35 -11.6 -9.7 -11.25 -11.5 -10.75" fill="#727e94" fill-rule="evenodd" stroke="none"/>
      <path d="M-10.95 -8.4 L-10.9 -8.35 -10.9 -8.3 -10.95 -8.4" fill="#834753" fill-rule="evenodd" stroke="none"/>
      <path d="M-9.55 -12.55 L-9.05 -13.1 -9.35 -11.6 -9.55 -12.55" fill="#9299a9" fill-rule="evenodd" stroke="none"/>
      <path d="M0.3 -11.55 L0.95 -12.0 1.2 -13.2 2.0 -13.95 2.85 -13.9 2.65 -11.65 2.25 -10.65 3.35 -9.35 1.25 -7.8 0.3 -11.55 M-9.35 -3.95 Q-9.95 -3.3 -10.55 -1.8 L-10.6 -1.6 Q-11.95 1.7 -13.35 3.3 L-12.5 0.45 Q-12.25 -0.2 -12.35 -1.65 L-12.4 -2.55 Q-12.55 -3.4 -13.15 -3.35 -13.5 -3.3 -14.1 -2.75 L-15.0 -2.05 -15.0 -2.15 Q-14.15 -4.75 -14.15 -7.15 L-14.4 -9.25 -13.75 -9.65 -11.7 -8.8 -10.95 -8.4 -10.9 -8.3 -10.9 -7.6 -12.0 -7.15 -12.2 -6.7 -12.35 -5.8 Q-11.75 -4.4 -10.35 -4.5 L-9.8 -4.6 -9.35 -3.95 M4.95 8.05 L5.05 8.0 5.05 8.05 4.95 8.05 M-8.75 -2.5 L-8.75 -2.45 -8.85 -2.45 -8.75 -2.5" fill="#bbb4ae" fill-rule="evenodd" stroke="none"/>
      <path d="M-9.05 -13.1 Q-7.2 -10.35 -3.95 -9.75 L-2.8 -9.95 -1.85 -11.0 0.3 -11.55 1.25 -7.8 3.35 -9.35 3.4 -9.25 7.65 -5.8 8.4 -5.75 8.45 -5.7 9.4 -5.45 9.05 -4.25 8.95 -3.7 8.9 -3.25 8.85 -2.0 9.0 -0.8 8.9 0.15 8.6 0.75 6.75 -1.2 6.65 -1.3 5.4 -2.3 4.7 -2.85 4.75 -3.0 4.95 -5.9 Q4.95 -7.05 4.5 -7.85 4.05 -8.65 3.4 -8.65 L2.9 -7.8 2.45 -7.15 2.05 -6.6 Q1.2 -5.55 0.55 -5.5 L-0.95 -5.1 -2.0 -4.7 Q-2.15 -6.85 -3.25 -6.8 -4.0 -6.75 -4.7 -4.55 L-7.7 -4.2 -7.75 -4.15 -8.15 -4.5 -8.45 -4.5 -9.35 -3.95 -9.8 -4.6 -9.3 -4.9 -9.35 -6.9 -8.8 -7.15 -7.95 -7.15 -7.3 -7.05 -6.8 -7.15 -5.85 -7.95 -5.3 -9.05 Q-6.9 -11.1 -9.45 -10.55 L-9.7 -11.25 -9.35 -11.6 -9.05 -13.1" fill="#c67979" fill-rule="evenodd" stroke="none"/>
    </g>
  </defs>
</svg>
