<?xml version="1.0" encoding="UTF-8" standalone="no"?>
<svg xmlns:ffdec="https://www.free-decompiler.com/flash" xmlns:xlink="http://www.w3.org/1999/xlink" ffdec:objectType="frame" height="138.15px" width="60.3px" xmlns="http://www.w3.org/2000/svg">
  <g transform="matrix(1.0, 0.0, 0.0, 1.0, 30.6, 9.3)">
    <use ffdec:characterId="1660" ffdec:characterName="game_fla.upperleg2_624" height="90.25" id="upperLeg2" transform="matrix(1.0, 0.0, 0.0, 1.0, -30.6, -9.3)" width="60.3" xlink:href="#sprite0"/>
    <use ffdec:characterId="1666" height="72.65" id="lowerLegOuter2" transform="matrix(1.0, 0.0, 0.0, 1.0, -19.7991, 56.2002)" width="45.75" xlink:href="#sprite2"/>
  </g>
  <defs>
    <g id="sprite0" transform="matrix(1.0, 0.0, 0.0, 1.0, 30.4, 45.75)">
      <use ffdec:characterId="1656" height="87.1" transform="matrix(1.0, 0.0, 0.0, 1.0, -30.4, -43.5)" width="59.65" xlink:href="#shape0"/>
      <use ffdec:characterId="1081" height="100.0" id="shape" transform="matrix(0.48, 0.0, 0.0, 0.8, -23.9983, -40.0009)" width="100.0" xlink:href="#sprite1"/>
    </g>
    <g id="shape0" transform="matrix(1.0, 0.0, 0.0, 1.0, 30.4, 43.5)">
      <path d="M-27.65 -35.0 L-27.55 -35.25 Q-26.2 -37.35 -24.2 -38.9 L-21.8 -40.4 -21.65 -40.5 Q-20.35 -41.2 -18.8 -41.7 -14.6 -43.2 -8.75 -43.5 L-2.25 -43.5 Q4.35 -43.5 9.55 -42.25 L11.75 -42.0 Q14.3 -41.3 17.1 -39.65 19.0 -39.0 20.25 -38.05 L21.15 -36.85 Q23.6 -34.85 24.8 -32.6 L25.3 -31.5 27.05 -27.4 27.85 -25.25 28.0 -24.8 28.0 -23.0 Q28.0 -21.15 27.05 -18.45 25.85 -15.15 26.4 -17.7 24.3 -9.2 23.65 -4.1 20.85 3.8 19.75 7.8 L19.65 8.05 Q15.75 17.8 15.75 21.65 L15.2 23.7 15.0 23.7 14.9 24.45 Q14.45 29.75 13.6 33.65 12.75 37.55 12.0 38.45 L11.0 39.45 10.1 40.05 8.75 40.85 Q7.15 41.8 2.25 42.35 -3.55 42.1 -8.2 40.15 -9.3 38.85 -10.4 36.65 -12.3 32.85 -12.8 29.7 L-13.1 28.9 Q-13.35 26.7 -14.3 22.5 L-14.5 20.65 -15.0 15.35 Q-15.0 13.55 -13.85 10.25 -12.5 6.45 -12.25 4.75 -12.4 5.75 -13.55 7.4 L-13.65 7.5 -13.7 7.6 -14.0 7.95 Q-15.5 9.9 -15.75 7.65 L-15.8 7.25 Q-17.0 5.5 -18.15 -0.5 L-18.65 -3.55 -19.25 -3.5 Q-22.9 -3.5 -26.15 -12.75 -27.8 -17.4 -28.75 -22.35 L-28.65 -30.0 -28.25 -32.2 -28.25 -32.25 Q-28.25 -33.3 -27.65 -35.0" fill="#7b3434" fill-rule="evenodd" stroke="none"/>
      <path d="M28.0 -24.8 L28.05 -24.6 Q28.8 -22.35 29.1 -19.95 29.0 -12.75 24.6 4.4 L21.55 11.9 Q19.1 17.0 17.85 23.6 L17.4 26.0 Q16.15 34.1 15.25 36.95 13.4 39.55 11.05 41.15 7.45 43.6 2.35 43.6 -11.2 43.6 -16.1 36.4 -17.6 34.15 -18.25 31.15 L-18.45 29.9 -18.8 28.0 -19.75 25.6 -19.9 25.1 -20.35 23.95 -20.5 21.55 -20.75 17.85 Q-20.55 13.35 -20.7 11.0 -20.95 6.95 -22.75 4.5 L-24.35 2.2 Q-25.25 -1.25 -26.7 -5.4 -28.2 -9.6 -29.1 -13.2 -30.6 -19.35 -30.4 -23.9 -30.3 -26.7 -29.85 -29.0 -29.2 -32.6 -27.65 -35.0 -28.25 -33.3 -28.25 -32.25 L-28.25 -32.2 -28.65 -30.0 -28.75 -22.35 Q-27.8 -17.4 -26.15 -12.75 -22.9 -3.5 -19.25 -3.5 L-18.65 -3.55 -18.15 -0.5 Q-17.0 5.5 -15.8 7.25 L-15.75 7.65 Q-15.5 9.9 -14.0 7.95 L-13.7 7.6 -13.65 7.5 -13.55 7.4 Q-12.4 5.75 -12.25 4.75 -12.5 6.45 -13.85 10.25 -15.0 13.55 -15.0 15.35 L-14.5 20.65 -14.3 22.5 Q-13.35 26.7 -13.1 28.9 L-12.8 29.7 Q-12.3 32.85 -10.4 36.65 -9.3 38.85 -8.2 40.15 -3.55 42.1 2.25 42.35 7.15 41.8 8.75 40.85 L10.1 40.05 11.0 39.45 12.0 38.45 Q12.75 37.55 13.6 33.65 14.45 29.75 14.9 24.45 L15.0 23.7 15.2 23.7 15.75 21.65 Q15.75 17.8 19.65 8.05 L19.75 7.8 Q20.85 3.8 23.65 -4.1 24.3 -9.2 26.4 -17.7 25.85 -15.15 27.05 -18.45 28.0 -21.15 28.0 -23.0 L28.0 -24.8" fill="#984040" fill-rule="evenodd" stroke="none"/>
      <path d="M29.1 -19.95 Q29.4 -17.3 29.15 -14.45 L29.05 -13.25 Q28.25 -7.2 25.05 7.6 L22.0 15.75 Q21.05 18.1 20.2 22.95 L20.1 23.5 18.5 30.25 Q17.15 34.2 15.25 36.95 16.15 34.1 17.4 26.0 L17.85 23.6 Q19.1 17.0 21.55 11.9 L24.6 4.4 Q29.0 -12.75 29.1 -19.95 M-20.35 23.95 Q-22.85 16.8 -22.8 12.0 -22.75 8.15 -24.35 2.2 L-22.75 4.5 Q-20.95 6.95 -20.7 11.0 -20.55 13.35 -20.75 17.85 L-20.5 21.55 -20.35 23.95" fill="#cd7c7c" fill-rule="evenodd" stroke="none"/>
    </g>
    <g id="sprite1" transform="matrix(1.0, 0.0, 0.0, 1.0, 50.0, 50.0)">
      <use ffdec:characterId="1080" height="100.0" transform="matrix(1.0, 0.0, 0.0, 1.0, -50.0, -50.0)" width="100.0" xlink:href="#shape1"/>
    </g>
    <g id="shape1" transform="matrix(1.0, 0.0, 0.0, 1.0, 50.0, 50.0)">
      <path d="M50.0 50.0 L-50.0 50.0 -50.0 -50.0 50.0 -50.0 50.0 50.0 Z" fill="none" stroke="#9900ff" stroke-linecap="round" stroke-linejoin="round" stroke-width="0.05"/>
    </g>
    <g id="sprite2" transform="matrix(1.0, 0.0, 0.0, 1.0, 20.2, 5.4)">
      <use ffdec:characterId="1665" ffdec:characterName="game_fla.lowerleg2_626" height="72.65" id="lowerLeg2" transform="matrix(1.0, 0.0, 0.0, 1.0, -20.2, -5.4)" width="45.75" xlink:href="#sprite3"/>
    </g>
    <g id="sprite3" transform="matrix(1.0, 0.0, 0.0, 1.0, 18.3, 36.95)">
      <use ffdec:characterId="1661" height="72.65" transform="matrix(1.0, 0.0, 0.0, 1.0, -18.3, -36.95)" width="45.75" xlink:href="#shape2"/>
      <use ffdec:characterId="1081" height="100.0" id="shape" transform="matrix(0.33, 0.0, 0.0, 0.7001, -16.5001, -35.0029)" width="100.0" xlink:href="#sprite1"/>
    </g>
    <g id="shape2" transform="matrix(1.0, 0.0, 0.0, 1.0, 18.3, 36.95)">
      <path d="M-16.25 -19.5 L-16.25 -20.4 -16.1 -19.65 -16.25 -19.5" fill="#e98d8d" fill-rule="evenodd" stroke="none"/>
      <path d="M13.7 0.2 L12.75 4.05 Q10.75 12.85 10.75 17.5 L10.8 18.85 10.9 18.9 11.0 19.0 11.7 19.95 11.9 20.05 12.8 20.6 Q13.25 22.65 15.65 23.75 17.55 24.6 22.25 26.0 L22.25 27.25 Q21.75 27.5 21.5 27.75 L26.3 28.25 26.8 28.35 27.15 29.7 24.15 31.05 23.3 31.4 Q22.05 29.2 18.6 28.35 12.25 27.45 9.25 26.25 L10.0 24.7 10.5 23.5 Q10.5 22.7 9.45 21.6 8.45 20.5 7.5 20.25 L6.4 21.25 5.1 21.5 Q2.15 21.5 1.9 19.8 1.4 16.35 0.0 14.5 L0.25 14.5 Q1.8 14.55 2.9 15.95 L4.5 18.25 5.5 15.45 Q6.0 13.5 6.0 11.1 L5.75 1.75 10.85 0.95 13.7 0.2 M-17.55 30.4 L-17.5 28.6 -17.55 27.5 -17.55 27.2 -15.8 19.65 -15.55 17.95 -15.15 16.2 Q-15.85 10.2 -15.3 6.3 -14.8 2.45 -15.1 -1.25 L-15.15 -1.75 -13.0 -1.75 Q-11.25 -0.9 -8.85 -0.8 -8.0 -0.75 -8.0 1.35 L-8.5 7.5 -10.35 16.75 Q-7.8 15.05 -7.5 15.05 L-5.7 14.15 -10.0 21.4 Q-11.25 23.75 -14.0 22.25 L-13.35 25.3 Q-12.75 27.25 -12.75 28.1 L-13.0 29.75 -13.25 29.25 -13.75 30.45 -14.05 31.15 -15.25 30.85 -15.5 30.8 -17.55 30.4" fill="#333333" fill-rule="evenodd" stroke="none"/>
      <path d="M19.4 -20.55 Q20.35 -19.8 20.35 -17.15 20.35 -16.3 19.45 -14.5 18.55 -12.7 18.55 -10.45 L19.05 -7.5 18.9 -5.7 16.35 -9.75 17.0 -12.85 14.75 -15.5 16.6 -16.75 18.25 -16.25 18.2 -18.55 16.25 -21.35 18.5 -20.9 19.4 -20.55 M-15.3 -2.75 Q-16.6 -2.85 -17.45 -4.25 L-18.0 -5.85 -17.65 -7.35 -17.3 -8.9 -17.9 -13.75 Q-17.9 -14.7 -16.55 -17.4 L-16.65 -18.4 Q-16.65 -19.0 -16.25 -19.5 L-16.1 -19.65 -15.6 -20.05 Q-14.75 -20.6 -13.35 -20.8 L-11.1 -21.0 -9.1 -20.9 -9.8 -20.75 Q-11.05 -20.5 -11.75 -19.25 L-11.1 -18.1 Q-14.2 -16.5 -15.25 -13.5 L-14.25 -11.25 -15.45 -9.3 -15.0 -6.75 -15.45 -6.05 Q-16.25 -4.65 -15.9 -3.2 L-15.1 -2.75 -15.3 -2.75" fill="#fff9d4" fill-rule="evenodd" stroke="none"/>
      <path d="M18.9 -5.7 Q18.9 -4.1 17.55 -2.95 16.15 -1.8 14.2 -1.8 L11.95 -2.05 Q13.95 -5.4 11.1 -7.25 L10.5 -7.5 Q11.45 -8.75 11.45 -10.05 L11.35 -11.4 9.5 -12.25 Q11.85 -13.35 12.75 -15.85 L12.6 -16.6 10.75 -17.75 8.25 -16.75 9.25 -17.55 Q9.45 -21.1 5.3 -21.3 L9.45 -21.2 9.9 -20.75 12.6 -21.2 15.05 -21.5 16.25 -21.35 18.2 -18.55 18.25 -16.25 16.6 -16.75 14.75 -15.5 17.0 -12.85 16.35 -9.75 18.9 -5.7 M-2.8 -21.3 L-8.25 -18.25 -6.3 -17.65 -5.25 -15.5 -7.75 -15.45 -8.25 -13.75 -11.05 -13.85 Q-11.45 -10.75 -10.2 -8.0 L-10.35 -7.8 Q-13.25 -6.45 -12.25 -3.2 L-13.65 -3.25 -15.1 -2.75 -15.9 -3.2 Q-16.25 -4.65 -15.45 -6.05 L-15.0 -6.75 -15.45 -9.3 -14.25 -11.25 -15.25 -13.5 Q-14.2 -16.5 -11.1 -18.1 L-11.75 -19.25 Q-11.05 -20.5 -9.8 -20.75 L-9.1 -20.9 -2.8 -21.3" fill="#cec9ab" fill-rule="evenodd" stroke="none"/>
      <path d="M5.3 -21.3 Q9.45 -21.1 9.25 -17.55 L8.25 -16.75 10.75 -17.75 12.6 -16.6 12.75 -15.85 Q11.85 -13.35 9.5 -12.25 L11.35 -11.4 11.45 -10.05 Q11.45 -8.75 10.5 -7.5 L11.1 -7.25 Q13.95 -5.4 11.95 -2.05 L11.15 -2.25 10.3 -1.25 Q9.65 -0.6 8.25 -0.6 6.45 -0.6 5.2 -1.2 L4.45 -1.6 Q4.25 -1.7 4.15 -1.75 L4.0 -1.65 Q2.55 -0.75 1.6 -0.75 L-2.05 -1.25 -2.25 -1.25 -5.7 -1.65 -6.9 -2.35 -7.85 -2.55 -12.25 -3.2 Q-13.25 -6.45 -10.35 -7.8 L-10.2 -8.0 Q-11.45 -10.75 -11.05 -13.85 L-8.25 -13.75 -7.75 -15.45 -5.25 -15.5 -6.3 -17.65 -8.25 -18.25 -2.8 -21.3 -1.1 -21.25 Q0.75 -21.1 1.85 -20.5 L3.3 -20.4 4.15 -21.0 5.2 -21.3 5.3 -21.3" fill="#9c9982" fill-rule="evenodd" stroke="none"/>
      <path d="M12.8 20.6 L13.35 20.85 14.6 21.5 15.1 21.75 16.65 22.5 17.5 22.9 18.85 23.5 20.9 24.35 23.8 25.4 Q24.2 25.35 25.05 25.8 L25.4 26.05 25.8 26.5 26.8 28.35 26.3 28.25 21.5 27.75 Q21.75 27.5 22.25 27.25 L22.25 26.0 Q17.55 24.6 15.65 23.75 13.25 22.65 12.8 20.6 M27.15 29.7 L27.25 30.05 27.25 30.1 Q25.65 31.05 23.55 31.85 L22.2 32.3 21.85 32.4 16.05 33.3 0.35 33.15 -13.7 32.3 -14.25 32.2 -17.45 31.65 -17.55 30.4 -15.5 30.8 -15.25 30.85 -14.05 31.15 -12.75 31.4 -6.5 32.1 1.65 32.35 Q5.3 32.25 9.05 32.45 L11.45 32.6 Q17.35 33.4 22.75 31.55 L23.3 31.4 24.15 31.05 27.15 29.7" fill="#666666" fill-rule="evenodd" stroke="none"/>
      <path d="M27.25 30.1 L27.45 30.95 27.45 32.1 Q21.5 36.0 14.2 35.7 L-0.1 35.3 -12.8 35.1 Q-17.4 35.0 -17.45 31.65 L-14.25 32.2 -13.7 32.3 0.35 33.15 16.05 33.3 21.85 32.4 22.2 32.3 23.55 31.85 Q25.65 31.05 27.25 30.1" fill="#e5e5e5" fill-rule="evenodd" stroke="none"/>
      <path d="M14.2 -1.8 L14.15 -1.6 13.7 0.2 10.85 0.95 5.75 1.75 6.0 11.1 Q6.0 13.5 5.5 15.45 L4.5 18.25 2.9 15.95 Q1.8 14.55 0.25 14.5 L0.0 14.5 Q1.4 16.35 1.9 19.8 2.15 21.5 5.1 21.5 L6.4 21.25 7.5 20.25 Q8.45 20.5 9.45 21.6 10.5 22.7 10.5 23.5 L10.0 24.7 9.25 26.25 Q12.25 27.45 18.6 28.35 22.05 29.2 23.3 31.4 L22.75 31.55 Q17.35 33.4 11.45 32.6 L9.05 32.45 Q5.3 32.25 1.65 32.35 L-6.5 32.1 -12.75 31.4 -14.05 31.15 -13.75 30.45 -13.25 29.25 -13.0 29.75 -12.75 28.1 Q-12.75 27.25 -13.35 25.3 L-14.0 22.25 Q-11.25 23.75 -10.0 21.4 L-5.7 14.15 -7.5 15.05 Q-7.8 15.05 -10.35 16.75 L-8.5 7.5 -8.0 1.35 Q-8.0 -0.75 -8.85 -0.8 -11.25 -0.9 -13.0 -1.75 L-15.15 -1.75 -15.3 -2.75 -15.1 -2.75 -13.65 -3.25 -12.25 -3.2 -7.85 -2.55 -6.9 -2.35 -5.7 -1.65 -2.25 -1.25 -2.05 -1.25 1.6 -0.75 Q2.55 -0.75 4.0 -1.65 L4.15 -1.75 Q4.25 -1.7 4.45 -1.6 L5.2 -1.2 Q6.45 -0.6 8.25 -0.6 9.65 -0.6 10.3 -1.25 L11.15 -2.25 11.95 -2.05 14.2 -1.8 M1.45 19.15 L1.4 19.15 1.4 19.3 1.45 19.15" fill="#111111" fill-rule="evenodd" stroke="none"/>
      <path d="M18.35 -34.4 L19.1 -35.25 19.65 -36.4 20.05 -35.5 20.5 -34.4 20.6 -33.9 20.75 -33.2 21.0 -30.0 20.0 -23.9 Q18.95 -27.15 18.85 -27.85 L18.75 -28.2 17.7 -32.25 17.45 -32.9 18.35 -34.4" fill="#cd7c7c" fill-rule="evenodd" stroke="none"/>
      <path d="M20.0 -23.9 L19.4 -20.55 18.5 -20.9 16.25 -21.35 15.05 -21.5 Q15.15 -23.15 15.65 -24.55 L16.55 -27.2 16.55 -29.35 16.15 -31.15 Q16.1 -33.25 15.0 -33.75 L15.55 -33.6 17.05 -33.8 18.35 -34.4 17.45 -32.9 17.7 -32.25 18.75 -28.2 18.85 -27.85 Q18.95 -27.15 20.0 -23.9 M-16.25 -20.4 L-16.25 -20.7 -17.0 -23.25 -17.45 -24.6 -18.1 -26.3 Q-18.3 -26.75 -18.3 -27.85 -18.3 -30.0 -16.9 -32.45 L-16.85 -32.5 -16.6 -32.9 -16.35 -33.4 -16.35 -33.45 -16.3 -33.5 -15.75 -33.85 -15.7 -33.85 Q-13.75 -35.1 -10.2 -35.9 L-12.85 -33.55 Q-14.5 -32.0 -14.5 -29.0 -14.5 -27.55 -13.9 -26.4 -13.25 -25.2 -13.25 -23.5 L-13.35 -20.8 Q-14.75 -20.6 -15.6 -20.05 L-16.1 -19.65 -16.25 -20.4" fill="#984040" fill-rule="evenodd" stroke="none"/>
      <path d="M-10.2 -35.9 L-9.7 -36.05 -1.4 -36.95 -0.25 -36.95 0.1 -36.95 1.25 -36.85 8.75 -36.45 Q10.75 -35.75 12.55 -34.75 13.7 -34.0 14.95 -33.75 L15.0 -33.75 Q16.1 -33.25 16.15 -31.15 L16.55 -29.35 16.55 -27.2 15.65 -24.55 Q15.15 -23.15 15.05 -21.5 L12.6 -21.2 9.9 -20.75 9.45 -21.2 5.3 -21.3 5.2 -21.3 4.15 -21.0 3.3 -20.4 1.85 -20.5 Q0.75 -21.1 -1.1 -21.25 L-2.8 -21.3 -9.1 -20.9 -11.1 -21.0 -13.35 -20.8 -13.25 -23.5 Q-13.25 -25.2 -13.9 -26.4 -14.5 -27.55 -14.5 -29.0 -14.5 -32.0 -12.85 -33.55 L-10.2 -35.9" fill="#7b3434" fill-rule="evenodd" stroke="none"/>
    </g>
  </defs>
</svg>
