<?xml version="1.0" encoding="UTF-8" standalone="no"?>
<svg xmlns:ffdec="https://www.free-decompiler.com/flash" xmlns:xlink="http://www.w3.org/1999/xlink" ffdec:objectType="frame" height="32.75px" width="9.15px" xmlns="http://www.w3.org/2000/svg">
  <g transform="matrix(1.0, 0.0, 0.0, 1.0, 5.25, 15.0)">
    <use ffdec:characterId="1359" height="31.15" transform="matrix(1.0, 0.0, 0.0, 1.0, -5.25, -13.4)" width="9.15" xlink:href="#shape0"/>
  </g>
  <defs>
    <g id="shape0" transform="matrix(1.0, 0.0, 0.0, 1.0, 5.25, 13.4)">
      <path d="M-1.9 -13.2 Q-1.95 -13.55 -1.4 -13.35 L0.5 -12.9 0.25 -12.45 Q1.35 -11.9 1.5 -10.7 L1.05 -10.15 0.3 -10.2 -0.3 -10.85 -0.8 -10.5 -1.9 -13.2 M2.5 -8.5 L3.4 -8.35 3.6 -8.1 3.55 -7.1 2.35 -7.4 2.5 -8.5 M3.5 -6.0 L3.9 -5.25 3.6 -3.9 3.0 -3.6 2.4 -4.4 0.65 -5.0 2.9 -6.2 3.45 -6.0 3.5 -6.0 M-2.95 -7.3 L-2.7 -7.5 -1.8 -6.75 -0.65 -9.15 0.7 -8.65 1.45 -6.85 Q-0.45 -7.35 -1.15 -5.35 L-1.8 -5.1 -2.6 -4.2 -2.85 -2.3 -3.6 -2.55 -2.95 -7.3 M-1.85 -1.5 L-1.6 -2.05 -1.25 -2.3 -0.25 -1.65 1.1 -0.55 Q1.95 0.6 1.3 1.8 -0.5 2.45 -1.05 0.9 L-0.7 0.05 -1.85 -1.5" fill="#ff0000" fill-rule="evenodd" stroke="none"/>
      <path d="M1.5 -10.7 L1.8 -10.35 2.5 -8.5 2.35 -7.4 1.95 -6.95 1.45 -6.85 0.7 -8.65 0.7 -8.8 0.3 -10.2 1.05 -10.15 1.5 -10.7 M-2.7 -7.5 L-2.6 -9.65 -2.35 -12.25 -1.9 -13.2 -0.8 -10.5 -0.65 -9.15 -1.8 -6.75 -2.7 -7.5" fill="#ffffff" fill-rule="evenodd" stroke="none"/>
      <path d="M3.55 -7.1 L3.55 -6.7 3.45 -6.0 2.9 -6.2 0.65 -5.0 2.4 -4.4 3.0 -3.6 3.6 -3.9 3.45 -3.55 2.4 -1.35 1.1 -1.4 0.7 -3.7 0.05 -3.75 -1.15 -5.35 Q-0.45 -7.35 1.45 -6.85 L1.95 -6.95 2.35 -7.4 3.55 -7.1 M-3.45 -1.75 L-4.15 -3.55 Q-4.75 -4.9 -3.2 -7.1 L-3.0 -7.2 -2.95 -7.3 -3.6 -2.55 -2.85 -2.3 -2.6 -4.2 -1.8 -5.1 -2.3 -3.1 -2.6 -2.6 -3.05 -1.6 -3.45 -1.75 M-1.95 -1.3 L-1.85 -1.5 -0.7 0.05 -1.05 0.9 Q-0.5 2.45 1.3 1.8 L1.0 2.25 Q0.5 2.9 -0.25 2.95 L-1.3 2.45 -1.65 1.95 -1.55 0.95 -1.1 0.1 -1.8 -0.25 -1.95 -1.3" fill="#990000" fill-rule="evenodd" stroke="none"/>
      <path d="M3.55 -6.7 L3.5 -6.0 3.45 -6.0 3.55 -6.7 M3.45 -3.55 L2.7 8.9 Q3.15 9.3 3.45 10.3 3.9 11.7 3.75 13.55 L3.65 14.05 3.15 12.5 Q2.75 13.35 2.5 14.15 L2.25 15.15 1.8 15.95 0.95 17.15 1.55 15.7 Q1.55 15.1 1.25 15.1 1.0 15.1 0.95 15.25 L0.7 15.5 -0.7 14.9 Q-1.95 14.4 -1.95 14.0 L-1.45 12.25 Q-0.9 10.5 -0.9 9.9 L-1.05 9.6 -1.15 9.1 -0.95 8.7 -0.75 8.1 Q-0.65 6.5 -1.3 2.45 L-0.25 2.95 Q0.5 2.9 1.0 2.25 L1.3 1.8 Q1.95 0.6 1.1 -0.55 L-0.25 -1.65 -1.25 -2.3 -1.6 -2.05 -1.85 -1.5 -1.95 -1.3 -2.3 -3.1 -1.8 -5.1 -1.15 -5.35 0.05 -3.75 0.7 -3.7 1.1 -1.4 2.4 -1.35 3.45 -3.55 M-2.65 11.75 L-2.5 11.15 Q-2.4 9.45 -2.05 8.7 L-2.25 6.45 Q-2.25 4.45 -2.8 1.45 L-3.45 -1.75 -3.05 -1.6 -2.6 -2.6 -2.2 -0.4 Q-1.1 6.05 -1.3 8.1 L-2.45 11.2 -2.55 11.7 -2.65 11.75 M-1.55 0.95 L-1.8 -0.25 -1.1 0.1 -1.55 0.95" fill="#ffcc99" fill-rule="evenodd" stroke="none"/>
      <path d="M3.65 14.05 Q3.65 14.55 3.25 14.85 2.8 15.2 2.25 15.15 L2.5 14.15 Q2.75 13.35 3.15 12.5 L3.65 14.05" fill="#e2b181" fill-rule="evenodd" stroke="none"/>
      <path d="M0.95 17.15 L0.8 17.55 0.55 17.45 0.25 17.5 -1.25 17.75 -2.5 17.25 -2.65 16.7 -3.0 16.65 Q-4.4 16.8 -5.1 15.75 L-5.15 15.7 -5.25 15.1 -4.25 14.5 Q-3.25 13.7 -2.65 11.75 L-2.55 11.7 -2.45 11.2 -1.3 8.1 Q-1.1 6.05 -2.2 -0.4 L-2.6 -2.6 -2.3 -3.1 -1.95 -1.3 -1.8 -0.25 -1.55 0.95 -1.65 1.95 -1.3 2.45 Q-0.65 6.5 -0.75 8.1 L-0.95 8.7 -1.15 9.1 -1.05 9.6 -0.9 9.9 Q-0.9 10.5 -1.45 12.25 L-1.95 14.0 Q-1.95 14.4 -0.7 14.9 L0.7 15.5 0.95 15.25 Q1.0 15.1 1.25 15.1 1.55 15.1 1.55 15.7 L0.95 17.15 M-3.2 -7.1 L-3.25 -7.85 -3.25 -8.0 -3.15 -7.95 -3.0 -7.2 -3.2 -7.1" fill="#ebbb98" fill-rule="evenodd" stroke="none"/>
    </g>
  </defs>
</svg>
