<?xml version="1.0" encoding="UTF-8" standalone="no"?>
<svg xmlns:ffdec="https://www.free-decompiler.com/flash" xmlns:xlink="http://www.w3.org/1999/xlink" ffdec:objectType="frame" height="8.55px" width="8.95px" xmlns="http://www.w3.org/2000/svg">
  <g transform="matrix(1.0, 0.0, 0.0, 1.0, 4.5, 4.3)">
    <use ffdec:characterId="877" height="8.55" transform="matrix(1.0, 0.0, 0.0, 1.0, -4.5, -4.3)" width="8.95" xlink:href="#shape0"/>
  </g>
  <defs>
    <g id="shape0" transform="matrix(1.0, 0.0, 0.0, 1.0, 4.5, 4.3)">
      <path d="M-2.15 1.65 L-2.65 1.5 Q-3.75 0.65 -3.55 -0.85 L-3.35 -1.45 -3.2 -1.5 -2.1 -0.2 -2.2 0.95 -2.15 1.65 M1.65 3.0 Q1.55 3.05 1.55 2.95 0.65 2.7 1.0 1.7 L2.95 1.95 3.15 2.4 3.1 2.7 Q2.85 3.15 2.35 3.1 L2.2 3.05 1.65 3.0 M4.35 0.6 Q4.2 1.25 3.45 1.1 L3.1 0.95 Q2.3 0.4 2.25 -0.4 2.25 -1.1 2.95 -0.65 L4.15 0.3 4.35 0.55 4.35 0.6 M1.25 -2.6 L1.15 -2.35 Q0.3 -1.1 0.15 0.4 L-0.25 0.65 -0.4 0.3 -0.5 -0.95 Q-0.45 -1.95 0.25 -2.65 0.75 -3.1 1.25 -2.95 L1.25 -2.6" fill="#ffffff" fill-rule="evenodd" stroke="none"/>
      <path d="M2.75 -3.7 L1.85 -2.65 1.05 -1.35 0.4 0.4 1.15 -0.25 2.05 -1.1 2.7 -1.9 3.35 -3.05 4.35 -1.95 3.0 -0.8 2.95 -0.65 Q2.25 -1.1 2.25 -0.4 2.3 0.4 3.1 0.95 L3.45 1.1 Q4.2 1.25 4.35 0.6 4.25 1.15 4.3 1.7 4.35 2.7 3.65 3.35 L2.35 3.1 Q2.85 3.15 3.1 2.7 L3.15 2.4 2.95 1.95 1.0 1.7 Q0.65 2.7 1.55 2.95 1.55 3.05 1.65 3.0 L1.5 3.4 2.0 4.1 0.1 4.25 Q0.15 3.55 -0.25 3.0 L-0.8 2.25 Q-1.25 1.65 -1.35 0.85 L-0.8 -0.45 -1.35 -0.9 -2.1 -0.2 -3.2 -1.5 -3.35 -1.45 -3.55 -0.85 Q-3.75 0.65 -2.65 1.5 L-2.15 1.65 -1.65 3.2 -1.25 3.85 -2.75 2.65 -4.5 0.95 -4.1 -0.1 Q-3.35 -1.3 -3.35 -2.8 -2.65 -3.5 -1.55 -3.45 L-0.6 -3.85 -0.55 -4.3 2.75 -3.7 M1.25 -2.6 L1.25 -2.95 Q0.75 -3.1 0.25 -2.65 -0.45 -1.95 -0.5 -0.95 L-0.4 0.3 -0.25 0.65 0.15 0.4 Q0.3 -1.1 1.15 -2.35 L1.25 -2.6 M-1.65 -2.4 L-1.45 -3.05 Q-1.85 -3.65 -2.3 -2.95 -2.65 -2.35 -2.35 -1.85 -1.85 -1.5 -1.65 -2.4" fill="#e1e1e1" fill-rule="evenodd" stroke="none"/>
      <path d="M3.35 -3.05 L2.7 -1.9 2.05 -1.1 1.15 -0.25 0.4 0.4 1.05 -1.35 1.85 -2.65 2.75 -3.7 3.35 -3.05 M-1.25 3.85 L-1.65 3.2 -2.15 1.65 -2.2 0.95 -2.1 -0.2 -1.35 -0.9 -0.8 -0.45 -1.35 0.85 Q-1.25 1.65 -0.8 2.25 L-0.25 3.0 Q0.15 3.55 0.1 4.25 L-0.35 4.25 -1.25 3.85 M2.0 4.1 L1.5 3.4 1.65 3.0 2.2 3.05 2.35 3.1 3.65 3.35 2.8 3.9 2.0 4.1 M2.95 -0.65 L3.0 -0.8 4.35 -1.95 4.45 -1.25 4.35 0.55 4.15 0.3 2.95 -0.65 M-1.65 -2.4 Q-1.85 -1.5 -2.35 -1.85 -2.65 -2.35 -2.3 -2.95 -1.85 -3.65 -1.45 -3.05 L-1.65 -2.4" fill="#b8b7be" fill-rule="evenodd" stroke="none"/>
    </g>
  </defs>
</svg>
