<?xml version="1.0" encoding="UTF-8" standalone="no"?>
<svg xmlns:ffdec="https://www.free-decompiler.com/flash" xmlns:xlink="http://www.w3.org/1999/xlink" ffdec:objectType="frame" height="16.6px" width="14.6px" xmlns="http://www.w3.org/2000/svg">
  <g transform="matrix(1.0, 0.0, 0.0, 1.0, 8.35, 9.35)">
    <use ffdec:characterId="1256" height="16.6" transform="matrix(1.0, 0.0, 0.0, 1.0, -8.35, -9.35)" width="14.6" xlink:href="#shape0"/>
  </g>
  <defs>
    <g id="shape0" transform="matrix(1.0, 0.0, 0.0, 1.0, 8.35, 9.35)">
      <path d="M1.45 -6.6 L1.5 -5.25 2.2 -4.8 -0.75 -4.3 -0.75 -3.2 -0.5 -2.8 -1.35 -1.6 Q-1.85 -0.6 -2.0 0.6 L-2.45 0.8 -2.45 -0.95 -1.9 -2.55 Q-1.8 -3.0 -1.85 -3.4 L-2.95 -3.45 -3.85 -3.85 -3.75 -6.45 -2.35 -5.3 -1.65 -4.8 1.45 -6.6 M4.15 -2.45 L4.2 -1.6 4.25 -1.55 4.15 -1.6 3.45 -1.6 3.25 -1.5 3.25 -1.15 Q4.85 0.65 5.9 0.65 L6.2 0.6 6.25 1.1 6.2 1.4 5.6 4.1 3.85 2.9 4.2 1.4 4.2 1.2 2.35 -1.35 2.0 -0.2 Q0.55 -0.25 -0.1 1.25 -0.8 3.1 1.0 3.7 L1.85 3.75 2.45 3.45 5.7 4.55 6.05 5.25 5.7 6.8 1.85 7.25 -0.05 7.0 -1.3 6.65 -2.0 6.4 -2.4 5.7 -2.2 4.8 -2.55 4.0 -4.35 3.8 -4.6 4.15 -5.15 4.15 -5.25 4.1 -5.6 3.8 Q-7.05 2.6 -6.25 0.95 L-5.4 0.2 -6.0 1.05 Q-5.7 2.55 -4.35 2.95 L-3.65 3.1 -3.0 2.4 -0.9 1.95 0.65 -1.0 -0.15 -1.9 1.0 -2.55 0.5 -3.4 0.85 -3.95 1.5 -3.5 Q2.6 -2.65 4.15 -2.45 M-3.65 -7.55 L-2.9 -8.85 -2.55 -8.3 -1.2 -8.25 -0.4 -7.35 -0.95 -7.35 -3.65 -7.55 M0.25 5.3 Q1.0 5.85 1.85 6.15 L4.45 6.05 4.15 4.8 0.3 4.75 0.25 5.3" fill="#990000" fill-rule="evenodd" stroke="none"/>
      <path d="M2.2 -4.8 Q3.0 -4.8 3.6 -4.1 4.15 -3.45 4.15 -2.45 2.6 -2.65 1.5 -3.5 L0.85 -3.95 0.5 -3.4 1.0 -2.55 -0.15 -1.9 0.65 -1.0 -0.9 1.95 -3.0 2.4 -3.65 3.1 -4.35 2.95 Q-5.7 2.55 -6.0 1.05 L-5.4 0.2 -4.65 -0.05 -3.5 0.2 -3.0 0.85 -3.0 1.0 -2.55 0.85 -2.45 0.8 -2.0 0.6 Q-1.85 -0.6 -1.35 -1.6 L-0.5 -2.8 -0.75 -3.2 -0.75 -4.3 2.2 -4.8 M4.25 -1.55 L5.1 -1.1 Q6.25 -0.3 6.25 0.2 L6.25 0.55 6.2 0.6 5.9 0.65 Q4.85 0.65 3.25 -1.15 L3.25 -1.5 3.45 -1.6 4.15 -1.6 4.25 -1.55 M5.6 4.1 L5.7 4.55 2.45 3.45 2.65 2.9 3.85 2.9 5.6 4.1 M-2.9 -8.85 L-2.45 -9.35 -1.65 -9.3 Q0.85 -9.0 1.45 -6.6 L-1.65 -4.8 -2.35 -5.3 -3.75 -6.45 -2.25 -7.35 -0.95 -7.35 -0.4 -7.35 -1.2 -8.25 -2.55 -8.3 -2.9 -8.85 M0.25 5.3 L0.3 4.75 4.15 4.8 4.45 6.05 1.85 6.15 Q1.0 5.85 0.25 5.3" fill="#ff0000" fill-rule="evenodd" stroke="none"/>
      <path d="M2.45 3.45 L1.85 3.75 1.0 3.7 Q-0.8 3.1 -0.1 1.25 0.55 -0.25 2.0 -0.2 L2.35 -1.35 4.2 1.2 4.2 1.4 3.85 2.9 2.65 2.9 2.45 3.45" fill="#650101" fill-rule="evenodd" stroke="none"/>
      <path d="M-2.0 6.4 L-2.55 6.3 Q-3.85 5.8 -4.65 4.75 L-4.6 4.15 -4.35 3.8 -2.55 4.0 -2.2 4.8 -2.4 5.7 -2.0 6.4 M-2.95 -3.45 L-1.85 -3.4 Q-1.8 -3.0 -1.9 -2.55 L-2.45 -0.95 -2.45 0.8 -2.55 0.85 -3.0 1.0 -3.0 0.85 -3.5 0.2 -3.65 -0.5 Q-3.9 -2.1 -3.0 -3.4 L-2.95 -3.45" fill="#cc8080" fill-rule="evenodd" stroke="none"/>
      <path d="M-4.65 4.75 L-5.15 4.15 -4.6 4.15 -4.65 4.75 M-6.25 0.95 L-6.25 0.7 -6.25 0.3 -6.3 0.0 -6.3 -0.75 -6.15 -2.5 -6.2 -2.25 -8.35 -5.3 -6.95 -4.75 -6.15 -5.0 -5.7 -5.6 -5.35 -7.75 -5.25 -8.25 -5.25 -8.3 -3.65 -7.55 -0.95 -7.35 -2.25 -7.35 -3.75 -6.45 -3.85 -3.85 -2.95 -3.45 -3.0 -3.4 Q-3.9 -2.1 -3.65 -0.5 L-3.5 0.2 -4.65 -0.05 -5.4 0.2 -6.25 0.95" fill="#e9e9e9" fill-rule="evenodd" stroke="none"/>
    </g>
  </defs>
</svg>
