<?xml version="1.0" encoding="UTF-8" standalone="no"?>
<svg xmlns:ffdec="https://www.free-decompiler.com/flash" xmlns:xlink="http://www.w3.org/1999/xlink" ffdec:objectType="frame" height="590.0px" width="590.0px" xmlns="http://www.w3.org/2000/svg">
  <g transform="matrix(1.0, 0.0, 0.0, 1.0, 295.0, 295.0)">
    <use ffdec:characterId="436" height="590.0" transform="matrix(1.0, 0.0, 0.0, 1.0, -295.0, -295.0)" width="590.0" xlink:href="#shape0"/>
    <clipPath id="clipPath0" transform="matrix(1.0, 0.0, 0.0, 1.0, 0.0, 0.0)">
      <path d="M226.0 -256.0 Q238.4 -256.0 247.2 -247.2 256.0 -238.4 256.0 -226.0 L256.0 226.0 Q256.0 238.4 247.2 247.2 238.4 256.0 226.0 256.0 L-226.0 256.0 Q-238.4 256.0 -247.2 247.2 -256.0 238.4 -256.0 226.0 L-256.0 -226.0 Q-256.0 -238.4 -247.2 -247.2 -238.4 -256.0 -226.0 -256.0 L226.0 -256.0" fill="#333333" fill-rule="evenodd" stroke="none"/>
      <path d="M226.0 -256.0 L-226.0 -256.0 Q-238.4 -256.0 -247.2 -247.2 -256.0 -238.4 -256.0 -226.0 L-256.0 226.0 Q-256.0 238.4 -247.2 247.2 -238.4 256.0 -226.0 256.0 L226.0 256.0 Q238.4 256.0 247.2 247.2 256.0 238.4 256.0 226.0 L256.0 -226.0 Q256.0 -238.4 247.2 -247.2 238.4 -256.0 226.0 -256.0 Z" fill="none" stroke="#ff00ff" stroke-linecap="round" stroke-linejoin="round" stroke-width="0.05"/>
    </clipPath>
    <g clip-path="url(#clipPath0)">
      <use ffdec:characterId="438" height="512.05" transform="matrix(1.0, 0.0, 0.0, 1.0, -256.0, -256.0)" width="512.05" xlink:href="#shape2"/>
      <use ffdec:characterId="440" height="491.3" transform="matrix(0.9, 0.0, 0.0, 0.9, -159.1639, -221.0835)" width="353.7" xlink:href="#sprite0"/>
    </g>
  </g>
  <defs>
    <g id="shape0" transform="matrix(1.0, 0.0, 0.0, 1.0, 295.0, 295.0)">
      <path d="M265.0 -295.0 Q277.4 -295.0 286.2 -286.2 295.0 -277.4 295.0 -265.0 L295.0 265.0 Q295.0 277.4 286.2 286.2 277.4 295.0 265.0 295.0 L-265.0 295.0 Q-277.4 295.0 -286.2 286.2 -295.0 277.4 -295.0 265.0 L-295.0 -265.0 Q-295.0 -277.4 -286.2 -286.2 -277.4 -295.0 -265.0 -295.0 L265.0 -295.0" fill="#ffffff" fill-rule="evenodd" stroke="none"/>
    </g>
    <g id="shape2" transform="matrix(1.0, 0.0, 0.0, 1.0, 256.0, 256.0)">
      <path d="M255.9 -256.0 L256.05 255.9 -255.95 256.05 -256.0 -255.95 255.9 -256.0" fill="url(#gradient0)" fill-rule="evenodd" stroke="none"/>
      <path d="M1.2 -236.1 Q24.45 -235.65 46.7 -230.1 L55.9 -227.65 56.2 -227.55 Q65.0 -224.95 73.4 -221.4 90.85 -214.1 106.25 -203.0 L106.45 -202.9 Q114.3 -197.25 121.7 -190.55 L122.05 -190.3 Q151.2 -163.7 163.35 -126.25 L163.45 -126.0 Q170.6 -103.9 173.45 -81.45 L173.45 -81.4 173.55 -80.45 173.55 -80.3 Q175.9 -33.25 169.05 3.75 L169.0 4.15 166.2 17.3 166.1 17.7 166.05 18.0 163.9 26.1 163.85 26.15 Q160.45 37.95 156.05 48.6 L156.0 48.65 150.2 63.85 Q148.45 71.0 147.25 77.45 L147.25 77.5 Q142.7 101.35 132.8 105.35 L131.25 106.25 130.4 126.35 Q130.3 128.85 129.35 131.25 L128.85 132.6 128.8 132.7 127.8 134.9 117.95 152.75 117.9 152.9 117.75 153.15 Q109.45 167.25 98.7 179.95 L98.5 180.15 82.0 199.75 81.95 199.8 81.1 200.8 81.1 200.85 80.85 201.15 Q70.5 213.05 60.7 221.15 L60.5 221.3 Q55.1 225.85 48.4 229.5 L48.2 229.6 47.95 229.75 47.65 229.9 Q32.8 237.05 16.2 236.0 L16.05 236.0 15.3 235.9 14.55 235.8 0.65 235.35 0.6 235.35 0.0 235.35 -0.35 235.35 -0.4 235.35 -4.0 235.25 -4.4 235.25 -4.65 235.25 -5.75 235.3 -5.9 235.35 -7.3 235.5 Q-23.0 236.6 -37.85 231.25 L-37.95 231.2 Q-42.9 229.45 -46.95 226.15 L-47.4 225.8 Q-54.9 219.85 -62.45 213.1 L-62.55 213.0 -62.7 212.85 -62.95 212.65 -71.3 204.5 -72.25 203.75 -83.75 193.35 -84.15 193.05 -84.25 193.0 Q-104.5 178.25 -117.2 157.1 L-117.25 157.05 -118.25 155.4 -118.45 155.05 -118.65 154.65 -121.2 150.1 -121.25 150.0 -121.6 149.3 -121.65 149.2 Q-125.65 141.55 -129.5 130.75 -130.3 128.55 -130.4 126.35 L-131.25 106.25 -132.7 105.35 Q-142.7 101.4 -147.2 77.5 -148.9 68.65 -151.45 58.5 L-155.95 48.75 -156.05 48.4 Q-160.5 37.8 -163.8 26.15 L-163.8 26.1 -165.95 18.0 -165.95 18.05 -166.15 17.3 -168.95 4.15 -169.05 3.75 Q-175.9 -33.25 -173.5 -80.3 L-173.4 -81.4 -173.4 -81.45 Q-170.65 -103.65 -163.5 -125.55 L-163.4 -125.95 Q-151.3 -163.6 -121.95 -190.3 L-121.7 -190.5 Q-114.3 -197.3 -106.2 -203.05 L-106.2 -203.0 Q-90.85 -214.1 -73.35 -221.4 L-73.05 -221.5 Q-64.7 -225.05 -55.8 -227.65 L-46.7 -230.1 Q-24.45 -235.65 -1.15 -236.1 L-1.1 -236.1 -0.9 -236.1 0.0 -236.1 0.9 -236.1 1.15 -236.1 1.2 -236.1 M39.55 125.35 L40.6 121.45 37.8 123.2 39.55 125.35" fill="#333333" fill-rule="evenodd" stroke="none"/>
    </g>
    <linearGradient gradientTransform="matrix(0.0, 0.3125, -0.3125, 0.0, 0.0, 0.0)" gradientUnits="userSpaceOnUse" id="gradient0" spreadMethod="pad" x1="-819.2" x2="819.2">
      <stop offset="0.0" stop-color="#3d88c7"/>
      <stop offset="1.0" stop-color="#fd8181"/>
    </linearGradient>
    <g id="sprite0" transform="matrix(1.0, 0.0, 0.0, 1.0, 176.85, 245.65)">
      <use ffdec:characterId="439" height="491.3" transform="matrix(1.0, 0.0, 0.0, 1.0, -176.85, -245.65)" width="353.7" xlink:href="#shape3"/>
    </g>
    <g id="shape3" transform="matrix(1.0, 0.0, 0.0, 1.0, 176.85, 245.65)">
      <path d="M-47.9 -239.55 Q-24.95 -245.2 -1.0 -245.65 L0.0 -245.65 1.0 -245.65 Q24.95 -245.2 47.9 -239.55 L47.9 -216.3 48.05 -215.5 Q48.65 -213.45 51.75 -212.7 L52.9 -212.5 59.4 -211.2 Q77.45 -206.95 95.55 -197.35 L103.2 -193.0 104.75 -192.1 Q107.35 -190.85 108.1 -192.5 L108.35 -193.5 108.35 -212.05 Q116.65 -206.1 124.35 -199.1 153.6 -172.45 165.75 -134.9 173.25 -111.85 176.15 -88.45 178.75 -38.3 171.45 1.1 L168.35 15.7 168.8 1.1 Q168.95 -9.05 168.45 -19.1 166.65 -60.3 145.4 -89.7 124.15 -119.1 86.2 -134.7 52.2 -148.7 15.3 -149.65 L0.0 -149.7 Q-7.65 -149.85 -15.3 -149.65 -52.2 -148.7 -86.2 -134.7 -124.15 -119.1 -145.4 -89.7 -166.65 -60.3 -168.45 -19.1 -168.95 -9.05 -168.8 1.1 L-168.35 15.7 -171.45 1.1 Q-178.75 -38.3 -176.15 -88.45 -173.25 -111.85 -165.75 -134.9 -153.6 -172.45 -124.35 -199.1 -116.65 -206.1 -108.35 -212.05 L-108.35 -193.5 -108.1 -192.5 Q-107.35 -190.85 -104.75 -192.1 L-103.2 -193.0 -95.55 -197.35 Q-77.45 -206.95 -59.4 -211.2 L-52.9 -212.5 -51.75 -212.7 Q-48.65 -213.45 -48.05 -215.5 L-47.9 -216.3 -47.9 -239.55" fill="#ffffff" fill-rule="evenodd" stroke="none"/>
      <path d="M168.35 15.7 L166.0 24.5 Q162.55 36.65 157.95 47.6 L150.9 66.1 152.6 59.1 156.25 45.55 156.95 43.35 157.5 41.3 158.35 37.5 Q159.25 31.65 158.7 25.8 L158.4 22.85 Q159.95 4.85 159.8 -12.25 159.65 -29.4 151.25 -54.9 142.85 -80.4 129.35 -94.05 115.85 -107.75 98.2 -116.15 80.6 -124.55 61.0 -128.8 41.2 -134.0 20.5 -134.85 10.25 -135.3 0.0 -135.2 -10.25 -135.3 -20.5 -134.85 -41.2 -134.0 -61.0 -128.8 -80.6 -124.55 -98.2 -116.15 -115.85 -107.75 -129.35 -94.05 -142.85 -80.4 -151.25 -54.9 -159.65 -29.4 -159.8 -12.25 -159.95 4.85 -158.4 22.85 L-158.7 25.8 Q-159.25 31.65 -158.35 37.5 L-157.5 41.3 -156.95 43.35 -156.25 45.55 -152.6 59.1 Q-155.45 53.5 -157.95 47.6 -162.55 36.65 -166.0 24.5 L-168.35 15.7 -168.8 1.1 Q-168.95 -9.05 -168.45 -19.1 -166.65 -60.3 -145.4 -89.7 -124.15 -119.1 -86.2 -134.7 -52.2 -148.7 -15.3 -149.65 -7.65 -149.85 0.0 -149.7 L15.3 -149.65 Q52.2 -148.7 86.2 -134.7 124.15 -119.1 145.4 -89.7 166.65 -60.3 168.45 -19.1 168.95 -9.05 168.8 1.1 L168.35 15.7" fill="#000000" fill-rule="evenodd" stroke="none"/>
      <path d="M-158.4 22.85 Q-159.95 4.85 -159.8 -12.25 -159.65 -29.4 -151.25 -54.9 -142.85 -80.4 -129.35 -94.05 -115.85 -107.75 -98.2 -116.15 -80.6 -124.55 -61.0 -128.8 -41.2 -134.0 -20.5 -134.85 -10.25 -135.3 0.0 -135.2 10.25 -135.3 20.5 -134.85 41.2 -134.0 61.0 -128.8 80.6 -124.55 98.2 -116.15 115.85 -107.75 129.35 -94.05 142.85 -80.4 151.25 -54.9 159.65 -29.4 159.8 -12.25 159.95 4.85 158.4 22.85 L158.25 22.1 157.75 19.95 Q156.4 14.3 153.4 8.85 L152.0 8.4 Q148.65 7.45 145.65 7.6 139.75 7.9 135.35 12.55 134.05 13.9 132.9 15.65 L134.3 -1.5 134.15 -5.95 133.5 -27.55 Q132.45 -32.75 131.1 -37.2 127.0 -50.65 121.3 -61.45 114.55 -74.2 105.6 -83.2 89.0 -99.85 65.1 -105.1 L64.7 -105.2 64.3 -105.25 Q40.55 -110.35 2.65 -111.3 L-2.65 -111.3 Q-41.2 -110.35 -65.1 -105.1 -89.0 -99.85 -105.6 -83.2 -114.55 -74.2 -121.3 -61.45 -127.0 -50.65 -131.1 -37.2 -132.45 -32.75 -133.5 -27.55 L-134.15 -5.95 -134.3 -1.5 -132.9 15.65 Q-134.05 13.9 -135.35 12.55 -139.75 7.9 -145.65 7.6 -148.65 7.45 -152.0 8.4 L-153.4 8.85 Q-156.4 14.3 -157.75 19.95 L-158.25 22.1 -158.4 22.85" fill="#333333" fill-rule="evenodd" stroke="none"/>
      <path d="M150.9 66.1 Q148.75 75.0 147.25 82.95 144.1 99.45 138.85 102.8 136.75 104.1 134.85 104.75 L129.65 105.0 132.9 15.65 Q134.05 13.9 135.35 12.55 139.75 7.9 145.65 7.6 148.65 7.45 152.0 8.4 L153.4 8.85 Q156.4 14.3 157.75 19.95 L158.25 22.1 158.4 22.85 158.7 25.8 Q159.25 31.65 158.35 37.5 L157.5 41.3 156.95 43.35 156.25 45.55 152.6 59.1 150.9 66.1 M96.95 189.1 L78.15 211.35 77.15 212.55 Q66.7 224.65 56.85 232.85 51.9 237.0 45.7 240.4 33.1 246.45 19.0 245.55 L17.2 245.35 0.75 244.85 0.0 244.85 -4.05 244.75 -9.35 245.0 Q-23.35 246.0 -36.55 241.25 -39.45 240.2 -41.85 238.25 L-58.35 224.3 -69.25 213.7 -69.75 213.1 -69.15 213.95 -82.6 201.8 -82.8 201.65 Q-102.1 184.15 -98.55 156.15 -94.85 127.25 -105.7 112.05 L-120.6 91.0 -120.65 90.0 -120.85 82.3 Q-121.6 51.6 -121.6 -22.95 -121.6 -48.95 -121.3 -61.45 -114.55 -74.2 -105.6 -83.2 -89.0 -99.85 -65.1 -105.1 -41.2 -110.35 -2.65 -111.3 L2.65 -111.3 Q40.55 -110.35 64.3 -105.25 L64.7 -105.2 65.05 -105.1 Q88.95 -99.85 105.55 -83.2 114.5 -74.2 121.25 -61.45 121.55 -48.95 121.55 -22.95 121.55 51.6 120.8 82.3 L120.6 90.0 116.5 95.25 Q108.1 105.15 102.2 119.7 96.25 134.2 99.1 152.25 101.95 170.3 96.95 189.1 M-129.65 105.0 L-134.85 104.75 Q-136.75 104.1 -138.85 102.8 -144.1 99.45 -147.25 82.95 -149.35 71.95 -152.6 59.1 L-156.25 45.55 -156.95 43.35 -157.5 41.3 -158.35 37.5 Q-159.25 31.65 -158.7 25.8 L-158.4 22.85 -158.25 22.1 -157.75 19.95 Q-156.4 14.3 -153.4 8.85 L-152.0 8.4 Q-148.65 7.45 -145.65 7.6 -139.75 7.9 -135.35 12.55 -134.05 13.9 -132.9 15.65 L-129.65 105.0 M4.4 -77.45 L0.0 -78.1 -5.65 -78.9 -23.5 -81.6 -14.5 -76.8 Q-6.8 -73.1 0.0 -71.85 L1.9 -71.6 6.4 -71.3 13.3 -71.8 17.9 -72.5 30.4 -73.7 4.4 -77.45 M45.6 -50.5 L44.5 -50.6 Q40.45 -51.0 33.6 -50.7 L26.45 -50.45 16.95 -50.35 0.0 -51.4 -5.1 -51.95 -15.85 -53.4 -34.0 -56.6 Q-29.2 -53.65 -25.65 -51.75 -15.75 -46.45 -6.85 -43.95 L0.0 -42.4 8.4 -41.7 15.95 -42.0 Q19.75 -42.35 21.7 -43.1 31.8 -47.05 45.6 -50.5 M111.6 11.3 Q118.35 -5.35 106.95 -11.25 95.5 -17.15 87.55 -16.3 72.7 -15.3 60.95 -10.05 49.2 -4.8 35.35 -3.4 24.6 -2.2 13.6 -3.3 12.75 3.1 17.2 7.5 L18.35 8.45 17.3 10.2 Q21.1 17.65 24.4 25.05 L28.8 35.5 Q30.95 40.85 34.6 45.3 39.55 51.25 47.2 55.55 L53.15 58.95 Q66.15 61.35 68.75 61.35 L77.6 62.65 Q86.55 58.2 88.4 56.75 105.55 47.0 108.9 40.2 112.25 33.4 111.6 11.3 M-11.8 1.45 L-8.5 -1.15 Q-12.0 -2.5 -26.1 -8.2 -40.2 -13.95 -68.8 -23.05 -97.4 -32.15 -114.3 1.55 -115.0 3.85 -114.7 6.2 L-114.35 7.85 -113.6 10.7 Q-113.95 12.3 -113.95 14.4 L-113.85 17.6 -112.65 27.0 -112.25 28.7 -111.75 28.4 -111.05 29.4 -107.6 33.9 Q-105.75 36.35 -104.15 38.95 -101.55 43.25 -100.35 49.3 L-91.95 49.6 -78.65 51.0 -59.65 52.35 -44.9 52.9 -41.85 50.3 -39.6 48.2 -34.1 43.75 -29.85 40.5 -26.9 38.5 Q-25.65 37.6 -24.7 36.35 -21.65 32.55 -19.75 28.05 L-18.25 25.05 -17.55 23.9 Q-14.85 19.5 -14.5 14.55 L-13.25 11.25 -12.3 8.3 -11.9 8.0 -11.25 1.75 -11.8 1.45 M-12.3 8.3 L-12.05 8.65 -11.95 8.3 -12.1 8.3 -12.3 8.3 M-65.1 74.1 L-65.1 74.9 -64.7 74.3 -65.1 74.1 M29.1 102.05 L28.85 101.95 Q27.55 101.5 26.15 99.8 24.75 98.05 20.3 95.2 17.9 94.5 16.4 95.2 13.75 96.35 9.65 98.25 5.55 100.15 1.1 100.3 L0.0 100.3 Q-4.05 100.1 -8.9 97.65 -14.45 94.8 -17.25 95.3 L-22.0 96.05 Q-24.0 96.3 -26.95 99.8 -28.75 101.95 -30.0 102.8 -30.8 103.3 -31.35 103.3 L-31.6 103.3 Q-33.1 101.1 -33.05 95.6 L-32.0 83.9 Q-33.45 85.4 -36.95 90.95 -41.3 97.85 -45.05 105.4 -49.45 114.3 -52.1 122.15 L-53.05 125.25 -53.2 125.65 -53.65 127.65 -53.75 127.7 Q-59.75 133.4 -64.65 140.15 -66.1 142.15 -67.05 144.1 -68.85 147.75 -68.9 151.3 -69.05 158.7 -61.7 165.75 L-60.5 166.8 -59.9 166.0 -58.75 164.45 Q-53.6 157.95 -48.0 154.0 L-47.85 153.95 -47.05 153.45 Q-45.95 152.7 -44.85 152.1 -41.8 150.3 -38.5 149.3 L-38.35 149.25 Q-25.45 145.35 -12.2 143.8 L0.0 142.9 12.2 143.8 Q25.45 145.35 38.35 149.25 L38.5 149.3 39.25 149.6 Q44.55 151.8 47.9 154.0 L47.85 153.95 48.0 154.0 Q53.6 157.95 58.75 164.45 L60.5 166.8 61.7 165.75 Q69.05 158.7 68.9 151.3 68.8 145.8 64.65 140.15 59.75 133.4 53.75 127.7 51.35 120.15 48.4 113.5 44.6 104.9 39.55 97.1 35.05 90.2 29.6 83.9 33.35 102.65 29.1 102.05 M-34.3 189.35 Q-17.8 182.05 0.0 181.9 L12.2 182.6 21.9 184.0 Q29.2 184.7 36.3 186.8 39.35 175.15 27.5 167.4 17.8 161.0 6.05 162.1 L0.0 162.35 -17.0 162.7 Q-20.95 163.35 -24.35 165.7 -33.0 171.75 -35.25 182.15 -35.95 185.5 -34.95 188.45 L-34.3 189.35" fill="#ffcc99" fill-rule="evenodd" stroke="none"/>
      <path d="M117.1 160.5 L116.45 161.65 Q107.95 176.15 96.95 189.1 101.95 170.3 99.1 152.25 96.25 134.2 102.2 119.7 108.1 105.15 116.5 95.25 L120.6 90.0 120.8 82.3 Q121.55 51.6 121.55 -22.95 121.55 -48.95 121.25 -61.45 114.5 -74.2 105.55 -83.2 88.95 -99.85 65.05 -105.1 L64.7 -105.2 65.1 -105.1 Q89.0 -99.85 105.6 -83.2 114.55 -74.2 121.3 -61.45 121.6 -48.95 121.6 -22.95 121.6 51.6 120.85 82.3 L120.65 90.0 120.6 91.0 Q119.45 130.95 117.1 160.5 M-82.8 201.65 Q-103.85 186.65 -116.75 164.75 -119.35 133.85 -120.6 91.0 L-105.7 112.05 Q-94.85 127.25 -98.55 156.15 -102.1 184.15 -82.8 201.65 M45.6 -50.5 Q31.8 -47.05 21.7 -43.1 19.75 -42.35 15.95 -42.0 L8.4 -41.7 0.0 -42.4 -6.85 -43.95 Q-15.75 -46.45 -25.65 -51.75 -29.2 -53.65 -34.0 -56.6 L-15.85 -53.4 -5.1 -51.95 0.0 -51.4 16.95 -50.35 26.45 -50.45 33.6 -50.7 Q40.45 -51.0 44.5 -50.6 L45.6 -50.5 M4.4 -77.45 L30.4 -73.7 17.9 -72.5 13.3 -71.8 6.4 -71.3 1.9 -71.6 0.0 -71.85 Q-6.8 -73.1 -14.5 -76.8 L-23.5 -81.6 -5.65 -78.9 0.0 -78.1 4.4 -77.45 M-12.3 8.3 L-12.1 8.3 -11.95 8.3 -12.05 8.65 -12.3 8.3 M-13.25 11.25 L-14.5 14.55 -14.2 13.15 -13.25 11.25 M-111.75 28.4 L-112.25 28.7 -112.65 27.0 -111.75 28.4 M-65.1 74.1 L-64.7 74.3 -65.1 74.9 -65.1 74.1 M29.1 102.05 Q33.35 102.65 29.6 83.9 35.05 90.2 39.55 97.1 44.6 104.9 48.4 113.5 51.35 120.15 53.75 127.7 L49.8 124.1 43.35 119.0 43.1 118.85 42.95 118.75 40.35 117.15 39.95 116.9 27.45 112.8 31.0 102.9 Q30.25 102.4 29.1 102.05 M-53.65 127.65 L-53.2 125.65 -53.05 125.25 -52.1 122.15 Q-49.45 114.3 -45.05 105.4 -41.3 97.85 -36.95 90.95 -33.45 85.4 -32.0 83.9 L-33.05 95.6 Q-33.1 101.1 -31.6 103.3 L-32.95 102.95 Q-30.5 106.8 -24.85 112.9 L-26.65 112.8 -27.0 112.8 -27.4 112.8 -27.45 112.8 -39.95 116.9 -40.35 117.15 -42.95 118.75 -43.1 118.85 -43.35 119.0 -43.55 119.2 -44.25 119.75 Q-47.15 121.85 -49.8 124.1 L-53.65 127.65 M-34.3 189.35 L-34.95 188.45 Q-35.95 185.5 -35.25 182.15 -33.0 171.75 -24.35 165.7 -20.95 163.35 -17.0 162.7 L0.0 162.35 6.05 162.1 Q17.8 161.0 27.5 167.4 39.35 175.15 36.3 186.8 29.2 184.7 21.9 184.0 L12.2 182.6 0.0 181.9 Q-17.8 182.05 -34.3 189.35" fill="#ebbb98" fill-rule="evenodd" stroke="none"/>
      <path d="M18.35 8.45 L17.2 7.5 Q12.75 3.1 13.6 -3.3 24.6 -2.2 35.35 -3.4 49.2 -4.8 60.95 -10.05 72.7 -15.3 87.55 -16.3 95.5 -17.15 106.95 -11.25 118.35 -5.35 111.6 11.3 102.15 -1.85 87.55 0.5 73.4 2.75 59.3 6.55 44.8 10.35 29.95 9.55 L18.35 8.45 M-114.3 1.55 Q-97.4 -32.15 -68.8 -23.05 -40.2 -13.95 -26.1 -8.2 -12.0 -2.5 -8.5 -1.15 L-11.8 1.45 Q-39.5 10.3 -67.85 -3.15 -74.85 -6.55 -82.7 -4.8 -98.0 -1.55 -109.7 8.6 -111.3 7.5 -112.5 5.95 -113.9 4.3 -114.15 2.55 L-114.3 1.55 M53.75 127.7 Q59.75 133.4 64.65 140.15 68.8 145.8 68.9 151.3 69.05 158.7 61.7 165.75 L60.5 166.8 58.75 164.45 Q53.6 157.95 48.0 154.0 L47.85 153.95 Q43.35 150.8 38.5 149.3 L38.35 149.25 Q25.45 145.35 12.2 143.8 L0.0 142.9 -12.2 143.8 Q-25.45 145.35 -38.35 149.25 L-38.5 149.3 Q-41.8 150.3 -44.85 152.1 -45.95 152.7 -47.05 153.45 L-47.85 153.95 -48.0 154.0 Q-53.6 157.95 -58.75 164.45 L-59.9 166.0 -60.5 166.8 -61.7 165.75 Q-69.05 158.7 -68.9 151.3 -68.85 147.75 -67.05 144.1 -66.1 142.15 -64.65 140.15 -59.75 133.4 -53.75 127.7 L-53.65 127.65 -49.8 124.1 Q-47.15 121.85 -44.25 119.75 L-43.55 119.2 -43.35 119.0 -43.1 118.85 -42.95 118.75 -40.35 117.15 -39.95 116.9 -27.45 112.8 -27.4 112.8 -27.0 112.8 -26.65 112.8 -24.85 112.9 -23.55 113.05 -22.7 113.15 -8.95 114.6 -8.4 114.6 -1.6 114.85 0.0 114.85 8.4 114.6 22.7 113.15 23.55 113.05 26.65 112.8 27.0 112.8 27.45 112.8 39.95 116.9 40.35 117.15 42.95 118.75 43.1 118.85 43.35 119.0 43.55 119.2 49.8 124.1 53.75 127.7" fill="#76553e" fill-rule="evenodd" stroke="none"/>
      <path d="M47.9 -239.55 L57.3 -237.0 Q66.45 -234.3 75.05 -230.65 92.75 -223.25 108.35 -212.05 L108.35 -193.5 108.1 -192.5 Q107.35 -190.85 104.75 -192.1 L103.2 -193.0 95.55 -197.35 Q77.45 -206.95 59.4 -211.2 L52.9 -212.5 51.75 -212.7 Q48.65 -213.45 48.05 -215.5 L47.9 -216.3 47.9 -239.55 M129.65 105.0 L128.2 139.6 127.4 141.85 117.1 160.5 Q119.45 130.95 120.6 91.0 L120.65 90.0 120.85 82.3 Q121.6 51.6 121.6 -22.95 121.6 -48.95 121.3 -61.45 127.0 -50.65 131.1 -37.2 132.45 -32.75 133.5 -27.55 L134.15 -5.95 134.3 -1.5 132.9 15.65 129.65 105.0 M-116.75 164.75 L-116.75 164.85 -116.85 164.55 -120.3 158.3 -120.4 158.1 Q-124.35 150.45 -128.2 139.6 L-129.65 105.0 -132.9 15.65 -134.3 -1.5 -134.15 -5.95 -133.5 -27.55 Q-132.45 -32.75 -131.1 -37.2 -127.0 -50.65 -121.3 -61.45 -121.6 -48.95 -121.6 -22.95 -121.6 51.6 -120.85 82.3 L-120.65 90.0 -120.6 91.0 Q-119.35 133.85 -116.75 164.75 M-108.35 -212.05 Q-92.75 -223.25 -75.05 -230.65 -66.45 -234.3 -57.3 -237.0 L-47.9 -239.55 -47.9 -216.3 -48.05 -215.5 Q-48.65 -213.45 -51.75 -212.7 L-52.9 -212.5 -59.4 -211.2 Q-77.45 -206.95 -95.55 -197.35 L-103.2 -193.0 -104.75 -192.1 Q-107.35 -190.85 -108.1 -192.5 L-108.35 -193.5 -108.35 -212.05" fill="#999999" fill-rule="evenodd" stroke="none"/>
      <path d="M-50.35 25.4 L-50.35 25.35 Q-50.35 24.05 -50.6 22.85 -50.85 21.85 -51.25 20.9 -60.65 19.3 -69.9 22.0 L-72.0 22.65 -72.3 24.5 -72.35 25.35 -72.3 26.0 Q-79.9 27.8 -86.25 30.8 L-86.35 30.85 -88.95 32.05 Q-78.8 8.6 -52.45 14.1 -42.4 16.2 -34.6 25.0 L-50.35 25.4 M50.35 25.4 L34.6 25.0 Q42.4 16.2 52.45 14.1 78.8 8.6 88.95 32.05 L86.35 30.85 86.25 30.8 Q79.9 27.8 72.3 26.0 L72.35 25.35 72.3 24.5 72.0 22.65 69.9 22.0 Q60.65 19.3 51.25 20.9 50.85 21.85 50.6 22.85 50.35 24.05 50.35 25.35 L50.35 25.4" fill="#230710" fill-rule="evenodd" stroke="none"/>
      <path d="M18.35 8.45 L29.95 9.55 Q44.8 10.35 59.3 6.55 73.4 2.75 87.55 0.5 102.15 -1.85 111.6 11.3 112.25 33.4 108.9 40.2 105.55 47.0 88.4 56.75 86.55 58.2 77.6 62.65 L68.75 61.35 Q66.15 61.35 53.15 58.95 L47.2 55.55 Q39.55 51.25 34.6 45.3 30.95 40.85 28.8 35.5 L24.4 25.05 Q21.1 17.65 17.3 10.2 L18.35 8.45 M-11.8 1.45 L-11.25 1.75 -11.9 8.0 -12.3 8.3 -13.25 11.25 -14.2 13.15 -14.5 14.55 Q-14.85 19.5 -17.55 23.9 L-18.25 25.05 -19.75 28.05 Q-21.65 32.55 -24.7 36.35 -25.65 37.6 -26.9 38.5 L-29.85 40.5 -34.1 43.75 -39.6 48.2 -41.85 50.3 -44.9 52.9 -59.65 52.35 -78.65 51.0 -91.95 49.6 -100.35 49.3 Q-101.55 43.25 -104.15 38.95 -105.75 36.35 -107.6 33.9 L-111.05 29.4 -111.75 28.4 -112.65 27.0 -113.85 17.6 -113.95 14.4 Q-113.95 12.3 -113.6 10.7 L-114.35 7.85 -114.7 6.2 Q-115.0 3.85 -114.3 1.55 L-114.15 2.55 Q-113.9 4.3 -112.5 5.95 -111.3 7.5 -109.7 8.6 -98.0 -1.55 -82.7 -4.8 -74.85 -6.55 -67.85 -3.15 -39.5 10.3 -11.8 1.45 M-50.35 25.4 L-34.6 25.0 Q-42.4 16.2 -52.45 14.1 -78.8 8.6 -88.95 32.05 L-86.35 30.85 -86.25 30.8 Q-79.9 27.8 -72.3 26.0 -72.1 30.1 -69.1 33.1 -65.9 36.35 -61.35 36.35 -56.8 36.35 -53.6 33.1 -50.35 29.85 -50.35 25.4 M-31.6 103.3 L-31.35 103.3 Q-30.8 103.3 -30.0 102.8 -28.75 101.95 -26.95 99.8 -24.0 96.3 -22.0 96.05 L-17.25 95.3 Q-14.45 94.8 -8.9 97.65 -4.05 100.1 0.0 100.3 L1.1 100.3 Q5.55 100.15 9.65 98.25 13.75 96.35 16.4 95.2 17.9 94.5 20.3 95.2 24.75 98.05 26.15 99.8 27.55 101.5 28.85 101.95 L29.1 102.05 Q30.25 102.4 31.0 102.9 L27.45 112.8 27.0 112.8 26.65 112.8 23.55 113.05 22.7 113.15 8.4 114.6 0.0 114.85 -1.6 114.85 -8.4 114.6 -8.95 114.6 -22.7 113.15 -23.55 113.05 -24.85 112.9 Q-30.5 106.8 -32.95 102.95 L-31.6 103.3 M-12.0 102.05 Q-14.5 100.05 -16.5 100.05 -19.35 100.05 -20.95 101.2 L-22.6 102.05 Q-25.45 103.4 -25.45 105.55 L-25.25 106.75 Q-24.6 107.85 -22.25 107.85 -21.35 107.85 -19.7 106.85 -17.75 105.6 -14.7 102.95 -12.6 103.45 -9.5 105.55 -9.6 104.05 -12.0 102.05 M72.3 26.0 Q79.9 27.8 86.25 30.8 L86.35 30.85 88.95 32.05 Q78.8 8.6 52.45 14.1 42.4 16.2 34.6 25.0 L50.35 25.4 Q50.35 29.85 53.6 33.1 56.8 36.35 61.35 36.35 65.9 36.35 69.1 33.1 72.1 30.1 72.3 26.0 M22.1 102.05 L20.45 101.2 Q18.85 100.05 16.0 100.05 14.0 100.05 11.5 102.05 9.1 104.05 9.0 105.55 12.1 103.45 14.2 102.95 17.25 105.6 19.2 106.85 20.85 107.85 21.75 107.85 24.1 107.85 24.75 106.75 L24.95 105.55 Q24.95 103.4 22.1 102.05" fill="#c79b68" fill-rule="evenodd" stroke="none"/>
      <path d="M-72.3 26.0 L-72.35 25.35 -72.3 24.5 -72.0 22.65 -69.9 22.0 Q-60.65 19.3 -51.25 20.9 -50.85 21.85 -50.6 22.85 -50.35 24.05 -50.35 25.35 L-50.35 25.4 Q-50.35 29.85 -53.6 33.1 -56.8 36.35 -61.35 36.35 -65.9 36.35 -69.1 33.1 -72.1 30.1 -72.3 26.0 M50.35 25.4 L50.35 25.35 Q50.35 24.05 50.6 22.85 50.85 21.85 51.25 20.9 60.65 19.3 69.9 22.0 L72.0 22.65 72.3 24.5 72.35 25.35 72.3 26.0 Q72.1 30.1 69.1 33.1 65.9 36.35 61.35 36.35 56.8 36.35 53.6 33.1 50.35 29.85 50.35 25.4" fill="#003366" fill-rule="evenodd" stroke="none"/>
      <path d="M-12.0 102.05 Q-9.6 104.05 -9.5 105.55 -12.6 103.45 -14.7 102.95 -17.75 105.6 -19.7 106.85 -21.35 107.85 -22.25 107.85 -24.6 107.85 -25.25 106.75 L-25.45 105.55 Q-25.45 103.4 -22.6 102.05 L-20.95 101.2 Q-19.35 100.05 -16.5 100.05 -14.5 100.05 -12.0 102.05 M22.1 102.05 Q24.95 103.4 24.95 105.55 L24.75 106.75 Q24.1 107.85 21.75 107.85 20.85 107.85 19.2 106.85 17.25 105.6 14.2 102.95 12.1 103.45 9.0 105.55 9.1 104.05 11.5 102.05 14.0 100.05 16.0 100.05 18.85 100.05 20.45 101.2 L22.1 102.05" fill="#754f4f" fill-rule="evenodd" stroke="none"/>
    </g>
  </defs>
</svg>
