<?xml version="1.0" encoding="UTF-8" standalone="no"?>
<svg xmlns:ffdec="https://www.free-decompiler.com/flash" xmlns:xlink="http://www.w3.org/1999/xlink" ffdec:objectType="frame" height="8.6px" width="47.9px" xmlns="http://www.w3.org/2000/svg">
  <g transform="matrix(1.0, 0.0, 0.0, 1.0, 23.95, 5.8)">
    <use ffdec:characterId="851" height="8.6" transform="matrix(1.0, 0.0, 0.0, 1.0, -23.95, -5.8)" width="47.9" xlink:href="#shape0"/>
  </g>
  <defs>
    <g id="shape0" transform="matrix(1.0, 0.0, 0.0, 1.0, 23.95, 5.8)">
      <path d="M-9.35 -0.7 L0.55 -1.1 0.65 -1.1 0.9 -1.1 2.2 -1.1 9.85 -0.45 9.95 -0.45 11.1 -0.45 11.1 1.8 -9.45 1.8 -9.35 -0.7 M18.35 1.8 L23.65 1.8 Q24.3 2.1 23.65 2.8 L18.35 2.8 11.1 2.8 11.1 1.8 18.35 1.8 M-23.55 1.8 L-17.15 1.8 -9.45 1.8 -9.45 2.8 -17.15 2.8 -23.55 2.8 Q-24.3 2.3 -23.55 1.8" fill="#b0b6b9" fill-rule="evenodd" stroke="none"/>
      <path d="M11.1 -0.45 L9.95 -0.45 9.85 -0.45 2.2 -1.1 0.9 -1.1 0.65 -1.1 0.55 -1.1 -9.35 -0.7 -17.1 -0.6 -17.1 1.1 -17.15 1.8 -23.55 1.8 -23.55 1.1 -23.55 -0.25 Q-23.7 -1.05 -22.0 -1.25 L-9.4 -2.45 -7.65 -2.45 -6.5 -2.45 7.7 -2.45 9.05 -2.45 9.85 -2.45 22.15 -1.25 Q23.6 -1.05 23.75 0.2 L23.7 1.1 23.65 1.8 18.35 1.8 18.35 1.1 18.4 -0.3 18.4 -0.45 11.1 -0.45" fill="#dadcde" fill-rule="evenodd" stroke="none"/>
      <path d="M-9.35 -0.7 L-9.45 1.8 -17.15 1.8 -17.1 1.1 -17.1 -0.6 -9.35 -0.7 M11.1 1.8 L11.1 -0.45 18.4 -0.45 18.4 -0.3 18.35 1.1 18.35 1.8 11.1 1.8 M9.05 -2.45 L7.7 -2.45 7.7 -4.55 -6.5 -4.55 -6.5 -2.45 -7.65 -2.45 -7.65 -4.55 Q-7.55 -5.55 -6.5 -5.8 L7.7 -5.8 Q9.15 -5.75 9.05 -4.55 L9.05 -2.45" fill="#c1c5c8" fill-rule="evenodd" stroke="none"/>
      <path d="M-9.45 1.8 L11.1 1.8 11.1 2.8 9.8 2.8 2.3 2.8 0.55 2.8 0.1 2.8 -8.55 2.8 -9.45 2.8 -9.45 1.8" fill="#9da5a8" fill-rule="evenodd" stroke="none"/>
    </g>
  </defs>
</svg>
