<?xml version="1.0" encoding="UTF-8" standalone="no"?>
<svg xmlns:ffdec="https://www.free-decompiler.com/flash" xmlns:xlink="http://www.w3.org/1999/xlink" ffdec:objectType="frame" height="21.5px" width="29.85px" xmlns="http://www.w3.org/2000/svg">
  <g transform="matrix(1.0, 0.0, 0.0, 1.0, 15.9, 11.25)">
    <use ffdec:characterId="1598" height="21.5" transform="matrix(1.0, 0.0, 0.0, 1.0, -15.9, -11.25)" width="29.85" xlink:href="#shape0"/>
  </g>
  <defs>
    <g id="shape0" transform="matrix(1.0, 0.0, 0.0, 1.0, 15.9, 11.25)">
      <path d="M-7.0 -8.95 L-6.95 -8.3 Q-6.95 -7.15 -7.95 -7.15 -8.25 -7.15 -8.4 -7.4 L-8.6 -7.8 -10.0 -7.65 -11.5 -7.2 -12.45 -6.9 -12.85 -7.2 Q-11.85 -8.9 -9.8 -9.75 L-9.85 -10.2 Q-9.85 -11.9 -8.75 -10.8 L-8.55 -10.6 Q-8.35 -9.65 -7.25 -9.05 L-7.0 -8.95" fill="#ffffff" fill-rule="evenodd" stroke="none"/>
      <path d="M4.95 -7.8 L5.1 -6.8 Q5.1 -6.3 5.5 -6.25 L5.65 -6.2 Q6.75 -6.3 7.05 -5.8 L6.85 -5.6 7.05 -5.45 7.05 -5.4 7.1 -5.3 6.6 -5.5 6.3 -5.45 4.95 -5.3 Q5.4 -4.85 6.65 -4.05 L6.9 -3.9 7.4 -3.15 7.4 -3.05 Q7.4 -2.5 6.95 -2.15 L6.7 -2.05 5.65 -1.8 1.95 -3.75 Q0.4 -4.75 -0.6 -5.8 L0.35 -5.65 1.5 -5.45 2.7 -5.65 4.65 -6.05 4.85 -6.05 5.15 -6.15 3.6 -6.9 Q0.95 -8.3 0.8 -8.8 L0.8 -8.55 -0.95 -8.4 Q-1.35 -8.3 -1.4 -8.2 L-1.45 -7.55 -2.1 -7.25 -3.2 -7.05 -5.0 -7.15 Q-5.3 -7.75 -4.95 -8.2 L-7.0 -8.95 -7.25 -9.05 Q-8.35 -9.65 -8.55 -10.6 L-8.55 -10.65 -7.2 -10.7 -4.85 -9.85 Q-3.2 -9.1 0.65 -9.3 L0.8 -8.95 Q0.85 -10.3 2.95 -9.6 4.55 -9.1 4.95 -7.8 M13.2 -4.4 L13.3 -3.8 13.2 -3.65 12.8 -3.55 9.05 -5.55 9.6 -6.45 Q10.45 -7.45 11.65 -6.65 12.85 -5.8 13.2 -4.4 M-10.55 -6.3 Q-8.3 -7.65 -5.45 -5.95 L-5.25 -5.55 -5.45 -5.05 -5.75 -4.95 -6.3 -4.9 -7.35 -5.15 -8.35 -5.4 -10.2 -4.65 -12.35 -3.75 -12.75 -3.55 -12.95 -3.45 -13.1 -3.55 -12.95 -3.75 -12.25 -4.75 -10.55 -6.3 M2.8 0.8 Q3.2 0.5 3.85 0.4 L5.15 0.55 Q5.55 0.75 5.6 1.3 L5.6 1.5 5.3 3.3 6.05 3.6 6.85 4.25 7.0 4.25 6.95 4.45 Q6.95 5.15 6.3 5.15 5.75 5.15 5.4 4.8 L4.95 4.85 5.2 4.6 5.2 4.55 4.95 3.95 Q4.25 5.0 2.8 5.4 L2.55 5.1 2.1 5.15 1.5 5.25 2.1 4.4 1.95 3.95 2.0 3.55 2.05 2.35 Q2.05 1.3 2.8 0.8 M8.15 2.3 Q8.8 1.6 8.75 0.35 L9.95 0.0 10.3 0.0 11.25 0.25 Q11.75 0.55 11.75 1.3 L11.5 2.15 11.25 2.5 11.15 2.6 8.3 2.65 8.15 2.35 8.15 2.3 M0.5 5.45 L-0.85 5.8 -0.95 5.8 -1.55 5.85 -1.5 6.0 Q-1.65 6.25 -2.45 6.6 L-3.4 6.9 -4.4 7.2 -5.55 7.4 Q-7.2 7.4 -8.1 6.3 -9.35 4.8 -10.65 4.3 L-10.2 4.35 -8.5 4.8 -6.95 5.4 -4.25 5.6 -2.5 5.55 -3.55 4.85 -4.05 4.6 -4.0 4.55 Q-4.5 4.3 -5.05 4.2 -6.75 3.4 -8.4 2.25 L-8.25 1.85 Q-7.6 1.3 -6.05 1.55 L-4.5 1.9 -4.45 1.9 -4.35 1.95 -2.2 2.7 -0.7 3.65 -0.4 3.95 -0.35 4.0 -0.1 3.95 0.15 3.95 0.5 5.45 M-1.05 9.9 L-1.25 9.6 -1.25 8.9 Q-1.25 8.0 -0.9 7.75 L-0.75 7.7 0.15 7.55 0.55 7.55 Q1.15 7.55 1.45 8.0 L1.8 8.4 3.35 7.85 4.9 7.75 5.35 7.9 5.45 8.0 3.5 9.35 Q2.4 10.25 0.05 10.25 L-1.05 9.9 M-1.65 -1.1 Q-2.05 -0.55 -3.2 -0.55 -3.95 -0.55 -3.95 -1.55 L-7.95 -1.85 -8.7 -0.95 -9.25 -0.55 -9.95 -0.45 -11.05 -0.7 -11.3 -1.0 -11.3 -1.6 Q-11.3 -3.15 -10.0 -3.4 L-9.45 -3.45 -9.15 -3.45 Q-8.4 -3.4 -8.2 -3.0 L-7.85 -2.75 -5.5 -2.55 -3.35 -3.3 -2.7 -3.55 -1.85 -3.45 Q-1.45 -3.05 -1.45 -1.8 L-1.65 -1.1 M-10.05 0.65 L-9.45 0.65 -9.15 0.6 Q-8.5 0.8 -8.5 1.55 L-8.65 2.05 -9.8 1.2 -10.3 0.8 -10.15 0.65 -10.05 0.65" fill="#ff0000" fill-rule="evenodd" stroke="none"/>
      <path d="M4.95 -7.8 L5.35 -7.55 Q7.25 -6.3 8.8 -6.3 L9.6 -6.45 9.05 -5.55 12.8 -3.55 13.2 -3.65 13.3 -3.8 13.2 -4.4 13.55 -3.55 13.5 -3.55 13.1 -3.5 11.8 -3.3 10.3 -3.05 Q9.9 -3.05 8.85 -3.4 L8.6 -3.45 9.85 -4.15 10.05 -4.3 9.85 -4.7 7.05 -5.4 7.05 -5.45 6.85 -5.6 7.05 -5.8 Q6.75 -6.3 5.65 -6.2 L5.5 -6.25 Q5.1 -6.3 5.1 -6.8 L4.95 -7.8 M-7.0 -8.95 L-4.95 -8.2 Q-5.3 -7.75 -5.0 -7.15 L-3.2 -7.05 -2.1 -7.25 -1.45 -7.55 -1.4 -8.2 Q-1.35 -8.3 -0.95 -8.4 L0.8 -8.55 0.8 -8.8 Q0.95 -8.3 3.6 -6.9 L5.15 -6.15 4.85 -6.05 Q2.25 -6.95 1.4 -7.65 L-0.8 -7.45 -0.85 -7.3 0.75 -6.6 2.7 -5.65 1.5 -5.45 0.35 -5.65 -0.6 -5.8 Q0.4 -4.75 1.95 -3.75 L5.65 -1.8 6.7 -2.05 6.95 -2.15 6.85 -1.8 Q6.9 -1.6 6.3 -1.6 L3.55 -2.0 Q1.2 -2.55 0.25 -3.6 L0.15 -3.75 -0.1 -4.05 Q-0.55 -4.9 -1.85 -5.3 L-5.25 -5.95 -5.3 -6.05 -5.45 -5.95 Q-8.3 -7.65 -10.55 -6.3 L-10.0 -7.65 -8.6 -7.8 -8.4 -7.4 Q-8.25 -7.15 -7.95 -7.15 -6.95 -7.15 -6.95 -8.3 L-7.0 -8.95 M-1.6 -0.65 L-1.6 -0.05 Q-1.6 0.35 -1.85 0.65 -2.1 0.95 -2.45 0.95 L-3.55 0.85 Q-4.3 0.6 -4.7 0.05 L-4.9 -0.25 -5.35 -0.8 Q-6.1 -1.45 -7.6 -1.45 -7.85 -1.45 -8.2 -1.05 L-8.3 -0.75 -8.45 -0.45 -8.5 -0.25 -9.15 0.6 -9.45 0.65 -10.05 0.65 -10.6 0.55 -10.3 0.8 -9.8 1.2 -8.65 2.05 -8.5 1.55 -8.25 1.85 -8.4 2.25 Q-6.75 3.4 -5.05 4.2 -4.5 4.3 -4.0 4.55 L-4.05 4.6 -3.55 4.85 -2.5 5.55 -4.25 5.6 -6.95 5.4 -8.5 4.8 -10.2 4.35 -10.3 4.25 Q-11.65 3.3 -12.25 1.75 L-11.6 0.95 -10.9 0.35 -11.3 0.0 -11.7 -0.3 -11.7 -0.6 Q-11.7 -2.4 -10.95 -3.05 L-9.95 -3.5 -9.85 -3.5 -9.5 -3.5 -9.15 -3.45 -9.45 -3.45 -10.0 -3.4 Q-11.3 -3.15 -11.3 -1.6 L-11.3 -1.0 -11.05 -0.7 -9.95 -0.45 -9.25 -0.55 -8.7 -0.95 -7.95 -1.85 -3.95 -1.55 Q-3.95 -0.55 -3.2 -0.55 -2.05 -0.55 -1.65 -1.1 L-1.6 -0.65 M-2.6 2.25 L-0.3 2.6 0.1 3.8 0.15 3.9 0.15 3.95 -0.1 3.95 -0.35 4.0 -0.4 3.95 -0.7 3.65 -2.2 2.7 -4.35 1.95 -2.6 2.25 M2.4 1.1 L2.8 0.8 Q2.05 1.3 2.05 2.35 L2.0 3.55 1.8 2.8 Q1.8 1.6 2.4 1.1 M6.85 2.45 L7.45 2.5 7.6 2.55 7.6 2.45 Q7.6 1.7 7.9 1.2 L7.6 2.55 7.6 2.6 7.55 2.7 7.6 2.7 7.65 2.65 7.8 2.55 8.15 2.3 8.15 2.35 8.3 2.65 11.15 2.6 11.25 2.5 11.5 2.15 11.35 2.55 11.25 2.55 11.05 3.75 10.25 5.25 Q10.45 5.1 12.25 4.5 L12.65 4.55 12.45 4.95 Q11.8 6.4 10.65 6.4 9.6 6.4 8.5 5.75 L7.1 5.75 6.05 6.95 4.9 7.75 3.35 7.85 1.8 8.4 1.45 8.0 Q1.15 7.55 0.55 7.55 L0.15 7.55 0.2 7.45 0.05 7.45 -0.5 7.5 -0.75 7.7 -0.9 7.75 Q-1.25 8.0 -1.25 8.9 L-1.25 9.6 -1.05 9.9 -2.55 8.85 -4.4 7.2 -3.4 6.9 -2.45 6.6 Q-1.65 6.25 -1.5 6.0 L-1.55 5.85 -0.95 5.8 -0.85 5.8 0.5 5.45 0.75 6.7 1.5 5.25 2.1 5.15 2.55 5.1 2.8 5.4 Q4.25 5.0 4.95 3.95 L5.2 4.55 5.2 4.6 4.95 4.85 5.4 4.8 Q5.75 5.15 6.3 5.15 6.95 5.15 6.95 4.45 L7.0 4.25 6.85 4.25 6.05 3.6 5.3 3.3 5.6 1.5 5.6 1.3 6.05 2.45 6.85 2.45 M8.75 0.35 L8.75 0.3 Q9.1 0.1 9.55 -0.05 L9.6 -0.05 10.05 -0.1 Q10.85 -0.2 11.25 0.25 L10.3 0.0 9.95 0.0 8.75 0.35 M-12.75 -3.55 L-12.35 -3.75 -10.2 -4.65 -8.35 -5.4 -7.35 -5.15 -7.6 -5.05 -9.8 -4.2 -9.6 -3.75 -9.5 -3.55 -11.9 -3.55 -12.75 -3.55 M-13.8 -3.7 L-13.75 -3.75 -12.25 -4.75 -12.95 -3.75 -13.1 -3.55 -13.8 -3.55 -13.95 -3.55 -13.8 -3.7" fill="#990000" fill-rule="evenodd" stroke="none"/>
      <path d="M7.05 -5.4 L9.85 -4.7 10.05 -4.3 9.85 -4.15 8.6 -3.45 7.4 -3.15 6.9 -3.9 6.65 -4.05 Q5.4 -4.85 4.95 -5.3 L6.3 -5.45 6.6 -5.5 7.1 -5.3 7.05 -5.4 M-5.45 -5.95 L-5.3 -6.05 -5.25 -5.95 -1.85 -5.3 Q-0.55 -4.9 -0.1 -4.05 L0.15 -3.75 0.25 -3.6 -1.85 -3.45 -2.7 -3.55 -3.35 -3.3 -7.85 -2.75 -8.2 -3.0 Q-8.4 -3.4 -9.15 -3.45 L-9.5 -3.5 -9.5 -3.55 -9.6 -3.75 -9.8 -4.2 -7.6 -5.05 -7.35 -5.15 -6.3 -4.9 -5.75 -4.95 -5.45 -5.05 -5.25 -5.55 -5.45 -5.95 M2.7 -5.65 L0.75 -6.6 -0.85 -7.3 -0.8 -7.45 1.4 -7.65 Q2.25 -6.95 4.85 -6.05 L4.65 -6.05 2.7 -5.65" fill="#ebbb98" fill-rule="evenodd" stroke="none"/>
      <path d="M8.6 -3.45 L8.85 -3.4 Q9.9 -3.05 10.3 -3.05 L11.8 -3.3 13.1 -3.5 13.15 -2.6 Q13.1 -1.7 12.3 -1.3 L11.55 -2.05 Q11.1 -2.55 10.55 -2.55 8.25 -2.55 8.6 -0.5 L8.75 0.3 8.75 0.35 Q8.8 1.6 8.15 2.3 L7.8 2.55 7.65 2.65 7.6 2.7 7.55 2.7 7.6 2.6 7.6 2.55 7.9 1.2 Q7.95 -0.35 6.55 -0.9 3.75 -1.4 2.55 -2.05 L0.55 -2.05 Q0.5 -1.35 0.05 -0.8 -0.35 -0.3 -0.8 -0.3 -1.0 -0.3 -1.6 -0.65 L-1.65 -1.1 -1.45 -1.8 Q-1.45 -3.05 -1.85 -3.45 L0.25 -3.6 Q1.2 -2.55 3.55 -2.0 L6.3 -1.6 Q6.9 -1.6 6.85 -1.8 L6.95 -2.15 Q7.4 -2.5 7.4 -3.05 L7.4 -3.15 8.6 -3.45 M-3.55 0.85 L-2.8 1.95 -2.6 2.25 -4.35 1.95 -4.45 1.9 -4.5 1.9 -6.05 1.55 Q-7.6 1.3 -8.25 1.85 L-8.5 1.55 Q-8.5 0.8 -9.15 0.6 L-8.5 -0.25 -7.15 0.2 -5.45 1.0 -5.45 0.95 -4.7 0.05 Q-4.3 0.6 -3.55 0.85 M0.15 3.9 Q0.95 3.7 1.4 2.9 L2.25 0.7 2.4 1.1 Q1.8 1.6 1.8 2.8 L2.0 3.55 1.95 3.95 2.1 4.4 1.5 5.25 0.75 6.7 0.5 5.45 0.15 3.95 0.15 3.9 M5.15 0.55 L6.25 -0.8 Q6.2 -0.1 6.3 0.55 6.4 1.6 6.85 2.45 L6.05 2.45 5.6 1.3 Q5.55 0.75 5.15 0.55 M-14.0 0.6 L-11.9 -3.55 -9.5 -3.55 -9.5 -3.5 -9.85 -3.5 -9.95 -3.5 -10.95 -3.05 Q-11.7 -2.4 -11.7 -0.6 L-11.7 -0.3 -11.3 0.0 -10.9 0.35 -11.6 0.95 -12.25 1.75 -13.55 3.0 Q-13.15 1.45 -13.95 0.65 L-14.0 0.6 M-8.3 -0.75 L-8.2 -1.05 Q-7.85 -1.45 -7.6 -1.45 -6.1 -1.45 -5.35 -0.8 L-7.3 -0.55 -8.3 -0.75 M-7.85 -2.75 L-3.35 -3.3 -5.5 -2.55 -7.85 -2.75" fill="#695227" fill-rule="evenodd" stroke="none"/>
      <path d="M13.1 -3.5 L13.5 -3.55 13.75 -2.8 13.75 -2.55 13.75 -2.4 13.8 -1.55 13.8 -1.2 13.95 1.8 13.7 1.9 13.0 2.15 11.35 2.55 11.5 2.15 11.75 1.3 Q11.75 0.55 11.25 0.25 10.85 -0.2 10.05 -0.1 L9.6 -0.05 9.55 -0.05 Q9.1 0.1 8.75 0.3 L8.6 -0.5 Q8.25 -2.55 10.55 -2.55 11.1 -2.55 11.55 -2.05 L12.3 -1.3 Q13.1 -1.7 13.15 -2.6 L13.1 -3.5 M-1.6 -0.65 Q-1.0 -0.3 -0.8 -0.3 -0.35 -0.3 0.05 -0.8 0.5 -1.35 0.55 -2.05 L2.55 -2.05 Q3.75 -1.4 6.55 -0.9 7.95 -0.35 7.9 1.2 7.6 1.7 7.6 2.45 L7.6 2.55 7.45 2.5 6.85 2.45 Q6.4 1.6 6.3 0.55 6.2 -0.1 6.25 -0.8 L5.15 0.55 3.85 0.4 Q3.2 0.5 2.8 0.8 L2.4 1.1 2.25 0.7 1.4 2.9 Q0.95 3.7 0.15 3.9 L0.1 3.8 -0.3 2.6 -2.6 2.25 -2.8 1.95 -3.55 0.85 -2.45 0.95 Q-2.1 0.95 -1.85 0.65 -1.6 0.35 -1.6 -0.05 L-1.6 -0.65 M-5.35 -0.8 L-4.9 -0.25 -4.7 0.05 -5.45 0.95 -5.45 1.0 -7.15 0.2 -8.5 -0.25 -8.45 -0.45 -8.3 -0.75 -7.3 -0.55 -5.35 -0.8 M-10.3 0.8 L-10.6 0.55 -10.05 0.65 -10.15 0.65 -10.3 0.8" fill="#3e9f4c" fill-rule="evenodd" stroke="none"/>
      <path d="M-0.75 7.7 L-0.5 7.5 0.05 7.45 0.2 7.45 0.15 7.55 -0.75 7.7" fill="#650101" fill-rule="evenodd" stroke="none"/>
      <path d="M11.35 2.55 L13.0 2.15 Q13.0 3.5 12.65 4.55 L12.25 4.5 Q10.45 5.1 10.25 5.25 L11.05 3.75 11.25 2.55 11.35 2.55 M-13.8 -3.7 L-13.8 -3.75 -13.75 -3.75 -13.8 -3.7 M-13.8 -3.55 L-13.1 -3.55 -12.95 -3.45 -12.75 -3.55 -11.9 -3.55 -14.0 0.6 Q-14.75 -0.1 -15.9 0.15 L-14.6 -0.65 Q-13.85 -1.1 -13.8 -1.9 L-14.1 -2.1 -13.8 -3.55" fill="#4ec262" fill-rule="evenodd" stroke="none"/>
    </g>
  </defs>
</svg>
