<?xml version="1.0" encoding="UTF-8" standalone="no"?>
<svg xmlns:ffdec="https://www.free-decompiler.com/flash" xmlns:xlink="http://www.w3.org/1999/xlink" ffdec:objectType="frame" height="33.4px" width="43.05px" xmlns="http://www.w3.org/2000/svg">
  <g transform="matrix(1.0, 0.0, 0.0, 1.0, 18.75, 30.6)">
    <use ffdec:characterId="1778" height="33.4" transform="matrix(1.0, 0.0, 0.0, 1.0, -18.75, -30.6)" width="43.05" xlink:href="#shape0"/>
  </g>
  <defs>
    <g id="shape0" transform="matrix(1.0, 0.0, 0.0, 1.0, 18.75, 30.6)">
      <path d="M10.25 1.95 Q14.6 0.25 14.4 -4.95 L14.35 -10.55 14.45 -15.45 14.65 -18.35 15.1 -24.5 Q15.1 -25.1 13.4 -26.0 11.8 -26.8 11.2 -26.8 L10.25 -26.6 10.15 -26.65 10.15 -26.7 Q11.7 -29.45 20.8 -29.45 L23.8 -28.85 23.8 -28.55 23.8 -28.35 23.85 -27.3 23.85 -26.85 24.2 -22.0 24.1 -21.8 24.2 -21.3 24.25 -21.05 24.25 -20.9 24.3 -19.1 24.2 -18.6 24.1 -18.05 23.75 -15.45 22.8 -10.7 22.75 -10.25 22.65 -10.05 22.55 -9.55 Q19.5 1.8 13.15 1.8 L12.65 1.75 10.25 1.95 M-10.25 -30.05 Q-13.5 -22.35 -13.75 -15.45 L-13.8 -14.2 Q-13.8 -12.25 -13.2 -10.05 -11.7 -4.6 -6.45 2.15 -9.0 1.75 -11.0 0.85 -15.1 -1.1 -16.8 -3.95 L-17.9 -6.05 Q-18.5 -7.55 -18.65 -9.1 L-18.7 -9.95 -18.7 -10.6 -18.65 -10.6 -18.7 -12.5 -18.5 -15.45 -18.4 -16.45 -18.15 -18.1 -16.8 -25.9 -16.6 -26.85 -16.05 -30.05 -10.25 -30.05" fill="#6a502d" fill-rule="evenodd" stroke="none"/>
      <path d="M23.8 -28.85 L20.8 -29.45 Q11.7 -29.45 10.15 -26.7 L10.15 -26.65 10.25 -26.6 11.2 -26.8 Q11.8 -26.8 13.4 -26.0 15.1 -25.1 15.1 -24.5 L14.65 -18.35 14.45 -15.45 14.35 -10.55 14.4 -4.95 Q14.6 0.25 10.25 1.95 L10.1 1.95 6.25 2.65 1.35 2.8 0.8 2.65 -5.85 2.25 -6.45 2.15 Q-11.7 -4.6 -13.2 -10.05 -13.8 -12.25 -13.8 -14.2 L-13.75 -15.45 Q-13.5 -22.35 -10.25 -30.05 L10.35 -30.05 16.15 -30.5 23.05 -30.2 23.8 -28.85" fill="#554024" fill-rule="evenodd" stroke="none"/>
      <path d="M-18.7 -12.5 L-18.65 -10.6 -18.7 -10.6 -18.7 -12.5" fill="#ffffff" fill-rule="evenodd" stroke="none"/>
    </g>
  </defs>
</svg>
