<?xml version="1.0" encoding="UTF-8" standalone="no"?>
<svg xmlns:ffdec="https://www.free-decompiler.com/flash" xmlns:xlink="http://www.w3.org/1999/xlink" ffdec:objectType="frame" height="25.15px" width="36.25px" xmlns="http://www.w3.org/2000/svg">
  <g transform="matrix(1.0, 0.0, 0.0, 1.0, 11.9, 13.0)">
    <use ffdec:characterId="1786" height="25.15" transform="matrix(1.0, 0.0, 0.0, 1.0, -11.9, -13.0)" width="36.25" xlink:href="#shape0"/>
  </g>
  <defs>
    <g id="shape0" transform="matrix(1.0, 0.0, 0.0, 1.0, 11.9, 13.0)">
      <path d="M3.25 -11.75 L4.1 -12.75 4.2 -12.85 4.25 -12.75 Q5.2 -10.9 7.15 -10.25 L8.1 -9.85 8.8 -9.5 Q8.8 -8.9 8.2 -8.45 7.6 -8.0 6.75 -8.0 L5.45 -8.2 4.5 -8.9 4.15 -9.35 2.15 -9.95 -0.2 -8.9 -0.4 -8.7 -1.7 -8.55 -2.35 -7.9 -2.5 -5.5 -0.85 -6.9 -0.4 -6.6 1.45 -6.6 2.1 -7.95 4.65 -7.95 5.1 -7.3 4.5 -3.3 6.45 -4.2 6.6 -3.15 6.7 -0.25 6.6 0.75 Q6.4 2.9 5.7 5.05 4.95 7.35 3.6 9.15 L4.9 7.8 4.55 8.45 Q4.35 8.6 4.25 8.7 L3.55 9.65 Q2.9 10.15 2.2 10.15 L2.25 10.3 1.0 10.4 0.45 10.35 -2.05 10.55 -2.2 10.55 -4.85 11.15 -6.2 11.25 -7.7 11.35 -8.45 11.4 Q-11.65 10.8 -11.9 7.35 L-9.15 7.3 -7.7 8.25 -7.2 8.35 Q-6.1 8.35 -6.1 7.45 -6.1 6.7 -6.9 6.25 -6.15 5.45 -5.9 4.15 L-6.15 3.9 -6.95 3.55 -7.25 3.6 -6.9 3.15 -4.95 1.5 Q-3.7 0.2 -4.15 -1.75 L-3.65 -1.15 -2.65 -0.4 -1.75 -0.3 Q-1.0 -1.3 -1.35 -2.5 -1.9 -4.05 -3.3 -4.95 L-4.2 -5.1 -4.45 -4.65 -4.55 -4.0 -4.45 -2.7 -4.75 -3.25 -6.85 -5.4 -7.55 -5.6 -9.6 -5.95 -7.55 -6.95 -7.05 -7.15 -5.15 -7.0 -4.05 -5.9 -3.7 -6.3 Q-3.25 -6.85 -3.3 -7.9 L-3.3 -8.5 -4.0 -8.7 Q-3.85 -9.85 -2.55 -10.7 L-1.9 -11.05 -1.55 -11.2 -1.45 -10.6 2.95 -10.15 3.6 -11.05 3.25 -11.75 M0.0 -4.35 L0.95 -3.55 Q1.95 -2.6 2.45 -1.3 L2.8 -0.25 2.8 -0.1 Q1.4 1.2 1.2 2.8 L1.1 3.85 1.55 4.4 1.4 5.5 Q0.95 7.2 -0.1 8.55 L1.15 8.5 Q3.75 6.0 4.15 3.0 4.35 1.45 4.05 -0.25 L3.7 -1.45 4.3 -2.4 Q3.85 -4.2 1.95 -4.8 L0.95 -5.0 0.55 -5.05 0.15 -4.8 0.0 -4.35 M-1.65 1.5 Q-3.2 1.65 -4.75 3.05 L-3.45 3.75 -2.55 5.85 -5.5 8.85 Q-3.1 9.45 -1.5 7.85 L-0.9 7.15 -1.75 6.95 -1.0 5.0 -1.95 4.4 -0.25 3.25 -0.75 1.55 -1.65 1.5" fill="#990000" fill-rule="evenodd" stroke="none"/>
      <path d="M4.2 -12.85 L8.1 -12.7 9.0 -12.25 9.7 -11.7 8.8 -9.5 8.1 -9.85 7.15 -10.25 Q5.2 -10.9 4.25 -12.75 L4.2 -12.85 M-11.9 7.35 L-11.7 6.2 -7.7 5.95 Q-7.25 6.05 -6.9 6.25 -6.1 6.7 -6.1 7.45 -6.1 8.35 -7.2 8.35 L-7.7 8.25 -9.15 7.3 -11.9 7.35 M-7.05 -7.15 L-4.0 -8.7 -3.3 -8.5 -3.3 -7.9 Q-3.25 -6.85 -3.7 -6.3 L-4.05 -5.9 -5.15 -7.0 -7.05 -7.15 M-1.55 -11.2 L-0.6 -11.65 0.95 -12.05 3.25 -11.75 3.6 -11.05 2.95 -10.15 -1.45 -10.6 -1.55 -11.2 M-0.85 -6.9 L2.1 -7.95 1.45 -6.6 -0.4 -6.6 -0.85 -6.9 M0.0 -4.35 L0.15 -4.8 0.55 -5.05 0.95 -5.0 1.95 -4.8 Q3.85 -4.2 4.3 -2.4 L3.7 -1.45 4.05 -0.25 Q4.35 1.45 4.15 3.0 3.75 6.0 1.15 8.5 L-0.1 8.55 Q0.95 7.2 1.4 5.5 L1.55 4.4 1.1 3.85 1.2 2.8 Q1.4 1.2 2.8 -0.1 L2.8 -0.25 2.45 -1.3 Q1.95 -2.6 0.95 -3.55 L0.0 -4.35 M-1.65 1.5 L-0.75 1.55 -0.25 3.25 -1.95 4.4 -1.0 5.0 -1.75 6.95 -0.9 7.15 -1.5 7.85 Q-3.1 9.45 -5.5 8.85 L-2.55 5.85 -3.45 3.75 -4.75 3.05 Q-3.2 1.65 -1.65 1.5" fill="#ff0000" fill-rule="evenodd" stroke="none"/>
      <path d="M-11.7 6.2 L-11.85 3.65 -8.8 -1.35 -10.05 -5.4 -9.6 -5.95 -7.55 -5.6 -6.85 -5.4 -4.75 -3.25 -4.45 -2.7 -4.55 -4.0 -4.45 -4.65 -4.2 -5.1 -3.3 -4.95 Q-1.9 -4.05 -1.35 -2.5 -1.0 -1.3 -1.75 -0.3 L-2.65 -0.4 -3.65 -1.15 -4.15 -1.75 Q-3.7 0.2 -4.95 1.5 L-6.9 3.15 -7.25 3.6 -6.95 3.55 -6.15 3.9 -5.9 4.15 Q-6.15 5.45 -6.9 6.25 -7.25 6.05 -7.7 5.95 L-11.7 6.2" fill="#650101" fill-rule="evenodd" stroke="none"/>
      <path d="M9.7 -11.7 L10.15 -13.0 11.5 -11.85 11.6 -10.6 11.55 -10.25 Q11.55 -9.25 12.45 -8.8 L12.95 -8.55 11.8 -5.1 11.45 -3.6 11.1 -2.1 11.0 -1.65 10.9 -1.45 10.8 -0.95 10.6 -0.25 Q9.0 5.2 6.5 7.85 L3.65 12.15 3.05 11.95 3.05 11.55 Q3.05 10.75 3.35 10.0 L2.25 10.3 2.2 10.15 Q2.9 10.15 3.55 9.65 L4.25 8.7 Q4.35 8.6 4.55 8.45 L4.9 7.8 Q7.2 5.45 8.15 2.15 L8.65 -0.25 8.75 -1.15 8.55 -3.85 8.25 -5.1 6.75 -8.0 Q7.6 -8.0 8.2 -8.45 8.8 -8.9 8.8 -9.5 L9.7 -11.7" fill="#6a502d" fill-rule="evenodd" stroke="none"/>
      <path d="M24.3 -10.5 L24.3 -12.4 24.35 -10.5 24.3 -10.5" fill="#ffffff" fill-rule="evenodd" stroke="none"/>
      <path d="M6.75 -8.0 L8.25 -5.1 8.55 -3.85 8.75 -1.15 8.65 -0.25 8.15 2.15 Q7.2 5.45 4.9 7.8 L3.6 9.15 Q4.95 7.35 5.7 5.05 6.4 2.9 6.6 0.75 L6.7 -0.25 6.6 -3.15 6.45 -4.2 4.5 -3.3 5.1 -7.3 4.65 -7.95 2.1 -7.95 -0.85 -6.9 -2.5 -5.5 -2.35 -7.9 -1.7 -8.55 -0.4 -8.7 -0.2 -8.9 2.15 -9.95 4.15 -9.35 4.5 -8.9 5.45 -8.2 6.75 -8.0" fill="#731c0f" fill-rule="evenodd" stroke="none"/>
    </g>
  </defs>
</svg>
