<?xml version="1.0" encoding="UTF-8" standalone="no"?>
<svg xmlns:ffdec="https://www.free-decompiler.com/flash" xmlns:xlink="http://www.w3.org/1999/xlink" ffdec:objectType="frame" height="64.55px" width="21.65px" xmlns="http://www.w3.org/2000/svg">
  <g transform="matrix(1.0, 0.0, 0.0, 1.0, 10.65, 30.3)">
    <use ffdec:characterId="2126" height="43.1" transform="matrix(1.0, 0.0, 0.0, 1.0, -10.35, -28.85)" width="21.35" xlink:href="#shape0"/>
    <use ffdec:characterId="2125" ffdec:characterName="game_fla.fwhand2_420" height="20.0" id="hand" transform="matrix(1.0, 0.0, 0.0, 1.0, -7.55, 14.25)" width="16.2" xlink:href="#sprite0"/>
  </g>
  <defs>
    <g id="shape0" transform="matrix(1.0, 0.0, 0.0, 1.0, 10.35, 28.85)">
      <path d="M10.05 -11.8 L9.45 -9.75 6.6 -1.05 6.05 0.65 Q5.6 2.2 5.65 3.25 L5.65 5.5 5.6 5.7 5.75 8.1 6.0 9.55 6.2 11.0 6.6 14.0 6.65 14.25 0.15 14.25 0.0 14.0 -0.05 13.95 -1.4 11.0 -2.0 9.05 -2.15 8.7 -3.1 5.5 -4.6 0.4 -5.5 -2.8 -4.75 -2.75 Q-2.85 -2.75 -2.85 -5.3 -2.85 -5.7 -3.0 -5.95 L-3.0 -6.3 Q-3.0 -7.05 -3.15 -7.25 L-3.35 -7.5 Q-5.7 -7.9 -6.5 -6.9 L-6.6 -6.75 -7.35 -9.6 -7.85 -11.75 -7.2 -5.45 -7.25 -4.8 -7.1 -3.7 -6.85 -3.35 -6.5 -1.3 -5.2 5.5 -4.85 7.3 -4.8 7.55 -4.75 7.65 -4.5 9.15 -4.35 10.15 -4.2 11.0 -3.95 12.25 Q-3.75 13.65 -4.0 14.0 L-4.1 14.1 -4.15 14.25 -5.1 14.25 -5.15 14.0 -5.65 11.0 -6.15 8.55 -6.45 7.45 -6.45 7.35 -6.65 6.7 -6.8 5.95 -6.95 5.5 -8.05 1.3 -8.2 0.65 -9.75 -7.45 -10.35 -12.45 -5.85 -15.1 -4.6 -11.8 Q-3.75 -9.6 -2.0 -8.3 L-1.7 -7.8 2.4 -7.25 2.35 -7.2 2.3 -6.8 1.8 -2.65 1.5 -0.3 Q1.5 1.0 1.75 1.3 L2.75 1.55 3.9 1.3 4.25 1.0 Q4.25 -1.45 5.15 -3.35 L6.0 -5.4 6.0 -5.75 5.55 -7.4 3.85 -7.75 4.5 -10.05 5.7 -11.55 5.55 -13.3 7.5 -11.45 10.05 -11.8 M-0.75 -15.2 L0.65 -16.45 2.3 -13.05 Q0.85 -13.05 -0.2 -12.4 -1.2 -11.8 -1.25 -10.95 L-1.25 -12.35 -0.75 -15.2" fill="#ffcc99" fill-rule="evenodd" stroke="none"/>
      <path d="M0.15 14.25 L-4.15 14.25 -4.1 14.1 -4.0 14.0 Q-3.75 13.65 -3.95 12.25 L-4.2 11.0 -4.35 10.15 -4.5 9.15 -4.75 7.65 -4.8 7.55 -4.85 7.3 -5.2 5.5 -6.5 -1.3 -6.85 -3.35 Q-6.45 -2.9 -5.5 -2.8 L-4.6 0.4 -3.1 5.5 -2.15 8.7 -2.0 9.05 -1.4 11.0 -0.05 13.95 0.0 14.0 0.15 14.25 M-6.6 -6.75 L-6.65 -6.55 Q-7.1 -6.2 -7.2 -5.45 L-7.85 -11.75 -7.35 -9.6 -6.6 -6.75" fill="#ebbb98" fill-rule="evenodd" stroke="none"/>
      <path d="M1.95 -21.65 L1.4 -27.05 2.5 -26.45 Q4.7 -25.25 5.25 -22.65 L4.5 -21.9 3.2 -20.25 1.95 -21.65 M-4.9 -21.9 Q-5.7 -25.65 -4.0 -28.85 L-3.4 -28.05 Q-1.6 -25.25 -2.0 -21.9 L-3.85 -20.9 -4.9 -21.9" fill="#ffffff" fill-rule="evenodd" stroke="none"/>
      <path d="M1.95 -21.65 L3.2 -20.25 -0.25 -18.1 -0.3 -21.05 -1.05 -21.75 1.4 -21.15 1.95 -21.65 M4.5 -21.9 L5.25 -22.65 5.5 -22.85 6.0 -22.1 4.5 -21.9 M6.05 -22.05 L7.85 -17.5 5.7 -16.3 5.5 -14.25 10.15 -13.55 10.25 -16.7 10.65 -16.25 Q11.5 -14.15 10.35 -12.3 L10.05 -11.8 7.5 -11.45 5.55 -13.3 5.7 -11.55 4.5 -10.05 Q4.5 -11.3 3.85 -12.15 3.2 -13.05 2.3 -13.05 L0.65 -16.45 -0.75 -15.2 -0.55 -16.6 5.1 -20.1 4.9 -20.6 6.05 -22.05 M-10.35 -12.45 Q-10.55 -17.95 -6.0 -21.4 L-4.9 -21.9 -3.85 -20.9 -4.05 -19.5 -7.7 -18.3 -8.6 -17.25 -7.85 -16.5 -6.05 -16.95 -4.8 -15.55 -3.0 -16.1 -2.4 -12.0 -1.5 -11.6 -1.25 -12.35 -1.25 -10.95 -2.0 -8.3 Q-3.75 -9.6 -4.6 -11.8 L-5.85 -15.1 -10.35 -12.45 M2.3 -6.8 L2.35 -7.2 2.4 -7.25 2.3 -6.8 M1.8 -2.65 L2.05 -1.0 3.25 -1.0 6.0 -5.75 6.0 -5.4 5.15 -3.35 Q4.25 -1.45 4.25 1.0 L3.9 1.3 2.75 1.55 1.75 1.3 Q1.5 1.0 1.5 -0.3 L1.8 -2.65 M-6.65 -6.55 L-6.85 -5.6 -6.15 -4.9 Q-5.55 -4.5 -4.75 -4.5 L-3.85 -4.75 Q-3.15 -5.15 -3.0 -5.95 -2.85 -5.7 -2.85 -5.3 -2.85 -2.75 -4.75 -2.75 L-5.5 -2.8 Q-6.45 -2.9 -6.85 -3.35 L-7.1 -3.7 -7.25 -4.8 -7.2 -5.45 Q-7.1 -6.2 -6.65 -6.55" fill="#990000" fill-rule="evenodd" stroke="none"/>
      <path d="M3.2 -20.25 L4.5 -21.9 6.0 -22.1 6.05 -22.05 4.9 -20.6 5.1 -20.1 -0.55 -16.6 -0.75 -15.2 -1.25 -12.35 -1.5 -11.6 -2.4 -12.0 -3.0 -16.1 -4.8 -15.55 -6.05 -16.95 -7.85 -16.5 -8.6 -17.25 -7.7 -18.3 -4.05 -19.5 -3.85 -20.9 -2.0 -21.9 -1.05 -21.75 -0.3 -21.05 -0.25 -18.1 3.2 -20.25 M7.85 -17.5 Q9.7 -17.9 10.25 -16.7 L10.15 -13.55 5.5 -14.25 5.7 -16.3 7.85 -17.5 M2.3 -13.05 Q3.2 -13.05 3.85 -12.15 4.5 -11.3 4.5 -10.05 L3.85 -7.75 5.55 -7.4 6.0 -5.75 3.25 -1.0 2.05 -1.0 1.8 -2.65 2.3 -6.8 2.4 -7.25 -1.7 -7.8 -2.0 -8.3 -1.25 -10.95 Q-1.2 -11.8 -0.2 -12.4 0.85 -13.05 2.3 -13.05 M-6.6 -6.75 L-6.5 -6.9 Q-5.7 -7.9 -3.35 -7.5 L-3.15 -7.25 Q-3.0 -7.05 -3.0 -6.3 L-3.0 -5.95 Q-3.15 -5.15 -3.85 -4.75 L-4.75 -4.5 Q-5.55 -4.5 -6.15 -4.9 L-6.85 -5.6 -6.65 -6.55 -6.6 -6.75" fill="#ff0000" fill-rule="evenodd" stroke="none"/>
    </g>
    <g id="sprite0" transform="matrix(1.0, 0.0, 0.0, 1.0, 8.4, 8.0)">
      <use ffdec:characterId="2123" height="16.05" transform="matrix(1.0, 0.0, 0.0, 1.0, -7.25, -8.0)" width="14.45" xlink:href="#shape1"/>
    </g>
    <g id="shape1" transform="matrix(1.0, 0.0, 0.0, 1.0, 7.25, 8.0)">
      <path d="M-0.7 -8.0 L5.8 -8.0 6.15 -5.4 6.55 -3.9 Q7.45 -1.1 7.15 0.35 L7.05 0.9 Q6.8 3.25 6.35 4.4 L5.7 5.4 5.0 6.0 4.75 6.15 3.25 6.9 Q2.3 7.1 1.5 7.7 0.65 8.2 -0.2 7.95 L-0.4 7.9 Q-1.2 7.7 -1.5 6.95 L-0.6 7.25 -0.4 7.25 -0.15 7.1 -0.1 7.1 -0.4 6.95 Q-0.85 6.55 -0.85 5.3 L-0.4 4.75 -0.3 4.7 0.2 4.5 0.35 4.45 1.0 5.15 1.1 5.4 1.45 6.25 1.55 6.2 2.15 5.7 2.55 5.25 2.95 4.85 3.95 3.95 3.55 3.15 Q3.15 2.55 3.3 0.85 L2.35 0.35 1.25 1.5 0.5 2.5 0.05 3.5 -0.2 3.95 -0.4 4.2 -0.9 4.4 -1.5 4.35 -2.05 4.15 -3.1 3.45 Q-3.95 2.9 -4.05 2.15 -4.15 1.4 -2.8 1.95 L-2.5 1.95 -2.65 1.2 Q-2.35 1.15 -2.35 0.1 -2.35 -1.4 -1.9 -2.35 L-1.3 -3.3 -1.25 -3.9 -1.5 -4.65 Q-1.75 -5.15 -2.95 -5.55 L-3.5 -5.7 -3.45 -5.95 -3.7 -6.8 -3.95 -7.45 -3.8 -7.7 -1.95 -7.25 -0.35 -7.0 Q-0.05 -7.0 -0.7 -8.0 M-6.45 -0.95 L-6.4 -1.25 Q-6.35 -1.95 -6.45 -2.65 L-6.5 -3.65 Q-6.75 -5.6 -5.95 -7.2 L-5.95 -8.0 -5.0 -8.0 -5.05 -7.1 -4.85 -5.45 -5.2 -5.2 Q-5.6 -4.9 -5.5 -3.8 -5.7 -2.05 -6.2 -1.35 L-6.35 -1.1 -6.45 -0.95 M-2.1 5.85 L-2.05 5.85 -2.15 5.95 -2.1 5.85" fill="#ffcc99" fill-rule="evenodd" stroke="none"/>
      <path d="M-1.5 6.95 L-2.55 6.75 -3.15 6.5 -3.3 6.4 -3.85 5.65 Q-4.4 4.6 -4.7 4.6 L-5.2 4.4 Q-6.45 3.75 -5.75 2.25 -7.6 1.65 -7.15 0.0 L-6.6 -0.7 -6.45 -0.95 -6.35 -1.1 -6.2 -1.35 Q-5.7 -2.05 -5.5 -3.8 -5.6 -4.9 -5.2 -5.2 L-4.85 -5.45 -5.05 -7.1 -5.0 -8.0 -0.7 -8.0 Q-0.05 -7.0 -0.35 -7.0 L-1.95 -7.25 -3.8 -7.7 -3.95 -7.45 -3.7 -6.8 -3.45 -5.95 -3.5 -5.7 -2.95 -5.55 Q-1.75 -5.15 -1.5 -4.65 L-1.25 -3.9 -1.3 -3.3 -1.9 -2.35 Q-2.35 -1.4 -2.35 0.1 -2.35 1.15 -2.65 1.2 L-2.5 1.95 -2.8 1.95 Q-4.15 1.4 -4.05 2.15 -3.95 2.9 -3.1 3.45 L-2.05 4.15 -2.4 4.9 -2.1 5.85 -2.15 5.95 -2.05 5.85 -1.4 5.65 -1.2 5.05 -1.5 4.35 -0.9 4.4 -0.4 4.2 -0.2 3.95 0.05 3.5 0.5 2.5 0.9 2.85 2.15 2.65 1.9 1.85 1.5 1.55 1.25 1.5 2.35 0.35 3.3 0.85 Q3.15 2.55 3.55 3.15 L3.95 3.95 2.95 4.85 2.55 5.25 2.15 5.7 1.55 6.2 1.45 6.25 1.1 5.4 1.0 5.15 0.35 4.45 0.2 4.5 -0.3 4.7 -0.4 4.75 -0.85 5.3 Q-0.85 6.55 -0.4 6.95 L-0.1 7.1 -0.15 7.1 -0.4 7.25 -0.6 7.25 -1.5 6.95 M-4.7 4.6 L-4.9 2.9 -4.1 1.35 -3.15 1.0 -2.65 -0.85 Q-2.4 -2.55 -2.9 -3.9 L-5.4 -1.1 -4.4 0.6 -4.85 1.6 -5.0 2.0 Q-5.4 3.35 -4.7 4.6 M-2.7 4.6 L-3.0 3.75 Q-3.55 4.1 -3.5 5.25 L-3.45 5.95 Q-2.9 5.35 -2.7 4.6" fill="#ebbb98" fill-rule="evenodd" stroke="none"/>
      <path d="M-2.05 4.15 L-1.5 4.35 -1.2 5.05 -1.4 5.65 -2.05 5.85 -2.1 5.85 -2.4 4.9 -2.05 4.15 M0.5 2.5 L1.25 1.5 1.5 1.55 1.9 1.85 2.15 2.65 0.9 2.85 0.5 2.5 M-4.7 4.6 Q-5.4 3.35 -5.0 2.0 L-4.85 1.6 -4.4 0.6 -5.4 -1.1 -2.9 -3.9 Q-2.4 -2.55 -2.65 -0.85 L-3.15 1.0 -4.1 1.35 -4.9 2.9 -4.7 4.6 M-2.7 4.6 Q-2.9 5.35 -3.45 5.95 L-3.5 5.25 Q-3.55 4.1 -3.0 3.75 L-2.7 4.6" fill="#e2b181" fill-rule="evenodd" stroke="none"/>
    </g>
  </defs>
</svg>
