<?xml version="1.0" encoding="UTF-8" standalone="no"?>
<svg xmlns:ffdec="https://www.free-decompiler.com/flash" xmlns:xlink="http://www.w3.org/1999/xlink" ffdec:objectType="frame" height="89.35px" width="59.95px" xmlns="http://www.w3.org/2000/svg">
  <g transform="matrix(1.0, 0.0, 0.0, 1.0, 31.25, 45.65)">
    <use ffdec:characterId="1905" height="89.35" transform="matrix(1.0, 0.0, 0.0, 1.0, -31.25, -45.65)" width="59.95" xlink:href="#shape0"/>
  </g>
  <defs>
    <g id="shape0" transform="matrix(1.0, 0.0, 0.0, 1.0, 31.25, 45.65)">
      <path d="M-2.9 -40.75 L-2.75 -43.15 Q-2.35 -45.55 -0.85 -45.6 1.2 -45.75 2.0 -45.15 L2.25 -44.4 1.25 -41.75 1.3 -37.85 -0.8 -35.75 -2.85 -36.45 -2.95 -36.5 -2.9 -40.75" fill="#ffffff" fill-rule="evenodd" stroke="none"/>
      <path d="M22.15 -27.0 L16.65 -27.15 16.1 -26.7 14.45 -26.9 14.3 -29.0 12.15 -29.35 12.75 -30.85 21.05 -29.1 22.15 -27.0 M12.65 -25.75 L12.4 -24.2 13.0 -23.45 15.1 -23.35 16.35 -24.55 15.95 -23.45 Q15.5 -22.35 14.2 -22.1 12.4 -22.1 11.3 -23.5 L12.4 -25.6 12.65 -25.75 M16.5 -24.95 L16.4 -26.2 22.15 -25.1 23.5 -24.55 22.4 -22.35 16.5 -24.95 M25.35 -24.85 L25.85 -22.85 25.7 -22.15 25.45 -22.3 24.3 -24.35 24.85 -24.35 25.35 -24.85 M-27.9 -23.55 L-26.65 -24.55 -26.15 -25.0 -25.7 -24.3 -26.7 -22.45 -27.9 -23.55 M-24.95 -27.15 L-23.65 -29.3 Q-21.05 -33.35 -16.4 -34.65 L-16.0 -34.45 -11.65 -38.85 -11.7 -38.05 -6.15 -36.85 -8.3 -35.25 -4.65 -35.15 -3.25 -33.75 -2.45 -34.25 -0.25 -32.4 Q2.55 -27.7 -1.45 -28.05 L-2.1 -28.15 Q-3.2 -28.3 -4.7 -28.8 L-6.0 -31.25 -6.75 -29.05 Q-6.9 -28.5 -7.55 -28.55 L-10.25 -31.45 -6.35 -33.25 -6.75 -33.8 Q-10.5 -34.35 -14.25 -33.1 L-16.0 -32.4 -16.5 -32.1 -17.5 -31.25 -20.55 -31.15 -21.5 -29.0 -14.6 -27.8 -21.55 -23.25 -22.25 -24.0 -21.0 -25.9 -22.75 -26.95 -24.5 -26.35 -24.95 -27.15 M-6.05 -39.3 L-2.9 -40.75 -2.95 -36.5 -6.05 -39.3 M1.25 -41.75 L2.4 -41.5 6.35 -37.5 5.85 -36.4 8.05 -35.65 8.85 -36.05 9.1 -37.9 11.6 -36.75 10.7 -37.05 10.05 -35.25 13.15 -33.05 12.9 -32.6 11.6 -32.6 9.55 -31.7 7.2 -33.15 7.05 -33.1 Q4.25 -32.7 3.75 -33.85 3.25 -30.1 0.85 -33.6 L0.9 -34.1 1.3 -34.4 1.4 -35.25 0.45 -35.05 -0.8 -35.75 1.3 -37.85 1.25 -41.75 M4.05 -29.35 L3.65 -30.25 4.7 -32.1 5.75 -30.8 Q7.65 -28.95 9.6 -31.35 L11.6 -30.95 11.7 -30.9 10.7 -29.9 10.05 -30.15 9.5 -29.0 6.3 -27.35 5.9 -27.6 Q4.55 -28.05 4.05 -29.35 M16.7 -20.7 L17.05 -21.35 16.65 -20.1 18.7 -18.35 19.1 -18.55 18.05 -17.05 15.85 -18.2 16.2 -19.5 16.7 -20.7 M13.4 -32.4 L13.25 -33.0 14.75 -32.05 13.4 -32.4 M17.55 -14.9 L18.5 -14.3 19.4 -14.45 20.9 -18.75 20.35 -15.15 20.25 -14.6 Q19.55 -12.15 17.9 -13.55 L17.55 -14.9 M-12.45 -13.05 L-12.6 -13.05 -13.15 -13.05 -13.65 -13.5 -13.55 -14.6 Q-13.3 -15.9 -12.25 -16.95 L-13.45 -14.9 -13.15 -14.05 -12.45 -13.8 -12.4 -13.8 Q-9.6 -16.8 -10.3 -20.65 L-10.7 -22.45 -9.3 -22.95 -7.55 -21.8 -6.55 -21.9 -5.6 -23.05 -5.7 -21.4 -6.35 -20.85 -7.05 -20.8 Q-8.75 -21.15 -9.95 -22.6 -9.25 -17.6 -10.95 -13.15 L-12.45 -13.05 M-13.75 -28.25 L-17.15 -31.1 -14.2 -32.7 -13.65 -31.7 -11.7 -31.25 -11.85 -30.55 -11.4 -29.5 -13.75 -28.25 M-15.35 -23.0 L-15.35 -21.7 Q-16.7 -20.1 -18.35 -21.4 L-18.95 -21.95 -19.05 -23.3 -18.65 -24.15 -18.6 -22.95 Q-17.3 -21.8 -16.0 -22.5 L-15.35 -23.0" fill="#990000" fill-rule="evenodd" stroke="none"/>
      <path d="M22.15 -27.0 L24.3 -26.25 24.25 -26.15 23.5 -24.55 22.15 -25.1 16.4 -26.2 16.5 -24.95 16.35 -24.55 15.1 -23.35 13.0 -23.45 12.4 -24.2 12.65 -25.75 14.45 -26.9 16.1 -26.7 16.65 -27.15 22.15 -27.0 M24.9 -25.65 L25.35 -24.85 24.85 -24.35 24.3 -24.35 24.75 -25.85 24.9 -25.65 M-11.65 -38.85 L-10.7 -39.5 -6.05 -39.3 -2.95 -36.5 -2.85 -36.45 -0.8 -35.75 0.45 -35.05 1.4 -35.25 1.3 -34.4 0.9 -34.1 0.85 -33.6 -0.25 -32.4 -2.45 -34.25 -3.25 -33.75 -4.65 -35.15 -8.3 -35.25 -6.15 -36.85 -11.7 -38.05 -11.65 -38.85 M2.4 -41.5 L9.1 -37.9 8.85 -36.05 8.05 -35.65 5.85 -36.4 6.35 -37.5 2.4 -41.5 M11.6 -36.75 L11.65 -36.75 12.35 -35.75 12.3 -34.85 15.15 -33.6 Q17.25 -32.7 17.9 -30.6 L21.05 -29.1 12.75 -30.85 13.4 -32.4 14.75 -32.05 13.25 -33.0 13.15 -33.05 10.05 -35.25 10.7 -37.05 11.6 -36.75 M7.05 -33.1 L7.2 -33.15 9.55 -31.7 11.6 -32.6 12.9 -32.6 11.7 -30.9 11.6 -30.95 9.6 -31.35 Q7.65 -28.95 5.75 -30.8 L4.7 -32.1 5.5 -32.85 7.05 -33.1 M17.05 -21.35 L17.9 -21.8 19.7 -21.65 20.5 -21.25 20.65 -20.8 21.0 -20.55 20.95 -19.65 20.9 -18.75 19.4 -14.45 18.5 -14.3 17.55 -14.9 17.3 -15.6 18.05 -17.05 19.1 -18.55 18.7 -18.35 16.65 -20.1 17.05 -21.35 M-11.7 -31.25 L-13.65 -31.7 -14.2 -32.7 -17.15 -31.1 -13.75 -28.25 -14.6 -27.8 -21.5 -29.0 -20.55 -31.15 -17.5 -31.25 -16.5 -32.1 -16.0 -32.4 -14.25 -33.1 Q-10.5 -34.35 -6.75 -33.8 L-6.35 -33.25 -10.25 -31.45 Q-10.25 -32.35 -10.5 -32.8 -10.75 -33.25 -11.05 -33.15 L-11.55 -32.45 -11.7 -31.25 M-15.5 -24.9 L-15.05 -23.75 -15.35 -23.0 -16.0 -22.5 Q-17.3 -21.8 -18.6 -22.95 L-18.65 -24.15 Q-17.1 -25.9 -15.5 -24.9 M-22.25 -24.0 L-24.5 -26.35 -22.75 -26.95 -21.0 -25.9 -22.25 -24.0 M-13.55 -21.1 L-14.0 -23.6 -13.25 -23.95 -8.8 -24.35 -5.95 -24.0 -5.6 -23.05 -6.55 -21.9 -7.55 -21.8 -9.3 -22.95 -10.7 -22.45 -10.3 -20.65 Q-9.6 -16.8 -12.4 -13.8 L-12.45 -13.8 -13.15 -14.05 -13.45 -14.9 -12.25 -16.95 -13.55 -21.1" fill="#ff0000" fill-rule="evenodd" stroke="none"/>
      <path d="M25.7 -22.15 L25.75 -22.1 25.45 -22.3 25.7 -22.15" fill="#ffcc99" fill-rule="evenodd" stroke="none"/>
      <path d="M24.75 -26.0 L24.9 -25.65 24.75 -25.85 24.75 -26.0 M25.75 -22.1 L25.9 -22.1 25.9 -22.05 25.8 -22.05 25.75 -22.1 M20.9 -18.75 L20.95 -19.65 22.1 -18.5 Q22.85 -17.55 23.1 -16.5 L23.45 -18.55 24.4 -17.35 24.85 -10.25 24.85 -10.05 24.6 -7.25 23.35 -0.45 Q22.65 2.9 22.3 5.85 L22.25 6.35 Q21.15 10.25 18.75 16.4 17.15 20.4 17.1 23.15 L17.1 23.5 17.05 24.25 17.05 27.2 17.1 30.0 Q17.2 32.15 15.8 34.6 14.4 37.05 12.55 38.3 L9.15 40.4 Q7.55 41.3 5.05 41.9 L-1.25 41.65 Q-5.05 40.75 -8.25 38.85 -11.45 36.9 -14.65 32.0 L-17.95 26.8 -18.6 24.75 -20.3 19.0 Q-20.0 16.85 -18.65 12.65 -16.9 7.15 -16.9 3.85 L-17.05 0.0 -18.25 5.0 -18.85 6.8 Q-19.55 1.05 -22.35 -7.25 L-22.8 -8.5 -23.4 -10.25 Q-25.25 -15.6 -26.0 -19.6 L-24.85 -18.05 -24.9 -21.85 -24.25 -21.5 -24.1 -21.15 -19.35 -12.1 -18.4 -10.25 -17.2 -7.25 -17.0 -6.45 Q-16.8 -4.95 -16.1 -5.75 L-15.05 -7.15 -15.0 -7.25 -13.55 -10.25 -13.2 -11.05 -12.6 -13.05 -12.45 -13.05 -12.6 -10.25 -12.7 -7.25 Q-13.15 3.3 -12.6 3.8 L-12.0 4.95 -12.3 5.7 -12.4 5.5 -12.55 5.6 -12.6 6.7 -13.45 10.55 -13.6 11.6 -14.4 12.85 Q-15.3 14.1 -17.85 16.75 -18.9 17.8 -18.9 19.85 L-18.55 21.25 -18.35 21.6 Q-18.1 23.25 -17.1 24.8 -16.05 26.5 -13.15 29.5 L-11.2 31.85 -9.05 34.1 -8.6 34.45 -6.7 36.15 -3.95 37.7 -3.0 38.0 -2.35 38.15 -0.45 38.75 Q1.05 39.2 3.8 38.25 L7.6 36.95 8.7 36.35 9.8 35.45 10.8 34.5 13.3 31.6 14.35 29.65 14.8 28.2 15.15 26.25 15.25 25.25 15.3 24.5 15.3 23.4 15.3 23.25 15.3 23.05 14.9 17.75 14.85 17.1 15.0 15.85 14.95 14.35 17.0 6.15 Q18.1 1.2 19.4 -7.25 L19.85 -10.25 20.35 -14.15 20.25 -14.6 20.35 -15.15 20.9 -18.75" fill="#336699" fill-rule="evenodd" stroke="none"/>
      <path d="M-4.25 -26.6 L-3.25 -26.0 -2.05 -25.95 -1.9 -20.75 -2.75 -13.15 -2.75 -10.25 -2.8 -7.25 -3.05 0.65 -2.25 -2.95 Q-2.25 -3.9 -1.45 -6.35 L-1.65 -14.25 -1.45 -25.9 -1.45 -25.95 -0.6 -25.95 Q0.35 -25.95 1.05 -26.4 1.7 -26.9 1.7 -27.55 L1.9 -28.4 1.85 -26.95 0.1 -24.6 -0.05 -23.85 Q-0.6 -20.85 2.45 -20.0 3.0 -20.0 3.4 -20.35 3.75 -20.75 3.75 -21.3 L4.05 -22.2 2.95 -24.5 3.75 -26.25 4.3 -26.3 Q5.65 -25.5 6.65 -24.05 7.8 -22.25 7.8 -20.2 L7.7 -16.5 9.3 -14.8 12.3 -20.75 13.95 -19.75 16.7 -20.7 16.2 -19.5 15.85 -18.2 18.05 -17.05 17.3 -15.6 17.55 -14.9 17.9 -13.55 Q19.55 -12.15 20.25 -14.6 L20.35 -14.15 19.85 -10.25 19.4 -7.25 Q18.1 1.2 17.0 6.15 L14.95 14.35 15.0 15.85 14.85 17.1 14.9 17.75 15.3 23.05 15.3 23.25 15.3 23.4 15.3 24.5 15.25 25.25 15.15 26.25 14.8 28.2 14.35 29.65 13.3 31.6 10.8 34.5 9.8 35.45 8.7 36.35 7.6 36.95 3.8 38.25 Q1.05 39.2 -0.45 38.75 L-2.35 38.15 -3.0 38.0 -3.95 37.7 -6.7 36.15 -8.6 34.45 -9.05 34.1 -11.2 31.85 -13.15 29.5 Q-16.05 26.5 -17.1 24.8 -18.1 23.25 -18.35 21.6 L-18.55 21.25 -18.9 19.85 Q-18.9 17.8 -17.85 16.75 -15.3 14.1 -14.4 12.85 L-13.6 11.6 -13.45 10.55 -12.6 6.7 -12.55 5.6 -12.4 5.5 -12.3 5.7 -12.0 4.95 -12.6 3.8 Q-13.15 3.3 -12.7 -7.25 L-12.6 -10.25 -12.45 -13.05 -10.95 -13.15 Q-9.25 -17.6 -9.95 -22.6 -8.75 -21.15 -7.05 -20.8 L-6.35 -20.85 -5.7 -21.4 -5.6 -23.05 -5.95 -24.0 -8.8 -24.35 -7.9 -26.5 -6.85 -25.85 -4.25 -26.6 M13.65 -14.65 Q13.05 -14.05 13.05 -13.2 13.05 -12.35 13.65 -11.75 14.25 -11.15 15.1 -11.15 15.95 -11.15 16.55 -11.75 17.15 -12.35 17.15 -13.2 17.15 -14.05 16.55 -14.65 15.95 -15.25 15.1 -15.25 14.25 -15.25 13.65 -14.65 M-12.6 -13.05 L-13.2 -11.05 -13.55 -10.25 -15.0 -7.25 -15.05 -7.15 -16.1 -5.75 Q-16.8 -4.95 -17.0 -6.45 L-17.2 -7.25 -18.4 -10.25 -19.35 -12.1 -24.1 -21.15 -24.25 -21.5 -23.65 -21.15 -22.45 -21.75 -19.1 -20.15 Q-20.3 -19.0 -20.25 -17.6 -20.2 -14.8 -17.7 -15.8 L-17.2 -19.4 -15.3 -20.0 -14.8 -19.6 -13.55 -21.1 -12.25 -16.95 Q-13.3 -15.9 -13.55 -14.6 L-13.65 -13.5 -13.15 -13.05 -12.6 -13.05 M-8.6 -19.6 L-9.2 -18.4 -8.15 -16.05 -8.75 -15.25 -8.7 -14.3 -6.75 -13.75 -6.1 -15.5 -4.75 -16.6 -4.7 -18.6 -6.2 -19.55 -8.6 -19.6 M-1.25 2.35 L-3.45 8.3 -3.65 11.15 -3.3 14.8 -3.2 14.0 Q-2.25 8.05 -1.15 5.65 L-1.25 2.35" fill="#2e5d8c" fill-rule="evenodd" stroke="none"/>
      <path d="M26.85 -12.5 L26.9 -9.35 26.6 -7.6 26.55 -7.25 Q24.8 3.8 22.85 10.85 L22.0 14.0 20.05 20.35 20.0 20.55 Q19.55 21.5 19.35 22.75 L19.3 23.35 19.2 24.05 19.0 27.25 Q19.0 29.4 17.05 33.55 15.1 37.65 12.05 40.4 9.0 43.15 2.7 43.7 -3.2 43.55 -6.1 42.4 -9.0 41.25 -12.1 38.9 -15.25 36.5 -16.6 32.6 L-17.3 29.95 -17.9 28.75 -19.3 25.1 -20.3 21.3 -20.5 20.35 -20.85 19.85 Q-22.15 17.55 -21.8 14.25 -21.15 11.0 -21.15 10.1 -21.15 8.65 -24.15 -2.45 L-25.5 -7.25 -26.35 -10.25 -27.0 -12.4 -27.55 -19.5 -27.7 -19.65 -26.4 -20.1 -26.0 -19.6 Q-25.25 -15.6 -23.4 -10.25 L-22.8 -8.5 -22.35 -7.25 Q-19.55 1.05 -18.85 6.8 L-18.25 5.0 -17.05 0.0 -16.9 3.85 Q-16.9 7.15 -18.65 12.65 -20.0 16.85 -20.3 19.0 L-18.6 24.75 -17.95 26.8 -14.65 32.0 Q-11.45 36.9 -8.25 38.85 -5.05 40.75 -1.25 41.65 L5.05 41.9 Q7.55 41.3 9.15 40.4 L12.55 38.3 Q14.4 37.05 15.8 34.6 17.2 32.15 17.1 30.0 L17.05 27.2 17.05 24.25 17.1 23.5 17.1 23.15 Q17.15 20.4 18.75 16.4 21.15 10.25 22.25 6.35 L22.3 5.85 Q22.65 2.9 23.35 -0.45 L24.6 -7.25 24.85 -10.05 24.85 -10.25 24.4 -17.35 24.7 -17.0 26.85 -12.5 M-26.65 -24.55 L-26.65 -24.65 -26.65 -24.55" fill="#5383b4" fill-rule="evenodd" stroke="none"/>
      <path d="M-2.05 -25.95 L-1.45 -25.95 -1.45 -25.9 -1.65 -14.25 -1.45 -6.35 Q-2.25 -3.9 -2.25 -2.95 L-3.05 0.65 -2.8 -7.25 -2.75 -10.25 -2.75 -13.15 -1.9 -20.75 -2.05 -25.95 M-1.25 2.35 L-1.15 5.65 Q-2.25 8.05 -3.2 14.0 L-3.3 14.8 -3.65 11.15 -3.45 8.3 -1.25 2.35" fill="#2a547e" fill-rule="evenodd" stroke="none"/>
      <path d="M14.45 -26.9 L12.65 -25.75 12.4 -25.6 11.6 -25.85 12.15 -29.35 14.3 -29.0 14.45 -26.9 M16.35 -24.55 L16.5 -24.95 22.4 -22.35 20.9 -21.1 20.5 -21.25 19.7 -21.65 15.95 -23.45 16.35 -24.55 M7.05 -33.1 L5.5 -32.85 4.7 -32.1 3.65 -30.25 4.05 -29.35 3.65 -29.5 1.9 -28.4 1.7 -27.55 Q1.7 -26.9 1.05 -26.4 0.35 -25.95 -0.6 -25.95 L-1.45 -25.95 -2.05 -25.95 -3.25 -26.0 -4.25 -26.6 -7.55 -28.55 Q-6.9 -28.5 -6.75 -29.05 L-6.0 -31.25 -4.7 -28.8 Q-3.2 -28.3 -2.1 -28.15 L-1.45 -28.05 Q2.55 -27.7 -0.25 -32.4 L0.85 -33.6 Q3.25 -30.1 3.75 -33.85 4.25 -32.7 7.05 -33.1 M9.5 -29.0 L10.05 -30.15 10.7 -29.9 9.5 -29.0 M-14.6 -27.8 L-13.75 -28.25 -11.4 -29.5 Q-11.4 -27.6 -12.6 -26.25 -13.8 -24.9 -15.5 -24.9 -17.1 -25.9 -18.65 -24.15 L-19.05 -23.3 -20.85 -22.6 -21.55 -23.25 -14.6 -27.8" fill="#583a30" fill-rule="evenodd" stroke="none"/>
      <path d="M23.5 -24.55 L24.25 -26.15 24.3 -26.25 24.8 -26.75 24.75 -26.0 24.75 -25.85 24.3 -24.35 25.45 -22.3 25.75 -22.1 25.8 -22.05 25.9 -22.05 26.05 -22.1 28.25 -24.15 28.5 -24.2 Q29.0 -23.25 28.2 -22.25 L28.1 -22.1 27.85 -21.75 27.3 -17.8 26.75 -17.6 26.85 -12.5 24.7 -17.0 24.4 -17.35 23.45 -18.55 23.1 -16.5 Q22.85 -17.55 22.1 -18.5 L20.95 -19.65 21.0 -20.55 20.65 -20.8 20.5 -21.25 20.9 -21.1 22.4 -22.35 23.5 -24.55 M-27.7 -19.65 L-31.25 -24.25 -30.5 -24.55 Q-28.95 -24.65 -27.95 -23.65 L-27.9 -23.55 -26.7 -22.45 -25.7 -24.3 -26.15 -25.0 -28.7 -28.25 -28.6 -28.75 -26.8 -27.9 -27.2 -32.65 -24.95 -27.15 -24.5 -26.35 -22.25 -24.0 -21.55 -23.25 -20.85 -22.6 -19.05 -23.3 -18.95 -21.95 -18.35 -21.4 Q-16.7 -20.1 -15.35 -21.7 L-15.35 -23.0 -15.05 -23.75 -15.5 -24.9 Q-13.8 -24.9 -12.6 -26.25 -11.4 -27.6 -11.4 -29.5 L-11.85 -30.55 -11.7 -31.25 -11.55 -32.45 -11.05 -33.15 Q-10.75 -33.25 -10.5 -32.8 -10.25 -32.35 -10.25 -31.45 L-7.55 -28.55 -4.25 -26.6 -6.85 -25.85 -7.9 -26.5 -8.8 -24.35 -13.25 -23.95 -14.0 -23.6 -13.55 -21.1 -14.8 -19.6 -15.3 -20.0 -17.2 -19.4 -17.7 -15.8 Q-20.2 -14.8 -20.25 -17.6 -20.3 -19.0 -19.1 -20.15 L-22.45 -21.75 -23.65 -21.15 -24.25 -21.5 -24.9 -21.85 -24.85 -18.05 -26.0 -19.6 -26.4 -20.1 -27.7 -19.65 M12.9 -32.6 L13.15 -33.05 13.25 -33.0 13.4 -32.4 12.75 -30.85 12.15 -29.35 11.6 -25.85 12.4 -25.6 11.3 -23.5 Q12.4 -22.1 14.2 -22.1 15.5 -22.35 15.95 -23.45 L19.7 -21.65 17.9 -21.8 17.05 -21.35 16.7 -20.7 13.95 -19.75 12.3 -20.75 9.3 -14.8 7.7 -16.5 7.8 -20.2 Q7.8 -22.25 6.65 -24.05 5.65 -25.5 4.3 -26.3 L3.75 -26.25 2.95 -24.5 4.05 -22.2 3.75 -21.3 Q3.75 -20.75 3.4 -20.35 3.0 -20.0 2.45 -20.0 -0.6 -20.85 -0.05 -23.85 L0.1 -24.6 1.85 -26.95 1.9 -28.4 3.65 -29.5 4.05 -29.35 Q4.55 -28.05 5.9 -27.6 L6.3 -27.35 9.5 -29.0 10.7 -29.9 11.7 -30.9 12.9 -32.6 M13.65 -14.65 Q14.25 -15.25 15.1 -15.25 15.95 -15.25 16.55 -14.65 17.15 -14.05 17.15 -13.2 17.15 -12.35 16.55 -11.75 15.95 -11.15 15.1 -11.15 14.25 -11.15 13.65 -11.75 13.05 -12.35 13.05 -13.2 13.05 -14.05 13.65 -14.65 M-8.6 -19.6 L-6.2 -19.55 -4.7 -18.6 -4.75 -16.6 -6.1 -15.5 -6.75 -13.75 -8.7 -14.3 -8.75 -15.25 -8.15 -16.05 -9.2 -18.4 -8.6 -19.6" fill="#642d45" fill-rule="evenodd" stroke="none"/>
    </g>
  </defs>
</svg>
