<?xml version="1.0" encoding="UTF-8" standalone="no"?>
<svg xmlns:ffdec="https://www.free-decompiler.com/flash" xmlns:xlink="http://www.w3.org/1999/xlink" ffdec:objectType="frame" height="292.65px" width="52.95px" xmlns="http://www.w3.org/2000/svg">
  <g transform="matrix(1.0, 0.0, 0.0, 1.0, 25.1, 101.55)">
    <use ffdec:characterId="2306" height="110.0" id="arm2" transform="matrix(1.0, 0.0, 0.0, 1.0, -8.45, -31.45)" width="19.95" xlink:href="#sprite0"/>
    <use ffdec:characterId="2319" height="151.4" id="leg2" transform="matrix(1.0, 0.0, 0.0, 1.0, -17.05, 37.75)" width="40.25" xlink:href="#sprite6"/>
    <use ffdec:characterId="2335" height="79.65" id="headOuter" transform="matrix(1.0, 0.0, 0.0, 1.0, -12.1, -101.55)" width="38.3" xlink:href="#sprite10"/>
    <use ffdec:characterId="2352" ffdec:characterName="game_fla.chest_349" height="100.15" id="chest" transform="matrix(1.0, 0.0, 0.0, 1.0, -25.1, -55.7)" width="52.95" xlink:href="#sprite15"/>
    <use ffdec:characterId="2365" ffdec:characterName="game_fla.pelvis_358" height="56.95" id="pelvis" transform="matrix(0.999, -7.0E-4, 7.0E-4, 0.999, -25.1012, 12.1048)" width="47.65" xlink:href="#sprite18"/>
    <use ffdec:characterId="2377" height="153.55" id="leg1" transform="matrix(1.0, 0.0, 0.0, 1.0, -18.3, 37.55)" width="40.25" xlink:href="#sprite20"/>
    <use ffdec:characterId="2387" height="123.7" id="arm1" transform="matrix(1.0, 0.0, 0.0, 1.0, -13.0, -38.95)" width="26.5" xlink:href="#sprite24"/>
  </g>
  <defs>
    <g id="sprite0" transform="matrix(1.0, 0.0, 0.0, 1.0, 9.1, 13.35)">
      <use ffdec:characterId="2301" ffdec:characterName="game_fla.upperarm2_333" height="55.9" id="upperArm2" transform="matrix(1.0, 0.0, 0.0, 1.0, -9.1, -13.35)" width="19.2" xlink:href="#sprite1"/>
      <use ffdec:characterId="2305" height="66.15" id="lowerArmOuter2" transform="matrix(1.0, 0.0, 0.0, 1.0, -6.05, 30.5)" width="16.9" xlink:href="#sprite3"/>
    </g>
    <g id="sprite1" transform="matrix(1.0, 0.0, 0.0, 1.0, 9.7, 29.6)">
      <use ffdec:characterId="2297" height="52.25" transform="matrix(1.0, 0.0, 0.0, 1.0, -9.7, -25.95)" width="19.2" xlink:href="#shape0"/>
      <use ffdec:characterId="1081" height="100.0" id="shape" transform="matrix(0.18, 0.0, 0.0, 0.52, -8.9996, -25.9995)" width="100.0" xlink:href="#sprite2"/>
    </g>
    <g id="shape0" transform="matrix(1.0, 0.0, 0.0, 1.0, 9.7, 25.95)">
      <path d="M3.6 -25.25 L3.5 -25.1 3.2 -25.35 3.6 -25.25 M6.0 11.4 L5.95 11.2 6.1 11.15 6.0 11.4" fill="#8d8c47" fill-rule="evenodd" stroke="none"/>
      <path d="M3.5 -25.1 L3.6 -25.25 Q9.75 -23.05 9.5 -15.95 L9.5 -15.2 8.9 -7.7 8.65 -5.7 9.05 5.5 6.75 5.5 5.3 5.55 5.15 4.05 4.25 -2.6 3.0 -1.45 1.6 -0.15 2.75 -4.5 6.05 -7.5 8.45 -11.5 8.2 -14.15 8.05 -15.25 Q7.0 -20.8 3.5 -25.1" fill="#77ddb4" fill-rule="evenodd" stroke="none"/>
      <path d="M3.5 -25.1 Q7.0 -20.8 8.05 -15.25 L8.2 -14.15 8.45 -11.5 6.05 -7.5 Q7.3 -11.4 6.6 -15.25 6.2 -17.25 5.2 -19.25 3.55 -22.8 1.35 -23.85 -1.0 -25.05 -3.9 -23.25 -9.4 -19.85 -8.4 -13.45 L-8.15 -11.65 -6.1 5.65 -8.1 5.65 -8.05 0.5 -8.0 -1.8 Q-8.0 -6.7 -9.25 -11.55 L-9.35 -11.9 Q-10.7 -18.55 -6.45 -23.05 -3.0 -26.55 1.35 -25.85 L2.55 -25.6 3.2 -25.35 3.5 -25.1 M2.75 -4.5 L1.6 -0.15 0.25 1.55 Q1.0 -3.5 2.25 -8.65 L2.6 -10.25 Q2.3 -8.25 2.4 -6.55 2.5 -5.55 2.75 -4.5 M3.0 -1.45 L4.25 -2.6 5.15 4.05 5.3 5.55 3.35 5.55 3.25 5.3 3.2 5.55 1.8 5.6 1.9 5.25 1.55 4.1 3.0 -1.45" fill="#33cc99" fill-rule="evenodd" stroke="none"/>
      <path d="M6.05 -7.5 L2.75 -4.5 Q2.5 -5.55 2.4 -6.55 2.3 -8.25 2.6 -10.25 L2.25 -8.65 Q1.0 -3.5 0.25 1.55 L1.6 -0.15 3.0 -1.45 1.55 4.1 1.9 5.25 1.8 5.6 -6.1 5.65 -8.15 -11.65 -8.4 -13.45 Q-9.4 -19.85 -3.9 -23.25 -1.0 -25.05 1.35 -23.85 3.55 -22.8 5.2 -19.25 6.2 -17.25 6.6 -15.25 7.3 -11.4 6.05 -7.5" fill="#2baa77" fill-rule="evenodd" stroke="none"/>
      <path d="M5.3 5.55 L6.75 5.5 6.9 9.45 -5.45 9.2 -3.1 17.5 -2.7 19.5 -2.2 23.05 -3.6 19.6 -4.0 18.5 -5.3 14.25 -5.55 14.7 -6.1 5.65 1.8 5.6 3.2 5.55 3.35 5.55 5.3 5.55 M7.15 17.3 L6.4 21.5 Q6.05 22.8 5.3 23.7 4.5 24.8 3.4 25.55 L2.15 26.2 2.95 22.05 3.3 20.4 1.95 16.6 1.75 15.95 1.35 14.1 2.75 15.85 2.8 15.9 4.15 17.35 7.15 17.3" fill="#e2b181" fill-rule="evenodd" stroke="none"/>
      <path d="M3.2 5.55 L3.25 5.3 3.35 5.55 3.2 5.55 M6.0 11.4 L6.1 11.15 5.95 11.2 6.0 11.4 M6.9 9.45 L7.2 16.2 7.15 17.3 4.15 17.35 2.8 15.9 2.75 15.85 1.35 14.1 1.75 15.95 1.95 16.6 3.3 20.4 2.95 22.05 2.15 26.2 Q1.0 26.4 -0.1 26.2 -1.8 26.4 -3.25 24.55 -4.7 22.65 -5.05 19.8 L-5.15 18.65 -5.55 14.7 -5.3 14.25 -4.0 18.5 -3.6 19.6 -2.2 23.05 -2.7 19.5 -3.1 17.5 -5.45 9.2 6.9 9.45" fill="#ffcc99" fill-rule="evenodd" stroke="none"/>
    </g>
    <g id="sprite2" transform="matrix(1.0, 0.0, 0.0, 1.0, 50.0, 50.0)">
      <use ffdec:characterId="1080" height="100.0" transform="matrix(1.0, 0.0, 0.0, 1.0, -50.0, -50.0)" width="100.0" xlink:href="#shape1"/>
    </g>
    <g id="shape1" transform="matrix(1.0, 0.0, 0.0, 1.0, 50.0, 50.0)">
      <path d="M50.0 50.0 L-50.0 50.0 -50.0 -50.0 50.0 -50.0 50.0 50.0 Z" fill="none" stroke="#9900ff" stroke-linecap="round" stroke-linejoin="round" stroke-width="0.05"/>
    </g>
    <g id="sprite3" transform="matrix(1.0, 0.0, 0.0, 1.0, 9.05, 4.95)">
      <use ffdec:characterId="2304" ffdec:characterName="game_fla.lowerarm2_335" height="66.15" id="lowerArm2" transform="matrix(1.0, 0.0, 0.0, 1.0, -9.05, -4.95)" width="16.9" xlink:href="#sprite4"/>
    </g>
    <g id="sprite4" transform="matrix(1.0, 0.0, 0.0, 1.0, 8.75, 30.75)">
      <use ffdec:characterId="2302" height="46.25" transform="matrix(1.0, 0.0, 0.0, 1.0, -7.35, -29.7)" width="14.55" xlink:href="#shape2"/>
      <use ffdec:characterId="1464" ffdec:characterName="game_fla.hand2_336" height="21.85" id="hand" transform="matrix(1.0, 0.0, 0.0, 1.0, -7.7, 13.55)" width="15.6" xlink:href="#sprite5"/>
      <use ffdec:characterId="1081" height="100.0" id="shape" transform="matrix(0.15, 0.0, 0.0, 0.6, -7.4997, -29.9995)" width="100.0" xlink:href="#sprite2"/>
    </g>
    <g id="shape2" transform="matrix(1.0, 0.0, 0.0, 1.0, 7.35, 29.7)">
      <path d="M6.5 -25.45 Q5.35 -23.1 4.45 -20.6 L3.7 -18.05 2.25 -20.95 0.75 -22.45 -1.6 -24.15 -0.15 -24.85 1.3 -26.5 Q1.7 -27.2 1.75 -28.25 3.7 -26.9 5.75 -26.05 L6.2 -25.85 6.5 -25.45" fill="#e2b181" fill-rule="evenodd" stroke="none"/>
      <path d="M1.75 -28.25 Q1.7 -27.2 1.3 -26.5 L-0.15 -24.85 -1.6 -24.15 0.75 -22.45 2.25 -20.95 3.7 -18.05 4.45 -20.6 Q5.35 -23.1 6.5 -25.45 7.2 -23.9 7.2 -21.55 L6.9 -16.55 5.3 2.4 5.3 4.4 6.15 12.35 6.55 14.1 Q4.35 16.8 3.5 16.5 1.25 12.4 0.65 10.15 L0.6 10.05 Q0.2 8.0 -0.05 5.8 -0.6 1.0 -0.3 -3.75 -0.55 -5.0 -2.1 -6.2 L-2.25 -6.3 -3.1 -7.65 -5.1 -12.1 -5.75 -14.4 -6.1 -16.0 -5.95 -14.1 -5.75 -12.3 -4.15 -3.0 Q-3.35 0.2 -3.0 4.0 L-2.55 16.05 -3.45 14.1 -3.5 10.25 -3.5 10.2 -4.2 3.65 Q-4.35 0.15 -5.45 -3.4 L-6.4 -6.7 -6.75 -10.05 -7.05 -12.75 -7.2 -15.4 -7.3 -18.1 -7.35 -21.05 -7.15 -24.85 -6.95 -26.95 -6.35 -28.95 -6.05 -29.7 1.75 -28.25" fill="#ffcc99" fill-rule="evenodd" stroke="none"/>
      <path d="M-2.55 16.05 L-3.0 4.0 Q-3.35 0.2 -4.15 -3.0 L-5.75 -12.3 -5.95 -14.1 -6.1 -16.0 -5.75 -14.4 -5.1 -12.1 -3.1 -7.65 -2.25 -6.3 -2.1 -6.2 Q-0.55 -5.0 -0.3 -3.75 -0.6 1.0 -0.05 5.8 0.2 8.0 0.6 10.05 L0.65 10.15 Q1.25 12.4 3.5 16.5 L-2.55 16.05" fill="#ebbb98" fill-rule="evenodd" stroke="none"/>
    </g>
    <g id="sprite5" transform="matrix(1.0, 0.0, 0.0, 1.0, 8.8, 7.45)">
      <use ffdec:characterId="1462" height="14.95" transform="matrix(1.0, 0.0, 0.0, 1.0, -6.75, -7.45)" width="13.55" xlink:href="#shape3"/>
    </g>
    <g id="shape3" transform="matrix(1.0, 0.0, 0.0, 1.0, 6.75, 7.45)">
      <path d="M0.85 -7.45 L5.35 -7.45 5.65 -6.2 6.25 -3.75 6.4 -3.35 6.45 -3.15 6.45 -3.0 4.9 2.05 4.0 4.55 -1.6 2.8 -2.45 2.45 Q-1.4 4.45 0.9 4.55 L0.25 4.85 -6.65 3.6 -6.75 3.1 -6.45 0.85 -6.3 0.05 -5.55 -0.6 -0.3 -1.0 -0.25 -1.0 -0.25 -1.05 -0.75 -3.5 0.55 -4.75 Q1.1 -5.35 2.85 -5.15 L2.15 -6.45 1.7 -6.55 1.35 -6.6 0.85 -7.45 M-3.75 -7.45 L-3.75 -6.75 -4.15 -4.95 -4.65 -4.85 -4.65 -6.05 -4.6 -6.6 -4.55 -6.7 -4.5 -7.45 -3.75 -7.45 M-5.1 -2.4 L-5.1 -2.2 -5.15 -2.3 -5.1 -2.4" fill="#ffcc99" fill-rule="evenodd" stroke="none"/>
      <path d="M0.85 -7.45 L1.35 -6.6 1.7 -6.55 2.15 -6.45 2.85 -5.15 Q1.1 -5.35 0.55 -4.75 L-0.75 -3.5 -0.25 -1.05 -0.3 -1.0 -5.55 -0.6 -5.1 -2.2 -5.1 -2.4 -4.65 -4.85 -4.15 -4.95 -3.75 -6.75 -3.75 -7.45 0.85 -7.45" fill="#ebbb98" fill-rule="evenodd" stroke="none"/>
      <path d="M-6.65 3.6 L0.25 4.85 0.9 4.55 Q-1.4 4.45 -2.45 2.45 L-1.6 2.8 4.0 4.55 4.9 2.05 6.45 -3.0 6.8 -0.1 Q6.9 2.8 6.0 5.6 L5.6 5.95 5.35 6.5 Q2.85 8.15 0.3 7.05 L-1.5 7.2 Q-4.45 7.25 -6.25 5.15 L-6.65 4.65 -6.7 3.6 -6.65 3.6" fill="#e2b181" fill-rule="evenodd" stroke="none"/>
    </g>
    <g id="sprite6" transform="matrix(1.0, 0.0, 0.0, 1.0, 13.75, 11.0)">
      <use ffdec:characterId="2311" ffdec:characterName="game_fla.upperleg2_338" height="86.35" id="upperLeg2" transform="matrix(1.0, 0.0, 0.0, 1.0, -13.35, -11.0)" width="31.0" xlink:href="#sprite7"/>
      <use ffdec:characterId="2318" height="79.9" id="lowerLegOuter2" transform="matrix(1.0, 0.0, 0.0, 1.0, -13.75, 60.5)" width="40.25" xlink:href="#sprite8"/>
    </g>
    <g id="sprite7" transform="matrix(1.0, 0.0, 0.0, 1.0, 14.15, 45.35)">
      <use ffdec:characterId="2307" height="83.65" transform="matrix(1.0, 0.0, 0.0, 1.0, -13.2, -44.05)" width="27.8" xlink:href="#shape4"/>
      <use ffdec:characterId="1081" height="100.0" id="shape" transform="matrix(0.26, 0.0, 0.0, 0.82, -12.9997, -40.9988)" width="100.0" xlink:href="#sprite2"/>
    </g>
    <g id="shape4" transform="matrix(1.0, 0.0, 0.0, 1.0, 13.2, 44.05)">
      <path d="M-9.55 -41.4 L-9.6 -41.35 -9.6 -41.4 -9.55 -41.4 M-7.2 0.95 L-1.55 1.2 -1.7 4.5 -6.95 4.1 -6.95 4.0 -7.0 4.1 -6.95 4.1 -8.4 8.8 -9.15 1.05 -9.15 0.85 -7.2 0.95" fill="#c79b68" fill-rule="evenodd" stroke="none"/>
      <path d="M-1.55 1.2 L6.2 1.65 10.9 2.1 12.55 2.2 12.4 5.75 -1.7 4.5 -1.95 7.1 Q-3.5 11.25 -3.9 14.3 -4.0 14.85 -6.1 18.8 L-6.25 19.15 -8.3 22.75 -8.1 18.5 Q-7.95 14.3 -8.4 8.8 L-6.95 4.1 -7.0 4.1 -6.95 4.0 -6.95 4.1 -1.7 4.5 -1.55 1.2 M7.75 13.55 L9.3 6.85 Q10.45 12.85 8.45 18.8 L7.9 20.35 8.2 21.25 Q8.4 22.4 8.25 23.65 L8.1 24.9 7.75 26.65 4.1 25.7 2.05 27.05 1.25 27.4 4.0 23.3 Q6.1 19.25 7.75 13.55" fill="#d5a675" fill-rule="evenodd" stroke="none"/>
      <path d="M12.4 5.75 L12.25 8.4 Q11.95 14.1 11.1 20.75 L10.4 25.25 10.3 25.8 8.75 31.45 7.85 33.45 5.4 37.6 Q4.65 38.6 0.65 39.45 -1.45 39.75 -3.25 39.5 -5.0 39.25 -6.45 38.55 -9.05 37.7 -10.45 35.35 L-11.3 33.7 -11.05 30.7 -10.0 28.45 Q-8.6 25.35 -8.5 24.7 L-8.3 22.75 -6.25 19.15 -6.1 18.8 Q-4.0 14.85 -3.9 14.3 -3.5 11.25 -1.95 7.1 L-1.7 4.5 12.4 5.75 M7.75 13.55 Q6.1 19.25 4.0 23.3 L1.25 27.4 2.05 27.05 4.1 25.7 7.75 26.65 8.1 24.9 8.25 23.65 Q8.4 22.4 8.2 21.25 L7.9 20.35 8.45 18.8 Q10.45 12.85 9.3 6.85 L7.75 13.55" fill="#e2b181" fill-rule="evenodd" stroke="none"/>
      <path d="M10.65 -39.35 L10.85 -38.8 Q11.2 -37.65 11.0 -36.5 L11.0 -36.45 Q10.8 -35.35 9.0 -31.3 L7.15 -27.35 6.95 -26.3 7.85 -26.6 8.65 -26.8 9.3 -26.7 6.45 -21.3 Q5.1 -18.85 4.45 -16.85 L4.1 -15.65 4.3 -15.6 5.0 -16.95 Q6.15 -18.75 8.55 -19.55 8.2 -19.3 7.75 -17.5 L7.35 -15.45 Q6.85 -12.75 6.2 1.65 L-1.55 1.2 -7.2 0.95 Q-6.85 -7.2 -9.45 -15.6 L-12.4 -25.6 -12.9 -27.35 -12.9 -28.15 -12.95 -34.8 -12.95 -34.85 Q-12.3 -38.1 -9.75 -41.2 L-9.6 -41.35 -9.55 -41.4 Q-7.05 -44.4 -1.4 -44.0 4.5 -43.7 9.2 -40.4 L9.8 -40.0 10.65 -39.35" fill="#957648" fill-rule="evenodd" stroke="none"/>
      <path d="M6.2 1.65 Q6.85 -12.75 7.35 -15.45 L7.75 -17.5 Q8.2 -19.3 8.55 -19.55 6.15 -18.75 5.0 -16.95 L4.3 -15.6 4.1 -15.65 4.45 -16.85 Q5.1 -18.85 6.45 -21.3 L9.3 -26.7 8.65 -26.8 7.85 -26.6 6.95 -26.3 7.15 -27.35 9.0 -31.3 Q10.8 -35.35 11.0 -36.45 L11.0 -36.5 Q11.2 -37.65 10.85 -38.8 L10.65 -39.35 Q12.7 -37.7 13.55 -36.0 13.7 -34.6 13.35 -32.5 L13.25 -32.1 11.85 -26.9 11.5 -18.6 11.35 -13.75 10.9 2.1 6.2 1.65 M-12.9 -27.35 L-12.4 -25.6 -9.45 -15.6 Q-6.85 -7.2 -7.2 0.95 L-9.15 0.85 -11.7 0.7 -12.1 -4.75 -12.7 -17.6 -12.9 -27.35" fill="#b18f5f" fill-rule="evenodd" stroke="none"/>
      <path d="M10.9 2.1 L11.35 -13.75 11.5 -18.6 11.85 -26.9 13.25 -32.1 13.35 -32.5 Q13.7 -34.6 13.55 -36.0 14.1 -35.0 14.05 -33.9 L14.3 -24.2 14.5 -9.2 14.6 -5.35 14.25 2.35 12.55 2.2 10.9 2.1" fill="#bfa47b" fill-rule="evenodd" stroke="none"/>
      <path d="M-12.95 -34.8 L-12.9 -28.15 -13.0 -28.8 Q-13.45 -32.1 -12.95 -34.8" fill="#ad5a95" fill-rule="evenodd" stroke="none"/>
    </g>
    <g id="sprite8" transform="matrix(1.0, 0.0, 0.0, 1.0, 15.95, 4.75)">
      <use ffdec:characterId="2317" ffdec:characterName="game_fla.lowerleg2_340" height="79.9" id="lowerLeg2" transform="matrix(1.0, 0.0, 0.0, 1.0, -15.95, -4.75)" width="40.25" xlink:href="#sprite9"/>
    </g>
    <g id="sprite9" transform="matrix(1.0, 0.0, 0.0, 1.0, 14.25, 38.15)">
      <use ffdec:characterId="2312" height="66.3" transform="matrix(1.0, 0.0, 0.0, 1.0, -11.0, -38.15)" width="20.45" xlink:href="#shape5"/>
      <use ffdec:characterId="2313" height="20.9" transform="matrix(1.0, 0.0, 0.0, 1.0, -14.25, 20.85)" width="40.25" xlink:href="#shape6"/>
      <use ffdec:characterId="1081" height="100.0" id="shape" transform="matrix(0.2, 0.0, 0.0, 0.7601, -9.9998, -38.0028)" width="100.0" xlink:href="#sprite2"/>
    </g>
    <g id="shape5" transform="matrix(1.0, 0.0, 0.0, 1.0, 11.0, 38.15)">
      <path d="M3.35 -35.7 L4.7 -37.65 6.4 -37.7 Q7.95 -36.55 8.85 -34.1 L9.2 -33.0 9.45 -28.95 8.75 -30.85 8.15 -30.8 7.25 -31.4 3.7 -28.85 2.85 -30.3 2.7 -33.1 3.35 -35.7 M8.25 -14.2 L7.45 -7.1 7.0 -3.45 6.6 3.1 6.75 9.85 6.85 13.2 5.3 13.2 3.6 13.6 3.9 11.55 3.95 11.5 3.6 10.1 2.7 6.1 2.65 5.65 Q1.95 6.9 1.75 10.25 L1.65 11.85 1.35 10.55 1.65 13.8 1.65 13.95 1.55 13.95 -6.25 15.4 -6.7 15.6 -6.4 11.55 -6.35 10.85 Q-6.25 7.75 -6.75 4.35 L-6.55 4.3 Q-6.0 6.8 -4.6 9.0 -3.2 5.45 -3.2 0.55 L-2.85 -5.6 -2.8 -6.3 -2.7 -6.3 -2.05 -8.25 -1.6 -9.15 -1.8 -9.25 -3.1 -15.2 -6.2 -10.85 -7.95 -8.45 -9.95 -8.95 -10.15 -8.95 -10.7 -11.55 -10.8 -14.45 -11.0 -17.1 -10.95 -20.4 -10.25 -27.8 Q-1.75 -34.95 -0.35 -34.05 -0.2 -34.1 -0.5 -33.65 L-1.4 -32.7 -3.15 -30.1 -0.1 -27.4 Q1.2 -23.1 2.8 -18.85 L3.45 -17.1 3.6 -15.8 3.65 -6.55 3.4 -3.9 3.8 -2.7 4.2 6.15 4.45 7.05 5.85 -6.85 5.85 -6.9 Q7.45 -10.4 8.15 -14.25 L8.25 -14.2" fill="#e2b181" fill-rule="evenodd" stroke="none"/>
      <path d="M9.45 -28.95 L9.4 -23.0 8.55 -16.7 8.2 -14.5 8.15 -14.25 Q7.45 -10.4 5.85 -6.9 L5.85 -6.85 4.45 7.05 4.2 6.15 3.8 -2.7 3.4 -3.9 3.65 -6.55 3.6 -15.8 3.45 -17.1 2.8 -18.85 Q1.2 -23.1 -0.1 -27.4 L-3.15 -30.1 -1.4 -32.7 -0.5 -33.65 Q-0.2 -34.1 -0.35 -34.05 L-0.1 -34.3 2.25 -36.6 3.3 -36.15 3.35 -35.7 2.7 -33.1 2.85 -30.3 3.7 -28.85 7.25 -31.4 8.15 -30.8 8.75 -30.85 9.45 -28.95 M-6.75 4.35 L-7.4 1.05 -8.5 -2.9 -9.05 -4.7 -10.15 -8.95 -9.95 -8.95 -7.95 -8.45 -6.2 -10.85 -3.1 -15.2 -1.8 -9.25 -1.6 -9.15 -2.05 -8.25 -2.7 -6.3 -2.8 -6.3 -2.85 -5.6 -3.2 0.55 Q-3.2 5.45 -4.6 9.0 -6.0 6.8 -6.55 4.3 L-6.75 4.35" fill="#d5a675" fill-rule="evenodd" stroke="none"/>
      <path d="M8.55 -16.7 L8.25 -14.2 8.15 -14.25 8.2 -14.5 8.55 -16.7" fill="#ffcc99" fill-rule="evenodd" stroke="none"/>
      <path d="M1.65 11.85 L1.75 10.25 Q1.95 6.9 2.65 5.65 L2.7 6.1 3.6 10.1 3.95 11.5 3.9 11.55 3.6 13.6 3.5 13.6 1.65 13.95 1.65 13.8 1.65 11.85" fill="#f4c398" fill-rule="evenodd" stroke="none"/>
      <path d="M1.65 11.85 L1.65 13.8 1.35 10.55 1.65 11.85" fill="#ebbb98" fill-rule="evenodd" stroke="none"/>
      <path d="M6.85 13.2 L7.1 13.2 7.45 16.8 7.75 19.3 Q7.85 21.1 7.0 22.65 4.05 28.15 -2.2 28.15 L-3.55 28.05 Q-9.05 27.3 -7.3 20.9 L-7.2 19.45 -7.3 15.9 -6.7 15.6 -6.25 15.4 1.55 13.95 1.65 14.65 2.2 17.5 3.05 19.7 3.35 20.35 4.15 21.65 4.35 22.0 4.4 21.7 Q4.45 20.25 3.95 18.8 L3.55 16.85 3.4 14.9 3.5 13.6 3.6 13.6 5.3 13.2 6.85 13.2 M-0.85 16.05 L-1.1 16.35 -3.0 18.45 -3.45 19.0 Q-4.2 20.1 -4.0 21.9 L-3.8 22.5 -2.75 24.5 -1.5 18.85 -0.85 16.05" fill="#d9d9d9" fill-rule="evenodd" stroke="none"/>
      <path d="M1.65 13.95 L3.5 13.6 3.4 14.9 3.55 16.85 3.95 18.8 Q4.45 20.25 4.4 21.7 L4.35 22.0 4.15 21.65 3.35 20.35 3.05 19.7 2.2 17.5 1.65 14.65 1.55 13.95 1.65 13.95 M-0.85 16.05 L-1.5 18.85 -2.75 24.5 -3.8 22.5 -4.0 21.9 Q-4.2 20.1 -3.45 19.0 L-3.0 18.45 -1.1 16.35 -0.85 16.05" fill="#aaaaaa" fill-rule="evenodd" stroke="none"/>
    </g>
    <g id="shape6" transform="matrix(1.0, 0.0, 0.0, 1.0, 14.25, -20.85)">
      <path d="M-13.35 31.25 L-12.95 28.3 Q-12.7 26.45 -11.4 23.7 -10.0 20.7 -8.9 20.85 L-6.9 21.75 Q-5.1 22.65 -2.65 22.95 -0.35 23.25 3.55 22.95 6.85 22.75 7.15 22.95 7.6 23.2 7.9 23.8 L8.2 24.35 7.3 24.65 Q5.95 25.25 5.1 26.1 L4.75 26.5 5.4 26.75 8.7 25.3 8.75 25.3 9.2 25.9 Q7.8 26.55 6.85 27.7 L5.95 28.85 7.55 28.4 Q9.05 27.8 10.25 26.85 L10.6 27.1 10.95 27.25 8.4 30.25 9.1 30.85 10.15 29.95 12.3 28.1 12.8 28.4 10.75 31.05 10.4 31.6 10.9 31.8 11.85 31.5 Q13.3 30.75 14.3 29.2 L14.8 29.5 13.0 32.0 12.5 32.5 13.35 33.05 14.05 32.65 16.1 30.25 16.7 30.6 17.15 30.85 15.05 33.25 15.25 34.2 15.9 33.95 Q17.45 33.1 18.4 31.55 L18.45 31.55 19.15 31.95 19.45 32.15 20.65 32.9 19.45 32.65 18.85 33.5 18.05 34.5 17.65 35.55 17.45 35.95 20.55 36.7 23.35 37.3 24.1 37.4 22.2 37.45 20.85 37.3 13.7 35.85 11.65 35.4 3.05 34.1 -13.25 31.75 -13.35 31.25 M-14.25 34.9 L-14.2 34.5 -13.6 34.65 -10.1 35.35 -5.25 35.85 -3.85 36.05 4.8 37.05 11.4 38.85 7.85 38.2 2.95 37.2 -2.85 36.55 -8.5 35.95 -13.65 35.05 -14.25 34.9" fill="#000000" fill-rule="evenodd" stroke="none"/>
      <path d="M8.2 24.35 L8.7 25.3 5.4 26.75 4.75 26.5 5.1 26.1 Q5.95 25.25 7.3 24.65 L8.2 24.35 M9.2 25.9 L10.25 26.85 Q9.05 27.8 7.55 28.4 L5.95 28.85 6.85 27.7 Q7.8 26.55 9.2 25.9 M10.95 27.25 L12.3 28.1 10.15 29.95 9.1 30.85 8.4 30.25 10.95 27.25 M12.8 28.4 L14.3 29.2 Q13.3 30.75 11.85 31.5 L10.9 31.8 10.4 31.6 10.75 31.05 12.8 28.4 M14.8 29.5 L16.1 30.25 14.05 32.65 13.35 33.05 12.5 32.5 13.0 32.0 14.8 29.5 M17.15 30.85 L18.4 31.55 Q17.45 33.1 15.9 33.95 L15.25 34.2 15.05 33.25 17.15 30.85 M20.65 32.9 Q22.25 33.2 23.5 33.9 L24.2 34.4 Q25.2 35.1 25.6 35.9 L25.8 36.75 Q26.15 38.25 25.85 39.65 L25.85 39.85 25.95 40.55 25.75 41.45 Q23.25 42.05 19.7 41.5 L0.3 37.9 -0.75 37.75 -5.6 37.3 -10.55 37.0 -11.55 36.9 -13.85 36.45 -14.2 35.35 -14.25 34.9 -13.65 35.05 -8.5 35.95 -2.85 36.55 2.95 37.2 7.85 38.2 11.4 38.85 4.8 37.05 -3.85 36.05 -5.25 35.85 -10.1 35.35 -13.6 34.65 -14.2 34.5 -13.35 31.25 -13.25 31.75 3.05 34.1 11.65 35.4 13.7 35.85 20.85 37.3 22.2 37.45 24.1 37.4 23.35 37.3 20.55 36.7 17.45 35.95 17.65 35.55 18.05 34.5 18.85 33.5 19.45 32.65 20.65 32.9" fill="#ffffff" fill-rule="evenodd" stroke="none"/>
      <path d="M8.7 25.3 L8.75 25.3" fill="none" stroke="#943965" stroke-linecap="round" stroke-linejoin="round" stroke-width="0.05"/>
    </g>
    <g id="sprite10" transform="matrix(1.0, 0.0, 0.0, 1.0, 12.05, 84.55)">
      <use ffdec:characterId="2334" ffdec:characterName="game_fla.head_342" height="79.65" id="head" transform="matrix(1.0, 0.0, 0.0, 1.0, -12.05, -84.55)" width="38.3" xlink:href="#sprite11"/>
    </g>
    <g id="sprite11" transform="matrix(1.0, 0.0, 0.0, 1.0, 22.3, 47.5)">
      <use ffdec:characterId="2321" height="23.75" transform="matrix(1.0, 0.0, 0.0, 1.0, -15.35, 6.65)" width="21.85" xlink:href="#sprite12"/>
      <use ffdec:characterId="2323" height="33.6" transform="matrix(1.0, 0.0, 0.0, 1.0, -15.65, -16.4)" width="31.55" xlink:href="#sprite13"/>
      <use ffdec:characterId="2324" height="16.75" transform="matrix(1.0, 0.0, 0.0, 1.0, -20.1, 15.4)" width="27.25" xlink:href="#shape9"/>
      <use ffdec:characterId="1111" height="100.0" id="shape" transform="matrix(0.32, 0.0, 0.0, 0.32, -16.0004, -16.0004)" width="100.0" xlink:href="#sprite14"/>
    </g>
    <g id="sprite12" transform="matrix(1.0, 0.0, 0.0, 1.0, 12.1, 11.55)">
      <use ffdec:characterId="2320" height="23.75" transform="matrix(1.0, 0.0, 0.0, 1.0, -12.1, -11.55)" width="21.85" xlink:href="#shape7"/>
    </g>
    <g id="shape7" transform="matrix(1.0, 0.0, 0.0, 1.0, 12.1, 11.55)">
      <path d="M-5.05 -10.7 Q-3.2 -12.05 -0.2 -11.3 L2.85 -10.45 4.55 -9.75 Q6.95 -8.85 8.65 -7.2 L8.85 -6.95 Q9.5 -6.15 9.0 -5.35 L8.45 -4.35 7.9 -2.85 7.6 -1.7 7.6 -1.4 7.65 1.25 7.1 2.6 6.5 3.45 6.35 3.8 6.4 5.25 6.7 6.75 Q6.15 5.95 5.9 5.15 L4.8 2.7 Q3.3 -0.25 2.8 -0.75 2.2 -1.15 1.25 -1.35 L-0.5 -2.0 Q-1.3 -2.45 -1.95 -3.75 -2.6 -5.1 -3.7 -6.45 L-6.05 -9.75 -5.95 -9.9 -5.8 -10.05 -5.05 -10.7 M4.1 7.75 Q0.65 6.1 -0.75 5.8 L-1.25 5.75 Q-1.0 3.15 -3.4 -0.85 1.95 3.4 4.1 7.75" fill="#e2b181" fill-rule="evenodd" stroke="none"/>
      <path d="M-5.05 -10.7 L-5.8 -10.05 -5.15 -10.85 -5.05 -10.7 M-6.05 -9.75 L-3.7 -6.45 Q-2.6 -5.1 -1.95 -3.75 -1.3 -2.45 -0.5 -2.0 L1.25 -1.35 Q2.2 -1.15 2.8 -0.75 3.3 -0.25 4.8 2.7 L5.9 5.15 Q6.15 5.95 6.7 6.75 L6.4 5.25 6.35 3.8 6.5 3.45 6.75 4.05 7.6 5.6 9.75 12.2 7.1 9.65 4.1 7.75 Q1.95 3.4 -3.4 -0.85 -1.0 3.15 -1.25 5.75 L-4.4 5.3 Q-6.9 5.15 -9.35 5.3 L-11.75 5.45 -12.1 5.7 -11.75 3.8 -10.15 -0.25 -7.55 -6.2 -6.05 -9.75" fill="#ffcc99" fill-rule="evenodd" stroke="none"/>
    </g>
    <g id="sprite13" transform="matrix(1.0, 0.0, 0.0, 1.0, 15.8, 16.8)">
      <use ffdec:characterId="2322" height="33.6" transform="matrix(1.0, 0.0, 0.0, 1.0, -15.8, -16.8)" width="31.55" xlink:href="#shape8"/>
    </g>
    <g id="shape8" transform="matrix(1.0, 0.0, 0.0, 1.0, 15.8, 16.8)">
      <path d="M12.45 -10.5 L12.55 -10.4 13.0 -9.45 Q13.0 -4.8 13.15 -3.85 13.3 -2.95 13.6 -2.15 L13.05 -0.75 13.0 -0.45 13.15 0.25 13.55 0.95 14.3 2.15 14.65 2.9 15.4 3.75 15.6 4.55 15.75 5.6 15.65 5.8 15.35 6.3 15.05 6.5 15.0 6.35 14.45 5.8 14.35 5.8 12.9 5.5 11.85 6.0 11.55 6.2 11.0 6.0 Q10.75 5.65 10.9 5.35 L11.7 3.8 10.4 4.95 9.8 5.7 Q8.6 7.1 8.75 7.6 L9.0 8.45 10.15 6.8 10.7 6.25 11.4 7.0 11.6 7.25 Q10.65 7.4 9.5 8.25 8.9 8.7 8.6 9.05 L8.75 10.85 8.85 10.95 9.2 10.3 9.65 9.6 10.3 9.1 11.9 8.25 12.65 8.15 13.25 8.45 13.45 8.6 13.4 8.7 13.25 8.9 13.0 9.35 12.95 8.95 12.85 8.8 12.45 8.75 Q12.0 8.7 11.4 9.0 L9.6 10.1 9.95 10.15 12.05 9.6 12.45 9.6 12.95 9.5 13.05 9.75 13.2 10.2 13.05 11.05 12.8 11.55 13.0 11.05 12.7 10.95 11.5 11.25 Q10.6 11.45 10.65 11.8 L11.35 12.45 12.15 13.05 12.55 12.9 12.75 14.5 12.55 15.3 12.5 15.4 Q12.1 16.15 11.55 16.3 L9.85 16.75 8.95 16.8 8.0 16.65 5.8 16.2 4.35 15.85 3.3 15.5 0.25 15.15 Q-1.9 14.85 -2.5 14.2 L-3.9 10.95 -5.25 8.05 -5.4 7.9 -6.1 6.3 -6.6 5.45 -7.15 4.65 -8.5 2.15 -8.6 1.9 -8.7 1.3 Q-9.2 -0.5 -7.15 -0.8 -6.05 -0.9 -5.35 0.0 L-4.95 0.25 Q-3.75 1.05 -3.25 2.45 L-2.95 4.8 -2.8 5.1 -3.1 5.5 Q-3.0 6.1 -0.55 6.45 L1.9 6.95 2.0 6.85 1.15 6.05 0.8 5.7 0.1 5.45 -0.65 5.3 Q-0.3 5.1 -0.25 4.75 L-0.25 4.1 -0.1 2.55 0.05 2.2 0.1 1.45 Q0.05 0.85 -0.45 -0.05 L-0.75 -0.6 -1.05 -1.3 -0.85 -1.45 -0.7 -1.7 0.25 -2.85 Q1.45 -4.6 1.2 -6.4 L0.9 -7.1 0.3 -10.0 2.9 -10.95 5.4 -11.45 9.2 -10.95 12.1 -10.4 12.45 -10.5 M12.3 -1.1 L11.7 -1.95 Q10.8 -2.75 8.65 -2.15 6.45 -1.6 5.95 -0.9 L5.6 -0.15 Q4.7 0.4 4.8 0.9 L4.8 0.95 7.05 1.15 8.95 1.9 10.7 2.65 11.2 1.4 11.15 0.5 11.8 0.05 11.9 0.05 12.3 -0.15 12.4 -0.65 12.4 -0.75 12.3 -1.1 M-5.0 5.2 L-4.1 4.7 -5.15 3.9 -4.45 3.3 Q-4.7 2.65 -5.05 2.15 L-6.7 0.2 -7.65 0.9 -7.65 2.3 -6.85 2.05 -6.45 1.6 -5.4 2.8 -6.2 3.8 -5.0 5.2 M2.55 8.15 L2.85 8.1 2.9 8.05 2.85 8.05 2.5 8.05 2.55 8.15" fill="#ffcc99" fill-rule="evenodd" stroke="none"/>
      <path d="M15.05 6.5 L14.55 6.6 14.4 6.65 14.3 6.65 14.15 6.65 14.0 6.7 13.5 7.2 13.5 7.35 13.35 7.2 11.95 7.15 11.6 7.25 11.4 7.0 10.7 6.25 10.75 6.05 11.0 6.0 11.55 6.2 11.85 6.0 12.9 5.5 14.35 5.8 14.45 5.8 15.0 6.35 15.05 6.5 M13.5 8.05 L13.45 8.6 13.25 8.45 12.65 8.15 13.35 8.1 13.5 8.05 M13.0 9.35 L12.95 9.5 12.45 9.6 12.05 9.6 9.95 10.15 9.6 10.1 11.4 9.0 Q12.0 8.7 12.45 8.75 L12.85 8.8 12.95 8.95 13.0 9.35 M5.6 -0.15 L5.95 -0.15 9.3 -1.35 10.4 -1.55 10.9 -1.35 Q11.5 -0.95 12.1 -1.05 L12.3 -1.1 12.4 -0.75 12.4 -0.65 12.3 -0.15 11.9 0.05 11.8 0.05 11.15 0.5 11.2 1.4 10.7 2.65 8.95 1.9 7.05 1.15 4.8 0.95 4.8 0.9 Q4.7 0.4 5.6 -0.15 M-5.0 5.2 L-6.2 3.8 -5.4 2.8 -6.45 1.6 -6.85 2.05 -7.65 2.3 -7.65 0.9 -6.7 0.2 -5.05 2.15 Q-4.7 2.65 -4.45 3.3 L-5.15 3.9 -4.1 4.7 -5.0 5.2 M10.3 0.75 L10.55 0.25 10.6 -0.1 Q10.4 -0.65 8.15 0.2 8.6 0.5 9.1 0.6 L9.75 0.75 9.95 1.15 10.3 0.75" fill="#c79b68" fill-rule="evenodd" stroke="none"/>
      <path d="M12.8 11.55 L12.75 11.75 12.65 12.15 12.55 12.9 12.15 13.05 11.35 12.45 10.65 11.8 Q10.6 11.45 11.5 11.25 L12.7 10.95 13.0 11.05 12.8 11.55 M-0.65 5.3 L0.1 5.45 0.8 5.7 1.15 6.05 2.0 6.85 1.9 6.95 -0.55 6.45 Q-3.0 6.1 -3.1 5.5 L-2.8 5.1 -1.0 5.35 -0.65 5.3 M10.7 6.25 L10.15 6.8 9.0 8.45 8.75 7.6 Q8.6 7.1 9.8 5.7 L10.4 4.95 11.7 3.8 10.9 5.35 Q10.75 5.65 11.0 6.0 L10.75 6.05 10.7 6.25 M2.55 8.15 L2.5 8.05 2.85 8.05 2.9 8.05 2.85 8.1 2.55 8.15" fill="#ebbb98" fill-rule="evenodd" stroke="none"/>
      <path d="M10.3 0.75 L9.95 1.15 9.75 0.75 9.1 0.6 Q8.6 0.5 8.15 0.2 10.4 -0.65 10.6 -0.1 L10.55 0.25 10.3 0.75" fill="#000000" fill-rule="evenodd" stroke="none"/>
      <path d="M-13.9 3.75 L-15.15 -0.3 -15.75 -3.55 -15.75 -4.6 Q-15.65 -10.35 -10.65 -13.75 -9.15 -14.7 -7.45 -15.25 L2.55 -16.7 4.65 -16.8 9.4 -15.8 9.55 -15.8 13.45 -14.05 14.0 -13.6 13.8 -12.35 13.7 -12.2 13.5 -12.6 11.65 -11.85 11.75 -13.05 9.35 -12.05 9.6 -13.25 7.2 -12.8 7.3 -13.65 Q3.55 -11.4 -0.85 -10.85 0.45 -7.85 0.2 -4.7 L-2.95 -1.85 -2.55 -3.4 -3.3 -2.85 -3.5 -2.5 -3.85 -1.8 -5.25 -4.0 -6.15 -3.0 -8.3 -3.9 -10.3 -0.35 -10.95 -0.9 -11.3 -1.05 -11.55 -1.05 -10.8 2.9 -13.55 0.9 -13.45 1.3 -13.1 2.3 -13.15 2.45 -13.75 2.1 -12.95 4.35 -13.9 3.75 M13.5 7.35 L13.5 7.4 13.55 7.55 13.5 8.05 13.35 8.1 12.65 8.15 11.9 8.25 10.3 9.1 9.65 9.6 9.2 10.3 8.85 10.95 8.75 10.85 8.6 9.05 Q8.9 8.7 9.5 8.25 10.65 7.4 11.6 7.25 L11.95 7.15 13.35 7.2 13.5 7.35 M1.65 -13.95 L-3.2 -13.45 -2.9 -14.25 -7.9 -12.5 -4.15 -12.9 -6.95 -11.6 -1.65 -11.45 2.3 -12.8 0.65 -12.8 1.65 -13.95 M12.3 -1.1 L12.1 -1.05 Q11.5 -0.95 10.9 -1.35 L10.4 -1.55 9.3 -1.35 5.95 -0.15 5.6 -0.15 5.95 -0.9 Q6.45 -1.6 8.65 -2.15 10.8 -2.75 11.7 -1.95 L12.3 -1.1" fill="#996633" fill-rule="evenodd" stroke="none"/>
      <path d="M13.7 -12.2 L13.45 -11.75 Q12.95 -10.75 12.45 -10.5 L12.1 -10.4 9.2 -10.95 5.4 -11.45 2.9 -10.95 0.3 -10.0 0.9 -7.1 1.2 -6.4 Q1.45 -4.6 0.25 -2.85 L-0.7 -1.7 -0.85 -1.45 -1.05 -1.3 -0.75 -0.6 -0.45 -0.05 Q0.05 0.85 0.1 1.45 L0.05 2.2 -0.1 2.55 -0.25 4.1 -0.25 4.75 Q-0.3 5.1 -0.65 5.3 L-1.0 5.35 -2.8 5.1 -2.95 4.8 -3.25 2.45 Q-3.75 1.05 -4.95 0.25 L-5.35 0.0 Q-6.05 -0.9 -7.15 -0.8 -9.2 -0.5 -8.7 1.3 L-8.6 1.9 -8.5 2.15 -7.15 4.65 -6.6 5.45 -6.1 6.3 -7.1 7.6 -7.5 8.95 -7.35 9.45 -10.0 10.05 -10.3 10.05 Q-12.5 7.15 -13.9 3.75 L-12.95 4.35 -13.75 2.1 -13.15 2.45 -13.1 2.3 -13.45 1.3 -13.55 0.9 -10.8 2.9 -11.55 -1.05 -11.3 -1.05 -10.95 -0.9 -10.3 -0.35 -8.3 -3.9 -6.15 -3.0 -5.25 -4.0 -3.85 -1.8 -3.5 -2.5 -3.3 -2.85 -2.55 -3.4 -2.95 -1.85 0.2 -4.7 Q0.45 -7.85 -0.85 -10.85 3.55 -11.4 7.3 -13.65 L7.2 -12.8 9.6 -13.25 9.35 -12.05 11.75 -13.05 11.65 -11.85 13.5 -12.6 13.7 -12.2 M1.65 -13.95 L0.65 -12.8 2.3 -12.8 -1.65 -11.45 -6.95 -11.6 -4.15 -12.9 -7.9 -12.5 -2.9 -14.25 -3.2 -13.45 1.65 -13.95" fill="#795128" fill-rule="evenodd" stroke="none"/>
      <path d="M-8.6 1.9 L-8.5 2.15" fill="none" stroke="#943965" stroke-linecap="round" stroke-linejoin="round" stroke-width="0.05"/>
    </g>
    <g id="shape9" transform="matrix(1.0, 0.0, 0.0, 1.0, 20.1, -15.4)">
      <path d="M1.55 29.35 L-1.65 28.55 -16.1 27.8 Q-17.2 27.85 -20.1 28.95 -17.85 20.0 -16.3 15.5 -14.6 15.15 -11.45 15.95 L-3.45 18.1 Q1.35 19.45 3.1 20.55 4.9 21.65 6.15 23.2 L7.15 32.15 Q5.1 30.15 1.55 29.35" fill="#2baa77" fill-rule="evenodd" stroke="none"/>
    </g>
    <g id="sprite14" transform="matrix(1.0, 0.0, 0.0, 1.0, 50.0, 50.0)">
      <use ffdec:characterId="1110" height="100.0" transform="matrix(1.0, 0.0, 0.0, 1.0, -50.0, -50.0)" width="100.0" xlink:href="#shape10"/>
    </g>
    <g id="shape10" transform="matrix(1.0, 0.0, 0.0, 1.0, 50.0, 50.0)">
      <path d="M35.35 -35.35 Q50.0 -20.7 50.0 0.0 50.0 20.7 35.35 35.35 20.7 50.0 0.0 50.0 -20.7 50.0 -35.35 35.35 -50.0 20.7 -50.0 0.0 -50.0 -20.7 -35.35 -35.35 -20.7 -50.0 0.0 -50.0 20.7 -50.0 35.35 -35.35 Z" fill="none" stroke="#9900ff" stroke-linecap="round" stroke-linejoin="round" stroke-width="0.05"/>
    </g>
    <g id="sprite15" transform="matrix(1.0, 0.0, 0.0, 1.0, 25.1, 55.7)">
      <use ffdec:characterId="2337" height="73.6" transform="matrix(1.0, 1.0E-4, -1.0E-4, 1.0, -18.3966, -34.8017)" width="36.2" xlink:href="#sprite16"/>
      <use ffdec:characterId="1081" height="100.0" id="shape" transform="matrix(0.3205, 0.0, 0.0, 0.7, -16.0255, -34.9991)" width="100.0" xlink:href="#sprite2"/>
      <use ffdec:characterId="1138" height="0.0" id="spineRef" transform="matrix(1.0, 0.0, 0.0, 1.0, 7.25, -44.5)" width="0.0" xlink:href="#sprite17"/>
    </g>
    <g id="sprite16" transform="matrix(1.0, 0.0, 0.0, 1.0, 18.1, 36.8)">
      <use ffdec:characterId="2336" height="73.6" transform="matrix(1.0, 0.0, 0.0, 1.0, -18.1, -36.8)" width="36.2" xlink:href="#shape11"/>
    </g>
    <g id="shape11" transform="matrix(1.0, 0.0, 0.0, 1.0, 18.1, 36.8)">
      <path d="M16.25 8.85 Q15.35 6.1 14.45 1.2 L14.95 -4.65 14.45 -8.8 14.45 -8.55 Q11.7 -6.95 10.95 -6.8 11.7 -9.9 11.7 -13.8 11.7 -17.25 10.15 -21.0 L7.45 -26.9 7.45 -27.3 9.4 -25.7 11.45 -23.55 Q8.6 -33.8 -1.65 -33.8 -5.25 -33.8 -8.3 -31.65 -10.7 -29.9 -13.3 -26.3 -16.6 -19.7 -18.1 -15.95 L-18.1 -16.3 Q-18.1 -20.55 -13.95 -27.75 -11.8 -31.55 -9.45 -33.7 L-8.75 -34.35 -8.75 -34.4 Q-7.85 -35.05 -6.15 -35.9 -4.5 -36.8 0.35 -36.8 5.15 -36.8 9.45 -32.75 12.6 -29.8 14.45 -26.55 L14.35 -26.45 14.55 -26.05 Q18.15 -19.9 18.1 -15.5 18.05 -10.05 16.75 3.15 L16.25 8.85" fill="#77ddb4" fill-rule="evenodd" stroke="none"/>
      <path d="M-18.1 -15.95 Q-16.6 -19.7 -13.3 -26.3 -10.7 -29.9 -8.3 -31.65 -5.25 -33.8 -1.65 -33.8 8.6 -33.8 11.45 -23.55 L9.4 -25.7 7.45 -27.3 7.45 -26.9 10.15 -21.0 Q11.7 -17.25 11.7 -13.8 11.7 -9.9 10.95 -6.8 11.7 -6.95 14.45 -8.55 L14.45 -8.8 14.95 -4.65 14.45 1.2 Q15.35 6.1 16.25 8.85 15.45 18.5 15.45 26.05 L16.1 32.4 16.1 36.05 12.75 36.3 10.7 36.45 10.7 30.45 11.15 29.75 9.8 31.45 8.7 32.95 8.45 26.6 Q8.45 22.95 8.95 18.25 L9.95 9.45 9.7 9.45 8.15 13.75 Q7.3 15.8 6.1 17.15 7.65 7.0 7.8 -1.45 L7.9 -10.1 Q7.8 -14.85 6.7 -17.8 L2.1 -16.05 Q-0.85 -15.05 -2.4 -15.05 -5.95 -15.05 -8.6 -17.75 -11.5 -20.65 -10.8 -24.55 L-12.95 -20.3 Q-14.45 -17.05 -14.75 -10.5 -15.05 -4.0 -14.45 1.2 -13.9 6.4 -12.05 12.7 L-10.6 9.55 Q-9.6 7.45 -9.3 6.2 L-9.3 7.6 Q-9.3 10.7 -11.6 23.15 -13.1 31.25 -12.7 36.6 L-14.4 36.5 Q-14.35 34.3 -14.45 32.4 -14.8 29.65 -14.8 24.05 -15.7 16.55 -16.05 10.55 L-17.1 -2.05 -18.1 -15.95" fill="#33cc99" fill-rule="evenodd" stroke="none"/>
      <path d="M-12.7 36.6 Q-13.1 31.25 -11.6 23.15 -9.3 10.7 -9.3 7.6 L-9.3 6.2 Q-9.6 7.45 -10.6 9.55 L-12.05 12.7 Q-13.9 6.4 -14.45 1.2 -15.05 -4.0 -14.75 -10.5 -14.45 -17.05 -12.95 -20.3 L-10.8 -24.55 Q-11.5 -20.65 -8.6 -17.75 -5.95 -15.05 -2.4 -15.05 -0.85 -15.05 2.1 -16.05 L6.7 -17.8 Q7.8 -14.85 7.9 -10.1 L7.8 -1.45 Q7.65 7.0 6.1 17.15 7.3 15.8 8.15 13.75 L9.7 9.45 9.95 9.45 8.95 18.25 Q8.45 22.95 8.45 26.6 L8.7 32.95 9.8 31.45 11.15 29.75 10.7 30.45 10.7 36.45 Q-0.25 37.05 -12.7 36.6" fill="#2baa77" fill-rule="evenodd" stroke="none"/>
    </g>
    <g id="sprite18" transform="matrix(1.0, 0.0, 0.0, 1.0, 24.0, 37.45)">
      <use ffdec:characterId="2354" height="38.35" id="mc" transform="matrix(1.045, 0.0, 0.0, 1.0, -17.8657, -21.35)" width="34.3" xlink:href="#sprite19"/>
      <use ffdec:characterId="1081" height="100.0" id="shape" transform="matrix(0.35, 0.0, 0.0, 0.33, -17.4995, -16.5001)" width="100.0" xlink:href="#sprite2"/>
    </g>
    <g id="sprite19" transform="matrix(1.0, 0.0, 0.0, 1.0, 14.8, 38.05)">
      <use ffdec:characterId="2353" height="38.35" transform="matrix(1.0, 0.0, 0.0, 1.0, -14.8, -38.05)" width="34.3" xlink:href="#shape12"/>
    </g>
    <g id="shape12" transform="matrix(1.0, 0.0, 0.0, 1.0, 14.8, 38.05)">
      <path d="M-14.75 -13.1 L-14.75 -15.0 -14.7 -13.1 -14.75 -13.1" fill="#ffffff" fill-rule="evenodd" stroke="none"/>
      <path d="M8.1 -29.15 L8.2 -29.1 8.0 -28.9 8.1 -29.15" fill="#bb77a7" fill-rule="evenodd" stroke="none"/>
      <path d="M8.1 -29.15 L8.2 -29.1 8.1 -29.15" fill="#d7a55b" fill-rule="evenodd" stroke="none"/>
      <path d="M8.2 -29.1 L8.1 -29.15 Q9.3 -31.95 16.55 -31.95 L18.95 -31.35 18.95 -31.05 18.95 -30.85 19.0 -29.8 19.0 -29.35 19.25 -24.5 19.2 -24.3 19.25 -23.8 19.3 -23.55 19.3 -23.4 19.35 -21.6 19.25 -21.1 19.2 -20.55 18.15 -13.2 18.1 -12.75 18.05 -12.55 17.95 -12.05 Q15.55 -0.7 10.5 -0.7 L10.1 -0.75 8.2 -0.55 Q11.65 -2.25 11.5 -7.45 11.3 -14.75 11.7 -20.85 L12.05 -27.0 Q12.05 -27.6 10.7 -28.5 9.45 -29.3 8.95 -29.3 L8.2 -29.1 M-5.05 -0.35 Q-7.05 -0.75 -8.65 -1.65 -11.9 -3.6 -13.25 -6.45 L-14.1 -8.55 Q-14.6 -10.05 -14.7 -11.6 L-14.75 -13.1 -14.7 -13.1 -14.75 -15.0 -14.5 -18.95 -14.3 -20.6 -13.75 -25.4 -13.25 -28.4 -13.1 -29.35 -12.7 -32.1 -12.7 -32.15 -12.65 -32.1 -12.6 -32.0 -12.25 -32.0 -12.2 -32.1 -12.1 -32.5 -8.05 -32.55 -8.2 -32.1 -9.95 -25.4 Q-10.85 -20.9 -10.85 -16.7 -10.85 -9.85 -5.05 -0.35" fill="#bfa47b" fill-rule="evenodd" stroke="none"/>
      <path d="M8.2 -29.1 L8.95 -29.3 Q9.45 -29.3 10.7 -28.5 12.05 -27.6 12.05 -27.0 L11.7 -20.85 Q11.3 -14.75 11.5 -7.45 11.65 -2.25 8.2 -0.55 L8.1 -0.55 Q7.2 -0.05 5.05 0.15 L1.15 0.3 0.7 0.15 -4.55 -0.25 -5.05 -0.35 Q-10.85 -9.85 -10.85 -16.7 -10.85 -20.9 -9.95 -25.4 L-8.2 -32.1 -8.05 -32.55 -12.1 -32.5 -12.2 -32.1 -12.25 -32.0 -12.6 -32.0 -12.65 -32.1 -12.7 -32.15 -12.5 -34.25 -6.05 -33.9 -5.75 -36.5 -12.3 -36.75 -12.2 -38.05 19.3 -37.2 19.4 -36.65 19.5 -35.75 13.7 -35.9 13.95 -33.2 18.9 -33.2 18.5 -32.55 18.75 -32.1 18.95 -31.35 16.55 -31.95 Q9.3 -31.95 8.1 -29.15 L8.0 -28.9 8.2 -29.1 M12.2 -36.0 L-4.2 -36.5 -4.6 -33.75 12.4 -33.25 12.2 -36.0" fill="#b18f5f" fill-rule="evenodd" stroke="none"/>
      <path d="M19.5 -35.75 Q18.95 -34.4 18.9 -33.2 L13.95 -33.2 13.7 -35.9 19.5 -35.75 M12.2 -36.0 L12.4 -33.25 -4.6 -33.75 -4.2 -36.5 12.2 -36.0 M-12.5 -34.25 L-12.3 -36.75 -5.75 -36.5 -6.05 -33.9 -12.5 -34.25" fill="#000000" fill-rule="evenodd" stroke="none"/>
    </g>
    <g id="sprite20" transform="matrix(1.0, 0.0, 0.0, 1.0, 14.95, 11.2)">
      <use ffdec:characterId="2370" ffdec:characterName="game_fla.upperleg1_366" height="86.15" id="upperLeg1" transform="matrix(1.0, 0.0, 0.0, 1.0, -13.45, -11.2)" width="29.75" xlink:href="#sprite21"/>
      <use ffdec:characterId="2376" height="79.9" id="lowerLegOuter1" transform="matrix(1.0, 0.0, 0.0, 1.0, -14.95, 62.45)" width="40.25" xlink:href="#sprite22"/>
    </g>
    <g id="sprite21" transform="matrix(1.0, 0.0, 0.0, 1.0, 13.85, 44.35)">
      <use ffdec:characterId="2366" height="84.85" transform="matrix(1.0, 0.0, 0.0, 1.0, -13.85, -44.35)" width="27.45" xlink:href="#shape13"/>
      <use ffdec:characterId="1081" height="100.0" id="shape" transform="matrix(0.26, 0.0, 0.0, 0.82, -12.9997, -40.9988)" width="100.0" xlink:href="#sprite2"/>
    </g>
    <g id="shape13" transform="matrix(1.0, 0.0, 0.0, 1.0, 13.85, 44.35)">
      <path d="M-9.4 2.65 Q-3.55 2.5 -2.4 2.65 L-2.2 2.7 -2.3 5.7 -5.7 5.9 -9.1 6.6 -9.4 2.65" fill="#e2b181" fill-rule="evenodd" stroke="none"/>
      <path d="M-2.2 2.7 L5.9 3.35 11.45 3.9 11.4 4.75 11.35 5.1 11.25 6.8 10.55 6.65 5.3 6.15 -0.3 5.8 -2.3 5.7 Q-2.4 7.4 -2.65 9.0 -4.05 13.25 -4.5 16.15 -4.55 16.7 -6.6 20.5 L-8.7 24.35 Q-8.05 17.85 -9.1 6.6 L-5.7 5.9 -2.3 5.7 -2.2 2.7 M6.8 22.9 Q7.0 24.05 6.85 25.3 L6.3 28.15 2.85 27.25 0.9 28.55 -1.0 29.05 -2.1 29.2 -3.05 28.15 Q0.9 21.05 6.55 15.4 L8.15 8.7 Q9.2 14.7 7.15 20.5 L6.55 22.1 6.8 22.9" fill="#f4c398" fill-rule="evenodd" stroke="none"/>
      <path d="M11.25 6.8 L11.05 10.25 Q10.55 17.8 8.9 26.85 8.35 29.95 7.15 32.75 L7.05 33.0 6.25 34.7 3.9 38.65 Q3.2 39.65 -0.5 40.3 -4.25 40.95 -7.1 39.4 -9.4 38.65 -10.75 36.4 L-11.6 34.85 -11.3 32.05 -10.3 29.85 -8.9 26.25 -8.7 24.35 -6.6 20.5 Q-4.55 16.7 -4.5 16.15 -4.05 13.25 -2.65 9.0 -2.4 7.4 -2.3 5.7 L-0.3 5.8 5.3 6.15 10.55 6.65 11.25 6.8 M6.8 22.9 L6.55 22.1 7.15 20.5 Q9.2 14.7 8.15 8.7 L6.55 15.4 Q0.9 21.05 -3.05 28.15 L-2.1 29.2 -1.0 29.05 0.9 28.55 2.85 27.25 6.3 28.15 6.85 25.3 Q7.0 24.05 6.8 22.9" fill="#ffcc99" fill-rule="evenodd" stroke="none"/>
      <path d="M-13.45 -34.9 L-13.25 -32.85 -12.65 -28.05 -12.5 -27.2 -10.9 -15.5 Q-9.65 -6.95 -9.75 -0.2 L-9.9 2.65 -12.2 2.65 -13.3 2.35 Q-14.0 -3.4 -13.75 -9.15 L-13.7 -15.9 -13.7 -25.2 -13.85 -28.25 -13.65 -32.9 -13.6 -34.3 -13.45 -34.9 M5.9 3.35 Q5.9 0.55 5.3 -3.25 L4.0 -10.35 6.15 -15.9 6.9 -17.7 Q6.2 -17.15 5.0 -16.7 L3.35 -16.05 3.4 -16.3 Q5.75 -22.35 7.3 -23.65 L5.45 -23.45 3.7 -22.9 Q4.55 -23.7 5.7 -25.8 L8.1 -26.2 6.05 -26.55 6.7 -28.1 Q8.35 -32.15 8.8 -35.05 L8.9 -35.65 10.4 -35.4 Q9.0 -27.65 8.15 -26.2 L8.75 -27.15 Q10.75 -32.15 11.15 -35.3 L11.15 -35.35 11.3 -36.05 9.0 -36.4 9.25 -38.05 9.25 -38.1 9.1 -39.9 10.5 -38.7 Q12.25 -36.95 13.55 -33.2 L13.45 -28.05 13.2 -23.05 Q13.05 -20.5 13.2 -17.5 L13.2 1.8 13.0 3.45 11.5 3.9 11.45 3.9 5.9 3.35" fill="#bfa47b" fill-rule="evenodd" stroke="none"/>
      <path d="M-13.45 -34.9 Q-12.85 -38.15 -10.6 -40.65 -6.95 -44.7 -0.5 -44.3 2.25 -43.55 4.45 -42.6 7.25 -41.4 9.1 -39.9 L9.25 -38.1 9.25 -38.05 9.0 -36.4 2.5 -37.4 Q1.15 -30.5 1.7 -28.05 L3.0 -36.55 8.9 -35.65 8.8 -35.05 Q8.35 -32.15 6.7 -28.1 L6.05 -26.55 8.1 -26.2 5.7 -25.8 Q4.55 -23.7 3.7 -22.9 L5.45 -23.45 7.3 -23.65 Q5.75 -22.35 3.4 -16.3 L3.35 -16.05 5.0 -16.7 Q6.2 -17.15 6.9 -17.7 L6.15 -15.9 4.0 -10.35 5.3 -3.25 Q5.9 0.55 5.9 3.35 L-2.2 2.7 -2.4 2.65 Q-3.55 2.5 -9.4 2.65 L-9.9 2.65 -9.75 -0.2 Q-9.65 -6.95 -10.9 -15.5 L-12.5 -27.2 -12.65 -28.05 -13.25 -32.85 -13.45 -34.9 M11.15 -35.3 Q10.75 -32.15 8.75 -27.15 L8.15 -26.2 Q9.0 -27.65 10.4 -35.4 L11.15 -35.3" fill="#b18f5f" fill-rule="evenodd" stroke="none"/>
      <path d="M8.9 -35.65 L3.0 -36.55 1.7 -28.05 Q1.15 -30.5 2.5 -37.4 L9.0 -36.4 11.3 -36.05 11.15 -35.35 11.15 -35.3 10.4 -35.4 8.9 -35.65" fill="#957648" fill-rule="evenodd" stroke="none"/>
    </g>
    <g id="sprite22" transform="matrix(1.0, 0.0, 0.0, 1.0, 15.75, 3.8)">
      <use ffdec:characterId="2375" ffdec:characterName="game_fla.lowerleg1_368" height="79.9" id="lowerLeg1" transform="matrix(1.0, 0.0, 0.0, 1.0, -15.75, -3.8)" width="40.25" xlink:href="#sprite23"/>
    </g>
    <g id="sprite23" transform="matrix(1.0, 0.0, 0.0, 1.0, 14.25, 38.15)">
      <use ffdec:characterId="2371" height="66.3" transform="matrix(1.0, 0.0, 0.0, 1.0, -11.0, -38.15)" width="20.45" xlink:href="#shape14"/>
      <use ffdec:characterId="2313" height="20.9" transform="matrix(1.0, 0.0, 0.0, 1.0, -14.25, 20.85)" width="40.25" xlink:href="#shape6"/>
      <use ffdec:characterId="1081" height="100.0" id="shape" transform="matrix(0.2, 0.0, 0.0, 0.7601, -9.9998, -38.0028)" width="100.0" xlink:href="#sprite2"/>
    </g>
    <g id="shape14" transform="matrix(1.0, 0.0, 0.0, 1.0, 11.0, 38.15)">
      <path d="M3.35 -35.7 L4.7 -37.65 6.4 -37.7 Q7.95 -36.55 8.85 -34.1 L9.2 -33.0 9.45 -28.95 8.75 -30.85 8.15 -30.8 7.25 -31.4 3.85 -28.9 3.7 -28.85 2.85 -30.3 2.7 -33.1 3.35 -35.7 M8.55 -16.7 L8.25 -14.2 7.45 -7.1 7.0 -3.45 6.95 -2.65 6.7 1.25 6.6 3.1 6.85 13.2 5.3 13.2 3.6 13.6 3.9 11.55 3.95 11.5 2.7 6.1 2.65 5.65 Q1.85 7.2 1.65 11.85 L1.35 10.55 1.65 13.8 1.65 13.95 1.55 13.95 -6.25 15.4 -6.7 15.6 -6.4 11.55 Q-6.15 7.65 -6.95 3.15 -7.3 1.3 -7.8 -0.55 L-8.5 -2.9 -9.05 -4.7 Q-10.7 -10.6 -10.7 -11.55 L-10.8 -14.45 -11.0 -17.1 -10.95 -20.4 -10.25 -27.8 Q-6.9 -33.25 -3.4 -33.15 L-1.2 -33.0 Q-0.55 -32.75 -1.25 -32.25 L-2.2 -31.65 -2.2 -31.6 -3.15 -30.1 -0.1 -27.4 Q1.2 -23.1 2.8 -18.85 L3.45 -17.1 3.6 -15.8 3.65 -6.55 3.4 -3.9 3.8 -2.7 4.2 6.15 4.45 7.05 5.1 1.45 5.5 -2.45 5.85 -6.85 5.85 -6.9 Q7.5 -10.5 8.2 -14.5 L8.55 -16.7 M-1.6 -9.15 L-1.8 -9.25 -3.1 -15.2 -6.2 -10.85 -7.95 -8.45 -9.95 -8.95 -8.7 -4.8 -7.6 -0.55 -6.75 3.15 -6.55 4.3 Q-6.0 6.8 -4.6 9.0 -3.5 6.25 -3.2 2.65 L-3.2 0.55 -3.2 -1.2 -2.85 -5.6 -2.8 -6.3 -2.7 -6.3 -2.05 -8.25 -1.6 -9.15" fill="#ffcc99" fill-rule="evenodd" stroke="none"/>
      <path d="M9.45 -23.9 L9.4 -23.0 8.55 -16.7 8.2 -14.5 Q7.5 -10.5 5.85 -6.9 L5.85 -6.85 5.5 -2.45 5.1 1.45 4.45 7.05 4.2 6.15 3.8 -2.7 3.4 -3.9 3.65 -6.55 3.6 -15.8 3.45 -17.1 2.8 -18.85 Q1.2 -23.1 -0.1 -27.4 L-3.15 -30.1 -2.2 -31.6 -2.2 -31.65 -1.25 -32.25 Q-0.55 -32.75 -1.2 -33.0 L-0.1 -34.3 2.25 -36.6 3.3 -36.15 3.35 -35.7 2.7 -33.1 2.85 -30.3 3.7 -28.85 3.85 -28.9 Q3.95 -25.05 6.9 -22.0 L7.55 -21.15 9.45 -23.9 M1.65 11.85 Q1.85 7.2 2.65 5.65 L2.7 6.1 3.95 11.5 3.9 11.55 3.6 13.6 3.5 13.6 1.65 13.95 1.65 13.8 1.65 11.85 M-1.6 -9.15 L-2.05 -8.25 -2.7 -6.3 -2.8 -6.3 -2.85 -5.6 -3.2 -1.2 -3.2 0.55 -3.2 2.65 Q-3.5 6.25 -4.6 9.0 -6.0 6.8 -6.55 4.3 L-6.75 3.15 -7.6 -0.55 -8.7 -4.8 -9.95 -8.95 -7.95 -8.45 -6.2 -10.85 -3.1 -15.2 -1.8 -9.25 -1.6 -9.15" fill="#f4c398" fill-rule="evenodd" stroke="none"/>
      <path d="M9.45 -28.95 L9.45 -23.9 7.55 -21.15 6.9 -22.0 Q3.95 -25.05 3.85 -28.9 L7.25 -31.4 8.15 -30.8 8.75 -30.85 9.45 -28.95 M1.65 13.8 L1.35 10.55 1.65 11.85 1.65 13.8" fill="#ebbb98" fill-rule="evenodd" stroke="none"/>
      <path d="M6.85 13.2 L7.1 13.2 7.45 16.8 7.75 19.3 Q7.85 21.1 7.0 22.65 4.05 28.15 -2.2 28.15 L-3.55 28.05 Q-9.05 27.3 -7.3 20.9 L-7.2 19.45 -7.3 15.9 -6.7 15.6 -6.25 15.4 1.55 13.95 1.65 14.65 2.2 17.5 2.4 18.05 3.35 20.35 4.15 21.65 4.35 22.0 4.4 21.7 Q4.45 20.25 3.95 18.8 L3.55 16.9 Q3.4 15.9 3.4 14.9 L3.5 13.6 3.6 13.6 5.3 13.2 6.85 13.2 M-0.85 16.05 L-1.1 16.35 -3.0 18.45 -3.45 19.0 Q-4.2 20.1 -4.0 21.9 L-3.8 22.45 -2.75 24.5 -1.5 19.0 -0.85 16.05" fill="#ffffff" fill-rule="evenodd" stroke="none"/>
      <path d="M1.65 13.95 L3.5 13.6 3.4 14.9 Q3.4 15.9 3.55 16.9 L3.95 18.8 Q4.45 20.25 4.4 21.7 L4.35 22.0 4.15 21.65 3.35 20.35 2.4 18.05 2.2 17.5 1.65 14.65 1.55 13.95 1.65 13.95 M-0.85 16.05 L-1.5 19.0 -2.75 24.5 -3.8 22.45 -4.0 21.9 Q-4.2 20.1 -3.45 19.0 L-3.0 18.45 -1.1 16.35 -0.85 16.05" fill="#cccccc" fill-rule="evenodd" stroke="none"/>
    </g>
    <g id="sprite24" transform="matrix(1.0, 0.0, 0.0, 1.0, 13.05, 19.9)">
      <use ffdec:characterId="2382" ffdec:characterName="game_fla.upperarm1_370" height="64.55" id="upperArm1" transform="matrix(1.0, 0.0, 0.0, 1.0, -13.05, -19.9)" width="26.5" xlink:href="#sprite25"/>
      <use ffdec:characterId="2386" height="67.95" id="lowerArmOuter1" transform="matrix(1.0, 0.0, 0.0, 1.0, -8.1, 35.85)" width="17.4" xlink:href="#sprite26"/>
    </g>
    <g id="sprite25" transform="matrix(1.0, 0.0, 0.0, 1.0, 12.4, 37.05)">
      <use ffdec:characterId="2378" height="56.0" transform="matrix(1.0, 0.0, 0.0, 1.0, -10.3, -28.65)" width="21.25" xlink:href="#shape15"/>
      <use ffdec:characterId="1081" height="100.0" id="shape" transform="matrix(0.18, 0.0, 0.0, 0.55, -8.9996, -27.4994)" width="100.0" xlink:href="#sprite2"/>
    </g>
    <g id="shape15" transform="matrix(1.0, 0.0, 0.0, 1.0, 10.3, 28.65)">
      <path d="M7.35 6.3 L7.2 9.4 -0.1 9.6 -6.05 8.85 -5.05 12.85 Q-4.1 16.75 -4.05 17.6 L-3.9 18.8 Q-4.2 16.6 -6.1 13.55 L-7.55 10.95 -8.0 5.55 -7.15 5.75 -6.35 5.8 1.6 6.3 3.7 6.25 3.7 6.4 5.0 6.25 5.05 6.2 7.35 6.3" fill="#e2b181" fill-rule="evenodd" stroke="none"/>
      <path d="M7.2 9.4 L6.95 13.0 Q6.65 17.8 6.9 20.15 7.0 21.75 5.95 24.0 4.35 27.05 1.3 27.3 -1.85 27.6 -3.8 26.65 -5.35 25.0 -6.15 22.75 L-6.75 20.9 -7.55 10.95 -6.1 13.55 Q-4.2 16.6 -3.9 18.8 L-4.05 17.6 Q-4.1 16.75 -5.05 12.85 L-6.05 8.85 -0.1 9.6 7.2 9.4" fill="#ffcc99" fill-rule="evenodd" stroke="none"/>
      <path d="M-8.35 -21.6 Q-7.2 -24.5 -6.3 -25.6 -4.6 -27.6 -2.3 -28.25 L-0.95 -28.55 3.45 -28.3 Q7.25 -27.8 9.3 -24.1 10.65 -21.5 10.95 -18.0 L10.45 -10.25 10.4 -10.05 10.4 -10.25 10.25 -12.1 Q9.95 -14.95 9.3 -17.7 8.65 -20.4 6.9 -22.05 3.25 -25.55 -0.7 -25.35 L-2.3 -25.15 Q-4.55 -24.6 -6.85 -22.85 L-8.35 -21.6" fill="#77ddb4" fill-rule="evenodd" stroke="none"/>
      <path d="M-8.35 -21.6 L-6.85 -22.85 Q-4.55 -24.6 -2.3 -25.15 L-0.7 -25.35 Q3.25 -25.55 6.9 -22.05 8.65 -20.4 9.3 -17.7 9.95 -14.95 10.25 -12.1 L10.4 -10.25 10.4 -10.05 9.1 3.7 8.6 6.2 7.35 6.3 5.05 6.2 5.0 6.25 3.7 6.4 3.7 6.25 3.65 6.2 3.55 6.15 3.55 5.0 3.5 4.2 2.0 -0.95 4.75 2.1 5.5 2.05 5.75 0.25 4.2 -3.1 Q3.0 -5.8 2.35 -8.35 L5.85 -4.6 6.45 -9.9 6.2 -14.0 Q7.65 -18.6 1.6 -20.9 L-0.35 -21.4 -2.2 -21.6 Q-5.5 -21.6 -7.25 -18.85 -7.6 -18.95 -8.1 -15.85 L-8.3 -14.6 -8.5 -13.05 -8.85 -9.75 -8.9 -8.65 -8.75 -7.75 Q-8.55 -6.9 -7.95 -5.8 L-7.6 -5.2 -7.2 -5.05 Q-6.6 -5.0 -6.4 -5.55 -5.2 -6.45 -3.4 -9.2 L-6.15 -2.9 -7.2 -1.1 -8.25 1.15 -8.4 2.4 -8.8 5.35 -9.4 5.15 Q-10.2 4.8 -10.25 4.2 L-10.25 1.35 -10.25 -5.6 -10.0 -12.9 -9.8 -15.85 Q-9.7 -18.3 -9.3 -19.2 L-8.8 -20.6 -8.35 -21.6" fill="#33cc99" fill-rule="evenodd" stroke="none"/>
      <path d="M-8.0 5.55 L-8.8 5.35 -8.4 2.4 -8.25 1.15 -7.2 -1.1 -6.15 -2.9 -3.4 -9.2 Q-5.2 -6.45 -6.4 -5.55 -6.6 -5.0 -7.2 -5.05 L-7.6 -5.2 -7.95 -5.8 Q-8.55 -6.9 -8.75 -7.75 L-8.9 -8.65 -8.85 -9.75 -8.5 -13.05 -8.3 -14.6 -8.1 -15.85 Q-7.6 -18.95 -7.25 -18.85 -5.5 -21.6 -2.2 -21.6 L-0.35 -21.4 1.6 -20.9 Q7.65 -18.6 6.2 -14.0 L6.45 -9.9 5.85 -4.6 2.35 -8.35 Q3.0 -5.8 4.2 -3.1 L5.75 0.25 5.5 2.05 4.75 2.1 2.0 -0.95 3.5 4.2 3.55 5.0 3.55 6.15 3.65 6.2 3.7 6.25 1.6 6.3 -6.35 5.8 -7.15 5.75 -8.0 5.55" fill="#2baa77" fill-rule="evenodd" stroke="none"/>
    </g>
    <g id="sprite26" transform="matrix(1.0, 0.0, 0.0, 1.0, 7.45, 3.85)">
      <use ffdec:characterId="2385" ffdec:characterName="game_fla.lowerarm1_372" height="67.95" id="lowerArm1" transform="matrix(1.0, 0.0, 0.0, 1.0, -7.45, -3.85)" width="17.4" xlink:href="#sprite27"/>
    </g>
    <g id="sprite27" transform="matrix(1.0, 0.0, 0.0, 1.0, 8.95, 30.35)">
      <use ffdec:characterId="2383" height="48.2" transform="matrix(1.0, 0.0, 0.0, 1.0, -7.15, -29.5)" width="13.8" xlink:href="#shape16"/>
      <use ffdec:characterId="1549" ffdec:characterName="game_fla.hand_373" height="24.55" id="hand" transform="matrix(1.0, 0.0, 0.0, 1.0, -8.95, 13.05)" width="16.7" xlink:href="#sprite28"/>
      <use ffdec:characterId="1081" height="100.0" id="shape" transform="matrix(0.15, 0.0, 0.0, 0.6, -7.4997, -29.9995)" width="100.0" xlink:href="#sprite2"/>
    </g>
    <g id="shape16" transform="matrix(1.0, 0.0, 0.0, 1.0, 7.15, 29.5)">
      <path d="M1.85 -25.95 Q3.05 -28.05 1.8 -28.2 L-0.25 -25.05 -1.2 -23.2 Q-2.4 -20.75 -3.2 -18.1 L-5.8 -8.3 -5.65 -8.75 -5.2 -4.15 -3.7 1.65 -3.6 2.15 -3.65 -3.15 -3.4 -6.05 Q-2.7 -12.8 -0.75 -19.8 L0.35 -21.15 1.15 -17.7 1.3 -18.3 Q1.7 -20.2 1.45 -21.05 0.55 -23.55 1.85 -25.95 M-4.7 -28.5 L-3.95 -28.15 -2.1 -27.85 Q0.65 -27.8 2.6 -29.5 L4.85 -28.65 Q6.3 -24.35 6.55 -20.8 6.85 -17.3 6.4 -12.75 L5.55 -3.2 5.15 2.85 5.1 4.75 4.85 2.85 3.85 -2.55 3.35 -4.95 3.6 8.95 4.25 9.55 5.05 11.1 Q4.85 11.75 3.25 11.85 L-1.65 12.1 Q-1.75 12.15 -1.9 12.0 -1.95 10.85 -2.7 8.4 -2.65 10.5 -4.15 13.0 -4.15 8.7 -5.1 2.8 L-5.25 2.05 Q-6.45 -4.5 -6.85 -8.45 -7.25 -12.45 -7.15 -14.55 L-7.0 -23.95 Q-5.65 -24.95 -5.8 -22.2 -5.25 -22.15 -4.75 -23.55 -4.25 -25.0 -4.7 -28.5 M5.45 12.65 L5.5 13.0 5.35 13.0 5.45 12.65" fill="#ffcc99" fill-rule="evenodd" stroke="none"/>
      <path d="M1.85 -25.95 Q0.55 -23.55 1.45 -21.05 1.7 -20.2 1.3 -18.3 L1.15 -17.7 0.35 -21.15 -0.75 -19.8 Q-2.7 -12.8 -3.4 -6.05 L-3.65 -3.15 -3.6 2.15 -3.7 1.65 -5.2 -4.15 -5.65 -8.75 -5.8 -8.3 -3.2 -18.1 Q-2.4 -20.75 -1.2 -23.2 L-0.25 -25.05 1.8 -28.2 Q3.05 -28.05 1.85 -25.95 M-4.15 13.0 Q-2.65 10.5 -2.7 8.4 -1.95 10.85 -1.9 12.0 -1.75 12.15 -1.65 12.1 L3.25 11.85 Q4.85 11.75 5.05 11.1 L4.25 9.55 3.6 8.95 3.35 -4.95 3.85 -2.55 4.85 2.85 5.1 4.75 5.15 9.6 5.3 11.2 5.45 12.15 5.45 12.65 5.35 13.0 Q1.1 24.4 -4.15 13.0" fill="#ebbb98" fill-rule="evenodd" stroke="none"/>
      <path d="M-4.7 -28.5 Q-4.25 -25.0 -4.75 -23.55 -5.25 -22.15 -5.8 -22.2 -5.65 -24.95 -7.0 -23.95 L-5.6 -28.3 Q-5.4 -28.9 -4.7 -28.5" fill="#e2b181" fill-rule="evenodd" stroke="none"/>
    </g>
    <g id="sprite28" transform="matrix(1.0, 0.0, 0.0, 1.0, 9.35, 8.9)">
      <use ffdec:characterId="1547" height="17.85" transform="matrix(1.0, 0.0, 0.0, 1.0, -7.3, -8.9)" width="14.65" xlink:href="#shape17"/>
    </g>
    <g id="shape17" transform="matrix(1.0, 0.0, 0.0, 1.0, 7.3, 8.9)">
      <path d="M4.95 -8.9 L5.15 -8.9 5.15 -8.7 7.35 0.55 6.75 2.2 5.6 3.65 5.8 6.3 5.15 5.3 Q3.45 6.0 1.8 7.05 L0.45 6.1 Q-0.4 7.25 -1.15 6.95 L-2.0 6.65 -2.55 5.85 -6.25 4.75 -5.9 4.05 Q-4.8 1.7 -4.3 -0.85 -3.95 -2.9 -3.25 -4.7 -2.75 -5.95 -2.55 -7.15 L-2.45 -7.75 1.6 -8.25 1.35 -7.75 1.75 -7.35 2.2 -7.15 4.15 -4.0 4.95 -7.2 Q5.1 -7.95 4.85 -8.65 L4.95 -8.9 M-4.75 -7.5 L-4.45 -8.45 -4.55 -8.8 -4.55 -8.9 -4.05 -8.9 -4.75 -7.5" fill="#ffcc99" fill-rule="evenodd" stroke="none"/>
      <path d="M5.8 6.3 L5.75 6.7 5.7 6.85 Q4.9 7.55 3.7 8.05 L2.65 7.7 2.5 7.65 2.0 8.1 0.85 8.65 -0.3 8.95 -1.2 7.95 -1.25 8.0 -1.85 8.5 -3.05 8.5 Q-4.9 8.0 -5.5 6.3 L-6.55 5.9 -7.2 4.85 -7.3 4.6 Q-7.2 -0.15 -5.5 -5.05 L-4.75 -7.5 -4.05 -8.9 4.95 -8.9 4.85 -8.65 Q5.1 -7.95 4.95 -7.2 L4.15 -4.0 2.2 -7.15 1.75 -7.35 1.35 -7.75 1.6 -8.25 -2.45 -7.75 -2.55 -7.15 Q-2.75 -5.95 -3.25 -4.7 -3.95 -2.9 -4.3 -0.85 -4.8 1.7 -5.9 4.05 L-6.25 4.75 -2.55 5.85 -2.0 6.65 -1.15 6.95 Q-0.4 7.25 0.45 6.1 L1.8 7.05 Q3.45 6.0 5.15 5.3 L5.8 6.3" fill="#ebbb98" fill-rule="evenodd" stroke="none"/>
    </g>
  </defs>
</svg>
