<?xml version="1.0" encoding="UTF-8" standalone="no"?>
<svg xmlns:ffdec="https://www.free-decompiler.com/flash" xmlns:xlink="http://www.w3.org/1999/xlink" ffdec:objectType="frame" height="23.0px" width="18.65px" xmlns="http://www.w3.org/2000/svg">
  <g transform="matrix(1.0, 0.0, 0.0, 1.0, 9.65, 9.2)">
    <use ffdec:characterId="1843" height="18.45" transform="matrix(1.0, 0.0, 0.0, 1.0, -8.3, -9.2)" width="16.6" xlink:href="#shape0"/>
  </g>
  <defs>
    <g id="shape0" transform="matrix(1.0, 0.0, 0.0, 1.0, 8.3, 9.2)">
      <path d="M-0.8 -9.2 L6.65 -9.2 7.05 -6.2 7.55 -4.5 Q8.55 -1.25 8.2 0.4 L8.1 1.05 Q7.8 3.75 7.3 5.05 L6.55 6.2 5.75 6.9 5.45 7.05 3.75 7.95 Q2.65 8.15 1.7 8.85 0.75 9.45 -0.25 9.15 L-0.45 9.1 Q-1.4 8.85 -1.7 8.0 -1.45 8.35 -0.7 8.35 L-0.45 8.35 -0.15 8.15 -0.1 8.15 -0.45 8.0 Q-1.0 7.55 -1.0 6.1 -1.0 5.8 -0.45 5.45 L-0.35 5.4 0.25 5.15 0.4 5.1 1.15 5.9 1.25 6.2 1.65 7.2 1.8 7.15 2.45 6.55 2.95 6.05 3.4 5.6 4.55 4.55 4.1 3.6 Q3.6 2.95 3.8 1.0 L2.7 0.4 1.45 1.7 0.55 2.85 0.05 4.0 -0.25 4.55 -0.45 4.85 -1.05 5.05 -1.7 5.0 -2.35 4.75 -3.55 3.95 Q-4.55 3.35 -4.65 2.45 -4.75 1.6 -3.2 2.25 L-2.85 2.25 -3.05 1.4 Q-2.7 1.3 -2.7 0.1 -2.7 -1.6 -2.2 -2.7 L-1.5 -3.8 -1.45 -4.5 -1.7 -5.35 -3.4 -6.4 -4.0 -6.55 -3.95 -6.85 -4.25 -7.8 -4.55 -8.55 -4.35 -8.85 -2.25 -8.35 -0.4 -8.05 Q-0.05 -8.05 -0.8 -9.2 M-7.4 -1.1 L-7.35 -1.45 Q-7.3 -2.25 -7.4 -3.05 L-7.45 -4.2 Q-7.75 -6.45 -6.85 -8.3 L-6.85 -9.2 -5.75 -9.2 -5.8 -8.15 -5.6 -6.25 -6.0 -6.0 Q-6.45 -5.65 -6.3 -4.35 -6.55 -2.35 -7.15 -1.55 L-7.3 -1.25 -7.4 -1.1" fill="#583a30" fill-rule="evenodd" stroke="none"/>
      <path d="M-1.7 8.0 L-2.95 7.75 -3.6 7.45 -3.8 7.35 -4.45 6.5 Q-5.05 5.3 -5.4 5.3 L-6.0 5.05 Q-7.4 4.3 -6.6 2.6 -8.75 1.9 -8.2 0.0 L-7.6 -0.8 -7.4 -1.1 -7.3 -1.25 -7.15 -1.55 Q-6.55 -2.35 -6.3 -4.35 -6.45 -5.65 -6.0 -6.0 L-5.6 -6.25 -5.8 -8.15 -5.75 -9.2 -0.8 -9.2 Q-0.05 -8.05 -0.4 -8.05 L-2.25 -8.35 -4.35 -8.85 -4.55 -8.55 -4.25 -7.8 -3.95 -6.85 -4.0 -6.55 -3.4 -6.4 -1.7 -5.35 -1.45 -4.5 -1.5 -3.8 -2.2 -2.7 Q-2.7 -1.6 -2.7 0.1 -2.7 1.3 -3.05 1.4 L-2.85 2.25 -3.2 2.25 Q-4.75 1.6 -4.65 2.45 -4.55 3.35 -3.55 3.95 L-2.35 4.75 -2.75 5.65 -2.4 6.75 -2.35 6.75 -1.6 6.5 -1.4 5.8 -1.7 5.0 -1.05 5.05 -0.45 4.85 -0.25 4.55 0.05 4.0 0.55 2.85 1.05 3.3 2.45 3.05 2.2 2.15 1.7 1.8 1.45 1.7 2.7 0.4 3.8 1.0 Q3.6 2.95 4.1 3.6 L4.55 4.55 3.4 5.6 2.95 6.05 2.45 6.55 1.8 7.15 1.65 7.2 1.25 6.2 1.15 5.9 0.4 5.1 0.25 5.15 -0.35 5.4 -0.45 5.45 Q-1.0 5.8 -1.0 6.1 -1.0 7.55 -0.45 8.0 L-0.1 8.15 -0.15 8.15 -0.45 8.35 -0.7 8.35 Q-1.45 8.35 -1.7 8.0 M-5.4 5.3 L-5.65 3.35 -4.7 1.55 -3.6 1.15 Q-3.2 0.25 -3.05 -1.0 -2.75 -2.95 -3.35 -4.5 L-6.2 -1.25 -5.05 0.7 -5.6 1.85 -5.75 2.3 Q-6.2 3.85 -5.4 5.3 M-4.0 6.05 L-3.95 6.85 Q-3.35 6.15 -3.1 5.3 L-3.45 4.3 Q-4.1 4.7 -4.0 6.05" fill="#4e332a" fill-rule="evenodd" stroke="none"/>
      <path d="M-2.35 4.75 L-1.7 5.0 -1.4 5.8 -1.6 6.5 -2.35 6.75 -2.4 6.75 -2.75 5.65 -2.35 4.75 M0.55 2.85 L1.45 1.7 1.7 1.8 2.2 2.15 2.45 3.05 1.05 3.3 0.55 2.85 M-5.4 5.3 Q-6.2 3.85 -5.75 2.3 L-5.6 1.85 -5.05 0.7 -6.2 -1.25 -3.35 -4.5 Q-2.75 -2.95 -3.05 -1.0 -3.2 0.25 -3.6 1.15 L-4.7 1.55 -5.65 3.35 -5.4 5.3 M-4.0 6.05 Q-4.1 4.7 -3.45 4.3 L-3.1 5.3 Q-3.35 6.15 -3.95 6.85 L-4.0 6.05" fill="#462e26" fill-rule="evenodd" stroke="none"/>
    </g>
  </defs>
</svg>
