<?xml version="1.0" encoding="UTF-8" standalone="no"?>
<svg xmlns:ffdec="https://www.free-decompiler.com/flash" xmlns:xlink="http://www.w3.org/1999/xlink" ffdec:objectType="frame" height="23.0px" width="18.65px" xmlns="http://www.w3.org/2000/svg">
  <g transform="matrix(1.0, 0.0, 0.0, 1.0, 9.65, 9.2)">
    <use ffdec:characterId="1844" height="23.0" transform="matrix(1.0, 0.0, 0.0, 1.0, -9.65, -9.2)" width="18.65" xlink:href="#shape0"/>
  </g>
  <defs>
    <g id="shape0" transform="matrix(1.0, 0.0, 0.0, 1.0, 9.65, 9.2)">
      <path d="M0.65 6.75 L0.65 6.5 0.35 5.35 0.15 5.35 -0.1 4.6 2.7 0.4 3.4 0.75 5.15 5.9 2.7 3.3 2.2 3.4 2.0 5.0 1.2 9.95 0.65 6.75 M-6.65 11.5 L-7.45 10.7 Q-7.75 9.85 -7.0 9.35 L-6.05 8.85 -5.25 8.15 Q-4.15 6.95 -4.1 5.0 L-4.1 4.3 -4.15 4.3 -4.5 3.75 -4.55 3.5 -4.6 3.3 -4.9 3.3 -8.15 6.35 -8.6 6.85 -9.15 6.5 -9.45 6.6 -9.6 6.15 -9.65 6.1 -9.65 5.7 -8.7 4.5 -7.35 3.45 -7.35 3.05 -6.85 2.05 -6.95 1.45 -6.9 1.45 -6.95 1.25 Q-7.65 -1.6 -7.45 -4.5 L-7.3 -1.25 -5.85 1.45 -5.4 0.05 -6.2 -1.25 -3.35 -4.5 -3.2 -3.4 Q-2.55 -2.95 -2.7 -1.1 L-2.7 -1.05 -2.65 -1.05 -2.45 -0.75 -2.45 1.1 -2.65 1.4 -2.45 2.7 Q-3.4 3.0 -3.4 4.5 -3.4 6.05 -2.35 6.05 L-2.15 6.05 Q-2.6 8.05 -4.35 9.1 L-5.1 9.45 -5.4 9.6 -5.5 9.7 -5.9 10.1 -6.65 11.5" fill="#462e26" fill-rule="evenodd" stroke="none"/>
      <path d="M6.8 13.35 L5.8 13.65 Q4.5 13.45 4.3 12.9 L4.45 12.5 4.85 10.8 Q5.15 8.85 4.95 6.5 L4.7 6.15 4.1 5.05 Q3.85 5.6 2.35 11.0 1.8 13.15 0.75 13.7 L1.15 13.75 0.35 13.8 0.05 13.8 -0.1 13.8 Q-1.45 13.1 -0.8 12.25 0.15 10.9 0.55 9.5 0.85 8.4 0.65 6.75 L1.2 9.95 2.0 5.0 2.2 3.4 2.7 3.3 5.15 5.9 3.4 0.75 3.55 0.85 Q4.45 1.05 5.1 2.85 L5.7 4.0 6.1 5.0 Q7.0 7.2 5.7 12.5 L5.65 12.6 Q5.65 13.5 6.8 13.35 M-5.85 11.45 L-6.65 11.5 -5.9 10.1 -5.5 9.7 -5.4 9.6 -5.1 9.45 -4.35 9.1 Q-2.6 8.05 -2.15 6.05 -1.1 5.9 -0.1 4.6 L0.15 5.35 -1.25 7.7 Q-3.75 11.25 -5.9 11.35 L-5.85 11.45 M-8.0 7.0 L-8.15 7.0 -8.6 6.85 -9.45 6.6 -9.15 6.5 -8.6 6.85 -8.15 6.35 -4.9 3.3 -4.6 3.3 -4.55 3.5 Q-4.7 4.25 -6.15 5.6 L-8.0 7.0 M-5.75 -9.2 L-0.8 -9.2 -0.35 -8.3 -4.35 -8.85 Q-3.9 -7.65 -4.0 -6.55 L-1.9 -5.6 -1.4 -4.15 Q-2.3 -2.45 -2.45 -0.75 L-2.65 -1.05 -2.7 -1.05 -2.7 -1.1 Q-2.55 -2.95 -3.2 -3.4 L-3.35 -4.5 -6.2 -1.25 -5.4 0.05 -5.85 1.45 -7.3 -1.25 Q-6.3 -2.4 -6.25 -4.1 L-6.15 -5.7 -5.6 -6.25 -5.75 -9.2" fill="#4e332a" fill-rule="evenodd" stroke="none"/>
      <path d="M-0.8 -9.2 L-0.1 -9.2 0.0 -9.15 1.65 -9.15 1.6 -9.2 3.35 -9.2 3.3 -9.15 6.75 -9.15 7.15 -6.25 7.6 -4.55 Q8.6 -1.3 8.3 0.35 L8.15 1.0 8.1 1.45 8.1 1.55 8.05 2.05 8.1 2.05 8.8 5.8 Q9.3 8.8 8.4 10.45 L7.4 12.5 6.8 13.35 Q5.65 13.5 5.65 12.6 L5.7 12.5 Q7.0 7.2 6.1 5.0 L5.7 4.0 5.1 2.85 Q4.45 1.05 3.55 0.85 L3.4 0.75 2.7 0.4 -0.1 4.6 Q-1.1 5.9 -2.15 6.05 L-2.35 6.05 Q-3.4 6.05 -3.4 4.5 -3.4 3.0 -2.45 2.7 L-2.65 1.4 -2.45 1.1 -2.45 -0.75 Q-2.3 -2.45 -1.4 -4.15 L-1.9 -5.6 -4.0 -6.55 Q-3.9 -7.65 -4.35 -8.85 L-0.35 -8.3 -0.8 -9.2 M4.7 6.15 Q4.35 7.3 4.25 9.25 3.95 11.9 1.15 13.75 L0.75 13.7 Q1.8 13.15 2.35 11.0 3.85 5.6 4.1 5.05 L4.7 6.15 M0.35 5.35 L0.3 5.75 Q-0.15 8.05 -2.25 9.95 L-3.15 10.65 Q-5.65 11.85 -5.85 11.45 L-5.9 11.35 Q-3.75 11.25 -1.25 7.7 L0.15 5.35 0.35 5.35 M-4.15 4.3 Q-5.0 6.25 -7.35 6.95 L-7.75 7.05 -8.0 7.0 -6.15 5.6 Q-4.7 4.25 -4.55 3.5 L-4.5 3.75 -4.15 4.3 M-7.45 -4.5 Q-7.7 -6.55 -6.85 -8.3 L-6.85 -9.2 -5.75 -9.2 -5.6 -6.25 -6.15 -5.7 -6.25 -4.1 Q-6.3 -2.4 -7.3 -1.25 L-7.45 -4.5" fill="#583a30" fill-rule="evenodd" stroke="none"/>
    </g>
  </defs>
</svg>
