<?xml version="1.0" encoding="UTF-8" standalone="no"?>
<svg xmlns:ffdec="https://www.free-decompiler.com/flash" xmlns:xlink="http://www.w3.org/1999/xlink" ffdec:objectType="frame" height="81.2px" width="40.15px" xmlns="http://www.w3.org/2000/svg">
  <g transform="matrix(1.0, 0.0, 0.0, 1.0, 13.75, 39.85)">
    <use ffdec:characterId="2406" height="21.55" transform="matrix(1.0, 0.0, 0.0, 1.0, -12.4, 19.8)" width="38.8" xlink:href="#shape0"/>
    <use ffdec:characterId="2407" height="69.8" transform="matrix(1.0, 0.0, 0.0, 1.0, -12.7, -39.85)" width="24.25" xlink:href="#shape1"/>
    <use ffdec:characterId="1081" height="100.0" id="shape" transform="matrix(0.2, 0.0, 0.0, 0.7601, -9.9998, -38.0028)" width="100.0" xlink:href="#sprite0"/>
  </g>
  <defs>
    <g id="shape0" transform="matrix(1.0, 0.0, 0.0, 1.0, 12.4, -19.8)">
      <path d="M26.35 36.5 L26.4 36.8 26.35 37.0 26.35 36.5 M26.35 37.1 L26.2 37.6 26.25 37.45 26.35 37.1" fill="#ffcc99" fill-rule="evenodd" stroke="none"/>
      <path d="M26.35 37.0 L26.35 37.05 26.35 37.1 26.25 37.45 26.35 36.5 26.35 37.0" fill="#e2b181" fill-rule="evenodd" stroke="none"/>
      <path d="M-3.1 23.5 L-0.05 22.7 1.65 22.35 2.45 22.15 2.6 22.15 2.65 22.15 Q4.15 21.75 7.1 19.8 L7.65 20.85 Q7.7 21.1 7.85 21.15 L9.25 23.2 Q11.8 26.45 15.45 28.6 L17.05 29.55 17.1 29.55 Q20.1 30.75 23.25 31.6 26.55 32.3 26.35 36.45 L26.35 36.5 26.25 37.45 26.2 37.6 26.2 37.65 26.15 37.65 25.15 37.65 23.8 37.55 23.6 37.55 18.8 37.2 18.15 37.1 14.75 36.65 Q9.05 35.8 5.95 30.15 L4.35 27.65 3.6 26.85 2.85 28.85 2.25 29.8 1.0 31.15 Q-2.8 31.1 -3.2 27.25 L-3.15 24.8 -3.1 23.5 M26.1 40.4 L25.35 41.35 Q18.2 41.1 12.5 39.75 L6.4 38.4 2.25 37.8 -0.2 38.15 -12.4 36.65 -12.35 36.55 -12.4 35.9 -12.35 35.7 -12.3 34.95 -12.15 34.5 -9.8 35.05 -1.8 36.05 Q3.75 36.3 9.25 37.65 L16.35 39.25 18.65 39.75 19.05 39.8 22.6 40.3 26.1 40.4 M-11.75 33.05 L-11.7 29.3 Q-11.25 26.3 -10.25 23.5 L-10.15 23.5 -7.25 23.65 -7.4 23.7 Q-9.05 24.05 -9.0 26.55 -8.95 30.0 -8.4 31.2 -8.2 32.6 -9.1 32.85 L-10.45 33.1 -11.1 33.05 -11.75 33.05 M17.1 32.35 L20.3 33.15 23.8 33.5 24.05 33.2 Q21.45 31.2 18.55 31.75 L18.1 31.9 17.1 32.35" fill="#333333" fill-rule="evenodd" stroke="none"/>
      <path d="M17.1 32.35 L18.1 31.9 18.55 31.75 Q21.45 31.2 24.05 33.2 L23.8 33.5 20.3 33.15 17.1 32.35" fill="#999999" fill-rule="evenodd" stroke="none"/>
      <path d="M26.2 37.65 L25.8 39.55 25.25 39.4 24.5 39.35 24.1 39.35 20.6 38.8 19.65 38.65 19.55 38.65 18.8 38.5 16.7 38.2 Q14.35 37.75 12.7 37.05 L8.4 36.2 6.2 35.95 3.2 35.55 2.35 35.4 1.05 35.2 -1.45 34.85 -5.5 34.85 -8.25 34.6 -10.5 34.15 -11.6 33.8 -11.7 33.25 -11.75 33.05 -11.1 33.05 -10.45 33.1 -9.1 32.85 Q-8.2 32.6 -8.4 31.2 -8.95 30.0 -9.0 26.55 -9.05 24.05 -7.4 23.7 L-7.25 23.65 -4.9 23.8 -3.55 23.5 -3.5 23.5 -3.3 23.55 -3.1 23.5 -3.15 24.8 -3.2 27.25 Q-2.8 31.1 1.0 31.15 L2.25 29.8 2.85 28.85 3.6 26.85 4.35 27.65 5.95 30.15 Q9.05 35.8 14.75 36.65 L18.15 37.1 18.8 37.2 23.6 37.55 23.8 37.55 25.15 37.65 26.15 37.65 26.2 37.65" fill="#151515" fill-rule="evenodd" stroke="none"/>
      <path d="M25.8 39.55 Q26.2 39.8 26.1 40.25 L26.1 40.4 22.6 40.3 19.05 39.8 18.65 39.75 16.35 39.25 9.25 37.65 Q3.75 36.3 -1.8 36.05 L-9.8 35.05 -12.15 34.5 -12.15 34.45 -11.7 33.25 -11.6 33.8 -10.5 34.15 -8.25 34.6 -5.5 34.85 -1.45 34.85 1.05 35.2 2.35 35.4 3.2 35.55 6.2 35.95 8.4 36.2 12.7 37.05 Q14.35 37.75 16.7 38.2 L18.8 38.5 19.55 38.65 19.65 38.65 20.6 38.8 24.1 39.35 24.5 39.35 25.25 39.4 25.8 39.55" fill="#666666" fill-rule="evenodd" stroke="none"/>
      <path d="M-10.25 23.5 L-10.15 23.4 -10.1 23.4 -10.15 23.5 -10.25 23.5" fill="#3333ff" fill-rule="evenodd" stroke="none"/>
    </g>
    <g id="shape1" transform="matrix(1.0, 0.0, 0.0, 1.0, 12.7, 39.85)">
      <path d="M-9.75 -31.65 Q-8.2 -33.5 -5.6 -35.4 -0.05 -39.5 2.85 -39.8 L5.5 -39.65 Q4.05 -38.75 3.35 -35.7 L3.25 -35.2 Q2.8 -32.85 2.85 -30.8 L2.85 -30.3 2.9 -29.75 Q2.95 -29.15 3.6 -27.45 L4.3 -25.5 Q4.45 -25.55 4.45 -25.4 5.85 -26.65 8.05 -29.45 5.9 -21.05 5.55 -16.25 5.3 -12.95 5.9 -6.95 L6.0 -5.65 Q6.4 -2.2 5.55 2.05 4.45 7.4 4.35 8.95 L5.4 7.8 6.5 6.45 6.65 6.45 6.65 6.55 3.65 17.15 3.6 17.25 3.75 17.4 Q5.25 19.1 5.35 19.95 L5.3 21.1 5.15 21.75 4.85 22.95 4.95 23.8 5.35 23.8 6.65 24.05 7.05 24.2 Q5.7 25.3 -0.5 27.15 -6.75 28.9 -10.85 29.4 L-10.35 26.5 Q-9.85 23.4 -8.9 21.5 -7.75 19.2 -6.7 15.9 L-6.15 13.85 -4.8 8.7 -4.55 7.8 -4.65 7.75 -5.0 8.35 -6.05 10.2 -6.35 10.65 -7.65 12.2 -7.65 11.95 -7.3 9.9 Q-6.95 7.75 -6.95 6.95 L-7.2 3.75 -7.45 0.7 -7.55 -0.1 -7.55 -0.3 Q-7.7 -3.25 -7.45 -8.35 L-7.4 -9.2 Q-7.25 -13.4 -7.4 -14.7 L-8.5 -19.6 Q-9.55 -23.0 -9.9 -26.5 L-9.9 -28.0 -9.75 -31.65" fill="#5c617c" fill-rule="evenodd" stroke="none"/>
      <path d="M5.5 -39.65 Q8.45 -38.9 9.95 -35.2 L11.1 -29.45 Q11.25 -28.3 10.7 -20.95 L10.0 -12.2 9.7 -7.95 9.4 -3.55 Q8.4 3.6 8.55 4.95 L9.6 9.1 10.45 12.2 10.4 15.15 Q10.2 16.65 10.45 18.95 10.55 19.9 11.55 21.35 11.7 22.6 7.05 24.2 L6.65 24.05 5.35 23.8 4.95 23.8 4.85 22.95 5.15 21.75 5.3 21.1 5.35 19.95 Q5.25 19.1 3.75 17.4 L3.6 17.25 3.65 17.15 6.65 6.55 6.65 6.45 6.5 6.45 5.4 7.8 4.35 8.95 Q4.45 7.4 5.55 2.05 6.4 -2.2 6.0 -5.65 L5.9 -6.95 Q5.3 -12.95 5.55 -16.25 5.9 -21.05 8.05 -29.45 5.85 -26.65 4.45 -25.4 4.45 -25.55 4.3 -25.5 L3.6 -27.45 Q2.95 -29.15 2.9 -29.75 L2.85 -30.3 2.85 -30.8 Q2.8 -32.85 3.25 -35.2 L3.35 -35.7 Q4.05 -38.75 5.5 -39.65 M-10.85 29.4 L-12.5 29.9 -12.7 29.75 -12.0 26.8 -11.4 25.1 Q-10.65 18.05 -10.9 15.85 L-10.8 8.1 -10.6 -0.05 -12.05 -15.7 -12.1 -18.4 Q-11.95 -19.85 -12.05 -21.85 L-12.2 -23.3 Q-12.3 -24.3 -12.05 -24.9 L-11.85 -25.4 -11.9 -26.0 Q-12.2 -28.75 -9.75 -31.65 L-9.9 -28.0 -9.9 -26.5 Q-9.55 -23.0 -8.5 -19.6 L-7.4 -14.7 Q-7.25 -13.4 -7.4 -9.2 L-7.45 -8.35 Q-7.7 -3.25 -7.55 -0.3 L-7.55 -0.1 -7.45 0.7 -7.2 3.75 -6.95 6.95 Q-6.95 7.75 -7.3 9.9 L-7.65 11.95 -7.65 12.2 -6.35 10.65 -6.05 10.2 -5.0 8.35 -4.65 7.75 -4.55 7.8 -4.8 8.7 -6.15 13.85 -6.7 15.9 Q-7.75 19.2 -8.9 21.5 -9.85 23.4 -10.35 26.5 L-10.85 29.4" fill="#727e94" fill-rule="evenodd" stroke="none"/>
    </g>
    <g id="sprite0" transform="matrix(1.0, 0.0, 0.0, 1.0, 50.0, 50.0)">
      <use ffdec:characterId="1080" height="100.0" transform="matrix(1.0, 0.0, 0.0, 1.0, -50.0, -50.0)" width="100.0" xlink:href="#shape2"/>
    </g>
    <g id="shape2" transform="matrix(1.0, 0.0, 0.0, 1.0, 50.0, 50.0)">
      <path d="M50.0 50.0 L-50.0 50.0 -50.0 -50.0 50.0 -50.0 50.0 50.0 Z" fill="none" stroke="#9900ff" stroke-linecap="round" stroke-linejoin="round" stroke-width="0.05"/>
    </g>
  </defs>
</svg>
