<?xml version="1.0" encoding="UTF-8" standalone="no"?>
<svg xmlns:ffdec="https://www.free-decompiler.com/flash" xmlns:xlink="http://www.w3.org/1999/xlink" ffdec:objectType="frame" height="81.2px" width="40.15px" xmlns="http://www.w3.org/2000/svg">
  <g transform="matrix(1.0, 0.0, 0.0, 1.0, 13.75, 39.85)">
    <use ffdec:characterId="2406" height="21.55" transform="matrix(1.0, 0.0, 0.0, 1.0, -12.4, 19.8)" width="38.8" xlink:href="#shape0"/>
    <use ffdec:characterId="2408" height="66.8" transform="matrix(1.0, 0.0, 0.0, 1.0, -12.7, -36.85)" width="25.0" xlink:href="#shape1"/>
  </g>
  <defs>
    <g id="shape0" transform="matrix(1.0, 0.0, 0.0, 1.0, 12.4, -19.8)">
      <path d="M26.35 36.5 L26.4 36.8 26.35 37.0 26.35 36.5 M26.35 37.1 L26.2 37.6 26.25 37.45 26.35 37.1" fill="#ffcc99" fill-rule="evenodd" stroke="none"/>
      <path d="M26.35 37.0 L26.35 37.05 26.35 37.1 26.25 37.45 26.35 36.5 26.35 37.0" fill="#e2b181" fill-rule="evenodd" stroke="none"/>
      <path d="M-3.1 23.5 L-0.05 22.7 1.65 22.35 2.45 22.15 2.6 22.15 2.65 22.15 Q4.15 21.75 7.1 19.8 L7.65 20.85 Q7.7 21.1 7.85 21.15 L9.25 23.2 Q11.8 26.45 15.45 28.6 L17.05 29.55 17.1 29.55 Q20.1 30.75 23.25 31.6 26.55 32.3 26.35 36.45 L26.35 36.5 26.25 37.45 26.2 37.6 26.2 37.65 26.15 37.65 25.15 37.65 23.8 37.55 23.6 37.55 18.8 37.2 18.15 37.1 14.75 36.65 Q9.05 35.8 5.95 30.15 L4.35 27.65 3.6 26.85 2.85 28.85 2.25 29.8 1.0 31.15 Q-2.8 31.1 -3.2 27.25 L-3.15 24.8 -3.1 23.5 M26.1 40.4 L25.35 41.35 Q18.2 41.1 12.5 39.75 L6.4 38.4 2.25 37.8 -0.2 38.15 -12.4 36.65 -12.35 36.55 -12.4 35.9 -12.35 35.7 -12.3 34.95 -12.15 34.5 -9.8 35.05 -1.8 36.05 Q3.75 36.3 9.25 37.65 L16.35 39.25 18.65 39.75 19.05 39.8 22.6 40.3 26.1 40.4 M-11.75 33.05 L-11.7 29.3 Q-11.25 26.3 -10.25 23.5 L-10.15 23.5 -7.25 23.65 -7.4 23.7 Q-9.05 24.05 -9.0 26.55 -8.95 30.0 -8.4 31.2 -8.2 32.6 -9.1 32.85 L-10.45 33.1 -11.1 33.05 -11.75 33.05 M17.1 32.35 L20.3 33.15 23.8 33.5 24.05 33.2 Q21.45 31.2 18.55 31.75 L18.1 31.9 17.1 32.35" fill="#333333" fill-rule="evenodd" stroke="none"/>
      <path d="M17.1 32.35 L18.1 31.9 18.55 31.75 Q21.45 31.2 24.05 33.2 L23.8 33.5 20.3 33.15 17.1 32.35" fill="#999999" fill-rule="evenodd" stroke="none"/>
      <path d="M26.2 37.65 L25.8 39.55 25.25 39.4 24.5 39.35 24.1 39.35 20.6 38.8 19.65 38.65 19.55 38.65 18.8 38.5 16.7 38.2 Q14.35 37.75 12.7 37.05 L8.4 36.2 6.2 35.95 3.2 35.55 2.35 35.4 1.05 35.2 -1.45 34.85 -5.5 34.85 -8.25 34.6 -10.5 34.15 -11.6 33.8 -11.7 33.25 -11.75 33.05 -11.1 33.05 -10.45 33.1 -9.1 32.85 Q-8.2 32.6 -8.4 31.2 -8.95 30.0 -9.0 26.55 -9.05 24.05 -7.4 23.7 L-7.25 23.65 -4.9 23.8 -3.55 23.5 -3.5 23.5 -3.3 23.55 -3.1 23.5 -3.15 24.8 -3.2 27.25 Q-2.8 31.1 1.0 31.15 L2.25 29.8 2.85 28.85 3.6 26.85 4.35 27.65 5.95 30.15 Q9.05 35.8 14.75 36.65 L18.15 37.1 18.8 37.2 23.6 37.55 23.8 37.55 25.15 37.65 26.15 37.65 26.2 37.65" fill="#151515" fill-rule="evenodd" stroke="none"/>
      <path d="M25.8 39.55 Q26.2 39.8 26.1 40.25 L26.1 40.4 22.6 40.3 19.05 39.8 18.65 39.75 16.35 39.25 9.25 37.65 Q3.75 36.3 -1.8 36.05 L-9.8 35.05 -12.15 34.5 -12.15 34.45 -11.7 33.25 -11.6 33.8 -10.5 34.15 -8.25 34.6 -5.5 34.85 -1.45 34.85 1.05 35.2 2.35 35.4 3.2 35.55 6.2 35.95 8.4 36.2 12.7 37.05 Q14.35 37.75 16.7 38.2 L18.8 38.5 19.55 38.65 19.65 38.65 20.6 38.8 24.1 39.35 24.5 39.35 25.25 39.4 25.8 39.55" fill="#666666" fill-rule="evenodd" stroke="none"/>
      <path d="M-10.25 23.5 L-10.15 23.4 -10.1 23.4 -10.15 23.5 -10.25 23.5" fill="#3333ff" fill-rule="evenodd" stroke="none"/>
    </g>
    <g id="shape1" transform="matrix(1.0, 0.0, 0.0, 1.0, 12.7, 36.85)">
      <path d="M2.9 -33.25 Q3.35 -33.6 4.35 -33.75 L4.55 -34.55 Q4.55 -35.05 4.8 -35.25 5.45 -35.8 5.9 -35.5 L6.25 -34.75 Q6.4 -33.3 5.85 -31.8 L5.65 -31.0 Q5.2 -31.05 5.3 -30.0 L5.3 -29.9 4.3 -21.85 3.6 -22.15 3.6 -22.9 2.15 -25.4 2.55 -25.85 2.05 -26.95 1.65 -27.15 1.85 -28.0 2.1 -30.5 2.3 -30.85 Q3.0 -32.25 2.95 -32.8 L2.9 -33.25 M8.65 -22.55 L9.45 -22.9 9.45 -23.65 10.45 -23.8 11.5 -24.65 12.3 -23.9 11.95 -22.15 Q11.4 -19.55 10.2 -17.2 L9.35 -17.5 8.25 -16.85 8.7 -13.65 8.1 -11.65 6.05 -12.6 8.65 -22.55 M5.6 -10.95 L5.8 -11.65 7.5 -9.3 7.15 -7.9 7.1 -7.85 5.8 -8.1 5.6 -10.95 M8.65 -19.85 Q8.35 -19.45 8.4 -19.0 8.45 -18.5 8.8 -18.2 9.1 -17.9 9.45 -17.9 L10.05 -18.35 10.2 -19.2 9.9 -20.0 9.2 -20.25 Q8.85 -20.25 8.65 -19.85" fill="#ffffff" fill-rule="evenodd" stroke="none"/>
      <path d="M5.3 -29.9 L6.65 -28.0 5.45 -26.35 6.05 -23.8 5.65 -23.1 7.2 -22.0 7.45 -23.1 7.85 -22.65 8.65 -22.55 6.05 -12.6 5.55 -12.1 5.5 -12.1 5.8 -11.65 5.6 -10.95 5.1 -14.45 5.5 -14.7 5.3 -16.3 5.15 -17.7 4.2 -17.7 3.9 -19.7 4.6 -19.6 5.45 -19.2 6.2 -18.8 7.25 -19.35 7.7 -20.85 4.3 -21.85 5.3 -29.9 M1.95 -36.3 L2.0 -36.35 2.5 -36.45 3.15 -36.15 3.35 -35.75 3.4 -35.4 Q3.45 -34.5 2.8 -33.45 L2.9 -33.25 2.95 -32.8 Q3.0 -32.25 2.3 -30.85 L2.1 -30.5 1.85 -28.0 1.65 -27.15 1.15 -26.65 1.1 -25.1 0.25 -28.0 1.3 -30.75 1.15 -31.2 2.3 -31.65 2.4 -32.2 1.3 -33.4 2.25 -33.7 1.9 -34.45 1.35 -34.8 2.15 -35.35 1.95 -36.3 M-0.65 -31.4 L-2.7 -28.15 -4.5 -29.05 -4.75 -29.65 -3.85 -29.35 -3.6 -29.45 -2.2 -30.3 -1.1 -31.15 -0.6 -31.65 -0.65 -31.4 M-4.05 -24.95 L-4.3 -25.65 -3.1 -25.15 -2.3 -25.65 -2.35 -24.75 -3.55 -24.5 -4.05 -24.95 M-0.8 -21.7 L-0.55 -21.35 1.0 -23.4 -1.05 -24.8 -0.8 -25.4 1.15 -24.95 3.55 -21.5 Q0.9 -21.35 -0.2 -19.8 L-0.7 -20.0 -0.8 -19.3 -0.8 -19.2 -0.8 -19.3 -1.45 -19.45 -2.4 -20.55 -4.6 -20.05 -5.55 -19.5 -7.6 -19.9 -7.65 -21.2 -6.25 -20.4 -2.45 -21.85 -1.9 -21.65 -1.75 -21.6 -0.8 -21.7 M2.25 -6.15 L1.85 -6.4 1.7 -7.2 Q2.2 -6.05 3.0 -6.75 L3.4 -7.35 3.55 -6.5 3.0 -6.15 2.25 -6.15 M-1.15 -16.45 Q-0.6 -14.85 -1.3 -13.2 L-1.6 -12.5 -3.55 -11.6 -5.25 -12.9 -4.5 -12.9 -4.15 -13.5 -3.4 -13.55 -2.8 -13.75 Q-1.2 -14.5 -1.15 -16.45 M5.85 -4.6 L5.5 -5.0 6.1 -4.95 6.25 -4.95 6.4 -4.95 6.9 -5.25 Q7.25 -5.55 7.2 -5.95 L7.0 -6.8 7.4 -6.55 7.5 -6.4 7.65 -5.95 7.45 -5.2 7.45 -5.15 7.2 -4.8 Q6.9 -4.6 6.55 -4.55 L6.45 -4.55 6.35 -4.55 6.1 -4.55 5.85 -4.6 M4.15 -8.4 L3.15 -8.2 3.8 -9.0 3.25 -11.65 4.35 -11.6 Q4.9 -10.25 4.45 -9.0 L4.3 -8.65 4.15 -8.4 M-3.5 2.4 L-2.5 3.1 -0.25 1.45 0.85 2.1 1.55 1.9 0.6 4.1 Q-0.65 4.95 -2.05 4.1 L-3.25 2.9 -3.5 2.4" fill="#990000" fill-rule="evenodd" stroke="none"/>
      <path d="M2.0 -36.35 L2.25 -36.6 2.5 -36.45 2.0 -36.35 M3.15 -36.15 L3.3 -36.15 3.35 -35.75 3.15 -36.15 M9.45 -26.55 L9.45 -26.35 9.3 -26.5 9.45 -26.55 M3.9 -19.7 L4.2 -17.7 5.15 -17.7 5.3 -16.3 4.0 -14.7 4.05 -13.65 3.6 -13.6 3.6 -15.8 3.45 -17.1 2.8 -18.85 2.35 -20.05 2.4 -20.25 Q2.95 -19.9 3.15 -19.85 L3.9 -19.7 M3.7 -3.1 L3.4 -3.9 3.6 -5.7 3.8 -5.7 Q4.35 -4.9 4.0 -4.0 L3.7 -3.1 M4.35 -8.35 L4.15 -8.4 4.3 -8.65 4.35 -8.35" fill="#d5a675" fill-rule="evenodd" stroke="none"/>
      <path d="M6.65 -28.0 L6.8 -27.7 6.9 -27.25 6.5 -26.25 6.95 -25.65 Q7.75 -24.5 7.45 -23.1 L7.2 -22.0 5.65 -23.1 6.05 -23.8 5.45 -26.35 6.65 -28.0 M10.2 -17.2 L10.25 -16.1 8.7 -13.65 8.25 -16.85 9.35 -17.5 10.2 -17.2 M-1.15 -34.35 L0.75 -36.25 1.95 -36.3 2.15 -35.35 1.35 -34.8 1.9 -34.45 2.25 -33.7 1.3 -33.4 2.4 -32.2 2.3 -31.65 1.15 -31.2 1.05 -31.45 -0.65 -31.4 -0.6 -31.65 -1.1 -31.15 -2.2 -30.3 -3.6 -29.45 -3.85 -29.35 -4.75 -29.65 -4.9 -30.2 -4.9 -30.3 Q-5.05 -31.6 -4.2 -32.8 L-1.3 -33.5 -1.15 -33.55 -1.05 -33.85 -1.15 -34.35 M1.65 -27.15 L2.05 -26.95 2.55 -25.85 2.15 -25.4 3.6 -22.9 3.6 -22.15 4.3 -21.85 7.7 -20.85 7.25 -19.35 6.2 -18.8 5.45 -19.2 4.6 -19.6 3.9 -19.7 3.15 -19.85 Q2.95 -19.9 2.4 -20.25 L2.35 -20.05 1.75 -19.35 1.25 -19.15 -0.2 -19.8 Q0.9 -21.35 3.55 -21.5 L1.15 -24.95 -0.8 -25.4 0.25 -28.0 1.1 -25.1 1.15 -26.65 1.65 -27.15 M-4.3 -25.65 L-4.65 -26.6 -2.7 -27.2 -2.3 -25.65 -3.1 -25.15 -4.3 -25.65 M-6.45 -23.2 L-5.45 -23.05 -4.65 -23.6 -0.5 -23.3 -0.4 -22.05 -0.8 -21.7 -1.75 -21.6 -1.9 -21.65 -2.45 -21.85 -6.25 -20.4 -7.65 -21.2 -7.3 -22.05 -6.45 -23.2 M5.3 -16.3 L5.5 -14.7 5.1 -14.45 5.6 -10.95 5.8 -8.1 4.35 -8.35 4.3 -8.65 4.45 -9.0 Q4.9 -10.25 4.35 -11.6 L3.25 -11.65 3.8 -9.0 3.15 -8.2 3.4 -7.35 3.0 -6.75 Q2.2 -6.05 1.7 -7.2 L2.25 -8.25 1.1 -10.95 Q1.4 -12.2 2.5 -13.15 L3.6 -13.6 4.05 -13.65 4.0 -14.7 5.3 -16.3 M8.65 -19.85 Q8.85 -20.25 9.2 -20.25 L9.9 -20.0 10.2 -19.2 10.05 -18.35 9.45 -17.9 Q9.1 -17.9 8.8 -18.2 8.45 -18.5 8.4 -19.0 8.35 -19.45 8.65 -19.85 M-1.45 -17.65 L-1.15 -16.45 Q-1.2 -14.5 -2.8 -13.75 L-3.4 -13.55 -4.15 -13.5 -4.5 -12.9 -5.25 -12.9 Q-5.85 -14.8 -4.8 -16.5 L-4.2 -17.25 -1.45 -17.65 M-1.0 -0.95 Q1.6 -0.95 1.75 1.35 L1.75 1.85 1.55 1.9 0.85 2.1 -0.25 1.45 -2.5 3.1 -3.5 2.4 Q-3.6 1.4 -3.2 0.6 L-2.95 0.15 Q-2.2 -0.85 -1.0 -0.95 M5.5 -5.0 L5.15 -6.05 6.95 -6.85 7.0 -6.8 7.2 -5.95 Q7.25 -5.55 6.9 -5.25 L6.4 -4.95 6.25 -4.95 6.1 -4.95 5.5 -5.0" fill="#ff0000" fill-rule="evenodd" stroke="none"/>
      <path d="M-11.0 -17.4 L-10.95 -20.4 -10.65 -22.8 Q-9.4 -22.4 -9.2 -20.75 L-8.85 -19.95 -8.55 -19.25 Q-8.35 -17.65 -10.05 -17.45 L-11.0 -17.4 M2.35 -20.05 L2.8 -18.85 3.45 -17.1 3.6 -15.8 3.6 -13.6 2.5 -13.15 Q1.4 -12.2 1.1 -10.95 L2.25 -8.25 1.7 -7.2 1.85 -6.4 2.25 -6.15 2.15 -5.55 2.6 -5.85 3.6 -5.7 3.4 -3.9 3.7 -3.1 3.6 -2.9 Q3.0 -2.25 1.9 -2.1 1.1 -2.05 0.65 -2.35 L0.3 -2.75 0.05 -3.65 0.15 -4.2 -0.3 -4.1 Q-0.75 -4.05 -1.2 -4.4 -1.95 -4.95 -2.55 -6.5 -2.65 -7.15 -1.25 -8.5 L-1.2 -8.5 0.45 -10.0 0.25 -10.7 0.85 -12.35 Q0.1 -13.15 0.1 -14.3 0.1 -15.9 1.95 -16.3 L2.85 -18.45 2.0 -19.5 1.75 -19.35 2.35 -20.05 M-0.8 -19.2 L-1.45 -17.65 -4.2 -17.25 -4.55 -17.65 -4.95 -18.5 -4.65 -19.85 -4.6 -20.05 -2.4 -20.55 -1.45 -19.45 -0.8 -19.3 -0.8 -19.2 M7.15 -7.9 L7.5 -9.3 7.7 -9.0 7.7 -8.95 7.15 -7.9" fill="#e2b181" fill-rule="evenodd" stroke="none"/>
      <path d="M8.1 -11.65 L9.4 -11.05 9.2 -4.9 8.6 -5.45 8.55 -6.75 7.85 -7.15 6.95 -6.85 5.15 -6.05 5.5 -5.0 5.85 -4.6 5.75 -3.65 5.3 -3.75 5.3 -3.6 4.9 -2.55 4.8 -2.4 4.9 -2.4 5.45 -2.1 6.05 -1.5 6.5 -0.2 Q6.55 0.45 6.05 1.6 L5.4 2.65 4.95 3.05 4.6 3.15 4.1 3.15 Q2.9 3.05 1.85 2.0 L1.75 1.85 1.75 1.35 Q1.6 -0.95 -1.0 -0.95 -1.95 -2.0 -3.0 -4.35 L-3.2 -4.85 Q-3.5 -7.9 -2.0 -8.3 L-1.65 -8.4 -1.35 -8.55 -3.55 -9.1 -2.9 -9.2 Q-2.3 -9.45 -1.95 -9.8 -0.9 -10.85 -1.6 -12.5 L-1.3 -13.2 Q-0.6 -14.85 -1.15 -16.45 L-1.45 -17.65 -0.8 -19.2 -0.8 -19.3 -0.7 -20.0 -0.2 -19.8 1.25 -19.15 1.75 -19.35 2.0 -19.5 2.85 -18.45 1.95 -16.3 Q0.1 -15.9 0.1 -14.3 0.1 -13.15 0.85 -12.35 L0.25 -10.7 0.45 -10.0 -1.2 -8.5 -0.9 -8.85 -1.25 -8.5 Q-2.65 -7.15 -2.55 -6.5 -1.95 -4.95 -1.2 -4.4 -0.75 -4.05 -0.3 -4.1 L0.15 -4.2 0.05 -3.65 0.3 -2.75 0.65 -2.35 Q1.1 -2.05 1.9 -2.1 3.0 -2.25 3.6 -2.9 L3.7 -3.1 4.0 -4.0 Q4.35 -4.9 3.8 -5.7 L3.6 -5.7 2.6 -5.85 2.15 -5.55 2.25 -6.15 3.0 -6.15 3.55 -6.5 3.4 -7.35 3.15 -8.2 4.15 -8.4 4.35 -8.35 5.8 -8.1 7.1 -7.85 7.15 -7.9 7.7 -8.95 7.7 -9.0 7.5 -9.3 5.8 -11.65 5.5 -12.1 5.55 -12.1 6.05 -12.6 8.1 -11.65 M-6.2 -33.4 L-4.65 -35.35 -3.35 -36.85 -1.85 -36.4 -1.45 -35.1 -1.15 -34.35 -1.05 -33.85 -1.15 -33.55 -1.3 -33.5 -4.2 -32.8 Q-4.45 -33.65 -5.7 -33.55 L-6.2 -33.4 M1.15 -31.2 L1.3 -30.75 0.25 -28.0 -0.8 -25.4 -1.05 -24.8 1.0 -23.4 -0.55 -21.35 -0.8 -21.7 -0.4 -22.05 -0.5 -23.3 -4.65 -23.6 -5.45 -23.05 -6.45 -23.2 -3.55 -24.5 -2.35 -24.75 -2.3 -25.65 -2.7 -27.2 -4.65 -26.6 -4.3 -25.65 -4.05 -24.95 -4.85 -24.8 -4.4 -25.6 -6.5 -26.15 -4.5 -29.05 -2.7 -28.15 -0.65 -31.4 1.05 -31.45 1.15 -31.2 M3.9 -0.5 L2.85 -0.55 2.55 -0.3 2.5 -0.05 2.85 0.85 Q3.25 1.65 3.7 1.6 L4.0 1.55 Q4.9 1.3 4.8 0.4 4.7 -0.35 3.9 -0.5" fill="#834753" fill-rule="evenodd" stroke="none"/>
      <path d="M9.4 -11.05 L9.5 -4.35 9.4 -3.55 Q8.4 3.6 8.55 4.95 L9.6 9.1 10.45 12.2 10.4 15.15 Q10.2 16.65 10.45 18.95 10.55 19.9 11.55 21.35 11.7 22.6 7.05 24.2 L6.65 24.05 5.35 23.8 4.95 23.8 4.85 22.95 5.15 21.75 5.3 21.1 5.35 19.95 Q5.25 19.1 3.75 17.4 L3.6 17.25 3.65 17.15 6.65 6.55 6.65 6.45 6.5 6.45 5.4 7.8 4.35 8.95 Q4.45 7.5 5.4 2.65 L6.05 1.6 Q6.55 0.45 6.5 -0.2 L6.05 -1.5 6.15 -3.4 6.1 -4.55 6.35 -4.55 6.45 -4.55 6.55 -4.55 Q6.9 -4.6 7.2 -4.8 L7.45 -5.15 7.45 -5.2 7.65 -5.95 7.5 -6.4 7.4 -6.55 7.0 -6.8 6.95 -6.85 7.85 -7.15 8.55 -6.75 8.6 -5.45 9.2 -4.9 9.4 -11.05 M-10.85 29.4 L-12.5 29.9 -12.7 29.75 -12.0 26.8 -11.4 25.1 Q-10.65 18.05 -10.9 15.85 L-10.8 8.1 -10.6 -0.05 -11.95 -14.45 -12.0 -14.75 Q-12.25 -15.55 -12.1 -16.55 L-11.85 -17.55 -11.0 -17.4 -10.05 -17.45 Q-8.35 -17.65 -8.55 -19.25 L-8.85 -19.95 -9.2 -20.75 Q-9.4 -22.4 -10.65 -22.8 L-11.75 -22.9 -11.5 -25.05 -11.85 -25.5 -11.9 -26.0 -11.9 -27.5 -11.8 -27.85 Q-11.4 -29.65 -9.8 -31.55 L-9.75 -31.65 -9.75 -31.55 -9.9 -28.0 -9.9 -26.5 Q-9.55 -23.0 -8.5 -19.6 L-7.4 -14.7 Q-7.25 -13.4 -7.4 -9.2 L-7.45 -8.35 Q-7.7 -3.25 -7.55 -0.3 L-7.55 -0.1 -7.45 0.7 -7.2 3.75 -6.95 6.95 Q-6.95 7.75 -7.3 9.9 L-7.65 11.95 -7.65 12.2 -6.35 10.65 -6.05 10.2 -5.0 8.35 -4.65 7.75 -4.55 7.8 -4.8 8.7 -6.15 13.85 -6.7 15.9 Q-7.75 19.2 -8.9 21.5 -9.85 23.4 -10.35 26.5 L-10.85 29.4" fill="#727e94" fill-rule="evenodd" stroke="none"/>
      <path d="M7.05 24.2 Q5.7 25.3 -0.5 27.15 -6.75 28.9 -10.85 29.4 L-10.35 26.5 Q-9.85 23.4 -8.9 21.5 -7.75 19.2 -6.7 15.9 L-6.15 13.85 -4.8 8.7 -4.55 7.8 -4.65 7.75 -5.0 8.35 -6.05 10.2 -6.35 10.65 -7.65 12.2 -7.65 11.95 -7.3 9.9 Q-6.95 7.75 -6.95 6.95 L-7.2 3.75 -7.45 0.7 -7.55 -0.1 -7.55 -0.3 Q-7.7 -3.25 -7.45 -8.35 L-7.4 -9.2 Q-7.25 -13.4 -7.4 -14.7 L-8.5 -19.6 Q-9.55 -23.0 -9.9 -26.5 L-9.9 -28.0 -9.75 -31.55 -9.5 -31.45 -8.75 -29.85 -6.75 -30.5 -7.3 -31.3 -7.7 -31.6 -7.0 -32.0 -6.35 -33.25 -6.2 -33.4 -5.7 -33.55 Q-4.45 -33.65 -4.2 -32.8 -5.05 -31.6 -4.9 -30.3 L-4.9 -30.2 -4.75 -29.65 -4.5 -29.05 -6.5 -26.15 -4.4 -25.6 -4.85 -24.8 -4.05 -24.95 -3.55 -24.5 -6.45 -23.2 -7.3 -22.05 -7.65 -21.2 -7.6 -19.9 -5.55 -19.5 -4.6 -20.05 -4.65 -19.85 -4.95 -18.5 -4.55 -17.65 -4.2 -17.25 -4.8 -16.5 Q-5.85 -14.8 -5.25 -12.9 L-3.55 -11.6 -1.6 -12.5 Q-0.9 -10.85 -1.95 -9.8 -2.3 -9.45 -2.9 -9.2 L-3.55 -9.1 -1.35 -8.55 -1.65 -8.4 -2.0 -8.3 Q-3.5 -7.9 -3.2 -4.85 L-3.0 -4.35 Q-1.95 -2.0 -1.0 -0.95 -2.2 -0.85 -2.95 0.15 L-3.2 0.6 Q-3.6 1.4 -3.5 2.4 L-3.25 2.9 -2.05 4.1 Q-0.65 4.95 0.6 4.1 L1.55 1.9 1.75 1.85 1.85 2.0 Q2.9 3.05 4.1 3.15 L4.6 3.15 4.95 3.05 5.4 2.65 Q4.45 7.5 4.35 8.95 L5.4 7.8 6.5 6.45 6.65 6.45 6.65 6.55 3.65 17.15 3.6 17.25 3.75 17.4 Q5.25 19.1 5.35 19.95 L5.3 21.1 5.15 21.75 4.85 22.95 4.95 23.8 5.35 23.8 6.65 24.05 7.05 24.2 M-1.2 -8.5 L-1.25 -8.5 -0.9 -8.85 -1.2 -8.5 M6.05 -1.5 L5.45 -2.1 4.9 -2.4 4.8 -2.4 4.9 -2.55 5.3 -3.6 5.3 -3.75 5.75 -3.65 5.85 -4.6 6.1 -4.55 6.15 -3.4 6.05 -1.5 M3.9 -0.5 Q4.7 -0.35 4.8 0.4 4.9 1.3 4.0 1.55 L3.7 1.6 Q3.25 1.65 2.85 0.85 L2.5 -0.05 2.55 -0.3 2.85 -0.55 3.9 -0.5" fill="#5c617c" fill-rule="evenodd" stroke="none"/>
    </g>
  </defs>
</svg>
