<?xml version="1.0" encoding="UTF-8" standalone="no"?>
<svg xmlns:ffdec="https://www.free-decompiler.com/flash" xmlns:xlink="http://www.w3.org/1999/xlink" ffdec:objectType="frame" height="103.0px" width="118.65px" xmlns="http://www.w3.org/2000/svg">
  <g transform="matrix(1.0, 0.0, 0.0, 1.0, 61.35, 59.85)">
    <use ffdec:characterId="144" height="103.0" id="inner" transform="matrix(1.0, 0.0, 0.0, 1.0, -61.35, -59.85)" width="118.65" xlink:href="#sprite0"/>
  </g>
  <defs>
    <g id="sprite0" transform="matrix(1.0, 0.0, 0.0, 1.0, 61.35, 59.85)">
      <use ffdec:characterId="143" height="103.0" transform="matrix(1.0, 0.0, 0.0, 1.0, -61.35, -59.85)" width="118.65" xlink:href="#shape0"/>
    </g>
    <g id="shape0" transform="matrix(1.0, 0.0, 0.0, 1.0, 61.35, 59.85)">
      <path d="M4.15 -59.85 L0.35 -49.05 -0.35 -41.95 -2.55 -42.35 -2.95 -44.65 4.15 -59.85 M41.55 -29.25 Q40.45 -32.35 42.95 -34.05 L48.15 -30.65 46.15 -27.35 44.65 -26.95 Q42.45 -26.95 41.55 -29.25 M28.55 -0.55 L28.15 -2.85 Q28.25 -5.55 31.15 -5.85 33.95 -5.25 36.85 -3.65 L36.75 -6.35 Q38.45 -8.95 41.65 -7.95 42.55 -6.85 42.25 -5.25 41.65 -2.65 39.65 -0.85 38.55 0.15 37.15 -0.55 L35.45 -2.35 Q33.85 -0.45 31.75 0.15 29.95 0.45 28.55 -0.55 M1.65 -20.25 Q1.65 -21.25 2.25 -21.85 2.85 -22.55 3.65 -22.55 4.45 -22.55 5.05 -21.85 5.65 -21.25 5.65 -20.25 5.65 -19.25 5.05 -18.55 4.45 -17.95 3.65 -17.95 2.85 -17.95 2.25 -18.55 1.65 -19.25 1.65 -20.25 M14.15 -35.75 L15.45 -35.95 15.65 -32.65 13.85 -32.35 12.65 -32.65 14.15 -35.75 M3.85 -34.85 L3.15 -33.25 3.55 -30.85 1.85 -27.35 0.25 -27.75 -0.65 -28.85 0.45 -32.85 -1.95 -35.35 1.75 -37.15 3.35 -36.45 3.85 -34.85 M26.95 -25.15 L30.15 -24.85 34.35 -29.95 35.35 -32.85 39.35 -33.05 39.85 -30.25 39.25 -29.55 Q40.05 -28.55 38.15 -28.15 36.45 -27.85 34.65 -27.15 L35.35 -25.85 34.85 -25.05 Q32.75 -22.55 29.95 -23.05 L29.35 -20.95 28.65 -20.85 25.15 -20.85 Q22.95 -20.35 21.55 -18.05 L22.75 -17.15 Q22.95 -16.65 23.35 -16.25 26.05 -13.45 23.75 -10.45 L22.15 -9.85 Q19.65 -9.45 18.75 -11.05 L18.75 -11.15 17.35 -9.25 Q15.75 -6.65 12.95 -6.65 L10.95 -6.05 Q15.65 -5.25 17.75 -1.95 L19.35 -2.85 20.65 -1.95 21.65 -1.95 Q23.15 -1.95 24.35 -0.25 24.65 1.05 24.55 2.75 24.45 3.45 23.65 4.05 22.55 4.75 21.25 4.25 L20.05 3.25 Q19.25 2.15 18.85 0.85 L17.35 -1.85 14.85 -1.25 15.75 -0.45 15.85 1.85 14.05 1.85 13.25 -0.15 10.25 -0.35 8.65 1.25 5.85 0.85 6.85 1.65 9.15 1.75 9.65 3.85 12.95 6.15 Q13.15 5.45 13.65 4.95 L15.25 3.85 15.05 6.95 13.35 7.15 14.45 10.05 14.95 10.15 15.05 10.65 14.85 11.05 14.85 11.15 14.55 11.35 10.55 8.05 9.45 8.55 7.85 13.85 10.55 14.45 Q11.85 16.95 10.85 19.75 L11.85 20.55 Q13.25 21.75 12.95 23.35 13.85 23.55 14.75 24.05 16.05 24.45 17.25 25.15 19.35 26.25 19.95 28.15 L19.15 30.15 18.15 30.65 16.65 32.35 14.25 31.45 13.85 29.55 15.85 28.65 13.85 27.15 12.25 26.35 Q8.55 24.95 8.55 21.35 4.95 21.35 3.15 18.65 L0.95 19.85 -1.05 22.05 -0.55 23.35 Q0.15 26.15 -1.45 28.25 L-2.85 28.35 -3.85 26.95 -4.35 26.15 -4.55 28.35 -4.95 28.55 Q-5.75 29.25 -6.75 29.35 L-13.15 30.45 -14.25 31.75 -17.15 31.45 -18.25 29.85 -18.35 29.65 -18.65 29.65 -18.95 29.65 -19.05 28.75 -19.35 28.65 -19.65 30.95 -21.05 31.65 -23.15 31.15 Q-23.85 31.05 -24.35 30.55 L-23.75 27.95 -18.45 28.15 -17.4 22.9 -14.3 22.8 -11.75 22.7 -11.65 22.85 -11.5 23.05 -9.5 23.3 -7.85 23.05 -7.6 21.55 -7.85 20.55 -10.0 20.55 -10.9 20.8 Q-11.25 18.45 -11.9 18.05 L-11.7 17.3 Q-11.75 17.0 -11.2 16.75 L-11.25 16.15 -11.35 16.1 -12.0 16.0 Q-12.7 16.4 -12.75 18.25 L-14.0 19.25 Q-15.1 20.0 -16.1 20.0 L-16.9 20.05 -16.35 16.65 -18.55 16.65 Q-19.35 18.35 -21.45 17.75 -22.55 17.25 -23.25 17.95 L-23.45 17.15 -23.75 16.05 Q-24.35 14.75 -23.15 13.45 L-22.25 13.05 Q-20.25 12.65 -18.95 13.95 L-18.85 14.25 -16.75 11.55 Q-14.75 9.05 -12.05 10.15 L-9.55 5.35 -8.65 5.65 -7.35 4.65 -8.65 3.15 -8.65 2.55 -8.35 2.25 -8.95 0.75 -9.5 0.8 -10.15 0.65 -10.3 0.7 -10.25 0.6 -10.7 0.2 -10.75 0.6 -10.75 0.75 -11.95 0.85 -12.75 2.25 -13.75 2.65 -14.15 6.05 -19.35 6.35 -19.35 3.65 -18.05 2.75 Q-16.05 2.05 -15.15 0.75 L-16.35 0.15 Q-19.45 -1.35 -20.75 -3.85 -22.25 -6.95 -20.05 -9.55 -18.85 -11.05 -19.25 -13.05 L-19.65 -13.35 -20.85 -14.15 Q-22.85 -15.05 -24.35 -13.75 L-25.05 -9.85 -28.95 -8.95 Q-30.45 -8.05 -32.15 -7.55 L-33.65 -7.65 Q-35.95 -8.95 -35.75 -11.75 -35.55 -14.25 -33.05 -14.85 -29.05 -16.15 -24.95 -15.85 L-20.35 -16.35 -17.05 -16.55 Q-16.15 -16.25 -15.55 -15.45 -13.45 -12.65 -15.35 -9.65 L-13.85 -8.35 -13.65 -8.35 Q-11.0 -9.15 -8.6 -7.75 L-8.5 -7.8 -7.95 -8.65 -6.65 -10.05 -6.15 -10.85 -11.15 -17.95 -9.65 -23.35 -15.15 -24.85 -18.95 -23.85 -19.75 -24.75 -20.25 -26.05 -20.75 -30.55 -20.95 -32.25 -24.35 -32.25 -24.65 -34.25 -21.85 -34.95 -19.65 -33.65 -18.45 -33.75 -16.85 -32.55 -14.35 -31.55 -12.15 -31.65 -10.45 -32.45 -11.95 -34.55 -11.65 -36.15 -8.65 -36.05 -8.25 -34.05 -9.85 -32.55 -8.35 -31.65 -6.35 -25.35 -6.75 -23.95 -5.85 -23.15 -6.35 -21.25 -4.85 -19.55 Q-3.25 -18.05 -2.75 -15.85 -2.15 -12.95 -3.45 -10.35 L-2.35 -10.45 -1.85 -11.45 Q-1.25 -12.35 -0.25 -12.75 4.25 -14.85 8.35 -17.85 L8.85 -19.45 Q6.65 -24.15 7.75 -28.65 L6.85 -30.75 Q6.25 -32.05 7.25 -33.15 L9.05 -33.35 Q11.05 -32.95 11.35 -30.85 L16.35 -28.65 Q18.05 -29.75 19.85 -30.25 L23.25 -30.05 Q26.75 -28.75 26.95 -25.15 M54.7 7.6 Q55.75 7.95 56.45 8.9 L57.3 9.4 56.8 9.55 57.0 10.0 56.7 10.65 Q56.4 11.05 55.6 11.05 54.45 11.05 53.8 10.65 L53.55 10.75 Q51.05 9.95 48.15 10.65 L44.45 8.95 44.45 8.05 45.25 6.75 49.85 9.15 53.2 8.15 Q53.55 7.25 54.7 7.6 M11.45 2.45 Q11.75 2.15 12.15 2.15 12.55 2.15 12.85 2.45 L13.15 3.15 12.85 3.85 Q12.55 4.15 12.15 4.15 L11.45 3.85 Q11.15 3.55 11.15 3.15 11.15 2.75 11.45 2.45 M33.55 15.15 Q34.95 15.15 35.95 15.95 36.95 16.65 36.95 17.75 36.95 18.85 35.95 19.65 34.95 20.35 33.55 20.35 32.15 20.35 31.15 19.65 30.15 18.85 30.15 17.75 30.15 16.65 31.15 15.95 32.15 15.15 33.55 15.15 M23.65 15.75 Q23.95 15.55 24.35 15.45 L27.65 16.45 26.95 21.55 Q26.75 21.55 26.65 21.65 25.25 21.95 23.95 21.15 L23.65 19.15 22.65 17.45 23.65 15.75 M5.15 3.15 Q4.65 3.15 4.35 3.55 3.95 3.85 3.95 4.35 3.95 4.85 4.35 5.25 4.65 5.55 5.15 5.55 L6.05 5.25 6.35 4.35 6.05 3.55 Q5.65 3.15 5.15 3.15 M-22.55 -3.35 Q-21.85 -2.65 -21.85 -1.55 -21.85 -0.45 -22.55 0.35 -23.35 1.05 -24.35 1.05 -25.35 1.05 -26.05 0.35 -26.85 -0.45 -26.85 -1.55 -26.85 -2.65 -26.05 -3.35 -25.35 -4.15 -24.35 -4.15 -23.35 -4.15 -22.55 -3.35 M-23.95 -19.85 Q-23.65 -19.55 -23.65 -19.05 -23.65 -18.55 -23.95 -18.25 -24.35 -17.95 -24.85 -17.95 -25.35 -17.95 -25.65 -18.25 -26.05 -18.55 -26.05 -19.05 -26.05 -19.55 -25.65 -19.85 -25.35 -20.15 -24.85 -20.15 -24.35 -20.15 -23.95 -19.85 M-50.85 -5.25 Q-51.45 -5.85 -51.45 -6.75 -51.45 -7.65 -50.85 -8.25 -50.25 -8.85 -49.45 -8.85 -48.65 -8.85 -48.05 -8.25 -47.45 -7.65 -47.45 -6.75 -47.45 -5.85 -48.05 -5.25 -48.65 -4.65 -49.45 -4.65 -50.25 -4.65 -50.85 -5.25 M-61.35 -8.15 L-61.35 -9.35 -57.65 -9.75 -56.25 -11.25 -52.65 -9.35 Q-54.15 -7.75 -55.85 -7.05 -58.35 -5.65 -60.65 -6.95 L-61.35 -8.15 M0.35 37.05 L0.35 40.55 -2.15 40.55 -2.15 37.05 0.35 37.05 M0.85 35.75 L0.15 36.15 Q-0.25 36.15 -0.55 35.75 L-0.85 34.85 -0.55 33.95 Q-0.25 33.55 0.15 33.55 0.55 33.55 0.85 33.95 L1.15 34.85 0.85 35.75 M16.35 35.55 Q17.25 35.55 17.95 36.25 18.55 36.85 18.55 37.75 18.55 38.65 17.95 39.35 17.25 39.95 16.35 39.95 15.45 39.95 14.85 39.35 14.15 38.65 14.15 37.75 14.15 36.85 14.85 36.25 15.45 35.55 16.35 35.55 M-7.6 -0.05 L-7.55 0.6 Q-7.25 2.05 -5.0 2.05 L-4.0 1.9 -3.6 1.75 -3.35 0.35 Q-3.5 -2.55 -7.0 -2.0 -7.1 -0.75 -7.6 -0.05 M-7.85 10.25 L-7.25 12.05 -8.75 14.25 -8.65 15.4 Q-7.85 15.75 -6.85 16.55 L-6.9 17.35 -5.75 17.05 -2.25 13.75 -2.65 9.65 -4.85 7.65 -6.75 8.25 -7.85 10.25 M-22.35 39.95 Q-21.75 39.35 -20.95 39.35 -20.15 39.35 -19.55 39.95 -18.95 40.45 -18.95 41.25 -18.95 42.05 -19.55 42.65 -20.15 43.15 -20.95 43.15 -21.75 43.15 -22.35 42.65 -22.95 42.05 -22.95 41.25 -22.95 40.45 -22.35 39.95 M-34.15 14.25 L-33.45 13.35 -30.95 13.45 -31.05 16.75 -31.85 17.35 -32.35 19.35 -38.15 20.65 -38.85 23.65 Q-39.65 24.05 -40.35 24.55 -42.05 24.25 -41.65 26.25 L-44.25 25.05 Q-44.75 23.45 -43.65 22.35 -39.95 18.35 -34.75 18.85 L-32.85 17.65 -34.35 15.15 -34.15 14.65 -34.15 14.25 M-35.3 1.8 L-34.35 1.75 -33.35 3.85 Q-32.95 5.25 -32.95 6.85 -32.95 8.85 -34.55 9.8 L-34.5 8.9 -35.85 3.0 Q-35.85 2.5 -35.3 1.8" fill="#990000" fill-opacity="0.49803922" fill-rule="evenodd" stroke="none"/>
    </g>
  </defs>
</svg>
