<?xml version="1.0" encoding="UTF-8" standalone="no"?>
<svg xmlns:ffdec="https://www.free-decompiler.com/flash" xmlns:xlink="http://www.w3.org/1999/xlink" ffdec:objectType="frame" height="51.5px" width="302.0px" xmlns="http://www.w3.org/2000/svg">
  <g transform="matrix(1.0, 0.0, 0.0, 1.0, 151.0, 26.0)">
    <use ffdec:characterId="2670" height="30.05" transform="matrix(1.0, 0.0, 0.0, 1.0, -93.6, -15.0)" width="103.8" xlink:href="#shape0"/>
    <use ffdec:characterId="2671" height="50.0" transform="matrix(1.0, 0.0, 0.0, 1.0, -8.0, -25.0)" width="16.0" xlink:href="#shape1"/>
    <use ffdec:characterId="2672" height="30.1" transform="matrix(1.0, 0.0, 0.0, 1.0, -93.6, -15.0)" width="237.2" xlink:href="#shape2"/>
    <use ffdec:characterId="2673" height="51.5" transform="matrix(1.0, 0.0, 0.0, 1.0, -151.0, -26.0)" width="302.0" xlink:href="#shape3"/>
  </g>
  <defs>
    <g id="shape0" transform="matrix(1.0, 0.0, 0.0, 1.0, 93.6, 15.0)">
      <path d="M-91.9 -9.8 Q-94.15 -11.25 -93.45 -12.95 -92.95 -14.1 -90.35 -14.65 L-84.5 -14.9 Q-25.5 -15.5 -8.0 -2.15 L1.3 2.3 Q26.5 13.95 -19.75 15.0 L-22.05 15.05 -31.6 15.05 Q-42.8 15.1 -56.5 8.15 L-84.5 -5.95 -91.9 -9.8" fill="#6c6c6c" fill-rule="evenodd" stroke="none"/>
    </g>
    <g id="shape1" transform="matrix(1.0, 0.0, 0.0, 1.0, 8.0, 25.0)">
      <path d="M-4.0 25.0 L-5.0 25.0 -5.0 12.0 -4.0 12.0 -4.0 25.0 M-5.0 -8.0 L-4.0 -8.0 -4.0 8.0 -5.0 8.0 -5.0 -8.0" fill="#888f94" fill-rule="evenodd" stroke="none"/>
      <path d="M-5.0 25.0 L-6.0 25.0 -6.0 12.0 -5.0 12.0 -5.0 25.0 M-5.0 8.0 L-6.0 8.0 -6.0 -8.0 -5.0 -8.0 -5.0 8.0" fill="#a0a7ae" fill-rule="evenodd" stroke="none"/>
      <path d="M0.0 -8.0 L0.0 8.0 -1.0 8.0 -1.0 -8.0 0.0 -8.0 M0.0 25.0 L-1.0 25.0 -1.0 12.0 0.0 12.0 0.0 25.0 M-6.0 25.0 L-8.0 25.0 -8.0 12.0 -6.0 12.0 -6.0 25.0 M-6.0 8.0 L-8.0 8.0 -8.0 -8.0 -6.0 -8.0 -6.0 8.0" fill="#b8bdc6" fill-rule="evenodd" stroke="none"/>
      <path d="M-3.0 -8.0 L-1.0 -8.0 -1.0 8.0 -4.0 8.0 -4.0 -8.0 -3.0 -8.0 M-1.0 25.0 L-4.0 25.0 -4.0 12.0 -1.0 12.0 -1.0 25.0" fill="#727b7e" fill-rule="evenodd" stroke="none"/>
      <path d="M0.0 -8.0 L3.0 -8.0 8.0 -8.0 8.0 8.0 5.0 8.0 0.0 8.0 0.0 -8.0 M5.0 12.0 L8.0 12.0 8.0 25.0 0.0 25.0 0.0 12.0 5.0 12.0" fill="#eceefa" fill-rule="evenodd" stroke="none"/>
      <path d="M3.0 -8.0 L0.0 -8.0 -1.0 -8.0 -3.0 -8.0 -3.0 -25.0 3.0 -25.0 3.0 -8.0 M0.0 8.0 L5.0 8.0 5.0 12.0 0.0 12.0 -1.0 12.0 -4.0 12.0 -5.0 12.0 -5.0 8.0 -4.0 8.0 -1.0 8.0 0.0 8.0" fill="#312e38" fill-rule="evenodd" stroke="none"/>
    </g>
    <g id="shape2" transform="matrix(1.0, 0.0, 0.0, 1.0, 93.6, 15.0)">
      <path d="M10.6 -2.2 Q17.9 -13.35 50.9 -15.0 L121.85 -15.0 124.0 -14.85 Q143.9 -13.35 143.6 0.0 L143.6 1.6 Q142.65 13.5 124.0 14.9 L121.85 15.0 50.9 15.0 Q17.95 13.35 10.65 2.25 L10.6 2.25 6.25 2.25 8.0 0.0 8.0 -2.2 10.6 -2.2" fill="#dddddd" fill-rule="evenodd" stroke="none"/>
      <path d="M-22.05 -14.95 L-19.75 -14.9 Q26.5 -13.85 1.3 -2.2 L-8.0 2.25 Q-25.5 15.6 -84.5 15.0 L-90.35 14.75 Q-92.95 14.2 -93.45 13.05 -94.15 11.35 -91.9 9.9 L-84.5 6.05 -56.5 -8.05 Q-42.8 -15.0 -31.6 -14.95 L-22.05 -14.95" fill="#929292" fill-rule="evenodd" stroke="none"/>
    </g>
    <g id="shape3" transform="matrix(1.0, 0.0, 0.0, 1.0, 151.0, 26.0)">
      <path d="M13.05 -25.0 L13.05 -10.0 38.85 -10.0 38.85 -25.0 M63.55 -25.0 L63.55 -10.0 86.1 -10.0 86.1 -25.0 M38.85 -10.0 L63.55 -10.0 63.55 10.0 86.1 10.0 86.1 -10.0 106.0 -10.0 106.0 -25.0 M123.0 -10.0 L123.0 10.0 136.3 10.0 136.3 -10.0 123.0 -10.0 123.0 -25.0 M149.45 -25.0 L149.45 -10.0 150.0 -10.0 M145.2 -25.0 L145.2 -10.0 149.45 -10.0 149.45 10.0 150.0 10.0 M136.3 -25.0 L136.3 -10.0 145.2 -10.0 145.2 10.0 149.45 10.0 149.45 25.0 M123.0 -10.0 L106.0 -10.0 106.0 10.0 123.0 10.0 123.0 25.0 M145.2 10.0 L145.2 25.0 M136.3 25.0 L136.3 10.0 145.2 10.0 M106.0 25.0 L106.0 10.0 86.1 10.0 86.1 25.0 M63.55 25.0 L63.55 10.0 38.85 10.0 38.85 25.0 M38.85 10.0 L13.05 10.0 13.05 25.0 M38.85 10.0 L38.85 -10.0 M13.05 -10.0 L13.05 10.0 -13.1 10.0 -13.1 25.0 M-136.4 -25.0 L-136.4 -10.0 -123.1 -10.0 -123.1 -25.0 M-149.55 -25.0 L-149.55 -10.0 -145.3 -10.0 -145.3 -25.0 M-150.0 10.0 L-149.55 10.0 -149.55 -10.0 -150.0 -10.0 M-145.3 -10.0 L-136.4 -10.0 -136.4 10.0 -123.1 10.0 -123.1 -10.0 -106.1 -10.0 -106.1 -25.0 M-106.1 -10.0 L-86.2 -10.0 -86.2 -25.0 M-63.6 -25.0 L-63.6 -10.0 -38.95 -10.0 -38.95 -25.0 M-38.95 -10.0 L-13.1 -10.0 -13.1 -25.0 M-86.2 -10.0 L-63.6 -10.0 -63.6 10.0 -38.95 10.0 -38.95 -10.0 M-13.1 10.0 L-38.95 10.0 -38.95 25.0 M-63.6 25.0 L-63.6 10.0 -86.2 10.0 -86.2 25.0 M-86.2 10.0 L-106.1 10.0 -106.1 25.0 M-136.4 25.0 L-136.4 10.0 -145.3 10.0 -145.3 25.0 M-149.55 10.0 L-145.3 10.0 -145.3 -10.0 M-149.55 25.0 L-149.55 10.0 M-123.1 25.0 L-123.1 10.0 -106.1 10.0 -106.1 -10.0 M-86.2 10.0 L-86.2 -10.0 M-13.1 10.0 L-13.1 -10.0 13.05 -10.0" fill="none" stroke="#666666" stroke-linecap="round" stroke-linejoin="round" stroke-width="1.0"/>
      <path d="M38.85 -25.0 L13.05 -25.0 -13.1 -25.0 -38.95 -25.0 -63.6 -25.0 -86.2 -25.0 -106.1 -25.0 -123.1 -25.0 -136.4 -25.0 -145.3 -25.0 -149.55 -25.0 -150.0 -25.0 M38.85 -25.0 L63.55 -25.0 86.1 -25.0 106.0 -25.0 123.0 -25.0 136.3 -25.0 145.2 -25.0 149.45 -25.0 150.0 -25.0" fill="none" stroke="#666666" stroke-linecap="round" stroke-linejoin="round" stroke-width="2.0"/>
    </g>
  </defs>
</svg>
