<?xml version="1.0" encoding="UTF-8" standalone="no"?>
<svg xmlns:ffdec="https://www.free-decompiler.com/flash" xmlns:xlink="http://www.w3.org/1999/xlink" ffdec:objectType="frame" height="51.5px" width="302.0px" xmlns="http://www.w3.org/2000/svg">
  <g transform="matrix(1.0, 0.0, 0.0, 1.0, 151.0, 26.0)">
    <use ffdec:characterId="2675" height="30.0" transform="matrix(1.0, 0.0, 0.0, 1.0, -55.7, -15.0)" width="81.3" xlink:href="#shape0"/>
    <use ffdec:characterId="2671" height="50.0" transform="matrix(1.0, 0.0, 0.0, 1.0, -8.0, -25.0)" width="16.0" xlink:href="#shape1"/>
    <use ffdec:characterId="2676" height="30.1" transform="matrix(1.0, 0.0, 0.0, 1.0, -122.8, -15.0)" width="262.1" xlink:href="#shape2"/>
    <use ffdec:characterId="2673" height="51.5" transform="matrix(1.0, 0.0, 0.0, 1.0, -151.0, -26.0)" width="302.0" xlink:href="#shape3"/>
  </g>
  <defs>
    <g id="shape0" transform="matrix(1.0, 0.0, 0.0, 1.0, 55.7, 15.0)">
      <path d="M-43.35 -15.0 Q-32.8 -14.9 -6.7 -2.25 L3.15 2.2 25.6 15.0 13.3 15.0 Q3.4 14.25 -20.05 2.2 L-29.9 -2.25 -55.7 -15.0 -43.35 -15.0" fill="#666666" fill-rule="evenodd" stroke="none"/>
    </g>
    <g id="shape1" transform="matrix(1.0, 0.0, 0.0, 1.0, 8.0, 25.0)">
      <path d="M-4.0 25.0 L-5.0 25.0 -5.0 12.0 -4.0 12.0 -4.0 25.0 M-5.0 -8.0 L-4.0 -8.0 -4.0 8.0 -5.0 8.0 -5.0 -8.0" fill="#888f94" fill-rule="evenodd" stroke="none"/>
      <path d="M-5.0 25.0 L-6.0 25.0 -6.0 12.0 -5.0 12.0 -5.0 25.0 M-5.0 8.0 L-6.0 8.0 -6.0 -8.0 -5.0 -8.0 -5.0 8.0" fill="#a0a7ae" fill-rule="evenodd" stroke="none"/>
      <path d="M0.0 -8.0 L0.0 8.0 -1.0 8.0 -1.0 -8.0 0.0 -8.0 M0.0 25.0 L-1.0 25.0 -1.0 12.0 0.0 12.0 0.0 25.0 M-6.0 25.0 L-8.0 25.0 -8.0 12.0 -6.0 12.0 -6.0 25.0 M-6.0 8.0 L-8.0 8.0 -8.0 -8.0 -6.0 -8.0 -6.0 8.0" fill="#b8bdc6" fill-rule="evenodd" stroke="none"/>
      <path d="M-3.0 -8.0 L-1.0 -8.0 -1.0 8.0 -4.0 8.0 -4.0 -8.0 -3.0 -8.0 M-1.0 25.0 L-4.0 25.0 -4.0 12.0 -1.0 12.0 -1.0 25.0" fill="#727b7e" fill-rule="evenodd" stroke="none"/>
      <path d="M0.0 -8.0 L3.0 -8.0 8.0 -8.0 8.0 8.0 5.0 8.0 0.0 8.0 0.0 -8.0 M5.0 12.0 L8.0 12.0 8.0 25.0 0.0 25.0 0.0 12.0 5.0 12.0" fill="#eceefa" fill-rule="evenodd" stroke="none"/>
      <path d="M3.0 -8.0 L0.0 -8.0 -1.0 -8.0 -3.0 -8.0 -3.0 -25.0 3.0 -25.0 3.0 -8.0 M0.0 8.0 L5.0 8.0 5.0 12.0 0.0 12.0 -1.0 12.0 -4.0 12.0 -5.0 12.0 -5.0 8.0 -4.0 8.0 -1.0 8.0 0.0 8.0" fill="#312e38" fill-rule="evenodd" stroke="none"/>
    </g>
    <g id="shape2" transform="matrix(1.0, 0.0, 0.0, 1.0, 122.8, 15.0)">
      <path d="M11.65 -2.2 Q29.15 -14.25 52.1 -15.0 L126.65 -15.0 Q139.9 -15.05 139.25 -8.75 138.6 -6.65 134.95 0.0 L131.05 6.55 Q123.75 15.9 108.5 15.0 L31.15 15.0 Q18.85 14.5 13.3 11.35 7.9 8.2 8.75 2.25 L4.15 2.25 Q7.55 1.5 8.0 -2.2 L11.65 -2.2" fill="#e1e1e1" fill-rule="evenodd" stroke="none"/>
      <path d="M-4.85 -2.2 L-1.5 -2.2 -8.0 2.25 -11.3 2.25 Q-27.05 15.05 -61.55 15.0 L-115.95 15.0 Q-121.45 15.05 -122.5 12.55 -123.4 10.7 -121.6 8.55 -120.15 6.75 -115.95 3.85 L-110.0 -0.2 Q-91.1 -14.65 -71.0 -15.0 L-16.6 -15.0 Q-10.55 -14.9 -6.35 -13.25 -2.7 -11.8 -1.5 -9.7 -0.65 -8.2 -1.5 -6.25 -2.35 -4.4 -4.85 -2.2" fill="#8c8c8c" fill-rule="evenodd" stroke="none"/>
    </g>
    <g id="shape3" transform="matrix(1.0, 0.0, 0.0, 1.0, 151.0, 26.0)">
      <path d="M13.05 -25.0 L13.05 -10.0 38.85 -10.0 38.85 -25.0 M63.55 -25.0 L63.55 -10.0 86.1 -10.0 86.1 -25.0 M38.85 -10.0 L63.55 -10.0 63.55 10.0 86.1 10.0 86.1 -10.0 106.0 -10.0 106.0 -25.0 M123.0 -10.0 L123.0 10.0 136.3 10.0 136.3 -10.0 123.0 -10.0 123.0 -25.0 M149.45 -25.0 L149.45 -10.0 150.0 -10.0 M145.2 -25.0 L145.2 -10.0 149.45 -10.0 149.45 10.0 150.0 10.0 M136.3 -25.0 L136.3 -10.0 145.2 -10.0 145.2 10.0 149.45 10.0 149.45 25.0 M123.0 -10.0 L106.0 -10.0 106.0 10.0 123.0 10.0 123.0 25.0 M145.2 10.0 L145.2 25.0 M136.3 25.0 L136.3 10.0 145.2 10.0 M106.0 25.0 L106.0 10.0 86.1 10.0 86.1 25.0 M63.55 25.0 L63.55 10.0 38.85 10.0 38.85 25.0 M38.85 10.0 L13.05 10.0 13.05 25.0 M38.85 10.0 L38.85 -10.0 M13.05 -10.0 L13.05 10.0 -13.1 10.0 -13.1 25.0 M-136.4 -25.0 L-136.4 -10.0 -123.1 -10.0 -123.1 -25.0 M-149.55 -25.0 L-149.55 -10.0 -145.3 -10.0 -145.3 -25.0 M-150.0 10.0 L-149.55 10.0 -149.55 -10.0 -150.0 -10.0 M-145.3 -10.0 L-136.4 -10.0 -136.4 10.0 -123.1 10.0 -123.1 -10.0 -106.1 -10.0 -106.1 -25.0 M-106.1 -10.0 L-86.2 -10.0 -86.2 -25.0 M-63.6 -25.0 L-63.6 -10.0 -38.95 -10.0 -38.95 -25.0 M-38.95 -10.0 L-13.1 -10.0 -13.1 -25.0 M-86.2 -10.0 L-63.6 -10.0 -63.6 10.0 -38.95 10.0 -38.95 -10.0 M-13.1 10.0 L-38.95 10.0 -38.95 25.0 M-63.6 25.0 L-63.6 10.0 -86.2 10.0 -86.2 25.0 M-86.2 10.0 L-106.1 10.0 -106.1 25.0 M-136.4 25.0 L-136.4 10.0 -145.3 10.0 -145.3 25.0 M-149.55 10.0 L-145.3 10.0 -145.3 -10.0 M-149.55 25.0 L-149.55 10.0 M-123.1 25.0 L-123.1 10.0 -106.1 10.0 -106.1 -10.0 M-86.2 10.0 L-86.2 -10.0 M-13.1 10.0 L-13.1 -10.0 13.05 -10.0" fill="none" stroke="#666666" stroke-linecap="round" stroke-linejoin="round" stroke-width="1.0"/>
      <path d="M38.85 -25.0 L13.05 -25.0 -13.1 -25.0 -38.95 -25.0 -63.6 -25.0 -86.2 -25.0 -106.1 -25.0 -123.1 -25.0 -136.4 -25.0 -145.3 -25.0 -149.55 -25.0 -150.0 -25.0 M38.85 -25.0 L63.55 -25.0 86.1 -25.0 106.0 -25.0 123.0 -25.0 136.3 -25.0 145.2 -25.0 149.45 -25.0 150.0 -25.0" fill="none" stroke="#666666" stroke-linecap="round" stroke-linejoin="round" stroke-width="2.0"/>
    </g>
  </defs>
</svg>
