<?xml version="1.0" encoding="UTF-8" standalone="no"?>
<svg xmlns:ffdec="https://www.free-decompiler.com/flash" xmlns:xlink="http://www.w3.org/1999/xlink" ffdec:objectType="frame" height="66.15px" width="18.8px" xmlns="http://www.w3.org/2000/svg">
  <g transform="matrix(1.0, 0.0, 0.0, 1.0, 9.8, 5.9)">
    <use ffdec:characterId="2493" ffdec:characterName="game_fla.lowerarm2_240" height="66.15" id="lowerArm2" transform="matrix(1.0, 0.0, 0.0, 1.0, -9.8, -5.9)" width="18.8" xlink:href="#sprite0"/>
  </g>
  <defs>
    <g id="sprite0" transform="matrix(1.0, 0.0, 0.0, 1.0, 8.75, 30.75)">
      <use ffdec:characterId="2490" ffdec:characterName="game_fla.hand2_241" height="21.85" id="hand" transform="matrix(1.0, 0.0, 0.0, 1.0, -7.7, 13.55)" width="15.6" xlink:href="#sprite1"/>
      <use ffdec:characterId="2491" height="47.6" transform="matrix(1.0, 0.0, 0.0, 1.0, -8.45, -29.7)" width="17.0" xlink:href="#shape1"/>
      <use ffdec:characterId="1081" height="100.0" id="shape" transform="matrix(0.15, 0.0, 0.0, 0.6, -7.4997, -29.9995)" width="100.0" xlink:href="#sprite2"/>
    </g>
    <g id="sprite1" transform="matrix(1.0, 0.0, 0.0, 1.0, 8.8, 7.45)">
      <use ffdec:characterId="1462" height="14.95" transform="matrix(1.0, 0.0, 0.0, 1.0, -6.75, -7.45)" width="13.55" xlink:href="#shape0"/>
    </g>
    <g id="shape0" transform="matrix(1.0, 0.0, 0.0, 1.0, 6.75, 7.45)">
      <path d="M0.85 -7.45 L5.35 -7.45 5.65 -6.2 6.25 -3.75 6.4 -3.35 6.45 -3.15 6.45 -3.0 4.9 2.05 4.0 4.55 -1.6 2.8 -2.45 2.45 Q-1.4 4.45 0.9 4.55 L0.25 4.85 -6.65 3.6 -6.75 3.1 -6.45 0.85 -6.3 0.05 -5.55 -0.6 -0.3 -1.0 -0.25 -1.0 -0.25 -1.05 -0.75 -3.5 0.55 -4.75 Q1.1 -5.35 2.85 -5.15 L2.15 -6.45 1.7 -6.55 1.35 -6.6 0.85 -7.45 M-3.75 -7.45 L-3.75 -6.75 -4.15 -4.95 -4.65 -4.85 -4.65 -6.05 -4.6 -6.6 -4.55 -6.7 -4.5 -7.45 -3.75 -7.45 M-5.1 -2.4 L-5.1 -2.2 -5.15 -2.3 -5.1 -2.4" fill="#ffcc99" fill-rule="evenodd" stroke="none"/>
      <path d="M0.85 -7.45 L1.35 -6.6 1.7 -6.55 2.15 -6.45 2.85 -5.15 Q1.1 -5.35 0.55 -4.75 L-0.75 -3.5 -0.25 -1.05 -0.3 -1.0 -5.55 -0.6 -5.1 -2.2 -5.1 -2.4 -4.65 -4.85 -4.15 -4.95 -3.75 -6.75 -3.75 -7.45 0.85 -7.45" fill="#ebbb98" fill-rule="evenodd" stroke="none"/>
      <path d="M-6.65 3.6 L0.25 4.85 0.9 4.55 Q-1.4 4.45 -2.45 2.45 L-1.6 2.8 4.0 4.55 4.9 2.05 6.45 -3.0 6.8 -0.1 Q6.9 2.8 6.0 5.6 L5.6 5.95 5.35 6.5 Q2.85 8.15 0.3 7.05 L-1.5 7.2 Q-4.45 7.25 -6.25 5.15 L-6.65 4.65 -6.7 3.6 -6.65 3.6" fill="#e2b181" fill-rule="evenodd" stroke="none"/>
    </g>
    <g id="shape1" transform="matrix(1.0, 0.0, 0.0, 1.0, 8.45, 29.7)">
      <path d="M1.75 -28.25 Q3.7 -26.9 5.75 -26.05 L6.2 -25.85 6.5 -25.45 Q5.35 -23.1 4.45 -20.6 L3.7 -18.05 Q2.9 -20.65 0.8 -22.55 L-1.6 -24.15 Q0.25 -24.75 1.3 -26.5 1.7 -27.2 1.75 -28.25" fill="#e2b181" fill-rule="evenodd" stroke="none"/>
      <path d="M1.75 -28.25 Q1.7 -27.2 1.3 -26.5 0.25 -24.75 -1.6 -24.15 L0.8 -22.55 Q2.9 -20.65 3.7 -18.05 L4.45 -20.6 Q5.35 -23.1 6.5 -25.45 L7.8 -22.25 Q8.8 -19.4 8.5 -16.7 L7.95 -11.45 6.9 -4.4 6.5 0.6 Q3.6 -1.3 0.5 -2.55 0.3 -4.45 -0.1 -4.75 -4.15 -7.85 -5.45 -12.8 L-6.1 -16.0 Q-5.85 -10.2 -4.85 -4.5 L-6.2 -4.85 -6.95 -7.95 -7.75 -12.35 -8.35 -17.25 Q-8.65 -20.2 -8.05 -23.0 -7.4 -26.1 -6.35 -28.95 L-6.05 -29.7 1.75 -28.25 M6.2 5.65 L6.25 9.4 1.85 8.85 3.15 7.75 6.2 5.65 M6.8 15.05 L7.35 17.25 7.5 17.65 7.55 17.85 7.55 17.9 0.45 17.9 0.35 17.5 1.65 16.25 Q2.2 15.65 3.95 15.85 L3.25 14.55 2.8 14.45 6.8 15.05 M-3.55 16.15 L-3.55 14.95 -3.5 14.4 -3.45 14.3 -2.65 14.25 -3.05 16.05 -3.55 16.15 M-3.75 7.1 L-4.55 2.7 -5.25 -0.55 -4.0 -0.25 -3.6 1.7 Q-3.0 4.0 -2.7 6.4 L-3.75 7.1 M0.7 1.4 L3.3 2.5 0.75 4.15 0.7 1.4" fill="#ffcc99" fill-rule="evenodd" stroke="none"/>
      <path d="M6.5 0.6 L6.45 0.85 6.3 2.65 6.2 5.65 3.15 7.75 1.85 8.85 6.25 9.4 6.5 12.5 6.75 14.8 6.8 15.05 2.8 14.45 2.45 14.4 0.15 4.6 0.75 4.15 3.3 2.5 0.7 1.4 -0.05 1.05 -0.2 -2.85 0.5 -2.55 Q3.6 -1.3 6.5 0.6 M-3.45 14.3 L-3.55 9.65 -3.75 7.1 -2.7 6.4 -2.45 6.25 -2.3 14.25 -2.65 14.25 -3.45 14.3 M-5.25 -0.55 L-6.2 -4.85 -4.85 -4.5 -4.6 -4.4 -4.05 -4.25 -3.3 0.0 -4.0 -0.25 -5.25 -0.55" fill="#ffffff" fill-rule="evenodd" stroke="none"/>
      <path d="M0.45 17.9 L-3.85 17.9 -3.55 16.15 -3.05 16.05 -2.65 14.25 -2.3 14.25 -2.1 14.2 2.45 14.4 2.8 14.45 3.25 14.55 3.95 15.85 Q2.2 15.65 1.65 16.25 L0.35 17.5 0.45 17.9 M0.75 4.15 L0.15 4.6 -2.45 6.25 -2.7 6.4 Q-3.0 4.0 -3.6 1.7 L-4.0 -0.25 -3.3 0.0 -3.05 0.05 -0.35 0.95 -0.05 1.05 0.7 1.4 0.75 4.15 M0.5 -2.55 L-0.2 -2.85 -4.05 -4.25 -4.6 -4.4 -4.85 -4.5 Q-5.85 -10.2 -6.1 -16.0 L-5.45 -12.8 Q-4.15 -7.85 -0.1 -4.75 0.3 -4.45 0.5 -2.55" fill="#ebbb98" fill-rule="evenodd" stroke="none"/>
      <path d="M0.15 4.6 L2.45 14.4 -2.1 14.2 -2.3 14.25 -2.45 6.25 0.15 4.6 M-0.05 1.05 L-0.35 0.95 -3.05 0.05 -3.3 0.0 -4.05 -4.25 -0.2 -2.85 -0.05 1.05" fill="#cccccc" fill-rule="evenodd" stroke="none"/>
    </g>
    <g id="sprite2" transform="matrix(1.0, 0.0, 0.0, 1.0, 50.0, 50.0)">
      <use ffdec:characterId="1080" height="100.0" transform="matrix(1.0, 0.0, 0.0, 1.0, -50.0, -50.0)" width="100.0" xlink:href="#shape2"/>
    </g>
    <g id="shape2" transform="matrix(1.0, 0.0, 0.0, 1.0, 50.0, 50.0)">
      <path d="M50.0 50.0 L-50.0 50.0 -50.0 -50.0 50.0 -50.0 50.0 50.0 Z" fill="none" stroke="#9900ff" stroke-linecap="round" stroke-linejoin="round" stroke-width="0.05"/>
    </g>
  </defs>
</svg>
