<?xml version="1.0" encoding="UTF-8" standalone="no"?>
<svg xmlns:ffdec="https://www.free-decompiler.com/flash" xmlns:xlink="http://www.w3.org/1999/xlink" ffdec:objectType="frame" height="21.95px" width="21.0px" xmlns="http://www.w3.org/2000/svg">
  <g transform="matrix(1.0, 0.0, 0.0, 1.0, -0.5, -0.5)">
    <use ffdec:characterId="2941" height="21.5" transform="matrix(1.0, 0.0, 0.0, 1.0, 0.5, 0.5)" width="19.9" xlink:href="#shape0"/>
  </g>
  <defs>
    <g id="shape0" transform="matrix(1.0, 0.0, 0.0, 1.0, -0.5, -0.5)">
      <path d="M10.75 22.0 L8.85 22.0 Q7.05 19.95 3.8 20.0 2.45 19.95 1.35 20.55 L0.5 21.05 0.5 19.5 1.55 18.9 2.15 18.7 4.8 18.45 Q7.2 18.5 9.35 20.45 L10.75 22.0 M7.5 22.0 L1.05 22.0 1.55 21.6 Q3.05 20.35 5.05 20.9 6.3 21.2 7.5 22.0" fill="#77ddb4" fill-rule="evenodd" stroke="none"/>
      <path d="M8.85 22.0 L7.5 22.0 Q6.3 21.2 5.05 20.9 3.05 20.35 1.55 21.6 L1.05 22.0 0.5 22.0 0.5 21.05 1.35 20.55 Q2.45 19.95 3.8 20.0 7.05 19.95 8.85 22.0" fill="#33cc99" fill-rule="evenodd" stroke="none"/>
      <path d="M12.9 20.5 L13.75 21.65 13.75 21.7 13.85 21.85 13.85 22.0 10.75 22.0 9.35 20.45 Q7.2 18.5 4.8 18.45 L2.15 18.7 3.25 16.35 3.4 16.35 3.5 16.15 4.75 16.4 5.8 16.75 9.55 18.55 11.45 19.5 12.55 20.3 12.85 20.6 12.9 20.5" fill="#2baa77" fill-rule="evenodd" stroke="none"/>
      <path d="M16.25 0.5 L18.4 0.5 19.85 2.05 20.15 2.55 20.3 3.95 19.85 4.05 17.9 4.45 16.15 4.9 15.35 5.05 14.9 5.2 14.85 5.2 14.5 5.3 13.25 5.6 12.95 5.7 12.15 5.85 10.55 6.25 9.3 6.6 4.95 7.8 4.0 8.1 3.55 8.2 2.25 8.6 Q2.6 6.85 3.25 5.15 L3.6 4.3 Q4.35 2.95 5.4 1.9 L7.05 0.5 9.15 0.5 Q7.4 1.5 5.8 3.5 5.35 4.3 5.8 4.25 10.3 -0.05 16.0 0.95 L16.25 0.5" fill="#ffffff" fill-rule="evenodd" stroke="none"/>
      <path d="M16.25 0.5 L16.0 0.95 Q10.3 -0.05 5.8 4.25 5.35 4.3 5.8 3.5 7.4 1.5 9.15 0.5 L16.25 0.5" fill="#cccccc" fill-rule="evenodd" stroke="none"/>
      <path d="M20.35 4.7 L20.05 4.8 20.0 4.8 19.9 4.85 18.9 5.05 17.6 5.3 15.4 5.8 15.35 5.05 16.15 4.9 17.9 4.45 19.85 4.05 20.3 3.95 20.35 4.7 M10.55 7.0 L9.05 7.4 5.0 8.55 3.75 8.95 3.6 9.0 2.25 9.3 2.25 8.6 3.55 8.2 4.0 8.1 4.95 7.8 9.3 6.6 10.55 6.25 10.55 7.0 M16.8 11.0 L16.35 10.7 17.6 10.75 17.6 10.85 17.4 11.1 17.15 11.3 17.1 11.1 16.8 11.0" fill="#000000" fill-rule="evenodd" stroke="none"/>
      <path d="M12.7 8.65 L14.6 8.3 Q14.05 10.65 13.15 12.85 L12.85 13.5 12.55 13.1 12.45 12.9 12.1 12.7 11.75 12.6 11.95 12.35 12.0 12.05 12.2 11.3 12.3 11.1 12.35 10.75 12.2 10.0 12.1 9.7 12.0 9.35 12.1 9.25 12.15 9.15 12.7 8.65 M15.75 7.8 L19.05 5.8 19.2 5.75 19.25 5.8 19.4 6.3 19.05 9.1 19.25 9.95 18.85 10.6 18.8 10.7 18.85 11.05 18.95 11.45 19.25 12.1 19.35 12.45 19.65 12.9 19.75 13.3 19.75 13.85 19.65 13.95 19.45 14.15 19.35 14.25 19.3 14.15 19.05 13.85 18.3 13.6 17.8 13.85 17.6 13.85 17.4 13.75 17.4 13.4 17.9 12.7 17.15 13.2 16.8 13.5 16.15 14.35 16.25 14.85 16.9 14.05 17.2 13.85 17.5 14.25 17.6 14.4 16.5 14.7 16.25 14.85 16.0 15.0 15.9 15.95 16.0 16.0 16.2 15.7 16.5 15.4 16.85 15.25 Q17.4 14.9 17.65 14.9 L18.0 14.9 18.35 15.05 18.4 15.15 18.35 15.25 18.3 15.3 18.1 15.5 18.15 15.3 18.1 15.2 17.9 15.2 17.3 15.25 Q16.6 15.45 16.45 15.65 L16.6 15.7 17.65 15.55 17.85 15.65 18.1 15.55 18.15 15.7 18.2 15.95 18.0 16.3 17.9 16.25 17.3 16.3 Q16.8 16.35 16.8 16.55 L17.1 16.9 17.5 17.3 17.65 17.25 17.7 18.05 17.5 18.4 17.5 18.45 16.95 18.8 16.1 18.9 15.6 18.85 15.2 18.7 14.15 18.35 13.85 18.25 13.45 18.1 12.95 17.9 11.7 17.55 Q11.6 17.2 12.15 16.25 L13.3 14.2 14.0 12.75 14.8 10.8 15.75 11.1 16.65 11.6 17.5 12.15 17.8 11.5 17.85 11.05 18.2 10.85 18.25 10.85 18.4 10.8 18.55 10.6 18.5 10.55 18.5 10.4 18.25 9.9 Q17.9 9.45 16.8 9.6 15.65 9.75 15.4 10.05 L15.15 10.35 14.95 10.5 15.75 7.8 M4.75 16.4 L5.25 15.65 6.45 14.15 6.6 14.0 6.7 14.25 6.8 14.3 7.6 14.2 8.15 15.15 8.85 16.6 Q9.05 17.3 9.4 17.55 9.75 17.85 10.2 18.05 L10.95 18.45 11.45 19.5 9.55 18.55 5.8 16.75 4.75 16.4 M8.05 10.4 L8.05 10.1 Q7.95 9.15 8.95 9.2 9.55 9.2 9.8 9.65 L10.0 9.9 Q10.5 10.25 10.65 11.0 L10.65 12.2 10.7 12.4 Q10.55 12.4 10.55 12.5 L10.55 12.55 Q10.5 12.85 11.7 13.2 L12.65 13.5 12.8 13.6 11.7 15.6 Q10.35 14.8 9.3 13.6 L9.2 13.55 9.0 12.7 8.8 12.3 8.6 11.85 Q8.2 11.1 8.15 10.55 L8.05 10.4 M9.8 10.75 L9.1 9.7 8.6 10.0 8.5 10.65 8.9 10.6 9.15 10.4 9.55 11.05 9.1 11.5 9.6 12.25 9.65 12.3 10.1 12.1 9.6 11.55 10.05 11.35 9.8 10.75 M10.8 17.25 L10.25 16.85 9.75 15.15 9.65 14.8 11.3 16.3 10.8 17.25" fill="#ffcc99" fill-rule="evenodd" stroke="none"/>
      <path d="M6.2 13.2 L7.0 11.6 8.35 13.4 8.15 13.9 8.15 14.15 7.6 14.2 6.8 14.3 6.7 14.25 6.6 14.0 6.2 13.2 M7.3 11.05 L7.25 10.95 Q7.35 9.75 7.75 9.3 8.45 8.5 10.5 8.6 L10.65 8.9 10.85 8.65 11.2 8.65 11.1 8.95 11.45 8.7 12.7 8.65 12.15 9.15 12.1 9.25 12.0 9.35 12.1 9.7 12.2 10.0 12.35 10.75 12.3 11.1 12.2 11.3 12.0 12.05 11.95 12.35 11.75 12.6 11.55 12.55 10.7 12.4 10.65 12.2 10.65 11.0 Q10.5 10.25 10.0 9.9 L9.8 9.65 Q9.55 9.2 8.95 9.2 7.95 9.15 8.05 10.1 L8.05 10.4 8.15 10.55 Q8.2 11.1 8.6 11.85 L8.8 12.3 9.0 12.7 8.75 12.95 7.3 11.05 M19.05 5.8 L19.6 5.5 19.2 5.75 19.05 5.8" fill="#795128" fill-rule="evenodd" stroke="none"/>
      <path d="M20.35 4.7 L20.4 5.0 19.6 5.5 19.05 5.8 15.75 7.8 14.6 8.3 12.7 8.65 11.45 8.7 11.2 8.65 10.85 8.65 10.8 8.65 10.5 8.6 Q8.45 8.5 7.75 9.3 7.35 9.75 7.25 10.95 L7.3 11.05 7.0 11.6 6.2 13.2 Q5.5 13.25 4.35 12.4 L3.6 11.75 Q2.8 11.0 2.4 9.95 L2.25 9.3 3.6 9.0 3.75 8.95 5.0 8.55 9.05 7.4 10.55 7.0 12.2 6.7 12.95 6.45 13.35 6.35 14.5 6.1 14.6 6.1 14.9 6.0 15.4 5.8 17.6 5.3 18.9 5.05 19.9 4.85 20.0 4.8 20.05 4.8 20.35 4.7" fill="#333333" fill-rule="evenodd" stroke="none"/>
      <path d="M19.35 14.25 L19.1 14.3 19.0 14.25 18.95 14.3 18.9 14.25 18.8 14.3 18.55 14.5 18.55 14.55 18.45 14.5 17.75 14.35 17.6 14.4 17.5 14.25 17.2 13.85 17.25 13.7 17.4 13.75 17.6 13.85 17.8 13.85 18.3 13.6 19.05 13.85 19.3 14.15 19.35 14.25 M18.45 14.95 L18.4 15.15 18.35 15.05 18.0 14.9 18.4 14.95 18.45 14.95 M18.1 15.5 L18.1 15.55 17.85 15.65 17.65 15.55 16.6 15.7 16.45 15.65 Q16.6 15.45 17.3 15.25 L17.9 15.2 18.1 15.2 18.15 15.3 18.1 15.5 M14.8 10.8 L14.95 10.5 15.15 10.35 15.3 10.4 17.05 10.05 17.6 10.05 17.85 10.1 18.4 10.4 18.5 10.4 18.5 10.55 18.55 10.6 18.4 10.8 18.25 10.85 18.2 10.85 17.85 11.05 17.8 11.5 17.5 12.15 16.65 11.6 15.75 11.1 14.8 10.8 M16.8 11.0 L17.1 11.1 17.15 11.3 17.4 11.1 17.6 10.85 17.6 10.75 16.35 10.7 16.8 11.0 M9.8 10.75 L10.05 11.35 9.6 11.55 10.1 12.1 9.65 12.3 9.6 12.25 9.1 11.5 9.55 11.05 9.15 10.4 8.9 10.6 8.5 10.65 8.6 10.0 9.1 9.7 9.8 10.75" fill="#c79b68" fill-rule="evenodd" stroke="none"/>
      <path d="M13.85 18.25 L13.7 19.25 13.35 19.85 12.9 20.4 12.9 20.5 12.85 20.6 12.55 20.3 11.45 19.5 10.95 18.45 10.2 18.05 Q9.75 17.85 9.4 17.55 9.05 17.3 8.85 16.6 L8.15 15.15 7.6 14.2 8.15 14.15 8.15 13.9 8.35 13.4 9.65 14.8 9.75 15.15 10.25 16.85 10.8 17.25 10.75 17.35 11.7 17.65 11.7 17.55 12.95 17.9 13.45 18.1 13.85 18.25 M9.0 12.7 L9.2 13.55 9.0 13.25 8.75 12.95 9.0 12.7" fill="#e2b181" fill-rule="evenodd" stroke="none"/>
      <path d="M18.0 16.3 L17.9 16.55 17.85 16.65 17.75 16.85 17.65 17.25 17.5 17.3 17.1 16.9 16.8 16.55 Q16.8 16.35 17.3 16.3 L17.9 16.25 18.0 16.3 M12.8 13.6 L12.65 13.5 11.7 13.2 Q10.5 12.85 10.55 12.55 L10.55 12.5 Q10.55 12.4 10.7 12.4 L11.55 12.55 11.75 12.6 12.1 12.7 12.45 12.9 12.55 13.1 12.85 13.5 12.8 13.6 M17.4 13.75 L17.25 13.7 17.2 13.85 16.9 14.05 16.25 14.85 16.15 14.35 16.8 13.5 17.15 13.2 17.9 12.7 17.4 13.4 17.4 13.75" fill="#ebbb98" fill-rule="evenodd" stroke="none"/>
      <path d="M7.0 11.6 L7.3 11.05 8.75 12.95 9.0 13.25 9.2 13.55 9.3 13.6 Q10.35 14.8 11.7 15.6 L12.8 13.6 12.85 13.5 13.15 12.85 Q14.05 10.65 14.6 8.3 L15.75 7.8 14.95 10.5 14.8 10.8 14.0 12.75 13.3 14.2 12.15 16.25 Q11.6 17.2 11.7 17.55 L11.7 17.65 10.75 17.35 10.8 17.25 11.3 16.3 9.65 14.8 8.35 13.4 7.0 11.6" fill="#999999" fill-rule="evenodd" stroke="none"/>
      <path d="M15.4 5.8 L14.9 6.0 14.6 6.1 14.5 6.1 14.5 5.3 14.85 5.2 14.9 5.2 15.35 5.05 15.4 5.8 M12.2 6.7 L10.55 7.0 10.55 6.25 12.15 5.85 12.2 6.7" fill="#515151" fill-rule="evenodd" stroke="none"/>
      <path d="M10.5 8.6 L10.8 8.65 10.85 8.65 10.65 8.9 10.5 8.6 M11.2 8.65 L11.45 8.7 11.1 8.95 11.2 8.65 M18.55 14.55 L18.5 14.6 18.5 14.7 18.45 14.9 18.45 14.95 18.4 14.95 18.0 14.9 17.65 14.9 Q17.4 14.9 16.85 15.25 L16.5 15.4 16.2 15.7 16.0 16.0 15.9 15.95 16.0 15.0 16.25 14.85 16.5 14.7 17.6 14.4 17.75 14.35 18.45 14.5 18.55 14.55 M18.5 10.4 L18.4 10.4 17.85 10.1 17.6 10.05 17.05 10.05 15.3 10.4 15.15 10.35 15.4 10.05 Q15.65 9.75 16.8 9.6 17.9 9.45 18.25 9.9 L18.5 10.4" fill="#996633" fill-rule="evenodd" stroke="none"/>
      <path d="M14.5 6.1 L13.35 6.35 12.95 6.45 12.2 6.7 12.15 5.85 12.95 5.7 13.25 5.6 14.5 5.3 14.5 6.1" fill="#919191" fill-rule="evenodd" stroke="none"/>
      <path d="M8.05 10.4 L8.15 10.55" fill="none" stroke="#943965" stroke-linecap="round" stroke-linejoin="round" stroke-width="0.05"/>
    </g>
  </defs>
</svg>
