<?xml version="1.0" encoding="UTF-8" standalone="no"?>
<svg xmlns:ffdec="https://www.free-decompiler.com/flash" xmlns:xlink="http://www.w3.org/1999/xlink" ffdec:objectType="frame" height="21.95px" width="21.0px" xmlns="http://www.w3.org/2000/svg">
  <g transform="matrix(1.0, 0.0, 0.0, 1.0, -0.5, -0.5)">
    <use ffdec:characterId="2945" height="21.35" transform="matrix(1.0, 0.0, 0.0, 1.0, 0.5, 1.1)" width="21.0" xlink:href="#shape0"/>
  </g>
  <defs>
    <g id="shape0" transform="matrix(1.0, 0.0, 0.0, 1.0, -0.5, -1.1)">
      <path d="M21.5 8.0 L20.75 7.85 20.35 7.7 19.55 7.25 19.05 7.0 18.4 6.8 17.9 6.65 17.6 6.55 17.4 6.5 17.3 6.5 16.7 6.3 17.4 6.35 16.9 4.5 15.75 2.6 Q15.55 1.75 11.3 2.55 L12.1 3.1 12.65 3.2 13.45 3.3 13.7 3.3 14.6 3.3 13.95 3.45 13.6 3.45 11.15 3.4 10.7 3.25 10.1 3.0 Q9.2 2.4 8.05 2.1 6.7 2.65 6.05 3.9 L5.25 5.65 5.7 5.45 4.95 6.8 5.2 6.75 5.35 6.75 5.85 6.7 5.95 6.7 6.0 6.7 6.05 6.75 10.75 6.2 10.4 6.25 10.2 6.3 9.85 6.4 9.6 6.45 9.25 6.55 8.95 6.65 8.1 6.9 7.35 7.2 7.25 7.25 7.05 7.4 5.6 7.9 5.5 7.95 4.9 8.15 4.85 8.15 3.9 8.45 3.45 8.6 3.3 8.65 3.2 8.65 2.3 8.85 0.9 8.7 0.95 8.85 0.5 8.65 0.5 7.4 4.15 6.9 4.2 6.85 4.7 5.25 5.25 3.25 Q5.55 2.15 6.55 1.6 7.45 1.1 8.3 1.1 L10.05 1.4 12.45 1.6 14.6 1.45 Q15.6 1.55 16.75 2.3 L17.5 4.7 17.9 6.4 21.5 6.7 21.5 8.0" fill="#8b693a" fill-rule="evenodd" stroke="none"/>
      <path d="M16.7 6.3 L17.3 6.5 17.4 6.5 17.6 6.55 17.9 6.65 18.4 6.8 19.05 7.0 19.55 7.25 20.35 7.7 20.75 7.85 21.5 8.0 21.5 8.6 21.1 8.6 20.25 8.6 19.6 8.65 18.6 8.7 17.95 8.7 17.8 8.7 17.15 8.8 16.45 8.85 15.5 8.95 14.95 8.9 14.3 9.05 13.45 9.1 12.15 9.15 12.1 9.15 10.9 9.15 10.75 9.15 10.2 9.15 9.65 9.15 9.6 9.15 5.0 9.5 4.85 9.5 4.8 9.5 4.45 9.5 3.85 9.4 3.8 9.35 3.7 9.35 2.2 9.2 0.95 8.85 0.9 8.7 2.3 8.85 3.2 8.65 3.3 8.65 3.45 8.6 3.9 8.45 4.85 8.15 4.9 8.15 5.5 7.95 5.6 7.9 7.05 7.4 7.25 7.25 7.35 7.2 8.1 6.9 8.95 6.65 9.25 6.55 9.6 6.45 9.85 6.4 10.2 6.3 10.4 6.25 10.75 6.2 6.05 6.75 6.85 5.2 6.35 5.25 6.45 5.15 6.6 5.0 7.25 4.45 7.3 4.45 7.45 4.35 Q8.05 3.9 8.8 3.7 L8.85 3.75 9.35 4.05 9.4 4.1 9.8 4.2 10.75 4.5 11.75 4.65 12.3 4.7 13.0 4.8 14.05 4.75 Q15.05 4.55 15.2 3.95 L15.25 3.7 15.5 4.0 15.5 4.1 15.55 4.25 15.6 4.55 15.6 4.8 15.65 5.2 15.8 6.3 16.7 6.3" fill="#554024" fill-rule="evenodd" stroke="none"/>
      <path d="M16.7 6.3 L15.8 6.3 15.65 5.2 15.6 4.8 15.6 4.55 15.55 4.25 15.5 4.1 15.5 4.0 15.25 3.7 15.2 3.95 Q15.05 4.55 14.05 4.75 L13.0 4.8 12.3 4.7 11.75 4.65 10.75 4.5 9.8 4.2 9.4 4.1 9.35 4.05 8.85 3.75 8.8 3.7 Q8.05 3.9 7.45 4.35 L7.3 4.45 7.25 4.45 6.6 5.0 6.45 5.15 6.35 5.25 6.85 5.2 6.05 6.75 6.0 6.7 5.95 6.7 5.85 6.7 5.35 6.75 5.2 6.75 4.95 6.8 5.7 5.45 5.25 5.65 6.05 3.9 Q6.7 2.65 8.05 2.1 9.2 2.4 10.1 3.0 L10.7 3.25 11.15 3.4 13.6 3.45 13.95 3.45 14.6 3.3 13.7 3.3 13.45 3.3 12.65 3.2 12.1 3.1 11.3 2.55 Q15.55 1.75 15.75 2.6 L16.9 4.5 17.4 6.35 16.7 6.3" fill="#6a502d" fill-rule="evenodd" stroke="none"/>
      <path d="M12.15 9.15 L13.45 9.1 14.3 9.05 14.95 8.9 15.5 8.95 16.45 8.85 17.15 8.8 17.8 8.7 17.95 8.7 18.15 9.4 18.3 9.8 18.25 10.35 18.3 10.5 18.25 10.5 18.2 10.6 18.15 10.8 18.15 10.85 17.9 11.05 17.95 10.85 17.95 10.7 17.6 10.55 17.55 10.55 Q17.5 10.3 17.0 10.35 L16.65 10.2 16.5 10.4 16.45 10.4 16.4 10.45 15.9 10.45 Q15.5 10.45 15.5 10.65 L15.45 10.65 Q14.95 10.7 14.95 10.9 L14.95 10.95 14.6 11.25 14.6 11.3 14.65 11.3 14.55 11.4 14.8 11.75 15.15 12.25 14.95 12.85 15.15 13.0 16.25 12.7 16.9 12.55 17.3 12.35 17.9 11.7 18.15 12.0 18.65 13.05 18.7 13.15 18.9 14.55 18.95 14.55 18.95 14.65 18.9 14.75 18.95 14.95 18.75 15.05 16.95 15.05 17.6 15.95 17.6 16.0 17.65 16.0 17.65 16.05 17.65 16.2 16.7 16.75 17.65 16.75 17.8 16.65 17.8 16.75 17.8 16.8 18.05 17.2 17.95 17.3 17.9 17.35 16.9 17.4 17.1 18.0 17.15 18.25 17.25 18.25 17.2 18.5 17.25 19.05 17.3 19.35 16.95 19.75 16.65 19.85 15.8 20.25 15.75 20.3 15.6 20.25 15.25 20.05 15.2 20.05 14.8 19.85 14.6 19.75 14.4 19.65 13.55 19.3 12.9 18.9 12.0 18.5 11.25 18.1 10.8 17.45 10.4 16.7 10.05 15.95 9.65 15.1 9.45 14.7 8.9 14.45 Q9.0 15.4 9.4 16.25 L10.0 17.55 11.0 19.25 Q11.6 19.95 11.7 20.85 L12.0 21.85 12.15 21.8 12.15 21.9 12.15 22.0 9.5 22.0 9.45 21.85 9.45 21.8 9.45 21.1 9.35 20.8 9.3 20.3 9.35 20.2 9.25 20.05 9.25 19.9 9.2 19.4 9.05 18.7 9.0 18.6 9.05 18.5 Q7.6 17.8 6.15 17.45 L3.45 17.5 4.25 16.05 4.3 15.95 4.5 15.1 4.65 14.25 4.65 14.65 5.25 14.45 Q5.2 15.0 5.5 15.6 L5.65 15.75 5.75 15.75 6.05 15.6 6.05 15.65 6.2 15.7 6.3 15.55 6.35 15.5 6.4 15.3 6.45 14.9 6.65 15.15 7.05 15.2 7.2 15.45 7.6 14.95 7.9 15.15 8.15 14.7 8.65 14.75 8.65 14.4 8.2 14.15 7.95 13.45 8.0 13.2 7.75 12.75 7.75 12.65 7.35 11.5 Q7.15 10.85 7.6 10.3 8.15 9.65 8.9 9.75 10.0 10.7 9.95 12.1 L10.6 12.2 10.85 12.55 10.9 12.55 10.95 12.5 11.0 11.9 11.15 10.55 11.35 10.5 11.4 10.4 11.45 10.15 Q11.6 9.85 11.85 9.85 L11.9 9.8 12.1 9.3 12.15 9.15 M18.15 9.4 L18.0 9.1 16.7 9.3 18.15 9.4 M14.35 10.3 L14.3 10.3 13.65 10.75 13.35 10.65 13.05 10.95 13.2 11.05 13.25 11.15 13.5 11.3 13.6 11.35 13.6 11.8 13.7 11.95 14.05 11.3 Q14.2 10.7 15.15 10.25 L15.1 10.15 14.4 10.4 14.35 10.3 M17.75 11.4 L17.9 11.7 17.75 11.55 17.75 11.4 M8.7 10.2 L8.45 10.15 7.85 10.7 7.95 11.25 8.0 11.35 8.1 11.35 8.2 10.9 8.5 10.75 8.6 10.85 8.3 12.0 8.7 12.3 8.9 12.7 8.95 12.8 9.1 13.0 9.1 12.95 9.1 12.75 9.05 12.5 8.85 11.9 9.05 10.6 8.7 10.2 M17.45 14.4 L17.25 14.1 17.05 13.9 16.55 14.25 16.1 15.0 15.65 15.5 Q15.2 15.95 14.9 16.55 L14.7 17.2 14.7 17.4 14.7 17.55 14.95 16.85 Q15.25 16.2 15.75 15.85 L16.55 15.2 16.85 15.05 16.9 14.7 16.95 14.45 17.45 14.4 M17.7 16.2 L17.85 16.5 17.85 16.55 17.8 16.65 17.7 16.2 M13.65 14.1 L13.05 13.8 12.3 13.65 11.7 13.65 Q12.75 14.05 12.85 14.4 L13.0 14.7 12.95 15.7 13.4 15.3 13.45 15.15 13.65 14.1" fill="#ffcc99" fill-rule="evenodd" stroke="none"/>
      <path d="M4.8 9.5 L4.85 9.5 5.0 9.5 9.6 9.15 9.65 9.15 10.2 9.15 10.75 9.15 10.9 9.15 12.1 9.15 12.1 9.3 11.9 9.8 11.85 9.85 Q11.6 9.85 11.45 10.15 L11.4 10.4 11.35 10.5 11.15 10.55 11.0 11.9 10.95 12.5 10.9 12.55 10.85 12.55 10.6 12.2 9.95 12.1 Q10.0 10.7 8.9 9.75 8.15 9.65 7.6 10.3 7.15 10.85 7.35 11.5 L7.75 12.65 7.75 12.75 8.0 13.2 7.95 13.45 8.2 14.15 8.65 14.4 8.65 14.75 8.15 14.7 7.9 15.15 7.6 14.95 7.2 15.45 7.05 15.2 6.65 15.15 6.45 14.9 6.4 15.3 6.35 15.5 6.3 15.55 6.2 15.7 6.05 15.65 6.05 15.6 5.75 15.75 5.65 15.75 5.5 15.6 Q5.2 15.0 5.25 14.45 L4.65 14.65 4.65 14.25 Q4.55 13.05 4.0 11.95 L4.1 11.6 3.85 11.3 3.9 10.85 4.8 9.5 M14.65 11.3 L14.6 11.3 14.6 11.25 14.95 10.95 15.0 10.9 15.45 10.8 15.9 10.7 16.55 10.6 17.55 10.55 17.6 10.55 17.75 10.65 17.25 10.95 17.15 10.95 17.15 11.0 16.85 11.0 16.55 11.05 16.4 11.05 16.25 11.05 16.2 11.15 15.85 11.2 15.45 11.15 15.1 11.1 14.65 11.3" fill="#615752" fill-rule="evenodd" stroke="none"/>
      <path d="M3.7 9.35 L3.8 9.35 3.85 9.4 4.45 9.5 4.8 9.5 3.9 10.85 4.0 9.9 3.7 9.35 M12.1 9.15 L12.15 9.15 12.1 9.3 12.1 9.15 M14.95 10.95 L14.95 10.9 Q14.95 10.7 15.45 10.65 L15.5 10.65 Q15.5 10.45 15.9 10.45 L16.4 10.45 16.45 10.4 16.5 10.4 16.65 10.2 17.0 10.35 Q17.5 10.3 17.55 10.55 L16.55 10.6 15.9 10.7 15.45 10.8 15.0 10.9 14.95 10.95" fill="#8d817a" fill-rule="evenodd" stroke="none"/>
      <path d="M17.8 16.65 L17.65 16.75 16.7 16.75 17.65 16.2 17.7 16.1 17.7 16.2 17.8 16.65 M18.15 9.4 L16.7 9.3 18.0 9.1 18.15 9.4 M14.35 10.3 L14.4 10.4 15.1 10.15 15.15 10.25 Q14.2 10.7 14.05 11.3 L13.7 11.95 13.6 11.8 13.6 11.35 13.5 11.3 13.25 11.15 13.2 11.05 13.05 10.95 13.35 10.65 13.65 10.75 14.3 10.3 14.35 10.3 M17.45 14.4 L16.95 14.45 16.9 14.7 16.85 15.05 16.55 15.2 15.75 15.85 Q15.25 16.2 14.95 16.85 L14.7 17.55 14.7 17.4 14.7 17.2 14.9 16.55 Q15.2 15.95 15.65 15.5 L16.1 15.0 16.55 14.25 17.05 13.9 17.25 14.1 17.45 14.4 M13.65 14.1 L13.45 15.15 13.4 15.3 12.95 15.7 13.0 14.7 12.85 14.4 Q12.75 14.05 11.7 13.65 L12.3 13.65 13.05 13.8 13.65 14.1" fill="#ebbb98" fill-rule="evenodd" stroke="none"/>
      <path d="M12.15 21.8 L12.0 21.85 11.7 20.85 Q11.6 19.95 11.0 19.25 L10.0 17.55 9.4 16.25 Q9.0 15.4 8.9 14.45 L9.45 14.7 9.65 15.1 10.05 15.95 10.4 16.7 10.8 17.45 11.25 18.1 12.0 18.5 12.9 18.9 13.55 19.3 14.4 19.65 14.6 19.75 Q13.65 19.7 13.05 20.25 L12.9 20.5 12.15 21.8 M17.25 18.25 L17.15 18.25 17.1 18.0 16.9 17.4 17.9 17.35 17.95 17.3 17.8 17.5 17.4 17.85 17.4 17.95 17.25 18.2 17.25 18.25 M17.65 16.05 L17.65 16.0 17.6 15.95 16.95 15.05 18.75 15.05 18.95 14.95 18.9 15.15 18.8 15.35 17.8 15.35 17.65 16.05 M17.9 11.7 L17.3 12.35 16.9 12.55 16.25 12.7 15.15 13.0 14.95 12.85 15.15 12.25 14.8 11.75 14.55 11.4 14.65 11.3 15.1 11.1 15.45 11.15 15.85 11.2 16.2 11.15 16.25 11.05 16.4 11.05 16.55 11.05 16.85 11.0 17.15 11.0 17.15 10.95 17.25 10.95 17.75 10.65 17.6 10.55 17.95 10.7 17.95 10.85 17.9 11.05 17.75 11.4 17.75 11.55 17.9 11.7 M15.55 11.8 L15.5 11.95 16.2 11.95 16.45 12.3 Q16.65 12.5 16.65 12.3 L16.65 12.25 16.9 11.85 16.95 11.75 17.05 11.5 17.0 11.3 16.55 11.45 15.8 11.75 15.75 11.8 15.55 11.8 M8.7 10.2 L9.05 10.6 8.85 11.9 9.05 12.5 9.1 12.75 9.1 12.95 9.1 13.0 8.95 12.8 8.9 12.7 8.7 12.3 8.3 12.0 8.6 10.85 8.5 10.75 8.2 10.9 8.1 11.35 8.0 11.35 7.95 11.25 7.85 10.7 8.45 10.15 8.7 10.2" fill="#c79b68" fill-rule="evenodd" stroke="none"/>
      <path d="M15.55 11.8 L15.75 11.8 15.8 11.75 16.55 11.45 17.0 11.3 17.05 11.5 16.95 11.75 16.9 11.85 16.65 12.25 16.65 12.3 Q16.65 12.5 16.45 12.3 L16.2 11.95 15.5 11.95 15.55 11.8" fill="#000000" fill-rule="evenodd" stroke="none"/>
      <path d="M3.45 17.5 L6.15 17.45 Q7.6 17.8 9.05 18.5 L9.0 18.6 9.05 18.7 8.8 18.5 8.15 19.6 Q7.35 20.8 7.25 21.15 L6.2 20.5 4.95 19.6 3.25 19.05 2.8 19.1 2.75 19.1 2.1 19.2 2.35 19.2 2.7 19.2 3.3 19.5 4.7 20.05 7.25 21.95 7.5 21.65 7.85 21.15 7.9 21.05 8.45 21.45 8.8 21.9 8.9 22.0 0.5 22.0 0.5 18.85 Q1.75 17.9 3.4 17.5 L3.45 17.5 M9.25 20.05 L9.35 20.2 9.3 20.3 9.25 20.05 M9.45 21.85 L9.5 22.0 9.5 22.05 9.45 22.0 9.45 21.85 M9.5 22.2 L9.6 22.45 9.55 22.3 9.5 22.2" fill="#e8e7e6" fill-rule="evenodd" stroke="none"/>
      <path d="M9.05 18.7 L9.2 19.4 9.25 19.9 9.25 20.05 9.3 20.3 9.35 20.8 9.45 21.1 9.45 21.8 9.45 21.85 9.45 22.0 8.9 22.0 8.8 21.9 8.45 21.45 7.9 21.05 7.85 21.15 7.5 21.65 7.25 21.95 4.7 20.05 3.3 19.5 2.7 19.2 2.35 19.2 2.1 19.2 2.75 19.1 2.8 19.1 3.25 19.05 4.95 19.6 6.2 20.5 7.25 21.15 Q7.35 20.8 8.15 19.6 L8.8 18.5 9.05 18.7" fill="#beb7b1" fill-rule="evenodd" stroke="none"/>
      <path d="M12.15 22.0 L12.15 21.9 12.15 21.8 12.9 20.5 13.05 20.25 Q13.65 19.7 14.6 19.75 L14.35 20.2 13.2 21.45 12.8 22.0 12.15 22.0" fill="#e2b181" fill-rule="evenodd" stroke="none"/>
    </g>
  </defs>
</svg>
