<?xml version="1.0" encoding="UTF-8" standalone="no"?>
<svg xmlns:ffdec="https://www.free-decompiler.com/flash" xmlns:xlink="http://www.w3.org/1999/xlink" ffdec:objectType="frame" height="21.95px" width="21.0px" xmlns="http://www.w3.org/2000/svg">
  <g transform="matrix(1.0, 0.0, 0.0, 1.0, -0.5, -0.5)">
    <use ffdec:characterId="2946" height="21.5" transform="matrix(1.0, 0.0, 0.0, 1.0, 0.5, 0.5)" width="20.9" xlink:href="#shape0"/>
  </g>
  <defs>
    <g id="shape0" transform="matrix(1.0, 0.0, 0.0, 1.0, -0.5, -0.5)">
      <path d="M17.35 3.95 L16.7 2.3 15.35 0.5 17.15 0.5 18.7 3.75 18.6 3.75 18.2 3.8 17.55 3.95 17.35 3.95 M3.85 6.55 Q3.5 6.7 3.25 6.9 L2.95 7.15 2.95 5.9 Q3.0 5.15 3.65 3.6 L3.6 5.75 Q3.65 6.55 3.85 6.55 M0.5 17.85 L1.1 17.8 Q6.45 17.5 11.6 19.15 L12.75 19.55 14.3 20.7 14.8 21.05 14.85 21.1 15.5 21.8 15.65 22.0 13.7 22.0 Q11.2 20.45 7.6 19.95 8.75 20.55 9.7 21.95 L9.75 22.0 7.4 22.0 6.75 21.65 6.05 21.35 4.5 20.85 Q3.8 21.05 2.65 21.7 L2.15 22.0 0.5 22.0 0.5 21.1 1.6 20.4 2.15 20.1 0.5 20.5 0.5 17.85" fill="#e98d8d" fill-rule="evenodd" stroke="none"/>
      <path d="M15.35 0.5 L16.7 2.3 17.35 3.95 17.25 3.9 15.1 4.0 14.9 4.0 14.55 3.8 13.25 3.25 12.6 3.1 12.1 2.55 11.55 1.85 10.85 1.5 10.6 1.45 10.4 1.1 10.25 0.9 11.15 0.8 12.1 0.7 12.7 0.85 12.75 0.85 12.3 0.5 15.35 0.5 M5.0 6.05 L3.9 6.5 3.85 6.55 Q3.65 6.55 3.6 5.75 L3.65 3.6 3.75 3.25 4.9 2.3 Q6.1 1.45 7.25 1.3 6.8 1.5 6.25 2.25 L5.8 3.05 5.65 3.85 5.6 4.8 5.35 5.3 5.0 6.05 M0.5 21.1 L0.5 20.5 2.15 20.1 1.6 20.4 0.5 21.1 M2.15 22.0 L2.65 21.7 Q3.8 21.05 4.5 20.85 L6.05 21.35 6.75 21.65 7.4 22.0 2.15 22.0 M9.75 22.0 L9.7 21.95 Q8.75 20.55 7.6 19.95 11.2 20.45 13.7 22.0 L9.75 22.0" fill="#ad4949" fill-rule="evenodd" stroke="none"/>
      <path d="M2.15 9.0 Q2.4 8.2 3.15 7.9 L3.85 7.75 3.95 7.75 Q3.75 7.35 4.15 6.95 4.5 6.65 4.8 6.8 L4.9 6.85 5.05 6.9 Q5.25 6.6 6.2 6.3 L7.45 6.0 8.2 6.35 8.35 6.3 9.05 5.95 9.15 5.9 10.55 5.55 11.15 5.55 11.45 5.6 11.9 5.7 12.05 5.65 Q12.95 5.15 13.1 5.15 L13.3 5.25 13.4 5.3 13.55 5.4 Q14.1 4.35 15.2 4.35 L15.35 4.35 15.95 4.55 16.6 4.85 16.95 4.5 17.5 4.75 17.55 4.75 17.95 4.95 17.95 4.85 Q18.0 4.25 18.7 4.45 L18.75 4.45 19.15 4.6 Q19.75 4.95 19.7 5.55 L19.7 5.6 20.0 6.1 19.95 6.5 19.9 6.8 19.9 7.0 19.2 7.25 Q18.95 7.25 18.75 7.05 L18.25 6.8 17.8 6.9 17.65 7.1 17.45 7.25 16.95 7.35 16.45 7.3 14.6 8.25 14.2 8.15 13.75 7.75 13.35 7.95 12.8 8.0 12.4 8.15 12.3 8.25 11.9 8.55 11.65 8.65 11.4 8.65 10.8 8.65 10.55 8.95 10.1 9.2 10.05 9.15 9.65 9.0 9.1 8.8 9.05 8.75 6.75 9.35 6.1 9.35 5.5 9.35 5.1 9.6 4.45 9.65 4.2 10.0 3.75 10.3 3.25 10.55 2.9 10.65 2.45 10.4 2.2 10.2 2.1 9.1 2.15 9.0 M0.5 16.25 L0.75 16.25 1.15 16.35 1.9 16.65 2.8 16.25 2.95 16.6 4.55 16.9 7.9 16.85 8.4 16.5 10.3 17.15 10.8 17.8 11.3 17.5 11.55 17.5 11.7 18.5 12.55 18.35 14.25 20.05 14.8 20.6 15.55 21.45 15.75 21.65 16.05 22.0 15.65 22.0 15.5 21.8 14.85 21.1 14.8 21.05 14.3 20.7 12.75 19.55 11.6 19.15 Q6.45 17.5 1.1 17.8 L0.5 17.85 0.5 16.25" fill="#cec9ab" fill-rule="evenodd" stroke="none"/>
      <path d="M17.35 3.95 L17.55 3.95 18.2 3.8 18.6 3.75 18.7 3.75 Q19.65 3.75 19.7 4.5 L19.85 4.75 20.0 6.1 19.7 5.6 19.7 5.55 Q19.75 4.95 19.15 4.6 L18.75 4.45 18.7 4.45 Q18.0 4.25 17.95 4.85 L17.95 4.95 17.55 4.75 17.5 4.75 16.95 4.5 16.6 4.85 15.95 4.55 15.35 4.35 15.2 4.35 Q14.1 4.35 13.55 5.4 L13.4 5.3 13.3 5.25 13.1 5.15 Q12.95 5.15 12.05 5.65 L11.9 5.7 11.45 5.6 11.15 5.55 10.55 5.55 9.15 5.9 9.05 5.95 8.35 6.3 8.2 6.35 7.45 6.0 6.2 6.3 Q5.25 6.6 5.05 6.9 L4.9 6.85 4.8 6.8 Q4.5 6.65 4.15 6.95 3.75 7.35 3.95 7.75 L3.85 7.75 3.15 7.9 Q2.4 8.2 2.15 9.0 2.2 7.35 2.95 7.15 L3.25 6.9 Q3.5 6.7 3.85 6.55 L3.9 6.5 5.0 6.05 5.15 5.95 7.3 5.4 7.4 5.4 8.65 5.15 9.55 5.05 11.05 4.95 12.05 4.85 13.4 4.35 14.9 4.0 15.1 4.0 17.25 3.9 17.35 3.95 M10.25 16.1 L11.0 16.35 11.25 16.45 11.5 16.6 Q12.0 16.8 12.45 17.15 L13.05 17.7 Q13.4 18.2 13.55 18.85 L14.0 19.15 14.2 19.35 14.5 19.6 15.45 20.35 17.1 22.0 16.05 22.0 15.75 21.65 15.55 21.45 14.8 20.6 14.25 20.05 12.55 18.35 11.7 18.5 11.55 17.5 11.3 17.5 10.8 17.8 10.3 17.15 8.4 16.5 7.9 16.85 4.55 16.9 2.95 16.6 2.8 16.25 1.9 16.65 1.15 16.35 0.75 16.25 0.5 16.25 0.5 15.25 2.35 15.15 2.65 15.2 5.6 15.55 6.45 15.65 6.75 15.65 7.45 15.7 7.8 15.75 8.3 15.8 9.75 16.0 9.85 16.05 10.25 16.1" fill="#fff9d4" fill-rule="evenodd" stroke="none"/>
      <path d="M2.2 10.2 L2.45 10.4 2.9 10.65 3.25 10.55 3.75 10.3 4.2 10.0 4.45 9.65 5.1 9.6 5.5 9.35 6.1 9.35 6.75 9.35 9.05 8.75 9.1 8.8 9.65 9.0 10.05 9.15 10.1 9.2 10.55 8.95 10.8 8.65 11.4 8.65 11.65 8.65 11.9 8.55 12.3 8.25 12.4 8.15 12.8 8.0 13.35 7.95 13.75 7.75 14.2 8.15 14.6 8.25 16.45 7.3 16.95 7.35 17.45 7.25 17.65 7.1 17.8 6.9 18.25 6.8 18.75 7.05 Q18.95 7.25 19.2 7.25 L19.9 7.0 19.15 7.65 17.6 8.2 16.75 8.35 15.35 8.6 12.55 8.95 12.0 9.0 11.6 9.1 10.7 9.35 10.05 9.5 9.45 9.65 8.65 9.85 8.4 9.95 7.95 10.05 7.9 10.1 7.55 10.15 4.95 10.8 4.85 10.8 3.75 10.95 3.0 11.0 2.8 11.0 Q2.3 10.9 2.2 10.2" fill="#9c9982" fill-rule="evenodd" stroke="none"/>
      <path d="M12.3 0.5 L12.75 0.85 12.7 0.85 12.1 0.7 11.15 0.8 10.25 0.9 10.4 1.1 10.6 1.45 10.85 1.5 11.55 1.85 12.1 2.55 12.6 3.1 13.25 3.25 14.55 3.8 14.9 4.0 13.4 4.35 12.05 4.85 11.05 4.95 9.55 5.05 8.65 5.15 7.4 5.4 7.3 5.4 5.15 5.95 5.0 6.05 5.35 5.3 5.6 4.8 5.65 3.85 5.8 3.05 6.25 2.25 Q6.8 1.5 7.25 1.3 6.1 1.45 4.9 2.3 L3.75 3.25 3.85 3.1 4.05 2.55 3.65 1.8 3.3 0.5 12.3 0.5" fill="#8e3c3c" fill-rule="evenodd" stroke="none"/>
      <path d="M18.45 13.8 Q18.25 13.45 17.95 13.5 L17.8 13.25 17.75 13.05 17.75 13.0 18.0 12.95 18.35 12.8 18.9 12.7 19.8 13.0 20.1 13.15 19.7 13.25 19.65 13.25 19.15 13.3 18.6 13.2 18.45 13.55 18.45 13.8 M10.05 9.5 L9.75 9.85 9.5 10.1 9.7 10.45 9.95 10.8 9.85 11.1 9.65 11.25 9.45 11.2 9.25 10.8 8.95 10.5 9.45 9.65 10.05 9.5 M8.65 9.85 L8.6 9.95 8.5 10.85 8.4 9.95 8.65 9.85 M18.45 9.25 L18.5 9.5 18.1 10.25 17.7 10.95 17.1 11.45 16.6 11.95 16.9 11.4 16.35 10.9 16.05 10.5 15.0 9.75 Q15.05 9.5 15.35 9.4 L15.4 9.4 15.85 9.35 15.9 9.35 16.55 9.25 17.45 9.2 17.75 9.3 18.15 9.35 18.45 9.25 M17.7 9.6 L17.0 9.65 16.15 9.85 16.35 9.9 16.8 10.0 16.9 10.0 16.85 10.2 17.15 10.4 17.35 10.2 17.5 10.0 17.6 9.9 17.75 9.75 17.7 9.6" fill="#c79b68" fill-rule="evenodd" stroke="none"/>
      <path d="M17.7 9.6 L17.75 9.75 17.6 9.9 17.5 10.0 17.35 10.2 17.15 10.4 16.85 10.2 16.9 10.0 16.8 10.0 16.35 9.9 16.15 9.85 17.0 9.65 17.7 9.6" fill="#000000" fill-rule="evenodd" stroke="none"/>
      <path d="M19.7 22.0 L19.75 21.4 Q19.75 20.4 19.3 19.8 18.85 19.25 19.15 18.35 L19.25 18.1 19.55 18.7 19.9 19.5 20.2 20.25 20.4 21.3 20.4 21.35 20.3 22.0 19.7 22.0 M15.65 15.1 L15.55 15.45 15.3 16.1 15.15 16.8 15.3 16.95 15.3 17.75 15.3 17.95 15.9 19.15 15.9 19.2 16.2 18.05 16.45 17.55 16.4 16.8 16.6 16.25 16.8 16.8 17.1 16.15 17.8 15.45 17.7 15.75 18.05 16.55 18.4 17.2 Q18.95 18.15 18.6 19.25 L18.45 19.75 18.35 19.15 18.05 18.35 18.0 18.55 Q17.35 20.6 17.6 20.9 L17.85 21.35 18.1 22.0 17.1 22.0 15.45 20.35 14.5 19.6 14.0 18.7 14.2 19.35 14.0 19.15 13.75 18.5 13.0 17.3 13.05 17.7 12.45 17.15 Q12.0 16.8 11.5 16.6 11.3 15.55 10.85 15.15 L11.05 15.75 11.0 16.35 10.25 16.1 10.15 15.6 10.05 14.7 10.0 14.15 10.05 14.0 10.05 13.95 10.1 13.9 10.25 13.4 10.35 12.75 10.4 12.55 10.45 11.35 10.65 10.8 10.8 10.25 10.7 9.35 11.6 9.1 11.55 9.3 11.55 9.45 11.75 10.1 11.85 11.15 11.6 12.25 Q11.5 13.95 11.8 14.1 L12.1 14.45 12.35 15.05 12.55 15.9 12.6 16.15 12.65 15.95 12.75 14.7 12.8 14.7 13.35 15.35 13.9 15.9 14.1 16.2 14.45 17.1 14.5 16.8 14.35 15.55 14.15 15.15 13.5 14.45 13.7 14.45 14.0 14.4 14.35 14.35 14.9 14.75 15.05 14.95 15.35 15.2 15.5 15.25 15.55 15.25 15.65 15.1 M18.2 22.0 L18.2 21.2 18.4 20.45 18.4 20.35 18.75 21.15 18.9 22.0 18.2 22.0 M15.35 9.4 L15.05 9.35 15.0 9.3 16.0 9.0 17.4 8.75 18.3 8.95 Q18.6 8.95 18.7 8.75 L18.7 8.8 18.55 9.2 18.45 9.25 18.15 9.35 17.75 9.3 17.45 9.2 16.55 9.25 15.9 9.35 15.85 9.35 15.4 9.4 15.35 9.4 M4.95 10.8 L7.55 10.15 7.9 10.1 7.8 10.45 7.2 11.0 7.05 11.25 6.8 11.85 6.85 11.25 6.85 10.35 6.8 10.45 6.15 11.25 Q5.6 12.05 5.5 13.05 5.4 14.6 4.85 14.45 L4.8 14.25 4.7 13.65 4.95 12.75 5.2 11.85 5.2 11.25 5.0 10.9 4.95 10.8 M3.75 10.95 L4.85 10.8 4.8 11.25 4.6 11.65 4.5 11.85 4.1 12.15 Q3.65 12.5 3.55 12.65 L3.0 14.35 2.8 14.85 2.4 14.85 Q2.15 14.85 2.2 13.75 L2.4 12.55 3.6 11.3 3.75 10.95 M6.15 14.9 L6.75 13.35 Q7.05 14.95 6.45 15.65 L5.6 15.55 6.15 14.9" fill="#cccccc" fill-rule="evenodd" stroke="none"/>
      <path d="M20.3 22.0 L20.4 21.35 20.4 21.3 20.2 20.25 19.9 19.5 19.55 18.7 19.25 18.1 19.15 18.35 Q18.85 19.25 19.3 19.8 19.75 20.4 19.75 21.4 L19.7 22.0 18.9 22.0 18.75 21.15 18.4 20.35 18.4 20.45 18.2 21.2 18.2 22.0 18.1 22.0 17.85 21.35 17.6 20.9 Q17.35 20.6 18.0 18.55 L18.05 18.35 18.35 19.15 18.45 19.75 18.6 19.25 Q18.95 18.15 18.4 17.2 L18.05 16.55 17.7 15.75 17.8 15.45 17.1 16.15 16.8 16.8 16.6 16.25 16.4 16.8 16.45 17.55 16.2 18.05 15.9 19.2 15.9 19.15 15.3 17.95 15.3 17.75 15.3 16.95 15.15 16.8 15.3 16.1 15.55 15.45 15.65 15.1 15.7 15.1 15.8 15.0 16.45 14.5 17.25 13.95 17.45 13.8 17.95 13.5 Q18.25 13.45 18.45 13.8 L18.55 13.95 Q18.9 14.45 18.85 14.85 L18.5 15.4 18.35 15.6 18.45 15.9 18.85 16.55 19.65 17.35 20.1 18.5 20.85 19.3 Q21.35 19.75 21.4 20.25 L21.25 21.65 21.25 22.0 20.3 22.0 M11.6 9.1 L12.0 9.0 12.55 8.95 12.55 9.0 12.4 9.65 12.3 10.35 Q12.1 10.5 12.2 10.75 L12.3 11.2 12.4 11.65 12.5 12.0 12.5 12.75 12.65 12.9 13.1 13.5 13.15 14.0 13.15 14.1 13.4 14.35 13.5 14.45 14.15 15.15 14.35 15.55 14.5 16.8 14.45 17.1 14.1 16.2 13.9 15.9 13.35 15.35 12.8 14.7 12.75 14.7 12.65 15.95 12.6 16.15 12.55 15.9 12.35 15.05 12.1 14.45 11.8 14.1 Q11.5 13.95 11.6 12.25 L11.85 11.15 11.75 10.1 11.55 9.45 11.55 9.3 11.6 9.1 M15.35 8.6 L16.75 8.35 17.6 8.2 18.55 8.4 18.7 8.75 Q18.6 8.95 18.3 8.95 L17.4 8.75 16.0 9.0 15.0 9.3 14.9 9.15 15.35 8.6 M13.05 17.7 L13.0 17.3 13.75 18.5 14.0 19.15 13.55 18.85 Q13.4 18.2 13.05 17.7 M3.0 11.0 L3.75 10.95 3.6 11.3 2.4 12.55 2.9 11.2 3.0 11.0" fill="#eeeeee" fill-rule="evenodd" stroke="none"/>
      <path d="M17.95 13.5 L17.45 13.8 17.25 13.95 17.8 13.25 17.95 13.5 M12.55 8.95 L15.35 8.6 14.9 9.15 15.0 9.3 15.05 9.35 15.35 9.4 Q15.05 9.5 15.0 9.75 L16.05 10.5 16.35 10.9 16.9 11.4 16.6 11.95 17.1 11.45 17.7 10.95 18.1 10.25 18.5 9.5 18.45 9.25 18.55 9.2 18.7 8.8 18.7 8.75 18.55 8.4 17.6 8.2 19.15 7.65 19.1 8.7 18.85 9.15 18.75 9.25 18.8 9.85 19.45 10.85 19.75 11.4 Q20.5 11.65 20.4 12.4 20.35 12.95 20.1 13.15 L19.8 13.0 18.9 12.7 18.35 12.8 18.0 12.95 17.75 13.0 17.75 13.05 17.6 12.85 Q17.5 12.7 18.1 12.0 L17.4 12.6 17.05 13.4 16.45 14.05 Q15.95 14.4 15.5 15.25 L15.35 15.2 15.05 14.95 14.9 14.75 16.3 12.35 Q14.75 13.5 13.15 14.1 L13.15 14.0 13.1 13.5 12.65 12.9 12.5 12.75 12.5 12.0 12.4 11.65 12.3 11.2 12.2 10.75 Q12.1 10.5 12.3 10.35 L12.4 9.65 12.55 9.0 12.55 8.95 M10.7 9.35 L10.8 10.25 10.65 10.8 10.45 11.35 10.4 12.55 10.35 12.75 10.25 13.4 10.1 13.9 10.05 13.95 10.05 14.0 10.0 14.15 9.95 14.45 9.8 14.05 9.7 13.1 9.35 13.05 Q9.0 13.1 8.6 12.4 L8.35 11.85 8.25 11.45 7.95 10.6 7.95 10.05 8.4 9.95 8.5 10.85 8.6 9.95 8.65 9.85 9.45 9.65 8.95 10.5 9.25 10.8 9.45 11.2 9.65 11.25 9.85 11.1 9.95 10.8 9.7 10.45 9.5 10.1 9.75 9.85 10.05 9.5 10.7 9.35" fill="#ffcc99" fill-rule="evenodd" stroke="none"/>
      <path d="M17.25 13.95 L16.45 14.5 15.8 15.0 15.7 15.1 15.65 15.1 15.55 15.25 15.5 15.25 Q15.95 14.4 16.45 14.05 L17.05 13.4 17.4 12.6 18.1 12.0 Q17.5 12.7 17.6 12.85 L17.75 13.05 17.8 13.25 17.25 13.95 M13.15 14.1 Q14.75 13.5 16.3 12.35 L14.9 14.75 14.35 14.35 14.0 14.4 13.7 14.45 13.5 14.45 13.4 14.35 13.15 14.1" fill="#ebbb98" fill-rule="evenodd" stroke="none"/>
      <path d="M7.95 10.05 L7.95 10.6 8.25 11.45 8.35 11.85 8.35 12.2 8.5 12.55 8.45 13.15 8.2 14.0 8.35 14.2 8.5 14.9 8.3 15.8 7.8 15.75 7.8 15.6 7.55 14.8 7.15 15.4 6.75 15.65 6.45 15.65 Q7.05 14.95 6.75 13.35 L6.15 14.9 5.05 14.85 4.85 14.7 4.7 14.6 4.35 14.55 3.75 14.5 3.55 14.5 Q3.4 14.75 2.95 14.8 L2.8 14.85 3.0 14.35 3.55 12.65 Q3.65 12.5 4.1 12.15 L4.5 11.85 4.6 11.65 4.8 11.25 4.85 10.8 4.95 10.8 5.0 10.9 5.2 11.25 5.2 11.85 4.95 12.75 4.7 13.65 4.8 14.25 4.85 14.45 Q5.4 14.6 5.5 13.05 5.6 12.05 6.15 11.25 L6.8 10.45 6.85 10.35 6.85 11.25 6.8 11.85 7.05 11.25 7.2 11.0 7.8 10.45 7.9 10.1 7.95 10.05 M9.95 14.45 L10.0 14.15 10.05 14.7 10.15 15.6 10.25 16.1 9.85 16.05 9.85 16.0 9.8 15.2 9.95 14.45 M11.0 16.35 L11.05 15.75 10.85 15.15 Q11.3 15.55 11.5 16.6 L11.25 16.45 11.0 16.35 M14.2 19.35 L14.0 18.7 14.5 19.6 14.2 19.35" fill="#aaaaaa" fill-rule="evenodd" stroke="none"/>
      <path d="M8.35 11.85 L8.6 12.4 Q9.0 13.1 9.35 13.05 L9.7 13.1 9.8 14.05 9.95 14.45 9.8 15.2 9.85 16.0 9.85 16.05 9.75 16.0 8.3 15.8 8.5 14.9 8.35 14.2 8.2 14.0 8.45 13.15 8.5 12.55 8.35 12.2 8.35 11.85 M3.75 14.5 L4.35 14.55 4.7 14.6 4.85 14.7 5.05 14.85 6.15 14.9 5.6 15.55 2.65 15.2 Q3.15 14.75 3.75 14.5 M6.75 15.65 L7.15 15.4 7.55 14.8 7.8 15.6 7.8 15.75 7.45 15.7 6.75 15.65" fill="#e2b181" fill-rule="evenodd" stroke="none"/>
    </g>
  </defs>
</svg>
