<?xml version="1.0" encoding="UTF-8" standalone="no"?>
<svg xmlns:ffdec="https://www.free-decompiler.com/flash" xmlns:xlink="http://www.w3.org/1999/xlink" ffdec:objectType="frame" height="21.95px" width="21.0px" xmlns="http://www.w3.org/2000/svg">
  <g transform="matrix(1.0, 0.0, 0.0, 1.0, -0.5, -0.5)">
    <use ffdec:characterId="2947" height="21.5" transform="matrix(1.0, 0.0, 0.0, 1.0, 2.0, 0.5)" width="18.35" xlink:href="#shape0"/>
  </g>
  <defs>
    <g id="shape0" transform="matrix(1.0, 0.0, 0.0, 1.0, -2.0, -0.5)">
      <path d="M9.9 22.0 L5.75 22.0 7.7 21.65 Q8.85 21.5 9.9 22.0" fill="#d4d4d4" fill-rule="evenodd" stroke="none"/>
      <path d="M9.7 9.25 Q10.25 8.9 11.1 8.85 12.0 9.0 11.95 9.85 L11.9 11.4 Q11.85 11.95 12.05 12.1 L13.05 11.9 13.15 11.95 13.2 10.25 Q13.2 9.5 13.45 9.1 L13.55 8.95 14.85 8.8 Q14.6 11.2 13.85 13.5 L13.45 14.7 12.95 15.6 11.75 14.95 10.9 14.6 10.75 14.3 10.65 13.9 10.4 13.2 10.55 13.15 10.6 13.15 11.0 13.1 10.5 13.0 10.2 12.75 10.05 12.5 10.0 12.15 9.95 11.75 9.65 11.3 9.6 11.05 Q9.45 9.7 9.7 9.25 M16.0 8.15 L18.95 5.95 19.0 6.2 19.1 7.0 19.1 7.1 19.1 8.85 19.05 9.45 19.0 10.15 Q18.9 11.55 19.5 12.85 L19.75 13.35 19.7 13.65 18.85 13.75 18.15 13.7 Q18.0 13.7 17.9 13.85 L17.65 13.95 17.6 13.9 17.7 14.25 17.8 14.6 18.5 15.3 18.45 15.45 18.5 15.55 17.25 15.8 16.85 15.95 17.5 16.0 18.25 15.95 18.4 16.2 18.45 16.25 17.9 17.25 17.95 17.3 17.95 17.65 17.95 17.8 17.85 18.25 17.5 18.85 16.05 18.9 15.8 18.95 14.25 18.25 13.15 17.65 Q12.95 17.35 13.45 16.15 L14.0 15.05 14.7 13.3 15.5 10.7 15.6 10.2 15.65 10.25 15.65 10.3 15.5 10.7 Q15.8 10.75 15.95 11.2 16.25 11.65 16.5 11.7 17.0 11.8 17.15 12.85 18.15 11.65 18.5 10.1 L18.6 9.9 Q18.7 9.5 18.15 9.45 L16.95 9.6 15.85 9.9 15.65 10.0 16.0 8.15 M6.1 17.15 L6.65 15.85 6.7 15.7 7.0 15.75 9.1 15.7 9.1 15.3 9.15 14.4 9.3 14.5 9.55 14.9 9.9 16.0 10.1 16.8 10.55 17.2 11.35 18.0 11.85 18.75 12.25 19.5 10.0 18.5 Q7.55 17.35 6.1 17.15 M11.45 10.6 L11.5 10.05 Q11.5 9.25 10.75 9.25 9.95 9.3 9.95 9.8 L9.9 10.0 10.0 10.45 10.05 10.4 10.1 10.0 Q10.3 9.65 10.85 9.7 L11.2 10.0 11.2 10.35 10.95 10.35 Q10.4 10.3 10.35 10.65 L10.45 10.8 10.6 11.0 10.65 11.05 10.7 11.15 10.6 11.4 10.95 11.65 11.25 11.45 11.0 11.1 10.8 10.9 10.95 10.8 11.0 10.8 11.45 10.6 M11.15 15.6 Q12.45 16.35 12.6 16.3 L12.15 17.25 Q11.45 16.95 11.15 15.6" fill="#ffcc99" fill-rule="evenodd" stroke="none"/>
      <path d="M20.3 4.7 L20.35 4.9 18.95 5.95 16.0 8.15 14.85 8.8 13.55 8.95 11.95 8.8 11.1 8.85 Q10.25 8.9 9.7 9.25 L9.25 9.6 Q8.75 10.0 8.35 11.3 L8.2 12.0 8.05 12.4 7.65 13.0 7.2 14.2 6.85 14.6 6.3 14.55 5.0 13.95 4.2 13.45 2.8 11.7 2.65 11.05 3.9 10.6 4.05 10.55 4.9 10.2 9.15 8.5 10.75 7.9 12.3 7.4 14.55 6.6 14.65 6.55 14.7 6.55 14.95 6.45 15.35 6.3 Q16.6 5.8 17.75 5.45 L18.75 5.1 20.0 4.7 20.3 4.7" fill="#333333" fill-rule="evenodd" stroke="none"/>
      <path d="M14.25 18.25 L14.2 18.4 14.2 18.55 14.1 19.9 13.9 20.35 12.25 19.5 11.85 18.75 11.35 18.0 10.55 17.2 10.1 16.8 9.9 16.0 9.55 14.9 9.3 14.5 10.45 15.2 11.15 15.6 Q11.45 16.95 12.15 17.25 L13.15 17.7 13.15 17.65 14.25 18.25 M10.4 13.2 L10.65 13.9 10.75 14.3 10.9 14.6 10.1 14.2 9.4 13.65 9.65 13.05 9.7 13.05 10.4 13.2" fill="#e2b181" fill-rule="evenodd" stroke="none"/>
      <path d="M19.7 13.65 L19.4 14.0 19.0 14.25 18.45 14.35 18.4 14.6 18.45 14.95 18.5 15.3 17.8 14.6 17.7 14.25 17.6 13.9 17.65 13.95 17.9 13.85 Q18.0 13.7 18.15 13.7 L18.85 13.75 19.7 13.65 M18.5 15.55 L18.3 15.95 18.25 15.95 17.5 16.0 16.85 15.95 17.25 15.8 18.5 15.55 M11.45 10.6 L11.0 10.8 10.95 10.8 10.8 10.9 11.0 11.1 11.25 11.45 10.95 11.65 10.6 11.4 10.7 11.15 10.65 11.05 10.6 11.0 10.45 10.8 10.35 10.65 Q10.4 10.3 10.95 10.35 L11.2 10.35 11.2 10.0 10.85 9.7 Q10.3 9.65 10.1 10.0 L10.05 10.4 10.0 10.45 9.9 10.0 9.95 9.8 Q9.95 9.3 10.75 9.25 11.5 9.25 11.5 10.05 L11.45 10.6 M17.7 10.55 L17.25 10.65 16.35 10.95 17.0 11.0 17.1 11.2 17.15 11.4 17.35 11.3 17.7 10.85 17.7 10.55 M18.5 10.1 Q18.15 11.65 17.15 12.85 17.0 11.8 16.5 11.7 16.25 11.65 15.95 11.2 15.8 10.75 15.5 10.7 L15.65 10.3 15.65 10.25 15.95 10.2 17.0 10.05 18.0 10.0 18.35 10.1 18.5 10.1 M10.0 12.15 L10.05 12.5 10.2 12.75 10.5 13.0 11.0 13.1 10.6 13.15 10.55 13.15 10.4 13.2 9.7 13.05 9.65 13.05 10.0 12.15" fill="#c79b68" fill-rule="evenodd" stroke="none"/>
      <path d="M7.65 13.0 L8.05 12.4 9.4 13.65 10.1 14.2 10.9 14.6 11.75 14.95 12.95 15.6 13.45 14.7 13.85 13.5 Q14.6 11.2 14.85 8.8 L16.0 8.15 15.65 10.0 15.6 10.2 15.5 10.7 14.7 13.3 14.0 15.05 13.45 16.15 Q12.95 17.35 13.15 17.65 L13.15 17.7 12.15 17.25 12.6 16.3 Q12.45 16.35 11.15 15.6 L10.45 15.2 9.3 14.5 9.15 14.4 7.65 13.0" fill="#999999" fill-rule="evenodd" stroke="none"/>
      <path d="M15.55 0.5 L17.8 0.5 19.55 2.05 19.85 2.45 20.2 3.9 18.35 4.45 Q17.15 4.8 16.0 5.25 L15.35 5.45 14.9 5.7 14.85 5.65 14.7 5.75 14.5 5.85 12.2 6.65 10.65 7.15 9.4 7.55 4.8 9.5 4.25 9.7 3.85 9.8 2.5 10.25 3.2 6.75 3.45 5.95 Q4.05 4.45 5.05 3.3 6.7 1.4 8.0 0.5 L10.65 0.5 Q7.75 1.45 5.55 4.9 5.3 5.5 5.5 5.65 L5.65 5.7 Q7.85 3.05 10.6 1.95 12.9 1.1 15.55 1.25 16.0 0.9 15.55 0.5" fill="#ffffff" fill-rule="evenodd" stroke="none"/>
      <path d="M20.3 4.7 L20.0 4.7 18.75 5.1 17.75 5.45 Q16.6 5.8 15.35 6.3 L15.35 5.45 16.0 5.25 Q17.15 4.8 18.35 4.45 L20.2 3.9 20.3 4.7 M10.75 7.9 L9.15 8.5 4.9 10.2 4.05 10.55 3.9 10.6 2.65 11.05 2.5 10.25 3.85 9.8 4.25 9.7 4.8 9.5 9.4 7.55 10.65 7.15 10.75 7.9 M17.7 10.55 L17.7 10.85 17.35 11.3 17.15 11.4 17.1 11.2 17.0 11.0 16.35 10.95 17.25 10.65 17.7 10.55" fill="#000000" fill-rule="evenodd" stroke="none"/>
      <path d="M15.55 0.5 Q16.0 0.9 15.55 1.25 12.9 1.1 10.6 1.95 7.85 3.05 5.65 5.7 L5.5 5.65 Q5.3 5.5 5.55 4.9 7.75 1.45 10.65 0.5 L15.55 0.5" fill="#cccccc" fill-rule="evenodd" stroke="none"/>
      <path d="M6.3 14.55 L6.85 14.6 7.2 14.2 7.65 13.0 9.15 14.4 9.1 15.3 9.1 15.7 7.0 15.75 6.7 15.7 6.65 15.65 6.3 14.55 M8.05 12.4 L8.2 12.0 8.35 11.3 Q8.75 10.0 9.25 9.6 L9.7 9.25 Q9.45 9.7 9.6 11.05 L9.65 11.3 9.95 11.75 10.0 12.15 9.65 13.05 9.4 13.65 8.05 12.4 M11.1 8.85 L11.95 8.8 13.55 8.95 13.45 9.1 Q13.2 9.5 13.2 10.25 L13.15 11.95 13.05 11.9 12.05 12.1 Q11.85 11.95 11.9 11.4 L11.95 9.85 Q12.0 9.0 11.1 8.85 M18.5 10.1 L18.35 10.1 18.0 10.0 17.0 10.05 15.95 10.2 15.65 10.25 15.6 10.2 15.65 10.0 15.85 9.9 16.95 9.6 18.15 9.45 Q18.7 9.5 18.6 9.9 L18.5 10.1" fill="#1c1917" fill-rule="evenodd" stroke="none"/>
      <path d="M15.35 6.3 L14.95 6.45 14.7 6.55 14.65 6.55 14.55 6.6 14.5 5.85 14.7 5.75 14.85 5.65 14.9 5.7 15.35 5.45 15.35 6.3 M12.3 7.4 L10.75 7.9 10.65 7.15 12.2 6.65 12.3 7.4" fill="#515151" fill-rule="evenodd" stroke="none"/>
      <path d="M14.55 6.6 L12.3 7.4 12.2 6.65 14.5 5.85 14.55 6.6" fill="#919191" fill-rule="evenodd" stroke="none"/>
      <path d="M13.9 20.35 L16.3 21.65 16.1 22.0 13.45 22.0 Q11.5 19.6 8.95 19.4 5.5 19.2 4.1 19.85 3.4 20.1 2.45 21.35 L2.45 21.25 2.9 19.5 Q3.2 18.35 3.8 17.75 L4.0 17.5 Q4.4 17.2 4.9 17.1 L6.1 17.15 Q7.55 17.35 10.0 18.5 L12.25 19.5 13.9 20.35 M11.4 22.0 L9.9 22.0 Q8.85 21.5 7.7 21.65 L5.75 22.0 4.35 22.0 Q5.8 20.95 8.1 21.05 9.9 21.1 11.4 22.0" fill="#a83636" fill-rule="evenodd" stroke="none"/>
      <path d="M13.45 22.0 L12.85 22.0 11.65 21.1 Q10.45 20.3 8.0 20.1 L4.55 20.45 2.9 22.0 2.0 22.0 2.45 21.4 2.45 21.35 Q3.4 20.1 4.1 19.85 5.5 19.2 8.95 19.4 11.5 19.6 13.45 22.0" fill="#e07373" fill-rule="evenodd" stroke="none"/>
      <path d="M12.85 22.0 L11.4 22.0 Q9.9 21.1 8.1 21.05 5.8 20.95 4.35 22.0 L2.9 22.0 4.55 20.45 8.0 20.1 Q10.45 20.3 11.65 21.1 L12.85 22.0" fill="#cc4343" fill-rule="evenodd" stroke="none"/>
    </g>
  </defs>
</svg>
