<?xml version="1.0" encoding="UTF-8" standalone="no"?>
<svg xmlns:ffdec="https://www.free-decompiler.com/flash" xmlns:xlink="http://www.w3.org/1999/xlink" ffdec:objectType="frame" height="100.15px" width="52.95px" xmlns="http://www.w3.org/2000/svg">
  <g transform="matrix(1.0, 0.0, 0.0, 1.0, 25.1, 55.7)">
    <use ffdec:characterId="2063" height="73.6" transform="matrix(1.0, 1.0E-4, -1.0E-4, 1.0, -18.394, -36.8017)" width="36.2" xlink:href="#sprite0"/>
    <use ffdec:characterId="2067" height="27.2" id="wound" transform="matrix(1.0E-4, -1.0, 1.0, 1.0E-4, -14.4027, 11.0987)" width="44.1" xlink:href="#sprite1"/>
    <use ffdec:characterId="1081" height="100.0" id="shape" transform="matrix(0.33, 0.0, 0.0, 0.73, -16.4993, -36.499)" width="100.0" xlink:href="#sprite2"/>
    <use ffdec:characterId="1138" height="0.0" id="spineRef" transform="matrix(1.0, 0.0, 0.0, 1.0, 5.0, -47.75)" width="0.0" xlink:href="#sprite3"/>
  </g>
  <defs>
    <g id="sprite0" transform="matrix(1.0, 0.0, 0.0, 1.0, 19.05, 65.25)">
      <use ffdec:characterId="2062" height="73.6" transform="matrix(1.0, 0.0, 0.0, 1.0, -19.05, -65.25)" width="36.2" xlink:href="#shape0"/>
    </g>
    <g id="shape0" transform="matrix(1.0, 0.0, 0.0, 1.0, 19.05, 65.25)">
      <path d="M-19.05 -44.4 Q-17.55 -48.15 -14.25 -54.75 -11.65 -58.35 -9.25 -60.1 -6.2 -62.25 -2.6 -62.25 7.65 -62.25 10.5 -52.0 L8.45 -54.15 6.5 -55.75 6.5 -55.35 9.2 -49.45 Q10.75 -45.7 10.75 -42.25 L10.75 -42.15 Q11.05 -24.85 13.9 -32.3 14.15 -22.6 12.9 -14.95 13.25 -10.15 14.95 0.95 L15.35 1.15 15.8 1.1 15.05 2.8 15.15 3.95 15.15 4.65 12.85 4.7 9.9 5.05 9.6 5.4 8.35 5.35 7.75 4.5 7.65 1.05 7.5 -1.85 Q7.5 -5.5 8.0 -10.2 L9.0 -19.0 8.75 -19.0 7.2 -14.7 Q6.35 -12.65 5.15 -11.3 6.7 -21.45 6.85 -29.9 L6.95 -38.55 Q6.85 -43.3 5.75 -46.25 L1.15 -44.5 Q-1.8 -43.5 -3.35 -43.5 -6.9 -43.5 -9.55 -46.2 -12.45 -49.1 -11.75 -53.0 L-13.9 -48.75 Q-15.4 -45.5 -15.7 -38.95 -16.0 -32.45 -15.4 -27.25 -14.85 -22.05 -13.0 -15.75 L-11.55 -18.9 Q-10.55 -21.0 -10.25 -22.25 L-10.25 -20.85 Q-10.25 -17.75 -12.55 -5.3 L-13.4 0.15 -13.35 0.25 Q-13.05 0.9 -13.05 1.6 L-13.25 2.8 -13.65 3.3 -13.7 4.8 -15.35 4.45 -15.4 3.95 -15.45 3.5 Q-17.15 3.15 -17.55 1.1 -17.85 -0.15 -17.65 -1.55 -17.65 -3.55 -17.1 -6.9 -16.6 -9.85 -16.55 -12.0 L-17.0 -17.9 -18.05 -30.5 -19.05 -44.4" fill="#996633" fill-rule="evenodd" stroke="none"/>
      <path d="M-15.35 4.45 L-13.7 4.8 -13.65 3.3 -13.25 2.8 -13.05 1.6 Q-13.05 0.9 -13.35 0.25 L-13.4 0.15 -12.55 -5.3 Q-10.25 -17.75 -10.25 -20.85 L-10.25 -22.25 Q-10.55 -21.0 -11.55 -18.9 L-13.0 -15.75 Q-14.85 -22.05 -15.4 -27.25 -16.0 -32.45 -15.7 -38.95 -15.4 -45.5 -13.9 -48.75 L-11.75 -53.0 Q-12.45 -49.1 -9.55 -46.2 -6.9 -43.5 -3.35 -43.5 -1.8 -43.5 1.15 -44.5 L5.75 -46.25 Q6.85 -43.3 6.95 -38.55 L6.85 -29.9 Q6.7 -21.45 5.15 -11.3 6.35 -12.65 7.2 -14.7 L8.75 -19.0 9.0 -19.0 8.0 -10.2 Q7.5 -5.5 7.5 -1.85 L7.65 1.05 7.75 4.5 8.35 5.35 9.6 5.4 9.9 5.05 12.85 4.7 15.15 4.65 15.15 7.6 12.85 7.8 4.85 8.2 Q-3.95 8.5 -13.65 8.15 L-15.35 8.05 -15.35 4.45" fill="#86592d" fill-rule="evenodd" stroke="none"/>
      <path d="M15.8 1.1 L15.35 1.15 14.95 0.95 Q13.25 -10.15 12.9 -14.95 14.15 -22.6 13.9 -32.3 11.05 -24.85 10.75 -42.15 L10.75 -42.25 Q10.75 -45.7 9.2 -49.45 L6.5 -55.35 6.5 -55.75 8.45 -54.15 10.5 -52.0 Q7.65 -62.25 -2.6 -62.25 -6.2 -62.25 -9.25 -60.1 -11.65 -58.35 -14.25 -54.75 -17.55 -48.15 -19.05 -44.4 L-19.05 -44.75 Q-19.05 -49.0 -14.9 -56.2 -12.75 -60.0 -10.4 -62.15 L-9.7 -62.8 -9.7 -62.85 Q-8.8 -63.5 -7.1 -64.35 -5.45 -65.25 -0.6 -65.25 4.2 -65.25 8.5 -61.2 11.65 -58.25 13.5 -55.0 L13.4 -54.9 13.6 -54.5 Q17.2 -48.35 17.15 -43.95 17.1 -38.9 16.0 -27.25 L15.55 -18.5 15.45 -17.5 15.15 -14.4 Q17.3 -8.05 16.75 -1.05 16.65 0.15 15.8 1.1" fill="#bf8040" fill-rule="evenodd" stroke="none"/>
    </g>
    <g id="sprite1" transform="matrix(1.0, 0.0, 0.0, 1.0, 29.0, 14.0)">
      <use ffdec:characterId="2066" height="27.2" transform="matrix(1.0, 0.0, 0.0, 1.0, -29.0, -14.0)" width="44.1" xlink:href="#shape1"/>
    </g>
    <g id="shape1" transform="matrix(1.0, 0.0, 0.0, 1.0, 29.0, 14.0)">
      <path d="M-6.0 11.2 L-7.3 10.95 -7.2 10.5 -7.8 10.25 -10.5 9.25 Q-12.65 8.55 -14.85 8.1 L-14.7 7.4 -16.05 3.45 -15.3 1.6 -15.0 1.25 -13.15 1.6 -12.3 -0.5 -13.25 -1.25 -15.2 -2.3 -14.7 -3.25 -15.4 -4.4 -14.7 -3.8 -14.25 -3.65 -13.75 -3.5 -12.2 -3.15 -10.55 -4.8 -10.1 -4.95 -10.25 -3.65 Q-4.6 -3.9 -2.6 -9.75 L-2.3 -9.35 -1.75 -9.2 2.75 -10.9 2.95 -11.4 Q4.55 -9.2 7.05 -9.55 L8.25 -8.5 7.9 -7.8 Q8.4 -4.5 11.35 -3.1 L12.15 -2.75 Q12.2 3.05 9.4 6.6 L9.2 6.85 Q6.85 9.65 2.55 11.0 -1.65 12.35 -5.45 10.4 L-6.5 10.85 -6.0 11.2 M-17.35 8.15 L-18.6 8.3 Q-20.4 6.85 -19.5 4.5 L-19.25 4.15 -18.45 3.85 -18.85 4.4 -19.1 4.7 -19.1 5.05 Q-19.0 7.05 -17.35 8.15 M-22.25 2.4 L-22.65 2.65 -23.4 3.1 -25.1 1.75 Q-24.7 -1.6 -21.7 -2.6 L-21.25 -2.5 -20.75 -0.65 -17.65 -1.1 -16.9 -0.7 -17.7 -0.8 -18.95 0.75 -20.05 1.2 -20.1 1.5 Q-19.9 2.1 -19.35 2.35 L-20.35 2.2 -21.2 1.45 -22.25 2.4 M-9.4 -5.35 L-10.95 -6.7 -11.2 -6.95 -11.3 -7.15 -10.9 -8.25 -9.6 -8.6 -9.1 -8.4 -10.45 -7.95 -10.3 -7.4 Q-9.4 -5.3 -7.0 -5.15 L-7.9 -4.75 -8.55 -4.55 -9.4 -5.35 M-5.9 -8.4 Q-6.85 -8.55 -7.25 -9.25 L-7.4 -9.8 -6.85 -10.2 -6.0 -10.45 -5.55 -10.85 Q-6.2 -9.9 -6.25 -8.8 L-5.9 -8.4 M-5.1 -11.55 L-5.45 -12.5 -5.2 -13.4 -4.3 -13.85 -4.75 -13.5 -4.7 -12.15 -5.1 -11.55 M7.25 -4.05 Q7.5 -5.5 6.4 -6.5 L5.65 -7.15 5.6 -7.85 Q3.6 -9.65 0.85 -9.4 -2.45 -9.05 -2.2 -5.95 L-1.3 -5.4 -0.2 -5.75 0.2 -7.55 0.7 -7.55 1.6 -7.95 2.75 -8.25 2.85 -6.8 3.55 -6.4 3.3 -4.75 3.95 -4.8 4.45 -4.4 4.05 -3.6 3.5 -3.25 3.2 -4.4 2.2 -5.15 1.5 -5.15 1.4 -4.35 -0.8 -3.1 -0.9 -2.5 -2.4 -1.85 -3.2 -0.1 -3.85 0.25 -3.45 1.05 Q-1.15 1.2 0.6 -0.2 L1.6 0.55 2.7 0.25 2.75 -0.25 3.25 0.05 2.7 1.35 Q2.75 2.6 3.9 3.0 L4.35 2.95 Q5.5 2.9 6.5 2.15 L6.5 2.95 6.75 3.3 5.95 5.4 4.55 5.1 2.65 6.7 2.1 6.05 -0.75 6.5 -3.6 3.55 -3.65 2.95 -4.5 2.4 -4.4 1.75 -6.8 -0.05 -6.0 3.45 -8.3 3.2 -8.75 0.85 -9.2 0.95 -9.1 0.3 -7.7 -1.05 -7.85 -1.7 -10.0 -1.55 -11.35 1.3 -9.4 5.75 -9.05 6.1 -9.0 6.6 -7.1 7.1 -7.85 5.2 -7.85 4.65 -3.7 7.55 -3.35 6.3 -1.9 7.15 -2.45 9.55 -0.5 9.4 -0.5 8.9 2.7 7.85 3.65 8.75 4.45 8.65 Q5.7 8.4 6.7 7.4 L7.25 6.9 6.9 3.65 7.2 3.1 9.3 3.0 9.65 3.25 9.85 2.15 Q10.25 -0.65 9.2 -3.35 L8.35 -2.95 7.6 0.15 7.7 -1.45 7.85 -3.6 7.25 -4.05 M-9.55 -9.65 Q-11.75 -8.75 -13.1 -10.35 -13.55 -10.9 -13.4 -11.65 -13.2 -13.75 -11.25 -14.0 -12.65 -12.9 -12.75 -11.25 -12.45 -10.2 -11.65 -9.85 L-11.3 -9.8 -9.55 -9.65 M-6.6 -1.85 L-6.1 -1.95 -5.15 -1.85 -4.6 -2.45 -3.15 -3.75 -4.75 -4.2 Q-5.15 -4.2 -5.8 -3.55 -6.5 -2.85 -6.6 -1.85 M-1.25 3.75 L0.4 5.4 Q1.8 5.55 2.8 4.6 L3.0 4.3 Q3.1 1.5 0.3 1.7 L-0.2 1.8 -0.95 3.1 -1.25 3.75 M-21.9 1.85 L-21.15 0.35 Q-20.55 -1.35 -21.65 -2.1 L-23.9 1.65 -23.65 2.4 -22.65 2.65 -21.9 1.85 M-27.5 4.6 L-27.3 4.85 Q-25.65 6.75 -23.45 8.2 -22.6 8.75 -21.55 9.1 L-23.4 9.45 -24.0 8.85 -24.8 9.1 -29.0 5.85 -28.9 5.25 -28.25 4.55 -27.5 4.6" fill="#990000" fill-rule="evenodd" stroke="none"/>
      <path d="M-16.65 8.05 L-17.35 8.15 Q-19.0 7.05 -19.1 5.05 L-19.1 4.7 -18.85 4.4 -18.45 3.85 -17.7 3.9 Q-16.7 5.2 -16.35 6.7 L-16.65 8.05 M-16.9 -0.7 L-16.7 -0.65 -15.85 -0.05 Q-16.65 1.3 -18.4 2.0 L-19.35 2.35 Q-19.9 2.1 -20.1 1.5 L-20.05 1.2 -18.95 0.75 -17.7 -0.8 -16.9 -0.7 M-9.1 -8.4 L-7.8 -7.0 -7.15 -6.85 -6.55 -6.65 -6.5 -5.5 -7.0 -5.15 Q-9.4 -5.3 -10.3 -7.4 L-10.45 -7.95 -9.1 -8.4 M-5.5 -8.35 L-5.9 -8.4 -6.25 -8.8 Q-6.2 -9.9 -5.55 -10.85 L-5.35 -11.1 -5.1 -11.55 -4.7 -12.15 -4.75 -13.5 -4.3 -13.85 Q-3.35 -13.95 -2.6 -13.3 L-1.95 -12.75 -1.85 -12.05 -4.9 -8.6 -5.5 -8.35 M4.45 -4.4 L3.95 -4.8 3.3 -4.75 3.55 -6.4 2.85 -6.8 2.75 -8.25 1.6 -7.95 0.7 -7.55 0.2 -7.55 -0.2 -5.75 -1.3 -5.4 -2.2 -5.95 Q-2.45 -9.05 0.85 -9.4 3.6 -9.65 5.6 -7.85 L5.65 -7.15 6.4 -6.5 Q7.5 -5.5 7.25 -4.05 L4.45 -4.4 M7.6 0.15 L8.35 -2.95 9.2 -3.35 Q10.25 -0.65 9.85 2.15 L9.65 3.25 9.3 3.0 7.2 3.1 6.9 3.65 7.25 6.9 6.7 7.4 Q5.7 8.4 4.45 8.65 L3.65 8.75 2.7 7.85 -0.5 8.9 -0.5 9.4 -2.45 9.55 -1.9 7.15 -3.35 6.3 -3.7 7.55 -7.85 4.65 -7.85 5.2 -7.1 7.1 -9.0 6.6 -9.05 6.1 -9.4 5.75 -11.35 1.3 -10.0 -1.55 -7.85 -1.7 -7.7 -1.05 -9.1 0.3 -9.2 0.95 -8.75 0.85 -8.3 3.2 -6.0 3.45 -6.8 -0.05 -4.4 1.75 -4.5 2.4 -3.65 2.95 -3.6 3.55 -0.75 6.5 2.1 6.05 2.65 6.7 4.55 5.1 5.95 5.4 6.75 3.3 6.5 2.95 6.5 2.15 7.6 0.15 M3.25 0.05 L2.75 -0.25 2.4 -0.6 2.4 -1.5 3.1 -2.55 3.3 -1.2 7.1 -1.45 7.45 -1.15 Q6.15 0.15 4.15 0.1 L3.25 0.05 M-9.55 -9.65 L-11.3 -9.8 -11.65 -9.85 Q-12.45 -10.2 -12.75 -11.25 -12.65 -12.9 -11.25 -14.0 -10.0 -13.65 -8.95 -12.85 L-8.35 -12.25 Q-8.05 -10.9 -9.0 -10.1 L-9.55 -9.65 M-6.6 -1.85 Q-6.5 -2.85 -5.8 -3.55 -5.15 -4.2 -4.75 -4.2 L-3.15 -3.75 -4.6 -2.45 -5.15 -1.85 -6.1 -1.95 -6.6 -1.85 M-21.9 1.85 L-22.65 2.65 -23.65 2.4 -23.9 1.65 -21.65 -2.1 Q-20.55 -1.35 -21.15 0.35 L-21.9 1.85 M-27.5 4.6 L-27.05 4.4 -25.25 5.45 Q-23.35 6.2 -21.25 6.15 L-21.25 8.6 -21.55 9.1 Q-22.6 8.75 -23.45 8.2 -25.65 6.75 -27.3 4.85 L-27.5 4.6" fill="#ff0000" fill-rule="evenodd" stroke="none"/>
      <path d="M7.7 -1.45 L7.6 0.15 6.5 2.15 Q5.5 2.9 4.35 2.95 L3.9 3.0 Q2.75 2.6 2.7 1.35 L3.25 0.05 4.15 0.1 Q6.15 0.15 7.45 -1.15 L7.7 -1.45 M2.75 -0.25 L2.7 0.25 1.6 0.55 0.6 -0.2 Q-1.15 1.2 -3.45 1.05 L-3.85 0.25 -3.2 -0.1 -2.4 -1.85 -0.9 -2.5 -0.8 -3.1 1.4 -4.35 1.5 -5.15 2.2 -5.15 3.2 -4.4 3.5 -3.25 3.1 -2.55 2.4 -1.5 2.4 -0.6 2.75 -0.25 M-1.25 3.75 L-0.95 3.1 -0.2 1.8 0.3 1.7 Q3.1 1.5 3.0 4.3 L2.8 4.6 Q1.8 5.55 0.4 5.4 L-1.25 3.75" fill="#650101" fill-rule="evenodd" stroke="none"/>
      <path d="M7.25 -4.05 L7.85 -3.6 7.7 -1.45 7.45 -1.15 7.1 -1.45 3.3 -1.2 3.1 -2.55 3.5 -3.25 4.05 -3.6 4.45 -4.4 7.25 -4.05" fill="#ffffff" fill-rule="evenodd" stroke="none"/>
      <path d="M-1.95 -12.75 L-1.45 -13.2 2.2 -13.1 2.5 -12.65 3.25 -12.75 4.7 -12.55 6.1 -12.0 7.15 -12.3 8.25 -11.55 Q9.8 -10.4 10.5 -8.4 L10.0 -8.0 11.2 -6.6 Q12.9 -4.5 15.1 -3.1 13.35 -1.45 13.25 1.05 12.2 9.85 3.75 12.75 L3.45 13.2 2.15 13.2 Q-2.25 13.15 -6.0 11.2 L-6.5 10.85 -5.45 10.4 Q-1.65 12.35 2.55 11.0 6.85 9.65 9.2 6.85 L9.4 6.6 Q12.2 3.05 12.15 -2.75 L11.35 -3.1 Q8.4 -4.5 7.9 -7.8 L8.25 -8.5 7.05 -9.55 Q4.55 -9.2 2.95 -11.4 L2.75 -10.9 -1.75 -9.2 -2.3 -9.35 -2.6 -9.75 Q-4.6 -3.9 -10.25 -3.65 L-10.1 -4.95 -9.4 -5.35 -8.55 -4.55 -7.9 -4.75 -7.0 -5.15 -6.5 -5.5 -6.55 -6.65 -7.15 -6.85 -6.8 -7.3 -5.6 -8.2 -5.5 -8.35 -4.9 -8.6 -1.85 -12.05 -1.95 -12.75 M-7.3 10.95 L-7.8 11.3 -10.5 11.4 Q-14.55 10.95 -16.65 8.05 L-16.35 6.7 Q-16.7 5.2 -17.7 3.9 L-18.45 3.85 -18.5 3.65 -19.55 3.75 Q-20.1 3.7 -20.7 3.25 L-21.95 3.55 -22.2 2.9 -22.25 2.4 -21.2 1.45 -20.35 2.2 -19.35 2.35 -18.4 2.0 Q-16.65 1.3 -15.85 -0.05 L-16.7 -0.65 -16.65 -1.95 -17.7 -2.15 Q-17.9 -4.15 -16.65 -5.65 L-15.8 -4.85 -15.55 -5.3 -12.55 -5.75 -12.1 -6.1 -11.45 -6.0 -10.55 -5.65 -10.55 -4.8 -12.2 -3.15 -13.75 -3.5 -14.25 -3.65 -14.7 -3.8 -15.4 -4.4 -14.7 -3.25 -15.2 -2.3 -13.25 -1.25 -12.3 -0.5 -13.15 1.6 -15.0 1.25 -15.3 1.6 -16.05 3.45 -14.7 7.4 -14.85 8.1 Q-12.65 8.55 -10.5 9.25 L-7.8 10.25 -7.2 10.5 -7.3 10.95 M-22.95 -2.7 L-23.75 -1.85 -25.8 -2.3 -25.5 -2.9 Q-25.0 -3.9 -23.85 -3.95 L-22.95 -3.35 -22.95 -2.7" fill="#993018" fill-rule="evenodd" stroke="none"/>
    </g>
    <g id="sprite2" transform="matrix(1.0, 0.0, 0.0, 1.0, 50.0, 50.0)">
      <use ffdec:characterId="1080" height="100.0" transform="matrix(1.0, 0.0, 0.0, 1.0, -50.0, -50.0)" width="100.0" xlink:href="#shape2"/>
    </g>
    <g id="shape2" transform="matrix(1.0, 0.0, 0.0, 1.0, 50.0, 50.0)">
      <path d="M50.0 50.0 L-50.0 50.0 -50.0 -50.0 50.0 -50.0 50.0 50.0 Z" fill="none" stroke="#9900ff" stroke-linecap="round" stroke-linejoin="round" stroke-width="0.05"/>
    </g>
  </defs>
</svg>
