<?xml version="1.0" encoding="UTF-8" standalone="no"?>
<svg xmlns:ffdec="https://www.free-decompiler.com/flash" xmlns:xlink="http://www.w3.org/1999/xlink" ffdec:objectType="frame" height="100.15px" width="52.95px" xmlns="http://www.w3.org/2000/svg">
  <g transform="matrix(1.0, 0.0, 0.0, 1.0, 25.1, 55.7)">
    <use ffdec:characterId="2065" height="27.3" id="neck" transform="matrix(1.0, 0.0, 0.0, 1.0, -10.8, -50.6)" width="27.3" xlink:href="#sprite0"/>
    <use ffdec:characterId="2069" height="73.8" transform="matrix(1.0, 1.0E-4, -1.0E-4, 1.0, -18.844, -36.8018)" width="38.95" xlink:href="#sprite1"/>
    <use ffdec:characterId="2067" height="27.2" id="wound" transform="matrix(1.0E-4, -1.0, 1.0, 1.0E-4, -14.4027, 11.0987)" width="44.1" xlink:href="#sprite2"/>
    <use ffdec:characterId="1081" height="100.0" id="shape" transform="matrix(0.33, 0.0, 0.0, 0.73, -16.4993, -36.499)" width="100.0" xlink:href="#sprite3"/>
    <use ffdec:characterId="1138" height="0.0" id="spineRef" transform="matrix(1.0, 0.0, 0.0, 1.0, 5.0, -47.75)" width="0.0" xlink:href="#sprite4"/>
  </g>
  <defs>
    <g id="sprite0" transform="matrix(1.0, 0.0, 0.0, 1.0, 15.95, 13.2)">
      <use ffdec:characterId="2064" height="27.3" transform="matrix(1.0, 0.0, 0.0, 1.0, -15.95, -13.2)" width="27.3" xlink:href="#shape0"/>
    </g>
    <g id="shape0" transform="matrix(1.0, 0.0, 0.0, 1.0, 15.95, 13.2)">
      <path d="M1.0 -11.4 L1.5 -11.95 1.95 -12.0 2.5 -11.85 3.05 -9.25 4.0 -8.35 5.0 -7.7 5.1 -7.7 6.25 -7.4 7.95 -6.75 10.5 -4.95 11.3 -4.25 11.35 -3.25 10.95 -2.7 10.75 -1.15 10.15 -0.75 8.75 -0.25 8.35 -0.25 7.35 0.4 6.8 0.05 5.3 1.25 3.75 0.35 4.9 -1.55 4.45 -1.55 2.4 -3.95 1.45 -4.15 0.9 -4.05 -0.65 -4.95 -0.6 -5.0 0.1 -5.45 0.6 -5.3 4.4 -3.5 6.1 -2.7 6.95 -2.2 7.9 -1.9 7.75 -3.15 8.0 -3.45 7.9 -4.1 8.5 -4.6 9.0 -5.1 8.9 -5.4 8.7 -5.7 8.45 -6.0 7.0 -6.45 6.25 -5.75 5.05 -5.9 4.45 -6.7 3.15 -7.65 2.7 -7.9 1.75 -8.35 1.85 -9.7 0.8 -10.25 1.0 -11.4 M-8.35 -4.25 Q-8.05 -6.95 -6.2 -9.05 -6.75 -10.1 -6.3 -11.3 L-5.8 -11.5 -5.05 -11.3 -1.8 -11.15 -1.0 -10.15 -1.75 -9.8 -1.9 -9.3 -2.7 -8.9 -2.55 -7.95 -2.2 -7.7 -2.05 -7.15 -2.45 -6.4 -3.5 -6.0 -3.1 -5.6 -3.2 -4.45 -3.6 -4.3 -4.05 -4.45 -5.25 -6.95 -5.95 -6.5 -5.9 -5.95 Q-5.9 -2.95 -8.35 -4.25 M-0.1 -13.2 L0.35 -13.1 0.95 -11.9 Q0.65 -11.4 0.15 -11.6 L-0.4 -11.75 -0.75 -12.6 -0.1 -13.2 M-0.15 -8.95 L-0.1 -9.0 0.05 -8.85 -0.15 -8.95 M0.25 -8.65 L0.95 -8.2 1.3 -7.15 1.1 -6.5 0.1 -6.05 -0.4 -5.85 -1.2 -6.25 -0.9 -6.45 Q0.1 -7.35 0.25 -8.65 M6.75 4.35 L5.25 3.15 4.2 2.15 4.7 1.7 5.45 1.5 6.55 2.95 6.8 4.05 6.75 4.35 M-3.55 -3.5 L-2.85 -3.95 -1.95 -3.85 -0.95 -2.5 -0.65 -1.4 -1.5 0.05 -2.25 0.05 -3.5 -0.2 -3.8 -0.8 Q-4.35 -2.2 -3.55 -3.5" fill="#ff0000" fill-rule="evenodd" stroke="none"/>
      <path d="M-1.8 -11.15 L-1.8 -12.4 -0.1 -13.2 -0.75 -12.6 -0.4 -11.75 0.15 -11.6 Q0.65 -11.4 0.95 -11.9 L1.0 -11.4 0.8 -10.25 0.6 -10.1 -0.05 -9.8 -1.0 -10.15 -1.8 -11.15 M-2.2 -7.7 Q-2.45 -8.8 -1.45 -9.1 L-0.15 -8.95 0.05 -8.85 0.25 -8.65 Q0.1 -7.35 -0.9 -6.45 L-1.2 -6.25 -1.55 -6.5 -2.05 -7.15 -2.2 -7.7" fill="#ffffff" fill-rule="evenodd" stroke="none"/>
      <path d="M8.75 -0.25 L9.1 0.75 8.55 1.5 8.2 2.2 7.15 2.85 6.55 2.95 5.45 1.5 4.7 1.7 4.2 2.15 5.25 3.15 6.75 4.35 6.85 5.3 6.5 5.85 4.9 6.05 Q4.3 4.4 2.85 3.2 L3.05 0.35 2.7 -0.35 1.8 -1.9 0.35 -1.7 0.35 -1.2 0.05 0.55 -1.1 1.25 -1.9 1.1 -3.5 -0.2 -2.25 0.05 -1.5 0.05 -0.65 -1.4 -0.95 -2.5 -1.95 -3.85 -2.85 -3.95 -3.55 -3.5 -3.6 -4.3 -3.2 -4.45 -3.1 -5.6 -3.5 -6.0 -2.45 -6.4 -2.05 -7.15 -1.55 -6.5 -1.2 -6.25 -0.4 -5.85 0.1 -6.05 0.6 -5.3 0.1 -5.45 -0.6 -5.0 -0.65 -4.95 0.9 -4.05 1.45 -4.15 2.4 -3.95 4.45 -1.55 4.9 -1.55 3.75 0.35 5.3 1.25 6.8 0.05 7.35 0.4 8.35 -0.25 8.75 -0.25 M0.8 -10.25 L1.85 -9.7 1.75 -8.35 2.7 -7.9 3.15 -7.65 4.45 -6.7 5.05 -5.9 6.25 -5.75 7.0 -6.45 8.45 -6.0 8.7 -5.7 8.9 -5.4 9.0 -5.1 8.5 -4.6 7.9 -4.1 8.0 -3.45 7.75 -3.15 7.9 -1.9 6.95 -2.2 6.1 -2.7 4.4 -3.5 4.65 -3.95 Q4.05 -5.6 2.5 -6.95 L1.3 -7.15 0.95 -8.2 0.25 -8.65 0.05 -8.85 -0.1 -9.0 -0.15 -8.95 -1.45 -9.1 Q-2.45 -8.8 -2.2 -7.7 L-2.55 -7.95 -2.7 -8.9 -1.9 -9.3 -1.75 -9.8 -1.0 -10.15 -0.05 -9.8 0.6 -10.1 0.8 -10.25" fill="#990000" fill-rule="evenodd" stroke="none"/>
      <path d="M4.4 -3.5 L0.6 -5.3 0.1 -6.05 1.1 -6.5 1.3 -7.15 2.5 -6.95 Q4.05 -5.6 4.65 -3.95 L4.4 -3.5" fill="#650101" fill-rule="evenodd" stroke="none"/>
      <path d="M8.2 2.2 L7.25 4.4 7.25 7.1 7.4 7.65 7.1 7.15 6.5 5.85 6.85 5.3 6.75 4.35 6.8 4.05 6.55 2.95 7.15 2.85 8.2 2.2 M4.8 8.6 Q1.35 6.9 -0.05 6.6 L-0.5 6.5 Q-0.3 4.3 -1.9 1.1 L-1.1 1.25 1.65 4.0 3.15 5.85 4.8 8.6 M0.35 -1.2 L0.35 -1.7 1.8 -1.9 2.7 -0.35 0.35 -1.2" fill="#e2b181" fill-rule="evenodd" stroke="none"/>
      <path d="M7.25 4.4 L8.2 6.45 8.25 6.55 10.3 13.15 7.7 10.55 Q7.05 10.0 4.8 8.6 L3.15 5.85 1.65 4.0 -1.1 1.25 0.05 0.55 0.35 -1.2 2.7 -0.35 3.05 0.35 2.85 3.2 Q4.3 4.4 4.9 6.05 L6.5 5.85 7.1 7.15 7.4 7.65 7.25 7.1 7.25 4.4 M-0.5 6.5 L-3.65 6.0 Q-6.2 5.8 -8.65 5.95 L-11.0 6.05 -11.35 6.3 -10.8 2.8 -9.85 -0.5 -8.45 -4.05 -8.35 -4.25 Q-5.9 -2.95 -5.9 -5.95 L-5.95 -6.5 -5.25 -6.95 -4.05 -4.45 -3.6 -4.3 -3.55 -3.5 Q-4.35 -2.2 -3.8 -0.8 L-3.5 -0.2 -1.9 1.1 Q-0.3 4.3 -0.5 6.5" fill="#ffcc99" fill-rule="evenodd" stroke="none"/>
      <path d="M-11.95 9.75 Q-13.05 9.8 -15.95 10.9 -13.7 1.95 -12.15 -2.55 -8.35 -3.55 7.8 2.85 9.25 3.85 10.3 5.15 L11.3 14.1 Q9.25 12.1 5.7 11.3 L2.5 10.5 -11.95 9.75" fill="#fd8181" fill-rule="evenodd" stroke="none"/>
    </g>
    <g id="sprite1" transform="matrix(1.0, 0.0, 0.0, 1.0, 19.5, 65.25)">
      <use ffdec:characterId="2068" height="73.8" transform="matrix(1.0, 0.0, 0.0, 1.0, -19.5, -65.25)" width="38.95" xlink:href="#shape1"/>
    </g>
    <g id="shape1" transform="matrix(1.0, 0.0, 0.0, 1.0, 19.5, 65.25)">
      <path d="M13.95 -30.3 L13.9 -32.3 Q11.05 -24.85 10.75 -42.15 L10.75 -42.25 Q10.75 -45.7 9.2 -49.45 L6.5 -55.35 6.5 -55.75 8.45 -54.15 10.5 -52.0 Q7.65 -62.25 -2.6 -62.25 -6.2 -62.25 -9.25 -60.1 -11.65 -58.35 -14.25 -54.75 -17.55 -48.15 -19.05 -44.4 L-19.05 -44.75 Q-19.05 -49.0 -14.9 -56.2 -12.75 -60.0 -10.4 -62.15 L-9.7 -62.8 -9.7 -62.85 Q-8.8 -63.5 -7.1 -64.35 -5.45 -65.25 -0.6 -65.25 4.2 -65.25 8.5 -61.2 11.65 -58.25 13.5 -55.0 L13.4 -54.9 13.6 -54.5 Q17.2 -48.35 17.15 -43.95 L17.1 -42.0 Q17.05 -40.3 17.35 -38.75 L19.45 -33.75 18.55 -32.9 18.5 -32.3 Q17.55 -33.8 15.9 -33.8 L15.35 -33.75 15.1 -31.45 14.4 -30.8 13.95 -30.3" fill="#bf8040" fill-rule="evenodd" stroke="none"/>
      <path d="M-19.05 -44.4 Q-17.55 -48.15 -14.25 -54.75 -11.65 -58.35 -9.25 -60.1 -6.2 -62.25 -2.6 -62.25 7.65 -62.25 10.5 -52.0 L8.45 -54.15 6.5 -55.75 6.5 -55.35 9.2 -49.45 Q10.75 -45.7 10.75 -42.25 L10.75 -42.15 Q11.05 -24.85 13.9 -32.3 L13.95 -30.3 13.65 -29.8 13.7 -29.5 12.75 -29.0 11.0 -28.6 9.8 -29.75 9.45 -31.35 9.15 -32.0 8.75 -32.7 7.25 -34.1 6.9 -33.65 6.95 -38.55 Q6.85 -43.3 5.75 -46.25 L1.15 -44.5 Q-1.8 -43.5 -3.35 -43.5 -6.9 -43.5 -9.55 -46.2 -12.45 -49.1 -11.75 -53.0 L-13.9 -48.75 Q-15.4 -45.5 -15.7 -38.95 -15.9 -34.25 -15.65 -30.2 L-15.7 -30.1 -15.65 -28.95 -15.55 -28.55 -15.4 -27.25 Q-15.1 -24.4 -14.4 -21.2 L-14.55 -20.3 -14.2 -20.15 -14.15 -20.1 -13.0 -15.75 -11.55 -18.9 -11.2 -19.65 -10.65 -19.4 -10.35 -19.25 -10.85 -15.3 -12.3 -15.75 -13.85 -15.4 -13.9 -15.4 -13.85 -15.4 Q-14.65 -16.75 -15.9 -17.75 L-16.45 -17.05 -16.9 -16.5 -17.0 -15.75 -17.75 -15.4 -17.95 -15.7 -18.4 -17.4 Q-18.7 -18.85 -19.5 -19.55 L-18.2 -22.0 Q-17.6 -23.1 -17.5 -24.0 L-18.05 -30.5 -19.05 -44.4 M13.0 -16.55 L13.35 -17.95 13.15 -16.45 13.0 -16.55" fill="#996633" fill-rule="evenodd" stroke="none"/>
      <path d="M-10.85 -15.3 L-10.35 -19.25 -8.75 -19.0 -8.5 -19.0 -8.35 -19.2 -8.1 -19.35 -7.75 -19.4 -7.3 -19.35 -6.95 -19.2 -5.15 -20.15 -4.1 -19.65 -3.4 -17.85 -4.2 -16.55 -4.6 -15.7 -7.65 -15.25 -7.3 -11.85 -7.9 -11.1 -9.25 -11.05 -9.25 -11.5 Q-9.35 -12.55 -10.0 -13.75 L-10.4 -14.4 -10.45 -15.2 -10.85 -15.3 M-11.2 -19.65 L-11.55 -18.9 -13.0 -15.75 -14.15 -20.1 -13.2 -19.75 -11.6 -20.0 -11.2 -19.65 M-14.4 -21.2 Q-15.1 -24.4 -15.4 -27.25 L-15.55 -28.55 -14.65 -27.25 -13.0 -26.75 -14.0 -23.6 -14.4 -21.2 M-15.65 -30.2 Q-15.9 -34.25 -15.7 -38.95 -15.4 -45.5 -13.9 -48.75 L-11.75 -53.0 Q-12.45 -49.1 -9.55 -46.2 -6.9 -43.5 -3.35 -43.5 -1.8 -43.5 1.15 -44.5 L5.75 -46.25 Q6.85 -43.3 6.95 -38.55 L6.9 -33.65 Q4.6 -30.8 2.9 -27.65 L3.2 -26.65 Q3.65 -25.35 4.4 -24.05 L3.15 -22.4 1.85 -24.55 Q0.9 -26.05 -0.5 -26.75 L-1.35 -26.65 -2.75 -28.15 Q-4.6 -30.0 -7.05 -30.4 L-9.5 -29.95 -10.4 -30.4 -11.0 -31.25 -10.3 -31.3 -9.85 -32.35 -10.15 -33.75 Q-10.9 -35.15 -11.85 -34.05 -12.95 -32.35 -11.8 -31.55 L-14.95 -31.35 -15.45 -30.9 -15.65 -30.2" fill="#86592d" fill-rule="evenodd" stroke="none"/>
      <path d="M-10.35 -19.25 L-10.65 -19.4 -11.2 -19.65 -11.6 -20.0 -12.25 -21.15 -9.2 -21.4 -9.0 -23.4 -6.6 -25.15 -6.2 -27.2 -5.5 -27.05 -4.65 -24.5 -3.9 -24.75 -6.2 -22.8 -5.95 -22.05 Q-3.6 -21.0 -1.25 -21.35 L-0.65 -23.0 Q0.6 -21.5 1.05 -19.6 L1.25 -18.6 5.65 -17.85 6.05 -18.0 Q6.8 -18.35 7.25 -19.1 L7.1 -18.35 8.1 -17.2 8.15 -17.2 8.75 -16.7 9.5 -16.15 Q10.9 -15.15 12.0 -14.7 L10.4 -13.0 8.8 -13.55 8.4 -13.7 7.05 -14.3 6.2 -14.65 6.7 -15.25 5.75 -15.6 Q3.3 -16.5 1.0 -17.7 L0.4 -17.95 -0.55 -17.9 -1.0 -17.75 -1.25 -17.5 -1.4 -15.3 Q0.65 -12.95 4.15 -12.4 L5.3 -12.4 6.0 -12.4 6.05 -12.4 7.85 -11.45 5.35 -8.75 1.9 -9.85 0.8 -10.5 1.55 -10.5 0.3 -12.15 -0.75 -12.25 -2.5 -14.0 -3.1 -14.1 -4.35 -13.1 -4.35 -11.45 -4.95 -11.8 -5.35 -11.0 Q-5.5 -13.55 -4.6 -15.7 L-4.2 -16.55 -3.4 -17.85 -4.1 -19.65 -5.15 -20.15 -6.95 -19.2 -7.3 -19.35 -7.75 -19.4 -8.1 -19.35 -8.35 -19.2 -8.5 -19.0 -8.75 -19.0 -10.35 -19.25 M-15.55 -28.55 L-15.65 -28.95 -15.55 -28.95 -13.95 -28.75 -13.2 -29.6 -10.5 -29.6 -10.4 -30.4 -9.5 -29.95 -9.0 -29.4 Q-10.1 -26.5 -13.0 -26.75 L-14.65 -27.25 -15.55 -28.55 M9.8 -29.75 L11.0 -28.6 12.75 -29.0 13.7 -29.5 13.75 -29.4 14.25 -29.5 15.1 -30.1 16.0 -30.7 17.0 -30.25 16.55 -28.5 15.95 -26.4 15.9 -26.2 14.6 -22.0 14.1 -20.55 Q13.65 -19.25 13.35 -17.95 L13.0 -16.55 12.05 -17.25 12.35 -20.75 12.75 -21.3 12.7 -21.9 12.25 -22.45 12.1 -25.0 10.05 -25.2 Q9.9 -24.2 9.9 -23.2 9.85 -22.2 9.95 -21.2 L10.85 -21.25 9.5 -19.35 7.85 -19.65 Q6.3 -23.75 7.3 -27.7 L7.95 -29.85 9.8 -29.75 M11.35 -26.0 L12.0 -25.8 12.85 -25.95 Q13.3 -26.1 13.65 -26.35 L13.9 -26.55 Q14.45 -27.05 14.8 -27.7 L13.95 -27.8 13.55 -27.8 Q12.35 -27.8 11.3 -27.1 L11.15 -26.5 11.35 -26.0 M2.65 -6.7 L0.8 -6.6 0.4 -6.2 0.2 -5.4 -0.05 -4.6 -0.1 -3.6 Q-0.25 -2.5 -0.95 -1.65 L-1.6 -1.9 -2.15 -2.0 -3.6 -0.2 -3.4 0.15 -3.15 1.7 -7.15 3.3 -7.65 2.85 -8.65 3.3 -9.55 2.95 -7.9 2.8 -7.7 1.8 -7.4 0.95 -3.9 0.8 -3.9 0.05 -6.9 -0.35 -7.5 -1.8 -4.75 -1.65 -4.0 -2.35 -3.5 -1.9 -3.8 -3.45 Q-2.75 -3.75 -1.8 -4.7 L-0.35 -6.6 0.5 -7.95 2.65 -6.7 M-11.2 -0.3 L-11.65 -2.1 -12.3 -3.1 -11.6 -2.9 -10.8 -3.4 -10.2 -3.8 -10.2 -5.85 -11.2 -6.7 -14.2 -6.0 -15.05 -6.65 Q-15.7 -7.05 -15.75 -7.75 L-15.75 -7.9 -15.6 -7.4 -15.25 -7.15 -13.95 -7.55 Q-13.4 -7.75 -12.9 -8.2 L-12.8 -9.5 -13.6 -9.75 -14.05 -9.35 -14.35 -10.1 -15.25 -12.6 -14.3 -12.75 -13.85 -11.7 -13.3 -11.75 -13.0 -13.25 -10.4 -14.4 -10.0 -13.75 Q-9.35 -12.55 -9.25 -11.5 L-9.25 -11.05 Q-9.25 -9.85 -10.15 -8.85 L-10.9 -8.1 Q-8.65 -7.1 -6.55 -8.35 L-5.4 -10.6 -4.25 -8.6 -3.85 -9.0 -3.7 -9.75 -1.75 -8.6 -4.4 -5.25 -4.4 -4.2 -5.0 -4.3 -5.7 -3.75 -6.8 -2.55 -8.75 -2.4 -9.6 -2.0 -10.6 -2.45 -11.35 -2.45 -11.25 -1.1 -10.8 -0.65 -11.2 -0.3 M-6.65 -6.3 L-7.6 -6.6 -8.75 -5.75 -9.25 -5.8 -9.35 -5.6 -9.05 -4.3 -7.75 -3.8 -6.7 -4.75 -6.65 -6.3" fill="#990000" fill-rule="evenodd" stroke="none"/>
      <path d="M-13.9 -15.4 L-13.85 -15.4 -12.3 -15.75 -10.85 -15.3 -10.45 -15.2 -10.4 -14.4 -13.0 -13.25 -13.3 -11.75 -13.85 -11.7 -14.3 -12.75 -15.25 -12.6 -15.95 -14.1 -15.8 -14.2 -15.6 -14.4 Q-14.85 -15.1 -13.9 -15.4 M-15.65 -28.95 L-15.7 -30.1 -15.65 -30.2 -15.45 -30.9 -14.95 -31.35 -11.8 -31.55 -11.0 -31.25 -10.4 -30.4 -10.5 -29.6 -13.2 -29.6 -13.95 -28.75 -15.55 -28.95 -15.65 -28.95 M7.85 -19.65 L9.5 -19.35 10.85 -21.25 9.95 -21.2 Q9.85 -22.2 9.9 -23.2 9.9 -24.2 10.05 -25.2 L12.1 -25.0 12.25 -22.45 12.7 -21.9 12.75 -21.3 12.35 -20.75 12.05 -17.25 8.9 -17.8 Q8.4 -17.7 8.25 -17.45 L8.2 -17.4 8.1 -17.2 7.1 -18.35 7.25 -19.1 7.85 -19.65 M11.35 -26.0 L11.15 -26.5 11.3 -27.1 Q12.35 -27.8 13.55 -27.8 L13.95 -27.8 14.8 -27.7 Q14.45 -27.05 13.9 -26.55 L13.65 -26.35 Q13.3 -26.1 12.85 -25.95 L12.0 -25.8 11.35 -26.0 M7.4 -7.25 L7.75 -6.5 7.4 -5.6 6.4 -5.6 3.95 -6.15 Q3.25 -6.35 2.65 -6.7 L0.5 -7.95 -0.35 -6.6 -1.8 -4.7 Q-2.75 -3.75 -3.8 -3.45 L-3.5 -1.9 -4.0 -2.35 -4.75 -1.65 -7.5 -1.8 -6.9 -0.35 -3.9 0.05 -3.9 0.8 -7.4 0.95 -7.7 1.8 -8.45 0.55 -8.25 0.0 -8.5 -0.8 -9.75 -1.4 -10.8 -0.65 -11.25 -1.1 -11.35 -2.45 -10.6 -2.45 -9.6 -2.0 -8.75 -2.4 -6.8 -2.55 -5.7 -3.75 -5.0 -4.3 -4.4 -4.2 -4.4 -5.25 -1.75 -8.6 -3.7 -9.75 -3.85 -9.0 -4.25 -8.6 -5.4 -10.6 -5.35 -11.0 -4.95 -11.8 -4.35 -11.45 -4.35 -13.1 -3.1 -14.1 -2.5 -14.0 -0.75 -12.25 0.3 -12.15 1.55 -10.5 0.8 -10.5 -2.1 -12.65 Q-1.45 -11.5 -2.05 -10.5 L-1.5 -9.8 -0.75 -9.25 Q1.7 -8.7 3.95 -7.8 L5.8 -6.95 6.15 -7.4 7.4 -7.25 M-3.15 1.7 Q-2.05 2.35 -1.9 3.55 L-2.15 3.95 -2.6 3.95 -3.4 3.2 Q-7.9 4.75 -10.3 7.65 L-10.7 6.4 -8.65 3.3 -7.65 2.85 -7.15 3.3 -3.15 1.7 M-4.4 7.7 L-4.55 8.35 -4.55 8.4 -5.5 8.55 -6.7 7.8 -7.05 6.85 -6.55 5.8 -4.95 6.05 -4.4 7.7 M-13.4 3.1 L-13.8 2.85 -13.95 1.55 -13.45 1.0 -13.15 0.7 Q-12.45 0.1 -11.4 -0.1 L-10.35 0.55 Q-10.75 2.35 -12.5 2.85 L-13.4 3.1 M-14.4 -5.55 L-14.2 -6.0 -11.2 -6.7 -10.2 -5.85 -10.2 -3.8 -10.8 -3.4 -11.0 -4.8 Q-11.75 -5.4 -12.5 -5.45 L-12.65 -5.45 -13.85 -5.15 -14.4 -5.55 M-15.75 -7.9 Q-15.6 -8.95 -14.6 -9.2 L-14.05 -9.35 -13.6 -9.75 -12.8 -9.5 -12.9 -8.2 Q-13.4 -7.75 -13.95 -7.55 L-15.25 -7.15 -15.6 -7.4 -15.75 -7.9 M-0.65 -23.0 L-1.25 -21.35 Q-3.6 -21.0 -5.95 -22.05 L-6.2 -22.8 -3.9 -24.75 -3.2 -24.8 Q-1.6 -24.45 -0.65 -23.0 M-6.2 -27.2 L-6.6 -25.15 -9.0 -23.4 -9.2 -21.4 -12.25 -21.15 -12.25 -22.2 Q-11.05 -26.05 -7.5 -28.15 L-6.6 -27.9 -6.2 -27.2 M6.05 -12.4 L6.0 -12.4 5.3 -12.4 4.15 -12.4 Q0.65 -12.95 -1.4 -15.3 L-1.25 -17.5 -1.0 -17.75 -0.55 -17.9 0.4 -17.95 1.0 -17.7 Q3.3 -16.5 5.75 -15.6 L6.7 -15.25 6.2 -14.65 5.1 -14.2 0.45 -16.45 6.0 -12.45 6.05 -12.4 M-6.65 -6.3 L-6.7 -4.75 -7.75 -3.8 -9.05 -4.3 -9.35 -5.6 -9.25 -5.8 -8.75 -5.75 -7.6 -6.6 -6.65 -6.3" fill="#ff0000" fill-rule="evenodd" stroke="none"/>
      <path d="M12.05 -17.25 L13.0 -16.55 13.15 -16.45 14.95 -15.25 15.25 -15.1 15.35 -15.05 15.2 -14.25 15.3 -13.75 14.85 -13.7 12.95 -14.35 12.0 -14.7 Q10.9 -15.15 9.5 -16.15 L8.75 -16.7 8.15 -17.2 8.1 -17.2 8.2 -17.4 8.25 -17.45 Q8.4 -17.7 8.9 -17.8 L12.05 -17.25 M10.4 -13.0 L12.65 -11.3 Q12.0 -10.2 10.1 -10.7 L8.15 -11.3 Q7.95 -11.4 7.85 -11.45 L6.05 -12.4 6.0 -12.45 0.45 -16.45 5.1 -14.2 6.2 -14.65 7.05 -14.3 8.4 -13.7 8.8 -13.55 10.4 -13.0 M5.35 -8.75 L5.45 -8.75 6.85 -8.2 7.25 -7.9 7.4 -7.25 6.15 -7.4 5.8 -6.95 3.95 -7.8 Q1.7 -8.7 -0.75 -9.25 L-1.5 -9.8 -2.05 -10.5 Q-1.45 -11.5 -2.1 -12.65 L0.8 -10.5 1.9 -9.85 5.35 -8.75 M-2.15 3.95 L-2.6 5.9 -3.5 6.25 -4.4 7.7 -4.95 6.05 -6.55 5.8 -7.05 6.85 -8.05 7.55 -9.1 8.1 -10.3 7.65 Q-7.9 4.75 -3.4 3.2 L-2.6 3.95 -2.15 3.95 M-9.55 2.95 Q-10.55 3.8 -12.1 3.8 L-12.9 3.7 -13.4 3.1 -12.5 2.85 Q-10.75 2.35 -10.35 0.55 L-11.4 -0.1 -11.2 -0.3 -10.8 -0.65 -9.75 -1.4 -8.5 -0.8 -8.25 0.0 -8.45 0.55 -7.7 1.8 -7.9 2.8 -9.55 2.95 M-12.3 -3.1 L-14.15 -1.9 -15.0 -2.1 -15.75 -3.15 -14.4 -5.55 -13.85 -5.15 -12.65 -5.45 -12.5 -5.45 Q-11.75 -5.4 -11.0 -4.8 L-10.8 -3.4 -11.6 -2.9 -12.3 -3.1" fill="#ffffff" fill-rule="evenodd" stroke="none"/>
      <path d="M13.95 -30.3 L14.4 -30.8 15.1 -31.45 15.35 -33.75 15.9 -33.8 Q17.55 -33.8 18.5 -32.3 L19.1 -31.25 18.55 -29.8 17.0 -30.25 16.0 -30.7 15.1 -30.1 14.25 -29.5 13.75 -29.4 13.7 -29.5 13.65 -29.8 13.95 -30.3 M-17.95 -15.7 L-17.75 -15.4 -17.0 -15.75 -16.9 -16.5 -16.45 -17.05 -15.9 -17.75 Q-14.65 -16.75 -13.85 -15.4 L-13.9 -15.4 Q-14.85 -15.1 -15.6 -14.4 L-15.8 -14.2 -15.95 -14.1 -16.7 -13.6 -18.4 -12.25 -19.25 -11.35 Q-18.5 -13.4 -18.4 -15.45 L-17.95 -15.7 M-14.15 -20.1 L-14.2 -20.15 -14.55 -20.3 -14.4 -21.2 -14.0 -23.6 -13.0 -26.75 Q-10.1 -26.5 -9.0 -29.4 L-9.5 -29.95 -7.05 -30.4 Q-4.6 -30.0 -2.75 -28.15 L-1.35 -26.65 -0.5 -26.75 Q0.9 -26.05 1.85 -24.55 L3.15 -22.4 4.4 -24.05 Q3.65 -25.35 3.2 -26.65 L2.9 -27.65 Q4.6 -30.8 6.9 -33.65 L7.25 -34.1 8.75 -32.7 9.15 -32.0 9.45 -31.35 9.8 -29.75 7.95 -29.85 7.3 -27.7 Q6.3 -23.75 7.85 -19.65 L7.25 -19.1 Q6.8 -18.35 6.05 -18.0 L5.65 -17.85 1.25 -18.6 1.05 -19.6 Q0.6 -21.5 -0.65 -23.0 -1.6 -24.45 -3.2 -24.8 L-3.9 -24.75 -4.65 -24.5 -5.5 -27.05 -6.2 -27.2 -6.6 -27.9 -7.5 -28.15 Q-11.05 -26.05 -12.25 -22.2 L-12.25 -21.15 -11.6 -20.0 -13.2 -19.75 -14.15 -20.1 M-5.35 -11.0 L-5.4 -10.6 -6.55 -8.35 Q-8.65 -7.1 -10.9 -8.1 L-10.15 -8.85 Q-9.25 -9.85 -9.25 -11.05 L-7.9 -11.1 -7.3 -11.85 -7.65 -15.25 -4.6 -15.7 Q-5.5 -13.55 -5.35 -11.0 M-11.8 -31.55 Q-12.95 -32.35 -11.85 -34.05 -10.9 -35.15 -10.15 -33.75 L-9.85 -32.35 -10.3 -31.3 -11.0 -31.25 -11.8 -31.55" fill="#993018" fill-rule="evenodd" stroke="none"/>
    </g>
    <g id="sprite2" transform="matrix(1.0, 0.0, 0.0, 1.0, 29.0, 14.0)">
      <use ffdec:characterId="2066" height="27.2" transform="matrix(1.0, 0.0, 0.0, 1.0, -29.0, -14.0)" width="44.1" xlink:href="#shape2"/>
    </g>
    <g id="shape2" transform="matrix(1.0, 0.0, 0.0, 1.0, 29.0, 14.0)">
      <path d="M-6.0 11.2 L-7.3 10.95 -7.2 10.5 -7.8 10.25 -10.5 9.25 Q-12.65 8.55 -14.85 8.1 L-14.7 7.4 -16.05 3.45 -15.3 1.6 -15.0 1.25 -13.15 1.6 -12.3 -0.5 -13.25 -1.25 -15.2 -2.3 -14.7 -3.25 -15.4 -4.4 -14.7 -3.8 -14.25 -3.65 -13.75 -3.5 -12.2 -3.15 -10.55 -4.8 -10.1 -4.95 -10.25 -3.65 Q-4.6 -3.9 -2.6 -9.75 L-2.3 -9.35 -1.75 -9.2 2.75 -10.9 2.95 -11.4 Q4.55 -9.2 7.05 -9.55 L8.25 -8.5 7.9 -7.8 Q8.4 -4.5 11.35 -3.1 L12.15 -2.75 Q12.2 3.05 9.4 6.6 L9.2 6.85 Q6.85 9.65 2.55 11.0 -1.65 12.35 -5.45 10.4 L-6.5 10.85 -6.0 11.2 M-17.35 8.15 L-18.6 8.3 Q-20.4 6.85 -19.5 4.5 L-19.25 4.15 -18.45 3.85 -18.85 4.4 -19.1 4.7 -19.1 5.05 Q-19.0 7.05 -17.35 8.15 M-22.25 2.4 L-22.65 2.65 -23.4 3.1 -25.1 1.75 Q-24.7 -1.6 -21.7 -2.6 L-21.25 -2.5 -20.75 -0.65 -17.65 -1.1 -16.9 -0.7 -17.7 -0.8 -18.95 0.75 -20.05 1.2 -20.1 1.5 Q-19.9 2.1 -19.35 2.35 L-20.35 2.2 -21.2 1.45 -22.25 2.4 M-9.4 -5.35 L-10.95 -6.7 -11.2 -6.95 -11.3 -7.15 -10.9 -8.25 -9.6 -8.6 -9.1 -8.4 -10.45 -7.95 -10.3 -7.4 Q-9.4 -5.3 -7.0 -5.15 L-7.9 -4.75 -8.55 -4.55 -9.4 -5.35 M-5.9 -8.4 Q-6.85 -8.55 -7.25 -9.25 L-7.4 -9.8 -6.85 -10.2 -6.0 -10.45 -5.55 -10.85 Q-6.2 -9.9 -6.25 -8.8 L-5.9 -8.4 M-5.1 -11.55 L-5.45 -12.5 -5.2 -13.4 -4.3 -13.85 -4.75 -13.5 -4.7 -12.15 -5.1 -11.55 M7.25 -4.05 Q7.5 -5.5 6.4 -6.5 L5.65 -7.15 5.6 -7.85 Q3.6 -9.65 0.85 -9.4 -2.45 -9.05 -2.2 -5.95 L-1.3 -5.4 -0.2 -5.75 0.2 -7.55 0.7 -7.55 1.6 -7.95 2.75 -8.25 2.85 -6.8 3.55 -6.4 3.3 -4.75 3.95 -4.8 4.45 -4.4 4.05 -3.6 3.5 -3.25 3.2 -4.4 2.2 -5.15 1.5 -5.15 1.4 -4.35 -0.8 -3.1 -0.9 -2.5 -2.4 -1.85 -3.2 -0.1 -3.85 0.25 -3.45 1.05 Q-1.15 1.2 0.6 -0.2 L1.6 0.55 2.7 0.25 2.75 -0.25 3.25 0.05 2.7 1.35 Q2.75 2.6 3.9 3.0 L4.35 2.95 Q5.5 2.9 6.5 2.15 L6.5 2.95 6.75 3.3 5.95 5.4 4.55 5.1 2.65 6.7 2.1 6.05 -0.75 6.5 -3.6 3.55 -3.65 2.95 -4.5 2.4 -4.4 1.75 -6.8 -0.05 -6.0 3.45 -8.3 3.2 -8.75 0.85 -9.2 0.95 -9.1 0.3 -7.7 -1.05 -7.85 -1.7 -10.0 -1.55 -11.35 1.3 -9.4 5.75 -9.05 6.1 -9.0 6.6 -7.1 7.1 -7.85 5.2 -7.85 4.65 -3.7 7.55 -3.35 6.3 -1.9 7.15 -2.45 9.55 -0.5 9.4 -0.5 8.9 2.7 7.85 3.65 8.75 4.45 8.65 Q5.7 8.4 6.7 7.4 L7.25 6.9 6.9 3.65 7.2 3.1 9.3 3.0 9.65 3.25 9.85 2.15 Q10.25 -0.65 9.2 -3.35 L8.35 -2.95 7.6 0.15 7.7 -1.45 7.85 -3.6 7.25 -4.05 M-9.55 -9.65 Q-11.75 -8.75 -13.1 -10.35 -13.55 -10.9 -13.4 -11.65 -13.2 -13.75 -11.25 -14.0 -12.65 -12.9 -12.75 -11.25 -12.45 -10.2 -11.65 -9.85 L-11.3 -9.8 -9.55 -9.65 M-6.6 -1.85 L-6.1 -1.95 -5.15 -1.85 -4.6 -2.45 -3.15 -3.75 -4.75 -4.2 Q-5.15 -4.2 -5.8 -3.55 -6.5 -2.85 -6.6 -1.85 M-1.25 3.75 L0.4 5.4 Q1.8 5.55 2.8 4.6 L3.0 4.3 Q3.1 1.5 0.3 1.7 L-0.2 1.8 -0.95 3.1 -1.25 3.75 M-21.9 1.85 L-21.15 0.35 Q-20.55 -1.35 -21.65 -2.1 L-23.9 1.65 -23.65 2.4 -22.65 2.65 -21.9 1.85 M-27.5 4.6 L-27.3 4.85 Q-25.65 6.75 -23.45 8.2 -22.6 8.75 -21.55 9.1 L-23.4 9.45 -24.0 8.85 -24.8 9.1 -29.0 5.85 -28.9 5.25 -28.25 4.55 -27.5 4.6" fill="#990000" fill-rule="evenodd" stroke="none"/>
      <path d="M-16.65 8.05 L-17.35 8.15 Q-19.0 7.05 -19.1 5.05 L-19.1 4.7 -18.85 4.4 -18.45 3.85 -17.7 3.9 Q-16.7 5.2 -16.35 6.7 L-16.65 8.05 M-16.9 -0.7 L-16.7 -0.65 -15.85 -0.05 Q-16.65 1.3 -18.4 2.0 L-19.35 2.35 Q-19.9 2.1 -20.1 1.5 L-20.05 1.2 -18.95 0.75 -17.7 -0.8 -16.9 -0.7 M-9.1 -8.4 L-7.8 -7.0 -7.15 -6.85 -6.55 -6.65 -6.5 -5.5 -7.0 -5.15 Q-9.4 -5.3 -10.3 -7.4 L-10.45 -7.95 -9.1 -8.4 M-5.5 -8.35 L-5.9 -8.4 -6.25 -8.8 Q-6.2 -9.9 -5.55 -10.85 L-5.35 -11.1 -5.1 -11.55 -4.7 -12.15 -4.75 -13.5 -4.3 -13.85 Q-3.35 -13.95 -2.6 -13.3 L-1.95 -12.75 -1.85 -12.05 -4.9 -8.6 -5.5 -8.35 M4.45 -4.4 L3.95 -4.8 3.3 -4.75 3.55 -6.4 2.85 -6.8 2.75 -8.25 1.6 -7.95 0.7 -7.55 0.2 -7.55 -0.2 -5.75 -1.3 -5.4 -2.2 -5.95 Q-2.45 -9.05 0.85 -9.4 3.6 -9.65 5.6 -7.85 L5.65 -7.15 6.4 -6.5 Q7.5 -5.5 7.25 -4.05 L4.45 -4.4 M7.6 0.15 L8.35 -2.95 9.2 -3.35 Q10.25 -0.65 9.85 2.15 L9.65 3.25 9.3 3.0 7.2 3.1 6.9 3.65 7.25 6.9 6.7 7.4 Q5.7 8.4 4.45 8.65 L3.65 8.75 2.7 7.85 -0.5 8.9 -0.5 9.4 -2.45 9.55 -1.9 7.15 -3.35 6.3 -3.7 7.55 -7.85 4.65 -7.85 5.2 -7.1 7.1 -9.0 6.6 -9.05 6.1 -9.4 5.75 -11.35 1.3 -10.0 -1.55 -7.85 -1.7 -7.7 -1.05 -9.1 0.3 -9.2 0.95 -8.75 0.85 -8.3 3.2 -6.0 3.45 -6.8 -0.05 -4.4 1.75 -4.5 2.4 -3.65 2.95 -3.6 3.55 -0.75 6.5 2.1 6.05 2.65 6.7 4.55 5.1 5.95 5.4 6.75 3.3 6.5 2.95 6.5 2.15 7.6 0.15 M3.25 0.05 L2.75 -0.25 2.4 -0.6 2.4 -1.5 3.1 -2.55 3.3 -1.2 7.1 -1.45 7.45 -1.15 Q6.15 0.15 4.15 0.1 L3.25 0.05 M-9.55 -9.65 L-11.3 -9.8 -11.65 -9.85 Q-12.45 -10.2 -12.75 -11.25 -12.65 -12.9 -11.25 -14.0 -10.0 -13.65 -8.95 -12.85 L-8.35 -12.25 Q-8.05 -10.9 -9.0 -10.1 L-9.55 -9.65 M-6.6 -1.85 Q-6.5 -2.85 -5.8 -3.55 -5.15 -4.2 -4.75 -4.2 L-3.15 -3.75 -4.6 -2.45 -5.15 -1.85 -6.1 -1.95 -6.6 -1.85 M-21.9 1.85 L-22.65 2.65 -23.65 2.4 -23.9 1.65 -21.65 -2.1 Q-20.55 -1.35 -21.15 0.35 L-21.9 1.85 M-27.5 4.6 L-27.05 4.4 -25.25 5.45 Q-23.35 6.2 -21.25 6.15 L-21.25 8.6 -21.55 9.1 Q-22.6 8.75 -23.45 8.2 -25.65 6.75 -27.3 4.85 L-27.5 4.6" fill="#ff0000" fill-rule="evenodd" stroke="none"/>
      <path d="M7.7 -1.45 L7.6 0.15 6.5 2.15 Q5.5 2.9 4.35 2.95 L3.9 3.0 Q2.75 2.6 2.7 1.35 L3.25 0.05 4.15 0.1 Q6.15 0.15 7.45 -1.15 L7.7 -1.45 M2.75 -0.25 L2.7 0.25 1.6 0.55 0.6 -0.2 Q-1.15 1.2 -3.45 1.05 L-3.85 0.25 -3.2 -0.1 -2.4 -1.85 -0.9 -2.5 -0.8 -3.1 1.4 -4.35 1.5 -5.15 2.2 -5.15 3.2 -4.4 3.5 -3.25 3.1 -2.55 2.4 -1.5 2.4 -0.6 2.75 -0.25 M-1.25 3.75 L-0.95 3.1 -0.2 1.8 0.3 1.7 Q3.1 1.5 3.0 4.3 L2.8 4.6 Q1.8 5.55 0.4 5.4 L-1.25 3.75" fill="#650101" fill-rule="evenodd" stroke="none"/>
      <path d="M7.25 -4.05 L7.85 -3.6 7.7 -1.45 7.45 -1.15 7.1 -1.45 3.3 -1.2 3.1 -2.55 3.5 -3.25 4.05 -3.6 4.45 -4.4 7.25 -4.05" fill="#ffffff" fill-rule="evenodd" stroke="none"/>
      <path d="M-1.95 -12.75 L-1.45 -13.2 2.2 -13.1 2.5 -12.65 3.25 -12.75 4.7 -12.55 6.1 -12.0 7.15 -12.3 8.25 -11.55 Q9.8 -10.4 10.5 -8.4 L10.0 -8.0 11.2 -6.6 Q12.9 -4.5 15.1 -3.1 13.35 -1.45 13.25 1.05 12.2 9.85 3.75 12.75 L3.45 13.2 2.15 13.2 Q-2.25 13.15 -6.0 11.2 L-6.5 10.85 -5.45 10.4 Q-1.65 12.35 2.55 11.0 6.85 9.65 9.2 6.85 L9.4 6.6 Q12.2 3.05 12.15 -2.75 L11.35 -3.1 Q8.4 -4.5 7.9 -7.8 L8.25 -8.5 7.05 -9.55 Q4.55 -9.2 2.95 -11.4 L2.75 -10.9 -1.75 -9.2 -2.3 -9.35 -2.6 -9.75 Q-4.6 -3.9 -10.25 -3.65 L-10.1 -4.95 -9.4 -5.35 -8.55 -4.55 -7.9 -4.75 -7.0 -5.15 -6.5 -5.5 -6.55 -6.65 -7.15 -6.85 -6.8 -7.3 -5.6 -8.2 -5.5 -8.35 -4.9 -8.6 -1.85 -12.05 -1.95 -12.75 M-7.3 10.95 L-7.8 11.3 -10.5 11.4 Q-14.55 10.95 -16.65 8.05 L-16.35 6.7 Q-16.7 5.2 -17.7 3.9 L-18.45 3.85 -18.5 3.65 -19.55 3.75 Q-20.1 3.7 -20.7 3.25 L-21.95 3.55 -22.2 2.9 -22.25 2.4 -21.2 1.45 -20.35 2.2 -19.35 2.35 -18.4 2.0 Q-16.65 1.3 -15.85 -0.05 L-16.7 -0.65 -16.65 -1.95 -17.7 -2.15 Q-17.9 -4.15 -16.65 -5.65 L-15.8 -4.85 -15.55 -5.3 -12.55 -5.75 -12.1 -6.1 -11.45 -6.0 -10.55 -5.65 -10.55 -4.8 -12.2 -3.15 -13.75 -3.5 -14.25 -3.65 -14.7 -3.8 -15.4 -4.4 -14.7 -3.25 -15.2 -2.3 -13.25 -1.25 -12.3 -0.5 -13.15 1.6 -15.0 1.25 -15.3 1.6 -16.05 3.45 -14.7 7.4 -14.85 8.1 Q-12.65 8.55 -10.5 9.25 L-7.8 10.25 -7.2 10.5 -7.3 10.95 M-22.95 -2.7 L-23.75 -1.85 -25.8 -2.3 -25.5 -2.9 Q-25.0 -3.9 -23.85 -3.95 L-22.95 -3.35 -22.95 -2.7" fill="#993018" fill-rule="evenodd" stroke="none"/>
    </g>
    <g id="sprite3" transform="matrix(1.0, 0.0, 0.0, 1.0, 50.0, 50.0)">
      <use ffdec:characterId="1080" height="100.0" transform="matrix(1.0, 0.0, 0.0, 1.0, -50.0, -50.0)" width="100.0" xlink:href="#shape3"/>
    </g>
    <g id="shape3" transform="matrix(1.0, 0.0, 0.0, 1.0, 50.0, 50.0)">
      <path d="M50.0 50.0 L-50.0 50.0 -50.0 -50.0 50.0 -50.0 50.0 50.0 Z" fill="none" stroke="#9900ff" stroke-linecap="round" stroke-linejoin="round" stroke-width="0.05"/>
    </g>
  </defs>
</svg>
