<?xml version="1.0" encoding="UTF-8" standalone="no"?>
<svg xmlns:ffdec="https://www.free-decompiler.com/flash" xmlns:xlink="http://www.w3.org/1999/xlink" ffdec:objectType="frame" height="122.0px" width="131.85px" xmlns="http://www.w3.org/2000/svg">
  <g transform="matrix(1.0, 0.0, 0.0, 1.0, 59.0, 293.15)">
    <use ffdec:characterId="2876" height="100.95" transform="matrix(1.0, 0.0, 0.0, 1.0, -54.15, -281.9)" width="125.2" xlink:href="#shape0"/>
  </g>
  <defs>
    <g id="shape0" transform="matrix(1.0, 0.0, 0.0, 1.0, 54.15, 281.9)">
      <path d="M41.75 -258.95 Q39.15 -257.5 36.6 -256.7 33.0 -255.5 29.45 -255.5 20.3 -255.5 18.3 -259.4 17.65 -260.7 17.8 -262.25 L18.1 -263.8 Q18.1 -266.9 20.5 -268.75 22.5 -270.3 26.4 -271.1 L30.5 -271.75 39.05 -271.3 43.0 -268.85 Q47.4 -265.0 47.4 -263.95 47.4 -262.1 41.75 -258.95 M1.6 -250.9 L-0.8 -251.5 Q-3.3 -252.2 -4.3 -253.05 -5.9 -254.2 -5.9 -257.6 -5.9 -258.7 -4.65 -259.7 L-2.25 -261.15 Q1.35 -262.7 5.8 -262.8 10.65 -263.0 13.8 -261.3 17.4 -259.35 17.4 -255.3 17.4 -253.35 16.7 -252.45 L16.6 -252.25 16.1 -251.8 15.7 -251.5 15.55 -251.4 15.8 -251.45 15.8 -251.55 25.3 -251.55 25.9 -251.45 34.8 -251.3 Q36.6 -250.7 37.6 -248.45 38.3 -246.85 38.3 -245.35 38.3 -242.75 35.55 -241.55 30.85 -239.85 26.75 -237.9 22.6 -235.35 19.85 -234.2 15.0 -232.15 7.85 -232.15 L4.45 -232.6 Q5.5 -231.4 6.05 -229.5 6.75 -227.3 6.75 -224.8 6.75 -222.7 6.3 -222.0 4.85 -219.55 -0.65 -219.55 -3.05 -219.55 -5.25 -220.45 L-5.95 -220.15 -6.1 -220.05 -6.25 -220.05 -6.35 -220.0 Q2.6 -218.8 2.6 -213.7 2.8 -211.8 2.2 -210.0 1.6 -208.4 0.3 -207.5 6.7 -207.6 9.75 -206.75 11.3 -209.4 14.8 -211.8 21.15 -216.1 25.75 -213.1 34.8 -217.75 43.6 -212.55 46.7 -210.75 47.9 -208.7 49.05 -206.6 48.7 -203.95 48.3 -201.35 45.25 -199.3 42.15 -197.2 40.6 -197.8 28.7 -196.3 27.1 -199.15 22.35 -196.2 14.95 -196.3 9.4 -196.35 8.55 -199.6 5.75 -197.5 2.6 -197.5 -1.35 -197.5 -2.35 -199.3 -2.65 -199.75 -2.65 -201.3 -2.65 -203.05 -2.2 -204.6 -1.8 -205.95 -1.05 -206.75 L-3.45 -206.5 Q-8.6 -206.5 -12.0 -208.0 -13.95 -208.75 -16.95 -210.6 L-23.25 -213.15 Q-25.15 -214.05 -25.15 -215.9 -25.15 -217.0 -24.6 -218.05 L-23.95 -219.15 -29.45 -218.65 Q-35.75 -218.75 -34.9 -223.7 -34.9 -228.0 -29.7 -231.5 L-28.6 -232.5 -28.55 -232.6 -25.65 -234.35 -19.6 -234.7 -16.65 -234.25 -16.5 -234.2 -16.35 -234.2 -16.05 -234.25 -8.35 -233.65 -7.25 -233.2 2.5 -233.6 Q0.7 -234.85 -0.1 -237.15 -1.0 -239.65 -0.65 -242.3 -0.65 -247.8 6.8 -250.05 L5.7 -250.05 Q3.4 -250.4 1.6 -250.9 M70.2 -236.75 Q69.05 -235.3 65.4 -233.85 L57.0 -233.85 52.1 -234.85 Q46.8 -236.05 45.05 -237.45 43.2 -238.9 43.2 -242.9 43.2 -244.25 44.6 -245.4 L47.5 -247.15 Q51.75 -248.95 57.15 -249.15 62.95 -249.4 66.7 -247.35 71.05 -245.0 71.05 -240.15 71.05 -237.8 70.2 -236.75 M4.4 -196.2 Q10.45 -195.95 10.45 -192.75 L10.3 -191.55 Q10.05 -190.35 8.7 -190.35 1.95 -190.35 1.95 -193.15 L2.05 -194.8 Q2.6 -195.75 4.4 -196.2 M-6.0 -279.3 Q-2.35 -276.05 -2.35 -275.2 -2.35 -273.65 -7.05 -271.0 -9.2 -269.8 -11.35 -269.15 -14.35 -268.1 -17.3 -268.1 -24.95 -268.1 -26.7 -271.4 -27.2 -272.45 -27.05 -273.75 L-26.8 -275.05 Q-26.8 -277.7 -24.8 -279.2 -23.2 -280.5 -19.9 -281.2 L-16.45 -281.7 -9.35 -281.3 Q-9.2 -281.3 -6.0 -279.3 M-25.35 -250.35 Q-29.4 -248.65 -35.4 -248.65 L-38.2 -248.95 Q-37.35 -248.0 -36.9 -246.4 -36.3 -244.55 -36.3 -242.5 -36.3 -240.75 -36.65 -240.15 -37.9 -238.1 -42.5 -238.1 -47.35 -238.1 -51.25 -242.25 L-54.15 -246.3 Q-54.15 -247.75 -52.2 -248.55 -48.9 -249.9 -39.85 -249.85 -40.8 -250.5 -41.4 -251.5 L-42.05 -252.8 Q-42.8 -254.85 -42.5 -257.1 -42.5 -263.95 -28.7 -264.75 L-28.7 -264.85 -20.8 -264.85 -20.3 -264.75 -12.85 -264.6 Q-11.35 -264.15 -10.55 -262.25 -9.95 -260.9 -9.95 -259.65 -9.95 -257.45 -12.2 -256.45 -16.15 -255.1 -19.6 -253.4 L-22.9 -251.5 -25.35 -250.35 M-51.6 -231.1 Q-51.85 -231.8 -51.7 -232.55 -51.7 -236.25 -44.6 -236.6 -42.5 -236.0 -41.9 -234.9 -41.75 -234.5 -41.75 -233.0 -41.75 -229.65 -49.7 -229.65 -51.25 -229.65 -51.6 -231.1 M-18.35 -220.2 Q-19.05 -220.55 -19.3 -221.05 L-21.05 -220.1 -18.35 -220.2 M-47.85 -209.7 Q-48.5 -210.5 -48.5 -212.2 -48.5 -215.65 -45.35 -217.3 -42.7 -218.7 -38.55 -218.6 -34.75 -218.5 -31.7 -217.15 -30.4 -216.55 -29.65 -215.95 -28.6 -215.05 -28.6 -214.15 -28.6 -211.25 -29.9 -210.3 -31.25 -209.25 -35.0 -208.4 L-38.5 -207.7 -44.45 -207.7 Q-47.1 -208.75 -47.85 -209.7 M-3.9 -185.25 Q-3.15 -181.05 -8.55 -180.95 -13.85 -180.9 -17.2 -183.0 -18.35 -180.95 -26.8 -182.05 -27.9 -181.6 -30.15 -183.1 -32.3 -184.5 -32.55 -186.4 -32.85 -188.25 -32.0 -189.75 -31.15 -191.25 -28.9 -192.55 -22.65 -196.2 -16.25 -192.95 -12.95 -195.05 -8.4 -192.0 -3.9 -188.95 -3.9 -185.25" fill="#bebebe" fill-rule="evenodd" stroke="none"/>
    </g>
  </defs>
</svg>
