<?xml version="1.0" encoding="UTF-8" standalone="no"?>
<svg xmlns:ffdec="https://www.free-decompiler.com/flash" xmlns:xlink="http://www.w3.org/1999/xlink" ffdec:objectType="frame" height="122.0px" width="131.85px" xmlns="http://www.w3.org/2000/svg">
  <g transform="matrix(1.0, 0.0, 0.0, 1.0, 59.0, 293.15)">
    <use ffdec:characterId="2877" height="100.35" transform="matrix(1.0, 0.0, 0.0, 1.0, -53.55, -283.15)" width="123.7" xlink:href="#shape0"/>
  </g>
  <defs>
    <g id="shape0" transform="matrix(1.0, 0.0, 0.0, 1.0, 53.55, 283.15)">
      <path d="M57.4 -251.55 Q70.15 -252.25 70.15 -241.85 70.15 -240.25 69.7 -239.9 L66.4 -237.75 59.4 -237.75 59.1 -238.0 Q53.35 -238.25 48.7 -239.6 L48.65 -239.65 Q43.8 -241.15 43.8 -242.9 L43.7 -244.7 Q43.6 -245.55 43.95 -246.4 L44.1 -246.9 Q44.6 -248.0 48.7 -249.6 52.8 -251.3 57.4 -251.55 M41.5 -260.4 Q39.25 -258.65 35.8 -257.85 32.35 -257.05 27.65 -257.15 18.4 -257.45 18.4 -261.85 18.4 -266.25 19.6 -268.45 21.25 -271.4 25.3 -272.6 28.2 -273.5 32.25 -273.5 38.35 -273.5 42.5 -270.0 46.65 -266.6 46.35 -265.3 46.05 -263.95 41.5 -260.4 M18.75 -252.65 L27.95 -252.65 Q33.05 -254.35 36.25 -250.75 37.95 -249.05 38.05 -246.85 38.05 -244.65 36.45 -243.0 L36.45 -243.05 Q27.95 -241.25 23.4 -238.6 18.8 -235.95 12.2 -234.45 7.1 -233.3 4.55 -234.5 6.65 -229.95 6.65 -227.55 6.65 -225.9 4.95 -223.45 2.95 -220.55 0.8 -220.55 -1.6 -220.55 -6.3 -222.85 L-6.35 -222.85 -18.2 -223.25 -18.35 -223.3 -18.45 -223.4 -18.95 -223.6 -19.55 -224.3 -19.65 -224.3 -26.4 -221.3 -31.2 -220.8 Q-34.0 -222.0 -34.6 -222.85 L-34.95 -224.9 Q-35.15 -227.45 -32.7 -230.4 -30.25 -233.1 -27.0 -234.5 L-25.9 -234.9 -24.4 -235.5 -21.75 -235.95 -21.7 -235.95 -21.55 -235.95 -21.5 -235.95 -21.4 -235.95 -21.25 -235.95 -21.15 -235.95 -21.05 -235.95 -20.95 -235.95 -20.85 -235.95 -20.3 -235.95 -17.45 -235.65 -15.55 -235.95 Q-12.55 -236.2 -10.45 -235.25 L-9.2 -234.5 Q-7.25 -234.1 -5.75 -233.35 L-5.65 -233.3 -4.9 -232.9 -0.9 -232.95 Q-0.25 -232.95 1.15 -237.0 L1.55 -237.65 Q0.8 -238.75 0.6 -239.7 0.3 -240.6 0.3 -241.35 0.3 -251.05 7.55 -252.15 L18.75 -252.65 M16.7 -256.7 Q16.7 -255.35 16.3 -255.1 L13.55 -253.3 7.65 -253.3 7.45 -253.55 Q2.65 -253.7 -1.2 -254.8 L-1.25 -254.85 Q-5.3 -256.1 -5.3 -257.6 L-5.4 -259.1 -5.25 -260.5 -5.05 -260.95 Q-4.65 -261.85 -1.2 -263.2 2.2 -264.6 6.05 -264.85 16.7 -265.4 16.7 -256.7 M1.0 -210.4 L1.35 -209.95 Q2.3 -207.05 2.75 -207.05 L8.95 -206.95 Q9.55 -208.6 11.05 -210.35 13.95 -213.6 17.95 -215.25 22.25 -217.1 25.3 -215.7 L25.95 -215.4 Q28.2 -216.7 31.55 -217.0 35.15 -217.25 37.7 -216.15 L39.15 -215.25 Q41.5 -214.8 43.3 -213.85 47.0 -212.15 47.2 -209.5 47.5 -206.7 47.1 -205.5 46.25 -203.2 42.8 -201.35 30.6 -200.5 27.5 -202.2 L26.75 -203.15 Q24.35 -201.95 18.55 -199.45 L12.85 -198.85 Q9.8 -200.2 9.0 -201.05 L7.65 -200.35 Q3.55 -198.25 1.55 -198.25 0.0 -198.25 -1.4 -200.25 -2.65 -202.05 -2.65 -203.2 -2.65 -204.95 -1.15 -208.15 -2.95 -207.3 -6.65 -208.1 -11.3 -209.2 -14.6 -211.05 -17.8 -213.0 -23.85 -214.25 L-23.85 -214.2 Q-24.95 -215.35 -24.95 -217.0 -24.9 -218.5 -23.7 -219.75 -21.4 -222.3 -17.8 -221.05 L-11.25 -221.05 -3.3 -220.7 Q1.9 -220.0 1.9 -213.0 L1.65 -211.85 1.0 -210.4 M6.65 -192.2 Q3.3 -193.1 2.65 -193.95 2.3 -194.25 2.65 -195.45 3.15 -197.55 6.8 -196.95 10.55 -196.4 9.65 -193.3 L8.6 -192.55 Q7.55 -192.0 6.65 -192.2 M-3.25 -276.3 Q-3.45 -275.2 -7.25 -272.2 -9.1 -270.75 -12.0 -270.1 L-18.8 -269.5 Q-26.6 -269.75 -26.6 -273.4 -26.6 -277.1 -25.55 -278.95 -24.15 -281.45 -20.8 -282.4 -18.4 -283.15 -15.0 -283.15 -9.9 -283.15 -6.45 -280.3 -2.95 -277.4 -3.25 -276.3 M-26.3 -265.75 L-18.55 -265.75 Q-14.35 -267.15 -11.65 -264.2 -10.25 -262.7 -10.15 -260.9 -10.15 -259.05 -11.45 -257.7 L-11.45 -257.75 Q-18.55 -256.25 -22.35 -254.0 -26.25 -251.8 -31.7 -250.55 -36.05 -249.55 -38.1 -250.6 -36.4 -246.8 -36.4 -244.75 -36.4 -243.4 -37.8 -241.3 -39.5 -238.95 -41.3 -238.95 -43.65 -238.95 -48.5 -241.5 -53.55 -244.15 -53.55 -245.8 -53.55 -248.5 -52.1 -248.9 L-42.7 -249.25 Q-42.15 -249.25 -41.0 -252.65 L-40.65 -253.25 -41.45 -254.9 -41.7 -256.3 Q-41.7 -264.45 -35.65 -265.35 L-26.3 -265.75 M-50.8 -233.1 Q-51.85 -236.75 -47.45 -237.45 -43.2 -238.15 -42.55 -235.7 -42.2 -234.25 -42.55 -233.95 -43.35 -232.9 -47.3 -231.85 -48.3 -231.6 -49.6 -232.25 L-50.8 -233.1 M-5.75 -191.0 Q-3.7 -188.45 -3.85 -186.25 L-4.15 -184.5 Q-4.65 -183.75 -7.05 -182.8 L-11.15 -183.2 -16.95 -185.8 -17.45 -185.15 Q-19.65 -183.95 -28.35 -184.5 -30.85 -185.85 -31.4 -187.5 -31.7 -188.4 -31.55 -190.35 -31.35 -192.25 -28.7 -193.45 L-25.75 -194.45 -24.75 -195.05 Q-22.95 -195.9 -20.35 -195.7 -17.95 -195.45 -16.35 -194.55 L-15.9 -194.8 Q-13.7 -195.75 -10.65 -194.45 -7.85 -193.3 -5.75 -191.0 M-47.5 -212.0 Q-47.85 -212.25 -47.85 -213.35 -47.85 -220.8 -38.8 -220.3 -35.5 -220.1 -32.55 -218.95 -29.65 -217.75 -29.3 -217.0 L-29.15 -216.65 Q-28.9 -216.0 -29.0 -215.4 L-29.1 -214.15 Q-29.1 -212.9 -32.55 -211.8 L-32.55 -211.75 Q-35.85 -210.8 -39.95 -210.7 L-40.2 -210.45 -45.2 -210.45 -47.5 -212.0" fill="#c2c2c2" fill-rule="evenodd" stroke="none"/>
    </g>
  </defs>
</svg>
