<?xml version="1.0" encoding="UTF-8" standalone="no"?>
<svg xmlns:ffdec="https://www.free-decompiler.com/flash" xmlns:xlink="http://www.w3.org/1999/xlink" ffdec:objectType="frame" height="122.0px" width="131.85px" xmlns="http://www.w3.org/2000/svg">
  <g transform="matrix(1.0, 0.0, 0.0, 1.0, 59.0, 293.15)">
    <use ffdec:characterId="2881" height="97.4" transform="matrix(1.0, 0.0, 0.0, 1.0, -50.85, -287.85)" width="118.15" xlink:href="#shape0"/>
  </g>
  <defs>
    <g id="shape0" transform="matrix(1.0, 0.0, 0.0, 1.0, 50.85, 287.85)">
      <path d="M42.8 -272.9 Q42.8 -271.85 39.6 -271.1 35.1 -270.15 31.3 -267.7 L29.35 -266.9 26.3 -266.5 Q21.5 -266.5 20.05 -268.75 19.55 -269.55 19.55 -271.45 19.55 -274.7 21.15 -276.25 L22.15 -277.05 Q26.05 -279.9 32.35 -278.8 38.2 -277.95 40.65 -275.95 42.8 -273.9 42.8 -272.9 M54.65 -261.6 Q62.85 -262.45 65.05 -260.6 67.3 -258.65 67.3 -255.3 67.3 -253.85 65.05 -252.65 62.75 -251.45 57.6 -251.7 L48.95 -252.25 47.9 -253.7 Q46.45 -260.75 54.65 -261.6 M12.4 -272.4 Q14.3 -270.75 14.3 -268.0 14.3 -266.8 12.4 -265.75 10.5 -264.75 6.15 -264.95 L-1.05 -265.4 Q-1.5 -266.2 -1.9 -266.6 -3.1 -272.5 3.75 -273.25 10.55 -273.95 12.4 -272.4 M8.2 -253.2 Q12.55 -255.65 18.95 -257.15 25.3 -258.7 29.7 -258.35 34.6 -257.95 34.6 -255.3 L29.35 -253.65 Q23.6 -251.35 21.05 -247.95 L17.7 -243.75 Q15.6 -241.7 12.5 -241.3 L7.3 -241.3 3.55 -244.95 Q3.3 -245.4 3.3 -247.8 3.3 -250.45 8.2 -253.2 M3.0 -234.6 Q3.0 -233.35 1.0 -231.4 -1.0 -229.5 -1.9 -229.5 -7.8 -229.5 -9.8 -232.85 L-9.85 -233.05 -11.95 -233.1 -12.1 -232.65 -12.15 -232.55 Q-13.2 -230.95 -16.6 -230.95 L-18.8 -231.3 -20.2 -231.8 -21.8 -232.7 Q-22.6 -231.9 -24.0 -231.2 -26.7 -229.9 -30.05 -229.9 L-32.8 -230.0 -33.0 -229.85 -33.15 -230.55 Q-33.15 -233.1 -31.25 -235.55 -29.5 -237.8 -27.05 -238.75 -24.95 -239.7 -23.4 -239.25 L-22.3 -239.45 -21.05 -239.65 -20.95 -239.7 -19.8 -239.85 -19.45 -239.85 Q-17.75 -240.85 -13.9 -240.85 -9.1 -240.85 -6.7 -239.25 -0.1 -240.2 2.3 -241.3 L3.0 -234.6 M17.8 -220.4 L22.75 -220.6 Q25.1 -219.4 25.1 -215.65 25.1 -213.05 21.5 -211.35 18.2 -209.75 14.25 -209.75 L10.95 -209.9 10.7 -209.65 Q10.5 -209.6 10.5 -210.5 10.5 -213.65 12.8 -216.5 14.85 -219.15 17.8 -220.4 M0.45 -213.0 Q2.2 -212.25 6.85 -211.5 9.7 -211.05 9.7 -209.5 L9.05 -207.0 Q7.6 -204.6 3.45 -204.6 2.8 -204.6 1.4 -205.95 0.0 -207.35 0.0 -208.25 L0.45 -213.0 M25.1 -217.55 Q25.1 -220.1 25.95 -221.0 27.65 -222.85 33.55 -222.85 40.85 -222.85 43.65 -219.7 45.05 -218.15 44.95 -216.45 L44.85 -214.8 Q44.5 -213.75 43.05 -213.5 30.2 -213.35 26.6 -214.9 25.1 -215.55 25.1 -217.55 M-8.8 -281.2 Q-12.65 -280.35 -15.8 -278.3 -16.55 -277.9 -17.4 -277.7 L-19.95 -277.35 Q-24.0 -277.35 -25.2 -279.2 -25.6 -279.9 -25.6 -281.5 -25.6 -284.15 -24.25 -285.45 L-23.45 -286.15 Q-20.2 -288.5 -14.95 -287.6 -9.95 -286.9 -7.95 -285.25 -6.15 -283.5 -6.15 -282.65 -6.15 -281.8 -8.8 -281.2 M-39.45 -250.7 Q-39.45 -249.6 -41.1 -248.0 -42.8 -246.4 -43.55 -246.4 -48.45 -246.4 -50.1 -249.2 L-50.85 -252.15 Q-50.85 -254.0 -47.5 -254.5 -42.05 -255.35 -40.0 -256.25 -39.45 -251.85 -39.45 -250.7 M-38.95 -259.3 L-39.2 -261.7 Q-39.2 -263.9 -35.1 -266.2 -31.4 -268.3 -26.05 -269.5 -20.8 -270.8 -17.1 -270.55 -13.05 -270.2 -13.05 -268.0 L-17.4 -266.55 Q-22.25 -264.65 -24.35 -261.85 L-27.15 -258.3 Q-28.9 -256.6 -31.5 -256.25 L-35.8 -256.25 -38.95 -259.3 M-21.8 -199.85 Q-17.65 -199.85 -16.35 -198.55 -15.75 -197.9 -15.75 -196.1 -15.75 -194.65 -16.85 -194.2 -19.35 -193.1 -28.6 -193.2 -29.6 -193.4 -29.85 -194.1 L-29.9 -195.3 Q-29.9 -196.5 -28.95 -197.6 -27.0 -199.85 -21.8 -199.85 M-14.15 -198.3 Q-12.7 -199.05 -10.6 -198.05 -8.5 -197.25 -7.0 -195.35 -5.35 -193.3 -5.35 -191.1 -5.35 -190.45 -5.55 -190.45 L-5.65 -190.65 -8.0 -190.5 Q-10.9 -190.5 -13.2 -191.65 -15.75 -192.9 -15.75 -194.8 -15.75 -197.45 -14.15 -198.3 M-19.05 -225.15 Q-15.9 -225.4 -11.4 -224.3 -6.85 -223.25 -3.7 -221.45 -0.25 -219.5 -0.25 -217.65 -0.25 -215.95 -0.4 -215.6 L-3.1 -213.0 -6.8 -213.0 Q-9.0 -213.3 -10.5 -214.75 L-12.9 -217.75 Q-14.65 -220.15 -18.8 -221.75 -20.85 -222.65 -22.55 -222.95 -22.55 -224.9 -19.05 -225.15 M-45.85 -222.95 Q-45.85 -225.35 -44.15 -226.7 -42.6 -228.05 -36.85 -227.45 -30.95 -226.85 -32.0 -221.8 L-32.75 -220.8 -38.85 -220.4 Q-42.55 -220.25 -44.15 -221.05 -45.85 -222.0 -45.85 -222.95" fill="#cecece" fill-rule="evenodd" stroke="none"/>
    </g>
  </defs>
</svg>
