<?xml version="1.0" encoding="UTF-8" standalone="no"?>
<svg xmlns:ffdec="https://www.free-decompiler.com/flash" xmlns:xlink="http://www.w3.org/1999/xlink" ffdec:objectType="frame" height="122.0px" width="131.85px" xmlns="http://www.w3.org/2000/svg">
  <g transform="matrix(1.0, 0.0, 0.0, 1.0, 59.0, 293.15)">
    <use ffdec:characterId="2883" height="95.1" transform="matrix(1.0, 0.0, 0.0, 1.0, -48.65, -289.35)" width="113.6" xlink:href="#shape0"/>
  </g>
  <defs>
    <g id="shape0" transform="matrix(1.0, 0.0, 0.0, 1.0, 48.65, 289.35)">
      <path d="M51.1 -259.7 Q49.95 -260.25 49.65 -260.5 L49.75 -261.9 Q49.8 -263.85 57.4 -264.2 64.95 -264.5 64.95 -261.3 L64.8 -258.95 Q64.0 -257.1 61.15 -257.2 L55.25 -258.2 Q52.15 -259.1 51.1 -259.7 M20.7 -277.45 Q20.7 -278.1 21.05 -278.65 21.4 -279.25 22.15 -279.7 23.65 -280.65 26.45 -280.8 L26.45 -280.85 26.7 -280.8 28.0 -280.85 27.45 -280.7 Q39.6 -278.6 39.6 -276.2 39.6 -275.15 33.0 -273.55 L25.65 -272.1 24.45 -272.05 Q21.8 -272.05 21.0 -274.75 20.6 -276.05 20.7 -277.45 M12.35 -272.95 L12.2 -271.0 Q11.55 -269.45 9.15 -269.55 L4.2 -270.35 Q1.65 -271.15 0.75 -271.65 -0.25 -272.1 -0.45 -272.3 L-0.35 -273.5 Q-0.3 -275.1 6.05 -275.4 12.35 -275.6 12.35 -272.95 M13.3 -257.45 Q21.9 -262.0 28.6 -260.7 L28.75 -259.95 20.1 -253.05 16.2 -248.85 Q13.35 -246.25 9.45 -246.25 6.4 -246.25 5.55 -247.95 L5.25 -249.65 Q5.25 -253.2 13.3 -257.45 M34.05 -225.95 Q41.6 -225.0 41.6 -220.9 41.6 -220.0 39.7 -219.4 37.55 -218.7 33.2 -218.7 28.55 -218.7 27.05 -221.0 L26.45 -223.3 Q26.45 -226.9 34.05 -225.95 M13.5 -216.0 L15.45 -220.0 Q21.5 -224.65 21.8 -221.6 22.0 -218.6 19.75 -217.3 L13.9 -214.95 13.65 -215.3 Q13.5 -215.55 13.5 -216.0 M4.75 -213.0 Q7.85 -212.5 7.85 -210.45 L7.6 -209.5 Q6.85 -208.8 3.85 -208.8 L2.7 -209.35 Q1.6 -210.0 1.6 -210.85 1.6 -213.4 4.75 -213.0 M-18.5 -289.35 L-19.05 -289.15 Q-8.8 -287.45 -8.8 -285.4 -8.8 -284.55 -14.35 -283.2 L-20.5 -282.0 -21.5 -281.95 Q-23.75 -281.95 -24.4 -284.2 -24.75 -285.3 -24.6 -286.45 L-24.35 -287.5 -23.45 -288.35 Q-22.2 -289.1 -19.85 -289.25 L-19.85 -289.35 -19.65 -289.25 -18.5 -289.35 M-34.0 -260.4 Q-36.6 -260.4 -37.3 -261.85 L-37.55 -263.25 Q-37.55 -266.2 -30.8 -269.75 -23.65 -273.55 -18.05 -272.45 -17.85 -272.45 -17.85 -271.8 L-25.15 -266.1 Q-27.15 -263.8 -28.4 -262.6 -30.8 -260.4 -34.0 -260.4 M-45.05 -256.25 Q-41.35 -256.75 -41.35 -253.75 -41.35 -252.7 -42.65 -251.95 L-44.0 -251.35 Q-47.5 -251.35 -48.45 -252.15 -48.65 -252.45 -48.65 -253.3 -48.65 -255.65 -45.05 -256.25 M-44.05 -225.55 L-44.15 -227.25 Q-44.15 -229.5 -38.8 -229.3 -33.4 -229.05 -33.3 -227.65 L-33.2 -226.65 Q-33.45 -226.5 -34.25 -226.1 L-37.2 -225.0 -41.45 -224.3 Q-43.45 -224.25 -44.05 -225.55 M-8.05 -237.75 L-8.0 -238.2 -8.75 -237.95 -12.7 -237.4 -12.85 -236.8 Q-13.4 -234.9 -15.3 -234.9 L-16.15 -234.9 -21.4 -235.95 -24.55 -236.85 -25.45 -236.25 -30.35 -234.25 -30.5 -234.55 -30.65 -235.15 -29.0 -238.4 Q-24.0 -242.35 -23.75 -239.8 L-23.7 -239.6 -19.65 -240.6 -19.85 -241.25 Q-19.85 -244.25 -13.5 -243.45 -7.75 -242.7 -7.2 -239.8 -6.1 -240.9 -3.7 -241.25 0.7 -241.9 0.7 -238.3 0.7 -237.1 -0.85 -236.2 -1.65 -235.8 -2.5 -235.45 -6.7 -235.45 -7.8 -236.4 L-8.05 -237.75 M-7.8 -194.25 L-12.0 -195.95 Q-13.6 -196.8 -13.4 -199.0 -13.2 -201.1 -8.95 -197.8 L-7.5 -195.0 Q-7.5 -194.65 -7.65 -194.5 L-7.8 -194.25 M-27.55 -198.45 Q-27.55 -201.4 -22.15 -202.05 -16.7 -202.75 -16.7 -200.2 L-17.2 -198.55 Q-18.2 -196.9 -21.55 -196.9 L-26.15 -197.45 Q-27.55 -197.8 -27.55 -198.45 M-18.4 -226.25 L-18.3 -226.8 Q-13.5 -227.7 -7.4 -224.45 -1.65 -221.45 -1.65 -219.0 L-1.85 -217.75 Q-2.4 -216.5 -4.65 -216.5 -7.4 -216.5 -9.4 -218.35 L-12.2 -221.35 -18.4 -226.25" fill="#d4d4d4" fill-rule="evenodd" stroke="none"/>
    </g>
  </defs>
</svg>
