<?xml version="1.0" encoding="UTF-8" standalone="no"?>
<svg xmlns:ffdec="https://www.free-decompiler.com/flash" xmlns:xlink="http://www.w3.org/1999/xlink" ffdec:objectType="frame" height="122.0px" width="131.85px" xmlns="http://www.w3.org/2000/svg">
  <g transform="matrix(1.0, 0.0, 0.0, 1.0, 59.0, 293.15)">
    <use ffdec:characterId="2884" height="91.1" transform="matrix(1.0, 0.0, 0.0, 1.0, -47.95, -289.7)" width="112.15" xlink:href="#shape0"/>
  </g>
  <defs>
    <g id="shape0" transform="matrix(1.0, 0.0, 0.0, 1.0, 47.95, 289.7)">
      <path d="M57.35 -265.45 Q64.2 -265.35 64.2 -261.95 64.2 -261.3 63.15 -260.8 61.8 -260.2 59.6 -260.2 57.9 -260.2 54.15 -261.85 50.5 -263.45 50.5 -263.85 50.5 -265.65 57.35 -265.45 M24.25 -275.2 L23.4 -275.3 Q22.3 -275.6 21.85 -276.65 L21.55 -277.85 21.55 -278.2 Q21.55 -282.3 30.0 -280.95 33.15 -280.5 35.75 -279.45 38.4 -278.45 38.4 -277.7 L38.2 -277.0 37.7 -276.7 27.85 -275.95 Q25.85 -275.2 24.25 -275.2 M6.0 -276.45 Q11.7 -276.35 11.7 -273.55 11.7 -272.95 10.85 -272.55 L7.9 -272.1 Q6.45 -272.1 3.3 -273.4 0.3 -274.75 0.3 -275.1 0.3 -276.6 6.0 -276.45 M14.4 -259.25 Q21.25 -262.6 25.9 -263.0 L26.05 -262.3 17.7 -254.75 14.0 -250.7 Q10.95 -247.4 10.05 -247.4 7.25 -247.4 6.55 -249.45 6.25 -250.45 6.4 -251.75 6.4 -255.35 14.4 -259.25 M33.75 -227.05 Q40.6 -226.7 40.6 -222.9 40.6 -221.9 39.85 -221.55 L35.4 -221.05 Q33.45 -221.05 30.2 -221.9 26.85 -222.7 26.85 -223.2 26.85 -227.4 33.75 -227.05 M5.3 -213.3 Q7.3 -213.3 7.25 -212.35 L7.1 -211.75 5.05 -211.5 Q3.15 -211.65 3.3 -212.6 3.3 -213.3 5.3 -213.3 M-12.05 -288.2 Q-9.85 -287.3 -9.85 -286.7 L-9.95 -286.1 -10.45 -285.85 -18.7 -285.25 Q-20.35 -284.6 -21.7 -284.6 L-22.35 -284.7 Q-23.3 -284.95 -23.7 -285.8 L-23.95 -286.8 -23.95 -287.1 Q-23.95 -290.55 -16.9 -289.4 -14.25 -289.05 -12.05 -288.2 M-30.2 -264.15 Q-32.8 -261.35 -33.55 -261.35 -35.85 -261.35 -36.45 -263.05 -36.75 -263.9 -36.6 -265.0 -36.6 -268.0 -29.85 -271.25 -24.15 -274.05 -20.3 -274.4 L-20.2 -273.8 -27.15 -267.5 -30.2 -264.15 M-47.8 -254.8 L-47.95 -255.5 Q-48.1 -256.6 -45.7 -256.6 -43.35 -256.6 -43.3 -255.8 -43.2 -254.7 -45.45 -254.5 L-47.8 -254.8 M-42.85 -226.9 Q-43.6 -227.25 -43.6 -227.7 -43.6 -230.1 -38.75 -230.25 -33.9 -230.3 -33.9 -229.05 -33.9 -228.75 -36.45 -227.65 -39.15 -226.5 -40.35 -226.5 L-42.85 -226.9 M-4.55 -241.7 Q-1.65 -241.7 -1.6 -240.75 -1.5 -239.4 -4.15 -239.25 -6.35 -239.0 -7.0 -239.6 L-7.2 -240.4 Q-7.3 -241.7 -4.55 -241.7 M-8.65 -239.75 L-12.35 -239.35 -13.25 -239.4 -13.25 -239.25 -13.25 -239.0 -13.45 -238.2 Q-13.8 -237.45 -14.6 -237.25 L-15.15 -237.15 Q-16.3 -237.15 -17.7 -237.65 L-24.75 -238.25 -25.15 -238.4 -25.25 -238.95 Q-25.25 -239.45 -23.35 -240.2 L-19.5 -241.2 Q-19.45 -244.65 -13.8 -244.35 -8.0 -244.05 -8.0 -240.9 -8.0 -240.05 -8.65 -239.75 M-26.8 -199.9 Q-26.8 -202.6 -21.9 -202.85 -17.0 -203.1 -17.0 -200.1 -17.0 -199.75 -19.35 -199.15 L-23.1 -198.6 -26.25 -198.95 Q-26.8 -199.15 -26.8 -199.9 M-16.45 -228.0 L-16.3 -228.45 Q-13.05 -228.15 -8.2 -225.75 -2.4 -222.95 -2.4 -220.45 -2.35 -219.5 -2.6 -218.75 -3.05 -217.3 -5.0 -217.3 -5.65 -217.3 -7.9 -219.7 L-10.5 -222.55 -16.45 -228.0" fill="#d8d8d8" fill-rule="evenodd" stroke="none"/>
    </g>
  </defs>
</svg>
