<?xml version="1.0" encoding="UTF-8" standalone="no"?>
<svg xmlns:ffdec="https://www.free-decompiler.com/flash" xmlns:xlink="http://www.w3.org/1999/xlink" ffdec:objectType="frame" height="122.0px" width="131.85px" xmlns="http://www.w3.org/2000/svg">
  <g transform="matrix(1.0, 0.0, 0.0, 1.0, 59.0, 293.15)">
    <use ffdec:characterId="2867" height="29.65" transform="matrix(1.0, 0.0, 0.0, 1.0, -25.95, -200.9)" width="50.3" xlink:href="#shape0"/>
  </g>
  <defs>
    <g id="shape0" transform="matrix(1.0, 0.0, 0.0, 1.0, 25.95, 200.9)">
      <path d="M6.25 -198.05 Q8.95 -202.4 12.55 -199.7 13.65 -196.9 13.45 -193.9 17.0 -191.05 18.05 -186.7 L19.7 -186.9 Q21.7 -186.7 22.7 -185.25 27.1 -179.1 19.7 -177.45 19.45 -174.3 18.4 -171.25 L-19.9 -171.25 Q-20.2 -173.0 -19.65 -175.4 -22.0 -176.6 -24.1 -178.1 -26.0 -179.45 -25.95 -181.65 -25.7 -191.75 -15.9 -193.1 -15.05 -194.7 -13.8 -196.0 -4.6 -205.15 5.8 -197.25 L6.25 -198.05" fill="#a1a1a1" fill-rule="evenodd" stroke="none"/>
    </g>
  </defs>
</svg>
