<?xml version="1.0" encoding="UTF-8" standalone="no"?>
<svg xmlns:ffdec="https://www.free-decompiler.com/flash" xmlns:xlink="http://www.w3.org/1999/xlink" ffdec:objectType="frame" height="122.0px" width="131.85px" xmlns="http://www.w3.org/2000/svg">
  <g transform="matrix(1.0, 0.0, 0.0, 1.0, 59.0, 293.15)">
    <use ffdec:characterId="2885" height="91.0" transform="matrix(1.0, 0.0, 0.0, 1.0, -42.85, -290.75)" width="105.9" xlink:href="#shape0"/>
  </g>
  <defs>
    <g id="shape0" transform="matrix(1.0, 0.0, 0.0, 1.0, 42.85, 290.75)">
      <path d="M54.2 -264.85 L51.3 -266.1 Q51.3 -267.15 52.4 -267.55 L61.05 -267.85 Q62.3 -266.95 63.05 -266.1 63.15 -265.5 62.75 -265.0 62.0 -263.95 59.3 -263.95 56.65 -263.95 54.2 -264.85 M28.55 -282.4 Q32.65 -281.8 36.85 -278.65 L36.55 -277.9 Q36.3 -277.5 35.4 -277.5 L33.2 -277.8 24.75 -277.05 Q23.5 -277.4 23.2 -278.2 23.05 -278.5 23.05 -279.3 23.05 -280.45 23.5 -281.2 24.15 -282.35 25.9 -282.45 26.75 -282.65 28.1 -282.45 L28.55 -282.4 M3.35 -275.9 L0.9 -277.0 Q0.9 -277.85 1.85 -278.2 L9.1 -278.45 Q10.15 -277.7 10.8 -277.0 10.85 -276.45 10.5 -276.05 9.85 -275.2 7.6 -275.2 5.4 -275.2 3.35 -275.9 M12.9 -259.5 Q18.8 -263.25 22.35 -263.2 11.6 -249.1 9.95 -249.15 8.4 -249.2 7.65 -250.3 7.3 -250.95 7.25 -251.65 6.3 -255.25 12.9 -259.5 M36.25 -222.75 Q29.9 -222.75 27.95 -223.7 27.05 -224.25 27.05 -225.45 27.05 -228.15 33.1 -228.05 39.15 -228.0 39.15 -224.05 L39.05 -223.05 38.9 -223.05 36.25 -222.75 M-18.1 -290.6 Q-14.65 -290.1 -11.15 -287.5 L-11.4 -286.85 Q-11.6 -286.5 -12.35 -286.5 L-14.2 -286.75 -21.25 -286.15 Q-22.25 -286.45 -22.55 -287.1 L-22.65 -288.0 Q-22.65 -289.0 -22.25 -289.6 -21.75 -290.55 -20.3 -290.65 -19.6 -290.85 -18.45 -290.65 L-18.1 -290.6 M-35.85 -264.9 Q-36.65 -267.95 -31.15 -271.5 -26.25 -274.65 -23.25 -274.55 -32.25 -262.75 -33.6 -262.8 -34.9 -262.85 -35.5 -263.8 L-35.85 -264.9 M-25.75 -200.7 Q-25.75 -203.5 -21.45 -203.55 -17.2 -203.65 -17.2 -201.7 -17.2 -200.85 -17.8 -200.5 -19.2 -199.75 -23.7 -199.75 L-25.6 -200.05 -25.65 -200.05 -25.75 -200.7 M-13.85 -228.6 Q-11.3 -228.6 -7.1 -225.95 -2.35 -222.95 -3.05 -220.3 L-3.35 -219.4 Q-3.9 -218.65 -5.0 -218.6 -6.15 -218.55 -13.85 -228.6 M-9.35 -241.0 L-9.4 -241.0 -11.65 -240.75 -14.35 -240.8 -14.3 -240.05 -14.4 -239.25 Q-14.65 -238.7 -15.5 -238.5 L-21.55 -238.95 -23.1 -238.75 Q-23.75 -238.75 -23.95 -239.05 L-24.15 -239.6 -19.7 -241.9 -19.1 -242.05 -19.3 -243.05 Q-19.3 -245.3 -14.3 -245.15 -9.2 -245.1 -9.2 -241.9 -9.2 -241.1 -9.35 -241.0 M-42.85 -230.65 L-41.4 -231.9 -35.25 -231.7 Q-34.4 -231.4 -34.4 -230.65 L-36.5 -229.7 Q-38.2 -229.15 -40.15 -229.15 -42.05 -229.15 -42.55 -229.9 L-42.85 -230.65" fill="#dadada" fill-rule="evenodd" stroke="none"/>
    </g>
  </defs>
</svg>
