<?xml version="1.0" encoding="UTF-8" standalone="no"?>
<svg xmlns:ffdec="https://www.free-decompiler.com/flash" xmlns:xlink="http://www.w3.org/1999/xlink" ffdec:objectType="frame" height="122.0px" width="131.85px" xmlns="http://www.w3.org/2000/svg">
  <g transform="matrix(1.0, 0.0, 0.0, 1.0, 59.0, 293.15)">
    <use ffdec:characterId="2886" height="89.85" transform="matrix(1.0, 0.0, 0.0, 1.0, -35.65, -291.5)" width="73.8" xlink:href="#shape0"/>
  </g>
  <defs>
    <g id="shape0" transform="matrix(1.0, 0.0, 0.0, 1.0, 35.65, 291.5)">
      <path d="M29.65 -279.6 L26.0 -279.25 Q23.05 -279.25 22.9 -281.05 L22.9 -281.25 Q22.9 -283.55 27.95 -283.5 L31.95 -282.85 Q33.85 -282.25 35.05 -280.85 L34.05 -280.65 29.65 -279.6 M9.15 -251.35 Q8.15 -251.35 7.7 -252.15 L7.55 -252.95 Q7.55 -253.6 8.7 -255.6 9.9 -257.7 11.0 -258.85 12.75 -260.7 15.95 -261.95 19.55 -263.35 19.55 -261.35 19.55 -260.9 9.15 -251.35 M34.55 -225.35 Q31.4 -225.35 29.35 -226.35 27.75 -227.25 27.75 -227.8 27.75 -229.7 33.0 -229.55 38.15 -229.35 38.15 -227.35 38.15 -226.35 37.65 -225.95 36.9 -225.35 34.55 -225.35 M-17.2 -288.25 L-20.25 -287.95 Q-22.65 -287.95 -22.85 -289.45 L-22.85 -289.7 Q-22.85 -291.6 -18.55 -291.5 L-15.2 -291.0 Q-13.65 -290.5 -12.65 -289.35 L-13.5 -289.1 -17.2 -288.25 M-25.6 -273.0 Q-25.6 -272.65 -34.3 -264.65 -35.15 -264.65 -35.45 -265.35 L-35.65 -266.0 Q-35.65 -266.5 -34.65 -268.25 L-32.75 -270.95 Q-31.3 -272.45 -28.6 -273.55 -25.6 -274.7 -25.6 -273.0 M-16.35 -240.0 L-18.95 -240.25 -22.15 -240.95 -22.9 -241.2 Q-21.95 -242.15 -20.65 -242.55 -19.35 -243.05 -17.8 -243.05 -14.2 -243.1 -14.2 -241.5 L-14.2 -241.25 Q-14.3 -240.0 -16.35 -240.0 M-13.1 -242.9 Q-15.7 -242.9 -17.4 -243.8 -18.75 -244.55 -18.75 -245.0 -18.75 -246.6 -14.35 -246.45 -10.05 -246.3 -10.05 -244.6 -10.05 -243.8 -10.5 -243.45 -11.15 -242.9 -13.1 -242.9 M-24.7 -202.05 Q-25.1 -202.4 -25.1 -203.1 -25.1 -204.5 -21.4 -204.65 -17.65 -204.75 -17.65 -203.35 -17.65 -203.05 -18.8 -202.4 -20.3 -201.65 -22.5 -201.65 -24.15 -201.65 -24.7 -202.05 M-9.3 -227.7 Q-7.0 -226.8 -5.7 -225.5 L-4.1 -223.2 -3.3 -221.3 -3.4 -220.7 Q-3.7 -220.15 -4.4 -220.15 -11.8 -226.95 -11.8 -227.3 -11.8 -228.7 -9.3 -227.7" fill="#dedede" fill-rule="evenodd" stroke="none"/>
    </g>
  </defs>
</svg>
