<?xml version="1.0" encoding="UTF-8" standalone="no"?>
<svg xmlns:ffdec="https://www.free-decompiler.com/flash" xmlns:xlink="http://www.w3.org/1999/xlink" ffdec:objectType="frame" height="122.0px" width="131.85px" xmlns="http://www.w3.org/2000/svg">
  <g transform="matrix(1.0, 0.0, 0.0, 1.0, 59.0, 293.15)">
    <use ffdec:characterId="2887" height="89.65" transform="matrix(1.0, 0.0, 0.0, 1.0, -35.0, -293.15)" width="72.7" xlink:href="#shape0"/>
  </g>
  <defs>
    <g id="shape0" transform="matrix(1.0, 0.0, 0.0, 1.0, 35.0, 293.15)">
      <path d="M27.15 -285.35 L32.85 -283.95 33.15 -283.1 33.1 -283.0 Q32.75 -282.65 30.95 -282.35 L27.9 -282.1 27.2 -282.1 26.05 -282.25 25.3 -282.4 25.15 -284.55 25.0 -285.4 27.15 -285.35 M15.95 -261.7 Q14.8 -261.0 13.85 -259.45 12.8 -257.95 12.5 -257.15 L11.7 -255.15 Q11.2 -253.95 9.75 -254.15 8.3 -254.45 8.3 -256.4 8.3 -257.5 11.55 -260.1 14.95 -262.85 16.8 -262.8 L17.05 -262.6 Q17.1 -262.4 15.95 -261.7 M37.4 -228.4 Q37.2 -227.95 36.4 -227.95 L33.1 -228.45 29.05 -229.2 28.75 -229.65 Q29.6 -230.1 32.65 -230.4 L37.2 -230.55 Q37.2 -230.0 37.7 -229.2 L37.4 -228.4 M-20.2 -290.5 L-20.8 -290.6 -20.95 -292.4 -21.05 -293.15 -20.6 -293.15 -19.25 -293.1 -14.45 -291.95 -14.25 -291.2 -14.3 -291.1 -16.1 -290.55 -18.6 -290.35 -19.2 -290.35 -20.2 -290.5 M-28.6 -273.3 Q-29.6 -272.75 -30.4 -271.45 L-31.5 -269.5 -32.15 -267.85 Q-32.55 -266.8 -33.8 -267.0 -35.0 -267.25 -35.0 -268.85 -35.0 -269.8 -32.3 -272.0 -29.45 -274.3 -27.9 -274.25 L-27.65 -274.05 Q-27.6 -273.9 -28.6 -273.3 M-11.55 -245.1 L-14.3 -245.5 -17.65 -246.15 -17.85 -246.55 -14.65 -247.2 -10.85 -247.25 -10.45 -246.15 -10.65 -245.45 Q-10.85 -245.1 -11.55 -245.1 M-24.4 -205.35 L-21.15 -205.25 Q-18.95 -205.05 -18.4 -204.7 L-18.6 -204.4 -21.45 -203.85 -23.8 -203.5 -24.55 -203.75 -24.75 -204.4 Q-24.4 -205.0 -24.4 -205.35 M-6.25 -222.85 L-6.8 -224.3 Q-7.0 -224.9 -7.75 -225.95 -8.4 -227.0 -9.3 -227.55 L-10.05 -228.15 -9.85 -228.3 Q-8.55 -228.35 -6.1 -226.35 -3.8 -224.55 -3.8 -223.7 -3.8 -222.35 -4.85 -222.15 -5.9 -222.0 -6.25 -222.85 M-15.7 -244.4 L-15.8 -243.8 -15.9 -242.25 -16.45 -242.15 -17.3 -242.05 -17.75 -242.05 -19.95 -242.25 -21.45 -242.7 -21.5 -242.75 -21.25 -243.4 -17.25 -244.35 -15.7 -244.4" fill="#939393" fill-rule="evenodd" stroke="none"/>
    </g>
  </defs>
</svg>
