<?xml version="1.0" encoding="UTF-8" standalone="no"?>
<svg xmlns:ffdec="https://www.free-decompiler.com/flash" xmlns:xlink="http://www.w3.org/1999/xlink" ffdec:objectType="frame" height="122.0px" width="131.85px" xmlns="http://www.w3.org/2000/svg">
  <g transform="matrix(1.0, 0.0, 0.0, 1.0, 59.0, 293.15)">
    <use ffdec:characterId="2868" height="65.95" transform="matrix(1.0, 0.0, 0.0, 1.0, -44.05, -237.2)" width="94.1" xlink:href="#shape0"/>
  </g>
  <defs>
    <g id="shape0" transform="matrix(1.0, 0.0, 0.0, 1.0, 44.05, 237.2)">
      <path d="M24.75 -232.6 Q25.1 -230.65 24.55 -228.85 23.7 -226.05 20.6 -225.35 L23.5 -223.2 27.55 -219.85 31.0 -215.8 Q32.35 -214.0 33.85 -212.55 L36.1 -212.9 38.05 -212.2 Q40.25 -211.05 42.5 -210.45 45.25 -211.5 47.45 -209.9 L48.55 -208.7 49.75 -206.0 Q50.4 -204.05 49.7 -202.3 49.1 -200.7 47.85 -199.5 46.3 -198.0 44.0 -197.6 L39.25 -197.55 39.15 -196.05 38.3 -193.55 Q36.95 -191.0 35.0 -189.0 36.1 -187.85 36.3 -186.2 36.8 -183.4 35.3 -180.9 32.55 -176.35 28.25 -173.0 L25.75 -171.25 -26.5 -171.25 Q-27.85 -175.0 -27.8 -179.1 L-29.6 -179.05 Q-33.45 -179.1 -36.55 -181.5 L-38.8 -184.0 Q-40.45 -186.25 -40.75 -188.9 L-40.7 -191.25 Q-40.7 -191.8 -39.25 -193.65 L-39.1 -193.8 Q-41.3 -194.95 -42.55 -197.8 L-43.25 -199.8 Q-44.05 -201.45 -44.05 -202.7 L-43.8 -204.7 Q-43.7 -207.05 -42.55 -209.15 -41.75 -211.65 -38.45 -213.8 L-34.05 -216.8 -34.2 -217.4 -34.0 -217.45 -34.5 -220.95 Q-34.5 -224.3 -31.7 -228.1 -27.95 -233.3 -21.5 -233.2 -16.1 -233.05 -11.95 -228.1 L-11.8 -228.0 Q-10.6 -229.05 -9.05 -229.45 L-6.55 -229.65 Q-3.75 -230.85 -0.7 -231.5 3.75 -232.75 8.35 -233.25 L12.0 -231.95 Q12.7 -233.45 13.7 -234.6 16.1 -237.2 19.95 -237.15 21.45 -237.35 22.65 -236.25 24.35 -234.8 24.75 -232.6" fill="#a2a2a2" fill-rule="evenodd" stroke="none"/>
    </g>
  </defs>
</svg>
