<?xml version="1.0" encoding="UTF-8" standalone="no"?>
<svg xmlns:ffdec="https://www.free-decompiler.com/flash" xmlns:xlink="http://www.w3.org/1999/xlink" ffdec:objectType="frame" height="122.0px" width="131.85px" xmlns="http://www.w3.org/2000/svg">
  <g transform="matrix(1.0, 0.0, 0.0, 1.0, 59.0, 293.15)">
    <use ffdec:characterId="2871" height="105.5" transform="matrix(1.0, 0.0, 0.0, 1.0, -57.05, -276.75)" width="129.9" xlink:href="#shape0"/>
  </g>
  <defs>
    <g id="shape0" transform="matrix(1.0, 0.0, 0.0, 1.0, 57.05, 276.75)">
      <path d="M48.9 -255.3 Q48.85 -253.2 45.95 -248.5 45.15 -247.25 44.0 -246.25 40.8 -243.55 34.7 -242.85 L24.15 -242.3 Q28.15 -240.35 31.6 -237.6 38.3 -232.35 38.3 -227.95 38.3 -225.2 35.95 -224.05 34.35 -223.25 29.5 -222.65 18.6 -221.15 11.05 -218.15 L11.25 -215.05 Q11.25 -213.4 10.3 -212.5 L9.15 -209.95 Q8.6 -209.1 6.05 -208.0 L5.95 -207.95 5.4 -207.7 5.4 -207.6 Q8.8 -207.85 11.6 -206.5 L13.3 -205.4 14.7 -203.3 14.75 -203.25 14.8 -202.9 15.05 -203.05 15.1 -203.05 15.45 -203.2 25.3 -206.15 Q41.55 -205.0 47.45 -200.7 51.6 -197.7 51.6 -191.45 51.6 -186.95 48.1 -183.65 41.15 -177.15 22.7 -177.15 L22.6 -177.15 22.2 -177.15 21.9 -177.15 21.75 -177.15 17.75 -177.45 17.6 -177.45 14.05 -178.2 13.45 -178.4 13.2 -178.5 11.95 -179.05 11.65 -179.15 11.45 -179.25 11.4 -179.25 10.8 -179.15 Q6.05 -179.15 2.75 -182.5 0.3 -185.1 0.3 -186.55 0.3 -189.25 2.3 -190.25 L5.75 -190.65 5.75 -190.85 5.8 -191.65 5.4 -191.6 2.25 -191.25 1.8 -191.25 1.55 -191.25 1.55 -191.2 Q1.8 -190.5 1.55 -190.0 1.05 -188.9 -1.35 -188.9 -3.9 -189.95 -4.4 -190.7 L-5.25 -192.5 Q-5.95 -193.1 -5.95 -194.3 L-5.95 -194.8 -5.95 -194.95 -6.1 -194.9 -6.35 -194.8 -7.1 -194.55 Q-9.5 -193.75 -12.15 -193.75 L-13.1 -193.9 -13.2 -193.95 -13.4 -194.1 -14.15 -194.8 -15.75 -197.05 -15.95 -197.65 -16.15 -199.3 -16.9 -199.4 -17.2 -199.45 -18.9 -199.75 Q-22.35 -200.15 -23.5 -200.7 L-24.05 -201.0 -24.2 -201.2 -24.5 -201.45 -24.75 -201.85 -25.0 -202.7 -25.55 -202.7 -25.9 -202.75 -26.4 -202.8 -26.75 -202.8 -26.85 -202.85 -27.0 -202.85 -26.9 -202.7 -26.85 -202.6 -26.85 -202.55 -26.8 -202.4 -26.65 -201.0 -26.65 -200.7 Q-26.4 -198.35 -26.9 -196.0 -27.35 -193.55 -35.45 -193.05 -42.55 -192.55 -45.85 -193.15 L-46.6 -193.4 Q-49.7 -194.3 -49.8 -198.85 -49.8 -203.45 -48.0 -207.05 -46.2 -210.6 -39.9 -210.0 L-36.65 -209.55 -36.75 -209.75 -37.15 -213.25 -37.15 -213.3 -37.15 -213.4 -37.15 -213.9 Q-37.15 -218.6 -35.25 -220.65 L-35.15 -220.65 -35.05 -220.85 -34.8 -221.05 -33.9 -221.8 -33.0 -222.45 -32.8 -222.55 -32.65 -222.7 -32.7 -222.9 -32.7 -222.95 Q-32.75 -224.55 -27.85 -227.35 -23.0 -230.2 -19.35 -230.4 L-18.6 -230.45 -18.15 -230.45 -17.85 -230.45 -16.1 -230.3 -15.7 -230.7 -15.6 -230.75 -13.4 -232.2 Q-9.45 -234.1 -4.65 -233.7 L-4.65 -233.85 Q-7.6 -234.75 -7.9 -236.3 -8.5 -239.05 -8.2 -241.9 -8.2 -246.0 -4.0 -249.1 -1.85 -250.7 1.1 -251.55 3.85 -252.45 7.4 -252.7 12.5 -253.2 15.15 -251.3 L15.85 -250.7 15.85 -251.4 Q16.35 -260.9 19.55 -263.35 22.65 -265.8 29.05 -265.8 L30.2 -265.75 Q35.3 -265.4 42.05 -261.5 48.95 -257.5 48.9 -255.3 M40.7 -217.4 Q40.05 -220.7 40.35 -224.05 40.35 -228.95 45.45 -232.7 47.95 -234.6 51.5 -235.7 54.85 -236.75 59.05 -237.1 67.8 -237.9 70.4 -232.9 72.95 -227.85 72.85 -221.45 72.75 -215.05 68.45 -213.75 L67.3 -213.45 Q62.75 -212.55 52.75 -213.25 41.35 -214.05 40.7 -217.4 M-16.7 -276.7 Q-12.45 -276.4 -6.8 -273.15 -1.05 -269.8 -1.1 -268.0 -1.15 -266.2 -3.5 -262.3 L-5.2 -260.4 Q-7.85 -258.15 -12.9 -257.55 L-21.75 -257.1 Q-18.45 -255.45 -15.5 -253.2 -9.95 -248.8 -9.95 -245.1 -9.95 -242.8 -11.9 -241.9 -13.2 -241.2 -17.3 -240.65 -26.35 -239.4 -32.7 -236.95 L-32.5 -234.35 Q-32.5 -232.95 -33.3 -232.2 -33.75 -230.95 -34.3 -230.05 -34.9 -229.2 -37.9 -228.0 -40.7 -228.0 -41.3 -229.25 -41.55 -229.9 -41.3 -230.7 L-41.3 -230.75 Q-52.4 -231.15 -55.7 -236.3 -56.85 -238.1 -57.0 -240.55 L-56.9 -243.5 Q-56.9 -246.8 -53.1 -248.65 -49.8 -250.25 -45.85 -249.9 L-45.85 -250.15 Q-45.85 -257.6 -40.25 -259.8 -35.45 -261.75 -27.85 -259.45 L-26.45 -259.05 Q-28.9 -261.0 -28.7 -264.7 -28.25 -272.65 -25.6 -274.7 -23.0 -276.75 -17.65 -276.75 L-16.7 -276.7 M-52.6 -227.0 Q-50.4 -229.05 -47.35 -229.8 L-42.15 -229.55 Q-39.8 -228.4 -39.8 -225.2 -39.8 -223.5 -42.7 -220.5 -46.6 -216.5 -52.1 -216.5 L-52.85 -216.7 Q-56.55 -219.35 -55.0 -223.45 L-54.5 -224.4 Q-53.9 -225.8 -52.6 -227.0 M-3.65 -182.65 Q-2.0 -180.9 -2.0 -176.9 -2.0 -173.3 -3.05 -171.55 L-3.25 -171.25 -31.3 -171.25 -32.1 -171.95 Q-34.6 -174.3 -34.6 -177.5 -34.6 -182.0 -31.65 -184.1 -27.5 -187.1 -15.9 -188.0 -6.4 -185.8 -3.65 -182.65" fill="#afafaf" fill-rule="evenodd" stroke="none"/>
    </g>
  </defs>
</svg>
