<?xml version="1.0" encoding="UTF-8" standalone="no"?>
<svg xmlns:ffdec="https://www.free-decompiler.com/flash" xmlns:xlink="http://www.w3.org/1999/xlink" ffdec:objectType="frame" height="122.0px" width="131.85px" xmlns="http://www.w3.org/2000/svg">
  <g transform="matrix(1.0, 0.0, 0.0, 1.0, 59.0, 293.15)">
    <use ffdec:characterId="2873" height="105.2" transform="matrix(1.0, 0.0, 0.0, 1.0, -56.85, -278.7)" width="128.7" xlink:href="#shape0"/>
  </g>
  <defs>
    <g id="shape0" transform="matrix(1.0, 0.0, 0.0, 1.0, 56.85, 278.7)">
      <path d="M48.5 -258.6 Q48.5 -254.2 45.3 -251.3 43.95 -250.0 41.95 -249.15 38.3 -247.55 32.65 -247.55 21.15 -247.55 18.55 -250.7 17.65 -251.75 17.7 -253.3 L17.95 -255.45 Q17.95 -268.45 28.4 -268.15 L33.2 -267.55 Q38.55 -266.25 43.7 -263.1 48.5 -260.1 48.5 -258.6 M17.45 -251.65 Q18.0 -249.55 18.1 -247.25 25.85 -245.7 32.85 -241.95 39.55 -238.3 39.55 -236.1 L39.25 -231.4 Q31.75 -228.85 26.7 -227.7 12.35 -224.65 11.15 -225.15 9.9 -225.7 9.05 -218.95 8.3 -213.3 3.5 -213.1 4.3 -211.45 4.55 -209.15 L4.55 -208.95 4.55 -208.35 Q8.6 -208.5 11.35 -206.85 L12.95 -205.6 14.7 -206.85 Q20.5 -210.25 29.15 -209.85 37.6 -209.4 43.65 -205.8 50.2 -201.8 50.2 -195.95 50.2 -191.95 44.1 -189.35 35.75 -185.85 17.05 -185.85 14.1 -185.85 12.1 -186.7 12.1 -185.45 11.6 -184.8 L10.65 -184.0 Q4.3 -183.75 1.9 -186.2 0.65 -187.45 0.65 -189.3 0.65 -191.4 0.8 -191.8 4.8 -193.15 8.2 -191.4 7.7 -193.15 8.05 -195.05 L7.15 -194.7 6.3 -194.4 4.45 -193.8 4.25 -193.75 1.4 -193.1 1.15 -193.05 0.9 -193.05 Q-3.7 -192.3 -4.3 -197.1 -4.75 -199.95 -5.15 -200.95 L-12.05 -200.55 -13.4 -201.7 -13.85 -202.7 -16.9 -203.3 Q-20.5 -204.1 -25.9 -205.95 L-26.05 -209.3 -25.9 -209.95 -27.65 -209.95 -29.3 -210.0 Q-27.1 -208.1 -27.1 -205.5 -27.1 -203.7 -30.2 -201.75 -32.0 -200.65 -35.85 -200.35 L-45.8 -199.75 Q-48.25 -200.2 -48.85 -201.95 -49.05 -202.45 -49.05 -204.4 -49.05 -206.85 -48.5 -209.0 -47.7 -212.65 -45.8 -213.1 L-34.2 -212.55 -34.9 -213.8 Q-35.55 -215.8 -35.15 -217.95 -35.15 -222.35 -32.4 -225.3 -32.4 -226.35 -29.0 -228.5 -25.35 -230.75 -21.55 -231.7 L-18.15 -232.15 Q-16.15 -232.2 -14.65 -231.5 L-13.05 -232.65 Q-9.05 -234.95 -3.4 -234.75 -3.35 -239.15 -1.65 -242.1 L-3.75 -242.9 -4.05 -243.1 Q-7.65 -245.35 -7.65 -247.5 -7.65 -251.4 -3.45 -253.95 L-1.35 -255.05 Q4.4 -257.35 14.25 -256.4 16.5 -255.85 17.45 -251.65 M71.6 -225.75 Q70.75 -223.3 67.2 -222.75 L53.4 -223.6 Q47.9 -223.95 45.35 -225.5 41.0 -228.2 41.0 -230.8 41.0 -235.5 46.05 -238.55 L48.6 -239.8 Q55.4 -242.55 67.2 -241.5 69.95 -240.8 71.1 -235.75 71.85 -232.65 71.85 -229.2 L71.6 -225.75 M-5.4 -274.45 Q-1.45 -272.0 -1.45 -270.7 -1.45 -267.1 -4.1 -264.6 -5.25 -263.55 -6.85 -262.8 -9.95 -261.5 -14.65 -261.5 -24.25 -261.5 -26.4 -264.15 -27.2 -265.0 -27.15 -266.25 L-27.0 -268.05 Q-27.0 -275.1 -23.25 -277.5 -21.25 -278.8 -18.15 -278.7 L-14.2 -278.2 -11.8 -277.5 Q-8.55 -276.4 -5.4 -274.45 M-26.8 -261.25 Q-20.35 -259.95 -14.45 -256.8 -8.9 -253.75 -8.9 -251.9 L-9.1 -248.0 Q-15.4 -245.85 -19.65 -244.9 -31.65 -242.35 -32.65 -242.8 -33.65 -243.2 -34.35 -237.55 -35.1 -231.95 -40.55 -232.85 -46.0 -233.75 -51.5 -236.45 -56.85 -239.0 -56.85 -242.25 -56.85 -246.75 -52.8 -249.05 -49.5 -251.0 -44.8 -250.75 -44.7 -258.15 -39.2 -260.7 -34.55 -262.8 -26.8 -261.25 M-49.95 -230.4 Q-45.6 -233.2 -40.4 -231.35 -40.2 -230.85 -40.2 -228.45 -40.2 -226.3 -41.7 -224.8 -44.5 -221.95 -52.0 -222.2 L-53.1 -223.15 Q-53.65 -223.9 -53.65 -225.45 -53.65 -228.0 -49.95 -230.4 M-10.05 -173.5 Q-23.35 -173.5 -29.3 -176.05 -33.6 -177.85 -33.6 -180.7 -33.6 -184.85 -28.95 -187.75 -24.6 -190.3 -18.6 -190.55 -12.5 -190.85 -8.35 -188.45 -3.7 -185.65 -3.7 -180.35 -3.35 -178.5 -3.9 -176.8 -5.15 -173.5 -10.05 -173.5" fill="#b6b6b6" fill-rule="evenodd" stroke="none"/>
    </g>
  </defs>
</svg>
