<?xml version="1.0" encoding="UTF-8" standalone="no"?>
<svg xmlns:ffdec="https://www.free-decompiler.com/flash" xmlns:xlink="http://www.w3.org/1999/xlink" ffdec:objectType="frame" height="109.7px" width="55.85px" xmlns="http://www.w3.org/2000/svg">
  <g transform="matrix(1.0, 0.0, 0.0, 1.0, 27.0, 70.9)">
    <use ffdec:characterId="1409" height="68.5" transform="matrix(1.0, 0.0, 0.0, 1.0, -15.2, -35.2)" width="30.8" xlink:href="#shape0"/>
    <use ffdec:characterId="1408" height="30.9" id="wound" transform="matrix(1.0, 0.0, 0.0, 1.0, -13.0, -30.9)" width="23.6" xlink:href="#sprite0"/>
    <use ffdec:characterId="1138" height="0.0" id="spineRef" transform="matrix(1.0, 0.0, 0.0, 1.0, 0.85, -40.9)" width="0.0" xlink:href="#sprite1"/>
  </g>
  <defs>
    <g id="shape0" transform="matrix(1.0, 0.0, 0.0, 1.0, 15.2, 35.2)">
      <path d="M15.05 -5.8 Q14.85 -7.25 13.35 -8.1 11.0 -9.45 10.5 -10.25 L8.2 -14.2 8.05 -15.4 8.0 -18.2 8.0 -18.3 7.8 -19.4 7.25 -23.25 6.85 -25.75 6.45 -26.75 5.4 -28.5 4.25 -30.15 Q2.4 -32.25 -0.35 -32.25 -5.9 -32.25 -9.7 -26.15 -12.85 -21.05 -13.0 -15.75 L-13.25 -22.25 -13.15 -24.15 -12.45 -26.5 Q-11.85 -28.65 -6.7 -33.15 -1.6 -37.7 3.8 -32.05 L9.35 -26.2 Q10.2 -23.25 11.75 -19.55 L13.4 -15.4 14.6 -11.6 Q15.2 -9.15 15.15 -7.4 L15.15 -6.7 15.05 -5.8" fill="#a07acd" fill-rule="evenodd" stroke="none"/>
      <path d="M-14.55 -9.5 Q-14.05 -6.4 -12.9 -3.0 L-12.25 -1.4 -12.35 -1.3 -12.95 -0.45 -13.05 0.7 -12.15 1.65 -10.9 2.2 -9.7 5.65 -9.8 5.7 -10.45 6.35 -10.95 5.5 -11.55 5.0 -12.05 5.6 -12.6 6.75 -13.35 5.1 -14.25 -5.4 -14.55 -9.5 M-9.2 -1.55 L-9.25 -4.5 Q-9.9 -13.3 -8.75 -16.6 -8.75 -21.15 -6.75 -24.0 -4.6 -27.0 -0.85 -27.0 4.8 -27.0 5.75 -21.25 6.1 -19.25 5.95 -15.65 L5.95 -15.4 5.75 -9.75 Q5.75 -4.65 12.25 -4.05 L13.15 -3.65 13.7 -3.15 13.75 -3.4 13.75 -2.5 13.4 -1.7 13.45 -1.65 13.45 -1.6 Q13.25 -1.0 13.5 -0.35 L14.1 0.9 15.5 2.75 15.6 2.9 15.55 3.0 15.1 3.1 Q13.75 3.1 12.1 1.2 L12.0 1.1 12.0 1.05 11.55 0.55 11.25 0.6 11.0 0.4 11.05 0.3 11.65 -1.2 11.6 -1.4 11.45 -1.65 10.75 -1.75 11.0 -2.2 10.6 -2.6 10.8 -3.55 10.75 -4.15 Q10.35 -4.1 9.65 -3.25 L8.85 -2.4 Q7.4 -2.4 7.0 -3.0 L6.3 -3.65 6.1 -3.6 5.3 -4.25 4.85 -4.55 Q2.75 -5.85 2.75 -4.0 L3.2 -3.0 3.65 -2.05 4.65 -0.1 5.15 0.75 Q4.8 0.4 4.3 0.35 3.5 0.25 3.5 1.15 L3.6 1.6 Q3.85 2.15 4.6 2.15 L5.4 2.0 5.5 1.35 Q6.5 2.85 7.35 3.25 L7.1 3.5 4.0 3.3 Q3.55 3.4 3.05 4.65 L2.6 4.75 0.2 3.35 0.75 3.3 Q3.4 2.55 3.0 -0.15 L2.9 -0.65 -1.25 -0.55 -1.35 0.6 -0.8 2.85 -3.25 2.15 -4.15 2.75 -4.4 3.2 -4.6 3.7 -4.75 4.3 -4.45 4.8 -4.15 5.15 -4.45 5.4 -4.65 5.65 -5.2 6.15 -6.25 5.6 -7.55 5.4 -9.15 5.5 -9.2 3.95 Q-8.75 4.65 -7.85 4.75 L-7.2 4.1 Q-6.4 3.15 -6.75 2.0 -6.75 0.35 -8.0 -0.8 L-9.2 -1.55 M-6.45 19.85 L-6.6 19.9 -6.7 19.8 -6.45 19.85" fill="#775d95" fill-rule="evenodd" stroke="none"/>
      <path d="M-13.15 -24.15 L-13.25 -22.25 -13.0 -15.75 Q-12.85 -21.05 -9.7 -26.15 -5.9 -32.25 -0.35 -32.25 2.4 -32.25 4.25 -30.15 L5.4 -28.5 6.45 -26.75 6.85 -25.75 7.25 -23.25 7.8 -19.4 8.0 -18.3 8.0 -18.2 8.05 -15.4 8.2 -14.2 10.5 -10.25 Q11.0 -9.45 13.35 -8.1 14.85 -7.25 15.05 -5.8 L14.95 -5.15 14.0 -2.65 13.45 -1.65 13.45 -1.6 13.45 -1.65 13.4 -1.7 13.75 -2.5 13.75 -3.4 13.7 -3.15 13.15 -3.65 12.25 -4.05 Q5.75 -4.65 5.75 -9.75 L5.95 -15.4 5.95 -15.65 Q6.1 -19.25 5.75 -21.25 4.8 -27.0 -0.85 -27.0 -4.6 -27.0 -6.75 -24.0 -8.75 -21.15 -8.75 -16.6 -9.9 -13.3 -9.25 -4.5 L-9.2 -1.55 -11.1 -1.95 -11.9 -1.75 -12.25 -1.4 -12.9 -3.0 Q-14.05 -6.4 -14.55 -9.5 L-14.75 -13.55 -14.75 -14.25 Q-14.8 -18.4 -13.95 -21.25 L-13.15 -24.15 M-13.1 8.6 L-13.35 5.1 -12.6 6.75 -12.8 8.0 -13.1 8.6 M-9.2 3.95 L-9.15 5.5 -9.7 5.65 -10.9 2.2 -9.85 2.65 -9.3 3.8 -9.2 3.95" fill="#8667aa" fill-rule="evenodd" stroke="none"/>
      <path d="M3.65 -2.05 L5.0 -0.1 5.1 0.05 Q6.1 1.35 7.25 1.35 L7.9 0.65 8.05 0.2 Q8.5 -1.0 9.35 -1.0 9.8 -1.0 10.0 -0.65 L10.6 0.1 11.05 0.3 11.0 0.4 11.25 0.6 11.55 0.55 12.0 1.05 12.0 1.1 12.0 1.15 Q12.0 3.1 11.6 4.85 L10.15 4.25 10.6 3.9 10.75 2.9 10.6 1.85 9.65 1.95 8.65 3.65 7.5 3.65 Q8.05 4.65 7.7 5.45 7.5 5.95 6.95 6.1 L6.65 5.95 6.4 5.35 5.65 5.0 Q4.3 4.3 3.05 4.65 3.55 3.4 4.0 3.3 L7.1 3.5 7.35 3.25 Q6.5 2.85 5.5 1.35 L5.15 0.75 4.65 -0.1 3.65 -2.05 M2.9 -0.65 L3.0 -0.15 Q3.4 2.55 0.75 3.3 L0.2 3.35 2.6 4.75 1.85 5.05 1.35 4.35 -0.2 4.4 -0.55 4.85 1.65 5.25 4.05 10.2 5.75 10.8 5.4 8.0 8.25 10.9 6.05 12.75 3.45 10.85 -0.5 7.35 1.6 10.75 0.9 12.05 0.25 12.1 -0.75 14.6 -1.95 14.15 Q-5.8 11.1 -9.15 13.25 L-9.7 13.6 -10.6 14.35 -10.8 11.5 -11.25 11.05 -12.9 11.8 -13.6 12.05 -14.0 12.15 -13.5 11.5 -12.75 10.05 -12.25 9.2 Q-11.6 8.25 -10.55 7.7 L-10.15 8.1 Q-7.7 9.25 -5.15 8.05 L-4.55 7.7 -4.8 6.45 -3.9 8.15 -1.85 6.75 -3.4 5.8 -4.15 5.2 -4.15 5.15 -4.45 4.8 -4.75 4.3 -4.6 3.7 -4.4 3.2 -4.15 2.75 -3.25 2.15 -0.8 2.85 -1.35 0.6 -0.2 1.3 Q1.5 2.0 2.85 0.75 L2.9 -0.65 M11.85 6.75 Q11.55 6.75 11.3 6.9 10.85 7.1 10.6 7.7 L9.6 9.35 9.1 8.9 8.1 8.05 7.15 7.3 Q8.1 7.9 9.3 7.7 L9.6 7.3 Q10.1 6.65 9.95 5.75 L11.85 6.75 M4.45 14.75 L3.3 16.8 2.1 15.35 1.15 14.2 1.15 12.45 4.45 14.75 M1.85 19.55 Q2.3 20.6 1.45 21.5 L0.55 22.45 0.45 22.65 0.15 23.6 -0.4 23.4 Q-1.75 23.15 -3.0 23.95 L-4.95 25.95 -5.2 25.8 -5.8 25.9 -6.0 24.6 -6.8 24.1 0.5 20.8 0.5 19.8 0.0 18.4 Q-0.15 18.1 -0.75 18.25 L-2.55 19.0 -5.05 19.4 -5.25 19.8 -1.3 19.9 -5.2 22.2 -7.05 22.05 -7.45 21.25 -8.0 19.9 -8.45 20.0 -8.65 19.9 -8.15 19.6 -7.85 19.5 -7.7 19.4 -7.6 19.4 -7.4 19.35 -5.45 19.65 Q-5.0 19.75 -5.0 18.6 L-5.0 18.4 -4.7 18.35 -4.55 18.15 -4.4 18.0 -4.3 17.65 -4.05 17.2 -3.0 16.15 Q-2.25 16.25 -2.0 15.95 L-1.7 15.85 -1.65 15.85 0.4 17.25 1.3 18.7 1.85 19.55 M0.1 25.15 Q0.15 26.0 -0.35 27.25 L-0.4 27.3 -0.85 28.3 -0.85 28.4 -0.95 28.75 Q-1.7 28.9 -2.3 29.65 L-3.0 30.8 -5.0 29.45 -3.6 28.75 -2.75 28.95 -2.4 28.0 Q-1.75 26.55 -2.25 25.1 L-1.9 24.65 0.1 25.15 M-9.65 18.7 Q-10.15 17.75 -10.45 16.25 -10.0 16.15 -9.65 15.85 L-9.05 15.4 -8.5 15.4 -7.15 15.15 Q-6.65 14.9 -6.5 14.35 L-5.75 15.2 -5.2 15.55 -4.45 15.8 -4.8 15.9 -7.2 16.4 -7.6 17.05 -7.9 17.55 -8.0 17.6 -8.45 17.9 -9.65 18.7 M-10.9 2.2 L-12.15 1.65 -13.05 0.7 -12.95 -0.45 -12.35 -1.3 -12.25 0.5 -11.45 0.75 -9.55 0.7 -9.0 1.2 -9.25 2.95 -9.2 3.0 Q-7.9 3.45 -6.9 2.55 L-6.75 2.0 Q-6.4 3.15 -7.2 4.1 L-7.85 4.75 Q-8.75 4.65 -9.2 3.95 L-9.3 3.8 -9.85 2.65 -10.9 2.2 M-6.45 19.85 L-6.7 19.8 -6.6 19.9 -6.45 19.85" fill="#990000" fill-rule="evenodd" stroke="none"/>
      <path d="M-12.25 -1.4 L-11.9 -1.75 -11.1 -1.95 -9.2 -1.55 -8.0 -0.8 Q-6.75 0.35 -6.75 2.0 L-6.9 2.55 Q-7.9 3.45 -9.2 3.0 L-9.25 2.95 -9.0 1.2 -9.55 0.7 -11.45 0.75 -12.25 0.5 -12.35 -1.3 -12.25 -1.4 M5.15 0.75 L5.5 1.35 5.4 2.0 4.6 2.15 Q3.85 2.15 3.6 1.6 L3.5 1.15 Q3.5 0.25 4.3 0.35 4.8 0.4 5.15 0.75 M3.05 4.65 Q4.3 4.3 5.65 5.0 L6.4 5.35 6.65 5.95 6.95 6.1 Q7.5 5.95 7.7 5.45 8.05 4.65 7.5 3.65 L8.65 3.65 9.65 1.95 10.6 1.85 10.75 2.9 10.6 3.9 10.15 4.25 9.95 5.75 Q10.1 6.65 9.6 7.3 L9.3 7.7 Q8.1 7.9 7.15 7.3 L6.65 6.9 4.1 6.15 5.4 8.0 5.75 10.8 4.05 10.2 1.65 5.25 -0.55 4.85 -0.2 4.4 1.35 4.35 1.85 5.05 2.6 4.75 3.05 4.65 M6.1 15.8 L4.45 14.75 1.15 12.45 1.15 14.2 1.6 16.8 2.6 18.25 Q3.3 19.25 3.95 19.85 L4.7 20.9 Q2.95 20.95 1.85 19.55 L1.3 18.7 0.4 17.25 -1.65 15.85 -1.7 15.85 -2.0 15.95 Q-2.25 16.25 -3.0 16.15 L-4.05 17.2 -4.3 17.65 -4.4 18.0 -4.55 18.15 -4.7 18.35 -5.0 18.4 Q-6.5 16.55 -7.6 17.05 L-7.2 16.4 -4.8 15.9 -4.45 15.8 -5.2 15.55 -5.75 15.2 -6.5 14.35 -6.55 14.05 -6.6 13.45 Q-6.7 12.9 -7.0 12.9 L-8.35 13.15 -9.1 13.4 -9.65 13.6 -9.7 13.6 -9.15 13.25 Q-5.8 11.1 -1.95 14.15 L-0.75 14.6 0.25 12.1 0.9 12.05 1.6 10.75 -0.5 7.35 3.45 10.85 Q5.1 12.5 6.15 14.5 L6.2 14.55 6.35 14.9 6.45 15.15 6.65 15.9 6.7 16.15 6.1 15.8 M0.15 23.6 L0.6 23.85 0.7 24.65 0.1 25.15 -1.9 24.65 -2.25 25.1 Q-1.75 26.55 -2.4 28.0 L-2.75 28.95 -3.6 28.75 -2.95 27.8 -3.05 27.2 Q-6.75 29.4 -4.95 25.95 L-3.0 23.95 Q-1.75 23.15 -0.4 23.4 L0.15 23.6 M-0.4 27.3 Q-0.05 28.75 0.4 29.05 L0.35 29.15 -0.8 30.7 -1.85 32.05 -2.3 32.6 -2.6 32.65 -2.75 32.6 Q-3.05 32.6 -3.15 32.25 L-3.2 32.05 Q-3.3 31.45 -3.0 30.8 L-2.3 29.65 Q-1.7 28.9 -0.95 28.75 L-0.85 28.4 -0.85 28.3 -0.4 27.3 M-6.8 24.1 L-7.45 24.1 -7.85 23.8 -7.65 22.55 -7.05 22.05 -5.2 22.2 -1.3 19.9 -5.25 19.8 -5.05 19.4 -2.55 19.0 -0.75 18.25 Q-0.15 18.1 0.0 18.4 L0.5 19.8 0.5 20.8 -6.8 24.1 M2.9 -0.65 L2.85 0.75 Q1.5 2.0 -0.2 1.3 L-1.35 0.6 -1.25 -0.55 2.9 -0.65 M-4.8 6.45 L-4.55 7.7 -5.15 8.05 Q-7.7 9.25 -10.15 8.1 L-10.55 7.7 -10.65 7.6 -10.45 6.35 -9.8 5.7 -9.7 5.65 -9.15 5.5 -7.55 5.4 -6.25 5.6 -5.2 6.15 -4.85 6.45 -4.8 6.45" fill="#ff0000" fill-rule="evenodd" stroke="none"/>
      <path d="M10.15 4.25 L11.6 4.85 12.4 5.25 12.3 6.0 11.8 6.0 11.85 6.75 9.95 5.75 10.15 4.25 M9.6 9.35 L11.05 10.7 11.4 11.05 11.35 11.75 10.95 11.85 10.85 11.85 Q9.5 11.65 8.3 10.9 L8.25 10.9 5.4 8.0 4.1 6.15 6.65 6.9 7.15 7.3 8.1 8.05 9.1 8.9 9.6 9.35 M6.05 12.75 Q8.5 14.55 8.5 15.5 8.5 16.5 7.85 16.5 7.05 16.5 6.1 15.8 L6.7 16.15 6.65 15.9 6.45 15.15 6.35 14.9 6.2 14.55 6.15 14.5 Q5.1 12.5 3.45 10.85 L6.05 12.75 M3.3 16.8 L5.2 19.35 6.5 21.55 6.65 21.9 6.25 22.4 6.2 22.35 4.8 21.0 4.7 20.9 3.95 19.85 Q3.3 19.25 2.6 18.25 L1.6 16.8 1.15 14.2 2.1 15.35 3.3 16.8 M0.35 29.15 L0.7 29.3 1.35 29.25 Q1.75 29.2 1.1 30.85 L0.35 32.1 Q-0.15 32.65 -0.7 32.85 L-2.0 33.3 Q-2.45 33.3 -2.6 32.65 L-2.3 32.6 -1.85 32.05 -0.8 30.7 0.35 29.15 M-5.0 29.45 L-6.75 29.65 -7.1 28.7 -5.8 25.9 -5.2 25.8 -4.95 25.95 Q-6.75 29.4 -3.05 27.2 L-2.95 27.8 -3.6 28.75 -5.0 29.45 M-8.65 19.9 L-9.5 20.15 -10.3 20.0 -10.4 19.85 -10.5 19.4 -9.65 18.7 -8.45 17.9 -8.0 17.6 -7.9 17.55 -7.6 17.05 Q-6.5 16.55 -5.0 18.4 L-5.0 18.6 Q-5.0 19.75 -5.45 19.65 L-7.4 19.35 -7.6 19.4 -7.7 19.4 -7.85 19.5 -8.15 19.6 -8.65 19.9 M-10.45 16.25 L-10.75 16.25 Q-11.55 16.25 -11.75 15.85 L-11.75 15.4 -10.6 14.35 -9.7 13.6 -9.65 13.6 -9.1 13.4 -8.35 13.15 -7.0 12.9 Q-6.7 12.9 -6.6 13.45 L-6.55 14.05 -6.5 14.35 Q-6.65 14.9 -7.15 15.15 L-8.5 15.4 -9.05 15.4 -9.65 15.85 Q-10.0 16.15 -10.45 16.25" fill="#ffffff" fill-rule="evenodd" stroke="none"/>
      <path d="M11.05 0.3 L10.6 0.1 10.0 -0.65 Q9.8 -1.0 9.35 -1.0 8.5 -1.0 8.05 0.2 L7.9 0.65 7.25 1.35 Q6.1 1.35 5.1 0.05 L5.0 -0.1 3.65 -2.05 3.2 -3.0 2.75 -4.0 Q2.75 -5.85 4.85 -4.55 L5.3 -4.25 6.1 -3.6 6.3 -3.65 7.0 -3.0 Q7.4 -2.4 8.85 -2.4 L9.65 -3.25 Q10.35 -4.1 10.75 -4.15 L10.8 -3.55 10.6 -2.6 11.0 -2.2 10.75 -1.75 11.45 -1.65 11.6 -1.4 11.65 -1.2 11.05 0.3 M-14.0 12.15 L-15.2 12.3 -13.1 8.6 -12.8 8.0 -12.6 6.75 -12.05 5.6 -11.55 5.0 -10.95 5.5 -10.45 6.35 -10.65 7.6 -10.55 7.7 Q-11.6 8.25 -12.25 9.2 L-12.75 10.05 -13.5 11.5 -14.0 12.15 M-4.15 5.15 L-4.15 5.2 -3.4 5.8 -1.85 6.75 -3.9 8.15 -4.8 6.45 -4.85 6.45 -5.2 6.15 -4.65 5.65 -4.45 5.4 -4.15 5.15" fill="#872f4c" fill-rule="evenodd" stroke="none"/>
    </g>
    <g id="sprite0" transform="matrix(1.0, 0.0, 0.0, 1.0, 11.8, 15.45)">
      <use ffdec:characterId="1407" height="30.9" transform="matrix(1.0, 0.0, 0.0, 1.0, -11.8, -15.45)" width="23.6" xlink:href="#shape1"/>
    </g>
    <g id="shape1" transform="matrix(1.0, 0.0, 0.0, 1.0, 11.8, 15.45)">
      <path d="M6.9 -9.7 L7.55 -8.25 Q8.2 -6.5 8.2 -4.2 8.2 -3.15 7.65 -1.5 L7.4 -0.65 7.6 -0.7 8.2 -0.65 8.2 -0.75 Q8.2 -2.0 8.9 -2.5 L8.7 -1.65 10.05 0.2 11.0 -0.1 Q11.5 -1.5 10.8 -2.6 11.8 -2.15 11.8 -0.35 11.8 1.65 10.05 1.65 L8.95 1.35 8.95 1.55 8.95 1.6 8.7 1.3 Q8.2 0.75 7.5 0.75 6.5 0.75 6.4 1.0 L6.4 2.5 6.45 4.3 7.0 6.4 7.0 7.0 6.95 7.1 Q6.15 10.95 2.7 10.95 L1.3 10.8 Q1.25 11.35 0.75 11.7 L-0.55 12.05 Q-2.2 12.05 -2.8 11.0 L-3.1 10.05 Q-3.1 8.75 -2.25 8.45 L-4.3 6.15 -4.2 5.95 -4.6 5.85 Q-4.55 5.3 -4.3 5.05 L-4.3 5.9 -3.3 5.95 Q-2.65 5.95 -2.1 5.55 L-3.1 4.4 -3.2 4.35 -3.35 3.65 -4.2 2.9 -4.05 2.25 -7.05 -0.85 Q-8.0 -2.3 -8.0 -5.6 -8.0 -7.75 -6.1 -10.5 -4.2 -13.25 -2.65 -13.25 L1.1 -13.0 4.0 -12.6 5.15 -11.65 6.15 -10.5 6.9 -9.7 M-4.6 6.7 Q-4.6 7.25 -5.0 7.8 -5.55 8.45 -6.4 8.45 -7.8 8.45 -7.8 7.25 -7.8 6.5 -6.95 6.15 L-6.95 7.05 -6.9 7.05 -6.85 7.15 -6.8 7.2 -5.5 7.2 Q-4.85 7.15 -4.75 6.95 L-4.6 6.7 M-1.0 -11.2 L-1.2 -10.75 Q-2.7 -10.3 -2.7 -9.05 -2.75 -7.85 -2.4 -7.4 L-2.7 -6.35 Q-2.7 -5.45 -2.2 -4.5 L-2.15 -4.3 -2.8 -4.6 0.15 -1.5 0.25 -0.85 1.45 -0.55 1.45 -0.15 1.2 0.45 1.45 0.8 3.4 0.5 Q3.45 2.1 2.4 3.25 1.5 4.25 0.15 4.2 L1.7 4.65 6.45 -1.05 5.35 -0.55 4.65 -0.7 4.05 -1.55 5.05 -2.35 6.45 -2.7 Q7.5 -3.15 7.85 -4.3 8.1 -5.15 7.75 -6.15 L7.1 -6.7 7.35 -8.05 Q6.75 -9.05 5.35 -9.35 4.35 -9.45 3.5 -10.05 L2.8 -11.7 Q1.75 -11.95 0.8 -11.3 L0.85 -11.15 0.65 -11.3 -0.3 -11.6 0.05 -11.85 -0.1 -12.15 -2.55 -12.65 -3.45 -12.15 -4.95 -10.35 -5.1 -10.05 Q-5.45 -8.85 -7.2 -6.1 L-5.1 -8.3 Q-4.45 -9.65 -2.9 -10.3 L-1.0 -11.2 M1.45 -2.3 L0.45 -3.5 -0.15 -4.65 -0.55 -5.3 -0.55 -5.4 -0.35 -5.55 -0.45 -5.6 Q-0.2 -6.1 0.95 -6.45 L1.2 -6.5 1.2 -6.35 Q1.2 -5.7 2.0 -5.2 2.85 -4.7 4.05 -4.7 L4.25 -4.7 4.05 -4.1 4.5 -3.05 Q3.65 -2.05 2.15 -2.3 L1.45 -2.3 M5.3 -6.1 L5.3 -6.6 Q5.3 -8.7 3.25 -8.55 L2.4 -8.35 2.45 -9.25 2.25 -9.95 5.6 -8.6 5.8 -6.75 5.3 -6.1 M-4.3 -8.25 L-5.1 -7.1 -5.6 -5.9 -5.85 -4.8 Q-6.05 -3.15 -5.7 -1.45 -5.5 -0.6 -4.8 0.35 L-2.6 -0.7 -1.05 0.1 -1.2 -0.15 -1.65 -0.8 -3.0 -2.25 Q-3.85 -3.1 -5.1 -3.35 L-4.1 -7.4 -4.3 -8.25 M5.15 5.5 Q4.45 6.2 4.15 7.15 L3.2 7.65 1.45 7.55 1.45 9.2 3.2 9.05 3.45 8.25 4.05 8.05 Q5.35 7.75 5.7 6.4 5.25 6.75 5.55 5.75 5.7 4.9 5.15 5.5 M0.1 8.35 Q-1.1 7.75 -1.95 8.85 L-2.55 10.05 Q-2.6 10.5 -2.25 10.7 -0.8 11.4 0.25 10.4 L0.1 8.35 M-7.35 9.95 Q-5.8 10.25 -5.05 11.55 -4.25 12.95 -4.75 14.65 -5.15 15.25 -5.9 15.4 -7.5 15.6 -8.25 14.25 L-8.55 13.35 Q-8.65 12.05 -8.25 10.6 -8.35 12.3 -6.7 12.5 L-6.2 12.45 -6.0 13.65 -4.95 13.55 -4.8 12.2 -7.35 9.95" fill="#990000" fill-rule="evenodd" stroke="none"/>
      <path d="M8.9 -2.5 L9.3 -2.85 9.95 -2.9 10.8 -2.6 Q11.5 -1.5 11.0 -0.1 L10.05 0.2 8.7 -1.65 8.9 -2.5 M-4.3 6.15 L-4.6 6.7 -4.75 6.95 Q-4.85 7.15 -5.5 7.2 L-6.8 7.2 -6.85 7.15 -6.9 7.05 -6.95 7.05 -6.95 6.15 -6.95 5.95 -6.85 5.65 -5.55 5.7 -4.85 5.55 -4.8 5.8 -4.6 5.85 -4.2 5.95 -4.3 6.15 M-4.3 5.05 L-4.3 3.95 -3.2 4.35 -3.1 4.4 -2.1 5.55 Q-2.65 5.95 -3.3 5.95 L-4.3 5.9 -4.3 5.05 M-0.3 -11.6 L-1.0 -11.2 -2.9 -10.3 Q-4.45 -9.65 -5.1 -8.3 L-7.2 -6.1 Q-5.45 -8.85 -5.1 -10.05 L-4.95 -10.35 -3.45 -12.15 -2.55 -12.65 -0.1 -12.15 0.05 -11.85 -0.3 -11.6 M0.3 -9.8 L0.4 -9.8 0.65 -9.35 0.55 -9.0 0.9 -9.05 1.1 -9.0 1.15 -8.6 Q1.15 -7.95 0.2 -7.35 -0.6 -6.85 -1.15 -6.85 -1.8 -6.85 -1.7 -7.05 L-1.7 -7.1 -1.8 -7.3 0.05 -8.8 -0.1 -9.4 0.0 -9.85 0.3 -9.8 M-2.15 -4.3 L1.0 -2.3 1.45 -2.3 2.15 -2.3 Q3.65 -2.05 4.5 -3.05 L4.05 -4.1 4.25 -4.7 5.3 -6.1 5.8 -6.75 5.6 -8.6 2.25 -9.95 0.85 -11.15 0.8 -11.3 Q1.75 -11.95 2.8 -11.7 L3.5 -10.05 Q4.35 -9.45 5.35 -9.35 6.75 -9.05 7.35 -8.05 L7.1 -6.7 7.75 -6.15 Q8.1 -5.15 7.85 -4.3 7.5 -3.15 6.45 -2.7 L5.05 -2.35 4.05 -1.55 4.65 -0.7 5.35 -0.55 6.45 -1.05 1.7 4.65 0.15 4.2 Q1.5 4.25 2.4 3.25 3.45 2.1 3.4 0.5 L1.45 0.8 1.2 0.45 1.45 -0.15 1.45 -0.55 0.25 -0.85 0.15 -1.5 -2.8 -4.6 -2.15 -4.3 M-4.3 -8.25 L-4.1 -7.4 -5.1 -3.35 Q-3.85 -3.1 -3.0 -2.25 L-1.65 -0.8 -1.2 -0.15 -1.05 0.1 -2.6 -0.7 -4.8 0.35 Q-5.5 -0.6 -5.7 -1.45 -6.05 -3.15 -5.85 -4.8 L-5.6 -5.9 -5.1 -7.1 -4.3 -8.25 M0.1 8.35 L0.25 10.4 Q-0.8 11.4 -2.25 10.7 -2.6 10.5 -2.55 10.05 L-1.95 8.85 Q-1.1 7.75 0.1 8.35 M5.15 5.5 Q5.7 4.9 5.55 5.75 5.25 6.75 5.7 6.4 5.35 7.75 4.05 8.05 L3.45 8.25 3.2 9.05 1.45 9.2 1.45 7.55 3.2 7.65 4.15 7.15 Q4.45 6.2 5.15 5.5 M-8.25 10.6 Q-7.95 9.95 -7.35 9.95 L-4.8 12.2 -4.95 13.55 -6.0 13.65 -6.2 12.45 -6.7 12.5 Q-8.35 12.3 -8.25 10.6" fill="#ff0000" fill-rule="evenodd" stroke="none"/>
      <path d="M-1.0 -11.2 L-0.3 -11.6 0.65 -11.3 0.85 -11.15 2.25 -9.95 2.45 -9.25 2.4 -8.35 3.25 -8.55 Q5.3 -8.7 5.3 -6.6 L5.3 -6.1 4.25 -4.7 4.05 -4.7 Q2.85 -4.7 2.0 -5.2 1.2 -5.7 1.2 -6.35 L1.2 -6.5 0.95 -6.45 Q-0.2 -6.1 -0.45 -5.6 L-0.35 -5.55 -0.55 -5.4 -0.55 -5.3 -0.15 -4.65 0.45 -3.5 1.45 -2.3 1.0 -2.3 -2.15 -4.3 -2.2 -4.5 Q-2.7 -5.45 -2.7 -6.35 L-2.4 -7.4 Q-2.2 -7.1 -1.8 -7.1 L-1.7 -7.1 -1.7 -7.05 Q-1.8 -6.85 -1.15 -6.85 -0.6 -6.85 0.2 -7.35 1.15 -7.95 1.15 -8.6 L1.1 -9.0 0.9 -9.05 0.55 -9.0 0.65 -9.35 0.4 -9.8 0.3 -9.8 Q0.1 -11.2 -1.2 -10.75 L-1.0 -11.2" fill="#650101" fill-rule="evenodd" stroke="none"/>
      <path d="M-1.2 -10.75 Q0.1 -11.2 0.3 -9.8 L0.0 -9.85 -0.1 -9.4 0.05 -8.8 -1.8 -7.3 -1.7 -7.1 -1.8 -7.1 Q-2.2 -7.1 -2.4 -7.4 -2.75 -7.85 -2.7 -9.05 -2.7 -10.3 -1.2 -10.75" fill="#ffffff" fill-rule="evenodd" stroke="none"/>
      <path d="M-4.2 2.9 L-7.8 0.0 -7.8 1.15 -7.55 2.05 -7.3 2.95 -7.3 4.2 -7.8 4.45 -9.05 1.4 Q-9.8 -0.95 -9.8 -1.9 L-9.8 -2.45 -9.65 -2.4 -9.8 -3.65 Q-9.8 -4.85 -9.2 -5.8 L-9.1 -5.9 -9.35 -6.6 -9.7 -7.55 -11.7 -7.85 -11.8 -8.05 -10.8 -8.75 Q-9.2 -9.6 -7.25 -9.7 L-6.95 -10.3 -7.1 -10.85 -6.25 -11.9 -5.5 -12.5 Q-4.25 -13.7 -3.8 -15.45 L-0.75 -13.6 Q0.25 -14.6 1.85 -14.85 L1.95 -13.8 3.55 -13.45 5.8 -14.95 5.4 -12.15 5.65 -11.8 Q6.05 -11.35 6.05 -10.9 L6.75 -9.95 6.9 -9.7 6.15 -10.5 5.15 -11.65 4.0 -12.6 1.1 -13.0 -2.65 -13.25 Q-4.2 -13.25 -6.1 -10.5 -8.0 -7.75 -8.0 -5.6 -8.0 -2.3 -7.05 -0.85 L-4.05 2.25 -4.2 2.9 M8.95 1.6 L10.55 6.4 10.45 7.2 9.05 8.2 Q8.95 7.7 9.2 6.55 9.2 5.85 7.85 3.7 L7.05 2.7 7.0 6.4 6.45 4.3 6.4 2.5 6.4 1.0 Q6.5 0.75 7.5 0.75 8.2 0.75 8.7 1.3 L8.95 1.6" fill="#872f4c" fill-rule="evenodd" stroke="none"/>
    </g>
  </defs>
</svg>
