<?xml version="1.0" encoding="UTF-8" standalone="no"?>
<svg xmlns:ffdec="https://www.free-decompiler.com/flash" xmlns:xlink="http://www.w3.org/1999/xlink" ffdec:objectType="frame" height="144.25px" width="48.85px" xmlns="http://www.w3.org/2000/svg">
  <g transform="matrix(1.0, 0.0, 0.0, 1.0, 19.0, 16.6)">
    <use ffdec:characterId="1797" ffdec:characterName="game_fla.upperleg1_599" height="87.8" id="upperLeg1" transform="matrix(1.0, 0.0, 0.0, 1.0, -19.0, -16.6)" width="40.1" xlink:href="#sprite0"/>
    <use ffdec:characterId="1804" height="78.2" id="lowerLegOuter1" transform="matrix(0.9999, 0.0, 0.0, 0.9999, -13.0991, 49.451)" width="42.95" xlink:href="#sprite3"/>
  </g>
  <defs>
    <g id="sprite0" transform="matrix(1.0, 0.0, 0.0, 1.0, 20.45, 44.95)">
      <use ffdec:characterId="1791" height="87.8" transform="matrix(1.0, 0.0, 0.0, 1.0, -20.45, -44.95)" width="40.05" xlink:href="#shape0"/>
      <use ffdec:characterId="1793" height="23.95" transform="matrix(1.0, 0.0, 0.0, 1.0, -4.55, -0.5)" width="17.75" xlink:href="#sprite1"/>
      <use ffdec:characterId="1081" height="100.0" id="shape" transform="matrix(0.3, 0.0, 0.0, 0.82, -14.9994, -40.9988)" width="100.0" xlink:href="#sprite2"/>
    </g>
    <g id="shape0" transform="matrix(1.0, 0.0, 0.0, 1.0, 20.45, 44.95)">
      <path d="M9.45 -42.15 L10.25 -41.8 13.95 -39.75 15.75 -38.0 Q16.85 -36.55 17.0 -34.9 L18.05 -32.75 18.1 -32.35 18.45 -31.8 18.9 -30.15 19.25 -28.5 19.6 -24.1 19.25 -21.45 Q18.5 -22.05 17.65 -22.2 L17.15 -22.25 Q14.9 -22.25 13.55 -21.45 L13.45 -21.45 Q14.1 -22.7 14.1 -23.5 14.1 -25.65 13.75 -26.95 15.0 -27.3 15.0 -28.8 14.95 -29.8 14.55 -30.3 14.1 -30.85 13.35 -30.85 12.0 -30.85 11.7 -29.95 L11.65 -29.0 10.85 -28.85 Q9.55 -28.45 8.55 -27.0 L8.15 -26.35 7.95 -26.75 8.15 -26.9 8.55 -27.7 8.55 -27.75 10.85 -29.25 10.8 -29.55 Q11.35 -30.1 11.5 -30.6 L11.5 -30.85 11.45 -31.3 11.25 -31.4 10.85 -31.5 10.45 -31.4 10.2 -31.25 9.85 -31.0 9.45 -32.15 9.6 -32.35 10.65 -34.5 11.5 -36.85 12.05 -37.85 12.1 -38.35 12.1 -38.45 11.9 -40.35 10.6 -41.4 10.35 -41.6 9.6 -42.1 9.45 -42.15 M-18.9 -27.75 L-20.45 -27.55 Q-20.3 -35.25 -15.65 -39.8 L-14.65 -40.7 -14.3 -41.0 -12.15 -42.35 -13.2 -41.55 -14.4 -39.4 -15.0 -37.85 Q-15.2 -36.95 -16.25 -34.6 L-16.35 -31.6 -16.4 -31.1 -16.35 -31.15 -16.25 -31.25 -16.15 -31.1 Q-15.4 -30.15 -14.6 -27.95 L-14.5 -27.7 Q-15.45 -27.15 -15.7 -26.05 L-15.9 -25.95 -15.95 -26.1 -16.55 -26.9 Q-17.45 -27.75 -18.8 -27.75 L-18.9 -27.75" fill="#6a502d" fill-rule="evenodd" stroke="none"/>
      <path d="M9.45 -42.15 L9.6 -42.1 10.35 -41.6 10.6 -41.4 11.9 -40.35 12.1 -38.45 12.1 -38.35 12.05 -37.85 11.5 -36.85 10.65 -34.5 9.6 -32.35 9.45 -32.15 9.85 -31.0 10.2 -31.25 10.45 -31.4 10.85 -31.5 11.25 -31.4 11.45 -31.3 11.5 -30.85 11.5 -30.6 Q11.35 -30.1 10.8 -29.55 L10.85 -29.25 8.55 -27.75 8.55 -27.7 8.15 -26.9 7.95 -26.75 8.15 -26.35 7.65 -24.8 Q7.2 -25.4 6.45 -25.4 5.2 -25.4 4.5 -24.85 L4.5 -25.35 4.5 -25.95 4.1 -27.3 Q5.95 -27.55 5.95 -29.65 5.95 -32.35 3.7 -32.35 2.75 -32.35 2.2 -31.1 L1.85 -29.9 Q0.6 -30.75 -0.9 -31.05 L-1.65 -31.15 -1.95 -32.5 -2.55 -33.4 -3.1 -33.9 -3.8 -34.1 Q-4.6 -34.1 -4.9 -33.5 -5.4 -33.15 -5.4 -32.35 L-5.25 -31.5 -4.95 -31.0 -5.2 -30.7 -5.75 -30.25 Q-6.15 -30.85 -7.1 -30.95 L-7.15 -31.0 -7.2 -31.0 -7.25 -31.0 Q-9.0 -31.15 -9.0 -29.35 L-8.85 -28.35 Q-8.65 -27.7 -8.15 -27.5 -8.0 -27.0 -7.05 -26.85 L-6.95 -25.7 -6.9 -25.45 -6.95 -25.45 Q-8.85 -24.75 -9.25 -23.3 L-9.5 -23.45 -9.7 -23.55 -11.4 -24.35 -11.35 -24.55 -11.1 -25.75 Q-11.1 -27.15 -11.55 -27.7 -12.2 -28.65 -13.15 -28.2 L-13.6 -28.1 -14.5 -27.7 -14.6 -27.95 Q-15.4 -30.15 -16.15 -31.1 L-16.25 -31.25 -16.35 -31.15 -16.4 -31.1 -16.35 -31.6 -16.25 -34.6 Q-15.2 -36.95 -15.0 -37.85 L-14.4 -39.4 -13.2 -41.55 -12.15 -42.35 -12.05 -42.4 -11.35 -42.8 -9.1 -43.8 Q-5.5 -45.15 -0.6 -44.9 L2.1 -44.5 4.2 -44.05 Q5.35 -43.85 8.9 -42.4 L9.2 -42.25 9.45 -42.15 M5.55 -33.7 Q5.55 -32.75 6.75 -32.75 7.75 -32.75 7.75 -33.35 7.75 -34.75 6.65 -34.85 5.55 -34.95 5.55 -33.7" fill="#554024" fill-rule="evenodd" stroke="none"/>
      <path d="M5.55 -33.7 Q5.55 -34.95 6.65 -34.85 7.75 -34.75 7.75 -33.35 7.75 -32.75 6.75 -32.75 5.55 -32.75 5.55 -33.7 M-9.7 -23.55 L-9.5 -23.45 -9.25 -23.3 Q-8.85 -24.75 -6.95 -25.45 L-6.9 -25.45 -6.95 -25.7 -7.05 -26.85 Q-8.0 -27.0 -8.15 -27.5 -8.65 -27.7 -8.85 -28.35 L-9.0 -29.35 Q-9.0 -31.15 -7.25 -31.0 L-7.2 -31.0 -7.15 -31.0 -7.1 -30.95 Q-6.15 -30.85 -5.75 -30.25 L-5.2 -30.7 -4.95 -31.0 -5.25 -31.5 -5.4 -32.35 Q-5.4 -33.15 -4.9 -33.5 -4.6 -34.1 -3.8 -34.1 L-3.1 -33.9 -2.55 -33.4 -1.95 -32.5 -1.65 -31.15 -0.9 -31.05 Q0.6 -30.75 1.85 -29.9 L2.2 -31.1 Q2.75 -32.35 3.7 -32.35 5.95 -32.35 5.95 -29.65 5.95 -27.55 4.1 -27.3 L4.5 -25.95 3.65 -24.6 3.5 -24.15 Q2.7 -21.45 2.7 -19.5 2.7 -18.3 3.25 -17.25 L3.75 -15.95 3.65 -15.4 3.65 -15.3 3.55 -15.25 3.3 -14.95 2.6 -14.25 2.55 -13.1 2.55 -11.8 2.6 -11.6 Q2.75 -11.0 3.1 -10.75 L3.4 -9.45 3.55 -8.8 Q2.55 -8.4 1.7 -7.15 L1.35 -6.4 1.05 -8.55 Q0.75 -9.65 0.1 -10.05 L-0.2 -10.2 -1.65 -10.15 Q-2.8 -9.8 -3.75 -8.65 -4.65 -7.6 -4.7 -6.6 L-4.75 -6.8 Q-5.55 -8.35 -7.25 -8.6 L-7.05 -9.9 Q-7.05 -12.95 -9.6 -12.85 L-10.6 -12.7 -11.05 -15.1 -10.7 -18.45 -10.4 -21.7 Q-10.4 -23.45 -9.8 -23.1 L-9.7 -23.55 M-4.15 -18.25 L-4.05 -17.7 -4.2 -18.45 -4.2 -18.35 -4.15 -18.25 M-3.95 -15.15 L-3.6 -15.35 -3.6 -15.4 -3.6 -15.35 -3.95 -15.15 M-2.85 -14.3 L-2.7 -13.4 Q-2.4 -12.45 -1.35 -12.45 0.0 -12.45 0.0 -13.65 0.0 -15.7 -1.4 -15.75 -2.85 -15.85 -2.85 -14.3" fill="#82bfe3" fill-rule="evenodd" stroke="none"/>
      <path d="M8.15 -26.35 L8.55 -27.0 Q9.55 -28.45 10.85 -28.85 L11.65 -29.0 11.7 -29.95 Q12.0 -30.85 13.35 -30.85 14.1 -30.85 14.55 -30.3 L13.15 -27.35 12.95 -26.95 11.05 -23.7 11.45 -22.75 Q11.45 -22.3 10.9 -22.3 L10.65 -22.3 9.5 -23.7 Q7.2 -26.25 7.2 -22.8 7.2 -21.95 7.75 -20.85 L8.55 -19.5 Q9.9 -17.55 9.9 -15.75 9.9 -15.05 9.1 -12.4 L9.05 -12.3 9.05 -12.2 8.65 -11.05 Q6.55 -10.85 6.5 -8.35 5.9 -9.05 4.6 -9.05 L3.55 -8.8 3.4 -9.45 3.1 -10.75 Q2.75 -11.0 2.6 -11.6 L2.55 -11.8 2.55 -13.1 2.6 -14.25 3.3 -14.95 3.55 -15.25 3.65 -15.3 3.65 -15.4 3.75 -15.95 3.25 -17.25 Q2.7 -18.3 2.7 -19.5 2.7 -21.45 3.5 -24.15 L3.65 -24.6 4.5 -25.95 4.5 -25.35 4.5 -24.85 Q5.2 -25.4 6.45 -25.4 7.2 -25.4 7.65 -24.8 L8.15 -26.35 M-9.7 -23.55 L-9.8 -23.1 Q-10.4 -23.45 -10.4 -21.7 L-10.7 -18.45 -11.05 -15.1 -10.6 -12.7 Q-12.1 -12.25 -12.15 -10.45 -14.2 -10.3 -15.15 -9.3 -15.4 -10.15 -15.95 -10.8 L-15.95 -13.9 -14.9 -16.45 -15.15 -17.7 -14.7 -19.15 -14.4 -20.85 Q-14.1 -21.65 -14.1 -22.3 L-14.1 -22.5 -14.15 -22.45 -14.35 -22.6 -14.55 -22.75 -14.7 -22.75 -15.35 -22.9 Q-16.15 -23.05 -16.45 -25.3 L-16.55 -26.9 -15.95 -26.1 -15.9 -25.95 -15.7 -26.05 Q-15.45 -27.15 -14.5 -27.7 L-13.6 -28.1 -13.15 -28.2 Q-12.2 -28.65 -11.55 -27.7 -11.1 -27.15 -11.1 -25.75 L-11.35 -24.55 -11.4 -24.35 -9.7 -23.55 M-15.2 -25.05 L-15.1 -25.35 -15.3 -25.7 -15.2 -25.05" fill="#9ecde9" fill-rule="evenodd" stroke="none"/>
      <path d="M14.55 -30.3 Q14.95 -29.8 15.0 -28.8 15.0 -27.3 13.75 -26.95 14.1 -25.65 14.1 -23.5 14.1 -22.7 13.45 -21.45 L13.55 -21.45 Q14.9 -22.25 17.15 -22.25 L17.65 -22.2 17.5 -18.95 17.45 -18.75 17.4 -17.1 17.4 -16.25 17.35 -15.7 17.35 -15.4 17.15 -12.7 16.85 -12.7 Q16.0 -12.6 15.5 -12.2 14.4 -11.5 14.4 -9.75 L14.85 -8.35 14.55 -8.25 12.05 -7.45 12.05 -8.0 Q12.05 -9.25 11.55 -9.95 11.15 -10.5 10.55 -10.75 L9.3 -11.05 8.65 -11.05 9.05 -12.2 9.05 -12.3 9.1 -12.4 Q9.9 -15.05 9.9 -15.75 9.9 -17.55 8.55 -19.5 L7.75 -20.85 Q7.2 -21.95 7.2 -22.8 7.2 -26.25 9.5 -23.7 L10.65 -22.3 10.9 -22.3 Q11.45 -22.3 11.45 -22.75 L11.05 -23.7 12.95 -26.95 13.15 -27.35 14.55 -30.3 M19.25 -28.5 L18.9 -30.15 19.25 -28.55 19.25 -28.5 M-16.85 -11.65 L-18.4 -12.35 -18.9 -12.45 -18.9 -13.4 -19.15 -15.65 -19.2 -16.15 -19.2 -18.85 -19.2 -20.15 -19.05 -23.05 -19.05 -23.2 -19.05 -23.3 -19.0 -23.9 -19.05 -24.25 -18.9 -27.75 -18.8 -27.75 Q-17.45 -27.75 -16.55 -26.9 L-16.45 -25.3 Q-16.15 -23.05 -15.35 -22.9 L-14.7 -22.75 -14.55 -22.75 -14.35 -22.6 -14.15 -22.45 -14.1 -22.5 -14.1 -22.3 Q-14.1 -21.65 -14.4 -20.85 L-14.7 -19.15 -15.15 -17.7 -14.9 -16.45 -15.95 -13.9 -15.95 -10.8 -16.85 -11.65 M-15.75 -21.3 L-15.8 -21.2 -15.7 -21.3 -15.75 -21.3" fill="#cbe4f3" fill-rule="evenodd" stroke="none"/>
      <path d="M18.3 -17.9 L18.3 -17.85 18.3 -17.8 18.3 -17.9 M-15.2 -25.05 L-15.3 -25.7 -15.1 -25.35 -15.2 -25.05 M-16.85 -7.6 L-16.9 -7.6 -16.85 -7.65 -16.85 -7.6" fill="#ffe6e6" fill-rule="evenodd" stroke="none"/>
      <path d="M-10.6 -12.7 L-9.6 -12.85 Q-7.05 -12.95 -7.05 -9.9 L-7.25 -8.6 Q-5.55 -8.35 -4.75 -6.8 L-4.7 -6.6 Q-4.65 -7.6 -3.75 -8.65 -2.8 -9.8 -1.65 -10.15 L-0.2 -10.2 0.1 -10.05 0.55 -8.45 1.05 -8.55 1.35 -6.4 1.7 -7.15 Q2.55 -8.4 3.55 -8.8 L4.6 -9.05 Q5.9 -9.05 6.5 -8.35 6.55 -10.85 8.65 -11.05 L9.3 -11.05 10.55 -10.75 10.75 -9.7 11.55 -9.95 Q12.05 -9.25 12.05 -8.0 L12.05 -7.45 14.55 -8.25 14.85 -8.35 14.4 -9.75 Q14.4 -11.5 15.5 -12.2 15.55 -10.65 15.25 -9.15 L14.65 -4.7 Q14.05 -3.95 13.1 -4.4 L10.5 -5.15 10.15 -4.9 Q8.65 -5.55 7.45 -6.3 L5.1 -5.75 4.2 -6.4 Q2.5 -6.4 1.3 -5.05 1.0 -4.7 0.5 -4.6 L0.05 -4.45 -1.65 -6.5 -3.0 -6.35 -3.8 -5.55 Q-4.5 -4.8 -5.25 -4.85 L-5.75 -5.05 -6.45 -6.75 -8.35 -7.95 -10.4 -7.6 Q-12.25 -5.0 -15.2 -5.8 -15.65 -5.9 -16.0 -6.15 L-16.35 -7.35 -16.4 -8.25 -16.75 -10.25 -16.85 -11.65 -15.95 -10.8 Q-15.4 -10.15 -15.15 -9.3 -14.2 -10.3 -12.15 -10.45 -12.1 -12.25 -10.6 -12.7 M-2.85 -14.3 Q-2.85 -15.85 -1.4 -15.75 0.0 -15.7 0.0 -13.65 0.0 -12.45 -1.35 -12.45 -2.4 -12.45 -2.7 -13.4 L-2.85 -14.3" fill="#ebbb98" fill-rule="evenodd" stroke="none"/>
      <path d="M-3.8 -5.55 L-3.0 -6.35 -1.65 -6.5 0.05 -4.45 0.5 -4.6 Q1.0 -4.7 1.3 -5.05 2.5 -6.4 4.2 -6.4 L5.1 -5.75 7.45 -6.3 Q8.65 -5.55 10.15 -4.9 L10.5 -5.15 13.1 -4.4 Q14.05 -3.95 14.65 -4.7 13.85 3.65 13.15 7.5 L13.15 8.0 Q12.95 9.75 12.9 11.55 12.3 19.4 10.3 28.75 9.6 31.95 8.15 34.85 L8.05 35.1 7.1 36.85 4.2 40.95 Q3.35 42.0 -1.1 42.65 -5.25 43.3 -8.45 42.05 L-8.95 41.55 Q-12.05 38.4 -12.05 32.95 L-11.8 30.15 -11.6 27.9 -11.6 27.65 -11.2 27.85 -10.95 26.4 -10.8 26.55 -10.35 26.4 -10.3 25.15 -8.55 22.15 Q-6.05 18.25 -6.0 17.65 -5.45 14.65 -3.7 10.25 L-3.3 6.85 -3.25 5.0 -3.4 -2.2 -3.55 -2.65 -3.75 -4.05 -3.8 -5.55 M8.15 22.15 Q10.65 16.15 9.35 9.95 L7.4 16.9 Q0.55 22.75 -4.25 30.1 L-3.05 31.15 -1.7 31.0 Q-0.5 31.0 0.55 30.5 L2.95 29.15 7.15 30.1 7.8 27.15 Q7.95 25.85 7.75 24.65 L7.4 23.85 8.15 22.15 M-1.65 -2.15 L-1.75 -2.3 -1.8 -2.15 -1.65 -2.15" fill="#ffcc99" fill-rule="evenodd" stroke="none"/>
      <path d="M8.15 22.15 L7.4 23.85 7.75 24.65 Q7.95 25.85 7.8 27.15 L7.15 30.1 2.95 29.15 0.55 30.5 Q-0.5 31.0 -1.7 31.0 L-3.05 31.15 -4.25 30.1 Q0.55 22.75 7.4 16.9 L9.35 9.95 Q10.65 16.15 8.15 22.15 M-11.6 27.65 L-11.7 27.0 -11.7 20.05 -12.2 14.1 -12.45 12.75 -12.4 12.75 -12.4 12.7 -12.75 10.3 -12.95 9.0 -13.95 3.65 -14.55 0.9 -14.8 -0.15 -16.0 -6.15 Q-15.65 -5.9 -15.2 -5.8 -12.25 -5.0 -10.4 -7.6 L-8.35 -7.95 -6.45 -6.75 -5.75 -5.05 -5.25 -4.85 Q-4.5 -4.8 -3.8 -5.55 L-3.75 -4.05 -3.55 -2.65 -3.4 -2.2 -3.25 5.0 -3.3 6.85 -3.7 10.25 Q-5.45 14.65 -6.0 17.65 -6.05 18.25 -8.55 22.15 L-10.3 25.15 -10.35 26.4 -10.8 26.55 -10.95 26.4 -11.2 27.85 -11.6 27.65" fill="#f4c398" fill-rule="evenodd" stroke="none"/>
      <path d="M-3.95 -15.15 L-3.6 -15.35 -3.6 -15.4 -3.6 -15.35 -3.95 -15.15 M-4.15 -18.25 L-4.2 -18.35 -4.2 -18.45 -4.05 -17.7 -4.15 -18.25" fill="#ffcece" fill-rule="evenodd" stroke="none"/>
      <path d="M-15.75 -21.3 L-15.7 -21.3 -15.8 -21.2 -15.75 -21.3 M-1.65 -2.15 L-1.8 -2.15 -1.75 -2.3 -1.65 -2.15" fill="#ffc4c4" fill-rule="evenodd" stroke="none"/>
    </g>
    <g id="sprite1" transform="matrix(1.0, 0.0, 0.0, 1.0, 8.85, 11.95)">
      <use ffdec:characterId="1792" height="23.95" transform="matrix(1.0, 0.0, 0.0, 1.0, -8.85, -11.95)" width="17.75" xlink:href="#shape1"/>
    </g>
    <g id="shape1" transform="matrix(1.0, 0.0, 0.0, 1.0, 8.85, 11.95)">
      <path d="M3.7 -9.85 L4.05 -9.5 6.6 -5.65 7.7 -3.5 8.45 -2.1 8.35 -0.95 8.0 -2.1 6.4 -5.3 3.7 -9.85 M8.7 -4.05 L7.1 -6.75 Q5.8 -8.7 3.8 -10.1 5.85 -9.2 7.3 -7.55 L8.9 -5.45 8.7 -4.05 M7.95 4.5 L7.15 2.8 Q6.1 0.55 4.75 -1.35 L1.8 -4.75 -1.8 -7.95 -2.85 -8.7 Q-0.7 -8.2 1.1 -6.9 2.95 -5.5 4.15 -3.4 5.4 -1.35 6.75 0.35 L7.0 0.55 7.2 0.5 7.45 0.55 7.75 0.5 7.95 0.5 8.3 -0.25 8.25 1.1 7.95 4.5 M-3.95 -8.9 L-3.05 -8.2 0.3 -4.9 Q2.0 -3.4 3.35 -1.4 4.7 0.55 5.5 2.85 L5.55 3.0 5.55 3.05 5.6 3.15 5.65 3.25 5.8 3.25 5.95 3.25 Q6.7 4.45 7.05 5.8 L7.55 7.75 7.2 10.2 7.0 8.95 Q6.55 6.75 5.5 4.9 L5.6 5.35 4.35 2.2 Q3.35 0.0 2.0 -1.9 L-1.05 -5.55 Q-2.65 -7.15 -3.95 -8.9 M1.65 6.95 L0.35 4.2 0.6 4.6 -0.3 3.15 -3.15 -0.8 -4.75 -2.8 -7.45 -5.6 -6.75 -5.2 -5.1 -3.9 -3.8 -2.8 -3.75 -2.8 -1.25 0.6 0.35 2.9 Q1.55 4.75 2.25 6.65 L3.25 9.75 3.25 9.95 3.85 12.0 2.2 9.75 -0.6 5.65 -3.1 1.7 Q-4.25 -0.3 -5.7 -2.05 -7.3 -3.85 -8.35 -5.85 L-8.85 -6.65 -8.0 -6.2 -7.9 -5.85 -7.7 -5.4 -8.35 -5.85 -7.3 -4.85 Q-6.35 -2.85 -4.8 -1.05 L-2.6 1.8 -1.9 2.45 Q-1.5 3.1 -1.4 3.5 0.25 5.0 1.0 7.3 L1.45 7.8 1.7 7.95 1.65 6.95" fill="#da9c78" fill-rule="evenodd" stroke="none"/>
      <path d="M4.05 -9.5 L3.7 -9.85 3.8 -10.1 Q5.8 -8.7 7.1 -6.75 L8.7 -4.05 8.55 -3.0 7.55 -4.95 6.55 -6.7 4.05 -9.5 M-2.85 -8.7 L-1.8 -7.95 1.8 -4.75 4.75 -1.35 Q6.1 0.55 7.15 2.8 L7.95 4.5 7.75 6.35 7.3 5.1 Q6.55 2.9 5.3 0.7 L2.65 -3.35 Q1.45 -5.1 -0.35 -6.3 L-3.05 -8.2 -3.95 -8.9 -4.4 -9.2 -2.85 -8.7 M-3.15 -0.8 L-0.3 3.15 0.6 4.6 0.35 4.2 1.65 6.95 Q0.0 5.5 -1.1 3.05 L-1.85 1.75 -4.6 -1.9 Q-5.9 -3.55 -7.3 -4.85 L-8.35 -5.85 -7.7 -5.4 -4.3 -2.15 -3.15 -0.8 M-5.75 -10.3 L-5.6 -9.85 -7.75 -11.65 -7.5 -11.5 -6.6 -11.1 -5.75 -10.3" fill="#8c3734" fill-rule="evenodd" stroke="none"/>
      <path d="M4.05 -9.5 L6.55 -6.7 7.55 -4.95 8.55 -3.0 8.5 -2.95 8.5 -2.45 8.45 -2.1 7.7 -3.5 6.6 -5.65 4.05 -9.5 M-3.05 -8.2 L-0.35 -6.3 Q1.45 -5.1 2.65 -3.35 L5.3 0.7 Q6.55 2.9 7.3 5.1 L7.75 6.35 7.55 7.75 7.05 5.8 Q6.7 4.45 5.95 3.25 L5.8 3.25 5.65 3.25 5.6 3.15 5.55 3.05 5.55 3.0 5.5 2.85 Q4.7 0.55 3.35 -1.4 2.0 -3.4 0.3 -4.9 L-3.05 -8.2 M-3.15 -0.8 L-4.3 -2.15 -7.7 -5.4 -7.9 -5.85 -8.0 -6.2 -8.0 -6.25 -7.9 -6.15 -7.45 -5.6 -4.75 -2.8 -3.15 -0.8 M-7.3 -4.85 Q-5.9 -3.55 -4.6 -1.9 L-1.85 1.75 -1.1 3.05 Q0.0 5.5 1.65 6.95 L1.7 7.95 1.45 7.8 1.0 7.3 Q0.25 5.0 -1.4 3.5 -1.5 3.1 -1.9 2.45 L-2.6 1.8 -4.8 -1.05 Q-6.35 -2.85 -7.3 -4.85 M-5.75 -10.3 L-5.25 -9.6 Q-5.75 -9.6 -6.8 -10.55 L-8.3 -11.95 -7.75 -11.65 -5.6 -9.85 -5.75 -10.3 M-7.75 -11.65 L-7.65 -11.6 -7.55 -11.6 -7.5 -11.5 -7.75 -11.65" fill="#a95c4d" fill-rule="evenodd" stroke="none"/>
    </g>
    <g id="sprite2" transform="matrix(1.0, 0.0, 0.0, 1.0, 50.0, 50.0)">
      <use ffdec:characterId="1080" height="100.0" transform="matrix(1.0, 0.0, 0.0, 1.0, -50.0, -50.0)" width="100.0" xlink:href="#shape2"/>
    </g>
    <g id="shape2" transform="matrix(1.0, 0.0, 0.0, 1.0, 50.0, 50.0)">
      <path d="M50.0 50.0 L-50.0 50.0 -50.0 -50.0 50.0 -50.0 50.0 50.0 Z" fill="none" stroke="#9900ff" stroke-linecap="round" stroke-linejoin="round" stroke-width="0.05"/>
    </g>
    <g id="sprite3" transform="matrix(1.0, 0.0, 0.0, 1.0, 9.95, 7.5)">
      <use ffdec:characterId="1803" ffdec:characterName="game_fla.lowerleg1_602" height="78.2" id="lowerLeg1" transform="matrix(1.0, 0.0, 0.0, 1.0, -9.95, -7.5)" width="42.95" xlink:href="#sprite4"/>
    </g>
    <g id="sprite4" transform="matrix(1.0, 0.0, 0.0, 1.0, 13.75, 38.15)">
      <use ffdec:characterId="1798" height="68.7" transform="matrix(1.0, 0.0, 0.0, 1.0, -13.75, -38.15)" width="23.2" xlink:href="#shape3"/>
      <use ffdec:characterId="1799" height="27.85" transform="matrix(1.0, 0.0, 0.0, 1.0, -12.05, 12.2)" width="41.25" xlink:href="#shape4"/>
      <use ffdec:characterId="1081" height="100.0" id="shape" transform="matrix(0.2, 0.0, 0.0, 0.7601, -9.9998, -38.0028)" width="100.0" xlink:href="#sprite2"/>
    </g>
    <g id="shape3" transform="matrix(1.0, 0.0, 0.0, 1.0, 13.75, 38.15)">
      <path d="M3.35 -35.7 L4.7 -37.65 6.4 -37.7 Q7.95 -36.55 8.85 -34.1 L9.2 -33.0 9.45 -28.95 8.75 -30.85 8.15 -30.8 7.25 -31.4 3.85 -28.9 3.7 -28.85 2.85 -30.3 2.7 -33.1 3.35 -35.7 M8.75 -17.9 L8.85 -16.8 8.4 -13.1 8.2 -7.0 8.0 2.6 Q7.5 3.85 7.5 6.7 L7.6 7.75 7.45 8.3 7.35 10.55 7.45 12.05 7.2 14.55 7.25 17.1 7.05 18.8 Q7.35 21.0 7.85 22.0 L7.85 22.2 8.8 23.3 9.05 23.55 9.05 23.6 9.05 25.05 8.75 26.45 8.0 27.0 7.65 27.6 6.65 27.75 5.75 26.95 Q4.4 29.8 1.5 30.45 -1.3 30.9 -3.9 29.6 -5.2 30.75 -7.05 29.95 -9.15 29.05 -9.9 27.05 L-9.8 26.45 -9.3 23.6 -9.25 23.3 Q-8.3 21.25 -7.85 15.35 -7.85 14.0 -8.0 13.4 L-8.35 11.65 -8.35 11.45 -8.4 11.2 -9.15 6.0 -10.75 0.45 -10.95 -0.55 Q-11.55 -0.65 -12.2 -2.7 L-13.0 -6.25 -13.5 -9.35 -13.75 -11.9 -13.7 -12.9 -13.75 -13.4 -13.6 -14.35 -13.45 -16.25 -13.15 -20.65 Q-13.0 -23.85 -11.75 -26.1 -11.6 -28.5 -10.55 -30.1 -8.25 -33.65 -5.0 -33.45 L-3.4 -33.15 -1.2 -33.0 Q-0.55 -32.75 -1.25 -32.25 L-1.4 -32.15 -1.9 -31.85 -2.05 -31.75 -2.2 -31.65 -2.2 -31.6 -3.15 -30.1 -0.1 -27.4 1.0 -24.0 2.8 -18.85 3.45 -17.1 3.6 -15.8 3.65 -6.55 3.4 -3.9 3.8 -2.7 4.2 6.15 4.45 7.05 4.6 6.1 5.1 1.45 5.5 -2.45 5.85 -6.85 5.85 -6.9 Q7.5 -10.5 8.2 -14.5 L8.55 -16.7 8.75 -17.9 M-2.05 -8.25 L-1.6 -9.15 -1.8 -9.25 -3.1 -15.2 -6.2 -10.85 -7.95 -8.45 -9.95 -8.95 -8.7 -4.8 -7.6 -0.55 -6.75 3.15 -6.55 4.3 Q-6.1 6.45 -4.95 8.35 L-4.7 8.8 -4.65 8.95 -4.6 9.0 Q-3.5 6.25 -3.2 2.65 L-3.2 0.55 -3.2 -1.2 -2.85 -5.6 -2.8 -6.3 -2.7 -6.3 -2.05 -8.25" fill="#ffcc99" fill-rule="evenodd" stroke="none"/>
      <path d="M9.45 -23.9 L9.4 -23.0 8.75 -17.9 8.55 -16.7 8.2 -14.5 Q7.5 -10.5 5.85 -6.9 L5.85 -6.85 5.5 -2.45 5.1 1.45 4.6 6.1 4.45 7.05 4.2 6.15 3.8 -2.7 3.4 -3.9 3.65 -6.55 3.6 -15.8 3.45 -17.1 2.8 -18.85 1.0 -24.0 -0.1 -27.4 -3.15 -30.1 -2.2 -31.6 -2.2 -31.65 -2.05 -31.75 -1.9 -31.85 -1.4 -32.15 -1.25 -32.25 Q-0.55 -32.75 -1.2 -33.0 L-0.1 -34.3 2.25 -36.6 3.3 -36.15 3.35 -35.7 2.7 -33.1 2.85 -30.3 3.7 -28.85 3.85 -28.9 Q3.9 -26.25 5.35 -23.95 L6.9 -22.0 7.55 -21.15 9.45 -23.9 M-2.05 -8.25 L-2.7 -6.3 -2.8 -6.3 -2.85 -5.6 -3.2 -1.2 -3.2 0.55 -3.2 2.65 Q-3.5 6.25 -4.6 9.0 L-4.65 8.95 -4.7 8.8 -4.95 8.35 Q-6.1 6.45 -6.55 4.3 L-6.75 3.15 -7.6 -0.55 -8.7 -4.8 -9.95 -8.95 -7.95 -8.45 -6.2 -10.85 -3.1 -15.2 -1.8 -9.25 -1.6 -9.15 -2.05 -8.25" fill="#f4c398" fill-rule="evenodd" stroke="none"/>
      <path d="M9.45 -28.95 L9.45 -23.9 7.55 -21.15 6.9 -22.0 5.35 -23.95 Q3.9 -26.25 3.85 -28.9 L7.25 -31.4 8.15 -30.8 8.75 -30.85 9.45 -28.95" fill="#ebbb98" fill-rule="evenodd" stroke="none"/>
    </g>
    <g id="shape4" transform="matrix(1.0, 0.0, 0.0, 1.0, 12.05, -12.2)">
      <path d="M4.4 12.2 L7.8 12.2 7.8 12.4 8.15 17.8 8.2 18.55 7.9 18.55 6.35 18.55 5.0 18.65 Q4.35 16.45 4.35 13.95 L4.4 12.2 M-8.85 19.2 L-8.85 18.95 -8.55 16.15 -8.8 13.0 -8.45 13.0 -5.8 12.85 Q-4.95 16.55 -4.95 19.0 L-4.95 19.5 -5.55 19.5 -6.25 19.4 -7.65 19.4 -8.65 19.15 -8.85 19.2" fill="#f9f9f9" fill-rule="evenodd" stroke="none"/>
      <path d="M-5.8 12.85 L-3.2 12.65 3.25 12.2 4.4 12.2 4.35 13.95 Q4.35 16.45 5.0 18.65 L4.6 18.75 4.25 19.15 3.8 20.05 3.4 21.2 3.4 21.75 3.3 21.9 3.3 21.7 3.3 20.9 3.2 19.15 3.2 19.1 3.15 18.95 2.95 18.8 Q2.7 18.65 2.4 18.8 L-0.25 18.8 -0.3 18.85 -0.7 18.75 -4.95 19.5 -4.95 19.0 Q-4.95 16.55 -5.8 12.85" fill="#eaeaea" fill-rule="evenodd" stroke="none"/>
      <path d="M8.2 18.55 Q9.25 18.6 9.25 18.95 L9.2 19.4 8.85 21.1 8.9 22.05 8.9 22.25 9.0 22.5 10.15 23.6 10.25 23.7 10.7 24.15 12.25 25.7 13.25 26.6 14.2 27.45 15.25 28.25 16.25 29.0 16.35 29.0 16.7 29.15 17.05 29.25 18.7 29.9 20.0 30.4 23.1 30.9 Q25.05 30.9 26.5 32.45 L27.25 33.65 27.35 34.0 27.6 34.85 26.3 34.9 25.25 35.3 23.4 35.3 22.15 35.25 20.3 35.0 19.0 34.75 17.6 34.4 15.75 33.9 15.5 33.8 14.05 33.25 11.85 32.4 Q10.2 31.75 8.85 30.5 L7.8 29.4 7.7 29.3 6.5 30.5 Q6.05 30.95 5.45 31.1 L4.1 31.05 Q3.05 31.0 2.8 29.9 L2.6 28.25 2.6 26.5 2.9 24.15 2.95 23.6 Q3.0 22.65 3.3 21.9 L3.4 21.75 3.4 21.2 3.8 20.05 4.25 19.15 4.6 18.75 5.0 18.65 6.35 18.55 7.9 18.55 8.2 18.55 M25.0 33.1 L25.8 33.7 Q26.5 33.55 26.05 32.75 25.6 31.85 24.65 31.9 L19.85 31.35 Q20.3 32.3 22.05 32.3 L23.95 32.8 25.0 33.1" fill="#5c4627" fill-rule="evenodd" stroke="none"/>
      <path d="M27.6 34.85 L28.15 35.65 28.3 35.75 27.55 36.15 26.35 36.85 24.45 37.4 22.6 37.55 20.7 37.7 19.7 37.7 18.7 37.6 17.15 37.35 15.55 37.25 13.65 37.05 12.65 36.9 11.65 36.65 10.2 36.35 8.65 35.85 7.3 35.5 5.9 35.0 4.3 34.5 2.5 34.0 1.6 33.75 1.4 33.7 0.5 33.6 -1.45 33.25 -2.9 32.95 -4.5 32.95 -6.15 32.95 -7.3 33.15 -8.6 33.3 -10.1 33.35 -11.7 33.35 -11.75 33.15 -11.75 32.9 -12.05 30.9 -12.05 30.75 -12.0 30.65 -11.9 30.3 -11.95 29.3 -11.75 28.05 -11.65 27.9 -11.05 25.85 -10.3 23.85 -10.2 23.6 -9.6 21.45 -9.35 20.15 -9.05 19.5 -9.05 19.4 -8.85 19.2 -8.65 19.15 -7.65 19.4 -6.25 19.4 -5.55 19.5 -4.95 19.5 -0.7 18.75 -0.3 18.85 -0.25 18.8 2.4 18.8 Q2.7 18.65 2.95 18.8 L3.15 18.95 3.2 19.1 3.2 19.15 3.3 20.9 3.3 21.7 3.3 21.9 Q3.0 22.65 2.95 23.6 L2.9 24.15 2.6 26.5 2.6 28.25 2.8 29.9 Q3.05 31.0 4.1 31.05 L5.45 31.1 Q6.05 30.95 6.5 30.5 L7.7 29.3 7.8 29.4 8.85 30.5 Q10.2 31.75 11.85 32.4 L14.05 33.25 15.5 33.8 15.75 33.9 17.6 34.4 19.0 34.75 20.3 35.0 22.15 35.25 23.4 35.3 25.25 35.3 26.3 34.9 27.6 34.85 M28.7 36.4 L29.2 37.65 28.2 38.5 Q27.2 39.25 26.05 39.45 L24.8 39.8 23.35 39.95 21.65 40.05 20.0 40.0 18.3 39.8 16.6 39.55 14.65 39.25 12.85 39.05 11.1 38.6 9.1 38.25 8.1 38.05 7.1 37.85 6.4 37.65 4.9 37.15 3.25 36.75 2.35 36.45 2.0 37.8 1.15 38.0 -1.4 38.05 -3.2 38.05 -5.0 38.05 -6.8 37.85 -8.65 37.5 -10.4 37.3 -10.75 37.2 Q-10.9 37.1 -11.1 36.95 L-11.6 33.9 -10.6 33.95 -8.8 33.8 -7.4 33.7 -6.95 33.65 -5.25 33.6 -3.85 33.65 -3.0 33.7 -2.15 33.8 -0.3 34.15 1.4 34.5 2.95 34.9 4.8 35.5 5.9 35.85 7.3 36.35 8.7 36.85 10.05 36.95 11.25 37.2 13.1 37.75 14.85 38.0 16.75 38.1 18.6 38.1 20.3 38.5 22.1 38.45 24.0 38.3 25.85 37.75 27.6 37.2 Q28.25 37.05 28.7 36.4" fill="#42321c" fill-rule="evenodd" stroke="none"/>
      <path d="M28.3 35.75 L28.45 35.75 28.7 36.4 Q28.25 37.05 27.6 37.2 L25.85 37.75 24.0 38.3 22.1 38.45 20.3 38.5 18.6 38.1 16.75 38.1 14.85 38.0 13.1 37.75 11.25 37.2 10.05 36.95 8.7 36.85 7.3 36.35 5.9 35.85 4.8 35.5 2.95 34.9 1.4 34.5 -0.3 34.15 -2.15 33.8 -3.0 33.7 -3.85 33.65 -5.25 33.6 -6.95 33.65 -7.4 33.7 -8.8 33.8 -10.6 33.95 -11.6 33.9 -11.7 33.35 -10.1 33.35 -8.6 33.3 -7.3 33.15 -6.15 32.95 -4.5 32.95 -2.9 32.95 -1.45 33.25 0.5 33.6 1.4 33.7 1.6 33.75 2.5 34.0 4.3 34.5 5.9 35.0 7.3 35.5 8.65 35.85 10.2 36.35 11.65 36.65 12.65 36.9 13.65 37.05 15.55 37.25 17.15 37.35 18.7 37.6 19.7 37.7 20.7 37.7 22.6 37.55 24.45 37.4 26.35 36.85 27.55 36.15 28.3 35.75" fill="#6a502d" fill-rule="evenodd" stroke="none"/>
      <path d="M25.0 33.1 L23.95 32.8 22.05 32.3 Q20.3 32.3 19.85 31.35 L24.65 31.9 Q25.6 31.85 26.05 32.75 26.5 33.55 25.8 33.7 L25.0 33.1" fill="#b68b52" fill-rule="evenodd" stroke="none"/>
    </g>
  </defs>
</svg>
