<?xml version="1.0" encoding="UTF-8" standalone="no"?>
<svg xmlns:ffdec="https://www.free-decompiler.com/flash" xmlns:xlink="http://www.w3.org/1999/xlink" ffdec:objectType="frame" height="56.75px" width="70.2px" xmlns="http://www.w3.org/2000/svg">
  <g transform="matrix(1.0, 0.0, 0.0, 1.0, 30.65, 34.9)">
    <use ffdec:characterId="1783" height="33.4" id="mc" transform="matrix(1.045, 0.0, 0.0, 1.0, -22.9934, -15.9)" width="43.05" xlink:href="#sprite0"/>
  </g>
  <defs>
    <g id="sprite0" transform="matrix(1.0, 0.0, 0.0, 1.0, 18.75, 30.6)">
      <use ffdec:characterId="1782" height="33.4" transform="matrix(1.0, 0.0, 0.0, 1.0, -18.75, -30.6)" width="43.05" xlink:href="#shape0"/>
    </g>
    <g id="shape0" transform="matrix(1.0, 0.0, 0.0, 1.0, 18.75, 30.6)">
      <path d="M-10.25 -30.05 L10.35 -30.05 16.15 -30.5 23.05 -30.2 23.8 -28.85 20.8 -29.45 Q13.35 -29.45 10.95 -27.6 8.35 -29.05 5.5 -27.95 L5.3 -27.5 5.45 -27.0 5.5 -25.9 2.75 -25.75 1.95 -25.65 0.15 -26.85 -0.25 -25.75 Q-1.2 -23.35 -2.8 -22.65 L-2.9 -22.75 -3.65 -22.85 -7.9 -22.3 -9.8 -21.65 -10.5 -23.15 -10.6 -23.65 -10.95 -23.7 Q-11.55 -24.2 -12.1 -23.7 L-12.45 -23.6 Q-11.65 -26.75 -10.25 -30.05 M11.85 -25.6 L12.05 -26.6 13.4 -26.0 Q15.1 -25.1 15.1 -24.5 L15.1 -24.1 13.8 -23.9 13.45 -22.3 13.2 -21.8 13.3 -21.3 11.5 -22.35 11.0 -23.7 10.7 -24.15 11.85 -25.6 M-6.3 -20.85 L-6.3 -20.95 -6.3 -21.0 -6.0 -20.95 -6.3 -20.85 M-13.6 -17.6 L-13.6 -17.35 -13.65 -17.2 -13.65 -17.15 -13.6 -17.6" fill="#554024" fill-rule="evenodd" stroke="none"/>
      <path d="M-10.25 -30.05 Q-11.65 -26.75 -12.45 -23.6 L-13.25 -22.8 -13.4 -21.7 Q-13.8 -20.65 -13.8 -19.5 L-13.6 -17.6 -13.65 -17.15 Q-16.5 -13.1 -16.4 -9.05 L-16.3 -7.1 Q-16.75 -6.55 -16.75 -5.6 L-16.55 -4.5 -16.75 -3.85 -16.8 -3.95 -17.9 -6.05 Q-18.5 -7.55 -18.65 -9.1 L-18.7 -9.95 -18.7 -10.6 -18.65 -10.6 -18.7 -12.5 -18.5 -15.45 -18.4 -16.45 -18.15 -18.1 -16.8 -25.9 -16.6 -26.85 -16.05 -30.05 -10.25 -30.05 M10.95 -27.6 Q13.35 -29.45 20.8 -29.45 L23.8 -28.85 23.8 -28.55 23.8 -28.35 23.85 -27.3 23.85 -26.85 24.2 -22.0 24.1 -21.8 24.2 -21.3 24.25 -21.05 24.25 -20.9 24.3 -19.1 24.2 -18.6 24.1 -18.05 23.75 -15.45 22.8 -10.7 22.75 -10.25 22.65 -10.05 22.55 -9.55 Q19.8 0.7 14.35 1.7 L14.3 1.55 Q15.75 1.55 16.9 -0.8 19.1 -3.15 20.0 -6.45 L20.5 -9.0 Q21.0 -9.0 21.3 -9.6 L21.5 -10.4 Q21.5 -11.75 20.4 -12.35 19.8 -16.0 16.85 -18.8 L17.2 -19.3 17.55 -20.1 Q17.8 -20.95 17.55 -21.85 L17.4 -22.8 15.1 -24.1 15.1 -24.5 Q15.1 -25.1 13.4 -26.0 L12.05 -26.6 11.75 -27.3 10.95 -27.6 M-10.0 1.25 L-11.0 0.85 -11.55 0.6 -12.8 -0.1 -12.15 0.25 -11.55 0.6 -10.0 1.25" fill="#6a502d" fill-rule="evenodd" stroke="none"/>
      <path d="M-18.7 -10.6 L-18.7 -12.5 -18.65 -10.6 -18.7 -10.6" fill="#ffffff" fill-rule="evenodd" stroke="none"/>
      <path d="M-10.5 -23.15 L-9.8 -21.65 -7.9 -22.3 -3.65 -22.85 -2.9 -22.75 -2.8 -22.65 Q-1.2 -23.35 -0.25 -25.75 L0.15 -26.85 1.95 -25.65 2.75 -25.75 2.15 -25.25 2.55 -24.4 2.55 -23.7 2.65 -23.3 3.2 -22.6 2.45 -21.0 1.2 -21.05 0.15 -22.2 -0.8 -19.65 -1.4 -17.4 -3.05 -19.3 -4.35 -20.95 -6.0 -20.95 -6.3 -21.0 -6.3 -20.95 -6.3 -20.85 -6.1 -18.5 -6.15 -17.15 -7.25 -17.9 -9.1 -19.0 -12.15 -15.65 -11.7 -12.75 -12.3 -12.9 -12.65 -12.25 -14.1 -11.5 -13.25 -7.65 Q-12.75 -6.0 -11.4 -4.95 L-12.95 -3.4 -11.0 -0.55 -11.0 0.05 -11.75 0.35 -12.15 0.25 -12.8 -0.1 -12.95 -0.2 -13.15 -0.35 -13.25 -0.4 -14.45 -1.2 -14.7 -1.5 -16.75 -3.85 -16.55 -4.5 Q-16.3 -4.1 -15.6 -4.1 -15.05 -4.1 -14.55 -4.6 -14.1 -5.1 -14.1 -5.55 -14.1 -8.4 -15.4 -7.8 L-16.3 -7.1 -16.4 -9.05 Q-16.5 -13.1 -13.65 -17.15 L-13.65 -17.2 -13.6 -17.3 -13.6 -17.35 -13.6 -17.6 -13.8 -19.5 Q-13.8 -20.65 -13.4 -21.7 L-13.4 -21.0 -13.4 -19.35 Q-13.2 -18.65 -12.5 -18.65 -11.9 -18.65 -11.35 -20.0 -10.9 -21.1 -10.9 -21.5 L-10.7 -22.15 -10.5 -22.8 -10.5 -23.15 M16.85 -18.8 Q19.8 -16.0 20.4 -12.35 L20.1 -12.5 Q18.65 -13.05 18.65 -11.25 18.6 -10.65 18.85 -10.1 19.25 -9.0 20.5 -9.0 L20.0 -6.45 Q19.1 -3.15 16.9 -0.8 L15.65 0.55 Q16.95 -1.25 17.65 -3.55 19.1 -8.1 18.35 -12.8 L16.5 -11.9 17.1 -15.9 16.65 -16.55 14.2 -16.55 11.4 -15.5 9.8 -14.1 10.2 -20.0 8.6 -20.9 Q6.8 -21.9 4.65 -22.45 L5.55 -23.3 5.85 -23.7 6.3 -24.7 8.45 -23.7 9.45 -23.7 10.7 -24.15 11.0 -23.7 11.5 -22.35 13.3 -21.3 13.55 -20.5 Q13.9 -19.45 14.7 -18.75 L15.6 -18.1 16.85 -18.8" fill="#731c0f" fill-rule="evenodd" stroke="none"/>
      <path d="M-12.45 -23.6 L-12.1 -23.7 Q-11.55 -24.2 -10.95 -23.7 L-10.6 -23.65 -10.5 -23.15 -10.5 -22.8 -10.7 -22.15 -10.9 -21.5 Q-10.9 -21.1 -11.35 -20.0 -11.9 -18.65 -12.5 -18.65 -13.2 -18.65 -13.4 -19.35 L-13.4 -21.0 -13.4 -21.7 -13.25 -22.8 -12.45 -23.6 M2.75 -25.75 L5.5 -25.9 5.45 -27.0 5.3 -27.5 5.5 -27.95 Q8.35 -29.05 10.95 -27.6 L11.75 -27.3 12.05 -26.6 11.85 -25.6 10.95 -25.5 7.6 -25.5 6.25 -25.3 6.1 -24.5 5.55 -24.3 4.65 -24.65 4.15 -24.25 2.55 -24.4 2.15 -25.25 2.75 -25.75 M-0.8 -19.65 L1.5 -19.85 7.7 -19.15 8.2 -18.7 7.8 -17.55 4.95 -17.65 2.2 -17.15 -3.3 -15.15 -3.95 -13.3 -4.55 -13.05 -6.0 -14.4 -2.85 -18.15 -6.8 -16.25 -7.75 -16.45 -7.8 -16.0 -9.75 -13.4 -9.6 -11.75 -8.0 -13.2 -7.1 -13.0 -9.0 -9.35 -8.15 -7.15 -7.05 -5.3 -5.6 -3.65 -3.9 -2.15 -2.95 -2.35 -4.0 -3.85 -4.85 -5.4 -6.2 -8.8 -5.8 -9.55 -4.55 -8.7 -3.55 -7.7 -1.8 -5.45 -2.25 -4.85 -3.6 -5.35 -2.05 -3.45 0.4 -0.9 1.3 -0.2 3.35 0.95 1.5 1.05 -1.85 0.2 Q-3.45 -0.2 -4.85 -0.95 L-6.1 -1.95 -8.4 -4.5 Q-8.8 -4.65 -9.05 -4.85 L-10.8 -6.6 -11.7 -7.55 -13.1 -10.0 -11.7 -11.15 -11.6 -11.0 -11.35 -10.05 -11.0 -9.0 -10.85 -8.75 -10.65 -8.4 -9.85 -7.4 -10.25 -8.55 Q-11.3 -11.55 -10.45 -14.45 -10.15 -15.55 -9.3 -16.4 L-7.25 -17.9 -6.15 -17.15 -6.1 -18.5 -4.75 -19.0 -3.05 -19.3 -1.4 -17.4 -0.8 -19.65 M15.1 -24.1 L17.4 -22.8 17.55 -21.85 Q17.8 -20.95 17.55 -20.1 L14.8 -20.2 Q14.1 -20.65 13.85 -21.8 L13.45 -22.3 13.8 -23.9 15.1 -24.1 M20.4 -12.35 Q21.5 -11.75 21.5 -10.4 L21.3 -9.6 Q21.0 -9.0 20.5 -9.0 19.25 -9.0 18.85 -10.1 18.6 -10.65 18.65 -11.25 18.65 -13.05 20.1 -12.5 L20.4 -12.35 M11.4 -15.5 L14.2 -16.55 14.25 -16.5 13.6 -15.2 13.1 -15.0 Q12.05 -14.95 11.4 -15.5 M12.2 -12.95 L12.35 -13.4 12.75 -13.65 14.05 -13.4 14.4 -13.25 Q15.95 -12.65 16.3 -11.0 L15.75 -10.05 Q17.45 -4.3 13.3 -0.1 L12.1 -0.05 Q13.45 -1.8 13.7 -4.2 L13.25 -4.75 13.35 -5.8 Q13.5 -7.0 14.35 -8.05 L14.9 -8.7 14.35 -10.4 Q13.6 -11.9 12.2 -12.95 M8.9 -4.85 L7.65 -5.55 Q9.6 -7.4 11.5 -7.05 L11.95 -5.35 10.35 -4.2 11.25 -3.6 10.55 -1.65 11.35 -1.45 10.75 -0.75 Q9.25 0.85 6.95 0.25 L9.75 -2.75 8.9 -4.85 M-16.3 -7.1 L-15.4 -7.8 Q-14.1 -8.4 -14.1 -5.55 -14.1 -5.1 -14.55 -4.6 -15.05 -4.1 -15.6 -4.1 -16.3 -4.1 -16.55 -4.5 L-16.75 -5.6 Q-16.75 -6.55 -16.3 -7.1 M-10.9 -3.9 L-10.75 -3.75 -10.0 -2.9 Q-9.15 -1.75 -8.95 -0.25 L-9.3 -0.3 -10.0 -0.6 -11.55 -2.0 -10.9 -3.9" fill="#ff0000" fill-rule="evenodd" stroke="none"/>
      <path d="M14.35 1.7 L13.15 1.8 12.65 1.75 10.25 1.95 10.1 1.95 6.25 2.65 1.35 2.8 0.8 2.65 -5.85 2.25 -6.45 2.15 -10.0 1.25 -11.55 0.6 -11.75 0.35 -11.0 0.05 -11.0 -0.55 -12.95 -3.4 -11.4 -4.95 Q-12.75 -6.0 -13.25 -7.65 L-14.1 -11.5 -12.65 -12.25 -12.3 -12.9 -11.7 -12.75 -12.15 -15.65 -9.1 -19.0 -7.25 -17.9 -9.3 -16.4 Q-10.15 -15.55 -10.45 -14.45 -11.3 -11.55 -10.25 -8.55 L-9.85 -7.4 -10.65 -8.4 -10.85 -8.75 -11.0 -9.0 -11.35 -10.05 -11.6 -11.0 -11.7 -11.15 -13.1 -10.0 -11.7 -7.55 -10.8 -6.6 -9.05 -4.85 Q-8.8 -4.65 -8.4 -4.5 L-6.1 -1.95 -4.85 -0.95 Q-3.45 -0.2 -1.85 0.2 L1.5 1.05 3.35 0.95 1.3 -0.2 0.4 -0.9 -2.05 -3.45 -3.6 -5.35 -2.25 -4.85 -1.8 -5.45 -3.55 -7.7 -4.55 -8.7 -5.8 -9.55 -6.2 -8.8 -4.85 -5.4 -4.0 -3.85 -2.95 -2.35 -3.9 -2.15 -5.6 -3.65 -7.05 -5.3 -8.15 -7.15 -9.0 -9.35 -7.1 -13.0 -8.0 -13.2 -9.6 -11.75 -9.75 -13.4 -7.8 -16.0 -7.75 -16.45 -6.8 -16.25 -2.85 -18.15 -6.0 -14.4 -4.55 -13.05 -3.95 -13.3 -3.3 -15.15 2.2 -17.15 4.95 -17.65 7.8 -17.55 8.2 -18.7 7.7 -19.15 1.5 -19.85 -0.8 -19.65 0.15 -22.2 1.2 -21.05 2.45 -21.0 3.2 -22.6 2.65 -23.3 2.55 -23.7 2.55 -24.4 4.15 -24.25 4.65 -24.65 5.55 -24.3 6.1 -24.5 6.25 -25.3 7.6 -25.5 10.95 -25.5 11.85 -25.6 10.7 -24.15 9.45 -23.7 8.45 -23.7 6.3 -24.7 5.85 -23.7 5.55 -23.3 4.65 -22.45 Q6.8 -21.9 8.6 -20.9 L10.2 -20.0 9.8 -14.1 11.4 -15.5 Q12.05 -14.95 13.1 -15.0 L13.6 -15.2 14.25 -16.5 14.2 -16.55 16.65 -16.55 17.1 -15.9 16.5 -11.9 18.35 -12.8 Q19.1 -8.1 17.65 -3.55 16.95 -1.25 15.65 0.55 L16.9 -0.8 Q15.75 1.55 14.3 1.55 L14.35 1.7 M17.55 -20.1 L17.2 -19.3 16.85 -18.8 15.6 -18.1 14.7 -18.75 Q13.9 -19.45 13.55 -20.5 L13.3 -21.3 13.2 -21.8 13.45 -22.3 13.85 -21.8 Q14.1 -20.65 14.8 -20.2 L17.55 -20.1 M14.45 -15.65 L14.45 -15.45 14.6 -15.5 14.45 -15.65 M12.2 -12.95 Q13.6 -11.9 14.35 -10.4 L14.9 -8.7 14.35 -8.05 Q13.5 -7.0 13.35 -5.8 L13.25 -4.75 13.7 -4.2 Q13.45 -1.8 12.1 -0.05 L13.3 -0.1 Q17.45 -4.3 15.75 -10.05 L16.3 -11.0 Q15.95 -12.65 14.4 -13.25 L14.05 -13.4 12.75 -13.65 12.35 -13.4 12.2 -12.95 M3.0 -14.55 L1.1 -14.25 Q-1.5 -13.45 -2.7 -10.65 L-1.9 -9.15 Q0.0 -6.2 3.4 -5.25 L0.05 -5.6 -0.35 -4.5 2.35 -1.05 3.35 -1.2 Q6.1 -1.7 6.55 -4.45 L6.3 -4.7 5.55 -5.05 5.25 -5.0 5.6 -5.45 7.45 -7.1 Q8.65 -8.4 8.25 -10.35 L8.7 -9.75 9.65 -9.0 10.55 -8.9 Q11.25 -9.9 10.9 -11.1 10.4 -12.65 9.05 -13.55 L8.2 -13.7 7.95 -13.25 7.85 -12.6 7.95 -11.3 7.65 -11.85 Q6.65 -13.35 5.35 -14.2 L3.0 -14.55 M8.9 -4.85 L9.75 -2.75 6.95 0.25 Q9.25 0.85 10.75 -0.75 L11.35 -1.45 10.55 -1.65 11.25 -3.6 10.35 -4.2 11.95 -5.35 11.5 -7.05 Q9.6 -7.4 7.65 -5.55 L8.9 -4.85 M-6.0 -20.95 L-4.35 -20.95 -3.05 -19.3 -4.75 -19.0 -6.1 -18.5 -6.3 -20.85 -6.0 -20.95 M-10.9 -3.9 L-11.55 -2.0 -10.0 -0.6 -9.3 -0.3 -8.95 -0.25 Q-9.15 -1.75 -10.0 -2.9 L-10.75 -3.75 -10.9 -3.9" fill="#990000" fill-rule="evenodd" stroke="none"/>
      <path d="M-11.75 0.35 L-11.55 0.6 -12.15 0.25 -11.75 0.35 M14.45 -15.65 L14.6 -15.5 14.45 -15.45 14.45 -15.65" fill="#9299a9" fill-rule="evenodd" stroke="none"/>
      <path d="M3.0 -14.55 L5.35 -14.2 Q6.65 -13.35 7.65 -11.85 L7.95 -11.3 7.85 -12.6 7.95 -13.25 8.2 -13.7 9.05 -13.55 Q10.4 -12.65 10.9 -11.1 11.25 -9.9 10.55 -8.9 L9.65 -9.0 8.7 -9.75 8.25 -10.35 Q8.65 -8.4 7.45 -7.1 L5.6 -5.45 5.25 -5.0 5.55 -5.05 6.3 -4.7 6.55 -4.45 Q6.1 -1.7 3.35 -1.2 L2.35 -1.05 -0.35 -4.5 0.05 -5.6 3.4 -5.25 Q0.0 -6.2 -1.9 -9.15 L-2.7 -10.65 Q-1.5 -13.45 1.1 -14.25 L3.0 -14.55" fill="#650101" fill-rule="evenodd" stroke="none"/>
      <path d="M-13.6 -17.35 L-13.6 -17.3 -13.65 -17.2 -13.6 -17.35" fill="#727e94" fill-rule="evenodd" stroke="none"/>
    </g>
  </defs>
</svg>
