<?xml version="1.0" encoding="UTF-8" standalone="no"?>
<svg xmlns:ffdec="https://www.free-decompiler.com/flash" xmlns:xlink="http://www.w3.org/1999/xlink" ffdec:objectType="frame" height="56.75px" width="70.2px" xmlns="http://www.w3.org/2000/svg">
  <g transform="matrix(1.0, 0.0, 0.0, 1.0, 30.65, 34.9)">
    <use ffdec:characterId="1785" height="32.2" id="chunk1" transform="matrix(1.0, 0.0, 0.0, 1.0, -21.15, -34.9)" width="42.05" xlink:href="#sprite0"/>
    <use ffdec:characterId="1787" height="25.15" id="chunk2" transform="matrix(1.0, 0.0, 0.0, 1.0, 3.3, -3.3)" width="36.25" xlink:href="#sprite1"/>
    <use ffdec:characterId="1789" height="28.5" id="chunk3" transform="matrix(1.0, 0.0, 0.0, 1.0, -30.65, -7.4)" width="27.45" xlink:href="#sprite2"/>
  </g>
  <defs>
    <g id="sprite0" transform="matrix(1.0, 0.0, 0.0, 1.0, 21.7, 18.15)">
      <use ffdec:characterId="1784" height="32.2" transform="matrix(1.0, 0.0, 0.0, 1.0, -21.7, -18.15)" width="42.05" xlink:href="#shape0"/>
    </g>
    <g id="shape0" transform="matrix(1.0, 0.0, 0.0, 1.0, 21.7, 18.15)">
      <path d="M-17.7 -5.3 L-18.45 -6.05 -18.1 -7.05 -15.9 -6.8 -15.25 -6.65 -14.6 -6.3 -13.2 -6.9 -13.5 -6.15 Q-14.0 -4.7 -15.45 -4.1 L-17.7 -5.3 M-14.5 -9.95 L-16.3 -10.65 -16.35 -11.5 -13.2 -12.2 -13.2 -12.75 -12.75 -12.25 -12.25 -12.45 -11.85 -13.0 -11.15 -13.05 -10.7 -13.45 -9.55 -12.4 -9.85 -10.8 -14.5 -9.95 M-6.95 -17.6 L-6.05 -18.15 -3.1 -15.5 -3.15 -14.35 -3.35 -14.0 Q-4.0 -15.35 -5.75 -15.3 L-6.5 -15.7 -6.95 -17.6" fill="#ffffff" fill-rule="evenodd" stroke="none"/>
      <path d="M4.2 -10.75 L-2.15 -11.1 3.0 -8.85 3.85 -8.95 4.3 -7.8 4.05 -7.4 6.4 -7.85 6.45 -9.3 Q7.25 -10.5 8.75 -9.95 L9.1 -9.95 9.45 -10.1 9.75 -10.5 Q11.1 -11.45 12.1 -10.0 L12.0 -9.15 13.85 -9.25 14.15 -9.85 Q17.05 -9.0 17.7 -6.25 L18.95 -5.45 19.1 -4.05 18.7 -3.85 17.85 -4.1 Q15.3 -4.95 15.2 -7.9 L14.45 -8.35 13.05 -8.2 13.05 -7.5 7.65 -6.55 6.85 -4.85 5.75 -4.95 5.35 -6.85 4.85 -6.2 3.65 -4.3 2.95 -4.0 Q5.75 -2.85 8.95 -2.7 L9.5 -2.75 10.05 -2.1 2.75 -0.55 1.5 -2.25 -3.55 -2.0 -3.45 -2.75 Q-2.0 -3.25 -0.75 -4.3 L-0.2 -4.85 Q-0.9 -6.05 -2.2 -6.4 L1.05 -6.6 1.7 -6.35 1.95 -5.85 3.05 -6.55 3.15 -7.0 3.7 -7.3 Q0.5 -9.1 -3.15 -8.55 L-3.15 -9.1 -0.85 -10.0 -3.75 -11.15 -4.2 -11.9 -3.6 -13.55 -2.65 -13.35 4.1 -11.2 4.2 -10.75 M7.3 -0.2 L7.45 0.4 7.25 1.4 1.4 1.7 1.2 2.5 0.65 2.7 0.1 2.5 -0.55 2.75 -0.95 1.9 -0.35 1.4 Q0.25 1.55 0.5 1.05 L0.6 0.8 0.4 -0.5 7.3 -0.2 M10.65 2.9 L13.05 4.2 13.2 6.9 11.75 7.2 Q10.9 6.9 10.35 6.4 L8.9 4.7 9.25 3.1 10.65 2.9 M13.3 8.8 L14.85 8.95 15.2 9.75 14.25 10.3 12.95 10.3 13.3 8.8 M6.35 9.15 Q8.1 10.45 8.8 12.3 L9.25 13.65 8.45 13.8 Q7.35 13.4 6.65 12.5 L6.2 11.95 5.6 10.35 5.3 11.35 4.9 11.5 4.5 11.35 4.05 10.8 Q4.05 9.9 4.45 9.25 4.85 8.6 5.4 8.6 L6.1 8.75 6.35 9.15 M-6.85 12.7 L-7.4 12.2 -7.9 11.5 -8.25 11.0 -7.95 10.4 -8.25 9.45 -7.5 9.4 Q-9.0 7.65 -10.0 5.75 L-9.6 5.0 -4.95 7.3 -3.9 7.15 -3.8 7.15 2.7 8.2 3.4 8.3 2.75 9.45 -2.25 10.45 -2.7 10.2 -2.4 9.4 -3.8 9.35 -4.0 10.35 -5.3 9.15 -6.1 9.3 -6.1 12.6 -6.85 12.7 M-14.65 7.4 L-14.85 6.9 -13.6 4.95 -14.4 4.15 -14.35 3.35 -14.7 3.05 -14.2 2.7 -12.15 3.35 -11.95 3.8 -12.25 7.35 -13.9 8.35 -14.65 7.4 M-13.2 -12.75 L-11.15 -14.35 -10.7 -13.45 -11.15 -13.05 -11.85 -13.0 -12.25 -12.45 -12.75 -12.25 -13.2 -12.75 M-9.3 -15.2 L-8.35 -15.2 -8.0 -16.25 Q-7.8 -17.15 -6.95 -17.6 L-6.5 -15.7 -5.75 -15.3 Q-4.0 -15.35 -3.35 -14.0 L-3.9 -13.4 -6.1 -13.05 -6.45 -12.55 -5.75 -12.3 -5.3 -11.55 -7.9 -10.75 -7.75 -10.25 -9.2 -8.65 -8.65 -6.4 -8.8 -6.3 -8.9 -6.25 -9.65 -6.2 -10.6 -6.8 -12.9 -2.75 -13.7 -2.45 Q-15.25 -1.9 -16.7 -2.75 L-16.85 -3.5 -16.5 -3.85 -15.45 -4.1 Q-14.0 -4.7 -13.5 -6.15 L-13.2 -6.9 -14.6 -6.3 -15.25 -6.65 -14.6 -7.6 -13.95 -7.85 -13.55 -8.7 -12.6 -8.6 -12.15 -7.85 -10.95 -7.55 -11.4 -8.45 -12.1 -8.75 Q-10.65 -10.15 -8.55 -11.0 L-8.4 -11.8 -7.9 -12.25 -9.25 -13.1 -8.55 -14.0 -9.35 -14.2 -9.5 -14.8 -9.3 -15.2" fill="#ff0000" fill-rule="evenodd" stroke="none"/>
      <path d="M6.45 -9.3 L6.4 -7.85 4.05 -7.4 4.3 -7.8 3.85 -8.95 3.0 -8.85 -2.15 -11.1 4.2 -10.75 5.9 -9.2 6.45 -9.3 M-2.65 -13.35 L-3.6 -13.55 -4.2 -11.9 -3.75 -11.15 -0.85 -10.0 -3.15 -9.1 -3.15 -8.55 Q0.5 -9.1 3.7 -7.3 L3.15 -7.0 3.05 -6.55 1.95 -5.85 1.7 -6.35 1.05 -6.6 -2.2 -6.4 Q-3.05 -5.05 -4.55 -4.7 L-5.3 -4.75 Q-5.85 -5.35 -5.95 -6.15 L-6.05 -7.25 -7.2 -8.0 -8.65 -6.4 -9.2 -8.65 -7.75 -10.25 -7.9 -10.75 -5.3 -11.55 -5.75 -12.3 -6.45 -12.55 -6.1 -13.05 -3.9 -13.4 -3.35 -14.0 -3.15 -14.35 -2.65 -13.35 M-3.55 -2.0 L1.5 -2.25 2.75 -0.55 10.05 -2.1 10.3 -1.3 9.35 -0.8 8.9 -0.65 7.3 -0.2 0.4 -0.5 -0.9 -0.6 -2.75 -1.0 Q-3.55 -1.4 -3.55 -2.0 M3.65 -4.3 L4.85 -6.2 5.35 -6.85 5.75 -4.95 6.85 -4.85 7.65 -6.55 13.05 -7.5 13.05 -8.2 14.45 -8.35 15.2 -7.9 Q15.3 -4.95 17.85 -4.1 L18.7 -3.85 18.55 -3.2 18.65 -2.75 15.2 -2.75 15.5 -3.85 14.35 -6.15 14.65 -7.95 Q11.9 -5.65 8.4 -4.5 L5.5 -4.1 3.65 -4.3 M13.2 6.9 L12.45 8.2 12.0 8.45 13.05 8.75 13.3 8.8 12.95 10.3 14.25 10.3 11.8 12.6 Q10.4 14.0 8.45 13.8 L9.25 13.65 8.8 12.3 Q8.1 10.45 6.35 9.15 L10.05 8.1 9.15 6.6 8.75 5.7 8.65 5.2 8.9 4.7 10.35 6.4 Q10.9 6.9 11.75 7.2 L13.2 6.9 M-0.55 2.75 L0.1 2.5 0.65 2.7 1.2 2.5 1.4 1.7 7.25 1.4 6.05 2.85 Q5.4 3.05 4.8 2.85 L1.45 2.3 0.7 3.95 0.85 4.0 Q1.95 5.35 3.8 6.2 L5.5 7.0 5.4 8.6 Q4.85 8.6 4.45 9.25 4.05 9.9 4.05 10.8 L2.05 10.85 2.05 11.55 -0.1 12.8 -2.35 13.8 Q-4.9 14.65 -6.85 12.7 L-6.1 12.6 -6.1 9.3 -5.3 9.15 -4.0 10.35 -3.8 9.35 -2.4 9.4 -2.7 10.2 -2.25 10.45 2.75 9.45 3.4 8.3 2.7 8.2 -3.8 7.15 -3.9 7.15 -3.05 4.95 -1.95 6.1 -0.65 6.15 0.15 4.55 -0.55 3.45 -0.55 2.75 M-7.9 11.5 Q-8.4 10.95 -9.1 10.7 L-9.55 10.65 -11.55 10.8 -14.65 8.5 -14.8 8.0 -14.65 7.4 -13.9 8.35 -12.25 7.35 -11.95 3.8 -9.05 4.7 -3.9 7.15 -4.95 7.3 -9.6 5.0 -10.0 5.75 Q-9.0 7.65 -7.5 9.4 L-8.25 9.45 -7.95 10.4 -8.25 11.0 -7.9 11.5 M-14.85 6.9 L-15.85 6.1 -14.4 4.15 -13.6 4.95 -14.85 6.9 M-19.7 -2.9 L-18.95 -4.2 -17.7 -5.3 -15.45 -4.1 -16.5 -3.85 -16.85 -3.5 -16.7 -2.75 -19.75 -2.75 -19.7 -2.9 M-15.9 -6.8 L-14.85 -9.45 -14.35 -9.45 -14.5 -9.95 -9.85 -10.8 -9.55 -12.4 -10.7 -13.45 -11.15 -14.35 -10.75 -14.95 -9.3 -15.2 -9.5 -14.8 -9.35 -14.2 -8.55 -14.0 -9.25 -13.1 -7.9 -12.25 -8.4 -11.8 -8.55 -11.0 Q-10.65 -10.15 -12.1 -8.75 L-11.4 -8.45 -10.95 -7.55 -12.15 -7.85 -12.6 -8.6 -13.55 -8.7 -13.95 -7.85 -14.6 -7.6 -15.25 -6.65 -15.9 -6.8 M4.9 11.5 L5.3 11.35 5.6 10.35 6.2 11.95 4.9 11.5" fill="#990000" fill-rule="evenodd" stroke="none"/>
      <path d="M-2.2 -6.4 Q-0.9 -6.05 -0.2 -4.85 L-0.75 -4.3 Q-2.0 -3.25 -3.45 -2.75 L-12.9 -2.75 -10.6 -6.8 -9.65 -6.2 -8.9 -6.25 -8.8 -6.3 -8.65 -6.4 -7.2 -8.0 -6.05 -7.25 -5.95 -6.15 Q-5.85 -5.35 -5.3 -4.75 L-4.55 -4.7 Q-3.05 -5.05 -2.2 -6.4 M9.5 -2.75 L8.95 -2.7 Q5.75 -2.85 2.95 -4.0 L3.65 -4.3 5.5 -4.1 8.4 -4.5 Q11.9 -5.65 14.65 -7.95 L14.35 -6.15 15.5 -3.85 15.2 -2.75 9.5 -2.75" fill="#ebbb98" fill-rule="evenodd" stroke="none"/>
      <path d="M12.45 8.2 L13.05 8.75 12.0 8.45 12.45 8.2 M-19.95 -2.85 L-19.7 -2.9 -19.75 -2.75 -19.95 -2.85" fill="#834753" fill-rule="evenodd" stroke="none"/>
      <path d="M15.9 8.0 L15.55 8.8 15.85 7.35 15.9 8.0 M-19.95 -2.75 L-19.95 -2.85 -19.75 -2.75 -19.95 -2.75" fill="#9299a9" fill-rule="evenodd" stroke="none"/>
      <path d="M-3.45 -2.75 L-3.55 -2.0 Q-3.55 -1.4 -2.75 -1.0 L-0.9 -0.6 -2.8 0.45 -1.15 1.5 -0.35 1.4 -0.95 1.9 -0.55 2.75 -0.55 3.45 0.15 4.55 -0.65 6.15 -1.95 6.1 -3.05 4.95 -3.9 7.15 -9.05 4.7 -8.3 4.75 Q-5.1 5.1 -3.8 2.15 L-3.1 0.45 -4.45 -0.3 Q-5.65 -0.45 -6.35 0.4 L-7.05 1.05 Q-8.3 2.05 -8.55 3.75 -9.1 4.3 -9.95 4.0 L-10.9 3.55 -11.25 3.3 Q-11.05 2.0 -11.2 0.6 -11.25 0.0 -11.6 -0.4 L-12.65 -0.25 -15.75 2.05 -16.6 2.6 -16.6 0.25 -17.25 -0.2 -18.45 0.9 -19.8 1.0 -20.05 0.75 -20.15 0.1 -20.1 -2.15 -21.15 -2.75 -19.95 -2.75 -19.75 -2.75 -16.7 -2.75 Q-15.25 -1.9 -13.7 -2.45 L-12.9 -2.75 -3.45 -2.75 M10.05 -2.1 L9.5 -2.75 15.2 -2.75 18.65 -2.75 18.9 -2.75 19.1 -2.75 18.95 -2.65 17.9 -2.15 17.9 -1.35 18.25 -0.15 Q18.8 1.3 17.8 2.6 17.3 3.25 17.3 4.1 L17.05 6.25 16.15 9.95 15.9 8.0 15.85 7.35 Q15.6 4.5 14.45 1.7 14.05 0.85 13.25 0.45 12.85 0.15 12.45 0.0 11.7 0.0 11.25 0.65 L10.75 1.2 10.3 0.55 9.35 -0.8 10.3 -1.3 10.05 -2.1 M8.75 5.7 L9.15 6.6 10.05 8.1 6.35 9.15 6.1 8.75 5.4 8.6 5.5 7.0 3.8 6.2 Q1.95 5.35 0.85 4.0 L0.7 3.95 1.45 2.3 4.8 2.85 Q5.4 3.05 6.05 2.85 L6.85 4.65 8.75 5.7" fill="#731c0f" fill-rule="evenodd" stroke="none"/>
      <path d="M7.3 -0.2 L8.9 -0.65 9.95 0.9 10.3 0.55 10.75 1.2 11.25 0.65 Q11.7 0.0 12.45 0.0 13.9 1.25 14.25 3.15 L15.3 9.4 15.2 9.75 14.85 8.95 13.3 8.8 13.05 8.75 12.45 8.2 13.2 6.9 13.05 4.2 10.65 2.9 10.55 2.2 Q9.15 0.95 7.45 0.4 L7.3 -0.2 M-15.85 6.1 L-17.1 8.4 -17.55 8.55 -18.8 4.1 -21.7 5.85 -20.1 -2.15 -20.15 0.1 -20.05 0.75 -19.8 1.0 -18.45 0.9 -17.7 1.15 -16.6 0.25 -16.6 2.6 -15.75 2.05 -16.15 3.25 -14.7 3.05 -14.35 3.35 -14.4 4.15 -15.85 6.1" fill="#6a502d" fill-rule="evenodd" stroke="none"/>
      <path d="M7.45 0.4 Q9.15 0.95 10.55 2.2 L10.65 2.9 9.25 3.1 8.9 4.7 8.65 5.2 8.75 5.7 6.85 4.65 6.05 2.85 7.25 1.4 7.45 0.4 M15.3 9.4 L14.25 3.15 Q13.9 1.25 12.45 0.0 12.85 0.15 13.25 0.45 14.05 0.85 14.45 1.7 15.6 4.5 15.85 7.35 L15.55 8.8 15.3 9.5 15.3 9.4 M10.3 0.55 L9.95 0.9 8.9 -0.65 9.35 -0.8 10.3 0.55 M0.4 -0.5 L0.6 0.8 0.5 1.05 Q0.25 1.55 -0.35 1.4 L-1.15 1.5 -2.8 0.45 -0.9 -0.6 0.4 -0.5 M18.55 -3.2 L18.9 -2.75 18.65 -2.75 18.55 -3.2 M18.95 -2.65 L19.3 -1.7 20.2 2.4 Q20.65 5.45 19.55 8.3 19.15 6.75 17.75 6.05 L17.05 6.25 17.3 4.1 Q17.3 3.25 17.8 2.6 18.8 1.3 18.25 -0.15 L17.9 -1.35 17.9 -2.15 18.95 -2.65 M-15.75 2.05 L-12.65 -0.25 -11.6 -0.4 Q-11.25 0.0 -11.2 0.6 -11.05 2.0 -11.25 3.3 L-10.9 3.55 -9.95 4.0 Q-9.1 4.3 -8.55 3.75 -8.3 2.05 -7.05 1.05 L-6.35 0.4 Q-5.65 -0.45 -4.45 -0.3 L-3.1 0.45 -3.8 2.15 Q-5.1 5.1 -8.3 4.75 L-9.05 4.7 -11.95 3.8 -12.15 3.35 -14.2 2.7 -14.7 3.05 -16.15 3.25 -15.75 2.05 M-16.6 0.25 L-17.7 1.15 -18.45 0.9 -17.25 -0.2 -16.6 0.25" fill="#554024" fill-rule="evenodd" stroke="none"/>
    </g>
    <g id="sprite1" transform="matrix(1.0, 0.0, 0.0, 1.0, 11.9, 13.0)">
      <use ffdec:characterId="1786" height="25.15" transform="matrix(1.0, 0.0, 0.0, 1.0, -11.9, -13.0)" width="36.25" xlink:href="#shape1"/>
    </g>
    <g id="shape1" transform="matrix(1.0, 0.0, 0.0, 1.0, 11.9, 13.0)">
      <path d="M3.25 -11.75 L4.1 -12.75 4.2 -12.85 4.25 -12.75 Q5.2 -10.9 7.15 -10.25 L8.1 -9.85 8.8 -9.5 Q8.8 -8.9 8.2 -8.45 7.6 -8.0 6.75 -8.0 L5.45 -8.2 4.5 -8.9 4.15 -9.35 2.15 -9.95 -0.2 -8.9 -0.4 -8.7 -1.7 -8.55 -2.35 -7.9 -2.5 -5.5 -0.85 -6.9 -0.4 -6.6 1.45 -6.6 2.1 -7.95 4.65 -7.95 5.1 -7.3 4.5 -3.3 6.45 -4.2 6.6 -3.15 6.7 -0.25 6.6 0.75 Q6.4 2.9 5.7 5.05 4.95 7.35 3.6 9.15 L4.9 7.8 4.55 8.45 Q4.35 8.6 4.25 8.7 L3.55 9.65 Q2.9 10.15 2.2 10.15 L2.25 10.3 1.0 10.4 0.45 10.35 -2.05 10.55 -2.2 10.55 -4.85 11.15 -6.2 11.25 -7.7 11.35 -8.45 11.4 Q-11.65 10.8 -11.9 7.35 L-9.15 7.3 -7.7 8.25 -7.2 8.35 Q-6.1 8.35 -6.1 7.45 -6.1 6.7 -6.9 6.25 -6.15 5.45 -5.9 4.15 L-6.15 3.9 -6.95 3.55 -7.25 3.6 -6.9 3.15 -4.95 1.5 Q-3.7 0.2 -4.15 -1.75 L-3.65 -1.15 -2.65 -0.4 -1.75 -0.3 Q-1.0 -1.3 -1.35 -2.5 -1.9 -4.05 -3.3 -4.95 L-4.2 -5.1 -4.45 -4.65 -4.55 -4.0 -4.45 -2.7 -4.75 -3.25 -6.85 -5.4 -7.55 -5.6 -9.6 -5.95 -7.55 -6.95 -7.05 -7.15 -5.15 -7.0 -4.05 -5.9 -3.7 -6.3 Q-3.25 -6.85 -3.3 -7.9 L-3.3 -8.5 -4.0 -8.7 Q-3.85 -9.85 -2.55 -10.7 L-1.9 -11.05 -1.55 -11.2 -1.45 -10.6 2.95 -10.15 3.6 -11.05 3.25 -11.75 M0.0 -4.35 L0.95 -3.55 Q1.95 -2.6 2.45 -1.3 L2.8 -0.25 2.8 -0.1 Q1.4 1.2 1.2 2.8 L1.1 3.85 1.55 4.4 1.4 5.5 Q0.95 7.2 -0.1 8.55 L1.15 8.5 Q3.75 6.0 4.15 3.0 4.35 1.45 4.05 -0.25 L3.7 -1.45 4.3 -2.4 Q3.85 -4.2 1.95 -4.8 L0.95 -5.0 0.55 -5.05 0.15 -4.8 0.0 -4.35 M-1.65 1.5 Q-3.2 1.65 -4.75 3.05 L-3.45 3.75 -2.55 5.85 -5.5 8.85 Q-3.1 9.45 -1.5 7.85 L-0.9 7.15 -1.75 6.95 -1.0 5.0 -1.95 4.4 -0.25 3.25 -0.75 1.55 -1.65 1.5" fill="#990000" fill-rule="evenodd" stroke="none"/>
      <path d="M4.2 -12.85 L8.1 -12.7 9.0 -12.25 9.7 -11.7 8.8 -9.5 8.1 -9.85 7.15 -10.25 Q5.2 -10.9 4.25 -12.75 L4.2 -12.85 M-11.9 7.35 L-11.7 6.2 -7.7 5.95 Q-7.25 6.05 -6.9 6.25 -6.1 6.7 -6.1 7.45 -6.1 8.35 -7.2 8.35 L-7.7 8.25 -9.15 7.3 -11.9 7.35 M-7.05 -7.15 L-4.0 -8.7 -3.3 -8.5 -3.3 -7.9 Q-3.25 -6.85 -3.7 -6.3 L-4.05 -5.9 -5.15 -7.0 -7.05 -7.15 M-1.55 -11.2 L-0.6 -11.65 0.95 -12.05 3.25 -11.75 3.6 -11.05 2.95 -10.15 -1.45 -10.6 -1.55 -11.2 M-0.85 -6.9 L2.1 -7.95 1.45 -6.6 -0.4 -6.6 -0.85 -6.9 M0.0 -4.35 L0.15 -4.8 0.55 -5.05 0.95 -5.0 1.95 -4.8 Q3.85 -4.2 4.3 -2.4 L3.7 -1.45 4.05 -0.25 Q4.35 1.45 4.15 3.0 3.75 6.0 1.15 8.5 L-0.1 8.55 Q0.95 7.2 1.4 5.5 L1.55 4.4 1.1 3.85 1.2 2.8 Q1.4 1.2 2.8 -0.1 L2.8 -0.25 2.45 -1.3 Q1.95 -2.6 0.95 -3.55 L0.0 -4.35 M-1.65 1.5 L-0.75 1.55 -0.25 3.25 -1.95 4.4 -1.0 5.0 -1.75 6.95 -0.9 7.15 -1.5 7.85 Q-3.1 9.45 -5.5 8.85 L-2.55 5.85 -3.45 3.75 -4.75 3.05 Q-3.2 1.65 -1.65 1.5" fill="#ff0000" fill-rule="evenodd" stroke="none"/>
      <path d="M-11.7 6.2 L-11.85 3.65 -8.8 -1.35 -10.05 -5.4 -9.6 -5.95 -7.55 -5.6 -6.85 -5.4 -4.75 -3.25 -4.45 -2.7 -4.55 -4.0 -4.45 -4.65 -4.2 -5.1 -3.3 -4.95 Q-1.9 -4.05 -1.35 -2.5 -1.0 -1.3 -1.75 -0.3 L-2.65 -0.4 -3.65 -1.15 -4.15 -1.75 Q-3.7 0.2 -4.95 1.5 L-6.9 3.15 -7.25 3.6 -6.95 3.55 -6.15 3.9 -5.9 4.15 Q-6.15 5.45 -6.9 6.25 -7.25 6.05 -7.7 5.95 L-11.7 6.2" fill="#650101" fill-rule="evenodd" stroke="none"/>
      <path d="M9.7 -11.7 L10.15 -13.0 11.5 -11.85 11.6 -10.6 11.55 -10.25 Q11.55 -9.25 12.45 -8.8 L12.95 -8.55 11.8 -5.1 11.45 -3.6 11.1 -2.1 11.0 -1.65 10.9 -1.45 10.8 -0.95 10.6 -0.25 Q9.0 5.2 6.5 7.85 L3.65 12.15 3.05 11.95 3.05 11.55 Q3.05 10.75 3.35 10.0 L2.25 10.3 2.2 10.15 Q2.9 10.15 3.55 9.65 L4.25 8.7 Q4.35 8.6 4.55 8.45 L4.9 7.8 Q7.2 5.45 8.15 2.15 L8.65 -0.25 8.75 -1.15 8.55 -3.85 8.25 -5.1 6.75 -8.0 Q7.6 -8.0 8.2 -8.45 8.8 -8.9 8.8 -9.5 L9.7 -11.7" fill="#6a502d" fill-rule="evenodd" stroke="none"/>
      <path d="M24.3 -10.5 L24.3 -12.4 24.35 -10.5 24.3 -10.5" fill="#ffffff" fill-rule="evenodd" stroke="none"/>
      <path d="M6.75 -8.0 L8.25 -5.1 8.55 -3.85 8.75 -1.15 8.65 -0.25 8.15 2.15 Q7.2 5.45 4.9 7.8 L3.6 9.15 Q4.95 7.35 5.7 5.05 6.4 2.9 6.6 0.75 L6.7 -0.25 6.6 -3.15 6.45 -4.2 4.5 -3.3 5.1 -7.3 4.65 -7.95 2.1 -7.95 -0.85 -6.9 -2.5 -5.5 -2.35 -7.9 -1.7 -8.55 -0.4 -8.7 -0.2 -8.9 2.15 -9.95 4.15 -9.35 4.5 -8.9 5.45 -8.2 6.75 -8.0" fill="#731c0f" fill-rule="evenodd" stroke="none"/>
    </g>
    <g id="sprite2" transform="matrix(1.0, 0.0, 0.0, 1.0, 12.7, 15.85)">
      <use ffdec:characterId="1788" height="28.5" transform="matrix(1.0, 0.0, 0.0, 1.0, -12.7, -15.85)" width="27.45" xlink:href="#shape2"/>
    </g>
    <g id="shape2" transform="matrix(1.0, 0.0, 0.0, 1.0, 12.7, 15.85)">
      <path d="M3.95 -12.75 L5.7 -12.55 6.55 -9.85 5.8 -9.0 3.3 -10.7 3.05 -10.2 3.65 -9.45 0.5 -8.65 0.25 -11.0 -2.35 -11.45 -2.9 -10.15 Q-4.15 -7.35 -7.1 -7.7 L-7.35 -7.75 Q-8.0 -7.75 -8.45 -8.45 -8.95 -9.15 -8.95 -10.15 L-7.95 -9.2 Q-5.65 -8.9 -3.85 -10.15 L-3.8 -11.3 -4.6 -12.5 -3.55 -12.35 -3.55 -12.85 0.7 -12.95 2.15 -11.4 3.15 -11.5 3.95 -12.75 M11.8 -4.2 L12.45 -2.9 12.8 -0.95 12.65 0.5 11.6 0.8 10.5 0.8 Q9.35 0.8 9.35 -0.2 9.35 -1.1 10.25 -1.05 11.1 -1.05 11.1 -2.0 L10.75 -2.55 Q10.15 -3.45 9.05 -4.0 L8.3 -4.3 Q6.55 -3.9 5.3 -2.7 L5.1 -2.5 Q4.5 -1.8 4.05 -0.8 L4.85 0.7 5.1 1.05 Q7.05 3.7 10.4 4.6 L6.9 4.25 6.5 5.35 7.8 6.95 Q8.1 6.7 8.6 6.7 L9.8 7.0 10.7 7.3 10.95 7.15 10.55 7.9 Q10.55 8.75 11.15 8.75 L12.65 8.6 12.75 8.3 12.15 7.55 Q12.8 7.35 12.8 6.5 12.8 4.65 12.05 5.45 12.2 4.75 12.65 4.45 L13.35 4.2 Q14.75 4.15 14.75 5.75 L12.95 9.25 Q11.05 12.55 10.4 12.55 L10.35 12.55 10.55 12.65 8.25 12.65 7.7 12.5 5.1 12.45 2.45 12.25 0.75 12.1 0.1 12.0 -3.6 11.1 -5.2 10.45 -5.45 10.2 -4.65 9.9 -4.65 9.3 -6.7 6.45 -5.05 4.9 Q-6.45 3.85 -7.0 2.2 L-7.9 -1.65 -6.35 -2.4 -6.0 -3.05 -5.4 -2.9 -5.85 -5.8 -2.65 -9.15 -0.75 -8.05 Q-2.75 -6.85 -3.75 -4.9 L-4.2 -3.95 Q-4.85 -1.4 -3.85 1.3 L-3.45 2.45 -4.3 1.45 -4.5 1.1 -4.65 0.85 -5.0 -0.2 -5.25 -1.15 -5.4 -1.3 -6.85 -0.15 -5.4 2.3 -4.45 3.25 -2.6 5.0 -1.95 5.35 0.5 7.9 1.8 8.9 2.45 9.25 Q3.6 9.75 4.9 10.05 L5.1 10.15 8.4 10.9 9.65 10.85 9.75 10.5 8.2 9.65 7.25 8.95 5.1 6.85 4.7 6.4 3.1 4.5 4.5 5.0 4.95 4.4 3.15 2.15 2.45 1.5 2.1 1.15 0.8 0.3 0.35 1.05 1.8 4.45 2.45 5.7 2.65 6.0 3.75 7.5 2.75 7.7 2.45 7.5 1.0 6.2 -0.5 4.55 -1.65 2.7 -2.55 0.5 -0.55 -3.15 -1.5 -3.35 -3.2 -1.9 -3.35 -3.55 -1.3 -6.15 -1.25 -6.6 -0.25 -6.4 3.85 -8.3 0.6 -4.55 2.1 -3.2 2.7 -3.45 3.4 -5.3 6.35 -6.4 8.05 -6.05 7.4 -5.25 11.1 -4.0 11.8 -4.2 M-9.05 -13.1 L-8.25 -15.2 -8.5 -14.35 Q-7.2 -13.1 -5.45 -13.05 L-4.7 -13.2 -6.3 -12.0 -6.9 -12.05 -7.4 -12.0 Q-8.5 -12.25 -9.05 -13.1 M-4.55 5.95 L-5.2 7.85 -3.6 9.25 -2.85 9.55 -2.5 9.6 Q-2.7 8.1 -3.6 6.95 L-4.4 6.1 -4.55 5.95" fill="#990000" fill-rule="evenodd" stroke="none"/>
      <path d="M-8.25 -15.2 L-7.45 -15.55 -4.4 -15.45 -4.15 -14.4 -3.0 -14.0 -2.2 -14.2 2.3 -14.65 Q3.0 -14.65 3.5 -14.1 3.95 -13.55 3.95 -12.75 L3.15 -11.5 2.15 -11.4 0.7 -12.95 -3.55 -12.85 -3.55 -12.35 -4.6 -12.5 -3.8 -11.3 -3.85 -10.15 Q-5.65 -8.9 -7.95 -9.2 L-8.95 -10.15 -6.9 -12.05 -6.3 -12.0 -4.7 -13.2 -5.45 -13.05 Q-7.2 -13.1 -8.5 -14.35 L-8.25 -15.2 M5.7 -12.55 Q6.55 -12.05 7.35 -11.6 L7.5 -8.75 11.5 -6.9 12.2 -4.8 11.8 -4.2 11.1 -4.0 7.4 -5.25 8.05 -6.05 6.35 -6.4 3.4 -5.3 2.7 -3.45 2.1 -3.2 0.6 -4.55 3.85 -8.3 -0.25 -6.4 -1.25 -6.6 -1.3 -6.15 -3.35 -3.55 -3.2 -1.9 -1.5 -3.35 -0.55 -3.15 -2.55 0.5 -1.65 2.7 -0.5 4.55 1.0 6.2 2.45 7.5 2.75 7.7 3.75 7.5 2.65 6.0 2.45 5.7 1.8 4.45 0.35 1.05 0.8 0.3 2.1 1.15 2.45 1.5 3.15 2.15 4.95 4.4 4.5 5.0 3.1 4.5 4.7 6.4 5.1 6.85 7.25 8.95 8.2 9.65 9.75 10.5 9.65 10.85 8.4 10.9 5.1 10.15 4.9 10.05 Q3.6 9.75 2.45 9.25 L1.8 8.9 0.5 7.9 -1.95 5.35 -2.6 5.0 -4.45 3.25 -5.4 2.3 -6.85 -0.15 -5.4 -1.3 -5.25 -1.15 -5.0 -0.2 -4.65 0.85 -4.5 1.1 -4.3 1.45 -3.45 2.45 -3.85 1.3 Q-4.85 -1.4 -4.2 -3.95 L-3.75 -4.9 Q-2.75 -6.85 -0.75 -8.05 L0.4 -7.3 0.5 -8.65 3.65 -9.45 5.4 -7.55 5.8 -9.0 6.55 -9.85 5.7 -12.55 M10.95 7.15 L12.05 5.45 Q12.8 4.65 12.8 6.5 12.8 7.35 12.15 7.55 L12.75 8.3 12.65 8.6 11.15 8.75 Q10.55 8.75 10.55 7.9 L10.95 7.15 M-4.55 5.95 L-4.4 6.1 -3.6 6.95 Q-2.7 8.1 -2.5 9.6 L-2.85 9.55 -3.6 9.25 -5.2 7.85 -4.55 5.95" fill="#ff0000" fill-rule="evenodd" stroke="none"/>
      <path d="M11.6 0.8 L11.55 1.1 Q11.55 2.1 12.2 3.45 L12.65 4.45 Q12.2 4.75 12.05 5.45 L10.95 7.15 10.7 7.3 9.8 7.0 8.6 6.7 Q8.1 6.7 7.8 6.95 L6.5 5.35 6.9 4.25 10.4 4.6 Q7.05 3.7 5.1 1.05 L4.85 0.7 4.05 -0.8 Q4.5 -1.8 5.1 -2.5 L5.3 -2.7 Q6.55 -3.9 8.3 -4.3 L9.05 -4.0 Q10.15 -3.45 10.75 -2.55 L11.1 -2.0 Q11.1 -1.05 10.25 -1.05 9.35 -1.1 9.35 -0.2 9.35 0.8 10.5 0.8 L11.6 0.8" fill="#650101" fill-rule="evenodd" stroke="none"/>
      <path d="M-5.2 10.45 L-5.85 10.1 -5.45 10.2 -5.2 10.45" fill="#9299a9" fill-rule="evenodd" stroke="none"/>
      <path d="M-10.65 6.0 L-12.65 0.8 -12.65 0.75 -12.7 -0.1 -12.7 -0.5 -12.65 -0.75 -12.7 -2.65 -12.5 -5.6 -12.45 -6.15 -12.4 -6.6 -12.3 -7.35 -12.1 -8.25 -12.0 -8.9 -11.65 -11.45 -9.05 -13.1 Q-8.5 -12.25 -7.4 -12.0 L-6.9 -12.05 -8.95 -10.15 Q-8.95 -9.15 -8.45 -8.45 -8.0 -7.75 -7.35 -7.75 L-7.1 -7.7 -7.4 -7.35 -8.75 -5.2 Q-10.4 -2.2 -10.3 0.8 -10.15 2.25 -10.25 3.7 -10.3 4.85 -10.65 6.0" fill="#6a502d" fill-rule="evenodd" stroke="none"/>
      <path d="M-5.85 10.1 L-6.9 9.5 -8.25 8.65 -10.65 6.0 Q-10.3 4.85 -10.25 3.7 -10.15 2.25 -10.3 0.8 -10.4 -2.2 -8.75 -5.2 L-7.4 -7.35 -7.1 -7.7 Q-4.15 -7.35 -2.9 -10.15 L-2.35 -11.45 0.25 -11.0 0.5 -8.65 0.4 -7.3 -0.75 -8.05 -2.65 -9.15 -5.85 -5.8 -5.4 -2.9 -6.0 -3.05 -6.35 -2.4 -7.9 -1.65 -7.0 2.2 Q-6.45 3.85 -5.05 4.9 L-6.7 6.45 -4.65 9.3 -4.65 9.9 -5.45 10.2 -5.85 10.1 M5.8 -9.0 L5.4 -7.55 3.65 -9.45 3.05 -10.2 3.3 -10.7 5.8 -9.0" fill="#731c0f" fill-rule="evenodd" stroke="none"/>
    </g>
  </defs>
</svg>
