<?xml version="1.0" encoding="UTF-8" standalone="no"?>
<svg xmlns:ffdec="https://www.free-decompiler.com/flash" xmlns:xlink="http://www.w3.org/1999/xlink" ffdec:objectType="frame" height="147.15px" width="100.35px" xmlns="http://www.w3.org/2000/svg">
  <g transform="matrix(1.0, 0.0, 0.0, 1.0, 49.1, 86.8)">
    <use ffdec:characterId="1891" height="22.85" id="neck" transform="matrix(1.0, 0.0, 0.0, 1.0, -18.95, -55.0)" width="40.45" xlink:href="#sprite0"/>
    <use ffdec:characterId="1889" height="87.7" transform="matrix(1.0, 0.0, 0.0, 1.0, -39.45, -43.85)" width="78.9" xlink:href="#shape1"/>
    <use ffdec:characterId="1138" height="0.0" id="spineRef" transform="matrix(1.0, 0.0, 0.0, 1.0, 10.85, -50.9)" width="0.0" xlink:href="#sprite1"/>
  </g>
  <defs>
    <g id="sprite0" transform="matrix(1.0, 0.0, 0.0, 1.0, 19.6, 12.75)">
      <use ffdec:characterId="1890" height="22.85" transform="matrix(1.0, 0.0, 0.0, 1.0, -19.6, -12.75)" width="40.45" xlink:href="#shape0"/>
    </g>
    <g id="shape0" transform="matrix(1.0, 0.0, 0.0, 1.0, 19.6, 12.75)">
      <path d="M5.45 -12.25 L6.25 -12.75 7.9 -12.5 Q9.1 -11.35 8.1 -9.85 L7.6 -9.75 Q7.5 -11.5 5.45 -12.25 M7.45 -9.55 Q8.65 -8.8 8.65 -7.9 L9.25 -7.6 10.7 -6.55 11.05 -6.3 14.4 -4.7 17.0 -3.0 19.3 -0.55 20.5 -0.25 20.85 0.6 20.1 1.35 19.9 2.25 Q19.55 2.6 18.75 2.6 16.8 2.6 14.8 1.2 L12.85 -0.5 13.0 -0.55 16.45 0.2 17.0 0.25 17.0 0.1 16.6 -0.65 Q15.55 -2.65 14.65 -3.3 L11.55 -5.65 10.85 -6.05 13.15 -4.45 Q9.1 -6.55 8.3 -7.1 L8.25 -7.1 7.85 -6.85 Q7.85 -7.65 6.85 -8.2 5.85 -8.75 4.4 -8.75 L2.15 -9.55 Q1.9 -9.55 1.5 -9.2 L1.25 -9.0 Q1.25 -8.6 0.9 -8.4 L-0.25 -8.2 -1.9 -8.25 -2.6 -6.75 -3.25 -6.95 -6.35 -5.5 Q-7.3 -2.4 -9.25 -2.25 L-10.4 -2.45 -9.8 -4.65 Q-6.55 -7.5 -2.5 -8.95 L-0.25 -9.75 0.3 -9.7 Q0.65 -11.9 4.45 -10.8 L5.0 -10.6 5.1 -9.85 5.6 -9.45 7.45 -9.55 M4.1 -7.05 L3.4 -6.55 5.3 -3.7 5.05 -3.3 7.0 -1.55 6.75 -0.7 6.35 -0.55 Q4.65 0.15 3.4 -1.0 L3.25 -1.7 3.3 -2.5 4.05 -3.25 1.8 -5.15 -1.15 -1.65 -2.9 -1.65 -3.5 -2.6 -3.2 -4.1 -0.45 -4.95 -0.2 -5.45 1.55 -7.65 2.75 -7.3 3.15 -8.0 3.8 -8.35 3.65 -7.75 4.1 -7.05 M14.2 1.85 Q15.15 1.85 15.85 2.35 16.5 2.8 16.5 3.5 16.0 5.8 14.55 5.15 L14.0 5.05 13.9 2.25 14.2 1.85" fill="#ff0000" fill-rule="evenodd" stroke="none"/>
      <path d="M7.6 -9.75 L7.45 -9.55 5.6 -9.45 5.1 -9.85 5.0 -10.6 5.45 -12.25 Q7.5 -11.5 7.6 -9.75 M7.85 -6.85 L7.75 -6.25 Q7.75 -5.85 7.25 -5.55 6.75 -5.25 6.05 -5.25 L4.1 -7.05 3.65 -7.75 3.8 -8.35 4.4 -8.75 Q5.85 -8.75 6.85 -8.2 7.85 -7.65 7.85 -6.85" fill="#ffffff" fill-rule="evenodd" stroke="none"/>
      <path d="M19.9 2.25 L19.55 2.95 18.25 4.5 17.85 4.55 17.8 4.5 16.5 3.5 Q16.5 2.8 15.85 2.35 15.15 1.85 14.2 1.85 10.75 -0.8 9.85 -0.75 L7.75 -0.85 7.75 -0.8 7.45 0.5 Q6.9 1.25 5.35 1.25 3.5 1.25 3.0 0.4 2.8 -0.05 2.9 -0.5 2.9 -1.2 3.25 -1.7 L3.4 -1.0 Q4.65 0.15 6.35 -0.55 L6.75 -0.7 7.0 -1.55 5.05 -3.3 5.3 -3.7 3.4 -6.55 4.1 -7.05 6.05 -5.25 Q8.5 -1.95 12.55 -0.9 L13.75 -0.75 14.05 -1.6 Q11.2 -4.55 7.75 -6.25 L7.85 -6.85 8.25 -7.1 8.3 -7.1 Q9.1 -6.55 13.15 -4.45 L10.85 -6.05 11.55 -5.65 14.65 -3.3 Q15.55 -2.65 16.6 -0.65 L17.0 0.1 17.0 0.25 16.45 0.2 13.0 -0.55 12.85 -0.5 14.8 1.2 Q16.8 2.6 18.75 2.6 19.55 2.6 19.9 2.25 M-2.6 -6.75 L-1.9 -8.25 -0.25 -8.2 0.9 -8.4 Q1.25 -8.6 1.25 -9.0 L1.5 -9.2 Q1.9 -9.55 2.15 -9.55 L4.4 -8.75 3.8 -8.35 3.15 -8.0 2.75 -7.3 1.55 -7.65 -0.2 -5.45 -0.25 -5.6 -0.25 -6.05 -2.6 -6.75 M3.3 -2.5 L2.25 -3.15 -0.85 -0.1 -2.0 -0.05 -3.0 -0.7 -3.4 -1.05 Q-3.9 -1.7 -3.5 -2.6 L-2.9 -1.65 -1.15 -1.65 1.8 -5.15 4.05 -3.25 3.3 -2.5" fill="#990000" fill-rule="evenodd" stroke="none"/>
      <path d="M7.75 -6.25 Q11.2 -4.55 14.05 -1.6 L13.75 -0.75 12.55 -0.9 Q8.5 -1.95 6.05 -5.25 6.75 -5.25 7.25 -5.55 7.75 -5.85 7.75 -6.25" fill="#650101" fill-rule="evenodd" stroke="none"/>
      <path d="M17.8 4.5 L19.85 10.1 Q16.55 7.15 15.15 6.9 7.6 3.3 4.1 2.8 0.6 2.25 -2.5 2.75 L-2.55 2.75 Q-5.65 3.3 -8.0 4.6 -10.4 5.9 -14.2 5.7 -18.05 5.5 -19.6 4.75 -13.9 -2.15 -9.8 -4.65 L-10.4 -2.45 -9.25 -2.25 Q-7.3 -2.4 -6.35 -5.5 L-3.25 -6.95 -2.6 -6.75 -0.25 -6.05 -0.25 -5.6 -0.2 -5.45 -0.45 -4.95 -3.2 -4.1 -3.5 -2.6 Q-3.9 -1.7 -3.4 -1.05 L-3.0 -0.7 -2.0 -0.05 -0.85 -0.1 2.25 -3.15 3.3 -2.5 3.25 -1.7 Q2.9 -1.2 2.9 -0.5 2.8 -0.05 3.0 0.4 3.5 1.25 5.35 1.25 6.9 1.25 7.45 0.5 L7.75 -0.8 7.75 -0.85 9.85 -0.75 Q10.75 -0.8 14.2 1.85 L13.9 2.25 14.0 5.05 14.55 5.15 Q16.0 5.8 16.5 3.5 L17.8 4.5" fill="#583a30" fill-rule="evenodd" stroke="none"/>
    </g>
    <g id="shape1" transform="matrix(1.0, 0.0, 0.0, 1.0, 39.45, 43.85)">
      <path d="M14.6 -37.7 L20.3 -33.05 21.5 -30.35 22.05 -29.1 Q23.45 -26.0 24.8 -24.2 L24.8 -24.05 25.95 -22.2 27.75 -19.05 28.45 -17.7 29.85 -14.75 27.45 -18.4 27.35 -18.55 25.35 -20.9 24.45 -22.0 23.25 -23.95 19.85 -29.5 17.1 -34.05 16.25 -35.5 16.2 -35.55 15.15 -37.1 14.6 -37.7 M-14.5 -27.9 L-13.9 -29.7 -12.2 -34.0 Q-11.45 -35.75 -10.2 -37.1 L-10.1 -37.2 Q-7.25 -40.35 -2.95 -40.35 1.5 -40.4 5.7 -39.2 8.25 -38.55 10.4 -37.1 L13.4 -34.35 14.75 -32.65 Q16.35 -30.7 16.3 -28.1 L16.3 -27.2 16.0 -26.3 15.15 -24.2 14.4 -22.95 13.25 -21.15 10.6 -17.65 Q9.35 -15.8 6.7 -14.4 4.1 -13.0 1.9 -13.0 L-3.25 -13.6 Q-7.3 -14.35 -8.9 -15.65 -11.5 -17.7 -12.75 -19.05 L-13.8 -20.35 -14.2 -23.35 -14.5 -27.9" fill="#583a30" fill-rule="evenodd" stroke="none"/>
      <path d="M29.85 -14.75 L30.5 -13.7 31.5 -11.65 Q32.85 -8.3 32.5 -4.55 L28.35 -9.45 26.35 -11.95 24.8 -14.2 24.35 -14.95 21.45 -20.05 20.45 -21.85 Q18.25 -25.85 16.75 -30.05 15.35 -34.0 12.3 -36.9 L12.1 -37.1 11.5 -37.6 Q9.7 -39.1 7.35 -40.05 L3.65 -41.05 -0.6 -41.45 Q-5.65 -41.9 -9.75 -39.2 L-10.2 -38.9 Q-13.45 -36.65 -15.9 -33.4 L-19.55 -27.95 Q-21.15 -25.35 -22.4 -22.55 -23.65 -19.85 -24.5 -17.05 -25.6 -13.15 -28.45 -7.2 -26.45 -16.2 -24.65 -22.95 L-23.35 -27.05 -27.35 -20.65 -31.7 -12.95 -32.95 -10.45 -35.55 -4.95 -37.35 -0.95 -36.45 -6.15 Q-35.85 -9.5 -34.45 -12.5 L-33.4 -14.55 -32.8 -15.8 -31.65 -19.1 Q-30.65 -22.05 -28.7 -24.6 L-27.65 -25.9 -26.3 -27.95 -22.65 -33.0 Q-20.7 -35.9 -19.3 -37.15 -17.8 -38.5 -15.55 -39.5 -13.4 -41.25 -10.2 -42.15 L-10.05 -42.2 -5.85 -43.2 -2.4 -43.75 -2.1 -43.75 -1.05 -43.85 4.0 -43.5 Q6.65 -43.4 8.75 -42.1 L12.15 -39.85 14.5 -37.8 14.6 -37.7 15.15 -37.1 16.2 -35.55 16.25 -35.5 17.1 -34.05 19.85 -29.5 23.25 -23.95 24.45 -22.0 25.35 -20.9 27.35 -18.55 27.45 -18.4 29.85 -14.75 M32.15 8.6 L32.7 10.1 32.95 10.95 33.45 12.3 Q34.65 14.95 35.65 17.95 37.05 22.25 37.95 26.55 38.75 30.3 39.1 34.3 L39.45 42.6 39.3 43.85 35.95 43.85 31.8 43.15 31.65 42.2 31.75 41.95 Q32.9 38.45 31.6 34.8 L35.3 41.15 35.95 37.05 36.3 37.4 Q37.1 35.5 36.95 33.6 36.55 28.15 35.65 22.7 L35.5 21.95 Q34.75 19.65 33.4 17.75 L29.6 12.5 26.7 8.7 28.3 4.6 29.3 4.9 32.15 8.6 M-39.45 27.2 L-39.3 22.7 Q-39.05 15.1 -38.4 7.7 L-38.25 6.5 -36.7 11.15 -30.95 -0.1 Q-31.25 2.15 -31.95 4.35 L-32.85 6.6 -34.6 10.95 Q-35.85 14.95 -36.5 19.1 -37.2 23.5 -39.45 27.2" fill="#ecdecb" fill-rule="evenodd" stroke="none"/>
      <path d="M32.5 -4.55 L32.2 -1.55 31.9 0.7 Q31.75 2.2 30.5 3.0 L32.15 8.6 29.3 4.9 28.3 4.6 26.7 8.7 29.6 12.5 33.4 17.75 Q34.75 19.65 35.5 21.95 L35.65 22.7 Q36.55 28.15 36.95 33.6 37.1 35.5 36.3 37.4 L35.95 37.05 35.3 41.15 31.6 34.8 Q32.9 38.45 31.75 41.95 L31.65 42.2 31.8 43.15 28.8 43.15 30.75 40.8 Q31.25 40.0 31.1 39.2 L30.8 36.55 Q30.4 32.25 29.4 28.25 L28.7 25.6 25.9 32.15 Q25.9 27.15 27.55 22.25 L25.5 18.75 Q25.1 21.5 23.6 24.0 22.6 25.6 21.9 27.2 L21.15 28.65 21.6 26.5 22.95 21.2 23.5 17.9 Q23.65 16.55 23.05 15.3 L18.65 11.4 20.55 7.65 Q19.7 8.3 18.8 8.9 L17.55 8.9 25.5 1.4 Q25.4 -0.8 24.25 -2.75 L20.35 -9.5 20.3 -9.6 Q19.05 -11.7 18.05 -13.9 17.1 -16.0 16.3 -18.15 L16.3 -27.2 16.3 -28.1 Q16.35 -30.7 14.75 -32.65 L13.4 -34.35 10.4 -37.1 Q8.25 -38.55 5.7 -39.2 1.5 -40.4 -2.95 -40.35 -7.25 -40.35 -10.1 -37.2 L-10.2 -37.1 Q-11.45 -35.75 -12.2 -34.0 L-13.9 -29.7 -14.5 -27.9 -14.6 -27.7 -18.55 -20.05 -22.05 -12.7 Q-23.25 -10.5 -25.05 -5.4 L-26.35 -1.75 Q-29.1 6.25 -27.35 7.05 -25.65 7.8 -26.25 10.5 -26.9 13.2 -28.25 17.25 L-30.4 23.5 -30.65 25.05 -26.0 19.2 Q-25.95 20.8 -26.75 22.3 L-27.65 24.1 -28.15 25.0 -29.0 26.45 Q-31.25 30.0 -32.8 34.05 L-33.4 35.45 Q-31.75 33.65 -29.75 32.2 L-26.8 29.75 -25.35 28.4 -24.4 27.3 -23.0 24.4 Q-21.95 21.6 -19.5 20.0 -20.15 22.3 -21.25 24.4 -22.2 26.2 -23.6 27.7 L-24.65 28.95 -26.25 30.8 -27.65 32.3 Q-30.65 35.6 -32.3 39.85 L-32.8 41.1 -32.9 41.1 -34.65 40.9 -39.3 41.1 -39.45 27.2 Q-37.2 23.5 -36.5 19.1 -35.85 14.95 -34.6 10.95 L-32.85 6.6 -31.95 4.35 Q-31.25 2.15 -30.95 -0.1 L-36.7 11.15 -38.25 6.5 -37.35 -0.95 -35.55 -4.95 -32.95 -10.45 -31.7 -12.95 -27.35 -20.65 -23.35 -27.05 -24.65 -22.95 Q-26.45 -16.2 -28.45 -7.2 -25.6 -13.15 -24.5 -17.05 -23.65 -19.85 -22.4 -22.55 -21.15 -25.35 -19.55 -27.95 L-15.9 -33.4 Q-13.45 -36.65 -10.2 -38.9 L-9.75 -39.2 Q-5.65 -41.9 -0.6 -41.45 L3.65 -41.05 7.35 -40.05 Q9.7 -39.1 11.5 -37.6 L12.1 -37.1 12.3 -36.9 Q15.35 -34.0 16.75 -30.05 18.25 -25.85 20.45 -21.85 L21.45 -20.05 24.35 -14.95 24.8 -14.2 26.35 -11.95 28.35 -9.45 32.5 -4.55 M-25.9 41.65 L-26.7 41.65 -28.05 41.6 -27.2 39.25 -27.2 39.4 -27.15 39.15 -26.8 38.05 -26.1 36.95 -24.7 35.15 -24.45 35.15 Q-24.85 36.1 -25.9 41.6 L-25.9 41.65" fill="#d7c9b5" fill-rule="evenodd" stroke="none"/>
      <path d="M28.8 43.15 L28.2 43.15 25.8 43.05 24.65 42.65 22.4 42.35 20.15 42.15 16.35 41.4 11.35 40.85 Q3.45 40.4 -2.3 40.55 L-6.95 39.9 -17.7 40.8 -25.9 41.65 -25.9 41.6 Q-24.85 36.1 -24.45 35.15 L-24.7 35.15 -26.1 36.95 -26.8 38.05 -27.15 39.15 -27.2 39.4 -27.2 39.25 -28.05 41.6 -32.8 41.1 -32.3 39.85 Q-30.65 35.6 -27.65 32.3 L-26.25 30.8 -24.65 28.95 -23.6 27.7 Q-22.2 26.2 -21.25 24.4 -20.15 22.3 -19.5 20.0 -21.95 21.6 -23.0 24.4 L-24.4 27.3 -25.35 28.4 -26.8 29.75 -29.75 32.2 Q-31.75 33.65 -33.4 35.45 L-32.8 34.05 Q-31.25 30.0 -29.0 26.45 L-28.15 25.0 -27.65 24.1 -26.75 22.3 Q-25.95 20.8 -26.0 19.2 L-30.65 25.05 -30.4 23.5 -28.25 17.25 Q-26.9 13.2 -26.25 10.5 -25.65 7.8 -27.35 7.05 -29.1 6.25 -26.35 -1.75 L-25.05 -5.4 Q-23.25 -10.5 -22.05 -12.7 L-18.55 -20.05 -14.6 -27.7 Q-16.05 -23.55 -16.3 -22.15 L-16.65 -18.3 -16.7 -16.3 Q-16.7 -12.25 -15.95 -9.3 -16.0 -5.6 -14.35 -2.35 L-14.15 -1.85 -14.1 -1.55 Q-21.05 -0.35 -17.55 4.1 -16.55 5.3 -15.55 3.9 -14.25 2.05 -15.2 -0.1 L-13.85 -0.3 Q-14.5 3.6 -10.95 4.4 -8.1 5.15 -6.95 2.15 -3.2 1.8 0.2 3.45 2.1 7.05 2.55 11.1 1.85 11.4 1.25 11.85 0.7 12.25 0.3 12.8 L1.65 14.4 2.8 14.3 3.45 13.45 4.05 13.65 Q4.8 8.7 3.05 4.15 L5.05 4.0 Q7.05 6.0 7.3 8.9 L9.05 8.9 9.05 6.15 Q7.8 4.75 7.7 2.9 7.65 1.75 8.6 1.0 L9.3 0.55 Q12.15 -0.95 13.7 -3.75 L14.7 -6.1 Q16.15 -10.45 16.3 -18.15 17.1 -16.0 18.05 -13.9 19.05 -11.7 20.3 -9.6 L20.35 -9.5 24.25 -2.75 Q25.4 -0.8 25.5 1.4 L17.55 8.9 18.8 8.9 Q19.7 8.3 20.55 7.65 L18.65 11.4 23.05 15.3 Q23.65 16.55 23.5 17.9 L22.95 21.2 21.6 26.5 21.15 28.65 21.9 27.2 Q22.6 25.6 23.6 24.0 25.1 21.5 25.5 18.75 L27.55 22.25 Q25.9 27.15 25.9 32.15 L28.7 25.6 29.4 28.25 Q30.4 32.25 30.8 36.55 L31.1 39.2 Q31.25 40.0 30.75 40.8 L28.8 43.15 M14.05 -1.65 Q13.7 -1.35 13.7 -0.85 13.7 -0.35 14.05 0.0 L14.85 0.3 15.7 0.0 16.0 -0.85 15.7 -1.65 Q15.35 -2.0 14.85 -2.0 14.35 -2.0 14.05 -1.65 M-3.55 10.4 Q-3.9 10.7 -3.9 11.2 -3.9 11.7 -3.55 12.05 L-2.75 12.35 -1.9 12.05 Q-1.6 11.7 -1.6 11.2 -1.6 10.7 -1.9 10.4 -2.25 10.05 -2.75 10.05 -3.25 10.05 -3.55 10.4" fill="#bbaa91" fill-rule="evenodd" stroke="none"/>
      <path d="M9.3 0.55 L8.6 1.0 Q7.65 1.75 7.7 2.9 7.8 4.75 9.05 6.15 L9.05 8.9 7.3 8.9 Q7.05 6.0 5.05 4.0 L3.05 4.15 Q4.8 8.7 4.05 13.65 L3.45 13.45 2.8 14.3 1.65 14.4 0.3 12.8 Q0.7 12.25 1.25 11.85 1.85 11.4 2.55 11.1 2.1 7.05 0.2 3.45 -3.2 1.8 -6.95 2.15 -8.1 5.15 -10.95 4.4 -14.5 3.6 -13.85 -0.3 L-15.2 -0.1 Q-14.25 2.05 -15.55 3.9 -16.55 5.3 -17.55 4.1 -21.05 -0.35 -14.1 -1.55 L-14.15 -1.85 -14.35 -2.35 Q-16.0 -5.6 -15.95 -9.3 -15.2 -6.1 -12.95 -3.9 -11.5 -2.45 -9.9 -1.3 -1.55 4.7 9.3 0.55 M14.05 -1.65 Q14.35 -2.0 14.85 -2.0 15.35 -2.0 15.7 -1.65 L16.0 -0.85 15.7 0.0 14.85 0.3 14.05 0.0 Q13.7 -0.35 13.7 -0.85 13.7 -1.35 14.05 -1.65 M-3.55 10.4 Q-3.25 10.05 -2.75 10.05 -2.25 10.05 -1.9 10.4 -1.6 10.7 -1.6 11.2 -1.6 11.7 -1.9 12.05 L-2.75 12.35 -3.55 12.05 Q-3.9 11.7 -3.9 11.2 -3.9 10.7 -3.55 10.4" fill="#c0ac6d" fill-rule="evenodd" stroke="none"/>
      <path d="M-14.5 -27.9 L-14.2 -23.35 -13.8 -20.35 -12.75 -19.05 Q-11.5 -17.7 -8.9 -15.65 -7.3 -14.35 -3.25 -13.6 L1.9 -13.0 Q4.1 -13.0 6.7 -14.4 9.35 -15.8 10.6 -17.65 L13.25 -21.15 14.4 -22.95 15.15 -24.2 16.0 -26.3 16.3 -27.2 16.3 -18.15 Q16.15 -10.45 14.7 -6.1 L13.7 -3.75 Q12.15 -0.95 9.3 0.55 -1.55 4.7 -9.9 -1.3 -11.5 -2.45 -12.95 -3.9 -15.2 -6.1 -15.95 -9.3 -16.7 -12.25 -16.7 -16.3 L-16.65 -18.3 -16.3 -22.15 Q-16.05 -23.55 -14.6 -27.7 L-14.5 -27.9" fill="#462e26" fill-rule="evenodd" stroke="none"/>
    </g>
  </defs>
</svg>
