<?xml version="1.0" encoding="UTF-8" standalone="no"?>
<svg xmlns:ffdec="https://www.free-decompiler.com/flash" xmlns:xlink="http://www.w3.org/1999/xlink" ffdec:objectType="frame" height="147.15px" width="100.35px" xmlns="http://www.w3.org/2000/svg">
  <g transform="matrix(1.0, 0.0, 0.0, 1.0, 49.1, 86.8)">
    <use ffdec:characterId="1896" height="55.35" id="chunk1" transform="matrix(1.0, 0.0, 0.0, 1.0, 1.4, -53.05)" width="45.25" xlink:href="#sprite0"/>
    <use ffdec:characterId="1898" height="49.1" id="chunk2" transform="matrix(1.0, 0.0, 0.0, 1.0, 4.35, 7.25)" width="46.9" xlink:href="#sprite1"/>
    <use ffdec:characterId="1900" height="53.65" id="chunk3" transform="matrix(1.0, 0.0, 0.0, 1.0, -49.1, 6.7)" width="46.95" xlink:href="#sprite2"/>
    <use ffdec:characterId="1902" height="61.5" id="chunk4" transform="matrix(1.0, 0.0, 0.0, 1.0, -48.2, -56.8)" width="43.45" xlink:href="#sprite3"/>
    <use ffdec:characterId="1169" height="24.15" id="heart" transform="matrix(1.0, 0.0, 0.0, 1.0, -21.75, -86.8)" width="18.6" xlink:href="#sprite4"/>
    <use ffdec:characterId="1138" height="0.0" id="spineRef" transform="matrix(1.0, 0.0, 0.0, 1.0, 10.85, -50.9)" width="0.0" xlink:href="#sprite10"/>
  </g>
  <defs>
    <g id="sprite0" transform="matrix(1.0, 0.0, 0.0, 1.0, 21.85, 29.2)">
      <use ffdec:characterId="1895" height="55.35" transform="matrix(1.0, 0.0, 0.0, 1.0, -21.85, -29.2)" width="45.25" xlink:href="#shape0"/>
    </g>
    <g id="shape0" transform="matrix(1.0, 0.0, 0.0, 1.0, 21.85, 29.2)">
      <path d="M15.8 22.65 L15.75 22.65 14.3 22.35 15.65 22.1 15.6 22.3 15.8 22.65 M5.35 24.55 Q1.7 26.15 0.65 26.15 -1.1 26.15 -1.9 25.3 L-3.3 24.0 -3.6 23.75 Q-3.45 23.15 -2.75 23.15 L-1.85 23.4 -1.55 23.55 -1.5 23.6 -1.35 23.55 -0.15 23.3 -0.1 23.3 8.35 21.9 8.45 21.8 Q9.55 21.05 10.6 21.05 9.95 21.2 9.4 21.65 6.2 23.55 5.15 24.4 L5.35 24.55 M-8.15 21.5 L-9.5 21.55 Q-10.6 21.55 -10.7 20.95 -10.6 20.2 -10.85 19.9 -11.2 19.5 -12.25 19.15 L-13.75 18.65 Q-16.45 16.85 -16.45 15.35 L-16.35 14.3 -16.0 14.2 -15.95 13.9 -16.0 13.75 -16.15 13.6 -15.75 12.8 -15.85 13.65 -15.85 14.25 Q-15.65 14.8 -14.6 14.8 -13.55 14.8 -10.6 13.4 L-10.6 13.25 Q-12.2 11.55 -13.6 11.4 L-13.3 11.15 -12.25 11.0 -12.35 10.3 -12.25 9.95 -12.1 10.15 -10.5 9.3 Q-9.95 8.95 -9.95 8.3 L-9.9 8.4 -7.85 7.75 -6.7 6.85 Q-4.95 4.55 -2.5 2.9 -0.85 1.8 -0.05 -0.2 L0.45 -0.1 3.85 -5.15 4.85 -2.9 5.7 -3.0 3.8 0.5 1.7 0.5 1.7 1.5 2.6 2.05 0.85 4.3 -0.45 6.4 Q-1.05 7.4 -2.35 7.7 L-2.55 7.3 Q-3.75 6.8 -5.05 7.6 -6.35 8.25 -6.2 9.85 -6.05 10.55 -5.25 10.3 L-3.5 9.55 -2.5 9.0 -2.65 10.15 -2.15 10.2 -3.05 10.8 Q-2.9 11.95 -0.85 11.35 1.9 11.1 3.75 9.05 4.05 11.2 2.05 12.45 0.0 13.75 -2.05 12.65 L-2.9 11.75 -3.05 11.8 Q-3.6 11.9 -4.05 12.15 -5.8 12.7 -7.05 11.4 L-7.05 10.4 Q-6.9 9.1 -6.0 8.15 L-7.2 8.35 -8.85 9.05 -9.75 9.55 -9.85 10.0 -9.55 14.8 -9.7 14.8 Q-11.7 14.85 -13.1 15.65 L-13.0 16.05 -12.85 16.15 -11.0 15.95 Q-10.0 16.3 -9.95 17.65 L-8.35 17.8 Q-7.95 17.8 -7.7 17.05 L-7.6 16.85 -7.55 17.65 -7.7 18.8 -7.7 18.85 -7.75 19.25 -6.75 20.3 Q-6.75 21.0 -7.25 21.25 L-8.15 21.5 M-16.8 -13.45 Q-16.8 -14.55 -16.45 -15.2 L-16.6 -15.85 -16.25 -17.5 -16.6 -18.45 -16.95 -19.6 -16.85 -20.5 Q-16.7 -19.85 -16.1 -19.85 -14.15 -19.85 -13.2 -21.0 L-12.2 -22.4 -11.95 -22.4 -12.05 -22.65 -11.95 -22.85 -12.15 -22.9 -12.55 -24.6 -11.8 -25.7 -11.5 -26.25 -11.75 -24.7 -11.65 -24.7 Q-10.65 -25.35 -9.4 -25.6 L-9.35 -25.6 -7.85 -25.85 Q-6.1 -26.0 -4.55 -25.1 L-4.25 -23.8 -3.55 -23.25 -1.0 -23.7 -0.5 -23.85 0.25 -24.4 0.3 -24.75 0.3 -25.0 0.5 -24.6 0.65 -24.15 0.8 -22.95 0.8 -22.75 0.3 -21.85 -2.75 -21.65 Q-4.5 -21.8 -5.4 -23.2 L-6.45 -24.0 -9.1 -24.5 -9.9 -24.15 -10.35 -23.25 -9.8 -23.05 -12.05 -23.3 -8.6 -20.9 -11.3 -21.3 -11.4 -21.05 -11.35 -20.95 -13.3 -20.0 Q-15.45 -18.6 -15.5 -17.5 L-13.7 -18.75 Q-12.15 -19.9 -11.6 -19.9 L-10.9 -20.05 -10.9 -20.0 -8.8 -19.6 Q-5.85 -18.6 -3.45 -16.4 -1.25 -16.25 -0.15 -14.5 2.1 -11.0 3.2 -6.95 L1.95 -4.65 1.8 -6.45 Q1.45 -8.45 0.4 -10.3 L-0.8 -12.25 -0.5 -10.55 0.15 -5.05 Q0.3 -2.8 -0.6 -0.9 L-0.9 -0.35 -1.85 1.0 Q-3.75 2.85 -6.2 3.65 L-4.9 1.65 -4.7 1.25 -4.7 1.2 -4.95 0.9 -8.0 1.7 Q-9.7 0.3 -13.25 1.2 L-15.25 1.8 -15.2 1.75 -11.95 -1.1 Q-13.55 -1.5 -13.4 -2.75 L-13.3 -3.4 -13.75 -4.45 -13.35 -4.1 Q-13.2 -4.15 -13.2 -4.8 -13.2 -6.0 -14.45 -6.65 -14.85 -8.1 -14.85 -9.35 L-14.35 -11.9 -14.6 -12.4 -15.15 -12.15 -15.85 -11.85 -16.75 -12.15 -16.85 -12.95 -16.8 -13.45 M11.3 -11.25 L11.15 -10.5 Q10.7 -9.9 9.85 -10.05 L9.8 -10.05 Q9.25 -10.15 8.8 -10.35 L8.45 -10.5 Q8.15 -10.9 8.15 -11.4 8.2 -12.4 7.55 -13.2 L7.15 -13.5 5.95 -13.65 5.2 -13.15 5.9 -9.5 2.8 -12.3 4.05 -14.05 6.1 -15.35 6.7 -14.65 7.75 -15.0 7.85 -15.05 8.7 -13.55 10.25 -11.85 11.3 -11.25 M14.4 -4.45 L14.6 -3.25 14.0 -2.4 Q13.1 -1.65 11.65 -2.15 L11.15 -2.5 11.5 -4.65 11.85 -3.55 Q12.5 -3.65 13.1 -3.9 L13.15 -3.9 14.4 -4.45 M3.95 -15.75 L1.65 -14.3 Q0.05 -17.15 -2.7 -19.3 L-1.75 -19.4 -1.05 -18.65 0.0 -18.65 0.7 -20.0 0.25 -20.2 Q0.3 -21.1 0.8 -21.5 L0.7 -20.95 Q0.7 -20.45 1.4 -20.0 2.1 -19.5 2.95 -19.5 3.2 -19.5 3.55 -20.25 L3.65 -20.35 3.95 -21.2 4.1 -20.25 4.1 -19.9 3.65 -18.8 Q3.0 -18.0 1.8 -18.0 L1.35 -18.0 1.7 -16.5 Q2.95 -17.05 3.95 -15.75 M-4.5 -21.0 L-4.85 -20.9 -5.25 -21.15 -4.5 -21.0 M-16.55 3.75 L-16.1 3.9 -14.9 3.1 Q-13.5 2.3 -12.5 2.3 -11.95 2.3 -11.35 2.85 -10.8 3.4 -10.15 3.4 L-9.55 3.5 -8.4 4.6 -8.65 4.7 Q-10.0 3.9 -13.6 4.05 L-13.1 4.4 -12.1 4.4 -12.85 4.5 -13.0 4.65 Q-11.95 4.85 -10.85 5.75 -9.95 6.55 -8.6 6.55 L-8.25 6.5 -8.2 6.5 -8.9 7.15 -9.4 7.3 -9.6 6.8 Q-11.6 6.5 -12.45 7.25 L-13.05 8.0 -14.2 7.25 Q-16.35 5.9 -16.55 3.75 M13.1 21.15 Q13.15 20.35 13.7 19.9 L13.75 20.55 Q14.0 21.45 14.6 21.45 L14.95 21.45 14.3 21.65 13.1 21.15 M16.1 20.35 L16.1 20.7 16.05 21.05 15.45 21.25 15.6 21.15 16.1 20.35 M12.95 8.9 L13.1 9.4 Q13.1 10.5 11.2 10.5 10.55 10.5 9.05 8.5 L7.7 6.45 8.35 5.6 8.35 5.55 12.05 9.35 Q12.35 9.35 12.8 9.0 L12.95 8.9 M6.55 3.65 L5.2 3.0 3.35 2.15 3.7 2.15 Q4.5 2.15 4.75 1.85 L4.8 1.75 4.9 1.8 6.55 3.65 M-6.9 -14.25 L-9.05 -14.1 -9.05 -14.25 -10.4 -12.5 Q-12.75 -9.3 -13.1 -6.6 L-12.85 -5.7 -12.6 -5.05 -10.7 -3.55 -10.4 -3.3 -10.45 -4.2 -10.2 -4.2 Q-9.8 -4.3 -9.45 -4.55 L-8.05 -5.8 -7.6 -5.85 -9.7 -2.7 -9.0 -2.0 -7.8 -2.05 Q-5.85 -2.5 -4.85 -4.15 -3.1 -4.05 -2.25 -5.55 -0.45 -8.8 -2.3 -12.15 L-3.95 -14.9 -4.4 -15.55 -3.3 -10.35 -4.75 -12.8 Q-5.5 -13.9 -6.9 -14.25 M-8.6 -17.6 L-9.1 -17.9 Q-11.9 -17.2 -13.75 -16.15 -16.1 -14.85 -16.1 -13.5 L-16.05 -13.05 -15.85 -13.0 -14.85 -14.1 Q-12.45 -14.1 -12.05 -14.75 -11.1 -16.25 -8.6 -17.6 M-14.3 -4.95 L-13.8 -4.5 -14.25 -4.7 -14.3 -4.95 M-8.8 -1.45 L-8.7 -1.45 -8.65 -1.5 -8.8 -1.45 M-10.1 7.65 L-9.95 7.65 -9.95 8.1 -10.0 7.8 -10.1 7.65" fill="#990000" fill-rule="evenodd" stroke="none"/>
      <path d="M5.7 -25.75 Q6.65 -25.75 7.35 -25.25 8.0 -24.8 8.0 -24.1 7.55 -22.1 6.4 -22.3 L5.5 -23.0 5.4 -25.35 5.7 -25.75 M14.3 22.35 L11.15 22.55 Q10.2 22.6 8.3 23.65 L6.5 24.75 5.35 24.55 5.15 24.4 Q6.2 23.55 9.4 21.65 9.95 21.2 10.6 21.05 L11.25 20.9 12.6 21.0 13.1 21.15 14.3 21.65 14.95 21.45 14.6 21.45 Q14.0 21.45 13.75 20.55 L13.7 19.9 13.65 19.8 Q13.65 19.0 14.9 18.95 16.1 18.95 16.1 20.05 L16.1 20.35 15.6 21.15 15.45 21.25 16.05 21.05 16.4 20.95 Q16.65 20.95 16.65 21.3 16.65 21.8 15.65 22.1 L14.3 22.35 M-16.85 -20.5 L-16.85 -21.25 Q-16.85 -22.55 -15.65 -23.1 L-12.15 -22.9 -11.95 -22.85 -12.05 -22.65 -12.2 -22.4 -13.2 -21.0 Q-14.15 -19.85 -16.1 -19.85 -16.7 -19.85 -16.85 -20.5 M3.3 -22.1 L3.8 -22.15 3.95 -21.5 3.95 -21.45 3.95 -21.2 3.65 -20.35 3.55 -20.25 Q3.2 -19.5 2.95 -19.5 2.1 -19.5 1.4 -20.0 0.7 -20.45 0.7 -20.95 L0.8 -21.5 1.3 -21.95 1.8 -22.05 3.3 -22.1 M7.1 -16.65 Q8.05 -16.55 8.7 -15.75 L8.65 -15.3 8.6 -15.35 8.7 -15.25 11.45 -12.45 11.3 -11.25 10.25 -11.85 8.7 -13.55 7.85 -15.05 7.75 -15.0 6.7 -14.65 6.1 -15.35 4.05 -14.05 2.8 -12.3 5.9 -9.5 5.95 -9.45 6.35 -8.0 6.55 -5.4 Q6.7 -3.95 5.7 -3.0 L4.85 -2.9 3.85 -5.15 0.45 -0.1 -0.05 -0.2 Q-0.85 1.8 -2.5 2.9 -4.95 4.55 -6.7 6.85 L-7.85 7.75 -9.9 8.4 -9.95 8.3 Q-9.95 8.95 -10.5 9.3 L-12.1 10.15 -12.25 9.95 Q-12.6 9.5 -12.6 8.9 -12.6 8.5 -12.9 8.4 L-13.35 8.25 -13.05 8.0 -12.45 7.25 Q-11.6 6.5 -9.6 6.8 L-9.4 7.3 -8.9 7.15 -8.2 6.5 -8.25 6.5 -8.6 6.55 Q-9.95 6.55 -10.85 5.75 -11.95 4.85 -13.0 4.65 L-12.85 4.5 -12.1 4.4 -13.1 4.4 -13.6 4.05 Q-10.0 3.9 -8.65 4.7 L-8.4 4.6 -9.55 3.5 -10.15 3.4 Q-10.8 3.4 -11.35 2.85 -11.95 2.3 -12.5 2.3 -13.5 2.3 -14.9 3.1 L-16.1 3.9 -16.55 3.75 -16.85 2.95 Q-16.85 2.4 -15.25 1.8 L-13.25 1.2 Q-9.7 0.3 -8.0 1.7 L-4.95 0.9 -4.7 1.2 -4.7 1.25 -4.9 1.65 -6.2 3.65 Q-3.75 2.85 -1.85 1.0 L-0.9 -0.35 -0.6 -0.9 Q0.3 -2.8 0.15 -5.05 L-0.5 -10.55 -0.8 -12.25 0.4 -10.3 Q1.45 -8.45 1.8 -6.45 L1.95 -4.65 3.2 -6.95 Q2.1 -11.0 -0.15 -14.5 -1.25 -16.25 -3.45 -16.4 -5.85 -18.6 -8.8 -19.6 L-10.9 -20.0 -10.9 -20.05 -11.6 -19.9 Q-12.15 -19.9 -13.7 -18.75 L-15.5 -17.5 Q-15.45 -18.6 -13.3 -20.0 L-11.35 -20.95 -11.4 -21.05 -11.3 -21.3 -8.6 -20.9 -12.05 -23.3 -9.8 -23.05 -5.25 -21.15 -4.85 -20.9 -4.5 -21.0 -3.8 -21.05 Q-1.65 -21.0 0.25 -20.2 L0.7 -20.0 0.0 -18.65 -1.05 -18.65 -1.75 -19.4 -2.7 -19.3 Q0.05 -17.15 1.65 -14.3 L3.95 -15.75 Q5.25 -16.55 6.5 -16.65 L7.1 -16.65 M12.25 -5.5 L13.45 -6.1 14.3 -6.15 14.6 -5.8 14.65 -4.85 14.4 -4.45 13.15 -3.9 13.1 -3.9 Q12.5 -3.65 11.85 -3.55 L11.5 -4.65 12.25 -5.5 M0.3 -25.0 L0.3 -24.75 0.25 -24.4 -0.5 -23.85 -1.0 -23.7 -3.55 -23.25 -4.25 -23.8 -4.55 -25.1 Q-6.1 -26.0 -7.85 -25.85 L-9.35 -25.6 -9.4 -25.6 Q-10.65 -25.35 -11.65 -24.7 L-11.75 -24.7 -11.5 -26.25 -10.9 -26.85 Q-9.5 -27.9 -5.7 -27.2 -0.25 -26.15 0.3 -25.0 M11.65 5.9 Q13.3 7.35 13.3 8.15 L13.2 8.6 12.95 8.9 12.8 9.0 Q12.35 9.35 12.05 9.35 L8.35 5.55 6.65 3.75 6.55 3.65 4.9 1.8 4.8 1.7 4.8 1.75 4.75 1.85 Q4.5 2.15 3.7 2.15 L3.35 2.15 2.6 2.05 1.7 1.5 1.7 0.5 3.8 0.5 3.95 0.4 6.8 2.4 9.35 4.15 11.65 5.9 M-2.35 7.7 Q-2.2 8.05 -2.2 8.55 L-2.5 9.0 -3.5 9.55 -5.25 10.3 Q-6.05 10.55 -6.2 9.85 -6.35 8.25 -5.05 7.6 -3.75 6.8 -2.55 7.3 L-2.35 7.7 M-2.15 10.2 L1.6 7.8 Q3.8 6.8 3.8 9.0 L3.75 9.05 Q1.9 11.1 -0.85 11.35 -2.9 11.95 -3.05 10.8 L-2.15 10.2 M-9.55 14.8 Q-7.5 14.8 -7.5 16.15 L-7.5 16.4 -7.6 16.85 -7.7 17.05 Q-7.95 17.8 -8.35 17.8 L-9.95 17.65 Q-10.0 16.3 -11.0 15.95 L-12.85 16.15 -13.0 16.05 -13.1 15.65 Q-11.7 14.85 -9.7 14.8 L-9.55 14.8 M-8.6 -17.6 Q-11.1 -16.25 -12.05 -14.75 -12.45 -14.1 -14.85 -14.1 L-15.85 -13.0 -16.05 -13.05 -16.1 -13.5 Q-16.1 -14.85 -13.75 -16.15 -11.9 -17.2 -9.1 -17.9 L-8.6 -17.6 M-14.45 -6.65 Q-13.2 -6.0 -13.2 -4.8 -13.2 -4.15 -13.35 -4.1 L-13.75 -4.45 -13.8 -4.5 -14.3 -4.95 -14.55 -5.1 Q-15.0 -5.1 -15.65 -4.6 -16.3 -4.1 -16.35 -4.1 L-17.4 -4.25 -17.7 -4.35 -17.75 -5.25 Q-17.75 -6.9 -16.65 -7.1 L-15.45 -7.0 -14.45 -6.65 M-10.1 7.65 L-10.0 7.8 -9.95 8.1 -9.95 7.65 -10.1 7.65 M-14.75 11.6 L-14.3 11.45 -13.6 11.4 Q-12.2 11.55 -10.6 13.25 L-10.6 13.4 Q-13.55 14.8 -14.6 14.8 -15.65 14.8 -15.85 14.25 L-15.85 13.65 -15.75 12.8 Q-15.5 11.95 -14.75 11.6" fill="#ff0000" fill-rule="evenodd" stroke="none"/>
      <path d="M-6.9 -14.25 Q-5.5 -13.9 -4.75 -12.8 L-3.3 -10.35 -4.4 -15.55 -3.95 -14.9 -2.3 -12.15 Q-0.45 -8.8 -2.25 -5.55 -3.1 -4.05 -4.85 -4.15 -5.85 -2.5 -7.8 -2.05 L-9.0 -2.0 -9.7 -2.7 -7.6 -5.85 -8.05 -5.8 -9.45 -4.55 Q-9.8 -4.3 -10.2 -4.2 L-10.45 -4.2 -10.4 -3.3 -10.7 -3.55 -12.6 -5.05 -12.85 -5.7 -13.1 -6.6 Q-12.75 -9.3 -10.4 -12.5 L-9.05 -14.25 -9.05 -14.1 -6.9 -14.25" fill="#650101" fill-rule="evenodd" stroke="none"/>
      <path d="M-16.35 14.3 Q-19.0 14.3 -19.45 12.35 L-19.45 10.25 Q-19.55 9.55 -20.7 8.1 -21.85 6.65 -21.85 6.2 -21.85 3.95 -20.6 0.95 -19.05 -2.8 -18.7 -4.65 -19.05 -8.1 -16.8 -13.45 L-16.85 -12.95 -16.75 -12.15 -15.85 -11.85 -15.15 -12.15 -16.65 -7.1 Q-17.75 -6.9 -17.75 -5.25 L-17.7 -4.35 -17.4 -4.25 Q-18.5 0.0 -18.5 1.65 L-18.9 3.8 -19.35 5.95 -18.75 8.85 Q-17.8 11.65 -16.0 11.65 L-14.75 11.6 Q-15.5 11.95 -15.75 12.8 L-16.15 13.6 -16.0 13.75 -15.95 13.9 -16.0 14.2 -16.35 14.3" fill="#6b476b" fill-rule="evenodd" stroke="none"/>
      <path d="M-15.25 1.8 Q-16.85 2.4 -16.85 2.95 L-16.55 3.75 Q-16.35 5.9 -14.2 7.25 L-13.05 8.0 -13.35 8.25 -12.9 8.4 Q-12.6 8.5 -12.6 8.9 -12.6 9.5 -12.25 9.95 L-12.35 10.3 -12.25 11.0 -13.3 11.15 -13.6 11.4 -14.3 11.45 -14.75 11.6 -16.0 11.65 Q-17.8 11.65 -18.75 8.85 L-19.35 5.95 -18.9 3.8 -18.5 1.65 Q-18.5 0.0 -17.4 -4.25 L-16.35 -4.1 Q-16.3 -4.1 -15.65 -4.6 -15.0 -5.1 -14.55 -5.1 L-14.3 -4.95 -14.25 -4.7 -13.8 -4.5 -13.75 -4.45 -13.3 -3.4 -13.4 -2.75 Q-13.55 -1.5 -11.95 -1.1 L-15.2 1.75 -15.25 1.8 M-15.15 -12.15 L-14.6 -12.4 -14.35 -11.9 -14.85 -9.35 Q-14.85 -8.1 -14.45 -6.65 L-15.45 -7.0 -16.65 -7.1 -15.15 -12.15" fill="#4d334d" fill-rule="evenodd" stroke="none"/>
      <path d="M20.7 -0.1 L21.35 0.95 22.35 3.0 Q23.7 6.35 23.35 10.1 L19.2 5.2 17.2 2.7 15.65 0.45 15.2 -0.3 14.0 -2.4 14.6 -3.25 14.4 -4.45 14.65 -4.85 14.6 -5.8 14.3 -6.15 13.45 -6.1 12.25 -5.5 11.3 -7.2 9.85 -10.05 Q10.7 -9.9 11.15 -10.5 L11.3 -11.25 11.45 -12.45 8.7 -15.25 8.65 -15.3 8.7 -15.75 Q8.05 -16.55 7.1 -16.65 5.95 -19.3 3.95 -21.45 L3.95 -21.5 3.8 -22.15 3.3 -22.1 3.15 -22.25 3.1 -22.3 2.95 -22.45 2.35 -22.95 0.65 -24.15 0.5 -24.6 0.3 -25.0 Q-0.25 -26.15 -5.7 -27.2 -9.5 -27.9 -10.9 -26.85 L-12.2 -26.8 -12.05 -27.25 -11.35 -29.1 -11.25 -29.1 -10.2 -29.2 -8.0 -29.0 -5.45 -28.85 -5.15 -28.85 Q-3.45 -28.8 -1.95 -28.2 L-0.8 -27.7 -0.4 -27.45 3.0 -25.2 5.35 -23.15 5.45 -23.05 5.5 -23.0 6.0 -22.45 7.05 -20.9 7.1 -20.85 7.35 -20.45 7.95 -19.4 10.7 -14.85 14.1 -9.3 15.3 -7.35 16.2 -6.25 18.2 -3.9 18.3 -3.75 20.7 -0.1 M20.25 19.65 L19.55 20.05 Q19.2 20.25 18.6 20.75 L19.15 19.25 20.15 19.55 20.25 19.65" fill="#ecdecb" fill-rule="evenodd" stroke="none"/>
      <path d="M23.35 10.1 L23.05 13.1 22.75 15.35 Q22.6 16.85 21.35 17.65 L21.75 19.0 Q20.95 19.25 20.25 19.65 L20.15 19.55 19.15 19.25 18.6 20.75 17.3 21.8 Q16.3 22.65 15.8 22.65 L15.6 22.3 15.65 22.1 Q16.65 21.8 16.65 21.3 16.65 20.95 16.4 20.95 L16.05 21.05 16.1 20.7 16.1 20.35 16.1 20.05 Q16.1 18.95 14.9 18.95 13.65 19.0 13.65 19.8 L13.7 19.9 Q13.15 20.35 13.1 21.15 L12.6 21.0 11.25 20.9 16.35 16.05 Q16.25 13.85 15.1 11.9 L13.2 8.6 13.3 8.15 Q13.3 7.35 11.65 5.9 L11.2 5.15 11.15 5.05 8.9 0.75 8.5 -0.15 Q9.2 -1.9 9.35 -3.8 L8.65 -5.25 7.1 -9.55 7.15 -12.55 7.15 -13.45 7.15 -13.5 7.55 -13.2 Q8.2 -12.4 8.15 -11.4 8.15 -10.9 8.45 -10.5 L8.8 -10.35 Q9.25 -10.15 9.8 -10.05 L9.85 -10.05 11.3 -7.2 12.25 -5.5 11.5 -4.65 11.15 -2.5 11.65 -2.15 Q13.1 -1.65 14.0 -2.4 L15.2 -0.3 15.65 0.45 17.2 2.7 19.2 5.2 23.35 10.1 M-12.45 -25.7 L-12.2 -26.8 -10.9 -26.85 -11.5 -26.25 -11.8 -25.7 -12.1 -25.7 -12.45 -25.7 M0.65 -24.15 L2.35 -22.95 2.95 -22.45 3.1 -22.3 3.15 -22.25 3.3 -22.1 1.8 -22.05 1.25 -22.45 0.8 -22.75 0.8 -22.95 0.65 -24.15 M3.95 -21.45 Q5.95 -19.3 7.1 -16.65 L6.5 -16.65 5.6 -18.0 4.25 -19.7 4.1 -19.9 4.1 -20.25 3.95 -21.2 3.95 -21.45" fill="#d7c9b5" fill-rule="evenodd" stroke="none"/>
      <path d="M5.7 -25.75 L5.4 -25.35 5.5 -23.0 6.4 -22.3 Q7.55 -22.1 8.0 -24.1 L9.3 -23.1 10.95 -18.55 11.15 -18.4 12.35 -15.7 12.9 -14.45 Q14.3 -11.35 15.65 -9.55 L15.65 -9.4 16.8 -7.55 18.6 -4.4 19.3 -3.05 20.7 -0.1 18.3 -3.75 18.2 -3.9 16.2 -6.25 15.3 -7.35 14.1 -9.3 10.7 -14.85 7.95 -19.4 7.35 -20.45 7.1 -20.85 7.05 -20.9 6.0 -22.45 5.5 -23.0 5.45 -23.05 5.35 -23.15 3.0 -25.2 -0.4 -27.45 -0.8 -27.7 1.05 -27.35 5.7 -25.75 M-12.55 -24.6 L-12.55 -24.65 -12.45 -25.7 -12.1 -25.7 -11.8 -25.7 -12.55 -24.6 M0.8 -22.75 L1.25 -22.45 1.8 -22.05 1.3 -21.95 0.8 -21.5 Q0.3 -21.1 0.25 -20.2 -1.65 -21.0 -3.8 -21.05 L-4.5 -21.0 -5.25 -21.15 -9.8 -23.05 -10.35 -23.25 -9.9 -24.15 -9.1 -24.5 -6.45 -24.0 -5.4 -23.2 Q-4.5 -21.8 -2.75 -21.65 L0.3 -21.85 0.8 -22.75 M3.95 -15.75 Q2.95 -17.05 1.7 -16.5 L1.35 -18.0 1.8 -18.0 Q3.0 -18.0 3.65 -18.8 L4.1 -19.9 4.25 -19.7 5.6 -18.0 6.5 -16.65 Q5.25 -16.55 3.95 -15.75 M5.95 -9.45 L5.9 -9.5 5.2 -13.15 5.95 -13.65 7.15 -13.5 7.15 -13.45 7.15 -12.55 6.85 -11.65 6.0 -9.55 5.95 -9.45" fill="#583a30" fill-rule="evenodd" stroke="none"/>
      <path d="M5.7 -3.0 Q6.7 -3.95 6.55 -5.4 L6.35 -8.0 5.95 -9.45 6.0 -9.55 6.85 -11.65 7.15 -12.55 7.1 -9.55 6.95 -10.0 6.55 2.1 6.85 2.1 6.8 2.4 3.95 0.4 3.8 0.5 5.7 -3.0 M6.65 3.75 L6.25 5.9 Q5.9 6.4 5.7 7.7 L5.5 8.7 5.45 8.8 4.15 10.35 Q2.7 12.25 2.4 13.45 L1.9 13.7 1.15 14.1 Q-0.95 14.35 -2.0 14.95 L-3.45 15.75 -7.5 16.4 -7.5 16.15 Q-7.5 14.8 -9.55 14.8 L-9.85 10.0 -9.75 9.55 -8.85 9.05 -7.2 8.35 -6.0 8.15 Q-6.9 9.1 -7.05 10.4 L-7.05 11.4 Q-5.8 12.7 -4.05 12.15 -3.6 11.9 -3.05 11.8 L-2.9 11.75 -2.05 12.65 Q0.0 13.75 2.05 12.45 4.05 11.2 3.75 9.05 L3.8 9.0 Q3.8 6.8 1.6 7.8 L-2.15 10.2 -2.65 10.15 -2.5 9.0 -2.2 8.55 Q-2.2 8.05 -2.35 7.7 -1.05 7.4 -0.45 6.4 L0.85 4.3 2.6 2.05 3.35 2.15 5.2 3.0 6.55 3.65 6.65 3.75" fill="#462e26" fill-rule="evenodd" stroke="none"/>
      <path d="M-8.45 23.1 L-8.15 21.5 -7.25 21.25 Q-6.75 21.0 -6.75 20.3 L-7.75 19.25 -7.7 18.85 -7.7 18.8 -7.55 17.65 -7.6 16.85 -7.5 16.4 -3.45 15.75 -2.0 14.95 Q-0.95 14.35 1.15 14.1 L1.9 13.7 2.4 13.45 Q2.7 12.25 4.15 10.35 L5.45 8.8 5.5 8.75 5.5 8.7 5.7 7.7 Q5.9 6.4 6.25 5.9 L6.45 5.65 6.5 5.8 Q7.1 6.3 7.1 7.0 L6.85 8.45 6.85 8.65 6.6 9.2 6.6 10.5 Q6.6 11.55 7.35 13.2 8.1 14.85 8.1 15.75 L7.7 17.45 Q7.2 18.5 6.8 18.5 L6.05 18.3 5.45 17.65 5.15 18.2 Q4.85 18.6 4.05 18.6 L2.85 17.2 2.35 17.6 Q1.35 18.5 0.05 18.65 L-1.25 18.65 -2.3 18.65 -3.75 19.0 -4.0 19.1 -4.3 19.3 Q-4.4 19.9 -5.4 20.9 L-6.05 21.5 -7.2 22.45 Q-7.9 22.95 -8.45 23.1 M7.1 -9.55 L8.65 -5.25 9.35 -3.8 Q9.2 -1.9 8.5 -0.15 L7.8 1.3 7.3 2.0 6.85 2.1 6.55 2.1 6.95 -10.0 7.1 -9.55 M0.1 15.55 L-0.05 15.6 0.05 15.6 0.1 15.55" fill="#aa5649" fill-rule="evenodd" stroke="none"/>
      <path d="M-3.3 24.0 L-4.85 24.35 -5.4 20.9 Q-4.4 19.9 -4.3 19.3 L-4.0 19.1 -3.75 19.0 Q-2.15 20.85 -1.85 23.4 L-2.75 23.15 Q-3.45 23.15 -3.6 23.75 L-3.3 24.0 M-6.7 24.75 L-7.3 24.9 -8.75 24.85 -8.55 23.7 -8.45 23.1 Q-7.9 22.95 -7.2 22.45 L-6.7 24.75 M8.5 -0.15 L8.9 0.75 11.15 5.05 11.2 5.15 11.65 5.9 9.35 4.15 6.8 2.4 6.85 2.1 7.3 2.0 7.8 1.3 8.5 -0.15 M13.2 8.6 L15.1 11.9 Q16.25 13.85 16.35 16.05 L11.25 20.9 10.6 21.05 Q9.55 21.05 8.45 21.8 L8.35 21.9 -0.1 23.3 -0.1 20.8 Q-0.95 19.8 -1.25 18.65 L0.05 18.65 Q1.35 18.5 2.35 17.6 L2.85 17.2 4.05 18.6 Q4.85 18.6 5.15 18.2 L5.45 17.65 6.05 18.3 6.8 18.5 Q7.2 18.5 7.7 17.45 L8.1 15.75 Q8.1 14.85 7.35 13.2 6.6 11.55 6.6 10.5 L6.6 9.2 6.85 8.65 6.85 8.45 7.1 7.0 Q7.1 6.3 6.5 5.8 L6.45 5.65 6.25 5.9 6.65 3.75 8.35 5.55 8.35 5.6 7.7 6.45 9.05 8.5 Q10.55 10.5 11.2 10.5 13.1 10.5 13.1 9.4 L12.95 8.9 13.2 8.6 M-8.8 -1.45 L-8.65 -1.5 -8.7 -1.45 -8.8 -1.45 M-1.55 23.55 L-1.35 23.55 -1.5 23.6 -1.55 23.55" fill="#bbaa91" fill-rule="evenodd" stroke="none"/>
      <path d="M-4.85 24.35 L-6.7 24.75 -7.2 22.45 -6.05 21.5 -5.4 20.9 -4.85 24.35 M-1.25 18.65 Q-0.95 19.8 -0.1 20.8 L-0.1 23.3 -0.15 23.3 -1.35 23.55 -1.55 23.55 -1.85 23.4 Q-2.15 20.85 -3.75 19.0 L-2.3 18.65 -1.25 18.65" fill="#c0ac6d" fill-rule="evenodd" stroke="none"/>
    </g>
    <g id="sprite1" transform="matrix(1.0, 0.0, 0.0, 1.0, 23.45, 24.55)">
      <use ffdec:characterId="1897" height="49.1" transform="matrix(1.0, 0.0, 0.0, 1.0, -23.45, -24.55)" width="46.9" xlink:href="#shape1"/>
    </g>
    <g id="shape1" transform="matrix(1.0, 0.0, 0.0, 1.0, 23.45, 24.55)">
      <path d="M21.35 -0.45 L21.7 0.05 20.85 1.8 21.7 3.3 20.55 10.65 22.05 12.3 22.0 12.95 20.95 13.7 Q17.3 16.3 12.75 16.8 L10.7 15.3 Q14.9 14.6 18.5 12.75 L18.7 12.3 18.85 8.05 Q15.8 8.35 13.15 7.25 L11.85 6.8 Q18.15 8.4 20.1 1.2 20.35 0.25 21.35 -0.45 M-16.9 10.25 Q-16.65 9.5 -15.8 8.65 L-15.3 8.1 -14.55 7.85 Q-14.75 7.45 -14.6 7.05 L-14.6 7.0 -13.85 7.05 Q-12.8 7.2 -12.2 7.85 L-10.65 9.55 -10.1 9.8 -10.65 9.9 -11.4 9.85 -13.15 9.3 -13.45 9.2 -14.75 8.7 -16.45 9.9 -16.9 10.25 M-20.0 2.0 Q-20.7 1.95 -21.0 1.6 L-21.15 1.25 -19.85 -0.3 -19.65 -0.5 Q-18.0 -2.25 -17.05 -2.3 -16.8 -2.3 -15.9 -0.6 -15.05 1.1 -15.05 1.65 L-15.3 2.45 -16.05 2.95 Q-16.85 2.95 -16.85 2.5 -16.85 2.05 -19.8 2.0 L-20.0 2.0 M-21.35 -8.65 L-21.55 -8.9 -21.55 -9.65 Q-21.55 -10.95 -20.35 -11.4 -18.6 -11.85 -17.0 -11.4 -15.75 -11.1 -15.3 -10.05 L-15.55 -7.9 -17.8 -9.4 -17.85 -8.8 -18.2 -8.55 -21.35 -8.65 M-19.7 -14.2 L-17.05 -17.55 Q-13.75 -16.0 -10.2 -16.35 L-10.15 -16.5 -6.05 -16.4 -5.85 -16.65 -3.7 -17.75 -3.75 -17.3 -5.55 -15.75 -6.0 -16.1 Q-9.05 -14.8 -12.35 -15.3 L-16.75 -14.85 -18.7 -14.25 -19.55 -13.8 -19.7 -14.2 M-12.25 -20.3 L-10.95 -20.8 -7.55 -21.5 Q-5.9 -21.65 -4.4 -21.05 L-3.4 -20.15 -3.55 -19.3 -12.15 -19.8 -12.25 -20.3 M-0.75 -22.05 L2.25 -22.7 2.95 -22.65 Q4.05 -22.65 4.85 -22.25 5.6 -21.85 5.6 -21.3 L2.95 -19.9 3.85 -19.15 2.95 -18.45 6.9 -17.75 7.4 -17.55 7.7 -17.15 7.7 -17.1 7.65 -17.05 7.5 -16.75 7.4 -16.65 7.05 -16.65 5.5 -16.75 2.55 -16.95 0.95 -18.7 2.0 -18.55 0.85 -19.6 -0.75 -21.6 -0.75 -22.05 M13.3 -16.05 L13.6 -16.05 Q15.5 -16.05 15.85 -14.7 L15.85 -14.5 15.45 -13.4 15.1 -13.3 14.3 -13.5 Q13.15 -13.95 12.05 -14.8 11.55 -15.25 11.95 -15.8 L12.25 -15.95 13.3 -16.05 M4.9 -10.15 L4.1 -9.7 2.75 -10.25 0.9 -10.8 Q-1.25 -9.25 -3.15 -8.8 L-3.7 -8.65 -4.0 -8.4 -5.1 -8.3 -5.2 -9.3 Q-5.15 -9.9 -4.4 -10.35 L-5.2 -11.1 -6.15 -11.85 -6.55 -11.75 -8.9 -11.1 -9.5 -11.8 -9.85 -12.55 -9.55 -13.3 -9.35 -13.45 -7.95 -13.65 Q-6.3 -13.5 -5.4 -12.85 L-3.55 -11.0 -2.7 -10.0 -2.55 -10.05 Q-1.05 -11.1 0.5 -11.8 5.1 -13.85 5.1 -10.7 L4.9 -10.15 M-8.8 11.7 L-8.15 11.8 Q-7.65 11.8 -6.65 11.05 -5.65 10.3 -5.15 10.3 L-2.5 10.45 -1.65 10.5 -0.65 11.85 Q1.35 14.5 2.6 15.3 L2.75 15.35 2.85 15.55 Q-2.1 14.6 -4.05 13.9 -6.05 13.2 -7.95 12.3 L-8.8 11.7 M-9.25 4.95 L-10.15 4.7 -11.55 4.0 -11.9 3.65 -9.5 3.4 -9.35 2.4 -8.55 2.0 -7.7 2.3 Q-4.0 3.85 -0.5 5.7 2.25 7.1 3.85 9.55 L-3.45 5.95 -9.25 4.95" fill="#ff0000" fill-rule="evenodd" stroke="none"/>
      <path d="M12.75 16.8 L14.0 17.95 13.6 18.45 7.35 15.3 0.75 11.75 -1.5 10.5 -1.8 10.35 Q-9.15 6.15 -9.25 4.95 L-3.45 5.95 -1.05 7.35 Q0.95 8.4 2.0 9.3 3.3 10.4 8.45 13.75 L10.7 15.3 12.75 16.8 M0.85 18.35 L3.95 20.0 11.1 24.05 Q10.7 24.55 9.95 24.55 7.95 24.55 1.7 21.8 L-0.2 20.95 Q-4.05 19.2 -5.85 18.05 L-12.1 14.05 -14.6 12.25 -16.45 9.9 -14.75 8.7 -13.45 9.2 -13.15 9.3 -11.4 9.85 -11.35 9.9 -8.8 11.7 -7.95 12.3 Q-5.25 14.1 -4.0 15.15 L0.85 18.35 M-17.05 -17.55 L-18.25 -18.25 Q-21.1 -20.85 -23.45 -22.3 L-23.3 -22.45 -15.8 -20.25 -13.9 -19.6 Q-11.6 -18.95 -10.05 -17.15 L-10.15 -16.5 -10.2 -16.35 Q-13.75 -16.0 -17.05 -17.55 M16.85 11.55 L7.8 8.85 Q2.9 7.4 2.4 4.45 L2.6 4.45 Q2.8 4.9 5.2 5.7 8.1 6.7 8.85 7.15 L12.9 9.3 16.85 11.4 16.85 11.55" fill="#ffffff" fill-rule="evenodd" stroke="none"/>
      <path d="M21.2 -2.15 Q20.9 -1.95 20.9 -1.3 L21.35 -0.45 Q20.35 0.25 20.1 1.2 18.15 8.4 11.85 6.8 L13.15 7.25 Q15.8 8.35 18.85 8.05 L18.7 12.3 18.5 12.75 Q14.9 14.6 10.7 15.3 L8.45 13.75 Q3.3 10.4 2.0 9.3 0.95 8.4 -1.05 7.35 L-3.45 5.95 3.85 9.55 Q2.25 7.1 -0.5 5.7 -4.0 3.85 -7.7 2.3 L-8.55 2.0 -9.35 2.4 -9.5 3.4 -11.9 3.65 -11.55 4.0 -10.15 4.7 -9.25 4.95 Q-9.15 6.15 -1.8 10.35 L-1.5 10.5 0.75 11.75 7.35 15.3 Q6.35 15.65 5.45 16.65 L4.3 17.5 Q2.9 18.15 0.75 18.05 L0.85 18.35 -4.0 15.15 Q-5.25 14.1 -7.95 12.3 -6.05 13.2 -4.05 13.9 -2.1 14.6 2.85 15.55 L2.75 15.35 2.6 15.3 Q1.35 14.5 -0.65 11.85 L-1.65 10.5 -2.5 10.45 -5.15 10.3 Q-5.65 10.3 -6.65 11.05 -7.65 11.8 -8.15 11.8 L-8.8 11.7 -11.35 9.9 -11.4 9.85 -10.65 9.9 -10.1 9.8 -10.65 9.55 -12.2 7.85 Q-12.8 7.2 -13.85 7.05 L-14.6 7.0 -14.6 7.05 Q-14.75 7.45 -14.55 7.85 L-15.3 8.1 -15.95 8.0 Q-15.9 6.55 -16.55 5.6 -17.2 4.65 -19.15 3.35 -19.85 2.85 -20.0 2.0 L-19.8 2.0 Q-16.85 2.05 -16.85 2.5 -16.85 2.95 -16.05 2.95 L-15.3 2.45 -15.05 1.65 Q-15.05 1.1 -15.9 -0.6 -16.8 -2.3 -17.05 -2.3 -18.0 -2.25 -19.65 -0.5 L-19.85 -0.3 -19.65 -1.4 -20.35 -4.4 Q-18.6 -4.25 -16.55 -3.1 -15.05 -2.2 -13.8 -1.85 L-14.3 0.0 -14.95 2.65 -14.85 2.8 -14.4 2.0 -10.65 1.8 Q-9.7 1.85 -8.3 0.8 -6.9 -0.2 -6.05 -0.2 L-3.1 0.2 -0.4 1.55 Q2.65 3.05 4.7 3.05 6.0 3.05 7.1 -0.15 L8.1 1.3 8.1 1.35 8.2 1.5 8.6 2.25 Q9.9 4.45 11.1 4.45 L11.9 4.2 Q12.25 4.0 12.55 3.95 L12.7 3.9 13.7 4.6 14.4 5.15 15.55 3.3 15.85 2.7 16.3 0.25 16.6 -2.35 Q16.9 -4.2 18.45 -5.55 L19.25 -6.1 Q19.95 -6.35 19.95 -5.05 L20.85 -3.05 21.2 -2.15 M-0.2 20.95 Q-1.7 22.3 -4.4 22.3 -6.5 22.3 -6.95 21.55 L-7.15 20.4 -8.3 20.7 -9.3 20.4 Q-9.85 20.05 -10.15 20.05 L-11.1 20.1 Q-12.1 17.55 -13.8 15.0 -15.5 12.5 -17.05 10.9 L-16.9 10.25 -16.45 9.9 -14.6 12.25 -12.1 14.05 -5.85 18.05 Q-4.05 19.2 -0.2 20.95 M-20.55 -5.1 L-21.35 -8.65 -18.2 -8.55 -17.85 -8.8 -17.8 -9.4 -15.55 -7.9 -15.3 -10.05 Q-15.75 -11.1 -17.0 -11.4 -18.6 -11.85 -20.35 -11.4 L-20.2 -13.2 -19.7 -14.2 -19.55 -13.8 -18.7 -14.25 -16.75 -14.85 -12.35 -15.3 Q-9.05 -14.8 -6.0 -16.1 L-5.55 -15.75 -6.05 -15.25 -9.35 -14.5 -11.2 -14.1 -13.25 -14.0 -14.05 -7.95 Q-14.65 -7.1 -16.0 -6.7 -18.3 -5.8 -20.55 -5.1 M-13.9 -19.6 L-12.25 -20.3 -12.15 -19.8 -3.55 -19.3 -3.7 -17.75 -5.85 -16.65 -6.05 -16.4 -10.15 -16.5 -10.05 -17.15 Q-11.6 -18.95 -13.9 -19.6 M-4.4 -21.05 L-3.2 -21.4 -3.2 -21.3 -3.4 -20.15 -4.4 -21.05 M-1.7 -21.8 L-0.75 -22.05 -0.75 -21.6 0.85 -19.6 2.0 -18.55 0.95 -18.7 -1.7 -21.8 M2.25 -22.7 L2.7 -22.8 2.95 -22.65 2.25 -22.7 M5.6 -21.3 L10.1 -18.6 Q11.45 -17.7 11.8 -16.35 L11.8 -15.95 11.95 -15.8 Q11.55 -15.25 12.05 -14.8 13.15 -13.95 14.3 -13.5 L15.1 -13.3 15.45 -13.4 15.85 -14.5 15.95 -14.2 Q16.1 -13.1 15.5 -12.25 L14.1 -10.9 Q13.15 -11.5 12.55 -12.35 L9.2 -16.7 7.7 -17.15 7.4 -17.55 6.9 -17.75 2.95 -18.45 3.85 -19.15 2.95 -19.9 5.6 -21.3 M-9.55 -13.3 L-9.85 -12.55 -9.5 -11.8 -8.9 -11.1 -6.55 -11.75 -6.15 -11.85 -5.2 -11.1 -4.4 -10.35 Q-5.15 -9.9 -5.2 -9.3 L-5.1 -8.3 -4.0 -8.4 -3.7 -8.65 -3.15 -8.8 Q-1.25 -9.25 0.9 -10.8 L2.75 -10.25 4.1 -9.7 4.9 -10.15 Q4.85 -9.25 4.6 -8.95 4.15 -8.35 2.6 -8.35 0.5 -8.35 -0.05 -7.35 -0.65 -6.3 -3.0 -6.2 L-3.6 -6.15 Q-4.85 -6.0 -5.3 -5.45 -5.9 -4.85 -7.6 -4.85 L-9.0 -4.95 -9.1 -5.55 -8.1 -6.7 -6.6 -7.85 Q-7.1 -8.3 -7.15 -8.95 L-7.15 -10.1 Q-8.9 -10.15 -9.55 -10.65 L-9.7 -10.8 Q-10.0 -11.1 -10.0 -12.05 L-9.75 -13.2 -9.55 -13.3 M-2.55 -10.05 L-2.7 -10.0 -3.55 -11.0 -2.55 -10.05 M16.85 11.55 L16.85 11.4 12.9 9.3 8.85 7.15 Q8.1 6.7 5.2 5.7 2.8 4.9 2.6 4.45 L2.4 4.45 Q2.9 7.4 7.8 8.85 L16.85 11.55" fill="#990000" fill-rule="evenodd" stroke="none"/>
      <path d="M-9.55 -13.3 L-9.75 -13.2 -10.0 -12.05 Q-10.0 -11.1 -9.7 -10.8 L-9.55 -10.65 -9.6 -10.55 -10.2 -10.75 -10.85 -9.9 -12.0 -9.8 -13.35 -11.4 -12.4 -12.35 -11.1 -13.1 -11.2 -14.1 -9.35 -14.5 -9.35 -13.45 -9.55 -13.3" fill="#c0ac6d" fill-rule="evenodd" stroke="none"/>
      <path d="M-20.35 -4.4 L-21.05 -4.4 -21.4 -4.7 -20.55 -5.1 Q-18.3 -5.8 -16.0 -6.7 -14.65 -7.1 -14.05 -7.95 L-13.25 -14.0 -11.2 -14.1 -11.1 -13.1 -12.4 -12.35 -13.35 -11.4 -12.0 -9.8 -10.85 -9.9 -10.2 -10.75 -9.6 -10.55 -9.55 -10.65 Q-8.9 -10.15 -7.15 -10.1 L-7.15 -8.95 Q-7.1 -8.3 -6.6 -7.85 L-8.1 -6.7 -9.1 -5.55 -9.0 -4.95 -7.6 -4.85 -8.1 -4.45 -9.1 -3.3 -10.0 -1.85 Q-10.3 -0.95 -11.8 -0.35 -13.4 0.3 -13.75 0.85 L-14.4 2.0 -14.85 2.8 -14.95 2.65 -14.3 0.0 -13.8 -1.85 Q-15.05 -2.2 -16.55 -3.1 -18.6 -4.25 -20.35 -4.4 M-3.2 -21.4 L-3.25 -21.7 -4.05 -23.8 Q-4.05 -24.35 -3.55 -24.55 L-1.7 -21.8 0.95 -18.7 2.55 -16.95 5.5 -16.75 3.9 -15.3 5.15 -15.3 7.05 -16.65 7.4 -16.65 5.0 -12.8 9.4 -8.9 Q10.0 -7.65 9.85 -6.3 L9.3 -3.0 8.8 -0.8 8.75 -0.65 8.75 -0.6 8.2 1.5 8.1 1.35 8.1 1.3 7.1 -0.15 Q5.6 -1.8 2.95 -1.8 1.75 -1.8 1.1 -1.4 0.5 -1.0 0.5 -0.45 L0.75 0.8 0.6 0.8 -2.9 -4.9 -3.6 -6.15 -3.0 -6.2 Q-0.65 -6.3 -0.05 -7.35 0.5 -8.35 2.6 -8.35 4.15 -8.35 4.6 -8.95 4.85 -9.25 4.9 -10.15 L5.1 -10.7 Q5.1 -13.85 0.5 -11.8 -1.05 -11.1 -2.55 -10.05 L-3.55 -11.0 -5.4 -12.85 Q-6.3 -13.5 -7.95 -13.65 L-9.35 -13.45 -9.35 -14.5 -6.05 -15.25 -5.55 -15.75 -3.75 -17.3 -3.7 -17.75 -3.55 -19.3 -3.4 -20.15 -3.2 -21.3 -3.2 -21.4 M9.8 0.05 L9.95 -0.2 Q11.45 -2.7 11.85 -5.45 L13.9 -1.95 13.15 0.6 11.35 0.8 Q10.9 0.8 9.8 0.05" fill="#bbaa91" fill-rule="evenodd" stroke="none"/>
      <path d="M-7.6 -4.85 Q-5.9 -4.85 -5.3 -5.45 -4.85 -6.0 -3.6 -6.15 L-2.9 -4.9 0.6 0.8 0.75 0.8 0.5 -0.45 Q0.5 -1.0 1.1 -1.4 1.75 -1.8 2.95 -1.8 5.6 -1.8 7.1 -0.15 6.0 3.05 4.7 3.05 2.65 3.05 -0.4 1.55 L-3.1 0.2 -6.05 -0.2 Q-6.9 -0.2 -8.3 0.8 -9.7 1.85 -10.65 1.8 L-14.4 2.0 -13.75 0.85 Q-13.4 0.3 -11.8 -0.35 -10.3 -0.95 -10.0 -1.85 L-9.1 -3.3 -8.1 -4.45 -7.6 -4.85" fill="#462e26" fill-rule="evenodd" stroke="none"/>
      <path d="M15.75 -19.2 L17.25 -19.85 18.5 -15.6 15.75 -19.2 M21.85 -2.2 L21.2 -2.15 20.85 -3.05 19.95 -5.05 Q19.95 -6.35 19.25 -6.1 L19.15 -7.25 19.75 -6.45 Q21.1 -4.55 21.85 -2.25 L21.85 -2.2 M11.8 -16.35 L12.8 -17.05 14.1 -18.1 13.3 -16.05 12.25 -15.95 11.95 -15.8 11.8 -15.95 11.8 -16.35 M15.5 -12.25 L15.95 -11.7 17.95 -9.0 17.75 -8.15 Q17.45 -6.95 16.2 -6.95 14.4 -6.95 13.9 -7.55 L12.35 -9.95 12.35 -7.95 Q12.85 -7.1 14.3 -5.45 14.85 -4.85 14.85 -2.85 14.85 -0.75 14.1 0.05 L13.15 0.6 13.9 -1.95 11.85 -5.45 Q11.45 -2.7 9.95 -0.2 L9.8 0.05 9.45 -0.25 8.8 -0.75 8.75 -0.65 8.8 -0.8 9.3 -3.0 9.85 -6.3 Q10.0 -7.65 9.4 -8.9 L5.0 -12.8 7.4 -16.65 7.5 -16.75 7.65 -17.05 7.7 -17.1 7.7 -17.15 9.2 -16.7 12.55 -12.35 Q13.15 -11.5 14.1 -10.9 L15.5 -12.25 M7.05 -16.65 L5.15 -15.3 3.9 -15.3 5.5 -16.75 7.05 -16.65" fill="#d7c9b5" fill-rule="evenodd" stroke="none"/>
      <path d="M18.5 -15.6 L19.05 -14.1 19.3 -13.25 19.8 -11.9 22.0 -6.25 23.45 -1.3 23.05 -1.6 21.85 -2.2 21.85 -2.25 Q21.1 -4.55 19.75 -6.45 L19.15 -7.25 18.85 -10.45 18.35 -10.45 17.95 -9.0 15.95 -11.7 15.5 -12.25 Q16.1 -13.1 15.95 -14.2 L15.85 -14.5 15.85 -14.7 Q15.5 -16.05 13.6 -16.05 L13.3 -16.05 14.1 -18.1 15.05 -18.8 15.75 -19.2 18.5 -15.6" fill="#ecdecb" fill-rule="evenodd" stroke="none"/>
      <path d="M17.95 -9.0 L18.35 -10.45 18.85 -10.45 19.15 -7.25 19.25 -6.1 18.45 -5.55 Q16.9 -4.2 16.6 -2.35 L16.3 0.25 15.85 2.7 15.55 3.3 14.4 5.15 13.7 4.6 12.7 3.9 12.55 3.95 Q12.25 4.0 11.9 4.2 L11.1 4.45 Q9.9 4.45 8.6 2.25 L8.2 1.5 8.75 -0.6 8.75 -0.65 8.8 -0.75 9.45 -0.25 9.8 0.05 Q10.9 0.8 11.35 0.8 L13.15 0.6 14.1 0.05 Q14.85 -0.75 14.85 -2.85 14.85 -4.85 14.3 -5.45 12.85 -7.1 12.35 -7.95 L12.35 -9.95 13.9 -7.55 Q14.4 -6.95 16.2 -6.95 17.45 -6.95 17.75 -8.15 L17.95 -9.0" fill="#aa5649" fill-rule="evenodd" stroke="none"/>
    </g>
    <g id="sprite2" transform="matrix(1.0, 0.0, 0.0, 1.0, 25.5, 22.55)">
      <use ffdec:characterId="1899" height="53.65" transform="matrix(1.0, 0.0, 0.0, 1.0, -25.5, -22.55)" width="46.95" xlink:href="#shape2"/>
    </g>
    <g id="shape2" transform="matrix(1.0, 0.0, 0.0, 1.0, 25.5, 22.55)">
      <path d="M9.55 -19.0 L8.85 -17.45 7.7 -17.3 Q5.95 -16.95 4.75 -15.85 L3.8 -15.1 3.0 -14.55 2.95 -14.5 2.25 -12.35 2.1 -12.55 0.95 -9.5 0.75 -9.0 0.5 -8.7 Q-1.6 -6.05 -2.05 -2.75 L1.1 -6.1 Q2.7 -7.85 3.0 -10.35 L3.6 -8.25 3.15 -6.4 Q2.75 -4.95 2.7 -3.6 2.05 -1.25 0.1 0.65 L3.85 -1.9 4.55 -2.5 6.25 -1.5 Q8.25 -0.9 9.05 0.45 L9.45 1.55 9.05 2.6 Q9.05 1.95 8.55 1.5 8.05 1.0 7.35 1.0 6.1 0.35 4.45 0.3 L1.2 0.6 5.0 3.35 Q6.2 4.35 7.7 4.55 L8.4 4.45 6.2 9.25 10.3 6.95 11.1 8.75 11.75 8.0 12.05 8.15 12.4 7.2 12.25 7.0 12.55 6.85 13.5 4.5 13.9 3.6 12.6 4.05 14.2 0.3 14.65 -0.5 14.7 -0.9 15.75 -4.7 Q16.4 -6.7 15.95 -8.8 15.45 -11.15 15.8 -13.6 L15.4 -15.85 16.05 -15.3 Q17.1 -14.15 18.1 -11.45 19.15 -8.6 19.3 -6.55 L19.9 -5.95 20.35 -5.45 19.95 -5.75 Q18.4 -6.85 17.65 -5.15 17.4 -4.6 17.25 -3.1 L17.2 -2.4 15.65 -0.8 17.0 -1.4 16.9 -1.05 Q18.2 -1.7 20.55 -2.1 L21.1 -2.35 20.7 -1.55 Q20.2 -0.65 20.15 0.25 18.75 -1.2 17.8 0.25 L15.9 3.95 18.1 3.3 17.4 4.15 17.45 4.9 Q17.45 5.55 15.35 7.8 L14.15 9.1 15.85 11.45 Q17.55 14.0 18.55 16.55 L16.65 16.65 14.25 23.5 13.85 24.25 Q13.65 21.7 11.15 21.1 L10.15 20.75 Q12.55 20.35 14.05 18.3 L14.5 19.5 15.9 16.5 14.35 14.75 14.85 13.4 Q13.5 10.95 10.15 12.0 L11.15 12.6 Q11.15 15.85 13.95 18.0 L8.8 20.85 4.35 19.15 2.6 20.35 -3.0 23.6 -5.15 19.95 -7.2 18.85 -6.5 18.95 Q-5.3 18.95 -4.35 18.35 L-0.75 18.95 0.55 17.15 0.4 15.95 Q4.15 16.6 7.25 18.25 L8.15 16.7 7.25 15.75 6.25 16.5 2.1 14.1 4.25 11.05 3.25 9.9 5.0 8.75 3.2 9.1 2.8 8.65 0.95 8.5 1.75 7.55 1.5 6.95 Q0.45 5.0 -1.75 4.25 L-6.0 5.25 Q-4.2 6.6 -2.0 6.25 L-1.45 7.1 -0.25 7.65 -1.4 8.6 -1.7 8.5 Q-5.9 6.45 -9.05 9.0 L-7.6 8.2 -9.75 11.6 -9.05 13.15 -4.15 10.9 Q-3.5 10.65 -3.75 10.0 L-2.05 10.6 -1.0 9.5 -1.0 10.15 0.35 10.25 0.1 11.6 1.25 13.5 -1.35 13.6 Q-2.6 13.9 -3.8 14.5 L-1.1 15.45 -8.7 17.55 Q-9.45 16.75 -9.5 16.0 -9.65 14.55 -11.1 13.9 L-11.2 13.85 -11.9 13.55 -13.8 12.4 -15.2 10.75 -14.4 10.65 -13.15 8.6 Q-11.5 8.1 -11.1 6.5 L-6.55 5.2 -8.8 4.8 -10.8 6.05 -10.6 5.55 -11.7 6.0 Q-13.85 6.6 -15.65 7.95 -15.7 7.25 -17.55 4.75 L-19.5 2.6 -19.35 2.35 Q-17.35 1.1 -16.0 1.1 -15.25 1.1 -14.9 2.05 L-14.85 2.25 Q-14.45 3.35 -14.0 3.35 L-11.9 3.0 Q-9.4 2.05 -6.8 -0.9 L-6.65 -1.15 -5.35 -2.65 -3.1 -5.05 -4.0 -5.0 -4.45 -5.05 Q-5.15 -5.25 -5.25 -6.25 L-5.25 -6.75 -5.3 -7.0 Q-6.1 -6.6 -7.0 -6.6 -8.2 -6.6 -8.15 -7.95 L-7.95 -9.0 -5.5 -8.85 -5.0 -8.2 Q-3.75 -6.4 -1.6 -7.05 -0.75 -7.95 -1.1 -9.4 L-1.4 -10.3 -1.65 -10.7 Q-1.1 -10.3 -0.75 -9.45 L-0.3 -7.85 0.15 -8.55 0.75 -9.45 Q1.6 -10.8 1.6 -11.5 L1.2 -13.35 0.95 -14.35 -0.15 -14.55 -0.2 -14.55 -1.85 -15.85 Q-5.85 -15.05 -8.9 -17.55 L-7.95 -17.9 -6.8 -19.8 -0.5 -21.15 2.5 -20.55 Q0.15 -19.7 -1.7 -17.95 L-2.55 -17.2 3.8 -19.05 6.05 -18.7 6.7 -18.35 8.25 -18.7 9.55 -19.0 M13.25 -17.7 L13.2 -17.6 12.75 -17.55 11.45 -19.1 Q12.1 -19.15 12.15 -19.3 L12.05 -19.45 12.7 -19.15 Q12.95 -18.35 13.4 -18.05 L13.35 -17.9 13.25 -17.7 M20.15 0.9 L20.15 0.95 Q20.2 1.4 19.5 1.95 L19.4 2.05 20.15 0.9 M10.9 27.95 L9.0 29.15 9.45 27.6 10.9 27.95 M3.0 28.0 L2.8 27.55 2.15 27.6 Q0.15 27.6 -2.05 24.85 L3.15 25.15 3.9 24.65 Q5.65 24.2 6.95 22.85 L7.55 22.15 11.6 23.8 10.2 26.1 Q7.9 26.05 6.4 27.25 L3.0 28.0 M-17.4 -18.25 Q-16.55 -19.45 -13.3 -20.8 L-9.7 -22.1 -1.9 -21.8 -5.1 -21.65 -9.7 -20.9 Q-11.8 -20.3 -11.8 -19.35 L-10.85 -18.1 -11.15 -17.85 -11.85 -17.0 Q-12.5 -16.05 -14.55 -16.05 -16.0 -16.05 -16.25 -16.55 -16.55 -17.05 -17.55 -17.05 L-17.6 -17.1 -17.7 -17.45 -17.4 -18.25 M13.75 -12.0 Q14.35 -10.4 13.45 -8.85 L12.5 -8.1 10.9 -7.9 Q8.75 -8.25 8.4 -10.2 8.25 -10.95 8.5 -11.7 L8.9 -12.65 8.85 -12.3 Q8.85 -10.65 10.5 -10.4 L12.5 -10.4 13.5 -11.25 13.75 -12.0 M-4.4 -10.75 Q-3.85 -11.15 -3.0 -11.15 L-2.15 -11.0 -4.4 -10.75 M5.3 20.95 L4.55 21.1 4.35 20.65 5.3 20.95 M-15.7 -1.2 L-15.9 -2.25 Q-16.25 -3.75 -17.8 -4.3 -19.3 -4.75 -19.75 -6.05 -20.3 -7.5 -19.45 -9.05 L-19.0 -6.75 -16.55 -6.6 -14.8 -4.25 -15.4 -3.35 -13.0 -1.4 -12.55 -1.5 -12.05 -2.75 -11.9 -0.85 -11.75 0.95 -14.4 1.05 -15.5 0.15 -15.6 -0.35 -15.7 -1.2 M-12.25 -10.5 Q-12.85 -10.9 -13.05 -11.65 L-13.15 -13.05 -13.1 -13.4 -8.0 -10.7 -8.05 -10.6 -8.05 -10.5 -7.75 -10.6 -8.1 -10.15 Q-8.45 -10.65 -9.3 -10.6 L-11.0 -10.25 -12.25 -10.5" fill="#990000" fill-rule="evenodd" stroke="none"/>
      <path d="M10.0 -20.0 L9.55 -19.0 8.25 -18.7 6.7 -18.35 6.05 -18.7 3.8 -19.05 -2.55 -17.2 -1.7 -17.95 Q0.15 -19.7 2.5 -20.55 L3.8 -20.8 6.2 -21.05 Q7.45 -20.65 7.7 -20.25 L8.45 -20.05 10.0 -20.0 M11.45 -19.1 L11.3 -19.95 11.8 -19.95 12.05 -19.45 12.15 -19.3 Q12.1 -19.15 11.45 -19.1 M20.35 -5.45 Q21.45 -4.55 21.45 -3.65 21.45 -2.75 21.1 -2.35 L20.55 -2.1 Q18.2 -1.7 16.9 -1.05 L17.0 -1.4 15.65 -0.8 17.2 -2.4 17.25 -3.1 Q17.4 -4.6 17.65 -5.15 18.4 -6.85 19.95 -5.75 L20.35 -5.45 M20.15 0.25 L20.4 0.55 20.15 0.9 19.4 2.05 19.4 2.1 19.35 2.1 19.1 2.55 18.1 3.3 15.9 3.95 17.8 0.25 Q18.75 -1.2 20.15 0.25 M13.85 24.25 L13.45 25.05 Q12.55 26.75 10.9 27.95 L9.45 27.6 6.4 27.25 Q7.9 26.05 10.2 26.1 L11.6 23.8 7.55 22.15 6.95 22.85 Q5.65 24.2 3.9 24.65 L2.45 24.65 3.45 23.55 3.5 22.9 5.8 21.1 5.3 20.95 4.35 20.65 2.6 20.35 4.35 19.15 8.8 20.85 13.95 18.0 Q11.15 15.85 11.15 12.6 L10.15 12.0 Q13.5 10.95 14.85 13.4 L14.35 14.75 15.9 16.5 14.5 19.5 14.05 18.3 Q12.55 20.35 10.15 20.75 L11.15 21.1 Q13.65 21.7 13.85 24.25 M-15.2 10.75 L-15.6 10.5 -15.75 9.85 -15.65 7.95 Q-13.85 6.6 -11.7 6.0 L-10.6 5.55 -10.8 6.05 -8.8 4.8 -6.55 5.2 -11.1 6.5 Q-11.5 8.1 -13.15 8.6 L-14.4 10.65 -15.2 10.75 M-1.9 -21.8 L0.15 -21.3 -0.5 -21.15 -6.8 -19.8 -7.95 -17.9 -8.9 -17.55 -9.7 -17.45 -10.15 -17.45 -10.2 -17.45 -10.65 -17.9 -10.85 -18.1 -11.8 -19.35 Q-11.8 -20.3 -9.7 -20.9 L-5.1 -21.65 -1.9 -21.8 M8.9 -12.65 L9.0 -12.85 9.35 -13.2 12.75 -13.5 13.7 -12.5 13.75 -12.0 13.5 -11.25 12.5 -10.4 10.5 -10.4 Q8.85 -10.65 8.85 -12.3 L8.9 -12.65 M-1.65 -10.7 L-1.4 -10.3 -1.1 -9.4 Q-0.75 -7.95 -1.6 -7.05 -3.75 -6.4 -5.0 -8.2 L-5.5 -8.85 -7.95 -9.0 -8.1 -10.15 -7.75 -10.6 -8.0 -10.7 -13.1 -13.4 -13.35 -13.7 Q-13.65 -15.0 -12.8 -15.85 L-12.35 -15.9 -10.7 -15.5 -9.7 -14.9 -9.2 -14.55 Q-7.35 -13.1 -6.55 -10.7 L-5.0 -10.35 -4.4 -10.75 -2.15 -11.0 -1.65 -10.7 M2.25 -12.35 L3.0 -10.35 Q2.7 -7.85 1.1 -6.1 L-2.05 -2.75 Q-1.6 -6.05 0.5 -8.7 L0.75 -9.0 0.95 -9.5 2.1 -12.55 2.25 -12.35 M9.05 2.6 L8.4 4.45 7.7 4.55 Q6.2 4.35 5.0 3.35 L1.2 0.6 4.45 0.3 Q6.1 0.35 7.35 1.0 8.05 1.0 8.55 1.5 9.05 1.95 9.05 2.6 M11.75 8.0 L12.6 4.05 13.9 3.6 13.5 4.5 12.55 6.85 12.25 7.0 12.4 7.2 12.05 8.15 11.75 8.0 M8.1 4.15 L8.05 4.25 8.05 4.35 8.35 4.25 8.1 4.15 M-1.1 15.45 L-3.8 14.5 Q-2.6 13.9 -1.35 13.6 L1.25 13.5 0.1 11.6 0.35 10.25 -1.0 10.15 -1.0 9.5 -2.05 10.6 -3.75 10.0 -7.05 8.15 -7.6 8.2 -9.05 9.0 Q-5.9 6.45 -1.7 8.5 L-1.4 8.6 -0.25 7.65 -1.45 7.1 -2.0 6.25 Q-4.2 6.6 -6.0 5.25 L-1.75 4.25 Q0.45 5.0 1.5 6.95 L1.75 7.55 0.95 8.5 2.8 8.65 3.2 9.1 5.0 8.75 3.25 9.9 4.25 11.05 2.1 14.1 6.25 16.5 7.25 15.75 8.15 16.7 7.25 18.25 Q4.15 16.6 0.4 15.95 L-1.1 15.45 M-19.45 -9.05 L-18.95 -10.35 -18.2 -10.45 -17.15 -10.0 Q-15.25 -9.15 -14.85 -7.0 -14.7 -6.05 -13.9 -5.5 L-12.8 -5.0 Q-12.45 -5.0 -12.2 -4.4 -11.95 -3.85 -11.95 -3.05 L-12.05 -2.75 -12.55 -1.5 -13.0 -1.4 -15.4 -3.35 -14.8 -4.25 -16.55 -6.6 -19.0 -6.75 -19.45 -9.05" fill="#ff0000" fill-rule="evenodd" stroke="none"/>
      <path d="M9.0 29.15 L8.2 31.0 6.65 31.1 Q4.85 29.95 2.6 30.6 L0.25 30.65 1.15 29.55 Q1.95 28.55 3.0 28.0 L6.4 27.25 9.45 27.6 9.0 29.15 M-2.05 24.85 L-4.45 25.05 -3.0 23.6 2.6 20.35 4.35 20.65 4.55 21.1 5.3 20.95 5.8 21.1 3.5 22.9 3.45 23.55 2.45 24.65 3.9 24.65 3.15 25.15 -2.05 24.85 M-7.2 18.85 L-8.25 18.5 Q-8.7 18.1 -8.7 17.55 L-1.1 15.45 0.4 15.95 0.55 17.15 -0.75 18.95 -4.35 18.35 Q-5.3 18.95 -6.5 18.95 L-7.2 18.85 M-3.75 10.0 Q-3.5 10.65 -4.15 10.9 L-9.05 13.15 -9.75 11.6 -7.6 8.2 -7.05 8.15 -3.75 10.0" fill="#ffffff" fill-rule="evenodd" stroke="none"/>
      <path d="M-23.45 -0.55 L-23.15 -8.0 -22.55 -18.25 -21.25 -18.25 -20.7 -16.6 -19.85 -18.25 -18.1 -18.25 -18.6 -16.8 Q-19.85 -12.8 -20.5 -8.65 L-21.3 -5.25 -23.45 -0.55" fill="#ecdecb" fill-rule="evenodd" stroke="none"/>
      <path d="M-20.85 4.25 L-20.95 4.35 -21.3 4.75 -25.0 9.35 -24.25 6.15 -25.5 5.2 -23.45 -0.55 -21.3 -5.25 -20.5 -8.65 Q-19.85 -12.8 -18.6 -16.8 L-18.1 -18.25 -17.4 -18.25 -17.7 -17.45 -17.6 -17.1 -17.55 -17.05 Q-16.55 -17.05 -16.25 -16.55 -16.0 -16.05 -14.55 -16.05 -12.5 -16.05 -11.85 -17.0 L-11.15 -17.85 -10.65 -17.9 -10.2 -17.45 -10.25 -17.25 -10.7 -15.5 -12.35 -15.9 -12.8 -15.85 Q-13.65 -15.0 -13.35 -13.7 L-13.1 -13.4 -13.15 -13.05 -13.05 -11.65 Q-12.85 -10.9 -12.25 -10.5 L-13.9 -5.5 Q-14.7 -6.05 -14.85 -7.0 -15.25 -9.15 -17.15 -10.0 L-18.2 -10.45 -18.95 -10.35 -19.45 -9.05 Q-20.3 -7.5 -19.75 -6.05 -19.3 -4.75 -17.8 -4.3 -16.25 -3.75 -15.9 -2.25 L-15.7 -1.2 -18.5 -1.0 Q-19.3 -3.1 -20.75 -3.75 -20.75 -3.5 -21.0 -3.5 -20.5 -2.0 -20.5 -1.4 -20.5 -0.6 -21.0 -0.4 -21.5 -0.2 -21.5 0.75 L-21.0 3.65 -20.85 4.25 M-21.25 -18.25 L-19.85 -18.25 -20.7 -16.6 -21.25 -18.25 M-5.25 -6.25 Q-5.15 -5.25 -4.45 -5.05 L-5.25 -3.35 -5.55 -2.8 -6.2 -3.45 -6.8 -3.85 -5.25 -6.25 M-11.95 -3.05 Q-11.95 -3.85 -12.2 -4.4 -12.45 -5.0 -12.8 -5.0 L-10.0 -8.55 Q-9.95 -6.95 -10.75 -5.45 L-11.65 -3.65 -11.95 -3.05" fill="#d7c9b5" fill-rule="evenodd" stroke="none"/>
      <path d="M8.85 -17.45 L7.95 -14.6 8.35 -15.1 9.4 -14.55 11.4 -15.45 12.25 -15.2 13.65 -14.85 14.35 -15.1 14.6 -15.45 14.0 -17.45 13.25 -17.7 13.35 -17.9 16.4 -17.55 16.05 -15.3 15.4 -15.85 15.8 -13.6 Q15.45 -11.15 15.95 -8.8 16.4 -6.7 15.75 -4.7 L14.7 -0.9 12.25 -5.0 Q12.6 -2.75 11.4 -0.65 11.2 -0.35 10.8 -0.15 L10.25 -0.25 10.25 -6.5 9.4 -5.75 Q8.5 -5.6 7.75 -6.15 7.0 -6.8 6.85 -7.85 L6.4 -12.7 Q6.2 -14.65 4.75 -15.85 5.95 -16.95 7.7 -17.3 L8.85 -17.45 M13.75 -12.0 L13.7 -12.5 12.75 -13.5 9.35 -13.2 9.0 -12.85 8.9 -12.65 8.5 -11.7 Q8.25 -10.95 8.4 -10.2 8.75 -8.25 10.9 -7.9 L12.5 -8.1 13.45 -8.85 Q14.35 -10.4 13.75 -12.0 M0.75 -9.45 L0.15 -8.55 -0.3 -7.85 -0.75 -9.45 Q-1.1 -10.3 -1.65 -10.7 L-2.15 -11.0 -3.0 -11.15 Q-3.85 -11.15 -4.4 -10.75 L-5.0 -10.35 -6.55 -10.7 Q-7.35 -13.1 -9.2 -14.55 L-9.7 -14.9 -10.7 -15.5 -10.25 -17.25 -10.2 -17.45 -10.15 -17.45 -9.7 -17.45 -8.9 -17.55 Q-5.85 -15.05 -1.85 -15.85 L-0.2 -14.55 0.25 -12.55 Q0.75 -11.05 0.75 -9.5 L0.75 -9.45 M-7.95 -9.0 L-8.15 -7.95 Q-8.2 -6.6 -7.0 -6.6 -6.1 -6.6 -5.3 -7.0 L-5.25 -6.75 -5.25 -6.25 -6.8 -3.85 Q-7.6 -4.35 -8.5 -4.5 L-8.6 -5.45 -8.75 -6.0 -9.25 -6.0 Q-9.3 -3.6 -10.25 -2.3 -10.8 -1.55 -11.9 -0.85 L-12.05 -2.75 -11.95 -3.05 -11.65 -3.65 -10.75 -5.45 Q-9.95 -6.95 -10.0 -8.55 L-12.8 -5.0 -13.9 -5.5 -12.25 -10.5 -11.0 -10.25 -9.3 -10.6 Q-8.45 -10.65 -8.1 -10.15 L-7.95 -9.0 M-4.45 -5.05 L-4.0 -5.0 -3.1 -5.05 -5.35 -2.65 -6.65 -1.15 -5.55 -2.8 -5.25 -3.35 -4.45 -5.05 M8.1 4.15 L8.35 4.25 8.05 4.35 8.05 4.25 8.1 4.15" fill="#bbaa91" fill-rule="evenodd" stroke="none"/>
      <path d="M-19.5 2.6 L-20.85 4.25 -21.0 3.65 -21.5 0.75 Q-21.5 -0.2 -21.0 -0.4 -20.5 -0.6 -20.5 -1.4 -20.5 -2.0 -21.0 -3.5 -20.75 -3.5 -20.75 -3.75 -19.3 -3.1 -18.5 -1.0 L-15.7 -1.2 -15.6 -0.35 -15.5 0.15 -14.4 1.05 -11.75 0.95 -11.9 -0.85 Q-10.8 -1.55 -10.25 -2.3 -9.3 -3.6 -9.25 -6.0 L-8.75 -6.0 -8.6 -5.45 -8.5 -4.5 Q-7.6 -4.35 -6.8 -3.85 L-6.2 -3.45 -5.55 -2.8 -6.65 -1.15 -6.8 -0.9 Q-9.4 2.05 -11.9 3.0 L-14.0 3.35 Q-14.45 3.35 -14.85 2.25 L-14.9 2.05 Q-15.25 1.1 -16.0 1.1 -17.35 1.1 -19.35 2.35 L-19.5 2.6 M-0.2 -14.55 L-0.15 -14.55 0.95 -14.35 1.2 -13.35 1.6 -11.5 Q1.6 -10.8 0.75 -9.45 L0.75 -9.5 Q0.75 -11.05 0.25 -12.55 L-0.2 -14.55 M2.25 -12.35 L2.95 -14.5 3.0 -14.55 3.8 -15.1 4.75 -15.85 Q6.2 -14.65 6.4 -12.7 L6.85 -7.85 Q7.0 -6.8 7.75 -6.15 8.5 -5.6 9.4 -5.75 L10.25 -6.5 10.25 -0.25 10.8 -0.15 Q11.2 -0.35 11.4 -0.65 12.6 -2.75 12.25 -5.0 L14.7 -0.9 14.65 -0.5 14.2 0.3 12.6 4.05 11.75 8.0 11.1 8.75 10.3 6.95 6.2 9.25 8.4 4.45 9.05 2.6 9.45 1.55 9.05 0.45 Q8.25 -0.9 6.25 -1.5 L4.55 -2.5 3.85 -1.9 0.1 0.65 Q2.05 -1.25 2.7 -3.6 2.75 -4.95 3.15 -6.4 L3.6 -8.25 3.0 -10.35 2.25 -12.35" fill="#aa5649" fill-rule="evenodd" stroke="none"/>
      <path d="M10.0 -20.0 L10.7 -22.55 11.15 -22.55 11.3 -19.95 11.45 -19.1 12.75 -17.55 13.2 -17.6 13.25 -17.7 14.0 -17.45 14.6 -15.45 14.35 -15.1 13.65 -14.85 12.25 -15.2 11.4 -15.45 9.4 -14.55 8.35 -15.1 7.95 -14.6 8.85 -17.45 9.55 -19.0 10.0 -20.0" fill="#c0ac6d" fill-rule="evenodd" stroke="none"/>
    </g>
    <g id="sprite3" transform="matrix(1.0, 0.0, 0.0, 1.0, 23.0, 35.0)">
      <use ffdec:characterId="1901" height="61.5" transform="matrix(1.0, 0.0, 0.0, 1.0, -23.0, -35.0)" width="43.45" xlink:href="#shape3"/>
    </g>
    <g id="shape3" transform="matrix(1.0, 0.0, 0.0, 1.0, 23.0, 35.0)">
      <path d="M12.15 -26.65 Q12.2 -25.6 13.2 -23.35 L10.75 -22.8 Q9.4 -22.2 8.15 -21.45 L11.25 -22.2 13.8 -22.05 13.9 -21.85 14.5 -20.55 16.25 -19.05 Q20.45 -14.95 20.45 -11.95 20.45 -9.75 19.45 -7.2 18.4 -4.65 18.4 -1.55 L18.9 1.75 18.8 3.55 Q18.5 4.7 17.65 4.7 L17.5 5.1 16.3 4.85 Q14.95 4.55 12.2 5.9 L10.1 6.3 11.7 6.55 11.65 6.9 5.75 6.05 5.5 5.4 4.25 5.4 3.9 5.9 3.95 7.05 3.85 6.9 3.35 5.45 3.35 5.4 Q3.35 4.3 4.5 3.55 5.65 2.75 7.3 2.75 8.8 2.2 9.85 1.05 6.9 0.3 4.2 -1.0 L4.0 -1.1 Q2.35 -1.95 2.0 -3.75 1.5 -6.2 0.6 -8.6 0.3 -9.35 0.45 -9.95 L1.2 -13.0 1.6 -15.3 2.05 -14.25 5.85 -16.75 6.15 -17.25 6.8 -19.3 5.4 -19.65 3.15 -18.2 Q3.55 -20.75 5.75 -22.2 L8.6 -23.95 9.25 -24.7 11.15 -25.75 11.95 -26.4 12.15 -26.65 M18.3 6.1 L18.65 6.75 18.95 8.1 17.2 10.8 15.5 12.9 15.45 12.9 15.3 14.45 15.2 16.1 15.15 17.0 Q15.15 17.75 10.25 20.7 L8.45 21.8 Q4.95 23.75 3.7 23.75 L2.55 23.6 2.4 23.95 Q1.95 24.5 0.35 24.5 -1.9 24.5 -2.45 23.5 -2.75 23.05 -2.55 22.65 L-2.55 22.4 -2.85 22.25 Q-3.75 21.8 -7.7 20.6 -9.25 20.6 -10.55 21.6 L-10.7 21.7 -11.3 23.25 -9.35 17.0 Q-8.4 15.65 -7.3 14.85 -6.0 13.85 -3.8 13.55 -3.75 12.4 -3.35 11.35 L-3.25 12.35 Q-2.75 13.2 -0.85 13.35 L-0.95 13.8 3.55 18.5 0.3 17.75 -4.1 17.6 Q-3.15 17.9 -1.25 19.15 0.35 20.25 1.45 20.25 L4.05 19.9 5.2 19.0 4.8 18.9 Q8.45 18.65 9.55 16.25 L10.0 15.5 8.7 15.85 7.7 15.6 6.7 15.35 5.05 15.75 4.05 16.15 3.95 16.0 Q4.0 15.25 3.5 14.55 L3.8 13.9 Q4.2 13.35 4.8 13.35 L4.15 14.1 4.25 14.55 5.85 14.2 7.9 13.35 8.1 13.9 8.3 13.65 Q9.35 12.15 9.9 11.6 L9.95 11.6 11.95 11.5 11.9 11.6 Q11.2 12.3 11.2 12.85 L10.85 14.35 10.6 14.9 Q11.45 14.15 12.75 14.05 14.65 13.85 14.65 12.75 14.65 11.45 13.9 11.15 L10.1 11.4 10.2 11.25 9.9 10.9 8.5 9.75 Q7.95 9.4 7.95 8.6 L5.95 8.2 8.0 7.95 Q8.2 6.45 9.8 7.7 L12.15 7.4 17.6 8.25 18.4 8.1 18.45 7.5 18.3 6.1 M-12.6 22.75 L-12.9 22.75 -13.45 22.75 -13.5 22.75 Q-15.65 22.9 -16.75 22.35 L-17.35 22.1 -17.95 21.75 -18.25 21.4 -18.6 20.1 Q-18.6 19.2 -18.4 18.85 -18.05 18.35 -17.0 18.55 L-16.55 18.65 Q-16.3 17.75 -15.9 17.3 -15.25 16.4 -13.65 16.4 -13.3 16.4 -12.95 16.65 L-12.6 22.75 M-3.2 -16.65 L-3.1 -18.25 -1.25 -16.3 -0.15 -16.3 0.45 -17.35 0.65 -18.2 0.7 -17.6 Q0.55 -14.7 -2.3 -15.0 L-2.7 -15.35 -3.2 -16.65 M0.75 -22.15 L0.1 -22.55 2.65 -24.1 4.35 -25.4 6.2 -26.55 8.45 -27.9 8.7 -28.05 8.9 -28.6 9.35 -28.25 9.6 -28.1 6.0 -25.2 3.65 -23.2 2.1 -22.25 0.75 -22.15 M-1.05 -6.85 Q-0.65 -5.85 -1.1 -4.85 L-1.4 -4.4 -1.65 -4.25 -2.1 -5.0 -1.7 -5.4 -1.35 -7.35 -1.9 -7.8 -1.5 -7.8 Q-1.35 -7.9 -1.35 -7.35 L-1.05 -6.85 M-3.05 -7.85 L-3.65 -7.5 Q-3.95 -6.7 -3.65 -5.95 L-3.4 -5.5 -3.15 -5.3 -3.6 -4.35 -3.9 -4.75 -4.05 -5.05 -4.25 -5.65 Q-4.35 -6.7 -3.9 -7.5 L-3.05 -7.85 M-3.55 -3.95 L-2.85 -2.85 -1.7 -3.15 -1.8 -1.95 -3.45 -1.6 -3.75 -3.3 -3.55 -3.95 M-5.75 -3.15 L-6.35 -2.5 -6.25 -1.2 -3.9 -1.1 -3.5 -1.5 -4.05 0.75 -4.85 0.95 -6.15 0.55 -6.6 0.15 Q-7.45 -0.7 -7.0 -2.1 -6.7 -3.05 -5.75 -3.15 M15.6 -15.65 L15.65 -16.15 14.95 -16.1 15.0 -17.1 Q13.15 -19.25 12.2 -19.5 L12.15 -19.55 Q12.05 -19.55 12.05 -19.9 L12.05 -20.0 11.05 -19.55 Q9.45 -18.6 9.5 -16.65 9.55 -15.7 10.25 -15.05 L10.45 -14.9 Q9.65 -15.05 9.3 -15.3 L8.15 -15.55 Q7.6 -15.95 6.9 -15.95 6.15 -15.95 5.65 -15.5 5.1 -15.1 5.1 -14.5 5.1 -13.9 5.65 -13.45 6.15 -13.05 6.9 -13.05 7.65 -13.05 8.2 -13.45 L8.7 -14.25 Q9.55 -14.2 9.85 -13.35 10.25 -12.2 10.7 -12.05 12.1 -12.6 13.15 -13.55 L12.55 -14.4 13.35 -14.35 13.0 -10.45 9.9 -11.85 Q10.95 -9.8 12.85 -8.8 L11.3 -7.7 11.85 -6.85 Q12.35 -6.6 12.95 -6.55 L14.25 -6.25 14.15 -8.3 14.2 -8.25 15.6 -9.55 15.4 -8.4 Q15.4 -7.7 15.8 -6.75 L16.15 -5.85 14.95 -4.5 13.1 -1.75 11.7 -2.35 12.85 -4.45 12.15 -4.4 10.3 -3.95 9.05 -3.6 9.3 -4.8 8.15 -6.35 10.7 -8.45 9.95 -8.25 Q8.3 -7.65 6.7 -6.9 L5.3 -7.05 4.8 -10.15 7.25 -11.55 7.55 -11.65 7.9 -11.45 7.95 -12.55 6.45 -12.05 Q5.15 -11.6 3.95 -10.95 3.15 -10.6 2.6 -9.85 L2.2 -9.1 4.55 -9.95 4.6 -7.1 3.5 -6.35 5.25 -5.0 7.0 -3.55 9.2 -1.75 9.35 -1.65 4.5 -2.85 Q3.7 -3.15 3.15 -3.75 2.55 -4.35 2.1 -5.1 L2.8 -3.1 Q3.25 -2.05 4.4 -1.4 7.2 0.15 10.15 1.1 L11.75 1.5 12.2 1.0 14.55 1.35 14.45 -1.0 15.35 -2.0 Q17.4 -4.35 17.4 -5.1 17.4 -6.35 16.9 -6.25 L17.3 -8.85 17.65 -12.55 18.55 -14.4 Q18.55 -15.8 16.75 -15.85 L15.6 -15.65 M14.5 -10.95 L14.9 -12.7 15.15 -13.6 15.2 -13.45 15.45 -12.55 14.5 -10.95 M14.6 2.85 L14.2 2.8 12.6 3.0 10.4 4.65 14.05 3.9 14.65 4.05 14.6 2.85 M3.8 6.7 L3.75 6.65 3.75 6.7 3.8 6.7 M2.1 13.4 Q1.45 13.05 0.7 12.95 L2.95 9.7 2.95 9.4 Q3.65 10.1 3.65 11.1 3.65 12.85 2.1 13.4 M0.15 8.15 L-0.2 8.15 -1.15 8.3 0.15 8.15 M-9.9 9.05 L-9.9 9.1 Q-9.2 10.35 -7.8 10.35 -4.65 10.35 -4.35 8.55 -4.2 8.9 -4.2 9.35 -4.2 10.2 -5.1 10.95 L-6.0 11.5 -7.55 11.75 Q-8.8 11.75 -9.95 9.45 L-9.9 9.05" fill="#990000" fill-rule="evenodd" stroke="none"/>
      <path d="M13.2 -23.35 L13.8 -22.05 11.25 -22.2 8.15 -21.45 Q9.4 -22.2 10.75 -22.8 L13.2 -23.35 M17.5 5.1 Q18.15 5.3 18.3 5.75 L18.3 6.1 18.45 7.5 18.4 8.1 17.6 8.25 12.15 7.4 9.8 7.7 Q8.2 6.45 8.0 7.95 L5.95 8.2 4.55 7.9 Q3.95 7.55 3.95 7.05 L3.9 5.9 4.25 5.4 5.5 5.4 5.75 6.05 11.65 6.9 11.7 6.55 10.1 6.3 12.2 5.9 Q14.95 4.55 16.3 4.85 L17.5 5.1 M-3.1 -18.25 L-2.6 -19.35 -2.0 -19.55 -1.2 -19.65 Q-0.05 -19.65 0.6 -18.7 L0.65 -18.2 0.45 -17.35 -0.15 -16.3 -1.25 -16.3 -3.1 -18.25 M0.1 -22.55 L-0.6 -23.0 -0.55 -23.45 Q-0.2 -24.45 0.45 -25.05 L0.9 -25.6 Q3.75 -28.95 8.25 -29.05 8.95 -29.2 8.9 -28.6 L8.7 -28.05 8.45 -27.9 6.2 -26.55 4.35 -25.4 2.65 -24.1 0.1 -22.55 M1.6 -15.7 Q1.65 -16.3 2.15 -17.0 L2.9 -17.95 3.15 -18.2 5.4 -19.65 6.8 -19.3 6.15 -17.25 5.85 -16.75 2.05 -14.25 1.6 -15.3 1.6 -15.6 1.6 -15.7 M8.2 12.05 Q9.05 10.6 9.9 10.9 L10.2 11.25 10.1 11.4 13.9 11.15 Q14.65 11.45 14.65 12.75 14.65 13.85 12.75 14.05 11.45 14.15 10.6 14.9 L10.85 14.35 11.2 12.85 Q11.2 12.3 11.9 11.6 L11.95 11.5 9.95 11.6 9.9 11.6 Q9.35 12.15 8.3 13.65 L8.1 13.9 7.9 13.35 5.85 14.2 4.25 14.55 4.15 14.1 4.8 13.35 Q6.1 12.0 7.5 12.5 L7.95 12.7 8.05 12.55 8.2 12.05 M-3.6 -4.35 L-3.15 -5.3 -3.4 -5.5 -3.65 -5.95 Q-3.95 -6.7 -3.65 -7.5 L-3.05 -7.85 -2.8 -7.85 -1.9 -7.8 -1.35 -7.35 -1.7 -5.4 -2.1 -5.0 -1.65 -4.25 -1.7 -4.2 -1.65 -3.9 -1.7 -3.15 -2.85 -2.85 -3.55 -3.95 -3.6 -4.35 M-3.5 -1.5 L-3.9 -1.1 -6.25 -1.2 -6.35 -2.5 -5.75 -3.15 -4.95 -3.2 -3.75 -3.3 -3.45 -1.6 -3.5 -1.5 M15.6 -15.65 L16.75 -15.85 Q18.55 -15.8 18.55 -14.4 L17.65 -12.55 17.3 -8.85 16.9 -6.25 Q17.4 -6.35 17.4 -5.1 17.4 -4.35 15.35 -2.0 L14.45 -1.0 14.55 1.35 12.2 1.0 11.75 1.5 10.15 1.1 Q7.2 0.15 4.4 -1.4 3.25 -2.05 2.8 -3.1 L2.1 -5.1 Q2.55 -4.35 3.15 -3.75 3.7 -3.15 4.5 -2.85 L9.35 -1.65 9.2 -1.75 7.0 -3.55 5.25 -5.0 3.5 -6.35 4.6 -7.1 4.55 -9.95 2.2 -9.1 2.6 -9.85 Q3.15 -10.6 3.95 -10.95 5.15 -11.6 6.45 -12.05 L7.95 -12.55 7.9 -11.45 7.55 -11.65 7.25 -11.55 4.8 -10.15 5.3 -7.05 6.7 -6.9 Q8.3 -7.65 9.95 -8.25 L10.7 -8.45 8.15 -6.35 9.3 -4.8 9.05 -3.6 10.3 -3.95 12.15 -4.4 12.85 -4.45 11.7 -2.35 13.1 -1.75 14.95 -4.5 16.15 -5.85 15.8 -6.75 Q15.4 -7.7 15.4 -8.4 L15.6 -9.55 14.2 -8.25 14.15 -8.3 Q13.8 -8.6 13.8 -9.3 13.8 -9.75 14.5 -10.95 L15.45 -12.55 15.2 -13.45 15.15 -13.6 14.95 -14.4 Q14.95 -15.3 15.6 -15.65 M12.55 -14.4 L13.15 -13.55 Q12.1 -12.6 10.7 -12.05 10.25 -12.2 9.85 -13.35 9.55 -14.2 8.7 -14.25 L8.2 -13.45 Q7.65 -13.05 6.9 -13.05 6.15 -13.05 5.65 -13.45 5.1 -13.9 5.1 -14.5 5.1 -15.1 5.65 -15.5 6.15 -15.95 6.9 -15.95 7.6 -15.95 8.15 -15.55 L9.3 -15.3 Q9.65 -15.05 10.45 -14.9 L11.4 -14.85 Q12.1 -14.8 12.55 -14.4 M14.6 2.85 L14.65 4.05 14.05 3.9 10.4 4.65 12.6 3.0 14.2 2.8 14.6 2.85 M2.95 9.4 L2.95 9.7 0.7 12.95 Q1.45 13.05 2.1 13.4 L2.95 14.0 3.5 14.55 Q4.0 15.25 3.95 16.0 L4.05 16.15 5.05 15.75 6.7 15.35 7.7 15.6 8.7 15.85 10.0 15.5 9.55 16.25 Q8.45 18.65 4.8 18.9 L5.2 19.0 4.05 19.9 1.45 20.25 Q0.35 20.25 -1.25 19.15 -3.15 17.9 -4.1 17.6 L0.3 17.75 3.55 18.5 -0.95 13.8 -0.85 13.35 Q-2.75 13.2 -3.25 12.35 L-3.35 11.35 -3.35 10.95 -3.35 10.75 Q-3.3 9.65 -2.65 9.0 L-2.55 8.9 Q-2.05 8.45 -1.15 8.3 L-0.2 8.15 0.15 8.15 Q2.65 8.15 2.95 9.4 M-9.9 9.05 L-10.05 8.75 -10.3 7.75 Q-10.3 7.05 -9.3 6.65 L-7.3 6.2 Q-4.5 5.9 -4.3 7.8 L-4.3 8.1 -4.35 8.55 Q-4.65 10.35 -7.8 10.35 -9.2 10.35 -9.9 9.1 L-9.9 9.05" fill="#ff0000" fill-rule="evenodd" stroke="none"/>
      <path d="M-21.8 11.65 L-20.9 6.45 Q-20.3 3.1 -18.9 0.1 L-17.85 -1.95 -17.25 -3.2 -16.1 -6.5 Q-15.1 -9.45 -13.15 -12.0 L-12.1 -13.3 -10.75 -15.35 -7.1 -20.4 -3.75 -24.55 -3.35 -24.85 -2.25 -25.65 -2.2 -25.9 Q-1.25 -28.65 -1.8 -30.25 -0.8 -29.75 0.1 -29.75 1.15 -29.75 2.05 -31.75 2.75 -33.35 2.95 -35.0 3.2 -31.0 6.7 -31.0 8.0 -31.0 8.75 -31.55 L10.2 -33.0 10.5 -30.75 12.6 -31.05 13.15 -31.15 13.35 -31.15 12.65 -29.3 12.5 -28.85 9.35 -28.25 8.9 -28.6 Q8.95 -29.2 8.25 -29.05 3.75 -28.95 0.9 -25.6 L0.45 -25.05 Q-0.2 -24.45 -0.55 -23.45 L-0.6 -23.0 0.1 -22.55 0.75 -22.15 -0.35 -20.8 -1.2 -19.65 -2.0 -19.55 -2.6 -19.35 -3.1 -18.25 -3.2 -16.65 -4.0 -15.35 -6.85 -9.95 Q-8.1 -7.25 -8.95 -4.45 -10.05 -0.55 -12.9 5.4 L-9.1 -10.35 -7.8 -14.45 -11.8 -8.05 -16.15 -0.35 -17.4 2.15 -20.0 7.65 -21.8 11.65 M-18.25 21.4 L-20.3 22.1 -15.4 12.5 Q-15.7 14.75 -16.4 16.95 L-17.0 18.55 Q-18.05 18.35 -18.4 18.85 -18.6 19.2 -18.6 20.1 L-18.25 21.4 M-22.7 24.6 L-23.0 22.1 -22.85 20.3 -22.7 19.1 -22.7 24.6" fill="#ecdecb" fill-rule="evenodd" stroke="none"/>
      <path d="M12.25 -27.75 L12.15 -26.7 12.15 -26.65 11.95 -26.4 11.15 -25.75 9.25 -24.7 8.6 -23.95 5.75 -22.2 Q3.55 -20.75 3.15 -18.2 L2.9 -17.95 2.15 -17.0 4.0 -21.8 3.35 -21.35 3.35 -21.4 Q4.0 -22.85 4.95 -24.05 L5.35 -24.5 5.45 -24.6 Q8.2 -27.6 12.25 -27.75 M1.1 -14.45 L1.6 -15.7 1.6 -15.6 1.6 -15.3 1.2 -13.0 1.1 -14.45" fill="#583a30" fill-rule="evenodd" stroke="none"/>
      <path d="M12.5 -28.85 L12.25 -27.75 Q8.2 -27.6 5.45 -24.6 L5.35 -24.5 4.95 -24.05 Q4.0 -22.85 3.35 -21.4 L3.35 -21.35 Q2.25 -20.6 0.6 -18.7 -0.05 -19.65 -1.2 -19.65 L-0.35 -20.8 0.75 -22.15 2.1 -22.25 3.65 -23.2 6.0 -25.2 9.6 -28.1 9.35 -28.25 12.5 -28.85 M-12.4 26.5 L-12.6 22.75 -12.95 16.65 Q-13.3 16.4 -13.65 16.4 -15.25 16.4 -15.9 17.3 -16.3 17.75 -16.55 18.65 L-17.0 18.55 -16.4 16.95 Q-15.7 14.75 -15.4 12.5 L-20.3 22.1 -22.7 24.6 -22.7 19.1 -21.8 11.65 -20.0 7.65 -17.4 2.15 -16.15 -0.35 -11.8 -8.05 -7.8 -14.45 -9.1 -10.35 -12.9 5.4 Q-10.05 -0.55 -8.95 -4.45 -8.1 -7.25 -6.85 -9.95 L-4.0 -15.35 -3.2 -16.65 -2.7 -15.35 -2.3 -15.0 -2.85 -13.75 Q-3.1 -12.7 -1.85 -12.7 -1.15 -12.7 -0.9 -13.25 L-0.35 -14.35 -0.25 -13.65 -0.4 -12.7 -2.8 -7.85 -3.05 -7.85 -3.9 -7.5 Q-4.35 -6.7 -4.25 -5.65 L-4.05 -5.05 -4.95 -3.2 -5.75 -3.15 Q-6.7 -3.05 -7.0 -2.1 -7.45 -0.7 -6.6 0.15 -7.75 2.25 -9.3 6.65 -10.3 7.05 -10.3 7.75 L-10.05 8.75 -10.8 10.85 Q-11.85 13.9 -12.3 24.8 L-12.4 26.5" fill="#d7c9b5" fill-rule="evenodd" stroke="none"/>
      <path d="M0.65 -18.2 L0.6 -18.7 Q2.25 -20.6 3.35 -21.35 L4.0 -21.8 2.15 -17.0 Q1.65 -16.3 1.6 -15.7 L1.1 -14.45 -0.4 -9.95 -0.65 -9.85 -0.65 -9.9 -0.9 -10.95 -0.55 -12.15 -0.4 -12.7 -0.25 -13.65 -0.35 -14.35 -0.9 -13.25 Q-1.15 -12.7 -1.85 -12.7 -3.1 -12.7 -2.85 -13.75 L-2.3 -15.0 Q0.55 -14.7 0.7 -17.6 L0.65 -18.2 M-0.7 1.95 L-0.55 1.05 -0.65 0.85 -0.5 0.85 -0.4 0.35 -0.25 0.35 Q0.35 3.6 2.1 6.55 L3.0 8.0 Q5.05 10.0 8.2 12.05 L8.05 12.55 7.95 12.7 7.5 12.5 Q6.1 12.0 4.8 13.35 4.2 13.35 3.8 13.9 L3.5 14.55 2.95 14.0 2.1 13.4 Q3.65 12.85 3.65 11.1 3.65 10.1 2.95 9.4 2.65 8.15 0.15 8.15 L-1.15 8.3 Q-2.05 8.45 -2.55 8.9 L-2.6 8.85 -2.65 9.0 Q-3.3 9.65 -3.35 10.75 -4.0 11.55 -5.2 11.55 L-6.0 11.5 -5.1 10.95 Q-4.2 10.2 -4.2 9.35 -4.2 8.9 -4.35 8.55 L-4.3 8.1 -4.3 7.8 -0.1 6.55 0.15 6.45 -0.35 4.8 -0.75 2.8 -0.7 1.95" fill="#aa5649" fill-rule="evenodd" stroke="none"/>
      <path d="M10.45 -14.9 L10.25 -15.05 Q9.55 -15.7 9.5 -16.65 9.45 -18.6 11.05 -19.55 L12.05 -20.0 12.05 -19.9 Q12.05 -19.55 12.15 -19.55 L12.2 -19.5 Q13.15 -19.25 15.0 -17.1 L14.95 -16.1 15.65 -16.15 15.6 -15.65 Q14.95 -15.3 14.95 -14.4 L15.15 -13.6 14.9 -12.7 14.5 -10.95 Q13.8 -9.75 13.8 -9.3 13.8 -8.6 14.15 -8.3 L14.25 -6.25 12.95 -6.55 Q12.35 -6.6 11.85 -6.85 L11.3 -7.7 12.85 -8.8 Q10.95 -9.8 9.9 -11.85 L13.0 -10.45 13.35 -14.35 12.55 -14.4 Q12.1 -14.8 11.4 -14.85 L10.45 -14.9" fill="#650101" fill-rule="evenodd" stroke="none"/>
      <path d="M-11.3 23.25 L-12.4 26.5 Q-11.55 22.35 -12.1 22.6 L-12.3 24.8 Q-11.85 13.9 -10.8 10.85 L-10.05 8.75 -9.9 9.05 -9.95 9.45 Q-8.8 11.75 -7.55 11.75 L-6.0 11.5 -5.2 11.55 Q-4.0 11.55 -3.35 10.75 L-3.35 10.95 -3.35 11.35 Q-3.75 12.4 -3.8 13.55 -6.0 13.85 -7.3 14.85 -8.4 15.65 -9.35 17.0 L-11.3 23.25 M-0.4 -12.7 L-0.55 -12.15 -0.9 -10.95 -0.65 -9.9 -0.75 -9.55 -1.05 -6.85 -1.35 -7.35 Q-1.35 -7.9 -1.5 -7.8 L-1.9 -7.8 -2.8 -7.85 -0.4 -12.7 M-1.1 -4.85 L-1.15 -3.7 Q-1.15 -0.55 -0.7 1.95 L-0.75 2.8 -0.35 4.8 -0.1 6.55 -4.3 7.8 Q-4.5 5.9 -7.3 6.2 L-9.3 6.65 Q-7.75 2.25 -6.6 0.15 L-6.15 0.55 -4.85 0.95 -4.05 0.75 -3.5 -1.5 -3.45 -1.6 -1.8 -1.95 -1.7 -3.15 -1.65 -3.9 -1.7 -4.2 -1.65 -4.25 -1.4 -4.4 -1.1 -4.85 M-3.6 -4.35 L-3.55 -3.95 -3.75 -3.3 -4.95 -3.2 -4.05 -5.05 -3.9 -4.75 -3.6 -4.35 M-2.55 8.9 L-2.65 9.0 -2.6 8.85 -2.55 8.9" fill="#bbaa91" fill-rule="evenodd" stroke="none"/>
      <path d="M-0.65 -9.9 L-0.65 -9.85 -0.4 -9.95 1.1 -14.45 1.2 -13.0 0.45 -9.95 Q0.3 -9.35 0.6 -8.6 1.5 -6.2 2.0 -3.75 2.35 -1.95 4.0 -1.1 L4.2 -1.0 Q6.9 0.3 9.85 1.05 8.8 2.2 7.3 2.75 5.65 2.75 4.5 3.55 3.35 4.3 3.35 5.4 L3.35 5.45 3.85 6.9 3.95 7.05 Q3.95 7.55 4.55 7.9 L5.95 8.2 7.95 8.6 Q7.95 9.4 8.5 9.75 L9.9 10.9 Q9.05 10.6 8.2 12.05 5.05 10.0 3.0 8.0 L2.1 6.55 Q0.35 3.6 -0.25 0.35 L-0.4 0.35 -0.5 0.85 -0.65 0.85 -0.55 1.05 -0.7 1.95 Q-1.15 -0.55 -1.15 -3.7 L-1.1 -4.85 Q-0.65 -5.85 -1.05 -6.85 L-0.75 -9.55 -0.65 -9.9" fill="#462e26" fill-rule="evenodd" stroke="none"/>
      <path d="M-0.1 6.55 L-0.35 4.8 0.15 6.45 -0.1 6.55" fill="#c0ac6d" fill-rule="evenodd" stroke="none"/>
    </g>
    <g id="sprite4" transform="matrix(1.0, 0.0, 0.0, 1.0, 9.7, 14.1)">
      <use ffdec:characterId="1152" height="20.0" transform="matrix(1.0, 0.0, 0.0, 1.0, -7.25, -9.95)" width="15.2" xlink:href="#morphshape0"/>
      <use ffdec:characterId="1153" height="13.85" transform="matrix(1.0, 0.0, 0.0, 1.0, -1.95, -9.45)" width="8.55" xlink:href="#morphshape1"/>
      <use ffdec:characterId="1154" height="18.1" transform="matrix(1.0, 0.0, 0.0, 1.0, -5.75, -9.5)" width="11.1" xlink:href="#morphshape2"/>
      <use ffdec:characterId="1156" height="2.55" transform="matrix(1.0, 0.0, 0.0, 1.0, 3.65, -5.5)" width="3.65" xlink:href="#sprite5"/>
      <use ffdec:characterId="1158" height="5.2" transform="matrix(1.0, 0.0, 0.0, 1.0, -1.4, -13.35)" width="3.35" xlink:href="#sprite6"/>
      <use ffdec:characterId="1160" height="5.6" transform="matrix(1.0, 0.0, 0.0, 1.0, -5.65, -12.85)" width="2.4" xlink:href="#sprite7"/>
      <use ffdec:characterId="1162" height="1.7" transform="matrix(1.0, 0.0, 0.0, 1.0, -9.2, -5.0)" width="3.85" xlink:href="#sprite8"/>
      <use ffdec:characterId="1164" height="1.75" transform="matrix(1.0, 0.0, 0.0, 1.0, -9.7, -0.35)" width="3.15" xlink:href="#sprite9"/>
    </g>
    <g id="morphshape0" transform="matrix(1.0, 0.0, 0.0, 1.0, 7.25, 9.95)">
      <path d="M-7.2 -0.55 Q-7.55 4.3 -3.5 7.15 0.4 9.85 4.95 9.95 5.3 9.6 5.6 9.25 7.15 6.3 7.2 2.6 7.05 -4.4 2.4 -6.2 0.85 -8.95 -0.05 -9.9 L-1.2 -9.95 Q-3.05 -9.9 -4.55 -9.1 L-6.7 -3.5 Q-6.95 -2.0 -7.2 -0.55" fill="#990000" fill-rule="evenodd" stroke="none"/>
      <path d="M-7.2 -0.55 Q-6.95 -2.0 -6.7 -3.5 L-4.55 -9.1 Q-3.05 -9.9 -1.2 -9.95 L-0.05 -9.9 Q0.85 -8.95 2.4 -6.2 7.05 -4.4 7.2 2.6 7.15 6.3 5.6 9.25 5.3 9.6 4.95 9.95 0.4 9.85 -3.5 7.15 -7.55 4.3 -7.2 -0.55 Z" fill="none" stroke="#000000" stroke-linecap="round" stroke-linejoin="round" stroke-opacity="0.0" stroke-width="0.0"/>
    </g>
    <g id="morphshape1" transform="matrix(1.0, 0.0, 0.0, 1.0, 1.95, 9.45)">
      <path d="M-1.95 -8.1 Q-1.75 -6.85 -0.15 -5.95 -1.05 -4.55 1.1 -1.9 3.65 1.15 5.8 2.4 7.3 -2.85 0.8 -5.8 0.9 -6.95 0.6 -7.7 -0.1 -8.45 -0.8 -9.2 -1.9 -10.05 -1.95 -8.1" fill="#fe8989" fill-rule="evenodd" stroke="none"/>
      <path d="M-1.95 -8.1 Q-1.9 -10.05 -0.8 -9.2 -0.1 -8.45 0.6 -7.7 0.9 -6.95 0.8 -5.8 7.3 -2.85 5.8 2.4 3.65 1.15 1.1 -1.9 -1.05 -4.55 -0.15 -5.95 -1.75 -6.85 -1.95 -8.1 Z" fill="none" stroke="#000000" stroke-linecap="round" stroke-linejoin="round" stroke-opacity="0.0" stroke-width="0.0"/>
    </g>
    <g id="morphshape2" transform="matrix(1.0, 0.0, 0.0, 1.0, 5.75, 9.5)">
      <path d="M-5.75 0.9 L-5.75 1.05 Q-5.6 1.95 -4.2 4.3 L-3.5 5.2 Q-1.85 6.85 1.15 6.95 L1.55 7.1 Q2.55 7.5 3.15 8.6 3.8 8.55 4.45 8.5 L5.25 8.5 5.35 7.75 5.3 7.1 5.3 6.8 5.2 6.45 5.1 6.45 4.2 6.1 3.9 6.0 Q2.2 5.35 0.7 4.35 L-0.1 3.8 -0.6 3.35 -1.4 2.05 Q-1.5 1.3 -1.6 0.55 L-1.55 -0.05 Q-1.3 -2.25 0.75 -4.4 L0.75 -4.4 Q2.0 -6.0 3.65 -7.25 L4.3 -7.7 3.2 -8.85 3.0 -9.05 2.1 -8.35 1.5 -7.9 Q-0.7 -6.15 -2.9 -4.45 L-3.65 -3.95 Q-5.2 -2.55 -5.75 0.9" fill="#76015b" fill-rule="evenodd" stroke="none"/>
      <path d="M-5.75 0.9 Q-5.2 -2.55 -3.65 -3.95 L-2.9 -4.45 Q-0.7 -6.15 1.5 -7.9 L2.1 -8.35 3.0 -9.05 3.2 -8.85 4.3 -7.7 3.65 -7.25 Q2.0 -6.0 0.75 -4.4 L0.75 -4.4 Q-1.3 -2.25 -1.55 -0.05 L-1.6 0.55 Q-1.5 1.3 -1.4 2.05 L-0.6 3.35 -0.1 3.8 0.7 4.35 Q2.2 5.35 3.9 6.0 L4.2 6.1 5.1 6.45 5.2 6.45 5.3 6.8 5.3 7.1 5.35 7.75 5.25 8.5 4.45 8.5 Q3.8 8.55 3.15 8.6 2.55 7.5 1.55 7.1 L1.15 6.95 Q-1.85 6.85 -3.5 5.2 L-4.2 4.3 Q-5.6 1.95 -5.75 1.05 L-5.75 0.9 Z" fill="none" stroke="#000000" stroke-linecap="round" stroke-linejoin="round" stroke-opacity="0.0" stroke-width="0.0"/>
    </g>
    <g id="sprite5" transform="matrix(1.0, 0.0, 0.0, 1.0, 1.8, 1.3)">
      <use ffdec:characterId="1155" height="2.55" transform="matrix(1.0, 0.0, 0.0, 1.0, -1.8, -1.3)" width="3.65" xlink:href="#shape4"/>
    </g>
    <g id="shape4" transform="matrix(1.0, 0.0, 0.0, 1.0, 1.8, 1.3)">
      <path d="M-1.8 0.85 L-0.75 0.1 1.85 -1.3 1.85 0.15 Q0.8 0.95 -0.4 1.25 L-1.8 0.85" fill="#ff0000" fill-rule="evenodd" stroke="none"/>
    </g>
    <g id="sprite6" transform="matrix(1.0, 0.0, 0.0, 1.0, 1.65, 2.6)">
      <use ffdec:characterId="1157" height="5.2" transform="matrix(1.0, 0.0, 0.0, 1.0, -1.65, -2.6)" width="3.35" xlink:href="#shape5"/>
    </g>
    <g id="shape5" transform="matrix(1.0, 0.0, 0.0, 1.0, 1.65, 2.6)">
      <path d="M1.7 -1.75 Q0.1 0.35 -0.7 2.6 L-1.65 1.05 -0.65 -0.8 0.8 -2.6 1.7 -1.75" fill="#ff0000" fill-rule="evenodd" stroke="none"/>
    </g>
    <g id="sprite7" transform="matrix(1.0, 0.0, 0.0, 1.0, 1.2, 2.8)">
      <use ffdec:characterId="1159" height="5.6" transform="matrix(1.0, 0.0, 0.0, 1.0, -1.2, -2.8)" width="2.4" xlink:href="#shape6"/>
    </g>
    <g id="shape6" transform="matrix(1.0, 0.0, 0.0, 1.0, 1.2, 2.8)">
      <path d="M-1.05 -2.8 L0.15 -2.8 0.65 -1.3 Q1.3 0.9 1.2 1.8 1.1 2.65 0.5 2.7 L0.0 2.8 -0.05 2.8 -0.75 0.75 -1.2 -1.6 -1.05 -2.8" fill="#ff0000" fill-rule="evenodd" stroke="none"/>
    </g>
    <g id="sprite8" transform="matrix(1.0, 0.0, 0.0, 1.0, 1.95, 0.85)">
      <use ffdec:characterId="1161" height="1.7" transform="matrix(1.0, 0.0, 0.0, 1.0, -1.95, -0.85)" width="3.85" xlink:href="#shape7"/>
    </g>
    <g id="shape7" transform="matrix(1.0, 0.0, 0.0, 1.0, 1.95, 0.85)">
      <path d="M1.75 0.55 L1.3 0.85 -1.95 0.7 -1.95 -0.85 -0.4 -0.75 Q0.85 -0.75 1.9 0.15 L1.75 0.55" fill="#ff0000" fill-rule="evenodd" stroke="none"/>
    </g>
    <g id="sprite9" transform="matrix(1.0, 0.0, 0.0, 1.0, 1.6, 0.85)">
      <use ffdec:characterId="1163" height="1.75" transform="matrix(1.0, 0.0, 0.0, 1.0, -1.6, -0.85)" width="3.15" xlink:href="#shape8"/>
    </g>
    <g id="shape8" transform="matrix(1.0, 0.0, 0.0, 1.0, 1.6, 0.85)">
      <path d="M0.2 -0.85 L1.55 -0.75 1.25 0.35 -0.8 0.9 -1.6 0.85 -1.25 -0.3 0.2 -0.85" fill="#ff0000" fill-rule="evenodd" stroke="none"/>
    </g>
  </defs>
</svg>
