<?xml version="1.0" encoding="UTF-8" standalone="no"?>
<svg xmlns:ffdec="https://www.free-decompiler.com/flash" xmlns:xlink="http://www.w3.org/1999/xlink" ffdec:objectType="frame" height="6.1px" width="6.65px" xmlns="http://www.w3.org/2000/svg">
  <g transform="matrix(1.0, 0.0, 0.0, 1.0, 0.0, 0.0)">
    <use ffdec:characterId="245" height="6.1" transform="matrix(1.0, 0.0, 0.0, 1.0, 0.0, 0.0)" width="5.95" xlink:href="#shape0"/>
  </g>
  <defs>
    <g id="shape0" transform="matrix(1.0, 0.0, 0.0, 1.0, 0.0, 0.0)">
      <path d="M1.6 5.6 Q0.55 3.95 1.45 2.1 2.15 0.85 3.2 0.65 L5.0 0.7 Q6.3 2.0 5.8 4.0 5.35 5.15 4.2 5.85 L2.6 6.1 1.6 5.6" fill="#724c3f" fill-rule="evenodd" stroke="none"/>
      <path d="M1.6 5.6 Q0.45 5.0 0.1 3.8 -0.25 2.55 0.4 1.5 1.0 0.4 2.15 0.1 3.45 -0.2 4.6 0.4 L5.0 0.7 3.2 0.65 Q2.15 0.85 1.45 2.1 0.55 3.95 1.6 5.6" fill="#b58879" fill-rule="evenodd" stroke="none"/>
    </g>
  </defs>
</svg>
