<?xml version="1.0" encoding="UTF-8" standalone="no"?>
<svg xmlns:ffdec="https://www.free-decompiler.com/flash" xmlns:xlink="http://www.w3.org/1999/xlink" ffdec:objectType="frame" height="23.0px" width="55.95px" xmlns="http://www.w3.org/2000/svg">
  <g transform="matrix(1.0, 0.0, 0.0, 1.0, 0.0, 0.0)">
    <use ffdec:characterId="818" height="23.0" transform="matrix(1.0, 0.0, 0.0, 1.0, 0.0, 0.0)" width="23.0" xlink:href="#shape0"/>
    <use ffdec:characterId="388" height="18.0" id="box" transform="matrix(1.0, 0.0, 0.0, 1.0, 0.0, 0.0)" width="18.0" xlink:href="#sprite0"/>
    <use ffdec:characterId="390" height="14.0" id="check" transform="matrix(1.0, 0.0, 0.0, 1.0, 2.0, 2.0)" width="14.0" xlink:href="#sprite1"/>
    <use ffdec:characterId="820" height="2.0" id="dash" transform="matrix(1.0, 0.0, 0.0, 1.0, 4.05, 8.0)" width="10.0" xlink:href="#sprite2"/>
    <use ffdec:characterId="821" height="16.85" id="labelText" transform="matrix(1.0, 0.0, 0.0, 1.0, 23.0, 1.0)" width="32.95" xlink:href="#text0"/>
  </g>
  <defs>
    <g id="shape0" transform="matrix(1.0, 0.0, 0.0, 1.0, 0.0, 0.0)">
      <path d="M23.0 0.0 L23.0 20.0 18.0 20.0 18.0 0.0 23.0 0.0 M5.0 23.0 L0.0 23.0 0.0 18.0 5.0 18.0 5.0 23.0" fill="#010101" fill-opacity="0.0" fill-rule="evenodd" stroke="none"/>
    </g>
    <g id="sprite0" transform="matrix(1.0, 0.0, 0.0, 1.0, 0.0, 0.0)">
      <use ffdec:characterId="387" height="18.0" transform="matrix(1.0, 0.0, 0.0, 1.0, 0.0, 0.0)" width="18.0" xlink:href="#shape1"/>
    </g>
    <g id="shape1" transform="matrix(1.0, 0.0, 0.0, 1.0, 0.0, 0.0)">
      <path d="M2.0 2.0 L16.0 2.0 16.0 16.0 2.0 16.0 2.0 2.0" fill="#ffffff" fill-rule="evenodd" stroke="none"/>
      <path d="M16.0 16.0 L18.0 18.0 0.0 18.0 2.0 16.0 16.0 16.0" fill="#e6e6e6" fill-rule="evenodd" stroke="none"/>
      <path d="M16.0 2.0 L18.0 0.0 18.0 18.0 16.0 16.0 16.0 2.0 M0.0 0.0 L2.0 2.0 2.0 16.0 0.0 18.0 0.0 0.0" fill="#b7b7b7" fill-rule="evenodd" stroke="none"/>
      <path d="M18.0 0.0 L16.0 2.0 2.0 2.0 0.0 0.0 18.0 0.0" fill="#8e8e8e" fill-rule="evenodd" stroke="none"/>
    </g>
    <g id="sprite1" transform="matrix(1.0, 0.0, 0.0, 1.0, 0.0, 0.0)">
      <use ffdec:characterId="389" height="14.0" transform="matrix(1.0, 0.0, 0.0, 1.0, 0.0, 0.0)" width="14.0" xlink:href="#shape2"/>
    </g>
    <g id="shape2" transform="matrix(1.0, 0.0, 0.0, 1.0, 0.0, 0.0)">
      <path d="M14.0 0.0 L14.0 3.5 3.5 14.0 0.0 10.5 0.0 3.5 3.5 7.0 10.5 0.0 14.0 0.0" fill="#000000" fill-rule="evenodd" stroke="none"/>
    </g>
    <g id="sprite2" transform="matrix(1.0, 0.0, 0.0, 1.0, -2.05, -6.0)">
      <use ffdec:characterId="819" height="2.0" transform="matrix(1.0, 0.0, 0.0, 1.0, 2.05, 6.0)" width="10.0" xlink:href="#shape3"/>
    </g>
    <g id="shape3" transform="matrix(1.0, 0.0, 0.0, 1.0, -2.05, -6.0)">
      <path d="M12.05 6.0 L12.05 8.0 2.05 8.0 2.05 6.0 12.05 6.0" fill="#000000" fill-rule="evenodd" stroke="none"/>
    </g>
  </defs>
</svg>
