<?xml version="1.0" encoding="UTF-8" standalone="no"?>
<svg xmlns:ffdec="https://www.free-decompiler.com/flash" xmlns:xlink="http://www.w3.org/1999/xlink" ffdec:objectType="frame" height="86.35px" width="31.0px" xmlns="http://www.w3.org/2000/svg">
  <g transform="matrix(1.0, 0.0, 0.0, 1.0, 14.15, 45.35)">
    <use ffdec:characterId="1471" height="84.55" transform="matrix(1.0, 0.0, 0.0, 1.0, -13.2, -44.05)" width="27.8" xlink:href="#shape0"/>
  </g>
  <defs>
    <g id="shape0" transform="matrix(1.0, 0.0, 0.0, 1.0, 13.2, 44.05)">
      <path d="M-9.55 -41.4 L-9.6 -41.35 -9.6 -41.4 -9.55 -41.4 M-7.2 0.95 L-1.55 1.2 -1.7 4.5 -6.95 4.1 -6.95 4.0 -7.0 4.1 -6.95 4.1 -8.4 8.8 -8.75 4.65 -9.15 1.05 -9.15 0.85 -7.2 0.95" fill="#c79b68" fill-rule="evenodd" stroke="none"/>
      <path d="M6.2 1.65 L10.9 2.1 12.55 2.2 12.45 4.65 12.4 5.75 -1.7 4.5 -1.7 4.65 -1.95 7.1 Q-3.5 11.25 -3.9 14.3 -4.0 14.85 -6.1 18.8 L-6.2 19.15 -6.25 19.15 -8.3 22.75 -8.1 19.15 -8.1 18.5 Q-7.95 14.3 -8.4 8.8 L-6.95 4.1 -7.0 4.1 -6.95 4.0 -6.95 4.1 -1.7 4.5 -1.55 1.2 6.2 1.65 M7.95 25.9 L7.9 25.75 8.0 25.5 7.95 25.9 M8.25 21.65 L4.8 25.85 4.1 25.7 2.5 26.8 2.1 26.3 4.0 23.3 5.85 19.15 Q6.9 16.55 7.75 13.55 L9.3 6.85 Q10.45 12.85 8.45 18.8 L8.35 19.15 7.9 20.35 8.2 21.25 8.25 21.65" fill="#d5a675" fill-rule="evenodd" stroke="none"/>
      <path d="M12.4 5.75 L12.25 8.4 11.3 19.15 11.25 19.45 11.1 20.75 10.4 25.25 10.3 25.8 10.15 26.75 9.95 27.7 9.9 27.65 8.75 31.45 7.85 33.45 6.6 35.6 6.85 33.7 Q7.8 31.1 5.7 29.9 L5.05 29.6 4.45 30.1 3.45 29.55 3.75 28.7 Q3.85 28.05 3.6 27.7 L3.05 27.25 2.7 27.2 2.5 26.8 4.1 25.7 4.8 25.85 4.15 26.7 4.55 28.5 Q5.5 29.7 7.0 29.0 8.55 28.3 8.75 26.25 L7.95 25.9 8.0 25.5 9.4 23.4 9.25 22.6 8.95 22.15 8.8 21.85 8.25 21.65 8.2 21.25 7.9 20.35 8.35 19.15 8.45 18.8 Q10.45 12.85 9.3 6.85 L7.75 13.55 Q6.9 16.55 5.85 19.15 L4.0 23.3 2.1 26.3 -0.3 26.05 -1.55 29.7 -2.3 29.8 Q-2.65 30.0 -2.7 30.35 L-3.25 30.6 -3.5 29.15 -4.35 28.25 -5.85 28.85 -7.2 28.25 -8.35 28.25 -8.85 26.4 -9.5 27.45 -9.15 26.5 -8.5 24.75 -8.5 24.7 -8.3 22.75 -6.25 19.15 -6.2 19.15 -6.1 18.8 Q-4.0 14.85 -3.9 14.3 -3.5 11.25 -1.95 7.1 L-1.7 4.65 -1.7 4.5 12.4 5.75 M-9.6 27.65 L-9.65 27.65 -9.55 27.55 -9.6 27.65 M-3.0 23.05 L-3.3 22.65 Q-4.55 22.15 -5.65 22.9 L-5.9 23.2 -6.1 24.6 Q-6.2 25.95 -5.35 26.75 L-4.45 27.6 Q-2.55 27.75 -1.85 25.95 L-1.8 25.25 Q-2.1 24.0 -3.0 23.05" fill="#e2b181" fill-rule="evenodd" stroke="none"/>
      <path d="M4.55 37.6 L4.5 37.65 4.45 37.65 3.6 37.45 2.7 34.8 0.25 36.55 -3.1 39.3 -3.3 38.6 -2.65 36.65 -0.45 34.0 0.5 33.3 4.55 32.95 4.45 30.1 5.05 29.6 5.7 29.9 Q7.8 31.1 6.85 33.7 L6.05 34.35 5.1 34.35 5.2 36.3 4.55 37.6 M8.95 22.15 L5.6 28.4 4.55 28.5 4.15 26.7 4.8 25.85 8.25 21.65 8.8 21.85 8.95 22.15 M2.7 27.2 L3.05 27.25 3.6 27.7 Q3.85 28.05 3.75 28.7 L3.45 29.55 2.95 29.9 2.25 29.85 2.05 27.7 2.05 27.55 2.7 27.2 M2.05 30.05 L2.7 30.45 2.6 31.75 1.45 31.55 1.25 30.3 2.05 30.05 M-0.05 30.55 Q-1.35 32.0 -3.05 32.3 L-3.95 32.45 -4.0 31.45 -2.7 31.0 -2.7 30.35 Q-2.65 30.0 -2.3 29.8 L-1.55 29.7 -0.3 29.85 -0.05 30.55 M-6.1 24.6 L-5.9 23.2 -5.65 22.9 Q-4.55 22.15 -3.3 22.65 L-3.0 23.05 -2.55 24.7 -3.15 25.9 -6.0 25.3 -6.1 24.6 M-5.85 28.85 L-5.45 29.45 -5.55 30.8 -5.1 30.9 -4.75 31.7 -5.9 33.55 -4.65 35.25 -5.4 35.95 Q-8.05 33.25 -8.7 29.1 L-8.2 28.35 -7.2 28.25 -5.85 28.85" fill="#ff0000" fill-rule="evenodd" stroke="none"/>
      <path d="M6.6 35.6 Q6.45 36.55 5.85 37.15 5.25 37.7 4.55 37.6 L5.2 36.3 5.1 34.35 6.05 34.35 6.85 33.7 6.6 35.6 M4.45 37.65 L3.25 38.05 3.6 37.45 4.45 37.65 M-2.65 36.65 L-4.2 36.7 Q-10.45 35.0 -9.6 27.65 L-9.55 27.55 -9.55 27.5 -9.5 27.45 -8.85 26.4 -8.35 28.25 -7.2 28.25 -8.2 28.35 -8.7 29.1 Q-8.05 33.25 -5.4 35.95 L-4.65 35.25 -5.9 33.55 -4.75 31.7 -5.1 30.9 -5.55 30.8 -5.45 29.45 -5.85 28.85 -4.35 28.25 -3.5 29.15 -3.25 30.6 -2.7 30.35 -2.7 31.0 -4.0 31.45 -3.95 32.45 -3.35 33.2 Q-2.15 34.6 -0.45 34.0 L-2.65 36.65 M8.95 22.15 L9.25 22.6 9.4 23.4 8.0 25.5 7.9 25.75 7.95 25.9 8.75 26.25 Q8.55 28.3 7.0 29.0 5.5 29.7 4.55 28.5 L5.6 28.4 8.95 22.15 M2.1 26.3 L2.5 26.8 2.7 27.2 2.05 27.55 2.05 27.7 2.25 29.85 2.95 29.9 3.45 29.55 4.45 30.1 4.55 32.95 0.5 33.3 1.2 31.1 0.95 30.7 -0.05 30.55 -0.3 29.85 -1.55 29.7 -0.3 26.05 2.1 26.3 M2.05 30.05 L1.25 30.3 1.45 31.55 2.6 31.75 2.7 30.45 2.05 30.05 M-6.1 24.6 L-6.0 25.3 -3.15 25.9 -2.55 24.7 -3.0 23.05 Q-2.1 24.0 -1.8 25.25 L-1.85 25.95 Q-2.55 27.75 -4.45 27.6 L-5.35 26.75 Q-6.2 25.95 -6.1 24.6" fill="#990000" fill-rule="evenodd" stroke="none"/>
      <path d="M3.25 38.05 Q1.3 40.95 -1.95 40.45 L-2.75 40.25 -3.1 39.3 0.25 36.55 2.7 34.8 3.6 37.45 3.25 38.05 M-0.05 30.55 L0.95 30.7 1.2 31.1 0.5 33.3 -0.45 34.0 Q-2.15 34.6 -3.35 33.2 L-3.95 32.45 -3.05 32.3 Q-1.35 32.0 -0.05 30.55" fill="#ffffff" fill-rule="evenodd" stroke="none"/>
      <path d="M10.65 -39.35 L10.85 -38.8 Q11.2 -37.65 11.0 -36.5 L11.0 -36.45 Q10.8 -35.35 9.0 -31.3 L7.15 -27.35 6.95 -26.3 7.85 -26.6 8.65 -26.8 9.3 -26.7 6.45 -21.3 Q5.1 -18.85 4.45 -16.85 L4.1 -15.65 4.3 -15.6 5.0 -16.95 Q6.15 -18.75 8.55 -19.55 8.2 -19.3 7.75 -17.5 L7.35 -15.45 Q6.85 -12.75 6.2 1.65 L-1.55 1.2 -7.2 0.95 Q-6.85 -7.2 -9.45 -15.6 L-12.4 -25.6 -12.9 -27.35 -12.9 -28.15 -13.0 -28.8 Q-13.45 -32.1 -12.95 -34.8 L-12.95 -34.85 Q-12.3 -38.1 -9.75 -41.2 L-9.6 -41.35 -9.55 -41.4 Q-7.05 -44.4 -1.4 -44.0 4.5 -43.7 9.2 -40.4 L9.8 -40.0 10.65 -39.35" fill="#274f77" fill-rule="evenodd" stroke="none"/>
      <path d="M6.2 1.65 Q6.85 -12.75 7.35 -15.45 L7.75 -17.5 Q8.2 -19.3 8.55 -19.55 6.15 -18.75 5.0 -16.95 L4.3 -15.6 4.1 -15.65 4.45 -16.85 Q5.1 -18.85 6.45 -21.3 L9.3 -26.7 8.65 -26.8 7.85 -26.6 6.95 -26.3 7.15 -27.35 9.0 -31.3 Q10.8 -35.35 11.0 -36.45 L11.0 -36.5 Q11.2 -37.65 10.85 -38.8 L10.65 -39.35 Q12.7 -37.7 13.55 -36.0 13.7 -34.6 13.35 -32.5 L13.25 -32.1 11.85 -26.9 11.5 -18.6 11.35 -13.75 10.9 2.1 6.2 1.65 M-12.9 -27.35 L-12.4 -25.6 -9.45 -15.6 Q-6.85 -7.2 -7.2 0.95 L-9.15 0.85 -9.6 0.8 Q-10.2 -4.2 -10.6 -11.2 -11.1 -16.05 -12.8 -20.95 L-12.9 -27.35" fill="#2b5682" fill-rule="evenodd" stroke="none"/>
      <path d="M10.9 2.1 L11.35 -13.75 11.5 -18.6 11.85 -26.9 13.25 -32.1 13.35 -32.5 Q13.7 -34.6 13.55 -36.0 14.1 -35.0 14.05 -33.9 L14.3 -24.2 14.5 -9.2 14.6 -5.35 14.25 2.35 12.55 2.2 10.9 2.1 M-9.6 0.8 L-11.7 0.7 -12.1 -4.75 -12.7 -17.6 -12.8 -20.95 Q-11.1 -16.05 -10.6 -11.2 -10.2 -4.2 -9.6 0.8" fill="#466f99" fill-rule="evenodd" stroke="none"/>
    </g>
  </defs>
</svg>
