<?xml version="1.0" encoding="UTF-8" standalone="no"?>
<svg xmlns:ffdec="https://www.free-decompiler.com/flash" xmlns:xlink="http://www.w3.org/1999/xlink" ffdec:objectType="frame" height="41.15px" width="43.5px" xmlns="http://www.w3.org/2000/svg">
  <g transform="matrix(1.0, 0.0, 0.0, 1.0, 21.9, 25.7)">
    <use ffdec:characterId="569" height="22.95" id="m0" transform="matrix(1.0, 0.0, 0.0, 1.0, -12.0, -25.7)" width="25.0" xlink:href="#sprite0"/>
    <use ffdec:characterId="571" height="27.65" id="m1" transform="matrix(1.0, 0.0, 0.0, 1.0, 6.85, -14.35)" width="13.35" xlink:href="#sprite1"/>
    <use ffdec:characterId="573" height="24.75" id="m2" transform="matrix(1.0, 0.0, 0.0, 1.0, -7.55, -9.3)" width="18.15" xlink:href="#sprite2"/>
    <use ffdec:characterId="575" height="27.75" id="m3" transform="matrix(1.0, 0.0, 0.0, 1.0, -17.7, -13.75)" width="17.05" xlink:href="#sprite3"/>
    <use ffdec:characterId="552" height="10.0" id="c3" transform="matrix(1.6944, 0.0, 0.0, 1.6944, -21.9218, -5.9218)" width="10.0" xlink:href="#sprite4"/>
    <use ffdec:characterId="552" height="10.0" id="c0" transform="matrix(1.4202, 0.0, 0.0, 1.4202, -6.6008, -19.8508)" width="10.0" xlink:href="#sprite4"/>
    <use ffdec:characterId="552" height="10.0" id="c1" transform="matrix(1.3574, 0.0, 0.0, 1.3574, 8.0132, -7.0868)" width="10.0" xlink:href="#sprite4"/>
    <use ffdec:characterId="552" height="10.0" id="c2" transform="matrix(1.6758, 0.0, 0.0, 1.6758, -5.5788, -4.4288)" width="10.0" xlink:href="#sprite4"/>
  </g>
  <defs>
    <g id="sprite0" transform="matrix(1.0, 0.0, 0.0, 1.0, 12.5, 12.55)">
      <use ffdec:characterId="568" height="22.95" transform="matrix(1.0, 0.0, 0.0, 1.0, -12.5, -12.55)" width="25.0" xlink:href="#shape0"/>
    </g>
    <g id="shape0" transform="matrix(1.0, 0.0, 0.0, 1.0, 12.5, 12.55)">
      <path d="M3.2 -12.15 L3.5 -11.8 4.15 -10.55 4.55 -10.35 4.9 -9.35 3.7 -8.3 4.25 -9.45 3.95 -9.95 1.25 -6.85 3.4 -10.05 3.4 -10.5 -0.55 -5.1 3.05 -10.65 3.2 -10.9 3.3 -10.8 3.2 -12.15" fill="#bfaca1" fill-rule="evenodd" stroke="none"/>
      <path d="M3.5 -11.8 L5.05 -10.9 5.3 -8.4 4.45 -7.6 2.6 -7.75 0.95 -4.3 0.7 -3.8 -0.55 -4.5 -3.3 -4.25 -3.65 -4.75 -1.85 -7.05 0.0 -9.45 2.75 -12.55 3.2 -12.15 0.85 -10.2 -0.15 -9.2 -1.0 -8.0 -1.7 -6.7 -2.2 -5.35 0.0 -8.4 -1.6 -5.1 2.0 -9.75 3.05 -10.65 -0.55 -5.1 3.4 -10.5 3.4 -10.05 1.25 -6.85 3.95 -9.95 4.25 -9.45 3.7 -8.3 4.9 -9.35 4.55 -10.35 4.15 -10.55 3.5 -11.8" fill="#837b72" fill-rule="evenodd" stroke="none"/>
      <path d="M3.2 -12.15 L3.3 -10.8 3.2 -10.9 3.05 -10.65 2.0 -9.75 -1.6 -5.1 0.0 -8.4 -2.2 -5.35 -1.7 -6.7 -1.0 -8.0 -0.15 -9.2 0.85 -10.2 3.2 -12.15" fill="#e9d3be" fill-rule="evenodd" stroke="none"/>
      <path d="M0.95 -4.3 L2.9 -5.0 5.35 -4.2 6.05 -4.95 9.25 -4.85 Q11.0 -4.8 12.05 -3.85 L11.55 -2.45 Q10.35 -3.4 9.0 -3.55 L6.55 -3.95 5.95 -3.65 8.5 1.5 7.1 2.05 6.4 0.1 6.55 0.7 Q5.9 -1.0 4.9 -2.4 L3.5 -3.95 0.5 -2.85 1.65 2.3 0.0 2.35 -0.05 2.2 -1.25 -2.8 -3.0 -3.1 -4.65 -3.2 Q-6.25 -2.65 -7.4 -1.1 L-8.15 -1.9 -10.5 -1.55 -12.35 -2.75 -12.5 -2.85 -11.4 -3.25 -11.0 -3.5 Q-9.75 -4.55 -8.1 -4.85 L-7.05 -4.95 -6.65 -4.6 -3.65 -4.75 -3.3 -4.25 -0.55 -4.5 0.7 -3.8 0.95 -4.3" fill="#e57128" fill-rule="evenodd" stroke="none"/>
      <path d="M2.45 -2.3 L2.05 -2.45 2.05 -3.2 3.5 -3.2 4.6 -0.7 2.8 -2.6 2.45 -2.3 M2.95 2.25 L3.1 1.75 3.95 1.05 4.65 1.55 5.2 1.5 5.6 2.05 6.25 1.0 6.55 2.15 2.95 2.25 M2.65 2.25 L2.0 2.25 1.6 -0.3 2.65 2.25 M0.0 2.35 L-2.05 2.1 -1.55 1.6 -0.95 2.05 -0.65 1.5 -0.05 2.2 0.0 2.35 M-2.45 2.0 L-4.55 1.45 -3.4 0.3 -2.45 2.0 M-6.2 0.1 L-6.5 -0.2 -5.95 -1.1 -2.4 -2.55 -1.75 -1.1 -2.15 -0.75 -2.9 -1.1 -4.2 -0.25 -4.6 -0.65 -6.2 0.1" fill="#ff8c3f" fill-rule="evenodd" stroke="none"/>
      <path d="M6.1 5.15 L5.05 5.9 4.5 6.2 3.6 5.95 3.4 5.8 3.3 6.0 3.3 6.5 2.3 6.75 1.75 9.0 1.45 7.0 1.4 7.45 0.35 6.55 0.25 6.8 -0.4 6.85 0.15 8.65 0.5 7.85 1.2 8.25 -0.05 9.25 Q-0.4 9.05 -0.7 8.9 L-0.7 9.05 -1.55 8.8 -0.35 8.6 -0.8 7.1 -0.95 6.7 -0.9 6.6 -2.05 5.65 -1.55 6.95 -1.65 7.9 -2.2 8.35 -1.85 7.0 -2.3 8.05 -2.85 6.45 -2.95 6.45 -3.0 5.65 Q-3.85 5.7 -3.9 6.55 L-4.3 7.15 -4.65 5.75 -4.15 5.05 -4.85 4.7 -4.95 4.65 -5.2 4.55 -5.2 4.65 -5.6 4.9 -5.75 5.05 -6.25 4.65 -6.4 3.85 -7.55 3.4 -6.05 7.0 Q-7.05 5.05 -8.2 3.25 -9.15 1.75 -10.25 0.4 L-8.3 2.45 -9.25 0.55 -9.05 0.6 -8.15 1.8 -8.15 1.1 -7.65 1.55 -6.3 3.8 -6.2 2.95 -4.65 3.8 -3.85 4.8 -3.35 4.2 -2.95 4.3 -3.1 4.4 -2.65 4.8 -2.05 4.5 -1.6 4.6 -2.0 5.2 -0.95 4.75 -0.9 4.8 -0.75 4.8 -0.4 5.4 -0.3 5.5 -0.7 4.8 0.4 4.95 0.5 4.9 0.55 5.0 0.75 5.0 0.7 5.05 1.4 5.05 4.05 5.2 2.5 5.65 5.1 5.2 6.1 5.15 M-0.2 10.25 L-0.3 10.4 -0.25 10.2 -0.2 10.25 M-5.2 6.15 L-5.25 7.0 -5.45 6.25 -5.2 6.15 M2.45 -2.3 L2.8 -2.6 4.6 -0.7 3.5 -3.2 2.05 -3.2 2.05 -2.45 2.45 -2.3 M1.65 2.3 L0.5 -2.85 3.5 -3.95 4.9 -2.4 Q5.9 -1.0 6.55 0.7 L6.8 2.15 6.55 2.15 6.25 1.0 5.6 2.05 5.2 1.5 4.65 1.55 3.95 1.05 3.1 1.75 2.95 2.25 2.65 2.25 1.6 -0.3 2.0 2.25 1.65 2.3 M8.5 1.5 L5.95 -3.65 6.55 -3.95 9.0 -3.55 Q10.35 -3.4 11.55 -2.45 L11.15 -1.4 10.65 -2.0 11.05 -1.1 10.3 0.85 Q10.15 0.6 9.95 0.6 L9.9 0.7 9.45 0.95 Q9.35 1.0 9.4 1.15 L8.5 1.5 M-2.05 2.1 L-2.45 2.0 -3.4 0.3 -4.55 1.45 -4.9 1.3 -6.2 0.1 -4.6 -0.65 -4.2 -0.25 -2.9 -1.1 -2.15 -0.75 -1.75 -1.1 -2.4 -2.55 -5.95 -1.1 -6.5 -0.2 -7.4 -1.1 Q-6.25 -2.65 -4.65 -3.2 L-3.0 -3.1 -1.25 -2.8 -0.05 2.2 -0.65 1.5 -0.95 2.05 -1.55 1.6 -2.05 2.1 M-0.9 4.8 L-1.55 5.45 -0.85 5.9 -0.9 4.8 M1.6 6.1 L1.35 6.0 1.1 6.1 1.0 6.35 1.1 6.6 1.35 6.7 1.6 6.6 1.7 6.35 1.6 6.1 M0.1 6.35 Q0.3 5.6 0.0 6.25 L0.0 5.7 -0.6 5.7 -0.6 6.25 -0.15 6.45 0.1 6.35 M-4.1 5.2 L-4.2 6.05 -3.5 5.5 -4.1 5.2 M-7.4 2.9 L-7.4 2.8 Q-7.85 2.6 -7.4 2.9 M-6.1 3.95 L-5.6 4.9 -6.2 3.4 -6.1 3.95" fill="#ef7f33" fill-rule="evenodd" stroke="none"/>
      <path d="M12.05 -3.85 L12.5 -3.6 Q12.55 -1.35 11.95 0.65 11.35 2.65 9.8 3.65 L7.95 4.6 6.1 5.15 5.1 5.2 4.05 5.2 1.4 5.05 0.75 5.0 0.55 5.0 0.5 4.9 0.4 4.95 -0.7 4.8 -0.75 4.8 -0.9 4.8 -0.95 4.75 -1.6 4.6 -2.05 4.5 -2.95 4.3 -3.35 4.2 -4.65 3.8 -6.2 2.95 -7.65 1.55 -8.15 1.1 -9.05 0.6 -9.25 0.55 -10.25 0.4 Q-12.25 0.1 -12.4 -1.95 L-12.35 -2.75 -10.5 -1.55 -8.15 -1.9 -7.4 -1.1 -6.5 -0.2 -6.2 0.1 -4.9 1.3 -4.55 1.45 -2.45 2.0 -2.05 2.1 0.0 2.35 1.65 2.3 2.0 2.25 2.65 2.25 2.95 2.25 6.55 2.15 6.8 2.15 7.1 2.05 8.5 1.5 9.4 1.15 Q9.35 1.0 9.45 0.95 L9.9 0.7 9.95 0.6 Q10.15 0.6 10.3 0.85 L11.05 -1.1 10.65 -2.0 11.15 -1.4 11.55 -2.45 12.05 -3.85" fill="#ffc670" fill-rule="evenodd" stroke="none"/>
      <path d="M6.55 0.7 L6.4 0.1 7.1 2.05 6.8 2.15 6.55 0.7" fill="#ffa966" fill-rule="evenodd" stroke="none"/>
      <path d="M4.5 6.2 L4.7 6.9 Q4.8 7.4 4.2 7.35 L3.9 7.15 3.3 6.5 3.3 6.0 3.4 5.8 3.6 5.95 4.5 6.2 M1.4 7.45 L1.45 7.65 Q1.6 7.95 1.2 8.25 L0.5 7.85 0.25 6.8 0.35 6.55 1.4 7.45 M-0.05 9.25 L0.05 9.35 Q0.6 9.55 0.55 10.25 L-0.2 10.25 -0.25 10.2 -0.7 9.7 -0.7 9.05 -0.7 8.9 Q-0.4 9.05 -0.05 9.25 M-0.8 7.1 L-0.85 7.75 -1.0 7.9 Q-1.4 8.45 -1.65 7.9 L-1.55 6.95 -1.45 6.75 -0.95 6.7 -0.8 7.1 M-2.95 6.45 L-3.0 6.9 -3.35 7.1 -3.7 6.95 -3.9 6.55 Q-3.85 5.7 -3.0 5.65 L-2.95 6.45 M-4.85 4.7 L-4.75 5.2 Q-4.8 5.65 -5.2 6.15 L-5.45 6.25 -5.65 6.2 Q-6.35 5.8 -5.75 5.05 L-5.6 4.9 -5.2 4.65 -4.95 4.65 -4.85 4.7" fill="#e5cea4" fill-rule="evenodd" stroke="none"/>
    </g>
    <g id="sprite1" transform="matrix(1.0, 0.0, 0.0, 1.0, 6.65, 13.85)">
      <use ffdec:characterId="570" height="27.65" transform="matrix(1.0, 0.0, 0.0, 1.0, -6.65, -13.85)" width="13.35" xlink:href="#shape1"/>
    </g>
    <g id="shape1" transform="matrix(1.0, 0.0, 0.0, 1.0, 6.65, 13.85)">
      <path d="M2.35 -9.05 L3.4 -7.55 Q5.3 -4.65 5.75 -1.4 6.25 2.6 4.75 6.65 L3.85 8.25 -1.5 12.0 Q1.1 9.55 2.15 6.0 L2.75 3.35 Q3.4 -0.5 2.05 -4.4 L3.25 -1.5 3.1 -4.55 3.0 -4.0 1.75 -6.8 2.35 -9.05 M1.95 1.45 L1.45 4.75 -0.4 0.55 0.4 0.8 0.75 2.8 1.4 2.9 1.95 1.45 M1.4 4.8 Q1.4 7.6 0.15 9.6 -1.15 11.6 -2.95 11.6 L-1.55 9.85 1.4 4.8" fill="#e57128" fill-rule="evenodd" stroke="none"/>
      <path d="M2.05 -4.4 Q3.4 -0.5 2.75 3.35 L2.15 6.0 Q1.1 9.55 -1.5 12.0 L3.85 8.25 4.75 6.65 Q6.25 2.6 5.75 -1.4 5.3 -4.65 3.4 -7.55 L2.35 -9.05 -1.05 -12.35 -0.5 -13.85 Q3.15 -10.95 5.4 -5.75 7.5 -0.85 6.2 4.0 5.6 6.25 4.5 8.35 L3.05 10.2 -1.55 13.65 -2.5 13.7 -3.2 13.55 -4.55 13.8 -2.95 11.6 Q-1.15 11.6 0.15 9.6 1.4 7.6 1.4 4.8 L1.45 4.75 1.95 1.45 2.0 0.9 1.95 -1.55 1.55 -3.85 -1.55 -11.0 -1.4 -11.2 0.0 -9.2 2.05 -4.4" fill="#d45d23" fill-rule="evenodd" stroke="none"/>
      <path d="M2.35 -9.05 L1.75 -6.8 -0.15 -9.6 0.0 -9.2 -1.4 -11.2 -1.45 -11.3 -1.05 -12.35 2.35 -9.05 M-1.55 -11.0 L1.55 -3.85 -0.4 -4.05 -0.9 -4.4 -1.25 -2.15 -2.35 -6.4 -1.65 -5.55 -1.4 -6.85 -1.55 -8.65 -1.6 -8.0 -2.3 -9.05 -1.55 -11.0 M-4.6 -5.75 L-4.45 -5.25 -4.55 -4.05 -4.35 -4.9 -4.15 -4.35 -4.2 -3.45 -3.7 -3.1 -1.85 2.35 -2.15 3.7 -1.95 4.3 -2.0 4.8 -2.3 4.3 -2.05 5.2 -2.4 8.0 -3.2 6.6 -4.8 6.4 -3.25 6.4 -3.9 5.25 -4.15 4.25 -4.55 4.45 -4.7 4.9 -5.45 4.75 -6.65 6.15 -5.75 4.55 -6.5 3.9 -5.1 3.9 -5.75 3.1 -4.55 3.4 -4.1 3.3 -3.95 3.1 -4.25 1.45 -3.35 2.7 -3.5 2.05 -2.8 2.15 -2.45 2.8 -2.25 1.85 -2.7 1.25 -3.35 1.15 -3.1 1.6 -3.95 1.15 -5.7 -1.75 -5.55 -2.65 -4.85 -0.95 -4.55 -0.3 Q-4.3 -0.05 -3.95 -0.05 L-3.95 0.05 -3.85 -0.2 -3.8 -0.75 -4.1 -1.1 -4.45 -2.2 -4.45 -1.4 -4.6 -1.55 -4.55 -2.3 -6.35 -4.2 -4.55 -2.9 -5.0 -4.6 -4.6 -5.75 M-2.5 8.45 L-2.8 8.85 -3.5 8.5 -3.25 9.45 -3.45 9.7 -3.9 9.15 -6.3 10.65 -4.2 8.7 -4.95 7.15 -3.8 8.35 -4.0 7.5 -2.9 7.6 -3.0 7.65 -3.0 7.75 -2.5 8.45 M-3.35 -1.3 L-4.0 -1.7 -3.3 -0.6 -3.95 -1.35 -2.9 0.55 -3.35 -1.3 M-5.6 1.15 L-5.45 2.2 -5.2 2.35 -5.2 2.45 -4.95 2.95 -5.95 1.9 -5.6 1.05 -5.6 1.15 M-2.5 2.9 L-2.9 2.5 -2.65 3.45 -2.5 2.9" fill="#ef7f33" fill-rule="evenodd" stroke="none"/>
      <path d="M1.75 -6.8 L3.0 -4.0 3.1 -4.55 3.25 -1.5 2.05 -4.4 0.0 -9.2 -0.15 -9.6 1.75 -6.8 M1.55 -3.85 L1.95 -1.55 2.0 0.9 1.95 1.45 1.4 2.9 0.75 2.8 0.4 0.8 -0.4 0.55 -0.9 -0.6 -1.25 -2.15 -0.9 -4.4 -0.4 -4.05 1.55 -3.85 M-2.3 -9.05 L-1.6 -8.0 -1.55 -8.65 -1.4 -6.85 -1.65 -5.55 -2.35 -6.4 -2.95 -8.85 -2.3 -9.05" fill="#ff8c3f" fill-rule="evenodd" stroke="none"/>
      <path d="M-1.4 -11.2 L-1.55 -11.0 -2.3 -9.05 -2.95 -8.85 -2.35 -6.4 -1.25 -2.15 -0.9 -0.6 -0.4 0.55 1.45 4.75 1.4 4.8 -1.55 9.85 -2.95 11.6 -4.55 13.8 -4.7 13.75 -4.7 13.45 -5.05 12.6 -5.3 12.15 -5.2 12.1 -3.45 9.7 -3.25 9.45 -2.8 8.85 -2.5 8.45 -2.45 8.35 -2.4 8.0 -2.05 5.2 -2.0 4.8 -1.95 4.3 -1.75 2.65 -1.85 2.35 -3.7 -3.1 -4.15 -4.35 -4.35 -4.9 -4.45 -5.25 -4.6 -5.75 -5.55 -8.55 -4.55 -9.4 -3.65 -10.8 -3.2 -12.1 -3.1 -13.05 -2.9 -13.5 -0.5 -13.85 -1.05 -12.35 -1.45 -11.3 -1.4 -11.2" fill="#ffc670" fill-rule="evenodd" stroke="none"/>
      <path d="M-3.95 1.15 L-3.1 1.6 Q-2.75 1.8 -2.75 1.9 L-2.8 2.15 -3.5 2.05 -4.15 1.5 -4.15 1.1 -3.95 1.15 M-3.95 3.1 L-4.1 3.3 -4.55 3.4 -4.95 2.95 -5.2 2.45 -5.2 2.35 Q-5.15 1.3 -3.95 3.1 M-4.7 4.9 L-4.55 4.45 -4.15 4.25 -3.9 5.25 Q-4.5 5.25 -4.7 4.9 M-4.85 -0.95 L-4.85 -1.1 -4.7 -1.6 -4.6 -1.55 -4.45 -1.4 -4.1 -1.1 -3.8 -0.75 -3.85 -0.2 -3.95 -0.05 Q-4.3 -0.05 -4.55 -0.3 L-4.85 -0.95 M-5.6 1.05 L-6.05 0.1 Q-6.05 -1.2 -5.6 -0.5 L-5.0 0.85 -5.0 1.3 -5.25 1.4 -5.6 1.15 -5.6 1.05" fill="#e5cea4" fill-rule="evenodd" stroke="none"/>
    </g>
    <g id="sprite2" transform="matrix(1.0, 0.0, 0.0, 1.0, 9.95, 12.35)">
      <use ffdec:characterId="572" height="24.75" transform="matrix(1.0, 0.0, 0.0, 1.0, -9.95, -12.35)" width="18.15" xlink:href="#shape2"/>
    </g>
    <g id="shape2" transform="matrix(1.0, 0.0, 0.0, 1.0, 9.95, 12.35)">
      <path d="M2.9 -10.8 L3.75 -11.1 4.0 -9.6 4.6 -8.8 5.7 -4.5 5.6 -4.05 3.5 -8.9 3.25 -9.7 2.9 -10.8 M-3.95 -10.0 L-3.65 -10.05 -2.95 -10.05 -2.95 -10.0 -2.65 -10.0 -2.65 -10.05 0.95 -10.15 1.45 -10.25 3.2 -5.55 3.45 -4.3 3.25 -3.7 2.4 -3.9 1.85 -2.4 0.35 -2.7 0.25 -3.45 -0.05 -2.25 -0.8 -2.5 -0.9 -3.15 -1.55 -2.85 -1.9 0.9 -2.8 -0.15 -2.65 -2.85 -3.0 -4.8 -3.0 -5.05 -3.05 -5.05 -3.95 -10.0" fill="#ef7f33" fill-rule="evenodd" stroke="none"/>
      <path d="M-3.05 10.35 L-3.65 9.55 -3.0 -4.15 -4.05 -0.65 -3.85 0.85 -4.85 4.1 -7.9 0.4 -7.9 -2.35 -7.2 -3.9 -6.95 -3.2 -6.3 -6.0 -6.0 -6.7 -5.6 -5.55 -5.0 -7.45 -5.25 -8.4 -4.6 -10.0 -3.95 -10.0 -3.05 -5.05 -3.0 -5.05 -3.0 -4.8 -2.65 -2.85 -2.8 -0.15 -1.9 0.9 -1.55 -2.85 -0.9 -3.15 -0.8 -2.5 -0.05 -2.25 0.25 -3.45 0.35 -2.7 1.85 -2.4 2.4 -3.9 3.25 -3.7 3.45 -4.3 3.2 -5.55 1.45 -10.25 2.9 -10.8 3.25 -9.7 3.5 -8.9 5.6 -4.05 6.1 -3.0 8.2 1.95 8.2 2.7 5.45 7.45 4.0 9.2 4.0 8.85 3.4 8.75 1.85 9.7 2.15 9.15 2.7 8.3 3.65 6.05 4.4 3.2 4.65 1.7 4.95 -0.1 4.5 1.1 2.9 5.25 2.75 5.2 2.2 6.75 Q1.65 8.4 0.55 9.45 L-0.1 10.05 -0.8 10.4 -1.55 10.8 -1.8 11.05 -0.5 7.95 -3.05 10.35" fill="#e57128" fill-rule="evenodd" stroke="none"/>
      <path d="M3.75 -11.1 L3.85 -11.15 4.0 -11.25 4.6 -8.8 4.0 -9.6 3.75 -11.1 M5.6 -4.05 L5.7 -4.5 6.1 -3.0 5.6 -4.05" fill="#f29655" fill-rule="evenodd" stroke="none"/>
      <path d="M3.75 -11.1 L2.9 -10.8 1.45 -10.25 0.95 -10.15 -2.65 -10.05 -2.65 -10.0 -2.95 -10.0 -2.95 -10.05 -3.65 -10.05 -3.95 -10.0 -4.6 -10.0 -5.25 -8.4 -6.0 -6.7 -6.3 -6.0 -7.2 -3.9 -7.9 -2.35 -7.9 0.4 -4.85 4.1 -4.0 5.15 -3.65 9.55 -3.05 10.35 -1.75 11.9 -0.95 12.0 -2.05 12.1 -2.95 12.4 -5.4 10.3 -5.15 5.7 -9.95 0.35 -9.7 -2.7 -6.4 -11.2 -5.4 -11.1 0.85 -11.35 3.55 -12.35 3.85 -11.15 3.75 -11.1" fill="#ffc670" fill-rule="evenodd" stroke="none"/>
      <path d="M-0.95 12.0 L-1.75 11.9 -3.05 10.35 -0.5 7.95 -1.8 11.05 -1.55 10.8 -0.8 10.4 -0.1 10.05 0.55 9.45 Q1.65 8.4 2.2 6.75 L2.75 5.2 2.9 5.25 4.5 1.1 4.95 -0.1 4.65 1.7 4.4 3.2 3.65 6.05 2.7 8.3 2.15 9.15 1.85 9.7 3.4 8.75 4.0 8.85 4.0 9.2 2.25 11.45 -0.95 12.0 M-3.65 9.55 L-4.0 5.15 -4.85 4.1 -3.85 0.85 -4.05 -0.65 -3.0 -4.15 -3.65 9.55" fill="#d45d23" fill-rule="evenodd" stroke="none"/>
      <path d="M-7.2 -3.9 L-6.3 -6.0 -6.95 -3.2 -7.2 -3.9 M-6.0 -6.7 L-5.25 -8.4 -5.0 -7.45 -5.6 -5.55 -6.0 -6.7" fill="#ff8c3f" fill-rule="evenodd" stroke="none"/>
    </g>
    <g id="sprite3" transform="matrix(1.0, 0.0, 0.0, 1.0, 7.0, 15.35)">
      <use ffdec:characterId="574" height="27.75" transform="matrix(1.0, 0.0, 0.0, 1.0, -7.0, -15.35)" width="17.05" xlink:href="#shape3"/>
    </g>
    <g id="shape3" transform="matrix(1.0, 0.0, 0.0, 1.0, 7.0, 15.35)">
      <path d="M2.95 -10.0 L2.7 -10.1 0.1 -11.3 -0.4 -12.0 -1.3 -13.25 -1.55 -13.6 -2.15 -14.8 -1.7 -15.35 Q-0.85 -14.95 -0.15 -14.3 L2.5 -11.65 Q2.85 -11.35 3.3 -11.15 5.75 -9.75 7.7 -7.65 L5.3 -4.25 6.0 3.55 7.15 4.75 7.45 5.35 Q7.55 6.75 8.5 7.55 L8.85 7.6 Q9.55 7.7 9.75 8.3 10.15 9.75 10.05 11.25 L9.65 12.15 8.85 12.3 8.4 11.35 Q8.45 10.75 8.1 10.0 L7.4 8.5 6.75 6.9 6.45 5.45 Q6.15 4.8 5.7 4.8 L4.45 3.25 3.6 2.0 3.85 -2.05 Q4.3 -2.9 4.25 -3.7 L4.2 -4.3 4.4 -5.3 4.55 -5.65 6.95 -7.25 Q5.15 -7.65 4.1 -9.35 3.75 -9.95 2.95 -10.0" fill="#ffc670" fill-rule="evenodd" stroke="none"/>
      <path d="M2.7 -10.1 L2.95 -10.0 2.6 -9.35 2.7 -10.1 M4.4 -5.3 L4.2 -4.3 3.85 -2.05 3.6 2.0 3.7 4.4 4.2 7.65 4.45 4.15 5.15 9.05 4.55 9.15 2.35 7.8 1.4 4.65 0.0 -0.95 -0.45 3.1 -1.05 6.45 -1.3 7.05 -2.65 4.85 Q-3.1 3.95 -3.2 2.95 L-3.4 -1.35 -3.25 -4.6 -4.1 -3.65 -4.7 1.05 -6.1 -1.9 -6.45 -3.5 Q-6.4 -6.2 -5.75 -8.85 L-3.0 -13.65 -3.0 -12.65 -1.55 -13.6 -1.3 -13.25 -3.25 -10.25 -3.3 -8.6 -1.45 -10.0 -0.4 -12.0 0.1 -11.3 Q-2.15 -8.45 -1.9 -4.95 L-1.75 -4.05 -0.6 -3.75 Q0.7 -4.8 1.4 -6.3 L1.85 -7.3 Q1.5 -5.5 2.0 -4.0 L2.35 -3.0 2.85 -3.05 3.1 -2.65 4.65 -6.9 4.4 -5.3 M5.7 4.8 Q6.15 4.8 6.45 5.45 L6.75 6.9 5.7 4.8 M-3.6 -9.7 L-5.8 -1.65 -5.0 -0.8 -5.05 -1.5 -3.25 -10.25 -3.6 -9.7" fill="#e57128" fill-rule="evenodd" stroke="none"/>
      <path d="M2.95 -10.0 Q3.75 -9.95 4.1 -9.35 5.15 -7.65 6.95 -7.25 L4.55 -5.65 4.65 -6.9 3.1 -2.65 2.85 -3.05 2.35 -3.0 2.0 -4.0 Q1.5 -5.5 1.85 -7.3 L1.4 -6.3 Q0.7 -4.8 -0.6 -3.75 L-1.75 -4.05 -1.9 -4.95 Q-2.15 -8.45 0.1 -11.3 L2.7 -10.1 2.6 -9.35 2.95 -10.0 M-2.15 -14.8 L-1.55 -13.6 -3.0 -12.65 -3.0 -13.65 -2.4 -14.7 -2.15 -14.8 M-1.3 -13.25 L-0.4 -12.0 -1.45 -10.0 -3.3 -8.6 -3.25 -10.25 -1.3 -13.25" fill="#ef7f33" fill-rule="evenodd" stroke="none"/>
      <path d="M4.55 -5.65 L4.4 -5.3 4.65 -6.9 4.55 -5.65 M4.2 -4.3 L4.25 -3.7 Q4.3 -2.9 3.85 -2.05 L4.2 -4.3 M3.6 2.0 L4.45 3.25 4.45 4.15 4.2 7.65 3.7 4.4 3.6 2.0 M-3.6 -9.7 L-3.25 -10.25 -5.05 -1.5 -5.0 -0.8 -5.8 -1.65 -3.6 -9.7" fill="#ff964f" fill-rule="evenodd" stroke="none"/>
      <path d="M4.45 3.25 L5.7 4.8 6.75 6.9 7.4 8.5 8.1 10.0 Q8.45 10.75 8.4 11.35 L8.4 12.4 6.65 11.95 5.05 11.8 Q3.5 11.75 2.1 11.1 1.3 10.8 0.65 10.3 L0.15 10.45 -1.15 10.05 -1.65 9.75 -3.15 8.45 -4.0 7.3 -4.7 7.1 -6.45 2.1 Q-7.15 -0.35 -6.95 -2.8 -6.7 -5.85 -5.75 -8.85 -6.4 -6.2 -6.45 -3.5 L-6.1 -1.9 -4.7 1.05 -4.1 -3.65 -3.25 -4.6 -3.4 -1.35 -3.2 2.95 Q-3.1 3.95 -2.65 4.85 L-1.3 7.05 -1.05 6.45 -0.45 3.1 0.0 -0.95 1.4 4.65 2.35 7.8 4.55 9.15 5.15 9.05 4.45 4.15 4.45 3.25" fill="#d45d23" fill-rule="evenodd" stroke="none"/>
    </g>
    <g id="sprite4" transform="matrix(1.0, 0.0, 0.0, 1.0, 5.0, 5.0)">
      <use ffdec:characterId="551" height="10.0" transform="matrix(1.0, 0.0, 0.0, 1.0, -5.0, -5.0)" width="10.0" xlink:href="#shape4"/>
    </g>
    <g id="shape4" transform="matrix(1.0, 0.0, 0.0, 1.0, 5.0, 5.0)">
      <path d="M3.55 -3.5 Q5.0 -2.05 5.0 0.0 5.0 2.05 3.55 3.55 2.05 5.0 0.0 5.0 -2.05 5.0 -3.55 3.55 -5.0 2.05 -5.0 0.0 -5.0 -2.05 -3.55 -3.5 -2.05 -5.0 0.0 -5.0 2.05 -5.0 3.55 -3.5" fill="#ff00ff" fill-opacity="0.49803922" fill-rule="evenodd" stroke="none"/>
    </g>
  </defs>
</svg>
