<?xml version="1.0" encoding="UTF-8" standalone="no"?>
<svg xmlns:ffdec="https://www.free-decompiler.com/flash" xmlns:xlink="http://www.w3.org/1999/xlink" ffdec:objectType="frame" height="81.0px" width="45.3px" xmlns="http://www.w3.org/2000/svg">
  <g transform="matrix(1.0, 0.0, 0.0, 1.0, 18.9, 39.65)">
    <use ffdec:characterId="2449" height="61.45" transform="matrix(1.0, 0.0, 0.0, 1.0, -16.65, -39.65)" width="28.8" xlink:href="#shape0"/>
  </g>
  <defs>
    <g id="shape0" transform="matrix(1.0, 0.0, 0.0, 1.0, 16.65, 39.65)">
      <path d="M7.9 -10.85 L7.45 -7.1 7.0 -3.45 6.95 -2.65 6.7 1.25 6.6 3.1 6.7 8.5 6.2 8.15 Q5.6 8.45 5.35 9.0 L4.85 9.85 4.35 10.15 3.6 10.1 3.25 8.6 3.4 7.6 3.55 6.95 Q3.45 6.15 2.7 6.1 L2.65 5.65 2.5 6.05 1.8 6.15 Q0.3 6.55 0.35 7.8 L0.05 8.2 -0.35 7.75 -0.05 6.9 0.05 5.9 -0.2 4.5 Q-0.35 4.15 -0.9 4.5 L-1.4 4.4 -1.05 3.85 Q-0.4 3.1 -0.7 2.15 L-1.5 0.2 -3.15 0.25 -3.2 -1.2 -2.85 -5.6 -2.8 -6.3 -2.7 -6.3 -2.05 -8.25 -1.6 -9.15 -1.8 -9.25 -3.1 -15.2 -6.2 -10.85 -7.95 -8.45 -8.6 -8.6 Q-9.7 -9.2 -10.3 -10.35 L-8.4 -12.25 -6.75 -11.7 -4.15 -15.45 -5.95 -16.15 -6.5 -16.95 -7.1 -18.35 Q-7.4 -21.5 -4.75 -20.8 -2.1 -20.05 -1.95 -18.55 -1.85 -17.45 -2.1 -16.75 L-0.75 -15.9 -0.25 -15.45 0.85 -14.2 2.4 -11.6 3.2 -11.6 3.65 -10.85 3.65 -6.55 3.6 -6.15 3.55 -6.35 3.0 -10.05 2.05 -9.95 Q0.4 -9.3 0.3 -7.9 L1.5 -4.65 -0.15 -1.4 0.05 -0.65 Q0.5 0.75 2.25 0.55 L2.85 0.05 Q3.9 -0.95 3.65 -2.5 L3.7 -2.75 3.7 -3.0 3.8 -2.7 4.2 6.15 4.45 7.05 5.1 1.45 5.5 -2.45 5.85 -6.85 5.85 -6.9 Q6.9 -9.2 7.55 -11.6 L7.9 -10.85 M-6.4 7.05 L-6.95 3.15 Q-7.3 1.3 -7.8 -0.55 L-8.5 -2.9 -9.05 -4.7 -9.8 -7.5 -9.6 -7.45 -9.3 -6.95 -8.7 -4.8 -7.6 -0.55 -6.75 3.15 -6.55 4.3 -5.6 7.2 -6.4 7.05 M-4.25 8.25 Q-3.7 6.55 -3.45 4.7 L-2.25 4.75 -4.25 8.25" fill="#ffcc99" fill-rule="evenodd" stroke="none"/>
      <path d="M9.45 -27.35 L9.4 -23.0 9.3 -22.0 9.2 -22.0 Q7.7 -21.85 6.9 -22.65 6.35 -23.15 6.3 -23.7 6.0 -26.55 9.45 -27.35 M3.65 -10.85 L4.3 -9.75 4.75 -9.95 5.3 -14.55 5.75 -14.7 6.25 -14.55 7.55 -11.6 Q6.9 -9.2 5.85 -6.9 L5.85 -6.85 5.5 -2.45 5.1 1.45 4.45 7.05 4.2 6.15 3.8 -2.7 3.7 -3.0 3.7 -3.05 3.6 -6.15 3.65 -6.55 3.65 -10.85" fill="#ebbb98" fill-rule="evenodd" stroke="none"/>
      <path d="M6.7 8.5 L7.05 8.85 Q7.2 9.45 6.95 10.05 6.25 12.15 4.7 13.55 L4.5 11.85 5.15 12.35 5.95 11.5 4.35 10.15 4.85 9.85 5.35 9.0 Q5.6 8.45 6.2 8.15 L6.7 8.5 M2.15 17.4 Q1.85 17.55 1.5 17.65 L0.5 14.05 0.0 14.25 0.1 12.6 0.7 11.75 -0.25 10.55 0.35 9.85 -0.35 8.75 -1.55 8.5 -0.05 6.9 -0.35 7.75 0.05 8.2 0.35 7.8 1.05 9.1 3.4 7.6 3.25 8.6 Q2.95 9.45 3.2 10.05 L3.45 10.15 Q1.65 11.25 2.35 13.1 L2.95 12.55 2.5 14.4 Q3.25 14.95 3.3 15.9 L3.2 16.75 2.4 16.95 2.15 17.4 M-4.05 14.95 L-4.2 14.7 -4.0 14.65 -4.05 14.95 M-4.25 14.6 L-6.9 9.1 -5.2 11.1 -3.8 9.35 -4.25 8.65 -5.6 7.7 -6.4 7.4 -6.85 7.65 -6.4 7.05 -5.6 7.2 -4.25 8.25 -2.25 4.75 -3.45 4.7 Q-5.55 3.15 -4.3 1.2 L-3.8 0.7 -3.8 1.75 Q-3.6 3.45 -1.8 3.45 L-0.7 2.15 Q-0.4 3.1 -1.05 3.85 L-1.4 4.4 -0.9 4.5 Q-1.8 5.65 -2.35 7.25 L-2.85 9.2 -1.65 10.8 -4.3 13.6 -4.25 14.6 M3.6 -6.15 L3.7 -3.05 3.7 -3.0 3.7 -2.75 3.55 -6.35 3.6 -6.15 M0.3 -7.9 L2.1 -6.45 1.4 -1.1 2.65 -1.15 3.65 -2.5 Q3.9 -0.95 2.85 0.05 L2.25 0.55 Q0.5 0.75 0.05 -0.65 L-0.15 -1.4 1.5 -4.65 0.3 -7.9" fill="#990000" fill-rule="evenodd" stroke="none"/>
      <path d="M-0.5 16.6 L-0.25 17.1 -0.15 18.05 -0.55 19.85 Q-1.05 21.3 -2.5 21.75 -3.05 21.0 -2.6 19.9 -1.9 18.0 -0.5 16.6 M-4.2 14.7 L-4.25 14.7 -4.25 14.6 -4.3 13.6 -1.65 10.8 -2.85 9.2 -2.35 7.25 Q-1.8 5.65 -0.9 4.5 -0.35 4.15 -0.2 4.5 L0.05 5.9 -0.05 6.9 -1.55 8.5 -0.35 8.75 0.35 9.85 -0.25 10.55 0.7 11.75 0.1 12.6 -4.0 14.65 -4.2 14.7 M-6.9 9.1 L-6.85 7.65 -6.4 7.4 -5.6 7.7 -4.25 8.65 -3.8 9.35 -5.2 11.1 -6.9 9.1 M3.65 -2.5 L2.65 -1.15 1.4 -1.1 2.1 -6.45 0.3 -7.9 Q0.4 -9.3 2.05 -9.95 L3.0 -10.05 3.55 -6.35 3.7 -2.75 3.65 -2.5 M0.35 7.8 Q0.3 6.55 1.8 6.15 L2.5 6.05 2.7 6.1 Q3.45 6.15 3.55 6.95 L3.4 7.6 1.05 9.1 0.35 7.8 M4.5 11.85 L4.1 11.8 Q3.25 11.9 2.95 12.55 L2.35 13.1 Q1.65 11.25 3.45 10.15 L3.6 10.1 4.35 10.15 5.95 11.5 5.15 12.35 4.5 11.85 M-3.15 0.25 L-1.5 0.2 -0.7 2.15 -1.8 3.45 Q-3.6 3.45 -3.8 1.75 L-3.8 0.7 -3.15 0.25" fill="#ff0000" fill-rule="evenodd" stroke="none"/>
      <path d="M2.65 17.65 L2.25 17.55 2.15 17.4 2.4 16.95 2.65 17.65 M2.7 6.1 L2.5 6.05 2.65 5.65 2.7 6.1 M3.6 10.1 L3.45 10.15 3.2 10.05 Q2.95 9.45 3.25 8.6 L3.6 10.1 M-8.6 -8.6 L-7.95 -8.45 -6.2 -10.85 -3.1 -15.2 -1.8 -9.25 -1.6 -9.15 -2.05 -8.25 -2.7 -6.3 -2.8 -6.3 -2.85 -5.6 -3.2 -1.2 -3.15 0.25 -3.8 0.7 -4.3 1.2 Q-5.55 3.15 -3.45 4.7 -3.7 6.55 -4.25 8.25 L-5.6 7.2 -6.55 4.3 -6.75 3.15 -7.6 -0.55 -8.7 -4.8 -9.3 -6.95 -8.95 -6.35 -8.25 -6.55 -7.85 -8.3 -8.6 -8.6" fill="#f4c398" fill-rule="evenodd" stroke="none"/>
      <path d="M4.7 13.55 L4.25 18.8 3.75 19.15 2.65 17.65 2.4 16.95 3.2 16.75 3.3 15.9 Q3.25 14.95 2.5 14.4 L2.95 12.55 Q3.25 11.9 4.1 11.8 L4.5 11.85 4.7 13.55 M0.0 14.25 L-0.5 16.6 Q-1.9 18.0 -2.6 19.9 -3.05 21.0 -2.5 21.75 L-4.1 21.8 -4.05 14.95 -4.0 14.65 0.1 12.6 0.0 14.25" fill="#ffffff" fill-rule="evenodd" stroke="none"/>
      <path d="M-12.0 -23.6 L-12.0 -26.15 -11.05 -28.4 Q-10.95 -30.1 -7.55 -33.6 L-6.95 -34.2 -3.65 -36.75 Q-1.5 -38.1 1.15 -39.0 L1.55 -39.15 1.5 -38.95 Q1.15 -38.0 1.2 -37.15 1.25 -36.65 1.65 -35.95 L2.45 -34.7 2.95 -33.95 2.95 -33.9 Q4.45 -32.3 4.4 -29.95 L4.85 -29.65 Q6.15 -28.75 5.6 -26.95 4.85 -24.5 4.55 -21.95 L4.55 -19.65 Q4.15 -19.3 3.85 -18.25 L3.2 -11.6 2.4 -11.6 0.85 -14.2 1.3 -18.25 2.0 -21.0 2.15 -21.6 Q3.4 -23.85 3.3 -26.5 L3.1 -28.5 2.3 -28.65 0.05 -26.9 Q-1.15 -26.2 -2.5 -25.65 L-0.3 -27.6 0.9 -29.45 2.1 -32.15 -3.45 -31.2 -0.65 -36.75 -0.75 -37.2 -4.05 -32.55 -5.3 -30.2 -5.65 -29.35 -0.25 -30.35 Q-0.55 -29.25 -1.25 -28.45 -1.9 -27.7 -2.85 -27.25 -4.35 -26.4 -6.1 -26.6 L-6.4 -25.5 -4.1 -24.3 -3.95 -23.2 Q-1.7 -23.5 0.3 -24.7 0.9 -23.15 0.8 -21.75 L0.75 -21.05 0.75 -20.65 0.35 -18.8 0.25 -18.2 -0.25 -15.45 -0.75 -15.9 -2.1 -16.75 Q-1.85 -17.45 -1.95 -18.55 -2.1 -20.05 -4.75 -20.8 -7.4 -21.5 -7.1 -18.35 L-6.5 -16.95 -5.95 -16.15 -4.15 -15.45 -6.75 -11.7 -8.4 -12.25 -8.3 -17.5 -8.5 -19.65 -7.4 -23.6 -8.5 -24.0 -9.5 -23.65 -10.6 -23.5 -12.0 -23.6" fill="#727e94" fill-rule="evenodd" stroke="none"/>
      <path d="M1.55 -39.15 Q6.55 -40.65 8.6 -37.5 L10.0 -34.65 10.35 -33.5 10.9 -27.85 10.9 -27.55 10.0 -27.5 9.45 -27.35 Q6.0 -26.55 6.3 -23.7 6.35 -23.15 6.9 -22.65 7.7 -21.85 9.2 -22.0 L9.3 -22.0 Q9.95 -22.1 10.75 -23.15 L10.75 -22.6 10.7 -18.25 10.6 -15.7 12.15 -13.95 11.85 -13.2 9.55 -13.9 8.3 -9.95 7.9 -10.85 7.55 -11.6 6.25 -14.55 5.75 -14.7 5.3 -14.55 4.75 -9.95 4.3 -9.75 3.65 -10.85 3.2 -11.6 3.85 -18.25 Q4.15 -19.3 4.55 -19.65 L4.55 -21.95 Q4.85 -24.5 5.6 -26.95 6.15 -28.75 4.85 -29.65 L4.4 -29.95 Q4.45 -32.3 2.95 -33.9 L2.95 -33.95 2.45 -34.7 1.65 -35.95 Q1.25 -36.65 1.2 -37.15 1.15 -38.0 1.5 -38.95 L1.55 -39.15 M-9.8 -7.5 L-10.4 -7.6 Q-12.8 -5.2 -12.85 -2.05 L-13.5 -1.6 Q-14.55 -3.85 -16.65 -5.1 -12.35 -10.0 -11.9 -16.2 -11.8 -17.75 -11.85 -19.3 -11.65 -20.95 -11.95 -22.65 L-12.0 -23.6 -10.6 -23.5 -9.5 -23.65 -8.5 -24.0 -7.4 -23.6 -8.5 -19.65 -8.3 -17.5 -8.4 -12.25 -10.3 -10.35 Q-9.7 -9.2 -8.6 -8.6 L-7.85 -8.3 -8.25 -6.55 -8.95 -6.35 -9.3 -6.95 -9.6 -7.45 -9.8 -7.5" fill="#9299a9" fill-rule="evenodd" stroke="none"/>
      <path d="M-0.25 -15.45 L0.25 -18.2 0.35 -18.8 0.75 -20.65 0.75 -21.05 0.8 -21.75 Q0.9 -23.15 0.3 -24.7 -1.7 -23.5 -3.95 -23.2 L-4.1 -24.3 -6.4 -25.5 -6.1 -26.6 Q-4.35 -26.4 -2.85 -27.25 -1.9 -27.7 -1.25 -28.45 -0.55 -29.25 -0.25 -30.35 L-5.65 -29.35 -5.3 -30.2 -4.05 -32.55 -0.75 -37.2 -0.65 -36.75 -3.45 -31.2 2.1 -32.15 0.9 -29.45 -0.3 -27.6 -2.5 -25.65 Q-1.15 -26.2 0.05 -26.9 L2.3 -28.65 3.1 -28.5 3.3 -26.5 Q3.4 -23.85 2.15 -21.6 L2.0 -21.0 1.3 -18.25 0.85 -14.2 -0.25 -15.45" fill="#5c617c" fill-rule="evenodd" stroke="none"/>
    </g>
  </defs>
</svg>
