<?xml version="1.0" encoding="UTF-8" standalone="no"?>
<svg xmlns:ffdec="https://www.free-decompiler.com/flash" xmlns:xlink="http://www.w3.org/1999/xlink" ffdec:objectType="frame" height="82.05px" width="46.8px" xmlns="http://www.w3.org/2000/svg">
  <g transform="matrix(1.0, 0.0, 0.0, 1.0, 18.9, 39.65)">
    <use ffdec:characterId="2038" height="21.0" id="foot" transform="matrix(-0.9892, -0.1363, 0.1363, -0.9892, 25.0238, 42.4034)" width="38.95" xlink:href="#sprite0"/>
    <use ffdec:characterId="2097" height="67.05" transform="matrix(1.0, 0.0, 0.0, 1.0, -12.1, -39.65)" width="23.4" xlink:href="#shape1"/>
    <use ffdec:characterId="1081" height="100.0" id="shape" transform="matrix(0.2, 0.0, 0.0, 0.7601, -9.9998, -38.0028)" width="100.0" xlink:href="#sprite1"/>
  </g>
  <defs>
    <g id="sprite0" transform="matrix(1.0, 0.0, 0.0, 1.0, 29.1, 10.35)">
      <use ffdec:characterId="2037" height="21.0" transform="matrix(1.0, 0.0, 0.0, 1.0, -29.1, -10.35)" width="38.95" xlink:href="#shape0"/>
    </g>
    <g id="shape0" transform="matrix(1.0, 0.0, 0.0, 1.0, 29.1, 10.35)">
      <path d="M-28.6 -4.3 Q-28.4 -3.95 -27.95 -3.95 L-27.35 -4.35 -27.6 -5.75 Q-27.6 -6.45 -27.25 -6.8 -26.4 -6.75 -26.25 -5.7 L-26.05 -5.65 Q-25.9 -7.4 -25.0 -7.4 L-24.75 -7.35 -24.35 -7.4 -23.9 -6.15 -23.0 -6.95 -22.2 -7.5 -22.15 -7.5 -21.95 -7.4 -21.4 -7.45 -21.25 -7.2 -21.3 -7.1 -21.2 -6.65 -21.25 -5.95 -21.25 -5.9 -20.85 -5.85 Q-18.9 -7.8 -18.9 -8.0 L-18.9 -8.05 -17.3 -8.15 -17.0 -7.95 Q-15.95 -7.15 -15.15 -6.8 -7.25 -5.3 3.5 -7.15 6.85 -8.1 9.75 -4.65 L9.85 -3.85 9.85 -3.5 Q9.85 -1.45 5.15 8.3 L4.75 9.15 3.95 9.1 2.9 10.05 3.05 6.2 Q2.95 1.65 1.6 -2.85 L1.25 -2.55 -2.0 -3.7 -3.65 -2.4 -3.7 -1.85 -5.0 -1.0 -5.1 0.15 -4.55 0.15 -6.25 2.15 -5.0 10.1 -6.35 9.2 -7.35 8.4 Q-8.1 8.3 -8.6 6.75 L-9.3 4.5 Q-9.8 3.85 -11.8 2.75 L-12.25 2.45 -12.3 2.45 Q-14.5 1.1 -16.95 0.05 L-18.4 -0.5 -23.75 -2.55 -24.6 -2.6 -26.25 -2.2 Q-27.4 -2.15 -27.95 -3.15 L-28.6 -4.3 M-28.4 -6.0 L-28.5 -5.75 -28.45 -6.05 -28.4 -6.0 M-28.55 -5.7 L-28.7 -5.15 -28.6 -5.65 -28.55 -5.7 M-28.75 -4.95 L-28.7 -4.55 -28.75 -4.7 -28.75 -4.95 M-2.0 -0.5 Q-1.05 -1.05 -0.25 -0.25 L0.75 0.65 Q1.45 3.5 0.8 6.2 L-0.35 9.35 0.05 10.35 1.3 10.65 -4.05 10.5 -4.1 10.15 Q-4.35 7.7 -4.1 4.9 -3.8 1.9 -2.0 -0.5" fill="#ffcc99" fill-rule="evenodd" stroke="none"/>
      <path d="M-4.55 0.15 L-5.1 0.15 -5.0 -1.0 -3.7 -1.85 -3.65 -2.4 -2.0 -3.7 1.25 -2.55 1.6 -2.85 Q2.95 1.65 3.05 6.2 L2.9 10.05 2.25 10.65 1.3 10.65 0.05 10.35 -0.35 9.35 0.8 6.2 Q1.45 3.5 0.75 0.65 L-0.25 -0.25 Q-1.05 -1.05 -2.0 -0.5 L-2.6 -0.4 -3.2 -0.65 -4.55 0.15" fill="#f4c398" fill-rule="evenodd" stroke="none"/>
      <path d="M-5.0 10.1 L-6.25 2.15 -4.55 0.15 -3.2 -0.65 -2.6 -0.4 -2.0 -0.5 Q-3.8 1.9 -4.1 4.9 -4.35 7.7 -4.1 10.15 L-4.05 10.5 -4.9 10.15 -5.0 10.1 M9.75 -4.65 Q6.85 -8.1 3.5 -7.15 -7.25 -5.3 -15.15 -6.8 -15.95 -7.15 -17.0 -7.95 L-17.3 -8.15 -18.9 -8.05 Q-18.75 -8.7 -20.25 -8.8 L-20.9 -8.8 Q-21.55 -8.8 -21.7 -8.4 L-21.75 -8.05 -21.4 -7.45 -21.95 -7.4 -22.15 -7.5 -22.15 -7.6 -22.5 -8.15 Q-23.0 -8.5 -24.55 -8.5 -25.8 -8.5 -26.05 -7.85 L-26.3 -7.85 Q-26.95 -7.8 -27.0 -6.9 L-27.1 -7.25 Q-27.55 -7.25 -28.2 -6.25 L-28.4 -6.0 -28.45 -6.05 Q-28.35 -7.6 -26.85 -8.25 -25.15 -9.05 -20.4 -9.1 L-17.55 -9.6 -17.0 -9.45 -15.15 -8.9 -7.85 -8.15 -0.55 -8.95 Q7.2 -10.9 9.75 -4.65" fill="#ebbb98" fill-rule="evenodd" stroke="none"/>
      <path d="M-22.15 -7.5 L-22.2 -7.5 -23.0 -6.95 -23.9 -6.15 -24.35 -7.4 -24.75 -7.35 -25.0 -7.4 Q-25.9 -7.4 -26.05 -5.65 L-26.25 -5.7 Q-26.4 -6.75 -27.25 -6.8 -27.6 -6.45 -27.6 -5.75 L-27.35 -4.35 -27.95 -3.95 Q-28.4 -3.95 -28.6 -4.3 L-28.7 -4.55 -28.75 -4.95 -28.75 -5.0 -28.7 -5.15 -28.55 -5.7 -28.5 -5.75 -28.4 -6.0 -28.2 -6.25 Q-27.55 -7.25 -27.1 -7.25 L-27.0 -6.9 Q-26.95 -7.8 -26.3 -7.85 L-26.05 -7.85 Q-25.8 -8.5 -24.55 -8.5 -23.0 -8.5 -22.5 -8.15 L-22.15 -7.6 -22.15 -7.5 M-18.9 -8.05 L-18.9 -8.0 Q-18.9 -7.8 -20.85 -5.85 L-21.25 -5.9 -21.25 -5.95 -21.2 -6.65 -21.3 -7.1 -21.25 -7.2 -21.4 -7.45 -21.75 -8.05 -21.7 -8.4 Q-21.55 -8.8 -20.9 -8.8 L-20.25 -8.8 Q-18.75 -8.7 -18.9 -8.05" fill="#e2b181" fill-rule="evenodd" stroke="none"/>
      <path d="M9.45 -6.35 Q9.9 -4.65 9.85 -2.65 9.8 0.4 9.1 3.35 L9.0 3.35 6.15 3.55 Q7.9 3.05 7.5 0.45 7.05 -3.0 6.35 -4.1 6.0 -5.45 6.85 -5.85 L8.8 -6.25 9.45 -6.35" fill="#333333" fill-rule="evenodd" stroke="none"/>
      <path d="M9.1 3.35 L9.05 3.45 9.0 3.45 9.0 3.35 9.1 3.35" fill="#3333ff" fill-rule="evenodd" stroke="none"/>
      <path d="M-29.1 -9.0 L-28.5 -10.0 Q-21.3 -10.65 -15.5 -10.0 L-9.25 -9.45 -5.05 -9.35 Q-3.05 -9.6 -2.7 -10.0 L9.65 -10.0 9.65 -9.9 9.75 -9.3 9.75 -9.1 9.75 -8.35 9.7 -7.9 Q4.75 -8.55 -0.8 -8.15 -6.35 -7.7 -12.0 -8.35 L-22.0 -9.25 -29.1 -9.0 M9.4 -6.55 L9.45 -6.35 8.8 -6.25 6.85 -5.85 Q6.0 -5.45 6.35 -4.1 7.05 -3.0 7.5 0.45 7.9 3.05 6.15 3.55 L3.75 3.7 2.4 4.15 2.2 4.15 2.0 4.2 1.9 2.9 1.65 0.45 Q0.8 -3.35 -3.0 -2.9 L-4.05 -1.4 Q-4.8 -0.05 -5.05 1.7 -6.65 0.4 -7.8 -1.25 -11.55 -6.5 -17.3 -6.65 L-28.85 -6.25 -28.7 -8.2 -27.35 -8.15 Q-25.4 -8.4 -23.45 -8.1 L-21.6 -8.0 -15.35 -7.3 -10.95 -7.0 -8.75 -7.0 -5.7 -7.0 -4.85 -6.95 -3.55 -6.9 -1.0 -6.85 Q5.45 -7.95 9.25 -7.05 L9.4 -6.55" fill="#282828" fill-rule="evenodd" stroke="none"/>
      <path d="M2.0 4.2 L-3.35 6.25 Q-4.75 6.7 -7.65 9.15 L-8.35 8.15 -8.6 7.9 -10.2 6.0 Q-13.15 3.1 -17.05 1.4 L-18.75 0.7 -18.8 0.7 -25.15 -0.6 Q-29.0 -0.9 -28.85 -6.25 L-17.3 -6.65 Q-11.55 -6.5 -7.8 -1.25 -6.65 0.4 -5.05 1.7 -4.8 -0.05 -4.05 -1.4 L-3.0 -2.9 Q0.8 -3.35 1.65 0.45 L1.9 2.9 2.0 4.2 M-26.15 -2.05 Q-23.35 -0.4 -20.5 -1.3 L-19.15 -2.1 -25.95 -2.45 -26.15 -2.05" fill="#363636" fill-rule="evenodd" stroke="none"/>
      <path d="M9.7 -7.9 L9.7 -7.85 9.4 -6.55 9.25 -7.05 Q5.45 -7.95 -1.0 -6.85 L-3.55 -6.9 -4.85 -6.95 -5.7 -7.0 -8.75 -7.0 -10.95 -7.0 -15.35 -7.3 -21.6 -8.0 -23.45 -8.1 Q-25.4 -8.4 -27.35 -8.15 L-28.7 -8.2 Q-29.15 -8.4 -29.1 -8.85 L-29.1 -9.0 -22.0 -9.25 -12.0 -8.35 Q-6.35 -7.7 -0.8 -8.15 4.75 -8.55 9.7 -7.9 M-26.15 -2.05 L-25.95 -2.45 -19.15 -2.1 -20.5 -1.3 Q-23.35 -0.4 -26.15 -2.05" fill="#444444" fill-rule="evenodd" stroke="none"/>
    </g>
    <g id="shape1" transform="matrix(1.0, 0.0, 0.0, 1.0, 12.1, 39.65)">
      <path d="M7.75 -38.5 L8.6 -37.5 9.0 -36.8 Q9.0 -36.6 9.7 -35.25 10.35 -33.9 10.15 -27.0 L9.85 -17.7 Q9.75 -15.35 8.15 -7.95 7.2 -3.6 6.75 4.0 6.5 8.35 6.9 9.7 7.75 12.55 7.75 18.25 L7.45 19.5 10.45 19.4 10.45 19.5 Q10.55 20.4 11.3 21.55 11.35 22.0 8.95 23.05 L7.55 23.65 7.25 23.75 6.75 23.9 5.75 24.35 Q6.95 22.65 7.25 21.75 L1.25 24.25 Q2.8 21.05 3.9 13.4 L4.75 6.75 3.5 0.6 Q3.5 -0.7 5.0 -8.7 6.5 -16.7 6.5 -22.85 6.5 -31.1 7.7 -35.45 8.25 -37.5 7.75 -38.5 M-11.7 27.4 Q-11.25 24.45 -11.0 18.75 L-11.0 18.5 -11.0 18.45 Q-10.8 12.5 -10.9 5.0 -10.9 2.35 -11.2 -0.5 L-12.05 -10.6 -12.0 -15.15 Q-11.8 -17.15 -11.85 -19.3 -11.65 -20.95 -11.95 -22.65 L-12.0 -23.6 -12.0 -26.15 -11.05 -28.4 Q-11.0 -29.1 -10.4 -30.1 L-10.75 -25.25 Q-9.0 -0.85 -9.0 4.85 -9.0 6.65 -9.5 11.85 L-9.5 13.25 -8.2 7.9 -7.0 3.0 -7.0 6.25 Q-7.0 12.9 -8.1 19.15 -8.95 23.9 -11.7 27.4 M5.0 -2.75 L4.95 -2.75 4.95 -2.55 5.0 -2.75" fill="#444444" fill-rule="evenodd" stroke="none"/>
      <path d="M5.75 24.35 L4.0 25.05 3.65 25.2 3.35 25.35 3.1 25.5 Q1.85 26.65 -4.95 27.4 L-11.7 27.4 Q-8.95 23.9 -8.1 19.15 -7.0 12.9 -7.0 6.25 L-7.0 3.0 -8.2 7.9 -9.5 13.25 -9.5 11.85 Q-9.0 6.65 -9.0 4.85 -9.0 -0.85 -10.75 -25.25 L-10.4 -30.1 Q-9.55 -31.55 -7.55 -33.6 L-6.95 -34.2 -3.65 -36.75 Q-1.5 -38.1 1.15 -39.0 L1.55 -39.15 5.05 -39.6 Q7.1 -39.7 7.75 -38.5 8.25 -37.5 7.7 -35.45 6.5 -31.1 6.5 -22.85 6.5 -16.7 5.0 -8.7 3.5 -0.7 3.5 0.6 L4.75 6.75 3.9 13.4 Q2.8 21.05 1.25 24.25 L7.25 21.75 Q6.95 22.65 5.75 24.35" fill="#333333" fill-rule="evenodd" stroke="none"/>
      <path d="M9.0 -36.8 L10.0 -34.65 10.35 -33.5 10.9 -27.85 10.75 -22.6 Q10.95 -14.7 9.4 -8.45 8.4 -4.6 8.55 -1.95 8.65 0.65 8.4 1.85 8.15 3.0 8.75 6.45 L9.5 10.45 Q10.45 12.85 10.4 15.15 L10.45 19.4 7.45 19.5 7.75 18.25 Q7.75 12.55 6.9 9.7 6.5 8.35 6.75 4.0 7.2 -3.6 8.15 -7.95 9.75 -15.35 9.85 -17.7 L10.15 -27.0 Q10.35 -33.9 9.7 -35.25 9.0 -36.6 9.0 -36.8 M5.0 -2.75 L4.95 -2.55 4.95 -2.75 5.0 -2.75" fill="#666666" fill-rule="evenodd" stroke="none"/>
    </g>
    <g id="sprite1" transform="matrix(1.0, 0.0, 0.0, 1.0, 50.0, 50.0)">
      <use ffdec:characterId="1080" height="100.0" transform="matrix(1.0, 0.0, 0.0, 1.0, -50.0, -50.0)" width="100.0" xlink:href="#shape2"/>
    </g>
    <g id="shape2" transform="matrix(1.0, 0.0, 0.0, 1.0, 50.0, 50.0)">
      <path d="M50.0 50.0 L-50.0 50.0 -50.0 -50.0 50.0 -50.0 50.0 50.0 Z" fill="none" stroke="#9900ff" stroke-linecap="round" stroke-linejoin="round" stroke-width="0.05"/>
    </g>
  </defs>
</svg>
