<?xml version="1.0" encoding="UTF-8" standalone="no"?>
<svg xmlns:ffdec="https://www.free-decompiler.com/flash" xmlns:xlink="http://www.w3.org/1999/xlink" ffdec:objectType="frame" height="82.05px" width="46.8px" xmlns="http://www.w3.org/2000/svg">
  <g transform="matrix(1.0, 0.0, 0.0, 1.0, 18.9, 39.65)">
    <use ffdec:characterId="2100" height="55.6" transform="matrix(1.0, 0.0, 0.0, 1.0, -16.65, -33.8)" width="30.7" xlink:href="#shape0"/>
  </g>
  <defs>
    <g id="shape0" transform="matrix(1.0, 0.0, 0.0, 1.0, 16.65, 33.8)">
      <path d="M-1.4 -26.65 L-1.35 -26.75 -0.4 -27.65 Q0.05 -27.7 0.3 -26.7 L0.9 -27.9 0.5 -28.35 Q0.05 -28.8 0.65 -29.25 3.05 -27.7 4.45 -25.2 L5.2 -23.5 4.85 -23.1 Q2.95 -23.5 1.6 -24.85 1.55 -24.15 1.65 -23.4 L1.35 -22.3 1.15 -22.35 0.6 -22.75 0.5 -22.7 0.15 -22.6 Q-0.1 -22.6 -0.55 -23.05 L-0.75 -23.15 -0.35 -24.05 -0.35 -24.25 -0.8 -26.45 -0.9 -26.85 -1.1 -26.8 -1.4 -26.65 M5.05 -22.05 L5.15 -22.05 6.05 -21.1 6.0 -20.85 6.0 -20.75 5.5 -20.4 4.4 -20.35 4.15 -21.1 Q4.1 -21.9 5.05 -22.05 M6.55 -19.35 L6.85 -19.3 7.15 -18.75 7.1 -18.1 Q7.0 -17.65 6.55 -17.6 L4.95 -18.75 5.1 -19.2 5.4 -19.3 6.55 -19.35 M8.85 -14.15 L9.15 -13.85 6.8 -10.45 6.95 -9.65 5.65 -7.8 4.35 -8.05 3.3 -6.95 2.55 -7.4 2.5 -8.05 1.95 -8.05 2.45 -5.6 0.7 -0.5 -0.45 0.45 -1.25 0.15 -0.75 -0.7 Q1.3 -3.85 0.7 -7.35 L0.05 -7.8 0.6 -9.2 0.65 -10.0 1.05 -10.2 3.6 -9.35 3.95 -10.0 3.6 -10.4 2.4 -11.85 2.35 -12.9 1.85 -13.1 2.2 -15.2 1.65 -14.9 Q1.75 -16.3 2.7 -17.35 L3.2 -17.85 3.7 -17.85 2.8 -16.5 4.2 -16.2 Q4.75 -15.3 4.15 -14.35 L4.0 -14.0 3.7 -13.95 2.85 -14.3 2.85 -13.3 4.3 -11.55 4.85 -10.15 8.85 -14.15 M7.9 -8.65 L8.6 -8.15 8.25 -4.85 7.1 -4.05 6.6 -3.65 6.55 -3.65 6.55 -3.6 Q6.6 -2.8 6.3 -2.15 5.95 -1.6 5.4 -1.5 L5.1 -1.6 Q4.25 -2.5 4.55 -3.5 4.85 -4.4 5.65 -4.95 L6.0 -5.7 Q6.4 -5.5 6.8 -5.35 L7.05 -6.4 6.1 -7.7 6.3 -8.2 6.9 -8.45 7.9 -8.65 M-0.5 16.6 L-0.25 17.1 -0.15 18.05 -0.55 19.85 Q-0.95 21.05 -2.0 21.55 L-2.5 21.75 Q-3.05 21.0 -2.6 19.9 L-1.3 17.45 -0.5 16.6 M-4.0 14.65 L-4.2 14.7 -4.25 14.7 -4.25 14.6 -4.3 13.6 -1.65 10.8 -2.85 9.2 -2.35 7.25 Q-1.8 5.65 -0.9 4.5 -0.35 4.15 -0.2 4.5 L0.05 5.9 -0.05 6.9 -1.55 8.5 -0.35 8.75 0.35 9.85 -0.25 10.55 0.7 11.75 0.1 12.6 -4.0 14.65 M-6.9 9.1 L-6.85 7.65 -6.4 7.4 -5.6 7.7 -5.2 7.9 -4.4 8.5 -4.25 8.65 -3.8 9.35 -5.2 11.1 -6.9 9.1 M-6.95 -19.95 L-6.4 -18.75 -6.4 -18.55 -6.5 -18.0 Q-6.6 -17.85 -6.9 -17.85 -7.7 -17.75 -7.75 -19.15 L-8.4 -20.1 -8.65 -20.45 -8.65 -20.5 Q-8.85 -22.15 -7.8 -22.5 L-7.65 -22.55 -7.3 -22.65 Q-6.9 -22.7 -6.85 -22.25 L-7.05 -21.9 -7.25 -21.7 -7.15 -21.6 -6.95 -21.15 -7.15 -20.7 -7.0 -20.0 -6.95 -19.95 M-2.75 -13.3 L-1.85 -13.6 -1.25 -13.5 -1.0 -13.45 -0.9 -13.6 -0.35 -14.3 0.6 -14.0 0.7 -14.0 0.9 -13.7 Q0.95 -13.0 0.15 -12.9 L-0.6 -13.05 -0.6 -12.95 Q-0.55 -12.6 -1.35 -11.6 -2.2 -10.6 -2.55 -10.55 L-3.1 -10.75 -3.45 -11.8 Q-3.6 -12.85 -2.75 -13.3 M-2.0 0.2 L-1.5 0.2 -1.05 1.25 -0.7 2.15 -1.8 3.45 -3.25 3.0 Q-3.75 2.55 -3.8 1.75 L-3.8 0.7 -3.15 0.25 -2.0 0.2 M3.95 -0.05 Q5.3 0.85 4.6 2.35 L4.1 3.15 4.05 3.2 4.1 3.2 Q5.05 4.65 4.25 5.9 L4.2 6.05 3.4 6.5 3.55 6.95 3.4 7.6 1.05 9.1 0.35 7.8 Q0.3 6.65 1.55 6.2 L1.8 6.15 2.5 6.05 2.7 6.1 3.15 6.25 1.45 3.7 1.85 2.6 3.0 2.15 3.15 0.4 3.95 -0.05 M3.6 10.1 L4.35 10.15 5.95 11.5 5.15 12.35 4.5 11.85 4.1 11.8 3.9 11.85 Q3.2 12.0 2.95 12.55 L2.35 13.1 Q1.65 11.25 3.45 10.15 L3.6 10.1 M-8.6 -27.45 L-8.35 -27.95 -7.85 -28.15 -7.3 -27.95 -6.05 -27.75 -5.4 -27.3 Q-4.55 -26.85 -4.45 -26.1 L-4.5 -26.05 -4.95 -25.4 -5.95 -25.35 Q-6.8 -25.4 -7.3 -25.75 L-8.6 -27.0 -8.6 -27.45" fill="#ff0000" fill-rule="evenodd" stroke="none"/>
      <path d="M-1.55 -31.15 L-0.9 -31.25 -0.9 -31.2 Q0.1 -30.4 0.35 -29.7 L0.65 -29.25 Q0.05 -28.8 0.5 -28.35 L0.9 -27.9 0.3 -26.7 Q0.05 -27.7 -0.4 -27.65 L-1.35 -26.75 -1.4 -26.65 -1.65 -26.6 -2.0 -26.6 Q-2.05 -27.9 -1.6 -28.75 -1.25 -29.65 -0.35 -30.0 L-1.55 -31.15 M4.85 -23.1 L4.95 -22.95 5.15 -23.15 5.6 -22.85 5.0 -22.05 5.05 -22.05 Q4.1 -21.9 4.15 -21.1 L4.4 -20.35 5.5 -20.4 6.0 -20.75 6.0 -20.85 6.9 -20.9 6.55 -19.35 5.4 -19.3 5.1 -19.2 4.95 -18.75 6.55 -17.6 Q7.0 -17.65 7.1 -18.1 L7.25 -17.85 5.65 -14.25 4.35 -11.6 4.3 -11.55 2.85 -13.3 2.85 -14.3 3.7 -13.95 4.0 -14.0 4.15 -14.35 Q4.75 -15.3 4.2 -16.2 L2.8 -16.5 3.7 -17.85 4.25 -18.15 3.65 -20.55 Q3.55 -21.85 3.75 -22.7 L3.7 -22.7 2.95 -22.65 Q2.5 -22.3 2.25 -22.3 L1.55 -22.25 1.35 -22.3 1.65 -23.4 Q1.55 -24.15 1.6 -24.85 2.95 -23.5 4.85 -23.1 M7.65 -8.7 L7.7 -8.7 7.9 -8.65 6.9 -8.45 7.6 -8.65 7.65 -8.7 M6.7 8.5 L7.05 8.85 Q7.2 9.45 6.95 10.05 L6.75 10.55 Q6.0 12.3 4.7 13.55 L4.5 11.85 5.15 12.35 5.95 11.5 4.35 10.15 4.85 9.85 5.35 9.0 Q5.6 8.45 6.2 8.15 L6.7 8.5 M2.15 17.4 Q1.85 17.55 1.5 17.65 L0.5 14.05 0.0 14.25 0.1 12.6 0.7 11.75 -0.25 10.55 0.35 9.85 -0.35 8.75 -1.55 8.5 -0.05 6.9 -0.35 7.75 0.05 8.2 0.35 7.8 1.05 9.1 3.4 7.6 3.25 8.6 Q2.95 9.45 3.2 10.05 L3.45 10.15 Q1.65 11.25 2.35 13.1 L2.95 12.55 2.5 14.4 Q3.1 14.85 3.25 15.55 L3.3 15.9 3.3 16.4 3.2 16.75 2.4 16.95 2.15 17.4 M-4.25 14.6 L-6.9 9.1 -5.2 11.1 -3.8 9.35 -4.25 8.65 -4.4 8.5 -5.2 7.9 -5.6 7.7 -6.4 7.4 -6.85 7.65 -6.45 7.05 -6.4 7.05 -5.6 7.2 -4.25 8.25 -2.25 4.75 -3.45 4.7 Q-5.55 3.15 -4.3 1.2 L-3.8 0.7 -3.8 1.75 Q-3.75 2.55 -3.25 3.0 L-1.8 3.45 -0.7 2.15 Q-0.4 3.1 -1.05 3.85 L-1.4 4.4 -0.9 4.5 Q-1.8 5.65 -2.35 7.25 L-2.85 9.2 -1.65 10.8 -4.3 13.6 -4.25 14.6 M0.5 -22.7 L0.6 -22.75 1.15 -22.35 Q0.75 -22.4 0.5 -22.7 M-6.5 -18.0 L-6.0 -16.55 -6.0 -16.2 -6.05 -16.0 Q-6.2 -15.7 -6.7 -15.65 L-7.7 -15.7 -8.05 -16.0 -8.3 -16.45 -8.6 -17.15 -8.95 -18.3 -8.65 -20.45 -8.4 -20.1 -7.75 -19.15 Q-7.7 -17.75 -6.9 -17.85 -6.6 -17.85 -6.5 -18.0 M-1.25 -13.5 L-0.9 -13.6 -1.0 -13.45 -1.25 -13.5 M0.7 -14.0 L1.1 -14.3 1.65 -14.9 2.2 -15.2 1.85 -13.1 2.35 -12.9 2.4 -11.85 2.25 -11.8 1.05 -11.9 Q-0.4 -11.75 -0.65 -10.85 -0.95 -9.95 -1.6 -9.9 L-1.95 -9.85 Q-2.75 -9.9 -3.1 -10.75 L-2.55 -10.55 Q-2.2 -10.6 -1.35 -11.6 -0.55 -12.6 -0.6 -12.95 L-0.6 -13.05 0.15 -12.9 Q0.95 -13.0 0.9 -13.7 L0.7 -14.0 M0.05 -7.8 L0.7 -7.35 Q1.3 -3.85 -0.75 -0.7 L-1.25 0.15 -0.45 0.45 0.7 -0.5 Q0.4 0.85 -0.85 1.3 L-1.05 1.25 -1.5 0.2 -2.0 0.2 Q-1.95 -1.35 -0.8 -2.55 0.0 -3.4 0.45 -4.45 0.95 -5.6 0.55 -6.7 L0.05 -7.8 M2.45 -5.6 L1.95 -8.05 2.5 -8.05 2.55 -7.4 3.3 -6.95 4.35 -8.05 3.65 -6.8 Q3.1 -6.75 2.7 -6.35 2.4 -6.0 2.45 -5.6 M6.1 -7.7 L7.05 -6.4 6.8 -5.35 Q6.4 -5.5 6.0 -5.7 L5.9 -6.3 Q5.8 -7.15 6.1 -7.7 M5.65 -4.95 Q4.85 -4.4 4.55 -3.5 4.25 -2.5 5.1 -1.6 4.9 -1.45 4.7 -1.45 4.15 -1.4 3.85 -1.7 3.45 -2.1 3.4 -3.0 L3.5 -3.75 Q3.75 -4.85 5.45 -5.0 L5.65 -4.95 M6.55 -3.6 L6.55 -3.65 6.6 -3.65 6.55 -3.6 M1.55 6.2 Q0.2 4.9 1.4 3.05 L1.85 2.6 1.45 3.7 3.15 6.25 2.7 6.1 2.5 6.05 1.8 6.15 1.55 6.2 M-8.6 -27.45 L-8.6 -27.0 -7.3 -25.75 Q-6.8 -25.4 -5.95 -25.35 L-4.95 -25.4 -4.5 -26.05 Q-3.9 -25.5 -4.7 -25.0 L-5.65 -24.35 Q-5.95 -24.05 -6.5 -24.0 L-6.55 -24.0 Q-7.65 -23.85 -8.8 -26.55 L-8.6 -27.45" fill="#990000" fill-rule="evenodd" stroke="none"/>
      <path d="M7.25 -17.85 L8.8 -20.0 8.85 -20.1 9.35 -22.65 Q9.3 -24.15 10.5 -24.55 L13.3 -24.85 Q13.95 -24.9 14.05 -23.95 14.15 -23.15 12.7 -21.15 L11.9 -20.2 9.65 -15.8 8.85 -14.15 4.85 -10.15 4.3 -11.55 4.35 -11.6 5.65 -14.25 7.25 -17.85 M4.7 13.55 L4.25 18.75 4.25 18.8 3.75 19.15 2.65 17.65 2.4 16.95 3.2 16.75 3.3 16.4 3.3 15.9 3.25 15.55 Q3.1 14.85 2.5 14.4 L2.95 12.55 Q3.2 12.0 3.9 11.85 L4.1 11.8 4.5 11.85 4.7 13.55 M0.0 14.25 L-0.5 16.6 -1.3 17.45 -2.6 19.9 Q-3.05 21.0 -2.5 21.75 L-4.1 21.8 -4.05 14.95 -4.0 14.65 0.1 12.6 0.0 14.25" fill="#ffffff" fill-rule="evenodd" stroke="none"/>
      <path d="M-1.55 -31.15 L-0.35 -30.0 Q-1.25 -29.65 -1.6 -28.75 L-2.7 -29.7 -2.6 -29.85 -2.3 -30.25 -2.6 -30.95 -2.2 -31.6 -1.85 -32.1 -1.85 -31.85 -1.6 -31.1 -1.55 -31.15 M9.15 -13.85 Q9.25 -12.95 7.65 -8.85 L7.6 -8.65 6.9 -8.45 6.3 -8.2 6.1 -7.7 Q5.8 -7.15 5.9 -6.3 L6.0 -5.7 5.65 -4.95 5.45 -5.0 Q3.75 -4.85 3.5 -3.75 L3.4 -3.9 3.65 -6.55 3.65 -6.8 4.35 -8.05 5.65 -7.8 6.95 -9.65 6.8 -10.45 9.15 -13.85 M1.55 -22.25 L2.25 -22.3 Q2.5 -22.3 2.95 -22.65 L3.7 -22.7 3.75 -22.7 Q3.55 -21.85 3.65 -20.55 L4.25 -18.15 3.7 -17.85 3.2 -17.85 2.8 -18.85 1.55 -22.25 M3.6 -10.4 L3.95 -10.0 3.6 -9.35 3.6 -10.4 M5.1 -1.6 L5.4 -1.5 5.1 1.45 4.45 7.05 4.2 6.15 4.2 6.05 4.25 5.9 Q5.05 4.65 4.1 3.2 L4.1 3.15 4.6 2.35 Q5.3 0.85 3.95 -0.05 L3.85 -1.7 Q4.15 -1.4 4.7 -1.45 4.9 -1.45 5.1 -1.6" fill="#ebbb98" fill-rule="evenodd" stroke="none"/>
      <path d="M-1.6 -28.75 Q-2.05 -27.9 -2.0 -26.6 -2.55 -26.75 -2.8 -27.25 L-3.0 -28.7 Q-3.05 -29.25 -2.7 -29.7 L-1.6 -28.75 M7.65 -8.85 L7.65 -8.7 7.6 -8.65 7.65 -8.85 M7.1 -4.05 L7.0 -3.45 6.95 -2.65 6.7 1.25 6.6 3.1 6.7 8.5 6.2 8.15 Q5.6 8.45 5.35 9.0 L4.85 9.85 4.35 10.15 3.6 10.1 3.4 9.2 3.25 8.6 3.4 7.6 3.55 6.95 3.4 6.5 4.2 6.05 4.2 6.15 4.45 7.05 5.1 1.45 5.4 -1.5 Q5.95 -1.6 6.3 -2.15 6.6 -2.8 6.55 -3.6 L6.6 -3.65 7.1 -4.05 M-6.45 7.05 L-6.95 3.15 Q-7.3 1.3 -7.8 -0.55 L-8.5 -2.9 -9.05 -4.7 -9.8 -7.45 -9.6 -7.45 -9.3 -6.9 -8.7 -4.8 -7.6 -0.55 -6.75 3.15 -6.55 4.3 -5.6 7.2 -6.4 7.05 -6.45 7.05 M-2.75 -31.3 L-2.2 -31.6 -2.6 -30.95 -2.75 -31.3 M1.35 -22.3 L1.55 -22.25 2.8 -18.85 3.2 -17.85 2.7 -17.35 Q1.75 -16.3 1.65 -14.9 L1.1 -14.3 0.7 -14.0 0.6 -14.0 -0.35 -14.3 -0.9 -13.6 -1.25 -13.5 -1.85 -13.6 -2.75 -13.3 -3.1 -15.2 -6.2 -10.85 -7.95 -8.45 -8.6 -8.6 -8.85 -8.75 -9.65 -9.45 -10.3 -10.35 -9.7 -10.95 -8.4 -12.25 -6.75 -11.7 -4.15 -15.45 -5.95 -16.15 -6.0 -16.2 -6.0 -16.55 -6.5 -18.0 -6.4 -18.55 -6.4 -18.75 -6.95 -19.95 Q-6.5 -21.25 -4.75 -20.8 L-4.0 -20.5 Q-3.25 -19.55 -2.95 -19.55 L-2.5 -19.65 -2.05 -18.9 -1.45 -21.25 -0.75 -23.15 -0.55 -23.05 Q-0.1 -22.6 0.15 -22.6 L0.5 -22.7 Q0.75 -22.4 1.15 -22.35 L1.35 -22.3 M2.4 -11.85 L3.6 -10.4 3.6 -9.35 1.05 -10.2 0.65 -10.0 0.6 -9.2 0.05 -7.8 0.55 -6.7 Q0.95 -5.6 0.45 -4.45 0.0 -3.4 -0.8 -2.55 -1.95 -1.35 -2.0 0.2 L-3.15 0.25 -3.2 -1.2 -2.85 -5.6 -2.8 -6.3 -2.7 -6.3 -2.05 -8.25 -1.6 -9.15 -1.8 -9.25 -1.95 -9.85 -1.6 -9.9 Q-0.95 -9.95 -0.65 -10.85 -0.4 -11.75 1.05 -11.9 L2.25 -11.8 2.4 -11.85 M0.7 -0.5 L2.45 -5.6 Q2.4 -6.0 2.7 -6.35 3.1 -6.75 3.65 -6.8 L3.65 -6.55 3.4 -3.9 3.5 -3.75 3.4 -3.0 Q3.45 -2.1 3.85 -1.7 L3.95 -0.05 3.15 0.4 3.0 2.15 1.85 2.6 1.4 3.05 Q0.2 4.9 1.55 6.2 0.3 6.65 0.35 7.8 L0.05 8.2 -0.35 7.75 -0.05 6.9 0.05 5.9 -0.2 4.5 Q-0.35 4.15 -0.9 4.5 L-1.4 4.4 -1.05 3.85 Q-0.4 3.1 -0.7 2.15 L-1.05 1.25 -0.85 1.3 Q0.4 0.85 0.7 -0.5 M4.1 3.15 L4.1 3.2 4.05 3.2 4.1 3.15 M-4.25 8.25 Q-3.7 6.55 -3.45 4.7 L-2.25 4.75 -4.25 8.25" fill="#ffcc99" fill-rule="evenodd" stroke="none"/>
      <path d="M2.65 17.65 L2.25 17.55 2.15 17.4 2.4 16.95 2.65 17.65 M-8.6 -8.6 L-7.95 -8.45 -6.2 -10.85 -3.1 -15.2 -2.75 -13.3 Q-3.6 -12.85 -3.45 -11.8 L-3.1 -10.75 Q-2.75 -9.9 -1.95 -9.85 L-1.8 -9.25 -1.6 -9.15 -2.05 -8.25 -2.7 -6.3 -2.8 -6.3 -2.85 -5.6 -3.2 -1.2 -3.15 0.25 -3.8 0.7 -4.3 1.2 Q-5.55 3.15 -3.45 4.7 -3.7 6.55 -4.25 8.25 L-5.6 7.2 -6.55 4.3 -6.75 3.15 -7.6 -0.55 -8.7 -4.8 -9.3 -6.9 -8.95 -6.35 -8.25 -6.55 -7.85 -8.3 -8.6 -8.6 M3.25 8.6 L3.4 9.2 3.6 10.1 3.45 10.15 3.2 10.05 Q2.95 9.45 3.25 8.6" fill="#f4c398" fill-rule="evenodd" stroke="none"/>
      <path d="M-9.8 -7.45 L-10.4 -7.6 -10.75 -7.2 -10.9 -7.05 -11.35 -6.5 -11.45 -6.35 -11.65 -6.05 Q-12.8 -4.25 -12.85 -2.05 L-13.5 -1.6 Q-14.55 -3.85 -16.65 -5.1 L-15.6 -6.35 Q-14.0 -8.55 -13.05 -10.95 -12.3 -12.95 -12.0 -15.15 L-11.85 -17.05 -11.85 -19.3 Q-11.65 -20.95 -11.95 -22.65 L-12.0 -23.6 -12.0 -26.15 -11.05 -28.4 Q-11.0 -29.1 -10.4 -30.1 L-10.75 -25.25 -10.6 -23.5 -9.75 -10.95 -9.7 -10.95 -10.3 -10.35 -9.65 -9.45 -8.85 -8.75 -8.6 -8.6 -7.85 -8.3 -8.25 -6.55 -8.95 -6.35 -9.3 -6.9 -9.6 -7.45 -9.8 -7.45" fill="#444444" fill-rule="evenodd" stroke="none"/>
      <path d="M-10.4 -30.1 Q-9.55 -31.55 -7.55 -33.6 L-7.4 -33.8 -6.9 -33.35 Q-6.1 -32.65 -4.65 -32.95 -5.25 -32.6 -7.2 -31.6 -9.0 -30.65 -9.7 -30.0 L-7.6 -29.35 Q-6.8 -29.0 -6.3 -28.4 L-5.35 -27.4 -5.4 -27.3 -6.05 -27.75 -7.3 -27.95 -7.85 -28.15 -8.35 -27.95 -8.6 -27.45 -8.8 -26.55 Q-7.65 -23.85 -6.55 -24.0 L-6.5 -24.0 Q-5.95 -24.05 -5.65 -24.35 L-5.8 -23.3 -4.6 -21.35 -4.0 -20.5 -4.75 -20.8 Q-6.5 -21.25 -6.95 -19.95 L-7.0 -20.0 -7.15 -20.7 -6.95 -21.15 -7.15 -21.6 -7.25 -21.7 -7.05 -21.9 -6.85 -22.25 Q-6.9 -22.7 -7.3 -22.65 L-7.65 -22.55 -7.8 -22.5 Q-8.85 -22.15 -8.65 -20.5 L-8.65 -20.45 -8.95 -18.3 -8.6 -17.15 -8.3 -16.45 -8.05 -16.0 -7.7 -15.7 -6.7 -15.65 Q-6.2 -15.7 -6.05 -16.0 L-6.0 -16.2 -5.95 -16.15 -4.15 -15.45 -6.75 -11.7 -8.4 -12.25 -9.7 -10.95 -9.75 -10.95 -10.6 -23.5 -10.75 -25.25 -10.4 -30.1" fill="#333333" fill-rule="evenodd" stroke="none"/>
      <path d="M-2.0 -26.6 L-1.65 -26.6 -1.4 -26.65 -1.1 -26.8 -0.9 -26.85 -0.8 -26.45 -0.35 -24.25 -0.35 -24.05 -0.75 -23.15 -1.45 -21.25 -2.05 -18.9 -2.5 -19.65 -2.95 -19.55 Q-3.25 -19.55 -4.0 -20.5 L-4.6 -21.35 -5.8 -23.3 -5.65 -24.35 -4.7 -25.0 Q-3.9 -25.5 -4.5 -26.05 L-4.45 -26.1 Q-4.55 -26.85 -5.4 -27.3 L-5.35 -27.4 -6.3 -28.4 Q-6.8 -29.0 -7.6 -29.35 L-9.7 -30.0 Q-9.0 -30.65 -7.2 -31.6 -5.25 -32.6 -4.65 -32.95 L-4.6 -33.0 -4.5 -32.95 -3.65 -33.25 -3.6 -33.2 -3.05 -31.95 -2.75 -31.3 -2.6 -30.95 -2.3 -30.25 -2.6 -29.85 -2.7 -29.7 Q-3.05 -29.25 -3.0 -28.7 L-2.8 -27.25 Q-2.55 -26.75 -2.0 -26.6" fill="#631a1a" fill-rule="evenodd" stroke="none"/>
    </g>
  </defs>
</svg>
