<?xml version="1.0" encoding="UTF-8" standalone="no"?>
<svg xmlns:ffdec="https://www.free-decompiler.com/flash" xmlns:xlink="http://www.w3.org/1999/xlink" ffdec:objectType="frame" height="100.15px" width="52.95px" xmlns="http://www.w3.org/2000/svg">
  <g transform="matrix(1.0, 0.0, 0.0, 1.0, 25.1, 55.7)">
    <use ffdec:characterId="2339" height="27.65" id="neck" transform="matrix(1.0, 0.0, 0.0, 1.0, -10.25, -49.35)" width="27.3" xlink:href="#sprite0"/>
    <use ffdec:characterId="2337" height="73.6" transform="matrix(1.0, 1.0E-4, -1.0E-4, 1.0, -18.3966, -34.8017)" width="36.2" xlink:href="#sprite1"/>
    <use ffdec:characterId="1081" height="100.0" id="shape" transform="matrix(0.3205, 0.0, 0.0, 0.7, -16.0255, -34.9991)" width="100.0" xlink:href="#sprite2"/>
    <use ffdec:characterId="1138" height="0.0" id="spineRef" transform="matrix(1.0, 0.0, 0.0, 1.0, 7.25, -44.5)" width="0.0" xlink:href="#sprite3"/>
  </g>
  <defs>
    <g id="sprite0" transform="matrix(1.0, 0.0, 0.0, 1.0, 16.0, 14.7)">
      <use ffdec:characterId="2338" height="27.65" transform="matrix(1.0, 0.0, 0.0, 1.0, -16.0, -14.7)" width="27.3" xlink:href="#shape0"/>
    </g>
    <g id="shape0" transform="matrix(1.0, 0.0, 0.0, 1.0, 16.0, 14.7)">
      <path d="M-0.15 -14.7 L0.3 -14.6 0.9 -13.4 Q0.6 -12.9 0.1 -13.1 L-0.45 -13.25 -0.8 -14.1 -0.15 -14.7 M0.95 -12.9 L1.45 -13.45 1.9 -13.5 2.45 -13.35 3.0 -10.75 3.95 -9.85 4.95 -9.2 5.05 -9.2 6.2 -8.9 7.9 -8.25 Q9.3 -7.55 10.45 -6.45 L11.25 -5.75 11.3 -4.75 10.9 -4.2 10.7 -2.65 10.1 -2.25 8.7 -1.75 8.3 -1.75 7.3 -1.1 6.75 -1.45 5.25 -0.25 3.7 -1.15 4.85 -3.05 4.4 -3.05 2.35 -5.45 1.4 -5.65 0.85 -5.55 -0.7 -6.45 -0.65 -6.5 0.05 -6.95 0.55 -6.8 4.35 -5.0 6.05 -4.2 6.9 -3.7 7.85 -3.4 7.7 -4.65 7.95 -4.95 7.85 -5.6 8.45 -6.1 8.95 -6.6 8.85 -6.9 8.65 -7.2 8.4 -7.5 6.95 -7.95 6.2 -7.25 5.0 -7.4 4.4 -8.2 3.1 -9.15 2.65 -9.4 1.7 -9.85 1.8 -11.2 0.75 -11.75 0.95 -12.9 M-8.4 -5.75 Q-8.1 -8.45 -6.25 -10.55 -6.8 -11.6 -6.35 -12.8 L-5.85 -13.0 -5.1 -12.8 -1.85 -12.65 -1.05 -11.65 -1.8 -11.3 -1.95 -10.8 -2.75 -10.4 -2.6 -9.45 -2.25 -9.2 -2.1 -8.65 -2.5 -7.9 -3.55 -7.5 -3.15 -7.1 -3.25 -5.95 -3.65 -5.8 -4.1 -5.95 -5.3 -8.45 -6.0 -8.0 -5.95 -7.45 Q-5.95 -4.45 -8.4 -5.75 M0.0 -10.35 L-0.2 -10.45 -0.15 -10.5 0.0 -10.35 M-1.25 -7.75 L-0.95 -7.95 Q0.05 -8.85 0.2 -10.15 L0.9 -9.7 1.25 -8.65 1.05 -8.0 Q0.55 -7.75 0.05 -7.55 L-0.45 -7.35 -1.25 -7.75 M6.7 2.85 L5.2 1.65 4.15 0.65 4.65 0.2 5.4 0.0 6.5 1.45 6.75 2.55 6.7 2.85 M-3.6 -5.0 L-2.9 -5.45 -2.0 -5.35 -1.0 -4.0 -0.7 -2.9 -1.55 -1.45 -2.3 -1.45 -3.55 -1.7 -3.85 -2.3 Q-4.4 -3.7 -3.6 -5.0" fill="#ff0000" fill-rule="evenodd" stroke="none"/>
      <path d="M-0.15 -14.7 L-0.8 -14.1 -0.45 -13.25 0.1 -13.1 Q0.6 -12.9 0.9 -13.4 L0.95 -12.9 0.75 -11.75 0.55 -11.6 -0.1 -11.3 -1.05 -11.65 -1.85 -12.65 -1.85 -13.9 -0.15 -14.7 M0.0 -10.35 L0.2 -10.15 Q0.05 -8.85 -0.95 -7.95 L-1.25 -7.75 -1.6 -8.0 -2.1 -8.65 -2.25 -9.2 Q-2.5 -10.3 -1.5 -10.6 L-0.2 -10.45 0.0 -10.35" fill="#ffffff" fill-rule="evenodd" stroke="none"/>
      <path d="M8.7 -1.75 L9.05 -0.75 8.5 0.0 8.15 0.7 Q7.85 1.2 7.1 1.35 L6.5 1.45 5.4 0.0 4.65 0.2 4.15 0.65 5.2 1.65 6.7 2.85 6.8 3.8 6.45 4.35 4.85 4.55 Q4.25 2.9 2.8 1.7 L3.0 -1.15 2.65 -1.85 1.75 -3.4 0.3 -3.2 0.3 -2.7 0.0 -0.95 -1.15 -0.25 -1.95 -0.4 -3.55 -1.7 -2.3 -1.45 -1.55 -1.45 -0.7 -2.9 -1.0 -4.0 -2.0 -5.35 -2.9 -5.45 -3.6 -5.0 -3.65 -5.8 -3.25 -5.95 -3.15 -7.1 -3.55 -7.5 -2.5 -7.9 -2.1 -8.65 -1.6 -8.0 -1.25 -7.75 -0.45 -7.35 0.05 -7.55 0.55 -6.8 0.05 -6.95 -0.65 -6.5 -0.7 -6.45 0.85 -5.55 1.4 -5.65 2.35 -5.45 4.4 -3.05 4.85 -3.05 3.7 -1.15 5.25 -0.25 6.75 -1.45 7.3 -1.1 8.3 -1.75 8.7 -1.75 M0.75 -11.75 L1.8 -11.2 1.7 -9.85 2.65 -9.4 3.1 -9.15 4.4 -8.2 5.0 -7.4 6.2 -7.25 6.95 -7.95 8.4 -7.5 8.65 -7.2 8.85 -6.9 8.95 -6.6 8.45 -6.1 7.85 -5.6 7.95 -4.95 7.7 -4.65 7.85 -3.4 6.9 -3.7 6.05 -4.2 4.35 -5.0 4.6 -5.45 Q4.0 -7.1 2.45 -8.45 L1.25 -8.65 0.9 -9.7 0.2 -10.15 0.0 -10.35 -0.15 -10.5 -0.2 -10.45 -1.5 -10.6 Q-2.5 -10.3 -2.25 -9.2 L-2.6 -9.45 -2.75 -10.4 -1.95 -10.8 -1.8 -11.3 -1.05 -11.65 -0.1 -11.3 0.55 -11.6 0.75 -11.75" fill="#990000" fill-rule="evenodd" stroke="none"/>
      <path d="M4.35 -5.0 L0.55 -6.8 0.05 -7.55 Q0.55 -7.75 1.05 -8.0 L1.25 -8.65 2.45 -8.45 Q4.0 -7.1 4.6 -5.45 L4.35 -5.0" fill="#650101" fill-rule="evenodd" stroke="none"/>
      <path d="M8.15 0.7 L7.2 2.9 7.2 5.6 7.35 6.15 7.05 5.65 6.45 4.35 6.8 3.8 6.7 2.85 6.75 2.55 6.5 1.45 7.1 1.35 Q7.85 1.2 8.15 0.7 M4.75 7.1 Q1.3 5.4 -0.1 5.1 L-0.55 5.0 Q-0.35 2.8 -1.95 -0.4 L-1.15 -0.25 1.6 2.5 3.1 4.35 4.75 7.1 M0.3 -2.7 L0.3 -3.2 1.75 -3.4 2.65 -1.85 0.3 -2.7" fill="#e2b181" fill-rule="evenodd" stroke="none"/>
      <path d="M7.2 2.9 L8.15 4.95 8.2 5.05 10.25 11.65 7.65 9.05 4.75 7.1 3.1 4.35 1.6 2.5 -1.15 -0.25 0.0 -0.95 0.3 -2.7 2.65 -1.85 3.0 -1.15 2.8 1.7 Q4.25 2.9 4.85 4.55 L6.45 4.35 7.05 5.65 7.35 6.15 7.2 5.6 7.2 2.9 M-0.55 5.0 L-3.7 4.5 Q-6.25 4.3 -8.7 4.45 L-11.05 4.55 -11.4 4.8 -10.85 1.3 -9.9 -2.0 -8.5 -5.55 -8.4 -5.75 Q-5.95 -4.45 -5.95 -7.45 L-6.0 -8.0 -5.3 -8.45 -4.1 -5.95 -3.65 -5.8 -3.6 -5.0 Q-4.4 -3.7 -3.85 -2.3 L-3.55 -1.7 -1.95 -0.4 Q-0.35 2.8 -0.55 5.0" fill="#ffcc99" fill-rule="evenodd" stroke="none"/>
      <path d="M-7.35 -3.25 L0.65 -1.1 Q5.45 0.25 7.2 1.35 9.0 2.45 10.25 4.0 L11.25 12.95 Q9.2 10.95 5.65 10.15 L2.45 9.35 -12.0 8.6 Q-13.1 8.65 -16.0 9.75 -13.75 0.8 -12.2 -3.7 L-7.35 -3.25" fill="#2baa77" fill-rule="evenodd" stroke="none"/>
    </g>
    <g id="sprite1" transform="matrix(1.0, 0.0, 0.0, 1.0, 18.1, 36.8)">
      <use ffdec:characterId="2336" height="73.6" transform="matrix(1.0, 0.0, 0.0, 1.0, -18.1, -36.8)" width="36.2" xlink:href="#shape1"/>
    </g>
    <g id="shape1" transform="matrix(1.0, 0.0, 0.0, 1.0, 18.1, 36.8)">
      <path d="M16.25 8.85 Q15.35 6.1 14.45 1.2 L14.95 -4.65 14.45 -8.8 14.45 -8.55 Q11.7 -6.95 10.95 -6.8 11.7 -9.9 11.7 -13.8 11.7 -17.25 10.15 -21.0 L7.45 -26.9 7.45 -27.3 9.4 -25.7 11.45 -23.55 Q8.6 -33.8 -1.65 -33.8 -5.25 -33.8 -8.3 -31.65 -10.7 -29.9 -13.3 -26.3 -16.6 -19.7 -18.1 -15.95 L-18.1 -16.3 Q-18.1 -20.55 -13.95 -27.75 -11.8 -31.55 -9.45 -33.7 L-8.75 -34.35 -8.75 -34.4 Q-7.85 -35.05 -6.15 -35.9 -4.5 -36.8 0.35 -36.8 5.15 -36.8 9.45 -32.75 12.6 -29.8 14.45 -26.55 L14.35 -26.45 14.55 -26.05 Q18.15 -19.9 18.1 -15.5 18.05 -10.05 16.75 3.15 L16.25 8.85" fill="#77ddb4" fill-rule="evenodd" stroke="none"/>
      <path d="M-18.1 -15.95 Q-16.6 -19.7 -13.3 -26.3 -10.7 -29.9 -8.3 -31.65 -5.25 -33.8 -1.65 -33.8 8.6 -33.8 11.45 -23.55 L9.4 -25.7 7.45 -27.3 7.45 -26.9 10.15 -21.0 Q11.7 -17.25 11.7 -13.8 11.7 -9.9 10.95 -6.8 11.7 -6.95 14.45 -8.55 L14.45 -8.8 14.95 -4.65 14.45 1.2 Q15.35 6.1 16.25 8.85 15.45 18.5 15.45 26.05 L16.1 32.4 16.1 36.05 12.75 36.3 10.7 36.45 10.7 30.45 11.15 29.75 9.8 31.45 8.7 32.95 8.45 26.6 Q8.45 22.95 8.95 18.25 L9.95 9.45 9.7 9.45 8.15 13.75 Q7.3 15.8 6.1 17.15 7.65 7.0 7.8 -1.45 L7.9 -10.1 Q7.8 -14.85 6.7 -17.8 L2.1 -16.05 Q-0.85 -15.05 -2.4 -15.05 -5.95 -15.05 -8.6 -17.75 -11.5 -20.65 -10.8 -24.55 L-12.95 -20.3 Q-14.45 -17.05 -14.75 -10.5 -15.05 -4.0 -14.45 1.2 -13.9 6.4 -12.05 12.7 L-10.6 9.55 Q-9.6 7.45 -9.3 6.2 L-9.3 7.6 Q-9.3 10.7 -11.6 23.15 -13.1 31.25 -12.7 36.6 L-14.4 36.5 Q-14.35 34.3 -14.45 32.4 -14.8 29.65 -14.8 24.05 -15.7 16.55 -16.05 10.55 L-17.1 -2.05 -18.1 -15.95" fill="#33cc99" fill-rule="evenodd" stroke="none"/>
      <path d="M-12.7 36.6 Q-13.1 31.25 -11.6 23.15 -9.3 10.7 -9.3 7.6 L-9.3 6.2 Q-9.6 7.45 -10.6 9.55 L-12.05 12.7 Q-13.9 6.4 -14.45 1.2 -15.05 -4.0 -14.75 -10.5 -14.45 -17.05 -12.95 -20.3 L-10.8 -24.55 Q-11.5 -20.65 -8.6 -17.75 -5.95 -15.05 -2.4 -15.05 -0.85 -15.05 2.1 -16.05 L6.7 -17.8 Q7.8 -14.85 7.9 -10.1 L7.8 -1.45 Q7.65 7.0 6.1 17.15 7.3 15.8 8.15 13.75 L9.7 9.45 9.95 9.45 8.95 18.25 Q8.45 22.95 8.45 26.6 L8.7 32.95 9.8 31.45 11.15 29.75 10.7 30.45 10.7 36.45 Q-0.25 37.05 -12.7 36.6" fill="#2baa77" fill-rule="evenodd" stroke="none"/>
    </g>
    <g id="sprite2" transform="matrix(1.0, 0.0, 0.0, 1.0, 50.0, 50.0)">
      <use ffdec:characterId="1080" height="100.0" transform="matrix(1.0, 0.0, 0.0, 1.0, -50.0, -50.0)" width="100.0" xlink:href="#shape2"/>
    </g>
    <g id="shape2" transform="matrix(1.0, 0.0, 0.0, 1.0, 50.0, 50.0)">
      <path d="M50.0 50.0 L-50.0 50.0 -50.0 -50.0 50.0 -50.0 50.0 50.0 Z" fill="none" stroke="#9900ff" stroke-linecap="round" stroke-linejoin="round" stroke-width="0.05"/>
    </g>
  </defs>
</svg>
