<?xml version="1.0" encoding="UTF-8" standalone="no"?>
<svg xmlns:ffdec="https://www.free-decompiler.com/flash" xmlns:xlink="http://www.w3.org/1999/xlink" ffdec:objectType="frame" height="63.65px" width="31.65px" xmlns="http://www.w3.org/2000/svg">
  <g transform="matrix(1.0, 0.0, 0.0, 1.0, 15.85, 32.45)">
    <use ffdec:characterId="1839" height="62.6" transform="matrix(1.0, 0.0, 0.0, 1.0, -15.85, -31.6)" width="31.65" xlink:href="#shape0"/>
  </g>
  <defs>
    <g id="shape0" transform="matrix(1.0, 0.0, 0.0, 1.0, 15.85, 31.6)">
      <path d="M2.05 11.8 L2.5 7.75 2.95 4.0 3.5 -0.65 Q3.6 -2.2 5.25 -4.45 L8.0 -8.25 Q8.85 -9.8 9.4 -12.45 9.9 -14.8 9.9 -16.45 9.9 -19.95 6.85 -22.35 4.1 -24.45 0.15 -24.85 -3.75 -25.3 -6.45 -23.85 -8.75 -23.2 -10.4 -21.2 -12.4 -18.85 -12.8 -16.35 L-13.0 -18.45 -13.5 -14.65 -13.45 -14.1 -13.5 -13.4 Q-13.4 -11.4 -12.5 -9.5 -11.35 -6.95 -9.2 -6.05 -6.35 -6.55 -3.8 -2.95 -1.45 0.35 -0.75 3.05 L-0.65 3.15 -0.65 3.45 -0.6 4.0 -0.25 7.0 0.0 7.75 0.4 9.0 1.05 11.1 -0.25 10.7 -1.0 11.35 -0.9 12.15 -0.75 13.55 -0.25 13.7 Q2.85 14.3 3.2 16.6 L3.2 17.1 3.25 18.85 Q3.4 20.15 4.55 20.15 8.4 19.45 6.6 16.85 L5.35 15.45 3.9 15.05 4.0 14.5 4.4 14.35 4.4 12.85 2.95 12.45 2.05 11.8 M-13.0 12.25 L-13.45 10.25 -13.95 7.75 -14.6 4.0 Q-15.7 -2.45 -15.85 -8.25 -16.15 -16.75 -12.3 -24.25 -8.45 -31.75 0.8 -31.6 10.05 -31.45 13.95 -23.3 15.8 -19.5 15.8 -11.3 15.8 -9.2 13.75 0.25 L12.95 4.0 12.15 7.75 11.7 9.8 11.4 14.25 10.85 18.25 10.6 19.5 8.9 19.8 6.35 20.75 2.5 21.1 Q2.55 17.95 0.75 15.35 L0.0 15.5 Q-2.6 15.95 -2.8 18.8 L-3.4 18.4 -5.4 18.55 -6.3 18.75 -7.2 18.1 -13.0 12.25 M-4.25 12.25 L-4.75 10.45 -5.15 10.25 Q-7.45 9.9 -8.0 12.05 L-7.8 12.55 -7.25 14.95 -5.4 15.0 -4.85 14.45 Q-4.05 13.6 -4.25 12.25" fill="#583a30" fill-rule="evenodd" stroke="none"/>
      <path d="M1.05 11.1 L0.4 9.0 0.0 7.75 -0.25 7.0 -0.6 4.0 -0.65 3.45 -0.65 3.15 -0.75 3.05 Q-1.45 0.35 -3.8 -2.95 -6.35 -6.55 -9.2 -6.05 -11.35 -6.95 -12.5 -9.5 -13.4 -11.4 -13.5 -13.4 L-13.45 -14.1 -13.5 -14.65 -13.0 -18.45 -12.8 -16.35 Q-12.4 -18.85 -10.4 -21.2 -8.75 -23.2 -6.45 -23.85 -3.75 -25.3 0.15 -24.85 4.1 -24.45 6.85 -22.35 9.9 -19.95 9.9 -16.45 9.9 -14.8 9.4 -12.45 8.85 -9.8 8.0 -8.25 L5.25 -4.45 Q3.6 -2.2 3.5 -0.65 L2.95 4.0 2.5 7.75 2.05 11.8 1.05 11.1" fill="#4e332a" fill-rule="evenodd" stroke="none"/>
      <path d="M4.0 14.5 L3.9 15.05 3.2 16.6 Q2.85 14.3 -0.25 13.7 L-0.75 13.55 -0.9 12.15 2.3 13.5 2.4 14.25 4.0 14.5 M6.6 16.85 Q8.4 19.45 4.55 20.15 3.4 20.15 3.25 18.85 L3.2 17.1 3.25 18.15 4.1 19.1 Q5.4 19.9 6.5 18.8 L6.65 18.2 Q6.8 17.45 6.6 16.85 M10.6 19.5 L10.55 20.8 8.25 22.85 7.9 24.85 6.05 25.45 3.05 25.8 2.9 23.25 4.3 23.9 Q5.95 24.8 7.5 24.25 L5.35 23.55 5.0 22.7 7.0 21.7 Q7.95 21.15 8.75 20.4 L6.35 20.75 8.9 19.8 10.6 19.5 M-2.1 26.1 L-3.3 25.45 -3.9 23.5 -2.1 23.5 -2.1 26.1 M-7.05 22.85 L-8.65 21.7 -8.25 20.8 -6.85 21.15 Q-4.8 21.15 -4.05 18.85 L-5.4 18.55 -3.4 18.4 -2.8 18.8 -3.05 20.0 -2.25 20.15 -2.05 21.5 -4.4 22.9 -6.35 22.4 -7.05 22.85 M-11.45 19.85 L-11.5 18.35 -11.3 17.5 -13.0 12.25 -7.2 18.1 -6.3 18.75 -8.6 19.5 -11.45 19.85 M-4.25 12.25 Q-4.05 13.6 -4.85 14.45 L-5.4 15.0 -7.25 14.95 -7.8 12.55 -7.0 13.25 -4.6 13.1 -4.25 12.25" fill="#990000" fill-rule="evenodd" stroke="none"/>
      <path d="M3.05 25.8 Q3.45 28.05 2.9 30.4 L2.8 31.0 -2.0 29.85 -2.1 26.1 -2.1 23.5 2.9 23.25 3.05 25.8" fill="#ffffff" fill-rule="evenodd" stroke="none"/>
      <path d="M2.05 11.8 L2.95 12.45 4.4 12.85 4.4 14.35 4.0 14.5 2.4 14.25 2.3 13.5 -0.9 12.15 -1.0 11.35 -0.25 10.7 1.05 11.1 2.05 11.8 M3.9 15.05 L5.35 15.45 6.6 16.85 Q6.8 17.45 6.65 18.2 L6.5 18.8 Q5.4 19.9 4.1 19.1 L3.25 18.15 3.2 17.1 3.2 16.6 3.9 15.05 M-3.3 25.45 Q-4.6 25.7 -5.85 24.15 L-7.05 22.85 -6.35 22.4 -4.4 22.9 -2.05 21.5 -2.25 20.15 -3.05 20.0 -2.8 18.8 Q-2.6 15.95 0.0 15.5 L0.75 15.35 Q2.55 17.95 2.5 21.1 L6.35 20.75 8.75 20.4 Q7.95 21.15 7.0 21.7 L5.0 22.7 5.35 23.55 7.5 24.25 Q5.95 24.8 4.3 23.9 L2.9 23.25 -2.1 23.5 -3.9 23.5 -3.3 25.45 M-8.65 21.7 Q-10.3 22.65 -11.15 20.75 L-11.45 19.85 -8.6 19.5 -6.3 18.75 -5.4 18.55 -4.05 18.85 Q-4.8 21.15 -6.85 21.15 L-8.25 20.8 -8.65 21.7 M-7.8 12.55 L-8.0 12.05 Q-7.45 9.9 -5.15 10.25 L-4.75 10.45 -4.25 12.25 -4.6 13.1 -7.0 13.25 -7.8 12.55" fill="#ff0000" fill-rule="evenodd" stroke="none"/>
    </g>
  </defs>
</svg>
