<?xml version="1.0" encoding="UTF-8" standalone="no"?>
<svg xmlns:ffdec="https://www.free-decompiler.com/flash" xmlns:xlink="http://www.w3.org/1999/xlink" ffdec:objectType="frame" height="30.0px" width="100.0px" xmlns="http://www.w3.org/2000/svg">
  <g transform="matrix(1.0, 0.0, 0.0, 1.0, 0.0, 0.0)">
    <use ffdec:characterId="372" height="30.0" transform="matrix(1.0, 0.0, 0.0, 1.0, 0.0, 0.0)" width="100.0" xlink:href="#shape0"/>
  </g>
  <defs>
    <g id="shape0" transform="matrix(1.0, 0.0, 0.0, 1.0, 0.0, 0.0)">
      <path d="M0.0 25.0 L0.0 22.55 0.0 7.45 0.0 5.0 Q0.0 0.0 5.0 0.0 L24.95 0.0 75.05 0.0 95.0 0.0 Q100.0 0.0 100.0 5.0 L100.0 7.45 100.0 22.55 100.0 25.0 Q100.0 30.0 95.0 30.0 L75.05 30.0 24.95 30.0 5.0 30.0 Q0.0 30.0 0.0 25.0" fill="#999999" fill-rule="evenodd" stroke="none"/>
    </g>
  </defs>
</svg>
