<?xml version="1.0" encoding="UTF-8" standalone="no"?>
<svg xmlns:ffdec="https://www.free-decompiler.com/flash" xmlns:xlink="http://www.w3.org/1999/xlink" ffdec:objectType="frame" height="60.2px" width="13.4px" xmlns="http://www.w3.org/2000/svg">
  <g transform="matrix(1.0, 0.0, 0.0, 1.0, 6.85, 27.5)">
    <use ffdec:characterId="1937" ffdec:characterName="game_fla.hand2_502" height="17.45" id="hand" transform="matrix(1.0, 0.0, 0.0, 1.0, -6.85, 15.25)" width="12.35" xlink:href="#sprite0"/>
    <use ffdec:characterId="1939" height="40.7" transform="matrix(1.0, 0.0, 0.0, 1.0, -6.45, -24.75)" width="13.0" xlink:href="#shape1"/>
  </g>
  <defs>
    <g id="sprite0" transform="matrix(1.0, 0.0, 0.0, 1.0, 7.05, 5.95)">
      <use ffdec:characterId="1369" height="11.85" transform="matrix(1.0, 0.0, 0.0, 1.0, -5.4, -5.95)" width="10.7" xlink:href="#shape0"/>
    </g>
    <g id="shape0" transform="matrix(1.0, 0.0, 0.0, 1.0, 5.4, 5.95)">
      <path d="M0.7 -5.95 L4.3 -5.95 4.5 -4.95 5.0 -3.0 5.1 -2.7 5.15 -2.5 5.15 -2.4 3.9 1.65 Q3.65 2.7 2.95 3.15 L-1.3 2.25 -1.95 1.95 Q-1.1 3.55 0.7 3.65 L0.2 3.9 -5.3 2.9 -5.4 2.5 -5.15 0.7 -5.05 0.05 -4.45 -0.5 -0.25 -0.8 -0.2 -0.8 -0.2 -0.85 -0.6 -2.8 0.45 -3.8 Q0.9 -4.3 2.3 -4.1 L1.7 -5.15 1.35 -5.25 1.1 -5.3 0.7 -5.95 M-3.7 -3.9 L-3.7 -4.85 -3.7 -5.3 -3.65 -5.35 -3.6 -5.95 -3.0 -5.95 -3.0 -5.4 -3.3 -3.95 -3.7 -3.9" fill="#ffcc99" fill-rule="evenodd" stroke="none"/>
      <path d="M0.7 -5.95 L1.1 -5.3 1.35 -5.25 1.7 -5.15 2.3 -4.1 Q0.9 -4.3 0.45 -3.8 L-0.6 -2.8 -0.2 -0.85 -0.25 -0.8 -4.45 -0.5 -4.1 -1.75 -4.1 -1.9 -3.7 -3.9 -3.3 -3.95 -3.0 -5.4 -3.0 -5.95 0.7 -5.95" fill="#ebbb98" fill-rule="evenodd" stroke="none"/>
      <path d="M-5.3 2.9 L0.2 3.9 0.7 3.65 Q-1.1 3.55 -1.95 1.95 L-1.3 2.25 2.95 3.15 Q3.65 2.7 3.9 1.65 L5.15 -2.4 5.25 0.2 4.8 4.5 4.5 4.75 4.3 5.2 Q2.75 6.15 1.2 5.8 L-1.9 5.25 Q-3.4 5.0 -4.75 4.2 L-5.3 2.9" fill="#e2b181" fill-rule="evenodd" stroke="none"/>
    </g>
    <g id="shape1" transform="matrix(1.0, 0.0, 0.0, 1.0, 6.45, 24.75)">
      <path d="M1.15 -18.5 Q1.25 -19.65 2.25 -22.9 L2.6 -22.9 3.4 -18.35 3.3 -17.65 2.85 -17.15 1.6 -17.0 1.15 -18.5 M-3.4 -18.55 L-2.55 -21.9 Q-1.65 -24.5 -1.15 -24.75 L-1.0 -22.9 -0.75 -21.4 -1.4 -18.3 -2.75 -17.3 Q-3.5 -17.5 -3.4 -18.35 L-3.4 -18.55" fill="#ffffff" fill-rule="evenodd" stroke="none"/>
      <path d="M3.4 -18.35 L5.15 -14.7 4.2 -13.8 -0.95 -15.45 0.0 -15.8 2.7 -15.2 3.1 -15.35 2.85 -17.15 3.3 -17.65 3.4 -18.35 M-5.55 -15.15 Q-5.4 -17.5 -4.2 -18.0 L-3.4 -18.55 -3.4 -18.35 Q-3.5 -17.5 -2.75 -17.3 L-4.65 -15.6 -4.25 -15.35 -3.15 -16.0 -3.8 -14.35 -3.2 -13.05 -1.9 -13.0 -0.7 -10.6 -1.85 -11.15 Q-3.8 -11.9 -4.0 -13.5 L-4.05 -13.9 -4.0 -14.35 -5.0 -13.8 -5.25 -13.95 -5.4 -14.05 -5.45 -14.2 -5.55 -14.65 -5.55 -15.15 M-0.35 -18.7 L1.15 -18.5 1.6 -17.0 Q1.1 -16.7 0.6 -16.55 L-0.4 -16.35 -0.35 -18.7 M4.65 -13.2 L4.8 -13.1 5.0 -12.85 5.25 -11.8 Q5.25 -10.95 4.7 -10.6 L3.85 -10.4 Q3.0 -10.4 2.6 -10.8 L2.25 -11.9 Q2.55 -11.5 3.35 -11.5 L4.45 -11.75 Q4.75 -12.0 4.75 -12.75 L4.65 -13.2 M1.8 -10.2 L2.0 -9.65 2.1 -9.25 2.35 -7.95 Q2.35 -7.05 2.0 -6.5 1.5 -5.75 0.35 -5.75 -0.95 -5.75 -0.75 -6.9 L-0.2 -8.1 0.35 -9.15 -0.1 -6.55 1.05 -6.6 Q2.5 -7.85 1.4 -9.35 L1.8 -10.2 M0.25 -12.4 L-0.2 -12.75 Q-0.75 -13.2 -0.25 -13.8 L0.25 -12.4" fill="#990000" fill-rule="evenodd" stroke="none"/>
      <path d="M4.35 -13.5 L4.65 -13.2 4.75 -12.75 Q4.75 -12.0 4.45 -11.75 L3.35 -11.5 Q2.55 -11.5 2.25 -11.9 L2.1 -12.55 2.35 -13.25 4.35 -13.5 M-0.75 -21.4 L-0.35 -18.7 -0.4 -16.35 0.6 -16.55 Q1.1 -16.7 1.6 -17.0 L2.85 -17.15 3.1 -15.35 2.7 -15.2 0.0 -15.8 -0.95 -15.45 -0.25 -13.8 Q-0.75 -13.2 -0.2 -12.75 L0.25 -12.4 1.65 -11.25 1.8 -10.2 1.4 -9.35 Q2.5 -7.85 1.05 -6.6 L-0.1 -6.55 0.35 -9.15 0.35 -9.3 -0.7 -10.6 -1.9 -13.0 -3.2 -13.05 -3.8 -14.35 -3.15 -16.0 -4.25 -15.35 -4.65 -15.6 -2.75 -17.3 -1.4 -18.3 -0.75 -21.4" fill="#ff0000" fill-rule="evenodd" stroke="none"/>
      <path d="M4.2 -13.8 L4.35 -13.5 2.35 -13.25 2.1 -12.55 2.25 -11.9 2.6 -10.8 2.2 -10.9 1.65 -11.25 0.25 -12.4 -0.25 -13.8 -0.95 -15.45 4.2 -13.8 M4.65 -13.2 L4.8 -13.15 4.8 -13.1 4.65 -13.2 M-5.75 -15.1 L-5.55 -15.15 -5.55 -14.65 -5.45 -14.2 -5.6 -14.4 -5.75 -15.1 M-4.0 -13.5 Q-4.85 -13.55 -5.25 -13.95 L-5.0 -13.8 -4.0 -14.35 -4.05 -13.9 -4.0 -13.5" fill="#ffcc99" fill-rule="evenodd" stroke="none"/>
      <path d="M5.05 -13.0 L5.7 -12.85 5.55 -10.8 Q5.55 -8.9 6.05 -2.45 L6.55 6.15 6.35 9.7 6.0 7.5 4.8 3.15 Q3.75 -0.55 3.75 -1.85 3.75 -4.2 4.65 -10.2 L4.7 -10.6 Q5.25 -10.95 5.25 -11.8 L5.0 -12.85 5.05 -13.0" fill="#ca6868" fill-rule="evenodd" stroke="none"/>
      <path d="M4.8 -13.15 L5.05 -13.0 5.0 -12.85 4.8 -13.1 4.8 -13.15 M6.35 9.7 L6.2 13.5 Q5.9 15.65 1.15 15.9 -3.65 16.1 -5.05 15.1 -6.45 14.1 -6.3 9.7 L-6.2 5.1 -6.3 3.55 -6.25 -2.9 Q-6.15 -8.15 -6.4 -13.05 L-6.45 -14.95 -5.8 -15.1 -5.45 -5.35 Q-4.95 8.15 -5.0 14.75 L-2.95 15.0 -1.35 15.25 3.0 14.75 Q4.75 14.05 4.75 12.0 4.75 8.9 2.9 3.5 1.3 -1.1 2.0 -5.5 L2.15 -5.25 2.25 -5.0 2.0 -6.35 2.0 -6.5 Q2.35 -7.05 2.35 -7.95 L2.1 -9.25 2.2 -10.9 2.6 -10.8 Q3.0 -10.4 3.85 -10.4 L4.7 -10.6 4.65 -10.2 Q3.75 -4.2 3.75 -1.85 3.75 -0.55 4.8 3.15 L6.0 7.5 6.35 9.7" fill="#b74040" fill-rule="evenodd" stroke="none"/>
      <path d="M-5.8 -15.1 L-5.75 -15.1 -5.6 -14.4 -5.45 -14.2 -5.4 -14.05 -5.25 -13.95 Q-4.85 -13.55 -4.0 -13.5 -3.8 -11.9 -1.85 -11.15 L-0.7 -10.6 0.35 -9.3 0.35 -9.15 -0.2 -8.1 -0.75 -6.9 Q-0.95 -5.75 0.35 -5.75 1.5 -5.75 2.0 -6.5 L2.0 -6.35 2.25 -5.0 2.15 -5.25 2.0 -5.5 Q1.3 -1.1 2.9 3.5 4.75 8.9 4.75 12.0 4.75 14.05 3.0 14.75 L-1.35 15.25 -2.95 15.0 -5.0 14.75 Q-4.95 8.15 -5.45 -5.35 L-5.8 -15.1 M1.65 -11.25 L2.2 -10.9 2.1 -9.25 2.0 -9.65 1.8 -10.2 1.65 -11.25" fill="#943939" fill-rule="evenodd" stroke="none"/>
    </g>
  </defs>
</svg>
