<?xml version="1.0" encoding="UTF-8" standalone="no"?>
<svg xmlns:ffdec="https://www.free-decompiler.com/flash" xmlns:xlink="http://www.w3.org/1999/xlink" ffdec:objectType="frame" height="24.15px" width="18.6px" xmlns="http://www.w3.org/2000/svg">
  <g transform="matrix(1.0, 0.0, 0.0, 1.0, 9.7, 14.1)">
    <use ffdec:characterId="1152" height="20.0" transform="matrix(1.0, 0.0, 0.0, 1.0, -7.25, -9.95)" width="15.2" xlink:href="#morphshape0"/>
    <use ffdec:characterId="1153" height="13.85" transform="matrix(1.0, 0.0, 0.0, 1.0, -1.95, -9.45)" width="8.55" xlink:href="#morphshape1"/>
    <use ffdec:characterId="1154" height="18.1" transform="matrix(1.0, 0.0, 0.0, 1.0, -5.75, -9.5)" width="11.1" xlink:href="#morphshape2"/>
    <use ffdec:characterId="1156" height="2.55" transform="matrix(1.0, 0.0, 0.0, 1.0, 3.65, -5.5)" width="3.65" xlink:href="#sprite0"/>
    <use ffdec:characterId="1158" height="5.2" transform="matrix(1.0, 0.0, 0.0, 1.0, -1.4, -13.35)" width="3.35" xlink:href="#sprite1"/>
    <use ffdec:characterId="1160" height="5.6" transform="matrix(1.0, 0.0, 0.0, 1.0, -5.65, -12.85)" width="2.4" xlink:href="#sprite2"/>
    <use ffdec:characterId="1162" height="1.7" transform="matrix(1.0, 0.0, 0.0, 1.0, -9.2, -5.0)" width="3.85" xlink:href="#sprite3"/>
    <use ffdec:characterId="1164" height="1.75" transform="matrix(1.0, 0.0, 0.0, 1.0, -9.7, -0.35)" width="3.15" xlink:href="#sprite4"/>
  </g>
  <defs>
    <g id="morphshape0" transform="matrix(1.0, 0.0, 0.0, 1.0, 7.25, 9.95)">
      <path d="M-7.2 -0.55 Q-7.55 4.3 -3.5 7.15 0.4 9.85 4.95 9.95 5.3 9.6 5.6 9.25 7.15 6.3 7.2 2.6 7.05 -4.4 2.4 -6.2 0.85 -8.95 -0.05 -9.9 L-1.2 -9.95 Q-3.05 -9.9 -4.55 -9.1 L-6.7 -3.5 Q-6.95 -2.0 -7.2 -0.55" fill="#990000" fill-rule="evenodd" stroke="none"/>
      <path d="M-7.2 -0.55 Q-6.95 -2.0 -6.7 -3.5 L-4.55 -9.1 Q-3.05 -9.9 -1.2 -9.95 L-0.05 -9.9 Q0.85 -8.95 2.4 -6.2 7.05 -4.4 7.2 2.6 7.15 6.3 5.6 9.25 5.3 9.6 4.95 9.95 0.4 9.85 -3.5 7.15 -7.55 4.3 -7.2 -0.55 Z" fill="none" stroke="#000000" stroke-linecap="round" stroke-linejoin="round" stroke-opacity="0.0" stroke-width="0.0"/>
    </g>
    <g id="morphshape1" transform="matrix(1.0, 0.0, 0.0, 1.0, 1.95, 9.45)">
      <path d="M-1.95 -8.1 Q-1.75 -6.85 -0.15 -5.95 -1.05 -4.55 1.1 -1.9 3.65 1.15 5.8 2.4 7.3 -2.85 0.8 -5.8 0.9 -6.95 0.6 -7.7 -0.1 -8.45 -0.8 -9.2 -1.9 -10.05 -1.95 -8.1" fill="#fe8989" fill-rule="evenodd" stroke="none"/>
      <path d="M-1.95 -8.1 Q-1.9 -10.05 -0.8 -9.2 -0.1 -8.45 0.6 -7.7 0.9 -6.95 0.8 -5.8 7.3 -2.85 5.8 2.4 3.65 1.15 1.1 -1.9 -1.05 -4.55 -0.15 -5.95 -1.75 -6.85 -1.95 -8.1 Z" fill="none" stroke="#000000" stroke-linecap="round" stroke-linejoin="round" stroke-opacity="0.0" stroke-width="0.0"/>
    </g>
    <g id="morphshape2" transform="matrix(1.0, 0.0, 0.0, 1.0, 5.75, 9.5)">
      <path d="M-5.75 0.9 L-5.75 1.05 Q-5.6 1.95 -4.2 4.3 L-3.5 5.2 Q-1.85 6.85 1.15 6.95 L1.55 7.1 Q2.55 7.5 3.15 8.6 3.8 8.55 4.45 8.5 L5.25 8.5 5.35 7.75 5.3 7.1 5.3 6.8 5.2 6.45 5.1 6.45 4.2 6.1 3.9 6.0 Q2.2 5.35 0.7 4.35 L-0.1 3.8 -0.6 3.35 -1.4 2.05 Q-1.5 1.3 -1.6 0.55 L-1.55 -0.05 Q-1.3 -2.25 0.75 -4.4 L0.75 -4.4 Q2.0 -6.0 3.65 -7.25 L4.3 -7.7 3.2 -8.85 3.0 -9.05 2.1 -8.35 1.5 -7.9 Q-0.7 -6.15 -2.9 -4.45 L-3.65 -3.95 Q-5.2 -2.55 -5.75 0.9" fill="#76015b" fill-rule="evenodd" stroke="none"/>
      <path d="M-5.75 0.9 Q-5.2 -2.55 -3.65 -3.95 L-2.9 -4.45 Q-0.7 -6.15 1.5 -7.9 L2.1 -8.35 3.0 -9.05 3.2 -8.85 4.3 -7.7 3.65 -7.25 Q2.0 -6.0 0.75 -4.4 L0.75 -4.4 Q-1.3 -2.25 -1.55 -0.05 L-1.6 0.55 Q-1.5 1.3 -1.4 2.05 L-0.6 3.35 -0.1 3.8 0.7 4.35 Q2.2 5.35 3.9 6.0 L4.2 6.1 5.1 6.45 5.2 6.45 5.3 6.8 5.3 7.1 5.35 7.75 5.25 8.5 4.45 8.5 Q3.8 8.55 3.15 8.6 2.55 7.5 1.55 7.1 L1.15 6.95 Q-1.85 6.85 -3.5 5.2 L-4.2 4.3 Q-5.6 1.95 -5.75 1.05 L-5.75 0.9 Z" fill="none" stroke="#000000" stroke-linecap="round" stroke-linejoin="round" stroke-opacity="0.0" stroke-width="0.0"/>
    </g>
    <g id="sprite0" transform="matrix(1.0, 0.0, 0.0, 1.0, 1.8, 1.3)">
      <use ffdec:characterId="1155" height="2.55" transform="matrix(1.0, 0.0, 0.0, 1.0, -1.8, -1.3)" width="3.65" xlink:href="#shape0"/>
    </g>
    <g id="shape0" transform="matrix(1.0, 0.0, 0.0, 1.0, 1.8, 1.3)">
      <path d="M-1.8 0.85 L-0.75 0.1 1.85 -1.3 1.85 0.15 Q0.8 0.95 -0.4 1.25 L-1.8 0.85" fill="#ff0000" fill-rule="evenodd" stroke="none"/>
    </g>
    <g id="sprite1" transform="matrix(1.0, 0.0, 0.0, 1.0, 1.65, 2.6)">
      <use ffdec:characterId="1157" height="5.2" transform="matrix(1.0, 0.0, 0.0, 1.0, -1.65, -2.6)" width="3.35" xlink:href="#shape1"/>
    </g>
    <g id="shape1" transform="matrix(1.0, 0.0, 0.0, 1.0, 1.65, 2.6)">
      <path d="M1.7 -1.75 Q0.1 0.35 -0.7 2.6 L-1.65 1.05 -0.65 -0.8 0.8 -2.6 1.7 -1.75" fill="#ff0000" fill-rule="evenodd" stroke="none"/>
    </g>
    <g id="sprite2" transform="matrix(1.0, 0.0, 0.0, 1.0, 1.2, 2.8)">
      <use ffdec:characterId="1159" height="5.6" transform="matrix(1.0, 0.0, 0.0, 1.0, -1.2, -2.8)" width="2.4" xlink:href="#shape2"/>
    </g>
    <g id="shape2" transform="matrix(1.0, 0.0, 0.0, 1.0, 1.2, 2.8)">
      <path d="M-1.05 -2.8 L0.15 -2.8 0.65 -1.3 Q1.3 0.9 1.2 1.8 1.1 2.65 0.5 2.7 L0.0 2.8 -0.05 2.8 -0.75 0.75 -1.2 -1.6 -1.05 -2.8" fill="#ff0000" fill-rule="evenodd" stroke="none"/>
    </g>
    <g id="sprite3" transform="matrix(1.0, 0.0, 0.0, 1.0, 1.95, 0.85)">
      <use ffdec:characterId="1161" height="1.7" transform="matrix(1.0, 0.0, 0.0, 1.0, -1.95, -0.85)" width="3.85" xlink:href="#shape3"/>
    </g>
    <g id="shape3" transform="matrix(1.0, 0.0, 0.0, 1.0, 1.95, 0.85)">
      <path d="M1.75 0.55 L1.3 0.85 -1.95 0.7 -1.95 -0.85 -0.4 -0.75 Q0.85 -0.75 1.9 0.15 L1.75 0.55" fill="#ff0000" fill-rule="evenodd" stroke="none"/>
    </g>
    <g id="sprite4" transform="matrix(1.0, 0.0, 0.0, 1.0, 1.6, 0.85)">
      <use ffdec:characterId="1163" height="1.75" transform="matrix(1.0, 0.0, 0.0, 1.0, -1.6, -0.85)" width="3.15" xlink:href="#shape4"/>
    </g>
    <g id="shape4" transform="matrix(1.0, 0.0, 0.0, 1.0, 1.6, 0.85)">
      <path d="M0.2 -0.85 L1.55 -0.75 1.25 0.35 -0.8 0.9 -1.6 0.85 -1.25 -0.3 0.2 -0.85" fill="#ff0000" fill-rule="evenodd" stroke="none"/>
    </g>
  </defs>
</svg>
