<?xml version="1.0" encoding="UTF-8" standalone="no"?>
<svg xmlns:ffdec="https://www.free-decompiler.com/flash" xmlns:xlink="http://www.w3.org/1999/xlink" ffdec:objectType="frame" height="24.15px" width="18.6px" xmlns="http://www.w3.org/2000/svg">
  <g transform="matrix(1.0, 0.0, 0.0, 1.0, 9.7, 14.1)">
    <use ffdec:characterId="1152" height="20.0" transform="matrix(1.0, 0.0, 0.0, 1.0, -7.25, -9.95)" width="15.2" xlink:href="#morphshape0"/>
    <use ffdec:characterId="1153" height="13.85" transform="matrix(1.0, 0.0, 0.0, 1.0, -1.95, -9.45)" width="8.55" xlink:href="#morphshape1"/>
    <use ffdec:characterId="1154" height="18.1" transform="matrix(1.0, 0.0, 0.0, 1.0, -5.75, -9.5)" width="11.1" xlink:href="#morphshape2"/>
    <use ffdec:characterId="1156" height="2.55" transform="matrix(1.0648, -0.1643, 0.1523, 0.9873, 3.8354, -5.6378)" width="3.65" xlink:href="#sprite0"/>
    <use ffdec:characterId="1158" height="5.2" transform="matrix(0.9827, -0.1789, 0.1929, 1.0598, -1.673, -13.1603)" width="3.35" xlink:href="#sprite1"/>
    <use ffdec:characterId="1160" height="5.6" transform="matrix(0.9985, -0.0483, 0.0496, 1.025, -5.3371, -12.662)" width="2.4" xlink:href="#sprite2"/>
    <use ffdec:characterId="1162" height="1.7" transform="matrix(1.0428, 0.138, -0.1312, 0.9909, -8.9719, -5.0115)" width="3.85" xlink:href="#sprite3"/>
    <use ffdec:characterId="1164" height="1.75" transform="matrix(0.9909, 0.1312, -0.1312, 0.9909, -9.274, -0.2522)" width="3.15" xlink:href="#sprite4"/>
  </g>
  <defs>
    <g id="morphshape0" transform="matrix(1.0, 0.0, 0.0, 1.0, 7.25, 9.95)">
      <path d="M-7.0 0.45 Q-7.4 4.6 -3.8 7.35 -0.25 10.0 3.45 9.95 5.1 9.7 5.8 9.1 7.1 7.2 7.55 1.9 7.9 -5.0 1.95 -6.15 0.85 -9.0 0.25 -9.65 L-1.7 -9.55 Q-3.2 -9.55 -4.2 -8.5 L-6.05 -3.95 Q-6.75 -2.05 -7.05 0.45" fill="#990000" fill-rule="evenodd" stroke="none"/>
      <path d="M-7.05 0.45 Q-6.75 -2.05 -6.05 -3.95 L-4.2 -8.5 Q-3.2 -9.55 -1.7 -9.55 L0.25 -9.65 Q0.85 -9.0 1.95 -6.15 7.9 -5.0 7.55 1.9 7.1 7.2 5.8 9.1 5.1 9.7 3.45 9.95 -0.25 10.0 -3.8 7.35 -7.4 4.6 -7.0 0.45" fill="none" stroke="#000000" stroke-linecap="round" stroke-linejoin="round" stroke-opacity="0.0" stroke-width="0.0"/>
    </g>
    <g id="morphshape1" transform="matrix(1.0, 0.0, 0.0, 1.0, 1.95, 9.45)">
      <path d="M-1.45 -7.25 Q-1.15 -6.05 -0.1 -5.5 -0.3 -3.2 1.85 -0.95 4.2 1.5 5.7 3.4 8.05 -3.15 0.95 -5.3 0.85 -6.6 0.6 -7.7 0.15 -8.4 -0.65 -8.85 -1.6 -9.35 -1.45 -7.2" fill="#fe8989" fill-rule="evenodd" stroke="none"/>
      <path d="M-1.45 -7.2 Q-1.6 -9.35 -0.65 -8.85 0.15 -8.4 0.6 -7.7 0.85 -6.6 0.95 -5.3 8.05 -3.15 5.7 3.4 4.2 1.5 1.85 -0.95 -0.3 -3.2 -0.1 -5.5 -1.15 -6.05 -1.45 -7.25" fill="none" stroke="#000000" stroke-linecap="round" stroke-linejoin="round" stroke-opacity="0.0" stroke-width="0.0"/>
    </g>
    <g id="morphshape2" transform="matrix(1.0, 0.0, 0.0, 1.0, 5.75, 9.5)">
      <path d="M-5.1 0.55 L-5.1 0.6 Q-5.1 2.1 -4.05 4.05 L-3.45 4.95 Q-2.05 6.7 0.95 6.85 L1.3 6.9 Q2.75 7.1 3.25 7.95 3.7 8.15 3.8 8.5 L4.55 8.5 4.95 8.1 5.3 7.8 5.35 7.55 5.35 7.2 5.3 7.1 4.85 6.45 4.65 6.2 Q3.4 5.2 1.45 4.35 L0.7 3.95 0.1 3.65 -1.1 2.6 Q-1.4 2.0 -1.45 1.15 L-1.45 0.5 Q-1.25 -1.3 0.65 -3.85 L0.65 -3.85 Q1.8 -5.5 3.15 -6.95 L3.7 -7.5 3.65 -8.65 3.45 -8.85 2.45 -8.95 1.85 -8.3 Q-0.1 -6.15 -2.1 -4.6 L-2.8 -4.05 Q-4.85 -2.55 -5.2 0.55" fill="#76015b" fill-rule="evenodd" stroke="none"/>
      <path d="M-5.2 0.55 Q-4.85 -2.55 -2.8 -4.05 L-2.1 -4.6 Q-0.1 -6.15 1.85 -8.3 L2.45 -8.95 3.45 -8.85 3.65 -8.65 3.7 -7.5 3.15 -6.95 Q1.8 -5.5 0.65 -3.85 L0.65 -3.85 Q-1.25 -1.3 -1.45 0.5 L-1.45 1.15 Q-1.4 2.0 -1.1 2.6 L0.1 3.65 0.7 3.95 1.45 4.35 Q3.4 5.2 4.65 6.2 L4.85 6.45 5.3 7.1 5.35 7.2 5.35 7.55 5.3 7.8 4.95 8.1 4.55 8.5 3.8 8.5 Q3.7 8.15 3.25 7.95 2.75 7.1 1.3 6.9 L0.95 6.85 Q-2.05 6.7 -3.45 4.95 L-4.05 4.05 Q-5.1 2.1 -5.1 0.6 L-5.1 0.55" fill="none" stroke="#000000" stroke-linecap="round" stroke-linejoin="round" stroke-opacity="0.0" stroke-width="0.0"/>
    </g>
    <g id="sprite0" transform="matrix(1.0, 0.0, 0.0, 1.0, 1.8, 1.3)">
      <use ffdec:characterId="1155" height="2.55" transform="matrix(1.0, 0.0, 0.0, 1.0, -1.8, -1.3)" width="3.65" xlink:href="#shape0"/>
    </g>
    <g id="shape0" transform="matrix(1.0, 0.0, 0.0, 1.0, 1.8, 1.3)">
      <path d="M-1.8 0.85 L-0.75 0.1 1.85 -1.3 1.85 0.15 Q0.8 0.95 -0.4 1.25 L-1.8 0.85" fill="#ff0000" fill-rule="evenodd" stroke="none"/>
    </g>
    <g id="sprite1" transform="matrix(1.0, 0.0, 0.0, 1.0, 1.65, 2.6)">
      <use ffdec:characterId="1157" height="5.2" transform="matrix(1.0, 0.0, 0.0, 1.0, -1.65, -2.6)" width="3.35" xlink:href="#shape1"/>
    </g>
    <g id="shape1" transform="matrix(1.0, 0.0, 0.0, 1.0, 1.65, 2.6)">
      <path d="M1.7 -1.75 Q0.1 0.35 -0.7 2.6 L-1.65 1.05 -0.65 -0.8 0.8 -2.6 1.7 -1.75" fill="#ff0000" fill-rule="evenodd" stroke="none"/>
    </g>
    <g id="sprite2" transform="matrix(1.0, 0.0, 0.0, 1.0, 1.2, 2.8)">
      <use ffdec:characterId="1159" height="5.6" transform="matrix(1.0, 0.0, 0.0, 1.0, -1.2, -2.8)" width="2.4" xlink:href="#shape2"/>
    </g>
    <g id="shape2" transform="matrix(1.0, 0.0, 0.0, 1.0, 1.2, 2.8)">
      <path d="M-1.05 -2.8 L0.15 -2.8 0.65 -1.3 Q1.3 0.9 1.2 1.8 1.1 2.65 0.5 2.7 L0.0 2.8 -0.05 2.8 -0.75 0.75 -1.2 -1.6 -1.05 -2.8" fill="#ff0000" fill-rule="evenodd" stroke="none"/>
    </g>
    <g id="sprite3" transform="matrix(1.0, 0.0, 0.0, 1.0, 1.95, 0.85)">
      <use ffdec:characterId="1161" height="1.7" transform="matrix(1.0, 0.0, 0.0, 1.0, -1.95, -0.85)" width="3.85" xlink:href="#shape3"/>
    </g>
    <g id="shape3" transform="matrix(1.0, 0.0, 0.0, 1.0, 1.95, 0.85)">
      <path d="M1.75 0.55 L1.3 0.85 -1.95 0.7 -1.95 -0.85 -0.4 -0.75 Q0.85 -0.75 1.9 0.15 L1.75 0.55" fill="#ff0000" fill-rule="evenodd" stroke="none"/>
    </g>
    <g id="sprite4" transform="matrix(1.0, 0.0, 0.0, 1.0, 1.6, 0.85)">
      <use ffdec:characterId="1163" height="1.75" transform="matrix(1.0, 0.0, 0.0, 1.0, -1.6, -0.85)" width="3.15" xlink:href="#shape4"/>
    </g>
    <g id="shape4" transform="matrix(1.0, 0.0, 0.0, 1.0, 1.6, 0.85)">
      <path d="M0.2 -0.85 L1.55 -0.75 1.25 0.35 -0.8 0.9 -1.6 0.85 -1.25 -0.3 0.2 -0.85" fill="#ff0000" fill-rule="evenodd" stroke="none"/>
    </g>
  </defs>
</svg>
