<?xml version="1.0" encoding="UTF-8" standalone="no"?>
<svg xmlns:ffdec="https://www.free-decompiler.com/flash" xmlns:xlink="http://www.w3.org/1999/xlink" ffdec:objectType="frame" height="24.15px" width="18.6px" xmlns="http://www.w3.org/2000/svg">
  <g transform="matrix(1.0, 0.0, 0.0, 1.0, 9.7, 14.1)">
    <use ffdec:characterId="1152" height="20.0" transform="matrix(1.0, 0.0, 0.0, 1.0, -7.25, -9.95)" width="15.2" xlink:href="#morphshape0"/>
    <use ffdec:characterId="1153" height="13.85" transform="matrix(1.0, 0.0, 0.0, 1.0, -1.95, -9.45)" width="8.55" xlink:href="#morphshape1"/>
    <use ffdec:characterId="1154" height="18.1" transform="matrix(1.0, 0.0, 0.0, 1.0, -5.75, -9.5)" width="11.1" xlink:href="#morphshape2"/>
    <use ffdec:characterId="1156" height="2.55" transform="matrix(1.0693, -0.1795, 0.1654, 0.9852, 3.9102, -5.6076)" width="3.65" xlink:href="#sprite0"/>
    <use ffdec:characterId="1158" height="5.2" transform="matrix(0.9794, -0.1957, 0.2124, 1.0631, -1.7684, -13.191)" width="3.35" xlink:href="#sprite1"/>
    <use ffdec:characterId="1160" height="5.6" transform="matrix(0.9983, -0.0527, 0.0542, 1.0271, -5.2997, -12.6127)" width="2.4" xlink:href="#sprite2"/>
    <use ffdec:characterId="1162" height="1.7" transform="matrix(1.0455, 0.152, -0.1438, 0.9891, -9.0664, -5.0372)" width="3.85" xlink:href="#sprite3"/>
    <use ffdec:characterId="1164" height="1.75" transform="matrix(0.9891, 0.1438, -0.1438, 0.9891, -9.2103, -0.2209)" width="3.15" xlink:href="#sprite4"/>
  </g>
  <defs>
    <g id="morphshape0" transform="matrix(1.0, 0.0, 0.0, 1.0, 7.25, 9.95)">
      <path d="M-7.05 0.6 Q-7.45 4.7 -3.85 7.45 -0.35 10.1 3.3 10.05 5.05 9.8 5.8 9.15 7.1 7.35 7.55 1.95 7.95 -4.95 1.9 -6.05 0.85 -8.9 0.25 -9.55 L-1.8 -9.45 Q-3.3 -9.45 -4.25 -8.4 L-6.05 -3.95 Q-6.75 -2.05 -7.05 0.55" fill="#990000" fill-rule="evenodd" stroke="none"/>
      <path d="M-7.05 0.55 Q-6.75 -2.05 -6.05 -3.95 L-4.25 -8.4 Q-3.3 -9.45 -1.8 -9.45 L0.25 -9.55 Q0.85 -8.9 1.9 -6.05 7.95 -4.95 7.55 1.95 7.1 7.35 5.8 9.15 5.05 9.8 3.3 10.05 -0.35 10.1 -3.85 7.45 -7.45 4.7 -7.05 0.6" fill="none" stroke="#000000" stroke-linecap="round" stroke-linejoin="round" stroke-opacity="0.0" stroke-width="0.0"/>
    </g>
    <g id="morphshape1" transform="matrix(1.0, 0.0, 0.0, 1.0, 1.95, 9.45)">
      <path d="M-1.45 -7.15 Q-1.15 -5.95 -0.15 -5.4 -0.25 -3.05 1.9 -0.85 4.25 1.55 5.7 3.5 8.15 -3.15 1.0 -5.25 0.9 -6.55 0.65 -7.7 0.2 -8.4 -0.6 -8.8 -1.55 -9.3 -1.4 -7.15" fill="#fe8989" fill-rule="evenodd" stroke="none"/>
      <path d="M-1.4 -7.15 Q-1.55 -9.3 -0.6 -8.8 0.2 -8.4 0.65 -7.7 0.9 -6.55 1.0 -5.25 8.15 -3.15 5.7 3.5 4.25 1.55 1.9 -0.85 -0.25 -3.05 -0.15 -5.4 -1.15 -5.95 -1.45 -7.15" fill="none" stroke="#000000" stroke-linecap="round" stroke-linejoin="round" stroke-opacity="0.0" stroke-width="0.0"/>
    </g>
    <g id="morphshape2" transform="matrix(1.0, 0.0, 0.0, 1.0, 5.75, 9.5)">
      <path d="M-5.05 0.55 L-5.05 0.6 Q-5.05 2.15 -4.0 4.1 L-3.4 5.0 Q-2.0 6.75 1.0 6.9 L1.35 6.95 Q2.8 7.15 3.3 7.95 3.75 8.2 3.8 8.6 L4.55 8.6 5.0 8.2 5.35 7.9 5.4 7.65 5.4 7.3 5.35 7.2 4.9 6.5 4.7 6.25 Q3.45 5.25 1.5 4.4 L0.75 4.0 0.15 3.7 -1.05 2.65 Q-1.35 2.05 -1.4 1.2 L-1.4 0.55 Q-1.2 -1.2 0.7 -3.8 L0.7 -3.8 Q1.85 -5.45 3.15 -6.9 L3.7 -7.45 3.75 -8.6 3.55 -8.8 2.55 -9.0 1.95 -8.35 Q0.0 -6.15 -2.0 -4.6 L-2.7 -4.05 Q-4.8 -2.55 -5.15 0.5" fill="#76015b" fill-rule="evenodd" stroke="none"/>
      <path d="M-5.15 0.5 Q-4.8 -2.55 -2.7 -4.05 L-2.0 -4.6 Q0.0 -6.15 1.95 -8.35 L2.55 -9.0 3.55 -8.8 3.75 -8.6 3.7 -7.45 3.15 -6.9 Q1.85 -5.45 0.7 -3.8 L0.7 -3.8 Q-1.2 -1.2 -1.4 0.55 L-1.4 1.2 Q-1.35 2.05 -1.05 2.65 L0.15 3.7 0.75 4.0 1.5 4.4 Q3.45 5.25 4.7 6.25 L4.9 6.5 5.35 7.2 5.4 7.3 5.4 7.65 5.35 7.9 5.0 8.2 4.55 8.6 3.8 8.6 Q3.75 8.2 3.3 7.95 2.8 7.15 1.35 6.95 L1.0 6.9 Q-2.0 6.75 -3.4 5.0 L-4.0 4.1 Q-5.05 2.15 -5.05 0.6 L-5.05 0.55" fill="none" stroke="#000000" stroke-linecap="round" stroke-linejoin="round" stroke-opacity="0.0" stroke-width="0.0"/>
    </g>
    <g id="sprite0" transform="matrix(1.0, 0.0, 0.0, 1.0, 1.8, 1.3)">
      <use ffdec:characterId="1155" height="2.55" transform="matrix(1.0, 0.0, 0.0, 1.0, -1.8, -1.3)" width="3.65" xlink:href="#shape0"/>
    </g>
    <g id="shape0" transform="matrix(1.0, 0.0, 0.0, 1.0, 1.8, 1.3)">
      <path d="M-1.8 0.85 L-0.75 0.1 1.85 -1.3 1.85 0.15 Q0.8 0.95 -0.4 1.25 L-1.8 0.85" fill="#ff0000" fill-rule="evenodd" stroke="none"/>
    </g>
    <g id="sprite1" transform="matrix(1.0, 0.0, 0.0, 1.0, 1.65, 2.6)">
      <use ffdec:characterId="1157" height="5.2" transform="matrix(1.0, 0.0, 0.0, 1.0, -1.65, -2.6)" width="3.35" xlink:href="#shape1"/>
    </g>
    <g id="shape1" transform="matrix(1.0, 0.0, 0.0, 1.0, 1.65, 2.6)">
      <path d="M1.7 -1.75 Q0.1 0.35 -0.7 2.6 L-1.65 1.05 -0.65 -0.8 0.8 -2.6 1.7 -1.75" fill="#ff0000" fill-rule="evenodd" stroke="none"/>
    </g>
    <g id="sprite2" transform="matrix(1.0, 0.0, 0.0, 1.0, 1.2, 2.8)">
      <use ffdec:characterId="1159" height="5.6" transform="matrix(1.0, 0.0, 0.0, 1.0, -1.2, -2.8)" width="2.4" xlink:href="#shape2"/>
    </g>
    <g id="shape2" transform="matrix(1.0, 0.0, 0.0, 1.0, 1.2, 2.8)">
      <path d="M-1.05 -2.8 L0.15 -2.8 0.65 -1.3 Q1.3 0.9 1.2 1.8 1.1 2.65 0.5 2.7 L0.0 2.8 -0.05 2.8 -0.75 0.75 -1.2 -1.6 -1.05 -2.8" fill="#ff0000" fill-rule="evenodd" stroke="none"/>
    </g>
    <g id="sprite3" transform="matrix(1.0, 0.0, 0.0, 1.0, 1.95, 0.85)">
      <use ffdec:characterId="1161" height="1.7" transform="matrix(1.0, 0.0, 0.0, 1.0, -1.95, -0.85)" width="3.85" xlink:href="#shape3"/>
    </g>
    <g id="shape3" transform="matrix(1.0, 0.0, 0.0, 1.0, 1.95, 0.85)">
      <path d="M1.75 0.55 L1.3 0.85 -1.95 0.7 -1.95 -0.85 -0.4 -0.75 Q0.85 -0.75 1.9 0.15 L1.75 0.55" fill="#ff0000" fill-rule="evenodd" stroke="none"/>
    </g>
    <g id="sprite4" transform="matrix(1.0, 0.0, 0.0, 1.0, 1.6, 0.85)">
      <use ffdec:characterId="1163" height="1.75" transform="matrix(1.0, 0.0, 0.0, 1.0, -1.6, -0.85)" width="3.15" xlink:href="#shape4"/>
    </g>
    <g id="shape4" transform="matrix(1.0, 0.0, 0.0, 1.0, 1.6, 0.85)">
      <path d="M0.2 -0.85 L1.55 -0.75 1.25 0.35 -0.8 0.9 -1.6 0.85 -1.25 -0.3 0.2 -0.85" fill="#ff0000" fill-rule="evenodd" stroke="none"/>
    </g>
  </defs>
</svg>
