<?xml version="1.0" encoding="UTF-8" standalone="no"?>
<svg xmlns:ffdec="https://www.free-decompiler.com/flash" xmlns:xlink="http://www.w3.org/1999/xlink" ffdec:objectType="frame" height="24.15px" width="18.6px" xmlns="http://www.w3.org/2000/svg">
  <g transform="matrix(1.0, 0.0, 0.0, 1.0, 9.7, 14.1)">
    <use ffdec:characterId="1152" height="20.0" transform="matrix(1.0, 0.0, 0.0, 1.0, -7.25, -9.95)" width="15.2" xlink:href="#morphshape0"/>
    <use ffdec:characterId="1153" height="13.85" transform="matrix(1.0, 0.0, 0.0, 1.0, -1.95, -9.45)" width="8.55" xlink:href="#morphshape1"/>
    <use ffdec:characterId="1154" height="18.1" transform="matrix(1.0, 0.0, 0.0, 1.0, -5.75, -9.5)" width="11.1" xlink:href="#morphshape2"/>
    <use ffdec:characterId="1156" height="2.55" transform="matrix(1.0733, -0.1947, 0.1783, 0.9828, 3.8863, -5.6273)" width="3.65" xlink:href="#sprite0"/>
    <use ffdec:characterId="1158" height="5.2" transform="matrix(0.9758, -0.2123, 0.2319, 1.0657, -1.7629, -13.1205)" width="3.35" xlink:href="#sprite1"/>
    <use ffdec:characterId="1160" height="5.6" transform="matrix(0.998, -0.057, 0.0588, 1.0291, -5.2622, -12.613)" width="2.4" xlink:href="#sprite2"/>
    <use ffdec:characterId="1162" height="1.7" transform="matrix(1.0484, 0.1625, -0.1531, 0.9877, -9.0142, -5.0565)" width="3.85" xlink:href="#sprite3"/>
    <use ffdec:characterId="1164" height="1.75" transform="matrix(0.9877, 0.1531, -0.1531, 0.9877, -9.2002, -0.2345)" width="3.15" xlink:href="#sprite4"/>
  </g>
  <defs>
    <g id="morphshape0" transform="matrix(1.0, 0.0, 0.0, 1.0, 7.25, 9.95)">
      <path d="M-7.15 0.6 Q-7.55 4.65 -4.0 7.4 -0.5 10.05 3.05 10.0 4.95 9.75 5.75 9.1 7.05 7.4 7.55 1.85 7.95 -5.05 1.8 -6.1 0.8 -8.95 0.25 -9.55 L-1.85 -9.45 Q-3.3 -9.45 -4.2 -8.4 L-6.0 -4.05 Q-6.75 -2.1 -7.05 0.6" fill="#990000" fill-rule="evenodd" stroke="none"/>
      <path d="M-7.05 0.6 Q-6.75 -2.1 -6.0 -4.05 L-4.2 -8.4 Q-3.3 -9.45 -1.85 -9.45 L0.25 -9.55 Q0.8 -8.95 1.8 -6.1 7.95 -5.05 7.55 1.85 7.05 7.4 5.75 9.1 4.95 9.75 3.05 10.0 -0.5 10.05 -4.0 7.4 -7.55 4.65 -7.15 0.6" fill="none" stroke="#000000" stroke-linecap="round" stroke-linejoin="round" stroke-opacity="0.0" stroke-width="0.0"/>
    </g>
    <g id="morphshape1" transform="matrix(1.0, 0.0, 0.0, 1.0, 1.95, 9.45)">
      <path d="M-1.3 -7.05 Q-1.0 -5.85 -0.05 -5.35 -0.1 -2.9 2.05 -0.75 4.35 1.6 5.75 3.6 8.25 -3.2 1.05 -5.2 0.9 -6.55 0.65 -7.7 0.2 -8.4 -0.6 -8.8 -1.55 -9.25 -1.4 -7.05" fill="#fe8989" fill-rule="evenodd" stroke="none"/>
      <path d="M-1.4 -7.05 Q-1.55 -9.25 -0.6 -8.8 0.2 -8.4 0.65 -7.7 0.9 -6.55 1.05 -5.2 8.25 -3.2 5.75 3.6 4.35 1.6 2.05 -0.75 -0.1 -2.9 -0.05 -5.35 -1.0 -5.85 -1.3 -7.05" fill="none" stroke="#000000" stroke-linecap="round" stroke-linejoin="round" stroke-opacity="0.0" stroke-width="0.0"/>
    </g>
    <g id="morphshape2" transform="matrix(1.0, 0.0, 0.0, 1.0, 5.75, 9.5)">
      <path d="M-5.15 0.45 L-5.15 0.5 Q-5.15 2.1 -4.15 4.0 L-3.55 4.9 Q-2.15 6.65 0.85 6.8 L1.2 6.85 Q2.7 7.05 3.2 7.85 3.65 8.1 3.65 8.55 L4.4 8.55 4.85 8.2 5.25 7.95 5.3 7.7 5.3 7.35 5.25 7.25 4.85 6.55 4.65 6.3 Q3.45 5.25 1.45 4.4 L0.7 4.0 0.1 3.7 -1.15 2.65 Q-1.45 2.1 -1.5 1.25 L-1.5 0.6 Q-1.3 -1.1 0.55 -3.75 L0.55 -3.75 Q1.7 -5.4 3.0 -6.9 L3.55 -7.45 3.7 -8.6 3.5 -8.8 2.5 -9.05 1.9 -8.35 Q-0.05 -6.1 -2.0 -4.6 L-2.7 -4.05 Q-4.8 -2.55 -5.1 0.5" fill="#76015b" fill-rule="evenodd" stroke="none"/>
      <path d="M-5.1 0.5 Q-4.8 -2.55 -2.7 -4.05 L-2.0 -4.6 Q-0.05 -6.1 1.9 -8.35 L2.5 -9.05 3.5 -8.8 3.7 -8.6 3.55 -7.45 3.0 -6.9 Q1.7 -5.4 0.55 -3.75 L0.55 -3.75 Q-1.3 -1.1 -1.5 0.6 L-1.5 1.25 Q-1.45 2.1 -1.15 2.65 L0.1 3.7 0.7 4.0 1.45 4.4 Q3.45 5.25 4.65 6.3 L4.85 6.55 5.25 7.25 5.3 7.35 5.3 7.7 5.25 7.95 4.85 8.2 4.4 8.55 3.65 8.55 Q3.65 8.1 3.2 7.85 2.7 7.05 1.2 6.85 L0.85 6.8 Q-2.15 6.65 -3.55 4.9 L-4.15 4.0 Q-5.15 2.1 -5.15 0.5 L-5.15 0.45" fill="none" stroke="#000000" stroke-linecap="round" stroke-linejoin="round" stroke-opacity="0.0" stroke-width="0.0"/>
    </g>
    <g id="sprite0" transform="matrix(1.0, 0.0, 0.0, 1.0, 1.8, 1.3)">
      <use ffdec:characterId="1155" height="2.55" transform="matrix(1.0, 0.0, 0.0, 1.0, -1.8, -1.3)" width="3.65" xlink:href="#shape0"/>
    </g>
    <g id="shape0" transform="matrix(1.0, 0.0, 0.0, 1.0, 1.8, 1.3)">
      <path d="M-1.8 0.85 L-0.75 0.1 1.85 -1.3 1.85 0.15 Q0.8 0.95 -0.4 1.25 L-1.8 0.85" fill="#ff0000" fill-rule="evenodd" stroke="none"/>
    </g>
    <g id="sprite1" transform="matrix(1.0, 0.0, 0.0, 1.0, 1.65, 2.6)">
      <use ffdec:characterId="1157" height="5.2" transform="matrix(1.0, 0.0, 0.0, 1.0, -1.65, -2.6)" width="3.35" xlink:href="#shape1"/>
    </g>
    <g id="shape1" transform="matrix(1.0, 0.0, 0.0, 1.0, 1.65, 2.6)">
      <path d="M1.7 -1.75 Q0.1 0.35 -0.7 2.6 L-1.65 1.05 -0.65 -0.8 0.8 -2.6 1.7 -1.75" fill="#ff0000" fill-rule="evenodd" stroke="none"/>
    </g>
    <g id="sprite2" transform="matrix(1.0, 0.0, 0.0, 1.0, 1.2, 2.8)">
      <use ffdec:characterId="1159" height="5.6" transform="matrix(1.0, 0.0, 0.0, 1.0, -1.2, -2.8)" width="2.4" xlink:href="#shape2"/>
    </g>
    <g id="shape2" transform="matrix(1.0, 0.0, 0.0, 1.0, 1.2, 2.8)">
      <path d="M-1.05 -2.8 L0.15 -2.8 0.65 -1.3 Q1.3 0.9 1.2 1.8 1.1 2.65 0.5 2.7 L0.0 2.8 -0.05 2.8 -0.75 0.75 -1.2 -1.6 -1.05 -2.8" fill="#ff0000" fill-rule="evenodd" stroke="none"/>
    </g>
    <g id="sprite3" transform="matrix(1.0, 0.0, 0.0, 1.0, 1.95, 0.85)">
      <use ffdec:characterId="1161" height="1.7" transform="matrix(1.0, 0.0, 0.0, 1.0, -1.95, -0.85)" width="3.85" xlink:href="#shape3"/>
    </g>
    <g id="shape3" transform="matrix(1.0, 0.0, 0.0, 1.0, 1.95, 0.85)">
      <path d="M1.75 0.55 L1.3 0.85 -1.95 0.7 -1.95 -0.85 -0.4 -0.75 Q0.85 -0.75 1.9 0.15 L1.75 0.55" fill="#ff0000" fill-rule="evenodd" stroke="none"/>
    </g>
    <g id="sprite4" transform="matrix(1.0, 0.0, 0.0, 1.0, 1.6, 0.85)">
      <use ffdec:characterId="1163" height="1.75" transform="matrix(1.0, 0.0, 0.0, 1.0, -1.6, -0.85)" width="3.15" xlink:href="#shape4"/>
    </g>
    <g id="shape4" transform="matrix(1.0, 0.0, 0.0, 1.0, 1.6, 0.85)">
      <path d="M0.2 -0.85 L1.55 -0.75 1.25 0.35 -0.8 0.9 -1.6 0.85 -1.25 -0.3 0.2 -0.85" fill="#ff0000" fill-rule="evenodd" stroke="none"/>
    </g>
  </defs>
</svg>
