<?xml version="1.0" encoding="UTF-8" standalone="no"?>
<svg xmlns:ffdec="https://www.free-decompiler.com/flash" xmlns:xlink="http://www.w3.org/1999/xlink" ffdec:objectType="frame" height="24.15px" width="18.6px" xmlns="http://www.w3.org/2000/svg">
  <g transform="matrix(1.0, 0.0, 0.0, 1.0, 9.7, 14.1)">
    <use ffdec:characterId="1152" height="20.0" transform="matrix(1.0, 0.0, 0.0, 1.0, -7.25, -9.95)" width="15.2" xlink:href="#morphshape0"/>
    <use ffdec:characterId="1153" height="13.85" transform="matrix(1.0, 0.0, 0.0, 1.0, -1.95, -9.45)" width="8.55" xlink:href="#morphshape1"/>
    <use ffdec:characterId="1154" height="18.1" transform="matrix(1.0, 0.0, 0.0, 1.0, -5.75, -9.5)" width="11.1" xlink:href="#morphshape2"/>
    <use ffdec:characterId="1156" height="2.55" transform="matrix(1.0768, -0.2097, 0.1909, 0.9803, 3.8635, -5.6469)" width="3.65" xlink:href="#sprite0"/>
    <use ffdec:characterId="1158" height="5.2" transform="matrix(0.9728, -0.2255, 0.2477, 1.0685, -1.799, -13.1061)" width="3.35" xlink:href="#sprite1"/>
    <use ffdec:characterId="1160" height="5.6" transform="matrix(0.9977, -0.0613, 0.0633, 1.0309, -5.2245, -12.563)" width="2.4" xlink:href="#sprite2"/>
    <use ffdec:characterId="1162" height="1.7" transform="matrix(1.0504, 0.1763, -0.1655, 0.9857, -8.9576, -5.0317)" width="3.85" xlink:href="#sprite3"/>
    <use ffdec:characterId="1164" height="1.75" transform="matrix(0.9857, 0.1655, -0.1655, 0.9857, -9.1364, -0.2026)" width="3.15" xlink:href="#sprite4"/>
  </g>
  <defs>
    <g id="morphshape0" transform="matrix(1.0, 0.0, 0.0, 1.0, 7.25, 9.95)">
      <path d="M-7.1 0.7 Q-7.5 4.7 -4.0 7.4 -0.55 10.05 2.95 10.0 4.95 9.8 5.75 9.15 7.0 7.55 7.55 1.85 8.0 -5.05 1.75 -6.05 0.8 -8.95 0.25 -9.55 L-1.9 -9.45 Q-3.35 -9.45 -4.2 -8.35 L-5.95 -4.05 Q-6.75 -2.05 -7.05 0.7" fill="#990000" fill-rule="evenodd" stroke="none"/>
      <path d="M-7.05 0.7 Q-6.75 -2.05 -5.95 -4.05 L-4.2 -8.35 Q-3.35 -9.45 -1.9 -9.45 L0.25 -9.55 Q0.8 -8.95 1.75 -6.05 8.0 -5.05 7.55 1.85 7.0 7.55 5.75 9.15 4.95 9.8 2.95 10.0 -0.55 10.05 -4.0 7.4 -7.5 4.7 -7.1 0.7" fill="none" stroke="#000000" stroke-linecap="round" stroke-linejoin="round" stroke-opacity="0.0" stroke-width="0.0"/>
    </g>
    <g id="morphshape1" transform="matrix(1.0, 0.0, 0.0, 1.0, 1.95, 9.45)">
      <path d="M-1.4 -7.0 Q-1.05 -5.8 -0.1 -5.3 -0.1 -2.8 2.05 -0.65 4.35 1.65 5.7 3.7 8.3 -3.2 1.05 -5.15 0.9 -6.5 0.65 -7.7 0.25 -8.4 -0.55 -8.75 -1.5 -9.2 -1.35 -7.0" fill="#fe8989" fill-rule="evenodd" stroke="none"/>
      <path d="M-1.35 -7.0 Q-1.5 -9.2 -0.55 -8.75 0.25 -8.4 0.65 -7.7 0.9 -6.5 1.05 -5.15 8.3 -3.2 5.7 3.7 4.35 1.65 2.05 -0.65 -0.1 -2.8 -0.1 -5.3 -1.05 -5.8 -1.4 -7.0" fill="none" stroke="#000000" stroke-linecap="round" stroke-linejoin="round" stroke-opacity="0.0" stroke-width="0.0"/>
    </g>
    <g id="morphshape2" transform="matrix(1.0, 0.0, 0.0, 1.0, 5.75, 9.5)">
      <path d="M-5.25 0.55 L-5.25 0.6 Q-5.25 2.25 -4.25 4.1 L-3.7 5.0 Q-2.35 6.75 0.65 6.9 L1.0 6.95 Q2.55 7.15 3.05 7.95 3.5 8.2 3.5 8.65 L4.25 8.65 4.75 8.3 5.2 8.05 5.25 7.8 5.25 7.45 5.2 7.3 4.85 6.55 4.7 6.3 Q3.55 5.25 1.5 4.4 L0.75 4.0 0.15 3.7 -1.15 2.7 Q-1.45 2.15 -1.5 1.3 L-1.5 0.65 Q-1.3 -1.05 0.55 -3.7 L0.55 -3.7 Q1.7 -5.35 2.95 -6.85 L3.5 -7.45 3.75 -8.6 3.55 -8.8 2.5 -9.1 1.9 -8.4 Q0.0 -6.15 -1.95 -4.65 L-2.65 -4.1 Q-4.8 -2.55 -5.1 0.45" fill="#76015b" fill-rule="evenodd" stroke="none"/>
      <path d="M-5.1 0.45 Q-4.8 -2.55 -2.65 -4.1 L-1.95 -4.65 Q0.0 -6.15 1.9 -8.4 L2.5 -9.1 3.55 -8.8 3.75 -8.6 3.5 -7.45 2.95 -6.85 Q1.7 -5.35 0.55 -3.7 L0.55 -3.7 Q-1.3 -1.05 -1.5 0.65 L-1.5 1.3 Q-1.45 2.15 -1.15 2.7 L0.15 3.7 0.75 4.0 1.5 4.4 Q3.55 5.25 4.7 6.3 L4.85 6.55 5.2 7.3 5.25 7.45 5.25 7.8 5.2 8.05 4.75 8.3 4.25 8.65 3.5 8.65 Q3.5 8.2 3.05 7.95 2.55 7.15 1.0 6.95 L0.65 6.9 Q-2.35 6.75 -3.7 5.0 L-4.25 4.1 Q-5.25 2.25 -5.25 0.6 L-5.25 0.55" fill="none" stroke="#000000" stroke-linecap="round" stroke-linejoin="round" stroke-opacity="0.0" stroke-width="0.0"/>
    </g>
    <g id="sprite0" transform="matrix(1.0, 0.0, 0.0, 1.0, 1.8, 1.3)">
      <use ffdec:characterId="1155" height="2.55" transform="matrix(1.0, 0.0, 0.0, 1.0, -1.8, -1.3)" width="3.65" xlink:href="#shape0"/>
    </g>
    <g id="shape0" transform="matrix(1.0, 0.0, 0.0, 1.0, 1.8, 1.3)">
      <path d="M-1.8 0.85 L-0.75 0.1 1.85 -1.3 1.85 0.15 Q0.8 0.95 -0.4 1.25 L-1.8 0.85" fill="#ff0000" fill-rule="evenodd" stroke="none"/>
    </g>
    <g id="sprite1" transform="matrix(1.0, 0.0, 0.0, 1.0, 1.65, 2.6)">
      <use ffdec:characterId="1157" height="5.2" transform="matrix(1.0, 0.0, 0.0, 1.0, -1.65, -2.6)" width="3.35" xlink:href="#shape1"/>
    </g>
    <g id="shape1" transform="matrix(1.0, 0.0, 0.0, 1.0, 1.65, 2.6)">
      <path d="M1.7 -1.75 Q0.1 0.35 -0.7 2.6 L-1.65 1.05 -0.65 -0.8 0.8 -2.6 1.7 -1.75" fill="#ff0000" fill-rule="evenodd" stroke="none"/>
    </g>
    <g id="sprite2" transform="matrix(1.0, 0.0, 0.0, 1.0, 1.2, 2.8)">
      <use ffdec:characterId="1159" height="5.6" transform="matrix(1.0, 0.0, 0.0, 1.0, -1.2, -2.8)" width="2.4" xlink:href="#shape2"/>
    </g>
    <g id="shape2" transform="matrix(1.0, 0.0, 0.0, 1.0, 1.2, 2.8)">
      <path d="M-1.05 -2.8 L0.15 -2.8 0.65 -1.3 Q1.3 0.9 1.2 1.8 1.1 2.65 0.5 2.7 L0.0 2.8 -0.05 2.8 -0.75 0.75 -1.2 -1.6 -1.05 -2.8" fill="#ff0000" fill-rule="evenodd" stroke="none"/>
    </g>
    <g id="sprite3" transform="matrix(1.0, 0.0, 0.0, 1.0, 1.95, 0.85)">
      <use ffdec:characterId="1161" height="1.7" transform="matrix(1.0, 0.0, 0.0, 1.0, -1.95, -0.85)" width="3.85" xlink:href="#shape3"/>
    </g>
    <g id="shape3" transform="matrix(1.0, 0.0, 0.0, 1.0, 1.95, 0.85)">
      <path d="M1.75 0.55 L1.3 0.85 -1.95 0.7 -1.95 -0.85 -0.4 -0.75 Q0.85 -0.75 1.9 0.15 L1.75 0.55" fill="#ff0000" fill-rule="evenodd" stroke="none"/>
    </g>
    <g id="sprite4" transform="matrix(1.0, 0.0, 0.0, 1.0, 1.6, 0.85)">
      <use ffdec:characterId="1163" height="1.75" transform="matrix(1.0, 0.0, 0.0, 1.0, -1.6, -0.85)" width="3.15" xlink:href="#shape4"/>
    </g>
    <g id="shape4" transform="matrix(1.0, 0.0, 0.0, 1.0, 1.6, 0.85)">
      <path d="M0.2 -0.85 L1.55 -0.75 1.25 0.35 -0.8 0.9 -1.6 0.85 -1.25 -0.3 0.2 -0.85" fill="#ff0000" fill-rule="evenodd" stroke="none"/>
    </g>
  </defs>
</svg>
