<?xml version="1.0" encoding="UTF-8" standalone="no"?>
<svg xmlns:ffdec="https://www.free-decompiler.com/flash" xmlns:xlink="http://www.w3.org/1999/xlink" ffdec:objectType="frame" height="24.15px" width="18.6px" xmlns="http://www.w3.org/2000/svg">
  <g transform="matrix(1.0, 0.0, 0.0, 1.0, 9.7, 14.1)">
    <use ffdec:characterId="1152" height="20.0" transform="matrix(1.0, 0.0, 0.0, 1.0, -7.25, -9.95)" width="15.2" xlink:href="#morphshape0"/>
    <use ffdec:characterId="1153" height="13.85" transform="matrix(1.0, 0.0, 0.0, 1.0, -1.95, -9.45)" width="8.55" xlink:href="#morphshape1"/>
    <use ffdec:characterId="1154" height="18.1" transform="matrix(1.0, 0.0, 0.0, 1.0, -5.75, -9.5)" width="11.1" xlink:href="#morphshape2"/>
    <use ffdec:characterId="1156" height="2.55" transform="matrix(1.0831, -0.2359, 0.2125, 0.9758, 3.9241, -5.6439)" width="3.65" xlink:href="#sprite0"/>
    <use ffdec:characterId="1158" height="5.2" transform="matrix(0.9663, -0.2511, 0.2787, 1.0727, -1.8691, -13.1247)" width="3.35" xlink:href="#sprite1"/>
    <use ffdec:characterId="1160" height="5.6" transform="matrix(0.9974, -0.0663, 0.0688, 1.0345, -5.1896, -12.6169)" width="2.4" xlink:href="#sprite2"/>
    <use ffdec:characterId="1162" height="1.7" transform="matrix(1.0546, 0.1967, -0.1832, 0.9825, -8.9507, -5.0686)" width="3.85" xlink:href="#sprite3"/>
    <use ffdec:characterId="1164" height="1.75" transform="matrix(0.9825, 0.1832, -0.1832, 0.9825, -9.0662, -0.1783)" width="3.15" xlink:href="#sprite4"/>
  </g>
  <defs>
    <g id="morphshape0" transform="matrix(1.0, 0.0, 0.0, 1.0, 7.25, 9.95)">
      <path d="M-7.0 0.85 Q-7.4 4.75 -3.95 7.45 -0.55 10.1 2.8 10.0 4.95 9.8 5.8 9.1 7.05 7.65 7.65 1.75 8.2 -5.15 1.75 -6.05 0.85 -8.95 0.35 -9.5 L-1.95 -9.35 Q-3.35 -9.35 -4.15 -8.25 L-5.85 -4.1 Q-6.7 -2.05 -7.0 0.85" fill="#990000" fill-rule="evenodd" stroke="none"/>
      <path d="M-7.0 0.85 Q-6.7 -2.05 -5.85 -4.1 L-4.15 -8.25 Q-3.35 -9.35 -1.95 -9.35 L0.35 -9.5 Q0.85 -8.95 1.75 -6.05 8.2 -5.15 7.65 1.75 7.05 7.65 5.8 9.1 4.95 9.8 2.8 10.0 -0.55 10.1 -3.95 7.45 -7.4 4.75 -7.0 0.85 Z" fill="none" stroke="#000000" stroke-linecap="round" stroke-linejoin="round" stroke-opacity="0.0" stroke-width="0.0"/>
    </g>
    <g id="morphshape1" transform="matrix(1.0, 0.0, 0.0, 1.0, 1.95, 9.45)">
      <path d="M-1.25 -6.95 Q-0.9 -5.75 -0.05 -5.3 0.05 -2.65 2.2 -0.55 4.45 1.65 5.7 3.8 8.4 -3.25 1.1 -5.1 0.9 -6.45 0.65 -7.7 0.25 -8.4 -0.55 -8.7 -1.45 -9.1 -1.25 -6.85" fill="#fe8989" fill-rule="evenodd" stroke="none"/>
      <path d="M-1.25 -6.85 Q-1.45 -9.1 -0.55 -8.7 0.25 -8.4 0.65 -7.7 0.9 -6.45 1.1 -5.1 8.4 -3.25 5.7 3.8 4.45 1.65 2.2 -0.55 0.05 -2.65 -0.05 -5.3 -0.9 -5.75 -1.25 -6.95" fill="none" stroke="#000000" stroke-linecap="round" stroke-linejoin="round" stroke-opacity="0.0" stroke-width="0.0"/>
    </g>
    <g id="morphshape2" transform="matrix(1.0, 0.0, 0.0, 1.0, 5.75, 9.5)">
      <path d="M-5.1 0.5 L-5.1 0.55 Q-5.15 2.3 -4.2 4.1 L-3.65 5.0 Q-2.3 6.75 0.7 6.9 L1.05 6.95 Q2.65 7.1 3.15 7.85 3.55 8.15 3.45 8.65 L4.2 8.65 4.75 8.35 5.25 8.15 5.3 7.9 5.3 7.55 5.25 7.4 4.95 6.6 4.8 6.3 Q3.7 5.2 1.6 4.4 L0.85 4.05 0.25 3.8 -1.1 2.8 Q-1.45 2.25 -1.5 1.4 L-1.5 0.75 Q-1.3 -0.9 0.55 -3.6 L0.55 -3.6 Q1.7 -5.25 2.9 -6.8 L3.45 -7.4 3.85 -8.55 3.65 -8.75 2.6 -9.2 2.0 -8.45 Q0.1 -6.15 -1.8 -4.65 L-2.5 -4.1 Q-4.75 -2.55 -5.0 0.4" fill="#76015b" fill-rule="evenodd" stroke="none"/>
      <path d="M-5.0 0.4 Q-4.75 -2.55 -2.5 -4.1 L-1.8 -4.65 Q0.1 -6.15 2.0 -8.45 L2.6 -9.2 3.65 -8.75 3.85 -8.55 3.45 -7.4 2.9 -6.8 Q1.7 -5.25 0.55 -3.6 L0.55 -3.6 Q-1.3 -0.9 -1.5 0.75 L-1.5 1.4 Q-1.45 2.25 -1.1 2.8 L0.25 3.8 0.85 4.05 1.6 4.4 Q3.7 5.2 4.8 6.3 L4.95 6.6 5.25 7.4 5.3 7.55 5.3 7.9 5.25 8.15 4.75 8.35 4.2 8.65 3.45 8.65 Q3.55 8.15 3.15 7.85 2.65 7.1 1.05 6.95 L0.7 6.9 Q-2.3 6.75 -3.65 5.0 L-4.2 4.1 Q-5.15 2.3 -5.1 0.55 L-5.1 0.5" fill="none" stroke="#000000" stroke-linecap="round" stroke-linejoin="round" stroke-opacity="0.0" stroke-width="0.0"/>
    </g>
    <g id="sprite0" transform="matrix(1.0, 0.0, 0.0, 1.0, 1.8, 1.3)">
      <use ffdec:characterId="1155" height="2.55" transform="matrix(1.0, 0.0, 0.0, 1.0, -1.8, -1.3)" width="3.65" xlink:href="#shape0"/>
    </g>
    <g id="shape0" transform="matrix(1.0, 0.0, 0.0, 1.0, 1.8, 1.3)">
      <path d="M-1.8 0.85 L-0.75 0.1 1.85 -1.3 1.85 0.15 Q0.8 0.95 -0.4 1.25 L-1.8 0.85" fill="#ff0000" fill-rule="evenodd" stroke="none"/>
    </g>
    <g id="sprite1" transform="matrix(1.0, 0.0, 0.0, 1.0, 1.65, 2.6)">
      <use ffdec:characterId="1157" height="5.2" transform="matrix(1.0, 0.0, 0.0, 1.0, -1.65, -2.6)" width="3.35" xlink:href="#shape1"/>
    </g>
    <g id="shape1" transform="matrix(1.0, 0.0, 0.0, 1.0, 1.65, 2.6)">
      <path d="M1.7 -1.75 Q0.1 0.35 -0.7 2.6 L-1.65 1.05 -0.65 -0.8 0.8 -2.6 1.7 -1.75" fill="#ff0000" fill-rule="evenodd" stroke="none"/>
    </g>
    <g id="sprite2" transform="matrix(1.0, 0.0, 0.0, 1.0, 1.2, 2.8)">
      <use ffdec:characterId="1159" height="5.6" transform="matrix(1.0, 0.0, 0.0, 1.0, -1.2, -2.8)" width="2.4" xlink:href="#shape2"/>
    </g>
    <g id="shape2" transform="matrix(1.0, 0.0, 0.0, 1.0, 1.2, 2.8)">
      <path d="M-1.05 -2.8 L0.15 -2.8 0.65 -1.3 Q1.3 0.9 1.2 1.8 1.1 2.65 0.5 2.7 L0.0 2.8 -0.05 2.8 -0.75 0.75 -1.2 -1.6 -1.05 -2.8" fill="#ff0000" fill-rule="evenodd" stroke="none"/>
    </g>
    <g id="sprite3" transform="matrix(1.0, 0.0, 0.0, 1.0, 1.95, 0.85)">
      <use ffdec:characterId="1161" height="1.7" transform="matrix(1.0, 0.0, 0.0, 1.0, -1.95, -0.85)" width="3.85" xlink:href="#shape3"/>
    </g>
    <g id="shape3" transform="matrix(1.0, 0.0, 0.0, 1.0, 1.95, 0.85)">
      <path d="M1.75 0.55 L1.3 0.85 -1.95 0.7 -1.95 -0.85 -0.4 -0.75 Q0.85 -0.75 1.9 0.15 L1.75 0.55" fill="#ff0000" fill-rule="evenodd" stroke="none"/>
    </g>
    <g id="sprite4" transform="matrix(1.0, 0.0, 0.0, 1.0, 1.6, 0.85)">
      <use ffdec:characterId="1163" height="1.75" transform="matrix(1.0, 0.0, 0.0, 1.0, -1.6, -0.85)" width="3.15" xlink:href="#shape4"/>
    </g>
    <g id="shape4" transform="matrix(1.0, 0.0, 0.0, 1.0, 1.6, 0.85)">
      <path d="M0.2 -0.85 L1.55 -0.75 1.25 0.35 -0.8 0.9 -1.6 0.85 -1.25 -0.3 0.2 -0.85" fill="#ff0000" fill-rule="evenodd" stroke="none"/>
    </g>
  </defs>
</svg>
