<?xml version="1.0" encoding="UTF-8" standalone="no"?>
<svg xmlns:ffdec="https://www.free-decompiler.com/flash" xmlns:xlink="http://www.w3.org/1999/xlink" ffdec:objectType="frame" height="24.15px" width="18.6px" xmlns="http://www.w3.org/2000/svg">
  <g transform="matrix(1.0, 0.0, 0.0, 1.0, 9.7, 14.1)">
    <use ffdec:characterId="1152" height="20.0" transform="matrix(1.0, 0.0, 0.0, 1.0, -7.25, -9.95)" width="15.2" xlink:href="#morphshape0"/>
    <use ffdec:characterId="1153" height="13.85" transform="matrix(1.0, 0.0, 0.0, 1.0, -1.95, -9.45)" width="8.55" xlink:href="#morphshape1"/>
    <use ffdec:characterId="1154" height="18.1" transform="matrix(1.0, 0.0, 0.0, 1.0, -5.75, -9.5)" width="11.1" xlink:href="#morphshape2"/>
    <use ffdec:characterId="1156" height="2.55" transform="matrix(1.086, -0.247, 0.2214, 0.9737, 3.9573, -5.6713)" width="3.65" xlink:href="#sprite0"/>
    <use ffdec:characterId="1158" height="5.2" transform="matrix(0.963, -0.2635, 0.2939, 1.074, -1.8531, -13.0076)" width="3.35" xlink:href="#sprite1"/>
    <use ffdec:characterId="1160" height="5.6" transform="matrix(0.9971, -0.0704, 0.0732, 1.0359, -5.1514, -12.5661)" width="2.4" xlink:href="#sprite2"/>
    <use ffdec:characterId="1162" height="1.7" transform="matrix(1.0562, 0.2066, -0.1919, 0.9808, -8.9466, -5.0366)" width="3.85" xlink:href="#sprite3"/>
    <use ffdec:characterId="1164" height="1.75" transform="matrix(0.9808, 0.1919, -0.1919, 0.9808, -9.0562, -0.1907)" width="3.15" xlink:href="#sprite4"/>
  </g>
  <defs>
    <g id="morphshape0" transform="matrix(1.0, 0.0, 0.0, 1.0, 7.25, 9.95)">
      <path d="M-6.85 0.95 Q-7.25 4.8 -3.85 7.5 -0.5 10.15 2.8 10.05 5.05 9.85 5.95 9.1 7.15 7.75 7.75 1.7 8.3 -5.2 1.75 -6.05 0.9 -8.95 0.4 -9.5 L-1.95 -9.35 Q-3.3 -9.35 -4.05 -8.2 L-5.75 -4.15 Q-6.65 -2.1 -7.0 0.9" fill="#990000" fill-rule="evenodd" stroke="none"/>
      <path d="M-7.0 0.9 Q-6.65 -2.1 -5.75 -4.15 L-4.05 -8.2 Q-3.3 -9.35 -1.95 -9.35 L0.4 -9.5 Q0.9 -8.95 1.75 -6.05 8.3 -5.2 7.75 1.7 7.15 7.75 5.95 9.1 5.05 9.85 2.8 10.05 -0.5 10.15 -3.85 7.5 -7.25 4.8 -6.85 0.95" fill="none" stroke="#000000" stroke-linecap="round" stroke-linejoin="round" stroke-opacity="0.0" stroke-width="0.0"/>
    </g>
    <g id="morphshape1" transform="matrix(1.0, 0.0, 0.0, 1.0, 1.95, 9.45)">
      <path d="M-1.3 -6.75 Q-0.95 -5.6 -0.15 -5.2 0.0 -2.5 2.15 -0.45 4.4 1.7 5.6 3.9 8.4 -3.25 1.05 -5.05 0.85 -6.45 0.6 -7.75 0.25 -8.4 -0.55 -8.7 -1.45 -9.05 -1.25 -6.8" fill="#fe8989" fill-rule="evenodd" stroke="none"/>
      <path d="M-1.25 -6.8 Q-1.45 -9.05 -0.55 -8.7 0.25 -8.4 0.6 -7.75 0.85 -6.45 1.05 -5.05 8.4 -3.25 5.6 3.9 4.4 1.7 2.15 -0.45 0.0 -2.5 -0.15 -5.2 -0.95 -5.6 -1.3 -6.75" fill="none" stroke="#000000" stroke-linecap="round" stroke-linejoin="round" stroke-opacity="0.0" stroke-width="0.0"/>
    </g>
    <g id="morphshape2" transform="matrix(1.0, 0.0, 0.0, 1.0, 5.75, 9.5)">
      <path d="M-5.0 0.25 L-5.0 0.3 Q-5.05 2.1 -4.15 3.9 L-3.6 4.8 Q-2.3 6.55 0.7 6.7 L1.0 6.75 Q2.65 6.9 3.15 7.6 3.55 7.95 3.4 8.5 L4.1 8.5 4.65 8.25 5.15 8.1 5.2 7.9 5.2 7.55 5.2 7.4 4.95 6.6 4.8 6.3 Q3.75 5.15 1.6 4.35 L0.85 4.0 0.25 3.75 -1.1 2.8 Q-1.45 2.3 -1.5 1.45 L-1.5 0.8 Q-1.35 -0.8 0.45 -3.55 L0.45 -3.55 Q1.6 -5.2 2.8 -6.75 L3.35 -7.35 3.85 -8.5 3.65 -8.7 2.6 -9.2 2.0 -8.45 Q0.15 -6.1 -1.75 -4.65 L-2.45 -4.1 Q-4.7 -2.55 -4.95 0.35" fill="#76015b" fill-rule="evenodd" stroke="none"/>
      <path d="M-4.95 0.35 Q-4.7 -2.55 -2.45 -4.1 L-1.75 -4.65 Q0.15 -6.1 2.0 -8.45 L2.6 -9.2 3.65 -8.7 3.85 -8.5 3.35 -7.35 2.8 -6.75 Q1.6 -5.2 0.45 -3.55 L0.45 -3.55 Q-1.35 -0.8 -1.5 0.8 L-1.5 1.45 Q-1.45 2.3 -1.1 2.8 L0.25 3.75 0.85 4.0 1.6 4.35 Q3.75 5.15 4.8 6.3 L4.95 6.6 5.2 7.4 5.2 7.55 5.2 7.9 5.15 8.1 4.65 8.25 4.1 8.5 3.4 8.5 Q3.55 7.95 3.15 7.6 2.65 6.9 1.0 6.75 L0.7 6.7 Q-2.3 6.55 -3.6 4.8 L-4.15 3.9 Q-5.05 2.1 -5.0 0.3 L-5.0 0.25" fill="none" stroke="#000000" stroke-linecap="round" stroke-linejoin="round" stroke-opacity="0.0" stroke-width="0.0"/>
    </g>
    <g id="sprite0" transform="matrix(1.0, 0.0, 0.0, 1.0, 1.8, 1.3)">
      <use ffdec:characterId="1155" height="2.55" transform="matrix(1.0, 0.0, 0.0, 1.0, -1.8, -1.3)" width="3.65" xlink:href="#shape0"/>
    </g>
    <g id="shape0" transform="matrix(1.0, 0.0, 0.0, 1.0, 1.8, 1.3)">
      <path d="M-1.8 0.85 L-0.75 0.1 1.85 -1.3 1.85 0.15 Q0.8 0.95 -0.4 1.25 L-1.8 0.85" fill="#ff0000" fill-rule="evenodd" stroke="none"/>
    </g>
    <g id="sprite1" transform="matrix(1.0, 0.0, 0.0, 1.0, 1.65, 2.6)">
      <use ffdec:characterId="1157" height="5.2" transform="matrix(1.0, 0.0, 0.0, 1.0, -1.65, -2.6)" width="3.35" xlink:href="#shape1"/>
    </g>
    <g id="shape1" transform="matrix(1.0, 0.0, 0.0, 1.0, 1.65, 2.6)">
      <path d="M1.7 -1.75 Q0.1 0.35 -0.7 2.6 L-1.65 1.05 -0.65 -0.8 0.8 -2.6 1.7 -1.75" fill="#ff0000" fill-rule="evenodd" stroke="none"/>
    </g>
    <g id="sprite2" transform="matrix(1.0, 0.0, 0.0, 1.0, 1.2, 2.8)">
      <use ffdec:characterId="1159" height="5.6" transform="matrix(1.0, 0.0, 0.0, 1.0, -1.2, -2.8)" width="2.4" xlink:href="#shape2"/>
    </g>
    <g id="shape2" transform="matrix(1.0, 0.0, 0.0, 1.0, 1.2, 2.8)">
      <path d="M-1.05 -2.8 L0.15 -2.8 0.65 -1.3 Q1.3 0.9 1.2 1.8 1.1 2.65 0.5 2.7 L0.0 2.8 -0.05 2.8 -0.75 0.75 -1.2 -1.6 -1.05 -2.8" fill="#ff0000" fill-rule="evenodd" stroke="none"/>
    </g>
    <g id="sprite3" transform="matrix(1.0, 0.0, 0.0, 1.0, 1.95, 0.85)">
      <use ffdec:characterId="1161" height="1.7" transform="matrix(1.0, 0.0, 0.0, 1.0, -1.95, -0.85)" width="3.85" xlink:href="#shape3"/>
    </g>
    <g id="shape3" transform="matrix(1.0, 0.0, 0.0, 1.0, 1.95, 0.85)">
      <path d="M1.75 0.55 L1.3 0.85 -1.95 0.7 -1.95 -0.85 -0.4 -0.75 Q0.85 -0.75 1.9 0.15 L1.75 0.55" fill="#ff0000" fill-rule="evenodd" stroke="none"/>
    </g>
    <g id="sprite4" transform="matrix(1.0, 0.0, 0.0, 1.0, 1.6, 0.85)">
      <use ffdec:characterId="1163" height="1.75" transform="matrix(1.0, 0.0, 0.0, 1.0, -1.6, -0.85)" width="3.15" xlink:href="#shape4"/>
    </g>
    <g id="shape4" transform="matrix(1.0, 0.0, 0.0, 1.0, 1.6, 0.85)">
      <path d="M0.2 -0.85 L1.55 -0.75 1.25 0.35 -0.8 0.9 -1.6 0.85 -1.25 -0.3 0.2 -0.85" fill="#ff0000" fill-rule="evenodd" stroke="none"/>
    </g>
  </defs>
</svg>
