<?xml version="1.0" encoding="UTF-8" standalone="no"?>
<svg xmlns:ffdec="https://www.free-decompiler.com/flash" xmlns:xlink="http://www.w3.org/1999/xlink" ffdec:objectType="frame" height="24.15px" width="18.6px" xmlns="http://www.w3.org/2000/svg">
  <g transform="matrix(1.0, 0.0, 0.0, 1.0, 9.7, 14.1)">
    <use ffdec:characterId="1152" height="20.0" transform="matrix(1.0, 0.0, 0.0, 1.0, -7.25, -9.95)" width="15.2" xlink:href="#morphshape0"/>
    <use ffdec:characterId="1153" height="13.85" transform="matrix(1.0, 0.0, 0.0, 1.0, -1.95, -9.45)" width="8.55" xlink:href="#morphshape1"/>
    <use ffdec:characterId="1154" height="18.1" transform="matrix(1.0, 0.0, 0.0, 1.0, -5.75, -9.5)" width="11.1" xlink:href="#morphshape2"/>
    <use ffdec:characterId="1156" height="2.55" transform="matrix(1.0877, -0.2614, 0.2333, 0.9709, 3.9888, -5.6416)" width="3.65" xlink:href="#sprite0"/>
    <use ffdec:characterId="1158" height="5.2" transform="matrix(0.9594, -0.2758, 0.3089, 1.0748, -1.8362, -12.9896)" width="3.35" xlink:href="#sprite1"/>
    <use ffdec:characterId="1160" height="5.6" transform="matrix(0.9967, -0.0745, 0.0775, 1.0373, -5.1631, -12.5649)" width="2.4" xlink:href="#sprite2"/>
    <use ffdec:characterId="1162" height="1.7" transform="matrix(1.0576, 0.2164, -0.2004, 0.9791, -8.892, -5.0043)" width="3.85" xlink:href="#sprite3"/>
    <use ffdec:characterId="1164" height="1.75" transform="matrix(0.9791, 0.2004, -0.2004, 0.9791, -9.0462, -0.1528)" width="3.15" xlink:href="#sprite4"/>
  </g>
  <defs>
    <g id="morphshape0" transform="matrix(1.0, 0.0, 0.0, 1.0, 7.25, 9.95)">
      <path d="M-7.05 0.95 Q-7.45 4.75 -4.05 7.45 -0.7 10.1 2.55 10.0 4.9 9.8 5.85 9.05 7.05 7.75 7.7 1.65 8.3 -5.25 1.7 -6.05 0.85 -8.95 0.4 -9.45 L-2.0 -9.3 Q-3.35 -9.3 -4.05 -8.15 L-5.75 -4.15 Q-6.65 -2.05 -7.0 1.0" fill="#990000" fill-rule="evenodd" stroke="none"/>
      <path d="M-7.0 1.0 Q-6.65 -2.05 -5.75 -4.15 L-4.05 -8.15 Q-3.35 -9.3 -2.0 -9.3 L0.4 -9.45 Q0.85 -8.95 1.7 -6.05 8.3 -5.25 7.7 1.65 7.05 7.75 5.85 9.05 4.9 9.8 2.55 10.0 -0.7 10.1 -4.05 7.45 -7.45 4.75 -7.05 0.95" fill="none" stroke="#000000" stroke-linecap="round" stroke-linejoin="round" stroke-opacity="0.0" stroke-width="0.0"/>
    </g>
    <g id="morphshape1" transform="matrix(1.0, 0.0, 0.0, 1.0, 1.95, 9.45)">
      <path d="M-1.25 -6.65 Q-0.9 -5.5 -0.1 -5.1 0.1 -2.35 2.25 -0.35 4.5 1.75 5.65 4.0 8.5 -3.25 1.1 -5.0 0.9 -6.4 0.65 -7.7 0.3 -8.35 -0.5 -8.65 -1.4 -9.0 -1.2 -6.75" fill="#fe8989" fill-rule="evenodd" stroke="none"/>
      <path d="M-1.2 -6.75 Q-1.4 -9.0 -0.5 -8.65 0.3 -8.35 0.65 -7.7 0.9 -6.4 1.1 -5.0 8.5 -3.25 5.65 4.0 4.5 1.75 2.25 -0.35 0.1 -2.35 -0.1 -5.1 -0.9 -5.5 -1.25 -6.65" fill="none" stroke="#000000" stroke-linecap="round" stroke-linejoin="round" stroke-opacity="0.0" stroke-width="0.0"/>
    </g>
    <g id="morphshape2" transform="matrix(1.0, 0.0, 0.0, 1.0, 5.75, 9.5)">
      <path d="M-5.0 0.2 L-5.0 0.25 Q-5.05 2.1 -4.15 3.85 L-3.6 4.75 Q-2.3 6.5 0.7 6.65 L1.0 6.7 Q2.65 6.85 3.15 7.55 3.55 7.9 3.4 8.5 L4.1 8.5 4.65 8.25 5.2 8.1 5.25 7.9 5.25 7.55 5.25 7.4 5.0 6.6 4.85 6.3 Q3.8 5.15 1.65 4.35 L0.9 4.0 0.3 3.75 -1.1 2.8 Q-1.45 2.3 -1.5 1.45 L-1.5 0.8 Q-1.35 -0.75 0.45 -3.55 L0.45 -3.55 Q1.6 -5.2 2.8 -6.75 L3.35 -7.35 3.9 -8.5 3.7 -8.7 2.65 -9.25 2.05 -8.5 Q0.2 -6.1 -1.7 -4.65 L-2.4 -4.1 Q-4.7 -2.55 -4.95 0.35" fill="#76015b" fill-rule="evenodd" stroke="none"/>
      <path d="M-4.95 0.35 Q-4.7 -2.55 -2.4 -4.1 L-1.7 -4.65 Q0.2 -6.1 2.05 -8.5 L2.65 -9.25 3.7 -8.7 3.9 -8.5 3.35 -7.35 2.8 -6.75 Q1.6 -5.2 0.45 -3.55 L0.45 -3.55 Q-1.35 -0.75 -1.5 0.8 L-1.5 1.45 Q-1.45 2.3 -1.1 2.8 L0.3 3.75 0.9 4.0 1.65 4.35 Q3.8 5.15 4.85 6.3 L5.0 6.6 5.25 7.4 5.25 7.55 5.25 7.9 5.2 8.1 4.65 8.25 4.1 8.5 3.4 8.5 Q3.55 7.9 3.15 7.55 2.65 6.85 1.0 6.7 L0.7 6.65 Q-2.3 6.5 -3.6 4.75 L-4.15 3.85 Q-5.05 2.1 -5.0 0.25 L-5.0 0.2" fill="none" stroke="#000000" stroke-linecap="round" stroke-linejoin="round" stroke-opacity="0.0" stroke-width="0.0"/>
    </g>
    <g id="sprite0" transform="matrix(1.0, 0.0, 0.0, 1.0, 1.8, 1.3)">
      <use ffdec:characterId="1155" height="2.55" transform="matrix(1.0, 0.0, 0.0, 1.0, -1.8, -1.3)" width="3.65" xlink:href="#shape0"/>
    </g>
    <g id="shape0" transform="matrix(1.0, 0.0, 0.0, 1.0, 1.8, 1.3)">
      <path d="M-1.8 0.85 L-0.75 0.1 1.85 -1.3 1.85 0.15 Q0.8 0.95 -0.4 1.25 L-1.8 0.85" fill="#ff0000" fill-rule="evenodd" stroke="none"/>
    </g>
    <g id="sprite1" transform="matrix(1.0, 0.0, 0.0, 1.0, 1.65, 2.6)">
      <use ffdec:characterId="1157" height="5.2" transform="matrix(1.0, 0.0, 0.0, 1.0, -1.65, -2.6)" width="3.35" xlink:href="#shape1"/>
    </g>
    <g id="shape1" transform="matrix(1.0, 0.0, 0.0, 1.0, 1.65, 2.6)">
      <path d="M1.7 -1.75 Q0.1 0.35 -0.7 2.6 L-1.65 1.05 -0.65 -0.8 0.8 -2.6 1.7 -1.75" fill="#ff0000" fill-rule="evenodd" stroke="none"/>
    </g>
    <g id="sprite2" transform="matrix(1.0, 0.0, 0.0, 1.0, 1.2, 2.8)">
      <use ffdec:characterId="1159" height="5.6" transform="matrix(1.0, 0.0, 0.0, 1.0, -1.2, -2.8)" width="2.4" xlink:href="#shape2"/>
    </g>
    <g id="shape2" transform="matrix(1.0, 0.0, 0.0, 1.0, 1.2, 2.8)">
      <path d="M-1.05 -2.8 L0.15 -2.8 0.65 -1.3 Q1.3 0.9 1.2 1.8 1.1 2.65 0.5 2.7 L0.0 2.8 -0.05 2.8 -0.75 0.75 -1.2 -1.6 -1.05 -2.8" fill="#ff0000" fill-rule="evenodd" stroke="none"/>
    </g>
    <g id="sprite3" transform="matrix(1.0, 0.0, 0.0, 1.0, 1.95, 0.85)">
      <use ffdec:characterId="1161" height="1.7" transform="matrix(1.0, 0.0, 0.0, 1.0, -1.95, -0.85)" width="3.85" xlink:href="#shape3"/>
    </g>
    <g id="shape3" transform="matrix(1.0, 0.0, 0.0, 1.0, 1.95, 0.85)">
      <path d="M1.75 0.55 L1.3 0.85 -1.95 0.7 -1.95 -0.85 -0.4 -0.75 Q0.85 -0.75 1.9 0.15 L1.75 0.55" fill="#ff0000" fill-rule="evenodd" stroke="none"/>
    </g>
    <g id="sprite4" transform="matrix(1.0, 0.0, 0.0, 1.0, 1.6, 0.85)">
      <use ffdec:characterId="1163" height="1.75" transform="matrix(1.0, 0.0, 0.0, 1.0, -1.6, -0.85)" width="3.15" xlink:href="#shape4"/>
    </g>
    <g id="shape4" transform="matrix(1.0, 0.0, 0.0, 1.0, 1.6, 0.85)">
      <path d="M0.2 -0.85 L1.55 -0.75 1.25 0.35 -0.8 0.9 -1.6 0.85 -1.25 -0.3 0.2 -0.85" fill="#ff0000" fill-rule="evenodd" stroke="none"/>
    </g>
  </defs>
</svg>
