<?xml version="1.0" encoding="UTF-8" standalone="no"?>
<svg xmlns:ffdec="https://www.free-decompiler.com/flash" xmlns:xlink="http://www.w3.org/1999/xlink" ffdec:objectType="frame" height="24.15px" width="18.6px" xmlns="http://www.w3.org/2000/svg">
  <g transform="matrix(1.0, 0.0, 0.0, 1.0, 9.7, 14.1)">
    <use ffdec:characterId="1152" height="20.0" transform="matrix(1.0, 0.0, 0.0, 1.0, -7.25, -9.95)" width="15.2" xlink:href="#morphshape0"/>
    <use ffdec:characterId="1153" height="13.85" transform="matrix(1.0, 0.0, 0.0, 1.0, -1.95, -9.45)" width="8.55" xlink:href="#morphshape1"/>
    <use ffdec:characterId="1154" height="18.1" transform="matrix(1.0, 0.0, 0.0, 1.0, -5.75, -9.5)" width="11.1" xlink:href="#morphshape2"/>
    <use ffdec:characterId="1156" height="2.55" transform="matrix(1.0914, -0.2826, 0.2502, 0.9665, 4.0101, -5.6479)" width="3.65" xlink:href="#sprite0"/>
    <use ffdec:characterId="1158" height="5.2" transform="matrix(0.9531, -0.2964, 0.3346, 1.0763, -1.9427, -12.9093)" width="3.35" xlink:href="#sprite1"/>
    <use ffdec:characterId="1160" height="5.6" transform="matrix(0.9963, -0.0791, 0.0826, 1.0399, -5.1269, -12.5166)" width="2.4" xlink:href="#sprite2"/>
    <use ffdec:characterId="1162" height="1.7" transform="matrix(1.0595, 0.2355, -0.2169, 0.9755, -8.9318, -5.0385)" width="3.85" xlink:href="#sprite3"/>
    <use ffdec:characterId="1164" height="1.75" transform="matrix(0.9755, 0.2169, -0.2169, 0.9755, -8.9764, -0.1761)" width="3.15" xlink:href="#sprite4"/>
  </g>
  <defs>
    <g id="morphshape0" transform="matrix(1.0, 0.0, 0.0, 1.0, 7.25, 9.95)">
      <path d="M-6.95 1.05 Q-7.35 4.75 -4.0 7.45 -0.7 10.1 2.45 10.0 4.95 9.8 5.9 9.05 7.05 7.85 7.75 1.55 8.4 -5.3 1.65 -6.05 0.85 -8.95 0.4 -9.45 L-2.1 -9.3 Q-3.4 -9.3 -4.05 -8.1 L-5.7 -4.2 Q-6.65 -2.05 -7.0 1.1" fill="#990000" fill-rule="evenodd" stroke="none"/>
      <path d="M-7.0 1.1 Q-6.65 -2.05 -5.7 -4.2 L-4.05 -8.1 Q-3.4 -9.3 -2.1 -9.3 L0.4 -9.45 Q0.85 -8.95 1.65 -6.05 8.4 -5.3 7.75 1.55 7.05 7.85 5.9 9.05 4.95 9.8 2.45 10.0 -0.7 10.1 -4.0 7.45 -7.35 4.75 -6.95 1.05" fill="none" stroke="#000000" stroke-linecap="round" stroke-linejoin="round" stroke-opacity="0.0" stroke-width="0.0"/>
    </g>
    <g id="morphshape1" transform="matrix(1.0, 0.0, 0.0, 1.0, 1.95, 9.45)">
      <path d="M-1.15 -6.65 Q-0.8 -5.5 -0.1 -5.15 0.2 -2.3 2.35 -0.3 4.55 1.75 5.65 4.05 8.6 -3.35 1.15 -5.0 0.9 -6.4 0.65 -7.75 0.35 -8.4 -0.5 -8.65 -1.4 -8.95 -1.15 -6.65" fill="#fe8989" fill-rule="evenodd" stroke="none"/>
      <path d="M-1.15 -6.65 Q-1.4 -8.95 -0.5 -8.65 0.35 -8.4 0.65 -7.75 0.9 -6.4 1.15 -5.0 8.6 -3.35 5.65 4.05 4.55 1.75 2.35 -0.3 0.2 -2.3 -0.1 -5.15 -0.8 -5.5 -1.15 -6.65 Z" fill="none" stroke="#000000" stroke-linecap="round" stroke-linejoin="round" stroke-opacity="0.0" stroke-width="0.0"/>
    </g>
    <g id="morphshape2" transform="matrix(1.0, 0.0, 0.0, 1.0, 5.75, 9.5)">
      <path d="M-4.75 0.4 L-4.75 0.4 Q-4.8 2.3 -3.95 4.0 L-3.4 4.9 Q-2.15 6.7 0.85 6.85 L1.15 6.85 Q2.85 6.95 3.3 7.65 3.65 8.0 3.4 8.6 L4.1 8.6 4.7 8.4 5.3 8.3 5.35 8.1 5.4 7.75 5.4 7.6 5.2 6.75 5.05 6.45 Q4.05 5.25 1.85 4.45 L1.1 4.1 0.45 3.85 -1.0 2.95 Q-1.4 2.45 -1.45 1.55 L-1.45 0.9 Q-1.3 -0.65 0.5 -3.45 L0.5 -3.45 Q1.6 -5.1 2.75 -6.7 L3.25 -7.3 3.9 -8.45 3.7 -8.65 2.65 -9.3 2.05 -8.5 Q0.25 -6.1 -1.6 -4.65 L-2.3 -4.1 Q-4.65 -2.55 -4.85 0.3" fill="#76015b" fill-rule="evenodd" stroke="none"/>
      <path d="M-4.85 0.3 Q-4.65 -2.55 -2.3 -4.1 L-1.6 -4.65 Q0.25 -6.1 2.05 -8.5 L2.65 -9.3 3.7 -8.65 3.9 -8.45 3.25 -7.3 2.75 -6.7 Q1.6 -5.1 0.5 -3.45 L0.5 -3.45 Q-1.3 -0.65 -1.45 0.9 L-1.45 1.55 Q-1.4 2.45 -1.0 2.95 L0.45 3.85 1.1 4.1 1.85 4.45 Q4.05 5.25 5.05 6.45 L5.2 6.75 5.4 7.6 5.4 7.75 5.35 8.1 5.3 8.3 4.7 8.4 4.1 8.6 3.4 8.6 Q3.65 8.0 3.3 7.65 2.85 6.95 1.15 6.85 L0.85 6.85 Q-2.15 6.7 -3.4 4.9 L-3.95 4.0 Q-4.8 2.3 -4.75 0.4 L-4.75 0.4" fill="none" stroke="#000000" stroke-linecap="round" stroke-linejoin="round" stroke-opacity="0.0" stroke-width="0.0"/>
    </g>
    <g id="sprite0" transform="matrix(1.0, 0.0, 0.0, 1.0, 1.8, 1.3)">
      <use ffdec:characterId="1155" height="2.55" transform="matrix(1.0, 0.0, 0.0, 1.0, -1.8, -1.3)" width="3.65" xlink:href="#shape0"/>
    </g>
    <g id="shape0" transform="matrix(1.0, 0.0, 0.0, 1.0, 1.8, 1.3)">
      <path d="M-1.8 0.85 L-0.75 0.1 1.85 -1.3 1.85 0.15 Q0.8 0.95 -0.4 1.25 L-1.8 0.85" fill="#ff0000" fill-rule="evenodd" stroke="none"/>
    </g>
    <g id="sprite1" transform="matrix(1.0, 0.0, 0.0, 1.0, 1.65, 2.6)">
      <use ffdec:characterId="1157" height="5.2" transform="matrix(1.0, 0.0, 0.0, 1.0, -1.65, -2.6)" width="3.35" xlink:href="#shape1"/>
    </g>
    <g id="shape1" transform="matrix(1.0, 0.0, 0.0, 1.0, 1.65, 2.6)">
      <path d="M1.7 -1.75 Q0.1 0.35 -0.7 2.6 L-1.65 1.05 -0.65 -0.8 0.8 -2.6 1.7 -1.75" fill="#ff0000" fill-rule="evenodd" stroke="none"/>
    </g>
    <g id="sprite2" transform="matrix(1.0, 0.0, 0.0, 1.0, 1.2, 2.8)">
      <use ffdec:characterId="1159" height="5.6" transform="matrix(1.0, 0.0, 0.0, 1.0, -1.2, -2.8)" width="2.4" xlink:href="#shape2"/>
    </g>
    <g id="shape2" transform="matrix(1.0, 0.0, 0.0, 1.0, 1.2, 2.8)">
      <path d="M-1.05 -2.8 L0.15 -2.8 0.65 -1.3 Q1.3 0.9 1.2 1.8 1.1 2.65 0.5 2.7 L0.0 2.8 -0.05 2.8 -0.75 0.75 -1.2 -1.6 -1.05 -2.8" fill="#ff0000" fill-rule="evenodd" stroke="none"/>
    </g>
    <g id="sprite3" transform="matrix(1.0, 0.0, 0.0, 1.0, 1.95, 0.85)">
      <use ffdec:characterId="1161" height="1.7" transform="matrix(1.0, 0.0, 0.0, 1.0, -1.95, -0.85)" width="3.85" xlink:href="#shape3"/>
    </g>
    <g id="shape3" transform="matrix(1.0, 0.0, 0.0, 1.0, 1.95, 0.85)">
      <path d="M1.75 0.55 L1.3 0.85 -1.95 0.7 -1.95 -0.85 -0.4 -0.75 Q0.85 -0.75 1.9 0.15 L1.75 0.55" fill="#ff0000" fill-rule="evenodd" stroke="none"/>
    </g>
    <g id="sprite4" transform="matrix(1.0, 0.0, 0.0, 1.0, 1.6, 0.85)">
      <use ffdec:characterId="1163" height="1.75" transform="matrix(1.0, 0.0, 0.0, 1.0, -1.6, -0.85)" width="3.15" xlink:href="#shape4"/>
    </g>
    <g id="shape4" transform="matrix(1.0, 0.0, 0.0, 1.0, 1.6, 0.85)">
      <path d="M0.2 -0.85 L1.55 -0.75 1.25 0.35 -0.8 0.9 -1.6 0.85 -1.25 -0.3 0.2 -0.85" fill="#ff0000" fill-rule="evenodd" stroke="none"/>
    </g>
  </defs>
</svg>
