<?xml version="1.0" encoding="UTF-8" standalone="no"?>
<svg xmlns:ffdec="https://www.free-decompiler.com/flash" xmlns:xlink="http://www.w3.org/1999/xlink" ffdec:objectType="frame" height="24.15px" width="18.6px" xmlns="http://www.w3.org/2000/svg">
  <g transform="matrix(1.0, 0.0, 0.0, 1.0, 9.7, 14.1)">
    <use ffdec:characterId="1152" height="20.0" transform="matrix(1.0, 0.0, 0.0, 1.0, -7.25, -9.95)" width="15.2" xlink:href="#morphshape0"/>
    <use ffdec:characterId="1153" height="13.85" transform="matrix(1.0, 0.0, 0.0, 1.0, -1.95, -9.45)" width="8.55" xlink:href="#morphshape1"/>
    <use ffdec:characterId="1154" height="18.1" transform="matrix(1.0, 0.0, 0.0, 1.0, -5.75, -9.5)" width="11.1" xlink:href="#morphshape2"/>
    <use ffdec:characterId="1156" height="2.55" transform="matrix(1.0937, -0.2892, 0.2552, 0.9652, 4.0495, -5.7341)" width="3.65" xlink:href="#sprite0"/>
    <use ffdec:characterId="1158" height="5.2" transform="matrix(0.9504, -0.3048, 0.3453, 1.077, -1.9661, -12.9972)" width="3.35" xlink:href="#sprite1"/>
    <use ffdec:characterId="1160" height="5.6" transform="matrix(0.996, -0.083, 0.0867, 1.0408, -5.0881, -12.5147)" width="2.4" xlink:href="#sprite2"/>
    <use ffdec:characterId="1162" height="1.7" transform="matrix(1.0609, 0.2414, -0.2217, 0.9744, -8.9303, -5.0489)" width="3.85" xlink:href="#sprite3"/>
    <use ffdec:characterId="1164" height="1.75" transform="matrix(0.9744, 0.2217, -0.2217, 0.9744, -8.9706, -0.1829)" width="3.15" xlink:href="#sprite4"/>
  </g>
  <defs>
    <g id="morphshape0" transform="matrix(1.0, 0.0, 0.0, 1.0, 7.25, 9.95)">
      <path d="M-6.9 1.1 Q-7.3 4.8 -4.0 7.5 -0.7 10.15 2.4 10.05 4.95 9.85 5.95 9.05 7.1 7.9 7.8 1.5 8.45 -5.35 1.65 -6.05 0.9 -8.95 0.5 -9.4 L-2.05 -9.25 Q-3.35 -9.25 -4.0 -8.05 L-5.65 -4.2 Q-6.65 -2.05 -7.0 1.15" fill="#990000" fill-rule="evenodd" stroke="none"/>
      <path d="M-7.0 1.15 Q-6.65 -2.05 -5.65 -4.2 L-4.0 -8.05 Q-3.35 -9.25 -2.05 -9.25 L0.5 -9.4 Q0.9 -8.95 1.65 -6.05 8.45 -5.35 7.8 1.5 7.1 7.9 5.95 9.05 4.95 9.85 2.4 10.05 -0.7 10.15 -4.0 7.5 -7.3 4.8 -6.9 1.1" fill="none" stroke="#000000" stroke-linecap="round" stroke-linejoin="round" stroke-opacity="0.0" stroke-width="0.0"/>
    </g>
    <g id="morphshape1" transform="matrix(1.0, 0.0, 0.0, 1.0, 1.95, 9.45)">
      <path d="M-1.05 -6.6 Q-0.7 -5.45 0.0 -5.1 0.3 -2.2 2.45 -0.25 4.65 1.75 5.7 4.1 8.65 -3.35 1.15 -4.95 0.9 -6.35 0.65 -7.7 0.35 -8.35 -0.5 -8.6 -1.4 -8.9 -1.15 -6.6" fill="#fe8989" fill-rule="evenodd" stroke="none"/>
      <path d="M-1.15 -6.6 Q-1.4 -8.9 -0.5 -8.6 0.35 -8.35 0.65 -7.7 0.9 -6.35 1.15 -4.95 8.65 -3.35 5.7 4.1 4.65 1.75 2.45 -0.25 0.3 -2.2 0.0 -5.1 -0.7 -5.45 -1.05 -6.6" fill="none" stroke="#000000" stroke-linecap="round" stroke-linejoin="round" stroke-opacity="0.0" stroke-width="0.0"/>
    </g>
    <g id="morphshape2" transform="matrix(1.0, 0.0, 0.0, 1.0, 5.75, 9.5)">
      <path d="M-4.9 0.3 L-4.9 0.3 Q-4.95 2.25 -4.1 3.95 L-3.55 4.85 Q-2.3 6.65 0.7 6.8 L1.0 6.8 Q2.75 6.9 3.2 7.55 3.55 7.95 3.3 8.6 L4.0 8.6 4.6 8.4 5.2 8.3 5.25 8.1 5.3 7.75 5.3 7.6 5.15 6.75 5.0 6.45 Q4.05 5.25 1.8 4.45 L1.05 4.1 0.4 3.85 -1.05 2.95 Q-1.45 2.45 -1.5 1.55 L-1.5 0.9 Q-1.35 -0.6 0.45 -3.45 L0.45 -3.45 Q1.55 -5.1 2.7 -6.7 L3.2 -7.3 3.9 -8.45 3.7 -8.65 2.65 -9.35 2.05 -8.55 Q0.25 -6.1 -1.6 -4.65 L-2.3 -4.1 Q-4.65 -2.55 -4.85 0.3" fill="#76015b" fill-rule="evenodd" stroke="none"/>
      <path d="M-4.85 0.3 Q-4.65 -2.55 -2.3 -4.1 L-1.6 -4.65 Q0.25 -6.1 2.05 -8.55 L2.65 -9.35 3.7 -8.65 3.9 -8.45 3.2 -7.3 2.7 -6.7 Q1.55 -5.1 0.45 -3.45 L0.45 -3.45 Q-1.35 -0.6 -1.5 0.9 L-1.5 1.55 Q-1.45 2.45 -1.05 2.95 L0.4 3.85 1.05 4.1 1.8 4.45 Q4.05 5.25 5.0 6.45 L5.15 6.75 5.3 7.6 5.3 7.75 5.25 8.1 5.2 8.3 4.6 8.4 4.0 8.6 3.3 8.6 Q3.55 7.95 3.2 7.55 2.75 6.9 1.0 6.8 L0.7 6.8 Q-2.3 6.65 -3.55 4.85 L-4.1 3.95 Q-4.95 2.25 -4.9 0.3 L-4.9 0.3" fill="none" stroke="#000000" stroke-linecap="round" stroke-linejoin="round" stroke-opacity="0.0" stroke-width="0.0"/>
    </g>
    <g id="sprite0" transform="matrix(1.0, 0.0, 0.0, 1.0, 1.8, 1.3)">
      <use ffdec:characterId="1155" height="2.55" transform="matrix(1.0, 0.0, 0.0, 1.0, -1.8, -1.3)" width="3.65" xlink:href="#shape0"/>
    </g>
    <g id="shape0" transform="matrix(1.0, 0.0, 0.0, 1.0, 1.8, 1.3)">
      <path d="M-1.8 0.85 L-0.75 0.1 1.85 -1.3 1.85 0.15 Q0.8 0.95 -0.4 1.25 L-1.8 0.85" fill="#ff0000" fill-rule="evenodd" stroke="none"/>
    </g>
    <g id="sprite1" transform="matrix(1.0, 0.0, 0.0, 1.0, 1.65, 2.6)">
      <use ffdec:characterId="1157" height="5.2" transform="matrix(1.0, 0.0, 0.0, 1.0, -1.65, -2.6)" width="3.35" xlink:href="#shape1"/>
    </g>
    <g id="shape1" transform="matrix(1.0, 0.0, 0.0, 1.0, 1.65, 2.6)">
      <path d="M1.7 -1.75 Q0.1 0.35 -0.7 2.6 L-1.65 1.05 -0.65 -0.8 0.8 -2.6 1.7 -1.75" fill="#ff0000" fill-rule="evenodd" stroke="none"/>
    </g>
    <g id="sprite2" transform="matrix(1.0, 0.0, 0.0, 1.0, 1.2, 2.8)">
      <use ffdec:characterId="1159" height="5.6" transform="matrix(1.0, 0.0, 0.0, 1.0, -1.2, -2.8)" width="2.4" xlink:href="#shape2"/>
    </g>
    <g id="shape2" transform="matrix(1.0, 0.0, 0.0, 1.0, 1.2, 2.8)">
      <path d="M-1.05 -2.8 L0.15 -2.8 0.65 -1.3 Q1.3 0.9 1.2 1.8 1.1 2.65 0.5 2.7 L0.0 2.8 -0.05 2.8 -0.75 0.75 -1.2 -1.6 -1.05 -2.8" fill="#ff0000" fill-rule="evenodd" stroke="none"/>
    </g>
    <g id="sprite3" transform="matrix(1.0, 0.0, 0.0, 1.0, 1.95, 0.85)">
      <use ffdec:characterId="1161" height="1.7" transform="matrix(1.0, 0.0, 0.0, 1.0, -1.95, -0.85)" width="3.85" xlink:href="#shape3"/>
    </g>
    <g id="shape3" transform="matrix(1.0, 0.0, 0.0, 1.0, 1.95, 0.85)">
      <path d="M1.75 0.55 L1.3 0.85 -1.95 0.7 -1.95 -0.85 -0.4 -0.75 Q0.85 -0.75 1.9 0.15 L1.75 0.55" fill="#ff0000" fill-rule="evenodd" stroke="none"/>
    </g>
    <g id="sprite4" transform="matrix(1.0, 0.0, 0.0, 1.0, 1.6, 0.85)">
      <use ffdec:characterId="1163" height="1.75" transform="matrix(1.0, 0.0, 0.0, 1.0, -1.6, -0.85)" width="3.15" xlink:href="#shape4"/>
    </g>
    <g id="shape4" transform="matrix(1.0, 0.0, 0.0, 1.0, 1.6, 0.85)">
      <path d="M0.2 -0.85 L1.55 -0.75 1.25 0.35 -0.8 0.9 -1.6 0.85 -1.25 -0.3 0.2 -0.85" fill="#ff0000" fill-rule="evenodd" stroke="none"/>
    </g>
  </defs>
</svg>
