<?xml version="1.0" encoding="UTF-8" standalone="no"?>
<svg xmlns:ffdec="https://www.free-decompiler.com/flash" xmlns:xlink="http://www.w3.org/1999/xlink" ffdec:objectType="frame" height="24.15px" width="18.6px" xmlns="http://www.w3.org/2000/svg">
  <g transform="matrix(1.0, 0.0, 0.0, 1.0, 9.7, 14.1)">
    <use ffdec:characterId="1152" height="20.0" transform="matrix(1.0, 0.0, 0.0, 1.0, -7.25, -9.95)" width="15.2" xlink:href="#morphshape0"/>
    <use ffdec:characterId="1153" height="13.85" transform="matrix(1.0, 0.0, 0.0, 1.0, -1.95, -9.45)" width="8.55" xlink:href="#morphshape1"/>
    <use ffdec:characterId="1154" height="18.1" transform="matrix(1.0, 0.0, 0.0, 1.0, -5.75, -9.5)" width="11.1" xlink:href="#morphshape2"/>
    <use ffdec:characterId="1156" height="2.55" transform="matrix(1.0947, -0.2993, 0.2633, 0.963, 3.9873, -5.6632)" width="3.65" xlink:href="#sprite0"/>
    <use ffdec:characterId="1158" height="5.2" transform="matrix(0.9477, -0.313, 0.3558, 1.0773, -1.9887, -12.9846)" width="3.35" xlink:href="#sprite1"/>
    <use ffdec:characterId="1160" height="5.6" transform="matrix(0.9959, -0.0836, 0.0874, 1.042, -5.09, -12.5173)" width="2.4" xlink:href="#sprite2"/>
    <use ffdec:characterId="1162" height="1.7" transform="matrix(1.0612, 0.2505, -0.2296, 0.9725, -8.9242, -5.0651)" width="3.85" xlink:href="#sprite3"/>
    <use ffdec:characterId="1164" height="1.75" transform="matrix(0.9725, 0.2296, -0.2296, 0.9725, -8.9109, -0.1439)" width="3.15" xlink:href="#sprite4"/>
  </g>
  <defs>
    <g id="morphshape0" transform="matrix(1.0, 0.0, 0.0, 1.0, 7.25, 9.95)">
      <path d="M-7.1 1.25 Q-7.5 4.9 -4.2 7.55 -0.9 10.2 2.2 10.1 4.8 9.95 5.8 9.15 6.95 8.05 7.65 1.6 8.35 -5.25 1.5 -5.95 0.75 -8.9 0.35 -9.35 L-2.2 -9.2 Q-3.45 -9.2 -4.05 -8.0 L-5.65 -4.2 Q-6.65 -2.05 -7.0 1.2" fill="#990000" fill-rule="evenodd" stroke="none"/>
      <path d="M-7.0 1.2 Q-6.65 -2.05 -5.65 -4.2 L-4.05 -8.0 Q-3.45 -9.2 -2.2 -9.2 L0.35 -9.35 Q0.75 -8.9 1.5 -5.95 8.35 -5.25 7.65 1.6 6.95 8.05 5.8 9.15 4.8 9.95 2.2 10.1 -0.9 10.2 -4.2 7.55 -7.5 4.9 -7.1 1.25" fill="none" stroke="#000000" stroke-linecap="round" stroke-linejoin="round" stroke-opacity="0.0" stroke-width="0.0"/>
    </g>
    <g id="morphshape1" transform="matrix(1.0, 0.0, 0.0, 1.0, 1.95, 9.45)">
      <path d="M-1.1 -6.65 Q-0.7 -5.5 -0.05 -5.2 0.3 -2.25 2.45 -0.3 4.65 1.7 5.7 4.05 8.7 -3.45 1.2 -5.0 0.95 -6.4 0.7 -7.75 0.4 -8.4 -0.45 -8.6 -1.35 -8.85 -1.1 -6.55" fill="#fe8989" fill-rule="evenodd" stroke="none"/>
      <path d="M-1.1 -6.55 Q-1.35 -8.85 -0.45 -8.6 0.4 -8.4 0.7 -7.75 0.95 -6.4 1.2 -5.0 8.7 -3.45 5.7 4.05 4.65 1.7 2.45 -0.3 0.3 -2.25 -0.05 -5.2 -0.7 -5.5 -1.1 -6.65" fill="none" stroke="#000000" stroke-linecap="round" stroke-linejoin="round" stroke-opacity="0.0" stroke-width="0.0"/>
    </g>
    <g id="morphshape2" transform="matrix(1.0, 0.0, 0.0, 1.0, 5.75, 9.5)">
      <path d="M-4.7 0.35 L-4.7 0.35 Q-4.75 2.3 -3.95 4.0 L-3.45 4.9 Q-2.2 6.7 0.8 6.85 L1.1 6.85 Q2.85 6.95 3.3 7.6 3.65 8.0 3.35 8.65 L4.05 8.65 4.7 8.5 5.3 8.45 5.35 8.25 5.4 7.9 5.4 7.7 5.25 6.8 5.15 6.5 Q4.2 5.25 1.95 4.45 L1.2 4.1 0.55 3.85 -0.9 2.95 Q-1.3 2.45 -1.35 1.55 L-1.35 0.9 Q-1.2 -0.6 0.6 -3.45 L0.6 -3.45 Q1.7 -5.1 2.8 -6.7 L3.3 -7.35 4.05 -8.5 3.85 -8.7 2.75 -9.4 2.15 -8.6 Q0.35 -6.15 -1.5 -4.7 L-2.2 -4.15 Q-4.6 -2.55 -4.8 0.3" fill="#76015b" fill-rule="evenodd" stroke="none"/>
      <path d="M-4.8 0.3 Q-4.6 -2.55 -2.2 -4.15 L-1.5 -4.7 Q0.35 -6.15 2.15 -8.6 L2.75 -9.4 3.85 -8.7 4.05 -8.5 3.3 -7.35 2.8 -6.7 Q1.7 -5.1 0.6 -3.45 L0.6 -3.45 Q-1.2 -0.6 -1.35 0.9 L-1.35 1.55 Q-1.3 2.45 -0.9 2.95 L0.55 3.85 1.2 4.1 1.95 4.45 Q4.2 5.25 5.15 6.5 L5.25 6.8 5.4 7.7 5.4 7.9 5.35 8.25 5.3 8.45 4.7 8.5 4.05 8.65 3.35 8.65 Q3.65 8.0 3.3 7.6 2.85 6.95 1.1 6.85 L0.8 6.85 Q-2.2 6.7 -3.45 4.9 L-3.95 4.0 Q-4.75 2.3 -4.7 0.35 L-4.7 0.35" fill="none" stroke="#000000" stroke-linecap="round" stroke-linejoin="round" stroke-opacity="0.0" stroke-width="0.0"/>
    </g>
    <g id="sprite0" transform="matrix(1.0, 0.0, 0.0, 1.0, 1.8, 1.3)">
      <use ffdec:characterId="1155" height="2.55" transform="matrix(1.0, 0.0, 0.0, 1.0, -1.8, -1.3)" width="3.65" xlink:href="#shape0"/>
    </g>
    <g id="shape0" transform="matrix(1.0, 0.0, 0.0, 1.0, 1.8, 1.3)">
      <path d="M-1.8 0.85 L-0.75 0.1 1.85 -1.3 1.85 0.15 Q0.8 0.95 -0.4 1.25 L-1.8 0.85" fill="#ff0000" fill-rule="evenodd" stroke="none"/>
    </g>
    <g id="sprite1" transform="matrix(1.0, 0.0, 0.0, 1.0, 1.65, 2.6)">
      <use ffdec:characterId="1157" height="5.2" transform="matrix(1.0, 0.0, 0.0, 1.0, -1.65, -2.6)" width="3.35" xlink:href="#shape1"/>
    </g>
    <g id="shape1" transform="matrix(1.0, 0.0, 0.0, 1.0, 1.65, 2.6)">
      <path d="M1.7 -1.75 Q0.1 0.35 -0.7 2.6 L-1.65 1.05 -0.65 -0.8 0.8 -2.6 1.7 -1.75" fill="#ff0000" fill-rule="evenodd" stroke="none"/>
    </g>
    <g id="sprite2" transform="matrix(1.0, 0.0, 0.0, 1.0, 1.2, 2.8)">
      <use ffdec:characterId="1159" height="5.6" transform="matrix(1.0, 0.0, 0.0, 1.0, -1.2, -2.8)" width="2.4" xlink:href="#shape2"/>
    </g>
    <g id="shape2" transform="matrix(1.0, 0.0, 0.0, 1.0, 1.2, 2.8)">
      <path d="M-1.05 -2.8 L0.15 -2.8 0.65 -1.3 Q1.3 0.9 1.2 1.8 1.1 2.65 0.5 2.7 L0.0 2.8 -0.05 2.8 -0.75 0.75 -1.2 -1.6 -1.05 -2.8" fill="#ff0000" fill-rule="evenodd" stroke="none"/>
    </g>
    <g id="sprite3" transform="matrix(1.0, 0.0, 0.0, 1.0, 1.95, 0.85)">
      <use ffdec:characterId="1161" height="1.7" transform="matrix(1.0, 0.0, 0.0, 1.0, -1.95, -0.85)" width="3.85" xlink:href="#shape3"/>
    </g>
    <g id="shape3" transform="matrix(1.0, 0.0, 0.0, 1.0, 1.95, 0.85)">
      <path d="M1.75 0.55 L1.3 0.85 -1.95 0.7 -1.95 -0.85 -0.4 -0.75 Q0.85 -0.75 1.9 0.15 L1.75 0.55" fill="#ff0000" fill-rule="evenodd" stroke="none"/>
    </g>
    <g id="sprite4" transform="matrix(1.0, 0.0, 0.0, 1.0, 1.6, 0.85)">
      <use ffdec:characterId="1163" height="1.75" transform="matrix(1.0, 0.0, 0.0, 1.0, -1.6, -0.85)" width="3.15" xlink:href="#shape4"/>
    </g>
    <g id="shape4" transform="matrix(1.0, 0.0, 0.0, 1.0, 1.6, 0.85)">
      <path d="M0.2 -0.85 L1.55 -0.75 1.25 0.35 -0.8 0.9 -1.6 0.85 -1.25 -0.3 0.2 -0.85" fill="#ff0000" fill-rule="evenodd" stroke="none"/>
    </g>
  </defs>
</svg>
