<?xml version="1.0" encoding="UTF-8" standalone="no"?>
<svg xmlns:ffdec="https://www.free-decompiler.com/flash" xmlns:xlink="http://www.w3.org/1999/xlink" ffdec:objectType="frame" height="24.15px" width="18.6px" xmlns="http://www.w3.org/2000/svg">
  <g transform="matrix(1.0, 0.0, 0.0, 1.0, 9.7, 14.1)">
    <use ffdec:characterId="1152" height="20.0" transform="matrix(1.0, 0.0, 0.0, 1.0, -7.25, -9.95)" width="15.2" xlink:href="#morphshape0"/>
    <use ffdec:characterId="1153" height="13.85" transform="matrix(1.0, 0.0, 0.0, 1.0, -1.95, -9.45)" width="8.55" xlink:href="#morphshape1"/>
    <use ffdec:characterId="1154" height="18.1" transform="matrix(1.0, 0.0, 0.0, 1.0, -5.75, -9.5)" width="11.1" xlink:href="#morphshape2"/>
    <use ffdec:characterId="1156" height="2.55" transform="matrix(1.0963, -0.3055, 0.2679, 0.9617, 4.0284, -5.6504)" width="3.65" xlink:href="#sprite0"/>
    <use ffdec:characterId="1158" height="5.2" transform="matrix(0.946, -0.3179, 0.3624, 1.0785, -2.0031, -12.9296)" width="3.35" xlink:href="#sprite1"/>
    <use ffdec:characterId="1160" height="5.6" transform="matrix(0.9956, -0.0873, 0.0915, 1.0427, -5.1009, -12.5648)" width="2.4" xlink:href="#sprite2"/>
    <use ffdec:characterId="1162" height="1.7" transform="matrix(1.0621, 0.2559, -0.2341, 0.9715, -8.8722, -5.0748)" width="3.85" xlink:href="#sprite3"/>
    <use ffdec:characterId="1164" height="1.75" transform="matrix(0.9715, 0.2341, -0.2341, 0.9715, -8.9053, -0.1503)" width="3.15" xlink:href="#sprite4"/>
  </g>
  <defs>
    <g id="morphshape0" transform="matrix(1.0, 0.0, 0.0, 1.0, 7.25, 9.95)">
      <path d="M-6.95 1.2 Q-7.35 4.8 -4.05 7.45 -0.8 10.1 2.25 9.95 4.9 9.8 5.95 9.0 7.1 7.95 7.85 1.45 8.55 -5.4 1.6 -6.05 0.85 -9.0 0.45 -9.45 L-2.15 -9.25 Q-3.4 -9.25 -4.0 -8.05 L-5.6 -4.3 Q-6.6 -2.1 -6.95 1.2" fill="#990000" fill-rule="evenodd" stroke="none"/>
      <path d="M-6.95 1.2 Q-6.6 -2.1 -5.6 -4.3 L-4.0 -8.05 Q-3.4 -9.25 -2.15 -9.25 L0.45 -9.45 Q0.85 -9.0 1.6 -6.05 8.55 -5.4 7.85 1.45 7.1 7.95 5.95 9.0 4.9 9.8 2.25 9.95 -0.8 10.1 -4.05 7.45 -7.35 4.8 -6.95 1.2 Z" fill="none" stroke="#000000" stroke-linecap="round" stroke-linejoin="round" stroke-opacity="0.0" stroke-width="0.0"/>
    </g>
    <g id="morphshape1" transform="matrix(1.0, 0.0, 0.0, 1.0, 1.95, 9.45)">
      <path d="M-1.1 -6.5 Q-0.7 -5.35 -0.05 -5.05 0.3 -2.05 2.45 -0.15 4.65 1.8 5.65 4.2 8.7 -3.35 1.15 -4.9 0.9 -6.3 0.65 -7.7 0.35 -8.35 -0.5 -8.55 -1.35 -8.8 -1.1 -6.5" fill="#fe8989" fill-rule="evenodd" stroke="none"/>
      <path d="M-1.1 -6.5 Q-1.35 -8.8 -0.5 -8.55 0.35 -8.35 0.65 -7.7 0.9 -6.3 1.15 -4.9 8.7 -3.35 5.65 4.2 4.65 1.8 2.45 -0.15 0.3 -2.05 -0.05 -5.05 -0.7 -5.35 -1.1 -6.5 Z" fill="none" stroke="#000000" stroke-linecap="round" stroke-linejoin="round" stroke-opacity="0.0" stroke-width="0.0"/>
    </g>
    <g id="morphshape2" transform="matrix(1.0, 0.0, 0.0, 1.0, 5.75, 9.5)">
      <path d="M-4.7 0.2 L-4.7 0.2 Q-4.8 2.2 -4.0 3.85 L-3.5 4.75 Q-2.25 6.55 0.75 6.7 L1.05 6.7 Q2.8 6.8 3.25 7.45 3.6 7.85 3.3 8.55 L4.0 8.55 4.65 8.4 5.3 8.35 5.35 8.15 5.4 7.8 5.4 7.6 5.25 6.7 5.15 6.35 Q4.2 5.1 1.95 4.35 L1.2 4.05 0.55 3.85 -0.95 2.95 Q-1.35 2.45 -1.4 1.55 L-1.4 0.9 Q-1.25 -0.55 0.55 -3.45 L0.55 -3.45 Q1.65 -5.1 2.75 -6.7 L3.25 -7.35 4.05 -8.5 3.85 -8.7 2.75 -9.45 2.15 -8.65 Q0.35 -6.15 -1.5 -4.7 L-2.2 -4.15 Q-4.6 -2.55 -4.8 0.25" fill="#76015b" fill-rule="evenodd" stroke="none"/>
      <path d="M-4.8 0.25 Q-4.6 -2.55 -2.2 -4.15 L-1.5 -4.7 Q0.35 -6.15 2.15 -8.65 L2.75 -9.45 3.85 -8.7 4.05 -8.5 3.25 -7.35 2.75 -6.7 Q1.65 -5.1 0.55 -3.45 L0.55 -3.45 Q-1.25 -0.55 -1.4 0.9 L-1.4 1.55 Q-1.35 2.45 -0.95 2.95 L0.55 3.85 1.2 4.05 1.95 4.35 Q4.2 5.1 5.15 6.35 L5.25 6.7 5.4 7.6 5.4 7.8 5.35 8.15 5.3 8.35 4.65 8.4 4.0 8.55 3.3 8.55 Q3.6 7.85 3.25 7.45 2.8 6.8 1.05 6.7 L0.75 6.7 Q-2.25 6.55 -3.5 4.75 L-4.0 3.85 Q-4.8 2.2 -4.7 0.2 L-4.7 0.2" fill="none" stroke="#000000" stroke-linecap="round" stroke-linejoin="round" stroke-opacity="0.0" stroke-width="0.0"/>
    </g>
    <g id="sprite0" transform="matrix(1.0, 0.0, 0.0, 1.0, 1.8, 1.3)">
      <use ffdec:characterId="1155" height="2.55" transform="matrix(1.0, 0.0, 0.0, 1.0, -1.8, -1.3)" width="3.65" xlink:href="#shape0"/>
    </g>
    <g id="shape0" transform="matrix(1.0, 0.0, 0.0, 1.0, 1.8, 1.3)">
      <path d="M-1.8 0.85 L-0.75 0.1 1.85 -1.3 1.85 0.15 Q0.8 0.95 -0.4 1.25 L-1.8 0.85" fill="#ff0000" fill-rule="evenodd" stroke="none"/>
    </g>
    <g id="sprite1" transform="matrix(1.0, 0.0, 0.0, 1.0, 1.65, 2.6)">
      <use ffdec:characterId="1157" height="5.2" transform="matrix(1.0, 0.0, 0.0, 1.0, -1.65, -2.6)" width="3.35" xlink:href="#shape1"/>
    </g>
    <g id="shape1" transform="matrix(1.0, 0.0, 0.0, 1.0, 1.65, 2.6)">
      <path d="M1.7 -1.75 Q0.1 0.35 -0.7 2.6 L-1.65 1.05 -0.65 -0.8 0.8 -2.6 1.7 -1.75" fill="#ff0000" fill-rule="evenodd" stroke="none"/>
    </g>
    <g id="sprite2" transform="matrix(1.0, 0.0, 0.0, 1.0, 1.2, 2.8)">
      <use ffdec:characterId="1159" height="5.6" transform="matrix(1.0, 0.0, 0.0, 1.0, -1.2, -2.8)" width="2.4" xlink:href="#shape2"/>
    </g>
    <g id="shape2" transform="matrix(1.0, 0.0, 0.0, 1.0, 1.2, 2.8)">
      <path d="M-1.05 -2.8 L0.15 -2.8 0.65 -1.3 Q1.3 0.9 1.2 1.8 1.1 2.65 0.5 2.7 L0.0 2.8 -0.05 2.8 -0.75 0.75 -1.2 -1.6 -1.05 -2.8" fill="#ff0000" fill-rule="evenodd" stroke="none"/>
    </g>
    <g id="sprite3" transform="matrix(1.0, 0.0, 0.0, 1.0, 1.95, 0.85)">
      <use ffdec:characterId="1161" height="1.7" transform="matrix(1.0, 0.0, 0.0, 1.0, -1.95, -0.85)" width="3.85" xlink:href="#shape3"/>
    </g>
    <g id="shape3" transform="matrix(1.0, 0.0, 0.0, 1.0, 1.95, 0.85)">
      <path d="M1.75 0.55 L1.3 0.85 -1.95 0.7 -1.95 -0.85 -0.4 -0.75 Q0.85 -0.75 1.9 0.15 L1.75 0.55" fill="#ff0000" fill-rule="evenodd" stroke="none"/>
    </g>
    <g id="sprite4" transform="matrix(1.0, 0.0, 0.0, 1.0, 1.6, 0.85)">
      <use ffdec:characterId="1163" height="1.75" transform="matrix(1.0, 0.0, 0.0, 1.0, -1.6, -0.85)" width="3.15" xlink:href="#shape4"/>
    </g>
    <g id="shape4" transform="matrix(1.0, 0.0, 0.0, 1.0, 1.6, 0.85)">
      <path d="M0.2 -0.85 L1.55 -0.75 1.25 0.35 -0.8 0.9 -1.6 0.85 -1.25 -0.3 0.2 -0.85" fill="#ff0000" fill-rule="evenodd" stroke="none"/>
    </g>
  </defs>
</svg>
