<?xml version="1.0" encoding="UTF-8" standalone="no"?>
<svg xmlns:ffdec="https://www.free-decompiler.com/flash" xmlns:xlink="http://www.w3.org/1999/xlink" ffdec:objectType="frame" height="24.15px" width="18.6px" xmlns="http://www.w3.org/2000/svg">
  <g transform="matrix(1.0, 0.0, 0.0, 1.0, 9.7, 14.1)">
    <use ffdec:characterId="1152" height="20.0" transform="matrix(1.0, 0.0, 0.0, 1.0, -7.25, -9.95)" width="15.2" xlink:href="#morphshape0"/>
    <use ffdec:characterId="1153" height="13.85" transform="matrix(1.0, 0.0, 0.0, 1.0, -1.95, -9.45)" width="8.55" xlink:href="#morphshape1"/>
    <use ffdec:characterId="1154" height="18.1" transform="matrix(1.0, 0.0, 0.0, 1.0, -5.75, -9.5)" width="11.1" xlink:href="#morphshape2"/>
    <use ffdec:characterId="1156" height="2.55" transform="matrix(1.0986, -0.3312, 0.2881, 0.9557, 4.0979, -5.6962)" width="3.65" xlink:href="#sprite0"/>
    <use ffdec:characterId="1158" height="5.2" transform="matrix(0.9387, -0.3385, 0.3892, 1.0791, -2.0107, -12.8971)" width="3.35" xlink:href="#sprite1"/>
    <use ffdec:characterId="1160" height="5.6" transform="matrix(0.9951, -0.0921, 0.0968, 1.0455, -5.0151, -12.4668)" width="2.4" xlink:href="#sprite2"/>
    <use ffdec:characterId="1162" height="1.7" transform="matrix(1.0637, 0.2757, -0.2507, 0.9672, -8.811, -5.0598)" width="3.85" xlink:href="#sprite3"/>
    <use ffdec:characterId="1164" height="1.75" transform="matrix(0.9672, 0.2507, -0.2507, 0.9672, -8.8344, -0.1233)" width="3.15" xlink:href="#sprite4"/>
  </g>
  <defs>
    <g id="morphshape0" transform="matrix(1.0, 0.0, 0.0, 1.0, 7.25, 9.95)">
      <path d="M-6.95 1.3 Q-7.35 4.85 -4.15 7.5 -0.95 10.15 2.0 10.0 4.85 9.85 5.95 9.0 7.05 8.1 7.85 1.4 8.6 -5.45 1.5 -6.05 0.85 -9.0 0.5 -9.4 L-2.2 -9.2 Q-3.4 -9.2 -3.95 -7.95 L-5.5 -4.35 Q-6.6 -2.1 -6.95 1.35" fill="#990000" fill-rule="evenodd" stroke="none"/>
      <path d="M-6.95 1.35 Q-6.6 -2.1 -5.5 -4.35 L-3.95 -7.95 Q-3.4 -9.2 -2.2 -9.2 L0.5 -9.4 Q0.85 -9.0 1.5 -6.05 8.6 -5.45 7.85 1.4 7.05 8.1 5.95 9.0 4.85 9.85 2.0 10.0 -0.95 10.15 -4.15 7.5 -7.35 4.85 -6.95 1.3" fill="none" stroke="#000000" stroke-linecap="round" stroke-linejoin="round" stroke-opacity="0.0" stroke-width="0.0"/>
    </g>
    <g id="morphshape1" transform="matrix(1.0, 0.0, 0.0, 1.0, 1.95, 9.45)">
      <path d="M-1.1 -6.35 Q-0.7 -5.2 -0.1 -4.95 0.35 -1.85 2.5 0.0 4.65 1.9 5.6 4.35 8.75 -3.4 1.15 -4.85 0.85 -6.3 0.6 -7.75 0.35 -8.4 -0.5 -8.55 -1.35 -8.75 -1.05 -6.4" fill="#fe8989" fill-rule="evenodd" stroke="none"/>
      <path d="M-1.05 -6.4 Q-1.35 -8.75 -0.5 -8.55 0.35 -8.4 0.6 -7.75 0.85 -6.3 1.15 -4.85 8.75 -3.4 5.6 4.35 4.65 1.9 2.5 0.0 0.35 -1.85 -0.1 -4.95 -0.7 -5.2 -1.1 -6.35" fill="none" stroke="#000000" stroke-linecap="round" stroke-linejoin="round" stroke-opacity="0.0" stroke-width="0.0"/>
    </g>
    <g id="morphshape2" transform="matrix(1.0, 0.0, 0.0, 1.0, 5.75, 9.5)">
      <path d="M-4.8 0.2 L-4.8 0.2 Q-4.9 2.25 -4.15 3.85 L-3.65 4.75 Q-2.45 6.55 0.55 6.7 L0.85 6.7 Q2.7 6.75 3.15 7.35 3.45 7.8 3.1 8.55 L3.8 8.55 4.5 8.45 5.2 8.45 5.25 8.25 5.3 7.9 5.3 7.7 5.25 6.75 5.15 6.4 Q4.3 5.1 1.95 4.35 L1.2 4.05 0.55 3.85 -1.0 3.0 Q-1.45 2.55 -1.5 1.65 L-1.5 1.0 Q-1.35 -0.4 0.4 -3.35 L0.4 -3.35 Q1.5 -5.0 2.55 -6.65 L3.05 -7.3 4.0 -8.45 3.8 -8.65 2.7 -9.5 2.1 -8.65 Q0.35 -6.1 -1.45 -4.7 L-2.15 -4.15 Q-4.6 -2.55 -4.75 0.2" fill="#76015b" fill-rule="evenodd" stroke="none"/>
      <path d="M-4.75 0.2 Q-4.6 -2.55 -2.15 -4.15 L-1.45 -4.7 Q0.35 -6.1 2.1 -8.65 L2.7 -9.5 3.8 -8.65 4.0 -8.45 3.05 -7.3 2.55 -6.65 Q1.5 -5.0 0.4 -3.35 L0.4 -3.35 Q-1.35 -0.4 -1.5 1.0 L-1.5 1.65 Q-1.45 2.55 -1.0 3.0 L0.55 3.85 1.2 4.05 1.95 4.35 Q4.3 5.1 5.15 6.4 L5.25 6.75 5.3 7.7 5.3 7.9 5.25 8.25 5.2 8.45 4.5 8.45 3.8 8.55 3.1 8.55 Q3.45 7.8 3.15 7.35 2.7 6.75 0.85 6.7 L0.55 6.7 Q-2.45 6.55 -3.65 4.75 L-4.15 3.85 Q-4.9 2.25 -4.8 0.2 L-4.8 0.2" fill="none" stroke="#000000" stroke-linecap="round" stroke-linejoin="round" stroke-opacity="0.0" stroke-width="0.0"/>
    </g>
    <g id="sprite0" transform="matrix(1.0, 0.0, 0.0, 1.0, 1.8, 1.3)">
      <use ffdec:characterId="1155" height="2.55" transform="matrix(1.0, 0.0, 0.0, 1.0, -1.8, -1.3)" width="3.65" xlink:href="#shape0"/>
    </g>
    <g id="shape0" transform="matrix(1.0, 0.0, 0.0, 1.0, 1.8, 1.3)">
      <path d="M-1.8 0.85 L-0.75 0.1 1.85 -1.3 1.85 0.15 Q0.8 0.95 -0.4 1.25 L-1.8 0.85" fill="#ff0000" fill-rule="evenodd" stroke="none"/>
    </g>
    <g id="sprite1" transform="matrix(1.0, 0.0, 0.0, 1.0, 1.65, 2.6)">
      <use ffdec:characterId="1157" height="5.2" transform="matrix(1.0, 0.0, 0.0, 1.0, -1.65, -2.6)" width="3.35" xlink:href="#shape1"/>
    </g>
    <g id="shape1" transform="matrix(1.0, 0.0, 0.0, 1.0, 1.65, 2.6)">
      <path d="M1.7 -1.75 Q0.1 0.35 -0.7 2.6 L-1.65 1.05 -0.65 -0.8 0.8 -2.6 1.7 -1.75" fill="#ff0000" fill-rule="evenodd" stroke="none"/>
    </g>
    <g id="sprite2" transform="matrix(1.0, 0.0, 0.0, 1.0, 1.2, 2.8)">
      <use ffdec:characterId="1159" height="5.6" transform="matrix(1.0, 0.0, 0.0, 1.0, -1.2, -2.8)" width="2.4" xlink:href="#shape2"/>
    </g>
    <g id="shape2" transform="matrix(1.0, 0.0, 0.0, 1.0, 1.2, 2.8)">
      <path d="M-1.05 -2.8 L0.15 -2.8 0.65 -1.3 Q1.3 0.9 1.2 1.8 1.1 2.65 0.5 2.7 L0.0 2.8 -0.05 2.8 -0.75 0.75 -1.2 -1.6 -1.05 -2.8" fill="#ff0000" fill-rule="evenodd" stroke="none"/>
    </g>
    <g id="sprite3" transform="matrix(1.0, 0.0, 0.0, 1.0, 1.95, 0.85)">
      <use ffdec:characterId="1161" height="1.7" transform="matrix(1.0, 0.0, 0.0, 1.0, -1.95, -0.85)" width="3.85" xlink:href="#shape3"/>
    </g>
    <g id="shape3" transform="matrix(1.0, 0.0, 0.0, 1.0, 1.95, 0.85)">
      <path d="M1.75 0.55 L1.3 0.85 -1.95 0.7 -1.95 -0.85 -0.4 -0.75 Q0.85 -0.75 1.9 0.15 L1.75 0.55" fill="#ff0000" fill-rule="evenodd" stroke="none"/>
    </g>
    <g id="sprite4" transform="matrix(1.0, 0.0, 0.0, 1.0, 1.6, 0.85)">
      <use ffdec:characterId="1163" height="1.75" transform="matrix(1.0, 0.0, 0.0, 1.0, -1.6, -0.85)" width="3.15" xlink:href="#shape4"/>
    </g>
    <g id="shape4" transform="matrix(1.0, 0.0, 0.0, 1.0, 1.6, 0.85)">
      <path d="M0.2 -0.85 L1.55 -0.75 1.25 0.35 -0.8 0.9 -1.6 0.85 -1.25 -0.3 0.2 -0.85" fill="#ff0000" fill-rule="evenodd" stroke="none"/>
    </g>
  </defs>
</svg>
