<?xml version="1.0" encoding="UTF-8" standalone="no"?>
<svg xmlns:ffdec="https://www.free-decompiler.com/flash" xmlns:xlink="http://www.w3.org/1999/xlink" ffdec:objectType="frame" height="24.15px" width="18.6px" xmlns="http://www.w3.org/2000/svg">
  <g transform="matrix(1.0, 0.0, 0.0, 1.0, 9.7, 14.1)">
    <use ffdec:characterId="1152" height="20.0" transform="matrix(1.0, 0.0, 0.0, 1.0, -7.25, -9.95)" width="15.2" xlink:href="#morphshape0"/>
    <use ffdec:characterId="1153" height="13.85" transform="matrix(1.0, 0.0, 0.0, 1.0, -1.95, -9.45)" width="8.55" xlink:href="#morphshape1"/>
    <use ffdec:characterId="1154" height="18.1" transform="matrix(1.0, 0.0, 0.0, 1.0, -5.75, -9.5)" width="11.1" xlink:href="#morphshape2"/>
    <use ffdec:characterId="1156" height="2.55" transform="matrix(1.0998, -0.3325, 0.2888, 0.9555, 4.1448, -5.6936)" width="3.65" xlink:href="#sprite0"/>
    <use ffdec:characterId="1158" height="5.2" transform="matrix(0.9373, -0.3425, 0.3942, 1.0789, -2.0214, -12.8901)" width="3.35" xlink:href="#sprite1"/>
    <use ffdec:characterId="1160" height="5.6" transform="matrix(0.9951, -0.0923, 0.0971, 1.046, -5.0659, -12.4679)" width="2.4" xlink:href="#sprite2"/>
    <use ffdec:characterId="1162" height="1.7" transform="matrix(1.0645, 0.2767, -0.2514, 0.9671, -8.8121, -5.0616)" width="3.85" xlink:href="#sprite3"/>
    <use ffdec:characterId="1164" height="1.75" transform="matrix(0.9671, 0.2514, -0.2514, 0.9671, -8.8337, -0.1242)" width="3.15" xlink:href="#sprite4"/>
  </g>
  <defs>
    <g id="morphshape0" transform="matrix(1.0, 0.0, 0.0, 1.0, 7.25, 9.95)">
      <path d="M-7.05 1.35 Q-7.45 4.85 -4.25 7.5 -1.05 10.15 1.9 10.0 4.75 9.85 5.85 9.0 6.95 8.1 7.75 1.35 8.55 -5.5 1.45 -6.05 0.8 -9.0 0.45 -9.4 L-2.25 -9.2 Q-3.45 -9.2 -3.95 -7.95 L-5.5 -4.35 Q-6.6 -2.1 -6.95 1.35" fill="#990000" fill-rule="evenodd" stroke="none"/>
      <path d="M-6.95 1.35 Q-6.6 -2.1 -5.5 -4.35 L-3.95 -7.95 Q-3.45 -9.2 -2.25 -9.2 L0.45 -9.4 Q0.8 -9.0 1.45 -6.05 8.55 -5.5 7.75 1.35 6.95 8.1 5.85 9.0 4.75 9.85 1.9 10.0 -1.05 10.15 -4.25 7.5 -7.45 4.85 -7.05 1.35" fill="none" stroke="#000000" stroke-linecap="round" stroke-linejoin="round" stroke-opacity="0.0" stroke-width="0.0"/>
    </g>
    <g id="morphshape1" transform="matrix(1.0, 0.0, 0.0, 1.0, 1.95, 9.45)">
      <path d="M-0.95 -6.35 Q-0.55 -5.2 0.0 -4.95 0.5 -1.85 2.65 0.0 4.8 1.85 5.7 4.35 8.85 -3.4 1.2 -4.85 0.9 -6.3 0.65 -7.75 0.4 -8.4 -0.45 -8.55 -1.3 -8.75 -1.0 -6.4" fill="#fe8989" fill-rule="evenodd" stroke="none"/>
      <path d="M-1.0 -6.4 Q-1.3 -8.75 -0.45 -8.55 0.4 -8.4 0.65 -7.75 0.9 -6.3 1.2 -4.85 8.85 -3.4 5.7 4.35 4.8 1.85 2.65 0.0 0.5 -1.85 0.0 -4.95 -0.55 -5.2 -0.95 -6.35" fill="none" stroke="#000000" stroke-linecap="round" stroke-linejoin="round" stroke-opacity="0.0" stroke-width="0.0"/>
    </g>
    <g id="morphshape2" transform="matrix(1.0, 0.0, 0.0, 1.0, 5.75, 9.5)">
      <path d="M-4.65 0.15 L-4.65 0.15 Q-4.75 2.25 -4.0 3.85 L-3.5 4.75 Q-2.3 6.55 0.7 6.7 L1.0 6.7 Q2.85 6.75 3.3 7.35 3.6 7.8 3.2 8.55 L3.9 8.55 4.6 8.45 5.3 8.45 5.35 8.25 5.4 7.9 5.4 7.7 5.35 6.75 5.25 6.4 Q4.4 5.1 2.05 4.35 L1.3 4.05 0.65 3.85 -0.9 3.0 Q-1.35 2.55 -1.4 1.65 L-1.4 1.0 Q-1.25 -0.4 0.5 -3.35 L0.5 -3.35 Q1.6 -5.0 2.65 -6.65 L3.15 -7.3 4.1 -8.45 3.9 -8.65 2.8 -9.5 2.2 -8.65 Q0.45 -6.1 -1.35 -4.7 L-2.05 -4.15 Q-4.55 -2.55 -4.7 0.2" fill="#76015b" fill-rule="evenodd" stroke="none"/>
      <path d="M-4.7 0.2 Q-4.55 -2.55 -2.05 -4.15 L-1.35 -4.7 Q0.45 -6.1 2.2 -8.65 L2.8 -9.5 3.9 -8.65 4.1 -8.45 3.15 -7.3 2.65 -6.65 Q1.6 -5.0 0.5 -3.35 L0.5 -3.35 Q-1.25 -0.4 -1.4 1.0 L-1.4 1.65 Q-1.35 2.55 -0.9 3.0 L0.65 3.85 1.3 4.05 2.05 4.35 Q4.4 5.1 5.25 6.4 L5.35 6.75 5.4 7.7 5.4 7.9 5.35 8.25 5.3 8.45 4.6 8.45 3.9 8.55 3.2 8.55 Q3.6 7.8 3.3 7.35 2.85 6.75 1.0 6.7 L0.7 6.7 Q-2.3 6.55 -3.5 4.75 L-4.0 3.85 Q-4.75 2.25 -4.65 0.15 L-4.65 0.15" fill="none" stroke="#000000" stroke-linecap="round" stroke-linejoin="round" stroke-opacity="0.0" stroke-width="0.0"/>
    </g>
    <g id="sprite0" transform="matrix(1.0, 0.0, 0.0, 1.0, 1.8, 1.3)">
      <use ffdec:characterId="1155" height="2.55" transform="matrix(1.0, 0.0, 0.0, 1.0, -1.8, -1.3)" width="3.65" xlink:href="#shape0"/>
    </g>
    <g id="shape0" transform="matrix(1.0, 0.0, 0.0, 1.0, 1.8, 1.3)">
      <path d="M-1.8 0.85 L-0.75 0.1 1.85 -1.3 1.85 0.15 Q0.8 0.95 -0.4 1.25 L-1.8 0.85" fill="#ff0000" fill-rule="evenodd" stroke="none"/>
    </g>
    <g id="sprite1" transform="matrix(1.0, 0.0, 0.0, 1.0, 1.65, 2.6)">
      <use ffdec:characterId="1157" height="5.2" transform="matrix(1.0, 0.0, 0.0, 1.0, -1.65, -2.6)" width="3.35" xlink:href="#shape1"/>
    </g>
    <g id="shape1" transform="matrix(1.0, 0.0, 0.0, 1.0, 1.65, 2.6)">
      <path d="M1.7 -1.75 Q0.1 0.35 -0.7 2.6 L-1.65 1.05 -0.65 -0.8 0.8 -2.6 1.7 -1.75" fill="#ff0000" fill-rule="evenodd" stroke="none"/>
    </g>
    <g id="sprite2" transform="matrix(1.0, 0.0, 0.0, 1.0, 1.2, 2.8)">
      <use ffdec:characterId="1159" height="5.6" transform="matrix(1.0, 0.0, 0.0, 1.0, -1.2, -2.8)" width="2.4" xlink:href="#shape2"/>
    </g>
    <g id="shape2" transform="matrix(1.0, 0.0, 0.0, 1.0, 1.2, 2.8)">
      <path d="M-1.05 -2.8 L0.15 -2.8 0.65 -1.3 Q1.3 0.9 1.2 1.8 1.1 2.65 0.5 2.7 L0.0 2.8 -0.05 2.8 -0.75 0.75 -1.2 -1.6 -1.05 -2.8" fill="#ff0000" fill-rule="evenodd" stroke="none"/>
    </g>
    <g id="sprite3" transform="matrix(1.0, 0.0, 0.0, 1.0, 1.95, 0.85)">
      <use ffdec:characterId="1161" height="1.7" transform="matrix(1.0, 0.0, 0.0, 1.0, -1.95, -0.85)" width="3.85" xlink:href="#shape3"/>
    </g>
    <g id="shape3" transform="matrix(1.0, 0.0, 0.0, 1.0, 1.95, 0.85)">
      <path d="M1.75 0.55 L1.3 0.85 -1.95 0.7 -1.95 -0.85 -0.4 -0.75 Q0.85 -0.75 1.9 0.15 L1.75 0.55" fill="#ff0000" fill-rule="evenodd" stroke="none"/>
    </g>
    <g id="sprite4" transform="matrix(1.0, 0.0, 0.0, 1.0, 1.6, 0.85)">
      <use ffdec:characterId="1163" height="1.75" transform="matrix(1.0, 0.0, 0.0, 1.0, -1.6, -0.85)" width="3.15" xlink:href="#shape4"/>
    </g>
    <g id="shape4" transform="matrix(1.0, 0.0, 0.0, 1.0, 1.6, 0.85)">
      <path d="M0.2 -0.85 L1.55 -0.75 1.25 0.35 -0.8 0.9 -1.6 0.85 -1.25 -0.3 0.2 -0.85" fill="#ff0000" fill-rule="evenodd" stroke="none"/>
    </g>
  </defs>
</svg>
