<?xml version="1.0" encoding="UTF-8" standalone="no"?>
<svg xmlns:ffdec="https://www.free-decompiler.com/flash" xmlns:xlink="http://www.w3.org/1999/xlink" ffdec:objectType="frame" height="24.15px" width="18.6px" xmlns="http://www.w3.org/2000/svg">
  <g transform="matrix(1.0, 0.0, 0.0, 1.0, 9.7, 14.1)">
    <use ffdec:characterId="1152" height="20.0" transform="matrix(1.0, 0.0, 0.0, 1.0, -7.25, -9.95)" width="15.2" xlink:href="#morphshape0"/>
    <use ffdec:characterId="1153" height="13.85" transform="matrix(1.0, 0.0, 0.0, 1.0, -1.95, -9.45)" width="8.55" xlink:href="#morphshape1"/>
    <use ffdec:characterId="1154" height="18.1" transform="matrix(1.0, 0.0, 0.0, 1.0, -5.75, -9.5)" width="11.1" xlink:href="#morphshape2"/>
    <use ffdec:characterId="1156" height="2.55" transform="matrix(1.0996, -0.3418, 0.2963, 0.9531, 4.0855, -5.6738)" width="3.65" xlink:href="#sprite0"/>
    <use ffdec:characterId="1158" height="5.2" transform="matrix(0.9344, -0.35, 0.4037, 1.078, -2.0416, -12.8754)" width="3.35" xlink:href="#sprite1"/>
    <use ffdec:characterId="1160" height="5.6" transform="matrix(0.9948, -0.096, 0.101, 1.0464, -5.0265, -12.4648)" width="2.4" xlink:href="#sprite2"/>
    <use ffdec:characterId="1162" height="1.7" transform="matrix(1.0649, 0.2818, -0.2556, 0.9659, -8.8093, -5.0705)" width="3.85" xlink:href="#sprite3"/>
    <use ffdec:characterId="1164" height="1.75" transform="matrix(0.9659, 0.2556, -0.2556, 0.9659, -8.8283, -0.08)" width="3.15" xlink:href="#sprite4"/>
  </g>
  <defs>
    <g id="morphshape0" transform="matrix(1.0, 0.0, 0.0, 1.0, 7.25, 9.95)">
      <path d="M-6.95 1.4 Q-7.35 4.9 -4.15 7.55 -0.95 10.2 1.95 10.05 4.85 9.9 5.95 9.05 7.05 8.2 7.85 1.4 8.65 -5.45 1.5 -6.0 0.85 -8.95 0.5 -9.35 L-2.25 -9.15 Q-3.45 -9.15 -3.95 -7.9 L-5.5 -4.35 Q-6.6 -2.1 -6.95 1.4" fill="#990000" fill-rule="evenodd" stroke="none"/>
      <path d="M-6.95 1.4 Q-6.6 -2.1 -5.5 -4.35 L-3.95 -7.9 Q-3.45 -9.15 -2.25 -9.15 L0.5 -9.35 Q0.85 -8.95 1.5 -6.0 8.65 -5.45 7.85 1.4 7.05 8.2 5.95 9.05 4.85 9.9 1.95 10.05 -0.95 10.2 -4.15 7.55 -7.35 4.9 -6.95 1.4 Z" fill="none" stroke="#000000" stroke-linecap="round" stroke-linejoin="round" stroke-opacity="0.0" stroke-width="0.0"/>
    </g>
    <g id="morphshape1" transform="matrix(1.0, 0.0, 0.0, 1.0, 1.95, 9.45)">
      <path d="M-1.0 -6.35 Q-0.6 -5.2 -0.05 -4.95 0.45 -1.8 2.6 0.05 4.75 1.9 5.65 4.4 8.85 -3.4 1.2 -4.8 0.9 -6.25 0.65 -7.7 0.4 -8.35 -0.45 -8.5 -1.3 -8.7 -1.0 -6.35" fill="#fe8989" fill-rule="evenodd" stroke="none"/>
      <path d="M-1.0 -6.35 Q-1.3 -8.7 -0.45 -8.5 0.4 -8.35 0.65 -7.7 0.9 -6.25 1.2 -4.8 8.85 -3.4 5.65 4.4 4.75 1.9 2.6 0.05 0.45 -1.8 -0.05 -4.95 -0.6 -5.2 -1.0 -6.35 Z" fill="none" stroke="#000000" stroke-linecap="round" stroke-linejoin="round" stroke-opacity="0.0" stroke-width="0.0"/>
    </g>
    <g id="morphshape2" transform="matrix(1.0, 0.0, 0.0, 1.0, 5.75, 9.5)">
      <path d="M-4.7 0.2 L-4.7 0.2 Q-4.8 2.3 -4.05 3.9 L-3.55 4.8 Q-2.35 6.6 0.65 6.75 L0.95 6.75 Q2.8 6.8 3.25 7.4 3.55 7.85 3.15 8.6 L3.85 8.6 4.55 8.5 5.25 8.5 5.3 8.3 5.35 7.95 5.35 7.75 5.3 6.8 5.2 6.45 Q4.35 5.15 2.0 4.4 L1.25 4.1 0.6 3.9 -0.95 3.05 Q-1.4 2.6 -1.45 1.7 L-1.45 1.05 Q-1.3 -0.35 0.45 -3.3 L0.45 -3.3 Q1.55 -4.95 2.6 -6.6 L3.1 -7.25 4.1 -8.4 3.9 -8.6 2.8 -9.5 2.2 -8.65 Q0.45 -6.1 -1.35 -4.7 L-2.05 -4.15 Q-4.55 -2.55 -4.7 0.2" fill="#76015b" fill-rule="evenodd" stroke="none"/>
      <path d="M-4.7 0.2 Q-4.55 -2.55 -2.05 -4.15 L-1.35 -4.7 Q0.45 -6.1 2.2 -8.65 L2.8 -9.5 3.9 -8.6 4.1 -8.4 3.1 -7.25 2.6 -6.6 Q1.55 -4.95 0.45 -3.3 L0.45 -3.3 Q-1.3 -0.35 -1.45 1.05 L-1.45 1.7 Q-1.4 2.6 -0.95 3.05 L0.6 3.9 1.25 4.1 2.0 4.4 Q4.35 5.15 5.2 6.45 L5.3 6.8 5.35 7.75 5.35 7.95 5.3 8.3 5.25 8.5 4.55 8.5 3.85 8.6 3.15 8.6 Q3.55 7.85 3.25 7.4 2.8 6.8 0.95 6.75 L0.65 6.75 Q-2.35 6.6 -3.55 4.8 L-4.05 3.9 Q-4.8 2.3 -4.7 0.2 L-4.7 0.2 Z" fill="none" stroke="#000000" stroke-linecap="round" stroke-linejoin="round" stroke-opacity="0.0" stroke-width="0.0"/>
    </g>
    <g id="sprite0" transform="matrix(1.0, 0.0, 0.0, 1.0, 1.8, 1.3)">
      <use ffdec:characterId="1155" height="2.55" transform="matrix(1.0, 0.0, 0.0, 1.0, -1.8, -1.3)" width="3.65" xlink:href="#shape0"/>
    </g>
    <g id="shape0" transform="matrix(1.0, 0.0, 0.0, 1.0, 1.8, 1.3)">
      <path d="M-1.8 0.85 L-0.75 0.1 1.85 -1.3 1.85 0.15 Q0.8 0.95 -0.4 1.25 L-1.8 0.85" fill="#ff0000" fill-rule="evenodd" stroke="none"/>
    </g>
    <g id="sprite1" transform="matrix(1.0, 0.0, 0.0, 1.0, 1.65, 2.6)">
      <use ffdec:characterId="1157" height="5.2" transform="matrix(1.0, 0.0, 0.0, 1.0, -1.65, -2.6)" width="3.35" xlink:href="#shape1"/>
    </g>
    <g id="shape1" transform="matrix(1.0, 0.0, 0.0, 1.0, 1.65, 2.6)">
      <path d="M1.7 -1.75 Q0.1 0.35 -0.7 2.6 L-1.65 1.05 -0.65 -0.8 0.8 -2.6 1.7 -1.75" fill="#ff0000" fill-rule="evenodd" stroke="none"/>
    </g>
    <g id="sprite2" transform="matrix(1.0, 0.0, 0.0, 1.0, 1.2, 2.8)">
      <use ffdec:characterId="1159" height="5.6" transform="matrix(1.0, 0.0, 0.0, 1.0, -1.2, -2.8)" width="2.4" xlink:href="#shape2"/>
    </g>
    <g id="shape2" transform="matrix(1.0, 0.0, 0.0, 1.0, 1.2, 2.8)">
      <path d="M-1.05 -2.8 L0.15 -2.8 0.65 -1.3 Q1.3 0.9 1.2 1.8 1.1 2.65 0.5 2.7 L0.0 2.8 -0.05 2.8 -0.75 0.75 -1.2 -1.6 -1.05 -2.8" fill="#ff0000" fill-rule="evenodd" stroke="none"/>
    </g>
    <g id="sprite3" transform="matrix(1.0, 0.0, 0.0, 1.0, 1.95, 0.85)">
      <use ffdec:characterId="1161" height="1.7" transform="matrix(1.0, 0.0, 0.0, 1.0, -1.95, -0.85)" width="3.85" xlink:href="#shape3"/>
    </g>
    <g id="shape3" transform="matrix(1.0, 0.0, 0.0, 1.0, 1.95, 0.85)">
      <path d="M1.75 0.55 L1.3 0.85 -1.95 0.7 -1.95 -0.85 -0.4 -0.75 Q0.85 -0.75 1.9 0.15 L1.75 0.55" fill="#ff0000" fill-rule="evenodd" stroke="none"/>
    </g>
    <g id="sprite4" transform="matrix(1.0, 0.0, 0.0, 1.0, 1.6, 0.85)">
      <use ffdec:characterId="1163" height="1.75" transform="matrix(1.0, 0.0, 0.0, 1.0, -1.6, -0.85)" width="3.15" xlink:href="#shape4"/>
    </g>
    <g id="shape4" transform="matrix(1.0, 0.0, 0.0, 1.0, 1.6, 0.85)">
      <path d="M0.2 -0.85 L1.55 -0.75 1.25 0.35 -0.8 0.9 -1.6 0.85 -1.25 -0.3 0.2 -0.85" fill="#ff0000" fill-rule="evenodd" stroke="none"/>
    </g>
  </defs>
</svg>
