<?xml version="1.0" encoding="UTF-8" standalone="no"?>
<svg xmlns:ffdec="https://www.free-decompiler.com/flash" xmlns:xlink="http://www.w3.org/1999/xlink" ffdec:objectType="frame" height="24.15px" width="18.6px" xmlns="http://www.w3.org/2000/svg">
  <g transform="matrix(1.0, 0.0, 0.0, 1.0, 9.7, 14.1)">
    <use ffdec:characterId="1165" height="20.0" transform="matrix(1.0, 0.0, 0.0, 1.0, -7.25, -9.95)" width="15.2" xlink:href="#morphshape0"/>
    <use ffdec:characterId="1166" height="13.85" transform="matrix(1.0, 0.0, 0.0, 1.0, -1.95, -9.45)" width="8.55" xlink:href="#morphshape1"/>
    <use ffdec:characterId="1167" height="18.1" transform="matrix(1.0, 0.0, 0.0, 1.0, -5.75, -9.5)" width="11.1" xlink:href="#morphshape2"/>
    <use ffdec:characterId="1156" height="2.55" transform="matrix(1.0976, -0.3161, 0.2762, 0.9593, 4.1152, -5.5281)" width="3.65" xlink:href="#sprite0"/>
    <use ffdec:characterId="1158" height="5.2" transform="matrix(0.942, -0.3294, 0.377, 1.0778, -1.9844, -12.9088)" width="3.35" xlink:href="#sprite1"/>
    <use ffdec:characterId="1160" height="5.6" transform="matrix(0.9955, -0.088, 0.0923, 1.0441, -5.0031, -12.4677)" width="2.4" xlink:href="#sprite2"/>
    <use ffdec:characterId="1162" height="1.7" transform="matrix(1.0627, 0.2655, -0.2422, 0.9694, -8.6663, -5.1917)" width="3.85" xlink:href="#sprite3"/>
    <use ffdec:characterId="1164" height="1.75" transform="matrix(0.9694, 0.2422, -0.2422, 0.9694, -8.8952, -0.0615)" width="3.15" xlink:href="#sprite4"/>
  </g>
  <defs>
    <g id="morphshape0" transform="matrix(1.0, 0.0, 0.0, 1.0, 7.25, 9.95)">
      <path d="M-6.95 1.35 Q-7.35 4.95 -4.1 7.6 -0.85 10.25 2.15 10.1 4.9 9.95 5.95 9.15 7.1 8.15 7.85 1.55 8.6 -5.3 1.6 -5.95 0.9 -8.9 0.5 -9.35 L-2.15 -9.15 Q-3.4 -9.15 -3.95 -7.95 L-5.55 -4.25 Q-6.6 -2.05 -6.95 1.3" fill="#990000" fill-rule="evenodd" stroke="none"/>
      <path d="M-6.95 1.3 Q-6.6 -2.05 -5.55 -4.25 L-3.95 -7.95 Q-3.4 -9.15 -2.15 -9.15 L0.5 -9.35 Q0.9 -8.9 1.6 -5.95 8.6 -5.3 7.85 1.55 7.1 8.15 5.95 9.15 4.9 9.95 2.15 10.1 -0.85 10.25 -4.1 7.6 -7.35 4.95 -6.95 1.35" fill="none" stroke="#000000" stroke-linecap="round" stroke-linejoin="round" stroke-opacity="0.0" stroke-width="0.0"/>
    </g>
    <g id="morphshape1" transform="matrix(1.0, 0.0, 0.0, 1.0, 1.95, 9.45)">
      <path d="M-1.1 -6.4 Q-0.7 -5.25 -0.1 -4.95 0.3 -1.9 2.45 0.0 4.65 1.95 5.65 4.35 8.75 -3.3 1.15 -4.8 0.9 -6.25 0.65 -7.65 0.35 -8.3 -0.5 -8.5 -1.35 -8.75 -1.05 -6.45" fill="#fe8989" fill-rule="evenodd" stroke="none"/>
      <path d="M-1.05 -6.45 Q-1.35 -8.75 -0.5 -8.5 0.35 -8.3 0.65 -7.65 0.9 -6.25 1.15 -4.8 8.75 -3.3 5.65 4.35 4.65 1.95 2.45 0.0 0.3 -1.9 -0.1 -4.95 -0.7 -5.25 -1.1 -6.4" fill="none" stroke="#000000" stroke-linecap="round" stroke-linejoin="round" stroke-opacity="0.0" stroke-width="0.0"/>
    </g>
    <g id="morphshape2" transform="matrix(1.0, 0.0, 0.0, 1.0, 5.75, 9.5)">
      <path d="M-4.55 0.3 L-4.55 0.3 Q-4.65 2.3 -3.85 3.95 L-3.35 4.85 Q-2.1 6.65 0.9 6.8 L1.2 6.8 Q3.0 6.85 3.45 7.5 3.75 7.9 3.4 8.6 L4.1 8.6 4.75 8.45 5.4 8.4 5.45 8.2 5.5 7.85 5.5 7.65 5.4 6.75 5.3 6.4 Q4.4 5.15 2.1 4.4 L1.35 4.1 0.7 3.9 -0.8 3.0 Q-1.25 2.55 -1.3 1.65 L-1.3 1.0 Q-1.15 -0.45 0.6 -3.35 L0.6 -3.35 Q1.7 -5.0 2.8 -6.6 L3.3 -7.25 4.15 -8.4 3.95 -8.6 2.85 -9.4 2.25 -8.6 Q0.45 -6.1 -1.4 -4.7 L-2.1 -4.15 Q-4.55 -2.55 -4.75 0.25" fill="#76015b" fill-rule="evenodd" stroke="none"/>
      <path d="M-4.75 0.25 Q-4.55 -2.55 -2.1 -4.15 L-1.4 -4.7 Q0.45 -6.1 2.25 -8.6 L2.85 -9.4 3.95 -8.6 4.15 -8.4 3.3 -7.25 2.8 -6.6 Q1.7 -5.0 0.6 -3.35 L0.6 -3.35 Q-1.15 -0.45 -1.3 1.0 L-1.3 1.65 Q-1.25 2.55 -0.8 3.0 L0.7 3.9 1.35 4.1 2.1 4.4 Q4.4 5.15 5.3 6.4 L5.4 6.75 5.5 7.65 5.5 7.85 5.45 8.2 5.4 8.4 4.75 8.45 4.1 8.6 3.4 8.6 Q3.75 7.9 3.45 7.5 3.0 6.85 1.2 6.8 L0.9 6.8 Q-2.1 6.65 -3.35 4.85 L-3.85 3.95 Q-4.65 2.3 -4.55 0.3 L-4.55 0.3" fill="none" stroke="#000000" stroke-linecap="round" stroke-linejoin="round" stroke-opacity="0.0" stroke-width="0.0"/>
    </g>
    <g id="sprite0" transform="matrix(1.0, 0.0, 0.0, 1.0, 1.8, 1.3)">
      <use ffdec:characterId="1155" height="2.55" transform="matrix(1.0, 0.0, 0.0, 1.0, -1.8, -1.3)" width="3.65" xlink:href="#shape0"/>
    </g>
    <g id="shape0" transform="matrix(1.0, 0.0, 0.0, 1.0, 1.8, 1.3)">
      <path d="M-1.8 0.85 L-0.75 0.1 1.85 -1.3 1.85 0.15 Q0.8 0.95 -0.4 1.25 L-1.8 0.85" fill="#ff0000" fill-rule="evenodd" stroke="none"/>
    </g>
    <g id="sprite1" transform="matrix(1.0, 0.0, 0.0, 1.0, 1.65, 2.6)">
      <use ffdec:characterId="1157" height="5.2" transform="matrix(1.0, 0.0, 0.0, 1.0, -1.65, -2.6)" width="3.35" xlink:href="#shape1"/>
    </g>
    <g id="shape1" transform="matrix(1.0, 0.0, 0.0, 1.0, 1.65, 2.6)">
      <path d="M1.7 -1.75 Q0.1 0.35 -0.7 2.6 L-1.65 1.05 -0.65 -0.8 0.8 -2.6 1.7 -1.75" fill="#ff0000" fill-rule="evenodd" stroke="none"/>
    </g>
    <g id="sprite2" transform="matrix(1.0, 0.0, 0.0, 1.0, 1.2, 2.8)">
      <use ffdec:characterId="1159" height="5.6" transform="matrix(1.0, 0.0, 0.0, 1.0, -1.2, -2.8)" width="2.4" xlink:href="#shape2"/>
    </g>
    <g id="shape2" transform="matrix(1.0, 0.0, 0.0, 1.0, 1.2, 2.8)">
      <path d="M-1.05 -2.8 L0.15 -2.8 0.65 -1.3 Q1.3 0.9 1.2 1.8 1.1 2.65 0.5 2.7 L0.0 2.8 -0.05 2.8 -0.75 0.75 -1.2 -1.6 -1.05 -2.8" fill="#ff0000" fill-rule="evenodd" stroke="none"/>
    </g>
    <g id="sprite3" transform="matrix(1.0, 0.0, 0.0, 1.0, 1.95, 0.85)">
      <use ffdec:characterId="1161" height="1.7" transform="matrix(1.0, 0.0, 0.0, 1.0, -1.95, -0.85)" width="3.85" xlink:href="#shape3"/>
    </g>
    <g id="shape3" transform="matrix(1.0, 0.0, 0.0, 1.0, 1.95, 0.85)">
      <path d="M1.75 0.55 L1.3 0.85 -1.95 0.7 -1.95 -0.85 -0.4 -0.75 Q0.85 -0.75 1.9 0.15 L1.75 0.55" fill="#ff0000" fill-rule="evenodd" stroke="none"/>
    </g>
    <g id="sprite4" transform="matrix(1.0, 0.0, 0.0, 1.0, 1.6, 0.85)">
      <use ffdec:characterId="1163" height="1.75" transform="matrix(1.0, 0.0, 0.0, 1.0, -1.6, -0.85)" width="3.15" xlink:href="#shape4"/>
    </g>
    <g id="shape4" transform="matrix(1.0, 0.0, 0.0, 1.0, 1.6, 0.85)">
      <path d="M0.2 -0.85 L1.55 -0.75 1.25 0.35 -0.8 0.9 -1.6 0.85 -1.25 -0.3 0.2 -0.85" fill="#ff0000" fill-rule="evenodd" stroke="none"/>
    </g>
  </defs>
</svg>
