<?xml version="1.0" encoding="UTF-8" standalone="no"?>
<svg xmlns:ffdec="https://www.free-decompiler.com/flash" xmlns:xlink="http://www.w3.org/1999/xlink" ffdec:objectType="frame" height="24.15px" width="18.6px" xmlns="http://www.w3.org/2000/svg">
  <g transform="matrix(1.0, 0.0, 0.0, 1.0, 9.7, 14.1)">
    <use ffdec:characterId="1165" height="20.0" transform="matrix(1.0, 0.0, 0.0, 1.0, -7.25, -9.95)" width="15.2" xlink:href="#morphshape0"/>
    <use ffdec:characterId="1166" height="13.85" transform="matrix(1.0, 0.0, 0.0, 1.0, -1.95, -9.45)" width="8.55" xlink:href="#morphshape1"/>
    <use ffdec:characterId="1167" height="18.1" transform="matrix(1.0, 0.0, 0.0, 1.0, -5.75, -9.5)" width="11.1" xlink:href="#morphshape2"/>
    <use ffdec:characterId="1156" height="2.55" transform="matrix(1.086, -0.247, 0.2215, 0.9737, 4.0573, -5.5212)" width="3.65" xlink:href="#sprite0"/>
    <use ffdec:characterId="1158" height="5.2" transform="matrix(0.9629, -0.2635, 0.2939, 1.074, -1.853, -13.0576)" width="3.35" xlink:href="#sprite1"/>
    <use ffdec:characterId="1160" height="5.6" transform="matrix(0.997, -0.0704, 0.0732, 1.0359, -5.1514, -12.6161)" width="2.4" xlink:href="#sprite2"/>
    <use ffdec:characterId="1162" height="1.7" transform="matrix(1.0562, 0.2066, -0.1919, 0.9808, -8.8466, -5.2366)" width="3.85" xlink:href="#sprite3"/>
    <use ffdec:characterId="1164" height="1.75" transform="matrix(0.9808, 0.1919, -0.1919, 0.9808, -9.0561, -0.1407)" width="3.15" xlink:href="#sprite4"/>
  </g>
  <defs>
    <g id="morphshape0" transform="matrix(1.0, 0.0, 0.0, 1.0, 7.25, 9.95)">
      <path d="M-6.95 0.9 Q-7.35 4.75 -3.95 7.45 -0.55 10.1 2.75 10.0 5.0 9.8 5.9 9.1 7.1 7.7 7.7 1.7 8.25 -5.2 1.75 -6.05 0.85 -8.95 0.35 -9.5 L-2.0 -9.35 Q-3.35 -9.35 -4.1 -8.2 L-5.8 -4.15 Q-6.7 -2.1 -7.0 0.9" fill="#990000" fill-rule="evenodd" stroke="none"/>
      <path d="M-7.0 0.9 Q-6.7 -2.1 -5.8 -4.15 L-4.1 -8.2 Q-3.35 -9.35 -2.0 -9.35 L0.35 -9.5 Q0.85 -8.95 1.75 -6.05 8.25 -5.2 7.7 1.7 7.1 7.7 5.9 9.1 5.0 9.8 2.75 10.0 -0.55 10.1 -3.95 7.45 -7.35 4.75 -6.95 0.9" fill="none" stroke="#000000" stroke-linecap="round" stroke-linejoin="round" stroke-opacity="0.0" stroke-width="0.0"/>
    </g>
    <g id="morphshape1" transform="matrix(1.0, 0.0, 0.0, 1.0, 1.95, 9.45)">
      <path d="M-1.25 -6.85 Q-0.9 -5.65 -0.1 -5.25 0.05 -2.55 2.2 -0.5 4.45 1.65 5.65 3.85 8.4 -3.3 1.05 -5.1 0.85 -6.45 0.6 -7.7 0.25 -8.4 -0.55 -8.7 -1.45 -9.05 -1.25 -6.8" fill="#fe8989" fill-rule="evenodd" stroke="none"/>
      <path d="M-1.25 -6.8 Q-1.45 -9.05 -0.55 -8.7 0.25 -8.4 0.6 -7.7 0.85 -6.45 1.05 -5.1 8.4 -3.3 5.65 3.85 4.45 1.65 2.2 -0.5 0.05 -2.55 -0.1 -5.25 -0.9 -5.65 -1.25 -6.85" fill="none" stroke="#000000" stroke-linecap="round" stroke-linejoin="round" stroke-opacity="0.0" stroke-width="0.0"/>
    </g>
    <g id="morphshape2" transform="matrix(1.0, 0.0, 0.0, 1.0, 5.75, 9.5)">
      <path d="M-5.1 0.3 L-5.1 0.35 Q-5.15 2.15 -4.25 3.95 L-3.7 4.85 Q-2.4 6.6 0.6 6.75 L0.95 6.8 Q2.6 6.95 3.1 7.7 3.5 8.0 3.35 8.55 L4.1 8.55 4.65 8.3 5.15 8.15 5.2 7.9 5.2 7.55 5.15 7.4 4.9 6.6 4.75 6.3 Q3.7 5.15 1.55 4.35 L0.8 4.0 0.2 3.75 -1.15 2.8 Q-1.5 2.25 -1.55 1.4 L-1.55 0.75 Q-1.35 -0.85 0.5 -3.6 L0.5 -3.6 Q1.65 -5.25 2.85 -6.8 L3.4 -7.4 3.85 -8.55 3.65 -8.75 2.6 -9.25 2.0 -8.5 Q0.15 -6.15 -1.75 -4.65 L-2.45 -4.1 Q-4.7 -2.55 -4.95 0.4" fill="#76015b" fill-rule="evenodd" stroke="none"/>
      <path d="M-4.95 0.4 Q-4.7 -2.55 -2.45 -4.1 L-1.75 -4.65 Q0.15 -6.15 2.0 -8.5 L2.6 -9.25 3.65 -8.75 3.85 -8.55 3.4 -7.4 2.85 -6.8 Q1.65 -5.25 0.5 -3.6 L0.5 -3.6 Q-1.35 -0.85 -1.55 0.75 L-1.55 1.4 Q-1.5 2.25 -1.15 2.8 L0.2 3.75 0.8 4.0 1.55 4.35 Q3.7 5.15 4.75 6.3 L4.9 6.6 5.15 7.4 5.2 7.55 5.2 7.9 5.15 8.15 4.65 8.3 4.1 8.55 3.35 8.55 Q3.5 8.0 3.1 7.7 2.6 6.95 0.95 6.8 L0.6 6.75 Q-2.4 6.6 -3.7 4.85 L-4.25 3.95 Q-5.15 2.15 -5.1 0.35 L-5.1 0.3" fill="none" stroke="#000000" stroke-linecap="round" stroke-linejoin="round" stroke-opacity="0.0" stroke-width="0.0"/>
    </g>
    <g id="sprite0" transform="matrix(1.0, 0.0, 0.0, 1.0, 1.8, 1.3)">
      <use ffdec:characterId="1155" height="2.55" transform="matrix(1.0, 0.0, 0.0, 1.0, -1.8, -1.3)" width="3.65" xlink:href="#shape0"/>
    </g>
    <g id="shape0" transform="matrix(1.0, 0.0, 0.0, 1.0, 1.8, 1.3)">
      <path d="M-1.8 0.85 L-0.75 0.1 1.85 -1.3 1.85 0.15 Q0.8 0.95 -0.4 1.25 L-1.8 0.85" fill="#ff0000" fill-rule="evenodd" stroke="none"/>
    </g>
    <g id="sprite1" transform="matrix(1.0, 0.0, 0.0, 1.0, 1.65, 2.6)">
      <use ffdec:characterId="1157" height="5.2" transform="matrix(1.0, 0.0, 0.0, 1.0, -1.65, -2.6)" width="3.35" xlink:href="#shape1"/>
    </g>
    <g id="shape1" transform="matrix(1.0, 0.0, 0.0, 1.0, 1.65, 2.6)">
      <path d="M1.7 -1.75 Q0.1 0.35 -0.7 2.6 L-1.65 1.05 -0.65 -0.8 0.8 -2.6 1.7 -1.75" fill="#ff0000" fill-rule="evenodd" stroke="none"/>
    </g>
    <g id="sprite2" transform="matrix(1.0, 0.0, 0.0, 1.0, 1.2, 2.8)">
      <use ffdec:characterId="1159" height="5.6" transform="matrix(1.0, 0.0, 0.0, 1.0, -1.2, -2.8)" width="2.4" xlink:href="#shape2"/>
    </g>
    <g id="shape2" transform="matrix(1.0, 0.0, 0.0, 1.0, 1.2, 2.8)">
      <path d="M-1.05 -2.8 L0.15 -2.8 0.65 -1.3 Q1.3 0.9 1.2 1.8 1.1 2.65 0.5 2.7 L0.0 2.8 -0.05 2.8 -0.75 0.75 -1.2 -1.6 -1.05 -2.8" fill="#ff0000" fill-rule="evenodd" stroke="none"/>
    </g>
    <g id="sprite3" transform="matrix(1.0, 0.0, 0.0, 1.0, 1.95, 0.85)">
      <use ffdec:characterId="1161" height="1.7" transform="matrix(1.0, 0.0, 0.0, 1.0, -1.95, -0.85)" width="3.85" xlink:href="#shape3"/>
    </g>
    <g id="shape3" transform="matrix(1.0, 0.0, 0.0, 1.0, 1.95, 0.85)">
      <path d="M1.75 0.55 L1.3 0.85 -1.95 0.7 -1.95 -0.85 -0.4 -0.75 Q0.85 -0.75 1.9 0.15 L1.75 0.55" fill="#ff0000" fill-rule="evenodd" stroke="none"/>
    </g>
    <g id="sprite4" transform="matrix(1.0, 0.0, 0.0, 1.0, 1.6, 0.85)">
      <use ffdec:characterId="1163" height="1.75" transform="matrix(1.0, 0.0, 0.0, 1.0, -1.6, -0.85)" width="3.15" xlink:href="#shape4"/>
    </g>
    <g id="shape4" transform="matrix(1.0, 0.0, 0.0, 1.0, 1.6, 0.85)">
      <path d="M0.2 -0.85 L1.55 -0.75 1.25 0.35 -0.8 0.9 -1.6 0.85 -1.25 -0.3 0.2 -0.85" fill="#ff0000" fill-rule="evenodd" stroke="none"/>
    </g>
  </defs>
</svg>
