<?xml version="1.0" encoding="UTF-8" standalone="no"?>
<svg xmlns:ffdec="https://www.free-decompiler.com/flash" xmlns:xlink="http://www.w3.org/1999/xlink" ffdec:objectType="frame" height="24.15px" width="18.6px" xmlns="http://www.w3.org/2000/svg">
  <g transform="matrix(1.0, 0.0, 0.0, 1.0, 9.7, 14.1)">
    <use ffdec:characterId="1152" height="20.0" transform="matrix(1.0, 0.0, 0.0, 1.0, -7.25, -9.95)" width="15.2" xlink:href="#morphshape0"/>
    <use ffdec:characterId="1153" height="13.85" transform="matrix(1.0, 0.0, 0.0, 1.0, -1.95, -9.45)" width="8.55" xlink:href="#morphshape1"/>
    <use ffdec:characterId="1154" height="18.1" transform="matrix(1.0, 0.0, 0.0, 1.0, -5.75, -9.5)" width="11.1" xlink:href="#morphshape2"/>
    <use ffdec:characterId="1156" height="2.55" transform="matrix(1.0419, -0.0959, 0.0916, 0.9952, 3.8054, -5.5711)" width="3.65" xlink:href="#sprite0"/>
    <use ffdec:characterId="1158" height="5.2" transform="matrix(0.9933, -0.109, 0.1141, 1.04, -1.5857, -13.2242)" width="3.35" xlink:href="#sprite1"/>
    <use ffdec:characterId="1160" height="5.6" transform="matrix(0.9995, -0.027, 0.0275, 1.0153, -5.4262, -12.7605)" width="2.4" xlink:href="#sprite2"/>
    <use ffdec:characterId="1162" height="1.7" transform="matrix(1.0279, 0.0813, -0.0788, 0.9966, -9.0873, -5.0057)" width="3.85" xlink:href="#sprite3"/>
    <use ffdec:characterId="1164" height="1.75" transform="matrix(0.9966, 0.0788, -0.0788, 0.9966, -9.4276, -0.2733)" width="3.15" xlink:href="#sprite4"/>
  </g>
  <defs>
    <g id="morphshape0" transform="matrix(1.0, 0.0, 0.0, 1.0, 7.25, 9.95)">
      <path d="M-7.2 -0.05 Q-7.55 4.4 -3.75 7.2 -0.05 9.9 4.0 9.9 5.15 9.6 5.7 9.1 7.1 6.8 7.4 2.15 7.55 -4.8 2.15 -6.2 0.9 -9.0 0.15 -9.8 L-1.5 -9.75 Q-3.15 -9.7 -4.35 -8.75 L-6.3 -3.8 Q-6.8 -2.05 -7.1 0.05" fill="#990000" fill-rule="evenodd" stroke="none"/>
      <path d="M-7.1 0.05 Q-6.8 -2.05 -6.3 -3.8 L-4.35 -8.75 Q-3.15 -9.7 -1.5 -9.75 L0.15 -9.8 Q0.9 -9.0 2.15 -6.2 7.55 -4.8 7.4 2.15 7.1 6.8 5.7 9.1 5.15 9.6 4.0 9.9 -0.05 9.9 -3.75 7.2 -7.55 4.4 -7.2 -0.05" fill="none" stroke="#000000" stroke-linecap="round" stroke-linejoin="round" stroke-opacity="0.0" stroke-width="0.0"/>
    </g>
    <g id="morphshape1" transform="matrix(1.0, 0.0, 0.0, 1.0, 1.95, 9.45)">
      <path d="M-1.7 -7.55 Q-1.45 -6.35 -0.15 -5.65 -0.6 -3.7 1.55 -1.3 4.0 1.4 5.75 3.05 7.75 -3.0 0.9 -5.5 0.9 -6.75 0.6 -7.7 0.05 -8.4 -0.7 -8.95 -1.7 -9.6 -1.65 -7.55" fill="#fe8989" fill-rule="evenodd" stroke="none"/>
      <path d="M-1.65 -7.55 Q-1.7 -9.6 -0.7 -8.95 0.05 -8.4 0.6 -7.7 0.9 -6.75 0.9 -5.5 7.75 -3.0 5.75 3.05 4.0 1.4 1.55 -1.3 -0.6 -3.7 -0.15 -5.65 -1.45 -6.35 -1.7 -7.55" fill="none" stroke="#000000" stroke-linecap="round" stroke-linejoin="round" stroke-opacity="0.0" stroke-width="0.0"/>
    </g>
    <g id="morphshape2" transform="matrix(1.0, 0.0, 0.0, 1.0, 5.75, 9.5)">
      <path d="M-5.3 0.65 L-5.3 0.75 Q-5.25 2.0 -4.05 4.1 L-3.4 5.0 Q-1.9 6.7 1.1 6.8 L1.45 6.9 Q2.7 7.2 3.25 8.15 3.8 8.25 4.15 8.45 L4.9 8.45 5.2 7.9 5.4 7.45 5.4 7.2 5.35 6.85 5.3 6.8 4.65 6.25 4.4 6.05 Q2.95 5.2 1.2 4.3 L0.4 3.85 -0.15 3.5 -1.2 2.35 Q-1.4 1.7 -1.5 0.9 L-1.45 0.3 Q-1.25 -1.65 0.7 -4.05 L0.7 -4.05 Q1.9 -5.65 3.35 -7.0 L3.95 -7.5 3.5 -8.65 3.3 -8.85 2.35 -8.65 1.75 -8.1 Q-0.3 -6.1 -2.4 -4.5 L-3.15 -4.0 Q-5.0 -2.55 -5.45 0.7" fill="#76015b" fill-rule="evenodd" stroke="none"/>
      <path d="M-5.45 0.7 Q-5.0 -2.55 -3.15 -4.0 L-2.4 -4.5 Q-0.3 -6.1 1.75 -8.1 L2.35 -8.65 3.3 -8.85 3.5 -8.65 3.95 -7.5 3.35 -7.0 Q1.9 -5.65 0.7 -4.05 L0.7 -4.05 Q-1.25 -1.65 -1.45 0.3 L-1.5 0.9 Q-1.4 1.7 -1.2 2.35 L-0.15 3.5 0.4 3.85 1.2 4.3 Q2.95 5.2 4.4 6.05 L4.65 6.25 5.3 6.8 5.35 6.85 5.4 7.2 5.4 7.45 5.2 7.9 4.9 8.45 4.15 8.45 Q3.8 8.25 3.25 8.15 2.7 7.2 1.45 6.9 L1.1 6.8 Q-1.9 6.7 -3.4 5.0 L-4.05 4.1 Q-5.25 2.0 -5.3 0.75 L-5.3 0.65" fill="none" stroke="#000000" stroke-linecap="round" stroke-linejoin="round" stroke-opacity="0.0" stroke-width="0.0"/>
    </g>
    <g id="sprite0" transform="matrix(1.0, 0.0, 0.0, 1.0, 1.8, 1.3)">
      <use ffdec:characterId="1155" height="2.55" transform="matrix(1.0, 0.0, 0.0, 1.0, -1.8, -1.3)" width="3.65" xlink:href="#shape0"/>
    </g>
    <g id="shape0" transform="matrix(1.0, 0.0, 0.0, 1.0, 1.8, 1.3)">
      <path d="M-1.8 0.85 L-0.75 0.1 1.85 -1.3 1.85 0.15 Q0.8 0.95 -0.4 1.25 L-1.8 0.85" fill="#ff0000" fill-rule="evenodd" stroke="none"/>
    </g>
    <g id="sprite1" transform="matrix(1.0, 0.0, 0.0, 1.0, 1.65, 2.6)">
      <use ffdec:characterId="1157" height="5.2" transform="matrix(1.0, 0.0, 0.0, 1.0, -1.65, -2.6)" width="3.35" xlink:href="#shape1"/>
    </g>
    <g id="shape1" transform="matrix(1.0, 0.0, 0.0, 1.0, 1.65, 2.6)">
      <path d="M1.7 -1.75 Q0.1 0.35 -0.7 2.6 L-1.65 1.05 -0.65 -0.8 0.8 -2.6 1.7 -1.75" fill="#ff0000" fill-rule="evenodd" stroke="none"/>
    </g>
    <g id="sprite2" transform="matrix(1.0, 0.0, 0.0, 1.0, 1.2, 2.8)">
      <use ffdec:characterId="1159" height="5.6" transform="matrix(1.0, 0.0, 0.0, 1.0, -1.2, -2.8)" width="2.4" xlink:href="#shape2"/>
    </g>
    <g id="shape2" transform="matrix(1.0, 0.0, 0.0, 1.0, 1.2, 2.8)">
      <path d="M-1.05 -2.8 L0.15 -2.8 0.65 -1.3 Q1.3 0.9 1.2 1.8 1.1 2.65 0.5 2.7 L0.0 2.8 -0.05 2.8 -0.75 0.75 -1.2 -1.6 -1.05 -2.8" fill="#ff0000" fill-rule="evenodd" stroke="none"/>
    </g>
    <g id="sprite3" transform="matrix(1.0, 0.0, 0.0, 1.0, 1.95, 0.85)">
      <use ffdec:characterId="1161" height="1.7" transform="matrix(1.0, 0.0, 0.0, 1.0, -1.95, -0.85)" width="3.85" xlink:href="#shape3"/>
    </g>
    <g id="shape3" transform="matrix(1.0, 0.0, 0.0, 1.0, 1.95, 0.85)">
      <path d="M1.75 0.55 L1.3 0.85 -1.95 0.7 -1.95 -0.85 -0.4 -0.75 Q0.85 -0.75 1.9 0.15 L1.75 0.55" fill="#ff0000" fill-rule="evenodd" stroke="none"/>
    </g>
    <g id="sprite4" transform="matrix(1.0, 0.0, 0.0, 1.0, 1.6, 0.85)">
      <use ffdec:characterId="1163" height="1.75" transform="matrix(1.0, 0.0, 0.0, 1.0, -1.6, -0.85)" width="3.15" xlink:href="#shape4"/>
    </g>
    <g id="shape4" transform="matrix(1.0, 0.0, 0.0, 1.0, 1.6, 0.85)">
      <path d="M0.2 -0.85 L1.55 -0.75 1.25 0.35 -0.8 0.9 -1.6 0.85 -1.25 -0.3 0.2 -0.85" fill="#ff0000" fill-rule="evenodd" stroke="none"/>
    </g>
  </defs>
</svg>
