<?xml version="1.0" encoding="UTF-8" standalone="no"?>
<svg xmlns:ffdec="https://www.free-decompiler.com/flash" xmlns:xlink="http://www.w3.org/1999/xlink" ffdec:objectType="frame" height="24.15px" width="18.6px" xmlns="http://www.w3.org/2000/svg">
  <g transform="matrix(1.0, 0.0, 0.0, 1.0, 9.7, 14.1)">
    <use ffdec:characterId="1152" height="20.0" transform="matrix(1.0, 0.0, 0.0, 1.0, -7.25, -9.95)" width="15.2" xlink:href="#morphshape0"/>
    <use ffdec:characterId="1153" height="13.85" transform="matrix(1.0, 0.0, 0.0, 1.0, -1.95, -9.45)" width="8.55" xlink:href="#morphshape1"/>
    <use ffdec:characterId="1154" height="18.1" transform="matrix(1.0, 0.0, 0.0, 1.0, -5.75, -9.5)" width="11.1" xlink:href="#morphshape2"/>
    <use ffdec:characterId="1156" height="2.55" transform="matrix(1.0546, -0.1301, 0.1224, 0.9917, 3.7927, -5.605)" width="3.65" xlink:href="#sprite0"/>
    <use ffdec:characterId="1158" height="5.2" transform="matrix(0.9886, -0.1444, 0.1536, 1.0512, -1.6804, -13.1949)" width="3.35" xlink:href="#sprite1"/>
    <use ffdec:characterId="1160" height="5.6" transform="matrix(0.999, -0.0394, 0.0403, 1.0204, -5.4115, -12.7097)" width="2.4" xlink:href="#sprite2"/>
    <use ffdec:characterId="1162" height="1.7" transform="matrix(1.0361, 0.1098, -0.1053, 0.9941, -9.0809, -5.0091)" width="3.85" xlink:href="#sprite3"/>
    <use ffdec:characterId="1164" height="1.75" transform="matrix(0.9941, 0.1053, -0.1053, 0.9941, -9.351, -0.2635)" width="3.15" xlink:href="#sprite4"/>
  </g>
  <defs>
    <g id="morphshape0" transform="matrix(1.0, 0.0, 0.0, 1.0, 7.25, 9.95)">
      <path d="M-7.05 0.25 Q-7.4 4.55 -3.7 7.3 -0.1 10.0 3.75 10.0 5.15 9.75 5.8 9.2 7.15 7.1 7.5 2.1 7.75 -4.85 2.05 -6.15 0.85 -9.0 0.2 -9.7 L-1.6 -9.65 Q-3.2 -9.6 -4.3 -8.6 L-6.2 -3.85 Q-6.8 -2.05 -7.1 0.25" fill="#990000" fill-rule="evenodd" stroke="none"/>
      <path d="M-7.1 0.25 Q-6.8 -2.05 -6.2 -3.85 L-4.3 -8.6 Q-3.2 -9.6 -1.6 -9.65 L0.2 -9.7 Q0.85 -9.0 2.05 -6.15 7.75 -4.85 7.5 2.1 7.15 7.1 5.8 9.2 5.15 9.75 3.75 10.0 -0.1 10.0 -3.7 7.3 -7.4 4.55 -7.05 0.25" fill="none" stroke="#000000" stroke-linecap="round" stroke-linejoin="round" stroke-opacity="0.0" stroke-width="0.0"/>
    </g>
    <g id="morphshape1" transform="matrix(1.0, 0.0, 0.0, 1.0, 1.95, 9.45)">
      <path d="M-1.65 -7.35 Q-1.35 -6.15 -0.2 -5.5 -0.5 -3.4 1.65 -1.1 4.05 1.45 5.7 3.2 7.9 -3.1 0.95 -5.4 0.9 -6.65 0.6 -7.7 0.1 -8.4 -0.65 -8.9 -1.65 -9.5 -1.55 -7.4" fill="#fe8989" fill-rule="evenodd" stroke="none"/>
      <path d="M-1.55 -7.4 Q-1.65 -9.5 -0.65 -8.9 0.1 -8.4 0.6 -7.7 0.9 -6.65 0.95 -5.4 7.9 -3.1 5.7 3.2 4.05 1.45 1.65 -1.1 -0.5 -3.4 -0.2 -5.5 -1.35 -6.15 -1.65 -7.35" fill="none" stroke="#000000" stroke-linecap="round" stroke-linejoin="round" stroke-opacity="0.0" stroke-width="0.0"/>
    </g>
    <g id="morphshape2" transform="matrix(1.0, 0.0, 0.0, 1.0, 5.75, 9.5)">
      <path d="M-5.2 0.55 L-5.2 0.65 Q-5.15 2.05 -4.0 4.1 L-3.4 5.0 Q-1.95 6.7 1.05 6.8 L1.4 6.9 Q2.75 7.15 3.3 8.05 3.8 8.2 4.0 8.5 L4.75 8.5 5.1 8.0 5.35 7.6 5.35 7.35 5.3 7.0 5.25 6.9 4.7 6.3 4.5 6.1 Q3.15 5.2 1.3 4.3 L0.5 3.85 -0.05 3.5 -1.15 2.4 Q-1.4 1.75 -1.5 0.95 L-1.45 0.35 Q-1.25 -1.5 0.7 -4.0 L0.7 -4.0 Q1.9 -5.6 3.3 -7.0 L3.9 -7.55 3.65 -8.7 3.45 -8.9 2.45 -8.85 1.85 -8.25 Q-0.15 -6.15 -2.2 -4.55 L-2.95 -4.05 Q-4.9 -2.55 -5.3 0.6" fill="#76015b" fill-rule="evenodd" stroke="none"/>
      <path d="M-5.3 0.6 Q-4.9 -2.55 -2.95 -4.05 L-2.2 -4.55 Q-0.15 -6.15 1.85 -8.25 L2.45 -8.85 3.45 -8.9 3.65 -8.7 3.9 -7.55 3.3 -7.0 Q1.9 -5.6 0.7 -4.0 L0.7 -4.0 Q-1.25 -1.5 -1.45 0.35 L-1.5 0.95 Q-1.4 1.75 -1.15 2.4 L-0.05 3.5 0.5 3.85 1.3 4.3 Q3.15 5.2 4.5 6.1 L4.7 6.3 5.25 6.9 5.3 7.0 5.35 7.35 5.35 7.6 5.1 8.0 4.75 8.5 4.0 8.5 Q3.8 8.2 3.3 8.05 2.75 7.15 1.4 6.9 L1.05 6.8 Q-1.95 6.7 -3.4 5.0 L-4.0 4.1 Q-5.15 2.05 -5.2 0.65 L-5.2 0.55" fill="none" stroke="#000000" stroke-linecap="round" stroke-linejoin="round" stroke-opacity="0.0" stroke-width="0.0"/>
    </g>
    <g id="sprite0" transform="matrix(1.0, 0.0, 0.0, 1.0, 1.8, 1.3)">
      <use ffdec:characterId="1155" height="2.55" transform="matrix(1.0, 0.0, 0.0, 1.0, -1.8, -1.3)" width="3.65" xlink:href="#shape0"/>
    </g>
    <g id="shape0" transform="matrix(1.0, 0.0, 0.0, 1.0, 1.8, 1.3)">
      <path d="M-1.8 0.85 L-0.75 0.1 1.85 -1.3 1.85 0.15 Q0.8 0.95 -0.4 1.25 L-1.8 0.85" fill="#ff0000" fill-rule="evenodd" stroke="none"/>
    </g>
    <g id="sprite1" transform="matrix(1.0, 0.0, 0.0, 1.0, 1.65, 2.6)">
      <use ffdec:characterId="1157" height="5.2" transform="matrix(1.0, 0.0, 0.0, 1.0, -1.65, -2.6)" width="3.35" xlink:href="#shape1"/>
    </g>
    <g id="shape1" transform="matrix(1.0, 0.0, 0.0, 1.0, 1.65, 2.6)">
      <path d="M1.7 -1.75 Q0.1 0.35 -0.7 2.6 L-1.65 1.05 -0.65 -0.8 0.8 -2.6 1.7 -1.75" fill="#ff0000" fill-rule="evenodd" stroke="none"/>
    </g>
    <g id="sprite2" transform="matrix(1.0, 0.0, 0.0, 1.0, 1.2, 2.8)">
      <use ffdec:characterId="1159" height="5.6" transform="matrix(1.0, 0.0, 0.0, 1.0, -1.2, -2.8)" width="2.4" xlink:href="#shape2"/>
    </g>
    <g id="shape2" transform="matrix(1.0, 0.0, 0.0, 1.0, 1.2, 2.8)">
      <path d="M-1.05 -2.8 L0.15 -2.8 0.65 -1.3 Q1.3 0.9 1.2 1.8 1.1 2.65 0.5 2.7 L0.0 2.8 -0.05 2.8 -0.75 0.75 -1.2 -1.6 -1.05 -2.8" fill="#ff0000" fill-rule="evenodd" stroke="none"/>
    </g>
    <g id="sprite3" transform="matrix(1.0, 0.0, 0.0, 1.0, 1.95, 0.85)">
      <use ffdec:characterId="1161" height="1.7" transform="matrix(1.0, 0.0, 0.0, 1.0, -1.95, -0.85)" width="3.85" xlink:href="#shape3"/>
    </g>
    <g id="shape3" transform="matrix(1.0, 0.0, 0.0, 1.0, 1.95, 0.85)">
      <path d="M1.75 0.55 L1.3 0.85 -1.95 0.7 -1.95 -0.85 -0.4 -0.75 Q0.85 -0.75 1.9 0.15 L1.75 0.55" fill="#ff0000" fill-rule="evenodd" stroke="none"/>
    </g>
    <g id="sprite4" transform="matrix(1.0, 0.0, 0.0, 1.0, 1.6, 0.85)">
      <use ffdec:characterId="1163" height="1.75" transform="matrix(1.0, 0.0, 0.0, 1.0, -1.6, -0.85)" width="3.15" xlink:href="#shape4"/>
    </g>
    <g id="shape4" transform="matrix(1.0, 0.0, 0.0, 1.0, 1.6, 0.85)">
      <path d="M0.2 -0.85 L1.55 -0.75 1.25 0.35 -0.8 0.9 -1.6 0.85 -1.25 -0.3 0.2 -0.85" fill="#ff0000" fill-rule="evenodd" stroke="none"/>
    </g>
  </defs>
</svg>
