<?xml version="1.0" encoding="UTF-8" standalone="no"?>
<svg xmlns:ffdec="https://www.free-decompiler.com/flash" xmlns:xlink="http://www.w3.org/1999/xlink" ffdec:objectType="frame" height="17.45px" width="12.35px" xmlns="http://www.w3.org/2000/svg">
  <g transform="matrix(1.0, 0.0, 0.0, 1.0, 7.05, 5.95)">
    <use ffdec:characterId="1369" height="11.85" transform="matrix(1.0, 0.0, 0.0, 1.0, -5.4, -5.95)" width="10.7" xlink:href="#shape0"/>
  </g>
  <defs>
    <g id="shape0" transform="matrix(1.0, 0.0, 0.0, 1.0, 5.4, 5.95)">
      <path d="M0.7 -5.95 L4.3 -5.95 4.5 -4.95 5.0 -3.0 5.1 -2.7 5.15 -2.5 5.15 -2.4 3.9 1.65 Q3.65 2.7 2.95 3.15 L-1.3 2.25 -1.95 1.95 Q-1.1 3.55 0.7 3.65 L0.2 3.9 -5.3 2.9 -5.4 2.5 -5.15 0.7 -5.05 0.05 -4.45 -0.5 -0.25 -0.8 -0.2 -0.8 -0.2 -0.85 -0.6 -2.8 0.45 -3.8 Q0.9 -4.3 2.3 -4.1 L1.7 -5.15 1.35 -5.25 1.1 -5.3 0.7 -5.95 M-3.7 -3.9 L-3.7 -4.85 -3.7 -5.3 -3.65 -5.35 -3.6 -5.95 -3.0 -5.95 -3.0 -5.4 -3.3 -3.95 -3.7 -3.9" fill="#ffcc99" fill-rule="evenodd" stroke="none"/>
      <path d="M0.7 -5.95 L1.1 -5.3 1.35 -5.25 1.7 -5.15 2.3 -4.1 Q0.9 -4.3 0.45 -3.8 L-0.6 -2.8 -0.2 -0.85 -0.25 -0.8 -4.45 -0.5 -4.1 -1.75 -4.1 -1.9 -3.7 -3.9 -3.3 -3.95 -3.0 -5.4 -3.0 -5.95 0.7 -5.95" fill="#ebbb98" fill-rule="evenodd" stroke="none"/>
      <path d="M-5.3 2.9 L0.2 3.9 0.7 3.65 Q-1.1 3.55 -1.95 1.95 L-1.3 2.25 2.95 3.15 Q3.65 2.7 3.9 1.65 L5.15 -2.4 5.25 0.2 4.8 4.5 4.5 4.75 4.3 5.2 Q2.75 6.15 1.2 5.8 L-1.9 5.25 Q-3.4 5.0 -4.75 4.2 L-5.3 2.9" fill="#e2b181" fill-rule="evenodd" stroke="none"/>
    </g>
  </defs>
</svg>
