<?xml version="1.0" encoding="UTF-8" standalone="no"?>
<svg xmlns:ffdec="https://www.free-decompiler.com/flash" xmlns:xlink="http://www.w3.org/1999/xlink" ffdec:objectType="frame" height="17.45px" width="12.35px" xmlns="http://www.w3.org/2000/svg">
  <g transform="matrix(1.0, 0.0, 0.0, 1.0, 7.05, 5.95)">
    <use ffdec:characterId="1370" height="17.45" transform="matrix(1.0, 0.0, 0.0, 1.0, -7.05, -5.95)" width="12.1" xlink:href="#shape0"/>
  </g>
  <defs>
    <g id="shape0" transform="matrix(1.0, 0.0, 0.0, 1.0, 7.05, 5.95)">
      <path d="M0.7 -5.95 L4.3 -5.95 4.5 -4.95 4.7 -4.3 5.0 -1.5 5.0 1.85 5.0 4.55 4.9 5.15 4.55 7.5 Q4.3 9.35 1.75 11.35 3.15 9.25 3.3 6.85 L3.3 5.45 3.25 4.3 3.4 2.2 3.55 2.2 3.6 1.35 3.75 0.7 Q4.0 -0.2 3.4 -0.1 L2.5 2.2 2.05 4.3 1.85 4.65 2.3 4.3 2.5 4.3 2.5 4.9 2.45 4.9 2.3 5.45 2.05 6.35 0.7 10.0 0.4 10.6 -0.65 11.5 -1.15 11.5 0.7 8.7 1.3 6.5 1.45 5.45 1.45 5.0 1.05 5.1 0.4 4.8 Q0.15 4.55 0.3 4.3 L0.5 2.1 0.5 1.75 0.5 1.35 -0.6 -2.8 2.15 -4.25 2.25 -4.25 1.7 -5.15 1.35 -5.25 1.1 -5.3 0.7 -5.95 M-4.15 9.5 L-3.3 8.4 -2.0 6.95 -0.75 4.25 -0.4 4.7 Q-0.45 7.1 -2.65 8.7 L-3.8 9.5 -4.15 9.5 M-3.0 -5.95 L-3.0 -5.4 -3.25 -4.25 -3.7 -3.9 -3.7 -4.85 -3.65 -5.4 -3.65 -5.6 -3.6 -5.95 -3.0 -5.95" fill="#ffcc99" fill-rule="evenodd" stroke="none"/>
      <path d="M0.7 -5.95 L1.1 -5.3 1.35 -5.25 1.7 -5.15 2.25 -4.25 2.15 -4.25 -0.6 -2.8 0.5 1.35 0.5 1.75 0.4 1.35 0.05 0.4 Q-0.9 -1.6 -2.9 -2.35 L-3.6 -1.75 -3.7 -3.9 -3.25 -4.25 -3.0 -5.4 -3.0 -5.95 0.7 -5.95 M2.5 4.9 L2.5 4.3 2.3 4.3 1.85 4.65 2.05 4.3 2.5 2.2 3.4 -0.1 Q4.0 -0.2 3.75 0.7 L3.6 1.35 3.55 2.2 3.4 2.2 3.25 4.3 3.3 5.45 3.3 6.85 Q3.15 9.25 1.75 11.35 L1.55 11.35 1.4 11.3 1.3 11.2 1.15 10.95 1.1 10.55 1.5 9.95 Q3.05 7.9 2.65 5.45 L2.65 5.15 2.65 5.1 2.5 5.05 2.5 4.9" fill="#ebbb98" fill-rule="evenodd" stroke="none"/>
      <path d="M0.5 1.75 L0.5 2.1 0.3 4.3 Q0.15 4.55 0.4 4.8 L1.05 5.1 1.45 5.0 1.45 5.45 1.3 6.5 0.7 8.7 -1.15 11.5 -1.7 10.85 -1.05 9.45 -0.6 9.0 0.25 6.3 0.3 5.3 0.1 4.8 -0.25 4.65 -0.4 4.7 -0.75 4.25 -2.0 6.95 -3.3 8.4 -4.15 9.5 Q-4.7 9.6 -4.8 9.1 -4.9 8.45 -4.4 8.0 -2.1 6.3 -2.7 4.25 -3.2 4.1 -3.25 4.25 -3.5 5.45 -4.45 6.15 L-4.85 6.2 -5.3 6.4 -5.95 6.6 Q-7.2 6.65 -7.0 5.9 L-5.35 4.5 Q-4.4 3.5 -4.15 2.7 L-3.9 1.6 -3.65 0.9 Q-3.5 0.5 -3.6 -1.75 L-2.9 -2.35 Q-0.9 -1.6 0.05 0.4 L0.4 1.35 0.5 1.75" fill="#e2b181" fill-rule="evenodd" stroke="none"/>
    </g>
  </defs>
</svg>
