<?xml version="1.0" encoding="UTF-8" standalone="no"?>
<svg xmlns:ffdec="https://www.free-decompiler.com/flash" xmlns:xlink="http://www.w3.org/1999/xlink" ffdec:objectType="frame" height="186.0px" width="186.0px" xmlns="http://www.w3.org/2000/svg">
  <g transform="matrix(1.0, 0.0, 0.0, 1.0, 3.0, 93.0)">
    <use ffdec:characterId="2811" height="180.0" transform="matrix(1.0, 0.0, 0.0, 1.0, 0.0, -90.0)" width="180.0" xlink:href="#shape0"/>
    <use ffdec:characterId="2810" height="6.0" transform="matrix(1.0, 0.0, 0.0, 1.0, -3.0, -93.0)" width="186.0" xlink:href="#sprite0"/>
    <use ffdec:characterId="2810" height="6.0" transform="matrix(1.0, 0.0, 0.0, 1.0, -3.0, 87.0)" width="186.0" xlink:href="#sprite0"/>
  </g>
  <defs>
    <g id="shape0" transform="matrix(1.0, 0.0, 0.0, 1.0, 0.0, 90.0)">
      <path d="M0.0 -90.0 L20.0 -90.0 90.0 0.0 20.0 90.0 0.0 90.0 70.0 0.0 0.0 -90.0 M90.0 -90.0 L110.0 -90.0 180.0 0.0 110.0 90.0 90.0 90.0 160.0 0.0 90.0 -90.0" fill="#000000" fill-opacity="0.08627451" fill-rule="evenodd" stroke="none"/>
      <path d="M110.0 -90.0 L180.0 -90.0 180.0 0.0 180.0 90.0 110.0 90.0 180.0 0.0 110.0 -90.0 M0.0 90.0 L0.0 -90.0 70.0 0.0 0.0 90.0" fill="#878601" fill-opacity="0.08627451" fill-rule="evenodd" stroke="none"/>
      <path d="M20.0 -90.0 L90.0 -90.0 160.0 0.0 90.0 90.0 20.0 90.0 90.0 0.0 20.0 -90.0" fill="#ffff00" fill-opacity="0.7058824" fill-rule="evenodd" stroke="none"/>
    </g>
    <g id="sprite0" transform="matrix(1.0, 0.0, 0.0, 1.0, 93.0, 3.0)">
      <use ffdec:characterId="2802" height="6.0" transform="matrix(1.0, 0.0, 0.0, 1.0, -93.0, -3.0)" width="186.0" xlink:href="#shape1"/>
      <use ffdec:characterId="2582" height="2.0" transform="matrix(1.25, 0.0, 0.0, 1.0, -87.0, -1.0)" width="4.0" xlink:href="#shape2"/>
    </g>
    <g id="shape1" transform="matrix(1.0, 0.0, 0.0, 1.0, 93.0, 3.0)">
      <path d="M-93.0 -0.1 L-87.0 -0.1 -87.0 -1.0 -82.0 -1.0 -82.0 -0.05 -78.0 -0.05 -78.0 -1.0 -72.0 -1.0 -72.0 -0.05 -68.0 -0.05 -68.0 -1.0 -62.0 -1.0 -62.0 -0.05 -58.0 -0.05 -58.0 -1.0 -52.0 -1.0 -52.0 -0.05 -48.0 -0.05 -48.0 -1.0 -42.0 -1.0 -42.0 -0.05 -38.0 -0.05 -38.0 -1.0 -32.0 -1.0 -32.0 -0.05 -28.0 -0.05 -28.0 -1.0 -22.0 -1.0 -22.0 -0.05 -18.0 -0.05 -18.0 -1.0 -12.0 -1.0 -12.0 -0.05 -8.0 -0.05 -8.0 -1.0 -2.0 -1.0 -2.0 -0.05 2.0 -0.05 2.0 -1.0 8.0 -1.0 8.0 -0.05 12.0 -0.05 12.0 -1.0 18.0 -1.0 18.0 -0.05 22.0 -0.05 22.0 -1.0 28.0 -1.0 28.0 -0.05 32.0 -0.05 32.0 -1.0 38.0 -1.0 38.0 -0.05 42.0 -0.05 42.0 -1.0 48.0 -1.0 48.0 -0.05 52.0 -0.05 52.0 -1.0 58.0 -1.0 58.0 -0.05 62.0 -0.05 62.0 -1.0 68.0 -1.0 68.0 -0.05 72.0 -0.05 72.0 -1.0 78.0 -1.0 78.0 -0.05 82.0 -0.05 82.0 -1.0 87.0 -1.0 87.0 -0.1 93.0 -0.1 93.0 1.1 87.0 1.1 87.0 1.0 82.0 1.0 82.0 0.75 78.0 0.75 78.0 1.0 72.0 1.0 72.0 0.75 68.0 0.75 68.0 1.0 62.0 1.0 62.0 0.75 58.0 0.75 58.0 1.0 52.0 1.0 52.0 0.75 48.0 0.75 48.0 1.0 42.0 1.0 42.0 0.75 38.0 0.75 38.0 1.0 32.0 1.0 32.0 0.75 28.0 0.75 28.0 1.0 22.0 1.0 22.0 0.75 18.0 0.75 18.0 1.0 12.0 1.0 12.0 0.75 8.0 0.75 8.0 1.0 2.0 1.0 2.0 0.75 -2.0 0.75 -2.0 1.0 -8.0 1.0 -8.0 0.75 -12.0 0.75 -12.0 1.0 -18.0 1.0 -18.0 0.75 -22.0 0.75 -22.0 1.0 -28.0 1.0 -28.0 0.75 -32.0 0.75 -32.0 1.0 -38.0 1.0 -38.0 0.75 -42.0 0.75 -42.0 1.0 -48.0 1.0 -48.0 0.75 -52.0 0.75 -52.0 1.0 -58.0 1.0 -58.0 0.75 -62.0 0.75 -62.0 1.0 -68.0 1.0 -68.0 0.75 -72.0 0.75 -72.0 1.0 -78.0 1.0 -78.0 0.75 -82.0 0.75 -82.0 1.0 -87.0 1.0 -87.0 1.1 -93.0 1.1 -93.0 -0.1" fill="#333333" fill-rule="evenodd" stroke="none"/>
      <path d="M93.0 -0.1 L87.0 -0.1 87.0 -1.0 82.0 -1.0 82.0 -0.05 78.0 -0.05 78.0 -1.0 72.0 -1.0 72.0 -0.05 68.0 -0.05 68.0 -1.0 62.0 -1.0 62.0 -0.05 58.0 -0.05 58.0 -1.0 52.0 -1.0 52.0 -0.05 48.0 -0.05 48.0 -1.0 42.0 -1.0 42.0 -0.05 38.0 -0.05 38.0 -1.0 32.0 -1.0 32.0 -0.05 28.0 -0.05 28.0 -1.0 22.0 -1.0 22.0 -0.05 18.0 -0.05 18.0 -1.0 12.0 -1.0 12.0 -0.05 8.0 -0.05 8.0 -1.0 2.0 -1.0 2.0 -0.05 -2.0 -0.05 -2.0 -1.0 -8.0 -1.0 -8.0 -0.05 -12.0 -0.05 -12.0 -1.0 -18.0 -1.0 -18.0 -0.05 -22.0 -0.05 -22.0 -1.0 -28.0 -1.0 -28.0 -0.05 -32.0 -0.05 -32.0 -1.0 -38.0 -1.0 -38.0 -0.05 -42.0 -0.05 -42.0 -1.0 -48.0 -1.0 -48.0 -0.05 -52.0 -0.05 -52.0 -1.0 -58.0 -1.0 -58.0 -0.05 -62.0 -0.05 -62.0 -1.0 -68.0 -1.0 -68.0 -0.05 -72.0 -0.05 -72.0 -1.0 -78.0 -1.0 -78.0 -0.05 -82.0 -0.05 -82.0 -1.0 -87.0 -1.0 -87.0 -0.1 -93.0 -0.1 -93.0 -3.0 -87.0 -3.0 -87.0 -2.0 87.0 -2.0 87.0 -3.0 93.0 -3.0 93.0 -0.1" fill="#cccccc" fill-rule="evenodd" stroke="none"/>
      <path d="M-93.0 1.1 L-87.0 1.1 -87.0 1.0 -82.0 1.0 -82.0 0.75 -78.0 0.75 -78.0 1.0 -72.0 1.0 -72.0 0.75 -68.0 0.75 -68.0 1.0 -62.0 1.0 -62.0 0.75 -58.0 0.75 -58.0 1.0 -52.0 1.0 -52.0 0.75 -48.0 0.75 -48.0 1.0 -42.0 1.0 -42.0 0.75 -38.0 0.75 -38.0 1.0 -32.0 1.0 -32.0 0.75 -28.0 0.75 -28.0 1.0 -22.0 1.0 -22.0 0.75 -18.0 0.75 -18.0 1.0 -12.0 1.0 -12.0 0.75 -8.0 0.75 -8.0 1.0 -2.0 1.0 -2.0 0.75 2.0 0.75 2.0 1.0 8.0 1.0 8.0 0.75 12.0 0.75 12.0 1.0 18.0 1.0 18.0 0.75 22.0 0.75 22.0 1.0 28.0 1.0 28.0 0.75 32.0 0.75 32.0 1.0 38.0 1.0 38.0 0.75 42.0 0.75 42.0 1.0 48.0 1.0 48.0 0.75 52.0 0.75 52.0 1.0 58.0 1.0 58.0 0.75 62.0 0.75 62.0 1.0 68.0 1.0 68.0 0.75 72.0 0.75 72.0 1.0 78.0 1.0 78.0 0.75 82.0 0.75 82.0 1.0 87.0 1.0 87.0 1.1 93.0 1.1 93.0 3.0 87.0 3.0 87.0 2.0 -87.0 2.0 -87.0 3.0 -93.0 3.0 -93.0 1.1" fill="#666666" fill-rule="evenodd" stroke="none"/>
    </g>
    <g id="shape2" transform="matrix(1.0, 0.0, 0.0, 1.0, 2.0, 0.0)">
      <path d="M2.0 2.0 L-2.0 2.0 -2.0 0.0 2.0 0.0 2.0 2.0" fill="#ff0000" fill-rule="evenodd" stroke="none"/>
    </g>
  </defs>
</svg>
