<?xml version="1.0" encoding="UTF-8" standalone="no"?>
<svg xmlns:ffdec="https://www.free-decompiler.com/flash" xmlns:xlink="http://www.w3.org/1999/xlink" ffdec:objectType="frame" height="105.7px" width="30.0px" xmlns="http://www.w3.org/2000/svg">
  <g transform="matrix(1.0, 0.0, 0.0, 1.0, 9.3, 10.35)">
    <use ffdec:characterId="1741" ffdec:characterName="game_fla.upperarm2_575" height="53.95" id="upperArm2" transform="matrix(1.0, 0.0, 0.0, 1.0, -9.3, -10.35)" width="21.45" xlink:href="#sprite0"/>
    <use ffdec:characterId="1747" height="65.55" id="lowerArmOuter2" transform="matrix(1.0, 0.0, 0.0, 1.0, -7.0496, 29.8003)" width="27.75" xlink:href="#sprite2"/>
  </g>
  <defs>
    <g id="sprite0" transform="matrix(1.0, 0.0, 0.0, 1.0, 10.2, 26.6)">
      <use ffdec:characterId="1737" height="53.95" transform="matrix(1.0, 0.0, 0.0, 1.0, -10.2, -26.6)" width="21.35" xlink:href="#shape0"/>
      <use ffdec:characterId="1081" height="100.0" id="shape" transform="matrix(0.18, 0.0, 0.0, 0.52, -8.9996, -25.9995)" width="100.0" xlink:href="#sprite1"/>
    </g>
    <g id="shape0" transform="matrix(1.0, 0.0, 0.0, 1.0, 10.2, 26.6)">
      <path d="M7.2 9.5 L6.95 13.0 6.95 13.6 Q6.65 17.95 6.9 20.15 7.0 21.75 5.95 24.0 4.35 27.05 1.3 27.3 -1.85 27.6 -3.8 26.65 -5.35 25.0 -6.15 22.75 L-6.75 20.9 -7.3 14.2 -7.4 13.95 -7.4 11.75 -7.3 9.1 -7.3 8.0 -7.4 7.2 -7.5 6.9 -7.5 6.4 -7.8 1.6 -7.75 1.65 -7.8 0.85 -7.75 -0.35 -7.7 -0.3 -7.75 0.1 -7.75 0.45 -7.75 0.5 Q-7.75 3.25 -7.45 3.95 L-6.5 5.2 -6.4 5.5 Q-5.6 7.85 -5.55 8.65 -5.55 9.75 -4.0 11.65 L-1.75 14.25 -1.4 14.15 -1.3 13.7 -2.55 11.25 -3.2 9.8 -3.1 8.9 -3.1 8.35 -2.3 6.1 -2.15 5.8 -2.0 5.65 -1.1 4.1 -0.75 3.75 1.65 3.35 Q2.65 3.7 3.75 4.8 L4.45 6.95 Q5.1 9.4 5.65 9.4 L5.95 9.4 6.25 9.5 6.4 9.45 7.0 9.55 7.2 9.5 M-2.35 1.8 L-2.4 1.8 -2.35 1.8 M3.0 1.45 L3.1 1.4 3.1 1.45 3.0 1.45 M-4.0 18.35 L-3.9 18.8 -3.95 18.35 -4.0 18.35" fill="#ffcc99" fill-rule="evenodd" stroke="none"/>
      <path d="M3.6 1.2 L3.0 2.05 Q3.0 2.25 5.1 3.2 L5.3 3.45 Q6.25 4.45 6.25 5.1 L5.9 6.35 5.5 7.25 7.4 8.5 7.25 9.25 7.2 9.5 7.0 9.55 6.4 9.45 6.25 9.5 5.95 9.4 5.65 9.4 Q5.1 9.4 4.45 6.95 L3.75 4.8 Q2.65 3.7 1.65 3.35 L-0.75 3.75 -1.1 4.1 -2.0 5.65 -2.15 5.8 -2.3 6.1 -3.1 8.35 -3.1 8.9 -3.2 9.8 -2.55 11.25 -1.3 13.7 -1.4 14.15 -1.75 14.25 -4.0 11.65 Q-5.55 9.75 -5.55 8.65 -5.6 7.85 -6.4 5.5 L-6.5 5.2 -7.45 3.95 Q-7.75 3.25 -7.75 0.5 L-7.75 0.45 -7.75 0.1 -7.7 -0.3 -7.6 -0.25 -7.5 -0.2 -7.05 0.4 -6.4 1.25 -6.4 1.75 Q-6.15 2.15 -6.05 2.65 L-5.95 2.95 -5.75 4.0 -5.8 4.75 -4.95 4.65 -2.8 4.6 -2.8 4.5 Q-2.8 2.8 -2.4 1.8 L-2.35 1.8 -2.35 1.75 -2.05 1.15 -1.75 0.75 -1.1 0.45 -1.35 -0.05 -1.65 -0.75 Q-1.65 -1.75 -0.7 -2.55 L0.15 -3.25 Q1.2 -3.2 2.0 -2.65 L2.7 -2.0 3.0 -1.55 3.4 -0.4 2.85 1.55 3.0 1.45 3.1 1.45 3.1 1.4 3.3 1.3 3.6 1.2" fill="#ebbb98" fill-rule="evenodd" stroke="none"/>
      <path d="M-8.15 -20.15 L-8.0 -20.55 -7.35 -21.6 -6.75 -22.35 Q-4.8 -24.6 -2.2 -25.7 L-2.1 -25.7 Q0.5 -26.85 3.45 -26.5 L4.5 -26.05 Q6.6 -25.25 8.3 -23.85 9.5 -22.6 10.15 -21.05 L10.9 -18.1 Q11.35 -16.0 11.05 -13.35 L10.5 -8.7 10.05 -5.4 9.95 -4.2 9.75 -4.15 Q9.6 3.4 8.95 4.95 L9.0 5.75 9.25 8.7 9.05 9.05 8.55 9.2 7.4 8.5 5.5 7.25 5.9 6.35 6.25 5.1 Q6.25 4.45 5.3 3.45 L5.1 3.2 Q3.0 2.25 3.0 2.05 L3.6 1.2 4.55 1.0 4.55 0.95 Q4.55 -0.75 5.5 -2.1 5.45 -2.65 5.55 -3.0 L5.35 -4.4 5.6 -5.6 6.65 -9.85 6.65 -9.75 7.15 -11.0 Q8.0 -12.6 8.25 -15.3 L8.2 -15.9 8.3 -16.9 8.1 -17.6 7.2 -21.35 5.55 -23.8 Q4.1 -24.5 2.15 -24.6 L-0.5 -24.55 Q-1.2 -25.7 -4.6 -23.45 -7.15 -21.75 -8.15 -20.15 M-8.85 -0.55 L-8.9 -0.5 -8.9 -0.55 -8.85 -0.55 M-9.2 -9.5 L-9.25 -10.15 -9.25 -13.45 -9.05 -16.35 -8.85 -17.6 -9.2 -10.4 -9.2 -9.5 M-6.4 -7.95 L-6.35 -8.15 -6.35 -8.05 -6.4 -7.95" fill="#d7d3d0" fill-rule="evenodd" stroke="none"/>
      <path d="M-8.15 -20.15 Q-7.15 -21.75 -4.6 -23.45 -1.2 -25.7 -0.5 -24.55 L2.15 -24.6 Q4.1 -24.5 5.55 -23.8 L7.2 -21.35 8.1 -17.6 8.3 -16.9 8.2 -15.9 8.25 -15.3 Q8.0 -12.6 7.15 -11.0 L6.65 -9.75 6.65 -9.85 5.6 -5.6 5.35 -4.4 5.55 -3.0 Q5.45 -2.65 5.5 -2.1 4.55 -0.75 4.55 0.95 L4.55 1.0 3.6 1.2 3.3 1.3 3.1 1.4 3.0 1.45 2.85 1.55 3.4 -0.4 3.0 -1.55 2.7 -2.0 2.0 -2.65 Q1.2 -3.2 0.15 -3.25 L-0.7 -2.55 Q-1.65 -1.75 -1.65 -0.75 L-1.35 -0.05 -1.1 0.45 -1.75 0.75 -2.05 1.15 -2.35 1.75 -2.35 1.8 -2.4 1.8 Q-2.8 2.8 -2.8 4.5 L-2.8 4.6 -4.95 4.65 -5.8 4.75 -5.75 4.0 -5.95 2.95 -6.05 2.65 Q-6.15 2.15 -6.4 1.75 L-6.4 1.25 -7.05 0.4 -7.5 -0.2 -7.6 -0.25 -7.7 -0.3 -7.75 -0.35 -7.85 -0.35 -8.85 -0.55 -8.9 -0.55 -9.05 -0.6 -9.25 -0.6 -9.35 -1.2 -9.35 -1.25 -10.2 -2.9 -10.05 -3.2 -10.0 -3.25 -9.75 -3.5 -9.5 -3.9 -9.25 -4.2 -9.25 -4.3 -9.05 -5.0 -9.2 -9.5 -9.2 -10.4 -8.85 -17.6 -8.85 -18.05 Q-8.85 -19.05 -8.15 -20.15 M-6.4 -7.95 L-6.35 -8.05 -6.35 -8.15 -6.4 -7.95" fill="#bbb4ae" fill-rule="evenodd" stroke="none"/>
    </g>
    <g id="sprite1" transform="matrix(1.0, 0.0, 0.0, 1.0, 50.0, 50.0)">
      <use ffdec:characterId="1080" height="100.0" transform="matrix(1.0, 0.0, 0.0, 1.0, -50.0, -50.0)" width="100.0" xlink:href="#shape1"/>
    </g>
    <g id="shape1" transform="matrix(1.0, 0.0, 0.0, 1.0, 50.0, 50.0)">
      <path d="M50.0 50.0 L-50.0 50.0 -50.0 -50.0 50.0 -50.0 50.0 50.0 Z" fill="none" stroke="#9900ff" stroke-linecap="round" stroke-linejoin="round" stroke-width="0.05"/>
    </g>
    <g id="sprite2" transform="matrix(1.0, 0.0, 0.0, 1.0, 9.4, 5.8)">
      <use ffdec:characterId="1746" ffdec:characterName="game_fla.lowerarm2_577" height="65.55" id="lowerArm2" transform="matrix(1.0, 0.0, 0.0, 1.0, -9.4, -5.8)" width="27.75" xlink:href="#sprite3"/>
    </g>
    <g id="sprite3" transform="matrix(1.0, 0.0, 0.0, 1.0, 9.3, 30.75)">
      <use ffdec:characterId="1743" ffdec:characterName="game_fla.hand2_578" height="21.85" id="hand" transform="matrix(1.0, 0.0, 0.0, 1.0, -8.3, 12.95)" width="15.6" xlink:href="#sprite4"/>
      <use ffdec:characterId="1744" height="48.2" transform="matrix(1.0, 0.0, 0.0, 1.0, -8.85, -29.5)" width="27.3" xlink:href="#shape3"/>
      <use ffdec:characterId="1081" height="100.0" id="shape" transform="matrix(0.15, 0.0, 0.0, 0.6, -7.4997, -29.9995)" width="100.0" xlink:href="#sprite1"/>
    </g>
    <g id="sprite4" transform="matrix(1.0, 0.0, 0.0, 1.0, 8.8, 7.45)">
      <use ffdec:characterId="1462" height="14.95" transform="matrix(1.0, 0.0, 0.0, 1.0, -6.75, -7.45)" width="13.55" xlink:href="#shape2"/>
    </g>
    <g id="shape2" transform="matrix(1.0, 0.0, 0.0, 1.0, 6.75, 7.45)">
      <path d="M0.85 -7.45 L5.35 -7.45 5.65 -6.2 6.25 -3.75 6.4 -3.35 6.45 -3.15 6.45 -3.0 4.9 2.05 4.0 4.55 -1.6 2.8 -2.45 2.45 Q-1.4 4.45 0.9 4.55 L0.25 4.85 -6.65 3.6 -6.75 3.1 -6.45 0.85 -6.3 0.05 -5.55 -0.6 -0.3 -1.0 -0.25 -1.0 -0.25 -1.05 -0.75 -3.5 0.55 -4.75 Q1.1 -5.35 2.85 -5.15 L2.15 -6.45 1.7 -6.55 1.35 -6.6 0.85 -7.45 M-3.75 -7.45 L-3.75 -6.75 -4.15 -4.95 -4.65 -4.85 -4.65 -6.05 -4.6 -6.6 -4.55 -6.7 -4.5 -7.45 -3.75 -7.45 M-5.1 -2.4 L-5.1 -2.2 -5.15 -2.3 -5.1 -2.4" fill="#ffcc99" fill-rule="evenodd" stroke="none"/>
      <path d="M0.85 -7.45 L1.35 -6.6 1.7 -6.55 2.15 -6.45 2.85 -5.15 Q1.1 -5.35 0.55 -4.75 L-0.75 -3.5 -0.25 -1.05 -0.3 -1.0 -5.55 -0.6 -5.1 -2.2 -5.1 -2.4 -4.65 -4.85 -4.15 -4.95 -3.75 -6.75 -3.75 -7.45 0.85 -7.45" fill="#ebbb98" fill-rule="evenodd" stroke="none"/>
      <path d="M-6.65 3.6 L0.25 4.85 0.9 4.55 Q-1.4 4.45 -2.45 2.45 L-1.6 2.8 4.0 4.55 4.9 2.05 6.45 -3.0 6.8 -0.1 Q6.9 2.8 6.0 5.6 L5.6 5.95 5.35 6.5 Q2.85 8.15 0.3 7.05 L-1.5 7.2 Q-4.45 7.25 -6.25 5.15 L-6.65 4.65 -6.7 3.6 -6.65 3.6" fill="#e2b181" fill-rule="evenodd" stroke="none"/>
    </g>
    <g id="shape3" transform="matrix(1.0, 0.0, 0.0, 1.0, 8.85, 29.5)">
      <path d="M-4.85 -2.85 L-5.2 -4.15 -5.65 -8.75 -5.8 -8.3 -5.2 -10.5 -3.85 -15.7 -3.2 -18.1 Q-2.4 -20.75 -1.2 -23.2 L-0.25 -25.05 1.45 -27.75 1.8 -28.2 Q2.3 -28.15 2.45 -27.75 2.55 -27.2 1.85 -25.95 0.55 -23.55 1.45 -21.05 1.7 -20.2 1.3 -18.3 L1.15 -17.7 0.35 -21.15 -0.75 -19.8 -1.8 -15.7 -2.8 -10.5 -3.4 -6.05 -3.65 -3.15 -3.65 -2.75 -4.85 -2.85 M3.6 7.5 L4.3 7.4 5.15 7.85 5.3 11.2 5.35 11.45 5.45 12.15 5.45 12.65 5.35 13.0 5.25 13.25 Q1.4 23.3 -3.2 14.85 L-3.65 14.95 -3.8 13.75 -3.95 13.4 -4.15 13.0 -3.5 11.8 Q-2.65 10.0 -2.7 8.4 -2.05 10.6 -1.9 11.75 L-1.9 12.0 Q-1.75 12.15 -1.65 12.1 L-0.6 12.0 3.25 11.85 3.35 11.85 Q4.35 11.75 4.8 11.45 L5.05 11.1 4.25 9.55 3.6 8.95 3.6 7.5" fill="#ebbb98" fill-rule="evenodd" stroke="none"/>
      <path d="M-3.65 -2.75 L-3.65 -3.15 -3.4 -6.05 -2.8 -10.5 -1.8 -15.7 -0.75 -19.8 0.35 -21.15 1.15 -17.7 1.3 -18.3 Q1.7 -20.2 1.45 -21.05 0.55 -23.55 1.85 -25.95 2.55 -27.2 2.45 -27.75 2.3 -28.15 1.8 -28.2 L1.45 -27.75 -0.25 -25.05 -1.2 -23.2 Q-2.4 -20.75 -3.2 -18.1 L-3.85 -15.7 -5.2 -10.5 -5.8 -8.3 -5.65 -8.75 -5.2 -4.15 -4.85 -2.85 Q-5.65 -3.1 -6.05 -3.65 L-6.1 -3.7 -6.25 -3.85 -6.85 -8.45 -7.0 -10.5 -7.15 -14.55 -7.1 -15.7 -7.0 -23.95 Q-5.65 -24.95 -5.8 -22.2 -5.25 -22.15 -4.75 -23.55 -4.3 -24.85 -4.6 -27.75 L-4.7 -28.5 -3.95 -28.15 -2.1 -27.85 Q0.65 -27.8 2.6 -29.5 L4.85 -28.65 5.15 -27.75 Q6.35 -23.95 6.55 -20.8 L6.65 -15.7 6.6 -14.7 6.5 -14.75 Q6.25 -15.4 5.6 -14.85 4.75 -14.05 4.35 -12.75 L4.35 -12.6 4.1 -11.45 4.15 -11.05 Q4.1 -8.5 2.15 -8.5 1.5 -8.5 1.2 -9.0 L1.0 -9.05 1.0 -9.0 Q0.85 -8.2 0.3 -7.45 L0.25 -7.35 0.15 -7.2 -0.35 -6.4 -0.15 -6.1 0.25 -5.65 Q1.65 -4.1 1.65 -2.85 1.65 -1.55 1.1 -1.05 L1.05 -0.85 0.85 -0.9 0.15 -0.75 -1.85 -1.1 -1.9 -1.1 -1.95 -1.15 Q-2.9 -1.65 -3.0 -2.8 L-3.65 -2.75 M3.45 7.5 L3.5 7.5 3.6 7.5 3.6 8.95 4.25 9.55 5.05 11.1 4.8 11.45 Q4.35 11.75 3.35 11.85 L3.25 11.85 -0.6 12.0 -1.65 12.1 Q-1.75 12.15 -1.9 12.0 L-1.9 11.75 Q-2.05 10.6 -2.7 8.4 -2.65 10.0 -3.5 11.8 L-4.15 13.0 -3.95 13.4 -4.05 13.5 -4.15 13.15 -4.15 13.0 -4.15 12.75 -4.2 11.85 -4.15 11.85 -4.35 8.7 -3.0 8.0 -2.85 8.0 0.25 7.65 3.45 7.5 M5.45 12.65 L5.55 13.25 5.55 13.35 5.25 13.25 5.35 13.0 5.45 12.65" fill="#ffcc99" fill-rule="evenodd" stroke="none"/>
      <path d="M4.35 -12.6 L4.35 -12.75 Q4.75 -14.05 5.6 -14.85 6.25 -15.4 6.5 -14.75 L6.6 -14.7 6.75 -14.5 6.85 -13.4 Q6.85 -9.7 6.15 -2.4 L6.5 2.05 6.4 4.1 6.4 4.2 6.4 4.65 6.6 5.2 6.75 6.15 6.75 7.4 Q6.65 8.0 6.0 8.0 L5.15 7.85 4.3 7.4 3.6 7.5 3.5 7.5 3.45 7.5 3.55 6.8 3.75 5.65 4.1 2.55 4.25 -0.7 4.35 -4.8 4.15 -5.9 4.25 -6.6 4.6 -9.8 4.35 -12.6 M18.4 -2.45 L18.45 -2.45 18.4 -2.35 18.4 -2.45" fill="#d7d3d0" fill-rule="evenodd" stroke="none"/>
      <path d="M-4.7 -28.5 L-4.6 -27.75 Q-4.3 -24.85 -4.75 -23.55 -5.25 -22.15 -5.8 -22.2 -5.65 -24.95 -7.0 -23.95 L-5.75 -27.75 -5.6 -28.3 Q-5.4 -28.9 -4.7 -28.5" fill="#e2b181" fill-rule="evenodd" stroke="none"/>
      <path d="M-3.65 -2.75 L-3.0 -2.8 Q-2.9 -1.65 -1.95 -1.15 L-1.9 -1.1 -1.85 -1.1 0.15 -0.75 0.85 -0.9 1.05 -0.85 1.1 -1.05 Q1.65 -1.55 1.65 -2.85 1.65 -4.1 0.25 -5.65 L-0.15 -6.1 -0.35 -6.4 0.15 -7.2 0.25 -7.35 0.3 -7.45 Q0.85 -8.2 1.0 -9.0 L1.0 -9.05 1.2 -9.0 Q1.5 -8.5 2.15 -8.5 4.1 -8.5 4.15 -11.05 L4.1 -11.45 4.35 -12.6 4.6 -9.8 4.25 -6.6 4.15 -5.9 4.35 -4.8 4.25 -0.7 4.1 2.55 3.75 5.65 3.55 6.8 3.45 7.5 0.25 7.65 -2.85 8.0 -3.0 8.0 -4.35 8.7 -5.0 8.9 -5.65 8.75 -5.65 7.6 -5.75 7.5 Q-5.75 5.9 -6.7 2.0 L-7.1 0.25 -7.1 0.2 -7.2 -0.25 -7.35 -0.55 -7.5 -1.1 -8.15 -2.45 -8.75 -3.05 -8.85 -3.3 -8.2 -4.4 -7.55 -5.5 -7.55 -5.55 -7.5 -5.6 -6.9 -4.65 -6.25 -3.85 -6.1 -3.7 -6.05 -3.65 Q-5.65 -3.1 -4.85 -2.85 L-3.65 -2.75" fill="#bbb4ae" fill-rule="evenodd" stroke="none"/>
    </g>
  </defs>
</svg>
