<?xml version="1.0" encoding="UTF-8" standalone="no"?>
<svg xmlns:ffdec="https://www.free-decompiler.com/flash" xmlns:xlink="http://www.w3.org/1999/xlink" ffdec:objectType="frame" height="33.2px" width="9.2px" xmlns="http://www.w3.org/2000/svg">
  <g transform="matrix(1.0, 0.0, 0.0, 1.0, 4.55, 5.2)">
    <use ffdec:characterId="2217" ffdec:characterName="game_fla.lowerarm2_378" height="33.2" id="lowerArm2" transform="matrix(1.0, 0.0, 0.0, 1.0, -4.55, -5.2)" width="9.2" xlink:href="#sprite0"/>
  </g>
  <defs>
    <g id="sprite0" transform="matrix(1.0, 0.0, 0.0, 1.0, 5.15, 15.45)">
      <use ffdec:characterId="2215" height="32.7" transform="matrix(1.0, 0.0, 0.0, 1.0, -5.15, -14.95)" width="8.95" xlink:href="#shape0"/>
      <use ffdec:characterId="1081" height="100.0" id="shape" transform="matrix(0.07, 0.0, 0.0, 0.3, -3.4996, -15.0002)" width="100.0" xlink:href="#sprite1"/>
    </g>
    <g id="shape0" transform="matrix(1.0, 0.0, 0.0, 1.0, 5.15, 14.95)">
      <path d="M-3.25 -8.0 L-3.25 -7.95 -3.15 -7.95 -3.25 -8.0 M-2.9 12.5 L-2.65 11.75 -2.5 11.15 Q-2.4 9.45 -2.05 8.7 L-2.25 6.45 Q-2.25 4.45 -2.8 1.45 L-3.85 -3.75 -4.7 -7.75 Q-5.15 -9.7 -4.55 -11.2 -3.5 -14.0 -0.6 -14.95 L2.05 -13.85 Q3.75 -13.05 3.55 -6.7 L2.7 8.9 Q3.15 9.3 3.45 10.3 3.9 11.7 3.75 13.55 L3.65 14.05 Q3.65 14.55 3.25 14.85 2.8 15.2 2.25 15.15 L1.8 15.95 0.95 17.15 0.6 17.45 0.55 17.45 0.25 17.5 -1.25 17.75 -1.7 17.55 Q-1.4 17.15 -0.9 17.1 L0.05 17.05 0.15 16.9 0.25 16.9 1.4 15.4 -0.4 14.8 -0.3 14.2 Q-0.15 13.85 0.6 13.7 L0.85 13.7 1.35 13.3 1.3 12.65 Q1.25 12.1 1.35 11.7 1.55 11.15 2.0 10.75 L1.6 10.2 Q1.35 9.9 1.0 9.75 L0.8 9.75 0.45 9.7 Q-0.25 9.7 -0.9 10.25 L-1.85 11.6 -2.6 12.3 -2.9 12.5 M-1.4 1.9 L-1.8 1.1 -1.35 4.4 Q-1.0 7.0 -1.45 8.75 L-0.65 8.7 0.15 8.7 Q-0.3 8.05 -0.4 6.75 L-0.5 4.35 Q-0.55 3.25 -1.4 1.9" fill="#ffcc99" fill-rule="evenodd" stroke="none"/>
      <path d="M0.45 9.7 L0.8 9.75 1.0 9.75 Q1.35 9.9 1.6 10.2 L2.0 10.75 Q1.55 11.15 1.35 11.7 1.25 12.1 1.3 12.65 L1.35 13.3 0.85 13.7 0.75 13.45 0.3 12.35 -0.05 10.95 0.25 10.0 0.45 9.7" fill="#e2b181" fill-rule="evenodd" stroke="none"/>
      <path d="M-3.25 -8.0 L-3.15 -7.95 -3.25 -7.95 -3.25 -8.0 M-2.9 12.5 L-2.6 12.3 -1.85 11.6 -0.9 10.25 Q-0.25 9.7 0.45 9.7 L0.25 10.0 -0.05 10.95 0.3 12.35 0.75 13.45 0.85 13.7 0.6 13.7 Q-0.15 13.85 -0.3 14.2 L-0.4 14.8 1.4 15.4 0.25 16.9 0.15 16.9 0.05 17.05 -0.9 17.1 Q-1.4 17.15 -1.7 17.55 L-2.5 17.25 -2.65 16.75 -2.75 16.8 -3.25 16.9 Q-4.1 16.75 -4.25 16.0 L-5.15 15.7 -4.9 14.9 -4.25 14.5 Q-3.5 13.9 -3.0 12.85 L-2.9 12.5 M-1.4 1.9 Q-0.55 3.25 -0.5 4.35 L-0.4 6.75 Q-0.3 8.05 0.15 8.7 L-0.65 8.7 -1.45 8.75 Q-1.0 7.0 -1.35 4.4 L-1.8 1.1 -1.4 1.9" fill="#ebbb98" fill-rule="evenodd" stroke="none"/>
    </g>
    <g id="sprite1" transform="matrix(1.0, 0.0, 0.0, 1.0, 50.0, 50.0)">
      <use ffdec:characterId="1080" height="100.0" transform="matrix(1.0, 0.0, 0.0, 1.0, -50.0, -50.0)" width="100.0" xlink:href="#shape1"/>
    </g>
    <g id="shape1" transform="matrix(1.0, 0.0, 0.0, 1.0, 50.0, 50.0)">
      <path d="M50.0 50.0 L-50.0 50.0 -50.0 -50.0 50.0 -50.0 50.0 50.0 Z" fill="none" stroke="#9900ff" stroke-linecap="round" stroke-linejoin="round" stroke-width="0.05"/>
    </g>
  </defs>
</svg>
