<?xml version="1.0" encoding="UTF-8" standalone="no"?>
<svg xmlns:ffdec="https://www.free-decompiler.com/flash" xmlns:xlink="http://www.w3.org/1999/xlink" ffdec:objectType="frame" height="23.0px" width="23.0px" xmlns="http://www.w3.org/2000/svg">
  <g transform="matrix(1.0, 0.0, 0.0, 1.0, 0.0, 0.0)">
    <filter id="filter0">
      <feFlood flood-color="#ffffff" flood-opacity="0.29803923" result="filterResult0"/>
      <feOffset dx="2.1608667917818052E-5" dy="1.9999999998832663" in="SourceGraphic" result="filterResult1"/>
      <feComposite in="filterResult0" in2="filterResult1" operator="out" result="filterResult2"/>
      <feComposite in="filterResult2" in2="SourceGraphic" operator="in" result="filterResult3"/>
      <feFlood flood-color="#000000" flood-opacity="0.29803923" result="filterResult4"/>
      <feOffset dx="-2.1608667918062984E-5" dy="-1.9999999998832663" in="SourceGraphic" result="filterResult5"/>
      <feComposite in="filterResult4" in2="filterResult5" operator="out" result="filterResult6"/>
      <feComposite in="filterResult6" in2="SourceGraphic" operator="in" result="filterResult7"/>
      <feComposite in="filterResult3" in2="filterResult7" operator="out" result="filterResult8"/>
      <feComposite in="filterResult7" in2="filterResult3" operator="out" result="filterResult9"/>
      <feComposite in="filterResult9" in2="filterResult8" operator="over" result="filterResult10"/>
      <feConvolveMatrix divisor="9.0" in="filterResult10" kernelMatrix="1 1 1 1 1 1 1 1 1" order="3 3" result="filterResult11"/>
      <feConvolveMatrix divisor="9.0" in="filterResult11" kernelMatrix="1 1 1 1 1 1 1 1 1" order="3 3" result="filterResult12"/>
      <feConvolveMatrix divisor="9.0" in="filterResult12" kernelMatrix="1 1 1 1 1 1 1 1 1" order="3 3" result="filterResult13"/>
      <feComposite in="filterResult13" in2="SourceGraphic" operator="in" result="filterResult14"/>
      <feComposite in="filterResult14" in2="SourceGraphic" operator="over" result="filterResult15"/>
      <feOffset dx="2.1608667917818052E-5" dy="1.9999999998832663" in="filterResult15" result="filterResult16"/>
      <feColorMatrix in="filterResult16" result="filterResult17" type="matrix" values="0 0 0 0 0.0,0 0 0 0 0.0,0 0 0 0 0.0,0 0 0 1 0"/>
      <feConvolveMatrix divisor="16.0" in="filterResult17" kernelMatrix="1 1 1 1 1 1 1 1 1 1 1 1 1 1 1 1" order="4 4" result="filterResult18"/>
      <feConvolveMatrix divisor="16.0" in="filterResult18" kernelMatrix="1 1 1 1 1 1 1 1 1 1 1 1 1 1 1 1" order="4 4" result="filterResult19"/>
      <feConvolveMatrix divisor="16.0" in="filterResult19" kernelMatrix="1 1 1 1 1 1 1 1 1 1 1 1 1 1 1 1" order="4 4" result="filterResult20"/>
      <feColorMatrix in="filterResult20" result="filterResult21" type="matrix" values="1 0 0 0 0,0 1 0 0 0,0 0 1 0 0,0 0 0 0.25 0"/>
      <feComposite in="filterResult15" in2="filterResult21" operator="over" result="filterResult22"/>
    </filter>
    <use ffdec:characterId="802" filter="url(#filter0)" height="23.0" id="bg" transform="matrix(1.0, 0.0, 0.0, 1.0, 0.0, 0.0)" width="23.0" xlink:href="#sprite0"/>
    <use ffdec:characterId="804" height="16.95" id="textSprite" transform="matrix(0.8, 0.0, 0.0, 0.8, 4.72, 4.7202)" width="16.95" xlink:href="#sprite1"/>
  </g>
  <defs>
    <g id="sprite0" transform="matrix(1.0, 0.0, 0.0, 1.0, 11.5, 11.5)">
      <use ffdec:characterId="801" height="23.0" transform="matrix(1.0, 0.0, 0.0, 1.0, -11.5, -11.5)" width="23.0" xlink:href="#shape0"/>
    </g>
    <g id="shape0" transform="matrix(1.0, 0.0, 0.0, 1.0, 11.5, 11.5)">
      <path d="M6.5 11.5 L-6.5 11.5 Q-11.5 11.5 -11.5 6.5 L-11.5 -6.5 Q-11.5 -11.5 -6.5 -11.5 L6.5 -11.5 Q11.5 -11.5 11.5 -6.5 L11.5 6.5 Q11.5 11.5 6.5 11.5" fill="#ffffff" fill-rule="evenodd" stroke="none"/>
    </g>
    <g id="sprite1" transform="matrix(1.0, 0.0, 0.0, 1.0, 0.35, 16.6)">
      <use ffdec:characterId="803" height="16.95" transform="matrix(1.0, 0.0, 0.0, 1.0, -0.35, -16.6)" width="16.95" xlink:href="#shape1"/>
    </g>
    <g id="shape1" transform="matrix(1.0, 0.0, 0.0, 1.0, 0.35, 16.6)">
      <path d="M9.9 -12.0 L8.85 -13.05 10.25 -14.45 10.95 -13.75 13.8 -16.6 15.2 -16.6 16.6 -15.2 16.6 -13.8 13.75 -10.95 14.45 -10.25 13.05 -8.85 12.0 -9.9 9.9 -12.0 M13.75 -10.95 L10.95 -13.75 13.75 -10.95 M13.8 -16.6 L16.6 -13.8 13.8 -16.6" fill="#000000" fill-rule="evenodd" stroke="none"/>
      <path d="M12.0 -9.9 L2.8 -0.7 Q1.6 -0.85 0.35 0.35 L-0.35 -0.35 Q0.85 -1.4 0.7 -2.8 L9.9 -12.0 12.0 -9.9" fill="#ffffff" fill-rule="evenodd" stroke="none"/>
      <path d="M9.9 -12.0 L8.85 -13.05 10.25 -14.45 10.95 -13.75 13.8 -16.6 15.2 -16.6 16.6 -15.2 16.6 -13.8 13.75 -10.95 14.45 -10.25 13.05 -8.85 12.0 -9.9 2.8 -0.7 Q1.6 -0.85 0.35 0.35 L-0.35 -0.35 Q0.85 -1.4 0.7 -2.8 L9.9 -12.0 12.0 -9.9 M16.6 -13.8 L13.8 -16.6 M10.95 -13.75 L13.75 -10.95" fill="none" stroke="#000000" stroke-linecap="round" stroke-linejoin="round" stroke-width="0.05"/>
    </g>
  </defs>
</svg>
