<?xml version="1.0" encoding="UTF-8" standalone="no"?>
<svg xmlns:ffdec="https://www.free-decompiler.com/flash" xmlns:xlink="http://www.w3.org/1999/xlink" ffdec:objectType="frame" height="40.0px" width="135.0px" xmlns="http://www.w3.org/2000/svg">
  <g transform="matrix(1.0, 0.0, 0.0, 1.0, 0.0, 0.0)">
    <use ffdec:characterId="444" height="40.0" transform="matrix(1.0, 0.0, 0.0, 1.0, 0.0, 0.0)" width="135.0" xlink:href="#shape0"/>
    <use ffdec:characterId="445" height="8.7" transform="matrix(1.0, 0.0, 0.0, 1.0, 10.4, 24.1)" width="16.7" xlink:href="#shape1"/>
    <use ffdec:characterId="446" height="1.4" transform="matrix(1.0, 0.0, 0.0, 1.0, 9.95, 31.05)" width="0.55" xlink:href="#shape2"/>
    <use ffdec:characterId="447" height="4.2" transform="matrix(1.0, 0.0, 0.0, 1.0, 27.0, 20.0)" width="6.05" xlink:href="#shape3"/>
    <use ffdec:characterId="448" height="12.85" transform="matrix(1.0, 0.0, 0.0, 1.0, 9.95, 7.1)" width="23.1" xlink:href="#shape4"/>
  </g>
  <defs>
    <g id="shape0" transform="matrix(1.0, 0.0, 0.0, 1.0, 0.0, 0.0)">
      <path d="M135.0 35.0 Q134.55 39.55 130.0 40.0 L5.0 40.0 Q0.45 39.55 0.0 35.0 L0.0 5.0 Q0.45 0.45 5.0 0.0 L130.0 0.0 Q134.55 0.45 135.0 5.0 L135.0 35.0" fill="#000000" fill-rule="evenodd" stroke="none"/>
      <path d="M134.2 35.0 L134.2 5.0 Q133.85 1.15 130.0 0.8 L5.0 0.8 Q1.15 1.15 0.8 5.0 L0.8 35.0 Q1.15 38.85 5.0 39.2 L130.0 39.2 Q133.85 38.85 134.2 35.0 M135.0 5.0 L135.0 35.0 Q134.55 39.55 130.0 40.0 L5.0 40.0 Q0.45 39.55 0.0 35.0 L0.0 5.0 Q0.45 0.45 5.0 0.0 L130.0 0.0 Q134.55 0.45 135.0 5.0" fill="#a6a6a6" fill-rule="evenodd" stroke="none"/>
      <path d="M44.45 9.75 L47.4 9.75 47.4 10.25 Q47.45 11.4 46.65 12.25 45.75 13.15 44.45 13.1 43.2 13.1 42.25 12.2 40.45 10.0 42.25 7.75 43.8 6.4 45.7 7.1 L46.65 7.75 46.1 8.3 Q45.45 7.55 44.45 7.6 42.3 7.8 42.1 10.0 42.3 12.2 44.5 12.4 45.45 12.35 46.15 11.7 46.6 11.2 46.65 10.5 L44.45 10.5 44.45 9.75" fill="#ffffff" fill-rule="evenodd" stroke="none"/>
      <path d="M44.45 9.75 L47.4 9.75 47.4 10.25 Q47.45 11.4 46.65 12.25 45.75 13.15 44.45 13.1 43.2 13.1 42.25 12.2 40.45 10.0 42.25 7.75 43.8 6.4 45.7 7.1 L46.65 7.75 46.1 8.3 Q45.45 7.55 44.45 7.6 42.3 7.8 42.1 10.0 42.3 12.2 44.5 12.4 45.45 12.35 46.15 11.7 46.6 11.2 46.65 10.5 L44.45 10.5 44.45 9.75 Z" fill="none" stroke="#ffffff" stroke-linecap="round" stroke-linejoin="round" stroke-width="0.2"/>
      <path d="M52.0 7.75 L49.3 7.75 49.3 9.65 51.75 9.65 51.75 10.35 49.3 10.35 49.3 12.25 52.0 12.25 52.0 13.0 48.5 13.0 48.5 7.0 52.0 7.0 52.0 7.75" fill="#ffffff" fill-rule="evenodd" stroke="none"/>
      <path d="M52.0 7.75 L49.3 7.75 49.3 9.65 51.75 9.65 51.75 10.35 49.3 10.35 49.3 12.25 52.0 12.25 52.0 13.0 48.5 13.0 48.5 7.0 52.0 7.0 52.0 7.75 Z" fill="none" stroke="#ffffff" stroke-linecap="round" stroke-linejoin="round" stroke-width="0.2"/>
      <path d="M54.5 7.75 L52.8 7.75 52.8 7.0 56.95 7.0 56.95 7.75 55.25 7.75 55.25 13.0 54.5 13.0 54.5 7.75" fill="#ffffff" fill-rule="evenodd" stroke="none"/>
      <path d="M54.5 7.75 L52.8 7.75 52.8 7.0 56.95 7.0 56.95 7.75 55.25 7.75 55.25 13.0 54.5 13.0 54.5 7.75 Z" fill="none" stroke="#ffffff" stroke-linecap="round" stroke-linejoin="round" stroke-width="0.2"/>
      <path d="M60.65 7.0 L60.65 13.0 59.9 13.0 59.9 7.0 60.65 7.0" fill="#ffffff" fill-rule="evenodd" stroke="none"/>
      <path d="M60.65 7.0 L60.65 13.0 59.9 13.0 59.9 7.0 60.65 7.0 Z" fill="none" stroke="#ffffff" stroke-linecap="round" stroke-linejoin="round" stroke-width="0.2"/>
      <path d="M63.35 7.75 L61.65 7.75 61.65 7.0 65.75 7.0 65.75 7.75 64.1 7.75 64.1 13.0 63.35 13.0 63.35 7.75" fill="#ffffff" fill-rule="evenodd" stroke="none"/>
      <path d="M63.35 7.75 L61.65 7.75 61.65 7.0 65.75 7.0 65.75 7.75 64.1 7.75 64.1 13.0 63.35 13.0 63.35 7.75 Z" fill="none" stroke="#ffffff" stroke-linecap="round" stroke-linejoin="round" stroke-width="0.2"/>
      <path d="M73.0 8.25 Q71.4 6.9 69.75 8.25 68.4 10.0 69.75 11.7 71.35 13.05 73.0 11.7 74.35 10.0 73.0 8.25 M74.45 10.0 Q74.5 11.25 73.6 12.2 71.4 14.0 69.2 12.2 67.4 10.0 69.2 7.75 70.1 6.85 71.4 6.85 72.65 6.85 73.6 7.75 74.45 8.7 74.45 10.0" fill="#ffffff" fill-rule="evenodd" stroke="none"/>
      <path d="M73.0 8.25 Q71.4 6.9 69.75 8.25 68.4 10.0 69.75 11.7 71.35 13.05 73.0 11.7 74.35 10.0 73.0 8.25 M74.45 10.0 Q74.5 11.25 73.6 12.2 71.4 14.0 69.2 12.2 67.4 10.0 69.2 7.75 70.1 6.85 71.4 6.85 72.65 6.85 73.6 7.75 74.45 8.7 74.45 10.0 Z" fill="none" stroke="#ffffff" stroke-linecap="round" stroke-linejoin="round" stroke-width="0.2"/>
      <path d="M79.4 7.0 L80.15 7.0 80.15 13.0 79.35 13.0 76.3 8.1 76.3 13.0 75.55 13.0 75.55 7.0 76.5 7.0 79.4 11.65 79.4 7.0" fill="#ffffff" fill-rule="evenodd" stroke="none"/>
      <path d="M79.4 7.0 L80.15 7.0 80.15 13.0 79.35 13.0 76.3 8.1 76.3 13.0 75.55 13.0 75.55 7.0 76.5 7.0 79.4 11.65 79.4 7.0 Z" fill="none" stroke="#ffffff" stroke-linecap="round" stroke-linejoin="round" stroke-width="0.2"/>
      <path d="M70.5 25.95 L70.5 25.8 Q70.15 23.45 67.75 23.4 65.4 23.75 65.35 26.15 65.75 28.5 68.1 28.55 L68.2 28.55 Q70.4 28.2 70.5 25.95 M77.5 28.55 Q79.65 28.15 79.7 25.95 L79.7 25.9 Q79.55 23.7 77.4 23.4 75.25 23.7 75.0 25.8 75.05 28.15 77.4 28.55 L77.5 28.55 M56.05 26.15 Q56.45 28.5 58.8 28.55 L58.85 28.55 Q61.1 28.2 61.2 25.95 L61.2 25.8 Q60.8 23.45 58.45 23.4 56.1 23.75 56.05 26.15 M58.8 21.7 L58.95 21.7 Q62.75 22.1 63.05 25.95 62.7 29.85 58.8 30.25 54.9 29.85 54.55 26.0 54.9 22.1 58.8 21.7 M40.85 23.35 Q41.65 17.35 47.7 17.0 50.35 17.0 52.25 18.85 L51.0 20.1 Q49.6 18.8 47.7 18.8 43.3 19.2 42.9 23.6 43.3 28.0 47.7 28.4 49.65 28.45 51.05 27.1 51.9 26.1 52.05 24.8 L47.7 24.8 47.7 23.0 53.8 23.0 53.9 24.15 Q53.95 26.55 52.35 28.35 50.4 30.3 47.7 30.2 L47.2 30.2 Q41.2 29.4 40.85 23.35 M68.1 21.7 L68.25 21.7 Q72.1 22.1 72.4 25.95 72.05 29.85 68.15 30.25 64.25 29.85 63.85 26.0 64.25 22.1 68.1 21.7 M81.3 21.95 L81.3 29.55 Q80.9 34.1 77.3 33.95 74.6 33.85 73.5 31.45 L75.15 30.75 Q75.75 32.15 77.3 32.3 79.45 32.25 79.55 29.8 L79.55 29.15 79.5 29.15 Q78.6 30.15 77.25 30.15 73.65 29.7 73.2 26.1 73.35 22.2 77.25 21.65 78.55 21.65 79.5 22.65 L79.55 22.65 79.55 21.95 81.3 21.95 M113.65 26.1 Q111.95 26.05 111.65 27.45 111.9 28.55 113.1 28.5 L113.15 28.55 Q115.0 28.35 115.35 26.55 114.55 26.1 113.65 26.1 M91.05 24.25 Q90.5 23.35 89.45 23.35 L89.4 23.35 Q87.3 23.7 87.25 25.85 L91.05 24.25 M82.6 17.45 L84.5 17.45 84.5 29.95 82.6 29.95 82.6 17.45 M89.4 21.7 Q92.05 21.95 93.05 24.4 L93.25 24.85 87.55 27.2 Q88.2 28.5 89.6 28.5 90.95 28.45 91.7 27.35 L93.15 28.35 Q91.85 30.2 89.6 30.2 85.7 29.85 85.4 25.95 L85.4 25.7 Q85.75 22.05 89.4 21.7 M113.35 21.65 L113.35 21.7 Q116.85 21.75 117.15 25.15 L117.15 29.95 115.35 29.95 115.35 28.95 115.3 28.95 Q114.45 30.2 112.9 30.2 L112.85 30.2 Q110.2 30.05 109.8 27.45 110.25 24.65 113.4 24.6 114.45 24.6 115.35 25.1 L115.35 24.95 Q115.0 23.3 113.35 23.35 112.25 23.3 111.65 24.25 L110.0 23.6 Q111.1 21.65 113.35 21.65 M103.95 21.35 Q103.8 19.4 101.85 19.2 L99.2 19.2 99.2 23.45 101.8 23.45 101.85 23.5 Q103.8 23.3 103.95 21.35 M101.8 17.45 L102.35 17.45 Q105.85 18.05 105.95 21.6 105.35 25.15 101.8 25.2 L99.2 25.2 99.2 29.95 97.3 29.95 97.3 17.45 101.8 17.45 M106.9 17.45 L108.8 17.45 108.8 29.95 106.9 29.95 106.9 17.45 M121.5 27.4 L121.6 27.4 123.7 21.95 125.8 21.95 120.7 33.75 118.75 33.75 120.65 29.55 117.3 21.95 119.3 21.95 121.5 27.4" fill="#ffffff" fill-rule="evenodd" stroke="none"/>
      <path d="M10.5 32.5 L10.4 32.45 Q9.9 31.85 9.95 31.05 L9.95 8.9 Q9.95 8.15 10.4 7.5 L10.5 7.45 22.9 19.85 22.9 20.15 10.5 32.5" fill="url(#gradient0)" fill-rule="evenodd" stroke="none"/>
      <path d="M27.0 24.25 L22.9 20.15 22.9 19.85 27.0 15.7 32.0 18.55 Q34.1 20.0 32.0 21.45 L27.0 24.25" fill="url(#gradient1)" fill-rule="evenodd" stroke="none"/>
      <path d="M10.4 32.45 L22.85 20.0 27.1 24.2 12.45 32.55 10.4 32.45" fill="url(#gradient2)" fill-rule="evenodd" stroke="none"/>
      <path d="M22.85 19.95 L10.4 7.5 12.45 7.45 27.1 15.75 22.85 19.95" fill="url(#gradient3)" fill-rule="evenodd" stroke="none"/>
    </g>
    <linearGradient gradientTransform="matrix(-0.0102, 0.0102, -0.0102, -0.0102, 13.4, 17.1)" gradientUnits="userSpaceOnUse" id="gradient0" spreadMethod="pad" x1="-819.2" x2="819.2">
      <stop offset="0.0" stop-color="#00a0ff"/>
      <stop offset="0.00784313725490196" stop-color="#00a1ff"/>
      <stop offset="0.25882352941176473" stop-color="#00beff"/>
      <stop offset="0.5098039215686274" stop-color="#00d2ff"/>
      <stop offset="0.7568627450980392" stop-color="#00dfff"/>
      <stop offset="1.0" stop-color="#00e3ff"/>
    </linearGradient>
    <linearGradient gradientTransform="matrix(-0.0148, 0.0, 0.0, -0.0148, 21.75, 20.0)" gradientUnits="userSpaceOnUse" id="gradient1" spreadMethod="pad" x1="-819.2" x2="819.2">
      <stop offset="0.0" stop-color="#ffe000"/>
      <stop offset="0.40784313725490196" stop-color="#ffbd00"/>
      <stop offset="0.7764705882352941" stop-color="#ffa500"/>
      <stop offset="1.0" stop-color="#ff9c00"/>
    </linearGradient>
    <linearGradient gradientTransform="matrix(-0.0139, 0.0139, -0.0139, -0.0139, 13.4, 33.65)" gradientUnits="userSpaceOnUse" id="gradient2" spreadMethod="pad" x1="-819.2" x2="819.2">
      <stop offset="0.0" stop-color="#ff3a44"/>
      <stop offset="1.0" stop-color="#c31162"/>
    </linearGradient>
    <linearGradient gradientTransform="matrix(0.0062, 0.0062, -0.0062, 0.0062, 12.35, 5.25)" gradientUnits="userSpaceOnUse" id="gradient3" spreadMethod="pad" x1="-819.2" x2="819.2">
      <stop offset="0.0" stop-color="#32a071"/>
      <stop offset="0.06666666666666667" stop-color="#2da771"/>
      <stop offset="0.47843137254901963" stop-color="#15cf74"/>
      <stop offset="0.8" stop-color="#06e775"/>
      <stop offset="1.0" stop-color="#00f076"/>
    </linearGradient>
    <g id="shape1" transform="matrix(1.0, 0.0, 0.0, 1.0, 0.0, 0.0)">
      <path d="M16.55 0.0 L16.7 0.1 2.05 8.4 Q1.05 9.05 0.05 8.4 L0.0 8.3 0.05 8.25 Q1.05 8.9 2.05 8.25 L16.55 0.0" fill="#000000" fill-opacity="0.19607843" fill-rule="evenodd" stroke="none"/>
    </g>
    <g id="shape2" transform="matrix(1.0, 0.0, 0.0, 1.0, 0.0, -0.15)">
      <path d="M0.45 1.4 L0.55 1.5 0.5 1.55 Q-0.05 0.95 0.0 0.15 0.0 0.85 0.45 1.4" fill="#000000" fill-opacity="0.11764706" fill-rule="evenodd" stroke="none"/>
    </g>
    <g id="shape3" transform="matrix(1.0, 0.0, 0.0, 1.0, 0.0, 0.0)">
      <path d="M5.0 1.3 Q5.85 0.9 6.05 0.0 5.95 1.0 5.0 1.45 L0.1 4.2 0.0 4.15 5.0 1.3" fill="#000000" fill-opacity="0.11764706" fill-rule="evenodd" stroke="none"/>
    </g>
    <g id="shape4" transform="matrix(1.0, 0.0, 0.0, 1.0, 0.0, 0.0)">
      <path d="M2.55 0.5 Q0.25 -0.6 0.0 1.95 L0.0 1.8 Q0.2 -0.75 2.55 0.35 L22.05 11.4 Q22.95 11.85 23.1 12.85 22.85 11.95 22.05 11.55 L2.55 0.5" fill="#ffffff" fill-opacity="0.24705882" fill-rule="evenodd" stroke="none"/>
    </g>
  </defs>
</svg>
