<?xml version="1.0" encoding="UTF-8" standalone="no"?>
<svg xmlns:ffdec="https://www.free-decompiler.com/flash" xmlns:xlink="http://www.w3.org/1999/xlink" ffdec:objectType="frame" height="56.15px" width="17.5px" xmlns="http://www.w3.org/2000/svg">
  <g transform="matrix(1.0, 0.0, 0.0, 1.0, 9.0, 25.15)">
    <use ffdec:characterId="1464" ffdec:characterName="game_fla.hand2_336" height="21.85" id="hand" transform="matrix(0.9, 0.0, 0.0, 0.9, -7.8699, 11.345)" width="15.6" xlink:href="#sprite0"/>
    <use ffdec:characterId="1562" height="39.9" transform="matrix(1.0, 0.0, 0.0, 1.0, -9.0, -25.15)" width="17.5" xlink:href="#shape1"/>
  </g>
  <defs>
    <g id="sprite0" transform="matrix(1.0, 0.0, 0.0, 1.0, 8.8, 7.45)">
      <use ffdec:characterId="1462" height="14.95" transform="matrix(1.0, 0.0, 0.0, 1.0, -6.75, -7.45)" width="13.55" xlink:href="#shape0"/>
    </g>
    <g id="shape0" transform="matrix(1.0, 0.0, 0.0, 1.0, 6.75, 7.45)">
      <path d="M0.85 -7.45 L5.35 -7.45 5.65 -6.2 6.25 -3.75 6.4 -3.35 6.45 -3.15 6.45 -3.0 4.9 2.05 4.0 4.55 -1.6 2.8 -2.45 2.45 Q-1.4 4.45 0.9 4.55 L0.25 4.85 -6.65 3.6 -6.75 3.1 -6.45 0.85 -6.3 0.05 -5.55 -0.6 -0.3 -1.0 -0.25 -1.0 -0.25 -1.05 -0.75 -3.5 0.55 -4.75 Q1.1 -5.35 2.85 -5.15 L2.15 -6.45 1.7 -6.55 1.35 -6.6 0.85 -7.45 M-3.75 -7.45 L-3.75 -6.75 -4.15 -4.95 -4.65 -4.85 -4.65 -6.05 -4.6 -6.6 -4.55 -6.7 -4.5 -7.45 -3.75 -7.45 M-5.1 -2.4 L-5.1 -2.2 -5.15 -2.3 -5.1 -2.4" fill="#ffcc99" fill-rule="evenodd" stroke="none"/>
      <path d="M0.85 -7.45 L1.35 -6.6 1.7 -6.55 2.15 -6.45 2.85 -5.15 Q1.1 -5.35 0.55 -4.75 L-0.75 -3.5 -0.25 -1.05 -0.3 -1.0 -5.55 -0.6 -5.1 -2.2 -5.1 -2.4 -4.65 -4.85 -4.15 -4.95 -3.75 -6.75 -3.75 -7.45 0.85 -7.45" fill="#ebbb98" fill-rule="evenodd" stroke="none"/>
      <path d="M-6.65 3.6 L0.25 4.85 0.9 4.55 Q-1.4 4.45 -2.45 2.45 L-1.6 2.8 4.0 4.55 4.9 2.05 6.45 -3.0 6.8 -0.1 Q6.9 2.8 6.0 5.6 L5.6 5.95 5.35 6.5 Q2.85 8.15 0.3 7.05 L-1.5 7.2 Q-4.45 7.25 -6.25 5.15 L-6.65 4.65 -6.7 3.6 -6.65 3.6" fill="#e2b181" fill-rule="evenodd" stroke="none"/>
    </g>
    <g id="shape1" transform="matrix(1.0, 0.0, 0.0, 1.0, 9.0, 25.15)">
      <path d="M2.35 -5.85 L2.15 -5.55 Q1.65 -5.15 1.65 -4.1 L1.85 -3.05 Q2.25 -2.05 3.35 -2.05 L3.85 -2.1 Q4.5 0.75 4.5 3.1 L4.45 4.45 4.05 4.7 3.55 4.55 2.05 4.2 2.0 4.2 0.75 4.1 -1.9 4.3 -2.95 4.6 -3.05 4.65 -3.75 4.5 -3.9 4.5 -4.05 4.5 -4.45 4.5 -4.75 3.25 -4.75 -4.0 -3.25 -2.5 -3.65 -4.5 -1.9 -3.3 Q-3.25 -0.55 -1.0 -0.55 0.15 -0.55 0.35 -1.75 0.75 -2.05 0.75 -2.4 L0.4 -4.0 -0.05 -4.8 0.65 -5.4 Q1.3 -6.0 1.75 -6.0 L2.35 -5.85" fill="#3e9f4c" fill-rule="evenodd" stroke="none"/>
      <path d="M6.5 0.9 L6.5 4.3 5.6 4.25 5.3 4.3 4.6 4.4 4.45 4.45 4.5 3.1 Q4.5 0.75 3.85 -2.1 4.9 -2.45 4.9 -4.2 L5.0 -4.95 5.5 -2.8 6.5 0.9 M-5.8 5.05 L-6.65 -6.0 -7.2 -7.55 Q-8.1 -9.85 -9.0 -10.25 -7.75 -10.4 -7.55 -12.15 -7.4 -13.15 -7.5 -15.5 L-6.55 -12.65 -5.7 -10.65 -5.05 -9.5 -5.35 -8.15 -5.75 -7.0 Q-5.75 -5.75 -4.6 -5.5 L-4.4 -5.0 -3.65 -4.5 -3.25 -2.5 -4.75 -4.0 -4.75 3.25 -4.45 4.5 -4.5 4.5 -5.1 4.65 -5.8 5.05 M4.75 -7.4 L4.75 -7.3 4.75 -6.95 4.9 -5.7 Q4.6 -6.3 3.8 -6.35 L3.85 -7.35 4.65 -7.35 4.75 -7.4" fill="#4ec262" fill-rule="evenodd" stroke="none"/>
      <path d="M5.25 -16.5 L5.25 -18.35 5.1 -20.8 Q6.1 -17.3 6.6 -9.7 L6.7 -7.3 7.05 -7.7 8.5 -9.5 8.5 -8.25 7.05 -5.15 6.85 -4.3 6.85 -3.15 Q6.9 -2.35 6.55 -1.25 L6.5 -1.15 6.5 0.9 5.5 -2.8 5.0 -4.95 5.0 -5.0 4.9 -5.7 4.75 -6.95 4.75 -7.3 4.75 -7.4 5.0 -7.5 5.25 -6.75 5.8 -6.75 5.6 -7.65 5.8 -10.25 5.85 -10.95 5.6 -13.05 5.4 -13.75 5.25 -16.5" fill="#90dd79" fill-rule="evenodd" stroke="none"/>
      <path d="M6.5 4.3 Q7.9 4.55 7.9 5.8 L7.55 7.6 7.75 8.8 7.95 10.55 7.85 12.1 7.85 12.25 Q7.85 13.4 7.4 13.85 L6.8 14.3 5.6 14.5 5.5 13.25 5.75 11.75 6.75 11.75 6.75 10.5 Q5.95 10.3 5.65 9.35 5.25 8.0 4.5 7.25 L4.75 6.75 6.25 7.0 6.25 5.25 5.5 4.45 5.3 4.3 5.6 4.25 6.5 4.3 M-5.65 13.55 Q-6.3 13.3 -6.5 12.2 L-6.55 10.8 Q-6.55 10.15 -6.25 9.85 L-6.25 9.8 -6.5 9.45 -6.8 8.1 Q-6.8 5.9 -5.8 5.05 L-5.1 4.65 -4.5 4.5 -4.45 4.5 -4.05 4.5 -3.9 4.5 -4.4 4.75 -4.9 5.15 Q-5.5 5.9 -5.5 7.75 -5.5 8.4 -5.0 9.15 -4.5 9.85 -4.5 10.1 L-5.1 11.95 -5.65 13.55" fill="#fff9d4" fill-rule="evenodd" stroke="none"/>
      <path d="M5.6 14.5 L5.25 14.5 4.8 14.4 Q4.9 13.35 4.05 12.3 3.3 11.3 2.5 11.25 3.1 10.3 3.75 10.5 3.8 8.1 1.75 8.0 L2.5 6.75 2.25 5.4 2.05 4.2 3.55 4.55 4.05 4.7 4.45 4.45 4.6 4.4 5.3 4.3 5.5 4.45 6.25 5.25 6.25 7.0 4.75 6.75 4.5 7.25 Q5.25 8.0 5.65 9.35 5.95 10.3 6.75 10.5 L6.75 11.75 5.75 11.75 5.5 13.25 5.6 14.5 M-4.9 14.25 L-5.0 14.25 -5.55 13.55 -5.65 13.55 -5.1 11.95 -4.5 10.1 Q-4.5 9.85 -5.0 9.15 -5.5 8.4 -5.5 7.75 -5.5 5.9 -4.9 5.15 L-4.4 4.75 -3.9 4.5 -3.75 4.5 -3.05 4.65 -2.95 4.6 -1.9 4.3 -2.75 5.35 Q-3.75 6.55 -3.75 7.25 L-3.3 7.85 Q-2.85 8.0 -3.0 9.0 L-0.75 9.25 -0.6 9.5 -0.5 9.75 Q-2.4 8.9 -3.2 10.7 -3.65 11.65 -4.0 13.75 L-4.25 13.25 -4.75 13.25 -4.9 14.25" fill="#cec9ab" fill-rule="evenodd" stroke="none"/>
      <path d="M4.8 14.4 L4.6 14.3 -0.25 14.75 -1.8 14.5 -4.25 14.25 -4.4 14.25 -4.9 14.25 -4.75 13.25 -4.25 13.25 -4.0 13.75 Q-3.65 11.65 -3.2 10.7 -2.4 8.9 -0.5 9.75 L-0.6 9.5 -0.75 9.25 -3.0 9.0 Q-2.85 8.0 -3.3 7.85 L-3.75 7.25 Q-3.75 6.55 -2.75 5.35 L-1.9 4.3 0.75 4.1 2.0 4.2 2.05 4.2 2.25 5.4 2.5 6.75 1.75 8.0 Q3.8 8.1 3.75 10.5 3.1 10.3 2.5 11.25 3.3 11.3 4.05 12.3 4.9 13.35 4.8 14.4" fill="#9c9982" fill-rule="evenodd" stroke="none"/>
      <path d="M-0.85 -19.55 L0.2 -19.0 1.1 -19.8 2.25 -20.6 2.25 -20.0 1.25 -18.25 2.1 -16.65 1.0 -16.05 -0.9 -17.85 -0.9 -17.9 -0.85 -19.55 M4.55 -17.65 L4.6 -17.6 4.75 -17.3 4.5 -17.3 4.55 -17.65 M-6.55 -12.65 Q-7.15 -16.2 -5.3 -19.1 L-3.85 -21.1 -3.55 -19.65 -4.2 -19.1 -2.65 -17.05 Q-1.75 -16.15 -0.55 -15.5 L0.05 -15.15 0.6 -14.75 1.15 -14.55 0.25 -8.55 0.1 -7.9 -0.25 -12.25 -1.8 -9.0 -1.65 -10.5 -2.5 -13.3 -1.85 -14.4 -2.55 -16.35 -3.8 -16.8 -4.1 -15.75 Q-4.5 -14.1 -3.75 -12.65 L-4.7 -13.9 -5.7 -10.65 -6.55 -12.65 M3.3 -11.65 L4.35 -11.8 4.05 -14.15 5.5 -9.65 5.8 -10.25 5.6 -7.65 5.8 -6.75 5.25 -6.75 5.0 -7.5 4.75 -7.4 4.65 -7.35 4.25 -8.55 3.3 -11.65 M5.85 -10.95 L5.4 -13.75 5.6 -13.05 5.85 -10.95 M2.15 -5.55 L2.0 -4.75 Q1.9 -4.2 2.05 -3.7 2.3 -2.75 3.6 -2.75 4.3 -2.75 4.7 -3.65 L4.9 -4.2 Q4.9 -2.45 3.85 -2.1 L3.35 -2.05 Q2.25 -2.05 1.85 -3.05 L1.65 -4.1 Q1.65 -5.15 2.15 -5.55 M0.35 -1.75 Q0.15 -0.55 -1.0 -0.55 -3.25 -0.55 -1.9 -3.3 L-3.65 -4.5 -4.4 -5.0 -4.6 -5.5 -4.65 -6.35 -4.35 -7.8 -4.0 -8.4 -3.5 -8.95 -3.75 -6.9 Q-3.75 -6.0 -2.8 -5.45 L-2.3 -5.2 Q-0.9 -4.6 -0.9 -4.0 L-1.25 -2.65 Q-1.45 -1.4 -0.5 -1.4 L0.35 -1.75 M-3.45 -9.0 L-3.35 -9.1 -1.85 -9.0 -2.35 -9.05 -3.45 -9.0" fill="#990000" fill-rule="evenodd" stroke="none"/>
      <path d="M0.25 -8.55 L0.25 -7.7 0.1 -7.9 0.25 -8.55 M1.75 -7.25 Q2.15 -7.35 2.45 -7.6 2.8 -8.0 2.8 -8.55 L2.85 -7.95 Q2.55 -7.35 1.75 -7.25 M2.85 -8.8 L3.3 -11.65 4.25 -8.55 4.65 -7.35 3.85 -7.35 Q3.3 -7.55 3.0 -8.35 L2.95 -8.45 2.85 -8.8 M-5.7 -10.65 L-4.7 -13.9 -3.75 -12.65 -3.0 -11.65 -1.8 -9.0 -1.85 -9.0 -3.35 -9.1 -3.45 -9.0 -3.5 -9.0 -3.5 -8.95 -4.0 -8.4 -4.6 -8.9 -5.05 -9.5 -5.7 -10.65" fill="#ffcc99" fill-rule="evenodd" stroke="none"/>
      <path d="M2.25 -20.6 L2.25 -24.5 4.35 -22.65 Q4.75 -22.25 4.75 -20.75 L4.55 -17.65 4.5 -17.3 Q3.55 -17.3 2.9 -18.1 2.25 -18.9 2.25 -20.0 L2.25 -20.6 M-3.85 -21.1 L-4.0 -22.85 -2.95 -24.2 -1.8 -25.15 Q-1.85 -23.6 -1.4 -21.85 L-0.85 -19.55 -0.9 -17.9 -0.9 -17.85 -3.55 -19.65 -3.85 -21.1" fill="#ffffff" fill-rule="evenodd" stroke="none"/>
      <path d="M4.75 -17.3 L5.25 -16.5 5.4 -13.75 5.85 -10.95 5.8 -10.25 5.5 -9.65 4.05 -14.15 4.35 -11.8 3.3 -11.65 2.85 -8.8 2.8 -8.55 Q2.8 -8.0 2.45 -7.6 2.15 -7.35 1.75 -7.25 L1.5 -7.25 0.25 -7.7 0.25 -8.55 1.15 -14.55 0.6 -14.75 0.05 -15.15 -0.55 -15.5 Q-1.75 -16.15 -2.65 -17.05 L-4.2 -19.1 -3.55 -19.65 -0.9 -17.85 1.0 -16.05 2.1 -16.65 1.25 -18.25 2.25 -20.0 Q2.25 -18.9 2.9 -18.1 3.55 -17.3 4.5 -17.3 L4.75 -17.3 M4.9 -5.7 L5.0 -5.0 5.0 -4.95 4.9 -4.2 4.7 -3.65 Q4.3 -2.75 3.6 -2.75 2.3 -2.75 2.05 -3.7 1.9 -4.2 2.0 -4.75 L2.15 -5.55 2.35 -5.85 Q2.55 -6.15 3.0 -6.25 L3.5 -6.35 3.8 -6.35 Q4.6 -6.3 4.9 -5.7 M-0.05 -4.8 L0.4 -4.0 0.75 -2.4 Q0.75 -2.05 0.35 -1.75 L-0.5 -1.4 Q-1.45 -1.4 -1.25 -2.65 L-0.9 -4.0 Q-0.9 -4.6 -2.3 -5.2 L-2.8 -5.45 Q-3.75 -6.0 -3.75 -6.9 L-3.5 -8.95 -3.5 -9.0 -3.45 -9.0 -2.35 -9.05 -1.85 -9.0 -1.8 -9.0 -3.0 -11.65 -3.75 -12.65 Q-4.5 -14.1 -4.1 -15.75 L-3.8 -16.8 -2.55 -16.35 -1.85 -14.4 -2.5 -13.3 -1.65 -10.5 -1.8 -9.0 Q-0.55 -8.8 -0.45 -7.45 L-0.65 -5.75 -0.05 -4.8" fill="#ff0000" fill-rule="evenodd" stroke="none"/>
      <path d="M0.25 -7.7 L1.5 -7.25 1.75 -7.25 Q2.55 -7.35 2.85 -7.95 L2.8 -8.55 2.85 -8.8 2.95 -8.45 3.0 -8.35 Q3.3 -7.55 3.85 -7.35 L3.8 -6.35 3.5 -6.35 3.0 -6.25 Q2.55 -6.15 2.35 -5.85 L1.75 -6.0 Q1.3 -6.0 0.65 -5.4 L-0.05 -4.8 -0.65 -5.75 -0.45 -7.45 Q-0.55 -8.8 -1.8 -9.0 L-0.25 -12.25 0.1 -7.9 0.25 -7.7 M-5.05 -9.5 L-4.6 -8.9 -4.0 -8.4 -4.35 -7.8 -4.65 -6.35 -4.6 -5.5 Q-5.75 -5.75 -5.75 -7.0 L-5.35 -8.15 -5.05 -9.5" fill="#695227" fill-rule="evenodd" stroke="none"/>
    </g>
  </defs>
</svg>
