<?xml version="1.0" encoding="UTF-8" standalone="no"?>
<svg xmlns:ffdec="https://www.free-decompiler.com/flash" xmlns:xlink="http://www.w3.org/1999/xlink" ffdec:objectType="frame" height="78.55px" width="53.15px" xmlns="http://www.w3.org/2000/svg">
  <g transform="matrix(1.0, 0.0, 0.0, 1.0, 26.8, 41.2)">
    <use ffdec:characterId="858" height="73.45" transform="matrix(1.0, 0.0, 0.0, 1.0, -17.8, -36.55)" width="34.15" xlink:href="#shape0"/>
    <use ffdec:characterId="852" ffdec:characterName="RectTrashItem6" height="8.6" id="lid" transform="matrix(1.0, 0.0, 0.0, 1.0, -23.95, -41.2)" width="47.9" xlink:href="#sprite0"/>
    <use ffdec:characterId="857" height="75.25" id="shapes" transform="matrix(1.0, 0.0, 0.0, 1.0, -23.75, -37.9)" width="47.3" xlink:href="#sprite1"/>
  </g>
  <defs>
    <g id="shape0" transform="matrix(1.0, 0.0, 0.0, 1.0, 17.8, 36.55)">
      <path d="M10.05 -31.5 L10.0 -31.5 Q8.35 -31.5 8.4 -29.0 L8.8 -29.75 9.6 -30.0 9.4 -29.4 9.4 -29.35 9.5 -28.3 Q9.5 -26.5 8.8 -25.55 7.8 -24.2 4.85 -23.15 L4.7 -23.25 Q5.65 -24.25 6.2 -25.4 L6.0 -25.35 5.9 -25.3 4.9 -25.1 1.45 -24.55 0.15 -24.5 0.15 -25.25 0.3 -26.05 2.3 -26.25 3.05 -26.45 Q4.15 -27.5 4.5 -29.65 L4.7 -32.3 4.7 -32.55 4.7 -33.2 4.65 -33.4 4.7 -33.45 7.65 -33.95 10.2 -34.1 10.25 -34.1 10.3 -33.6 10.35 -33.35 10.35 -33.0 10.05 -31.5 10.65 -30.95 11.0 -30.4 10.4 -27.05 10.55 -29.1 Q10.25 -30.0 9.6 -30.0 L10.05 -31.5 M6.2 -25.4 L6.85 -27.85 6.85 -28.45 Q6.85 -30.4 5.95 -30.4 5.25 -30.4 5.05 -29.55 L4.95 -28.7 4.95 -28.65 5.25 -28.0 5.4 -28.4 Q5.65 -28.9 6.0 -28.9 L6.2 -25.4 M-4.85 -32.85 L-4.9 -32.75 -5.05 -32.5 -5.75 -30.8 Q-6.4 -29.05 -6.45 -28.0 L-5.7 -27.75 -5.6 -27.7 -5.65 -27.25 -5.6 -27.15 -5.6 -26.2 -5.5 -25.95 -5.3 -25.5 -4.5 -23.9 -3.8 -23.65 -3.9 -23.8 -4.8 -25.25 -3.05 -24.8 -3.15 -25.4 -3.4 -26.7 -1.5 -26.0 -0.4 -26.0 -0.3 -26.0 -0.35 -24.5 -0.25 -24.5 0.15 -24.5 -0.05 -22.15 -0.1 -22.1 -0.35 -24.45 -0.35 -24.5 -0.4 -24.5 -3.05 -24.8 Q-2.65 -22.4 -2.25 -21.4 L0.6 -20.15 4.85 -20.8 8.85 -21.5 9.15 -21.75 9.85 -21.75 9.9 -21.6 10.15 -21.7 10.85 -21.5 Q11.35 -21.25 11.6 -21.2 L10.95 -20.6 10.05 -20.45 9.55 -20.5 Q6.1 -18.15 4.4 -15.45 2.45 -12.35 3.15 -9.35 3.8 -6.4 6.8 4.45 L8.45 10.8 Q9.65 15.95 9.35 17.25 8.85 19.15 8.8 23.5 8.85 27.25 9.35 29.75 L9.45 30.25 10.85 30.5 10.85 32.15 13.35 33.5 Q13.85 33.85 14.3 35.6 L8.4 34.6 5.1 34.2 Q5.5 32.95 5.8 28.6 L5.85 28.1 6.3 28.3 6.5 28.15 6.95 27.75 6.85 25.75 6.85 25.0 6.85 23.1 6.95 18.6 Q6.95 15.55 6.5 12.75 L4.45 2.25 4.45 3.85 4.55 4.65 4.1 2.0 Q1.7 -7.9 1.7 -9.5 L1.65 -13.85 Q1.3 -17.0 -0.55 -16.0 0.2 -14.45 1.45 -5.6 2.6 2.55 2.7 6.3 L2.2 8.65 -1.0 26.25 Q-1.55 26.2 -1.65 25.75 L-1.65 24.35 -1.6 22.6 Q-2.55 25.35 -2.65 26.85 L-2.0 27.85 -1.25 28.1 -2.3 33.45 -2.1 33.9 -4.15 33.9 -10.85 34.6 Q-10.7 32.75 -8.7 31.45 L-8.45 31.3 -8.4 31.35 -7.9 31.5 Q-6.75 31.5 -6.05 29.8 L-6.0 29.6 -5.15 29.0 Q-3.9 27.6 -3.0 24.55 L-1.9 20.0 0.55 10.65 1.25 7.55 0.7 0.8 0.85 -2.25 Q0.85 -6.8 -0.55 -10.7 L-1.35 -15.3 -1.65 -15.75 Q-3.5 -18.55 -7.6 -20.1 -9.8 -20.95 -13.6 -20.95 L-14.0 -20.95 -14.25 -21.15 -14.85 -21.05 -14.9 -21.0 -15.0 -21.0 -15.25 -21.0 -15.85 -21.45 -16.3 -22.25 -15.85 -22.2 -13.95 -22.55 -13.7 -22.95 Q-13.35 -23.35 -12.65 -23.55 L-10.25 -24.0 Q-7.85 -24.0 -3.35 -20.35 1.1 -16.75 3.1 -16.75 3.55 -16.75 4.9 -18.4 L4.85 -18.4 Q1.1 -18.4 -0.05 -19.15 L-1.35 -20.3 -2.95 -21.65 -3.0 -21.7 -4.1 -23.2 -4.5 -23.9 -6.65 -24.65 -7.75 -25.0 -8.25 -25.15 Q-10.15 -25.8 -10.95 -26.35 L-13.65 -25.75 -13.55 -26.7 Q-13.45 -27.8 -12.95 -29.0 L-12.15 -29.0 -12.15 -28.65 Q-12.0 -29.2 -12.25 -29.65 L-12.5 -29.95 -11.6 -32.0 -11.55 -32.15 -11.4 -32.15 -8.0 -32.5 -5.05 -32.85 -5.0 -32.85 -4.9 -32.85 -4.85 -32.85 M12.45 19.4 L12.0 22.75 12.0 23.95 12.5 26.1 Q13.2 29.1 13.85 30.9 L13.8 31.1 13.35 31.25 Q12.5 31.25 11.9 29.8 11.35 28.8 11.05 27.6 L10.5 24.75 10.45 24.15 10.25 23.15 Q10.15 22.75 10.2 21.65 L10.55 18.5 11.1 13.35 11.1 13.3 11.05 12.75 Q10.55 7.35 9.7 2.35 9.3 0.1 9.2 -2.5 L10.1 -4.3 10.15 -4.35 10.0 -2.2 11.9 15.05 12.0 15.5 Q12.45 17.35 12.45 19.3 L12.45 19.4 M11.1 -27.2 L11.1 -28.15 11.2 -28.05 12.1 -27.2 11.1 -27.2 M13.05 -34.65 L12.95 -34.65 10.35 -34.15 10.3 -34.15 10.25 -34.1 10.2 -34.35 10.1 -34.75 9.95 -34.7 9.85 -34.9 9.0 -35.2 12.55 -35.5 12.95 -34.9 13.05 -34.65 M-14.4 -33.25 L-11.15 -33.25 -11.45 -32.4 -11.5 -32.25 -11.55 -32.15 -11.6 -32.15 -14.65 -32.15 -14.7 -32.15 -14.65 -32.35 -14.65 -32.4 -14.4 -33.25 M-1.95 15.15 Q-2.9 17.85 -4.95 22.5 L-5.05 22.75 -6.2 25.45 -6.9 26.6 Q-7.5 27.45 -9.4 28.75 L-9.65 28.95 -11.1 30.3 -12.2 31.5 Q-11.8 29.9 -11.8 27.75 -11.85 23.45 -11.55 22.25 L-10.15 16.35 Q-9.65 13.9 -9.65 11.2 L-9.75 5.85 -9.9 2.0 Q-8.7 1.3 -6.9 0.5 -6.65 3.15 -6.65 7.85 -6.65 14.0 -7.7 19.9 L-11.1 30.3 -5.25 19.3 -3.4 15.65 -2.2 12.05 -1.95 15.15 M4.15 25.2 L4.25 24.9 4.3 25.3 4.15 25.2 M-16.55 -27.8 Q-16.4 -28.15 -15.95 -28.25 L-15.1 -28.2 -15.0 -28.15 -15.35 -27.3 -16.55 -27.8 M-12.5 -29.95 L-12.75 -29.45 -12.95 -29.0 -13.65 -29.0 -14.5 -28.1 Q-13.9 -30.15 -13.0 -30.15 L-12.5 -29.95 M-7.85 -28.4 L-7.85 -28.85 Q-7.8 -30.4 -8.7 -30.4 L-9.5 -29.9 -10.5 -28.75 -8.8 -28.8 Q-8.55 -28.0 -8.65 -26.4 L-7.5 -25.65 -7.9 -26.4 -7.85 -28.4 M-2.0 -20.95 L-1.7 -20.65 -1.8 -20.8 -2.0 -20.95" fill="#c1c5c8" fill-rule="evenodd" stroke="none"/>
      <path d="M9.6 -30.0 L8.8 -29.75 8.4 -29.0 Q8.35 -31.5 10.0 -31.5 L10.05 -31.5 9.6 -30.0 M10.25 -34.1 L10.2 -34.1 7.65 -33.95 4.7 -33.45 4.65 -33.4 4.7 -33.2 4.7 -32.55 4.7 -32.3 4.5 -29.65 Q4.15 -27.5 3.05 -26.45 L2.3 -26.25 0.3 -26.05 0.15 -25.25 0.15 -24.5 -0.25 -24.5 -0.35 -24.5 -0.3 -26.0 -0.4 -26.0 -1.5 -26.0 -3.4 -26.7 -3.15 -25.4 -3.05 -24.8 -4.8 -25.25 -3.9 -23.8 -3.8 -23.65 -4.5 -23.9 -5.3 -25.5 -5.5 -25.95 -5.6 -26.2 -5.6 -27.15 -5.65 -27.25 -5.6 -27.7 -5.7 -27.75 -6.45 -28.0 Q-6.4 -29.05 -5.75 -30.8 L-5.05 -32.5 -4.9 -32.75 -4.85 -32.85 -4.75 -32.85 -2.55 -32.55 0.25 -32.25 Q1.55 -32.3 4.65 -33.4 L4.45 -34.1 Q3.8 -34.6 0.85 -33.3 L0.45 -33.3 3.85 -34.35 7.95 -35.15 9.0 -35.2 9.85 -34.9 9.95 -34.7 10.1 -34.75 10.2 -34.35 10.25 -34.1 M6.2 -25.4 L6.0 -28.9 Q5.65 -28.9 5.4 -28.4 L5.25 -28.0 4.95 -28.65 4.95 -28.7 5.05 -29.55 Q5.25 -30.4 5.95 -30.4 6.85 -30.4 6.85 -28.45 L6.85 -27.85 6.2 -25.4 M-5.6 -27.7 L-5.05 -27.45 -4.3 -27.65 -3.8 -27.6 -3.5 -27.05 Q-4.0 -28.65 -4.65 -28.65 L-5.5 -28.4 -5.6 -27.7 M-0.3 -26.0 L-0.15 -26.0 0.3 -26.05 Q0.55 -27.15 1.15 -27.85 L2.5 -27.15 2.5 -27.35 Q2.5 -28.9 1.6 -28.9 0.8 -28.9 0.25 -28.15 -0.2 -27.5 -0.25 -26.7 L-0.3 -26.0 M14.3 35.6 L15.35 35.7 15.9 35.75 15.9 35.7 16.35 36.15 16.0 36.9 7.5 35.5 4.55 35.65 1.7 35.35 -1.1 35.05 -4.5 35.15 -10.05 35.65 -15.15 36.35 -15.25 35.95 Q-15.5 35.1 -14.65 35.15 L-13.65 35.15 -10.85 34.6 -4.15 33.9 -2.1 33.9 -2.3 33.45 -1.25 28.1 -1.0 28.1 Q0.95 28.1 2.25 19.65 2.05 19.75 1.35 23.05 0.45 26.2 -0.85 26.25 L-0.9 26.25 -1.0 26.25 2.2 8.65 2.7 6.3 Q2.6 2.55 1.45 -5.6 0.2 -14.45 -0.55 -16.0 1.3 -17.0 1.65 -13.85 L1.7 -9.5 Q1.7 -7.9 4.1 2.0 L4.55 4.65 4.45 3.85 4.45 2.25 6.5 12.75 Q6.95 15.55 6.95 18.6 L6.85 23.1 6.85 25.0 6.7 25.5 6.0 26.45 5.65 26.5 Q5.3 26.5 4.9 26.1 L4.35 25.65 4.4 26.3 4.4 26.65 Q4.7 27.9 5.85 28.1 L5.8 28.6 Q5.5 32.95 5.1 34.2 L8.4 34.6 14.3 35.6 M10.2 21.65 L10.3 18.7 10.45 15.0 10.45 14.6 10.35 13.5 7.9 4.85 7.55 3.0 7.3 1.7 Q8.5 -2.45 10.6 -5.8 L10.15 -4.45 10.15 -4.35 10.1 -4.3 9.2 -2.5 Q9.3 0.1 9.7 2.35 10.55 7.35 11.05 12.75 L11.1 13.3 11.1 13.35 10.55 18.5 10.2 21.65 M11.05 -24.9 L11.1 -27.2 12.1 -27.2 12.3 -24.9 11.05 -24.9 M-11.15 -33.25 L-10.35 -33.25 -5.3 -33.6 0.2 -33.3 -4.55 -33.5 -4.75 -33.1 -4.85 -32.85 -4.9 -32.85 -5.0 -32.85 -5.05 -32.85 -8.0 -32.5 -11.4 -32.15 -11.55 -32.15 -11.5 -32.25 -11.45 -32.4 -11.15 -33.25 M0.05 4.9 L-0.15 5.65 Q-1.35 11.25 -1.65 14.25 L-1.95 15.15 -2.2 12.05 -3.4 15.65 -5.25 19.3 -11.1 30.3 -7.7 19.9 Q-6.65 14.0 -6.65 7.85 -6.65 3.15 -6.9 0.5 -8.7 1.3 -9.9 2.0 L-9.9 1.2 Q-9.9 0.35 -10.7 -2.9 L-7.35 -2.05 Q-7.05 -1.2 -6.9 0.5 L-5.75 0.0 -2.9 0.5 -2.4 9.1 -2.2 12.05 -1.6 9.45 Q-0.95 6.25 0.05 4.9 M4.15 25.2 L4.3 25.3 4.25 24.9 4.15 25.2 M-12.5 -29.95 L-12.25 -29.65 Q-12.0 -29.2 -12.15 -28.65 L-12.15 -29.0 -12.95 -29.0 -12.75 -29.45 -12.5 -29.95 M-15.35 -27.3 L-16.25 -25.15 -17.8 -25.8 -16.55 -27.8 -15.35 -27.3 M-7.85 -28.4 L-7.9 -26.4 -7.5 -25.65 -8.65 -26.4 Q-8.55 -28.0 -8.8 -28.8 L-10.5 -28.75 -9.5 -29.9 -8.7 -30.4 Q-7.8 -30.4 -7.85 -28.85 L-7.85 -28.4" fill="#b0b6b9" fill-rule="evenodd" stroke="none"/>
      <path d="M10.05 -31.5 L10.35 -33.0 10.35 -33.35 10.3 -33.6 10.25 -34.1 10.3 -34.15 10.35 -34.15 12.95 -34.65 13.05 -34.65 13.2 -34.05 13.25 -33.8 13.25 -33.4 Q13.25 -32.1 12.2 -30.4 11.35 -29.15 11.2 -28.05 L11.1 -28.15 11.1 -27.2 11.05 -24.9 11.15 -23.95 11.45 -24.05 11.8 -23.7 12.0 -23.3 11.85 -20.15 11.45 -20.2 10.5 -19.95 10.1 -19.7 10.1 -19.8 9.8 -19.5 9.6 -19.35 8.25 -18.25 Q5.95 -16.55 5.6 -15.15 L4.65 -12.15 Q4.0 -10.05 4.0 -8.95 4.0 -7.65 7.05 2.1 L7.15 2.35 7.9 4.85 10.35 13.5 10.45 14.6 10.45 15.0 10.3 18.7 10.2 21.65 Q10.15 22.75 10.25 23.15 L10.45 24.15 10.5 24.75 11.05 27.6 Q11.35 28.8 11.9 29.8 12.5 31.25 13.35 31.25 L13.8 31.1 13.85 30.9 Q13.2 29.1 12.5 26.1 L12.0 23.95 12.0 22.75 12.45 19.4 Q13.45 27.05 14.4 31.1 L14.6 30.9 15.35 32.95 15.65 33.85 16.0 35.0 16.0 35.2 16.0 35.25 15.95 35.4 15.9 35.7 15.9 35.75 15.35 35.7 14.3 35.6 Q13.85 33.85 13.35 33.5 L10.85 32.15 10.85 30.5 9.45 30.25 9.35 29.75 Q8.85 27.25 8.8 23.5 8.85 19.15 9.35 17.25 9.65 15.95 8.45 10.8 L6.8 4.45 Q3.8 -6.4 3.15 -9.35 2.45 -12.35 4.4 -15.45 6.1 -18.15 9.55 -20.5 L10.05 -20.45 10.95 -20.6 11.6 -21.2 Q11.35 -21.25 10.85 -21.5 L10.15 -21.7 9.9 -21.6 9.85 -21.75 9.15 -21.75 8.85 -21.5 4.85 -20.8 0.6 -20.15 -2.25 -21.4 Q-2.65 -22.4 -3.05 -24.8 L-0.4 -24.5 -0.35 -24.5 -0.35 -24.45 -0.1 -22.1 -0.05 -22.15 0.15 -24.5 1.45 -24.55 4.9 -25.1 5.9 -25.3 6.0 -25.35 6.2 -25.4 Q5.65 -24.25 4.7 -23.25 L4.85 -23.15 Q7.8 -24.2 8.8 -25.55 9.5 -26.5 9.5 -28.3 L9.4 -29.35 9.4 -29.4 9.6 -30.0 Q10.25 -30.0 10.55 -29.1 L10.4 -27.05 11.0 -30.4 10.65 -30.95 10.05 -31.5 M9.0 -35.2 L7.95 -35.15 3.85 -34.35 0.45 -33.3 0.2 -33.3 -5.3 -33.6 -10.35 -33.25 -11.15 -33.25 -14.4 -33.25 -14.4 -34.85 -12.25 -35.05 0.7 -34.75 10.5 -36.4 12.55 -36.55 12.55 -35.5 9.0 -35.2 M-4.5 -23.9 L-4.1 -23.2 -3.0 -21.7 -2.95 -21.65 -1.35 -20.3 -0.05 -19.15 Q1.1 -18.4 4.85 -18.4 L4.9 -18.4 Q3.55 -16.75 3.1 -16.75 1.1 -16.75 -3.35 -20.35 -7.85 -24.0 -10.25 -24.0 L-12.65 -23.55 Q-13.35 -23.35 -13.7 -22.95 L-13.95 -22.55 -15.85 -22.2 -16.3 -22.25 -15.85 -21.45 -15.25 -21.0 Q-16.35 -21.15 -16.8 -22.25 L-16.85 -22.45 -17.05 -23.65 -16.95 -24.7 -16.6 -24.25 -16.25 -25.15 -15.35 -27.3 -15.0 -28.15 -15.1 -28.2 -14.95 -29.4 -14.7 -32.1 -14.7 -32.15 -14.65 -32.15 -11.6 -32.15 -11.55 -32.15 -11.6 -32.0 -12.5 -29.95 -13.0 -30.15 Q-13.9 -30.15 -14.5 -28.1 L-13.65 -29.0 -12.95 -29.0 Q-13.45 -27.8 -13.55 -26.7 L-13.65 -25.75 -10.95 -26.35 Q-10.15 -25.8 -8.25 -25.15 L-7.75 -25.0 -6.65 -24.65 -4.5 -23.9 M-13.6 -20.95 Q-9.8 -20.95 -7.6 -20.1 -3.5 -18.55 -1.65 -15.75 L-1.35 -15.3 -0.55 -10.7 -1.45 -12.85 Q-2.55 -15.1 -4.1 -16.75 L-5.95 -18.35 Q-9.15 -20.65 -13.6 -20.95 M0.7 0.8 L1.25 7.55 0.55 10.65 -1.9 20.0 -3.0 24.55 Q-3.9 27.6 -5.15 29.0 L-6.0 29.6 -6.05 29.8 Q-6.75 31.5 -7.9 31.5 L-8.4 31.35 -8.45 31.3 -8.7 31.45 Q-10.7 32.75 -10.85 34.6 L-13.65 35.15 -14.65 35.15 -14.6 34.75 Q-14.45 33.95 -13.3 32.7 L-13.4 32.4 Q-13.4 26.5 -11.9 19.2 -10.4 11.95 -10.4 4.3 L-10.5 2.4 Q-10.65 0.55 -11.1 -1.7 L-11.35 -2.95 -12.1 -8.2 -10.7 -2.9 Q-9.9 0.35 -9.9 1.2 L-9.9 2.0 -9.75 5.85 -9.65 11.2 Q-9.65 13.9 -10.15 16.35 L-11.55 22.25 Q-11.85 23.45 -11.8 27.75 -11.8 29.9 -12.2 31.5 L-11.1 30.3 -9.65 28.95 -9.4 28.75 Q-7.5 27.45 -6.9 26.6 L-6.2 25.45 -5.05 22.75 -4.95 22.5 Q-2.9 17.85 -1.95 15.15 L-1.65 14.25 Q-1.35 11.25 -0.15 5.65 L0.05 4.9 0.7 0.8 M-1.25 28.1 L-2.0 27.85 -2.65 26.85 Q-2.55 25.35 -1.6 22.6 L-1.65 24.35 -1.65 25.75 Q-1.55 26.2 -1.0 26.25 L-0.9 26.25 -0.85 26.25 Q0.45 26.2 1.35 23.05 2.05 19.75 2.25 19.65 0.95 28.1 -1.0 28.1 L-1.25 28.1 M6.85 25.0 L6.85 25.75 6.95 27.75 6.5 28.15 6.3 28.3 5.85 28.1 Q4.7 27.9 4.4 26.65 L4.4 26.3 4.35 25.65 4.9 26.1 Q5.3 26.5 5.65 26.5 L6.0 26.45 6.7 25.5 6.85 25.0 M-2.0 -20.95 L-1.8 -20.8 -1.7 -20.65 -2.0 -20.95 M-13.0 -13.3 L-13.65 -15.9 -14.45 -19.05 Q-13.75 -17.05 -13.0 -13.3" fill="#dadcde" fill-rule="evenodd" stroke="none"/>
      <path d="M0.45 -33.3 L0.85 -33.3 Q3.8 -34.6 4.45 -34.1 L4.65 -33.4 Q1.55 -32.3 0.25 -32.25 L-2.55 -32.55 -4.75 -32.85 -4.85 -32.85 -4.75 -33.1 -4.55 -33.5 0.2 -33.3 0.45 -33.3 M-5.6 -27.7 L-5.5 -28.4 -4.65 -28.65 Q-4.0 -28.65 -3.5 -27.05 L-3.8 -27.6 -4.3 -27.65 -5.05 -27.45 -5.6 -27.7 M-0.3 -26.0 L-0.25 -26.7 Q-0.2 -27.5 0.25 -28.15 0.8 -28.9 1.6 -28.9 2.5 -28.9 2.5 -27.35 L2.5 -27.15 1.15 -27.85 Q0.55 -27.15 0.3 -26.05 L-0.15 -26.0 -0.3 -26.0 M11.45 -24.05 L11.15 -23.95 11.05 -24.9 12.3 -24.9 12.15 -24.45 11.45 -24.05 M11.4 -15.25 L11.4 -15.2 11.25 -12.55 Q11.25 -9.75 10.65 -7.05 L10.6 -6.9 10.6 -5.8 Q8.5 -2.45 7.3 1.7 6.6 -2.35 6.6 -4.75 6.6 -7.5 9.2 -12.1 10.35 -14.15 11.4 -15.25 M-0.55 -10.7 Q0.85 -6.8 0.85 -2.25 L0.7 0.8 0.05 4.9 Q-0.95 6.25 -1.6 9.45 L-2.2 12.05 -2.4 9.1 -2.9 0.5 -5.75 0.0 -6.9 0.5 Q-7.05 -1.2 -7.35 -2.05 L-6.35 -1.75 Q-3.85 -0.95 -2.15 0.5 -1.9 0.2 -1.55 -1.7 L-0.8 -5.2 Q-0.5 -6.9 -1.7 -11.0 -2.9 -15.1 -4.1 -16.75 -2.55 -15.1 -1.45 -12.85 L-0.55 -10.7 M-10.7 -2.9 L-12.1 -8.2 -12.15 -8.3 -12.15 -8.4 -12.3 -9.6 Q-9.6 -5.05 -7.5 -2.4 L-7.35 -2.05 -10.7 -2.9 M-16.25 -25.15 L-16.6 -24.25 -16.95 -24.7 -17.8 -25.8 -16.25 -25.15" fill="#9da5a8" fill-rule="evenodd" stroke="none"/>
      <path d="M7.9 4.85 L7.15 2.35 7.05 2.1 Q4.0 -7.65 4.0 -8.95 4.0 -10.05 4.65 -12.15 L5.6 -15.15 Q5.95 -16.55 8.25 -18.25 L9.6 -19.35 9.8 -19.5 10.1 -19.8 10.1 -19.7 10.5 -19.95 11.45 -20.2 11.85 -20.15 Q12.35 -19.85 12.35 -18.15 L11.4 -15.25 Q10.35 -14.15 9.2 -12.1 6.6 -7.5 6.6 -4.75 6.6 -2.35 7.3 1.7 L7.55 3.0 7.9 4.85 M-14.9 -21.0 L-14.85 -21.05 -14.25 -21.15 -14.0 -20.95 -13.6 -20.95 Q-9.15 -20.65 -5.95 -18.35 L-4.1 -16.75 Q-2.9 -15.1 -1.7 -11.0 -0.5 -6.9 -0.8 -5.2 L-1.55 -1.7 Q-1.9 0.2 -2.15 0.5 -3.85 -0.95 -6.35 -1.75 L-7.35 -2.05 -7.5 -2.4 Q-9.6 -5.05 -12.3 -9.6 L-13.0 -13.3 Q-13.75 -17.05 -14.45 -19.05 L-15.05 -20.8 -15.0 -20.8 -14.9 -20.95 -14.9 -21.0 -9.75 -16.1 -8.75 -14.9 Q-6.35 -12.1 -6.35 -11.0 -6.4 -9.95 -5.3 -6.9 -4.3 -4.2 -3.45 -3.25 L-2.15 0.5 -2.95 -5.6 -3.0 -7.65 -2.95 -8.55 -3.5 -11.75 -4.0 -14.3 -8.1 -17.05 Q-10.55 -18.8 -11.4 -19.15 L-11.75 -19.25 -14.9 -21.0" fill="#8d969a" fill-rule="evenodd" stroke="none"/>
      <path d="M-8.75 -14.9 L-9.75 -16.1 -14.9 -21.0 -11.75 -19.25 -11.4 -19.15 Q-10.55 -18.8 -8.1 -17.05 L-4.0 -14.3 -3.5 -11.75 -2.95 -8.55 -3.0 -7.65 -2.95 -5.6 -2.15 0.5 -3.45 -3.25 Q-4.3 -4.2 -5.3 -6.9 -6.4 -9.95 -6.35 -11.0 -6.35 -12.1 -8.75 -14.9" fill="#777f83" fill-rule="evenodd" stroke="none"/>
    </g>
    <g id="sprite0" transform="matrix(1.0, 0.0, 0.0, 1.0, 23.95, 5.8)">
      <use ffdec:characterId="851" height="8.6" transform="matrix(1.0, 0.0, 0.0, 1.0, -23.95, -5.8)" width="47.9" xlink:href="#shape1"/>
    </g>
    <g id="shape1" transform="matrix(1.0, 0.0, 0.0, 1.0, 23.95, 5.8)">
      <path d="M-9.35 -0.7 L0.55 -1.1 0.65 -1.1 0.9 -1.1 2.2 -1.1 9.85 -0.45 9.95 -0.45 11.1 -0.45 11.1 1.8 -9.45 1.8 -9.35 -0.7 M18.35 1.8 L23.65 1.8 Q24.3 2.1 23.65 2.8 L18.35 2.8 11.1 2.8 11.1 1.8 18.35 1.8 M-23.55 1.8 L-17.15 1.8 -9.45 1.8 -9.45 2.8 -17.15 2.8 -23.55 2.8 Q-24.3 2.3 -23.55 1.8" fill="#b0b6b9" fill-rule="evenodd" stroke="none"/>
      <path d="M11.1 -0.45 L9.95 -0.45 9.85 -0.45 2.2 -1.1 0.9 -1.1 0.65 -1.1 0.55 -1.1 -9.35 -0.7 -17.1 -0.6 -17.1 1.1 -17.15 1.8 -23.55 1.8 -23.55 1.1 -23.55 -0.25 Q-23.7 -1.05 -22.0 -1.25 L-9.4 -2.45 -7.65 -2.45 -6.5 -2.45 7.7 -2.45 9.05 -2.45 9.85 -2.45 22.15 -1.25 Q23.6 -1.05 23.75 0.2 L23.7 1.1 23.65 1.8 18.35 1.8 18.35 1.1 18.4 -0.3 18.4 -0.45 11.1 -0.45" fill="#dadcde" fill-rule="evenodd" stroke="none"/>
      <path d="M-9.35 -0.7 L-9.45 1.8 -17.15 1.8 -17.1 1.1 -17.1 -0.6 -9.35 -0.7 M11.1 1.8 L11.1 -0.45 18.4 -0.45 18.4 -0.3 18.35 1.1 18.35 1.8 11.1 1.8 M9.05 -2.45 L7.7 -2.45 7.7 -4.55 -6.5 -4.55 -6.5 -2.45 -7.65 -2.45 -7.65 -4.55 Q-7.55 -5.55 -6.5 -5.8 L7.7 -5.8 Q9.15 -5.75 9.05 -4.55 L9.05 -2.45" fill="#c1c5c8" fill-rule="evenodd" stroke="none"/>
      <path d="M-9.45 1.8 L11.1 1.8 11.1 2.8 9.8 2.8 2.3 2.8 0.55 2.8 0.1 2.8 -8.55 2.8 -9.45 2.8 -9.45 1.8" fill="#9da5a8" fill-rule="evenodd" stroke="none"/>
    </g>
    <g id="sprite1" transform="matrix(1.0, 0.0, 0.0, 1.0, 23.65, 38.8)">
      <use ffdec:characterId="552" height="10.0" id="c0" transform="matrix(1.2584, 0.0, 0.0, 1.2584, -15.242, -35.092)" width="10.0" xlink:href="#sprite2"/>
      <use ffdec:characterId="552" height="10.0" id="c1" transform="matrix(0.9375, 0.0, 0.0, 0.9375, 5.3125, -17.7375)" width="10.0" xlink:href="#sprite2"/>
      <use ffdec:characterId="855" height="19.5" id="r0" transform="matrix(0.348, 0.0, 0.0, 1.1127, -12.0931, -29.6484)" width="19.5" xlink:href="#sprite3"/>
      <use ffdec:characterId="855" height="19.5" id="r1" transform="matrix(0.2705, 0.0, 0.0, 1.1952, -16.2877, -30.6528)" width="19.5" xlink:href="#sprite3"/>
      <use ffdec:characterId="855" height="19.5" id="r3" transform="matrix(0.2706, 0.0, 0.0, 0.475, 12.8121, -32.5313)" width="19.5" xlink:href="#sprite3"/>
      <use ffdec:characterId="855" height="19.5" id="r2" transform="matrix(0.9274, 0.0, 0.0, 0.3687, -2.6417, -35.0945)" width="19.5" xlink:href="#sprite3"/>
      <use ffdec:characterId="855" height="19.5" id="r4" transform="matrix(0.8681, 0.0, 0.0, 0.6824, -2.564, -27.003)" width="19.5" xlink:href="#sprite3"/>
      <use ffdec:characterId="552" height="10.0" id="c2" transform="matrix(0.9375, 0.0, 0.0, 0.9375, -20.5875, -37.2375)" width="10.0" xlink:href="#sprite2"/>
      <use ffdec:characterId="855" height="19.5" id="r5" transform="matrix(0.6472, 0.0, 0.0, 0.4899, -7.0599, -18.1264)" width="19.5" xlink:href="#sprite3"/>
      <use ffdec:characterId="855" height="19.5" id="r6" transform="matrix(2.4174, 0.0, 0.0, 0.2421, -23.5201, -38.5609)" width="19.5" xlink:href="#sprite3"/>
      <use ffdec:characterId="855" height="19.5" id="s1" transform="matrix(2.3246, 0.0, 0.0, 2.1161, -22.665, -5.9316)" width="19.5" xlink:href="#sprite3"/>
      <use ffdec:characterId="855" height="19.5" id="blocker" transform="matrix(2.3246, 0.0, 0.0, 3.6272, -22.665, -35.3155)" width="19.5" xlink:href="#sprite3"/>
      <use ffdec:characterId="552" height="10.0" id="p0_2" transform="matrix(0.1995, 0.0, 0.0, 0.1995, -23.6474, 34.4526)" width="10.0" xlink:href="#sprite2"/>
      <use ffdec:characterId="552" height="10.0" id="p0_1" transform="matrix(0.1995, 0.0, 0.0, 0.1995, -13.6474, 23.4526)" width="10.0" xlink:href="#sprite2"/>
      <use ffdec:characterId="552" height="10.0" id="p0_0" transform="matrix(0.1995, 0.0, 0.0, 0.1995, -23.6474, -36.5474)" width="10.0" xlink:href="#sprite2"/>
      <use ffdec:characterId="552" height="10.0" id="p2_1" transform="matrix(0.1995, 0.0, 0.0, 0.1995, 21.6526, 34.4526)" width="10.0" xlink:href="#sprite2"/>
      <use ffdec:characterId="552" height="10.0" id="p2_0" transform="matrix(0.1995, 0.0, 0.0, 0.1995, 21.6526, -36.5474)" width="10.0" xlink:href="#sprite2"/>
      <use ffdec:characterId="552" height="10.0" id="p2_2" transform="matrix(0.1995, 0.0, 0.0, 0.1995, 11.6526, 23.4526)" width="10.0" xlink:href="#sprite2"/>
      <use ffdec:characterId="856" height="71.0" id="crushH" transform="matrix(0.6082, 0.0, 0.0, 0.9943, -13.624, -35.299)" width="44.8" xlink:href="#sprite4"/>
      <use ffdec:characterId="856" height="71.0" id="crushV" transform="matrix(1.0092, 0.0, 0.0, 0.4958, -22.6058, -17.6)" width="44.8" xlink:href="#sprite4"/>
      <use ffdec:characterId="855" height="19.5" id="block" transform="matrix(2.2974, 0.0, 0.0, 3.8091, -22.3993, -38.7884)" width="19.5" xlink:href="#sprite3"/>
    </g>
    <g id="sprite2" transform="matrix(1.0, 0.0, 0.0, 1.0, 5.0, 5.0)">
      <use ffdec:characterId="551" height="10.0" transform="matrix(1.0, 0.0, 0.0, 1.0, -5.0, -5.0)" width="10.0" xlink:href="#shape2"/>
    </g>
    <g id="shape2" transform="matrix(1.0, 0.0, 0.0, 1.0, 5.0, 5.0)">
      <path d="M3.55 -3.5 Q5.0 -2.05 5.0 0.0 5.0 2.05 3.55 3.55 2.05 5.0 0.0 5.0 -2.05 5.0 -3.55 3.55 -5.0 2.05 -5.0 0.0 -5.0 -2.05 -3.55 -3.5 -2.05 -5.0 0.0 -5.0 2.05 -5.0 3.55 -3.5" fill="#ff00ff" fill-rule="evenodd" stroke="none"/>
    </g>
    <g id="sprite3" transform="matrix(1.0, 0.0, 0.0, 1.0, 9.75, 9.75)">
      <use ffdec:characterId="854" height="19.5" transform="matrix(1.0, 0.0, 0.0, 1.0, -9.75, -9.75)" width="19.5" xlink:href="#shape3"/>
    </g>
    <g id="shape3" transform="matrix(1.0, 0.0, 0.0, 1.0, 9.75, 9.75)">
      <path d="M9.75 -9.75 L9.75 9.75 -9.75 9.75 -9.75 -9.75 9.75 -9.75" fill="#00ff33" fill-rule="evenodd" stroke="none"/>
    </g>
    <g id="sprite4" transform="matrix(1.0, 0.0, 0.0, 1.0, 22.4, 35.5)">
      <use ffdec:characterId="855" height="19.5" id="s0" transform="matrix(0.359, 0.0, 0.0, 3.641, -22.3999, -35.5)" width="19.5" xlink:href="#sprite3"/>
      <use ffdec:characterId="855" height="19.5" id="s2" transform="matrix(0.359, 0.0, 0.0, 3.641, 15.4001, -35.5)" width="19.5" xlink:href="#sprite3"/>
      <use ffdec:characterId="855" height="19.5" id="s1" transform="matrix(1.5794, 0.0, 0.0, 0.3577, -15.3995, 28.5123)" width="19.5" xlink:href="#sprite3"/>
      <use ffdec:characterId="552" height="10.0" id="c0" transform="matrix(1.2584, 0.0, 0.0, 1.2584, -14.592, 15.458)" width="10.0" xlink:href="#sprite2"/>
      <use ffdec:characterId="552" height="10.0" id="c1" transform="matrix(0.9375, 0.0, 0.0, 0.9375, -12.6375, 5.2125)" width="10.0" xlink:href="#sprite2"/>
      <use ffdec:characterId="855" height="19.5" id="r0" transform="matrix(0.348, 0.0, 0.0, 1.1127, -0.1428, 6.0015)" width="19.5" xlink:href="#sprite3"/>
      <use ffdec:characterId="855" height="19.5" id="r1" transform="matrix(0.2706, 0.0, 0.0, 1.1952, 8.1621, 4.3469)" width="19.5" xlink:href="#sprite3"/>
      <use ffdec:characterId="855" height="19.5" id="r3" transform="matrix(0.2706, 0.0, 0.0, 0.475, 5.2621, -6.6813)" width="19.5" xlink:href="#sprite3"/>
      <use ffdec:characterId="855" height="19.5" id="r2" transform="matrix(0.9274, 0.0, 0.0, 0.3687, -3.3421, -17.4445)" width="19.5" xlink:href="#sprite3"/>
      <use ffdec:characterId="855" height="19.5" id="r4" transform="matrix(0.8681, 0.0, 0.0, 0.6824, -13.414, -9.053)" width="19.5" xlink:href="#sprite3"/>
      <use ffdec:characterId="552" height="10.0" id="c2" transform="matrix(0.9375, 0.0, 0.0, 0.9375, -14.4375, -20.9375)" width="10.0" xlink:href="#sprite2"/>
      <use ffdec:characterId="855" height="19.5" id="r5" transform="matrix(0.6472, 0.0, 0.0, 0.4899, 0.8401, -29.6265)" width="19.5" xlink:href="#sprite3"/>
      <use ffdec:characterId="855" height="19.5" id="block" transform="matrix(2.2974, 0.0, 0.0, 3.641, -22.3993, -35.5)" width="19.5" xlink:href="#sprite3"/>
    </g>
  </defs>
</svg>
