<?xml version="1.0" encoding="UTF-8" standalone="no"?>
<svg xmlns:ffdec="https://www.free-decompiler.com/flash" xmlns:xlink="http://www.w3.org/1999/xlink" ffdec:objectType="frame" height="44.25px" width="33.05px" xmlns="http://www.w3.org/2000/svg">
  <g transform="matrix(1.0, 0.0, 0.0, 1.0, 14.05, 0.0)">
    <use ffdec:characterId="1018" height="36.4" transform="matrix(1.0, 0.0, 0.0, 1.0, -13.55, 0.0)" width="32.55" xlink:href="#shape0"/>
  </g>
  <defs>
    <g id="shape0" transform="matrix(1.0, 0.0, 0.0, 1.0, 13.55, 0.0)">
      <path d="M16.5 4.75 L16.0 8.5 Q16.0 9.65 17.9 11.95 L19.0 13.3 19.0 14.75 18.75 14.75 Q17.75 14.75 16.75 14.25 16.65 14.5 16.1 20.25 15.85 22.55 15.0 23.95 L15.0 4.1 15.5 3.0 16.05 3.65 16.5 4.75 M2.3 2.3 L1.75 5.25 Q1.75 6.35 2.5 7.0 3.1 7.5 3.85 7.5 L4.0 7.5 4.0 22.85 3.55 22.2 2.0 19.75 1.65 19.85 1.4 21.5 1.0 24.75 1.5 31.0 Q1.5 32.15 1.0 33.25 0.5 34.4 0.5 36.25 L0.0 36.4 0.0 0.0 2.3 2.3 M16.5 23.8 L16.75 23.85 Q17.85 23.85 17.85 25.1 L17.85 25.85 Q17.75 26.25 17.25 26.35 L17.2 26.4 Q17.0 26.85 16.35 26.85 L15.65 26.75 15.6 25.3 15.6 25.05 15.6 25.0 15.7 24.5 Q15.85 23.75 16.5 23.8 M-11.95 22.3 L-11.0 18.85 -11.0 28.75 -11.1 28.75 -11.85 29.0 -12.5 29.25 -12.75 28.3 -13.0 27.5 Q-13.0 26.2 -11.95 22.3 M-11.0 9.75 L-11.95 9.25 Q-12.75 8.55 -12.75 7.85 -12.75 6.85 -12.2 6.3 -11.8 5.9 -11.0 5.65 L-11.0 9.75 M-11.3 15.0 Q-11.5 15.6 -12.5 15.6 L-13.5 15.5 -13.55 14.4 Q-11.3 9.8 -11.3 13.8 L-11.3 15.0" fill="#990000" fill-rule="evenodd" stroke="none"/>
    </g>
  </defs>
</svg>
