<?xml version="1.0" encoding="UTF-8" standalone="no"?>
<svg xmlns:ffdec="https://www.free-decompiler.com/flash" xmlns:xlink="http://www.w3.org/1999/xlink" ffdec:objectType="frame" height="44.25px" width="33.05px" xmlns="http://www.w3.org/2000/svg">
  <g transform="matrix(1.0, 0.0, 0.0, 1.0, 14.05, 0.0)">
    <use ffdec:characterId="1020" height="40.55" transform="matrix(1.0, 0.0, 0.0, 1.0, -14.05, 0.0)" width="30.55" xlink:href="#shape0"/>
  </g>
  <defs>
    <g id="shape0" transform="matrix(1.0, 0.0, 0.0, 1.0, 14.05, 0.0)">
      <path d="M15.0 6.9 L15.0 2.65 Q16.5 3.65 16.5 5.35 L16.35 6.65 15.0 6.9 M16.25 11.5 L15.75 13.4 Q15.25 14.6 15.25 15.1 L15.3 16.65 16.0 18.0 16.0 20.0 Q15.35 19.9 15.0 19.5 L15.0 8.55 15.7 9.6 Q16.25 10.65 16.25 11.5 M1.8 4.45 Q1.25 5.6 1.25 6.6 L1.75 10.85 Q1.75 12.05 1.15 15.3 0.5 18.6 0.5 20.35 L0.75 22.75 Q1.8 22.2 2.05 19.95 L2.5 16.25 3.5 13.6 4.0 12.4 4.0 31.45 Q3.45 32.0 3.05 33.1 2.5 34.45 2.5 35.5 L2.75 36.8 3.0 38.1 2.9 39.8 Q2.65 40.7 1.5 40.5 L0.05 37.2 0.0 37.1 0.0 0.0 2.95 2.95 Q2.3 3.35 1.8 4.45 M-11.4 14.15 L-12.0 14.35 Q-13.25 13.55 -14.05 10.3 -14.05 9.35 -12.9 8.75 -11.75 8.1 -11.55 9.85 L-11.3 13.5 -11.4 14.15" fill="#990000" fill-rule="evenodd" stroke="none"/>
    </g>
  </defs>
</svg>
