<?xml version="1.0" encoding="UTF-8" standalone="no"?>
<svg xmlns:ffdec="https://www.free-decompiler.com/flash" xmlns:xlink="http://www.w3.org/1999/xlink" ffdec:objectType="frame" height="33.25px" width="97.25px" xmlns="http://www.w3.org/2000/svg">
  <g transform="matrix(1.0, 0.0, 0.0, 1.0, 38.35, 18.75)">
    <use ffdec:characterId="419" height="23.85" transform="matrix(1.0, 0.0, 0.0, 1.0, -35.4, -15.65)" width="87.35" xlink:href="#shape0"/>
    <clipPath id="clipPath0" transform="matrix(1.0, 0.0, 0.0, 1.0, 0.0, 0.0)">
      <path d="M1.05 -1.35 L-34.5 -1.35 -34.5 -12.85 Q-11.4 -18.15 1.05 -12.85 L1.05 -1.35 M53.05 -7.25 L53.05 6.3 26.05 6.3 26.05 -7.25 53.05 -7.25" fill="#00ff00" fill-rule="evenodd" stroke="none"/>
    </clipPath>
    <g clip-path="url(#clipPath0)">
      <use ffdec:characterId="422" height="12.25" id="eye1" transform="matrix(1.0, 0.0, 0.0, 1.0, -19.7, -13.05)" width="11.7" xlink:href="#sprite0"/>
      <use ffdec:characterId="424" height="11.25" id="eye2" transform="matrix(1.0, 0.0, 0.0, 1.0, 38.3, -5.45)" width="11.2" xlink:href="#sprite1"/>
    </g>
    <use ffdec:characterId="425" height="33.25" transform="matrix(1.0, 0.0, 0.0, 1.0, -38.35, -18.75)" width="97.25" xlink:href="#shape4"/>
  </g>
  <defs>
    <g id="shape0" transform="matrix(1.0, 0.0, 0.0, 1.0, 35.4, 15.65)">
      <path d="M26.95 -3.9 L27.65 -4.45 28.2 -4.75 30.6 -5.65 30.8 -5.7 33.6 -6.55 34.9 -6.95 Q35.55 -7.15 36.25 -6.95 L37.3 -7.15 37.3 -7.2 Q38.9 -8.3 39.75 -8.15 L42.6 -8.1 44.6 -8.0 45.45 -7.8 46.2 -7.5 47.2 -7.15 Q48.8 -6.6 50.15 -4.75 51.95 -2.3 51.95 0.55 L51.65 2.95 Q51.5 3.75 50.95 4.35 L49.6 5.7 49.0 6.1 47.4 6.9 46.75 7.4 45.45 7.85 44.5 7.95 44.65 7.9 42.8 8.2 Q42.1 8.3 39.45 7.3 L39.2 7.15 37.7 6.45 37.55 6.4 35.1 5.2 35.05 5.15 32.9 4.25 32.7 4.15 26.8 1.7 Q25.9 1.3 25.5 0.45 25.05 -0.45 25.35 -1.35 L25.4 -1.5 Q25.65 -2.6 26.9 -3.85 L26.95 -3.9 M-28.35 -12.8 Q-23.9 -15.65 -9.25 -15.65 -6.0 -15.75 -3.55 -12.65 L-3.5 -12.55 -3.45 -12.45 Q-2.75 -12.0 -2.5 -11.05 L-1.3 -9.25 Q-0.8 -8.55 -0.85 -7.65 -0.9 -6.8 -1.45 -6.15 L-1.5 -6.05 Q-1.75 -4.65 -3.25 -3.05 L-3.3 -2.95 -5.15 -1.45 -5.75 -0.8 Q-6.25 -0.4 -6.9 -0.25 L-10.15 0.3 Q-10.8 0.7 -11.5 0.7 L-13.6 0.75 -13.8 0.8 -14.5 0.8 -15.95 0.6 -16.7 0.6 -17.3 0.55 -17.55 0.5 -27.85 -1.55 -28.15 -1.65 -31.75 -2.85 -33.65 -3.5 Q-34.5 -3.8 -35.0 -4.55 -35.5 -5.35 -35.35 -6.25 -35.25 -7.15 -34.55 -7.75 -33.9 -8.35 -32.95 -8.4 L-32.85 -8.4 -32.75 -8.6 Q-32.5 -9.35 -31.8 -9.75 L-31.2 -10.3 -31.15 -10.35 -28.4 -12.75 -28.35 -12.8" fill="#cccccc" fill-rule="evenodd" stroke="none"/>
    </g>
    <g id="sprite0" transform="matrix(1.0, 0.0, 0.0, 1.0, 5.85, 6.15)">
      <use ffdec:characterId="421" height="12.25" transform="matrix(1.0, 0.0, 0.0, 1.0, -5.85, -6.15)" width="11.7" xlink:href="#shape2"/>
    </g>
    <g id="shape2" transform="matrix(1.0, 0.0, 0.0, 1.0, 5.85, 6.15)">
      <path d="M1.5 -2.8 L1.65 -4.0 1.65 -4.25 Q1.55 -5.4 0.8 -6.15 2.65 -5.95 4.05 -4.65 5.85 -2.85 5.85 -0.25 5.85 1.3 5.3 2.6 L4.3 4.1 3.45 4.9 2.05 5.8 0.95 6.05 -1.8 6.1 -2.4 5.9 -3.15 5.55 -4.15 4.8 Q-5.85 3.4 -5.85 0.8 -5.85 -2.3 -4.05 -4.2 L-3.75 -4.5 -3.7 -2.9 -3.6 -2.6 -3.1 -1.95 Q-2.6 -1.55 -1.8 -1.4 L-1.85 -1.35 -2.05 -0.5 Q-2.05 0.45 -1.05 1.2 -0.2 1.85 0.55 1.85 1.3 1.85 1.95 0.85 2.55 -0.05 2.55 -0.8 2.55 -1.85 1.8 -2.55 L1.5 -2.8 M-2.7 0.45 Q-3.2 0.3 -3.2 0.85 -3.2 1.45 -2.6 1.45 -2.25 1.45 -2.25 0.95 -2.25 0.55 -2.7 0.45 M-1.15 1.9 L-2.0 2.15 -2.05 2.65 Q-2.05 3.9 -0.65 3.9 0.0 3.9 0.0 2.9 0.0 1.9 -1.15 1.9" fill="#003366" fill-rule="evenodd" stroke="none"/>
      <path d="M1.5 -2.8 L1.8 -2.55 Q2.55 -1.85 2.55 -0.8 2.55 -0.05 1.95 0.85 1.3 1.85 0.55 1.85 -0.2 1.85 -1.05 1.2 -2.05 0.45 -2.05 -0.5 L-1.85 -1.35 -1.8 -1.4 -1.05 -1.35 Q0.75 -1.35 1.35 -2.5 L1.5 -2.8" fill="#000000" fill-rule="evenodd" stroke="none"/>
      <path d="M-1.15 1.9 Q0.0 1.9 0.0 2.9 0.0 3.9 -0.65 3.9 -2.05 3.9 -2.05 2.65 L-2.0 2.15 -1.15 1.9 M-2.7 0.45 Q-2.25 0.55 -2.25 0.95 -2.25 1.45 -2.6 1.45 -3.2 1.45 -3.2 0.85 -3.2 0.3 -2.7 0.45" fill="#477bc9" fill-rule="evenodd" stroke="none"/>
    </g>
    <g id="sprite1" transform="matrix(1.0, 0.0, 0.0, 1.0, 5.5, 5.6)">
      <use ffdec:characterId="423" height="11.25" transform="matrix(1.0, 0.0, 0.0, 1.0, -5.5, -5.6)" width="11.2" xlink:href="#shape3"/>
    </g>
    <g id="shape3" transform="matrix(1.0, 0.0, 0.0, 1.0, 5.5, 5.6)">
      <path d="M-0.3 -2.35 L-0.3 -2.7 -0.4 -3.6 Q-0.8 -4.75 -3.25 -5.5 L-0.75 -5.6 0.55 -5.4 1.2 -5.3 2.85 -4.8 3.65 -4.35 Q4.45 -3.7 4.85 -2.8 5.65 -1.5 5.7 -0.2 5.7 1.25 5.2 2.55 4.7 3.85 3.2 4.75 1.65 5.65 0.25 5.65 L-1.0 5.55 -2.75 4.95 -4.4 3.75 -5.15 2.35 Q-5.5 1.6 -5.5 0.85 L-5.3 -1.15 Q-4.35 0.0 -2.55 0.0 -1.85 0.0 -1.35 -0.35 L-0.6 0.75 Q0.2 1.55 0.7 1.55 1.45 1.55 1.9 0.9 2.3 0.3 2.3 -0.45 2.3 -2.35 -0.3 -2.35 M1.6 3.25 Q1.6 2.0 0.45 2.0 -0.75 1.95 -0.75 3.0 -0.75 4.25 0.75 4.25 1.6 4.25 1.6 3.25 M-1.0 1.65 Q-1.0 1.2 -1.5 1.0 -2.0 0.85 -2.0 1.5 L-1.95 2.05 -1.5 2.1 Q-1.0 2.1 -1.0 1.65" fill="#003366" fill-rule="evenodd" stroke="none"/>
      <path d="M-1.0 1.65 Q-1.0 2.1 -1.5 2.1 L-1.95 2.05 -2.0 1.5 Q-2.0 0.85 -1.5 1.0 -1.0 1.2 -1.0 1.65 M1.6 3.25 Q1.6 4.25 0.75 4.25 -0.75 4.25 -0.75 3.0 -0.75 1.95 0.45 2.0 1.6 2.0 1.6 3.25" fill="#477bc9" fill-rule="evenodd" stroke="none"/>
      <path d="M-0.3 -2.35 Q2.3 -2.35 2.3 -0.45 2.3 0.3 1.9 0.9 1.45 1.55 0.7 1.55 0.2 1.55 -0.6 0.75 L-1.35 -0.35 -0.8 -1.0 Q-0.4 -1.65 -0.3 -2.35" fill="#000000" fill-rule="evenodd" stroke="none"/>
    </g>
    <g id="shape4" transform="matrix(1.0, 0.0, 0.0, 1.0, 38.35, 18.75)">
      <path d="M32.0 9.0 L32.0 9.05 31.4 8.6 32.0 9.0" fill="#ebbb98" fill-rule="evenodd" stroke="none"/>
      <path d="M57.7 -8.7 L57.5 -8.75 58.9 -8.75 58.1 -8.65 57.7 -8.7" fill="#666666" fill-rule="evenodd" stroke="none"/>
      <path d="M7.8 -7.65 L7.8 -6.35 9.3 -6.35 7.55 -3.85 4.65 -0.3 Q1.85 3.6 -3.5 8.3 L-4.2 8.95 Q-5.65 8.85 -9.0 11.25 L-23.2 11.25 -38.35 -1.35 -38.35 -12.35 -26.15 -15.05 -19.9 -17.55 -15.95 -18.75 -7.3 -18.75 Q-3.3 -17.95 2.1 -15.6 L7.8 -13.25 7.8 -12.0 7.6 -12.15 6.15 -12.7 2.5 -13.75 -0.4 -15.25 Q-1.85 -16.0 -2.75 -16.35 L-4.0 -16.65 Q-5.15 -16.65 -5.5 -16.25 L-6.0 -15.9 -7.9 -16.2 -9.5 -16.8 Q-13.35 -18.5 -16.65 -17.65 -12.4 -17.65 -8.8 -15.4 L-7.4 -14.5 Q-16.7 -14.4 -23.5 -12.95 -28.2 -11.95 -30.1 -10.8 L-32.45 -7.6 -33.4 -6.05 -33.7 -6.15 -33.7 -5.85 -30.0 -4.0 Q-27.95 -3.15 -23.9 -2.7 L-17.25 -1.4 -17.2 -1.4 -16.45 -1.35 -13.55 -1.4 -11.9 -1.35 -7.4 -2.0 -6.75 -2.1 -6.65 -2.1 Q-5.45 -2.35 -5.15 -2.65 -4.75 -2.85 -4.35 -3.2 L-3.5 -3.35 -3.1 -3.3 -3.1 -3.4 Q-1.5 -2.8 -0.75 -4.4 -0.35 -5.3 -0.35 -6.4 L-0.45 -7.0 0.35 -6.35 0.65 -5.5 1.0 -3.25 0.85 -2.95 0.8 -2.7 0.7 -2.45 Q-1.45 -2.1 -2.85 -0.5 L-5.1 -0.55 Q-6.85 0.35 -7.9 1.35 L-9.9 3.15 -19.0 3.85 -25.55 3.55 Q-27.7 3.5 -28.65 4.6 L-22.8 4.85 Q-22.75 5.7 -24.45 6.85 L-24.0 7.15 Q-21.15 5.4 -15.85 5.75 -13.1 5.95 -11.3 5.75 L-13.15 6.75 Q-16.8 8.5 -21.9 9.45 L-20.4 9.75 Q-16.45 9.75 -10.0 5.95 L-0.45 0.5 Q-1.7 3.05 -3.0 4.35 -4.75 6.05 -8.3 8.25 L-12.5 11.15 Q-5.95 8.85 -1.15 4.4 L-1.15 4.25 -1.0 4.25 Q1.8 1.6 3.95 -1.8 L4.15 -1.9 4.05 -2.2 4.0 -2.45 4.0 -2.5 Q4.75 -3.1 5.5 -3.85 6.5 -4.65 8.1 -5.15 L7.5 -5.3 5.15 -4.7 4.0 -4.25 3.35 -5.0 3.7 -5.3 3.05 -5.5 7.75 -7.65 7.8 -7.65 M0.2 -2.55 L-0.2 -2.4 0.1 -2.45 0.2 -2.55 M56.4 -7.55 Q55.65 -5.35 54.9 -0.95 53.85 5.15 53.8 8.9 L50.75 9.7 47.1 10.5 Q44.9 11.1 43.55 13.55 L42.75 14.5 40.8 14.5 Q38.25 12.95 37.4 12.75 L33.8 10.35 Q32.3 9.45 31.65 9.85 28.75 7.85 26.25 6.85 24.75 6.25 23.75 1.9 23.0 -1.25 23.0 -2.7 L23.1 -3.7 23.4 -3.1 24.0 -2.25 24.0 -3.2 Q24.0 -5.2 25.6 -6.65 28.15 -8.95 37.35 -8.15 L31.3 -6.6 Q29.1 -5.9 28.15 -4.75 27.2 -3.65 26.85 -2.1 L26.85 -1.95 28.15 -2.2 27.8 -1.55 27.75 -1.75 27.35 -1.25 27.35 -0.15 Q30.05 0.75 33.1 2.1 34.3 2.45 36.45 3.35 L38.0 4.0 Q39.75 5.0 42.4 5.75 L44.0 5.75 45.3 5.35 46.6 4.8 47.9 4.1 48.35 3.85 Q53.8 2.0 51.8 -3.2 L50.95 -3.4 Q50.1 -4.7 49.35 -4.9 L47.5 -5.85 Q47.1 -6.35 46.1 -6.65 L45.9 -6.7 44.35 -7.65 Q47.8 -6.65 53.25 -6.65 53.8 -6.65 55.0 -7.45 L55.1 -6.95 55.5 -6.75 56.4 -7.55 M-29.15 -1.4 Q-33.95 -3.1 -37.5 -2.15 L-23.4 0.85 -29.15 -1.4 M-6.2 -13.55 L-5.2 -12.7 -5.15 -12.45 -6.2 -13.55 M32.0 9.0 L32.0 8.95 Q34.2 10.0 38.95 12.7 L41.65 14.2 Q39.7 12.25 36.05 10.0 L36.3 10.1 33.35 8.35 36.95 8.5 Q38.7 9.35 43.3 9.55 L43.0 9.15 44.35 9.25 46.75 9.45 Q50.35 7.25 51.6 6.85 L51.15 6.65 52.9 5.05 Q53.95 3.75 54.0 2.5 53.5 2.7 49.5 7.1 L50.0 7.35 50.55 7.05 49.15 8.0 Q47.3 9.1 44.6 9.1 L42.05 8.3 38.75 7.65 35.8 6.5 31.0 4.4 31.3 5.35 29.4 3.8 Q28.25 2.85 27.0 2.85 L25.35 3.15 Q25.95 4.8 26.85 5.35 L31.4 8.6 32.0 9.05 32.0 9.0" fill="#c79b84" fill-rule="evenodd" stroke="none"/>
      <path d="M7.8 -7.65 L7.75 -7.65 3.05 -5.5 3.7 -5.3 3.35 -5.0 4.0 -4.25 5.15 -4.7 7.5 -5.3 8.1 -5.15 Q6.5 -4.65 5.5 -3.85 4.75 -3.1 4.0 -2.5 L4.0 -2.45 4.05 -2.2 4.15 -1.9 3.95 -1.8 Q1.8 1.6 -1.0 4.25 L-1.15 4.25 -1.15 4.4 Q-5.95 8.85 -12.5 11.15 L-8.3 8.25 Q-4.75 6.05 -3.0 4.35 -1.7 3.05 -0.45 0.5 L-10.0 5.95 Q-16.45 9.75 -20.4 9.75 L-21.9 9.45 Q-16.8 8.5 -13.15 6.75 L-11.3 5.75 Q-13.1 5.95 -15.85 5.75 -21.15 5.4 -24.0 7.15 L-24.45 6.85 Q-22.75 5.7 -22.8 4.85 L-28.65 4.6 Q-27.7 3.5 -25.55 3.55 L-19.0 3.85 -9.9 3.15 -7.9 1.35 Q-6.85 0.35 -5.1 -0.55 L-2.85 -0.5 Q-1.45 -2.1 0.7 -2.45 L0.75 -2.45 0.8 -2.7 0.85 -2.95 1.0 -3.25 0.65 -5.5 0.7 -6.05 0.35 -6.35 -0.45 -7.0 -0.75 -7.25 -2.9 -9.3 -4.8 -11.6 -5.15 -12.45 -5.2 -12.7 -6.2 -13.55 -7.4 -14.5 -8.8 -15.4 Q-12.4 -17.65 -16.65 -17.65 -13.35 -18.5 -9.5 -16.8 L-7.9 -16.2 -6.0 -15.9 -5.5 -16.25 Q-5.15 -16.65 -4.0 -16.65 L-2.75 -16.35 Q-1.85 -16.0 -0.4 -15.25 L2.5 -13.75 6.15 -12.7 7.6 -12.15 7.8 -12.0 7.8 -7.65 M23.1 -3.7 L23.0 -3.9 Q22.85 -3.7 22.85 -3.0 22.3 -3.7 22.25 -5.2 L22.5 -8.25 23.15 -8.75 50.4 -8.75 Q51.25 -8.15 52.25 -8.15 53.15 -8.15 54.15 -8.65 L54.35 -8.75 57.3 -8.75 56.4 -7.55 55.5 -6.75 55.1 -6.95 55.0 -7.45 Q53.8 -6.65 53.25 -6.65 47.8 -6.65 44.35 -7.65 L45.9 -6.7 46.1 -6.65 Q47.1 -6.35 47.5 -5.85 45.35 -6.7 42.2 -6.9 L40.25 -6.9 Q38.35 -7.0 34.25 -5.45 L29.95 -3.7 30.0 -3.8 Q29.0 -3.65 28.15 -2.2 L26.85 -1.95 26.85 -2.1 Q27.2 -3.65 28.15 -4.75 29.1 -5.9 31.3 -6.6 L37.35 -8.15 Q28.15 -8.95 25.6 -6.65 24.0 -5.2 24.0 -3.2 L24.0 -2.25 23.4 -3.1 23.1 -3.7 M29.25 -2.7 L29.5 -2.75 31.55 -3.35 29.0 -2.4 29.25 -2.7 M-29.15 -1.4 L-23.4 0.85 -37.5 -2.15 Q-33.95 -3.1 -29.15 -1.4 M31.4 8.6 L26.85 5.35 Q25.95 4.8 25.35 3.15 L27.0 2.85 Q28.25 2.85 29.4 3.8 L31.3 5.35 31.0 4.4 35.8 6.5 38.75 7.65 42.05 8.3 44.6 9.1 Q47.3 9.1 49.15 8.0 L50.55 7.05 50.0 7.35 49.5 7.1 Q53.5 2.7 54.0 2.5 53.95 3.75 52.9 5.05 L51.15 6.65 51.6 6.85 Q50.35 7.25 46.75 9.45 L44.35 9.25 43.0 9.15 43.3 9.55 Q38.7 9.35 36.95 8.5 L33.35 8.35 36.3 10.1 36.05 10.0 Q39.7 12.25 41.65 14.2 L38.95 12.7 Q34.2 10.0 32.0 8.95 L32.0 9.0 31.4 8.6" fill="#754f4f" fill-rule="evenodd" stroke="none"/>
      <path d="M0.65 -5.5 L0.35 -6.35 0.7 -6.05 0.65 -5.5 M-0.45 -7.0 L-0.35 -6.4 Q-0.35 -5.3 -0.75 -4.4 -1.5 -2.8 -3.1 -3.4 L-3.1 -3.3 -3.5 -3.35 -4.35 -3.2 -3.7 -3.9 Q-2.95 -3.8 -2.1 -4.95 L-2.2 -5.1 -2.3 -5.25 -1.9 -5.85 Q-1.55 -6.35 -1.55 -6.7 -1.55 -7.15 -3.35 -9.25 -5.1 -11.4 -5.7 -11.35 L-5.55 -11.1 Q-7.15 -13.15 -9.25 -13.15 -22.9 -13.15 -27.1 -10.65 L-29.35 -8.65 -30.45 -7.7 -30.25 -6.9 -30.95 -6.2 -32.9 -5.9 -33.4 -6.05 -32.45 -7.6 -30.1 -10.8 Q-28.2 -11.95 -23.5 -12.95 -16.7 -14.4 -7.4 -14.5 L-6.2 -13.55 -5.15 -12.45 -4.8 -11.6 -2.9 -9.3 -0.75 -7.25 -0.45 -7.0 M0.2 -2.55 L0.1 -2.45 -0.2 -2.4 0.2 -2.55 M29.95 -3.7 L34.25 -5.45 Q38.35 -7.0 40.25 -6.9 L42.2 -6.9 Q45.35 -6.7 47.5 -5.85 L49.35 -4.9 Q50.1 -4.7 50.95 -3.4 L50.4 -2.8 51.05 -0.7 50.85 -0.2 50.1 -1.4 Q48.9 -3.45 47.0 -4.75 L46.0 -5.4 44.45 -5.5 42.55 -5.6 39.75 -5.65 38.65 -5.15 Q37.9 -4.65 37.5 -4.65 L36.5 -4.45 35.5 -4.4 35.6 -4.55 34.25 -4.15 31.55 -3.35 29.5 -2.75 29.25 -2.7 29.95 -3.7" fill="#230710" fill-rule="evenodd" stroke="none"/>
      <path d="M0.7 -2.45 L0.8 -2.7 0.75 -2.45 0.7 -2.45 M44.45 -5.5 L46.0 -5.4 47.0 -4.75 Q48.9 -3.45 50.1 -1.4 L50.85 -0.2 50.3 0.8 50.5 1.25 49.15 2.55 49.45 0.55 Q49.45 -1.5 48.15 -3.25 47.15 -4.6 46.0 -4.9 L45.5 -5.1 45.4 -5.1 44.45 -5.5" fill="#000000" fill-rule="evenodd" stroke="none"/>
      <path d="M-4.35 -3.2 Q-4.75 -2.85 -5.15 -2.65 -5.45 -2.35 -6.65 -2.1 L-6.75 -2.1 -7.4 -2.0 -11.9 -1.35 -13.55 -1.4 -16.45 -1.35 -17.2 -1.4 -17.25 -1.4 -23.9 -2.7 Q-27.95 -3.15 -30.0 -4.0 L-33.7 -5.85 -33.7 -6.15 -33.4 -6.05 -32.9 -5.9 -30.9 -5.2 -27.5 -4.05 -17.0 -1.95 -16.95 -1.95 -16.7 -1.9 -15.85 -1.9 -14.2 -1.7 -13.9 -1.75 -11.55 -1.8 -11.25 -2.05 -7.3 -2.75 -6.95 -3.3 -5.1 -4.75 Q-4.0 -5.95 -4.0 -6.9 L-4.0 -7.05 -3.35 -7.8 -4.95 -10.25 -5.0 -10.3 -5.55 -11.1 -5.7 -11.35 Q-5.1 -11.4 -3.35 -9.25 -1.55 -7.15 -1.55 -6.7 -1.55 -6.35 -1.9 -5.85 L-2.3 -5.25 -2.2 -5.1 -2.1 -4.95 Q-2.95 -3.8 -3.7 -3.9 L-4.35 -3.2 M28.15 -2.2 Q29.0 -3.65 30.0 -3.8 L29.95 -3.7 29.25 -2.7 29.0 -2.4 28.7 -2.15 Q27.8 -1.2 28.0 -0.55 L27.75 -0.6 33.6 1.8 33.85 1.9 36.1 2.9 38.15 3.85 39.6 4.45 42.5 5.45 43.9 5.45 44.75 5.35 46.55 4.45 Q46.95 4.15 48.2 3.5 L49.15 2.55 50.5 1.25 50.3 0.8 50.85 -0.2 51.05 -0.7 50.4 -2.8 50.95 -3.4 51.8 -3.2 Q53.8 2.0 48.35 3.85 L47.9 4.1 46.6 4.8 45.3 5.35 44.0 5.75 42.4 5.75 Q39.75 5.0 38.0 4.0 L36.45 3.35 Q34.3 2.45 33.1 2.1 30.05 0.75 27.35 -0.15 L27.35 -1.25 27.75 -1.75 27.8 -1.55 28.15 -2.2" fill="#6d012d" fill-rule="evenodd" stroke="none"/>
    </g>
  </defs>
</svg>
