<?xml version="1.0" encoding="UTF-8" standalone="no"?>
<svg xmlns:ffdec="https://www.free-decompiler.com/flash" xmlns:xlink="http://www.w3.org/1999/xlink" ffdec:objectType="frame" height="93.65px" width="31.0px" xmlns="http://www.w3.org/2000/svg">
  <g transform="matrix(1.0, 0.0, 0.0, 1.0, 15.5, 85.65)">
    <use ffdec:characterId="2844" height="33.2" transform="matrix(1.0, 0.0, 0.0, 1.0, -14.0, -25.2)" width="28.0" xlink:href="#shape0"/>
    <use ffdec:characterId="2849" ffdec:characterName="game_fla.arrowgunturret_135" height="64.0" transform="matrix(1.0, 0.0, 0.0, 1.0, -15.5, -85.65)" width="31.0" xlink:href="#sprite0"/>
    <use ffdec:characterId="2850" height="9.0" transform="matrix(1.0, 0.0, 0.0, 1.0, -4.45, -31.4)" width="8.95" xlink:href="#shape4"/>
  </g>
  <defs>
    <g id="shape0" transform="matrix(1.0, 0.0, 0.0, 1.0, 14.0, 25.2)">
      <path d="M3.0 -25.2 L4.5 -25.2 4.5 -13.45 3.0 -13.45 3.0 -25.2 M8.0 -10.45 L10.45 -8.0 6.1 -8.0 5.0 -10.45 8.0 -10.45 M-10.45 -8.0 L-8.0 -10.45 -5.75 -10.45 -6.95 -8.0 -10.45 -8.0 M-1.6 -13.45 L-1.6 -25.2 0.5 -25.2 0.5 -13.45 -1.6 -13.45 M-0.25 -10.45 L-0.25 -8.0 -5.2 -8.0 -4.25 -10.45 -0.25 -10.45" fill="#444444" fill-rule="evenodd" stroke="none"/>
      <path d="M3.0 -25.2 L3.0 -13.45 0.5 -13.45 0.5 -25.2 3.0 -25.2 M5.0 -10.45 L6.1 -8.0 -0.25 -8.0 -0.25 -10.45 5.0 -10.45 M-5.2 -8.0 L-6.95 -8.0 -5.75 -10.45 -4.25 -10.45 -5.2 -8.0" fill="#333333" fill-rule="evenodd" stroke="none"/>
      <path d="M3.0 -13.45 L4.5 -13.45 8.0 -13.45 8.0 -10.45 5.0 -10.45 -0.25 -10.45 -4.25 -10.45 -5.75 -10.45 -8.0 -10.45 -8.0 -13.45 -1.6 -13.45 0.5 -13.45 3.0 -13.45 M14.0 -7.0 L14.0 8.0 -14.0 8.0 -14.0 -7.0 14.0 -7.0 M2.1 -4.6 L8.4 -3.8 8.9 -1.65 10.75 -1.75 11.25 -2.9 11.6 0.1 Q6.7 0.45 3.05 3.5 L2.6 3.9 1.05 5.25 -0.65 6.3 8.6 6.55 8.85 6.95 10.9 6.85 12.05 4.95 12.45 5.3 12.8 4.05 12.9 3.5 12.95 2.55 12.85 0.4 12.3 0.05 13.0 -4.75 12.0 -5.45 2.1 -4.6 M8.6 -1.95 L7.5 -2.1 7.35 -1.95 8.6 -1.95 M9.4 2.2 L9.0 5.3 3.4 5.3 9.4 2.2 M-0.15 -3.55 L-3.9 -4.65 -11.95 -4.4 -11.9 2.55 -0.15 -3.55 M-7.8 3.0 L-7.65 1.1 Q-8.45 1.2 -9.05 1.6 L-10.25 2.7 -9.9 3.1 -7.8 3.0 M-10.05 6.85 L-8.1 6.3 -7.9 5.8 -10.3 5.45 -10.4 4.8 -12.25 4.2 -12.05 6.55 -11.7 6.8 -10.05 6.85 M-10.45 -0.15 Q-9.6 -2.05 -7.4 -1.95 L-10.8 0.95 -10.45 -0.15" fill="#999999" fill-rule="evenodd" stroke="none"/>
      <path d="M8.6 -1.95 L7.35 -1.95 7.5 -2.1 8.6 -1.95 M2.1 -4.6 L12.0 -5.45 13.0 -4.75 12.3 0.05 12.85 0.4 12.95 2.55 12.9 3.5 12.8 4.05 12.45 5.3 12.05 4.95 10.9 6.85 8.85 6.95 8.6 6.55 -0.65 6.3 1.05 5.25 2.6 3.9 3.05 3.5 Q6.7 0.45 11.6 0.1 L11.25 -2.9 10.75 -1.75 8.9 -1.65 8.4 -3.8 2.1 -4.6 M9.4 2.2 L3.4 5.3 9.0 5.3 9.4 2.2 M-0.15 -3.55 L-11.9 2.55 -11.95 -4.4 -3.9 -4.65 -0.15 -3.55 M-10.45 -0.15 L-10.8 0.95 -7.4 -1.95 Q-9.6 -2.05 -10.45 -0.15 M-10.05 6.85 L-11.7 6.8 -12.05 6.55 -12.25 4.2 -10.4 4.8 -10.3 5.45 -7.9 5.8 -8.1 6.3 -10.05 6.85 M-7.8 3.0 L-9.9 3.1 -10.25 2.7 -9.05 1.6 Q-8.45 1.2 -7.65 1.1 L-7.8 3.0" fill="#919191" fill-rule="evenodd" stroke="none"/>
      <path d="M10.45 -8.0 L14.0 -8.0 14.0 -7.0 -14.0 -7.0 -14.0 -8.0 -10.45 -8.0 -6.95 -8.0 -5.2 -8.0 -0.25 -8.0 6.1 -8.0 10.45 -8.0" fill="#cccccc" fill-rule="evenodd" stroke="none"/>
    </g>
    <g id="sprite0" transform="matrix(1.0, 0.0, 0.0, 1.0, 15.5, 58.65)">
      <use ffdec:characterId="2845" height="20.8" transform="matrix(1.0, 0.0, 0.0, 1.2404, -14.45, -33.2429)" width="28.9" xlink:href="#shape1"/>
      <use ffdec:characterId="2846" height="64.0" transform="matrix(1.0, 0.0, 0.0, 1.0, -15.5, -58.65)" width="31.0" xlink:href="#shape2"/>
      <use ffdec:characterId="2847" height="4.0" transform="matrix(1.0, 0.0, 0.0, 1.0, -2.0, -11.0)" width="2.0" xlink:href="#shape3"/>
    </g>
    <g id="shape1" transform="matrix(1.0, 0.0, 0.0, 1.0, 14.45, 33.25)">
      <path d="M13.95 -33.25 L14.45 -33.25 0.0 -12.45 -14.45 -33.25 -13.95 -33.25 0.0 -13.35 13.95 -33.25" fill="#000000" fill-rule="evenodd" stroke="none"/>
    </g>
    <g id="shape2" transform="matrix(1.0, 0.0, 0.0, 1.0, 15.5, 58.65)">
      <path d="M2.0 -51.5 L3.0 -51.5 3.0 -49.15 3.0 -34.15 3.0 -31.05 2.0 -29.9 2.0 -51.5 M4.15 -34.15 L5.75 -34.15 4.15 -32.35 4.15 -34.15 M5.75 -30.15 L5.75 -26.15 4.15 -24.35 4.15 -28.35 5.75 -30.15 M5.75 -22.15 L5.75 -18.15 4.15 -16.35 4.15 -20.35 5.75 -22.15 M5.75 -14.15 L5.75 3.1 Q5.65 5.25 3.25 5.35 L-2.6 5.35 Q-5.75 4.6 -6.35 1.85 L-6.35 -2.75 Q-6.15 -5.2 -4.1 -5.45 L-3.0 -5.45 -1.2 -5.45 0.6 -5.45 2.0 -5.45 2.0 -6.85 2.0 -9.9 3.0 -11.05 3.0 -5.25 Q4.1 -4.65 4.15 -3.6 L4.15 -12.35 5.75 -14.15 M-6.3 -50.1 L-6.5 -50.75 Q-7.0 -52.5 -7.0 -56.2 L-7.0 -56.3 -6.4 -56.3 -6.3 -52.15 -6.15 -50.8 -5.95 -50.05 -5.7 -49.45 -5.5 -49.05 -5.7 -49.2 -6.15 -49.85 -6.3 -50.1 M-4.45 -56.3 L-3.65 -56.3 -3.65 -56.2 Q-3.65 -52.75 -4.1 -51.05 L-4.15 -50.75 -4.45 -49.9 -4.5 -49.8 Q-4.75 -49.3 -5.05 -49.1 L-5.3 -49.05 -5.35 -49.05 -5.05 -49.3 Q-4.85 -49.5 -4.7 -50.4 L-4.45 -56.3 M-3.0 -51.35 L-3.0 -51.5 -2.0 -51.5 -2.0 -47.5 -3.0 -47.5 -3.0 -49.0 -3.0 -51.35 M0.05 -51.5 L0.6 -51.5 0.6 -47.5 0.05 -47.5 0.05 -51.5 M2.0 -25.9 L3.0 -27.05 3.0 -23.05 2.0 -21.9 2.0 -25.9 M2.0 -17.9 L3.0 -19.05 3.0 -15.05 2.0 -13.9 2.0 -17.9" fill="#999999" fill-rule="evenodd" stroke="none"/>
      <path d="M3.0 -51.5 Q11.1 -49.55 11.25 -40.25 11.7 -35.65 15.5 -32.25 10.25 -34.3 10.05 -41.3 9.9 -48.3 3.0 -49.15 L3.0 -51.5 M-5.7 -48.35 Q-9.95 -46.6 -10.05 -41.15 -10.25 -34.15 -15.5 -32.1 -11.7 -35.5 -11.25 -40.1 -11.15 -47.3 -6.3 -50.1 L-6.15 -49.85 -5.7 -49.2 -5.7 -48.35 M-4.1 -51.05 L-3.0 -51.35 -3.0 -49.0 -4.1 -48.8 -4.5 -48.7 -4.5 -49.8 -4.45 -49.9 -4.15 -50.75 -4.1 -51.05 M2.0 -56.5 L2.0 -54.5 -0.5 -54.5 -0.5 -56.5 2.0 -56.5 M0.6 -47.5 L0.6 -41.25 -0.3 -41.25 -0.3 -46.5 -3.0 -46.5 -3.0 -47.5 -2.0 -47.5 -1.25 -47.5 -0.5 -47.5 0.05 -47.5 0.6 -47.5" fill="#333333" fill-rule="evenodd" stroke="none"/>
      <path d="M-4.1 -43.55 Q-5.1 -44.0 -5.5 -45.1 L-5.7 -46.8 -5.7 -48.35 -5.7 -49.2 -5.5 -49.05 -5.35 -49.05 -5.3 -49.05 -5.05 -49.1 Q-4.75 -49.3 -4.5 -49.8 L-4.5 -48.7 -4.5 -47.0 -4.1 -45.45 -3.0 -44.75 -2.35 -44.75 -1.25 -44.65 Q-0.6 -44.55 -0.65 -43.85 -0.7 -43.3 -1.85 -43.2 L-2.3 -43.2 -3.0 -43.25 -4.1 -43.55 M-0.5 -58.65 L2.0 -58.65 2.0 -56.5 -0.5 -56.5 -0.5 -58.65 M2.0 -54.5 L2.0 -51.5 0.6 -51.5 0.05 -51.5 -0.5 -51.5 -0.5 -54.5 2.0 -54.5" fill="#555555" fill-rule="evenodd" stroke="none"/>
      <path d="M2.0 -51.5 L2.0 -29.9 0.6 -28.35 0.6 -41.25 0.6 -47.5 0.6 -51.5 2.0 -51.5 M2.0 -25.9 L2.0 -21.9 0.6 -20.35 0.6 -24.35 2.0 -25.9 M0.6 -16.35 L2.0 -17.9 2.0 -13.9 0.6 -12.35 0.6 -16.35 M0.6 -8.35 L2.0 -9.9 2.0 -6.85 2.0 -5.45 0.6 -5.45 0.6 -8.35" fill="#cccccc" fill-rule="evenodd" stroke="none"/>
      <path d="M-4.1 -5.45 L-4.1 -43.55 -3.0 -43.25 -3.0 -5.45 -4.1 -5.45 M-2.0 -54.5 L-2.0 -56.5 -0.5 -56.5 -0.5 -54.5 -2.0 -54.5 M0.6 -41.25 L0.6 -28.35 0.6 -24.35 0.6 -20.35 0.6 -16.35 0.6 -12.35 0.6 -8.35 0.6 -5.45 -1.2 -5.45 -1.2 -41.25 -0.3 -41.25 0.6 -41.25 M-4.1 -48.8 L-3.0 -49.0 -3.0 -47.5 -3.0 -46.5 -3.0 -44.75 -4.1 -45.45 -4.1 -48.8" fill="#222222" fill-rule="evenodd" stroke="none"/>
      <path d="M-2.0 -51.5 L-2.0 -54.5 -0.5 -54.5 -0.5 -51.5 -1.25 -51.5 -2.0 -51.5 M-2.0 -56.5 L-2.0 -58.65 -0.5 -58.65 -0.5 -56.5 -2.0 -56.5 M-1.2 -5.45 L-3.0 -5.45 -3.0 -43.25 -2.3 -43.2 -1.85 -43.2 Q-0.7 -43.3 -0.65 -43.85 -0.6 -44.55 -1.25 -44.65 L-2.35 -44.75 -3.0 -44.75 -3.0 -46.5 -0.3 -46.5 -0.3 -41.25 -1.2 -41.25 -1.2 -5.45" fill="#444444" fill-rule="evenodd" stroke="none"/>
      <path d="M-0.5 -51.5 L-0.5 -47.5 -1.25 -47.5 -1.25 -51.5 -0.5 -51.5" fill="#666666" fill-rule="evenodd" stroke="none"/>
      <path d="M3.0 -34.15 L4.15 -34.15 4.15 -32.35 3.0 -31.05 3.0 -34.15 M3.0 -23.05 L3.0 -27.05 4.15 -28.35 4.15 -24.35 3.0 -23.05 M3.0 -19.05 L4.15 -20.35 4.15 -16.35 3.0 -15.05 3.0 -19.05 M3.0 -11.05 L4.15 -12.35 4.15 -3.6 Q4.1 -4.65 3.0 -5.25 L3.0 -11.05 M0.05 -51.5 L0.05 -47.5 -0.5 -47.5 -0.5 -51.5 0.05 -51.5 M-2.0 -51.5 L-1.25 -51.5 -1.25 -47.5 -2.0 -47.5 -2.0 -51.5" fill="#878787" fill-rule="evenodd" stroke="none"/>
      <path d="M-6.4 -56.3 L-4.45 -56.3 -4.7 -50.4 Q-4.85 -49.5 -5.05 -49.3 L-5.35 -49.05 -5.5 -49.05 -5.7 -49.45 -5.95 -50.05 -6.15 -50.8 -6.3 -52.15 -6.4 -56.3" fill="#777777" fill-rule="evenodd" stroke="none"/>
      <path d="M5.75 -34.15 L5.75 -30.15 4.15 -28.35 4.15 -32.35 5.75 -34.15 M5.75 -26.15 L5.75 -22.15 4.15 -20.35 4.15 -24.35 5.75 -26.15 M5.75 -18.15 L5.75 -14.15 4.15 -12.35 4.15 -16.35 5.75 -18.15 M2.0 -29.9 L3.0 -31.05 3.0 -27.05 2.0 -25.9 0.6 -24.35 0.6 -28.35 2.0 -29.9 M2.0 -21.9 L3.0 -23.05 3.0 -19.05 2.0 -17.9 0.6 -16.35 0.6 -20.35 2.0 -21.9 M2.0 -13.9 L3.0 -15.05 3.0 -11.05 2.0 -9.9 0.6 -8.35 0.6 -12.35 2.0 -13.9" fill="#ffcc33" fill-rule="evenodd" stroke="none"/>
      <path d="M3.0 -31.05 L4.15 -32.35 4.15 -28.35 3.0 -27.05 3.0 -31.05 M3.0 -19.05 L3.0 -23.05 4.15 -24.35 4.15 -20.35 3.0 -19.05 M3.0 -15.05 L4.15 -16.35 4.15 -12.35 3.0 -11.05 3.0 -15.05" fill="#e2b52d" fill-rule="evenodd" stroke="none"/>
    </g>
    <g id="shape3" transform="matrix(1.0, 0.0, 0.0, 1.0, 2.0, 16.0)">
      <path d="M0.0 -12.0 L-2.0 -12.0 -2.0 -16.0 0.0 -16.0 0.0 -12.0" fill="#878787" fill-rule="evenodd" stroke="none"/>
    </g>
    <g id="shape4" transform="matrix(1.0, 0.0, 0.0, 1.0, 4.45, 31.4)">
      <path d="M-2.45 -26.45 L-2.5 -26.95 -2.45 -27.45 -1.8 -28.7 Q-1.05 -29.45 0.0 -29.45 1.05 -29.45 1.75 -28.7 L2.45 -27.45 2.5 -26.95 2.45 -26.45 2.3 -26.95 1.75 -27.7 Q1.05 -28.45 0.0 -28.45 -1.05 -28.45 -1.8 -27.7 L-2.3 -26.95 -2.45 -26.45 M4.4 -26.9 L4.5 -26.4 Q4.35 -24.85 3.2 -23.75 1.9 -22.4 0.0 -22.4 -1.85 -22.4 -3.2 -23.75 -4.3 -24.85 -4.45 -26.4 L-4.4 -26.9 Q-4.15 -25.65 -3.2 -24.75 -1.85 -23.4 0.0 -23.4 1.9 -23.4 3.2 -24.75 4.15 -25.65 4.4 -26.9" fill="#666666" fill-rule="evenodd" stroke="none"/>
      <path d="M-2.45 -26.45 L-2.3 -26.95 -1.8 -26.15 Q-1.05 -25.45 0.0 -25.45 1.05 -25.45 1.75 -26.15 L2.3 -26.95 2.45 -26.45 Q2.3 -25.7 1.75 -25.15 1.05 -24.45 0.0 -24.45 -1.05 -24.45 -1.8 -25.15 -2.35 -25.7 -2.45 -26.45 M-4.4 -26.9 L-4.45 -27.4 Q-4.3 -28.95 -3.2 -30.1 -1.85 -31.4 0.0 -31.4 1.9 -31.4 3.2 -30.1 4.35 -28.95 4.5 -27.4 L4.4 -26.9 Q4.15 -28.15 3.2 -29.1 1.9 -30.4 0.0 -30.4 -1.85 -30.4 -3.2 -29.1 -4.15 -28.15 -4.4 -26.9" fill="#cccccc" fill-rule="evenodd" stroke="none"/>
    </g>
  </defs>
</svg>
