<?xml version="1.0" encoding="UTF-8" standalone="no"?>
<svg xmlns:ffdec="https://www.free-decompiler.com/flash" xmlns:xlink="http://www.w3.org/1999/xlink" ffdec:objectType="frame" height="136.25px" width="146.55px" xmlns="http://www.w3.org/2000/svg">
  <g transform="matrix(1.0, 0.0, 0.0, 1.0, 87.9, 73.4)">
    <use ffdec:characterId="416" height="136.25" transform="matrix(1.0, 0.0, 0.0, 1.0, -87.9, -73.4)" width="146.55" xlink:href="#shape0"/>
  </g>
  <defs>
    <g id="shape0" transform="matrix(1.0, 0.0, 0.0, 1.0, 87.9, 73.4)">
      <path d="M39.9 -26.95 Q39.9 -29.25 40.6 -30.4 L40.65 -31.5 Q40.9 -32.85 41.85 -33.15 L44.25 -18.8 45.95 -14.05 Q49.8 -3.35 50.35 2.55 48.5 -0.95 44.95 -10.8 L45.05 -7.55 48.85 8.35 48.6 8.6 48.0 7.55 49.15 10.55 Q49.1 10.85 48.15 11.05 L47.15 9.05 48.35 12.05 47.6 12.6 Q46.7 11.6 45.6 9.2 L47.4 16.1 47.35 16.85 47.1 17.3 Q45.7 15.55 44.05 10.5 L43.8 12.05 46.4 26.35 Q44.9 24.3 43.0 16.7 L42.85 17.55 42.8 17.55 Q44.95 25.95 45.6 30.05 L45.35 30.35 Q43.05 26.3 40.25 15.25 37.85 5.85 37.85 4.45 L38.1 1.75 38.35 -1.15 38.65 -1.15 Q39.3 4.05 41.95 14.25 L42.1 14.7 42.25 13.5 41.8 11.55 Q39.35 0.55 39.35 -2.7 39.35 -4.7 39.5 -5.2 39.65 -5.85 40.1 -6.2 39.6 -8.0 39.6 -8.65 39.6 -10.15 39.75 -11.15 37.65 -17.35 37.65 -18.6 37.65 -19.95 37.8 -20.35 38.2 -21.45 39.7 -21.4 39.35 -23.15 39.35 -23.9 39.35 -25.75 39.95 -26.6 L39.9 -26.95 M39.7 -20.95 Q39.35 -20.6 39.35 -19.9 39.35 -18.8 40.75 -14.05 L41.2 -14.55 Q40.2 -18.6 39.75 -21.0 L39.7 -20.95 M42.35 -9.95 L41.7 -12.55 41.5 -11.7 42.45 -8.75 42.35 -9.95 M42.5 5.3 L43.05 8.15 43.15 7.5 42.55 5.4 42.5 5.3 M40.65 27.6 L39.75 26.75 40.65 30.1 Q39.3 28.7 37.35 22.55 36.25 19.8 35.4 15.8 34.5 12.25 34.4 10.7 33.9 7.55 33.9 5.55 33.9 3.7 34.45 1.5 35.25 -1.8 36.85 -2.4 36.1 0.85 36.1 3.05 36.1 7.1 37.75 14.5 39.05 20.4 40.65 25.35 L40.65 27.6 M31.15 10.85 Q33.85 31.6 35.65 40.85 L35.55 41.1 35.15 41.6 Q33.4 38.15 31.6 28.15 30.2 20.15 30.15 18.1 L29.8 20.35 29.4 23.35 29.7 26.5 30.85 24.6 29.9 27.95 30.3 31.45 Q31.3 39.55 31.9 42.1 L31.65 42.85 31.2 43.5 32.35 49.35 32.1 49.6 Q31.6 48.8 29.4 39.75 L28.45 35.55 27.95 38.9 Q26.65 48.9 25.35 53.1 L27.1 62.3 26.6 62.85 Q24.85 59.05 22.5 46.85 L21.95 43.9 22.6 51.55 Q21.7 50.2 20.95 47.3 20.1 50.6 18.6 53.35 L19.4 57.35 19.15 57.8 18.05 54.35 16.85 56.1 17.65 52.8 Q16.95 49.8 16.2 45.45 L16.15 50.35 15.6 51.05 Q14.55 48.45 13.8 45.35 L13.4 51.8 12.6 51.85 Q12.4 51.85 12.2 49.65 L12.3 52.3 Q12.7 55.8 14.15 58.55 L13.85 59.85 13.6 60.3 Q11.45 55.4 11.05 52.85 10.9 51.75 10.9 46.45 L10.85 44.9 10.35 45.8 10.35 46.85 10.1 47.1 9.9 46.55 8.8 48.45 8.8 48.5 7.65 60.1 7.35 60.1 Q7.0 58.65 6.95 56.0 L6.85 57.55 6.8 57.6 6.85 57.85 Q5.35 57.2 4.9 54.6 L4.35 55.35 4.35 56.1 Q4.35 57.05 4.2 56.85 L4.1 57.1 3.55 56.3 Q2.4 57.6 1.65 57.85 L3.1 55.05 Q2.15 51.9 2.1 44.75 L0.9 42.95 Q0.7 49.35 0.35 51.55 L-0.6 51.55 -0.85 47.55 -1.1 44.1 Q-1.2 46.2 -1.65 48.55 L-2.35 48.55 -2.8 44.5 -4.5 42.05 -4.6 42.85 -4.35 44.05 Q-4.4 44.25 -4.8 44.4 L-5.3 47.05 Q-6.4 52.35 -6.6 55.1 L-6.9 55.35 -7.35 54.85 -7.4 53.6 Q-7.4 52.2 -6.4 45.85 L-6.0 43.15 -7.8 39.25 -8.4 39.6 -9.95 37.4 -9.85 39.9 -9.85 40.3 -7.35 45.6 -7.35 45.9 -8.15 46.05 Q-8.95 46.05 -9.9 45.15 L-10.05 48.55 -8.35 51.8 -8.35 52.1 -10.3 49.85 -10.65 49.85 -10.7 49.35 -13.25 45.3 Q-11.75 50.2 -10.9 54.05 L-11.15 54.35 Q-13.0 51.15 -15.3 45.65 L-15.4 45.8 -16.6 44.15 -16.35 46.4 -16.6 48.5 -16.85 50.8 Q-18.35 47.1 -20.3 39.85 -22.2 37.0 -25.1 31.55 L-25.7 30.45 -22.85 37.05 -21.15 40.05 -22.25 38.7 -22.1 39.35 -22.1 39.8 -22.15 40.0 -22.4 40.35 -26.15 35.2 -26.35 35.3 -19.15 48.35 -19.4 48.6 -28.65 32.35 Q-29.95 32.15 -31.2 31.2 L-31.15 31.6 -31.65 31.8 -32.85 29.6 -33.8 28.35 -35.05 27.65 -35.0 27.8 -34.1 30.05 -34.15 30.45 -32.8 33.95 Q-29.2 42.65 -23.6 51.05 L-23.9 51.3 Q-27.35 47.95 -32.45 37.1 L-33.3 35.3 -33.85 35.35 Q-34.8 34.35 -36.5 30.65 L-37.6 29.35 -38.15 28.95 -38.4 29.05 -38.95 28.85 -36.95 35.9 -36.65 36.35 -36.85 36.8 Q-40.8 35.6 -43.85 29.05 -45.85 26.6 -47.35 23.9 -45.85 30.6 -44.15 36.1 L-44.65 36.3 Q-46.55 32.85 -50.05 17.7 L-51.0 14.35 -51.7 10.45 -51.95 9.35 -52.5 8.35 -51.45 14.95 -49.15 26.55 -49.65 26.6 -49.8 26.05 -49.9 26.1 Q-51.75 23.7 -55.05 10.95 L-55.2 10.3 -55.55 10.35 -53.35 24.1 Q-53.6 24.55 -54.6 24.6 L-56.5 10.75 -57.9 17.0 -56.15 20.35 -56.4 20.6 -58.25 18.45 Q-60.0 25.2 -61.4 27.3 L-61.8 27.25 -61.85 26.4 -60.05 16.95 -60.9 17.1 Q-61.95 17.1 -62.15 13.1 L-62.15 11.15 -62.75 10.6 -62.15 14.85 Q-63.15 13.15 -63.85 10.6 L-64.15 10.6 Q-65.0 8.05 -65.35 3.85 L-65.75 2.6 -66.95 4.1 -66.7 5.5 -66.6 5.9 -66.55 6.2 -66.15 8.35 -66.25 8.1 Q-65.85 11.1 -65.85 13.35 L-65.4 15.5 -64.6 17.85 -64.85 18.3 Q-66.05 15.55 -68.0 5.4 L-69.65 7.25 -69.65 7.55 -69.85 7.6 -69.65 8.35 -69.9 8.6 -70.2 7.85 -73.4 10.85 -74.15 10.85 Q-74.35 10.8 -74.35 10.05 -74.35 9.45 -73.1 7.45 -74.15 4.15 -75.5 -4.55 L-76.4 -11.05 -76.85 -8.9 -77.15 -8.9 -76.8 -14.3 -76.95 -15.7 -77.7 -18.2 -77.8 -20.6 -80.15 -9.65 -80.4 -9.4 -80.6 -9.9 -80.7 -8.5 Q-81.3 2.75 -80.65 9.85 L-80.9 10.1 Q-82.05 6.6 -82.3 4.05 L-82.4 -1.7 -82.4 -3.4 -82.65 -3.4 -82.9 -8.65 Q-82.9 -10.65 -81.9 -15.3 L-81.6 -19.7 -81.65 -19.7 -82.2 -24.2 -83.15 -20.45 -83.65 -20.4 -82.35 -27.25 -82.35 -27.45 -81.95 -31.1 -83.65 -22.65 -84.15 -22.65 Q-84.4 -21.95 -84.4 -23.2 -84.4 -29.25 -81.95 -40.8 L-80.5 -46.6 -82.7 -40.1 Q-85.75 -30.0 -86.15 -21.45 L-86.2 -21.25 -86.4 -20.9 Q-86.9 -22.9 -86.9 -24.35 L-86.9 -24.55 -87.15 -23.15 -87.65 -23.15 Q-87.9 -22.6 -87.9 -23.85 -87.9 -28.15 -83.75 -42.2 -79.8 -55.65 -78.35 -57.65 -82.25 -46.9 -85.15 -33.35 L-82.2 -42.8 Q-78.95 -52.4 -77.05 -56.4 L-77.1 -58.6 Q-77.1 -64.2 -76.8 -65.3 -76.3 -67.25 -74.85 -65.05 -75.55 -63.75 -75.75 -62.05 L-75.85 -58.8 -75.85 -58.65 -75.8 -57.5 -74.4 -58.95 -75.75 -55.95 -75.6 -54.1 -74.5 -55.9 -74.15 -59.65 -73.85 -59.65 -73.9 -57.4 -74.15 -55.35 -73.7 -49.75 Q-72.95 -52.65 -72.2 -54.25 L-72.25 -55.85 Q-72.2 -59.9 -70.35 -60.7 L-69.9 -60.5 Q-69.65 -60.35 -69.65 -59.6 L-69.65 -58.9 -69.85 -58.9 -70.15 -59.1 -70.35 -59.65 Q-70.75 -57.8 -70.85 -54.15 L-70.15 -55.4 -70.8 -51.65 -69.85 -53.2 -70.05 -51.9 -69.85 -52.15 -69.65 -51.9 -70.2 -51.15 -70.4 -49.7 -70.3 -46.8 -69.75 -47.4 -69.4 -48.35 -68.6 -50.05 -68.55 -50.15 Q-67.6 -57.65 -66.35 -61.65 L-66.25 -61.7 -66.15 -60.85 -67.15 -46.9 -67.55 -42.05 -67.85 -38.5 -67.35 -39.15 Q-67.45 -37.95 -67.85 -36.35 L-67.7 -35.2 Q-66.95 -42.4 -64.35 -45.65 L-65.5 -38.45 -62.65 -41.2 Q-64.3 -39.4 -65.7 -36.65 L-65.9 -34.55 Q-65.4 -36.0 -64.5 -36.35 -63.15 -41.7 -60.65 -38.7 -60.1 -37.9 -59.6 -35.45 L-59.55 -36.0 -60.35 -39.0 -63.65 -50.65 -62.85 -50.7 Q-59.6 -46.15 -57.45 -37.95 L-57.4 -37.85 -57.4 -37.8 Q-56.35 -33.8 -55.6 -28.9 L-55.4 -27.75 -54.9 -28.65 Q-54.3 -28.45 -53.65 -27.65 L-54.45 -26.85 Q-54.85 -26.25 -54.85 -25.45 L-54.75 -23.85 Q-54.45 -25.0 -53.9 -25.45 -52.7 -24.1 -52.35 -21.05 L-52.15 -16.6 -51.85 -16.8 -52.1 -18.45 -52.0 -19.7 -52.4 -22.7 -52.35 -24.2 -51.85 -24.2 -50.9 -20.65 -50.85 -20.65 -49.85 -17.9 -49.5 -18.1 -49.6 -20.85 -49.45 -25.0 Q-49.15 -27.2 -47.85 -27.7 L-48.15 -26.5 -48.4 -24.95 Q-48.4 -19.75 -47.5 -13.65 L-47.35 -15.25 Q-47.05 -17.15 -46.35 -18.15 L-45.85 -22.9 -45.15 -22.9 -44.95 -22.55 -44.9 -21.6 Q-44.9 -15.9 -45.7 -7.5 L-44.7 -1.8 Q-44.5 -3.5 -43.6 -4.2 L-43.5 -4.75 -44.1 -9.85 -43.65 -14.15 -43.35 -14.15 -42.95 -12.5 -42.35 -13.2 -42.15 -12.35 Q-42.15 -17.65 -41.65 -20.65 L-41.35 -20.65 Q-41.2 -16.45 -40.35 -11.5 L-39.9 -11.9 Q-39.2 -10.85 -39.25 -10.15 L-39.4 -9.2 -38.3 -4.75 -37.15 -5.9 Q-37.0 -5.5 -37.3 -4.85 L-37.65 -3.45 -37.65 -2.45 -32.4 15.35 -31.15 18.45 -30.35 18.2 Q-30.3 17.15 -29.9 16.4 L-29.75 16.2 Q-32.15 9.15 -32.15 6.15 L-32.05 4.65 Q-36.6 -8.3 -36.6 -10.35 L-36.35 -15.2 -35.85 -15.2 Q-34.0 -5.6 -28.6 8.95 L-26.6 14.25 -26.9 12.9 -26.8 12.05 -27.3 9.0 Q-29.4 2.4 -29.4 -2.1 -29.4 -2.95 -28.85 -4.15 L-27.9 -5.65 Q-27.35 -4.9 -27.3 -3.75 L-27.4 -2.35 -27.05 0.9 Q-26.6 -1.0 -25.15 -1.4 -25.05 -1.2 -25.3 -0.95 -25.65 -0.6 -25.65 0.1 -25.65 2.35 -24.85 5.65 -24.4 4.3 -23.4 4.65 -25.15 -0.35 -25.15 -2.3 L-25.1 -3.4 -24.15 -3.45 -20.1 8.65 -19.15 10.75 -19.4 9.05 -19.1 3.6 -18.15 3.55 Q-17.8 6.6 -16.5 10.85 L-16.15 10.85 -15.65 11.6 -16.1 12.25 -14.65 16.3 -14.8 13.45 -14.85 13.05 -14.85 12.7 -14.9 11.95 -14.85 11.4 -14.9 9.8 -14.65 6.35 -14.35 6.35 -13.95 9.05 -12.65 8.85 -12.1 9.3 -12.6 9.85 Q-13.1 10.4 -13.1 11.15 -13.1 13.55 -9.85 20.0 L-10.6 16.55 -10.35 13.8 -9.85 13.8 -8.4 19.15 -7.85 18.35 -6.6 20.9 Q-6.6 20.1 -6.1 19.65 -5.7 19.3 -5.35 19.3 L-5.4 20.05 -4.2 25.05 -1.25 29.9 -1.8 28.05 Q-3.15 23.45 -3.15 22.4 L-3.0 21.35 -2.95 21.3 -3.15 20.85 -2.85 20.85 -2.7 21.1 -2.15 21.1 -1.05 24.15 Q-0.25 25.95 0.4 28.1 1.35 25.45 2.85 24.1 1.8 27.1 1.35 31.75 L1.7 33.3 1.85 33.85 1.85 33.9 2.15 35.35 2.35 29.5 Q2.65 24.4 3.3 22.55 L2.35 17.85 2.65 17.85 Q3.35 18.85 4.05 21.5 4.55 21.3 5.15 22.35 L4.95 25.35 5.85 30.55 5.9 30.7 5.9 30.5 5.85 29.95 5.1 20.9 5.35 15.35 5.65 15.35 6.2 20.7 6.25 20.35 6.35 19.85 6.65 19.85 7.2 21.35 Q7.5 21.1 8.1 21.1 9.3 21.1 9.6 22.7 L9.85 24.6 10.15 24.55 9.9 24.3 9.85 23.4 11.2 18.1 Q12.55 12.05 12.65 7.85 L13.15 7.85 14.05 16.2 14.35 22.15 14.3 24.4 Q14.8 21.4 16.1 19.6 L16.7 19.8 16.85 19.6 16.9 19.85 17.05 19.85 Q16.25 9.9 15.85 7.85 L16.15 7.85 Q17.65 14.5 18.8 24.25 19.75 27.15 20.45 30.9 L20.55 30.35 20.55 30.15 Q20.75 28.15 21.1 26.8 19.9 17.9 19.9 16.3 19.9 15.45 20.05 15.2 L20.6 14.85 Q21.4 16.15 21.15 16.3 L21.6 18.6 Q21.6 16.55 22.6 15.8 L23.4 17.0 23.4 17.3 25.3 29.2 26.45 36.7 27.65 31.7 Q27.1 28.95 27.1 27.8 L27.35 22.35 27.65 22.35 27.7 22.45 Q27.85 18.95 30.2 16.8 30.25 13.75 30.85 10.85 L31.15 10.85 M32.65 14.85 Q33.0 12.9 33.65 12.35 L33.6 14.4 Q33.6 16.75 35.75 25.45 L37.85 33.8 Q37.85 34.85 37.7 34.35 L37.35 34.6 Q35.65 32.35 33.85 25.0 32.35 18.95 32.35 17.8 32.35 16.4 32.65 14.85 M16.15 29.4 L16.25 29.25 16.2 28.85 16.15 29.4 M16.85 34.55 L16.15 35.7 Q16.15 39.1 17.5 47.1 L18.05 50.4 18.6 46.35 Q17.9 42.5 16.95 35.05 L16.7 32.85 16.2 35.15 16.85 34.55 M4.7 31.8 L4.55 38.65 4.55 40.1 5.2 41.6 5.4 36.9 4.75 32.1 4.7 31.8 M8.1 38.95 L7.7 36.5 7.6 39.1 7.4 44.9 7.4 45.25 7.65 42.7 8.1 38.95 M2.1 39.35 L1.0 37.7 1.0 39.65 2.1 41.8 2.1 39.4 2.1 39.35 M4.4 47.85 L4.35 52.6 4.75 51.9 5.1 47.3 5.15 43.65 4.5 42.8 4.4 47.55 4.65 48.1 4.4 47.85 M10.25 42.3 L10.35 42.15 10.25 41.9 10.25 42.3 M24.35 45.85 L24.15 46.05 24.85 50.15 25.55 43.75 24.8 41.4 24.65 42.65 24.35 45.85 M-87.15 -0.95 L-87.65 -0.9 Q-87.65 -5.0 -86.4 -9.0 -84.9 -13.75 -82.15 -16.4 -83.0 -13.9 -85.15 -8.75 -86.9 -4.15 -87.15 -0.95 M-76.85 -51.15 L-76.95 -52.7 -77.3 -51.65 -77.25 -51.7 -77.15 -50.85 -77.15 -50.3 -76.85 -51.15 M-75.35 -53.45 L-75.45 -52.35 -75.3 -50.15 -75.15 -52.15 -74.85 -52.15 -74.85 -52.6 -74.55 -55.7 -74.95 -55.0 Q-75.35 -54.2 -75.35 -53.45 M-72.0 -52.2 L-72.1 -52.8 -72.55 -51.1 -72.0 -52.2 M-57.6 -26.8 L-57.65 -26.6 -57.6 -25.8 -57.6 -26.8 M-57.9 -29.2 L-57.8 -28.05 -57.7 -27.9 -57.9 -29.2 M-74.6 -49.35 L-74.7 -50.25 -74.9 -48.9 -74.9 -48.75 -74.6 -49.35 M-76.55 -46.1 L-77.55 -40.75 -76.45 -44.6 -76.55 -46.1 M-71.75 -40.35 L-71.9 -39.65 -71.9 -39.25 -71.7 -40.15 -71.75 -40.35 M-78.8 -44.9 L-77.45 -51.15 Q-78.9 -46.55 -80.05 -40.85 L-81.0 -36.0 -79.75 -41.35 -78.8 -44.9 M-71.65 -34.85 L-71.65 -36.1 -71.7 -35.55 -71.65 -34.85 M-62.55 -33.9 L-62.65 -33.9 -62.65 -33.65 -62.55 -33.9 M-61.15 -26.0 L-61.15 -25.5 -60.9 -26.2 -60.95 -26.5 -61.1 -26.25 -61.15 -26.0 M-76.0 -13.65 L-75.1 -7.7 -75.55 -17.1 -75.65 -16.35 -75.6 -13.9 -75.9 -13.65 -76.0 -13.85 -76.0 -13.65 M-74.9 -15.4 L-74.65 -11.7 -74.65 -5.05 -72.5 6.55 -71.4 4.9 Q-72.8 0.95 -73.2 -2.35 L-73.35 -6.3 -73.45 -6.35 Q-73.65 -6.55 -73.65 -7.35 L-73.35 -8.35 -73.4 -10.65 -73.55 -11.2 -73.65 -9.95 -74.15 -9.9 -74.6 -14.4 -74.9 -15.4 M-72.15 -6.9 L-72.3 -7.4 -72.35 -7.3 -72.2 -3.4 -70.75 3.95 -70.7 3.9 -71.35 -0.95 -71.45 -1.05 Q-71.65 -1.35 -71.65 -2.2 L-71.6 -2.9 -72.05 -7.0 -72.15 -6.9 M-66.1 -7.4 L-66.2 -4.9 -65.85 -2.7 -65.8 -2.75 -65.9 -5.9 -66.1 -7.2 -66.1 -7.4 M-68.3 -10.6 L-68.6 -15.2 -68.55 -10.15 -68.3 -10.6 M-70.6 -6.1 L-70.65 -6.35 -70.65 -6.0 -70.6 -6.1 M-68.0 -1.9 L-67.6 -0.45 -67.75 -0.3 -67.7 -0.15 -66.8 -1.35 -66.85 -1.5 -67.55 -5.0 -67.9 -7.15 -68.4 -6.05 -68.1 -2.4 -68.0 -1.9 M-70.3 -1.95 L-69.95 2.85 -68.8 1.25 -69.55 -3.5 -70.3 -1.95 M-49.4 -17.15 L-49.6 -17.0 -49.25 -15.85 -49.4 -17.15 M-52.05 -14.85 Q-51.9 -13.2 -51.2 -12.05 L-51.65 -15.25 -52.05 -14.85 M-57.45 -5.65 L-57.45 -5.2 -57.45 -5.0 -57.15 -4.1 -57.1 -4.5 -57.45 -5.65 M-9.85 24.55 L-9.8 24.5 -9.9 24.4 -9.85 24.55 M-31.65 6.3 Q-31.65 8.75 -29.25 15.65 -28.85 15.35 -28.35 15.35 L-28.4 16.7 -28.55 17.6 -26.8 22.15 -26.85 21.8 -26.75 19.95 -26.55 19.5 -30.45 9.15 -31.6 5.9 -31.65 6.3 M-38.4 19.3 L-38.4 19.25 -38.45 19.25 -38.4 19.3 M-39.9 24.05 L-40.7 22.65 -39.45 26.95 -39.0 27.6 -38.9 26.45 -39.7 24.0 -39.9 24.05 M-30.4 20.2 L-29.45 22.25 -30.3 18.95 -30.35 18.95 -30.4 19.9 -30.4 20.2 M-23.7 26.25 L-24.55 24.35 -23.2 28.3 -23.6 26.7 -23.7 26.25 M-25.1 28.3 L-28.35 20.05 Q-27.65 23.55 -24.2 30.45 L-25.1 28.3 M-35.6 25.25 L-35.9 24.7 -35.85 24.85 -35.6 25.25 M-39.05 28.05 L-39.25 27.75 -39.05 28.45 -39.05 28.05 M-37.95 28.85 L-37.75 29.05 -37.9 28.8 -37.95 28.85 M-35.1 31.1 L-35.25 31.1 -34.7 32.05 -35.1 31.1 M-6.45 26.35 L-5.45 28.15 -5.65 27.0 -6.9 24.8 -6.45 26.35 M-5.4 33.65 L-5.4 33.15 -5.4 33.05 -5.6 32.5 -5.4 33.65 M-5.55 34.85 L-5.75 35.2 -5.45 35.9 -5.4 34.1 -5.55 34.85 M-4.65 33.75 L-4.35 35.1 -4.65 34.65 -4.35 38.2 -3.4 40.15 -4.4 34.15 -4.65 33.75 M-0.95 34.7 L-1.9 33.2 -2.45 32.3 -2.1 34.1 -1.05 35.95 -0.95 34.7 M-12.5 34.8 L-12.55 34.4 -12.85 33.65 -12.9 34.0 -12.5 34.8 M-14.1 40.2 L-11.0 46.65 -11.4 43.45 -13.5 39.9 -14.1 40.2 M-17.2 41.15 L-16.95 41.65 -17.25 40.85 -17.2 41.15 M-1.3 39.35 L-1.2 40.75 -1.2 39.55 -1.3 39.35 M-42.5 2.0 Q-42.15 7.05 -40.9 11.95 L-39.6 14.9 -40.6 11.55 Q-41.3 9.15 -42.5 2.0 M-49.05 12.0 L-47.9 20.05 -47.05 22.1 -48.55 12.4 -48.65 12.3 -49.05 12.0 M-49.25 6.85 L-50.15 5.2 -49.7 8.15 -48.9 9.8 -49.25 6.85 M-59.65 7.1 L-59.65 11.9 -59.35 12.9 -59.35 12.8 -58.1 4.6 -59.65 6.9 -59.65 7.1 M-54.35 10.45 Q-51.75 20.75 -50.25 24.55 L-52.65 15.25 Q-53.65 10.8 -53.95 6.95 L-54.6 9.35 -54.35 10.45 M-46.2 23.9 L-44.95 26.35 -46.15 22.8 -46.3 22.25 -46.2 23.9 M-43.8 20.05 L-43.45 21.05 -41.0 27.4 -43.75 18.8 -43.8 20.05" fill="#333333" fill-rule="evenodd" stroke="none"/>
      <path d="M-24.45 -62.95 L-24.8 -66.25 Q-24.8 -73.05 -15.9 -73.4 L-5.4 -73.4 -5.25 -73.35 0.05 -73.35 0.45 -73.2 9.95 -73.2 10.35 -73.35 16.65 -73.35 22.05 -72.75 Q23.4 -72.45 23.4 -71.45 L22.55 -69.0 22.2 -69.65 Q21.45 -68.45 21.45 -64.4 21.45 -63.4 21.8 -61.75 L22.05 -60.8 22.05 -60.15 22.15 -59.65 22.05 -58.4 22.05 -57.6 Q23.0 -53.65 23.1 -51.3 L24.55 -47.4 24.6 -47.3 24.75 -47.25 25.1 -46.25 Q24.55 -45.9 24.35 -44.7 L24.05 -44.25 24.05 -44.7 22.8 -46.0 Q21.5 -47.0 20.75 -46.8 20.0 -46.6 19.35 -45.55 L18.7 -43.5 18.25 -41.9 18.3 -41.95 18.35 -41.6 18.25 -41.1 18.3 -41.05 18.3 -41.0 17.95 -40.7 15.85 -39.15 13.95 -39.5 Q13.05 -40.3 12.2 -40.3 L12.05 -40.4 11.65 -40.55 11.55 -40.65 11.75 -41.0 11.9 -42.05 12.05 -43.1 11.95 -44.0 11.75 -44.85 11.75 -44.8 11.5 -44.85 Q10.9 -45.75 8.55 -45.4 L7.05 -45.5 Q5.05 -45.35 4.8 -44.55 L4.45 -44.55 4.35 -44.7 Q3.9 -45.4 2.6 -45.05 L-2.65 -44.15 Q-4.2 -44.0 -4.2 -43.6 L-4.2 -43.55 -4.4 -43.5 -4.3 -42.25 -4.25 -40.4 Q-4.25 -39.35 -4.55 -38.5 L-5.45 -41.9 -5.5 -42.15 -5.55 -42.25 -5.85 -43.05 -6.8 -43.65 Q-7.2 -43.85 -7.4 -44.0 L-10.35 -43.45 -11.55 -43.4 -11.65 -43.25 -11.9 -42.85 -12.5 -36.85 -12.8 -36.6 Q-13.15 -37.2 -13.15 -38.2 L-13.1 -39.85 -13.4 -41.5 -13.5 -41.85 -13.65 -42.2 -13.65 -42.3 -13.9 -42.25 Q-14.25 -43.0 -15.65 -43.4 -17.65 -44.0 -19.15 -42.85 L-21.6 -41.15 Q-22.45 -40.45 -22.45 -39.5 L-22.4 -39.05 -22.3 -38.9 -22.4 -38.9 -22.5 -38.1 -22.25 -37.45 -22.15 -37.3 -22.1 -36.9 -22.85 -37.6 Q-23.6 -38.75 -23.9 -40.2 -23.55 -41.1 -23.5 -42.8 L-23.55 -46.75 -23.35 -49.7 -23.15 -52.7 -23.0 -56.05 -23.15 -59.0 -23.25 -59.95 -23.45 -61.55 -23.6 -62.3 -23.7 -62.7 -23.8 -62.85 -23.75 -63.2 Q-23.75 -63.7 -24.15 -63.9 L-24.45 -62.95" fill="#230710" fill-rule="evenodd" stroke="none"/>
      <path d="M32.25 -45.2 L32.25 -47.1 32.55 -47.1 33.2 -44.95 33.85 -44.85 34.6 -42.55 34.2 -44.3 34.05 -44.8 34.2 -44.75 Q35.2 -40.4 37.0 -36.05 36.05 -37.35 35.15 -39.15 36.7 -35.05 38.65 -30.95 L40.15 -27.85 40.05 -29.15 40.95 -26.3 43.15 -22.3 40.75 -28.4 42.6 -25.5 43.6 -21.55 45.15 -19.0 45.6 -18.25 45.6 -17.8 45.2 -18.3 Q43.5 -20.4 42.0 -22.9 L45.6 -10.8 45.65 -9.85 45.65 -9.55 45.5 -8.25 45.15 -6.85 44.85 -6.85 42.2 -18.55 41.8 -20.35 42.15 -19.85 41.15 -23.15 40.25 -25.95 38.85 -28.7 37.85 -30.9 36.45 -34.25 39.8 -24.15 39.55 -25.4 39.85 -24.4 Q39.9 -22.75 41.05 -16.6 41.95 -11.5 42.85 -8.6 L42.85 -7.55 42.8 -6.35 42.8 -6.25 42.8 -6.2 42.75 -6.05 42.75 -5.75 42.65 -4.8 42.2 -6.9 Q41.0 -12.15 39.0 -15.05 L38.75 -16.95 38.85 -17.1 38.6 -18.15 Q40.45 -12.25 41.6 -9.85 L41.85 -10.1 Q40.1 -13.9 38.6 -18.15 L38.2 -20.2 39.35 -16.35 39.85 -16.4 40.05 -15.45 39.75 -17.9 Q38.45 -28.4 35.85 -35.1 L36.1 -35.1 33.3 -41.95 32.25 -44.5 32.25 -45.2 M34.25 -53.35 L34.25 -54.05 34.25 -54.6 34.3 -54.6 34.55 -54.6 Q36.9 -38.95 44.1 -25.75 L44.1 -25.3 Q42.4 -27.7 40.9 -30.45 42.45 -26.95 44.25 -24.0 L43.75 -23.8 Q38.2 -33.4 35.8 -43.5 34.35 -48.85 34.25 -53.35 M39.85 -47.8 L40.85 -46.75 Q40.4 -49.25 40.25 -51.6 L40.4 -51.6 40.6 -51.6 45.8 -35.5 46.85 -32.25 48.1 -28.3 47.35 -29.4 47.75 -28.05 47.5 -27.8 Q45.1 -32.5 43.0 -36.95 38.85 -45.65 38.85 -47.4 38.85 -48.65 39.0 -48.25 L39.1 -48.35 39.85 -47.8 M49.95 -23.15 L50.2 -22.3 Q52.4 -19.0 53.15 -14.55 L53.55 -10.75 50.1 -16.85 50.0 -17.25 49.7 -17.6 49.4 -18.5 Q48.25 -23.2 46.95 -26.4 48.45 -24.4 49.95 -23.15 M53.6 -9.9 L53.65 -8.25 51.8 -12.45 53.6 -9.9 M53.65 -6.6 L53.65 -4.85 52.75 -6.95 52.6 -7.35 52.35 -7.35 52.4 -8.0 51.3 -12.05 53.65 -6.6 M40.1 24.0 L40.1 25.1 39.85 28.1 39.35 28.15 38.55 23.55 38.6 25.85 38.35 31.0 38.3 31.65 38.25 32.2 37.65 35.85 37.5 36.35 37.1 37.15 Q36.5 34.6 36.0 30.7 L35.5 26.9 35.4 26.15 36.1 28.4 36.4 28.15 Q36.15 22.25 35.25 17.7 L35.4 17.9 Q34.55 11.6 33.75 8.2 32.25 2.15 28.15 -1.6 L27.85 -1.6 Q30.6 1.6 32.3 8.8 L32.35 9.05 Q29.7 3.65 25.15 -0.6 L24.85 -0.6 Q28.8 5.25 31.6 13.95 L34.35 22.65 34.2 27.45 33.65 34.35 33.35 34.35 32.85 23.75 32.75 24.55 32.6 25.4 32.15 25.85 32.1 26.25 32.15 27.6 31.9 29.75 31.65 31.05 31.65 31.2 31.15 33.65 31.05 33.65 30.85 34.15 29.85 34.15 Q29.85 30.5 28.6 24.8 L28.85 26.85 28.85 33.6 28.35 33.65 Q28.35 29.3 27.7 21.2 L26.6 17.35 25.0 13.0 Q27.1 22.0 27.1 25.95 L27.1 26.85 26.9 27.35 26.25 27.7 26.9 36.6 26.9 37.9 26.4 49.6 26.1 49.85 Q25.55 45.85 25.2 38.8 L25.1 37.1 24.85 28.7 24.7 24.55 Q23.15 19.6 21.55 11.0 L21.35 9.75 21.05 10.35 21.6 14.1 19.95 8.8 Q17.8 2.85 15.9 -0.25 15.35 -3.05 15.35 -4.15 15.35 -5.65 16.15 -5.65 L18.3 -0.65 18.85 -6.1 19.15 -6.1 19.35 -5.8 19.35 -4.9 Q19.35 -1.7 19.0 1.35 L20.45 7.0 20.65 6.0 19.95 1.9 21.85 9.65 23.85 17.65 24.35 17.6 Q21.55 5.5 20.15 1.4 L19.9 1.6 19.65 -0.55 19.75 -1.35 19.85 -1.6 20.15 -1.6 21.05 -0.05 21.4 0.1 22.35 -13.1 22.65 -13.1 22.9 -9.3 22.85 -4.9 24.75 -13.65 24.25 -8.75 23.4 -1.55 23.65 0.15 23.75 0.7 23.15 -0.1 22.85 -0.1 Q24.2 2.75 26.65 10.55 29.05 18.1 30.6 21.15 L30.85 20.9 30.85 16.85 Q29.25 11.1 28.1 8.35 27.0 5.7 25.5 3.2 L25.7 1.4 25.4 0.5 24.9 2.3 24.35 1.55 25.85 -6.85 Q26.85 -12.0 26.85 -15.55 L26.85 -17.3 27.35 -21.1 27.65 -21.1 28.15 -14.35 27.7 -9.7 28.15 -11.1 27.15 -3.8 Q31.85 -0.5 35.2 9.1 L35.4 9.65 35.05 7.4 Q32.45 -1.8 28.35 -8.9 L28.6 -9.15 Q30.75 -8.55 32.95 -4.1 L32.85 -4.1 33.95 -1.9 34.25 -1.1 34.65 -0.1 35.05 1.1 36.2 5.1 38.6 14.15 38.65 14.1 38.95 15.5 39.5 18.6 Q40.0 21.6 40.1 24.0 M23.15 39.45 L22.85 42.6 22.35 42.65 22.35 41.7 Q22.25 34.85 20.6 26.15 L20.45 26.15 20.65 22.5 Q20.65 18.6 18.4 12.6 16.6 7.75 14.55 4.65 L12.85 -2.5 Q12.85 -3.3 13.0 -3.0 L13.1 -2.6 13.1 -2.65 Q14.8 -0.65 16.2 1.85 L21.85 19.65 22.15 19.65 22.3 19.65 22.9 24.65 22.6 24.9 Q23.4 29.65 23.4 33.35 L23.15 39.45 M19.65 38.8 L19.65 39.6 19.35 43.6 19.3 43.8 19.1 44.15 18.15 38.6 17.6 35.7 17.45 34.95 17.25 33.85 17.6 35.15 17.7 34.8 17.6 34.6 Q17.45 33.9 17.65 32.6 L17.85 30.6 Q17.85 22.7 15.7 15.0 14.95 12.3 14.0 9.95 L14.6 11.25 Q11.95 3.2 9.85 -1.1 L10.15 -1.1 15.1 7.95 Q15.6 10.55 17.15 15.85 19.2 23.1 19.75 26.25 L19.65 26.35 18.85 24.25 18.85 24.7 Q18.85 25.9 18.25 27.0 19.55 34.4 19.65 38.8 M5.35 39.25 L5.35 39.6 5.25 39.65 4.85 39.65 Q4.8 37.55 3.35 29.55 L3.2 28.75 2.25 23.6 0.85 15.65 0.8 15.8 0.6 16.15 Q-2.15 5.0 -4.65 -0.6 L-4.35 -0.6 Q-4.0 -0.1 -1.65 6.5 L0.45 12.8 Q-0.05 9.5 -0.1 7.75 L-1.85 3.6 Q-6.6 -5.8 -8.15 -10.1 L-7.85 -10.1 Q-6.2 -5.9 -1.55 3.1 L0.0 6.6 0.1 6.75 0.15 6.9 0.4 7.6 Q1.5 10.5 2.0 12.95 3.0 16.95 3.7 21.55 L5.35 36.15 5.35 39.25 M-14.6 29.45 L-14.6 29.7 -14.4 36.7 Q-14.4 38.6 -14.85 42.65 L-15.15 42.65 -15.7 32.6 -15.85 32.6 -16.45 27.4 -16.85 24.35 -17.55 19.5 -18.65 12.35 -20.2 2.05 -18.4 6.15 -18.15 5.9 -20.2 -0.6 -17.9 3.3 -17.1 5.9 -17.15 7.1 -17.15 7.15 -16.15 11.2 -16.15 10.4 -16.1 10.4 -15.85 12.85 Q-15.85 16.35 -15.0 23.0 L-14.45 27.55 -14.6 29.45 M-23.3 20.3 Q-22.15 26.1 -22.15 28.45 L-22.15 29.1 -22.2 29.3 -22.4 29.65 -24.8 20.3 -29.6 -0.2 -30.1 -2.4 -30.1 0.7 -30.15 4.75 -29.9 5.25 -28.75 7.25 -29.7 5.7 Q-25.95 14.2 -24.9 20.3 L-24.75 21.25 Q-25.55 20.9 -26.4 19.9 -28.1 17.95 -29.9 13.55 L-29.9 13.5 -30.15 12.9 -31.8 8.75 -35.0 1.0 Q-36.85 -2.4 -39.15 -9.15 L-42.75 -19.55 -42.35 -19.55 -41.9 -18.7 -41.8 -20.3 -41.35 -17.65 -34.1 -3.45 -35.9 -9.3 -36.35 -10.15 -36.75 -12.45 -36.85 -11.8 -37.25 -11.8 Q-38.25 -15.6 -40.5 -29.25 -42.75 -42.8 -42.75 -45.05 L-42.75 -45.3 -42.75 -45.6 -42.35 -45.6 -40.35 -33.6 -39.65 -29.0 Q-38.2 -19.5 -37.0 -13.7 L-37.75 -18.45 -35.35 -9.55 -32.5 -0.25 -32.1 0.6 -30.7 3.55 -30.85 -3.7 -31.8 -5.65 -30.5 -3.8 -30.3 -4.0 -34.15 -17.05 Q-38.1 -31.9 -38.1 -38.05 L-38.0 -39.85 -37.8 -39.85 -37.25 -39.85 -35.35 -30.55 -34.3 -31.95 -34.35 -30.35 -34.0 -25.85 -33.8 -23.55 -33.25 -21.25 -33.1 -24.7 -32.55 -21.45 -32.15 -16.6 -31.95 -15.75 -32.45 -20.8 -33.05 -30.9 Q-33.85 -36.05 -33.85 -39.75 L-33.75 -42.55 -33.75 -43.1 -33.65 -43.1 -33.35 -43.1 -33.05 -38.6 -32.85 -38.6 -32.65 -36.4 -32.45 -34.25 -31.85 -34.7 -31.9 -33.8 -31.9 -32.55 -32.2 -32.35 -32.35 -33.1 -32.05 -29.65 -32.05 -29.9 -31.75 -28.45 -31.65 -27.1 -30.2 -17.7 -29.75 -14.55 -30.0 -14.3 -30.65 -18.05 -30.95 -19.55 -30.75 -18.05 -30.8 -17.6 -30.65 -16.5 -30.3 -14.35 -29.9 -13.3 -29.6 -11.75 -29.5 -11.3 Q-27.35 -1.85 -22.15 11.15 L-21.95 11.15 Q-21.6 13.5 -21.6 15.35 L-21.65 18.6 -21.7 18.6 -24.05 10.65 -25.0 7.6 -26.45 3.25 -28.0 0.0 -27.75 1.0 -28.2 1.1 -25.3 11.0 -23.3 20.3 M-28.95 18.2 L-28.85 18.75 -28.65 19.5 -28.5 20.1 -28.15 21.1 -28.65 21.15 -28.9 20.15 -28.65 19.9 Q-29.6 17.05 -29.6 15.85 -29.6 14.9 -29.9 13.55 -29.1 16.05 -29.1 17.1 L-28.95 18.2 M-25.95 28.05 Q-23.8 31.8 -20.85 35.15 -23.7 33.25 -26.1 30.1 -28.75 26.6 -30.8 21.6 -32.15 18.25 -32.95 15.15 L-33.15 15.15 Q-33.9 11.15 -35.25 6.25 L-35.55 4.7 -35.15 5.5 -34.3 7.25 -34.25 7.3 -34.2 7.45 -34.1 8.1 -34.1 7.65 -31.3 13.8 -30.2 18.3 Q-28.65 23.45 -25.95 28.05 M-39.15 19.55 L-39.15 19.6 -39.65 19.65 -39.9 18.6 -41.5 9.65 -42.65 1.3 -42.75 2.65 Q-42.15 4.95 -42.15 6.15 L-42.15 6.6 -42.2 6.8 -42.4 7.15 Q-43.65 2.1 -47.1 -7.05 L-47.0 -9.65 -46.4 -8.4 -45.95 -7.2 -43.4 0.2 -43.95 -3.25 -45.6 -13.85 -45.7 -14.3 -46.35 -18.55 -46.45 -19.0 Q-48.0 -29.0 -48.0 -30.75 L-47.85 -33.75 -47.65 -33.75 -50.35 -42.3 -51.75 -46.6 -51.35 -46.6 -50.3 -44.75 -48.85 -41.75 -47.75 -39.0 Q-46.5 -35.65 -45.55 -31.8 L-42.75 -16.6 -42.85 -15.8 -43.25 -15.8 Q-44.05 -21.85 -46.85 -31.05 L-46.95 -31.35 -44.9 -19.3 -44.15 -15.0 -43.6 -11.25 -43.55 -11.7 -43.2 -8.6 -42.75 -5.1 -42.5 -1.65 -42.65 0.65 -41.65 4.15 -41.2 4.1 -41.15 4.6 -40.65 9.05 Q-39.95 15.7 -39.15 19.55 M-51.25 5.4 L-50.9 6.5 Q-50.1 9.2 -50.1 10.0 L-50.2 10.1 -50.5 10.25 Q-53.65 4.75 -55.55 -3.35 L-58.0 -17.0 -58.7 -21.9 -59.0 -24.7 Q-60.0 -33.3 -60.1 -42.0 L-60.15 -44.35 -59.75 -49.6 -58.9 -49.6 -58.9 -49.25 Q-58.85 -45.85 -58.2 -39.55 L-57.1 -30.45 -55.75 -20.75 -55.4 -18.3 -55.45 -19.45 -55.45 -19.85 -55.65 -23.3 Q-55.65 -27.0 -54.95 -28.95 -54.25 -30.9 -54.25 -36.6 L-54.05 -36.6 -54.6 -38.9 -54.9 -40.45 -55.15 -42.5 Q-55.15 -44.85 -54.35 -45.6 L-54.25 -45.3 -54.2 -44.95 Q-52.7 -38.15 -50.6 -22.85 L-49.5 -15.35 Q-47.95 -5.85 -46.25 0.5 L-46.75 0.6 Q-50.75 -5.45 -52.2 -13.6 -53.25 -19.3 -53.25 -28.05 -53.25 -33.0 -53.7 -35.2 L-53.6 -33.25 -53.5 -20.9 -53.6 -16.75 -53.8 -12.95 -54.05 -9.05 -53.25 -3.55 -53.05 -2.4 -52.6 1.15 Q-52.6 1.8 -52.15 2.3 -51.75 2.8 -51.75 3.4 L-51.25 5.4 M-56.8 -0.5 L-53.85 12.1 Q-55.7 7.7 -58.25 -2.3 L-61.2 -14.5 -62.65 -20.95 Q-64.75 -26.2 -66.65 -37.7 L-68.4 -50.6 Q-68.4 -51.35 -68.2 -51.4 L-68.1 -51.35 -68.0 -51.35 -66.95 -47.55 -65.8 -42.85 -64.45 -36.35 -63.8 -32.9 -59.65 -13.25 -58.75 -9.1 -56.8 -0.5 M-31.15 -35.25 L-31.0 -35.4 -30.75 -36.15 Q-30.2 -36.6 -31.05 -42.5 L-31.35 -44.4 -30.95 -42.3 -29.6 -34.8 -29.55 -32.25 -28.1 -26.1 -28.15 -26.1 -26.2 -19.1 -27.9 -21.85 -28.05 -22.35 -28.75 -24.75 -28.35 -22.65 -28.3 -22.4 -30.1 -24.8 Q-30.55 -31.55 -31.15 -35.25 M37.65 -44.2 L37.75 -44.15 38.05 -43.65 38.6 -42.75 38.5 -42.5 39.4 -40.8 39.55 -39.8 37.85 -43.25 37.65 -44.05 37.65 -44.2 M33.65 -26.05 L33.8 -24.75 32.85 -27.1 33.15 -27.1 33.65 -26.05 M34.0 -23.0 L34.1 -22.2 33.85 -22.9 34.0 -23.0 M35.1 -14.0 L35.75 -9.0 35.6 -8.85 Q34.35 -15.85 32.85 -21.1 L33.15 -21.1 Q34.1 -19.55 34.55 -16.6 L35.1 -14.0 M38.95 -38.5 L39.55 -37.45 39.8 -36.15 38.95 -38.5 M-11.3 -20.3 Q-11.1 -17.7 -10.25 -14.5 L-11.65 -16.85 -11.65 -20.4 -11.65 -20.6 -11.35 -20.6 -11.3 -20.3 M-7.7 -4.15 L-7.9 -6.45 Q-7.3 -3.95 -7.15 -2.05 L-7.7 -4.15 M-3.65 8.6 L-3.65 7.9 -3.35 7.9 -3.2 9.85 -3.65 8.6 M-3.0 14.0 L-2.9 14.7 -3.65 12.25 -3.65 11.65 -3.0 14.0 M-2.65 17.25 L-2.65 26.45 -3.0 24.4 Q-3.25 19.15 -3.6 16.0 L-3.6 15.1 -3.65 14.3 -3.65 13.9 -2.65 17.25 M-5.6 25.35 L-5.65 26.6 -6.15 26.65 -6.2 24.7 -6.25 23.95 Q-6.65 19.6 -8.05 11.8 L-8.35 16.15 -8.65 16.15 -8.65 10.6 -8.5 9.5 -8.85 7.65 -8.65 8.15 -8.15 8.1 -9.6 3.9 -10.65 -1.5 -10.95 -2.2 -9.25 0.8 Q-7.35 7.85 -7.15 12.65 L-6.85 12.65 -6.65 10.85 -6.7 9.65 -6.15 12.5 Q-4.95 18.8 -4.65 23.9 L-4.9 24.15 -5.6 20.6 -5.6 24.7 -5.6 25.35 M7.25 2.95 L5.85 -1.1 6.15 -1.1 6.6 -0.6 Q4.7 -7.5 1.85 -11.1 L2.15 -11.1 Q5.45 -6.9 7.4 -0.8 L8.1 1.65 9.0 3.3 Q8.35 1.15 8.35 0.1 L8.4 -0.65 8.6 -0.6 8.65 -0.6 12.0 5.7 Q10.5 3.0 8.65 0.9 11.05 7.25 13.6 18.4 L16.6 31.15 16.85 34.1 16.85 35.0 16.65 35.15 16.35 35.15 15.0 25.7 14.85 27.1 14.8 27.3 14.6 27.65 14.55 27.5 Q13.6 22.6 11.45 15.35 9.1 7.3 7.25 2.95 M7.05 11.0 Q5.15 3.5 1.65 -4.6 L1.35 -4.6 1.7 -3.7 0.75 -5.85 Q-1.1 -10.1 -1.1 -11.75 L-1.0 -12.6 -0.85 -12.85 -0.35 -12.85 Q0.2 -8.7 5.8 3.05 L5.85 3.15 6.0 3.4 7.4 6.3 9.05 10.55 Q10.5 13.45 11.15 17.65 13.1 24.95 13.1 29.25 L12.85 33.1 12.35 33.15 12.2 30.05 11.65 30.15 10.4 19.85 10.1 17.8 Q8.95 13.3 7.2 8.9 L7.9 11.9 7.05 11.0 M1.85 -3.2 L3.75 1.8 Q5.15 5.75 5.65 8.15 L6.5 12.2 6.05 11.25 5.4 10.4 5.2 11.2 4.85 11.9 4.8 11.95 Q6.5 19.05 9.8 25.45 9.6 21.2 8.3 16.95 L8.0 15.45 Q10.4 21.45 10.4 23.65 L10.35 26.45 10.85 27.35 10.35 27.85 9.9 27.15 9.85 27.15 9.85 27.1 Q7.0 22.4 5.3 16.9 L4.95 15.7 5.05 16.4 6.85 22.9 6.85 25.6 6.75 25.6 6.85 26.1 6.6 25.65 6.35 25.65 6.3 24.95 Q5.65 23.4 4.95 20.8 L4.85 21.4 4.6 21.65 Q4.3 18.9 3.35 15.1 L3.35 15.6 2.85 15.65 2.4 11.6 -0.25 3.6 -4.5 -9.0 -5.65 -10.9 -5.35 -11.1 -4.9 -10.3 -5.4 -11.9 -2.65 -7.1 Q1.15 -0.95 2.35 0.1 L-2.5 -8.4 Q-4.45 -11.95 -5.2 -14.9 -1.05 -8.5 1.15 -4.25 L2.05 -2.45 1.85 -3.2 M4.85 -1.1 L5.0 -0.45 5.5 1.75 Q3.35 -3.65 1.75 -9.65 3.7 -5.9 4.85 -1.1 M35.65 -21.7 L35.85 -21.25 36.95 -16.6 36.0 -19.15 35.65 -21.7 M37.9 -12.85 L38.85 -9.55 38.85 -8.0 Q39.85 -4.0 39.85 -0.55 L39.65 2.65 39.35 2.65 Q39.35 -1.8 37.6 -7.0 L36.55 -14.4 37.35 -12.75 36.65 -14.85 36.45 -15.4 36.25 -17.3 36.35 -16.95 Q37.1 -14.6 37.9 -12.85 M39.65 -7.8 L39.2 -13.5 Q41.5 -8.25 42.35 -1.1 L42.35 -0.9 41.85 -0.85 41.75 -1.85 41.35 -4.8 41.55 -1.25 41.6 -0.4 41.45 -0.8 40.65 -3.85 40.35 -3.85 39.95 -6.4 39.9 -6.5 39.65 -7.8 M-70.7 -42.65 L-70.75 -48.6 -70.4 -48.6 Q-69.5 -43.1 -68.9 -32.7 -68.3 -21.1 -67.75 -16.75 -69.9 -21.45 -70.45 -30.15 L-70.55 -32.05 -70.7 -42.65 M-42.55 -4.25 L-42.15 -3.6 -42.35 -3.4 -42.55 -4.25 M-16.8 -14.6 L-17.1 -15.35 -16.95 -15.35 -16.8 -14.6 M-16.45 -15.35 L-16.15 -15.4 -15.85 -14.85 -12.85 -9.35 -11.65 -7.05 -9.6 -0.45 Q-14.05 -9.9 -15.85 -14.6 L-15.9 -14.6 -16.0 -14.9 Q-16.15 -15.1 -16.15 -14.3 L-16.15 -14.25 -16.45 -15.35 M-16.05 -18.1 L-16.65 -19.6 -16.35 -19.6 Q-15.9 -18.0 -14.65 -15.55 L-16.05 -18.1 M-29.3 -15.25 L-29.8 -20.25 -29.35 -18.7 Q-26.8 -10.4 -23.15 -4.9 -26.7 -12.5 -29.2 -20.75 L-26.25 -13.6 -25.2 -11.1 Q-23.05 -5.65 -22.2 -2.9 -20.8 1.65 -20.25 5.6 L-20.35 5.65 -20.4 5.6 -20.35 6.7 -22.6 0.7 Q-25.0 -5.3 -27.15 -9.6 L-29.3 -15.25 M-31.95 -31.35 L-31.9 -32.2 -31.85 -30.85 -31.95 -31.35 M-27.0 -4.9 L-24.95 0.35 -23.4 4.5 -22.25 9.35 -25.65 -0.65 -27.0 -4.9 M-37.75 -21.5 L-37.75 -21.7 -36.75 -17.65 -36.05 -15.35 -35.85 -13.75 Q-34.4 -9.15 -33.35 -4.85 L-33.6 -5.25 -34.9 -9.75 -37.6 -19.35 -37.75 -21.5 M-7.35 -18.1 L-6.4 -16.7 -6.5 -16.25 -6.6 -15.5 Q-7.4 -17.05 -7.35 -18.1 M-9.05 -5.7 L-8.9 -4.8 -10.2 -7.7 -9.05 -5.7 M-11.05 2.5 L-9.7 5.7 -9.35 7.65 -11.05 2.5 M-10.7 0.9 L-11.25 -0.5 -10.95 -0.05 -10.7 0.9 M-7.55 4.7 L-7.9 3.25 -7.7 0.65 -7.4 2.25 -7.55 4.7 M-9.75 -3.05 L-10.65 -5.65 -10.65 -6.1 -10.35 -6.1 -9.75 -3.05 M-18.65 -11.6 L-18.6 -12.85 -17.65 -12.9 -17.2 -11.6 -17.65 -12.35 -18.4 -12.15 -16.5 -7.25 -18.35 -9.95 -18.65 -11.3 -18.65 -11.6 M-12.7 2.9 L-14.85 -1.9 -15.15 -2.95 Q-15.25 -4.1 -15.8 -5.35 L-15.75 -5.3 -13.05 1.8 -12.7 2.9 M-19.4 -7.65 L-19.05 -7.15 -18.65 -5.9 -19.4 -7.65 M-15.35 -1.3 L-15.95 -2.65 -15.95 -2.75 -15.45 -1.65 -15.35 -1.3 M-17.35 -0.9 L-17.0 -0.25 -15.45 6.0 -16.0 4.9 Q-16.6 1.8 -17.35 -0.9 M-12.25 6.5 L-13.55 2.25 -13.15 3.15 -12.65 3.1 -11.65 6.9 -11.9 7.15 -12.25 6.5 M-14.4 18.2 L-15.15 10.6 -15.6 7.4 -14.95 8.95 Q-14.35 12.9 -14.35 16.35 L-14.4 18.2 M-20.65 14.1 L-21.15 14.15 -21.25 10.9 -20.6 13.2 -20.65 14.1 M36.3 12.35 L36.4 12.75 36.15 11.55 36.3 12.35 M29.0 1.7 L27.8 -0.35 28.85 2.05 29.5 3.05 29.0 1.7 M26.2 2.9 L26.05 3.9 27.3 5.95 26.2 2.9 M3.3 9.25 L4.1 11.9 3.8 10.15 3.15 8.7 3.3 9.25" fill="#999999" fill-rule="evenodd" stroke="none"/>
      <path d="M31.4 -45.35 L32.25 -45.2 32.25 -44.5 33.3 -41.95 34.5 -36.6 34.65 -36.6 Q36.2 -33.15 37.15 -26.8 L37.5 -24.7 39.85 -16.4 39.35 -16.35 38.2 -20.2 38.6 -18.15 Q40.1 -13.9 41.85 -10.1 L41.6 -9.85 Q40.45 -12.25 38.6 -18.15 L38.85 -17.1 38.75 -16.95 39.0 -15.05 Q41.0 -12.15 42.2 -6.9 L42.65 -4.8 Q43.2 -1.6 43.35 1.5 L43.35 2.85 43.15 5.65 42.85 5.65 42.35 -1.1 Q41.5 -8.25 39.2 -13.5 L39.65 -7.8 39.65 -7.1 38.85 -9.55 37.9 -12.85 36.95 -16.6 35.85 -21.25 35.45 -22.95 35.65 -21.7 36.0 -19.15 36.25 -17.3 36.45 -15.4 36.55 -14.45 36.55 -14.4 37.6 -7.0 37.85 -2.85 37.85 -2.4 37.8 -2.2 38.4 3.65 38.7 4.3 40.4 8.05 41.6 10.65 42.2 11.85 44.0 15.6 44.95 17.65 45.25 18.3 47.75 23.75 49.65 28.15 47.75 25.05 Q45.0 20.25 40.65 11.15 L39.4 8.5 40.15 12.65 40.85 17.85 39.65 13.85 38.6 10.45 35.9 1.4 35.25 -0.85 34.65 -2.7 30.35 -16.6 30.65 -16.6 Q34.35 -9.05 36.75 -1.45 L35.75 -9.0 35.1 -14.0 34.85 -16.05 34.1 -22.2 34.0 -23.0 33.8 -24.75 33.65 -26.05 32.9 -32.75 32.75 -33.4 32.6 -34.15 32.35 -35.1 32.4 -35.1 32.65 -35.1 32.95 -34.1 33.1 -34.1 Q31.6 -41.4 31.6 -42.9 L31.65 -44.05 31.4 -45.35 M46.05 -42.15 L46.3 -42.15 46.4 -42.1 46.55 -41.65 46.85 -40.9 46.55 -41.4 46.3 -41.75 46.05 -42.15 M51.05 -25.25 Q54.35 -20.4 58.65 -15.35 56.7 -16.85 54.8 -18.8 51.15 -23.9 47.6 -30.75 L49.15 -28.15 51.05 -25.25 M50.8 -22.5 L49.95 -23.15 Q48.45 -24.4 46.95 -26.4 48.25 -23.2 49.4 -18.5 L49.6 -17.75 47.5 -21.45 47.5 -21.5 Q47.5 -24.15 45.45 -29.55 47.8 -25.9 50.8 -22.5 M53.65 -8.25 Q56.1 -2.4 57.35 1.9 L57.1 2.15 53.65 -6.6 51.3 -12.05 50.35 -14.1 Q51.5 -7.9 51.6 -2.9 L51.6 -2.15 51.35 4.6 51.3 4.8 51.1 5.15 Q50.65 -4.15 50.0 -10.1 L49.6 -13.4 48.6 -17.5 51.8 -12.45 53.65 -8.25 M-13.65 30.4 L-13.65 32.6 -14.15 32.65 -14.25 29.75 -14.45 27.55 -15.0 23.0 Q-15.85 16.35 -15.85 12.85 L-16.1 10.4 Q-16.55 7.95 -17.55 3.85 L-17.9 3.3 -20.2 -0.6 -18.15 5.9 -18.4 6.15 -20.2 2.05 -20.3 1.8 Q-19.7 5.3 -19.65 8.9 L-20.0 7.75 -20.25 5.6 Q-20.8 1.65 -22.2 -2.9 -23.05 -5.65 -25.2 -11.1 L-26.25 -13.6 -29.2 -20.75 Q-26.7 -12.5 -23.15 -4.9 -26.8 -10.4 -29.35 -18.7 L-29.8 -20.25 -29.3 -15.25 -30.2 -17.7 -31.65 -27.1 -31.75 -28.45 -32.05 -29.9 -32.05 -29.65 -32.35 -33.1 -32.2 -32.35 -31.9 -32.55 -31.9 -33.8 -31.85 -34.7 -31.15 -35.25 Q-30.55 -31.55 -30.1 -24.8 L-28.3 -22.4 -27.9 -21.85 -26.2 -19.1 -28.15 -26.1 -28.1 -26.1 -27.85 -26.1 -24.65 -18.45 -24.65 -18.55 -24.65 -19.1 -24.35 -19.1 Q-23.05 -17.55 -20.9 -14.1 L-20.85 -14.1 -20.75 -13.9 -19.7 -12.15 -19.35 -11.6 -18.35 -9.95 -16.5 -7.25 -18.4 -12.15 -17.65 -12.35 -17.2 -11.6 -14.55 -5.65 Q-12.1 0.2 -12.1 2.1 L-12.15 2.65 -12.65 2.85 -13.05 1.8 -15.75 -5.3 -15.8 -5.35 Q-15.25 -4.1 -15.15 -2.95 L-14.85 -1.9 -12.7 2.9 -12.65 3.1 -13.15 3.15 -13.55 2.25 -12.25 6.5 -9.3 16.15 -7.25 22.8 -6.95 23.95 -6.15 26.65 -5.1 30.6 -5.1 31.5 -5.15 32.1 -5.65 32.15 -6.2 30.3 -8.7 22.05 -8.95 21.15 -11.0 14.5 -12.85 8.35 -13.0 9.55 -13.3 10.55 Q-11.0 15.9 -9.75 20.55 L-9.6 21.05 Q-8.95 23.4 -8.65 25.6 L-9.15 25.65 Q-11.3 17.9 -14.95 8.95 L-15.6 7.4 -15.15 10.6 -14.4 18.2 -14.05 23.1 -13.7 27.9 -13.65 28.85 -13.65 30.4 M-43.0 -22.45 L-42.25 -23.3 -42.05 -21.75 -41.8 -20.3 -41.9 -18.7 -42.35 -19.55 -43.0 -22.45 M-34.3 -31.95 L-34.25 -32.0 -33.1 -24.7 -33.25 -21.25 -33.8 -23.55 -34.0 -25.85 -34.35 -30.35 -34.3 -31.95 M37.4 -44.2 L37.65 -44.2 37.65 -44.05 37.85 -43.25 37.4 -44.2 M42.85 -8.6 Q41.95 -11.5 41.05 -16.6 39.9 -22.75 39.85 -24.4 L39.55 -25.4 38.85 -28.7 40.25 -25.95 41.15 -23.15 42.15 -19.85 41.8 -20.35 42.2 -18.55 42.6 -16.0 43.35 -9.55 43.65 -6.35 43.1 -7.85 42.85 -8.6 M39.55 -39.8 L39.4 -40.8 39.55 -40.5 40.5 -38.75 41.2 -36.6 39.55 -39.8 M-15.5 -22.6 L-15.35 -22.6 -10.55 -13.45 -10.65 -14.3 Q-10.65 -15.1 -10.5 -14.9 L-10.4 -14.6 -10.35 -14.6 -9.6 -11.55 -6.15 -4.6 -6.4 -4.35 -9.15 -9.75 -7.7 -4.15 -7.15 -2.05 -6.95 -1.1 -6.85 -1.1 -5.5 3.1 -6.15 -4.1 -5.85 -4.1 -4.65 3.4 -4.65 5.65 -3.65 8.6 -3.2 9.85 -1.6 14.65 Q1.65 24.15 1.85 30.4 L1.6 30.65 -2.75 14.85 -3.0 14.0 -3.65 11.65 -4.65 8.05 -4.65 8.65 -4.55 9.0 -3.65 12.25 -2.9 14.7 -2.5 16.2 1.85 32.1 1.85 35.4 1.6 35.65 Q1.0 29.5 -2.4 18.1 L-2.65 17.25 -3.65 13.9 -3.7 13.7 -3.65 14.3 -3.6 15.1 -3.6 16.0 -3.65 16.6 -4.15 16.65 -7.4 2.25 -7.7 0.65 -8.1 -1.05 -8.5 -2.9 -10.3 -6.35 -10.65 -6.35 Q-10.85 -7.6 -12.15 -10.15 L-10.65 -5.65 -9.75 -3.05 -9.5 -2.25 -7.9 3.25 -7.55 4.7 Q-6.9 7.6 -6.7 9.65 L-6.65 10.85 -6.85 12.65 -7.15 12.65 Q-7.35 7.85 -9.25 0.8 L-10.95 -2.2 -11.0 -2.3 -12.85 -5.95 -13.05 -6.4 Q-11.7 -3.05 -10.85 0.15 L-10.95 -0.05 -11.25 -0.5 -10.7 0.9 -9.6 3.9 -8.15 8.1 -8.65 8.15 -8.85 7.65 -9.7 5.7 -11.05 2.5 -13.85 -4.4 -15.1 -7.95 -16.7 -11.6 -17.05 -12.35 -18.5 -15.35 -18.6 -15.6 -18.5 -15.5 Q-17.6 -14.9 -16.6 -13.4 L-16.8 -14.6 -16.95 -15.35 -17.15 -17.1 -16.85 -17.1 -16.45 -15.35 -16.15 -14.25 -16.15 -14.3 Q-16.15 -15.1 -16.0 -14.9 L-15.9 -14.6 -15.85 -14.6 Q-14.05 -9.9 -9.6 -0.45 L-11.65 -7.05 -13.15 -11.95 -14.1 -13.6 -15.1 -15.3 -17.15 -18.9 -17.1 -19.65 -16.9 -19.6 -16.85 -19.6 -16.05 -18.1 -14.65 -15.55 -14.55 -15.4 -13.8 -14.05 -14.5 -15.65 -16.15 -20.1 -15.85 -20.1 -14.15 -16.3 -10.2 -7.7 -8.9 -4.8 -9.05 -5.7 -10.35 -12.15 -15.6 -22.5 -15.65 -22.6 -15.5 -22.6 M-2.65 26.45 L-2.3 28.4 -2.25 28.95 -2.15 29.95 -2.15 30.6 -2.2 30.8 -2.4 31.15 -2.95 28.2 -3.05 27.6 -6.65 8.4 -6.35 8.4 -4.05 19.2 -3.0 24.4 -2.65 26.45 M38.65 -30.95 L38.4 -32.8 39.75 -30.15 40.05 -29.15 40.15 -27.85 38.65 -30.95 M39.85 -36.0 L39.85 -36.9 Q41.2 -34.55 42.8 -32.3 L43.5 -30.35 45.15 -25.65 43.95 -27.8 40.3 -34.9 39.85 -36.0 M7.25 2.95 Q9.1 7.3 11.45 15.35 13.6 22.6 14.55 27.5 15.35 31.5 15.35 33.95 L15.35 34.6 15.3 34.8 15.1 35.15 Q13.2 24.25 11.35 17.1 L9.35 10.2 10.1 11.65 10.15 11.4 9.2 9.65 Q7.2 3.65 4.85 -1.1 L5.15 -1.1 Q6.1 0.2 7.25 2.95 M16.6 31.15 L13.6 18.4 Q11.05 7.25 8.65 0.9 10.5 3.0 12.0 5.7 13.1 7.65 14.0 9.95 14.95 12.3 15.7 15.0 17.85 22.7 17.85 30.6 L17.65 32.6 Q17.45 33.9 17.6 34.6 L17.7 34.8 17.6 35.15 17.25 33.85 16.6 31.15 M15.1 7.95 L14.85 5.95 14.75 5.55 14.15 4.75 Q13.4 4.0 13.35 3.6 L13.65 3.4 14.55 4.65 Q16.6 7.75 18.4 12.6 20.65 18.6 20.65 22.5 L20.45 26.15 20.35 27.1 19.85 27.15 19.75 26.25 Q19.2 23.1 17.15 15.85 15.6 10.55 15.1 7.95 M16.2 1.85 L15.35 -0.6 15.65 -0.6 15.9 -0.25 Q17.8 2.85 19.95 8.8 L21.6 14.1 Q22.35 17.05 22.35 18.95 L22.35 19.65 22.3 19.65 22.15 19.65 21.85 19.65 16.2 1.85 M19.95 1.9 L19.85 1.6 19.9 1.6 20.15 1.4 Q21.55 5.5 24.35 17.6 L23.85 17.65 21.85 9.65 19.95 1.9 M23.75 0.7 L23.85 1.65 24.35 1.6 24.35 1.55 24.9 2.3 25.35 2.95 25.5 3.2 Q27.0 5.7 28.1 8.35 29.25 11.1 30.85 16.85 L30.85 20.9 30.6 21.15 Q29.05 18.1 26.65 10.55 24.2 2.75 22.85 -0.1 L23.15 -0.1 23.75 0.7 M32.95 -4.1 L33.15 -4.1 Q35.3 -0.45 36.7 4.9 L38.85 13.9 38.65 14.1 38.6 14.15 36.2 5.1 35.05 1.1 34.65 -0.1 34.25 -1.1 33.95 -1.9 32.85 -4.1 32.95 -4.1 M1.7 -3.7 L1.35 -4.6 1.65 -4.6 Q5.15 3.5 7.05 11.0 L8.0 15.45 8.3 16.95 8.85 20.9 Q7.85 18.95 7.0 15.0 L6.5 12.2 5.65 8.15 Q5.15 5.75 3.75 1.8 L1.85 -3.2 1.7 -3.7 M34.35 22.65 L31.6 13.95 Q28.8 5.25 24.85 -0.6 L25.15 -0.6 Q29.7 3.65 32.35 9.05 L32.3 8.8 Q30.6 1.6 27.85 -1.6 L28.15 -1.6 Q32.25 2.15 33.75 8.2 34.55 11.6 35.4 17.9 L35.25 17.7 Q36.15 22.25 36.4 28.15 L36.1 28.4 35.4 26.15 34.35 22.65 M-31.8 8.75 L-30.15 12.9 -29.9 13.5 -29.9 13.55 Q-29.6 14.9 -29.6 15.85 -29.6 17.05 -28.65 19.9 L-28.9 20.15 Q-29.65 17.75 -31.3 13.8 L-34.1 7.65 -34.2 7.45 -34.25 7.3 -34.3 7.25 -35.15 5.5 -35.55 4.7 -35.25 6.25 -32.85 20.65 Q-33.9 16.5 -36.15 4.15 L-36.35 3.0 -37.4 0.75 -37.7 -1.8 Q-33.95 5.5 -31.8 8.75 M-44.15 -15.0 L-43.4 -13.4 -43.55 -11.7 -43.6 -11.25 -44.15 -15.0 M-42.75 -5.1 L-42.55 -4.25 -42.35 -3.4 -41.65 0.2 -39.85 4.4 -39.65 4.9 -39.9 5.15 -41.35 2.1 -41.15 4.1 -41.2 4.1 -41.65 4.15 -42.65 0.65 -42.5 -1.65 -42.75 -5.1 M-45.6 -13.85 L-43.95 -3.25 -46.4 -8.4 -47.0 -9.65 -46.9 -10.85 -46.15 -9.3 -46.9 -11.2 -46.6 -16.25 -45.6 -13.85 M-41.85 -9.35 L-42.15 -10.15 -42.15 -9.4 -42.15 -6.4 -42.65 -6.35 Q-42.65 -8.05 -43.0 -11.7 L-43.1 -12.7 -41.0 -8.35 -39.45 -5.3 -39.35 -3.4 -41.85 -9.35 M-16.05 -22.0 L-16.15 -22.1 -16.0 -22.1 -15.85 -22.1 -15.2 -20.5 -16.05 -22.0 M-31.95 -31.35 L-31.85 -30.85 -31.9 -32.2 -31.95 -31.35 M-30.65 -18.05 L-30.75 -18.05 -30.95 -19.55 -30.65 -18.05 M-29.9 -13.3 L-29.45 -12.15 -29.5 -11.3 -27.0 -4.9 -25.65 -0.65 -22.25 9.35 -21.65 11.1 -21.95 11.15 -22.15 11.15 Q-27.35 -1.85 -29.5 -11.3 L-29.6 -11.75 -29.9 -13.3 M-24.25 -17.7 L-24.4 -17.95 -24.35 -17.8 -24.25 -17.7 M-32.55 -21.45 L-32.45 -20.8 -31.95 -15.75 -32.15 -16.6 -32.55 -21.45 M-37.75 -21.7 L-37.75 -21.5 -37.8 -20.1 -38.1 -21.2 -38.1 -23.5 -37.75 -21.7 M-38.05 -5.9 L-38.1 -6.0 -38.1 -6.05 -38.05 -5.9 M-19.4 -7.65 L-18.65 -5.9 -19.05 -7.15 -19.4 -7.65 M-18.7 -0.6 L-19.15 -2.4 -19.55 -2.9 -19.05 -1.3 -18.7 -0.6 M-16.05 -1.3 L-14.3 3.15 -14.85 1.05 -16.65 -2.75 -16.05 -1.3 M-15.35 -1.3 L-15.45 -1.65 -15.95 -2.75 -15.95 -2.65 -15.35 -1.3 M-17.35 -0.9 Q-16.6 1.8 -16.0 4.9 L-15.45 6.0 -17.0 -0.25 -17.35 -0.9" fill="#cccccc" fill-rule="evenodd" stroke="none"/>
      <path d="M29.35 -45.85 L31.4 -45.35 31.65 -44.05 31.6 -42.9 Q31.6 -41.4 33.1 -34.1 L32.95 -34.1 32.65 -35.1 32.4 -35.1 Q30.8 -39.1 29.35 -45.85 M33.85 -44.85 L34.05 -44.8 34.2 -44.3 34.6 -42.55 33.85 -44.85 M34.2 -44.75 Q33.1 -49.7 33.05 -54.6 L33.3 -54.65 33.25 -55.1 33.55 -55.1 34.0 -53.4 34.25 -52.55 34.25 -53.35 Q34.35 -48.85 35.8 -43.5 38.2 -33.4 43.75 -23.8 L44.25 -24.0 Q42.45 -26.95 40.9 -30.45 42.4 -27.7 44.1 -25.3 L44.1 -25.75 Q36.9 -38.95 34.55 -54.6 L34.3 -54.6 Q34.35 -56.2 34.55 -57.35 L35.25 -57.35 Q35.15 -52.65 37.9 -46.65 L38.6 -45.3 37.95 -49.3 Q36.6 -51.9 36.6 -52.6 36.6 -53.85 36.75 -54.6 L37.1 -54.6 Q37.45 -53.25 38.1 -51.6 L38.3 -51.1 38.6 -50.45 38.9 -49.7 39.85 -47.8 39.1 -48.35 39.0 -48.25 Q38.85 -48.65 38.85 -47.4 38.85 -45.65 43.0 -36.95 45.1 -32.5 47.5 -27.8 L47.75 -28.05 47.35 -29.4 48.1 -28.3 46.85 -32.25 47.6 -30.75 Q51.15 -23.9 54.8 -18.8 L55.75 -17.5 50.8 -22.5 Q47.8 -25.9 45.45 -29.55 47.5 -24.15 47.5 -21.5 L47.5 -21.45 49.6 -17.75 49.4 -18.5 49.7 -17.6 50.0 -17.25 50.1 -16.85 53.55 -10.75 54.25 -9.55 54.1 -9.25 53.6 -9.9 51.8 -12.45 48.6 -17.5 49.6 -13.4 50.0 -10.1 48.4 -15.9 47.75 -15.6 46.25 -19.8 44.85 -22.2 45.15 -19.0 43.6 -21.55 42.6 -25.5 40.75 -28.4 43.15 -22.3 40.95 -26.3 40.05 -29.15 39.75 -30.15 38.4 -32.8 38.65 -30.95 Q36.7 -35.05 35.15 -39.15 36.05 -37.35 37.0 -36.05 35.2 -40.4 34.2 -44.75 M40.4 -51.6 L40.35 -52.3 Q40.35 -53.9 41.1 -54.1 L44.35 -44.65 45.2 -42.25 46.05 -42.15 46.3 -41.75 46.15 -39.75 46.3 -39.45 46.55 -41.4 46.85 -40.9 46.55 -41.65 46.6 -42.0 47.9 -41.35 47.5 -36.65 48.25 -35.0 47.75 -34.8 47.4 -35.1 47.4 -34.8 48.75 -32.5 48.25 -32.3 48.0 -32.65 49.35 -29.25 51.05 -25.25 49.15 -28.15 Q47.35 -31.75 46.65 -34.7 L45.85 -35.95 45.8 -35.5 40.6 -51.6 40.4 -51.6 M52.75 -6.95 L52.25 -0.6 52.0 -0.35 51.6 -2.9 Q51.5 -7.9 50.35 -14.1 L51.3 -12.05 52.4 -8.0 52.35 -7.35 52.6 -7.35 52.75 -6.95 M45.2 -18.3 L45.3 -16.45 Q49.25 -5.5 49.25 -2.1 L49.1 0.1 48.75 0.1 45.6 -10.8 42.0 -22.9 Q43.5 -20.4 45.2 -18.3 M45.65 -9.55 L45.75 -3.4 45.5 -2.35 45.25 -1.9 45.15 -1.9 45.1 -0.7 Q49.35 7.5 54.15 13.15 50.9 10.2 45.05 0.5 L44.95 2.6 Q45.9 7.2 45.9 11.85 45.9 13.8 45.25 16.4 L44.95 17.65 44.0 15.6 44.15 11.7 44.1 9.2 43.65 11.15 43.25 11.15 43.3 10.1 43.25 10.1 43.2 10.3 43.0 10.65 41.65 6.0 41.65 8.35 41.6 10.65 40.4 8.05 Q40.4 5.25 40.05 3.05 L39.5 4.35 Q38.9 3.5 38.8 2.15 L38.7 4.3 38.4 3.65 37.8 -2.2 37.85 -2.4 37.85 -2.85 37.6 -7.0 Q39.35 -1.8 39.35 2.65 L39.65 2.65 39.85 -0.55 Q39.85 -4.0 38.85 -8.0 L38.85 -9.55 39.65 -7.1 39.65 -7.8 39.9 -6.5 39.9 -6.2 39.95 -6.4 40.35 -3.85 40.65 -3.85 41.45 -0.8 41.1 0.3 41.35 1.2 Q43.15 6.8 43.4 8.5 L43.6 3.25 43.35 1.5 Q43.2 -1.6 42.65 -4.8 L42.75 -5.75 43.85 -3.2 43.9 -5.9 43.9 -6.5 43.4 -10.0 43.35 -9.55 42.6 -16.0 42.2 -18.55 44.85 -6.85 45.15 -6.85 45.5 -8.25 45.65 -9.55 M45.25 18.3 Q47.3 21.0 49.65 23.4 L49.5 23.65 47.4 22.1 47.75 23.75 45.25 18.3 M47.75 25.05 Q47.65 28.35 47.15 32.15 L46.75 32.15 Q46.7 27.6 44.75 23.55 43.45 20.95 41.05 17.95 L40.1 24.0 Q40.0 21.6 39.5 18.6 L39.8 16.45 38.95 15.5 38.65 14.1 38.85 13.9 36.7 4.9 Q35.3 -0.45 33.15 -4.1 L32.95 -4.1 Q30.75 -8.55 28.6 -9.15 L28.35 -8.9 Q32.45 -1.8 35.05 7.4 L35.4 9.65 35.2 9.1 Q31.85 -0.5 27.15 -3.8 L28.15 -11.1 27.7 -9.7 28.15 -14.35 27.65 -21.1 27.35 -21.1 26.85 -17.3 26.85 -15.55 Q26.85 -12.0 25.85 -6.85 L24.35 1.55 24.35 1.6 23.85 1.65 23.75 0.7 23.65 0.15 23.4 -1.55 24.25 -8.75 24.75 -13.65 22.85 -4.9 22.9 -9.3 22.65 -13.1 22.35 -13.1 21.4 0.1 21.05 -0.05 20.15 -1.6 19.85 -1.6 19.75 -1.35 19.65 -0.55 19.9 1.6 19.85 1.6 19.95 1.9 20.65 6.0 20.45 7.0 19.0 1.35 Q19.35 -1.7 19.35 -4.9 L19.35 -5.8 19.15 -6.1 18.85 -6.1 18.3 -0.65 16.15 -5.65 Q15.35 -5.65 15.35 -4.15 15.35 -3.05 15.9 -0.25 L15.65 -0.6 15.35 -0.6 16.2 1.85 Q14.8 -0.65 13.1 -2.65 L13.1 -2.6 13.0 -3.0 Q12.85 -3.3 12.85 -2.5 L14.55 4.65 13.65 3.4 13.35 3.6 Q13.4 4.0 14.15 4.75 L14.75 5.55 14.85 5.95 15.1 7.95 10.15 -1.1 9.85 -1.1 Q11.95 3.2 14.6 11.25 L14.0 9.95 Q13.1 7.65 12.0 5.7 L8.65 -0.6 8.6 -0.6 8.4 -0.65 8.35 0.1 Q8.35 1.15 9.0 3.3 L8.1 1.65 7.4 -0.8 Q5.45 -6.9 2.15 -11.1 L1.85 -11.1 Q4.7 -7.5 6.6 -0.6 L6.15 -1.1 5.85 -1.1 7.25 2.95 Q6.1 0.2 5.15 -1.1 L4.85 -1.1 Q3.7 -5.9 1.75 -9.65 3.35 -3.65 5.5 1.75 L5.0 -0.45 4.85 -1.1 Q7.2 3.65 9.2 9.65 L10.15 11.4 10.1 11.65 9.35 10.2 11.35 17.1 Q13.2 24.25 15.1 35.15 L15.3 34.8 15.35 34.6 15.35 33.95 Q15.35 31.5 14.55 27.5 L14.6 27.65 14.8 27.3 14.85 27.1 15.0 25.7 16.35 35.15 16.65 35.15 16.85 35.0 16.85 34.1 16.6 31.15 17.25 33.85 17.45 34.95 17.25 37.65 Q16.85 40.5 15.75 42.65 L15.15 42.65 14.75 42.35 14.75 37.1 13.0 36.7 13.0 38.2 12.75 40.95 12.4 44.4 12.0 44.85 10.75 44.9 10.8 40.05 9.95 40.1 9.35 40.1 9.0 42.9 Q8.9 43.35 8.25 43.4 L8.3 40.0 5.35 39.25 5.35 36.15 3.7 21.55 Q3.0 16.95 2.0 12.95 1.5 10.5 0.4 7.6 L0.15 6.9 0.1 6.75 0.0 6.6 -1.55 3.1 Q-6.2 -5.9 -7.85 -10.1 L-8.15 -10.1 Q-6.6 -5.8 -1.85 3.6 L-0.1 7.75 Q-0.05 9.5 0.45 12.8 L-1.65 6.5 Q-4.0 -0.1 -4.35 -0.6 L-4.65 -0.6 Q-2.15 5.0 0.6 16.15 L0.8 15.8 0.85 15.65 2.25 23.6 3.2 28.75 Q2.85 28.5 2.5 28.4 L2.45 28.75 3.35 29.55 Q4.8 37.55 4.85 39.65 L5.25 39.65 4.65 42.15 3.9 42.15 3.7 38.5 2.65 37.95 2.15 41.65 1.75 41.65 1.4 37.2 -0.4 35.95 -0.45 36.9 Q-0.65 39.15 -1.4 40.6 L-1.0 41.1 Q2.9 46.0 2.9 49.4 L2.85 50.6 2.35 50.65 Q1.6 45.9 -4.2 39.6 L-13.65 30.4 -13.65 28.85 -13.7 27.9 -9.55 32.1 -2.05 39.9 -1.6 34.95 -5.1 31.5 -5.1 30.6 -6.15 26.65 -5.65 26.6 -5.6 25.35 -2.95 28.2 -2.4 31.15 -2.2 30.8 -2.15 30.6 -2.15 29.95 -2.25 28.95 -1.7 29.5 -1.75 29.05 -2.3 28.4 -2.65 26.45 -2.65 17.25 -2.4 18.1 Q1.0 29.5 1.6 35.65 L1.85 35.4 1.85 32.1 -2.5 16.2 -2.9 14.7 -3.0 14.0 -2.75 14.85 1.6 30.65 1.85 30.4 Q1.65 24.15 -1.6 14.65 L-3.2 9.85 -3.35 7.9 -3.65 7.9 -3.65 8.6 -4.65 5.65 -4.65 3.4 -5.85 -4.1 -6.15 -4.1 -5.5 3.1 -6.85 -1.1 -6.95 -1.1 -7.15 -2.05 Q-7.3 -3.95 -7.9 -6.45 L-7.7 -4.15 -9.15 -9.75 -6.4 -4.35 -6.15 -4.6 -9.6 -11.55 -10.35 -14.6 -10.4 -14.6 -10.5 -14.9 Q-10.65 -15.1 -10.65 -14.3 L-10.55 -13.45 -15.35 -22.6 -15.5 -22.6 -15.4 -22.65 -13.05 -20.75 Q-12.55 -20.4 -11.65 -20.4 L-11.65 -16.85 -10.25 -14.5 Q-11.1 -17.7 -11.3 -20.3 L0.9 -16.85 5.65 -16.95 6.65 -17.0 6.85 -17.05 8.75 -17.5 12.35 -18.4 14.35 -18.9 14.85 -19.05 16.55 -19.55 20.0 -20.9 Q23.9 -22.85 25.75 -23.6 L27.0 -26.1 Q27.7 -28.55 28.15 -29.35 L28.55 -29.35 29.35 -29.4 Q29.6 -27.85 29.15 -23.9 L29.15 -23.85 Q29.7 -23.35 29.75 -22.15 L29.85 -22.05 Q30.25 -21.6 30.7 -21.6 31.4 -21.6 31.7 -21.85 L32.1 -22.1 32.4 -23.4 32.65 -25.1 32.75 -33.4 32.9 -32.75 33.65 -26.05 33.15 -27.1 32.85 -27.1 33.8 -24.75 34.0 -23.0 33.85 -22.9 34.1 -22.2 34.85 -16.05 35.1 -14.0 34.55 -16.6 Q34.1 -19.55 33.15 -21.1 L32.85 -21.1 Q34.35 -15.85 35.6 -8.85 L35.75 -9.0 36.75 -1.45 Q34.35 -9.05 30.65 -16.6 L30.35 -16.6 34.65 -2.7 35.25 -0.85 35.9 1.4 38.6 10.45 38.55 12.5 39.65 13.85 40.85 17.85 40.15 12.65 39.4 8.5 40.65 11.15 Q45.0 20.25 47.75 25.05 M38.35 31.0 L39.25 32.4 39.0 32.65 38.3 31.65 38.35 31.0 M37.65 35.85 L37.9 36.65 38.75 39.45 38.75 40.15 38.65 40.15 38.25 40.15 37.5 36.35 37.65 35.85 M36.0 30.7 Q35.55 32.55 34.5 34.15 L34.15 30.2 34.15 31.65 Q34.15 33.85 33.7 35.65 33.05 38.2 32.75 40.65 L32.25 40.85 Q31.65 39.2 31.65 37.95 L31.7 35.35 31.5 37.85 31.0 38.1 30.4 34.35 Q30.05 38.4 28.65 39.4 L28.35 38.25 28.0 38.4 Q27.35 37.7 26.9 36.6 L26.25 27.7 26.9 27.35 27.1 26.85 27.1 25.95 Q27.1 22.0 25.0 13.0 L26.6 17.35 27.7 21.2 Q28.35 29.3 28.35 33.65 L28.85 33.6 28.85 26.85 28.6 24.8 Q29.85 30.5 29.85 34.15 L30.85 34.15 31.05 33.65 31.15 33.65 31.65 31.2 31.65 31.05 31.9 29.75 32.15 27.6 32.1 26.25 32.15 25.85 32.6 25.4 32.75 24.55 32.85 23.75 33.35 34.35 33.65 34.35 34.2 27.45 34.35 22.65 35.4 26.15 35.5 26.9 36.0 30.7 M25.2 38.8 L25.15 38.85 Q24.7 38.1 24.35 36.35 L24.25 36.4 23.15 39.45 23.4 33.35 Q23.4 29.65 22.6 24.9 L22.9 24.65 22.3 19.65 22.35 19.65 22.35 18.95 Q22.35 17.05 21.6 14.1 L21.05 10.35 21.35 9.75 21.55 11.0 Q23.15 19.6 24.7 24.55 L24.85 28.7 25.1 37.1 25.2 38.8 M22.35 41.7 L21.1 45.65 20.5 45.9 19.85 46.15 Q20.35 42.7 21.6 38.35 L21.5 38.35 20.65 38.25 20.15 39.65 19.65 38.8 Q19.55 34.4 18.25 27.0 18.85 25.9 18.85 24.7 L18.85 24.25 19.65 26.35 19.75 26.25 19.85 27.15 20.35 27.1 20.45 26.15 20.6 26.15 Q22.25 34.85 22.35 41.7 M18.15 38.6 L17.9 39.6 17.25 39.65 17.6 35.7 18.15 38.6 M-14.25 29.75 L-14.6 29.45 -14.45 27.55 -14.25 29.75 M-16.45 27.4 Q-19.05 24.3 -20.75 19.85 L-20.9 20.0 -21.3 20.25 Q-18.6 30.45 -18.6 35.35 L-18.85 37.6 -19.25 37.6 Q-20.2 30.4 -22.75 20.35 L-23.3 20.3 -25.3 11.0 -28.2 1.1 -27.75 1.0 -28.0 0.0 -26.45 3.25 -25.0 7.6 -24.05 10.65 -21.7 18.6 -21.65 18.6 -21.6 15.35 Q-21.6 13.5 -21.95 11.15 L-21.65 11.1 -22.25 9.35 -23.4 4.5 -24.95 0.35 -27.0 -4.9 -29.5 -11.3 -29.45 -12.15 -29.9 -13.3 -30.3 -14.35 -30.65 -16.5 -30.8 -17.6 -30.75 -18.05 -30.65 -18.05 -30.0 -14.3 -29.75 -14.55 -30.2 -17.7 -29.3 -15.25 -27.15 -9.6 Q-25.0 -5.3 -22.6 0.7 L-20.35 6.7 -20.4 5.6 -20.35 5.65 -20.25 5.6 -20.0 7.75 -19.65 8.9 Q-19.7 5.3 -20.3 1.8 L-20.2 2.05 -18.65 12.35 -17.55 19.5 -17.7 19.35 -18.6 18.35 -18.75 19.5 -19.25 19.6 -19.7 16.95 -20.5 15.65 -20.8 17.15 Q-20.4 19.8 -17.75 23.25 L-16.85 24.35 -16.45 27.4 M-24.8 20.3 L-24.9 20.3 Q-25.95 14.2 -29.7 5.7 L-28.75 7.25 -29.9 5.25 -30.15 4.75 -30.1 0.7 -30.1 -2.4 -29.6 -0.2 -24.8 20.3 M-26.4 19.9 Q-27.85 19.35 -28.95 18.2 L-29.1 17.1 Q-29.1 16.05 -29.9 13.55 -28.1 17.95 -26.4 19.9 M-28.85 18.75 L-26.65 20.6 -28.65 19.5 -28.85 18.75 M-28.5 20.1 Q-24.6 27.95 -20.35 32.4 L-20.4 32.65 Q-23.2 31.15 -25.95 28.05 -28.65 23.45 -30.2 18.3 L-31.3 13.8 Q-29.65 17.75 -28.9 20.15 L-28.65 21.15 -28.15 21.1 -28.5 20.1 M-26.1 30.1 Q-31.05 26.25 -33.55 20.8 L-35.25 15.3 -32.6 31.0 -33.0 31.25 Q-35.8 22.15 -37.5 11.8 L-40.75 7.75 -40.55 8.6 Q-38.7 17.0 -37.85 19.65 L-39.2 18.5 Q-37.75 20.85 -36.15 22.6 L-39.15 19.55 Q-39.95 15.7 -40.65 9.05 L-41.15 4.6 -40.95 4.9 -37.9 9.2 -38.15 7.55 -38.15 7.3 -39.85 4.4 -41.65 0.2 -42.35 -3.4 -42.15 -3.6 -42.55 -4.25 -42.75 -5.1 -43.2 -8.6 -43.55 -11.7 -43.4 -13.4 -44.15 -15.0 -44.9 -19.3 -46.95 -31.35 -46.85 -31.05 Q-44.05 -21.85 -43.25 -15.8 L-42.85 -15.8 -42.75 -16.6 -45.55 -31.8 Q-46.5 -35.65 -47.75 -39.0 -47.4 -39.9 -46.85 -40.25 L-43.05 -22.55 -43.0 -22.45 -42.35 -19.55 -42.75 -19.55 -39.15 -9.15 Q-36.85 -2.4 -35.0 1.0 L-31.8 8.75 Q-33.95 5.5 -37.7 -1.8 L-37.4 0.75 -36.35 3.0 -36.15 4.15 Q-33.9 16.5 -32.85 20.65 L-35.25 6.25 Q-33.9 11.15 -33.15 15.15 L-32.95 15.15 Q-32.15 18.25 -30.8 21.6 -28.75 26.6 -26.1 30.1 M-39.9 18.6 L-42.1 15.05 Q-44.1 11.2 -44.55 7.55 L-45.85 4.4 -45.6 7.0 -45.6 7.9 -45.75 8.1 -46.25 8.25 -46.75 5.85 Q-46.6 6.75 -46.6 7.7 L-46.6 7.95 Q-44.35 12.0 -42.65 17.1 L-43.15 17.15 Q-43.85 14.1 -46.6 10.45 L-46.65 12.4 -46.9 12.65 Q-46.75 11.4 -46.85 10.15 L-48.65 8.0 -49.05 7.6 Q-48.35 10.2 -48.35 11.1 L-49.75 6.9 -51.25 5.4 -51.75 3.4 Q-51.75 2.8 -52.15 2.3 -52.6 1.8 -52.6 1.15 L-53.05 -2.4 -52.15 0.2 -51.8 0.6 -53.0 -3.25 -53.25 -3.55 -54.05 -9.05 -53.8 -12.95 Q-52.0 -5.5 -51.6 -2.65 L-51.35 -2.25 -48.1 2.3 Q-47.4 3.45 -47.05 4.7 -47.8 1.6 -48.9 -1.6 L-49.25 -2.85 Q-50.55 -5.15 -51.35 -7.65 L-52.65 -9.3 -52.55 -9.5 -52.05 -10.55 -52.3 -11.95 -53.6 -16.75 -53.5 -20.9 -53.6 -33.25 -53.7 -35.2 Q-53.25 -33.0 -53.25 -28.05 -53.25 -19.3 -52.2 -13.6 -50.75 -5.45 -46.75 0.6 L-46.25 0.5 Q-47.95 -5.85 -49.5 -15.35 L-48.75 -26.3 -49.1 -28.4 -48.9 -30.2 -48.8 -30.85 -50.35 -42.3 -47.65 -33.75 -47.85 -33.75 -48.0 -30.75 Q-48.0 -29.0 -46.45 -19.0 L-46.45 -18.45 -46.35 -18.55 -45.7 -14.3 -45.6 -13.85 -46.6 -16.25 -46.9 -11.2 -46.15 -9.3 -46.9 -10.85 -47.0 -9.65 -47.1 -7.05 Q-43.65 2.1 -42.4 7.15 L-42.2 6.8 -42.15 6.6 -42.15 6.15 Q-42.15 4.95 -42.75 2.65 L-42.65 1.3 -41.5 9.65 -39.9 18.6 M-50.2 10.1 L-47.85 16.1 -48.25 16.5 Q-53.3 12.4 -56.2 1.55 L-56.65 -0.35 -56.8 -0.5 -58.75 -9.1 -58.05 -7.7 Q-58.45 -11.1 -58.5 -14.4 L-58.95 -15.7 -59.8 -14.65 -59.65 -13.25 -63.8 -32.9 -64.45 -36.35 -64.75 -40.6 -64.4 -40.6 -63.7 -36.35 Q-62.85 -33.85 -61.75 -27.8 L-61.75 -28.05 -60.6 -38.1 -60.1 -42.0 Q-60.0 -33.3 -59.0 -24.7 L-59.4 -26.5 Q-59.35 -24.1 -58.9 -21.35 L-58.7 -21.9 -58.0 -17.0 -55.55 -3.35 Q-53.65 4.75 -50.5 10.25 L-50.2 10.1 M-58.25 -2.3 L-58.9 -3.3 -58.9 -2.9 -58.5 -0.85 Q-58.15 0.55 -58.15 1.15 L-58.1 1.6 -57.9 1.05 -57.45 2.75 -56.35 6.65 -57.65 4.8 -57.25 8.1 -57.25 8.5 -57.3 8.7 -57.5 9.1 Q-60.7 1.9 -61.9 -9.55 -64.0 -14.65 -65.2 -19.35 L-65.9 -15.65 -67.75 -5.0 -68.25 -4.8 -68.55 -7.15 -68.75 -9.3 -67.2 -19.2 -66.0 -28.05 Q-69.1 -40.95 -69.25 -55.5 L-68.9 -55.6 -68.1 -51.35 -68.2 -51.4 Q-68.4 -51.35 -68.4 -50.6 L-66.65 -37.7 Q-64.75 -26.2 -62.65 -20.95 L-61.2 -14.5 -58.25 -2.3 M-66.95 -47.55 L-67.25 -49.6 -66.9 -49.6 Q-66.4 -48.1 -65.8 -42.85 L-66.95 -47.55 M-58.9 -49.25 L-58.35 -43.9 -58.15 -39.85 -58.2 -39.55 Q-58.85 -45.85 -58.9 -49.25 M-57.1 -30.45 L-56.1 -32.55 -54.9 -40.45 -54.6 -38.9 -54.05 -36.6 -54.25 -36.6 Q-54.25 -30.9 -54.95 -28.95 -55.65 -27.0 -55.65 -23.3 L-55.45 -19.85 -55.45 -19.55 -55.45 -19.45 -55.4 -18.3 -55.75 -20.75 -57.1 -30.45 M-54.25 -45.3 L-54.25 -45.6 -54.2 -44.95 -54.25 -45.3 M-50.3 -44.75 L-49.85 -44.75 -48.85 -41.75 -50.3 -44.75 M-42.25 -23.3 Q-43.0 -30.05 -43.5 -44.85 L-43.35 -45.75 -42.85 -45.75 -42.75 -45.3 -42.75 -45.05 Q-42.75 -42.8 -40.5 -29.25 -38.25 -15.6 -37.25 -11.8 L-36.85 -11.8 -36.75 -12.45 -36.35 -10.15 -35.9 -9.3 -34.1 -3.45 -41.35 -17.65 -41.8 -20.3 -42.05 -21.75 -42.25 -23.3 M-40.35 -33.6 L-39.55 -29.1 -39.25 -37.6 -38.85 -37.6 -38.8 -37.45 -38.35 -42.0 -37.8 -39.85 -38.0 -39.85 -38.1 -38.05 Q-38.1 -31.9 -34.15 -17.05 L-30.3 -4.0 -30.5 -3.8 -31.8 -5.65 -30.85 -3.7 -30.7 3.55 -32.1 0.6 -32.5 -0.25 -35.35 -9.55 -37.75 -18.45 -37.0 -13.7 Q-38.2 -19.5 -39.65 -29.0 L-40.35 -33.6 M-34.25 -32.0 L-34.6 -36.05 -34.25 -39.7 -33.75 -42.55 -33.85 -39.75 Q-33.85 -36.05 -33.05 -30.9 L-32.45 -20.8 -32.55 -21.45 -33.1 -24.7 -34.25 -32.0 M-33.65 -43.1 L-33.35 -44.25 Q-32.9 -41.65 -32.65 -36.4 L-32.85 -38.6 -33.05 -38.6 -33.35 -43.1 -33.65 -43.1 M37.75 -44.15 L36.2 -47.05 37.4 -44.2 37.85 -43.25 39.55 -39.8 41.2 -36.6 40.5 -38.75 39.55 -40.5 39.4 -40.8 38.5 -42.5 38.6 -42.75 38.05 -43.65 37.75 -44.15 M33.3 -41.95 L36.1 -35.1 35.85 -35.1 Q38.45 -28.4 39.75 -17.9 L40.05 -15.45 39.85 -16.4 37.5 -24.7 37.15 -26.8 Q36.2 -33.15 34.65 -36.6 L34.5 -36.6 33.3 -41.95 M42.8 -6.35 L42.85 -7.55 42.85 -8.6 43.1 -7.85 42.8 -6.35 M39.55 -25.4 L39.8 -24.15 36.45 -34.25 37.85 -30.9 38.85 -28.7 39.55 -25.4 M38.95 -38.5 L39.8 -36.15 39.55 -37.45 38.95 -38.5 M39.85 -36.0 L40.3 -34.9 43.95 -27.8 45.15 -25.65 43.5 -30.35 42.8 -32.3 Q41.2 -34.55 39.85 -36.9 L39.85 -36.0 M1.7 -3.7 L1.85 -3.2 2.05 -2.45 1.15 -4.25 Q-1.05 -8.5 -5.2 -14.9 -4.45 -11.95 -2.5 -8.4 L2.35 0.1 Q1.15 -0.95 -2.65 -7.1 L-5.4 -11.9 -4.9 -10.3 -5.35 -11.1 -5.65 -10.9 -4.5 -9.0 -0.25 3.6 2.4 11.6 2.85 15.65 3.35 15.6 3.35 15.1 Q4.3 18.9 4.6 21.65 L4.85 21.4 4.95 20.8 Q5.65 23.4 6.3 24.95 L6.35 25.65 6.6 25.65 6.85 26.1 6.75 25.6 6.85 25.6 6.85 22.9 5.05 16.4 4.95 15.7 5.3 16.9 Q7.0 22.4 9.85 27.1 L9.85 27.15 9.9 27.15 10.35 27.85 10.85 27.35 10.35 26.45 10.4 23.65 Q10.4 21.45 8.0 15.45 L7.05 11.0 7.9 11.9 7.2 8.9 Q8.95 13.3 10.1 17.8 L10.4 19.85 11.65 30.15 12.2 30.05 12.35 33.15 12.85 33.1 13.1 29.25 Q13.1 24.95 11.15 17.65 10.5 13.45 9.05 10.55 L7.4 6.3 6.0 3.4 5.85 3.15 5.8 3.05 Q0.2 -8.7 -0.35 -12.85 L-0.85 -12.85 -1.0 -12.6 -1.1 -11.75 Q-1.1 -10.1 0.75 -5.85 L1.7 -3.7 M6.5 12.2 L7.0 15.0 Q7.85 18.95 8.85 20.9 L8.3 16.95 Q9.6 21.2 9.8 25.45 6.5 19.05 4.8 11.95 L4.85 11.9 5.2 11.2 5.4 10.4 6.05 11.25 6.5 12.2 M35.65 -21.7 L35.45 -22.95 35.85 -21.25 35.65 -21.7 M36.95 -16.6 L37.9 -12.85 Q37.1 -14.6 36.35 -16.95 L36.25 -17.3 36.0 -19.15 36.95 -16.6 M36.45 -15.4 L36.65 -14.85 37.35 -12.75 36.55 -14.4 36.55 -14.45 36.45 -15.4 M25.5 3.2 L25.35 2.95 24.9 2.3 25.4 0.5 25.7 1.4 25.5 3.2 M41.55 -1.25 L41.35 -4.8 41.75 -1.85 41.55 -1.25 M-70.45 -30.15 L-71.45 -20.65 -72.75 -7.55 -73.0 -7.3 Q-73.5 -8.55 -73.5 -11.15 -73.5 -15.6 -72.5 -32.2 -71.75 -45.35 -72.4 -53.75 L-71.9 -53.75 Q-71.5 -52.2 -70.85 -44.25 L-70.7 -42.65 -70.55 -32.05 -70.45 -30.15 M-60.0 -30.25 L-61.3 -24.9 -60.85 -22.05 -60.25 -17.85 -59.9 -18.7 Q-60.75 -21.65 -60.75 -22.9 L-60.6 -26.2 Q-60.35 -27.35 -59.7 -28.15 L-60.0 -30.25 M-64.6 -22.85 L-64.7 -22.25 -64.1 -21.15 -64.6 -22.85 M-43.95 -3.25 L-43.4 0.2 -45.95 -7.2 -46.4 -8.4 -43.95 -3.25 M-41.85 -9.35 L-39.35 -3.4 -39.45 -5.3 -41.0 -8.35 -43.1 -12.7 -43.0 -11.7 Q-42.65 -8.05 -42.65 -6.35 L-42.15 -6.4 -42.15 -9.4 -42.15 -10.15 -41.85 -9.35 M-15.85 -14.85 L-15.4 -15.2 -15.1 -15.3 -14.1 -13.6 -13.15 -11.95 -11.65 -7.05 -12.85 -9.35 -15.85 -14.85 M-14.65 -15.55 L-14.5 -15.65 -13.8 -14.05 -14.55 -15.4 -14.65 -15.55 M-14.15 -16.3 Q-14.25 -17.25 -14.9 -18.8 L-16.15 -21.65 -16.05 -22.0 -15.2 -20.5 -15.85 -22.1 -16.0 -22.1 -15.95 -22.2 -15.6 -22.5 -10.35 -12.15 -9.05 -5.7 -10.2 -7.7 -14.15 -16.3 M-17.9 3.3 L-17.55 3.85 Q-16.55 7.95 -16.1 10.4 L-16.15 10.4 -16.15 11.2 -17.15 7.15 -17.15 7.1 -17.1 5.9 -17.9 3.3 M-27.9 -21.85 L-28.3 -22.4 -28.35 -22.65 -28.05 -22.35 -27.9 -21.85 M-37.75 -21.5 L-37.6 -19.35 -34.9 -9.75 -33.6 -5.25 -33.35 -4.85 Q-34.4 -9.15 -35.85 -13.75 L-36.05 -15.35 -36.75 -17.65 -37.75 -21.7 -38.1 -23.5 -38.1 -21.2 -37.8 -20.1 -37.75 -21.5 M-38.05 -5.9 L-38.1 -6.05 -38.1 -6.0 -38.05 -5.9 M-7.35 -18.1 Q-7.4 -17.05 -6.6 -15.5 L-6.5 -16.25 -6.4 -16.7 -7.35 -18.1 M-16.7 -11.6 L-15.1 -7.95 -13.85 -4.4 -11.05 2.5 -9.35 7.65 -9.7 5.7 -8.85 7.65 -8.5 9.5 -8.65 10.6 -8.65 16.15 -8.35 16.15 -8.05 11.8 Q-6.65 19.6 -6.25 23.95 L-7.25 22.8 -9.3 16.15 -12.25 6.5 -11.9 7.15 -11.65 6.9 -12.65 3.1 -12.7 2.9 -13.05 1.8 -12.65 2.85 -12.15 2.65 -12.1 2.1 Q-12.1 0.2 -14.55 -5.65 L-17.2 -11.6 -16.7 -11.6 M-9.6 3.9 L-10.7 0.9 -10.95 -0.05 -10.85 0.15 Q-11.7 -3.05 -13.05 -6.4 L-12.85 -5.95 -11.0 -2.3 -10.95 -2.2 -10.65 -1.5 -9.6 3.9 M-6.7 9.65 Q-6.9 7.6 -7.55 4.7 L-7.4 2.25 -4.15 16.65 -3.65 16.6 -3.6 16.0 Q-3.25 19.15 -3.0 24.4 L-4.05 19.2 -6.35 8.4 -6.65 8.4 -3.05 27.6 -5.6 24.7 -5.6 20.6 -4.9 24.15 -4.65 23.9 Q-4.95 18.8 -6.15 12.5 L-6.7 9.65 M-7.9 3.25 L-9.5 -2.25 -9.75 -3.05 -10.35 -6.1 -10.65 -6.1 -10.65 -5.65 -12.15 -10.15 Q-10.85 -7.6 -10.65 -6.35 L-10.3 -6.35 -8.5 -2.9 -8.1 -1.05 -7.7 0.65 -7.9 3.25 M-3.65 14.3 L-3.7 13.7 -3.65 13.9 -3.65 14.3 M-18.65 -11.6 L-18.65 -11.3 -18.35 -9.95 -19.35 -11.6 -18.65 -11.6 M-16.05 -1.3 L-16.65 -2.75 -14.85 1.05 -14.3 3.15 -16.05 -1.3 M-18.7 -0.6 L-19.05 -1.3 -19.55 -2.9 -19.15 -2.4 -18.7 -0.6 M-6.2 24.7 L-6.15 26.65 -6.95 23.95 -6.2 24.7 M-3.65 12.25 L-4.55 9.0 -4.65 8.65 -4.65 8.05 -3.65 11.65 -3.65 12.25 M-9.75 20.55 Q-11.0 15.9 -13.3 10.55 L-13.0 9.55 -12.85 8.35 -11.0 14.5 -8.95 21.15 -9.75 20.55 M-8.7 22.05 L-6.2 30.3 Q-10.45 28.95 -14.05 23.1 L-14.4 18.2 -14.35 16.35 Q-14.35 12.9 -14.95 8.95 -11.3 17.9 -9.15 25.65 L-8.65 25.6 Q-8.95 23.4 -9.6 21.05 L-8.7 22.05 M-12.8 22.05 L-12.85 22.1 Q-10.15 26.2 -7.85 28.3 L-8.95 26.9 -10.7 24.5 -12.8 22.05 M-34.2 7.45 L-34.1 7.65 -34.1 8.1 -34.2 7.45 M-20.65 14.1 L-20.6 13.2 -21.25 10.9 -21.15 14.15 -20.65 14.1 M-21.3 18.5 L-21.2 18.55 -21.25 18.4 -21.3 18.5 M-0.45 30.8 L-0.35 30.9 -0.4 31.05 -0.4 31.5 1.05 32.65 1.0 32.0 -0.5 30.4 -0.45 30.8 M-45.1 1.85 L-45.1 1.9 -44.55 3.5 -44.4 3.95 -44.75 1.75 -45.15 1.1 -45.6 0.35 -45.1 1.85 M-47.55 6.25 Q-48.7 2.6 -51.45 -1.1 L-50.8 1.8 -49.1 3.95 -47.55 6.25 M43.25 17.5 L41.4 14.75 41.3 15.65 43.25 17.5 M36.3 12.35 L36.15 11.55 36.4 12.75 36.3 12.35 M26.2 2.9 L27.3 5.95 26.05 3.9 26.2 2.9 M29.0 1.7 L29.5 3.05 28.85 2.05 27.8 -0.35 29.0 1.7 M3.3 9.25 L3.15 8.7 3.8 10.15 4.1 11.9 3.3 9.25 M3.6 34.3 L2.75 33.65 2.75 34.0 3.6 34.6 3.6 34.3 M5.5 31.5 L5.45 31.45 5.45 31.5 5.5 31.5 M5.5 35.5 L5.5 36.0 8.3 37.85 8.35 36.5 Q6.9 36.25 5.5 35.5 M9.7 35.2 L10.75 36.1 Q10.9 36.6 9.65 36.6 L9.5 38.6 10.8 39.4 10.85 38.2 11.1 34.65 Q10.55 35.05 9.7 35.1 L9.7 35.2" fill="#666666" fill-rule="evenodd" stroke="none"/>
      <path d="M24.25 -63.4 L24.25 -63.55 25.05 -62.3 26.0 -61.05 26.0 -58.95 Q25.4 -59.9 24.3 -63.25 L24.25 -63.4 M26.75 -47.3 L27.25 -47.35 26.55 -60.3 27.2 -59.35 27.05 -56.8 27.5 -57.35 28.95 -47.35 29.25 -45.85 29.35 -45.85 Q30.8 -39.1 32.4 -35.1 L32.35 -35.1 32.6 -34.15 Q32.35 -30.9 32.35 -24.3 L32.4 -23.4 32.1 -22.1 31.7 -21.85 Q31.4 -21.6 30.7 -21.6 30.25 -21.6 29.85 -22.05 L30.45 -23.9 Q31.6 -28.0 31.6 -30.15 31.6 -33.3 30.55 -36.85 29.45 -39.9 29.45 -40.4 29.45 -45.7 28.6 -45.55 28.0 -45.4 27.8 -43.15 27.25 -44.85 27.25 -45.4 L27.25 -45.55 26.95 -46.4 26.85 -46.45 26.85 -46.55 26.75 -47.3 M-31.05 -42.5 Q-32.7 -45.1 -28.7 -45.95 L-28.15 -47.5 -28.15 -47.45 -28.85 -40.15 -28.75 -39.45 -28.7 -39.3 -28.2 -39.0 -27.95 -38.35 -28.2 -38.15 -29.0 -39.25 -29.0 -38.55 -28.6 -37.8 -28.9 -37.5 -28.5 -37.85 -27.05 -35.15 -27.0 -34.9 Q-26.6 -33.8 -25.2 -31.45 L-24.75 -30.1 -23.6 -25.95 Q-22.4 -22.1 -21.65 -21.15 L-18.3 -16.3 -18.5 -15.6 -18.5 -15.5 -18.6 -15.6 -18.5 -15.35 Q-18.45 -14.4 -17.8 -13.35 L-17.05 -12.35 -16.7 -11.6 -17.2 -11.6 -17.65 -12.9 -18.6 -12.85 -18.65 -11.6 -19.35 -11.6 -19.7 -12.15 -20.75 -13.9 -20.85 -14.1 -20.9 -14.1 Q-23.05 -17.55 -24.35 -19.1 L-24.65 -19.1 -24.65 -18.55 -24.65 -18.45 -27.85 -26.1 -28.1 -26.1 -29.55 -32.25 -29.6 -34.8 -30.95 -42.3 -31.35 -44.4 -31.05 -42.5 M-27.45 -37.25 L-28.1 -38.2 -27.95 -38.3 -27.75 -37.9 -27.8 -37.9 -27.5 -37.45 -27.45 -37.25 M-28.35 -22.65 L-28.75 -24.75 -28.05 -22.35 -28.35 -22.65 M-24.25 -17.7 L-24.35 -17.8 -24.4 -17.95 -24.25 -17.7" fill="#ffcc99" fill-rule="evenodd" stroke="none"/>
      <path d="M22.75 -66.95 L22.8 -67.65 22.85 -67.65 24.25 -59.85 24.45 -58.8 25.4 -53.65 26.15 -50.25 26.25 -49.8 26.55 -48.3 26.75 -47.4 26.75 -47.3 26.85 -46.55 26.85 -46.45 26.95 -46.4 26.75 -45.5 27.75 -42.65 27.85 -42.1 27.85 -41.6 27.7 -41.5 27.7 -41.45 27.6 -41.4 27.1 -42.15 27.1 -42.1 27.25 -41.5 27.2 -41.5 26.95 -42.5 26.7 -44.55 26.7 -45.45 26.2 -46.55 26.25 -46.85 25.95 -48.25 25.85 -48.6 25.55 -50.35 25.5 -50.6 25.45 -50.8 23.6 -58.35 Q22.65 -62.3 22.65 -66.05 L22.75 -66.95 M25.25 -49.45 L25.3 -49.2 25.3 -49.15 25.25 -49.45 M26.0 -46.55 L26.1 -46.4 26.1 -46.25 26.0 -46.55 M25.45 -41.3 L25.6 -41.6 25.75 -41.6 25.6 -41.45 25.45 -41.3 M27.95 -38.35 Q27.6 -38.5 27.3 -38.8 L26.5 -39.8 25.0 -38.55 24.75 -38.65 24.25 -37.1 23.1 -35.65 22.7 -35.4 Q22.0 -35.0 21.1 -34.9 L20.85 -34.95 22.6 -36.05 22.75 -36.3 22.9 -36.45 Q23.9 -37.35 24.85 -39.0 L26.3 -41.4 27.3 -39.95 28.3 -38.75 28.3 -38.45 28.2 -38.3 27.95 -38.35 M12.5 -33.55 Q4.2 -31.5 0.75 -28.65 L-2.15 -28.65 -4.15 -29.0 -2.6 -29.3 -0.9 -29.65 -0.75 -29.7 -0.7 -29.7 0.0 -29.85 -0.5 -29.9 -0.45 -29.95 0.5 -29.95 0.4 -30.25 -0.55 -30.4 -0.9 -30.55 -0.15 -30.45 0.25 -30.5 0.3 -30.8 0.05 -31.15 2.45 -31.7 2.85 -31.6 Q3.3 -31.6 3.4 -31.9 L3.4 -31.95 Q4.85 -32.35 4.9 -32.6 L5.5 -32.65 Q7.8 -32.65 8.4 -33.2 L8.35 -33.25 9.0 -33.4 9.05 -33.35 9.25 -33.3 Q10.2 -33.3 10.85 -33.7 L12.55 -33.6 12.5 -33.55 M-8.65 -29.0 L-10.05 -29.0 -10.55 -28.65 Q-10.55 -27.95 -11.65 -28.65 L-13.35 -28.2 Q-14.25 -27.7 -15.2 -27.65 L-14.3 -26.6 Q-13.7 -25.8 -14.4 -25.3 -13.9 -24.0 -13.15 -23.75 L-11.3 -23.65 Q-10.75 -23.65 -10.0 -22.9 L-9.7 -22.6 Q-9.15 -21.95 -9.15 -21.4 -9.15 -21.25 -9.65 -21.15 -10.25 -21.8 -11.05 -21.95 L-11.8 -22.05 -12.15 -22.15 -12.3 -22.2 -13.6 -23.25 -16.55 -27.3 -17.25 -28.3 -16.7 -28.8 -16.65 -29.05 -14.55 -29.4 -14.45 -29.4 -14.35 -29.25 -13.9 -29.2 -12.9 -29.45 -11.65 -29.7 -10.4 -29.4 -8.65 -29.0 M-1.0 -30.6 L-1.2 -30.6 -1.45 -30.7 -1.0 -30.6 M-27.1 -37.9 L-25.55 -35.85 -25.8 -36.55 -24.55 -34.8 -25.75 -36.0 -26.3 -36.6 -26.65 -37.0 -26.8 -37.0 -27.05 -37.2 -27.0 -37.35 -27.1 -37.9 M-20.5 -29.9 L-20.05 -29.45 -19.5 -28.9 -19.05 -27.8 -18.5 -26.75 -19.1 -27.6 -20.5 -29.9 M-14.75 -30.15 L-14.8 -30.15 -14.7 -30.2 -14.6 -30.15 -14.75 -30.15" fill="#ec757f" fill-rule="evenodd" stroke="none"/>
      <path d="M24.25 -59.85 L24.25 -63.4 24.3 -63.25 Q25.4 -59.9 26.0 -58.95 L26.15 -54.15 26.05 -53.8 26.25 -49.8 26.15 -50.25 25.4 -53.65 24.45 -58.8 24.25 -59.85 M-28.15 -47.5 L-26.1 -52.9 -25.45 -53.95 -25.3 -54.55 Q-24.95 -55.85 -24.95 -56.3 L-24.85 -59.6 Q-24.75 -61.75 -24.45 -62.95 L-24.15 -63.9 Q-23.75 -63.7 -23.75 -63.2 L-23.8 -62.85 -23.8 -62.8 -25.0 -54.0 -25.1 -52.6 -25.2 -52.35 -25.75 -50.55 Q-27.75 -43.8 -27.75 -42.6 L-27.75 -42.45 -27.25 -40.4 -26.9 -38.4 -27.1 -37.9 -27.0 -37.35 -27.05 -37.2 -27.15 -37.1 -27.75 -37.9 -27.95 -38.3 -27.95 -38.35 -28.2 -39.0 -28.7 -39.3 -28.75 -39.45 -28.85 -40.15 -28.15 -47.45 -28.15 -47.5 M27.75 -42.65 L26.75 -45.5 26.95 -46.4 27.25 -45.55 27.25 -45.4 Q27.25 -44.85 27.8 -43.15 L27.75 -42.65 M23.1 -35.65 L24.25 -37.1 24.75 -38.65 25.0 -38.55 26.5 -39.8 27.3 -38.8 Q27.6 -38.5 27.95 -38.35 L28.6 -36.65 28.25 -35.6 28.1 -35.25 28.0 -35.3 26.95 -36.05 27.0 -36.15 26.7 -36.35 27.2 -36.8 27.55 -37.3 Q27.55 -38.3 26.65 -38.6 25.75 -38.9 25.75 -38.15 25.75 -37.5 26.45 -37.5 26.3 -37.25 26.45 -36.95 L26.65 -36.35 25.95 -37.0 Q25.7 -36.6 25.7 -36.0 25.7 -35.35 25.85 -35.65 27.0 -35.65 27.25 -35.3 26.0 -35.25 26.0 -34.85 L26.05 -34.45 25.1 -34.65 25.05 -34.65 24.8 -34.3 24.5 -34.3 23.85 -34.55 Q23.45 -34.6 23.5 -33.95 22.95 -34.4 22.45 -34.4 21.65 -34.4 20.8 -33.8 20.0 -33.25 20.0 -32.9 20.0 -32.55 20.4 -32.2 20.9 -31.8 21.55 -31.8 L23.05 -31.85 Q24.05 -32.35 25.5 -32.35 L26.65 -32.9 26.65 -33.3 Q26.65 -33.85 27.3 -33.95 L26.65 -34.25 26.65 -34.35 Q26.7 -34.65 27.4 -34.65 L27.85 -34.6 28.2 -33.9 28.1 -33.1 28.2 -32.85 28.3 -32.65 28.05 -31.85 27.55 -31.2 27.4 -31.25 27.35 -31.15 26.9 -30.05 26.1 -29.55 25.4 -29.05 Q24.85 -29.05 24.35 -28.65 23.85 -28.2 23.85 -27.7 L23.85 -27.6 23.5 -27.1 23.45 -27.15 23.0 -27.15 23.1 -26.55 23.05 -26.65 22.2 -28.9 21.85 -28.9 21.75 -28.35 21.9 -27.55 21.1 -28.75 20.95 -28.75 21.35 -26.7 20.9 -26.9 Q20.5 -28.55 19.6 -29.5 L19.35 -29.4 19.35 -29.15 Q19.35 -28.6 20.15 -26.85 L19.45 -26.6 19.05 -26.4 Q18.7 -27.7 17.85 -28.65 L17.65 -28.65 17.45 -28.25 17.85 -25.7 17.15 -25.05 15.35 -28.25 15.2 -28.15 16.35 -24.35 15.8 -23.8 15.1 -25.5 14.95 -25.5 14.85 -24.9 15.05 -24.3 14.6 -24.9 13.35 -23.9 12.85 -24.65 12.1 -26.25 11.95 -26.15 12.1 -25.15 Q11.1 -25.6 11.1 -24.5 L11.1 -24.15 10.85 -24.15 Q10.25 -25.4 9.6 -25.5 L9.5 -25.0 9.8 -24.15 9.75 -24.15 8.55 -24.25 7.85 -25.75 7.7 -25.65 8.1 -24.0 7.85 -23.5 7.55 -23.15 7.45 -23.15 Q7.05 -23.15 6.75 -22.55 L6.4 -23.4 5.6 -25.25 Q5.25 -25.25 5.25 -24.65 L5.5 -22.6 5.55 -22.45 Q4.95 -22.6 4.65 -22.2 L4.45 -21.7 3.9 -23.2 Q3.35 -24.6 2.6 -24.5 L3.3 -21.7 2.75 -21.5 2.25 -21.2 2.1 -21.65 1.35 -24.0 1.2 -24.0 1.1 -23.1 Q1.1 -22.4 1.65 -20.7 L1.6 -20.65 1.1 -21.3 0.95 -21.15 1.45 -20.4 1.35 -20.0 1.45 -19.85 1.35 -19.85 0.6 -22.25 0.45 -22.25 0.5 -21.3 0.2 -19.85 0.0 -20.05 -0.35 -21.7 Q-0.6 -23.15 -0.9 -23.65 L-1.15 -22.6 -0.65 -20.85 -0.8 -21.0 -1.75 -21.0 Q-3.0 -21.15 -3.3 -21.55 L-3.4 -21.65 -3.65 -24.05 -3.9 -24.05 -4.0 -22.05 -4.65 -22.15 -4.7 -22.1 -4.75 -22.35 Q-5.0 -24.05 -6.4 -23.3 L-5.9 -21.85 -8.05 -21.55 -8.45 -22.1 Q-8.9 -22.45 -9.7 -22.6 L-10.0 -22.9 Q-10.75 -23.65 -11.3 -23.65 L-13.15 -23.75 Q-13.9 -24.0 -14.4 -25.3 -13.7 -25.8 -14.3 -26.6 L-15.2 -27.65 Q-14.25 -27.7 -13.35 -28.2 L-11.65 -28.65 Q-10.55 -27.95 -10.55 -28.65 L-10.05 -29.0 -8.65 -29.0 -6.4 -28.8 -4.15 -29.0 -2.15 -28.65 0.75 -28.65 Q4.2 -31.5 12.5 -33.55 L12.0 -32.95 12.05 -32.7 15.55 -33.3 15.5 -33.2 15.7 -32.8 15.85 -32.35 15.5 -32.0 15.7 -31.6 16.15 -31.35 16.45 -31.55 Q16.5 -31.8 17.0 -31.8 L17.65 -31.55 19.05 -31.75 19.15 -32.05 17.95 -33.3 Q17.55 -33.3 17.5 -33.1 L17.2 -32.9 16.35 -33.3 16.05 -33.4 Q18.35 -33.95 20.05 -34.65 L20.2 -34.7 20.45 -34.8 20.85 -34.95 21.1 -34.9 Q22.0 -35.0 22.7 -35.4 L22.95 -35.4 23.1 -35.65 M20.8 -29.6 L20.8 -29.65 20.6 -29.45 20.8 -29.6 M6.9 -37.05 L6.8 -37.1 6.85 -37.1 6.9 -37.05 M12.95 -39.15 L12.1 -39.45 13.0 -39.4 Q13.55 -39.2 13.85 -38.7 L13.9 -38.6 Q13.45 -38.6 13.3 -38.85 L12.95 -39.15 M19.6 -40.05 L20.25 -39.55 20.2 -39.45 18.75 -39.75 Q18.65 -39.85 18.65 -40.1 L19.6 -40.05 M4.8 -38.6 L5.7 -37.95 6.25 -37.05 6.2 -37.0 Q6.05 -37.25 5.3 -37.7 4.65 -38.15 4.65 -38.25 4.65 -38.5 4.8 -38.6 M9.8 -31.8 Q9.45 -31.8 9.25 -31.4 L8.85 -30.8 7.65 -30.35 Q7.0 -30.15 7.0 -29.95 7.0 -29.2 8.05 -29.2 L8.8 -29.65 11.3 -30.0 Q12.9 -30.45 12.9 -31.15 12.9 -32.1 11.9 -31.95 L10.3 -31.6 9.8 -31.8 M13.55 -31.9 L13.75 -31.45 14.3 -31.0 14.75 -31.3 14.5 -31.9 Q14.35 -32.3 13.9 -32.3 13.55 -32.3 13.55 -31.9 M0.8 -19.65 L0.7 -19.65 0.75 -20.0 0.8 -19.65 M-12.25 -34.9 L-12.4 -34.85 -13.45 -35.85 -13.4 -36.05 -12.8 -35.55 -12.25 -35.0 -12.25 -34.9 M-19.25 -25.75 L-19.4 -25.75 -19.65 -26.15 -19.25 -25.75 M-23.9 -32.35 L-27.45 -37.25 -27.5 -37.45 -24.65 -33.45 -23.9 -32.35 M-27.05 -35.15 L-25.2 -31.45 Q-26.6 -33.8 -27.0 -34.9 L-27.05 -35.15 M-2.5 -35.95 Q-3.25 -35.95 -3.6 -36.75 L-3.6 -36.85 -3.0 -36.7 -2.45 -36.1 -2.5 -35.95 M-1.35 -35.3 L-1.0 -35.0 Q-1.05 -34.9 -1.3 -34.9 L-1.85 -35.1 -1.8 -35.25 -1.35 -35.3 M-28.05 -40.75 L-28.15 -40.85 -28.05 -40.7 -28.05 -40.75 M-2.15 -23.0 L-2.3 -23.0 -1.85 -21.55 -2.15 -23.0 M-12.15 -22.15 L-12.25 -22.05 -12.3 -22.2 -12.15 -22.15" fill="#ff9999" fill-rule="evenodd" stroke="none"/>
      <path d="M22.55 -69.0 L22.65 -68.2 22.6 -67.6 22.35 -68.3 Q22.05 -68.15 22.05 -66.65 L22.65 -60.0 23.5 -57.5 24.5 -53.0 25.1 -50.05 25.25 -49.45 25.3 -49.15 25.25 -49.05 25.25 -48.75 Q25.25 -47.6 25.75 -46.85 L26.0 -46.55 26.1 -46.25 25.9 -45.2 25.9 -45.05 25.6 -45.15 25.2 -43.15 Q24.45 -42.3 23.85 -40.7 L23.1 -37.9 23.1 -37.65 22.8 -37.0 22.75 -36.9 Q21.95 -36.05 19.65 -35.4 L19.4 -35.35 14.05 -33.8 14.1 -33.95 14.1 -34.05 14.1 -34.1 14.5 -34.35 15.4 -34.95 17.05 -36.15 Q17.45 -36.45 19.6 -37.35 L20.85 -38.0 21.5 -38.65 Q21.65 -40.25 22.7 -41.9 L23.35 -42.8 23.5 -43.2 23.85 -43.9 24.05 -44.25 24.35 -44.7 Q24.55 -45.9 25.1 -46.25 L24.75 -47.25 24.6 -47.3 24.55 -47.4 23.1 -51.3 Q23.0 -53.65 22.05 -57.6 L22.05 -58.4 22.15 -59.65 22.05 -60.15 22.05 -60.8 21.8 -61.75 Q21.45 -63.4 21.45 -64.4 21.45 -68.45 22.2 -69.65 L22.55 -69.0 M-23.8 -62.85 L-23.7 -62.7 -23.8 -62.8 -23.8 -62.85 M-23.6 -62.3 L-23.45 -61.55 -23.25 -59.95 -23.15 -59.0 -23.0 -56.05 -23.15 -52.7 -23.35 -49.7 -23.55 -46.75 -23.5 -42.8 Q-23.55 -41.1 -23.9 -40.2 -23.6 -38.75 -22.85 -37.6 L-24.9 -39.3 -24.95 -39.3 Q-25.25 -39.3 -25.6 -39.65 L-25.8 -40.25 -26.1 -41.3 -24.6 -46.35 -24.8 -46.9 Q-24.5 -48.4 -24.5 -49.05 L-24.55 -49.5 -24.05 -54.7 Q-23.55 -59.95 -23.55 -61.5 L-23.6 -62.3 M-22.1 -36.9 L-22.15 -37.3 -22.25 -37.45 -22.5 -38.1 -22.4 -38.9 -22.3 -38.9 Q-22.15 -38.65 -21.8 -38.65 L-21.05 -38.45 -20.95 -38.4 -20.65 -38.15 -20.35 -38.1 -19.95 -37.5 Q-19.25 -36.5 -18.3 -36.35 L-17.9 -36.0 -17.15 -36.0 -17.5 -35.8 -18.95 -35.1 -18.45 -34.85 -18.2 -34.8 -16.9 -34.55 Q-15.4 -34.55 -12.7 -32.9 L-12.0 -32.65 -9.3 -31.55 -9.35 -31.45 Q-9.35 -31.15 -8.55 -30.85 L-7.15 -30.6 -5.2 -31.0 -5.0 -30.55 -3.95 -30.45 -4.05 -30.35 -5.7 -30.45 -6.55 -30.25 -7.9 -30.1 -7.95 -30.1 -8.25 -30.1 -10.4 -30.9 -12.6 -31.45 -13.05 -31.65 -14.55 -31.75 -15.6 -32.4 -19.9 -35.05 -21.9 -36.7 -22.1 -36.9 M11.55 -40.65 L11.65 -40.55 12.05 -40.4 12.2 -40.3 11.7 -40.25 11.4 -39.6 11.25 -39.25 11.05 -38.45 11.05 -38.4 10.75 -37.95 Q9.6 -36.15 8.45 -36.15 7.9 -36.15 6.9 -37.05 L6.85 -37.1 6.8 -37.1 6.35 -37.5 5.95 -37.9 5.75 -38.4 6.1 -38.0 Q6.5 -37.4 7.1 -37.4 9.2 -37.4 9.95 -38.15 L10.35 -38.7 10.9 -39.5 11.2 -40.25 11.2 -40.3 11.55 -40.65 M13.95 -39.5 L15.85 -39.15 17.95 -40.7 18.3 -41.0 18.5 -41.15 19.05 -40.9 Q18.45 -41.0 18.4 -40.3 L17.3 -39.55 15.9 -38.55 14.6 -38.75 14.05 -39.4 13.95 -39.5 M21.0 -39.75 L21.15 -39.4 21.1 -39.05 20.3 -39.7 19.8 -40.55 19.95 -40.5 20.35 -40.55 21.0 -39.75 M5.15 -38.8 L5.05 -38.8 4.95 -38.9 Q4.5 -38.9 4.1 -38.1 L3.85 -37.5 Q3.4 -37.3 2.95 -36.4 2.35 -35.25 -0.3 -35.25 -1.05 -35.25 -2.0 -36.45 L-1.85 -36.35 -1.4 -36.15 -0.15 -35.9 Q1.7 -35.9 3.0 -37.45 L4.6 -39.25 5.1 -39.15 5.15 -38.8 M-3.4 -37.55 L-3.85 -37.55 -4.1 -36.4 -4.05 -36.3 -5.35 -35.3 -6.35 -34.05 -8.3 -33.85 Q-9.75 -33.85 -11.5 -35.0 -13.25 -36.2 -13.65 -36.2 L-13.1 -36.45 Q-11.95 -35.0 -10.35 -34.65 L-7.1 -34.65 -4.05 -37.75 -4.05 -37.8 -4.0 -37.8 -3.9 -37.9 -3.75 -37.75 -3.4 -37.55 M-13.9 -36.15 L-14.6 -35.7 -15.0 -35.3 -15.05 -35.35 -15.95 -36.0 Q-15.4 -35.8 -15.0 -36.15 L-14.05 -36.15 -13.9 -36.15" fill="#6d012d" fill-rule="evenodd" stroke="none"/>
      <path d="M-22.85 -37.6 L-22.1 -36.9 -21.9 -36.7 -19.9 -35.05 -15.6 -32.4 -14.55 -31.75 -13.05 -31.65 -12.6 -31.45 -10.4 -30.9 -8.25 -30.1 -10.4 -30.1 -11.25 -30.2 -12.1 -30.7 -13.35 -30.4 -13.55 -30.4 -13.7 -30.3 -14.65 -30.05 -15.05 -30.35 -15.15 -30.65 -16.3 -30.95 -17.05 -31.15 Q-17.6 -31.15 -17.8 -30.55 -18.0 -30.0 -18.65 -30.0 L-19.9 -31.65 -20.25 -31.65 -20.4 -31.2 -20.35 -31.1 -22.15 -32.15 -22.15 -31.75 -24.55 -34.8 -25.8 -36.55 -26.55 -38.7 -26.1 -38.55 -26.25 -39.0 -26.55 -40.3 -26.55 -40.35 -26.6 -41.25 -25.7 -44.15 -24.9 -46.2 -24.8 -46.9 -24.6 -46.35 -26.1 -41.3 -25.8 -40.25 -25.6 -39.65 Q-25.25 -39.3 -24.95 -39.3 L-24.9 -39.3 -22.85 -37.6 M12.2 -40.3 Q13.05 -40.3 13.95 -39.5 L14.05 -39.4 14.6 -38.75 15.9 -38.55 17.3 -39.55 18.4 -40.3 Q18.45 -41.0 19.05 -40.9 L19.35 -40.8 19.8 -40.55 20.3 -39.7 21.1 -39.05 21.15 -39.4 21.0 -39.75 22.55 -42.0 23.15 -42.75 23.5 -43.2 23.35 -42.8 22.7 -41.9 Q21.65 -40.25 21.5 -38.65 L20.85 -38.0 19.6 -37.35 Q17.45 -36.45 17.05 -36.15 L15.4 -34.95 14.5 -34.35 14.1 -34.1 14.1 -34.05 14.05 -34.15 13.8 -34.2 11.5 -34.6 11.2 -34.55 11.75 -34.85 12.95 -35.6 9.15 -34.8 6.7 -34.1 6.8 -34.25 6.45 -34.6 5.8 -34.8 Q4.75 -34.8 3.25 -33.85 L2.35 -33.25 -1.7 -32.4 -1.85 -32.55 -5.0 -32.65 Q-5.05 -32.2 -5.35 -31.9 L-5.35 -31.8 -3.7 -32.05 Q-2.8 -32.05 -2.35 -31.6 L-1.95 -31.1 -1.45 -30.7 -1.2 -30.6 -1.0 -30.6 -0.95 -30.6 -0.9 -30.55 -0.55 -30.4 0.4 -30.25 0.5 -29.95 -0.45 -29.95 -0.5 -29.9 -3.4 -30.15 -4.2 -29.85 -6.45 -29.6 -7.85 -29.75 Q-7.3 -29.8 -7.5 -29.85 L-7.7 -30.05 -7.9 -30.1 -6.55 -30.25 -5.7 -30.45 -4.05 -30.35 -3.95 -30.45 -5.0 -30.55 -5.2 -31.0 -7.15 -30.6 -8.55 -30.85 Q-9.35 -31.15 -9.35 -31.45 L-9.3 -31.55 -12.0 -32.65 -12.7 -32.9 Q-15.4 -34.55 -16.9 -34.55 L-18.2 -34.8 -18.45 -34.85 -18.95 -35.1 -17.5 -35.8 -17.15 -36.0 -15.95 -36.0 -15.05 -35.35 -15.0 -35.3 -14.6 -35.7 -13.9 -36.15 -13.65 -36.2 Q-13.25 -36.2 -11.5 -35.0 -9.75 -33.85 -8.3 -33.85 L-6.35 -34.05 -5.35 -35.3 -4.05 -36.3 -4.1 -36.4 -3.85 -37.55 -3.4 -37.55 Q-2.8 -37.45 -2.1 -36.6 L-2.0 -36.45 Q-1.05 -35.25 -0.3 -35.25 2.35 -35.25 2.95 -36.4 3.4 -37.3 3.85 -37.5 L4.1 -38.1 Q4.5 -38.9 4.95 -38.9 L5.05 -38.8 5.15 -38.8 5.4 -38.75 5.75 -38.4 5.95 -37.9 6.35 -37.5 6.8 -37.1 6.9 -37.05 Q7.9 -36.15 8.45 -36.15 9.6 -36.15 10.75 -37.95 L11.05 -38.4 11.05 -38.45 11.25 -39.25 11.4 -39.6 11.7 -40.25 12.2 -40.3 M26.1 -46.4 L25.95 -46.65 Q25.8 -46.9 25.8 -47.1 L25.8 -47.25 25.85 -47.25 26.2 -46.55 26.7 -45.45 26.7 -44.55 26.95 -42.5 27.2 -41.5 27.15 -41.55 26.4 -41.95 26.4 -42.05 26.25 -41.95 25.95 -41.9 25.75 -41.6 25.6 -41.6 25.45 -41.3 Q24.85 -40.7 24.4 -39.75 L23.0 -37.2 22.75 -36.9 22.8 -37.0 23.1 -37.65 23.1 -37.9 23.85 -40.7 Q24.45 -42.3 25.2 -43.15 L25.6 -45.15 25.9 -45.05 25.9 -45.2 26.1 -46.25 26.1 -46.4 M14.05 -33.8 L19.4 -35.35 19.65 -35.4 13.8 -33.6 13.95 -33.65 14.05 -33.8 M20.85 -34.95 L20.45 -34.8 20.2 -34.7 Q21.75 -35.45 22.75 -36.3 L22.6 -36.05 20.85 -34.95 M12.95 -39.15 L13.3 -38.85 Q13.45 -38.6 13.9 -38.6 L13.85 -38.7 Q13.55 -39.2 13.0 -39.4 L12.1 -39.45 12.95 -39.15 M19.6 -40.05 L18.65 -40.1 Q18.65 -39.85 18.75 -39.75 L20.2 -39.45 20.25 -39.55 19.6 -40.05 M4.8 -38.6 Q4.65 -38.5 4.65 -38.25 4.65 -38.15 5.3 -37.7 6.05 -37.25 6.2 -37.0 L6.25 -37.05 5.7 -37.95 4.8 -38.6 M13.85 -35.05 L13.9 -35.05 13.9 -35.1 13.85 -35.05 M-12.25 -34.9 L-12.25 -35.0 -12.8 -35.55 -13.4 -36.05 -13.45 -35.85 -12.4 -34.85 -12.25 -34.9 M-14.75 -30.15 L-14.6 -30.15 -14.7 -30.2 -14.8 -30.15 -14.75 -30.15 M-1.35 -35.3 L-1.8 -35.25 -1.85 -35.1 -1.3 -34.9 Q-1.05 -34.9 -1.0 -35.0 L-1.35 -35.3 M-2.5 -35.95 L-2.45 -36.1 -3.0 -36.7 -3.6 -36.85 -3.6 -36.75 Q-3.25 -35.95 -2.5 -35.95" fill="#ad2742" fill-rule="evenodd" stroke="none"/>
      <path d="M-22.3 -38.9 L-22.4 -39.05 -22.45 -39.5 Q-22.45 -40.45 -21.6 -41.15 L-19.15 -42.85 Q-17.65 -44.0 -15.65 -43.4 -14.25 -43.0 -13.9 -42.25 L-13.65 -42.3 -13.65 -42.2 -13.5 -41.85 -13.4 -41.5 -13.1 -39.85 -13.15 -38.2 Q-13.15 -37.2 -12.8 -36.6 L-12.5 -36.85 -11.9 -42.85 -11.65 -43.25 -11.55 -43.4 -10.35 -43.45 -7.4 -44.0 Q-7.2 -43.85 -6.8 -43.65 L-5.85 -43.05 -5.55 -42.25 -5.5 -42.15 -5.45 -41.9 -4.55 -38.5 Q-4.25 -39.35 -4.25 -40.4 L-4.3 -42.25 -4.4 -43.5 -4.2 -43.55 -4.2 -43.6 Q-4.2 -44.0 -2.65 -44.15 L2.6 -45.05 Q3.9 -45.4 4.35 -44.7 L4.45 -44.55 4.8 -44.55 Q5.05 -45.35 7.05 -45.5 L8.55 -45.4 Q10.9 -45.75 11.5 -44.85 L11.75 -44.8 11.75 -44.85 11.95 -44.0 12.05 -43.1 11.9 -42.05 11.75 -41.0 11.55 -40.65 11.2 -40.3 11.2 -40.25 10.9 -39.5 10.35 -38.7 9.95 -38.15 Q9.2 -37.4 7.1 -37.4 6.5 -37.4 6.1 -38.0 L5.75 -38.4 5.4 -38.75 5.15 -38.8 5.1 -39.15 4.6 -39.25 3.0 -37.45 Q1.7 -35.9 -0.15 -35.9 L-1.4 -36.15 -1.85 -36.35 -2.0 -36.45 -2.1 -36.6 Q-2.8 -37.45 -3.4 -37.55 L-3.75 -37.75 -3.9 -37.9 -4.0 -37.8 -4.05 -37.8 -4.05 -37.75 -7.1 -34.65 -10.35 -34.65 Q-11.95 -35.0 -13.1 -36.45 L-13.65 -36.2 -13.9 -36.15 -14.05 -36.15 -15.0 -36.15 Q-15.4 -35.8 -15.95 -36.0 L-17.15 -36.0 -17.9 -36.0 -18.3 -36.35 Q-19.25 -36.5 -19.95 -37.5 L-20.35 -38.1 -20.5 -38.3 -20.95 -38.4 -21.05 -38.45 -21.8 -38.65 Q-22.15 -38.65 -22.3 -38.9 M18.3 -41.0 L18.3 -41.05 18.25 -41.1 18.35 -41.6 18.3 -41.95 18.25 -41.9 18.7 -43.5 19.35 -45.55 Q20.0 -46.6 20.75 -46.8 21.5 -47.0 22.8 -46.0 L24.05 -44.7 24.05 -44.25 23.85 -43.9 23.5 -43.2 23.15 -42.75 22.55 -42.0 21.0 -39.75 20.35 -40.55 19.95 -40.5 19.8 -40.55 19.35 -40.8 19.05 -40.9 18.5 -41.15 18.3 -41.0" fill="#ebe4ad" fill-rule="evenodd" stroke="none"/>
      <path d="M22.6 -67.6 L22.75 -66.95 22.65 -66.05 Q22.65 -62.3 23.6 -58.35 L25.45 -50.8 25.5 -50.6 25.55 -50.35 25.85 -48.6 25.95 -48.25 26.25 -46.85 26.2 -46.55 25.85 -47.25 25.8 -47.25 25.8 -47.1 Q25.8 -46.9 25.95 -46.65 L26.1 -46.4 26.0 -46.55 25.75 -46.85 Q25.25 -47.6 25.25 -48.75 L25.25 -49.05 25.3 -49.15 25.3 -49.2 25.25 -49.45 25.1 -50.05 24.5 -53.0 23.5 -57.5 22.65 -60.0 22.05 -66.65 Q22.05 -68.15 22.35 -68.3 L22.6 -67.6 M-23.7 -62.7 L-23.6 -62.3 -23.55 -61.5 Q-23.55 -59.95 -24.05 -54.7 L-24.55 -49.5 -24.5 -49.05 Q-24.5 -48.4 -24.8 -46.9 L-24.9 -46.2 -25.7 -44.15 -26.6 -41.25 -26.55 -40.35 -26.55 -40.3 -26.25 -39.0 -26.1 -38.55 -26.55 -38.7 -25.8 -36.55 -25.55 -35.85 -27.1 -37.9 -26.9 -38.4 -27.25 -40.4 -27.75 -42.45 -27.75 -42.6 Q-27.75 -43.8 -25.75 -50.55 L-25.2 -52.35 -25.1 -52.6 -25.0 -54.0 -23.8 -62.8 -23.7 -62.7 M27.2 -41.5 L27.25 -41.5 27.85 -41.0 28.4 -39.9 28.45 -39.3 28.4 -38.9 28.3 -38.75 27.3 -39.95 26.3 -41.4 24.85 -39.0 Q23.9 -37.35 22.9 -36.45 L22.75 -36.3 Q21.75 -35.45 20.2 -34.7 L20.05 -34.65 Q18.35 -33.95 16.05 -33.4 L15.55 -33.3 12.05 -32.7 12.0 -32.95 12.5 -33.55 12.55 -33.6 10.85 -33.7 Q10.2 -33.3 9.25 -33.3 L9.05 -33.35 9.0 -33.4 8.35 -33.25 8.4 -33.2 Q7.8 -32.65 5.5 -32.65 L4.9 -32.6 Q4.85 -32.35 3.4 -31.95 L3.4 -31.9 Q3.3 -31.6 2.85 -31.6 L2.45 -31.7 0.05 -31.15 0.3 -30.8 0.25 -30.5 -0.15 -30.45 -0.9 -30.55 -0.95 -30.6 -1.0 -30.6 -1.45 -30.7 -1.95 -31.1 -2.35 -31.6 Q-2.8 -32.05 -3.7 -32.05 L-5.35 -31.8 -5.35 -31.9 Q-5.05 -32.2 -5.0 -32.65 L-1.85 -32.55 -1.7 -32.4 2.35 -33.25 3.25 -33.85 Q4.75 -34.8 5.8 -34.8 L6.45 -34.6 6.8 -34.25 6.7 -34.1 9.15 -34.8 12.95 -35.6 11.75 -34.85 11.2 -34.55 11.5 -34.6 13.8 -34.2 14.05 -34.15 14.1 -34.05 14.1 -33.95 14.05 -33.8 13.95 -33.65 13.8 -33.6 19.65 -35.4 Q21.95 -36.05 22.75 -36.9 L23.0 -37.2 24.4 -39.75 Q24.85 -40.7 25.45 -41.3 L25.6 -41.45 25.75 -41.6 25.95 -41.9 26.25 -41.95 26.4 -42.05 26.4 -41.95 27.15 -41.55 27.2 -41.5 M23.1 -35.65 L22.95 -35.4 22.7 -35.4 23.1 -35.65 M-4.15 -29.0 L-6.4 -28.8 -8.65 -29.0 -10.4 -29.4 -11.65 -29.7 -12.9 -29.45 -13.9 -29.2 -14.35 -29.25 -14.45 -29.4 -14.55 -29.4 -16.65 -29.05 -16.7 -28.8 -17.25 -28.3 -16.55 -27.3 -13.6 -23.25 -13.4 -23.0 -13.4 -22.9 Q-14.5 -23.3 -15.25 -23.9 L-16.1 -24.4 Q-17.25 -24.4 -18.5 -26.75 L-19.05 -27.8 -19.5 -28.9 -20.05 -29.45 -20.5 -29.9 -22.15 -31.7 -22.15 -31.75 -22.15 -32.15 -20.35 -31.1 -20.4 -31.2 -20.25 -31.65 -19.9 -31.65 -18.65 -30.0 Q-18.0 -30.0 -17.8 -30.55 -17.6 -31.15 -17.05 -31.15 L-16.3 -30.95 -15.15 -30.65 -15.05 -30.35 -14.65 -30.05 -13.7 -30.3 -13.55 -30.4 -13.35 -30.4 -12.1 -30.7 -11.25 -30.2 -10.4 -30.1 -8.25 -30.1 -7.95 -30.1 -7.9 -30.1 -7.7 -30.05 -7.5 -29.85 Q-7.3 -29.8 -7.85 -29.75 L-6.45 -29.6 -4.2 -29.85 -3.4 -30.15 -0.5 -29.9 0.0 -29.85 -0.7 -29.7 -0.75 -29.7 -0.9 -29.65 -2.6 -29.3 -4.15 -29.0 M29.8 -37.95 L30.1 -36.4 29.95 -35.2 29.8 -37.95 M13.85 -35.05 L13.9 -35.1 13.9 -35.05 13.85 -35.05" fill="#d84e64" fill-rule="evenodd" stroke="none"/>
      <path d="M27.7 -41.45 L27.7 -41.5 27.85 -41.6 27.85 -42.1 27.75 -42.65 27.8 -43.15 Q28.0 -45.4 28.6 -45.55 29.45 -45.7 29.45 -40.4 29.45 -39.9 30.55 -36.85 31.6 -33.3 31.6 -30.15 31.6 -28.0 30.45 -23.9 L29.85 -22.05 29.75 -22.15 Q29.7 -23.35 29.15 -23.85 L29.15 -23.9 Q29.6 -27.85 29.35 -29.4 L28.55 -29.35 28.7 -30.65 28.8 -31.2 28.9 -31.7 29.1 -32.5 29.6 -33.95 29.75 -34.1 29.95 -34.6 29.95 -35.2 30.1 -36.4 29.8 -37.95 Q29.6 -39.5 29.2 -40.5 28.75 -40.45 28.55 -39.65 L28.4 -39.9 27.85 -41.0 27.75 -41.15 27.7 -41.4 27.7 -41.45 M16.55 -19.55 L14.85 -19.05 14.85 -19.15 16.55 -19.55 M14.35 -18.9 L12.35 -18.4 14.3 -19.0 14.35 -18.9 M6.85 -17.05 L6.65 -17.0 5.65 -16.95 6.7 -17.05 6.85 -17.05 M-19.65 -26.15 L-19.4 -25.75 -19.25 -25.75 -16.55 -23.2 -15.95 -22.2 -16.0 -22.1 -16.15 -22.1 -16.05 -22.0 -16.15 -21.65 -14.9 -18.8 Q-14.25 -17.25 -14.15 -16.3 L-15.85 -20.1 -16.15 -20.1 -14.5 -15.65 -14.65 -15.55 Q-15.9 -18.0 -16.35 -19.6 L-16.65 -19.6 -16.05 -18.1 -16.85 -19.6 -16.9 -19.6 -17.1 -19.65 -17.15 -18.9 -15.1 -15.3 -15.4 -15.2 -15.85 -14.85 -16.15 -15.4 -16.45 -15.35 -16.85 -17.1 -17.15 -17.1 -16.95 -15.35 -17.1 -15.35 -16.8 -14.6 -16.6 -13.4 Q-17.6 -14.9 -18.5 -15.5 L-18.5 -15.6 -18.3 -16.3 -21.65 -21.15 Q-22.4 -22.1 -23.6 -25.95 L-24.75 -30.1 -25.2 -31.45 -27.05 -35.15 -28.5 -37.85 -28.1 -38.2 -27.45 -37.25 -23.9 -32.35 -21.4 -28.4 -19.65 -26.15 M-28.2 -38.15 L-28.6 -37.8 -29.0 -38.55 -29.0 -39.25 -28.2 -38.15 M-18.5 -15.35 L-17.05 -12.35 -17.8 -13.35 Q-18.45 -14.4 -18.5 -15.35" fill="#c79b68" fill-rule="evenodd" stroke="none"/>
      <path d="M27.25 -41.5 L27.1 -42.1 27.1 -42.15 27.6 -41.4 27.7 -41.45 27.7 -41.4 27.75 -41.15 27.85 -41.0 27.25 -41.5 M-9.7 -22.6 Q-8.9 -22.45 -8.45 -22.1 L-8.05 -21.55 -5.9 -21.85 -6.4 -23.3 Q-5.0 -24.05 -4.75 -22.35 L-4.7 -22.1 -4.65 -22.15 -4.0 -22.05 -3.9 -24.05 -3.65 -24.05 -3.4 -21.65 -3.3 -21.55 Q-3.0 -21.15 -1.75 -21.0 L-0.8 -21.0 -0.65 -20.85 -1.15 -22.6 -0.9 -23.65 Q-0.6 -23.15 -0.35 -21.7 L0.0 -20.05 0.2 -19.85 0.5 -21.3 0.45 -22.25 0.6 -22.25 1.35 -19.85 1.45 -19.85 1.35 -20.0 1.45 -20.4 0.95 -21.15 1.1 -21.3 1.6 -20.65 1.65 -20.7 Q1.1 -22.4 1.1 -23.1 L1.2 -24.0 1.35 -24.0 2.1 -21.65 2.25 -21.2 2.75 -21.5 3.3 -21.7 2.6 -24.5 Q3.35 -24.6 3.9 -23.2 L4.45 -21.7 4.65 -22.2 Q4.95 -22.6 5.55 -22.45 L5.5 -22.6 5.25 -24.65 Q5.25 -25.25 5.6 -25.25 L6.4 -23.4 6.75 -22.55 Q7.05 -23.15 7.45 -23.15 L7.55 -23.15 7.85 -23.5 8.1 -24.0 7.7 -25.65 7.85 -25.75 8.55 -24.25 9.75 -24.15 9.8 -24.15 9.5 -25.0 9.6 -25.5 Q10.25 -25.4 10.85 -24.15 L11.1 -24.15 11.1 -24.5 Q11.1 -25.6 12.1 -25.15 L11.95 -26.15 12.1 -26.25 12.85 -24.65 13.35 -23.9 14.6 -24.9 15.05 -24.3 14.85 -24.9 14.95 -25.5 15.1 -25.5 15.8 -23.8 16.35 -24.35 15.2 -28.15 15.35 -28.25 17.15 -25.05 17.85 -25.7 17.45 -28.25 17.65 -28.65 17.85 -28.65 Q18.7 -27.7 19.05 -26.4 L19.45 -26.6 20.15 -26.85 Q19.35 -28.6 19.35 -29.15 L19.35 -29.4 19.6 -29.5 Q20.5 -28.55 20.9 -26.9 L21.35 -26.7 20.95 -28.75 21.1 -28.75 21.9 -27.55 21.75 -28.35 21.85 -28.9 22.2 -28.9 23.05 -26.65 23.1 -26.55 23.0 -27.15 23.45 -27.15 23.5 -27.1 23.85 -27.6 23.85 -27.7 Q23.85 -28.2 24.35 -28.65 24.85 -29.05 25.4 -29.05 L26.1 -29.55 26.9 -30.05 27.35 -31.15 27.4 -31.25 27.55 -31.2 28.05 -31.85 28.3 -32.65 28.2 -32.85 28.1 -33.1 28.2 -33.9 27.85 -34.6 27.85 -34.7 28.1 -35.25 28.25 -35.6 28.6 -36.65 27.95 -38.35 28.2 -38.3 28.3 -38.45 28.3 -38.75 28.4 -38.9 28.45 -39.3 28.4 -39.9 28.55 -39.65 Q28.75 -40.45 29.2 -40.5 29.6 -39.5 29.8 -37.95 L29.95 -35.2 29.95 -34.6 29.75 -34.1 29.6 -33.95 29.1 -32.5 28.9 -31.7 28.8 -31.2 28.7 -30.65 28.55 -29.35 28.15 -29.35 Q27.7 -28.55 27.0 -26.1 L25.75 -23.6 Q23.9 -22.85 20.0 -20.9 L16.55 -19.55 14.85 -19.15 14.85 -19.05 14.35 -18.9 14.3 -19.0 12.35 -18.4 8.75 -17.5 6.85 -17.05 6.7 -17.05 5.65 -16.95 0.9 -16.85 -11.3 -20.3 -11.35 -20.6 -11.65 -20.6 -11.65 -20.4 Q-12.55 -20.4 -13.05 -20.75 L-15.4 -22.65 -15.5 -22.6 -15.65 -22.6 -15.6 -22.5 -15.95 -22.2 -16.55 -23.2 -19.25 -25.75 -19.65 -26.15 -21.4 -28.4 -23.9 -32.35 -24.65 -33.45 -27.5 -37.45 -27.8 -37.9 -27.75 -37.9 -27.15 -37.1 -27.05 -37.2 -26.8 -37.0 -26.65 -37.0 -26.3 -36.6 -25.75 -36.0 -24.55 -34.8 -22.15 -31.75 -22.15 -31.7 -20.5 -29.9 -19.1 -27.6 -18.5 -26.75 Q-17.25 -24.4 -16.1 -24.4 L-15.25 -23.9 Q-14.5 -23.3 -13.4 -22.9 L-13.4 -23.0 -13.6 -23.25 -12.3 -22.2 -12.25 -22.05 -12.15 -22.15 -11.8 -22.05 -11.05 -21.95 Q-10.25 -21.8 -9.65 -21.15 -9.15 -21.25 -9.15 -21.4 -9.15 -21.95 -9.7 -22.6 M0.8 -19.65 L0.75 -20.0 0.7 -19.65 0.8 -19.65 M-2.15 -23.0 L-1.85 -21.55 -2.3 -23.0 -2.15 -23.0" fill="#d07165" fill-rule="evenodd" stroke="none"/>
      <path d="M16.05 -33.4 L16.35 -33.3 17.2 -32.9 17.5 -33.1 Q17.55 -33.3 17.95 -33.3 L19.15 -32.05 19.05 -31.75 17.65 -31.55 17.0 -31.8 Q16.5 -31.8 16.45 -31.55 L16.15 -31.35 15.7 -31.6 15.5 -32.0 15.85 -32.35 15.7 -32.8 15.5 -33.2 15.55 -33.3 16.05 -33.4 M27.85 -34.6 L27.4 -34.65 Q26.7 -34.65 26.65 -34.35 L26.65 -34.25 27.3 -33.95 Q26.65 -33.85 26.65 -33.3 L26.65 -32.9 25.5 -32.35 Q24.05 -32.35 23.05 -31.85 L21.55 -31.8 Q20.9 -31.8 20.4 -32.2 20.0 -32.55 20.0 -32.9 20.0 -33.25 20.8 -33.8 21.65 -34.4 22.45 -34.4 22.95 -34.4 23.5 -33.95 23.45 -34.6 23.85 -34.55 L24.5 -34.3 24.8 -34.3 25.05 -34.65 25.1 -34.65 26.05 -34.45 26.0 -34.85 Q26.0 -35.25 27.25 -35.3 27.0 -35.65 25.85 -35.65 25.7 -35.35 25.7 -36.0 25.7 -36.6 25.95 -37.0 L26.65 -36.35 26.45 -36.95 Q26.3 -37.25 26.45 -37.5 25.75 -37.5 25.75 -38.15 25.75 -38.9 26.65 -38.6 27.55 -38.3 27.55 -37.3 L27.2 -36.8 26.7 -36.35 27.0 -36.15 26.95 -36.05 28.0 -35.3 28.1 -35.25 27.85 -34.7 27.85 -34.6 M20.8 -29.6 L20.6 -29.45 20.8 -29.65 20.8 -29.6 M9.8 -31.8 L10.3 -31.6 11.9 -31.95 Q12.9 -32.1 12.9 -31.15 12.9 -30.45 11.3 -30.0 L8.8 -29.65 8.05 -29.2 Q7.0 -29.2 7.0 -29.95 7.0 -30.15 7.65 -30.35 L8.85 -30.8 9.25 -31.4 Q9.45 -31.8 9.8 -31.8 M13.55 -31.9 Q13.55 -32.3 13.9 -32.3 14.35 -32.3 14.5 -31.9 L14.75 -31.3 14.3 -31.0 13.75 -31.45 13.55 -31.9" fill="#ffc4c4" fill-rule="evenodd" stroke="none"/>
      <path d="M32.6 -34.15 L32.75 -33.4 32.65 -25.1 32.4 -23.4 32.35 -24.3 Q32.35 -30.9 32.6 -34.15" fill="#000000" fill-rule="evenodd" stroke="none"/>
    </g>
  </defs>
</svg>
