<?xml version="1.0" encoding="UTF-8" standalone="no"?>
<svg xmlns:ffdec="https://www.free-decompiler.com/flash" xmlns:xlink="http://www.w3.org/1999/xlink" ffdec:objectType="frame" height="59.95px" width="35.0px" xmlns="http://www.w3.org/2000/svg">
  <g transform="matrix(1.0, 0.0, 0.0, 1.0, 17.5, 29.95)">
    <use ffdec:characterId="1043" height="59.95" transform="matrix(1.0, 0.0, 0.0, 1.0, -17.5, -29.95)" width="35.0" xlink:href="#shape0"/>
  </g>
  <defs>
    <g id="shape0" transform="matrix(1.0, 0.0, 0.0, 1.0, 17.5, 29.95)">
      <path d="M-17.5 2.4 L-17.5 -27.0 Q-17.5 -28.2 -16.6 -29.1 -15.75 -29.95 -14.5 -29.95 L14.5 -29.95 Q15.75 -29.95 16.6 -29.1 17.5 -28.2 17.5 -27.0 L17.5 -3.15 -17.5 2.4" fill="#439550" fill-rule="evenodd" stroke="none"/>
      <path d="M17.5 -3.15 L17.5 27.0 Q17.5 28.25 16.6 29.1 L15.8 29.7 14.5 30.0 -14.5 30.0 -15.8 29.7 -16.6 29.1 Q-17.5 28.25 -17.5 27.0 L-17.5 2.4 17.5 -3.15" fill="#3c8446" fill-rule="evenodd" stroke="none"/>
      <path d="M-14.0 26.5 L14.0 26.5 14.0 -26.5 -14.0 -26.5 -14.0 26.5 M-14.5 -28.0 L14.5 -28.0 15.2 -27.7 15.5 -27.0 15.5 27.0 15.2 27.7 14.5 28.0 -14.5 28.0 -15.2 27.7 -15.5 27.0 -15.5 -27.0 -15.2 -27.7 -14.5 -28.0" fill="#ffffff" fill-rule="evenodd" stroke="none"/>
      <path d="M1.1 27.45 Q1.1 28.05 0.7 28.5 0.25 28.9 -0.35 28.9 -0.95 28.9 -1.35 28.5 L-1.8 27.45 Q-1.8 26.85 -1.35 26.45 -0.95 26.0 -0.35 26.0 0.25 26.0 0.7 26.45 1.1 26.85 1.1 27.45" fill="#6f6f6f" fill-rule="evenodd" stroke="none"/>
      <path d="M1.75 26.55 Q1.75 27.15 1.35 27.6 0.9 28.0 0.3 28.0 -0.3 28.0 -0.7 27.6 L-1.15 26.55 Q-1.15 25.95 -0.7 25.55 -0.3 25.1 0.3 25.1 0.9 25.1 1.35 25.55 1.75 25.95 1.75 26.55" fill="#9a9999" fill-rule="evenodd" stroke="none"/>
      <path d="M1.1 -26.55 Q1.1 -25.95 0.7 -25.5 0.25 -25.1 -0.35 -25.1 -0.95 -25.1 -1.35 -25.5 -1.8 -25.95 -1.8 -26.55 -1.8 -27.15 -1.35 -27.55 -0.95 -28.0 -0.35 -28.0 0.25 -28.0 0.7 -27.55 1.1 -27.15 1.1 -26.55" fill="#6f6f6f" fill-rule="evenodd" stroke="none"/>
      <path d="M1.75 -27.45 Q1.75 -26.85 1.35 -26.4 0.9 -26.0 0.3 -26.0 -0.3 -26.0 -0.7 -26.4 -1.15 -26.85 -1.15 -27.45 -1.15 -28.05 -0.7 -28.45 -0.3 -28.9 0.3 -28.9 L1.35 -28.45 Q1.75 -28.05 1.75 -27.45" fill="#9a9999" fill-rule="evenodd" stroke="none"/>
    </g>
  </defs>
</svg>
