<?xml version="1.0" encoding="UTF-8" standalone="no"?>
<svg xmlns:ffdec="https://www.free-decompiler.com/flash" xmlns:xlink="http://www.w3.org/1999/xlink" ffdec:objectType="frame" height="55.6px" width="30.75px" xmlns="http://www.w3.org/2000/svg">
  <g transform="matrix(1.0, 0.0, 0.0, 1.0, 15.25, 28.4)">
    <use ffdec:characterId="2196" height="54.1" transform="matrix(1.0, 0.0, 0.0, 1.0, -14.85, -26.95)" width="29.7" xlink:href="#shape0"/>
    <use ffdec:characterId="1081" height="100.0" id="shape" transform="matrix(0.27, 0.0, 0.0, 0.52, -13.4987, -25.9987)" width="100.0" xlink:href="#sprite0"/>
  </g>
  <defs>
    <g id="shape0" transform="matrix(1.0, 0.0, 0.0, 1.0, 14.85, 26.95)">
      <path d="M14.8 -14.05 L14.3 -9.35 13.6 -6.3 Q13.05 -4.75 12.8 -2.95 L11.45 3.75 Q10.9 6.4 10.95 7.45 L10.4 11.3 9.75 17.75 Q9.2 22.85 8.4 24.1 L5.95 26.5 Q4.35 27.7 0.45 26.75 -3.45 25.8 -4.45 25.05 -5.5 24.3 -7.3 21.15 -9.95 17.25 -12.0 10.2 -13.3 5.85 -14.1 -2.95 L-14.45 -5.1 -14.75 -7.55 -14.85 -10.2 -14.65 -11.95 -13.4 -16.1 -12.8 -17.8 -12.35 -18.75 Q-6.45 -28.6 6.0 -26.6 9.5 -25.85 12.0 -22.9 13.3 -21.35 14.1 -19.35 15.0 -16.8 14.8 -14.05 M-11.3 -12.25 Q-10.55 -10.4 -8.3 -8.95 -6.1 -7.5 2.5 -12.0 -9.0 -11.75 -11.3 -12.25 M3.4 5.0 L3.25 5.0 3.05 12.1 Q2.9 18.2 4.95 19.4 7.0 20.55 6.5 15.1 L5.25 11.4 3.4 5.0" fill="#ffcc99" fill-rule="evenodd" stroke="none"/>
      <path d="M3.4 5.0 L5.25 11.4 6.5 15.1 Q7.0 20.55 4.95 19.4 2.9 18.2 3.05 12.1 L3.25 5.0 3.4 5.0 M-11.3 -12.25 Q-9.0 -11.75 2.5 -12.0 -6.1 -7.5 -8.3 -8.95 -10.55 -10.4 -11.3 -12.25" fill="#f4c398" fill-rule="evenodd" stroke="none"/>
    </g>
    <g id="sprite0" transform="matrix(1.0, 0.0, 0.0, 1.0, 50.0, 50.0)">
      <use ffdec:characterId="1080" height="100.0" transform="matrix(1.0, 0.0, 0.0, 1.0, -50.0, -50.0)" width="100.0" xlink:href="#shape1"/>
    </g>
    <g id="shape1" transform="matrix(1.0, 0.0, 0.0, 1.0, 50.0, 50.0)">
      <path d="M50.0 50.0 L-50.0 50.0 -50.0 -50.0 50.0 -50.0 50.0 50.0 Z" fill="none" stroke="#9900ff" stroke-linecap="round" stroke-linejoin="round" stroke-width="0.05"/>
    </g>
  </defs>
</svg>
