<?xml version="1.0" encoding="UTF-8" standalone="no"?>
<svg xmlns:ffdec="https://www.free-decompiler.com/flash" xmlns:xlink="http://www.w3.org/1999/xlink" ffdec:objectType="frame" height="10.7px" width="5.95px" xmlns="http://www.w3.org/2000/svg">
  <g transform="matrix(1.0, 0.0, 0.0, 1.0, 2.95, 6.05)">
    <use ffdec:characterId="868" height="9.55" transform="matrix(1.0, 0.0, 0.0, 1.0, -2.2, -4.9)" width="4.6" xlink:href="#shape0"/>
  </g>
  <defs>
    <g id="shape0" transform="matrix(1.0, 0.0, 0.0, 1.0, 2.2, 4.9)">
      <path d="M0.3 -3.5 L-0.2 -2.8 0.2 -1.7 -0.25 -0.8 0.4 -0.25 -0.35 1.2 -0.7 1.4 -0.75 1.25 Q-0.65 0.65 -1.1 0.35 L-0.85 -1.2 -0.4 -1.75 -0.95 -3.1 Q-1.35 -2.8 -1.5 -3.25 L-1.55 -3.7 -1.65 -3.9 -1.95 -3.7 -1.9 -3.9 -1.6 -4.2 -1.45 -4.1 -1.35 -4.0 -0.25 -4.1 0.3 -3.5" fill="#f2faaf" fill-rule="evenodd" stroke="none"/>
      <path d="M0.3 -3.5 L1.5 -2.8 Q1.75 -1.75 1.15 -0.8 L1.1 -0.7 1.1 0.4 1.75 1.35 1.85 2.0 1.0 2.65 0.8 3.6 0.65 4.1 0.25 3.95 0.05 3.65 -1.1 3.5 -1.95 3.25 Q-2.3 2.3 -2.1 1.2 L-1.8 -0.05 Q-2.25 -0.85 -2.2 -1.75 L-2.1 -3.0 -1.9 -1.55 Q-1.75 -0.85 -1.75 -0.15 -1.75 0.7 -1.1 0.35 -0.65 0.65 -0.75 1.25 L-0.7 1.4 -0.35 1.2 0.4 -0.25 -0.25 -0.8 0.2 -1.7 -0.2 -2.8 0.3 -3.5" fill="#d07848" fill-rule="evenodd" stroke="none"/>
      <path d="M-1.95 3.25 L-1.1 3.5 0.05 3.65 0.25 3.95 0.65 4.1 0.8 3.6 1.0 2.65 1.85 2.0 1.75 1.35 1.1 0.4 1.1 -0.7 1.15 -0.8 Q1.75 -1.75 1.5 -2.8 L0.3 -3.5 -0.25 -4.1 -1.35 -4.0 -1.45 -4.1 -1.6 -4.2 -0.75 -4.9 Q1.0 -4.8 1.95 -3.3 L2.3 -2.3 2.4 0.35 2.2 2.35 2.0 3.4 Q1.7 4.25 0.85 4.5 -1.2 5.15 -1.95 3.25 M-1.9 -3.9 L-1.95 -3.9 -1.9 -3.9" fill="#ac592d" fill-rule="evenodd" stroke="none"/>
      <path d="M-1.1 0.35 Q-1.75 0.7 -1.75 -0.15 -1.75 -0.85 -1.9 -1.55 L-2.1 -3.0 -1.95 -3.7 -1.65 -3.9 -1.55 -3.7 -1.5 -3.25 Q-1.35 -2.8 -0.95 -3.1 L-0.4 -1.75 -0.85 -1.2 -1.1 0.35" fill="#ffffff" fill-rule="evenodd" stroke="none"/>
    </g>
  </defs>
</svg>
