<?xml version="1.0" encoding="UTF-8" standalone="no"?>
<svg xmlns:ffdec="https://www.free-decompiler.com/flash" xmlns:xlink="http://www.w3.org/1999/xlink" ffdec:objectType="frame" height="33.4px" width="34.15px" xmlns="http://www.w3.org/2000/svg">
  <g transform="matrix(1.0, 0.0, 0.0, 1.0, 14.8, 33.1)">
    <use ffdec:characterId="2079" height="33.4" transform="matrix(1.0, 0.0, 0.0, 1.0, -14.8, -33.1)" width="34.15" xlink:href="#shape0"/>
  </g>
  <defs>
    <g id="shape0" transform="matrix(1.0, 0.0, 0.0, 1.0, 14.8, 33.1)">
      <path d="M-14.75 -15.0 L-14.75 -12.55 -14.75 -13.1 -14.75 -15.0" fill="#ffffff" fill-rule="evenodd" stroke="none"/>
      <path d="M18.95 -31.35 L16.55 -31.95 Q8.95 -31.95 8.0 -28.9 L8.2 -29.1 8.95 -29.3 Q9.45 -29.3 10.7 -28.5 12.05 -27.6 12.05 -27.0 L11.7 -20.85 Q11.3 -14.75 11.5 -7.45 11.65 -2.25 8.2 -0.55 L8.1 -0.55 Q7.2 -0.05 5.05 0.15 L1.15 0.3 0.7 0.15 -4.55 -0.25 -5.05 -0.35 Q-14.3 -3.25 -13.45 -12.0 -12.6 -20.75 -8.05 -32.55 L8.3 -32.55 12.9 -33.0 18.35 -32.7 18.95 -31.35" fill="#333333" fill-rule="evenodd" stroke="none"/>
      <path d="M8.2 -0.55 Q11.65 -2.25 11.5 -7.45 11.3 -14.75 11.7 -20.85 L12.05 -27.0 Q12.05 -27.6 10.7 -28.5 9.45 -29.3 8.95 -29.3 L8.2 -29.1 8.0 -28.9 Q8.95 -31.95 16.55 -31.95 L18.95 -31.35 18.95 -31.05 18.95 -30.85 19.0 -29.8 19.0 -29.35 19.25 -24.5 19.2 -24.3 19.25 -23.8 19.3 -23.55 19.3 -23.4 19.35 -21.6 19.25 -21.1 19.2 -20.55 18.15 -13.2 18.1 -12.75 18.05 -12.55 17.95 -12.05 Q15.55 -0.7 10.5 -0.7 L10.1 -0.75 8.2 -0.55 M-8.05 -32.55 Q-12.6 -20.75 -13.45 -12.0 -14.3 -3.25 -5.05 -0.35 -7.05 -0.75 -8.65 -1.65 -11.9 -3.6 -13.25 -6.45 L-14.1 -8.55 -14.65 -11.3 -14.7 -11.6 -14.75 -12.55 -14.75 -15.0 -14.7 -17.05 -14.5 -18.95 -14.3 -20.6 -13.25 -28.4 -13.1 -29.35 -12.65 -32.55 -8.05 -32.55" fill="#444444" fill-rule="evenodd" stroke="none"/>
    </g>
  </defs>
</svg>
