<?xml version="1.0" encoding="UTF-8" standalone="no"?>
<svg xmlns:ffdec="https://www.free-decompiler.com/flash" xmlns:xlink="http://www.w3.org/1999/xlink" ffdec:objectType="frame" height="10.0px" width="10.0px" xmlns="http://www.w3.org/2000/svg">
  <g transform="matrix(1.0, 0.0, 0.0, 1.0, 5.0, 5.0)">
    <use ffdec:characterId="2856" height="10.0" transform="matrix(1.0, 0.0, 0.0, 1.0, -5.0, -5.0)" width="10.0" xlink:href="#shape0"/>
  </g>
  <defs>
    <g id="shape0" transform="matrix(1.0, 0.0, 0.0, 1.0, 5.0, 5.0)">
      <path d="M2.0 -4.0 L3.0 -4.0 3.0 -3.0 4.0 -3.0 4.0 -2.0 5.0 -2.0 5.0 2.0 4.0 2.0 4.0 3.0 3.0 3.0 3.0 4.0 2.0 4.0 2.0 5.0 -2.0 5.0 -2.0 4.0 -3.0 4.0 -3.0 3.0 -4.0 3.0 -4.0 2.0 -5.0 2.0 -5.0 -2.0 -4.0 -2.0 -4.0 -3.0 -3.0 -3.0 -3.0 -4.0 -2.0 -4.0 -2.0 -5.0 2.0 -5.0 2.0 -4.0 -2.0 -4.0 -2.0 -3.0 -3.0 -3.0 -3.0 -2.0 -4.0 -2.0 -4.0 2.0 -3.0 2.0 -3.0 3.0 -2.0 3.0 -2.0 4.0 2.0 4.0 2.0 3.0 3.0 3.0 3.0 2.0 4.0 2.0 4.0 -2.0 3.0 -2.0 3.0 -3.0 2.0 -3.0 2.0 -4.0" fill="#000000" fill-rule="evenodd" stroke="none"/>
      <path d="M2.0 -4.0 L2.0 -3.0 3.0 -3.0 3.0 -2.0 4.0 -2.0 4.0 2.0 3.0 2.0 3.0 3.0 2.0 3.0 2.0 4.0 -2.0 4.0 -2.0 3.0 -3.0 3.0 -3.0 2.0 -4.0 2.0 -4.0 -2.0 -3.0 -2.0 -3.0 -3.0 -2.0 -3.0 -2.0 -4.0 2.0 -4.0 M2.0 -3.0 L-2.0 -3.0 -2.0 -2.0 -3.0 -2.0 -3.0 2.0 -2.0 2.0 -2.0 3.0 2.0 3.0 2.0 2.0 3.0 2.0 3.0 -2.0 2.0 -2.0 2.0 -3.0" fill="#ffffff" fill-rule="evenodd" stroke="none"/>
    </g>
  </defs>
</svg>
