<?xml version="1.0" encoding="UTF-8" standalone="no"?>
<svg xmlns:ffdec="https://www.free-decompiler.com/flash" xmlns:xlink="http://www.w3.org/1999/xlink" ffdec:objectType="frame" height="40.55px" width="55.95px" xmlns="http://www.w3.org/2000/svg">
  <g transform="matrix(1.0, 0.0, 0.0, 1.0, 27.5, 20.5)">
    <use ffdec:characterId="845" height="40.25" transform="matrix(1.0, 0.0, 0.0, 1.0, -27.25, -20.2)" width="55.35" xlink:href="#shape0"/>
  </g>
  <defs>
    <g id="shape0" transform="matrix(1.0, 0.0, 0.0, 1.0, 27.25, 20.2)">
      <path d="M0.6 -10.55 L-13.25 -10.05 -12.05 -19.35 11.85 -20.2 13.65 -11.05 0.6 -10.55" fill="#9b9375" fill-rule="evenodd" stroke="none"/>
      <path d="M-2.75 20.05 L-3.2 20.05 -6.65 20.05 -8.2 20.05 -9.65 20.05 -24.3 20.05 -26.5 8.05 26.5 8.05 24.3 20.05 22.35 20.05 18.35 20.05 7.0 20.05 5.4 20.05 2.75 20.05 -2.75 20.05" fill="#252721" fill-rule="evenodd" stroke="none"/>
      <path d="M-26.65 -17.4 L-25.95 -19.35 6.85 -18.45 23.75 -19.25 24.1 -18.95 25.65 -17.75 26.25 -17.35 26.3 -17.3 7.25 -16.2 -26.35 -17.4 -26.65 -17.4" fill="#e4e2da" fill-rule="evenodd" stroke="none"/>
      <path d="M-26.65 -17.4 L-26.35 -17.4 7.25 -16.2 26.3 -17.3 26.5 -17.2 26.95 -1.2 27.0 -1.0 28.1 3.95 27.5 16.5 14.2 15.35 -26.6 16.6 -27.1 9.35 -27.2 2.05 -27.05 -4.85 -26.9 -11.85 -26.65 -17.4" fill="#c8c3af" fill-rule="evenodd" stroke="none"/>
      <path d="M27.5 16.5 L27.55 16.5 27.55 16.6 Q27.55 17.45 27.0 18.05 L26.75 18.3 13.55 16.85 -7.0 18.05 -7.3 18.0 -7.5 18.0 -8.2 18.05 -26.1 18.4 -26.6 16.6 14.2 15.35 27.5 16.5" fill="#9b9375" fill-rule="evenodd" stroke="none"/>
      <path d="M12.15 -11.6 L15.75 -15.05 15.25 14.95 11.75 11.4 12.15 -11.6" fill="#252721" fill-rule="evenodd" stroke="none"/>
      <path d="M15.75 -15.05 L12.15 -11.6 -20.85 -12.1 -24.25 -15.75 15.75 -15.05 M11.75 11.4 L15.25 14.95 -24.75 14.25 -21.25 10.9 11.75 11.4" fill="#3e4138" fill-rule="evenodd" stroke="none"/>
      <path d="M15.25 14.95 L15.75 -15.05 16.75 -15.05 16.25 14.95 15.25 14.95 M-24.75 14.25 L-25.75 14.25 -25.25 -15.75 -24.25 -15.75 -24.75 14.25" fill="#e4e2da" fill-rule="evenodd" stroke="none"/>
      <path d="M12.15 -11.6 L11.75 11.4 -21.25 10.9 -24.75 14.25 -24.25 -15.75 -20.85 -12.1 12.15 -11.6" fill="#5a5f52" fill-rule="evenodd" stroke="none"/>
      <path d="M-4.25 -13.25 L-1.4 -13.2 7.3 -12.65 9.05 -12.4 Q11.85 -12.05 12.15 -11.6 L11.95 -0.95 -4.45 -3.6 -5.0 -5.3 8.05 -10.65 -2.4 -6.95 -3.0 -8.05 -6.9 -6.6 -7.55 -7.7 -8.4 -8.2 -4.25 -13.25 M11.95 0.35 L11.75 11.4 11.2 11.75 11.15 11.75 9.75 12.0 -2.35 2.7 5.6 8.05 6.1 7.75 -2.1 1.3 -0.75 -1.0 11.95 0.35 M6.5 12.3 L0.25 12.55 -0.25 12.55 -2.35 12.55 -4.75 12.5 -5.65 12.5 -8.15 1.8 -7.3 2.2 -4.45 8.15 -4.15 8.25 -7.85 -0.1 -2.5 8.8 -2.0 8.95 -4.3 4.55 -3.6 4.5 6.5 12.3 M-6.9 12.5 L-10.95 12.3 -10.3 1.7 -9.45 1.05 -6.9 12.5 M-13.3 12.2 L-16.45 11.9 -16.7 11.9 -19.25 11.55 Q-21.0 11.2 -21.2 10.85 L-21.25 10.85 -21.15 4.45 -16.4 0.35 -14.25 1.5 -16.0 5.25 -15.6 5.4 -13.65 1.95 -12.3 1.3 -13.3 12.2 M-21.1 3.8 L-21.0 -2.15 -16.75 -2.25 -16.3 -1.3 -21.1 3.8 M-21.0 -4.3 L-20.85 -11.25 -14.35 -7.2 -14.95 -6.45 -20.4 -8.55 -15.05 -5.5 -14.95 -4.55 -21.0 -4.3 M-17.35 -12.9 L-16.05 -13.0 -14.0 -13.15 -11.9 -8.0 -12.6 -7.8 -17.35 -12.9 M-13.0 -13.15 L-10.7 -13.3 -10.55 -8.4 -11.5 -8.1 -13.0 -13.15" fill="#929a87" fill-rule="evenodd" stroke="none"/>
      <path d="M11.95 -0.95 L11.95 0.35 -0.75 -1.0 -3.75 -1.3 -4.25 -0.35 -2.1 1.3 6.1 7.75 5.6 8.05 -2.35 2.7 9.75 12.0 8.1 12.2 -2.6 4.4 -3.6 4.5 -4.3 4.55 -2.0 8.95 -2.5 8.8 -7.85 -0.1 -4.15 8.25 -4.45 8.15 -7.3 2.2 -8.15 1.8 -5.65 12.5 -6.8 12.5 -6.9 12.5 -9.45 1.05 -10.3 1.7 -10.95 12.3 -11.9 12.25 -11.45 0.85 -12.3 1.3 -13.65 1.95 -15.6 5.4 -16.0 5.25 -14.25 1.5 -16.4 0.35 -21.15 4.45 -21.1 3.8 -16.3 -1.3 -16.75 -2.25 -21.0 -2.15 -21.0 -4.3 -14.95 -4.55 -15.05 -5.5 -20.4 -8.55 -14.95 -6.45 -14.35 -7.2 -14.0 -7.6 -19.25 -12.6 -18.85 -12.7 -17.35 -12.9 -12.6 -7.8 -11.9 -8.0 -14.0 -13.15 -13.0 -13.15 -11.5 -8.1 -10.55 -8.4 -10.7 -13.3 -7.4 -13.3 -9.25 -8.7 -8.4 -8.2 -7.55 -7.7 -6.9 -6.6 -3.0 -8.05 -2.4 -6.95 8.05 -10.65 -5.0 -5.3 -4.45 -3.6 11.95 -0.95" fill="#565b4d" fill-rule="evenodd" stroke="none"/>
      <path d="M8.1 12.2 L6.9 12.25 6.5 12.3 -3.6 4.5 -2.6 4.4 8.1 12.2 M-11.9 12.25 L-13.3 12.2 -12.3 1.3 -11.45 0.85 -11.9 12.25 M-20.85 -11.25 L-20.85 -12.15 -20.8 -12.15 -20.6 -12.3 -19.25 -12.6 -14.0 -7.6 -14.35 -7.2 -20.85 -11.25 M-7.4 -13.3 L-4.35 -13.3 -4.25 -13.25 -8.4 -8.2 -9.25 -8.7 -7.4 -13.3 M-2.1 1.3 L-4.25 -0.35 -3.75 -1.3 -0.75 -1.0 -2.1 1.3" fill="#aab49d" fill-rule="evenodd" stroke="none"/>
      <path d="M26.5 3.15 L26.9 3.15 26.5 7.65 26.0 13.55 25.8 15.5 16.8 14.7 17.5 6.85 17.9 2.35 26.5 3.15 M25.05 12.55 L25.15 11.55 18.15 10.95 18.05 11.95 25.05 12.55 M24.85 14.45 L24.95 13.55 24.95 13.45 17.95 12.85 17.85 13.85 24.85 14.45 M25.4 8.75 L25.5 7.75 18.5 7.15 18.4 8.15 25.4 8.75 M25.75 5.0 L25.85 4.0 18.85 3.4 18.75 4.4 25.75 5.0 M25.2 10.65 L25.3 9.65 18.3 9.05 18.2 10.05 25.2 10.65 M25.55 6.9 L25.65 5.9 18.65 5.3 18.55 6.3 25.55 6.9" fill="#c8c3af" fill-rule="evenodd" stroke="none"/>
      <path d="M26.5 7.65 L26.5 13.55 26.0 13.55 26.5 7.65 M17.5 6.85 L17.5 1.1 26.5 1.1 26.5 3.15 17.9 2.35 17.5 6.85" fill="#66614a" fill-rule="evenodd" stroke="none"/>
      <path d="M25.55 6.9 L18.55 6.3 18.65 5.3 25.65 5.9 25.55 6.9 M25.2 10.65 L18.2 10.05 18.3 9.05 25.3 9.65 25.2 10.65 M25.75 5.0 L18.75 4.4 18.85 3.4 25.85 4.0 25.75 5.0 M25.4 8.75 L18.4 8.15 18.5 7.15 25.5 7.75 25.4 8.75 M24.85 14.45 L17.85 13.85 17.95 12.85 24.95 13.45 24.95 13.55 24.85 14.45 M25.05 12.55 L18.05 11.95 18.15 10.95 25.15 11.55 25.05 12.55" fill="#9b9375" fill-rule="evenodd" stroke="none"/>
      <path d="M24.1 -9.1 Q23.15 -8.4 21.9 -8.65 20.6 -8.9 19.95 -9.9 19.25 -10.9 19.5 -12.15 L20.5 -11.95 20.5 -11.9 Q20.35 -11.05 20.8 -10.4 21.3 -9.75 22.1 -9.6 22.95 -9.45 23.6 -9.85 L24.1 -9.1 M20.75 -14.1 Q21.7 -14.8 23.0 -14.55 24.25 -14.3 24.9 -13.3 25.65 -12.3 25.4 -11.05 L24.45 -11.2 Q24.55 -12.05 24.1 -12.65 23.65 -13.35 22.8 -13.5 22.0 -13.65 21.35 -13.2 L20.75 -14.1 M19.1 -4.35 L19.1 -4.3 Q18.95 -3.45 19.4 -2.8 19.9 -2.15 20.7 -2.0 21.55 -1.85 22.2 -2.25 L22.25 -2.25 22.7 -1.55 Q21.75 -0.8 20.5 -1.05 19.2 -1.3 18.55 -2.35 17.85 -3.35 18.1 -4.55 L19.1 -4.35 M23.05 -3.6 Q23.15 -4.45 22.7 -5.05 22.25 -5.75 21.4 -5.9 20.65 -6.05 19.95 -5.6 L19.35 -6.55 Q20.3 -7.2 21.6 -6.95 22.85 -6.7 23.5 -5.75 24.25 -4.75 24.0 -3.45 L23.05 -3.6" fill="#9b9375" fill-rule="evenodd" stroke="none"/>
      <path d="M23.6 -9.85 Q22.95 -9.45 22.1 -9.6 21.3 -9.75 20.8 -10.4 20.35 -11.05 20.5 -11.9 L20.5 -11.95 Q20.65 -12.75 21.3 -13.2 L21.35 -13.2 Q22.0 -13.65 22.8 -13.5 23.65 -13.35 24.1 -12.65 24.55 -12.05 24.45 -11.2 L24.4 -11.15 Q24.25 -10.3 23.6 -9.85 M22.25 -2.25 L22.2 -2.25 Q21.55 -1.85 20.7 -2.0 19.9 -2.15 19.4 -2.8 18.95 -3.45 19.1 -4.3 L19.1 -4.35 Q19.25 -5.15 19.9 -5.6 L19.95 -5.6 Q20.65 -6.05 21.4 -5.9 22.25 -5.75 22.7 -5.05 23.15 -4.45 23.05 -3.6 L23.0 -3.55 Q22.85 -2.7 22.25 -2.25 M19.65 -3.75 L19.95 -3.0 22.55 -4.2 22.25 -4.95 19.65 -3.75 M22.6 -13.05 L21.8 -12.9 22.2 -10.1 23.0 -10.25 22.6 -13.05" fill="#66614a" fill-rule="evenodd" stroke="none"/>
      <path d="M19.65 -3.75 L22.25 -4.95 22.55 -4.2 19.95 -3.0 19.65 -3.75 M22.6 -13.05 L23.0 -10.25 22.2 -10.1 21.8 -12.9 22.6 -13.05" fill="#e4e2da" fill-rule="evenodd" stroke="none"/>
      <path d="M19.5 -12.15 Q19.75 -13.4 20.75 -14.1 L21.35 -13.2 21.3 -13.2 Q20.65 -12.75 20.5 -11.95 L19.5 -12.15 M25.4 -11.05 Q25.15 -9.8 24.1 -9.1 L23.6 -9.85 Q24.25 -10.3 24.4 -11.15 L24.45 -11.2 25.4 -11.05 M22.25 -2.25 Q22.85 -2.7 23.0 -3.55 L23.05 -3.6 24.0 -3.45 Q23.75 -2.25 22.7 -1.55 L22.25 -2.25 M19.95 -5.6 L19.9 -5.6 Q19.25 -5.15 19.1 -4.35 L18.1 -4.55 Q18.35 -5.85 19.35 -6.55 L19.95 -5.6" fill="#b5af99" fill-rule="evenodd" stroke="none"/>
    </g>
  </defs>
</svg>
