<?xml version="1.0" encoding="UTF-8" standalone="no"?>
<svg xmlns:ffdec="https://www.free-decompiler.com/flash" xmlns:xlink="http://www.w3.org/1999/xlink" ffdec:objectType="frame" height="40.55px" width="55.95px" xmlns="http://www.w3.org/2000/svg">
  <g transform="matrix(1.0, 0.0, 0.0, 1.0, 27.5, 20.5)">
    <use ffdec:characterId="846" height="40.25" transform="matrix(1.0, 0.0, 0.0, 1.0, -27.25, -20.2)" width="55.6" xlink:href="#shape0"/>
  </g>
  <defs>
    <g id="shape0" transform="matrix(1.0, 0.0, 0.0, 1.0, 27.25, 20.2)">
      <path d="M0.6 -10.55 L-13.25 -10.05 -12.05 -19.35 11.85 -20.2 13.65 -11.05 0.6 -10.55" fill="#9b9375" fill-rule="evenodd" stroke="none"/>
      <path d="M-2.75 20.05 L-3.2 20.05 -6.65 20.05 -8.2 20.05 -9.65 20.05 -24.3 20.05 -26.5 8.05 26.5 8.05 24.3 20.05 22.35 20.05 18.35 20.05 7.0 20.05 5.4 20.05 2.75 20.05 -2.75 20.05" fill="#252721" fill-rule="evenodd" stroke="none"/>
      <path d="M-26.65 -17.4 L-25.95 -19.35 6.85 -18.45 23.75 -19.25 24.1 -18.95 25.65 -17.75 26.25 -17.35 26.3 -17.3 7.25 -16.2 -26.35 -17.4 -26.65 -17.4" fill="#e4e2da" fill-rule="evenodd" stroke="none"/>
      <path d="M-26.65 -17.4 L-26.35 -17.4 7.25 -16.2 26.3 -17.3 26.5 -17.2 26.95 -1.2 27.0 -1.0 28.1 3.95 27.5 16.5 14.2 15.35 -26.6 16.6 -27.1 9.35 -27.2 2.05 -27.05 -4.85 -26.9 -11.85 -26.65 -17.4" fill="#c8c3af" fill-rule="evenodd" stroke="none"/>
      <path d="M27.5 16.5 L27.55 16.5 27.55 16.6 Q27.55 17.45 27.0 18.05 L26.75 18.3 13.55 16.85 -7.0 18.05 -7.3 18.0 -7.5 18.0 -8.2 18.05 -26.1 18.4 -26.6 16.6 14.2 15.35 27.5 16.5" fill="#9b9375" fill-rule="evenodd" stroke="none"/>
      <path d="M11.8 -12.05 L15.3 -15.65 15.7 14.35 12.1 10.95 11.8 -12.05" fill="#252721" fill-rule="evenodd" stroke="none"/>
      <path d="M15.3 -15.65 L11.8 -12.05 -21.2 -11.65 -24.7 -15.15 15.3 -15.65 M12.1 10.95 L15.7 14.35 -24.3 14.85 -20.9 11.35 12.1 10.95" fill="#3e4138" fill-rule="evenodd" stroke="none"/>
      <path d="M15.7 14.35 L15.3 -15.65 16.3 -15.7 16.7 14.3 15.7 14.35 M-24.3 14.85 L-25.3 14.9 -25.7 -15.1 -24.7 -15.15 -24.3 14.85" fill="#e4e2da" fill-rule="evenodd" stroke="none"/>
      <path d="M11.8 -12.05 L12.1 10.95 -20.9 11.35 -24.3 14.85 -24.7 -15.15 -21.2 -11.65 11.8 -12.05" fill="#5a5f52" fill-rule="evenodd" stroke="none"/>
      <path d="M4.0 -12.95 L5.7 -12.8 -1.85 -4.55 -1.4 -5.95 4.0 -12.95 M12.0 -10.4 L12.0 -9.15 -3.65 1.15 -3.55 0.6 12.0 -10.4 M-7.95 12.55 L-8.6 12.55 -9.6 12.5 -5.2 4.7 -4.9 4.85 -7.95 12.55 M-21.05 3.75 L-21.05 2.55 -10.65 3.05 -10.6 3.2 -21.05 3.75 M-21.0 -9.45 L-21.0 -10.85 -4.45 2.45 -4.4 2.55 -21.0 -9.45" fill="#aab49d" fill-rule="evenodd" stroke="none"/>
      <path d="M3.4 -13.0 L4.0 -12.95 -1.4 -5.95 -1.85 -4.55 -3.3 -0.1 11.9 -11.85 12.0 -11.75 12.0 -10.4 -3.55 0.6 -3.65 1.15 -3.85 2.35 12.0 -5.35 11.95 -3.4 -1.1 2.05 -0.65 3.35 11.95 3.8 11.9 4.75 0.55 4.25 -0.45 6.15 7.45 12.2 7.05 12.2 3.7 12.4 -4.2 3.4 -6.95 12.55 -7.95 12.55 -4.9 4.85 -5.2 4.7 -5.3 4.6 -11.1 12.45 -12.05 12.4 -12.9 12.35 -8.25 6.85 -15.5 12.15 -16.3 12.05 -16.4 12.05 -10.2 7.35 -10.75 6.65 -6.3 3.45 -21.1 10.4 -21.1 8.05 -10.55 3.65 -10.6 3.2 -10.65 3.05 -21.05 2.55 -21.05 1.4 -5.5 2.7 -12.7 -2.05 -14.75 -2.55 -21.0 -6.7 -21.0 -9.45 -4.4 2.55 -4.45 2.45 -11.0 -13.1 -9.75 -13.15 -4.05 2.45 -3.0 -4.55 3.4 -13.0" fill="#565b4d" fill-rule="evenodd" stroke="none"/>
      <path d="M-9.75 -13.15 L-6.15 -13.25 -5.1 -13.25 -4.5 -13.25 1.1 -13.1 2.8 -13.05 3.4 -13.0 -3.0 -4.55 -4.05 2.45 -9.75 -13.15 M5.7 -12.8 L7.15 -12.7 Q11.15 -12.35 11.9 -11.85 L-3.3 -0.1 -1.85 -4.55 5.7 -12.8 M12.0 -9.15 L12.0 -5.35 -3.85 2.35 -3.65 1.15 12.0 -9.15 M11.95 -3.4 L11.95 3.8 -0.65 3.35 -1.1 2.05 11.95 -3.4 M11.9 4.75 L11.9 11.25 Q11.5 11.8 7.45 12.2 L-0.45 6.15 0.55 4.25 11.9 4.75 M3.7 12.4 L-4.6 12.55 -5.35 12.55 -6.05 12.55 -6.95 12.55 -4.2 3.4 3.7 12.4 M-9.6 12.5 L-11.1 12.45 -5.3 4.6 -5.2 4.7 -9.6 12.5 M-12.9 12.35 L-13.9 12.25 -15.5 12.15 -8.25 6.85 -12.9 12.35 M-16.4 12.05 L-17.25 11.95 -19.1 11.75 -20.5 11.45 -21.05 11.1 -21.1 11.1 -21.1 10.4 -6.3 3.45 -10.75 6.65 -10.2 7.35 -16.4 12.05 M-21.1 8.05 L-21.05 3.75 -10.6 3.2 -10.55 3.65 -21.1 8.05 M-21.05 1.4 L-21.0 -6.7 -14.75 -2.55 -12.7 -2.05 -5.5 2.7 -21.05 1.4 M-21.0 -10.85 L-21.0 -11.9 -20.95 -11.9 Q-20.75 -12.25 -19.0 -12.5 L-16.2 -12.85 -11.0 -13.1 -4.45 2.45 -21.0 -10.85" fill="#929a87" fill-rule="evenodd" stroke="none"/>
      <path d="M19.15 1.1 L19.45 -0.75 28.35 0.85 26.5 11.15 26.15 13.1 17.5 11.55 17.25 11.5 17.5 10.15 19.15 1.1 M26.65 4.5 L26.8 3.5 19.9 2.3 19.75 3.3 26.65 4.5 M25.35 11.9 L25.5 10.95 18.6 9.75 18.45 10.7 25.35 11.9 M26.0 8.2 L26.15 7.2 19.25 6.0 19.1 7.0 26.0 8.2 M25.65 10.05 L25.85 9.05 18.95 7.85 18.75 8.85 25.65 10.05 M27.0 2.6 L27.15 1.65 20.25 0.45 20.1 1.4 27.0 2.6 M26.35 6.3 L26.5 5.3 19.6 4.1 19.45 5.1 26.35 6.3" fill="#c8c3af" fill-rule="evenodd" stroke="none"/>
      <path d="M26.35 6.3 L19.45 5.1 19.6 4.1 26.5 5.3 26.35 6.3 M27.0 2.6 L20.1 1.4 20.25 0.45 27.15 1.65 27.0 2.6 M25.65 10.05 L18.75 8.85 18.95 7.85 25.85 9.05 25.65 10.05 M26.0 8.2 L19.1 7.0 19.25 6.0 26.15 7.2 26.0 8.2 M25.35 11.9 L18.45 10.7 18.6 9.75 25.5 10.95 25.35 11.9 M26.65 4.5 L19.75 3.3 19.9 2.3 26.8 3.5 26.65 4.5" fill="#9b9375" fill-rule="evenodd" stroke="none"/>
      <path d="M26.5 11.15 L26.5 13.55 17.5 13.55 17.5 11.55 26.15 13.1 26.5 11.15 M17.5 10.15 L17.5 1.1 19.15 1.1 17.5 10.15" fill="#66614a" fill-rule="evenodd" stroke="none"/>
      <path d="M18.55 -13.05 L19.4 -12.45 19.35 -12.4 Q18.9 -11.75 19.05 -10.95 L18.05 -10.8 Q17.85 -12.1 18.55 -13.05 M23.0 -11.6 L23.95 -11.8 Q24.15 -10.55 23.35 -9.6 L22.7 -10.1 Q23.1 -10.75 23.0 -11.55 L23.0 -11.6 M19.25 -3.2 Q19.05 -4.5 19.75 -5.45 L20.65 -4.8 20.6 -4.8 Q20.15 -4.15 20.3 -3.35 L19.25 -3.2 M25.15 -4.2 Q25.35 -2.95 24.6 -2.0 L23.9 -2.5 Q24.35 -3.15 24.25 -3.95 L24.25 -4.05 25.15 -4.2" fill="#b5af99" fill-rule="evenodd" stroke="none"/>
      <path d="M19.4 -12.45 L18.55 -13.05 Q19.2 -14.05 20.5 -14.25 21.75 -14.45 22.7 -13.75 23.75 -13.1 23.95 -11.8 L23.0 -11.6 Q22.8 -12.4 22.15 -12.85 21.5 -13.3 20.65 -13.2 19.9 -13.05 19.4 -12.45 M18.05 -10.8 L19.05 -10.95 19.05 -10.9 Q19.15 -10.05 19.8 -9.55 20.5 -9.1 21.3 -9.25 22.15 -9.35 22.6 -10.0 L22.7 -10.1 23.35 -9.6 Q22.7 -8.55 21.45 -8.35 20.15 -8.15 19.2 -8.9 18.25 -9.55 18.05 -10.8 M19.75 -5.45 Q20.45 -6.45 21.75 -6.65 23.0 -6.85 23.9 -6.15 24.95 -5.5 25.15 -4.2 L24.25 -4.05 23.4 -5.25 Q22.75 -5.7 21.9 -5.6 21.1 -5.45 20.65 -4.8 L19.75 -5.45 M24.6 -2.0 Q23.95 -0.95 22.7 -0.75 21.4 -0.55 20.45 -1.3 19.45 -1.95 19.25 -3.2 L20.3 -3.35 20.3 -3.3 Q20.4 -2.45 21.05 -1.95 21.75 -1.5 22.55 -1.65 23.4 -1.75 23.85 -2.4 L23.9 -2.5 24.6 -2.0" fill="#9b9375" fill-rule="evenodd" stroke="none"/>
      <path d="M19.05 -10.95 Q18.9 -11.75 19.35 -12.4 L19.4 -12.45 Q19.9 -13.05 20.65 -13.2 21.5 -13.3 22.15 -12.85 22.8 -12.4 23.0 -11.6 L23.0 -11.55 Q23.1 -10.75 22.7 -10.1 L22.6 -10.0 Q22.15 -9.35 21.3 -9.25 20.5 -9.1 19.8 -9.55 19.15 -10.05 19.05 -10.9 L19.05 -10.95 M20.3 -3.35 Q20.15 -4.15 20.6 -4.8 L20.65 -4.8 Q21.1 -5.45 21.9 -5.6 22.75 -5.7 23.4 -5.25 L24.25 -4.05 24.25 -3.95 Q24.35 -3.15 23.9 -2.5 L23.85 -2.4 Q23.4 -1.75 22.55 -1.65 21.75 -1.5 21.05 -1.95 20.4 -2.45 20.3 -3.3 L20.3 -3.35 M21.3 -9.85 L22.0 -10.2 20.65 -12.7 19.95 -12.35 21.3 -9.85 M23.6 -4.4 L23.05 -4.95 21.05 -2.95 21.6 -2.4 23.6 -4.4" fill="#66614a" fill-rule="evenodd" stroke="none"/>
      <path d="M21.3 -9.85 L19.95 -12.35 20.65 -12.7 22.0 -10.2 21.3 -9.85 M23.6 -4.4 L21.6 -2.4 21.05 -2.95 23.05 -4.95 23.6 -4.4" fill="#e4e2da" fill-rule="evenodd" stroke="none"/>
    </g>
  </defs>
</svg>
