<?xml version="1.0" encoding="UTF-8" standalone="no"?>
<svg xmlns:ffdec="https://www.free-decompiler.com/flash" xmlns:xlink="http://www.w3.org/1999/xlink" ffdec:objectType="frame" height="16.85px" width="11.7px" xmlns="http://www.w3.org/2000/svg">
  <g transform="matrix(1.0, 0.0, 0.0, 1.0, 4.9, 8.7)">
    <use ffdec:characterId="1301" height="16.85" transform="matrix(1.0, 0.0, 0.0, 1.0, -4.9, -8.7)" width="11.7" xlink:href="#shape0"/>
  </g>
  <defs>
    <g id="shape0" transform="matrix(1.0, 0.0, 0.0, 1.0, 4.9, 8.7)">
      <path d="M-3.6 -5.15 L-3.55 -5.7 -3.25 -7.5 -2.65 -8.55 -1.3 -8.7 4.05 -7.15 6.4 -5.85 6.8 -5.55 6.4 -4.6 5.9 -2.85 Q5.5 -1.6 5.45 -1.0 L5.4 0.95 5.4 1.25 4.85 1.35 Q1.7 -2.95 -3.1 -5.4 L-3.6 -5.15" fill="#e2b181" fill-rule="evenodd" stroke="none"/>
      <path d="M-3.6 -5.15 L-3.1 -5.4 Q1.7 -2.95 4.85 1.35 L5.4 1.25 Q5.4 3.1 5.7 5.8 L6.05 8.15 5.7 7.65 Q0.25 2.55 -4.9 3.95 -4.95 2.2 -4.5 1.3 -4.1 0.35 -4.0 -0.9 L-3.6 -5.15" fill="#ffcc99" fill-rule="evenodd" stroke="none"/>
    </g>
  </defs>
</svg>
