<?xml version="1.0" encoding="UTF-8" standalone="no"?>
<svg xmlns:ffdec="https://www.free-decompiler.com/flash" xmlns:xlink="http://www.w3.org/1999/xlink" ffdec:objectType="frame" height="47.35px" width="68.15px" xmlns="http://www.w3.org/2000/svg">
  <g transform="matrix(1.0, 0.0, 0.0, 1.0, 33.55, 24.55)">
    <use ffdec:characterId="1130" height="47.35" transform="matrix(1.0, 0.0, 0.0, 1.0, -33.55, -24.55)" width="68.15" xlink:href="#shape0"/>
  </g>
  <defs>
    <g id="shape0" transform="matrix(1.0, 0.0, 0.0, 1.0, 33.55, 24.55)">
      <path d="M13.15 -13.5 L14.25 -12.85 14.9 -12.7 16.35 -12.7 16.8 -12.8 18.15 -12.6 18.7 -12.25 18.15 -12.2 22.2 -10.75 Q23.5 -10.3 24.5 -9.3 L25.0 -8.8 25.0 -8.75 24.9 -8.5 24.7 -8.4 24.7 -8.85 19.5 -9.2 18.15 -10.0 17.7 -10.6 17.2 -11.35 16.85 -11.95 14.55 -12.0 13.55 -10.9 7.6 -11.9 7.15 -12.65 12.95 -12.8 13.15 -13.5 M26.3 -12.7 L26.6 -12.75 Q28.8 -12.85 28.8 -10.5 L28.8 -9.85 29.8 -7.9 29.8 -7.65 Q29.7 -6.9 28.9 -6.9 28.1 -7.75 27.8 -8.9 L27.7 -9.55 28.55 -11.45 28.45 -11.9 26.3 -12.7 M33.25 -0.85 Q33.65 -0.45 33.65 0.8 33.65 1.8 32.85 3.2 L31.05 6.0 Q30.6 6.65 29.15 7.2 L27.95 7.6 28.65 7.15 Q30.3 6.1 30.3 5.55 30.3 4.9 30.05 4.9 L24.4 5.6 23.05 5.8 26.9 3.3 26.85 3.0 27.15 2.4 27.05 1.55 27.35 1.45 28.05 1.15 28.55 1.0 28.55 0.9 27.9 0.25 27.35 -0.3 Q26.4 -1.3 26.15 -2.5 L26.7 -4.85 26.3 -5.4 25.9 -5.75 Q24.9 -6.75 25.0 -8.1 L25.05 -8.7 25.05 -8.75 25.1 -8.7 Q27.3 -6.4 28.75 -3.45 L28.8 -3.4 28.75 -3.4 28.25 -3.45 27.35 -3.15 26.6 -2.45 27.05 -1.1 Q27.4 -0.35 28.05 -0.2 L28.55 -0.15 28.65 0.95 30.6 0.35 30.75 0.25 31.2 -0.1 31.4 -0.3 31.5 -0.4 30.55 -1.3 30.5 -2.0 32.55 -1.0 Q33.0 -1.1 33.25 -0.85 M26.1 8.1 L26.0 8.2 Q25.85 9.8 24.9 10.75 23.65 11.95 21.05 12.5 L21.05 12.45 22.7 11.55 Q23.65 10.65 23.65 9.65 23.65 8.85 22.25 8.6 L21.25 8.65 21.35 8.2 21.55 7.5 26.1 8.1 M18.2 12.8 L15.05 12.8 Q15.0 16.35 11.45 18.65 7.65 21.15 1.4 21.15 0.45 21.15 -0.9 22.0 -2.25 22.8 -3.6 22.8 -5.0 22.8 -8.6 20.9 -11.75 19.25 -13.1 18.15 L-15.75 15.7 Q-16.95 14.25 -16.7 12.9 L-19.1 13.05 -21.8 12.7 -20.6 12.75 Q-18.3 12.75 -16.8 11.8 L-15.2 10.65 Q-12.8 10.0 -11.8 9.15 L-11.45 9.4 -9.6 10.6 -9.25 10.4 -9.25 10.85 -9.2 10.85 -8.65 10.9 -8.1 11.55 -8.0 11.6 -7.3 10.1 -7.45 9.25 -2.15 6.4 -7.25 5.3 Q-7.15 4.4 -6.7 3.65 -6.2 2.8 -5.3 2.2 L-4.5 1.6 Q-3.6 2.0 -3.3 2.75 L-2.95 3.65 -2.8 4.1 -2.5 4.65 -2.25 4.35 -2.05 3.65 -1.9 3.25 -1.15 1.9 1.1 -0.25 2.3 -0.15 2.8 -0.1 2.9 -0.05 4.75 0.15 Q5.75 0.35 6.65 0.9 7.75 1.45 8.75 2.25 6.4 0.5 2.9 2.6 L2.8 2.65 2.6 2.75 2.8 2.8 2.9 2.8 5.05 3.3 Q7.4 4.15 9.3 6.2 L9.85 6.8 10.65 7.65 10.2 9.5 Q8.15 7.9 6.0 7.85 L5.85 8.0 Q7.85 8.8 8.9 10.15 L9.3 9.95 10.2 9.55 14.45 7.4 14.55 7.25 15.2 7.55 Q17.7 8.55 18.4 9.55 L18.5 9.7 Q15.8 9.95 14.4 10.45 L12.0 11.4 Q12.85 11.55 14.5 12.3 L18.2 12.8 M-23.65 11.65 L-24.1 11.15 Q-24.85 10.1 -24.85 8.9 -24.85 7.9 -23.95 6.2 L-23.35 4.9 -21.35 5.15 Q-20.95 5.15 -20.85 4.95 L-20.85 4.25 Q-20.85 3.3 -21.55 2.2 L-19.95 1.8 -19.9 1.8 -19.6 1.75 -18.35 1.5 Q-18.1 1.25 -18.1 0.5 L-18.1 0.4 -17.35 0.2 -14.9 0.3 Q-11.4 1.8 -10.25 5.45 -12.4 5.75 -14.25 6.7 -15.6 6.1 -15.6 7.65 -15.7 11.05 -17.35 11.05 L-20.05 10.6 Q-22.4 10.1 -23.35 9.5 L-23.7 9.8 -23.75 10.95 -23.65 11.65 M-26.05 0.8 L-26.85 0.3 -27.9 0.4 -27.75 0.25 Q-26.7 -0.65 -26.7 -1.3 -27.0 -3.85 -28.0 -4.45 -28.9 -1.95 -30.35 -0.85 L-31.6 -0.15 Q-31.6 1.15 -29.85 1.15 L-29.1 1.05 Q-29.7 1.65 -30.75 1.65 -32.3 1.65 -32.7 -2.9 L-32.75 -7.5 Q-32.75 -7.8 -33.05 -8.35 L-33.35 -9.25 Q-33.35 -12.05 -31.6 -10.85 L-31.7 -10.95 -30.7 -10.7 -30.65 -11.25 -30.3 -10.95 -29.45 -10.75 -25.7 -10.3 -25.45 -10.4 -25.25 -10.5 -24.75 -11.25 -24.85 -11.55 Q-25.2 -12.2 -26.15 -12.3 L-27.5 -12.7 -27.3 -12.7 -25.9 -12.4 Q-25.25 -12.2 -24.8 -11.65 L-24.65 -11.45 -24.45 -11.1 Q-23.95 -10.1 -24.4 -9.15 L-26.9 -9.25 Q-28.75 -9.1 -30.3 -9.85 L-30.35 -9.75 -29.8 -9.1 -29.55 -8.85 -28.75 -8.0 -29.85 -7.85 -30.0 -7.2 Q-29.75 -6.0 -28.3 -5.45 L-26.7 -4.95 -26.0 -4.15 -26.1 -3.7 -25.4 -1.6 -26.1 -2.25 -26.35 -2.2 -25.55 -0.25 -26.05 0.8 M-28.0 -14.7 Q-27.95 -15.65 -27.2 -16.2 -26.0 -17.05 -24.45 -17.5 -26.7 -16.4 -27.5 -14.45 L-23.95 -16.15 -23.35 -16.1 -23.0 -16.1 -21.85 -16.45 -21.5 -17.15 -21.1 -17.0 Q-18.95 -16.3 -17.25 -17.6 L-17.1 -18.5 -16.25 -18.05 -15.35 -18.15 Q-13.35 -18.7 -12.05 -20.4 L-10.45 -20.4 -8.85 -20.1 Q-7.35 -20.0 -5.85 -20.6 L-5.65 -20.8 -5.55 -21.7 -5.45 -21.95 -4.95 -20.9 -5.85 -19.65 -5.65 -19.15 -7.9 -18.55 -7.35 -18.9 -8.85 -18.6 Q-10.95 -18.1 -12.9 -16.9 -13.45 -16.6 -13.95 -16.65 -16.15 -17.0 -18.1 -16.25 -19.6 -15.5 -19.3 -13.95 L-19.25 -13.7 -17.45 -12.9 -10.45 -17.15 -8.85 -17.0 -6.55 -16.95 -4.5 -17.2 Q-3.9 -17.5 -3.95 -18.1 -1.2 -17.15 1.55 -16.35 L0.4 -16.5 Q-1.65 -17.15 -3.0 -15.9 L-2.65 -15.5 Q-0.65 -16.0 0.95 -14.95 L2.3 -14.35 2.8 -14.2 2.9 -14.2 4.8 -14.15 5.1 -13.2 4.35 -12.75 2.9 -13.85 2.8 -13.9 2.75 -13.9 2.3 -13.95 0.05 -14.0 -4.0 -12.8 -2.4 -11.8 Q-1.35 -11.3 0.7 -11.3 L2.2 -11.8 2.3 -11.7 2.8 -11.35 2.9 -11.3 3.25 -11.1 4.1 -10.6 3.7 -9.75 Q4.65 -8.5 6.3 -8.75 L6.65 -8.85 Q7.25 -9.1 7.5 -9.95 L7.7 -11.5 Q8.15 -10.9 8.15 -9.75 L8.05 -9.05 7.65 -8.25 Q7.0 -7.15 5.65 -7.15 3.55 -7.15 3.55 -9.2 L3.55 -9.25 3.55 -9.6 3.25 -9.35 2.9 -9.15 2.8 -9.15 2.3 -9.0 1.8 -9.0 1.7 -9.0 Q-1.5 -9.0 -1.9 -10.0 L-2.45 -11.65 -4.05 -12.7 Q-5.65 -12.15 -7.0 -13.05 L-8.5 -14.15 -8.85 -14.4 -8.95 -14.5 -9.55 -14.5 -12.6 -13.8 -13.25 -12.05 -12.6 -11.3 -14.75 -10.4 -5.2 -6.55 -6.0 -6.55 Q-5.6 -6.05 -5.1 -5.7 -4.2 -4.95 -3.1 -4.75 L2.3 -4.35 2.4 -4.4 2.8 -4.4 2.9 -4.45 Q4.25 -4.65 5.45 -5.55 L5.35 -6.75 Q7.0 -5.95 6.55 -4.3 6.3 -3.2 5.2 -2.6 L4.55 -2.25 2.9 -1.9 2.8 -1.9 2.3 -1.85 1.6 -1.9 Q0.1 -2.05 -1.45 -2.65 -3.75 -3.35 -5.8 -4.45 L-11.6 -7.2 -13.5 -8.15 -15.85 -6.85 -16.4 -5.1 -16.7 -4.7 -16.85 -4.55 Q-17.95 -3.55 -19.55 -3.8 L-19.9 -3.85 -21.0 -4.05 Q-22.7 -4.55 -22.95 -6.25 L-21.9 -8.35 -21.8 -7.7 Q-20.8 -7.0 -19.65 -6.9 L-18.85 -6.95 Q-18.05 -7.1 -17.25 -7.5 L-15.95 -8.2 -14.45 -8.65 -18.4 -10.0 -19.5 -11.25 -20.2 -12.6 -20.05 -13.95 Q-19.8 -15.2 -18.95 -16.15 -20.65 -17.15 -22.15 -16.1 L-22.55 -14.85 -23.3 -14.9 -23.35 -14.9 -23.9 -14.85 Q-25.15 -14.1 -26.7 -13.95 -27.3 -13.75 -27.75 -14.1 L-28.0 -14.7 M4.65 -15.55 L5.05 -15.45 Q6.8 -15.1 8.2 -13.95 L4.65 -15.55 M14.4 -7.25 L15.1 -7.9 Q14.85 -6.2 16.25 -5.55 L18.15 -5.3 19.2 -5.5 Q20.05 -6.3 19.65 -7.6 L19.4 -8.15 20.1 -7.25 20.4 -5.05 Q19.85 -4.35 20.15 -3.45 20.7 -1.7 22.65 -1.65 23.85 -1.3 24.5 -2.1 L24.45 -1.6 24.2 -0.5 24.0 -0.2 23.55 -0.15 Q21.65 -0.3 20.3 -1.9 L18.8 -3.65 18.3 -3.65 18.15 -3.65 Q17.2 -3.85 16.35 -4.2 15.5 -4.45 14.95 -5.05 14.45 -5.6 14.35 -6.3 L14.4 -7.25 M10.15 3.75 L10.85 4.7 10.35 4.15 10.15 3.75 M0.25 9.35 Q2.4 9.5 4.2 10.85 L5.5 11.7 7.8 10.65 Q5.55 9.2 2.6 9.45 L0.25 9.35 M4.3 16.3 Q3.3 15.5 1.15 15.5 L-6.95 16.5 Q-9.85 16.5 -11.4 15.5 L-13.35 14.25 -13.5 14.4 -11.45 16.05 Q-10.4 17.05 -9.25 17.55 L-3.45 19.05 1.4 19.9 2.55 19.6 Q3.0 19.25 3.15 19.25 L7.6 18.55 9.6 17.8 10.4 17.9 10.9 17.9 10.9 17.25 10.65 16.35 Q10.1 15.55 8.65 15.55 8.45 15.55 7.3 16.3 6.1 17.05 5.15 17.05 L4.3 16.3 M-29.7 -6.3 L-30.1 -6.2 -30.85 -6.45 Q-30.55 -6.2 -29.85 -6.1 L-29.7 -6.3 M-2.55 -14.25 L-2.3 -14.25 -2.5 -14.35 -2.55 -14.25 M-3.7 -6.0 L-3.65 -6.05 Q-2.8 -5.8 -3.7 -6.0 M-3.65 11.6 Q-3.9 11.05 -4.8 11.2 -5.8 11.35 -7.0 12.15 -7.55 12.55 -9.45 13.2 -11.05 13.8 -11.5 14.25 -10.8 14.9 -10.5 15.0 L-8.0 15.3 Q-6.85 15.3 -5.2 13.95 L-3.75 12.55 -1.15 11.9 -3.65 11.6" fill="#990000" fill-rule="evenodd" stroke="none"/>
      <path d="M8.2 -13.95 L9.45 -14.1 12.85 -14.5 13.15 -13.5 12.95 -12.8 7.15 -12.65 7.6 -11.9 7.7 -11.5 7.5 -9.95 Q7.25 -9.1 6.65 -8.85 L6.3 -8.75 Q4.65 -8.5 3.7 -9.75 L4.1 -10.6 3.25 -11.1 2.9 -11.3 2.8 -11.35 2.3 -11.7 2.2 -11.8 0.7 -11.3 Q-1.35 -11.3 -2.4 -11.8 L-4.0 -12.8 0.05 -14.0 2.3 -13.95 2.75 -13.9 2.8 -13.9 2.9 -13.85 4.35 -12.75 5.1 -13.2 4.8 -14.15 2.9 -14.2 2.8 -14.2 2.3 -14.35 0.95 -14.95 Q-0.65 -16.0 -2.65 -15.5 L-3.0 -15.9 Q-1.65 -17.15 0.4 -16.5 L1.55 -16.35 4.65 -15.55 8.2 -13.95 M18.7 -12.25 L20.55 -12.35 20.55 -12.4 Q20.55 -13.75 22.95 -13.25 L24.75 -12.6 26.3 -12.7 28.45 -11.9 28.55 -11.45 27.7 -9.55 27.8 -8.9 Q28.1 -7.75 28.9 -6.9 L31.25 -4.65 34.25 -2.0 33.25 -0.85 Q33.0 -1.1 32.55 -1.0 L30.5 -2.0 30.55 -1.3 30.5 -1.15 30.3 -0.75 30.25 -0.65 30.35 -0.55 30.6 -0.1 30.75 0.2 30.75 0.25 30.6 0.35 28.65 0.95 28.55 -0.15 28.05 -0.2 Q27.4 -0.35 27.05 -1.1 L26.6 -2.45 27.35 -3.15 28.25 -3.45 28.75 -3.4 28.8 -3.4 28.75 -3.45 Q27.3 -6.4 25.1 -8.7 L25.05 -8.75 25.05 -8.85 25.0 -8.9 25.0 -8.8 24.5 -9.3 Q23.5 -10.3 22.2 -10.75 L18.15 -12.2 18.7 -12.25 M27.95 7.6 L26.5 8.15 26.1 8.1 21.55 7.5 21.85 6.5 21.9 6.5 23.05 5.8 24.4 5.6 30.05 4.9 Q30.3 4.9 30.3 5.55 30.3 6.1 28.65 7.15 L27.95 7.6 M20.0 12.7 L18.4 12.8 18.2 12.8 14.5 12.3 Q12.85 11.55 12.0 11.4 L14.4 10.45 Q15.8 9.95 18.5 9.7 L19.8 12.25 20.0 12.7 M-21.8 12.7 Q-23.15 12.5 -23.6 11.9 L-23.65 11.65 -23.75 10.95 -23.7 9.8 -23.35 9.5 Q-22.4 10.1 -20.05 10.6 L-17.35 11.05 Q-15.7 11.05 -15.6 7.65 -15.6 6.1 -14.25 6.7 -12.4 5.75 -10.25 5.45 L-8.8 10.1 -9.25 10.4 -9.6 10.6 -11.45 9.4 -11.8 9.15 Q-12.8 10.0 -15.2 10.65 L-16.8 11.8 Q-18.3 12.75 -20.6 12.75 L-21.8 12.7 M-23.35 4.9 L-24.15 4.25 -24.5 3.3 -23.85 3.05 -21.85 2.3 -21.55 2.2 Q-20.85 3.3 -20.85 4.25 L-20.85 4.95 Q-20.95 5.15 -21.35 5.15 L-23.35 4.9 M-27.9 0.4 L-29.1 1.05 -29.85 1.15 Q-31.6 1.15 -31.6 -0.15 L-30.35 -0.85 Q-28.9 -1.95 -28.0 -4.45 -27.0 -3.85 -26.7 -1.3 -26.7 -0.65 -27.75 0.25 L-27.9 0.4 M-24.45 -17.5 L-22.3 -18.2 -21.8 -17.75 -21.75 -17.7 -21.7 -17.8 Q-21.5 -19.75 -19.4 -19.8 -17.75 -19.8 -17.1 -18.5 L-17.25 -17.6 Q-18.95 -16.3 -21.1 -17.0 L-21.5 -17.15 -21.85 -16.45 -23.0 -16.1 -23.35 -16.1 -23.95 -16.15 -27.5 -14.45 Q-26.7 -16.4 -24.45 -17.5 M-14.45 -20.4 L-14.55 -20.4 -14.7 -20.4 Q-15.9 -20.5 -15.7 -21.8 -15.7 -23.25 -13.1 -22.85 L-12.1 -22.7 -8.85 -22.05 -6.2 -21.95 -5.7 -21.9 -5.55 -21.7 -5.65 -20.8 -5.85 -20.6 Q-7.35 -20.0 -8.85 -20.1 L-10.45 -20.4 -10.85 -20.55 -13.35 -20.95 -13.95 -20.65 Q-14.25 -20.4 -14.45 -20.4 M15.1 -7.9 L15.45 -8.3 Q16.8 -9.25 18.15 -8.85 L19.4 -8.15 19.65 -7.6 Q20.05 -6.3 19.2 -5.5 L18.15 -5.3 16.25 -5.55 Q14.85 -6.2 15.1 -7.9 M-7.45 -10.45 L-2.5 -6.2 -2.2 -6.15 2.3 -7.1 2.8 -7.2 2.9 -7.25 Q4.25 -7.6 5.35 -6.75 L5.45 -5.55 Q4.25 -4.65 2.9 -4.45 L2.8 -4.4 2.4 -4.4 2.3 -4.35 -3.1 -4.75 Q-4.2 -4.95 -5.1 -5.7 -5.6 -6.05 -6.0 -6.55 L-5.2 -6.55 -14.75 -10.4 -12.6 -11.3 -11.25 -11.45 -8.85 -11.15 -7.45 -10.45 M-21.9 -8.35 L-21.85 -8.65 Q-21.85 -10.85 -19.4 -10.35 L-18.4 -10.0 -14.45 -8.65 -15.95 -8.2 -17.25 -7.5 Q-18.05 -7.1 -18.85 -6.95 L-19.65 -6.9 Q-20.8 -7.0 -21.8 -7.7 L-21.9 -8.35 M-25.4 -1.6 L-25.35 -1.45 -25.55 -0.25 -26.35 -2.2 -26.1 -2.25 -25.4 -1.6 M8.75 2.25 L9.1 2.55 10.05 3.65 10.05 3.7 10.15 3.75 10.35 4.15 10.85 4.7 11.3 5.25 10.65 7.65 9.85 6.8 9.3 6.2 Q7.4 4.15 5.05 3.3 L2.9 2.8 2.8 2.8 2.6 2.75 2.8 2.65 2.9 2.6 Q6.4 0.5 8.75 2.25 M10.2 9.5 L10.2 9.55 9.3 9.95 8.9 10.15 Q7.85 8.8 5.85 8.0 L6.0 7.85 Q8.15 7.9 10.2 9.5 M24.5 -2.1 Q23.85 -1.3 22.65 -1.65 20.7 -1.7 20.15 -3.45 19.85 -4.35 20.4 -5.05 L21.2 -5.05 22.85 -4.3 Q24.05 -3.7 24.55 -2.65 L24.5 -2.1 M21.25 8.65 L22.25 8.6 Q23.65 8.85 23.65 9.65 23.65 10.65 22.7 11.55 L21.05 12.45 20.65 10.9 21.25 8.65 M0.25 9.35 L2.6 9.45 Q5.55 9.2 7.8 10.65 L5.5 11.7 4.2 10.85 Q2.4 9.5 0.25 9.35 M4.3 16.3 L5.15 17.05 Q6.1 17.05 7.3 16.3 8.45 15.55 8.65 15.55 10.1 15.55 10.65 16.35 L10.9 17.25 10.9 17.9 10.4 17.9 9.6 17.8 7.6 18.55 3.15 19.25 Q3.0 19.25 2.55 19.6 L1.4 19.9 -3.45 19.05 -9.25 17.55 Q-10.4 17.05 -11.45 16.05 L-13.5 14.4 -13.35 14.25 -11.4 15.5 Q-9.85 16.5 -6.95 16.5 L1.15 15.5 Q3.3 15.5 4.3 16.3 M-30.65 -11.25 L-30.55 -12.45 -30.0 -12.8 -29.45 -12.8 -28.0 -12.75 -27.5 -12.7 -26.15 -12.3 Q-25.2 -12.2 -24.85 -11.55 L-24.75 -11.25 -25.25 -10.5 -25.45 -10.4 -25.7 -10.3 -29.45 -10.75 -30.3 -10.95 -30.65 -11.25 M-29.7 -6.3 L-29.85 -6.1 Q-30.55 -6.2 -30.85 -6.45 L-30.1 -6.2 -29.7 -6.3 M-10.45 -17.15 L-17.45 -12.9 -19.25 -13.7 -19.3 -13.95 Q-19.6 -15.5 -18.1 -16.25 -16.15 -17.0 -13.95 -16.65 -13.45 -16.6 -12.9 -16.9 -10.95 -18.1 -8.85 -18.6 L-7.35 -18.9 -7.9 -18.55 -8.85 -18.05 -10.45 -17.15 M-3.7 -6.0 Q-2.8 -5.8 -3.65 -6.05 L-3.7 -6.0 M-7.45 9.25 L-7.25 5.3 -2.15 6.4 -7.45 9.25 M-3.65 11.6 L-1.15 11.9 -3.75 12.55 -5.2 13.95 Q-6.85 15.3 -8.0 15.3 L-10.5 15.0 Q-10.8 14.9 -11.5 14.25 -11.05 13.8 -9.45 13.2 -7.55 12.55 -7.0 12.15 -5.8 11.35 -4.8 11.2 -3.9 11.05 -3.65 11.6" fill="#ff0000" fill-rule="evenodd" stroke="none"/>
      <path d="M3.55 -9.25 L3.5 -9.35 3.3 -9.35 3.25 -9.35 3.55 -9.6 3.55 -9.25" fill="#583a30" fill-rule="evenodd" stroke="none"/>
      <path d="M-12.05 -20.4 L-14.45 -20.4 Q-14.25 -20.4 -13.95 -20.65 L-13.35 -20.95 -10.85 -20.55 -10.45 -20.4 -12.05 -20.4 M-13.1 -22.85 Q-11.05 -23.4 -10.35 -23.95 -9.65 -24.55 -8.85 -24.55 -7.95 -24.6 -7.0 -23.85 L-5.45 -22.15 -5.45 -21.95 -5.55 -21.7 -5.7 -21.9 -6.2 -21.95 -8.85 -22.05 -12.1 -22.7 -13.1 -22.85 M-5.65 -19.15 Q-3.95 -19.3 -3.95 -18.15 L-3.95 -18.1 Q-3.9 -17.5 -4.5 -17.2 L-6.55 -16.95 -8.85 -17.0 -10.45 -17.15 -8.85 -18.05 -7.9 -18.55 -5.65 -19.15" fill="#ffffff" fill-rule="evenodd" stroke="none"/>
      <path d="M21.05 12.5 L21.4 14.4 21.3 14.85 21.0 14.8 20.0 12.7 19.8 12.25 18.5 9.7 18.4 9.55 Q17.7 8.55 15.2 7.55 L14.55 7.25 14.45 7.4 10.2 9.55 10.2 9.5 10.65 7.65 11.3 5.25 10.85 4.7 10.15 3.75 10.05 3.7 10.05 3.65 9.1 2.55 8.75 2.25 Q7.75 1.45 6.65 0.9 5.75 0.35 4.75 0.15 L2.9 -0.05 2.8 -0.1 2.3 -0.15 1.1 -0.25 -1.15 1.9 -1.9 3.25 -2.05 3.65 -2.25 4.35 -2.5 4.65 -2.8 4.1 -2.95 3.65 -3.3 2.75 Q-3.6 2.0 -4.5 1.6 L-5.3 2.2 Q-6.2 2.8 -6.7 3.65 -7.15 4.4 -7.25 5.3 L-7.45 9.25 -7.3 10.1 -8.0 11.6 -8.1 11.55 -8.65 10.9 -9.2 10.85 -9.25 10.85 -9.25 10.4 -8.8 10.1 -10.25 5.45 Q-11.4 1.8 -14.9 0.3 L-17.35 0.2 -18.1 0.4 -18.1 0.5 Q-18.1 1.25 -18.35 1.5 L-19.6 1.75 -19.9 1.8 -19.95 1.8 -21.55 2.2 -21.85 2.3 -23.85 3.05 -24.5 3.3 -25.75 4.05 Q-26.55 4.55 -27.5 4.55 L-27.95 4.5 -27.95 4.4 -28.0 4.5 -28.1 4.15 Q-28.1 3.45 -26.7 1.75 L-26.05 0.8 -25.55 -0.25 -25.35 -1.45 -25.4 -1.6 -26.1 -3.7 -26.0 -4.15 -26.7 -4.95 -28.3 -5.45 Q-29.75 -6.0 -30.0 -7.2 L-29.85 -7.85 -28.75 -8.0 -26.7 -7.75 -25.15 -6.55 -24.85 -6.15 Q-25.25 -7.95 -26.2 -8.6 L-26.25 -8.65 -26.9 -9.25 -24.4 -9.15 Q-23.95 -10.1 -24.45 -11.1 L-24.65 -11.45 -24.8 -11.65 Q-25.25 -12.2 -25.9 -12.4 L-27.3 -12.7 -27.2 -12.85 -26.8 -13.45 -26.75 -13.7 -26.5 -13.65 -23.55 -13.2 -23.35 -13.15 -20.2 -12.6 -19.5 -11.25 -18.4 -10.0 -19.4 -10.35 Q-21.85 -10.85 -21.85 -8.65 L-21.9 -8.35 -22.95 -6.25 Q-22.7 -4.55 -21.0 -4.05 L-19.9 -3.85 -19.55 -3.8 Q-17.95 -3.55 -16.85 -4.55 L-16.7 -4.7 -14.55 -3.4 -15.1 -4.2 -16.4 -5.1 -15.85 -6.85 -13.5 -8.15 -11.6 -7.2 -12.65 -5.6 -13.7 -2.9 -13.55 -2.8 Q-12.85 -2.3 -13.15 -1.7 -12.55 -1.55 -12.05 -1.7 -10.95 -2.0 -10.05 -2.85 L-8.85 -4.1 -8.65 -4.35 -8.7 -3.25 -8.4 -1.95 Q-7.9 -0.75 -6.55 -0.85 L-4.5 -0.65 -5.15 -2.8 -5.8 -4.45 Q-3.75 -3.35 -1.45 -2.65 0.1 -2.05 1.6 -1.9 L1.45 -1.45 1.4 -1.3 5.55 -1.05 5.2 -2.6 Q6.3 -3.2 6.55 -4.3 7.0 -5.95 5.35 -6.75 4.25 -7.6 2.9 -7.25 L2.8 -7.2 2.3 -7.1 -2.2 -6.15 -2.5 -6.2 -7.45 -10.45 -3.1 -9.85 -2.9 -9.65 Q-1.4 -8.4 -0.95 -8.4 L1.7 -9.0 1.8 -9.0 2.3 -9.0 2.8 -9.15 2.9 -9.15 3.25 -9.35 3.3 -9.35 3.5 -9.35 3.55 -9.25 3.55 -9.2 Q3.55 -7.15 5.65 -7.15 7.0 -7.15 7.65 -8.25 L8.05 -9.05 8.8 -9.15 9.1 -9.1 9.95 -7.75 Q10.95 -6.4 11.8 -6.4 12.2 -6.4 12.5 -6.7 L13.15 -7.3 13.8 -7.25 14.4 -7.25 14.35 -6.3 Q14.45 -5.6 14.95 -5.05 15.5 -4.45 16.35 -4.2 17.2 -3.85 18.15 -3.65 L18.3 -3.65 18.8 -3.65 20.3 -1.9 18.95 -0.9 18.15 0.35 18.1 0.5 18.15 0.55 21.05 2.8 22.4 2.55 24.05 2.6 24.05 2.5 Q24.05 1.0 25.6 0.75 26.75 0.55 27.05 1.55 L27.15 2.4 26.85 3.0 26.9 3.3 23.05 5.8 21.9 6.5 21.85 6.5 21.55 7.5 21.35 8.2 21.25 8.65 20.65 10.9 21.05 12.45 21.05 12.5 M20.1 -7.25 L21.15 -6.95 25.5 -5.65 26.3 -5.4 26.7 -4.85 26.15 -2.5 24.55 -2.65 Q24.05 -3.7 22.85 -4.3 L21.2 -5.05 20.4 -5.05 20.1 -7.25 M9.75 -1.35 Q10.15 -0.2 11.05 0.75 12.15 1.95 13.8 2.05 L14.25 2.05 14.5 2.05 13.8 1.1 13.45 0.55 Q11.45 -2.4 10.65 -2.4 10.45 -2.4 9.75 -1.35 M-21.7 -2.05 L-22.2 -2.1 Q-21.65 -1.4 -20.35 -1.15 L-19.8 -2.35 -19.9 -3.0 -19.9 -3.5 -21.6 -2.15 -21.7 -2.05" fill="#8d586d" fill-rule="evenodd" stroke="none"/>
      <path d="M29.8 -7.65 L31.1 -6.3 31.1 -6.2 31.95 -5.5 31.75 -5.0 31.75 -4.95 31.7 -4.9 Q31.5 -4.65 31.3 -4.65 L31.25 -4.65 28.9 -6.9 Q29.7 -6.9 29.8 -7.65 M-27.4 -13.8 L-28.55 -14.0 -28.0 -14.7 -27.75 -14.1 Q-27.3 -13.75 -26.7 -13.95 -25.15 -14.1 -23.9 -14.85 L-23.35 -14.9 -23.3 -14.9 -22.55 -14.85 -22.15 -16.1 Q-20.65 -17.15 -18.95 -16.15 -19.8 -15.2 -20.05 -13.95 L-20.2 -12.6 -23.35 -13.15 -23.55 -13.2 -26.5 -13.65 -26.75 -13.7 -27.4 -13.8 M7.6 -11.9 L13.55 -10.9 14.55 -12.0 16.85 -11.95 17.2 -11.35 17.7 -10.6 18.15 -10.0 19.5 -9.2 24.7 -8.85 24.7 -8.4 24.9 -8.5 25.0 -8.75 25.0 -8.8 25.0 -8.9 25.05 -8.85 25.05 -8.75 25.05 -8.7 25.0 -8.1 Q24.9 -6.75 25.9 -5.75 L26.3 -5.4 25.5 -5.65 21.15 -6.95 20.1 -7.25 19.4 -8.15 18.15 -8.85 Q16.8 -9.25 15.45 -8.3 L15.1 -7.9 14.4 -7.25 13.8 -7.25 13.15 -7.3 12.5 -6.7 Q12.2 -6.4 11.8 -6.4 10.95 -6.4 9.95 -7.75 L9.1 -9.1 8.8 -9.15 8.05 -9.05 8.15 -9.75 Q8.15 -10.9 7.7 -11.5 L7.6 -11.9 M1.7 -9.0 L-0.95 -8.4 Q-1.4 -8.4 -2.9 -9.65 L-3.1 -9.85 -7.45 -10.45 -8.85 -11.15 -11.25 -11.45 -12.6 -11.3 -13.25 -12.05 -12.6 -13.8 -9.55 -14.5 -8.95 -14.5 -8.85 -14.4 -8.5 -14.15 -7.0 -13.05 Q-5.65 -12.15 -4.05 -12.7 L-2.45 -11.65 -1.9 -10.0 Q-1.5 -9.0 1.7 -9.0" fill="#ffcc99" fill-rule="evenodd" stroke="none"/>
      <path d="M31.75 -4.95 L34.0 -3.2 34.6 -2.65 34.3 -2.1 34.25 -2.0 31.25 -4.65 31.3 -4.65 Q31.5 -4.65 31.7 -4.9 L31.75 -4.95 M-31.7 -10.95 L-33.55 -12.7 -30.95 -13.7 -27.4 -13.8 -26.75 -13.7 -26.8 -13.45 -28.0 -12.75 -29.45 -12.8 -30.0 -12.8 -30.55 -12.45 -30.65 -11.25 -30.7 -10.7 -31.7 -10.95" fill="#aacdf0" fill-rule="evenodd" stroke="none"/>
      <path d="M-26.8 -13.45 L-27.2 -12.85 -27.3 -12.7 -27.5 -12.7 -28.0 -12.75 -26.8 -13.45 M-26.9 -9.25 L-26.25 -8.65 -26.2 -8.6 Q-25.25 -7.95 -24.85 -6.15 L-25.15 -6.55 -26.7 -7.75 -28.75 -8.0 -29.55 -8.85 -29.8 -9.1 -30.35 -9.75 -30.3 -9.85 Q-28.75 -9.1 -26.9 -9.25 M27.9 0.25 L28.55 0.9 28.55 1.0 28.05 1.15 27.35 1.45 27.9 0.25 M30.35 -0.55 L30.3 -0.75 30.5 -1.15 30.55 -1.3 31.5 -0.4 31.4 -0.3 31.2 -0.1 31.05 -0.25 30.75 0.2 30.6 -0.1 30.35 -0.55" fill="#90bce7" fill-rule="evenodd" stroke="none"/>
      <path d="M5.2 -2.6 L5.55 -1.05 1.4 -1.3 1.45 -1.45 1.6 -1.9 2.3 -1.85 2.8 -1.9 2.9 -1.9 4.55 -2.25 5.2 -2.6 M-5.8 -4.45 L-5.15 -2.8 -4.5 -0.65 -6.55 -0.85 Q-7.9 -0.75 -8.4 -1.95 L-8.7 -3.25 -8.65 -4.35 -8.85 -4.1 -10.05 -2.85 Q-10.95 -2.0 -12.05 -1.7 -12.55 -1.55 -13.15 -1.7 -12.85 -2.3 -13.55 -2.8 L-13.7 -2.9 -12.65 -5.6 -11.6 -7.2 -5.8 -4.45 M-16.4 -5.1 L-15.1 -4.2 -14.55 -3.4 -16.7 -4.7 -16.4 -5.1 M20.3 -1.9 Q21.65 -0.3 23.55 -0.15 L24.0 -0.2 24.2 -0.5 24.45 -1.6 24.5 -2.1 24.55 -2.65 26.15 -2.5 Q26.4 -1.3 27.35 -0.3 L27.9 0.25 27.35 1.45 27.05 1.55 Q26.75 0.55 25.6 0.75 24.05 1.0 24.05 2.5 L24.05 2.6 22.4 2.55 21.05 2.8 18.15 0.55 18.1 0.5 18.15 0.35 18.95 -0.9 20.3 -1.9 M9.75 -1.35 Q10.45 -2.4 10.65 -2.4 11.45 -2.4 13.45 0.55 L13.8 1.1 14.5 2.05 14.25 2.05 13.8 2.05 Q12.15 1.95 11.05 0.75 10.15 -0.2 9.75 -1.35 M-21.7 -2.05 L-21.6 -2.15 -19.9 -3.5 -19.9 -3.0 -19.8 -2.35 -20.35 -1.15 Q-21.65 -1.4 -22.2 -2.1 L-21.7 -2.05" fill="#82add7" fill-rule="evenodd" stroke="none"/>
    </g>
  </defs>
</svg>
