<?xml version="1.0" encoding="UTF-8" standalone="no"?>
<svg xmlns:ffdec="https://www.free-decompiler.com/flash" xmlns:xlink="http://www.w3.org/1999/xlink" ffdec:objectType="frame" height="33.6px" width="18.2px" xmlns="http://www.w3.org/2000/svg">
  <g transform="matrix(1.0, 0.0, 0.0, 1.0, 5.5, 18.55)">
    <use ffdec:characterId="1264" height="32.5" transform="matrix(1.0, 0.0, 0.0, 1.0, -5.4, -17.45)" width="18.1" xlink:href="#shape0"/>
    <use ffdec:characterId="1081" height="100.0" id="shape" transform="matrix(0.11, 0.0, 0.0, 0.3, -5.5, -15.0017)" width="100.0" xlink:href="#sprite0"/>
  </g>
  <defs>
    <g id="shape0" transform="matrix(1.0, 0.0, 0.0, 1.0, 5.4, 17.45)">
      <path d="M-5.1 13.45 L-5.35 12.2 -5.4 11.85 Q-5.45 9.7 -4.85 7.75 L-4.5 6.8 -4.55 6.8 -4.55 5.65 -4.9 -0.2 -5.4 -6.0 -5.15 -11.35 Q-4.8 -14.25 -3.5 -15.6 -2.2 -17.0 -0.05 -17.35 2.05 -17.7 3.25 -16.8 4.45 -15.9 5.1 -13.15 L4.95 -8.05 4.65 0.3 Q4.4 4.4 4.7 6.95 L5.3 7.65 Q6.85 9.5 8.6 10.0 10.1 10.4 11.1 11.3 L11.55 11.2 12.1 11.3 12.2 11.35 Q12.25 12.3 10.85 13.25 9.45 14.25 8.7 14.25 L4.55 13.75 3.55 13.8 0.85 14.0 -1.65 14.25 -4.55 13.7 -5.1 13.45 M-0.3 -16.3 L-0.35 -16.3 -1.55 -16.0 -0.3 -16.3 M-0.85 8.65 L0.55 10.1 1.9 9.05 2.0 8.95 3.25 7.35 3.25 6.6 1.7 7.5 1.45 7.65 0.1 8.0 Q-0.8 8.0 -1.3 7.5 L-1.75 7.05 -0.85 8.65" fill="#ffcc99" fill-rule="evenodd" stroke="none"/>
      <path d="M-0.85 8.65 L-1.75 7.05 -1.3 7.5 Q-0.8 8.0 0.1 8.0 L1.45 7.65 1.7 7.5 3.25 6.6 3.25 7.35 2.0 8.95 1.9 9.05 0.55 10.1 -0.85 8.65" fill="#ebbb98" fill-rule="evenodd" stroke="none"/>
      <path d="M12.2 11.35 Q12.65 11.6 12.7 12.3 L12.4 13.25 12.3 13.4 12.15 13.7 12.15 13.75 Q10.55 15.1 8.2 15.0 L3.9 14.8 2.7 14.85 -2.25 15.05 Q-4.5 15.1 -5.1 13.45 L-4.55 13.7 -1.65 14.25 0.85 14.0 3.55 13.8 4.55 13.75 8.7 14.25 Q9.45 14.25 10.85 13.25 12.25 12.3 12.2 11.35" fill="#e2b181" fill-rule="evenodd" stroke="none"/>
    </g>
    <g id="sprite0" transform="matrix(1.0, 0.0, 0.0, 1.0, 50.0, 50.0)">
      <use ffdec:characterId="1080" height="100.0" transform="matrix(1.0, 0.0, 0.0, 1.0, -50.0, -50.0)" width="100.0" xlink:href="#shape1"/>
    </g>
    <g id="shape1" transform="matrix(1.0, 0.0, 0.0, 1.0, 50.0, 50.0)">
      <path d="M50.0 50.0 L-50.0 50.0 -50.0 -50.0 50.0 -50.0 50.0 50.0 Z" fill="none" stroke="#9900ff" stroke-linecap="round" stroke-linejoin="round" stroke-width="0.05"/>
    </g>
  </defs>
</svg>
