<?xml version="1.0" encoding="UTF-8" standalone="no"?>
<svg xmlns:ffdec="https://www.free-decompiler.com/flash" xmlns:xlink="http://www.w3.org/1999/xlink" ffdec:objectType="frame" height="9.05px" width="6.95px" xmlns="http://www.w3.org/2000/svg">
  <g transform="matrix(1.0, 0.0, 0.0, 1.0, 0.05, 0.0)">
    <use ffdec:characterId="560" height="7.65" transform="matrix(1.0, 0.0, 0.0, 1.0, 0.0, 0.0)" width="6.25" xlink:href="#shape0"/>
  </g>
  <defs>
    <g id="shape0" transform="matrix(1.0, 0.0, 0.0, 1.0, 0.0, 0.0)">
      <path d="M3.3 2.25 L3.3 2.3 3.15 2.4 3.15 2.45 2.95 2.85 2.9 3.35 3.55 3.4 3.95 3.95 3.8 4.05 3.8 4.1 2.7 3.65 2.6 3.75 3.55 5.0 3.65 5.2 4.35 5.1 4.35 5.05 4.55 4.95 6.25 5.1 4.8 5.45 4.15 7.65 4.4 5.8 3.8 5.5 2.4 6.0 2.1 5.75 2.2 5.7 Q2.55 5.05 1.65 4.9 L1.05 5.05 1.0 5.05 0.95 5.0 0.9 5.05 0.4 5.45 0.75 4.6 0.75 3.95 1.35 3.35 1.6 3.55 2.1 3.45 2.05 2.85 2.05 2.75 2.25 2.45 2.25 0.8 2.5 2.0 3.15 0.0 3.3 2.25 M0.35 5.65 L0.35 5.9 0.0 6.25 0.35 5.65" fill="#ef7f33" fill-rule="evenodd" stroke="none"/>
      <path d="M3.55 3.4 L2.9 3.35 2.95 2.85 3.15 2.45 3.15 2.4 3.3 2.3 3.3 2.25 Q3.6 1.85 4.35 1.85 5.2 1.9 4.7 2.8 L4.55 2.9 3.9 3.3 3.65 3.4 3.55 3.4 M2.05 2.75 L2.05 2.85 2.1 3.45 1.6 3.55 1.35 3.35 1.2 3.05 1.05 2.45 1.35 2.0 1.65 2.1 2.05 2.75 M0.4 5.45 L0.9 5.05 1.0 5.05 1.05 5.05 1.65 4.9 Q2.55 5.05 2.2 5.7 L2.1 5.75 0.55 6.1 0.35 5.9 0.35 5.65 0.4 5.6 0.4 5.5 0.4 5.45" fill="#e5cea4" fill-rule="evenodd" stroke="none"/>
    </g>
  </defs>
</svg>
