<?xml version="1.0" encoding="UTF-8" standalone="no"?>
<svg xmlns:ffdec="https://www.free-decompiler.com/flash" xmlns:xlink="http://www.w3.org/1999/xlink" ffdec:objectType="frame" height="9.05px" width="6.95px" xmlns="http://www.w3.org/2000/svg">
  <g transform="matrix(1.0, 0.0, 0.0, 1.0, 0.05, 0.0)">
    <use ffdec:characterId="561" height="6.5" transform="matrix(1.0, 0.0, 0.0, 1.0, 0.0, 0.0)" width="5.55" xlink:href="#shape0"/>
  </g>
  <defs>
    <g id="shape0" transform="matrix(1.0, 0.0, 0.0, 1.0, 0.0, 0.0)">
      <path d="M3.75 0.4 L5.55 0.0 4.0 1.25 4.4 3.3 4.1 3.4 Q3.35 3.75 3.65 4.1 L3.7 4.15 3.4 4.45 3.5 4.6 3.7 6.5 3.05 4.65 2.9 4.7 Q3.35 3.5 3.1 3.1 L3.25 2.7 2.15 2.2 2.15 3.4 2.3 3.55 2.2 3.85 1.8 3.4 1.7 2.8 1.6 2.4 2.65 1.1 2.55 1.75 2.65 1.85 2.8 1.9 2.9 1.85 2.95 1.85 3.0 2.3 3.25 2.55 3.45 2.5 3.55 2.45 3.75 2.25 Q4.0 1.75 3.75 0.4 M2.15 4.45 L1.7 5.65 0.3 2.7 0.1 2.45 0.2 2.5 0.3 2.7 0.45 2.75 0.55 2.8 0.65 2.9 0.6 2.75 0.7 2.7 1.1 3.6 Q1.4 4.15 1.7 3.9 L1.8 3.75 1.9 3.75 2.15 3.95 2.15 4.45 M2.85 1.75 L2.75 1.65 2.85 1.45 2.85 1.75" fill="#ef7f33" fill-rule="evenodd" stroke="none"/>
      <path d="M2.85 1.45 L2.9 0.75 Q3.1 -0.35 3.7 0.35 L3.75 0.4 Q4.0 1.75 3.75 2.25 L3.55 2.45 3.45 2.5 3.25 2.55 3.0 2.3 2.95 1.85 2.9 1.85 2.85 1.75 2.85 1.45 M4.4 3.3 L5.0 3.35 3.85 4.3 3.7 4.15 3.65 4.1 Q3.35 3.75 4.1 3.4 L4.4 3.3 M2.9 4.7 L2.75 4.85 2.3 4.75 2.25 4.7 2.15 4.45 2.15 3.95 2.2 3.85 2.3 3.55 2.35 3.45 2.5 3.25 2.9 2.95 3.05 3.1 3.1 3.1 Q3.35 3.5 2.9 4.7 M0.2 2.5 Q-0.2 1.9 0.15 1.5 L0.2 1.35 0.3 1.3 0.55 1.55 0.65 2.15 0.7 2.2 0.7 2.1 Q0.8 1.3 1.4 2.0 L1.6 2.4 1.7 2.8 1.8 3.4 1.8 3.75 1.7 3.9 Q1.4 4.15 1.1 3.6 L0.7 2.7 0.6 2.75 0.55 2.8 0.45 2.75 0.3 2.7 0.2 2.5" fill="#e5cea4" fill-rule="evenodd" stroke="none"/>
    </g>
  </defs>
</svg>
