<?xml version="1.0" encoding="UTF-8" standalone="no"?>
<svg xmlns:ffdec="https://www.free-decompiler.com/flash" xmlns:xlink="http://www.w3.org/1999/xlink" ffdec:objectType="frame" height="9.05px" width="6.95px" xmlns="http://www.w3.org/2000/svg">
  <g transform="matrix(1.0, 0.0, 0.0, 1.0, 0.05, 0.0)">
    <use ffdec:characterId="563" height="5.25" transform="matrix(1.0, 0.0, 0.0, 1.0, 0.0, 0.0)" width="6.9" xlink:href="#shape0"/>
  </g>
  <defs>
    <g id="shape0" transform="matrix(1.0, 0.0, 0.0, 1.0, 0.0, 0.0)">
      <path d="M0.95 5.2 L0.0 2.65 2.0 0.0 4.3 0.75 3.35 1.95 0.95 5.2" fill="#ffc670" fill-rule="evenodd" stroke="none"/>
      <path d="M5.25 1.5 L5.85 2.15 5.7 2.35 5.95 2.25 6.9 4.0 4.45 5.25 0.95 5.2 3.35 1.95 5.25 1.5" fill="#d45d23" fill-rule="evenodd" stroke="none"/>
      <path d="M5.85 2.15 L5.95 2.25 5.7 2.35 5.85 2.15 M4.3 0.75 L5.25 1.5 3.35 1.95 4.3 0.75" fill="#e57128" fill-rule="evenodd" stroke="none"/>
    </g>
  </defs>
</svg>
