<?xml version="1.0" encoding="UTF-8" standalone="no"?>
<svg xmlns:ffdec="https://www.free-decompiler.com/flash" xmlns:xlink="http://www.w3.org/1999/xlink" ffdec:objectType="frame" height="81.35px" width="30.2px" xmlns="http://www.w3.org/2000/svg">
  <g transform="matrix(1.0, 0.0, 0.0, 1.0, 10.6, 39.0)">
    <use ffdec:characterId="1948" height="80.7" transform="matrix(1.0, 0.0, 0.0, 1.0, -10.6, -38.35)" width="30.2" xlink:href="#shape0"/>
    <use ffdec:characterId="1081" height="100.0" id="shape" transform="matrix(0.18, 0.0, 0.0, 0.7801, -8.9996, -39.0045)" width="100.0" xlink:href="#sprite0"/>
  </g>
  <defs>
    <g id="shape0" transform="matrix(1.0, 0.0, 0.0, 1.0, 10.6, 38.35)">
      <path d="M6.9 -31.05 L8.1 -31.15 8.5 -31.15 8.75 -31.2 8.65 -30.3 8.5 -28.0 8.45 -26.9 7.9 -24.35 7.2 -20.85 6.95 -21.5 Q7.25 -23.75 6.95 -24.5 L6.9 -24.65 6.75 -26.55 6.35 -29.2 6.4 -29.45 6.9 -31.05 M0.0 27.75 L1.0 28.75 0.5 30.5 Q-0.05 31.6 -0.6 31.6 -1.9 31.6 -2.5 30.25 L-2.85 28.8 Q-2.85 27.35 -2.45 26.9 L-2.45 26.7 -2.4 25.6 -1.5 24.8 Q-1.15 25.8 -1.1 26.9 L-0.9 27.0 -0.1 27.65 0.1 27.05 0.0 27.75" fill="#796658" fill-rule="evenodd" stroke="none"/>
      <path d="M-6.9 31.4 L-5.6 29.15 Q-5.4 29.75 -5.45 30.5 L-5.6 31.7 -5.55 31.75 -6.9 31.4 M-3.05 32.85 L-3.2 31.8 -3.35 31.5 -3.8 30.75 -3.8 31.0 -4.0 31.1 -4.35 30.8 -4.5 30.15 -4.05 26.3 Q-2.55 18.9 -2.55 17.65 -2.55 16.35 -1.2 10.95 -3.3 17.2 -4.0 20.15 L-4.55 20.4 Q-5.7 15.45 -6.8 7.7 L-7.15 5.1 Q-2.95 6.75 -0.45 -5.45 L2.75 -21.0 2.95 -20.8 3.15 -23.5 Q3.75 -29.35 5.0 -30.1 5.7 -33.2 9.1 -32.3 L9.4 -30.0 8.1 -22.2 Q6.75 -14.95 6.75 -13.25 6.75 -13.0 6.25 -13.0 L5.45 -21.05 4.9 -26.5 Q4.35 -24.55 4.35 -22.15 4.35 -19.65 4.05 -18.8 L3.5 -16.9 3.5 -16.85 4.0 -11.45 Q4.0 -6.4 2.8 -1.3 L2.85 1.05 Q2.35 11.05 1.25 14.6 L1.1 15.55 1.25 16.4 0.75 23.35 Q0.75 24.8 1.9 27.25 3.0 29.65 3.0 30.8 L2.85 32.0 2.3 32.6 2.1 34.2 Q-0.4 34.15 -3.05 32.85 M-0.15 -31.15 L0.8 -27.45 1.15 -24.6 1.0 -21.65 Q0.3 -23.55 -0.95 -25.0 L-1.7 -25.8 -2.65 -25.85 -3.75 -27.25 -6.7 -24.3 -4.65 -30.4 -5.05 -29.7 -2.35 -35.15 -1.55 -35.0 -0.15 -31.15 M8.1 -31.15 L6.9 -31.15 6.9 -31.05 6.4 -29.45 6.35 -29.2 6.75 -26.55 6.9 -24.65 6.95 -24.5 Q7.25 -23.75 6.95 -21.5 L7.2 -20.85 7.9 -24.35 8.45 -26.9 8.5 -28.0 8.65 -30.3 8.75 -31.2 8.5 -31.15 8.1 -31.15 M0.0 27.75 L0.1 27.05 -0.1 27.65 -0.9 27.0 -1.1 26.9 Q-1.15 25.8 -1.5 24.8 L-2.4 25.6 -2.45 26.7 -2.45 26.9 Q-2.85 27.35 -2.85 28.8 L-2.5 30.25 Q-1.9 31.6 -0.6 31.6 -0.05 31.6 0.5 30.5 L1.0 28.75 0.0 27.75" fill="#816c5b" fill-rule="evenodd" stroke="none"/>
      <path d="M-8.15 31.05 L-8.15 31.0 -7.2 27.25 -6.6 24.3 Q-6.1 21.3 -6.1 19.8 -6.1 18.55 -6.35 18.05 L-8.0 5.95 Q-9.05 -1.3 -9.75 -4.1 L-10.5 -6.95 -10.55 -10.5 -10.6 -11.55 -10.25 -17.05 Q-10.25 -18.45 -9.35 -20.95 L-8.2 -24.35 -7.85 -25.5 -7.7 -25.85 -7.0 -29.45 -6.15 -32.9 -5.7 -34.5 -5.65 -35.6 Q-4.35 -37.0 -2.6 -37.8 L-1.9 -38.15 -1.85 -38.25 Q2.8 -38.7 5.8 -37.35 8.75 -36.0 10.1 -32.8 L9.85 -32.3 9.8 -30.8 9.5 -29.1 9.45 -28.8 9.3 -28.35 9.2 -27.4 8.65 -21.7 Q7.45 -8.9 7.1 -3.15 L5.9 11.2 Q5.05 19.45 4.9 22.85 4.55 27.9 8.45 30.95 L9.0 31.4 8.1 31.75 7.25 32.15 5.45 33.1 Q4.55 33.6 4.15 34.05 L2.1 34.2 2.3 32.6 2.85 32.0 3.0 30.8 Q3.0 29.65 1.9 27.25 0.75 24.8 0.75 23.35 L1.25 16.4 1.1 15.55 1.25 14.6 Q2.35 11.05 2.85 1.05 L2.8 -1.3 Q4.0 -6.4 4.0 -11.45 L3.5 -16.85 3.5 -16.9 4.05 -18.8 Q4.35 -19.65 4.35 -22.15 4.35 -24.55 4.9 -26.5 L5.45 -21.05 6.25 -13.0 Q6.75 -13.0 6.75 -13.25 6.75 -14.95 8.1 -22.2 L9.4 -30.0 9.1 -32.3 Q5.7 -33.2 5.0 -30.1 3.75 -29.35 3.15 -23.5 L2.95 -20.8 2.75 -21.0 -0.45 -5.45 Q-2.95 6.75 -7.15 5.1 L-6.8 7.7 Q-5.7 15.45 -4.55 20.4 L-4.0 20.15 Q-3.3 17.2 -1.2 10.95 -2.55 16.35 -2.55 17.65 -2.55 18.9 -4.05 26.3 L-4.5 30.15 -4.35 30.8 -4.0 31.1 -3.8 31.0 -3.8 30.75 -3.35 31.5 -3.2 31.8 -3.05 32.85 -3.15 32.8 Q-4.4 32.05 -5.5 31.75 L-5.55 31.75 -5.6 31.7 -5.45 30.5 Q-5.4 29.75 -5.6 29.15 L-6.9 31.4 -7.8 31.1 -8.15 31.05 M6.9 -31.05 L6.9 -31.15 8.1 -31.15 6.9 -31.05 M-0.15 -31.15 L-1.55 -35.0 -2.35 -35.15 -5.05 -29.7 -4.65 -30.4 -6.7 -24.3 -3.75 -27.25 -2.65 -25.85 -1.7 -25.8 -0.95 -25.0 Q0.3 -23.55 1.0 -21.65 L1.15 -24.6 0.8 -27.45 -0.15 -31.15" fill="#8c786b" fill-rule="evenodd" stroke="none"/>
      <path d="M9.0 31.4 Q9.45 31.35 9.85 31.65 L12.0 33.1 Q16.65 35.15 17.9 36.1 L16.7 37.35 14.55 38.1 14.3 38.15 9.6 38.25 Q6.75 38.25 -0.35 36.25 -7.45 34.25 -8.25 34.25 L-8.45 34.25 -8.95 34.35 -9.55 34.55 -9.45 34.0 -8.85 31.85 Q-8.65 31.25 -8.15 31.05 L-7.8 31.1 -6.9 31.4 -5.55 31.75 -5.5 31.75 Q-4.4 32.05 -3.15 32.8 L-3.05 32.85 Q-0.4 34.15 2.1 34.2 L4.15 34.05 Q4.55 33.6 5.45 33.1 L7.25 32.15 8.1 31.75 9.0 31.4 M12.05 36.15 L14.2 36.65 15.5 36.75 Q16.0 36.75 16.0 35.9 15.3 35.4 13.05 35.2 L12.95 35.2 9.6 35.5 12.05 36.15" fill="#363636" fill-rule="evenodd" stroke="none"/>
      <path d="M19.4 40.3 L19.6 40.45 19.6 40.65 19.45 40.85 17.85 41.0 17.1 40.95 15.95 40.9 14.3 40.75 11.15 40.35 9.6 40.2 8.65 40.05 7.45 39.85 7.65 39.85 5.0 39.45 2.75 39.05 0.95 38.7 -2.6 38.25 -8.5 37.3 -9.15 37.15 -9.45 37.1 -9.6 36.05 -9.15 36.1 -8.95 36.15 -8.65 36.2 -4.85 37.0 -1.35 37.75 4.05 38.6 4.7 38.7 13.35 39.75 15.3 39.95 19.05 40.1 19.4 40.3 M12.05 36.15 L9.6 35.5 12.95 35.2 13.05 35.2 Q15.3 35.4 16.0 35.9 16.0 36.75 15.5 36.75 L14.2 36.65 12.05 36.15" fill="#444444" fill-rule="evenodd" stroke="none"/>
      <path d="M17.9 36.1 L18.05 36.2 Q19.15 37.15 19.35 38.3 L19.4 40.3 19.05 40.1 15.3 39.95 13.35 39.75 4.7 38.7 4.05 38.6 -1.35 37.75 -4.85 37.0 -8.65 36.2 -8.95 36.15 -9.15 36.1 -9.6 36.05 -9.65 35.25 -9.55 34.55 -8.95 34.35 -8.45 34.25 -8.25 34.25 Q-7.45 34.25 -0.35 36.25 6.75 38.25 9.6 38.25 L14.3 38.15 14.55 38.1 16.7 37.35 17.9 36.1 M19.45 40.85 L19.35 41.65 Q18.7 41.95 18.0 42.2 L16.45 42.35 13.35 42.15 1.75 40.15 -0.3 39.75 -0.35 39.75 Q-0.7 40.35 -2.8 40.1 L-7.3 39.5 Q-9.15 39.3 -9.45 37.75 L-9.45 37.1 -9.15 37.15 -8.5 37.3 -2.6 38.25 0.95 38.7 2.75 39.05 5.0 39.45 7.65 39.85 7.45 39.85 8.65 40.05 9.6 40.2 11.15 40.35 14.3 40.75 15.95 40.9 17.1 40.95 17.85 41.0 19.45 40.85" fill="#282828" fill-rule="evenodd" stroke="none"/>
    </g>
    <g id="sprite0" transform="matrix(1.0, 0.0, 0.0, 1.0, 50.0, 50.0)">
      <use ffdec:characterId="1080" height="100.0" transform="matrix(1.0, 0.0, 0.0, 1.0, -50.0, -50.0)" width="100.0" xlink:href="#shape1"/>
    </g>
    <g id="shape1" transform="matrix(1.0, 0.0, 0.0, 1.0, 50.0, 50.0)">
      <path d="M50.0 50.0 L-50.0 50.0 -50.0 -50.0 50.0 -50.0 50.0 50.0 Z" fill="none" stroke="#9900ff" stroke-linecap="round" stroke-linejoin="round" stroke-width="0.05"/>
    </g>
  </defs>
</svg>
