<?xml version="1.0" encoding="UTF-8" standalone="no"?>
<svg xmlns:ffdec="https://www.free-decompiler.com/flash" xmlns:xlink="http://www.w3.org/1999/xlink" ffdec:objectType="frame" height="81.35px" width="30.2px" xmlns="http://www.w3.org/2000/svg">
  <g transform="matrix(1.0, 0.0, 0.0, 1.0, 10.6, 39.0)">
    <use ffdec:characterId="1951" height="63.1" transform="matrix(1.0, 0.0, 0.0, 1.0, -10.6, -36.6)" width="20.0" xlink:href="#shape0"/>
  </g>
  <defs>
    <g id="shape0" transform="matrix(1.0, 0.0, 0.0, 1.0, 10.6, 36.6)">
      <path d="M7.5 -8.9 L7.1 -3.15 6.55 4.35 4.0 5.5 3.4 2.5 4.15 2.0 4.65 1.05 4.6 0.05 4.6 -0.3 Q4.6 -1.85 3.05 -2.6 L3.1 -2.7 Q4.3 -2.85 4.65 -3.45 L4.75 -4.9 4.75 -5.1 4.9 -5.6 Q4.9 -7.05 3.85 -7.8 L4.0 -9.8 Q4.2 -8.3 6.0 -8.3 6.85 -8.3 7.5 -8.9 M-8.2 4.7 Q-9.1 -1.55 -9.75 -4.1 L-10.5 -6.95 -10.55 -10.5 -10.6 -11.55 -10.25 -17.05 Q-10.25 -18.45 -9.35 -20.95 L-8.95 -22.25 -8.2 -24.35 -7.85 -25.5 -7.7 -25.85 -7.2 -28.4 -5.2 -28.75 -6.7 -24.3 -3.75 -27.25 -3.25 -26.6 -3.5 -25.85 -3.1 -24.85 -2.75 -24.1 -2.9 -23.8 -3.6 -23.9 -4.55 -23.55 Q-5.3 -23.4 -5.45 -22.25 L-5.5 -21.95 -6.9 -21.75 Q-7.35 -21.55 -7.4 -20.7 L-7.75 -19.65 -7.75 -18.65 Q-7.55 -17.75 -6.35 -17.75 -5.15 -17.75 -4.25 -19.0 L-3.65 -20.0 Q-2.55 -20.1 -2.5 -21.5 -1.5 -21.0 -1.5 -20.6 -1.5 -18.05 -4.15 -15.05 L-6.25 -15.5 Q-8.6 -15.5 -8.75 -13.5 L-8.75 -13.25 Q-8.75 -12.0 -7.05 -11.8 L-8.25 -9.75 Q-3.3 -11.35 -1.75 -13.0 -1.0 -12.55 -0.05 -12.6 L1.0 -12.7 -0.45 -5.45 -1.4 -1.5 -2.05 0.4 Q-3.25 3.7 -4.7 4.8 L-5.1 3.6 -6.05 4.1 -7.6 4.75 -8.2 4.7 M-6.9 -29.9 L-6.15 -32.9 -5.7 -34.5 -5.65 -35.6 -5.55 -35.7 -5.55 -35.55 -5.15 -34.55 -4.3 -33.8 -4.1 -33.65 -4.6 -32.65 -5.5 -30.25 -6.9 -29.9 M4.0 -11.25 L4.0 -11.45 4.0 -11.95 4.1 -11.65 4.0 -11.25 M-4.7 -5.25 L-5.15 -4.5 Q-5.75 -3.6 -5.75 -2.65 L-5.75 -1.9 -5.75 -0.95 Q-5.5 -0.05 -4.25 -0.05 -3.45 -0.05 -2.9 -1.05 -2.5 -1.9 -2.5 -2.8 L-2.75 -3.35 -3.0 -3.9 -2.75 -4.35 Q-2.5 -4.45 -2.5 -4.75 L-2.6 -6.75 -2.25 -8.05 Q-2.25 -10.0 -2.9 -9.1 L-3.25 -9.25 Q-3.75 -9.05 -3.75 -8.55 L-3.6 -8.3 Q-3.85 -7.15 -4.7 -5.25" fill="#8c786b" fill-rule="evenodd" stroke="none"/>
      <path d="M1.0 -12.7 L1.05 -12.7 1.25 -12.75 Q2.4 -12.25 2.5 -11.5 L4.0 -11.2 3.95 -9.95 4.0 -9.85 4.0 -9.8 3.85 -7.8 2.7 -8.35 Q0.55 -9.05 0.5 -7.35 0.15 -6.95 0.15 -6.05 L0.7 -4.45 Q1.15 -3.25 1.6 -2.85 1.0 -2.65 1.0 -1.6 L1.0 -1.4 0.9 -0.35 1.05 0.15 Q0.15 -0.15 -0.85 -1.0 L-1.4 -1.5 -0.45 -5.45 1.0 -12.7 M3.1 -2.7 L3.05 -2.6 2.85 -2.65 3.1 -2.7 M-2.3 4.6 Q-2.75 5.3 -2.75 6.4 L-1.95 7.4 -2.5 7.75 -3.25 7.75 -3.15 7.15 Q-3.15 6.4 -4.4 6.45 L-4.7 4.85 -4.7 4.8 Q-3.25 3.7 -2.05 0.4 L-0.85 3.6 -0.95 3.65 -1.0 3.7 -1.4 3.85 -1.55 3.85 Q-2.3 3.95 -2.3 4.5 L-2.3 4.6 M-5.2 -28.75 L-5.1 -28.75 Q-4.45 -28.75 -4.05 -28.35 -3.65 -28.0 -2.75 -28.0 L-3.15 -26.9 -3.25 -26.6 -3.75 -27.25 -6.7 -24.3 -5.2 -28.75" fill="#816c5b" fill-rule="evenodd" stroke="none"/>
      <path d="M2.5 -32.5 L2.0 -30.9 1.8 -29.75 Q1.45 -31.05 0.5 -31.55 L1.0 -31.5 Q1.55 -31.5 2.1 -32.75 1.5 -33.45 0.15 -33.65 -1.45 -33.85 -2.0 -34.25 L-3.05 -35.25 -4.3 -35.95 -4.5 -36.25 -4.85 -36.05 -5.0 -35.55 -4.95 -35.2 -5.05 -35.15 -5.05 -34.8 -4.3 -33.8 -5.15 -34.55 -5.55 -35.55 -5.55 -35.7 -5.5 -36.5 -4.55 -36.6 -3.7 -36.4 Q-1.45 -37.4 1.8 -33.4 L2.5 -32.5 M4.95 -28.6 L5.85 -26.55 Q5.85 -25.1 7.1 -23.15 L7.0 -23.0 6.65 -22.25 Q5.75 -20.35 5.65 -19.2 L5.65 -19.05 5.45 -18.0 5.4 -17.8 5.25 -18.05 4.1 -18.85 2.85 -19.35 3.25 -19.45 3.1 -21.0 3.0 -21.55 2.85 -21.85 3.0 -21.7 Q3.65 -21.3 4.05 -21.3 L4.35 -21.3 Q4.55 -21.35 4.35 -21.4 L4.05 -22.0 4.35 -22.15 4.5 -22.25 4.9 -22.5 Q5.85 -23.15 5.85 -23.65 L5.75 -24.1 5.6 -24.15 Q4.35 -24.1 2.7 -25.0 L2.75 -25.15 Q2.95 -25.0 3.25 -25.0 3.7 -25.0 4.95 -28.6 M8.6 -20.95 Q9.4 -19.6 9.4 -18.75 L8.85 -15.85 8.3 -13.5 8.25 -13.35 8.05 -13.5 7.9 -13.55 7.3 -13.8 Q7.9 -15.0 7.9 -17.15 L7.75 -17.75 7.65 -17.55 8.15 -19.45 8.6 -20.95 M8.8 -11.35 L8.25 -9.95 7.55 -8.9 7.5 -8.9 Q6.85 -8.3 6.0 -8.3 4.2 -8.3 4.0 -9.8 L4.0 -9.85 3.95 -9.95 4.0 -11.2 4.0 -11.25 4.1 -11.65 4.0 -11.95 3.25 -13.2 3.1 -13.5 Q2.4 -14.65 2.4 -15.6 L2.5 -16.25 1.85 -15.35 1.5 -14.9 1.45 -14.9 Q1.0 -14.5 0.6 -14.5 -0.7 -14.5 -1.0 -15.55 L-1.05 -16.65 Q-1.05 -17.35 -0.5 -17.9 L-0.75 -16.7 Q-0.95 -15.65 0.0 -15.65 0.6 -15.65 1.85 -16.7 L1.95 -16.8 3.25 -18.0 3.6 -18.0 3.6 -17.9 3.6 -17.2 Q3.7 -16.5 4.4 -15.35 L5.4 -13.5 5.25 -13.15 Q5.25 -12.75 5.4 -12.7 L5.45 -12.7 5.35 -11.6 Q5.45 -10.25 6.75 -10.25 L7.65 -10.4 8.5 -11.0 8.8 -11.35 M6.8 8.0 L6.85 8.15 Q6.85 9.9 6.05 12.0 L5.95 12.35 6.0 13.2 5.75 15.45 5.6 13.9 5.25 13.9 5.4 10.0 5.3 9.6 5.25 9.6 Q6.4 8.85 6.8 8.0 M2.0 20.4 L1.0 20.35 Q-0.25 20.1 -0.4 19.25 L-0.15 17.5 -0.2 17.45 -0.15 16.8 Q-0.15 16.05 -0.7 15.8 L-0.55 15.75 0.15 16.0 0.2 17.1 Q0.2 18.2 0.5 18.5 L2.35 16.65 Q1.9 17.75 1.9 19.4 L2.0 20.4 M-3.4 18.45 L-3.5 18.4 -5.3 16.75 -6.8 14.55 -7.05 14.2 -7.0 13.75 -6.95 13.75 -6.35 13.6 -5.85 13.8 -5.35 14.3 -5.0 14.4 Q-4.65 14.4 -3.95 12.3 -3.25 10.15 -1.6 10.15 L-0.75 10.3 Q-0.25 9.6 -0.25 8.8 L-1.5 7.75 -1.95 7.4 -2.75 6.4 Q-2.75 5.3 -2.3 4.6 -2.3 5.1 -2.15 4.75 L-1.95 4.75 -1.95 4.8 -2.25 5.4 -2.15 5.85 -2.0 5.85 -2.0 6.35 -1.25 6.5 -0.25 6.3 0.75 5.5 1.4 4.5 1.5 5.25 1.15 10.6 1.15 11.15 1.9 11.65 2.35 12.0 Q3.05 10.6 3.9 9.75 L4.35 8.8 4.6 9.7 Q4.0 10.05 3.15 11.35 2.0 13.05 2.0 13.65 2.0 14.25 2.1 14.25 L3.45 14.4 2.9 15.1 Q2.5 15.9 1.9 15.9 1.0 15.2 0.7 15.15 0.65 14.15 0.1 13.15 -0.85 11.55 -2.3 12.25 -1.25 12.45 -1.15 12.75 L-1.75 13.9 -2.0 14.55 Q-2.0 15.3 -3.1 16.2 -4.25 17.05 -4.25 17.4 L-4.1 17.9 -3.75 18.0 -3.35 17.75 -3.4 18.45 M-3.7 -33.3 L-3.25 -32.9 Q-1.3 -31.3 -0.1 -31.3 L0.15 -31.4 0.85 -30.5 0.95 -27.2 0.95 -26.85 -1.5 -27.15 -1.5 -26.4 -1.2 -26.05 -1.4 -25.8 -1.55 -26.4 -1.3 -28.15 Q-1.25 -29.55 -2.5 -31.6 L-3.45 -32.95 -3.7 -33.3 M-2.5 -21.65 L-2.5 -21.5 Q-2.55 -20.1 -3.65 -20.0 L-4.25 -19.0 Q-5.15 -17.75 -6.35 -17.75 -7.55 -17.75 -7.75 -18.65 L-7.75 -19.65 -7.4 -20.7 -7.4 -20.4 Q-7.75 -19.25 -6.6 -19.25 -5.55 -19.25 -4.75 -20.0 -4.0 -20.7 -4.0 -21.45 L-3.35 -21.4 -2.6 -21.55 -2.5 -21.65 M4.75 -5.1 L4.75 -4.9 4.65 -3.45 Q4.3 -2.85 3.1 -2.7 L2.85 -2.65 2.1 -2.65 Q1.85 -2.65 1.6 -2.85 1.15 -3.25 0.7 -4.45 L0.15 -6.05 Q0.15 -6.95 0.5 -7.35 L0.5 -7.3 Q0.5 -6.4 0.9 -5.55 1.55 -4.25 3.0 -4.25 L3.4 -4.25 Q4.05 -4.35 4.5 -4.8 L4.75 -5.1 M4.6 0.05 L4.65 1.05 4.15 2.0 3.4 2.5 3.25 2.5 2.8 2.45 Q1.65 2.1 1.05 0.15 L0.9 -0.35 1.0 -1.4 Q1.05 -0.4 1.4 0.2 1.9 1.1 3.1 1.1 4.4 1.1 4.6 0.05 M-1.0 3.7 L-1.2 3.85 -1.4 3.85 -1.0 3.7 M-4.55 -23.55 Q-5.0 -23.15 -5.05 -22.25 L-5.05 -22.0 -5.5 -21.95 -5.45 -22.25 Q-5.3 -23.4 -4.55 -23.55 M-3.6 -8.3 L-3.45 -8.1 -4.0 -6.75 -4.7 -5.25 Q-3.85 -7.15 -3.6 -8.3 M-5.75 -1.9 L-5.75 -1.5 -5.0 -1.4 Q-2.55 -1.4 -2.55 -2.65 L-2.75 -3.15 -3.75 -4.05 -2.95 -5.9 -2.6 -6.75 -2.5 -4.75 Q-2.5 -4.45 -2.75 -4.35 L-3.0 -3.9 -2.75 -3.35 -2.5 -2.8 Q-2.5 -1.9 -2.9 -1.05 -3.45 -0.05 -4.25 -0.05 -5.5 -0.05 -5.75 -0.95 L-5.75 -1.9 M-6.65 8.8 L-6.65 8.65 Q-6.65 7.5 -5.9 7.25 L-6.0 7.75 -6.0 8.85 -5.1 9.0 Q-4.3 9.0 -3.75 8.5 L-3.65 8.4 -3.75 9.5 Q-4.1 10.1 -5.35 10.1 -6.35 10.1 -6.55 9.3 L-6.65 8.8" fill="#990000" fill-rule="evenodd" stroke="none"/>
      <path d="M1.8 -29.75 L2.0 -28.0 2.2 -27.2 3.4 -29.25 Q4.2 -30.6 5.65 -30.75 L5.75 -30.75 5.85 -30.4 Q5.85 -30.05 5.05 -28.9 L4.4 -28.0 3.6 -26.85 3.1 -25.75 2.75 -25.15 2.7 -25.0 Q4.35 -24.1 5.6 -24.15 L5.75 -24.1 5.85 -23.65 Q5.85 -23.15 4.9 -22.5 L4.5 -22.25 4.35 -22.15 4.05 -22.0 4.35 -21.4 Q4.55 -21.35 4.35 -21.3 L4.05 -21.3 Q3.65 -21.3 3.0 -21.7 L2.85 -21.85 2.35 -22.25 1.15 -23.35 0.3 -24.3 -0.3 -24.65 -1.5 -25.65 -1.4 -25.8 -1.2 -26.05 -1.5 -26.4 -1.5 -27.15 0.95 -26.85 0.95 -27.2 0.85 -30.5 0.15 -31.4 -0.1 -31.3 Q-1.3 -31.3 -3.25 -32.9 L-3.7 -33.3 -4.1 -33.65 -4.3 -33.8 -5.05 -34.8 -5.05 -35.15 -4.95 -35.2 -5.0 -35.55 -4.85 -36.05 -4.5 -36.25 -4.3 -35.95 -3.05 -35.25 -2.0 -34.25 Q-1.45 -33.85 0.15 -33.65 1.5 -33.45 2.1 -32.75 1.55 -31.5 1.0 -31.5 L0.5 -31.55 Q1.45 -31.05 1.8 -29.75 M8.25 -13.35 Q9.1 -12.95 9.1 -12.35 L8.8 -11.35 8.5 -11.0 7.65 -10.4 6.75 -10.25 Q5.45 -10.25 5.35 -11.6 L5.45 -12.7 5.4 -12.7 Q5.25 -12.75 5.25 -13.15 L5.4 -13.5 4.4 -15.35 Q3.7 -16.5 3.6 -17.2 L3.6 -17.9 3.6 -18.0 3.25 -18.0 1.95 -16.8 1.85 -16.7 Q0.6 -15.65 0.0 -15.65 -0.95 -15.65 -0.75 -16.7 L-0.5 -17.9 Q-0.1 -18.75 1.0 -19.2 L2.4 -19.4 2.45 -19.4 2.85 -19.35 4.1 -18.85 5.25 -18.05 5.4 -17.8 5.8 -16.45 6.0 -15.05 6.1 -14.85 6.1 -14.9 6.15 -15.0 7.15 -16.75 7.65 -17.55 7.75 -17.75 7.9 -17.15 Q7.9 -15.0 7.3 -13.8 L7.9 -13.55 8.05 -13.5 8.25 -13.35 M6.35 6.75 L6.9 6.75 6.95 6.75 7.0 7.15 6.8 8.0 Q6.4 8.85 5.25 9.6 L5.3 9.6 5.4 10.0 5.25 13.9 5.6 13.9 5.75 15.45 5.75 15.85 5.2 18.2 4.5 20.25 4.45 20.15 Q4.0 19.5 4.0 18.9 L4.4 17.3 4.75 15.95 4.2 14.9 4.0 14.7 2.55 16.4 2.35 16.65 0.5 18.5 Q0.2 18.2 0.2 17.1 L0.15 16.0 -0.55 15.75 -0.7 15.8 -2.1 16.75 -3.35 17.75 -3.75 18.0 -4.1 17.9 -4.25 17.4 Q-4.25 17.05 -3.1 16.2 -2.0 15.3 -2.0 14.55 L-1.75 13.9 -1.15 12.75 Q-1.25 12.45 -2.3 12.25 -0.85 11.55 0.1 13.15 0.65 14.15 0.7 15.15 1.0 15.2 1.9 15.9 2.5 15.9 2.9 15.1 L3.45 14.4 2.1 14.25 Q2.0 14.25 2.0 13.65 2.0 13.05 3.15 11.35 4.0 10.05 4.6 9.7 L4.35 8.8 4.25 7.65 Q4.25 7.0 4.9 6.85 L6.35 6.75 M-2.9 -23.8 Q-2.15 -23.55 -2.15 -22.6 L-2.15 -22.25 Q-2.25 -21.85 -2.5 -21.65 L-2.6 -21.55 -3.35 -21.4 -4.0 -21.45 Q-4.0 -20.7 -4.75 -20.0 -5.55 -19.25 -6.6 -19.25 -7.75 -19.25 -7.4 -20.4 L-7.4 -20.7 Q-7.35 -21.55 -6.9 -21.75 L-5.5 -21.95 -5.05 -22.0 -5.05 -22.25 Q-5.0 -23.15 -4.55 -23.55 L-3.6 -23.9 -2.9 -23.8 M3.85 -7.8 Q4.9 -7.05 4.9 -5.6 L4.75 -5.1 4.5 -4.8 Q4.05 -4.35 3.4 -4.25 L3.0 -4.25 Q1.55 -4.25 0.9 -5.55 0.5 -6.4 0.5 -7.3 L0.5 -7.35 Q0.55 -9.05 2.7 -8.35 L3.85 -7.8 M3.05 -2.6 Q4.6 -1.85 4.6 -0.3 L4.6 0.05 Q4.4 1.1 3.1 1.1 1.9 1.1 1.4 0.2 1.05 -0.4 1.0 -1.4 L1.0 -1.6 Q1.0 -2.65 1.6 -2.85 1.85 -2.65 2.1 -2.65 L2.85 -2.65 3.05 -2.6 M1.4 4.5 L0.75 5.5 -0.25 6.3 -1.25 6.5 -2.0 6.35 -2.0 5.85 -2.15 5.85 -2.25 5.4 -1.95 4.8 -1.95 4.75 -2.15 4.75 Q-2.3 5.1 -2.3 4.6 L-2.3 4.5 Q-2.3 3.95 -1.55 3.85 L-1.4 3.85 -1.2 3.85 -1.0 3.7 -0.95 3.65 -0.85 3.6 Q0.35 2.75 1.4 3.35 L1.5 3.8 1.4 4.5 M-4.7 -5.25 L-4.0 -6.75 -3.45 -8.1 -3.6 -8.3 -3.75 -8.55 Q-3.75 -9.05 -3.25 -9.25 L-2.9 -9.1 Q-2.25 -10.0 -2.25 -8.05 L-2.6 -6.75 -2.95 -5.9 -3.75 -4.05 -2.75 -3.15 -2.55 -2.65 Q-2.55 -1.4 -5.0 -1.4 L-5.75 -1.5 -5.75 -1.9 -5.75 -2.65 Q-5.75 -3.6 -5.15 -4.5 L-4.7 -5.25 M-4.4 6.45 Q-3.15 6.4 -3.15 7.15 L-3.25 7.75 -3.65 8.4 -3.75 8.5 Q-4.3 9.0 -5.1 9.0 L-6.0 8.85 -6.0 7.75 -5.9 7.25 Q-5.65 6.5 -4.55 6.45 L-4.4 6.45" fill="#ff0000" fill-rule="evenodd" stroke="none"/>
      <path d="M6.55 4.35 L6.35 6.75 4.9 6.85 Q4.25 7.0 4.25 7.65 L4.35 8.8 3.9 9.75 Q3.05 10.6 2.35 12.0 L1.9 11.65 Q2.45 8.25 2.8 2.45 L3.25 2.5 3.4 2.5 4.0 5.5 6.55 4.35 M-6.95 13.75 L-8.0 5.95 -8.2 4.7 -7.6 4.75 -6.05 4.1 -5.1 3.6 -4.7 4.8 Q-5.85 5.6 -7.15 5.1 L-6.8 7.7 -6.65 8.8 -6.55 9.3 -5.85 13.8 -6.35 13.6 -6.95 13.75 M-7.2 -28.4 L-7.0 -29.45 -6.9 -29.9 -5.5 -30.25 -4.6 -32.65 -4.1 -33.65 -3.7 -33.3 -3.45 -32.95 -5.05 -29.7 -4.65 -30.4 -5.2 -28.75 -7.2 -28.4 M1.15 -23.35 L2.35 -22.25 2.85 -21.85 3.0 -21.55 2.95 -20.8 2.75 -21.0 2.6 -20.3 2.45 -19.4 2.4 -19.4 1.0 -19.2 Q-0.1 -18.75 -0.5 -17.9 -1.05 -17.35 -1.05 -16.65 L-1.0 -15.55 Q-0.7 -14.5 0.6 -14.5 1.0 -14.5 1.45 -14.9 L1.5 -14.9 1.2 -13.5 1.05 -12.7 1.0 -12.7 -0.05 -12.6 Q-1.0 -12.55 -1.75 -13.0 -3.3 -11.35 -8.25 -9.75 L-7.05 -11.8 Q-8.75 -12.0 -8.75 -13.25 L-8.75 -13.5 Q-8.6 -15.5 -6.25 -15.5 L-4.15 -15.05 Q-1.5 -18.05 -1.5 -20.6 -1.5 -21.0 -2.5 -21.5 L-2.5 -21.65 Q-2.25 -21.85 -2.15 -22.25 L-2.15 -22.6 Q-2.15 -23.55 -2.9 -23.8 L-2.75 -24.1 -3.1 -24.85 -3.5 -25.85 -3.25 -26.6 -2.65 -25.85 -1.7 -25.8 -0.95 -25.0 Q0.1 -23.8 0.75 -22.25 L1.0 -21.65 1.1 -22.25 1.15 -23.35" fill="#ebbc8d" fill-rule="evenodd" stroke="none"/>
      <path d="M-1.4 -25.8 L-1.5 -25.65 -0.3 -24.65 0.3 -24.3 1.15 -23.35 1.1 -22.25 1.0 -21.65 0.75 -22.25 Q0.1 -23.8 -0.95 -25.0 L-1.7 -25.8 -2.65 -25.85 -3.25 -26.6 -3.15 -26.9 -2.75 -28.0 Q-3.65 -28.0 -4.05 -28.35 -4.45 -28.75 -5.1 -28.75 L-5.2 -28.75 -4.65 -30.4 -5.05 -29.7 -3.45 -32.95 -2.5 -31.6 Q-1.25 -29.55 -1.3 -28.15 L-1.55 -26.4 -1.4 -25.8 M1.05 -12.7 L1.2 -13.5 1.5 -14.9 1.85 -15.35 2.5 -16.25 2.4 -15.6 Q2.4 -14.65 3.1 -13.5 L3.25 -13.2 4.0 -11.95 4.0 -11.45 4.0 -11.25 4.0 -11.2 2.5 -11.5 Q2.4 -12.25 1.25 -12.75 L1.05 -12.7 M2.45 -19.4 L2.6 -20.3 2.75 -21.0 2.95 -20.8 3.0 -21.55 3.1 -21.0 3.25 -19.45 2.85 -19.35 2.45 -19.4 M-1.95 7.4 L-1.5 7.75 -0.25 8.8 Q-0.25 9.6 -0.75 10.3 L-1.6 10.15 Q-3.25 10.15 -3.95 12.3 -4.65 14.4 -5.0 14.4 L-5.35 14.3 -5.85 13.8 -6.55 9.3 Q-6.35 10.1 -5.35 10.1 -4.1 10.1 -3.75 9.5 L-3.65 8.4 -3.25 7.75 -2.5 7.75 -1.95 7.4 M1.4 4.5 L1.5 3.8 1.4 3.35 Q0.35 2.75 -0.85 3.6 L-2.05 0.4 -1.4 -1.5 -0.85 -1.0 Q0.15 -0.15 1.05 0.15 1.65 2.1 2.8 2.45 2.45 8.25 1.9 11.65 L1.15 11.15 1.15 10.6 1.5 5.25 1.4 4.5 M-4.7 4.8 L-4.7 4.85 -4.4 6.45 -4.55 6.45 Q-5.65 6.5 -5.9 7.25 -6.65 7.5 -6.65 8.65 L-6.65 8.8 -6.8 7.7 -7.15 5.1 Q-5.85 5.6 -4.7 4.8" fill="#d8ac8c" fill-rule="evenodd" stroke="none"/>
      <path d="M2.5 -32.5 L2.95 -33.75 4.0 -33.65 Q4.65 -33.65 5.7 -34.35 L6.55 -33.75 5.65 -30.75 Q4.2 -30.6 3.4 -29.25 L2.2 -27.2 2.0 -28.0 1.8 -29.75 2.0 -30.9 2.5 -32.5 M5.05 -28.9 L4.95 -28.6 Q3.7 -25.0 3.25 -25.0 2.95 -25.0 2.75 -25.15 L3.1 -25.75 3.6 -26.85 4.4 -28.0 5.05 -28.9 M7.1 -23.15 L8.75 -26.0 9.25 -25.25 9.25 -24.5 8.6 -20.95 8.15 -19.45 7.65 -17.55 7.15 -16.75 6.15 -15.0 6.1 -14.9 6.1 -14.85 6.0 -15.05 5.8 -16.45 5.4 -17.8 5.45 -18.0 5.65 -19.05 5.65 -19.2 Q5.75 -20.35 6.65 -22.25 L7.0 -23.0 7.1 -23.15 M4.45 20.15 Q3.75 22.95 3.75 23.5 3.85 23.75 3.25 23.75 2.3 23.75 2.0 20.4 L1.9 19.4 Q1.9 17.75 2.35 16.65 L2.55 16.4 4.0 14.7 4.2 14.9 4.75 15.95 4.4 17.3 4.0 18.9 Q4.0 19.5 4.45 20.15 M-0.2 17.45 Q-0.4 18.95 -1.35 22.05 -2.55 25.85 -3.15 26.5 L-3.5 20.25 -3.4 18.45 -3.35 17.75 -2.1 16.75 -0.7 15.8 Q-0.15 16.05 -0.15 16.8 L-0.2 17.45" fill="#ffffff" fill-rule="evenodd" stroke="none"/>
    </g>
  </defs>
</svg>
