<?xml version="1.0" encoding="UTF-8" standalone="no"?>
<svg xmlns:ffdec="https://www.free-decompiler.com/flash" xmlns:xlink="http://www.w3.org/1999/xlink" ffdec:objectType="frame" height="174.45px" width="67.25px" xmlns="http://www.w3.org/2000/svg">
  <g transform="matrix(1.0, 0.0, 0.0, 1.0, 45.8, 71.5)">
    <use ffdec:characterId="1289" height="60.85" id="arm2" transform="matrix(1.0, 0.0, 0.0, 1.0, -6.05, -17.35)" width="10.55" xlink:href="#sprite0"/>
    <use ffdec:characterId="1300" height="83.15" id="leg2" transform="matrix(1.0, 0.0, 0.0, 1.0, -12.25, 18.45)" width="27.3" xlink:href="#sprite5"/>
    <use ffdec:characterId="1316" height="61.45" id="headOuter" transform="matrix(1.0, 0.0, 0.0, 1.0, -45.8, -71.5)" width="67.25" xlink:href="#sprite9"/>
    <use ffdec:characterId="1331" ffdec:characterName="game_fla.chest_788" height="64.65" id="chest" transform="matrix(1.0, 0.0, 0.0, 1.0, -25.2, -34.25)" width="42.5" xlink:href="#sprite14"/>
    <use ffdec:characterId="1342" ffdec:characterName="game_fla.pelvis_795" height="31.05" id="pelvis" transform="matrix(0.999, -7.0E-4, 7.0E-4, 0.999, -16.8963, 7.5315)" width="35.4" xlink:href="#sprite16"/>
    <use ffdec:characterId="1352" height="84.1" id="leg1" transform="matrix(1.0, 0.0, 0.0, 1.0, -12.1, 18.85)" width="26.9" xlink:href="#sprite17"/>
    <use ffdec:characterId="1362" height="61.95" id="arm1" transform="matrix(1.0, 0.0, 0.0, 1.0, -6.2, -18.1)" width="10.75" xlink:href="#sprite21"/>
  </g>
  <defs>
    <g id="sprite0" transform="matrix(1.0, 0.0, 0.0, 1.0, 4.9, 6.8)">
      <use ffdec:characterId="1284" ffdec:characterName="game_fla.upperarm2_773" height="36.45" id="upperArm2" transform="matrix(1.0, 0.0, 0.0, 1.0, -4.9, -6.8)" width="10.35" xlink:href="#sprite1"/>
      <use ffdec:characterId="1288" height="33.2" id="lowerArmOuter2" transform="matrix(1.0, 0.0, 0.0, 1.0, -3.55, 20.85)" width="9.2" xlink:href="#sprite3"/>
    </g>
    <g id="sprite1" transform="matrix(1.0, 0.0, 0.0, 1.0, 5.35, 18.25)">
      <use ffdec:characterId="1280" height="35.65" transform="matrix(1.0, 0.0, 0.0, 1.0, -5.05, -17.5)" width="9.0" xlink:href="#shape0"/>
      <use ffdec:characterId="1081" height="100.0" id="shape" transform="matrix(0.1, 0.0, 0.0, 0.36, -4.9995, -17.9985)" width="100.0" xlink:href="#sprite2"/>
    </g>
    <g id="shape0" transform="matrix(1.0, 0.0, 0.0, 1.0, 5.05, 17.5)">
      <path d="M3.9 -12.85 L3.95 -9.35 3.6 7.55 3.85 13.65 Q3.9 14.85 3.5 15.85 3.2 16.7 2.3 17.4 0.15 18.8 -2.25 17.6 -3.45 16.2 -3.65 14.1 L-3.7 11.35 -3.65 9.0 -3.8 5.65 -3.85 5.4 -3.85 5.3 -4.05 3.25 -4.05 2.9 -4.15 2.05 -4.15 1.25 -4.2 0.65 Q-4.4 -4.4 -5.05 -10.7 L-4.85 -12.95 -4.05 -15.25 Q-2.25 -18.4 2.15 -17.15 L3.2 -15.9 3.85 -13.5 3.9 -12.85 M-1.6 0.05 L-1.7 0.15 -1.65 0.15 -1.6 0.05" fill="#ffcc99" fill-rule="evenodd" stroke="none"/>
      <path d="M-1.6 0.05 L-1.65 0.15 -1.7 0.15 -1.6 0.05" fill="#ffcc66" fill-rule="evenodd" stroke="none"/>
    </g>
    <g id="sprite2" transform="matrix(1.0, 0.0, 0.0, 1.0, 50.0, 50.0)">
      <use ffdec:characterId="1080" height="100.0" transform="matrix(1.0, 0.0, 0.0, 1.0, -50.0, -50.0)" width="100.0" xlink:href="#shape1"/>
    </g>
    <g id="shape1" transform="matrix(1.0, 0.0, 0.0, 1.0, 50.0, 50.0)">
      <path d="M50.0 50.0 L-50.0 50.0 -50.0 -50.0 50.0 -50.0 50.0 50.0 Z" fill="none" stroke="#9900ff" stroke-linecap="round" stroke-linejoin="round" stroke-width="0.05"/>
    </g>
    <g id="sprite3" transform="matrix(1.0, 0.0, 0.0, 1.0, 4.55, 5.2)">
      <use ffdec:characterId="1287" ffdec:characterName="game_fla.lowerarm2_775" height="33.2" id="lowerArm2" transform="matrix(1.0, 0.0, 0.0, 1.0, -4.55, -5.2)" width="9.2" xlink:href="#sprite4"/>
    </g>
    <g id="sprite4" transform="matrix(1.0, 0.0, 0.0, 1.0, 5.15, 15.45)">
      <use ffdec:characterId="1285" height="32.7" transform="matrix(1.0, 0.0, 0.0, 1.0, -5.15, -14.95)" width="8.95" xlink:href="#shape2"/>
      <use ffdec:characterId="1081" height="100.0" id="shape" transform="matrix(0.07, 0.0, 0.0, 0.3, -3.4996, -15.0002)" width="100.0" xlink:href="#sprite2"/>
    </g>
    <g id="shape2" transform="matrix(1.0, 0.0, 0.0, 1.0, 5.15, 14.95)">
      <path d="M-2.9 12.5 L-2.65 11.75 -2.5 11.15 Q-2.4 9.45 -2.05 8.7 L-2.25 6.45 Q-2.25 4.45 -2.8 1.45 L-3.85 -3.75 -4.7 -7.75 Q-5.15 -9.7 -4.55 -11.2 -3.5 -14.0 -0.6 -14.95 L2.05 -13.85 Q3.75 -13.05 3.55 -6.7 L2.7 8.9 Q3.15 9.3 3.45 10.3 3.9 11.7 3.75 13.55 L3.65 14.05 Q3.65 14.55 3.25 14.85 2.8 15.2 2.25 15.15 L1.8 15.95 0.95 17.15 0.6 17.45 0.55 17.45 0.25 17.5 -1.25 17.75 -1.7 17.55 Q-1.4 17.15 -0.9 17.1 L0.05 17.05 0.15 16.9 0.25 16.9 1.4 15.4 -0.4 14.8 -0.3 14.2 Q-0.15 13.85 0.6 13.7 L0.85 13.7 1.35 13.3 1.3 12.65 Q1.25 12.1 1.35 11.7 1.55 11.15 2.0 10.75 L1.6 10.2 Q1.35 9.9 1.0 9.75 L0.8 9.75 0.45 9.7 Q-0.25 9.7 -0.9 10.25 L-1.85 11.6 -2.6 12.3 -2.9 12.5 M-3.25 -8.0 L-3.25 -7.95 -3.15 -7.95 -3.25 -8.0 M-1.4 1.9 L-1.8 1.1 -1.35 4.4 Q-1.0 7.0 -1.45 8.75 L-0.65 8.7 0.15 8.7 Q-0.3 8.05 -0.4 6.75 L-0.5 4.35 Q-0.55 3.25 -1.4 1.9" fill="#ffcc99" fill-rule="evenodd" stroke="none"/>
      <path d="M0.45 9.7 L0.8 9.75 1.0 9.75 Q1.35 9.9 1.6 10.2 L2.0 10.75 Q1.55 11.15 1.35 11.7 1.25 12.1 1.3 12.65 L1.35 13.3 0.85 13.7 0.75 13.45 0.3 12.35 -0.05 10.95 0.25 10.0 0.45 9.7" fill="#e2b181" fill-rule="evenodd" stroke="none"/>
      <path d="M-2.9 12.5 L-2.6 12.3 -1.85 11.6 -0.9 10.25 Q-0.25 9.7 0.45 9.7 L0.25 10.0 -0.05 10.95 0.3 12.35 0.75 13.45 0.85 13.7 0.6 13.7 Q-0.15 13.85 -0.3 14.2 L-0.4 14.8 1.4 15.4 0.25 16.9 0.15 16.9 0.05 17.05 -0.9 17.1 Q-1.4 17.15 -1.7 17.55 L-2.5 17.25 -2.65 16.75 -2.75 16.8 -3.25 16.9 Q-4.1 16.75 -4.25 16.0 L-5.15 15.7 -4.9 14.9 -4.25 14.5 Q-3.5 13.9 -3.0 12.85 L-2.9 12.5 M-3.25 -8.0 L-3.15 -7.95 -3.25 -7.95 -3.25 -8.0 M-1.4 1.9 Q-0.55 3.25 -0.5 4.35 L-0.4 6.75 Q-0.3 8.05 0.15 8.7 L-0.65 8.7 -1.45 8.75 Q-1.0 7.0 -1.35 4.4 L-1.8 1.1 -1.4 1.9" fill="#ebbb98" fill-rule="evenodd" stroke="none"/>
    </g>
    <g id="sprite5" transform="matrix(1.0, 0.0, 0.0, 1.0, 12.05, 9.1)">
      <use ffdec:characterId="1294" ffdec:characterName="game_fla.upperleg2_777" height="48.4" id="upperLeg2" transform="matrix(1.0, 0.0, 0.0, 1.0, -12.05, -9.1)" width="21.95" xlink:href="#sprite6"/>
      <use ffdec:characterId="1299" height="47.3" id="lowerLegOuter2" transform="matrix(1.0, 0.0, 0.0, 1.0, -8.4, 26.75)" width="23.65" xlink:href="#sprite7"/>
    </g>
    <g id="sprite6" transform="matrix(1.0, 0.0, 0.0, 1.0, 12.05, 23.5)">
      <use ffdec:characterId="1290" height="45.35" transform="matrix(1.0, 0.0, 0.0, 1.0, -9.65, -22.35)" width="18.55" xlink:href="#shape3"/>
      <use ffdec:characterId="1081" height="100.0" id="shape" transform="matrix(0.16, 0.0, 0.0, 0.45, -7.9994, -22.4998)" width="100.0" xlink:href="#sprite2"/>
    </g>
    <g id="shape3" transform="matrix(1.0, 0.0, 0.0, 1.0, 9.65, 22.35)">
      <path d="M5.75 11.8 L5.1 18.55 Q4.95 19.65 3.95 21.0 1.3 24.0 -4.0 22.45 -7.35 21.45 -7.4 15.2 L-7.4 15.0 -7.4 14.1 -7.3 11.35 -6.4 11.45 -6.15 11.5 -5.85 15.6 -5.6 15.5 -5.65 16.25 -5.35 15.4 -5.3 15.35 -5.2 14.85 -4.75 12.85 -4.6 12.4 -4.5 11.7 -3.5 11.75 1.55 11.5 5.75 11.8" fill="#e2b181" fill-rule="evenodd" stroke="none"/>
      <path d="M-8.55 -17.2 L-8.15 -17.75 -8.0 -18.0 -5.55 -19.85 Q-1.3 -22.05 3.55 -22.35 L4.2 -22.3 5.65 -21.65 6.05 -21.3 Q6.1 -19.95 6.75 -17.0 7.5 -13.55 7.5 -11.25 7.5 -6.45 5.45 -1.55 L1.25 6.75 1.25 7.0 3.9 4.35 Q5.45 2.75 6.5 2.25 5.4 4.2 4.7 7.7 L4.25 9.9 4.0 9.9 1.2 9.7 -4.05 9.4 -5.35 9.4 -6.2 9.45 -6.7 9.55 -6.1 6.3 -4.5 -1.75 -5.8 0.55 -7.0 2.5 Q-6.9 0.05 -7.8 -5.15 -8.75 -10.55 -8.75 -12.5 L-8.55 -17.2" fill="#2766c4" fill-rule="evenodd" stroke="none"/>
      <path d="M-8.55 -17.2 L-8.75 -12.5 Q-8.75 -10.55 -7.8 -5.15 -6.9 0.05 -7.0 2.5 L-5.8 0.55 -4.5 -1.75 -6.1 6.3 -6.7 9.55 -7.0 9.65 -7.25 9.65 -9.1 9.65 -9.1 9.0 Q-8.75 8.25 -8.7 6.45 L-8.7 6.15 -8.8 2.15 -8.85 0.35 -8.65 -5.25 Q-8.6 -8.05 -8.9 -9.0 L-9.6 -12.35 Q-9.85 -14.6 -9.2 -15.95 L-8.55 -17.2 M4.25 9.9 L4.7 7.7 Q5.4 4.2 6.5 2.25 5.45 2.75 3.9 4.35 L1.25 7.0 1.25 6.75 5.45 -1.55 Q7.5 -6.45 7.5 -11.25 7.5 -13.55 6.75 -17.0 6.1 -19.95 6.05 -21.3 L6.65 -20.5 Q7.65 -19.2 8.15 -17.5 L8.25 -17.2 8.6 -14.8 8.8 -8.95 8.75 -7.8 8.9 6.3 8.9 8.35 8.75 9.25 8.75 9.75 5.95 9.85 4.25 9.9" fill="#3875d2" fill-rule="evenodd" stroke="none"/>
      <path d="M-6.7 9.55 L-6.2 9.45 -5.35 9.4 -4.05 9.4 1.2 9.7 4.0 9.9 4.25 9.9 5.95 9.85 5.75 11.8 1.55 11.5 -3.5 11.75 -4.5 11.7 -4.6 12.4 -4.75 12.85 -5.2 14.85 -5.3 15.35 -5.35 15.4 -5.65 16.25 -5.6 15.5 -5.85 15.6 -6.15 11.5 -6.4 11.45 -7.3 11.35 -7.25 9.65 -7.0 9.65 -6.7 9.55" fill="#d5a675" fill-rule="evenodd" stroke="none"/>
    </g>
    <g id="sprite7" transform="matrix(1.0, 0.0, 0.0, 1.0, 8.55, 5.75)">
      <use ffdec:characterId="1298" ffdec:characterName="game_fla.lowerleg2_779" height="47.3" id="lowerLeg2" transform="matrix(1.0, 0.0, 0.0, 1.0, -8.55, -5.75)" width="23.65" xlink:href="#sprite8"/>
    </g>
    <g id="sprite8" transform="matrix(1.0, 0.0, 0.0, 1.0, 7.5, 23.35)">
      <use ffdec:characterId="1295" height="40.5" transform="matrix(1.0, 0.0, 0.0, 1.0, -5.65, -22.75)" width="11.55" xlink:href="#shape4"/>
      <use ffdec:characterId="1296" height="11.75" transform="matrix(1.0, 0.0, 0.0, 1.0, -7.5, 12.2)" width="23.65" xlink:href="#shape5"/>
      <use ffdec:characterId="1081" height="100.0" id="shape" transform="matrix(0.11, 0.0, 0.0, 0.45, -5.5, -22.5014)" width="100.0" xlink:href="#sprite2"/>
    </g>
    <g id="shape4" transform="matrix(1.0, 0.0, 0.0, 1.0, 5.65, 22.75)">
      <path d="M4.85 -1.25 L4.7 0.4 3.3 0.4 2.5 0.4 -4.85 0.4 -5.0 -1.3 2.85 -1.25 3.45 -1.25 4.85 -1.25 M4.55 2.0 L4.3 4.0 3.0 4.0 1.7 4.0 -4.5 4.0 -4.5 3.95 -4.7 2.0 2.15 2.0 3.15 2.0 4.55 2.0" fill="#e096e0" fill-rule="evenodd" stroke="none"/>
      <path d="M-5.0 -2.75 L-5.0 -2.9 Q-4.9 -4.3 -5.2 -5.9 L-5.65 -12.25 Q-5.6 -15.2 -5.1 -18.15 L-4.0 -19.5 Q-3.6 -22.25 -0.25 -22.7 L0.75 -22.7 Q3.75 -22.45 5.9 -17.45 5.8 -13.5 5.3 -8.85 L5.0 -2.75 3.55 -2.75 3.95 -7.25 3.15 -2.75 -5.0 -2.75" fill="#e2b181" fill-rule="evenodd" stroke="none"/>
      <path d="M3.15 -2.75 L3.95 -7.25 3.55 -2.75 3.15 -2.75" fill="#d5a675" fill-rule="evenodd" stroke="none"/>
      <path d="M5.0 -2.75 L4.85 -1.25 3.45 -1.25 3.55 -2.75 5.0 -2.75 M4.7 0.4 L4.65 1.05 4.55 2.0 3.15 2.0 3.3 0.4 4.7 0.4 M4.3 4.0 L4.3 4.05 4.25 4.15 Q3.9 6.5 3.7 9.55 L3.65 9.9 3.7 10.1 3.5 16.4 1.85 16.4 3.0 4.0 4.3 4.0 M-2.95 17.25 L-4.7 17.75 -4.65 17.5 -4.65 17.25 -4.6 17.0 -4.6 16.75 -4.55 16.5 -4.25 9.2 Q-4.3 6.3 -4.5 4.0 L1.7 4.0 0.6 7.9 -3.05 17.2 -2.95 17.25 M-4.7 2.0 L-4.8 1.05 -4.85 0.4 2.5 0.4 2.35 1.05 2.15 2.0 -4.7 2.0 M-5.0 -1.3 L-5.0 -2.75 3.15 -2.75 2.85 -1.25 -5.0 -1.3" fill="#e1e1e1" fill-rule="evenodd" stroke="none"/>
      <path d="M1.85 16.4 L0.25 16.45 0.1 16.45 -2.95 17.25 -3.05 17.2 0.6 7.9 1.7 4.0 3.0 4.0 1.85 16.4 M3.45 -1.25 L2.85 -1.25 3.15 -2.75 3.55 -2.75 3.45 -1.25 M3.3 0.4 L3.15 2.0 2.15 2.0 2.35 1.05 2.5 0.4 3.3 0.4" fill="#d2d2d2" fill-rule="evenodd" stroke="none"/>
    </g>
    <g id="shape5" transform="matrix(1.0, 0.0, 0.0, 1.0, 7.5, -12.2)">
      <path d="M16.05 22.05 L16.0 22.2 15.85 22.8 15.7 23.45 Q15.6 23.9 14.05 23.95 L6.5 23.35 -7.5 21.45 -7.2 19.45 15.1 21.95 16.05 22.05" fill="#ffffff" fill-rule="evenodd" stroke="none"/>
      <path d="M-7.2 19.45 L-7.15 18.95 -6.65 16.5 Q-6.35 14.4 -5.55 12.6 L-4.1 12.2 -1.5 12.3 1.4 12.25 2.7 12.2 3.9 12.3 4.5 12.4 4.7 12.5 6.25 13.6 6.65 13.9 6.8 14.05 6.9 14.15 Q8.45 15.8 10.35 16.95 L11.05 17.35 11.85 17.75 14.0 18.25 Q15.15 18.45 15.7 19.9 L16.15 21.55 16.05 22.05 15.1 21.95 -7.2 19.45" fill="#e096e0" fill-rule="evenodd" stroke="none"/>
    </g>
    <g id="sprite9" transform="matrix(1.0, 0.0, 0.0, 1.0, 43.5, 63.75)">
      <use ffdec:characterId="1315" ffdec:characterName="game_fla.head_781" height="61.45" id="head" transform="matrix(1.0, 0.0, 0.0, 1.0, -43.5, -63.75)" width="67.25" xlink:href="#sprite10"/>
    </g>
    <g id="sprite10" transform="matrix(1.0, 0.0, 0.0, 1.0, 49.95, 38.55)">
      <use ffdec:characterId="1302" height="16.85" transform="matrix(1.0, 0.0, 0.0, 1.0, -10.2, 6.05)" width="11.7" xlink:href="#sprite11"/>
      <use ffdec:characterId="1304" height="29.85" transform="matrix(1.0, 0.0, 0.0, 1.0, -13.65, -16.15)" width="25.5" xlink:href="#sprite12"/>
      <use ffdec:characterId="1111" height="100.0" id="shape" transform="matrix(0.27, 0.0, 0.0, 0.27, -13.5002, -13.5002)" width="100.0" xlink:href="#sprite13"/>
    </g>
    <g id="sprite11" transform="matrix(1.0, 0.0, 0.0, 1.0, 4.9, 8.7)">
      <use ffdec:characterId="1301" height="16.85" transform="matrix(1.0, 0.0, 0.0, 1.0, -4.9, -8.7)" width="11.7" xlink:href="#shape6"/>
    </g>
    <g id="shape6" transform="matrix(1.0, 0.0, 0.0, 1.0, 4.9, 8.7)">
      <path d="M-3.6 -5.15 L-3.55 -5.7 -3.25 -7.5 -2.65 -8.55 -1.3 -8.7 4.05 -7.15 6.4 -5.85 6.8 -5.55 6.4 -4.6 5.9 -2.85 Q5.5 -1.6 5.45 -1.0 L5.4 0.95 5.4 1.25 4.85 1.35 Q1.7 -2.95 -3.1 -5.4 L-3.6 -5.15" fill="#e2b181" fill-rule="evenodd" stroke="none"/>
      <path d="M-3.6 -5.15 L-3.1 -5.4 Q1.7 -2.95 4.85 1.35 L5.4 1.25 Q5.4 3.1 5.7 5.8 L6.05 8.15 5.7 7.65 Q0.25 2.55 -4.9 3.95 -4.95 2.2 -4.5 1.3 -4.1 0.35 -4.0 -0.9 L-3.6 -5.15" fill="#ffcc99" fill-rule="evenodd" stroke="none"/>
    </g>
    <g id="sprite12" transform="matrix(1.0, 0.0, 0.0, 1.0, 13.2, 16.7)">
      <use ffdec:characterId="1303" height="29.85" transform="matrix(1.0, 0.0, 0.0, 1.0, -13.2, -16.7)" width="25.5" xlink:href="#shape7"/>
    </g>
    <g id="shape7" transform="matrix(1.0, 0.0, 0.0, 1.0, 13.2, 16.7)">
      <path d="M-2.15 -13.4 Q-1.85 -13.55 -1.3 -13.85 L0.15 -14.4 1.85 -14.6 3.55 -14.45 7.9 -13.6 Q10.2 -13.65 11.45 -12.15 12.3 -11.15 12.3 -10.15 L12.1 -8.85 11.45 -7.8 11.4 -7.7 11.4 -7.65 11.2 -7.6 10.9 -7.75 10.8 -7.7 10.15 -7.7 7.45 -7.8 6.9 -7.6 6.8 -7.6 Q5.05 -7.6 3.25 -5.8 1.7 -4.25 1.05 -2.6 L0.0 -0.5 -0.05 -4.05 -0.1 -4.35 Q1.05 -8.7 5.05 -10.85 L5.05 -10.95 3.3 -11.7 Q3.05 -12.1 1.6 -12.1 L-1.6 -11.75 Q-3.7 -11.3 -4.1 -10.45 L-4.1 -10.6 -2.15 -13.4 M-12.75 -4.3 L-12.65 -5.3 Q-12.4 -6.8 -11.65 -7.95 L-10.85 -7.6 -7.35 -8.0 -6.2 -8.0 -8.75 -6.5 Q-9.75 -5.65 -9.95 -4.5 L-9.95 -5.15 -9.7 -6.55 Q-10.65 -6.1 -11.3 -4.35 -11.9 -2.7 -11.65 -1.3 L-12.35 -3.05 -12.75 -4.3 M-13.15 -12.05 L-13.2 -12.1 -13.15 -12.1 Q-13.05 -13.9 -11.8 -15.15 -10.5 -16.45 -8.65 -16.65 -6.2 -16.9 -5.05 -15.5 L-4.4 -14.2 -4.1 -13.1 Q-4.1 -12.2 -4.85 -11.25 L-5.5 -10.5 -5.1 -11.15 Q-4.85 -11.7 -4.85 -12.8 -4.85 -13.7 -5.2 -14.75 L-5.3 -14.6 -5.25 -14.4 -5.2 -13.3 Q-5.2 -12.55 -5.8 -10.8 -5.75 -11.35 -6.25 -12.0 L-6.35 -12.1 -6.55 -11.5 -6.45 -12.2 Q-7.05 -12.85 -7.65 -12.85 L-8.3 -12.8 -8.8 -12.2 -8.25 -10.8 Q-7.8 -9.95 -7.7 -9.35 -7.9 -9.65 -8.3 -9.75 L-8.4 -9.2 Q-8.75 -10.7 -9.6 -11.35 L-9.6 -11.25 Q-9.05 -10.9 -8.9 -10.2 L-8.85 -8.85 -8.85 -8.75 -9.55 -8.6 -11.05 -8.9 -11.35 -9.05 -11.5 -9.15 -11.95 -9.7 Q-12.9 -10.85 -13.15 -12.05 M-1.35 6.15 L-1.65 7.6 Q-1.65 8.05 -1.1 8.7 L0.9 9.75 0.85 9.85 0.45 9.85 -1.15 9.25 Q-2.5 8.35 -2.5 6.85 L-2.45 6.15 -2.45 5.85 -1.95 4.15 -1.85 3.95 Q-1.35 2.6 -1.35 1.9 -1.35 0.65 -1.7 -0.9 -2.1 -2.45 -2.1 -3.5 -2.1 -7.0 0.95 -9.55 L-0.05 -8.25 Q-0.95 -6.7 -0.95 -3.45 L-0.75 -1.0 -0.6 1.35 -0.6 1.75 -0.95 3.35 -1.1 4.2 -1.15 4.65 -1.35 6.15 M3.2 -11.7 Q2.4 -11.7 1.95 -11.35 L1.25 -10.95 -0.1 -9.9 -1.85 -8.75 -3.55 -7.75 Q-4.4 -7.05 -4.6 -5.85 -4.8 -4.6 -6.8 -2.15 -8.0 -0.7 -8.2 0.85 L-8.2 -0.5 -7.95 -1.4 -7.6 -2.1 Q-6.0 -3.8 -5.45 -5.25 L-5.4 -5.45 Q-6.1 -4.75 -8.25 -3.2 -10.4 -1.6 -10.55 0.1 L-10.45 -1.6 -10.5 -2.35 -10.45 -3.1 -9.95 -4.5 -9.3 -5.45 Q-8.6 -6.1 -7.15 -6.55 L-4.95 -7.25 -4.9 -7.4 -4.45 -8.6 -3.2 -9.9 -1.95 -11.0 -1.2 -11.0 Q0.45 -11.9 3.2 -11.7 M9.4 -1.0 L9.2 -0.9 7.5 -0.4 5.85 0.05 4.8 0.15 5.35 -0.25 Q7.0 -1.45 9.05 -1.6 L9.45 -1.35 Q9.9 -1.1 9.4 -1.0" fill="#f5de71" fill-rule="evenodd" stroke="none"/>
      <path d="M-5.2 8.4 L-5.45 8.85 -6.1 9.4 -7.4 10.25 -8.05 10.35 -8.1 10.25 -8.85 10.25 Q-7.2 10.05 -7.2 8.75 L-7.25 8.4 -7.65 8.2 Q-8.95 9.1 -11.85 9.25 L-10.15 7.8 Q-9.85 7.25 -9.85 5.85 -9.85 5.05 -10.1 4.5 L-10.2 4.15 -10.35 3.9 -10.45 3.7 -11.7 1.75 -12.15 0.25 Q-12.8 -1.1 -12.8 -2.2 L-12.75 -4.3 -12.35 -3.05 -11.65 -1.3 Q-11.9 -2.7 -11.3 -4.35 -10.65 -6.1 -9.7 -6.55 L-9.95 -5.15 -9.95 -4.5 Q-9.75 -5.65 -8.75 -6.5 L-6.2 -8.0 -7.35 -8.0 -10.85 -7.6 -11.65 -7.95 -11.35 -8.4 -11.25 -8.5 Q-13.2 -9.4 -13.2 -11.7 L-13.15 -12.05 Q-12.9 -10.85 -11.95 -9.7 L-11.5 -9.15 -11.35 -9.05 -11.05 -8.9 -9.55 -8.6 -8.85 -8.75 -8.85 -8.85 -8.9 -10.2 Q-9.05 -10.9 -9.6 -11.25 L-9.6 -11.35 Q-8.75 -10.7 -8.4 -9.2 L-8.3 -9.75 Q-7.9 -9.65 -7.7 -9.35 -7.8 -9.95 -8.25 -10.8 L-8.8 -12.2 -8.3 -12.8 -7.65 -12.85 Q-7.05 -12.85 -6.45 -12.2 L-6.55 -11.5 -6.35 -12.1 -6.25 -12.0 Q-5.75 -11.35 -5.8 -10.8 -5.2 -12.55 -5.2 -13.3 L-5.25 -14.4 -5.3 -14.6 -5.2 -14.75 Q-4.85 -13.7 -4.85 -12.8 -4.85 -11.7 -5.1 -11.15 L-5.5 -10.5 -4.85 -11.25 Q-4.1 -12.2 -4.1 -13.1 L-4.4 -14.2 -3.75 -14.25 -2.25 -13.95 Q-2.1 -14.05 -2.15 -13.4 L-4.1 -10.6 -4.1 -10.45 Q-3.7 -11.3 -1.6 -11.75 L1.6 -12.1 Q3.05 -12.1 3.3 -11.7 L5.05 -10.95 5.05 -10.85 Q1.05 -8.7 -0.1 -4.35 L-0.05 -4.05 0.0 -0.5 1.05 -2.6 Q1.7 -4.25 3.25 -5.8 5.05 -7.6 6.8 -7.6 L6.9 -7.6 6.65 -7.5 4.5 -6.1 Q2.6 -4.25 1.9 -2.7 L0.5 1.3 0.1 2.35 0.1 3.55 -0.1 4.5 -0.75 5.3 -1.35 6.15 -1.15 4.65 -1.1 4.2 -0.95 3.35 -0.6 1.75 -0.6 1.35 -0.75 -1.0 -0.95 -3.45 Q-0.95 -6.7 -0.05 -8.25 L0.95 -9.55 Q-2.1 -7.0 -2.1 -3.5 -2.1 -2.45 -1.7 -0.9 -1.35 0.65 -1.35 1.9 -1.35 2.6 -1.85 3.95 L-1.95 4.15 -2.45 5.85 -2.45 6.15 -2.5 6.85 Q-2.5 8.35 -1.15 9.25 L0.45 9.85 -0.55 9.85 Q-4.1 9.1 -4.1 5.45 -4.1 4.05 -3.2 2.35 -2.35 0.65 -2.35 0.05 L-2.6 -1.35 Q-3.0 -2.5 -3.75 -2.5 -5.5 -2.5 -6.1 -1.65 L-6.35 -0.7 -5.9 0.65 -5.35 1.9 -5.25 4.5 -5.05 5.9 -4.85 7.15 -4.85 7.7 -4.9 8.0 -5.2 8.4 M3.2 -11.7 Q0.45 -11.9 -1.2 -11.0 L-1.95 -11.0 -3.2 -9.9 -4.45 -8.6 -4.9 -7.4 -4.95 -7.25 -7.15 -6.55 Q-8.6 -6.1 -9.3 -5.45 L-9.95 -4.5 -10.45 -3.1 -10.5 -2.35 -10.45 -1.6 -10.55 0.1 Q-10.4 -1.6 -8.25 -3.2 -6.1 -4.75 -5.4 -5.45 L-5.45 -5.25 Q-6.0 -3.8 -7.6 -2.1 L-7.95 -1.4 -8.2 -0.5 -8.2 0.85 Q-8.0 -0.7 -6.8 -2.15 -4.8 -4.6 -4.6 -5.85 -4.4 -7.05 -3.55 -7.75 L-1.85 -8.75 -0.1 -9.9 1.25 -10.95 1.95 -11.35 Q2.4 -11.7 3.2 -11.7" fill="#d7ba62" fill-rule="evenodd" stroke="none"/>
      <path d="M11.4 -7.65 L11.6 -5.7 Q11.8 -3.85 11.35 -2.5 L10.4 -0.05 Q9.95 1.0 10.75 2.7 L11.45 3.7 Q12.1 4.5 11.85 5.35 L11.6 5.6 9.8 5.8 Q9.05 6.0 9.05 6.8 9.05 7.2 9.55 7.65 L9.7 7.8 9.85 7.95 9.9 8.0 9.8 8.0 9.25 8.15 8.5 8.35 8.35 8.4 7.6 8.95 7.55 9.0 7.65 9.05 8.0 8.9 9.3 8.65 9.75 8.6 9.85 8.55 9.8 8.7 9.6 9.35 9.4 9.55 9.05 9.85 Q8.65 10.25 8.7 10.85 L8.4 12.35 Q8.05 13.25 5.6 13.15 0.9 12.05 -1.65 10.75 L-4.65 8.95 -5.2 8.4 -4.9 8.0 -4.85 7.7 -4.85 7.15 -5.05 5.9 -5.25 4.5 -5.35 1.9 -5.9 0.65 -6.35 -0.7 -6.1 -1.65 Q-5.5 -2.5 -3.75 -2.5 -3.0 -2.5 -2.6 -1.35 L-2.35 0.05 Q-2.35 0.65 -3.2 2.35 -4.1 4.05 -4.1 5.45 -4.1 9.1 -0.55 9.85 L0.45 9.85 0.85 9.85 0.9 9.75 -1.1 8.7 Q-1.65 8.05 -1.65 7.6 L-1.35 6.15 -0.75 5.3 -0.1 4.5 0.1 3.55 0.1 2.35 0.5 1.3 1.9 -2.7 Q2.6 -4.25 4.5 -6.1 L6.65 -7.5 6.9 -7.6 7.45 -7.8 10.15 -7.7 10.8 -7.7 10.9 -7.75 11.2 -7.6 11.4 -7.65 M5.85 0.05 Q5.1 0.45 5.1 0.95 L5.75 1.9 Q6.55 2.85 7.3 2.85 8.15 2.85 9.0 2.2 9.85 1.55 9.85 0.85 L9.8 -0.35 9.4 -1.0 Q9.9 -1.1 9.45 -1.35 L9.05 -1.6 Q7.0 -1.45 5.35 -0.25 L4.8 0.15 5.85 0.05 M-5.2 -0.35 L-5.1 -0.5 -5.15 -1.0 -4.3 -1.15 Q-3.65 -1.1 -4.05 -0.4 L-4.45 0.15 -4.75 0.6 -4.3 0.9 -4.15 0.95 Q-4.35 1.65 -3.5 1.45 L-3.3 0.9 -3.8 0.45 -3.35 -0.3 Q-3.15 -1.15 -3.6 -1.6 -4.65 -2.2 -5.5 -1.35 -5.85 -0.55 -5.2 -0.35" fill="#ffcc99" fill-rule="evenodd" stroke="none"/>
      <path d="M11.6 5.6 L10.8 6.15 9.6 6.85 9.8 7.4 10.0 7.95 10.0 8.05 10.0 8.15 9.9 8.0 9.85 7.95 9.7 7.8 9.55 7.65 Q9.05 7.2 9.05 6.8 9.05 6.0 9.8 5.8 L11.6 5.6 M9.4 -1.0 L9.8 -0.35 9.85 0.85 Q9.85 1.55 9.0 2.2 8.15 2.85 7.3 2.85 6.55 2.85 5.75 1.9 L5.1 0.95 Q5.1 0.45 5.85 0.05 L7.5 -0.4 9.2 -0.9 9.4 -1.0 M-5.2 -0.35 Q-5.85 -0.55 -5.5 -1.35 -4.65 -2.2 -3.6 -1.6 -3.15 -1.15 -3.35 -0.3 L-3.8 0.45 -3.3 0.9 -3.5 1.45 Q-4.35 1.65 -4.15 0.95 L-4.3 0.9 -4.75 0.6 -4.45 0.15 -4.05 -0.4 Q-3.65 -1.1 -4.3 -1.15 L-5.15 -1.0 -5.1 -0.5 -5.2 -0.35 M8.5 0.2 L8.45 0.0 7.1 0.45 7.05 0.45 Q6.7 0.6 6.7 1.0 6.7 1.55 7.05 1.55 L7.3 1.4 7.75 1.3 7.8 1.2 7.8 0.9 8.2 0.55 8.25 0.55 Q8.3 0.45 8.45 0.4 L8.5 0.2" fill="#c79b68" fill-rule="evenodd" stroke="none"/>
      <path d="M10.0 8.15 L9.85 8.55 9.75 8.6 9.3 8.65 8.0 8.9 7.65 9.05 7.55 9.0 7.6 8.95 8.35 8.4 8.5 8.35 9.25 8.15 9.8 8.0 9.9 8.0 10.0 8.15" fill="#ebbb98" fill-rule="evenodd" stroke="none"/>
      <path d="M8.5 0.2 L8.45 0.4 Q8.3 0.45 8.25 0.55 L8.2 0.55 7.8 0.9 7.8 1.2 7.75 1.3 7.3 1.4 7.05 1.55 Q6.7 1.55 6.7 1.0 6.7 0.6 7.05 0.45 L7.1 0.45 8.45 0.0 8.5 0.2" fill="#000000" fill-rule="evenodd" stroke="none"/>
    </g>
    <g id="sprite13" transform="matrix(1.0, 0.0, 0.0, 1.0, 50.0, 50.0)">
      <use ffdec:characterId="1110" height="100.0" transform="matrix(1.0, 0.0, 0.0, 1.0, -50.0, -50.0)" width="100.0" xlink:href="#shape8"/>
    </g>
    <g id="shape8" transform="matrix(1.0, 0.0, 0.0, 1.0, 50.0, 50.0)">
      <path d="M35.35 -35.35 Q50.0 -20.7 50.0 0.0 50.0 20.7 35.35 35.35 20.7 50.0 0.0 50.0 -20.7 50.0 -35.35 35.35 -50.0 20.7 -50.0 0.0 -50.0 -20.7 -35.35 -35.35 -20.7 -50.0 0.0 -50.0 20.7 -50.0 35.35 -35.35 Z" fill="none" stroke="#9900ff" stroke-linecap="round" stroke-linejoin="round" stroke-width="0.05"/>
    </g>
    <g id="sprite14" transform="matrix(1.0, 0.0, 0.0, 1.0, 25.2, 34.75)">
      <use ffdec:characterId="1317" height="38.15" transform="matrix(1.0, 0.0, 0.0, 1.0, -10.15, -19.7)" width="20.3" xlink:href="#shape9"/>
      <use ffdec:characterId="1081" height="100.0" id="shape" transform="matrix(0.1997, 0.0, 0.0, 0.36, -9.9846, -18.0)" width="100.0" xlink:href="#sprite2"/>
      <use ffdec:characterId="1138" height="0.0" id="spineRef" transform="matrix(1.0, 0.0, 0.0, 1.0, 2.3, -25.2)" width="0.0" xlink:href="#sprite15"/>
    </g>
    <g id="shape9" transform="matrix(1.0, 0.0, 0.0, 1.0, 10.15, 19.7)">
      <path d="M8.55 18.15 L8.45 8.25 8.45 7.5 8.15 3.15 7.95 -0.6 Q7.85 -3.15 7.6 -3.7 7.3 -4.3 7.15 -7.3 L6.3 -4.75 5.95 -3.65 4.95 -1.5 5.5 -4.0 5.65 -12.05 Q5.65 -14.85 3.05 -16.45 0.9 -17.7 -1.85 -17.7 -5.1 -17.7 -7.15 -16.15 L-8.75 -14.4 -9.65 -12.6 -9.2 -14.4 -8.6 -15.65 -7.15 -17.9 Q-5.85 -19.0 -4.5 -19.3 L0.2 -19.7 Q5.45 -19.6 7.85 -12.35 9.25 -8.25 9.55 -1.65 L9.6 2.45 9.65 4.45 10.15 16.45 Q10.15 17.65 9.55 17.9 L8.55 18.15 M-9.75 -1.7 L-8.75 7.45 -8.3 13.45 -8.25 16.8 -8.3 18.15 -8.5 18.15 Q-9.4 17.55 -9.6 15.5 L-9.95 10.25 -10.15 6.2 Q-10.15 2.8 -9.75 -1.6 L-9.75 -1.7" fill="#f5b6f5" fill-rule="evenodd" stroke="none"/>
      <path d="M4.55 18.45 L4.4 16.15 5.55 12.3 5.65 8.95 5.9 2.3 6.1 -1.2 5.1 1.05 3.75 4.0 2.8 -0.95 2.35 -5.4 2.3 -5.65 3.05 -7.4 Q3.95 -9.85 3.95 -11.95 3.95 -13.65 2.2 -15.0 0.5 -16.3 -1.55 -16.3 -6.9 -16.2 -7.1 -8.55 L-7.1 -7.9 Q-7.1 -5.9 -6.35 -1.15 -5.6 3.6 -5.6 7.15 -5.6 9.0 -6.35 12.7 L-6.35 12.95 Q-6.6 15.85 -5.15 17.35 L-5.15 18.25 -8.3 18.15 -8.25 16.8 -8.3 13.45 -8.75 7.45 -9.75 -1.7 -9.9 -9.2 -9.9 -9.75 -9.65 -12.6 -8.75 -14.4 -7.15 -16.15 Q-5.1 -17.7 -1.85 -17.7 0.9 -17.7 3.05 -16.45 5.65 -14.85 5.65 -12.05 L5.5 -4.0 4.95 -1.5 5.95 -3.65 6.3 -4.75 7.15 -7.3 Q7.3 -4.3 7.6 -3.7 7.85 -3.15 7.95 -0.6 L8.15 3.15 8.45 7.5 8.45 8.25 8.55 18.15 4.55 18.45" fill="#e096e0" fill-rule="evenodd" stroke="none"/>
      <path d="M-5.15 18.25 L-5.15 17.35 Q-6.6 15.85 -6.35 12.95 L-6.35 12.7 Q-5.6 9.0 -5.6 7.15 -5.6 3.6 -6.35 -1.15 -7.1 -5.9 -7.1 -7.9 L-7.1 -8.55 Q-6.9 -16.2 -1.55 -16.3 0.5 -16.3 2.2 -15.0 3.95 -13.65 3.95 -11.95 3.95 -9.85 3.05 -7.4 L2.3 -5.65 2.35 -5.4 2.8 -0.95 3.75 4.0 5.1 1.05 6.1 -1.2 5.9 2.3 5.65 8.95 5.55 12.3 4.4 16.15 4.55 18.45 3.05 18.45 -5.15 18.25" fill="#db77db" fill-rule="evenodd" stroke="none"/>
    </g>
    <g id="sprite16" transform="matrix(1.0, 0.0, 0.0, 1.0, 16.75, 19.6)">
      <use ffdec:characterId="1332" height="19.5" transform="matrix(1.0, 0.0, 0.0, 1.0, -10.9, -9.2)" width="22.05" xlink:href="#shape10"/>
      <use ffdec:characterId="1081" height="100.0" id="shape" transform="matrix(0.209, 0.0, 0.0, 0.19, -10.45, -9.4994)" width="100.0" xlink:href="#sprite2"/>
    </g>
    <g id="shape10" transform="matrix(1.0, 0.0, 0.0, 1.0, 10.9, 9.2)">
      <path d="M4.0 -6.85 L3.8 -6.75 3.85 -6.9 4.0 -6.85" fill="#bb77a7" fill-rule="evenodd" stroke="none"/>
      <path d="M2.8 -8.85 L8.5 -7.25 8.55 -7.1 Q8.6 -7.0 8.75 -7.0 L7.3 -6.15 Q6.5 -5.65 6.5 -4.75 6.5 -3.75 7.35 -2.85 L7.4 -2.8 Q8.25 -1.9 8.25 0.25 8.25 4.8 7.95 5.9 L6.2 9.6 5.4 9.7 5.2 9.65 4.0 9.8 3.85 9.8 1.95 10.2 -0.6 10.3 -0.9 10.2 -4.25 9.95 -4.6 9.85 -6.9 9.15 -7.7 8.65 -8.15 7.3 -9.15 3.7 -9.25 2.8 -8.75 -6.25 -8.95 -8.85 2.8 -8.85 M4.0 -6.85 L3.85 -6.9 3.8 -6.75 4.0 -6.85" fill="#2d6ed0" fill-rule="evenodd" stroke="none"/>
      <path d="M6.2 9.6 L7.95 5.9 Q8.25 4.8 8.25 0.25 8.25 -1.9 7.4 -2.8 L7.35 -2.85 Q6.5 -3.75 6.5 -4.75 6.5 -5.65 7.3 -6.15 L8.75 -7.0 Q8.6 -7.0 8.55 -7.1 L8.5 -7.25 2.8 -8.85 4.05 -8.85 7.0 -9.15 10.5 -8.95 10.9 -8.2 10.9 -8.0 10.9 -7.85 10.9 -7.25 10.9 -7.0 11.05 -4.15 11.05 -4.05 11.05 -3.75 11.1 -3.6 11.1 -3.55 11.15 -3.3 11.15 -2.5 11.05 -2.2 11.05 -1.85 10.35 2.4 10.3 2.65 10.3 2.8 10.2 3.05 Q8.9 8.85 6.2 9.6 M-8.95 -8.85 L-8.75 -6.25 -9.25 2.8 -9.15 3.7 -8.15 7.3 -7.7 8.65 Q-9.2 7.65 -9.9 6.35 L-10.45 5.1 -10.7 4.3 -10.85 3.35 -10.9 2.5 -10.85 2.5 -10.9 1.95 -10.9 1.35 -10.7 -0.95 -10.6 -1.9 -9.9 -6.45 -9.8 -7.0 -9.5 -8.65 -9.5 -8.85 -8.95 -8.85" fill="#3f81e5" fill-rule="evenodd" stroke="none"/>
    </g>
    <g id="sprite17" transform="matrix(1.0, 0.0, 0.0, 1.0, 11.5, 8.25)">
      <use ffdec:characterId="1347" ffdec:characterName="game_fla.upperleg1_801" height="48.4" id="upperLeg1" transform="matrix(1.0, 0.0, 0.0, 1.0, -11.5, -8.25)" width="21.95" xlink:href="#sprite18"/>
      <use ffdec:characterId="1351" height="46.7" id="lowerLegOuter1" transform="matrix(1.0, 0.0, 0.0, 1.0, -8.25, 29.15)" width="23.65" xlink:href="#sprite19"/>
    </g>
    <g id="sprite18" transform="matrix(1.0, 0.0, 0.0, 1.0, 12.05, 23.5)">
      <use ffdec:characterId="1343" height="45.35" transform="matrix(1.0, 0.0, 0.0, 1.0, -9.65, -22.35)" width="18.55" xlink:href="#shape11"/>
      <use ffdec:characterId="1081" height="100.0" id="shape" transform="matrix(0.16, 0.0, 0.0, 0.44, -7.9994, -22.0001)" width="100.0" xlink:href="#sprite2"/>
    </g>
    <g id="shape11" transform="matrix(1.0, 0.0, 0.0, 1.0, 9.65, 22.35)">
      <path d="M5.75 11.8 L5.1 18.55 Q4.95 19.65 3.95 21.0 1.3 24.0 -4.0 22.45 -7.35 21.45 -7.4 15.2 L-7.4 15.0 -7.4 14.1 -7.3 11.35 -6.4 11.45 -6.15 11.5 -5.85 15.6 -5.6 15.5 -5.65 16.25 -5.35 15.4 -5.3 15.35 -5.2 14.85 -4.75 12.85 -4.6 12.4 -4.5 11.7 -3.5 11.75 1.55 11.5 5.75 11.8" fill="#ffcc99" fill-rule="evenodd" stroke="none"/>
      <path d="M4.25 9.9 L5.95 9.85 5.75 11.8 1.55 11.5 -3.5 11.75 -4.5 11.7 -4.6 12.4 -4.75 12.85 -5.2 14.85 -5.3 15.35 -5.35 15.4 -5.65 16.25 -5.6 15.5 -5.85 15.6 -6.15 11.5 -6.4 11.45 -7.3 11.35 -7.25 9.65 -7.0 9.65 -6.7 9.55 -6.2 9.45 -6.2 10.0 -6.15 11.5 -4.5 11.7 -4.25 10.45 -4.25 10.4 -4.05 9.4 1.2 9.7 4.0 9.9 4.25 9.9" fill="#f4c398" fill-rule="evenodd" stroke="none"/>
      <path d="M-4.05 9.4 L-4.25 10.4 -4.25 10.45 -4.5 11.7 -6.15 11.5 -6.2 10.0 -6.2 9.45 -5.35 9.4 -4.05 9.4" fill="#e2b181" fill-rule="evenodd" stroke="none"/>
      <path d="M6.05 -21.3 Q6.1 -19.95 6.75 -17.0 7.5 -13.55 7.5 -11.25 7.5 -6.45 5.45 -1.55 L1.25 6.75 1.25 7.0 3.9 4.35 Q5.45 2.75 6.5 2.25 5.4 4.2 4.7 7.7 L4.25 9.9 4.0 9.9 1.2 9.7 -4.05 9.4 -5.35 9.4 -6.2 9.45 -6.7 9.55 -6.1 6.3 -4.5 -1.75 -5.8 0.55 -7.0 2.5 Q-6.9 0.05 -7.8 -5.15 -8.75 -10.55 -8.75 -12.5 L-8.55 -17.2 -8.15 -17.75 -8.0 -18.0 -5.55 -19.85 Q-1.3 -22.05 3.55 -22.35 L4.2 -22.3 5.65 -21.65 6.05 -21.3" fill="#2d6ed0" fill-rule="evenodd" stroke="none"/>
      <path d="M6.05 -21.3 L6.65 -20.5 Q7.65 -19.2 8.15 -17.5 L8.25 -17.2 8.6 -14.8 8.8 -8.95 8.75 -7.8 8.9 6.3 8.9 8.35 8.75 9.25 8.75 9.75 5.95 9.85 4.25 9.9 4.7 7.7 Q5.4 4.2 6.5 2.25 5.45 2.75 3.9 4.35 L1.25 7.0 1.25 6.75 5.45 -1.55 Q7.5 -6.45 7.5 -11.25 7.5 -13.55 6.75 -17.0 6.1 -19.95 6.05 -21.3 M-7.25 9.65 L-9.1 9.65 -9.1 9.0 Q-8.75 8.25 -8.7 6.45 L-8.7 6.15 -8.8 2.15 -8.85 0.35 -8.65 -5.25 Q-8.6 -8.05 -8.9 -9.0 L-9.6 -12.35 Q-9.85 -14.6 -9.2 -15.95 L-8.55 -17.2 -8.75 -12.5 Q-8.75 -10.55 -7.8 -5.15 -6.9 0.05 -7.0 2.5 L-5.8 0.55 -4.5 -1.75 -6.1 6.3 -6.7 9.55 -7.0 9.65 -7.25 9.65" fill="#3f81e5" fill-rule="evenodd" stroke="none"/>
    </g>
    <g id="sprite19" transform="matrix(1.0, 0.0, 0.0, 1.0, 8.6, 4.5)">
      <use ffdec:characterId="1350" ffdec:characterName="game_fla.lowerleg1_803" height="46.7" id="lowerLeg1" transform="matrix(1.0, 0.0, 0.0, 1.0, -8.6, -4.5)" width="23.65" xlink:href="#sprite20"/>
    </g>
    <g id="sprite20" transform="matrix(1.0, 0.0, 0.0, 1.0, 7.5, 22.75)">
      <use ffdec:characterId="1348" height="40.5" transform="matrix(1.0, 0.0, 0.0, 1.0, -5.65, -22.75)" width="11.55" xlink:href="#shape12"/>
      <use ffdec:characterId="1296" height="11.75" transform="matrix(1.0, 0.0, 0.0, 1.0, -7.5, 12.2)" width="23.65" xlink:href="#shape5"/>
      <use ffdec:characterId="1081" height="100.0" id="shape" transform="matrix(0.11, 0.0, 0.0, 0.45, -5.5, -22.5021)" width="100.0" xlink:href="#sprite2"/>
    </g>
    <g id="shape12" transform="matrix(1.0, 0.0, 0.0, 1.0, 5.65, 22.75)">
      <path d="M-5.0 -2.75 L-5.0 -2.9 Q-4.9 -4.3 -5.2 -5.9 L-5.65 -12.25 Q-5.6 -15.2 -5.1 -18.15 L-4.0 -19.5 Q-3.6 -22.25 -0.25 -22.7 L0.75 -22.7 Q3.75 -22.45 5.9 -17.45 5.8 -13.5 5.3 -8.85 L5.0 -2.75 3.55 -2.75 3.95 -7.25 3.15 -2.75 -5.0 -2.75" fill="#ffcc99" fill-rule="evenodd" stroke="none"/>
      <path d="M3.15 -2.75 L3.95 -7.25 3.55 -2.75 3.15 -2.75" fill="#f4c398" fill-rule="evenodd" stroke="none"/>
      <path d="M5.0 -2.75 L4.85 -1.25 3.45 -1.25 3.55 -2.75 5.0 -2.75 M4.7 0.4 L4.65 1.05 4.55 2.0 3.15 2.0 3.3 0.4 4.7 0.4 M4.3 4.0 L4.3 4.05 4.25 4.15 Q3.9 6.5 3.7 9.55 L3.65 9.9 3.7 10.1 3.5 16.4 1.85 16.4 3.0 4.0 4.3 4.0 M-2.95 17.25 L-4.7 17.75 -4.65 17.5 -4.65 17.25 -4.6 17.0 -4.6 16.75 -4.55 16.5 -4.25 9.2 Q-4.3 6.3 -4.5 4.0 L1.7 4.0 0.6 7.9 -3.05 17.2 -2.95 17.25 M-4.7 2.0 L-4.8 1.05 -4.85 0.4 2.5 0.4 2.35 1.05 2.15 2.0 -4.7 2.0 M-5.0 -1.3 L-5.0 -2.75 3.15 -2.75 2.85 -1.25 -5.0 -1.3" fill="#ffffff" fill-rule="evenodd" stroke="none"/>
      <path d="M4.85 -1.25 L4.7 0.4 3.3 0.4 2.5 0.4 -4.85 0.4 -5.0 -1.3 2.85 -1.25 3.45 -1.25 4.85 -1.25 M4.55 2.0 L4.3 4.0 3.0 4.0 1.7 4.0 -4.5 4.0 -4.5 3.95 -4.7 2.0 2.15 2.0 3.15 2.0 4.55 2.0" fill="#e096e0" fill-rule="evenodd" stroke="none"/>
      <path d="M1.85 16.4 L0.25 16.45 0.1 16.45 -2.95 17.25 -3.05 17.2 0.6 7.9 1.7 4.0 3.0 4.0 1.85 16.4 M3.45 -1.25 L2.85 -1.25 3.15 -2.75 3.55 -2.75 3.45 -1.25 M3.3 0.4 L3.15 2.0 2.15 2.0 2.35 1.05 2.5 0.4 3.3 0.4" fill="#eeeeee" fill-rule="evenodd" stroke="none"/>
    </g>
    <g id="sprite21" transform="matrix(1.0, 0.0, 0.0, 1.0, 5.15, 8.65)">
      <use ffdec:characterId="1357" ffdec:characterName="game_fla.upperarm1_805" height="38.3" id="upperArm1" transform="matrix(1.0, 0.0, 0.0, 1.0, -5.15, -8.65)" width="10.75" xlink:href="#sprite22"/>
      <use ffdec:characterId="1361" height="32.75" id="lowerArmOuter1" transform="matrix(1.0, 0.0, 0.0, 1.0, -4.55, 20.55)" width="9.15" xlink:href="#sprite23"/>
    </g>
    <g id="sprite22" transform="matrix(1.0, 0.0, 0.0, 1.0, 5.3, 20.1)">
      <use ffdec:characterId="1353" height="36.6" transform="matrix(1.0, 0.0, 0.0, 1.0, -4.1, -18.45)" width="9.35" xlink:href="#shape13"/>
      <use ffdec:characterId="1081" height="100.0" id="shape" transform="matrix(0.1, 0.0, 0.0, 0.36, -4.9995, -17.9993)" width="100.0" xlink:href="#sprite2"/>
    </g>
    <g id="shape13" transform="matrix(1.0, 0.0, 0.0, 1.0, 4.1, 18.45)">
      <path d="M4.45 -16.35 Q5.25 -14.5 5.25 -10.95 5.25 -7.85 4.7 -6.45 L4.6 -6.1 4.3 -2.55 3.65 3.25 3.65 3.75 3.6 4.25 3.55 5.1 3.45 6.1 Q3.2 8.4 3.25 13.6 3.25 14.85 2.8 15.9 2.5 16.8 1.55 17.45 -0.65 18.8 -2.95 17.5 -4.05 16.0 -4.1 13.85 L-4.0 11.0 Q-3.85 9.75 -3.85 8.55 L-3.8 7.1 -4.1 -4.3 -4.05 -9.9 -4.05 -11.2 -3.95 -13.6 Q-3.75 -15.85 -2.5 -17.2 -1.3 -18.6 1.2 -18.4 3.65 -18.25 4.45 -16.35 M-1.35 0.7 L-1.5 0.8 -1.4 0.8 -1.35 0.7" fill="#ffcc99" fill-rule="evenodd" stroke="none"/>
      <path d="M-1.35 0.7 L-1.4 0.8 -1.5 0.8 -1.35 0.7" fill="#ffcc66" fill-rule="evenodd" stroke="none"/>
    </g>
    <g id="sprite23" transform="matrix(1.0, 0.0, 0.0, 1.0, 4.6, 4.3)">
      <use ffdec:characterId="1360" ffdec:characterName="game_fla.lowerarm1_807" height="32.75" id="lowerArm1" transform="matrix(1.0, 0.0, 0.0, 1.0, -4.6, -4.3)" width="9.15" xlink:href="#sprite24"/>
    </g>
    <g id="sprite24" transform="matrix(1.0, 0.0, 0.0, 1.0, 5.25, 15.0)">
      <use ffdec:characterId="1358" height="32.7" transform="matrix(1.0, 0.0, 0.0, 1.0, -5.25, -14.95)" width="9.05" xlink:href="#shape14"/>
      <use ffdec:characterId="1081" height="100.0" id="shape" transform="matrix(0.07, 0.0, 0.0, 0.3, -3.4996, -15.0002)" width="100.0" xlink:href="#sprite2"/>
    </g>
    <g id="shape14" transform="matrix(1.0, 0.0, 0.0, 1.0, 5.25, 14.95)">
      <path d="M-2.65 11.75 L-2.5 11.15 Q-2.4 9.45 -2.05 8.7 L-2.25 6.45 Q-2.25 4.45 -2.8 1.45 L-3.85 -3.75 -4.7 -7.75 Q-5.15 -9.7 -4.55 -11.2 -3.5 -14.0 -0.6 -14.95 L2.05 -13.85 Q3.75 -13.05 3.55 -6.7 L2.7 8.9 Q3.15 9.3 3.45 10.3 3.9 11.7 3.75 13.55 L3.65 14.05 3.15 12.5 Q2.75 13.35 2.5 14.15 L2.25 15.15 1.8 15.95 0.95 17.15 1.55 15.7 Q1.55 15.1 1.25 15.1 1.0 15.1 0.95 15.25 L0.7 15.5 -0.7 14.9 Q-1.95 14.4 -1.95 14.0 L-1.45 12.25 Q-0.9 10.5 -0.9 9.9 L-1.05 9.6 -1.15 9.1 -0.95 8.7 -0.75 8.1 Q-0.6 6.0 -1.85 -0.5 L-3.15 -7.95 -3.25 -8.0 -3.25 -7.85 Q-3.3 -6.85 -2.2 -0.4 -1.1 6.05 -1.3 8.1 L-2.45 11.2 -2.55 11.7 -2.65 11.75" fill="#ffcc99" fill-rule="evenodd" stroke="none"/>
      <path d="M2.25 15.15 L2.5 14.15 Q2.75 13.35 3.15 12.5 L3.65 14.05 Q3.65 14.55 3.25 14.85 2.8 15.2 2.25 15.15" fill="#e2b181" fill-rule="evenodd" stroke="none"/>
      <path d="M-2.65 11.75 L-2.55 11.7 -2.45 11.2 -1.3 8.1 Q-1.1 6.05 -2.2 -0.4 -3.3 -6.85 -3.25 -7.85 L-3.25 -8.0 -3.15 -7.95 -1.85 -0.5 Q-0.6 6.0 -0.75 8.1 L-0.95 8.7 -1.15 9.1 -1.05 9.6 -0.9 9.9 Q-0.9 10.5 -1.45 12.25 L-1.95 14.0 Q-1.95 14.4 -0.7 14.9 L0.7 15.5 0.95 15.25 Q1.0 15.1 1.25 15.1 1.55 15.1 1.55 15.7 L0.95 17.15 0.8 17.55 0.55 17.45 0.25 17.5 -1.25 17.75 -2.5 17.25 -2.65 16.7 -3.0 16.65 Q-4.4 16.8 -5.1 15.75 L-5.15 15.7 -5.25 15.1 -4.25 14.5 Q-3.25 13.7 -2.65 11.75" fill="#ebbb98" fill-rule="evenodd" stroke="none"/>
    </g>
  </defs>
</svg>
