<?xml version="1.0" encoding="UTF-8" standalone="no"?>
<svg xmlns:ffdec="https://www.free-decompiler.com/flash" xmlns:xlink="http://www.w3.org/1999/xlink" ffdec:objectType="frame" height="82.05px" width="41.55px" xmlns="http://www.w3.org/2000/svg">
  <g transform="matrix(1.0, 0.0, 0.0, 1.0, 13.95, 4.1)">
    <use ffdec:characterId="2043" ffdec:characterName="game_fla.lowerleg2_462" height="82.25" id="lowerLeg2" transform="matrix(0.9974, 0.0, 0.0, 0.9974, -13.9645, -4.0972)" width="41.65" xlink:href="#sprite0"/>
  </g>
  <defs>
    <g id="sprite0" transform="matrix(1.0, 0.0, 0.0, 1.0, 13.75, 39.85)">
      <use ffdec:characterId="2038" height="21.0" id="foot" transform="matrix(-0.9892, -0.1363, 0.1363, -0.9892, 25.0238, 42.4034)" width="38.95" xlink:href="#sprite1"/>
      <use ffdec:characterId="2039" height="69.8" transform="matrix(1.0, 0.0, 0.0, 1.0, -12.7, -39.85)" width="24.25" xlink:href="#shape1"/>
      <use ffdec:characterId="1081" height="100.0" id="shape" transform="matrix(0.2, 0.0, 0.0, 0.7601, -9.9998, -38.0028)" width="100.0" xlink:href="#sprite2"/>
    </g>
    <g id="sprite1" transform="matrix(1.0, 0.0, 0.0, 1.0, 29.1, 10.35)">
      <use ffdec:characterId="2037" height="21.0" transform="matrix(1.0, 0.0, 0.0, 1.0, -29.1, -10.35)" width="38.95" xlink:href="#shape0"/>
    </g>
    <g id="shape0" transform="matrix(1.0, 0.0, 0.0, 1.0, 29.1, 10.35)">
      <path d="M-28.6 -4.3 Q-28.4 -3.95 -27.95 -3.95 L-27.35 -4.35 -27.6 -5.75 Q-27.6 -6.45 -27.25 -6.8 -26.4 -6.75 -26.25 -5.7 L-26.05 -5.65 Q-25.9 -7.4 -25.0 -7.4 L-24.75 -7.35 -24.35 -7.4 -23.9 -6.15 -23.0 -6.95 -22.2 -7.5 -22.15 -7.5 -21.95 -7.4 -21.4 -7.45 -21.25 -7.2 -21.3 -7.1 -21.2 -6.65 -21.25 -5.95 -21.25 -5.9 -20.85 -5.85 Q-18.9 -7.8 -18.9 -8.0 L-18.9 -8.05 -17.3 -8.15 -17.0 -7.95 Q-15.95 -7.15 -15.15 -6.8 -7.25 -5.3 3.5 -7.15 6.85 -8.1 9.75 -4.65 L9.85 -3.85 9.85 -3.5 Q9.85 -1.45 5.15 8.3 L4.75 9.15 3.95 9.1 2.9 10.05 3.05 6.2 Q2.95 1.65 1.6 -2.85 L1.25 -2.55 -2.0 -3.7 -3.65 -2.4 -3.7 -1.85 -5.0 -1.0 -5.1 0.15 -4.55 0.15 -6.25 2.15 -5.0 10.1 -6.35 9.2 -7.35 8.4 Q-8.1 8.3 -8.6 6.75 L-9.3 4.5 Q-9.8 3.85 -11.8 2.75 L-12.25 2.45 -12.3 2.45 Q-14.5 1.1 -16.95 0.05 L-18.4 -0.5 -23.75 -2.55 -24.6 -2.6 -26.25 -2.2 Q-27.4 -2.15 -27.95 -3.15 L-28.6 -4.3 M-28.4 -6.0 L-28.5 -5.75 -28.45 -6.05 -28.4 -6.0 M-28.55 -5.7 L-28.7 -5.15 -28.6 -5.65 -28.55 -5.7 M-28.75 -4.95 L-28.7 -4.55 -28.75 -4.7 -28.75 -4.95 M-2.0 -0.5 Q-1.05 -1.05 -0.25 -0.25 L0.75 0.65 Q1.45 3.5 0.8 6.2 L-0.35 9.35 0.05 10.35 1.3 10.65 -4.05 10.5 -4.1 10.15 Q-4.35 7.7 -4.1 4.9 -3.8 1.9 -2.0 -0.5" fill="#ffcc99" fill-rule="evenodd" stroke="none"/>
      <path d="M-4.55 0.15 L-5.1 0.15 -5.0 -1.0 -3.7 -1.85 -3.65 -2.4 -2.0 -3.7 1.25 -2.55 1.6 -2.85 Q2.95 1.65 3.05 6.2 L2.9 10.05 2.25 10.65 1.3 10.65 0.05 10.35 -0.35 9.35 0.8 6.2 Q1.45 3.5 0.75 0.65 L-0.25 -0.25 Q-1.05 -1.05 -2.0 -0.5 L-2.6 -0.4 -3.2 -0.65 -4.55 0.15" fill="#f4c398" fill-rule="evenodd" stroke="none"/>
      <path d="M-5.0 10.1 L-6.25 2.15 -4.55 0.15 -3.2 -0.65 -2.6 -0.4 -2.0 -0.5 Q-3.8 1.9 -4.1 4.9 -4.35 7.7 -4.1 10.15 L-4.05 10.5 -4.9 10.15 -5.0 10.1 M9.75 -4.65 Q6.85 -8.1 3.5 -7.15 -7.25 -5.3 -15.15 -6.8 -15.95 -7.15 -17.0 -7.95 L-17.3 -8.15 -18.9 -8.05 Q-18.75 -8.7 -20.25 -8.8 L-20.9 -8.8 Q-21.55 -8.8 -21.7 -8.4 L-21.75 -8.05 -21.4 -7.45 -21.95 -7.4 -22.15 -7.5 -22.15 -7.6 -22.5 -8.15 Q-23.0 -8.5 -24.55 -8.5 -25.8 -8.5 -26.05 -7.85 L-26.3 -7.85 Q-26.95 -7.8 -27.0 -6.9 L-27.1 -7.25 Q-27.55 -7.25 -28.2 -6.25 L-28.4 -6.0 -28.45 -6.05 Q-28.35 -7.6 -26.85 -8.25 -25.15 -9.05 -20.4 -9.1 L-17.55 -9.6 -17.0 -9.45 -15.15 -8.9 -7.85 -8.15 -0.55 -8.95 Q7.2 -10.9 9.75 -4.65" fill="#ebbb98" fill-rule="evenodd" stroke="none"/>
      <path d="M-22.15 -7.5 L-22.2 -7.5 -23.0 -6.95 -23.9 -6.15 -24.35 -7.4 -24.75 -7.35 -25.0 -7.4 Q-25.9 -7.4 -26.05 -5.65 L-26.25 -5.7 Q-26.4 -6.75 -27.25 -6.8 -27.6 -6.45 -27.6 -5.75 L-27.35 -4.35 -27.95 -3.95 Q-28.4 -3.95 -28.6 -4.3 L-28.7 -4.55 -28.75 -4.95 -28.75 -5.0 -28.7 -5.15 -28.55 -5.7 -28.5 -5.75 -28.4 -6.0 -28.2 -6.25 Q-27.55 -7.25 -27.1 -7.25 L-27.0 -6.9 Q-26.95 -7.8 -26.3 -7.85 L-26.05 -7.85 Q-25.8 -8.5 -24.55 -8.5 -23.0 -8.5 -22.5 -8.15 L-22.15 -7.6 -22.15 -7.5 M-18.9 -8.05 L-18.9 -8.0 Q-18.9 -7.8 -20.85 -5.85 L-21.25 -5.9 -21.25 -5.95 -21.2 -6.65 -21.3 -7.1 -21.25 -7.2 -21.4 -7.45 -21.75 -8.05 -21.7 -8.4 Q-21.55 -8.8 -20.9 -8.8 L-20.25 -8.8 Q-18.75 -8.7 -18.9 -8.05" fill="#e2b181" fill-rule="evenodd" stroke="none"/>
      <path d="M9.45 -6.35 Q9.9 -4.65 9.85 -2.65 9.8 0.4 9.1 3.35 L9.0 3.35 6.15 3.55 Q7.9 3.05 7.5 0.45 7.05 -3.0 6.35 -4.1 6.0 -5.45 6.85 -5.85 L8.8 -6.25 9.45 -6.35" fill="#333333" fill-rule="evenodd" stroke="none"/>
      <path d="M9.1 3.35 L9.05 3.45 9.0 3.45 9.0 3.35 9.1 3.35" fill="#3333ff" fill-rule="evenodd" stroke="none"/>
      <path d="M-29.1 -9.0 L-28.5 -10.0 Q-21.3 -10.65 -15.5 -10.0 L-9.25 -9.45 -5.05 -9.35 Q-3.05 -9.6 -2.7 -10.0 L9.65 -10.0 9.65 -9.9 9.75 -9.3 9.75 -9.1 9.75 -8.35 9.7 -7.9 Q4.75 -8.55 -0.8 -8.15 -6.35 -7.7 -12.0 -8.35 L-22.0 -9.25 -29.1 -9.0 M9.4 -6.55 L9.45 -6.35 8.8 -6.25 6.85 -5.85 Q6.0 -5.45 6.35 -4.1 7.05 -3.0 7.5 0.45 7.9 3.05 6.15 3.55 L3.75 3.7 2.4 4.15 2.2 4.15 2.0 4.2 1.9 2.9 1.65 0.45 Q0.8 -3.35 -3.0 -2.9 L-4.05 -1.4 Q-4.8 -0.05 -5.05 1.7 -6.65 0.4 -7.8 -1.25 -11.55 -6.5 -17.3 -6.65 L-28.85 -6.25 -28.7 -8.2 -27.35 -8.15 Q-25.4 -8.4 -23.45 -8.1 L-21.6 -8.0 -15.35 -7.3 -10.95 -7.0 -8.75 -7.0 -5.7 -7.0 -4.85 -6.95 -3.55 -6.9 -1.0 -6.85 Q5.45 -7.95 9.25 -7.05 L9.4 -6.55" fill="#282828" fill-rule="evenodd" stroke="none"/>
      <path d="M2.0 4.2 L-3.35 6.25 Q-4.75 6.7 -7.65 9.15 L-8.35 8.15 -8.6 7.9 -10.2 6.0 Q-13.15 3.1 -17.05 1.4 L-18.75 0.7 -18.8 0.7 -25.15 -0.6 Q-29.0 -0.9 -28.85 -6.25 L-17.3 -6.65 Q-11.55 -6.5 -7.8 -1.25 -6.65 0.4 -5.05 1.7 -4.8 -0.05 -4.05 -1.4 L-3.0 -2.9 Q0.8 -3.35 1.65 0.45 L1.9 2.9 2.0 4.2 M-26.15 -2.05 Q-23.35 -0.4 -20.5 -1.3 L-19.15 -2.1 -25.95 -2.45 -26.15 -2.05" fill="#363636" fill-rule="evenodd" stroke="none"/>
      <path d="M9.7 -7.9 L9.7 -7.85 9.4 -6.55 9.25 -7.05 Q5.45 -7.95 -1.0 -6.85 L-3.55 -6.9 -4.85 -6.95 -5.7 -7.0 -8.75 -7.0 -10.95 -7.0 -15.35 -7.3 -21.6 -8.0 -23.45 -8.1 Q-25.4 -8.4 -27.35 -8.15 L-28.7 -8.2 Q-29.15 -8.4 -29.1 -8.85 L-29.1 -9.0 -22.0 -9.25 -12.0 -8.35 Q-6.35 -7.7 -0.8 -8.15 4.75 -8.55 9.7 -7.9 M-26.15 -2.05 L-25.95 -2.45 -19.15 -2.1 -20.5 -1.3 Q-23.35 -0.4 -26.15 -2.05" fill="#444444" fill-rule="evenodd" stroke="none"/>
    </g>
    <g id="shape1" transform="matrix(1.0, 0.0, 0.0, 1.0, 12.7, 39.85)">
      <path d="M-12.65 29.95 L-12.5 29.9 -12.5 29.95 -12.65 29.95" fill="#727e94" fill-rule="evenodd" stroke="none"/>
      <path d="M-11.75 -28.0 Q-12.2 -29.3 -9.75 -31.65 -8.2 -33.5 -5.6 -35.4 -0.05 -39.5 2.85 -39.8 L5.5 -39.65 Q7.7 -39.1 9.1 -36.85 8.55 -23.7 6.95 -18.3 5.3 -12.95 5.9 -6.95 L6.0 -5.65 Q6.4 -2.2 5.55 2.05 L5.65 1.65 Q5.5 12.35 4.55 14.8 L3.6 17.25 3.75 17.4 Q5.25 19.1 5.35 19.95 L5.3 21.1 5.15 21.75 4.85 22.95 4.9 23.25 10.95 20.4 11.55 21.35 Q11.7 22.6 7.05 24.2 5.7 25.3 -0.5 27.15 -6.7 28.9 -12.5 29.95 L-12.5 29.9 -12.65 29.95 Q-10.6 28.2 -10.35 26.5 L-7.55 12.1 -7.65 12.2 -7.65 11.95 -7.3 9.9 Q-6.95 7.75 -6.95 6.95 L-7.2 3.75 -7.45 0.7 -7.55 -0.1 -7.55 -0.3 Q-7.7 -3.25 -7.45 -8.35 L-7.55 -10.15 Q-7.65 -11.55 -7.9 -12.5 L-9.3 -17.75 Q-10.5 -22.05 -10.65 -24.25 -10.85 -26.5 -11.65 -27.8 L-11.75 -28.0 M6.65 6.45 L6.2 6.95 6.5 6.45 6.65 6.45" fill="#282828" fill-rule="evenodd" stroke="none"/>
      <path d="M-11.75 -28.0 L-11.65 -27.8 Q-10.85 -26.5 -10.65 -24.25 -10.5 -22.05 -9.3 -17.75 L-7.9 -12.5 Q-7.65 -11.55 -7.55 -10.15 L-7.45 -8.35 Q-7.7 -3.25 -7.55 -0.3 L-7.55 -0.1 -7.45 0.7 -7.2 3.75 -6.95 6.95 Q-6.95 7.75 -7.3 9.9 L-7.65 11.95 -7.65 12.2 -7.55 12.1 -10.35 26.5 Q-10.6 28.2 -12.65 29.95 L-12.7 29.75 -12.0 26.8 -11.4 25.1 Q-10.65 18.05 -10.9 15.85 L-10.8 8.1 -10.6 -0.05 -12.05 -15.7 -12.1 -18.4 Q-11.95 -19.85 -12.05 -21.85 L-12.2 -23.3 Q-12.3 -24.3 -12.05 -24.9 L-11.85 -25.4 -11.9 -26.0 Q-12.0 -27.0 -11.75 -28.0 M10.95 20.4 L4.9 23.25 4.85 22.95 5.15 21.75 5.3 21.1 5.35 19.95 Q5.25 19.1 3.75 17.4 L3.6 17.25 4.55 14.8 Q5.5 12.35 5.65 1.65 L5.55 2.05 Q6.4 -2.2 6.0 -5.65 L5.9 -6.95 Q5.3 -12.95 6.95 -18.3 8.55 -23.7 9.1 -36.85 L9.95 -35.2 10.45 -32.95 9.55 -24.2 Q8.75 -17.6 9.0 -14.0 8.45 -7.4 8.25 0.95 8.05 9.3 8.15 11.8 8.2 14.3 7.9 16.05 L7.45 18.8 Q7.35 19.9 10.4 18.3 L10.45 18.95 10.95 20.4 M6.65 6.45 L6.5 6.45 6.2 6.95 6.65 6.45" fill="#363636" fill-rule="evenodd" stroke="none"/>
      <path d="M10.45 -32.95 L11.1 -29.45 Q11.25 -28.3 10.7 -20.95 L10.0 -12.2 9.7 -7.95 Q9.55 -5.0 9.9 -1.8 10.2 1.35 10.05 5.45 9.85 9.55 9.95 10.2 L10.45 12.2 10.4 15.15 Q10.25 16.45 10.4 18.3 7.35 19.9 7.45 18.8 L7.9 16.05 Q8.2 14.3 8.15 11.8 8.05 9.3 8.25 0.95 8.45 -7.4 9.0 -14.0 8.75 -17.6 9.55 -24.2 L10.45 -32.95" fill="#515151" fill-rule="evenodd" stroke="none"/>
    </g>
    <g id="sprite2" transform="matrix(1.0, 0.0, 0.0, 1.0, 50.0, 50.0)">
      <use ffdec:characterId="1080" height="100.0" transform="matrix(1.0, 0.0, 0.0, 1.0, -50.0, -50.0)" width="100.0" xlink:href="#shape2"/>
    </g>
    <g id="shape2" transform="matrix(1.0, 0.0, 0.0, 1.0, 50.0, 50.0)">
      <path d="M50.0 50.0 L-50.0 50.0 -50.0 -50.0 50.0 -50.0 50.0 50.0 Z" fill="none" stroke="#9900ff" stroke-linecap="round" stroke-linejoin="round" stroke-width="0.05"/>
    </g>
  </defs>
</svg>
