<?xml version="1.0" encoding="UTF-8" standalone="no"?>
<svg xmlns:ffdec="https://www.free-decompiler.com/flash" xmlns:xlink="http://www.w3.org/1999/xlink" ffdec:objectType="frame" height="27.65px" width="13.35px" xmlns="http://www.w3.org/2000/svg">
  <g transform="matrix(1.0, 0.0, 0.0, 1.0, 6.65, 13.85)">
    <use ffdec:characterId="570" height="27.65" transform="matrix(1.0, 0.0, 0.0, 1.0, -6.65, -13.85)" width="13.35" xlink:href="#shape0"/>
  </g>
  <defs>
    <g id="shape0" transform="matrix(1.0, 0.0, 0.0, 1.0, 6.65, 13.85)">
      <path d="M2.35 -9.05 L3.4 -7.55 Q5.3 -4.65 5.75 -1.4 6.25 2.6 4.75 6.65 L3.85 8.25 -1.5 12.0 Q1.1 9.55 2.15 6.0 L2.75 3.35 Q3.4 -0.5 2.05 -4.4 L3.25 -1.5 3.1 -4.55 3.0 -4.0 1.75 -6.8 2.35 -9.05 M1.95 1.45 L1.45 4.75 -0.4 0.55 0.4 0.8 0.75 2.8 1.4 2.9 1.95 1.45 M1.4 4.8 Q1.4 7.6 0.15 9.6 -1.15 11.6 -2.95 11.6 L-1.55 9.85 1.4 4.8" fill="#e57128" fill-rule="evenodd" stroke="none"/>
      <path d="M2.05 -4.4 Q3.4 -0.5 2.75 3.35 L2.15 6.0 Q1.1 9.55 -1.5 12.0 L3.85 8.25 4.75 6.65 Q6.25 2.6 5.75 -1.4 5.3 -4.65 3.4 -7.55 L2.35 -9.05 -1.05 -12.35 -0.5 -13.85 Q3.15 -10.95 5.4 -5.75 7.5 -0.85 6.2 4.0 5.6 6.25 4.5 8.35 L3.05 10.2 -1.55 13.65 -2.5 13.7 -3.2 13.55 -4.55 13.8 -2.95 11.6 Q-1.15 11.6 0.15 9.6 1.4 7.6 1.4 4.8 L1.45 4.75 1.95 1.45 2.0 0.9 1.95 -1.55 1.55 -3.85 -1.55 -11.0 -1.4 -11.2 0.0 -9.2 2.05 -4.4" fill="#d45d23" fill-rule="evenodd" stroke="none"/>
      <path d="M2.35 -9.05 L1.75 -6.8 -0.15 -9.6 0.0 -9.2 -1.4 -11.2 -1.45 -11.3 -1.05 -12.35 2.35 -9.05 M-1.55 -11.0 L1.55 -3.85 -0.4 -4.05 -0.9 -4.4 -1.25 -2.15 -2.35 -6.4 -1.65 -5.55 -1.4 -6.85 -1.55 -8.65 -1.6 -8.0 -2.3 -9.05 -1.55 -11.0 M-4.6 -5.75 L-4.45 -5.25 -4.55 -4.05 -4.35 -4.9 -4.15 -4.35 -4.2 -3.45 -3.7 -3.1 -1.85 2.35 -2.15 3.7 -1.95 4.3 -2.0 4.8 -2.3 4.3 -2.05 5.2 -2.4 8.0 -3.2 6.6 -4.8 6.4 -3.25 6.4 -3.9 5.25 -4.15 4.25 -4.55 4.45 -4.7 4.9 -5.45 4.75 -6.65 6.15 -5.75 4.55 -6.5 3.9 -5.1 3.9 -5.75 3.1 -4.55 3.4 -4.1 3.3 -3.95 3.1 -4.25 1.45 -3.35 2.7 -3.5 2.05 -2.8 2.15 -2.45 2.8 -2.25 1.85 -2.7 1.25 -3.35 1.15 -3.1 1.6 -3.95 1.15 -5.7 -1.75 -5.55 -2.65 -4.85 -0.95 -4.55 -0.3 Q-4.3 -0.05 -3.95 -0.05 L-3.95 0.05 -3.85 -0.2 -3.8 -0.75 -4.1 -1.1 -4.45 -2.2 -4.45 -1.4 -4.6 -1.55 -4.55 -2.3 -6.35 -4.2 -4.55 -2.9 -5.0 -4.6 -4.6 -5.75 M-2.5 8.45 L-2.8 8.85 -3.5 8.5 -3.25 9.45 -3.45 9.7 -3.9 9.15 -6.3 10.65 -4.2 8.7 -4.95 7.15 -3.8 8.35 -4.0 7.5 -2.9 7.6 -3.0 7.65 -3.0 7.75 -2.5 8.45 M-3.35 -1.3 L-4.0 -1.7 -3.3 -0.6 -3.95 -1.35 -2.9 0.55 -3.35 -1.3 M-5.6 1.15 L-5.45 2.2 -5.2 2.35 -5.2 2.45 -4.95 2.95 -5.95 1.9 -5.6 1.05 -5.6 1.15 M-2.5 2.9 L-2.9 2.5 -2.65 3.45 -2.5 2.9" fill="#ef7f33" fill-rule="evenodd" stroke="none"/>
      <path d="M1.75 -6.8 L3.0 -4.0 3.1 -4.55 3.25 -1.5 2.05 -4.4 0.0 -9.2 -0.15 -9.6 1.75 -6.8 M1.55 -3.85 L1.95 -1.55 2.0 0.9 1.95 1.45 1.4 2.9 0.75 2.8 0.4 0.8 -0.4 0.55 -0.9 -0.6 -1.25 -2.15 -0.9 -4.4 -0.4 -4.05 1.55 -3.85 M-2.3 -9.05 L-1.6 -8.0 -1.55 -8.65 -1.4 -6.85 -1.65 -5.55 -2.35 -6.4 -2.95 -8.85 -2.3 -9.05" fill="#ff8c3f" fill-rule="evenodd" stroke="none"/>
      <path d="M-1.4 -11.2 L-1.55 -11.0 -2.3 -9.05 -2.95 -8.85 -2.35 -6.4 -1.25 -2.15 -0.9 -0.6 -0.4 0.55 1.45 4.75 1.4 4.8 -1.55 9.85 -2.95 11.6 -4.55 13.8 -4.7 13.75 -4.7 13.45 -5.05 12.6 -5.3 12.15 -5.2 12.1 -3.45 9.7 -3.25 9.45 -2.8 8.85 -2.5 8.45 -2.45 8.35 -2.4 8.0 -2.05 5.2 -2.0 4.8 -1.95 4.3 -1.75 2.65 -1.85 2.35 -3.7 -3.1 -4.15 -4.35 -4.35 -4.9 -4.45 -5.25 -4.6 -5.75 -5.55 -8.55 -4.55 -9.4 -3.65 -10.8 -3.2 -12.1 -3.1 -13.05 -2.9 -13.5 -0.5 -13.85 -1.05 -12.35 -1.45 -11.3 -1.4 -11.2" fill="#ffc670" fill-rule="evenodd" stroke="none"/>
      <path d="M-3.95 1.15 L-3.1 1.6 Q-2.75 1.8 -2.75 1.9 L-2.8 2.15 -3.5 2.05 -4.15 1.5 -4.15 1.1 -3.95 1.15 M-3.95 3.1 L-4.1 3.3 -4.55 3.4 -4.95 2.95 -5.2 2.45 -5.2 2.35 Q-5.15 1.3 -3.95 3.1 M-4.7 4.9 L-4.55 4.45 -4.15 4.25 -3.9 5.25 Q-4.5 5.25 -4.7 4.9 M-4.85 -0.95 L-4.85 -1.1 -4.7 -1.6 -4.6 -1.55 -4.45 -1.4 -4.1 -1.1 -3.8 -0.75 -3.85 -0.2 -3.95 -0.05 Q-4.3 -0.05 -4.55 -0.3 L-4.85 -0.95 M-5.6 1.05 L-6.05 0.1 Q-6.05 -1.2 -5.6 -0.5 L-5.0 0.85 -5.0 1.3 -5.25 1.4 -5.6 1.15 -5.6 1.05" fill="#e5cea4" fill-rule="evenodd" stroke="none"/>
    </g>
  </defs>
</svg>
