<?xml version="1.0" encoding="UTF-8" standalone="no"?>
<svg xmlns:ffdec="https://www.free-decompiler.com/flash" xmlns:xlink="http://www.w3.org/1999/xlink" ffdec:objectType="frame" height="12.85px" width="17.75px" xmlns="http://www.w3.org/2000/svg">
  <g transform="matrix(1.0, 0.0, 0.0, 1.0, 8.55, 6.6)">
    <use ffdec:characterId="1227" height="12.85" transform="matrix(1.0, 0.0, 0.0, 1.0, -8.55, -6.6)" width="17.75" xlink:href="#shape0"/>
  </g>
  <defs>
    <g id="shape0" transform="matrix(1.0, 0.0, 0.0, 1.0, 8.55, 6.6)">
      <path d="M-1.65 5.8 L-2.55 6.25 -3.8 5.8 -3.3 5.4 -3.6 4.05 -5.3 4.45 -5.5 4.35 -4.65 3.7 -5.2 2.8 -5.95 2.65 -6.7 3.4 -6.45 3.9 -7.75 3.3 -7.75 1.85 -7.7 1.1 -8.55 0.15 -7.95 -2.35 -8.1 -1.35 -7.25 -1.15 Q-5.65 -1.0 -4.5 -2.3 L-5.0 -2.95 -5.05 -3.8 -1.0 -3.65 -0.45 -4.0 -0.65 -5.15 0.35 -6.2 Q1.8 -4.65 2.25 -2.7 L1.65 -2.7 1.55 -2.95 -1.65 -3.1 -5.9 -0.35 -6.45 0.05 -6.95 0.05 -7.45 0.7 -7.65 1.45 -7.2 1.8 -6.3 1.5 -6.0 1.7 -5.75 1.85 -4.75 2.45 -3.7 3.8 -2.3 3.95 -1.55 5.2 -1.65 5.8 M-2.9 -1.5 L-2.95 -1.05 -2.5 -0.35 -1.3 -0.1 Q-0.9 -0.3 -0.55 -0.55 L-0.1 -0.15 0.75 -0.1 1.25 0.25 2.5 -0.15 2.95 -0.8 3.05 0.25 2.65 0.95 -0.05 0.9 -1.95 2.25 -2.6 2.2 -3.1 1.7 -0.95 0.9 -1.4 0.25 -3.15 0.25 -2.9 -1.5 M2.95 -1.4 L3.2 -2.05 4.05 -2.35 6.2 -1.2 7.25 0.7 Q5.5 -1.35 2.95 -1.4 M5.65 3.35 Q6.05 3.25 5.75 4.5 L3.9 5.5 1.8 4.7 5.65 3.35" fill="#990000" fill-rule="evenodd" stroke="none"/>
      <path d="M9.1 0.2 L9.1 0.1 9.2 0.05 9.2 0.2 9.1 0.2 M9.15 0.55 L9.2 1.25 8.4 2.1 8.4 2.6 8.4 2.85 8.35 3.3 Q8.2 5.55 5.9 5.55 L4.85 5.6 3.45 5.55 3.4 5.55 0.25 4.8 -0.35 4.6 -0.25 4.45 0.25 4.6 1.3 4.9 1.8 4.7 3.9 5.5 5.75 4.5 Q6.05 3.25 5.65 3.35 L5.75 2.5 Q3.8 1.85 2.2 2.95 L-1.95 2.25 -0.05 0.9 2.65 0.95 3.05 0.25 2.95 -0.8 2.95 -1.4 Q5.5 -1.35 7.25 0.7 L9.15 0.55 M1.65 -2.7 L0.9 -1.5 0.05 -2.5 -2.9 -1.5 -3.15 0.25 -3.75 0.7 -3.9 0.9 -5.2 -0.45 -5.9 -0.35 -1.65 -3.1 1.55 -2.95 1.65 -2.7" fill="#ffcc99" fill-rule="evenodd" stroke="none"/>
      <path d="M0.35 -6.2 L0.75 -6.6 Q3.35 -5.65 4.05 -3.15 6.85 -2.35 7.95 0.15 L9.1 0.2 9.2 0.2 9.15 0.55 7.25 0.7 6.2 -1.2 4.05 -2.35 3.2 -2.05 2.95 -1.4 2.95 -0.8 2.5 -0.15 1.25 0.25 0.75 -0.1 -0.1 -0.15 -0.55 -0.55 Q-0.9 -0.3 -1.3 -0.1 L-2.5 -0.35 -2.95 -1.05 -2.9 -1.5 0.05 -2.5 0.9 -1.5 1.65 -2.7 2.25 -2.7 Q1.8 -4.65 0.35 -6.2 M-3.8 5.8 L-4.1 6.0 -4.95 6.05 -5.4 5.2 -5.3 4.45 -3.6 4.05 -3.3 5.4 -3.8 5.8 M-7.95 -2.35 L-6.25 -3.0 -5.0 -2.95 -4.5 -2.3 Q-5.65 -1.0 -7.25 -1.15 L-8.1 -1.35 -7.95 -2.35 M-5.05 -3.8 Q-3.7 -5.2 -1.6 -5.2 L-0.65 -5.15 -0.45 -4.0 -1.0 -3.65 -5.05 -3.8 M-5.9 -0.35 L-5.2 -0.45 -3.9 0.9 -3.75 0.7 -3.15 0.25 -1.4 0.25 -0.95 0.9 -3.1 1.7 -2.6 2.2 -1.95 2.25 2.2 2.95 Q3.8 1.85 5.75 2.5 L5.65 3.35 1.8 4.7 1.3 4.9 0.25 4.6 -0.25 4.45 -4.75 2.45 -5.75 1.85 -6.0 1.7 -6.3 1.5 -7.2 1.8 -7.65 1.45 -7.45 0.7 -6.95 0.05 -6.45 0.05 -5.9 -0.35" fill="#ff0000" fill-rule="evenodd" stroke="none"/>
      <path d="M-0.35 4.6 L-1.65 5.8 -1.55 5.2 -2.3 3.95 -3.7 3.8 -4.75 2.45 -0.25 4.45 -0.35 4.6" fill="#c79b68" fill-rule="evenodd" stroke="none"/>
      <path d="M-5.5 4.35 L-6.45 3.9 -6.7 3.4 -5.95 2.65 -5.2 2.8 -4.65 3.7 -5.5 4.35" fill="#650101" fill-rule="evenodd" stroke="none"/>
    </g>
  </defs>
</svg>
