<?xml version="1.0" encoding="UTF-8" standalone="no"?>
<svg xmlns:ffdec="https://www.free-decompiler.com/flash" xmlns:xlink="http://www.w3.org/1999/xlink" ffdec:objectType="frame" height="13.0px" width="13.0px" xmlns="http://www.w3.org/2000/svg">
  <g transform="matrix(1.0, 0.0, 0.0, 1.0, 6.5, 6.5)">
    <use ffdec:characterId="2910" height="13.0" transform="matrix(1.0, 0.0, 0.0, 1.0, -6.5, -6.5)" width="13.0" xlink:href="#shape0"/>
  </g>
  <defs>
    <g id="shape0" transform="matrix(1.0, 0.0, 0.0, 1.0, 6.5, 6.5)">
      <path d="M3.5 -3.55 L2.6 -4.25 0.0 -1.7 -2.6 -4.3 -3.55 -3.55 -4.3 -2.6 -1.7 0.0 -4.25 2.6 -3.55 3.5 -2.55 4.3 0.0 1.7 2.6 4.3 3.5 3.5 4.3 2.6 1.7 0.0 4.3 -2.55 3.5 -3.55 M4.55 -4.65 Q6.5 -2.7 6.5 0.0 6.5 2.65 4.55 4.55 2.65 6.5 0.0 6.5 -2.7 6.5 -4.65 4.55 -6.5 2.65 -6.5 0.0 -6.5 -2.7 -4.65 -4.65 -2.7 -6.5 0.0 -6.5 2.65 -6.5 4.55 -4.65" fill="#ffffff" fill-rule="evenodd" stroke="none"/>
    </g>
  </defs>
</svg>
