<?xml version="1.0" encoding="UTF-8" standalone="no"?>
<svg xmlns:ffdec="https://www.free-decompiler.com/flash" xmlns:xlink="http://www.w3.org/1999/xlink" ffdec:objectType="frame" height="140.0px" width="34.4px" xmlns="http://www.w3.org/2000/svg">
  <g transform="matrix(1.0, 0.0, 0.0, 1.0, 14.4, 10.45)">
    <use ffdec:characterId="1381" ffdec:characterName="game_fla.upperleg2_740" height="74.4" id="upperLeg2" transform="matrix(1.0, 0.0, 0.0, 1.0, -14.4, -10.45)" width="30.0" xlink:href="#sprite0"/>
    <use ffdec:characterId="1387" height="80.9" id="lowerLegOuter2" transform="matrix(1.0, 0.0, 0.0, 1.0, -11.9, 48.65)" width="31.9" xlink:href="#sprite2"/>
  </g>
  <defs>
    <g id="sprite0" transform="matrix(1.0, 0.0, 0.0, 1.0, 16.25, 37.0)">
      <use ffdec:characterId="1377" height="74.2" transform="matrix(1.0, 0.0, 0.0, 1.0, -14.5, -36.8)" width="27.5" xlink:href="#shape0"/>
      <use ffdec:characterId="1081" height="100.0" id="shape" transform="matrix(0.24, 0.0, 0.0, 0.74, -11.9987, -36.9995)" width="100.0" xlink:href="#sprite1"/>
    </g>
    <g id="shape0" transform="matrix(1.0, 0.0, 0.0, 1.0, 14.5, 36.8)">
      <path d="M-7.1 -35.2 L-7.0 -35.25 -6.75 -35.4 -5.1 -36.0 -4.6 -36.15 -2.9 -36.55 2.9 -36.3 5.75 -35.25 7.75 -34.05 7.85 -33.95 8.75 -33.15 9.8 -31.9 Q10.85 -30.2 9.2 -27.25 L7.2 -23.5 Q5.75 -19.1 5.75 -15.25 L6.25 -6.0 6.0 0.0 4.8 -4.4 3.5 -9.0 3.5 -7.75 4.4 1.9 4.65 4.4 5.25 11.5 5.1 15.9 5.05 16.9 5.05 17.5 Q4.95 20.35 5.25 20.4 5.6 20.4 6.6 24.4 7.6 28.35 7.3 29.9 L7.0 31.6 6.75 32.0 6.35 33.0 5.7 34.15 4.8 35.3 Q3.25 36.8 0.9 37.05 L-1.5 37.4 -2.0 37.4 -3.3 37.15 Q-4.45 36.75 -5.4 35.9 L-5.7 35.45 -6.65 34.3 Q-7.3 33.65 -7.55 32.15 L-7.65 31.9 -7.9 31.05 Q-7.55 26.3 -6.0 19.6 L-5.2 15.9 -4.9 14.25 Q-4.0 9.25 -4.0 6.0 L-4.0 4.4 Q-4.3 -4.75 -7.6 -9.3 L-10.1 -12.45 Q-11.25 -14.05 -11.35 -18.35 -11.5 -22.7 -10.45 -28.25 -9.5 -33.5 -7.1 -35.2 M1.1 10.25 L0.15 4.4 0.1 4.25 -1.0 -3.0 -1.4 -16.5 -1.55 -16.5 -1.65 -10.75 Q-1.65 -2.0 -0.9 4.4 L-0.75 5.6 Q-0.05 10.85 0.1 15.9 L0.15 18.75 0.0 21.25 0.1 21.15 0.7 15.9 0.7 15.85 1.1 10.25" fill="#749bc1" fill-rule="evenodd" stroke="none"/>
      <path d="M1.1 10.25 L0.7 15.85 0.7 15.9 0.1 21.15 0.0 21.25 0.15 18.75 0.1 15.9 Q-0.05 10.85 -0.75 5.6 L-0.9 4.4 Q-1.65 -2.0 -1.65 -10.75 L-1.55 -16.5 -1.4 -16.5 -1.0 -3.0 0.1 4.25 0.15 4.4 1.1 10.25" fill="#64829f" fill-rule="evenodd" stroke="none"/>
      <path d="M-7.1 -35.2 Q-9.5 -33.5 -10.45 -28.25 -11.5 -22.7 -11.35 -18.35 -11.25 -14.05 -10.1 -12.45 L-7.6 -9.3 Q-4.3 -4.75 -4.0 4.4 L-4.0 6.0 Q-4.0 9.25 -4.9 14.25 L-5.2 15.9 -6.0 19.6 Q-7.55 26.3 -7.9 31.05 L-8.45 28.2 -8.45 28.05 -7.35 20.3 -6.65 15.9 -6.45 13.85 -6.25 10.35 Q-6.25 7.25 -6.5 4.4 -7.15 -2.85 -9.5 -8.65 L-11.75 -13.8 Q-12.75 -16.35 -13.1 -21.95 -13.5 -27.6 -9.0 -33.75 L-8.8 -33.85 -8.55 -34.05 -7.1 -35.2 M7.0 31.6 L7.3 29.9 Q7.6 28.35 6.6 24.4 5.6 20.4 5.25 20.4 4.95 20.35 5.05 17.5 L5.05 16.9 5.1 15.9 5.25 11.5 4.65 4.4 4.4 1.9 3.5 -7.75 3.5 -9.0 4.8 -4.4 6.0 0.0 6.25 -6.0 5.75 -15.25 Q5.75 -19.1 7.2 -23.5 L9.2 -27.25 Q10.85 -30.2 9.8 -31.9 L10.6 -30.5 Q11.05 -29.3 10.0 -26.05 8.9 -22.8 7.75 -22.25 L7.75 -17.25 9.5 -17.25 10.5 -17.5 9.0 -16.25 Q8.25 -15.5 8.25 -14.75 L8.75 -10.0 Q8.75 -8.75 8.25 -6.75 7.75 -4.75 7.75 -3.5 L8.25 4.85 7.9 13.1 7.75 15.9 7.6 18.3 7.5 21.35 Q7.5 24.1 8.05 25.15 L8.95 27.4 8.65 28.15 7.25 31.1 7.0 31.6" fill="#81a8cf" fill-rule="evenodd" stroke="none"/>
      <path d="M10.6 -30.5 L10.75 -30.25 10.85 -29.95 Q11.7 -27.95 11.95 -25.4 12.5 -23.1 12.8 -18.85 L12.8 -18.35 12.9 -16.2 13.0 -8.85 13.0 -3.4 12.8 4.4 12.3 11.15 12.25 11.7 11.7 15.9 11.1 19.3 10.95 20.1 10.7 21.1 9.7 25.0 9.55 25.6 9.25 26.5 8.95 27.4 8.05 25.15 Q7.5 24.1 7.5 21.35 L7.6 18.3 7.75 15.9 7.9 13.1 8.25 4.85 7.75 -3.5 Q7.75 -4.75 8.25 -6.75 8.75 -8.75 8.75 -10.0 L8.25 -14.75 Q8.25 -15.5 9.0 -16.25 L10.5 -17.5 9.5 -17.25 7.75 -17.25 7.75 -22.25 Q8.9 -22.8 10.0 -26.05 11.05 -29.3 10.6 -30.5 M-8.45 28.05 L-8.5 27.85 -8.75 25.4 Q-8.7 22.0 -8.95 18.5 L-9.15 16.2 -9.15 15.9 -9.5 13.15 -9.55 12.9 -9.7 11.25 -9.9 4.4 -10.05 -0.4 Q-10.2 -4.8 -11.05 -9.1 L-11.95 -12.75 -12.15 -13.6 Q-13.25 -15.45 -13.85 -18.7 L-14.0 -19.55 -14.45 -23.5 -14.5 -26.05 Q-14.5 -29.8 -10.35 -32.85 L-9.65 -33.3 -9.55 -33.4 -9.0 -33.75 Q-13.5 -27.6 -13.1 -21.95 -12.75 -16.35 -11.75 -13.8 L-9.5 -8.65 Q-7.15 -2.85 -6.5 4.4 -6.25 7.25 -6.25 10.35 L-6.45 13.85 -6.65 15.9 -7.35 20.3 -8.45 28.05" fill="#98b8d7" fill-rule="evenodd" stroke="none"/>
    </g>
    <g id="sprite1" transform="matrix(1.0, 0.0, 0.0, 1.0, 50.0, 50.0)">
      <use ffdec:characterId="1080" height="100.0" transform="matrix(1.0, 0.0, 0.0, 1.0, -50.0, -50.0)" width="100.0" xlink:href="#shape1"/>
    </g>
    <g id="shape1" transform="matrix(1.0, 0.0, 0.0, 1.0, 50.0, 50.0)">
      <path d="M50.0 50.0 L-50.0 50.0 -50.0 -50.0 50.0 -50.0 50.0 50.0 Z" fill="none" stroke="#9900ff" stroke-linecap="round" stroke-linejoin="round" stroke-width="0.05"/>
    </g>
    <g id="sprite2" transform="matrix(1.0, 0.0, 0.0, 1.0, 13.05, 7.25)">
      <use ffdec:characterId="1386" ffdec:characterName="game_fla.lowerleg2_742" height="80.9" id="lowerLeg2" transform="matrix(1.0, 0.0, 0.0, 1.0, -13.05, -7.25)" width="31.9" xlink:href="#sprite3"/>
    </g>
    <g id="sprite3" transform="matrix(1.0, 0.0, 0.0, 1.0, 11.0, 39.0)">
      <use ffdec:characterId="1382" height="80.2" transform="matrix(1.0, 0.0, 0.0, 1.0, -10.55, -38.3)" width="31.45" xlink:href="#shape2"/>
      <use ffdec:characterId="1081" height="100.0" id="shape" transform="matrix(0.18, 0.0, 0.0, 0.7801, -8.9996, -39.0045)" width="100.0" xlink:href="#sprite1"/>
    </g>
    <g id="shape2" transform="matrix(1.0, 0.0, 0.0, 1.0, 10.55, 38.3)">
      <path d="M-5.25 -35.3 L-5.2 -35.35 -5.25 -35.2 -5.25 -35.3" fill="#aacdf0" fill-rule="evenodd" stroke="none"/>
      <path d="M1.25 23.45 L1.2 23.6 1.2 25.05 Q1.3 25.8 1.7 26.15 L1.65 26.7 1.65 26.9 1.7 26.95 2.05 27.6 Q3.3 29.55 5.65 31.15 L5.6 31.5 5.55 31.6 5.6 31.95 5.0 32.15 3.5 32.5 2.4 32.55 2.2 32.55 -3.15 32.0 -3.25 32.0 -3.3 31.6 -3.35 31.5 -3.8 30.75 -3.8 31.0 -4.0 31.1 -4.35 30.8 -4.5 30.15 -4.05 26.3 -3.35 22.75 1.1 23.4 1.25 23.45 M0.1 27.15 L0.0 27.3 -0.05 27.45 -0.05 27.55 -0.1 27.65 -0.15 27.6 -0.35 27.45 -0.7 27.15 -0.8 27.05 -0.9 27.0 -1.1 26.9 Q-1.15 25.8 -1.5 24.8 L-2.4 25.6 -2.45 26.7 -2.45 26.9 -2.65 27.35 -2.8 28.05 -2.8 28.15 -2.85 28.35 -2.85 28.8 -2.5 30.25 Q-1.9 31.6 -0.6 31.6 -0.05 31.6 0.5 30.5 L1.0 28.75 0.0 27.75 0.1 27.3 0.1 27.1 0.1 27.05 0.1 27.15 M-6.9 31.4 L-5.6 29.15 Q-5.4 29.75 -5.45 30.5 L-5.6 31.7 -5.5 31.75 -5.55 31.75 -6.1 31.6 -6.9 31.4" fill="#ebbb98" fill-rule="evenodd" stroke="none"/>
      <path d="M4.9 23.8 Q4.9 25.45 5.4 26.9 L5.75 27.75 Q6.4 28.95 7.5 30.0 L7.4 30.0 Q6.45 30.05 5.85 30.95 L5.7 31.15 5.65 31.15 Q3.3 29.55 2.05 27.6 L1.7 26.95 1.65 26.9 1.65 26.7 1.7 26.15 Q1.3 25.8 1.2 25.05 L1.2 23.6 1.25 23.45 4.9 23.8 M-8.15 31.05 L-8.15 31.0 -7.4 28.2 -7.2 27.25 -6.6 24.3 -6.3 22.5 -4.4 22.5 -3.35 22.75 -4.05 26.3 -4.5 30.15 -4.35 30.8 -4.0 31.1 -3.8 31.0 -3.8 30.75 -3.35 31.5 -3.3 31.6 -3.25 32.0 -5.5 31.75 -5.6 31.7 -5.45 30.5 Q-5.4 29.75 -5.6 29.15 L-6.9 31.4 -7.8 31.1 -8.05 31.05 -8.15 31.05" fill="#ffcc99" fill-rule="evenodd" stroke="none"/>
      <path d="M8.65 30.6 L8.85 30.6 10.2 30.6 Q11.05 30.7 11.25 31.05 L11.25 32.25 11.15 32.25 10.5 32.25 Q10.0 31.9 9.35 31.7 L8.95 31.4 7.5 30.6 8.65 30.6 M15.75 34.8 L16.8 35.25 16.4 35.6 14.5 37.25 14.25 37.25 13.75 36.9 Q11.7 35.6 8.7 34.0 L8.5 33.25 8.45 33.2 8.4 33.05 8.25 32.35 9.8 33.5 13.85 36.75 14.6 35.85 15.15 35.25 15.75 34.8 M20.9 38.65 L20.9 39.0 20.75 40.2 Q17.65 40.4 14.25 40.25 L5.45 39.25 -0.65 38.6 -2.85 38.4 Q-7.25 38.4 -9.75 37.2 L-9.75 36.45 -9.7 35.85 Q-8.2 37.0 -5.5 37.35 L1.35 37.8 8.4 39.0 14.9 39.6 18.2 39.5 20.9 38.65 M3.5 32.5 L5.0 32.15 5.6 31.95 5.55 31.6 5.6 31.5 5.95 31.5 5.9 32.1 6.0 32.65 5.9 32.6 5.75 32.5 3.5 32.5 M6.9 32.35 L7.3 33.3 Q7.7 34.2 7.7 34.85 L7.65 35.5 7.55 35.65 Q6.7 35.3 6.7 33.95 L6.8 33.05 6.9 32.35" fill="#d0c9bf" fill-rule="evenodd" stroke="none"/>
      <path d="M7.5 30.0 L7.9 30.1 8.65 30.6 7.5 30.6 8.95 31.4 9.35 31.7 Q10.0 31.9 10.5 32.25 L11.15 32.25 14.75 34.4 15.55 34.75 15.75 34.8 15.15 35.25 14.6 35.85 13.85 36.75 9.8 33.5 8.25 32.35 8.4 33.05 8.45 33.2 8.5 33.25 8.7 34.0 Q11.7 35.6 13.75 36.9 L14.25 37.25 14.5 37.25 16.4 35.6 16.8 35.25 19.05 36.55 Q20.8 37.7 20.9 38.65 L18.2 39.5 14.9 39.6 8.4 39.0 1.35 37.8 -5.5 37.35 Q-8.2 37.0 -9.7 35.85 L-9.45 33.5 -9.0 31.4 Q-8.95 30.65 -8.2 31.0 L-8.15 31.05 -8.05 31.05 -7.8 31.1 -6.9 31.4 -6.1 31.6 -5.55 31.75 -5.5 31.75 -3.25 32.0 -3.15 32.0 2.2 32.55 2.4 32.55 3.5 32.5 5.75 32.5 5.9 32.6 6.0 32.65 5.9 32.1 5.95 31.5 5.6 31.5 5.65 31.15 5.7 31.15 5.85 30.95 Q6.45 30.05 7.4 30.0 L7.5 30.0 M20.75 40.2 L20.75 40.65 Q20.85 41.2 19.45 41.6 L17.3 41.9 14.75 41.85 14.25 41.85 11.45 41.7 8.0 41.2 5.45 40.85 4.25 40.65 1.3 40.25 -1.9 40.0 -5.75 39.75 -8.35 39.45 Q-9.15 39.2 -9.75 38.6 L-9.75 37.2 Q-7.25 38.4 -2.85 38.4 L-0.65 38.6 5.45 39.25 14.25 40.25 Q17.65 40.4 20.75 40.2 M7.55 35.65 L7.85 35.7 8.1 34.6 8.0 33.65 7.7 32.65 7.5 32.0 7.5 31.95 7.1 30.75 6.95 31.75 6.95 31.8 6.9 32.35 6.8 33.05 6.7 33.95 Q6.7 35.3 7.55 35.65 M6.8 36.95 Q7.65 36.95 8.2 36.05 L8.55 35.3 Q8.25 36.2 7.15 36.2 L7.1 36.2 Q5.8 36.15 5.75 34.7 L5.9 33.5 Q5.7 34.05 5.45 35.55 5.45 36.2 5.85 36.55 6.25 36.95 6.8 36.95" fill="#e9e1d6" fill-rule="evenodd" stroke="none"/>
      <path d="M4.65 22.1 L4.95 22.15 4.9 22.85 4.9 23.35 4.9 23.8 1.25 23.45 1.1 23.4 -3.35 22.75 -4.4 22.5 -6.3 22.5 -6.3 22.45 -6.25 22.0 -6.2 21.5 -3.45 21.65 1.95 21.95 4.35 22.1 4.6 22.1 4.65 22.1 M0.1 27.15 L0.1 27.05 0.1 27.1 0.1 27.3 0.0 27.75 1.0 28.75 0.5 30.5 Q-0.05 31.6 -0.6 31.6 -1.9 31.6 -2.5 30.25 L-2.85 28.8 -2.85 28.35 -2.8 28.15 -2.8 28.05 -2.65 27.35 -2.45 26.9 -2.45 26.7 -2.4 25.6 -1.5 24.8 Q-1.15 25.8 -1.1 26.9 L-0.9 27.0 -0.8 27.05 -0.7 27.15 -0.35 27.45 -0.15 27.6 -0.1 27.65 -0.05 27.55 -0.05 27.45 0.0 27.3 0.1 27.15" fill="#e2b181" fill-rule="evenodd" stroke="none"/>
      <path d="M6.9 32.35 L6.95 31.8 6.95 31.75 7.1 30.75 7.5 31.95 7.5 32.0 7.7 32.65 8.0 33.65 8.1 34.6 7.85 35.7 7.55 35.65 7.65 35.5 7.7 34.85 Q7.7 34.2 7.3 33.3 L6.9 32.35 M6.8 36.95 Q6.25 36.95 5.85 36.55 5.45 36.2 5.45 35.55 5.7 34.05 5.9 33.5 L5.75 34.7 Q5.8 36.15 7.1 36.2 L7.15 36.2 Q8.25 36.2 8.55 35.3 L8.2 36.05 Q7.65 36.95 6.8 36.95" fill="#b1aba3" fill-rule="evenodd" stroke="none"/>
      <path d="M9.7 -28.0 L9.0 -18.55 7.9 -5.0 7.3 8.55 7.15 11.7 7.1 12.75 7.0 14.2 6.35 19.9 6.35 19.95 6.3 20.0 Q5.95 22.15 5.5 22.15 L4.65 22.1 4.6 22.1 4.35 22.1 4.25 20.25 4.25 19.7 6.35 19.95 4.25 19.35 4.05 14.05 4.0 12.5 Q3.8 9.15 4.2 4.6 L5.0 -3.0 Q5.45 -7.9 7.4 -17.1 L9.7 -28.0 M-5.15 21.55 L-7.7 21.4 -7.9 18.95 -7.9 18.75 -7.95 18.25 -8.3 14.1 -8.3 13.95 -8.3 13.75 -8.55 10.75 -8.95 7.35 -9.85 0.6 -10.0 -0.55 Q-10.65 -6.15 -10.5 -11.4 -10.4 -16.65 -8.15 -27.4 L-7.25 -30.95 -6.0 -34.05 -5.6 -34.7 -6.0 -29.75 Q-6.0 -27.05 -4.0 -23.9 -2.0 -20.75 -2.0 -17.35 -2.0 -14.65 -3.0 -12.9 L-4.75 -10.7 -4.75 -13.25 -4.8 -16.85 Q-4.9 -17.6 -5.75 -20.75 L-6.85 -7.5 Q-8.5 -3.7 -8.5 2.75 -8.5 5.15 -6.3 13.95 L-6.2 14.45 -5.5 17.8 Q-6.4 18.0 -7.6 18.75 L-5.35 18.75 -5.15 21.55" fill="#98b8d7" fill-rule="evenodd" stroke="none"/>
      <path d="M-4.5 -36.25 L-4.75 -30.25 Q-4.75 -26.45 -2.85 -22.8 -1.0 -19.2 -1.0 -16.25 -1.0 -12.3 -3.75 -7.75 -6.5 -3.25 -6.5 3.6 L-5.45 13.95 -4.95 17.75 -5.0 17.75 -5.5 17.8 -6.2 14.45 -6.3 13.95 Q-8.5 5.15 -8.5 2.75 -8.5 -3.7 -6.85 -7.5 L-5.75 -20.75 Q-4.9 -17.6 -4.8 -16.85 L-4.75 -13.25 -4.75 -10.7 -3.0 -12.9 Q-2.0 -14.65 -2.0 -17.35 -2.0 -20.75 -4.0 -23.9 -6.0 -27.05 -6.0 -29.75 L-5.6 -34.7 -5.25 -35.3 -5.25 -35.2 -5.2 -35.35 -4.5 -36.25 M2.2 18.9 L2.45 14.0 2.55 8.6 Q2.7 -1.2 4.25 -6.25 4.85 -11.5 7.0 -19.35 L9.75 -29.35 9.7 -28.0 7.4 -17.1 Q5.45 -7.9 5.0 -3.0 L4.2 4.6 Q3.8 9.15 4.0 12.5 L4.05 14.05 4.25 19.35 2.2 18.9 M-4.45 21.6 L-5.15 21.55 -5.35 18.75 -4.85 18.75 -4.45 21.6 M2.15 19.45 L3.3 19.55 4.25 19.7 4.25 20.25 4.35 22.1 1.95 21.95 2.15 19.45" fill="#81a8cf" fill-rule="evenodd" stroke="none"/>
      <path d="M-4.5 -36.25 L-4.25 -36.55 -3.9 -36.85 -3.4 -37.25 Q-2.05 -38.25 -0.35 -38.3 5.2 -38.45 7.7 -36.1 9.45 -34.45 9.95 -33.05 L10.15 -32.0 10.1 -31.25 9.75 -30.2 9.75 -30.15 9.75 -29.35 7.0 -19.35 Q4.85 -11.5 4.25 -6.25 2.7 -1.2 2.55 8.6 L2.45 14.0 2.2 18.9 1.75 18.8 -1.2 18.25 -1.05 18.15 -0.85 15.85 -0.65 14.2 0.25 1.65 Q-0.4 3.0 -0.55 9.15 -0.65 11.6 -1.25 13.5 -1.8 15.2 -1.8 17.15 L-1.65 18.15 -4.95 17.75 -5.45 13.95 -6.5 3.6 Q-6.5 -3.25 -3.75 -7.75 -1.0 -12.3 -1.0 -16.25 -1.0 -19.2 -2.85 -22.8 -4.75 -26.45 -4.75 -30.25 L-4.5 -36.25 M-3.45 21.65 L-4.45 21.6 -4.85 18.75 -3.25 18.75 2.15 19.45 1.95 21.95 -3.45 21.65 M1.35 -24.25 L0.75 -20.75 1.05 -16.1 Q1.15 -14.75 0.35 -9.25 L0.05 -7.95 Q0.85 -11.0 1.4 -16.0 L1.9 -22.65 1.5 -24.25 1.35 -24.25" fill="#749bc1" fill-rule="evenodd" stroke="none"/>
      <path d="M-4.95 17.75 L-1.65 18.15 -1.8 17.15 Q-1.8 15.2 -1.25 13.5 -0.65 11.6 -0.55 9.15 -0.4 3.0 0.25 1.65 L-0.65 14.2 -0.85 15.85 -1.05 18.15 -1.2 18.25 1.75 18.8 2.2 18.9 4.25 19.35 6.35 19.95 4.25 19.7 3.3 19.55 2.15 19.45 -3.25 18.75 -4.85 18.75 -5.35 18.75 -7.6 18.75 Q-6.4 18.0 -5.5 17.8 L-5.0 17.75 -4.95 17.75 M1.35 -24.25 L1.5 -24.25 1.9 -22.65 1.4 -16.0 Q0.85 -11.0 0.05 -7.95 L0.35 -9.25 Q1.15 -14.75 1.05 -16.1 L0.75 -20.75 1.35 -24.25" fill="#64829f" fill-rule="evenodd" stroke="none"/>
    </g>
  </defs>
</svg>
