<?xml version="1.0" encoding="UTF-8" standalone="no"?>
<svg xmlns:ffdec="https://www.free-decompiler.com/flash" xmlns:xlink="http://www.w3.org/1999/xlink" ffdec:objectType="frame" height="31.05px" width="35.4px" xmlns="http://www.w3.org/2000/svg">
  <g transform="matrix(1.0, 0.0, 0.0, 1.0, 16.75, 19.6)">
    <use ffdec:characterId="1332" height="19.5" transform="matrix(1.0, 0.0, 0.0, 1.0, -10.9, -9.2)" width="22.05" xlink:href="#shape0"/>
    <use ffdec:characterId="1334" height="20.8" id="wound" transform="matrix(1.0E-4, 1.0, -1.0, 1.0E-4, 11.1498, -19.2509)" width="14.05" xlink:href="#sprite0"/>
  </g>
  <defs>
    <g id="shape0" transform="matrix(1.0, 0.0, 0.0, 1.0, 10.9, 9.2)">
      <path d="M4.0 -6.85 L3.8 -6.75 3.85 -6.9 4.0 -6.85" fill="#bb77a7" fill-rule="evenodd" stroke="none"/>
      <path d="M2.8 -8.85 L8.5 -7.25 8.55 -7.1 Q8.6 -7.0 8.75 -7.0 L7.3 -6.15 Q6.5 -5.65 6.5 -4.75 6.5 -3.75 7.35 -2.85 L7.4 -2.8 Q8.25 -1.9 8.25 0.25 8.25 4.8 7.95 5.9 L6.2 9.6 5.4 9.7 5.2 9.65 4.0 9.8 3.85 9.8 1.95 10.2 -0.6 10.3 -0.9 10.2 -4.25 9.95 -4.6 9.85 -6.9 9.15 -7.7 8.65 -8.15 7.3 -9.15 3.7 -9.25 2.8 -8.75 -6.25 -8.95 -8.85 2.8 -8.85 M4.0 -6.85 L3.85 -6.9 3.8 -6.75 4.0 -6.85" fill="#2d6ed0" fill-rule="evenodd" stroke="none"/>
      <path d="M6.2 9.6 L7.95 5.9 Q8.25 4.8 8.25 0.25 8.25 -1.9 7.4 -2.8 L7.35 -2.85 Q6.5 -3.75 6.5 -4.75 6.5 -5.65 7.3 -6.15 L8.75 -7.0 Q8.6 -7.0 8.55 -7.1 L8.5 -7.25 2.8 -8.85 4.05 -8.85 7.0 -9.15 10.5 -8.95 10.9 -8.2 10.9 -8.0 10.9 -7.85 10.9 -7.25 10.9 -7.0 11.05 -4.15 11.05 -4.05 11.05 -3.75 11.1 -3.6 11.1 -3.55 11.15 -3.3 11.15 -2.5 11.05 -2.2 11.05 -1.85 10.35 2.4 10.3 2.65 10.3 2.8 10.2 3.05 Q8.9 8.85 6.2 9.6 M-8.95 -8.85 L-8.75 -6.25 -9.25 2.8 -9.15 3.7 -8.15 7.3 -7.7 8.65 Q-9.2 7.65 -9.9 6.35 L-10.45 5.1 -10.7 4.3 -10.85 3.35 -10.9 2.5 -10.85 2.5 -10.9 1.95 -10.9 1.35 -10.7 -0.95 -10.6 -1.9 -9.9 -6.45 -9.8 -7.0 -9.5 -8.65 -9.5 -8.85 -8.95 -8.85" fill="#3f81e5" fill-rule="evenodd" stroke="none"/>
    </g>
    <g id="sprite0" transform="matrix(1.0, 0.0, 0.0, 1.0, 1.75, 10.05)">
      <use ffdec:characterId="1333" height="20.8" transform="matrix(1.0, 0.0, 0.0, 1.0, -1.75, -10.05)" width="14.05" xlink:href="#shape1"/>
    </g>
    <g id="shape1" transform="matrix(1.0, 0.0, 0.0, 1.0, 1.75, 10.05)">
      <path d="M0.8 5.55 L0.45 5.55 0.65 3.5 0.05 2.7 1.0 1.35 1.2 1.15 1.45 1.25 2.35 1.75 Q2.45 3.55 1.3 4.9 L0.8 5.55 M2.6 -0.9 Q2.05 -2.8 2.7 -4.6 L3.15 -5.8 4.0 -5.7 4.35 -4.75 3.2 -1.2 Q2.95 -0.4 2.6 -0.9 M4.65 -6.5 L6.3 -10.05 7.2 -9.7 7.25 -8.4 Q7.05 -6.55 5.1 -5.9 L4.5 -5.9 4.65 -6.5 M7.4 -6.35 L8.15 -6.15 Q8.9 -5.0 8.65 -3.55 L8.4 -2.65 8.15 -2.4 7.5 -2.45 6.95 -2.6 6.15 -1.25 Q5.6 -0.35 5.6 0.55 5.65 3.75 5.2 6.9 L6.85 8.75 5.9 8.35 Q4.0 7.45 3.75 5.45 L4.05 4.85 3.2 3.2 4.1 2.1 3.85 -0.05 4.1 -1.85 Q4.35 -2.7 4.95 -3.25 6.0 -4.35 6.45 -5.8 L7.4 -6.35 M7.45 4.5 L7.65 4.55 8.25 4.9 Q8.85 5.45 8.85 6.2 8.85 7.8 7.55 7.7 L7.0 7.55 Q6.15 6.8 6.25 5.6 L6.3 4.9 7.45 4.5" fill="#ff0000" fill-rule="evenodd" stroke="none"/>
      <path d="M9.35 -5.9 L9.65 -5.6 Q10.1 -5.1 10.05 -4.3 L9.65 -2.65 8.05 -2.15 7.55 -2.4 7.5 -2.45 8.15 -2.4 8.4 -2.65 8.65 -3.55 Q8.9 -5.0 8.15 -6.15 L9.35 -5.9 M9.1 5.0 Q9.75 5.6 9.75 6.35 L9.75 6.45 9.05 7.95 7.5 8.05 7.0 7.55 7.55 7.7 Q8.85 7.8 8.85 6.2 8.85 5.45 8.25 4.9 L7.65 4.55 8.45 4.7 9.1 5.0 M7.5 10.75 L5.25 9.95 3.1 7.2 3.75 6.35 3.5 5.55 2.2 5.4 0.8 5.55 1.3 4.9 Q2.45 3.55 2.35 1.75 L2.6 -0.9 Q2.95 -0.4 3.2 -1.2 L4.35 -4.75 4.0 -5.7 4.65 -6.5 4.5 -5.9 5.1 -5.9 Q7.05 -6.55 7.25 -8.4 L7.4 -6.35 6.45 -5.8 Q6.0 -4.35 4.95 -3.25 4.35 -2.7 4.1 -1.85 L3.85 -0.05 4.1 2.1 3.2 3.2 4.05 4.85 3.75 5.45 Q4.0 7.45 5.9 8.35 L6.85 8.75 7.4 8.7 7.5 10.75" fill="#990000" fill-rule="evenodd" stroke="none"/>
      <path d="M6.85 8.75 L5.2 6.9 Q5.65 3.75 5.6 0.55 5.6 -0.35 6.15 -1.25 L6.95 -2.6 7.5 -2.45 7.55 -2.4 7.45 4.5 6.3 4.9 6.25 5.6 Q6.15 6.8 7.0 7.55 L7.5 8.05 7.4 8.7 6.85 8.75" fill="#ebbb98" fill-rule="evenodd" stroke="none"/>
      <path d="M3.1 7.2 L2.2 8.25 2.0 7.3 2.2 5.4 3.5 5.55 3.75 6.35 3.1 7.2 M0.45 5.55 L-0.2 6.7 -1.05 6.7 Q-2.0 5.0 -1.7 3.2 L-1.5 2.25 0.05 2.7 0.65 3.5 0.45 5.55" fill="#ffffff" fill-rule="evenodd" stroke="none"/>
      <path d="M7.2 -9.7 L9.4 -9.9 Q9.1 -8.45 9.3 -6.85 L9.35 -5.9 8.15 -6.15 7.4 -6.35 7.25 -8.4 7.2 -9.7 M10.05 -4.3 L12.3 -1.85 8.9 0.3 8.9 3.0 9.3 3.75 9.1 5.0 8.45 4.7 7.65 4.55 7.45 4.5 7.55 -2.4 8.05 -2.15 9.65 -2.65 10.05 -4.3 M9.75 6.45 L10.3 7.05 10.05 8.0 9.45 8.4 8.9 10.35 8.45 10.7 7.5 10.75 7.4 8.7 7.5 8.05 9.05 7.95 9.75 6.45" fill="#5e3b70" fill-rule="evenodd" stroke="none"/>
    </g>
  </defs>
</svg>
