<?xml version="1.0" encoding="UTF-8" standalone="no"?>
<svg xmlns:ffdec="https://www.free-decompiler.com/flash" xmlns:xlink="http://www.w3.org/1999/xlink" ffdec:objectType="frame" height="31.05px" width="35.4px" xmlns="http://www.w3.org/2000/svg">
  <g transform="matrix(1.0, 0.0, 0.0, 1.0, 16.75, 19.6)">
    <use ffdec:characterId="1335" height="19.5" transform="matrix(1.0, 0.0, 0.0, 1.0, -11.7, -9.2)" width="23.05" xlink:href="#shape0"/>
  </g>
  <defs>
    <g id="shape0" transform="matrix(1.0, 0.0, 0.0, 1.0, 11.7, 9.2)">
      <path d="M7.4 -2.8 L7.35 -2.85 Q6.5 -3.75 6.5 -4.75 6.5 -5.65 7.3 -6.15 L7.65 -6.35 8.75 -7.0 Q8.6 -7.0 8.55 -7.1 L8.5 -7.25 7.35 -7.55 2.8 -8.85 4.05 -8.85 7.0 -9.15 10.5 -8.95 10.9 -8.2 10.9 -8.0 10.9 -7.85 10.9 -7.25 10.9 -7.0 11.05 -4.7 10.9 -5.0 9.2 -6.05 Q8.05 -6.05 7.65 -5.05 L7.3 -3.6 7.4 -2.8 M-8.95 -8.85 L-8.75 -6.25 -8.85 -4.55 -8.95 -2.55 -9.2 2.15 -9.6 2.1 -10.45 2.4 -10.9 2.8 -10.9 2.5 -10.85 2.5 -10.9 1.95 -10.9 1.35 -10.7 -0.95 -10.6 -1.9 -9.9 -6.45 -9.8 -7.0 -9.5 -8.65 -9.5 -8.85 -8.95 -8.85 M8.25 0.3 L8.25 0.25 8.25 -0.25 8.15 -1.25 Q8.45 -0.9 8.95 -0.9 L10.7 -1.0 10.95 -1.55 11.05 -1.75 10.85 -0.25 10.75 0.5 10.35 2.4 10.3 2.65 Q9.95 1.3 8.75 0.5 L8.65 0.45 8.25 0.3" fill="#3f81e5" fill-rule="evenodd" stroke="none"/>
      <path d="M2.8 -8.85 L7.35 -7.55 8.5 -7.25 8.55 -7.1 Q8.6 -7.0 8.75 -7.0 L7.65 -6.35 7.3 -6.15 Q6.5 -5.65 6.5 -4.75 6.5 -3.75 7.35 -2.85 L7.4 -2.8 7.8 -1.7 8.15 -1.25 8.25 -0.25 8.25 0.25 8.25 0.3 7.8 0.1 7.75 -0.25 Q7.2 -3.7 5.0 -6.5 L4.5 -6.65 3.95 -6.5 Q3.65 -6.6 2.5 -6.05 L-0.95 -6.2 -2.3 -8.15 Q-2.5 -6.25 -3.4 -5.65 -4.35 -5.1 -4.55 -4.45 L-4.65 -4.45 -4.85 -5.3 -6.95 -6.0 -8.6 -5.0 -8.85 -4.55 -8.75 -6.25 -8.95 -8.85 2.8 -8.85 M2.95 10.05 L1.95 10.2 1.35 10.25 2.95 10.05 M0.1 10.3 L-0.6 10.3 -0.75 10.3 0.1 10.3 M-8.95 -2.55 L-8.7 -2.1 -7.7 -1.7 Q-8.8 -0.25 -8.5 1.6 L-8.35 2.4 -9.2 2.15 -8.95 -2.55" fill="#2d6ed0" fill-rule="evenodd" stroke="none"/>
      <path d="M7.3 -3.6 L7.65 -5.05 9.2 -6.05 10.9 -5.0 10.7 -3.8 10.25 -2.8 Q9.7 -2.0 8.9 -2.15 L7.3 -3.6 M-8.6 -5.0 L-6.95 -6.0 -4.85 -5.3 -4.65 -4.45 -4.65 -4.3 -4.8 -3.85 -4.85 -3.6 Q-7.2 -2.3 -8.35 -4.4 L-8.6 -5.0 M6.0 -0.8 L5.05 0.3 3.8 -0.1 4.2 -2.65 5.65 -2.4 6.05 -1.3 6.0 -0.8 M7.45 3.15 L6.95 4.0 6.7 4.65 7.75 5.1 7.35 5.6 Q6.8 7.75 5.0 8.6 4.75 8.8 4.45 8.8 3.45 9.0 2.6 8.45 L2.5 8.3 1.55 7.95 1.15 8.25 0.7 9.25 -1.05 9.25 Q-2.75 9.1 -4.15 8.05 L-4.1 7.45 0.7 7.5 4.45 6.95 6.2 5.6 6.5 4.45 6.0 3.75 6.65 2.85 Q7.1 2.85 7.45 3.15 M-9.2 2.15 L-8.35 2.4 -7.75 3.1 -7.75 3.3 -7.25 3.1 -7.15 3.05 -6.65 2.85 Q-6.2 -1.25 -2.15 -2.9 L-1.3 -2.7 -2.4 -1.95 -2.55 -1.2 -4.6 0.05 -3.7 1.05 -5.45 4.35 -7.75 4.85 -8.5 5.6 -8.65 5.6 -9.3 5.45 Q-10.2 5.2 -10.65 4.5 L-11.1 3.35 -10.45 2.4 -9.6 2.1 -9.2 2.15" fill="#ff0000" fill-rule="evenodd" stroke="none"/>
      <path d="M7.4 -2.8 L7.3 -3.6 8.9 -2.15 Q9.7 -2.0 10.25 -2.8 L10.7 -3.8 10.9 -5.0 11.05 -4.7 Q11.65 -3.2 11.05 -1.75 L10.95 -1.55 10.7 -1.0 8.95 -0.9 Q8.45 -0.9 8.15 -1.25 L7.8 -1.7 7.4 -2.8 M7.65 -5.05 Q8.05 -6.05 9.2 -6.05 L7.65 -5.05 M-8.85 -4.55 L-8.6 -5.0 -8.35 -4.4 Q-7.2 -2.3 -4.85 -3.6 L-4.8 -3.85 -3.9 -3.7 Q-1.95 -4.8 0.35 -5.15 0.7 -3.85 1.85 -3.25 3.6 -2.35 4.35 -4.05 5.8 -3.45 6.25 -2.4 L6.05 -1.3 5.65 -2.4 4.2 -2.65 3.8 -0.1 5.05 0.3 6.0 -0.8 6.1 0.0 Q6.4 1.65 8.05 2.15 L7.45 3.15 Q7.1 2.85 6.65 2.85 L6.0 3.75 6.5 4.45 6.2 5.6 4.45 6.95 0.7 7.5 -4.1 7.45 -4.15 8.05 Q-2.75 9.1 -1.05 9.25 L0.7 9.25 1.15 8.25 1.55 7.95 2.5 8.3 2.6 8.45 Q3.45 9.0 4.45 8.8 4.75 8.8 5.0 8.6 6.8 7.75 7.35 5.6 L7.75 5.1 8.45 4.85 9.2 6.95 9.2 7.35 Q9.2 8.4 7.85 9.15 6.4 9.85 4.45 9.85 L3.75 9.95 2.95 10.05 1.35 10.25 0.85 10.3 0.1 10.3 -0.75 10.3 -4.5 9.95 -5.85 9.55 -6.05 9.5 -6.65 9.3 -7.1 8.5 -6.9 7.5 -7.25 6.6 -9.25 6.4 -9.55 6.75 -9.65 6.75 -10.15 6.75 -10.65 6.4 Q-12.25 5.05 -11.4 3.2 L-10.9 2.8 -10.45 2.4 -11.1 3.35 -10.65 4.5 Q-10.2 5.2 -9.3 5.45 L-8.65 5.6 -8.5 5.6 -7.75 4.85 -5.45 4.35 -3.7 1.05 -4.6 0.05 -2.55 -1.2 -2.4 -1.95 -1.3 -2.7 -2.15 -2.9 Q-6.2 -1.25 -6.65 2.85 L-7.15 3.05 -7.15 1.1 -6.55 -0.7 -6.5 -1.6 -7.7 -1.7 -8.7 -2.1 -8.95 -2.55 -8.85 -4.55 M-4.65 -4.45 L-4.55 -4.45 -4.65 -4.3 -4.65 -4.45 M3.55 5.25 Q4.35 4.1 4.3 2.75 4.25 -0.35 1.05 -0.85 -0.2 -1.1 -1.15 -0.3 -2.15 0.6 -2.2 1.95 -3.85 1.9 -4.55 3.55 -5.35 5.6 -3.35 6.3 L-1.9 6.1 -1.05 5.5 Q0.15 6.1 1.65 6.1 2.85 6.2 3.55 5.25 M-7.75 3.3 L-7.65 3.15 -7.65 3.1 -7.25 3.1 -7.75 3.3" fill="#990000" fill-rule="evenodd" stroke="none"/>
      <path d="M3.55 5.25 Q2.85 6.2 1.65 6.1 0.15 6.1 -1.05 5.5 L-1.9 6.1 -3.35 6.3 Q-5.35 5.6 -4.55 3.55 -3.85 1.9 -2.2 1.95 -2.15 0.6 -1.15 -0.3 -0.2 -1.1 1.05 -0.85 4.25 -0.35 4.3 2.75 4.35 4.1 3.55 5.25" fill="#650101" fill-rule="evenodd" stroke="none"/>
      <path d="M9.5 6.7 L9.2 7.35 9.2 6.95 9.5 6.7" fill="#66cc33" fill-rule="evenodd" stroke="none"/>
      <path d="M-4.55 -4.45 Q-4.35 -5.1 -3.4 -5.65 -2.5 -6.25 -2.3 -8.15 L-0.95 -6.2 2.5 -6.05 Q3.65 -6.6 3.95 -6.5 L4.5 -6.65 5.0 -6.5 Q7.2 -3.7 7.75 -0.25 L7.8 0.1 8.25 0.3 8.65 0.45 8.75 0.5 Q9.95 1.3 10.3 2.65 L10.45 3.5 10.45 4.25 10.0 5.7 9.9 5.75 9.85 5.85 9.5 6.7 9.2 6.95 8.45 4.85 7.75 5.1 6.7 4.65 6.95 4.0 7.45 3.15 8.05 2.15 Q6.4 1.65 6.1 0.0 L6.0 -0.8 6.05 -1.3 6.25 -2.4 Q5.8 -3.45 4.35 -4.05 3.6 -2.35 1.85 -3.25 0.7 -3.85 0.35 -5.15 -1.95 -4.8 -3.9 -3.7 L-4.8 -3.85 -4.65 -4.3 -4.55 -4.45 M-6.65 9.3 Q-8.1 9.2 -9.15 8.05 L-9.6 7.45 -9.55 6.9 -9.65 6.75 -9.55 6.75 -9.25 6.4 -7.25 6.6 -6.9 7.5 -7.1 8.5 -6.65 9.3 M-8.35 2.4 L-8.5 1.6 Q-8.8 -0.25 -7.7 -1.7 L-6.5 -1.6 -6.55 -0.7 -7.15 1.1 -7.15 3.05 -7.25 3.1 -7.65 3.1 -7.65 3.15 -7.75 3.3 -7.75 3.1 -8.35 2.4" fill="#5e3b70" fill-rule="evenodd" stroke="none"/>
    </g>
  </defs>
</svg>
