<?xml version="1.0" encoding="UTF-8" standalone="no"?>
<svg xmlns:ffdec="https://www.free-decompiler.com/flash" xmlns:xlink="http://www.w3.org/1999/xlink" ffdec:objectType="frame" height="44.1px" width="28.6px" xmlns="http://www.w3.org/2000/svg">
  <g transform="matrix(1.0, 0.0, 0.0, 1.0, 16.0, 16.7)">
    <use ffdec:characterId="1503" height="44.1" transform="matrix(1.0, 0.0, 0.0, 1.0, -16.0, -16.7)" width="28.6" xlink:href="#shape0"/>
  </g>
  <defs>
    <g id="shape0" transform="matrix(1.0, 0.0, 0.0, 1.0, 16.0, 16.7)">
      <path d="M-2.0 -13.7 L-2.25 -13.4 -3.35 -13.35 Q-3.2 -13.05 -3.9 -11.9 L-4.1 -11.55 Q-2.05 -12.7 0.6 -12.7 L1.3 -12.65 Q0.75 -12.95 0.05 -13.4 L-0.05 -13.5 3.35 -12.45 3.95 -12.15 5.7 -11.1 5.55 -11.1 Q6.8 -10.1 7.6 -8.45 9.1 -5.25 9.1 0.8 L9.1 1.25 9.4 0.75 10.75 -1.15 Q10.85 1.4 9.6 3.85 L9.8 4.25 9.75 4.65 9.75 5.4 9.85 5.65 9.7 5.6 9.45 6.2 8.55 8.65 8.45 8.9 8.05 10.2 Q7.6 11.7 7.3 13.25 L6.6 13.1 5.25 13.6 2.65 14.45 0.8 13.7 0.45 13.4 0.8 11.55 -1.3 10.7 -2.05 11.65 -3.1 13.6 -4.05 13.1 -5.2 13.8 -4.7 13.2 -4.6 13.1 -4.45 12.65 -4.3 12.15 -3.95 10.6 -5.6 8.95 -5.75 8.5 -4.45 8.65 Q-4.7 3.35 -9.9 1.25 L-10.55 1.0 -10.15 0.7 -10.0 0.15 -11.7 -4.35 -12.2 -4.55 Q-10.0 -6.15 -10.35 -8.65 L-9.3 -9.85 -8.6 -9.5 -8.25 -9.55 -7.65 -9.7 Q-6.4 -10.05 -5.45 -10.85 -4.5 -11.65 -3.9 -12.95 L-3.55 -13.75 -2.0 -13.7 M1.35 -8.1 L2.15 -8.1 2.5 -8.35 4.6 -7.55 4.3 -6.15 5.9 -4.25 5.25 -3.7 5.7 -0.85 2.75 2.0 2.15 2.05 1.6 2.9 0.95 2.8 -0.85 5.2 2.65 4.4 2.4 6.7 0.05 7.15 0.15 7.6 -0.5 7.5 -1.85 6.1 -2.5 6.25 -2.35 8.4 0.5 9.75 4.95 7.8 5.3 7.45 5.8 7.4 6.3 5.5 4.4 6.25 3.85 6.25 6.75 2.1 5.5 1.75 6.35 0.3 8.75 0.85 8.6 -1.1 8.1 -1.1 7.05 -4.3 7.95 -5.25 7.85 -6.05 Q7.6 -7.3 6.6 -8.3 L6.1 -8.85 2.85 -8.5 2.3 -8.8 2.2 -10.9 2.45 -11.25 1.35 -11.45 Q-1.45 -11.85 -4.15 -10.8 L-3.75 -9.95 -0.65 -9.2 -2.25 -9.3 -4.4 -9.45 -4.85 -8.85 Q-6.2 -9.1 -7.15 -8.15 L-7.3 -8.0 -7.95 -7.25 -8.65 -7.2 Q-10.45 -5.2 -10.2 -2.45 L-9.85 -1.0 Q-9.05 0.8 -6.75 0.6 L-6.2 -0.3 -6.55 -1.4 -8.35 -1.8 -8.35 -2.3 -8.75 -3.2 -9.05 -4.35 -7.6 -4.45 -7.2 -5.15 -5.55 -4.9 -5.6 -5.55 -5.2 -6.05 -4.4 -5.65 -4.05 -5.1 -5.2 -4.8 -5.95 -3.8 -5.95 -3.1 -5.15 -3.0 -3.9 -0.8 -3.3 -0.7 -2.65 0.8 -0.9 1.6 -0.55 2.25 0.25 1.85 Q0.4 -0.45 -1.0 -2.2 L-0.25 -3.2 -0.55 -4.3 -1.05 -4.35 -0.75 -4.85 0.55 -4.3 Q1.8 -4.35 2.2 -5.5 L2.15 -5.95 Q2.1 -7.1 1.35 -8.1 M3.5 -4.6 Q0.7 -4.7 0.9 -1.9 L1.0 -1.4 2.3 -0.65 Q2.6 -0.45 2.95 -0.35 L4.6 -2.0 Q4.75 -3.4 3.8 -4.4 L3.5 -4.6 M7.35 15.75 L7.5 17.0 Q6.05 18.8 3.7 17.9 L3.35 17.65 3.05 16.85 3.6 17.25 3.9 17.5 4.25 17.5 Q6.25 17.4 7.35 15.75 M1.6 20.65 L1.85 21.05 2.3 21.8 0.95 23.5 Q-2.4 23.1 -3.4 20.1 L-3.3 19.65 -1.45 19.15 -1.9 16.05 -1.5 15.3 -1.6 16.1 -0.05 17.35 0.4 18.45 0.7 18.5 Q1.3 18.3 1.55 17.75 1.8 18.35 1.4 18.75 L0.65 19.6 1.6 20.65 M-9.1 9.0 L-9.15 8.8 -9.4 8.0 -9.2 7.5 -8.75 8.85 -8.65 8.85 -8.2 8.7 Q-6.1 7.8 -5.95 5.4 L-5.55 6.3 -5.35 6.95 -6.15 7.8 -7.5 9.35 -7.75 9.6 -7.95 9.7 -8.35 9.55 -9.05 9.3 -9.1 9.0 M-9.2 4.3 L-9.55 5.25 -10.05 5.65 -10.6 5.8 -11.0 5.25 -11.25 4.4 -11.65 3.95 Q-10.75 4.6 -9.65 4.65 L-9.6 4.65 -9.2 4.3 M-12.35 3.5 L-13.3 3.85 -14.2 3.6 -14.65 2.7 -14.3 3.15 -12.95 3.1 -12.35 3.5 M-3.25 3.0 L-4.55 1.55 -5.0 3.15 -4.35 4.2 Q-3.65 4.9 -2.65 5.0 L-2.75 4.5 -2.65 3.55 -3.25 3.0 M-14.8 9.65 L-13.35 10.85 -12.05 11.15 Q-11.0 10.85 -10.65 10.05 L-10.6 9.7 -10.45 7.95 Q-9.55 10.15 -11.15 11.5 -11.7 11.95 -12.45 11.8 L-13.3 11.65 Q-14.6 11.15 -14.8 9.65 M-2.9 20.05 L0.85 22.3 1.6 22.05 1.85 21.05 1.05 20.3 -0.45 19.55 Q-2.15 18.95 -2.9 20.05 M3.8 25.9 L4.05 25.7 Q5.95 24.05 7.4 21.85 L8.3 19.95 8.65 21.8 8.05 22.4 8.3 23.2 5.05 27.4 4.95 27.4 4.45 27.3 3.75 26.65 3.8 25.9" fill="#990000" fill-rule="evenodd" stroke="none"/>
      <path d="M-0.65 -9.2 L-3.75 -9.95 -4.15 -10.8 Q-1.45 -11.85 1.35 -11.45 L2.45 -11.25 2.2 -10.9 2.3 -8.8 2.85 -8.5 6.1 -8.85 6.6 -8.3 Q7.6 -7.3 7.85 -6.05 L7.95 -5.25 7.05 -4.3 8.1 -1.1 8.6 -1.1 8.75 0.85 6.35 0.3 5.5 1.75 6.75 2.1 3.85 6.25 4.4 6.25 6.3 5.5 5.8 7.4 5.3 7.45 4.95 7.8 0.5 9.75 -2.35 8.4 -2.5 6.25 -1.85 6.1 -0.5 7.5 0.15 7.6 0.05 7.15 2.4 6.7 2.65 4.4 -0.85 5.2 0.95 2.8 1.6 2.9 2.15 2.05 2.75 2.0 5.7 -0.85 5.25 -3.7 5.9 -4.25 4.3 -6.15 4.6 -7.55 2.5 -8.35 2.15 -8.1 1.35 -8.1 -0.65 -9.2 M-0.75 -4.85 L-1.05 -4.35 -1.4 -4.0 -2.3 -4.0 -3.35 -4.7 -2.0 -4.9 -2.25 -8.7 -1.95 -9.05 Q-0.65 -7.75 -0.7 -5.75 L-0.75 -4.85 M-5.2 -6.05 L-5.6 -5.55 -5.55 -4.9 -7.2 -5.15 -7.6 -4.45 -9.05 -4.35 -8.75 -3.2 -8.35 -2.3 -8.35 -1.8 -6.55 -1.4 -6.2 -0.3 -6.75 0.6 Q-9.05 0.8 -9.85 -1.0 L-10.2 -2.45 Q-10.45 -5.2 -8.65 -7.2 L-7.95 -7.25 -7.3 -8.0 -7.15 -8.15 Q-6.2 -9.1 -4.85 -8.85 L-5.2 -6.05 M-13.55 0.35 L-12.85 0.25 -9.8 2.95 -9.4 3.3 -9.15 3.9 -9.2 4.3 -9.6 4.65 -9.65 4.65 Q-10.75 4.6 -11.65 3.95 L-11.9 3.75 -12.35 3.5 -12.95 3.1 -14.3 3.15 -14.65 2.7 Q-14.75 1.75 -14.1 1.0 L-13.55 0.35 M7.25 15.05 L7.35 15.75 Q6.25 17.4 4.25 17.5 L3.9 17.5 3.6 17.25 3.05 16.85 3.1 16.1 3.75 15.7 Q4.55 15.15 5.5 14.85 L5.9 14.75 7.25 15.05 M-1.5 15.3 L-1.45 15.1 -0.85 14.25 Q0.5 15.05 1.2 16.8 L1.55 17.75 Q1.3 18.3 0.7 18.5 L0.4 18.45 -0.05 17.35 -1.6 16.1 -1.5 15.3 M-9.1 7.45 L-7.8 6.2 -7.65 5.55 -7.45 4.95 -6.3 4.9 -5.95 5.4 Q-6.1 7.8 -8.2 8.7 L-8.65 8.85 -8.75 8.85 -9.2 7.5 -9.1 7.45 M-3.25 3.0 L-2.65 3.55 -2.75 4.5 -2.65 5.0 Q-3.65 4.9 -4.35 4.2 L-5.0 3.15 -4.55 1.55 -3.25 3.0 M-14.8 9.65 Q-14.45 8.4 -13.65 7.35 L-13.4 7.05 -13.05 6.75 Q-11.7 6.45 -10.9 7.4 L-10.45 7.95 -10.6 9.7 -10.65 10.05 Q-11.0 10.85 -12.05 11.15 L-13.35 10.85 -14.8 9.65 M-2.9 20.05 Q-2.15 18.95 -0.45 19.55 L1.05 20.3 1.85 21.05 1.6 22.05 0.85 22.3 -2.9 20.05 M3.8 25.9 L3.6 25.45 4.65 23.65 Q5.4 21.75 5.35 19.65 L7.8 19.65 8.3 19.95 7.4 21.85 Q5.95 24.05 4.05 25.7 L3.8 25.9" fill="#ff0000" fill-rule="evenodd" stroke="none"/>
      <path d="M1.35 -8.1 Q2.1 -7.1 2.15 -5.95 L2.2 -5.5 Q1.8 -4.35 0.55 -4.3 L-0.75 -4.85 -0.7 -5.75 Q-0.65 -7.75 -1.95 -9.05 L-2.25 -9.3 -0.65 -9.2 1.35 -8.1 M-1.05 -4.35 L-0.55 -4.3 -0.25 -3.2 -1.0 -2.2 Q0.4 -0.45 0.25 1.85 L-0.55 2.25 -0.9 1.6 -2.65 0.8 -3.3 -0.7 -3.9 -0.8 -5.15 -3.0 -5.95 -3.1 -5.95 -3.8 -5.2 -4.8 -4.05 -5.1 -3.35 -4.7 -2.3 -4.0 -1.4 -4.0 -1.05 -4.35 M3.5 -4.6 L3.8 -4.4 Q4.75 -3.4 4.6 -2.0 L2.95 -0.35 Q2.6 -0.45 2.3 -0.65 L1.0 -1.4 0.9 -1.9 Q0.7 -4.7 3.5 -4.6" fill="#650101" fill-rule="evenodd" stroke="none"/>
      <path d="M-4.05 -5.1 L-4.4 -5.65 -5.2 -6.05 -4.85 -8.85 -4.4 -9.45 -2.25 -9.3 -1.95 -9.05 -2.25 -8.7 -2.0 -4.9 -3.35 -4.7 -4.05 -5.1" fill="#ffffff" fill-rule="evenodd" stroke="none"/>
      <path d="M-0.05 -13.5 L0.05 -13.4 Q0.75 -12.95 1.3 -12.65 L0.6 -12.7 Q-2.05 -12.7 -4.1 -11.55 L-3.9 -11.9 Q-3.2 -13.05 -3.35 -13.35 L-2.25 -13.4 -2.0 -13.7 Q-1.75 -14.1 -1.75 -14.75 L-0.05 -13.5 M-5.45 -10.85 Q-6.4 -10.05 -7.65 -9.7 -7.25 -10.4 -7.35 -12.1 -6.1 -11.1 -5.45 -10.85 M-9.9 1.25 Q-4.7 3.35 -4.45 8.65 L-5.75 8.5 -6.15 7.8 -5.35 6.95 -5.55 6.3 -5.95 5.4 -6.3 4.9 -7.45 4.95 -7.65 5.55 -8.1 5.2 -9.0 4.0 -9.15 3.9 -9.4 3.3 -9.8 2.95 -9.9 1.25 M-5.6 8.95 L-3.95 10.6 -4.3 12.15 -4.45 12.65 -4.6 13.1 -4.7 13.2 -5.2 13.8 -4.05 13.1 -3.1 13.6 -2.05 11.65 -1.3 10.7 0.8 11.55 0.45 13.4 0.8 13.7 2.65 14.45 5.25 13.6 5.5 14.85 Q4.55 15.15 3.75 15.7 L0.4 14.1 0.0 14.1 -2.85 13.85 -2.95 13.85 -4.2 14.0 -5.65 13.75 -6.35 13.0 -6.5 12.05 -6.55 10.95 -6.9 10.5 -6.8 9.85 -6.45 8.95 -5.6 8.95 M8.05 10.2 L8.45 8.9 8.55 8.65 8.8 8.95 9.9 10.25 9.9 10.4 9.3 10.2 8.8 10.0 8.05 10.2 M9.85 5.65 L9.75 5.4 9.75 4.65 9.8 4.25 Q9.9 2.4 11.2 2.35 L11.3 2.35 Q12.6 2.4 12.6 3.5 L12.3 5.0 Q11.85 6.15 10.9 6.15 L10.45 6.1 9.85 5.65 M10.75 -1.15 L9.4 0.75 9.1 1.25 9.1 0.8 Q9.1 -5.25 7.6 -8.45 6.8 -10.1 5.55 -11.1 L5.7 -11.1 8.5 -10.75 8.5 -8.85 Q8.6 -8.05 9.2 -7.8 9.3 -8.9 10.3 -8.9 L10.4 -8.9 Q11.6 -8.85 11.6 -7.35 L11.45 -6.65 Q11.15 -6.15 10.25 -6.15 L9.8 -6.2 Q10.15 -5.4 10.8 -4.85 L12.25 -4.05 12.4 -3.95 12.0 -3.2 11.25 -1.9 10.75 -1.15" fill="#9c4d4d" fill-rule="evenodd" stroke="none"/>
      <path d="M-2.0 -13.7 L-3.55 -13.75 -3.9 -12.95 Q-4.5 -11.65 -5.45 -10.85 -6.1 -11.1 -7.35 -12.1 -7.25 -10.4 -7.65 -9.7 L-8.25 -9.55 -8.6 -9.5 -9.3 -9.85 -10.35 -8.65 Q-10.0 -6.15 -12.2 -4.55 L-11.7 -4.35 -10.0 0.15 -10.15 0.7 -10.55 1.0 -9.9 1.25 -9.8 2.95 -12.85 0.25 -13.55 0.35 -14.0 -0.15 -14.0 -0.25 -14.15 -0.4 Q-14.95 -1.1 -15.85 -1.35 L-16.0 -1.35 Q-15.2 -1.5 -14.9 -2.4 -14.55 -3.4 -13.9 -3.7 L-13.85 -3.75 Q-12.95 -4.05 -12.65 -4.4 -12.35 -4.85 -12.35 -6.0 -12.35 -7.3 -13.0 -8.4 L-14.5 -10.0 -12.05 -10.2 -11.05 -11.1 Q-10.7 -11.8 -10.5 -12.85 L-9.5 -12.3 -9.2 -12.1 -9.1 -11.95 -8.8 -11.6 -8.55 -11.75 -7.4 -12.8 -5.65 -14.4 Q-4.7 -15.5 -3.9 -16.7 -3.05 -15.8 -2.0 -15.35 L0.25 -14.85 Q7.0 -14.05 10.3 -8.9 9.3 -8.9 9.2 -7.8 8.6 -8.05 8.5 -8.85 L8.5 -10.75 5.7 -11.1 3.95 -12.15 3.35 -12.45 -0.05 -13.5 -1.75 -14.75 Q-1.75 -14.1 -2.0 -13.7 M5.25 13.6 L6.6 13.1 7.3 13.25 Q7.6 11.7 8.05 10.2 L8.8 10.0 9.3 10.2 9.9 10.4 9.9 10.25 8.8 8.95 8.55 8.65 9.45 6.2 9.7 5.6 9.85 5.65 10.45 6.1 10.5 6.2 10.6 8.9 Q10.15 12.95 7.25 15.05 L5.9 14.75 5.5 14.85 5.25 13.6 M9.8 4.25 L9.6 3.85 Q10.85 1.4 10.75 -1.15 L11.25 -1.9 12.0 -3.2 12.0 -3.1 12.4 -3.95 12.4 -3.25 Q12.15 0.1 11.3 2.35 L11.2 2.35 Q9.9 2.4 9.8 4.25 M11.45 -6.65 L11.95 -5.35 12.4 -5.05 12.25 -4.05 10.8 -4.85 Q10.15 -5.4 9.8 -6.2 L10.25 -6.15 Q11.15 -6.15 11.45 -6.65 M3.05 16.85 L2.85 16.9 2.95 17.95 Q2.9 18.5 2.45 19.1 L2.75 20.35 2.1 20.6 1.6 20.65 0.65 19.6 1.4 18.75 Q1.8 18.35 1.55 17.75 L1.2 16.8 Q0.5 15.05 -0.85 14.25 L-1.45 15.1 -2.75 15.05 -2.95 16.1 Q-4.95 16.3 -6.45 15.05 L-5.65 14.2 -6.1 13.95 -6.35 13.0 -5.65 13.75 -4.2 14.0 -2.95 13.85 -2.85 13.85 0.0 14.1 0.4 14.1 3.75 15.7 3.1 16.1 3.05 16.85 M-4.15 21.35 L-3.5 21.35 -2.65 22.15 -3.1 24.2 -3.7 23.9 Q-4.7 23.4 -4.75 22.25 L-4.15 21.35" fill="#a01b1b" fill-rule="evenodd" stroke="none"/>
      <path d="M-6.35 13.0 L-7.1 12.5 -9.2 12.5 -9.05 10.15 -9.1 9.0 -9.05 9.3 -8.35 9.55 -7.9 10.4 -6.5 12.05 -6.35 13.0 M-9.15 8.8 Q-9.35 8.25 -9.75 8.15 -9.45 7.8 -9.45 6.9 L-9.5 5.8 -9.1 7.45 -9.2 7.5 -9.4 8.0 -9.15 8.8" fill="#a1a1a1" fill-rule="evenodd" stroke="none"/>
    </g>
  </defs>
</svg>
