<?xml version="1.0" encoding="UTF-8" standalone="no"?>
<svg xmlns:ffdec="https://www.free-decompiler.com/flash" xmlns:xlink="http://www.w3.org/1999/xlink" ffdec:objectType="frame" height="48.5px" width="55.0px" xmlns="http://www.w3.org/2000/svg">
  <g transform="matrix(1.0, 0.0, 0.0, 1.0, 4.5, 1.5)">
    <use ffdec:characterId="2783" height="48.5" transform="matrix(1.0, 0.0, 0.0, 1.0, -4.5, -1.5)" width="55.0" xlink:href="#shape0"/>
  </g>
  <defs>
    <g id="shape0" transform="matrix(1.0, 0.0, 0.0, 1.0, 4.5, 1.5)">
      <path d="M47.5 -1.5 L47.5 2.75 47.5 4.0 47.5 38.0 44.0 38.0 44.0 4.0 39.0 4.0 -2.5 4.0 -2.5 0.0 -2.5 -1.5 39.0 -1.5 44.0 -1.5 47.5 -1.5 M50.5 47.0 L-4.5 47.0 -4.5 42.0 50.5 42.0 50.5 45.45 50.5 47.0" fill="#8d9193" fill-rule="evenodd" stroke="none"/>
    </g>
  </defs>
</svg>
