<?xml version="1.0" encoding="UTF-8" standalone="no"?>
<svg xmlns:ffdec="https://www.free-decompiler.com/flash" xmlns:xlink="http://www.w3.org/1999/xlink" ffdec:objectType="frame" height="400.0px" width="36.0px" xmlns="http://www.w3.org/2000/svg">
  <g transform="matrix(1.0, 0.0, 0.0, 1.0, 18.0, 200.0)">
    <use ffdec:characterId="2589" height="400.0" transform="matrix(1.0, 0.0, 0.0, 1.0, -18.0, -200.0)" width="36.0" xlink:href="#shape0"/>
  </g>
  <defs>
    <g id="shape0" transform="matrix(1.0, 0.0, 0.0, 1.0, 18.0, 200.0)">
      <path d="M3.75 -198.5 L10.55 -198.5 9.15 -197.5 3.75 -198.5 M12.3 -198.5 L13.9 -198.5 13.95 -198.0 12.3 -198.5 M-15.4 -117.35 L-15.35 -117.05 -15.5 -116.2 -15.4 -117.35" fill="#616648" fill-rule="evenodd" stroke="none"/>
      <path d="M-13.8 -176.1 L-11.5 -192.95 -9.85 -185.35 -9.8 -194.8 -6.25 -197.0 -5.35 -191.85 -4.9 -197.55 -1.65 -198.5 -2.25 -194.9 -0.25 -193.35 -4.4 -189.0 -5.85 -189.75 -7.35 -188.9 Q-8.7 -183.35 -12.05 -178.45 L-13.8 -176.1 M5.65 196.65 L-8.4 197.5 -11.55 196.85 -4.0 195.15 -2.4 196.6 2.05 194.65 5.65 196.65" fill="#948163" fill-rule="evenodd" stroke="none"/>
      <path d="M10.55 -198.5 L3.75 -198.5 -1.15 -199.1 -1.65 -198.5 -4.9 -197.55 -5.35 -191.85 -6.25 -197.0 -9.8 -194.8 -9.85 -185.35 -11.5 -192.95 -13.8 -176.1 -15.25 -167.55 -18.0 -161.1 -18.0 -200.0 -15.0 -199.9 -14.1 -198.5 -13.5 -198.45 -12.45 -198.95 -12.1 -199.4 -11.8 -200.0 -8.85 -199.8 -6.9 -199.1 -6.3 -200.0 15.05 -199.6 15.5 -200.0 18.0 -200.0 18.0 -193.4 Q17.95 -195.3 16.85 -196.6 15.65 -198.0 13.95 -198.0 L13.9 -198.5 12.3 -198.5 10.55 -198.5 M5.65 196.65 L7.15 197.55 Q13.05 200.45 18.0 196.1 L17.45 199.05 17.05 200.0 3.4 199.3 2.1 199.2 1.1 199.35 0.55 200.0 -10.3 200.0 Q-10.95 199.65 -11.6 199.45 L-12.25 199.3 -13.05 199.5 -13.9 200.0 -18.0 200.0 -18.0 195.5 -17.15 197.95 -11.55 196.85 -8.4 197.5 5.65 196.65" fill="#cfbba0" fill-rule="evenodd" stroke="none"/>
      <path d="M10.55 -198.5 L12.3 -198.5 13.95 -198.0 Q15.65 -198.0 16.85 -196.6 17.95 -195.3 18.0 -193.4 L18.0 -190.8 17.0 -190.4 15.4 -193.15 15.65 -194.3 14.15 -196.7 11.0 -196.3 11.45 -195.6 7.9 -194.7 Q6.45 -177.65 8.95 -160.75 7.35 -158.55 6.5 -155.85 5.85 -153.8 5.9 -151.7 L7.0 -151.6 8.35 -156.2 11.0 -155.65 13.7 -150.45 14.2 -150.8 14.05 -147.9 12.35 -147.25 11.25 -147.15 9.0 -144.75 8.4 -144.6 Q4.85 -131.7 5.3 -118.4 6.1 -95.95 6.55 -73.5 L6.6 -71.7 -0.75 -68.5 -0.1 -67.0 7.2 -66.7 7.4 -53.4 8.0 -53.6 7.3 -52.85 6.5 -47.85 5.05 -57.6 Q5.15 -33.2 6.55 -8.85 L7.75 10.05 11.0 1.5 7.25 30.55 8.0 30.75 9.8 23.05 Q12.4 28.3 11.75 33.55 9.55 50.9 9.0 68.5 L7.05 63.95 Q4.45 82.1 6.55 100.35 L7.7 108.7 Q3.8 108.65 1.05 111.4 L-0.1 112.7 8.1 112.5 8.85 118.15 7.6 118.1 6.0 115.5 5.8 118.4 -6.0 124.4 Q-7.7 111.25 -7.15 98.05 L-6.9 90.8 -8.05 91.25 -9.5 91.45 -11.5 90.85 -11.35 89.4 -13.0 88.5 -10.85 87.75 -10.35 86.8 -8.85 88.6 -6.7 87.6 -2.35 -4.6 -8.35 34.6 -7.35 -13.0 0.5 -11.25 1.3 -11.75 -7.3 -15.85 -5.1 -30.5 -6.2 -30.5 Q-1.65 -52.0 -5.25 -73.5 L-6.55 -80.15 -9.1 -82.25 -7.2 -84.15 -9.45 -98.9 -10.5 -98.25 -12.15 -100.25 Q-13.1 -101.5 -13.1 -102.95 L-13.1 -104.35 -9.9 -105.8 -7.25 -121.95 -7.25 -122.05 -6.1 -127.95 -8.85 -125.6 -9.0 -126.9 Q-5.6 -151.45 -5.1 -177.9 L-8.15 -173.85 -7.7 -180.0 -13.75 -170.95 -15.25 -165.85 -15.25 -167.55 -13.8 -176.1 -12.05 -178.45 Q-8.7 -183.35 -7.35 -188.9 L-5.85 -189.75 -4.4 -189.0 -0.25 -193.35 -2.25 -194.9 -1.65 -198.5 -1.15 -199.1 3.75 -198.5 9.15 -197.5 10.55 -198.5 M13.7 194.45 L18.0 196.1 Q13.05 200.45 7.15 197.55 L5.65 196.65 2.05 194.65 -2.4 196.6 -4.0 195.15 -11.55 196.85 -17.15 197.95 -18.0 195.5 -13.4 194.35 -8.85 192.85 Q-10.0 178.0 -8.4 163.15 L-3.25 177.3 Q-5.45 163.65 -4.35 149.8 -3.35 137.35 -5.9 125.25 -0.85 126.15 3.95 124.5 L5.2 123.95 4.35 142.1 6.35 143.05 6.45 143.95 Q7.1 147.75 10.8 148.9 L11.75 149.05 11.35 149.7 5.4 148.95 Q9.45 161.9 9.0 175.5 L6.5 157.5 Q5.4 176.75 8.65 195.75 L13.7 194.45" fill="#392a15" fill-rule="evenodd" stroke="none"/>
      <path d="M14.15 -196.7 L14.5 -175.6 13.05 -189.6 12.85 -185.15 12.9 -155.95 13.55 -155.2 Q14.8 -153.6 14.8 -152.55 L14.5 -151.15 14.2 -150.8 13.7 -150.45 11.0 -155.65 8.35 -156.2 7.0 -151.6 5.9 -151.7 Q5.85 -153.8 6.5 -155.85 7.35 -158.55 8.95 -160.75 6.45 -177.65 7.9 -194.7 L11.45 -195.6 11.0 -196.3 14.15 -196.7 M12.35 -147.25 Q8.7 -122.25 8.5 -96.85 L11.4 -115.85 Q12.4 -110.75 12.8 -105.45 13.75 -92.3 11.75 -79.35 L14.05 -85.55 13.95 -73.5 Q13.35 -38.65 10.75 -3.85 L14.3 -28.35 Q16.35 10.5 15.2 49.35 L13.0 41.7 Q12.45 46.35 13.05 50.85 16.35 76.55 13.6 102.45 L9.0 85.5 Q15.3 111.25 13.45 137.8 L7.85 135.05 8.0 136.2 8.15 136.7 8.45 137.1 9.35 138.05 10.1 138.7 10.9 139.15 12.75 140.05 12.95 142.9 13.35 143.35 13.65 143.85 13.85 144.45 13.9 145.25 13.85 146.15 13.65 146.85 13.3 147.45 12.9 148.0 12.55 158.4 Q11.7 176.4 13.7 194.45 L8.65 195.75 Q5.4 176.75 6.5 157.5 L9.0 175.5 Q9.45 161.9 5.4 148.95 L11.35 149.7 11.75 149.05 10.8 148.9 Q7.1 147.75 6.45 143.95 L6.35 143.05 4.35 142.1 5.2 123.95 10.75 121.3 10.6 119.5 8.85 118.15 8.1 112.5 Q10.3 112.4 11.5 111.8 12.65 111.2 12.45 110.4 12.25 109.6 10.8 109.15 9.3 108.65 7.7 108.7 L6.55 100.35 Q4.45 82.1 7.05 63.95 L9.0 68.5 Q9.55 50.9 11.75 33.55 12.4 28.3 9.8 23.05 L8.0 30.75 7.25 30.55 11.0 1.5 7.75 10.05 6.55 -8.85 Q5.15 -33.2 5.05 -57.6 L6.5 -47.85 7.3 -52.85 8.0 -53.6 7.4 -53.4 7.2 -66.7 9.65 -66.6 9.5 -67.5 Q8.9 -70.05 6.6 -71.7 L6.55 -73.5 Q6.1 -95.95 5.3 -118.4 4.85 -131.7 8.4 -144.6 L9.0 -144.75 11.25 -147.15 12.35 -147.25 M-7.3 -15.85 L-8.8 -15.65 Q-9.5 -15.4 -9.75 -14.95 -10.05 -14.5 -9.8 -14.0 L-8.85 -13.25 -7.35 -13.0 -8.35 34.6 -2.35 -4.6 -6.7 87.6 -8.85 88.6 -10.35 86.8 -10.85 87.75 -13.0 88.5 -11.35 89.4 -11.5 90.85 -9.5 91.45 -8.05 91.25 -6.9 90.8 -7.15 98.05 Q-7.7 111.25 -6.0 124.4 L-5.9 125.25 Q-3.35 137.35 -4.35 149.8 -5.45 163.65 -3.25 177.3 L-8.4 163.15 Q-10.0 178.0 -8.85 192.85 L-13.4 194.35 Q-14.45 179.3 -13.4 164.25 L-13.05 159.9 -11.0 172.05 Q-11.3 149.45 -13.9 126.75 L-9.25 147.55 Q-10.65 124.25 -15.35 101.5 -16.35 96.6 -15.65 91.65 -14.35 82.65 -6.35 77.55 L-7.55 77.6 -8.7 77.75 -9.75 78.15 Q-10.8 78.55 -11.7 79.15 L-12.6 79.75 -14.35 81.25 -12.85 33.8 -15.4 46.0 -15.5 -4.3 -15.6 -7.65 Q-15.7 -9.3 -16.1 -10.9 L-17.75 -17.4 -15.15 -16.45 -14.95 -15.9 -14.3 -25.75 -11.65 -17.95 -11.75 -20.55 -12.05 -23.25 -13.15 -28.55 Q-13.45 -29.85 -13.9 -31.15 L-12.5 -32.25 -13.7 -34.05 -12.25 -67.55 Q-11.2 -62.9 -10.55 -58.15 -9.9 -53.5 -9.65 -48.75 -9.4 -61.1 -10.7 -73.5 L-11.7 -81.15 Q-14.1 -97.1 -15.75 -113.15 L-14.0 -115.75 -12.5 -117.5 -10.9 -119.15 -7.25 -121.95 -9.9 -105.8 -13.1 -104.35 -13.1 -102.95 Q-13.1 -101.5 -12.15 -100.25 L-10.5 -98.25 -9.45 -98.9 -7.2 -84.15 -9.1 -82.25 -6.55 -80.15 -5.25 -73.5 Q-1.65 -52.0 -6.2 -30.5 L-5.1 -30.5 -7.3 -15.85 M5.8 118.4 L6.0 115.5 7.6 118.1 5.8 118.4 M-13.75 -170.95 L-7.7 -180.0 -8.15 -173.85 -5.1 -177.9 Q-5.6 -151.45 -9.0 -126.9 L-8.85 -125.6 -6.1 -127.95 -7.25 -122.05 -7.3 -122.1 -7.5 -122.25 -7.75 -122.3 -8.5 -122.45 -9.5 -122.5 -10.25 -122.4 -11.1 -122.2 -11.95 -121.85 -12.85 -121.4 Q-15.9 -127.6 -13.55 -136.1 -10.2 -148.2 -8.65 -160.6 L-7.85 -167.6 -13.05 -142.75 -13.75 -170.95" fill="#4e3322" fill-rule="evenodd" stroke="none"/>
      <path d="M-18.0 -161.1 L-15.25 -167.55 -15.25 -165.85 -13.75 -170.95 -13.05 -142.75 -7.85 -167.6 -8.65 -160.6 Q-10.2 -148.2 -13.55 -136.1 -15.9 -127.6 -12.85 -121.4 L-11.95 -121.85 -11.1 -122.2 -10.25 -122.4 -9.5 -122.5 -8.5 -122.45 -7.75 -122.3 -7.5 -122.25 -7.3 -122.1 -7.25 -122.05 -7.25 -121.95 -10.9 -119.15 -12.5 -117.5 -14.0 -115.75 -15.75 -113.15 Q-14.1 -97.1 -11.7 -81.15 L-10.7 -73.5 Q-9.4 -61.1 -9.65 -48.75 -9.9 -53.5 -10.55 -58.15 -11.2 -62.9 -12.25 -67.55 L-13.7 -34.05 -12.5 -32.25 -13.9 -31.15 Q-13.45 -29.85 -13.15 -28.55 L-12.05 -23.25 -11.75 -20.55 -11.65 -17.95 -14.3 -25.75 -14.95 -15.9 -15.15 -16.45 -17.75 -17.4 -16.1 -10.9 Q-15.7 -9.3 -15.6 -7.65 L-15.5 -4.3 -15.4 46.0 -12.85 33.8 -14.35 81.25 -12.6 79.75 -11.7 79.15 Q-10.8 78.55 -9.75 78.15 L-8.7 77.75 -7.55 77.6 -6.35 77.55 Q-14.35 82.65 -15.65 91.65 -16.35 96.6 -15.35 101.5 -10.65 124.25 -9.25 147.55 L-13.9 126.75 Q-11.3 149.45 -11.0 172.05 L-13.05 159.9 -13.4 164.25 Q-14.45 179.3 -13.4 194.35 L-18.0 195.5 -18.0 -161.1 M14.15 -196.7 L15.65 -194.3 15.4 -193.15 17.0 -190.4 18.0 -190.8 18.0 196.1 13.7 194.45 Q11.7 176.4 12.55 158.4 L12.9 148.0 13.3 147.45 13.65 146.85 13.85 146.15 13.9 145.25 13.85 144.45 13.65 143.85 13.35 143.35 12.95 142.9 12.75 140.05 10.9 139.15 10.1 138.7 9.35 138.05 8.45 137.1 8.15 136.7 8.0 136.2 7.85 135.05 13.45 137.8 Q15.3 111.25 9.0 85.5 L13.6 102.45 Q16.35 76.55 13.05 50.85 12.45 46.35 13.0 41.7 L15.2 49.35 Q16.35 10.5 14.3 -28.35 L10.75 -3.85 Q13.35 -38.65 13.95 -73.5 L14.05 -85.55 11.75 -79.35 Q13.75 -92.3 12.8 -105.45 12.4 -110.75 11.4 -115.85 L8.5 -96.85 Q8.7 -122.25 12.35 -147.25 L14.05 -147.9 14.2 -150.8 14.5 -151.15 14.8 -152.55 Q14.8 -153.6 13.55 -155.2 L12.9 -155.95 12.85 -185.15 13.05 -189.6 14.5 -175.6 14.15 -196.7 M6.6 -71.7 Q8.9 -70.05 9.5 -67.5 L9.65 -66.6 7.2 -66.7 -0.1 -67.0 -0.75 -68.5 6.6 -71.7 M7.7 108.7 Q9.3 108.65 10.8 109.15 12.25 109.6 12.45 110.4 12.65 111.2 11.5 111.8 10.3 112.4 8.1 112.5 L-0.1 112.7 1.05 111.4 Q3.8 108.65 7.7 108.7 M8.85 118.15 L10.6 119.5 10.75 121.3 5.2 123.95 3.95 124.5 Q-0.85 126.15 -5.9 125.25 L-6.0 124.4 5.8 118.4 7.6 118.1 8.85 118.15 M-7.3 -15.85 L1.3 -11.75 0.5 -11.25 -7.35 -13.0 -8.85 -13.25 -9.8 -14.0 Q-10.05 -14.5 -9.75 -14.95 -9.5 -15.4 -8.8 -15.65 L-7.3 -15.85 M-15.4 -117.35 L-15.5 -116.2 -15.35 -117.05 -15.4 -117.35" fill="#5b4434" fill-rule="evenodd" stroke="none"/>
    </g>
  </defs>
</svg>
