<?xml version="1.0" encoding="UTF-8" standalone="no"?>
<svg xmlns:ffdec="https://www.free-decompiler.com/flash" xmlns:xlink="http://www.w3.org/1999/xlink" ffdec:objectType="frame" height="16.8px" width="21.7px" xmlns="http://www.w3.org/2000/svg">
  <g transform="matrix(1.0, 0.0, 0.0, 1.0, 10.35, 8.45)">
    <use ffdec:characterId="2151" height="16.8" transform="matrix(1.0, 0.0, 0.0, 1.0, -10.35, -8.45)" width="21.7" xlink:href="#shape0"/>
  </g>
  <defs>
    <g id="shape0" transform="matrix(1.0, 0.0, 0.0, 1.0, 10.35, 8.45)">
      <path d="M0.35 -1.5 L0.4 -0.95 -0.7 -0.4 -2.0 -0.8 -2.05 -2.1 -1.7 -1.4 -0.2 -1.2 0.35 -1.5 M5.25 -3.75 L2.15 -3.5 0.65 -4.7 -0.85 -4.9 -5.05 -2.5 -6.05 -2.55 -3.6 -3.4 -7.9 -3.5 -7.3 -5.45 Q-5.15 -5.65 -3.35 -6.9 L-2.5 -7.55 -3.7 -8.3 -0.4 -7.35 -4.35 -5.65 -3.95 -5.5 Q-0.55 -6.35 2.65 -5.05 L5.25 -3.75 M-6.55 -2.25 Q-7.05 -1.9 -7.55 -1.65 L-7.8 -1.55 -8.5 -0.5 -8.55 0.45 -4.45 4.45 -3.95 4.4 -3.1 5.4 -3.5 5.6 -6.25 4.65 -8.2 3.55 Q-8.35 3.75 -8.7 3.75 L-8.75 3.75 Q-10.25 3.7 -10.35 2.2 -10.35 -0.35 -8.95 -2.15 L-8.9 -1.85 -8.75 -1.75 -8.35 -1.65 -6.55 -2.35 -6.05 -2.55 -6.55 -2.25 M-4.1 3.25 L-4.1 2.7 Q-4.1 1.55 -3.2 1.0 -3.0 3.1 -1.1 2.55 L0.0 2.25 0.1 3.4 -0.35 4.0 -1.9 4.1 -3.85 3.6 -4.1 3.25 M-0.3 5.7 L1.4 5.6 1.65 6.0 2.7 6.25 2.4 6.6 1.9 7.15 -0.15 7.15 -1.15 7.15 -2.05 6.75 -1.7 6.1 -0.85 6.25 -0.3 5.7" fill="#990000" fill-rule="evenodd" stroke="none"/>
      <path d="M0.35 -1.5 L0.5 -2.35 Q-0.25 -2.95 -1.05 -3.0 L-1.7 -2.95 -2.05 -2.1 -2.0 -0.8 -0.7 -0.4 0.4 -0.95 0.35 -1.5 M-5.05 -2.5 L-0.85 -4.9 0.65 -4.7 2.15 -3.5 5.25 -3.75 5.9 -3.25 6.7 -3.3 6.25 -2.05 5.75 -0.65 5.75 -0.2 6.55 -1.75 6.6 -1.9 6.9 -2.7 7.35 -3.4 7.8 -3.45 8.8 -3.65 8.65 -3.4 Q8.1 -3.2 7.65 -2.6 L9.55 -2.95 10.55 -2.9 11.25 -3.0 11.2 -2.7 10.45 -1.9 9.85 -1.0 9.9 -0.9 10.05 -0.05 9.8 1.15 Q9.65 1.95 9.05 2.2 L7.85 2.55 7.65 2.55 7.6 2.65 5.9 2.1 6.2 1.3 5.95 1.15 Q5.5 1.65 4.15 2.15 L1.55 2.5 1.55 2.6 Q1.75 2.65 2.0 2.85 L3.05 3.05 Q4.65 3.05 5.5 2.5 L6.15 4.2 6.05 4.25 Q4.05 6.25 2.4 6.6 L2.7 6.25 1.65 6.0 1.4 5.6 -0.3 5.7 -0.55 4.9 -1.9 4.1 -0.35 4.0 0.1 3.4 0.0 2.25 0.1 1.65 0.1 1.1 -3.2 1.0 Q-4.1 1.55 -4.1 2.7 L-4.1 3.25 -8.55 0.45 -8.5 -0.5 -7.8 -1.55 -7.55 -1.65 Q-7.05 -1.9 -6.55 -2.25 L-6.55 -2.0 -6.15 -1.3 -4.05 -0.8 -5.05 -2.5 M-1.15 7.2 L-1.15 7.15 -0.15 7.15 -1.1 7.2 -1.15 7.2" fill="#ffcc99" fill-rule="evenodd" stroke="none"/>
      <path d="M-2.05 -2.1 L-1.7 -2.95 -1.05 -3.0 Q-0.25 -2.95 0.5 -2.35 L0.35 -1.5 -0.2 -1.2 -1.7 -1.4 -2.05 -2.1 M-8.55 0.45 L-4.1 3.25 -3.85 3.6 -1.9 4.1 -0.55 4.9 -0.3 5.7 -0.85 6.25 -1.7 6.1 -2.05 6.75 -3.6 6.45 -4.0 5.8 Q-5.1 5.25 -6.25 4.65 L-3.5 5.6 -3.1 5.4 -3.95 4.4 -4.45 4.45 -8.55 0.45 M-3.2 1.0 L0.1 1.1 0.1 1.65 0.0 2.25 -1.1 2.55 Q-3.0 3.1 -3.2 1.0 M7.8 -3.45 L7.35 -3.4 6.7 -3.3 5.9 -3.25 5.25 -3.75 2.65 -5.05 Q-0.55 -6.35 -3.95 -5.5 L-4.35 -5.65 -0.4 -7.35 Q4.55 -8.35 7.25 -4.4 L7.8 -3.45 M-3.7 -8.3 L-2.5 -7.55 -3.35 -6.9 Q-5.15 -5.65 -7.3 -5.45 L-6.0 -7.9 -5.65 -8.15 -3.7 -8.3 M-7.9 -3.5 L-3.6 -3.4 -6.05 -2.55 -6.55 -2.35 -8.35 -1.65 -8.75 -1.75 -8.9 -1.85 -8.95 -2.15 -8.95 -2.25 Q-8.95 -2.95 -7.9 -3.5" fill="#ff0000" fill-rule="evenodd" stroke="none"/>
      <path d="M-8.75 3.75 L-8.7 3.75 Q-8.35 3.75 -8.2 3.55 L-6.25 4.65 Q-5.1 5.25 -4.0 5.8 L-3.6 6.45 -2.05 6.75 -1.15 7.15 -1.15 7.2 -1.35 8.35 -2.7 7.55 -6.45 7.65 -6.35 6.0 -8.5 4.85 -8.75 3.75" fill="#650101" fill-rule="evenodd" stroke="none"/>
      <path d="M8.65 -3.4 L8.8 -3.65 9.8 -3.85 8.65 -3.4 M10.45 -4.1 L10.85 -4.25 10.85 -4.2 10.45 -4.1" fill="#d74242" fill-rule="evenodd" stroke="none"/>
      <path d="M11.25 -3.0 L10.55 -2.9 9.55 -2.95 7.65 -2.6 Q8.1 -3.2 8.65 -3.4 L9.8 -3.85 10.0 -3.9 10.35 -4.05 10.45 -4.1 10.85 -4.2 11.2 -3.95 11.35 -3.35 11.25 -3.0" fill="#e68888" fill-rule="evenodd" stroke="none"/>
      <path d="M-5.05 -2.5 L-4.05 -0.8 -6.15 -1.3 -6.55 -2.0 -6.55 -2.25 -6.05 -2.55 -5.05 -2.5 M6.15 4.2 L5.5 2.5 Q4.65 3.05 3.05 3.05 L2.0 2.85 Q1.75 2.65 1.55 2.6 L1.55 2.5 4.15 2.15 Q5.5 1.65 5.95 1.15 L6.2 1.3 5.9 2.1 7.6 2.65 7.35 2.85 6.15 4.2 M7.35 -3.4 L6.9 -2.7 6.6 -1.9 6.55 -1.75 5.75 -0.2 5.75 -0.65 6.25 -2.05 6.7 -3.3 7.35 -3.4" fill="#ebbb98" fill-rule="evenodd" stroke="none"/>
    </g>
  </defs>
</svg>
