<?xml version="1.0" encoding="UTF-8" standalone="no"?>
<svg xmlns:ffdec="https://www.free-decompiler.com/flash" xmlns:xlink="http://www.w3.org/1999/xlink" ffdec:objectType="frame" height="37.6px" width="14.25px" xmlns="http://www.w3.org/2000/svg">
  <g transform="matrix(1.0, 0.0, 0.0, 1.0, 7.5, 20.0)">
    <use ffdec:characterId="1260" height="37.25" transform="matrix(1.0, 0.0, 0.0, 1.0, -7.5, -20.0)" width="14.25" xlink:href="#shape0"/>
  </g>
  <defs>
    <g id="shape0" transform="matrix(1.0, 0.0, 0.0, 1.0, 7.5, 20.0)">
      <path d="M0.5 -12.55 L0.5 -11.0 1.65 -9.75 1.8 -9.55 Q2.35 -8.75 2.05 -7.95 L2.2 -7.1 3.0 -3.5 Q3.75 -3.7 3.95 -4.1 L4.0 -5.25 3.5 -8.5 4.75 -8.5 5.9 -6.35 6.35 -2.05 5.8 9.95 5.7 10.3 4.7 13.3 Q4.7 13.75 2.8 15.55 0.85 17.3 -1.05 17.25 -3.0 17.15 -4.55 15.1 L-5.7 13.25 -5.7 13.2 -6.0 11.35 -6.05 11.25 Q-6.45 7.5 -6.15 2.6 L-6.1 1.95 -6.25 -2.35 -6.5 -4.55 -6.95 -9.25 -6.75 -9.05 -6.3 -9.4 Q-6.55 -10.1 -6.2 -11.2 -5.75 -12.5 -4.8 -12.5 -4.25 -12.5 -3.85 -11.6 -3.55 -10.9 -2.85 -10.75 L-3.5 -10.8 Q-4.5 -10.8 -4.8 -10.45 L-5.0 -9.65 -5.0 -9.35 -5.0 -8.8 -4.7 -7.5 Q-4.15 -6.25 -2.85 -6.25 -2.2 -6.25 -1.7 -7.2 -1.3 -8.0 -1.3 -8.75 L-1.5 -11.3 -0.65 -11.85 0.5 -12.55 M6.2 -7.95 Q4.4 -8.7 4.0 -10.5 L3.55 -11.6 3.8 -11.5 4.5 -11.0 Q5.95 -11.0 6.5 -11.6 L6.6 -10.05 6.6 -9.95 6.2 -7.95 M-3.1 -5.6 L-3.1 -5.5 -3.05 -5.55 -3.1 -5.6" fill="#ffcc99" fill-rule="evenodd" stroke="none"/>
      <path d="M3.8 -17.1 L3.75 -16.7 Q3.75 -15.65 3.05 -15.4 2.45 -15.15 2.0 -14.75 L1.85 -14.9 1.85 -14.95 2.4 -15.65 2.25 -17.45 2.5 -17.4 3.8 -17.1 M-1.05 -17.95 L-1.25 -18.1 -1.05 -18.05 -1.05 -17.95 M-2.75 -18.05 L-3.4 -17.55 -1.5 -15.85 0.1 -14.7 1.35 -13.2 1.5 -13.0 0.5 -12.55 -0.65 -11.85 -1.5 -11.3 -1.3 -8.75 Q-1.3 -8.0 -1.7 -7.2 -2.2 -6.25 -2.85 -6.25 -4.15 -6.25 -4.7 -7.5 L-5.0 -8.8 -5.0 -9.35 Q-4.9 -7.9 -3.5 -7.9 -1.8 -7.9 -1.8 -9.8 -1.7 -10.55 -2.75 -10.75 L-2.85 -10.75 Q-3.55 -10.9 -3.85 -11.6 -4.25 -12.5 -4.8 -12.5 -5.75 -12.5 -6.2 -11.2 -6.55 -10.1 -6.3 -9.4 L-6.75 -9.05 -6.95 -9.25 Q-7.3 -9.85 -7.3 -10.8 L-7.5 -12.75 -7.3 -13.3 -7.3 -13.25 -7.0 -12.05 -6.7 -13.1 Q-6.35 -14.0 -5.75 -14.0 -5.5 -14.0 -4.6 -13.2 -3.7 -12.4 -2.35 -12.4 -1.95 -12.4 -1.8 -12.55 L-1.75 -13.0 -2.7 -13.9 -4.05 -14.65 Q-3.8 -15.25 -4.0 -15.75 L-4.7 -15.65 -4.5 -16.0 -3.8 -17.3 -3.5 -17.75 -2.75 -18.05 M3.8 -11.5 Q4.85 -12.65 5.15 -12.25 5.45 -11.85 5.25 -12.25 L3.1 -13.9 4.5 -14.3 5.95 -15.0 6.1 -14.65 6.75 -12.75 6.6 -11.8 6.5 -11.6 Q5.95 -11.0 4.5 -11.0 L3.8 -11.5 M1.25 -16.05 L1.25 -16.15 1.45 -15.4 1.25 -16.05" fill="#990000" fill-rule="evenodd" stroke="none"/>
      <path d="M2.25 -17.45 L2.4 -15.65 1.85 -14.95 1.85 -15.0 1.6 -15.15 -0.7 -17.6 -1.05 -17.95 -1.05 -18.05 Q-0.9 -20.15 0.65 -20.0 2.35 -19.8 2.35 -17.8 L2.25 -17.5 2.25 -17.45 M1.25 -16.05 L1.45 -15.4 1.25 -16.15 1.25 -16.05" fill="#ffffff" fill-rule="evenodd" stroke="none"/>
      <path d="M1.85 -14.95 L1.85 -14.9 2.0 -14.75 Q2.45 -15.15 3.05 -15.4 3.75 -15.65 3.75 -16.7 L3.8 -17.1 6.4 -15.65 5.95 -15.0 4.5 -14.3 3.1 -13.9 5.25 -12.25 Q5.45 -11.85 5.15 -12.25 4.85 -12.65 3.8 -11.5 L3.55 -11.6 4.0 -10.5 Q4.4 -8.7 6.2 -7.95 L5.85 -6.55 5.9 -6.35 4.75 -8.5 3.5 -8.5 4.0 -5.25 3.95 -4.1 Q3.75 -3.7 3.0 -3.5 L2.2 -7.1 2.05 -7.95 Q2.35 -8.75 1.8 -9.55 L1.65 -9.75 0.5 -11.0 0.5 -12.55 1.5 -13.0 1.35 -13.2 0.1 -14.7 -1.5 -15.85 -3.4 -17.55 -2.75 -18.05 -1.25 -18.1 -1.05 -17.95 -0.7 -17.6 1.6 -15.15 1.85 -15.0 1.85 -14.95 M-7.3 -13.3 Q-7.25 -15.2 -4.7 -15.65 L-4.0 -15.75 Q-3.8 -15.25 -4.05 -14.65 L-2.7 -13.9 -1.75 -13.0 -1.8 -12.55 Q-1.95 -12.4 -2.35 -12.4 -3.7 -12.4 -4.6 -13.2 -5.5 -14.0 -5.75 -14.0 -6.35 -14.0 -6.7 -13.1 L-7.0 -12.05 -7.3 -13.25 -7.3 -13.3 M-5.0 -9.35 L-5.0 -9.65 -4.8 -10.45 Q-4.5 -10.8 -3.5 -10.8 L-2.85 -10.75 -2.75 -10.75 Q-1.7 -10.55 -1.8 -9.8 -1.8 -7.9 -3.5 -7.9 -4.9 -7.9 -5.0 -9.35" fill="#ff0000" fill-rule="evenodd" stroke="none"/>
    </g>
  </defs>
</svg>
