<?xml version="1.0" encoding="UTF-8" standalone="no"?>
<svg xmlns:ffdec="https://www.free-decompiler.com/flash" xmlns:xlink="http://www.w3.org/1999/xlink" ffdec:objectType="frame" height="37.6px" width="14.25px" xmlns="http://www.w3.org/2000/svg">
  <g transform="matrix(1.0, 0.0, 0.0, 1.0, 7.5, 20.0)">
    <use ffdec:characterId="1261" height="35.6" transform="matrix(1.0, 0.0, 0.0, 1.0, -7.05, -18.0)" width="13.65" xlink:href="#shape0"/>
  </g>
  <defs>
    <g id="shape0" transform="matrix(1.0, 0.0, 0.0, 1.0, 7.05, 18.0)">
      <path d="M-5.95 11.8 L-6.0 11.35 -6.05 11.25 Q-6.45 7.5 -6.15 2.6 -6.05 0.65 -6.25 -2.35 L-6.5 -4.55 -7.05 -11.85 Q-7.05 -14.9 -4.9 -16.6 -2.95 -18.2 -0.2 -18.0 2.6 -17.8 4.45 -15.85 6.6 -13.65 6.6 -10.05 L5.85 -6.55 6.35 -2.05 5.8 9.95 5.7 10.3 5.2 11.9 4.8 10.95 Q4.25 10.0 3.3 9.85 L4.1 8.85 3.95 7.7 2.2 7.3 1.6 7.75 1.6 8.85 1.75 9.75 2.65 10.1 1.3 11.2 1.15 11.25 -0.45 9.75 Q-0.8 9.7 -1.9 10.95 L-4.0 12.15 -4.7 12.3 -5.95 11.2 -5.95 11.8 M-3.1 -5.6 L-3.1 -5.5 -3.05 -5.55 -3.1 -5.6 M-1.85 5.7 L-2.25 5.55 -2.7 5.25 -2.75 5.25 Q-3.5 5.15 -3.95 5.55 -4.25 5.8 -4.4 6.4 L-4.5 7.5 -4.55 8.15 Q-1.7 10.45 -1.5 6.4 L-1.6 5.8 -1.85 5.7 M-4.3 10.2 L-4.55 11.25 -3.3 11.65 -2.9 11.45 -2.7 10.3 -2.5 9.6 -2.55 9.35 -2.75 9.25 -3.7 9.45 -4.25 10.0 -4.3 10.2" fill="#ffcc99" fill-rule="evenodd" stroke="none"/>
      <path d="M5.15 13.15 L4.55 14.0 4.05 14.4 3.75 14.6 2.7 15.25 2.8 14.95 3.0 14.65 3.1 14.05 2.7 12.9 3.3 10.85 3.7 11.1 4.2 12.55 3.65 13.35 3.85 13.95 4.8 13.6 5.15 13.15 M-2.55 15.4 Q-4.05 14.6 -5.6 13.75 L-5.95 12.25 -5.95 11.8 -5.95 11.2 -4.7 12.3 -4.0 12.15 -3.25 13.05 -2.55 13.1 -2.35 13.5 -2.4 14.25 -2.75 14.55 -2.55 15.4 M-1.9 10.95 Q-0.8 9.7 -0.45 9.75 L1.15 11.25 1.3 11.2 0.95 11.55 1.3 11.9 0.9 12.75 Q0.3 14.05 -0.85 14.8 L-1.25 14.5 -0.5 12.75 -0.85 12.1 -0.8 10.6 -1.9 10.95 M2.65 10.1 L1.75 9.75 1.6 8.85 3.45 9.15 3.95 7.7 4.1 8.85 3.3 9.85 2.65 10.1 M-1.85 5.7 L-1.6 5.8 -1.5 6.4 Q-1.7 10.45 -4.55 8.15 L-4.5 7.5 Q-2.5 9.25 -1.9 6.55 L-1.85 5.7 M-2.7 10.3 L-2.9 11.45 -3.3 11.65 -4.55 11.25 -4.3 10.2 -2.7 10.3" fill="#990000" fill-rule="evenodd" stroke="none"/>
      <path d="M5.2 11.9 L5.2 13.05 5.15 13.15 4.8 13.6 3.85 13.95 3.65 13.35 4.2 12.55 3.7 11.1 3.3 10.85 2.7 12.9 3.1 14.05 3.0 14.65 2.8 14.95 1.55 14.1 -1.05 16.2 -2.3 15.8 -2.55 15.4 -2.75 14.55 -2.4 14.25 -2.35 13.5 -2.55 13.1 -3.25 13.05 -4.0 12.15 -1.9 10.95 -0.8 10.6 -0.85 12.1 -0.5 12.75 -1.25 14.5 -0.85 14.8 Q0.3 14.05 0.9 12.75 L1.3 11.9 0.95 11.55 1.3 11.2 2.65 10.1 3.3 9.85 Q4.25 10.0 4.8 10.95 L5.2 11.9 M1.6 8.85 L1.6 7.75 2.2 7.3 3.95 7.7 3.45 9.15 1.6 8.85 M-4.5 7.5 L-4.4 6.4 Q-4.25 5.8 -3.95 5.55 -3.5 5.15 -2.75 5.25 L-2.7 5.25 -2.25 5.55 -1.85 5.7 -1.9 6.55 Q-2.5 9.25 -4.5 7.5 M-2.7 10.3 L-4.3 10.2 -4.25 10.0 -3.7 9.45 -2.75 9.25 -2.55 9.35 -2.5 9.6 -2.7 10.3" fill="#ff0000" fill-rule="evenodd" stroke="none"/>
      <path d="M2.7 15.25 L2.3 16.0 Q1.1 17.8 -0.65 17.55 L-1.15 17.25 Q-1.3 16.95 -1.05 16.35 L-1.05 16.2 1.55 14.1 2.8 14.95 2.7 15.25" fill="#ffffff" fill-rule="evenodd" stroke="none"/>
    </g>
  </defs>
</svg>
