<?xml version="1.0" encoding="UTF-8" standalone="no"?>
<svg xmlns:ffdec="https://www.free-decompiler.com/flash" xmlns:xlink="http://www.w3.org/1999/xlink" ffdec:objectType="frame" height="32.4px" width="27.75px" xmlns="http://www.w3.org/2000/svg">
  <g transform="matrix(1.0, 0.0, 0.0, 1.0, 13.15, 16.2)">
    <use ffdec:characterId="1509" height="32.4" transform="matrix(1.0, 0.0, 0.0, 1.0, -13.15, -16.2)" width="27.75" xlink:href="#shape0"/>
  </g>
  <defs>
    <g id="shape0" transform="matrix(1.0, 0.0, 0.0, 1.0, 13.15, 16.2)">
      <path d="M-9.65 -6.05 L-9.65 -6.15 -9.6 -6.1 -9.65 -6.05 M2.05 -1.05 L2.0 -0.75 1.95 -1.05 2.05 -1.05 M0.4 8.8 L0.35 8.8 0.4 8.8 M-1.95 0.25 L-2.0 0.15 -1.9 0.25 -1.95 0.25" fill="#764701" fill-rule="evenodd" stroke="none"/>
      <path d="M-7.9 -9.75 L-6.9 -10.4 -6.9 -10.35 -7.9 -9.75 M-2.55 -15.65 L-2.05 -16.2 Q-0.2 -15.6 0.75 -14.1 L-0.1 -13.7 -0.7 -13.95 Q-2.0 -14.45 -2.55 -15.65 M1.8 -13.2 L3.05 -13.05 3.8 -12.15 3.4 -9.8 Q2.75 -8.1 1.2 -7.15 0.7 -6.75 0.1 -6.5 L-2.05 -9.95 -1.75 -10.45 -0.85 -10.6 0.5 -10.0 1.5 -10.35 1.3 -10.8 1.2 -12.85 1.8 -13.2 M1.85 -1.85 Q0.75 -0.2 -1.25 -0.1 L-1.65 0.1 -1.9 0.25 -2.0 0.15 -1.95 0.25 -2.05 0.2 -2.15 0.05 -2.2 -0.15 -2.25 -0.25 -2.1 -1.7 -1.85 -1.85 0.4 -2.85 1.75 -2.55 1.85 -1.85 M1.65 2.05 L2.3 2.05 2.8 2.35 1.9 4.25 1.85 4.35 Q0.4 6.5 -1.45 8.1 L-1.7 8.3 -1.9 7.85 -0.85 6.05 Q-0.1 4.15 -0.15 2.05 L1.65 2.05 M-3.65 3.45 L-3.9 4.45 -4.65 4.7 -5.45 4.2 -6.0 3.9 -8.4 2.45 -8.0 2.05 -7.15 1.75 -7.1 1.75 -5.95 1.95 Q-5.15 2.2 -4.45 2.7 L-3.65 3.45 M-3.95 0.15 L-4.4 0.8 -5.2 0.75 -5.55 -0.25 -6.65 -0.3 -8.25 0.6 -9.1 0.5 -9.75 -0.55 -8.15 -1.5 -9.7 -2.7 -6.4 -2.15 -4.65 -1.4 -4.6 -0.75 -4.05 -0.15 -3.95 0.15 M9.55 -1.05 Q8.9 0.2 7.6 0.7 L6.75 0.85 6.1 0.65 5.9 0.15 6.05 -0.45 Q7.6 -1.5 9.55 -1.05 M2.6 7.0 L4.25 7.3 5.6 5.4 4.7 5.45 4.65 3.45 4.8 1.45 6.85 1.65 7.0 4.2 7.45 4.75 7.5 5.35 7.1 5.9 6.8 9.4 Q3.2 8.25 2.85 9.45 L1.85 8.3 2.0 7.55 2.6 7.0 M0.8 14.25 L-1.1 14.25 Q-4.6 13.7 -6.65 11.35 L-6.5 9.15 -6.25 8.9 -5.8 8.75 -4.85 8.7 -4.25 8.95 Q-1.5 10.4 1.45 11.4 L0.95 12.0 -0.15 12.45 -4.8 10.2 0.8 14.25 M-7.15 -6.85 L-2.75 -5.25 -2.4 -5.65 -1.1 -5.5 -0.7 -5.2 -2.5 -3.55 -3.7 -3.75 -4.0 -4.7 -7.15 -6.85 M-10.2 5.0 L-11.2 4.6 -11.45 3.85 -9.5 2.2 -9.4 2.2 -8.8 2.2 -8.9 2.5 Q-8.25 4.45 -6.55 5.3 L-8.3 5.35 -8.15 4.55 -9.0 3.75 -9.65 3.75 -9.75 3.95 -10.25 4.65 -10.2 5.0" fill="#ff0000" fill-rule="evenodd" stroke="none"/>
      <path d="M7.75 10.1 L10.1 11.6 Q9.85 12.5 10.05 12.9 10.2 13.3 6.75 11.95 5.65 11.5 4.25 10.5 L2.85 9.45 Q3.2 8.25 6.8 9.4 L7.75 10.1 M5.15 13.65 L7.4 15.35 Q6.75 16.45 4.85 15.95 L2.6 15.2 0.8 14.25 -4.8 10.2 -0.15 12.45 0.95 12.0 3.55 13.1 5.15 13.65 M-10.45 -0.9 L-13.15 -2.65 -10.0 -2.75 -9.85 -2.7 -9.7 -2.7 -8.15 -1.5 -9.75 -0.55 -10.45 -0.9 M-9.65 -6.15 L-12.25 -7.75 -9.25 -7.65 -7.15 -6.85 -4.0 -4.7 -3.7 -3.75 -2.5 -3.55 -3.75 -3.1 -9.6 -6.1 -9.65 -6.15 M-6.9 -10.4 L-10.05 -12.45 Q-9.0 -13.15 -7.85 -12.85 L-4.7 -11.65 -2.05 -9.95 0.1 -6.5 Q-0.3 -6.55 -0.6 -6.7 -2.25 -7.45 -3.75 -8.35 L-6.9 -10.35 -6.9 -10.4 M-1.5 -12.5 L-4.55 -14.9 -4.4 -15.95 -2.55 -15.65 Q-2.0 -14.45 -0.7 -13.95 L-0.1 -13.7 0.75 -14.1 1.8 -13.2 1.2 -12.85 1.3 -10.8 -1.5 -12.5" fill="#ffffff" fill-rule="evenodd" stroke="none"/>
      <path d="M12.0 -4.5 L8.85 6.1 Q8.15 8.1 7.75 10.1 L6.8 9.4 7.1 5.9 7.5 5.35 7.45 4.75 7.0 4.2 6.85 1.65 4.8 1.45 4.65 3.45 4.7 5.45 5.6 5.4 4.25 7.3 2.6 7.0 2.35 6.25 0.4 8.8 0.35 8.8 0.4 8.8 Q1.45 8.45 2.0 7.55 L1.85 8.3 2.85 9.45 4.25 10.5 Q5.65 11.5 6.75 11.95 L5.15 13.65 3.55 13.1 0.95 12.0 1.45 11.4 Q-1.5 10.4 -4.25 8.95 L-4.85 8.7 -5.8 8.75 -6.25 8.9 -6.5 9.15 -6.65 11.35 Q-4.6 13.7 -1.1 14.25 L0.8 14.25 2.6 15.2 1.85 16.2 -0.5 15.7 -2.0 14.95 Q-4.25 13.9 -6.0 12.45 -6.65 11.4 -7.75 10.45 L-8.1 9.9 -8.15 9.85 -8.25 7.95 -8.45 7.55 -8.5 7.45 Q-9.0 6.8 -9.85 6.25 L-9.9 6.2 -11.4 5.6 -11.9 5.5 -12.15 3.35 -10.75 0.2 -10.45 -0.9 -9.75 -0.55 -9.1 0.5 -8.25 0.6 -6.65 -0.3 -5.55 -0.25 -5.2 0.75 -4.4 0.8 -3.95 0.15 Q-3.7 0.75 -4.1 1.15 L-4.85 2.0 -3.9 3.05 -3.65 3.45 -3.2 4.2 Q-3.7 5.15 -4.55 5.9 L-4.2 7.05 -4.0 8.05 -1.7 8.55 -1.7 8.3 -1.45 8.1 Q0.4 6.5 1.85 4.35 L1.9 4.25 2.8 2.35 2.3 2.05 1.65 2.05 Q1.65 0.75 1.95 -0.5 0.5 1.2 -1.8 0.3 L-1.9 0.25 -1.65 0.1 -1.25 -0.1 Q0.75 -0.2 1.85 -1.85 L1.95 -1.05 2.0 -0.75 2.05 -1.05 2.7 -3.2 4.55 -3.1 5.75 -1.95 7.5 -2.35 Q8.8 -2.95 9.65 -4.05 L10.25 -4.8 11.1 -4.8 12.0 -4.5 M-9.85 -2.7 Q-9.4 -3.65 -9.5 -4.65 L-9.65 -6.05 -9.6 -6.1 -3.75 -3.1 -2.5 -3.55 -0.7 -5.2 -1.1 -5.5 -2.4 -5.65 -2.75 -5.25 -7.15 -6.85 -9.25 -7.65 -7.9 -9.75 -6.9 -10.35 -3.75 -8.35 Q-2.25 -7.45 -0.6 -6.7 -0.3 -6.55 0.1 -6.5 0.7 -6.75 1.2 -7.15 2.75 -8.1 3.4 -9.8 L1.8 -4.35 1.1 -4.5 -1.25 -3.55 -2.1 -1.7 -2.25 -0.25 -2.55 -0.25 -4.05 -0.15 -4.6 -0.75 -4.65 -1.4 -6.4 -2.15 -9.7 -2.7 -9.85 -2.7 M-4.7 -11.65 Q-3.0 -12.45 -1.5 -12.5 L1.3 -10.8 1.5 -10.35 0.5 -10.0 -0.85 -10.6 -1.75 -10.45 -2.05 -9.95 -4.7 -11.65 M-3.65 3.45 L-4.45 2.7 Q-5.15 2.2 -5.95 1.95 L-7.1 1.75 -7.15 1.75 -8.0 2.05 -8.4 2.45 -6.0 3.9 -5.45 4.2 -4.65 4.7 -3.9 4.45 -3.65 3.45 M9.55 -1.05 Q7.6 -1.5 6.05 -0.45 L5.9 0.15 6.1 0.65 6.75 0.85 7.6 0.7 Q8.9 0.2 9.55 -1.05 M-8.3 5.35 L-6.55 5.3 Q-8.25 4.45 -8.9 2.5 L-8.8 2.2 -9.4 2.2 -9.5 2.2 -11.45 3.85 -11.2 4.6 -10.2 5.0 -9.95 5.6 -9.2 6.3 -8.6 6.6 -8.3 5.35" fill="#990000" fill-rule="evenodd" stroke="none"/>
      <path d="M3.05 -13.05 L2.95 -13.65 Q2.5 -14.7 2.55 -15.9 3.2 -16.05 3.75 -15.4 L5.5 -13.7 6.4 -14.3 6.0 -10.8 5.75 -9.8 5.55 -8.9 4.1 -5.2 4.2 -4.7 4.55 -3.1 2.7 -3.2 2.05 -1.05 1.95 -1.05 1.85 -1.85 1.75 -2.55 0.4 -2.85 -1.85 -1.85 -2.1 -1.7 -1.25 -3.55 1.1 -4.5 1.8 -4.35 3.4 -9.8 3.8 -12.15 3.05 -13.05 M-1.9 0.25 L-1.8 0.3 Q0.5 1.2 1.95 -0.5 1.65 0.75 1.65 2.05 L-0.15 2.05 Q-0.1 4.15 -0.85 6.05 L-1.9 7.85 -1.7 8.3 -1.7 8.55 -4.0 8.05 -4.2 7.05 -4.55 5.9 Q-3.7 5.15 -3.2 4.2 L-3.65 3.45 -3.9 3.05 -4.85 2.0 -4.1 1.15 Q-3.7 0.75 -3.95 0.15 L-4.05 -0.15 -2.55 -0.25 -2.55 0.35 -3.05 1.5 -2.75 2.75 -2.95 2.8 -2.1 4.25 -0.85 2.6 -1.95 0.25 -1.9 0.25 M2.0 7.55 Q1.45 8.45 0.4 8.8 L2.35 6.25 2.6 7.0 2.0 7.55 M-8.3 5.35 L-8.6 6.6 -9.2 6.3 -9.95 5.6 -10.2 5.0 -10.25 4.65 -9.75 3.95 -9.65 3.75 -9.0 3.75 -8.15 4.55 -8.3 5.35" fill="#a01b1b" fill-rule="evenodd" stroke="none"/>
      <path d="M6.4 -14.3 Q6.6 -14.9 7.45 -14.05 L8.3 -13.05 8.6 -12.25 8.15 -9.65 7.7 -7.4 7.55 -7.3 7.45 -7.25 7.5 -2.35 Q6.65 -6.5 5.55 -8.9 L5.75 -9.8 6.0 -10.8 6.4 -14.3 M-2.25 -0.25 L-2.2 -0.15 -2.15 0.05 -2.05 0.2 -1.95 0.25 -0.85 2.6 -2.1 4.25 -2.95 2.8 -2.75 2.75 -3.05 1.5 -2.55 0.35 -2.55 -0.25 -2.25 -0.25" fill="#a83636" fill-rule="evenodd" stroke="none"/>
      <path d="M8.3 -13.05 L8.5 -13.4 Q9.65 -15.3 10.7 -15.8 L10.8 -15.35 9.9 -12.1 10.15 -11.4 10.55 -10.7 12.15 -11.75 Q13.4 -12.4 13.95 -12.4 L14.55 -12.25 14.6 -11.9 13.7 -10.8 Q12.75 -9.6 12.65 -8.65 L12.2 -6.8 12.05 -6.45 12.0 -4.5 11.1 -4.8 10.25 -4.8 9.65 -4.05 Q8.8 -2.95 7.5 -2.35 L7.45 -7.25 7.55 -7.3 7.7 -7.4 8.15 -9.65 8.6 -12.25 8.3 -13.05 M5.55 -8.9 Q6.65 -6.5 7.5 -2.35 L5.75 -1.95 4.55 -3.1 4.2 -4.7 4.1 -5.2 5.55 -8.9" fill="#cc4343" fill-rule="evenodd" stroke="none"/>
    </g>
  </defs>
</svg>
