<?xml version="1.0" encoding="UTF-8" standalone="no"?>
<svg xmlns:ffdec="https://www.free-decompiler.com/flash" xmlns:xlink="http://www.w3.org/1999/xlink" ffdec:objectType="frame" height="86.35px" width="39.25px" xmlns="http://www.w3.org/2000/svg">
  <g transform="matrix(1.0, 0.0, 0.0, 1.0, 21.15, 45.35)">
    <use ffdec:characterId="2401" height="85.95" transform="matrix(1.0, 0.0, 0.0, 1.0, -18.3, -45.2)" width="36.4" xlink:href="#shape0"/>
    <use ffdec:characterId="1081" height="100.0" id="shape" transform="matrix(0.32, 0.0, 0.0, 0.82, -15.9996, -40.9988)" width="100.0" xlink:href="#sprite0"/>
  </g>
  <defs>
    <g id="shape0" transform="matrix(1.0, 0.0, 0.0, 1.0, 18.3, 45.2)">
      <path d="M13.0 -26.25 L13.05 -26.25 13.1 -26.0 13.0 -26.25 M3.8 39.95 L3.95 39.35 4.05 39.0 Q5.85 37.0 7.35 31.7 L8.95 24.9 9.35 21.95 9.5 18.15 9.35 18.15 8.3 23.5 Q7.4 26.95 7.2 24.4 7.2 21.95 7.65 19.3 8.65 13.4 11.2 3.9 L13.8 -6.5 14.45 -11.55 14.5 -15.4 14.7 -21.0 Q14.9 -26.8 14.6 -28.7 L13.4 -35.95 Q12.85 -38.2 11.4 -39.65 9.2 -41.95 4.3 -43.65 -5.1 -45.8 -10.35 -39.45 -13.55 -35.7 -14.5 -30.3 L-14.35 -29.25 -15.1 -26.25 Q-15.8 -22.3 -15.3 -20.1 -14.9 -18.2 -12.45 -12.4 L-10.75 -8.75 -10.0 -7.1 -7.65 2.45 -6.35 1.3 -4.5 -0.95 Q-2.35 -4.05 -0.7 -8.1 L-0.35 -9.0 -0.95 -5.05 Q-1.35 -3.1 -4.25 2.9 L-5.6 5.6 -7.25 10.5 -7.3 10.9 Q-7.35 13.0 -8.15 16.75 L-9.0 20.55 -9.05 21.25 -5.65 13.7 -5.85 14.65 -7.65 21.05 -8.9 26.8 -9.0 27.2 -9.25 27.65 -9.15 28.2 -9.45 29.85 -9.55 31.15 -9.9 32.85 -10.0 34.55 -10.05 34.65 Q-10.25 35.95 -9.5 37.35 -8.95 38.45 -7.9 39.15 L-7.85 39.2 -8.8 38.55 Q-11.45 36.85 -11.8 35.45 L-12.55 30.35 -12.7 25.55 Q-11.7 17.45 -12.8 9.55 L-16.05 -8.15 -16.7 -11.5 -18.25 -21.05 Q-18.45 -25.0 -18.05 -27.3 L-17.4 -29.65 -16.55 -32.3 -15.55 -34.75 -15.1 -35.25 Q-10.4 -45.6 1.4 -45.2 12.85 -42.95 16.5 -34.95 17.9 -32.0 18.1 -28.65 17.6 -18.85 16.6 -9.2 15.65 0.45 13.85 10.05 12.1 19.5 10.0 28.8 L9.9 29.05 Q8.4 37.7 3.8 39.95 M-12.65 -25.15 L-12.6 -25.0 -12.7 -25.0 -12.65 -25.15" fill="#727e94" fill-rule="evenodd" stroke="none"/>
      <path d="M-7.85 39.2 L-7.9 39.15 Q-8.95 38.45 -9.5 37.35 -10.25 35.95 -10.05 34.65 L-10.0 34.55 -9.9 32.85 -9.55 31.15 -9.45 29.85 -9.15 28.2 -9.25 27.65 -9.0 27.2 -8.9 26.8 -7.65 21.05 -5.85 14.65 -5.65 13.7 -9.05 21.25 -9.0 20.55 -8.15 16.75 Q-7.35 13.0 -7.3 10.9 L-7.25 10.5 -5.6 5.6 -4.25 2.9 Q-1.35 -3.1 -0.95 -5.05 L-0.35 -9.0 -0.7 -8.1 Q-2.35 -4.05 -4.5 -0.95 L-6.35 1.3 -7.65 2.45 -10.0 -7.1 -10.75 -8.75 -12.45 -12.4 Q-14.9 -18.2 -15.3 -20.1 -15.8 -22.3 -15.1 -26.25 L-14.35 -29.25 -14.5 -30.3 Q-13.55 -35.7 -10.35 -39.45 -5.1 -45.8 4.3 -43.65 9.2 -41.95 11.4 -39.65 12.85 -38.2 13.4 -35.95 L14.6 -28.7 Q14.9 -26.8 14.7 -21.0 L14.5 -15.4 14.45 -11.55 13.8 -6.5 11.2 3.9 Q8.65 13.4 7.65 19.3 7.2 21.95 7.2 24.4 7.4 26.95 8.3 23.5 L9.35 18.15 9.5 18.15 9.35 21.95 8.95 24.9 7.35 31.7 Q5.85 37.0 4.05 39.0 L3.95 39.35 3.8 39.95 Q3.55 40.3 3.2 40.25 L3.15 40.25 -1.8 40.55 -4.35 40.6 Q-5.95 40.3 -7.85 39.2 M13.0 -26.25 L13.1 -26.0 13.05 -26.25 13.0 -26.25 M-12.65 -25.15 L-12.7 -25.0 -12.6 -25.0 -12.65 -25.15" fill="#5c617c" fill-rule="evenodd" stroke="none"/>
    </g>
    <g id="sprite0" transform="matrix(1.0, 0.0, 0.0, 1.0, 50.0, 50.0)">
      <use ffdec:characterId="1080" height="100.0" transform="matrix(1.0, 0.0, 0.0, 1.0, -50.0, -50.0)" width="100.0" xlink:href="#shape1"/>
    </g>
    <g id="shape1" transform="matrix(1.0, 0.0, 0.0, 1.0, 50.0, 50.0)">
      <path d="M50.0 50.0 L-50.0 50.0 -50.0 -50.0 50.0 -50.0 50.0 50.0 Z" fill="none" stroke="#9900ff" stroke-linecap="round" stroke-linejoin="round" stroke-width="0.05"/>
    </g>
  </defs>
</svg>
