<?xml version="1.0" encoding="UTF-8" standalone="no"?>
<svg xmlns:ffdec="https://www.free-decompiler.com/flash" xmlns:xlink="http://www.w3.org/1999/xlink" ffdec:objectType="frame" height="86.35px" width="39.25px" xmlns="http://www.w3.org/2000/svg">
  <g transform="matrix(1.0, 0.0, 0.0, 1.0, 21.15, 45.35)">
    <use ffdec:characterId="2404" height="85.85" transform="matrix(1.0, 0.0, 0.0, 1.0, -21.15, -45.35)" width="39.25" xlink:href="#shape0"/>
  </g>
  <defs>
    <g id="shape0" transform="matrix(1.0, 0.0, 0.0, 1.0, 21.15, 45.35)">
      <path d="M12.95 -34.0 L12.7 -33.45 12.05 -33.55 Q9.5 -33.95 7.4 -36.0 L6.15 -35.25 Q5.3 -36.2 5.15 -37.65 4.95 -38.8 4.9 -39.9 L5.0 -40.4 6.65 -38.65 7.4 -37.7 7.9 -36.55 13.0 -34.5 12.95 -34.0 M3.1 -35.15 L3.75 -34.35 4.2 -33.55 4.4 -32.9 6.15 -31.45 6.35 -31.45 5.9 -30.25 5.05 -29.8 Q1.8 -30.75 0.75 -34.05 L-1.2 -35.65 -1.2 -35.85 -1.45 -35.85 -2.7 -36.85 -2.35 -37.35 -5.15 -40.5 -4.85 -41.2 -4.7 -41.7 -3.85 -41.0 Q-2.95 -38.8 -1.05 -37.4 L-0.25 -36.85 3.1 -35.15 M16.05 -31.85 L15.5 -31.5 Q14.15 -31.4 13.5 -32.9 L13.3 -33.7 14.55 -33.95 15.45 -33.3 16.1 -32.45 16.1 -31.95 16.05 -31.85 M0.05 -28.2 Q1.0 -28.3 1.85 -27.8 L2.25 -27.45 2.65 -25.95 2.45 -25.25 1.95 -24.8 Q-0.05 -24.15 -1.05 -25.9 L-1.35 -26.5 -0.8 -27.75 Q-0.4 -28.3 0.05 -28.2 M7.9 -24.9 L7.8 -25.5 8.55 -27.7 10.25 -30.1 10.85 -30.1 Q11.75 -30.2 12.3 -29.4 L12.05 -28.55 10.7 -27.85 11.35 -26.55 11.6 -25.3 11.3 -24.85 Q10.4 -23.7 9.15 -23.9 L8.25 -24.35 7.9 -24.9 M4.55 37.6 L4.5 37.65 4.45 37.65 3.6 37.45 2.7 34.8 0.25 36.55 -3.1 39.3 -3.3 38.6 -2.65 36.65 -0.45 34.0 0.5 33.3 4.55 32.95 4.45 30.1 5.05 29.6 5.7 29.9 Q6.7 30.45 7.0 31.35 L7.0 31.45 6.95 31.75 7.0 32.8 7.05 33.05 6.85 33.7 6.05 34.35 5.1 34.35 5.2 36.3 4.55 37.6 M-13.9 -29.95 L-13.55 -30.35 -11.15 -30.05 -11.15 -29.3 -11.55 -29.05 -12.0 -28.1 -12.45 -27.9 Q-13.65 -28.25 -14.05 -29.3 L-13.9 -29.95 M-1.2 -40.6 Q-1.65 -40.65 -1.9 -41.1 L-2.0 -42.3 -1.4 -43.55 -0.95 -43.7 Q0.2 -42.85 0.4 -41.3 L-0.05 -40.6 -1.2 -40.6 M12.6 -27.55 L13.4 -27.7 13.7 -27.7 14.05 -26.9 13.7 -26.2 12.75 -26.15 12.3 -26.45 12.6 -27.55 M-6.3 -18.3 L-6.4 -19.1 -6.45 -19.15 -5.6 -19.7 -4.8 -21.4 -3.65 -22.25 -3.65 -22.35 Q-4.15 -23.25 -3.7 -24.0 L-3.4 -24.6 -1.9 -24.5 -1.3 -23.5 -1.85 -22.55 -2.05 -22.25 -2.55 -22.05 Q-2.4 -20.3 -3.85 -18.6 L-6.3 -18.3 M-10.25 -15.25 L-10.15 -13.9 -11.95 -12.25 -13.0 -12.65 -13.2 -14.1 Q-13.05 -14.9 -12.4 -15.35 -11.8 -15.85 -11.05 -15.75 L-10.55 -15.6 -10.25 -15.25 M-2.55 30.05 Q-2.45 30.55 -2.65 31.65 L-2.6 32.2 -3.05 32.3 -3.95 32.45 -4.0 31.45 -2.7 31.0 -2.7 30.35 -2.55 30.05 M-1.25 31.6 L-1.5 29.9 -1.45 29.7 -0.3 29.85 -0.05 30.55 -1.25 31.6 M0.9 22.0 L0.55 21.2 1.1 19.75 2.15 19.95 3.1 20.15 3.25 21.15 3.1 21.8 2.7 22.05 0.9 22.0 M6.15 20.55 L6.35 20.45 7.5 20.25 8.25 20.15 8.95 20.5 9.2 20.85 9.4 21.25 9.45 21.95 7.1 25.45 5.6 25.35 4.8 23.85 4.55 22.65 5.15 21.25 6.15 20.55 M-10.2 -29.45 L-10.55 -30.35 -10.55 -30.55 -6.95 -31.65 -5.8 -29.5 -6.1 -28.8 -10.2 -29.45 M-6.65 -31.75 L-6.45 -33.15 -7.75 -35.55 -6.7 -35.9 -4.45 -34.3 -4.4 -33.25 -4.7 -32.85 -4.35 -32.75 -3.9 -31.05 Q-4.9 -30.85 -5.85 -31.4 -6.3 -31.5 -6.65 -31.75 M-11.9 -24.45 L-10.85 -24.15 Q-10.05 -24.9 -8.95 -25.2 -8.4 -25.5 -8.3 -24.85 L-8.3 -24.6 -8.35 -23.4 -8.55 -22.5 -9.8 -22.0 -10.05 -21.9 -11.05 -22.65 -11.5 -22.35 -12.45 -22.45 -12.75 -22.9 -12.7 -23.4 -12.4 -24.15 Q-12.15 -24.5 -11.9 -24.45 M-13.6 -21.0 L-11.95 -20.9 -11.75 -20.6 -12.25 -19.25 -14.25 -19.4 Q-14.55 -20.1 -13.95 -20.65 L-13.6 -21.0 M-3.15 23.3 L-3.45 24.0 Q-4.1 25.5 -5.25 26.2 L-5.5 27.5 -5.9 27.95 -6.55 27.85 -6.9 26.45 -6.5 25.35 -5.25 22.8 -3.3 22.45 -3.15 23.3 M-8.45 28.8 L-8.2 30.15 -7.85 30.8 Q-7.1 31.9 -7.25 33.5 -8.3 31.55 -8.7 29.1 L-8.45 28.8 M-5.05 31.0 L-4.75 31.7 -5.9 33.55 -4.65 35.25 -5.4 35.95 -6.4 34.8 -6.4 33.3 Q-6.2 32.05 -5.05 31.0 M3.35 22.65 L3.8 22.65 4.3 23.4 4.35 23.5 4.0 24.2 3.65 24.45 3.7 25.25 3.35 26.25 3.15 26.5 2.55 26.85 1.95 26.9 0.95 26.25 0.9 26.2 Q0.55 25.55 0.7 24.85 L1.1 23.95 Q1.35 23.65 1.65 23.7 L2.6 23.8 3.35 22.65 M3.7 29.7 L2.7 30.45 2.6 31.75 1.45 31.55 1.25 30.3 1.5 30.25 1.5 30.1 Q1.6 29.4 2.2 28.95 L2.15 28.3 3.75 28.25 3.8 28.25 3.8 28.5 Q4.05 28.7 3.9 29.5 L3.7 29.7" fill="#ff0000" fill-rule="evenodd" stroke="none"/>
      <path d="M3.2 -39.05 L3.1 -35.15 -0.25 -36.85 -0.45 -37.8 -1.2 -40.6 -0.05 -40.6 0.4 -41.3 Q0.2 -42.85 -0.95 -43.7 L-1.4 -43.55 -2.0 -42.3 Q-1.75 -45.5 1.15 -45.35 2.0 -45.05 2.25 -44.15 2.95 -42.2 3.1 -40.1 L3.2 -39.05 M3.25 38.05 Q1.3 40.95 -1.95 40.45 L-2.75 40.25 -3.1 39.3 0.25 36.55 2.7 34.8 3.6 37.45 3.25 38.05 M-2.6 32.2 L-2.4 32.6 Q-1.35 32.1 -1.25 31.65 L-1.25 31.6 -0.05 30.55 0.95 30.7 1.2 31.1 0.5 33.3 -0.45 34.0 Q-2.15 34.6 -3.35 33.2 L-3.95 32.45 -3.05 32.3 -2.6 32.2" fill="#ffffff" fill-rule="evenodd" stroke="none"/>
      <path d="M4.9 -39.9 Q4.95 -38.8 5.15 -37.65 5.3 -36.2 6.15 -35.25 L7.4 -36.0 Q9.5 -33.95 12.05 -33.55 L12.7 -33.45 12.95 -34.0 13.3 -33.7 13.5 -32.9 Q14.15 -31.4 15.5 -31.5 L16.05 -31.85 15.9 -30.25 14.95 -29.9 13.8 -29.9 13.6 -30.1 13.55 -30.0 Q12.65 -30.45 12.45 -31.95 L12.95 -32.75 9.6 -33.3 9.4 -33.8 Q8.9 -34.8 7.7 -35.1 L6.35 -31.45 6.15 -31.45 4.4 -32.9 4.2 -33.55 3.75 -34.35 3.1 -35.15 3.2 -39.05 4.9 -39.9 M0.75 -34.05 L0.25 -34.05 -1.2 -34.95 -1.2 -35.65 0.75 -34.05 M-1.35 -26.5 L-1.05 -25.9 Q-0.05 -24.15 1.95 -24.8 L2.45 -25.25 1.9 -23.8 Q0.15 -22.75 -1.3 -23.75 -1.6 -24.45 -1.55 -25.3 L-1.35 -26.5 M12.3 -29.4 L12.65 -28.95 12.75 -28.5 12.6 -27.65 11.35 -26.55 10.7 -27.85 12.05 -28.55 12.3 -29.4 M6.6 35.6 Q6.45 36.55 5.85 37.15 5.25 37.7 4.55 37.6 L5.2 36.3 5.1 34.35 6.05 34.35 6.85 33.7 6.6 35.6 M4.45 37.65 L3.25 38.05 3.6 37.45 4.45 37.65 M-2.65 36.65 L-4.2 36.7 -6.6 35.7 -6.45 35.35 -6.4 34.8 -5.4 35.95 -4.65 35.25 -5.9 33.55 -4.75 31.7 -5.05 31.0 -5.05 30.95 -4.1 30.0 -3.4 29.6 -3.25 30.6 -2.7 30.35 -2.7 31.0 -4.0 31.45 -3.95 32.45 -3.35 33.2 Q-2.15 34.6 -0.45 34.0 L-2.65 36.65 M-7.5 35.0 Q-10.2 32.55 -9.55 27.55 L-8.85 26.4 -8.4 27.95 -8.45 28.8 -8.7 29.1 Q-8.3 31.55 -7.25 33.5 L-7.35 34.2 -7.5 35.0 M-17.9 -21.25 L-16.6 -25.25 -15.4 -22.65 -15.25 -21.8 -15.8 -20.9 -17.0 -20.95 -17.9 -21.25 M-16.3 -26.55 L-15.8 -27.55 -13.9 -29.95 -14.05 -29.3 Q-13.65 -28.25 -12.45 -27.9 L-12.0 -28.1 -11.55 -29.05 -11.15 -29.3 -11.15 -30.05 -10.65 -31.2 Q-8.95 -35.0 -6.75 -38.4 L-4.85 -41.2 -5.15 -40.5 -2.35 -37.35 -2.7 -36.85 -1.45 -35.85 -2.55 -35.9 Q-3.1 -35.95 -3.25 -36.15 L-3.7 -36.6 Q-4.2 -36.0 -4.4 -34.65 L-4.45 -34.3 -6.7 -35.9 -7.75 -35.55 -6.45 -33.15 -6.65 -31.75 -6.95 -31.65 -10.55 -30.55 -10.55 -30.35 -10.2 -29.45 -10.85 -28.6 -12.35 -25.9 -13.1 -25.8 -14.6 -27.55 Q-14.8 -26.75 -14.45 -25.5 -15.6 -25.45 -16.3 -26.55 M-3.85 -41.0 L-0.45 -37.8 -0.25 -36.85 -1.05 -37.4 Q-2.95 -38.8 -3.85 -41.0 M14.05 -26.9 L13.4 -25.45 12.8 -25.45 12.4 -25.75 Q12.2 -26.1 12.3 -26.45 L12.75 -26.15 13.7 -26.2 14.05 -26.9 M11.8 -24.2 L11.7 -23.55 11.25 -23.2 Q9.15 -22.1 8.25 -24.35 L9.15 -23.9 Q10.4 -23.7 11.3 -24.85 L11.6 -25.3 11.8 -24.2 M-1.35 -21.4 L-1.75 -20.55 -2.35 -17.0 Q-3.8 -14.7 -5.7 -16.6 L-6.3 -18.3 -3.85 -18.6 Q-2.4 -20.3 -2.55 -22.05 L-2.05 -22.25 -1.85 -22.55 -1.3 -23.5 -1.35 -21.4 M-10.15 -13.9 L-9.9 -12.75 -9.9 -12.7 Q-10.25 -11.9 -10.9 -11.4 L-11.75 -10.85 Q-12.35 -10.95 -12.75 -11.5 -13.1 -12.0 -13.0 -12.65 L-11.95 -12.25 -10.15 -13.9 M-2.85 25.05 L-2.8 25.7 -3.15 26.75 -4.6 28.7 -5.2 28.75 -5.35 28.5 -5.9 27.95 -5.5 27.5 -5.25 26.2 Q-4.1 25.5 -3.45 24.0 L-3.15 23.3 -2.85 25.05 M-1.45 29.7 L-1.2 28.85 Q-0.75 27.75 0.15 27.4 L1.1 27.25 0.4 25.75 0.7 24.85 Q0.55 25.55 0.9 26.2 L0.95 26.25 1.95 26.9 2.55 26.85 3.15 26.5 3.35 26.25 3.7 25.25 4.25 25.8 4.4 27.45 3.8 28.25 3.75 28.25 2.15 28.3 2.2 28.95 Q1.6 29.4 1.5 30.1 L1.5 30.25 1.25 30.3 1.45 31.55 2.6 31.75 2.7 30.45 3.7 29.7 4.45 30.1 4.55 32.95 0.5 33.3 1.2 31.1 0.95 30.7 -0.05 30.55 -0.3 29.85 -1.45 29.7 M1.4 23.25 L1.0 22.75 0.9 22.0 2.7 22.05 3.1 21.8 3.25 21.15 3.35 22.65 2.6 23.8 1.65 23.7 1.4 23.25 M9.45 21.95 L9.5 23.0 9.35 24.3 8.85 25.3 7.8 26.45 7.6 26.55 7.3 26.5 5.45 26.35 4.8 23.85 5.6 25.35 7.1 25.45 9.45 21.95 M-11.85 -21.2 L-12.7 -21.45 Q-13.45 -22.15 -12.7 -23.4 L-12.75 -22.9 -12.45 -22.45 -11.5 -22.35 -11.05 -22.65 -10.05 -21.9 -9.8 -22.0 -8.55 -22.5 -8.35 -23.4 -8.15 -21.7 -8.25 -20.5 -9.45 -19.7 -10.65 -20.0 -11.3 -21.3 -11.45 -21.2 -11.85 -21.2 M-4.4 -33.25 L-4.35 -32.75 -4.7 -32.85 -4.4 -33.25 M-14.25 -19.4 L-12.25 -19.25 -11.75 -20.6 -11.55 -19.75 -11.75 -18.65 -12.45 -18.1 -13.15 -18.15 Q-13.65 -18.25 -13.95 -18.55 -14.3 -18.95 -14.25 -19.4" fill="#990000" fill-rule="evenodd" stroke="none"/>
      <path d="M9.6 -33.3 L12.95 -32.75 12.45 -31.95 Q12.65 -30.45 13.55 -30.0 L13.05 -29.3 12.95 -29.2 12.65 -28.95 12.3 -29.4 Q11.75 -30.2 10.85 -30.1 L10.25 -30.1 10.2 -30.2 9.9 -32.0 9.6 -33.3 M13.8 -29.9 L14.95 -29.9 15.9 -30.25 16.05 -31.85 16.1 -31.95 16.9 -31.2 16.9 -29.8 Q15.75 -28.6 15.25 -28.7 L14.55 -29.25 13.8 -29.9 M-1.2 -34.95 L0.25 -34.05 0.75 -34.05 Q1.8 -30.75 5.05 -29.8 L5.9 -30.25 5.45 -28.9 5.4 -28.75 Q5.05 -27.65 4.5 -26.95 L5.95 -27.05 Q7.4 -26.7 7.8 -25.5 L7.9 -24.9 7.8 -23.55 Q7.55 -22.05 5.95 -22.35 L5.85 -22.35 Q3.7 -22.8 3.6 -24.85 3.6 -25.85 3.95 -26.4 L2.65 -25.95 2.25 -27.45 1.85 -27.8 Q1.0 -28.3 0.05 -28.2 L0.1 -28.6 0.25 -29.45 Q0.25 -30.0 -0.45 -31.05 L-0.95 -32.05 -1.1 -32.75 -1.25 -33.6 -1.2 -34.95 M-17.7 -20.3 L-17.9 -21.25 -17.0 -20.95 -15.8 -20.9 -15.25 -21.8 -15.4 -22.65 -16.6 -25.25 -16.7 -26.7 -16.3 -26.55 Q-15.6 -25.45 -14.45 -25.5 L-13.9 -23.95 Q-13.35 -22.55 -13.4 -21.95 L-13.6 -21.0 -13.95 -20.65 Q-14.55 -20.1 -14.25 -19.4 -14.3 -18.95 -13.95 -18.55 -13.65 -18.25 -13.15 -18.15 L-13.1 -17.55 Q-13.25 -16.9 -13.8 -17.0 L-14.6 -17.8 -14.95 -18.2 Q-16.05 -19.45 -16.9 -19.6 -17.35 -19.65 -17.7 -20.3 M-9.7 -41.25 L-9.6 -41.4 -9.35 -41.55 Q-9.35 -41.35 -9.45 -41.3 L-9.5 -41.4 -9.7 -41.25 M-10.2 -29.45 L-6.1 -28.8 -5.8 -29.5 -6.95 -31.65 -6.65 -31.75 Q-6.3 -31.5 -5.85 -31.4 -4.9 -30.85 -3.9 -31.05 L-3.9 -31.0 Q-3.15 -28.65 -3.4 -27.1 -3.75 -25.15 -5.0 -25.4 -5.75 -25.5 -6.55 -26.15 L-7.5 -26.9 Q-7.75 -26.95 -8.35 -26.4 L-8.3 -24.85 Q-8.4 -25.5 -8.95 -25.2 -10.05 -24.9 -10.85 -24.15 L-11.9 -24.45 -12.0 -24.55 -13.1 -25.8 -12.35 -25.9 -10.85 -28.6 -10.2 -29.45 M-6.5 -23.4 L-6.4 -23.2 -6.25 -21.95 Q-6.6 -20.2 -8.05 -20.45 L-8.25 -20.5 -8.15 -21.7 -8.35 -23.4 -8.3 -24.6 -7.85 -24.7 Q-6.85 -24.5 -6.5 -23.4" fill="#c79b68" fill-rule="evenodd" stroke="none"/>
      <path d="M9.75 28.3 L8.75 31.45 8.65 31.7 8.5 31.35 8.6 30.15 Q8.85 28.75 9.75 28.3 M7.4 34.2 L6.6 35.6 6.85 33.7 7.05 33.05 7.4 34.2 M-9.55 27.55 L-8.5 24.7 -8.3 22.75 -7.7 21.7 -7.35 21.7 -7.15 21.75 -7.05 21.75 Q-5.7 22.0 -5.25 22.8 L-6.5 25.35 -6.9 26.45 -8.4 27.7 -8.4 27.95 -8.85 26.4 -9.55 27.55 M-3.4 29.6 Q-2.7 29.3 -2.55 30.05 L-2.7 30.35 -3.25 30.6 -3.4 29.6 M4.4 27.45 Q5.4 27.45 6.0 28.3 L6.35 28.75 6.65 29.4 6.9 30.3 7.0 31.35 Q6.7 30.45 5.7 29.9 L5.05 29.6 4.45 30.1 3.7 29.7 3.9 29.5 Q4.05 28.7 3.8 28.5 L3.8 28.25 4.4 27.45" fill="#e2b181" fill-rule="evenodd" stroke="none"/>
      <path d="M-8.3 22.75 L-8.2 21.75 -7.8 21.7 -7.7 21.7 -8.3 22.75" fill="#d5a675" fill-rule="evenodd" stroke="none"/>
      <path d="M6.35 -31.45 L7.7 -35.1 Q8.9 -34.8 9.4 -33.8 L9.6 -33.3 9.9 -32.0 10.2 -30.2 10.25 -30.1 8.55 -27.7 Q7.75 -28.85 6.15 -28.85 L5.45 -28.9 5.9 -30.25 6.35 -31.45 M-0.95 -32.05 L-0.45 -31.05 Q0.25 -30.0 0.25 -29.45 L0.1 -28.6 0.05 -28.2 Q-0.4 -28.3 -0.8 -27.75 L-1.35 -26.5 -1.55 -25.3 Q-1.6 -24.45 -1.3 -23.75 0.15 -22.75 1.9 -23.8 L2.45 -25.25 2.65 -25.95 3.95 -26.4 Q3.6 -25.85 3.6 -24.85 3.7 -22.8 5.85 -22.35 L4.3 -20.3 4.0 -22.2 3.65 -22.5 2.85 -23.7 2.15 -22.95 3.95 -16.8 4.5 -14.9 Q5.65 -11.1 0.95 -16.1 L0.95 -16.25 0.95 -16.45 0.95 -16.55 Q0.95 -18.95 -0.75 -18.35 -0.7 -21.7 -1.35 -21.4 L-1.3 -23.5 -1.9 -24.5 Q-1.7 -26.15 -1.85 -27.8 -2.0 -29.6 -1.55 -29.95 L-1.4 -30.2 -0.95 -32.05 M12.65 -28.95 L12.95 -29.2 13.05 -29.3 12.95 -28.85 12.75 -28.5 12.65 -28.95 M8.8 32.0 L9.1 32.5 8.85 33.4 7.85 35.25 7.4 34.2 7.05 33.05 7.0 32.8 6.95 31.75 7.0 31.45 7.05 31.5 7.35 31.65 8.35 31.95 8.55 32.0 8.8 32.0 M-6.6 35.7 L-7.5 37.8 -7.6 38.5 -7.7 38.45 -8.8 37.75 Q-7.95 36.95 -7.5 35.0 L-7.35 34.2 -7.25 33.5 Q-7.1 31.9 -7.85 30.8 L-8.2 30.15 -8.45 28.8 -8.4 27.95 -8.4 27.7 -6.9 26.45 -6.55 27.85 -5.9 27.95 -5.35 28.5 -5.4 28.7 -5.4 28.85 -5.05 30.95 -5.05 31.0 Q-6.2 32.05 -6.4 33.3 L-6.4 34.8 -6.45 35.35 -6.6 35.7 M-8.2 21.75 Q-9.6 21.85 -10.8 22.95 L-10.85 23.05 Q-10.1 20.2 -11.25 17.5 L-9.85 18.05 -9.4 18.85 -8.6 18.8 -7.7 18.25 -6.85 18.1 -5.6 19.2 -5.1 19.9 -4.5 20.9 Q-3.45 19.95 -2.8 18.5 L-2.05 16.7 Q-1.5 15.1 -1.35 13.45 L-0.7 13.0 -0.1 13.55 -0.15 17.05 -0.3 18.95 Q-0.45 21.6 -1.35 22.45 -2.05 23.05 -3.2 22.65 L-2.25 24.4 -2.85 25.05 -3.15 23.3 -3.3 22.45 -5.25 22.8 Q-5.7 22.0 -7.05 21.75 L-7.15 21.75 -7.35 21.7 -7.7 21.7 -7.8 21.7 -8.2 21.75 M12.6 -27.65 L12.6 -27.55 12.3 -26.45 Q12.2 -26.1 12.4 -25.75 L12.8 -25.45 13.2 -21.4 11.8 -24.2 11.6 -25.3 11.35 -26.55 12.6 -27.65 M-6.4 -19.1 L-7.5 -18.3 -8.3 -17.35 Q-9.1 -16.1 -10.0 -15.45 L-10.25 -15.25 -10.55 -15.6 -11.05 -15.75 Q-11.45 -17.05 -11.4 -18.65 L-11.55 -19.75 -11.75 -20.6 -11.95 -20.9 -11.95 -20.95 -11.85 -21.2 -11.45 -21.2 -11.3 -21.3 -10.65 -20.0 -9.45 -19.7 -8.25 -20.5 -8.05 -20.45 Q-6.6 -20.2 -6.25 -21.95 L-6.4 -23.2 -6.5 -23.4 -5.35 -23.25 Q-5.45 -22.2 -4.8 -21.4 L-5.6 -19.7 -6.45 -19.15 -6.4 -19.1 M-1.2 28.85 L-1.2 28.75 Q-1.7 26.8 -1.25 24.65 L-0.7 24.3 Q0.4 23.95 1.4 23.25 L1.65 23.7 Q1.35 23.65 1.1 23.95 L0.7 24.85 0.4 25.75 1.1 27.25 0.15 27.4 Q-0.75 27.75 -1.2 28.85 M2.15 19.95 Q3.45 19.15 3.8 17.75 L3.95 16.45 Q4.0 15.7 4.3 15.0 L5.05 15.1 5.4 17.1 4.95 17.95 Q4.6 18.65 4.65 19.4 5.05 20.35 6.15 20.55 L5.15 21.25 4.55 22.65 4.8 23.85 5.45 26.35 7.3 26.5 7.3 26.55 6.35 28.75 6.0 28.3 Q5.4 27.45 4.4 27.45 L4.25 25.8 3.7 25.25 3.65 24.45 4.0 24.2 4.35 23.5 4.3 23.4 3.8 22.65 3.35 22.65 3.25 21.15 3.1 20.15 2.15 19.95" fill="#834753" fill-rule="evenodd" stroke="none"/>
      <path d="M13.55 -30.0 L13.6 -30.1 13.8 -29.9 14.55 -29.25 14.6 -28.7 Q14.9 -26.8 14.7 -21.0 L14.65 -19.75 14.5 -15.4 14.45 -11.55 13.8 -6.5 11.2 3.9 9.5 10.65 9.3 11.55 7.8 18.45 7.65 19.3 7.5 20.25 6.35 20.45 6.15 20.55 Q5.05 20.35 4.65 19.4 4.6 18.65 4.95 17.95 L5.4 17.1 5.05 15.1 4.3 15.0 Q4.0 15.7 3.95 16.45 L3.8 17.75 Q3.45 19.15 2.15 19.95 L1.1 19.75 0.55 21.2 0.9 22.0 1.0 22.75 1.4 23.25 Q0.4 23.95 -0.7 24.3 L-1.25 24.65 Q-1.7 26.8 -1.2 28.75 L-1.2 28.85 -1.45 29.7 -1.5 29.9 -1.25 31.6 -1.25 31.65 Q-1.35 32.1 -2.4 32.6 L-2.6 32.2 -2.65 31.65 Q-2.45 30.55 -2.55 30.05 -2.7 29.3 -3.4 29.6 L-4.1 30.0 -5.05 30.95 -5.4 28.85 -5.4 28.7 -5.35 28.5 -5.2 28.75 -4.6 28.7 -3.15 26.75 -2.8 25.7 -2.85 25.05 -2.25 24.4 -3.2 22.65 Q-2.05 23.05 -1.35 22.45 -0.45 21.6 -0.3 18.95 L-0.15 17.05 -0.1 13.55 -0.7 13.0 -1.35 13.45 Q-1.5 15.1 -2.05 16.7 L-2.8 18.5 Q-3.45 19.95 -4.5 20.9 L-5.1 19.9 -5.6 19.2 -6.85 18.1 -6.25 16.0 -5.85 14.65 -5.65 13.7 -6.6 15.9 -7.7 18.25 -8.6 18.8 -8.15 16.75 -7.95 15.7 Q-7.4 13.05 -7.3 11.3 L-7.3 11.2 -7.3 10.9 -7.25 10.5 -5.6 5.6 -4.25 2.9 Q-1.35 -3.1 -0.95 -5.05 L-0.35 -9.0 -0.7 -8.1 Q-2.35 -4.05 -4.5 -0.95 L-6.35 1.3 -7.65 2.45 -10.0 -7.1 -10.75 -8.75 -11.75 -10.85 -10.9 -11.4 Q-10.25 -11.9 -9.9 -12.7 L-9.9 -12.75 -10.15 -13.9 -10.25 -15.25 -10.0 -15.45 Q-9.1 -16.1 -8.3 -17.35 L-7.5 -18.3 -6.4 -19.1 -6.3 -18.3 -5.7 -16.6 Q-3.8 -14.7 -2.35 -17.0 L-1.75 -20.55 -1.35 -21.4 Q-0.7 -21.7 -0.75 -18.35 0.95 -18.95 0.95 -16.55 L0.95 -16.45 0.95 -16.25 0.95 -16.1 Q5.65 -11.1 4.5 -14.9 L3.95 -16.8 2.15 -22.95 2.85 -23.7 3.65 -22.5 4.0 -22.2 4.3 -20.3 5.85 -22.35 5.95 -22.35 Q7.55 -22.05 7.8 -23.55 L7.9 -24.9 8.25 -24.35 Q9.15 -22.1 11.25 -23.2 L11.7 -23.55 11.8 -24.2 13.2 -21.4 12.8 -25.45 13.4 -25.45 14.05 -26.9 13.7 -27.7 13.4 -27.7 12.6 -27.55 12.6 -27.65 12.75 -28.5 12.95 -28.85 13.05 -29.3 13.55 -30.0 M-1.2 -34.95 L-1.25 -33.6 -1.1 -32.75 -0.95 -32.05 -1.4 -30.2 -1.55 -29.95 Q-2.0 -29.6 -1.85 -27.8 -1.7 -26.15 -1.9 -24.5 L-3.4 -24.6 -3.7 -24.0 Q-4.15 -23.25 -3.65 -22.35 L-3.65 -22.25 -4.8 -21.4 Q-5.45 -22.2 -5.35 -23.25 L-6.5 -23.4 Q-6.85 -24.5 -7.85 -24.7 L-8.3 -24.6 -8.3 -24.85 -8.35 -26.4 Q-7.75 -26.95 -7.5 -26.9 L-6.55 -26.15 Q-5.75 -25.5 -5.0 -25.4 -3.75 -25.15 -3.4 -27.1 -3.15 -28.65 -3.9 -31.0 L-3.9 -31.05 -4.35 -32.75 -4.4 -33.25 -4.45 -34.3 -4.4 -34.65 Q-4.2 -36.0 -3.7 -36.6 L-3.25 -36.15 Q-3.1 -35.95 -2.55 -35.9 L-1.45 -35.85 -1.2 -35.85 -1.2 -35.65 -1.2 -34.95 M7.8 -25.5 Q7.4 -26.7 5.95 -27.05 L4.5 -26.95 Q5.05 -27.65 5.4 -28.75 L5.45 -28.9 6.15 -28.85 Q7.75 -28.85 8.55 -27.7 L7.8 -25.5 M8.95 20.5 L9.3 18.7 9.35 18.15 9.5 18.15 9.5 18.2 9.5 18.55 9.55 18.75 9.4 21.25 9.2 20.85 8.95 20.5 M8.85 25.3 Q8.3 28.55 7.35 31.65 L7.05 31.5 7.0 31.45 7.0 31.35 6.9 30.3 6.65 29.4 6.35 28.75 7.3 26.55 7.3 26.5 7.6 26.55 7.8 26.45 8.85 25.3 M-13.1 -25.8 L-12.0 -24.55 -11.9 -24.45 Q-12.15 -24.5 -12.4 -24.15 L-12.7 -23.4 Q-13.45 -22.15 -12.7 -21.45 L-11.85 -21.2 -11.95 -20.95 -11.95 -20.9 -13.6 -21.0 -13.4 -21.95 Q-13.35 -22.55 -13.9 -23.95 L-14.45 -25.5 Q-14.8 -26.75 -14.6 -27.55 L-13.1 -25.8 M-12.65 -25.15 L-12.7 -25.0 -12.6 -25.0 -12.65 -25.15 M-13.15 -18.15 L-12.45 -18.1 -11.75 -18.65 -11.55 -19.75 -11.4 -18.65 Q-11.45 -17.05 -11.05 -15.75 -11.8 -15.85 -12.4 -15.35 -13.05 -14.9 -13.2 -14.1 L-14.6 -17.8 -13.8 -17.0 Q-13.25 -16.9 -13.1 -17.55 L-13.15 -18.15" fill="#5c617c" fill-rule="evenodd" stroke="none"/>
      <path d="M16.9 -29.8 L16.9 -29.85 17.8 -31.0 18.1 -28.65 Q17.6 -18.85 16.6 -9.2 15.65 0.45 13.85 10.05 L13.45 12.35 12.1 19.2 10.8 25.25 10.1 28.15 10.05 28.15 9.75 28.3 Q8.85 28.75 8.6 30.15 L8.5 31.35 8.65 31.7 8.8 32.0 8.55 32.0 8.35 31.95 7.35 31.65 Q8.3 28.55 8.85 25.3 L9.35 24.3 9.5 23.0 9.45 21.95 9.4 21.25 9.55 18.75 9.5 18.55 9.5 18.2 9.5 18.15 9.35 18.15 9.3 18.7 8.95 20.5 8.25 20.15 7.5 20.25 7.65 19.3 7.8 18.45 9.3 11.55 9.5 10.65 11.2 3.9 13.8 -6.5 14.45 -11.55 14.5 -15.4 14.65 -19.75 14.7 -21.0 Q14.9 -26.8 14.6 -28.7 L14.55 -29.25 15.25 -28.7 Q15.75 -28.6 16.9 -29.8 M-10.85 23.05 L-10.9 23.1 -11.5 23.75 -11.75 24.1 -12.3 24.85 -12.5 23.35 Q-12.15 19.05 -12.3 14.9 L-12.8 9.55 -16.05 -8.15 -16.65 -11.05 -18.65 -12.5 -17.9 -13.3 Q-18.2 -14.7 -19.1 -15.7 L-20.4 -17.05 -19.3 -17.25 Q-18.35 -19.45 -20.15 -20.9 L-21.15 -21.8 -17.7 -20.3 Q-17.35 -19.65 -16.9 -19.6 -16.05 -19.45 -14.95 -18.2 L-14.6 -17.8 -13.2 -14.1 -13.0 -12.65 Q-13.1 -12.0 -12.75 -11.5 -12.35 -10.95 -11.75 -10.85 L-10.75 -8.75 -10.0 -7.1 -7.65 2.45 -6.35 1.3 -4.5 -0.95 Q-2.35 -4.05 -0.7 -8.1 L-0.35 -9.0 -0.95 -5.05 Q-1.35 -3.1 -4.25 2.9 L-5.6 5.6 -7.25 10.5 -7.3 10.9 -7.3 11.2 -7.3 11.3 Q-7.4 13.05 -7.95 15.7 L-8.15 16.75 -8.6 18.8 -9.4 18.85 -9.85 18.05 -11.25 17.5 Q-10.1 20.2 -10.85 23.05 M-7.7 18.25 L-6.6 15.9 -5.65 13.7 -5.85 14.65 -6.25 16.0 -6.85 18.1 -7.7 18.25 M-12.65 -25.15 L-12.6 -25.0 -12.7 -25.0 -12.65 -25.15" fill="#727e94" fill-rule="evenodd" stroke="none"/>
    </g>
  </defs>
</svg>
