<?xml version="1.0" encoding="UTF-8" standalone="no"?>
<svg xmlns:ffdec="https://www.free-decompiler.com/flash" xmlns:xlink="http://www.w3.org/1999/xlink" ffdec:objectType="frame" height="44.45px" width="42.45px" xmlns="http://www.w3.org/2000/svg">
  <g transform="matrix(1.0, 0.0, 0.0, 1.0, 19.7, 22.6)">
    <use ffdec:characterId="601" ffdec:characterName="FoodItemMC" height="44.45" id="container" transform="matrix(1.0, 0.0, 0.0, 1.0, -19.7, -22.6)" width="42.45" xlink:href="#sprite0"/>
  </g>
  <defs>
    <g id="sprite0" transform="matrix(1.0, 0.0, 0.0, 1.0, 20.0, 22.6)">
      <use ffdec:characterId="542" height="30.4" transform="matrix(1.0, 0.0, 0.0, 1.0, -18.5, -15.2)" width="40.95" xlink:href="#sprite1"/>
    </g>
    <g id="sprite1" transform="matrix(1.0, 0.0, 0.0, 1.0, 18.5, 15.2)">
      <use ffdec:characterId="541" height="30.4" transform="matrix(1.0, 0.0, 0.0, 1.0, -18.5, -15.2)" width="40.95" xlink:href="#shape0"/>
    </g>
    <g id="shape0" transform="matrix(1.0, 0.0, 0.0, 1.0, 18.5, 15.2)">
      <path d="M0.95 -13.55 L7.9 -13.1 10.75 -11.5 11.75 -11.15 13.9 -9.85 15.05 -9.45 16.6 -8.3 15.15 -9.8 14.65 -9.95 12.85 -11.6 5.55 -14.4 -1.55 -14.8 -5.45 -14.1 -9.85 -11.85 -10.8 -11.55 -11.15 -11.1 -12.05 -10.7 -13.7 -9.5 -15.35 -7.25 -13.85 -8.75 -12.3 -9.65 -12.05 -10.0 -9.75 -11.3 -9.2 -11.35 -6.6 -12.75 -2.95 -13.85 -2.15 -14.3 0.95 -13.55 M16.15 9.2 Q13.7 11.75 9.45 13.2 6.55 14.3 3.35 14.8 L-2.15 15.2 Q-3.9 15.2 -6.65 14.35 -9.3 13.75 -10.95 12.85 -12.5 12.0 -15.25 8.2 -18.1 4.3 -18.05 2.55 L-18.05 2.45 -18.05 2.25 -18.2 2.2 -18.5 1.0 -18.35 -0.8 -18.15 -3.35 Q-17.7 -5.05 -16.75 -6.65 -15.95 -8.05 -14.75 -9.45 L-13.1 -10.75 -12.65 -11.2 -11.5 -12.0 -8.45 -13.65 -7.55 -13.85 Q-6.65 -14.3 -4.7 -14.65 L-1.15 -15.15 -0.75 -15.15 -0.2 -15.2 4.75 -14.9 6.4 -14.5 6.85 -14.2 8.3 -14.0 15.1 -10.55 16.0 -9.65 16.3 -9.6 17.8 -8.1 18.65 -6.65 19.95 -1.55 19.9 -1.4 20.3 0.1 20.95 -0.15 Q21.55 -0.2 21.55 0.4 L22.15 1.3 22.2 1.7 21.95 1.45 21.4 1.05 21.25 1.6 20.75 2.65 20.9 2.8 20.75 2.95 20.1 3.4 20.0 3.25 19.95 3.2 19.75 3.1 19.45 3.7 19.0 5.05 18.8 5.35 Q17.8 7.45 16.15 9.2 M7.8 -9.25 L8.15 -9.65 9.3 -9.5 9.55 -9.0 11.5 -8.2 13.75 -6.65 14.45 -6.8 18.55 -2.1 18.0 -3.7 17.85 -3.95 17.65 -4.75 17.35 -5.0 16.25 -7.05 14.8 -7.85 14.25 -8.45 13.5 -8.15 12.55 -8.45 12.4 -8.8 10.55 -9.8 10.45 -10.05 9.45 -10.85 8.9 -10.75 8.3 -11.1 7.85 -11.15 7.4 -11.4 -0.2 -12.85 -0.8 -11.85 -2.0 -12.85 -12.8 -9.0 -16.05 -5.15 -15.05 -5.35 -11.0 -8.75 -8.9 -8.45 -8.15 -9.2 -6.9 -9.0 -5.3 -8.75 -5.15 -8.85 -3.95 -9.5 -2.25 -9.35 2.75 -9.5 3.25 -9.9 7.0 -8.6 7.75 -9.25 7.8 -9.25 M-0.15 -4.15 L2.75 -3.05 3.6 -3.25 4.0 -4.1 4.0 -2.75 5.25 -2.15 5.2 -2.55 5.3 -2.6 5.95 -2.35 6.9 -3.0 12.4 -2.95 15.1 -2.3 18.25 -0.9 18.6 -0.8 18.4 -1.1 16.7 -3.6 14.05 -4.6 15.05 -3.45 14.45 -3.3 14.0 -3.4 10.75 -6.1 4.05 -6.9 -1.4 -7.3 -2.1 -7.05 -2.9 -7.2 -3.1 -6.5 -5.0 -7.05 -6.5 -6.95 -7.9 -7.7 -9.0 -6.35 -10.4 -6.75 -10.95 -5.45 -11.6 -7.15 -16.35 -3.85 -17.0 -3.2 -17.5 -2.0 -17.45 -0.7 -16.7 -0.65 -16.0 -1.05 -13.85 -2.8 -13.45 -2.65 -13.4 -2.65 -13.3 -2.65 -13.25 -2.6 -12.85 -2.4 -8.6 -3.05 -8.35 -3.35 -7.55 -3.65 -3.6 -3.5 -1.75 -3.15 -1.55 -3.15 -1.1 -3.2 -0.4 -3.9 -0.15 -4.15 M4.45 -0.35 L2.5 -0.85 2.5 -0.8 1.6 -0.55 0.7 -0.8 -2.45 -2.35 -4.1 -0.1 -7.1 -0.05 -9.2 -2.0 -9.8 -0.65 -11.0 -0.9 -12.2 -0.65 -11.75 0.15 -12.4 0.0 -13.25 -0.35 -16.1 1.0 -16.95 1.25 -17.4 1.85 -17.1 2.5 -17.0 3.1 -16.75 3.85 -13.5 5.7 -13.45 5.5 -13.2 5.45 -12.5 5.35 -11.25 5.85 -10.0 5.3 -8.75 5.5 -8.6 4.45 -8.05 4.3 -6.9 6.05 -1.6 4.85 -0.55 3.7 0.8 5.05 3.55 5.3 4.9 3.4 6.9 4.25 7.45 4.2 8.85 5.05 9.25 4.8 9.2 4.4 10.25 4.45 11.15 4.35 12.7 4.55 16.5 2.9 16.85 3.0 18.55 2.65 18.75 2.6 19.45 2.25 19.65 1.55 19.45 1.7 19.25 0.6 17.95 0.55 17.2 1.1 16.75 1.0 16.4 1.5 15.8 1.3 15.45 1.45 13.95 0.9 13.3 0.6 11.4 0.1 10.7 0.6 10.65 0.6 10.35 0.65 9.6 0.95 7.75 -0.5 6.6 -1.3 5.65 -1.1 5.15 -0.25 4.45 -0.35 M17.95 4.35 L18.45 3.7 18.25 3.75 16.55 4.9 12.6 6.95 12.55 7.25 12.1 7.4 12.1 7.3 11.65 7.1 11.5 7.0 10.9 7.0 9.7 7.15 9.5 7.4 7.35 6.8 7.4 7.5 6.3 7.2 6.0 7.55 4.45 7.95 3.85 8.75 2.85 8.05 2.6 8.65 1.8 8.4 1.75 8.4 0.85 8.05 0.55 8.5 -0.05 8.5 Q-0.2 8.7 -0.5 8.75 L-0.6 8.6 -0.8 9.9 -0.9 9.8 -1.55 9.0 -2.3 9.1 -3.85 7.8 -6.55 6.95 -8.25 6.95 -8.45 8.05 -9.5 7.15 -11.1 7.2 -11.65 7.55 -12.25 7.35 -12.45 7.3 -12.4 7.15 -14.9 6.1 -15.55 6.15 -13.0 7.6 Q-12.85 7.65 -12.7 7.85 L-12.25 8.0 -12.35 8.1 -8.95 10.05 -7.9 11.1 -5.0 11.6 -0.7 11.45 0.15 11.85 1.9 10.5 2.65 11.05 4.35 10.2 5.0 10.35 5.1 10.55 5.1 10.75 6.0 10.8 6.1 9.7 7.25 9.85 9.7 9.55 10.3 9.25 11.1 9.85 12.25 8.9 17.65 4.45 17.95 4.35 M13.6 10.05 L6.7 12.5 Q6.8 13.2 6.4 12.4 L5.35 12.7 3.4 12.55 2.65 13.6 1.75 12.85 -4.55 12.7 -5.8 13.3 -14.15 8.9 Q-12.5 11.1 -11.0 12.1 L-6.8 13.5 Q-3.5 14.65 -2.1 14.65 L-1.95 14.65 -1.4 14.6 2.2 14.35 Q5.95 13.95 9.25 12.7 15.5 10.45 18.25 5.7 L14.25 9.0 13.6 10.05" fill="#3c5619" fill-rule="evenodd" stroke="none"/>
      <path d="M0.95 -13.55 L-2.15 -14.3 -2.95 -13.85 -6.6 -12.75 -9.2 -11.35 -9.75 -11.3 -12.05 -10.0 -12.3 -9.65 -13.85 -8.75 -15.35 -7.25 -13.7 -9.5 -12.05 -10.7 -11.15 -11.1 -10.8 -11.55 -9.85 -11.85 -5.45 -14.1 -1.55 -14.8 5.55 -14.4 12.85 -11.6 14.65 -9.95 15.15 -9.8 16.6 -8.3 15.05 -9.45 13.9 -9.85 11.75 -11.15 10.75 -11.5 7.9 -13.1 0.95 -13.55 M20.9 2.8 L20.75 2.65 21.25 1.6 21.4 1.05 21.95 1.45 22.2 1.7 22.45 2.0 22.1 2.2 21.85 2.5 20.9 2.8 M-6.9 -9.0 L-8.15 -9.2 -8.9 -8.45 -11.0 -8.75 -15.05 -5.35 -16.05 -5.15 -12.8 -9.0 -2.0 -12.85 -0.8 -11.85 -0.2 -12.85 7.4 -11.4 7.85 -11.15 8.3 -11.1 8.9 -10.75 9.45 -10.85 10.45 -10.05 10.55 -9.8 12.4 -8.8 12.55 -8.45 13.5 -8.15 14.25 -8.45 14.8 -7.85 16.25 -7.05 17.35 -5.0 17.65 -4.75 17.85 -3.95 18.0 -3.7 18.55 -2.1 14.45 -6.8 13.75 -6.65 11.5 -8.2 9.55 -9.0 9.3 -9.5 8.15 -9.65 7.8 -9.25 7.85 -9.4 Q8.05 -10.15 7.45 -10.15 L2.05 -11.0 1.5 -10.7 1.45 -10.65 Q1.15 -10.25 0.45 -10.25 L-1.05 -10.3 Q-1.4 -10.3 -1.95 -10.8 -2.5 -11.3 -3.2 -11.35 L-5.75 -9.8 -8.3 -9.55 -8.25 -9.35 -6.9 -9.0 M-0.15 -4.15 L-0.4 -3.9 -0.2 -4.15 -0.15 -4.15 M18.4 -1.1 L18.6 -0.8 18.25 -0.9 15.1 -2.3 15.8 -2.1 18.2 -1.0 18.4 -1.1 M2.5 -0.8 L2.5 -0.85 4.45 -0.35 2.5 -0.8 M7.75 -0.5 L9.6 0.95 10.35 0.65 10.65 0.6 10.7 0.6 11.4 0.1 13.3 0.6 13.95 0.9 15.45 1.45 15.8 1.3 16.4 1.5 16.75 1.0 17.2 1.1 17.95 0.55 19.25 0.6 19.45 1.7 19.65 1.55 19.45 2.25 18.75 2.6 18.55 2.65 16.85 3.0 16.5 2.9 12.7 4.55 11.15 4.35 10.25 4.45 9.2 4.4 9.25 4.8 8.85 5.05 7.45 4.2 6.9 4.25 4.9 3.4 3.55 5.3 0.8 5.05 -0.55 3.7 -1.6 4.85 -6.9 6.05 -8.05 4.3 -8.6 4.45 -8.75 5.5 -10.0 5.3 -11.25 5.85 -12.5 5.35 -13.2 5.45 -13.45 5.5 -13.5 5.7 -16.75 3.85 -17.0 3.1 -17.1 2.5 -17.4 1.85 -16.95 1.25 -16.1 1.0 -12.25 1.95 -10.85 1.6 -7.65 1.7 -7.25 1.95 -0.65 1.3 0.4 1.4 1.45 2.15 3.3 0.55 5.35 0.95 6.2 0.25 7.85 0.7 7.75 -0.5" fill="#819438" fill-rule="evenodd" stroke="none"/>
      <path d="M7.8 -9.25 L7.75 -9.25 7.0 -8.6 3.25 -9.9 2.75 -9.5 -2.25 -9.35 -3.95 -9.5 -5.15 -8.85 -5.3 -8.75 -6.9 -9.0 -8.25 -9.35 -8.3 -9.55 -5.75 -9.8 -3.2 -11.35 Q-2.5 -11.3 -1.95 -10.8 -1.4 -10.3 -1.05 -10.3 L0.45 -10.25 Q1.15 -10.25 1.45 -10.65 L1.5 -10.7 2.05 -11.0 7.45 -10.15 Q8.05 -10.15 7.85 -9.4 L7.8 -9.25 M15.1 -2.3 L12.4 -2.95 6.9 -3.0 5.95 -2.35 5.3 -2.6 5.2 -2.55 5.25 -2.15 4.0 -2.75 4.0 -4.1 3.6 -3.25 2.75 -3.05 -0.15 -4.15 -0.2 -4.15 -0.4 -3.9 -1.1 -3.2 -1.55 -3.15 -1.75 -3.15 -3.6 -3.5 -7.55 -3.65 -8.35 -3.35 -8.6 -3.05 -12.85 -2.4 -13.25 -2.6 -13.3 -2.65 -13.4 -2.65 -13.45 -2.65 -13.85 -2.8 -16.0 -1.05 -16.7 -0.65 -17.45 -0.7 -17.5 -2.0 -17.0 -3.2 -16.35 -3.85 -11.6 -7.15 -10.95 -5.45 -10.4 -6.75 -9.0 -6.35 -7.9 -7.7 -7.45 -6.9 -6.0 -5.3 -7.55 -4.45 -7.15 -3.95 -1.1 -5.15 -0.9 -5.15 -0.1 -5.35 1.25 -4.9 1.3 -4.9 3.2 -4.3 3.95 -4.95 7.5 -4.45 4.05 -6.9 10.75 -6.1 14.0 -3.4 14.45 -3.3 15.05 -3.45 14.05 -4.6 16.7 -3.6 18.4 -1.1 18.2 -1.0 15.8 -2.1 15.1 -2.3 M2.5 -0.8 L4.45 -0.35 5.15 -0.25 5.65 -1.1 6.6 -1.3 7.75 -0.5 7.85 0.7 6.2 0.25 5.35 0.95 3.3 0.55 1.45 2.15 0.4 1.4 -0.65 1.3 -7.25 1.95 -7.65 1.7 -10.85 1.6 -12.25 1.95 -16.1 1.0 -13.25 -0.35 -12.4 0.0 -11.75 0.15 -12.2 -0.65 -11.0 -0.9 -9.8 -0.65 -9.2 -2.0 -7.1 -0.05 -4.1 -0.1 -2.45 -2.35 0.7 -0.8 1.6 -0.55 2.5 -0.8" fill="#a2ab58" fill-rule="evenodd" stroke="none"/>
      <path d="M-7.9 -7.7 L-6.5 -6.95 -5.0 -7.05 -3.1 -6.5 -2.9 -7.2 -2.1 -7.05 -1.4 -7.3 4.05 -6.9 7.5 -4.45 3.95 -4.95 3.2 -4.3 1.3 -4.9 1.25 -4.9 -0.1 -5.35 -0.9 -5.15 -1.1 -5.15 -7.15 -3.95 -7.55 -4.45 -6.0 -5.3 -7.45 -6.9 -7.9 -7.7" fill="#d0d3a6" fill-rule="evenodd" stroke="none"/>
      <path d="M16.15 9.2 Q17.8 7.45 18.8 5.35 L19.0 5.05 Q18.1 7.4 16.15 9.2 M17.95 4.35 L17.65 4.45 12.25 8.9 11.1 9.85 10.3 9.25 9.7 9.55 7.25 9.85 6.1 9.7 6.0 10.8 5.1 10.75 5.1 10.55 5.0 10.35 4.35 10.2 2.65 11.05 1.9 10.5 0.15 11.85 -0.7 11.45 -5.0 11.6 -7.9 11.1 -8.95 10.05 -12.35 8.1 -12.25 8.0 -12.7 7.85 Q-12.85 7.65 -13.0 7.6 L-15.55 6.15 -14.9 6.1 -12.4 7.15 -12.45 7.3 -12.25 7.35 -11.65 7.55 -11.1 7.2 -9.5 7.15 -8.45 8.05 -8.25 6.95 -6.55 6.95 -3.85 7.8 -2.3 9.1 -1.55 9.0 -0.9 9.8 -0.8 9.9 -0.6 8.6 -0.5 8.75 Q-0.2 8.7 -0.05 8.5 L0.55 8.5 0.85 8.05 1.75 8.4 1.8 8.4 2.6 8.65 2.85 8.05 3.85 8.75 4.45 7.95 6.0 7.55 6.3 7.2 7.4 7.5 7.35 6.8 9.5 7.4 9.7 7.15 10.9 7.0 11.5 7.0 11.65 7.1 12.1 7.3 12.1 7.4 12.55 7.25 12.6 6.95 16.55 4.9 18.25 3.75 18.45 3.7 17.95 4.35 M12.25 8.9 L12.25 8.75 12.2 8.8 12.25 8.9" fill="#6b7e00" fill-rule="evenodd" stroke="none"/>
      <path d="M12.25 8.9 L12.2 8.8 12.25 8.75 12.25 8.9" fill="#374f17" fill-rule="evenodd" stroke="none"/>
      <path d="M13.6 10.05 L14.25 9.0 18.25 5.7 Q15.5 10.45 9.25 12.7 5.95 13.95 2.2 14.35 L-1.4 14.6 -1.95 14.65 -2.1 14.65 Q-3.5 14.65 -6.8 13.5 L-11.0 12.1 Q-12.5 11.1 -14.15 8.9 L-5.8 13.3 -4.55 12.7 1.75 12.85 2.65 13.6 3.4 12.55 5.35 12.7 6.4 12.4 Q6.8 13.2 6.7 12.5 L13.6 10.05" fill="#576600" fill-rule="evenodd" stroke="none"/>
      <path d="M-0.9 -5.15 L-1.1 -5.15" fill="none" stroke="#33ff00" stroke-linecap="round" stroke-linejoin="round" stroke-width="0.05"/>
    </g>
  </defs>
</svg>
