<?xml version="1.0" encoding="UTF-8" standalone="no"?>
<svg xmlns:ffdec="https://www.free-decompiler.com/flash" xmlns:xlink="http://www.w3.org/1999/xlink" ffdec:objectType="morphshape" height="20.0px" width="15.2px" xmlns="http://www.w3.org/2000/svg">
  <g transform="matrix(1.0, 0.0, 0.0, 1.0, 7.25, 9.95)">
    <path d="M-6.95 1.4 Q-7.35 4.9 -4.15 7.55 -0.95 10.2 1.95 10.05 4.85 9.9 5.95 9.05 7.05 8.2 7.85 1.4 8.65 -5.45 1.5 -6.0 0.85 -8.95 0.5 -9.35 L-2.25 -9.15 Q-3.45 -9.15 -3.95 -7.9 L-5.5 -4.35 Q-6.6 -2.1 -6.95 1.4" fill="#990000" fill-rule="evenodd" stroke="none">
      <animate attributeName="fill" dur="2s" repeatCount="indefinite" values="#990000;#990001"/>
      <animate attributeName="fill-opacity" dur="2s" repeatCount="indefinite" values="1.0;1.0"/>
      <animate attributeName="d" dur="2s" repeatCount="indefinite" values="M-6.95 1.4 Q-7.35 4.9 -4.15 7.55 -0.95 10.2 1.95 10.05 4.85 9.9 5.95 9.05 7.05 8.2 7.85 1.4 8.65 -5.45 1.5 -6.0 0.85 -8.95 0.5 -9.35 L-2.25 -9.15 Q-3.45 -9.15 -3.95 -7.9 L-5.5 -4.35 Q-6.6 -2.1 -6.95 1.4;M-7.2 -0.55 Q-7.55 4.3 -3.5 7.15 0.4 9.85 4.95 9.95 5.3 9.6 5.6 9.25 7.15 6.3 7.2 2.6 7.05 -4.4 2.4 -6.2 0.85 -8.95 -0.05 -9.9 L-1.2 -9.95 Q-3.05 -9.9 -4.55 -9.1 L-6.7 -3.5 Q-6.95 -2.0 -7.2 -0.55"/>
    </path>
    <path d="M-6.95 1.4 Q-6.6 -2.1 -5.5 -4.35 L-3.95 -7.9 Q-3.45 -9.15 -2.25 -9.15 L0.5 -9.35 Q0.85 -8.95 1.5 -6.0 8.65 -5.45 7.85 1.4 7.05 8.2 5.95 9.05 4.85 9.9 1.95 10.05 -0.95 10.2 -4.15 7.55 -7.35 4.9 -6.95 1.4 Z" fill="none" stroke="#000000" stroke-linecap="round" stroke-linejoin="round" stroke-opacity="0.0" stroke-width="0.0">
      <animate attributeName="stroke" dur="2s" repeatCount="indefinite" values="#000000;#000001"/>
      <animate attributeName="stroke-width" dur="2s" repeatCount="indefinite" values="0.0;0.0"/>
      <animate attributeName="fill-opacity" dur="2s" repeatCount="indefinite" values="0.0;0.0"/>
      <animate attributeName="d" dur="2s" repeatCount="indefinite" values="M-6.95 1.4 Q-6.6 -2.1 -5.5 -4.35 L-3.95 -7.9 Q-3.45 -9.15 -2.25 -9.15 L0.5 -9.35 Q0.85 -8.95 1.5 -6.0 8.65 -5.45 7.85 1.4 7.05 8.2 5.95 9.05 4.85 9.9 1.95 10.05 -0.95 10.2 -4.15 7.55 -7.35 4.9 -6.95 1.4 Z;M-7.2 -0.55 Q-6.95 -2.0 -6.7 -3.5 L-4.55 -9.1 Q-3.05 -9.9 -1.2 -9.95 L-0.05 -9.9 Q0.85 -8.95 2.4 -6.2 7.05 -4.4 7.2 2.6 7.15 6.3 5.6 9.25 5.3 9.6 4.95 9.95 0.4 9.85 -3.5 7.15 -7.55 4.3 -7.2 -0.55 Z"/>
    </path>
  </g>
</svg>
