<?xml version="1.0" encoding="UTF-8" standalone="no"?>
<svg xmlns:ffdec="https://www.free-decompiler.com/flash" xmlns:xlink="http://www.w3.org/1999/xlink" ffdec:objectType="morphshape" height="18.1px" width="11.1px" xmlns="http://www.w3.org/2000/svg">
  <g transform="matrix(1.0, 0.0, 0.0, 1.0, 5.75, 9.5)">
    <path d="M-4.7 0.2 L-4.7 0.2 Q-4.8 2.3 -4.05 3.9 L-3.55 4.8 Q-2.35 6.6 0.65 6.75 L0.95 6.75 Q2.8 6.8 3.25 7.4 3.55 7.85 3.15 8.6 L3.85 8.6 4.55 8.5 5.25 8.5 5.3 8.3 5.35 7.95 5.35 7.75 5.3 6.8 5.2 6.45 Q4.35 5.15 2.0 4.4 L1.25 4.1 0.6 3.9 -0.95 3.05 Q-1.4 2.6 -1.45 1.7 L-1.45 1.05 Q-1.3 -0.35 0.45 -3.3 L0.45 -3.3 Q1.55 -4.95 2.6 -6.6 L3.1 -7.25 4.1 -8.4 3.9 -8.6 2.8 -9.5 2.2 -8.65 Q0.45 -6.1 -1.35 -4.7 L-2.05 -4.15 Q-4.55 -2.55 -4.7 0.2" fill="#76015b" fill-rule="evenodd" stroke="none">
      <animate attributeName="fill" dur="2s" repeatCount="indefinite" values="#76015b;#76015c"/>
      <animate attributeName="fill-opacity" dur="2s" repeatCount="indefinite" values="1.0;1.0"/>
      <animate attributeName="d" dur="2s" repeatCount="indefinite" values="M-4.7 0.2 L-4.7 0.2 Q-4.8 2.3 -4.05 3.9 L-3.55 4.8 Q-2.35 6.6 0.65 6.75 L0.95 6.75 Q2.8 6.8 3.25 7.4 3.55 7.85 3.15 8.6 L3.85 8.6 4.55 8.5 5.25 8.5 5.3 8.3 5.35 7.95 5.35 7.75 5.3 6.8 5.2 6.45 Q4.35 5.15 2.0 4.4 L1.25 4.1 0.6 3.9 -0.95 3.05 Q-1.4 2.6 -1.45 1.7 L-1.45 1.05 Q-1.3 -0.35 0.45 -3.3 L0.45 -3.3 Q1.55 -4.95 2.6 -6.6 L3.1 -7.25 4.1 -8.4 3.9 -8.6 2.8 -9.5 2.2 -8.65 Q0.45 -6.1 -1.35 -4.7 L-2.05 -4.15 Q-4.55 -2.55 -4.7 0.2;M-5.75 0.9 L-5.75 1.05 Q-5.6 1.95 -4.2 4.3 L-3.5 5.2 Q-1.85 6.85 1.15 6.95 L1.55 7.1 Q2.55 7.5 3.15 8.6 3.8 8.55 4.45 8.5 L5.25 8.5 5.35 7.75 5.3 7.1 5.3 6.8 5.2 6.45 5.1 6.45 4.2 6.1 3.9 6.0 Q2.2 5.35 0.7 4.35 L-0.1 3.8 -0.6 3.35 -1.4 2.05 Q-1.5 1.3 -1.6 0.55 L-1.55 -0.05 Q-1.3 -2.25 0.75 -4.4 L0.75 -4.4 Q2.0 -6.0 3.65 -7.25 L4.3 -7.7 3.2 -8.85 3.0 -9.05 2.1 -8.35 1.5 -7.9 Q-0.7 -6.15 -2.9 -4.45 L-3.65 -3.95 Q-5.2 -2.55 -5.75 0.9"/>
    </path>
    <path d="M-4.7 0.2 Q-4.55 -2.55 -2.05 -4.15 L-1.35 -4.7 Q0.45 -6.1 2.2 -8.65 L2.8 -9.5 3.9 -8.6 4.1 -8.4 3.1 -7.25 2.6 -6.6 Q1.55 -4.95 0.45 -3.3 L0.45 -3.3 Q-1.3 -0.35 -1.45 1.05 L-1.45 1.7 Q-1.4 2.6 -0.95 3.05 L0.6 3.9 1.25 4.1 2.0 4.4 Q4.35 5.15 5.2 6.45 L5.3 6.8 5.35 7.75 5.35 7.95 5.3 8.3 5.25 8.5 4.55 8.5 3.85 8.6 3.15 8.6 Q3.55 7.85 3.25 7.4 2.8 6.8 0.95 6.75 L0.65 6.75 Q-2.35 6.6 -3.55 4.8 L-4.05 3.9 Q-4.8 2.3 -4.7 0.2 L-4.7 0.2 Z" fill="none" stroke="#000000" stroke-linecap="round" stroke-linejoin="round" stroke-opacity="0.0" stroke-width="0.0">
      <animate attributeName="stroke" dur="2s" repeatCount="indefinite" values="#000000;#000001"/>
      <animate attributeName="stroke-width" dur="2s" repeatCount="indefinite" values="0.0;0.0"/>
      <animate attributeName="fill-opacity" dur="2s" repeatCount="indefinite" values="0.0;0.0"/>
      <animate attributeName="d" dur="2s" repeatCount="indefinite" values="M-4.7 0.2 Q-4.55 -2.55 -2.05 -4.15 L-1.35 -4.7 Q0.45 -6.1 2.2 -8.65 L2.8 -9.5 3.9 -8.6 4.1 -8.4 3.1 -7.25 2.6 -6.6 Q1.55 -4.95 0.45 -3.3 L0.45 -3.3 Q-1.3 -0.35 -1.45 1.05 L-1.45 1.7 Q-1.4 2.6 -0.95 3.05 L0.6 3.9 1.25 4.1 2.0 4.4 Q4.35 5.15 5.2 6.45 L5.3 6.8 5.35 7.75 5.35 7.95 5.3 8.3 5.25 8.5 4.55 8.5 3.85 8.6 3.15 8.6 Q3.55 7.85 3.25 7.4 2.8 6.8 0.95 6.75 L0.65 6.75 Q-2.35 6.6 -3.55 4.8 L-4.05 3.9 Q-4.8 2.3 -4.7 0.2 L-4.7 0.2 Z;M-5.75 0.9 Q-5.2 -2.55 -3.65 -3.95 L-2.9 -4.45 Q-0.7 -6.15 1.5 -7.9 L2.1 -8.35 3.0 -9.05 3.2 -8.85 4.3 -7.7 3.65 -7.25 Q2.0 -6.0 0.75 -4.4 L0.75 -4.4 Q-1.3 -2.25 -1.55 -0.05 L-1.6 0.55 Q-1.5 1.3 -1.4 2.05 L-0.6 3.35 -0.1 3.8 0.7 4.35 Q2.2 5.35 3.9 6.0 L4.2 6.1 5.1 6.45 5.2 6.45 5.3 6.8 5.3 7.1 5.35 7.75 5.25 8.5 4.45 8.5 Q3.8 8.55 3.15 8.6 2.55 7.5 1.55 7.1 L1.15 6.95 Q-1.85 6.85 -3.5 5.2 L-4.2 4.3 Q-5.6 1.95 -5.75 1.05 L-5.75 0.9 Z"/>
    </path>
  </g>
</svg>
