<?xml version="1.0" encoding="UTF-8" standalone="no"?>
<svg xmlns:ffdec="https://www.free-decompiler.com/flash" xmlns:xlink="http://www.w3.org/1999/xlink" ffdec:objectType="frame" height="19.05px" width="27.1px" xmlns="http://www.w3.org/2000/svg">
  <g transform="matrix(1.0, 0.0, 0.0, 1.0, 13.55, 9.55)">
    <use ffdec:characterId="1672" height="19.05" transform="matrix(1.0, 0.0, 0.0, 1.0, -13.55, -9.55)" width="27.1" xlink:href="#shape0"/>
  </g>
  <defs>
    <g id="shape0" transform="matrix(1.0, 0.0, 0.0, 1.0, 13.55, 9.55)">
      <path d="M3.0 5.2 L3.15 4.9 Q3.5 4.05 4.7 2.6 5.6 1.5 6.35 1.3 6.9 1.15 7.35 1.55 9.3 0.65 9.7 1.85 L9.8 2.55 7.85 4.9 7.05 5.85 5.8 5.65 5.4 5.5 6.25 4.9 8.05 2.9 Q8.3 2.65 7.65 2.65 L6.95 2.7 5.6 4.1 4.85 4.9 3.3 5.85 3.1 6.0 Q2.9 6.05 2.9 5.65 L3.0 5.2 M5.95 -1.05 L5.95 -1.15 6.0 -1.4 5.95 -1.5 6.05 -2.1 7.4 -2.1 Q9.05 -2.1 9.3 -1.1 L9.3 -0.25 9.3 -0.2 9.3 -0.1 Q9.15 0.4 8.3 0.4 7.9 0.4 7.35 0.0 L6.9 0.15 Q6.2 0.15 6.0 -0.45 L5.95 -1.05 M-7.6 -4.9 L-7.7 -5.5 Q-7.7 -6.4 -5.65 -6.7 -3.6 -7.05 -2.85 -6.1 L-2.85 -6.05 -2.85 -5.65 Q-3.85 -5.55 -5.3 -4.9 -6.5 -4.35 -6.6 -4.35 -7.3 -4.35 -7.6 -4.9 M-5.85 8.75 L-6.45 8.65 -6.55 7.9 -6.75 7.35 -6.8 7.2 -7.05 6.1 -6.95 5.5 -6.5 5.4 -6.8 4.9 -7.45 3.85 Q-8.4 2.15 -9.1 2.15 -9.6 2.15 -9.8 2.6 -10.0 3.0 -10.7 3.0 L-11.7 2.9 -11.8 2.1 -11.7 1.15 Q-11.35 -0.45 -9.35 1.15 L-8.7 1.75 -7.45 3.05 -7.35 3.15 -5.95 4.9 -5.6 5.35 -5.45 5.4 -4.55 6.1 -4.5 6.1 -4.6 5.95 -5.2 5.15 -5.2 4.9 Q-5.15 3.15 -4.4 3.9 L-4.45 3.5 -4.45 3.05 Q-4.45 1.75 -3.0 1.95 -1.6 2.15 -1.6 3.0 L-1.95 4.7 -2.15 5.4 -1.85 5.35 Q-1.3 5.35 -0.9 5.65 -0.6 5.9 -0.6 6.15 L-0.65 6.7 Q-0.85 7.5 -1.7 7.65 L-4.7 7.65 -5.35 6.9 Q-5.2 7.35 -5.2 8.25 L-5.45 8.65 -5.85 8.75 M-5.4 -2.95 L-4.45 -2.1 -5.0 -1.55 -6.2 -1.35 -7.45 -1.4 -7.5 -1.85 -7.55 -2.1 Q-7.55 -2.55 -6.95 -2.85 L-5.95 -3.1 -5.4 -2.95" fill="#ff0000" fill-rule="evenodd" stroke="none"/>
      <path d="M2.0 5.95 L3.0 5.2 2.9 5.65 Q2.9 6.05 3.1 6.0 L3.3 5.85 4.85 4.9 5.6 4.1 6.95 2.7 7.65 2.65 Q8.3 2.65 8.05 2.9 L6.25 4.9 5.4 5.5 5.8 5.65 7.05 5.85 7.85 4.9 9.8 2.55 Q10.25 4.0 9.7 4.9 L8.65 5.8 Q5.2 7.6 4.8 8.15 L2.3 8.15 2.55 7.1 2.0 5.95 M6.35 1.3 L6.0 0.9 5.8 -0.25 Q5.8 -0.7 5.95 -1.05 L6.0 -0.45 Q6.2 0.15 6.9 0.15 L7.35 0.0 Q7.9 0.4 8.3 0.4 9.15 0.4 9.3 -0.1 L9.3 0.05 10.8 -1.25 12.25 -3.45 12.75 -4.2 12.95 -4.05 Q13.55 -3.5 13.55 -2.35 13.55 -0.85 12.0 0.5 10.85 1.55 9.7 1.85 9.3 0.65 7.35 1.55 6.9 1.15 6.35 1.3 M-7.6 -4.75 L-7.6 -4.9 Q-7.3 -4.35 -6.6 -4.35 -6.5 -4.35 -5.3 -4.9 -3.85 -5.55 -2.85 -5.65 L-2.85 -6.05 Q-1.95 -5.7 -1.95 -5.0 -1.95 -4.65 -2.1 -4.45 L-2.4 -4.35 -3.45 -4.35 Q-4.55 -4.35 -5.0 -3.75 -5.45 -3.15 -6.2 -3.15 -7.35 -3.15 -7.6 -3.9 L-7.6 -4.75 M-0.35 7.8 L-1.15 8.95 -1.2 8.95 -3.6 9.4 Q-5.05 9.4 -5.85 8.75 L-5.45 8.65 -5.2 8.25 Q-5.2 7.35 -5.35 6.9 L-4.7 7.65 -1.7 7.65 Q-0.85 7.5 -0.65 6.7 L-0.35 7.75 -0.35 7.8 M-6.8 7.2 Q-7.5 5.9 -9.2 5.9 -11.25 5.95 -11.8 4.9 L-11.95 4.4 Q-12.35 2.0 -12.95 1.4 L-12.95 -2.1 -12.4 -2.25 Q-11.55 -2.25 -11.6 -1.85 -11.65 -0.95 -11.1 -0.1 L-10.95 -0.1 -10.55 -1.35 -9.8 -2.3 -9.6 -2.1 -9.1 -1.6 -9.35 -0.6 -9.2 0.55 -8.85 -0.7 -8.5 -1.1 -8.4 -1.05 -7.95 -0.8 -7.2 -0.45 Q-7.55 -0.8 -7.55 -1.4 L-7.5 -1.85 -7.45 -1.4 -6.2 -1.35 -5.0 -1.55 -4.45 -2.1 -5.4 -2.95 Q-4.15 -2.95 -4.1 -1.65 L-4.1 -1.55 Q-4.1 -0.9 -4.7 -0.5 -4.95 -0.3 -5.3 -0.2 L-6.1 -0.1 -6.9 -0.25 -7.15 1.05 -7.15 1.15 Q-7.25 2.45 -7.45 3.05 L-8.7 1.75 -9.35 1.15 Q-11.35 -0.45 -11.7 1.15 L-11.8 2.1 -11.7 2.9 -10.7 3.0 Q-10.0 3.0 -9.8 2.6 -9.6 2.15 -9.1 2.15 -8.4 2.15 -7.45 3.85 L-6.8 4.9 -6.5 5.4 -6.95 5.5 -7.05 6.1 -6.8 7.2 M-5.9 1.45 L-5.75 2.1 -5.5 3.6 -5.5 3.9 -5.45 3.85 -4.7 3.0 -4.6 2.9 -4.45 3.5 -4.4 3.9 Q-5.15 3.15 -5.2 4.9 L-5.2 5.15 -4.6 5.95 -4.5 6.1 -4.55 6.1 -5.45 5.4 -5.6 5.35 -5.95 4.9 -7.35 3.15 -6.05 1.65 -5.9 1.45" fill="#9f0000" fill-rule="evenodd" stroke="none"/>
      <path d="M-9.1 -1.6 L-9.6 -2.1 -9.8 -2.3 -9.7 -2.35 -9.15 -2.15 -8.55 -2.2 -9.05 -1.7 -9.1 -1.6 M-7.5 -1.85 L-7.55 -1.4 Q-7.55 -0.8 -7.2 -0.45 L-7.95 -0.8 -8.4 -1.05 -8.5 -1.1 -7.85 -1.6 -7.5 -1.85 M-5.3 -0.2 Q-4.95 -0.3 -4.7 -0.5 -4.1 -0.9 -4.1 -1.55 L-4.1 -1.65 -2.35 -2.1 -1.1 -1.85 Q-2.2 -1.85 -2.7 -0.25 L-3.1 1.5 Q-2.05 -0.6 0.4 -0.45 -0.45 1.0 -0.45 2.85 L-0.2 4.3 -0.05 4.9 0.0 5.25 0.05 5.8 0.05 6.15 -0.1 6.05 -0.1 6.3 Q-0.1 7.3 -0.35 7.8 L-0.35 7.75 -0.65 6.7 -0.6 6.15 Q-0.6 5.9 -0.9 5.65 -1.3 5.35 -1.85 5.35 L-2.15 5.4 -1.95 4.7 -1.6 3.0 Q-1.6 2.15 -3.0 1.95 -4.45 1.75 -4.45 3.05 L-4.45 3.5 -4.6 2.9 -4.7 3.0 -5.45 3.85 -5.5 3.9 -5.5 3.6 -5.75 2.1 -5.9 1.45 -5.8 1.15 -5.6 0.45 -5.55 0.45 -5.3 -0.2" fill="#cccccc" fill-rule="evenodd" stroke="none"/>
      <path d="M2.0 5.95 L1.85 6.05 1.75 5.55 1.5 4.9 1.4 4.65 0.9 3.05 Q0.9 2.1 1.95 1.0 3.0 -0.15 3.0 -2.25 3.0 -3.7 2.1 -3.65 L2.05 -3.45 0.6 -4.0 -2.1 -4.45 Q-1.95 -4.65 -1.95 -5.0 -1.95 -5.7 -2.85 -6.05 L-2.85 -6.1 Q-3.6 -7.05 -5.65 -6.7 -7.7 -6.4 -7.7 -5.5 L-7.6 -4.9 -7.6 -4.75 -10.45 -4.75 -10.85 -4.85 -11.35 -4.9 -11.65 -4.85 -11.75 -4.95 Q-10.55 -6.1 -8.15 -7.5 -4.55 -9.65 1.4 -9.55 7.3 -9.45 10.2 -6.95 L12.9 -4.4 12.75 -4.2 12.25 -3.45 10.8 -1.25 9.3 0.05 9.3 -0.1 9.3 -0.2 9.3 -0.25 9.3 -1.1 Q9.05 -2.1 7.4 -2.1 L6.05 -2.1 5.95 -1.5 6.0 -1.4 5.95 -1.15 5.95 -1.05 Q5.8 -0.7 5.8 -0.25 L6.0 0.9 6.35 1.3 Q5.6 1.5 4.7 2.6 3.5 4.05 3.15 4.9 L3.0 5.2 2.0 5.95" fill="#ffcc99" fill-rule="evenodd" stroke="none"/>
      <path d="M-2.1 -4.45 L0.6 -4.0 2.05 -3.45 2.1 -3.65 Q3.0 -3.7 3.0 -2.25 3.0 -0.15 1.95 1.0 0.9 2.1 0.9 3.05 L1.4 4.65 1.5 4.9 1.75 5.55 1.85 6.05 2.0 5.95 2.55 7.1 2.3 8.15 2.2 8.35 1.65 9.5 1.05 8.95 0.65 8.7 0.55 8.65 -0.35 7.8 Q-0.1 7.3 -0.1 6.3 L-0.1 6.05 0.05 6.15 0.05 5.8 0.0 5.25 -0.05 4.9 -0.2 4.3 -0.45 2.85 Q-0.45 1.0 0.4 -0.45 -2.05 -0.6 -3.1 1.5 L-2.7 -0.25 Q-2.2 -1.85 -1.1 -1.85 L-2.35 -2.1 -4.1 -1.65 Q-4.15 -2.95 -5.4 -2.95 L-5.95 -3.1 -6.95 -2.85 Q-7.55 -2.55 -7.55 -2.1 L-7.5 -1.85 -7.85 -1.6 -8.5 -1.1 -8.85 -0.7 -9.2 0.55 -9.35 -0.6 -9.1 -1.6 -9.05 -1.7 -8.55 -2.2 -9.15 -2.15 -9.7 -2.35 -9.8 -2.3 -10.55 -1.35 -10.95 -0.1 -11.1 -0.1 Q-11.65 -0.95 -11.6 -1.85 -11.55 -2.25 -12.4 -2.25 L-12.95 -2.1 -13.15 -1.95 -13.55 -1.55 -12.8 -3.7 Q-12.4 -4.5 -11.6 -4.8 L-11.65 -4.85 -11.35 -4.9 -10.85 -4.85 -10.45 -4.75 -7.6 -4.75 -7.6 -3.9 Q-7.35 -3.15 -6.2 -3.15 -5.45 -3.15 -5.0 -3.75 -4.55 -4.35 -3.45 -4.35 L-2.4 -4.35 -2.1 -4.45 M-7.45 3.05 Q-7.25 2.45 -7.15 1.15 L-7.15 1.05 -6.9 -0.25 -6.1 -0.1 -5.3 -0.2 -5.55 0.45 -5.6 0.45 -5.8 1.15 -5.9 1.45 -6.05 1.65 -7.35 3.15 -7.45 3.05" fill="#eeeeee" fill-rule="evenodd" stroke="none"/>
    </g>
  </defs>
</svg>
