<?xml version="1.0" encoding="UTF-8" standalone="no"?>
<svg xmlns:ffdec="https://www.free-decompiler.com/flash" xmlns:xlink="http://www.w3.org/1999/xlink" ffdec:objectType="frame" height="180.0px" width="126.5px" xmlns="http://www.w3.org/2000/svg">
  <g transform="matrix(1.0, 0.0, 0.0, 1.0, 6.5, 0.0)">
    <use ffdec:characterId="2778" ffdec:characterName="game_fla.window1bg_160" height="180.0" id="bg" transform="matrix(1.0, 0.0, 0.0, 1.0, 0.0, 0.0)" width="120.0" xlink:href="#sprite0"/>
    <clipPath id="clipPath0" transform="matrix(1.0, 0.0, 0.0, 0.7, 30.0, 0.0)">
      <use ffdec:characterId="2779" height="90.0" transform="matrix(1.0, 0.0, 0.0, 1.0, -30.0, 0.0)" width="60.0" xlink:href="#shape1"/>
    </clipPath>
    <g clip-path="url(#clipPath0)">
      <use ffdec:characterId="2779" height="90.0" transform="matrix(1.0, 0.0, 0.0, 1.0, 0.0, 0.0)" width="60.0" xlink:href="#shape1"/>
      <filter id="filter0">
        <feConvolveMatrix divisor="9.0" in="SourceGraphic" kernelMatrix="1 1 1 1 1 1 1 1 1" order="3 3" result="filterResult0"/>
      </filter>
      <use ffdec:characterId="2782" filter="url(#filter0)" height="82.5" transform="matrix(1.0, 0.0, 0.0, 1.0, 3.0, 2.5)" width="54.5" xlink:href="#sprite2"/>
      <filter id="filter1">
        <feConvolveMatrix divisor="9.0" in="SourceGraphic" kernelMatrix="1 1 1 1 1 1 1 1 1" order="3 3" result="filterResult1"/>
      </filter>
      <use ffdec:characterId="2784" filter="url(#filter1)" height="48.5" id="frameShadow" transform="matrix(1.0, 0.0, 0.0, 1.0, 2.5, 13.0)" width="55.0" xlink:href="#sprite3"/>
    </g>
    <use ffdec:characterId="2786" height="47.0" id="frame" transform="matrix(1.0, 0.0, 0.0, 1.0, 0.0, 10.5)" width="60.0" xlink:href="#sprite4"/>
    <use ffdec:characterId="2787" height="100.0" transform="matrix(1.0, 0.0, 0.0, 1.0, -6.5, 0.0)" width="70.5" xlink:href="#shape5"/>
    <use ffdec:characterId="2789" height="40.0" id="ac" transform="matrix(1.0, 0.0, 0.0, 1.0, 0.0, 55.0)" width="55.0" xlink:href="#sprite5"/>
  </g>
  <defs>
    <g id="sprite0" transform="matrix(1.0, 0.0, 0.0, 1.0, 0.0, 0.0)">
      <use ffdec:characterId="819" height="2.0" transform="matrix(6.0, 0.0, 0.0, 45.0, 0.0, 0.0)" width="10.0" xlink:href="#shape0"/>
    </g>
    <g id="shape0" transform="matrix(1.0, 0.0, 0.0, 1.0, -2.05, -6.0)">
      <path d="M12.05 6.0 L12.05 8.0 2.05 8.0 2.05 6.0 12.05 6.0" fill="#000000" fill-rule="evenodd" stroke="none"/>
    </g>
    <g id="shape1" transform="matrix(1.0, 0.0, 0.0, 1.0, 0.0, 0.0)">
      <path d="M60.0 90.0 L0.0 90.0 0.0 0.0 60.0 0.0 60.0 90.0" fill="#cbd0d3" fill-rule="evenodd" stroke="none"/>
    </g>
    <g id="sprite2" transform="matrix(1.0, 0.0, 0.0, 1.0, 2.0, 2.5)">
      <use ffdec:characterId="2781" height="82.5" transform="matrix(1.0, 0.0, 0.0, 1.0, -2.0, -2.5)" width="54.5" xlink:href="#shape2"/>
    </g>
    <g id="shape2" transform="matrix(1.0, 0.0, 0.0, 1.0, 2.0, 2.5)">
      <path d="M52.5 -2.5 L52.5 38.0 48.0 38.0 48.0 4.0 3.5 4.0 0.0 4.0 -2.0 4.0 -2.0 -2.5 52.5 -2.5 M52.5 46.0 L52.5 80.0 48.0 80.0 48.0 46.0 -2.0 46.0 -2.0 40.5 52.5 40.5 52.5 44.75 52.5 46.0" fill="#8d9193" fill-rule="evenodd" stroke="none"/>
    </g>
    <g id="sprite3" transform="matrix(1.0, 0.0, 0.0, 1.0, 4.5, 1.5)">
      <use ffdec:characterId="2783" height="48.5" transform="matrix(1.0, 0.0, 0.0, 1.0, -4.5, -1.5)" width="55.0" xlink:href="#shape3"/>
    </g>
    <g id="shape3" transform="matrix(1.0, 0.0, 0.0, 1.0, 4.5, 1.5)">
      <path d="M47.5 -1.5 L47.5 2.75 47.5 4.0 47.5 38.0 44.0 38.0 44.0 4.0 39.0 4.0 -2.5 4.0 -2.5 0.0 -2.5 -1.5 39.0 -1.5 44.0 -1.5 47.5 -1.5 M50.5 47.0 L-4.5 47.0 -4.5 42.0 50.5 42.0 50.5 45.45 50.5 47.0" fill="#8d9193" fill-rule="evenodd" stroke="none"/>
    </g>
    <g id="sprite4" transform="matrix(1.0, 0.0, 0.0, 1.0, 0.0, 0.0)">
      <use ffdec:characterId="2785" height="47.0" transform="matrix(1.0, 0.0, 0.0, 1.0, 0.0, 0.0)" width="60.0" xlink:href="#shape4"/>
    </g>
    <g id="shape4" transform="matrix(1.0, 0.0, 0.0, 1.0, 0.0, 0.0)">
      <path d="M53.0 6.75 L53.0 4.0 51.0 4.0 46.0 4.0 7.0 4.0 7.0 42.0 51.0 42.0 53.0 42.0 53.0 8.0 53.0 6.75 M51.0 0.0 L60.0 0.0 60.0 6.75 60.0 47.0 0.0 47.0 0.0 0.0 46.0 0.0 51.0 0.0" fill="#161c1d" fill-rule="evenodd" stroke="none"/>
      <path d="M53.0 6.75 L53.0 8.0 53.0 42.0 51.0 42.0 7.0 42.0 7.0 4.0 46.0 4.0 51.0 4.0 53.0 4.0 53.0 6.75" fill="#7ca5b6" fill-opacity="0.2509804" fill-rule="evenodd" stroke="none"/>
    </g>
    <g id="shape5" transform="matrix(1.0, 0.0, 0.0, 1.0, 6.5, 0.0)">
      <path d="M64.0 95.0 L61.5 100.0 53.0 100.0 48.0 100.0 -6.5 100.0 -6.5 95.0 -4.0 90.0 -4.0 95.0 48.0 95.0 53.0 95.0 64.0 95.0" fill="#000000" fill-opacity="0.29803923" fill-rule="evenodd" stroke="none"/>
      <path d="M60.0 90.0 L64.0 90.0 64.0 95.0 53.0 95.0 48.0 95.0 -4.0 95.0 -4.0 90.0 0.0 90.0 48.0 90.0 53.0 90.0 60.0 90.0" fill="#f1e7dd" fill-rule="evenodd" stroke="none"/>
      <path d="M32.5 43.0 L27.5 43.0 27.5 42.0 32.5 42.0 32.5 43.0" fill="#333333" fill-rule="evenodd" stroke="none"/>
      <path d="M32.5 43.0 L53.0 43.0 55.0 43.0 55.0 5.0 5.0 5.0 5.0 43.0 27.5 43.0 32.5 43.0 M0.0 90.0 L0.0 0.0 60.0 0.0 60.0 40.75 60.0 49.75 60.0 90.0 53.0 90.0 48.0 90.0 0.0 90.0 M55.0 51.0 L55.0 49.75 55.0 47.0 5.0 47.0 5.0 85.0 48.0 85.0 53.0 85.0 55.0 85.0 55.0 51.0" fill="#161c1d" fill-rule="evenodd" stroke="none"/>
      <path d="M27.5 43.0 L5.0 43.0 5.0 5.0 55.0 5.0 55.0 43.0 53.0 43.0 32.5 43.0 32.5 42.0 27.5 42.0 27.5 43.0" fill="#7ca5b6" fill-opacity="0.2509804" fill-rule="evenodd" stroke="none"/>
    </g>
    <g id="sprite5" transform="matrix(1.0, 0.0, 0.0, 1.0, 5.0, 0.0)">
      <use ffdec:characterId="2788" height="40.0" transform="matrix(1.0, 0.0, 0.0, 1.0, -5.0, 0.0)" width="55.0" xlink:href="#shape6"/>
    </g>
    <g id="shape6" transform="matrix(1.0, 0.0, 0.0, 1.0, 5.0, 0.0)">
      <path d="M48.0 8.0 L48.0 10.0 2.0 10.0 2.0 8.0 48.0 8.0 M48.0 12.0 L48.0 14.0 2.0 14.0 2.0 12.0 48.0 12.0 M48.0 16.0 L48.0 18.0 2.0 18.0 2.0 16.0 48.0 16.0 M48.0 20.0 L48.0 22.0 2.0 22.0 2.0 20.0 48.0 20.0 M48.0 24.0 L48.0 26.0 2.0 26.0 2.0 24.0 48.0 24.0 M2.0 6.0 L2.0 4.0 48.0 4.0 48.0 6.0 2.0 6.0" fill="#666666" fill-rule="evenodd" stroke="none"/>
      <path d="M48.0 8.0 L48.0 6.0 48.0 4.0 48.0 2.0 2.0 2.0 2.0 4.0 2.0 6.0 2.0 8.0 2.0 10.0 2.0 12.0 2.0 14.0 2.0 16.0 2.0 18.0 2.0 20.0 2.0 22.0 2.0 24.0 2.0 26.0 2.0 28.0 48.0 28.0 48.0 26.0 48.0 24.0 48.0 22.0 48.0 20.0 48.0 18.0 48.0 16.0 48.0 14.0 48.0 12.0 48.0 10.0 48.0 8.0 M50.0 30.0 L0.0 30.0 0.0 0.0 50.0 0.0 50.0 30.0" fill="#999999" fill-rule="evenodd" stroke="none"/>
      <path d="M48.0 6.0 L48.0 8.0 2.0 8.0 2.0 6.0 48.0 6.0 M48.0 10.0 L48.0 12.0 2.0 12.0 2.0 10.0 48.0 10.0 M48.0 14.0 L48.0 16.0 2.0 16.0 2.0 14.0 48.0 14.0 M48.0 18.0 L48.0 20.0 2.0 20.0 2.0 18.0 48.0 18.0 M48.0 22.0 L48.0 24.0 2.0 24.0 2.0 22.0 48.0 22.0 M48.0 26.0 L48.0 28.0 2.0 28.0 2.0 26.0 48.0 26.0 M2.0 4.0 L2.0 2.0 48.0 2.0 48.0 4.0 2.0 4.0" fill="#808080" fill-rule="evenodd" stroke="none"/>
      <path d="M50.0 30.0 L45.0 40.0 -5.0 40.0 -5.0 10.0 0.0 0.0 0.0 30.0 50.0 30.0 M48.0 3.0 L2.0 3.0 2.0 2.0 48.0 2.0 48.0 3.0" fill="#000000" fill-opacity="0.29803923" fill-rule="evenodd" stroke="none"/>
    </g>
  </defs>
</svg>
