<?xml version="1.0" encoding="UTF-8" standalone="no"?>
<svg xmlns:ffdec="https://www.free-decompiler.com/flash" xmlns:xlink="http://www.w3.org/1999/xlink" ffdec:objectType="frame" height="12.5px" width="6.7px" xmlns="http://www.w3.org/2000/svg">
  <g transform="matrix(1.0, 0.0, 0.0, 1.0, 3.35, 6.25)">
    <use ffdec:characterId="592" height="12.5" transform="matrix(1.0, 0.0, 0.0, 1.0, -3.35, -6.25)" width="6.7" xlink:href="#shape0"/>
  </g>
  <defs>
    <g id="shape0" transform="matrix(1.0, 0.0, 0.0, 1.0, 3.35, 6.25)">
      <path d="M-0.5 -5.75 L-0.9 -5.75 -0.9 -5.7 -0.95 -5.7 Q-1.35 -5.75 -1.35 -5.25 L-1.35 -4.9 -0.9 -4.5 -0.7 -4.5 -0.45 -4.65 -0.3 -4.65 Q0.1 -4.7 0.1 -5.15 L0.05 -5.35 0.4 -5.1 0.45 -5.0 0.75 -4.85 0.75 -4.8 -0.3 -4.35 -0.8 -4.1 -1.25 -3.85 -2.3 -4.7 -2.35 -4.75 -1.65 -5.75 -1.0 -6.1 -0.95 -6.15 -0.5 -5.75 M0.95 -4.55 L1.0 -4.55 1.05 -4.4 1.3 -4.05 1.25 -4.05 1.15 -4.05 0.8 -4.15 Q0.15 -4.15 0.15 -3.35 L0.2 -3.05 Q0.3 -2.7 0.75 -2.7 1.5 -2.7 1.5 -3.1 L1.65 -3.35 1.7 -3.2 1.95 -2.85 2.1 -2.6 1.55 -2.4 1.2 -2.25 0.75 -2.0 0.55 -2.25 -0.3 -3.05 -0.6 -3.35 -0.9 -3.55 -0.3 -3.85 0.9 -4.55 0.95 -4.55 M2.2 -2.45 L2.25 -2.25 2.45 -1.7 2.4 -1.7 Q1.95 -1.8 1.95 -1.4 L2.1 -0.95 2.55 -0.5 2.7 -0.5 2.7 -0.1 2.8 0.3 2.55 0.4 1.05 -1.65 1.65 -2.0 2.0 -2.25 2.2 -2.45 M2.85 0.6 L2.85 0.95 2.7 0.7 2.85 0.6 M2.9 1.75 L2.9 1.8 2.8 1.75 2.5 1.8 2.4 1.8 Q2.05 1.85 1.95 2.3 L1.9 2.75 1.95 3.1 2.35 3.4 2.6 3.3 2.7 3.15 2.85 3.15 3.0 3.1 3.0 3.3 3.0 3.6 2.8 3.7 2.45 3.85 2.35 3.9 1.65 2.95 1.2 2.45 1.15 2.1 1.6 1.75 1.95 1.45 2.25 1.15 2.45 1.0 2.75 1.45 2.9 1.75 M3.05 4.1 L3.25 5.4 3.15 5.3 2.5 4.45 3.05 4.1 M2.9 6.05 L2.5 5.75 2.4 5.7 2.25 5.65 2.0 4.85 2.1 4.75 2.65 5.65 2.9 6.05" fill="#bfa734" fill-rule="evenodd" stroke="none"/>
      <path d="M0.05 -5.35 L0.1 -5.15 Q0.1 -4.7 -0.3 -4.65 L-0.45 -4.65 -0.7 -4.5 -0.9 -4.5 -1.35 -4.9 -1.35 -5.25 Q-1.35 -5.75 -0.95 -5.7 L-0.9 -5.7 -0.9 -5.75 -0.5 -5.75 -0.3 -5.8 0.05 -5.35 M1.3 -4.05 L1.3 -4.0 1.65 -3.6 1.65 -3.35 1.5 -3.1 Q1.5 -2.7 0.75 -2.7 0.3 -2.7 0.2 -3.05 L0.15 -3.35 Q0.15 -4.15 0.8 -4.15 L1.15 -4.05 1.25 -4.05 1.3 -4.05 M2.45 -1.7 Q2.85 -1.65 2.85 -1.05 L2.7 -0.5 2.55 -0.5 2.1 -0.95 1.95 -1.4 Q1.95 -1.8 2.4 -1.7 L2.45 -1.7 M2.9 1.8 Q3.35 1.9 3.35 2.35 L3.2 2.85 3.0 3.1 2.85 3.15 2.7 3.15 2.6 3.3 2.35 3.4 1.95 3.1 1.9 2.75 1.95 2.3 Q2.05 1.85 2.4 1.8 L2.5 1.8 2.8 1.75 2.9 1.8" fill="#917250" fill-rule="evenodd" stroke="none"/>
      <path d="M-1.0 -6.1 L-1.65 -5.75 -1.3 -6.25 -1.05 -6.15 -1.0 -6.1 M-2.35 -4.75 L-2.3 -4.7 -1.25 -3.85 -0.8 -4.1 -0.3 -4.35 0.75 -4.8 0.95 -4.55 0.9 -4.55 -0.3 -3.85 -0.9 -3.55 -0.6 -3.35 -0.3 -3.05 0.55 -2.25 0.75 -2.0 1.2 -2.25 1.55 -2.4 2.1 -2.6 2.2 -2.45 2.0 -2.25 1.65 -2.0 1.05 -1.65 2.55 0.4 2.8 0.3 2.85 0.6 2.7 0.7 2.85 0.95 2.9 1.75 2.75 1.45 2.45 1.0 2.25 1.15 1.95 1.45 1.6 1.75 1.15 2.1 1.0 1.7 0.75 1.45 1.25 1.1 Q1.65 0.8 2.1 0.6 L1.75 0.1 0.45 -1.35 -0.3 -0.85 -0.45 -0.8 -1.25 -0.9 -0.3 -1.5 -0.2 -1.55 0.15 -1.7 -0.3 -2.15 -0.35 -2.25 -1.15 -2.95 -1.25 -3.05 -1.45 -3.2 -2.4 -2.5 -2.55 -3.0 -1.8 -3.5 -2.65 -4.2 -2.7 -4.25 -2.35 -4.75 M3.0 3.6 L3.05 4.1 2.5 4.45 3.15 5.3 3.25 6.25 2.9 6.05 2.65 5.65 2.1 4.75 2.0 4.85 1.2 2.45 1.65 2.95 2.35 3.9 2.45 3.85 2.8 3.7 3.0 3.6" fill="#877e17" fill-rule="evenodd" stroke="none"/>
      <path d="M-2.85 -4.05 L-2.7 -4.25 -2.65 -4.2 -1.8 -3.5 -2.55 -3.0 -2.8 -3.6 -2.8 -3.65 -2.8 -3.95 -2.85 -4.05 M-0.45 -0.8 L-0.3 -0.85 0.45 -1.35 1.75 0.1 2.1 0.6 Q1.65 0.8 1.25 1.1 L0.75 1.45 0.25 0.85 0.3 0.85 0.45 0.75 0.6 0.7 Q1.2 0.7 1.2 0.15 1.25 -0.65 0.45 -0.65 L-0.45 -0.8 M-1.25 -0.9 L-1.8 -0.95 -2.4 -2.5 -1.45 -3.2 -1.25 -3.05 -1.15 -2.95 -0.35 -2.25 -0.3 -2.15 0.15 -1.7 -0.2 -1.55 -0.3 -1.5 -1.25 -0.9 M-1.05 -1.7 L-1.05 -1.95 -1.05 -2.0 -1.05 -2.25 -1.25 -2.5 -1.5 -2.6 -1.9 -2.25 -1.95 -2.1 -1.85 -1.8 -1.6 -1.55 Q-1.2 -1.55 -1.05 -1.7" fill="#edce42" fill-rule="evenodd" stroke="none"/>
      <path d="M-2.85 -3.85 L-2.9 -3.95 -2.85 -4.05 -2.8 -3.95 -2.8 -3.65 -2.8 -3.6 -2.85 -3.85 M0.45 -0.65 Q1.25 -0.65 1.2 0.15 1.2 0.7 0.6 0.7 L0.45 0.75 0.3 0.85 0.25 0.85 0.15 0.75 0.45 -0.65 M-1.05 -1.7 Q-1.2 -1.55 -1.6 -1.55 L-1.85 -1.8 -1.95 -2.1 -1.9 -2.25 -1.5 -2.6 -1.25 -2.5 -1.05 -2.25 -1.05 -2.0 -1.05 -1.95 -1.05 -1.7" fill="#b28d63" fill-rule="evenodd" stroke="none"/>
      <path d="M2.5 5.75 L2.4 5.8 -3.0 2.35 -2.5 0.95 Q-3.15 -0.2 -3.3 -1.45 -3.45 -2.75 -2.85 -3.85 L-2.8 -3.6 -2.55 -3.0 -2.4 -2.5 -1.8 -0.95 -1.25 -0.9 -0.45 -0.8 0.45 -0.65 0.15 0.75 0.25 0.85 0.75 1.45 1.0 1.7 1.15 2.1 1.2 2.45 2.0 4.85 2.25 5.65 2.4 5.7 2.5 5.75" fill="#e5e470" fill-rule="evenodd" stroke="none"/>
    </g>
  </defs>
</svg>
