<?xml version="1.0" encoding="UTF-8" standalone="no"?>
<svg xmlns:ffdec="https://www.free-decompiler.com/flash" xmlns:xlink="http://www.w3.org/1999/xlink" ffdec:objectType="frame" height="258.0px" width="5.0px" xmlns="http://www.w3.org/2000/svg">
  <g transform="matrix(1.0, 0.0, 0.0, 1.0, 2.5, 1.0)">
    <use ffdec:characterId="657" height="43.5" id="base" transform="matrix(1.0, 0.0, 0.0, 1.0, -2.5, 213.5)" width="5.0" xlink:href="#sprite0"/>
    <use ffdec:characterId="659" height="215.5" id="stem" transform="matrix(1.0, 0.0, 0.0, 1.0, -1.0, -1.0)" width="2.0" xlink:href="#sprite1"/>
  </g>
  <defs>
    <g id="sprite0" transform="matrix(1.0, 0.0, 0.0, 1.0, 2.5, 0.0)">
      <use ffdec:characterId="656" height="43.5" transform="matrix(1.0, 0.0, 0.0, 1.0, -2.5, 0.0)" width="5.0" xlink:href="#shape0"/>
    </g>
    <g id="shape0" transform="matrix(1.0, 0.0, 0.0, 1.0, 2.5, 0.0)">
      <path d="M2.5 42.2 Q-0.2 44.85 -2.5 42.2 L-2.5 2.5 0.0 0.0 2.5 2.5 2.5 42.2" fill="#151515" fill-rule="evenodd" stroke="none"/>
    </g>
    <g id="sprite1" transform="matrix(1.0, 0.0, 0.0, 1.0, 1.0, 1.0)">
      <use ffdec:characterId="658" height="215.5" transform="matrix(1.0, 0.0, 0.0, 1.0, -1.0, -1.0)" width="2.0" xlink:href="#shape1"/>
    </g>
    <g id="shape1" transform="matrix(1.0, 0.0, 0.0, 1.0, 1.0, 1.0)">
      <path d="M0.0 213.5 L0.0 0.0" fill="none" stroke="#151515" stroke-linecap="round" stroke-linejoin="round" stroke-width="2.0" vector-effect="non-scaling-stroke"/>
    </g>
  </defs>
</svg>
