<?xml version="1.0" encoding="UTF-8" standalone="no"?>
<svg xmlns:ffdec="https://www.free-decompiler.com/flash" xmlns:xlink="http://www.w3.org/1999/xlink" ffdec:objectType="frame" height="7.4px" width="7.25px" xmlns="http://www.w3.org/2000/svg">
  <g transform="matrix(1.0, 0.0, 0.0, 1.0, 0.0, 0.0)">
    <use ffdec:characterId="16" height="5.3" transform="matrix(1.0, 0.0, 0.0, 1.0, 0.0, 0.0)" width="6.95" xlink:href="#shape0"/>
  </g>
  <defs>
    <g id="shape0" transform="matrix(1.0, 0.0, 0.0, 1.0, 0.0, 0.0)">
      <path d="M5.9 5.1 Q4.8 4.4 2.95 4.3 L1.25 5.05 Q-0.3 5.05 0.05 4.15 0.05 3.45 0.7 2.95 1.65 2.4 2.45 2.35 3.2 2.3 4.1 0.9 4.35 0.0 4.9 0.0 6.0 0.0 6.1 1.4 5.75 2.55 6.2 3.45 6.95 4.0 6.95 4.5 6.95 5.75 5.9 5.1" fill="#66e0ff" fill-opacity="0.49803922" fill-rule="evenodd" stroke="none"/>
    </g>
  </defs>
</svg>
