<?xml version="1.0" encoding="UTF-8" standalone="no"?>
<svg xmlns:ffdec="https://www.free-decompiler.com/flash" xmlns:xlink="http://www.w3.org/1999/xlink" ffdec:objectType="frame" height="18.5px" width="25.05px" xmlns="http://www.w3.org/2000/svg">
  <g transform="matrix(1.0, 0.0, 0.0, 1.0, 12.65, 9.3)">
    <use ffdec:characterId="1121" height="18.5" transform="matrix(1.0, 0.0, 0.0, 1.0, -12.65, -9.3)" width="25.05" xlink:href="#shape0"/>
  </g>
  <defs>
    <g id="shape0" transform="matrix(1.0, 0.0, 0.0, 1.0, 12.65, 9.3)">
      <path d="M6.5 -6.6 L6.45 -6.7 Q6.95 -6.45 7.2 -6.4 L8.2 -5.6 8.1 -5.6 5.5 -5.15 6.5 -6.6 M11.05 -3.85 Q12.7 -1.7 12.35 0.3 11.85 3.05 10.6 3.45 L5.15 4.05 Q2.3 4.15 1.15 5.75 L-0.7 8.25 Q-4.3 9.85 -7.15 8.75 L-10.4 7.4 -10.85 7.1 Q-12.55 5.05 -12.4 0.65 L-12.15 0.65 -11.9 0.15 -11.65 -0.35 -11.7 -0.75 -11.4 -1.25 -11.25 -0.7 -9.65 -0.25 -9.85 0.7 -11.35 0.5 -11.55 1.9 -11.35 2.6 -11.0 3.2 -9.25 3.15 -8.0 3.9 -7.55 5.5 -8.35 6.4 -8.2 6.8 -6.85 7.05 -6.25 6.8 -5.6 6.5 -6.15 3.3 Q-4.6 1.15 -6.3 -0.3 L-6.5 -0.45 Q-7.5 -1.1 -8.75 -1.05 L-7.05 -3.3 -6.05 -3.25 -6.8 -2.75 -7.0 -1.4 -5.85 -1.4 -5.4 -1.65 -4.5 -2.25 -2.95 -2.35 -2.75 -2.85 -3.45 -3.65 -3.85 -4.05 -4.45 -4.3 -4.45 -4.95 -3.65 -5.25 -3.4 -5.4 -2.6 -3.8 -1.25 -3.8 -0.7 -6.1 -0.5 -5.65 -0.9 -4.65 -0.7 -4.15 -0.45 -3.8 -0.1 -3.5 0.85 -3.45 Q1.55 -3.6 2.15 -4.1 L2.45 -3.6 0.25 -2.15 2.5 0.15 0.85 -0.5 -0.65 1.25 Q-0.7 2.4 0.4 3.05 L0.7 3.05 0.2 2.05 0.7 1.2 1.5 1.85 2.7 1.7 2.9 1.35 3.3 0.45 Q3.9 -1.1 2.4 -1.95 L3.95 -3.4 3.7 -4.9 0.8 -5.25 1.6 -6.8 -2.05 -6.7 -2.4 -7.4 -1.75 -7.4 -1.45 -7.45 -0.25 -7.9 2.45 -7.55 2.3 -5.9 3.45 -5.6 4.45 -6.6 Q4.5 -4.9 5.5 -3.8 6.45 -2.85 7.3 -3.9 L7.4 -2.45 7.95 -2.2 9.45 -2.15 9.45 -0.7 8.4 -1.15 8.25 -1.55 7.85 -1.75 6.6 -0.7 6.95 -1.55 5.15 -3.3 4.05 -2.8 3.65 -1.15 5.25 -1.15 4.35 -0.35 4.4 0.5 4.8 1.55 5.1 1.7 6.2 1.85 8.25 -0.4 8.3 0.2 8.45 0.75 Q8.65 1.75 9.4 2.0 L9.7 1.65 9.85 1.2 9.9 0.15 11.35 0.7 11.45 0.5 Q11.95 -1.25 10.65 -3.05 L8.8 -3.85 8.85 -4.2 Q9.25 -4.25 9.25 -4.7 L9.8 -4.25 9.85 -3.9 Q9.95 -3.55 10.55 -3.55 L11.0 -3.65 11.05 -3.85 M2.9 3.45 L4.75 3.6 Q5.7 3.6 5.7 2.85 5.7 2.25 3.85 2.05 1.95 1.8 1.95 2.9 L2.0 3.15 2.9 3.45 M0.1 5.85 Q0.8 5.85 0.8 5.1 0.8 3.85 -0.2 4.0 -1.25 4.15 -1.25 5.2 L-1.25 5.25 Q-1.6 5.0 -2.3 5.0 -3.0 5.0 -3.15 5.5 L-3.2 6.45 Q-2.95 8.45 -2.4 8.45 -1.25 8.45 -0.95 7.35 L-0.9 5.95 -0.9 5.7 0.1 5.85 M8.4 2.75 Q8.4 2.05 7.6 1.9 6.75 1.75 6.75 2.6 L6.9 3.05 Q7.15 3.5 7.7 3.5 8.4 3.5 8.4 2.75 M-7.55 -6.2 L-7.05 -6.1 -5.75 -6.9 -4.65 -6.3 -4.75 -6.25 -5.15 -5.95 Q-6.55 -6.25 -8.05 -5.45 L-8.85 -5.1 -8.75 -5.2 Q-8.15 -5.7 -7.6 -6.15 L-7.55 -6.2 M-10.0 -3.6 L-9.6 -3.3 -11.0 -1.85 -10.05 -3.7 -10.0 -3.6 M-4.5 1.95 L-5.0 2.3 -5.3 2.75 -5.55 3.3 -4.35 5.55 -3.8 3.8 -2.35 4.35 -1.6 4.1 -1.4 3.3 Q-1.5 2.65 -2.1 2.2 L-2.85 1.8 -3.3 1.8 -3.95 1.6 -4.5 1.95 M-1.8 -2.9 L-2.2 -2.7 -2.4 -1.15 -4.35 -1.05 -4.8 0.35 -4.35 1.15 -1.5 1.05 -1.5 -0.45 -1.45 -0.45 -0.45 -0.55 -0.1 -1.1 Q-0.1 -2.55 -1.45 -2.85 L-1.8 -2.9 M-9.15 1.05 L-7.7 0.65 -7.6 1.5 -9.15 2.3 -9.35 1.65 Q-9.7 1.1 -9.15 1.05 M-9.95 5.85 L-8.9 5.7 -8.7 4.8 -9.85 4.05 -10.75 4.05 -10.9 4.9 -9.95 5.85 M-5.55 7.95 L-5.45 8.25 -4.55 8.4 -3.9 8.0 -3.6 7.25 Q-3.6 6.05 -4.55 6.25 -5.55 6.4 -5.55 7.95 M-6.05 7.35 L-6.55 7.2 -8.55 6.75 -10.4 6.15 -10.5 6.6 Q-10.5 7.4 -6.35 8.3 -6.0 8.2 -6.0 7.75 L-6.05 7.35" fill="#cc9999" fill-rule="evenodd" stroke="none"/>
      <path d="M6.25 -7.05 L6.1 -7.4 5.65 -7.55 5.25 -7.4 5.05 -7.05 5.25 -6.7 5.65 -6.55 6.1 -6.7 6.25 -7.05 M6.5 -6.6 L5.5 -5.15 8.1 -5.6 8.2 -5.6 7.2 -6.4 Q6.95 -6.45 6.45 -6.7 L6.5 -6.6 M3.1 -7.05 Q3.3 -6.85 3.6 -6.85 L4.15 -7.05 Q4.35 -7.25 4.35 -7.55 L4.15 -8.05 3.6 -8.25 Q3.3 -8.25 3.1 -8.05 L2.85 -7.55 Q2.85 -7.25 3.1 -7.05 M-12.4 0.65 L-12.45 0.65 -12.5 0.1 -12.45 -0.35 -12.65 -0.7 -12.4 -1.25 -12.3 -1.4 Q-12.25 -2.6 -11.6 -4.0 L-11.05 -4.9 -11.05 -5.05 Q-11.05 -5.7 -7.6 -7.6 -4.15 -9.55 -2.2 -9.25 L-0.5 -9.3 2.1 -9.0 3.55 -8.7 Q4.4 -8.7 6.85 -7.7 10.25 -6.25 10.6 -4.6 L10.7 -4.55 11.05 -3.95 11.05 -3.85 11.0 -3.65 10.55 -3.55 Q9.95 -3.55 9.85 -3.9 L9.8 -4.25 9.25 -4.7 Q9.25 -4.25 8.85 -4.2 L8.8 -3.85 10.65 -3.05 Q11.95 -1.25 11.45 0.5 L11.35 0.7 9.9 0.15 9.85 1.2 9.7 1.65 9.4 2.0 Q8.65 1.75 8.45 0.75 L8.3 0.2 8.25 -0.4 6.2 1.85 5.1 1.7 4.8 1.55 4.4 0.5 4.35 -0.35 5.25 -1.15 3.65 -1.15 4.05 -2.8 5.15 -3.3 6.95 -1.55 6.6 -0.7 7.85 -1.75 8.25 -1.55 8.4 -1.15 9.45 -0.7 9.45 -2.15 7.95 -2.2 7.4 -2.45 7.3 -3.9 Q6.45 -2.85 5.5 -3.8 4.5 -4.9 4.45 -6.6 L3.45 -5.6 2.3 -5.9 2.45 -7.55 -0.25 -7.9 -1.45 -7.45 -1.75 -7.4 -2.4 -7.4 -2.05 -6.7 1.6 -6.8 0.8 -5.25 3.7 -4.9 3.95 -3.4 2.4 -1.95 Q3.9 -1.1 3.3 0.45 L2.9 1.35 2.7 1.7 1.5 1.85 0.7 1.2 0.2 2.05 0.7 3.05 0.4 3.05 Q-0.7 2.4 -0.65 1.25 L0.85 -0.5 2.5 0.15 0.25 -2.15 2.45 -3.6 2.15 -4.1 Q1.55 -3.6 0.85 -3.45 L-0.1 -3.5 -0.45 -3.8 -0.7 -4.15 -0.9 -4.65 -0.5 -5.65 -0.7 -6.1 -1.25 -3.8 -2.6 -3.8 -3.4 -5.4 -3.65 -5.25 -4.45 -4.95 -4.45 -4.3 -3.85 -4.05 -3.45 -3.65 -2.75 -2.85 -2.95 -2.35 -4.5 -2.25 -5.4 -1.65 -5.85 -1.4 -7.0 -1.4 -6.8 -2.75 -6.05 -3.25 -7.05 -3.3 -8.75 -1.05 Q-7.5 -1.1 -6.5 -0.45 L-6.3 -0.3 Q-4.6 1.15 -6.15 3.3 L-5.6 6.5 -6.25 6.8 -6.85 7.05 -8.2 6.8 -8.35 6.4 -7.55 5.5 -8.0 3.9 -9.25 3.15 -11.0 3.2 -11.35 2.6 -11.55 1.9 -11.35 0.5 -9.85 0.7 -9.65 -0.25 -11.25 -0.7 -11.4 -1.25 -11.7 -0.75 -11.65 -0.35 -11.9 0.15 -12.15 0.65 -12.4 0.65 M-3.4 -5.4 L-2.65 -5.0 -1.9 -5.1 -2.35 -5.85 -3.55 -7.2 -3.35 -7.9 -0.75 -8.25 -0.75 -8.7 -4.75 -8.2 -4.9 -7.45 -4.3 -6.85 -3.4 -5.4 M10.2 -2.0 L10.75 -1.2 10.65 -2.65 9.95 -2.75 Q10.0 -2.35 10.2 -2.0 M8.5 -4.4 L8.55 -5.2 6.05 -4.95 6.05 -4.35 8.5 -4.4 M0.15 -5.4 L0.85 -5.7 0.05 -6.45 -0.2 -6.0 0.15 -5.4 M-7.6 -6.15 Q-8.15 -5.7 -8.75 -5.2 L-8.85 -5.1 -8.05 -5.45 Q-6.55 -6.25 -5.15 -5.95 L-4.75 -6.25 -4.65 -6.3 -5.75 -6.9 -7.05 -6.1 -7.55 -6.2 -5.55 -7.2 -5.4 -7.9 -8.1 -6.4 -10.55 -4.7 -7.6 -6.15 M-10.0 -3.6 L-10.05 -3.7 -11.0 -1.85 -9.6 -3.3 -10.0 -3.6 M-9.3 -3.0 L-9.95 -1.5 -9.1 -1.55 -8.35 -2.4 -8.3 -3.15 -9.3 -3.0 M-8.85 -3.9 L-8.4 -3.7 Q-6.55 -3.35 -5.5 -5.0 -7.3 -5.6 -8.9 -4.95 L-8.85 -3.9 M-1.8 -2.9 L-1.45 -2.85 Q-0.1 -2.55 -0.1 -1.1 L-0.45 -0.55 -1.45 -0.45 -1.5 -0.45 -1.5 1.05 -4.35 1.15 -4.8 0.35 -4.35 -1.05 -2.4 -1.15 -2.2 -2.7 -1.8 -2.9 M-4.5 1.95 L-3.95 1.6 -3.3 1.8 -2.85 1.8 -2.1 2.2 Q-1.5 2.65 -1.4 3.3 L-1.6 4.1 -2.35 4.35 -3.8 3.8 -4.35 5.55 -5.55 3.3 -5.3 2.75 -5.0 2.3 -4.5 1.95 M-9.15 1.05 Q-9.7 1.1 -9.35 1.65 L-9.15 2.3 -7.6 1.5 -7.7 0.65 -9.15 1.05 M-9.95 5.85 L-10.9 4.9 -10.75 4.05 -9.85 4.05 -8.7 4.8 -8.9 5.7 -9.95 5.85" fill="#ffcccc" fill-rule="evenodd" stroke="none"/>
      <path d="M8.4 2.75 Q8.4 3.5 7.7 3.5 7.15 3.5 6.9 3.05 L6.75 2.6 Q6.75 1.75 7.6 1.9 8.4 2.05 8.4 2.75 M0.1 5.85 L-0.9 5.7 -0.9 5.95 -0.95 7.35 Q-1.25 8.45 -2.4 8.45 -2.95 8.45 -3.2 6.45 L-3.15 5.5 Q-3.0 5.0 -2.3 5.0 -1.6 5.0 -1.25 5.25 L-1.25 5.2 Q-1.25 4.15 -0.2 4.0 0.8 3.85 0.8 5.1 0.8 5.85 0.1 5.85 M2.9 3.45 L2.0 3.15 1.95 2.9 Q1.95 1.8 3.85 2.05 5.7 2.25 5.7 2.85 5.7 3.6 4.75 3.6 L2.9 3.45 M-6.05 7.35 L-6.0 7.75 Q-6.0 8.2 -6.35 8.3 -10.5 7.4 -10.5 6.6 L-10.4 6.15 -8.55 6.75 -6.55 7.2 -6.05 7.35 M-5.55 7.95 Q-5.55 6.4 -4.55 6.25 -3.6 6.05 -3.6 7.25 L-3.9 8.0 -4.55 8.4 -5.45 8.25 -5.55 7.95" fill="#994d4d" fill-rule="evenodd" stroke="none"/>
      <path d="M6.25 -7.05 L6.1 -6.7 5.65 -6.55 5.25 -6.7 5.05 -7.05 5.25 -7.4 5.65 -7.55 6.1 -7.4 6.25 -7.05 M3.1 -7.05 Q2.85 -7.25 2.85 -7.55 L3.1 -8.05 Q3.3 -8.25 3.6 -8.25 L4.15 -8.05 4.35 -7.55 Q4.35 -7.25 4.15 -7.05 L3.6 -6.85 Q3.3 -6.85 3.1 -7.05 M-3.4 -5.4 L-4.3 -6.85 -4.9 -7.45 -4.75 -8.2 -0.75 -8.7 -0.75 -8.25 -3.35 -7.9 -3.55 -7.2 -2.35 -5.85 -1.9 -5.1 -2.65 -5.0 -3.4 -5.4 M0.15 -5.4 L-0.2 -6.0 0.05 -6.45 0.85 -5.7 0.15 -5.4 M8.5 -4.4 L6.05 -4.35 6.05 -4.95 8.55 -5.2 8.5 -4.4 M10.2 -2.0 Q10.0 -2.35 9.95 -2.75 L10.65 -2.65 10.75 -1.2 10.2 -2.0 M-7.55 -6.2 L-7.6 -6.15 -10.55 -4.7 -8.1 -6.4 -5.4 -7.9 -5.55 -7.2 -7.55 -6.2 M-8.85 -3.9 L-8.9 -4.95 Q-7.3 -5.6 -5.5 -5.0 -6.55 -3.35 -8.4 -3.7 L-8.85 -3.9 M-9.3 -3.0 L-8.3 -3.15 -8.35 -2.4 -9.1 -1.55 -9.95 -1.5 -9.3 -3.0" fill="#ffeded" fill-rule="evenodd" stroke="none"/>
      <path d="M-11.35 -1.85 L-11.5 -2.85 -10.55 -3.55 -9.5 -3.0 -9.8 -1.8 -11.35 -1.85 M-4.0 -7.8 L-6.65 -6.8 -6.95 -5.1 -7.95 -4.35 -9.35 -4.75 -9.4 -5.55 -8.8 -6.25 Q-6.85 -8.45 -4.0 -7.8 M-9.15 3.7 L-9.6 2.85 -9.3 1.7 -8.9 1.4 -8.3 1.3 -7.85 1.35 -7.25 2.1 -7.7 3.15 -8.15 3.75 -9.15 3.7 M8.85 -0.25 L8.5 0.25 Q6.85 2.2 4.65 1.0 5.4 -0.4 8.85 -0.25 M3.9 1.5 L4.05 2.25 2.2 2.2 2.15 1.5 2.85 1.0 3.9 1.5" fill="#ff0000" fill-rule="evenodd" stroke="none"/>
      <path d="M-9.5 -3.0 L-9.1 -2.6 -9.05 -1.7 -9.7 -1.1 -10.85 -1.15 -11.35 -1.85 -9.8 -1.8 -9.5 -3.0 M-4.0 -7.8 L-4.25 -6.95 Q-5.4 -3.55 -9.0 -3.6 L-9.35 -4.75 -7.95 -4.35 -6.95 -5.1 -6.65 -6.8 -4.0 -7.8 M-7.25 2.1 L-6.95 4.2 -7.8 5.0 -8.65 4.75 -9.15 3.7 -8.15 3.75 -7.7 3.15 -7.25 2.1 M8.85 -0.25 L9.65 0.65 9.05 1.3 8.9 2.0 8.05 2.5 Q5.2 4.15 2.15 2.55 L2.15 1.5 2.2 2.2 4.05 2.25 3.9 1.5 4.75 1.45 4.6 1.0 4.65 1.0 Q6.85 2.2 8.5 0.25 L8.85 -0.25" fill="#990000" fill-rule="evenodd" stroke="none"/>
    </g>
  </defs>
</svg>
