<?xml version="1.0" encoding="UTF-8" standalone="no"?>
<svg xmlns:ffdec="https://www.free-decompiler.com/flash" xmlns:xlink="http://www.w3.org/1999/xlink" ffdec:objectType="frame" height="19.95px" width="16.3px" xmlns="http://www.w3.org/2000/svg">
  <g transform="matrix(1.0, 0.0, 0.0, 1.0, 8.15, 10.0)">
    <use ffdec:characterId="1962" height="19.95" transform="matrix(1.0, 0.0, 0.0, 1.0, -8.15, -10.0)" width="16.3" xlink:href="#shape0"/>
  </g>
  <defs>
    <g id="shape0" transform="matrix(1.0, 0.0, 0.0, 1.0, 8.15, 10.0)">
      <path d="M1.5 -8.4 L1.5 -8.65 2.45 -8.8 3.0 -8.65 3.0 -9.1 3.0 -9.55 4.65 -9.45 5.85 -8.6 Q5.9 -7.4 4.5 -7.4 2.95 -7.4 1.5 -7.9 L1.5 -8.4 M-1.15 -5.6 L-0.8 -4.8 -1.2 -3.85 -1.25 -3.75 -1.95 -3.15 Q-2.15 -4.6 -1.5 -5.9 L-1.2 -6.65 Q-1.0 -7.45 -1.55 -7.9 -2.4 -7.85 -1.7 -8.3 -0.1 -9.2 1.2 -7.8 L1.3 -7.45 Q2.0 -5.95 0.85 -5.9 L-0.4 -6.4 -0.8 -6.35 Q-1.25 -6.3 -1.15 -5.6 M-4.5 -3.05 L-4.75 -1.4 -4.9 -0.4 -5.25 1.1 -7.4 -0.9 -4.55 -3.6 -4.5 -3.05 M-4.5 2.05 L-4.05 2.35 -3.25 3.0 Q-2.2 3.75 -1.7 4.6 L-1.5 4.95 -0.35 5.35 2.1 6.8 2.25 6.95 1.1 7.8 1.0 7.8 0.9 7.6 Q0.75 7.6 0.65 7.75 L0.25 8.45 -0.75 8.4 -2.5 8.1 Q-1.5 8.1 -1.2 7.6 L-0.9 6.85 Q-1.65 6.6 -1.85 6.2 L-1.9 5.8 -3.0 5.35 -5.1 4.8 -5.55 4.6 -5.8 4.35 Q-6.65 3.2 -5.95 2.0 L-5.85 1.8 -4.5 2.05 M-1.95 -0.6 Q-1.7 -2.3 0.3 -0.5 L0.7 -0.15 0.85 0.0 0.85 0.45 0.3 1.4 -0.6 1.6 Q-1.7 1.6 -1.95 0.75 L-2.0 0.0 -2.0 -0.15 -1.95 -0.6" fill="#ff0000" fill-rule="evenodd" stroke="none"/>
      <path d="M3.85 7.5 L4.2 7.85 3.4 7.95 1.1 7.8 2.25 6.95 2.1 6.8 -0.35 5.35 -1.5 4.95 -1.7 4.6 Q-2.2 3.75 -3.25 3.0 L-0.35 4.2 0.3 4.5 Q1.6 5.2 2.35 6.35 L2.6 6.95 3.6 7.35 3.8 7.45 3.85 7.5 M3.25 9.3 L2.7 9.6 -1.1 9.95 Q-4.3 9.95 -4.0 9.35 -3.7 8.75 -3.85 7.95 L-4.05 7.3 -4.55 7.25 Q-5.8 6.2 -6.25 4.6 L-6.35 4.3 Q-6.95 2.05 -7.8 -0.15 L-8.15 -1.05 -5.2 -6.15 -3.95 -6.3 -3.6 -6.65 Q-3.0 -7.4 -3.3 -8.45 L-2.8 -9.15 -0.45 -10.0 -0.05 -9.3 1.5 -8.4 1.5 -7.9 Q2.95 -7.4 4.5 -7.4 5.9 -7.4 5.85 -8.6 L6.1 -8.55 Q6.65 -7.9 6.15 -7.25 L6.1 -7.5 Q3.8 -7.05 1.6 -6.15 L1.3 -5.8 -1.15 -5.6 Q-1.25 -6.3 -0.8 -6.35 L-0.4 -6.4 0.85 -5.9 Q2.0 -5.95 1.3 -7.45 L1.2 -7.8 Q-0.1 -9.2 -1.7 -8.3 -2.4 -7.85 -1.55 -7.9 -1.0 -7.45 -1.2 -6.65 L-1.5 -5.9 Q-2.15 -4.6 -1.95 -3.15 L-1.25 -3.75 -1.35 -3.05 -1.75 -2.65 -3.1 -2.95 -2.65 -4.35 -2.75 -4.6 -2.95 -4.9 Q-3.05 -5.05 -3.25 -5.0 L-4.5 -3.05 -4.55 -3.6 -7.4 -0.9 -5.25 1.1 -4.9 -0.4 -4.15 0.8 -4.5 2.05 -5.85 1.8 -5.95 2.0 Q-6.65 3.2 -5.8 4.35 L-5.55 4.6 -5.1 4.8 -3.0 5.35 -1.9 5.8 -1.85 6.2 Q-1.65 6.6 -0.9 6.85 L-1.2 7.6 Q-1.5 8.1 -2.5 8.1 L-0.75 8.4 -1.15 9.35 0.0 9.55 0.25 8.6 0.25 9.2 3.25 9.3 M2.45 -8.8 L2.55 -8.9 3.0 -9.1 3.0 -8.65 2.45 -8.8 M0.85 0.45 L0.95 1.15 Q0.95 1.95 0.45 2.35 L0.3 2.45 -0.85 2.7 -1.6 2.35 -2.0 1.45 -2.15 0.4 -2.1 -0.15 -1.95 -0.6 -2.0 -0.15 -2.0 0.0 -1.95 0.75 Q-1.7 1.6 -0.6 1.6 L0.3 1.4 0.85 0.45 M1.0 7.8 L0.65 7.75 Q0.75 7.6 0.9 7.6 L1.0 7.8" fill="#990000" fill-rule="evenodd" stroke="none"/>
      <path d="M6.15 -7.25 Q6.25 -6.75 6.0 -6.55 L6.15 -6.6 6.15 -6.45 6.2 -4.2 6.0 -2.0 5.95 -1.9 5.8 -1.05 6.2 -0.15 6.3 0.1 6.4 0.3 6.55 0.75 6.9 1.3 7.6 2.1 7.9 2.35 8.05 2.45 8.1 2.65 8.15 3.1 7.95 3.3 7.4 3.1 4.3 3.95 4.7 4.8 Q4.85 5.55 5.4 5.6 L5.7 6.3 5.7 6.55 4.8 6.5 4.1 7.0 3.95 7.1 3.65 7.3 3.6 7.35 2.6 6.95 2.35 6.35 Q1.6 5.2 0.3 4.5 L-0.35 4.2 -3.25 3.0 -4.05 2.35 -4.5 2.05 -4.15 0.8 -4.9 -0.4 -4.75 -1.4 -4.5 -3.05 -3.25 -5.0 Q-3.05 -5.05 -2.95 -4.9 L-2.75 -4.6 -2.65 -4.35 -3.1 -2.95 -1.75 -2.65 -1.35 -3.05 -1.25 -3.75 -1.2 -3.85 -0.8 -4.8 -1.15 -5.6 1.3 -5.8 1.6 -6.15 Q3.8 -7.05 6.1 -7.5 L6.15 -7.25 M5.1 -2.95 Q5.3 -3.4 5.0 -3.55 L3.45 -3.5 Q2.45 -3.45 0.3 -2.35 L-0.15 -2.1 0.9 -2.15 0.7 -1.55 Q0.7 -0.75 1.5 -0.2 L1.6 -0.15 2.8 0.3 3.45 0.75 3.6 0.1 3.9 -0.15 4.45 -0.7 Q5.45 -1.75 5.45 -2.3 L5.2 -2.85 5.1 -2.95 M0.85 0.45 L0.85 0.0 0.7 -0.15 0.3 -0.5 Q-1.7 -2.3 -1.95 -0.6 L-2.1 -0.15 -2.15 0.4 -2.0 1.45 -1.6 2.35 -0.85 2.7 0.3 2.45 0.45 2.35 Q0.95 1.95 0.95 1.15 L0.85 0.45 M4.55 7.6 L4.55 7.55 4.6 7.6 4.55 7.6" fill="#ffcc99" fill-rule="evenodd" stroke="none"/>
      <path d="M7.95 3.3 L5.9 5.05 5.4 5.6 Q4.85 5.55 4.7 4.8 L4.3 3.95 7.4 3.1 7.95 3.3" fill="#c79b68" fill-rule="evenodd" stroke="none"/>
      <path d="M3.6 0.1 L3.45 0.75 2.8 0.3 1.95 -0.3 Q2.95 -1.5 4.4 -1.8 L3.65 -0.85 3.6 -0.15 3.6 -0.05 3.6 0.1" fill="#000000" fill-rule="evenodd" stroke="none"/>
      <path d="M4.2 7.85 L4.25 8.1 Q4.5 9.35 3.7 8.85 L3.6 8.95 3.25 9.3 0.25 9.2 0.25 8.6 0.0 9.55 -1.15 9.35 -0.75 8.4 0.25 8.45 0.65 7.75 1.0 7.8 1.1 7.8 3.4 7.95 4.2 7.85" fill="#ffffff" fill-rule="evenodd" stroke="none"/>
      <path d="M0.9 -2.15 L-0.15 -2.1 0.3 -2.35 Q2.45 -3.45 3.45 -3.5 L5.0 -3.55 Q5.3 -3.4 5.1 -2.95 L3.0 -2.85 0.9 -2.15" fill="#251c16" fill-rule="evenodd" stroke="none"/>
      <path d="M5.1 -2.95 L5.2 -2.85 5.45 -2.3 Q5.45 -1.75 4.45 -0.7 L3.9 -0.15 3.6 0.1 3.6 -0.05 3.6 -0.15 3.65 -0.85 4.4 -1.8 Q2.95 -1.5 1.95 -0.3 L2.8 0.3 1.6 -0.15 1.5 -0.2 Q0.7 -0.75 0.7 -1.55 L0.9 -2.15 3.0 -2.85 5.1 -2.95" fill="#e2b181" fill-rule="evenodd" stroke="none"/>
      <path d="M5.7 6.55 L5.65 6.65 5.55 6.8 5.35 7.15 5.35 7.2 4.5 7.3 3.85 7.5 3.8 7.45 3.6 7.35 3.65 7.3 3.95 7.1 4.1 7.0 4.8 6.5 5.7 6.55" fill="#b94f4f" fill-rule="evenodd" stroke="none"/>
    </g>
  </defs>
</svg>
