<?xml version="1.0" encoding="UTF-8" standalone="no"?>
<svg xmlns:ffdec="https://www.free-decompiler.com/flash" xmlns:xlink="http://www.w3.org/1999/xlink" ffdec:objectType="frame" height="78.65px" width="63.25px" xmlns="http://www.w3.org/2000/svg">
  <g transform="matrix(1.0, 0.0, 0.0, 1.0, 31.6, 39.35)">
    <use ffdec:characterId="916" height="37.75" id="base" transform="matrix(1.0, 0.0, 0.0, 1.0, -24.85, 1.55)" width="56.5" xlink:href="#sprite0"/>
    <use ffdec:characterId="918" height="46.85" id="back" transform="matrix(1.0, 0.0, 0.0, 1.0, -31.6, -39.35)" width="22.25" xlink:href="#sprite1"/>
  </g>
  <defs>
    <g id="sprite0" transform="matrix(1.0, 0.0, 0.0, 1.0, 28.25, 18.85)">
      <use ffdec:characterId="915" height="37.75" transform="matrix(1.0, 0.0, 0.0, 1.0, -28.25, -18.85)" width="56.5" xlink:href="#shape0"/>
    </g>
    <g id="shape0" transform="matrix(1.0, 0.0, 0.0, 1.0, 28.25, 18.85)">
      <path d="M1.85 5.55 L11.1 4.65 11.75 4.5 12.0 4.4 12.5 4.25 Q15.25 3.2 17.25 1.2 L19.5 -1.1 19.8 -1.65 Q20.0 -2.1 19.8 -2.3 L19.5 -2.45 18.9 -2.25 17.95 -1.9 11.1 -0.7 11.05 -0.7 2.9 -1.7 1.7 -2.0 -0.5 -2.6 -1.2 -2.8 -1.85 -3.05 Q-3.45 -3.65 -3.95 -4.2 L-4.95 -5.2 Q-4.6 -5.6 -3.65 -5.9 L16.3 -7.2 16.6 -7.2 16.9 -7.2 18.2 -7.2 18.9 -7.2 20.75 -7.2 21.55 -7.2 25.55 -7.15 25.6 -7.15 Q24.65 -3.95 22.3 -1.2 19.15 2.4 14.35 4.25 L13.55 4.7 13.5 4.7 13.45 4.75 12.5 5.1 10.75 5.5 8.25 5.85 4.5 5.75 4.2 5.75 2.55 5.65 1.85 5.55 M25.95 -8.5 L-12.35 -9.2 -13.5 -9.4 Q-14.1 -9.65 -14.3 -10.05 -14.85 -11.05 -13.15 -13.0 L-13.15 -13.05 Q-12.85 -12.85 -12.35 -12.8 L-12.25 -12.8 -11.1 -13.05 27.1 -13.05 27.4 -13.05 28.05 -12.05 28.25 -11.15 28.05 -10.25 27.4 -9.3 Q26.75 -8.65 25.95 -8.5 M27.65 -14.7 L-16.7 -14.7 -28.25 -14.7 -28.25 -16.35 -24.35 -16.35 -24.35 -18.85 -21.55 -17.6 -19.75 -18.0 -19.75 -16.35 26.6 -16.35 Q27.05 -16.4 27.35 -15.7 L27.65 -14.75 27.65 -14.7 M10.3 9.25 L10.25 10.4 10.25 16.15 11.0 16.2 Q12.0 16.35 12.75 16.95 13.7 17.75 13.7 18.9 L-14.1 18.9 Q-14.1 17.75 -13.15 16.95 L-12.45 16.5 -11.65 16.25 -11.05 16.15 -11.0 16.15 1.5 16.15 9.65 16.15 8.15 15.65 5.05 14.9 4.25 14.5 4.45 10.15 Q4.9 9.8 6.2 9.2 L7.2 8.95 8.45 8.95 10.25 9.25 10.3 9.25" fill="#efefe9" fill-rule="evenodd" stroke="none"/>
      <path d="M-16.7 -14.7 L-16.7 -12.9 -16.8 -12.9 -16.4 -10.05 -16.0 -8.5 -15.6 -7.55 -15.45 -7.55 -15.45 -7.4 -14.6 -5.4 -13.7 -3.65 -13.7 -3.6 -13.05 -2.5 -12.1 -1.35 -10.3 0.45 -9.6 1.1 -8.35 2.1 -8.4 2.1 -12.25 1.7 -12.85 1.55 -18.0 0.3 Q-19.35 -0.05 -22.55 -1.8 L-23.95 -2.55 -24.05 -2.6 -25.1 -3.65 Q-26.25 -4.95 -26.95 -6.5 -28.1 -9.05 -28.2 -12.3 L-28.25 -12.3 -28.25 -14.7 -16.7 -14.7 M-4.45 4.05 L-2.05 4.7 -1.85 4.75 1.85 5.55 2.55 5.65 4.2 5.75 4.5 5.75 8.25 5.85 10.75 5.5 12.5 5.1 13.45 4.75 13.4 4.8 12.7 5.35 12.1 5.85 11.95 5.95 11.55 6.35 Q10.55 7.6 10.3 9.25 L10.25 9.25 8.45 8.95 7.2 8.95 6.2 9.2 Q4.9 9.8 4.45 10.15 L4.4 10.2 Q3.5 10.7 3.05 11.2 2.7 13.4 1.5 16.15 L-11.0 16.15 -11.0 15.0 Q-10.85 10.05 -11.3 8.2 L-11.7 7.15 Q-12.6 5.1 -14.85 3.1 L-15.4 2.6 -15.2 2.65 -12.55 3.2 -11.9 3.3 -11.15 3.45 -7.7 3.95 -7.6 3.95 -4.5 4.05 -4.45 4.05 M-22.1 -12.35 L-22.7 -12.35 -22.2 -10.05 Q-21.3 -6.95 -18.9 -4.65 L-17.65 -3.65 -16.35 -2.85 -13.65 -2.1 -13.4 -2.05 -13.35 -2.05 -14.1 -2.6 -14.8 -3.65 -14.95 -3.85 Q-15.75 -4.1 -16.45 -4.6 L-17.75 -5.85 Q-19.55 -7.75 -20.25 -9.4 L-20.5 -10.05 Q-20.85 -11.1 -20.8 -12.35 L-20.85 -12.3 -21.25 -12.25 -21.45 -12.25 -22.1 -12.35" fill="#b3b39d" fill-rule="evenodd" stroke="none"/>
      <path d="M-22.1 -12.35 L-21.45 -12.25 -21.25 -12.25 -20.85 -12.3 -20.8 -12.35 Q-20.85 -11.1 -20.5 -10.05 L-20.25 -9.4 Q-19.55 -7.75 -17.75 -5.85 L-16.45 -4.6 Q-15.75 -4.1 -14.95 -3.85 L-14.8 -3.65 -14.1 -2.6 -13.35 -2.05 -13.4 -2.05 -13.65 -2.1 -16.35 -2.85 -17.65 -3.65 -18.9 -4.65 Q-21.3 -6.95 -22.2 -10.05 L-22.7 -12.35 -22.1 -12.35" fill="#d8d8c7" fill-rule="evenodd" stroke="none"/>
      <path d="M-8.35 2.1 Q-6.7 3.2 -4.45 4.05 L-4.5 4.05 -7.6 3.95 -7.7 3.95 -11.15 3.45 -11.9 3.3 -12.55 3.2 -15.2 2.65 -15.4 2.6 -15.45 2.6 -16.0 2.2 -18.6 0.7 -22.95 -1.75 -23.95 -2.55 -22.55 -1.8 Q-19.35 -0.05 -18.0 0.3 L-12.85 1.55 -12.25 1.7 -8.4 2.1 -8.35 2.1" fill="#979779" fill-rule="evenodd" stroke="none"/>
      <path d="M25.6 -7.15 L25.55 -7.15 21.55 -7.2 20.75 -7.2 18.9 -7.2 18.2 -7.2 16.9 -7.2 16.6 -7.2 16.3 -7.2 -3.65 -5.9 Q-4.6 -5.6 -4.95 -5.2 L-3.95 -4.2 Q-3.45 -3.65 -1.85 -3.05 L-1.2 -2.8 -0.5 -2.6 1.7 -2.0 2.9 -1.7 11.05 -0.7 11.1 -0.7 17.95 -1.9 18.9 -2.25 19.5 -2.45 19.8 -2.3 Q20.0 -2.1 19.8 -1.65 L19.5 -1.1 17.25 1.2 Q15.25 3.2 12.5 4.25 L12.0 4.4 11.75 4.5 11.1 4.65 1.85 5.55 -1.85 4.75 -2.05 4.7 -4.45 4.05 Q-6.7 3.2 -8.35 2.1 L-9.6 1.1 -10.3 0.45 -12.1 -1.35 -13.05 -2.5 -13.7 -3.6 -13.7 -3.65 -14.6 -5.4 -15.45 -7.4 -15.45 -7.55 -15.6 -7.55 -16.0 -8.5 -16.4 -10.05 -16.8 -12.9 -16.7 -12.9 -16.7 -14.7 27.65 -14.7 27.4 -13.8 27.1 -13.05 -11.1 -13.05 -12.25 -12.8 -12.35 -12.8 Q-12.85 -12.85 -13.15 -13.05 L-13.15 -13.0 Q-14.85 -11.05 -14.3 -10.05 -14.1 -9.65 -13.5 -9.4 L-12.35 -9.2 25.95 -8.5 25.85 -8.05 25.6 -7.15 M1.5 16.15 Q2.7 13.4 3.05 11.2 3.5 10.7 4.4 10.2 L4.45 10.15 4.25 14.5 5.05 14.9 8.15 15.65 9.65 16.15 1.5 16.15" fill="#dadac9" fill-rule="evenodd" stroke="none"/>
      <path d="M-11.05 16.15 L-11.05 15.0 Q-10.9 10.05 -11.35 8.2 L-11.75 7.15 Q-12.65 5.1 -14.9 3.1 L-15.5 2.6 -15.45 2.6 -15.4 2.6 -14.85 3.1 Q-12.6 5.1 -11.7 7.15 L-11.3 8.2 Q-10.85 10.05 -11.0 15.0 L-11.0 16.15 -11.05 16.15" fill="#cccccc" fill-rule="evenodd" stroke="none"/>
      <path d="M-14.1 18.9 L-14.15 18.9 Q-14.15 17.75 -13.2 16.95 -12.85 16.65 -12.45 16.5 L-13.15 16.95 Q-14.1 17.75 -14.1 18.9" fill="#f3f3f3" fill-rule="evenodd" stroke="none"/>
    </g>
    <g id="sprite1" transform="matrix(1.0, 0.0, 0.0, 1.0, 11.15, 23.45)">
      <use ffdec:characterId="917" height="46.85" transform="matrix(1.0, 0.0, 0.0, 1.0, -11.15, -23.45)" width="22.25" xlink:href="#shape1"/>
    </g>
    <g id="shape1" transform="matrix(1.0, 0.0, 0.0, 1.0, 11.15, 23.45)">
      <path d="M11.1 -13.9 L11.1 -12.15 9.25 -12.15 9.25 -13.9 11.1 -13.9 M9.25 -15.7 L11.1 -15.7 11.1 -14.9 9.25 -14.9 9.25 -15.7" fill="#999999" fill-rule="evenodd" stroke="none"/>
      <path d="M11.1 -14.9 L11.1 -13.9 9.25 -13.9 9.25 -14.9 11.1 -14.9" fill="#cccccc" fill-rule="evenodd" stroke="none"/>
      <path d="M9.25 -11.15 L9.25 21.7 9.2 22.1 8.7 22.85 8.5 23.1 8.45 23.1 8.2 23.15 7.05 23.4 7.05 23.3 -9.05 23.4 -9.55 23.2 -10.0 22.85 Q-10.55 22.35 -10.55 21.6 L-10.55 -17.5 9.25 -17.5 9.25 -15.7 9.25 -14.9 9.25 -13.9 9.25 -12.15 9.25 -11.15 M-10.55 -19.8 L-11.15 -19.8 -11.15 -21.6 Q-11.15 -22.35 -10.6 -22.9 L-9.65 -23.4 -9.3 -23.45 7.9 -23.45 Q8.7 -23.45 9.25 -22.9 9.85 -22.35 9.85 -21.6 L9.85 -19.8 9.25 -19.8 -10.55 -19.8" fill="#efefe9" fill-rule="evenodd" stroke="none"/>
      <path d="M-10.55 -17.5 L-10.55 -19.8 9.25 -19.8 9.25 -17.5 -10.55 -17.5" fill="#dadac9" fill-rule="evenodd" stroke="none"/>
      <path d="M11.1 -12.15 L11.1 -11.15 9.25 -11.15 9.25 -12.15 11.1 -12.15" fill="#666666" fill-rule="evenodd" stroke="none"/>
    </g>
  </defs>
</svg>
