<?xml version="1.0" encoding="UTF-8" standalone="no"?>
<svg xmlns:ffdec="https://www.free-decompiler.com/flash" xmlns:xlink="http://www.w3.org/1999/xlink" ffdec:objectType="frame" height="47.3px" width="23.65px" xmlns="http://www.w3.org/2000/svg">
  <g transform="matrix(1.0, 0.0, 0.0, 1.0, 7.5, 23.35)">
    <use ffdec:characterId="1295" height="40.5" transform="matrix(1.0, 0.0, 0.0, 1.0, -5.65, -22.75)" width="11.55" xlink:href="#shape0"/>
    <use ffdec:characterId="1296" height="11.75" transform="matrix(1.0, 0.0, 0.0, 1.0, -7.5, 12.2)" width="23.65" xlink:href="#shape1"/>
    <use ffdec:characterId="1081" height="100.0" id="shape" transform="matrix(0.11, 0.0, 0.0, 0.45, -5.5, -22.5014)" width="100.0" xlink:href="#sprite0"/>
  </g>
  <defs>
    <g id="shape0" transform="matrix(1.0, 0.0, 0.0, 1.0, 5.65, 22.75)">
      <path d="M4.85 -1.25 L4.7 0.4 3.3 0.4 2.5 0.4 -4.85 0.4 -5.0 -1.3 2.85 -1.25 3.45 -1.25 4.85 -1.25 M4.55 2.0 L4.3 4.0 3.0 4.0 1.7 4.0 -4.5 4.0 -4.5 3.95 -4.7 2.0 2.15 2.0 3.15 2.0 4.55 2.0" fill="#e096e0" fill-rule="evenodd" stroke="none"/>
      <path d="M-5.0 -2.75 L-5.0 -2.9 Q-4.9 -4.3 -5.2 -5.9 L-5.65 -12.25 Q-5.6 -15.2 -5.1 -18.15 L-4.0 -19.5 Q-3.6 -22.25 -0.25 -22.7 L0.75 -22.7 Q3.75 -22.45 5.9 -17.45 5.8 -13.5 5.3 -8.85 L5.0 -2.75 3.55 -2.75 3.95 -7.25 3.15 -2.75 -5.0 -2.75" fill="#e2b181" fill-rule="evenodd" stroke="none"/>
      <path d="M3.15 -2.75 L3.95 -7.25 3.55 -2.75 3.15 -2.75" fill="#d5a675" fill-rule="evenodd" stroke="none"/>
      <path d="M5.0 -2.75 L4.85 -1.25 3.45 -1.25 3.55 -2.75 5.0 -2.75 M4.7 0.4 L4.65 1.05 4.55 2.0 3.15 2.0 3.3 0.4 4.7 0.4 M4.3 4.0 L4.3 4.05 4.25 4.15 Q3.9 6.5 3.7 9.55 L3.65 9.9 3.7 10.1 3.5 16.4 1.85 16.4 3.0 4.0 4.3 4.0 M-2.95 17.25 L-4.7 17.75 -4.65 17.5 -4.65 17.25 -4.6 17.0 -4.6 16.75 -4.55 16.5 -4.25 9.2 Q-4.3 6.3 -4.5 4.0 L1.7 4.0 0.6 7.9 -3.05 17.2 -2.95 17.25 M-4.7 2.0 L-4.8 1.05 -4.85 0.4 2.5 0.4 2.35 1.05 2.15 2.0 -4.7 2.0 M-5.0 -1.3 L-5.0 -2.75 3.15 -2.75 2.85 -1.25 -5.0 -1.3" fill="#e1e1e1" fill-rule="evenodd" stroke="none"/>
      <path d="M1.85 16.4 L0.25 16.45 0.1 16.45 -2.95 17.25 -3.05 17.2 0.6 7.9 1.7 4.0 3.0 4.0 1.85 16.4 M3.45 -1.25 L2.85 -1.25 3.15 -2.75 3.55 -2.75 3.45 -1.25 M3.3 0.4 L3.15 2.0 2.15 2.0 2.35 1.05 2.5 0.4 3.3 0.4" fill="#d2d2d2" fill-rule="evenodd" stroke="none"/>
    </g>
    <g id="shape1" transform="matrix(1.0, 0.0, 0.0, 1.0, 7.5, -12.2)">
      <path d="M16.05 22.05 L16.0 22.2 15.85 22.8 15.7 23.45 Q15.6 23.9 14.05 23.95 L6.5 23.35 -7.5 21.45 -7.2 19.45 15.1 21.95 16.05 22.05" fill="#ffffff" fill-rule="evenodd" stroke="none"/>
      <path d="M-7.2 19.45 L-7.15 18.95 -6.65 16.5 Q-6.35 14.4 -5.55 12.6 L-4.1 12.2 -1.5 12.3 1.4 12.25 2.7 12.2 3.9 12.3 4.5 12.4 4.7 12.5 6.25 13.6 6.65 13.9 6.8 14.05 6.9 14.15 Q8.45 15.8 10.35 16.95 L11.05 17.35 11.85 17.75 14.0 18.25 Q15.15 18.45 15.7 19.9 L16.15 21.55 16.05 22.05 15.1 21.95 -7.2 19.45" fill="#e096e0" fill-rule="evenodd" stroke="none"/>
    </g>
    <g id="sprite0" transform="matrix(1.0, 0.0, 0.0, 1.0, 50.0, 50.0)">
      <use ffdec:characterId="1080" height="100.0" transform="matrix(1.0, 0.0, 0.0, 1.0, -50.0, -50.0)" width="100.0" xlink:href="#shape2"/>
    </g>
    <g id="shape2" transform="matrix(1.0, 0.0, 0.0, 1.0, 50.0, 50.0)">
      <path d="M50.0 50.0 L-50.0 50.0 -50.0 -50.0 50.0 -50.0 50.0 50.0 Z" fill="none" stroke="#9900ff" stroke-linecap="round" stroke-linejoin="round" stroke-width="0.05"/>
    </g>
  </defs>
</svg>
