<?xml version="1.0" encoding="UTF-8" standalone="no"?>
<svg xmlns:ffdec="https://www.free-decompiler.com/flash" xmlns:xlink="http://www.w3.org/1999/xlink" ffdec:objectType="frame" height="66.15px" width="16.9px" xmlns="http://www.w3.org/2000/svg">
  <g transform="matrix(1.0, 0.0, 0.0, 1.0, 8.75, 30.75)">
    <use ffdec:characterId="2303" height="47.3" transform="matrix(1.0, 0.0, 0.0, 1.0, -8.75, -30.75)" width="16.9" xlink:href="#shape0"/>
    <use ffdec:characterId="1464" ffdec:characterName="game_fla.hand2_336" height="21.85" id="hand" transform="matrix(1.0, 0.0, 0.0, 1.0, -7.7, 13.55)" width="15.6" xlink:href="#sprite0"/>
  </g>
  <defs>
    <g id="shape0" transform="matrix(1.0, 0.0, 0.0, 1.0, 8.75, 30.75)">
      <path d="M1.2 -18.55 L1.25 -20.7 1.65 -21.05 1.75 -22.1 1.1 -22.75 Q0.25 -23.85 0.7 -25.3 L0.45 -25.85 0.8 -25.8 0.85 -25.75 Q2.15 -25.35 2.35 -23.2 2.55 -21.4 3.7 -20.8 L3.65 -20.75 Q3.6 -19.9 3.95 -18.95 L4.15 -18.55 4.45 -17.75 5.15 -17.9 5.75 -17.35 5.6 -16.85 5.0 -16.25 4.55 -15.55 4.5 -17.05 Q3.7 -17.3 3.15 -18.6 L2.3 -19.85 1.35 -18.55 1.2 -18.55 M-0.7 -22.85 L-0.45 -22.2 -0.05 -22.1 -1.2 -21.1 -2.85 -20.95 -3.6 -21.4 -3.55 -23.3 -6.9 -20.5 -5.8 -20.7 -6.15 -18.3 -6.65 -17.8 -8.0 -19.9 -8.4 -19.15 -8.75 -19.9 -7.35 -21.55 Q-5.65 -23.25 -3.4 -24.35 L-2.3 -24.5 -0.7 -22.85 M-0.7 -19.15 L0.1 -16.95 -0.85 -16.1 Q-1.7 -17.65 -2.9 -18.35 L-3.6 -18.4 -3.6 -18.5 Q-3.2 -19.8 -0.7 -19.15 M-0.05 -13.1 Q1.3 -11.75 2.1 -10.1 L2.55 -9.1 0.9 -8.05 0.3 -10.8 -0.3 -11.3 -0.05 -13.1 M3.6 -12.0 L3.0 -11.35 2.25 -11.6 2.6 -13.25 3.5 -13.1 3.6 -12.0 M5.4 -14.15 L6.95 -15.65 6.3 -18.1 6.65 -19.0 7.4 -17.8 6.7 -11.9 5.4 -14.15" fill="#ff0000" fill-rule="evenodd" stroke="none"/>
      <path d="M0.45 -25.85 L0.7 -25.3 Q0.25 -23.85 1.1 -22.75 L1.75 -22.1 1.65 -21.05 1.25 -20.7 1.2 -18.55 2.6 -13.25 2.25 -11.6 3.0 -11.35 3.6 -12.0 2.75 -6.9 2.0 -6.55 1.2 -6.8 0.9 -8.05 2.55 -9.1 2.1 -10.1 Q1.3 -11.75 -0.05 -13.1 L-0.05 -14.4 -0.95 -14.55 -0.9 -11.9 -2.05 -11.6 -2.75 -12.3 -2.7 -15.6 -2.35 -16.1 -3.75 -17.35 -3.6 -18.4 -2.9 -18.35 Q-1.7 -17.65 -0.85 -16.1 L0.1 -16.95 -0.7 -19.15 -1.2 -19.9 -2.4 -20.0 -3.05 -20.3 -3.6 -20.75 -4.25 -21.35 -4.9 -19.45 Q-5.7 -16.7 -5.6 -13.7 L-5.55 -13.55 -5.85 -12.95 -5.85 -12.85 -6.65 -17.8 -6.15 -18.3 -5.8 -20.7 -6.9 -20.5 -3.55 -23.3 -3.6 -21.4 -2.85 -20.95 -1.2 -21.1 -0.05 -22.1 -0.45 -22.2 -0.7 -22.85 -0.75 -26.3 -0.15 -26.8 0.45 -25.85 M4.55 -15.55 L5.0 -16.25 5.6 -16.85 5.75 -17.35 5.15 -17.9 4.45 -17.75 4.15 -18.55 3.95 -18.95 Q3.6 -19.9 3.65 -20.75 L6.3 -18.1 6.95 -15.65 5.4 -14.15 4.75 -14.1 4.55 -15.55" fill="#990000" fill-rule="evenodd" stroke="none"/>
      <path d="M-0.15 -26.8 L-0.75 -26.3 -0.7 -22.85 -2.3 -24.5 -3.4 -24.35 Q-3.5 -26.8 -2.55 -29.0 L-2.35 -29.5 -1.7 -30.75 -1.55 -30.15 -1.15 -29.85 0.2 -30.6 -0.15 -26.8 M3.65 -20.75 L3.7 -20.8 5.75 -25.45 8.15 -23.35 7.7 -22.15 7.15 -20.5 7.0 -20.1 6.65 -19.0 6.3 -18.1 3.65 -20.75" fill="#ffffff" fill-rule="evenodd" stroke="none"/>
      <path d="M-6.65 -17.8 L-5.85 -12.85 Q-5.65 -9.5 -4.65 -6.0 L-4.15 -3.0 Q-3.35 0.2 -3.0 4.0 L-2.55 16.05 -3.45 14.1 -3.45 12.5 -4.2 3.65 Q-4.35 0.15 -5.45 -3.4 L-6.3 -6.25 -6.95 -7.95 -7.75 -12.35 -8.35 -17.25 -8.4 -19.15 -8.0 -19.9 -6.65 -17.8 M-5.55 -13.55 L-5.6 -13.7 Q-5.7 -16.7 -4.9 -19.45 L-4.25 -21.35 -3.6 -20.75 -3.05 -20.3 -2.4 -20.0 -1.2 -19.9 -0.7 -19.15 Q-3.2 -19.8 -3.6 -18.5 L-3.6 -18.4 -3.75 -17.35 -2.35 -16.1 -2.7 -15.6 -2.75 -12.3 -2.05 -11.6 -0.9 -11.9 -0.95 -14.55 -0.05 -14.4 -0.05 -13.1 -0.3 -11.3 0.3 -10.8 0.9 -8.05 1.2 -6.8 2.0 -6.55 2.75 -6.9 3.6 -12.0 3.5 -13.1 2.6 -13.25 1.2 -18.55 1.35 -18.55 2.3 -19.85 3.15 -18.6 Q3.7 -17.3 4.5 -17.05 L4.55 -15.55 4.75 -14.1 5.4 -14.15 6.7 -11.9 6.25 -9.6 6.0 -7.75 5.75 -6.45 5.95 -5.85 Q5.9 -5.55 6.0 -5.3 L5.95 -4.2 5.95 -3.65 5.85 -3.65 5.3 2.4 5.3 4.4 6.15 12.35 6.35 13.25 6.55 14.1 Q4.35 16.8 3.5 16.5 L1.8 13.25 Q1.05 11.8 0.65 10.15 L0.6 10.05 Q0.2 8.0 -0.05 5.8 -0.6 1.0 -0.3 -3.75 -0.45 -4.6 -0.9 -5.3 L-3.45 -8.2 Q-4.75 -10.3 -5.45 -12.8 L-5.55 -13.55" fill="#ffcc99" fill-rule="evenodd" stroke="none"/>
      <path d="M-5.85 -12.85 L-5.85 -12.95 -5.55 -13.55 -5.45 -12.8 Q-4.75 -10.3 -3.45 -8.2 L-0.9 -5.3 Q-0.45 -4.6 -0.3 -3.75 -0.6 1.0 -0.05 5.8 0.2 8.0 0.6 10.05 L0.65 10.15 Q1.05 11.8 1.8 13.25 L3.5 16.5 -2.55 16.05 -3.0 4.0 Q-3.35 0.2 -4.15 -3.0 L-4.65 -6.0 Q-5.65 -9.5 -5.85 -12.85" fill="#ebbb98" fill-rule="evenodd" stroke="none"/>
    </g>
    <g id="sprite0" transform="matrix(1.0, 0.0, 0.0, 1.0, 8.8, 7.45)">
      <use ffdec:characterId="1462" height="14.95" transform="matrix(1.0, 0.0, 0.0, 1.0, -6.75, -7.45)" width="13.55" xlink:href="#shape1"/>
    </g>
    <g id="shape1" transform="matrix(1.0, 0.0, 0.0, 1.0, 6.75, 7.45)">
      <path d="M0.85 -7.45 L5.35 -7.45 5.65 -6.2 6.25 -3.75 6.4 -3.35 6.45 -3.15 6.45 -3.0 4.9 2.05 4.0 4.55 -1.6 2.8 -2.45 2.45 Q-1.4 4.45 0.9 4.55 L0.25 4.85 -6.65 3.6 -6.75 3.1 -6.45 0.85 -6.3 0.05 -5.55 -0.6 -0.3 -1.0 -0.25 -1.0 -0.25 -1.05 -0.75 -3.5 0.55 -4.75 Q1.1 -5.35 2.85 -5.15 L2.15 -6.45 1.7 -6.55 1.35 -6.6 0.85 -7.45 M-3.75 -7.45 L-3.75 -6.75 -4.15 -4.95 -4.65 -4.85 -4.65 -6.05 -4.6 -6.6 -4.55 -6.7 -4.5 -7.45 -3.75 -7.45 M-5.1 -2.4 L-5.1 -2.2 -5.15 -2.3 -5.1 -2.4" fill="#ffcc99" fill-rule="evenodd" stroke="none"/>
      <path d="M0.85 -7.45 L1.35 -6.6 1.7 -6.55 2.15 -6.45 2.85 -5.15 Q1.1 -5.35 0.55 -4.75 L-0.75 -3.5 -0.25 -1.05 -0.3 -1.0 -5.55 -0.6 -5.1 -2.2 -5.1 -2.4 -4.65 -4.85 -4.15 -4.95 -3.75 -6.75 -3.75 -7.45 0.85 -7.45" fill="#ebbb98" fill-rule="evenodd" stroke="none"/>
      <path d="M-6.65 3.6 L0.25 4.85 0.9 4.55 Q-1.4 4.45 -2.45 2.45 L-1.6 2.8 4.0 4.55 4.9 2.05 6.45 -3.0 6.8 -0.1 Q6.9 2.8 6.0 5.6 L5.6 5.95 5.35 6.5 Q2.85 8.15 0.3 7.05 L-1.5 7.2 Q-4.45 7.25 -6.25 5.15 L-6.65 4.65 -6.7 3.6 -6.65 3.6" fill="#e2b181" fill-rule="evenodd" stroke="none"/>
    </g>
  </defs>
</svg>
