<?xml version="1.0" encoding="UTF-8" standalone="no"?>
<svg xmlns:ffdec="https://www.free-decompiler.com/flash" xmlns:xlink="http://www.w3.org/1999/xlink" ffdec:objectType="frame" height="24.75px" width="18.15px" xmlns="http://www.w3.org/2000/svg">
  <g transform="matrix(1.0, 0.0, 0.0, 1.0, 9.95, 12.35)">
    <use ffdec:characterId="572" height="24.75" transform="matrix(1.0, 0.0, 0.0, 1.0, -9.95, -12.35)" width="18.15" xlink:href="#shape0"/>
  </g>
  <defs>
    <g id="shape0" transform="matrix(1.0, 0.0, 0.0, 1.0, 9.95, 12.35)">
      <path d="M2.9 -10.8 L3.75 -11.1 4.0 -9.6 4.6 -8.8 5.7 -4.5 5.6 -4.05 3.5 -8.9 3.25 -9.7 2.9 -10.8 M-3.95 -10.0 L-3.65 -10.05 -2.95 -10.05 -2.95 -10.0 -2.65 -10.0 -2.65 -10.05 0.95 -10.15 1.45 -10.25 3.2 -5.55 3.45 -4.3 3.25 -3.7 2.4 -3.9 1.85 -2.4 0.35 -2.7 0.25 -3.45 -0.05 -2.25 -0.8 -2.5 -0.9 -3.15 -1.55 -2.85 -1.9 0.9 -2.8 -0.15 -2.65 -2.85 -3.0 -4.8 -3.0 -5.05 -3.05 -5.05 -3.95 -10.0" fill="#ef7f33" fill-rule="evenodd" stroke="none"/>
      <path d="M-3.05 10.35 L-3.65 9.55 -3.0 -4.15 -4.05 -0.65 -3.85 0.85 -4.85 4.1 -7.9 0.4 -7.9 -2.35 -7.2 -3.9 -6.95 -3.2 -6.3 -6.0 -6.0 -6.7 -5.6 -5.55 -5.0 -7.45 -5.25 -8.4 -4.6 -10.0 -3.95 -10.0 -3.05 -5.05 -3.0 -5.05 -3.0 -4.8 -2.65 -2.85 -2.8 -0.15 -1.9 0.9 -1.55 -2.85 -0.9 -3.15 -0.8 -2.5 -0.05 -2.25 0.25 -3.45 0.35 -2.7 1.85 -2.4 2.4 -3.9 3.25 -3.7 3.45 -4.3 3.2 -5.55 1.45 -10.25 2.9 -10.8 3.25 -9.7 3.5 -8.9 5.6 -4.05 6.1 -3.0 8.2 1.95 8.2 2.7 5.45 7.45 4.0 9.2 4.0 8.85 3.4 8.75 1.85 9.7 2.15 9.15 2.7 8.3 3.65 6.05 4.4 3.2 4.65 1.7 4.95 -0.1 4.5 1.1 2.9 5.25 2.75 5.2 2.2 6.75 Q1.65 8.4 0.55 9.45 L-0.1 10.05 -0.8 10.4 -1.55 10.8 -1.8 11.05 -0.5 7.95 -3.05 10.35" fill="#e57128" fill-rule="evenodd" stroke="none"/>
      <path d="M3.75 -11.1 L3.85 -11.15 4.0 -11.25 4.6 -8.8 4.0 -9.6 3.75 -11.1 M5.6 -4.05 L5.7 -4.5 6.1 -3.0 5.6 -4.05" fill="#f29655" fill-rule="evenodd" stroke="none"/>
      <path d="M3.75 -11.1 L2.9 -10.8 1.45 -10.25 0.95 -10.15 -2.65 -10.05 -2.65 -10.0 -2.95 -10.0 -2.95 -10.05 -3.65 -10.05 -3.95 -10.0 -4.6 -10.0 -5.25 -8.4 -6.0 -6.7 -6.3 -6.0 -7.2 -3.9 -7.9 -2.35 -7.9 0.4 -4.85 4.1 -4.0 5.15 -3.65 9.55 -3.05 10.35 -1.75 11.9 -0.95 12.0 -2.05 12.1 -2.95 12.4 -5.4 10.3 -5.15 5.7 -9.95 0.35 -9.7 -2.7 -6.4 -11.2 -5.4 -11.1 0.85 -11.35 3.55 -12.35 3.85 -11.15 3.75 -11.1" fill="#ffc670" fill-rule="evenodd" stroke="none"/>
      <path d="M-0.95 12.0 L-1.75 11.9 -3.05 10.35 -0.5 7.95 -1.8 11.05 -1.55 10.8 -0.8 10.4 -0.1 10.05 0.55 9.45 Q1.65 8.4 2.2 6.75 L2.75 5.2 2.9 5.25 4.5 1.1 4.95 -0.1 4.65 1.7 4.4 3.2 3.65 6.05 2.7 8.3 2.15 9.15 1.85 9.7 3.4 8.75 4.0 8.85 4.0 9.2 2.25 11.45 -0.95 12.0 M-3.65 9.55 L-4.0 5.15 -4.85 4.1 -3.85 0.85 -4.05 -0.65 -3.0 -4.15 -3.65 9.55" fill="#d45d23" fill-rule="evenodd" stroke="none"/>
      <path d="M-7.2 -3.9 L-6.3 -6.0 -6.95 -3.2 -7.2 -3.9 M-6.0 -6.7 L-5.25 -8.4 -5.0 -7.45 -5.6 -5.55 -6.0 -6.7" fill="#ff8c3f" fill-rule="evenodd" stroke="none"/>
    </g>
  </defs>
</svg>
