<?xml version="1.0" encoding="UTF-8" standalone="no"?>
<svg xmlns:ffdec="https://www.free-decompiler.com/flash" xmlns:xlink="http://www.w3.org/1999/xlink" ffdec:objectType="frame" height="7.25px" width="6.95px" xmlns="http://www.w3.org/2000/svg">
  <g transform="matrix(1.0, 0.0, 0.0, 1.0, 0.0, 0.0)">
    <use ffdec:characterId="584" height="4.35" transform="matrix(1.0, 0.0, 0.0, 1.0, 0.0, 0.0)" width="4.85" xlink:href="#shape0"/>
  </g>
  <defs>
    <g id="shape0" transform="matrix(1.0, 0.0, 0.0, 1.0, 0.0, 0.0)">
      <path d="M4.85 2.75 Q4.85 3.1 4.45 3.35 L3.75 3.6 Q2.4 3.6 2.85 2.25 L2.3 2.25 2.6 3.55 2.35 4.05 1.65 4.35 Q0.25 4.35 0.0 3.05 0.0 2.0 0.9 1.8 L0.9 1.65 Q0.9 -0.35 2.9 0.05 4.85 0.45 4.85 2.75" fill="#e5e470" fill-rule="evenodd" stroke="none"/>
    </g>
  </defs>
</svg>
