<?xml version="1.0" encoding="UTF-8" standalone="no"?>
<svg xmlns:ffdec="https://www.free-decompiler.com/flash" xmlns:xlink="http://www.w3.org/1999/xlink" ffdec:objectType="frame" height="7.25px" width="6.95px" xmlns="http://www.w3.org/2000/svg">
  <g transform="matrix(1.0, 0.0, 0.0, 1.0, 0.0, 0.0)">
    <use ffdec:characterId="586" height="5.45" transform="matrix(1.0, 0.0, 0.0, 1.0, 0.15, 0.0)" width="3.6" xlink:href="#shape0"/>
  </g>
  <defs>
    <g id="shape0" transform="matrix(1.0, 0.0, 0.0, 1.0, -0.15, 0.0)">
      <path d="M3.75 2.75 L3.55 3.1 3.4 3.25 Q3.75 3.7 3.75 4.5 3.75 5.45 3.2 5.45 2.3 5.45 1.9 4.4 L1.9 4.25 1.7 4.45 0.85 5.0 Q0.0 5.0 0.15 4.15 0.15 3.3 1.2 2.85 L1.4 2.8 Q0.8 2.2 0.8 1.05 L0.85 0.3 Q1.05 0.0 1.95 0.0 3.3 0.0 3.4 1.0 3.5 2.45 3.75 2.75" fill="#e5e470" fill-rule="evenodd" stroke="none"/>
    </g>
  </defs>
</svg>
