<?xml version="1.0" encoding="UTF-8" standalone="no"?>
<svg xmlns:ffdec="https://www.free-decompiler.com/flash" xmlns:xlink="http://www.w3.org/1999/xlink" ffdec:objectType="frame" height="18.7px" width="15.95px" xmlns="http://www.w3.org/2000/svg">
  <g transform="matrix(1.0, 0.0, 0.0, 1.0, 7.9, 9.85)">
    <use ffdec:characterId="2332" height="18.7" transform="matrix(1.0, 0.0, 0.0, 1.0, -7.9, -9.85)" width="15.95" xlink:href="#shape0"/>
  </g>
  <defs>
    <g id="shape0" transform="matrix(1.0, 0.0, 0.0, 1.0, 7.9, 9.85)">
      <path d="M3.15 -5.6 Q4.4 -4.4 5.4 -2.8 L4.7 -2.55 3.8 -3.05 3.95 -3.3 3.95 -3.95 3.15 -5.6 M3.05 -2.35 L3.5 -2.0 4.15 -2.25 4.9 -1.9 5.05 -1.15 Q5.6 -0.9 6.2 -0.8 L7.0 -0.7 7.4 -1.0 7.0 -0.1 Q8.05 1.65 8.05 2.25 L7.85 3.65 7.0 4.9 6.95 4.85 6.35 5.55 5.7 5.0 6.35 4.2 6.6 4.05 7.1 2.65 6.5 2.0 5.8 1.3 Q4.45 0.05 4.45 -0.35 L4.5 -0.85 4.4 -0.85 Q2.8 -0.85 2.95 -2.0 L3.05 -2.35 M-0.75 -7.7 L-0.65 -7.5 -0.65 -7.45 -0.55 -7.45 Q0.55 -7.4 1.4 -6.95 L-1.9 -7.1 -2.3 -6.5 Q-2.85 -5.65 -3.65 -5.4 L-3.75 -3.7 -4.1 -3.25 -4.65 -3.2 Q-6.55 -2.65 -6.95 -4.6 L-6.1 -5.75 -6.1 -4.4 -6.0 -4.1 -4.3 -4.0 Q-3.4 -4.65 -3.95 -5.9 L-4.25 -6.4 -5.3 -6.5 -6.1 -5.8 -6.55 -5.75 Q-6.9 -5.85 -7.15 -6.1 L-7.2 -6.25 -5.75 -7.75 -3.4 -8.35 -4.25 -6.85 -3.75 -6.65 -1.4 -8.8 -1.35 -8.5 -0.75 -7.7 M-3.2 -3.2 L-2.85 -3.7 -2.95 -2.95 -2.9 -2.05 -2.35 -1.85 Q-0.75 -1.9 -0.2 -3.6 L-0.05 -2.95 Q-0.05 -2.05 -0.5 -1.4 -1.0 -0.8 -1.65 -0.8 -3.3 -0.65 -3.3 -2.4 L-3.2 -3.2 M0.25 4.25 L0.7 5.8 0.55 6.25 1.2 7.35 1.25 7.35 1.85 6.25 4.2 7.15 Q1.3 10.3 -2.0 7.55 L-3.4 7.6 -3.5 7.35 0.25 4.25" fill="#990000" fill-rule="evenodd" stroke="none"/>
      <path d="M3.15 -5.6 L2.8 -6.4 1.7 -6.95 1.4 -6.95 Q0.55 -7.4 -0.55 -7.45 L-0.65 -7.5 -0.75 -7.7 3.0 -9.0 Q4.9 -6.4 5.65 -3.05 L6.95 -2.25 Q7.85 -1.85 7.4 -1.0 L7.0 -0.7 6.2 -0.8 Q5.6 -0.9 5.05 -1.15 L4.9 -1.9 4.15 -2.25 3.5 -2.0 3.05 -2.35 3.3 -2.85 3.8 -3.05 4.7 -2.55 5.4 -2.8 Q4.4 -4.4 3.15 -5.6 M-2.85 -3.7 L-1.95 -4.25 -1.1 -4.35 -0.35 -4.0 -0.2 -3.6 Q-0.75 -1.9 -2.35 -1.85 L-2.9 -2.05 -2.95 -2.95 -2.85 -3.7 M0.7 5.8 L1.65 5.45 3.15 5.6 3.55 6.1 4.95 5.85 5.55 5.1 5.7 5.0 6.35 5.55 Q6.35 6.2 5.75 6.7 5.1 7.15 4.2 7.15 L1.85 6.25 1.25 7.35 1.2 7.35 0.55 6.25 0.7 5.8 M-5.75 -7.75 Q-4.2 -10.1 -1.65 -9.85 L-1.4 -8.8 -3.75 -6.65 -4.25 -6.85 -3.4 -8.35 -5.75 -7.75 M-6.1 -5.8 L-5.3 -6.5 -4.25 -6.4 -3.95 -5.9 Q-3.4 -4.65 -4.3 -4.0 L-6.0 -4.1 -6.1 -4.4 -6.1 -5.75 -6.1 -5.8" fill="#ff0000" fill-rule="evenodd" stroke="none"/>
      <path d="M0.1 -0.05 L0.55 -0.45 1.4 0.85 0.5 1.75 1.45 3.3 2.45 2.95 1.5 1.95 2.3 1.5 1.85 0.25 0.5 -1.85 -0.55 -1.3 -0.75 0.05 0.1 -0.05 M-0.05 -2.95 L0.2 -2.95 Q1.3 -2.9 1.85 -1.9 L2.25 -1.55 Q3.3 -0.65 3.6 0.8 L3.6 3.2 3.7 3.55 Q3.35 3.6 3.35 3.9 3.35 4.5 5.55 5.1 L4.95 5.85 3.55 6.1 3.15 5.6 1.65 5.45 0.7 5.8 0.25 4.25 -0.15 3.35 -0.6 2.5 Q-1.35 0.95 -1.55 -0.2 L-1.6 -0.45 -1.65 -0.8 Q-1.0 -0.8 -0.5 -1.4 -0.05 -2.05 -0.05 -2.95 M5.75 4.0 L6.25 3.55 6.3 2.9 6.5 2.0 7.1 2.65 6.6 4.05 6.35 4.2 5.75 4.0" fill="#ffcc99" fill-rule="evenodd" stroke="none"/>
      <path d="M0.1 -0.05 L-0.75 0.05 -0.55 -1.3 0.5 -1.85 1.85 0.25 2.3 1.5 1.5 1.95 2.45 2.95 1.45 3.3 0.5 1.75 1.4 0.85 0.55 -0.45 0.1 -0.05" fill="#c79b68" fill-rule="evenodd" stroke="none"/>
      <path d="M1.4 -6.95 L1.7 -6.95 2.8 -6.4 3.15 -5.6 3.95 -3.95 3.6 -3.5 2.55 -5.85 1.45 -5.0 -0.5 -6.15 -1.95 -4.25 -2.85 -3.7 -3.2 -3.2 -3.6 -3.6 -3.75 -3.7 -3.65 -5.4 Q-2.85 -5.65 -2.3 -6.5 L-1.9 -7.1 1.4 -6.95 M-7.1 0.65 L-7.8 -3.55 -7.9 -5.75 -7.7 -5.95 -7.5 -6.15 -7.2 -6.25 -7.15 -6.1 Q-6.9 -5.85 -6.55 -5.75 L-6.1 -5.8 -6.1 -5.75 -6.95 -4.6 Q-6.55 -2.65 -4.65 -3.2 L-4.1 -3.25 -3.95 0.2 -6.4 -2.15 -6.35 -1.7 -6.15 -0.7 -6.2 -0.55 -6.75 -1.0 -6.25 1.35 -7.1 0.65" fill="#996633" fill-rule="evenodd" stroke="none"/>
      <path d="M3.8 -3.05 L3.3 -2.85 3.05 -2.35 2.95 -2.0 Q2.8 -0.85 4.4 -0.85 L4.5 -0.85 4.45 -0.35 Q4.45 0.05 5.8 1.3 L6.5 2.0 6.3 2.9 6.25 3.55 5.75 4.0 5.4 4.0 Q4.0 4.0 3.7 3.55 L3.6 3.2 3.6 0.8 Q3.3 -0.65 2.25 -1.55 L1.85 -1.9 Q1.3 -2.9 0.2 -2.95 L-0.05 -2.95 -0.2 -3.6 -0.35 -4.0 -1.1 -4.35 -1.95 -4.25 -0.5 -6.15 1.45 -5.0 2.55 -5.85 3.6 -3.5 3.95 -3.95 3.95 -3.3 3.8 -3.05 M-3.75 -3.7 L-3.6 -3.6 -3.2 -3.2 -3.3 -2.4 Q-3.3 -0.65 -1.65 -0.8 L-1.6 -0.45 -1.55 -0.2 Q-1.35 0.95 -0.6 2.5 L-0.15 3.35 0.25 4.25 -3.5 7.35 -4.15 7.4 -4.45 7.35 Q-6.2 4.2 -7.1 0.65 L-6.25 1.35 -6.75 -1.0 -6.2 -0.55 -6.15 -0.7 -6.35 -1.7 -6.4 -2.15 -3.95 0.2 -4.1 -3.25 -3.75 -3.7" fill="#795128" fill-rule="evenodd" stroke="none"/>
      <path d="M5.55 5.1 Q3.35 4.5 3.35 3.9 3.35 3.6 3.7 3.55 4.0 4.0 5.4 4.0 L5.75 4.0 6.35 4.2 5.7 5.0 5.55 5.1" fill="#ebbb98" fill-rule="evenodd" stroke="none"/>
    </g>
  </defs>
</svg>
