<?xml version="1.0" encoding="UTF-8" standalone="no"?>
<svg xmlns:ffdec="https://www.free-decompiler.com/flash" xmlns:xlink="http://www.w3.org/1999/xlink" ffdec:objectType="frame" height="67.95px" width="20.75px" xmlns="http://www.w3.org/2000/svg">
  <g transform="matrix(1.0, 0.0, 0.0, 1.0, 11.65, 5.45)">
    <use ffdec:characterId="2480" ffdec:characterName="game_fla.lowerarm1_329" height="67.95" id="lowerArm1" transform="matrix(1.0, 0.0, 0.0, 1.0, -11.65, -5.45)" width="20.75" xlink:href="#sprite0"/>
  </g>
  <defs>
    <g id="sprite0" transform="matrix(1.0, 0.0, 0.0, 1.0, 11.2, 30.35)">
      <use ffdec:characterId="2476" height="44.7" transform="matrix(1.0, 0.0, 0.0, 1.0, -8.05, -29.75)" width="16.8" xlink:href="#shape0"/>
      <use ffdec:characterId="2478" ffdec:characterName="game_fla.hand_330" height="24.55" id="hand" transform="matrix(1.0, 0.0, 0.0, 1.0, -8.95, 13.05)" width="16.7" xlink:href="#sprite1"/>
      <use ffdec:characterId="1081" height="100.0" id="shape" transform="matrix(0.15, 0.0, 0.0, 0.6, -7.4997, -29.9995)" width="100.0" xlink:href="#sprite2"/>
    </g>
    <g id="shape0" transform="matrix(1.0, 0.0, 0.0, 1.0, 8.05, 29.75)">
      <path d="M7.6 -22.6 Q7.15 -17.05 7.5 -11.65 L7.8 -6.0 Q8.05 -0.4 7.35 5.5 L7.0 7.5 3.75 8.15 3.15 8.25 2.35 8.35 2.2 7.35 3.3 6.1 3.0 3.95 2.85 -1.75 Q2.5 -7.4 3.55 -13.05 5.25 -16.1 5.25 -19.75 L5.15 -22.05 3.05 -20.75 2.95 -21.65 5.3 -23.9 2.85 -28.3 3.8 -29.35 5.0 -29.4 Q7.6 -26.5 7.6 -22.6" fill="#9299a9" fill-rule="evenodd" stroke="none"/>
      <path d="M7.9 8.5 L-0.3 9.2 0.65 8.05 0.75 7.4 0.75 7.35 0.05 6.6 0.8 5.25 0.85 3.2 -0.15 -1.4 0.35 -14.2 0.6 -15.25 1.3 -17.9 2.0 -19.65 1.6 -20.2 -0.6 -20.05 1.55 -21.7 1.8 -23.2 -1.3 -23.45 3.95 -25.05 3.8 -25.45 -3.5 -29.1 3.8 -29.35 2.85 -28.3 5.3 -23.9 2.95 -21.65 3.05 -20.75 5.15 -22.05 5.25 -19.75 Q5.25 -16.1 3.55 -13.05 2.5 -7.4 2.85 -1.75 L3.0 3.95 3.3 6.1 2.2 7.35 2.35 8.35 3.15 8.25 3.75 8.15 7.0 7.5 7.35 5.5 Q8.05 -0.4 7.8 -6.0 L7.5 -11.65 Q7.15 -17.05 7.6 -22.6 L8.5 -11.3 8.75 -5.5 Q8.7 0.15 8.1 5.75 L7.9 8.5 M-3.7 -29.1 L-3.95 -28.15 -2.05 -25.55 -2.3 -25.05 -2.2 -24.55 -3.7 -22.9 -1.4 -21.85 -4.9 -19.0 -4.85 -18.35 -2.15 -19.1 -1.55 -18.9 -2.55 -17.5 -1.15 0.4 -1.8 1.0 -1.9 2.2 -1.6 5.45 -2.5 7.05 -1.75 7.75 -2.1 8.1 -2.25 8.8 -7.1 9.65 Q-7.7 5.85 -7.8 1.9 L-7.85 0.1 -8.05 -7.1 -8.0 -16.8 Q-7.95 -22.2 -7.2 -24.8 L-6.05 -28.45 Q-6.05 -28.95 -3.7 -29.1 M7.8 9.15 L7.9 9.0 7.9 9.1 7.8 9.15" fill="#727e94" fill-rule="evenodd" stroke="none"/>
      <path d="M-3.5 -29.1 L3.8 -25.45 3.95 -25.05 -1.3 -23.45 1.8 -23.2 1.55 -21.7 -0.6 -20.05 1.6 -20.2 2.0 -19.65 1.3 -17.9 0.6 -15.25 0.35 -14.2 -0.15 -1.4 0.85 3.2 0.8 5.25 0.05 6.6 0.75 7.35 0.75 7.4 0.65 8.05 -0.3 9.2 7.9 8.5 7.9 9.0 7.8 9.15 7.25 9.15 -6.55 10.25 -6.85 10.25 -7.1 9.65 -2.25 8.8 -2.1 8.1 -1.75 7.75 -2.5 7.05 -1.6 5.45 -1.9 2.2 -1.8 1.0 -1.15 0.4 -2.55 -17.5 -1.55 -18.9 -2.15 -19.1 -4.85 -18.35 -4.9 -19.0 -1.4 -21.85 -3.7 -22.9 -2.2 -24.55 -2.3 -25.05 -2.05 -25.55 -3.95 -28.15 -3.7 -29.1 -3.7 -29.2 -3.5 -29.1" fill="#5c617c" fill-rule="evenodd" stroke="none"/>
      <path d="M-6.55 10.25 L7.25 9.15 7.5 11.35 5.35 11.45 4.8 11.45 -1.9 11.75 -3.4 11.8 -4.2 11.85 -6.4 12.0 -6.55 10.25" fill="#ffffff" fill-rule="evenodd" stroke="none"/>
      <path d="M-1.9 11.75 Q0.85 12.4 3.55 11.8 L4.7 11.5 4.8 11.45 5.35 11.45 5.45 12.65 5.25 13.25 Q1.95 13.45 -1.5 14.35 L-3.65 14.95 -3.85 13.4 -3.4 11.8 -1.9 11.75" fill="#ebbb98" fill-rule="evenodd" stroke="none"/>
      <path d="M4.8 11.45 L4.7 11.5 3.55 11.8 Q0.85 12.4 -1.9 11.75 L4.8 11.45 M-3.4 11.8 L-3.85 13.4 -3.95 13.35 -4.05 13.5 -4.15 13.15 -4.2 11.85 -3.4 11.8 M5.25 13.25 L5.45 12.65 5.55 13.25 5.55 13.35 5.25 13.25" fill="#ffcc99" fill-rule="evenodd" stroke="none"/>
    </g>
    <g id="sprite1" transform="matrix(1.0, 0.0, 0.0, 1.0, 9.35, 8.9)">
      <use ffdec:characterId="1547" height="17.85" transform="matrix(1.0, 0.0, 0.0, 1.0, -7.3, -8.9)" width="14.65" xlink:href="#shape1"/>
    </g>
    <g id="shape1" transform="matrix(1.0, 0.0, 0.0, 1.0, 7.3, 8.9)">
      <path d="M4.95 -8.9 L5.15 -8.9 5.15 -8.7 7.35 0.55 6.75 2.2 5.6 3.65 5.8 6.3 5.15 5.3 Q3.45 6.0 1.8 7.05 L0.45 6.1 Q-0.4 7.25 -1.15 6.95 L-2.0 6.65 -2.55 5.85 -6.25 4.75 -5.9 4.05 Q-4.8 1.7 -4.3 -0.85 -3.95 -2.9 -3.25 -4.7 -2.75 -5.95 -2.55 -7.15 L-2.45 -7.75 1.6 -8.25 1.35 -7.75 1.75 -7.35 2.2 -7.15 4.15 -4.0 4.95 -7.2 Q5.1 -7.95 4.85 -8.65 L4.95 -8.9 M-4.75 -7.5 L-4.45 -8.45 -4.55 -8.8 -4.55 -8.9 -4.05 -8.9 -4.75 -7.5" fill="#ffcc99" fill-rule="evenodd" stroke="none"/>
      <path d="M5.8 6.3 L5.75 6.7 5.7 6.85 Q4.9 7.55 3.7 8.05 L2.65 7.7 2.5 7.65 2.0 8.1 0.85 8.65 -0.3 8.95 -1.2 7.95 -1.25 8.0 -1.85 8.5 -3.05 8.5 Q-4.9 8.0 -5.5 6.3 L-6.55 5.9 -7.2 4.85 -7.3 4.6 Q-7.2 -0.15 -5.5 -5.05 L-4.75 -7.5 -4.05 -8.9 4.95 -8.9 4.85 -8.65 Q5.1 -7.95 4.95 -7.2 L4.15 -4.0 2.2 -7.15 1.75 -7.35 1.35 -7.75 1.6 -8.25 -2.45 -7.75 -2.55 -7.15 Q-2.75 -5.95 -3.25 -4.7 -3.95 -2.9 -4.3 -0.85 -4.8 1.7 -5.9 4.05 L-6.25 4.75 -2.55 5.85 -2.0 6.65 -1.15 6.95 Q-0.4 7.25 0.45 6.1 L1.8 7.05 Q3.45 6.0 5.15 5.3 L5.8 6.3" fill="#ebbb98" fill-rule="evenodd" stroke="none"/>
    </g>
    <g id="sprite2" transform="matrix(1.0, 0.0, 0.0, 1.0, 50.0, 50.0)">
      <use ffdec:characterId="1080" height="100.0" transform="matrix(1.0, 0.0, 0.0, 1.0, -50.0, -50.0)" width="100.0" xlink:href="#shape2"/>
    </g>
    <g id="shape2" transform="matrix(1.0, 0.0, 0.0, 1.0, 50.0, 50.0)">
      <path d="M50.0 50.0 L-50.0 50.0 -50.0 -50.0 50.0 -50.0 50.0 50.0 Z" fill="none" stroke="#9900ff" stroke-linecap="round" stroke-linejoin="round" stroke-width="0.05"/>
    </g>
  </defs>
</svg>
