<?xml version="1.0" encoding="UTF-8" standalone="no"?>
<svg xmlns:ffdec="https://www.free-decompiler.com/flash" xmlns:xlink="http://www.w3.org/1999/xlink" ffdec:objectType="frame" height="142.2px" width="3.0px" xmlns="http://www.w3.org/2000/svg">
  <g transform="matrix(1.0, 0.0, 0.0, 1.0, 1.5, 0.0)">
    <use ffdec:characterId="1059" height="142.2" transform="matrix(1.0, 0.0, 0.0, 1.0, -1.5, 0.0)" width="3.0" xlink:href="#shape0"/>
  </g>
  <defs>
    <g id="shape0" transform="matrix(1.0, 0.0, 0.0, 1.0, 1.5, 0.0)">
      <path d="M0.5 0.0 L1.5 0.0 1.5 142.2 0.5 142.2 0.5 138.2 0.5 136.2 0.5 131.2 0.5 129.2 0.5 124.2 0.5 122.2 0.5 117.2 0.5 115.2 0.5 110.2 0.5 108.2 0.5 103.2 0.5 101.2 0.5 96.2 0.5 94.2 0.5 89.2 0.5 87.2 0.5 82.2 0.5 80.2 0.5 75.2 0.5 73.2 0.5 68.2 0.5 66.2 0.5 61.2 0.5 59.2 0.5 54.2 0.5 52.2 0.5 47.2 0.5 45.2 0.5 40.2 0.5 38.2 0.5 33.2 0.5 31.2 0.5 26.2 0.5 24.2 0.5 19.2 0.5 17.2 0.5 12.2 0.5 10.2 0.5 5.2 0.5 3.2 0.5 0.0 M-0.5 142.2 L-1.5 142.2 -1.5 0.0 -0.5 0.0 -0.5 3.2 -0.5 5.2 -0.5 10.2 -0.5 12.2 -0.5 17.2 -0.5 19.2 -0.5 24.2 -0.5 26.2 -0.5 31.2 -0.5 33.2 -0.5 38.2 -0.5 40.2 -0.5 45.2 -0.5 47.2 -0.5 52.2 -0.5 54.2 -0.5 59.2 -0.5 61.2 -0.5 66.2 -0.5 68.2 -0.5 73.2 -0.5 75.2 -0.5 80.2 -0.5 82.2 -0.5 87.2 -0.5 89.2 -0.5 94.2 -0.5 96.2 -0.5 101.2 -0.5 103.2 -0.5 108.2 -0.5 110.2 -0.5 115.2 -0.5 117.2 -0.5 122.2 -0.5 124.2 -0.5 129.2 -0.5 131.2 -0.5 136.2 -0.5 138.2 -0.5 142.2" fill="#aaacae" fill-rule="evenodd" stroke="none"/>
      <path d="M0.5 0.0 L0.5 3.2 -0.5 3.2 -0.5 0.0 0.5 0.0 M0.5 5.2 L0.5 10.2 -0.5 10.2 -0.5 5.2 0.5 5.2 M0.5 12.2 L0.5 17.2 -0.5 17.2 -0.5 12.2 0.5 12.2 M0.5 19.2 L0.5 24.2 -0.5 24.2 -0.5 19.2 0.5 19.2 M0.5 26.2 L0.5 31.2 -0.5 31.2 -0.5 26.2 0.5 26.2 M0.5 33.2 L0.5 38.2 -0.5 38.2 -0.5 33.2 0.5 33.2 M0.5 40.2 L0.5 45.2 -0.5 45.2 -0.5 40.2 0.5 40.2 M0.5 47.2 L0.5 52.2 -0.5 52.2 -0.5 47.2 0.5 47.2 M0.5 54.2 L0.5 59.2 -0.5 59.2 -0.5 54.2 0.5 54.2 M0.5 61.2 L0.5 66.2 -0.5 66.2 -0.5 61.2 0.5 61.2 M0.5 68.2 L0.5 73.2 -0.5 73.2 -0.5 68.2 0.5 68.2 M0.5 75.2 L0.5 80.2 -0.5 80.2 -0.5 75.2 0.5 75.2 M0.5 82.2 L0.5 87.2 -0.5 87.2 -0.5 82.2 0.5 82.2 M0.5 89.2 L0.5 94.2 -0.5 94.2 -0.5 89.2 0.5 89.2 M0.5 96.2 L0.5 101.2 -0.5 101.2 -0.5 96.2 0.5 96.2 M0.5 103.2 L0.5 108.2 -0.5 108.2 -0.5 103.2 0.5 103.2 M0.5 110.2 L0.5 115.2 -0.5 115.2 -0.5 110.2 0.5 110.2 M0.5 117.2 L0.5 122.2 -0.5 122.2 -0.5 117.2 0.5 117.2 M0.5 124.2 L0.5 129.2 -0.5 129.2 -0.5 124.2 0.5 124.2 M0.5 131.2 L0.5 136.2 -0.5 136.2 -0.5 131.2 0.5 131.2 M0.5 138.2 L0.5 142.2 -0.5 142.2 -0.5 138.2 0.5 138.2" fill="#737477" fill-rule="evenodd" stroke="none"/>
    </g>
  </defs>
</svg>
