<?xml version="1.0" encoding="UTF-8" standalone="no"?>
<svg xmlns:ffdec="https://www.free-decompiler.com/flash" xmlns:xlink="http://www.w3.org/1999/xlink" ffdec:objectType="frame" height="18.2px" width="25.9px" xmlns="http://www.w3.org/2000/svg">
  <g transform="matrix(1.0, 0.0, 0.0, 1.0, 12.95, 9.1)">
    <use ffdec:characterId="1871" height="18.2" transform="matrix(1.0, 0.0, 0.0, 1.0, -12.95, -9.1)" width="25.9" xlink:href="#shape0"/>
  </g>
  <defs>
    <g id="shape0" transform="matrix(1.0, 0.0, 0.0, 1.0, 12.95, 9.1)">
      <path d="M10.85 -6.2 L10.3 -6.1 9.7 -5.6 Q8.7 -5.2 7.7 -4.2 L8.8 -3.35 9.0 -3.2 8.8 -3.15 Q7.3 -2.9 7.3 -2.45 L7.3 -2.1 Q5.85 -2.55 4.65 -4.1 L4.6 -4.1 Q3.55 -4.1 3.25 -5.05 L3.25 -5.15 3.25 -5.35 3.25 -5.5 4.6 -5.45 6.7 -5.95 10.2 -6.45 10.85 -6.2 M3.1 8.75 L0.65 8.95 Q-0.85 8.7 -2.05 7.9 L-2.35 7.6 Q-5.7 4.25 -9.85 2.2 L-12.2 1.05 -12.05 1.65 -12.6 1.55 -12.5 1.2 -12.0 -0.3 -11.5 0.0 -10.25 0.5 Q-9.65 0.75 -9.2 1.2 -8.35 2.15 -8.0 1.55 -8.7 -0.2 -10.15 -1.15 L-10.9 -0.45 -11.3 -1.6 -11.4 -2.0 -11.55 -2.8 Q-11.55 -5.3 -8.15 -6.6 L-5.55 -7.35 -5.7 -7.2 -7.65 -6.45 Q-10.15 -5.35 -10.15 -4.7 L-10.15 -4.25 -9.4 -3.85 Q-8.65 -3.85 -7.25 -4.85 L-7.35 -4.75 -7.65 -4.35 -7.7 -4.3 -8.05 -3.85 -8.7 -2.9 -8.8 -2.8 -9.65 -1.7 -9.55 -1.6 -7.6 0.3 -7.6 2.35 -5.75 3.3 -4.25 5.2 -0.1 7.05 -0.7 5.9 3.95 8.05 3.1 8.75 M-0.85 -7.95 Q0.45 -9.2 0.55 -8.95 1.05 -8.0 3.35 -8.0 3.9 -8.0 4.4 -7.25 L4.5 -7.15 5.85 -7.15 Q4.15 -6.8 3.1 -6.25 L3.05 -6.35 1.1 -7.05 -1.05 -7.75 -0.85 -7.95 M-2.85 -7.45 L-1.1 -7.65 Q-0.15 -7.6 0.5 -6.95 L0.6 -6.6 Q1.0 -5.3 0.3 -4.4 L-0.45 -3.75 -0.6 -3.75 -2.25 -3.8 Q-3.55 -1.8 -5.8 -1.9 L-6.4 -3.7 -6.1 -4.1 -6.2 -3.2 Q-5.1 -2.3 -3.65 -2.8 L-3.35 -2.95 -3.45 -5.0 -4.3 -5.2 -4.1 -5.8 -3.4 -5.2 -2.2 -4.8 0.15 -6.2 0.2 -7.05 -2.85 -7.2 -2.85 -7.45 M0.25 4.25 L0.2 4.35 -0.45 5.3 -1.7 5.3 -1.35 4.55 0.5 3.6 0.25 4.25 M0.25 2.45 L-2.05 2.5 Q-1.7 2.3 -1.2 2.25 L0.25 2.45 M-2.5 2.8 L-2.5 3.7 -2.1 4.15 -2.85 4.45 -2.95 4.05 Q-2.95 3.25 -2.5 2.8 M-3.35 4.55 L-4.1 4.4 -4.4 4.0 -3.35 4.55 M-3.9 -6.45 L-3.85 -6.6 -3.7 -6.6 -3.9 -6.45 M-5.7 -0.25 L-4.3 -0.65 -5.9 0.0 -5.95 0.25 Q-6.0 0.8 -5.5 1.1 L-4.0 1.4 -3.2 0.5 -3.55 1.9 Q-3.7 2.45 -4.3 2.65 L-5.3 2.65 Q-6.15 2.6 -6.45 1.9 L-6.05 0.15 -6.0 -0.2 -5.7 -0.25" fill="#990000" fill-rule="evenodd" stroke="none"/>
      <path d="M5.85 -7.15 L6.9 -7.4 Q10.95 -8.2 12.1 -6.35 L11.95 -6.05 11.5 -5.95 10.85 -6.2 10.2 -6.45 6.7 -5.95 4.6 -5.45 3.25 -5.5 Q2.5 -5.55 2.3 -5.75 L3.1 -6.25 Q4.15 -6.8 5.85 -7.15 M9.0 -3.2 L11.1 -3.6 11.7 -3.4 11.8 -3.35 9.95 -2.25 Q8.95 -1.75 8.35 -1.75 7.65 -1.75 7.35 -2.1 7.3 -1.9 7.3 -2.1 L7.3 -2.45 Q7.3 -2.9 8.8 -3.15 L9.0 -3.2 M-12.0 -0.3 L-11.4 -2.0 -11.3 -1.6 -10.9 -0.45 -10.15 -1.15 Q-8.7 -0.2 -8.0 1.55 -8.35 2.15 -9.2 1.2 -9.65 0.75 -10.25 0.5 L-11.5 0.0 -12.0 -0.3 M-5.55 -7.35 L-3.65 -9.1 -3.15 -8.75 -2.9 -8.2 -2.85 -7.45 -2.85 -7.2 0.2 -7.05 0.15 -6.2 -2.2 -4.8 -3.4 -5.2 -4.1 -5.8 -4.2 -5.9 -4.0 -6.4 -3.9 -6.45 -3.7 -6.6 -3.85 -6.6 -4.3 -6.6 -4.55 -6.85 -4.55 -6.9 -6.35 -5.55 -7.25 -4.85 Q-8.65 -3.85 -9.4 -3.85 L-10.15 -4.25 -10.15 -4.7 Q-10.15 -5.35 -7.65 -6.45 L-5.7 -7.2 -5.55 -7.35 M-4.3 -5.2 L-3.45 -5.0 -3.35 -2.95 -3.65 -2.8 Q-5.1 -2.3 -6.2 -3.2 L-6.1 -4.1 -4.3 -5.2 M-1.7 5.3 L-0.7 5.9 -0.1 7.05 -4.25 5.2 -5.75 3.3 -4.8 3.5 Q-4.4 3.7 -4.4 4.0 L-4.1 4.4 -3.35 4.55 -2.85 4.45 -2.1 4.15 -2.5 3.7 -2.5 2.8 -2.45 2.6 -2.05 2.5 0.25 2.45 0.45 2.55 Q0.85 3.0 0.55 3.55 L0.5 3.6 -1.35 4.55 -1.7 5.3 M-4.3 -0.65 Q-3.85 -0.65 -3.5 -0.3 -3.2 0.0 -3.2 0.5 L-4.0 1.4 -5.5 1.1 Q-6.0 0.8 -5.95 0.25 L-5.9 0.0 -4.3 -0.65" fill="#ff0000" fill-rule="evenodd" stroke="none"/>
      <path d="M-2.05 7.9 L-3.8 8.25 -4.85 7.0 Q-6.85 6.5 -8.5 5.3 L-11.15 3.2 Q-11.55 2.9 -12.05 2.7 L-12.95 2.55 -12.6 1.55 -12.05 1.65 -12.2 1.05 -9.85 2.2 Q-5.7 4.25 -2.35 7.6 L-2.05 7.9" fill="#650101" fill-rule="evenodd" stroke="none"/>
      <path d="M11.7 -3.4 L12.25 -3.55 12.15 -3.4 12.45 -3.3 12.8 -2.95 12.95 -2.4 12.95 -2.0 12.65 -1.7 10.35 -2.25 11.4 -0.5 11.45 -0.1 11.5 0.65 11.55 1.6 11.5 1.95 11.25 2.5 10.8 3.55 10.7 3.65 Q11.1 3.1 10.4 3.35 L9.55 3.55 8.2 4.0 9.75 4.6 9.3 5.3 9.05 5.8 8.25 6.8 6.9 7.7 5.45 8.25 3.1 8.75 3.95 8.05 -0.7 5.9 -1.7 5.3 -0.45 5.3 0.2 4.35 0.25 4.25 6.1 4.8 6.85 4.0 7.5 3.85 7.3 3.05 8.15 2.2 8.15 2.05 8.4 0.6 8.25 0.25 7.9 0.7 7.1 1.55 6.7 1.8 4.8 2.85 0.9 3.65 0.55 3.55 Q0.85 3.0 0.45 2.55 L0.25 2.45 -1.2 2.25 Q-1.7 2.3 -2.05 2.5 L-2.45 2.6 -2.5 2.8 Q-2.95 3.25 -2.95 4.05 L-2.85 4.45 -3.35 4.55 -4.4 4.0 Q-4.4 3.7 -4.8 3.5 L-5.75 3.3 -7.6 2.35 -7.6 0.3 -9.55 -1.6 Q-8.95 -1.25 -8.15 -1.05 L-7.4 -0.85 -6.25 0.0 -6.05 0.15 -6.45 1.9 Q-6.15 2.6 -5.3 2.65 L-4.3 2.65 Q-3.7 2.45 -3.55 1.9 L-3.2 0.5 Q-3.2 0.0 -3.5 -0.3 -3.85 -0.65 -4.3 -0.65 L-5.7 -0.25 -5.8 -0.4 -6.2 -1.0 -6.65 -1.85 -6.6 -2.7 -7.35 -4.5 -7.35 -4.75 -7.25 -4.85 -6.35 -5.55 -4.55 -6.9 -4.55 -6.85 -4.3 -6.6 -3.85 -6.6 -3.9 -6.45 -4.0 -6.4 -4.2 -5.9 -4.1 -5.8 -4.3 -5.2 -6.1 -4.1 -6.4 -3.7 -5.8 -1.9 Q-3.55 -1.8 -2.25 -3.8 L-0.6 -3.75 -0.9 -2.35 -1.5 -0.7 -0.3 -1.6 0.45 -1.4 1.05 -1.1 1.4 -1.35 2.1 -2.55 2.85 -4.35 3.15 -5.0 3.25 -5.15 3.25 -5.05 Q3.55 -4.1 4.6 -4.1 L4.65 -4.1 Q5.85 -2.55 7.3 -2.1 7.3 -1.9 7.35 -2.1 7.65 -1.75 8.35 -1.75 8.95 -1.75 9.95 -2.25 L11.8 -3.35 11.7 -3.4 M-3.15 -8.75 Q-1.9 -8.15 -0.85 -7.95 L-1.05 -7.75 1.1 -7.05 3.05 -6.35 3.1 -6.25 2.3 -5.75 Q2.5 -5.55 3.25 -5.5 L3.25 -5.35 2.65 -5.0 1.95 -4.4 1.5 -3.75 1.4 -3.7 1.05 -3.65 Q0.6 -3.65 0.35 -4.25 L0.3 -4.4 Q1.0 -5.3 0.6 -6.6 L0.5 -6.95 Q-0.15 -7.6 -1.1 -7.65 L-2.85 -7.45 -2.9 -8.2 -3.15 -8.75 M-8.7 -2.9 L-8.75 -2.8 -8.8 -2.8 -8.7 -2.9" fill="#583a30" fill-rule="evenodd" stroke="none"/>
      <path d="M12.95 -2.0 Q12.8 -1.3 11.55 -0.9 L11.4 -0.5 10.35 -2.25 12.65 -1.7 12.95 -2.0 M0.55 3.55 L0.9 3.65 4.8 2.85 6.7 1.8 7.1 1.55 7.9 0.7 8.25 0.25 8.4 0.6 8.15 2.05 8.15 2.2 7.3 3.05 7.5 3.85 6.85 4.0 6.1 4.8 0.25 4.25 0.5 3.6 0.55 3.55 M-7.35 -4.75 L-7.35 -4.5 -6.6 -2.7 -6.65 -1.85 -6.2 -1.0 -5.8 -0.4 -5.7 -0.25 -6.0 -0.2 -6.05 0.15 -6.25 0.0 -7.4 -0.85 -8.15 -1.05 Q-8.95 -1.25 -9.55 -1.6 L-9.65 -1.7 -8.8 -2.8 -8.75 -2.8 -8.7 -2.9 -8.05 -3.85 -7.7 -4.3 -7.7 -4.2 -7.65 -4.35 -7.35 -4.75" fill="#462e26" fill-rule="evenodd" stroke="none"/>
      <path d="M10.7 3.65 L9.75 4.6 8.2 4.0 9.55 3.55 10.4 3.35 Q11.1 3.1 10.7 3.65 M-7.65 -4.35 L-7.7 -4.2 -7.7 -4.3 -7.65 -4.35" fill="#34221c" fill-rule="evenodd" stroke="none"/>
      <path d="M-0.6 -3.75 L-0.45 -3.75 0.3 -4.4 0.35 -4.25 Q0.6 -3.65 1.05 -3.65 L1.4 -3.7 1.5 -3.75 1.95 -4.4 2.65 -5.0 3.25 -5.35 3.25 -5.15 3.15 -5.0 2.85 -4.35 2.1 -2.55 1.4 -1.35 1.05 -1.1 0.45 -1.4 -0.3 -1.6 -1.5 -0.7 -0.9 -2.35 -0.6 -3.75" fill="#4e332a" fill-rule="evenodd" stroke="none"/>
    </g>
  </defs>
</svg>
