<?xml version="1.0" encoding="UTF-8" standalone="no"?>
<svg xmlns:ffdec="https://www.free-decompiler.com/flash" xmlns:xlink="http://www.w3.org/1999/xlink" ffdec:objectType="frame" height="59.95px" width="59.95px" xmlns="http://www.w3.org/2000/svg">
  <g transform="matrix(1.0, 0.0, 0.0, 1.0, 29.95, 29.95)">
    <use ffdec:characterId="1048" height="51.9" transform="matrix(1.0, 0.0, 0.0, 1.0, -29.6, -26.95)" width="59.25" xlink:href="#sprite0"/>
    <use ffdec:characterId="1052" height="18.05" transform="matrix(1.0, 0.0, 0.0, 1.0, -13.25, -1.0)" width="27.25" xlink:href="#shape1"/>
  </g>
  <defs>
    <g id="sprite0" transform="matrix(1.0, 0.0, 0.0, 1.0, 29.6, 25.95)">
      <use ffdec:characterId="1047" height="51.9" transform="matrix(1.0, 0.0, 0.0, 1.0, -29.6, -25.95)" width="59.25" xlink:href="#shape0"/>
    </g>
    <g id="shape0" transform="matrix(1.0, 0.0, 0.0, 1.0, 29.6, 25.95)">
      <path d="M-19.7 6.15 L-2.0 -24.55 Q-1.15 -25.95 0.0 -25.95 1.2 -25.95 2.0 -24.55 L18.0 3.15 -19.7 6.15" fill="#feb916" fill-rule="evenodd" stroke="none"/>
      <path d="M18.0 3.15 L29.15 22.5 Q29.85 23.65 29.6 24.55 L29.4 24.95 Q28.8 25.95 27.15 25.95 L-27.15 25.95 Q-28.8 25.95 -29.4 24.95 L-29.55 24.55 Q-29.8 23.65 -29.15 22.5 L-19.7 6.15 18.0 3.15" fill="#faaf01" fill-rule="evenodd" stroke="none"/>
      <path d="M25.8 21.1 Q26.4 22.2 25.95 22.95 25.55 23.7 24.3 23.7 L-24.3 23.7 Q-25.55 23.7 -26.0 22.95 -26.45 22.2 -25.8 21.1 L-1.5 -20.95 Q-0.9 -22.05 0.0 -22.05 0.85 -22.05 1.5 -20.95 L25.8 21.1 M20.4 21.5 Q21.65 21.5 22.1 20.75 22.55 19.95 21.9 18.9 L1.5 -16.5 Q0.85 -17.6 0.0 -17.6 -0.9 -17.6 -1.5 -16.5 L-21.95 18.9 Q-22.55 19.95 -22.1 20.75 -21.7 21.5 -20.45 21.5 L20.4 21.5" fill="#373535" fill-rule="evenodd" stroke="none"/>
      <path d="M0.8 21.5 Q0.8 22.1 0.4 22.55 -0.05 22.95 -0.65 22.95 -1.25 22.95 -1.65 22.55 L-2.1 21.5 Q-2.1 20.9 -1.65 20.5 -1.25 20.05 -0.65 20.05 -0.05 20.05 0.4 20.5 0.8 20.9 0.8 21.5" fill="#6f6f6f" fill-rule="evenodd" stroke="none"/>
      <path d="M1.45 20.6 Q1.45 21.2 1.05 21.65 0.6 22.05 0.0 22.05 -0.6 22.05 -1.0 21.65 L-1.45 20.6 Q-1.45 20.0 -1.0 19.6 -0.6 19.15 0.0 19.15 0.6 19.15 1.05 19.6 1.45 20.0 1.45 20.6" fill="#9a9999" fill-rule="evenodd" stroke="none"/>
      <path d="M0.9 -16.55 Q0.9 -15.95 0.5 -15.5 0.05 -15.1 -0.55 -15.1 -1.15 -15.1 -1.55 -15.5 -2.0 -15.95 -2.0 -16.55 L-1.55 -17.55 Q-1.15 -18.0 -0.55 -18.0 0.05 -18.0 0.5 -17.55 0.9 -17.15 0.9 -16.55" fill="#6f6f6f" fill-rule="evenodd" stroke="none"/>
      <path d="M1.45 -17.45 Q1.45 -16.85 1.05 -16.4 0.6 -16.0 0.0 -16.0 -0.6 -16.0 -1.0 -16.4 -1.45 -16.85 -1.45 -17.45 -1.45 -18.05 -1.0 -18.45 -0.6 -18.9 0.0 -18.9 L1.05 -18.45 Q1.45 -18.05 1.45 -17.45" fill="#9a9999" fill-rule="evenodd" stroke="none"/>
    </g>
    <g id="shape1" transform="matrix(1.0, 0.0, 0.0, 1.0, 13.25, 1.0)">
      <path d="M-4.9 -1.0 Q-4.25 -1.0 -3.75 -0.55 -3.3 -0.1 -3.3 0.55 -3.3 1.2 -3.75 1.7 -4.25 2.15 -4.9 2.15 -5.55 2.15 -6.0 1.7 L-6.45 0.55 Q-6.45 -0.1 -6.0 -0.55 -5.55 -1.0 -4.9 -1.0 M-3.3 6.15 L-4.1 7.65 5.7 10.1 5.65 8.15 5.95 7.6 9.05 5.65 11.3 5.4 13.7 9.9 13.75 10.35 13.65 11.1 13.0 11.95 14.0 12.2 13.55 14.0 9.2 12.9 5.75 15.3 4.35 14.0 6.1 12.1 0.5 10.7 2.45 13.2 2.45 17.05 -1.45 17.05 -1.45 13.2 0.5 10.7 -5.65 9.15 -4.9 11.9 -6.75 12.45 -8.75 8.45 -8.7 8.4 -13.25 7.25 -12.8 5.45 -11.65 5.75 -11.75 5.05 -11.55 4.3 -11.25 3.95 -7.1 1.35 -5.25 2.7 -3.3 5.5 -3.3 6.15 M10.95 3.5 Q10.95 4.15 10.5 4.6 10.05 5.1 9.4 5.1 8.75 5.1 8.3 4.6 7.85 4.15 7.85 3.5 7.85 2.85 8.3 2.4 8.75 1.95 9.4 1.95 10.05 1.95 10.5 2.4 10.95 2.85 10.95 3.5 M-5.9 4.05 L-7.5 5.35 -6.25 6.9 -6.2 7.15 -4.65 7.5 -4.3 6.0 -5.9 4.05 M6.6 8.45 L6.1 10.25 7.5 10.6 7.9 10.15 9.75 9.35 9.7 9.35 6.95 8.3 6.6 8.45" fill="#373535" fill-rule="evenodd" stroke="none"/>
    </g>
  </defs>
</svg>
