<?xml version="1.0" encoding="UTF-8" standalone="no"?>
<svg xmlns:ffdec="https://www.free-decompiler.com/flash" xmlns:xlink="http://www.w3.org/1999/xlink" ffdec:objectType="frame" height="59.95px" width="59.95px" xmlns="http://www.w3.org/2000/svg">
  <g transform="matrix(1.0, 0.0, 0.0, 1.0, 29.95, 29.95)">
    <use ffdec:characterId="1048" height="51.9" transform="matrix(1.0, 0.0, 0.0, 1.0, -29.6, -26.95)" width="59.25" xlink:href="#sprite0"/>
    <use ffdec:characterId="1053" height="20.65" transform="matrix(1.0, 0.0, 0.0, 1.0, -11.0, -4.5)" width="22.0" xlink:href="#shape1"/>
  </g>
  <defs>
    <g id="sprite0" transform="matrix(1.0, 0.0, 0.0, 1.0, 29.6, 25.95)">
      <use ffdec:characterId="1047" height="51.9" transform="matrix(1.0, 0.0, 0.0, 1.0, -29.6, -25.95)" width="59.25" xlink:href="#shape0"/>
    </g>
    <g id="shape0" transform="matrix(1.0, 0.0, 0.0, 1.0, 29.6, 25.95)">
      <path d="M-19.7 6.15 L-2.0 -24.55 Q-1.15 -25.95 0.0 -25.95 1.2 -25.95 2.0 -24.55 L18.0 3.15 -19.7 6.15" fill="#feb916" fill-rule="evenodd" stroke="none"/>
      <path d="M18.0 3.15 L29.15 22.5 Q29.85 23.65 29.6 24.55 L29.4 24.95 Q28.8 25.95 27.15 25.95 L-27.15 25.95 Q-28.8 25.95 -29.4 24.95 L-29.55 24.55 Q-29.8 23.65 -29.15 22.5 L-19.7 6.15 18.0 3.15" fill="#faaf01" fill-rule="evenodd" stroke="none"/>
      <path d="M25.8 21.1 Q26.4 22.2 25.95 22.95 25.55 23.7 24.3 23.7 L-24.3 23.7 Q-25.55 23.7 -26.0 22.95 -26.45 22.2 -25.8 21.1 L-1.5 -20.95 Q-0.9 -22.05 0.0 -22.05 0.85 -22.05 1.5 -20.95 L25.8 21.1 M20.4 21.5 Q21.65 21.5 22.1 20.75 22.55 19.95 21.9 18.9 L1.5 -16.5 Q0.85 -17.6 0.0 -17.6 -0.9 -17.6 -1.5 -16.5 L-21.95 18.9 Q-22.55 19.95 -22.1 20.75 -21.7 21.5 -20.45 21.5 L20.4 21.5" fill="#373535" fill-rule="evenodd" stroke="none"/>
      <path d="M0.8 21.5 Q0.8 22.1 0.4 22.55 -0.05 22.95 -0.65 22.95 -1.25 22.95 -1.65 22.55 L-2.1 21.5 Q-2.1 20.9 -1.65 20.5 -1.25 20.05 -0.65 20.05 -0.05 20.05 0.4 20.5 0.8 20.9 0.8 21.5" fill="#6f6f6f" fill-rule="evenodd" stroke="none"/>
      <path d="M1.45 20.6 Q1.45 21.2 1.05 21.65 0.6 22.05 0.0 22.05 -0.6 22.05 -1.0 21.65 L-1.45 20.6 Q-1.45 20.0 -1.0 19.6 -0.6 19.15 0.0 19.15 0.6 19.15 1.05 19.6 1.45 20.0 1.45 20.6" fill="#9a9999" fill-rule="evenodd" stroke="none"/>
      <path d="M0.9 -16.55 Q0.9 -15.95 0.5 -15.5 0.05 -15.1 -0.55 -15.1 -1.15 -15.1 -1.55 -15.5 -2.0 -15.95 -2.0 -16.55 L-1.55 -17.55 Q-1.15 -18.0 -0.55 -18.0 0.05 -18.0 0.5 -17.55 0.9 -17.15 0.9 -16.55" fill="#6f6f6f" fill-rule="evenodd" stroke="none"/>
      <path d="M1.45 -17.45 Q1.45 -16.85 1.05 -16.4 0.6 -16.0 0.0 -16.0 -0.6 -16.0 -1.0 -16.4 -1.45 -16.85 -1.45 -17.45 -1.45 -18.05 -1.0 -18.45 -0.6 -18.9 0.0 -18.9 L1.05 -18.45 Q1.45 -18.05 1.45 -17.45" fill="#9a9999" fill-rule="evenodd" stroke="none"/>
    </g>
    <g id="shape1" transform="matrix(1.0, 0.0, 0.0, 1.0, 11.0, 4.5)">
      <path d="M0.0 -4.5 Q3.15 -4.5 5.65 -2.95 L2.25 3.0 Q1.3 2.4 0.05 2.4 -1.0 2.4 -1.9 2.9 L-5.35 -3.1 Q-2.95 -4.5 0.0 -4.5 M1.3 4.6 L1.7 4.9 Q2.35 5.55 2.4 6.5 L2.4 6.6 Q2.4 7.55 1.7 8.2 L1.35 8.55 0.05 8.9 -1.0 8.7 -1.6 8.2 Q-2.3 7.55 -2.3 6.6 L-2.3 6.5 Q-2.25 5.55 -1.6 4.9 -1.3 4.6 -1.0 4.45 L0.05 4.2 Q0.75 4.2 1.3 4.6 M4.25 6.6 L4.25 6.5 11.0 6.5 Q11.0 11.05 7.75 14.3 L5.65 16.0 2.25 10.15 3.05 9.55 Q4.25 8.3 4.25 6.6 M0.2 6.55 L0.25 6.5 0.2 6.5 0.2 6.55 M-1.95 10.25 L-5.35 16.15 -7.75 14.3 Q-11.0 11.05 -11.0 6.55 L-10.8 6.5 -4.1 6.5 -4.1 6.6 Q-4.1 8.3 -2.9 9.55 L-1.95 10.25" fill="#333333" fill-rule="evenodd" stroke="none"/>
    </g>
  </defs>
</svg>
