<?xml version="1.0" encoding="UTF-8" standalone="no"?>
<svg xmlns:ffdec="https://www.free-decompiler.com/flash" xmlns:xlink="http://www.w3.org/1999/xlink" ffdec:objectType="frame" height="59.95px" width="59.95px" xmlns="http://www.w3.org/2000/svg">
  <g transform="matrix(1.0, 0.0, 0.0, 1.0, 29.95, 29.95)">
    <use ffdec:characterId="1048" height="51.9" transform="matrix(1.0, 0.0, 0.0, 1.0, -29.6, -26.95)" width="59.25" xlink:href="#sprite0"/>
    <use ffdec:characterId="1054" height="26.9" transform="matrix(1.0, 0.0, 0.0, 1.0, -16.2, -10.05)" width="33.25" xlink:href="#shape1"/>
  </g>
  <defs>
    <g id="sprite0" transform="matrix(1.0, 0.0, 0.0, 1.0, 29.6, 25.95)">
      <use ffdec:characterId="1047" height="51.9" transform="matrix(1.0, 0.0, 0.0, 1.0, -29.6, -25.95)" width="59.25" xlink:href="#shape0"/>
    </g>
    <g id="shape0" transform="matrix(1.0, 0.0, 0.0, 1.0, 29.6, 25.95)">
      <path d="M-19.7 6.15 L-2.0 -24.55 Q-1.15 -25.95 0.0 -25.95 1.2 -25.95 2.0 -24.55 L18.0 3.15 -19.7 6.15" fill="#feb916" fill-rule="evenodd" stroke="none"/>
      <path d="M18.0 3.15 L29.15 22.5 Q29.85 23.65 29.6 24.55 L29.4 24.95 Q28.8 25.95 27.15 25.95 L-27.15 25.95 Q-28.8 25.95 -29.4 24.95 L-29.55 24.55 Q-29.8 23.65 -29.15 22.5 L-19.7 6.15 18.0 3.15" fill="#faaf01" fill-rule="evenodd" stroke="none"/>
      <path d="M25.8 21.1 Q26.4 22.2 25.95 22.95 25.55 23.7 24.3 23.7 L-24.3 23.7 Q-25.55 23.7 -26.0 22.95 -26.45 22.2 -25.8 21.1 L-1.5 -20.95 Q-0.9 -22.05 0.0 -22.05 0.85 -22.05 1.5 -20.95 L25.8 21.1 M20.4 21.5 Q21.65 21.5 22.1 20.75 22.55 19.95 21.9 18.9 L1.5 -16.5 Q0.85 -17.6 0.0 -17.6 -0.9 -17.6 -1.5 -16.5 L-21.95 18.9 Q-22.55 19.95 -22.1 20.75 -21.7 21.5 -20.45 21.5 L20.4 21.5" fill="#373535" fill-rule="evenodd" stroke="none"/>
      <path d="M0.8 21.5 Q0.8 22.1 0.4 22.55 -0.05 22.95 -0.65 22.95 -1.25 22.95 -1.65 22.55 L-2.1 21.5 Q-2.1 20.9 -1.65 20.5 -1.25 20.05 -0.65 20.05 -0.05 20.05 0.4 20.5 0.8 20.9 0.8 21.5" fill="#6f6f6f" fill-rule="evenodd" stroke="none"/>
      <path d="M1.45 20.6 Q1.45 21.2 1.05 21.65 0.6 22.05 0.0 22.05 -0.6 22.05 -1.0 21.65 L-1.45 20.6 Q-1.45 20.0 -1.0 19.6 -0.6 19.15 0.0 19.15 0.6 19.15 1.05 19.6 1.45 20.0 1.45 20.6" fill="#9a9999" fill-rule="evenodd" stroke="none"/>
      <path d="M0.9 -16.55 Q0.9 -15.95 0.5 -15.5 0.05 -15.1 -0.55 -15.1 -1.15 -15.1 -1.55 -15.5 -2.0 -15.95 -2.0 -16.55 L-1.55 -17.55 Q-1.15 -18.0 -0.55 -18.0 0.05 -18.0 0.5 -17.55 0.9 -17.15 0.9 -16.55" fill="#6f6f6f" fill-rule="evenodd" stroke="none"/>
      <path d="M1.45 -17.45 Q1.45 -16.85 1.05 -16.4 0.6 -16.0 0.0 -16.0 -0.6 -16.0 -1.0 -16.4 -1.45 -16.85 -1.45 -17.45 -1.45 -18.05 -1.0 -18.45 -0.6 -18.9 0.0 -18.9 L1.05 -18.45 Q1.45 -18.05 1.45 -17.45" fill="#9a9999" fill-rule="evenodd" stroke="none"/>
    </g>
    <g id="shape1" transform="matrix(1.0, 0.0, 0.0, 1.0, 16.2, 10.05)">
      <path d="M4.0 10.8 L8.15 3.4 2.6 7.25 0.75 -4.2 -1.4 7.1 -6.55 2.6 -3.15 10.45 -10.85 8.65 -5.5 13.5 -13.35 14.15 -5.05 16.85 -5.4 16.75 -16.2 13.85 -8.85 12.65 -13.4 7.3 -5.45 8.5 -9.05 -0.9 -2.25 4.3 0.7 -10.05 3.7 4.5 9.85 1.7 6.7 8.9 14.25 9.45 10.05 13.05 17.05 13.85 6.55 16.8 11.65 14.4 5.5 14.4 11.65 10.3 4.0 10.8 M3.1 9.6 L2.0 12.55 4.9 12.7 2.65 15.05 6.2 15.7 2.05 16.75 -0.65 16.75 -5.65 15.05 -1.4 14.9 -3.95 12.3 -0.95 12.45 -1.8 9.3 -0.05 11.5 0.55 6.95 1.15 11.6 3.1 9.6" fill="#373535" fill-rule="evenodd" stroke="none"/>
    </g>
  </defs>
</svg>
