<?xml version="1.0" encoding="UTF-8" standalone="no"?>
<svg xmlns:ffdec="https://www.free-decompiler.com/flash" xmlns:xlink="http://www.w3.org/1999/xlink" ffdec:objectType="frame" height="59.95px" width="59.95px" xmlns="http://www.w3.org/2000/svg">
  <g transform="matrix(1.0, 0.0, 0.0, 1.0, 29.95, 29.95)">
    <use ffdec:characterId="1048" height="51.9" transform="matrix(1.0, 0.0, 0.0, 1.0, -29.6, -26.95)" width="59.25" xlink:href="#sprite0"/>
    <use ffdec:characterId="1056" height="27.6" transform="matrix(1.0, 0.0, 0.0, 1.0, -11.5, -11.05)" width="22.5" xlink:href="#shape1"/>
  </g>
  <defs>
    <g id="sprite0" transform="matrix(1.0, 0.0, 0.0, 1.0, 29.6, 25.95)">
      <use ffdec:characterId="1047" height="51.9" transform="matrix(1.0, 0.0, 0.0, 1.0, -29.6, -25.95)" width="59.25" xlink:href="#shape0"/>
    </g>
    <g id="shape0" transform="matrix(1.0, 0.0, 0.0, 1.0, 29.6, 25.95)">
      <path d="M-19.7 6.15 L-2.0 -24.55 Q-1.15 -25.95 0.0 -25.95 1.2 -25.95 2.0 -24.55 L18.0 3.15 -19.7 6.15" fill="#feb916" fill-rule="evenodd" stroke="none"/>
      <path d="M18.0 3.15 L29.15 22.5 Q29.85 23.65 29.6 24.55 L29.4 24.95 Q28.8 25.95 27.15 25.95 L-27.15 25.95 Q-28.8 25.95 -29.4 24.95 L-29.55 24.55 Q-29.8 23.65 -29.15 22.5 L-19.7 6.15 18.0 3.15" fill="#faaf01" fill-rule="evenodd" stroke="none"/>
      <path d="M25.8 21.1 Q26.4 22.2 25.95 22.95 25.55 23.7 24.3 23.7 L-24.3 23.7 Q-25.55 23.7 -26.0 22.95 -26.45 22.2 -25.8 21.1 L-1.5 -20.95 Q-0.9 -22.05 0.0 -22.05 0.85 -22.05 1.5 -20.95 L25.8 21.1 M20.4 21.5 Q21.65 21.5 22.1 20.75 22.55 19.95 21.9 18.9 L1.5 -16.5 Q0.85 -17.6 0.0 -17.6 -0.9 -17.6 -1.5 -16.5 L-21.95 18.9 Q-22.55 19.95 -22.1 20.75 -21.7 21.5 -20.45 21.5 L20.4 21.5" fill="#373535" fill-rule="evenodd" stroke="none"/>
      <path d="M0.8 21.5 Q0.8 22.1 0.4 22.55 -0.05 22.95 -0.65 22.95 -1.25 22.95 -1.65 22.55 L-2.1 21.5 Q-2.1 20.9 -1.65 20.5 -1.25 20.05 -0.65 20.05 -0.05 20.05 0.4 20.5 0.8 20.9 0.8 21.5" fill="#6f6f6f" fill-rule="evenodd" stroke="none"/>
      <path d="M1.45 20.6 Q1.45 21.2 1.05 21.65 0.6 22.05 0.0 22.05 -0.6 22.05 -1.0 21.65 L-1.45 20.6 Q-1.45 20.0 -1.0 19.6 -0.6 19.15 0.0 19.15 0.6 19.15 1.05 19.6 1.45 20.0 1.45 20.6" fill="#9a9999" fill-rule="evenodd" stroke="none"/>
      <path d="M0.9 -16.55 Q0.9 -15.95 0.5 -15.5 0.05 -15.1 -0.55 -15.1 -1.15 -15.1 -1.55 -15.5 -2.0 -15.95 -2.0 -16.55 L-1.55 -17.55 Q-1.15 -18.0 -0.55 -18.0 0.05 -18.0 0.5 -17.55 0.9 -17.15 0.9 -16.55" fill="#6f6f6f" fill-rule="evenodd" stroke="none"/>
      <path d="M1.45 -17.45 Q1.45 -16.85 1.05 -16.4 0.6 -16.0 0.0 -16.0 -0.6 -16.0 -1.0 -16.4 -1.45 -16.85 -1.45 -17.45 -1.45 -18.05 -1.0 -18.45 -0.6 -18.9 0.0 -18.9 L1.05 -18.45 Q1.45 -18.05 1.45 -17.45" fill="#9a9999" fill-rule="evenodd" stroke="none"/>
    </g>
    <g id="shape1" transform="matrix(1.0, 0.0, 0.0, 1.0, 11.5, 11.05)">
      <path d="M0.95 -7.95 L0.95 -7.4 0.3 -6.75 Q-0.75 -6.5 -1.15 -7.5 -1.4 -8.2 -1.3 -8.95 -1.15 -10.3 0.05 -11.05 L0.35 -9.45 Q0.95 -8.65 0.95 -7.95 M0.1 -8.95 L-0.45 -9.95 Q-1.05 -8.95 -0.85 -7.7 L-0.75 -7.4 0.05 -7.25 0.3 -7.4 Q0.65 -8.25 0.1 -8.95 M0.2 -5.2 L-0.95 -5.3 -0.95 3.5 -0.8 3.7 0.15 3.65 0.4 3.5 0.4 -5.3 0.2 -5.2 M11.0 4.7 L11.0 12.7 Q11.0 13.55 10.15 14.2 8.65 15.3 6.9 15.8 L2.05 16.55 -2.45 16.5 -6.45 16.05 -8.2 15.5 -9.6 14.95 -10.15 14.65 Q-11.15 14.0 -11.4 13.15 L-11.5 12.7 -11.5 4.7 Q-11.1 3.35 -9.95 2.65 L-8.75 2.1 Q-8.95 2.8 -8.4 3.35 L-7.6 3.85 -7.1 3.3 -6.2 3.15 -6.1 2.5 -6.15 2.0 -6.3 2.4 Q-6.85 2.85 -7.4 2.85 -8.7 2.7 -8.75 1.5 -8.8 0.5 -7.9 0.2 -6.75 -0.1 -6.2 0.9 L-6.05 1.35 -1.45 0.8 -1.45 -5.8 -0.25 -6.15 0.9 -5.8 0.9 0.8 6.2 1.5 Q6.3 0.5 7.1 0.2 8.35 -0.1 8.8 1.0 L8.95 1.5 Q8.85 2.35 8.1 2.6 L7.2 2.8 6.6 2.35 6.3 2.0 6.25 2.8 6.5 3.05 6.6 3.1 7.0 3.15 7.8 3.85 8.25 3.75 8.9 3.0 8.95 2.5 10.35 3.7 11.0 4.7 M6.2 5.8 L5.6 5.35 5.3 5.0 Q4.95 5.9 5.6 6.45 6.3 7.05 7.15 6.75 7.85 6.35 7.9 5.5 L7.85 5.0 7.7 5.4 6.6 5.85 6.2 5.8 M0.85 6.5 L0.85 6.0 0.7 6.4 -0.4 6.85 -0.8 6.8 -1.4 6.35 -1.7 6.0 Q-1.85 6.95 -1.35 7.4 L0.55 7.45 0.85 6.5 M-7.4 5.35 L-7.7 5.0 Q-8.1 5.9 -7.4 6.45 -6.8 7.05 -5.9 6.65 -5.0 6.35 -5.1 5.5 L-5.15 5.0 -5.3 5.4 Q-5.7 5.85 -6.4 5.85 L-6.8 5.8 -7.4 5.35" fill="#373535" fill-rule="evenodd" stroke="none"/>
    </g>
  </defs>
</svg>
