<?xml version="1.0" encoding="UTF-8" standalone="no"?>
<svg xmlns:ffdec="https://www.free-decompiler.com/flash" xmlns:xlink="http://www.w3.org/1999/xlink" ffdec:objectType="frame" height="64.6px" width="21.3px" xmlns="http://www.w3.org/2000/svg">
  <g transform="matrix(1.0, 0.0, 0.0, 1.0, 10.65, 30.3)">
    <use ffdec:characterId="2201" height="44.65" transform="matrix(1.0, 0.0, 0.0, 1.0, -10.65, -30.3)" width="21.3" xlink:href="#shape0"/>
    <use ffdec:characterId="2204" ffdec:characterName="game_fla.fwhand_452" height="19.95" id="hand" transform="matrix(1.0, 0.0, 0.0, 1.0, -7.6, 14.35)" width="16.2" xlink:href="#sprite0"/>
    <use ffdec:characterId="1081" height="100.0" id="shape" transform="matrix(0.18, 0.0, 0.0, 0.56, -8.9989, -28.0006)" width="100.0" xlink:href="#sprite1"/>
  </g>
  <defs>
    <g id="shape0" transform="matrix(1.0, 0.0, 0.0, 1.0, 10.65, 30.3)">
      <path d="M-9.35 -23.85 L-9.5 -24.55 Q-9.75 -26.0 -8.8 -27.25 L-7.4 -28.75 -6.9 -29.1 Q-3.25 -31.2 0.35 -29.7 2.85 -28.7 4.75 -27.0 L7.5 -24.65 Q8.3 -24.1 9.05 -22.4 10.8 -20.2 10.65 -16.1 10.55 -12.9 9.45 -9.75 L6.6 -1.05 Q5.55 1.7 5.65 3.25 L5.6 5.7 5.65 6.95 5.75 8.1 5.85 8.7 6.65 14.35 -2.9 14.35 -2.85 13.9 Q-3.65 13.0 -4.05 11.7 L-3.65 11.9 -3.2 11.5 -2.8 11.0 -2.7 11.05 -2.4 10.9 Q-3.55 10.9 -4.15 8.7 L-4.5 6.95 -4.6 6.5 -4.8 3.95 -5.65 6.85 -5.65 6.95 -5.65 7.5 -5.5 8.7 -5.1 10.35 -4.35 14.35 -5.1 14.35 -6.1 8.7 -6.15 8.55 -6.45 7.45 -6.55 6.95 -8.05 1.3 -9.75 -7.45 -10.55 -14.2 Q-10.95 -17.35 -9.25 -22.15 L-9.0 -22.5 -7.8 -21.8 Q-7.5 -22.5 -7.55 -23.15 -7.45 -23.8 -7.7 -24.35 L-9.35 -23.85 M-2.1 -28.35 Q-2.3 -28.45 -2.5 -28.15 L-3.35 -26.9 -3.6 -26.75 Q-5.15 -25.25 -3.75 -21.75 -2.0 -17.7 -2.9 -15.55 L-4.4 -10.9 Q-5.0 -7.9 -4.35 -5.2 L-3.05 -10.1 Q-2.15 -13.35 -1.5 -14.65 -1.3 -14.95 -1.25 -15.2 L-0.6 -17.0 Q0.15 -18.45 0.05 -19.4 0.0 -20.3 -0.8 -23.35 -0.65 -23.9 -1.95 -28.2 L-2.1 -28.35" fill="#ffcc99" fill-rule="evenodd" stroke="none"/>
      <path d="M-2.9 14.35 L-4.35 14.35 -5.1 10.35 -5.5 8.7 -5.65 7.5 -5.65 6.95 -5.65 6.85 -4.8 3.95 -4.6 6.5 -4.5 6.95 -4.15 8.7 Q-3.55 10.9 -2.4 10.9 L-2.7 11.05 -2.8 11.0 -3.2 11.5 -3.65 11.9 -4.05 11.7 Q-3.65 13.0 -2.85 13.9 L-2.9 14.35 M-2.1 -28.35 L-1.95 -28.2 Q-0.65 -23.9 -0.8 -23.35 0.0 -20.3 0.05 -19.4 0.15 -18.45 -0.6 -17.0 L-1.25 -15.2 Q-1.3 -14.95 -1.5 -14.65 -2.15 -13.35 -3.05 -10.1 L-4.35 -5.2 Q-5.0 -7.9 -4.4 -10.9 L-2.9 -15.55 Q-2.0 -17.7 -3.75 -21.75 -5.15 -25.25 -3.6 -26.75 L-3.35 -26.9 -2.5 -28.15 Q-2.3 -28.45 -2.1 -28.35" fill="#ebbb98" fill-rule="evenodd" stroke="none"/>
      <path d="M-9.0 -22.5 L-9.35 -23.85 -7.7 -24.35 Q-7.45 -23.8 -7.55 -23.15 -7.5 -22.5 -7.8 -21.8 L-9.0 -22.5" fill="#f4c398" fill-rule="evenodd" stroke="none"/>
    </g>
    <g id="sprite0" transform="matrix(1.0, 0.0, 0.0, 1.0, 8.4, 7.95)">
      <use ffdec:characterId="2202" height="15.95" transform="matrix(1.0, 0.0, 0.0, 1.0, -7.25, -7.95)" width="14.5" xlink:href="#shape1"/>
    </g>
    <g id="shape1" transform="matrix(1.0, 0.0, 0.0, 1.0, 7.25, 7.95)">
      <path d="M4.1 6.3 L3.3 6.85 Q2.35 7.05 1.55 7.65 L-0.15 7.9 Q-1.1 7.75 -1.45 6.9 L-2.5 6.7 -3.1 6.45 -3.25 6.35 -3.8 5.6 Q-4.35 4.55 -4.65 4.55 L-5.15 4.35 Q-6.4 3.7 -5.7 2.2 -4.35 1.9 -3.75 0.75 L-3.9 -0.25 -3.25 0.65 -2.6 0.95 -2.4 1.25 -2.3 1.9 Q-2.3 2.45 -1.9 2.4 L-1.8 2.4 -4.35 4.35 -4.45 4.45 -4.35 4.55 -4.05 4.85 Q-3.65 4.9 -3.3 5.1 L-2.05 4.25 -1.9 3.7 -1.8 2.4 -0.9 2.75 0.15 4.0 1.5 3.7 1.0 4.85 Q0.1 5.35 -0.75 6.0 L-1.45 6.9 0.25 6.65 1.8 5.4 2.55 4.9 3.4 6.2 4.1 6.3 M-5.15 -7.95 L-3.7 -7.95 -3.85 -7.35 -3.9 -6.35 Q-3.85 -5.6 -4.55 -4.85 L-5.1 -7.75 -5.15 -7.95" fill="#ebbb98" fill-rule="evenodd" stroke="none"/>
      <path d="M-3.7 -7.95 L5.85 -7.95 6.2 -5.45 6.6 -3.95 Q7.5 -1.15 7.2 0.3 L7.1 0.85 Q6.85 3.2 6.4 4.35 L5.75 5.35 5.05 5.95 4.8 6.1 4.1 6.3 3.4 6.2 2.55 4.9 2.85 4.6 2.95 4.2 2.7 3.5 1.5 3.7 0.15 4.0 -0.9 2.75 -1.8 2.4 -1.8 2.35 -1.9 2.4 Q-2.3 2.45 -2.3 1.9 L-2.4 1.25 -2.6 0.95 -3.25 0.65 -3.9 -0.25 -4.6 -1.0 -4.7 -1.2 -4.55 -4.85 Q-3.85 -5.6 -3.9 -6.35 L-3.85 -7.35 -3.7 -7.95 M-5.9 -7.25 L-5.9 -7.95 -5.15 -7.95 -5.1 -7.75 -5.9 -7.25" fill="#ffcc99" fill-rule="evenodd" stroke="none"/>
      <path d="M-5.7 2.2 Q-7.55 1.6 -7.2 -0.15 L-6.45 -0.75 Q-6.3 -1.75 -6.4 -2.7 L-6.45 -3.7 Q-6.7 -5.65 -5.9 -7.25 L-5.1 -7.75 -4.55 -4.85 -4.7 -1.2 -4.7 -1.0 -4.6 -1.0 -3.9 -0.25 -3.75 0.75 Q-4.35 1.9 -5.7 2.2 M1.5 3.7 L2.7 3.5 2.95 4.2 2.85 4.6 2.55 4.9 1.8 5.4 0.25 6.65 -1.45 6.9 -0.75 6.0 Q0.1 5.35 1.0 4.85 L1.5 3.7 M-1.8 2.4 L-1.9 3.7 -2.05 4.25 -3.3 5.1 Q-3.65 4.9 -4.05 4.85 L-4.35 4.55 -4.45 4.45 -4.35 4.35 -1.8 2.4" fill="#e2b181" fill-rule="evenodd" stroke="none"/>
    </g>
    <g id="sprite1" transform="matrix(1.0, 0.0, 0.0, 1.0, 50.0, 50.0)">
      <use ffdec:characterId="1080" height="100.0" transform="matrix(1.0, 0.0, 0.0, 1.0, -50.0, -50.0)" width="100.0" xlink:href="#shape2"/>
    </g>
    <g id="shape2" transform="matrix(1.0, 0.0, 0.0, 1.0, 50.0, 50.0)">
      <path d="M50.0 50.0 L-50.0 50.0 -50.0 -50.0 50.0 -50.0 50.0 50.0 Z" fill="none" stroke="#9900ff" stroke-linecap="round" stroke-linejoin="round" stroke-width="0.05"/>
    </g>
  </defs>
</svg>
