<?xml version="1.0" encoding="UTF-8" standalone="no"?>
<svg xmlns:ffdec="https://www.free-decompiler.com/flash" xmlns:xlink="http://www.w3.org/1999/xlink" ffdec:objectType="frame" height="36.45px" width="10.35px" xmlns="http://www.w3.org/2000/svg">
  <g transform="matrix(1.0, 0.0, 0.0, 1.0, 5.35, 18.25)">
    <use ffdec:characterId="1283" height="36.45" transform="matrix(1.0, 0.0, 0.0, 1.0, -5.35, -18.25)" width="9.75" xlink:href="#shape0"/>
  </g>
  <defs>
    <g id="shape0" transform="matrix(1.0, 0.0, 0.0, 1.0, 5.35, 18.25)">
      <path d="M3.55 -15.05 L2.1 -15.15 1.55 -15.05 Q0.95 -15.05 0.3 -15.55 L-0.2 -16.0 -0.4 -16.05 -0.15 -16.2 0.95 -16.45 1.7 -16.35 2.55 -16.05 2.85 -16.05 2.95 -16.35 3.2 -15.9 3.55 -15.05 M-1.85 -17.2 L-2.4 -16.3 -3.15 -16.15 -3.55 -16.0 -1.85 -17.2 M3.2 -7.35 L3.95 -12.1 3.95 -9.35 3.65 5.85 3.6 5.8 2.85 5.05 Q2.0 4.55 1.3 4.65 L1.25 6.3 1.45 7.65 1.5 7.75 Q1.95 9.65 3.65 9.5 L3.75 11.45 3.7 11.25 3.3 10.85 2.4 10.75 2.2 9.8 1.85 9.35 Q0.15 7.4 -1.75 9.35 L-1.8 10.85 -1.3 11.9 -1.45 13.0 -2.0 11.75 -3.05 11.45 -3.7 11.9 -3.7 12.15 -3.7 11.35 -3.7 8.05 -3.85 5.4 -3.85 5.3 -4.05 3.25 -4.15 2.05 -4.15 2.35 -4.6 -6.25 -4.6 -6.2 -4.15 -4.9 -3.6 -3.8 -3.45 -1.75 -1.95 -1.25 -1.05 -1.3 Q-0.85 -1.9 -0.8 -2.5 -0.7 -2.95 -0.75 -3.45 L-0.65 -3.45 -0.6 -3.55 Q0.75 -3.7 1.1 -4.3 1.95 -4.9 2.65 -6.2 L3.2 -7.35 M-4.85 -11.55 L-4.85 -8.9 -4.5 -9.1 -4.1 -7.8 -4.55 -7.6 -4.7 -7.2 -5.05 -10.7 -5.0 -11.85 -4.85 -11.55 M-0.15 -2.55 L-0.5 -1.55 0.4 -0.45 1.35 0.4 2.0 0.85 Q2.75 0.75 3.2 -0.05 3.65 -0.9 3.5 -2.0 L3.5 -2.1 3.2 -2.65 0.5 -3.3 0.05 -3.0 -0.15 -2.55 M-1.7 0.15 L-1.65 0.15 -1.6 0.05 -1.7 0.15" fill="#ffcc99" fill-rule="evenodd" stroke="none"/>
      <path d="M2.95 -16.35 L2.85 -16.05 2.55 -16.05 1.7 -16.35 0.95 -16.45 -0.15 -16.2 -0.4 -16.05 -0.2 -16.0 0.3 -15.55 Q0.95 -15.05 1.55 -15.05 L2.1 -15.15 3.55 -15.05 3.65 -15.05 4.25 -14.25 4.4 -13.4 3.95 -12.3 3.95 -12.1 3.2 -7.35 Q2.1 -9.6 2.9 -12.0 L2.15 -12.6 1.85 -13.25 Q0.85 -14.15 -0.2 -14.4 L-0.8 -14.5 -2.3 -14.55 Q-3.2 -12.95 -4.8 -12.5 L-5.25 -12.75 -5.35 -12.9 -5.25 -13.7 Q-4.7 -15.4 -3.55 -16.0 L-3.15 -16.15 -2.4 -16.3 -1.85 -17.2 -1.85 -17.25 -0.8 -18.1 0.45 -18.25 2.05 -17.95 Q3.0 -16.95 3.0 -16.55 L2.95 -16.35 M0.0 -9.1 Q1.65 -9.0 2.2 -9.7 2.0 -9.05 1.2 -8.4 0.3 -7.65 -0.55 -7.55 L-0.85 -7.5 -0.8 -7.2 0.3 -7.15 0.95 -7.45 1.55 -7.7 1.8 -7.7 1.85 -7.4 1.15 -6.45 0.85 -6.15 0.2 -5.7 -0.1 -5.35 -0.85 -3.95 -0.85 -3.45 -0.75 -3.45 -1.1 -2.7 -2.2 -2.55 Q-3.0 -3.5 -2.95 -4.9 L-2.9 -5.1 -3.4 -5.35 -3.45 -5.4 -4.6 -6.2 -4.6 -6.25 -4.75 -6.5 -4.8 -7.0 -4.7 -7.2 -4.55 -7.6 -4.1 -7.8 -4.5 -9.1 -4.85 -8.9 -4.85 -11.55 -2.95 -11.75 Q-3.35 -9.15 -2.45 -6.9 L-1.9 -6.5 -2.05 -7.15 Q-2.15 -7.75 -1.8 -8.0 L-2.0 -8.1 -1.25 -8.9 -0.05 -9.1 0.0 -9.1 M-0.15 -2.55 L0.05 -3.0 0.5 -3.3 3.2 -2.65 3.5 -2.1 3.5 -2.0 Q1.9 -0.2 -0.05 -1.9 L-0.15 -2.55 M1.25 6.3 L1.3 4.65 Q2.0 4.55 2.85 5.05 L3.6 5.8 3.65 5.85 4.05 7.55 3.6 8.2 Q2.5 8.45 1.9 7.75 1.45 7.25 1.25 6.3 M3.75 11.45 L3.85 12.3 3.0 13.15 1.7 12.65 1.35 13.3 -0.7 16.8 Q-1.55 12.7 1.55 11.0 L2.4 10.75 3.3 10.85 3.7 11.25 3.75 11.45 M-3.8 13.5 L-3.7 12.15 -3.7 11.9 -3.05 11.45 -2.0 11.75 -1.45 13.0 -1.6 13.95 -3.15 14.3 -3.8 13.5 M-1.75 9.35 Q0.15 7.4 1.85 9.35 L2.2 9.8 1.65 10.65 Q0.2 11.45 -1.2 10.1 L-1.75 9.35" fill="#ff0000" fill-rule="evenodd" stroke="none"/>
      <path d="M-5.25 -12.75 L-4.8 -12.5 Q-3.2 -12.95 -2.3 -14.55 L-0.8 -14.5 -1.8 -14.35 -1.9 -12.35 Q-2.9 -12.4 -2.75 -11.15 -1.9 -9.2 -1.25 -8.9 L-2.0 -8.1 -1.8 -8.0 Q-2.15 -7.75 -2.05 -7.15 L-1.9 -6.5 -2.45 -6.9 Q-3.35 -9.15 -2.95 -11.75 L-4.85 -11.55 -5.0 -11.85 -5.25 -12.4 -5.25 -12.75 M-0.2 -14.4 Q0.85 -14.15 1.85 -13.25 L2.15 -12.6 2.9 -12.0 Q2.1 -9.6 3.2 -7.35 L2.65 -6.2 Q1.95 -4.9 1.1 -4.3 0.75 -3.7 -0.6 -3.55 L-0.65 -3.45 -0.75 -3.45 Q-0.7 -2.95 -0.8 -2.5 -0.85 -1.9 -1.05 -1.3 L-1.95 -1.25 -3.45 -1.75 -3.6 -3.8 -4.15 -4.9 -4.6 -6.2 -3.45 -5.4 -3.4 -5.35 -2.9 -5.1 -2.95 -4.9 Q-3.0 -3.5 -2.2 -2.55 L-1.1 -2.7 -0.75 -3.45 -0.85 -3.45 -0.85 -3.95 -0.1 -5.35 0.2 -5.7 0.85 -6.15 1.15 -6.45 1.85 -7.4 1.8 -7.7 1.55 -7.7 0.95 -7.45 0.3 -7.15 -0.8 -7.2 -0.85 -7.5 -0.55 -7.55 Q0.3 -7.65 1.2 -8.4 2.0 -9.05 2.2 -9.7 1.65 -9.0 0.0 -9.1 0.55 -9.35 0.65 -10.0 1.7 -10.55 1.2 -12.25 L0.7 -13.65 0.45 -14.0 -0.2 -14.4 M3.5 -2.0 Q3.65 -0.9 3.2 -0.05 2.75 0.75 2.0 0.85 L1.35 0.4 0.4 -0.45 -0.5 -1.55 -0.15 -2.55 -0.05 -1.9 Q1.9 -0.2 3.5 -2.0 M4.05 7.55 L4.15 7.75 Q4.35 8.55 3.9 9.2 L3.65 9.5 Q1.95 9.65 1.5 7.75 L1.45 7.65 1.25 6.3 Q1.45 7.25 1.9 7.75 2.5 8.45 3.6 8.2 L4.05 7.55 M3.85 12.3 L3.85 13.65 3.85 13.85 Q2.8 14.4 1.7 14.9 L1.35 13.3 1.7 12.65 3.0 13.15 3.85 12.3 M-0.7 17.15 Q-2.55 16.6 -3.4 14.6 L-3.65 13.95 -3.8 13.5 -3.15 14.3 -1.6 13.95 -1.45 13.0 -1.3 11.9 -1.8 10.85 -1.75 9.35 -1.2 10.1 Q0.2 11.45 1.65 10.65 L2.2 9.8 2.4 10.75 1.55 11.0 Q-1.55 12.7 -0.7 16.8 L-0.7 17.15" fill="#990000" fill-rule="evenodd" stroke="none"/>
      <path d="M-0.8 -14.5 L-0.2 -14.4 0.45 -14.0 0.7 -13.65 1.2 -12.25 Q1.7 -10.55 0.65 -10.0 L-0.65 -9.9 -1.9 -12.35 -1.8 -14.35 -0.8 -14.5 M1.7 14.9 Q2.0 16.0 1.7 17.45 L1.55 17.8 1.5 17.9 1.1 18.0 -0.05 18.15 -0.45 18.2 -0.45 18.15 -0.7 17.15 -0.7 16.8 1.35 13.3 1.7 14.9" fill="#ffffff" fill-rule="evenodd" stroke="none"/>
      <path d="M0.0 -9.1 L-0.05 -9.1 -1.25 -8.9 Q-1.9 -9.2 -2.75 -11.15 -2.9 -12.4 -1.9 -12.35 L-0.65 -9.9 0.65 -10.0 Q0.55 -9.35 0.0 -9.1" fill="#650101" fill-rule="evenodd" stroke="none"/>
      <path d="M-1.7 0.15 L-1.6 0.05 -1.65 0.15 -1.7 0.15" fill="#ffcc66" fill-rule="evenodd" stroke="none"/>
    </g>
  </defs>
</svg>
