<?xml version="1.0" encoding="UTF-8" standalone="no"?>
<svg xmlns:ffdec="https://www.free-decompiler.com/flash" xmlns:xlink="http://www.w3.org/1999/xlink" ffdec:objectType="frame" height="73.85px" width="47.2px" xmlns="http://www.w3.org/2000/svg">
  <g transform="matrix(1.0, 0.0, 0.0, 1.0, 19.75, 38.15)">
    <use ffdec:characterId="1855" height="22.25" transform="matrix(1.0, 0.0, 0.0, 1.0, -17.55, 13.45)" width="45.0" xlink:href="#shape0"/>
    <use ffdec:characterId="1856" height="58.15" transform="matrix(1.0, 0.0, 0.0, 1.0, -19.05, -37.25)" width="40.3" xlink:href="#shape1"/>
    <use ffdec:characterId="1081" height="100.0" id="shape" transform="matrix(0.33, 0.0, 0.0, 0.7001, -16.5001, -35.0029)" width="100.0" xlink:href="#sprite0"/>
  </g>
  <defs>
    <g id="shape0" transform="matrix(1.0, 0.0, 0.0, 1.0, 17.55, -13.45)">
      <path d="M6.9 15.2 L7.05 15.4 7.75 16.1 4.85 17.9 4.25 18.35 Q2.65 19.5 2.1 20.7 L2.0 21.0 1.05 20.45 Q1.05 19.75 1.2 19.55 L1.4 19.3 1.7 18.65 2.85 17.75 3.1 17.65 3.2 17.6 6.9 15.2 M8.65 16.9 L9.15 17.3 9.65 17.75 8.8 18.6 Q7.9 19.05 7.1 19.7 5.5 20.85 4.95 22.05 L4.9 22.2 3.6 21.75 3.75 21.45 Q4.4 20.3 6.1 19.0 L7.4 17.95 8.65 16.9 M11.0 19.0 L11.7 19.95 11.9 20.05 11.8 20.1 10.1 21.2 Q8.5 22.35 7.95 23.55 L6.55 22.9 6.6 22.8 Q7.25 21.65 8.95 20.35 L10.35 19.35 11.0 19.0 M13.35 20.85 L14.6 21.5 15.1 21.75 13.4 22.85 Q11.8 24.0 11.25 25.2 L9.8 24.45 9.6 24.35 9.6 24.3 Q10.25 23.15 11.95 21.85 12.7 21.25 13.35 20.85 M16.65 22.5 L17.5 22.9 18.85 23.5 Q17.4 23.65 14.65 26.35 L14.25 26.25 12.9 25.95 13.1 26.05 12.9 25.95 Q13.55 24.8 15.25 23.5 L16.65 22.5 M-17.55 30.4 L-17.5 28.6 -17.55 27.5 -17.55 27.2 -15.8 19.65 -15.55 17.95 Q-15.4 16.5 -14.95 15.85 -14.0 14.55 -11.55 13.95 L-7.7 14.1 Q-6.45 14.75 -6.45 20.1 -6.45 22.45 -8.1 23.0 L-12.45 23.45 Q-14.3 23.65 -15.1 25.65 -15.85 27.55 -15.5 30.8 L-17.55 30.4 M-6.5 32.1 Q-3.15 23.1 0.0 23.1 1.3 23.1 5.35 24.9 L10.05 27.15 Q9.3 28.0 9.15 29.55 L9.05 32.45 Q5.3 32.25 1.65 32.35 L-6.5 32.1" fill="#af5745" fill-rule="evenodd" stroke="none"/>
      <path d="M-0.45 14.5 L6.25 13.9 Q6.35 14.55 6.9 15.2 L3.2 17.6 3.1 17.65 2.85 17.75 1.7 18.65 1.4 19.3 Q0.7 15.4 -0.45 14.5" fill="#cbbfaf" fill-rule="evenodd" stroke="none"/>
      <path d="M7.75 16.1 L7.85 16.2 8.05 16.35 8.65 16.9 7.4 17.95 6.1 19.0 Q4.4 20.3 3.75 21.45 L3.6 21.75 4.9 22.2 4.95 22.05 Q5.5 20.85 7.1 19.7 7.9 19.05 8.8 18.6 L9.65 17.75 9.75 17.85 10.9 18.9 11.0 19.0 10.35 19.35 8.95 20.35 Q7.25 21.65 6.6 22.8 L6.55 22.9 7.95 23.55 Q8.5 22.35 10.1 21.2 L11.8 20.1 11.9 20.05 13.35 20.85 Q12.7 21.25 11.95 21.85 10.25 23.15 9.6 24.3 L9.6 24.35 9.8 24.45 11.25 25.2 Q11.8 24.0 13.4 22.85 L15.1 21.75 16.65 22.5 15.25 23.5 Q13.55 24.8 12.9 25.95 L13.1 26.05 12.9 25.95 14.25 26.25 13.45 27.3 Q12.45 28.45 12.45 29.15 12.45 29.75 12.75 30.0 L13.45 30.15 Q13.9 30.15 16.55 29.05 19.2 27.95 19.7 27.9 L23.35 27.3 Q25.0 26.8 25.4 26.05 L26.45 27.55 26.95 28.85 27.15 29.35 27.15 29.7 24.15 31.05 Q18.1 33.5 11.45 32.6 L9.05 32.45 9.15 29.55 Q9.3 28.0 10.05 27.15 L5.35 24.9 Q1.3 23.1 0.0 23.1 -3.15 23.1 -6.5 32.1 L-12.75 31.4 -15.5 30.8 Q-15.85 27.55 -15.1 25.65 -14.3 23.65 -12.45 23.45 L-8.1 23.0 Q-6.45 22.45 -6.45 20.1 -6.45 14.75 -7.7 14.1 L-11.55 13.95 -7.95 13.5 Q-2.65 13.3 -1.0 14.15 L-0.45 14.5 Q0.7 15.4 1.4 19.3 L1.2 19.55 Q1.05 19.75 1.05 20.45 L2.0 21.0 2.1 20.7 Q2.65 19.5 4.25 18.35 L4.85 17.9 7.75 16.1" fill="#b4b4b4" fill-rule="evenodd" stroke="none"/>
      <path d="M18.85 23.5 L20.9 24.35 23.8 25.4 Q24.2 25.35 25.05 25.8 L25.4 26.05 Q25.0 26.8 23.35 27.3 L19.7 27.9 Q19.2 27.95 16.55 29.05 13.9 30.15 13.45 30.15 L12.75 30.0 Q12.45 29.75 12.45 29.15 12.45 28.45 13.45 27.3 L14.25 26.25 14.65 26.35 Q17.4 23.65 18.85 23.5" fill="#cbcbcb" fill-rule="evenodd" stroke="none"/>
      <path d="M27.15 29.7 L27.25 30.1 Q25.15 31.4 22.2 32.3 19.2 33.15 16.05 33.3 L0.35 33.15 Q-12.2 32.85 -17.45 31.65 L-17.55 30.4 -15.5 30.8 -12.75 31.4 -6.5 32.1 1.65 32.35 Q5.3 32.25 9.05 32.45 L11.45 32.6 Q18.1 33.5 24.15 31.05 L27.15 29.7" fill="#666666" fill-rule="evenodd" stroke="none"/>
      <path d="M27.25 30.1 L27.45 30.95 27.45 32.1 Q21.5 36.0 14.2 35.7 L-0.1 35.3 -12.8 35.1 Q-17.4 35.0 -17.45 31.65 -12.2 32.85 0.35 33.15 L16.05 33.3 Q19.2 33.15 22.2 32.3 25.15 31.4 27.25 30.1" fill="#e5e5e5" fill-rule="evenodd" stroke="none"/>
    </g>
    <g id="shape1" transform="matrix(1.0, 0.0, 0.0, 1.0, 19.05, 37.25)">
      <path d="M-15.25 -33.55 L-15.05 -32.8 -15.0 -32.55 -15.0 -32.4 -14.95 -32.1 -14.7 -31.3 -12.4 -28.95 -12.4 -28.8 -12.4 -28.65 -12.5 -26.9 -12.65 -25.15 Q-12.75 -24.2 -13.55 -24.0 -12.45 -18.3 -12.75 -12.55 L-9.6 -17.2 -9.25 -17.25 Q-9.5 -15.6 -10.2 -13.85 -13.9 -5.1 -14.05 4.3 L-10.35 -1.5 -9.8 -2.6 -6.9 -10.15 Q-6.55 -9.4 -6.65 -8.8 L-6.9 -7.5 Q-8.2 -2.7 -10.4 1.85 L-11.55 4.9 Q-12.1 6.9 -12.95 8.9 -13.85 11.0 -13.8 13.0 L-13.8 13.15 -13.4 18.3 -12.4 19.15 -12.75 20.15 -14.65 20.1 -15.75 20.15 Q-16.85 17.4 -16.5 14.6 L-16.25 13.15 -16.75 5.75 Q-16.75 0.65 -15.6 -6.45 -14.5 -13.6 -14.5 -20.5 L-14.9 -22.5 -15.3 -24.4 -15.2 -25.9 -15.25 -25.9 Q-16.35 -25.9 -16.55 -27.4 L-16.5 -28.8 -16.5 -29.0 -16.45 -31.4 -15.85 -32.8 -15.25 -33.55 M11.5 20.9 Q12.65 19.85 11.95 18.1 L10.95 15.2 10.25 13.45 Q9.95 7.05 10.55 5.9 11.1 4.75 13.6 8.65 L13.7 7.5 13.1 5.5 12.85 4.25 Q11.55 1.9 11.35 1.05 11.25 0.55 12.25 -2.05 13.25 -4.7 13.5 -8.2 13.7 -11.75 14.15 -13.2 L10.45 -5.75 Q7.85 -0.85 4.75 1.25 L4.75 1.0 Q7.35 -0.8 9.5 -6.35 L12.75 -15.75 14.75 -20.4 Q16.1 -23.7 16.0 -25.5 15.85 -27.4 16.15 -30.55 L16.45 -34.0 18.0 -34.4 18.0 -31.6 18.4 -31.35 18.6 -30.55 19.15 -26.9 19.7 -19.8 19.1 -16.9 17.15 -13.1 Q16.2 -11.4 15.6 -9.5 14.65 -6.65 14.55 -3.25 L14.5 -2.8 14.6 -2.0 15.0 0.05 15.75 2.75 15.95 6.45 15.95 8.2 15.15 10.3 15.2 10.2 Q13.6 13.2 13.55 14.65 L14.0 16.15 Q14.7 18.65 13.2 20.85 L11.5 20.9 M14.15 -13.2 L14.25 -13.5 14.25 -13.75 14.15 -13.2" fill="#2e5c8a" fill-rule="evenodd" stroke="none"/>
      <path d="M-15.25 -33.55 L-15.85 -32.8 -16.45 -31.4 -16.5 -29.0 -16.5 -28.8 -16.55 -27.4 Q-16.35 -25.9 -15.25 -25.9 L-15.2 -25.9 -15.3 -24.4 -14.9 -22.5 -14.5 -20.5 Q-14.5 -13.6 -15.6 -6.45 -16.75 0.65 -16.75 5.75 L-16.25 13.15 -16.5 14.6 Q-16.85 17.4 -15.75 20.15 L-17.95 19.95 -19.0 13.15 -19.05 11.25 -17.65 2.3 Q-16.25 -7.1 -16.25 -15.25 -16.25 -17.7 -17.8 -26.95 L-17.7 -28.8 Q-17.5 -31.65 -16.45 -32.8 L-15.35 -33.75 -15.25 -33.55 M18.0 -34.4 Q18.7 -34.9 19.1 -35.75 19.3 -36.2 19.75 -36.0 20.85 -35.65 21.15 -31.8 L21.25 -27.5 19.7 -19.8 19.15 -26.9 18.6 -30.55 18.4 -31.35 18.0 -31.6 18.0 -34.4 M19.1 -16.9 L18.35 -13.05 Q16.25 -8.7 16.25 -4.4 L16.1 -2.45 Q15.95 0.35 16.3 2.95 16.4 4.0 16.65 4.9 L16.75 5.35 16.5 8.2 16.3 10.45 Q16.05 13.2 16.15 14.65 15.4 15.65 15.6 18.35 15.75 21.0 13.2 20.85 14.7 18.65 14.0 16.15 L13.55 14.65 Q13.6 13.2 15.2 10.2 L15.15 10.3 15.95 8.2 15.95 6.45 15.75 2.75 15.0 0.05 14.6 -2.0 14.5 -2.8 14.55 -3.25 Q14.65 -6.65 15.6 -9.5 16.2 -11.4 17.15 -13.1 L19.1 -16.9" fill="#4a76a2" fill-rule="evenodd" stroke="none"/>
      <path d="M-12.75 20.15 L-12.4 19.15 -13.4 18.3 -13.8 13.15 -13.8 13.0 Q-13.85 11.0 -12.95 8.9 -12.1 6.9 -11.55 4.9 L-10.4 1.85 Q-8.2 -2.7 -6.9 -7.5 L-6.65 -8.8 Q-6.55 -9.4 -6.9 -10.15 L-9.8 -2.6 -10.35 -1.5 -14.05 4.3 Q-13.9 -5.1 -10.2 -13.85 -9.5 -15.6 -9.25 -17.25 L-9.6 -17.2 -12.75 -12.55 Q-12.45 -18.3 -13.55 -24.0 -12.75 -24.2 -12.65 -25.15 L-12.5 -26.9 -12.4 -28.65 -12.4 -28.8 -12.4 -28.95 -14.7 -31.3 -14.95 -32.1 -15.0 -32.4 -15.0 -32.55 -15.05 -32.8 -15.25 -33.55 -15.35 -33.75 Q-11.6 -35.8 -7.45 -36.35 L-2.5 -37.0 4.75 -37.25 5.25 -37.2 9.9 -36.0 15.05 -34.2 16.45 -34.0 16.15 -30.55 Q15.85 -27.4 16.0 -25.5 16.1 -23.7 14.75 -20.4 L12.75 -15.75 9.5 -6.35 Q7.35 -0.8 4.75 1.0 L4.75 1.25 Q7.85 -0.85 10.45 -5.75 L14.15 -13.2 Q13.7 -11.75 13.5 -8.2 13.25 -4.7 12.25 -2.05 11.25 0.55 11.35 1.05 11.55 1.9 12.85 4.25 L13.1 5.5 13.7 7.5 13.6 8.65 Q11.1 4.75 10.55 5.9 9.95 7.05 10.25 13.45 L10.95 15.2 11.95 18.1 Q12.65 19.85 11.5 20.9 3.0 18.25 -12.75 20.15 M-0.1 -3.45 Q0.5 0.95 -0.05 5.55 L-0.7 13.8 -0.75 16.35 -0.75 16.45 0.55 11.8 1.2 8.0 1.4 5.3 1.35 3.6 0.75 -5.6 0.35 -6.15 0.25 -7.1 0.55 -7.85 0.45 -8.7 Q0.35 -9.7 0.55 -10.75 L0.8 -12.3 1.15 -15.15 1.2 -17.3 1.0 -18.0 -0.75 -12.5 Q-0.7 -7.95 -0.1 -3.45 M14.15 -13.2 L14.25 -13.75 14.25 -13.5 14.15 -13.2" fill="#29537e" fill-rule="evenodd" stroke="none"/>
      <path d="M-0.1 -3.45 Q-0.7 -7.95 -0.75 -12.5 L1.0 -18.0 1.2 -17.3 1.15 -15.15 0.8 -12.3 0.55 -10.75 Q0.35 -9.7 0.45 -8.7 L0.55 -7.85 0.25 -7.1 0.35 -6.15 0.75 -5.6 1.35 3.6 1.4 5.3 1.2 8.0 0.55 11.8 -0.75 16.45 -0.75 16.35 -0.7 13.8 -0.05 5.55 Q0.5 0.95 -0.1 -3.45" fill="#254b71" fill-rule="evenodd" stroke="none"/>
    </g>
    <g id="sprite0" transform="matrix(1.0, 0.0, 0.0, 1.0, 50.0, 50.0)">
      <use ffdec:characterId="1080" height="100.0" transform="matrix(1.0, 0.0, 0.0, 1.0, -50.0, -50.0)" width="100.0" xlink:href="#shape2"/>
    </g>
    <g id="shape2" transform="matrix(1.0, 0.0, 0.0, 1.0, 50.0, 50.0)">
      <path d="M50.0 50.0 L-50.0 50.0 -50.0 -50.0 50.0 -50.0 50.0 50.0 Z" fill="none" stroke="#9900ff" stroke-linecap="round" stroke-linejoin="round" stroke-width="0.05"/>
    </g>
  </defs>
</svg>
