<?xml version="1.0" encoding="UTF-8" standalone="no"?>
<svg xmlns:ffdec="https://www.free-decompiler.com/flash" xmlns:xlink="http://www.w3.org/1999/xlink" ffdec:objectType="frame" height="16.25px" width="26.25px" xmlns="http://www.w3.org/2000/svg">
  <g transform="matrix(1.0, 0.0, 0.0, 1.0, 14.6, 8.15)">
    <use ffdec:characterId="2147" height="16.25" transform="matrix(1.0, 0.0, 0.0, 1.0, -14.6, -8.15)" width="26.25" xlink:href="#shape0"/>
  </g>
  <defs>
    <g id="shape0" transform="matrix(1.0, 0.0, 0.0, 1.0, 14.6, 8.15)">
      <path d="M3.95 1.8 L3.95 0.35 3.8 -0.15 4.95 0.9 5.05 0.9 4.9 -0.05 6.15 1.15 3.95 1.8 M4.35 -4.2 L4.2 -4.2 4.25 -4.25 4.35 -4.2 M7.1 0.8 L6.8 0.9 Q6.25 -0.1 5.3 -0.9 L7.1 0.8" fill="#ffcc99" fill-rule="evenodd" stroke="none"/>
      <path d="M-4.25 -4.65 Q-3.85 -5.55 -2.35 -5.05 L-1.7 -4.75 Q-0.8 -4.25 -0.5 -3.4 L-0.35 -2.7 -0.35 -2.65 -0.2 -2.65 Q1.15 -2.5 1.15 -1.45 L1.05 -0.6 Q0.85 -0.2 0.15 -0.2 -1.1 -0.2 -1.45 -0.75 L-1.6 -1.5 -1.6 -1.65 Q-3.1 -1.7 -3.85 -2.5 -4.4 -3.1 -4.4 -3.85 L-4.25 -4.65 M9.8 -0.85 L9.8 -1.0 10.25 -0.55 11.25 0.25 11.2 0.3 11.05 0.7 11.05 0.85 11.05 0.95 11.05 1.35 Q10.2 -0.3 9.4 -0.55 L9.7 -0.7 9.75 -0.75 9.8 -0.85 M11.35 0.0 L10.4 -1.05 9.9 -1.5 9.9 -1.75 Q9.9 -2.6 10.4 -2.45 L10.5 -2.4 10.75 -2.3 Q11.55 -1.7 11.55 -0.75 L11.35 0.0 M8.05 0.3 L9.15 0.55 9.6 1.1 6.6 4.3 6.55 5.75 5.4 6.1 3.1 6.2 4.2 5.2 Q6.55 3.05 7.95 0.35 L8.05 0.3 M9.65 1.1 L9.8 0.8 9.85 0.85 9.9 0.9 10.9 1.65 10.95 1.6 10.35 2.6 10.2 2.75 10.15 2.8 10.1 2.8 Q9.45 3.3 8.35 3.6 L7.9 3.55 9.7 1.3 9.8 1.0 9.85 0.85 9.65 1.1 M-0.9 5.5 L2.8 3.1 3.4 3.3 1.05 5.95 0.85 6.4 Q0.85 6.8 -0.2 7.4 -1.1 7.95 -1.75 8.0 L-1.95 8.0 -3.75 7.95 -4.3 7.85 -4.95 6.75 -0.95 5.55 -0.9 5.5 M-5.65 1.65 L-5.95 1.75 -6.1 2.0 -6.05 2.2 -5.8 2.35 -5.5 2.35 Q-5.3 3.4 -6.3 3.85 L-6.85 4.15 -8.1 2.8 -8.5 2.15 -9.0 1.25 Q-7.45 0.4 -6.4 0.9 -5.85 1.15 -5.65 1.65 M-3.35 4.3 L-0.85 2.25 -1.15 3.25 -1.3 3.7 -1.95 4.2 -3.35 4.3" fill="#ff0000" fill-rule="evenodd" stroke="none"/>
      <path d="M-10.4 -2.0 L-9.15 -2.8 Q-9.05 -2.7 -7.2 -3.35 L-8.4 -1.85 -8.15 -1.5 -10.2 0.15 -10.45 -1.4 -10.4 -2.0 M-4.9 -4.1 L-4.25 -4.65 -4.4 -3.85 Q-4.4 -3.1 -3.85 -2.5 -3.1 -1.7 -1.6 -1.65 L-1.6 -1.5 -1.45 -0.75 Q-1.1 -0.2 0.15 -0.2 0.85 -0.2 1.05 -0.6 L1.15 -1.45 Q1.15 -2.5 -0.2 -2.65 L-0.35 -2.65 -0.35 -2.7 -0.3 -2.7 Q1.55 -2.6 1.55 -0.9 L1.55 -0.5 1.55 -0.45 1.25 0.0 Q-0.25 1.7 -2.05 -0.05 L-2.15 -0.8 -2.15 -1.0 -2.1 -1.35 -2.55 -1.1 -3.2 -1.0 -4.35 -1.25 -5.15 -2.4 -4.9 -4.1 M2.6 2.05 L3.95 1.8 6.15 1.15 6.8 0.9 7.1 0.8 7.95 0.35 Q6.55 3.05 4.2 5.2 L3.1 6.2 1.45 5.75 1.05 5.95 3.4 3.3 2.8 3.1 -0.9 5.5 0.4 2.3 1.3 2.15 2.6 2.05 M11.05 0.95 L11.05 0.85 11.05 0.7 11.2 0.3 11.05 0.95 M9.6 1.1 L9.65 1.1 9.85 0.85 9.8 1.0 9.7 1.3 7.9 3.55 8.35 3.6 Q9.45 3.3 10.1 2.8 L10.15 2.8 10.2 2.75 10.35 2.6 9.3 3.3 8.4 3.95 6.6 4.3 9.6 1.1 M-0.95 5.55 L-4.95 6.75 -4.3 7.85 Q-5.85 7.85 -6.95 6.4 -8.1 4.9 -8.1 2.8 L-6.85 4.15 -6.3 3.85 Q-5.3 3.4 -5.5 2.35 L-4.65 1.15 -4.1 1.85 -4.9 5.95 -3.4 4.85 -3.35 4.3 -1.95 4.2 -1.3 3.7 -1.15 3.25 -0.95 5.55 M-3.75 7.95 L-1.95 8.0 -1.75 8.0 -2.6 8.1 -3.75 7.95 M-5.65 1.15 L-5.25 1.3 -5.65 1.65 Q-5.85 1.15 -6.4 0.9 -7.45 0.4 -9.0 1.25 L-8.5 2.15 -9.75 0.95 -7.85 -0.4 -7.2 -0.2 -6.65 0.15 -6.5 0.2 -6.25 0.95 -5.65 1.15" fill="#990000" fill-rule="evenodd" stroke="none"/>
      <path d="M-10.4 -2.0 L-10.85 -1.75 Q-12.55 -0.75 -14.6 0.3 -13.35 -1.25 -11.55 -2.55 L-9.65 -3.8 -9.6 -3.95 -7.8 -6.95 -7.7 -7.0 Q-3.5 -8.9 1.35 -7.65 L1.95 -7.3 2.35 -7.05 2.5 -6.95 2.85 -6.65 4.15 -5.15 4.4 -4.65 4.25 -4.25 4.2 -4.2 4.35 -4.2 Q6.75 -4.65 8.7 -4.25 L10.5 -3.7 10.5 -3.3 10.7 -3.2 Q11.45 -2.75 11.65 -2.1 L11.6 -1.95 10.5 -2.75 10.5 -2.4 10.4 -2.45 9.7 -2.8 7.0 -3.2 5.75 -3.05 4.7 -2.75 7.95 -2.3 9.15 -1.85 9.15 -1.95 9.9 -1.5 10.4 -1.05 11.35 0.0 11.4 0.1 11.4 0.3 11.25 0.25 10.25 -0.55 9.8 -1.0 9.8 -0.85 8.0 -1.65 4.6 -2.2 3.9 -2.6 3.8 -0.15 3.95 0.35 3.95 1.8 2.6 2.05 3.2 -1.1 2.5 0.8 1.55 -0.5 1.55 -0.9 Q1.55 -2.6 -0.3 -2.7 L-0.35 -2.7 -0.5 -3.4 Q1.35 -3.4 2.7 -2.05 L2.25 -2.75 Q0.8 -4.9 -1.7 -4.75 L-2.35 -5.05 Q-3.85 -5.55 -4.25 -4.65 L-4.9 -4.1 -7.2 -3.35 Q-9.05 -2.7 -9.15 -2.8 L-10.4 -2.0 M2.1 -5.05 L1.55 -5.45 Q-0.75 -6.95 -3.55 -5.95 L-4.55 -5.45 -2.85 -5.5 0.45 -5.45 1.6 -5.15 2.7 -4.45 2.1 -5.05 M9.7 -0.7 L9.4 -0.55 Q10.2 -0.3 11.05 1.35 L11.1 1.5 10.95 1.6 10.9 1.65 9.9 0.9 9.85 0.85 9.8 0.8 9.65 1.1 9.6 1.1 9.15 0.55 8.05 0.3 6.4 -1.15 9.7 -0.7 M-0.9 5.5 L-0.95 5.55 -1.15 3.25 -0.85 2.25 -3.35 4.3 -3.4 4.85 -4.9 5.95 -4.1 1.85 -4.65 1.15 -5.5 2.35 -5.8 2.35 -6.05 2.2 -6.1 2.0 -5.95 1.75 -5.65 1.65 -5.25 1.3 -5.65 1.15 -2.15 -0.8 -2.05 -0.05 Q-0.25 1.7 1.25 0.0 L1.55 -0.45 1.3 2.15 0.4 2.3 -0.9 5.5 M-10.2 0.15 L-8.15 -1.5 -8.4 -1.85 -5.15 -2.4 -4.35 -1.25 -7.2 -0.2 -7.85 -0.4 -9.75 0.95 -11.1 1.3 -10.2 0.15 M-6.65 0.15 L-5.75 -0.45 -6.5 0.2 -6.65 0.15 M-2.55 -1.1 L-2.1 -1.35 -2.15 -1.0 -2.55 -1.1" fill="#795128" fill-rule="evenodd" stroke="none"/>
      <path d="M-7.2 -3.35 L-4.9 -4.1 -5.15 -2.4 -8.4 -1.85 -7.2 -3.35 M-1.7 -4.75 Q0.8 -4.9 2.25 -2.75 L2.7 -2.05 Q1.35 -3.4 -0.5 -3.4 -0.8 -4.25 -1.7 -4.75 M1.55 -0.5 L2.5 0.8 3.2 -1.1 2.6 2.05 1.3 2.15 1.55 -0.45 1.55 -0.5 M9.9 -1.5 L9.15 -1.95 9.15 -1.85 7.95 -2.3 4.7 -2.75 5.75 -3.05 7.0 -3.2 9.7 -2.8 10.4 -2.45 Q9.9 -2.6 9.9 -1.75 L9.9 -1.5 M2.1 -5.05 L2.7 -4.45 1.6 -5.15 0.45 -5.45 -2.85 -5.5 -4.55 -5.45 -3.55 -5.95 Q-0.75 -6.95 1.55 -5.45 L2.1 -5.05 M-2.15 -0.8 L-5.65 1.15 -6.25 0.95 -6.5 0.2 -5.75 -0.45 -6.65 0.15 -7.2 -0.2 -4.35 -1.25 -3.2 -1.0 -2.55 -1.1 -2.15 -1.0 -2.15 -0.8" fill="#936231" fill-rule="evenodd" stroke="none"/>
      <path d="M3.8 -0.15 L3.9 -2.6 4.6 -2.2 8.0 -1.65 9.8 -0.85 9.75 -0.75 9.7 -0.7 6.4 -1.15 8.05 0.3 7.95 0.35 7.1 0.8 5.3 -0.9 Q6.25 -0.1 6.8 0.9 L6.15 1.15 4.9 -0.05 5.05 0.9 4.95 0.9 3.8 -0.15" fill="#593c1e" fill-rule="evenodd" stroke="none"/>
    </g>
  </defs>
</svg>
