<?xml version="1.0" encoding="UTF-8" standalone="no"?>
<svg xmlns:ffdec="https://www.free-decompiler.com/flash" xmlns:xlink="http://www.w3.org/1999/xlink" ffdec:objectType="frame" height="7.4px" width="7.25px" xmlns="http://www.w3.org/2000/svg">
  <g transform="matrix(1.0, 0.0, 0.0, 1.0, 0.0, 0.0)">
    <use ffdec:characterId="345" height="7.15" transform="matrix(1.0, 0.0, 0.0, 1.0, 0.0, 0.0)" width="5.55" xlink:href="#shape0"/>
  </g>
  <defs>
    <g id="shape0" transform="matrix(1.0, 0.0, 0.0, 1.0, 0.0, 0.0)">
      <path d="M4.3 0.3 Q4.9 0.65 5.05 1.45 5.05 2.55 4.7 3.25 4.35 3.95 5.1 5.4 5.75 6.1 5.5 6.55 4.95 7.5 3.7 6.9 2.85 6.0 1.85 5.95 L0.55 6.1 Q-0.5 5.45 0.55 4.85 1.75 4.25 2.75 2.7 L2.95 0.85 Q3.7 -0.5 4.3 0.3" fill="#ff0000" fill-rule="evenodd" stroke="none"/>
    </g>
  </defs>
</svg>
