<?xml version="1.0" encoding="UTF-8" standalone="no"?>
<svg xmlns:ffdec="https://www.free-decompiler.com/flash" xmlns:xlink="http://www.w3.org/1999/xlink" ffdec:objectType="frame" height="23.0px" width="693.0px" xmlns="http://www.w3.org/2000/svg">
  <g transform="matrix(1.0, 0.0, 0.0, 1.0, 0.5, 0.5)">
    <use ffdec:characterId="87" height="30.0" transform="matrix(23.0667, 0.0, 0.0, 0.7333, 0.0, 0.0)" width="30.0" xlink:href="#shape0"/>
    <use ffdec:characterId="2927" height="23.0" transform="matrix(1.0, 0.0, 0.0, 1.0, -0.5, -0.5)" width="693.0" xlink:href="#shape1"/>
  </g>
  <defs>
    <g id="shape0" transform="matrix(1.0, 0.0, 0.0, 1.0, 0.0, 0.0)">
      <path d="M30.0 30.0 L0.0 30.0 0.0 0.0 30.0 0.0 30.0 30.0" fill="#cccccc" fill-rule="evenodd" stroke="none"/>
    </g>
    <g id="shape1" transform="matrix(1.0, 0.0, 0.0, 1.0, 0.5, 0.5)">
      <path d="M692.0 0.0 L610.0 0.0 M530.0 22.0 L530.0 0.0 M330.0 22.0 L330.0 0.0 M190.0 22.0 L190.0 0.0" fill="none" stroke="#cccccc" stroke-linecap="butt" stroke-linejoin="miter-clip" stroke-miterlimit="3.0" stroke-width="1.0"/>
      <path d="M610.0 0.0 L610.0 22.0 M430.0 0.0 L430.0 22.0 M212.0 0.0 L212.0 22.0 M190.0 0.0 L0.0 0.0" fill="none" stroke="#cccccc" stroke-linecap="round" stroke-linejoin="miter-clip" stroke-miterlimit="3.0" stroke-width="1.0"/>
      <path d="M530.0 0.0 L430.0 0.0 330.0 0.0 212.0 0.0 190.0 0.0 M530.0 0.0 L610.0 0.0" fill="none" stroke="#cccccc" stroke-linecap="round" stroke-linejoin="miter-clip" stroke-miterlimit="3.0" stroke-width="1.0"/>
    </g>
  </defs>
</svg>
