<?xml version="1.0" encoding="UTF-8" standalone="no"?>
<svg xmlns:ffdec="https://www.free-decompiler.com/flash" xmlns:xlink="http://www.w3.org/1999/xlink" ffdec:objectType="frame" height="57.1px" width="19.2px" xmlns="http://www.w3.org/2000/svg">
  <g transform="matrix(1.0, 0.0, 0.0, 1.0, 9.7, 29.6)">
    <use ffdec:characterId="2020" height="52.2" transform="matrix(1.0, 0.0, 0.0, 1.0, -9.7, -25.95)" width="19.2" xlink:href="#shape0"/>
    <use ffdec:characterId="1081" height="100.0" id="shape" transform="matrix(0.18, 0.0, 0.0, 0.55, -8.9996, -27.4994)" width="100.0" xlink:href="#sprite0"/>
  </g>
  <defs>
    <g id="shape0" transform="matrix(1.0, 0.0, 0.0, 1.0, 9.7, 25.95)">
      <path d="M1.95 -25.75 L2.55 -25.6 3.2 -25.35 3.6 -25.25 Q9.75 -23.05 9.5 -15.95 9.3 -9.4 8.3 -3.2 L8.0 0.55 8.0 1.75 7.95 2.35 8.0 2.9 8.6 7.15 Q8.1 5.95 7.35 1.75 6.6 -2.45 6.9 -5.55 7.2 -8.7 7.65 -11.1 L8.4 -17.95 Q8.75 -22.35 1.95 -25.75" fill="#bf8040" fill-rule="evenodd" stroke="none"/>
      <path d="M6.8 -16.2 L6.45 -14.9 4.55 -11.7 Q4.45 -8.7 3.95 -5.7 L3.5 -2.5 Q3.85 -0.1 3.4 2.15 L3.2 3.35 3.45 8.25 3.55 8.6 4.55 11.55 Q4.7 8.65 5.2 5.8 L5.7 4.15 Q6.35 6.15 6.4 8.15 7.1 13.0 6.85 17.75 6.7 19.55 5.9 21.05 L5.4 22.25 4.45 23.8 Q3.6 24.75 2.4 24.9 1.65 25.0 1.5 25.2 1.3 25.4 -1.75 25.25 -4.85 25.1 -5.15 18.95 L-5.45 12.1 Q-5.5 11.45 -5.0 9.95 L-4.6 7.75 Q-4.55 3.15 -5.25 -1.65 L-6.1 -5.05 Q-7.4 -9.85 -8.2 -14.7 -8.95 -19.15 -5.95 -22.35 -4.35 -24.0 -2.2 -24.2 L0.7 -24.05 Q2.05 -23.8 3.25 -23.15 L4.4 -22.3 Q6.95 -19.9 6.8 -16.2" fill="#86592d" fill-rule="evenodd" stroke="none"/>
      <path d="M8.6 7.15 L8.85 10.35 9.05 16.45 Q9.1 20.1 7.1 23.2 L5.95 24.25 4.25 25.4 Q3.25 26.15 2.05 26.2 L-1.95 26.1 Q-3.7 24.85 -4.35 23.85 -5.6 22.05 -6.25 20.0 -7.85 15.3 -7.5 10.35 L-7.2 8.75 -7.45 4.4 -7.45 4.35 -7.45 3.8 -7.9 -0.9 -7.9 -1.05 Q-8.25 -6.6 -9.35 -11.9 -10.7 -18.55 -6.45 -23.05 -2.75 -26.75 1.95 -25.75 8.75 -22.35 8.4 -17.95 L7.65 -11.1 Q7.2 -8.7 6.9 -5.55 6.6 -2.45 7.35 1.75 8.1 5.95 8.6 7.15 M6.8 -16.2 Q6.95 -19.9 4.4 -22.3 L3.25 -23.15 Q2.05 -23.8 0.7 -24.05 L-2.2 -24.2 Q-4.35 -24.0 -5.95 -22.35 -8.95 -19.15 -8.2 -14.7 -7.4 -9.85 -6.1 -5.05 L-5.25 -1.65 Q-4.55 3.15 -4.6 7.75 L-5.0 9.95 Q-5.5 11.45 -5.45 12.1 L-5.15 18.95 Q-4.85 25.1 -1.75 25.25 1.3 25.4 1.5 25.2 1.65 25.0 2.4 24.9 3.6 24.75 4.45 23.8 L5.4 22.25 5.9 21.05 Q6.7 19.55 6.85 17.75 7.1 13.0 6.4 8.15 6.35 6.15 5.7 4.15 L5.2 5.8 Q4.7 8.65 4.55 11.55 L3.55 8.6 3.45 8.25 3.2 3.35 3.4 2.15 Q3.85 -0.1 3.5 -2.5 L3.95 -5.7 Q4.45 -8.7 4.55 -11.7 L6.45 -14.9 6.8 -16.2" fill="#996633" fill-rule="evenodd" stroke="none"/>
    </g>
    <g id="sprite0" transform="matrix(1.0, 0.0, 0.0, 1.0, 50.0, 50.0)">
      <use ffdec:characterId="1080" height="100.0" transform="matrix(1.0, 0.0, 0.0, 1.0, -50.0, -50.0)" width="100.0" xlink:href="#shape1"/>
    </g>
    <g id="shape1" transform="matrix(1.0, 0.0, 0.0, 1.0, 50.0, 50.0)">
      <path d="M50.0 50.0 L-50.0 50.0 -50.0 -50.0 50.0 -50.0 50.0 50.0 Z" fill="none" stroke="#9900ff" stroke-linecap="round" stroke-linejoin="round" stroke-width="0.05"/>
    </g>
  </defs>
</svg>
