<?xml version="1.0" encoding="UTF-8" standalone="no"?>
<svg xmlns:ffdec="https://www.free-decompiler.com/flash" xmlns:xlink="http://www.w3.org/1999/xlink" ffdec:objectType="frame" height="57.1px" width="19.2px" xmlns="http://www.w3.org/2000/svg">
  <g transform="matrix(1.0, 0.0, 0.0, 1.0, 9.7, 29.6)">
    <use ffdec:characterId="2021" height="55.85" transform="matrix(1.0, 0.0, 0.0, 1.0, -9.65, -29.6)" width="19.15" xlink:href="#shape0"/>
  </g>
  <defs>
    <g id="shape0" transform="matrix(1.0, 0.0, 0.0, 1.0, 9.65, 29.6)">
      <path d="M2.1 -26.3 L3.35 -26.1 5.1 -24.8 5.5 -23.7 5.25 -23.25 6.85 -21.7 6.55 -20.85 7.05 -19.05 7.95 -19.9 8.25 -19.8 9.15 -19.4 9.4 -18.25 9.5 -17.75 9.5 -17.65 9.2 -16.75 Q9.0 -17.45 8.4 -17.75 L7.95 -17.9 6.85 -18.05 7.55 -16.0 7.8 -15.1 7.65 -14.6 7.85 -13.9 7.25 -13.05 7.55 -11.95 6.7 -9.5 4.8 -8.2 5.6 -9.8 Q6.8 -12.75 6.55 -15.2 6.1 -19.25 1.7 -22.05 0.35 -23.0 -1.05 -22.95 L4.65 -19.5 0.9 -19.95 0.7 -20.35 -0.15 -20.6 -2.25 -20.5 -3.1 -19.9 -3.35 -19.9 -3.3 -19.8 -4.05 -18.2 Q-5.55 -14.95 -5.55 -11.3 L-6.75 -14.3 -7.75 -15.15 -8.35 -16.15 -8.55 -16.45 -9.15 -18.35 -8.75 -19.55 -8.75 -19.6 -8.55 -20.0 -8.3 -20.45 -8.05 -21.15 -8.1 -20.85 -8.3 -19.8 -6.1 -18.55 -5.25 -20.55 -2.55 -22.1 -2.4 -23.55 -1.0 -23.7 -1.55 -25.4 -1.25 -25.8 2.1 -26.3 M-2.1 -12.45 L-0.45 -11.15 0.9 -11.6 2.6 -12.65 3.0 -16.75 Q3.65 -15.6 3.4 -14.3 3.1 -12.8 2.25 -11.85 L0.9 -10.65 1.45 -10.55 3.45 -11.85 5.55 -13.55 5.45 -13.1 Q5.1 -11.85 4.55 -10.95 3.2 -8.75 0.7 -8.0 -1.9 -7.8 -4.45 -8.8 L-4.3 -11.5 -4.25 -11.7 -2.85 -11.6 -2.1 -12.45 M-5.35 -9.85 Q-4.55 -9.25 -4.2 -7.8 L-2.7 -7.35 -1.95 -6.9 Q-1.1 -6.75 -1.0 -5.95 L-1.1 -5.35 -1.15 -5.2 -1.1 -5.0 -0.85 -3.95 -0.85 -3.85 -0.8 -3.55 -0.2 -3.1 0.75 -1.85 -5.1 -0.95 -5.15 -1.35 -5.15 -2.85 -4.35 -3.45 -4.4 -3.55 -2.75 -4.0 -2.65 -4.95 -4.15 -6.0 Q-6.25 -7.6 -7.3 -10.0 L-7.4 -10.2 -7.35 -10.2 -6.55 -9.85 -5.35 -9.85 M-0.8 0.55 Q-0.3 0.95 -0.2 1.8 L-0.35 2.4 -1.0 2.6 -2.6 2.1 -3.2 1.0 -3.15 0.9 -0.8 0.55 M-7.2 -22.7 L-7.1 -24.4 Q-5.35 -25.8 -3.35 -25.45 L-3.0 -24.9 -2.9 -24.1 -3.85 -24.2 -4.3 -23.25 -5.4 -22.65 -6.6 -23.05 -7.2 -22.7" fill="#ff0000" fill-rule="evenodd" stroke="none"/>
      <path d="M3.35 -26.1 L7.3 -29.45 6.0 -24.3 5.1 -24.8 3.35 -26.1 M-7.6 -22.35 Q-7.55 -23.95 -8.0 -25.4 L-8.35 -26.55 -8.85 -28.0 -6.95 -26.85 -2.8 -29.6 2.1 -26.3 -1.25 -25.8 -1.55 -25.4 -3.0 -24.9 -3.35 -25.45 Q-5.35 -25.8 -7.1 -24.4 L-7.2 -22.7 -7.3 -22.55 -7.6 -22.35 M-0.15 -20.6 L-3.1 -19.9 -2.25 -20.5 -0.15 -20.6 M3.3 -4.0 L3.6 -3.5 3.5 -2.5 Q3.85 -0.1 3.4 2.15 L3.2 3.35 3.45 8.25 3.55 8.6 4.55 11.55 Q4.7 8.65 5.2 5.8 L5.7 4.15 Q6.35 6.15 6.4 8.15 7.1 13.0 6.85 17.75 6.7 19.55 5.9 21.05 L5.4 22.25 4.45 23.8 Q3.6 24.75 2.4 24.9 1.65 25.0 1.5 25.2 1.3 25.4 -1.75 25.25 -4.85 25.1 -5.15 18.95 L-5.45 12.1 Q-5.5 11.45 -5.0 9.95 L-4.6 7.75 Q-4.55 3.15 -5.25 -1.65 L-5.8 -4.1 -4.4 -3.55 -4.35 -3.45 -5.15 -2.85 -5.15 -1.35 -5.1 -0.95 -4.6 0.15 -4.0 1.15 -4.65 2.65 -2.2 4.9 -0.1 4.1 0.05 3.15 -0.35 2.4 -0.2 1.8 Q-0.3 0.95 -0.8 0.55 L0.5 0.2 1.05 -0.35 1.1 -1.1 0.8 -1.8 0.75 -1.85 -0.2 -3.1 -0.8 -3.55 -0.85 -3.85 -0.85 -3.95 1.3 -4.3 2.6 -4.0 3.3 -4.0 M1.0 8.35 L1.5 6.75 1.4 6.1 -1.35 5.9 -1.6 7.2 1.3 9.55 1.0 8.35 M-7.75 -15.15 L-8.2 -14.8 -8.35 -16.15 -7.75 -15.15 M-3.2 1.0 L-3.25 0.9 -3.15 0.9 -3.2 1.0" fill="#86592d" fill-rule="evenodd" stroke="none"/>
      <path d="M6.0 -24.3 L6.7 -23.55 6.75 -23.45 7.95 -21.75 7.95 -20.55 7.95 -19.9 7.05 -19.05 6.55 -20.85 6.85 -21.7 5.25 -23.25 5.5 -23.7 5.1 -24.8 6.0 -24.3 M-8.05 -21.15 L-7.8 -21.65 -7.6 -22.35 -7.3 -22.55 -7.25 -21.35 -5.75 -20.35 -5.25 -20.55 -6.1 -18.55 -8.3 -19.8 -8.1 -20.85 -8.05 -21.15 M-1.55 -25.4 L-1.0 -23.7 -2.4 -23.55 -2.9 -24.1 -3.0 -24.9 -1.55 -25.4" fill="#ffcc99" fill-rule="evenodd" stroke="none"/>
      <path d="M6.7 -23.55 Q8.95 -21.55 9.4 -18.25 L9.15 -19.4 8.25 -19.8 7.95 -20.55 7.95 -21.75 6.75 -23.45 6.7 -23.55 M9.5 -17.65 L9.5 -15.95 Q9.3 -9.4 8.3 -3.2 L8.0 0.55 8.0 1.75 7.95 2.35 8.0 2.9 8.6 7.15 Q8.1 5.95 7.35 1.75 L6.85 -2.1 7.1 -2.15 7.2 -2.85 7.25 -4.1 6.85 -4.25 6.9 -5.55 7.0 -6.6 7.1 -6.6 9.3 -12.65 8.75 -15.9 Q9.25 -16.1 9.2 -16.75 L9.5 -17.65" fill="#bf8040" fill-rule="evenodd" stroke="none"/>
      <path d="M8.6 7.15 L8.85 10.35 9.05 16.45 Q9.1 20.1 7.1 23.2 L5.95 24.25 4.25 25.4 Q3.25 26.15 2.05 26.2 L-1.95 26.1 Q-3.7 24.85 -4.35 23.85 -5.6 22.05 -6.25 20.0 -7.85 15.3 -7.5 10.35 L-7.2 8.75 -7.45 4.4 -7.45 4.35 -7.45 3.8 -7.9 -0.9 -7.9 -1.05 -8.5 -7.25 -8.45 -6.8 -7.05 -5.0 -6.85 -4.7 -6.2 -4.15 -5.95 -4.15 -5.8 -4.1 -5.25 -1.65 Q-4.55 3.15 -4.6 7.75 L-5.0 9.95 Q-5.5 11.45 -5.45 12.1 L-5.15 18.95 Q-4.85 25.1 -1.75 25.25 1.3 25.4 1.5 25.2 1.65 25.0 2.4 24.9 3.6 24.75 4.45 23.8 L5.4 22.25 5.9 21.05 Q6.7 19.55 6.85 17.75 7.1 13.0 6.4 8.15 6.35 6.15 5.7 4.15 L5.2 5.8 Q4.7 8.65 4.55 11.55 L3.55 8.6 3.45 8.25 3.2 3.35 3.4 2.15 Q3.85 -0.1 3.5 -2.5 L3.6 -3.5 4.15 -2.5 4.4 -1.65 6.85 -2.1 7.35 1.75 Q8.1 5.95 8.6 7.15 M-8.85 -9.25 L-9.35 -11.9 Q-10.2 -16.2 -8.75 -19.6 L-8.75 -19.55 -9.15 -18.35 -8.55 -16.45 -8.35 -16.15 -8.2 -14.8 -8.5 -14.55 -8.7 -11.95 -8.2 -11.05 -8.4 -9.7 -8.85 -9.25 M7.95 -19.9 L7.95 -20.55 8.25 -19.8 7.95 -19.9 M7.0 -6.6 L6.9 -5.55 6.85 -4.25 3.9 -5.3 Q4.4 -6.5 5.7 -6.7 L6.2 -6.6 7.0 -6.6" fill="#996633" fill-rule="evenodd" stroke="none"/>
      <path d="M0.9 -19.95 L0.85 -19.1 Q2.0 -17.15 1.75 -14.7 L1.45 -13.25 0.65 -13.0 0.05 -13.35 -0.25 -13.9 -2.6 -17.95 -3.3 -19.8 -3.35 -19.9 -3.1 -19.9 -0.15 -20.6 0.7 -20.35 0.9 -19.95" fill="#ffffff" fill-rule="evenodd" stroke="none"/>
      <path d="M-8.5 -7.25 L-8.65 -8.25 -8.85 -9.25 -8.4 -9.7 -7.4 -10.2 -7.3 -10.0 Q-6.25 -7.6 -4.15 -6.0 L-2.65 -4.95 -2.75 -4.0 -4.4 -3.55 -5.8 -4.1 -5.95 -4.15 -6.2 -4.15 -6.85 -4.7 -7.05 -5.0 -8.45 -6.8 -8.5 -7.25 M-2.4 -23.55 L-2.55 -22.1 -5.25 -20.55 -5.75 -20.35 -7.25 -21.35 -7.3 -22.55 -7.2 -22.7 -6.6 -23.05 -5.4 -22.65 -4.3 -23.25 -3.85 -24.2 -2.9 -24.1 -2.4 -23.55 M-0.25 -13.9 L0.05 -13.35 0.65 -13.0 1.45 -13.25 1.75 -14.7 Q2.0 -17.15 0.85 -19.1 L0.9 -19.95 4.65 -19.5 -1.05 -22.95 Q0.35 -23.0 1.7 -22.05 6.1 -19.25 6.55 -15.2 6.8 -12.75 5.6 -9.8 L4.8 -8.2 4.25 -7.6 Q2.5 -5.9 0.3 -5.25 L-1.1 -5.0 -1.15 -5.2 -1.1 -5.35 -1.0 -5.95 Q-1.1 -6.75 -1.95 -6.9 L-2.7 -7.35 -4.2 -7.8 Q-4.55 -9.25 -5.35 -9.85 L-5.15 -10.35 -5.55 -11.3 Q-5.55 -14.95 -4.05 -18.2 L-3.3 -19.8 -2.6 -17.95 -3.1 -18.45 -3.6 -18.5 -4.25 -11.7 -4.3 -11.5 -4.45 -8.8 Q-1.9 -7.8 0.7 -8.0 3.2 -8.75 4.55 -10.95 5.1 -11.85 5.45 -13.1 L5.55 -13.55 3.45 -11.85 1.45 -10.55 0.9 -10.65 2.25 -11.85 Q3.1 -12.8 3.4 -14.3 3.65 -15.6 3.0 -16.75 L2.6 -12.65 0.9 -11.6 -0.45 -11.15 -2.1 -12.45 -1.5 -13.25 -0.85 -13.2 -0.25 -13.9 M9.2 -16.75 Q9.25 -16.1 8.75 -15.9 L8.0 -16.2 7.55 -16.0 6.85 -18.05 7.95 -17.9 8.4 -17.75 Q9.0 -17.45 9.2 -16.75 M6.85 -4.25 L7.25 -4.1 7.2 -2.85 4.15 -2.5 3.6 -3.5 3.3 -4.0 3.55 -4.4 3.9 -5.25 3.9 -5.3 6.85 -4.25 M0.75 -1.85 L0.8 -1.8 1.1 -1.1 1.05 -0.35 0.5 0.2 -0.8 0.55 -3.15 0.9 -3.25 0.9 -3.2 1.0 -2.6 2.1 -1.0 2.6 -2.15 3.5 -4.0 1.15 -4.6 0.15 -5.1 -0.95 0.75 -1.85" fill="#990000" fill-rule="evenodd" stroke="none"/>
      <path d="M-5.55 -11.3 L-5.15 -10.35 -5.35 -9.85 -6.55 -9.85 -7.35 -10.2 -7.4 -10.2 -8.4 -9.7 -8.2 -11.05 -8.7 -11.95 -8.5 -14.55 -8.2 -14.8 -7.75 -15.15 -6.75 -14.3 -5.55 -11.3 M-1.1 -5.0 L0.3 -5.25 Q2.5 -5.9 4.25 -7.6 L4.8 -8.2 6.7 -9.5 7.55 -11.95 7.25 -13.05 7.85 -13.9 7.65 -14.6 7.8 -15.1 7.55 -16.0 8.0 -16.2 8.75 -15.9 9.3 -12.65 7.1 -6.6 7.0 -6.6 6.2 -6.6 5.7 -6.7 Q4.4 -6.5 3.9 -5.3 L3.9 -5.25 3.55 -4.4 3.3 -4.0 2.6 -4.0 1.3 -4.3 -0.85 -3.95 -1.1 -5.0 M7.2 -2.85 L7.1 -2.15 6.85 -2.1 4.4 -1.65 4.15 -2.5 7.2 -2.85 M-0.35 2.4 L0.05 3.15 -0.1 4.1 -2.2 4.9 -4.65 2.65 -4.0 1.15 -2.15 3.5 -1.0 2.6 -0.35 2.4 M1.0 8.35 L1.3 9.55 -1.6 7.2 -1.35 5.9 1.4 6.1 1.5 6.75 1.0 8.35" fill="#993018" fill-rule="evenodd" stroke="none"/>
      <path d="M-0.25 -13.9 L-0.85 -13.2 -1.5 -13.25 -2.1 -12.45 -2.85 -11.6 -4.25 -11.7 -3.6 -18.5 -3.1 -18.45 -2.6 -17.95 -0.25 -13.9" fill="#650101" fill-rule="evenodd" stroke="none"/>
    </g>
  </defs>
</svg>
