<?xml version="1.0" encoding="UTF-8" standalone="no"?>
<svg xmlns:ffdec="https://www.free-decompiler.com/flash" xmlns:xlink="http://www.w3.org/1999/xlink" ffdec:objectType="frame" height="15.0px" width="9.0px" xmlns="http://www.w3.org/2000/svg">
  <g transform="matrix(1.0, 0.0, 0.0, 1.0, 4.5, 7.5)">
    <use ffdec:characterId="2704" height="15.0" transform="matrix(1.0, 0.0, 0.0, 1.0, -4.5, -7.5)" width="9.0" xlink:href="#shape0"/>
  </g>
  <defs>
    <g id="shape0" transform="matrix(1.0, 0.0, 0.0, 1.0, 4.5, 7.5)">
      <path d="M0.35 -6.45 L0.0 -6.5 -0.35 -6.45 Q-2.0 -6.35 -3.2 -5.2 -4.45 -3.9 -4.5 -2.15 L-4.5 -3.1 -4.45 -3.5 Q-4.35 -4.6 -3.75 -5.5 L-3.2 -6.2 Q-1.9 -7.45 -0.1 -7.5 L0.15 -7.5 Q1.9 -7.45 3.15 -6.2 L3.65 -5.6 3.75 -5.5 Q4.45 -4.45 4.5 -3.1 L4.5 -2.15 Q4.45 -3.9 3.15 -5.2 2.0 -6.35 0.35 -6.45 M-2.5 2.4 Q-2.5 3.05 -1.8 3.75 L-0.35 4.5 -0.1 4.5 0.15 4.5 Q1.1 4.45 1.75 3.75 2.5 3.05 2.5 2.4 L2.5 3.1 Q2.45 4.1 1.75 4.75 1.05 5.5 0.0 5.5 -1.05 5.5 -1.8 4.75 -2.45 4.1 -2.5 3.1 L-2.5 2.4" fill="#d6d6d6" fill-rule="evenodd" stroke="none"/>
      <path d="M-0.35 -6.45 L0.0 -6.5 0.35 -6.45 Q1.6 -6.35 2.45 -5.5 L3.05 -4.75 Q3.5 -4.0 3.5 -3.05 L3.5 3.1 Q3.45 4.5 2.45 5.45 1.45 6.5 0.0 6.5 -1.45 6.5 -2.5 5.45 -3.45 4.5 -3.5 3.1 L-3.5 -3.1 Q-3.45 -4.0 -3.05 -4.7 L-2.5 -5.5 Q-1.6 -6.35 -0.35 -6.45 M2.5 2.4 L2.5 -3.1 2.25 -4.1 1.75 -4.8 Q1.05 -5.5 0.0 -5.5 -1.05 -5.5 -1.8 -4.8 L-2.25 -4.1 -2.5 -3.1 -2.5 2.4 -2.5 3.1 Q-2.45 4.1 -1.8 4.75 -1.05 5.5 0.0 5.5 1.05 5.5 1.75 4.75 2.45 4.1 2.5 3.1 L2.5 2.4" fill="#727272" fill-rule="evenodd" stroke="none"/>
      <path d="M0.35 -6.45 Q2.0 -6.35 3.15 -5.2 4.45 -3.9 4.5 -2.15 L4.5 3.1 Q4.45 4.65 3.5 5.8 L3.15 6.15 Q1.9 7.45 0.15 7.5 L-0.1 7.5 Q-1.9 7.45 -3.2 6.15 L-3.5 5.85 Q-4.45 4.65 -4.5 3.15 L-4.5 -2.15 Q-4.45 -3.9 -3.2 -5.2 -2.0 -6.35 -0.35 -6.45 -1.6 -6.35 -2.5 -5.5 L-3.05 -4.7 Q-3.45 -4.0 -3.5 -3.1 L-3.5 3.1 Q-3.45 4.5 -2.5 5.45 -1.45 6.5 0.0 6.5 1.45 6.5 2.45 5.45 3.45 4.5 3.5 3.1 L3.5 -3.05 Q3.5 -4.0 3.05 -4.75 L2.45 -5.5 Q1.6 -6.35 0.35 -6.45 M-2.5 2.4 L-2.5 -3.1 -2.25 -4.1 -1.8 -4.8 Q-1.05 -5.5 0.0 -5.5 1.05 -5.5 1.75 -4.8 L2.25 -4.1 2.5 -3.1 2.5 2.4 Q2.5 3.05 1.75 3.75 1.1 4.45 0.15 4.5 0.65 4.45 1.05 4.05 L1.45 3.5 1.5 3.05 1.5 -3.0 1.35 -3.7 1.05 -4.05 0.0 -4.5 -1.05 -4.05 -1.3 -3.7 -1.5 -3.0 -1.5 3.1 -1.05 4.05 -0.45 4.45 -0.35 4.5 -1.8 3.75 Q-2.5 3.05 -2.5 2.4" fill="#919191" fill-rule="evenodd" stroke="none"/>
      <path d="M-0.35 4.5 L-0.45 4.45 -1.05 4.05 -1.5 3.1 -1.5 -3.0 -1.3 -3.7 -1.05 -4.05 0.0 -4.5 1.05 -4.05 1.35 -3.7 1.5 -3.0 1.5 3.05 1.45 3.5 1.05 4.05 Q0.65 4.45 0.15 4.5 L-0.1 4.5 -0.35 4.5" fill="#00cc66" fill-opacity="0.0" fill-rule="evenodd" stroke="none"/>
    </g>
  </defs>
</svg>
