<?xml version="1.0" encoding="UTF-8" standalone="no"?>
<svg xmlns:ffdec="https://www.free-decompiler.com/flash" xmlns:xlink="http://www.w3.org/1999/xlink" ffdec:objectType="frame" height="15.0px" width="9.0px" xmlns="http://www.w3.org/2000/svg">
  <g transform="matrix(1.0, 0.0, 0.0, 1.0, 4.5, 7.5)">
    <use ffdec:characterId="2705" height="13.45" transform="matrix(1.0, 0.0, 0.0, 1.0, -4.5, -5.95)" width="9.0" xlink:href="#shape0"/>
  </g>
  <defs>
    <g id="shape0" transform="matrix(1.0, 0.0, 0.0, 1.0, 4.5, 5.95)">
      <path d="M0.85 -4.35 L0.9 -4.5 1.4 -5.95 3.45 -5.85 3.65 -5.6 3.75 -5.5 3.9 -5.3 Q4.45 -4.3 4.5 -3.1 L4.5 -2.15 Q4.45 -4.55 3.25 -5.25 L2.5 -5.25 1.7 -4.7 0.85 -4.35 M-4.3 -2.35 L-3.25 -2.8 -2.6 -3.4 -1.5 -3.2 -2.5 -2.3 -3.5 -2.3 -4.3 -2.35 M-0.35 4.5 L-0.1 4.5 0.15 4.5 Q1.1 4.45 1.75 3.75 2.5 3.05 2.5 2.4 L2.5 3.1 Q2.45 4.1 1.75 4.75 1.05 5.5 0.0 5.5 -1.05 5.5 -1.8 4.75 -2.45 4.1 -2.5 3.1 L-2.5 2.4 Q-2.5 3.05 -1.8 3.75 L-0.35 4.5" fill="#d6d6d6" fill-rule="evenodd" stroke="none"/>
      <path d="M1.7 -4.7 L2.5 -5.25 3.35 -4.1 3.5 -3.05 3.5 3.1 Q3.45 4.05 3.0 4.8 L2.45 5.45 Q1.45 6.5 0.0 6.5 -1.45 6.5 -2.5 5.45 -3.45 4.5 -3.5 3.1 L-3.5 -2.3 -2.5 -2.3 -2.5 2.4 -2.5 3.1 Q-2.45 4.1 -1.8 4.75 -1.05 5.5 0.0 5.5 1.05 5.5 1.75 4.75 2.45 4.1 2.5 3.1 L2.5 2.4 2.5 -3.1 2.25 -4.1 1.7 -4.7" fill="#727272" fill-rule="evenodd" stroke="none"/>
      <path d="M0.85 -4.35 L1.7 -4.7 2.25 -4.1 2.5 -3.1 2.5 2.4 Q2.5 3.05 1.75 3.75 1.1 4.45 0.15 4.5 0.65 4.45 1.05 4.05 L1.45 3.5 1.5 3.05 1.5 -3.0 1.35 -3.7 1.05 -4.05 1.0 -4.1 0.85 -4.35 M2.5 -5.25 L3.25 -5.25 Q4.45 -4.55 4.5 -2.15 L4.5 3.1 Q4.45 4.65 3.5 5.8 L3.15 6.15 3.0 6.3 Q1.8 7.45 0.15 7.5 L-0.1 7.5 Q-1.9 7.45 -3.2 6.15 L-3.5 5.85 Q-4.45 4.65 -4.5 3.15 L-4.5 -1.8 -4.3 -2.35 -3.5 -2.3 -3.5 3.1 Q-3.45 4.5 -2.5 5.45 -1.45 6.5 0.0 6.5 1.45 6.5 2.45 5.45 L3.0 4.8 Q3.45 4.05 3.5 3.1 L3.5 -3.05 3.35 -4.1 2.5 -5.25 M-1.5 -3.2 L-1.5 3.1 -1.05 4.05 -0.45 4.45 -0.35 4.5 -1.8 3.75 Q-2.5 3.05 -2.5 2.4 L-2.5 -2.3 -1.5 -3.2" fill="#919191" fill-rule="evenodd" stroke="none"/>
    </g>
  </defs>
</svg>
