<?xml version="1.0" encoding="UTF-8" standalone="no"?>
<svg xmlns:ffdec="https://www.free-decompiler.com/flash" xmlns:xlink="http://www.w3.org/1999/xlink" ffdec:objectType="frame" height="51.5px" width="59.3px" xmlns="http://www.w3.org/2000/svg">
  <g transform="matrix(1.0, 0.0, 0.0, 1.0, 31.7, 29.6)">
    <use ffdec:characterId="353" height="51.5" id="inner" transform="matrix(1.0, 0.0, 0.0, 1.0, -31.7, -29.6)" width="59.3" xlink:href="#sprite0"/>
  </g>
  <defs>
    <g id="sprite0" transform="matrix(1.0, 0.0, 0.0, 1.0, 31.7, 29.6)">
      <use ffdec:characterId="352" height="51.5" transform="matrix(1.0, 0.0, 0.0, 1.0, -31.7, -29.6)" width="59.3" xlink:href="#shape0"/>
    </g>
    <g id="shape0" transform="matrix(1.0, 0.0, 0.0, 1.0, 31.7, 29.6)">
      <path d="M23.05 -15.0 L22.05 -13.35 21.3 -13.15 Q20.2 -13.15 19.75 -14.3 19.2 -15.85 20.45 -16.7 L23.05 -15.0 M13.05 -1.1 Q13.1 -2.45 14.55 -2.6 15.95 -2.3 17.4 -1.5 L17.35 -2.85 Q18.2 -4.15 19.8 -3.65 20.25 -3.1 20.1 -2.3 19.8 -1.0 18.8 -0.1 L17.55 0.05 16.7 -0.85 Q15.9 0.1 14.85 0.4 13.95 0.55 13.25 0.05 L13.05 -1.1 M0.1 -10.6 Q0.4 -10.95 0.8 -10.95 1.2 -10.95 1.5 -10.6 L1.8 -9.8 1.5 -8.95 Q1.2 -8.65 0.8 -8.65 0.4 -8.65 0.1 -8.95 L-0.2 -9.8 0.1 -10.6 M5.9 -15.85 L5.3 -16.0 6.05 -17.55 6.7 -17.65 6.8 -16.0 5.9 -15.85 M0.9 -17.1 L0.55 -16.3 0.75 -15.1 -0.1 -13.35 -0.9 -13.55 -1.35 -14.1 -0.8 -16.1 -2.0 -17.35 -0.15 -18.25 0.65 -17.9 0.9 -17.1 M16.3 -13.25 L16.65 -12.6 16.4 -12.2 Q15.35 -10.95 13.95 -11.2 L13.65 -10.15 13.3 -10.1 11.55 -10.1 Q10.45 -9.85 9.75 -8.7 L10.35 -8.25 10.65 -7.8 Q12.0 -6.4 10.85 -4.9 L10.05 -4.6 Q8.8 -4.4 8.35 -5.2 L8.35 -5.25 7.65 -4.3 Q6.85 -3.0 5.45 -3.0 L4.45 -2.7 Q6.8 -2.3 7.85 -0.65 L8.65 -1.1 9.3 -0.65 9.8 -0.65 Q10.55 -0.65 11.15 0.2 L11.25 1.7 10.8 2.35 9.6 2.45 9.0 1.95 8.4 0.75 7.65 -0.6 6.4 -0.3 6.85 0.1 6.9 1.25 6.0 1.25 5.6 0.25 4.1 0.15 3.3 0.95 1.9 0.75 2.4 1.15 3.55 1.2 3.8 2.25 5.45 3.4 Q5.55 3.05 5.8 2.8 L6.6 2.25 6.5 3.8 5.65 3.9 6.2 5.35 6.45 5.4 6.5 5.65 6.4 5.85 6.4 5.9 6.25 6.0 4.25 4.35 3.7 4.6 2.9 7.25 4.25 7.55 Q4.9 8.8 4.4 10.2 L4.9 10.6 Q5.6 11.2 5.45 12.0 5.9 12.1 6.35 12.35 L7.6 12.9 Q8.65 13.45 8.95 14.4 L8.55 15.4 8.05 15.65 7.3 16.5 6.1 16.05 5.9 15.1 6.9 14.65 5.9 13.9 5.1 13.5 Q3.25 12.8 3.25 11.0 1.45 11.0 0.55 9.65 L-0.55 10.25 -1.55 11.35 -1.3 12.0 Q-0.95 13.4 -1.75 14.45 L-2.45 14.5 -2.95 13.8 -3.2 13.4 -3.3 14.5 -3.5 14.6 Q-3.9 14.95 -4.4 15.0 L-7.6 15.55 -8.15 16.2 -9.6 16.05 -10.15 15.25 -10.2 15.15 -10.35 15.15 -10.5 15.15 -10.55 14.7 -10.7 14.65 -10.85 15.8 -11.55 16.15 -12.6 15.9 -13.2 15.6 -12.9 14.3 -10.25 14.4 -9.75 11.75 -8.2 11.7 -6.9 11.65 -6.85 11.75 -6.8 11.85 -5.8 11.95 -4.95 11.85 -4.85 11.1 -4.95 10.6 -6.05 10.6 -6.5 10.7 Q-6.65 9.55 -7.0 9.35 L-6.9 8.95 -6.65 8.7 -6.65 8.4 -6.7 8.35 -7.05 8.3 Q-7.4 8.5 -7.4 9.45 L-8.05 9.95 Q-8.6 10.3 -9.1 10.3 L-9.5 10.35 -9.2 8.65 -10.3 8.65 Q-10.7 9.5 -11.75 9.2 L-12.65 9.3 -12.75 8.9 -12.9 8.35 Q-13.2 7.7 -12.6 7.05 L-12.15 6.85 Q-11.15 6.65 -10.5 7.3 L-10.45 7.45 -9.4 6.1 Q-8.4 4.85 -7.05 5.4 L-5.8 3.0 -5.35 3.15 -4.7 2.65 -5.35 1.9 -5.35 1.6 -5.2 1.45 -5.5 0.7 -5.8 0.7 -6.1 0.65 -6.2 0.65 -6.15 0.6 -6.4 0.4 -6.4 0.6 -6.4 0.7 -7.0 0.75 -7.4 1.45 -7.9 1.65 -8.1 3.35 -10.7 3.5 -10.7 2.15 -10.05 1.7 Q-9.05 1.35 -8.6 0.7 L-9.2 0.4 Q-10.75 -0.35 -11.4 -1.6 -12.15 -3.15 -11.05 -4.45 -10.45 -5.2 -10.65 -6.2 L-10.85 -6.35 -11.45 -6.75 Q-12.45 -7.2 -13.2 -6.55 L-13.55 -4.6 -15.5 -4.15 Q-16.25 -3.7 -17.1 -3.45 L-17.85 -3.5 Q-19.0 -4.15 -18.9 -5.55 -18.8 -6.8 -17.55 -7.1 -15.55 -7.75 -13.5 -7.6 L-11.2 -7.85 -9.55 -7.95 Q-9.1 -7.8 -8.8 -7.4 -7.75 -6.0 -8.7 -4.5 L-7.95 -3.85 -7.85 -3.85 Q-6.55 -4.25 -5.35 -3.55 L-5.3 -3.6 -5.0 -4.0 -4.35 -4.7 -4.1 -5.1 -6.6 -8.65 -5.85 -11.35 -8.6 -12.1 -10.5 -11.6 -10.9 -12.05 -11.15 -12.7 -11.4 -14.95 -11.5 -15.8 -13.2 -15.8 -13.35 -16.8 -11.95 -17.15 -10.85 -16.5 -10.25 -16.55 -9.45 -15.95 -8.2 -15.45 -7.1 -15.5 -6.25 -15.9 -7.0 -16.95 -6.85 -17.75 -5.35 -17.7 -5.15 -16.7 -5.95 -15.95 -5.2 -15.5 -4.2 -12.35 -4.4 -11.65 -3.95 -11.25 -4.2 -10.3 -3.45 -9.45 Q-2.65 -8.7 -2.4 -7.6 -2.1 -6.15 -2.75 -4.85 L-2.2 -4.9 -1.95 -5.4 -1.15 -6.05 Q1.1 -7.1 3.15 -8.6 L3.4 -9.4 Q2.3 -11.75 2.85 -14.0 L2.4 -15.05 Q2.1 -15.7 2.6 -16.25 L3.5 -16.35 Q4.5 -16.15 4.65 -15.1 L7.15 -14.0 8.9 -14.8 10.6 -14.7 Q12.35 -14.05 12.45 -12.25 L14.05 -12.1 16.15 -14.65 16.65 -16.1 18.65 -16.2 18.9 -14.8 18.6 -14.45 Q19.0 -13.95 18.05 -13.75 L16.3 -13.25 M26.3 4.1 L27.2 4.75 27.6 5.0 27.35 5.1 27.45 5.3 27.3 5.65 26.75 5.85 25.85 5.65 25.75 5.7 23.05 5.65 21.2 4.8 21.2 4.35 21.6 3.7 23.9 4.9 25.55 4.4 Q25.75 3.95 26.3 4.1 M5.4 1.55 L5.55 1.9 5.4 2.25 5.05 2.4 4.7 2.25 4.55 1.9 4.7 1.55 5.05 1.4 5.4 1.55 M10.3 9.05 L10.8 8.2 11.15 8.05 12.8 8.55 12.45 11.1 12.3 11.15 Q11.6 11.3 10.95 10.9 L10.8 9.9 10.3 9.05 M14.05 9.2 Q14.05 8.65 14.55 8.3 15.05 7.9 15.75 7.9 16.45 7.9 16.95 8.3 17.45 8.65 17.45 9.2 17.45 9.75 16.95 10.15 L15.75 10.5 14.55 10.15 Q14.05 9.75 14.05 9.2 M0.95 2.5 L1.15 2.95 1.55 3.1 2.0 2.95 2.15 2.5 2.0 2.1 1.55 1.9 1.15 2.1 0.95 2.5 M-14.45 -0.45 Q-14.45 -1.0 -14.05 -1.35 -13.7 -1.75 -13.2 -1.75 -12.7 -1.75 -12.3 -1.35 -11.95 -1.0 -11.95 -0.45 -11.95 0.1 -12.3 0.5 -12.7 0.85 -13.2 0.85 L-14.05 0.5 Q-14.45 0.1 -14.45 -0.45 M-13.85 -9.6 L-13.45 -9.75 -13.0 -9.6 -12.85 -9.2 -13.0 -8.8 Q-13.2 -8.65 -13.45 -8.65 L-13.85 -8.8 -14.05 -9.2 -13.85 -9.6 M-1.2 -20.65 L-2.3 -20.85 -2.5 -22.0 1.05 -29.6 -0.85 -24.2 -1.2 -20.65 M-26.45 -3.8 L-25.75 -4.1 Q-25.35 -4.1 -25.05 -3.8 -24.75 -3.5 -24.75 -3.05 -24.75 -2.6 -25.05 -2.3 -25.35 -2.0 -25.75 -2.0 -26.15 -2.0 -26.45 -2.3 -26.75 -2.6 -26.75 -3.05 L-26.45 -3.8 M-31.7 -3.75 L-31.7 -4.35 -29.85 -4.55 -29.15 -5.3 -27.35 -4.35 -28.95 -3.2 -31.35 -3.15 -31.7 -3.75 M6.4 18.45 Q6.7 18.1 7.15 18.1 7.6 18.1 7.95 18.45 L8.25 19.2 7.95 20.0 7.15 20.3 6.4 20.0 Q6.05 19.65 6.05 19.2 6.05 18.75 6.4 18.45 M-4.95 5.45 L-4.65 6.35 -5.4 7.45 -5.35 8.0 -4.45 8.6 -4.5 9.0 -3.9 8.85 -2.15 7.2 -2.35 5.15 -3.45 4.15 -4.4 4.45 -4.95 5.45 M-2.7 0.5 Q-2.8 -0.95 -4.55 -0.7 L-4.85 0.3 -4.8 0.6 Q-4.65 1.35 -3.55 1.35 L-3.05 1.25 -2.85 1.2 -2.7 0.5 M-0.85 18.85 L-0.85 20.6 -2.1 20.6 -2.1 18.85 -0.85 18.85 M-1.3 18.2 L-1.45 17.75 -1.3 17.3 -0.95 17.1 Q-0.75 17.1 -0.6 17.3 -0.45 17.5 -0.45 17.75 L-0.6 18.2 Q-0.75 18.4 -0.95 18.4 L-1.3 18.2 M-12.5 20.95 L-12.2 20.3 Q-11.9 20.0 -11.5 20.0 -11.1 20.0 -10.8 20.3 -10.5 20.55 -10.5 20.95 -10.5 21.35 -10.8 21.65 L-11.5 21.9 -12.2 21.65 -12.5 20.95 M-16.5 7.05 L-16.55 8.7 -16.95 9.0 -17.2 10.0 -20.1 10.65 -20.45 12.15 -21.2 12.6 Q-22.05 12.45 -21.85 13.45 L-23.15 12.85 Q-23.4 12.05 -22.85 11.5 -21.0 9.5 -18.4 9.75 L-17.45 9.15 -18.2 7.9 -18.1 7.65 -18.1 7.45 -17.75 7.0 -16.5 7.05 M-18.95 1.8 L-18.7 1.2 -18.2 1.2 -17.7 2.25 -17.5 3.75 Q-17.5 4.75 -18.3 5.2 L-18.3 4.75 -18.95 1.8" fill="#990000" fill-opacity="0.70980394" fill-rule="evenodd" stroke="none"/>
    </g>
  </defs>
</svg>
