<?xml version="1.0" encoding="UTF-8" standalone="no"?>
<svg xmlns:ffdec="https://www.free-decompiler.com/flash" xmlns:xlink="http://www.w3.org/1999/xlink" ffdec:objectType="frame" height="70.7px" width="43.35px" xmlns="http://www.w3.org/2000/svg">
  <g transform="matrix(1.0, 0.0, 0.0, 1.0, 18.15, 3.45)">
    <use ffdec:characterId="1180" ffdec:characterName="game_fla.lowerleg1_877" height="70.7" id="lowerLeg1" transform="matrix(1.0, 0.0, 0.0, 1.0, -18.15, -3.45)" width="43.35" xlink:href="#sprite0"/>
  </g>
  <defs>
    <g id="sprite0" transform="matrix(1.0, 0.0, 0.0, 1.0, 16.25, 35.0)">
      <use ffdec:characterId="1176" height="54.45" transform="matrix(1.0, 0.0, 0.0, 1.0, -16.25, -31.25)" width="33.85" xlink:href="#shape0"/>
      <use ffdec:characterId="1100" height="16.25" transform="matrix(1.0, 0.0, 0.0, 1.0, -14.35, 19.45)" width="41.45" xlink:href="#shape1"/>
      <use ffdec:characterId="1081" height="100.0" id="shape" transform="matrix(0.3, 0.0, 0.0, 0.7001, -15.0002, -35.0029)" width="100.0" xlink:href="#sprite1"/>
    </g>
    <g id="shape0" transform="matrix(1.0, 0.0, 0.0, 1.0, 16.25, 31.25)">
      <path d="M-14.6 -4.2 L-15.75 -10.3 -16.2 -14.75 Q-16.45 -19.25 -14.3 -25.1 -12.2 -30.95 -10.35 -31.1 -7.2 -31.7 -4.7 -29.55 -4.2 -29.5 -3.55 -29.0 10.85 -21.95 16.35 -25.5 18.15 -25.8 17.4 -24.05 L17.4 -24.0 17.35 -23.85 14.95 -22.95 Q12.2 -21.85 12.2 -21.5 12.2 -21.1 13.6 -20.9 15.0 -20.7 15.0 -19.55 L14.05 -13.5 12.9 -4.05 11.2 -4.05 6.9 -4.05 5.6 -4.05 6.5 -12.25 4.1 -4.1 -6.1 -4.15 -10.3 -4.2 -14.6 -4.2 M11.3 -20.3 L9.0 -19.4 7.15 -18.65 7.7 -18.2 Q8.5 -17.45 8.7 -16.7 10.15 -17.8 11.3 -20.25 L11.3 -20.3" fill="#ffcc99" fill-rule="evenodd" stroke="none"/>
      <path d="M17.35 -23.85 L17.3 -23.65 17.2 -23.05 17.0 -20.7 14.35 -8.15 13.4 -4.05 13.25 -3.45 12.6 -1.05 12.9 -4.05 14.05 -13.5 15.0 -19.55 Q15.0 -20.7 13.6 -20.9 12.2 -21.1 12.2 -21.5 12.2 -21.85 14.95 -22.95 L17.35 -23.85 M11.3 -20.3 L11.3 -20.25 Q10.15 -17.8 8.7 -16.7 8.5 -17.45 7.7 -18.2 L7.15 -18.65 9.0 -19.4 11.3 -20.3 M4.1 -4.1 L6.5 -12.25 5.6 -4.05 4.1 -4.1" fill="#ebbb98" fill-rule="evenodd" stroke="none"/>
      <path d="M-4.9 20.4 L-3.95 20.45 -4.85 20.45 -4.95 20.55 -4.9 20.4" fill="#e0d9bb" fill-rule="evenodd" stroke="none"/>
      <path d="M5.5 20.0 L5.45 19.75 5.5 19.6 5.5 19.85 5.5 20.0" fill="#c2bca3" fill-rule="evenodd" stroke="none"/>
      <path d="M12.6 -1.05 L9.95 7.6 Q7.8 14.35 7.8 19.6 7.8 20.65 8.4 22.3 8.55 22.75 9.35 23.2 L7.1 23.2 6.95 23.05 6.0 21.5 5.5 20.0 5.5 19.85 5.5 19.6 Q5.6 15.55 7.95 7.05 L11.2 -4.05 12.9 -4.05 12.6 -1.05 M-9.75 23.2 L-11.45 23.2 Q-10.25 20.05 -10.25 17.25 -10.25 15.05 -10.8 12.15 L-12.1 6.95 -12.2 6.6 -12.8 4.5 -13.5 1.7 -14.6 -4.2 -10.3 -4.2 -9.25 0.5 -8.3 4.5 -8.0 6.5 -7.6 12.15 -7.55 13.05 Q-8.05 17.25 -9.35 21.8 L-9.75 23.2 M-0.75 12.8 Q-1.65 19.2 -2.8 19.1 -4.0 18.95 -4.65 19.1 L-4.45 18.65 -3.1 16.2 -0.75 12.8" fill="#f3edd6" fill-rule="evenodd" stroke="none"/>
      <path d="M4.4 23.2 L0.25 23.2 0.4 21.5 Q0.75 18.05 0.75 14.35 L0.75 13.0 0.45 11.15 -0.25 5.0 Q-0.5 7.15 -1.65 9.8 L-2.4 11.35 -2.8 12.15 -4.05 14.8 -3.8 12.15 -3.75 11.35 Q-3.75 8.65 -4.45 4.5 L-4.85 2.5 -6.1 -4.15 4.1 -4.1 5.6 -4.05 6.9 -4.05 Q5.75 2.45 4.1 9.0 L4.0 9.3 3.55 11.05 3.45 13.05 Q3.45 18.15 3.85 20.95 L4.25 22.85 4.25 22.95 4.3 22.95 4.4 23.2 M-5.6 23.2 L-8.15 23.2 -7.45 21.6 -6.5 19.5 -5.6 23.2" fill="#e0dbc7" fill-rule="evenodd" stroke="none"/>
      <path d="M7.1 23.2 L4.4 23.2 4.3 22.95 4.25 22.95 4.25 22.85 3.85 20.95 Q3.45 18.15 3.45 13.05 L3.55 11.05 4.0 9.3 4.1 9.0 Q5.75 2.45 6.9 -4.05 L11.2 -4.05 7.95 7.05 Q5.6 15.55 5.5 19.6 L5.45 19.75 5.5 20.0 6.0 21.5 6.95 23.05 7.1 23.2 M0.25 23.2 L-5.6 23.2 -6.5 19.5 -7.45 21.6 -8.15 23.2 -9.75 23.2 -9.35 21.8 Q-8.05 17.25 -7.55 13.05 L-7.6 12.15 -8.0 6.5 -8.3 4.5 -9.25 0.5 -10.3 -4.2 -6.1 -4.15 -4.85 2.5 -4.45 4.5 Q-3.75 8.65 -3.75 11.35 L-3.8 12.15 -4.05 14.8 -2.8 12.15 -2.4 11.35 -1.65 9.8 Q-0.5 7.15 -0.25 5.0 L0.45 11.15 0.75 13.0 0.75 14.35 Q0.75 18.05 0.4 21.5 L0.25 23.2 M-0.75 12.8 L-3.1 16.2 -4.45 18.65 -4.65 19.1 Q-4.0 18.95 -2.8 19.1 -1.65 19.2 -0.75 12.8 M-4.9 20.4 L-4.95 20.55 -4.85 20.45 -3.95 20.45 -4.9 20.4" fill="#e9e3ce" fill-rule="evenodd" stroke="none"/>
    </g>
    <g id="shape1" transform="matrix(1.0, 0.0, 0.0, 1.0, 14.35, -19.45)">
      <path d="M26.3 28.25 L23.6 26.85 Q21.45 27.55 19.85 29.15 L15.1 27.9 12.6 27.05 10.25 25.85 8.65 24.85 5.8 23.1 Q5.1 22.25 4.25 22.25 3.45 22.2 2.5 22.8 0.8 23.45 -1.3 23.5 L-9.1 22.9 -11.25 22.65 -12.5 24.15 Q-13.55 26.3 -14.2 28.55 -13.7 24.3 -11.55 20.6 -10.45 21.35 -5.55 22.3 -1.35 23.1 2.7 20.8 3.4 20.4 3.95 20.45 4.45 20.5 4.85 20.85 L5.4 21.5 6.7 22.75 8.2 23.95 9.8 25.0 11.9 26.1 13.55 26.85 15.45 27.6 18.35 25.05 20.0 25.25 Q24.7 25.65 26.3 28.25" fill="#c98644" fill-rule="evenodd" stroke="none"/>
      <path d="M-14.2 28.55 Q-13.55 26.3 -12.5 24.15 L-11.25 22.65 -9.1 22.9 -1.3 23.5 Q0.8 23.45 2.5 22.8 3.45 22.2 4.25 22.25 5.1 22.25 5.8 23.1 L8.65 24.85 10.25 25.85 12.6 27.05 15.1 27.9 19.85 29.15 Q21.45 27.55 23.6 26.85 L26.3 28.25 26.9 29.65 Q25.1 31.7 22.25 31.9 L18.05 32.1 14.5 32.3 11.05 32.35 7.7 32.4 4.45 32.45 1.3 32.45 -4.4 32.3 -9.1 31.9 Q-11.9 31.8 -14.35 30.95 L-14.2 28.55 M13.55 26.85 L11.9 26.1 13.6 24.6 Q14.0 24.25 14.4 24.05 L16.35 24.65 Q15.8 25.0 15.1 25.6 L13.55 26.85 M9.8 25.0 L8.2 23.95 10.9 22.4 12.4 23.2 11.5 23.75 9.8 25.0 M6.7 22.75 L5.4 21.5 7.75 20.2 7.85 20.15 9.45 21.45 Q8.95 21.65 8.35 21.95 L6.7 22.75" fill="#b47b43" fill-rule="evenodd" stroke="none"/>
      <path d="M-14.35 30.95 Q-11.9 31.8 -9.1 31.9 L-4.4 32.3 1.3 32.45 4.45 32.45 7.7 32.4 11.05 32.35 14.5 32.3 18.05 32.1 22.25 31.9 Q25.1 31.7 26.9 29.65 L27.05 30.4 26.9 30.55 Q25.45 32.1 23.4 32.6 L19.1 32.95 18.05 33.0 4.45 33.35 Q-8.9 33.35 -14.35 31.85 L-14.35 30.95 M18.35 25.05 L15.45 27.6 13.55 26.85 15.1 25.6 Q15.8 25.0 16.35 24.65 L14.4 24.05 Q14.0 24.25 13.6 24.6 L11.9 26.1 9.8 25.0 11.5 23.75 12.4 23.2 10.9 22.4 8.2 23.95 6.7 22.75 8.35 21.95 Q8.95 21.65 9.45 21.45 L7.85 20.15 7.75 20.2 7.75 19.9 7.8 19.5 7.95 19.45 10.35 21.05 12.7 22.8 15.05 24.1 16.55 24.7 18.35 25.05" fill="#986d42" fill-rule="evenodd" stroke="none"/>
      <path d="M-14.35 31.85 Q-8.9 33.35 4.45 33.35 L18.05 33.0 19.1 32.95 23.4 32.6 Q25.45 32.1 26.9 30.55 L27.05 30.4 27.1 31.6 Q27.1 32.25 25.15 33.95 23.6 35.2 19.5 35.55 L16.95 35.65 3.9 35.7 -12.25 35.05 -13.4 34.9 Q-14.2 33.9 -14.35 31.85" fill="#af947a" fill-rule="evenodd" stroke="none"/>
    </g>
    <g id="sprite1" transform="matrix(1.0, 0.0, 0.0, 1.0, 50.0, 50.0)">
      <use ffdec:characterId="1080" height="100.0" transform="matrix(1.0, 0.0, 0.0, 1.0, -50.0, -50.0)" width="100.0" xlink:href="#shape2"/>
    </g>
    <g id="shape2" transform="matrix(1.0, 0.0, 0.0, 1.0, 50.0, 50.0)">
      <path d="M50.0 50.0 L-50.0 50.0 -50.0 -50.0 50.0 -50.0 50.0 50.0 Z" fill="none" stroke="#9900ff" stroke-linecap="round" stroke-linejoin="round" stroke-width="0.05"/>
    </g>
  </defs>
</svg>
