<?xml version="1.0" encoding="UTF-8" standalone="no"?>
<svg xmlns:ffdec="https://www.free-decompiler.com/flash" xmlns:xlink="http://www.w3.org/1999/xlink" ffdec:objectType="frame" height="50.0px" width="75.0px" xmlns="http://www.w3.org/2000/svg">
  <g transform="matrix(1.0, 0.0, 0.0, 1.0, 0.0, 0.0)">
    <use ffdec:characterId="2756" height="50.0" transform="matrix(1.0, 0.0, 0.0, 1.0, 0.0, 0.0)" width="75.0" xlink:href="#shape0"/>
    <use ffdec:characterId="2767" ffdec:characterName="game_fla.brick_154" height="4.0" id="b1" transform="matrix(1.0, 0.0, 0.0, 1.0, 0.0, 0.0)" width="14.0" xlink:href="#sprite0"/>
    <use ffdec:characterId="2767" ffdec:characterName="game_fla.brick_154" height="4.0" id="b2" transform="matrix(1.0, 0.0, 0.0, 1.0, 15.0, 0.0)" width="14.0" xlink:href="#sprite0"/>
    <use ffdec:characterId="2767" ffdec:characterName="game_fla.brick_154" height="4.0" id="b3" transform="matrix(1.0, 0.0, 0.0, 1.0, 30.0, 0.0)" width="14.0" xlink:href="#sprite0"/>
    <use ffdec:characterId="2767" ffdec:characterName="game_fla.brick_154" height="4.0" id="b4" transform="matrix(1.0, 0.0, 0.0, 1.0, 45.0, 0.0)" width="14.0" xlink:href="#sprite0"/>
    <use ffdec:characterId="2767" ffdec:characterName="game_fla.brick_154" height="4.0" id="b5" transform="matrix(1.0, 0.0, 0.0, 1.0, 60.0, 0.0)" width="14.0" xlink:href="#sprite0"/>
    <use ffdec:characterId="2767" ffdec:characterName="game_fla.brick_154" height="4.0" id="b6" transform="matrix(1.0, 0.0, 0.0, 1.0, 8.0, 5.0)" width="14.0" xlink:href="#sprite0"/>
    <use ffdec:characterId="2767" ffdec:characterName="game_fla.brick_154" height="4.0" id="b7" transform="matrix(1.0, 0.0, 0.0, 1.0, 23.0, 5.0)" width="14.0" xlink:href="#sprite0"/>
    <use ffdec:characterId="2767" ffdec:characterName="game_fla.brick_154" height="4.0" id="b8" transform="matrix(1.0, 0.0, 0.0, 1.0, 38.0, 5.0)" width="14.0" xlink:href="#sprite0"/>
    <use ffdec:characterId="2767" ffdec:characterName="game_fla.brick_154" height="4.0" id="b9" transform="matrix(1.0, 0.0, 0.0, 1.0, 53.0, 5.0)" width="14.0" xlink:href="#sprite0"/>
    <use ffdec:characterId="2767" ffdec:characterName="game_fla.brick_154" height="4.0" id="b10" transform="matrix(1.0, 0.0, 0.0, 1.0, 0.0, 10.0)" width="14.0" xlink:href="#sprite0"/>
    <use ffdec:characterId="2767" ffdec:characterName="game_fla.brick_154" height="4.0" id="b11" transform="matrix(1.0, 0.0, 0.0, 1.0, 15.0, 10.0)" width="14.0" xlink:href="#sprite0"/>
    <use ffdec:characterId="2767" ffdec:characterName="game_fla.brick_154" height="4.0" id="b12" transform="matrix(1.0, 0.0, 0.0, 1.0, 30.0, 10.0)" width="14.0" xlink:href="#sprite0"/>
    <use ffdec:characterId="2767" ffdec:characterName="game_fla.brick_154" height="4.0" id="b13" transform="matrix(1.0, 0.0, 0.0, 1.0, 45.0, 10.0)" width="14.0" xlink:href="#sprite0"/>
    <use ffdec:characterId="2767" ffdec:characterName="game_fla.brick_154" height="4.0" id="b14" transform="matrix(1.0, 0.0, 0.0, 1.0, 60.0, 10.0)" width="14.0" xlink:href="#sprite0"/>
    <use ffdec:characterId="2767" ffdec:characterName="game_fla.brick_154" height="4.0" id="b15" transform="matrix(1.0, 0.0, 0.0, 1.0, 8.0, 15.0)" width="14.0" xlink:href="#sprite0"/>
    <use ffdec:characterId="2767" ffdec:characterName="game_fla.brick_154" height="4.0" id="b16" transform="matrix(1.0, 0.0, 0.0, 1.0, 23.0, 15.0)" width="14.0" xlink:href="#sprite0"/>
    <use ffdec:characterId="2767" ffdec:characterName="game_fla.brick_154" height="4.0" id="b17" transform="matrix(1.0, 0.0, 0.0, 1.0, 38.0, 15.0)" width="14.0" xlink:href="#sprite0"/>
    <use ffdec:characterId="2767" ffdec:characterName="game_fla.brick_154" height="4.0" id="b18" transform="matrix(1.0, 0.0, 0.0, 1.0, 53.0, 15.0)" width="14.0" xlink:href="#sprite0"/>
    <use ffdec:characterId="2767" ffdec:characterName="game_fla.brick_154" height="4.0" id="b19" transform="matrix(1.0, 0.0, 0.0, 1.0, 0.0, 20.0)" width="14.0" xlink:href="#sprite0"/>
    <use ffdec:characterId="2767" ffdec:characterName="game_fla.brick_154" height="4.0" id="b20" transform="matrix(1.0, 0.0, 0.0, 1.0, 15.0, 20.0)" width="14.0" xlink:href="#sprite0"/>
    <use ffdec:characterId="2767" ffdec:characterName="game_fla.brick_154" height="4.0" id="b21" transform="matrix(1.0, 0.0, 0.0, 1.0, 30.0, 20.0)" width="14.0" xlink:href="#sprite0"/>
    <use ffdec:characterId="2767" ffdec:characterName="game_fla.brick_154" height="4.0" id="b22" transform="matrix(1.0, 0.0, 0.0, 1.0, 45.0, 20.0)" width="14.0" xlink:href="#sprite0"/>
    <use ffdec:characterId="2767" ffdec:characterName="game_fla.brick_154" height="4.0" id="b23" transform="matrix(1.0, 0.0, 0.0, 1.0, 60.0, 20.0)" width="14.0" xlink:href="#sprite0"/>
    <use ffdec:characterId="2767" ffdec:characterName="game_fla.brick_154" height="4.0" id="b24" transform="matrix(1.0, 0.0, 0.0, 1.0, 8.0, 25.0)" width="14.0" xlink:href="#sprite0"/>
    <use ffdec:characterId="2767" ffdec:characterName="game_fla.brick_154" height="4.0" id="b25" transform="matrix(1.0, 0.0, 0.0, 1.0, 23.0, 25.0)" width="14.0" xlink:href="#sprite0"/>
    <use ffdec:characterId="2767" ffdec:characterName="game_fla.brick_154" height="4.0" id="b26" transform="matrix(1.0, 0.0, 0.0, 1.0, 38.0, 25.0)" width="14.0" xlink:href="#sprite0"/>
    <use ffdec:characterId="2767" ffdec:characterName="game_fla.brick_154" height="4.0" id="b27" transform="matrix(1.0, 0.0, 0.0, 1.0, 53.0, 25.0)" width="14.0" xlink:href="#sprite0"/>
    <use ffdec:characterId="2767" ffdec:characterName="game_fla.brick_154" height="4.0" id="b28" transform="matrix(1.0, 0.0, 0.0, 1.0, 0.0, 30.0)" width="14.0" xlink:href="#sprite0"/>
    <use ffdec:characterId="2767" ffdec:characterName="game_fla.brick_154" height="4.0" id="b29" transform="matrix(1.0, 0.0, 0.0, 1.0, 15.0, 30.0)" width="14.0" xlink:href="#sprite0"/>
    <use ffdec:characterId="2767" ffdec:characterName="game_fla.brick_154" height="4.0" id="b30" transform="matrix(1.0, 0.0, 0.0, 1.0, 30.0, 30.0)" width="14.0" xlink:href="#sprite0"/>
    <use ffdec:characterId="2767" ffdec:characterName="game_fla.brick_154" height="4.0" id="b31" transform="matrix(1.0, 0.0, 0.0, 1.0, 45.0, 30.0)" width="14.0" xlink:href="#sprite0"/>
    <use ffdec:characterId="2767" ffdec:characterName="game_fla.brick_154" height="4.0" id="b32" transform="matrix(1.0, 0.0, 0.0, 1.0, 60.0, 30.0)" width="14.0" xlink:href="#sprite0"/>
    <use ffdec:characterId="2767" ffdec:characterName="game_fla.brick_154" height="4.0" id="b33" transform="matrix(1.0, 0.0, 0.0, 1.0, 8.0, 35.0)" width="14.0" xlink:href="#sprite0"/>
    <use ffdec:characterId="2767" ffdec:characterName="game_fla.brick_154" height="4.0" id="b34" transform="matrix(1.0, 0.0, 0.0, 1.0, 23.0, 35.0)" width="14.0" xlink:href="#sprite0"/>
    <use ffdec:characterId="2767" ffdec:characterName="game_fla.brick_154" height="4.0" id="b35" transform="matrix(1.0, 0.0, 0.0, 1.0, 38.0, 35.0)" width="14.0" xlink:href="#sprite0"/>
    <use ffdec:characterId="2767" ffdec:characterName="game_fla.brick_154" height="4.0" id="b36" transform="matrix(1.0, 0.0, 0.0, 1.0, 53.0, 35.0)" width="14.0" xlink:href="#sprite0"/>
    <use ffdec:characterId="2767" ffdec:characterName="game_fla.brick_154" height="4.0" id="b37" transform="matrix(1.0, 0.0, 0.0, 1.0, 0.0, 40.0)" width="14.0" xlink:href="#sprite0"/>
    <use ffdec:characterId="2767" ffdec:characterName="game_fla.brick_154" height="4.0" id="b38" transform="matrix(1.0, 0.0, 0.0, 1.0, 15.0, 40.0)" width="14.0" xlink:href="#sprite0"/>
    <use ffdec:characterId="2767" ffdec:characterName="game_fla.brick_154" height="4.0" id="b39" transform="matrix(1.0, 0.0, 0.0, 1.0, 30.0, 40.0)" width="14.0" xlink:href="#sprite0"/>
    <use ffdec:characterId="2767" ffdec:characterName="game_fla.brick_154" height="4.0" id="b40" transform="matrix(1.0, 0.0, 0.0, 1.0, 45.0, 40.0)" width="14.0" xlink:href="#sprite0"/>
    <use ffdec:characterId="2767" ffdec:characterName="game_fla.brick_154" height="4.0" id="b41" transform="matrix(1.0, 0.0, 0.0, 1.0, 60.0, 40.0)" width="14.0" xlink:href="#sprite0"/>
    <use ffdec:characterId="2767" ffdec:characterName="game_fla.brick_154" height="4.0" id="b42" transform="matrix(1.0, 0.0, 0.0, 1.0, 8.0, 45.0)" width="14.0" xlink:href="#sprite0"/>
    <use ffdec:characterId="2767" ffdec:characterName="game_fla.brick_154" height="4.0" id="b43" transform="matrix(1.0, 0.0, 0.0, 1.0, 23.0, 45.0)" width="14.0" xlink:href="#sprite0"/>
    <use ffdec:characterId="2767" ffdec:characterName="game_fla.brick_154" height="4.0" id="b44" transform="matrix(1.0, 0.0, 0.0, 1.0, 38.0, 45.0)" width="14.0" xlink:href="#sprite0"/>
    <use ffdec:characterId="2767" ffdec:characterName="game_fla.brick_154" height="4.0" id="b45" transform="matrix(1.0, 0.0, 0.0, 1.0, 53.0, 45.0)" width="14.0" xlink:href="#sprite0"/>
  </g>
  <defs>
    <g id="shape0" transform="matrix(1.0, 0.0, 0.0, 1.0, 0.0, 0.0)">
      <path d="M0.0 5.0 L7.0 5.0 7.0 9.0 0.0 9.0 0.0 5.0 M0.0 15.0 L7.0 15.0 7.0 19.0 0.0 19.0 0.0 15.0 M0.0 25.0 L7.0 25.0 7.0 29.0 0.0 29.0 0.0 25.0 M0.0 35.0 L7.0 35.0 7.0 39.0 0.0 39.0 0.0 35.0 M0.0 45.0 L7.0 45.0 7.0 49.0 0.0 49.0 0.0 45.0 M75.0 49.0 L68.0 49.0 68.0 45.0 75.0 45.0 75.0 49.0 M75.0 39.0 L68.0 39.0 68.0 35.0 75.0 35.0 75.0 39.0 M75.0 29.0 L68.0 29.0 68.0 25.0 75.0 25.0 75.0 29.0 M75.0 19.0 L68.0 19.0 68.0 15.0 75.0 15.0 75.0 19.0 M75.0 9.0 L68.0 9.0 68.0 5.0 75.0 5.0 75.0 9.0" fill="#8c7967" fill-rule="evenodd" stroke="none"/>
      <path d="M0.0 5.0 L0.0 0.0 75.0 0.0 75.0 5.0 68.0 5.0 68.0 9.0 75.0 9.0 75.0 15.0 68.0 15.0 68.0 19.0 75.0 19.0 75.0 25.0 68.0 25.0 68.0 29.0 75.0 29.0 75.0 35.0 68.0 35.0 68.0 39.0 75.0 39.0 75.0 45.0 68.0 45.0 68.0 49.0 75.0 49.0 75.0 50.0 0.0 50.0 0.0 49.0 7.0 49.0 7.0 45.0 0.0 45.0 0.0 39.0 7.0 39.0 7.0 35.0 0.0 35.0 0.0 29.0 7.0 29.0 7.0 25.0 0.0 25.0 0.0 19.0 7.0 19.0 7.0 15.0 0.0 15.0 0.0 9.0 7.0 9.0 7.0 5.0 0.0 5.0" fill="#cbbaa2" fill-rule="evenodd" stroke="none"/>
    </g>
    <g id="sprite0" transform="matrix(1.0, 0.0, 0.0, 1.0, 0.0, 0.0)">
      <use ffdec:characterId="2757" height="4.0" transform="matrix(1.0, 0.0, 0.0, 1.0, 0.0, 0.0)" width="14.0" xlink:href="#shape1"/>
    </g>
    <g id="shape1" transform="matrix(1.0, 0.0, 0.0, 1.0, 0.0, 0.0)">
      <path d="M14.0 4.0 L0.0 4.0 0.0 0.0 14.0 0.0 14.0 4.0" fill="#8c7967" fill-rule="evenodd" stroke="none"/>
    </g>
  </defs>
</svg>
