<?xml version="1.0" encoding="UTF-8" standalone="no"?>
<svg xmlns:ffdec="https://www.free-decompiler.com/flash" xmlns:xlink="http://www.w3.org/1999/xlink" ffdec:objectType="frame" height="70.0px" width="300.0px" xmlns="http://www.w3.org/2000/svg">
  <g transform="matrix(1.0, 0.0, 0.0, 1.0, 150.0, 25.0)">
    <use ffdec:characterId="1012" height="50.0" id="spikes" transform="matrix(1.0, 0.0, 0.0, 1.0, -150.0, -25.0)" width="289.0" xlink:href="#sprite0"/>
    <use ffdec:characterId="1014" height="20.0" id="base" transform="matrix(1.0, 0.0, 0.0, 1.0, -150.0, 25.0)" width="300.0" xlink:href="#sprite2"/>
  </g>
  <defs>
    <g id="sprite0" transform="matrix(1.0, 0.0, 0.0, 1.0, 0.0, 0.0)">
      <use ffdec:characterId="1011" ffdec:characterName="Spike" height="50.0" transform="matrix(1.0, 0.0, 0.0, 1.0, 0.0, 0.0)" width="4.0" xlink:href="#sprite1"/>
      <use ffdec:characterId="1011" ffdec:characterName="Spike" height="50.0" transform="matrix(1.0, 0.0, 0.0, 1.0, 15.0, 0.0)" width="4.0" xlink:href="#sprite1"/>
      <use ffdec:characterId="1011" ffdec:characterName="Spike" height="50.0" transform="matrix(1.0, 0.0, 0.0, 1.0, 30.0, 0.0)" width="4.0" xlink:href="#sprite1"/>
      <use ffdec:characterId="1011" ffdec:characterName="Spike" height="50.0" transform="matrix(1.0, 0.0, 0.0, 1.0, 45.0, 0.0)" width="4.0" xlink:href="#sprite1"/>
      <use ffdec:characterId="1011" ffdec:characterName="Spike" height="50.0" transform="matrix(1.0, 0.0, 0.0, 1.0, 60.0, 0.0)" width="4.0" xlink:href="#sprite1"/>
      <use ffdec:characterId="1011" ffdec:characterName="Spike" height="50.0" transform="matrix(1.0, 0.0, 0.0, 1.0, 75.0, 0.0)" width="4.0" xlink:href="#sprite1"/>
      <use ffdec:characterId="1011" ffdec:characterName="Spike" height="50.0" transform="matrix(1.0, 0.0, 0.0, 1.0, 90.0, 0.0)" width="4.0" xlink:href="#sprite1"/>
      <use ffdec:characterId="1011" ffdec:characterName="Spike" height="50.0" transform="matrix(1.0, 0.0, 0.0, 1.0, 105.0, 0.0)" width="4.0" xlink:href="#sprite1"/>
      <use ffdec:characterId="1011" ffdec:characterName="Spike" height="50.0" transform="matrix(1.0, 0.0, 0.0, 1.0, 120.0, 0.0)" width="4.0" xlink:href="#sprite1"/>
      <use ffdec:characterId="1011" ffdec:characterName="Spike" height="50.0" transform="matrix(1.0, 0.0, 0.0, 1.0, 135.0, 0.0)" width="4.0" xlink:href="#sprite1"/>
      <use ffdec:characterId="1011" ffdec:characterName="Spike" height="50.0" transform="matrix(1.0, 0.0, 0.0, 1.0, 150.0, 0.0)" width="4.0" xlink:href="#sprite1"/>
      <use ffdec:characterId="1011" ffdec:characterName="Spike" height="50.0" transform="matrix(1.0, 0.0, 0.0, 1.0, 165.0, 0.0)" width="4.0" xlink:href="#sprite1"/>
      <use ffdec:characterId="1011" ffdec:characterName="Spike" height="50.0" transform="matrix(1.0, 0.0, 0.0, 1.0, 180.0, 0.0)" width="4.0" xlink:href="#sprite1"/>
      <use ffdec:characterId="1011" ffdec:characterName="Spike" height="50.0" transform="matrix(1.0, 0.0, 0.0, 1.0, 195.0, 0.0)" width="4.0" xlink:href="#sprite1"/>
      <use ffdec:characterId="1011" ffdec:characterName="Spike" height="50.0" transform="matrix(1.0, 0.0, 0.0, 1.0, 210.0, 0.0)" width="4.0" xlink:href="#sprite1"/>
      <use ffdec:characterId="1011" ffdec:characterName="Spike" height="50.0" transform="matrix(1.0, 0.0, 0.0, 1.0, 225.0, 0.0)" width="4.0" xlink:href="#sprite1"/>
      <use ffdec:characterId="1011" ffdec:characterName="Spike" height="50.0" transform="matrix(1.0, 0.0, 0.0, 1.0, 240.0, 0.0)" width="4.0" xlink:href="#sprite1"/>
      <use ffdec:characterId="1011" ffdec:characterName="Spike" height="50.0" transform="matrix(1.0, 0.0, 0.0, 1.0, 255.0, 0.0)" width="4.0" xlink:href="#sprite1"/>
      <use ffdec:characterId="1011" ffdec:characterName="Spike" height="50.0" transform="matrix(1.0, 0.0, 0.0, 1.0, 270.0, 0.0)" width="4.0" xlink:href="#sprite1"/>
      <use ffdec:characterId="1011" ffdec:characterName="Spike" height="50.0" transform="matrix(1.0, 0.0, 0.0, 1.0, 285.0, 0.0)" width="4.0" xlink:href="#sprite1"/>
    </g>
    <g id="sprite1" transform="matrix(1.0, 0.0, 0.0, 1.0, 0.0, 0.0)">
      <use ffdec:characterId="1010" height="50.0" transform="matrix(1.0, 0.0, 0.0, 1.0, 0.0, 0.0)" width="4.0" xlink:href="#shape0"/>
    </g>
    <g id="shape0" transform="matrix(1.0, 0.0, 0.0, 1.0, 0.0, 0.0)">
      <path d="M3.0 50.0 L2.0 50.0 2.0 4.0 1.0 3.0 1.0 50.0 0.0 50.0 0.0 1.0 3.0 4.0 3.0 50.0" fill="#acbbdb" fill-rule="evenodd" stroke="none"/>
      <path d="M2.0 50.0 L1.0 50.0 1.0 3.0 2.0 4.0 2.0 50.0" fill="#415269" fill-rule="evenodd" stroke="none"/>
      <path d="M0.0 1.0 L0.0 0.0 4.0 4.0 4.0 50.0 3.0 50.0 3.0 4.0 0.0 1.0" fill="#d6dfed" fill-rule="evenodd" stroke="none"/>
    </g>
    <g id="sprite2" transform="matrix(1.0, 0.0, 0.0, 1.0, 150.0, 10.0)">
      <use ffdec:characterId="1013" height="20.0" transform="matrix(1.0, 0.0, 0.0, 1.0, -150.0, -10.0)" width="300.0" xlink:href="#shape1"/>
    </g>
    <g id="shape1" transform="matrix(1.0, 0.0, 0.0, 1.0, 150.0, 10.0)">
      <path d="M-150.0 -8.0 L-150.0 -10.0 150.0 -10.0 150.0 -8.0 -150.0 -8.0" fill="#3e3c39" fill-rule="evenodd" stroke="none"/>
      <path d="M150.0 -8.0 L150.0 10.0 -150.0 10.0 -150.0 -8.0 150.0 -8.0" fill="#37302f" fill-rule="evenodd" stroke="none"/>
    </g>
  </defs>
</svg>
