<?xml version="1.0" encoding="UTF-8" standalone="no"?>
<svg xmlns:ffdec="https://www.free-decompiler.com/flash" xmlns:xlink="http://www.w3.org/1999/xlink" ffdec:objectType="frame" height="68.25px" width="19.0px" xmlns="http://www.w3.org/2000/svg">
  <g transform="matrix(1.0, 0.0, 0.0, 1.0, 9.45, 30.65)">
    <use ffdec:characterId="2110" ffdec:characterName="game_fla.hand1_496" height="24.55" id="hand" transform="matrix(1.0, 0.0, 0.0, 1.0, -8.95, 13.05)" width="16.7" xlink:href="#sprite0"/>
    <use ffdec:characterId="2111" height="44.85" transform="matrix(1.0, 0.0, 0.0, 1.0, -8.5, -30.65)" width="17.5" xlink:href="#shape1"/>
    <use ffdec:characterId="1081" height="100.0" id="shape" transform="matrix(0.15, 0.0, 0.0, 0.6, -7.4997, -29.9995)" width="100.0" xlink:href="#sprite1"/>
  </g>
  <defs>
    <g id="sprite0" transform="matrix(1.0, 0.0, 0.0, 1.0, 9.35, 8.9)">
      <use ffdec:characterId="1547" height="17.85" transform="matrix(1.0, 0.0, 0.0, 1.0, -7.3, -8.9)" width="14.65" xlink:href="#shape0"/>
    </g>
    <g id="shape0" transform="matrix(1.0, 0.0, 0.0, 1.0, 7.3, 8.9)">
      <path d="M4.95 -8.9 L5.15 -8.9 5.15 -8.7 7.35 0.55 6.75 2.2 5.6 3.65 5.8 6.3 5.15 5.3 Q3.45 6.0 1.8 7.05 L0.45 6.1 Q-0.4 7.25 -1.15 6.95 L-2.0 6.65 -2.55 5.85 -6.25 4.75 -5.9 4.05 Q-4.8 1.7 -4.3 -0.85 -3.95 -2.9 -3.25 -4.7 -2.75 -5.95 -2.55 -7.15 L-2.45 -7.75 1.6 -8.25 1.35 -7.75 1.75 -7.35 2.2 -7.15 4.15 -4.0 4.95 -7.2 Q5.1 -7.95 4.85 -8.65 L4.95 -8.9 M-4.75 -7.5 L-4.45 -8.45 -4.55 -8.8 -4.55 -8.9 -4.05 -8.9 -4.75 -7.5" fill="#ffcc99" fill-rule="evenodd" stroke="none"/>
      <path d="M5.8 6.3 L5.75 6.7 5.7 6.85 Q4.9 7.55 3.7 8.05 L2.65 7.7 2.5 7.65 2.0 8.1 0.85 8.65 -0.3 8.95 -1.2 7.95 -1.25 8.0 -1.85 8.5 -3.05 8.5 Q-4.9 8.0 -5.5 6.3 L-6.55 5.9 -7.2 4.85 -7.3 4.6 Q-7.2 -0.15 -5.5 -5.05 L-4.75 -7.5 -4.05 -8.9 4.95 -8.9 4.85 -8.65 Q5.1 -7.95 4.95 -7.2 L4.15 -4.0 2.2 -7.15 1.75 -7.35 1.35 -7.75 1.6 -8.25 -2.45 -7.75 -2.55 -7.15 Q-2.75 -5.95 -3.25 -4.7 -3.95 -2.9 -4.3 -0.85 -4.8 1.7 -5.9 4.05 L-6.25 4.75 -2.55 5.85 -2.0 6.65 -1.15 6.95 Q-0.4 7.25 0.45 6.1 L1.8 7.05 Q3.45 6.0 5.15 5.3 L5.8 6.3" fill="#ebbb98" fill-rule="evenodd" stroke="none"/>
    </g>
    <g id="shape1" transform="matrix(1.0, 0.0, 0.0, 1.0, 8.5, 30.65)">
      <path d="M6.95 -26.75 L7.1 -26.4 7.35 -25.8 Q7.8 -25.35 7.85 -24.6 L8.0 -23.15 8.0 -17.95 7.2 -12.55 6.4 -9.05 Q6.1 -8.85 6.05 -7.25 L6.0 -5.6 6.0 -4.5 Q6.0 -5.5 4.85 -6.9 3.45 -8.6 3.25 -9.25 L3.0 -9.35 2.75 -9.5 2.75 -7.5 Q3.3 -5.95 6.35 -0.9 7.8 1.5 8.15 4.45 L8.25 6.25 8.25 6.65 7.65 7.95 Q6.95 9.2 5.9 9.6 L5.95 9.9 4.2 9.65 -0.1 9.0 2.95 7.95 4.1 7.55 4.25 6.75 0.6 4.2 Q0.1 -3.2 0.55 -11.05 L1.4 -13.3 2.95 -16.9 4.15 -20.25 Q4.7 -21.85 6.05 -24.3 7.05 -26.1 6.95 -26.75 M-5.15 10.0 Q-6.55 9.55 -7.3 7.95 L-7.85 6.05 -8.0 4.45 -7.9 1.65 Q-7.9 0.75 -7.1 -2.25 -7.1 -5.3 -7.8 -10.75 -8.5 -16.25 -8.5 -18.75 -8.5 -21.2 -7.75 -24.35 -6.75 -28.55 -5.1 -29.1 L-4.35 -29.35 -5.25 -25.95 Q-6.25 -20.05 -4.65 -14.65 L-4.7 -8.2 Q-4.7 -5.0 -5.55 -2.05 -6.55 1.65 -5.85 4.45 -5.35 6.4 -4.0 7.95 L-2.55 9.3 -3.9 9.65 -5.15 10.0 M4.9 -29.85 L4.95 -29.8 4.9 -29.85" fill="#996633" fill-rule="evenodd" stroke="none"/>
      <path d="M-4.35 -29.35 Q-2.65 -30.85 -1.2 -30.65 L0.6 -30.35 Q3.45 -30.65 4.9 -29.85 L4.95 -29.8 5.0 -29.85 Q6.35 -29.85 6.95 -26.75 7.05 -26.1 6.05 -24.3 4.7 -21.85 4.15 -20.25 L2.95 -16.9 1.4 -13.3 0.55 -11.05 Q0.1 -3.2 0.6 4.2 L4.25 6.75 4.1 7.55 2.95 7.95 -0.1 9.0 4.2 9.65 Q2.8 10.25 2.1 10.25 L-3.9 9.65 -2.55 9.3 -4.0 7.95 Q-5.35 6.4 -5.85 4.45 -6.55 1.65 -5.55 -2.05 -4.7 -5.0 -4.7 -8.2 L-4.65 -14.65 Q-6.25 -20.05 -5.25 -25.95 L-4.35 -29.35" fill="#86592d" fill-rule="evenodd" stroke="none"/>
      <path d="M8.0 -17.95 L8.0 -13.65 8.25 -12.9 8.25 -1.4 9.0 1.35 8.8 4.45 8.45 5.95 8.25 6.65 8.25 6.25 8.15 4.45 Q7.8 1.5 6.35 -0.9 3.3 -5.95 2.75 -7.5 L2.75 -9.5 3.0 -9.35 3.25 -9.25 Q3.45 -8.6 4.85 -6.9 6.0 -5.5 6.0 -4.5 L6.0 -5.6 6.05 -7.25 Q6.1 -8.85 6.4 -9.05 L7.2 -12.55 8.0 -17.95" fill="#bf8040" fill-rule="evenodd" stroke="none"/>
      <path d="M5.95 9.9 Q7.85 14.5 2.55 14.2 -2.8 13.9 -5.1 12.3 L-5.15 10.0 -3.9 9.65 2.1 10.25 Q2.8 10.25 4.2 9.65 L5.95 9.9" fill="#fd8181" fill-rule="evenodd" stroke="none"/>
    </g>
    <g id="sprite1" transform="matrix(1.0, 0.0, 0.0, 1.0, 50.0, 50.0)">
      <use ffdec:characterId="1080" height="100.0" transform="matrix(1.0, 0.0, 0.0, 1.0, -50.0, -50.0)" width="100.0" xlink:href="#shape2"/>
    </g>
    <g id="shape2" transform="matrix(1.0, 0.0, 0.0, 1.0, 50.0, 50.0)">
      <path d="M50.0 50.0 L-50.0 50.0 -50.0 -50.0 50.0 -50.0 50.0 50.0 Z" fill="none" stroke="#9900ff" stroke-linecap="round" stroke-linejoin="round" stroke-width="0.05"/>
    </g>
  </defs>
</svg>
