<?xml version="1.0" encoding="UTF-8" standalone="no"?>
<svg xmlns:ffdec="https://www.free-decompiler.com/flash" xmlns:xlink="http://www.w3.org/1999/xlink" ffdec:objectType="frame" height="29.65px" width="31.5px" xmlns="http://www.w3.org/2000/svg">
  <g transform="matrix(1.0, 0.0, 0.0, 1.0, 12.95, 8.45)">
    <use ffdec:characterId="1676" height="29.65" transform="matrix(1.0, 0.0, 0.0, 1.0, -12.95, -8.45)" width="31.5" xlink:href="#shape0"/>
  </g>
  <defs>
    <g id="shape0" transform="matrix(1.0, 0.0, 0.0, 1.0, 12.95, 8.45)">
      <path d="M8.75 -7.95 L8.8 -7.9 Q9.4 -7.4 9.25 -6.55 8.8 -5.7 7.9 -5.7 6.25 -5.3 4.7 -4.15 L5.9 -3.9 7.05 -3.25 5.65 -3.3 Q5.15 -3.25 5.25 -2.5 L5.3 -2.3 6.75 -2.4 7.05 -1.95 Q7.8 -1.75 8.1 -2.35 L8.25 -2.7 8.9 -2.5 9.25 -2.35 8.25 -1.75 6.15 -1.75 Q5.05 -2.6 3.5 -2.3 L2.75 -2.9 Q1.7 -4.3 0.3 -5.15 L-0.3 -5.55 -0.9 -5.9 -1.7 -6.3 -2.5 -5.75 -4.95 -3.85 -5.25 -3.6 -6.25 -3.6 -6.3 -4.45 -6.5 -5.3 -6.4 -5.35 -5.7 -5.55 -2.4 -6.5 -3.05 -6.75 Q-1.0 -7.55 1.2 -7.45 L1.9 -7.0 3.4 -7.45 1.1 -6.0 8.75 -7.95 M-2.5 6.15 L-3.45 5.9 -3.35 5.3 -3.3 5.05 -3.1 5.2 -2.85 5.45 -2.5 6.15 M-4.8 6.2 L-5.75 6.4 -6.3 5.75 -8.85 5.7 -10.75 4.4 -10.85 4.35 -12.4 3.75 -12.6 3.55 Q-13.25 2.9 -12.75 2.6 L-12.5 2.95 -10.85 2.4 -10.75 2.4 -9.9 2.7 -9.0 3.0 Q-8.15 3.0 -7.2 2.25 L-6.75 2.7 -5.95 3.55 -4.9 4.35 -4.8 4.45 -4.6 5.0 -4.6 5.05 -4.6 5.15 -4.6 5.35 -4.6 5.8 -4.65 6.0 -4.8 6.2 M-11.05 1.35 L-11.45 0.3 -11.7 -0.25 Q-12.45 -2.0 -12.45 -2.6 -12.45 -3.65 -11.6 -4.25 -12.3 -3.35 -12.3 -2.1 L-12.25 -1.85 -11.95 -1.7 -11.4 -1.55 -11.0 -1.6 -10.75 -2.0 -10.55 -2.4 -9.65 -4.1 -9.25 -4.55 -9.1 -4.35 -7.5 -4.0 -6.95 -3.4 -6.35 -3.35 -6.4 -2.8 Q-7.65 -2.05 -8.9 -1.8 L-9.1 -1.35 -8.85 -0.9 Q-8.3 -0.05 -8.3 0.45 L-8.35 1.0 -10.3 1.1 -10.75 1.25 -10.85 1.25 -11.05 1.35 M7.65 -8.4 L8.1 -8.35 8.6 -8.1 7.65 -8.4 M3.25 -0.35 L3.9 0.65 3.35 0.8 1.9 0.9 0.0 0.65 -0.55 0.45 -1.3 -0.1 -1.6 -1.45 -1.55 -1.65 -0.9 -0.65 3.25 -0.35 M5.1 4.0 L5.1 4.3 4.75 5.4 4.0 6.15 3.25 6.1 2.25 5.4 2.0 4.6 Q2.0 4.05 2.5 3.75 L2.5 4.4 3.5 4.55 4.75 4.4 5.1 4.0 M-4.0 -2.45 L-3.9 -1.75 Q-3.9 -0.9 -4.05 -0.7 L-5.15 -0.45 -5.35 -0.45 -5.6 -0.45 Q-6.3 -0.6 -6.5 -1.1 L-6.5 -1.8 -6.35 -2.5 -6.15 -2.05 -4.1 -1.95 -4.0 -2.45" fill="#990000" fill-rule="evenodd" stroke="none"/>
      <path d="M8.6 -8.1 L8.85 -8.0 8.75 -7.95 1.1 -6.0 3.4 -7.45 4.65 -8.0 7.65 -8.4 8.6 -8.1 M-12.75 2.6 L-11.05 1.35 -10.85 1.25 -10.75 1.25 -10.3 1.1 -8.35 1.0 Q-7.45 1.2 -7.0 2.05 L-7.2 2.25 Q-8.15 3.0 -9.0 3.0 L-9.9 2.7 -10.75 2.4 -10.85 2.4 -12.5 2.95 -12.75 2.6 M-11.6 -4.25 L-10.75 -5.05 -9.75 -5.35 -9.6 -5.55 -8.9 -6.15 Q-7.3 -7.15 -5.15 -7.3 L-5.1 -7.15 -3.05 -6.75 -2.4 -6.5 -5.7 -5.55 -6.4 -5.35 -6.5 -5.3 -6.3 -4.45 -6.25 -3.6 -5.25 -3.6 -4.95 -3.55 -4.35 -3.2 Q-4.05 -3.0 -4.0 -2.45 L-4.1 -1.95 -6.15 -2.05 -6.35 -2.5 -6.4 -2.8 -6.35 -3.35 -6.95 -3.4 -7.5 -4.0 -9.1 -4.35 -9.25 -4.55 -9.65 -4.1 -10.55 -2.4 -10.75 -2.0 -11.0 -1.6 -11.4 -1.55 -11.95 -1.7 -12.25 -1.85 -12.3 -2.1 Q-12.3 -3.35 -11.6 -4.25 M2.05 -2.5 L3.1 -1.6 3.25 -1.4 Q3.65 -0.85 3.4 -0.45 L3.25 -0.35 -0.9 -0.65 -1.55 -1.65 -1.55 -2.4 -1.05 -3.2 0.55 -3.2 2.05 -2.5 M3.9 2.85 Q5.1 3.05 5.1 3.7 L5.1 4.0 4.75 4.4 3.5 4.55 2.5 4.4 2.5 3.75 2.5 3.7 Q2.5 2.8 3.25 2.75 L3.4 2.75 3.8 2.8 3.9 2.85" fill="#ff0000" fill-rule="evenodd" stroke="none"/>
      <path d="M11.55 0.7 L11.6 0.85 12.5 2.05 Q13.55 2.45 14.25 3.5 L15.35 5.75 16.95 7.25 Q18.05 8.05 18.2 9.0 L18.15 11.9 Q18.15 13.6 18.55 14.45 L16.95 12.95 16.3 12.4 16.35 11.45 16.35 11.3 Q16.3 10.45 15.85 9.2 L15.05 7.8 14.25 6.25 13.55 5.05 13.45 5.6 Q13.0 7.4 14.0 8.5 14.9 9.5 15.1 11.2 L14.8 11.15 14.75 11.65 14.95 12.55 15.05 12.9 Q14.9 14.25 14.4 15.6 L14.1 16.65 13.65 17.45 13.4 17.85 13.3 16.9 13.15 15.45 Q13.55 14.6 13.55 13.55 13.55 12.3 13.0 11.25 L12.25 9.7 12.25 9.9 Q12.2 11.5 11.95 11.5 11.65 11.4 12.55 14.75 L11.25 11.75 10.7 10.9 Q10.15 10.35 11.15 6.25 L11.25 5.75 12.0 7.35 12.25 8.5 12.45 7.5 Q12.95 5.25 11.75 3.45 L11.0 2.25 10.8 1.95 11.2 1.25 11.5 0.75 11.55 0.7 M10.2 14.95 L10.05 15.25 9.85 15.85 9.35 12.85 10.2 14.95 M7.7 15.6 Q8.7 19.05 8.4 20.15 8.1 18.15 7.05 17.5 6.0 16.85 6.95 11.35 L7.6 15.3 7.65 15.45 7.7 15.6 M3.35 0.8 L3.4 0.85 3.9 2.85 3.8 2.8 3.4 2.75 3.25 2.5 3.05 2.15 2.6 1.55 1.9 0.9 3.35 0.8 M0.0 0.65 L0.05 1.85 0.05 2.3 -0.1 1.8 -0.55 0.45 0.0 0.65 M-1.6 -1.45 L-1.9 -1.65 Q-2.55 -1.95 -2.55 -5.35 L-2.5 -5.75 -1.7 -6.3 -0.9 -5.9 -0.85 -5.55 -0.7 -4.5 -0.35 -4.2 0.55 -3.2 -1.05 -3.2 -1.55 -2.4 -1.55 -1.65 -1.6 -1.45 M5.75 0.45 L5.8 0.5 Q6.55 1.15 6.8 2.0 7.2 2.95 7.2 3.75 L7.3 3.9 Q7.35 3.05 7.8 2.45 L7.75 3.0 7.9 4.4 7.9 4.45 7.5 5.5 7.1 7.8 7.05 7.7 5.65 5.4 5.65 5.0 5.55 3.4 5.2 3.2 5.45 1.75 5.75 0.5 5.75 0.45 M3.45 9.2 L3.35 9.1 3.25 9.05 1.85 7.65 Q1.1 6.35 1.05 4.45 L2.65 6.75 3.25 8.1 3.45 9.2" fill="#eeeeee" fill-rule="evenodd" stroke="none"/>
      <path d="M11.65 -0.05 L11.65 0.05 11.55 0.7 11.5 0.75 11.2 1.25 10.8 1.95 11.0 2.25 11.75 3.45 Q12.95 5.25 12.45 7.5 L12.25 8.5 12.0 7.35 11.25 5.75 11.15 6.25 Q10.15 10.35 10.7 10.9 L11.25 11.75 12.55 14.75 Q11.65 11.4 11.95 11.5 12.2 11.5 12.25 9.9 L12.25 9.7 13.0 11.25 Q13.55 12.3 13.55 13.55 13.55 14.6 13.15 15.45 L13.3 16.9 13.4 17.85 12.9 18.85 12.35 16.25 Q11.95 14.95 10.6 13.45 L10.35 13.85 10.45 14.05 10.55 14.2 10.3 14.75 10.2 14.95 9.35 12.85 9.85 15.85 9.35 17.25 9.0 18.4 Q8.25 17.6 8.05 16.6 L7.7 15.6 7.65 15.45 7.6 15.3 6.95 11.35 Q6.0 16.85 7.05 17.5 8.1 18.15 8.4 20.15 L7.85 21.2 7.8 21.0 7.85 20.55 Q7.9 20.05 6.85 18.9 5.8 17.75 5.6 17.05 L5.6 15.75 5.45 14.85 5.45 14.65 Q5.45 12.15 5.15 10.8 L5.1 10.5 Q4.55 8.65 3.25 7.1 L3.25 7.15 Q3.7 8.1 3.95 9.65 L4.0 10.15 4.05 10.75 4.15 12.45 4.1 13.4 4.1 13.6 Q4.0 15.65 3.4 13.55 L3.25 13.1 Q2.8 11.85 2.15 11.05 L1.85 10.35 1.6 9.95 -0.1 7.9 -0.8 7.0 -1.1 6.45 -2.0 3.75 Q-2.6 1.35 -3.65 0.5 -3.25 0.9 -3.15 1.65 L-3.15 3.05 -3.3 5.05 -3.35 5.3 -3.45 5.9 -3.5 5.95 Q-3.65 6.35 -4.35 6.35 L-4.45 6.35 -4.4 5.8 -4.4 4.9 Q-4.4 3.1 -4.9 1.55 L-5.3 -0.15 -5.35 -0.45 -5.15 -0.45 -4.05 -0.7 Q-3.9 -0.9 -3.9 -1.75 L-4.0 -2.45 Q-4.05 -3.0 -4.35 -3.2 L-4.95 -3.55 -4.95 -3.85 -2.5 -5.75 -2.55 -5.35 Q-2.55 -1.95 -1.9 -1.65 L-1.6 -1.45 -1.3 -0.1 -0.55 0.45 -0.1 1.8 0.05 2.3 0.05 1.85 0.0 0.65 1.9 0.9 2.6 1.55 3.05 2.15 3.25 2.5 3.4 2.75 3.25 2.75 Q2.5 2.8 2.5 3.7 L2.5 3.75 Q2.0 4.05 2.0 4.6 L2.25 5.4 3.25 6.1 4.0 6.15 4.75 5.4 5.1 4.3 5.1 4.0 5.1 3.7 Q5.1 3.05 3.9 2.85 L3.4 0.85 3.35 0.8 3.9 0.65 3.25 -0.35 3.4 -0.45 Q3.65 -0.85 3.25 -1.4 L3.1 -1.6 3.15 -1.6 3.25 -1.6 Q3.85 -1.55 4.4 -0.85 L4.7 -0.45 5.4 0.0 5.45 0.0 5.75 0.45 5.75 0.5 5.45 1.75 5.2 3.2 5.55 3.4 5.65 5.0 5.65 5.4 7.05 7.7 7.1 7.8 7.5 5.5 7.9 4.45 7.9 4.4 7.75 3.0 7.8 2.45 8.0 2.2 8.0 2.15 9.4 0.9 Q10.9 -0.2 11.6 -0.2 L11.65 -0.05 M16.3 12.4 L15.9 12.15 Q15.5 11.35 15.1 11.2 14.9 9.5 14.0 8.5 13.0 7.4 13.45 5.6 L13.55 5.05 14.25 6.25 15.05 7.8 15.85 9.2 Q16.3 10.45 16.35 11.3 L16.35 11.45 16.3 12.4 M15.05 12.9 L15.1 13.5 Q15.1 14.8 14.1 16.65 L14.4 15.6 Q14.9 14.25 15.05 12.9 M3.45 9.2 L3.25 8.1 2.65 6.75 1.05 4.45 Q1.1 6.35 1.85 7.65 L3.25 9.05 3.35 9.1 3.45 9.2" fill="#cccccc" fill-rule="evenodd" stroke="none"/>
      <path d="M9.25 -2.35 Q11.85 -3.8 12.45 -2.75 L12.7 -2.7 12.85 -1.1 11.9 -0.35 11.65 -0.05 11.6 -0.2 Q10.9 -0.2 9.4 0.9 L8.0 2.15 8.0 2.2 7.8 2.45 Q7.35 3.05 7.3 3.9 L7.2 3.75 Q7.2 2.95 6.8 2.0 6.55 1.15 5.8 0.5 L5.75 0.45 5.45 0.0 5.4 0.0 4.7 -0.45 4.4 -0.85 4.65 -1.35 4.35 -1.75 3.25 -1.95 3.1 -2.0 3.0 -2.2 3.25 -2.3 3.5 -2.3 Q5.05 -2.6 6.15 -1.75 L8.25 -1.75 9.25 -2.35 M2.75 -2.9 L2.05 -2.5 0.55 -3.2 -0.35 -4.2 -0.7 -4.5 -0.85 -5.55 -0.9 -5.9 -0.3 -5.55 0.3 -5.15 Q1.7 -4.3 2.75 -2.9 M-4.95 -3.85 L-4.95 -3.55 -5.25 -3.6 -4.95 -3.85" fill="#ffcc99" fill-rule="evenodd" stroke="none"/>
      <path d="M4.4 -0.85 Q3.85 -1.55 3.25 -1.6 L3.15 -1.6 3.1 -1.6 2.05 -2.5 2.75 -2.9 3.5 -2.3 3.25 -2.3 3.0 -2.2 3.1 -2.0 3.25 -1.95 4.35 -1.75 4.65 -1.35 4.4 -0.85" fill="#ebbb98" fill-rule="evenodd" stroke="none"/>
      <path d="M5.45 14.85 L4.15 12.45 4.05 10.75 4.0 10.15 3.95 9.65 Q3.7 8.1 3.25 7.15 L3.25 7.1 Q4.55 8.65 5.1 10.5 L5.15 10.8 Q5.45 12.15 5.45 14.65 L5.45 14.85 M2.15 11.05 L1.6 10.5 0.55 9.75 -0.2 9.3 Q-1.35 9.0 -1.85 7.75 L-2.5 6.15 -2.85 5.45 -3.1 5.2 -3.3 5.05 -3.15 3.05 -3.15 1.65 Q-3.25 0.9 -3.65 0.5 -2.6 1.35 -2.0 3.75 L-1.1 6.45 -0.8 7.0 -0.1 7.9 1.6 9.95 1.85 10.35 2.15 11.05 M-4.45 6.35 L-4.9 6.55 -4.8 6.2 -4.65 6.0 -4.6 5.8 -4.6 5.35 -4.6 5.15 -4.6 5.05 -4.6 5.0 -4.8 4.45 -4.9 4.35 -5.05 4.0 -5.5 2.5 -5.5 2.45 -5.75 0.8 -5.6 -0.45 -5.35 -0.45 -5.3 -0.15 -4.9 1.55 Q-4.4 3.1 -4.4 4.9 L-4.4 5.8 -4.45 6.35" fill="#aaaaaa" fill-rule="evenodd" stroke="none"/>
      <path d="M-8.35 1.0 L-8.3 0.45 Q-8.3 -0.05 -8.85 -0.9 L-9.1 -1.35 -8.9 -1.8 Q-7.65 -2.05 -6.4 -2.8 L-6.35 -2.5 -6.5 -1.8 -6.5 -1.1 Q-6.3 -0.6 -5.6 -0.45 L-5.75 0.8 -5.5 2.45 -5.5 2.5 -5.05 4.0 -4.9 4.35 -5.95 3.55 -6.75 2.7 -7.2 2.25 -7.0 2.05 Q-7.45 1.2 -8.35 1.0" fill="#e2b181" fill-rule="evenodd" stroke="none"/>
      <path d="M7.05 -3.25 L7.45 -3.3 Q8.25 -3.3 8.25 -2.9 L8.25 -2.7 8.1 -2.35 Q7.8 -1.75 7.05 -1.95 L6.75 -2.4 5.3 -2.3 5.25 -2.5 Q5.15 -3.25 5.65 -3.3 L7.05 -3.25" fill="#ffffff" fill-rule="evenodd" stroke="none"/>
    </g>
  </defs>
</svg>
