<?xml version="1.0" encoding="UTF-8" standalone="no"?>
<svg xmlns:ffdec="https://www.free-decompiler.com/flash" xmlns:xlink="http://www.w3.org/1999/xlink" ffdec:objectType="frame" height="14.8px" width="20.6px" xmlns="http://www.w3.org/2000/svg">
  <g transform="matrix(1.0, 0.0, 0.0, 1.0, 10.7, 7.8)">
    <use ffdec:characterId="1772" height="14.8" transform="matrix(1.0, 0.0, 0.0, 1.0, -10.7, -7.8)" width="20.6" xlink:href="#shape0"/>
  </g>
  <defs>
    <g id="shape0" transform="matrix(1.0, 0.0, 0.0, 1.0, 10.7, 7.8)">
      <path d="M-3.0 -6.35 L-1.0 -6.5 Q0.5 -6.5 2.0 -5.8 L2.05 -5.0 1.4 -5.95 0.85 -5.5 1.6 -2.7 0.25 -4.3 -2.1 -5.15 -6.35 -4.65 -6.55 -4.15 -7.15 -5.15 -7.9 -5.3 -7.75 -2.65 -7.3 -3.05 -7.85 -1.5 -9.15 -1.7 -10.4 -2.9 -9.25 -3.4 -8.3 -6.5 -4.5 -6.25 -3.4 -5.65 -3.0 -6.35 M2.95 -2.7 L3.85 -2.45 6.6 -1.4 6.4 -1.0 6.75 0.0 7.55 -0.4 7.85 0.05 6.95 0.8 6.65 1.6 5.4 1.7 4.85 1.65 3.95 1.35 3.2 -0.05 3.45 -0.4 3.85 0.15 4.75 0.3 4.95 0.0 4.7 -0.75 4.55 -1.05 3.55 -1.0 2.75 -1.85 2.95 -2.7 M4.45 6.7 L4.3 6.7 Q3.65 6.65 3.2 5.95 L2.85 5.4 2.8 5.2 3.05 4.05 4.1 5.25 4.3 5.55 4.75 6.6 4.45 6.7 M0.05 7.0 L-0.9 6.8 -1.7 6.4 -2.45 5.4 -2.1 4.3 -2.8 3.8 -2.8 2.95 -1.95 2.95 0.05 7.0 M-3.0 6.3 L-3.8 6.75 -4.25 5.9 -3.0 6.3 M-4.8 5.6 L-5.3 5.95 -6.1 5.3 -6.45 3.7 -7.85 2.4 Q-7.85 2.05 -8.0 1.8 L-8.4 1.55 -7.75 1.45 -7.85 0.45 -6.95 1.45 -4.8 5.6 M-2.9 -3.45 L-0.5 -2.9 -1.5 -1.5 -2.3 -1.35 -3.0 -2.75 -2.9 -3.45" fill="#990000" fill-rule="evenodd" stroke="none"/>
      <path d="M8.7 -0.25 L9.9 0.45 9.75 0.85 7.8 1.65 8.2 2.25 8.9 2.3 8.5 4.2 8.3 5.8 7.5 6.55 6.85 6.6 5.0 6.1 Q5.55 4.85 4.8 3.5 L4.3 2.65 2.9 3.35 3.05 4.05 2.3 4.65 0.8 5.75 Q1.0 4.25 0.25 3.1 -0.55 1.75 -1.85 1.3 L-3.3 2.2 -3.2 2.7 -2.8 2.95 -2.8 3.8 -3.6 3.15 Q-3.8 3.0 -4.05 3.0 L-4.2 3.9 -3.55 5.4 -2.9 5.65 -2.45 5.4 -1.7 6.4 -3.0 6.3 -4.25 5.9 -4.8 5.6 -6.95 1.45 -6.45 1.7 -6.65 0.8 Q-6.75 -0.1 -7.35 -1.05 L-7.25 -1.4 -7.25 -3.1 -6.55 -4.15 -6.35 -4.65 -2.1 -5.15 -3.05 -4.9 -2.95 -3.8 -3.4 -3.55 -5.0 -3.65 -3.0 -2.75 -2.3 -1.35 -1.5 -1.5 -0.5 -2.9 -0.1 -3.05 0.35 -3.65 0.25 -4.3 1.6 -2.7 1.1 0.2 1.75 0.85 2.55 0.75 3.2 -0.05 3.95 1.35 4.85 1.65 5.4 1.7 6.65 1.6 6.95 0.8 7.85 0.05 8.6 -0.2 8.7 -0.25" fill="#ffcc99" fill-rule="evenodd" stroke="none"/>
      <path d="M2.05 -5.0 L2.95 -2.7 2.75 -1.85 3.55 -1.0 3.45 -0.4 3.2 -0.05 2.55 0.75 1.75 0.85 1.1 0.2 1.6 -2.7 0.85 -5.5 1.4 -5.95 2.05 -5.0 M0.55 6.7 L0.05 7.0 -1.95 2.95 -2.8 2.95 -3.2 2.7 -3.3 2.2 -1.85 1.3 Q-0.55 1.75 0.25 3.1 1.0 4.25 0.8 5.75 L0.55 6.7 M-8.4 1.55 L-10.25 -1.1 -10.7 -2.0 -10.4 -2.9 -9.15 -1.7 -7.85 -1.5 -7.35 -1.05 Q-6.75 -0.1 -6.65 0.8 L-6.45 1.7 -6.95 1.45 -7.85 0.45 -7.75 1.45 -8.4 1.55 M-8.3 -6.5 L-8.35 -7.1 -8.05 -7.65 Q-5.9 -8.15 -3.95 -7.0 L-3.0 -6.35 -3.4 -5.65 -4.5 -6.25 -8.3 -6.5 M0.25 -4.3 L0.35 -3.65 -0.1 -3.05 -0.5 -2.9 -2.9 -3.45 -2.95 -3.8 -3.05 -4.9 -2.1 -5.15 0.25 -4.3 M-6.55 -4.15 L-7.25 -3.1 -7.3 -3.05 -7.75 -2.65 -7.9 -5.3 -7.15 -5.15 -6.55 -4.15 M-2.45 5.4 L-2.9 5.65 -3.55 5.4 -4.2 3.9 -4.05 3.0 Q-3.8 3.0 -3.6 3.15 L-2.8 3.8 -2.1 4.3 -2.45 5.4 M3.05 4.05 L2.9 3.35 4.3 2.65 4.8 3.5 Q5.55 4.85 5.0 6.1 L4.75 6.55 4.3 5.55 4.1 5.25 3.05 4.05" fill="#ff0000" fill-rule="evenodd" stroke="none"/>
      <path d="M8.6 -0.3 L8.7 -0.25 8.6 -0.2 8.6 -0.3 M9.75 0.85 L9.7 0.95 9.5 1.5 8.9 2.3 8.2 2.25 7.8 1.65 9.75 0.85 M1.4 6.75 L0.55 6.7 0.8 5.75 2.3 4.65 3.05 4.05 2.8 5.2 2.85 5.4 1.4 6.75 M-2.95 -3.8 L-2.9 -3.45 -3.0 -2.75 -5.0 -3.65 -3.4 -3.55 -2.95 -3.8" fill="#ebbb98" fill-rule="evenodd" stroke="none"/>
      <path d="M6.6 -1.4 L8.0 -1.35 8.55 -0.75 8.6 -0.3 8.6 -0.2 7.85 0.05 7.55 -0.4 6.75 0.0 6.4 -1.0 6.6 -1.4 M3.45 -0.4 L3.55 -1.0 4.55 -1.05 4.7 -0.75 4.95 0.0 4.75 0.3 3.85 0.15 3.45 -0.4" fill="#ffffff" fill-rule="evenodd" stroke="none"/>
      <path d="M6.85 6.6 L4.45 6.7 4.75 6.6 4.3 5.55 4.75 6.55 5.0 6.1 6.85 6.6 M4.3 6.7 L1.4 6.75 2.85 5.4 3.2 5.95 Q3.65 6.65 4.3 6.7" fill="#e2b181" fill-rule="evenodd" stroke="none"/>
      <path d="M-7.25 -3.1 L-7.25 -1.4 -7.35 -1.05 -7.85 -1.5 -7.3 -3.05 -7.25 -3.1" fill="#c79b68" fill-rule="evenodd" stroke="none"/>
    </g>
  </defs>
</svg>
