<?xml version="1.0" encoding="UTF-8" standalone="no"?>
<svg xmlns:ffdec="https://www.free-decompiler.com/flash" xmlns:xlink="http://www.w3.org/1999/xlink" ffdec:objectType="frame" height="148.55px" width="45.65px" xmlns="http://www.w3.org/2000/svg">
  <g transform="matrix(1.0, 0.0, 0.0, 1.0, 25.2, 68.65)">
    <use ffdec:characterId="1206" height="49.75" id="arm2" transform="matrix(1.0, 0.0, 0.0, 1.0, -5.55, -16.95)" width="9.95" xlink:href="#sprite0"/>
    <use ffdec:characterId="1216" height="62.95" id="leg2" transform="matrix(1.0, 0.0, 0.0, 1.0, -7.2, 16.95)" width="19.5" xlink:href="#sprite5"/>
    <use ffdec:characterId="1232" height="59.45" id="headOuter" transform="matrix(1.0, 0.0, 0.0, 1.0, -22.85, -68.65)" width="43.3" xlink:href="#sprite9"/>
    <use ffdec:characterId="1247" ffdec:characterName="game_fla.chest_825" height="56.5" id="chest" transform="matrix(1.0, 0.0, 0.0, 1.0, -25.2, -34.25)" width="42.8" xlink:href="#sprite14"/>
    <use ffdec:characterId="1258" ffdec:characterName="game_fla.pelvis_832" height="29.25" id="pelvis" transform="matrix(0.999, -7.0E-4, 7.0E-4, 0.999, -16.0966, 6.6801)" width="33.7" xlink:href="#sprite16"/>
    <use ffdec:characterId="1268" height="62.75" id="leg1" transform="matrix(1.0, 0.0, 0.0, 1.0, -7.65, 17.15)" width="19.65" xlink:href="#sprite17"/>
    <use ffdec:characterId="1278" height="51.5" id="arm1" transform="matrix(1.0, 0.0, 0.0, 1.0, -6.2, -17.75)" width="10.75" xlink:href="#sprite21"/>
  </g>
  <defs>
    <g id="sprite0" transform="matrix(1.0, 0.0, 0.0, 1.0, 4.7, 5.4)">
      <use ffdec:characterId="1201" ffdec:characterName="game_fla.upperarm2_810" height="31.55" id="upperArm2" transform="matrix(1.0, 0.0, 0.0, 1.0, -4.7, -5.4)" width="9.75" xlink:href="#sprite1"/>
      <use ffdec:characterId="1205" height="28.3" id="lowerArmOuter2" transform="matrix(1.0, 0.0, 0.0, 1.0, -3.55, 16.05)" width="8.8" xlink:href="#sprite3"/>
    </g>
    <g id="sprite1" transform="matrix(1.0, 0.0, 0.0, 1.0, 4.95, 15.85)">
      <use ffdec:characterId="1197" height="30.35" transform="matrix(1.0, 0.0, 0.0, 1.0, -4.55, -14.85)" width="8.7" xlink:href="#shape0"/>
      <use ffdec:characterId="1081" height="100.0" id="shape" transform="matrix(0.09, 0.0, 0.0, 0.3, -4.4998, -14.9986)" width="100.0" xlink:href="#sprite2"/>
    </g>
    <g id="shape0" transform="matrix(1.0, 0.0, 0.0, 1.0, 4.55, 14.85)">
      <path d="M3.35 -13.45 L4.0 -11.4 4.05 -10.85 4.15 -7.9 3.75 6.45 4.0 11.65 3.65 13.5 2.5 14.85 -1.85 15.0 Q-3.05 13.8 -3.2 12.05 L-3.3 9.7 -3.2 7.7 -3.4 4.85 -3.4 4.65 -3.4 4.55 -3.6 2.8 -3.6 2.5 -3.7 1.8 -3.7 1.1 -3.7 0.6 -4.55 -9.05 -4.35 -10.95 Q-4.15 -12.05 -3.6 -12.9 -1.85 -15.6 2.4 -14.55 3.05 -14.2 3.35 -13.45 M-1.3 0.2 L-1.2 0.15 -1.35 0.2 -1.3 0.2" fill="#ffcc99" fill-rule="evenodd" stroke="none"/>
    </g>
    <g id="sprite2" transform="matrix(1.0, 0.0, 0.0, 1.0, 50.0, 50.0)">
      <use ffdec:characterId="1080" height="100.0" transform="matrix(1.0, 0.0, 0.0, 1.0, -50.0, -50.0)" width="100.0" xlink:href="#shape1"/>
    </g>
    <g id="shape1" transform="matrix(1.0, 0.0, 0.0, 1.0, 50.0, 50.0)">
      <path d="M50.0 50.0 L-50.0 50.0 -50.0 -50.0 50.0 -50.0 50.0 50.0 Z" fill="none" stroke="#9900ff" stroke-linecap="round" stroke-linejoin="round" stroke-width="0.05"/>
    </g>
    <g id="sprite3" transform="matrix(1.0, 0.0, 0.0, 1.0, 4.1, 5.75)">
      <use ffdec:characterId="1204" ffdec:characterName="game_fla.lowerarm2_812" height="28.3" id="lowerArm2" transform="matrix(1.0, 0.0, 0.0, 1.0, -4.1, -5.75)" width="8.8" xlink:href="#sprite4"/>
    </g>
    <g id="sprite4" transform="matrix(1.0, 0.0, 0.0, 1.0, 4.3, 15.2)">
      <use ffdec:characterId="1202" height="26.15" transform="matrix(1.0, 0.0, 0.0, 1.0, -4.3, -13.05)" width="8.4" xlink:href="#shape2"/>
      <use ffdec:characterId="1081" height="100.0" id="shape" transform="matrix(0.07, 0.0, 0.0, 0.25, -3.4996, -12.5)" width="100.0" xlink:href="#sprite2"/>
    </g>
    <g id="shape2" transform="matrix(1.0, 0.0, 0.0, 1.0, 4.3, 13.05)">
      <path d="M-2.15 8.9 L-1.95 8.3 -1.8 7.8 Q-1.7 6.45 -1.35 5.85 L-1.55 4.05 Q-1.55 2.45 -2.1 0.05 L-3.05 -4.1 -3.85 -7.3 Q-4.3 -8.85 -3.7 -10.05 -2.75 -12.3 0.0 -13.05 L2.45 -12.2 Q4.05 -11.55 3.9 -6.45 L3.1 6.0 3.8 7.15 Q4.2 8.25 4.05 9.75 L4.0 10.15 Q4.0 10.55 3.6 10.8 L2.65 11.0 2.25 11.65 1.45 12.6 1.1 12.85 1.05 12.85 0.8 12.9 -0.6 13.1 -1.05 12.95 Q-0.75 12.6 -0.3 12.6 L0.6 12.55 0.7 12.4 0.8 12.4 1.85 11.2 0.15 10.75 0.25 10.25 Q0.4 10.0 1.1 9.85 L1.35 9.85 1.8 9.55 1.75 9.0 Q1.7 8.6 1.8 8.25 2.0 7.8 2.45 7.5 L2.05 7.05 Q1.8 6.8 1.5 6.7 L1.3 6.7 0.95 6.65 Q0.3 6.65 -0.3 7.1 -0.95 7.6 -1.2 8.2 L-1.9 8.75 -2.15 8.9 M-2.5 -7.5 L-2.5 -7.45 -2.4 -7.45 -2.5 -7.5 M-0.05 5.85 L0.7 5.85 Q0.25 5.35 0.15 4.3 L0.1 2.4 Q0.05 1.5 -0.75 0.4 L-1.15 -0.2 -0.7 2.4 Q-0.4 4.5 -0.8 5.9 L-0.05 5.85" fill="#ffcc99" fill-rule="evenodd" stroke="none"/>
      <path d="M0.95 6.65 L1.3 6.7 1.5 6.7 Q1.8 6.8 2.05 7.05 L2.45 7.5 Q2.0 7.8 1.8 8.25 1.7 8.6 1.75 9.0 L1.8 9.55 1.35 9.85 1.25 9.65 0.85 8.8 Q0.35 7.9 0.5 7.65 L0.8 6.9 0.95 6.65" fill="#e2b181" fill-rule="evenodd" stroke="none"/>
      <path d="M-2.15 8.9 L-1.9 8.75 -1.2 8.2 Q-0.95 7.6 -0.3 7.1 0.3 6.65 0.95 6.65 L0.8 6.9 0.5 7.65 Q0.35 7.9 0.85 8.8 L1.25 9.65 1.35 9.85 1.1 9.85 Q0.4 10.0 0.25 10.25 L0.15 10.75 1.85 11.2 0.8 12.4 0.7 12.4 0.6 12.55 -0.3 12.6 Q-0.75 12.6 -1.05 12.95 L-1.8 12.7 -1.95 12.3 -2.05 12.35 -2.5 12.4 Q-3.3 12.3 -3.45 11.7 L-4.3 11.45 -4.05 10.8 -3.45 10.5 -2.25 9.2 -2.15 8.9 M-2.5 -7.5 L-2.4 -7.45 -2.5 -7.45 -2.5 -7.5 M-0.05 5.85 L-0.8 5.9 Q-0.4 4.5 -0.7 2.4 L-1.15 -0.2 -0.75 0.4 Q0.05 1.5 0.1 2.4 L0.15 4.3 Q0.25 5.35 0.7 5.85 L-0.05 5.85" fill="#ebbb98" fill-rule="evenodd" stroke="none"/>
    </g>
    <g id="sprite5" transform="matrix(1.0, 0.0, 0.0, 1.0, 7.5, 10.5)">
      <use ffdec:characterId="1211" ffdec:characterName="game_fla.upperleg2_814" height="37.6" id="upperLeg2" transform="matrix(1.0, 0.0, 0.0, 1.0, -7.5, -10.5)" width="14.25" xlink:href="#sprite6"/>
      <use ffdec:characterId="1215" height="32.5" id="lowerLegOuter2" transform="matrix(1.0, 0.0, 0.0, 1.0, -6.2, 19.95)" width="18.2" xlink:href="#sprite7"/>
    </g>
    <g id="sprite6" transform="matrix(1.0, 0.0, 0.0, 1.0, 7.5, 20.0)">
      <use ffdec:characterId="1207" height="35.25" transform="matrix(1.0, 0.0, 0.0, 1.0, -7.05, -18.0)" width="13.65" xlink:href="#shape3"/>
      <use ffdec:characterId="1081" height="100.0" id="shape" transform="matrix(0.13, 0.0, 0.0, 0.35, -6.4995, -17.4995)" width="100.0" xlink:href="#sprite2"/>
    </g>
    <g id="shape3" transform="matrix(1.0, 0.0, 0.0, 1.0, 7.05, 18.0)">
      <path d="M6.35 -2.05 L5.8 9.95 5.7 10.3 4.7 13.3 Q4.7 13.75 2.8 15.55 0.85 17.3 -1.05 17.25 -3.0 17.15 -4.55 15.1 L-5.7 13.25 -5.7 13.2 -6.0 11.35 -6.05 11.25 Q-6.45 7.5 -6.15 2.6 -6.05 0.65 -6.25 -2.35 L-6.5 -4.55 -7.05 -11.85 Q-7.05 -14.9 -4.9 -16.6 -2.95 -18.2 -0.2 -18.0 2.6 -17.8 4.45 -15.85 6.6 -13.65 6.6 -10.05 L5.85 -6.55 6.35 -2.05 M-3.05 -5.55 L-3.1 -5.6 -3.1 -5.5 -3.05 -5.55" fill="#e2b181" fill-rule="evenodd" stroke="none"/>
    </g>
    <g id="sprite7" transform="matrix(1.0, 0.0, 0.0, 1.0, 5.85, 2.65)">
      <use ffdec:characterId="1214" ffdec:characterName="game_fla.lowerleg2_816" height="32.5" id="lowerLeg2" transform="matrix(1.0, 0.0, 0.0, 1.0, -5.85, -2.65)" width="18.2" xlink:href="#sprite8"/>
    </g>
    <g id="sprite8" transform="matrix(1.0, 0.0, 0.0, 1.0, 5.5, 17.45)">
      <use ffdec:characterId="1212" height="32.5" transform="matrix(1.0, 0.0, 0.0, 1.0, -5.4, -17.45)" width="18.1" xlink:href="#shape4"/>
      <use ffdec:characterId="1081" height="100.0" id="shape" transform="matrix(0.11, 0.0, 0.0, 0.3, -5.5, -15.0009)" width="100.0" xlink:href="#sprite2"/>
    </g>
    <g id="shape4" transform="matrix(1.0, 0.0, 0.0, 1.0, 5.4, 17.45)">
      <path d="M-5.1 13.45 L-5.35 12.2 -5.4 11.85 Q-5.45 9.7 -4.85 7.75 L-4.5 6.8 -4.55 6.8 -4.55 5.65 -4.9 -0.2 -5.4 -6.0 -5.15 -11.35 Q-4.8 -14.25 -3.5 -15.6 -2.2 -17.0 -0.05 -17.35 2.05 -17.7 3.25 -16.8 4.45 -15.9 5.1 -13.15 L4.95 -8.05 4.65 0.3 Q4.4 4.4 4.7 6.95 L5.3 7.65 Q6.85 9.5 8.6 10.0 10.1 10.4 11.1 11.3 L11.55 11.2 12.1 11.3 12.2 11.35 Q12.25 12.3 10.85 13.25 9.45 14.25 8.7 14.25 L4.55 13.75 3.55 13.8 0.85 14.0 -1.65 14.25 -4.55 13.7 -5.1 13.45 M-0.55 -16.0 L-0.3 -16.3 -0.35 -16.3 -0.55 -16.0 M-0.85 8.65 L0.55 10.1 1.9 9.05 2.0 8.95 3.25 7.35 3.25 6.6 1.7 7.5 1.45 7.65 0.1 8.0 Q-0.8 8.0 -1.3 7.5 L-1.75 7.05 -0.85 8.65" fill="#e2b181" fill-rule="evenodd" stroke="none"/>
      <path d="M12.2 11.35 Q12.65 11.6 12.7 12.3 L12.4 13.25 12.3 13.4 12.15 13.7 12.15 13.75 Q10.55 15.1 8.2 15.0 L3.9 14.8 2.7 14.85 -2.25 15.05 Q-4.5 15.1 -5.1 13.45 L-4.55 13.7 -1.65 14.25 0.85 14.0 3.55 13.8 4.55 13.75 8.7 14.25 Q9.45 14.25 10.85 13.25 12.25 12.3 12.2 11.35 M-0.85 8.65 L-1.75 7.05 -1.3 7.5 Q-0.8 8.0 0.1 8.0 L1.45 7.65 1.7 7.5 3.25 6.6 3.25 7.35 2.0 8.95 1.9 9.05 0.55 10.1 -0.85 8.65" fill="#d5a675" fill-rule="evenodd" stroke="none"/>
    </g>
    <g id="sprite9" transform="matrix(1.0, 0.0, 0.0, 1.0, 21.55, 62.15)">
      <use ffdec:characterId="1231" ffdec:characterName="game_fla.head_818" height="59.45" id="head" transform="matrix(1.0, 0.0, 0.0, 1.0, -21.55, -62.15)" width="43.3" xlink:href="#sprite10"/>
    </g>
    <g id="sprite10" transform="matrix(1.0, 0.0, 0.0, 1.0, 26.0, 38.55)">
      <use ffdec:characterId="1218" height="13.7" transform="matrix(1.0, 0.0, 0.0, 1.0, -7.65, 7.2)" width="10.35" xlink:href="#sprite11"/>
      <use ffdec:characterId="1220" height="25.05" transform="matrix(1.0, 0.0, 0.0, 1.0, -11.35, -12.9)" width="22.6" xlink:href="#sprite12"/>
      <use ffdec:characterId="1111" height="100.0" id="shape" transform="matrix(0.25, 0.0, 0.0, 0.25, -12.5, -12.5)" width="100.0" xlink:href="#sprite13"/>
    </g>
    <g id="sprite11" transform="matrix(1.0, 0.0, 0.0, 1.0, 3.35, 7.95)">
      <use ffdec:characterId="1217" height="13.7" transform="matrix(1.0, 0.0, 0.0, 1.0, -3.35, -7.95)" width="10.35" xlink:href="#shape5"/>
    </g>
    <g id="shape5" transform="matrix(1.0, 0.0, 0.0, 1.0, 3.35, 7.95)">
      <path d="M-0.3 -7.45 L1.4 -5.2 1.65 -5.05 1.5 -5.05 Q3.1 -3.1 4.45 -2.15 L5.35 -1.6 5.25 4.35 5.25 5.75 4.8 4.3 -3.35 2.65 Q-2.25 -0.1 -2.15 -2.95 -2.2 -4.6 -2.5 -5.85 L-2.65 -6.4 -3.05 -7.2 Q-2.3 -7.55 -1.6 -7.95 L-0.3 -7.45" fill="#ffcc99" fill-rule="evenodd" stroke="none"/>
      <path d="M5.35 -1.6 L4.45 -2.15 Q3.1 -3.1 1.5 -5.05 L1.65 -5.05 1.4 -5.2 -0.3 -7.45 7.0 -4.85 5.85 -3.1 5.45 -1.85 5.35 -1.6" fill="#e2b181" fill-rule="evenodd" stroke="none"/>
    </g>
    <g id="sprite12" transform="matrix(1.0, 0.0, 0.0, 1.0, 11.9, 13.85)">
      <use ffdec:characterId="1219" height="25.05" transform="matrix(1.0, 0.0, 0.0, 1.0, -11.9, -13.85)" width="22.6" xlink:href="#shape6"/>
    </g>
    <g id="shape6" transform="matrix(1.0, 0.0, 0.0, 1.0, 11.9, 13.85)">
      <path d="M9.65 -9.5 L8.95 -9.5 6.3 -9.2 Q5.15 -9.15 4.0 -9.85 L1.8 -11.1 0.65 -11.1 Q0.65 -10.1 0.3 -9.7 L-0.35 -10.35 Q-2.15 -8.45 -2.6 -7.45 L-2.7 -7.6 -2.85 -10.35 -4.6 -8.6 Q-5.75 -7.35 -6.35 -5.95 L-6.35 -7.95 Q-8.4 -5.8 -8.2 -3.6 L-8.35 -4.85 -7.85 -7.25 -7.35 -9.2 Q-8.65 -8.55 -9.4 -5.6 -10.1 -2.65 -9.6 -0.1 -10.35 -0.5 -10.35 -2.7 L-10.7 0.3 -11.55 -1.3 -11.8 -1.9 -11.9 -4.7 Q-11.95 -9.15 -8.75 -11.45 -5.55 -13.75 -0.95 -13.85 3.65 -13.9 6.4 -12.2 8.75 -10.75 9.65 -9.5 M3.65 -0.9 L3.4 -0.85 3.1 -0.9 3.0 -1.15 Q3.0 -1.7 5.6 -2.75 L8.15 -2.7 Q8.15 -2.1 7.55 -2.0 L7.4 -1.95 5.6 -1.75 3.65 -0.9" fill="#f5de71" fill-rule="evenodd" stroke="none"/>
      <path d="M-11.8 -1.9 L-11.55 -1.3 -10.7 0.3 -10.35 -2.7 Q-10.35 -0.5 -9.6 -0.1 -10.1 -2.65 -9.4 -5.6 -8.65 -8.55 -7.35 -9.2 L-7.85 -7.25 -8.35 -4.85 -8.2 -3.6 Q-8.4 -5.8 -6.35 -7.95 L-6.35 -5.95 Q-5.75 -7.35 -4.6 -8.6 L-2.85 -10.35 -2.7 -7.6 -2.6 -7.45 Q-2.15 -8.45 -0.35 -10.35 L0.3 -9.7 Q0.65 -10.1 0.65 -11.1 L1.8 -11.1 4.0 -9.85 Q5.15 -9.15 6.3 -9.2 L8.95 -9.5 9.65 -9.5 9.9 -9.05 9.8 -8.85 9.55 -8.4 8.95 -8.5 3.3 -8.5 1.2 -8.35 0.65 -6.15 0.3 -4.1 -0.05 -2.3 -0.4 -0.1 Q-0.6 1.85 -1.45 2.4 L-1.6 2.45 -2.3 2.35 -2.4 2.05 -2.1 -0.1 Q-2.1 -2.05 -3.6 -3.4 L-3.65 -3.4 -4.0 -3.25 Q-5.55 -3.25 -6.0 -1.9 L-6.2 -1.25 -6.15 -1.05 -6.2 -0.6 -6.0 0.55 Q-5.8 1.7 -5.35 2.15 -5.25 2.9 -5.85 4.05 L-5.9 6.15 -6.15 7.25 -6.45 7.35 Q-7.2 7.55 -7.5 7.8 -7.85 6.85 -8.85 6.35 -9.85 5.8 -10.45 4.1 L-11.2 2.15 -11.2 2.1 Q-11.65 0.5 -11.8 -1.9" fill="#d7ba62" fill-rule="evenodd" stroke="none"/>
      <path d="M-6.45 7.35 L-6.15 7.25 -5.9 6.15 -5.85 4.05 Q-5.25 2.9 -5.35 2.15 -5.8 1.7 -6.0 0.55 L-6.2 -0.6 -6.15 -1.05 -6.2 -1.25 -6.0 -1.9 Q-5.55 -3.25 -4.0 -3.25 L-3.65 -3.4 -3.6 -3.4 Q-2.1 -2.05 -2.1 -0.1 L-2.4 2.05 -2.3 2.35 -1.6 2.45 -1.45 2.4 Q-0.6 1.85 -0.4 -0.1 L-0.05 -2.3 0.3 -4.1 0.65 -6.15 1.2 -8.35 3.3 -8.5 8.95 -8.5 9.55 -8.4 9.8 -8.85 10.1 -8.4 Q10.65 -7.3 10.7 -6.1 10.8 -3.2 9.8 -1.85 8.8 -0.55 8.8 0.25 8.8 0.7 9.7 1.85 L10.55 3.45 10.15 4.35 9.4 4.5 Q8.85 4.65 8.85 5.4 L8.8 6.45 Q8.2 7.35 8.05 8.35 L7.95 9.2 Q7.95 9.9 6.85 10.5 5.5 11.2 3.3 11.2 L1.0 11.1 -1.3 10.25 Q-2.85 9.65 -3.2 9.15 L-6.45 7.35 M7.4 -1.95 L7.55 -2.0 Q8.15 -2.1 8.15 -2.7 L5.6 -2.75 Q3.0 -1.7 3.0 -1.15 L3.1 -0.9 3.4 -0.85 3.65 -0.9 3.6 -0.55 Q3.6 0.85 5.65 0.85 7.1 0.85 7.7 0.1 8.05 -0.35 8.05 -0.9 8.05 -1.7 7.4 -1.95 M-4.0 1.25 L-3.6 1.4 Q-3.15 1.4 -3.15 1.0 L-3.4 0.6 -4.15 0.55 -4.15 1.05 -4.0 1.25 M-4.8 -1.0 L-4.7 -1.35 -3.8 -1.35 -3.75 -1.05 -4.15 -0.6 Q-4.55 -0.35 -4.55 0.05 L-4.5 0.3 Q-4.4 0.5 -4.1 0.5 -3.6 0.5 -3.0 -0.95 -3.0 -1.85 -3.45 -2.2 L-4.75 -2.05 -5.2 -1.5 -4.95 -0.95 -4.8 -1.0" fill="#ffcc99" fill-rule="evenodd" stroke="none"/>
      <path d="M7.4 -1.95 Q8.05 -1.7 8.05 -0.9 8.05 -0.35 7.7 0.1 7.1 0.85 5.65 0.85 3.6 0.85 3.6 -0.55 L3.65 -0.9 5.6 -1.75 7.4 -1.95 M6.7 -1.1 L5.45 -1.0 Q4.9 -0.5 4.9 -0.1 L5.3 0.1 5.65 0.2 6.05 0.15 6.15 -0.6 6.1 -0.75 6.05 -0.75 6.7 -1.1 M-4.8 -1.0 L-4.95 -0.95 -5.2 -1.5 -4.75 -2.05 -3.45 -2.2 Q-3.0 -1.85 -3.0 -0.95 -3.6 0.5 -4.1 0.5 -4.4 0.5 -4.5 0.3 L-4.55 0.05 Q-4.55 -0.35 -4.15 -0.6 L-3.75 -1.05 -3.8 -1.35 -4.7 -1.35 -4.8 -1.0 M-4.0 1.25 L-4.15 1.05 -4.15 0.55 -3.4 0.6 -3.15 1.0 Q-3.15 1.4 -3.6 1.4 L-4.0 1.25" fill="#c79b68" fill-rule="evenodd" stroke="none"/>
      <path d="M6.7 -1.1 L6.05 -0.75 6.1 -0.75 6.15 -0.6 6.05 0.15 5.65 0.2 5.3 0.1 4.9 -0.1 Q4.9 -0.5 5.45 -1.0 L6.7 -1.1" fill="#000000" fill-rule="evenodd" stroke="none"/>
    </g>
    <g id="sprite13" transform="matrix(1.0, 0.0, 0.0, 1.0, 50.0, 50.0)">
      <use ffdec:characterId="1110" height="100.0" transform="matrix(1.0, 0.0, 0.0, 1.0, -50.0, -50.0)" width="100.0" xlink:href="#shape7"/>
    </g>
    <g id="shape7" transform="matrix(1.0, 0.0, 0.0, 1.0, 50.0, 50.0)">
      <path d="M35.35 -35.35 Q50.0 -20.7 50.0 0.0 50.0 20.7 35.35 35.35 20.7 50.0 0.0 50.0 -20.7 50.0 -35.35 35.35 -50.0 20.7 -50.0 0.0 -50.0 -20.7 -35.35 -35.35 -20.7 -50.0 0.0 -50.0 20.7 -50.0 35.35 -35.35 Z" fill="none" stroke="#9900ff" stroke-linecap="round" stroke-linejoin="round" stroke-width="0.05"/>
    </g>
    <g id="sprite14" transform="matrix(1.0, 0.0, 0.0, 1.0, 25.2, 34.75)">
      <use ffdec:characterId="1233" height="36.25" transform="matrix(1.0, 0.0, 0.0, 1.0, -9.25, -18.65)" width="18.5" xlink:href="#shape8"/>
      <use ffdec:characterId="1081" height="100.0" id="shape" transform="matrix(0.18, 0.0, 0.0, 0.36, -8.9996, -18.0)" width="100.0" xlink:href="#sprite2"/>
      <use ffdec:characterId="1138" height="0.0" id="spineRef" transform="matrix(1.0, 0.0, 0.0, 1.0, 2.3, -25.2)" width="0.0" xlink:href="#sprite15"/>
    </g>
    <g id="shape8" transform="matrix(1.0, 0.0, 0.0, 1.0, 9.25, 18.65)">
      <path d="M8.9 -1.2 L8.55 6.85 9.25 11.55 9.15 16.05 8.8 17.6 6.55 17.35 5.55 17.4 5.75 17.0 Q6.25 16.35 6.25 15.5 L5.75 11.5 5.75 9.55 5.85 4.85 5.85 3.25 5.75 3.25 4.85 6.35 4.7 7.05 Q4.0 4.15 4.0 3.25 4.0 1.45 4.5 -1.0 L5.0 -5.0 Q5.0 -10.0 4.0 -12.75 2.6 -16.5 -0.85 -16.5 -5.1 -16.5 -6.5 -9.75 -7.25 -6.15 -7.25 1.85 L-6.85 7.75 Q-6.5 11.75 -6.5 13.75 -6.5 16.0 -6.75 16.75 L-8.25 16.65 -9.1 16.3 -9.25 15.65 -9.25 13.85 Q-9.25 7.95 -8.85 1.4 -8.85 -1.9 -8.5 -4.45 L-8.45 -5.75 -8.4 -6.35 -7.95 -8.35 -7.85 -10.95 -7.75 -12.3 -6.75 -14.5 Q-4.9 -17.5 -0.65 -17.3 3.55 -17.1 5.4 -12.25 7.25 -7.45 8.9 -1.2" fill="#2d6ed0" fill-rule="evenodd" stroke="none"/>
      <path d="M5.55 17.4 L0.85 17.25 -6.75 16.75 Q-6.5 16.0 -6.5 13.75 -6.5 11.75 -6.85 7.75 L-7.25 1.85 Q-7.25 -6.15 -6.5 -9.75 -5.1 -16.5 -0.85 -16.5 2.6 -16.5 4.0 -12.75 5.0 -10.0 5.0 -5.0 L4.5 -1.0 Q4.0 1.45 4.0 3.25 4.0 4.15 4.7 7.05 L4.85 6.35 5.75 3.25 5.85 3.25 5.85 4.85 5.75 9.55 5.75 11.5 6.25 15.5 Q6.25 16.35 5.75 17.0 L5.55 17.4" fill="#1a57b4" fill-rule="evenodd" stroke="none"/>
      <path d="M-7.75 -12.3 Q-7.4 -15.75 -5.2 -17.45 -4.2 -18.25 -3.05 -18.5 L-1.95 -18.65 0.55 -18.25 Q4.05 -17.1 6.35 -13.3 8.95 -8.95 8.95 -2.55 L8.9 -1.2 Q7.25 -7.45 5.4 -12.25 3.55 -17.1 -0.65 -17.3 -4.9 -17.5 -6.75 -14.5 L-7.75 -12.3" fill="#3f81e5" fill-rule="evenodd" stroke="none"/>
    </g>
    <g id="sprite16" transform="matrix(1.0, 0.0, 0.0, 1.0, 15.95, 18.75)">
      <use ffdec:characterId="1248" height="19.05" transform="matrix(1.0, 0.0, 0.0, 1.0, -10.35, -9.45)" width="20.75" xlink:href="#shape9"/>
      <use ffdec:characterId="1081" height="100.0" id="shape" transform="matrix(0.209, 0.0, 0.0, 0.19, -10.45, -9.4994)" width="100.0" xlink:href="#sprite2"/>
    </g>
    <g id="shape9" transform="matrix(1.0, 0.0, 0.0, 1.0, 10.35, 9.45)">
      <path d="M10.35 -0.3 Q10.2 1.15 9.6 2.3 L8.35 4.7 7.7 5.85 7.5 6.15 Q6.45 7.75 4.65 8.55 L4.15 8.8 Q2.55 9.5 0.35 9.6 L-3.45 9.55 -6.0 9.4 -8.3 8.85 Q-10.0 8.4 -10.25 3.65 -10.55 -1.1 -9.9 -4.05 L-9.25 -6.9 -9.25 -7.05 -8.8 -8.15 -7.95 -8.95 Q-7.4 -9.45 -4.6 -9.4 L-4.6 -9.45 2.15 -9.45 Q6.8 -9.4 8.7 -8.3 L9.75 -7.25 9.85 -6.65 9.85 -5.2 Q10.4 -4.15 10.4 -1.85 L10.35 -0.3" fill="#e9e9e9" fill-rule="evenodd" stroke="none"/>
    </g>
    <g id="sprite17" transform="matrix(1.0, 0.0, 0.0, 1.0, 7.05, 8.95)">
      <use ffdec:characterId="1263" ffdec:characterName="game_fla.upperleg1_838" height="37.6" id="upperLeg1" transform="matrix(1.0, 0.0, 0.0, 1.0, -7.05, -8.95)" width="14.25" xlink:href="#sprite18"/>
      <use ffdec:characterId="1267" height="33.6" id="lowerLegOuter1" transform="matrix(1.0, 0.0, 0.0, 1.0, -5.6, 20.2)" width="18.2" xlink:href="#sprite19"/>
    </g>
    <g id="sprite18" transform="matrix(1.0, 0.0, 0.0, 1.0, 7.5, 20.0)">
      <use ffdec:characterId="1259" height="35.25" transform="matrix(1.0, 0.0, 0.0, 1.0, -7.05, -18.0)" width="13.65" xlink:href="#shape10"/>
      <use ffdec:characterId="1081" height="100.0" id="shape" transform="matrix(0.13, 0.0, 0.0, 0.35, -6.4995, -17.4995)" width="100.0" xlink:href="#sprite2"/>
    </g>
    <g id="shape10" transform="matrix(1.0, 0.0, 0.0, 1.0, 7.05, 18.0)">
      <path d="M6.6 -10.05 L5.85 -6.55 6.35 -2.05 5.8 9.95 5.7 10.3 4.7 13.3 Q4.7 13.75 2.8 15.55 0.85 17.3 -1.05 17.25 -3.0 17.15 -4.55 15.1 L-5.7 13.25 -5.7 13.2 -6.0 11.35 -6.05 11.25 Q-6.45 7.5 -6.15 2.6 -6.05 0.65 -6.25 -2.35 L-6.5 -4.55 -7.05 -11.85 Q-7.05 -14.9 -4.9 -16.6 -2.95 -18.2 -0.2 -18.0 2.6 -17.8 4.45 -15.85 6.6 -13.65 6.6 -10.05 M-3.1 -5.6 L-3.1 -5.5 -3.05 -5.55 -3.1 -5.6" fill="#ffcc99" fill-rule="evenodd" stroke="none"/>
    </g>
    <g id="sprite19" transform="matrix(1.0, 0.0, 0.0, 1.0, 5.7, 4.1)">
      <use ffdec:characterId="1266" ffdec:characterName="game_fla.lowerleg1_840" height="33.6" id="lowerLeg1" transform="matrix(1.0, 0.0, 0.0, 1.0, -5.7, -4.1)" width="18.2" xlink:href="#sprite20"/>
    </g>
    <g id="sprite20" transform="matrix(1.0, 0.0, 0.0, 1.0, 5.5, 18.55)">
      <use ffdec:characterId="1264" height="32.5" transform="matrix(1.0, 0.0, 0.0, 1.0, -5.4, -17.45)" width="18.1" xlink:href="#shape11"/>
      <use ffdec:characterId="1081" height="100.0" id="shape" transform="matrix(0.11, 0.0, 0.0, 0.3, -5.5, -15.0017)" width="100.0" xlink:href="#sprite2"/>
    </g>
    <g id="shape11" transform="matrix(1.0, 0.0, 0.0, 1.0, 5.4, 17.45)">
      <path d="M-5.1 13.45 L-5.35 12.2 -5.4 11.85 Q-5.45 9.7 -4.85 7.75 L-4.5 6.8 -4.55 6.8 -4.55 5.65 -4.9 -0.2 -5.4 -6.0 -5.15 -11.35 Q-4.8 -14.25 -3.5 -15.6 -2.2 -17.0 -0.05 -17.35 2.05 -17.7 3.25 -16.8 4.45 -15.9 5.1 -13.15 L4.95 -8.05 4.65 0.3 Q4.4 4.4 4.7 6.95 L5.3 7.65 Q6.85 9.5 8.6 10.0 10.1 10.4 11.1 11.3 L11.55 11.2 12.1 11.3 12.2 11.35 Q12.25 12.3 10.85 13.25 9.45 14.25 8.7 14.25 L4.55 13.75 3.55 13.8 0.85 14.0 -1.65 14.25 -4.55 13.7 -5.1 13.45 M-0.3 -16.3 L-0.35 -16.3 -1.55 -16.0 -0.3 -16.3 M-0.85 8.65 L0.55 10.1 1.9 9.05 2.0 8.95 3.25 7.35 3.25 6.6 1.7 7.5 1.45 7.65 0.1 8.0 Q-0.8 8.0 -1.3 7.5 L-1.75 7.05 -0.85 8.65" fill="#ffcc99" fill-rule="evenodd" stroke="none"/>
      <path d="M-0.85 8.65 L-1.75 7.05 -1.3 7.5 Q-0.8 8.0 0.1 8.0 L1.45 7.65 1.7 7.5 3.25 6.6 3.25 7.35 2.0 8.95 1.9 9.05 0.55 10.1 -0.85 8.65" fill="#ebbb98" fill-rule="evenodd" stroke="none"/>
      <path d="M12.2 11.35 Q12.65 11.6 12.7 12.3 L12.4 13.25 12.3 13.4 12.15 13.7 12.15 13.75 Q10.55 15.1 8.2 15.0 L3.9 14.8 2.7 14.85 -2.25 15.05 Q-4.5 15.1 -5.1 13.45 L-4.55 13.7 -1.65 14.25 0.85 14.0 3.55 13.8 4.55 13.75 8.7 14.25 Q9.45 14.25 10.85 13.25 12.25 12.3 12.2 11.35" fill="#e2b181" fill-rule="evenodd" stroke="none"/>
    </g>
    <g id="sprite21" transform="matrix(1.0, 0.0, 0.0, 1.0, 5.45, 6.7)">
      <use ffdec:characterId="1273" ffdec:characterName="game_fla.upperarm1_842" height="33.25" id="upperArm1" transform="matrix(1.0, 0.0, 0.0, 1.0, -5.45, -6.7)" width="10.75" xlink:href="#sprite22"/>
      <use ffdec:characterId="1277" height="27.15" id="lowerArmOuter1" transform="matrix(1.0, 0.0, 0.0, 1.0, -4.9, 17.65)" width="8.9" xlink:href="#sprite23"/>
    </g>
    <g id="sprite22" transform="matrix(1.0, 0.0, 0.0, 1.0, 5.1, 17.25)">
      <use ffdec:characterId="1269" height="29.55" transform="matrix(1.0, 0.0, 0.0, 1.0, -4.0, -15.05)" width="8.7" xlink:href="#shape12"/>
      <use ffdec:characterId="1081" height="100.0" id="shape" transform="matrix(0.09, 0.0, 0.0, 0.3, -4.4998, -14.9994)" width="100.0" xlink:href="#sprite2"/>
    </g>
    <g id="shape12" transform="matrix(1.0, 0.0, 0.0, 1.0, 4.0, 15.05)">
      <path d="M4.55 -9.0 L4.35 -6.25 4.15 -3.4 Q3.95 -1.95 3.9 0.05 L3.6 3.9 3.3 7.5 3.25 9.85 3.0 12.15 Q2.7 13.8 1.3 14.25 L-1.3 14.4 Q-2.8 13.8 -3.05 12.4 -4.05 10.7 -3.9 6.15 L-3.9 4.25 -3.7 -2.3 Q-3.6 -5.35 -3.85 -7.5 -4.15 -9.7 -3.9 -11.5 -3.7 -13.35 -2.45 -14.3 -1.2 -15.25 1.1 -15.0 3.35 -14.8 4.0 -13.6 4.65 -12.4 4.7 -11.35 L4.55 -9.0" fill="#ffcc99" fill-rule="evenodd" stroke="none"/>
    </g>
    <g id="sprite23" transform="matrix(1.0, 0.0, 0.0, 1.0, 4.3, 4.2)">
      <use ffdec:characterId="1276" ffdec:characterName="game_fla.lowerarm1_844" height="27.15" id="lowerArm1" transform="matrix(1.0, 0.0, 0.0, 1.0, -4.3, -4.2)" width="8.9" xlink:href="#sprite24"/>
    </g>
    <g id="sprite24" transform="matrix(1.0, 0.0, 0.0, 1.0, 4.95, 14.15)">
      <use ffdec:characterId="1274" height="26.15" transform="matrix(1.0, 0.0, 0.0, 1.0, -4.95, -13.15)" width="8.2" xlink:href="#shape13"/>
      <use ffdec:characterId="1081" height="100.0" id="shape" transform="matrix(0.07, 0.0, 0.0, 0.25, -3.4996, -12.5)" width="100.0" xlink:href="#sprite2"/>
    </g>
    <g id="shape13" transform="matrix(1.0, 0.0, 0.0, 1.0, 4.95, 13.15)">
      <path d="M-4.25 -9.95 L-4.0 -10.65 Q-3.35 -12.4 -0.75 -13.15 L1.7 -12.3 Q3.25 -11.65 3.1 -6.55 L2.3 5.9 Q2.7 6.25 2.95 7.05 3.35 8.15 3.25 9.65 L3.15 10.05 2.7 8.8 2.1 10.1 1.9 10.9 1.5 11.55 0.7 12.5 1.25 11.35 Q1.25 10.9 0.95 10.9 0.75 10.9 0.7 11.0 L0.45 11.2 -0.8 10.7 -1.95 10.0 -1.5 8.6 Q-0.95 7.2 -0.95 6.7 L-1.15 6.5 -1.2 6.1 -1.05 5.75 -0.85 5.3 Q-0.75 3.6 -1.9 -1.6 L-3.0 -7.55 -3.15 -7.6 -4.15 -10.05 -4.25 -9.95" fill="#ffcc99" fill-rule="evenodd" stroke="none"/>
      <path d="M1.9 10.9 L2.1 10.1 2.7 8.8 3.15 10.05 2.8 10.7 1.9 10.9" fill="#e2b181" fill-rule="evenodd" stroke="none"/>
      <path d="M-4.25 -9.95 L-4.15 -10.05 -3.15 -7.6 -3.0 -7.55 -1.9 -1.6 Q-0.75 3.6 -0.85 5.3 L-1.05 5.75 -1.2 6.1 -1.15 6.5 -0.95 6.7 Q-0.95 7.2 -1.5 8.6 L-1.95 10.0 -0.8 10.7 0.45 11.2 0.7 11.0 Q0.75 10.9 0.95 10.9 1.25 10.9 1.25 11.35 L0.7 12.5 0.55 12.85 0.35 12.75 0.05 12.8 -1.3 13.0 -2.45 12.6 -2.55 12.15 -2.9 12.1 Q-4.15 12.25 -4.85 11.4 L-4.85 11.35 -4.95 10.9 -4.05 10.4 Q-3.15 9.75 -2.55 8.2 L-2.45 7.7 Q-2.35 6.35 -2.05 5.75 L-2.2 3.95 Q-2.2 2.35 -2.75 -0.05 L-3.65 -4.15 -4.4 -7.4 -4.4 -9.1 -4.25 -9.95" fill="#ebbb98" fill-rule="evenodd" stroke="none"/>
    </g>
  </defs>
</svg>
