<?xml version="1.0" encoding="UTF-8" standalone="no"?>
<svg xmlns:ffdec="https://www.free-decompiler.com/flash" xmlns:xlink="http://www.w3.org/1999/xlink" ffdec:objectType="frame" height="72.65px" width="45.75px" xmlns="http://www.w3.org/2000/svg">
  <g transform="matrix(1.0, 0.0, 0.0, 1.0, 18.3, 36.95)">
    <use ffdec:characterId="1664" height="65.15" transform="matrix(1.0, 0.0, 0.0, 1.0, -18.3, -35.9)" width="36.05" xlink:href="#shape0"/>
  </g>
  <defs>
    <g id="shape0" transform="matrix(1.0, 0.0, 0.0, 1.0, 18.3, 35.9)">
      <path d="M7.55 -27.7 L8.6 -31.15 9.5 -34.0 11.95 -31.2 12.55 -30.25 Q12.4 -28.35 11.9 -26.55 L10.9 -23.1 9.75 -20.4 9.35 -21.0 8.7 -22.2 8.3 -22.95 8.6 -23.5 7.95 -23.4 7.7 -23.85 7.2 -25.5 7.4 -26.4 7.55 -27.55 7.55 -27.7 M13.35 -14.85 Q14.6 -20.1 16.75 -23.25 L16.5 -20.75 16.5 -19.25 16.9 -18.7 Q17.25 -18.25 17.6 -18.35 17.95 -18.5 16.75 -15.4 L15.4 -10.45 14.5 -7.25 14.25 -7.25 Q13.7 -8.3 13.3 -10.3 L12.85 -12.45 13.35 -14.85 M3.65 23.35 L2.95 24.25 1.9 25.0 2.4 23.7 3.2 21.65 3.35 21.3 3.8 20.25 4.0 21.25 Q4.0 22.55 3.65 23.35 M0.5 26.0 L-0.5 26.75 -0.5 25.35 -0.35 24.45 -0.05 24.35 0.5 26.0 M-5.1 24.7 Q-5.55 25.85 -5.45 26.9 L-7.45 23.8 Q-6.55 21.4 -7.4 19.1 L-6.7 19.3 Q-4.65 20.1 -4.95 22.4 L-5.0 22.7 -5.15 24.05 -5.1 24.7 M-6.35 29.15 L-6.5 29.25 -6.7 29.15 -6.35 29.15 M-7.4 28.65 Q-8.35 27.6 -8.45 25.3 L-8.4 23.45 -8.4 23.15 Q-8.15 24.25 -7.4 25.1 L-6.25 26.25 -7.4 28.65 M-0.2 21.95 L-0.1 19.25 1.75 19.25 Q1.7 20.5 1.0 21.25 0.45 21.8 -0.2 21.95" fill="#ffffff" fill-rule="evenodd" stroke="none"/>
      <path d="M7.55 -27.7 L7.55 -27.55 7.4 -26.4 7.2 -25.5 7.7 -23.85 7.95 -23.4 6.0 -23.1 3.9 -26.5 4.75 -26.65 Q5.25 -26.8 5.55 -27.1 6.1 -27.75 7.0 -27.75 L7.55 -27.7 M11.75 -21.65 Q12.2 -20.45 12.0 -19.0 11.9 -18.15 13.35 -14.85 L12.85 -12.45 13.3 -10.3 Q13.7 -8.3 14.25 -7.25 L14.5 -7.25 15.4 -10.45 Q17.0 -6.75 17.0 -5.0 L16.95 -4.0 Q16.4 -5.0 15.6 -5.0 L14.35 -4.6 13.55 -4.25 12.1 -8.4 11.6 -10.65 10.55 -12.6 9.25 -16.0 9.5 -16.25 Q10.5 -16.0 11.25 -15.4 L11.5 -18.25 11.75 -21.65 M8.6 20.8 L7.95 21.75 6.35 21.25 4.75 20.5 5.0 20.0 7.25 20.0 7.5 15.8 Q8.15 15.95 9.45 16.9 L9.95 17.25 9.15 19.65 8.6 20.8 M-0.35 24.45 L-4.5 25.5 Q-5.25 25.5 -5.1 24.7 L-5.15 24.05 -0.6 23.05 -0.3 23.8 -0.35 24.45 M-5.45 26.9 L-6.35 29.15 -6.7 29.15 -7.4 28.65 -6.25 26.25 -7.4 25.1 Q-8.15 24.25 -8.4 23.15 L-8.4 20.4 -10.2 18.9 -7.95 17.85 Q-5.1 18.85 -3.2 21.0 L-2.9 21.4 -4.95 22.4 Q-4.65 20.1 -6.7 19.3 L-7.4 19.1 Q-6.55 21.4 -7.45 23.8 L-5.45 26.9 M-6.05 -32.1 L-6.0 -32.0 -4.35 -33.45 Q-3.2 -34.5 -1.85 -34.5 -0.15 -34.5 0.9 -33.5 L3.0 -31.75 2.8 -30.75 Q1.5 -30.75 0.35 -31.5 -0.85 -32.25 -2.0 -32.25 -2.95 -32.25 -5.45 -31.1 L-7.75 -30.2 -8.0 -30.25 -8.75 -30.15 -9.5 -30.5 -10.0 -30.95 -8.85 -31.25 Q-7.2 -31.6 -6.05 -32.1 M12.8 -12.5 L12.75 -12.25 12.85 -12.45 12.8 -12.5 M8.9 -13.8 L9.0 -13.0 Q9.0 -11.7 6.35 -11.7 3.1 -11.65 1.75 -9.4 L1.2 -6.7 Q0.55 -4.9 -2.0 -4.9 L-6.7 -5.45 -6.9 -5.25 Q-7.5 -4.65 -8.0 -4.65 L-8.4 -4.75 Q-8.85 -5.05 -8.9 -6.0 -8.9 -6.7 -8.5 -6.95 L-8.25 -7.65 Q-7.9 -8.0 -6.85 -8.0 -5.5 -8.0 -3.25 -7.25 -0.85 -6.45 -0.25 -6.4 L-0.15 -6.7 0.1 -9.55 0.1 -10.1 0.15 -10.15 Q0.55 -11.95 2.9 -12.05 L3.4 -12.05 4.25 -12.0 5.4 -12.0 5.75 -12.0 Q5.75 -12.75 6.0 -13.25 6.25 -13.95 6.8 -14.25 L7.4 -14.45 Q8.55 -14.65 8.9 -13.8 M0.8 -23.3 L0.9 -22.65 Q0.9 -21.5 -3.75 -19.65 -8.0 -18.0 -9.0 -18.0 -10.05 -18.0 -10.25 -18.45 L-10.25 -18.95 Q-10.25 -20.4 -6.95 -20.7 L-4.25 -21.2 -3.95 -21.35 Q-3.55 -21.65 -3.5 -22.0 L-3.15 -23.1 Q-2.55 -24.05 -1.15 -24.2 0.45 -24.3 0.8 -23.3 M8.0 -2.25 Q8.15 -3.75 9.95 -3.75 L11.3 -3.45 Q11.9 -3.1 11.9 -2.3 11.9 -1.6 11.15 -0.95 10.4 -0.3 9.5 -0.3 8.25 -0.3 8.0 -1.15 L8.0 -2.05 8.0 -2.25 M6.0 11.25 L7.4 13.25 7.65 13.85 7.75 14.3 7.65 14.8 7.55 14.85 7.45 14.9 7.25 15.0 Q3.6 11.35 3.5 9.75 L3.2 8.2 Q2.8 6.95 1.95 6.2 0.65 5.45 0.65 5.3 L0.65 5.15 Q0.7 2.5 2.3 3.8 L3.25 4.85 Q4.0 6.05 4.05 8.0 L4.1 8.2 4.1 8.25 Q4.35 9.0 5.9 11.1 L6.0 11.25 M8.75 9.35 Q9.15 8.9 10.05 8.9 11.55 8.9 11.55 10.0 L11.4 10.75 11.35 10.85 Q11.0 11.25 10.0 11.25 8.75 11.25 8.5 10.75 L8.5 10.15 Q8.5 9.65 8.75 9.35 M-12.0 -28.9 L-11.0 -29.25 Q-9.05 -29.55 -9.05 -28.0 L-9.25 -26.85 -9.4 -26.55 Q-9.9 -25.65 -11.0 -25.65 -12.4 -25.65 -12.8 -26.25 L-13.0 -27.2 Q-13.0 -28.4 -12.0 -28.9 M-7.85 5.2 Q-7.6 4.0 -5.95 3.6 -4.0 3.1 -4.0 4.5 L-4.0 4.95 Q-4.15 5.6 -4.65 5.9 -5.4 6.4 -7.1 6.4 L-7.75 6.25 -7.9 5.65 -7.85 5.2 M-7.75 8.2 L-7.55 9.05 Q-7.55 9.95 -7.7 10.4 -8.1 11.25 -9.25 11.25 -10.75 11.25 -11.25 10.4 L-11.5 9.45 Q-11.5 8.65 -11.2 8.2 L-10.85 7.85 Q-10.4 7.45 -9.5 7.5 L-8.5 7.7 Q-8.0 7.85 -7.75 8.2 M-6.2 29.15 Q-4.65 29.0 -5.85 29.2 L-6.2 29.15" fill="#ff0000" fill-rule="evenodd" stroke="none"/>
      <path d="M8.3 -22.95 L8.7 -22.2 9.35 -21.0 9.75 -20.4 10.9 -23.1 11.75 -21.65 11.5 -18.25 11.25 -15.4 Q10.5 -16.0 9.5 -16.25 L9.25 -16.0 10.55 -12.6 11.6 -10.65 12.1 -8.4 13.55 -4.25 13.35 -4.25 12.8 -4.5 12.4 -4.75 Q11.65 -5.25 11.1 -5.25 L11.0 -5.25 10.1 -4.95 9.25 -4.5 7.0 -4.5 7.0 -5.75 Q7.95 -6.35 9.0 -6.6 L9.15 -6.65 Q9.75 -6.95 9.75 -8.6 L9.65 -10.4 9.2 -10.85 9.1 -10.4 Q8.7 -9.25 7.25 -9.25 6.35 -9.25 5.85 -10.0 L5.5 -10.0 4.75 -10.05 4.5 -10.15 4.05 -9.75 3.4 -9.55 Q3.55 -7.2 1.9 -5.7 -0.5 -3.55 -6.5 -3.55 -7.95 -3.55 -8.3 -4.4 L-8.4 -4.75 -8.0 -4.65 Q-7.5 -4.65 -6.9 -5.25 L-6.7 -5.45 -2.0 -4.9 Q0.55 -4.9 1.2 -6.7 L1.75 -9.4 Q3.1 -11.65 6.35 -11.7 9.0 -11.7 9.0 -13.0 L8.9 -13.8 9.65 -14.25 8.25 -15.1 Q7.75 -15.35 7.75 -16.35 7.75 -17.3 7.9 -17.6 8.1 -18.0 8.8 -18.0 L9.25 -17.95 Q9.2 -21.1 5.3 -21.3 L8.2 -21.25 8.1 -21.3 8.0 -21.85 Q8.0 -22.35 8.3 -22.95 M11.75 19.5 Q11.4 20.05 10.4 20.25 9.25 20.55 8.6 20.8 L9.15 19.65 9.95 17.25 11.75 19.5 M7.95 21.75 Q7.15 22.65 6.25 22.75 L3.65 23.35 Q4.0 22.55 4.0 21.25 L3.8 20.25 Q5.3 16.85 6.5 16.05 L5.7 14.55 4.25 12.35 Q2.6 10.0 2.45 8.2 L2.4 7.75 Q0.5 8.0 0.5 6.3 0.5 5.6 0.65 5.15 L0.65 5.3 Q0.65 5.45 1.95 6.2 2.8 6.95 3.2 8.2 L3.5 9.75 Q3.6 11.35 7.25 15.0 L7.45 14.9 7.4 15.0 7.1 15.8 7.25 15.75 7.5 15.8 7.25 20.0 5.0 20.0 4.75 20.5 6.35 21.25 7.95 21.75 M-8.4 23.45 L-9.0 23.0 -11.75 21.85 Q-13.75 20.9 -13.75 19.5 -13.75 17.95 -14.1 17.2 L-14.3 16.5 -13.75 16.5 Q-13.2 17.05 -12.6 17.2 L-12.25 17.25 -12.45 20.1 -12.75 20.25 -12.5 20.25 -12.45 20.1 -10.2 18.9 -8.4 20.4 -8.4 23.15 -8.4 23.45 M-11.15 -33.25 Q-10.05 -33.25 -9.65 -33.6 -9.25 -34.0 -8.6 -34.0 -7.3 -34.0 -6.95 -33.45 L-6.05 -32.1 Q-7.2 -31.6 -8.85 -31.25 L-10.0 -30.95 Q-10.8 -31.9 -11.15 -33.25 M2.8 -30.75 L2.75 -30.0 2.8 -29.45 1.95 -28.8 Q0.55 -27.75 -0.5 -28.0 L-1.05 -28.0 Q-1.75 -29.5 -2.85 -29.5 L-3.9 -29.25 -5.0 -29.0 -6.2 -29.6 Q-7.05 -30.15 -7.75 -30.2 L-5.45 -31.1 Q-2.95 -32.25 -2.0 -32.25 -0.85 -32.25 0.35 -31.5 1.5 -30.75 2.8 -30.75 M2.95 -28.75 Q3.3 -27.65 4.35 -26.9 L4.75 -26.65 3.9 -26.5 6.0 -23.1 5.55 -23.0 2.85 -22.5 Q1.8 -22.5 1.5 -23.0 1.25 -23.4 1.25 -24.85 1.25 -26.55 2.05 -27.5 L2.95 -28.75 M-10.25 -18.45 Q-10.05 -18.0 -9.0 -18.0 -8.0 -18.0 -3.75 -19.65 0.9 -21.5 0.9 -22.65 L0.8 -23.3 Q1.25 -22.85 1.25 -22.05 L1.0 -20.0 0.55 -19.5 -0.25 -19.05 -2.3 -18.65 Q-3.55 -18.55 -5.95 -17.55 L-6.2 -17.45 -8.25 -16.55 Q-9.8 -16.55 -10.2 -17.4 L-10.25 -18.3 -10.25 -18.45 M-3.15 -23.1 L-3.5 -22.0 Q-3.55 -21.65 -3.95 -21.35 L-3.9 -21.5 -3.25 -23.05 -3.15 -23.1 M2.4 -19.45 L4.15 -19.05 4.25 -17.35 Q4.25 -16.35 3.9 -15.6 L3.7 -16.0 Q2.8 -18.05 2.4 -19.45 M6.0 -13.25 Q5.75 -12.75 5.75 -12.0 L5.4 -12.0 Q5.5 -12.9 6.0 -13.25 M0.1 -9.55 L-0.15 -6.7 Q-0.4 -8.3 0.1 -9.55 M11.3 -3.45 L11.4 -3.45 Q12.3 -3.2 12.3 -2.0 L12.3 -1.2 12.05 -0.05 Q11.5 1.4 9.75 1.4 8.5 1.4 7.9 0.75 7.5 0.3 7.5 -0.25 7.5 -1.5 8.0 -2.25 L8.0 -2.05 8.0 -1.15 Q8.25 -0.3 9.5 -0.3 10.4 -0.3 11.15 -0.95 11.9 -1.6 11.9 -2.3 11.9 -3.1 11.3 -3.45 M7.4 13.25 L7.65 13.8 7.65 13.85 7.4 13.25 M11.35 10.85 Q11.2 12.75 10.1 12.75 8.1 12.75 8.1 10.85 8.1 9.75 8.75 9.35 8.5 9.65 8.5 10.15 L8.5 10.75 Q8.75 11.25 10.0 11.25 11.0 11.25 11.35 10.85 M4.1 8.2 L4.05 8.0 Q4.0 6.05 3.25 4.85 3.9 5.65 4.05 7.65 L4.1 8.2 M1.3 17.05 L1.75 18.9 1.75 19.0 1.75 19.25 -0.1 19.25 -0.2 21.95 -0.85 22.0 -1.05 22.0 -0.6 23.05 -5.15 24.05 -5.0 22.7 -4.95 22.4 -2.9 21.4 -3.2 21.0 Q-5.1 18.85 -7.95 17.85 L-7.55 17.65 -5.9 16.85 Q-5.5 17.1 -5.1 17.5 -3.9 18.75 -2.75 18.75 -1.8 18.75 0.0 17.4 L0.95 16.6 1.25 17.0 1.3 17.05 M-13.55 -25.6 L-13.55 -26.55 Q-13.55 -28.65 -12.0 -28.9 -13.0 -28.4 -13.0 -27.2 L-12.8 -26.25 Q-12.4 -25.65 -11.0 -25.65 -9.9 -25.65 -9.4 -26.55 L-9.25 -26.85 -9.25 -26.8 Q-9.25 -25.9 -9.85 -25.05 -10.5 -24.05 -11.5 -24.05 -12.95 -24.05 -13.4 -25.05 L-13.5 -25.3 -13.55 -25.6 M-8.4 6.6 L-7.85 5.2 -7.9 5.65 -7.75 6.25 -7.1 6.4 Q-5.4 6.4 -4.65 5.9 -4.15 5.6 -4.0 4.95 L-4.0 5.5 Q-4.0 6.9 -4.35 7.45 -5.1 8.7 -7.5 7.85 L-7.65 7.95 -7.75 8.2 Q-8.0 7.85 -8.5 7.7 L-8.5 7.55 -8.5 7.5 -8.4 6.6 M-7.55 9.05 L-7.4 9.35 Q-7.05 10.1 -7.05 10.45 -7.05 12.6 -9.35 12.6 L-9.45 12.6 Q-11.5 12.6 -12.05 11.75 L-12.25 10.6 Q-12.25 9.4 -11.6 8.5 L-11.35 8.2 -10.85 7.85 -11.2 8.2 Q-11.5 8.65 -11.5 9.45 L-11.25 10.4 Q-10.75 11.25 -9.25 11.25 -8.1 11.25 -7.7 10.4 -7.55 9.95 -7.55 9.05" fill="#990000" fill-rule="evenodd" stroke="none"/>
      <path d="M7.95 -23.4 L8.6 -23.5 8.3 -22.95 Q8.0 -22.35 8.0 -21.85 L8.1 -21.3 8.2 -21.25 5.3 -21.3 Q9.2 -21.1 9.25 -17.95 L8.8 -18.0 Q8.1 -18.0 7.9 -17.6 7.75 -17.3 7.75 -16.35 7.75 -15.35 8.25 -15.1 L9.65 -14.25 8.9 -13.8 Q8.55 -14.65 7.4 -14.45 L6.8 -14.25 4.85 -13.55 1.85 -12.25 -0.8 -12.45 -2.5 -12.5 Q-2.15 -14.05 -1.0 -14.5 0.1 -14.0 1.5 -14.0 2.7 -14.0 3.5 -15.0 L3.9 -15.6 Q4.25 -16.35 4.25 -17.35 L4.15 -19.05 2.4 -19.45 0.85 -19.5 0.55 -19.5 1.0 -20.0 1.25 -22.05 Q1.25 -22.85 0.8 -23.3 0.45 -24.3 -1.15 -24.2 -2.55 -24.05 -3.15 -23.1 L-3.25 -23.05 -3.9 -21.5 -3.95 -21.35 -4.25 -21.2 -9.1 -20.9 -11.1 -21.0 -13.35 -20.8 -13.25 -23.5 Q-13.25 -24.35 -13.4 -25.05 -12.95 -24.05 -11.5 -24.05 -10.5 -24.05 -9.85 -25.05 -9.25 -25.9 -9.25 -26.8 L-9.25 -26.85 -9.05 -28.0 Q-9.05 -29.55 -11.0 -29.25 L-12.0 -28.9 Q-13.55 -28.65 -13.55 -26.55 L-13.55 -25.6 -13.9 -26.4 Q-14.5 -27.55 -14.5 -29.0 -14.5 -32.0 -12.85 -33.55 L-11.45 -34.8 -11.3 -33.7 -11.25 -33.45 -11.15 -33.25 Q-10.8 -31.9 -10.0 -30.95 L-9.5 -30.5 -8.75 -30.15 -8.55 -30.05 -8.15 -29.85 Q-7.25 -29.35 -7.0 -28.25 L-6.55 -26.1 Q-6.3 -25.5 -5.35 -25.5 -4.5 -25.5 -3.0 -26.9 -1.9 -27.85 -1.05 -28.0 L-0.5 -28.0 Q0.55 -27.75 1.95 -28.8 L2.8 -29.45 3.65 -30.15 3.75 -30.5 3.75 -30.25 3.65 -30.15 2.95 -28.75 2.05 -27.5 Q1.25 -26.55 1.25 -24.85 1.25 -23.4 1.5 -23.0 1.8 -22.5 2.85 -22.5 L5.55 -23.0 6.0 -23.1 7.95 -23.4" fill="#7b3434" fill-rule="evenodd" stroke="none"/>
      <path d="M-14.3 16.5 L-14.45 14.85 Q-13.25 14.15 -12.5 14.0 -12.25 14.75 -12.25 17.0 L-12.25 17.25 -12.6 17.2 Q-13.2 17.05 -13.75 16.5 L-14.3 16.5 M-1.05 -28.0 Q-1.9 -27.85 -3.0 -26.9 -4.5 -25.5 -5.35 -25.5 -6.3 -25.5 -6.55 -26.1 L-7.0 -28.25 Q-7.25 -29.35 -8.15 -29.85 L-8.55 -30.05 -8.75 -30.15 -8.0 -30.25 -7.75 -30.2 Q-7.05 -30.15 -6.2 -29.6 L-5.0 -29.0 -3.9 -29.25 -2.85 -29.5 Q-1.75 -29.5 -1.05 -28.0 M-0.25 -19.05 L0.55 -19.5 0.85 -19.5 2.4 -19.45 Q2.8 -18.05 3.7 -16.0 L3.9 -15.6 3.5 -15.0 Q2.7 -14.0 1.5 -14.0 0.1 -14.0 -1.0 -14.5 0.0 -14.9 0.0 -16.25 L-0.15 -18.4 -0.25 -19.05 M0.95 16.6 L0.0 17.4 Q-1.8 18.75 -2.75 18.75 -3.9 18.75 -5.1 17.5 -5.5 17.1 -5.9 16.85 L-2.5 14.75 -2.5 16.7 Q-1.65 16.0 -0.5 16.0 0.4 16.0 0.95 16.6" fill="#e2b181" fill-rule="evenodd" stroke="none"/>
      <path d="M16.95 -4.0 L17.25 -3.25 17.4 -2.85 17.75 -0.5 16.4 2.5 Q14.9 5.3 14.0 6.25 L13.65 6.0 12.55 5.15 12.5 3.25 Q13.0 3.35 13.5 2.65 14.0 2.0 14.0 1.35 14.0 0.65 12.3 -1.2 L12.3 -2.0 Q12.3 -3.2 11.4 -3.45 L11.35 -3.6 11.0 -5.25 11.1 -5.25 Q11.65 -5.25 12.4 -4.75 L12.8 -4.5 13.35 -4.25 13.55 -4.25 14.35 -4.6 15.6 -5.0 Q16.4 -5.0 16.95 -4.0 M4.75 -10.05 L5.5 -10.0 5.85 -10.0 Q6.35 -9.25 7.25 -9.25 8.7 -9.25 9.1 -10.4 L9.2 -10.85 9.65 -10.4 9.75 -8.6 Q9.75 -6.95 9.15 -6.65 L9.0 -6.6 9.0 -6.75 Q9.0 -9.25 6.6 -9.25 L4.75 -9.0 4.75 -10.05 M-10.25 -18.45 L-10.25 -18.3 -10.2 -17.4 Q-9.8 -16.55 -8.25 -16.55 L-6.2 -17.45 -5.25 -15.5 -7.75 -15.45 -8.25 -13.75 -11.05 -13.85 Q-11.45 -10.75 -10.2 -8.0 L-10.35 -7.8 Q-13.25 -6.45 -12.25 -3.2 L-13.65 -3.25 -15.1 -2.75 -15.9 -3.2 Q-16.25 -4.65 -15.45 -6.05 L-15.0 -6.75 -15.45 -9.3 -14.25 -11.25 -15.25 -13.5 Q-14.2 -16.5 -11.1 -18.1 L-11.75 -19.25 Q-11.05 -20.5 -9.8 -20.75 L-9.1 -20.9 -4.25 -21.2 -6.95 -20.7 Q-10.25 -20.4 -10.25 -18.95 L-10.25 -18.45 M-0.8 -12.45 L1.85 -12.25 4.85 -13.55 6.8 -14.25 Q6.25 -13.95 6.0 -13.25 5.5 -12.9 5.4 -12.0 L4.25 -12.0 3.4 -12.05 2.9 -12.05 Q0.55 -11.95 0.15 -10.15 L-0.25 -10.25 Q-1.25 -10.25 -2.25 -9.75 -2.0 -10.0 -1.45 -11.3 L-0.8 -12.45" fill="#cec9ab" fill-rule="evenodd" stroke="none"/>
      <path d="M-8.4 -4.75 L-8.3 -4.4 Q-7.95 -3.55 -6.5 -3.55 -0.5 -3.55 1.9 -5.7 3.55 -7.2 3.4 -9.55 L4.05 -9.75 4.5 -10.15 4.75 -10.05 4.75 -9.0 6.6 -9.25 Q9.0 -9.25 9.0 -6.75 L9.0 -6.6 Q7.95 -6.35 7.0 -5.75 L7.0 -4.5 9.25 -4.5 10.1 -4.95 11.0 -5.25 11.35 -3.6 11.4 -3.45 11.3 -3.45 9.95 -3.75 Q8.15 -3.75 8.0 -2.25 7.5 -1.5 7.5 -0.25 7.5 0.3 7.9 0.75 8.5 1.4 9.75 1.4 11.5 1.4 12.05 -0.05 L12.3 -1.2 Q14.0 0.65 14.0 1.35 14.0 2.0 13.5 2.65 13.0 3.35 12.5 3.25 L12.55 5.15 Q10.7 3.8 9.75 3.5 9.1 3.3 8.15 2.05 L7.55 1.4 Q6.95 0.85 6.5 0.75 L3.8 0.65 Q1.95 0.6 1.25 0.0 L0.65 -0.75 -2.05 -1.25 -2.25 -1.25 -5.7 -1.65 -6.9 -2.35 -7.85 -2.55 -12.25 -3.2 Q-13.25 -6.45 -10.35 -7.8 L-10.2 -8.0 Q-11.45 -10.75 -11.05 -13.85 L-8.25 -13.75 -7.75 -15.45 -5.25 -15.5 -6.2 -17.45 -5.95 -17.55 Q-3.55 -18.55 -2.3 -18.65 L-0.25 -19.05 -0.15 -18.4 0.0 -16.25 Q0.0 -14.9 -1.0 -14.5 -2.15 -14.05 -2.5 -12.5 L-0.8 -12.45 -1.45 -11.3 Q-2.0 -10.0 -2.25 -9.75 -1.25 -10.25 -0.25 -10.25 L0.15 -10.15 0.1 -10.1 0.1 -9.55 Q-0.4 -8.3 -0.15 -6.7 L-0.25 -6.4 Q-0.85 -6.45 -3.25 -7.25 -5.5 -8.0 -6.85 -8.0 -7.9 -8.0 -8.25 -7.65 L-8.5 -6.95 Q-8.9 -6.7 -8.9 -6.0 -8.85 -5.05 -8.4 -4.75" fill="#9c9982" fill-rule="evenodd" stroke="none"/>
      <path d="M13.65 6.0 L12.75 7.1 12.2 6.7 11.0 5.95 10.5 5.7 8.85 5.2 Q7.45 4.85 6.45 4.15 5.4 3.45 5.85 6.1 L5.9 8.2 6.0 11.1 6.0 11.25 5.9 11.1 Q4.35 9.0 4.1 8.25 L4.1 8.2 4.05 7.65 Q3.9 5.65 3.25 4.85 L2.3 3.8 Q0.7 2.5 0.65 5.15 0.5 5.6 0.5 6.3 0.5 8.0 2.4 7.75 L2.45 8.2 Q2.6 10.0 4.25 12.35 L5.7 14.55 5.5 15.45 4.5 18.25 2.9 15.95 2.35 15.35 Q1.4 14.55 0.25 14.5 L0.0 14.5 1.1 16.5 1.3 17.05 1.25 17.0 0.95 16.6 Q0.4 16.0 -0.5 16.0 -1.65 16.0 -2.5 16.7 L-2.5 14.75 -5.9 16.85 -7.55 17.65 -7.95 17.85 -7.05 16.3 -5.7 14.15 -7.5 15.05 Q-7.8 15.05 -10.35 16.75 L-9.45 12.6 -9.35 12.6 Q-7.05 12.6 -7.05 10.45 -7.05 10.1 -7.4 9.35 L-7.55 9.05 -7.75 8.2 -7.65 7.95 -7.5 7.85 Q-5.1 8.7 -4.35 7.45 -4.0 6.9 -4.0 5.5 L-4.0 4.95 -4.0 4.5 Q-4.0 3.1 -5.95 3.6 -7.6 4.0 -7.85 5.2 L-8.4 6.6 -8.0 1.35 Q-8.0 -0.75 -8.85 -0.8 -11.25 -0.9 -13.0 -1.75 L-15.15 -1.75 -15.3 -2.75 -15.1 -2.75 -13.65 -3.25 -12.25 -3.2 -7.85 -2.55 -6.9 -2.35 -5.7 -1.65 -2.25 -1.25 -2.05 -1.25 0.65 -0.75 1.25 0.0 Q1.95 0.6 3.8 0.65 L6.5 0.75 Q6.95 0.85 7.55 1.4 L8.15 2.05 Q9.1 3.3 9.75 3.5 10.7 3.8 12.55 5.15 L13.65 6.0 M1.9 25.0 Q1.0 27.5 1.0 28.5 L0.5 26.0 -0.05 24.35 -0.3 23.8 -0.6 23.05 -1.05 22.0 -0.85 22.0 -0.2 21.95 Q0.45 21.8 1.0 21.25 1.7 20.5 1.75 19.25 L1.75 19.0 1.75 18.9 1.85 19.25 1.9 19.8 Q2.05 20.9 3.35 21.3 L3.2 21.65 2.4 23.7 1.9 25.0 M-8.5 7.7 L-8.5 7.55 -8.5 7.7" fill="#111111" fill-rule="evenodd" stroke="none"/>
      <path d="M12.75 7.1 L12.15 7.75 12.45 8.2 12.6 9.05 12.75 14.0 Q12.85 17.85 12.6 19.3 L12.55 20.5 11.75 19.5 9.95 17.25 9.45 16.9 Q8.15 15.95 7.5 15.8 L7.25 15.75 7.1 15.8 7.4 15.0 7.45 14.9 7.55 14.85 7.65 14.8 7.75 14.3 7.65 13.85 7.65 13.8 7.4 13.25 6.0 11.25 6.0 11.1 5.9 8.2 5.85 6.1 Q5.4 3.45 6.45 4.15 7.45 4.85 8.85 5.2 L10.5 5.7 11.0 5.95 12.2 6.7 12.75 7.1 M-14.45 14.85 L-17.75 18.25 Q-15.35 14.1 -15.45 13.1 L-15.5 8.2 -15.3 6.3 Q-14.8 2.45 -15.1 -1.25 L-15.15 -1.75 -13.0 -1.75 Q-11.25 -0.9 -8.85 -0.8 -8.0 -0.75 -8.0 1.35 L-8.4 6.6 -8.5 7.5 -8.5 7.55 -8.5 7.7 -9.5 7.5 Q-10.4 7.45 -10.85 7.85 L-11.35 8.2 -11.6 8.5 Q-12.25 9.4 -12.25 10.6 L-12.05 11.75 Q-11.5 12.6 -9.45 12.6 L-10.35 16.75 Q-7.8 15.05 -7.5 15.05 L-5.7 14.15 -7.05 16.3 -7.95 17.85 -10.2 18.9 -12.45 20.1 -12.5 20.25 -12.75 20.25 -12.45 20.1 -12.25 17.25 -12.25 17.0 Q-12.25 14.75 -12.5 14.0 -13.25 14.15 -14.45 14.85 M11.35 10.85 L11.4 10.75 11.55 10.0 Q11.55 8.9 10.05 8.9 9.15 8.9 8.75 9.35 8.1 9.75 8.1 10.85 8.1 12.75 10.1 12.75 11.2 12.75 11.35 10.85 M5.7 14.55 L6.5 16.05 Q5.3 16.85 3.8 20.25 L3.35 21.3 Q2.05 20.9 1.9 19.8 L1.85 19.25 1.75 18.9 1.3 17.05 1.1 16.5 0.0 14.5 0.25 14.5 Q1.4 14.55 2.35 15.35 L2.9 15.95 4.5 18.25 5.5 15.45 5.7 14.55" fill="#333333" fill-rule="evenodd" stroke="none"/>
      <path d="M-16.25 -20.4 L-16.25 -20.7 -17.0 -23.25 -17.45 -24.6 -18.1 -26.3 Q-18.3 -26.75 -18.3 -27.85 -18.3 -29.95 -16.95 -32.3 L-16.9 -32.45 -16.85 -32.5 -16.6 -32.9 -16.35 -33.4 -16.35 -33.45 -16.3 -33.5 -15.75 -33.85 -15.7 -33.85 -14.55 -34.5 -12.75 -35.2 -11.45 -35.6 -10.2 -35.9 -11.45 -34.8 -12.85 -33.55 Q-14.5 -32.0 -14.5 -29.0 -14.5 -27.55 -13.9 -26.4 L-13.55 -25.6 -13.5 -25.3 -13.4 -25.05 Q-13.25 -24.35 -13.25 -23.5 L-13.35 -20.8 Q-14.75 -20.6 -15.6 -20.05 L-16.1 -19.65 -16.25 -20.4" fill="#984040" fill-rule="evenodd" stroke="none"/>
      <path d="M-15.3 -2.75 Q-16.6 -2.85 -17.45 -4.25 L-18.0 -5.85 -17.65 -7.35 -17.3 -8.9 -17.9 -13.75 Q-17.9 -14.7 -16.55 -17.4 L-16.65 -18.4 Q-16.65 -19.0 -16.25 -19.5 L-16.1 -19.65 -15.6 -20.05 Q-14.75 -20.6 -13.35 -20.8 L-11.1 -21.0 -9.1 -20.9 -9.8 -20.75 Q-11.05 -20.5 -11.75 -19.25 L-11.1 -18.1 Q-14.2 -16.5 -15.25 -13.5 L-14.25 -11.25 -15.45 -9.3 -15.0 -6.75 -15.45 -6.05 Q-16.25 -4.65 -15.9 -3.2 L-15.1 -2.75 -15.3 -2.75" fill="#fff9d4" fill-rule="evenodd" stroke="none"/>
      <path d="M-16.25 -19.5 L-16.25 -20.4 -16.1 -19.65 -16.25 -19.5" fill="#e98d8d" fill-rule="evenodd" stroke="none"/>
    </g>
  </defs>
</svg>
