<?xml version="1.0" encoding="UTF-8" standalone="no"?>
<svg xmlns:ffdec="https://www.free-decompiler.com/flash" xmlns:xlink="http://www.w3.org/1999/xlink" ffdec:objectType="frame" height="25.25px" width="23.35px" xmlns="http://www.w3.org/2000/svg">
  <g transform="matrix(1.0, 0.0, 0.0, 1.0, 11.1, 13.65)">
    <use ffdec:characterId="2550" height="25.25" transform="matrix(1.0, 0.0, 0.0, 1.0, -11.1, -13.65)" width="23.35" xlink:href="#shape0"/>
  </g>
  <defs>
    <g id="shape0" transform="matrix(1.0, 0.0, 0.0, 1.0, 11.1, 13.65)">
      <path d="M-7.2 -7.1 L-7.15 -5.95 1.9 -3.1 2.55 -4.75 1.55 -5.85 3.9 -6.75 4.65 -5.2 Q5.9 -2.4 5.55 0.65 L0.55 2.15 -2.7 4.6 -2.9 4.55 -2.7 4.35 Q-3.15 3.6 -4.25 3.05 -3.15 2.75 -2.6 1.75 L-2.3 1.1 -4.4 -3.65 -6.2 -3.85 -7.3 -5.8 -7.8 -5.2 Q-7.8 -6.5 -7.2 -7.1 M-0.2 -7.8 L-1.4 -7.7 0.95 -9.4 1.4 -9.0 2.6 -9.0 2.95 -10.45 1.9 -11.7 2.25 -12.05 2.7 -11.95 3.45 -12.65 3.1 -13.1 Q4.05 -12.7 5.65 -10.65 4.85 -8.95 3.05 -8.05 L2.1 -7.75 0.75 -8.35 -0.2 -7.8 M4.35 8.35 L1.7 10.0 -1.5 11.4 -7.9 11.6 Q-8.85 11.3 -9.5 10.85 L-8.95 10.85 -8.6 10.1 -8.8 8.85 -6.95 7.25 -6.8 6.55 -5.7 5.6 -6.1 4.5 -7.15 4.6 Q-7.95 4.6 -8.5 4.0 -9.1 3.35 -9.1 2.45 -7.35 3.15 -5.45 4.25 L-4.05 4.95 -2.65 6.35 -1.65 5.9 -1.45 5.4 -0.1 5.95 1.05 5.75 1.25 4.45 1.8 4.1 1.9 2.85 3.95 3.7 2.6 5.65 4.35 8.35 M-1.1 -2.6 L-1.8 -2.25 Q-1.15 -0.05 1.1 0.35 L2.7 0.35 2.55 -1.0 -1.1 -2.6 M-8.0 1.85 L-8.6 1.75 -8.4 1.55 -8.0 1.85 M-6.6 9.4 L-5.6 9.55 -4.1 9.35 -3.6 9.85 -0.3 8.65 -0.35 7.6 -0.75 7.45 -3.0 8.0 -3.2 7.6 -4.8 7.6 -6.65 9.25 -6.6 9.4" fill="#990000" fill-rule="evenodd" stroke="none"/>
      <path d="M-7.2 -7.1 L0.5 -10.65 0.7 -13.55 3.1 -13.1 3.45 -12.65 2.7 -11.95 2.25 -12.05 1.9 -11.7 2.95 -10.45 2.6 -9.0 1.4 -9.0 0.95 -9.4 -1.4 -7.7 -0.2 -7.8 -0.4 -5.4 1.55 -5.85 2.55 -4.75 1.9 -3.1 -7.15 -5.95 -7.2 -7.1 M-9.5 10.85 L-10.5 10.5 -11.1 7.3 -7.15 4.6 -6.1 4.5 -5.7 5.6 -6.8 6.55 -6.95 7.25 -8.8 8.85 -8.6 10.1 -8.95 10.85 -9.5 10.85 M0.55 2.15 L1.9 2.85 1.8 4.1 1.25 4.45 1.05 5.75 -0.1 5.95 -1.45 5.4 -1.65 5.9 -2.65 6.35 -4.05 4.95 -5.45 4.25 Q-7.35 3.15 -9.1 2.45 L-9.3 1.7 -8.6 1.75 -8.0 1.85 -4.25 3.05 Q-3.15 3.6 -2.7 4.35 L-2.9 4.55 -2.7 4.6 0.55 2.15 M-1.1 -2.6 L2.55 -1.0 2.7 0.35 1.1 0.35 Q-1.15 -0.05 -1.8 -2.25 L-1.1 -2.6 M-6.6 9.4 L-6.65 9.25 -4.8 7.6 -3.2 7.6 -3.0 8.0 -0.75 7.45 -0.35 7.6 -0.3 8.65 -3.6 9.85 -4.1 9.35 -5.6 9.55 -6.6 9.4" fill="#ff0000" fill-rule="evenodd" stroke="none"/>
      <path d="M-11.1 7.3 Q-11.3 3.25 -8.65 0.1 L-7.3 -1.35 -7.8 -5.2 -7.3 -5.8 -6.2 -3.85 -4.4 -3.65 -2.3 1.1 -2.6 1.75 Q-3.15 2.75 -4.25 3.05 L-8.0 1.85 -8.4 1.55 -8.6 1.75 -9.3 1.7 -9.1 2.45 Q-9.1 3.35 -8.5 4.0 -7.95 4.6 -7.15 4.6 L-11.1 7.3" fill="#650101" fill-rule="evenodd" stroke="none"/>
      <path d="M1.55 -5.85 L-0.4 -5.4 -0.2 -7.8 0.75 -8.35 2.1 -7.75 3.05 -8.05 Q4.85 -8.95 5.65 -10.65 L7.8 -13.65 7.35 -11.95 8.45 -10.9 9.7 -11.9 11.3 -10.9 9.5 -8.4 10.6 -8.0 11.6 -8.65 12.25 -8.55 9.95 -4.3 8.65 -6.3 Q7.6 -7.8 6.2 -8.55 L6.55 -6.85 Q7.05 -4.45 5.9 -2.25 L6.95 -0.6 5.55 0.65 Q5.9 -2.4 4.65 -5.2 L3.9 -6.75 1.55 -5.85" fill="#8a4664" fill-rule="evenodd" stroke="none"/>
      <path d="M9.95 -4.3 Q10.15 2.4 5.55 7.15 L4.35 8.35 2.6 5.65 3.95 3.7 1.9 2.85 0.55 2.15 5.55 0.65 6.95 -0.6 5.9 -2.25 Q7.05 -4.45 6.55 -6.85 L6.2 -8.55 Q7.6 -7.8 8.65 -6.3 L9.95 -4.3" fill="#bb77a7" fill-rule="evenodd" stroke="none"/>
    </g>
  </defs>
</svg>
