<?xml version="1.0" encoding="UTF-8" standalone="no"?>
<svg xmlns:ffdec="https://www.free-decompiler.com/flash" xmlns:xlink="http://www.w3.org/1999/xlink" ffdec:objectType="frame" height="31.05px" width="35.4px" xmlns="http://www.w3.org/2000/svg">
  <g transform="matrix(1.0, 0.0, 0.0, 1.0, 16.75, 19.6)">
    <use ffdec:characterId="2270" height="18.0" id="chunk1" transform="matrix(1.0, 0.0, 0.0, 1.0, -9.35, -19.6)" width="21.9" xlink:href="#sprite0"/>
    <use ffdec:characterId="2272" height="18.35" id="chunk2" transform="matrix(1.0, 0.0, 0.0, 1.0, 1.1, -6.9)" width="17.55" xlink:href="#sprite1"/>
    <use ffdec:characterId="2274" height="18.45" id="chunk3" transform="matrix(1.0, 0.0, 0.0, 1.0, -16.75, -7.15)" width="16.2" xlink:href="#sprite2"/>
  </g>
  <defs>
    <g id="sprite0" transform="matrix(1.0, 0.0, 0.0, 1.0, 10.65, 9.75)">
      <use ffdec:characterId="2269" height="18.0" transform="matrix(1.0, 0.0, 0.0, 1.0, -10.65, -9.75)" width="21.9" xlink:href="#shape0"/>
    </g>
    <g id="shape0" transform="matrix(1.0, 0.0, 0.0, 1.0, 10.65, 9.75)">
      <path d="M-4.65 -5.8 L-4.8 -4.5 -5.6 -4.25 -6.45 -4.9 -7.5 -5.8 -6.55 -6.0 -4.65 -5.8 M-4.8 -7.55 L-5.95 -8.2 -5.95 -9.05 Q-4.25 -10.0 -2.45 -9.7 L-1.5 -9.5 -1.95 -7.95 -2.75 -7.35 -4.8 -7.55" fill="#ffffff" fill-rule="evenodd" stroke="none"/>
      <path d="M6.45 -4.0 L5.5 -3.65 1.95 -4.8 Q1.4 -5.0 1.5 -5.2 L1.65 -5.4 5.35 -5.3 5.65 -5.2 6.55 -4.85 6.45 -4.0 M-1.0 -5.65 Q-2.8 -5.55 -4.15 -6.7 L-4.8 -7.2 -4.8 -7.55 -2.75 -7.35 -1.95 -7.95 -0.6 -7.0 -0.4 -6.8 -0.5 -6.55 -1.0 -5.65 M-8.0 -1.15 L-7.6 -2.1 Q-6.7 -4.0 -4.7 -4.25 L-4.1 -3.95 -2.45 -4.8 -1.35 -3.9 0.8 -4.15 2.6 -3.9 4.0 -3.05 Q5.1 -2.0 6.55 -1.55 L7.1 -0.65 7.1 -0.6 6.9 0.15 Q5.9 0.8 4.75 0.7 L4.3 0.65 3.4 0.4 3.15 0.15 3.2 -0.35 3.2 -0.5 3.35 -1.05 2.0 -1.85 Q1.1 -2.4 0.2 -2.4 L-6.15 -2.8 -8.0 -1.15 M9.15 -0.75 Q7.3 -0.95 6.65 -2.9 L6.65 -3.5 7.25 -3.35 10.8 -1.7 10.45 -0.8 9.15 -0.75 M3.65 6.7 L1.85 7.25 1.15 6.8 1.55 6.2 0.75 4.7 1.75 5.1 3.45 5.25 4.0 5.05 4.2 4.55 4.5 4.7 4.6 5.7 3.65 6.7 M-3.3 7.55 L-4.25 6.6 -2.5 5.6 -1.65 5.8 -2.75 6.55 -2.9 7.3 -3.3 7.55 M-3.75 -0.55 L-3.8 -0.35 -4.15 0.25 Q-4.7 0.85 -5.45 0.85 -7.0 0.85 -6.95 -0.35 L-6.95 -0.45 -6.8 -1.0 Q-6.05 -1.85 -4.85 -1.75 L-4.15 -1.7 -3.75 -0.55" fill="#ff0000" fill-rule="evenodd" stroke="none"/>
      <path d="M1.65 -5.4 L1.5 -5.2 Q1.4 -5.0 1.95 -4.8 L5.5 -3.65 6.45 -4.0 7.25 -3.35 6.65 -3.5 6.65 -2.9 Q7.3 -0.95 9.15 -0.75 L7.1 -0.6 7.1 -0.65 6.55 -1.55 Q5.1 -2.0 4.0 -3.05 L2.6 -3.9 0.8 -4.15 -1.35 -3.9 -2.45 -4.8 -4.1 -3.95 -4.7 -4.25 Q-6.7 -4.0 -7.6 -2.1 L-8.0 -1.15 -7.95 -0.6 -10.0 -0.5 -9.2 -2.75 -6.45 -4.9 -5.6 -4.25 -4.8 -4.5 -4.65 -5.8 -4.8 -7.2 -4.15 -6.7 Q-2.8 -5.55 -1.0 -5.65 L1.65 -5.4 M3.15 -0.45 L3.2 -0.5 3.2 -0.35 3.15 0.15 3.4 0.4 4.3 0.65 4.75 0.7 Q5.9 0.8 6.9 0.15 L6.65 1.35 6.35 1.65 Q6.0 1.95 5.55 2.05 L5.05 2.05 3.7 1.75 3.4 1.65 2.9 0.05 3.15 -0.45 M8.85 4.3 Q8.85 5.0 8.45 5.5 8.05 5.95 7.45 5.95 L7.3 5.1 8.85 4.3 M6.6 6.2 L5.65 7.05 3.65 6.7 4.6 5.7 4.5 4.7 4.9 4.95 5.1 4.75 6.6 6.2 M1.85 7.25 L0.7 7.45 -0.4 7.55 -2.25 8.25 -3.3 7.55 -2.9 7.3 -2.75 6.55 -1.65 5.8 -2.5 5.6 -4.25 6.6 -4.75 7.15 -5.8 7.3 Q-7.6 7.05 -8.25 5.3 L-6.8 4.15 -6.25 4.4 -6.15 6.3 -4.65 4.4 -4.6 4.75 -4.25 4.8 Q-2.3 3.7 0.0 3.35 0.2 4.15 0.75 4.7 L1.55 6.2 1.15 6.8 1.85 7.25 M-9.3 4.2 L-10.25 3.75 -10.3 1.65 -9.25 2.25 -9.15 2.25 -9.2 3.1 -9.3 4.2 M-3.8 -0.35 L-3.95 0.45 -4.25 1.1 Q-4.85 1.75 -5.6 1.75 L-5.7 1.75 -7.2 1.05 -7.3 -0.35 -7.3 -0.5 -6.8 -1.0 -6.95 -0.45 -6.95 -0.35 Q-7.0 0.85 -5.45 0.85 -4.7 0.85 -4.15 0.25 L-3.8 -0.35 M3.45 5.25 L4.0 4.45 4.2 4.55 4.0 5.05 3.45 5.25" fill="#990000" fill-rule="evenodd" stroke="none"/>
      <path d="M-7.95 -0.6 L-8.0 -1.15 -6.15 -2.8 0.2 -2.4 Q1.1 -2.4 2.0 -1.85 L3.35 -1.05 3.2 -0.5 3.15 -0.45 -3.75 -0.55 -4.15 -1.7 -4.85 -1.75 Q-6.05 -1.85 -6.8 -1.0 L-7.3 -0.5 -7.95 -0.6" fill="#ebbb98" fill-rule="evenodd" stroke="none"/>
      <path d="M-10.0 -0.5 L-7.95 -0.6 -7.3 -0.5 -7.3 -0.35 -7.2 1.05 -5.7 1.75 -6.3 2.3 -6.35 2.3 -6.4 2.25 -6.5 2.25 -7.25 2.05 -7.65 1.45 -9.6 0.9 -9.95 0.45 -10.0 -0.35 -10.0 -0.5 M7.1 -0.6 L9.15 -0.75 10.45 -0.8 11.25 -0.35 10.95 -0.1 10.6 0.2 Q9.3 1.1 7.6 1.3 L6.65 1.35 6.9 0.15 7.1 -0.6 M5.05 2.05 L4.85 2.25 5.9 3.85 5.4 4.6 5.15 4.65 5.1 4.75 4.9 4.95 4.5 4.7 4.2 4.55 4.0 4.45 3.45 5.25 1.75 5.1 0.75 4.7 Q0.2 4.15 0.0 3.35 -2.3 3.7 -4.25 4.8 L-4.6 4.75 -4.65 4.4 -4.75 3.8 -3.75 2.85 Q-3.0 2.35 -2.75 1.05 L-3.0 1.3 -4.25 1.1 -3.95 0.45 -3.8 -0.35 -3.75 -0.55 3.15 -0.45 2.9 0.05 3.4 1.65 3.7 1.75 5.05 2.05 M0.45 0.9 L-2.25 0.5 -2.4 0.7 -1.3 2.3 1.55 2.65 0.45 0.9" fill="#7b5515" fill-rule="evenodd" stroke="none"/>
      <path d="M10.95 -0.1 L11.1 0.3 10.6 0.2 10.95 -0.1 M10.45 1.35 L10.85 3.75 9.45 4.05 8.85 4.3 7.3 5.1 7.45 5.95 7.7 7.25 6.6 6.2 5.1 4.75 5.15 4.65 5.4 4.6 5.9 3.85 4.85 2.25 5.05 2.05 5.55 2.05 8.0 2.2 8.35 2.15 8.6 1.75 10.45 1.35 M-8.25 5.3 L-9.75 6.45 -9.6 5.7 -9.3 4.2 -9.2 3.1 -9.15 2.25 -9.25 2.25 -10.3 1.65 -10.5 1.5 -10.35 -0.15 -10.35 -0.35 -10.0 -0.35 -9.95 0.45 -9.6 0.9 -7.65 1.45 -7.25 2.05 -6.5 2.25 -6.4 2.25 -6.35 2.3 -6.3 2.3 -5.7 1.75 -5.6 1.75 Q-4.85 1.75 -4.25 1.1 L-3.0 1.3 -2.75 1.05 Q-3.0 2.35 -3.75 2.85 L-4.75 3.8 -4.65 4.4 -6.15 6.3 -6.25 4.4 -6.8 4.15 -8.25 5.3 M0.45 0.9 L1.55 2.65 -1.3 2.3 -2.4 0.7 -2.25 0.5 0.45 0.9" fill="#5eaa2b" fill-rule="evenodd" stroke="none"/>
      <path d="M11.1 0.3 L11.1 0.5 11.1 0.65 11.15 1.2 10.75 1.25 10.45 1.35 8.6 1.75 8.35 2.15 8.0 2.2 5.55 2.05 Q6.0 1.95 6.35 1.65 L6.65 1.35 7.6 1.3 Q9.3 1.1 10.6 0.2 L11.1 0.3 M-10.5 1.5 L-10.6 1.45 -10.65 1.45 -10.35 -0.15 -10.5 1.5" fill="#66cc33" fill-rule="evenodd" stroke="none"/>
    </g>
    <g id="sprite1" transform="matrix(1.0, 0.0, 0.0, 1.0, 7.55, 9.95)">
      <use ffdec:characterId="2271" height="18.35" transform="matrix(1.0, 0.0, 0.0, 1.0, -7.55, -9.95)" width="17.55" xlink:href="#shape1"/>
    </g>
    <g id="shape1" transform="matrix(1.0, 0.0, 0.0, 1.0, 7.55, 9.95)">
      <path d="M4.2 5.45 Q1.7 8.25 -4.1 8.4 L-4.3 8.0 -5.15 7.7 Q-6.5 7.0 -6.95 5.65 L-6.75 4.75 -6.65 5.65 -6.15 6.1 -4.6 5.0 -4.15 5.2 -3.85 5.6 -4.25 6.35 -3.8 6.65 -2.85 6.25 Q0.85 7.65 2.45 4.05 L2.75 3.2 3.45 2.95 4.2 5.05 4.2 5.45 M-5.8 3.25 L-5.45 2.95 -5.3 1.55 Q-5.3 0.85 -5.95 -0.3 L-6.15 -0.7 -5.75 -0.5 -5.9 -1.7 -5.35 -2.0 -5.5 -1.6 -4.85 -0.15 Q-4.25 1.1 -4.25 2.3 L-4.25 2.5 -4.45 3.5 -4.3 3.7 -5.8 3.25 M-1.5 -5.7 L-0.8 -8.05 -0.45 -7.1 -0.1 -6.85 Q2.7 -6.7 4.65 -8.65 L5.05 -9.15 4.95 -8.85 4.2 -7.95 2.6 -6.75 1.65 -5.8 0.75 -5.05 -1.5 -5.7 M5.9 -6.9 Q6.75 -5.1 5.95 -3.45 L5.7 -2.9 3.95 -2.8 Q3.25 -2.8 2.8 -3.6 2.3 -4.4 2.3 -5.5 L3.9 -4.05 Q4.7 -3.9 5.25 -4.7 L5.7 -5.7 5.9 -6.9 M1.2 -4.45 L1.25 -4.3 1.05 -3.2 1.2 -4.45 M1.0 -2.7 L1.1 -1.9 Q1.4 -0.25 3.05 0.25 L2.45 1.25 1.65 0.95 1.0 1.85 1.5 2.55 0.9 3.5 Q-0.25 5.25 -2.35 5.15 L-3.65 4.2 -3.5 4.2 -3.35 4.2 Q-2.15 4.3 -1.45 3.35 -0.65 2.2 -0.7 0.85 -0.75 -1.65 -2.8 -2.45 L-2.95 -2.45 -3.5 -2.55 -1.9 -3.55 -1.7 -4.7 -0.25 -4.45 -0.85 -4.05 -1.2 -2.0 0.05 -1.6 1.0 -2.7" fill="#990000" fill-rule="evenodd" stroke="none"/>
      <path d="M-6.75 4.75 L-6.45 3.7 Q-6.2 3.25 -5.8 3.25 L-4.3 3.7 -3.65 4.2 -2.35 5.15 Q-0.25 5.25 0.9 3.5 L1.5 2.55 1.0 1.85 1.65 0.95 2.45 1.25 1.7 2.75 2.75 3.2 2.45 4.05 Q0.85 7.65 -2.85 6.25 L-3.8 6.65 -4.25 6.35 -3.85 5.6 -4.15 5.2 -4.6 5.0 -6.15 6.1 -6.65 5.65 -6.75 4.75 M-6.15 -0.7 L-7.55 -1.7 -7.05 -2.95 -6.4 -3.25 -5.1 -3.4 -3.95 -3.55 -1.5 -5.7 0.75 -5.05 1.2 -4.45 1.05 -3.2 1.0 -2.7 0.05 -1.6 -1.2 -2.0 -0.85 -4.05 -0.25 -4.45 -1.7 -4.7 -1.9 -3.55 -3.5 -2.55 -5.35 -2.0 -5.9 -1.7 -5.75 -0.5 -6.15 -0.7 M-0.8 -8.05 Q0.7 -10.55 3.6 -9.75 L4.35 -9.5 5.0 -9.35 5.05 -9.15 4.65 -8.65 Q2.7 -6.7 -0.1 -6.85 L-0.45 -7.1 -0.8 -8.05 M4.2 -7.95 L5.9 -6.9 5.7 -5.7 5.25 -4.7 Q4.7 -3.9 3.9 -4.05 L2.3 -5.5 2.6 -6.75 4.2 -7.95" fill="#ff0000" fill-rule="evenodd" stroke="none"/>
      <path d="M-3.65 4.2 L-4.3 3.7 -4.45 3.5 -4.25 2.5 -4.25 2.3 Q-4.25 1.1 -4.85 -0.15 L-5.5 -1.6 -5.35 -2.0 -3.5 -2.55 -2.95 -2.45 -2.8 -2.45 Q-0.75 -1.65 -0.7 0.85 -0.65 2.2 -1.45 3.35 -2.15 4.3 -3.35 4.2 L-3.5 4.2 -3.65 4.2" fill="#650101" fill-rule="evenodd" stroke="none"/>
      <path d="M4.95 -8.85 L5.8 -9.05 6.1 -9.15 6.5 -9.2 6.5 -9.15 6.5 -8.9 6.55 -8.4 9.15 -8.0 7.5 -6.25 10.0 -5.1 Q6.25 -4.85 6.4 -1.85 L6.3 -1.4 5.9 0.5 5.85 0.75 5.85 0.9 5.75 1.15 5.45 2.35 5.45 1.6 Q5.3 -0.4 3.65 -1.45 L3.95 -2.8 5.7 -2.9 5.95 -3.45 Q6.75 -5.1 5.9 -6.9 L4.2 -7.95 4.95 -8.85 M4.5 4.8 L4.2 5.45 4.2 5.05 4.5 4.8" fill="#66cc33" fill-rule="evenodd" stroke="none"/>
      <path d="M5.45 2.35 L5.0 3.8 4.9 3.85 4.85 3.95 4.5 4.8 4.2 5.05 3.45 2.95 2.75 3.2 1.7 2.75 2.45 1.25 3.05 0.25 Q1.4 -0.25 1.1 -1.9 L1.0 -2.7 1.05 -3.2 1.25 -4.3 1.2 -4.45 0.75 -5.05 1.65 -5.8 Q2.5 -3.9 2.8 -1.8 L3.65 -1.45 Q5.3 -0.4 5.45 1.6 L5.45 2.35" fill="#7b5515" fill-rule="evenodd" stroke="none"/>
      <path d="M3.95 -2.8 L3.65 -1.45 2.8 -1.8 Q2.5 -3.9 1.65 -5.8 L2.6 -6.75 2.3 -5.5 Q2.3 -4.4 2.8 -3.6 3.25 -2.8 3.95 -2.8" fill="#5eaa2b" fill-rule="evenodd" stroke="none"/>
    </g>
    <g id="sprite2" transform="matrix(1.0, 0.0, 0.0, 1.0, 9.15, 10.3)">
      <use ffdec:characterId="2273" height="18.45" transform="matrix(1.0, 0.0, 0.0, 1.0, -9.15, -10.3)" width="16.2" xlink:href="#shape2"/>
    </g>
    <g id="shape2" transform="matrix(1.0, 0.0, 0.0, 1.0, 9.15, 10.3)">
      <path d="M1.7 -7.2 L1.7 -7.15 1.8 -5.75 2.55 -5.2 -0.7 -4.65 -0.75 -3.45 -0.45 -3.0 -1.4 -1.65 Q-1.95 -0.55 -2.1 0.8 L-2.6 1.0 -2.6 -0.95 -2.0 -2.75 -1.95 -3.65 -3.15 -3.75 -4.15 -4.15 -4.05 -7.05 -2.5 -5.8 -1.7 -5.25 1.7 -7.2 M4.75 -2.6 L4.8 -1.65 4.85 -1.6 4.75 -1.65 3.95 -1.65 3.75 -1.55 3.7 -1.15 Q5.5 0.85 6.65 0.85 L7.0 0.8 7.05 1.35 7.0 1.65 6.35 4.65 4.4 3.35 4.8 1.65 4.8 1.45 Q4.8 1.05 2.7 -1.4 L2.35 -0.1 Q0.7 -0.15 0.0 1.5 -0.8 3.55 1.2 4.25 L2.15 4.3 2.85 3.95 6.45 5.15 6.85 5.95 6.45 7.65 2.15 8.15 0.05 7.9 -1.35 7.5 -2.1 7.25 -2.55 6.45 -2.35 5.45 -2.7 4.55 -4.7 4.35 -5.0 4.7 -5.6 4.7 -5.7 4.65 -6.1 4.35 Q-7.7 3.0 -6.85 1.15 L-5.9 0.35 -6.55 1.3 Q-6.25 2.95 -4.75 3.4 L-3.95 3.55 -3.2 2.8 -0.9 2.3 0.85 -1.0 -0.05 -2.0 1.2 -2.75 0.65 -3.65 1.05 -4.3 1.8 -3.8 Q3.0 -2.85 4.75 -2.6 M-3.95 -8.3 L-3.1 -9.7 -2.7 -9.1 -1.2 -9.05 -0.35 -8.05 -0.95 -8.05 -3.95 -8.3 M0.45 5.4 L0.4 6.0 2.15 6.95 5.05 6.85 4.7 5.45 0.45 5.4 M-2.7 1.05 L-3.2 1.25 -3.1 1.1 -3.1 1.05 -2.7 1.05" fill="#990000" fill-rule="evenodd" stroke="none"/>
      <path d="M2.55 -5.2 Q3.45 -5.2 4.1 -4.45 4.75 -3.7 4.75 -2.6 3.0 -2.85 1.8 -3.8 L1.05 -4.3 0.65 -3.65 1.2 -2.75 -0.05 -2.0 0.85 -1.0 -0.9 2.3 -3.2 2.8 -3.95 3.55 -4.75 3.4 Q-6.25 2.95 -6.55 1.3 L-5.9 0.35 -5.05 0.05 Q-4.35 0.05 -3.8 0.35 L-3.2 1.05 -3.2 1.25 -2.7 1.05 -2.6 1.0 -2.1 0.8 Q-1.95 -0.55 -1.4 -1.65 L-0.45 -3.0 -0.75 -3.45 -0.7 -4.65 2.55 -5.2 M4.85 -1.6 L5.8 -1.1 7.05 0.35 7.05 0.7 7.0 0.8 6.65 0.85 Q5.5 0.85 3.7 -1.15 L3.75 -1.55 3.95 -1.65 4.75 -1.65 4.85 -1.6 M6.35 4.65 L6.45 5.15 2.85 3.95 3.05 3.35 4.4 3.35 6.35 4.65 M-3.1 -9.7 L-2.6 -10.3 -1.7 -10.25 Q1.05 -9.9 1.7 -7.2 L-1.7 -5.25 -2.5 -5.8 -4.05 -7.05 -2.4 -8.05 -0.95 -8.05 -0.35 -8.05 -1.2 -9.05 -2.7 -9.1 -3.1 -9.7 M0.45 5.4 L4.7 5.45 5.05 6.85 2.15 6.95 0.4 6.0 0.45 5.4" fill="#ff0000" fill-rule="evenodd" stroke="none"/>
      <path d="M2.85 3.95 L2.15 4.3 1.2 4.25 Q-0.8 3.55 0.0 1.5 0.7 -0.15 2.35 -0.1 L2.7 -1.4 Q4.8 1.05 4.8 1.45 L4.8 1.65 4.4 3.35 3.05 3.35 2.85 3.95" fill="#650101" fill-rule="evenodd" stroke="none"/>
      <path d="M-6.9 0.45 L-6.9 0.1 -6.85 0.45 -6.9 0.45" fill="#ffffff" fill-rule="evenodd" stroke="none"/>
      <path d="M-5.6 -9.05 L-3.95 -8.3 -0.95 -8.05 -2.4 -8.05 -4.05 -7.05 -4.15 -4.15 -3.15 -3.75 -3.2 -3.65 Q-4.25 -2.25 -3.95 -0.45 L-3.8 0.35 Q-4.35 0.05 -5.05 0.05 L-5.45 -1.3 Q-5.9 -4.05 -5.7 -7.7 L-5.6 -9.05 M-3.1 1.05 L-3.1 1.1 -3.2 1.25 -3.2 1.05 -3.1 1.05" fill="#5eaa2b" fill-rule="evenodd" stroke="none"/>
      <path d="M-5.05 5.4 L-5.6 4.7 -5.0 4.7 -5.05 5.4 M-6.85 1.15 L-6.9 0.45 -6.85 0.45 -6.9 0.1 -6.9 -0.7 -6.75 -2.65 -6.8 -2.4 -9.15 -5.8 -7.6 -5.15 -6.7 -5.45 -6.25 -6.1 -5.85 -8.5 -5.75 -9.05 -5.75 -9.1 -5.7 -9.1 -5.6 -9.05 -5.7 -7.7 Q-5.9 -4.05 -5.45 -1.3 L-5.05 0.05 -5.9 0.35 -6.85 1.15" fill="#66cc33" fill-rule="evenodd" stroke="none"/>
      <path d="M-2.1 7.25 L-2.75 7.1 Q-4.15 6.55 -5.05 5.4 L-5.0 4.7 -4.7 4.35 -2.7 4.55 -2.35 5.45 -2.55 6.45 -2.1 7.25 M-3.15 -3.75 L-1.95 -3.65 -2.0 -2.75 -2.6 -0.95 -2.6 1.0 -2.7 1.05 -3.1 1.05 -3.2 1.05 -3.8 0.35 -3.95 -0.45 Q-4.25 -2.25 -3.2 -3.65 L-3.15 -3.75" fill="#7b5515" fill-rule="evenodd" stroke="none"/>
    </g>
  </defs>
</svg>
