<?xml version="1.0" encoding="UTF-8" standalone="no"?>
<svg xmlns:ffdec="https://www.free-decompiler.com/flash" xmlns:xlink="http://www.w3.org/1999/xlink" ffdec:objectType="frame" height="30.0px" width="130.0px" xmlns="http://www.w3.org/2000/svg">
  <g transform="matrix(1.0, 0.0, 0.0, 1.0, 0.0, 0.0)">
    <use ffdec:characterId="730" height="30.0" transform="matrix(1.0, 0.0, 0.0, 1.0, 0.0, 0.0)" width="130.0" xlink:href="#shape0"/>
    <use ffdec:characterId="732" height="7.0" id="arrows" transform="matrix(1.0, 0.0, 0.0, 1.0, 13.0, 3.0)" width="104.0" xlink:href="#sprite0"/>
  </g>
  <defs>
    <g id="shape0" transform="matrix(1.0, 0.0, 0.0, 1.0, 0.0, 0.0)">
      <path d="M130.0 30.0 L0.0 30.0 0.0 0.0 130.0 0.0 130.0 30.0" fill="url(#gradient0)" fill-rule="evenodd" stroke="none"/>
    </g>
    <linearGradient gradientTransform="matrix(0.0, 0.0183, -0.0793, 0.0, 65.0, 15.0)" gradientUnits="userSpaceOnUse" id="gradient0" spreadMethod="pad" x1="-819.2" x2="819.2">
      <stop offset="0.0" stop-color="#cccccc"/>
      <stop offset="0.47843137254901963" stop-color="#cccccc"/>
      <stop offset="1.0" stop-color="#cccccc" stop-opacity="0.0"/>
    </linearGradient>
    <g id="sprite0" transform="matrix(1.0, 0.0, 0.0, 1.0, 52.0, 3.5)">
      <use ffdec:characterId="731" height="7.0" transform="matrix(1.0, 0.0, 0.0, 1.0, -52.0, -3.5)" width="104.0" xlink:href="#shape1"/>
    </g>
    <g id="shape1" transform="matrix(1.0, 0.0, 0.0, 1.0, 52.0, 3.5)">
      <path d="M38.0 3.5 L45.0 -3.5 52.0 3.5 38.0 3.5 M7.0 3.5 L-7.0 3.5 0.0 -3.5 7.0 3.5 M-52.0 3.5 L-45.0 -3.5 -38.0 3.5 -52.0 3.5" fill="#ffff66" fill-opacity="0.13333334" fill-rule="evenodd" stroke="none"/>
    </g>
  </defs>
</svg>
