<?xml version="1.0" encoding="UTF-8" standalone="no"?>
<svg xmlns:ffdec="https://www.free-decompiler.com/flash" xmlns:xlink="http://www.w3.org/1999/xlink" ffdec:objectType="frame" height="73.65px" width="25.65px" xmlns="http://www.w3.org/2000/svg">
  <g transform="matrix(1.0, 0.0, 0.0, 1.0, 13.75, 34.55)">
    <use ffdec:characterId="1086" height="52.0" transform="matrix(1.0, 0.0, 0.0, 1.0, -13.15, -34.55)" width="24.7" xlink:href="#shape0"/>
    <use ffdec:characterId="1089" ffdec:characterName="game_fla.hand2_850" height="23.0" id="hand" transform="matrix(1.0, 0.0, 0.0, 1.0, -9.25, 16.1)" width="18.65" xlink:href="#sprite0"/>
    <use ffdec:characterId="1081" height="100.0" id="shape" transform="matrix(0.2, 0.0, 0.0, 0.65, -9.9991, -32.5012)" width="100.0" xlink:href="#sprite1"/>
  </g>
  <defs>
    <g id="shape0" transform="matrix(1.0, 0.0, 0.0, 1.0, 13.15, 34.55)">
      <path d="M-3.0 17.15 L-4.65 17.15 -4.65 17.0 -4.65 16.55 -3.0 17.15" fill="#583a30" fill-rule="evenodd" stroke="none"/>
      <path d="M-0.85 17.15 Q-1.15 17.45 -1.75 17.45 L-3.0 17.15 -4.65 16.55 -4.65 17.0 -4.65 17.15 -5.0 17.45 -5.35 17.15 -5.4 16.65 -5.2 15.45 -4.95 13.8 -4.75 12.25 -4.8 11.1 -4.55 11.35 -4.3 3.9 -4.15 3.9 Q-3.6 5.4 -3.3 8.95 -3.15 11.2 -2.7 12.65 -2.65 12.65 -2.55 12.75 -2.35 12.3 -2.3 11.6 -1.8 11.05 -1.45 7.85 L-1.35 6.6 Q-1.1 9.35 -1.0 15.05 L-0.5 16.05 Q-0.5 16.8 -0.85 17.15" fill="#ebbb98" fill-rule="evenodd" stroke="none"/>
      <path d="M-5.35 17.15 L-6.35 17.15 -6.35 16.6 Q-6.35 13.3 -8.65 4.45 L-11.45 -6.2 -13.05 -14.05 -13.15 -16.2 Q-13.2 -18.1 -12.55 -20.15 L-11.7 -23.4 -11.7 -23.6 -11.9 -25.35 -11.95 -25.95 -11.85 -26.85 -11.85 -26.9 -11.8 -27.05 -11.8 -27.1 Q-8.9 -31.05 -6.75 -32.55 -3.9 -34.55 0.2 -34.55 L3.8 -34.2 Q5.0 -33.9 7.05 -32.8 L8.3 -31.95 8.75 -31.5 Q9.4 -30.8 9.65 -29.85 11.5 -24.3 11.55 -21.4 11.55 -18.2 9.7 -7.25 7.85 3.65 7.6 8.5 L7.15 16.65 7.25 17.15 -0.85 17.15 Q-0.5 16.8 -0.5 16.05 L-1.0 15.05 Q-1.1 9.35 -1.35 6.6 L-1.45 7.85 Q-1.8 11.05 -2.3 11.6 -2.35 12.3 -2.55 12.75 -2.65 12.65 -2.7 12.65 -3.15 11.2 -3.3 8.95 -3.6 5.4 -4.15 3.9 L-4.3 3.9 -4.55 11.35 -4.8 11.1 -4.75 12.25 -4.95 13.8 -5.2 15.45 -5.4 16.65 -5.35 17.15" fill="#ffcc99" fill-rule="evenodd" stroke="none"/>
    </g>
    <g id="sprite0" transform="matrix(1.0, 0.0, 0.0, 1.0, 9.65, 9.2)">
      <use ffdec:characterId="1087" height="18.45" transform="matrix(1.0, 0.0, 0.0, 1.0, -8.3, -9.2)" width="16.6" xlink:href="#shape1"/>
    </g>
    <g id="shape1" transform="matrix(1.0, 0.0, 0.0, 1.0, 8.3, 9.2)">
      <path d="M-0.3 -8.2 L-2.75 -8.45 -4.35 -8.85 -4.5 -8.65 -5.75 -8.8 -5.75 -9.2 -0.8 -9.2 -0.3 -8.2 M-1.7 8.0 L-2.95 7.75 -3.6 7.45 -3.8 7.35 -4.45 6.5 Q-5.05 5.3 -5.4 5.3 L-6.0 5.05 Q-7.4 4.3 -6.6 2.6 -8.75 1.9 -8.2 0.0 L-7.6 -0.8 -7.4 -1.1 -7.3 -1.25 -7.2 -1.45 -7.0 -1.6 -5.4 -2.15 -6.2 -1.25 -5.05 0.7 -5.6 1.85 -5.75 2.3 Q-6.2 3.85 -5.4 5.3 L-5.65 3.35 -4.7 1.55 -3.6 1.15 Q-3.2 0.25 -3.05 -1.0 L-2.95 -2.0 -2.4 -2.1 -2.65 -0.65 -2.7 0.1 Q-2.7 1.3 -3.05 1.4 L-2.85 2.25 -3.2 2.25 Q-4.75 1.6 -4.65 2.45 -4.55 3.35 -3.55 3.95 L-2.35 4.75 -2.75 5.65 -2.4 6.75 -2.35 6.75 -1.6 6.5 -1.4 5.8 -1.7 5.0 -1.05 5.05 -0.45 4.85 -0.25 4.55 0.05 4.0 0.55 2.85 1.05 3.3 2.45 3.05 2.2 2.15 1.7 1.8 1.45 1.7 1.85 1.3 Q2.5 1.45 2.85 2.45 L3.4 4.5 3.9 5.1 3.4 5.6 2.95 6.05 2.45 6.55 1.8 7.15 1.65 7.2 1.25 6.2 1.15 5.9 0.4 5.1 0.25 5.15 -0.35 5.4 -0.45 5.45 Q-1.0 5.8 -1.0 6.1 -1.0 7.55 -0.45 8.0 L-0.1 8.15 -0.15 8.15 -0.45 8.35 -0.7 8.35 Q-1.45 8.35 -1.7 8.0 M-3.45 4.3 Q-4.1 4.7 -4.0 6.05 L-3.95 6.85 Q-3.35 6.15 -3.1 5.3 L-3.45 4.3" fill="#ebbb98" fill-rule="evenodd" stroke="none"/>
      <path d="M6.7 -8.8 L4.95 -8.5 2.0 -8.15 -0.3 -8.2 -0.8 -9.2 6.65 -9.2 6.7 -8.8 M-2.75 -8.45 L-2.85 -8.45 -4.5 -8.65 -4.35 -8.85 -2.75 -8.45 M-2.4 -2.1 L-1.6 -2.15 Q0.35 -2.15 1.2 -1.55 1.95 -1.0 2.45 0.65 L1.85 1.3 1.45 1.7 0.55 2.85 0.05 4.0 -0.25 4.55 -0.45 4.85 -1.05 5.05 -1.7 5.0 -2.35 4.75 -3.55 3.95 Q-4.55 3.35 -4.65 2.45 -4.75 1.6 -3.2 2.25 L-2.85 2.25 -3.05 1.4 Q-2.7 1.3 -2.7 0.1 L-2.65 -0.65 -2.4 -2.1 M3.9 5.1 L3.95 5.1 4.65 5.75 5.0 6.6 5.15 7.25 Q4.25 7.8 3.75 7.95 2.65 8.15 1.7 8.85 0.75 9.45 -0.25 9.15 L-0.45 9.1 Q-1.4 8.85 -1.7 8.0 -1.45 8.35 -0.7 8.35 L-0.45 8.35 -0.15 8.15 -0.1 8.15 -0.45 8.0 Q-1.0 7.55 -1.0 6.1 -1.0 5.8 -0.45 5.45 L-0.35 5.4 0.25 5.15 0.4 5.1 1.15 5.9 1.25 6.2 1.65 7.2 1.8 7.15 2.45 6.55 2.95 6.05 3.4 5.6 3.9 5.1 M-7.4 -1.1 L-7.35 -1.35 -7.2 -1.45 -7.3 -1.25 -7.4 -1.1 M-6.8 -8.9 L-6.85 -9.2 -5.75 -9.2 -5.75 -8.8 -6.8 -8.9" fill="#ffcc99" fill-rule="evenodd" stroke="none"/>
      <path d="M-5.4 -2.15 L-5.1 -2.15 Q-4.35 -2.15 -3.65 -1.6 -3.5 -1.9 -2.95 -2.0 L-3.05 -1.0 Q-3.2 0.25 -3.6 1.15 L-4.7 1.55 -5.65 3.35 -5.4 5.3 Q-6.2 3.85 -5.75 2.3 L-5.6 1.85 -5.05 0.7 -6.2 -1.25 -5.4 -2.15 M-2.35 4.75 L-1.7 5.0 -1.4 5.8 -1.6 6.5 -2.35 6.75 -2.4 6.75 -2.75 5.65 -2.35 4.75 M0.55 2.85 L1.45 1.7 1.7 1.8 2.2 2.15 2.45 3.05 1.05 3.3 0.55 2.85 M-3.45 4.3 L-3.1 5.3 Q-3.35 6.15 -3.95 6.85 L-4.0 6.05 Q-4.1 4.7 -3.45 4.3" fill="#e2b181" fill-rule="evenodd" stroke="none"/>
      <path d="M6.7 -8.8 L7.05 -6.2 7.55 -4.5 Q8.55 -1.25 8.2 0.4 L8.1 1.05 Q7.8 3.75 7.3 5.05 L6.55 6.2 5.75 6.9 5.45 7.05 5.15 7.25 5.0 6.6 4.65 5.75 3.95 5.1 3.9 5.1 4.55 4.55 4.1 3.6 Q3.6 2.95 3.8 1.0 L2.7 0.4 2.45 0.65 Q1.95 -1.0 1.2 -1.55 0.35 -2.15 -1.6 -2.15 L-2.4 -2.1 -2.2 -2.7 -1.5 -3.8 -1.45 -4.5 -1.7 -5.35 -3.4 -6.4 -4.0 -6.55 -3.95 -6.85 -4.25 -7.8 -4.55 -8.55 -4.5 -8.65 -2.85 -8.45 -2.75 -8.45 -0.3 -8.2 2.0 -8.15 4.95 -8.5 6.7 -8.8 M-7.35 -1.35 L-7.35 -1.45 Q-7.3 -2.25 -7.4 -3.05 L-7.45 -4.2 -7.45 -4.5 Q-7.7 -6.55 -6.85 -8.3 L-6.8 -8.9 -5.75 -8.8 -5.8 -8.15 -5.6 -6.25 -6.0 -6.0 Q-6.4 -5.65 -6.3 -4.5 L-6.3 -4.35 Q-6.55 -2.35 -7.15 -1.55 L-7.2 -1.45 -7.35 -1.35" fill="#313531" fill-rule="evenodd" stroke="none"/>
      <path d="M-4.5 -8.65 L-4.55 -8.55 -4.25 -7.8 -3.95 -6.85 -4.0 -6.55 -3.4 -6.4 -1.7 -5.35 -1.45 -4.5 -1.5 -3.8 -2.2 -2.7 -2.4 -2.1 -2.95 -2.0 Q-3.5 -1.9 -3.65 -1.6 -4.35 -2.15 -5.1 -2.15 L-5.4 -2.15 -7.0 -1.6 -7.2 -1.45 -7.15 -1.55 Q-6.55 -2.35 -6.3 -4.35 L-6.3 -4.5 Q-6.4 -5.65 -6.0 -6.0 L-5.6 -6.25 -5.8 -8.15 -5.75 -8.8 -4.5 -8.65 M2.45 0.65 L2.7 0.4 3.8 1.0 Q3.6 2.95 4.1 3.6 L4.55 4.55 3.9 5.1 3.4 4.5 2.85 2.45 Q2.5 1.45 1.85 1.3 L2.45 0.65" fill="#242724" fill-rule="evenodd" stroke="none"/>
    </g>
    <g id="sprite1" transform="matrix(1.0, 0.0, 0.0, 1.0, 50.0, 50.0)">
      <use ffdec:characterId="1080" height="100.0" transform="matrix(1.0, 0.0, 0.0, 1.0, -50.0, -50.0)" width="100.0" xlink:href="#shape2"/>
    </g>
    <g id="shape2" transform="matrix(1.0, 0.0, 0.0, 1.0, 50.0, 50.0)">
      <path d="M50.0 50.0 L-50.0 50.0 -50.0 -50.0 50.0 -50.0 50.0 50.0 Z" fill="none" stroke="#9900ff" stroke-linecap="round" stroke-linejoin="round" stroke-width="0.05"/>
    </g>
  </defs>
</svg>
