<?xml version="1.0" encoding="UTF-8" standalone="no"?>
<svg xmlns:ffdec="https://www.free-decompiler.com/flash" xmlns:xlink="http://www.w3.org/1999/xlink" ffdec:objectType="frame" height="79.9px" width="40.25px" xmlns="http://www.w3.org/2000/svg">
  <g transform="matrix(1.0, 0.0, 0.0, 1.0, 14.25, 38.15)">
    <use ffdec:characterId="2314" height="64.75" transform="matrix(1.0, 0.0, 0.0, 1.0, -11.0, -36.6)" width="23.3" xlink:href="#shape0"/>
    <use ffdec:characterId="2313" height="20.9" transform="matrix(1.0, 0.0, 0.0, 1.0, -14.25, 20.85)" width="40.25" xlink:href="#shape1"/>
  </g>
  <defs>
    <g id="shape0" transform="matrix(1.0, 0.0, 0.0, 1.0, 11.0, 36.6)">
      <path d="M2.9 -33.25 Q3.35 -33.6 4.35 -33.75 L4.55 -34.55 Q4.55 -35.05 4.8 -35.25 5.45 -35.8 5.9 -35.5 L6.25 -34.75 Q6.4 -33.3 5.85 -31.8 L5.65 -31.0 Q5.2 -31.05 5.3 -30.0 L5.3 -29.9 4.3 -21.85 3.6 -22.15 3.6 -22.9 2.15 -25.4 2.55 -25.85 2.05 -26.95 1.65 -27.15 1.85 -28.0 2.1 -30.5 2.3 -30.85 Q3.0 -32.25 2.95 -32.8 L2.9 -33.25 M8.65 -22.55 L9.45 -22.9 9.45 -23.65 10.45 -23.8 11.5 -24.65 12.3 -23.9 11.95 -22.15 Q11.4 -19.55 10.2 -17.2 L9.35 -17.5 8.25 -16.85 8.7 -13.65 8.0 -11.4 6.4 -5.0 5.95 -5.25 5.6 -10.95 8.65 -22.55 M8.65 -19.85 Q8.35 -19.45 8.4 -19.0 8.45 -18.5 8.8 -18.2 9.1 -17.9 9.45 -17.9 L10.05 -18.35 10.2 -19.2 9.9 -20.0 9.2 -20.25 Q8.85 -20.25 8.65 -19.85" fill="#ffffff" fill-rule="evenodd" stroke="none"/>
      <path d="M2.0 -36.35 L2.25 -36.6 2.5 -36.45 2.0 -36.35 M3.15 -36.15 L3.3 -36.15 3.35 -35.75 3.15 -36.15 M9.3 -26.5 L9.45 -26.55 9.45 -26.35 9.3 -26.5 M3.9 -19.7 L4.2 -17.7 5.15 -17.7 5.3 -16.3 4.0 -14.7 4.5 -4.35 5.55 -3.35 4.45 7.05 4.2 6.15 3.8 -2.7 3.4 -3.9 3.65 -6.55 3.6 -15.8 3.45 -17.1 2.8 -18.85 2.35 -20.05 2.4 -20.25 Q2.95 -19.9 3.15 -19.85 L3.9 -19.7 M-9.95 -8.95 L-7.95 -8.45 -6.2 -10.85 -3.1 -15.2 -1.8 -9.25 -1.6 -9.15 -2.05 -8.25 -2.7 -6.3 -2.8 -6.3 -2.85 -5.6 -3.2 0.55 Q-3.2 5.45 -4.6 9.0 -6.0 6.8 -6.55 4.3 L-7.25 1.05 -8.2 -2.95 -8.7 -4.8 -9.95 -8.95" fill="#d5a675" fill-rule="evenodd" stroke="none"/>
      <path d="M5.3 -29.9 L6.65 -28.0 5.45 -26.35 6.05 -23.8 5.65 -23.1 7.2 -22.0 7.45 -23.1 7.85 -22.65 8.65 -22.55 5.6 -10.95 5.1 -14.45 5.5 -14.7 5.3 -16.3 5.15 -17.7 4.2 -17.7 3.9 -19.7 4.6 -19.6 5.45 -19.2 6.2 -18.8 7.25 -19.35 7.7 -20.85 4.3 -21.85 5.3 -29.9 M-10.8 -21.35 L-10.9 -21.65 -10.75 -22.1 -10.1 -22.95 -10.35 -22.1 -7.1 -24.15 -7.35 -25.05 -6.75 -26.25 -7.05 -27.2 -5.65 -27.6 -4.7 -27.1 -4.55 -27.15 -4.35 -27.3 -3.8 -27.45 -3.4 -27.75 -2.9 -28.3 -2.95 -28.6 -3.1 -28.95 -3.3 -29.35 -3.8 -29.85 -3.95 -30.15 -1.2 -33.2 -0.7 -33.0 -1.15 -32.1 -1.6 -31.15 -2.15 -30.4 -2.8 -29.65 -2.1 -28.85 -1.35 -29.45 -1.4 -28.25 -2.05 -27.65 -1.45 -26.9 -1.5 -25.55 1.15 -24.95 3.55 -21.5 Q-0.25 -21.3 -0.9 -18.2 -0.75 -19.3 -0.85 -20.5 L-2.85 -22.65 -1.5 -24.05 -2.6 -27.15 -3.65 -26.2 Q-4.95 -25.2 -5.35 -25.15 L-6.4 -25.4 -6.5 -24.55 -6.6 -24.35 -7.0 -23.0 Q-7.6 -21.5 -8.4 -21.4 L-8.8 -21.65 -9.15 -21.2 -9.8 -20.7 Q-10.2 -20.65 -10.6 -21.15 L-10.8 -21.35 M-9.35 -24.1 L-9.45 -24.3 -10.1 -25.8 -10.0 -26.3 -9.4 -25.85 -8.3 -25.15 -9.35 -24.1 M1.95 -36.3 L2.0 -36.35 2.5 -36.45 3.15 -36.15 3.35 -35.75 3.4 -35.4 Q3.45 -34.5 2.8 -33.45 L2.9 -33.25 2.95 -32.8 Q3.0 -32.25 2.3 -30.85 L2.1 -30.5 1.85 -28.0 1.65 -27.15 1.15 -26.65 1.1 -25.1 0.15 -28.2 -0.8 -28.1 0.65 -29.35 0.65 -30.65 0.25 -30.85 2.3 -31.65 2.4 -32.2 1.3 -33.4 2.25 -33.7 1.9 -34.45 1.35 -34.8 2.15 -35.35 1.95 -36.3" fill="#990000" fill-rule="evenodd" stroke="none"/>
      <path d="M6.65 -28.0 L6.8 -27.7 6.9 -27.25 6.5 -26.25 6.95 -25.65 Q7.75 -24.5 7.45 -23.1 L7.2 -22.0 5.65 -23.1 6.05 -23.8 5.45 -26.35 6.65 -28.0 M10.2 -17.2 L10.25 -16.1 8.7 -13.65 8.25 -16.85 9.35 -17.5 10.2 -17.2 M-10.1 -22.95 L-9.35 -24.1 -8.3 -25.15 -9.4 -25.85 -10.0 -26.3 -9.6 -26.7 -3.8 -29.85 -3.3 -29.35 -3.1 -28.95 -2.95 -28.6 -2.9 -28.3 -3.4 -27.75 -3.8 -27.45 -4.35 -27.3 -4.55 -27.15 -4.7 -27.1 -5.65 -27.6 -7.05 -27.2 -6.75 -26.25 -7.35 -25.05 -7.1 -24.15 -10.35 -22.1 -10.1 -22.95 M-1.2 -33.2 L-1.45 -34.1 0.75 -36.25 1.95 -36.3 2.15 -35.35 1.35 -34.8 1.9 -34.45 2.25 -33.7 1.3 -33.4 2.4 -32.2 2.3 -31.65 0.25 -30.85 0.65 -30.65 0.65 -29.35 -0.8 -28.1 0.15 -28.2 1.1 -25.1 1.15 -26.65 1.65 -27.15 2.05 -26.95 2.55 -25.85 2.15 -25.4 3.6 -22.9 3.6 -22.15 4.3 -21.85 7.7 -20.85 7.25 -19.35 6.2 -18.8 5.45 -19.2 4.6 -19.6 3.9 -19.7 3.15 -19.85 Q2.95 -19.9 2.4 -20.25 L2.35 -20.05 1.25 -18.85 Q0.0 -17.35 -0.45 -17.3 L-1.05 -17.35 -1.2 -17.65 -0.9 -18.2 Q-0.25 -21.3 3.55 -21.5 L1.15 -24.95 -1.5 -25.55 -1.45 -26.9 -2.05 -27.65 -1.4 -28.25 -1.35 -29.45 -2.1 -28.85 -2.8 -29.65 -2.15 -30.4 -1.6 -31.15 -1.15 -32.1 -0.7 -33.0 -1.2 -33.2 M5.3 -16.3 L5.5 -14.7 5.1 -14.45 5.6 -10.95 5.95 -5.25 6.4 -5.0 6.25 -3.45 5.55 -3.35 4.5 -4.35 4.0 -14.7 5.3 -16.3 M8.65 -19.85 Q8.85 -20.25 9.2 -20.25 L9.9 -20.0 10.2 -19.2 10.05 -18.35 9.45 -17.9 Q9.1 -17.9 8.8 -18.2 8.45 -18.5 8.4 -19.0 8.35 -19.45 8.65 -19.85" fill="#ff0000" fill-rule="evenodd" stroke="none"/>
      <path d="M8.0 -11.4 L7.45 -7.1 7.0 -3.45 6.6 3.1 6.75 9.85 6.85 13.2 5.3 13.2 3.6 13.6 3.9 11.55 3.95 11.5 3.6 10.1 2.7 6.1 2.65 5.65 Q1.95 6.9 1.75 10.25 L1.65 11.85 1.35 10.55 1.65 13.8 1.65 13.95 1.55 13.95 -6.25 15.4 -6.7 15.6 -6.4 11.55 -6.35 10.85 Q-6.25 7.75 -6.75 4.35 L-6.55 4.3 Q-6.0 6.8 -4.6 9.0 -3.2 5.45 -3.2 0.55 L-2.85 -5.6 -2.8 -6.3 -2.7 -6.3 -2.05 -8.25 -1.6 -9.15 -1.8 -9.25 -3.1 -15.2 -6.2 -10.85 -7.95 -8.45 -9.95 -8.95 -10.15 -8.95 -10.7 -11.55 -10.8 -14.45 -11.0 -17.1 -10.95 -20.4 -10.8 -21.35 -10.6 -21.15 Q-10.2 -20.65 -9.8 -20.7 L-9.15 -21.2 -8.8 -21.65 -8.4 -21.4 Q-7.6 -21.5 -7.0 -23.0 L-6.6 -24.35 -6.5 -24.55 -6.4 -25.4 -5.35 -25.15 Q-4.95 -25.2 -3.65 -26.2 L-2.6 -27.15 -1.5 -24.05 -2.85 -22.65 -0.85 -20.5 Q-0.75 -19.3 -0.9 -18.2 L-1.2 -17.65 -1.05 -17.35 -0.45 -17.3 Q0.0 -17.35 1.25 -18.85 L2.35 -20.05 2.8 -18.85 3.45 -17.1 3.6 -15.8 3.65 -6.55 3.4 -3.9 3.8 -2.7 4.2 6.15 4.45 7.05 5.55 -3.35 6.25 -3.45 6.4 -5.0 8.0 -11.4" fill="#e2b181" fill-rule="evenodd" stroke="none"/>
      <path d="M1.65 11.85 L1.75 10.25 Q1.95 6.9 2.65 5.65 L2.7 6.1 3.6 10.1 3.95 11.5 3.9 11.55 3.6 13.6 3.5 13.6 1.65 13.95 1.65 13.8 1.65 11.85" fill="#f4c398" fill-rule="evenodd" stroke="none"/>
      <path d="M1.65 13.8 L1.35 10.55 1.65 11.85 1.65 13.8" fill="#ebbb98" fill-rule="evenodd" stroke="none"/>
      <path d="M-6.75 4.35 L-7.4 1.05 -8.5 -2.9 -9.05 -4.7 -10.15 -8.95 -9.95 -8.95 -8.7 -4.8 -8.2 -2.95 -7.25 1.05 -6.55 4.3 -6.75 4.35" fill="#ffcc99" fill-rule="evenodd" stroke="none"/>
      <path d="M6.85 13.2 L7.1 13.2 7.45 16.8 7.75 19.3 Q7.85 21.1 7.0 22.65 4.05 28.15 -2.2 28.15 L-3.55 28.05 Q-9.05 27.3 -7.3 20.9 L-7.2 19.45 -7.3 15.9 -6.7 15.6 -6.25 15.4 1.55 13.95 1.65 14.65 2.2 17.5 3.05 19.7 3.35 20.35 4.15 21.65 4.35 22.0 4.4 21.7 Q4.45 20.25 3.95 18.8 L3.5 16.85 3.4 14.95 3.5 13.6 3.6 13.6 5.3 13.2 6.85 13.2 M-0.85 16.05 L-1.1 16.35 -3.0 18.45 -3.45 19.0 Q-4.2 20.1 -4.0 21.9 L-3.8 22.5 -2.75 24.5 -1.5 18.85 -0.85 16.05" fill="#d9d9d9" fill-rule="evenodd" stroke="none"/>
      <path d="M3.5 13.6 L3.4 14.95 3.5 16.85 3.95 18.8 Q4.45 20.25 4.4 21.7 L4.35 22.0 4.15 21.65 3.35 20.35 3.05 19.7 2.2 17.5 1.65 14.65 1.55 13.95 1.65 13.95 3.5 13.6 M-0.85 16.05 L-1.5 18.85 -2.75 24.5 -3.8 22.5 -4.0 21.9 Q-4.2 20.1 -3.45 19.0 L-3.0 18.45 -1.1 16.35 -0.85 16.05" fill="#aaaaaa" fill-rule="evenodd" stroke="none"/>
    </g>
    <g id="shape1" transform="matrix(1.0, 0.0, 0.0, 1.0, 14.25, -20.85)">
      <path d="M-13.35 31.25 L-12.95 28.3 Q-12.7 26.45 -11.4 23.7 -10.0 20.7 -8.9 20.85 L-6.9 21.75 Q-5.1 22.65 -2.65 22.95 -0.35 23.25 3.55 22.95 6.85 22.75 7.15 22.95 7.6 23.2 7.9 23.8 L8.2 24.35 7.3 24.65 Q5.95 25.25 5.1 26.1 L4.75 26.5 5.4 26.75 8.7 25.3 8.75 25.3 9.2 25.9 Q7.8 26.55 6.85 27.7 L5.95 28.85 7.55 28.4 Q9.05 27.8 10.25 26.85 L10.6 27.1 10.95 27.25 8.4 30.25 9.1 30.85 10.15 29.95 12.3 28.1 12.8 28.4 10.75 31.05 10.4 31.6 10.9 31.8 11.85 31.5 Q13.3 30.75 14.3 29.2 L14.8 29.5 13.0 32.0 12.5 32.5 13.35 33.05 14.05 32.65 16.1 30.25 16.7 30.6 17.15 30.85 15.05 33.25 15.25 34.2 15.9 33.95 Q17.45 33.1 18.4 31.55 L18.45 31.55 19.15 31.95 19.45 32.15 20.65 32.9 19.45 32.65 18.85 33.5 18.05 34.5 17.65 35.55 17.45 35.95 20.55 36.7 23.35 37.3 24.1 37.4 22.2 37.45 20.85 37.3 13.7 35.85 11.65 35.4 3.05 34.1 -13.25 31.75 -13.35 31.25 M-14.25 34.9 L-14.2 34.5 -13.6 34.65 -10.1 35.35 -5.25 35.85 -3.85 36.05 4.8 37.05 11.4 38.85 7.85 38.2 2.95 37.2 -2.85 36.55 -8.5 35.95 -13.65 35.05 -14.25 34.9" fill="#000000" fill-rule="evenodd" stroke="none"/>
      <path d="M8.2 24.35 L8.7 25.3 5.4 26.75 4.75 26.5 5.1 26.1 Q5.95 25.25 7.3 24.65 L8.2 24.35 M9.2 25.9 L10.25 26.85 Q9.05 27.8 7.55 28.4 L5.95 28.85 6.85 27.7 Q7.8 26.55 9.2 25.9 M10.95 27.25 L12.3 28.1 10.15 29.95 9.1 30.85 8.4 30.25 10.95 27.25 M12.8 28.4 L14.3 29.2 Q13.3 30.75 11.85 31.5 L10.9 31.8 10.4 31.6 10.75 31.05 12.8 28.4 M14.8 29.5 L16.1 30.25 14.05 32.65 13.35 33.05 12.5 32.5 13.0 32.0 14.8 29.5 M17.15 30.85 L18.4 31.55 Q17.45 33.1 15.9 33.95 L15.25 34.2 15.05 33.25 17.15 30.85 M20.65 32.9 Q22.25 33.2 23.5 33.9 L24.2 34.4 Q25.2 35.1 25.6 35.9 L25.8 36.75 Q26.15 38.25 25.85 39.65 L25.85 39.85 25.95 40.55 25.75 41.45 Q23.25 42.05 19.7 41.5 L0.3 37.9 -0.75 37.75 -5.6 37.3 -10.55 37.0 -11.55 36.9 -13.85 36.45 -14.2 35.35 -14.25 34.9 -13.65 35.05 -8.5 35.95 -2.85 36.55 2.95 37.2 7.85 38.2 11.4 38.85 4.8 37.05 -3.85 36.05 -5.25 35.85 -10.1 35.35 -13.6 34.65 -14.2 34.5 -13.35 31.25 -13.25 31.75 3.05 34.1 11.65 35.4 13.7 35.85 20.85 37.3 22.2 37.45 24.1 37.4 23.35 37.3 20.55 36.7 17.45 35.95 17.65 35.55 18.05 34.5 18.85 33.5 19.45 32.65 20.65 32.9" fill="#ffffff" fill-rule="evenodd" stroke="none"/>
      <path d="M8.7 25.3 L8.75 25.3" fill="none" stroke="#943965" stroke-linecap="round" stroke-linejoin="round" stroke-width="0.05"/>
    </g>
  </defs>
</svg>
