<?xml version="1.0" encoding="UTF-8" standalone="no"?>
<svg xmlns:ffdec="https://www.free-decompiler.com/flash" xmlns:xlink="http://www.w3.org/1999/xlink" ffdec:objectType="frame" height="79.9px" width="40.25px" xmlns="http://www.w3.org/2000/svg">
  <g transform="matrix(1.0, 0.0, 0.0, 1.0, 14.25, 38.15)">
    <use ffdec:characterId="2315" height="62.5" transform="matrix(1.0, 0.0, 0.0, 1.0, -11.0, -38.15)" width="20.45" xlink:href="#shape0"/>
  </g>
  <defs>
    <g id="shape0" transform="matrix(1.0, 0.0, 0.0, 1.0, 11.0, 38.15)">
      <path d="M3.35 -35.7 L4.7 -37.65 6.4 -37.7 Q7.95 -36.55 8.85 -34.1 L9.2 -33.0 9.45 -28.95 8.75 -30.85 8.15 -30.8 7.25 -31.4 3.7 -28.85 2.85 -30.3 2.7 -33.1 3.35 -35.7 M8.25 -14.2 L7.45 -7.1 7.0 -3.45 6.9 -1.25 6.6 2.4 6.6 3.1 6.7 8.85 6.75 9.65 6.75 9.85 6.75 10.15 6.8 12.15 5.9 12.4 Q5.65 10.5 4.4 10.4 L3.55 10.15 3.5 9.7 2.7 6.1 2.65 5.65 Q2.05 6.8 1.8 9.7 L1.65 11.85 1.35 10.55 1.55 13.2 0.8 13.25 0.95 12.5 0.7 11.0 0.3 10.7 0.45 10.05 0.6 8.75 Q0.45 7.5 -0.25 7.2 -1.2 6.6 -2.3 7.5 L-2.7 7.9 Q-3.7 8.6 -4.05 9.75 L-4.15 10.5 -1.8 12.2 -2.0 12.9 -4.15 11.8 -5.65 10.75 -6.4 11.55 -6.35 9.7 Q-6.35 7.6 -6.65 5.2 L-6.75 4.35 -6.55 4.3 -6.4 4.85 Q-5.85 7.05 -4.6 9.0 L-3.6 5.65 -2.35 5.5 Q-1.55 4.9 -1.4 4.0 L-1.3 2.85 Q-0.4 2.85 0.15 2.35 L0.4 2.05 0.15 0.55 -0.95 0.2 -2.55 0.9 -3.2 0.65 -3.2 0.55 -3.15 -0.75 -3.2 -1.3 -2.85 -5.6 -2.8 -6.3 -2.7 -6.3 -2.05 -8.25 -1.6 -9.15 -1.8 -9.25 -3.1 -15.2 -6.2 -10.85 -7.95 -8.45 -9.95 -8.95 -10.15 -8.95 -10.7 -11.55 -10.8 -14.45 -11.0 -17.1 -10.95 -20.4 -10.25 -27.8 Q-1.75 -34.95 -0.35 -34.05 -0.2 -34.1 -0.5 -33.65 L-1.4 -32.7 -3.15 -30.1 -0.1 -27.4 Q1.2 -23.1 2.8 -18.85 L3.45 -17.1 3.6 -15.8 3.65 -6.55 3.4 -3.9 3.8 -2.7 4.2 6.15 4.45 7.05 5.1 1.5 5.35 -1.25 5.85 -6.85 5.85 -6.9 Q7.45 -10.4 8.15 -14.25 L8.25 -14.2" fill="#e2b181" fill-rule="evenodd" stroke="none"/>
      <path d="M9.45 -28.95 L9.4 -23.0 8.55 -16.7 8.2 -14.5 8.15 -14.25 Q7.45 -10.4 5.85 -6.9 L5.85 -6.85 5.35 -1.25 5.1 1.5 4.45 7.05 4.2 6.15 3.8 -2.7 3.4 -3.9 3.65 -6.55 3.6 -15.8 3.45 -17.1 2.8 -18.85 Q1.2 -23.1 -0.1 -27.4 L-3.15 -30.1 -1.4 -32.7 -0.5 -33.65 Q-0.2 -34.1 -0.35 -34.05 L-0.1 -34.3 2.25 -36.6 3.3 -36.15 3.35 -35.7 2.7 -33.1 2.85 -30.3 3.7 -28.85 7.25 -31.4 8.15 -30.8 8.75 -30.85 9.45 -28.95 M-3.6 5.65 L-4.6 9.0 Q-5.85 7.05 -6.4 4.85 L-6.55 4.3 -7.25 1.05 -7.8 -1.3 -8.2 -2.95 -8.7 -4.8 -9.95 -8.95 -7.95 -8.45 -6.2 -10.85 -3.1 -15.2 -1.8 -9.25 -1.6 -9.15 -2.05 -8.25 -2.7 -6.3 -2.8 -6.3 -2.85 -5.6 -3.2 -1.3 -3.15 -0.75 -3.2 0.55 -3.2 0.65 -5.25 0.75 Q-6.55 2.65 -5.2 4.55 -4.65 5.35 -3.6 5.65" fill="#d5a675" fill-rule="evenodd" stroke="none"/>
      <path d="M8.55 -16.7 L8.25 -14.2 8.15 -14.25 8.2 -14.5 8.55 -16.7 M-6.75 4.35 L-7.4 1.05 -8.05 -1.35 -8.5 -2.9 -9.05 -4.7 -10.15 -8.95 -9.95 -8.95 -8.7 -4.8 -8.2 -2.95 -7.8 -1.3 -7.25 1.05 -6.55 4.3 -6.75 4.35" fill="#ffcc99" fill-rule="evenodd" stroke="none"/>
      <path d="M5.4 15.85 L4.15 21.7 3.45 21.75 3.3 14.65 Q3.65 14.6 3.7 14.35 L3.65 14.15 3.9 12.75 2.95 11.8 3.05 11.3 Q3.4 10.4 4.4 10.4 5.65 10.5 5.9 12.4 L5.9 12.55 4.85 14.5 5.4 15.85 M1.15 19.2 L0.75 19.6 0.3 19.7 Q-0.7 20.0 -1.4 19.15 L-1.1 17.75 -4.3 17.15 -3.9 15.85 -3.1 16.1 -5.45 13.9 -5.15 12.85 Q-3.05 12.3 -1.25 13.75 -0.9 14.05 -0.8 14.5 -0.65 14.7 -0.65 15.15 L-0.8 15.25 -0.8 15.3 -1.5 15.35 -1.85 15.0 -2.75 16.15 1.1 17.05 1.15 19.2 M-2.55 0.9 L-0.95 0.2 0.15 0.55 0.4 2.05 0.15 2.35 Q-0.4 2.85 -1.3 2.85 L-2.15 3.85 -4.5 3.5 -4.9 3.1 -4.9 2.55 Q-4.5 0.75 -2.55 0.9 M0.3 10.7 L0.7 11.0 0.95 12.5 0.0 13.35 Q-1.05 12.75 -1.35 11.4 L-1.55 10.5 -2.4 10.3 -3.0 9.5 -2.7 7.9 -2.3 7.5 Q-1.2 6.6 -0.25 7.2 L-0.2 7.5 -0.1 8.7 -0.3 9.95 -0.35 10.35 0.3 10.7" fill="#ff0000" fill-rule="evenodd" stroke="none"/>
      <path d="M1.65 11.85 L1.8 9.7 Q2.05 6.8 2.65 5.65 L2.7 6.1 3.5 9.7 3.55 10.15 2.6 10.5 2.05 12.65 2.4 13.0 1.65 13.2 1.65 11.85" fill="#f4c398" fill-rule="evenodd" stroke="none"/>
      <path d="M6.8 12.15 L7.3 12.5 7.25 14.5 5.4 15.85 4.85 14.5 5.9 12.55 5.9 12.4 6.8 12.15 M-4.4 17.4 L-5.15 16.75 Q-6.85 14.8 -6.4 12.35 L-6.4 11.55 -5.65 10.75 -4.15 11.8 -2.0 12.9 -1.8 12.2 -4.15 10.5 -4.05 9.75 Q-3.7 8.6 -2.7 7.9 L-3.0 9.5 -2.4 10.3 -1.55 10.5 -1.35 11.4 Q-1.05 12.75 0.0 13.35 L0.95 12.5 0.8 13.25 1.55 13.2 1.65 13.2 2.4 13.0 2.05 12.65 2.6 10.5 3.55 10.15 4.4 10.4 Q3.4 10.4 3.05 11.3 L2.95 11.8 3.9 12.75 3.65 14.15 3.7 14.35 Q3.65 14.6 3.3 14.65 2.8 14.9 2.45 15.25 1.55 15.9 1.1 17.05 L-2.75 16.15 -1.85 15.0 -1.5 15.35 -0.8 15.3 -0.8 15.25 -0.65 15.15 Q-0.65 14.7 -0.8 14.5 -0.9 14.05 -1.25 13.75 -3.05 12.3 -5.15 12.85 L-5.45 13.9 -3.1 16.1 -3.9 15.85 -4.3 17.15 -4.4 17.4 M-2.55 0.9 Q-4.5 0.75 -4.9 2.55 L-4.9 3.1 -4.5 3.5 -2.15 3.85 -1.3 2.85 -1.4 4.0 Q-1.55 4.9 -2.35 5.5 L-3.6 5.65 Q-4.65 5.35 -5.2 4.55 -6.55 2.65 -5.25 0.75 L-3.2 0.65 -2.55 0.9 M0.3 10.7 L-0.35 10.35 -0.3 9.95 -0.1 8.7 -0.2 7.5 -0.25 7.2 Q0.45 7.5 0.6 8.75 L0.45 10.05 0.3 10.7" fill="#990000" fill-rule="evenodd" stroke="none"/>
      <path d="M1.65 11.85 L1.65 13.2 1.55 13.2 1.35 10.55 1.65 11.85" fill="#ebbb98" fill-rule="evenodd" stroke="none"/>
      <path d="M4.15 21.7 L3.6 22.95 2.25 24.35 1.15 22.95 1.15 19.2 1.1 17.05 Q1.55 15.9 2.45 15.25 2.8 14.9 3.3 14.65 L3.45 21.75 4.15 21.7 M-1.4 19.15 L-2.05 20.45 -4.3 19.85 -4.4 17.4 -4.3 17.15 -1.1 17.75 -1.4 19.15" fill="#ffffff" fill-rule="evenodd" stroke="none"/>
    </g>
  </defs>
</svg>
