<?xml version="1.0" encoding="UTF-8" standalone="no"?>
<svg xmlns:ffdec="https://www.free-decompiler.com/flash" xmlns:xlink="http://www.w3.org/1999/xlink" ffdec:objectType="frame" height="79.9px" width="40.25px" xmlns="http://www.w3.org/2000/svg">
  <g transform="matrix(1.0, 0.0, 0.0, 1.0, 14.25, 38.15)">
    <use ffdec:characterId="2316" height="60.95" transform="matrix(1.0, 0.0, 0.0, 1.0, -11.0, -36.6)" width="23.3" xlink:href="#shape0"/>
  </g>
  <defs>
    <g id="shape0" transform="matrix(1.0, 0.0, 0.0, 1.0, 11.0, 36.6)">
      <path d="M2.9 -33.25 Q3.35 -33.6 4.35 -33.75 L4.55 -34.55 Q4.55 -35.05 4.8 -35.25 5.45 -35.8 5.9 -35.5 L6.25 -34.75 Q6.4 -33.3 5.85 -31.8 L5.65 -31.0 Q5.2 -31.05 5.3 -30.0 L5.3 -29.9 4.3 -21.85 3.6 -22.15 3.6 -22.9 2.15 -25.4 2.55 -25.85 2.05 -26.95 1.65 -27.15 1.85 -28.0 2.1 -30.5 2.3 -30.85 Q3.0 -32.25 2.95 -32.8 L2.9 -33.25 M8.65 -22.55 L9.45 -22.9 9.45 -23.65 10.45 -23.8 11.5 -24.65 12.3 -23.9 11.95 -22.15 Q11.4 -19.55 10.2 -17.2 L9.35 -17.5 8.25 -16.85 8.7 -13.65 8.0 -11.4 6.4 -5.0 5.95 -5.25 5.6 -10.95 8.65 -22.55 M4.15 21.7 L3.6 22.95 2.25 24.35 1.15 22.95 1.15 19.2 1.1 17.05 Q1.55 15.9 2.45 15.25 2.8 14.9 3.3 14.65 L3.45 21.75 4.15 21.7 M-1.4 19.15 L-2.05 20.45 -4.3 19.85 -4.4 17.4 -4.3 17.15 -1.1 17.75 -1.4 19.15 M8.65 -19.85 Q8.35 -19.45 8.4 -19.0 8.45 -18.5 8.8 -18.2 9.1 -17.9 9.45 -17.9 L10.05 -18.35 10.2 -19.2 9.9 -20.0 9.2 -20.25 Q8.85 -20.25 8.65 -19.85" fill="#ffffff" fill-rule="evenodd" stroke="none"/>
      <path d="M2.0 -36.35 L2.25 -36.6 2.5 -36.45 2.0 -36.35 M3.15 -36.15 L3.3 -36.15 3.35 -35.75 3.15 -36.15 M9.45 -26.55 L9.45 -26.35 9.3 -26.5 9.45 -26.55 M3.9 -19.7 L4.2 -17.7 5.15 -17.7 5.3 -16.3 4.0 -14.7 4.5 -4.35 5.55 -3.35 5.35 -1.25 5.1 1.5 4.45 7.05 4.2 6.15 3.8 -2.7 3.4 -3.9 3.65 -6.55 3.6 -15.8 3.45 -17.1 2.8 -18.85 2.35 -20.05 2.4 -20.25 Q2.95 -19.9 3.15 -19.85 L3.9 -19.7 M-3.6 5.65 L-4.6 9.0 -4.9 8.5 -4.95 8.4 -5.05 8.2 Q-6.0 6.6 -6.4 4.85 L-6.5 4.4 -6.55 4.3 -7.25 1.05 -7.8 -1.3 -8.2 -2.95 -8.7 -4.8 -9.95 -8.95 -7.95 -8.45 -6.2 -10.85 -3.1 -15.2 -1.8 -9.25 -1.6 -9.15 -2.05 -8.25 -2.7 -6.3 -2.8 -6.3 -2.85 -5.6 -3.2 -1.3 -3.15 -0.75 -3.2 0.55 -3.2 0.65 -5.25 0.75 Q-6.55 2.65 -5.2 4.55 -4.65 5.35 -3.6 5.65" fill="#d5a675" fill-rule="evenodd" stroke="none"/>
      <path d="M5.3 -29.9 L6.65 -28.0 5.45 -26.35 6.05 -23.8 5.65 -23.1 7.2 -22.0 7.45 -23.1 7.85 -22.65 8.65 -22.55 5.6 -10.95 5.1 -14.45 5.5 -14.7 5.3 -16.3 5.15 -17.7 4.2 -17.7 3.9 -19.7 4.6 -19.6 5.45 -19.2 6.2 -18.8 7.25 -19.35 7.7 -20.85 4.3 -21.85 5.3 -29.9 M6.8 12.15 L7.3 12.5 7.25 14.5 5.4 15.85 4.85 14.5 5.9 12.55 5.9 12.4 6.8 12.15 M-4.4 17.4 L-5.15 16.75 Q-6.85 14.8 -6.4 12.35 L-6.4 11.55 -5.65 10.75 -4.15 11.8 -2.0 12.9 -1.8 12.2 -4.15 10.5 -4.1 10.15 -4.05 9.75 Q-3.7 8.6 -2.7 7.9 L-3.0 9.5 -2.4 10.3 -1.55 10.5 -1.35 11.4 Q-1.05 12.75 0.0 13.35 L0.95 12.5 0.8 13.25 1.55 13.2 1.65 13.2 2.4 13.0 2.05 12.65 2.6 10.5 3.55 10.15 4.4 10.4 Q3.4 10.4 3.05 11.3 L2.95 11.8 3.9 12.75 3.65 14.15 3.7 14.35 Q3.65 14.6 3.3 14.65 2.8 14.9 2.45 15.25 1.55 15.9 1.1 17.05 L-2.75 16.15 -1.85 15.0 -1.5 15.35 -0.8 15.3 -0.8 15.25 -0.65 15.15 Q-0.65 14.7 -0.8 14.5 -0.9 14.05 -1.25 13.75 -3.05 12.3 -5.15 12.85 L-5.45 13.9 -3.1 16.1 -3.9 15.85 -4.3 17.15 -4.4 17.4 M-10.8 -21.35 L-10.9 -21.65 -10.75 -22.1 -10.1 -22.95 -10.35 -22.1 -7.1 -24.15 -7.35 -25.05 -6.75 -26.25 -7.05 -27.2 -5.65 -27.6 -4.7 -27.1 -4.55 -27.15 -4.35 -27.3 -3.8 -27.45 -3.4 -27.75 -2.9 -28.3 -2.95 -28.6 -3.1 -28.95 -3.3 -29.35 -3.8 -29.85 -3.95 -30.15 -1.2 -33.2 -0.7 -33.0 -1.15 -32.1 -1.6 -31.15 -2.15 -30.4 -2.8 -29.65 -2.1 -28.85 -1.35 -29.45 -1.4 -28.25 -2.05 -27.65 -1.45 -26.9 -1.5 -25.55 1.15 -24.95 3.55 -21.5 Q-0.25 -21.3 -0.9 -18.2 -0.75 -19.3 -0.85 -20.5 L-2.85 -22.65 -1.5 -24.05 -2.6 -27.15 -3.65 -26.2 Q-4.95 -25.2 -5.35 -25.15 L-6.4 -25.4 -6.5 -24.55 -6.6 -24.35 -7.0 -23.0 Q-7.6 -21.5 -8.4 -21.4 L-8.8 -21.65 -9.15 -21.2 -9.8 -20.7 Q-10.2 -20.65 -10.6 -21.15 L-10.8 -21.35 M-9.35 -24.1 L-9.45 -24.3 -10.1 -25.8 -10.0 -26.3 -9.4 -25.85 -8.3 -25.15 -9.35 -24.1 M1.95 -36.3 L2.0 -36.35 2.5 -36.45 3.15 -36.15 3.35 -35.75 3.4 -35.4 Q3.45 -34.5 2.8 -33.45 L2.9 -33.25 2.95 -32.8 Q3.0 -32.25 2.3 -30.85 L2.1 -30.5 1.85 -28.0 1.65 -27.15 1.15 -26.65 1.1 -25.1 0.15 -28.2 -0.8 -28.1 0.65 -29.35 0.65 -30.65 0.25 -30.85 2.3 -31.65 2.4 -32.2 1.3 -33.4 2.25 -33.7 1.9 -34.45 1.35 -34.8 2.15 -35.35 1.95 -36.3 M-2.55 0.9 L-3.2 0.95 Q-4.55 1.15 -4.9 2.55 L-4.9 3.1 -4.5 3.5 -2.15 3.85 -1.3 2.85 -1.4 4.0 Q-1.55 4.9 -2.35 5.5 L-3.6 5.65 Q-4.65 5.35 -5.2 4.55 -6.55 2.65 -5.25 0.75 L-3.2 0.65 -2.55 0.9 M-0.25 7.2 Q0.45 7.5 0.6 8.75 L0.45 10.05 0.45 10.15 Q0.3 10.45 0.3 10.7 L-0.35 10.35 -0.3 10.15 -0.3 9.95 -0.1 8.7 -0.2 7.5 -0.25 7.2" fill="#990000" fill-rule="evenodd" stroke="none"/>
      <path d="M6.65 -28.0 L6.8 -27.7 6.9 -27.25 6.5 -26.25 6.95 -25.65 Q7.75 -24.5 7.45 -23.1 L7.2 -22.0 5.65 -23.1 6.05 -23.8 5.45 -26.35 6.65 -28.0 M10.2 -17.2 L10.25 -16.1 8.7 -13.65 8.25 -16.85 9.35 -17.5 10.2 -17.2 M5.4 15.85 L4.15 21.7 3.45 21.75 3.3 14.65 Q3.65 14.6 3.7 14.35 L3.65 14.15 3.9 12.75 2.95 11.8 3.05 11.3 Q3.4 10.4 4.4 10.4 5.65 10.5 5.9 12.4 L5.9 12.55 4.85 14.5 5.4 15.85 M1.15 19.2 L0.75 19.6 0.3 19.7 Q-0.7 20.0 -1.4 19.15 L-1.1 17.75 -4.3 17.15 -3.9 15.85 -3.1 16.1 -5.45 13.9 -5.15 12.85 Q-3.05 12.3 -1.25 13.75 -0.9 14.05 -0.8 14.5 -0.65 14.7 -0.65 15.15 L-0.8 15.25 -0.8 15.3 -1.5 15.35 -1.85 15.0 -2.75 16.15 1.1 17.05 1.15 19.2 M-10.1 -22.95 L-9.35 -24.1 -8.3 -25.15 -9.4 -25.85 -10.0 -26.3 -9.6 -26.7 -3.8 -29.85 -3.3 -29.35 -3.1 -28.95 -2.95 -28.6 -2.9 -28.3 -3.4 -27.75 -3.8 -27.45 -4.35 -27.3 -4.55 -27.15 -4.7 -27.1 -5.65 -27.6 -7.05 -27.2 -6.75 -26.25 -7.35 -25.05 -7.1 -24.15 -10.35 -22.1 -10.1 -22.95 M-1.2 -33.2 L-1.45 -34.1 0.75 -36.25 1.95 -36.3 2.15 -35.35 1.35 -34.8 1.9 -34.45 2.25 -33.7 1.3 -33.4 2.4 -32.2 2.3 -31.65 0.25 -30.85 0.65 -30.65 0.65 -29.35 -0.8 -28.1 0.15 -28.2 1.1 -25.1 1.15 -26.65 1.65 -27.15 2.05 -26.95 2.55 -25.85 2.15 -25.4 3.6 -22.9 3.6 -22.15 4.3 -21.85 7.7 -20.85 7.25 -19.35 6.2 -18.8 5.45 -19.2 4.6 -19.6 3.9 -19.7 3.15 -19.85 Q2.95 -19.9 2.4 -20.25 L2.35 -20.05 1.25 -18.85 Q0.0 -17.35 -0.45 -17.3 L-1.05 -17.35 -1.2 -17.65 -0.9 -18.2 Q-0.25 -21.3 3.55 -21.5 L1.15 -24.95 -1.5 -25.55 -1.45 -26.9 -2.05 -27.65 -1.4 -28.25 -1.35 -29.45 -2.1 -28.85 -2.8 -29.65 -2.15 -30.4 -1.6 -31.15 -1.15 -32.1 -0.7 -33.0 -1.2 -33.2 M5.3 -16.3 L5.5 -14.7 5.1 -14.45 5.6 -10.95 5.95 -5.25 6.4 -5.0 6.25 -3.45 5.55 -3.35 4.5 -4.35 4.0 -14.7 5.3 -16.3 M8.65 -19.85 Q8.85 -20.25 9.2 -20.25 L9.9 -20.0 10.2 -19.2 10.05 -18.35 9.45 -17.9 Q9.1 -17.9 8.8 -18.2 8.45 -18.5 8.4 -19.0 8.35 -19.45 8.65 -19.85 M-2.55 0.9 L-0.95 0.2 0.15 0.55 0.4 2.05 0.15 2.35 Q-0.4 2.85 -1.3 2.85 L-2.15 3.85 -4.5 3.5 -4.9 3.1 -4.9 2.55 Q-4.55 1.15 -3.2 0.95 L-2.55 0.9 M0.3 10.7 L0.7 11.0 0.95 12.5 0.0 13.35 Q-1.05 12.75 -1.35 11.4 L-1.55 10.5 -2.4 10.3 -3.0 9.5 -2.7 7.9 -2.3 7.5 Q-1.2 6.6 -0.25 7.2 L-0.2 7.5 -0.1 8.7 -0.3 9.95 -0.3 10.15 -0.35 10.35 0.3 10.7" fill="#ff0000" fill-rule="evenodd" stroke="none"/>
      <path d="M8.0 -11.4 L7.45 -7.1 7.0 -3.45 6.9 -1.25 6.6 2.4 6.6 3.1 6.7 8.85 6.75 9.65 6.75 9.85 6.75 10.15 6.8 12.15 5.9 12.4 Q5.65 10.5 4.4 10.4 L3.55 10.15 3.5 9.7 2.7 6.1 2.65 5.65 Q2.05 6.8 1.8 9.7 L1.8 10.15 1.65 11.85 1.35 10.55 1.55 13.2 0.8 13.25 0.95 12.5 0.7 11.0 0.3 10.7 Q0.3 10.45 0.45 10.15 L0.45 10.05 0.6 8.75 Q0.45 7.5 -0.25 7.2 -1.2 6.6 -2.3 7.5 L-2.7 7.9 Q-3.7 8.6 -4.05 9.75 L-4.1 10.15 -4.15 10.5 -1.8 12.2 -2.0 12.9 -4.15 11.8 -5.65 10.75 -6.4 11.55 -6.35 9.7 Q-6.3 7.6 -6.65 5.2 L-6.75 4.45 -6.75 4.35 -6.55 4.3 -6.5 4.4 -6.4 4.85 Q-6.0 6.6 -5.05 8.2 L-4.95 8.4 -4.9 8.5 -4.6 9.0 -3.6 5.65 -2.35 5.5 Q-1.55 4.9 -1.4 4.0 L-1.3 2.85 Q-0.4 2.85 0.15 2.35 L0.4 2.05 0.15 0.55 -0.95 0.2 -2.55 0.9 -3.2 0.65 -3.2 0.55 -3.15 -0.75 -3.2 -1.3 -2.85 -5.6 -2.8 -6.3 -2.7 -6.3 -2.05 -8.25 -1.6 -9.15 -1.8 -9.25 -3.1 -15.2 -6.2 -10.85 -7.95 -8.45 -9.95 -8.95 -10.15 -8.95 -10.7 -11.55 -10.8 -14.45 -11.0 -17.1 -10.95 -20.4 -10.8 -21.35 -10.6 -21.15 Q-10.2 -20.65 -9.8 -20.7 L-9.15 -21.2 -8.8 -21.65 -8.4 -21.4 Q-7.6 -21.5 -7.0 -23.0 L-6.6 -24.35 -6.5 -24.55 -6.4 -25.4 -5.35 -25.15 Q-4.95 -25.2 -3.65 -26.2 L-2.6 -27.15 -1.5 -24.05 -2.85 -22.65 -0.85 -20.5 Q-0.75 -19.3 -0.9 -18.2 L-1.2 -17.65 -1.05 -17.35 -0.45 -17.3 Q0.0 -17.35 1.25 -18.85 L2.35 -20.05 2.8 -18.85 3.45 -17.1 3.6 -15.8 3.65 -6.55 3.4 -3.9 3.8 -2.7 4.2 6.15 4.45 7.05 5.1 1.5 5.35 -1.25 5.55 -3.35 6.25 -3.45 6.4 -5.0 8.0 -11.4" fill="#e2b181" fill-rule="evenodd" stroke="none"/>
      <path d="M1.65 11.85 L1.8 10.15 1.8 9.7 Q2.05 6.8 2.65 5.65 L2.7 6.1 3.5 9.7 3.55 10.15 2.6 10.5 2.05 12.65 2.4 13.0 1.65 13.2 1.65 11.85" fill="#f4c398" fill-rule="evenodd" stroke="none"/>
      <path d="M1.55 13.2 L1.35 10.55 1.65 11.85 1.65 13.2 1.55 13.2" fill="#ebbb98" fill-rule="evenodd" stroke="none"/>
      <path d="M-6.75 4.35 L-7.4 1.05 -7.45 0.95 -7.65 0.2 -8.05 -1.35 -8.5 -2.9 -9.05 -4.7 -10.15 -8.95 -9.95 -8.95 -8.7 -4.8 -8.2 -2.95 -7.8 -1.3 -7.25 1.05 -6.55 4.3 -6.75 4.35" fill="#ffcc99" fill-rule="evenodd" stroke="none"/>
    </g>
  </defs>
</svg>
