<?xml version="1.0" encoding="UTF-8" standalone="no"?>
<svg xmlns:ffdec="https://www.free-decompiler.com/flash" xmlns:xlink="http://www.w3.org/1999/xlink" ffdec:objectType="frame" height="100.15px" width="52.95px" xmlns="http://www.w3.org/2000/svg">
  <g transform="matrix(1.0, 0.0, 0.0, 1.0, 25.1, 55.7)">
    <use ffdec:characterId="2532" height="73.65" transform="matrix(1.0, 1.0E-4, -1.0E-4, 1.0, -18.644, -34.6518)" width="36.6" xlink:href="#sprite0"/>
    <use ffdec:characterId="1081" height="100.0" id="shape" transform="matrix(0.3205, 0.0, 0.0, 0.7, -16.0255, -34.9991)" width="100.0" xlink:href="#sprite1"/>
    <use ffdec:characterId="1138" height="0.0" id="spineRef" transform="matrix(1.0, 0.0, 0.0, 1.0, 3.25, -46.5)" width="0.0" xlink:href="#sprite2"/>
  </g>
  <defs>
    <g id="sprite0" transform="matrix(1.0, 0.0, 0.0, 1.0, 19.3, 65.1)">
      <use ffdec:characterId="2531" height="73.65" transform="matrix(1.0, 0.0, 0.0, 1.0, -19.3, -65.1)" width="36.6" xlink:href="#shape0"/>
    </g>
    <g id="shape0" transform="matrix(1.0, 0.0, 0.0, 1.0, 19.3, 65.1)">
      <path d="M17.25 -31.15 L14.1 -20.55 Q13.4 -18.55 13.0 -16.55 L12.05 -17.25 12.35 -20.75 12.75 -21.3 12.7 -21.9 12.25 -22.45 12.1 -25.0 10.05 -25.2 Q9.9 -24.2 9.9 -23.2 9.85 -22.2 9.95 -21.2 L10.85 -21.25 9.5 -19.35 7.85 -19.65 Q6.3 -23.75 7.3 -27.7 L7.95 -29.85 9.8 -29.75 11.0 -28.6 12.75 -29.0 Q14.05 -29.6 14.9 -30.7 L15.5 -31.45 16.35 -31.45 17.25 -31.15 M12.0 -14.7 L10.4 -13.0 8.8 -13.55 6.2 -14.65 6.7 -15.25 Q3.75 -16.25 1.0 -17.7 L0.4 -17.95 -0.55 -17.9 -1.0 -17.75 -1.25 -17.5 -1.4 -15.3 Q0.65 -12.95 4.15 -12.4 L6.05 -12.4 7.85 -11.45 5.35 -8.75 1.9 -9.85 0.8 -10.5 1.55 -10.5 0.3 -12.15 -0.75 -12.25 -2.5 -14.0 -3.1 -14.1 -4.35 -13.1 -4.35 -11.45 -4.95 -11.8 -5.35 -11.0 Q-5.55 -14.05 -4.2 -16.55 L-3.4 -17.85 -4.1 -19.65 -5.15 -20.15 -6.95 -19.2 -7.3 -19.35 -7.75 -19.4 -8.1 -19.35 -8.35 -19.2 -8.5 -19.0 -8.75 -19.0 -10.35 -19.25 -10.65 -19.4 Q-11.25 -19.55 -11.6 -20.0 L-12.25 -21.15 -9.2 -21.4 -9.0 -23.4 -6.6 -25.15 -6.2 -27.2 -5.5 -27.05 -4.65 -24.5 -3.9 -24.75 -6.2 -22.8 -5.95 -22.05 Q-3.6 -21.0 -1.25 -21.35 L-0.65 -23.0 Q0.6 -21.5 1.05 -19.6 L1.25 -18.6 5.65 -17.85 Q6.7 -18.2 7.25 -19.1 L7.1 -18.35 8.1 -17.2 9.5 -16.15 Q10.9 -15.15 12.0 -14.7 M2.65 -6.7 L0.8 -6.6 0.4 -6.2 0.2 -5.4 -0.05 -4.6 -0.1 -3.6 Q-0.25 -2.5 -0.95 -1.65 L-1.6 -1.9 -2.15 -2.0 -3.6 -0.2 -3.4 0.15 -3.15 1.7 -7.15 3.3 -7.65 2.85 -8.65 3.3 -9.55 2.95 -7.9 2.8 -7.7 1.8 -7.4 0.95 -3.9 0.8 -3.9 0.05 -6.9 -0.35 -7.5 -1.8 -4.75 -1.65 -4.0 -2.35 -3.5 -1.9 -3.8 -3.45 Q-2.75 -3.75 -1.8 -4.7 L-0.35 -6.6 0.5 -7.95 2.65 -6.7 M-11.2 -0.3 L-11.65 -2.1 -12.3 -3.1 -11.6 -2.9 -10.8 -3.4 -10.2 -3.8 -10.2 -5.85 -11.2 -6.7 -14.2 -6.0 -15.05 -6.65 Q-15.7 -7.05 -15.75 -7.75 L-15.75 -7.9 -15.6 -7.4 -15.25 -7.15 -13.95 -7.55 Q-13.4 -7.75 -12.9 -8.2 L-12.8 -9.5 -13.6 -9.75 -14.05 -9.35 -14.35 -10.1 -15.25 -12.6 -14.3 -12.75 -13.85 -11.7 -13.3 -11.75 -13.0 -13.25 -10.4 -14.4 -10.0 -13.75 Q-9.35 -12.55 -9.25 -11.5 -9.1 -10.0 -10.15 -8.85 L-10.9 -8.1 Q-8.65 -7.1 -6.55 -8.35 L-5.4 -10.6 -4.25 -8.6 -3.85 -9.0 -3.7 -9.75 -1.75 -8.6 -4.4 -5.25 -4.4 -4.2 -5.0 -4.3 -5.7 -3.75 -6.8 -2.55 -8.75 -2.4 -9.6 -2.0 -10.6 -2.45 -11.35 -2.45 -11.25 -1.1 -10.8 -0.65 -11.2 -0.3 M-9.5 -29.95 L-9.0 -29.4 Q-10.1 -26.5 -13.0 -26.75 L-14.65 -27.25 -15.55 -28.55 -15.65 -28.95 -13.95 -28.75 -13.2 -29.6 -10.5 -29.6 -10.4 -30.4 -9.5 -29.95 M11.3 -27.1 L11.15 -26.5 11.35 -26.0 12.0 -25.8 12.85 -25.95 Q14.15 -26.45 14.8 -27.7 12.85 -28.15 11.3 -27.1 M-6.65 -6.3 L-7.6 -6.6 -8.75 -5.75 -9.25 -5.8 -9.35 -5.6 -9.05 -4.3 -7.75 -3.8 -6.7 -4.75 -6.65 -6.3" fill="#990000" fill-rule="evenodd" stroke="none"/>
      <path d="M7.4 -7.25 L7.75 -6.5 7.4 -5.6 6.4 -5.6 3.95 -6.15 Q3.25 -6.35 2.65 -6.7 L0.5 -7.95 -0.35 -6.6 -1.8 -4.7 Q-2.75 -3.75 -3.8 -3.45 L-3.5 -1.9 -4.0 -2.35 -4.75 -1.65 -7.5 -1.8 -6.9 -0.35 -3.9 0.05 -3.9 0.8 -7.4 0.95 -7.7 1.8 -8.45 0.55 -8.25 0.0 -8.5 -0.8 -9.75 -1.4 -10.8 -0.65 -11.25 -1.1 -11.35 -2.45 -10.6 -2.45 -9.6 -2.0 -8.75 -2.4 -6.8 -2.55 -5.7 -3.75 -5.0 -4.3 -4.4 -4.2 -4.4 -5.25 -1.75 -8.6 -3.7 -9.75 -3.85 -9.0 -4.25 -8.6 -5.4 -10.6 -5.35 -11.0 -4.95 -11.8 -4.35 -11.45 -4.35 -13.1 -3.1 -14.1 -2.5 -14.0 -0.75 -12.25 0.3 -12.15 1.55 -10.5 0.8 -10.5 -2.1 -12.65 Q-1.45 -11.5 -2.05 -10.5 L-1.5 -9.8 -0.75 -9.25 Q1.7 -8.7 3.95 -7.8 L5.8 -6.95 6.15 -7.4 7.4 -7.25 M-3.15 1.7 Q-2.05 2.35 -1.9 3.55 L-2.15 3.95 -2.6 3.95 -3.4 3.2 Q-7.9 4.75 -10.3 7.65 L-10.7 6.4 -8.65 3.3 -7.65 2.85 -7.15 3.3 -3.15 1.7 M-4.4 7.7 L-4.55 8.4 -5.5 8.55 -6.7 7.8 -7.05 6.85 -6.55 5.8 -4.95 6.05 -4.4 7.7 M-13.4 3.1 L-13.8 2.85 -13.95 1.55 Q-13.05 0.25 -11.4 -0.1 L-10.35 0.55 Q-10.75 2.35 -12.5 2.85 L-13.4 3.1 M-14.4 -5.55 L-14.2 -6.0 -11.2 -6.7 -10.2 -5.85 -10.2 -3.8 -10.8 -3.4 -11.0 -4.8 Q-11.8 -5.45 -12.65 -5.45 L-13.85 -5.15 -14.4 -5.55 M7.85 -19.65 L9.5 -19.35 10.85 -21.25 9.95 -21.2 Q9.85 -22.2 9.9 -23.2 9.9 -24.2 10.05 -25.2 L12.1 -25.0 12.25 -22.45 12.7 -21.9 12.75 -21.3 12.35 -20.75 12.05 -17.25 Q8.45 -18.4 8.1 -17.2 L7.1 -18.35 7.25 -19.1 7.85 -19.65 M-12.25 -21.15 L-12.25 -22.2 Q-11.05 -26.05 -7.5 -28.15 L-6.6 -27.9 -6.2 -27.2 -6.6 -25.15 -9.0 -23.4 -9.2 -21.4 -12.25 -21.15 M-3.9 -24.75 L-3.2 -24.8 Q-1.6 -24.45 -0.65 -23.0 L-1.25 -21.35 Q-3.6 -21.0 -5.95 -22.05 L-6.2 -22.8 -3.9 -24.75 M11.3 -27.1 Q12.85 -28.15 14.8 -27.7 14.15 -26.45 12.85 -25.95 L12.0 -25.8 11.35 -26.0 11.15 -26.5 11.3 -27.1 M6.05 -12.4 L4.15 -12.4 Q0.65 -12.95 -1.4 -15.3 L-1.25 -17.5 -1.0 -17.75 -0.55 -17.9 0.4 -17.95 1.0 -17.7 Q3.75 -16.25 6.7 -15.25 L6.2 -14.65 5.1 -14.2 0.45 -16.45 6.05 -12.4 M-14.95 -31.35 L-11.8 -31.55 -11.0 -31.25 -10.4 -30.4 -10.5 -29.6 -13.2 -29.6 -13.95 -28.75 -15.65 -28.95 -15.7 -30.1 -15.45 -30.9 -14.95 -31.35 M-15.25 -12.6 L-15.95 -14.1 Q-15.05 -15.05 -13.9 -15.4 L-12.3 -15.75 -10.45 -15.2 -10.4 -14.4 -13.0 -13.25 -13.3 -11.75 -13.85 -11.7 -14.3 -12.75 -15.25 -12.6 M-14.05 -9.35 L-13.6 -9.75 -12.8 -9.5 -12.9 -8.2 Q-13.4 -7.75 -13.95 -7.55 L-15.25 -7.15 -15.6 -7.4 -15.75 -7.9 Q-15.6 -8.95 -14.6 -9.2 L-14.05 -9.35 M-6.65 -6.3 L-6.7 -4.75 -7.75 -3.8 -9.05 -4.3 -9.35 -5.6 -9.25 -5.8 -8.75 -5.75 -7.6 -6.6 -6.65 -6.3" fill="#ff0000" fill-rule="evenodd" stroke="none"/>
      <path d="M13.0 -16.55 Q13.8 -15.85 15.35 -15.05 15.1 -14.15 15.3 -13.75 15.45 -13.35 12.0 -14.7 10.9 -15.15 9.5 -16.15 L8.1 -17.2 Q8.45 -18.4 12.05 -17.25 L13.0 -16.55 M10.4 -13.0 L12.65 -11.3 Q12.0 -10.2 10.1 -10.7 L7.85 -11.45 6.05 -12.4 0.45 -16.45 5.1 -14.2 6.2 -14.65 8.8 -13.55 10.4 -13.0 M5.35 -8.75 L5.45 -8.75 6.85 -8.2 7.25 -7.9 7.4 -7.25 6.15 -7.4 5.8 -6.95 3.95 -7.8 Q1.7 -8.7 -0.75 -9.25 L-1.5 -9.8 -2.05 -10.5 Q-1.45 -11.5 -2.1 -12.65 L0.8 -10.5 1.9 -9.85 5.35 -8.75 M-2.15 3.95 L-2.6 5.9 -3.5 6.25 -4.4 7.7 -4.95 6.05 -6.55 5.8 -7.05 6.85 -8.05 7.55 -9.1 8.1 -10.3 7.65 Q-7.9 4.75 -3.4 3.2 L-2.6 3.95 -2.15 3.95 M-9.55 2.95 Q-10.55 3.8 -12.1 3.8 L-12.9 3.7 -13.4 3.1 -12.5 2.85 Q-10.75 2.35 -10.35 0.55 L-11.4 -0.1 -11.2 -0.3 -10.8 -0.65 -9.75 -1.4 -8.5 -0.8 -8.25 0.0 -8.45 0.55 -7.7 1.8 -7.9 2.8 -9.55 2.95 M-12.3 -3.1 L-14.15 -1.9 -15.0 -2.1 -15.75 -3.15 -14.4 -5.55 -13.85 -5.15 -12.65 -5.45 Q-11.8 -5.45 -11.0 -4.8 L-10.8 -3.4 -11.6 -2.9 -12.3 -3.1" fill="#ffffff" fill-rule="evenodd" stroke="none"/>
      <path d="M-9.35 -61.65 L-7.85 -63.0 -5.7 -64.7 -3.3 -65.1 Q0.8 -65.1 4.5 -63.85 8.1 -62.75 10.8 -59.95 L12.75 -57.45 13.6 -55.85 14.8 -53.5 Q17.65 -47.4 17.25 -31.15 L16.35 -31.45 15.5 -31.45 14.9 -30.7 Q14.05 -29.6 12.75 -29.0 12.7 -45.9 9.65 -53.4 6.65 -60.95 -0.05 -60.95 L-0.1 -60.95 -0.25 -60.95 -1.3 -60.85 -1.7 -60.8 -4.4 -60.05 -9.0 -59.75 Q-9.5 -59.75 -9.5 -60.9 L-9.35 -61.65 M8.45 -37.35 L8.85 -38.1 Q11.3 -36.3 12.75 -29.0 L11.0 -28.6 9.8 -29.75 9.45 -31.35 8.85 -34.45 8.4 -37.2 8.45 -37.35" fill="#8d8c47" fill-rule="evenodd" stroke="none"/>
      <path d="M-18.05 -17.75 L-18.25 -19.05 -18.15 -19.05 Q-16.5 -19.05 -16.5 -21.6 -16.5 -23.45 -18.3 -23.45 L-18.85 -23.4 -18.95 -24.35 -19.05 -26.1 -18.35 -26.0 Q-16.8 -26.0 -16.8 -27.35 L-17.05 -28.05 -17.2 -28.25 -16.55 -28.7 -15.55 -28.55 -14.65 -27.25 -14.0 -23.6 -14.55 -20.3 -14.2 -20.15 -13.2 -19.75 -13.0 -18.9 -18.05 -17.75 M-18.85 -43.5 L-18.6 -45.25 Q-16.6 -55.0 -9.35 -61.65 L-9.5 -60.9 Q-9.5 -59.75 -9.0 -59.75 L-4.4 -60.05 -1.7 -60.8 -1.3 -60.85 -0.25 -60.95 -0.1 -60.95 -0.1 -60.85 -0.05 -60.95 Q6.65 -60.95 9.65 -53.4 12.7 -45.9 12.75 -29.0 11.3 -36.3 8.85 -38.1 L8.45 -37.35 Q8.05 -39.25 7.95 -41.2 7.8 -45.1 7.05 -48.15 L5.55 -52.95 4.4 -55.5 3.6 -56.15 Q-3.7 -60.45 -10.65 -54.85 -14.1 -50.25 -15.1 -42.85 L-18.85 -43.5" fill="#78783c" fill-rule="evenodd" stroke="none"/>
      <path d="M-0.1 -60.95 L-0.05 -60.95 -0.1 -60.85 -0.1 -60.95 M-15.1 -42.85 Q-14.1 -50.25 -10.65 -54.85 -3.7 -60.45 3.6 -56.15 L4.4 -55.5 5.55 -52.95 7.05 -48.15 Q7.8 -45.1 7.95 -41.2 8.05 -39.25 8.45 -37.35 L8.4 -37.2 8.85 -34.45 9.45 -31.35 9.15 -32.0 8.75 -32.7 7.25 -34.1 Q4.75 -31.05 2.9 -27.65 L3.2 -26.65 Q3.65 -25.35 4.4 -24.05 L3.15 -22.4 1.85 -24.55 Q0.9 -26.05 -0.5 -26.75 L-1.35 -26.65 -2.75 -28.15 Q-4.6 -30.0 -7.05 -30.4 L-8.2 -32.65 -5.6 -32.65 -5.45 -34.9 -7.9 -35.8 -5.3 -37.25 -5.05 -40.75 -5.05 -42.1 Q-7.5 -41.7 -14.6 -42.8 L-14.65 -42.8 -15.1 -42.85 M-13.0 -26.75 L-14.0 -23.6 -14.65 -27.25 -13.0 -26.75 M-13.2 -19.75 L-11.6 -20.0 Q-11.25 -19.55 -10.65 -19.4 L-13.0 -18.9 -13.2 -19.75 M-8.5 -19.0 L-8.3 -18.35 Q-6.5 -15.2 -7.75 -11.8 L-8.6 -11.9 -9.15 -11.65 -10.35 -19.25 -8.75 -19.0 -8.5 -19.0" fill="#666633" fill-rule="evenodd" stroke="none"/>
      <path d="M-15.75 -7.75 L-17.45 -9.1 -17.35 -9.45 -17.3 -9.8 -14.35 -10.1 -14.05 -9.35 -14.6 -9.2 Q-15.6 -8.95 -15.75 -7.9 L-15.75 -7.75 M9.8 -29.75 L7.95 -29.85 7.3 -27.7 Q6.3 -23.75 7.85 -19.65 L7.25 -19.1 Q6.7 -18.2 5.65 -17.85 L1.25 -18.6 1.05 -19.6 Q0.6 -21.5 -0.65 -23.0 -1.6 -24.45 -3.2 -24.8 L-3.9 -24.75 -4.65 -24.5 -5.5 -27.05 -6.2 -27.2 -6.6 -27.9 -7.5 -28.15 Q-11.05 -26.05 -12.25 -22.2 L-12.25 -21.15 -11.6 -20.0 -13.2 -19.75 -14.2 -20.15 -14.55 -20.3 -14.0 -23.6 -13.0 -26.75 Q-10.1 -26.5 -9.0 -29.4 L-9.5 -29.95 -7.05 -30.4 Q-4.6 -30.0 -2.75 -28.15 L-1.35 -26.65 -0.5 -26.75 Q0.9 -26.05 1.85 -24.55 L3.15 -22.4 4.4 -24.05 Q3.65 -25.35 3.2 -26.65 L2.9 -27.65 Q4.75 -31.05 7.25 -34.1 L8.75 -32.7 9.15 -32.0 9.45 -31.35 9.8 -29.75 M-5.35 -11.0 L-5.4 -10.6 -6.55 -8.35 Q-8.65 -7.1 -10.9 -8.1 L-10.15 -8.85 Q-9.1 -10.0 -9.25 -11.5 L-9.15 -11.65 -8.6 -11.9 -7.75 -11.8 Q-6.5 -15.2 -8.3 -18.35 L-8.5 -19.0 -8.35 -19.2 -8.1 -19.35 -7.75 -19.4 -7.3 -19.35 -6.95 -19.2 -5.15 -20.15 -4.1 -19.65 -3.4 -17.85 -4.2 -16.55 Q-5.55 -14.05 -5.35 -11.0 M-11.8 -31.55 Q-12.95 -32.35 -11.85 -34.05 -10.9 -35.15 -10.15 -33.75 L-9.85 -32.35 -10.3 -31.3 -11.0 -31.25 -11.8 -31.55" fill="#764701" fill-rule="evenodd" stroke="none"/>
      <path d="M-7.05 -30.4 L-9.5 -29.95 -10.4 -30.4 -11.0 -31.25 -10.3 -31.3 -9.85 -32.35 -10.15 -33.75 Q-10.9 -35.15 -11.85 -34.05 -12.95 -32.35 -11.8 -31.55 L-14.95 -31.35 -14.95 -31.45 -15.1 -34.85 -14.6 -42.8 Q-7.5 -41.7 -5.05 -42.1 L-5.05 -40.75 -5.3 -37.25 -7.9 -35.8 -5.45 -34.9 -5.6 -32.65 -8.2 -32.65 -7.05 -30.4" fill="#2f3f27" fill-rule="evenodd" stroke="none"/>
      <path d="M-16.55 -28.7 L-19.2 -28.9 -19.25 -37.3 -19.0 -42.05 -18.85 -43.5 -15.1 -42.85 -14.65 -42.8 -14.6 -42.8 -15.1 -34.85 -14.95 -31.45 -14.95 -31.35 -15.45 -30.9 -15.7 -30.1 -15.65 -28.95 -15.55 -28.55 -16.55 -28.7" fill="#3a4f31" fill-rule="evenodd" stroke="none"/>
      <path d="M-9.15 -11.65 L-9.25 -11.5 Q-9.35 -12.55 -10.0 -13.75 L-10.4 -14.4 -10.45 -15.2 -12.3 -15.75 -13.0 -18.9 -10.65 -19.4 -10.35 -19.25 -9.15 -11.65" fill="#cc6600" fill-rule="evenodd" stroke="none"/>
      <path d="M-17.3 -9.8 Q-16.8 -11.95 -17.2 -14.75 L-17.65 -16.05 -18.05 -17.75 -13.0 -18.9 -12.3 -15.75 -13.9 -15.4 Q-15.05 -15.05 -15.95 -14.1 L-15.25 -12.6 -14.35 -10.1 -17.3 -9.8" fill="#e37302" fill-rule="evenodd" stroke="none"/>
    </g>
    <g id="sprite1" transform="matrix(1.0, 0.0, 0.0, 1.0, 50.0, 50.0)">
      <use ffdec:characterId="1080" height="100.0" transform="matrix(1.0, 0.0, 0.0, 1.0, -50.0, -50.0)" width="100.0" xlink:href="#shape1"/>
    </g>
    <g id="shape1" transform="matrix(1.0, 0.0, 0.0, 1.0, 50.0, 50.0)">
      <path d="M50.0 50.0 L-50.0 50.0 -50.0 -50.0 50.0 -50.0 50.0 50.0 Z" fill="none" stroke="#9900ff" stroke-linecap="round" stroke-linejoin="round" stroke-width="0.05"/>
    </g>
  </defs>
</svg>
