<?xml version="1.0" encoding="UTF-8" standalone="no"?>
<svg xmlns:ffdec="https://www.free-decompiler.com/flash" xmlns:xlink="http://www.w3.org/1999/xlink" ffdec:objectType="frame" height="100.15px" width="52.95px" xmlns="http://www.w3.org/2000/svg">
  <g transform="matrix(1.0, 0.0, 0.0, 1.0, 25.1, 55.7)">
    <use ffdec:characterId="1169" height="24.15" id="heart" transform="matrix(1.0, 0.0, 0.0, 1.0, -25.1, -55.7)" width="18.6" xlink:href="#sprite0"/>
    <use ffdec:characterId="2534" height="36.2" id="chunk1" transform="matrix(1.0, 0.0, 0.0, 1.0, -3.1, -43.9)" width="30.95" xlink:href="#sprite6"/>
    <use ffdec:characterId="2536" height="32.4" id="chunk2" transform="matrix(1.0, 0.0, 0.0, 1.0, 0.1, -2.65)" width="27.75" xlink:href="#sprite7"/>
    <use ffdec:characterId="2538" height="32.2" id="chunk3" transform="matrix(1.0, 0.0, 0.0, 1.0, -20.85, 12.25)" width="26.0" xlink:href="#sprite8"/>
    <use ffdec:characterId="2540" height="39.95" id="chunk4" transform="matrix(1.0, 0.0, 0.0, 1.0, -24.35, -30.4)" width="22.9" xlink:href="#sprite9"/>
    <use ffdec:characterId="1138" height="0.0" id="spineRef" transform="matrix(1.0, 0.0, 0.0, 1.0, 3.25, -46.5)" width="0.0" xlink:href="#sprite10"/>
  </g>
  <defs>
    <g id="sprite0" transform="matrix(1.0, 0.0, 0.0, 1.0, 9.7, 14.1)">
      <use ffdec:characterId="1152" height="20.0" transform="matrix(1.0, 0.0, 0.0, 1.0, -7.25, -9.95)" width="15.2" xlink:href="#morphshape0"/>
      <use ffdec:characterId="1153" height="13.85" transform="matrix(1.0, 0.0, 0.0, 1.0, -1.95, -9.45)" width="8.55" xlink:href="#morphshape1"/>
      <use ffdec:characterId="1154" height="18.1" transform="matrix(1.0, 0.0, 0.0, 1.0, -5.75, -9.5)" width="11.1" xlink:href="#morphshape2"/>
      <use ffdec:characterId="1156" height="2.55" transform="matrix(1.0, 0.0, 0.0, 1.0, 3.65, -5.5)" width="3.65" xlink:href="#sprite1"/>
      <use ffdec:characterId="1158" height="5.2" transform="matrix(1.0, 0.0, 0.0, 1.0, -1.4, -13.35)" width="3.35" xlink:href="#sprite2"/>
      <use ffdec:characterId="1160" height="5.6" transform="matrix(1.0, 0.0, 0.0, 1.0, -5.65, -12.85)" width="2.4" xlink:href="#sprite3"/>
      <use ffdec:characterId="1162" height="1.7" transform="matrix(1.0, 0.0, 0.0, 1.0, -9.2, -5.0)" width="3.85" xlink:href="#sprite4"/>
      <use ffdec:characterId="1164" height="1.75" transform="matrix(1.0, 0.0, 0.0, 1.0, -9.7, -0.35)" width="3.15" xlink:href="#sprite5"/>
    </g>
    <g id="morphshape0" transform="matrix(1.0, 0.0, 0.0, 1.0, 7.25, 9.95)">
      <path d="M-7.2 -0.55 Q-7.55 4.3 -3.5 7.15 0.4 9.85 4.95 9.95 5.3 9.6 5.6 9.25 7.15 6.3 7.2 2.6 7.05 -4.4 2.4 -6.2 0.85 -8.95 -0.05 -9.9 L-1.2 -9.95 Q-3.05 -9.9 -4.55 -9.1 L-6.7 -3.5 Q-6.95 -2.0 -7.2 -0.55" fill="#990000" fill-rule="evenodd" stroke="none"/>
      <path d="M-7.2 -0.55 Q-6.95 -2.0 -6.7 -3.5 L-4.55 -9.1 Q-3.05 -9.9 -1.2 -9.95 L-0.05 -9.9 Q0.85 -8.95 2.4 -6.2 7.05 -4.4 7.2 2.6 7.15 6.3 5.6 9.25 5.3 9.6 4.95 9.95 0.4 9.85 -3.5 7.15 -7.55 4.3 -7.2 -0.55 Z" fill="none" stroke="#000000" stroke-linecap="round" stroke-linejoin="round" stroke-opacity="0.0" stroke-width="0.0"/>
    </g>
    <g id="morphshape1" transform="matrix(1.0, 0.0, 0.0, 1.0, 1.95, 9.45)">
      <path d="M-1.95 -8.1 Q-1.75 -6.85 -0.15 -5.95 -1.05 -4.55 1.1 -1.9 3.65 1.15 5.8 2.4 7.3 -2.85 0.8 -5.8 0.9 -6.95 0.6 -7.7 -0.1 -8.45 -0.8 -9.2 -1.9 -10.05 -1.95 -8.1" fill="#fe8989" fill-rule="evenodd" stroke="none"/>
      <path d="M-1.95 -8.1 Q-1.9 -10.05 -0.8 -9.2 -0.1 -8.45 0.6 -7.7 0.9 -6.95 0.8 -5.8 7.3 -2.85 5.8 2.4 3.65 1.15 1.1 -1.9 -1.05 -4.55 -0.15 -5.95 -1.75 -6.85 -1.95 -8.1 Z" fill="none" stroke="#000000" stroke-linecap="round" stroke-linejoin="round" stroke-opacity="0.0" stroke-width="0.0"/>
    </g>
    <g id="morphshape2" transform="matrix(1.0, 0.0, 0.0, 1.0, 5.75, 9.5)">
      <path d="M-5.75 0.9 L-5.75 1.05 Q-5.6 1.95 -4.2 4.3 L-3.5 5.2 Q-1.85 6.85 1.15 6.95 L1.55 7.1 Q2.55 7.5 3.15 8.6 3.8 8.55 4.45 8.5 L5.25 8.5 5.35 7.75 5.3 7.1 5.3 6.8 5.2 6.45 5.1 6.45 4.2 6.1 3.9 6.0 Q2.2 5.35 0.7 4.35 L-0.1 3.8 -0.6 3.35 -1.4 2.05 Q-1.5 1.3 -1.6 0.55 L-1.55 -0.05 Q-1.3 -2.25 0.75 -4.4 L0.75 -4.4 Q2.0 -6.0 3.65 -7.25 L4.3 -7.7 3.2 -8.85 3.0 -9.05 2.1 -8.35 1.5 -7.9 Q-0.7 -6.15 -2.9 -4.45 L-3.65 -3.95 Q-5.2 -2.55 -5.75 0.9" fill="#76015b" fill-rule="evenodd" stroke="none"/>
      <path d="M-5.75 0.9 Q-5.2 -2.55 -3.65 -3.95 L-2.9 -4.45 Q-0.7 -6.15 1.5 -7.9 L2.1 -8.35 3.0 -9.05 3.2 -8.85 4.3 -7.7 3.65 -7.25 Q2.0 -6.0 0.75 -4.4 L0.75 -4.4 Q-1.3 -2.25 -1.55 -0.05 L-1.6 0.55 Q-1.5 1.3 -1.4 2.05 L-0.6 3.35 -0.1 3.8 0.7 4.35 Q2.2 5.35 3.9 6.0 L4.2 6.1 5.1 6.45 5.2 6.45 5.3 6.8 5.3 7.1 5.35 7.75 5.25 8.5 4.45 8.5 Q3.8 8.55 3.15 8.6 2.55 7.5 1.55 7.1 L1.15 6.95 Q-1.85 6.85 -3.5 5.2 L-4.2 4.3 Q-5.6 1.95 -5.75 1.05 L-5.75 0.9 Z" fill="none" stroke="#000000" stroke-linecap="round" stroke-linejoin="round" stroke-opacity="0.0" stroke-width="0.0"/>
    </g>
    <g id="sprite1" transform="matrix(1.0, 0.0, 0.0, 1.0, 1.8, 1.3)">
      <use ffdec:characterId="1155" height="2.55" transform="matrix(1.0, 0.0, 0.0, 1.0, -1.8, -1.3)" width="3.65" xlink:href="#shape0"/>
    </g>
    <g id="shape0" transform="matrix(1.0, 0.0, 0.0, 1.0, 1.8, 1.3)">
      <path d="M-1.8 0.85 L-0.75 0.1 1.85 -1.3 1.85 0.15 Q0.8 0.95 -0.4 1.25 L-1.8 0.85" fill="#ff0000" fill-rule="evenodd" stroke="none"/>
    </g>
    <g id="sprite2" transform="matrix(1.0, 0.0, 0.0, 1.0, 1.65, 2.6)">
      <use ffdec:characterId="1157" height="5.2" transform="matrix(1.0, 0.0, 0.0, 1.0, -1.65, -2.6)" width="3.35" xlink:href="#shape1"/>
    </g>
    <g id="shape1" transform="matrix(1.0, 0.0, 0.0, 1.0, 1.65, 2.6)">
      <path d="M1.7 -1.75 Q0.1 0.35 -0.7 2.6 L-1.65 1.05 -0.65 -0.8 0.8 -2.6 1.7 -1.75" fill="#ff0000" fill-rule="evenodd" stroke="none"/>
    </g>
    <g id="sprite3" transform="matrix(1.0, 0.0, 0.0, 1.0, 1.2, 2.8)">
      <use ffdec:characterId="1159" height="5.6" transform="matrix(1.0, 0.0, 0.0, 1.0, -1.2, -2.8)" width="2.4" xlink:href="#shape2"/>
    </g>
    <g id="shape2" transform="matrix(1.0, 0.0, 0.0, 1.0, 1.2, 2.8)">
      <path d="M-1.05 -2.8 L0.15 -2.8 0.65 -1.3 Q1.3 0.9 1.2 1.8 1.1 2.65 0.5 2.7 L0.0 2.8 -0.05 2.8 -0.75 0.75 -1.2 -1.6 -1.05 -2.8" fill="#ff0000" fill-rule="evenodd" stroke="none"/>
    </g>
    <g id="sprite4" transform="matrix(1.0, 0.0, 0.0, 1.0, 1.95, 0.85)">
      <use ffdec:characterId="1161" height="1.7" transform="matrix(1.0, 0.0, 0.0, 1.0, -1.95, -0.85)" width="3.85" xlink:href="#shape3"/>
    </g>
    <g id="shape3" transform="matrix(1.0, 0.0, 0.0, 1.0, 1.95, 0.85)">
      <path d="M1.75 0.55 L1.3 0.85 -1.95 0.7 -1.95 -0.85 -0.4 -0.75 Q0.85 -0.75 1.9 0.15 L1.75 0.55" fill="#ff0000" fill-rule="evenodd" stroke="none"/>
    </g>
    <g id="sprite5" transform="matrix(1.0, 0.0, 0.0, 1.0, 1.6, 0.85)">
      <use ffdec:characterId="1163" height="1.75" transform="matrix(1.0, 0.0, 0.0, 1.0, -1.6, -0.85)" width="3.15" xlink:href="#shape4"/>
    </g>
    <g id="shape4" transform="matrix(1.0, 0.0, 0.0, 1.0, 1.6, 0.85)">
      <path d="M0.2 -0.85 L1.55 -0.75 1.25 0.35 -0.8 0.9 -1.6 0.85 -1.25 -0.3 0.2 -0.85" fill="#ff0000" fill-rule="evenodd" stroke="none"/>
    </g>
    <g id="sprite6" transform="matrix(1.0, 0.0, 0.0, 1.0, 14.25, 17.85)">
      <use ffdec:characterId="2533" height="36.2" transform="matrix(1.0, 0.0, 0.0, 1.0, -14.25, -17.85)" width="30.95" xlink:href="#shape5"/>
    </g>
    <g id="shape5" transform="matrix(1.0, 0.0, 0.0, 1.0, 14.25, 17.85)">
      <path d="M3.15 -12.9 L3.05 -16.1 4.8 -17.85 4.65 -14.8 7.6 -15.85 8.15 -15.6 8.1 -13.85 8.6 -10.6 8.7 -10.45 9.55 -8.85 10.75 -6.5 Q12.4 -3.0 12.95 3.95 L13.25 11.25 13.85 11.85 14.15 14.55 12.0 12.2 9.0 18.2 8.25 14.3 8.3 13.95 8.9 11.9 9.6 10.0 9.2 9.55 8.45 8.7 7.95 3.95 7.75 2.4 Q8.1 0.75 8.1 -1.0 L8.1 -2.3 7.65 -2.6 Q6.75 -5.2 5.3 -7.1 L4.4 -8.85 2.4 -11.4 3.5 -11.45 Q4.3 -11.55 4.7 -11.8 5.05 -12.1 4.8 -12.35 L3.15 -12.9 M16.7 14.9 L16.55 14.65 16.7 14.8 16.7 14.9" fill="#8d8c47" fill-rule="evenodd" stroke="none"/>
      <path d="M-12.6 -9.35 L-11.9 -9.15 -10.6 -9.6 -10.45 -10.05 -9.45 -9.95 -9.05 -9.55 -8.15 -10.05 -8.9 -10.45 -6.1 -13.35 -4.45 -12.8 -3.9 -13.0 -3.05 -12.7 -2.25 -11.4 -1.1 -11.5 -0.7 -12.95 -2.8 -15.2 0.05 -13.45 0.9 -15.45 1.85 -15.45 2.2 -14.15 1.1 -13.4 3.15 -12.9 4.8 -12.35 Q5.05 -12.1 4.7 -11.8 4.3 -11.55 3.5 -11.45 L2.4 -11.4 Q2.05 -11.4 1.85 -11.05 1.6 -10.75 1.6 -10.3 L1.65 -8.85 1.6 -8.45 1.55 -8.2 1.75 -8.05 Q4.55 -5.7 5.9 -1.4 6.8 1.35 6.25 3.95 L5.45 6.9 6.1 7.15 6.25 7.85 6.6 8.1 4.65 9.0 4.9 9.55 0.9 10.55 0.85 10.4 Q0.85 9.9 1.1 9.55 1.3 9.2 1.6 9.2 L2.75 9.3 2.25 8.95 2.25 7.45 1.5 7.35 1.25 8.35 1.2 8.35 1.25 8.4 1.25 8.45 0.05 8.35 1.05 6.9 -0.45 6.65 Q-2.35 6.2 -3.0 5.4 L-4.4 6.35 -6.2 4.75 -6.85 4.3 -7.3 2.55 -5.35 2.65 -4.05 3.8 -5.3 0.55 -4.55 -0.45 -4.85 -1.55 -5.35 -1.6 -5.05 -2.1 -3.75 -1.55 Q-2.5 -1.6 -2.1 -2.75 L-2.15 -3.2 Q-2.2 -4.35 -2.95 -5.35 L-2.15 -5.35 -1.8 -5.6 0.3 -4.8 0.0 -3.4 1.6 -1.5 0.95 -0.95 1.15 0.25 3.2 -0.05 3.25 -0.05 2.75 -1.55 3.65 -2.5 3.55 -3.3 Q3.3 -4.55 2.3 -5.55 L1.8 -6.1 -1.45 -5.75 -2.0 -6.05 -2.1 -8.15 -1.85 -8.5 -2.95 -8.7 -4.45 -8.8 Q-6.5 -8.8 -8.45 -8.05 L-8.05 -7.2 -4.95 -6.45 -6.55 -6.55 -8.7 -6.7 -9.15 -6.1 Q-10.6 -6.35 -11.6 -5.25 L-11.85 -5.0 -12.25 -4.5 -12.95 -4.45 -14.2 -2.4 Q-14.45 -4.2 -13.35 -5.35 L-13.15 -6.0 -13.05 -6.8 -12.9 -6.75 -12.6 -6.8 -12.65 -6.95 -12.7 -7.85 -12.65 -8.85 -12.6 -9.35 M8.2 14.3 L7.75 14.8 6.7 15.0 8.2 14.3 M-10.55 2.2 L-10.85 1.35 -12.65 0.95 -12.65 0.45 -13.05 -0.45 -13.35 -1.55 -13.35 -1.6 -11.9 -1.7 -11.5 -2.4 -9.85 -2.15 -9.9 -2.8 -9.5 -3.3 -8.7 -2.9 -8.35 -2.35 -9.5 -2.05 -10.25 -1.05 -10.25 -0.35 -9.45 -0.25 -9.7 1.4 -10.25 1.5 -10.55 2.2 M-10.6 2.6 L-10.4 3.3 -10.8 2.9 -10.6 2.6 M-3.15 -10.2 L-2.55 -9.45 -1.8 -9.25 -1.4 -10.05 -3.5 -11.7 -5.4 -10.2 -3.6 -9.9 -3.15 -10.2 M-0.8 -1.85 Q-3.6 -1.95 -3.4 0.85 L-3.3 1.35 -2.0 2.1 -1.35 2.4 0.3 0.75 Q0.45 -0.65 -0.5 -1.65 L-0.8 -1.85 M-3.1 7.8 L-1.65 7.15 -1.7 8.05 -3.1 7.8 M2.6 13.2 L5.1 11.65 5.05 12.15 4.7 12.5 5.05 13.1 4.1 13.8 0.35 15.45 2.6 13.2 M6.55 11.05 L8.25 10.25 9.25 10.2 9.2 9.55 9.6 10.0 8.9 11.9 6.3 12.6 6.05 12.25 7.05 11.9 6.55 11.05 M1.2 2.1 L-0.4 3.7 1.25 3.55 1.75 3.6 2.05 3.05 4.45 3.6 4.3 1.8 1.7 2.15 1.2 2.1 M3.7 15.8 Q2.75 16.75 1.25 16.45 L0.55 16.05 3.7 15.8" fill="#990000" fill-rule="evenodd" stroke="none"/>
      <path d="M3.15 -12.9 L1.1 -13.4 2.2 -14.15 1.85 -15.45 0.9 -15.45 0.05 -13.45 -2.8 -15.2 -0.7 -12.95 -1.1 -11.5 -2.25 -11.4 -3.05 -12.7 -3.9 -13.0 -4.45 -12.8 -6.1 -13.35 -8.9 -10.45 -8.15 -10.05 -9.05 -9.55 -9.45 -9.95 -10.45 -10.05 -10.6 -9.6 -11.9 -9.15 -12.6 -9.35 -12.95 -10.1 -12.2 -11.85 Q-9.15 -11.95 -8.4 -14.8 L-8.0 -16.05 -5.95 -15.85 -5.65 -17.6 Q-1.05 -18.5 3.05 -16.1 L3.15 -12.9 M-14.2 -2.4 L-12.95 -4.45 -12.25 -4.5 -11.85 -5.0 -11.6 -5.25 Q-10.6 -6.35 -9.15 -6.1 L-9.5 -3.3 -9.9 -2.8 -9.85 -2.15 -11.5 -2.4 -11.9 -1.7 -13.35 -1.6 -13.35 -1.55 -13.05 -0.45 -12.65 0.45 -12.65 0.95 -10.85 1.35 -10.55 2.2 -10.6 2.6 -10.8 2.9 -12.05 2.3 -12.6 1.8 -13.75 -0.75 -14.2 -2.4 M-4.95 -6.45 L-8.05 -7.2 -8.45 -8.05 Q-6.5 -8.8 -4.45 -8.8 L-2.95 -8.7 -1.85 -8.5 -2.1 -8.15 -2.0 -6.05 -1.45 -5.75 1.8 -6.1 2.3 -5.55 Q3.3 -4.55 3.55 -3.3 L3.65 -2.5 2.75 -1.55 3.25 -0.05 3.2 -0.05 1.15 0.25 0.95 -0.95 1.6 -1.5 0.0 -3.4 0.3 -4.8 -1.8 -5.6 -2.15 -5.35 -2.95 -5.35 -4.95 -6.45 M-5.05 -2.1 L-5.35 -1.6 -5.7 -1.25 -6.6 -1.25 -7.65 -1.95 -6.3 -2.15 -6.55 -5.95 -6.25 -6.3 Q-5.45 -5.5 -5.15 -4.45 -5.0 -3.8 -5.0 -3.0 L-5.05 -2.1 M-4.4 6.35 L-3.0 5.4 Q-2.35 6.2 -0.45 6.65 L1.05 6.9 0.05 8.35 -1.1 8.3 -1.7 8.05 -1.65 7.15 -3.1 7.8 Q-3.55 8.35 -4.35 8.15 L-4.75 7.95 -4.75 6.6 -4.4 6.35 M0.9 10.55 L4.9 9.55 4.65 9.0 6.6 8.1 7.6 8.2 7.95 8.65 8.45 8.7 9.2 9.55 9.25 10.2 8.25 10.25 -0.05 11.2 0.9 10.55 M-3.15 -10.2 L-3.6 -9.9 -5.4 -10.2 -3.5 -11.7 -1.4 -10.05 -1.8 -9.25 -2.55 -9.45 -3.15 -10.2 M5.1 11.65 L6.55 11.05 7.05 11.9 6.05 12.25 5.05 12.15 5.1 11.65 M8.9 11.9 L8.3 13.95 4.45 14.95 4.1 13.8 5.05 13.1 6.3 12.6 8.9 11.9 M1.2 2.1 L1.7 2.15 4.3 1.8 4.45 3.6 2.05 3.05 1.75 3.6 1.25 3.55 -0.4 3.7 1.2 2.1" fill="#ff0000" fill-rule="evenodd" stroke="none"/>
      <path d="M-12.65 -8.85 L-12.7 -7.85 -12.65 -6.95 -12.6 -6.8 -12.9 -6.75 -13.05 -6.8 -12.65 -8.85 M6.1 7.15 L5.45 6.9 6.25 3.95 Q6.8 1.35 5.9 -1.4 4.55 -5.7 1.75 -8.05 L1.55 -8.2 1.6 -8.45 1.65 -8.85 1.6 -10.3 3.7 -8.85 5.3 -7.1 Q6.75 -5.2 7.65 -2.6 L8.1 -2.3 8.1 -1.0 Q8.1 0.75 7.75 2.4 L7.4 3.95 6.1 7.15" fill="#764701" fill-rule="evenodd" stroke="none"/>
      <path d="M-6.55 -6.55 L-4.95 -6.45 -2.95 -5.35 Q-2.2 -4.35 -2.15 -3.2 L-2.1 -2.75 Q-2.5 -1.6 -3.75 -1.55 L-5.05 -2.1 -5.0 -3.0 Q-5.0 -3.8 -5.15 -4.45 -5.45 -5.5 -6.25 -6.3 L-6.55 -6.55 M-5.35 -1.6 L-4.85 -1.55 -4.55 -0.45 -5.3 0.55 -4.05 3.8 -5.35 2.65 -7.3 2.55 -6.85 4.3 -7.15 5.7 -7.2 5.95 -7.45 6.35 -8.7 6.3 -10.4 3.3 -10.6 2.6 -10.55 2.2 -10.25 1.5 -9.7 1.4 -9.45 -0.25 -10.25 -0.35 -10.25 -1.05 -9.5 -2.05 -8.35 -2.35 -7.65 -1.95 -6.6 -1.25 -5.7 -1.25 -5.35 -1.6 M-0.8 -1.85 L-0.5 -1.65 Q0.45 -0.65 0.3 0.75 L-1.35 2.4 -2.0 2.1 -3.3 1.35 -3.4 0.85 Q-3.6 -1.95 -0.8 -1.85" fill="#650101" fill-rule="evenodd" stroke="none"/>
      <path d="M-9.15 -6.1 L-8.7 -6.7 -6.55 -6.55 -6.25 -6.3 -6.55 -5.95 -6.3 -2.15 -7.65 -1.95 -8.35 -2.35 -8.7 -2.9 -9.5 -3.3 -9.15 -6.1 M8.25 14.3 L8.2 14.3 6.7 15.0 4.4 15.65 3.7 15.8 0.55 16.05 -0.25 15.7 0.35 15.45 4.1 13.8 4.45 14.95 8.3 13.95 8.25 14.3 M-5.2 12.05 L-0.05 11.2 8.25 10.25 6.55 11.05 5.1 11.65 2.6 13.2 -4.45 13.2 -4.95 12.9 -5.2 12.05" fill="#ffffff" fill-rule="evenodd" stroke="none"/>
      <path d="M-6.85 4.3 L-6.2 4.75 -4.4 6.35 -4.75 6.6 -4.75 7.95 -4.35 8.15 Q-3.55 8.35 -3.1 7.8 L-1.7 8.05 -1.1 8.3 0.05 8.35 1.25 8.45 1.6 9.2 Q1.3 9.2 1.1 9.55 0.85 9.9 0.85 10.4 L-0.75 9.8 -1.45 10.15 -2.7 9.5 -3.5 9.85 -5.7 8.1 -6.2 7.35 -6.85 6.25 -7.15 5.7 -6.85 4.3 M6.7 15.0 Q6.3 16.65 4.85 17.55 L4.15 17.95 3.75 17.15 4.4 15.65 6.7 15.0 M-4.25 14.1 L-5.15 14.8 Q-8.8 13.1 -9.9 9.35 L-4.75 14.3 -4.25 14.05 -4.25 14.1 M5.05 12.15 L6.05 12.25 6.3 12.6 5.05 13.1 4.7 12.5 5.05 12.15" fill="#6b476b" fill-rule="evenodd" stroke="none"/>
      <path d="M1.25 8.4 L1.2 8.35 1.25 8.35 1.25 8.4 M0.85 10.4 L0.9 10.55 -0.05 11.2 -5.2 12.05 -7.15 6.0 -7.2 5.95 -7.15 5.7 -6.85 6.25 -6.2 7.35 -5.7 8.1 -3.5 9.85 -2.7 9.5 -1.45 10.15 -0.75 9.8 0.85 10.4 M4.15 17.95 Q-0.75 19.5 -3.6 15.25 L-4.25 14.1 -4.25 14.05 -4.2 14.05 -4.2 14.0 -4.15 13.95 -4.45 13.2 2.6 13.2 0.35 15.45 -0.25 15.7 0.55 16.05 1.25 16.45 Q2.75 16.75 3.7 15.8 L4.4 15.65 3.75 17.15 4.15 17.95" fill="#996699" fill-rule="evenodd" stroke="none"/>
      <path d="M1.25 8.45 L1.25 8.4 1.25 8.35 1.5 7.35 2.25 7.45 2.25 8.95 2.75 9.3 1.6 9.2 1.25 8.45 M-9.9 9.35 L-11.45 5.2 -12.05 2.3 -10.8 2.9 -10.4 3.3 -8.7 6.3 -7.45 6.35 -7.2 5.95 -7.15 6.0 -5.2 12.05 -4.95 12.9 -4.45 13.2 -4.15 13.95 -4.2 14.0 -4.2 14.05 -4.25 14.05 -4.75 14.3 -9.9 9.35" fill="#4d334d" fill-rule="evenodd" stroke="none"/>
      <path d="M6.6 8.1 L6.25 7.85 6.1 7.15 7.4 3.95 7.75 2.4 7.95 3.95 8.45 8.7 7.95 8.65 7.6 8.2 6.6 8.1 M1.6 -10.3 Q1.6 -10.75 1.85 -11.05 2.05 -11.4 2.4 -11.4 L4.4 -8.85 5.3 -7.1 3.7 -8.85 1.6 -10.3" fill="#78783c" fill-rule="evenodd" stroke="none"/>
    </g>
    <g id="sprite7" transform="matrix(1.0, 0.0, 0.0, 1.0, 13.15, 16.2)">
      <use ffdec:characterId="2535" height="32.4" transform="matrix(1.0, 0.0, 0.0, 1.0, -13.15, -16.2)" width="27.75" xlink:href="#shape6"/>
    </g>
    <g id="shape6" transform="matrix(1.0, 0.0, 0.0, 1.0, 13.15, 16.2)">
      <path d="M-9.65 -6.05 L-9.65 -6.15 -9.6 -6.1 -9.65 -6.05 M3.05 -13.05 L3.05 -13.4 2.45 -15.55 Q2.45 -16.7 3.7 -15.35 5.25 -13.7 5.5 -13.7 L5.95 -14.0 6.4 -14.3 6.35 -13.7 6.2 -11.75 6.05 -10.25 5.7 -9.8 5.55 -8.9 5.35 -8.2 4.85 -7.15 4.1 -5.2 4.05 -5.1 4.2 -4.7 4.55 -3.1 2.7 -3.2 2.05 -1.05 2.0 -0.75 1.85 -1.85 1.75 -2.55 0.4 -2.85 Q-0.8 -2.55 -1.85 -1.85 L-2.1 -1.7 -1.25 -3.55 1.1 -4.5 1.8 -4.35 3.4 -9.8 3.8 -12.15 3.05 -13.05 M-1.9 0.25 L-1.8 0.3 Q0.5 1.2 1.95 -0.5 1.65 0.75 1.65 2.05 L-0.15 2.05 Q-0.1 4.15 -0.85 6.05 L-1.9 7.85 -1.7 8.3 -1.7 8.55 -4.0 8.05 -4.2 7.05 -4.55 5.9 Q-3.7 5.15 -3.2 4.2 L-3.65 3.45 -3.9 3.05 -4.85 2.0 -4.1 1.15 Q-3.7 0.75 -3.95 0.15 L-4.05 -0.15 -2.55 -0.25 -2.55 0.35 -3.05 1.5 -2.75 2.75 -2.95 2.8 -2.1 4.25 -0.85 2.6 -1.95 0.25 -2.0 0.15 -1.9 0.25 M2.0 7.55 Q1.45 8.45 0.4 8.8 L0.35 8.8 2.35 6.25 2.6 7.0 2.0 7.55 M-8.3 5.35 L-8.6 6.6 -9.2 6.3 -9.95 5.6 -10.2 5.0 -10.25 4.65 -9.75 3.95 -9.65 3.75 -9.0 3.75 -8.15 4.55 -8.3 5.35" fill="#764701" fill-rule="evenodd" stroke="none"/>
      <path d="M-7.9 -9.75 L-6.9 -10.4 -6.9 -10.35 -7.9 -9.75 M-2.55 -15.65 L-2.05 -16.2 Q-0.2 -15.6 0.75 -14.1 L-0.1 -13.7 -0.7 -13.95 Q-2.0 -14.45 -2.55 -15.65 M1.8 -13.2 L3.05 -13.05 3.8 -12.15 3.4 -9.8 Q2.75 -8.1 1.2 -7.15 0.7 -6.75 0.1 -6.5 L-2.05 -9.95 -1.75 -10.45 -0.85 -10.6 0.5 -10.0 1.5 -10.35 1.3 -10.8 1.2 -12.85 1.8 -13.2 M1.85 -1.85 Q0.75 -0.2 -1.25 -0.1 L-1.65 0.1 -1.9 0.25 -2.0 0.15 -1.95 0.25 -2.05 0.2 -2.15 0.05 -2.2 -0.15 -2.25 -0.25 -2.1 -1.7 -1.85 -1.85 Q-0.8 -2.55 0.4 -2.85 L1.75 -2.55 1.85 -1.85 M1.65 2.05 L2.3 2.05 2.8 2.35 1.9 4.25 1.85 4.35 Q0.4 6.5 -1.45 8.1 L-1.7 8.3 -1.9 7.85 -0.85 6.05 Q-0.1 4.15 -0.15 2.05 L1.65 2.05 M-3.65 3.45 L-3.9 4.45 -4.65 4.7 -5.45 4.2 -6.0 3.9 -8.4 2.45 -8.0 2.05 -7.15 1.75 -7.1 1.75 -5.95 1.95 Q-5.15 2.2 -4.45 2.7 L-3.65 3.45 M-3.95 0.15 L-4.4 0.8 -5.2 0.75 -5.55 -0.25 -6.65 -0.3 -8.25 0.6 -9.1 0.5 -9.75 -0.55 -8.15 -1.5 -9.7 -2.7 -6.4 -2.15 -4.65 -1.4 -4.6 -0.75 -4.05 -0.15 -3.95 0.15 M9.55 -1.05 Q8.9 0.2 7.6 0.7 L6.75 0.85 6.1 0.65 5.9 0.15 6.05 -0.45 Q7.6 -1.5 9.55 -1.05 M2.6 7.0 L4.25 7.3 5.6 5.4 4.7 5.45 4.65 3.45 4.8 1.45 6.85 1.65 7.0 4.2 7.45 4.75 7.5 5.35 7.1 5.9 6.8 9.4 Q3.2 8.25 2.85 9.45 L1.85 8.3 2.0 7.55 2.6 7.0 M0.8 14.25 L-1.1 14.25 Q-4.6 13.7 -6.65 11.35 L-6.5 9.15 -6.25 8.9 -5.8 8.75 -4.85 8.7 -4.25 8.95 Q-1.5 10.4 1.45 11.4 L0.95 12.0 -0.15 12.45 -4.8 10.2 0.8 14.25 M-7.15 -6.85 L-2.75 -5.25 -2.4 -5.65 -1.1 -5.5 -0.7 -5.2 -2.5 -3.55 -3.7 -3.75 -4.0 -4.7 -7.15 -6.85 M-10.2 5.0 L-11.2 4.6 -11.45 3.85 -9.5 2.2 -9.4 2.2 -8.8 2.2 -8.9 2.5 Q-8.25 4.45 -6.55 5.3 L-8.3 5.35 -8.15 4.55 -9.0 3.75 -9.65 3.75 -9.75 3.95 -10.25 4.65 -10.2 5.0" fill="#ff0000" fill-rule="evenodd" stroke="none"/>
      <path d="M7.75 10.1 L10.1 11.6 Q9.85 12.5 10.05 12.9 10.2 13.3 6.75 11.95 5.65 11.5 4.25 10.5 L2.85 9.45 Q3.2 8.25 6.8 9.4 L7.75 10.1 M5.15 13.65 L7.4 15.35 Q6.75 16.45 4.85 15.95 L2.6 15.2 0.8 14.25 -4.8 10.2 -0.15 12.45 0.95 12.0 3.55 13.1 5.15 13.65 M-10.45 -0.9 L-13.15 -2.65 -10.0 -2.75 -9.85 -2.7 -9.7 -2.7 -8.15 -1.5 -9.75 -0.55 -10.45 -0.9 M-9.65 -6.15 L-12.25 -7.75 -9.25 -7.65 -7.15 -6.85 -4.0 -4.7 -3.7 -3.75 -2.5 -3.55 -3.75 -3.1 -9.6 -6.1 -9.65 -6.15 M-6.9 -10.4 L-10.05 -12.45 Q-9.0 -13.15 -7.85 -12.85 L-4.7 -11.65 -2.05 -9.95 0.1 -6.5 Q-0.3 -6.55 -0.6 -6.7 -2.25 -7.45 -3.75 -8.35 L-6.9 -10.35 -6.9 -10.4 M-1.5 -12.5 L-4.55 -14.9 -4.4 -15.95 -2.55 -15.65 Q-2.0 -14.45 -0.7 -13.95 L-0.1 -13.7 0.75 -14.1 1.8 -13.2 1.2 -12.85 1.3 -10.8 -1.5 -12.5" fill="#ffffff" fill-rule="evenodd" stroke="none"/>
      <path d="M12.0 -4.5 L8.85 6.1 Q8.15 8.1 7.75 10.1 L6.8 9.4 7.1 5.9 7.5 5.35 7.45 4.75 7.0 4.2 6.85 1.65 4.8 1.45 4.65 3.45 4.7 5.45 5.6 5.4 4.25 7.3 2.6 7.0 2.35 6.25 0.35 8.8 0.4 8.8 Q1.45 8.45 2.0 7.55 L1.85 8.3 2.85 9.45 4.25 10.5 Q5.65 11.5 6.75 11.95 L5.15 13.65 3.55 13.1 0.95 12.0 1.45 11.4 Q-1.5 10.4 -4.25 8.95 L-4.85 8.7 -5.8 8.75 -6.25 8.9 -6.5 9.15 -6.65 11.35 Q-4.6 13.7 -1.1 14.25 L0.8 14.25 2.6 15.2 1.85 16.2 -0.5 15.7 -2.0 14.95 Q-4.25 13.9 -6.0 12.45 -6.65 11.4 -7.75 10.45 L-8.1 9.9 -8.15 9.85 -8.25 7.95 -8.45 7.55 -8.5 7.45 Q-9.0 6.8 -9.85 6.25 L-9.9 6.2 -11.4 5.6 -11.9 5.5 -12.15 3.35 -10.75 0.2 -10.45 -0.9 -9.75 -0.55 -9.1 0.5 -8.25 0.6 -6.65 -0.3 -5.55 -0.25 -5.2 0.75 -4.4 0.8 -3.95 0.15 Q-3.7 0.75 -4.1 1.15 L-4.85 2.0 -3.9 3.05 -3.65 3.45 -3.2 4.2 Q-3.7 5.15 -4.55 5.9 L-4.2 7.05 -4.0 8.05 -1.7 8.55 -1.7 8.3 -1.45 8.1 Q0.4 6.5 1.85 4.35 L1.9 4.25 2.8 2.35 2.3 2.05 1.65 2.05 Q1.65 0.75 1.95 -0.5 0.5 1.2 -1.8 0.3 L-1.9 0.25 -1.65 0.1 -1.25 -0.1 Q0.75 -0.2 1.85 -1.85 L2.0 -0.75 2.05 -1.05 2.7 -3.2 4.55 -3.1 5.75 -1.95 7.5 -2.35 Q8.8 -2.95 9.65 -4.05 L10.25 -4.8 11.1 -4.8 12.0 -4.5 M-9.85 -2.7 Q-9.4 -3.65 -9.5 -4.65 L-9.65 -6.05 -9.6 -6.1 -3.75 -3.1 -2.5 -3.55 -0.7 -5.2 -1.1 -5.5 -2.4 -5.65 -2.75 -5.25 -7.15 -6.85 -9.25 -7.65 -7.9 -9.75 -6.9 -10.35 -3.75 -8.35 Q-2.25 -7.45 -0.6 -6.7 -0.3 -6.55 0.1 -6.5 0.7 -6.75 1.2 -7.15 2.75 -8.1 3.4 -9.8 L1.8 -4.35 1.1 -4.5 -1.25 -3.55 -2.1 -1.7 -2.25 -0.25 -2.55 -0.25 -4.05 -0.15 -4.6 -0.75 -4.65 -1.4 -6.4 -2.15 -9.7 -2.7 -9.85 -2.7 M-4.7 -11.65 Q-3.0 -12.45 -1.5 -12.5 L1.3 -10.8 1.5 -10.35 0.5 -10.0 -0.85 -10.6 -1.75 -10.45 -2.05 -9.95 -4.7 -11.65 M-3.65 3.45 L-4.45 2.7 Q-5.15 2.2 -5.95 1.95 L-7.1 1.75 -7.15 1.75 -8.0 2.05 -8.4 2.45 -6.0 3.9 -5.45 4.2 -4.65 4.7 -3.9 4.45 -3.65 3.45 M9.55 -1.05 Q7.6 -1.5 6.05 -0.45 L5.9 0.15 6.1 0.65 6.75 0.85 7.6 0.7 Q8.9 0.2 9.55 -1.05 M-8.3 5.35 L-6.55 5.3 Q-8.25 4.45 -8.9 2.5 L-8.8 2.2 -9.4 2.2 -9.5 2.2 -11.45 3.85 -11.2 4.6 -10.2 5.0 -9.95 5.6 -9.2 6.3 -8.6 6.6 -8.3 5.35" fill="#990000" fill-rule="evenodd" stroke="none"/>
      <path d="M4.1 -5.2 L4.2 -4.7 4.05 -5.1 4.1 -5.2 M-2.55 -0.25 L-2.25 -0.25 -2.2 -0.15 -2.15 0.05 -2.05 0.2 -1.95 0.25 -0.85 2.6 -2.1 4.25 -2.95 2.8 -2.75 2.75 -3.05 1.5 -2.55 0.35 -2.55 -0.25" fill="#666633" fill-rule="evenodd" stroke="none"/>
      <path d="M8.3 -13.05 L8.5 -13.4 Q9.65 -15.3 10.7 -15.8 L10.8 -15.35 9.9 -12.1 10.15 -11.4 10.55 -10.7 12.15 -11.75 Q13.4 -12.4 13.95 -12.4 L14.55 -12.25 14.6 -11.9 13.7 -10.8 Q12.75 -9.6 12.65 -8.65 L12.2 -6.8 12.05 -6.45 12.0 -4.5 11.1 -4.8 10.25 -4.8 9.65 -4.05 Q8.8 -2.95 7.5 -2.35 L7.45 -7.25 7.55 -7.3 7.7 -7.4 8.15 -9.65 8.6 -12.25 8.3 -13.05 M5.55 -8.9 Q6.65 -6.5 7.5 -2.35 L5.75 -1.95 4.55 -3.1 4.2 -4.7 4.1 -5.2 4.85 -7.15 5.35 -8.2 5.55 -8.9" fill="#8d8c47" fill-rule="evenodd" stroke="none"/>
      <path d="M6.4 -14.3 Q6.6 -14.9 7.45 -14.05 L8.3 -13.05 8.6 -12.25 8.15 -9.65 7.7 -7.4 7.55 -7.3 7.45 -7.25 7.5 -2.35 Q6.65 -6.5 5.55 -8.9 L5.7 -9.8 6.05 -10.25 6.2 -11.75 6.35 -13.7 6.4 -14.3" fill="#78783c" fill-rule="evenodd" stroke="none"/>
    </g>
    <g id="sprite8" transform="matrix(1.0, 0.0, 0.0, 1.0, 11.25, 12.35)">
      <use ffdec:characterId="2537" height="32.2" transform="matrix(1.0, 0.0, 0.0, 1.0, -11.25, -12.35)" width="26.0" xlink:href="#shape7"/>
    </g>
    <g id="shape7" transform="matrix(1.0, 0.0, 0.0, 1.0, 11.25, 12.35)">
      <path d="M1.65 -11.65 L4.95 -7.15 5.8 -7.7 4.25 -9.4 5.3 -9.5 5.15 -10.45 Q6.7 -9.7 8.0 -8.5 L7.65 -8.15 7.25 -5.6 6.2 -6.35 5.55 -5.75 5.7 -3.7 6.15 -4.75 6.35 -2.95 7.25 -2.85 8.65 -4.8 8.55 -4.1 Q9.35 -3.75 9.65 -2.85 L10.2 -0.6 10.7 0.15 Q11.8 1.6 13.6 1.35 L12.35 2.55 7.8 0.8 8.55 0.8 7.3 -0.85 6.25 -0.95 4.5 -2.7 3.9 -2.8 2.65 -1.8 2.65 -0.15 2.05 -0.5 1.65 0.3 Q2.0 -3.4 3.6 -6.55 L2.9 -8.35 2.5 -8.55 0.3 -9.55 -0.2 -9.3 -2.25 -11.0 1.65 -11.65 M9.65 4.6 L7.8 4.7 7.4 5.1 7.2 5.9 6.95 6.7 6.9 7.7 Q6.75 8.8 6.05 9.65 L5.4 9.4 4.85 9.3 3.4 11.1 3.6 11.45 3.85 13.0 -0.15 14.6 -0.65 14.15 -1.65 14.6 -2.55 14.25 -0.9 14.1 -0.7 13.1 -0.4 12.25 3.1 12.1 3.1 11.35 0.1 10.95 -0.5 9.5 2.25 9.65 3.0 8.95 3.5 9.4 3.2 7.85 5.2 6.6 6.65 4.7 7.5 3.35 9.65 4.6 M-4.2 11.0 L-4.65 9.2 -5.3 8.2 -4.6 8.4 -3.8 7.9 -3.2 7.5 -3.2 5.45 -4.2 4.6 -7.2 5.3 -8.05 4.65 Q-8.7 4.25 -8.75 3.55 L-8.75 3.4 -8.6 3.9 -8.25 4.15 Q-7.55 4.05 -6.95 3.75 L-5.9 3.1 -5.8 1.8 -6.6 1.55 -7.05 1.95 -7.35 1.2 -8.25 -1.3 -7.3 -1.45 -6.85 -0.4 -6.3 -0.45 -6.0 -1.95 -3.4 -3.1 -3.0 -2.45 Q-2.35 -1.25 -2.25 -0.2 -2.1 1.3 -3.15 2.45 L-3.9 3.2 Q-1.65 4.2 0.45 2.95 L1.6 0.7 2.75 2.7 3.15 2.3 3.3 1.55 5.25 2.7 2.6 6.05 2.6 7.1 2.0 7.0 1.3 7.55 0.2 8.75 -1.75 8.9 -2.6 9.3 -3.6 8.85 -4.35 8.85 -4.25 10.2 -3.8 10.65 -4.2 11.0 M-8.75 -9.15 L-8.8 -9.9 Q-6.25 -11.6 -4.6 -12.05 L-4.9 -11.35 -3.5 -10.75 -3.0 -10.0 -1.55 -8.85 -3.95 -8.15 -4.6 -8.6 -5.15 -8.6 -6.75 -8.65 -8.75 -9.15 M0.3 6.55 L0.35 5.0 -0.6 4.7 -1.75 5.55 -2.25 5.5 -2.35 5.7 -2.05 7.0 -0.75 7.5 0.3 6.55" fill="#990000" fill-rule="evenodd" stroke="none"/>
      <path d="M5.15 -10.45 L5.3 -9.5 4.25 -9.4 5.8 -7.7 4.95 -7.15 1.65 -11.65 Q3.25 -12.05 4.55 -10.95 L5.15 -10.45 M-2.25 -11.0 L-0.2 -9.3 0.3 -9.55 2.5 -8.55 -1.5 -7.6 -3.35 -7.95 -3.45 -7.95 -3.9 -8.05 -3.95 -8.15 -1.55 -8.85 -3.0 -10.0 -3.5 -10.75 -4.9 -11.35 -4.6 -12.05 -3.65 -12.35 -2.25 -11.0 M1.65 0.3 L2.05 -0.5 2.65 -0.15 2.65 -1.8 3.9 -2.8 4.5 -2.7 6.25 -0.95 7.3 -0.85 8.55 0.8 7.8 0.8 4.9 -1.35 Q5.55 -0.2 4.95 0.8 L5.5 1.5 6.25 2.05 Q8.7 2.6 10.95 3.5 L12.8 4.35 13.15 3.9 14.4 4.05 14.75 4.8 14.4 5.7 13.4 5.7 10.95 5.15 Q10.25 4.95 9.65 4.6 L7.5 3.35 6.65 4.7 5.2 6.6 3.2 7.85 3.5 9.4 3.0 8.95 2.25 9.65 -0.5 9.5 0.1 10.95 3.1 11.35 3.1 12.1 -0.4 12.25 -0.7 13.1 -1.45 11.85 -1.25 11.3 -1.5 10.5 -2.75 9.9 -3.8 10.65 -4.25 10.2 -4.35 8.85 -3.6 8.85 -2.6 9.3 -1.75 8.9 0.2 8.75 1.3 7.55 2.0 7.0 2.6 7.1 2.6 6.05 5.25 2.7 3.3 1.55 3.15 2.3 2.75 2.7 1.6 0.7 1.65 0.3 M13.6 1.35 Q11.8 1.6 10.7 0.15 L10.2 -0.6 Q12.35 -0.95 13.8 0.45 L14.2 0.85 13.6 1.35 M8.65 -4.8 L7.25 -2.85 6.35 -2.95 6.15 -4.75 5.7 -3.7 5.55 -5.75 6.2 -6.35 7.25 -5.6 7.65 -8.15 8.0 -8.5 8.8 -8.05 8.65 -4.8 M3.85 13.0 Q4.95 13.65 5.1 14.85 L4.85 15.25 4.4 15.25 3.6 14.5 Q-0.9 16.05 -3.3 18.95 L-3.7 17.7 -1.65 14.6 -0.65 14.15 -0.15 14.6 3.85 13.0 M2.6 19.0 L2.45 19.7 1.5 19.85 0.3 19.1 -0.05 18.15 0.45 17.1 2.05 17.35 2.6 19.0 M-6.4 14.4 L-6.8 14.15 -6.95 12.85 Q-6.05 11.55 -4.4 11.2 L-3.35 11.85 Q-3.75 13.65 -5.5 14.15 L-6.4 14.4 M-7.4 5.75 L-7.2 5.3 -4.2 4.6 -3.2 5.45 -3.2 7.5 -3.8 7.9 -4.0 6.5 Q-4.8 5.85 -5.65 5.85 L-6.85 6.15 -7.4 5.75 M-3.4 -3.1 L-6.0 -1.95 -6.3 -0.45 -6.85 -0.4 -7.3 -1.45 -8.25 -1.3 -8.95 -2.8 Q-8.05 -3.75 -6.9 -4.1 L-5.3 -4.45 -3.45 -3.9 -3.4 -3.1 M-7.05 1.95 L-6.6 1.55 -5.8 1.8 -5.9 3.1 -6.95 3.75 Q-7.55 4.05 -8.25 4.15 L-8.6 3.9 -8.75 3.4 Q-8.6 2.35 -7.6 2.1 L-7.05 1.95 M0.3 6.55 L-0.75 7.5 -2.05 7.0 -2.35 5.7 -2.25 5.5 -1.75 5.55 -0.6 4.7 0.35 5.0 0.3 6.55" fill="#ff0000" fill-rule="evenodd" stroke="none"/>
      <path d="M2.5 -8.55 L2.9 -8.35 3.6 -6.55 Q2.0 -3.4 1.65 0.3 L1.6 0.7 0.45 2.95 Q-1.65 4.2 -3.9 3.2 L-3.15 2.45 Q-2.1 1.3 -2.25 -0.2 L-2.15 -0.35 -1.6 -0.6 -0.75 -0.5 Q0.5 -3.9 -1.3 -7.05 L-1.5 -7.6 2.5 -8.55 M-8.75 3.55 L-10.45 2.2 -10.35 1.85 -10.3 1.5 -7.35 1.2 -7.05 1.95 -7.6 2.1 Q-8.6 2.35 -8.75 3.4 L-8.75 3.55 M-6.75 -8.65 L-5.15 -8.6 -6.2 -8.45 -6.75 -8.65" fill="#764701" fill-rule="evenodd" stroke="none"/>
      <path d="M7.8 0.8 L12.35 2.55 12.45 2.55 13.85 3.1 Q14.1 3.1 14.25 3.4 L14.4 4.05 13.15 3.9 12.8 4.35 10.95 3.5 Q8.7 2.6 6.25 2.05 L5.5 1.5 4.95 0.8 Q5.55 -0.2 4.9 -1.35 L7.8 0.8 M4.85 15.25 L4.4 17.2 3.5 17.55 2.6 19.0 2.05 17.35 0.45 17.1 -0.05 18.15 -1.05 18.85 -2.1 19.4 -3.3 18.95 Q-0.9 16.05 3.6 14.5 L4.4 15.25 4.85 15.25 M-2.55 14.25 Q-3.55 15.1 -5.1 15.1 L-5.9 15.0 -6.4 14.4 -5.5 14.15 Q-3.75 13.65 -3.35 11.85 L-4.4 11.2 -4.2 11.0 -3.8 10.65 -2.75 9.9 -1.5 10.5 -1.25 11.3 -1.45 11.85 -0.7 13.1 -0.9 14.1 -2.55 14.25 M-5.3 8.2 L-7.15 9.4 -8.0 9.2 -8.75 8.15 -7.4 5.75 -6.85 6.15 -5.65 5.85 Q-4.8 5.85 -4.0 6.5 L-3.8 7.9 -4.6 8.4 -5.3 8.2" fill="#ffffff" fill-rule="evenodd" stroke="none"/>
      <path d="M-11.05 -6.45 L-11.25 -7.75 -11.15 -7.75 Q-10.1 -7.75 -9.7 -8.75 L-9.5 -9.0 -8.75 -9.15 -6.75 -8.65 -6.2 -8.45 -6.0 -7.6 -11.05 -6.45" fill="#78783c" fill-rule="evenodd" stroke="none"/>
      <path d="M-10.3 1.5 Q-9.8 -0.65 -10.2 -3.45 L-10.65 -4.75 -11.05 -6.45 -6.0 -7.6 -5.3 -4.45 -6.9 -4.1 Q-8.05 -3.75 -8.95 -2.8 L-8.25 -1.3 -7.35 1.2 -10.3 1.5" fill="#e37302" fill-rule="evenodd" stroke="none"/>
      <path d="M-2.25 -0.2 Q-2.35 -1.25 -3.0 -2.45 L-3.4 -3.1 -3.45 -3.9 -5.3 -4.45 -6.0 -7.6 -3.9 -8.05 -3.45 -7.95 -3.35 -7.95 -3.35 -7.9 -2.15 -0.35 -2.25 -0.2" fill="#cc6600" fill-rule="evenodd" stroke="none"/>
      <path d="M-5.15 -8.6 L-4.6 -8.6 -3.95 -8.15 -3.9 -8.05 -6.0 -7.6 -6.2 -8.45 -5.15 -8.6 M-3.35 -7.95 L-1.5 -7.6 -1.3 -7.05 Q0.5 -3.9 -0.75 -0.5 L-1.6 -0.6 -2.15 -0.35 -3.35 -7.9 -3.35 -7.95" fill="#666633" fill-rule="evenodd" stroke="none"/>
    </g>
    <g id="sprite9" transform="matrix(1.0, 0.0, 0.0, 1.0, 11.05, 20.85)">
      <use ffdec:characterId="2539" height="39.95" transform="matrix(1.0, 0.0, 0.0, 1.0, -11.05, -20.85)" width="22.9" xlink:href="#shape8"/>
    </g>
    <g id="shape8" transform="matrix(1.0, 0.0, 0.0, 1.0, 11.05, 20.85)">
      <path d="M5.1 -11.1 L5.95 -10.95 6.6 -6.6 5.05 -4.45 1.9 -6.85 1.3 -6.4 -1.7 -7.0 0.85 -9.25 -1.0 -10.55 -1.75 -9.7 -0.7 -9.55 -3.15 -8.0 -3.7 -9.45 -4.2 -9.65 -3.25 -10.75 Q-1.9 -12.55 -1.55 -14.65 L-1.15 -14.85 -0.75 -14.65 Q-0.75 -14.0 0.1 -13.55 0.95 -13.1 2.15 -13.1 L2.35 -10.2 3.55 -9.7 2.6 -7.55 3.35 -6.65 3.8 -7.0 Q5.75 -8.65 5.1 -11.1 M9.4 -4.9 L9.3 -4.3 9.9 -3.25 7.95 -3.45 8.15 0.3 10.7 1.2 11.8 0.75 9.4 5.2 7.85 3.15 6.5 2.7 5.6 2.95 5.6 5.4 7.2 5.8 8.8 7.85 5.8 7.05 6.35 8.35 5.75 9.15 7.15 11.35 6.05 13.55 5.35 13.9 3.0 13.55 2.7 12.85 1.35 15.85 1.6 18.0 -0.95 17.75 -0.75 15.75 1.65 14.0 2.05 11.95 2.6 12.05 3.55 8.25 Q3.2 8.5 2.8 8.7 L3.45 7.95 2.4 3.85 2.25 3.4 3.55 3.4 3.35 1.65 5.15 1.2 5.55 -3.05 9.4 -4.9 M-2.7 -6.9 L-2.0 -6.85 -1.95 -5.4 1.45 -4.45 1.95 -2.1 1.3 -1.75 Q-0.4 -3.45 -2.55 -4.1 L-2.4 -4.3 -2.5 -4.55 -2.75 -5.05 Q-3.1 -5.85 -2.55 -6.5 L-2.7 -6.9 M-1.2 2.4 L-0.75 3.75 0.05 3.3 Q1.65 2.45 2.05 0.6 L2.5 1.4 2.65 1.85 1.85 2.7 1.1 3.65 0.5 4.25 0.25 4.5 0.05 4.6 -1.05 4.2 -1.4 2.9 -1.2 2.4 M-6.65 -2.4 L-6.3 -1.95 -4.95 -2.0 -4.35 -1.6 -5.3 -1.25 -6.2 -1.5 -6.45 -2.05 -6.65 -2.4 M-3.65 -1.15 Q-2.7 -0.5 -1.6 -0.45 L-1.2 -0.8 Q-1.35 0.15 -2.05 0.55 L-2.6 0.7 -3.0 0.15 -3.25 -0.7 -3.65 -1.15 M-4.1 6.75 L-4.45 6.7 Q-6.55 6.5 -6.8 4.55 -5.7 5.95 -4.05 6.05 -3.0 5.75 -2.65 4.95 L-2.6 4.65 -2.6 4.6 -2.45 2.85 Q-1.95 4.0 -2.2 4.95 -2.4 5.75 -3.15 6.4 L-4.1 6.75 M-2.15 8.75 L-1.25 9.2 -0.75 9.75 Q-1.85 12.65 -4.75 12.4 L-6.4 11.9 -7.3 10.6 -7.4 10.2 -5.7 10.4 -4.95 9.55 -2.25 9.55 -2.15 8.75 M8.1 0.5 L7.9 0.1 7.35 -0.1 6.85 0.1 6.6 0.5 6.85 0.95 7.35 1.1 7.9 0.95 8.1 0.5" fill="#990000" fill-rule="evenodd" stroke="none"/>
      <path d="M2.15 -13.1 Q2.6 -13.5 3.7 -12.55 L5.1 -11.1 Q5.75 -8.65 3.8 -7.0 L3.35 -6.65 2.6 -7.55 3.55 -9.7 2.35 -10.2 2.15 -13.1 M5.95 -10.95 Q7.4 -10.95 8.4 -9.15 9.4 -7.4 9.4 -4.9 L5.55 -3.05 5.15 1.2 3.35 1.65 2.5 1.4 2.05 0.6 Q1.65 2.45 0.05 3.3 L-0.75 3.75 -1.2 2.4 0.2 1.1 0.35 0.45 0.55 -0.15 1.25 -0.15 1.3 -1.75 1.95 -2.1 1.45 -4.45 -1.95 -5.4 -2.0 -6.85 -2.7 -6.9 -3.45 -7.1 -3.15 -8.0 -0.7 -9.55 -1.75 -9.7 -1.0 -10.55 0.85 -9.25 -1.7 -7.0 1.3 -6.4 1.9 -6.85 5.05 -4.45 6.6 -6.6 5.95 -10.95 M9.9 -3.25 L10.25 -3.1 Q12.05 -1.65 11.8 0.75 L10.7 1.2 8.15 0.3 7.95 -3.45 9.9 -3.25 M9.4 5.2 L10.35 7.55 7.15 11.35 5.75 9.15 6.35 8.35 5.8 7.05 8.8 7.85 7.2 5.8 5.6 5.4 5.6 2.95 6.5 2.7 7.85 3.15 9.4 5.2 M-0.95 17.75 L-1.9 17.85 -2.8 16.25 -3.4 15.5 Q-2.1 12.7 0.75 11.0 L1.65 11.25 2.05 11.95 1.65 14.0 -0.75 15.75 -0.95 17.75 M-5.55 -4.75 L-4.85 -4.85 -1.4 -1.8 -1.15 -1.2 -1.2 -0.8 -1.6 -0.45 Q-2.7 -0.5 -3.65 -1.15 L-3.9 -1.35 -4.35 -1.6 -4.95 -2.0 -6.3 -1.95 -6.65 -2.4 Q-6.7 -3.1 -6.4 -3.65 L-6.1 -4.1 -5.55 -4.75 M-6.7 7.8 L-3.55 7.6 -2.75 7.9 -2.15 8.75 -2.25 9.55 -4.95 9.55 -5.7 10.4 -7.4 10.2 -7.45 9.05 -7.2 8.25 -6.7 7.8 M-6.8 4.55 Q-6.45 3.3 -5.65 2.25 L-5.05 1.65 Q-3.7 1.35 -2.9 2.3 L-2.45 2.85 -2.6 4.6 -2.6 4.65 -2.65 4.95 Q-3.0 5.75 -4.05 6.05 -5.7 5.95 -6.8 4.55 M8.1 0.5 L7.9 0.95 7.35 1.1 6.85 0.95 6.6 0.5 6.85 0.1 7.35 -0.1 7.9 0.1 8.1 0.5" fill="#ff0000" fill-rule="evenodd" stroke="none"/>
      <path d="M-3.4 15.5 Q-4.45 14.5 -5.3 15.25 L-5.8 15.85 -5.75 15.55 -4.75 12.4 Q-1.85 12.65 -0.75 9.75 L-1.25 9.2 1.2 8.75 2.1 8.95 1.9 8.85 Q1.5 7.7 1.45 6.5 L1.45 5.85 1.1 5.4 1.2 4.75 Q1.3 4.25 1.55 3.85 L1.7 3.85 2.4 3.85 3.45 7.95 2.8 8.7 Q3.2 8.5 3.55 8.25 L2.6 12.05 2.05 11.95 1.65 11.25 0.75 11.0 Q-2.1 12.7 -3.4 15.5 M-6.05 17.75 L-5.9 18.45 -6.2 18.5 -6.05 17.75 M-2.65 -14.45 L-1.55 -14.65 Q-1.9 -12.55 -3.25 -10.75 L-4.2 -9.65 -3.7 -9.45 -3.15 -8.0 -3.45 -7.1 -2.7 -6.9 -2.55 -6.5 Q-3.1 -5.85 -2.75 -5.05 L-2.5 -4.55 -2.4 -4.3 -2.55 -4.1 Q-0.4 -3.45 1.3 -1.75 L1.25 -0.15 0.55 -0.15 0.35 0.45 -0.1 0.1 -1.0 -1.1 -1.15 -1.2 -1.4 -1.8 -4.85 -4.85 -5.55 -4.75 -6.0 -5.25 -5.9 -8.3 -5.7 -9.0 -5.45 -9.2 -5.5 -9.55 -5.35 -11.35 -2.65 -14.45 M-1.15 -14.85 L-0.65 -15.2 -0.75 -14.65 -1.15 -14.85 M2.5 1.4 L3.35 1.65 3.55 3.4 2.25 3.4 1.85 2.7 2.65 1.85 2.5 1.4 M-3.55 7.6 L-4.1 6.75 -3.15 6.4 Q-2.4 5.75 -2.2 4.95 L-1.9 5.4 -1.6 6.8 -2.05 7.85 -2.75 7.9 -3.55 7.6" fill="#764701" fill-rule="evenodd" stroke="none"/>
      <path d="M-5.9 -8.3 L-6.0 -5.25 -5.55 -4.75 -6.1 -4.1 -6.4 -3.65 -6.85 -3.7 -5.9 -8.3 M-5.5 -9.55 L-5.45 -9.2 -5.7 -9.0 -5.5 -9.55 M1.2 8.75 L0.05 6.5 1.45 6.5 Q1.5 7.7 1.9 8.85 L2.1 8.95 1.2 8.75 M1.7 3.85 L1.1 3.65 1.85 2.7 2.25 3.4 2.4 3.85 1.7 3.85 M-6.4 11.9 L-4.75 12.4 -5.75 15.55 -6.4 11.9" fill="#666633" fill-rule="evenodd" stroke="none"/>
      <path d="M-5.8 15.85 Q-6.15 16.4 -6.15 17.1 L-6.05 17.75 -6.2 18.5 -8.25 18.85 -8.45 19.1 -8.25 17.55 Q-8.25 15.7 -10.05 15.7 L-10.6 15.75 -10.7 14.8 -10.8 13.05 -10.1 13.15 Q-8.55 13.15 -8.55 11.8 L-8.8 11.1 -8.95 10.9 -8.3 10.45 -7.3 10.6 -6.4 11.9 -5.75 15.55 -5.8 15.85 M-10.6 -4.35 Q-9.1 -8.5 -9.55 -12.85 L-9.7 -15.2 -7.65 -15.6 -7.4 -20.85 -4.1 -15.2 -2.25 -17.45 -1.95 -15.1 -2.65 -14.45 -5.35 -11.35 -5.5 -9.55 -5.7 -9.0 -5.9 -8.3 -6.85 -3.7 -10.6 -4.35" fill="#78783c" fill-rule="evenodd" stroke="none"/>
      <path d="M-8.3 10.45 L-10.95 10.25 -11.0 1.85 -10.75 -2.9 -10.6 -4.35 -6.85 -3.7 -6.4 -3.65 Q-6.7 -3.1 -6.65 -2.4 L-6.45 -2.05 -6.85 4.3 -6.7 7.7 -6.7 7.8 -7.2 8.25 -7.45 9.05 -7.4 10.2 -7.3 10.6 -8.3 10.45" fill="#3a4f31" fill-rule="evenodd" stroke="none"/>
      <path d="M0.35 0.45 L0.2 1.1 -1.2 2.4 -1.4 2.9 -1.05 4.2 0.05 4.6 0.25 4.5 0.5 4.25 1.1 3.65 1.7 3.85 1.55 3.85 Q1.3 4.25 1.2 4.75 L1.1 5.4 1.45 5.85 1.45 6.5 0.05 6.5 1.2 8.75 -1.25 9.2 -2.15 8.75 -2.75 7.9 -2.05 7.85 -1.6 6.8 -1.9 5.4 -2.2 4.95 Q-1.95 4.0 -2.45 2.85 L-2.9 2.3 Q-3.7 1.35 -5.05 1.65 L-5.65 2.25 Q-6.45 3.3 -6.8 4.55 -6.55 6.5 -4.45 6.7 L-4.1 6.75 -3.55 7.6 -6.7 7.8 -6.7 7.7 -6.85 4.3 -6.45 -2.05 -6.2 -1.5 -5.3 -1.25 -4.35 -1.6 -3.9 -1.35 -3.65 -1.15 -3.25 -0.7 -3.0 0.15 -2.6 0.7 -2.05 0.55 Q-1.35 0.15 -1.2 -0.8 L-1.15 -1.2 -1.0 -1.1 -0.1 0.1 0.35 0.45" fill="#2f3f27" fill-rule="evenodd" stroke="none"/>
    </g>
  </defs>
</svg>
