<?xml version="1.0" encoding="UTF-8" standalone="no"?>
<svg xmlns:ffdec="https://www.free-decompiler.com/flash" xmlns:xlink="http://www.w3.org/1999/xlink" ffdec:objectType="frame" height="175.0px" width="150.0px" xmlns="http://www.w3.org/2000/svg">
  <g transform="matrix(1.0, 0.0, 0.0, 1.0, 75.0, 100.0)">
    <use ffdec:characterId="649" height="175.0" transform="matrix(1.0, 0.0, 0.0, 1.0, -75.0, -100.0)" width="150.0" xlink:href="#shape0"/>
  </g>
  <defs>
    <g id="shape0" transform="matrix(1.0, 0.0, 0.0, 1.0, 75.0, 100.0)">
      <path d="M73.5 -15.7 Q74.9 -8.7 75.0 -1.1 L73.9 0.2 74.0 1.6 Q74.0 2.95 73.2 3.4 L72.0 4.1 70.0 5.3 68.9 4.3 69.5 3.05 70.35 3.25 Q72.75 -3.85 72.35 -11.9 L72.05 -12.45 67.85 -19.35 67.15 -17.3 64.6 -18.95 64.95 -17.05 65.95 -13.55 67.5 -9.5 67.75 -15.85 69.3 -14.8 Q71.4 -12.7 71.15 -5.35 70.0 0.85 69.25 -5.35 L69.25 -9.35 66.1 -2.35 66.5 -1.75 65.25 4.4 67.6 2.45 65.6 7.95 Q64.9 9.25 64.5 10.75 L62.95 11.3 63.65 7.5 58.3 7.3 55.65 9.5 59.3 11.3 52.4 16.15 55.75 11.4 53.65 11.05 Q47.7 18.45 38.9 22.15 L38.85 21.25 Q43.5 18.65 46.45 14.05 L45.8 13.55 42.95 14.5 43.25 15.0 41.4 15.1 Q37.3 21.0 29.75 21.35 L27.5 21.4 26.0 21.25 Q29.1 21.0 32.25 19.55 L38.15 16.3 33.5 16.8 Q23.8 19.8 20.5 22.45 L27.55 22.8 27.15 23.2 35.3 22.8 20.7 26.25 24.75 24.3 18.4 24.2 18.25 23.4 16.8 23.35 14.65 24.95 13.5 25.55 11.75 25.55 Q15.8 21.1 25.25 17.15 L20.5 16.8 18.5 15.45 17.95 16.95 Q15.3 18.85 12.15 19.5 L11.05 19.55 12.25 20.8 11.45 22.0 9.25 21.55 6.9 20.85 -1.15 26.35 Q-3.95 25.4 -6.4 23.45 L-2.6 24.55 -0.8 23.9 -2.85 23.35 -2.8 21.8 0.8 23.0 1.55 22.6 -1.45 20.95 -1.95 21.65 -3.35 20.8 -5.25 21.3 -5.4 20.1 -5.15 19.75 -5.95 19.3 -8.25 22.5 Q-13.25 17.75 -20.0 15.65 L-19.2 19.7 -20.75 21.25 -15.5 21.0 -16.2 19.05 -15.6 18.4 Q-14.3 18.75 -13.25 19.85 L-12.85 20.7 -12.55 22.75 Q-16.95 24.25 -20.9 22.15 L-23.35 20.5 -23.2 18.5 -26.4 18.3 -29.75 13.3 -32.5 15.2 -33.0 18.75 Q-35.35 18.35 -37.7 17.05 L-39.2 16.1 -35.25 20.45 -47.05 17.2 -41.25 14.4 -46.75 14.55 Q-49.3 14.3 -52.45 13.15 L-55.3 11.85 Q-54.95 14.9 -52.35 16.95 L-51.05 17.95 Q-55.85 17.15 -59.1 13.75 L-61.35 10.65 -61.0 9.9 -61.9 7.7 -58.25 12.9 -58.15 13.0 -57.9 12.95 -57.85 12.55 -58.75 8.5 -58.05 7.6 -60.4 5.15 Q-64.6 0.55 -66.25 -5.5 L-67.4 -4.5 -67.5 -3.65 -67.4 -12.25 -69.3 -7.45 -67.95 -14.55 -66.75 -14.05 -65.5 -15.2 Q-64.45 -16.25 -64.2 -17.65 -63.95 -19.1 -64.4 -20.35 L-63.5 -20.95 -63.5 -22.15 -67.5 -16.95 -67.9 -17.35 -67.4 -18.5 -67.65 -18.85 Q-70.95 -11.2 -71.75 -2.75 L-71.3 -2.8 -71.15 -4.25 -70.25 -3.85 -70.2 -1.85 Q-70.15 0.35 -69.05 2.1 -68.2 3.5 -66.95 4.25 L-66.5 3.95 -66.25 3.25 -63.4 9.35 -64.5 9.05 -64.8 8.3 -66.0 8.0 -64.4 12.3 -65.45 12.55 Q-69.1 8.2 -71.7 3.15 L-72.7 2.75 -71.6 1.45 -73.5 -1.35 -74.75 -4.05 -74.85 -4.4 Q-74.1 -19.25 -68.1 -31.9 L-67.0 -32.5 -66.5 -32.7 -63.25 -34.4 -65.05 -30.0 -62.25 -32.5 -62.25 -31.5 -68.1 -21.85 -67.2 -21.75 -66.8 -22.05 -63.0 -29.05 -62.4 -29.25 -61.0 -27.45 -59.0 -29.55 -57.4 -35.3 Q-55.65 -40.6 -52.4 -45.25 L-52.25 -43.95 -53.45 -42.25 -53.95 -42.45 -54.8 -41.25 -53.85 -41.4 -53.0 -34.45 -50.9 -40.55 -47.8 -48.05 -48.0 -49.05 -42.1 -53.7 -42.65 -54.8 -41.55 -55.4 -40.5 -55.2 -40.0 -54.5 -39.7 -55.75 Q-27.7 -59.35 -15.1 -60.25 L-25.75 -56.95 1.5 -58.65 0.85 -57.7 11.55 -59.5 12.05 -58.45 16.75 -56.65 -1.7 -56.1 4.8 -55.05 4.25 -54.95 6.0 -54.45 6.3 -54.9 21.6 -53.4 -6.25 -49.5 22.6 -47.9 16.6 -46.4 Q10.35 -44.95 4.25 -42.45 L10.9 -43.65 20.0 -44.45 19.55 -45.2 33.15 -41.7 32.05 -41.7 32.05 -40.85 28.0 -41.6 23.8 -41.45 25.05 -40.0 33.25 -37.55 Q34.2 -37.1 35.35 -36.55 L42.25 -32.5 41.6 -29.2 42.95 -30.55 44.8 -30.7 49.25 -24.95 49.75 -25.0 49.25 -28.65 52.95 -24.4 53.3 -24.7 48.9 -29.3 52.75 -27.2 52.0 -29.7 48.95 -32.15 49.5 -31.35 40.5 -36.95 41.8 -38.45 38.25 -40.25 42.8 -39.6 43.1 -38.7 43.95 -39.3 46.2 -38.3 48.05 -33.65 51.7 -31.15 53.5 -32.65 55.2 -30.05 52.35 -29.5 53.45 -26.9 54.85 -26.2 Q56.8 -25.15 58.35 -23.6 L59.65 -22.15 59.85 -21.75 59.6 -23.5 60.0 -24.0 Q60.0 -26.4 58.6 -28.3 L54.55 -33.6 55.0 -34.05 Q57.0 -33.45 58.8 -32.1 L60.75 -30.5 62.65 -28.55 60.95 -31.25 Q54.95 -40.75 47.05 -48.7 L49.15 -47.0 Q60.75 -37.6 67.95 -24.45 69.7 -22.3 71.65 -19.05 L73.5 -15.7 M69.5 28.85 Q64.0 42.05 53.05 53.05 31.05 75.0 0.0 75.0 -31.05 75.0 -53.05 53.05 -59.95 46.15 -64.65 38.35 -60.55 42.5 -56.35 45.6 L-48.45 51.4 Q-49.95 49.15 -50.45 47.05 -48.85 46.65 -44.6 51.2 L-44.3 51.55 -39.45 53.55 -35.25 55.45 -35.2 55.3 -35.15 55.3 Q-33.75 55.95 -31.3 57.1 -28.55 58.4 -24.45 59.25 L-24.3 58.3 -24.7 58.05 -27.95 55.8 -27.5 54.75 Q-26.6 55.85 -24.35 57.15 L-23.85 57.4 -22.9 56.3 Q-21.35 54.95 -19.3 55.1 L-23.55 53.8 -29.65 52.3 -27.45 53.75 -27.45 54.05 Q-29.15 53.9 -34.15 51.75 L-34.5 51.75 -35.25 51.55 -35.05 51.35 -35.15 51.3 Q-40.45 49.0 -41.75 48.05 L-41.6 47.85 -41.5 47.75 -35.35 49.7 -32.6 50.8 -28.05 51.2 -24.25 51.55 -22.0 51.85 -18.25 52.3 -15.25 55.3 -15.45 55.75 -15.4 55.85 -14.6 55.8 Q-13.9 55.8 -12.95 54.9 L-11.75 54.0 Q-10.4 54.0 -10.25 54.65 L-9.95 55.8 -9.7 55.8 -9.7 53.55 -8.1 53.55 -6.75 53.6 -8.7 52.75 -8.75 52.3 Q-8.35 52.3 -7.0 53.05 -4.65 51.5 -1.7 51.6 1.3 51.7 3.6 53.6 L3.7 53.65 4.35 53.85 Q-0.55 52.95 -2.2 52.05 L-3.5 52.4 -5.9 53.7 -5.75 55.0 Q-4.45 54.75 -3.2 56.0 -1.6 54.55 5.6 54.35 L7.75 55.4 Q10.8 56.95 12.65 55.6 14.5 54.25 16.6 55.8 18.8 57.45 18.75 59.25 L20.25 58.65 21.4 58.3 21.4 58.25 Q21.0 57.4 21.55 56.8 19.6 56.65 17.6 55.85 L15.75 55.05 15.9 54.85 16.0 54.75 18.95 55.35 Q21.3 55.8 22.5 55.3 L23.3 56.7 23.25 57.5 Q23.55 57.5 24.05 56.5 L25.25 56.3 26.05 57.75 26.95 59.5 Q27.55 57.6 28.35 57.65 28.9 57.7 30.05 58.25 L30.75 57.5 Q31.3 56.75 32.0 56.75 33.45 56.75 33.95 57.8 L36.45 55.9 35.75 55.55 Q35.15 55.05 34.5 55.05 L32.35 55.55 30.75 56.05 30.55 55.9 30.5 55.0 Q30.5 54.25 30.8 54.15 L31.5 54.0 35.65 53.5 37.75 53.3 Q37.7 53.0 37.8 52.8 L39.5 53.0 38.6 54.2 38.7 54.1 39.15 54.15 39.25 54.05 Q39.75 53.65 40.5 53.55 L40.8 54.3 40.95 54.15 45.0 50.5 44.35 50.25 42.9 50.75 38.5 51.75 36.65 51.6 Q35.75 51.45 35.75 51.25 L42.8 48.15 Q46.35 46.45 47.7 47.1 L51.75 46.3 Q52.8 46.2 54.7 45.4 56.4 44.75 57.05 44.8 L57.0 45.1 Q66.8 32.95 69.5 28.85 M9.0 -87.5 Q8.7 -90.7 6.35 -93.15 3.75 -95.75 0.0 -95.75 -3.7 -95.75 -6.35 -93.15 -8.7 -90.7 -8.95 -87.5 L-11.5 -87.5 Q-11.35 -91.9 -8.1 -95.2 -4.75 -98.5 0.0 -98.5 4.8 -98.5 8.15 -95.2 11.35 -91.9 11.5 -87.5 L9.0 -87.5 M10.5 -68.35 L11.3 -66.55 21.65 -64.1 25.75 -65.35 26.25 -62.6 39.2 -57.85 39.4 -56.95 39.0 -55.7 38.0 -56.15 28.75 -57.35 28.8 -59.45 Q17.4 -64.45 5.05 -63.25 L3.5 -60.3 2.5 -61.45 1.7 -61.4 6.85 -64.95 6.0 -64.65 Q0.75 -62.8 -4.3 -65.45 L-8.85 -62.9 -12.65 -64.1 -19.95 -61.95 -18.35 -61.8 Q-26.9 -62.05 -35.15 -59.8 L-26.35 -62.95 -27.2 -62.45 -17.6 -62.75 -24.25 -63.55 -9.75 -65.65 -11.85 -64.6 -7.75 -64.45 -5.4 -66.15 -8.55 -66.0 -6.35 -68.55 -3.95 -66.4 10.5 -68.35 M16.0 -71.85 Q0.0 -74.55 -16.0 -71.85 L-16.0 -86.5 16.0 -86.5 16.0 -71.85 M47.25 -0.45 L48.35 -0.7 Q52.35 -1.75 53.35 -5.6 L54.8 -7.0 54.05 -8.45 53.3 -9.0 52.8 -10.1 Q49.2 -3.05 41.25 -3.75 47.1 -2.0 52.0 -5.2 L50.75 -3.9 47.25 -0.45 M33.3 -46.35 L33.6 -45.55 28.65 -47.1 33.3 -46.35 M-53.95 -1.2 L-51.95 -0.5 -52.2 0.4 -50.95 2.05 -50.4 0.35 -50.8 -0.75 -53.5 -1.45 -53.95 -1.2 M-51.4 -8.3 L-54.4 -7.0 -56.5 -4.95 -55.5 -3.95 -52.95 -4.45 -50.25 -8.45 -51.4 -8.3 M-61.55 -13.1 L-61.55 -13.25 -59.7 -13.3 -59.45 -15.7 -58.2 -16.05 -58.6 -15.15 -55.7 -16.95 -56.45 -17.6 -55.25 -18.95 -58.2 -19.2 -48.25 -24.45 -57.0 -22.95 -58.55 -21.0 Q-60.6 -18.3 -61.7 -15.3 L-62.7 -4.65 -59.45 -4.55 -56.35 -8.55 -58.35 -10.2 -59.0 -10.1 -59.55 -9.8 -60.05 -9.35 -60.5 -8.75 -61.55 -10.35 -60.6 -10.45 -60.55 -11.9 -61.55 -13.1 M66.05 -21.75 L66.65 -22.1 66.5 -23.05 Q65.6 -27.1 61.25 -27.0 L66.05 -21.75 M-35.45 56.4 Q-39.8 54.75 -42.35 53.55 L-37.25 58.8 -37.45 59.25 -37.65 59.25 -36.2 60.3 -35.45 56.4 M54.75 2.35 L55.15 1.65 55.55 -0.2 Q49.6 1.15 44.75 4.55 L46.2 4.3 Q49.4 3.15 52.3 1.25 L54.45 2.55 54.75 2.35 M46.8 49.05 Q46.75 50.9 44.05 53.45 L42.1 55.1 43.75 56.0 Q46.4 57.65 54.85 47.7 53.45 48.3 51.05 48.3 L49.45 48.6 46.8 49.05" fill="#50435f" fill-rule="evenodd" stroke="none"/>
      <path d="M-68.1 -31.9 Q-63.4 -41.85 -55.5 -50.45 L-55.4 -50.5 -53.05 -53.0 Q-37.7 -68.35 -18.0 -72.95 L-18.0 -87.5 -13.0 -87.5 Q-12.8 -92.55 -9.15 -96.25 -5.35 -100.0 0.0 -100.0 5.4 -100.0 9.2 -96.25 12.8 -92.55 13.0 -87.5 L18.0 -87.5 18.0 -72.95 Q37.7 -68.35 53.05 -53.0 69.2 -36.85 73.5 -15.7 L71.65 -19.05 Q69.7 -22.3 67.95 -24.45 60.75 -37.6 49.15 -47.0 L47.05 -48.7 Q54.95 -40.75 60.95 -31.25 L62.65 -28.55 60.75 -30.5 58.8 -32.1 Q57.0 -33.45 55.0 -34.05 L54.55 -33.6 58.6 -28.3 Q60.0 -26.4 60.0 -24.0 L59.6 -23.5 59.85 -21.75 59.65 -22.15 58.35 -23.6 Q56.8 -25.15 54.85 -26.2 L53.45 -26.9 52.35 -29.5 55.2 -30.05 53.5 -32.65 51.7 -31.15 48.05 -33.65 46.2 -38.3 43.95 -39.3 43.1 -38.7 42.8 -39.6 38.25 -40.25 41.8 -38.45 40.5 -36.95 49.5 -31.35 48.95 -32.15 52.0 -29.7 52.75 -27.2 48.9 -29.3 53.3 -24.7 52.95 -24.4 49.25 -28.65 49.75 -25.0 49.25 -24.95 44.8 -30.7 42.95 -30.55 41.6 -29.2 42.25 -32.5 35.35 -36.55 Q34.2 -37.1 33.25 -37.55 L25.05 -40.0 23.8 -41.45 28.0 -41.6 32.05 -40.85 32.05 -41.7 33.15 -41.7 19.55 -45.2 20.0 -44.45 10.9 -43.65 4.25 -42.45 Q10.35 -44.95 16.6 -46.4 L22.6 -47.9 -6.25 -49.5 21.6 -53.4 6.3 -54.9 6.0 -54.45 4.25 -54.95 4.8 -55.05 -1.7 -56.1 16.75 -56.65 12.05 -58.45 11.55 -59.5 0.85 -57.7 1.5 -58.65 -25.75 -56.95 -15.1 -60.25 Q-27.7 -59.35 -39.7 -55.75 L-40.0 -54.5 -40.5 -55.2 -41.55 -55.4 -42.65 -54.8 -42.1 -53.7 -48.0 -49.05 -47.8 -48.05 -50.9 -40.55 -53.0 -34.45 -53.85 -41.4 -54.8 -41.25 -53.95 -42.45 -53.45 -42.25 -52.25 -43.95 -52.4 -45.25 Q-55.65 -40.6 -57.4 -35.3 L-59.0 -29.55 -61.0 -27.45 -62.4 -29.25 -63.0 -29.05 -66.8 -22.05 -67.2 -21.75 -68.1 -21.85 -62.25 -31.5 -62.25 -32.5 -65.05 -30.0 -63.25 -34.4 -66.5 -32.7 -67.0 -32.5 -68.1 -31.9 M7.5 -87.5 L9.0 -87.5 11.5 -87.5 Q11.35 -91.9 8.15 -95.2 4.8 -98.5 0.0 -98.5 -4.75 -98.5 -8.1 -95.2 -11.35 -91.9 -11.5 -87.5 L-8.95 -87.5 -7.5 -87.5 7.5 -87.5 M10.5 -68.35 L-3.95 -66.4 -6.35 -68.55 -8.55 -66.0 -5.4 -66.15 -7.75 -64.45 -11.85 -64.6 -9.75 -65.65 -24.25 -63.55 -17.6 -62.75 -27.2 -62.45 -26.35 -62.95 -35.15 -59.8 Q-26.9 -62.05 -18.35 -61.8 L-19.95 -61.95 -12.65 -64.1 -8.85 -62.9 -4.3 -65.45 Q0.75 -62.8 6.0 -64.65 L6.85 -64.95 1.7 -61.4 2.5 -61.45 3.5 -60.3 5.05 -63.25 Q17.4 -64.45 28.8 -59.45 L28.75 -57.35 38.0 -56.15 39.0 -55.7 39.4 -56.95 39.2 -57.85 26.25 -62.6 25.75 -65.35 21.65 -64.1 11.3 -66.55 10.5 -68.35 M16.0 -71.85 L16.0 -86.5 -16.0 -86.5 -16.0 -71.85 Q0.0 -74.55 16.0 -71.85 M33.3 -46.35 L28.65 -47.1 33.6 -45.55 33.3 -46.35 M47.25 -0.45 L50.75 -3.9 52.0 -5.2 Q47.1 -2.0 41.25 -3.75 49.2 -3.05 52.8 -10.1 L53.3 -9.0 54.05 -8.45 54.8 -7.0 53.35 -5.6 Q52.35 -1.75 48.35 -0.7 L47.25 -0.45 M66.05 -21.75 L61.25 -27.0 Q65.6 -27.1 66.5 -23.05 L66.65 -22.1 66.05 -21.75 M-61.55 -13.1 L-60.55 -11.9 -60.6 -10.45 -61.55 -10.35 -60.5 -8.75 -60.05 -9.35 -59.55 -9.8 -59.0 -10.1 -58.35 -10.2 -56.35 -8.55 -59.45 -4.55 -62.7 -4.65 -61.7 -15.3 Q-60.6 -18.3 -58.55 -21.0 L-57.0 -22.95 -48.25 -24.45 -58.2 -19.2 -55.25 -18.95 -56.45 -17.6 -55.7 -16.95 -58.6 -15.15 -58.2 -16.05 -59.45 -15.7 -59.7 -13.3 -61.55 -13.25 -61.55 -13.1 M-51.4 -8.3 L-50.25 -8.45 -52.95 -4.45 -55.5 -3.95 -56.5 -4.95 -54.4 -7.0 -51.4 -8.3 M-53.95 -1.2 L-53.5 -1.45 -50.8 -0.75 -50.4 0.35 -50.95 2.05 -52.2 0.4 -51.95 -0.5 -53.95 -1.2 M54.75 2.35 L54.45 2.55 52.3 1.25 Q49.4 3.15 46.2 4.3 L44.75 4.55 Q49.6 1.15 55.55 -0.2 L55.15 1.65 54.75 2.35" fill="#5a4e6d" fill-rule="evenodd" stroke="none"/>
      <path d="M75.0 -1.1 L75.0 0.0 Q75.0 15.55 69.5 28.85 66.8 32.95 57.0 45.1 L57.05 44.8 Q56.4 44.75 54.7 45.4 52.8 46.2 51.75 46.3 L47.7 47.1 Q46.35 46.45 42.8 48.15 L35.75 51.25 Q35.75 51.45 36.65 51.6 L38.5 51.75 42.9 50.75 44.35 50.25 45.0 50.5 40.95 54.15 40.8 54.3 40.5 53.55 Q39.75 53.65 39.25 54.05 L39.15 54.15 38.7 54.1 38.6 54.2 39.5 53.0 37.8 52.8 Q37.7 53.0 37.75 53.3 L35.65 53.5 31.5 54.0 30.8 54.15 Q30.5 54.25 30.5 55.0 L30.55 55.9 30.75 56.05 32.35 55.55 34.5 55.05 Q35.15 55.05 35.75 55.55 L36.45 55.9 33.95 57.8 Q33.45 56.75 32.0 56.75 31.3 56.75 30.75 57.5 L30.05 58.25 Q28.9 57.7 28.35 57.65 27.55 57.6 26.95 59.5 L26.05 57.75 25.25 56.3 24.05 56.5 Q23.55 57.5 23.25 57.5 L23.3 56.7 22.5 55.3 Q21.3 55.8 18.95 55.35 L16.0 54.75 15.9 54.85 15.75 55.05 17.6 55.85 Q19.6 56.65 21.55 56.8 21.0 57.4 21.4 58.25 L21.4 58.3 20.25 58.65 18.75 59.25 Q18.8 57.45 16.6 55.8 14.5 54.25 12.65 55.6 10.8 56.95 7.75 55.4 L5.6 54.35 Q-1.6 54.55 -3.2 56.0 -4.45 54.75 -5.75 55.0 L-5.9 53.7 -3.5 52.4 -2.2 52.05 Q-0.55 52.95 4.35 53.85 L3.7 53.65 3.6 53.6 Q1.3 51.7 -1.7 51.6 -4.65 51.5 -7.0 53.05 -8.35 52.3 -8.75 52.3 L-8.7 52.75 -6.75 53.6 -8.1 53.55 -9.7 53.55 -9.7 55.8 -9.95 55.8 -10.25 54.65 Q-10.4 54.0 -11.75 54.0 L-12.95 54.9 Q-13.9 55.8 -14.6 55.8 L-15.4 55.85 -15.45 55.75 -15.25 55.3 -18.25 52.3 -22.0 51.85 -24.25 51.55 -28.05 51.2 -32.6 50.8 -35.35 49.7 -41.5 47.75 -41.6 47.85 -41.75 48.05 Q-40.45 49.0 -35.15 51.3 L-35.05 51.35 -35.25 51.55 -34.5 51.75 -34.15 51.75 Q-29.15 53.9 -27.45 54.05 L-27.45 53.75 -29.65 52.3 -23.55 53.8 -19.3 55.1 Q-21.35 54.95 -22.9 56.3 L-23.85 57.4 -24.35 57.15 Q-26.6 55.85 -27.5 54.75 L-27.95 55.8 -24.7 58.05 -24.3 58.3 -24.45 59.25 Q-28.55 58.4 -31.3 57.1 -33.75 55.95 -35.15 55.3 L-35.2 55.3 -35.25 55.45 -39.45 53.55 -44.3 51.55 -44.6 51.2 Q-48.85 46.65 -50.45 47.05 -49.95 49.15 -48.45 51.4 L-56.35 45.6 Q-60.55 42.5 -64.65 38.35 -75.0 21.3 -75.0 0.0 L-74.85 -4.4 -74.75 -4.05 -73.5 -1.35 -71.6 1.45 -72.7 2.75 -71.7 3.15 Q-69.1 8.2 -65.45 12.55 L-64.4 12.3 -66.0 8.0 -64.8 8.3 -64.5 9.05 -63.4 9.35 -66.25 3.25 -66.5 3.95 -66.95 4.25 Q-68.2 3.5 -69.05 2.1 -70.15 0.35 -70.2 -1.85 L-70.25 -3.85 -71.15 -4.25 -71.3 -2.8 -71.75 -2.75 Q-70.95 -11.2 -67.65 -18.85 L-67.4 -18.5 -67.9 -17.35 -67.5 -16.95 -63.5 -22.15 -63.5 -20.95 -64.4 -20.35 Q-63.95 -19.1 -64.2 -17.65 -64.45 -16.25 -65.5 -15.2 L-66.75 -14.05 -67.95 -14.55 -69.3 -7.45 -67.4 -12.25 -67.5 -3.65 -67.4 -4.5 -66.25 -5.5 Q-64.6 0.55 -60.4 5.15 L-58.05 7.6 -58.75 8.5 -57.85 12.55 -57.9 12.95 -58.15 13.0 -58.25 12.9 -61.9 7.7 -61.0 9.9 -61.35 10.65 -59.1 13.75 Q-55.85 17.15 -51.05 17.95 L-52.35 16.95 Q-54.95 14.9 -55.3 11.85 L-52.45 13.15 Q-49.3 14.3 -46.75 14.55 L-41.25 14.4 -47.05 17.2 -35.25 20.45 -39.2 16.1 -37.7 17.05 Q-35.35 18.35 -33.0 18.75 L-32.5 15.2 -29.75 13.3 -26.4 18.3 -23.2 18.5 -23.35 20.5 -20.9 22.15 Q-16.95 24.25 -12.55 22.75 L-12.85 20.7 -13.25 19.85 Q-14.3 18.75 -15.6 18.4 L-16.2 19.05 -15.5 21.0 -20.75 21.25 -19.2 19.7 -20.0 15.65 Q-13.25 17.75 -8.25 22.5 L-5.95 19.3 -5.15 19.75 -5.4 20.1 -5.25 21.3 -3.35 20.8 -1.95 21.65 -1.45 20.95 1.55 22.6 0.8 23.0 -2.8 21.8 -2.85 23.35 -0.8 23.9 -2.6 24.55 -6.4 23.45 Q-3.95 25.4 -1.15 26.35 L6.9 20.85 9.25 21.55 11.45 22.0 12.25 20.8 11.05 19.55 12.15 19.5 Q15.3 18.85 17.95 16.95 L18.5 15.45 20.5 16.8 25.25 17.15 Q15.8 21.1 11.75 25.55 L13.5 25.55 14.65 24.95 16.8 23.35 18.25 23.4 18.4 24.2 24.75 24.3 20.7 26.25 35.3 22.8 27.15 23.2 27.55 22.8 20.5 22.45 Q23.8 19.8 33.5 16.8 L38.15 16.3 32.25 19.55 Q29.1 21.0 26.0 21.25 L27.5 21.4 29.75 21.35 Q37.3 21.0 41.4 15.1 L43.25 15.0 42.95 14.5 45.8 13.55 46.45 14.05 Q43.5 18.65 38.85 21.25 L38.9 22.15 Q47.7 18.45 53.65 11.05 L55.75 11.4 52.4 16.15 59.3 11.3 55.65 9.5 58.3 7.3 63.65 7.5 62.95 11.3 64.5 10.75 Q64.9 9.25 65.6 7.95 L67.6 2.45 65.25 4.4 66.5 -1.75 66.1 -2.35 69.25 -9.35 69.25 -5.35 Q70.0 0.85 71.15 -5.35 71.4 -12.7 69.3 -14.8 L67.75 -15.85 67.5 -9.5 65.95 -13.55 64.95 -17.05 64.6 -18.95 67.15 -17.3 67.85 -19.35 72.05 -12.45 72.35 -11.9 Q72.75 -3.85 70.35 3.25 L69.5 3.05 68.9 4.3 70.0 5.3 72.0 4.1 73.2 3.4 Q74.0 2.95 74.0 1.6 L73.9 0.2 75.0 -1.1 M9.0 -87.5 L7.5 -87.5 Q7.35 -90.25 5.3 -92.3 3.1 -94.5 0.0 -94.5 -3.05 -94.5 -5.25 -92.3 -7.35 -90.25 -7.5 -87.5 L-8.95 -87.5 Q-8.7 -90.7 -6.35 -93.15 -3.7 -95.75 0.0 -95.75 3.75 -95.75 6.35 -93.15 8.7 -90.7 9.0 -87.5 M-35.45 56.4 L-36.2 60.3 -37.65 59.25 -37.45 59.25 -37.25 58.8 -42.35 53.55 Q-39.8 54.75 -35.45 56.4 M46.8 49.05 L49.45 48.6 51.05 48.3 Q53.45 48.3 54.85 47.7 46.4 57.65 43.75 56.0 L42.1 55.1 44.05 53.45 Q46.75 50.9 46.8 49.05" fill="#40354a" fill-rule="evenodd" stroke="none"/>
    </g>
  </defs>
</svg>
