<?xml version="1.0" encoding="UTF-8" standalone="no"?>
<svg xmlns:ffdec="https://www.free-decompiler.com/flash" xmlns:xlink="http://www.w3.org/1999/xlink" ffdec:objectType="frame" height="100.0px" width="100.0px" xmlns="http://www.w3.org/2000/svg">
  <g transform="matrix(1.0, 0.0, 0.0, 1.0, 0.0, 0.0)">
    <filter id="filter0">
      <feOffset dx="7.563033771236318E-5" dy="6.999999999591432" in="SourceGraphic" result="filterResult0"/>
      <feColorMatrix in="filterResult0" result="filterResult1" type="matrix" values="0 0 0 0 0.0,0 0 0 0 0.0,0 0 0 0 0.0,0 0 0 1 0"/>
      <feConvolveMatrix divisor="49.0" in="filterResult1" kernelMatrix="1 1 1 1 1 1 1 1 1 1 1 1 1 1 1 1 1 1 1 1 1 1 1 1 1 1 1 1 1 1 1 1 1 1 1 1 1 1 1 1 1 1 1 1 1 1 1 1 1" order="7 7" result="filterResult2"/>
      <feConvolveMatrix divisor="49.0" in="filterResult2" kernelMatrix="1 1 1 1 1 1 1 1 1 1 1 1 1 1 1 1 1 1 1 1 1 1 1 1 1 1 1 1 1 1 1 1 1 1 1 1 1 1 1 1 1 1 1 1 1 1 1 1 1" order="7 7" result="filterResult3"/>
      <feConvolveMatrix divisor="49.0" in="filterResult3" kernelMatrix="1 1 1 1 1 1 1 1 1 1 1 1 1 1 1 1 1 1 1 1 1 1 1 1 1 1 1 1 1 1 1 1 1 1 1 1 1 1 1 1 1 1 1 1 1 1 1 1 1" order="7 7" result="filterResult4"/>
      <feColorMatrix in="filterResult4" result="filterResult5" type="matrix" values="1 0 0 0 0,0 1 0 0 0,0 0 1 0 0,0 0 0 0.19921875 0"/>
    </filter>
    <use ffdec:characterId="681" filter="url(#filter0)" height="100.0" id="shadow" transform="matrix(1.0, 0.0, 0.0, 1.0, 0.0, 0.0)" width="100.0" xlink:href="#sprite0"/>
    <clipPath id="clip1">
      <path d="M 0,0 L 6.0,0 L 6.0,18.0 L 0,18.0 Z"/>
    </clipPath>
    <clipPath id="clip2">
      <path d="M 0,96.0 L 6.0,96.0 L 6.0,100.0 L 0,100.0 Z"/>
    </clipPath>
    <clipPath id="clip3">
      <path d="M 96.0,0 L 100.0,0 L 100.0,18.0 L 96.0,18.0 Z"/>
    </clipPath>
    <clipPath id="clip4">
      <path d="M 96.0,96.0 L 100.0,96.0 L 100.0,100.0 L 96.0,100.0 Z"/>
    </clipPath>
    <clipPath id="clip5">
      <path d="M 6.0,0 L 96.0,0 L 96.0,18.0 L 6.0,18.0 Z"/>
    </clipPath>
    <clipPath id="clip6">
      <path d="M 0,18.0 L 6.0,18.0 L 6.0,96.0 L 0,96.0 Z"/>
    </clipPath>
    <clipPath id="clip7">
      <path d="M 6.0,96.0 L 96.0,96.0 L 96.0,100.0 L 6.0,100.0 Z"/>
    </clipPath>
    <clipPath id="clip8">
      <path d="M 96.0,18.0 L 100.0,18.0 L 100.0,96.0 L 96.0,96.0 Z"/>
    </clipPath>
    <clipPath id="clip9">
      <path d="M 6.0,18.0 L 96.0,18.0 L 96.0,96.0 L 6.0,96.0 Z"/>
    </clipPath>
    <g ffdec:characterId="683" id="frame">
      <use clip-path="url(#clip1)" transform="matrix(1.0, 0.0, 0.0, 1.0, 0.0, 0.0)" xlink:href="#sprite1"/>
      <use clip-path="url(#clip2)" transform="matrix(1.0, 0.0, 0.0, 1.0, 0.0, 0.0)" xlink:href="#sprite1"/>
      <use clip-path="url(#clip3)" transform="matrix(1.0, 0.0, 0.0, 1.0, 0.0, 0.0)" xlink:href="#sprite1"/>
      <use clip-path="url(#clip4)" transform="matrix(1.0, 0.0, 0.0, 1.0, 0.0, 0.0)" xlink:href="#sprite1"/>
      <use clip-path="url(#clip5)" transform="matrix(1.0, 0.0, 0.0, 1.0, 0.0, 0.0)" xlink:href="#sprite1"/>
      <use clip-path="url(#clip6)" transform="matrix(1.0, 0.0, 0.0, 1.0, 0.0, 0.0)" xlink:href="#sprite1"/>
      <use clip-path="url(#clip7)" transform="matrix(1.0, 0.0, 0.0, 1.0, 0.0, 0.0)" xlink:href="#sprite1"/>
      <use clip-path="url(#clip8)" transform="matrix(1.0, 0.0, 0.0, 1.0, 0.0, 0.0)" xlink:href="#sprite1"/>
      <use clip-path="url(#clip9)" transform="matrix(1.0, 0.0, 0.0, 1.0, 0.0, 0.0)" xlink:href="#sprite1"/>
    </g>
    <use ffdec:characterId="685" height="8.0" id="closeButton" transform="matrix(1.0, 0.0, 0.0, 1.0, 89.0, 3.0)" width="8.0" xlink:href="#sprite2"/>
  </g>
  <defs>
    <g id="sprite0" transform="matrix(1.0, 0.0, 0.0, 1.0, 0.0, 0.0)">
      <use ffdec:characterId="87" height="30.0" transform="matrix(3.3333, 0.0, 0.0, 3.3333, 0.0, 0.0)" width="30.0" xlink:href="#shape0"/>
    </g>
    <g id="shape0" transform="matrix(1.0, 0.0, 0.0, 1.0, 0.0, 0.0)">
      <path d="M30.0 30.0 L0.0 30.0 0.0 0.0 30.0 0.0 30.0 30.0" fill="#cccccc" fill-rule="evenodd" stroke="none"/>
    </g>
    <g id="sprite1" transform="matrix(1.0, 0.0, 0.0, 1.0, 0.0, 0.0)">
      <use ffdec:characterId="682" height="100.0" transform="matrix(1.0, 0.0, 0.0, 1.0, 0.0, 0.0)" width="100.0" xlink:href="#shape1"/>
    </g>
    <g id="shape1" transform="matrix(1.0, 0.0, 0.0, 1.0, 0.0, 0.0)">
      <path d="M100.0 15.0 L98.0 15.0 95.55 15.0 5.45 15.0 2.0 15.0 0.0 15.0 0.0 0.0 5.45 0.0 95.55 0.0 100.0 0.0 100.0 15.0" fill="url(#gradient0)" fill-rule="evenodd" stroke="none"/>
      <path d="M100.0 15.0 L100.0 17.45 100.0 95.55 100.0 100.0 95.55 100.0 5.45 100.0 0.0 100.0 0.0 95.55 0.0 17.45 0.0 15.0 2.0 15.0 2.0 17.45 2.0 95.55 2.0 98.0 5.45 98.0 95.55 98.0 98.0 98.0 98.0 95.55 98.0 17.45 98.0 15.0 100.0 15.0" fill="#999999" fill-rule="evenodd" stroke="none"/>
      <path d="M98.0 15.0 L98.0 17.45 98.0 95.55 98.0 98.0 95.55 98.0 5.45 98.0 2.0 98.0 2.0 95.55 2.0 17.45 2.0 15.0 5.45 15.0 95.55 15.0 98.0 15.0" fill="#cccccc" fill-rule="evenodd" stroke="none"/>
    </g>
    <linearGradient gradientTransform="matrix(0.0, -0.0092, 0.0122, 0.0, 154.45, 7.5)" gradientUnits="userSpaceOnUse" id="gradient0" spreadMethod="pad" x1="-819.2" x2="819.2">
      <stop offset="0.0" stop-color="#999999"/>
      <stop offset="1.0" stop-color="#cccccc"/>
    </linearGradient>
    <g id="sprite2" transform="matrix(1.0, 0.0, 0.0, 1.0, 0.0, 0.0)">
      <use ffdec:characterId="684" height="8.0" transform="matrix(1.0, 0.0, 0.0, 1.0, 0.0, 0.0)" width="8.0" xlink:href="#shape2"/>
    </g>
    <g id="shape2" transform="matrix(1.0, 0.0, 0.0, 1.0, 0.0, 0.0)">
      <path d="M8.0 0.0 L8.0 8.0 0.0 8.0 0.0 0.0 8.0 0.0" fill="#010101" fill-opacity="0.0" fill-rule="evenodd" stroke="none"/>
      <path d="M8.0 1.3 L5.35 4.0 8.0 6.65 6.65 8.0 4.0 5.35 1.45 7.95 0.05 6.55 2.65 4.0 0.0 1.35 1.35 0.05 4.0 2.65 6.7 0.0 8.0 1.3" fill="#666666" fill-rule="evenodd" stroke="none"/>
    </g>
  </defs>
</svg>
