<?xml version="1.0" encoding="UTF-8" standalone="no"?>
<svg xmlns:ffdec="https://www.free-decompiler.com/flash" xmlns:xlink="http://www.w3.org/1999/xlink" ffdec:objectType="frame" height="87.95px" width="42.15px" xmlns="http://www.w3.org/2000/svg">
  <g transform="matrix(1.0, 0.0, 0.0, 1.0, 21.05, 44.05)">
    <use ffdec:characterId="2688" ffdec:characterName="ChairTopMC" height="12.3" transform="matrix(1.0, 0.0, 0.0, 1.0, -21.05, 3.4)" width="42.15" xlink:href="#sprite0"/>
    <use ffdec:characterId="2690" height="32.0" transform="matrix(1.0, 0.0, 0.0, 1.0, -20.95, 11.9)" width="6.0" xlink:href="#sprite1"/>
    <use ffdec:characterId="2690" height="32.0" transform="matrix(-1.0, 0.0, 0.0, 1.0, 21.1, 11.9)" width="6.0" xlink:href="#sprite1"/>
    <use ffdec:characterId="2692" ffdec:characterName="ChairBackMC" height="54.55" transform="matrix(1.0, 0.0, 0.0, 1.0, -20.95, -44.05)" width="6.0" xlink:href="#sprite2"/>
  </g>
  <defs>
    <g id="sprite0" transform="matrix(1.0, 0.0, 0.0, 1.0, 21.15, 5.65)">
      <use ffdec:characterId="2687" height="12.3" transform="matrix(1.0, 0.0, 0.0, 1.0, -21.15, -5.65)" width="42.15" xlink:href="#shape0"/>
    </g>
    <g id="shape0" transform="matrix(1.0, 0.0, 0.0, 1.0, 21.15, 5.65)">
      <path d="M21.0 -1.0 L-15.05 -1.0 -15.05 -3.0 19.55 -3.0 Q20.15 -3.0 20.55 -2.35 L20.95 -1.5 21.0 -1.5 21.0 -1.0" fill="#e9e8d1" fill-rule="evenodd" stroke="none"/>
      <path d="M21.0 -1.0 L21.0 -0.7 21.0 0.0 21.0 3.0 -15.0 3.0 -21.0 3.0 -21.0 -3.0 -15.05 -3.0 -15.05 -1.0 21.0 -1.0" fill="#cccc99" fill-rule="evenodd" stroke="none"/>
      <path d="M-18.85 6.0 Q-18.8 4.75 -19.3 3.7 -20.45 4.2 -21.0 5.1 L-21.0 3.0 -15.0 3.0 -15.0 4.15 Q-16.2 3.55 -18.3 3.7 -18.8 4.75 -18.85 6.0" fill="#cccc99" fill-rule="evenodd" stroke="none"/>
      <path d="M21.0 5.1 Q20.5 4.2 19.3 3.7 18.95 4.7 18.85 6.65 18.7 4.1 17.45 3.6 L15.0 3.05 15.0 3.0 21.0 3.0 21.0 5.1" fill="#cccc99" fill-rule="evenodd" stroke="none"/>
      <path d="M-19.4 -3.95 Q-18.3 -4.0 -17.6 -5.5 -17.05 -4.05 -16.2 -3.95 L-15.0 -4.0 -15.0 -2.95 -21.0 -2.95 -21.15 -5.65 Q-20.5 -4.4 -19.4 -3.95" fill="#cccc99" fill-rule="evenodd" stroke="none"/>
    </g>
    <g id="sprite1" transform="matrix(1.0, 0.0, 0.0, 1.0, 2.0, 16.0)">
      <use ffdec:characterId="2689" height="32.0" transform="matrix(1.0, 0.0, 0.0, 1.0, -2.0, -16.0)" width="6.0" xlink:href="#shape1"/>
    </g>
    <g id="shape1" transform="matrix(1.0, 0.0, 0.0, 1.0, 2.0, 16.0)">
      <path d="M-0.9 13.0 L-0.9 12.45 -1.05 9.55 -1.05 9.35 -1.65 -7.75 -1.85 -13.2 -1.85 -13.35 -1.95 -14.5 -1.95 -14.75 -1.95 -15.45 -2.0 -16.0 -0.75 -16.0 Q3.7 -14.55 3.65 -5.5 L2.95 13.0 -0.9 13.0" fill="#cccc99" fill-rule="evenodd" stroke="none"/>
      <path d="M2.95 13.0 L2.9 13.35 2.8 14.7 2.75 16.0 -0.75 16.0 -0.8 14.7 -0.9 13.35 -0.9 13.0 2.95 13.0" fill="#666666" fill-rule="evenodd" stroke="none"/>
      <path d="M-0.75 -16.0 L4.0 -16.0 4.0 -15.45 4.0 -14.75 4.0 -14.2 4.0 -13.6 3.95 -13.2 3.65 -5.5 Q3.7 -14.55 -0.75 -16.0" fill="#aca77d" fill-rule="evenodd" stroke="none"/>
    </g>
    <g id="sprite2" transform="matrix(1.0, 0.0, 0.0, 1.0, 3.0, 25.0)">
      <use ffdec:characterId="2691" height="54.55" transform="matrix(1.0, 0.0, 0.0, 1.0, -3.0, -25.0)" width="6.0" xlink:href="#shape2"/>
    </g>
    <g id="shape2" transform="matrix(1.0, 0.0, 0.0, 1.0, 3.0, 25.0)">
      <path d="M2.95 25.0 L2.2 29.55 Q1.85 27.65 0.95 26.1 L0.2 27.95 -0.8 25.7 -2.05 29.25 Q-2.8 27.4 -3.0 25.0 L2.95 25.0" fill="#cccc99" fill-rule="evenodd" stroke="none"/>
      <path d="M-3.0 -23.0 L-3.0 -23.55 Q-3.0 -24.15 -2.55 -24.6 -2.15 -25.0 -1.55 -25.0 L1.55 -25.0 Q2.15 -25.0 2.55 -24.6 3.0 -24.15 3.0 -23.55 L3.0 -23.0 -3.0 -23.0" fill="#e9e8d1" fill-rule="evenodd" stroke="none"/>
      <path d="M3.0 -23.0 L3.0 25.0 -3.0 25.0 -3.0 -23.0 3.0 -23.0" fill="#cccc99" fill-rule="evenodd" stroke="none"/>
    </g>
  </defs>
</svg>
