<?xml version="1.0" encoding="UTF-8" standalone="no"?>
<svg xmlns:ffdec="https://www.free-decompiler.com/flash" xmlns:xlink="http://www.w3.org/1999/xlink" ffdec:objectType="frame" height="101.0px" width="156.05px" xmlns="http://www.w3.org/2000/svg">
  <g transform="matrix(1.0, 0.0, 0.0, 1.0, 48.25, 53.9)">
    <use ffdec:characterId="1880" height="62.15" transform="matrix(1.0, 0.0, 0.0, 1.0, -39.85, -28.9)" width="79.7" xlink:href="#shape0"/>
  </g>
  <defs>
    <g id="shape0" transform="matrix(1.0, 0.0, 0.0, 1.0, 39.85, 28.9)">
      <path d="M-26.65 -17.55 Q-24.95 -17.3 -23.5 -16.45 L-20.95 -14.5 -18.55 -11.75 -17.05 -10.15 -17.5 -9.95 Q-18.95 -9.5 -19.7 -10.65 L-21.05 -12.85 Q-22.35 -14.9 -24.5 -15.75 L-25.5 -15.15 -27.95 -15.45 Q-28.35 -15.4 -28.7 -15.65 L-28.2 -17.35 -26.65 -17.55 M22.2 -2.55 L26.85 -5.45 27.25 -5.75 27.5 -5.9 Q30.55 -7.95 31.45 -7.55 L31.75 -7.15 31.75 -6.9 31.75 -6.75 30.2 -5.5 Q24.95 -2.6 19.5 -0.75 L19.1 -1.05 22.2 -2.55 M-4.75 -9.35 L0.35 -8.25 -4.95 -5.4 -4.75 -9.35 M-6.75 -4.25 Q-8.8 -3.1 -10.4 -1.4 -11.35 -0.5 -11.6 0.65 L-11.8 2.65 -12.1 1.85 Q-13.2 -2.3 -10.05 -5.3 L-15.3 -3.1 Q-15.5 -5.4 -13.65 -6.8 -11.1 -8.75 -7.75 -9.2 L-6.3 -4.55 -6.75 -4.25 M-21.5 16.4 L-21.5 16.5 Q-21.5 18.5 -23.25 18.5 -24.55 18.5 -24.75 17.65 L-24.75 16.8 -24.7 16.5 -24.6 16.2 -24.3 15.8 -24.05 15.6 -23.5 15.5 Q-22.2 15.3 -21.5 16.4 M26.25 16.5 L26.1 17.15 25.45 18.3 Q23.6 20.8 20.85 22.2 19.4 22.8 19.1 21.55 19.15 19.95 20.9 19.7 L21.7 19.35 Q22.55 19.05 22.9 18.25 L22.95 17.2 23.2 16.5 Q23.95 14.75 25.8 15.25 L26.25 16.5 M18.2 16.15 L17.25 18.35 16.65 19.2 Q14.75 20.95 12.35 22.05 L9.5 23.15 7.85 23.35 9.8 21.2 10.95 19.65 6.35 22.45 Q4.5 23.35 2.6 23.25 1.95 23.9 1.0 24.0 L-13.6 22.65 Q-15.3 22.45 -16.9 21.7 L-18.9 20.4 -19.4 19.75 Q-19.7 18.6 -20.25 17.35 L-20.0 17.0 Q-14.45 20.55 -8.0 21.6 -13.4 18.0 -17.2 12.8 L-16.3 16.1 -17.8 15.85 Q-18.95 15.4 -19.3 14.35 -20.05 12.2 -19.95 10.0 -19.9 9.3 -20.2 8.45 L-21.05 5.9 Q-19.85 7.3 -18.95 9.1 L-17.5 11.55 -15.55 13.85 Q-13.75 15.75 -11.6 17.45 -9.6 18.95 -7.2 19.9 -3.9 21.3 -0.45 21.25 1.25 21.2 2.65 21.7 L11.05 19.35 Q12.0 17.75 12.25 15.9 12.4 14.85 12.9 14.05 14.05 12.15 14.25 10.05 L15.3 11.35 14.95 15.5 16.55 12.95 18.4 15.5 18.2 16.15 M14.3 9.35 L14.6 5.15 14.75 5.15 15.2 9.85 14.3 9.35 M17.4 11.25 L18.2 9.0 20.0 9.85 20.0 9.95 19.25 13.0 18.55 12.25 17.4 11.25 M18.5 7.3 L18.5 6.85 18.45 6.15 Q17.95 6.7 16.85 6.75 17.25 5.95 17.25 4.9 14.35 1.3 13.1 -0.9 L13.05 -1.15 14.2 -3.85 Q16.0 -1.85 17.3 0.6 L18.4 2.45 19.05 3.75 Q20.05 5.6 20.0 7.9 L19.95 7.9 19.2 7.6 18.5 7.3 M12.0 -1.25 Q10.15 -1.25 8.75 -2.35 L6.7 -3.8 Q4.9 -5.15 2.75 -5.3 L5.1 -5.2 Q9.4 -5.55 12.15 -2.4 L12.0 -1.25 M11.95 -3.6 L11.85 -3.8 Q10.85 -5.65 8.35 -6.65 L8.5 -6.8 Q10.65 -6.75 12.7 -5.15 L11.95 -3.6 M13.15 -7.0 L11.8 -8.45 Q8.95 -11.5 5.1 -11.9 8.8 -14.25 11.25 -12.4 L11.6 -12.1 12.45 -11.1 12.85 -10.5 13.35 -9.95 13.8 -9.4 13.15 -7.0 M16.35 -5.85 L16.6 -4.85 15.85 -4.05 15.15 -4.8 16.25 -6.05 16.35 -5.85 M24.1 8.1 L25.4 6.85 27.75 6.8 28.6 7.45 28.75 8.4 28.6 9.3 Q28.35 9.8 27.25 10.25 L25.0 10.25 Q23.9 9.6 23.9 9.05 L23.95 8.55 24.1 8.1 M31.7 -3.15 L32.5 -2.9 Q33.2 -2.7 33.25 -2.05 33.4 -0.85 32.6 -0.25 L30.95 0.7 Q28.05 1.55 27.5 -1.4 L28.35 -2.5 29.15 -3.0 29.3 -3.05 31.7 -3.15 M-30.85 9.1 Q-30.1 8.45 -29.0 8.4 -27.75 8.35 -27.05 9.35 -27.1 10.5 -27.7 11.2 -28.3 11.9 -29.05 11.85 -29.85 11.75 -30.35 10.95 -30.9 10.15 -30.85 9.1 M-24.85 -6.6 Q-24.55 -5.9 -24.8 -5.05 -25.05 -4.0 -26.2 -3.5 -28.05 -2.65 -29.35 -4.05 L-29.25 -5.95 -27.95 -6.85 -25.4 -6.95 -24.85 -6.6 M-16.15 8.4 Q-16.15 5.55 -13.25 8.8 -10.55 11.85 -10.0 13.75 L-10.0 13.9 -10.5 14.0 Q-14.5 12.55 -15.05 11.6 -16.15 9.75 -16.15 8.4 M-5.4 -1.75 Q-2.9 -3.75 1.35 -2.75 -2.05 -2.2 -4.05 -0.7 L-7.05 2.0 Q-7.5 -0.05 -5.4 -1.75" fill="#ff0000" fill-rule="evenodd" stroke="none"/>
      <path d="M21.3 -2.25 L22.2 -2.55 19.1 -1.05 19.5 -0.75 Q24.95 -2.6 30.2 -5.5 L31.75 -6.75 31.65 -6.15 Q31.5 -5.65 31.15 -5.25 29.9 -3.85 28.2 -3.0 L29.3 -3.05 29.15 -3.0 28.35 -2.5 27.5 -1.4 Q28.05 1.55 30.95 0.7 L32.6 -0.25 Q33.4 -0.85 33.25 -2.05 33.2 -2.7 32.5 -2.9 L31.7 -3.15 32.55 -3.2 33.15 -2.65 Q34.2 -1.35 34.0 0.5 L33.45 2.2 32.95 2.45 Q31.95 3.05 30.9 3.0 29.1 3.0 27.8 2.1 26.5 1.2 26.5 -0.05 L26.5 -0.1 27.0 -1.55 27.8 -2.75 24.0 -0.65 21.9 0.6 23.65 0.6 23.55 1.35 23.9 1.7 24.5 1.85 25.0 4.5 24.3 5.5 25.4 6.85 24.1 8.1 21.6 8.75 20.0 7.9 Q20.05 5.6 19.05 3.75 L18.4 2.45 17.3 0.6 Q16.0 -1.85 14.2 -3.85 L15.15 -4.8 15.85 -4.05 16.6 -4.85 16.35 -5.85 17.25 -8.0 18.55 -8.1 19.5 -1.7 19.5 -1.45 19.65 -1.4 21.3 -2.25 M-4.75 -9.35 Q-4.5 -11.3 -2.8 -12.45 L-2.0 -13.05 Q-1.1 -12.65 -0.8 -11.9 L-0.3 -10.55 0.0 -10.0 0.25 -10.3 0.6 -11.4 Q0.85 -12.15 1.35 -12.75 L3.6 -14.9 7.25 -14.5 Q8.25 -14.3 9.15 -13.75 L11.25 -12.4 Q8.8 -14.25 5.1 -11.9 8.95 -11.5 11.8 -8.45 L13.15 -7.0 12.7 -5.15 Q10.65 -6.75 8.5 -6.8 L8.35 -6.65 Q10.85 -5.65 11.85 -3.8 L11.95 -3.6 12.15 -2.4 Q9.4 -5.55 5.1 -5.2 L2.75 -5.3 Q4.9 -5.15 6.7 -3.8 L8.75 -2.35 Q10.15 -1.25 12.0 -1.25 L12.05 -0.75 13.05 -1.15 13.1 -0.9 Q14.35 1.3 17.25 4.9 17.25 5.95 16.85 6.75 17.95 6.7 18.45 6.15 L18.5 6.85 18.5 7.3 Q16.95 6.9 15.35 7.85 L18.2 9.0 17.4 11.25 Q16.4 10.5 15.2 9.85 L14.75 5.15 14.6 5.15 14.3 9.35 13.75 9.1 13.6 9.25 14.25 10.05 Q14.05 12.15 12.9 14.05 12.4 14.85 12.25 15.9 12.0 17.75 11.05 19.35 L2.65 21.7 Q1.25 21.2 -0.45 21.25 -3.9 21.3 -7.2 19.9 -9.6 18.95 -11.6 17.45 -13.75 15.75 -15.55 13.85 L-17.5 11.55 -18.95 9.1 Q-19.85 7.3 -21.05 5.9 L-20.2 8.45 Q-19.9 9.3 -19.95 10.0 -20.05 12.2 -19.3 14.35 -18.95 15.4 -17.8 15.85 L-16.3 16.1 -17.2 12.8 Q-13.4 18.0 -8.0 21.6 -14.45 20.55 -20.0 17.0 L-20.25 17.35 Q-19.7 18.6 -19.4 19.75 L-18.9 20.4 -16.9 21.7 Q-15.3 22.45 -13.6 22.65 L1.0 24.0 Q1.95 23.9 2.6 23.25 4.5 23.35 6.35 22.45 L10.95 19.65 9.8 21.2 7.85 23.35 9.5 23.15 12.35 22.05 Q14.75 20.95 16.65 19.2 L17.25 18.35 18.2 16.15 Q19.0 18.2 19.0 18.8 L18.4 21.2 18.2 21.9 17.85 22.2 18.85 21.75 19.1 21.55 Q19.4 22.8 20.85 22.2 23.6 20.8 25.45 18.3 L26.1 17.15 26.25 16.5 Q26.9 17.25 26.9 18.15 L26.75 19.85 26.55 20.35 25.95 21.05 25.4 21.4 23.1 22.65 22.5 22.9 21.25 23.45 20.0 23.9 19.45 23.8 16.55 23.2 Q5.95 28.95 -6.5 26.95 L-13.8 26.0 Q-18.5 25.4 -19.95 21.15 -21.9 22.45 -23.8 21.1 -25.35 20.05 -25.1 18.15 L-24.7 16.5 -24.75 16.8 -24.75 17.65 Q-24.55 18.5 -23.25 18.5 -21.5 18.5 -21.5 16.5 L-21.5 16.4 -20.65 17.1 Q-21.5 13.1 -25.4 11.55 L-25.9 11.2 -25.25 9.55 -26.75 4.6 -26.35 4.0 -26.0 4.4 Q-22.9 2.65 -19.85 4.05 L-18.3 4.1 Q-19.35 0.2 -22.0 -3.3 L-20.5 -9.1 -21.9 -11.35 -22.25 -12.15 Q-24.0 -13.9 -26.9 -13.7 L-28.1 -13.8 Q-29.0 -14.1 -29.0 -15.25 -29.0 -18.45 -26.65 -17.55 L-28.2 -17.35 -28.7 -15.65 Q-28.35 -15.4 -27.95 -15.45 L-25.5 -15.15 -24.5 -15.75 Q-22.35 -14.9 -21.05 -12.85 L-19.7 -10.65 Q-18.95 -9.5 -17.5 -9.95 L-17.05 -10.15 -18.55 -11.75 -17.9 -12.4 -16.2 -13.9 Q-15.6 -14.35 -14.85 -14.45 L-12.4 -14.35 Q-8.9 -12.85 -7.75 -9.2 -11.1 -8.75 -13.65 -6.8 -15.5 -5.4 -15.3 -3.1 L-10.05 -5.3 Q-13.2 -2.3 -12.1 1.85 L-11.8 2.65 -11.6 0.65 Q-11.35 -0.5 -10.4 -1.4 -8.8 -3.1 -6.75 -4.25 L-6.75 -3.8 -6.15 -3.75 -5.55 -3.0 -4.8 -4.55 -4.95 -5.4 0.35 -8.25 -4.75 -9.35 M12.45 -11.1 L13.35 -9.95 12.85 -10.5 12.45 -11.1 M27.55 -5.95 Q28.55 -7.0 29.65 -7.55 L30.25 -7.8 Q31.05 -8.05 31.45 -7.55 30.55 -7.95 27.5 -5.9 L27.55 -5.95 M25.3 12.2 Q24.0 12.0 23.6 11.3 L23.5 10.3 Q23.5 9.25 23.95 8.55 L23.9 9.05 Q23.9 9.6 25.0 10.25 L27.25 10.25 Q28.35 9.8 28.6 9.3 L28.75 8.4 28.6 7.45 28.75 7.6 Q29.25 8.0 29.25 8.9 29.25 10.05 28.75 10.9 27.95 12.25 26.25 12.25 L25.3 12.2 M20.0 9.85 L20.25 10.0 21.45 11.45 22.25 12.65 22.25 13.75 21.0 13.75 19.35 13.15 19.25 13.0 20.0 9.95 20.0 9.85 M5.8 1.4 L3.25 -0.25 4.55 0.95 Q6.4 2.55 7.45 4.85 L6.05 4.3 4.0 3.85 Q1.8 3.7 -0.15 4.65 -1.5 5.25 -1.9 6.45 L-2.85 8.8 -3.6 10.2 -4.0 8.65 -3.85 7.55 Q-3.8 7.25 -3.9 7.0 L-4.25 6.4 Q-5.35 7.25 -5.45 8.65 -5.6 10.65 -4.0 12.0 L-1.75 13.4 0.35 14.25 Q3.2 14.4 5.6 13.0 L6.9 11.65 Q8.3 9.3 8.0 6.3 9.05 9.75 8.1 13.1 7.3 15.85 4.85 17.5 L5.75 17.6 8.3 16.0 Q9.6 16.0 10.45 14.75 L10.9 13.55 10.9 9.35 Q10.75 6.9 9.35 4.85 7.9 2.85 5.8 1.4 M16.55 12.95 L14.95 15.5 15.3 11.35 16.55 12.95 M-30.05 -4.45 L-29.4 -5.75 -29.25 -5.95 -29.35 -4.05 Q-28.05 -2.65 -26.2 -3.5 -25.05 -4.0 -24.8 -5.05 -24.55 -5.9 -24.85 -6.6 L-24.6 -6.3 Q-23.85 -4.6 -25.0 -2.8 -25.0 -2.0 -26.2 -1.4 -27.45 -0.85 -29.15 -0.85 L-29.55 -1.25 Q-30.65 -2.7 -30.05 -4.4 L-30.05 -4.45 M-26.8 12.7 Q-27.05 13.65 -28.1 13.8 L-29.55 13.6 Q-30.25 13.45 -30.7 13.0 -32.5 11.1 -30.85 9.1 -30.9 10.15 -30.35 10.95 -29.85 11.75 -29.05 11.85 -28.3 11.9 -27.7 11.2 -27.1 10.5 -27.05 9.35 L-27.05 9.4 -26.7 10.05 Q-26.05 11.3 -26.8 12.7 M-26.5 -7.3 L-25.4 -6.95 -27.95 -6.85 -27.25 -7.15 -26.5 -7.3 M-9.65 8.85 Q-9.65 9.9 -10.0 11.55 -5.3 18.25 -4.1 18.25 -1.65 18.25 -1.65 15.4 -2.55 12.6 -4.35 12.6 -10.05 12.6 -9.4 8.85 L-9.65 8.85 M-16.15 8.4 Q-16.15 9.75 -15.05 11.6 -14.5 12.55 -10.5 14.0 L-10.0 13.9 -10.0 13.75 Q-10.55 11.85 -13.25 8.8 -16.15 5.55 -16.15 8.4 M-5.4 -1.75 Q-7.5 -0.05 -7.05 2.0 L-4.05 -0.7 Q-2.05 -2.2 1.35 -2.75 -2.9 -3.75 -5.4 -1.75" fill="#990000" fill-rule="evenodd" stroke="none"/>
      <path d="M5.8 1.4 Q7.9 2.85 9.35 4.85 10.75 6.9 10.9 9.35 L10.9 13.55 10.45 14.75 Q9.6 16.0 8.3 16.0 L5.75 17.6 4.85 17.5 Q7.3 15.85 8.1 13.1 9.05 9.75 8.0 6.3 8.3 9.3 6.9 11.65 L5.6 13.0 Q3.2 14.4 0.35 14.25 L-1.75 13.4 -4.0 12.0 Q-5.6 10.65 -5.45 8.65 -5.35 7.25 -4.25 6.4 L-3.9 7.0 Q-3.8 7.25 -3.85 7.55 L-4.0 8.65 -3.6 10.2 -2.85 8.8 -1.9 6.45 Q-1.5 5.25 -0.15 4.65 1.8 3.7 4.0 3.85 L6.05 4.3 7.45 4.85 Q6.4 2.55 4.55 0.95 L3.25 -0.25 5.8 1.4 M-9.65 8.85 L-9.4 8.85 Q-10.05 12.6 -4.35 12.6 -2.55 12.6 -1.65 15.4 -1.65 18.25 -4.1 18.25 -5.3 18.25 -10.0 11.55 -9.65 9.9 -9.65 8.85" fill="#650101" fill-rule="evenodd" stroke="none"/>
      <path d="M-20.15 -28.6 L-1.25 -28.9 -0.9 -28.6 1.4 -28.65 Q10.45 -28.75 19.05 -26.2 L22.8 -25.05 Q26.35 -24.05 30.2 -22.15 L31.8 -21.3 31.0 -16.45 Q31.0 -15.75 29.75 -13.05 L29.2 -11.95 28.1 -10.05 27.85 -9.5 Q26.95 -7.65 25.3 -6.1 L24.95 -5.9 24.5 -5.65 21.8 -4.05 24.1 -4.5 24.6 -4.7 25.85 -5.15 26.85 -5.45 22.2 -2.55 21.3 -2.25 Q20.4 -3.65 20.6 -5.4 20.7 -6.35 21.35 -7.15 21.9 -7.85 21.8 -8.65 L21.65 -10.15 22.1 -10.6 24.0 -11.2 24.15 -11.4 20.25 -14.4 18.95 -13.35 Q18.1 -12.6 16.75 -12.6 14.8 -12.55 13.55 -13.9 11.9 -15.6 12.0 -18.05 L9.65 -15.65 -0.25 -16.15 -1.1 -15.4 -4.05 -15.5 Q-5.4 -15.4 -5.9 -16.6 L-6.2 -17.9 -6.15 -19.0 -7.55 -17.5 Q-8.45 -16.65 -9.55 -16.35 -10.05 -16.2 -10.65 -16.35 -10.35 -16.95 -11.05 -17.45 L-14.4 -19.5 -15.85 -20.95 -17.0 -22.5 Q-17.55 -20.1 -17.4 -17.65 L-17.3 -17.0 Q-17.65 -15.95 -18.25 -15.3 -18.6 -14.9 -19.05 -14.75 L-20.95 -14.5 -23.5 -16.45 Q-24.95 -17.3 -26.65 -17.55 L-26.4 -18.3 Q-25.1 -20.5 -22.95 -25.05 -22.2 -26.85 -20.85 -28.05 L-20.15 -28.6 M-28.1 -13.8 L-26.9 -13.7 Q-24.0 -13.9 -22.25 -12.15 L-21.9 -11.35 -21.9 -10.55 -27.4 -10.55 -28.65 -11.4 -28.6 -11.9 -28.25 -11.85 -28.2 -12.55 -28.15 -13.55 -28.1 -13.8 M24.0 -0.65 L27.8 -2.75 27.0 -1.55 26.5 -0.1 26.5 -0.05 25.25 0.35 24.0 -0.65 M32.55 -3.2 L31.7 -3.15 29.3 -3.05 28.2 -3.0 Q29.9 -3.85 31.15 -5.25 31.5 -5.65 31.65 -6.15 L31.75 -6.75 31.75 -6.9 31.75 -7.15 31.9 -7.25 33.35 -8.95 33.4 -8.85 34.0 -8.2 Q34.0 -7.05 32.55 -3.2 M19.65 -1.4 L19.5 -1.45 19.5 -1.7 19.65 -1.4 M-29.4 -5.75 L-28.95 -9.35 -28.85 -9.95 -26.5 -7.3 -27.25 -7.15 -27.95 -6.85 -29.25 -5.95 -29.4 -5.75 M-27.7 3.9 L-27.75 3.55 Q-28.3 1.4 -29.15 -0.45 L-29.15 -0.85 Q-27.45 -0.85 -26.2 -1.4 -25.0 -2.0 -25.0 -2.8 L-23.15 -1.0 Q-23.05 0.45 -24.0 1.6 -24.45 2.1 -25.15 2.4 L-26.35 2.2 -26.95 1.6 -27.7 3.9" fill="#2e5d8c" fill-rule="evenodd" stroke="none"/>
      <path d="M25.3 -6.1 Q26.95 -7.65 27.85 -9.5 L28.1 -10.05 29.2 -11.95 29.75 -13.05 Q31.0 -15.75 31.0 -16.45 L31.8 -21.3 31.8 -21.35 31.8 -21.3 Q32.55 -15.85 33.55 -14.9 29.15 -8.2 25.3 -6.1" fill="#2a547e" fill-rule="evenodd" stroke="none"/>
      <path d="M-20.15 -28.6 L-20.85 -28.05 Q-22.2 -26.85 -22.95 -25.05 -25.1 -20.5 -26.4 -18.3 L-26.65 -17.55 Q-29.0 -18.45 -29.0 -15.25 -29.0 -14.1 -28.1 -13.8 L-28.15 -13.55 -28.2 -12.55 -28.25 -11.85 -28.6 -11.9 -28.65 -11.4 -30.85 -12.2 -28.85 -9.95 -28.95 -9.35 -29.4 -5.75 -30.05 -4.45 -32.3 -4.8 -34.9 -5.45 -34.25 -11.7 -34.2 -12.5 -33.75 -12.45 -34.1 -14.2 -33.5 -14.25 -33.4 -14.35 -33.35 -15.0 Q-33.1 -17.6 -31.55 -19.55 L-30.95 -21.4 Q-30.2 -23.15 -28.7 -24.5 L-28.6 -24.55 -27.0 -26.55 -23.7 -28.5 -20.15 -28.6 M26.85 -5.45 L25.85 -5.15 27.55 -5.95 27.5 -5.9 27.25 -5.75 26.85 -5.45 M31.8 -21.3 L33.9 -19.8 Q37.45 -16.85 36.45 -13.25 L36.45 -9.6 Q35.85 -8.65 35.85 -8.2 35.85 -5.6 34.0 0.5 34.2 -1.35 33.15 -2.65 L32.55 -3.2 Q34.0 -7.05 34.0 -8.2 L33.4 -8.85 33.35 -8.95 31.9 -7.25 31.75 -7.15 31.45 -7.55 Q31.05 -8.05 30.25 -7.8 32.0 -9.25 33.55 -11.2 L33.9 -12.45 34.45 -13.15 34.1 -14.2 34.1 -14.3 33.55 -14.9 Q32.55 -15.85 31.8 -21.3 M19.45 23.8 L20.0 23.9 21.25 23.45 21.55 23.6 22.25 23.85 Q23.1 23.85 23.1 22.75 L23.1 22.65 25.4 21.4 25.95 21.05 Q24.1 23.0 21.5 24.8 L19.35 25.8 17.75 26.45 19.45 23.8 M26.55 20.35 L26.75 19.85 26.9 18.15 Q26.9 17.25 26.25 16.5 L25.8 15.25 Q23.95 14.75 23.2 16.5 L22.95 17.2 22.85 17.0 22.75 15.9 Q22.75 14.05 24.75 14.55 25.65 14.8 26.15 15.25 L26.35 14.95 25.8 13.9 Q25.4 12.95 25.3 12.2 L26.25 12.25 Q27.95 12.25 28.75 10.9 29.25 10.05 29.25 8.9 29.25 8.0 28.75 7.6 L30.9 3.0 Q31.95 3.05 32.95 2.45 L33.45 2.2 33.0 3.55 30.45 10.8 29.85 12.4 29.2 15.9 Q28.3 18.2 26.55 20.35 M-27.2 17.3 L-28.45 15.5 -29.8 14.35 Q-31.6 12.8 -32.05 10.8 L-32.15 10.05 Q-32.4 7.65 -33.8 4.05 L-34.0 3.55 -36.15 -1.95 -36.15 -4.2 -30.05 -4.4 Q-30.65 -2.7 -29.55 -1.25 L-29.15 -0.85 -29.15 -0.45 Q-28.3 1.4 -27.75 3.55 L-27.7 3.9 -27.9 5.0 -27.05 9.4 -27.05 9.35 Q-27.75 8.35 -29.0 8.4 -30.1 8.45 -30.85 9.1 -32.5 11.1 -30.7 13.0 -30.25 13.45 -29.55 13.6 L-28.1 13.8 Q-27.05 13.65 -26.8 12.7 L-26.2 13.2 -26.7 16.45 -27.2 17.3" fill="#336699" fill-rule="evenodd" stroke="none"/>
      <path d="M25.85 -5.15 L24.6 -4.7 24.1 -4.5 21.8 -4.05 24.5 -5.65 24.95 -5.9 25.3 -6.1 Q29.15 -8.2 33.55 -14.9 L34.1 -14.3 34.1 -14.2 34.45 -13.15 33.9 -12.45 33.55 -11.2 Q32.0 -9.25 30.25 -7.8 L29.65 -7.55 Q28.55 -7.0 27.55 -5.95 L25.85 -5.15 M33.9 -19.8 L36.5 -17.85 Q39.85 -14.85 39.85 -11.95 L39.8 -11.25 39.85 -11.25 39.75 -10.7 39.6 -10.05 39.45 -9.55 36.65 1.8 36.05 3.55 34.2 7.35 32.55 10.8 Q31.35 13.6 30.4 16.95 L29.55 18.25 25.75 22.55 25.7 22.6 25.6 22.65 Q23.35 25.3 20.25 26.35 L17.6 27.0 17.75 26.45 19.35 25.8 21.5 24.8 Q24.1 23.0 25.95 21.05 L26.55 20.35 Q28.3 18.2 29.2 15.9 L29.85 12.4 30.45 10.8 33.0 3.55 33.45 2.2 34.0 0.5 Q35.85 -5.6 35.85 -8.2 35.85 -8.65 36.45 -9.6 L36.45 -13.25 Q37.45 -16.85 33.9 -19.8 M-26.4 23.05 L-27.25 22.5 -27.6 22.2 -29.65 19.35 Q-33.55 16.1 -36.05 10.8 L-36.8 9.05 Q-37.85 6.5 -38.5 3.55 -39.85 -2.05 -39.85 -8.95 L-39.5 -11.7 -39.15 -13.05 -36.9 -19.3 -35.05 -23.45 Q-32.65 -27.35 -28.45 -28.35 L-23.7 -28.5 -27.0 -26.55 -28.6 -24.55 -28.7 -24.5 Q-30.2 -23.15 -30.95 -21.4 L-31.55 -19.55 Q-33.1 -17.6 -33.35 -15.0 L-33.4 -14.35 -33.5 -14.25 -34.1 -14.2 -33.75 -12.45 -34.2 -12.5 -34.25 -11.7 -34.9 -5.45 -32.3 -4.8 -30.05 -4.45 -30.05 -4.4 -36.15 -4.2 -36.15 -1.95 -34.0 3.55 -33.8 4.05 Q-32.4 7.65 -32.15 10.05 L-32.05 10.8 Q-31.6 12.8 -29.8 14.35 L-28.45 15.5 -27.2 17.3 -27.75 18.3 -26.1 21.5 -26.4 23.05" fill="#5383b4" fill-rule="evenodd" stroke="none"/>
      <path d="M-20.95 -14.5 L-19.05 -14.75 Q-18.6 -14.9 -18.25 -15.3 -17.65 -15.95 -17.3 -17.0 L-17.4 -17.65 Q-17.55 -20.1 -17.0 -22.5 L-15.85 -20.95 -14.4 -19.5 -11.05 -17.45 Q-10.35 -16.95 -10.65 -16.35 -10.05 -16.2 -9.55 -16.35 -8.45 -16.65 -7.55 -17.5 L-6.15 -19.0 -6.2 -17.9 -5.9 -16.6 Q-5.4 -15.4 -4.05 -15.5 L-1.1 -15.4 -0.25 -16.15 9.65 -15.65 12.0 -18.05 Q11.9 -15.6 13.55 -13.9 14.8 -12.55 16.75 -12.6 18.1 -12.6 18.95 -13.35 L20.25 -14.4 24.15 -11.4 24.0 -11.2 22.1 -10.6 21.65 -10.15 21.8 -8.65 Q21.9 -7.85 21.35 -7.15 20.7 -6.35 20.6 -5.4 20.4 -3.65 21.3 -2.25 L19.65 -1.4 19.5 -1.7 18.55 -8.1 17.25 -8.0 16.35 -5.85 16.25 -6.05 15.15 -4.8 14.2 -3.85 13.05 -1.15 12.05 -0.75 12.0 -1.25 12.15 -2.4 11.95 -3.6 12.7 -5.15 13.15 -7.0 13.8 -9.4 13.35 -9.95 12.45 -11.1 11.6 -12.1 11.25 -12.4 9.15 -13.75 Q8.25 -14.3 7.25 -14.5 L3.6 -14.9 1.35 -12.75 Q0.85 -12.15 0.6 -11.4 L0.25 -10.3 0.0 -10.0 -0.3 -10.55 -0.8 -11.9 Q-1.1 -12.65 -2.0 -13.05 L-2.8 -12.45 Q-4.5 -11.3 -4.75 -9.35 L-4.95 -5.4 -4.8 -4.55 -5.55 -3.0 -6.15 -3.75 -6.75 -3.8 -6.75 -4.25 -6.3 -4.55 -7.75 -9.2 Q-8.9 -12.85 -12.4 -14.35 L-14.85 -14.45 Q-15.6 -14.35 -16.2 -13.9 L-17.9 -12.4 -18.55 -11.75 -20.95 -14.5 M17.6 27.0 L17.0 31.85 16.4 31.9 12.55 29.0 11.45 29.2 10.45 29.7 Q9.95 29.9 9.55 30.2 L8.75 31.0 Q-2.85 25.3 -12.0 33.25 L-12.5 32.3 Q-11.4 30.35 -12.85 29.0 -15.1 27.05 -18.05 26.6 L-22.5 26.15 -22.5 25.6 -27.2 25.9 -27.35 25.7 -26.4 23.05 -26.1 21.5 -27.75 18.3 -27.2 17.3 -26.7 16.45 -26.2 13.2 -26.8 12.7 Q-26.05 11.3 -26.7 10.05 L-27.05 9.4 -27.9 5.0 -27.7 3.9 -26.95 1.6 -26.35 2.2 -25.15 2.4 Q-24.45 2.1 -24.0 1.6 -23.05 0.45 -23.15 -1.0 L-25.0 -2.8 Q-23.85 -4.6 -24.6 -6.3 L-24.85 -6.6 -25.4 -6.95 -26.5 -7.3 -28.85 -9.95 -30.85 -12.2 -28.65 -11.4 -27.4 -10.55 -21.9 -10.55 -21.9 -11.35 -20.5 -9.1 -22.0 -3.3 Q-19.35 0.2 -18.3 4.1 L-19.85 4.05 Q-22.9 2.65 -26.0 4.4 L-26.35 4.0 -26.75 4.6 -25.25 9.55 -25.9 11.2 -25.4 11.55 Q-21.5 13.1 -20.65 17.1 L-21.5 16.4 Q-22.2 15.3 -23.5 15.5 L-24.05 15.6 -24.3 15.8 -24.6 16.2 -24.7 16.5 -25.1 18.15 Q-25.35 20.05 -23.8 21.1 -21.9 22.45 -19.95 21.15 -18.5 25.4 -13.8 26.0 L-6.5 26.95 Q5.95 28.95 16.55 23.2 L19.45 23.8 17.75 26.45 17.6 27.0 M21.25 23.45 L22.5 22.9 23.1 22.65 23.1 22.75 Q23.1 23.85 22.25 23.85 L21.55 23.6 21.25 23.45 M19.1 21.55 L18.85 21.75 17.85 22.2 18.2 21.9 18.4 21.2 19.0 18.8 Q19.0 18.2 18.2 16.15 L18.4 15.5 16.55 12.95 15.3 11.35 14.25 10.05 13.6 9.25 13.75 9.1 14.3 9.35 15.2 9.85 Q16.4 10.5 17.4 11.25 L18.55 12.25 19.25 13.0 19.35 13.15 21.0 13.75 22.25 13.75 22.25 12.65 21.45 11.45 20.25 10.0 20.0 9.85 18.2 9.0 15.35 7.85 Q16.95 6.9 18.5 7.3 L19.2 7.6 19.95 7.9 20.0 7.9 21.6 8.75 24.1 8.1 23.95 8.55 Q23.5 9.25 23.5 10.3 L23.6 11.3 Q24.0 12.0 25.3 12.2 25.4 12.95 25.8 13.9 L26.35 14.95 26.15 15.25 Q25.65 14.8 24.75 14.55 22.75 14.05 22.75 15.9 L22.85 17.0 22.95 17.2 22.9 18.25 Q22.55 19.05 21.7 19.35 L20.9 19.7 Q19.15 19.95 19.1 21.55 M25.4 6.85 L24.3 5.5 25.0 4.5 24.5 1.85 23.9 1.7 23.55 1.35 23.65 0.6 21.9 0.6 24.0 -0.65 25.25 0.35 26.5 -0.05 Q26.5 1.2 27.8 2.1 29.1 3.0 30.9 3.0 L28.75 7.6 28.6 7.45 27.75 6.8 25.4 6.85" fill="#642d45" fill-rule="evenodd" stroke="none"/>
    </g>
  </defs>
</svg>
