<?xml version="1.0" encoding="UTF-8" standalone="no"?>
<svg xmlns:ffdec="https://www.free-decompiler.com/flash" xmlns:xlink="http://www.w3.org/1999/xlink" ffdec:objectType="frame" height="49.5px" width="19.05px" xmlns="http://www.w3.org/2000/svg">
  <g transform="matrix(1.0, 0.0, 0.0, 1.0, 10.0, 25.75)">
    <use ffdec:characterId="1556" height="45.65" transform="matrix(1.0, 0.0, 0.0, 1.0, -8.0, -23.15)" width="16.0" xlink:href="#shape0"/>
    <use ffdec:characterId="1081" height="100.0" id="shape" transform="matrix(0.14, 0.0, 0.0, 0.44, -7.0, -22.0001)" width="100.0" xlink:href="#sprite0"/>
  </g>
  <defs>
    <g id="shape0" transform="matrix(1.0, 0.0, 0.0, 1.0, 8.0, 23.15)">
      <path d="M-1.6 -22.75 Q3.05 -24.1 6.15 -20.65 7.1 -19.45 7.6 -14.65 L7.7 -13.75 6.25 -17.55 Q3.5 -22.65 -1.6 -22.75 M7.6 -3.65 Q7.6 0.35 7.2 4.55 L7.1 5.45 6.75 3.95 Q6.25 2.15 6.25 0.35 6.25 -1.65 7.25 -3.15 L7.6 -3.65 M5.0 20.55 L5.0 20.6 5.0 20.3 5.0 20.55" fill="#90dd79" fill-rule="evenodd" stroke="none"/>
      <path d="M-1.6 -22.75 Q3.5 -22.65 6.25 -17.55 L7.7 -13.75 7.95 -11.3 8.0 -9.0 7.85 -7.5 7.6 -4.15 7.6 -3.65 7.25 -3.15 Q6.25 -1.65 6.25 0.35 6.25 2.15 6.75 3.95 L7.1 5.45 6.9 7.55 6.6 9.65 6.6 16.75 Q6.2 19.15 5.0 20.55 L5.0 20.3 Q6.1 15.55 4.25 2.95 3.5 -1.95 3.5 -3.0 L4.9 -5.35 Q6.25 -7.85 6.25 -10.1 6.25 -14.8 4.9 -17.55 3.5 -20.3 -0.7 -20.5 -4.9 -20.7 -5.25 -17.85 L-6.35 -11.65 -6.5 -8.75 Q-6.5 -6.75 -5.75 -3.45 L-5.55 -0.65 Q-5.35 1.55 -5.5 1.35 L-5.75 12.5 -5.65 11.95 -5.65 12.0 Q-6.05 16.8 -5.05 19.15 -4.05 21.45 -3.35 21.85 -4.75 21.15 -5.5 19.8 -6.05 18.9 -7.25 13.5 L-7.25 2.25 Q-7.85 0.45 -7.95 -1.85 L-8.0 -6.1 Q-8.0 -9.05 -7.5 -11.2 -7.05 -13.35 -7.05 -15.2 L-6.9 -16.9 Q-6.3 -21.0 -2.55 -22.45 L-1.95 -22.65 -1.6 -22.75" fill="#4ec262" fill-rule="evenodd" stroke="none"/>
      <path d="M5.0 20.6 Q3.3 22.5 0.1 22.5 L-3.35 21.85 Q-4.05 21.45 -5.05 19.15 -6.05 16.8 -5.65 12.0 L-5.65 11.95 -5.75 12.5 -5.5 1.35 Q-5.35 1.55 -5.55 -0.65 L-5.75 -3.45 Q-6.5 -6.75 -6.5 -8.75 L-6.35 -11.65 -5.25 -17.85 Q-4.9 -20.7 -0.7 -20.5 3.5 -20.3 4.9 -17.55 6.25 -14.8 6.25 -10.1 6.25 -7.85 4.9 -5.35 L3.5 -3.0 Q3.5 -1.95 4.25 2.95 6.1 15.55 5.0 20.3 L5.0 20.6" fill="#3e9f4c" fill-rule="evenodd" stroke="none"/>
    </g>
    <g id="sprite0" transform="matrix(1.0, 0.0, 0.0, 1.0, 50.0, 50.0)">
      <use ffdec:characterId="1080" height="100.0" transform="matrix(1.0, 0.0, 0.0, 1.0, -50.0, -50.0)" width="100.0" xlink:href="#shape1"/>
    </g>
    <g id="shape1" transform="matrix(1.0, 0.0, 0.0, 1.0, 50.0, 50.0)">
      <path d="M50.0 50.0 L-50.0 50.0 -50.0 -50.0 50.0 -50.0 50.0 50.0 Z" fill="none" stroke="#9900ff" stroke-linecap="round" stroke-linejoin="round" stroke-width="0.05"/>
    </g>
  </defs>
</svg>
