<?xml version="1.0" encoding="UTF-8" standalone="no"?>
<svg xmlns:ffdec="https://www.free-decompiler.com/flash" xmlns:xlink="http://www.w3.org/1999/xlink" ffdec:objectType="frame" height="49.5px" width="19.05px" xmlns="http://www.w3.org/2000/svg">
  <g transform="matrix(1.0, 0.0, 0.0, 1.0, 10.0, 25.75)">
    <use ffdec:characterId="1557" height="48.25" transform="matrix(1.0, 0.0, 0.0, 1.0, -10.0, -25.75)" width="19.0" xlink:href="#shape0"/>
  </g>
  <defs>
    <g id="shape0" transform="matrix(1.0, 0.0, 0.0, 1.0, 10.0, 25.75)">
      <path d="M7.6 -3.65 Q7.6 0.35 7.2 4.55 L7.1 5.45 6.75 3.95 Q6.25 2.15 6.25 0.35 6.25 -1.65 7.25 -3.15 L7.6 -3.65 M5.0 20.55 L5.0 20.6 5.0 20.3 5.0 20.55 M-1.6 -22.75 L-1.15 -22.85 -1.2 -22.75 -1.2 -22.7 -1.6 -22.75" fill="#90dd79" fill-rule="evenodd" stroke="none"/>
      <path d="M7.8 -12.95 Q8.35 -13.45 9.0 -13.75 8.6 -12.85 8.35 -10.25 L7.9 -7.65 7.85 -7.5 7.6 -4.15 7.6 -3.65 7.25 -3.15 Q6.25 -1.65 6.25 0.35 6.25 2.15 6.75 3.95 L7.1 5.45 6.9 7.55 6.6 9.65 6.6 16.75 Q6.2 19.15 5.0 20.55 L5.0 20.3 Q6.1 15.55 4.25 2.95 L3.55 -2.15 Q5.1 -2.4 5.1 -4.75 L5.0 -5.55 5.8 -7.35 6.25 -7.0 Q6.25 -8.1 6.75 -9.25 L7.25 -11.0 7.05 -12.2 7.8 -12.95 M-3.35 21.85 Q-4.75 21.15 -5.5 19.8 -6.05 18.9 -7.25 13.5 L-7.25 2.25 Q-7.85 0.45 -7.95 -1.85 L-8.0 -6.1 Q-8.0 -9.05 -7.5 -11.2 L-7.4 -11.6 Q-7.65 -12.5 -8.15 -13.25 L-10.0 -15.25 -9.75 -15.25 -7.1 -13.8 -6.2 -13.25 -6.05 -13.15 -6.2 -12.25 -6.35 -11.65 -6.4 -10.9 -6.45 -9.75 -6.5 -8.75 Q-6.5 -7.3 -6.1 -5.1 L-6.0 -4.7 -5.75 -3.45 -5.55 -0.65 Q-5.35 1.55 -5.5 1.35 L-5.75 12.5 -5.65 11.95 -5.65 12.0 Q-6.05 16.8 -5.05 19.15 -4.05 21.45 -3.35 21.85 M2.55 -21.5 L2.5 -21.65 3.25 -21.15 2.55 -21.5" fill="#4ec262" fill-rule="evenodd" stroke="none"/>
      <path d="M-1.15 -22.85 Q-0.75 -24.15 -1.0 -25.0 L-0.65 -24.3 0.1 -24.25 Q0.65 -24.25 1.35 -24.85 L2.25 -25.75 2.3 -22.95 -1.15 -22.85 M6.05 -20.75 L6.65 -21.45 Q7.9 -23.05 8.75 -23.25 7.6 -21.9 7.0 -20.0 L6.8 -19.2 6.15 -20.65 6.05 -20.75 M5.0 20.6 Q3.3 22.5 0.1 22.5 L-3.35 21.85 Q-4.05 21.45 -5.05 19.15 -6.05 16.8 -5.65 12.0 L-5.65 11.95 -5.75 12.5 -5.5 1.35 Q-5.35 1.55 -5.55 -0.65 L-5.75 -3.45 -6.0 -4.7 -4.0 -5.85 -3.65 -6.05 -2.85 -5.85 Q-1.2 -5.85 -0.75 -6.6 L-0.25 -6.25 Q0.55 -7.0 1.0 -7.0 L1.75 -6.7 1.55 -6.5 1.0 -5.6 Q0.5 -5.1 0.5 -4.25 0.5 -3.55 0.8 -3.1 1.4 -2.1 3.1 -2.1 L3.55 -2.15 4.25 2.95 Q6.1 15.55 5.0 20.3 L5.0 20.6 M-5.6 -20.25 L-5.65 -21.15 Q-5.75 -22.95 -6.0 -23.75 L-6.0 -24.0 -4.1 -22.25 -3.7 -21.9 Q-4.85 -21.25 -5.6 -20.25 M6.25 -11.35 L6.25 -11.05 6.2 -11.0 6.25 -11.35 M-5.0 -18.8 L-4.95 -18.35 -5.3 -17.65 -5.25 -17.85 -5.0 -18.8 M-5.85 -14.1 L-5.85 -13.0 -6.05 -13.15 -5.85 -14.1 M4.4 -6.95 L5.1 -7.5 5.8 -7.35 5.0 -5.55 5.0 -5.6 5.0 -6.25 4.4 -6.95 M-6.2 -12.25 L-6.3 -11.45 -6.4 -10.9 -6.35 -11.65 -6.2 -12.25 M-6.45 -9.75 Q-6.0 -9.65 -5.85 -9.05 L-5.75 -7.25 Q-5.75 -6.6 -6.1 -5.1 -6.5 -7.3 -6.5 -8.75 L-6.45 -9.75" fill="#3e9f4c" fill-rule="evenodd" stroke="none"/>
      <path d="M1.1 -20.8 L2.9 -18.65 Q4.9 -16.1 4.9 -14.45 4.9 -13.35 4.1 -11.35 3.3 -9.45 3.25 -8.4 2.2 -8.0 0.75 -8.0 L-0.55 -8.05 Q-0.55 -7.0 -0.75 -6.6 -1.2 -5.85 -2.85 -5.85 L-3.65 -6.05 Q-4.35 -6.45 -4.8 -7.5 L-5.25 -9.0 Q-5.25 -9.75 -4.7 -10.0 L-5.4 -11.2 Q-5.8 -12.05 -5.85 -13.0 L-5.85 -14.1 -5.8 -14.75 Q-5.8 -16.45 -5.3 -17.65 L-4.95 -18.35 -5.0 -18.8 -5.0 -18.9 -4.9 -19.8 -4.5 -19.25 -4.5 -18.75 -3.5 -18.6 Q-2.8 -18.6 -1.9 -19.45 -1.05 -20.3 -1.05 -20.8 L-1.15 -21.35 -0.65 -20.75 0.6 -20.85 1.1 -20.8 M0.0 -12.65 L0.15 -12.6 0.15 -12.55 1.75 -12.55 2.1 -12.85 2.4 -13.45 2.25 -14.1 2.25 -14.5 1.85 -18.25 Q1.35 -19.6 -0.35 -19.65 -2.0 -19.65 -2.0 -18.35 L-1.95 -18.25 Q-2.75 -17.65 -2.75 -15.6 -2.75 -12.8 0.0 -12.65 M5.0 -5.6 L5.0 -5.55 5.1 -4.75 Q5.1 -2.4 3.55 -2.15 L3.1 -2.1 Q1.4 -2.1 0.8 -3.1 0.5 -3.55 0.5 -4.25 0.5 -5.1 1.0 -5.6 L0.9 -5.15 Q0.9 -4.85 1.4 -4.35 L2.0 -3.75 3.75 -3.75 Q4.6 -4.1 4.85 -4.95 L5.0 -5.6 M3.25 -12.05 L2.75 -12.1 1.9 -11.7 -0.05 -11.35 -1.15 -12.35 Q-2.1 -13.0 -3.2 -13.0 -3.75 -13.8 -3.9 -14.8 L-4.05 -14.8 -4.4 -12.75 Q-4.35 -11.7 -3.9 -10.75 L-3.6 -10.2 -3.45 -9.9 Q-4.65 -9.85 -4.65 -8.4 -4.85 -8.0 -4.65 -7.55 -4.3 -6.6 -2.5 -6.6 L-2.35 -6.6 -1.45 -6.75 -1.3 -6.85 Q-1.05 -7.1 -1.05 -7.9 L-1.25 -8.85 -1.1 -8.85 Q0.1 -8.85 0.3 -9.6 L1.0 -10.0 Q2.9 -11.15 3.25 -12.05" fill="#990000" fill-rule="evenodd" stroke="none"/>
      <path d="M0.0 -12.65 Q-2.75 -12.8 -2.75 -15.6 -2.75 -17.65 -1.95 -18.25 L-0.5 -15.85 0.05 -15.05 0.0 -14.5 0.0 -12.65" fill="#650101" fill-rule="evenodd" stroke="none"/>
      <path d="M-1.95 -18.25 L-2.0 -18.35 Q-2.0 -19.65 -0.35 -19.65 1.35 -19.6 1.85 -18.25 L2.25 -14.5 2.25 -14.1 2.4 -13.45 2.1 -12.85 1.75 -12.55 0.15 -12.55 0.15 -12.6 0.0 -12.65 0.0 -14.5 0.05 -15.05 -0.5 -15.85 -1.95 -18.25" fill="#ffffff" fill-rule="evenodd" stroke="none"/>
      <path d="M2.55 -21.5 L3.25 -21.15 3.85 -21.0 Q4.7 -21.0 5.25 -20.2 5.8 -19.4 6.1 -17.85 L6.25 -16.6 6.25 -12.15 6.25 -11.35 6.2 -11.0 5.95 -10.2 3.75 -7.75 3.35 -7.8 3.25 -8.25 3.25 -8.4 Q3.3 -9.45 4.1 -11.35 4.9 -13.35 4.9 -14.45 4.9 -16.1 2.9 -18.65 L1.1 -20.8 0.85 -21.1 Q0.85 -22.55 1.75 -22.0 L2.55 -21.5 M-1.15 -21.35 L-1.05 -20.8 Q-1.05 -20.3 -1.9 -19.45 -2.8 -18.6 -3.5 -18.6 L-4.5 -18.75 -4.5 -19.25 -4.9 -19.8 -5.0 -20.15 Q-5.0 -20.95 -4.4 -21.05 L-4.0 -21.05 Q-3.75 -21.4 -3.25 -21.55 L-2.8 -21.75 -1.6 -21.8 -1.15 -21.35 M4.4 -6.95 L5.0 -6.25 5.0 -5.6 4.85 -4.95 Q4.6 -4.1 3.75 -3.75 L2.0 -3.75 1.4 -4.35 Q0.9 -4.85 0.9 -5.15 L1.0 -5.6 1.55 -6.5 1.75 -6.7 Q2.7 -7.55 4.25 -7.05 L4.4 -6.95 M3.25 -12.05 Q2.9 -11.15 1.0 -10.0 L0.3 -9.6 Q0.1 -8.85 -1.1 -8.85 L-1.25 -8.85 -1.05 -7.9 Q-1.05 -7.1 -1.3 -6.85 L-1.45 -6.75 -2.35 -6.6 -2.5 -6.6 Q-4.3 -6.6 -4.65 -7.55 -4.85 -8.0 -4.65 -8.4 -4.65 -9.85 -3.45 -9.9 L-3.6 -10.2 -3.9 -10.75 Q-4.35 -11.7 -4.4 -12.75 L-4.05 -14.8 -3.9 -14.8 Q-3.75 -13.8 -3.2 -13.0 -2.1 -13.0 -1.15 -12.35 L-0.05 -11.35 1.9 -11.7 2.75 -12.1 3.25 -12.05" fill="#ff0000" fill-rule="evenodd" stroke="none"/>
      <path d="M2.3 -22.95 Q4.4 -22.55 6.05 -20.75 L6.15 -20.65 6.8 -19.2 Q7.3 -17.65 7.6 -14.65 L7.7 -13.75 7.8 -12.95 7.05 -12.2 6.95 -12.1 6.25 -11.05 6.25 -11.35 6.25 -12.15 6.25 -16.6 6.1 -17.85 Q5.8 -19.4 5.25 -20.2 4.7 -21.0 3.85 -21.0 L3.25 -21.15 2.5 -21.65 2.55 -21.5 1.75 -22.0 Q0.85 -22.55 0.85 -21.1 L1.1 -20.8 0.6 -20.85 -0.65 -20.75 -1.15 -21.35 -1.6 -21.8 -2.8 -21.75 -3.25 -21.55 Q-3.75 -21.4 -4.0 -21.05 L-4.4 -21.05 Q-5.0 -20.95 -5.0 -20.15 L-4.9 -19.8 -5.0 -18.9 -5.0 -18.8 -5.25 -17.85 -5.3 -17.65 Q-5.8 -16.45 -5.8 -14.75 L-5.85 -14.1 -6.05 -13.15 -6.2 -13.25 -7.1 -13.8 -7.05 -15.2 -6.9 -16.9 Q-6.65 -18.9 -5.6 -20.25 -4.85 -21.25 -3.7 -21.9 L-2.55 -22.45 -1.95 -22.65 -1.6 -22.75 -1.2 -22.7 -1.2 -22.75 -1.15 -22.85 2.3 -22.95" fill="#ffcc99" fill-rule="evenodd" stroke="none"/>
      <path d="M6.25 -11.05 L6.95 -12.1 7.05 -12.2 7.25 -11.0 6.75 -9.25 Q6.25 -8.1 6.25 -7.0 L5.8 -7.35 5.1 -7.5 4.4 -6.95 4.25 -7.05 Q2.7 -7.55 1.75 -6.7 L1.0 -7.0 Q0.55 -7.0 -0.25 -6.25 L-0.75 -6.6 Q-0.55 -7.0 -0.55 -8.05 L0.75 -8.0 Q2.2 -8.0 3.25 -8.4 L3.25 -8.25 3.35 -7.8 3.75 -7.75 5.95 -10.2 6.2 -11.0 6.25 -11.05 M-5.85 -13.0 Q-5.8 -12.05 -5.4 -11.2 L-4.7 -10.0 Q-5.25 -9.75 -5.25 -9.0 L-4.8 -7.5 Q-4.35 -6.45 -3.65 -6.05 L-4.0 -5.85 -6.0 -4.7 -6.1 -5.1 Q-5.75 -6.6 -5.75 -7.25 L-5.85 -9.05 Q-6.0 -9.65 -6.45 -9.75 L-6.4 -10.9 -6.3 -11.45 -6.2 -12.25 -6.05 -13.15 -5.85 -13.0" fill="#695227" fill-rule="evenodd" stroke="none"/>
    </g>
  </defs>
</svg>
