<?xml version="1.0" encoding="UTF-8" standalone="no"?>
<svg xmlns:ffdec="https://www.free-decompiler.com/flash" xmlns:xlink="http://www.w3.org/1999/xlink" ffdec:objectType="frame" height="72.4px" width="48.6px" xmlns="http://www.w3.org/2000/svg">
  <g transform="matrix(1.0, 0.0, 0.0, 1.0, 23.8, 38.7)">
    <use ffdec:characterId="1691" height="72.4" transform="matrix(1.0, 0.0, 0.0, 1.0, -23.8, -38.7)" width="48.6" xlink:href="#shape0"/>
  </g>
  <defs>
    <g id="shape0" transform="matrix(1.0, 0.0, 0.0, 1.0, 23.8, 38.7)">
      <path d="M10.0 -21.9 L10.15 -21.45 Q10.55 -20.35 12.05 -19.2 L12.4 -18.95 8.65 -18.65 10.1 -18.15 Q14.0 -16.7 14.8 -12.55 L16.05 -11.9 Q18.75 -10.85 21.7 -11.3 L21.85 -13.05 Q22.4 -12.05 22.4 -10.9 22.4 -9.55 21.65 -7.4 L20.8 -5.65 20.85 -5.25 18.7 -4.75 Q14.9 -3.15 11.55 -0.4 L12.15 -0.35 13.6 -1.25 Q16.0 -2.9 19.25 -2.85 L22.0 -0.2 19.95 0.55 Q19.3 0.75 18.75 1.1 L22.45 0.9 23.5 2.65 24.3 1.95 Q24.05 4.6 20.75 7.35 19.75 8.8 19.75 10.35 L19.45 13.95 19.4 14.25 19.0 12.45 Q18.55 11.05 17.3 10.6 18.65 16.4 13.9 20.85 L11.65 21.45 14.1 22.75 14.25 21.9 15.25 22.15 Q17.4 22.75 18.7 24.95 L18.7 23.9 18.75 23.95 Q19.8 25.45 19.8 25.9 19.8 28.7 18.2 29.05 L18.75 29.8 14.4 29.55 Q5.8 28.65 1.95 27.3 L-4.3 24.25 -5.0 23.9 -6.05 23.55 -6.45 23.3 -6.7 23.1 -8.1 18.45 -3.55 17.2 Q-0.55 21.7 6.05 22.3 L6.15 21.2 5.75 20.65 Q6.15 16.85 3.85 13.7 L5.6 13.3 6.3 12.2 Q5.55 10.85 5.25 9.65 4.85 8.05 5.1 6.6 5.55 3.65 8.65 1.25 5.7 1.95 4.2 3.95 3.55 4.7 3.2 5.75 L2.85 6.8 2.6 8.2 1.65 8.3 0.55 4.0 -0.15 5.6 -0.95 7.95 -1.3 10.75 Q-1.5 15.05 1.15 19.3 L-5.1 11.25 -5.7 11.5 Q-5.15 14.4 -3.9 16.6 L-9.45 13.95 -10.4 10.85 -5.45 5.95 -9.0 5.2 -8.95 6.1 Q-8.95 7.15 -9.6 8.45 -10.5 10.2 -12.1 10.2 L-12.75 10.2 -14.15 9.75 -15.4 8.7 -16.0 7.5 Q-16.45 6.15 -16.35 4.85 -16.35 3.25 -15.8 2.4 -15.9 4.4 -15.15 6.25 -14.4 8.05 -13.15 8.3 -11.95 8.55 -11.0 7.1 -10.05 5.65 -9.95 3.05 L-9.45 3.75 -8.85 2.75 -8.75 2.6 -7.5 1.3 -6.75 0.75 -6.3 0.5 -5.9 0.3 -6.75 -1.9 -6.8 -1.95 -6.45 -2.3 -6.6 -2.3 -6.65 -2.3 -7.7 -2.4 Q-8.9 -2.7 -9.6 -3.65 L-9.95 -4.15 Q-10.6 -5.25 -10.6 -6.2 -10.6 -8.7 -9.15 -9.55 L-8.9 -9.7 -8.95 -9.85 -8.95 -9.95 -8.95 -10.1 -8.9 -10.85 -8.0 -10.65 -7.35 -10.55 -3.75 -10.1 -2.7 -10.1 -2.25 -10.1 -3.5 -8.9 -2.6 -6.15 -1.5 -7.25 0.6 -5.35 -3.85 0.25 10.55 -7.85 12.35 -9.3 12.0 -9.7 Q9.5 -9.8 7.0 -8.95 5.1 -8.4 3.2 -7.25 L2.95 -8.15 3.75 -9.4 Q5.75 -12.05 9.2 -12.0 L12.1 -11.75 11.1 -12.75 9.95 -13.5 8.75 -14.05 7.3 -14.2 8.7 -15.15 8.85 -15.95 6.35 -18.7 7.95 -22.35 4.45 -22.65 5.95 -23.9 10.0 -21.9 M19.05 20.15 L18.6 20.6 Q17.8 21.5 17.7 22.1 16.5 20.1 14.5 20.7 L14.05 20.85 16.3 18.95 19.05 20.15 M-8.75 -31.1 Q-6.7 -28.65 -4.2 -27.1 L-3.05 -26.3 -5.3 -26.8 -4.5 -26.0 Q-3.0 -24.5 -0.85 -24.25 L-3.1 -22.15 -4.6 -23.6 Q-7.75 -26.75 -8.75 -31.1 M8.55 -3.6 Q11.45 -5.15 14.6 -6.0 14.8 -7.1 15.45 -8.0 L16.15 -8.7 16.15 -8.9 15.45 -8.95 10.55 -7.7 3.05 -0.8 3.1 0.0 3.15 -0.05 5.25 -1.6 Q6.85 -2.7 8.55 -3.6 M16.25 2.15 Q14.95 2.5 14.05 3.0 12.5 3.8 11.9 4.95 11.35 6.1 11.7 7.55 12.0 8.9 13.15 10.6 13.95 11.75 15.25 12.3 L15.55 9.7 Q17.35 8.3 18.85 6.35 19.35 5.65 19.5 4.65 L18.55 3.25 16.25 2.15 M14.9 14.45 L15.05 13.2 Q14.3 12.0 12.95 11.5 L11.7 11.35 10.6 11.85 9.95 12.65 Q6.85 17.9 13.2 17.95 L13.5 15.2 14.85 14.65 14.9 14.7 14.9 14.45 M16.2 27.65 Q15.55 26.45 15.6 25.55 L3.8 24.0 Q10.25 29.2 17.05 28.8 L16.2 27.65 M-7.9 -9.5 L-9.25 -9.05 -9.5 -8.8 Q-10.2 -8.1 -10.2 -7.15 -10.2 -6.25 -9.55 -5.55 L-9.5 -5.5 Q-8.85 -4.8 -7.9 -4.8 L-7.7 -4.8 Q-6.9 -4.85 -6.25 -5.5 L-5.95 -5.85 Q-5.6 -6.4 -5.6 -7.15 L-5.75 -8.0 -6.25 -8.8 Q-6.85 -9.4 -7.6 -9.45 L-7.9 -9.5" fill="#990000" fill-rule="evenodd" stroke="none"/>
      <path d="M3.0 -24.5 Q7.05 -27.5 9.4 -23.15 L10.0 -21.9 5.95 -23.9 4.45 -22.65 3.0 -24.5 M12.4 -18.95 Q17.75 -18.3 21.1 -14.05 L21.85 -13.05 21.7 -11.3 Q18.75 -10.85 16.05 -11.9 L14.8 -12.55 Q14.0 -16.7 10.1 -18.15 L8.65 -18.65 12.4 -18.95 M20.85 -5.25 Q24.4 -3.45 24.8 0.9 L24.8 1.3 24.3 1.95 23.5 2.65 22.45 0.9 18.75 1.1 Q19.3 0.75 19.95 0.55 L22.0 -0.2 19.25 -2.85 Q16.0 -2.9 13.6 -1.25 L12.15 -0.35 11.55 -0.4 Q14.9 -3.15 18.7 -4.75 L20.85 -5.25 M19.4 14.25 L18.9 17.2 19.3 17.7 Q20.25 19.3 19.05 20.15 L16.3 18.95 14.05 20.85 14.5 20.7 Q16.5 20.1 17.7 22.1 L18.7 23.45 18.7 23.9 18.7 24.95 Q17.4 22.75 15.25 22.15 L14.25 21.9 14.1 22.75 11.65 21.45 13.9 20.85 Q18.65 16.4 17.3 10.6 18.55 11.05 19.0 12.45 L19.4 14.25 M-3.05 -26.3 L0.15 -26.05 -0.85 -24.25 Q-3.0 -24.5 -4.5 -26.0 L-5.3 -26.8 -3.05 -26.3 M3.2 -7.25 Q5.1 -8.4 7.0 -8.95 9.5 -9.8 12.0 -9.7 L12.35 -9.3 10.55 -7.85 -3.85 0.25 0.6 -5.35 2.15 -4.2 3.3 -4.4 3.2 -7.25 M-9.95 3.05 Q-10.05 5.65 -11.0 7.1 -11.95 8.55 -13.15 8.3 -14.4 8.05 -15.15 6.25 -15.9 4.4 -15.8 2.4 -14.85 1.15 -13.25 1.05 L-12.5 1.15 Q-11.45 1.15 -10.7 1.7 -9.95 2.25 -9.95 3.05 M-3.9 16.6 Q-5.15 14.4 -5.7 11.5 L-5.1 11.25 1.15 19.3 Q-1.5 15.05 -1.3 10.75 L-0.95 7.95 -0.15 5.6 0.55 4.0 1.65 8.3 2.6 8.2 2.85 6.8 3.2 5.75 Q3.55 4.7 4.2 3.95 5.7 1.95 8.65 1.25 5.55 3.65 5.1 6.6 4.85 8.05 5.25 9.65 5.55 10.85 6.3 12.2 L5.6 13.3 3.85 13.7 Q6.15 16.85 5.75 20.65 L6.15 21.2 6.05 22.3 Q-0.55 21.7 -3.55 17.2 L-3.65 16.8 -3.9 16.6 M8.55 -3.6 Q6.85 -2.7 5.25 -1.6 L3.15 -0.05 3.1 0.0 3.05 -0.8 10.55 -7.7 15.45 -8.95 16.15 -8.9 16.15 -8.7 15.45 -8.0 Q14.8 -7.1 14.6 -6.0 11.45 -5.15 8.55 -3.6 M16.2 27.65 L17.05 28.8 Q10.25 29.2 3.8 24.0 L15.6 25.55 Q15.55 26.45 16.2 27.65 M-7.9 -9.5 L-7.6 -9.45 Q-6.85 -9.4 -6.25 -8.8 L-5.75 -8.0 -5.6 -7.15 Q-5.6 -6.4 -5.95 -5.85 L-6.25 -5.5 Q-6.9 -4.85 -7.7 -4.8 L-7.9 -4.8 Q-8.85 -4.8 -9.5 -5.5 L-9.55 -5.55 Q-10.2 -6.25 -10.2 -7.15 -10.2 -8.1 -9.5 -8.8 L-9.25 -9.05 -7.9 -9.5" fill="#ff0000" fill-rule="evenodd" stroke="none"/>
      <path d="M16.25 2.15 L18.55 3.25 19.5 4.65 Q19.35 5.65 18.85 6.35 17.35 8.3 15.55 9.7 L15.25 12.3 Q13.95 11.75 13.15 10.6 12.0 8.9 11.7 7.55 11.35 6.1 11.9 4.95 12.5 3.8 14.05 3.0 14.95 2.5 16.25 2.15 M14.85 14.65 L13.5 15.2 13.2 17.95 Q6.85 17.9 9.95 12.65 L10.6 11.85 11.7 11.35 12.95 11.5 Q14.3 12.0 15.05 13.2 L14.9 14.45 14.85 14.65" fill="#650101" fill-rule="evenodd" stroke="none"/>
      <path d="M-13.25 19.0 L-16.9 15.35 -17.15 15.0 Q-23.3 6.2 -23.75 -4.45 L-23.8 -7.2 Q-23.6 -10.7 -22.9 -14.55 -22.35 -17.65 -21.4 -20.25 L-20.05 -22.85 -17.1 -26.9 Q-19.0 -22.3 -19.0 -17.05 L-18.05 -17.4 Q-17.55 -17.6 -17.05 -17.9 L-17.45 -6.2 -17.9 -3.05 -17.85 -1.05 Q-17.7 1.5 -17.15 4.1 L-16.4 7.55 -16.4 7.6 -16.2 8.25 -15.45 8.75 -15.4 8.7 -14.15 9.75 -13.25 19.0" fill="#ad4949" fill-rule="evenodd" stroke="none"/>
      <path d="M-17.05 -17.9 Q-17.55 -17.6 -18.05 -17.4 L-19.0 -17.05 Q-19.0 -22.3 -17.1 -26.9 L-17.05 -17.9" fill="#bf3838" fill-rule="evenodd" stroke="none"/>
      <path d="M0.15 -26.05 L2.4 -29.9 3.0 -24.5 4.45 -22.65 7.95 -22.35 6.35 -18.7 8.85 -15.95 8.7 -15.15 7.3 -14.2 8.75 -14.05 9.95 -13.5 11.1 -12.75 12.1 -11.75 9.2 -12.0 Q5.75 -12.05 3.75 -9.4 L2.95 -8.15 3.2 -7.25 3.3 -4.4 2.15 -4.2 0.6 -5.35 -1.5 -7.25 -2.6 -6.15 -3.5 -8.9 -2.25 -10.1 Q0.2 -9.6 1.55 -11.2 L1.7 -11.4 2.35 -12.55 3.7 -16.05 Q0.85 -15.15 -1.15 -12.8 L-2.35 -12.8 -3.1 -14.2 -1.5 -15.5 -1.1 -18.0 -0.35 -18.9 -2.05 -20.55 -5.95 -17.2 -7.4 -22.7 -11.1 -19.95 -11.95 -20.2 -12.55 -20.85 -12.75 -22.5 -14.3 -21.65 Q-15.05 -19.15 -17.05 -17.9 L-17.1 -26.9 -19.25 -30.2 Q-13.05 -29.05 -11.85 -35.65 L-11.45 -38.7 -8.75 -31.1 Q-7.75 -26.75 -4.6 -23.6 L-3.1 -22.15 -0.85 -24.25 0.15 -26.05 M18.75 29.8 L19.35 30.65 19.95 31.0 Q18.55 31.85 18.4 33.2 L16.6 31.95 Q13.8 30.15 10.45 30.75 8.05 31.35 6.9 33.7 L5.95 29.05 2.3 27.85 Q-2.0 26.7 -6.1 28.7 L-6.05 23.55 -5.0 23.9 -4.3 24.25 1.95 27.3 Q5.8 28.65 14.4 29.55 L18.75 29.8 M-6.45 23.3 L-10.6 24.2 -10.65 20.95 -12.95 19.25 -10.85 19.25 -10.35 18.45 -8.1 18.45 -6.7 23.1 -6.45 23.3 M-8.95 -9.95 L-8.95 -9.85 -8.9 -9.7 -9.15 -9.55 Q-10.6 -8.7 -10.6 -6.2 -10.6 -5.25 -9.95 -4.15 L-9.6 -3.65 Q-8.9 -2.7 -7.7 -2.4 L-6.65 -2.3 -6.6 -2.3 -6.45 -2.3 -6.8 -1.95 -6.75 -1.9 -5.9 0.3 -6.3 0.5 -6.75 0.75 -7.5 1.3 -8.75 2.6 -8.85 2.75 -9.45 3.75 -9.95 3.05 Q-9.95 2.25 -10.7 1.7 -11.45 1.15 -12.5 1.15 -12.2 -3.65 -16.15 -7.9 -12.25 -8.0 -8.95 -9.95 M-12.75 10.2 L-12.1 10.2 Q-10.5 10.2 -9.6 8.45 -8.95 7.15 -8.95 6.1 L-9.0 5.2 -5.45 5.95 -10.4 10.85 -9.45 13.95 -12.75 10.2" fill="#a92d2d" fill-rule="evenodd" stroke="none"/>
      <path d="M-12.95 19.25 L-13.25 19.0 -14.15 9.75 -12.75 10.2 -9.45 13.95 -3.9 16.6 -3.65 16.8 -3.55 17.2 -8.1 18.45 -10.35 18.45 -10.85 19.25 -12.95 19.25 M-2.25 -10.1 L-2.7 -10.1 -3.75 -10.1 -7.35 -10.55 -8.0 -10.65 -8.9 -10.85 -8.95 -10.1 -8.95 -9.95 Q-12.25 -8.0 -16.15 -7.9 -12.2 -3.65 -12.5 1.15 L-13.25 1.05 Q-14.85 1.15 -15.8 2.4 -16.35 3.25 -16.35 4.85 -16.45 6.15 -16.0 7.5 L-15.4 8.7 -15.45 8.75 -16.2 8.25 -16.4 7.6 -16.4 7.55 -17.15 4.1 Q-17.7 1.5 -17.85 -1.05 L-17.9 -3.05 -17.45 -6.2 -17.05 -17.9 Q-15.05 -19.15 -14.3 -21.65 L-12.75 -22.5 -12.55 -20.85 -11.95 -20.2 -11.1 -19.95 -7.4 -22.7 -5.95 -17.2 -2.05 -20.55 -0.35 -18.9 -1.1 -18.0 -1.5 -15.5 -3.1 -14.2 -2.35 -12.8 -1.15 -12.8 Q0.85 -15.15 3.7 -16.05 L2.35 -12.55 1.7 -11.4 1.55 -11.2 Q0.2 -9.6 -2.25 -10.1" fill="#8e3c3c" fill-rule="evenodd" stroke="none"/>
    </g>
  </defs>
</svg>
