<?xml version="1.0" encoding="UTF-8" standalone="no"?>
<svg xmlns:ffdec="https://www.free-decompiler.com/flash" xmlns:xlink="http://www.w3.org/1999/xlink" ffdec:objectType="frame" height="85.7px" width="30.15px" xmlns="http://www.w3.org/2000/svg">
  <g transform="matrix(1.0, 0.0, 0.0, 1.0, 14.25, 43.9)">
    <use ffdec:characterId="2095" height="84.05" transform="matrix(1.0, 0.0, 0.0, 1.0, -14.25, -42.25)" width="30.15" xlink:href="#shape0"/>
  </g>
  <defs>
    <g id="shape0" transform="matrix(1.0, 0.0, 0.0, 1.0, 14.25, 42.25)">
      <path d="M1.7 -41.6 Q2.05 -42.4 3.3 -42.2 L4.0 -41.55 2.35 -38.9 1.6 -39.55 1.7 -41.6 M5.0 -37.1 Q7.2 -36.75 8.45 -34.85 9.25 -33.65 9.5 -32.35 L9.45 -30.6 8.55 -29.9 7.5 -30.8 6.15 -30.1 Q6.2 -31.95 7.95 -31.25 L6.7 -32.5 5.1 -30.3 4.95 -30.45 5.3 -31.6 6.35 -32.5 5.8 -35.5 5.0 -36.3 5.0 -37.1 M10.85 -30.0 Q11.85 -29.85 12.45 -28.8 L12.55 -28.6 Q13.0 -27.65 12.8 -26.45 L12.1 -26.2 Q10.75 -26.45 9.55 -27.4 L8.15 -26.45 6.85 -27.35 7.15 -29.0 10.05 -28.55 10.85 -30.0 M-3.05 38.85 Q-3.85 37.25 -5.05 37.05 L-5.8 37.25 -6.0 37.2 -6.75 37.4 -6.45 37.0 -6.5 36.7 -5.75 36.0 -6.05 35.1 -5.65 34.15 -4.9 34.05 -3.65 34.8 -4.65 35.6 Q-3.85 37.25 -2.1 37.45 -0.15 37.8 0.75 35.55 L0.65 32.65 1.15 33.2 Q2.0 34.0 1.75 35.4 L2.0 35.95 1.4 36.55 -0.4 38.15 -3.05 38.85 M-4.35 -39.05 L-4.1 -39.45 -2.3 -37.8 -0.65 -35.6 1.65 -32.9 0.05 -33.15 -0.55 -32.45 -4.5 -38.3 -4.35 -39.05 M2.3 -37.25 L2.5 -36.5 2.05 -35.75 1.2 -35.6 Q0.7 -35.7 0.45 -36.0 0.15 -36.4 0.25 -36.85 0.3 -37.25 0.7 -37.5 L1.55 -37.65 2.3 -37.25 M4.1 -29.0 L3.0 -27.45 2.9 -27.4 1.1 -30.7 1.7 -32.85 3.35 -30.95 4.1 -29.0 M3.4 20.65 Q3.5 20.15 4.05 19.9 L5.3 19.7 5.35 19.7 6.35 20.6 6.8 21.3 5.8 23.4 5.55 23.8 Q4.55 24.45 3.8 23.6 L3.4 23.15 3.4 20.65 M6.95 25.2 L7.7 24.75 7.95 24.9 8.85 25.8 9.0 26.2 9.0 27.45 9.0 27.55 8.95 27.65 8.85 27.6 7.95 27.95 7.4 27.85 6.65 27.35 6.6 27.3 6.55 27.2 6.35 26.6 6.3 26.2 6.4 25.5 6.95 25.2 M5.25 34.05 L4.25 35.7 4.1 35.65 3.75 35.45 3.65 35.25 4.1 33.2 4.4 33.1 Q4.75 33.15 5.25 34.05 M-3.8 -32.25 Q-4.4 -30.5 -5.95 -29.5 L-8.6 -29.35 -8.85 -29.45 -9.0 -32.35 -8.35 -33.0 -7.15 -31.95 -5.35 -33.25 -6.4 -35.15 -5.0 -35.4 -4.1 -33.5 -2.7 -33.85 -2.15 -32.8 -3.8 -32.25 M-6.7 -27.95 L-6.35 -28.35 -5.55 -28.25 -3.75 -25.8 -4.65 -25.3 -6.55 -26.3 -6.7 -27.95 M-9.35 24.4 L-8.65 24.15 -8.55 24.1 -7.75 23.85 Q-5.25 24.15 -6.85 26.25 L-7.35 27.2 -7.9 27.65 -9.0 27.4 -9.15 27.1 -9.45 26.0 -9.45 25.2 -9.35 24.4 M-8.25 33.8 L-7.45 36.1 Q-8.35 36.05 -8.75 36.45 L-9.05 34.35 Q-8.7 33.95 -8.25 33.8" fill="#ff0000" fill-rule="evenodd" stroke="none"/>
      <path d="M4.0 -41.55 Q5.35 -40.25 4.5 -38.35 L3.95 -37.2 3.65 -36.8 3.35 -30.95 1.7 -32.85 1.7 -32.9 1.65 -32.9 -0.65 -35.6 -0.05 -38.6 0.95 -41.2 1.7 -41.6 1.6 -39.55 2.35 -38.9 4.0 -41.55 M1.55 39.85 L0.6 41.15 -0.2 41.7 -2.55 41.8 -2.6 41.35 -2.7 41.0 -2.7 40.85 -2.6 40.55 1.4 36.55 1.55 36.85 Q2.25 37.55 2.2 38.55 L1.55 39.85 M2.3 -37.25 L1.55 -37.65 0.7 -37.5 Q0.3 -37.25 0.25 -36.85 0.15 -36.4 0.45 -36.0 0.7 -35.7 1.2 -35.6 L2.05 -35.75 2.5 -36.5 2.3 -37.25 M0.55 32.05 L0.65 32.65 0.75 35.55 Q-0.15 37.8 -2.1 37.45 -3.85 37.25 -4.65 35.6 L-3.65 34.8 -1.9 32.95 -1.35 33.0 -0.7 33.1 Q0.1 32.95 0.55 32.05" fill="#ffffff" fill-rule="evenodd" stroke="none"/>
      <path d="M3.95 -37.2 L5.0 -37.1 5.0 -36.3 5.8 -35.5 6.35 -32.5 5.3 -31.6 4.95 -30.45 5.1 -30.3 4.1 -29.0 3.35 -30.95 3.65 -36.8 3.95 -37.2 M9.45 -30.6 L9.65 -30.7 10.85 -30.0 10.05 -28.55 7.15 -29.0 6.85 -27.35 8.15 -26.45 7.0 -25.65 6.85 -25.8 6.4 -28.2 6.15 -30.1 7.5 -30.8 8.55 -29.9 9.45 -30.6 M12.8 -26.45 L12.9 -26.05 12.1 -26.2 12.8 -26.45 M5.0 36.9 Q4.2 39.0 2.45 39.6 L1.55 39.85 2.2 38.55 Q2.25 37.55 1.55 36.85 L1.4 36.55 2.0 35.95 1.75 35.4 Q2.0 34.0 1.15 33.2 L0.65 32.65 0.55 32.05 0.95 31.8 1.4 31.45 1.95 32.05 2.65 31.65 2.9 33.05 3.8 32.75 4.8 33.2 5.25 33.95 5.25 34.05 Q4.75 33.15 4.4 33.1 L4.1 33.2 3.65 35.25 3.75 35.45 4.1 35.65 4.05 35.75 5.0 36.9 M-2.6 40.55 L-2.95 40.5 -2.7 39.5 -3.05 38.85 -0.4 38.15 -2.6 40.55 M-6.75 37.4 L-7.4 37.65 Q-7.65 37.45 -7.9 37.4 L-8.3 37.45 -8.55 37.65 -8.65 37.95 -8.7 38.1 -8.7 38.15 -8.65 38.3 -8.8 38.4 -8.9 38.45 -9.0 38.55 -9.0 38.6 -9.05 38.65 Q-9.2 38.5 -9.35 38.45 -9.5 38.3 -9.65 38.25 L-9.95 37.55 -10.0 37.45 -9.35 36.15 -9.65 35.4 -9.45 34.95 -9.05 34.35 -8.75 36.45 Q-8.35 36.05 -7.45 36.1 L-8.25 33.8 -7.45 33.75 -6.9 34.65 -6.95 33.2 -6.9 33.0 -6.85 32.6 Q-6.7 31.75 -6.2 31.1 L-4.9 34.05 -5.65 34.15 -6.05 35.1 -5.75 36.0 -6.5 36.7 -6.45 37.0 -6.75 37.4 M-9.85 -28.75 L-9.8 -29.15 -9.4 -32.1 -9.35 -35.25 -9.4 -36.35 -8.05 -37.3 Q-6.6 -37.6 -4.35 -39.05 L-4.5 -38.3 -0.55 -32.45 0.05 -33.15 1.65 -32.9 1.7 -32.9 1.7 -32.85 1.1 -30.7 2.9 -27.4 3.0 -27.45 2.3 -26.55 1.1 -28.35 1.2 -30.45 -0.3 -28.3 Q-1.3 -30.3 -2.65 -31.5 -3.3 -30.1 -4.75 -29.1 L-4.4 -28.95 -2.45 -27.1 -3.4 -26.2 -3.75 -25.8 -5.55 -28.25 -6.35 -28.35 -6.7 -27.95 -8.4 -26.8 -8.6 -27.1 -9.1 -27.8 -9.15 -27.85 -9.85 -28.75 M-2.3 -37.8 Q-2.0 -37.65 -1.9 -37.65 -1.35 -37.55 -0.05 -38.6 L-0.65 -35.6 -2.3 -37.8 M2.65 22.1 L3.35 20.65 3.4 20.65 3.4 23.15 3.8 23.6 Q4.55 24.45 5.55 23.8 L4.15 25.15 3.7 25.55 Q2.7 24.8 2.3 23.85 L2.2 23.35 2.05 23.1 2.65 22.1 M8.85 27.6 L8.1 29.3 7.65 30.25 6.25 29.85 Q5.6 29.0 5.65 27.95 L5.7 27.4 5.95 26.5 6.4 25.5 6.3 26.2 6.35 26.6 6.55 27.2 6.6 27.3 6.65 27.35 7.4 27.85 7.95 27.95 8.85 27.6 M-3.8 -32.25 L-2.15 -32.8 -2.7 -33.85 -4.1 -33.5 -5.0 -35.4 -6.4 -35.15 -5.35 -33.25 -7.15 -31.95 -8.35 -33.0 -9.0 -32.35 -8.85 -29.45 -8.6 -29.35 -5.95 -29.5 Q-4.4 -30.5 -3.8 -32.25 M-6.85 26.25 L-6.9 26.55 -7.0 26.65 Q-7.35 27.8 -8.4 28.35 L-9.25 28.75 -10.7 27.5 -9.35 24.4 -9.45 25.2 -9.45 26.0 -9.15 27.1 -9.0 27.4 -7.9 27.65 -7.35 27.2 -6.85 26.25" fill="#990000" fill-rule="evenodd" stroke="none"/>
      <path d="M12.9 -26.05 L13.0 -26.05 13.05 -26.05 13.35 -26.05 13.05 -25.75 13.0 -25.65 12.05 -24.6 10.4 -25.85 9.9 -25.5 9.9 -25.3 9.85 -24.05 9.85 -22.3 6.65 -21.75 6.6 -22.5 Q6.05 -25.55 3.25 -26.25 L2.45 -25.9 2.2 -26.0 0.2 -24.55 -1.1 -25.45 -2.8 -22.65 -3.25 -22.1 -6.1 -20.8 -6.1 -23.1 -5.45 -23.25 -5.15 -23.65 -7.15 -25.55 -6.65 -25.35 -3.0 -24.45 -0.3 -28.3 1.2 -30.45 1.1 -28.35 2.3 -26.55 3.0 -27.45 4.1 -29.0 5.1 -30.3 6.7 -32.5 7.95 -31.25 Q6.2 -31.95 6.15 -30.1 L6.4 -28.2 6.85 -25.8 6.9 -25.55 7.0 -25.65 8.15 -26.45 9.55 -27.4 Q10.75 -26.45 12.1 -26.2 L12.9 -26.05 M2.2 23.35 L2.3 23.85 Q2.7 24.8 3.7 25.55 L4.15 25.15 4.4 27.2 5.7 27.4 5.65 27.95 Q5.6 29.0 6.25 29.85 L5.55 32.45 5.4 32.75 4.75 32.2 Q5.8 31.1 4.45 29.8 L3.9 29.25 3.2 28.85 3.0 27.25 Q2.7 26.05 2.15 26.0 -0.05 25.75 -0.25 27.0 -0.35 27.65 0.25 28.8 L0.65 29.65 0.35 30.65 0.55 31.0 0.15 30.9 -1.55 30.3 Q-1.95 30.4 -2.15 30.65 -2.3 29.7 -2.8 29.35 L-3.2 29.2 -3.3 29.2 Q-3.85 29.1 -4.8 29.8 L-4.35 27.8 -4.3 27.65 -3.3 27.9 -1.95 26.5 -2.0 26.35 -3.35 23.25 -3.05 21.6 Q-2.6 21.65 -2.15 21.95 -1.7 22.15 -1.4 22.45 L-1.3 22.5 -0.8 23.2 -0.65 23.25 -0.15 23.5 0.1 23.55 0.1 23.6 2.2 23.35 M-9.45 34.95 L-10.2 31.3 -10.05 29.85 -8.55 30.1 -8.65 31.35 -6.9 33.0 -6.95 33.2 -6.9 34.65 -7.45 33.75 -8.25 33.8 Q-8.7 33.95 -9.05 34.35 L-9.45 34.95" fill="#631a1a" fill-rule="evenodd" stroke="none"/>
      <path d="M14.55 -22.75 L13.2 -19.45 12.7 -18.5 12.5 -14.35 Q12.15 -8.05 12.2 -2.45 12.25 3.2 11.55 7.65 L11.0 11.0 10.65 14.1 10.25 16.95 9.35 21.2 9.6 22.5 10.5 28.1 9.6 30.9 9.0 31.75 8.55 31.65 8.35 31.65 8.35 31.3 8.1 29.3 8.85 27.6 8.95 27.65 9.0 27.55 9.0 27.45 9.0 26.2 8.85 25.8 7.95 24.9 7.7 24.75 6.95 25.2 5.8 23.4 6.8 21.3 6.35 20.6 5.35 19.7 5.3 19.7 4.05 19.9 Q3.5 20.15 3.4 20.65 L3.35 20.65 2.65 22.1 1.25 16.55 0.3 16.4 -0.05 16.75 -0.2 16.95 Q-0.9 18.1 -0.55 20.05 L0.05 22.4 -1.3 22.45 -1.3 22.5 -1.4 22.45 Q-1.7 22.15 -2.15 21.95 -2.6 21.65 -3.05 21.6 L-3.35 23.25 -2.0 26.35 -1.95 26.5 -3.3 27.9 -4.3 27.65 -4.35 27.8 -4.8 29.8 -5.0 29.9 -5.1 29.95 -5.4 30.3 -5.55 30.4 -6.15 31.0 -6.2 31.1 Q-6.7 31.75 -6.85 32.6 L-6.9 33.0 -8.65 31.35 -8.55 30.1 -10.05 29.85 -10.2 31.3 -9.45 34.95 -9.65 35.4 -10.05 36.55 -10.9 35.55 -10.55 34.8 -10.25 34.3 -10.55 31.55 -10.85 29.85 -11.0 29.3 -11.45 27.45 Q-11.85 26.15 -11.75 24.25 L-11.6 22.5 -11.5 21.55 -11.45 21.45 -11.4 21.0 -11.35 20.1 -11.25 18.8 -10.95 11.0 -10.75 -1.65 -12.75 -17.55 -13.5 -18.75 -13.6 -22.1 -13.65 -24.25 -13.85 -24.25 -13.75 -28.4 -13.15 -29.55 -14.25 -33.9 -9.85 -28.75 -9.15 -27.85 -9.1 -27.8 -10.3 -26.05 -7.6 -16.6 -5.8 -16.2 -6.3 -15.65 -5.3 -10.05 -4.55 -9.8 -4.55 -12.45 -4.95 -15.15 -5.05 -15.55 -3.85 -17.8 -4.65 -20.35 -3.25 -22.1 -2.8 -22.65 -1.1 -25.45 0.2 -24.55 2.2 -26.0 2.45 -25.9 3.25 -26.25 Q6.05 -25.55 6.6 -22.5 L6.65 -21.75 9.85 -22.3 9.85 -24.05 9.9 -25.3 9.9 -25.5 10.4 -25.85 12.05 -24.6 14.55 -22.75 M-6.85 26.25 Q-5.25 24.15 -7.75 23.85 L-8.55 24.1 -8.65 24.15 -9.35 24.4 -10.7 27.5 -9.25 28.75 -8.4 28.35 Q-7.35 27.8 -7.0 26.65 L-6.9 26.55 -6.85 26.25" fill="#333333" fill-rule="evenodd" stroke="none"/>
      <path d="M-0.3 -28.3 L-3.0 -24.45 -6.65 -25.35 -7.15 -25.55 -7.5 -25.7 -8.3 -26.6 -8.4 -26.8 -6.7 -27.95 -6.55 -26.3 -4.65 -25.3 -3.75 -25.8 -3.4 -26.2 -2.45 -27.1 -4.4 -28.95 -4.75 -29.1 Q-3.3 -30.1 -2.65 -31.5 -1.3 -30.3 -0.3 -28.3 M6.85 -25.8 L7.0 -25.65 6.9 -25.55 6.85 -25.8 M-3.65 34.8 L-4.9 34.05 -6.2 31.1 -6.15 31.0 -5.55 30.4 -5.4 30.3 -4.35 32.45 0.95 31.8 0.55 32.05 Q0.1 32.95 -0.7 33.1 L-1.35 33.0 -1.9 32.95 -3.65 34.8 M-9.65 35.4 L-9.35 36.15 -10.0 37.45 -10.15 37.25 -10.05 36.55 -9.65 35.4" fill="#e2b181" fill-rule="evenodd" stroke="none"/>
      <path d="M13.35 -26.05 L14.75 -26.3 15.75 -26.75 15.9 -26.05 14.55 -22.75 12.05 -24.6 13.0 -25.65 13.05 -25.75 13.35 -26.05 M9.7 30.75 L9.25 31.95 8.95 32.7 8.55 33.7 8.1 34.75 Q7.5 33.75 6.9 33.4 L6.75 33.35 6.35 33.15 6.3 33.15 5.4 32.75 5.55 32.45 6.25 29.85 7.65 30.25 8.1 29.3 8.35 31.3 8.35 31.65 8.55 31.65 9.0 31.75 9.6 30.9 9.7 30.75 M-7.15 -25.55 L-5.15 -23.65 -5.45 -23.25 -6.1 -23.1 -6.1 -20.8 -3.25 -22.1 -4.65 -20.35 -3.85 -17.8 -5.05 -15.55 -4.95 -15.15 -4.55 -12.45 -4.55 -9.8 -5.3 -10.05 -6.3 -15.65 -5.8 -16.2 -7.6 -16.6 -10.3 -26.05 -9.1 -27.8 -8.6 -27.1 -8.4 -26.8 -8.3 -26.6 -7.5 -25.7 -7.15 -25.55 M-1.3 22.5 L-1.3 22.45 0.05 22.4 -0.55 20.05 Q-0.9 18.1 -0.2 16.95 L-0.05 16.75 0.3 16.4 1.25 16.55 2.65 22.1 2.05 23.1 2.2 23.35 0.1 23.6 0.1 23.55 -0.15 23.5 -0.65 23.25 -0.8 23.2 -1.3 22.5 M5.8 23.4 L6.95 25.2 6.4 25.5 5.95 26.5 5.7 27.4 4.4 27.2 4.15 25.15 5.55 23.8 5.8 23.4" fill="#4b2626" fill-rule="evenodd" stroke="none"/>
      <path d="M13.0 -26.05 L13.05 -27.55 13.05 -26.05 13.0 -26.05 M13.2 -19.45 L13.1 -18.3 13.3 -9.55 13.4 -5.65 Q13.5 3.4 13.0 12.1 L12.9 13.7 12.5 18.0 12.4 18.85 11.85 22.3 11.25 25.1 10.9 26.65 10.8 27.0 10.5 28.1 9.6 22.5 9.35 21.2 10.25 16.95 10.65 14.1 11.0 11.0 11.55 7.65 Q12.25 3.2 12.2 -2.45 12.15 -8.05 12.5 -14.35 L12.7 -18.5 13.2 -19.45" fill="#666666" fill-rule="evenodd" stroke="none"/>
      <path d="M-9.95 37.55 L-10.2 37.35 Q-13.8 34.4 -12.8 29.2 L-12.75 29.1 Q-13.4 27.45 -13.6 24.75 L-13.55 22.5 -13.4 16.4 -13.35 15.8 -13.2 11.0 -13.1 7.5 -12.85 -4.95 Q-12.85 -6.95 -13.7 -12.9 L-13.5 -14.45 -13.5 -18.75 -12.75 -17.55 -10.75 -1.65 -10.95 11.0 -11.25 18.8 -11.35 20.1 -11.4 21.0 -11.45 21.45 -11.5 21.55 -11.6 22.5 -11.75 24.25 Q-11.85 26.15 -11.45 27.45 L-11.0 29.3 -10.85 29.85 -10.55 31.55 -10.25 34.3 -10.55 34.8 -10.9 35.55 -10.05 36.55 -10.15 37.25 -10.0 37.45 -9.95 37.55" fill="#444444" fill-rule="evenodd" stroke="none"/>
      <path d="M6.9 33.4 L6.25 34.7 5.0 36.9 4.05 35.75 4.1 35.65 4.25 35.7 5.25 34.05 5.25 33.95 4.8 33.2 3.8 32.75 2.9 33.05 2.65 31.65 1.95 32.05 1.4 31.45 0.95 31.8 -4.35 32.45 -5.4 30.3 -5.1 29.95 -5.0 29.9 -4.8 29.8 Q-3.85 29.1 -3.3 29.2 L-3.2 29.2 -2.8 29.35 Q-2.3 29.7 -2.15 30.65 -1.95 30.4 -1.55 30.3 L0.15 30.9 0.55 31.0 0.35 30.65 0.65 29.65 0.25 28.8 0.9 28.55 2.85 27.25 3.0 27.25 3.2 28.85 3.9 29.25 4.45 29.8 Q5.8 31.1 4.75 32.2 L5.4 32.75 6.3 33.15 6.35 33.15 6.75 33.35 6.9 33.4" fill="#ffcc99" fill-rule="evenodd" stroke="none"/>
      <path d="M12.4 18.85 L12.15 20.55 11.85 22.3 12.4 18.85 M10.5 28.1 L9.8 30.4 9.7 30.75 9.6 30.9 10.5 28.1" fill="#bb77a7" fill-rule="evenodd" stroke="none"/>
      <path d="M0.25 28.8 Q-0.35 27.65 -0.25 27.0 -0.05 25.75 2.15 26.0 2.7 26.05 3.0 27.25 L2.85 27.25 0.9 28.55 0.25 28.8" fill="#f4c398" fill-rule="evenodd" stroke="none"/>
    </g>
  </defs>
</svg>
