<?xml version="1.0" encoding="UTF-8" standalone="no"?>
<svg xmlns:ffdec="https://www.free-decompiler.com/flash" xmlns:xlink="http://www.w3.org/1999/xlink" ffdec:objectType="frame" height="113.05px" width="102.2px" xmlns="http://www.w3.org/2000/svg">
  <g transform="matrix(1.0, 0.0, 0.0, 1.0, 49.9, 60.5)">
    <use ffdec:characterId="2160" height="69.25" transform="matrix(1.0, 0.0, 0.0, 1.0, -40.85, -32.15)" width="84.45" xlink:href="#shape0"/>
  </g>
  <defs>
    <g id="shape0" transform="matrix(1.0, 0.0, 0.0, 1.0, 40.85, 32.15)">
      <path d="M-16.95 -31.25 L-14.85 -31.05 10.6 -28.55 26.6 -26.75 31.4 -26.05 29.05 -25.1 -15.35 -29.8 -16.95 -31.25 M-30.0 21.45 L-30.3 21.2 -31.2 11.95 -29.8 12.4 -26.5 16.15 -20.95 18.8 -20.7 19.0 -20.6 19.4 -25.15 20.65 -27.4 20.65 -27.9 21.45 -30.0 21.45 M13.05 -13.45 L13.1 -14.6 9.9 -13.45 9.2 -18.6 7.9 -19.1 Q7.8 -15.25 5.9 -12.05 4.2 -9.25 1.0 -9.25 L0.95 -10.2 2.15 -11.45 0.8 -11.85 -0.25 -15.6 -2.9 -15.35 Q-7.1 -16.3 -7.95 -20.55 L-10.05 -13.55 -12.55 -15.95 Q-12.6 -15.4 -13.0 -14.1 L-14.2 -10.6 Q-15.15 -8.1 -19.3 -7.9 L-25.95 -8.65 -26.0 -7.9 -26.0 -7.75 Q-29.3 -5.8 -33.2 -5.7 -29.25 -1.45 -29.55 3.35 L-30.3 3.25 Q-31.9 3.35 -32.85 4.6 -33.4 5.45 -33.4 7.05 -33.5 8.35 -33.05 9.7 L-32.45 10.9 -32.5 10.95 -33.25 10.45 -33.45 9.8 -33.45 9.75 -34.2 6.3 Q-34.95 2.7 -34.95 -0.85 -34.95 -3.95 -33.3 -7.3 L-32.35 -9.25 -32.2 -9.4 -32.3 -9.4 -31.85 -10.4 -31.5 -10.85 Q-29.05 -13.5 -27.1 -13.5 -26.5 -13.5 -26.8 -13.65 L-26.85 -13.75 Q-30.0 -13.5 -32.2 -11.95 L-32.9 -11.6 -34.1 -10.25 -32.15 -14.25 Q-30.05 -17.75 -26.6 -19.75 -29.7 -19.25 -31.7 -16.9 L-31.25 -19.95 Q-30.8 -21.55 -29.3 -23.75 -28.1 -25.55 -28.1 -27.0 L-28.15 -27.7 -25.85 -28.35 -21.35 -29.4 -20.45 -29.25 -19.85 -29.3 -19.75 -29.35 -17.45 -28.75 36.0 -23.0 37.1 -21.6 Q38.75 -19.15 38.95 -18.1 L39.1 -16.4 39.4 -14.25 Q39.7 -12.8 38.1 -4.15 36.65 -7.45 35.0 -9.5 36.7 -1.85 36.15 4.05 35.5 -1.75 34.8 -3.4 L33.35 -6.45 33.7 -2.75 34.2 5.25 Q33.7 7.3 33.7 8.25 L33.7 9.2 33.0 10.05 Q32.2 10.7 30.1 16.9 29.6 18.35 28.5 19.65 L26.35 19.4 28.1 16.5 22.65 13.5 Q27.65 13.25 28.2 11.8 29.1 9.3 28.95 6.6 L27.75 6.5 26.7 5.3 27.95 4.55 Q30.5 2.9 30.85 0.05 L30.35 -2.55 27.15 0.35 26.55 -0.6 21.6 -0.45 21.6 -3.1 23.45 -4.75 Q25.5 -6.3 27.8 -5.65 L28.4 -5.4 Q30.9 -8.9 31.8 -12.9 L32.15 -14.85 30.85 -14.85 Q29.2 -14.55 28.5 -13.1 27.7 -11.4 28.2 -9.6 L27.05 -8.15 22.9 -7.9 Q23.4 -9.3 22.6 -10.8 22.45 -12.15 21.35 -12.85 17.75 -15.15 15.3 -12.0 L13.05 -13.45" fill="#435584" fill-rule="evenodd" stroke="none"/>
      <path d="M-16.95 -31.25 L-15.35 -29.8 29.05 -25.1 31.4 -26.05 34.7 -25.35 37.25 -25.3 38.5 -24.85 Q41.0 -23.75 41.65 -21.65 42.55 -20.7 42.95 -19.45 L43.6 -16.25 43.55 -13.85 Q43.1 -4.15 39.05 4.5 L35.45 12.35 Q32.75 18.0 28.6 22.05 L29.2 20.4 28.5 19.65 Q29.6 18.35 30.1 16.9 32.2 10.7 33.0 10.05 L33.7 9.2 33.7 8.25 Q33.7 7.3 34.2 5.25 L33.7 -2.75 33.35 -6.45 34.8 -3.4 Q35.5 -1.75 36.15 4.05 36.7 -1.85 35.0 -9.5 36.65 -7.45 38.1 -4.15 39.7 -12.8 39.4 -14.25 L39.1 -16.4 38.95 -18.1 Q38.75 -19.15 37.1 -21.6 L36.0 -23.0 -17.45 -28.75 -19.75 -29.35 -19.85 -29.3 -20.45 -29.25 -21.35 -29.4 -25.85 -28.35 -28.15 -27.7 -28.1 -27.0 Q-28.1 -25.55 -29.3 -23.75 -30.8 -21.55 -31.25 -19.95 L-31.7 -16.9 Q-29.7 -19.25 -26.6 -19.75 -30.05 -17.75 -32.15 -14.25 L-34.1 -10.25 -32.9 -11.6 -32.2 -11.95 Q-30.0 -13.5 -26.85 -13.75 L-26.8 -13.65 Q-26.5 -13.5 -27.1 -13.5 -29.05 -13.5 -31.5 -10.85 L-31.85 -10.4 -32.3 -9.4 -32.2 -9.4 -32.35 -9.25 -33.3 -7.3 Q-34.95 -3.95 -34.95 -0.85 -34.95 2.7 -34.2 6.3 L-33.45 9.75 -33.45 9.8 -33.25 10.45 -32.5 10.95 -32.45 10.9 -31.2 11.95 -30.3 21.2 -33.95 17.55 -34.2 17.2 Q-40.35 8.4 -40.8 -2.25 L-40.85 -5.0 Q-40.65 -8.5 -39.95 -12.35 -39.4 -15.45 -38.45 -18.05 L-37.1 -20.65 Q-34.35 -25.25 -30.6 -27.85 -30.6 -28.25 -29.85 -28.8 -29.8 -30.25 -28.55 -31.0 -27.3 -32.3 -24.65 -32.1 L-23.35 -31.9 -23.15 -31.9 -19.9 -31.5 -19.6 -31.5 -18.55 -31.3 -16.95 -31.25" fill="#4f689e" fill-rule="evenodd" stroke="none"/>
      <path d="M28.6 22.05 L26.7 23.65 26.45 23.85 Q25.0 24.6 24.75 25.3 24.45 25.95 25.1 27.35 25.75 28.7 25.85 30.4 20.0 24.7 16.6 27.5 14.0 29.65 15.25 34.1 L14.9 37.1 Q12.15 32.1 9.0 32.3 4.6 32.2 3.05 33.1 1.5 33.95 1.35 35.4 L-0.45 34.15 Q-3.25 32.35 -6.6 32.95 -9.0 33.55 -10.15 35.9 L-11.1 31.25 -14.75 30.05 Q-19.05 28.9 -23.15 30.9 L-23.1 25.75 -22.05 26.1 -21.35 26.45 -15.1 29.5 Q-11.25 30.85 -2.65 31.75 L2.2 32.0 3.1 32.15 4.75 31.9 5.05 31.9 12.5 28.4 12.9 28.2 17.8 24.3 18.85 25.2 22.65 24.15 23.0 21.2 21.8 21.05 Q19.85 20.8 18.15 22.15 L17.35 19.75 15.9 17.6 17.8 17.6 22.15 17.95 22.65 16.15 17.95 13.4 15.3 12.55 11.95 12.4 13.2 11.2 13.2 10.25 15.65 8.65 17.05 8.45 Q19.8 8.45 21.05 7.75 L20.55 10.1 Q23.65 12.45 26.95 10.3 L27.75 6.5 28.95 6.6 Q29.1 9.3 28.2 11.8 27.65 13.25 22.65 13.5 L28.1 16.5 26.35 19.4 28.5 19.65 29.2 20.4 28.6 22.05 M-23.5 25.5 L-27.65 26.4 -27.7 23.15 -30.0 21.45 -27.9 21.45 -27.4 20.65 -25.15 20.65 -23.75 25.3 -23.5 25.5 M-12.55 -15.95 L-10.05 -13.55 -7.95 -20.55 Q-7.1 -16.3 -2.9 -15.35 L-0.25 -15.6 0.8 -11.85 2.15 -11.45 0.95 -10.2 1.0 -9.25 Q4.2 -9.25 5.9 -12.05 7.8 -15.25 7.9 -19.1 L9.2 -18.6 9.9 -13.45 13.1 -14.6 13.05 -13.45 11.15 -13.1 11.15 -8.85 8.15 -8.25 8.35 -6.25 7.0 -6.85 6.0 -9.4 Q4.1 -7.35 1.4 -6.85 0.1 -6.65 -1.35 -6.85 L-6.5 -5.5 -6.5 -5.65 -4.25 -7.45 -0.65 -9.7 -2.9 -13.4 -4.25 -13.3 -5.5 -10.85 -6.65 -10.2 -8.3 -13.0 -14.85 -8.65 -13.85 -5.05 -13.75 -2.2 -14.9 -2.0 -16.45 -3.15 -18.55 -5.05 -19.65 -3.95 -20.55 -6.7 -19.3 -7.9 Q-15.15 -8.1 -14.2 -10.6 L-13.0 -14.1 -12.55 -14.55 -12.55 -15.95 M22.9 -7.9 L27.05 -8.15 28.2 -9.6 Q27.7 -11.4 28.5 -13.1 29.2 -14.55 30.85 -14.85 L32.15 -14.85 31.8 -12.9 Q30.9 -8.9 28.4 -5.4 L27.8 -5.65 Q25.5 -6.3 23.45 -4.75 L21.6 -3.1 21.6 -0.45 26.55 -0.6 27.15 0.35 24.65 4.0 24.1 4.8 21.9 5.45 20.6 2.05 18.2 2.15 16.0 2.2 15.9 1.4 16.5 0.2 18.5 -2.05 16.95 -3.9 16.1 -2.7 11.9 -4.6 13.35 -6.05 13.35 -8.0 14.9 -8.5 Q16.2 -5.4 19.55 -5.45 L20.45 -5.65 22.9 -7.9 M-29.55 3.35 Q-29.25 -1.45 -33.2 -5.7 -29.3 -5.8 -26.0 -7.75 L-25.95 -7.5 Q-27.65 -6.7 -27.65 -4.0 -27.65 -3.05 -27.0 -1.95 -25.95 -0.1 -23.65 -0.1 L-23.5 -0.1 -23.85 0.25 -22.95 2.5 -23.8 2.95 -24.55 3.5 Q-25.8 4.5 -26.5 5.95 L-27.0 5.25 Q-27.0 4.45 -27.75 3.9 -28.5 3.35 -29.55 3.35 M-29.8 12.4 L-29.15 12.4 Q-27.55 12.4 -26.65 10.65 -26.0 9.35 -26.0 8.3 L-26.05 7.4 -22.5 8.15 -27.45 13.05 -26.5 16.15 -29.8 12.4" fill="#6e2a41" fill-rule="evenodd" stroke="none"/>
      <path d="M13.05 -13.45 L15.3 -12.0 Q17.75 -15.15 21.35 -12.85 22.45 -12.15 22.6 -10.8 L22.0 -8.85 Q18.6 -7.45 15.5 -9.7 L14.9 -8.5 13.35 -8.0 13.35 -6.05 11.9 -4.6 Q10.15 -5.4 8.35 -6.25 L8.15 -8.25 11.15 -8.85 11.15 -13.1 13.05 -13.45 M27.15 0.35 L30.35 -2.55 30.85 0.05 25.35 4.2 24.65 4.0 27.15 0.35 M-32.85 4.6 Q-31.9 3.35 -30.3 3.25 L-29.55 3.35 Q-28.5 3.35 -27.75 3.9 -27.0 4.45 -27.0 5.25 -27.1 7.85 -28.05 9.3 -29.0 10.75 -30.2 10.5 -31.45 10.25 -32.2 8.45 -32.95 6.6 -32.85 4.6 M-1.35 -6.85 L1.65 -5.7 3.4 -4.75 Q-6.25 -4.15 -13.95 2.2 L-14.0 1.4 -6.5 -5.5 -1.35 -6.85 M-6.5 -5.65 L-20.9 2.45 -16.45 -3.15 -14.9 -2.0 -13.75 -2.2 -13.85 -5.05 Q-9.1 -7.9 -4.25 -7.45 L-6.5 -5.65 M18.2 2.15 L18.6 2.8 Q12.65 2.55 9.3 -2.75 L8.9 -3.7 Q13.35 -2.7 16.5 0.2 L15.9 1.4 16.0 2.2 18.2 2.15 M21.9 5.45 L24.1 4.8 Q27.05 5.55 26.5 8.5 L26.35 9.15 Q23.35 10.75 21.15 8.2 L21.5 5.55 21.9 5.45 M17.05 8.45 L15.65 8.65 15.9 5.2 17.05 8.45 M15.3 12.55 L17.95 13.4 17.8 17.6 15.9 17.6 17.35 19.75 Q16.15 24.15 12.9 28.2 L12.5 28.4 14.1 20.35 7.45 27.1 8.35 28.4 Q-2.95 34.55 -13.25 26.2 L2.1 28.2 2.8 27.75 1.1 27.45 Q7.05 26.1 10.15 20.55 L9.05 20.95 Q6.45 21.45 4.4 20.2 L11.45 18.8 15.05 15.3 15.3 12.55 M18.15 22.15 Q19.85 20.8 21.8 21.05 L23.0 21.2 22.65 24.15 18.85 25.2 17.8 24.3 18.15 22.15 M11.85 9.15 L11.8 9.0 11.5 7.15 Q10.75 3.35 8.7 0.3 12.85 3.7 11.85 8.95 L11.85 9.15 M-24.95 -7.3 Q-24.0 -7.3 -23.3 -6.6 -22.65 -5.9 -22.65 -4.95 -22.65 -4.0 -23.3 -3.3 -24.0 -2.6 -24.95 -2.6 -25.9 -2.6 -26.55 -3.3 -27.25 -4.0 -27.25 -4.95 -27.25 -5.9 -26.55 -6.6 -25.9 -7.3 -24.95 -7.3 M-20.95 18.8 Q-22.2 16.6 -22.75 13.7 L-22.15 13.45 -15.9 21.5 Q-20.55 14.0 -16.5 6.2 L-15.4 10.5 -14.45 10.4 Q-13.8 4.7 -8.4 3.45 -14.25 8.0 -10.75 14.4 L-11.45 15.5 -13.2 15.9 Q-10.9 19.05 -11.3 22.85 L-10.9 23.4 -11.0 24.5 Q-17.6 23.9 -20.6 19.4 L-20.7 19.0 -20.95 18.8 M-5.4 23.65 Q-0.4 21.9 3.55 23.75 -0.45 26.65 -4.5 24.2 L-5.4 23.65" fill="#ff0000" fill-rule="evenodd" stroke="none"/>
      <path d="M-23.1 25.75 L-23.5 25.5 -23.75 25.3 -25.15 20.65 -20.6 19.4 Q-17.6 23.9 -11.0 24.5 L-10.9 23.4 -11.3 22.85 Q-10.9 19.05 -13.2 15.9 L-11.45 15.5 -10.75 14.4 Q-14.25 8.0 -8.4 3.45 -13.8 4.7 -14.45 10.4 L-15.4 10.5 -16.5 6.2 Q-20.55 14.0 -15.9 21.5 L-22.15 13.45 -22.75 13.7 Q-22.2 16.6 -20.95 18.8 L-26.5 16.15 -27.45 13.05 -22.5 8.15 -26.05 7.4 -26.0 8.3 Q-26.0 9.35 -26.65 10.65 -27.55 12.4 -29.15 12.4 L-29.8 12.4 -31.2 11.95 -32.45 10.9 -33.05 9.7 Q-33.5 8.35 -33.4 7.05 -33.4 5.45 -32.85 4.6 -32.95 6.6 -32.2 8.45 -31.45 10.25 -30.2 10.5 -29.0 10.75 -28.05 9.3 -27.1 7.85 -27.0 5.25 L-26.5 5.95 Q-25.8 4.5 -24.55 3.5 L-23.8 2.95 -22.95 2.5 -23.85 0.25 -23.5 -0.1 -23.65 -0.1 Q-25.95 -0.1 -27.0 -1.95 -27.65 -3.05 -27.65 -4.0 -27.65 -6.7 -25.95 -7.5 L-26.0 -7.75 -26.0 -7.9 -25.95 -8.65 -19.3 -7.9 -20.55 -6.7 -19.65 -3.95 -18.55 -5.05 -16.45 -3.15 -20.9 2.45 -6.5 -5.65 -6.5 -5.5 -14.0 1.4 -13.95 2.2 Q-6.25 -4.15 3.4 -4.75 L1.65 -5.7 -1.35 -6.85 Q0.1 -6.65 1.4 -6.85 4.1 -7.35 6.0 -9.4 L7.0 -6.85 8.35 -6.25 Q10.15 -5.4 11.9 -4.6 L16.1 -2.7 16.95 -3.9 18.5 -2.05 16.5 0.2 Q13.35 -2.7 8.9 -3.7 L9.3 -2.75 Q12.65 2.55 18.6 2.8 L18.2 2.15 20.6 2.05 21.9 5.45 21.5 5.55 21.15 8.2 Q23.35 10.75 26.35 9.15 L26.5 8.5 Q27.05 5.55 24.1 4.8 L24.65 4.0 25.35 4.2 30.85 0.05 Q30.5 2.9 27.95 4.55 L26.7 5.3 27.75 6.5 26.95 10.3 Q23.65 12.45 20.55 10.1 L21.05 7.75 Q19.8 8.45 17.05 8.45 L15.9 5.2 15.65 8.65 13.2 10.25 13.2 11.2 11.95 12.4 15.3 12.55 15.05 15.3 11.45 18.8 4.4 20.2 Q6.45 21.45 9.05 20.95 L10.15 20.55 Q7.05 26.1 1.1 27.45 L2.8 27.75 2.1 28.2 -13.25 26.2 Q-2.95 34.55 8.35 28.4 L7.45 27.1 14.1 20.35 12.5 28.4 5.05 31.9 4.75 31.9 3.1 32.15 2.2 32.0 -2.65 31.75 Q-11.25 30.85 -15.1 29.5 L-21.35 26.45 -22.05 26.1 -23.1 25.75 M22.6 -10.8 Q23.4 -9.3 22.9 -7.9 L20.45 -5.65 19.55 -5.45 Q16.2 -5.4 14.9 -8.5 L15.5 -9.7 Q18.6 -7.45 22.0 -8.85 L22.6 -10.8 M-13.0 -14.1 Q-12.6 -15.4 -12.55 -15.95 L-12.55 -14.55 -13.0 -14.1 M17.95 13.4 L22.65 16.15 22.15 17.95 17.8 17.6 17.95 13.4 M17.35 19.75 L18.15 22.15 17.8 24.3 12.9 28.2 Q16.15 24.15 17.35 19.75 M11.85 9.15 L11.85 8.95 Q12.85 3.7 8.7 0.3 10.75 3.35 11.5 7.15 L11.8 9.0 11.85 9.15 M3.75 5.1 Q-1.15 2.95 -5.1 6.3 -6.95 7.95 -5.65 10.25 L-3.25 13.7 Q0.55 16.3 4.1 13.45 4.8 12.9 5.15 12.05 5.7 10.75 5.65 9.25 6.05 9.05 6.4 10.9 6.65 12.05 6.0 12.95 4.7 15.0 4.8 17.25 6.65 16.55 8.25 14.65 9.55 13.1 9.35 11.0 9.2 9.4 8.45 8.2 L7.3 6.75 Q5.1 4.65 2.9 3.2 L2.9 3.55 3.75 5.1 M-24.95 -7.3 Q-25.9 -7.3 -26.55 -6.6 -27.25 -5.9 -27.25 -4.95 -27.25 -4.0 -26.55 -3.3 -25.9 -2.6 -24.95 -2.6 -24.0 -2.6 -23.3 -3.3 -22.65 -4.0 -22.65 -4.95 -22.65 -5.9 -23.3 -6.6 -24.0 -7.3 -24.95 -7.3 M-13.85 -5.05 L-14.85 -8.65 -8.3 -13.0 -6.65 -10.2 -5.5 -10.85 -4.25 -13.3 -2.9 -13.4 -0.65 -9.7 -4.25 -7.45 Q-9.1 -7.9 -13.85 -5.05 M-1.7 16.9 Q-1.7 15.45 -2.7 14.45 -3.75 13.4 -5.2 13.4 -6.65 13.4 -7.65 14.45 -8.7 15.45 -8.7 16.9 -8.7 18.35 -7.65 19.4 -6.65 20.4 -5.2 20.4 -3.75 20.4 -2.7 19.4 -1.7 18.35 -1.7 16.9 M-5.4 23.65 L-4.5 24.2 Q-0.45 26.65 3.55 23.75 -0.4 21.9 -5.4 23.65" fill="#990000" fill-rule="evenodd" stroke="none"/>
      <path d="M3.75 5.1 L2.9 3.55 2.9 3.2 Q5.1 4.65 7.3 6.75 L8.45 8.2 Q9.2 9.4 9.35 11.0 9.55 13.1 8.25 14.65 6.65 16.55 4.8 17.25 4.7 15.0 6.0 12.95 6.65 12.05 6.4 10.9 6.05 9.05 5.65 9.25 5.7 10.75 5.15 12.05 4.8 12.9 4.1 13.45 0.55 16.3 -3.25 13.7 L-5.65 10.25 Q-6.95 7.95 -5.1 6.3 -1.15 2.95 3.75 5.1 M-1.7 16.9 Q-1.7 18.35 -2.7 19.4 -3.75 20.4 -5.2 20.4 -6.65 20.4 -7.65 19.4 -8.7 18.35 -8.7 16.9 -8.7 15.45 -7.65 14.45 -6.65 13.4 -5.2 13.4 -3.75 13.4 -2.7 14.45 -1.7 15.45 -1.7 16.9" fill="#650101" fill-rule="evenodd" stroke="none"/>
    </g>
  </defs>
</svg>
