<?xml version="1.0" encoding="UTF-8" standalone="no"?>
<svg xmlns:ffdec="https://www.free-decompiler.com/flash" xmlns:xlink="http://www.w3.org/1999/xlink" ffdec:objectType="frame" height="147.15px" width="100.35px" xmlns="http://www.w3.org/2000/svg">
  <g transform="matrix(1.0, 0.0, 0.0, 1.0, 49.1, 86.8)">
    <use ffdec:characterId="1143" height="106.0" transform="matrix(1.0, 0.0, 0.0, 1.0, -41.5, -47.15)" width="80.25" xlink:href="#shape0"/>
    <use ffdec:characterId="1138" height="0.0" id="spineRef" transform="matrix(1.0, 0.0, 0.0, 1.0, 8.85, -47.9)" width="0.0" xlink:href="#sprite0"/>
  </g>
  <defs>
    <g id="shape0" transform="matrix(1.0, 0.0, 0.0, 1.0, 41.5, 47.15)">
      <path d="M34.8 22.1 L34.75 22.15 Q34.55 22.35 34.55 22.9 L34.85 23.5 35.0 23.75 Q34.0 24.45 33.75 25.4 L33.55 26.15 32.75 28.05 32.1 29.05 Q31.35 30.05 30.4 30.6 L29.55 31.0 27.45 31.3 25.55 31.05 25.5 31.0 25.55 31.05 26.8 31.45 27.2 31.6 27.35 31.65 27.85 31.85 28.2 31.95 29.65 32.25 30.65 32.3 30.85 32.3 32.5 32.25 32.5 33.4 32.4 35.4 32.35 36.5 32.15 36.95 31.1 37.5 29.7 38.05 28.05 38.65 27.1 38.9 24.35 39.5 23.5 38.9 23.1 38.6 22.45 38.2 22.15 38.0 22.1 37.95 21.65 37.7 19.95 36.55 16.9 34.45 15.65 33.5 14.8 32.85 Q13.9 32.25 12.6 31.55 L12.25 31.35 10.2 30.15 17.5 33.75 Q16.05 31.5 13.65 30.2 L13.15 29.9 11.8 29.2 8.3 27.55 7.95 27.4 7.05 27.0 5.95 26.5 5.1 26.2 4.3 26.6 4.15 27.6 1.85 27.85 1.75 27.85 2.1 28.2 3.5 28.9 4.3 29.1 4.4 29.15 Q4.5 30.1 9.5 33.15 L11.85 34.55 12.15 34.7 14.4 35.95 14.9 36.25 18.8 38.35 19.4 38.65 20.4 39.2 20.6 39.3 21.0 39.5 Q20.0 39.85 19.1 40.85 L18.5 41.4 17.95 41.7 14.4 42.25 14.5 42.55 Q11.3 40.75 9.65 39.35 8.4 38.3 5.7 36.5 7.6 37.4 9.6 38.1 L12.95 39.0 16.5 39.75 16.4 39.55 16.25 39.5 Q15.35 38.9 14.0 37.35 L13.0 36.05 12.0 34.7 11.15 34.65 9.7 34.55 8.5 34.5 8.35 34.55 Q7.85 34.6 7.0 35.25 6.0 36.0 5.5 36.0 L4.85 35.9 3.35 34.9 3.1 34.7 2.45 34.25 2.3 34.1 2.25 34.05 2.55 34.1 3.0 34.1 3.55 34.0 3.0 33.75 2.8 33.55 1.45 32.05 1.3 31.9 1.0 31.65 -0.2 31.25 -0.55 31.25 -1.7 31.2 -3.4 31.8 -1.8 28.05 -1.7 27.85 -1.2 27.0 -0.75 26.2 -0.7 26.2 -0.5 26.15 3.0 26.0 3.15 26.0 3.8 25.9 4.3 25.7 5.0 25.3 5.25 25.1 5.35 25.0 Q6.75 24.0 7.6 24.0 L7.8 24.0 8.15 24.0 9.0 24.1 9.65 24.15 10.2 24.3 10.25 24.3 10.55 24.4 13.25 25.75 Q16.3 27.25 18.35 27.25 L18.45 27.25 Q19.5 27.15 20.45 24.95 L20.5 24.8 20.75 24.05 21.75 25.5 21.75 25.55 21.85 25.7 22.25 26.45 23.0 27.55 Q23.9 28.65 24.75 28.65 L25.55 28.4 Q25.9 28.2 26.2 28.15 L26.35 28.1 26.75 28.3 27.1 28.6 27.35 28.8 28.05 29.35 28.65 28.4 29.2 27.5 29.5 26.9 29.95 24.45 30.0 24.3 30.2 22.3 30.25 21.85 Q30.45 20.55 31.3 19.5 L32.1 18.65 32.35 18.45 32.9 18.1 Q33.45 17.9 33.6 18.7 L33.6 19.15 33.85 19.75 34.4 21.0 34.5 21.15 34.85 22.05 34.8 22.1 M13.45 45.15 Q11.95 46.5 9.25 46.5 7.15 46.5 6.7 45.75 L6.5 44.6 5.35 44.9 4.35 44.6 Q3.8 44.25 3.5 44.25 L0.65 44.4 -1.75 51.25 -2.15 52.0 Q-2.35 49.45 -4.85 48.85 L-5.85 48.5 Q-3.45 48.1 -1.95 46.05 L-1.5 47.25 -0.1 44.25 -1.65 42.5 -1.15 41.15 Q-2.5 38.7 -5.85 39.75 L-4.85 40.35 Q-4.85 41.65 -4.4 42.8 -3.7 44.45 -2.05 45.75 L-7.2 48.6 -11.65 46.9 -13.4 48.1 -19.0 51.35 -21.15 47.7 -23.2 46.6 -22.5 46.7 Q-21.3 46.7 -20.35 46.1 L-16.75 46.7 -15.45 44.9 -15.6 43.7 Q-11.85 44.35 -8.75 46.0 L-7.85 44.45 -8.75 43.5 -9.75 44.25 -13.9 41.85 -11.75 38.8 -12.75 37.65 -11.0 36.5 -12.8 36.85 -13.2 36.4 -15.05 36.25 -14.25 35.3 -14.5 34.7 Q-15.55 32.75 -17.75 32.0 L-22.0 33.0 Q-20.6 34.05 -18.9 34.1 L-18.0 34.0 -17.45 34.85 -16.25 35.4 -17.4 36.35 -17.7 36.25 -19.6 35.55 -20.65 35.4 -22.9 35.6 Q-23.45 35.75 -23.95 36.05 L-24.85 36.6 -24.95 36.7 -25.05 36.75 -24.95 36.7 -24.85 36.65 -23.6 35.95 -25.75 39.35 -25.05 40.9 -20.15 38.65 -19.7 38.25 -19.75 37.75 -18.05 38.35 -17.0 37.25 -17.0 37.9 -15.65 38.0 -15.9 39.35 -14.75 41.25 -17.35 41.35 Q-18.6 41.65 -19.8 42.25 L-17.1 43.2 -24.7 45.3 Q-25.45 44.5 -25.5 43.75 -25.55 43.0 -25.95 42.5 -26.4 41.95 -27.1 41.65 L-27.2 41.6 -27.9 41.3 -29.8 40.15 -31.2 38.5 -30.4 38.4 -29.15 36.35 -28.45 36.05 -27.6 35.4 -27.1 34.25 -22.55 32.95 -24.8 32.55 -26.8 33.8 -26.65 33.4 -26.6 33.3 -26.65 33.35 -27.7 33.75 -28.55 34.05 Q-29.6 34.4 -30.55 35.0 L-31.55 35.65 -31.65 35.7 Q-31.7 35.0 -33.55 32.5 L-34.15 31.75 -34.5 31.35 -34.55 31.3 -34.65 31.2 -35.5 30.35 -35.35 30.1 -35.2 30.05 -34.65 29.7 -33.65 29.25 -32.0 28.85 Q-31.3 28.85 -30.95 29.75 L-30.9 29.8 -30.85 30.0 Q-30.45 31.1 -30.0 31.1 L-27.9 30.75 -25.8 29.6 -25.15 29.1 -24.45 28.55 -24.4 28.45 -24.35 28.45 -24.15 28.3 Q-24.6 27.35 -24.7 26.25 -23.2 25.15 -21.8 24.65 L-19.1 22.7 -20.0 22.75 -20.45 22.7 Q-21.15 22.5 -21.25 21.5 L-21.25 21.45 -21.25 21.0 -21.3 20.75 -22.1 21.05 -22.65 21.15 -23.0 21.15 Q-24.05 21.15 -24.15 20.15 L-24.15 19.8 -23.95 18.75 -21.5 18.9 -21.0 19.55 Q-20.15 20.8 -18.85 20.9 L-17.6 20.7 -17.4 20.45 -17.15 20.0 Q-16.95 19.45 -17.0 18.8 L-17.1 18.35 -17.4 17.45 -17.65 17.05 Q-17.1 17.45 -16.75 18.3 L-16.65 18.5 -16.3 19.9 -15.85 19.2 -15.25 18.3 Q-14.4 16.95 -14.4 16.25 L-14.65 14.9 -14.8 14.4 -14.85 14.25 -14.9 14.0 Q-15.25 12.85 -15.25 11.4 L-15.3 11.3 -15.45 11.1 -16.4 9.2 -16.35 8.3 -16.1 7.45 Q-15.65 6.4 -14.35 6.85 L-14.05 7.0 -13.95 7.05 -15.8 7.55 -14.0 12.25 -13.7 11.2 -13.7 11.15 -12.9 8.1 -12.8 8.3 Q-12.3 9.3 -12.3 10.95 L-12.3 11.0 -12.35 11.4 -13.05 13.25 -13.35 14.0 -13.5 14.5 -13.75 15.4 -13.9 15.2 -13.95 15.4 -15.05 18.25 -15.15 18.55 -15.25 18.75 -15.5 19.05 Q-17.6 21.7 -18.05 25.0 L-14.9 21.65 -14.2 20.8 Q-13.5 19.75 -13.2 18.45 L-13.05 17.6 -13.0 17.4 -12.85 17.85 Q-12.4 19.0 -12.4 19.5 L-12.85 21.35 Q-13.25 22.8 -13.3 24.15 -13.95 26.5 -15.9 28.4 L-12.15 25.85 -11.45 25.25 -9.9 26.2 -9.75 26.25 Q-8.95 26.5 -8.35 26.85 -7.6 27.25 -7.15 27.9 L-6.95 28.2 -6.55 29.3 -6.95 30.35 Q-6.95 29.8 -7.3 29.4 L-7.45 29.25 Q-7.95 28.75 -8.65 28.75 -9.9 28.1 -11.55 28.05 L-12.3 28.05 -14.8 28.35 -12.8 29.9 -11.1 31.05 -11.0 31.1 -10.45 31.55 -8.3 32.3 -7.6 32.2 -9.8 37.0 -5.7 34.7 -4.9 36.5 -4.25 35.75 -3.65 36.0 -3.1 35.7 -3.75 34.75 -2.8 34.1 -0.95 36.45 1.55 38.25 2.75 39.05 7.8 42.25 9.4 43.15 13.45 45.15 M-5.1 55.7 Q-6.0 56.45 -7.0 56.9 L-6.55 55.35 -5.1 55.7 M-13.0 55.75 L-13.2 55.3 -13.85 55.35 Q-15.85 55.35 -18.05 52.6 L-12.85 52.9 -12.1 52.4 Q-10.35 51.95 -9.05 50.6 L-8.45 49.9 -4.4 51.55 -5.8 53.85 Q-8.1 53.8 -9.6 55.0 L-13.0 55.75 M25.25 5.7 L25.25 6.05 25.0 6.85 25.0 6.9 24.75 7.65 24.8 7.85 25.6 8.4 25.4 8.9 Q25.4 9.2 26.75 10.05 28.1 10.9 28.75 10.9 L29.35 10.35 29.5 9.7 29.75 10.3 Q29.75 10.95 29.15 11.95 L29.05 12.1 Q28.35 13.3 27.75 13.3 27.1 13.3 22.25 6.65 22.25 6.0 22.5 5.6 L22.85 5.25 22.9 5.9 Q23.15 6.8 23.75 6.8 L24.75 6.5 25.25 5.7 M10.1 13.2 L11.1 14.15 10.95 14.2 10.1 13.2 M18.55 14.05 Q18.5 14.95 18.25 15.25 17.8 15.85 16.25 15.85 14.15 15.85 13.6 16.85 13.0 17.9 10.65 18.0 L10.05 18.05 Q8.8 18.2 8.35 18.75 L7.9 19.05 7.55 19.2 6.95 19.3 6.3 19.35 6.2 19.35 6.05 19.35 6.0 19.35 4.65 19.25 Q4.55 19.3 4.55 18.75 L4.55 18.65 4.65 18.5 5.55 17.5 Q6.6 16.5 7.05 16.35 6.55 15.9 6.5 15.25 L6.5 14.1 Q4.75 14.05 4.1 13.55 L3.95 13.4 Q3.65 13.1 3.65 12.15 3.65 11.25 3.9 11.0 L4.1 10.9 Q3.8 11.15 3.8 11.65 3.8 11.9 4.15 12.4 L4.75 13.1 6.4 12.6 7.1 12.45 7.4 12.4 7.5 12.35 8.45 13.1 9.25 13.85 Q8.5 14.3 8.45 14.9 L8.55 15.9 9.65 15.8 9.95 15.55 10.5 15.4 Q12.4 14.95 14.55 13.4 L16.4 13.95 17.75 14.5 18.55 14.05 M-2.25 15.75 Q-2.0 16.1 -2.0 16.55 L-2.1 18.25 Q-2.55 19.9 -4.25 19.9 -6.05 19.9 -7.1 18.9 L-7.15 18.85 -7.6 18.3 -7.85 17.65 -7.85 17.6 Q-7.85 16.1 -7.35 15.3 L-7.05 14.9 -7.15 15.35 -7.15 15.45 -6.9 16.45 Q-6.55 17.2 -5.5 17.35 L-3.5 17.35 -2.5 16.5 -2.25 15.75 M-20.4 17.0 L-19.0 16.6 -18.15 16.75 -20.4 17.0 M-29.1 14.35 L-24.0 17.05 -24.05 17.25 -24.0 17.25 -23.75 17.15 -24.1 17.6 Q-24.45 17.1 -25.3 17.15 L-27.0 17.5 -28.25 17.25 Q-28.85 16.85 -29.05 16.1 L-29.15 14.7 -29.1 14.35 M-34.9 22.9 Q-35.5 22.45 -35.75 21.7 -36.3 20.25 -35.45 18.7 L-35.0 21.0 -32.55 21.15 -30.8 23.5 -31.4 24.4 -29.0 26.35 -28.55 26.25 -28.05 25.0 -27.95 26.45 -27.9 26.9 -27.75 28.7 -30.4 28.8 -31.5 27.9 -31.6 27.4 -31.65 27.05 -31.7 26.55 -31.9 25.5 Q-32.05 24.9 -32.35 24.5 -32.85 23.8 -33.8 23.45 L-34.9 22.9 M-22.3 26.2 L-22.35 26.2 -21.7 27.4 -22.3 26.2 M-10.7 48.7 L-11.45 48.85 -11.65 48.4 -10.7 48.7 M16.25 28.65 L16.05 28.65 Q16.4 30.85 19.25 32.25 L20.7 32.85 21.45 33.05 21.75 33.15 22.15 33.25 24.75 34.05 24.8 34.05 26.6 34.6 27.0 34.7 29.0 35.3 29.35 35.4 29.6 35.5 30.5 35.75 30.5 35.6 29.2 34.85 26.55 33.5 23.7 32.05 23.45 31.9 22.8 31.55 22.65 31.45 22.5 31.35 20.0 30.3 18.85 29.9 Q16.45 29.1 16.25 28.65" fill="#990000" fill-rule="evenodd" stroke="none"/>
      <path d="M35.0 23.75 L35.35 24.25 34.5 26.0 35.35 27.5 34.2 34.85 35.7 36.5 35.65 37.15 34.6 37.9 Q31.35 40.2 27.4 40.9 L26.4 41.0 24.35 39.5 27.1 38.9 28.05 38.65 29.7 38.05 31.1 37.5 32.15 36.95 32.35 36.5 32.4 35.4 32.5 33.4 32.5 32.25 30.85 32.3 30.65 32.3 29.65 32.25 28.2 31.95 27.85 31.85 27.35 31.65 27.2 31.6 26.8 31.45 25.55 31.05 25.5 31.0 25.55 31.05 27.45 31.3 29.55 31.0 30.4 30.6 Q31.35 30.05 32.1 29.05 L32.75 28.05 33.55 26.15 33.75 25.4 Q34.0 24.45 35.0 23.75 M-2.15 52.0 L-2.55 52.8 Q-3.45 54.5 -5.1 55.7 L-6.55 55.35 -9.6 55.0 Q-8.1 53.8 -5.8 53.85 L-4.4 51.55 -8.45 49.9 -9.05 50.6 Q-10.35 51.95 -12.1 52.4 L-13.55 52.4 -12.55 51.3 -12.5 50.65 -10.2 48.85 -10.7 48.7 -11.65 48.4 -13.4 48.1 -11.65 46.9 -7.2 48.6 -2.05 45.75 Q-3.7 44.45 -4.4 42.8 -4.85 41.65 -4.85 40.35 L-5.85 39.75 Q-2.5 38.7 -1.15 41.15 L-1.65 42.5 -0.1 44.25 -1.5 47.25 -1.95 46.05 Q-3.45 48.1 -5.85 48.5 L-4.85 48.85 Q-2.35 49.45 -2.15 52.0 M-31.2 38.5 L-31.6 38.25 -31.75 37.65 -31.65 35.7 -31.55 35.65 -30.55 35.0 Q-29.6 34.4 -28.55 34.05 L-27.7 33.75 -26.65 33.35 -26.6 33.3 -26.65 33.4 -26.8 33.8 -24.8 32.55 -22.55 32.95 -27.1 34.25 -27.6 35.4 -28.45 36.05 -29.15 36.35 -30.4 38.4 -31.2 38.5 M23.55 4.35 L24.05 4.3 Q25.25 4.3 25.25 5.4 L25.25 5.7 24.75 6.5 23.75 6.8 Q23.15 6.8 22.9 5.9 L22.85 5.25 22.8 5.15 Q22.8 4.55 23.55 4.35 M25.6 8.4 L25.9 8.25 26.95 8.15 27.25 8.15 Q29.15 8.15 29.5 9.5 L29.5 9.7 29.35 10.35 28.75 10.9 Q28.1 10.9 26.75 10.05 25.4 9.2 25.4 8.9 L25.6 8.4 M8.25 11.35 L10.1 13.2 10.95 14.2 11.1 14.15 Q12.6 13.1 14.15 12.4 18.75 10.35 18.75 13.5 L18.55 14.05 17.75 14.5 16.4 13.95 14.55 13.4 Q12.4 14.95 10.5 15.4 L9.95 15.55 9.65 15.8 8.55 15.9 8.45 14.9 Q8.5 14.3 9.25 13.85 L8.45 13.1 7.5 12.35 7.4 12.4 7.1 12.45 6.4 12.6 4.75 13.1 4.15 12.4 Q3.8 11.9 3.8 11.65 3.8 11.15 4.1 10.9 L4.3 10.75 4.8 10.6 5.7 10.55 6.3 10.65 Q7.5 10.8 8.25 11.35 M-2.75 14.65 Q-2.25 15.1 -2.25 15.55 L-2.25 15.75 -2.5 16.5 -3.5 17.35 -5.5 17.35 Q-6.55 17.2 -6.9 16.45 L-7.15 15.45 -7.15 15.35 -7.05 14.9 -7.0 14.9 -6.65 14.55 -6.4 14.5 -5.45 14.4 -3.5 14.25 -3.25 14.25 -2.75 14.65 M-17.65 17.05 L-17.4 17.45 -17.1 18.35 -17.0 18.8 Q-16.95 19.45 -17.15 20.0 L-17.4 20.45 -17.6 20.7 -18.85 20.9 Q-20.15 20.8 -21.0 19.55 L-21.5 18.9 -23.95 18.75 -24.1 17.6 -23.75 17.15 -24.0 17.05 -29.1 14.35 -29.35 14.05 -29.4 13.75 Q-29.55 12.65 -28.8 11.9 L-28.35 11.85 -28.15 11.9 -27.15 12.1 -26.7 12.25 -25.55 12.95 Q-24.25 13.85 -23.4 15.25 L-23.25 15.45 -22.7 16.65 -22.55 17.05 -22.45 17.1 -21.0 17.4 -20.4 17.0 -18.15 16.75 -17.65 17.05 M-13.95 7.05 Q-13.5 7.05 -13.2 7.35 -12.9 7.65 -12.9 8.1 L-13.7 11.15 -13.7 11.2 -14.0 12.25 -15.8 7.55 -13.95 7.05 M-13.0 17.4 L-13.05 17.6 -13.2 18.45 Q-13.5 19.75 -14.2 20.8 L-14.9 21.65 -18.05 25.0 Q-17.6 21.7 -15.5 19.05 L-15.25 18.75 -15.15 18.55 -15.05 18.25 -13.95 15.4 -13.9 15.2 -13.75 15.4 -13.0 17.4 M-6.95 30.35 L-7.6 32.2 -8.3 32.3 -10.45 31.55 -11.0 31.1 -11.1 31.05 -12.8 29.9 -14.8 28.35 -12.3 28.05 -11.55 28.05 Q-9.9 28.1 -8.65 28.75 -7.95 28.75 -7.45 29.25 L-7.3 29.4 Q-6.95 29.8 -6.95 30.35 M-4.25 35.75 L-3.4 31.8 -1.7 31.2 -0.55 31.25 -0.2 31.25 1.0 31.65 1.3 31.9 1.45 32.05 2.8 33.55 3.0 33.75 3.55 34.0 3.0 34.1 2.55 34.1 2.25 34.05 1.75 33.95 0.6 33.55 0.5 33.5 0.2 33.4 -1.1 32.9 -2.8 34.1 -3.75 34.75 -3.1 35.7 -3.65 36.0 -4.25 35.75 M-35.45 18.7 L-34.95 17.4 -34.2 17.3 -33.15 17.75 Q-32.05 18.25 -31.45 19.15 -31.05 19.75 -30.9 20.6 L-30.85 20.75 -30.8 20.95 Q-30.65 21.7 -29.95 22.2 L-29.9 22.25 -29.5 22.45 -29.05 22.65 -28.8 22.75 Q-28.45 22.75 -28.2 23.35 L-28.1 23.65 Q-27.95 24.1 -27.95 24.7 L-28.05 25.0 -28.55 26.25 -29.0 26.35 -31.4 24.4 -30.8 23.5 -32.55 21.15 -35.0 21.0 -35.45 18.7 M-19.75 37.75 L-23.05 35.9 -23.6 35.95 -24.85 36.65 -24.95 36.7 -25.05 36.75 -24.95 36.7 -24.85 36.6 -23.95 36.05 Q-23.45 35.75 -22.9 35.6 L-20.65 35.4 -19.6 35.55 -17.7 36.25 -17.4 36.35 -16.25 35.4 -17.45 34.85 -18.0 34.0 -18.9 34.1 Q-20.6 34.05 -22.0 33.0 L-17.75 32.0 Q-15.55 32.75 -14.5 34.7 L-14.25 35.3 -15.05 36.25 -13.2 36.4 -12.8 36.85 -11.0 36.5 -12.75 37.65 -11.75 38.8 -13.9 41.85 -9.75 44.25 -8.75 43.5 -7.85 44.45 -8.75 46.0 Q-11.85 44.35 -15.6 43.7 L-17.1 43.2 -19.8 42.25 Q-18.6 41.65 -17.35 41.35 L-14.75 41.25 -15.9 39.35 -15.65 38.0 -17.0 37.9 -17.0 37.25 -18.05 38.35 -19.75 37.75 M4.85 35.9 L5.5 36.0 Q6.0 36.0 7.0 35.25 7.85 34.6 8.35 34.55 L8.5 34.5 9.7 34.55 11.15 34.65 12.0 34.7 13.0 36.05 14.0 37.35 Q15.35 38.9 16.25 39.5 L16.4 39.55 16.5 39.75 12.95 39.0 9.6 38.1 Q7.6 37.4 5.7 36.5 L4.85 35.9 M4.4 29.15 L4.3 29.1 3.5 28.9 2.1 28.2 1.75 27.85 1.85 27.85 4.15 27.6 4.3 26.6 5.1 26.2 5.95 26.5 7.05 27.0 7.95 27.4 8.3 27.55 11.8 29.2 13.15 29.9 13.65 30.2 Q16.05 31.5 17.5 33.75 L10.2 30.15 4.4 29.15" fill="#ff0000" fill-rule="evenodd" stroke="none"/>
      <path d="M26.4 41.0 L27.55 42.05 27.65 42.15 27.6 42.25 27.6 42.3 27.25 42.65 26.45 42.25 25.45 41.75 24.35 41.2 23.5 40.8 22.25 40.15 21.55 39.8 21.25 39.65 21.0 39.5 20.6 39.3 20.4 39.2 19.4 38.65 18.8 38.35 14.9 36.25 14.4 35.95 12.15 34.7 11.85 34.55 9.5 33.15 Q4.5 30.1 4.4 29.15 L10.2 30.15 12.25 31.35 12.6 31.55 Q13.9 32.25 14.8 32.85 L15.65 33.5 16.9 34.45 19.95 36.55 21.65 37.7 22.1 37.95 22.15 38.0 22.45 38.2 23.1 38.6 23.5 38.9 24.35 39.5 26.4 41.0 M14.5 42.55 L16.95 43.85 17.6 44.2 Q23.4 47.3 24.75 48.25 24.35 48.75 23.6 48.75 21.6 48.75 15.35 46.0 L13.45 45.15 9.4 43.15 7.8 42.25 2.75 39.05 1.55 38.25 -0.95 36.45 -2.8 34.1 -1.1 32.9 0.2 33.4 0.5 33.5 0.6 33.55 1.75 33.95 2.25 34.05 2.3 34.1 2.45 34.25 3.1 34.7 3.35 34.9 4.85 35.9 5.7 36.5 Q8.4 38.3 9.65 39.35 11.3 40.75 14.5 42.55 M-7.0 56.9 L-7.8 58.75 -9.35 58.85 Q-11.15 57.7 -13.4 58.35 L-15.75 58.4 -14.85 57.3 -13.0 55.75 -9.6 55.0 -6.55 55.35 -7.0 56.9 M-18.05 52.6 L-20.45 52.8 -19.0 51.35 -13.4 48.1 -11.65 48.4 -11.45 48.85 -10.7 48.7 -10.2 48.85 -12.5 50.65 -12.55 51.3 -13.55 52.4 -12.1 52.4 -12.85 52.9 -18.05 52.6 M-23.2 46.6 L-24.25 46.25 -24.7 45.3 -17.1 43.2 -15.6 43.7 -15.45 44.9 -16.75 46.7 -20.35 46.1 Q-21.3 46.7 -22.5 46.7 L-23.2 46.6 M-23.6 35.95 L-23.05 35.9 -19.75 37.75 -19.7 38.25 -20.15 38.65 -25.05 40.9 -25.75 39.35 -23.6 35.95 M16.25 28.65 Q16.45 29.1 18.85 29.9 L20.0 30.3 22.5 31.35 22.65 31.45 22.8 31.55 23.45 31.9 23.7 32.05 26.55 33.5 29.2 34.85 30.5 35.6 30.5 35.75 29.6 35.5 29.35 35.4 29.0 35.3 27.0 34.7 26.6 34.6 24.8 34.05 24.75 34.05 22.15 33.25 21.75 33.15 21.45 33.05 20.7 32.85 19.25 32.25 Q16.4 30.85 16.05 28.65 L16.25 28.65" fill="#ffffff" fill-rule="evenodd" stroke="none"/>
      <path d="M-27.1 41.65 L-28.05 41.6 -27.9 41.3 -27.2 41.6 -27.1 41.65" fill="#d7c9b5" fill-rule="evenodd" stroke="none"/>
      <path d="M-24.0 17.05 L-23.75 17.15 -24.0 17.25 -24.05 17.25 -24.0 17.05" fill="#bbaa91" fill-rule="evenodd" stroke="none"/>
      <path d="M-15.65 11.45 Q-15.5 11.3 -15.3 11.3 L-15.25 11.4 Q-15.25 12.85 -14.9 14.0 L-14.85 14.25 -15.25 14.25 -16.0 14.35 -16.25 12.75 Q-16.25 11.75 -15.65 11.45" fill="#aa5649" fill-rule="evenodd" stroke="none"/>
      <path d="M-16.45 -39.8 L-13.0 -42.55 -9.95 -44.25 -9.75 -44.35 -9.05 -46.0 -8.65 -47.15 -5.2 -47.15 Q-1.15 -46.9 4.85 -45.05 8.45 -43.95 9.9 -42.55 10.85 -41.6 10.9 -40.55 12.35 -40.1 13.9 -38.95 L14.7 -38.15 16.8 -36.25 19.85 -33.0 22.6 -26.9 Q24.35 -22.8 25.85 -20.5 28.05 -17.15 29.65 -8.6 31.0 -1.1 31.0 4.5 L31.2 7.2 31.3 9.15 31.35 9.65 32.55 10.85 Q33.85 12.0 34.9 12.1 33.4 12.3 33.9 16.15 34.0 17.05 34.8 18.55 L35.75 20.25 37.9 23.9 38.75 25.65 37.35 24.5 36.05 23.5 35.05 22.35 34.8 22.1 34.85 22.05 34.5 21.15 34.4 21.0 33.85 19.75 33.6 19.15 33.6 18.7 Q33.45 17.9 32.9 18.1 L32.8 16.95 32.75 16.05 32.65 15.05 Q32.6 14.45 32.0 13.75 31.75 14.25 31.6 15.2 L31.4 16.05 Q31.1 17.25 29.85 17.25 L29.4 17.25 28.1 15.45 Q27.2 14.55 25.85 13.85 L26.05 14.3 26.0 14.25 26.0 16.2 25.25 15.45 Q23.4 13.8 20.85 12.85 L20.15 14.15 22.2 15.45 Q24.0 16.8 25.4 18.6 L26.1 19.55 25.05 18.6 Q24.2 17.95 23.2 17.55 20.45 16.4 17.4 16.9 L24.35 21.35 21.9 20.25 Q17.5 18.4 12.9 19.35 L14.25 19.85 Q13.0 19.9 11.85 21.05 L11.3 20.2 10.75 19.3 10.05 18.05 10.65 18.0 Q13.0 17.9 13.6 16.85 14.15 15.85 16.25 15.85 17.8 15.85 18.25 15.25 18.5 14.95 18.55 14.05 L18.75 13.5 Q18.75 10.35 14.15 12.4 12.6 13.1 11.1 14.15 L10.1 13.2 8.25 11.35 11.6 6.85 11.4 9.5 11.45 10.8 11.65 12.1 Q13.35 11.0 14.25 9.45 L14.4 9.2 14.65 9.7 15.95 9.75 Q16.2 6.9 15.8 4.15 L15.9 3.65 16.15 4.05 Q17.05 6.5 18.8 8.5 L19.65 8.45 19.45 6.95 19.0 5.15 20.2 5.65 21.3 6.95 22.1 6.8 22.15 6.55 22.25 6.65 Q27.1 13.3 27.75 13.3 28.35 13.3 29.05 12.1 L29.15 11.95 Q29.75 10.95 29.75 10.3 L29.5 9.7 29.5 9.5 Q29.15 8.15 27.25 8.15 L26.95 8.15 25.9 8.25 25.6 8.4 24.8 7.85 25.45 7.75 25.0 6.9 25.0 6.85 25.25 6.05 25.25 5.7 25.25 5.4 Q25.25 4.3 24.05 4.3 L23.55 4.35 23.25 3.3 23.25 3.25 27.4 5.3 27.85 4.25 28.3 4.2 28.7 2.65 29.5 2.55 30.1 1.85 29.95 0.75 25.35 0.05 23.3 -0.1 22.3 -1.3 Q24.2 -2.5 23.9 -4.8 L23.75 -5.4 23.15 -5.45 22.95 -6.05 Q23.25 -8.1 21.6 -9.25 L21.3 -9.45 Q19.0 -11.05 16.3 -10.5 L14.85 -10.1 11.3 -7.95 10.6 -7.7 10.75 -5.25 10.9 -4.05 11.0 -3.55 9.7 -4.15 Q5.45 -5.25 2.25 -2.3 L1.85 -1.65 Q6.55 -1.4 11.0 -2.9 L11.1 -3.2 11.25 -2.65 9.7 -1.2 8.5 -1.2 5.05 1.0 4.9 1.15 4.75 0.75 Q4.2 -0.35 2.9 -0.8 -0.45 0.75 -1.45 4.35 L-0.85 5.55 0.0 5.4 1.15 3.15 4.6 1.5 4.45 1.65 Q3.3 2.85 3.15 4.4 L8.15 0.75 7.4 2.05 5.6 3.5 Q3.3 5.85 2.3 9.0 L3.35 9.2 7.6 6.45 4.0 9.2 3.95 10.05 4.2 10.4 4.8 10.6 4.3 10.75 4.1 10.9 3.9 11.0 Q3.65 11.25 3.65 12.15 3.65 13.1 3.95 13.4 L4.1 13.55 Q4.75 14.05 6.5 14.1 L6.5 15.25 Q6.55 15.9 7.05 16.35 6.6 16.5 5.55 17.5 L4.65 18.5 2.95 18.6 2.9 18.6 Q2.0 18.6 1.35 19.2 0.65 19.8 0.65 20.65 L-0.7 22.05 -1.55 21.5 -1.4 25.3 -1.35 25.4 -2.2 25.45 -2.5 25.0 -2.25 24.75 -2.7 23.9 -3.1 24.0 -3.75 22.75 -3.7 24.1 -5.55 24.5 -5.75 21.25 -6.45 21.85 -7.0 22.0 Q-8.55 22.0 -9.05 20.3 L-9.1 20.0 -8.6 20.85 -7.85 20.65 -7.15 18.85 -7.1 18.9 Q-6.05 19.9 -4.25 19.9 -2.55 19.9 -2.1 18.25 L-2.0 16.55 Q-2.0 16.1 -2.25 15.75 L-2.25 15.55 Q-2.25 15.1 -2.75 14.65 L-2.9 14.2 Q-4.35 10.4 -8.3 9.15 L-8.3 9.2 -9.15 8.65 Q-8.15 7.05 -8.3 4.75 L-9.4 3.4 -9.8 2.5 Q-11.45 -1.25 -15.6 -1.8 L-15.9 -1.9 -16.35 -2.8 -17.4 -2.55 Q-19.5 -1.85 -20.85 -0.35 L-21.45 0.25 -21.75 0.75 Q-22.05 0.75 -22.5 1.1 -23.8 2.0 -23.8 3.35 L-23.35 5.0 -25.0 6.0 -26.75 5.9 -26.05 5.35 Q-30.8 4.45 -33.45 8.85 L-34.75 9.35 -32.85 6.35 -33.65 6.2 -36.05 8.0 -35.9 6.7 -31.75 2.15 -31.75 1.55 -32.35 1.3 -35.6 2.9 -35.25 -0.4 -34.05 -5.45 -33.55 -7.8 Q-32.5 -13.2 -30.55 -18.3 L-29.3 -18.15 -29.1 -18.15 -28.8 -17.55 -27.25 -18.15 -29.25 -16.45 Q-30.1 -16.2 -30.9 -15.05 L-31.65 -14.45 -31.55 -14.0 -32.55 -11.65 Q-32.6 -9.65 -31.75 -9.65 L-31.45 -9.65 -31.55 -9.0 -29.25 -9.85 -29.05 -9.35 -29.35 -8.55 -29.4 -8.55 -29.4 -8.5 -30.1 -5.45 -30.2 -4.65 -29.35 -4.6 -28.5 -7.0 -28.5 -6.5 -27.5 -5.8 -26.55 -7.05 -25.65 -4.45 -25.2 -4.6 -24.9 -5.9 -22.4 -3.2 -21.55 -4.0 -21.7 -4.55 -20.5 -4.95 -20.15 -5.95 -19.0 -6.25 -19.7 -10.25 -17.6 -9.3 -16.9 -10.05 -14.7 -9.0 -14.3 -9.25 -16.75 -15.5 -13.55 -11.35 -12.3 -11.2 -11.9 -11.9 -16.1 -17.85 -16.75 -15.5 -18.45 -18.4 -18.8 -17.55 Q-18.95 -17.5 -19.05 -17.4 L-19.65 -16.85 -19.8 -17.05 -20.7 -16.1 -21.15 -16.15 -21.7 -15.4 -21.8 -15.75 -20.5 -17.9 -20.75 -18.95 -21.6 -18.85 -21.8 -19.1 -21.45 -19.55 -24.35 -19.75 -23.5 -20.55 -24.55 -20.75 Q-23.9 -22.1 -23.9 -23.9 -23.9 -25.3 -24.35 -26.25 L-24.45 -26.5 -24.5 -26.6 -25.1 -27.35 -25.8 -27.95 -26.9 -26.2 -27.25 -25.6 -26.0 -27.9 -25.55 -28.65 -25.0 -29.55 -24.65 -30.1 -25.0 -29.55 -25.05 -29.45 -22.6 -30.75 -22.3 -28.4 -20.5 -30.45 -20.1 -29.05 -21.55 -27.9 -21.55 -27.2 -20.45 -27.35 -19.7 -27.4 -19.2 -25.45 -18.85 -27.55 Q-16.55 -28.05 -14.7 -29.25 L-14.55 -30.05 -15.25 -30.6 -14.05 -31.8 -14.85 -31.85 -14.05 -32.5 -11.9 -31.65 -11.15 -32.05 -11.1 -32.9 -10.15 -33.25 -9.9 -33.8 -11.25 -35.6 -10.05 -36.75 -9.15 -36.0 Q-7.85 -34.95 -6.2 -34.55 L-5.75 -35.35 -6.0 -36.2 -5.15 -35.5 -4.25 -35.75 -4.0 -36.65 -2.5 -35.25 -1.8 -36.35 -1.05 -35.95 -0.25 -36.05 Q0.0 -37.45 -0.85 -38.7 -1.65 -39.8 -2.95 -40.05 L-3.6 -39.75 -6.0 -40.9 -6.65 -40.3 -8.1 -40.5 -8.75 -41.55 Q-12.1 -40.15 -14.5 -37.65 L-15.1 -37.85 -15.15 -38.4 -16.45 -39.8 M-36.85 32.0 L-36.95 32.1 -37.3 32.5 -38.15 33.6 -41.5 32.95 Q-38.85 30.5 -38.0 26.4 L-37.15 22.05 -37.05 20.3 -36.95 17.3 -36.9 15.7 -36.75 15.8 -36.0 16.0 -31.3 12.25 -31.55 11.3 -34.45 11.7 -31.15 8.6 -31.15 8.55 -28.0 7.75 -30.85 10.5 -30.25 11.4 -28.1 10.3 -28.0 10.35 -27.3 9.95 Q-27.9 10.75 -28.15 11.9 L-28.35 11.85 -28.8 11.9 Q-29.55 12.65 -29.4 13.75 L-30.35 15.45 Q-31.05 16.95 -31.35 18.6 L-31.45 19.15 Q-32.05 18.25 -33.15 17.75 L-34.2 17.3 -34.95 17.4 -35.45 18.7 Q-36.3 20.25 -35.75 21.7 -35.5 22.45 -34.9 22.9 L-36.1 24.4 -36.75 24.0 -37.0 24.25 -36.65 25.4 -36.9 25.95 -37.0 27.35 -37.4 27.8 -37.4 27.85 -37.5 28.5 -37.45 29.1 -37.35 29.7 -37.0 31.4 -36.85 32.0 M-19.0 -37.15 L-18.8 -37.35 -18.2 -37.3 -19.0 -37.15 M16.85 -30.55 Q14.55 -34.2 9.95 -34.5 L8.9 -34.1 8.7 -33.25 13.95 -31.15 12.6 -30.95 Q10.45 -32.6 7.45 -31.7 L7.15 -30.8 8.0 -29.9 9.4 -29.75 9.25 -29.0 11.25 -24.8 10.9 -24.9 Q10.4 -26.65 9.25 -28.15 L8.6 -28.9 7.75 -29.65 9.8 -22.55 8.9 -22.4 Q8.6 -25.65 6.3 -28.5 L6.15 -26.5 5.5 -27.15 Q4.7 -25.85 4.2 -24.45 3.65 -23.05 3.95 -21.7 L-0.7 -21.05 3.1 -24.0 1.75 -24.75 1.5 -25.35 1.0 -25.7 0.9 -27.1 -2.15 -26.3 -3.05 -25.9 Q-4.85 -24.9 -5.75 -23.05 L-4.9 -22.6 -1.85 -24.55 -5.2 -18.85 -4.4 -18.25 -3.4 -19.0 -4.75 -12.55 -4.25 -12.75 Q-1.6 -17.35 3.35 -19.65 L2.9 -18.75 Q1.0 -15.0 3.15 -11.3 L4.1 -14.4 4.7 -14.9 5.1 -17.2 6.25 -14.8 Q7.2 -12.75 9.3 -12.05 L6.35 -19.05 7.3 -19.9 7.75 -18.3 8.4 -18.65 10.05 -16.6 9.3 -15.75 9.35 -14.9 Q13.2 -13.55 16.9 -14.75 L16.7 -16.35 20.45 -15.05 20.5 -17.25 21.15 -17.5 21.45 -18.95 22.95 -18.55 22.95 -19.35 22.9 -20.15 22.7 -20.85 Q21.5 -23.5 19.3 -24.6 L19.3 -26.05 19.75 -26.25 Q19.65 -27.95 18.5 -29.2 17.75 -30.05 16.85 -30.55 M13.3 -30.35 L14.65 -29.5 13.9 -29.65 13.3 -30.35 M16.2 -25.4 L15.5 -25.45 15.5 -25.3 13.5 -27.1 16.2 -25.4 M14.05 -18.9 L13.3 -18.55 13.05 -17.5 12.25 -17.35 11.0 -19.5 14.0 -19.0 14.05 -18.9 M15.1 -34.25 Q13.55 -37.05 10.25 -37.4 L9.75 -36.05 Q12.15 -34.6 15.1 -34.25 M4.15 -21.7 L5.15 -23.4 5.1 -21.85 4.15 -21.7 M1.4 -5.55 L0.35 -5.1 -0.55 -4.5 -1.1 -3.95 -1.2 -3.2 8.8 -5.55 8.0 -6.55 3.45 -6.35 1.4 -5.55 M5.2 -8.75 L5.2 -9.2 Q4.55 -9.85 3.8 -9.6 -0.2 -9.6 -2.8 -7.05 L-2.25 -6.3 5.05 -8.55 5.2 -8.75 M13.0 0.35 L13.65 0.75 12.9 0.9 13.0 0.35 M-8.95 -39.8 L-9.0 -39.25 -7.8 -38.15 -9.55 -39.3 -8.95 -39.8 M-18.1 -32.25 L-17.9 -33.4 -17.6 -33.55 -17.3 -33.55 -17.15 -33.2 -17.8 -32.2 -18.1 -32.25 M-18.4 -30.35 L-18.2 -30.05 -18.45 -29.95 -18.4 -30.35 M-24.55 -16.0 L-23.05 -17.4 -24.2 -15.4 -25.5 -14.3 -25.7 -14.35 -26.65 -13.35 -27.8 -12.35 -24.55 -16.0 M-13.25 -18.75 L-14.05 -19.05 -14.65 -17.7 -13.8 -16.2 -13.25 -15.45 Q-12.3 -14.4 -10.9 -14.0 L-10.4 -14.0 -10.05 -14.25 Q-10.1 -15.6 -10.8 -16.6 -11.7 -18.05 -13.25 -18.75 M-23.15 6.6 L-23.15 6.7 -23.25 6.65 -23.15 6.6 M-23.2 6.85 L-23.2 7.15 -24.15 7.35 -23.85 7.15 -23.2 6.85 M-5.55 13.2 L-5.25 13.1 -5.5 12.8 -3.5 14.25 -5.45 14.4 -6.4 14.5 -6.65 14.55 -7.0 14.9 -7.05 14.9 -7.25 14.6 -6.9 14.05 -6.75 14.1 -5.75 13.7 -5.55 13.2 M-24.15 20.15 Q-24.05 21.15 -23.0 21.15 L-22.65 21.15 -23.6 22.55 -24.05 23.35 -24.5 23.25 -24.6 22.3 -24.75 21.75 -25.25 21.75 -25.35 22.95 -26.0 22.35 -26.1 22.3 -27.5 22.15 -27.75 21.45 -30.35 20.9 -30.8 20.95 -30.85 20.75 -30.9 20.6 -29.55 18.85 -29.1 20.75 -28.2 20.85 -27.65 19.45 -25.9 20.6 -24.65 20.6 -24.25 20.1 -24.15 20.15 M-16.75 14.55 L-17.0 14.7 -17.1 13.75 -16.75 14.55 M-20.6 13.75 L-20.85 13.85 -20.8 13.75 -20.3 13.05 -20.5 13.75 -20.6 13.75 M-25.85 2.85 L-25.65 2.4 -25.7 1.95 Q-30.35 1.3 -33.6 4.8 -34.05 5.3 -33.9 6.15 L-25.85 2.85 M-24.45 10.8 L-24.6 10.7 -24.3 10.5 -24.45 10.8 M-36.9 10.6 L-36.9 10.4 -36.8 10.55 -36.9 10.6 M20.75 24.05 L20.55 23.8 19.7 23.2 23.15 23.25 26.25 24.45 26.2 24.95 25.0 25.0 Q24.55 25.0 23.45 24.25 L23.1 23.95 22.45 23.45 22.4 23.6 21.85 25.7 21.75 25.55 21.75 25.5 20.75 24.05 M14.25 24.45 L14.35 24.8 14.35 24.85 14.4 24.95 14.4 25.0 14.25 24.95 13.6 23.95 14.15 24.0 14.25 24.45 M27.8 18.55 L27.95 18.75 28.35 19.7 27.8 18.6 27.8 18.55 M28.1 23.75 L27.85 24.15 27.9 23.0 28.3 23.2 28.2 23.4 28.1 23.75 M26.45 23.0 L26.2 22.8 26.2 22.75 26.1 22.7 25.1 21.85 26.6 22.5 26.45 23.0 M6.3 10.65 L5.7 10.55 6.85 9.7 6.3 10.65 M12.9 22.5 L12.7 22.5 12.3 21.8 14.7 21.8 12.9 22.5 M17.35 21.2 L17.0 20.9 17.7 21.2 17.35 21.2" fill="#242724" fill-rule="evenodd" stroke="none"/>
      <path d="M-21.55 -33.7 L-20.6 -35.05 -19.15 -35.45 -15.8 -35.25 -14.5 -34.8 -13.85 -34.25 -14.05 -33.5 -15.85 -33.55 -17.3 -33.55 -17.6 -33.55 -21.55 -33.7 M-15.1 -37.85 L-14.5 -37.65 -14.0 -37.25 Q-14.5 -36.7 -15.05 -36.35 L-15.45 -36.2 -17.75 -35.95 -18.25 -36.45 Q-17.9 -37.9 -16.5 -37.9 L-15.1 -37.85 M-14.85 -31.85 L-14.05 -31.8 -15.25 -30.6 -14.55 -30.05 -14.7 -29.25 Q-16.55 -28.05 -18.85 -27.55 L-19.7 -27.4 -20.45 -27.35 -21.55 -27.2 -21.55 -27.9 -20.1 -29.05 -19.3 -29.55 -19.15 -29.6 -18.45 -29.95 -18.2 -30.05 -17.6 -30.25 -18.35 -30.55 -19.15 -30.8 -20.2 -31.2 -19.0 -32.35 -18.1 -32.25 -17.8 -32.2 -16.6 -32.05 -16.0 -32.0 -14.85 -31.85 M13.95 -31.15 L8.7 -33.25 8.9 -34.1 9.95 -34.5 Q14.55 -34.2 16.85 -30.55 L17.05 -30.2 17.15 -30.05 16.95 -29.95 13.95 -31.15 M9.4 -29.75 L8.0 -29.9 7.15 -30.8 7.45 -31.7 Q10.45 -32.6 12.6 -30.95 L13.3 -30.35 13.9 -29.65 14.9 -28.0 14.5 -27.5 Q12.2 -29.35 9.4 -29.75 M15.1 -34.25 Q12.15 -34.6 9.75 -36.05 L10.25 -37.4 Q13.55 -37.05 15.1 -34.25 M5.2 -8.75 L5.05 -8.55 -2.25 -6.3 -2.8 -7.05 Q-0.2 -9.6 3.8 -9.6 4.55 -9.85 5.2 -9.2 L5.2 -8.75 M1.4 -5.55 L3.45 -6.35 8.0 -6.55 8.8 -5.55 -1.2 -3.2 -1.1 -3.95 -0.55 -4.5 0.35 -5.1 1.4 -5.55 M11.1 -3.2 L11.0 -2.9 Q6.55 -1.4 1.85 -1.65 L2.25 -2.3 Q5.45 -5.25 9.7 -4.15 L11.0 -3.55 11.15 -3.5 11.1 -3.2 M11.85 21.05 Q13.0 19.9 14.25 19.85 15.55 19.8 17.0 20.9 L17.35 21.2 17.9 21.75 14.7 21.8 12.3 21.8 11.85 21.05 M4.9 1.15 L5.05 1.0 8.5 -1.2 9.7 -1.2 10.85 -1.25 8.15 0.75 3.15 4.4 Q3.3 2.85 4.45 1.65 L4.6 1.5 4.9 1.15 M-21.8 -19.1 L-21.6 -18.85 -20.75 -18.95 -20.5 -17.9 -21.8 -15.75 -23.8 -12.55 -24.25 -11.8 -24.75 -12.4 -24.85 -12.6 -24.95 -13.05 -24.8 -14.0 -24.2 -15.4 -23.05 -17.4 -24.55 -16.0 -27.0 -13.8 Q-27.45 -14.6 -26.7 -15.55 L-23.95 -18.4 Q-23.1 -19.15 -21.9 -19.25 L-21.8 -19.1 M-19.65 -16.85 L-19.05 -17.4 Q-18.95 -17.5 -18.8 -17.55 L-18.4 -17.7 -18.25 -17.55 -18.65 -15.85 -20.8 -12.85 Q-21.25 -15.2 -19.65 -16.85 M-5.55 24.5 L-3.7 24.1 Q-3.75 26.3 -4.35 27.1 L-4.8 27.5 -5.75 27.5 -5.55 24.5 M-3.1 24.0 L-2.7 23.9 -2.25 24.75 -2.5 25.0 -3.1 24.0 M-23.15 6.7 L-23.1 6.8 -23.2 6.85 -23.85 7.15 -25.25 7.75 -26.45 9.05 Q-25.65 8.4 -24.45 8.05 L-24.2 8.05 Q-24.2 11.0 -27.15 12.1 L-28.15 11.9 Q-27.9 10.75 -27.3 9.95 L-26.85 9.4 -28.1 10.3 -30.25 11.4 -30.85 10.5 -28.0 7.75 -31.15 8.55 -33.65 9.15 -33.45 8.85 Q-30.8 4.45 -26.05 5.35 L-26.75 5.9 -25.0 6.0 Q-24.3 6.1 -23.65 6.35 L-23.25 6.65 -23.15 6.7 M-5.55 13.2 Q-7.45 13.5 -8.95 12.3 L-9.9 11.4 -8.45 11.0 Q-6.95 11.3 -5.85 12.4 L-5.55 12.75 -5.5 12.8 -5.25 13.1 -5.55 13.2 M-11.45 11.75 L-11.4 11.7 Q-8.95 12.3 -7.55 14.15 L-7.25 14.6 -7.05 14.9 -7.35 15.3 -9.7 14.45 Q-10.25 12.5 -11.45 11.75 M-1.9 25.85 L-2.0 25.7 -1.85 25.7 -1.9 25.85 M-9.35 17.45 L-9.0 18.35 -8.9 18.6 -8.7 19.25 -9.25 18.85 -9.35 17.45 M-25.85 2.85 L-33.9 6.15 Q-34.05 5.3 -33.6 4.8 -30.35 1.3 -25.7 1.95 L-25.65 2.4 -25.85 2.85 M-22.3 26.2 L-21.7 27.4 -22.35 26.2 -22.3 26.2 M14.45 23.05 L14.2 23.45 14.2 23.5 14.15 23.55 14.15 23.7 14.15 23.75 14.15 23.85 14.15 24.0 13.6 23.95 12.7 22.5 12.9 22.5 Q13.8 22.5 14.7 22.85 L14.45 23.05" fill="#8ab66c" fill-rule="evenodd" stroke="none"/>
      <path d="M-14.5 -37.65 Q-12.1 -40.15 -8.75 -41.55 L-8.1 -40.5 -6.65 -40.3 -6.0 -40.9 -3.6 -39.75 -2.95 -40.05 Q-1.65 -39.8 -0.85 -38.7 0.0 -37.45 -0.25 -36.05 L-1.05 -35.95 -1.8 -36.35 -2.5 -35.25 -4.0 -36.65 -4.25 -35.75 -5.15 -35.5 -6.0 -36.2 -5.75 -35.35 -6.2 -34.55 Q-7.85 -34.95 -9.15 -36.0 L-10.05 -36.75 -11.25 -35.6 -9.9 -33.8 -10.15 -33.25 -11.1 -32.9 -11.15 -32.05 -11.9 -31.65 -14.05 -32.5 -14.85 -31.85 -16.0 -32.0 -15.9 -32.05 -15.85 -33.55 -14.05 -33.5 -13.85 -34.25 -14.5 -34.8 -15.8 -35.25 -15.8 -35.65 -15.05 -36.35 Q-14.5 -36.7 -14.0 -37.25 L-14.5 -37.65 M19.3 -24.6 Q21.5 -23.5 22.7 -20.85 L22.9 -20.15 22.95 -19.35 22.95 -18.55 21.45 -18.95 21.15 -17.5 20.5 -17.25 20.45 -15.05 16.7 -16.35 16.9 -14.75 Q13.2 -13.55 9.35 -14.9 L9.3 -15.75 10.05 -16.6 8.4 -18.65 8.6 -18.75 Q9.05 -20.65 8.9 -22.4 L9.8 -22.55 10.5 -20.15 11.15 -20.8 Q11.45 -23.0 10.9 -24.9 L11.25 -24.8 14.0 -19.0 11.0 -19.5 12.25 -17.35 13.05 -17.5 13.3 -18.55 14.05 -18.9 14.45 -18.0 14.95 -18.55 14.9 -19.75 14.7 -21.5 14.5 -22.25 14.15 -23.15 19.2 -17.75 Q18.65 -20.45 17.2 -22.95 L15.5 -25.3 15.5 -25.45 16.2 -25.4 16.3 -25.35 19.25 -22.75 19.3 -24.6 M7.3 -19.9 L6.35 -19.05 9.3 -12.05 Q7.2 -12.75 6.25 -14.8 L5.1 -17.2 4.7 -14.9 4.1 -14.4 3.15 -11.3 Q1.0 -15.0 2.9 -18.75 L3.35 -19.65 Q-1.6 -17.35 -4.25 -12.75 L-4.75 -12.55 -3.4 -19.0 -4.4 -18.25 -5.2 -18.85 -1.85 -24.55 -4.9 -22.6 -5.75 -23.05 Q-4.85 -24.9 -3.05 -25.9 L-2.15 -26.3 0.9 -27.1 1.0 -25.7 1.5 -25.35 1.75 -24.75 3.1 -24.0 -0.7 -21.05 3.95 -21.7 4.0 -21.5 4.15 -21.7 5.1 -21.85 5.05 -20.8 5.75 -20.25 6.9 -21.3 7.3 -19.9 M23.3 -0.1 L25.35 0.05 29.95 0.75 30.1 1.85 29.5 2.55 28.7 2.65 28.3 4.2 27.85 4.25 27.4 5.3 23.25 3.25 Q22.7 1.7 21.3 0.6 L23.05 0.95 23.5 0.15 23.3 -0.1 M25.0 6.9 L25.45 7.75 24.8 7.85 24.75 7.65 25.0 6.9 M22.25 6.65 L22.15 6.55 22.2 5.4 22.5 5.6 Q22.25 6.0 22.25 6.65 M20.2 5.65 L19.0 5.15 17.8 2.8 20.2 5.65 M16.15 4.05 L15.9 3.65 15.8 4.15 15.25 1.4 15.4 1.45 15.6 2.35 16.15 4.05 M14.4 9.2 L14.25 9.45 Q13.35 11.0 11.65 12.1 L11.45 10.8 11.4 9.5 11.6 6.85 8.25 11.35 Q7.5 10.8 6.3 10.65 L6.85 9.7 5.7 10.55 4.8 10.6 4.2 10.4 3.95 10.05 4.0 9.2 7.6 6.45 3.35 9.2 2.3 9.0 Q3.3 5.85 5.6 3.5 L7.4 2.05 Q6.4 4.2 6.1 6.85 L6.5 7.0 7.9 6.1 8.55 7.2 9.0 7.35 9.4 7.1 Q12.15 4.4 12.9 0.9 L13.65 0.75 13.8 0.8 Q12.5 5.15 14.4 9.2 M14.25 19.85 L12.9 19.35 Q17.5 18.4 21.9 20.25 L24.35 21.35 17.4 16.9 Q20.45 16.4 23.2 17.55 24.2 17.95 25.05 18.6 L26.1 19.55 25.4 18.6 Q24.0 16.8 22.2 15.45 L20.15 14.15 20.85 12.85 Q23.4 13.8 25.25 15.45 L26.0 16.2 26.0 16.25 27.8 18.55 27.8 18.6 28.35 19.7 28.5 21.35 28.35 23.05 28.3 23.2 27.9 23.0 28.0 20.0 Q27.05 21.2 26.6 22.5 L25.1 21.85 26.1 22.7 26.2 22.75 26.2 22.8 26.45 23.0 26.25 24.45 23.15 23.25 19.7 23.2 19.1 22.9 17.1 22.4 17.0 22.4 16.85 22.4 16.6 22.4 Q15.4 22.4 14.75 22.8 L14.7 22.85 Q13.8 22.5 12.9 22.5 L14.7 21.8 17.9 21.75 17.35 21.2 17.7 21.2 17.0 20.9 Q15.55 19.8 14.25 19.85 M26.05 14.3 L25.85 13.85 Q27.2 14.55 28.1 15.45 L29.4 17.25 Q28.0 17.15 27.55 16.65 27.0 15.45 26.05 14.3 M-8.95 -39.8 L-9.55 -39.3 -7.8 -38.15 -9.0 -39.25 -8.95 -39.8 M-17.8 -32.2 L-17.15 -33.2 -16.6 -32.05 -17.8 -32.2 M-18.2 -30.05 L-18.4 -30.35 -18.35 -30.55 -17.6 -30.25 -18.2 -30.05 M-21.8 -15.75 L-21.7 -15.4 -21.15 -16.15 -20.7 -16.1 -19.8 -17.05 -19.65 -16.85 Q-21.25 -15.2 -20.8 -12.85 L-18.65 -15.85 -18.25 -17.55 -18.4 -17.7 -18.8 -17.55 -18.45 -18.4 -16.75 -15.5 -16.1 -17.85 -11.9 -11.9 -12.3 -11.2 -13.55 -11.35 -16.75 -15.5 -14.3 -9.25 -14.7 -9.0 -16.9 -10.05 -17.6 -9.3 -19.7 -10.25 -19.0 -6.25 -20.15 -5.95 -20.5 -4.95 -21.7 -4.55 -21.55 -4.0 -22.4 -3.2 -24.9 -5.9 -25.2 -4.6 -25.65 -4.45 -26.55 -7.05 -25.05 -9.0 -24.75 -7.65 -24.0 -7.25 -23.6 -7.4 -22.0 -12.8 -23.8 -12.55 -21.8 -15.75 M-28.5 -7.0 L-29.35 -4.6 -30.2 -4.65 -30.1 -5.45 -29.4 -8.5 -29.35 -7.4 -28.5 -7.15 -28.5 -7.0 M-29.35 -8.55 L-29.05 -9.35 -28.95 -9.05 -29.35 -8.55 M-31.45 -9.65 L-31.75 -9.65 Q-32.6 -9.65 -32.55 -11.65 L-31.55 -14.0 -31.45 -13.6 -31.1 -13.3 -31.45 -9.65 M-24.85 -12.6 L-24.75 -12.4 -25.1 -12.35 -24.85 -12.6 M-26.65 -13.35 L-25.7 -14.35 -25.5 -14.3 -26.65 -13.35 M-13.25 -18.75 Q-11.7 -18.05 -10.8 -16.6 -10.1 -15.6 -10.05 -14.25 L-10.4 -14.0 -10.9 -14.0 Q-12.3 -14.4 -13.25 -15.45 L-13.8 -16.2 -14.65 -17.7 -14.05 -19.05 -13.25 -18.75 M-8.3 9.2 L-8.3 9.15 Q-4.35 10.4 -2.9 14.2 L-2.75 14.65 -3.25 14.25 -3.5 14.25 -5.5 12.8 -5.55 12.75 -5.7 12.1 -5.3 11.15 -8.3 9.2 M-7.15 18.85 L-7.85 20.65 -8.6 20.85 -9.1 20.0 -9.25 18.85 -8.5 19.5 -7.45 18.8 -7.5 18.6 -7.6 18.3 -7.15 18.85 M-2.2 25.45 L-1.35 25.4 -0.75 26.15 -0.75 26.2 -1.2 27.0 -1.9 25.9 -1.9 25.85 -1.85 25.7 -2.0 25.7 -2.2 25.45 M-23.35 5.0 L-23.2 5.25 -23.05 5.5 -23.15 6.6 -23.25 6.65 -23.65 6.35 Q-24.3 6.1 -25.0 6.0 L-23.35 5.0 M-23.2 7.15 L-23.3 8.35 -23.3 9.1 -24.3 10.5 -24.6 10.7 -24.45 10.8 -25.55 12.95 -26.7 12.25 -27.15 12.1 Q-24.2 11.0 -24.2 8.05 L-24.45 8.05 Q-25.65 8.4 -26.45 9.05 L-25.25 7.75 -23.85 7.15 -24.15 7.35 -23.2 7.15 M4.6 1.5 L1.15 3.15 0.0 5.4 -0.85 5.55 -1.45 4.35 Q-0.45 0.75 2.9 -0.8 4.2 -0.35 4.75 0.75 L4.9 1.15 4.6 1.5 M-23.95 18.75 L-24.15 19.8 -24.15 20.15 -24.25 20.1 -24.65 20.6 -25.9 20.6 -27.65 19.45 -28.2 20.85 -29.1 20.75 -29.55 18.85 -30.9 20.6 Q-31.05 19.75 -31.45 19.15 L-31.35 18.6 Q-31.05 16.95 -30.35 15.45 L-29.4 13.75 -29.35 14.05 -29.1 14.35 -29.15 14.7 -29.05 16.1 Q-28.85 16.85 -28.25 17.25 L-27.0 17.5 -25.3 17.15 Q-24.45 17.1 -24.1 17.6 L-23.95 18.75 M-9.7 14.45 L-7.35 15.3 Q-7.85 16.1 -7.85 17.6 L-7.85 17.65 Q-8.35 16.4 -9.1 15.45 L-9.6 14.85 -9.7 14.45 M-7.25 14.6 L-7.55 14.15 -7.3 13.9 -6.9 14.05 -7.25 14.6 M-20.5 13.75 L-20.6 13.75 -20.5 13.75 M-28.1 10.3 L-26.85 9.4 -27.3 9.95 -28.0 10.35 -28.1 10.3 M14.4 25.0 L14.25 25.0 14.25 24.95 14.4 25.0" fill="#2c5277" fill-rule="evenodd" stroke="none"/>
      <path d="M27.6 42.25 L27.6 42.3 27.6 42.25 M-36.75 15.8 L-36.05 8.0 -33.65 6.2 -32.85 6.35 -34.75 9.35 -33.45 8.85 -33.65 9.15 -31.15 8.55 -31.15 8.6 -34.45 11.7 -31.55 11.3 -31.3 12.25 -36.0 16.0 -36.75 15.8 M-35.9 6.7 L-35.6 2.9 -32.35 1.3 -31.75 1.55 -31.75 2.15 -35.9 6.7 M-25.05 -29.45 L-21.55 -33.7 -17.6 -33.55 -17.9 -33.4 -18.1 -32.25 -19.0 -32.35 -20.2 -31.2 -19.15 -30.8 -18.35 -30.55 -18.4 -30.35 -18.45 -29.95 -19.15 -29.6 -19.3 -29.55 -20.1 -29.05 -20.5 -30.45 -22.3 -28.4 -22.6 -30.75 -25.05 -29.45 M-20.6 -35.05 L-19.0 -37.15 -18.2 -37.3 -18.8 -37.35 -16.45 -39.8 -15.15 -38.4 -15.1 -37.85 -16.5 -37.9 Q-17.9 -37.9 -18.25 -36.45 L-17.75 -35.95 -15.45 -36.2 -15.05 -36.35 -15.8 -35.65 -15.8 -35.25 -19.15 -35.45 -20.6 -35.05 M-18.85 -27.55 L-19.2 -25.45 -19.7 -27.4 -18.85 -27.55 M16.85 -30.55 Q17.75 -30.05 18.5 -29.2 19.65 -27.95 19.75 -26.25 L19.3 -26.05 19.3 -24.6 19.25 -22.75 16.3 -25.35 16.2 -25.4 13.5 -27.1 15.5 -25.3 17.2 -22.95 Q18.65 -20.45 19.2 -17.75 L14.15 -23.15 14.5 -22.25 14.7 -21.5 14.9 -19.75 14.95 -18.55 14.45 -18.0 14.05 -18.9 14.0 -19.0 11.25 -24.8 9.25 -29.0 9.4 -29.75 Q12.2 -29.35 14.5 -27.5 L14.9 -28.0 13.9 -29.65 14.65 -29.5 13.3 -30.35 12.6 -30.95 13.95 -31.15 16.95 -29.95 17.15 -30.05 17.05 -30.2 16.85 -30.55 M8.4 -18.65 L7.75 -18.3 7.3 -19.9 6.9 -21.3 5.75 -20.25 5.05 -20.8 5.1 -21.85 5.15 -23.4 4.15 -21.7 4.0 -21.5 3.95 -21.7 Q3.65 -23.05 4.2 -24.45 4.7 -25.85 5.5 -27.15 L6.15 -26.5 6.3 -28.5 Q8.6 -25.65 8.9 -22.4 9.05 -20.65 8.6 -18.75 L8.4 -18.65 M9.8 -22.55 L7.75 -29.65 8.6 -28.9 9.25 -28.15 Q10.4 -26.65 10.9 -24.9 11.45 -23.0 11.15 -20.8 L10.5 -20.15 9.8 -22.55 M22.3 -1.3 L23.3 -0.1 23.5 0.15 23.05 0.95 21.3 0.6 Q22.7 1.7 23.25 3.25 L23.25 3.3 23.55 4.35 Q22.8 4.55 22.8 5.15 L22.85 5.25 22.5 5.6 22.2 5.4 22.15 6.55 22.1 6.8 21.3 6.95 20.2 5.65 17.8 2.8 19.0 5.15 19.45 6.95 19.65 8.45 18.8 8.5 Q17.05 6.5 16.15 4.05 L15.6 2.35 15.4 1.45 19.6 1.15 20.65 0.75 21.05 -0.25 21.55 -0.35 22.15 -1.25 22.3 -1.3 M15.8 4.15 Q16.2 6.9 15.95 9.75 L14.65 9.7 14.4 9.2 Q12.5 5.15 13.8 0.8 L15.25 1.4 15.8 4.15 M9.7 -1.2 L11.25 -2.65 Q11.7 -1.2 12.6 0.05 L13.0 0.35 12.9 0.9 Q12.15 4.4 9.4 7.1 L9.0 7.35 8.55 7.2 7.9 6.1 6.5 7.0 6.1 6.85 Q6.4 4.2 7.4 2.05 L8.15 0.75 10.85 -1.25 9.7 -1.2 M-15.85 -33.55 L-15.9 -32.05 -16.0 -32.0 -16.6 -32.05 -17.15 -33.2 -17.3 -33.55 -15.85 -33.55 M-24.55 -20.75 L-23.5 -20.55 -24.35 -19.75 -21.45 -19.55 -21.8 -19.1 -21.9 -19.25 Q-23.1 -19.15 -23.95 -18.4 L-26.7 -15.55 Q-27.45 -14.6 -27.0 -13.8 L-24.55 -16.0 -27.8 -12.35 -26.65 -13.35 -25.5 -14.3 -24.2 -15.4 -24.8 -14.0 -24.95 -13.05 -24.85 -12.6 -25.1 -12.35 -24.75 -12.4 -24.25 -11.8 -23.8 -12.55 -22.0 -12.8 -23.6 -7.4 -24.0 -7.25 -24.75 -7.65 -25.05 -9.0 -26.55 -7.05 -27.5 -5.8 -28.5 -6.5 -28.5 -7.0 -28.5 -7.15 -29.35 -7.4 -29.4 -8.5 -29.4 -8.55 -29.35 -8.55 -28.95 -9.05 -29.05 -9.35 -29.25 -9.85 -31.55 -9.0 -31.45 -9.65 -31.1 -13.3 -31.45 -13.6 -31.55 -14.0 -31.65 -14.45 -30.9 -15.05 Q-30.1 -16.2 -29.25 -16.45 L-27.25 -18.15 -28.8 -17.55 -29.1 -18.15 Q-26.25 -18.2 -24.9 -20.15 L-24.55 -20.75 M-9.15 8.65 L-8.3 9.2 -5.3 11.15 -5.7 12.1 -5.55 12.75 -5.85 12.4 Q-6.95 11.3 -8.45 11.0 L-9.9 11.4 -8.95 12.3 Q-7.45 13.5 -5.55 13.2 L-5.75 13.7 -6.75 14.1 -6.9 14.05 -7.3 13.9 -7.55 14.15 Q-8.95 12.3 -11.4 11.7 L-11.45 11.75 -12.35 11.4 -12.3 11.0 -12.3 10.95 -11.95 10.85 Q-10.1 10.05 -9.15 8.65 M-23.3 9.1 Q-22.85 12.1 -15.65 11.45 -16.25 11.75 -16.25 12.75 L-16.0 14.35 -16.75 14.55 -17.1 13.75 -17.0 14.7 -17.5 15.0 Q-18.2 14.0 -19.0 13.8 L-20.5 13.75 -20.3 13.05 -20.8 13.75 Q-22.35 13.85 -23.25 15.0 L-23.4 15.25 Q-24.25 13.85 -25.55 12.95 L-24.45 10.8 -24.3 10.5 -23.3 9.1 M-9.6 14.85 L-9.1 15.45 Q-8.35 16.4 -7.85 17.65 L-7.6 18.3 -7.5 18.6 -7.45 18.8 -8.5 19.5 -9.25 18.85 -8.7 19.25 -8.9 18.6 -9.0 18.35 -9.35 17.45 -9.4 16.65 -9.6 14.85" fill="#44855a" fill-rule="evenodd" stroke="none"/>
      <path d="M-30.55 -18.3 L-30.65 -18.35 -30.0 -20.2 -29.8 -20.2 Q-27.8 -20.6 -26.15 -22.7 -24.85 -24.45 -24.35 -26.25 -23.9 -25.3 -23.9 -23.9 -23.9 -22.1 -24.55 -20.75 L-24.9 -20.15 Q-26.25 -18.2 -29.1 -18.15 L-29.3 -18.15 -30.55 -18.3 M-28.5 -23.4 L-27.95 -24.4 -27.25 -25.6 -26.9 -26.2 -24.95 -26.45 -24.5 -26.6 -24.45 -26.5 Q-25.1 -25.15 -26.4 -24.25 -27.35 -23.65 -28.35 -23.4 L-28.5 -23.4 M10.75 -5.25 L10.6 -7.7 11.3 -7.95 12.4 -6.3 14.85 -10.1 16.3 -10.5 Q19.0 -11.05 21.3 -9.45 L20.75 -9.55 21.25 -7.15 Q20.95 -8.05 20.15 -8.65 18.15 -9.9 15.85 -9.05 L15.65 -8.55 15.05 -10.05 15.15 -8.95 15.95 -6.0 19.3 -5.35 17.45 -4.7 Q15.2 -4.75 13.55 -6.45 L12.95 -6.45 14.05 -5.2 Q15.75 -3.6 17.4 -3.3 L18.15 -3.25 Q19.15 -3.25 20.15 -3.7 21.55 -4.4 22.95 -6.05 L23.15 -5.45 Q23.4 -4.2 22.5 -3.1 L22.1 -2.65 Q21.0 -1.65 19.5 -1.55 L22.15 -1.25 21.55 -0.35 21.05 -0.25 20.65 0.75 19.6 1.15 15.4 1.45 15.25 1.4 13.8 0.8 13.65 0.75 13.0 0.35 12.6 0.05 12.5 -0.45 13.05 -0.15 13.45 0.05 13.95 0.25 14.95 0.4 15.2 0.4 15.6 0.3 16.05 0.2 16.45 0.0 16.1 -0.1 Q15.2 -0.45 14.5 -0.9 L14.4 -0.95 13.15 -2.0 12.15 -3.3 Q11.45 -4.5 11.15 -6.05 L10.75 -5.25 M-15.6 -1.8 Q-11.45 -1.25 -9.8 2.5 L-9.4 3.4 Q-9.9 5.55 -11.2 7.3 L-12.5 8.75 -12.55 8.3 -12.8 8.3 -12.9 8.1 Q-12.9 7.65 -13.2 7.35 -13.5 7.05 -13.95 7.05 L-14.05 7.0 -13.6 6.7 -12.15 5.45 -12.95 4.7 -12.55 3.8 Q-11.0 -0.6 -15.6 -1.8 M-1.4 25.3 L-1.55 21.5 -0.7 22.05 Q0.5 23.35 2.05 23.8 L1.85 23.85 1.7 23.95 0.5 24.55 -0.05 24.25 0.3 24.65 -0.1 25.05 -0.5 25.75 -0.65 26.05 -1.3 25.4 -1.4 25.3 M0.65 20.65 Q0.65 19.8 1.35 19.2 2.0 18.6 2.9 18.6 L2.95 18.6 4.55 18.75 Q4.55 19.3 4.65 19.25 L6.0 19.35 6.05 19.35 5.55 19.75 5.4 19.9 5.25 19.75 1.25 21.75 0.8 21.3 0.65 20.65 M-15.9 -1.9 L-18.1 -1.5 -18.25 -1.15 -15.6 -1.1 Q-13.5 -0.45 -13.5 0.65 L-13.5 0.75 -13.35 0.85 -14.35 3.8 Q-14.0 4.0 -14.0 4.5 -14.0 4.95 -15.25 5.6 L-15.4 5.7 -17.1 6.25 -18.25 6.35 -18.3 6.4 -18.65 6.7 -18.75 6.8 -18.35 7.0 -17.3 7.3 -16.1 7.45 -16.35 8.3 -19.65 8.3 -20.85 7.35 -20.8 6.95 -21.25 6.85 -21.35 6.8 -21.6 6.7 -21.55 6.85 -21.45 7.05 Q-19.5 10.65 -15.45 11.1 L-15.3 11.3 Q-15.5 11.3 -15.65 11.45 -22.85 12.1 -23.3 9.1 L-23.3 8.35 -23.2 7.15 -23.2 6.85 -23.1 6.8 -23.15 6.7 -23.15 6.6 -23.05 5.5 -23.2 5.25 -23.35 5.0 -23.8 3.35 Q-23.8 2.0 -22.5 1.1 -22.05 0.75 -21.75 0.75 -21.25 0.65 -21.25 1.5 L-21.65 2.35 -22.05 3.45 -21.75 4.2 -21.55 4.4 -21.25 4.6 Q-21.2 3.2 -20.5 2.0 -19.85 0.8 -18.8 0.35 L-18.65 0.15 -18.5 0.05 -19.9 0.0 -20.0 -0.25 -19.2 -0.75 -20.85 -0.35 Q-19.5 -1.85 -17.4 -2.55 L-16.35 -2.8 -15.9 -1.9 M-18.5 1.7 L-18.8 2.95 -19.1 2.85 -19.35 3.35 -18.85 3.7 -18.2 4.4 -16.6 4.05 -16.0 3.7 Q-14.75 3.05 -14.35 1.95 L-15.4 0.85 Q-16.2 0.3 -17.8 0.1 L-18.5 1.7 M-36.65 25.4 L-36.5 26.2 -36.9 25.95 -36.65 25.4 M-34.9 22.9 L-33.8 23.45 -33.95 23.85 -33.6 24.25 -32.75 24.45 -32.35 24.5 Q-32.05 24.9 -31.9 25.5 L-31.7 26.55 -34.5 26.75 Q-35.1 25.15 -36.1 24.4 L-34.9 22.9 M-27.95 26.45 L-28.05 25.0 -27.95 24.7 Q-27.95 24.1 -28.1 23.65 -27.05 23.15 -26.1 22.3 L-26.0 22.35 -27.3 25.1 -27.75 26.05 -27.95 26.45 M-30.8 20.95 L-30.35 20.9 -27.75 21.45 -27.75 21.9 -29.05 22.65 -29.5 22.45 -29.95 22.2 Q-30.65 21.7 -30.8 20.95 M28.35 23.05 L28.1 23.75 28.2 23.4 28.3 23.2 28.35 23.05 M27.85 24.15 L27.75 24.25 Q27.4 24.6 26.8 24.8 L26.2 24.95 26.25 24.45 26.45 23.0 26.6 22.5 Q27.05 21.2 28.0 20.0 L27.9 23.0 27.85 24.15 M4.4 21.1 L4.35 21.2 4.35 21.1 4.4 21.1" fill="#e58a8a" fill-rule="evenodd" stroke="none"/>
      <path d="M-30.0 -20.2 L-28.5 -23.4 -28.35 -23.4 Q-27.35 -23.65 -26.4 -24.25 -25.1 -25.15 -24.45 -26.5 L-24.35 -26.25 Q-24.85 -24.45 -26.15 -22.7 -27.8 -20.6 -29.8 -20.2 L-30.0 -20.2 M11.1 -3.2 L11.15 -3.5 11.0 -3.55 10.9 -4.05 10.75 -5.25 11.15 -6.05 Q11.45 -4.5 12.15 -3.3 L13.15 -2.0 14.4 -0.95 14.5 -0.9 Q15.2 -0.45 16.1 -0.1 L16.45 0.0 16.05 0.2 15.6 0.3 15.2 0.4 14.95 0.4 13.95 0.25 13.45 0.05 13.05 -0.15 12.5 -0.45 12.6 0.05 Q11.7 -1.2 11.25 -2.65 L11.1 -3.2 M11.3 -7.95 L14.85 -10.1 12.4 -6.3 11.3 -7.95 M21.3 -9.45 L21.6 -9.25 Q23.25 -8.1 22.95 -6.05 21.55 -4.4 20.15 -3.7 19.15 -3.25 18.15 -3.25 L17.4 -3.3 Q15.75 -3.6 14.05 -5.2 L12.95 -6.45 13.55 -6.45 Q15.2 -4.75 17.45 -4.7 L19.3 -5.35 15.95 -6.0 15.15 -8.95 15.05 -10.05 15.65 -8.55 15.85 -9.05 Q18.15 -9.9 20.15 -8.65 20.95 -8.05 21.25 -7.15 L20.75 -9.55 21.3 -9.45 M23.15 -5.45 L23.75 -5.4 23.9 -4.8 Q24.2 -2.5 22.3 -1.3 L22.15 -1.25 19.5 -1.55 Q21.0 -1.65 22.1 -2.65 L22.5 -3.1 Q23.4 -4.2 23.15 -5.45 M-26.9 -26.2 L-25.8 -27.95 -25.1 -27.35 -24.5 -26.6 -24.95 -26.45 -26.9 -26.2 M-15.9 -1.9 L-15.6 -1.8 Q-11.0 -0.6 -12.55 3.8 L-12.95 4.7 -12.15 5.45 -13.6 6.7 -14.05 7.0 -14.35 6.85 Q-15.65 6.4 -16.1 7.45 L-17.3 7.3 -18.35 7.0 -18.75 6.8 -18.65 6.7 -18.3 6.4 -18.25 6.35 -17.1 6.25 -15.4 5.7 -15.25 5.6 Q-14.0 4.95 -14.0 4.5 -14.0 4.0 -14.35 3.8 L-13.35 0.85 -13.5 0.75 -13.5 0.65 Q-13.5 -0.45 -15.6 -1.1 L-18.25 -1.15 -18.1 -1.5 -15.9 -1.9 M-9.4 3.4 L-8.3 4.75 Q-8.15 7.05 -9.15 8.65 -10.1 10.05 -11.95 10.85 L-12.3 10.95 Q-12.3 9.3 -12.8 8.3 L-12.55 8.3 -12.5 8.75 -11.2 7.3 Q-9.9 5.55 -9.4 3.4 M-1.35 25.4 L-1.4 25.3 -1.3 25.4 -0.65 26.05 -0.75 26.15 -1.35 25.4 M-0.7 22.05 L0.65 20.65 0.8 21.3 1.25 21.75 5.25 19.75 5.4 19.9 4.55 20.9 4.4 21.1 4.35 21.1 4.35 21.2 3.65 22.35 Q3.35 23.2 2.05 23.8 0.5 23.35 -0.7 22.05 M2.95 18.6 L4.65 18.5 4.55 18.65 4.55 18.75 2.95 18.6 M-20.85 -0.35 L-19.2 -0.75 -20.0 -0.25 -19.9 0.0 -18.5 0.05 -18.65 0.15 -18.8 0.35 Q-19.85 0.8 -20.5 2.0 -21.2 3.2 -21.25 4.6 L-21.55 4.4 -21.75 4.2 -22.05 3.45 -21.65 2.35 -21.25 1.5 Q-21.25 0.65 -21.75 0.75 L-21.45 0.25 -20.85 -0.35 M-15.45 11.1 Q-19.5 10.65 -21.45 7.05 L-21.55 6.85 -21.6 6.7 -21.35 6.8 -21.25 6.85 -20.8 6.95 -20.85 7.35 -19.65 8.3 -16.35 8.3 -16.4 9.2 -15.45 11.1 M-18.5 1.7 L-17.8 0.1 Q-16.2 0.3 -15.4 0.85 L-14.35 1.95 Q-14.75 3.05 -16.0 3.7 L-16.6 4.05 -18.2 4.4 -18.85 3.7 -19.35 3.35 -19.1 2.85 -18.8 2.95 -18.5 1.7 M-36.5 26.2 L-36.5 26.35 Q-36.5 27.15 -37.0 27.35 L-36.9 25.95 -36.5 26.2 M-33.8 23.45 Q-32.85 23.8 -32.35 24.5 L-32.75 24.45 -33.6 24.25 -33.95 23.85 -33.8 23.45 M-27.9 26.9 L-27.95 26.45 -27.75 26.05 -27.3 25.1 -26.0 22.35 -25.35 22.95 Q-25.55 24.5 -26.25 25.45 L-27.9 26.9 M-27.75 21.45 L-27.5 22.15 -26.1 22.3 Q-27.05 23.15 -28.1 23.65 L-28.2 23.35 Q-28.45 22.75 -28.8 22.75 L-29.05 22.65 -27.75 21.9 -27.75 21.45 M-29.95 22.2 L-29.5 22.45 -29.9 22.25 -29.95 22.2 M0.5 24.55 L0.3 24.65 -0.05 24.25 0.5 24.55" fill="#a65b5b" fill-rule="evenodd" stroke="none"/>
      <path d="M-35.5 30.35 L-35.6 30.5 -36.5 31.6 -36.85 32.0 -37.0 31.4 -37.35 29.7 -37.45 29.1 -37.5 28.5 -37.4 27.85 -37.4 27.8 -37.0 27.35 Q-36.5 27.15 -36.5 26.35 L-36.5 26.2 -36.65 25.4 -37.0 24.25 -36.75 24.0 -36.1 24.4 Q-35.1 25.15 -34.5 26.75 L-31.7 26.55 -31.65 27.05 -31.6 27.4 -31.5 27.9 -30.4 28.8 -27.75 28.7 -27.9 26.9 -26.25 25.45 Q-25.55 24.5 -25.35 22.95 L-25.25 21.75 -24.75 21.75 -24.6 22.3 -24.5 23.25 -24.05 23.35 Q-24.75 24.6 -24.75 25.6 L-24.7 26.25 Q-24.6 27.35 -24.15 28.3 L-24.35 28.45 -24.4 28.45 -24.45 28.55 -25.15 29.1 -25.8 29.6 -27.9 30.75 -30.0 31.1 Q-30.45 31.1 -30.85 30.0 L-30.9 29.8 -30.95 29.75 Q-31.3 28.85 -32.0 28.85 L-33.65 29.25 -34.65 29.7 -35.2 30.05 -35.35 30.1 -35.5 30.35 M11.3 20.2 L11.85 21.05 12.3 21.8 12.7 22.5 11.3 20.2 M26.0 16.2 L26.0 14.25 26.05 14.3 Q27.0 15.45 27.55 16.65 28.0 17.15 29.4 17.25 L29.85 17.25 Q31.1 17.25 31.4 16.05 L31.6 15.2 Q31.75 14.25 32.0 13.75 32.6 14.45 32.65 15.05 L32.75 16.05 32.8 16.95 32.9 18.1 32.35 18.45 32.1 18.65 31.3 19.5 Q30.45 20.55 30.25 21.85 L30.2 22.3 30.0 24.3 29.95 24.45 29.5 26.9 29.2 27.5 28.65 28.4 28.05 29.35 27.35 28.8 27.1 28.6 26.75 28.3 26.35 28.1 26.2 28.15 Q25.9 28.2 25.55 28.4 L24.75 28.65 Q23.9 28.65 23.0 27.55 L22.25 26.45 21.85 25.7 22.4 23.6 22.45 23.45 23.1 23.95 23.45 24.25 Q24.55 25.0 25.0 25.0 L26.2 24.95 26.8 24.8 Q27.4 24.6 27.75 24.25 L27.85 24.15 28.1 23.75 28.35 23.05 28.5 21.35 28.35 19.7 27.95 18.75 27.8 18.55 26.0 16.25 26.0 16.2 M-9.1 20.0 L-9.05 20.3 Q-8.55 22.0 -7.0 22.0 L-6.45 21.85 -5.75 21.25 -5.55 24.5 -5.75 27.5 -4.8 27.5 -4.35 27.1 Q-3.75 26.3 -3.7 24.1 L-3.75 22.75 -3.1 24.0 -2.5 25.0 -2.2 25.45 -2.0 25.7 -1.9 25.85 -1.9 25.9 -1.2 27.0 -1.7 27.85 -1.8 28.05 -3.4 31.8 -4.25 35.75 -4.9 36.5 -5.7 34.7 -9.8 37.0 -7.6 32.2 -6.95 30.35 -6.55 29.3 -6.95 28.2 -7.15 27.9 Q-7.6 27.25 -8.35 26.85 -8.95 26.5 -9.75 26.25 L-9.9 26.2 -11.45 25.25 -12.15 25.85 -15.9 28.4 Q-13.95 26.5 -13.3 24.15 -13.25 22.8 -12.85 21.35 L-12.4 19.5 Q-12.4 19.0 -12.85 17.85 L-13.0 17.4 -13.75 15.4 -13.5 14.5 -13.35 14.0 -13.05 13.25 -12.35 11.4 -11.45 11.75 Q-10.25 12.5 -9.7 14.45 L-9.6 14.85 -9.4 16.65 -9.35 17.45 -9.25 18.85 -9.1 20.0 M-0.5 25.75 L-0.75 26.2 -0.75 26.15 -0.65 26.05 -0.5 25.75 M8.15 24.0 L9.65 24.15 9.0 24.1 8.15 24.0 M14.75 22.8 L14.45 23.05 14.7 22.85 14.75 22.8 M14.15 23.85 L14.25 24.45 14.15 24.0 14.15 23.85 M6.95 19.3 L7.55 19.2 7.9 19.05 6.95 19.3" fill="#611210" fill-rule="evenodd" stroke="none"/>
      <path d="M10.05 18.05 L10.75 19.3 11.3 20.2 12.7 22.5 13.6 23.95 14.25 24.95 14.25 25.0 14.4 25.0 14.4 24.95 14.35 24.85 14.35 24.8 14.25 24.45 14.15 23.85 14.15 23.75 14.15 23.7 14.15 23.55 14.2 23.5 14.2 23.45 14.45 23.05 14.75 22.8 Q15.4 22.4 16.6 22.4 L16.85 22.4 17.0 22.4 17.1 22.4 19.1 22.9 19.7 23.2 20.55 23.8 20.75 24.05 20.5 24.8 20.45 24.95 Q19.5 27.15 18.45 27.25 L18.35 27.25 Q16.3 27.25 13.25 25.75 L10.55 24.4 10.25 24.3 10.2 24.3 9.65 24.15 8.15 24.0 7.8 24.0 7.6 24.0 Q6.75 24.0 5.35 25.0 L5.25 25.1 5.0 25.3 4.3 25.7 3.8 25.9 3.15 26.0 3.0 26.0 -0.5 26.15 -0.7 26.2 -0.75 26.2 -0.5 25.75 -0.1 25.05 0.3 24.65 0.5 24.55 1.7 23.95 1.85 23.85 2.05 23.8 Q3.35 23.2 3.65 22.35 L4.35 21.2 4.4 21.1 4.55 20.9 5.4 19.9 5.55 19.75 6.05 19.35 6.2 19.35 6.3 19.35 6.95 19.3 7.9 19.05 8.35 18.75 Q8.8 18.2 10.05 18.05 M-14.85 14.25 L-14.8 14.4 -14.65 14.9 -14.4 16.25 Q-14.4 16.95 -15.25 18.3 L-15.85 19.2 -16.3 19.9 -16.65 18.5 -16.75 18.3 Q-17.1 17.45 -17.65 17.05 L-18.15 16.75 -19.0 16.6 -20.4 17.0 -21.0 17.4 -22.45 17.1 -22.55 17.05 -22.7 16.65 -23.25 15.45 -23.4 15.25 -23.25 15.0 Q-22.35 13.85 -20.8 13.75 L-20.85 13.85 -20.6 13.75 -20.5 13.75 -19.0 13.8 Q-18.2 14.0 -17.5 15.0 L-17.0 14.7 -16.75 14.55 -16.0 14.35 -15.25 14.25 -14.85 14.25 M-22.65 21.15 L-22.1 21.05 -21.3 20.75 -21.25 21.0 -21.25 21.45 -21.25 21.5 Q-21.15 22.5 -20.45 22.7 L-20.0 22.75 -19.1 22.7 -21.8 24.65 Q-23.2 25.15 -24.7 26.25 L-24.75 25.6 Q-24.75 24.6 -24.05 23.35 L-23.6 22.55 -22.65 21.15" fill="#ffcc99" fill-rule="evenodd" stroke="none"/>
    </g>
  </defs>
</svg>
