<?xml version="1.0" encoding="UTF-8" standalone="no"?>
<svg xmlns:ffdec="https://www.free-decompiler.com/flash" xmlns:xlink="http://www.w3.org/1999/xlink" ffdec:objectType="frame" height="74.4px" width="30.0px" xmlns="http://www.w3.org/2000/svg">
  <g transform="matrix(1.0, 0.0, 0.0, 1.0, 16.25, 37.0)">
    <use ffdec:characterId="1378" height="73.35" transform="matrix(1.0, 0.0, 0.0, 1.0, -16.25, -35.95)" width="30.0" xlink:href="#shape0"/>
  </g>
  <defs>
    <g id="shape0" transform="matrix(1.0, 0.0, 0.0, 1.0, 16.25, 35.95)">
      <path d="M7.0 31.6 L6.75 32.0 6.35 33.0 5.7 34.15 4.8 35.3 Q3.25 36.8 0.9 37.05 L-1.5 37.4 -2.0 37.4 -3.3 37.15 Q-4.45 36.75 -5.4 35.9 L-5.7 35.45 -6.65 34.3 Q-7.3 33.65 -7.55 32.15 L-7.65 31.9 -7.9 31.05 Q-7.55 26.3 -6.0 19.6 L-4.9 14.25 Q-4.0 9.25 -4.0 6.0 -4.0 -2.85 -6.65 -7.75 L-6.2 -7.75 Q-5.85 -7.75 -5.5 -8.0 L-4.7 -9.1 -4.1 -10.25 -2.65 -10.75 -1.95 -9.85 -1.65 -9.6 Q-1.6 -0.75 -0.75 5.6 0.15 12.35 0.15 18.75 L0.0 21.25 0.1 21.15 0.7 15.85 1.1 10.25 0.1 4.25 -1.0 -3.0 -1.2 -9.35 -1.05 -9.35 Q-0.55 -9.35 -0.2 -10.1 0.05 -10.75 0.05 -11.35 0.05 -12.75 -0.6 -13.05 L0.5 -14.25 0.9 -14.25 0.95 -14.15 2.3 -9.6 2.55 -9.6 Q2.7 -11.35 3.4 -14.0 L3.65 -13.85 3.65 -13.65 3.9 -12.55 Q4.35 -11.5 5.4 -11.5 L5.95 -11.55 6.25 -6.0 6.0 0.0 4.8 -4.4 3.5 -9.0 3.5 -7.75 4.4 1.9 5.25 11.5 5.05 16.9 5.05 17.5 Q4.95 20.35 5.25 20.4 5.6 20.4 6.6 24.4 7.6 28.35 7.3 29.9 L7.0 31.6 M5.35 -17.35 L5.9 -17.85 5.75 -15.75 5.35 -17.35 M-6.6 -14.05 L-6.3 -13.0 -6.25 -12.6 -6.2 -12.2 -6.95 -11.45 Q-7.8 -10.8 -7.9 -9.7 L-9.0 -11.1 -8.6 -11.9 -6.6 -14.05 M-8.95 -15.15 L-8.95 -14.85 -8.95 -12.6 -9.3 -11.65 -9.35 -11.5 -9.45 -11.6 -10.1 -12.45 Q-10.8 -13.4 -11.1 -15.25 L-9.45 -15.15 -8.95 -15.15" fill="#749bc1" fill-rule="evenodd" stroke="none"/>
      <path d="M12.45 -21.1 L12.6 -21.25 12.8 -21.65 13.75 -23.15 13.0 -20.05 12.8 -18.85 12.8 -18.35 12.85 -17.9 12.9 -16.2 13.0 -8.85 13.0 -3.4 Q13.0 4.45 12.3 11.15 L12.25 11.7 11.1 19.3 10.95 20.1 10.7 21.1 9.7 25.0 9.55 25.6 9.25 26.5 8.95 27.4 8.05 25.15 Q7.5 24.1 7.5 21.35 L7.6 18.3 7.9 13.1 8.25 4.85 7.75 -3.5 Q7.75 -4.75 8.25 -6.75 L8.75 -9.35 9.5 -8.75 9.5 -9.75 Q9.5 -11.45 8.5 -12.55 L8.25 -14.75 Q8.25 -15.3 8.7 -15.85 L8.75 -15.75 Q9.25 -14.75 10.1 -14.75 10.65 -14.75 11.0 -15.5 L11.25 -16.75 Q11.25 -18.3 10.05 -18.8 L10.05 -19.15 10.05 -19.45 10.05 -19.85 11.4 -19.85 11.95 -20.45 12.45 -21.1 M-8.45 28.05 L-8.5 27.85 -8.75 25.4 Q-8.7 22.0 -8.95 18.5 L-9.15 16.2 -9.5 13.15 -9.55 12.9 -9.7 11.25 -10.05 -0.4 Q-10.2 -4.8 -11.05 -9.1 L-11.2 -9.8 -11.5 -11.05 -11.65 -11.55 Q-11.8 -12.15 -12.1 -12.65 L-13.05 -14.2 -14.0 -15.85 -12.2 -15.55 -11.7 -13.8 -11.2 -12.6 -10.6 -11.3 -9.5 -8.65 Q-6.25 -0.55 -6.25 10.35 L-6.45 13.85 -7.35 20.3 -8.45 28.05 M-14.15 -16.1 L-14.75 -17.25 -15.1 -18.05 -16.25 -20.8 -15.9 -20.8 -14.45 -20.05 -14.0 -19.75 -13.65 -19.7 -13.65 -19.15 Q-13.65 -18.1 -13.95 -17.75 L-14.25 -17.25 -14.15 -16.1" fill="#98b8d7" fill-rule="evenodd" stroke="none"/>
      <path d="M8.95 27.4 L8.65 28.15 7.25 31.1 7.0 31.6 7.3 29.9 Q7.6 28.35 6.6 24.4 5.6 20.4 5.25 20.4 4.95 20.35 5.05 17.5 L5.05 16.9 5.25 11.5 4.4 1.9 3.5 -7.75 3.5 -9.0 4.8 -4.4 6.0 0.0 6.25 -6.0 5.95 -11.55 Q6.55 -11.7 6.8 -12.2 7.35 -11.85 7.75 -10.75 8.1 -9.75 8.5 -9.5 L8.75 -9.35 8.25 -6.75 Q7.75 -4.75 7.75 -3.5 L8.25 4.85 7.9 13.1 7.6 18.3 7.5 21.35 Q7.5 24.1 8.05 25.15 L8.95 27.4 M-7.9 31.05 L-8.45 28.2 -8.45 28.05 -7.35 20.3 -6.45 13.85 -6.25 10.35 Q-6.25 -0.55 -9.5 -8.65 L-10.6 -11.3 -11.2 -12.6 -11.7 -13.8 -12.2 -15.55 -11.4 -15.35 -11.1 -15.25 Q-10.8 -13.4 -10.1 -12.45 L-9.45 -11.6 -9.35 -11.5 -9.45 -10.6 -9.45 -9.6 -9.0 -11.1 -7.9 -9.7 -7.95 -9.35 -7.95 -8.5 Q-7.7 -7.85 -6.65 -7.75 -4.0 -2.85 -4.0 6.0 -4.0 9.25 -4.9 14.25 L-6.0 19.6 Q-7.55 26.3 -7.9 31.05 M5.9 -17.85 L6.55 -18.6 6.55 -18.55 Q6.55 -18.15 7.25 -17.55 7.75 -17.1 8.35 -16.95 L8.65 -15.95 8.7 -15.85 Q8.25 -15.3 8.25 -14.75 L8.5 -12.55 7.55 -13.4 7.05 -13.8 6.95 -14.15 Q6.95 -15.3 5.85 -15.5 L5.75 -15.5 5.75 -15.6 5.75 -15.75 5.9 -17.85" fill="#81a8cf" fill-rule="evenodd" stroke="none"/>
      <path d="M-1.2 -9.35 L-1.0 -3.0 0.1 4.25 1.1 10.25 0.7 15.85 0.1 21.15 0.0 21.25 0.15 18.75 Q0.15 12.35 -0.75 5.6 -1.6 -0.75 -1.65 -9.6 L-1.2 -9.35" fill="#64829f" fill-rule="evenodd" stroke="none"/>
      <path d="M0.15 -31.5 L0.95 -32.15 Q1.85 -32.6 2.15 -31.8 L2.7 -31.85 4.1 -31.6 4.75 -30.8 4.9 -30.6 2.25 -29.5 0.8 -28.8 0.8 -27.9 1.2 -27.2 1.9 -28.0 Q2.0 -28.25 2.05 -28.0 3.25 -28.2 6.05 -25.35 L5.95 -24.65 4.05 -24.65 Q3.2 -24.65 2.85 -24.15 L2.05 -23.65 Q1.45 -23.65 1.2 -24.75 L1.15 -24.9 0.85 -24.2 Q0.1 -22.55 0.3 -21.85 L0.15 -21.25 0.05 -21.2 0.6 -21.35 5.8 -21.85 5.9 -21.35 5.8 -21.25 5.3 -21.35 Q4.45 -21.35 0.05 -18.05 L-0.05 -18.0 -0.25 -17.85 -0.2 -17.8 -0.05 -17.6 -0.45 -16.85 -0.5 -16.85 -1.2 -16.25 -1.4 -16.25 -1.45 -16.2 -1.45 -16.15 -1.55 -16.0 -1.95 -15.6 -3.15 -16.3 -3.5 -16.6 -3.75 -17.5 -2.95 -18.45 -2.75 -19.25 -2.95 -20.8 Q-2.95 -21.8 -1.8 -22.8 L-0.85 -23.55 0.05 -24.35 0.6 -25.6 -1.65 -28.4 -1.95 -28.7 -3.55 -30.15 -3.65 -30.3 Q-5.1 -31.8 -5.1 -33.05 L-4.75 -33.8 -4.7 -33.8 -4.0 -34.35 -2.55 -32.05 Q-1.75 -31.1 -1.75 -30.0 L-1.75 -29.9 -0.45 -29.1 -0.4 -29.05 -0.45 -29.4 Q-0.45 -30.75 0.15 -31.5 M10.05 -19.45 L9.95 -18.8 9.9 -18.65 Q9.7 -18.25 9.05 -18.25 8.15 -18.25 7.75 -18.8 L7.55 -19.15 7.45 -20.1 Q7.45 -21.0 7.75 -21.45 8.05 -21.95 8.75 -22.0 9.5 -22.05 9.85 -21.35 L10.05 -19.85 10.05 -19.45 M7.05 -25.75 Q7.05 -26.6 8.45 -26.95 L9.1 -27.0 10.25 -26.85 10.8 -26.6 10.65 -26.0 9.95 -25.9 9.4 -26.0 8.55 -26.1 8.15 -26.15 Q8.0 -25.6 7.15 -25.35 L7.1 -25.3 7.05 -25.75 M-6.2 -12.2 L-5.75 -12.4 -5.3 -12.5 Q-3.95 -12.6 -3.95 -11.35 L-4.0 -10.65 -4.15 -10.25 Q-4.7 -9.35 -6.3 -9.35 L-7.2 -9.4 -7.2 -10.9 -6.95 -11.45 -6.2 -12.2 M6.95 -14.15 L6.95 -13.85 Q6.9 -12.85 5.9 -12.65 L5.3 -12.6 Q4.9 -12.6 4.7 -13.05 L4.55 -13.3 4.5 -13.5 4.3 -14.45 4.45 -15.15 4.75 -15.45 5.55 -15.55 5.65 -15.55 5.75 -15.5 5.85 -15.5 Q6.95 -15.3 6.95 -14.15 M-6.55 -25.25 L-6.5 -24.35 Q-6.5 -24.05 -6.75 -23.95 L-7.0 -23.5 Q-6.55 -23.35 -6.2 -22.6 L-6.1 -22.3 Q-6.1 -22.15 -6.45 -22.15 L-9.7 -23.25 Q-10.5 -23.25 -11.0 -22.65 L-11.25 -22.3 -11.7 -21.85 -12.0 -21.9 -12.1 -22.25 Q-12.1 -22.7 -11.1 -23.65 L-9.3 -25.25 Q-7.5 -26.6 -6.85 -25.9 L-4.65 -25.95 Q-2.1 -25.4 -2.1 -24.1 -2.1 -23.75 -2.35 -23.5 -2.6 -23.25 -2.95 -23.25 -4.1 -23.25 -4.9 -24.3 L-6.1 -25.35 -6.55 -25.25" fill="#ff0000" fill-rule="evenodd" stroke="none"/>
      <path d="M4.75 -30.8 L6.3 -29.7 7.2 -29.05 7.25 -28.3 Q7.6 -27.25 8.8 -27.25 L9.2 -27.25 9.8 -27.35 10.3 -27.0 11.15 -26.5 Q11.35 -25.55 11.7 -24.55 L12.15 -23.4 11.7 -22.8 11.4 -22.5 9.85 -21.35 Q9.5 -22.05 8.75 -22.0 8.05 -21.95 7.75 -21.45 7.45 -21.0 7.45 -20.1 L7.55 -19.15 7.75 -18.8 Q8.15 -18.25 9.05 -18.25 9.7 -18.25 9.9 -18.65 L9.95 -18.8 10.05 -19.45 10.05 -19.15 10.05 -18.8 9.7 -17.35 Q9.35 -16.9 8.8 -16.9 L8.35 -16.95 Q7.75 -17.1 7.25 -17.55 6.55 -18.15 6.55 -18.55 L6.55 -18.6 5.9 -17.85 5.35 -17.35 4.5 -16.65 3.95 -16.2 3.85 -16.15 Q2.45 -16.15 1.45 -17.0 L0.05 -18.05 Q4.45 -21.35 5.3 -21.35 L5.8 -21.25 5.9 -21.35 5.8 -21.85 0.6 -21.35 0.05 -21.2 0.15 -21.25 0.3 -21.85 Q0.1 -22.55 0.85 -24.2 L1.15 -24.9 1.2 -24.75 Q1.45 -23.65 2.05 -23.65 L2.85 -24.15 Q3.2 -24.65 4.05 -24.65 L5.95 -24.65 6.05 -25.35 Q3.25 -28.2 2.05 -28.0 2.0 -28.25 1.9 -28.0 L1.2 -27.2 0.8 -27.9 0.8 -28.8 2.25 -29.5 4.9 -30.6 4.75 -30.8 M-12.9 -19.55 L-12.95 -20.1 -13.0 -20.15 -13.25 -22.25 -13.15 -22.55 -12.85 -23.15 -11.55 -24.95 -10.85 -25.75 -10.65 -25.95 -10.55 -26.4 -9.35 -27.75 -5.55 -30.85 -3.65 -30.3 -3.55 -30.15 -1.95 -28.7 -1.35 -27.0 -1.45 -25.9 -1.1 -24.25 -0.85 -23.55 -1.8 -22.8 Q-2.95 -21.8 -2.95 -20.8 L-2.75 -19.25 -2.95 -18.45 -3.75 -17.5 -3.5 -16.6 -3.15 -16.3 -1.95 -15.6 -1.55 -16.0 -1.45 -16.15 -1.7 -14.9 -2.45 -14.6 Q-3.1 -14.7 -3.6 -15.15 L-4.1 -15.75 -4.85 -17.25 Q-5.55 -18.9 -8.2 -18.6 L-8.2 -19.4 -8.95 -19.65 -9.85 -20.15 -10.9 -19.75 -11.25 -19.65 -11.35 -19.6 -11.85 -19.5 -12.9 -19.55 M7.05 -25.75 L7.1 -25.3 7.15 -25.35 Q8.0 -25.6 8.15 -26.15 L8.55 -26.1 9.4 -26.0 9.95 -25.9 10.65 -26.0 10.8 -26.6 10.25 -26.85 9.1 -27.0 8.45 -26.95 Q7.05 -26.6 7.05 -25.75 M-4.0 -10.65 L-4.1 -10.25 -4.7 -9.1 -5.5 -8.0 Q-5.85 -7.75 -6.2 -7.75 L-6.65 -7.75 Q-7.7 -7.85 -7.95 -8.5 L-7.95 -9.35 -7.9 -9.7 Q-7.8 -10.8 -6.95 -11.45 L-7.2 -10.9 -7.2 -9.4 -6.3 -9.35 Q-4.7 -9.35 -4.15 -10.25 L-4.0 -10.65 M4.45 -15.15 L4.3 -14.45 4.5 -13.5 4.55 -13.3 4.7 -13.05 Q4.9 -12.6 5.3 -12.6 L5.9 -12.65 Q6.9 -12.85 6.95 -13.85 L6.95 -14.15 7.05 -13.8 7.05 -13.3 6.8 -12.2 Q6.55 -11.7 5.95 -11.55 L5.4 -11.5 Q4.35 -11.5 3.9 -12.55 L3.65 -13.65 3.65 -13.85 Q3.75 -14.85 4.45 -15.15 M-6.55 -25.25 L-6.1 -25.35 -4.9 -24.3 Q-4.1 -23.25 -2.95 -23.25 -2.6 -23.25 -2.35 -23.5 -2.1 -23.75 -2.1 -24.1 -2.1 -25.4 -4.65 -25.95 L-6.85 -25.9 Q-7.5 -26.6 -9.3 -25.25 L-11.1 -23.65 Q-12.1 -22.7 -12.1 -22.25 L-12.0 -21.9 -11.7 -21.85 -11.25 -22.3 -11.0 -22.65 Q-10.5 -23.25 -9.7 -23.25 L-6.45 -22.15 Q-6.1 -22.15 -6.1 -22.3 L-6.2 -22.6 Q-6.55 -23.35 -7.0 -23.5 L-6.75 -23.95 Q-6.5 -24.05 -6.5 -24.35 L-6.55 -25.25 M-0.05 -18.0 L-0.2 -17.8 -0.25 -17.85 -0.05 -18.0" fill="#990000" fill-rule="evenodd" stroke="none"/>
      <path d="M12.15 -23.4 L12.4 -22.85 12.45 -22.5 12.45 -21.55 12.45 -21.1 11.95 -20.45 11.4 -19.85 10.05 -19.85 9.85 -21.35 11.4 -22.5 11.7 -22.8 12.15 -23.4 M0.05 -18.05 L1.45 -17.0 Q2.45 -16.15 3.85 -16.15 L3.95 -16.2 3.75 -15.3 3.4 -14.05 3.4 -14.0 Q2.7 -11.35 2.55 -9.6 L2.3 -9.6 0.95 -14.15 0.9 -14.25 0.75 -14.6 -0.45 -16.85 -0.05 -17.6 -0.2 -17.8 -0.05 -18.0 0.05 -18.05 M-4.1 -15.75 L-6.0 -14.55 -6.45 -14.2 -6.7 -14.2 -8.45 -14.65 -8.95 -14.85 -8.95 -15.15 -8.95 -16.1 -10.45 -16.35 -10.2 -16.35 -10.05 -17.05 -9.95 -17.85 Q-9.95 -18.6 -10.9 -19.75 L-9.85 -20.15 -8.95 -19.65 -8.2 -19.4 -8.2 -18.6 Q-5.55 -18.9 -4.85 -17.25 L-4.1 -15.75 M-2.65 -10.75 L-2.7 -11.1 -2.3 -12.4 -1.95 -13.0 -1.65 -13.05 -1.3 -13.15 -0.6 -13.05 Q0.05 -12.75 0.05 -11.35 0.05 -10.75 -0.2 -10.1 -0.55 -9.35 -1.05 -9.35 L-1.2 -9.35 -1.65 -9.6 -1.95 -9.85 -2.65 -10.75" fill="#ebbc8d" fill-rule="evenodd" stroke="none"/>
      <path d="M-4.7 -33.8 Q-4.55 -35.9 -3.15 -35.95 -1.65 -36.05 -1.6 -34.5 -0.2 -33.2 0.15 -31.5 -0.45 -30.75 -0.45 -29.4 L-0.4 -29.05 -0.45 -29.1 -1.75 -29.9 -1.75 -30.0 Q-1.75 -31.1 -2.55 -32.05 L-4.0 -34.35 -4.7 -33.8 M-1.95 -28.7 L-1.65 -28.4 0.6 -25.6 0.05 -24.35 -0.85 -23.55 -1.1 -24.25 -1.45 -25.9 -1.35 -27.0 -1.95 -28.7" fill="#ffffff" fill-rule="evenodd" stroke="none"/>
      <path d="M-6.45 -14.2 L-6.6 -14.05 -8.6 -11.9 -9.0 -11.1 -9.45 -9.6 -9.45 -10.6 -9.35 -11.5 -9.3 -11.65 -8.95 -12.6 -8.95 -14.85 -8.45 -14.65 -6.7 -14.2 -6.45 -14.2" fill="#d8ac8c" fill-rule="evenodd" stroke="none"/>
      <path d="M-14.0 -15.85 L-14.15 -16.1 -14.25 -17.25 -13.95 -17.75 Q-13.65 -18.1 -13.65 -19.15 L-13.65 -19.7 -12.9 -19.55 -11.85 -19.5 -11.35 -19.6 -11.25 -19.65 -10.9 -19.75 Q-9.95 -18.6 -9.95 -17.85 L-10.05 -17.05 -10.2 -16.35 -10.45 -16.35 -8.95 -16.1 -8.95 -15.15 -9.45 -15.15 -11.1 -15.25 -11.4 -15.35 -12.2 -15.55 -14.0 -15.85 M3.95 -16.2 L4.5 -16.65 5.35 -17.35 5.75 -15.75 5.75 -15.6 5.75 -15.5 5.65 -15.55 5.55 -15.55 4.75 -15.45 4.45 -15.15 Q3.75 -14.85 3.65 -13.85 L3.4 -14.0 3.4 -14.05 3.75 -15.3 3.95 -16.2 M8.35 -16.95 L8.8 -16.9 Q9.35 -16.9 9.7 -17.35 L10.05 -18.8 Q11.25 -18.3 11.25 -16.75 L11.0 -15.5 Q10.65 -14.75 10.1 -14.75 9.25 -14.75 8.75 -15.75 L8.7 -15.85 8.65 -15.95 8.35 -16.95 M-0.45 -16.85 L0.75 -14.6 0.9 -14.25 0.5 -14.25 -0.6 -13.05 -1.3 -13.15 -1.65 -13.05 -1.95 -13.0 -2.3 -12.4 -2.7 -11.1 -2.65 -10.75 -4.1 -10.25 -4.0 -10.65 -3.95 -11.35 Q-3.95 -12.6 -5.3 -12.5 L-5.75 -12.4 -6.2 -12.2 -6.25 -12.6 -6.3 -13.0 -6.6 -14.05 -6.45 -14.2 -6.0 -14.55 -4.1 -15.75 -3.6 -15.15 Q-3.1 -14.7 -2.45 -14.6 L-1.7 -14.9 -1.45 -16.15 -1.45 -16.2 -1.4 -16.25 -1.2 -16.25 -0.5 -16.85 -0.45 -16.85 M6.8 -12.2 L7.05 -13.3 7.05 -13.8 7.55 -13.4 8.5 -12.55 Q9.5 -11.45 9.5 -9.75 L9.5 -8.75 8.75 -9.35 8.5 -9.5 Q8.1 -9.75 7.75 -10.75 7.35 -11.85 6.8 -12.2" fill="#864f62" fill-rule="evenodd" stroke="none"/>
    </g>
  </defs>
</svg>
