<?xml version="1.0" encoding="UTF-8" standalone="no"?>
<svg xmlns:ffdec="https://www.free-decompiler.com/flash" xmlns:xlink="http://www.w3.org/1999/xlink" ffdec:objectType="frame" height="47.9px" width="26.6px" xmlns="http://www.w3.org/2000/svg">
  <g transform="matrix(1.0, 0.0, 0.0, 1.0, 11.6, 26.8)">
    <use ffdec:characterId="2468" height="47.9" transform="matrix(1.0, 0.0, 0.0, 1.0, -11.6, -26.8)" width="26.6" xlink:href="#shape0"/>
  </g>
  <defs>
    <g id="shape0" transform="matrix(1.0, 0.0, 0.0, 1.0, 11.6, 26.8)">
      <path d="M0.35 -17.4 L1.55 -15.95 -1.05 -12.65 -0.6 -12.05 0.75 -12.35 1.95 -10.85 2.8 -10.75 3.6 -9.85 2.95 -8.15 4.35 -7.0 4.8 -5.8 5.2 -6.6 5.7 -6.6 5.25 -9.55 5.95 -9.75 6.0 -8.3 7.15 -7.6 6.35 -6.85 6.8 -4.15 5.45 -5.2 5.6 -4.0 6.55 -3.65 5.9 -3.5 8.0 -1.4 6.8 -1.8 5.2 1.2 4.25 0.8 3.25 1.4 4.15 -1.75 2.4 -3.25 2.2 -3.65 3.5 -3.65 3.15 -4.7 Q1.5 -9.2 -3.1 -10.8 L-2.75 -11.15 -2.65 -11.6 -3.9 -14.6 -2.85 -14.85 Q-0.8 -15.4 0.35 -17.4 M4.45 -13.95 L4.45 -13.8 Q4.0 -12.9 4.0 -12.1 L4.15 -11.55 2.65 -13.9 3.6 -13.55 4.45 -13.95 M12.55 -6.0 L12.35 -4.85 15.0 -1.7 11.25 -0.4 9.85 -0.75 9.6 -0.05 11.6 2.65 12.25 2.45 11.0 3.65 7.3 5.25 9.35 6.3 9.5 7.9 11.15 6.05 10.35 8.0 10.5 8.8 Q10.95 12.2 8.1 14.25 L3.65 16.95 3.45 17.85 2.25 18.3 6.7 10.4 5.45 9.0 5.55 8.35 4.45 7.2 3.45 8.05 5.35 5.9 5.7 2.65 6.5 1.05 7.9 0.8 8.5 -1.25 8.95 -1.55 9.6 -1.35 10.2 -1.35 10.7 -1.6 11.7 -2.15 11.8 -3.7 9.45 -4.45 8.9 -3.85 8.4 -3.9 9.3 -5.15 8.05 -7.55 9.7 -7.45 11.55 -4.85 12.0 -4.95 12.55 -6.0 M-1.8 19.45 L-2.35 19.85 Q-2.95 19.05 -4.45 18.35 L-4.05 17.35 Q-4.05 16.55 -4.2 16.0 L-4.3 13.25 -4.95 12.95 -2.2 11.2 -2.6 14.9 -1.9 15.45 -2.3 17.55 1.35 12.1 1.6 15.35 1.5 16.1 0.8 18.4 1.5 18.55 1.0 18.85 Q0.05 19.35 -1.45 19.35 L-1.8 19.45 M-2.35 -21.6 L-2.45 -21.6 -2.55 -21.25 -3.6 -20.45 -3.6 -20.5 -2.65 -21.75 -2.35 -21.6 M-2.6 -18.05 L-1.95 -18.15 -2.65 -17.75 -2.6 -18.05 M1.8 -6.75 L2.25 -5.85 2.5 -5.25 1.75 -4.35 0.5 -2.75 0.3 -2.45 0.1 -2.35 -0.2 -2.4 -1.05 -2.65 -1.1 -2.8 -1.5 -3.9 -1.3 -4.4 -0.75 -3.15 Q-0.45 -3.2 -0.25 -3.35 L-0.15 -3.35 Q1.8 -4.4 1.8 -6.75 M-4.5 -15.9 L-4.6 -16.1 -5.1 -16.25 -4.85 -16.45 -4.55 -16.75 -4.5 -15.9 M-1.55 -7.6 Q-1.6 -6.65 -2.3 -6.2 L-2.85 -6.0 -3.25 -6.55 -3.4 -6.95 -3.45 -7.15 -3.55 -7.35 -3.95 -7.8 Q-3.0 -7.2 -1.9 -7.25 L-1.55 -7.6 M-2.55 -3.9 Q-1.5 -1.8 -2.95 -0.35 -3.45 0.15 -4.2 0.05 L-4.65 0.05 Q-6.4 -0.2 -6.7 -1.9 -5.75 -0.85 -4.45 -0.65 L-3.85 -0.6 Q-2.9 -1.0 -2.6 -1.8 L-2.55 -2.15 -2.55 -3.9 M-7.05 -8.85 L-6.65 -8.4 -5.3 -8.55 -4.7 -8.2 -5.6 -7.8 -6.05 -7.85 -6.55 -7.95 -7.05 -8.85 M-5.75 13.0 L-6.7 14.2 -6.7 14.15 Q-6.6 13.65 -5.75 13.0" fill="#990000" fill-rule="evenodd" stroke="none"/>
      <path d="M-1.95 -18.15 L0.05 -18.3 0.35 -17.4 Q-0.8 -15.4 -2.85 -14.85 L-3.9 -14.6 -4.55 -14.9 -4.5 -15.9 -4.55 -16.75 -3.6 -20.45 -2.55 -21.25 -2.2 -20.5 Q-1.65 -19.1 -2.6 -18.05 L-2.65 -17.75 -1.95 -18.15 M1.55 -15.95 L4.6 -15.1 4.45 -13.95 3.6 -13.55 2.65 -13.9 4.15 -11.55 5.25 -9.55 5.7 -6.6 5.2 -6.6 4.8 -5.8 4.35 -7.0 2.95 -8.15 3.6 -9.85 2.8 -10.75 1.95 -10.85 0.75 -12.35 -0.6 -12.05 -1.05 -12.65 1.55 -15.95 M5.95 -9.75 L7.05 -9.85 Q11.25 -9.95 12.55 -6.0 L12.0 -4.95 11.55 -4.85 9.7 -7.45 8.05 -7.55 9.3 -5.15 8.4 -3.9 8.9 -3.85 9.45 -4.45 11.8 -3.7 11.7 -2.15 10.7 -1.6 10.2 -1.35 9.6 -1.35 8.95 -1.55 8.5 -1.25 8.0 -1.4 5.9 -3.5 6.55 -3.65 5.6 -4.0 5.45 -5.2 6.8 -4.15 6.35 -6.85 7.15 -7.6 6.0 -8.3 5.95 -9.75 M11.25 -0.4 L11.7 0.1 Q12.65 1.1 12.25 2.45 L11.6 2.65 9.6 -0.05 9.85 -0.75 11.25 -0.4 M11.0 3.65 L11.4 4.65 Q11.6 5.3 11.15 6.05 L9.5 7.9 9.35 6.3 7.3 5.25 11.0 3.65 M-4.2 16.0 L-4.5 16.35 -5.25 16.6 Q-6.6 16.6 -7.35 15.75 L-6.7 14.2 -5.75 13.0 -5.1 12.0 -3.9 11.45 Q-1.5 10.3 1.2 10.2 L2.85 10.5 3.65 9.9 Q3.35 9.05 3.45 8.3 L3.4 8.1 3.45 8.05 4.45 7.2 5.55 8.35 5.45 9.0 6.7 10.4 2.25 18.3 1.5 18.55 0.8 18.4 1.5 16.1 1.6 15.35 1.35 12.1 -2.3 17.55 -1.9 15.45 -2.6 14.9 -2.2 11.2 -4.95 12.95 -4.3 13.25 -4.2 16.0 M0.1 -6.45 L0.25 -7.1 1.4 -7.2 1.8 -6.75 Q1.8 -4.4 -0.15 -3.35 L-0.25 -3.35 Q-0.45 -3.2 -0.75 -3.15 L-1.3 -4.4 0.0 -5.8 0.1 -6.45 M-2.8 5.75 Q-2.35 4.95 -1.35 5.3 0.0 5.7 0.4 6.75 L0.5 7.6 Q0.5 8.2 0.15 8.8 -0.4 9.8 -1.65 9.8 -2.6 9.8 -2.95 9.2 L-3.05 9.05 -3.15 8.8 -3.2 7.7 Q-3.2 6.35 -2.8 5.75 M-1.5 -8.0 L-1.55 -7.6 -1.9 -7.25 Q-3.0 -7.2 -3.95 -7.8 L-4.25 -8.0 -4.7 -8.2 -5.3 -8.55 -6.65 -8.4 -7.05 -8.85 Q-7.2 -9.8 -6.6 -10.55 L-6.4 -10.85 -6.1 -11.25 -5.4 -11.4 -1.8 -8.6 -1.5 -8.0 M-3.65 -4.85 L-3.0 -4.4 -2.55 -3.9 -2.55 -2.15 -2.6 -1.8 Q-2.9 -1.0 -3.85 -0.6 L-4.45 -0.65 Q-5.75 -0.85 -6.7 -1.9 L-6.15 -3.5 -5.75 -4.25 -5.15 -4.9 -4.9 -4.95 -3.65 -4.85" fill="#ff0000" fill-rule="evenodd" stroke="none"/>
      <path d="M5.65 18.7 L4.65 19.65 3.55 19.65 2.1 21.1 0.85 21.1 0.25 20.8 Q-0.7 20.1 -1.8 19.45 L-1.45 19.35 Q0.05 19.35 1.0 18.85 L1.5 18.55 2.25 18.3 3.45 17.85 4.45 18.15 5.15 17.2 5.85 17.15 5.65 18.7 M-6.25 -20.35 L-5.65 -20.2 Q-4.0 -20.2 -2.9 -21.95 L-2.45 -22.7 -1.2 -22.7 -1.8 -22.05 -1.9 -21.8 -2.35 -21.6 -2.65 -21.75 -3.6 -20.5 -3.6 -20.45 -4.55 -16.75 -4.85 -16.45 -5.1 -16.25 -4.6 -16.1 -4.5 -15.9 -4.55 -14.9 -3.9 -14.6 -2.65 -11.6 -2.75 -11.15 -3.1 -10.8 Q1.5 -9.2 3.15 -4.7 L3.5 -3.65 2.2 -3.65 1.75 -4.35 2.5 -5.25 2.25 -5.85 1.8 -6.75 1.4 -7.2 0.25 -7.1 0.1 -6.45 -0.4 -6.8 -1.35 -7.95 -1.5 -8.0 -1.8 -8.6 -5.4 -11.4 -6.1 -11.25 -6.3 -11.45 -6.6 -11.75 -6.75 -15.4 -6.3 -15.7 -6.5 -16.45 -6.4 -17.9 -5.95 -19.35 -6.25 -20.35 M8.5 -1.25 L7.9 0.8 6.5 1.05 5.7 2.65 5.65 2.65 5.55 3.7 Q3.55 4.05 1.95 2.9 L2.7 2.0 2.25 1.75 Q1.65 0.35 1.6 -1.2 L1.2 -1.6 Q1.15 -1.95 1.25 -2.3 L1.55 -3.2 2.4 -3.25 4.15 -1.75 3.25 1.4 4.25 0.8 5.2 1.2 6.8 -1.8 8.0 -1.4 8.5 -1.25" fill="#834753" fill-rule="evenodd" stroke="none"/>
      <path d="M8.1 14.25 L8.3 16.15 8.2 17.15 7.35 17.1 5.65 18.7 5.85 17.15 5.15 17.2 4.45 18.15 3.45 17.85 3.65 16.95 8.1 14.25 M-7.35 15.75 Q-8.2 16.5 -8.0 17.85 L-9.15 20.2 -9.2 20.3 -9.1 17.9 -10.4 7.45 -10.7 5.0 Q-11.35 0.25 -11.55 -6.15 L-11.55 -9.95 -10.8 -5.75 Q-9.95 -1.55 -9.05 0.55 -8.25 2.35 -6.75 6.75 -5.75 9.65 -5.3 11.25 L-5.1 12.0 -5.75 13.0 Q-6.6 13.65 -6.7 14.15 L-6.7 14.2 -7.35 15.75 M5.7 2.65 L5.35 5.9 3.45 8.05 3.4 8.1 3.45 8.3 Q3.35 9.05 3.65 9.9 L2.85 10.5 1.2 10.2 1.9 5.65 0.4 6.75 Q0.0 5.7 -1.35 5.3 -2.35 4.95 -2.8 5.75 L-2.75 5.4 -2.45 4.45 -1.35 2.15 Q-0.35 -0.05 -0.2 -2.4 L0.1 -2.35 0.3 -2.45 0.5 -2.75 1.75 -4.35 2.2 -3.65 2.4 -3.25 1.55 -3.2 1.25 -2.3 Q1.15 -1.95 1.2 -1.6 L1.6 -1.2 Q1.65 0.35 2.25 1.75 L2.7 2.0 1.95 2.9 Q3.55 4.05 5.55 3.7 L5.65 2.65 5.7 2.65 M0.1 -6.45 L0.0 -5.8 -1.3 -4.4 -1.5 -3.9 -1.1 -2.8 Q-2.2 1.1 -4.85 4.25 L-5.55 2.85 -4.65 0.05 -4.2 0.05 Q-3.45 0.15 -2.95 -0.35 -1.5 -1.8 -2.55 -3.9 L-3.0 -4.4 -3.65 -4.85 -3.4 -6.95 -3.25 -6.55 -2.85 -6.0 -2.3 -6.2 Q-1.6 -6.65 -1.55 -7.6 L-1.5 -8.0 -1.35 -7.95 -0.4 -6.8 0.1 -6.45 M-6.3 -11.45 L-6.1 -11.25 -6.4 -10.85 -6.3 -11.45 M-4.7 -8.2 L-4.25 -8.0 -3.95 -7.8 -3.55 -7.35 -3.45 -7.15 -4.9 -4.95 -5.15 -4.9 -5.75 -4.25 -6.15 -3.5 -6.05 -7.85 -5.6 -7.8 -4.7 -8.2 M-3.05 9.05 L-2.95 9.2 -3.05 9.25 -3.05 9.05" fill="#727e94" fill-rule="evenodd" stroke="none"/>
      <path d="M-11.55 -9.95 L-11.2 -14.05 -10.25 -18.4 -9.75 -18.35 Q-8.9 -18.35 -8.05 -19.45 -7.3 -20.4 -7.3 -20.95 -7.3 -22.6 -8.35 -23.4 L-8.1 -23.9 -8.1 -23.95 -7.7 -24.75 -7.5 -24.9 -7.45 -24.95 -6.25 -26.8 -6.25 -23.5 Q-6.7 -22.85 -6.7 -21.75 -6.85 -20.7 -6.25 -20.35 L-5.95 -19.35 -6.4 -17.9 -6.5 -16.45 -6.3 -15.7 -6.75 -15.4 -6.6 -11.75 -6.3 -11.45 -6.4 -10.85 -6.6 -10.55 Q-7.2 -9.8 -7.05 -8.85 L-6.55 -7.95 -6.05 -7.85 -6.15 -3.5 -6.7 -1.9 Q-6.4 -0.2 -4.65 0.05 L-5.55 2.85 -4.85 4.25 Q-2.2 1.1 -1.1 -2.8 L-1.05 -2.65 -0.2 -2.4 Q-0.35 -0.05 -1.35 2.15 L-2.45 4.45 -2.75 5.4 -2.8 5.75 Q-3.2 6.35 -3.2 7.7 L-3.15 8.8 -3.05 9.05 -3.05 9.25 -2.95 9.2 Q-2.6 9.8 -1.65 9.8 -0.4 9.8 0.15 8.8 0.5 8.2 0.5 7.6 L0.4 6.75 1.9 5.65 1.2 10.2 Q-1.5 10.3 -3.9 11.45 L-5.1 12.0 -5.3 11.25 Q-5.75 9.65 -6.75 6.75 -8.25 2.35 -9.05 0.55 -9.95 -1.55 -10.8 -5.75 L-11.55 -9.95 M-3.4 -6.95 L-3.65 -4.85 -4.9 -4.95 -3.45 -7.15 -3.4 -6.95" fill="#9299a9" fill-rule="evenodd" stroke="none"/>
    </g>
  </defs>
</svg>
