<?xml version="1.0" encoding="UTF-8" standalone="no"?>
<svg xmlns:ffdec="https://www.free-decompiler.com/flash" xmlns:xlink="http://www.w3.org/1999/xlink" ffdec:objectType="frame" height="87.8px" width="40.1px" xmlns="http://www.w3.org/2000/svg">
  <g transform="matrix(1.0, 0.0, 0.0, 1.0, 20.45, 44.95)">
    <use ffdec:characterId="1791" height="87.8" transform="matrix(1.0, 0.0, 0.0, 1.0, -20.45, -44.95)" width="40.05" xlink:href="#shape0"/>
    <use ffdec:characterId="1793" height="23.95" transform="matrix(1.0, 0.0, 0.0, 1.0, -4.55, -0.5)" width="17.75" xlink:href="#sprite0"/>
    <use ffdec:characterId="1081" height="100.0" id="shape" transform="matrix(0.3, 0.0, 0.0, 0.82, -14.9994, -40.9988)" width="100.0" xlink:href="#sprite1"/>
  </g>
  <defs>
    <g id="shape0" transform="matrix(1.0, 0.0, 0.0, 1.0, 20.45, 44.95)">
      <path d="M9.45 -42.15 L10.25 -41.8 13.95 -39.75 15.75 -38.0 Q16.85 -36.55 17.0 -34.9 L18.05 -32.75 18.1 -32.35 18.45 -31.8 18.9 -30.15 19.25 -28.5 19.6 -24.1 19.25 -21.45 Q18.5 -22.05 17.65 -22.2 L17.15 -22.25 Q14.9 -22.25 13.55 -21.45 L13.45 -21.45 Q14.1 -22.7 14.1 -23.5 14.1 -25.65 13.75 -26.95 15.0 -27.3 15.0 -28.8 14.95 -29.8 14.55 -30.3 14.1 -30.85 13.35 -30.85 12.0 -30.85 11.7 -29.95 L11.65 -29.0 10.85 -28.85 Q9.55 -28.45 8.55 -27.0 L8.15 -26.35 7.95 -26.75 8.15 -26.9 8.55 -27.7 8.55 -27.75 10.85 -29.25 10.8 -29.55 Q11.35 -30.1 11.5 -30.6 L11.5 -30.85 11.45 -31.3 11.25 -31.4 10.85 -31.5 10.45 -31.4 10.2 -31.25 9.85 -31.0 9.45 -32.15 9.6 -32.35 10.65 -34.5 11.5 -36.85 12.05 -37.85 12.1 -38.35 12.1 -38.45 11.9 -40.35 10.6 -41.4 10.35 -41.6 9.6 -42.1 9.45 -42.15 M-18.9 -27.75 L-20.45 -27.55 Q-20.3 -35.25 -15.65 -39.8 L-14.65 -40.7 -14.3 -41.0 -12.15 -42.35 -13.2 -41.55 -14.4 -39.4 -15.0 -37.85 Q-15.2 -36.95 -16.25 -34.6 L-16.35 -31.6 -16.4 -31.1 -16.35 -31.15 -16.25 -31.25 -16.15 -31.1 Q-15.4 -30.15 -14.6 -27.95 L-14.5 -27.7 Q-15.45 -27.15 -15.7 -26.05 L-15.9 -25.95 -15.95 -26.1 -16.55 -26.9 Q-17.45 -27.75 -18.8 -27.75 L-18.9 -27.75" fill="#6a502d" fill-rule="evenodd" stroke="none"/>
      <path d="M9.45 -42.15 L9.6 -42.1 10.35 -41.6 10.6 -41.4 11.9 -40.35 12.1 -38.45 12.1 -38.35 12.05 -37.85 11.5 -36.85 10.65 -34.5 9.6 -32.35 9.45 -32.15 9.85 -31.0 10.2 -31.25 10.45 -31.4 10.85 -31.5 11.25 -31.4 11.45 -31.3 11.5 -30.85 11.5 -30.6 Q11.35 -30.1 10.8 -29.55 L10.85 -29.25 8.55 -27.75 8.55 -27.7 8.15 -26.9 7.95 -26.75 8.15 -26.35 7.65 -24.8 Q7.2 -25.4 6.45 -25.4 5.2 -25.4 4.5 -24.85 L4.5 -25.35 4.5 -25.95 4.1 -27.3 Q5.95 -27.55 5.95 -29.65 5.95 -32.35 3.7 -32.35 2.75 -32.35 2.2 -31.1 L1.85 -29.9 Q0.6 -30.75 -0.9 -31.05 L-1.65 -31.15 -1.95 -32.5 -2.55 -33.4 -3.1 -33.9 -3.8 -34.1 Q-4.6 -34.1 -4.9 -33.5 -5.4 -33.15 -5.4 -32.35 L-5.25 -31.5 -4.95 -31.0 -5.2 -30.7 -5.75 -30.25 Q-6.15 -30.85 -7.1 -30.95 L-7.15 -31.0 -7.2 -31.0 -7.25 -31.0 Q-9.0 -31.15 -9.0 -29.35 L-8.85 -28.35 Q-8.65 -27.7 -8.15 -27.5 -8.0 -27.0 -7.05 -26.85 L-6.95 -25.7 -6.9 -25.45 -6.95 -25.45 Q-8.85 -24.75 -9.25 -23.3 L-9.5 -23.45 -9.7 -23.55 -11.4 -24.35 -11.35 -24.55 -11.1 -25.75 Q-11.1 -27.15 -11.55 -27.7 -12.2 -28.65 -13.15 -28.2 L-13.6 -28.1 -14.5 -27.7 -14.6 -27.95 Q-15.4 -30.15 -16.15 -31.1 L-16.25 -31.25 -16.35 -31.15 -16.4 -31.1 -16.35 -31.6 -16.25 -34.6 Q-15.2 -36.95 -15.0 -37.85 L-14.4 -39.4 -13.2 -41.55 -12.15 -42.35 -12.05 -42.4 -11.35 -42.8 -9.1 -43.8 Q-5.5 -45.15 -0.6 -44.9 L2.1 -44.5 4.2 -44.05 Q5.35 -43.85 8.9 -42.4 L9.2 -42.25 9.45 -42.15 M5.55 -33.7 Q5.55 -32.75 6.75 -32.75 7.75 -32.75 7.75 -33.35 7.75 -34.75 6.65 -34.85 5.55 -34.95 5.55 -33.7" fill="#554024" fill-rule="evenodd" stroke="none"/>
      <path d="M5.55 -33.7 Q5.55 -34.95 6.65 -34.85 7.75 -34.75 7.75 -33.35 7.75 -32.75 6.75 -32.75 5.55 -32.75 5.55 -33.7 M-9.7 -23.55 L-9.5 -23.45 -9.25 -23.3 Q-8.85 -24.75 -6.95 -25.45 L-6.9 -25.45 -6.95 -25.7 -7.05 -26.85 Q-8.0 -27.0 -8.15 -27.5 -8.65 -27.7 -8.85 -28.35 L-9.0 -29.35 Q-9.0 -31.15 -7.25 -31.0 L-7.2 -31.0 -7.15 -31.0 -7.1 -30.95 Q-6.15 -30.85 -5.75 -30.25 L-5.2 -30.7 -4.95 -31.0 -5.25 -31.5 -5.4 -32.35 Q-5.4 -33.15 -4.9 -33.5 -4.6 -34.1 -3.8 -34.1 L-3.1 -33.9 -2.55 -33.4 -1.95 -32.5 -1.65 -31.15 -0.9 -31.05 Q0.6 -30.75 1.85 -29.9 L2.2 -31.1 Q2.75 -32.35 3.7 -32.35 5.95 -32.35 5.95 -29.65 5.95 -27.55 4.1 -27.3 L4.5 -25.95 3.65 -24.6 3.5 -24.15 Q2.7 -21.45 2.7 -19.5 2.7 -18.3 3.25 -17.25 L3.75 -15.95 3.65 -15.4 3.65 -15.3 3.55 -15.25 3.3 -14.95 2.6 -14.25 2.55 -13.1 2.55 -11.8 2.6 -11.6 Q2.75 -11.0 3.1 -10.75 L3.4 -9.45 3.55 -8.8 Q2.55 -8.4 1.7 -7.15 L1.35 -6.4 1.05 -8.55 Q0.75 -9.65 0.1 -10.05 L-0.2 -10.2 -1.65 -10.15 Q-2.8 -9.8 -3.75 -8.65 -4.65 -7.6 -4.7 -6.6 L-4.75 -6.8 Q-5.55 -8.35 -7.25 -8.6 L-7.05 -9.9 Q-7.05 -12.95 -9.6 -12.85 L-10.6 -12.7 -11.05 -15.1 -10.7 -18.45 -10.4 -21.7 Q-10.4 -23.45 -9.8 -23.1 L-9.7 -23.55 M-4.15 -18.25 L-4.05 -17.7 -4.2 -18.45 -4.2 -18.35 -4.15 -18.25 M-3.95 -15.15 L-3.6 -15.35 -3.6 -15.4 -3.6 -15.35 -3.95 -15.15 M-2.85 -14.3 L-2.7 -13.4 Q-2.4 -12.45 -1.35 -12.45 0.0 -12.45 0.0 -13.65 0.0 -15.7 -1.4 -15.75 -2.85 -15.85 -2.85 -14.3" fill="#82bfe3" fill-rule="evenodd" stroke="none"/>
      <path d="M8.15 -26.35 L8.55 -27.0 Q9.55 -28.45 10.85 -28.85 L11.65 -29.0 11.7 -29.95 Q12.0 -30.85 13.35 -30.85 14.1 -30.85 14.55 -30.3 L13.15 -27.35 12.95 -26.95 11.05 -23.7 11.45 -22.75 Q11.45 -22.3 10.9 -22.3 L10.65 -22.3 9.5 -23.7 Q7.2 -26.25 7.2 -22.8 7.2 -21.95 7.75 -20.85 L8.55 -19.5 Q9.9 -17.55 9.9 -15.75 9.9 -15.05 9.1 -12.4 L9.05 -12.3 9.05 -12.2 8.65 -11.05 Q6.55 -10.85 6.5 -8.35 5.9 -9.05 4.6 -9.05 L3.55 -8.8 3.4 -9.45 3.1 -10.75 Q2.75 -11.0 2.6 -11.6 L2.55 -11.8 2.55 -13.1 2.6 -14.25 3.3 -14.95 3.55 -15.25 3.65 -15.3 3.65 -15.4 3.75 -15.95 3.25 -17.25 Q2.7 -18.3 2.7 -19.5 2.7 -21.45 3.5 -24.15 L3.65 -24.6 4.5 -25.95 4.5 -25.35 4.5 -24.85 Q5.2 -25.4 6.45 -25.4 7.2 -25.4 7.65 -24.8 L8.15 -26.35 M-9.7 -23.55 L-9.8 -23.1 Q-10.4 -23.45 -10.4 -21.7 L-10.7 -18.45 -11.05 -15.1 -10.6 -12.7 Q-12.1 -12.25 -12.15 -10.45 -14.2 -10.3 -15.15 -9.3 -15.4 -10.15 -15.95 -10.8 L-15.95 -13.9 -14.9 -16.45 -15.15 -17.7 -14.7 -19.15 -14.4 -20.85 Q-14.1 -21.65 -14.1 -22.3 L-14.1 -22.5 -14.15 -22.45 -14.35 -22.6 -14.55 -22.75 -14.7 -22.75 -15.35 -22.9 Q-16.15 -23.05 -16.45 -25.3 L-16.55 -26.9 -15.95 -26.1 -15.9 -25.95 -15.7 -26.05 Q-15.45 -27.15 -14.5 -27.7 L-13.6 -28.1 -13.15 -28.2 Q-12.2 -28.65 -11.55 -27.7 -11.1 -27.15 -11.1 -25.75 L-11.35 -24.55 -11.4 -24.35 -9.7 -23.55 M-15.2 -25.05 L-15.1 -25.35 -15.3 -25.7 -15.2 -25.05" fill="#9ecde9" fill-rule="evenodd" stroke="none"/>
      <path d="M14.55 -30.3 Q14.95 -29.8 15.0 -28.8 15.0 -27.3 13.75 -26.95 14.1 -25.65 14.1 -23.5 14.1 -22.7 13.45 -21.45 L13.55 -21.45 Q14.9 -22.25 17.15 -22.25 L17.65 -22.2 17.5 -18.95 17.45 -18.75 17.4 -17.1 17.4 -16.25 17.35 -15.7 17.35 -15.4 17.15 -12.7 16.85 -12.7 Q16.0 -12.6 15.5 -12.2 14.4 -11.5 14.4 -9.75 L14.85 -8.35 14.55 -8.25 12.05 -7.45 12.05 -8.0 Q12.05 -9.25 11.55 -9.95 11.15 -10.5 10.55 -10.75 L9.3 -11.05 8.65 -11.05 9.05 -12.2 9.05 -12.3 9.1 -12.4 Q9.9 -15.05 9.9 -15.75 9.9 -17.55 8.55 -19.5 L7.75 -20.85 Q7.2 -21.95 7.2 -22.8 7.2 -26.25 9.5 -23.7 L10.65 -22.3 10.9 -22.3 Q11.45 -22.3 11.45 -22.75 L11.05 -23.7 12.95 -26.95 13.15 -27.35 14.55 -30.3 M19.25 -28.5 L18.9 -30.15 19.25 -28.55 19.25 -28.5 M-16.85 -11.65 L-18.4 -12.35 -18.9 -12.45 -18.9 -13.4 -19.15 -15.65 -19.2 -16.15 -19.2 -18.85 -19.2 -20.15 -19.05 -23.05 -19.05 -23.2 -19.05 -23.3 -19.0 -23.9 -19.05 -24.25 -18.9 -27.75 -18.8 -27.75 Q-17.45 -27.75 -16.55 -26.9 L-16.45 -25.3 Q-16.15 -23.05 -15.35 -22.9 L-14.7 -22.75 -14.55 -22.75 -14.35 -22.6 -14.15 -22.45 -14.1 -22.5 -14.1 -22.3 Q-14.1 -21.65 -14.4 -20.85 L-14.7 -19.15 -15.15 -17.7 -14.9 -16.45 -15.95 -13.9 -15.95 -10.8 -16.85 -11.65 M-15.75 -21.3 L-15.8 -21.2 -15.7 -21.3 -15.75 -21.3" fill="#cbe4f3" fill-rule="evenodd" stroke="none"/>
      <path d="M18.3 -17.9 L18.3 -17.85 18.3 -17.8 18.3 -17.9 M-15.2 -25.05 L-15.3 -25.7 -15.1 -25.35 -15.2 -25.05 M-16.85 -7.6 L-16.9 -7.6 -16.85 -7.65 -16.85 -7.6" fill="#ffe6e6" fill-rule="evenodd" stroke="none"/>
      <path d="M-10.6 -12.7 L-9.6 -12.85 Q-7.05 -12.95 -7.05 -9.9 L-7.25 -8.6 Q-5.55 -8.35 -4.75 -6.8 L-4.7 -6.6 Q-4.65 -7.6 -3.75 -8.65 -2.8 -9.8 -1.65 -10.15 L-0.2 -10.2 0.1 -10.05 0.55 -8.45 1.05 -8.55 1.35 -6.4 1.7 -7.15 Q2.55 -8.4 3.55 -8.8 L4.6 -9.05 Q5.9 -9.05 6.5 -8.35 6.55 -10.85 8.65 -11.05 L9.3 -11.05 10.55 -10.75 10.75 -9.7 11.55 -9.95 Q12.05 -9.25 12.05 -8.0 L12.05 -7.45 14.55 -8.25 14.85 -8.35 14.4 -9.75 Q14.4 -11.5 15.5 -12.2 15.55 -10.65 15.25 -9.15 L14.65 -4.7 Q14.05 -3.95 13.1 -4.4 L10.5 -5.15 10.15 -4.9 Q8.65 -5.55 7.45 -6.3 L5.1 -5.75 4.2 -6.4 Q2.5 -6.4 1.3 -5.05 1.0 -4.7 0.5 -4.6 L0.05 -4.45 -1.65 -6.5 -3.0 -6.35 -3.8 -5.55 Q-4.5 -4.8 -5.25 -4.85 L-5.75 -5.05 -6.45 -6.75 -8.35 -7.95 -10.4 -7.6 Q-12.25 -5.0 -15.2 -5.8 -15.65 -5.9 -16.0 -6.15 L-16.35 -7.35 -16.4 -8.25 -16.75 -10.25 -16.85 -11.65 -15.95 -10.8 Q-15.4 -10.15 -15.15 -9.3 -14.2 -10.3 -12.15 -10.45 -12.1 -12.25 -10.6 -12.7 M-2.85 -14.3 Q-2.85 -15.85 -1.4 -15.75 0.0 -15.7 0.0 -13.65 0.0 -12.45 -1.35 -12.45 -2.4 -12.45 -2.7 -13.4 L-2.85 -14.3" fill="#ebbb98" fill-rule="evenodd" stroke="none"/>
      <path d="M-3.8 -5.55 L-3.0 -6.35 -1.65 -6.5 0.05 -4.45 0.5 -4.6 Q1.0 -4.7 1.3 -5.05 2.5 -6.4 4.2 -6.4 L5.1 -5.75 7.45 -6.3 Q8.65 -5.55 10.15 -4.9 L10.5 -5.15 13.1 -4.4 Q14.05 -3.95 14.65 -4.7 13.85 3.65 13.15 7.5 L13.15 8.0 Q12.95 9.75 12.9 11.55 12.3 19.4 10.3 28.75 9.6 31.95 8.15 34.85 L8.05 35.1 7.1 36.85 4.2 40.95 Q3.35 42.0 -1.1 42.65 -5.25 43.3 -8.45 42.05 L-8.95 41.55 Q-12.05 38.4 -12.05 32.95 L-11.8 30.15 -11.6 27.9 -11.6 27.65 -11.2 27.85 -10.95 26.4 -10.8 26.55 -10.35 26.4 -10.3 25.15 -8.55 22.15 Q-6.05 18.25 -6.0 17.65 -5.45 14.65 -3.7 10.25 L-3.3 6.85 -3.25 5.0 -3.4 -2.2 -3.55 -2.65 -3.75 -4.05 -3.8 -5.55 M8.15 22.15 Q10.65 16.15 9.35 9.95 L7.4 16.9 Q0.55 22.75 -4.25 30.1 L-3.05 31.15 -1.7 31.0 Q-0.5 31.0 0.55 30.5 L2.95 29.15 7.15 30.1 7.8 27.15 Q7.95 25.85 7.75 24.65 L7.4 23.85 8.15 22.15 M-1.65 -2.15 L-1.75 -2.3 -1.8 -2.15 -1.65 -2.15" fill="#ffcc99" fill-rule="evenodd" stroke="none"/>
      <path d="M8.15 22.15 L7.4 23.85 7.75 24.65 Q7.95 25.85 7.8 27.15 L7.15 30.1 2.95 29.15 0.55 30.5 Q-0.5 31.0 -1.7 31.0 L-3.05 31.15 -4.25 30.1 Q0.55 22.75 7.4 16.9 L9.35 9.95 Q10.65 16.15 8.15 22.15 M-11.6 27.65 L-11.7 27.0 -11.7 20.05 -12.2 14.1 -12.45 12.75 -12.4 12.75 -12.4 12.7 -12.75 10.3 -12.95 9.0 -13.95 3.65 -14.55 0.9 -14.8 -0.15 -16.0 -6.15 Q-15.65 -5.9 -15.2 -5.8 -12.25 -5.0 -10.4 -7.6 L-8.35 -7.95 -6.45 -6.75 -5.75 -5.05 -5.25 -4.85 Q-4.5 -4.8 -3.8 -5.55 L-3.75 -4.05 -3.55 -2.65 -3.4 -2.2 -3.25 5.0 -3.3 6.85 -3.7 10.25 Q-5.45 14.65 -6.0 17.65 -6.05 18.25 -8.55 22.15 L-10.3 25.15 -10.35 26.4 -10.8 26.55 -10.95 26.4 -11.2 27.85 -11.6 27.65" fill="#f4c398" fill-rule="evenodd" stroke="none"/>
      <path d="M-3.95 -15.15 L-3.6 -15.35 -3.6 -15.4 -3.6 -15.35 -3.95 -15.15 M-4.15 -18.25 L-4.2 -18.35 -4.2 -18.45 -4.05 -17.7 -4.15 -18.25" fill="#ffcece" fill-rule="evenodd" stroke="none"/>
      <path d="M-15.75 -21.3 L-15.7 -21.3 -15.8 -21.2 -15.75 -21.3 M-1.65 -2.15 L-1.8 -2.15 -1.75 -2.3 -1.65 -2.15" fill="#ffc4c4" fill-rule="evenodd" stroke="none"/>
    </g>
    <g id="sprite0" transform="matrix(1.0, 0.0, 0.0, 1.0, 8.85, 11.95)">
      <use ffdec:characterId="1792" height="23.95" transform="matrix(1.0, 0.0, 0.0, 1.0, -8.85, -11.95)" width="17.75" xlink:href="#shape1"/>
    </g>
    <g id="shape1" transform="matrix(1.0, 0.0, 0.0, 1.0, 8.85, 11.95)">
      <path d="M3.7 -9.85 L4.05 -9.5 6.6 -5.65 7.7 -3.5 8.45 -2.1 8.35 -0.95 8.0 -2.1 6.4 -5.3 3.7 -9.85 M8.7 -4.05 L7.1 -6.75 Q5.8 -8.7 3.8 -10.1 5.85 -9.2 7.3 -7.55 L8.9 -5.45 8.7 -4.05 M7.95 4.5 L7.15 2.8 Q6.1 0.55 4.75 -1.35 L1.8 -4.75 -1.8 -7.95 -2.85 -8.7 Q-0.7 -8.2 1.1 -6.9 2.95 -5.5 4.15 -3.4 5.4 -1.35 6.75 0.35 L7.0 0.55 7.2 0.5 7.45 0.55 7.75 0.5 7.95 0.5 8.3 -0.25 8.25 1.1 7.95 4.5 M-3.95 -8.9 L-3.05 -8.2 0.3 -4.9 Q2.0 -3.4 3.35 -1.4 4.7 0.55 5.5 2.85 L5.55 3.0 5.55 3.05 5.6 3.15 5.65 3.25 5.8 3.25 5.95 3.25 Q6.7 4.45 7.05 5.8 L7.55 7.75 7.2 10.2 7.0 8.95 Q6.55 6.75 5.5 4.9 L5.6 5.35 4.35 2.2 Q3.35 0.0 2.0 -1.9 L-1.05 -5.55 Q-2.65 -7.15 -3.95 -8.9 M1.65 6.95 L0.35 4.2 0.6 4.6 -0.3 3.15 -3.15 -0.8 -4.75 -2.8 -7.45 -5.6 -6.75 -5.2 -5.1 -3.9 -3.8 -2.8 -3.75 -2.8 -1.25 0.6 0.35 2.9 Q1.55 4.75 2.25 6.65 L3.25 9.75 3.25 9.95 3.85 12.0 2.2 9.75 -0.6 5.65 -3.1 1.7 Q-4.25 -0.3 -5.7 -2.05 -7.3 -3.85 -8.35 -5.85 L-8.85 -6.65 -8.0 -6.2 -7.9 -5.85 -7.7 -5.4 -8.35 -5.85 -7.3 -4.85 Q-6.35 -2.85 -4.8 -1.05 L-2.6 1.8 -1.9 2.45 Q-1.5 3.1 -1.4 3.5 0.25 5.0 1.0 7.3 L1.45 7.8 1.7 7.95 1.65 6.95" fill="#da9c78" fill-rule="evenodd" stroke="none"/>
      <path d="M4.05 -9.5 L3.7 -9.85 3.8 -10.1 Q5.8 -8.7 7.1 -6.75 L8.7 -4.05 8.55 -3.0 7.55 -4.95 6.55 -6.7 4.05 -9.5 M-2.85 -8.7 L-1.8 -7.95 1.8 -4.75 4.75 -1.35 Q6.1 0.55 7.15 2.8 L7.95 4.5 7.75 6.35 7.3 5.1 Q6.55 2.9 5.3 0.7 L2.65 -3.35 Q1.45 -5.1 -0.35 -6.3 L-3.05 -8.2 -3.95 -8.9 -4.4 -9.2 -2.85 -8.7 M-3.15 -0.8 L-0.3 3.15 0.6 4.6 0.35 4.2 1.65 6.95 Q0.0 5.5 -1.1 3.05 L-1.85 1.75 -4.6 -1.9 Q-5.9 -3.55 -7.3 -4.85 L-8.35 -5.85 -7.7 -5.4 -4.3 -2.15 -3.15 -0.8 M-5.75 -10.3 L-5.6 -9.85 -7.75 -11.65 -7.5 -11.5 -6.6 -11.1 -5.75 -10.3" fill="#8c3734" fill-rule="evenodd" stroke="none"/>
      <path d="M4.05 -9.5 L6.55 -6.7 7.55 -4.95 8.55 -3.0 8.5 -2.95 8.5 -2.45 8.45 -2.1 7.7 -3.5 6.6 -5.65 4.05 -9.5 M-3.05 -8.2 L-0.35 -6.3 Q1.45 -5.1 2.65 -3.35 L5.3 0.7 Q6.55 2.9 7.3 5.1 L7.75 6.35 7.55 7.75 7.05 5.8 Q6.7 4.45 5.95 3.25 L5.8 3.25 5.65 3.25 5.6 3.15 5.55 3.05 5.55 3.0 5.5 2.85 Q4.7 0.55 3.35 -1.4 2.0 -3.4 0.3 -4.9 L-3.05 -8.2 M-3.15 -0.8 L-4.3 -2.15 -7.7 -5.4 -7.9 -5.85 -8.0 -6.2 -8.0 -6.25 -7.9 -6.15 -7.45 -5.6 -4.75 -2.8 -3.15 -0.8 M-7.3 -4.85 Q-5.9 -3.55 -4.6 -1.9 L-1.85 1.75 -1.1 3.05 Q0.0 5.5 1.65 6.95 L1.7 7.95 1.45 7.8 1.0 7.3 Q0.25 5.0 -1.4 3.5 -1.5 3.1 -1.9 2.45 L-2.6 1.8 -4.8 -1.05 Q-6.35 -2.85 -7.3 -4.85 M-5.75 -10.3 L-5.25 -9.6 Q-5.75 -9.6 -6.8 -10.55 L-8.3 -11.95 -7.75 -11.65 -5.6 -9.85 -5.75 -10.3 M-7.75 -11.65 L-7.65 -11.6 -7.55 -11.6 -7.5 -11.5 -7.75 -11.65" fill="#a95c4d" fill-rule="evenodd" stroke="none"/>
    </g>
    <g id="sprite1" transform="matrix(1.0, 0.0, 0.0, 1.0, 50.0, 50.0)">
      <use ffdec:characterId="1080" height="100.0" transform="matrix(1.0, 0.0, 0.0, 1.0, -50.0, -50.0)" width="100.0" xlink:href="#shape2"/>
    </g>
    <g id="shape2" transform="matrix(1.0, 0.0, 0.0, 1.0, 50.0, 50.0)">
      <path d="M50.0 50.0 L-50.0 50.0 -50.0 -50.0 50.0 -50.0 50.0 50.0 Z" fill="none" stroke="#9900ff" stroke-linecap="round" stroke-linejoin="round" stroke-width="0.05"/>
    </g>
  </defs>
</svg>
