<?xml version="1.0" encoding="UTF-8" standalone="no"?>
<svg xmlns:ffdec="https://www.free-decompiler.com/flash" xmlns:xlink="http://www.w3.org/1999/xlink" ffdec:objectType="frame" height="69.35px" width="38.7px" xmlns="http://www.w3.org/2000/svg">
  <g transform="matrix(1.0, 0.0, 0.0, 1.0, 19.5, 65.1)">
    <use ffdec:characterId="2525" height="69.35" transform="matrix(1.0, 0.0, 0.0, 1.0, -19.5, -65.1)" width="38.7" xlink:href="#shape0"/>
  </g>
  <defs>
    <g id="shape0" transform="matrix(1.0, 0.0, 0.0, 1.0, 19.5, 65.1)">
      <path d="M8.45 -37.35 Q8.05 -39.25 7.95 -41.2 7.8 -45.1 7.05 -48.15 L5.55 -52.95 4.4 -55.5 3.6 -56.15 Q-3.7 -60.45 -10.65 -54.85 -14.1 -50.25 -15.1 -42.85 L-18.85 -43.5 -18.6 -45.25 Q-16.6 -55.0 -9.35 -61.65 L-9.5 -60.9 Q-9.5 -59.75 -9.0 -59.75 L-4.4 -60.05 -1.7 -60.8 -1.3 -60.85 -0.25 -60.95 -0.1 -60.95 -0.1 -60.85 -0.05 -60.95 Q6.65 -60.95 9.65 -53.4 12.7 -45.9 12.75 -28.95 11.3 -36.3 8.85 -38.1 L8.45 -37.35 M-14.85 -28.45 L-13.0 -18.9 -18.05 -17.75 -18.25 -19.05 -18.15 -19.05 Q-16.5 -19.05 -16.5 -21.6 -16.5 -23.45 -18.3 -23.45 L-18.85 -23.4 -18.95 -24.35 -19.05 -26.1 -18.35 -26.0 Q-16.8 -26.0 -16.8 -27.35 L-17.05 -28.05 -17.2 -28.25 -16.55 -28.7 -14.95 -28.45 -14.85 -28.45 M-11.0 -10.4 L-10.8 -9.5 -9.75 -4.85 -10.8 -4.4 Q-13.25 -3.55 -15.95 -3.65 L-16.4 -3.6 -19.5 -5.15 -18.75 -6.15 Q-17.7 -7.6 -17.35 -9.45 L-17.3 -9.8 -11.0 -10.4" fill="#78783c" fill-rule="evenodd" stroke="none"/>
      <path d="M-15.1 -42.85 Q-14.1 -50.25 -10.65 -54.85 -3.7 -60.45 3.6 -56.15 L4.4 -55.5 5.55 -52.95 7.05 -48.15 Q7.8 -45.1 7.95 -41.2 8.05 -39.25 8.45 -37.35 L8.4 -37.2 8.85 -34.45 9.95 -29.0 Q10.95 -24.25 11.7 -21.35 L11.6 -19.55 11.6 -19.2 Q10.9 -20.7 9.5 -22.1 8.9 -21.85 8.9 -21.0 8.9 -20.65 10.95 -16.05 L10.05 -12.8 9.8 -11.85 Q9.0 -11.55 8.85 -10.6 L7.95 -11.45 Q6.7 -11.45 5.7 -9.55 L4.35 -4.7 0.0 -3.45 -2.05 -4.3 -2.85 -4.65 -2.7 -5.2 -2.6 -6.3 -2.8 -7.0 -3.35 -7.65 -3.8 -7.95 -4.65 -7.65 Q-5.2 -7.5 -5.45 -7.0 -5.7 -6.5 -5.4 -6.15 L-4.8 -5.1 -9.75 -4.85 -10.8 -9.5 -11.0 -10.4 -9.0 -10.6 -10.4 -19.5 -13.0 -18.9 -14.85 -28.45 -14.45 -28.4 -6.35 -26.8 -6.15 -28.65 -8.2 -32.65 -5.6 -32.65 -5.45 -34.9 -7.9 -35.8 -5.3 -37.25 -5.05 -40.75 -5.05 -42.1 Q-7.5 -41.7 -14.6 -42.8 L-14.65 -42.8 -15.1 -42.85 M-0.05 -60.95 L-0.1 -60.85 -0.1 -60.95 -0.05 -60.95 M1.55 -11.4 L1.65 -12.15 Q1.65 -13.5 0.2 -13.5 L-0.45 -13.35 -0.5 -12.65 Q-0.7 -11.15 0.75 -11.15 1.5 -11.15 1.55 -11.4" fill="#666633" fill-rule="evenodd" stroke="none"/>
      <path d="M8.45 -37.35 L8.85 -38.1 Q11.3 -36.3 12.75 -28.95 12.7 -45.9 9.65 -53.4 6.65 -60.95 -0.05 -60.95 L-0.1 -60.95 -0.25 -60.95 -1.3 -60.85 -1.7 -60.8 -4.4 -60.05 -9.0 -59.75 Q-9.5 -59.75 -9.5 -60.9 L-9.35 -61.65 -7.85 -63.0 -5.7 -64.7 -3.3 -65.1 Q0.8 -65.1 4.5 -63.85 8.1 -62.75 10.8 -59.95 L12.75 -57.45 13.6 -55.85 14.8 -53.5 Q18.1 -46.35 17.0 -25.55 L16.6 -25.05 15.9 -21.5 16.55 -19.65 19.2 -14.1 19.2 -13.5 Q18.6 -14.75 17.45 -15.2 16.55 -13.9 16.55 -11.25 16.55 -10.0 18.35 -5.3 18.05 -5.3 18.05 -4.7 15.85 -5.7 16.05 -6.75 L14.7 -6.75 13.4 -6.75 Q12.0 -6.2 12.0 -4.35 L11.6 -4.7 11.55 -4.75 10.2 -5.15 10.25 -6.1 9.85 -7.75 10.75 -7.55 11.6 -7.8 Q12.35 -8.45 12.35 -10.5 12.35 -12.0 10.7 -12.0 L9.8 -11.85 10.05 -12.8 10.95 -16.05 Q8.9 -20.65 8.9 -21.0 8.9 -21.85 9.5 -22.1 10.9 -20.7 11.6 -19.2 L11.6 -19.55 11.7 -21.35 Q10.95 -24.25 9.95 -29.0 L8.85 -34.45 8.4 -37.2 8.45 -37.35" fill="#8d8c47" fill-rule="evenodd" stroke="none"/>
      <path d="M-9.75 -4.85 L-4.8 -5.1 -5.4 -6.15 Q-5.7 -6.5 -5.45 -7.0 -5.2 -7.5 -4.65 -7.65 L-3.8 -7.95 -3.35 -7.65 -2.8 -7.0 -2.6 -6.3 -2.7 -5.2 -2.85 -5.2 Q-5.05 -5.2 -5.05 -3.7 -4.7 -3.55 -4.7 -2.95 L-8.2 -2.5 Q-10.05 -2.5 -12.5 -3.2 -13.85 -3.2 -15.8 -2.6 L-15.95 -3.65 Q-13.25 -3.55 -10.8 -4.4 L-9.75 -4.85 M-2.05 -4.3 L0.0 -3.45 4.35 -4.7 5.7 -9.55 Q6.7 -11.45 7.95 -11.45 L8.85 -10.6 Q9.0 -11.55 9.8 -11.85 L10.7 -12.0 Q12.35 -12.0 12.35 -10.5 12.35 -8.45 11.6 -7.8 11.4 -9.35 10.2 -9.35 9.4 -9.35 9.15 -8.9 9.1 -9.45 8.6 -9.45 6.4 -9.45 6.9 -4.2 4.55 -3.5 3.65 -3.6 2.6 -3.6 1.9 -3.0 1.2 -2.4 0.55 -2.4 -0.3 -2.4 -2.5 -3.1 L-2.5 -3.15 Q-2.05 -3.6 -2.05 -4.1 L-2.05 -4.3 M14.7 -6.75 L14.7 -4.2 13.5 -3.9 12.65 -3.5 12.0 -3.75 11.3 -3.5 11.25 -3.6 11.55 -4.7 11.6 -4.7 12.0 -4.35 Q12.0 -6.2 13.4 -6.75 L14.7 -6.75 M1.55 -11.4 Q1.5 -11.15 0.75 -11.15 -0.7 -11.15 -0.5 -12.65 L-0.45 -13.35 0.2 -13.5 Q1.65 -13.5 1.65 -12.15 L1.55 -11.4" fill="#cccc66" fill-rule="evenodd" stroke="none"/>
      <path d="M-2.7 -5.2 L-2.85 -4.65 -2.05 -4.3 -2.05 -4.1 Q-2.05 -3.6 -2.5 -3.15 L-2.5 -3.1 Q-0.3 -2.4 0.55 -2.4 1.2 -2.4 1.9 -3.0 2.6 -3.6 3.65 -3.6 4.55 -3.5 6.9 -4.2 6.4 -9.45 8.6 -9.45 9.1 -9.45 9.15 -8.9 9.4 -9.35 10.2 -9.35 11.4 -9.35 11.6 -7.8 L10.75 -7.55 9.85 -7.75 10.25 -6.1 10.2 -5.15 11.55 -4.75 11.6 -4.7 11.55 -4.7 11.25 -3.6 11.3 -3.5 12.0 -3.75 12.65 -3.5 13.5 -3.9 14.7 -4.2 14.65 2.8 12.75 3.4 -14.55 4.25 -15.0 2.65 -15.5 0.0 -15.8 -2.6 Q-13.85 -3.2 -12.5 -3.2 -10.05 -2.5 -8.2 -2.5 L-4.7 -2.95 Q-4.7 -3.55 -5.05 -3.7 -5.05 -5.2 -2.85 -5.2 L-2.7 -5.2" fill="#fefda3" fill-rule="evenodd" stroke="none"/>
      <path d="M-14.6 -42.8 Q-7.5 -41.7 -5.05 -42.1 L-5.05 -40.75 -5.3 -37.25 -7.9 -35.8 -5.45 -34.9 -5.6 -32.65 -8.2 -32.65 -6.15 -28.65 -6.35 -26.8 -14.45 -28.4 -14.85 -28.45 -14.95 -28.45 -15.1 -34.85 -14.6 -42.8" fill="#2f3f27" fill-rule="evenodd" stroke="none"/>
      <path d="M-18.85 -43.5 L-15.1 -42.85 -14.65 -42.8 -14.6 -42.8 -15.1 -34.85 -14.95 -28.45 -16.55 -28.7 -19.2 -28.9 -19.25 -37.3 -19.0 -42.05 -18.85 -43.5" fill="#3a4f31" fill-rule="evenodd" stroke="none"/>
      <path d="M-13.0 -18.9 L-10.4 -19.5 -9.0 -10.6 -11.0 -10.4 -11.85 -13.9 -13.0 -18.9" fill="#cc6600" fill-rule="evenodd" stroke="none"/>
      <path d="M-17.3 -9.8 Q-16.8 -11.95 -17.2 -14.75 L-17.65 -16.05 -18.05 -17.75 -13.0 -18.9 -11.85 -13.9 -11.0 -10.4 -17.3 -9.8" fill="#e37302" fill-rule="evenodd" stroke="none"/>
    </g>
  </defs>
</svg>
