<?xml version="1.0" encoding="UTF-8" standalone="no"?>
<svg xmlns:ffdec="https://www.free-decompiler.com/flash" xmlns:xlink="http://www.w3.org/1999/xlink" ffdec:objectType="frame" height="26.35px" width="22.7px" xmlns="http://www.w3.org/2000/svg">
  <g transform="matrix(1.0, 0.0, 0.0, 1.0, 11.4, 14.7)">
    <use ffdec:characterId="1618" height="26.35" transform="matrix(1.0, 0.0, 0.0, 1.0, -11.4, -14.7)" width="22.7" xlink:href="#shape0"/>
  </g>
  <defs>
    <g id="shape0" transform="matrix(1.0, 0.0, 0.0, 1.0, 11.4, 14.7)">
      <path d="M-0.15 -14.7 L0.3 -14.6 0.9 -13.4 Q0.6 -12.9 0.1 -13.1 L-0.45 -13.25 -0.8 -14.1 -0.15 -14.7 M0.95 -12.9 L1.45 -13.45 1.9 -13.5 2.45 -13.35 3.0 -10.75 3.95 -9.85 4.95 -9.2 5.05 -9.2 6.2 -8.9 7.9 -8.25 Q9.3 -7.55 10.45 -6.45 L11.25 -5.75 11.3 -4.75 10.9 -4.2 10.7 -2.65 10.1 -2.25 8.7 -1.75 8.3 -1.75 7.3 -1.1 6.75 -1.45 5.25 -0.25 3.7 -1.15 4.85 -3.05 4.4 -3.05 2.35 -5.45 1.4 -5.65 0.85 -5.55 -0.7 -6.45 -0.65 -6.5 0.05 -6.95 0.55 -6.8 4.35 -5.0 6.05 -4.2 6.9 -3.7 7.85 -3.4 7.7 -4.65 7.95 -4.95 7.85 -5.6 8.45 -6.1 8.95 -6.6 8.85 -6.9 8.65 -7.2 8.4 -7.5 6.95 -7.95 6.2 -7.25 5.0 -7.4 4.4 -8.2 3.1 -9.15 2.65 -9.4 1.7 -9.85 1.8 -11.2 0.75 -11.75 0.95 -12.9 M-8.4 -5.75 Q-8.1 -8.45 -6.25 -10.55 -6.8 -11.6 -6.35 -12.8 L-5.85 -13.0 -5.1 -12.8 -1.85 -12.65 -1.05 -11.65 -1.8 -11.3 -1.95 -10.8 -2.75 -10.4 -2.6 -9.45 -2.25 -9.2 -2.1 -8.65 -2.5 -7.9 -3.55 -7.5 -3.15 -7.1 -3.25 -5.95 -3.65 -5.8 -4.1 -5.95 -5.3 -8.45 -6.0 -8.0 -5.95 -7.45 Q-5.95 -4.45 -8.4 -5.75 M0.0 -10.35 L-0.2 -10.45 -0.15 -10.5 0.0 -10.35 M-1.25 -7.75 L-0.95 -7.95 Q0.05 -8.85 0.2 -10.15 L0.9 -9.7 1.25 -8.65 1.05 -8.0 Q0.55 -7.75 0.05 -7.55 L-0.45 -7.35 -1.25 -7.75 M6.7 2.85 L5.2 1.65 4.15 0.65 4.65 0.2 5.4 0.0 6.5 1.45 6.75 2.55 6.7 2.85 M-3.6 -5.0 L-2.9 -5.45 -2.0 -5.35 -1.0 -4.0 -0.7 -2.9 -1.55 -1.45 -2.3 -1.45 -3.55 -1.7 -3.85 -2.3 Q-4.4 -3.7 -3.6 -5.0" fill="#ff0000" fill-rule="evenodd" stroke="none"/>
      <path d="M0.9 -13.4 L0.95 -12.9 0.75 -11.75 0.55 -11.6 -0.1 -11.3 -1.05 -11.65 -1.85 -12.65 -1.85 -13.9 -0.15 -14.7 -0.8 -14.1 -0.45 -13.25 0.1 -13.1 Q0.6 -12.9 0.9 -13.4 M0.0 -10.35 L0.2 -10.15 Q0.05 -8.85 -0.95 -7.95 L-1.25 -7.75 -1.6 -8.0 -2.1 -8.65 -2.25 -9.2 Q-2.5 -10.3 -1.5 -10.6 L-0.2 -10.45 0.0 -10.35" fill="#ffffff" fill-rule="evenodd" stroke="none"/>
      <path d="M8.7 -1.75 L9.05 -0.75 8.5 0.0 8.15 0.7 Q7.85 1.2 7.1 1.35 L6.5 1.45 5.4 0.0 4.65 0.2 4.15 0.65 5.2 1.65 6.7 2.85 6.8 3.8 6.45 4.35 4.85 4.55 Q4.25 2.9 2.8 1.7 L3.0 -1.15 2.65 -1.85 1.75 -3.4 0.3 -3.2 0.3 -2.7 0.0 -0.95 -1.15 -0.25 -1.95 -0.4 -3.55 -1.7 -2.3 -1.45 -1.55 -1.45 -0.7 -2.9 -1.0 -4.0 -2.0 -5.35 -2.9 -5.45 -3.6 -5.0 -3.65 -5.8 -3.25 -5.95 -3.15 -7.1 -3.55 -7.5 -2.5 -7.9 -2.1 -8.65 -1.6 -8.0 -1.25 -7.75 -0.45 -7.35 0.05 -7.55 0.55 -6.8 0.05 -6.95 -0.65 -6.5 -0.7 -6.45 0.85 -5.55 1.4 -5.65 2.35 -5.45 4.4 -3.05 4.85 -3.05 3.7 -1.15 5.25 -0.25 6.75 -1.45 7.3 -1.1 8.3 -1.75 8.7 -1.75 M0.75 -11.75 L1.8 -11.2 1.7 -9.85 2.65 -9.4 3.1 -9.15 4.4 -8.2 5.0 -7.4 6.2 -7.25 6.95 -7.95 8.4 -7.5 8.65 -7.2 8.85 -6.9 8.95 -6.6 8.45 -6.1 7.85 -5.6 7.95 -4.95 7.7 -4.65 7.85 -3.4 6.9 -3.7 6.05 -4.2 4.35 -5.0 4.6 -5.45 Q4.0 -7.1 2.45 -8.45 L1.25 -8.65 0.9 -9.7 0.2 -10.15 0.0 -10.35 -0.15 -10.5 -0.2 -10.45 -1.5 -10.6 Q-2.5 -10.3 -2.25 -9.2 L-2.6 -9.45 -2.75 -10.4 -1.95 -10.8 -1.8 -11.3 -1.05 -11.65 -0.1 -11.3 0.55 -11.6 0.75 -11.75" fill="#990000" fill-rule="evenodd" stroke="none"/>
      <path d="M4.35 -5.0 L0.55 -6.8 0.05 -7.55 Q0.55 -7.75 1.05 -8.0 L1.25 -8.65 2.45 -8.45 Q4.0 -7.1 4.6 -5.45 L4.35 -5.0" fill="#650101" fill-rule="evenodd" stroke="none"/>
      <path d="M8.15 0.7 L7.2 2.9 7.2 5.6 7.35 6.15 7.05 5.65 6.45 4.35 6.8 3.8 6.7 2.85 6.75 2.55 6.5 1.45 7.1 1.35 Q7.85 1.2 8.15 0.7 M4.75 7.1 Q1.3 5.4 -0.1 5.1 L-0.55 5.0 Q-0.35 2.8 -1.95 -0.4 L-1.15 -0.25 1.6 2.5 3.1 4.35 4.75 7.1 M0.3 -2.7 L0.3 -3.2 1.75 -3.4 2.65 -1.85 0.3 -2.7" fill="#e2b181" fill-rule="evenodd" stroke="none"/>
      <path d="M7.2 2.9 L8.15 4.95 8.2 5.05 10.25 11.65 7.65 9.05 4.75 7.1 3.1 4.35 1.6 2.5 -1.15 -0.25 0.0 -0.95 0.3 -2.7 2.65 -1.85 3.0 -1.15 2.8 1.7 Q4.25 2.9 4.85 4.55 L6.45 4.35 7.05 5.65 7.35 6.15 7.2 5.6 7.2 2.9 M-0.55 5.0 L-3.7 4.5 Q-6.25 4.3 -8.7 4.45 L-11.05 4.55 -11.4 4.8 -10.85 1.3 -9.9 -2.0 -8.5 -5.55 -8.4 -5.75 Q-5.95 -4.45 -5.95 -7.45 L-6.0 -8.0 -5.3 -8.45 -4.1 -5.95 -3.65 -5.8 -3.6 -5.0 Q-4.4 -3.7 -3.85 -2.3 L-3.55 -1.7 -1.95 -0.4 Q-0.35 2.8 -0.55 5.0" fill="#ffcc99" fill-rule="evenodd" stroke="none"/>
    </g>
  </defs>
</svg>
