<?xml version="1.0" encoding="UTF-8" standalone="no"?>
<svg xmlns:ffdec="https://www.free-decompiler.com/flash" xmlns:xlink="http://www.w3.org/1999/xlink" ffdec:objectType="frame" height="74.95px" width="30.5px" xmlns="http://www.w3.org/2000/svg">
  <g transform="matrix(1.0, 0.0, 0.0, 1.0, 13.75, 37.15)">
    <use ffdec:characterId="1983" height="74.95" transform="matrix(1.0, 0.0, 0.0, 1.0, -13.75, -37.15)" width="30.5" xlink:href="#shape0"/>
  </g>
  <defs>
    <g id="shape0" transform="matrix(1.0, 0.0, 0.0, 1.0, 13.75, 37.15)">
      <path d="M-13.1 -20.2 L-13.15 -20.45 -13.45 -23.25 Q-13.9 -28.2 -9.1 -32.95 -4.35 -37.75 0.8 -36.9 5.9 -36.05 9.1 -31.8 12.3 -27.6 12.45 -21.55 L12.6 -13.7 12.6 -11.9 12.6 1.55 12.6 2.15 Q12.55 10.75 11.7 16.25 L10.75 20.55 10.05 22.7 9.85 22.4 Q9.4 21.9 8.8 21.9 8.35 21.9 8.05 22.65 L7.8 23.65 Q7.8 25.2 9.0 25.7 L8.25 27.4 7.0 30.55 Q6.6 30.05 5.7 30.0 L4.85 30.1 4.6 29.65 4.05 29.15 Q3.8 29.15 3.3 29.55 L2.4 29.9 1.95 29.8 1.8 29.65 Q1.8 28.75 1.45 28.2 L1.05 27.75 Q1.05 25.85 2.05 24.9 L2.05 23.4 0.05 25.95 -0.5 27.1 -0.6 26.95 Q-1.05 26.4 -1.8 26.75 L-1.9 26.75 -2.3 27.05 -2.45 27.15 -2.85 24.15 -3.2 18.4 -4.05 21.95 -4.45 25.0 -4.2 26.4 -4.3 26.85 -4.6 26.55 Q-4.7 25.85 -5.8 25.75 -7.0 25.7 -7.0 26.9 L-6.9 27.75 -6.9 27.9 Q-7.55 28.6 -7.75 30.15 L-7.9 31.25 -8.3 30.95 -8.3 28.7 -8.15 26.9 -8.05 24.25 -7.4 22.55 Q-6.6 19.9 -6.35 16.25 L-6.25 13.05 -6.25 9.5 -6.35 8.25 -6.0 6.25 -6.0 2.15 -6.1 2.15 -6.4 -0.45 Q-6.4 -3.45 -7.35 -8.0 L-7.45 -9.15 Q-7.6 -10.2 -9.95 -14.25 L-13.1 -20.2 M6.85 30.85 L6.65 31.3 6.1 31.4 6.85 30.85 M-7.95 32.2 L-8.05 32.15 -8.1 32.05 -8.0 32.15 -7.95 32.2 M-5.8 -13.45 L-5.75 -13.0 -3.75 5.5 Q-3.25 10.45 -3.25 12.15 -3.25 13.2 -3.6 15.9 -2.3 14.3 -2.05 12.1 L-1.25 4.7 -1.25 4.65 Q-2.15 0.1 -4.05 -6.8 L-5.8 -13.45 M7.85 -20.5 L7.65 -15.7 6.95 -1.75 6.65 5.1 5.1 12.25 4.45 14.55 Q4.75 10.05 3.9 4.4 L3.9 5.25 3.65 10.6 3.75 11.0 2.7 19.95 2.15 20.85 Q1.4 21.45 3.0 21.95 4.6 22.4 6.4 20.6 7.75 19.25 8.1 18.3 L9.2 17.7 Q10.4 17.15 10.4 16.5 L10.4 16.25 9.8 13.65 9.05 10.95 8.6 8.5 Q8.6 6.95 8.75 6.0 L8.85 -1.3 9.15 -5.9 8.95 -13.4 7.85 -20.5 M5.2 23.55 L4.95 23.35 3.3 23.15 2.8 26.4 2.8 26.6 Q2.45 27.5 2.45 28.05 L2.5 28.5 2.8 28.65 Q3.35 27.85 4.9 26.8 L5.3 26.5 Q5.15 26.8 5.15 27.15 L5.15 27.85 Q5.35 28.55 6.3 28.55 6.9 28.55 7.2 27.8 L7.45 26.75 7.55 26.05 Q7.55 25.45 6.6 25.45 L6.05 25.5 6.05 25.3 5.9 25.2 5.9 25.1 Q5.9 23.95 5.2 23.55" fill="#a58c7c" fill-rule="evenodd" stroke="none"/>
      <path d="M-8.05 24.25 L-7.95 22.15 -7.45 16.95 -7.5 16.25 -7.55 15.9 -7.7 12.4 -7.8 7.35 Q-7.8 4.95 -8.15 2.15 -8.8 -2.95 -10.6 -9.35 L-11.1 -11.15 -11.35 -12.1 -11.65 -13.05 -12.15 -14.95 -12.4 -16.45 -12.65 -17.65 -12.95 -19.25 -13.1 -20.2 -9.95 -14.25 Q-7.6 -10.2 -7.45 -9.15 L-7.35 -8.0 Q-6.4 -3.45 -6.4 -0.45 L-6.1 2.15 -6.0 2.15 -6.0 6.25 -6.35 8.25 -6.25 9.5 -6.25 13.05 -6.35 16.25 Q-6.6 19.9 -7.4 22.55 L-8.05 24.25 M7.85 -20.5 L8.95 -13.4 9.15 -5.9 8.85 -1.3 8.75 6.0 Q8.6 6.95 8.6 8.5 L9.05 10.95 9.8 13.65 10.4 16.25 10.4 16.5 Q10.4 17.15 9.2 17.7 L8.1 18.3 Q7.75 19.25 6.4 20.6 4.6 22.4 3.0 21.95 1.4 21.45 2.15 20.85 L2.7 19.95 3.75 11.0 3.65 10.6 3.9 5.25 3.9 4.4 Q4.75 10.05 4.45 14.55 L5.1 12.25 6.65 5.1 6.95 -1.75 7.65 -15.7 7.85 -20.5 M-5.8 -13.45 L-4.05 -6.8 Q-2.15 0.1 -1.25 4.65 L-1.25 4.7 -2.05 12.1 Q-2.3 14.3 -3.6 15.9 -3.25 13.2 -3.25 12.15 -3.25 10.45 -3.75 5.5 L-5.75 -13.0 -5.8 -13.45" fill="#987e68" fill-rule="evenodd" stroke="none"/>
      <path d="M10.05 22.7 L9.0 25.7 Q7.8 25.2 7.8 23.65 L8.05 22.65 Q8.35 21.9 8.8 21.9 9.4 21.9 9.85 22.4 L10.05 22.7 M-4.3 26.85 L-4.2 26.4 -4.45 25.0 -4.05 21.95 -3.2 18.4 -2.85 24.15 -2.45 27.15 Q-2.95 27.55 -3.0 28.4 L-3.1 29.9 Q-3.45 31.65 -7.2 31.65 L-7.9 31.25 -7.75 30.15 Q-7.55 28.6 -6.9 27.9 L-6.85 28.15 Q-6.55 28.9 -5.3 28.9 -4.25 28.9 -4.25 27.05 L-4.3 26.85 M-0.5 27.1 L0.05 25.95 2.05 23.4 2.05 24.9 Q1.05 25.85 1.05 27.75 L1.45 28.2 Q1.8 28.75 1.8 29.65 L1.95 29.8 2.4 29.9 3.3 29.55 Q3.8 29.15 4.05 29.15 L4.6 29.65 4.85 30.1 Q4.4 30.15 4.1 30.35 3.4 30.7 3.4 31.2 L2.85 31.0 Q2.35 30.95 1.2 31.9 L1.1 31.7 Q2.0 30.5 0.85 29.25 L-0.1 27.95 -0.45 27.2 -0.5 27.1" fill="#ffcc99" fill-rule="evenodd" stroke="none"/>
      <path d="M7.0 30.55 L7.05 30.65 6.85 30.85 6.1 31.4 5.6 31.7 Q5.1 32.15 4.7 33.05 4.2 34.35 4.2 35.4 L4.25 35.8 3.1 36.4 3.4 34.7 2.4 34.4 0.8 35.25 2.2 33.2 3.15 33.15 4.5 32.2 5.15 31.2 5.25 31.0 5.7 30.0 Q6.6 30.05 7.0 30.55 M-0.95 35.25 L-4.25 33.3 Q-3.45 33.3 -2.95 32.95 -1.6 31.9 -1.0 30.55 L-0.4 30.5 -0.4 29.7 Q-0.4 29.0 -0.7 28.35 -1.05 27.5 -1.8 26.75 -1.05 26.4 -0.6 26.95 L-0.5 27.1 -0.45 27.2 -0.1 27.95 0.85 29.25 Q2.0 30.5 1.1 31.7 0.15 30.8 -1.05 31.5 -1.95 31.95 -2.0 33.2 L-2.0 33.9 Q-1.5 34.55 -0.7 34.5 L-0.4 34.5 -0.95 35.25 M-6.6 32.7 L-7.0 32.55 -7.95 32.2 -8.0 32.15 -8.1 32.05 -8.25 31.8 -8.45 31.05 -8.35 30.9 -8.3 30.95 -7.9 31.25 -7.2 31.65 Q-3.45 31.65 -3.1 29.9 L-3.0 28.4 Q-2.95 27.55 -2.45 27.15 L-2.3 27.05 -2.7 27.75 Q-2.6 29.2 -1.55 30.25 -2.05 31.35 -3.2 31.8 L-5.0 32.3 -5.35 32.5 -6.15 32.1 -6.65 32.5 -6.6 32.7 M1.2 31.9 Q2.35 30.95 2.85 31.0 L3.4 31.2 3.1 32.15 1.3 32.8 1.3 32.45 1.2 31.9 M-6.9 27.75 L-6.85 27.85 Q-6.6 28.3 -5.8 28.3 L-5.1 27.9 -4.65 27.1 -4.6 26.7 -4.6 26.55 -4.3 26.85 -4.25 27.05 Q-4.25 28.9 -5.3 28.9 -6.55 28.9 -6.85 28.15 L-6.9 27.9 -6.9 27.75 M2.8 26.6 L2.9 26.9 3.3 27.05 4.5 26.05 4.65 26.05 5.3 26.0 5.65 26.85 Q6.0 27.4 6.4 27.4 7.2 27.4 7.45 26.75 L7.2 27.8 Q6.9 28.55 6.3 28.55 5.35 28.55 5.15 27.85 L5.15 27.15 Q5.15 26.8 5.3 26.5 L4.9 26.8 Q3.35 27.85 2.8 28.65 L2.5 28.5 2.45 28.05 Q2.45 27.5 2.8 26.6 M5.9 25.2 L5.35 24.95 5.55 24.35 5.2 23.55 Q5.9 23.95 5.9 25.1 L5.9 25.2" fill="#990000" fill-rule="evenodd" stroke="none"/>
      <path d="M-0.6 36.3 L-1.05 35.5 -0.95 35.25 -0.4 34.5 1.3 32.8 3.1 32.15 3.4 31.2 Q3.4 30.7 4.1 30.35 4.4 30.15 4.85 30.1 L5.7 30.0 5.25 31.0 5.15 31.2 4.5 32.2 3.15 33.15 2.2 33.2 0.8 35.25 0.2 37.15 -0.45 37.15 -0.6 36.3 M-4.25 33.3 L-6.25 33.05 -6.6 32.7 -6.65 32.5 -6.15 32.1 -5.35 32.5 -5.0 32.3 -3.2 31.8 Q-2.05 31.35 -1.55 30.25 -2.6 29.2 -2.7 27.75 L-2.3 27.05 -1.9 26.75 -1.8 26.75 Q-1.05 27.5 -0.7 28.35 -0.4 29.0 -0.4 29.7 L-0.4 30.5 -1.0 30.55 Q-1.6 31.9 -2.95 32.95 -3.45 33.3 -4.25 33.3 M-4.6 26.55 L-4.6 26.7 -4.65 27.1 -5.1 27.9 -5.8 28.3 Q-6.6 28.3 -6.85 27.85 L-6.9 27.75 -7.0 26.9 Q-7.0 25.7 -5.8 25.75 -4.7 25.85 -4.6 26.55 M2.8 26.6 L2.8 26.4 3.3 23.15 4.95 23.35 5.2 23.55 5.55 24.35 5.35 24.95 5.9 25.2 6.05 25.3 6.05 25.5 6.6 25.45 Q7.55 25.45 7.55 26.05 L7.45 26.75 Q7.2 27.4 6.4 27.4 6.0 27.4 5.65 26.85 L5.3 26.0 4.65 26.05 4.5 26.05 3.3 27.05 2.9 26.9 2.8 26.6" fill="#ff0000" fill-rule="evenodd" stroke="none"/>
      <path d="M3.1 36.4 Q2.0 38.0 0.15 37.8 L-0.45 37.65 -0.6 36.3 -0.45 37.15 0.2 37.15 0.8 35.25 2.4 34.4 3.4 34.7 3.1 36.4 M1.1 31.7 L1.2 31.9 1.3 32.45 1.3 32.8 -0.4 34.5 -0.7 34.5 Q-1.5 34.55 -2.0 33.9 L-2.0 33.2 Q-1.95 31.95 -1.05 31.5 0.15 30.8 1.1 31.7" fill="#ffffff" fill-rule="evenodd" stroke="none"/>
      <path d="M9.1 -31.8 Q12.3 -27.6 12.45 -21.55 12.55 -15.5 13.1 -11.8 L13.2 -11.05 Q13.8 -6.55 16.1 -2.5 L16.75 -1.35 15.1 -2.75 13.1 -4.9 14.1 1.2 12.1 0.5 11.4 -1.85 9.75 -2.5 8.15 -4.5 6.65 -5.45 Q4.95 -4.95 4.65 -3.1 4.1 0.3 6.2 2.85 L1.55 2.45 2.15 1.7 2.4 0.75 2.7 -2.0 2.75 -2.35 2.3 -2.95 Q1.95 -3.4 1.45 -3.55 L-0.5 -3.7 -1.2 -3.35 -1.7 -1.85 -1.7 -0.7 Q-1.55 0.3 -0.75 0.8 L-0.55 2.3 -3.8 2.45 -3.65 0.15 -3.95 -0.25 -7.25 -0.05 Q-8.4 0.65 -8.6 1.95 L-8.75 2.95 -10.65 3.15 Q-8.65 -3.9 -11.05 -11.05 L-11.1 -11.15 -11.35 -12.1 -11.65 -13.05 -12.15 -14.95 -12.4 -16.45 -12.65 -17.65 -12.95 -19.25 -13.15 -20.45 -13.7 -25.05 Q-14.15 -28.4 -9.3 -33.15 -4.55 -37.95 0.7 -37.0 5.9 -36.05 9.1 -31.8 M-6.75 -3.1 Q-6.75 -2.55 -6.35 -2.15 -5.95 -1.75 -5.35 -1.75 -4.75 -1.75 -4.35 -2.15 -3.95 -2.55 -3.95 -3.1 -3.95 -3.65 -4.35 -4.05 -4.75 -4.45 -5.35 -4.45 -5.95 -4.45 -6.35 -4.05 -6.75 -3.65 -6.75 -3.1 M4.4 -8.95 Q7.65 -5.4 9.4 -11.05 9.3 -12.75 6.65 -13.3 4.25 -13.8 3.9 -11.05 3.65 -9.75 4.4 -8.95" fill="#333333" fill-rule="evenodd" stroke="none"/>
    </g>
  </defs>
</svg>
