<?xml version="1.0" encoding="UTF-8" standalone="no"?>
<svg xmlns:ffdec="https://www.free-decompiler.com/flash" xmlns:xlink="http://www.w3.org/1999/xlink" ffdec:objectType="frame" height="37.55px" width="22.75px" xmlns="http://www.w3.org/2000/svg">
  <g transform="matrix(1.0, 0.0, 0.0, 1.0, 12.0, 34.9)">
    <use ffdec:characterId="2246" height="37.55" transform="matrix(1.0, 0.0, 0.0, 1.0, -12.0, -34.9)" width="22.75" xlink:href="#shape0"/>
  </g>
  <defs>
    <g id="shape0" transform="matrix(1.0, 0.0, 0.0, 1.0, 12.0, 34.9)">
      <path d="M7.3 1.25 L7.55 -0.3 7.7 -1.35 7.75 -2.15 7.65 -3.45 7.55 -5.05 7.45 -5.7 7.35 -6.95 6.65 -5.8 5.6 -4.5 4.95 -3.7 4.4 -3.2 3.75 -2.65 4.2 -3.5 5.0 -5.2 5.5 -6.5 6.3 -9.1 6.65 -10.75 6.9 -12.25 6.95 -13.55 6.95 -14.9 6.9 -15.3 6.75 -15.75 4.0 -11.75 4.35 -12.7 4.6 -13.35 4.8 -14.1 5.0 -14.85 5.2 -15.8 5.6 -17.9 5.95 -20.1 6.25 -22.05 6.4 -23.85 6.45 -25.5 6.3 -26.95 5.8 -28.4 4.9 -29.75 3.55 -31.1 2.1 -32.15 -0.05 -33.2 -1.45 -33.4 -2.8 -33.25 -4.1 -32.9 -5.4 -32.4 -6.05 -32.1 -7.3 -31.3 -8.0 -30.05 -8.65 -29.05 -9.85 -27.5 -10.05 -27.9 -9.6 -28.9 Q-8.8 -30.6 -7.35 -31.95 -4.05 -35.15 0.4 -34.85 L1.6 -34.7 2.85 -34.05 4.8 -32.9 Q7.4 -31.4 9.1 -20.95 9.65 -19.2 9.7 -17.5 9.9 -10.65 10.65 -3.85 10.9 -0.9 10.4 1.15 L8.15 1.15 7.3 1.25" fill="#ffcc66" fill-rule="evenodd" stroke="none"/>
      <path d="M-10.05 -27.9 L-9.85 -27.5 -8.65 -29.05 -8.0 -30.05 -7.3 -31.3 -6.05 -32.1 -5.4 -32.4 -4.1 -32.9 -2.8 -33.25 -1.45 -33.4 -0.05 -33.2 2.1 -32.15 3.55 -31.1 4.9 -29.75 5.8 -28.4 6.3 -26.95 6.45 -25.5 6.4 -23.85 6.25 -22.05 5.95 -20.1 5.6 -17.9 5.2 -15.8 5.0 -14.85 4.8 -14.1 4.6 -13.35 4.35 -12.7 4.0 -11.75 6.75 -15.75 6.9 -15.3 6.95 -14.9 6.95 -13.55 6.9 -12.25 6.65 -10.75 6.3 -9.1 5.5 -6.5 5.0 -5.2 4.2 -3.5 3.75 -2.65 4.4 -3.2 4.95 -3.7 5.6 -4.5 6.65 -5.8 7.35 -6.95 7.45 -5.7 7.55 -5.05 7.65 -3.45 7.75 -2.15 7.7 -1.35 7.55 -0.3 7.3 1.25 5.8 1.35 6.45 -1.8 5.95 -1.15 3.75 1.45 0.55 1.8 0.85 0.85 1.15 0.0 1.5 -0.9 1.75 -1.5 2.25 -2.8 2.8 -4.05 3.4 -5.4 4.0 -6.9 4.5 -8.6 4.4 -8.55 2.15 -7.2 1.5 -6.75 1.8 -7.35 2.3 -8.6 2.75 -9.9 2.95 -11.2 3.2 -12.8 3.45 -14.25 3.8 -16.1 4.05 -17.9 4.2 -19.6 4.35 -21.35 4.45 -22.75 4.6 -24.7 4.55 -25.9 4.15 -27.3 3.2 -29.05 2.3 -29.95 1.45 -30.55 -0.4 -31.05 -2.2 -31.4 -2.8 -31.4 -6.85 -29.5 -6.9 -29.45 -5.0 -29.5 -7.4 -26.6 -7.35 -25.95 -8.5 -20.8 -8.5 -20.5 Q-8.5 -19.25 -8.65 -18.35 L-9.0 -16.7 Q-9.15 -16.05 -8.7 -14.85 -8.3 -13.65 -8.6 -12.5 L-8.3 2.65 -9.6 2.65 Q-10.7 2.65 -11.35 2.0 L-11.8 1.5 -11.85 1.3 -11.9 -2.0 -12.0 -7.2 -12.0 -8.1 -11.95 -9.05 -11.95 -9.95 -11.9 -10.9 -11.9 -11.7 -11.85 -12.55 -11.8 -14.2 -11.75 -15.9 -11.9 -17.8 -11.95 -19.1 -11.85 -20.45 -11.65 -21.75 -11.35 -23.15 -10.85 -25.1 -10.35 -26.95 -10.05 -27.9" fill="#feb445" fill-rule="evenodd" stroke="none"/>
      <path d="M-8.3 2.65 L-8.6 -12.5 Q-8.3 -13.65 -8.7 -14.85 -9.15 -16.05 -9.0 -16.7 L-8.65 -18.35 Q-8.5 -19.25 -8.5 -20.5 L-8.5 -20.8 -7.35 -25.95 -7.4 -26.6 -5.0 -29.5 -6.9 -29.45 -6.85 -29.5 -2.8 -31.4 -2.2 -31.4 -0.4 -31.05 1.45 -30.55 2.3 -29.95 3.2 -29.05 4.15 -27.3 4.55 -25.9 4.6 -24.7 4.45 -22.75 4.35 -21.35 4.2 -19.6 4.05 -17.9 3.8 -16.1 3.45 -14.25 3.2 -12.8 2.95 -11.2 2.75 -9.9 2.3 -8.6 1.8 -7.35 1.5 -6.75 2.15 -7.2 4.4 -8.55 4.5 -8.6 4.0 -6.9 3.4 -5.4 2.8 -4.05 2.25 -2.8 1.75 -1.5 1.5 -0.9 1.15 0.0 0.85 0.85 0.55 1.8 -8.3 2.65 M3.75 1.45 L5.95 -1.15 6.45 -1.8 5.8 1.35 3.95 1.4 3.75 1.45" fill="#fd9802" fill-rule="evenodd" stroke="none"/>
    </g>
  </defs>
</svg>
