<?xml version="1.0" encoding="UTF-8" standalone="no"?>
<svg xmlns:ffdec="https://www.free-decompiler.com/flash" xmlns:xlink="http://www.w3.org/1999/xlink" ffdec:objectType="frame" height="18.0px" width="34.0px" xmlns="http://www.w3.org/2000/svg">
  <g transform="matrix(1.0, 0.0, 0.0, 1.0, 0.0, 0.0)">
    <use ffdec:characterId="665" height="18.0" transform="matrix(1.0, 0.0, 0.0, 1.0, 0.0, 0.0)" width="34.0" xlink:href="#shape0"/>
  </g>
  <defs>
    <g id="shape0" transform="matrix(1.0, 0.0, 0.0, 1.0, 0.0, 0.0)">
      <path d="M30.6 2.5 L31.55 2.8 32.5 3.75 32.6 3.65 32.8 3.5 33.05 4.05 33.35 4.8 33.0 5.15 32.0 3.9 31.3 3.15 30.6 2.5 M0.85 4.15 L0.95 4.2 0.95 4.25 0.85 4.15 M1.4 5.5 L1.45 5.55 1.35 5.5 1.4 5.5 M1.7 4.95 Q3.25 2.7 5.8 2.0 L4.0 1.9 9.75 1.25 24.3 1.5 19.8 1.8 21.9 2.45 27.15 3.55 27.85 3.2 Q28.9 2.7 29.9 2.5 L26.0 5.05 26.1 5.8 26.7 5.95 25.7 6.15 Q23.25 5.15 20.45 4.7 L14.65 3.6 12.1 3.3 12.0 4.2 Q9.95 5.1 7.75 5.25 L3.65 5.4 3.75 3.55 3.2 3.85 1.75 5.0 1.7 4.95 M31.2 5.35 L31.25 5.4 31.2 5.4 31.2 5.35 M14.55 5.9 L12.4 5.8 12.7 5.7 14.55 5.9 M30.25 9.8 L29.9 10.05 28.55 9.85 28.35 9.75 27.65 9.6 24.9 9.0 30.25 9.8 M1.55 15.15 L1.4 15.3 1.2 14.55 1.55 15.15 M33.35 14.45 L32.85 14.6 33.35 14.4 33.35 14.45 M4.55 9.8 Q4.7 9.75 4.8 9.65 L5.25 10.85 4.55 9.8 M5.25 8.9 L5.25 8.75 5.65 8.8 5.25 8.9" fill="#e5dfdf" fill-rule="evenodd" stroke="none"/>
      <path d="M32.8 3.5 L32.6 3.65 32.5 3.75 31.55 2.8 30.6 2.5 29.9 2.5 Q28.9 2.7 27.85 3.2 L27.15 3.55 21.9 2.45 19.8 1.8 24.3 1.5 9.75 1.25 4.0 1.9 5.8 2.0 Q3.25 2.7 1.7 4.95 L1.6 5.5 1.45 5.55 1.4 5.5 0.9 5.0 0.95 4.25 0.95 4.2 0.85 4.15 0.65 3.85 Q1.35 0.45 6.55 0.15 8.4 0.05 11.6 0.25 L13.7 0.25 27.9 0.65 Q31.35 0.65 32.8 3.5" fill="#b8b5ae" fill-rule="evenodd" stroke="none"/>
      <path d="M30.6 2.5 L31.3 3.15 31.6 4.15 31.2 5.35 31.2 5.4 26.7 5.95 26.1 5.8 26.0 5.05 29.9 2.5 30.6 2.5 M12.4 5.8 Q11.35 6.5 10.1 7.0 7.75 8.05 5.2 8.65 L4.95 8.3 4.0 8.25 3.7 7.55 Q3.2 6.45 3.65 5.4 L7.75 5.25 Q9.95 5.1 12.0 4.2 L12.1 3.3 14.65 3.6 20.45 4.7 Q23.25 5.15 25.7 6.15 L12.7 5.7 12.4 5.8" fill="#c3baa9" fill-rule="evenodd" stroke="none"/>
      <path d="M31.3 3.15 L32.0 3.9 33.0 5.15 32.25 8.6 31.95 9.3 30.25 9.8 24.9 9.0 21.45 8.4 18.25 7.55 14.9 8.55 9.9 9.6 8.65 9.8 5.65 8.8 5.25 8.75 5.25 8.9 4.8 9.65 Q4.7 9.75 4.55 9.8 L3.85 9.1 3.35 8.65 2.55 8.5 2.7 9.45 2.7 9.65 1.6 9.5 1.25 9.2 Q1.05 7.65 1.3 6.35 L1.45 5.55 1.6 5.5 1.75 5.0 3.2 3.85 3.75 3.55 3.65 5.4 Q3.2 6.45 3.7 7.55 L4.0 8.25 4.95 8.3 5.2 8.65 Q7.75 8.05 10.1 7.0 11.35 6.5 12.4 5.8 L14.55 5.9 17.5 6.2 Q20.25 7.2 23.1 7.85 25.65 8.35 28.5 7.8 L31.15 8.0 30.85 7.0 31.5 6.45 31.25 5.4 31.2 5.35 31.6 4.15 31.3 3.15" fill="#5b594c" fill-rule="evenodd" stroke="none"/>
      <path d="M31.2 5.4 L31.25 5.4 31.5 6.45 30.85 7.0 30.8 7.0 29.0 7.05 23.2 6.9 17.5 6.2 14.55 5.9 12.7 5.7 25.7 6.15 26.7 5.95 31.2 5.4" fill="#c2bfb8" fill-rule="evenodd" stroke="none"/>
      <path d="M33.35 4.8 L33.05 4.05 32.8 3.5 Q31.35 0.65 27.9 0.65 L13.7 0.25 11.6 0.25 Q8.4 0.05 6.55 0.15 1.35 0.45 0.65 3.85 0.45 5.35 0.6 6.6 L0.65 10.3 1.2 14.55 1.4 15.3 Q1.9 16.35 3.0 16.7 L3.5 16.95 9.25 17.3 Q21.9 17.3 27.05 17.0 L27.5 17.05 Q30.15 17.05 31.7 16.2 L32.45 15.7 32.5 15.65 32.65 15.5 33.35 14.45 33.35 14.4 33.4 14.15 Q33.75 12.5 33.75 10.85 L33.75 9.95 Q34.0 7.75 33.6 5.85 L33.35 4.8 M31.0 0.0 Q33.95 0.0 34.0 2.9 L34.0 15.5 Q33.8 18.0 31.0 18.0 L3.0 18.0 Q0.05 18.0 0.0 15.2 L0.0 2.9 Q0.05 0.0 3.0 0.0 L31.0 0.0" fill="#221f18" fill-rule="evenodd" stroke="none"/>
      <path d="M33.0 5.15 L33.35 4.8 33.6 5.85 Q34.0 7.75 33.75 9.95 L33.5 9.3 32.25 8.6 33.0 5.15" fill="#7b7871" fill-rule="evenodd" stroke="none"/>
      <path d="M30.85 7.0 L31.15 8.0 28.5 7.8 Q25.65 8.35 23.1 7.85 20.25 7.2 17.5 6.2 L23.2 6.9 29.0 7.05 30.8 7.0 30.85 7.0" fill="#898883" fill-rule="evenodd" stroke="none"/>
      <path d="M33.05 10.6 Q32.75 10.0 31.95 10.35 L31.65 10.55 30.35 10.75 30.25 10.75 30.2 10.65 29.9 10.05 30.25 9.8 31.95 9.3 32.25 8.6 33.5 9.3 33.05 10.6 M17.85 11.55 L19.9 10.35 Q20.0 9.3 20.7 8.9 L21.45 8.4 24.9 9.0 27.65 9.6 22.35 10.4 17.85 11.55 15.75 12.5 15.35 12.5 16.3 11.8 17.1 11.45 17.85 11.55 M28.55 9.85 L28.5 9.85 28.35 9.75 28.55 9.85" fill="#d0cfd7" fill-rule="evenodd" stroke="none"/>
      <path d="M30.25 10.75 L30.35 10.75 31.65 10.55 30.1 11.6 30.15 10.6 30.25 10.75 M29.6 12.55 L31.25 12.1 32.15 12.45 33.0 12.5 32.55 13.45 32.3 13.5 31.75 13.9 28.8 14.6 28.6 13.5 Q28.35 13.05 28.0 13.05 L29.0 12.85 29.6 12.55 M10.65 13.3 L12.3 13.45 13.15 13.8 12.25 14.45 10.5 14.85 9.15 14.6 Q6.3 14.4 3.85 13.2 3.75 11.75 3.3 10.65 L2.85 10.55 2.7 9.65 2.7 9.45 5.25 13.0 5.5 12.6 5.2 12.25 5.5 11.35 6.25 12.35 7.4 13.65 10.65 13.3 M5.45 11.3 L3.85 9.75 3.85 9.1 4.55 9.8 5.25 10.85 5.45 11.3" fill="#9b999e" fill-rule="evenodd" stroke="none"/>
      <path d="M31.65 10.55 L31.95 10.35 Q32.75 10.0 33.05 10.6 L33.0 12.5 32.15 12.45 31.25 12.1 29.6 12.55 28.85 12.5 30.1 11.6 31.65 10.55" fill="#6e6e64" fill-rule="evenodd" stroke="none"/>
      <path d="M33.05 10.6 L33.5 9.3 33.75 9.95 33.75 10.85 Q33.75 12.5 33.4 14.15 L33.35 14.4 32.85 14.6 32.05 14.75 31.75 13.9 32.3 13.5 32.55 13.45 33.0 12.5 33.05 10.6" fill="#949182" fill-rule="evenodd" stroke="none"/>
      <path d="M21.45 8.4 L20.7 8.9 Q20.0 9.3 19.9 10.35 L17.85 11.55 17.1 11.45 17.25 10.15 11.35 10.6 8.0 10.15 7.75 10.85 7.95 11.25 Q10.8 12.6 14.15 12.55 L15.35 12.5 15.75 12.5 15.55 13.15 15.45 13.15 12.3 13.45 10.65 13.3 9.0 13.0 6.65 12.15 6.5 10.45 6.55 9.8 8.65 9.8 9.9 9.6 14.9 8.55 18.25 7.55 21.45 8.4" fill="#d4d2df" fill-rule="evenodd" stroke="none"/>
      <path d="M29.9 10.05 L30.2 10.65 30.25 10.75 30.15 10.6 30.1 11.6 28.85 12.5 29.6 12.55 29.0 12.85 28.0 13.05 24.9 12.6 Q26.95 12.35 28.4 10.95 L28.85 10.5 28.5 9.85 28.55 9.85 29.9 10.05" fill="#a5a9aa" fill-rule="evenodd" stroke="none"/>
      <path d="M17.85 11.55 L22.35 10.4 27.65 9.6 28.35 9.75 28.5 9.85 28.85 10.5 28.4 10.95 Q26.95 12.35 24.9 12.6 L24.3 12.65 15.55 13.15 15.75 12.5 17.85 11.55" fill="#c4c8cb" fill-rule="evenodd" stroke="none"/>
      <path d="M15.45 13.15 L15.55 13.15 24.3 12.65 24.9 12.6 28.0 13.05 Q28.35 13.05 28.6 13.5 L28.8 14.6 27.9 14.8 Q25.45 13.75 22.8 13.7 L17.9 13.6 15.45 13.15" fill="#afaba8" fill-rule="evenodd" stroke="none"/>
      <path d="M17.9 13.6 L22.8 13.7 Q25.45 13.75 27.9 14.8 L28.8 14.6 31.75 13.9 32.05 14.75 31.15 15.45 28.7 15.6 22.0 14.3 17.9 13.6 M3.9 15.15 L3.55 16.0 2.85 15.2 3.85 13.2 Q6.3 14.4 9.15 14.6 L10.5 14.85 9.9 15.35 Q7.1 15.85 4.35 14.85 L3.9 15.15" fill="#cac5c9" fill-rule="evenodd" stroke="none"/>
      <path d="M28.7 15.6 L31.15 15.45 32.05 14.75 32.85 14.6 33.35 14.45 32.65 15.5 32.5 15.65 32.45 15.7 31.7 16.2 Q30.15 17.05 27.5 17.05 L27.05 17.0 Q21.9 17.3 9.25 17.3 L3.5 16.95 3.0 16.7 Q1.9 16.35 1.4 15.3 L1.55 15.15 2.85 15.2 3.55 16.0 3.9 15.15 Q6.25 16.4 9.5 16.25 L25.6 16.25 28.7 15.6" fill="#cfc8c0" fill-rule="evenodd" stroke="none"/>
      <path d="M22.0 14.3 L28.7 15.6 25.6 16.25 9.5 16.25 Q6.25 16.4 3.9 15.15 L4.35 14.85 Q7.1 15.85 9.9 15.35 L10.5 14.85 12.25 14.45 16.35 14.9 Q19.35 15.6 22.0 14.3" fill="#dfd8ce" fill-rule="evenodd" stroke="none"/>
      <path d="M12.3 13.45 L15.45 13.15 17.9 13.6 22.0 14.3 Q19.35 15.6 16.35 14.9 L12.25 14.45 13.15 13.8 12.3 13.45" fill="#ebe8e1" fill-rule="evenodd" stroke="none"/>
      <path d="M15.35 12.5 L14.15 12.55 Q10.8 12.6 7.95 11.25 L7.75 10.85 8.0 10.15 11.35 10.6 17.25 10.15 17.1 11.45 16.3 11.8 15.35 12.5" fill="#e0dfe4" fill-rule="evenodd" stroke="none"/>
      <path d="M0.65 3.85 L0.85 4.15 0.95 4.25 0.9 5.0 1.4 5.5 1.35 5.5 1.45 5.55 1.3 6.35 Q1.05 7.65 1.25 9.2 L0.65 10.3 0.6 6.6 Q0.45 5.35 0.65 3.85 M1.6 5.5 L1.7 4.95 1.75 5.0 1.6 5.5" fill="#686350" fill-rule="evenodd" stroke="none"/>
      <path d="M2.7 9.45 L2.55 8.5 3.35 8.65 3.85 9.1 3.85 9.75 5.45 11.3 5.5 11.35 5.2 12.25 5.5 12.6 5.25 13.0 2.7 9.45" fill="#7e7e80" fill-rule="evenodd" stroke="none"/>
      <path d="M8.65 9.8 L6.55 9.8 6.5 10.45 6.65 12.15 9.0 13.0 10.65 13.3 7.4 13.65 6.25 12.35 5.5 11.35 5.45 11.3 5.25 10.85 4.8 9.65 5.25 8.9 5.65 8.8 8.65 9.8 M2.85 15.2 L1.55 15.15 1.2 14.55 0.65 10.3 1.25 9.2 1.6 9.5 2.7 9.65 2.85 10.55 3.3 10.65 Q3.75 11.75 3.85 13.2 L2.85 15.2" fill="#b9bec1" fill-rule="evenodd" stroke="none"/>
    </g>
  </defs>
</svg>
