<?xml version="1.0" encoding="UTF-8" standalone="no"?>
<svg xmlns:ffdec="https://www.free-decompiler.com/flash" xmlns:xlink="http://www.w3.org/1999/xlink" ffdec:objectType="frame" height="61.45px" width="67.25px" xmlns="http://www.w3.org/2000/svg">
  <g transform="matrix(1.0, 0.0, 0.0, 1.0, 49.95, 38.55)">
    <use ffdec:characterId="1302" height="16.85" transform="matrix(1.0, 0.0, 0.0, 1.0, -10.2, 6.05)" width="11.7" xlink:href="#sprite0"/>
    <use ffdec:characterId="1304" height="29.85" transform="matrix(1.0, 0.0, 0.0, 1.0, -13.65, -16.15)" width="25.5" xlink:href="#sprite1"/>
    <use ffdec:characterId="1111" height="100.0" id="shape" transform="matrix(0.27, 0.0, 0.0, 0.27, -13.5002, -13.5002)" width="100.0" xlink:href="#sprite2"/>
  </g>
  <defs>
    <g id="sprite0" transform="matrix(1.0, 0.0, 0.0, 1.0, 4.9, 8.7)">
      <use ffdec:characterId="1301" height="16.85" transform="matrix(1.0, 0.0, 0.0, 1.0, -4.9, -8.7)" width="11.7" xlink:href="#shape0"/>
    </g>
    <g id="shape0" transform="matrix(1.0, 0.0, 0.0, 1.0, 4.9, 8.7)">
      <path d="M-3.6 -5.15 L-3.55 -5.7 -3.25 -7.5 -2.65 -8.55 -1.3 -8.7 4.05 -7.15 6.4 -5.85 6.8 -5.55 6.4 -4.6 5.9 -2.85 Q5.5 -1.6 5.45 -1.0 L5.4 0.95 5.4 1.25 4.85 1.35 Q1.7 -2.95 -3.1 -5.4 L-3.6 -5.15" fill="#e2b181" fill-rule="evenodd" stroke="none"/>
      <path d="M-3.6 -5.15 L-3.1 -5.4 Q1.7 -2.95 4.85 1.35 L5.4 1.25 Q5.4 3.1 5.7 5.8 L6.05 8.15 5.7 7.65 Q0.25 2.55 -4.9 3.95 -4.95 2.2 -4.5 1.3 -4.1 0.35 -4.0 -0.9 L-3.6 -5.15" fill="#ffcc99" fill-rule="evenodd" stroke="none"/>
    </g>
    <g id="sprite1" transform="matrix(1.0, 0.0, 0.0, 1.0, 13.2, 16.7)">
      <use ffdec:characterId="1303" height="29.85" transform="matrix(1.0, 0.0, 0.0, 1.0, -13.2, -16.7)" width="25.5" xlink:href="#shape1"/>
    </g>
    <g id="shape1" transform="matrix(1.0, 0.0, 0.0, 1.0, 13.2, 16.7)">
      <path d="M-2.15 -13.4 Q-1.85 -13.55 -1.3 -13.85 L0.15 -14.4 1.85 -14.6 3.55 -14.45 7.9 -13.6 Q10.2 -13.65 11.45 -12.15 12.3 -11.15 12.3 -10.15 L12.1 -8.85 11.45 -7.8 11.4 -7.7 11.4 -7.65 11.2 -7.6 10.9 -7.75 10.8 -7.7 10.15 -7.7 7.45 -7.8 6.9 -7.6 6.8 -7.6 Q5.05 -7.6 3.25 -5.8 1.7 -4.25 1.05 -2.6 L0.0 -0.5 -0.05 -4.05 -0.1 -4.35 Q1.05 -8.7 5.05 -10.85 L5.05 -10.95 3.3 -11.7 Q3.05 -12.1 1.6 -12.1 L-1.6 -11.75 Q-3.7 -11.3 -4.1 -10.45 L-4.1 -10.6 -2.15 -13.4 M-12.75 -4.3 L-12.65 -5.3 Q-12.4 -6.8 -11.65 -7.95 L-10.85 -7.6 -7.35 -8.0 -6.2 -8.0 -8.75 -6.5 Q-9.75 -5.65 -9.95 -4.5 L-9.95 -5.15 -9.7 -6.55 Q-10.65 -6.1 -11.3 -4.35 -11.9 -2.7 -11.65 -1.3 L-12.35 -3.05 -12.75 -4.3 M-13.15 -12.05 L-13.2 -12.1 -13.15 -12.1 Q-13.05 -13.9 -11.8 -15.15 -10.5 -16.45 -8.65 -16.65 -6.2 -16.9 -5.05 -15.5 L-4.4 -14.2 -4.1 -13.1 Q-4.1 -12.2 -4.85 -11.25 L-5.5 -10.5 -5.1 -11.15 Q-4.85 -11.7 -4.85 -12.8 -4.85 -13.7 -5.2 -14.75 L-5.3 -14.6 -5.25 -14.4 -5.2 -13.3 Q-5.2 -12.55 -5.8 -10.8 -5.75 -11.35 -6.25 -12.0 L-6.35 -12.1 -6.55 -11.5 -6.45 -12.2 Q-7.05 -12.85 -7.65 -12.85 L-8.3 -12.8 -8.8 -12.2 -8.25 -10.8 Q-7.8 -9.95 -7.7 -9.35 -7.9 -9.65 -8.3 -9.75 L-8.4 -9.2 Q-8.75 -10.7 -9.6 -11.35 L-9.6 -11.25 Q-9.05 -10.9 -8.9 -10.2 L-8.85 -8.85 -8.85 -8.75 -9.55 -8.6 -11.05 -8.9 -11.35 -9.05 -11.5 -9.15 -11.95 -9.7 Q-12.9 -10.85 -13.15 -12.05 M-1.35 6.15 L-1.65 7.6 Q-1.65 8.05 -1.1 8.7 L0.9 9.75 0.85 9.85 0.45 9.85 -1.15 9.25 Q-2.5 8.35 -2.5 6.85 L-2.45 6.15 -2.45 5.85 -1.95 4.15 -1.85 3.95 Q-1.35 2.6 -1.35 1.9 -1.35 0.65 -1.7 -0.9 -2.1 -2.45 -2.1 -3.5 -2.1 -7.0 0.95 -9.55 L-0.05 -8.25 Q-0.95 -6.7 -0.95 -3.45 L-0.75 -1.0 -0.6 1.35 -0.6 1.75 -0.95 3.35 -1.1 4.2 -1.15 4.65 -1.35 6.15 M3.2 -11.7 Q2.4 -11.7 1.95 -11.35 L1.25 -10.95 -0.1 -9.9 -1.85 -8.75 -3.55 -7.75 Q-4.4 -7.05 -4.6 -5.85 -4.8 -4.6 -6.8 -2.15 -8.0 -0.7 -8.2 0.85 L-8.2 -0.5 -7.95 -1.4 -7.6 -2.1 Q-6.0 -3.8 -5.45 -5.25 L-5.4 -5.45 Q-6.1 -4.75 -8.25 -3.2 -10.4 -1.6 -10.55 0.1 L-10.45 -1.6 -10.5 -2.35 -10.45 -3.1 -9.95 -4.5 -9.3 -5.45 Q-8.6 -6.1 -7.15 -6.55 L-4.95 -7.25 -4.9 -7.4 -4.45 -8.6 -3.2 -9.9 -1.95 -11.0 -1.2 -11.0 Q0.45 -11.9 3.2 -11.7 M9.4 -1.0 L9.2 -0.9 7.5 -0.4 5.85 0.05 4.8 0.15 5.35 -0.25 Q7.0 -1.45 9.05 -1.6 L9.45 -1.35 Q9.9 -1.1 9.4 -1.0" fill="#f5de71" fill-rule="evenodd" stroke="none"/>
      <path d="M-5.2 8.4 L-5.45 8.85 -6.1 9.4 -7.4 10.25 -8.05 10.35 -8.1 10.25 -8.85 10.25 Q-7.2 10.05 -7.2 8.75 L-7.25 8.4 -7.65 8.2 Q-8.95 9.1 -11.85 9.25 L-10.15 7.8 Q-9.85 7.25 -9.85 5.85 -9.85 5.05 -10.1 4.5 L-10.2 4.15 -10.35 3.9 -10.45 3.7 -11.7 1.75 -12.15 0.25 Q-12.8 -1.1 -12.8 -2.2 L-12.75 -4.3 -12.35 -3.05 -11.65 -1.3 Q-11.9 -2.7 -11.3 -4.35 -10.65 -6.1 -9.7 -6.55 L-9.95 -5.15 -9.95 -4.5 Q-9.75 -5.65 -8.75 -6.5 L-6.2 -8.0 -7.35 -8.0 -10.85 -7.6 -11.65 -7.95 -11.35 -8.4 -11.25 -8.5 Q-13.2 -9.4 -13.2 -11.7 L-13.15 -12.05 Q-12.9 -10.85 -11.95 -9.7 L-11.5 -9.15 -11.35 -9.05 -11.05 -8.9 -9.55 -8.6 -8.85 -8.75 -8.85 -8.85 -8.9 -10.2 Q-9.05 -10.9 -9.6 -11.25 L-9.6 -11.35 Q-8.75 -10.7 -8.4 -9.2 L-8.3 -9.75 Q-7.9 -9.65 -7.7 -9.35 -7.8 -9.95 -8.25 -10.8 L-8.8 -12.2 -8.3 -12.8 -7.65 -12.85 Q-7.05 -12.85 -6.45 -12.2 L-6.55 -11.5 -6.35 -12.1 -6.25 -12.0 Q-5.75 -11.35 -5.8 -10.8 -5.2 -12.55 -5.2 -13.3 L-5.25 -14.4 -5.3 -14.6 -5.2 -14.75 Q-4.85 -13.7 -4.85 -12.8 -4.85 -11.7 -5.1 -11.15 L-5.5 -10.5 -4.85 -11.25 Q-4.1 -12.2 -4.1 -13.1 L-4.4 -14.2 -3.75 -14.25 -2.25 -13.95 Q-2.1 -14.05 -2.15 -13.4 L-4.1 -10.6 -4.1 -10.45 Q-3.7 -11.3 -1.6 -11.75 L1.6 -12.1 Q3.05 -12.1 3.3 -11.7 L5.05 -10.95 5.05 -10.85 Q1.05 -8.7 -0.1 -4.35 L-0.05 -4.05 0.0 -0.5 1.05 -2.6 Q1.7 -4.25 3.25 -5.8 5.05 -7.6 6.8 -7.6 L6.9 -7.6 6.65 -7.5 4.5 -6.1 Q2.6 -4.25 1.9 -2.7 L0.5 1.3 0.1 2.35 0.1 3.55 -0.1 4.5 -0.75 5.3 -1.35 6.15 -1.15 4.65 -1.1 4.2 -0.95 3.35 -0.6 1.75 -0.6 1.35 -0.75 -1.0 -0.95 -3.45 Q-0.95 -6.7 -0.05 -8.25 L0.95 -9.55 Q-2.1 -7.0 -2.1 -3.5 -2.1 -2.45 -1.7 -0.9 -1.35 0.65 -1.35 1.9 -1.35 2.6 -1.85 3.95 L-1.95 4.15 -2.45 5.85 -2.45 6.15 -2.5 6.85 Q-2.5 8.35 -1.15 9.25 L0.45 9.85 -0.55 9.85 Q-4.1 9.1 -4.1 5.45 -4.1 4.05 -3.2 2.35 -2.35 0.65 -2.35 0.05 L-2.6 -1.35 Q-3.0 -2.5 -3.75 -2.5 -5.5 -2.5 -6.1 -1.65 L-6.35 -0.7 -5.9 0.65 -5.35 1.9 -5.25 4.5 -5.05 5.9 -4.85 7.15 -4.85 7.7 -4.9 8.0 -5.2 8.4 M3.2 -11.7 Q0.45 -11.9 -1.2 -11.0 L-1.95 -11.0 -3.2 -9.9 -4.45 -8.6 -4.9 -7.4 -4.95 -7.25 -7.15 -6.55 Q-8.6 -6.1 -9.3 -5.45 L-9.95 -4.5 -10.45 -3.1 -10.5 -2.35 -10.45 -1.6 -10.55 0.1 Q-10.4 -1.6 -8.25 -3.2 -6.1 -4.75 -5.4 -5.45 L-5.45 -5.25 Q-6.0 -3.8 -7.6 -2.1 L-7.95 -1.4 -8.2 -0.5 -8.2 0.85 Q-8.0 -0.7 -6.8 -2.15 -4.8 -4.6 -4.6 -5.85 -4.4 -7.05 -3.55 -7.75 L-1.85 -8.75 -0.1 -9.9 1.25 -10.95 1.95 -11.35 Q2.4 -11.7 3.2 -11.7" fill="#d7ba62" fill-rule="evenodd" stroke="none"/>
      <path d="M11.4 -7.65 L11.6 -5.7 Q11.8 -3.85 11.35 -2.5 L10.4 -0.05 Q9.95 1.0 10.75 2.7 L11.45 3.7 Q12.1 4.5 11.85 5.35 L11.6 5.6 9.8 5.8 Q9.05 6.0 9.05 6.8 9.05 7.2 9.55 7.65 L9.7 7.8 9.85 7.95 9.9 8.0 9.8 8.0 9.25 8.15 8.5 8.35 8.35 8.4 7.6 8.95 7.55 9.0 7.65 9.05 8.0 8.9 9.3 8.65 9.75 8.6 9.85 8.55 9.8 8.7 9.6 9.35 9.4 9.55 9.05 9.85 Q8.65 10.25 8.7 10.85 L8.4 12.35 Q8.05 13.25 5.6 13.15 0.9 12.05 -1.65 10.75 L-4.65 8.95 -5.2 8.4 -4.9 8.0 -4.85 7.7 -4.85 7.15 -5.05 5.9 -5.25 4.5 -5.35 1.9 -5.9 0.65 -6.35 -0.7 -6.1 -1.65 Q-5.5 -2.5 -3.75 -2.5 -3.0 -2.5 -2.6 -1.35 L-2.35 0.05 Q-2.35 0.65 -3.2 2.35 -4.1 4.05 -4.1 5.45 -4.1 9.1 -0.55 9.85 L0.45 9.85 0.85 9.85 0.9 9.75 -1.1 8.7 Q-1.65 8.05 -1.65 7.6 L-1.35 6.15 -0.75 5.3 -0.1 4.5 0.1 3.55 0.1 2.35 0.5 1.3 1.9 -2.7 Q2.6 -4.25 4.5 -6.1 L6.65 -7.5 6.9 -7.6 7.45 -7.8 10.15 -7.7 10.8 -7.7 10.9 -7.75 11.2 -7.6 11.4 -7.65 M5.85 0.05 Q5.1 0.45 5.1 0.95 L5.75 1.9 Q6.55 2.85 7.3 2.85 8.15 2.85 9.0 2.2 9.85 1.55 9.85 0.85 L9.8 -0.35 9.4 -1.0 Q9.9 -1.1 9.45 -1.35 L9.05 -1.6 Q7.0 -1.45 5.35 -0.25 L4.8 0.15 5.85 0.05 M-5.2 -0.35 L-5.1 -0.5 -5.15 -1.0 -4.3 -1.15 Q-3.65 -1.1 -4.05 -0.4 L-4.45 0.15 -4.75 0.6 -4.3 0.9 -4.15 0.95 Q-4.35 1.65 -3.5 1.45 L-3.3 0.9 -3.8 0.45 -3.35 -0.3 Q-3.15 -1.15 -3.6 -1.6 -4.65 -2.2 -5.5 -1.35 -5.85 -0.55 -5.2 -0.35" fill="#ffcc99" fill-rule="evenodd" stroke="none"/>
      <path d="M11.6 5.6 L10.8 6.15 9.6 6.85 9.8 7.4 10.0 7.95 10.0 8.05 10.0 8.15 9.9 8.0 9.85 7.95 9.7 7.8 9.55 7.65 Q9.05 7.2 9.05 6.8 9.05 6.0 9.8 5.8 L11.6 5.6 M9.4 -1.0 L9.8 -0.35 9.85 0.85 Q9.85 1.55 9.0 2.2 8.15 2.85 7.3 2.85 6.55 2.85 5.75 1.9 L5.1 0.95 Q5.1 0.45 5.85 0.05 L7.5 -0.4 9.2 -0.9 9.4 -1.0 M-5.2 -0.35 Q-5.85 -0.55 -5.5 -1.35 -4.65 -2.2 -3.6 -1.6 -3.15 -1.15 -3.35 -0.3 L-3.8 0.45 -3.3 0.9 -3.5 1.45 Q-4.35 1.65 -4.15 0.95 L-4.3 0.9 -4.75 0.6 -4.45 0.15 -4.05 -0.4 Q-3.65 -1.1 -4.3 -1.15 L-5.15 -1.0 -5.1 -0.5 -5.2 -0.35 M8.5 0.2 L8.45 0.0 7.1 0.45 7.05 0.45 Q6.7 0.6 6.7 1.0 6.7 1.55 7.05 1.55 L7.3 1.4 7.75 1.3 7.8 1.2 7.8 0.9 8.2 0.55 8.25 0.55 Q8.3 0.45 8.45 0.4 L8.5 0.2" fill="#c79b68" fill-rule="evenodd" stroke="none"/>
      <path d="M10.0 8.15 L9.85 8.55 9.75 8.6 9.3 8.65 8.0 8.9 7.65 9.05 7.55 9.0 7.6 8.95 8.35 8.4 8.5 8.35 9.25 8.15 9.8 8.0 9.9 8.0 10.0 8.15" fill="#ebbb98" fill-rule="evenodd" stroke="none"/>
      <path d="M8.5 0.2 L8.45 0.4 Q8.3 0.45 8.25 0.55 L8.2 0.55 7.8 0.9 7.8 1.2 7.75 1.3 7.3 1.4 7.05 1.55 Q6.7 1.55 6.7 1.0 6.7 0.6 7.05 0.45 L7.1 0.45 8.45 0.0 8.5 0.2" fill="#000000" fill-rule="evenodd" stroke="none"/>
    </g>
    <g id="sprite2" transform="matrix(1.0, 0.0, 0.0, 1.0, 50.0, 50.0)">
      <use ffdec:characterId="1110" height="100.0" transform="matrix(1.0, 0.0, 0.0, 1.0, -50.0, -50.0)" width="100.0" xlink:href="#shape2"/>
    </g>
    <g id="shape2" transform="matrix(1.0, 0.0, 0.0, 1.0, 50.0, 50.0)">
      <path d="M35.35 -35.35 Q50.0 -20.7 50.0 0.0 50.0 20.7 35.35 35.35 20.7 50.0 0.0 50.0 -20.7 50.0 -35.35 35.35 -50.0 20.7 -50.0 0.0 -50.0 -20.7 -35.35 -35.35 -20.7 -50.0 0.0 -50.0 20.7 -50.0 35.35 -35.35 Z" fill="none" stroke="#9900ff" stroke-linecap="round" stroke-linejoin="round" stroke-width="0.05"/>
    </g>
  </defs>
</svg>
