<?xml version="1.0" encoding="UTF-8" standalone="no"?>
<svg xmlns:ffdec="https://www.free-decompiler.com/flash" xmlns:xlink="http://www.w3.org/1999/xlink" ffdec:objectType="frame" height="55.35px" width="45.25px" xmlns="http://www.w3.org/2000/svg">
  <g transform="matrix(1.0, 0.0, 0.0, 1.0, 21.85, 29.2)">
    <use ffdec:characterId="1895" height="55.35" transform="matrix(1.0, 0.0, 0.0, 1.0, -21.85, -29.2)" width="45.25" xlink:href="#shape0"/>
  </g>
  <defs>
    <g id="shape0" transform="matrix(1.0, 0.0, 0.0, 1.0, 21.85, 29.2)">
      <path d="M15.8 22.65 L15.75 22.65 14.3 22.35 15.65 22.1 15.6 22.3 15.8 22.65 M5.35 24.55 Q1.7 26.15 0.65 26.15 -1.1 26.15 -1.9 25.3 L-3.3 24.0 -3.6 23.75 Q-3.45 23.15 -2.75 23.15 L-1.85 23.4 -1.55 23.55 -1.5 23.6 -1.35 23.55 -0.15 23.3 -0.1 23.3 8.35 21.9 8.45 21.8 Q9.55 21.05 10.6 21.05 9.95 21.2 9.4 21.65 6.2 23.55 5.15 24.4 L5.35 24.55 M-8.15 21.5 L-9.5 21.55 Q-10.6 21.55 -10.7 20.95 -10.6 20.2 -10.85 19.9 -11.2 19.5 -12.25 19.15 L-13.75 18.65 Q-16.45 16.85 -16.45 15.35 L-16.35 14.3 -16.0 14.2 -15.95 13.9 -16.0 13.75 -16.15 13.6 -15.75 12.8 -15.85 13.65 -15.85 14.25 Q-15.65 14.8 -14.6 14.8 -13.55 14.8 -10.6 13.4 L-10.6 13.25 Q-12.2 11.55 -13.6 11.4 L-13.3 11.15 -12.25 11.0 -12.35 10.3 -12.25 9.95 -12.1 10.15 -10.5 9.3 Q-9.95 8.95 -9.95 8.3 L-9.9 8.4 -7.85 7.75 -6.7 6.85 Q-4.95 4.55 -2.5 2.9 -0.85 1.8 -0.05 -0.2 L0.45 -0.1 3.85 -5.15 4.85 -2.9 5.7 -3.0 3.8 0.5 1.7 0.5 1.7 1.5 2.6 2.05 0.85 4.3 -0.45 6.4 Q-1.05 7.4 -2.35 7.7 L-2.55 7.3 Q-3.75 6.8 -5.05 7.6 -6.35 8.25 -6.2 9.85 -6.05 10.55 -5.25 10.3 L-3.5 9.55 -2.5 9.0 -2.65 10.15 -2.15 10.2 -3.05 10.8 Q-2.9 11.95 -0.85 11.35 1.9 11.1 3.75 9.05 4.05 11.2 2.05 12.45 0.0 13.75 -2.05 12.65 L-2.9 11.75 -3.05 11.8 Q-3.6 11.9 -4.05 12.15 -5.8 12.7 -7.05 11.4 L-7.05 10.4 Q-6.9 9.1 -6.0 8.15 L-7.2 8.35 -8.85 9.05 -9.75 9.55 -9.85 10.0 -9.55 14.8 -9.7 14.8 Q-11.7 14.85 -13.1 15.65 L-13.0 16.05 -12.85 16.15 -11.0 15.95 Q-10.0 16.3 -9.95 17.65 L-8.35 17.8 Q-7.95 17.8 -7.7 17.05 L-7.6 16.85 -7.55 17.65 -7.7 18.8 -7.7 18.85 -7.75 19.25 -6.75 20.3 Q-6.75 21.0 -7.25 21.25 L-8.15 21.5 M-16.8 -13.45 Q-16.8 -14.55 -16.45 -15.2 L-16.6 -15.85 -16.25 -17.5 -16.6 -18.45 -16.95 -19.6 -16.85 -20.5 Q-16.7 -19.85 -16.1 -19.85 -14.15 -19.85 -13.2 -21.0 L-12.2 -22.4 -11.95 -22.4 -12.05 -22.65 -11.95 -22.85 -12.15 -22.9 -12.55 -24.6 -11.8 -25.7 -11.5 -26.25 -11.75 -24.7 -11.65 -24.7 Q-10.65 -25.35 -9.4 -25.6 L-9.35 -25.6 -7.85 -25.85 Q-6.1 -26.0 -4.55 -25.1 L-4.25 -23.8 -3.55 -23.25 -1.0 -23.7 -0.5 -23.85 0.25 -24.4 0.3 -24.75 0.3 -25.0 0.5 -24.6 0.65 -24.15 0.8 -22.95 0.8 -22.75 0.3 -21.85 -2.75 -21.65 Q-4.5 -21.8 -5.4 -23.2 L-6.45 -24.0 -9.1 -24.5 -9.9 -24.15 -10.35 -23.25 -9.8 -23.05 -12.05 -23.3 -8.6 -20.9 -11.3 -21.3 -11.4 -21.05 -11.35 -20.95 -13.3 -20.0 Q-15.45 -18.6 -15.5 -17.5 L-13.7 -18.75 Q-12.15 -19.9 -11.6 -19.9 L-10.9 -20.05 -10.9 -20.0 -8.8 -19.6 Q-5.85 -18.6 -3.45 -16.4 -1.25 -16.25 -0.15 -14.5 2.1 -11.0 3.2 -6.95 L1.95 -4.65 1.8 -6.45 Q1.45 -8.45 0.4 -10.3 L-0.8 -12.25 -0.5 -10.55 0.15 -5.05 Q0.3 -2.8 -0.6 -0.9 L-0.9 -0.35 -1.85 1.0 Q-3.75 2.85 -6.2 3.65 L-4.9 1.65 -4.7 1.25 -4.7 1.2 -4.95 0.9 -8.0 1.7 Q-9.7 0.3 -13.25 1.2 L-15.25 1.8 -15.2 1.75 -11.95 -1.1 Q-13.55 -1.5 -13.4 -2.75 L-13.3 -3.4 -13.75 -4.45 -13.35 -4.1 Q-13.2 -4.15 -13.2 -4.8 -13.2 -6.0 -14.45 -6.65 -14.85 -8.1 -14.85 -9.35 L-14.35 -11.9 -14.6 -12.4 -15.15 -12.15 -15.85 -11.85 -16.75 -12.15 -16.85 -12.95 -16.8 -13.45 M11.3 -11.25 L11.15 -10.5 Q10.7 -9.9 9.85 -10.05 L9.8 -10.05 Q9.25 -10.15 8.8 -10.35 L8.45 -10.5 Q8.15 -10.9 8.15 -11.4 8.2 -12.4 7.55 -13.2 L7.15 -13.5 5.95 -13.65 5.2 -13.15 5.9 -9.5 2.8 -12.3 4.05 -14.05 6.1 -15.35 6.7 -14.65 7.75 -15.0 7.85 -15.05 8.7 -13.55 10.25 -11.85 11.3 -11.25 M14.4 -4.45 L14.6 -3.25 14.0 -2.4 Q13.1 -1.65 11.65 -2.15 L11.15 -2.5 11.5 -4.65 11.85 -3.55 Q12.5 -3.65 13.1 -3.9 L13.15 -3.9 14.4 -4.45 M3.95 -15.75 L1.65 -14.3 Q0.05 -17.15 -2.7 -19.3 L-1.75 -19.4 -1.05 -18.65 0.0 -18.65 0.7 -20.0 0.25 -20.2 Q0.3 -21.1 0.8 -21.5 L0.7 -20.95 Q0.7 -20.45 1.4 -20.0 2.1 -19.5 2.95 -19.5 3.2 -19.5 3.55 -20.25 L3.65 -20.35 3.95 -21.2 4.1 -20.25 4.1 -19.9 3.65 -18.8 Q3.0 -18.0 1.8 -18.0 L1.35 -18.0 1.7 -16.5 Q2.95 -17.05 3.95 -15.75 M-4.5 -21.0 L-4.85 -20.9 -5.25 -21.15 -4.5 -21.0 M-16.55 3.75 L-16.1 3.9 -14.9 3.1 Q-13.5 2.3 -12.5 2.3 -11.95 2.3 -11.35 2.85 -10.8 3.4 -10.15 3.4 L-9.55 3.5 -8.4 4.6 -8.65 4.7 Q-10.0 3.9 -13.6 4.05 L-13.1 4.4 -12.1 4.4 -12.85 4.5 -13.0 4.65 Q-11.95 4.85 -10.85 5.75 -9.95 6.55 -8.6 6.55 L-8.25 6.5 -8.2 6.5 -8.9 7.15 -9.4 7.3 -9.6 6.8 Q-11.6 6.5 -12.45 7.25 L-13.05 8.0 -14.2 7.25 Q-16.35 5.9 -16.55 3.75 M13.1 21.15 Q13.15 20.35 13.7 19.9 L13.75 20.55 Q14.0 21.45 14.6 21.45 L14.95 21.45 14.3 21.65 13.1 21.15 M16.1 20.35 L16.1 20.7 16.05 21.05 15.45 21.25 15.6 21.15 16.1 20.35 M12.95 8.9 L13.1 9.4 Q13.1 10.5 11.2 10.5 10.55 10.5 9.05 8.5 L7.7 6.45 8.35 5.6 8.35 5.55 12.05 9.35 Q12.35 9.35 12.8 9.0 L12.95 8.9 M6.55 3.65 L5.2 3.0 3.35 2.15 3.7 2.15 Q4.5 2.15 4.75 1.85 L4.8 1.75 4.9 1.8 6.55 3.65 M-6.9 -14.25 L-9.05 -14.1 -9.05 -14.25 -10.4 -12.5 Q-12.75 -9.3 -13.1 -6.6 L-12.85 -5.7 -12.6 -5.05 -10.7 -3.55 -10.4 -3.3 -10.45 -4.2 -10.2 -4.2 Q-9.8 -4.3 -9.45 -4.55 L-8.05 -5.8 -7.6 -5.85 -9.7 -2.7 -9.0 -2.0 -7.8 -2.05 Q-5.85 -2.5 -4.85 -4.15 -3.1 -4.05 -2.25 -5.55 -0.45 -8.8 -2.3 -12.15 L-3.95 -14.9 -4.4 -15.55 -3.3 -10.35 -4.75 -12.8 Q-5.5 -13.9 -6.9 -14.25 M-8.6 -17.6 L-9.1 -17.9 Q-11.9 -17.2 -13.75 -16.15 -16.1 -14.85 -16.1 -13.5 L-16.05 -13.05 -15.85 -13.0 -14.85 -14.1 Q-12.45 -14.1 -12.05 -14.75 -11.1 -16.25 -8.6 -17.6 M-14.3 -4.95 L-13.8 -4.5 -14.25 -4.7 -14.3 -4.95 M-8.8 -1.45 L-8.7 -1.45 -8.65 -1.5 -8.8 -1.45 M-10.1 7.65 L-9.95 7.65 -9.95 8.1 -10.0 7.8 -10.1 7.65" fill="#990000" fill-rule="evenodd" stroke="none"/>
      <path d="M5.7 -25.75 Q6.65 -25.75 7.35 -25.25 8.0 -24.8 8.0 -24.1 7.55 -22.1 6.4 -22.3 L5.5 -23.0 5.4 -25.35 5.7 -25.75 M14.3 22.35 L11.15 22.55 Q10.2 22.6 8.3 23.65 L6.5 24.75 5.35 24.55 5.15 24.4 Q6.2 23.55 9.4 21.65 9.95 21.2 10.6 21.05 L11.25 20.9 12.6 21.0 13.1 21.15 14.3 21.65 14.95 21.45 14.6 21.45 Q14.0 21.45 13.75 20.55 L13.7 19.9 13.65 19.8 Q13.65 19.0 14.9 18.95 16.1 18.95 16.1 20.05 L16.1 20.35 15.6 21.15 15.45 21.25 16.05 21.05 16.4 20.95 Q16.65 20.95 16.65 21.3 16.65 21.8 15.65 22.1 L14.3 22.35 M-16.85 -20.5 L-16.85 -21.25 Q-16.85 -22.55 -15.65 -23.1 L-12.15 -22.9 -11.95 -22.85 -12.05 -22.65 -12.2 -22.4 -13.2 -21.0 Q-14.15 -19.85 -16.1 -19.85 -16.7 -19.85 -16.85 -20.5 M3.3 -22.1 L3.8 -22.15 3.95 -21.5 3.95 -21.45 3.95 -21.2 3.65 -20.35 3.55 -20.25 Q3.2 -19.5 2.95 -19.5 2.1 -19.5 1.4 -20.0 0.7 -20.45 0.7 -20.95 L0.8 -21.5 1.3 -21.95 1.8 -22.05 3.3 -22.1 M7.1 -16.65 Q8.05 -16.55 8.7 -15.75 L8.65 -15.3 8.6 -15.35 8.7 -15.25 11.45 -12.45 11.3 -11.25 10.25 -11.85 8.7 -13.55 7.85 -15.05 7.75 -15.0 6.7 -14.65 6.1 -15.35 4.05 -14.05 2.8 -12.3 5.9 -9.5 5.95 -9.45 6.35 -8.0 6.55 -5.4 Q6.7 -3.95 5.7 -3.0 L4.85 -2.9 3.85 -5.15 0.45 -0.1 -0.05 -0.2 Q-0.85 1.8 -2.5 2.9 -4.95 4.55 -6.7 6.85 L-7.85 7.75 -9.9 8.4 -9.95 8.3 Q-9.95 8.95 -10.5 9.3 L-12.1 10.15 -12.25 9.95 Q-12.6 9.5 -12.6 8.9 -12.6 8.5 -12.9 8.4 L-13.35 8.25 -13.05 8.0 -12.45 7.25 Q-11.6 6.5 -9.6 6.8 L-9.4 7.3 -8.9 7.15 -8.2 6.5 -8.25 6.5 -8.6 6.55 Q-9.95 6.55 -10.85 5.75 -11.95 4.85 -13.0 4.65 L-12.85 4.5 -12.1 4.4 -13.1 4.4 -13.6 4.05 Q-10.0 3.9 -8.65 4.7 L-8.4 4.6 -9.55 3.5 -10.15 3.4 Q-10.8 3.4 -11.35 2.85 -11.95 2.3 -12.5 2.3 -13.5 2.3 -14.9 3.1 L-16.1 3.9 -16.55 3.75 -16.85 2.95 Q-16.85 2.4 -15.25 1.8 L-13.25 1.2 Q-9.7 0.3 -8.0 1.7 L-4.95 0.9 -4.7 1.2 -4.7 1.25 -4.9 1.65 -6.2 3.65 Q-3.75 2.85 -1.85 1.0 L-0.9 -0.35 -0.6 -0.9 Q0.3 -2.8 0.15 -5.05 L-0.5 -10.55 -0.8 -12.25 0.4 -10.3 Q1.45 -8.45 1.8 -6.45 L1.95 -4.65 3.2 -6.95 Q2.1 -11.0 -0.15 -14.5 -1.25 -16.25 -3.45 -16.4 -5.85 -18.6 -8.8 -19.6 L-10.9 -20.0 -10.9 -20.05 -11.6 -19.9 Q-12.15 -19.9 -13.7 -18.75 L-15.5 -17.5 Q-15.45 -18.6 -13.3 -20.0 L-11.35 -20.95 -11.4 -21.05 -11.3 -21.3 -8.6 -20.9 -12.05 -23.3 -9.8 -23.05 -5.25 -21.15 -4.85 -20.9 -4.5 -21.0 -3.8 -21.05 Q-1.65 -21.0 0.25 -20.2 L0.7 -20.0 0.0 -18.65 -1.05 -18.65 -1.75 -19.4 -2.7 -19.3 Q0.05 -17.15 1.65 -14.3 L3.95 -15.75 Q5.25 -16.55 6.5 -16.65 L7.1 -16.65 M12.25 -5.5 L13.45 -6.1 14.3 -6.15 14.6 -5.8 14.65 -4.85 14.4 -4.45 13.15 -3.9 13.1 -3.9 Q12.5 -3.65 11.85 -3.55 L11.5 -4.65 12.25 -5.5 M0.3 -25.0 L0.3 -24.75 0.25 -24.4 -0.5 -23.85 -1.0 -23.7 -3.55 -23.25 -4.25 -23.8 -4.55 -25.1 Q-6.1 -26.0 -7.85 -25.85 L-9.35 -25.6 -9.4 -25.6 Q-10.65 -25.35 -11.65 -24.7 L-11.75 -24.7 -11.5 -26.25 -10.9 -26.85 Q-9.5 -27.9 -5.7 -27.2 -0.25 -26.15 0.3 -25.0 M11.65 5.9 Q13.3 7.35 13.3 8.15 L13.2 8.6 12.95 8.9 12.8 9.0 Q12.35 9.35 12.05 9.35 L8.35 5.55 6.65 3.75 6.55 3.65 4.9 1.8 4.8 1.7 4.8 1.75 4.75 1.85 Q4.5 2.15 3.7 2.15 L3.35 2.15 2.6 2.05 1.7 1.5 1.7 0.5 3.8 0.5 3.95 0.4 6.8 2.4 9.35 4.15 11.65 5.9 M-2.35 7.7 Q-2.2 8.05 -2.2 8.55 L-2.5 9.0 -3.5 9.55 -5.25 10.3 Q-6.05 10.55 -6.2 9.85 -6.35 8.25 -5.05 7.6 -3.75 6.8 -2.55 7.3 L-2.35 7.7 M-2.15 10.2 L1.6 7.8 Q3.8 6.8 3.8 9.0 L3.75 9.05 Q1.9 11.1 -0.85 11.35 -2.9 11.95 -3.05 10.8 L-2.15 10.2 M-9.55 14.8 Q-7.5 14.8 -7.5 16.15 L-7.5 16.4 -7.6 16.85 -7.7 17.05 Q-7.95 17.8 -8.35 17.8 L-9.95 17.65 Q-10.0 16.3 -11.0 15.95 L-12.85 16.15 -13.0 16.05 -13.1 15.65 Q-11.7 14.85 -9.7 14.8 L-9.55 14.8 M-8.6 -17.6 Q-11.1 -16.25 -12.05 -14.75 -12.45 -14.1 -14.85 -14.1 L-15.85 -13.0 -16.05 -13.05 -16.1 -13.5 Q-16.1 -14.85 -13.75 -16.15 -11.9 -17.2 -9.1 -17.9 L-8.6 -17.6 M-14.45 -6.65 Q-13.2 -6.0 -13.2 -4.8 -13.2 -4.15 -13.35 -4.1 L-13.75 -4.45 -13.8 -4.5 -14.3 -4.95 -14.55 -5.1 Q-15.0 -5.1 -15.65 -4.6 -16.3 -4.1 -16.35 -4.1 L-17.4 -4.25 -17.7 -4.35 -17.75 -5.25 Q-17.75 -6.9 -16.65 -7.1 L-15.45 -7.0 -14.45 -6.65 M-10.1 7.65 L-10.0 7.8 -9.95 8.1 -9.95 7.65 -10.1 7.65 M-14.75 11.6 L-14.3 11.45 -13.6 11.4 Q-12.2 11.55 -10.6 13.25 L-10.6 13.4 Q-13.55 14.8 -14.6 14.8 -15.65 14.8 -15.85 14.25 L-15.85 13.65 -15.75 12.8 Q-15.5 11.95 -14.75 11.6" fill="#ff0000" fill-rule="evenodd" stroke="none"/>
      <path d="M-6.9 -14.25 Q-5.5 -13.9 -4.75 -12.8 L-3.3 -10.35 -4.4 -15.55 -3.95 -14.9 -2.3 -12.15 Q-0.45 -8.8 -2.25 -5.55 -3.1 -4.05 -4.85 -4.15 -5.85 -2.5 -7.8 -2.05 L-9.0 -2.0 -9.7 -2.7 -7.6 -5.85 -8.05 -5.8 -9.45 -4.55 Q-9.8 -4.3 -10.2 -4.2 L-10.45 -4.2 -10.4 -3.3 -10.7 -3.55 -12.6 -5.05 -12.85 -5.7 -13.1 -6.6 Q-12.75 -9.3 -10.4 -12.5 L-9.05 -14.25 -9.05 -14.1 -6.9 -14.25" fill="#650101" fill-rule="evenodd" stroke="none"/>
      <path d="M-16.35 14.3 Q-19.0 14.3 -19.45 12.35 L-19.45 10.25 Q-19.55 9.55 -20.7 8.1 -21.85 6.65 -21.85 6.2 -21.85 3.95 -20.6 0.95 -19.05 -2.8 -18.7 -4.65 -19.05 -8.1 -16.8 -13.45 L-16.85 -12.95 -16.75 -12.15 -15.85 -11.85 -15.15 -12.15 -16.65 -7.1 Q-17.75 -6.9 -17.75 -5.25 L-17.7 -4.35 -17.4 -4.25 Q-18.5 0.0 -18.5 1.65 L-18.9 3.8 -19.35 5.95 -18.75 8.85 Q-17.8 11.65 -16.0 11.65 L-14.75 11.6 Q-15.5 11.95 -15.75 12.8 L-16.15 13.6 -16.0 13.75 -15.95 13.9 -16.0 14.2 -16.35 14.3" fill="#6b476b" fill-rule="evenodd" stroke="none"/>
      <path d="M-15.25 1.8 Q-16.85 2.4 -16.85 2.95 L-16.55 3.75 Q-16.35 5.9 -14.2 7.25 L-13.05 8.0 -13.35 8.25 -12.9 8.4 Q-12.6 8.5 -12.6 8.9 -12.6 9.5 -12.25 9.95 L-12.35 10.3 -12.25 11.0 -13.3 11.15 -13.6 11.4 -14.3 11.45 -14.75 11.6 -16.0 11.65 Q-17.8 11.65 -18.75 8.85 L-19.35 5.95 -18.9 3.8 -18.5 1.65 Q-18.5 0.0 -17.4 -4.25 L-16.35 -4.1 Q-16.3 -4.1 -15.65 -4.6 -15.0 -5.1 -14.55 -5.1 L-14.3 -4.95 -14.25 -4.7 -13.8 -4.5 -13.75 -4.45 -13.3 -3.4 -13.4 -2.75 Q-13.55 -1.5 -11.95 -1.1 L-15.2 1.75 -15.25 1.8 M-15.15 -12.15 L-14.6 -12.4 -14.35 -11.9 -14.85 -9.35 Q-14.85 -8.1 -14.45 -6.65 L-15.45 -7.0 -16.65 -7.1 -15.15 -12.15" fill="#4d334d" fill-rule="evenodd" stroke="none"/>
      <path d="M20.7 -0.1 L21.35 0.95 22.35 3.0 Q23.7 6.35 23.35 10.1 L19.2 5.2 17.2 2.7 15.65 0.45 15.2 -0.3 14.0 -2.4 14.6 -3.25 14.4 -4.45 14.65 -4.85 14.6 -5.8 14.3 -6.15 13.45 -6.1 12.25 -5.5 11.3 -7.2 9.85 -10.05 Q10.7 -9.9 11.15 -10.5 L11.3 -11.25 11.45 -12.45 8.7 -15.25 8.65 -15.3 8.7 -15.75 Q8.05 -16.55 7.1 -16.65 5.95 -19.3 3.95 -21.45 L3.95 -21.5 3.8 -22.15 3.3 -22.1 3.15 -22.25 3.1 -22.3 2.95 -22.45 2.35 -22.95 0.65 -24.15 0.5 -24.6 0.3 -25.0 Q-0.25 -26.15 -5.7 -27.2 -9.5 -27.9 -10.9 -26.85 L-12.2 -26.8 -12.05 -27.25 -11.35 -29.1 -11.25 -29.1 -10.2 -29.2 -8.0 -29.0 -5.45 -28.85 -5.15 -28.85 Q-3.45 -28.8 -1.95 -28.2 L-0.8 -27.7 -0.4 -27.45 3.0 -25.2 5.35 -23.15 5.45 -23.05 5.5 -23.0 6.0 -22.45 7.05 -20.9 7.1 -20.85 7.35 -20.45 7.95 -19.4 10.7 -14.85 14.1 -9.3 15.3 -7.35 16.2 -6.25 18.2 -3.9 18.3 -3.75 20.7 -0.1 M20.25 19.65 L19.55 20.05 Q19.2 20.25 18.6 20.75 L19.15 19.25 20.15 19.55 20.25 19.65" fill="#ecdecb" fill-rule="evenodd" stroke="none"/>
      <path d="M23.35 10.1 L23.05 13.1 22.75 15.35 Q22.6 16.85 21.35 17.65 L21.75 19.0 Q20.95 19.25 20.25 19.65 L20.15 19.55 19.15 19.25 18.6 20.75 17.3 21.8 Q16.3 22.65 15.8 22.65 L15.6 22.3 15.65 22.1 Q16.65 21.8 16.65 21.3 16.65 20.95 16.4 20.95 L16.05 21.05 16.1 20.7 16.1 20.35 16.1 20.05 Q16.1 18.95 14.9 18.95 13.65 19.0 13.65 19.8 L13.7 19.9 Q13.15 20.35 13.1 21.15 L12.6 21.0 11.25 20.9 16.35 16.05 Q16.25 13.85 15.1 11.9 L13.2 8.6 13.3 8.15 Q13.3 7.35 11.65 5.9 L11.2 5.15 11.15 5.05 8.9 0.75 8.5 -0.15 Q9.2 -1.9 9.35 -3.8 L8.65 -5.25 7.1 -9.55 7.15 -12.55 7.15 -13.45 7.15 -13.5 7.55 -13.2 Q8.2 -12.4 8.15 -11.4 8.15 -10.9 8.45 -10.5 L8.8 -10.35 Q9.25 -10.15 9.8 -10.05 L9.85 -10.05 11.3 -7.2 12.25 -5.5 11.5 -4.65 11.15 -2.5 11.65 -2.15 Q13.1 -1.65 14.0 -2.4 L15.2 -0.3 15.65 0.45 17.2 2.7 19.2 5.2 23.35 10.1 M-12.45 -25.7 L-12.2 -26.8 -10.9 -26.85 -11.5 -26.25 -11.8 -25.7 -12.1 -25.7 -12.45 -25.7 M0.65 -24.15 L2.35 -22.95 2.95 -22.45 3.1 -22.3 3.15 -22.25 3.3 -22.1 1.8 -22.05 1.25 -22.45 0.8 -22.75 0.8 -22.95 0.65 -24.15 M3.95 -21.45 Q5.95 -19.3 7.1 -16.65 L6.5 -16.65 5.6 -18.0 4.25 -19.7 4.1 -19.9 4.1 -20.25 3.95 -21.2 3.95 -21.45" fill="#d7c9b5" fill-rule="evenodd" stroke="none"/>
      <path d="M5.7 -25.75 L5.4 -25.35 5.5 -23.0 6.4 -22.3 Q7.55 -22.1 8.0 -24.1 L9.3 -23.1 10.95 -18.55 11.15 -18.4 12.35 -15.7 12.9 -14.45 Q14.3 -11.35 15.65 -9.55 L15.65 -9.4 16.8 -7.55 18.6 -4.4 19.3 -3.05 20.7 -0.1 18.3 -3.75 18.2 -3.9 16.2 -6.25 15.3 -7.35 14.1 -9.3 10.7 -14.85 7.95 -19.4 7.35 -20.45 7.1 -20.85 7.05 -20.9 6.0 -22.45 5.5 -23.0 5.45 -23.05 5.35 -23.15 3.0 -25.2 -0.4 -27.45 -0.8 -27.7 1.05 -27.35 5.7 -25.75 M-12.55 -24.6 L-12.55 -24.65 -12.45 -25.7 -12.1 -25.7 -11.8 -25.7 -12.55 -24.6 M0.8 -22.75 L1.25 -22.45 1.8 -22.05 1.3 -21.95 0.8 -21.5 Q0.3 -21.1 0.25 -20.2 -1.65 -21.0 -3.8 -21.05 L-4.5 -21.0 -5.25 -21.15 -9.8 -23.05 -10.35 -23.25 -9.9 -24.15 -9.1 -24.5 -6.45 -24.0 -5.4 -23.2 Q-4.5 -21.8 -2.75 -21.65 L0.3 -21.85 0.8 -22.75 M3.95 -15.75 Q2.95 -17.05 1.7 -16.5 L1.35 -18.0 1.8 -18.0 Q3.0 -18.0 3.65 -18.8 L4.1 -19.9 4.25 -19.7 5.6 -18.0 6.5 -16.65 Q5.25 -16.55 3.95 -15.75 M5.95 -9.45 L5.9 -9.5 5.2 -13.15 5.95 -13.65 7.15 -13.5 7.15 -13.45 7.15 -12.55 6.85 -11.65 6.0 -9.55 5.95 -9.45" fill="#583a30" fill-rule="evenodd" stroke="none"/>
      <path d="M5.7 -3.0 Q6.7 -3.95 6.55 -5.4 L6.35 -8.0 5.95 -9.45 6.0 -9.55 6.85 -11.65 7.15 -12.55 7.1 -9.55 6.95 -10.0 6.55 2.1 6.85 2.1 6.8 2.4 3.95 0.4 3.8 0.5 5.7 -3.0 M6.65 3.75 L6.25 5.9 Q5.9 6.4 5.7 7.7 L5.5 8.7 5.45 8.8 4.15 10.35 Q2.7 12.25 2.4 13.45 L1.9 13.7 1.15 14.1 Q-0.95 14.35 -2.0 14.95 L-3.45 15.75 -7.5 16.4 -7.5 16.15 Q-7.5 14.8 -9.55 14.8 L-9.85 10.0 -9.75 9.55 -8.85 9.05 -7.2 8.35 -6.0 8.15 Q-6.9 9.1 -7.05 10.4 L-7.05 11.4 Q-5.8 12.7 -4.05 12.15 -3.6 11.9 -3.05 11.8 L-2.9 11.75 -2.05 12.65 Q0.0 13.75 2.05 12.45 4.05 11.2 3.75 9.05 L3.8 9.0 Q3.8 6.8 1.6 7.8 L-2.15 10.2 -2.65 10.15 -2.5 9.0 -2.2 8.55 Q-2.2 8.05 -2.35 7.7 -1.05 7.4 -0.45 6.4 L0.85 4.3 2.6 2.05 3.35 2.15 5.2 3.0 6.55 3.65 6.65 3.75" fill="#462e26" fill-rule="evenodd" stroke="none"/>
      <path d="M-8.45 23.1 L-8.15 21.5 -7.25 21.25 Q-6.75 21.0 -6.75 20.3 L-7.75 19.25 -7.7 18.85 -7.7 18.8 -7.55 17.65 -7.6 16.85 -7.5 16.4 -3.45 15.75 -2.0 14.95 Q-0.95 14.35 1.15 14.1 L1.9 13.7 2.4 13.45 Q2.7 12.25 4.15 10.35 L5.45 8.8 5.5 8.75 5.5 8.7 5.7 7.7 Q5.9 6.4 6.25 5.9 L6.45 5.65 6.5 5.8 Q7.1 6.3 7.1 7.0 L6.85 8.45 6.85 8.65 6.6 9.2 6.6 10.5 Q6.6 11.55 7.35 13.2 8.1 14.85 8.1 15.75 L7.7 17.45 Q7.2 18.5 6.8 18.5 L6.05 18.3 5.45 17.65 5.15 18.2 Q4.85 18.6 4.05 18.6 L2.85 17.2 2.35 17.6 Q1.35 18.5 0.05 18.65 L-1.25 18.65 -2.3 18.65 -3.75 19.0 -4.0 19.1 -4.3 19.3 Q-4.4 19.9 -5.4 20.9 L-6.05 21.5 -7.2 22.45 Q-7.9 22.95 -8.45 23.1 M7.1 -9.55 L8.65 -5.25 9.35 -3.8 Q9.2 -1.9 8.5 -0.15 L7.8 1.3 7.3 2.0 6.85 2.1 6.55 2.1 6.95 -10.0 7.1 -9.55 M0.1 15.55 L-0.05 15.6 0.05 15.6 0.1 15.55" fill="#aa5649" fill-rule="evenodd" stroke="none"/>
      <path d="M-3.3 24.0 L-4.85 24.35 -5.4 20.9 Q-4.4 19.9 -4.3 19.3 L-4.0 19.1 -3.75 19.0 Q-2.15 20.85 -1.85 23.4 L-2.75 23.15 Q-3.45 23.15 -3.6 23.75 L-3.3 24.0 M-6.7 24.75 L-7.3 24.9 -8.75 24.85 -8.55 23.7 -8.45 23.1 Q-7.9 22.95 -7.2 22.45 L-6.7 24.75 M8.5 -0.15 L8.9 0.75 11.15 5.05 11.2 5.15 11.65 5.9 9.35 4.15 6.8 2.4 6.85 2.1 7.3 2.0 7.8 1.3 8.5 -0.15 M13.2 8.6 L15.1 11.9 Q16.25 13.85 16.35 16.05 L11.25 20.9 10.6 21.05 Q9.55 21.05 8.45 21.8 L8.35 21.9 -0.1 23.3 -0.1 20.8 Q-0.95 19.8 -1.25 18.65 L0.05 18.65 Q1.35 18.5 2.35 17.6 L2.85 17.2 4.05 18.6 Q4.85 18.6 5.15 18.2 L5.45 17.65 6.05 18.3 6.8 18.5 Q7.2 18.5 7.7 17.45 L8.1 15.75 Q8.1 14.85 7.35 13.2 6.6 11.55 6.6 10.5 L6.6 9.2 6.85 8.65 6.85 8.45 7.1 7.0 Q7.1 6.3 6.5 5.8 L6.45 5.65 6.25 5.9 6.65 3.75 8.35 5.55 8.35 5.6 7.7 6.45 9.05 8.5 Q10.55 10.5 11.2 10.5 13.1 10.5 13.1 9.4 L12.95 8.9 13.2 8.6 M-8.8 -1.45 L-8.65 -1.5 -8.7 -1.45 -8.8 -1.45 M-1.55 23.55 L-1.35 23.55 -1.5 23.6 -1.55 23.55" fill="#bbaa91" fill-rule="evenodd" stroke="none"/>
      <path d="M-4.85 24.35 L-6.7 24.75 -7.2 22.45 -6.05 21.5 -5.4 20.9 -4.85 24.35 M-1.25 18.65 Q-0.95 19.8 -0.1 20.8 L-0.1 23.3 -0.15 23.3 -1.35 23.55 -1.55 23.55 -1.85 23.4 Q-2.15 20.85 -3.75 19.0 L-2.3 18.65 -1.25 18.65" fill="#c0ac6d" fill-rule="evenodd" stroke="none"/>
    </g>
  </defs>
</svg>
