<?xml version="1.0" encoding="UTF-8" standalone="no"?>
<svg xmlns:ffdec="https://www.free-decompiler.com/flash" xmlns:xlink="http://www.w3.org/1999/xlink" ffdec:objectType="frame" height="62.75px" width="29.75px" xmlns="http://www.w3.org/2000/svg">
  <g transform="matrix(1.0, 0.0, 0.0, 1.0, 15.75, 31.9)">
    <use ffdec:characterId="1723" height="62.75" transform="matrix(1.0, 0.0, 0.0, 1.0, -14.45, -31.9)" width="27.9" xlink:href="#shape0"/>
    <use ffdec:characterId="1081" height="100.0" id="shape" transform="matrix(0.28, 0.0, 0.0, 0.58, -13.9984, -28.9986)" width="100.0" xlink:href="#sprite0"/>
  </g>
  <defs>
    <g id="shape0" transform="matrix(1.0, 0.0, 0.0, 1.0, 14.45, 31.9)">
      <path d="M11.7 12.6 L11.3 17.5 11.15 19.15 Q11.1 20.05 10.45 21.35 10.2 15.5 8.7 12.05 7.8 10.1 2.4 6.3 1.0 6.15 -0.3 5.45 -2.05 4.5 -4.5 4.5 L-5.4 4.75 -6.35 5.0 Q-8.05 5.0 -9.5 4.05 L-11.95 5.6 Q-11.75 12.2 -10.5 18.0 L-9.4 22.1 -7.85 27.05 Q-12.0 21.5 -13.6 8.05 -14.9 -3.4 -14.25 -15.15 L-14.2 -15.5 -14.0 -16.4 -13.8 -17.35 -13.8 -17.65 -13.8 -17.8 -13.7 -18.35 -13.35 -19.7 Q-12.45 -22.45 -9.55 -25.45 -5.45 -29.75 -0.1 -28.75 5.25 -27.8 7.25 -26.7 8.25 -25.25 9.35 -22.3 11.1 -17.35 11.1 -14.1 11.1 -12.35 10.25 -11.0 9.35 -9.65 9.35 -8.4 L10.5 -3.75 Q11.6 0.7 11.6 2.25 L11.3 5.2 11.0 8.2 Q11.0 9.85 11.5 11.95 L11.7 12.6 M7.25 -13.85 Q7.25 -17.05 5.25 -20.4 2.8 -24.4 -0.75 -24.4 L-1.7 -24.3 -3.35 -24.5 Q-7.15 -24.5 -9.7 -20.7 -12.3 -16.95 -12.4 -14.55 L-12.4 -11.3 -12.35 -11.2 -9.1 -8.9 Q-7.3 -7.5 -5.25 -7.0 L-5.25 -6.75 -9.35 -7.9 Q-12.05 -8.55 -11.8 -6.95 L-11.45 -5.2 -11.45 -4.75 -11.35 -3.85 -11.7 -1.2 Q-9.9 1.45 -8.5 1.65 -7.4 1.95 -6.1 3.2 -4.9 4.25 -4.0 4.3 L0.4 5.1 0.9 5.25 Q5.6 4.15 7.5 7.25 L7.5 6.35 Q6.75 1.15 7.0 -0.1 7.25 -1.35 5.8 -3.7 4.35 -6.1 3.55 -6.25 2.75 -6.4 5.0 -8.3 7.25 -10.2 7.25 -13.85" fill="#ad4949" fill-rule="evenodd" stroke="none"/>
      <path d="M-13.35 -19.7 L-13.0 -20.85 Q-11.9 -23.95 -10.2 -26.4 -4.95 -33.75 3.75 -31.3 9.55 -29.8 12.15 -25.45 14.0 -22.35 13.25 -17.85 L12.95 -15.75 12.75 -14.2 Q12.6 -10.25 12.7 -4.6 12.75 1.0 12.4 2.4 L12.05 6.6 11.7 12.6 11.5 11.95 Q11.0 9.85 11.0 8.2 L11.3 5.2 11.6 2.25 Q11.6 0.7 10.5 -3.75 L9.35 -8.4 Q9.35 -9.65 10.25 -11.0 11.1 -12.35 11.1 -14.1 11.1 -17.35 9.35 -22.3 8.25 -25.25 7.25 -26.7 5.25 -27.8 -0.1 -28.75 -5.45 -29.75 -9.55 -25.45 -12.45 -22.45 -13.35 -19.7" fill="#e98d8d" fill-rule="evenodd" stroke="none"/>
      <path d="M10.45 21.35 Q9.5 23.2 7.25 25.85 L6.55 26.7 Q2.65 30.85 -0.85 30.85 -4.95 30.85 -7.85 27.05 L-9.4 22.1 -10.5 18.0 Q-11.75 12.2 -11.95 5.6 L-9.5 4.05 Q-8.05 5.0 -6.35 5.0 L-5.4 4.75 -4.5 4.5 Q-2.05 4.5 -0.3 5.45 1.0 6.15 2.4 6.3 7.8 10.1 8.7 12.05 10.2 15.5 10.45 21.35 M7.25 -13.85 Q7.25 -10.2 5.0 -8.3 2.75 -6.4 3.55 -6.25 4.35 -6.1 5.8 -3.7 7.25 -1.35 7.0 -0.1 6.75 1.15 7.5 6.35 L7.5 7.25 Q5.6 4.15 0.9 5.25 L0.4 5.1 -4.0 4.3 Q-4.9 4.25 -6.1 3.2 -7.4 1.95 -8.5 1.65 -9.9 1.45 -11.7 -1.2 L-11.35 -3.85 -11.45 -4.75 -11.45 -5.2 -11.8 -6.95 Q-12.05 -8.55 -9.35 -7.9 L-5.25 -6.75 -5.25 -7.0 Q-7.3 -7.5 -9.1 -8.9 L-12.35 -11.2 -12.4 -11.3 -12.4 -14.55 Q-12.3 -16.95 -9.7 -20.7 -7.15 -24.5 -3.35 -24.5 L-1.7 -24.3 -0.75 -24.4 Q2.8 -24.4 5.25 -20.4 7.25 -17.05 7.25 -13.85" fill="#8e3c3c" fill-rule="evenodd" stroke="none"/>
    </g>
    <g id="sprite0" transform="matrix(1.0, 0.0, 0.0, 1.0, 50.0, 50.0)">
      <use ffdec:characterId="1080" height="100.0" transform="matrix(1.0, 0.0, 0.0, 1.0, -50.0, -50.0)" width="100.0" xlink:href="#shape1"/>
    </g>
    <g id="shape1" transform="matrix(1.0, 0.0, 0.0, 1.0, 50.0, 50.0)">
      <path d="M50.0 50.0 L-50.0 50.0 -50.0 -50.0 50.0 -50.0 50.0 50.0 Z" fill="none" stroke="#9900ff" stroke-linecap="round" stroke-linejoin="round" stroke-width="0.05"/>
    </g>
  </defs>
</svg>
