<?xml version="1.0" encoding="UTF-8" standalone="no"?>
<svg xmlns:ffdec="https://www.free-decompiler.com/flash" xmlns:xlink="http://www.w3.org/1999/xlink" ffdec:objectType="frame" height="62.75px" width="29.75px" xmlns="http://www.w3.org/2000/svg">
  <g transform="matrix(1.0, 0.0, 0.0, 1.0, 15.75, 31.9)">
    <use ffdec:characterId="1726" height="62.0" transform="matrix(1.0, 0.0, 0.0, 1.0, -15.75, -31.75)" width="29.75" xlink:href="#shape0"/>
  </g>
  <defs>
    <g id="shape0" transform="matrix(1.0, 0.0, 0.0, 1.0, 15.75, 31.75)">
      <path d="M13.25 -22.7 Q13.7 -20.55 13.25 -17.85 L12.95 -15.75 12.75 -14.2 12.7 -12.3 12.7 -10.8 12.7 -4.6 12.7 -1.05 12.4 2.4 12.15 5.45 12.05 6.6 11.75 11.8 11.7 12.05 11.7 12.6 11.55 12.05 11.5 11.95 11.25 10.75 11.0 8.2 Q11.0 7.35 11.3 5.45 L11.3 5.2 11.6 2.25 11.15 -1.05 10.5 -3.75 9.35 -8.4 Q9.35 -9.55 10.15 -10.8 L10.25 -11.0 10.85 -12.3 11.1 -14.1 11.05 -15.35 11.65 -21.9 13.25 -22.7" fill="#e98d8d" fill-rule="evenodd" stroke="none"/>
      <path d="M11.75 11.8 L11.85 12.05 11.7 12.05 11.75 11.8 M-13.1 11.55 L-13.25 10.7 -13.6 8.05 -13.85 5.45 -14.3 -1.05 Q-14.55 -5.9 -14.4 -10.8 L-14.35 -12.3 -14.25 -15.15 -14.2 -15.5 -14.0 -16.4 -13.8 -17.35 -13.8 -17.65 -13.8 -17.8 -13.75 -18.15 Q-14.2 -21.55 -15.75 -25.0 L-15.75 -25.25 -14.25 -24.0 -13.0 -24.0 -12.7 -26.8 Q-11.2 -25.9 -10.7 -24.4 L-10.45 -23.1 Q-11.25 -22.65 -11.25 -21.65 L-11.25 -21.0 -11.25 -20.75 Q-11.4 -20.0 -11.2 -19.35 L-10.9 -18.8 Q-12.35 -16.3 -12.4 -14.55 L-12.45 -12.3 -12.4 -11.3 -12.35 -11.2 -11.7 -10.8 -9.1 -8.9 Q-7.3 -7.5 -5.25 -7.0 L-5.25 -6.75 -9.35 -7.9 Q-12.05 -8.55 -11.8 -6.95 L-11.45 -5.2 -11.45 -4.75 -11.35 -3.85 -11.7 -1.2 -11.6 -1.05 Q-9.85 1.5 -8.5 1.65 -7.4 1.95 -6.1 3.2 -4.9 4.25 -4.0 4.3 L-3.6 4.35 -1.25 4.7 -1.35 5.0 -2.05 4.8 -4.35 4.5 -4.5 4.5 -5.4 4.75 -6.35 5.0 Q-7.9 5.0 -9.25 4.25 L-9.25 3.65 Q-9.75 2.25 -10.75 2.35 -11.75 2.4 -11.75 3.3 L-11.7 3.55 Q-12.15 4.15 -12.15 5.35 L-11.95 5.45 -11.85 5.55 -11.95 5.6 -11.75 9.3 -11.9 9.55 -13.0 10.6 -13.1 11.55 M0.7 -28.35 L1.25 -29.5 1.35 -28.25 1.45 -25.7 1.5 -24.35 1.55 -23.9 -0.75 -24.4 -1.45 -24.35 -0.55 -25.75 0.7 -28.35 M11.65 -21.9 L11.05 -15.35 11.1 -14.1 10.85 -12.3 10.25 -11.0 10.15 -10.8 Q9.35 -9.55 9.35 -8.4 L10.5 -3.75 11.15 -1.05 11.6 2.25 11.3 5.2 11.3 5.45 Q11.0 7.35 11.0 8.2 L11.25 10.75 11.5 11.95 11.55 12.05 9.4 11.7 8.95 11.55 9.5 10.65 9.85 9.05 10.0 7.9 Q10.0 6.8 8.35 6.9 L7.5 7.1 7.5 6.35 7.4 5.45 Q6.75 1.05 7.0 -0.1 L7.05 -0.2 7.0 -1.05 Q6.8 -2.15 5.8 -3.7 4.35 -6.1 3.55 -6.25 2.75 -6.4 5.0 -8.3 6.2 -9.3 6.75 -10.8 L7.15 -12.3 7.25 -13.85 7.2 -14.8 7.7 -16.0 7.95 -17.4 8.25 -18.25 8.1 -19.2 9.65 -20.5 11.65 -21.9 M3.0 5.0 L3.1 5.0 5.35 5.35 5.35 5.45 Q4.95 6.45 4.7 8.05 L2.4 6.3 2.35 6.3 2.65 5.9 2.9 5.45 3.0 5.0 M7.25 6.9 L7.4 7.1 7.25 7.2 7.25 6.9" fill="#ad4949" fill-rule="evenodd" stroke="none"/>
      <path d="M1.55 -23.9 Q1.75 -22.7 2.6 -22.25 L2.6 -22.05 Q2.5 -21.55 2.7 -20.9 3.0 -19.65 4.25 -19.65 L5.3 -19.75 Q4.85 -18.65 5.0 -18.25 L6.3 -18.0 5.7 -17.85 Q4.15 -17.7 4.15 -16.45 4.05 -15.6 4.75 -15.45 L4.75 -14.75 Q4.95 -14.15 6.1 -14.15 6.75 -14.15 7.2 -14.8 L7.25 -13.85 7.15 -12.3 6.75 -10.8 Q6.2 -9.3 5.0 -8.3 2.75 -6.4 3.55 -6.25 4.35 -6.1 5.8 -3.7 6.8 -2.15 7.0 -1.05 L7.05 -0.2 7.0 -0.1 Q6.75 1.05 7.4 5.45 L7.5 6.35 7.5 7.1 7.4 7.1 7.25 6.9 7.25 6.5 7.2 5.45 7.0 4.5 5.75 4.5 5.35 5.35 3.1 5.0 3.0 5.0 3.0 4.55 2.85 4.0 Q2.7 2.55 0.95 2.45 -0.85 2.4 -1.0 3.95 L-1.25 4.7 -1.25 4.75 -1.15 5.05 -1.15 5.25 -1.25 5.45 Q-1.65 6.35 -2.75 6.8 L-3.25 7.0 -3.5 5.45 -3.75 4.75 -4.95 5.45 -6.3 6.45 -7.25 7.1 Q-7.4 6.3 -8.35 5.45 L-8.7 5.15 Q-8.95 4.95 -9.15 4.85 L-9.25 4.4 -9.25 4.25 Q-7.9 5.0 -6.35 5.0 L-5.4 4.75 -4.5 4.5 -4.35 4.5 -2.05 4.8 -1.35 5.0 -1.25 4.7 -3.6 4.35 -4.0 4.3 Q-4.9 4.25 -6.1 3.2 -7.4 1.95 -8.5 1.65 -9.85 1.5 -11.6 -1.05 L-11.7 -1.2 -11.35 -3.85 -11.45 -4.75 -11.45 -5.2 -11.8 -6.95 Q-12.05 -8.55 -9.35 -7.9 L-5.25 -6.75 -5.25 -7.0 Q-7.3 -7.5 -9.1 -8.9 L-11.7 -10.8 -12.35 -11.2 -12.4 -11.3 -12.45 -12.3 -12.4 -14.55 Q-12.35 -16.3 -10.9 -18.8 -10.4 -18.05 -9.1 -18.05 L-8.6 -18.1 Q-8.4 -16.7 -8.5 -14.5 L-7.0 -14.25 Q-5.55 -14.25 -5.45 -15.45 -5.35 -17.15 -4.25 -18.0 L-2.35 -19.5 Q-1.75 -20.2 -1.75 -21.6 L-2.0 -23.35 -2.0 -23.55 -2.0 -23.6 -1.45 -24.35 -0.75 -24.4 1.55 -23.9 M-10.9 6.8 L-11.0 6.75 Q-11.2 8.35 -11.75 9.3 L-11.95 5.6 -11.85 5.55 -10.9 6.8 M-2.0 12.4 L-1.75 12.0 Q-0.5 10.25 -0.5 9.65 L-0.6 8.75 0.5 7.6 2.35 6.3 2.4 6.3 4.7 8.05 4.55 9.1 Q4.25 11.3 3.5 12.7 L2.5 11.25 1.25 12.55 1.25 12.4 Q1.2 11.5 0.0 11.5 -0.65 11.5 -1.35 12.0 L-2.0 12.4" fill="#8e3c3c" fill-rule="evenodd" stroke="none"/>
      <path d="M-10.1 -26.5 L-9.3 -27.55 -6.8 -28.8 Q-4.85 -28.7 -3.45 -29.6 L-2.1 -30.6 -0.95 -31.25 0.8 -31.4 1.55 -31.75 4.15 -30.65 4.15 -29.6 3.85 -28.75 1.35 -28.25 1.25 -29.5 0.7 -28.35 Q-2.25 -29.55 -5.35 -28.0 -7.6 -26.95 -9.1 -24.9 L-10.1 -26.5 M5.8 -28.9 L5.85 -28.9 6.1 -28.9 8.6 -29.2 10.45 -27.65 Q8.3 -26.3 5.75 -27.0 L5.8 -27.65 3.85 -26.3 3.2 -26.5 5.8 -28.9 M4.55 -24.5 Q5.9 -25.7 7.15 -26.05 7.45 -26.4 7.95 -26.4 8.8 -26.4 9.05 -25.7 L9.1 -25.1 9.05 -24.5 Q8.9 -23.55 8.25 -23.55 7.35 -23.55 7.0 -23.95 L6.15 -23.0 Q6.55 -21.15 7.5 -20.25 L7.75 -20.0 8.1 -19.2 8.25 -18.25 7.95 -17.4 7.25 -16.55 Q6.15 -15.4 5.1 -15.4 L4.75 -15.45 Q4.05 -15.6 4.15 -16.45 4.15 -17.7 5.7 -17.85 L6.3 -18.0 6.4 -18.05 6.5 -18.1 7.25 -19.15 7.25 -19.25 7.25 -19.55 6.75 -20.6 5.75 -22.0 5.75 -22.65 Q4.5 -21.55 3.6 -21.55 L2.65 -21.75 2.6 -22.35 2.6 -22.45 2.65 -22.55 3.45 -23.5 4.4 -24.4 4.55 -24.5 M-8.2 -23.55 Q-6.75 -23.35 -5.3 -22.0 L-5.55 -21.9 -6.8 -21.8 -7.8 -21.9 -8.75 -20.65 Q-9.15 -20.0 -10.0 -20.0 -10.95 -20.0 -11.2 -20.8 L-11.25 -21.0 -11.25 -21.65 Q-11.25 -22.65 -10.45 -23.1 -10.05 -23.4 -9.35 -23.55 L-8.2 -23.55 M-9.25 4.25 L-9.25 4.4 -9.2 4.8 -9.15 4.85 Q-8.95 4.95 -8.7 5.15 L-8.35 5.45 Q-7.4 6.3 -7.25 7.1 L-7.25 7.4 Q-7.25 8.05 -8.1 8.2 L-8.75 8.25 -10.15 5.55 -10.15 5.45 -10.1 5.1 Q-10.3 4.85 -10.5 4.75 L-10.9 4.5 Q-11.65 4.2 -11.7 3.55 L-11.75 3.3 Q-11.75 2.4 -10.75 2.35 -9.75 2.25 -9.25 3.65 L-9.25 4.25 M-3.25 7.0 L-2.75 6.8 Q-1.65 6.35 -1.25 5.45 L-1.15 5.25 -1.1 5.1 -1.0 4.75 -1.0 4.2 -1.0 3.95 Q-0.85 2.4 0.95 2.45 2.7 2.55 2.85 4.0 L2.85 4.25 2.2 5.05 1.7 5.45 -0.7 7.2 -0.65 7.5 Q-0.65 7.9 -1.0 9.4 L-2.2 11.1 -3.75 12.4 -4.75 12.25 -4.9 11.65 -4.45 10.6 Q-3.75 9.85 -2.4 10.0 L-2.25 9.85 -2.15 9.4 -2.4 9.2 -2.65 9.0 -2.55 8.5 -3.35 9.0 -4.5 8.9 -4.5 8.25 Q-4.45 7.55 -3.25 7.0 M7.4 7.1 L7.5 7.1 8.35 6.9 Q10.0 6.8 10.0 7.9 L9.85 9.05 9.7 9.35 Q9.2 10.0 7.75 10.0 6.95 10.0 6.75 9.1 L6.65 8.15 Q6.65 7.85 6.8 7.65 6.9 7.35 7.25 7.2 L7.4 7.1 M2.45 15.8 L4.55 14.9 4.85 15.9 2.05 18.0 4.5 18.65 2.55 19.75 2.0 19.95 0.9 20.25 -0.4 21.05 -1.0 21.3 -3.1 22.3 -3.35 22.4 -3.35 22.45 -4.95 24.65 -5.05 22.65 -9.25 20.1 -5.95 20.0 -6.25 21.5 -6.25 21.75 -5.3 20.1 -4.15 20.45 -1.2 19.4 -1.5 19.0 -4.85 19.4 -3.85 18.05 -3.45 17.9 -1.2 17.65 0.0 17.45 -0.25 16.65 2.45 15.8 M-6.95 15.65 L-7.85 15.9 Q-8.5 15.9 -8.9 15.0 L-9.15 14.3 Q-9.15 13.5 -7.55 13.55 L-6.85 13.65 Q-6.0 13.85 -6.0 14.55 -6.0 15.05 -6.75 15.5 L-6.95 15.65 M-5.8 19.35 Q-7.95 19.2 -10.0 18.25 L-9.8 17.85 -7.9 18.15 -5.85 18.35 -5.65 18.35 -5.8 19.35 M5.3 15.55 L5.4 14.95 5.55 14.5 5.75 13.9 6.0 13.5 Q6.4 13.0 7.15 12.7 6.85 13.5 7.1 14.2 L5.3 15.55 M5.0 22.15 L4.9 22.0 6.5 20.75 6.8 20.7 9.35 20.35 Q8.75 21.8 7.4 22.4 6.15 23.0 5.0 22.15" fill="#ff0000" fill-rule="evenodd" stroke="none"/>
      <path d="M4.15 -29.6 Q4.45 -28.9 5.8 -28.9 L3.2 -26.5 3.1 -26.5 Q2.6 -26.5 1.85 -26.0 L1.45 -25.7 1.35 -28.25 3.85 -28.75 4.15 -29.6 M10.45 -27.65 L11.45 -26.5 10.25 -25.25 9.35 -25.75 9.05 -25.7 Q8.8 -26.4 7.95 -26.4 7.45 -26.4 7.15 -26.05 5.9 -25.7 4.55 -24.5 4.65 -25.0 5.0 -25.3 L3.85 -26.3 5.8 -27.65 5.75 -27.0 Q8.3 -26.3 10.45 -27.65 M10.45 21.15 L7.85 23.3 6.1 23.95 Q4.15 24.35 2.45 23.3 L2.25 23.7 2.55 19.75 Q0.9 21.8 -0.4 21.05 L0.9 20.25 2.0 19.95 2.55 19.75 4.5 18.65 2.05 18.0 4.85 15.9 5.05 17.8 Q5.1 16.4 5.3 15.55 L7.1 14.2 7.6 15.15 5.65 16.15 5.9 17.3 6.75 18.2 6.25 18.95 Q5.4 19.7 5.85 20.05 L7.15 20.35 7.85 20.25 10.4 20.0 10.5 20.0 10.6 20.95 10.45 21.15 M-2.8 25.5 Q-5.65 25.8 -8.1 24.25 L-9.0 23.35 -9.45 22.35 -9.85 20.95 -10.0 20.2 -11.4 19.0 -11.95 16.5 -12.45 15.2 -12.45 15.15 -12.5 15.1 -11.8 13.75 -7.9 18.15 -9.8 17.85 -10.0 18.25 Q-7.95 19.2 -5.8 19.35 L-5.95 20.0 -9.25 20.1 -5.05 22.65 -4.95 24.65 -3.35 22.45 -3.35 22.4 -3.1 22.3 -2.8 25.5 M-9.1 -24.9 Q-7.6 -26.95 -5.35 -28.0 -2.25 -29.55 0.7 -28.35 L-0.55 -25.75 -1.65 -26.1 -3.5 -26.75 -8.55 -24.05 -9.0 -24.75 -9.1 -24.9 M2.6 -22.25 L2.6 -22.35 2.65 -21.75 3.6 -21.55 Q4.5 -21.55 5.75 -22.65 L5.75 -22.0 6.75 -20.6 7.25 -19.55 7.25 -19.25 Q6.65 -19.25 6.3 -19.8 L5.85 -20.65 5.55 -19.9 5.5 -19.9 5.3 -19.75 4.25 -19.65 Q3.0 -19.65 2.7 -20.9 2.5 -21.55 2.6 -22.05 L2.6 -22.25 M2.65 -22.55 Q2.75 -23.4 3.45 -23.5 L2.65 -22.55 M7.75 -20.0 L7.5 -20.25 Q6.55 -21.15 6.15 -23.0 L7.0 -23.95 Q7.35 -23.55 8.25 -23.55 8.9 -23.55 9.05 -24.5 L9.1 -24.05 9.1 -23.95 Q9.05 -21.25 7.2 -21.05 L7.75 -20.0 M4.75 -15.45 L5.1 -15.4 Q6.15 -15.4 7.25 -16.55 L7.95 -17.4 7.7 -16.0 7.2 -14.8 Q6.75 -14.15 6.1 -14.15 4.95 -14.15 4.75 -14.75 L4.75 -15.45 M-5.55 -21.9 Q-5.25 -21.4 -5.25 -20.8 L-5.25 -20.3 -5.5 -19.85 -6.55 -20.0 -7.25 -19.0 Q-7.8 -18.25 -8.6 -18.1 L-9.1 -18.05 Q-10.4 -18.05 -10.9 -18.8 L-11.2 -19.35 Q-11.4 -20.0 -11.25 -20.75 L-11.25 -21.0 -11.2 -20.8 Q-10.95 -20.0 -10.0 -20.0 -9.15 -20.0 -8.75 -20.65 L-7.8 -21.9 -6.8 -21.8 -5.55 -21.9 M-9.25 4.4 L-9.15 4.85 -9.2 4.8 -9.25 4.4 M-1.15 5.25 L-1.15 5.05 -1.25 4.75 -1.25 4.7 -1.0 3.95 -1.0 4.2 -1.0 4.75 -1.1 5.1 -1.15 5.25 M2.85 4.0 L3.0 4.55 3.0 5.0 2.9 5.45 2.65 5.9 2.35 6.3 0.5 7.6 -0.6 8.75 -0.5 9.65 Q-0.5 10.25 -1.75 12.0 L-2.0 12.4 Q-3.25 13.9 -4.0 13.9 L-5.0 13.75 -5.0 14.05 -5.45 13.4 -5.65 12.95 -5.65 11.9 -5.45 11.65 -5.35 11.45 -5.3 11.3 -5.3 11.45 -4.1 10.05 -4.55 8.65 -4.5 8.25 -4.5 8.9 -3.35 9.0 -2.55 8.5 -2.65 9.0 -2.4 9.2 -2.15 9.4 -2.25 9.85 -2.4 10.0 Q-3.75 9.85 -4.45 10.6 L-4.9 11.65 -4.75 12.25 -3.75 12.4 -2.2 11.1 -1.0 9.4 Q-0.65 7.9 -0.65 7.5 L-0.7 7.2 1.7 5.45 2.2 5.05 2.85 4.25 2.85 4.0 M9.85 9.05 L9.5 10.65 8.95 11.55 8.75 11.7 7.75 12.0 Q6.55 12.0 6.1 10.7 L5.9 9.35 5.95 9.0 Q6.05 8.05 6.8 7.65 6.65 7.85 6.65 8.15 L6.75 9.1 Q6.95 10.0 7.75 10.0 9.2 10.0 9.7 9.35 L9.85 9.05 M-11.7 3.55 Q-11.65 4.2 -10.9 4.5 L-10.5 4.75 Q-10.3 4.85 -10.1 5.1 L-10.15 5.45 -10.15 5.55 -8.75 8.25 -8.1 8.2 -8.25 8.6 Q-8.55 9.25 -9.1 9.25 L-10.65 7.1 -10.9 6.8 -11.85 5.55 -11.95 5.45 -12.15 5.35 Q-12.15 4.15 -11.7 3.55 M-1.95 15.8 L-1.55 16.4 2.45 15.8 -0.25 16.65 0.0 17.45 -1.2 17.65 -3.45 17.9 -3.85 18.05 -2.0 15.8 -1.95 15.8 M-6.85 13.65 L-7.55 13.55 Q-9.15 13.5 -9.15 14.3 L-8.9 15.0 Q-8.5 15.9 -7.85 15.9 L-6.95 15.65 Q-7.3 16.35 -8.5 16.35 -10.25 16.35 -10.25 14.7 -10.25 13.7 -8.5 13.3 -7.2 13.0 -6.85 13.65 M-5.65 18.35 L-5.85 18.35 -5.65 18.3 -5.65 18.35 M-5.3 20.1 L-4.85 19.4 -1.5 19.0 -1.2 19.4 -4.15 20.45 -5.3 20.1 M5.0 22.15 Q6.15 23.0 7.4 22.4 8.75 21.8 9.35 20.35 L6.8 20.7 6.5 20.75 4.9 22.0 5.0 22.15" fill="#990000" fill-rule="evenodd" stroke="none"/>
      <path d="M11.3 17.8 L11.15 19.15 Q11.1 20.05 10.45 21.35 L10.45 21.15 10.6 20.95 10.5 20.0 10.4 20.0 7.85 20.25 7.15 20.35 5.85 20.05 Q5.4 19.7 6.25 18.95 L6.75 18.2 5.9 17.3 5.65 16.15 7.6 15.15 Q8.3 16.15 9.95 17.0 L10.05 17.05 11.3 17.8 M-12.5 15.1 L-12.8 13.55 -11.45 12.05 -10.25 10.0 -9.7 10.7 Q-9.45 11.0 -8.85 11.0 L-8.15 10.55 -7.5 9.5 -7.25 9.25 Q-6.05 10.3 -5.55 11.1 L-5.35 11.45 -5.45 11.65 -5.65 11.9 -5.65 12.95 -5.45 13.4 -5.0 14.05 -5.5 17.5 -5.65 18.3 -5.85 18.35 -7.9 18.15 -11.8 13.75 -12.5 15.1 M1.45 -25.7 L1.85 -26.0 Q2.6 -26.5 3.1 -26.5 L3.2 -26.5 3.85 -26.3 5.0 -25.3 Q4.65 -25.0 4.55 -24.5 L4.4 -24.4 3.45 -23.5 Q2.75 -23.4 2.65 -22.55 L2.6 -22.45 2.6 -22.35 2.6 -22.25 Q1.75 -22.7 1.55 -23.9 L1.5 -24.35 1.45 -25.7 M9.05 -25.7 L9.35 -25.75 10.25 -25.25 9.2 -24.05 9.1 -23.95 9.1 -24.05 9.05 -24.5 9.1 -25.1 9.05 -25.7 M-8.55 -24.05 L-3.5 -26.75 -1.65 -26.1 -0.55 -25.75 -1.45 -24.35 -2.0 -23.6 -2.0 -23.55 Q-4.4 -20.25 -5.0 -20.25 L-5.25 -20.3 -5.25 -20.8 Q-5.25 -21.4 -5.55 -21.9 L-5.3 -22.0 Q-6.75 -23.35 -8.2 -23.55 L-8.55 -24.05 M2.45 15.8 L-1.55 16.4 -1.95 15.8 1.25 12.55 2.5 11.25 3.5 12.7 4.55 14.9 2.45 15.8 M-6.85 13.65 Q-7.2 13.0 -8.5 13.3 -10.25 13.7 -10.25 14.7 -10.25 16.35 -8.5 16.35 -7.3 16.35 -6.95 15.65 L-6.75 15.5 Q-6.0 15.05 -6.0 14.55 -6.0 13.85 -6.85 13.65" fill="#ffcc99" fill-rule="evenodd" stroke="none"/>
      <path d="M11.45 -26.5 L12.3 -27.4 13.25 -28.25 13.5 -28.25 12.7 -26.8 12.25 -25.85 12.15 -25.5 Q11.9 -24.95 11.65 -21.9 L9.65 -20.5 8.1 -19.2 7.75 -20.0 7.2 -21.05 Q9.05 -21.25 9.1 -23.95 L9.2 -24.05 10.25 -25.25 11.45 -26.5 M11.85 12.05 L12.65 14.85 14.0 21.0 13.75 21.0 Q13.75 19.4 11.3 17.8 L10.05 17.05 Q9.65 14.5 8.95 12.6 L8.75 11.7 8.95 11.55 9.4 11.7 11.55 12.05 11.7 12.6 11.7 12.05 11.85 12.05 M-12.8 13.55 L-14.45 14.45 Q-13.45 13.0 -13.1 11.55 L-13.0 10.6 -11.9 9.55 -11.75 9.3 -11.45 12.05 -12.8 13.55 M-12.7 -26.8 L-12.5 -30.75 -12.25 -30.75 Q-11.75 -29.25 -10.1 -26.5 L-9.1 -24.9 -9.0 -24.75 -8.55 -24.05 -8.2 -23.55 -9.35 -23.55 Q-10.05 -23.4 -10.45 -23.1 L-10.7 -24.4 Q-11.2 -25.9 -12.7 -26.8 M7.25 -19.25 L7.25 -19.15 6.5 -18.1 6.4 -18.05 5.55 -19.9 5.85 -20.65 6.3 -19.8 Q6.65 -19.25 7.25 -19.25 M5.35 5.35 L5.6 5.45 Q6.55 5.95 7.25 6.9 L7.25 7.2 Q6.9 7.35 6.8 7.65 6.05 8.05 5.95 9.0 L4.7 8.05 Q4.95 6.45 5.35 5.45 L5.35 5.35" fill="#bf3838" fill-rule="evenodd" stroke="none"/>
      <path d="M12.15 -25.5 L12.15 -25.45 Q12.9 -24.2 13.25 -22.7 L11.65 -21.9 Q11.9 -24.95 12.15 -25.5" fill="#f34747" fill-rule="evenodd" stroke="none"/>
      <path d="M6.4 -18.05 L6.3 -18.0 5.0 -18.25 Q4.85 -18.65 5.3 -19.75 L5.5 -19.9 5.55 -19.9 6.4 -18.05 M-5.25 -20.3 L-5.0 -20.25 Q-4.4 -20.25 -2.0 -23.55 L-2.0 -23.35 -1.75 -21.6 Q-1.75 -20.2 -2.35 -19.5 L-4.25 -18.0 Q-5.35 -17.15 -5.45 -15.45 -5.55 -14.25 -7.0 -14.25 L-8.5 -14.5 Q-8.4 -16.7 -8.6 -18.1 -7.8 -18.25 -7.25 -19.0 L-6.55 -20.0 -5.5 -19.85 -5.25 -20.3 M-7.25 7.1 L-6.3 6.45 -4.95 5.45 -3.75 4.75 -3.5 5.45 -3.25 7.0 Q-4.45 7.55 -4.5 8.25 L-4.55 8.65 -4.1 10.05 -5.3 11.45 -5.3 11.3 -5.35 11.45 -5.55 11.1 Q-6.05 10.3 -7.25 9.25 L-7.5 9.5 -8.15 10.55 -8.85 11.0 Q-9.45 11.0 -9.7 10.7 L-10.25 10.0 -11.45 12.05 -11.75 9.3 Q-11.2 8.35 -11.0 6.75 L-10.9 6.8 -10.65 7.1 -9.1 9.25 Q-8.55 9.25 -8.25 8.6 L-8.1 8.2 Q-7.25 8.05 -7.25 7.4 L-7.25 7.1 M5.35 5.35 L5.75 4.5 7.0 4.5 7.2 5.45 7.25 6.5 7.25 6.9 Q6.55 5.95 5.6 5.45 L5.35 5.35 M-5.0 14.05 L-5.0 13.75 -4.0 13.9 Q-3.25 13.9 -2.0 12.4 L-1.35 12.0 Q-0.65 11.5 0.0 11.5 1.2 11.5 1.25 12.4 L1.25 12.55 -1.95 15.8 -2.0 15.8 -3.85 18.05 -4.85 19.4 -5.3 20.1 -6.25 21.75 -6.25 21.5 -5.95 20.0 -5.8 19.35 -5.65 18.35 -5.65 18.3 -5.5 17.5 -5.0 14.05 M4.55 14.9 L3.5 12.7 Q4.25 11.3 4.55 9.1 L4.7 8.05 5.95 9.0 5.9 9.35 6.1 10.7 Q6.55 12.0 7.75 12.0 L8.75 11.7 8.95 12.6 Q9.65 14.5 10.05 17.05 L9.95 17.0 Q8.3 16.15 7.6 15.15 L7.1 14.2 Q6.85 13.5 7.15 12.7 6.4 13.0 6.0 13.5 L5.75 13.9 5.55 14.5 5.4 14.95 5.3 15.55 Q5.1 16.4 5.05 17.8 L4.85 15.9 4.55 14.9" fill="#a92d2d" fill-rule="evenodd" stroke="none"/>
      <path d="M2.25 23.7 L1.35 30.25 0.8 29.8 -0.05 29.75 Q-3.0 28.8 -2.8 25.5 L-3.1 22.3 -1.0 21.3 -0.4 21.05 Q0.9 21.8 2.55 19.75 L2.25 23.7" fill="#ffffff" fill-rule="evenodd" stroke="none"/>
    </g>
  </defs>
</svg>
