<?xml version="1.0" encoding="UTF-8" standalone="no"?>
<svg xmlns:ffdec="https://www.free-decompiler.com/flash" xmlns:xlink="http://www.w3.org/1999/xlink" ffdec:objectType="frame" height="70.7px" width="43.35px" xmlns="http://www.w3.org/2000/svg">
  <g transform="matrix(1.0, 0.0, 0.0, 1.0, 16.25, 35.0)">
    <use ffdec:characterId="1178" height="58.6" transform="matrix(1.0, 0.0, 0.0, 1.0, -16.25, -31.25)" width="33.85" xlink:href="#shape0"/>
  </g>
  <defs>
    <g id="shape0" transform="matrix(1.0, 0.0, 0.0, 1.0, 16.25, 31.25)">
      <path d="M-14.6 -4.2 L-15.75 -10.3 -16.2 -14.75 Q-16.45 -19.25 -14.3 -25.1 -12.2 -30.95 -10.35 -31.1 -7.2 -31.7 -4.7 -29.55 -4.2 -29.5 -3.55 -29.0 10.85 -21.95 16.35 -25.5 18.15 -25.8 17.4 -24.05 L17.4 -24.0 17.35 -23.85 14.95 -22.95 Q12.2 -21.85 12.2 -21.5 12.2 -21.1 13.6 -20.9 15.0 -20.7 15.0 -19.55 L14.05 -13.5 12.9 -4.05 11.2 -4.05 6.9 -4.05 5.6 -4.05 6.5 -12.25 4.1 -4.1 -6.1 -4.15 -10.3 -4.2 -14.6 -4.2 M11.3 -20.3 L9.0 -19.4 7.15 -18.65 7.7 -18.2 Q8.5 -17.45 8.7 -16.7 10.15 -17.8 11.3 -20.25 L11.3 -20.3" fill="#ffcc99" fill-rule="evenodd" stroke="none"/>
      <path d="M17.35 -23.85 L17.3 -23.65 17.2 -23.05 17.0 -20.7 14.35 -8.15 13.4 -4.05 13.25 -3.45 12.6 -1.05 12.9 -4.05 14.05 -13.5 15.0 -19.55 Q15.0 -20.7 13.6 -20.9 12.2 -21.1 12.2 -21.5 12.2 -21.85 14.95 -22.95 L17.35 -23.85 M4.1 -4.1 L6.5 -12.25 5.6 -4.05 4.1 -4.1 M11.3 -20.3 L11.3 -20.25 Q10.15 -17.8 8.7 -16.7 8.5 -17.45 7.7 -18.2 L7.15 -18.65 9.0 -19.4 11.3 -20.3" fill="#ebbb98" fill-rule="evenodd" stroke="none"/>
      <path d="M12.6 -1.05 L11.05 4.1 10.95 3.7 Q10.45 1.9 9.6 1.45 L11.2 -4.05 12.9 -4.05 12.6 -1.05 M-10.75 12.4 L-10.8 12.15 -12.1 6.95 -12.2 6.6 -12.8 4.5 -13.5 1.7 -14.6 -4.2 -10.3 -4.2 -9.25 0.5 -8.3 4.5 -8.0 6.5 -8.15 5.9 -8.55 5.2 -10.8 4.75 -11.35 5.3 Q-11.85 6.65 -10.9 8.05 -10.35 8.9 -9.3 8.75 -7.85 8.05 -7.95 6.65 L-7.6 11.4 -8.0 12.15 -8.15 12.95 -8.2 12.9 -8.95 12.5 -10.1 12.25 -10.75 12.4 M-4.2 18.05 L-2.85 19.0 -4.25 18.15 -4.2 18.05 M-1.2 13.45 L-0.75 12.8 -0.85 13.5 -1.2 13.45" fill="#f3edd6" fill-rule="evenodd" stroke="none"/>
      <path d="M-6.1 -4.15 L4.1 -4.1 5.6 -4.05 6.9 -4.05 4.95 5.45 Q4.0 5.85 4.0 7.1 L4.1 7.95 4.25 8.4 4.1 9.0 4.0 9.3 3.7 10.5 2.7 9.6 1.1 9.55 0.1 7.95 0.0 7.15 0.45 6.5 Q1.25 5.2 0.85 3.75 L0.4 3.45 0.1 2.55 -0.3 2.3 -2.8 2.55 Q-4.15 2.65 -4.65 3.45 L-4.85 2.5 -6.1 -4.15 M-3.45 11.55 L-3.75 10.7 -4.05 7.15 -1.35 9.15 -1.65 9.8 -1.7 9.95 -2.4 11.35 -2.45 11.45 -2.8 12.15 -3.05 12.65 -3.35 12.5 -3.75 12.6 -3.45 11.55" fill="#e0dbc7" fill-rule="evenodd" stroke="none"/>
      <path d="M0.1 24.65 L0.0 24.6 0.1 24.65 M-0.85 24.2 L-1.6 24.0 -2.65 24.3 -2.7 24.15 -1.35 23.85 Q-1.15 23.85 -0.85 24.2 M-10.3 -4.2 L-6.1 -4.15 -4.85 2.5 -4.65 3.45 Q-5.0 4.0 -5.0 4.8 L-4.6 6.25 -4.2 6.85 -4.05 7.15 -3.75 10.7 -4.05 9.9 -4.45 9.75 -4.85 9.8 Q-6.85 10.25 -7.6 11.4 L-7.95 6.65 -8.0 6.5 -8.3 4.5 -9.25 0.5 -10.3 -4.2 M6.9 -4.05 L11.2 -4.05 9.6 1.45 8.85 1.25 Q8.15 1.25 7.7 2.7 L7.0 4.5 5.0 5.4 4.95 5.45 6.9 -4.05 M-1.35 9.15 L-0.25 9.85 0.25 13.4 -0.85 13.5 -0.75 12.8 -1.2 13.45 -2.15 13.05 -2.25 13.0 -3.05 12.65 -2.8 12.15 -2.45 11.45 -2.4 11.35 -1.7 9.95 -1.65 9.8 -1.35 9.15 M4.25 8.4 L4.4 8.75 4.85 9.25 3.7 10.5 4.0 9.3 4.1 9.0 4.25 8.4" fill="#e9e3ce" fill-rule="evenodd" stroke="none"/>
      <path d="M10.5 5.85 L10.55 5.8 10.5 5.85 Q8.0 8.3 8.45 10.7 L8.75 12.0 Q9.3 14.9 8.85 17.7 L8.55 19.0 7.3 18.8 4.0 14.1 3.6 14.55 2.95 14.65 2.2 14.35 3.1 15.25 2.15 16.85 Q0.2 19.8 -2.9 21.9 L-4.2 22.9 -6.25 22.65 -1.5 19.0 -2.85 19.0 -4.2 18.05 -5.0 17.45 -4.65 14.65 -4.3 14.2 -3.1 14.55 -3.35 15.65 -1.8 18.15 -0.85 18.4 0.75 14.8 0.25 13.4 -0.25 9.85 -1.35 9.15 -4.05 7.15 -4.2 6.85 Q-3.55 7.55 -2.45 7.65 L-1.85 7.65 -1.5 7.35 -1.55 6.2 Q-6.0 5.8 -2.8 2.55 L-0.3 2.3 0.1 2.55 0.4 3.45 0.85 3.75 Q1.25 5.2 0.45 6.5 L0.0 7.15 0.1 7.95 1.1 9.55 2.7 9.6 3.7 10.5 4.85 9.25 10.5 5.85 M8.45 20.85 L8.15 21.6 7.0 21.9 6.1 21.65 5.75 21.3 5.55 20.95 5.35 19.85 3.9 20.25 1.45 20.3 1.1 20.25 Q1.95 18.85 3.65 18.6 4.45 18.45 5.45 18.6 L5.55 18.65 Q7.1 18.85 7.8 19.45 8.45 19.95 8.45 20.75 L8.45 20.85 M-8.55 5.2 L-8.4 6.6 -9.1 7.0 -10.2 7.0 Q-11.35 6.6 -11.35 5.3 L-10.8 4.75 -8.55 5.2 M-8.15 12.95 L-8.0 12.15 -7.6 11.4 Q-6.85 10.25 -4.85 9.8 L-4.45 9.75 -4.05 9.9 -3.75 10.7 -3.45 11.55 -3.75 11.9 Q-4.95 13.1 -6.3 13.5 L-7.45 13.7 -7.65 13.65 -8.15 13.5 -8.15 12.95 M-8.4 18.0 Q-6.95 17.35 -5.4 18.25 L-5.4 18.85 -6.55 18.75 -6.75 19.15 -6.9 19.6 -8.05 20.25 -8.75 19.85 -8.95 18.3 -8.4 18.0" fill="#ff0000" fill-rule="evenodd" stroke="none"/>
      <path d="M8.55 19.0 L8.65 19.15 8.75 19.6 8.45 20.85 8.45 20.75 Q8.45 19.95 7.8 19.45 7.1 18.85 5.55 18.65 L5.45 18.6 Q4.45 18.45 3.65 18.6 1.95 18.85 1.1 20.25 L1.45 20.3 0.45 21.1 1.55 24.75 0.1 24.65 0.0 24.6 -0.8 24.3 -0.85 24.2 Q-1.15 23.85 -1.35 23.85 L-2.7 24.15 -2.9 21.9 Q0.2 19.8 2.15 16.85 L3.1 15.25 2.2 14.35 2.95 14.65 3.6 14.55 4.0 14.1 7.3 18.8 8.55 19.0 M5.75 21.3 L4.65 22.85 4.35 23.15 4.25 23.25 3.6 23.9 3.85 20.95 3.9 20.25 5.35 19.85 5.55 20.95 5.75 21.3 M-6.35 24.55 L-7.95 24.05 -8.2 23.45 -8.6 22.6 -9.15 21.2 -9.35 20.7 -9.7 19.05 -11.4 17.65 -11.95 17.2 -12.05 17.05 -11.4 17.65 -8.1 16.25 -8.05 16.3 -5.45 17.35 -4.25 18.15 -2.85 19.0 -1.5 19.0 -6.25 22.65 -6.35 24.55 M-4.2 6.85 L-4.6 6.25 -5.0 4.8 Q-5.0 4.0 -4.65 3.45 -4.15 2.65 -2.8 2.55 -6.0 5.8 -1.55 6.2 L-1.5 7.35 -1.85 7.65 -2.45 7.65 Q-3.55 7.55 -4.2 6.85 M-8.55 5.2 L-8.15 5.9 -8.0 6.5 -7.95 6.65 Q-7.85 8.05 -9.3 8.75 -10.35 8.9 -10.9 8.05 -11.85 6.65 -11.35 5.3 -11.35 6.6 -10.2 7.0 L-9.1 7.0 -8.4 6.6 -8.55 5.2 M-8.15 13.5 L-7.65 13.65 -7.45 13.7 -6.3 13.5 Q-4.95 13.1 -3.75 11.9 L-3.45 11.55 -3.75 12.6 -4.3 14.2 -4.65 14.65 Q-6.5 16.0 -7.7 14.45 L-7.75 14.4 -7.95 14.05 -8.15 13.5 M-8.4 18.0 L-8.95 18.3 -8.75 19.85 -8.05 20.25 -6.9 19.6 -6.75 19.15 -6.55 18.75 -5.4 18.85 -5.4 18.25 Q-6.95 17.35 -8.4 18.0" fill="#990000" fill-rule="evenodd" stroke="none"/>
      <path d="M3.6 23.9 Q3.85 25.6 2.55 25.6 L1.55 24.75 0.45 21.1 1.45 20.3 3.9 20.25 3.85 20.95 3.6 23.9 M-2.65 24.3 L-2.7 25.15 Q-2.75 26.45 -3.65 27.35 L-4.2 27.2 Q-6.3 26.8 -6.35 24.55 L-6.25 22.65 -4.2 22.9 -2.9 21.9 -2.7 24.15 -2.65 24.3" fill="#ffffff" fill-rule="evenodd" stroke="none"/>
      <path d="M11.05 4.1 L10.65 5.4 10.5 5.85 9.95 7.6 Q9.2 9.9 8.75 12.0 L8.45 10.7 Q8.0 8.3 10.5 5.85 L4.85 9.25 4.4 8.75 4.25 8.4 4.1 7.95 4.0 7.1 Q4.0 5.85 4.95 5.45 L5.0 5.4 7.0 4.5 7.7 2.7 Q8.15 1.25 8.85 1.25 L9.6 1.45 Q10.45 1.9 10.95 3.7 L11.05 4.1 M-11.4 17.65 Q-10.6 15.05 -10.7 13.1 L-10.75 12.4 -10.1 12.25 -8.95 12.5 -8.2 12.9 -8.15 12.95 -8.15 13.5 -7.95 14.05 -7.75 14.4 -7.7 14.45 Q-6.5 16.0 -4.65 14.65 L-5.0 17.45 -4.2 18.05 -4.25 18.15 -5.45 17.35 -8.05 16.3 -8.1 16.25 -11.4 17.65 M0.25 13.4 L0.75 14.8 -0.85 18.4 -1.8 18.15 -3.35 15.65 -3.1 14.55 -4.3 14.2 -3.75 12.6 -3.35 12.5 -3.05 12.65 -2.25 13.0 -2.15 13.05 -1.2 13.45 -0.85 13.5 0.25 13.4" fill="#bd6f65" fill-rule="evenodd" stroke="none"/>
    </g>
  </defs>
</svg>
