<?xml version="1.0" encoding="UTF-8" standalone="no"?>
<svg xmlns:ffdec="https://www.free-decompiler.com/flash" xmlns:xlink="http://www.w3.org/1999/xlink" ffdec:objectType="frame" height="70.7px" width="43.35px" xmlns="http://www.w3.org/2000/svg">
  <g transform="matrix(1.0, 0.0, 0.0, 1.0, 16.25, 35.0)">
    <use ffdec:characterId="1179" height="61.0" transform="matrix(1.0, 0.0, 0.0, 1.0, -16.25, -33.65)" width="34.1" xlink:href="#shape0"/>
  </g>
  <defs>
    <g id="shape0" transform="matrix(1.0, 0.0, 0.0, 1.0, 16.25, 33.65)">
      <path d="M-14.6 -4.2 L-15.75 -10.3 -16.2 -14.75 Q-16.45 -19.25 -14.3 -25.1 L-12.85 -28.55 -12.5 -27.7 Q-9.65 -27.0 -7.3 -28.95 L-7.15 -29.0 -7.15 -28.9 Q-6.9 -27.15 -5.35 -26.5 L-4.6 -26.4 -3.95 -25.4 -2.75 -24.95 -3.45 -23.25 -3.45 -21.15 -4.2 -21.0 -4.5 -21.0 -5.65 -22.15 -8.2 -21.95 -8.55 -21.5 -8.8 -19.45 Q-7.4 -18.0 -5.3 -18.7 L-4.85 -18.1 -4.85 -17.85 -4.8 -17.85 -5.1 -17.1 -10.4 -16.35 -10.55 -15.2 -13.3 -14.0 -13.15 -13.4 Q-13.2 -12.85 -12.9 -12.35 -12.65 -11.9 -12.1 -11.75 L-11.6 -11.75 -11.55 -11.8 -8.1 -14.75 Q-6.7 -14.4 -5.5 -15.05 L-3.2 -16.6 -1.9 -16.1 -4.75 -13.3 -4.75 -11.75 -3.2 -11.75 Q-0.7 -12.5 -0.95 -14.3 L1.65 -14.65 2.9 -13.8 1.7 -12.2 3.35 -7.7 3.4 -7.65 3.2 -7.45 -0.15 -4.45 -0.5 -4.15 -7.1 -4.15 -10.3 -4.2 -14.6 -4.2 M6.1 -8.3 Q9.45 -7.4 10.2 -4.05 L7.95 -4.05 6.9 -4.05 5.6 -4.05 6.05 -8.2 6.1 -8.3 M4.85 -6.5 L4.1 -4.1 2.5 -4.1 4.85 -6.5" fill="#ffcc99" fill-rule="evenodd" stroke="none"/>
      <path d="M-4.85 -18.1 L-4.8 -17.85 -4.85 -17.85 -4.85 -18.1 M5.2 -6.8 L6.05 -8.2 5.6 -4.05 4.45 -4.1 4.1 -4.1 4.85 -6.5 5.2 -6.8" fill="#ebbb98" fill-rule="evenodd" stroke="none"/>
      <path d="M-2.2 -2.1 L-2.7 -1.05 -2.8 -0.55 -2.9 0.1 -2.85 1.25 -2.7 1.65 -2.2 1.9 -1.1 1.9 -0.5 1.1 0.05 -0.15 Q0.7 1.65 1.45 1.65 2.05 1.65 2.5 0.9 L2.85 -0.45 2.85 -0.55 2.8 -0.9 2.5 -1.4 2.1 -2.0 Q2.1 -2.35 2.9 -2.95 L3.55 -3.4 4.45 -4.1 5.6 -4.05 6.9 -4.05 6.7 -2.95 6.6 -2.5 Q5.4 -2.3 5.4 -0.85 L5.45 -0.55 5.65 -0.15 5.65 -0.1 6.05 0.45 5.8 1.75 5.4 2.25 5.45 2.45 5.1 3.15 4.9 4.0 5.25 4.3 4.95 5.45 Q4.0 5.85 4.0 7.1 L4.1 7.95 4.25 8.4 4.1 9.0 4.0 9.3 3.7 10.5 2.7 9.6 1.1 9.55 0.1 7.95 0.0 7.15 0.45 6.5 Q1.25 5.2 0.85 3.75 L0.4 3.45 0.1 2.55 -0.3 2.3 -2.8 2.55 Q-4.15 2.65 -4.65 3.45 L-4.85 2.5 -5.45 -0.55 -5.75 -2.05 -4.1 -1.7 -2.25 -2.1 -2.2 -2.1 M-4.05 7.15 L-1.35 9.15 -1.65 9.8 -1.7 9.95 -2.4 11.35 -2.45 11.45 -2.8 12.15 -3.05 12.65 -3.35 12.5 -3.75 12.6 -3.45 11.55 -3.75 10.7 -4.05 7.15" fill="#e0dbc7" fill-rule="evenodd" stroke="none"/>
      <path d="M11.35 3.15 L11.05 4.1 10.95 3.7 10.75 3.0 11.35 3.15 M-10.75 12.4 L-10.8 12.15 -12.1 6.95 -12.2 6.6 -12.8 4.5 -13.5 1.7 -14.6 -4.2 -10.3 -4.2 -10.05 -2.95 -9.5 -0.55 -9.25 0.5 -8.3 4.5 -8.0 6.5 -8.15 5.9 -8.55 5.2 -10.8 4.75 -11.35 5.3 Q-11.85 6.65 -10.9 8.05 -10.35 8.9 -9.3 8.75 -7.85 8.05 -7.95 6.65 L-7.6 11.4 -8.0 12.15 -8.15 12.95 -8.2 12.9 -8.95 12.5 -10.1 12.25 -10.75 12.4 M-4.2 18.05 L-2.85 19.0 -4.25 18.15 -4.2 18.05 M-1.2 13.45 L-0.75 12.8 -0.85 13.5 -1.2 13.45" fill="#f3edd6" fill-rule="evenodd" stroke="none"/>
      <path d="M0.1 24.65 L0.0 24.6 0.1 24.65 M-0.85 24.2 L-1.6 24.0 -2.65 24.3 -2.7 24.15 -1.35 23.85 Q-1.15 23.85 -0.85 24.2 M6.6 -2.5 L6.7 -2.95 6.9 -4.05 7.95 -4.05 8.05 -2.95 8.05 -2.5 7.65 -2.55 6.6 -2.5 M6.45 0.95 L6.2 1.15 5.8 1.75 6.05 0.45 6.45 0.95 M5.25 4.3 L5.75 4.7 6.15 4.95 5.0 5.4 4.95 5.45 5.25 4.3 M-4.2 6.85 L-4.05 7.15 -3.75 10.7 -4.05 9.9 -4.45 9.75 -4.85 9.8 Q-6.85 10.25 -7.6 11.4 L-7.95 6.65 -8.0 6.5 -8.3 4.5 -9.25 0.5 -9.5 -0.55 -10.05 -2.95 -10.3 -4.2 -7.1 -4.15 -7.15 -3.55 -7.05 -2.95 -6.45 -2.3 -5.75 -2.05 -5.45 -0.55 -4.85 2.5 -4.65 3.45 Q-5.0 4.0 -5.0 4.8 L-4.6 6.25 -4.2 6.85 M-1.35 9.15 L-0.25 9.85 0.25 13.4 -0.85 13.5 -0.75 12.8 -1.2 13.45 -2.15 13.05 -2.25 13.0 -3.05 12.65 -2.8 12.15 -2.45 11.45 -2.4 11.35 -1.7 9.95 -1.65 9.8 -1.35 9.15 M4.25 8.4 L4.4 8.75 4.85 9.25 3.7 10.5 4.0 9.3 4.1 9.0 4.25 8.4" fill="#e9e3ce" fill-rule="evenodd" stroke="none"/>
      <path d="M8.0 -29.45 Q8.85 -29.45 9.45 -28.65 10.0 -27.85 10.0 -26.7 L9.55 -25.9 8.6 -25.7 8.25 -25.35 1.4 -26.95 4.1 -28.45 3.35 -27.4 4.6 -26.75 5.0 -27.05 5.8 -27.25 Q7.6 -27.6 8.0 -29.45 M9.7 -24.45 L10.65 -24.25 10.95 -23.2 10.5 -22.25 7.45 -21.85 6.15 -20.65 7.2 -22.6 Q8.0 -23.95 9.7 -24.45 M11.15 -20.5 L11.85 -20.45 Q12.95 -19.55 12.65 -18.0 L12.55 -17.5 12.45 -17.15 6.15 -14.15 9.2 -18.65 7.1 -16.75 6.55 -16.7 5.85 -15.7 5.35 -16.8 5.9 -20.25 6.35 -20.4 7.15 -18.4 11.15 -20.5 M15.55 -24.15 L16.35 -25.45 16.9 -25.05 17.0 -24.55 17.1 -23.75 Q17.05 -22.8 16.4 -22.0 L16.4 -22.5 Q16.25 -22.8 15.05 -21.2 L14.5 -20.6 14.35 -20.65 14.75 -21.95 15.25 -23.05 15.55 -24.15 M14.6 -12.4 L15.15 -11.8 15.45 -11.4 15.85 -10.55 Q15.85 -9.7 15.15 -8.3 L14.9 -7.7 14.6 -7.2 14.05 -6.65 13.15 -6.4 12.6 -6.5 12.1 -3.25 12.1 -4.05 12.1 -4.3 Q12.05 -8.25 8.3 -9.65 8.4 -13.35 11.1 -14.95 L11.65 -14.85 11.65 -13.4 Q10.5 -3.6 13.55 -10.0 L14.6 -12.4 M10.5 5.85 L10.55 5.8 10.5 5.85 M8.75 12.0 Q9.3 14.9 8.85 17.7 L8.55 19.0 7.3 18.8 4.0 14.1 3.6 14.55 2.95 14.65 2.2 14.35 3.1 15.25 2.15 16.85 Q0.2 19.8 -2.9 21.9 L-4.2 22.9 -6.25 22.65 -1.5 19.0 -2.85 19.0 -4.2 18.05 -5.0 17.45 -4.65 14.65 -4.3 14.2 -3.1 14.55 -3.35 15.65 -1.8 18.15 -0.85 18.4 0.75 14.8 0.25 13.4 -0.25 9.85 -1.35 9.15 -4.05 7.15 -4.2 6.85 Q-3.55 7.55 -2.45 7.65 L-1.85 7.65 -1.5 7.35 -1.55 6.2 Q-6.0 5.8 -2.8 2.55 L-0.3 2.3 0.1 2.55 0.4 3.45 0.85 3.75 Q1.25 5.2 0.45 6.5 L0.0 7.15 0.1 7.95 1.1 9.55 2.7 9.6 3.7 10.5 4.85 9.25 6.7 8.1 6.85 7.9 7.55 7.0 7.65 6.55 8.45 4.85 10.35 4.8 10.3 6.0 10.2 6.2 10.05 6.5 9.9 6.8 9.9 6.95 9.05 10.05 8.55 11.2 8.75 12.0 M8.45 20.85 L8.15 21.6 7.0 21.9 6.1 21.65 5.75 21.3 5.55 20.95 5.35 19.85 3.9 20.25 1.45 20.3 1.1 20.25 Q1.95 18.85 3.65 18.6 4.45 18.45 5.45 18.6 L5.55 18.65 Q7.1 18.85 7.8 19.45 8.45 19.95 8.45 20.75 L8.45 20.85 M-10.25 -29.75 Q-9.95 -30.5 -7.85 -31.1 L-6.15 -31.55 -2.45 -31.35 Q-0.95 -31.1 -0.75 -29.95 L-0.7 -28.9 -1.6 -28.05 -2.0 -27.8 -2.95 -27.25 -3.55 -27.25 -4.95 -27.25 -3.45 -28.45 -5.55 -30.3 -5.65 -30.25 -9.8 -28.95 -10.2 -29.2 -10.25 -29.75 M4.35 -25.7 L5.0 -25.5 6.35 -24.6 6.7 -24.15 1.15 -25.2 Q2.85 -26.05 4.35 -25.7 M-2.75 -24.95 L-1.95 -25.35 0.6 -23.8 -1.7 -20.95 -1.75 -20.1 -1.15 -20.1 0.5 -22.25 4.1 -20.4 Q4.8 -17.45 3.45 -14.9 L3.65 -13.75 2.9 -13.8 1.65 -14.65 -0.95 -14.3 Q-0.7 -12.5 -3.2 -11.75 L-4.75 -11.75 -4.75 -13.3 -1.9 -16.1 -3.2 -16.6 -5.5 -15.05 Q-6.7 -14.4 -8.1 -14.75 L-11.55 -11.8 -11.6 -11.75 -12.1 -11.75 Q-12.65 -11.9 -12.9 -12.35 -13.2 -12.85 -13.15 -13.4 L-13.3 -14.0 -10.55 -15.2 -10.4 -16.35 -5.1 -17.1 -4.8 -17.85 -4.85 -18.1 -5.3 -18.7 Q-7.4 -18.0 -8.8 -19.45 L-8.55 -21.5 -8.2 -21.95 -5.65 -22.15 -4.5 -21.0 -4.2 -21.0 -3.45 -21.15 -3.45 -23.25 -2.75 -24.95 M3.35 -7.7 L4.45 -11.3 6.1 -8.3 6.05 -8.2 5.2 -6.8 0.95 -3.75 -1.35 0.75 -2.45 0.7 -2.7 -1.05 -2.2 -2.1 -1.6 -2.95 -0.5 -4.15 -0.15 -4.45 3.2 -7.45 3.4 -7.65 3.35 -7.7 M6.45 0.95 L7.2 0.15 5.65 -1.15 6.15 -2.25 7.65 -2.55 8.05 -2.5 9.1 -2.2 Q9.7 -1.9 9.7 -1.4 L8.35 0.2 8.25 0.3 8.4 0.55 8.4 0.6 8.55 1.35 8.55 1.55 8.15 2.35 7.65 2.95 7.3 3.2 5.5 2.7 5.45 2.45 5.4 2.25 5.8 1.75 6.2 1.15 6.45 0.95 M-7.6 11.4 Q-6.85 10.25 -4.85 9.8 L-4.45 9.75 -4.05 9.9 -3.75 10.7 -3.45 11.55 -3.75 11.9 Q-4.95 13.1 -6.3 13.5 L-7.45 13.7 -7.65 13.65 -8.15 13.5 -8.15 12.95 -8.0 12.15 -7.6 11.4 M-8.55 5.2 L-8.4 6.6 -9.1 7.0 -10.2 7.0 Q-11.35 6.6 -11.35 5.3 L-10.8 4.75 -8.55 5.2 M-8.4 18.0 Q-6.95 17.35 -5.4 18.25 L-5.4 18.85 -6.55 18.75 -6.75 19.15 -6.9 19.6 -8.05 20.25 -8.75 19.85 -8.95 18.3 -8.4 18.0" fill="#ff0000" fill-rule="evenodd" stroke="none"/>
      <path d="M10.0 -26.7 L10.0 -25.7 9.7 -24.45 Q8.0 -23.95 7.2 -22.6 L6.15 -20.65 7.45 -21.85 10.5 -22.25 10.95 -23.2 10.85 -20.85 11.15 -20.5 7.15 -18.4 6.35 -20.4 5.9 -20.25 5.35 -16.8 5.85 -15.7 6.55 -16.7 7.1 -16.75 9.2 -18.65 6.15 -14.15 12.45 -17.15 11.65 -14.85 11.1 -14.95 Q8.4 -13.35 8.3 -9.65 12.05 -8.25 12.1 -4.3 L12.1 -4.05 12.1 -3.25 12.6 -6.5 13.15 -6.4 14.05 -6.65 14.6 -7.2 14.9 -7.7 13.4 -4.05 13.35 -4.0 13.3 -3.85 11.35 -1.3 10.4 -1.3 10.4 -1.35 10.35 -2.65 10.35 -2.95 10.2 -4.05 Q9.45 -7.4 6.1 -8.3 L4.45 -11.3 3.35 -7.7 1.7 -12.2 2.9 -13.8 3.65 -13.75 3.45 -14.9 Q4.8 -17.45 4.1 -20.4 L0.5 -22.25 -1.15 -20.1 -1.75 -20.1 -1.7 -20.95 0.6 -23.8 -1.95 -25.35 -2.75 -24.95 -3.95 -25.4 -4.6 -26.4 -5.35 -26.5 Q-6.9 -27.15 -7.15 -28.9 L-7.15 -29.0 -7.3 -28.95 Q-9.65 -27.0 -12.5 -27.7 L-12.85 -28.55 -10.25 -29.75 -10.2 -29.2 -9.8 -28.95 -5.65 -30.25 -5.55 -30.3 -3.45 -28.45 -4.95 -27.25 -3.55 -27.25 -2.95 -27.25 -2.0 -27.8 -1.6 -28.05 -0.7 -28.9 -0.75 -29.95 4.2 -30.35 4.1 -28.45 1.4 -26.95 8.25 -25.35 8.6 -25.7 9.55 -25.9 10.0 -26.7 M10.5 5.85 L10.5 5.9 10.5 6.3 Q10.6 8.0 9.6 9.55 L9.35 9.9 9.25 9.95 9.05 10.05 9.9 6.95 9.9 6.8 10.05 6.5 10.2 6.2 10.3 6.0 10.35 4.8 10.45 5.35 10.5 5.85 M8.55 19.0 L8.65 19.15 8.75 19.6 8.45 20.85 8.45 20.75 Q8.45 19.95 7.8 19.45 7.1 18.85 5.55 18.65 L5.45 18.6 Q4.45 18.45 3.65 18.6 1.95 18.85 1.1 20.25 L1.45 20.3 0.45 21.1 1.55 24.75 0.1 24.65 0.0 24.6 -0.8 24.3 -0.85 24.2 Q-1.15 23.85 -1.35 23.85 L-2.7 24.15 -2.9 21.9 Q0.2 19.8 2.15 16.85 L3.1 15.25 2.2 14.35 2.95 14.65 3.6 14.55 4.0 14.1 7.3 18.8 8.55 19.0 M5.75 21.3 L4.65 22.85 4.35 23.15 4.25 23.25 3.6 23.9 3.85 20.95 3.9 20.25 5.35 19.85 5.55 20.95 5.75 21.3 M-6.35 24.55 L-7.95 24.05 -8.2 23.45 -8.6 22.6 -9.15 21.2 -9.35 20.7 -9.7 19.05 -11.4 17.65 -11.95 17.2 -12.05 17.05 -11.4 17.65 -8.1 16.25 -8.05 16.3 -5.45 17.35 -4.25 18.15 -2.85 19.0 -1.5 19.0 -6.25 22.65 -6.35 24.55 M4.35 -25.7 Q2.85 -26.05 1.15 -25.2 L6.7 -24.15 6.35 -24.6 5.0 -25.5 4.35 -25.7 M-2.7 -1.05 L-2.45 0.7 -1.35 0.75 0.95 -3.75 5.2 -6.8 4.85 -6.5 2.5 -4.1 1.65 -2.95 0.25 -0.55 0.05 -0.15 -0.5 1.1 -1.1 1.9 -2.2 1.9 -2.7 1.65 -2.85 1.25 -2.9 0.1 -2.8 -0.55 -2.7 -1.05 M7.65 -2.55 L6.15 -2.25 5.65 -1.15 7.2 0.15 6.45 0.95 6.05 0.45 5.65 -0.1 5.65 -0.15 5.45 -0.55 5.4 -0.85 Q5.4 -2.3 6.6 -2.5 L7.65 -2.55 M5.45 2.45 L5.5 2.7 7.3 3.2 7.65 2.95 8.15 2.35 8.55 1.55 8.55 1.35 8.4 0.6 8.4 0.55 8.25 0.3 8.35 0.2 9.7 -1.4 9.75 -0.55 9.65 0.95 9.55 1.4 9.25 2.55 7.8 5.1 6.15 4.95 5.75 4.7 5.25 4.3 4.9 4.0 5.1 3.15 5.45 2.45 M-2.8 2.55 Q-6.0 5.8 -1.55 6.2 L-1.5 7.35 -1.85 7.65 -2.45 7.65 Q-3.55 7.55 -4.2 6.85 L-4.6 6.25 -5.0 4.8 Q-5.0 4.0 -4.65 3.45 -4.15 2.65 -2.8 2.55 M-4.3 14.2 L-4.65 14.65 Q-6.5 16.0 -7.7 14.45 L-7.75 14.4 -7.95 14.05 -8.15 13.5 -7.65 13.65 -7.45 13.7 -6.3 13.5 Q-4.95 13.1 -3.75 11.9 L-3.45 11.55 -3.75 12.6 -4.3 14.2 M6.85 7.9 Q7.1 6.1 8.45 4.85 L7.65 6.55 7.55 7.0 6.85 7.9 M-8.0 6.5 L-7.95 6.65 Q-7.85 8.05 -9.3 8.75 -10.35 8.9 -10.9 8.05 -11.85 6.65 -11.35 5.3 -11.35 6.6 -10.2 7.0 L-9.1 7.0 -8.4 6.6 -8.55 5.2 -8.15 5.9 -8.0 6.5 M-8.4 18.0 L-8.95 18.3 -8.75 19.85 -8.05 20.25 -6.9 19.6 -6.75 19.15 -6.55 18.75 -5.4 18.85 -5.4 18.25 Q-6.95 17.35 -8.4 18.0" fill="#990000" fill-rule="evenodd" stroke="none"/>
      <path d="M13.35 -4.0 L13.25 -3.45 13.0 -2.65 12.65 -1.35 12.6 -1.05 12.45 -0.55 12.0 1.0 11.85 1.55 11.35 3.15 10.75 3.0 10.95 3.7 11.05 4.1 10.65 5.4 10.5 5.85 10.45 5.35 10.35 4.8 8.45 4.85 Q7.1 6.1 6.85 7.9 L6.7 8.1 4.85 9.25 4.4 8.75 4.25 8.4 4.1 7.95 4.0 7.1 Q4.0 5.85 4.95 5.45 L5.0 5.4 6.15 4.95 7.8 5.1 9.25 2.55 9.55 1.4 9.65 0.95 9.75 -0.55 9.7 -1.4 Q9.7 -1.9 9.1 -2.2 L8.05 -2.5 8.05 -2.95 7.95 -4.05 10.2 -4.05 10.35 -2.95 10.35 -2.65 10.4 -1.35 10.4 -1.3 11.35 -1.3 13.3 -3.85 13.35 -4.0 M9.25 9.95 L8.75 12.0 8.55 11.2 9.05 10.05 9.25 9.95 M-11.4 17.65 Q-10.6 15.05 -10.7 13.1 L-10.75 12.4 -10.1 12.25 -8.95 12.5 -8.2 12.9 -8.15 12.95 -8.15 13.5 -7.95 14.05 -7.75 14.4 -7.7 14.45 Q-6.5 16.0 -4.65 14.65 L-5.0 17.45 -4.2 18.05 -4.25 18.15 -5.45 17.35 -8.05 16.3 -8.1 16.25 -11.4 17.65 M-0.5 -4.15 L-1.6 -2.95 -2.2 -2.1 -2.25 -2.1 -4.1 -1.7 -5.75 -2.05 -6.45 -2.3 -7.05 -2.95 -7.15 -3.55 -7.1 -4.15 -0.5 -4.15 M4.1 -4.1 L4.45 -4.1 3.55 -3.4 2.9 -2.95 Q2.1 -2.35 2.1 -2.0 L2.5 -1.4 2.8 -0.9 2.85 -0.55 2.85 -0.45 2.5 0.9 Q2.05 1.65 1.45 1.65 0.7 1.65 0.05 -0.15 L0.25 -0.55 1.65 -2.95 2.5 -4.1 4.1 -4.1 M0.25 13.4 L0.75 14.8 -0.85 18.4 -1.8 18.15 -3.35 15.65 -3.1 14.55 -4.3 14.2 -3.75 12.6 -3.35 12.5 -3.05 12.65 -2.25 13.0 -2.15 13.05 -1.2 13.45 -0.85 13.5 0.25 13.4" fill="#bd6f65" fill-rule="evenodd" stroke="none"/>
      <path d="M4.2 -30.35 L4.35 -32.15 6.25 -31.85 8.0 -33.65 8.15 -33.55 8.3 -30.15 8.0 -29.45 Q7.6 -27.6 5.8 -27.25 L5.0 -27.05 4.6 -26.75 3.35 -27.4 4.1 -28.45 4.2 -30.35 M12.55 -17.5 L14.9 -23.25 Q15.2 -24.0 15.45 -24.15 L15.55 -24.15 15.25 -23.05 14.75 -21.95 14.35 -20.65 14.5 -20.6 15.05 -21.2 Q16.25 -22.8 16.4 -22.5 L16.4 -22.0 16.55 -20.85 17.25 -21.3 17.85 -20.0 16.75 -17.45 16.55 -16.95 15.75 -15.3 15.45 -14.65 14.7 -12.95 14.6 -12.55 14.6 -12.4 13.55 -10.0 Q10.5 -3.6 11.65 -13.4 L11.65 -14.85 12.45 -17.15 12.55 -17.5 M3.6 23.9 Q3.85 25.6 2.55 25.6 L1.55 24.75 0.45 21.1 1.45 20.3 3.9 20.25 3.85 20.95 3.6 23.9 M-2.65 24.3 L-2.7 25.15 Q-2.75 26.45 -3.65 27.35 L-4.2 27.2 Q-6.3 26.8 -6.35 24.55 L-6.25 22.65 -4.2 22.9 -2.9 21.9 -2.7 24.15 -2.65 24.3" fill="#ffffff" fill-rule="evenodd" stroke="none"/>
    </g>
  </defs>
</svg>
