<?xml version="1.0" encoding="UTF-8" standalone="no"?>
<svg xmlns:ffdec="https://www.free-decompiler.com/flash" xmlns:xlink="http://www.w3.org/1999/xlink" ffdec:objectType="frame" height="56.0px" width="156.0px" xmlns="http://www.w3.org/2000/svg">
  <g transform="matrix(1.0, 0.0, 0.0, 1.0, 78.0, 6.0)">
    <use ffdec:characterId="940" ffdec:characterName="TableMC" height="56.0" transform="matrix(1.0, 0.0, 0.0, 1.0, -78.0, -6.0)" width="156.0" xlink:href="#sprite0"/>
  </g>
  <defs>
    <g id="sprite0" transform="matrix(1.0, 0.0, 0.0, 1.0, 78.0, 6.0)">
      <use ffdec:characterId="939" height="56.0" id="inner" transform="matrix(1.0, 0.0, 0.0, 1.0, -78.0, -6.0)" width="156.0" xlink:href="#sprite1"/>
    </g>
    <g id="sprite1" transform="matrix(1.0, 0.0, 0.0, 1.0, 78.0, 3.0)">
      <use ffdec:characterId="936" height="6.0" transform="matrix(1.0, 0.0, 0.0, 1.0, -78.0, -3.0)" width="156.0" xlink:href="#shape0"/>
      <use ffdec:characterId="938" height="50.0" id="leg1" transform="matrix(1.0, 0.0, 0.0, 1.0, -51.0, 3.0)" width="6.0" xlink:href="#sprite2"/>
      <use ffdec:characterId="938" height="50.0" id="leg2" transform="matrix(1.0, 0.0, 0.0, 1.0, 45.0, 3.0)" width="6.0" xlink:href="#sprite2"/>
    </g>
    <g id="shape0" transform="matrix(1.0, 0.0, 0.0, 1.0, 78.0, 3.0)">
      <path d="M77.6 -1.5 L77.75 -1.2 78.0 0.0 Q78.0 1.25 77.1 2.1 76.25 3.0 75.0 3.0 L-75.0 3.0 Q-76.3 3.0 -77.2 2.1 -78.0 1.25 -78.0 0.0 L-77.75 -1.2 -77.65 -1.5 77.6 -1.5" fill="#cccc99" fill-rule="evenodd" stroke="none"/>
      <path d="M-77.65 -1.5 L-77.2 -2.15 Q-76.3 -3.0 -75.0 -3.0 L75.0 -3.0 Q76.25 -3.0 77.1 -2.15 L77.6 -1.5 -77.65 -1.5" fill="#e9e8d1" fill-rule="evenodd" stroke="none"/>
    </g>
    <g id="sprite2" transform="matrix(1.0, 0.0, 0.0, 1.0, 3.0, 25.0)">
      <use ffdec:characterId="937" height="50.0" transform="matrix(1.0, 0.0, 0.0, 1.0, -3.0, -25.0)" width="6.0" xlink:href="#shape1"/>
    </g>
    <g id="shape1" transform="matrix(1.0, 0.0, 0.0, 1.0, 3.0, 25.0)">
      <path d="M2.7 -12.0 L2.0 14.6 2.0 15.0 -2.0 15.0 -2.0 14.6 -2.65 -12.05 Q-0.1 -22.75 2.7 -12.0" fill="#cccc99" fill-rule="evenodd" stroke="none"/>
      <path d="M2.0 15.0 L1.75 25.0 -1.75 25.0 -2.0 15.0 2.0 15.0" fill="#666666" fill-rule="evenodd" stroke="none"/>
      <path d="M-2.65 -12.05 L-3.0 -25.0 3.0 -25.0 2.7 -12.0 Q-0.1 -22.75 -2.65 -12.05" fill="#aca77d" fill-rule="evenodd" stroke="none"/>
    </g>
  </defs>
</svg>
