<?xml version="1.0" encoding="UTF-8" standalone="no"?>
<svg xmlns:ffdec="https://www.free-decompiler.com/flash" xmlns:xlink="http://www.w3.org/1999/xlink" ffdec:objectType="frame" height="105.6px" width="69.15px" xmlns="http://www.w3.org/2000/svg">
  <g transform="matrix(1.0, 0.0, 0.0, 1.0, 34.5, 62.2)">
    <use ffdec:characterId="2457" height="27.15" id="neck" transform="matrix(1.0, 0.0, 0.0, 1.0, -7.45, -54.6)" width="26.05" xlink:href="#sprite0"/>
    <use ffdec:characterId="2461" height="86.55" transform="matrix(1.0, 1.0E-4, -1.0E-4, 1.0, -20.8938, -43.7518)" width="42.6" xlink:href="#sprite1"/>
    <use ffdec:characterId="1081" height="100.0" id="shape" transform="matrix(0.4004, 0.0, 0.0, 0.82, -20.0203, -40.9981)" width="100.0" xlink:href="#sprite2"/>
    <use ffdec:characterId="1138" height="0.0" id="spineRef" transform="matrix(1.0, 0.0, 0.0, 1.0, 8.35, -50.2)" width="0.0" xlink:href="#sprite3"/>
  </g>
  <defs>
    <g id="sprite0" transform="matrix(1.0, 0.0, 0.0, 1.0, 13.0, 13.55)">
      <use ffdec:characterId="2456" height="27.15" transform="matrix(1.0, 0.0, 0.0, 1.0, -13.0, -13.55)" width="26.05" xlink:href="#shape0"/>
    </g>
    <g id="shape0" transform="matrix(1.0, 0.0, 0.0, 1.0, 13.0, 13.55)">
      <path d="M2.95 -12.1 Q2.6 -11.7 2.1 -11.95 L1.6 -12.2 1.4 -13.1 2.1 -13.55 2.55 -13.45 2.95 -12.1 M0.15 -11.8 L0.8 -10.7 -0.05 -10.45 -0.25 -10.0 -1.1 -9.7 -1.15 -8.75 -0.85 -8.45 -0.75 -7.9 -1.35 -7.25 -2.35 -7.0 -2.05 -6.55 -2.35 -5.4 -2.8 -5.3 -3.2 -5.55 Q-3.45 -7.0 -4.0 -8.2 L-4.75 -7.9 -4.75 -7.35 Q-5.2 -4.35 -7.4 -6.1 L-7.45 -6.1 -7.4 -6.15 Q-7.0 -7.5 -6.25 -8.55 L-4.5 -10.4 -4.55 -10.65 Q-4.8 -11.7 -4.35 -12.7 L-3.75 -12.8 -3.05 -12.5 Q-1.55 -11.65 0.15 -11.8 M2.6 -10.55 L2.95 -11.65 3.55 -12.1 3.95 -12.1 4.5 -11.85 4.65 -9.35 4.65 -9.3 4.65 -9.1 5.45 -8.1 6.35 -7.3 6.4 -7.3 7.45 -6.75 9.05 -5.85 9.65 -5.4 11.35 -3.65 11.95 -2.85 11.9 -2.15 12.8 -1.4 12.8 -1.05 13.05 -0.7 Q13.15 -0.1 12.85 1.0 L12.1 2.9 11.1 0.7 10.5 0.3 10.25 0.4 8.75 0.7 8.35 0.6 7.3 1.1 6.85 0.65 5.1 1.55 3.75 0.45 5.15 -1.2 5.2 -1.25 5.15 -1.25 4.7 -1.35 3.1 -4.05 2.15 -4.35 1.65 -4.35 0.3 -5.5 0.35 -5.55 1.1 -5.85 1.6 -5.65 5.0 -3.25 6.6 -2.15 7.35 -1.55 8.15 -1.1 8.25 -2.35 8.55 -2.65 8.6 -3.3 9.25 -3.65 9.8 -4.1 9.75 -4.4 9.6 -4.7 9.4 -5.05 8.05 -5.7 7.2 -5.15 6.1 -5.55 5.6 -6.4 4.5 -7.6 4.1 -7.9 3.2 -8.5 3.5 -9.8 2.6 -10.55 M-0.05 -6.85 L0.3 -7.05 Q1.35 -7.75 1.7 -9.0 L2.35 -8.5 2.5 -7.4 2.25 -6.75 1.2 -6.45 0.7 -6.35 -0.05 -6.85 M6.1 4.9 L4.75 3.5 3.9 2.3 4.45 1.9 5.2 1.85 6.1 3.45 6.15 4.6 6.1 4.9 M-2.85 -4.55 L-2.05 -4.85 -1.25 -4.65 -0.4 -3.1 -0.3 -2.0 -1.4 -0.7 -2.15 -0.8 -3.3 -1.3 -3.5 -1.9 Q-3.8 -3.4 -2.85 -4.55" fill="#ff0000" fill-rule="evenodd" stroke="none"/>
      <path d="M0.8 -10.7 L1.65 -10.2 2.5 -10.4 2.6 -10.55 3.5 -9.8 3.2 -8.5 4.1 -7.9 4.5 -7.6 5.6 -6.4 6.1 -5.55 7.2 -5.15 8.05 -5.7 9.4 -5.05 9.6 -4.7 9.75 -4.4 9.8 -4.1 9.25 -3.65 8.6 -3.3 8.55 -2.65 8.25 -2.35 8.15 -1.1 7.35 -1.55 6.6 -2.15 5.0 -3.25 5.35 -3.65 Q5.0 -5.35 3.7 -6.95 L2.5 -7.4 2.35 -8.5 1.7 -9.0 1.55 -9.2 1.45 -9.4 1.4 -9.4 Q0.9 -9.85 0.15 -9.75 -0.9 -9.6 -0.85 -8.45 L-1.15 -8.75 -1.1 -9.7 -0.25 -10.0 -0.05 -10.45 0.8 -10.7 M12.1 2.9 L11.95 3.35 11.45 3.55 10.85 3.75 10.6 2.85 10.0 1.35 8.9 1.2 8.95 1.7 8.3 2.35 7.85 3.0 Q7.45 3.45 6.75 3.45 L6.6 3.5 6.1 3.45 5.2 1.85 4.45 1.9 3.9 2.3 4.75 3.5 6.1 4.9 6.0 5.85 Q5.85 6.3 5.55 6.35 L4.0 6.3 Q3.65 4.5 2.45 3.1 L3.05 0.3 2.15 -2.1 0.75 -2.15 0.65 -1.65 0.05 0.05 -1.2 0.55 -1.3 0.5 -2.0 0.3 -3.3 -1.3 -2.15 -0.8 -1.4 -0.7 -0.3 -2.0 -0.4 -3.1 -1.25 -4.65 -2.05 -4.85 -2.85 -4.55 -2.8 -5.3 -2.35 -5.4 -2.05 -6.55 -2.35 -7.0 -1.35 -7.25 -0.75 -7.9 -0.4 -7.2 -0.05 -6.85 0.7 -6.35 1.2 -6.45 1.6 -5.65 1.1 -5.85 0.35 -5.55 0.3 -5.5 1.65 -4.35 2.15 -4.35 3.1 -4.05 4.7 -1.35 5.15 -1.25 5.2 -1.25 5.15 -1.2 3.75 0.45 5.1 1.55 6.85 0.65 7.3 1.1 8.35 0.6 8.75 0.7 10.25 0.4 10.5 0.3 11.1 0.7 12.1 2.9" fill="#990000" fill-rule="evenodd" stroke="none"/>
      <path d="M2.1 -13.55 L1.4 -13.1 1.6 -12.2 2.1 -11.95 Q2.6 -11.7 2.95 -12.1 L2.95 -11.65 2.6 -10.55 2.5 -10.4 1.65 -10.2 0.8 -10.7 0.15 -11.8 0.4 -13.05 2.1 -13.55 M-0.85 -8.45 Q-0.9 -9.6 0.15 -9.75 0.9 -9.85 1.4 -9.4 L1.55 -9.2 1.7 -9.0 Q1.35 -7.75 0.3 -7.05 L-0.05 -6.85 -0.4 -7.2 -0.75 -7.9 -0.85 -8.45" fill="#ffffff" fill-rule="evenodd" stroke="none"/>
      <path d="M7.9 8.15 L7.25 10.85 7.6 12.0 7.65 12.9 7.4 13.6 6.1 12.3 4.5 10.65 4.35 10.45 4.45 10.45 2.15 6.1 Q0.9 3.65 0.05 0.05 L0.65 -1.65 0.75 -2.15 2.15 -2.1 3.05 0.3 2.45 3.1 Q3.65 4.5 4.0 6.3 L5.55 6.35 Q5.85 6.3 6.0 5.85 L6.1 4.9 6.15 4.6 6.1 3.45 6.6 3.5 7.3 6.55 Q7.35 7.2 7.9 8.15 M0.0 7.1 L-4.8 4.6 Q-7.15 3.75 -10.35 3.55 L-13.0 3.2 Q-13.05 2.65 -12.05 1.6 L-10.5 -0.3 Q-9.05 -2.7 -8.65 -3.8 L-7.4 -6.1 Q-5.2 -4.35 -4.75 -7.35 L-4.75 -7.9 -4.0 -8.2 Q-3.45 -7.0 -3.2 -5.55 L-2.8 -5.3 -2.85 -4.55 Q-3.8 -3.4 -3.5 -1.9 L-3.3 -1.3 -2.0 0.3 -1.3 0.5 -1.45 2.65 Q-1.15 4.95 0.0 7.1 M4.65 -9.3 L4.65 -9.35 4.75 -9.25 4.65 -9.3 M1.55 -9.2 L1.4 -9.4 1.45 -9.4 1.55 -9.2 M6.85 11.95 L6.85 12.0 6.9 11.9 6.85 11.95" fill="#ffcc99" fill-rule="evenodd" stroke="none"/>
      <path d="M1.2 -6.45 L2.25 -6.75 2.5 -7.4 3.7 -6.95 Q5.0 -5.35 5.35 -3.65 L5.0 -3.25 1.6 -5.65 1.2 -6.45" fill="#650101" fill-rule="evenodd" stroke="none"/>
      <path d="M10.85 3.75 L10.35 4.2 10.2 4.4 9.25 5.05 Q8.15 6.2 7.9 7.9 L7.9 8.15 Q7.35 7.2 7.3 6.55 L6.6 3.5 6.75 3.45 Q7.45 3.45 7.85 3.0 L8.3 2.35 8.95 1.7 8.9 1.2 10.0 1.35 10.6 2.85 10.85 3.75 M4.35 10.45 L2.75 8.85 Q1.7 7.95 0.5 7.35 L0.0 7.1 Q-1.15 4.95 -1.45 2.65 L-1.3 0.5 -1.2 0.55 0.05 0.05 Q0.9 3.65 2.15 6.1 L4.45 10.45 4.35 10.45" fill="#e2b181" fill-rule="evenodd" stroke="none"/>
    </g>
    <g id="sprite1" transform="matrix(1.0, 0.0, 0.0, 1.0, 20.05, 67.2)">
      <use ffdec:characterId="2460" height="86.55" transform="matrix(1.0, 0.0, 0.0, 1.0, -20.05, -67.2)" width="42.6" xlink:href="#shape1"/>
    </g>
    <g id="shape1" transform="matrix(1.0, 0.0, 0.0, 1.0, 20.05, 67.2)">
      <path d="M14.8 -18.4 L15.0 -19.5 14.65 -20.3 Q14.2 -21.7 14.3 -23.0 L14.65 -22.3 16.5 -23.0 16.5 -21.5 17.55 -21.6 18.8 -22.5 18.8 -23.05 19.2 -22.4 19.45 -21.7 Q19.9 -20.35 19.3 -19.15 L18.15 -18.5 16.9 -18.0 16.6 -17.95 16.0 -17.85 15.85 -15.25 14.85 -14.45 14.3 -14.5 Q13.1 -14.9 12.65 -16.2 14.2 -15.8 15.2 -17.1 L15.6 -17.6 14.8 -18.4 M19.45 -12.4 L19.45 -11.95 Q20.4 -9.65 19.45 -7.5 L18.9 -6.45 18.55 -6.05 18.05 -5.55 18.45 -7.45 18.25 -9.25 18.35 -9.0 18.9 -9.4 18.9 -9.7 18.1 -10.6 18.1 -11.15 19.45 -12.4 M17.85 -5.4 L17.3 -5.15 Q16.65 -4.9 16.15 -4.3 L14.7 -1.55 13.45 -1.7 11.95 -3.4 11.1 -4.05 Q10.3 -3.25 9.55 -2.9 L8.35 -3.75 7.95 -4.0 8.05 -4.45 Q8.05 -5.5 6.75 -5.5 L6.65 -5.5 5.2 -6.6 Q6.1 -7.55 7.55 -7.25 10.7 -5.4 14.5 -4.6 L14.9 -4.95 14.8 -5.6 14.1 -6.15 15.9 -6.25 16.3 -6.75 16.35 -6.7 15.95 -5.85 17.85 -5.4 M8.65 -1.6 L8.6 -1.55 8.9 -1.0 9.55 0.05 7.95 -1.35 7.5 -1.25 6.1 1.15 7.75 1.5 8.45 3.85 7.7 4.4 7.05 4.25 3.5 6.4 1.55 6.1 0.0 7.85 -3.1 8.6 -2.65 10.5 -3.5 10.85 -3.15 11.65 -3.0 12.25 -3.1 12.7 -6.65 14.1 -7.15 13.65 -8.15 14.1 -8.65 14.9 -9.05 14.1 -8.7 13.45 Q-8.7 13.05 -9.05 12.2 L-9.15 11.85 -9.05 11.75 -7.4 11.6 -7.2 10.6 -6.9 9.75 -3.4 9.6 -3.4 8.85 -6.4 8.45 -7.0 7.0 -4.25 7.15 -3.5 6.45 -3.0 6.9 -3.3 5.35 Q-2.25 5.05 -1.3 4.1 -0.5 3.25 0.15 2.2 L1.0 0.85 2.15 1.5 Q2.4 1.05 3.4 0.6 L-0.25 -0.45 -1.0 -1.0 -1.55 -1.7 Q-0.95 -2.7 -1.6 -3.85 L1.3 -1.7 1.45 -1.7 1.55 -1.6 Q2.8 -0.4 3.25 0.5 L3.6 -0.1 3.75 -1.05 3.7 -2.25 3.8 -3.5 Q6.2 -1.9 6.3 -1.9 L6.55 -2.15 6.55 -2.3 Q7.55 -1.9 8.65 -1.6 M-10.7 8.5 L-11.15 6.7 -11.8 5.7 -11.1 5.9 -10.3 5.4 -9.7 5.0 -9.7 2.95 -10.7 2.1 -13.7 2.8 -14.55 2.15 Q-15.2 1.75 -15.25 1.05 L-15.25 0.9 -15.1 1.4 -14.75 1.65 -13.45 1.25 -12.4 0.6 -12.3 -0.7 -13.1 -0.95 -13.55 -0.55 -13.55 -0.6 -13.65 -0.5 Q-13.75 -0.4 -13.85 -0.4 L-14.0 -0.4 Q-14.45 -0.6 -14.95 -1.65 L-15.7 -3.2 -15.65 -3.4 -14.3 -5.45 Q-13.85 -5.95 -13.4 -5.95 L-13.1 -5.9 Q-12.7 -5.75 -12.55 -5.05 L-12.55 -5.0 -12.3 -4.1 -12.3 -4.0 -12.25 -1.65 Q-11.05 -2.45 -9.8 -5.35 -8.8 -7.85 -8.0 -7.85 -6.9 -7.85 -6.9 -5.7 L-5.85 -6.0 -4.3 -6.3 Q-3.65 -6.3 -2.75 -7.3 L-1.85 -8.45 -1.1 -7.6 0.1 -6.35 -0.3 -3.5 -2.0 -5.2 -2.6 -5.3 -3.85 -4.3 -3.85 -2.65 -4.45 -3.0 -4.85 -2.2 -4.9 -1.8 -3.75 0.2 -3.35 -0.2 -3.2 -0.95 -1.25 0.2 -3.9 3.55 -3.9 4.6 -4.5 4.5 -5.2 5.05 -6.3 6.25 -8.25 6.4 -9.1 6.8 -10.1 6.35 -10.85 6.35 -10.75 7.7 -10.3 8.15 -10.7 8.5 M9.75 -12.85 Q12.25 -10.6 15.25 -8.8 L14.95 -8.3 12.7 -8.55 12.35 -8.25 12.2 -7.8 12.55 -7.2 8.1 -10.3 Q8.3 -11.55 9.05 -12.3 L9.75 -12.85 M15.55 -10.85 L15.3 -11.1 14.4 -12.1 13.0 -13.5 Q13.8 -13.4 14.5 -12.95 15.3 -12.45 15.55 -11.6 L15.55 -10.85 M5.25 -18.3 L7.15 -18.25 6.6 -18.2 9.45 -16.15 10.2 -16.6 10.1 -15.95 9.9 -15.4 Q9.55 -14.75 8.7 -14.55 L7.9 -14.9 6.7 -13.8 4.9 -13.65 3.55 -14.1 3.25 -14.45 3.05 -14.75 Q2.55 -15.65 2.7 -16.75 L3.05 -16.3 3.5 -16.35 4.1 -16.05 4.7 -16.3 5.0 -16.8 6.2 -16.4 6.3 -17.55 5.25 -18.3 M3.6 -12.75 L4.5 -11.75 4.2 -10.25 3.8 -10.05 3.6 -9.95 Q1.4 -9.9 0.35 -11.9 L3.6 -12.75 M-6.2 -14.2 L-6.8 -14.0 Q-9.35 -13.1 -10.55 -15.6 L-10.55 -16.05 -10.05 -15.75 -7.9 -15.75 -6.0 -16.55 -5.9 -15.35 -6.2 -14.2 M-10.55 -9.2 Q-11.15 -8.4 -12.05 -8.4 L-13.35 -8.7 -14.1 -8.4 -14.2 -6.4 -14.7 -6.15 -15.3 -6.05 Q-16.7 -6.05 -17.2 -7.5 L-16.95 -8.4 -16.8 -7.65 -15.25 -8.0 -15.05 -8.95 -15.6 -9.2 -15.55 -9.9 -15.55 -9.95 -15.6 -10.0 -16.95 -10.85 -16.8 -12.15 -16.7 -11.6 -15.2 -11.1 -14.75 -9.95 -11.2 -9.9 -10.55 -9.2 M16.25 -8.7 L16.7 -8.15 16.7 -7.75 16.45 -7.85 16.25 -8.7 M-11.05 -2.9 L-11.0 -2.3 -9.95 -1.8 -9.2 -2.2 -8.25 -1.5 -8.65 -0.95 -9.55 -0.65 -10.1 0.5 -8.2 1.55 -6.9 0.35 -7.45 -0.85 -6.25 -1.3 Q-8.0 -3.45 -11.05 -2.9 M-6.15 2.5 L-7.1 2.2 -8.25 3.05 -8.75 3.0 -8.85 3.2 -8.55 4.5 -7.25 5.0 -6.2 4.05 -6.15 2.5" fill="#990000" fill-rule="evenodd" stroke="none"/>
      <path d="M13.25 -17.75 L14.8 -18.4 15.6 -17.6 15.2 -17.1 Q14.2 -15.8 12.65 -16.2 L12.6 -16.7 13.25 -17.75 M14.3 -23.0 L14.6 -24.3 15.25 -24.6 16.8 -24.8 Q18.05 -24.65 18.8 -23.05 L18.8 -22.5 17.55 -21.6 16.5 -21.5 16.5 -23.0 14.65 -22.3 14.3 -23.0 M18.3 -13.9 L19.0 -13.5 Q19.45 -13.05 19.45 -12.4 L18.1 -11.15 18.1 -10.6 18.9 -9.7 18.9 -9.4 18.35 -9.0 18.25 -9.25 18.15 -9.7 Q17.85 -11.35 17.85 -12.1 17.85 -13.25 18.3 -13.9 M9.55 0.05 L9.85 0.6 Q10.75 2.8 8.45 3.85 L7.75 1.5 6.1 1.15 7.5 -1.25 7.95 -1.35 9.55 0.05 M-3.1 12.7 L-2.65 12.5 Q-1.55 13.15 -1.4 14.35 L-1.65 14.75 -2.1 14.75 -2.9 14.0 Q-7.4 15.55 -9.8 18.45 L-10.2 17.2 -8.75 15.0 -8.65 14.9 -8.15 14.1 -7.15 13.65 -6.65 14.1 -3.1 12.7 M-13.9 3.25 L-13.7 2.8 -10.7 2.1 -9.7 2.95 -9.7 5.0 -10.3 5.4 -10.5 4.0 Q-11.3 3.35 -12.15 3.35 L-13.35 3.65 -13.9 3.25 M-15.25 0.9 Q-15.1 -0.15 -14.1 -0.4 L-14.0 -0.4 -13.85 -0.4 Q-13.75 -0.4 -13.65 -0.5 L-13.55 -0.55 -13.1 -0.95 -12.3 -0.7 -12.4 0.6 -13.45 1.25 -14.75 1.65 -15.1 1.4 -15.25 0.9 M15.25 -8.8 L16.05 -8.85 16.25 -8.7 16.45 -7.85 16.7 -7.75 16.35 -6.7 16.3 -6.75 15.9 -6.25 14.1 -6.15 12.55 -7.2 12.2 -7.8 12.35 -8.25 12.7 -8.55 14.95 -8.3 15.25 -8.8 M15.7 -10.6 L15.55 -10.85 15.55 -11.6 15.65 -11.35 15.7 -10.65 15.7 -10.6 M3.85 -17.6 L4.75 -18.35 5.25 -18.3 6.3 -17.55 6.2 -16.4 5.0 -16.8 4.7 -16.3 4.1 -16.05 3.5 -16.35 3.05 -16.3 2.7 -16.75 3.85 -17.6 M7.15 -18.25 L8.3 -18.2 9.55 -17.7 9.9 -17.45 10.2 -16.6 9.45 -16.15 6.6 -18.2 7.15 -18.25 M2.35 -13.75 L3.35 -13.45 3.6 -12.75 0.35 -11.9 0.3 -12.15 0.25 -13.0 1.2 -14.15 2.35 -13.75 M-14.15 -12.8 L-13.95 -12.05 -12.6 -12.2 Q-10.6 -12.05 -9.9 -10.3 L-10.55 -9.2 -11.2 -9.9 -14.75 -9.95 -15.2 -11.1 -16.7 -11.6 -16.8 -12.15 -14.9 -12.65 -14.15 -12.8 M-1.85 -8.45 L-1.65 -8.85 Q-1.2 -9.7 -0.6 -8.75 L-0.75 -8.8 -0.4 -8.35 0.15 -6.85 0.1 -6.35 -1.1 -7.6 -1.85 -8.45 M-0.3 -3.5 L-0.35 -3.35 0.3 -2.8 1.45 -1.7 1.3 -1.7 -1.6 -3.85 Q-0.95 -2.7 -1.55 -1.7 L-1.0 -1.0 -0.25 -0.45 3.4 0.6 Q2.4 1.05 2.15 1.5 L1.0 0.85 0.15 2.2 Q-0.5 3.25 -1.3 4.1 -2.25 5.05 -3.3 5.35 L-3.0 6.9 -3.5 6.45 -4.25 7.15 -7.0 7.0 -6.4 8.45 -3.4 8.85 -3.4 9.6 -6.9 9.75 -7.2 10.6 -7.95 9.35 -7.75 8.8 -8.0 8.0 -9.25 7.4 -10.3 8.15 -10.75 7.7 -10.85 6.35 -10.1 6.35 -9.1 6.8 -8.25 6.4 -6.3 6.25 -5.2 5.05 -4.5 4.5 -3.9 4.6 -3.9 3.55 -1.25 0.2 -3.2 -0.95 -3.35 -0.2 -3.75 0.2 -4.9 -1.8 -4.85 -2.2 -4.45 -3.0 -3.85 -2.65 -3.85 -4.3 -2.6 -5.3 -2.0 -5.2 -0.3 -3.5 M3.8 -3.5 L4.05 -4.5 5.35 -3.55 Q6.35 -2.8 6.55 -2.3 L6.55 -2.15 6.3 -1.9 Q6.2 -1.9 3.8 -3.5 M4.65 -5.9 L5.2 -6.6 6.65 -5.5 6.75 -5.5 Q8.05 -5.5 8.05 -4.45 L7.95 -4.0 7.85 -3.8 Q7.6 -3.4 7.3 -3.4 5.9 -3.4 5.9 -4.55 L6.0 -5.0 4.65 -5.9 M-6.0 -16.55 L-7.9 -15.75 -10.05 -15.75 -10.55 -16.05 -8.9 -18.05 -6.2 -17.55 -6.0 -16.55 M-15.6 -9.2 L-15.05 -8.95 -15.25 -8.0 -16.8 -7.65 -16.95 -8.4 Q-16.95 -8.75 -16.55 -8.95 L-15.6 -9.2 M-11.05 -2.9 Q-8.0 -3.45 -6.25 -1.3 L-7.45 -0.85 -6.9 0.35 -8.2 1.55 -10.1 0.5 -9.55 -0.65 -8.65 -0.95 -8.25 -1.5 -9.2 -2.2 -9.95 -1.8 -11.0 -2.3 -11.05 -2.9 M-6.15 2.5 L-6.2 4.05 -7.25 5.0 -8.55 4.5 -8.85 3.2 -8.75 3.0 -8.25 3.05 -7.1 2.2 -6.15 2.5" fill="#ff0000" fill-rule="evenodd" stroke="none"/>
      <path d="M16.5 -52.65 L12.35 -58.7 11.1 -59.8 Q8.45 -62.1 5.3 -63.55 L1.55 -64.15 1.5 -64.15 -3.65 -63.95 -9.0 -62.95 Q-5.3 -66.6 -0.15 -67.15 L5.3 -66.7 Q10.25 -64.75 14.55 -61.4 L15.5 -60.65 18.35 -58.0 17.95 -55.1 16.9 -52.5 16.5 -52.65 M9.55 -2.9 L10.45 -2.15 10.3 -1.55 8.65 -1.6 Q7.55 -1.9 6.55 -2.3 6.35 -2.8 5.35 -3.55 L4.05 -4.5 4.4 -5.45 4.65 -5.9 6.0 -5.0 5.9 -4.55 Q5.9 -3.4 7.3 -3.4 7.6 -3.4 7.85 -3.8 L7.95 -4.0 8.35 -3.75 9.55 -2.9 M-1.65 14.75 L-2.1 16.7 -3.0 17.05 -3.9 18.5 -4.05 19.2 -5.0 19.35 -6.2 18.6 -6.55 17.65 -7.55 18.35 -8.6 18.9 -9.8 18.45 Q-7.4 15.55 -2.9 14.0 L-2.1 14.75 -1.65 14.75 M-9.15 11.85 Q-10.15 12.6 -11.6 12.6 L-12.4 12.5 -12.9 11.9 -13.3 11.65 -13.45 10.35 Q-12.55 9.05 -10.9 8.7 L-10.7 8.5 -10.3 8.15 -9.25 7.4 -8.0 8.0 -7.75 8.8 -7.95 9.35 -7.2 10.6 -7.4 11.6 -9.05 11.75 -9.15 11.85 M-11.8 5.7 L-13.65 6.9 -14.5 6.7 -15.25 5.65 -13.9 3.25 -13.35 3.65 -12.15 3.35 Q-11.3 3.35 -10.5 4.0 L-10.3 5.4 -11.1 5.9 -11.8 5.7 M9.75 -12.85 Q10.6 -13.4 11.85 -13.55 L13.0 -13.5 14.4 -12.1 15.3 -11.1 15.55 -10.85 15.7 -10.6 15.45 -9.35 16.05 -8.85 15.25 -8.8 Q12.25 -10.6 9.75 -12.85 M-0.6 -8.75 L-0.4 -8.35 -0.75 -8.8 -0.6 -8.75 M7.55 -7.25 L8.3 -7.05 8.15 -8.15 7.95 -8.95 Q7.95 -9.7 8.1 -10.3 L12.55 -7.2 14.1 -6.15 14.8 -5.6 14.9 -4.95 14.5 -4.6 Q10.7 -5.4 7.55 -7.25" fill="#ffffff" fill-rule="evenodd" stroke="none"/>
      <path d="M1.5 -64.15 L1.55 -64.15 5.3 -63.55 Q8.45 -62.1 11.1 -59.8 L12.35 -58.7 16.5 -52.65 16.7 -52.1 17.5 -49.3 Q18.9 -43.95 19.5 -38.3 L19.5 -38.15 19.15 -38.25 Q18.3 -43.75 16.4 -48.75 14.4 -54.05 10.8 -58.25 L10.4 -58.7 5.45 -62.7 1.5 -64.05 1.5 -64.15 M-8.9 -18.05 L-6.9 -26.45 -12.15 -23.2 Q-12.15 -25.15 -11.55 -27.0 L-11.2 -27.95 -9.9 -30.15 Q-8.2 -33.35 -8.3 -37.0 L-8.7 -37.05 Q-9.95 -32.0 -13.6 -28.3 L-14.15 -29.75 Q-12.1 -34.55 -11.25 -39.85 -12.5 -37.85 -14.35 -36.15 L-13.75 -42.85 -14.15 -43.25 -13.85 -44.65 -13.15 -47.0 -11.95 -49.3 Q-9.6 -53.35 -5.55 -55.9 -9.4 -54.5 -12.85 -52.3 L-11.75 -54.25 Q-9.35 -58.25 -4.9 -59.8 -1.9 -60.25 0.35 -59.9 2.4 -56.75 3.0 -53.6 L5.1 -48.85 Q8.6 -42.2 7.1 -31.6 L6.75 -29.65 6.7 -29.25 6.75 -29.35 Q10.05 -31.85 10.3 -36.0 L10.35 -37.25 Q11.6 -35.25 10.75 -33.05 L10.05 -31.6 14.9 -37.2 15.9 -37.05 Q18.6 -31.15 14.75 -28.05 L13.85 -27.4 14.15 -28.35 14.15 -28.5 Q14.1 -29.15 13.65 -29.15 12.4 -29.15 12.0 -28.05 L11.7 -26.35 9.65 -25.65 9.1 -26.1 8.55 -24.9 7.95 -25.0 7.35 -24.2 6.35 -22.5 5.3 -22.35 3.85 -22.8 Q3.5 -22.8 3.1 -22.2 L2.7 -21.2 Q2.7 -20.6 3.3 -19.55 3.9 -18.5 3.9 -18.05 L3.85 -17.6 2.7 -16.75 Q2.55 -15.65 3.05 -14.75 L2.5 -13.95 2.35 -13.75 1.2 -14.15 0.25 -13.0 0.3 -12.15 -0.05 -12.85 -0.65 -12.95 -0.55 -11.8 Q-0.5 -11.0 -0.95 -10.4 L-1.15 -10.1 -2.35 -9.1 Q-2.85 -8.8 -3.45 -8.55 -4.65 -11.55 -3.75 -14.7 L-4.45 -14.7 -5.25 -13.8 -6.2 -14.2 -5.9 -15.35 -4.45 -17.5 -4.85 -18.5 -6.2 -17.55 -8.9 -18.05 M19.2 -22.4 L19.3 -25.35 19.55 -25.35 Q20.5 -30.15 19.7 -35.0 L19.85 -35.05 19.9 -34.65 20.25 -33.05 20.3 -32.65 20.8 -30.35 20.85 -30.15 21.65 -27.35 22.55 -24.2 Q21.9 -23.55 21.5 -22.4 L21.05 -20.25 20.35 -23.05 19.5 -16.9 19.3 -19.15 Q19.9 -20.35 19.45 -21.7 L19.2 -22.4 M-15.7 -3.2 Q-17.3 0.0 -18.8 1.5 L-17.75 -1.3 Q-17.45 -1.9 -17.45 -3.35 L-17.45 -4.25 Q-17.55 -5.1 -18.15 -5.1 L-19.15 -4.6 -20.05 -3.95 -20.05 -4.05 Q-18.9 -6.9 -18.9 -9.55 L-19.1 -11.75 -18.75 -15.0 -19.3 -25.5 -19.45 -27.95 Q-19.75 -32.8 -19.5 -39.15 L-19.25 -42.95 -18.8 -38.7 Q-18.25 -34.45 -17.5 -32.3 L-15.65 -25.95 -14.5 -21.4 -14.25 -19.75 -14.45 -16.95 -14.05 -14.8 -13.8 -13.1 -14.15 -12.8 -14.9 -12.65 -16.8 -12.15 -16.95 -10.85 -15.6 -10.0 -15.55 -9.9 -15.6 -9.2 -16.55 -8.95 Q-16.95 -8.75 -16.95 -8.4 L-17.2 -7.5 Q-16.7 -6.05 -15.3 -6.05 L-14.7 -6.15 -14.3 -5.45 -15.65 -3.4 -15.7 -3.2 M4.35 -26.1 Q7.7 -33.85 6.55 -39.95 5.0 -47.75 3.1 -49.9 -0.2 -53.6 -5.1 -48.9 -7.05 -47.05 -6.25 -44.65 -3.55 -36.9 -5.35 -30.5 L-1.95 -33.85 -4.25 -22.5 -2.9 -23.65 -2.1 -24.2 Q-1.4 -24.65 -0.8 -25.2 0.95 -26.9 1.65 -29.4 L-0.9 -18.65 2.2 -21.9 4.35 -26.1" fill="#727e94" fill-rule="evenodd" stroke="none"/>
      <path d="M1.5 -64.15 L1.5 -64.05 5.3 -60.8 7.15 -58.7 8.9 -56.2 Q11.9 -51.45 13.95 -46.4 L15.85 -41.05 18.85 -28.0 19.35 -26.0 19.3 -25.35 19.2 -22.4 18.8 -23.05 Q18.05 -24.65 16.8 -24.8 L15.25 -24.6 14.6 -24.3 14.3 -23.0 Q14.2 -21.7 14.65 -20.3 L15.0 -19.5 14.8 -18.4 13.25 -17.75 Q12.6 -18.4 12.25 -19.25 L12.4 -19.35 Q13.2 -19.9 13.2 -20.85 L12.35 -22.1 11.45 -23.0 Q11.45 -23.8 12.8 -25.75 L13.85 -27.4 14.75 -28.05 Q18.6 -31.15 15.9 -37.05 L14.9 -37.2 10.05 -31.6 10.75 -33.05 Q11.6 -35.25 10.35 -37.25 L10.3 -36.0 Q10.05 -31.85 6.75 -29.35 L6.7 -29.25 6.75 -29.65 7.1 -31.6 Q8.6 -42.2 5.1 -48.85 L3.0 -53.6 Q2.4 -56.75 0.35 -59.9 -1.9 -60.25 -4.9 -59.8 -9.35 -58.25 -11.75 -54.25 L-12.85 -52.3 Q-9.4 -54.5 -5.55 -55.9 -9.6 -53.35 -11.95 -49.3 L-13.15 -47.0 -13.85 -44.65 -14.15 -43.25 -13.75 -42.85 -14.35 -36.15 Q-12.5 -37.85 -11.25 -39.85 -12.1 -34.55 -14.15 -29.75 L-13.6 -28.3 Q-9.95 -32.0 -8.7 -37.05 L-8.3 -37.0 Q-8.2 -33.35 -9.9 -30.15 L-11.2 -27.95 -11.55 -27.0 Q-12.15 -25.15 -12.15 -23.2 L-6.9 -26.45 -8.9 -18.05 -10.55 -16.05 -10.55 -15.6 Q-12.15 -18.05 -13.35 -20.8 L-13.15 -19.65 Q-12.75 -16.45 -13.8 -13.1 L-14.05 -14.8 -14.45 -16.95 -14.25 -19.75 -14.5 -21.4 -15.65 -25.95 -17.5 -32.3 Q-18.25 -34.45 -18.8 -38.7 L-19.25 -42.95 -18.6 -47.0 Q-17.9 -50.35 -16.45 -53.65 L-14.85 -56.65 -14.85 -56.7 -14.4 -57.45 -14.2 -57.6 -14.15 -57.65 Q-12.3 -60.35 -9.65 -62.5 L-9.0 -62.95 -3.65 -63.95 1.5 -64.15 M21.05 -20.25 L21.0 -19.1 Q21.0 -17.3 21.55 -14.65 19.15 -15.15 18.3 -13.9 17.85 -13.25 17.85 -12.1 17.85 -11.35 18.15 -9.7 L18.25 -9.25 18.45 -7.45 18.05 -5.55 18.0 -5.35 17.85 -5.4 15.95 -5.85 16.35 -6.7 16.7 -7.75 16.7 -8.15 16.25 -8.7 16.05 -8.85 15.45 -9.35 15.7 -10.6 15.7 -10.65 15.65 -11.35 16.5 -13.15 15.0 -14.05 14.85 -14.45 15.85 -15.25 16.0 -17.85 16.6 -17.95 16.9 -18.0 18.15 -18.5 19.3 -19.15 19.5 -16.9 20.35 -23.05 21.05 -20.25 M6.35 -22.5 L7.35 -24.2 7.95 -25.0 8.55 -24.9 9.1 -26.1 9.65 -25.65 11.7 -26.35 11.4 -24.9 Q9.65 -24.55 8.0 -23.4 7.1 -22.8 6.35 -22.5 M-12.3 -4.1 L-12.25 -4.05 -12.3 -4.0 -12.3 -4.1 M-6.0 -16.55 L-6.2 -17.55 -4.85 -18.5 -4.45 -17.5 -5.9 -15.35 -6.0 -16.55 M-17.05 16.65 L-17.05 16.6 -17.05 16.65" fill="#9299a9" fill-rule="evenodd" stroke="none"/>
      <path d="M1.5 -64.05 L5.45 -62.7 8.75 -58.7 8.9 -58.5 Q12.7 -53.9 15.2 -48.7 17.65 -43.5 19.1 -37.9 L19.7 -35.0 Q20.5 -30.15 19.55 -25.35 L19.35 -26.0 18.85 -28.0 15.85 -41.05 13.95 -46.4 Q11.9 -51.45 8.9 -56.2 L7.15 -58.7 5.3 -60.8 1.5 -64.05" fill="#464564" fill-rule="evenodd" stroke="none"/>
      <path d="M5.45 -62.7 L10.4 -58.7 10.8 -58.25 Q14.4 -54.05 16.4 -48.75 18.3 -43.75 19.15 -38.25 L19.85 -35.05 19.7 -35.0 19.1 -37.9 Q17.65 -43.5 15.2 -48.7 12.7 -53.9 8.9 -58.5 L8.75 -58.7 5.45 -62.7 M4.35 -26.1 L2.2 -21.9 -0.9 -18.65 1.65 -29.4 Q0.95 -26.9 -0.8 -25.2 -1.4 -24.65 -2.1 -24.2 L-2.9 -23.65 -4.25 -22.5 -1.95 -33.85 -5.35 -30.5 Q-3.55 -36.9 -6.25 -44.65 -7.05 -47.05 -5.1 -48.9 -0.2 -53.6 3.1 -49.9 5.0 -47.75 6.55 -39.95 7.7 -33.85 4.35 -26.1" fill="#5c617c" fill-rule="evenodd" stroke="none"/>
      <path d="M19.5 -38.15 L19.5 -38.3 Q18.9 -43.95 17.5 -49.3 L16.7 -52.1 16.9 -52.5 17.95 -55.1 18.8 -55.7 19.35 -51.7 18.5 -50.55 Q20.5 -46.25 21.25 -41.35 21.95 -36.5 21.55 -33.7 L20.85 -30.3 20.8 -30.35 20.3 -32.65 20.35 -32.85 19.9 -34.65 19.85 -35.05 19.5 -38.15" fill="#3f072e" fill-rule="evenodd" stroke="none"/>
      <path d="M19.15 -38.25 L19.5 -38.15 19.85 -35.05 19.15 -38.25 M20.85 -30.3 L20.85 -30.15 20.8 -30.35 20.85 -30.3 M20.35 -32.85 L20.3 -32.65 20.25 -33.05 20.35 -32.85" fill="#848c9f" fill-rule="evenodd" stroke="none"/>
      <path d="M13.85 -27.4 L12.8 -25.75 Q11.45 -23.8 11.45 -23.0 L12.35 -22.1 13.2 -20.85 Q13.2 -19.9 12.4 -19.35 L12.25 -19.25 Q12.6 -18.4 13.25 -17.75 L12.6 -16.7 12.65 -16.2 Q13.1 -14.9 14.3 -14.5 L14.85 -14.45 15.0 -14.05 16.5 -13.15 15.65 -11.35 15.55 -11.6 Q15.3 -12.45 14.5 -12.95 13.8 -13.4 13.0 -13.5 L11.85 -13.55 Q10.6 -13.4 9.75 -12.85 L9.05 -12.3 Q8.3 -11.55 8.1 -10.3 7.95 -9.7 7.95 -8.95 L8.15 -8.15 8.3 -7.05 7.55 -7.25 Q6.1 -7.55 5.2 -6.6 L4.65 -5.9 4.4 -5.45 4.05 -4.5 3.8 -3.5 3.7 -2.25 3.75 -1.05 3.6 -0.1 3.25 0.5 Q2.8 -0.4 1.55 -1.6 L1.45 -1.7 0.3 -2.8 -0.35 -3.35 -0.3 -3.5 0.1 -6.35 0.15 -6.85 -0.4 -8.35 -0.6 -8.75 Q-1.2 -9.7 -1.65 -8.85 L-1.85 -8.45 -2.75 -7.3 Q-3.65 -6.3 -4.3 -6.3 L-5.85 -6.0 -6.9 -5.7 Q-6.9 -7.85 -8.0 -7.85 -8.8 -7.85 -9.8 -5.35 -11.05 -2.45 -12.25 -1.65 L-12.3 -4.0 -12.25 -4.05 -12.3 -4.1 -12.55 -5.0 -12.55 -5.05 Q-12.7 -5.75 -13.1 -5.9 L-13.4 -5.95 Q-13.85 -5.95 -14.3 -5.45 L-14.7 -6.15 -14.2 -6.4 -14.1 -8.4 -13.35 -8.7 -12.05 -8.4 Q-11.15 -8.4 -10.55 -9.2 L-9.9 -10.3 Q-10.6 -12.05 -12.6 -12.2 L-13.95 -12.05 -14.15 -12.8 -13.8 -13.1 Q-12.75 -16.45 -13.15 -19.65 L-13.35 -20.8 Q-12.15 -18.05 -10.55 -15.6 -9.35 -13.1 -6.8 -14.0 L-6.2 -14.2 -5.25 -13.8 -4.45 -14.7 -3.75 -14.7 Q-4.65 -11.55 -3.45 -8.55 -2.85 -8.8 -2.35 -9.1 L-1.15 -10.1 -0.95 -10.4 Q-0.5 -11.0 -0.55 -11.8 L-0.65 -12.95 -0.05 -12.85 0.3 -12.15 0.35 -11.9 Q1.4 -9.9 3.6 -9.95 L3.8 -10.05 4.2 -10.25 4.5 -11.75 3.6 -12.75 3.35 -13.45 2.35 -13.75 2.5 -13.95 3.05 -14.75 3.25 -14.45 3.55 -14.1 4.9 -13.65 6.7 -13.8 7.9 -14.9 8.7 -14.55 Q9.55 -14.75 9.9 -15.4 L10.1 -15.95 10.2 -16.6 9.9 -17.45 9.55 -17.7 8.3 -18.2 7.15 -18.25 5.25 -18.3 4.75 -18.35 3.85 -17.6 3.9 -18.05 Q3.9 -18.5 3.3 -19.55 2.7 -20.6 2.7 -21.2 L3.1 -22.2 Q3.5 -22.8 3.85 -22.8 L5.3 -22.35 6.35 -22.5 Q7.1 -22.8 8.0 -23.4 9.65 -24.55 11.4 -24.9 L11.7 -26.35 12.0 -28.05 Q12.4 -29.15 13.65 -29.15 14.1 -29.15 14.15 -28.5 L14.15 -28.35 13.85 -27.4 M-15.6 -10.0 L-15.55 -9.95 -15.55 -9.9 -15.6 -10.0" fill="#834753" fill-rule="evenodd" stroke="none"/>
      <path d="M19.3 -25.35 L19.35 -26.0 19.55 -25.35 19.3 -25.35" fill="#67646b" fill-rule="evenodd" stroke="none"/>
    </g>
    <g id="sprite2" transform="matrix(1.0, 0.0, 0.0, 1.0, 50.0, 50.0)">
      <use ffdec:characterId="1080" height="100.0" transform="matrix(1.0, 0.0, 0.0, 1.0, -50.0, -50.0)" width="100.0" xlink:href="#shape2"/>
    </g>
    <g id="shape2" transform="matrix(1.0, 0.0, 0.0, 1.0, 50.0, 50.0)">
      <path d="M50.0 50.0 L-50.0 50.0 -50.0 -50.0 50.0 -50.0 50.0 50.0 Z" fill="none" stroke="#9900ff" stroke-linecap="round" stroke-linejoin="round" stroke-width="0.05"/>
    </g>
  </defs>
</svg>
