<?xml version="1.0" encoding="UTF-8" standalone="no"?>
<svg xmlns:ffdec="https://www.free-decompiler.com/flash" xmlns:xlink="http://www.w3.org/1999/xlink" ffdec:objectType="frame" height="167.75px" width="26.0px" xmlns="http://www.w3.org/2000/svg">
  <g transform="matrix(1.0, 0.0, 0.0, 1.0, 13.0, 83.25)">
    <use ffdec:characterId="3069" height="86.65" transform="matrix(1.0, 0.0, 0.0, 1.0, -4.0, -43.15)" width="8.0" xlink:href="#shape0"/>
  </g>
  <defs>
    <g id="shape0" transform="matrix(1.0, 0.0, 0.0, 1.0, 4.0, 43.15)">
      <path d="M2.65 -39.9 L2.75 -39.7 Q0.35 -11.3 0.55 17.35 L0.05 17.35 Q-0.15 -9.1 2.65 -39.9" fill="#acaba8" fill-rule="evenodd" stroke="none"/>
      <path d="M2.75 -39.7 L2.65 -39.9 1.8 -40.65 Q2.25 -41.75 3.05 -42.55 L3.8 -43.15 2.75 -39.7" fill="#999895" fill-rule="evenodd" stroke="none"/>
      <path d="M0.55 17.35 Q0.35 -11.3 2.75 -39.7 L3.8 -43.15 3.5 -39.8 Q1.15 -11.05 1.25 17.35 L0.55 17.35" fill="#ebebeb" fill-rule="evenodd" stroke="none"/>
      <path d="M2.65 -39.9 Q-0.15 -9.1 0.05 17.35 L-1.3 17.35 Q-1.35 4.2 -0.75 -8.95 0.0 -22.75 1.65 -39.6 L1.8 -40.65 2.65 -39.9" fill="#c8c7c5" fill-rule="evenodd" stroke="none"/>
      <path d="M0.05 17.35 L0.55 17.35 0.6 20.75 0.05 20.75 0.05 17.35" fill="#b29750" fill-rule="evenodd" stroke="none"/>
      <path d="M-1.3 17.35 L0.05 17.35 0.05 20.75 -0.35 20.75 -0.65 20.75 -1.25 20.75 -1.3 17.35 M0.6 20.75 L0.55 17.35 1.25 17.35 1.35 20.75 1.3 20.75 0.6 20.75" fill="#dec376" fill-rule="evenodd" stroke="none"/>
      <path d="M1.3 42.4 L1.3 43.1 Q-0.1 43.95 -1.3 43.1 L-1.3 42.4 1.3 42.4" fill="#908d6c" fill-rule="evenodd" stroke="none"/>
      <path d="M-1.3 42.4 L-1.3 21.3 1.3 21.3 1.3 42.4 -1.3 42.4" fill="#151a16" fill-rule="evenodd" stroke="none"/>
      <path d="M0.0 39.85 L-0.75 39.1 0.0 38.35 0.75 39.1 0.0 39.85" fill="#d8caad" fill-rule="evenodd" stroke="none"/>
      <path d="M0.8 37.05 L0.05 37.8 -0.7 37.05 0.0 36.3 0.8 37.05" fill="#d8caad" fill-rule="evenodd" stroke="none"/>
      <path d="M0.05 35.7 L-0.7 34.95 0.0 34.2 0.8 34.95 0.05 35.7" fill="#d8caad" fill-rule="evenodd" stroke="none"/>
      <path d="M0.8 32.9 L0.05 33.65 -0.7 32.9 0.0 32.15 0.8 32.9" fill="#d8caad" fill-rule="evenodd" stroke="none"/>
      <path d="M0.8 30.85 L0.05 31.6 -0.7 30.85 0.0 30.1 0.8 30.85" fill="#d8caad" fill-rule="evenodd" stroke="none"/>
      <path d="M0.05 29.55 L-0.7 28.8 0.0 28.05 0.8 28.8 0.05 29.55" fill="#d8caad" fill-rule="evenodd" stroke="none"/>
      <path d="M0.8 26.75 L0.05 27.5 -0.7 26.75 0.0 26.0 0.8 26.75" fill="#d8caad" fill-rule="evenodd" stroke="none"/>
      <path d="M0.05 25.45 L-0.7 24.65 0.0 23.95 0.8 24.7 0.05 25.45" fill="#d8caad" fill-rule="evenodd" stroke="none"/>
      <path d="M0.8 22.6 L0.05 23.3 -0.7 22.55 0.0 21.85 0.8 22.6" fill="#d8caad" fill-rule="evenodd" stroke="none"/>
      <path d="M0.75 41.1 L0.0 41.85 -0.75 41.1 0.0 40.35 0.75 41.1" fill="#d8caad" fill-rule="evenodd" stroke="none"/>
      <path d="M4.0 21.0 L4.0 21.5 -4.0 21.5 -4.0 21.0 4.0 21.0" fill="#d8caad" fill-rule="evenodd" stroke="none"/>
      <path d="M-4.0 21.0 L-4.0 20.5 4.0 20.5 4.0 21.0 -4.0 21.0" fill="#908d6c" fill-rule="evenodd" stroke="none"/>
    </g>
  </defs>
</svg>
