<?xml version="1.0" encoding="UTF-8" standalone="no"?>
<svg xmlns:ffdec="https://www.free-decompiler.com/flash" xmlns:xlink="http://www.w3.org/1999/xlink" ffdec:objectType="frame" height="53.95px" width="21.45px" xmlns="http://www.w3.org/2000/svg">
  <g transform="matrix(1.0, 0.0, 0.0, 1.0, 10.2, 26.6)">
    <use ffdec:characterId="1738" height="53.95" transform="matrix(1.0, 0.0, 0.0, 1.0, -10.2, -26.6)" width="21.35" xlink:href="#shape0"/>
  </g>
  <defs>
    <g id="shape0" transform="matrix(1.0, 0.0, 0.0, 1.0, 10.2, 26.6)">
      <path d="M5.1 -24.85 L3.35 -26.1 2.1 -26.3 -1.25 -25.8 -1.55 -25.4 -3.0 -24.9 -3.15 -25.2 -2.2 -25.7 -2.1 -25.7 Q0.5 -26.85 3.45 -26.5 L4.5 -26.05 Q6.6 -25.25 8.3 -23.85 9.5 -22.6 10.15 -21.05 L10.9 -18.1 Q11.35 -16.0 11.05 -13.35 L10.5 -8.7 10.05 -5.4 9.95 -4.2 9.75 -4.15 Q9.6 3.4 8.95 4.95 L9.0 5.75 9.25 8.7 9.05 9.05 8.55 9.2 7.4 8.5 5.5 7.25 5.9 6.35 6.25 5.1 Q6.25 4.45 5.3 3.45 L5.1 3.2 Q3.0 2.25 3.0 2.05 L3.6 1.2 4.55 1.0 4.55 0.95 Q4.55 -0.55 5.3 -1.8 L7.1 -2.15 7.2 -2.85 7.25 -4.1 6.2 -6.6 7.1 -6.6 9.3 -12.65 8.75 -15.9 Q9.25 -16.1 9.2 -16.75 L9.5 -17.75 9.15 -19.4 7.95 -19.9 7.95 -21.7 6.05 -24.3 5.1 -24.85 M-8.9 -17.5 L-8.85 -17.45 -9.2 -10.4 -9.2 -9.5 -9.25 -10.15 -9.25 -13.45 -9.05 -16.35 -8.9 -17.5 M-8.9 -0.55 L-8.85 -0.55 -8.9 -0.5 -8.9 -0.55" fill="#d7d3d0" fill-rule="evenodd" stroke="none"/>
      <path d="M5.3 -1.8 Q4.55 -0.55 4.55 0.95 L4.55 1.0 3.6 1.2 3.3 1.3 3.1 1.4 3.0 1.45 2.85 1.55 3.4 -0.4 3.0 -1.55 2.7 -2.0 2.0 -2.65 Q1.2 -3.2 0.15 -3.25 L-0.1 -3.0 -0.2 -3.1 -0.8 -3.55 -0.85 -3.85 -0.85 -3.95 1.3 -4.3 2.6 -4.0 3.3 -4.0 4.15 -2.5 4.4 -1.65 5.3 -1.8 M-8.85 -17.45 L-8.55 -16.45 -7.75 -15.15 -8.5 -14.55 -8.65 -11.95 -8.2 -11.05 -8.4 -9.7 -8.85 -9.25 -8.45 -6.8 -7.05 -5.0 -6.85 -4.7 -6.15 -4.15 -5.95 -4.15 -4.4 -3.55 -4.35 -3.45 -5.15 -2.85 -5.15 -1.35 -5.1 -0.95 -4.6 0.15 -4.0 1.15 -4.65 2.65 -2.8 4.35 -2.8 4.5 -2.8 4.6 -4.95 4.65 -5.8 4.75 -5.75 4.0 -5.95 2.95 -6.05 2.65 Q-6.15 2.15 -6.4 1.75 L-6.4 1.25 -7.05 0.4 -7.5 -0.2 -7.6 -0.25 -7.7 -0.3 -7.75 -0.35 -7.85 -0.35 -8.85 -0.55 -8.9 -0.55 -9.05 -0.6 -9.25 -0.6 -9.35 -1.2 -9.35 -1.25 -10.2 -2.9 -10.05 -3.2 -10.0 -3.25 -9.75 -3.5 -9.5 -3.9 -9.25 -4.2 -9.25 -4.3 -9.05 -5.0 -9.2 -9.5 -9.2 -10.4 -8.85 -17.45" fill="#bbb4ae" fill-rule="evenodd" stroke="none"/>
      <path d="M3.6 1.2 L3.0 2.05 Q3.0 2.25 5.1 3.2 L5.3 3.45 Q6.25 4.45 6.25 5.1 L5.9 6.35 5.5 7.25 7.4 8.5 7.25 9.25 7.2 9.5 7.0 9.55 6.4 9.45 6.25 9.5 5.95 9.4 5.65 9.4 Q5.1 9.4 4.45 6.95 L3.75 4.8 Q2.65 3.7 1.65 3.35 L0.0 3.55 0.05 3.15 -0.35 2.4 -0.2 1.8 Q-0.3 0.95 -0.8 0.55 L0.5 0.2 1.05 -0.35 1.1 -1.1 0.8 -1.8 0.75 -1.85 -0.1 -3.0 0.15 -3.25 Q1.2 -3.2 2.0 -2.65 L2.7 -2.0 3.0 -1.55 3.4 -0.4 2.85 1.55 3.0 1.45 3.1 1.45 3.1 1.4 3.3 1.3 3.6 1.2 M-7.7 -0.3 L-7.6 -0.25 -7.5 -0.2 -7.05 0.4 -6.4 1.25 -6.4 1.75 Q-6.15 2.15 -6.05 2.65 L-5.95 2.95 -5.75 4.0 -5.8 4.75 -4.95 4.65 -2.8 4.6 -2.8 4.5 -2.8 4.35 -2.2 4.9 -1.35 4.6 -2.0 5.65 -2.15 5.8 -2.3 6.1 -3.1 8.35 -3.1 8.9 -3.2 9.8 -2.55 11.25 -1.3 13.7 -1.4 14.15 -1.75 14.25 -4.0 11.65 Q-5.55 9.75 -5.55 8.65 -5.6 7.85 -6.4 5.5 L-6.5 5.2 -7.45 3.95 Q-7.75 3.25 -7.75 0.5 L-7.75 0.45 -7.75 0.1 -7.7 -0.3" fill="#ebbb98" fill-rule="evenodd" stroke="none"/>
      <path d="M5.1 -24.85 L6.05 -24.3 7.95 -21.7 7.95 -19.9 7.05 -19.05 6.55 -20.85 6.85 -21.7 5.25 -23.25 5.5 -23.7 5.1 -24.85 M-3.0 -24.9 L-1.55 -25.4 -1.0 -23.7 -2.4 -23.55 -2.9 -24.1 -3.0 -24.9 M-5.25 -20.55 L-6.1 -18.55 -8.3 -19.8 -8.25 -19.95 -8.05 -20.9 -8.05 -21.15 -7.8 -21.65 -7.6 -22.35 -7.25 -22.55 -7.25 -21.35 -7.2 -21.3 -5.75 -20.35 -5.25 -20.55 M3.0 1.45 L3.1 1.4 3.1 1.45 3.0 1.45 M0.0 3.55 L1.65 3.35 Q2.65 3.7 3.75 4.8 L4.45 6.95 Q5.1 9.4 5.65 9.4 L5.95 9.4 6.25 9.5 6.4 9.45 7.0 9.55 7.2 9.5 6.95 13.0 6.95 13.6 Q6.65 17.95 6.9 20.15 7.0 21.75 5.95 24.0 4.35 27.05 1.3 27.3 -1.85 27.6 -3.8 26.65 -5.35 25.0 -6.15 22.75 L-6.75 20.9 -7.3 14.2 -7.4 13.95 -7.4 11.75 -7.3 9.1 -7.3 8.0 -7.4 7.2 -7.5 6.9 -7.5 6.4 -7.8 1.6 -7.75 1.65 -7.8 0.85 -7.75 -0.35 -7.7 -0.3 -7.75 0.1 -7.75 0.45 -7.75 0.5 Q-7.75 3.25 -7.45 3.95 L-6.5 5.2 -6.4 5.5 Q-5.6 7.85 -5.55 8.65 -5.55 9.75 -4.0 11.65 L-1.75 14.25 -1.4 14.15 -1.3 13.7 -2.55 11.25 -3.2 9.8 -3.1 8.9 -3.1 8.35 -2.3 6.1 -2.15 5.8 -2.0 5.65 -1.35 4.6 -0.1 4.1 0.0 3.55 M-3.9 18.8 L-3.95 18.35 -4.0 18.35 -3.9 18.8" fill="#ffcc99" fill-rule="evenodd" stroke="none"/>
      <path d="M-1.55 -25.4 L-1.25 -25.8 2.1 -26.3 3.35 -26.1 5.1 -24.85 5.5 -23.7 5.25 -23.25 6.85 -21.7 6.55 -20.85 7.05 -19.05 7.95 -19.9 9.15 -19.4 9.5 -17.75 9.2 -16.75 Q8.9 -17.6 8.05 -17.85 L7.95 -17.9 7.3 -18.0 6.85 -18.05 7.55 -15.95 7.8 -15.1 7.65 -14.6 7.85 -13.9 7.25 -13.05 7.55 -11.95 6.7 -9.5 4.8 -8.2 5.6 -9.8 Q6.9 -12.95 6.5 -15.55 L5.95 -17.55 Q4.8 -20.1 1.7 -22.05 0.35 -23.0 -1.05 -22.95 L4.7 -19.5 0.9 -19.95 0.7 -20.35 -0.15 -20.6 -2.25 -20.5 -3.1 -19.9 -3.35 -19.9 -3.3 -19.8 -4.05 -18.2 Q-5.55 -14.95 -5.55 -11.3 L-6.75 -14.3 -7.75 -15.15 -8.55 -16.45 -8.85 -17.45 -8.9 -17.5 -9.15 -18.35 -8.75 -19.55 -8.75 -19.65 -8.6 -19.95 -8.55 -20.0 -8.25 -20.65 -8.05 -21.15 -8.05 -20.9 -8.25 -19.95 -8.3 -19.8 -6.1 -18.55 -5.25 -20.55 -2.55 -22.1 -2.4 -23.55 -1.0 -23.7 -1.55 -25.4 M6.2 -6.6 L7.25 -4.1 3.9 -5.3 4.15 -5.8 4.8 -6.4 5.7 -6.7 5.85 -6.65 6.2 -6.6 M-3.15 -25.2 L-3.0 -24.9 -2.9 -24.1 -3.8 -24.2 -4.3 -23.25 -5.4 -22.65 -6.6 -23.05 -7.2 -22.7 -7.1 -24.4 Q-5.35 -25.8 -3.3 -25.45 L-3.15 -25.2 M-2.1 -12.45 L-0.45 -11.15 0.9 -11.6 2.6 -12.65 3.0 -16.75 Q3.65 -15.6 3.4 -14.3 3.1 -12.8 2.25 -11.85 L0.9 -10.65 1.45 -10.55 3.45 -11.85 5.55 -13.55 Q4.8 -10.15 2.45 -8.7 L2.25 -8.6 Q1.55 -8.25 0.7 -8.0 -1.9 -7.8 -4.45 -8.8 L-4.3 -11.5 -4.25 -11.7 -2.85 -11.6 -2.1 -12.45 M-1.1 -5.0 L-0.85 -3.95 -0.85 -3.85 -0.8 -3.55 -0.2 -3.1 -0.1 -3.0 0.75 -1.85 -5.1 -0.95 -5.15 -1.35 -5.15 -2.85 -4.35 -3.45 -4.4 -3.55 -2.75 -4.0 -2.65 -4.95 -4.15 -6.0 Q-6.3 -7.65 -7.4 -10.2 L-6.55 -9.85 -5.35 -9.85 Q-4.55 -9.25 -4.2 -7.8 L-2.7 -7.35 -1.95 -6.9 Q-1.1 -6.75 -1.0 -5.95 L-1.1 -5.35 -1.15 -5.2 -1.1 -5.0 M-0.8 0.55 Q-0.3 0.95 -0.2 1.8 L-0.35 2.4 -1.0 2.6 -2.6 2.1 -3.2 1.0 -3.15 0.9 -0.8 0.55" fill="#ff0000" fill-rule="evenodd" stroke="none"/>
      <path d="M-3.3 -19.8 L-3.35 -19.9 -3.1 -19.9 -0.15 -20.6 0.7 -20.35 0.9 -19.95 0.85 -19.1 Q2.0 -17.15 1.75 -14.7 L1.45 -13.25 0.65 -13.0 0.05 -13.35 -0.25 -13.9 -2.6 -17.95 -3.3 -19.8" fill="#ffffff" fill-rule="evenodd" stroke="none"/>
      <path d="M9.2 -16.75 Q9.25 -16.1 8.75 -15.9 L8.0 -16.2 7.55 -15.95 6.85 -18.05 7.3 -18.0 7.95 -17.9 8.05 -17.85 Q8.9 -17.6 9.2 -16.75 M7.25 -4.1 L7.2 -2.85 4.15 -2.5 3.3 -4.0 3.55 -4.4 3.9 -5.3 7.25 -4.1 M-2.4 -23.55 L-2.55 -22.1 -5.25 -20.55 -5.75 -20.35 -7.2 -21.3 -7.25 -21.35 -7.25 -22.55 -7.2 -22.7 -6.6 -23.05 -5.4 -22.65 -4.3 -23.25 -3.8 -24.2 -2.9 -24.1 -2.4 -23.55 M-5.55 -11.3 Q-5.55 -14.95 -4.05 -18.2 L-3.3 -19.8 -2.6 -17.95 -3.1 -18.45 -3.6 -18.5 -4.25 -11.7 -4.3 -11.5 -4.45 -8.8 Q-1.9 -7.8 0.7 -8.0 1.55 -8.25 2.25 -8.6 L2.45 -8.7 Q4.8 -10.15 5.55 -13.55 L3.45 -11.85 1.45 -10.55 0.9 -10.65 2.25 -11.85 Q3.1 -12.8 3.4 -14.3 3.65 -15.6 3.0 -16.75 L2.6 -12.65 0.9 -11.6 -0.45 -11.15 -2.1 -12.45 -1.5 -13.25 -0.85 -13.2 -0.25 -13.9 0.05 -13.35 0.65 -13.0 1.45 -13.25 1.75 -14.7 Q2.0 -17.15 0.85 -19.1 L0.9 -19.95 4.7 -19.5 -1.05 -22.95 Q0.35 -23.0 1.7 -22.05 4.8 -20.1 5.95 -17.55 L6.5 -15.55 Q6.9 -12.95 5.6 -9.8 L4.8 -8.2 2.45 -6.15 1.55 -5.65 0.3 -5.25 -1.1 -5.0 -1.15 -5.2 -1.1 -5.35 -1.0 -5.95 Q-1.1 -6.75 -1.95 -6.9 L-2.7 -7.35 -4.2 -7.8 Q-4.55 -9.25 -5.35 -9.85 L-5.15 -10.35 -5.55 -11.3 M-3.1 -19.9 L-2.25 -20.5 -0.15 -20.6 -3.1 -19.9 M0.75 -1.85 L0.8 -1.8 1.1 -1.1 1.05 -0.35 0.5 0.2 -0.8 0.55 -3.15 0.9 -3.25 0.9 -3.2 1.0 -2.6 2.1 -1.0 2.6 -2.15 3.5 -4.0 1.15 -4.6 0.15 -5.1 -0.95 0.75 -1.85 M-7.4 -10.2 Q-6.3 -7.65 -4.15 -6.0 L-2.65 -4.95 -2.75 -4.0 -4.4 -3.55 -5.95 -4.15 -6.15 -4.15 -6.85 -4.7 -7.05 -5.0 -8.45 -6.8 -8.85 -9.25 -8.4 -9.7 -7.4 -10.2" fill="#990000" fill-rule="evenodd" stroke="none"/>
      <path d="M8.75 -15.9 L9.3 -12.65 7.1 -6.6 6.2 -6.6 5.85 -6.65 5.7 -6.7 4.8 -6.4 4.15 -5.8 3.9 -5.3 3.55 -4.4 3.3 -4.0 2.6 -4.0 1.3 -4.3 -0.85 -3.95 -1.1 -5.0 0.3 -5.25 1.55 -5.65 2.45 -6.15 4.8 -8.2 6.7 -9.5 7.55 -11.95 7.25 -13.05 7.85 -13.9 7.65 -14.6 7.8 -15.1 7.55 -15.95 8.0 -16.2 8.75 -15.9 M-7.75 -15.15 L-6.75 -14.3 -5.55 -11.3 -5.15 -10.35 -5.35 -9.85 -6.55 -9.85 -7.4 -10.2 -8.4 -9.7 -8.2 -11.05 -8.65 -11.95 -8.5 -14.55 -7.75 -15.15" fill="#a93f2c" fill-rule="evenodd" stroke="none"/>
      <path d="M7.2 -2.85 L7.1 -2.15 5.3 -1.8 4.4 -1.65 4.15 -2.5 7.2 -2.85 M-0.35 2.4 L0.05 3.15 0.0 3.55 -0.1 4.1 -1.35 4.6 -2.2 4.9 -2.8 4.35 -4.65 2.65 -4.0 1.15 -2.15 3.5 -1.0 2.6 -0.35 2.4" fill="#834753" fill-rule="evenodd" stroke="none"/>
      <path d="M-2.1 -12.45 L-2.85 -11.6 -4.25 -11.7 -3.6 -18.5 -3.1 -18.45 -2.6 -17.95 -0.25 -13.9 -0.85 -13.2 -1.5 -13.25 -2.1 -12.45" fill="#650101" fill-rule="evenodd" stroke="none"/>
      <path d="M-3.15 0.9 L-3.2 1.0 -3.25 0.9 -3.15 0.9" fill="#666633" fill-rule="evenodd" stroke="none"/>
    </g>
  </defs>
</svg>
