<?xml version="1.0" encoding="UTF-8" standalone="no"?>
<svg xmlns:ffdec="https://www.free-decompiler.com/flash" xmlns:xlink="http://www.w3.org/1999/xlink" ffdec:objectType="frame" height="53.95px" width="21.45px" xmlns="http://www.w3.org/2000/svg">
  <g transform="matrix(1.0, 0.0, 0.0, 1.0, 10.2, 26.6)">
    <use ffdec:characterId="1740" height="48.45" transform="matrix(1.0, 0.0, 0.0, 1.0, -10.05, -26.55)" width="21.3" xlink:href="#shape0"/>
  </g>
  <defs>
    <g id="shape0" transform="matrix(1.0, 0.0, 0.0, 1.0, 10.05, 26.55)">
      <path d="M-3.15 -25.2 Q-0.8 -26.45 2.05 -26.55 L4.4 -25.8 Q6.4 -24.95 8.0 -23.5 9.2 -22.45 9.95 -20.9 L10.7 -19.0 Q11.5 -16.25 11.15 -13.35 L10.6 -8.7 9.95 -4.1 9.7 -0.7 Q9.65 2.25 8.95 4.95 8.95 6.6 9.25 8.35 9.35 8.85 8.9 9.2 L7.4 8.5 7.3 8.4 7.15 7.85 Q7.8 5.95 6.05 5.0 L6.0 4.85 5.7 4.0 5.05 3.25 4.75 1.25 4.65 0.5 5.1 -1.75 7.1 -2.15 7.2 -2.85 7.25 -4.1 6.2 -6.6 5.9 -6.65 6.15 -8.0 6.5 -9.35 6.7 -9.5 7.55 -11.95 7.45 -12.35 7.65 -12.95 8.2 -15.3 8.3 -16.05 8.75 -15.9 9.05 -16.25 9.2 -16.75 9.35 -17.75 9.15 -19.4 7.95 -19.9 7.95 -21.7 5.9 -24.15 5.1 -24.85 2.05 -25.95 -1.25 -25.8 -1.55 -25.4 -3.0 -24.9 -3.15 -25.2 M-8.85 -0.55 L-8.9 -0.55 -8.85 -0.55 M-9.2 -9.5 L-9.15 -13.45 -8.85 -17.6 -9.2 -9.5" fill="#d7d3d0" fill-rule="evenodd" stroke="none"/>
      <path d="M8.3 -16.05 L8.2 -15.3 7.65 -12.95 7.45 -12.35 7.25 -13.05 7.85 -13.9 7.65 -14.6 7.8 -15.1 7.55 -15.95 8.0 -16.2 8.3 -16.05 M6.5 -9.35 L6.15 -8.0 5.9 -6.65 5.7 -6.7 Q4.4 -6.5 3.9 -5.3 L3.3 -4.0 4.15 -2.5 4.4 -1.65 5.1 -1.75 4.65 0.5 4.25 -1.0 3.7 -2.1 2.2 -2.6 2.15 -2.55 Q1.35 -3.15 0.35 -3.2 L-0.25 -5.15 0.3 -5.25 Q3.0 -6.05 4.8 -8.2 L6.5 -9.35 M-7.75 -0.35 L-8.85 -0.55 -8.9 -0.55 Q-9.6 -0.55 -9.65 -1.2 L-9.85 -2.35 -10.05 -3.2 Q-9.5 -3.6 -9.25 -4.3 L-9.15 -5.0 -9.2 -9.5 -8.85 -17.6 -8.85 -17.7 -7.65 -15.2 -5.55 -11.3 -5.15 -10.35 -5.35 -9.85 -6.55 -9.85 -7.4 -10.2 -8.4 -9.7 -8.85 -9.25 -7.1 -5.0 Q-6.8 -4.25 -5.95 -4.15 L-4.5 -3.6 -5.15 -2.85 -5.1 -0.95 -3.75 1.65 -4.8 4.3 -4.95 4.7 -5.8 4.75 Q-5.6 3.7 -6.1 2.65 -6.45 1.95 -6.4 1.25 L-7.7 -0.3 -7.75 -0.35" fill="#bbb4ae" fill-rule="evenodd" stroke="none"/>
      <path d="M5.05 3.25 L5.7 4.0 6.0 4.85 6.05 5.0 6.0 5.0 5.2 4.6 5.05 3.25 M7.3 8.4 L7.4 8.5 7.35 8.7 7.3 8.4 M7.3 9.1 L7.2 9.5 7.0 9.5 7.3 9.1 M2.15 -2.55 L1.05 -2.1 0.55 -2.5 0.35 -3.2 Q1.35 -3.15 2.15 -2.55 M1.25 2.25 L-0.15 3.7 -0.5 3.75 -0.95 2.6 -0.35 2.4 -0.35 1.1 0.15 0.4 Q0.25 0.25 0.45 0.2 L0.45 0.5 0.35 1.0 0.35 1.5 0.45 1.35 1.25 2.25 M-7.7 -0.3 L-6.4 1.25 Q-6.45 1.95 -6.1 2.65 -5.6 3.7 -5.8 4.75 L-4.95 4.7 Q-5.55 6.2 -5.5 7.75 L-5.45 8.65 -5.25 9.35 -4.75 9.65 -5.05 10.05 -5.6 8.2 Q-5.85 6.6 -6.6 5.25 L-7.3 3.9 -7.6 2.75 -7.7 -0.3" fill="#ebbb98" fill-rule="evenodd" stroke="none"/>
      <path d="M-3.0 -24.9 L-1.55 -25.4 -1.0 -23.7 -2.4 -23.55 -2.9 -24.1 -3.0 -24.9 M5.1 -24.85 L5.9 -24.15 7.95 -21.7 7.95 -19.9 7.05 -19.05 6.55 -20.85 6.85 -21.7 5.25 -23.25 5.5 -23.7 5.5 -23.75 5.1 -24.85 M7.2 9.5 L7.15 14.25 5.5 12.25 5.2 12.7 4.5 12.15 4.4 11.05 4.35 10.4 2.05 9.4 2.65 7.1 2.65 7.25 Q2.95 8.65 4.2 9.4 L6.9 9.6 7.0 9.5 7.2 9.5 M-7.3 9.8 Q-7.35 5.7 -7.7 1.6 L-7.75 -0.35 -7.7 -0.3 -7.6 2.75 -7.3 3.9 -6.6 5.25 Q-5.85 6.6 -5.6 8.2 L-5.05 10.05 -6.0 11.2 -5.75 12.55 -6.1 12.65 -6.45 11.05 Q-6.45 10.55 -6.6 10.2 -6.8 9.85 -7.05 9.85 L-7.3 9.8 M-8.05 -21.15 L-7.8 -21.65 -7.25 -22.55 -7.25 -21.35 -5.75 -20.35 -5.25 -20.55 -6.1 -18.55 -8.3 -19.8 -8.3 -19.85 -8.05 -21.15 M-0.15 3.7 L-0.45 3.95 -0.5 3.75 -0.15 3.7" fill="#ffcc99" fill-rule="evenodd" stroke="none"/>
      <path d="M-3.15 -25.2 L-3.0 -24.9 -2.9 -24.1 -3.8 -24.2 -4.3 -23.25 -5.4 -22.65 -6.6 -23.05 -7.2 -22.7 -7.1 -24.4 Q-5.4 -25.6 -3.3 -25.45 L-3.15 -25.2 M-1.55 -25.4 L-1.25 -25.8 2.05 -25.95 5.1 -24.85 5.5 -23.75 5.5 -23.7 5.25 -23.25 6.85 -21.7 6.55 -20.85 7.05 -19.05 7.95 -19.9 9.15 -19.4 9.35 -17.75 9.2 -16.75 Q8.85 -17.6 8.15 -17.85 L7.95 -17.9 6.85 -18.05 7.55 -15.95 7.8 -15.1 7.65 -14.6 7.85 -13.9 7.25 -13.05 7.45 -12.35 7.55 -11.95 6.7 -9.5 6.5 -9.35 4.8 -8.2 5.5 -9.85 6.25 -12.5 6.4 -15.05 5.85 -17.25 4.7 -19.5 4.65 -19.5 0.9 -19.95 0.7 -20.35 -0.15 -20.6 -2.25 -20.5 -3.1 -19.9 -3.35 -19.9 -3.3 -19.8 -4.6 -16.5 Q-5.6 -13.95 -5.55 -11.3 L-7.65 -15.2 -8.85 -17.7 -9.15 -18.35 -8.05 -21.15 -8.3 -19.85 -8.3 -19.8 -6.1 -18.55 -5.25 -20.55 -2.55 -22.1 -2.4 -23.55 -1.0 -23.7 -1.55 -25.4 M5.9 -6.65 L6.2 -6.6 7.25 -4.1 3.9 -5.3 Q4.4 -6.5 5.7 -6.7 L5.9 -6.65 M4.65 0.5 L4.75 1.25 0.95 0.0 0.55 0.3 0.5 -0.1 -0.2 -0.4 Q-0.55 -0.5 -0.75 -0.7 L-1.5 -1.15 -3.2 -1.9 -3.95 -1.3 -4.05 -1.25 -3.95 -1.1 -5.1 -0.95 -5.15 -2.85 -4.5 -3.6 Q-3.65 -4.65 -2.4 -4.05 L-0.25 -2.95 0.55 -2.5 1.05 -2.1 2.15 -2.55 2.2 -2.6 3.7 -2.1 4.25 -1.0 4.65 0.5 M6.05 5.0 Q7.8 5.95 7.15 7.85 L5.75 6.85 4.85 6.5 4.55 6.4 Q3.55 6.1 2.75 6.7 3.05 5.65 3.85 5.0 L4.6 4.45 5.2 4.6 6.0 5.0 6.05 5.0 M7.15 14.25 L7.2 15.75 3.7 15.35 3.2 17.45 2.8 17.75 2.75 17.75 2.8 17.8 3.0 21.15 1.5 21.3 0.6 20.0 2.95 14.0 2.3 12.3 2.75 11.25 3.4 11.75 4.4 11.05 4.5 12.15 5.2 12.7 5.5 12.25 7.15 14.25 M-1.5 17.45 L-1.9 16.8 Q-2.9 15.65 -4.4 15.15 L-3.3 13.65 -2.6 13.8 -1.95 15.85 -1.05 14.35 -1.5 17.45 M-7.75 13.7 L-8.1 10.45 Q-8.1 9.8 -7.45 9.8 L-7.3 9.8 -7.05 9.85 Q-6.8 9.85 -6.6 10.2 -6.45 10.55 -6.45 11.05 L-7.25 12.05 -7.35 12.1 -7.25 12.6 -7.2 13.0 -7.3 13.6 -7.75 13.7 M-2.1 -12.45 L-0.45 -11.15 2.6 -12.65 3.0 -16.75 Q3.75 -15.7 3.45 -14.3 2.95 -11.95 0.9 -10.65 L1.45 -10.55 5.55 -13.55 Q5.2 -11.05 3.2 -9.25 2.1 -8.25 0.7 -8.0 -1.95 -7.75 -4.45 -8.8 L-4.25 -11.7 -2.85 -11.6 -2.1 -12.45 M0.3 -22.55 L-1.05 -22.95 4.65 -19.5 Q2.85 -21.65 0.3 -22.55 M-0.95 2.6 L-1.05 2.35 -0.35 1.1 -0.35 2.4 -0.95 2.6 M-4.8 4.3 L-2.3 3.55 -0.75 5.1 -1.5 5.25 -1.9 5.35 Q-4.55 6.1 -5.45 8.65 L-5.5 7.75 Q-5.55 6.2 -4.95 4.7 L-4.8 4.3 M0.2 10.5 L-1.35 11.25 -1.85 12.25 -1.9 12.35 -2.95 12.65 -4.25 12.5 -4.25 11.2 -2.1 9.55 -1.9 8.95 -1.1 8.55 0.2 9.2 0.2 10.5 M-5.35 -9.85 Q-4.7 -9.15 -4.4 -8.45 L-4.2 -7.8 Q-3.15 -7.55 -2.25 -7.1 -1.3 -6.7 -1.0 -5.95 L-1.5 -5.9 Q-2.65 -6.15 -3.5 -5.5 -6.05 -7.25 -7.4 -10.2 L-6.55 -9.85 -5.35 -9.85" fill="#ff0000" fill-rule="evenodd" stroke="none"/>
      <path d="M2.8 17.75 L2.8 17.8 2.75 17.75 2.8 17.75 M1.5 21.3 Q0.9 21.9 0.2 21.85 -1.2 22.05 -1.8 20.7 L-1.5 18.25 -1.5 17.45 -1.05 14.35 -1.05 13.6 1.3 11.55 1.4 12.1 1.5 13.15 2.3 12.3 2.95 14.0 0.6 20.0 1.5 21.3 M0.9 -19.95 L0.85 -19.1 Q2.5 -16.35 1.45 -13.25 L0.65 -13.0 0.05 -13.35 -0.25 -13.9 -2.6 -17.95 -3.3 -19.8 -3.35 -19.9 -3.1 -19.9 -0.15 -20.6 0.7 -20.35 0.9 -19.95" fill="#ffffff" fill-rule="evenodd" stroke="none"/>
      <path d="M9.2 -16.75 L9.05 -16.25 8.75 -15.9 8.3 -16.05 8.0 -16.2 7.55 -15.95 6.85 -18.05 7.95 -17.9 8.15 -17.85 Q8.85 -17.6 9.2 -16.75 M7.25 -4.1 L7.2 -2.85 4.15 -2.5 3.3 -4.0 3.9 -5.3 7.25 -4.1 M7.15 7.85 L7.3 8.4 7.35 8.7 7.4 8.9 7.3 9.1 7.0 9.5 6.9 9.6 4.2 9.4 Q2.95 8.65 2.65 7.25 L2.65 7.1 2.75 6.7 Q3.55 6.1 4.55 6.4 L4.85 6.5 5.75 6.85 7.15 7.85 M-4.4 15.15 L-6.55 16.4 -6.85 16.2 Q-7.6 15.05 -7.75 13.7 L-7.3 13.6 -7.2 13.0 -7.25 12.6 -7.35 12.1 -7.25 12.05 -6.45 11.05 -6.1 12.65 -5.75 12.55 -4.8 13.05 -4.25 12.5 -2.95 12.65 -2.6 13.8 -3.3 13.65 -4.4 15.15 M-7.25 -22.55 L-7.2 -22.7 -6.6 -23.05 -5.4 -22.65 -4.3 -23.25 -3.8 -24.2 -2.9 -24.1 -2.4 -23.55 -2.55 -22.1 -5.25 -20.55 -5.75 -20.35 -7.25 -21.35 -7.25 -22.55 M-0.25 -13.9 L0.05 -13.35 0.65 -13.0 1.45 -13.25 Q2.5 -16.35 0.85 -19.1 L0.9 -19.95 4.65 -19.5 4.7 -19.5 5.85 -17.25 6.4 -15.05 6.25 -12.5 5.5 -9.85 4.8 -8.2 Q3.0 -6.05 0.3 -5.25 L-0.25 -5.15 0.35 -3.2 0.55 -2.5 -0.25 -2.95 -2.4 -4.05 Q-3.65 -4.65 -4.5 -3.6 L-5.95 -4.15 Q-6.8 -4.25 -7.1 -5.0 L-8.85 -9.25 -8.4 -9.7 -7.4 -10.2 Q-6.05 -7.25 -3.5 -5.5 -2.65 -6.15 -1.5 -5.9 L-1.0 -5.95 Q-1.3 -6.7 -2.25 -7.1 -3.15 -7.55 -4.2 -7.8 L-4.4 -8.45 Q-4.7 -9.15 -5.35 -9.85 L-5.15 -10.35 -5.55 -11.3 Q-5.6 -13.95 -4.6 -16.5 L-3.3 -19.8 -2.6 -17.95 -3.1 -18.45 -3.6 -18.5 -4.25 -11.7 -4.45 -8.8 Q-1.95 -7.75 0.7 -8.0 2.1 -8.25 3.2 -9.25 5.2 -11.05 5.55 -13.55 L1.45 -10.55 0.9 -10.65 Q2.95 -11.95 3.45 -14.3 3.75 -15.7 3.0 -16.75 L2.6 -12.65 -0.45 -11.15 -2.1 -12.45 -1.5 -13.25 -0.85 -13.2 -0.25 -13.9 M-0.15 -20.6 L-3.1 -19.9 -2.25 -20.5 -0.15 -20.6 M0.3 -22.55 Q2.85 -21.65 4.65 -19.5 L-1.05 -22.95 0.3 -22.55 M-5.1 -0.95 L-3.95 -1.1 -4.05 -1.25 -3.95 -1.3 -3.2 -1.9 -1.5 -1.15 -0.75 -0.7 Q-0.55 -0.5 -0.2 -0.4 L0.5 -0.1 0.45 0.2 Q0.25 0.25 0.15 0.4 L-0.35 1.1 -1.05 2.35 -1.15 2.4 -1.5 2.3 -1.9 1.75 -3.75 1.65 -5.1 -0.95 M0.55 0.3 L0.95 0.0 4.75 1.25 4.6 1.3 Q4.45 1.65 4.45 2.05 L3.8 2.55 1.25 2.25 0.45 1.35 0.35 1.0 0.45 0.5 0.55 0.3 M-0.75 5.1 L1.3 6.9 1.5 9.75 0.45 10.55 0.2 10.5 0.2 9.2 -1.1 8.55 -1.9 8.95 -2.85 8.15 -4.75 9.65 -5.25 9.35 -5.45 8.65 Q-4.55 6.1 -1.9 5.35 L-1.5 5.25 -0.75 5.1 M1.4 12.1 L2.05 9.4 4.35 10.4 4.4 11.05 3.4 11.75 2.75 11.25 2.3 12.3 1.5 13.15 1.4 12.1" fill="#990000" fill-rule="evenodd" stroke="none"/>
      <path d="M7.2 -2.85 L7.1 -2.15 5.1 -1.75 4.4 -1.65 4.15 -2.5 7.2 -2.85" fill="#834753" fill-rule="evenodd" stroke="none"/>
      <path d="M4.75 1.25 L5.05 3.25 5.2 4.6 4.6 4.45 3.85 5.0 Q3.05 5.65 2.75 6.7 L2.65 7.1 2.05 9.4 1.4 12.1 1.3 11.55 -1.05 13.6 -1.05 14.35 -1.95 15.85 -2.6 13.8 -2.95 12.65 -1.9 12.35 -1.85 12.25 -1.35 11.25 0.2 10.5 0.45 10.55 1.5 9.75 1.3 6.9 -0.75 5.1 -2.3 3.55 -4.8 4.3 -3.75 1.65 -1.9 1.75 -1.5 2.3 -1.15 2.4 -1.05 2.35 -0.95 2.6 -0.5 3.75 -0.45 3.95 -0.15 3.7 1.25 2.25 3.8 2.55 4.45 2.05 Q4.45 1.65 4.6 1.3 L4.75 1.25 M-1.9 8.95 L-2.1 9.55 -4.25 11.2 -4.25 12.5 -4.8 13.05 -5.75 12.55 -6.0 11.2 -5.05 10.05 -4.75 9.65 -2.85 8.15 -1.9 8.95" fill="#a93f2c" fill-rule="evenodd" stroke="none"/>
      <path d="M0.5 -0.1 L0.55 0.3 0.45 0.5 0.45 0.2 0.5 -0.1 M0.35 1.0 L0.45 1.35 0.35 1.5 0.35 1.0" fill="#78783c" fill-rule="evenodd" stroke="none"/>
      <path d="M-2.6 -17.95 L-0.25 -13.9 -0.85 -13.2 -1.5 -13.25 -2.1 -12.45 -2.85 -11.6 -4.25 -11.7 -3.6 -18.5 -3.1 -18.45 -2.6 -17.95" fill="#650101" fill-rule="evenodd" stroke="none"/>
    </g>
  </defs>
</svg>
