<?xml version="1.0" encoding="UTF-8" standalone="no"?>
<svg xmlns:ffdec="https://www.free-decompiler.com/flash" xmlns:xlink="http://www.w3.org/1999/xlink" ffdec:objectType="frame" height="18.0px" width="18.0px" xmlns="http://www.w3.org/2000/svg">
  <g transform="matrix(1.0, 0.0, 0.0, 1.0, 0.0, 0.0)">
    <use ffdec:characterId="388" height="18.0" id="box" transform="matrix(1.0, 0.0, 0.0, 1.0, 0.0, 0.0)" width="18.0" xlink:href="#sprite0"/>
  </g>
  <defs>
    <g id="sprite0" transform="matrix(1.0, 0.0, 0.0, 1.0, 0.0, 0.0)">
      <use ffdec:characterId="387" height="18.0" transform="matrix(1.0, 0.0, 0.0, 1.0, 0.0, 0.0)" width="18.0" xlink:href="#shape0"/>
    </g>
    <g id="shape0" transform="matrix(1.0, 0.0, 0.0, 1.0, 0.0, 0.0)">
      <path d="M2.0 2.0 L16.0 2.0 16.0 16.0 2.0 16.0 2.0 2.0" fill="#ffffff" fill-rule="evenodd" stroke="none"/>
      <path d="M16.0 16.0 L18.0 18.0 0.0 18.0 2.0 16.0 16.0 16.0" fill="#e6e6e6" fill-rule="evenodd" stroke="none"/>
      <path d="M16.0 2.0 L18.0 0.0 18.0 18.0 16.0 16.0 16.0 2.0 M0.0 0.0 L2.0 2.0 2.0 16.0 0.0 18.0 0.0 0.0" fill="#b7b7b7" fill-rule="evenodd" stroke="none"/>
      <path d="M18.0 0.0 L16.0 2.0 2.0 2.0 0.0 0.0 18.0 0.0" fill="#8e8e8e" fill-rule="evenodd" stroke="none"/>
    </g>
  </defs>
</svg>
