<?xml version="1.0" encoding="UTF-8" standalone="no"?>
<svg xmlns:ffdec="https://www.free-decompiler.com/flash" xmlns:xlink="http://www.w3.org/1999/xlink" ffdec:objectType="frame" height="155.85px" width="277.1px" xmlns="http://www.w3.org/2000/svg">
  <g transform="matrix(1.0, 0.0, 0.0, 1.0, 0.0, 0.0)">
    <use ffdec:characterId="2860" height="155.85" transform="matrix(1.0, 0.0, 0.0, 1.0, 0.0, 0.0)" width="277.1" xlink:href="#shape0"/>
    <filter id="filter0">
      <feConvolveMatrix divisor="25.0" in="SourceGraphic" kernelMatrix="1 1 1 1 1 1 1 1 1 1 1 1 1 1 1 1 1 1 1 1 1 1 1 1 1" order="5 5" result="filterResult0"/>
      <feConvolveMatrix divisor="25.0" in="filterResult0" kernelMatrix="1 1 1 1 1 1 1 1 1 1 1 1 1 1 1 1 1 1 1 1 1 1 1 1 1" order="5 5" result="filterResult1"/>
      <feConvolveMatrix divisor="25.0" in="filterResult1" kernelMatrix="1 1 1 1 1 1 1 1 1 1 1 1 1 1 1 1 1 1 1 1 1 1 1 1 1" order="5 5" result="filterResult2"/>
    </filter>
    <use ffdec:characterId="2862" filter="url(#filter0)" height="119.35" transform="matrix(1.0, 0.0, 0.0, 1.0, 2.7, 0.0)" width="271.8" xlink:href="#sprite0"/>
  </g>
  <defs>
    <g id="shape0" transform="matrix(1.0, 0.0, 0.0, 1.0, 0.0, 0.0)">
      <path d="M59.55 99.5 L59.3 102.2 59.3 99.5 59.55 99.5 M213.45 6.6 L214.5 6.85 212.1 6.75 213.45 6.6 M114.9 10.2 L115.4 10.3 116.3 10.5 114.8 10.25 114.9 10.2 M60.7 119.8 L60.6 122.05 60.7 119.8" fill="#666682" fill-rule="evenodd" stroke="none"/>
      <path d="M2.95 10.0 Q3.6 8.65 6.2 8.1 L8.05 7.85 Q11.05 6.75 14.35 6.05 19.7 4.85 24.45 4.85 L29.15 5.8 48.45 6.75 65.15 3.75 66.05 3.8 Q76.7 3.95 84.5 2.1 L98.75 2.1 104.15 3.3 108.45 4.0 111.0 3.6 123.95 3.5 128.2 2.65 134.95 2.1 149.7 3.1 152.95 2.9 155.5 2.6 171.45 2.5 179.65 1.0 180.9 0.8 189.3 2.25 195.35 1.95 200.95 1.5 224.7 1.25 240.95 0.0 258.45 0.0 Q267.6 1.7 270.95 3.35 274.5 4.45 274.5 6.8 L274.45 7.9 274.4 8.05 274.25 8.3 273.35 8.5 Q271.7 7.35 269.25 6.2 264.4 3.85 255.95 3.85 L250.15 4.65 245.45 5.75 240.05 6.65 239.85 6.8 240.95 6.55 Q242.55 6.15 249.2 7.5 L249.7 7.85 249.05 8.3 251.1 7.7 262.2 8.0 250.45 9.35 243.1 9.15 239.7 9.25 235.55 9.75 227.7 9.0 228.2 8.25 229.25 8.2 227.55 8.15 225.2 8.6 Q222.15 8.6 217.55 7.6 L215.4 7.1 210.45 7.0 209.7 7.1 205.95 7.6 201.55 7.2 200.15 7.05 195.95 8.1 184.3 8.75 177.95 9.25 Q177.15 9.7 176.95 10.35 L176.45 11.35 Q175.3 12.2 167.1 12.25 L166.85 12.25 166.7 12.25 166.45 12.25 166.2 12.25 162.7 12.0 149.9 10.65 125.45 9.0 122.05 9.0 122.95 9.25 Q131.2 11.7 134.7 12.0 L129.3 12.25 Q124.3 12.25 116.95 10.65 L114.6 10.4 113.45 10.6 108.55 9.7 102.7 8.75 99.35 9.25 95.95 9.75 86.5 8.75 Q89.35 7.5 92.2 6.8 L90.25 6.6 81.75 6.6 70.4 8.75 Q61.3 10.35 57.45 10.35 L53.6 10.3 Q51.6 10.9 48.55 12.05 45.5 13.2 40.45 14.1 L39.65 14.05 Q38.35 14.55 37.95 15.1 L37.2 15.0 38.35 14.1 Q39.05 13.75 39.5 13.75 L39.65 13.9 44.4 12.2 Q48.2 10.6 48.95 10.35 L49.55 10.15 48.45 10.25 45.3 10.05 35.75 9.8 36.5 10.75 36.7 11.0 35.7 10.8 33.95 10.5 26.95 10.85 24.5 11.4 Q22.35 11.6 22.0 12.0 L21.2 12.0 22.35 10.1 23.3 8.75 15.5 8.45 Q14.55 9.4 13.15 9.7 10.7 10.25 9.7 11.0 L6.6 11.45 4.95 11.6 3.0 11.5 2.85 11.7 Q2.7 11.75 2.7 10.95 2.7 10.4 2.95 10.0 M266.7 8.6 Q271.85 8.6 273.35 10.85 L272.85 11.5 271.2 9.95 Q270.15 9.0 266.95 9.5 L266.85 9.3 266.7 8.6 M213.45 6.6 L212.1 6.75 214.5 6.85 213.45 6.6 M197.0 5.6 Q200.2 5.8 209.15 5.3 L197.45 4.1 191.35 4.75 197.0 5.8 197.0 5.6 M186.65 5.6 Q181.6 6.0 170.95 6.0 L156.45 5.0 152.45 5.35 152.2 5.5 Q153.75 6.0 156.8 7.35 L160.7 7.75 180.85 6.9 189.4 6.45 186.65 5.6 M174.95 14.95 L171.45 15.35 161.4 14.8 152.7 13.6 Q157.45 13.35 166.7 13.6 L175.45 12.6 181.95 12.35 184.0 13.85 Q183.95 14.5 182.0 14.5 L174.95 14.95 M233.25 105.1 L232.35 105.15 230.75 105.0 Q230.0 105.0 230.1 105.55 L230.2 106.1 Q230.0 105.75 230.0 104.0 L233.0 104.35 233.25 105.1 M229.45 110.85 Q227.95 111.7 227.6 111.6 L226.75 111.35 Q226.55 111.35 223.2 113.75 L221.75 113.65 221.2 113.5 Q222.15 113.4 223.3 112.15 L225.2 109.85 Q227.4 107.45 229.45 110.85 M114.9 10.2 L114.8 10.25 116.3 10.5 115.4 10.3 114.9 10.2 M83.95 20.75 L80.1 20.35 Q76.25 19.75 75.5 18.6 L68.25 17.6 62.2 17.1 72.35 16.8 Q82.35 17.15 85.7 20.5 L83.95 20.75 M25.7 117.85 Q27.4 115.8 30.2 116.05 L35.0 116.25 33.2 117.45 Q32.3 118.0 31.2 119.35 L27.5 119.35 25.7 117.85" fill="#c1c1ce" fill-rule="evenodd" stroke="none"/>
      <path d="M276.9 33.6 L277.0 35.25 Q277.0 35.7 276.6 36.05 L276.0 36.4 274.35 36.75 273.4 36.7 Q272.35 39.8 260.45 40.45 L243.8 40.9 Q229.55 41.15 226.15 43.0 224.3 43.95 222.9 44.35 L232.25 43.25 241.45 43.5 Q246.3 46.7 249.45 65.35 250.3 70.45 253.15 79.75 L257.55 93.9 257.45 94.6 Q257.45 95.25 257.95 96.5 258.45 97.75 259.4 112.3 260.35 126.8 258.7 116.1 L258.45 114.5 258.1 111.4 257.65 109.35 Q254.0 93.35 250.7 93.35 249.3 93.35 243.7 95.35 L239.0 96.85 Q240.0 97.7 240.3 98.85 240.55 99.85 240.25 100.75 242.7 100.9 243.95 101.9 244.95 102.7 244.95 103.8 244.95 104.6 244.1 105.65 243.2 106.75 243.2 107.35 243.2 109.4 244.75 110.65 246.25 111.95 246.25 114.2 246.25 115.45 244.2 117.25 L240.0 121.25 Q234.25 127.95 236.2 139.85 L235.2 140.0 Q234.9 135.5 234.1 133.25 233.45 131.4 233.45 128.1 233.45 126.4 238.6 119.6 L243.75 113.0 Q243.75 108.05 240.0 104.7 L237.4 102.35 Q236.2 101.0 236.2 99.55 L236.4 97.35 235.95 97.35 Q234.3 97.35 231.5 96.25 L231.05 96.1 220.45 97.6 219.2 97.5 Q220.8 96.3 220.55 94.7 220.4 93.6 222.45 93.25 L225.6 93.2 222.4 92.7 216.45 92.85 211.0 93.35 210.25 93.45 212.75 107.65 Q213.95 109.35 213.65 112.25 L213.6 112.7 214.35 117.15 214.7 117.6 214.45 117.95 Q216.95 133.45 216.95 137.8 L216.7 152.8 Q216.7 154.05 215.8 155.85 L213.75 155.85 213.6 155.55 Q212.85 153.7 212.7 149.45 L212.45 139.35 Q212.3 134.7 211.35 124.65 210.4 114.45 209.45 107.85 209.1 105.35 209.05 93.95 L209.0 90.25 209.05 89.75 Q208.8 80.45 206.95 73.85 205.15 67.45 203.95 58.65 L202.35 46.7 Q181.1 49.1 180.25 48.25 L169.45 48.4 165.75 48.25 156.05 48.7 148.95 49.1 146.25 48.75 133.0 48.5 130.75 48.15 128.5 47.75 110.0 47.5 90.75 45.65 88.05 45.45 73.8 46.5 70.95 45.75 67.95 46.1 61.9 46.1 Q63.95 48.1 63.95 49.85 L63.2 52.55 Q62.45 55.15 62.45 55.85 L63.45 67.35 61.2 85.9 Q60.1 94.1 59.55 99.5 L59.3 99.5 59.3 102.2 59.2 104.95 59.0 109.5 Q59.05 111.65 60.6 122.45 58.45 111.75 57.1 108.75 L57.45 105.7 58.25 99.45 55.7 99.35 51.2 99.4 50.0 99.55 48.85 101.6 Q47.45 103.5 47.45 104.0 L48.2 105.3 Q48.95 106.45 48.95 107.0 L48.1 115.0 47.2 122.35 47.15 122.4 47.9 126.15 Q49.25 132.7 49.25 136.6 49.25 142.3 47.85 145.45 47.35 146.6 44.9 149.8 43.2 152.05 42.45 155.85 L39.8 155.85 Q40.55 151.6 43.2 148.55 L45.8 145.4 Q46.95 143.5 46.95 141.05 L46.25 129.85 Q45.5 120.3 45.5 117.6 L45.7 115.25 46.0 115.25 46.45 118.65 Q46.65 117.6 46.95 116.9 47.7 115.25 47.7 112.75 47.7 111.45 46.1 108.05 44.45 104.6 44.45 103.55 44.45 102.6 45.65 100.35 L41.95 100.35 41.95 99.35 44.05 96.95 31.2 95.85 19.2 94.85 16.15 95.0 16.45 86.85 Q16.95 67.95 23.9 48.85 L34.55 46.75 35.4 46.6 38.8 47.25 57.85 46.1 44.2 45.7 31.45 44.25 31.2 43.85 34.15 43.35 26.95 42.9 20.55 44.55 12.95 46.35 11.25 46.25 11.15 46.25 Q11.0 46.2 11.0 45.45 L9.95 45.6 Q8.35 45.6 7.7 45.1 L7.5 44.75 12.55 43.85 13.2 43.6 13.45 43.35 8.45 43.35 8.35 43.3 6.95 43.5 Q6.55 43.5 5.9 42.85 L5.5 43.0 5.25 42.55 5.2 41.95 4.0 40.0 2.25 36.45 2.2 36.3 Q2.2 35.1 3.0 35.1 L5.5 37.5 6.75 38.75 Q8.1 37.85 10.7 37.6 13.55 37.35 17.2 37.75 L21.95 37.1 Q22.6 37.1 23.35 37.7 24.1 38.25 24.7 38.25 L34.55 37.4 58.95 36.5 Q60.2 36.5 63.45 35.5 L77.75 35.25 86.35 35.75 Q91.9 35.75 92.45 34.75 93.05 33.8 98.25 33.75 106.25 29.75 112.4 27.9 124.6 24.2 140.75 23.6 141.9 22.65 145.15 22.5 L148.95 22.75 149.25 24.25 Q149.1 24.5 148.75 24.5 L147.45 24.5 146.0 24.7 142.5 25.1 Q141.95 25.85 141.45 25.85 L132.9 25.65 130.2 25.35 119.95 28.65 106.8 32.5 Q113.1 32.15 114.8 34.5 L122.0 35.25 121.85 35.45 129.5 34.7 125.25 33.8 121.95 34.1 119.7 34.0 Q126.6 31.1 128.3 30.65 135.05 28.8 147.95 28.0 L154.45 28.0 Q158.25 29.7 166.15 29.7 L176.0 29.35 176.25 29.5 Q176.45 29.6 176.45 30.35 L176.35 30.6 Q181.15 30.65 185.4 31.85 L191.05 33.1 Q196.2 33.1 199.3 31.85 202.2 30.65 214.7 30.85 L221.3 29.35 228.7 27.85 231.65 28.1 234.25 28.5 Q234.5 28.0 234.5 29.25 L228.55 30.35 Q220.95 32.05 213.75 36.85 L213.45 37.25 Q220.0 36.4 226.45 34.15 L236.6 30.4 Q248.5 26.4 264.45 29.1 270.1 28.2 272.25 30.85 L272.25 30.6 Q275.1 29.55 276.3 31.75 276.7 32.5 276.9 33.6 M60.6 122.55 Q61.95 130.0 61.95 135.1 61.95 145.6 61.45 151.35 L60.95 155.85 54.55 155.85 56.1 146.5 Q58.45 133.05 58.45 131.35 L58.45 130.75 Q60.15 126.95 60.6 122.55 M26.15 155.85 L21.25 155.85 20.75 151.1 Q20.75 150.7 19.75 149.2 L18.7 147.35 Q18.7 142.7 19.8 139.45 L23.2 129.75 23.4 129.7 24.0 129.75 22.65 139.2 Q22.2 142.4 22.2 146.8 22.2 147.5 24.2 150.9 26.2 154.35 26.2 155.25 L26.15 155.85 M263.55 20.6 Q263.15 20.35 263.0 20.1 263.3 19.5 262.9 18.65 263.45 18.25 269.5 18.75 272.35 15.8 272.7 19.6 273.25 16.85 274.3 17.0 275.75 17.2 275.75 21.2 275.75 22.35 274.9 24.2 274.0 26.05 274.0 27.45 L273.9 28.4 273.6 28.75 Q272.2 27.55 272.3 25.6 272.4 24.5 269.45 24.5 L267.4 24.1 265.7 23.5 270.5 23.25 271.1 23.25 271.65 23.25 Q270.75 21.9 269.2 20.85 L263.95 20.75 263.55 20.6 M254.1 19.65 Q252.85 18.75 251.5 18.75 L240.7 21.1 Q238.45 21.1 238.05 20.5 L237.75 19.25 Q236.9 17.85 227.55 18.4 L247.45 16.8 Q255.3 16.65 256.95 19.35 L255.95 20.75 254.1 19.65 M217.0 24.5 Q212.95 23.15 206.45 24.95 198.2 27.25 194.7 27.25 194.15 27.25 189.5 25.65 L184.45 23.85 184.6 23.7 185.7 23.5 189.15 24.15 192.55 24.75 194.45 24.4 198.7 23.75 Q200.35 22.25 206.6 22.25 213.05 22.25 217.0 24.1 L217.0 24.5 M58.2 30.25 L62.8 29.45 72.45 28.6 78.25 28.95 85.2 29.75 Q83.25 31.7 69.5 33.5 L51.95 35.0 Q47.15 35.0 39.85 33.2 32.55 31.35 24.95 31.35 L22.6 31.15 Q21.2 30.9 21.2 30.6 34.8 28.4 41.25 29.0 L58.2 30.25 M4.3 15.65 Q6.9 16.55 8.5 18.35 9.3 17.35 10.45 17.35 L12.2 17.6 13.2 18.0 Q10.1 20.95 9.85 20.65 8.75 19.25 6.25 19.25 L5.4 20.0 Q4.45 20.75 3.2 20.75 1.35 20.75 1.0 19.35 0.8 18.65 1.0 17.85 1.0 14.45 4.3 15.65 M34.2 110.0 L33.65 110.6 33.7 110.6 33.5 111.0 33.2 111.0 32.9 111.2 33.7 111.85 33.45 112.5 32.25 111.5 Q30.55 112.25 27.95 112.25 L27.35 112.7 Q25.85 113.4 25.2 114.1 L25.05 113.9 25.0 113.0 Q25.0 112.3 26.0 111.55 L26.3 111.35 25.95 111.0 27.05 109.35 Q27.7 108.3 28.45 107.75 L31.95 107.75 34.2 110.0" fill="#343543" fill-rule="evenodd" stroke="none"/>
      <path d="M2.95 10.0 Q2.7 10.4 2.7 10.95 2.7 11.75 2.85 11.7 L3.0 11.5 4.95 11.6 6.6 11.45 9.7 11.0 Q10.7 10.25 13.15 9.7 14.55 9.4 15.5 8.45 L23.3 8.75 22.35 10.1 21.2 12.0 22.0 12.0 Q22.35 11.6 24.5 11.4 L26.95 10.85 33.95 10.5 35.7 10.8 36.7 11.0 36.5 10.75 35.75 9.8 45.3 10.05 48.45 10.25 49.55 10.15 48.95 10.35 Q48.2 10.6 44.4 12.2 L39.65 13.9 39.5 13.75 Q39.05 13.75 38.35 14.1 L37.2 15.0 37.95 15.1 Q38.35 14.55 39.65 14.05 L40.45 14.1 Q45.5 13.2 48.55 12.05 51.6 10.9 53.6 10.3 L57.45 10.35 Q61.3 10.35 70.4 8.75 L81.75 6.6 90.25 6.6 92.2 6.8 Q89.35 7.5 86.5 8.75 L95.95 9.75 99.35 9.25 102.7 8.75 108.55 9.7 113.45 10.6 114.6 10.4 116.95 10.65 Q124.3 12.25 129.3 12.25 L134.7 12.0 Q131.2 11.7 122.95 9.25 L122.05 9.0 125.45 9.0 149.9 10.65 162.7 12.0 166.2 12.25 166.45 12.25 166.7 12.25 166.85 12.25 167.1 12.25 Q175.3 12.2 176.45 11.35 L176.95 10.35 Q177.15 9.7 177.95 9.25 L184.3 8.75 195.95 8.1 200.15 7.05 201.55 7.2 205.95 7.6 209.7 7.1 210.45 7.0 215.4 7.1 217.55 7.6 Q222.15 8.6 225.2 8.6 L227.55 8.15 229.25 8.2 228.2 8.25 227.7 9.0 235.55 9.75 239.7 9.25 243.1 9.15 250.45 9.35 262.2 8.0 251.1 7.7 249.05 8.3 249.7 7.85 249.2 7.5 Q242.55 6.15 240.95 6.55 L239.85 6.8 240.05 6.65 245.45 5.75 250.15 4.65 255.95 3.85 Q264.4 3.85 269.25 6.2 271.7 7.35 273.35 8.5 L274.25 8.3 274.4 8.05 274.45 8.8 Q274.4 11.15 274.6 12.1 L276.2 19.0 Q277.1 23.35 277.1 26.35 L276.9 33.6 Q276.7 32.5 276.3 31.75 275.1 29.55 272.25 30.6 L272.25 30.85 Q270.1 28.2 264.45 29.1 248.5 26.4 236.6 30.4 L226.45 34.15 Q220.0 36.4 213.45 37.25 L213.75 36.85 Q220.95 32.05 228.55 30.35 L234.5 29.25 Q234.5 28.0 234.25 28.5 L231.65 28.1 228.7 27.85 221.3 29.35 214.7 30.85 Q202.2 30.65 199.3 31.85 196.2 33.1 191.05 33.1 L185.4 31.85 Q181.15 30.65 176.35 30.6 L176.45 30.35 Q176.45 29.6 176.25 29.5 L176.0 29.35 166.15 29.7 Q158.25 29.7 154.45 28.0 L147.95 28.0 Q135.05 28.8 128.3 30.65 126.6 31.1 119.7 34.0 L121.95 34.1 125.25 33.8 129.5 34.7 121.85 35.45 122.0 35.25 114.8 34.5 Q113.1 32.15 106.8 32.5 L119.95 28.65 130.2 25.35 132.9 25.65 141.45 25.85 Q141.95 25.85 142.5 25.1 L146.0 24.7 147.45 24.5 148.75 24.5 Q149.1 24.5 149.25 24.25 L148.95 22.75 145.15 22.5 Q141.9 22.65 140.75 23.6 124.6 24.2 112.4 27.9 106.25 29.75 98.25 33.75 93.05 33.8 92.45 34.75 91.9 35.75 86.35 35.75 L77.75 35.25 63.45 35.5 Q60.2 36.5 58.95 36.5 L34.55 37.4 24.7 38.25 Q24.1 38.25 23.35 37.7 22.6 37.1 21.95 37.1 L17.2 37.75 Q13.55 37.35 10.7 37.6 8.1 37.85 6.75 38.75 L5.5 37.5 3.0 35.1 Q2.2 35.1 2.2 36.3 L1.75 33.85 Q1.3 31.65 1.55 27.15 L1.95 22.25 1.0 19.55 Q0.0 16.85 0.0 14.75 0.0 12.1 0.3 11.7 0.7 11.05 2.95 10.0 M276.6 36.05 L276.35 37.25 Q275.6 40.25 273.0 41.0 L265.3 41.75 Q258.05 42.15 251.45 43.6 L241.95 43.5 241.45 43.5 232.25 43.25 222.9 44.35 Q224.3 43.95 226.15 43.0 229.55 41.15 243.8 40.9 L260.45 40.45 Q272.35 39.8 273.4 36.7 L274.35 36.75 276.0 36.4 276.6 36.05 M257.55 93.9 L257.95 95.35 Q261.85 109.65 264.8 123.4 L272.05 155.85 215.8 155.85 Q216.7 154.05 216.7 152.8 L216.95 137.8 Q216.95 133.45 214.45 117.95 L214.7 117.6 214.35 117.15 213.6 112.7 213.65 112.25 Q213.95 109.35 212.75 107.65 L210.25 93.45 211.0 93.35 216.45 92.85 222.4 92.7 225.6 93.2 222.45 93.25 Q220.4 93.6 220.55 94.7 220.8 96.3 219.2 97.5 L220.45 97.6 231.05 96.1 231.5 96.25 Q234.3 97.35 235.95 97.35 L236.4 97.35 236.2 99.55 Q236.2 101.0 237.4 102.35 L240.0 104.7 Q243.75 108.05 243.75 113.0 L238.6 119.6 Q233.45 126.4 233.45 128.1 233.45 131.4 234.1 133.25 234.9 135.5 235.2 140.0 L236.2 139.85 Q234.25 127.95 240.0 121.25 L244.2 117.25 Q246.25 115.45 246.25 114.2 246.25 111.95 244.75 110.65 243.2 109.4 243.2 107.35 243.2 106.75 244.1 105.65 244.95 104.6 244.95 103.8 244.95 102.7 243.95 101.9 242.7 100.9 240.25 100.75 240.55 99.85 240.3 98.85 240.0 97.7 239.0 96.85 L243.7 95.35 Q249.3 93.35 250.7 93.35 254.0 93.35 257.65 109.35 L258.1 111.4 258.45 114.5 258.7 116.1 Q260.35 126.8 259.4 112.3 258.45 97.75 257.95 96.5 257.45 95.25 257.45 94.6 L257.55 93.9 M60.6 122.45 L60.6 122.55 Q60.15 126.95 58.45 130.75 L58.45 131.35 Q58.45 133.05 56.1 146.5 L54.55 155.85 42.45 155.85 Q43.2 152.05 44.9 149.8 47.35 146.6 47.85 145.45 49.25 142.3 49.25 136.6 49.25 132.7 47.9 126.15 L47.15 122.4 47.2 122.35 48.1 115.0 48.95 107.0 Q48.95 106.45 48.2 105.3 L47.45 104.0 Q47.45 103.5 48.85 101.6 L50.0 99.55 51.2 99.4 55.7 99.35 58.25 99.45 57.45 105.7 57.1 108.75 Q58.45 111.75 60.6 122.45 M39.8 155.85 L26.15 155.85 26.2 155.25 Q26.2 154.35 24.2 150.9 22.2 147.5 22.2 146.8 22.2 142.4 22.65 139.2 L24.0 129.75 23.4 129.7 23.2 129.75 19.8 139.45 Q18.7 142.7 18.7 147.35 L19.75 149.2 Q20.75 150.7 20.75 151.1 L21.25 155.85 10.55 155.85 Q11.0 152.0 11.95 146.65 13.95 135.1 13.95 129.6 13.95 117.85 14.85 110.95 15.7 104.8 16.15 95.0 L19.2 94.85 31.2 95.85 44.05 96.95 41.95 99.35 41.95 100.35 45.65 100.35 Q44.45 102.6 44.45 103.55 44.45 104.6 46.1 108.05 47.7 111.45 47.7 112.75 47.7 115.25 46.95 116.9 46.65 117.6 46.45 118.65 L46.0 115.25 45.7 115.25 45.5 117.6 Q45.5 120.3 46.25 129.85 L46.95 141.05 Q46.95 143.5 45.8 145.4 L43.2 148.55 Q40.55 151.6 39.8 155.85 M23.9 48.85 L20.8 49.25 19.05 49.25 17.3 49.5 7.3 49.25 Q5.7 47.75 4.55 46.15 3.55 44.75 3.55 44.25 L3.8 43.05 Q3.35 42.15 3.05 40.7 L2.25 36.45 4.0 40.0 5.2 41.95 5.25 42.55 5.5 43.0 5.9 42.85 Q6.55 43.5 6.95 43.5 L8.35 43.3 8.45 43.35 13.45 43.35 13.2 43.6 12.55 43.85 7.5 44.75 7.7 45.1 Q8.35 45.6 9.95 45.6 L11.0 45.45 Q11.0 46.2 11.15 46.25 L11.25 46.25 12.95 46.35 20.55 44.55 26.95 42.9 34.15 43.35 31.2 43.85 31.45 44.25 44.2 45.7 57.85 46.1 38.8 47.25 35.4 46.6 34.55 46.75 23.9 48.85 M266.7 8.6 L266.85 9.3 266.95 9.5 Q270.15 9.0 271.2 9.95 L272.85 11.5 273.35 10.85 Q271.85 8.6 266.7 8.6 M254.1 19.65 L255.95 20.75 256.95 19.35 Q255.3 16.65 247.45 16.8 L227.55 18.4 Q236.9 17.85 237.75 19.25 L238.05 20.5 Q238.45 21.1 240.7 21.1 L251.5 18.75 Q252.85 18.75 254.1 19.65 M263.55 20.6 L263.95 20.75 269.2 20.85 Q270.75 21.9 271.65 23.25 L271.1 23.25 270.5 23.25 265.7 23.5 267.4 24.1 269.45 24.5 Q272.4 24.5 272.3 25.6 272.2 27.55 273.6 28.75 L273.9 28.4 274.0 27.45 Q274.0 26.05 274.9 24.2 275.75 22.35 275.75 21.2 275.75 17.2 274.3 17.0 273.25 16.85 272.7 19.6 272.35 15.8 269.5 18.75 263.45 18.25 262.9 18.65 263.3 19.5 263.0 20.1 263.15 20.35 263.55 20.6 M217.0 24.5 L217.0 24.1 Q213.05 22.25 206.6 22.25 200.35 22.25 198.7 23.75 L194.45 24.4 192.55 24.75 189.15 24.15 185.7 23.5 184.6 23.7 184.45 23.85 189.5 25.65 Q194.15 27.25 194.7 27.25 198.2 27.25 206.45 24.95 212.95 23.15 217.0 24.5 M229.45 110.85 Q227.4 107.45 225.2 109.85 L223.3 112.15 Q222.15 113.4 221.2 113.5 L221.75 113.65 223.2 113.75 Q226.55 111.35 226.75 111.35 L227.6 111.6 Q227.95 111.7 229.45 110.85 M233.25 105.1 L233.0 104.35 230.0 104.0 Q230.0 105.75 230.2 106.1 L230.1 105.55 Q230.0 105.0 230.75 105.0 L232.35 105.15 233.25 105.1 M174.95 14.95 L182.0 14.5 Q183.95 14.5 184.0 13.85 L181.95 12.35 175.45 12.6 166.7 13.6 Q157.45 13.35 152.7 13.6 L161.4 14.8 171.45 15.35 174.95 14.95 M186.65 5.6 L189.4 6.45 180.85 6.9 160.7 7.75 156.8 7.35 Q153.75 6.0 152.2 5.5 L152.45 5.35 156.45 5.0 170.95 6.0 Q181.6 6.0 186.65 5.6 M197.0 5.6 L197.0 5.8 191.35 4.75 197.45 4.1 209.15 5.3 Q200.2 5.8 197.0 5.6 M83.95 20.75 L85.7 20.5 Q82.35 17.15 72.35 16.8 L62.2 17.1 68.25 17.6 75.5 18.6 Q76.25 19.75 80.1 20.35 L83.95 20.75 M4.3 15.65 Q1.0 14.45 1.0 17.85 0.8 18.65 1.0 19.35 1.35 20.75 3.2 20.75 4.45 20.75 5.4 20.0 L6.25 19.25 Q8.75 19.25 9.85 20.65 10.1 20.95 13.2 18.0 L12.2 17.6 10.45 17.35 Q9.3 17.35 8.5 18.35 6.9 16.55 4.3 15.65 M58.2 30.25 L41.25 29.0 Q34.8 28.4 21.2 30.6 21.2 30.9 22.6 31.15 L24.95 31.35 Q32.55 31.35 39.85 33.2 47.15 35.0 51.95 35.0 L69.5 33.5 Q83.25 31.7 85.2 29.75 L78.25 28.95 72.45 28.6 62.8 29.45 58.2 30.25 M34.2 110.0 L31.95 107.75 28.45 107.75 Q27.7 108.3 27.05 109.35 L25.95 111.0 26.3 111.35 26.0 111.55 Q25.0 112.3 25.0 113.0 L25.05 113.9 25.2 114.1 Q25.85 113.4 27.35 112.7 L27.95 112.25 Q30.55 112.25 32.25 111.5 L33.45 112.5 33.7 111.85 32.9 111.2 33.2 111.0 33.5 111.0 33.7 110.6 33.65 110.6 34.2 110.0 M25.7 117.85 L27.5 119.35 31.2 119.35 Q32.3 118.0 33.2 117.45 L35.0 116.25 30.2 116.05 Q27.4 115.8 25.7 117.85" fill="#47475a" fill-rule="evenodd" stroke="none"/>
    </g>
    <g id="sprite0" transform="matrix(1.0, 0.0, 0.0, 1.0, 0.0, 0.0)">
      <use ffdec:characterId="2861" height="119.35" transform="matrix(1.0, 0.0, 0.0, 1.0, 0.0, 0.0)" width="271.8" xlink:href="#shape1"/>
    </g>
    <g id="shape1" transform="matrix(1.0, 0.0, 0.0, 1.0, 0.0, 0.0)">
      <path d="M264.15 9.3 L264.0 8.6 Q269.15 8.6 270.65 10.85 L270.15 11.5 268.5 9.95 Q267.45 9.0 264.25 9.5 L264.15 9.3 M271.7 8.05 L271.55 8.3 270.65 8.5 266.55 6.2 Q261.7 3.85 253.25 3.85 L247.45 4.65 242.75 5.75 237.35 6.65 237.15 6.8 238.25 6.55 Q239.85 6.15 246.5 7.5 L247.0 7.85 246.35 8.3 248.4 7.7 259.5 8.0 247.75 9.35 240.4 9.15 237.0 9.25 232.85 9.75 225.0 9.0 225.5 8.25 226.55 8.2 224.85 8.15 222.5 8.6 Q219.45 8.6 214.85 7.6 L212.7 7.1 207.75 7.0 207.0 7.1 203.25 7.6 198.85 7.2 197.45 7.05 193.25 8.1 181.6 8.75 175.25 9.25 Q174.45 9.7 174.25 10.35 L173.75 11.35 Q172.6 12.2 164.4 12.25 L164.15 12.25 164.0 12.25 163.75 12.25 163.5 12.25 160.0 12.0 147.2 10.65 122.75 9.0 119.35 9.0 120.25 9.25 Q128.5 11.7 132.0 12.0 L126.6 12.25 Q121.6 12.25 114.25 10.65 L111.9 10.4 110.75 10.6 105.85 9.7 100.0 8.75 96.65 9.25 93.25 9.75 83.8 8.75 Q86.65 7.5 89.5 6.8 L87.55 6.6 79.05 6.6 67.7 8.75 Q58.6 10.35 54.75 10.35 L50.9 10.3 Q48.9 10.9 45.85 12.05 42.8 13.2 37.75 14.1 L36.95 14.05 35.25 15.1 34.5 15.0 35.65 14.1 Q36.35 13.75 36.8 13.75 L36.95 13.9 Q38.85 13.4 41.7 12.2 45.5 10.6 46.25 10.35 L46.85 10.15 45.75 10.25 42.6 10.05 33.05 9.8 33.8 10.75 34.0 11.0 33.0 10.8 31.25 10.5 24.25 10.85 21.8 11.4 Q19.65 11.6 19.3 12.0 L18.5 12.0 19.65 10.1 20.6 8.75 12.8 8.45 Q11.85 9.4 10.45 9.7 8.0 10.25 7.0 11.0 L3.9 11.45 2.25 11.6 0.3 11.5 0.15 11.7 Q0.0 11.75 0.0 10.95 0.0 10.4 0.25 10.0 0.9 8.65 3.5 8.1 L5.35 7.85 Q8.35 6.75 11.65 6.05 17.0 4.85 21.75 4.85 L26.45 5.8 45.75 6.75 Q47.15 6.75 62.45 3.75 L63.35 3.8 Q74.0 3.95 81.8 2.1 L96.05 2.1 101.45 3.3 105.75 4.0 108.3 3.6 121.25 3.5 125.5 2.65 132.25 2.1 147.0 3.1 150.25 2.9 152.8 2.6 168.75 2.5 176.95 1.0 178.2 0.8 186.6 2.25 192.65 1.95 198.25 1.5 222.0 1.25 238.25 0.0 255.75 0.0 Q264.9 1.7 268.25 3.35 271.8 4.45 271.8 6.8 L271.75 7.9 271.7 8.05 M210.75 6.6 L209.4 6.75 211.8 6.85 210.75 6.6 M183.95 5.6 Q178.9 6.0 168.25 6.0 L153.75 5.0 149.75 5.35 149.5 5.5 154.1 7.35 158.0 7.75 178.15 6.9 186.7 6.45 183.95 5.6 M194.3 5.6 Q197.5 5.8 206.45 5.3 L194.75 4.1 188.65 4.75 194.3 5.8 194.3 5.6 M179.3 14.5 L172.25 14.95 168.75 15.35 158.7 14.8 150.0 13.6 Q154.75 13.35 164.0 13.6 L172.75 12.6 179.25 12.35 181.3 13.85 Q181.25 14.5 179.3 14.5 M229.65 105.15 L228.05 105.0 Q227.3 105.0 227.4 105.55 L227.5 106.1 Q227.3 105.75 227.3 104.0 L230.3 104.35 230.55 105.1 229.65 105.15 M224.05 111.35 L220.5 113.75 219.05 113.65 218.5 113.5 Q219.45 113.4 220.6 112.15 L222.5 109.85 Q224.7 107.45 226.75 110.85 L224.9 111.6 224.05 111.35 M113.6 10.5 L112.7 10.3 112.2 10.2 112.1 10.25 113.6 10.5 M81.25 20.75 L77.4 20.35 Q73.55 19.75 72.8 18.6 L65.55 17.6 59.5 17.1 69.65 16.8 Q79.65 17.15 83.0 20.5 L81.25 20.75 M23.0 117.85 Q24.7 115.8 27.5 116.05 L32.3 116.25 30.5 117.45 28.5 119.35 24.8 119.35 23.0 117.85" fill="#ffffff" fill-rule="evenodd" stroke="none"/>
    </g>
  </defs>
</svg>
