<?xml version="1.0" encoding="UTF-8" standalone="no"?>
<svg xmlns:ffdec="https://www.free-decompiler.com/flash" xmlns:xlink="http://www.w3.org/1999/xlink" ffdec:objectType="frame" height="47.0px" width="60.0px" xmlns="http://www.w3.org/2000/svg">
  <g transform="matrix(1.0, 0.0, 0.0, 1.0, 0.0, 0.0)">
    <use ffdec:characterId="2785" height="47.0" transform="matrix(1.0, 0.0, 0.0, 1.0, 0.0, 0.0)" width="60.0" xlink:href="#shape0"/>
  </g>
  <defs>
    <g id="shape0" transform="matrix(1.0, 0.0, 0.0, 1.0, 0.0, 0.0)">
      <path d="M53.0 6.75 L53.0 4.0 51.0 4.0 46.0 4.0 7.0 4.0 7.0 42.0 51.0 42.0 53.0 42.0 53.0 8.0 53.0 6.75 M51.0 0.0 L60.0 0.0 60.0 6.75 60.0 47.0 0.0 47.0 0.0 0.0 46.0 0.0 51.0 0.0" fill="#161c1d" fill-rule="evenodd" stroke="none"/>
      <path d="M53.0 6.75 L53.0 8.0 53.0 42.0 51.0 42.0 7.0 42.0 7.0 4.0 46.0 4.0 51.0 4.0 53.0 4.0 53.0 6.75" fill="#7ca5b6" fill-opacity="0.2509804" fill-rule="evenodd" stroke="none"/>
    </g>
  </defs>
</svg>
