<?xml version="1.0" encoding="UTF-8" standalone="no"?>
<svg xmlns:ffdec="https://www.free-decompiler.com/flash" xmlns:xlink="http://www.w3.org/1999/xlink" ffdec:objectType="frame" height="28.95px" width="10.0px" xmlns="http://www.w3.org/2000/svg">
  <g transform="matrix(1.0, 0.0, 0.0, 1.0, 5.0, 14.0)">
    <use ffdec:characterId="2795" height="28.95" transform="matrix(1.0, 0.0, 0.0, 1.0, -5.0, -14.0)" width="10.0" xlink:href="#shape0"/>
  </g>
  <defs>
    <g id="shape0" transform="matrix(1.0, 0.0, 0.0, 1.0, 5.0, 14.0)">
      <path d="M0.6 -14.0 L1.6 -14.0 1.6 -8.75 Q1.4 -7.9 1.9 -7.0 L2.75 -5.9 3.3 -5.2 4.05 -4.25 4.85 -2.8 5.0 -2.15 5.0 11.5 4.95 12.95 4.8 13.7 4.65 14.0 4.4 14.35 3.75 14.8 3.4 14.95 3.0 14.95 -3.0 14.95 Q-4.35 14.85 -4.7 13.7 L-5.0 11.9 -5.0 11.5 -5.0 -2.15 Q-4.95 -3.15 -4.45 -3.8 L-3.25 -5.2 -3.0 -5.5 -2.45 -6.2 -1.8 -7.1 -1.65 -7.45 -1.6 -7.65 -1.6 -8.75 -1.6 -14.0 -0.6 -14.0 -0.6 -8.75 -0.75 -7.25 -1.1 -6.4 Q-1.55 -5.5 -2.25 -4.9 L-2.95 -4.15 -3.8 -2.45 -4.0 -1.25 -4.0 5.7 -4.0 13.15 -3.7 13.7 -3.4 13.9 -2.05 13.9 2.0 13.9 3.05 13.9 3.5 13.9 3.8 13.75 3.95 13.15 4.05 11.8 4.05 11.05 4.05 5.65 4.05 4.65 4.05 3.65 4.0 -1.25 3.75 -2.55 3.0 -4.05 2.35 -5.0 1.25 -6.25 Q0.9 -6.75 0.8 -7.25 L0.6 -8.75 0.6 -14.0" fill="#b5d8e9" fill-rule="evenodd" stroke="none"/>
      <path d="M4.05 5.65 L4.05 11.05 4.05 11.8 3.95 13.15 3.8 13.75 3.5 13.9 3.05 13.9 2.0 13.9 2.0 5.7 4.05 5.65 M-2.05 13.9 L-3.4 13.9 -3.7 13.7 -4.0 13.15 -4.0 5.7 -2.05 5.7 -2.05 13.9" fill="#7fbbd4" fill-rule="evenodd" stroke="none"/>
      <path d="M-0.4 -4.0 Q-0.55 -3.5 -0.85 -3.1 L-1.6 -2.15 Q-2.15 -1.65 -2.9 -2.0 -3.25 -2.8 -2.8 -3.35 L-1.35 -4.5 -0.85 -4.5 -0.65 -4.3 -0.4 -4.0" fill="#def3ff" fill-rule="evenodd" stroke="none"/>
      <path d="M2.0 13.9 L-2.05 13.9 -2.05 5.7 2.0 5.7 2.0 13.9" fill="#71a7bd" fill-rule="evenodd" stroke="none"/>
      <path d="M-0.6 -14.0 L0.6 -14.0 0.6 -8.75 0.8 -7.25 Q0.9 -6.75 1.25 -6.25 L2.35 -5.0 3.0 -4.05 3.75 -2.55 4.0 -1.25 4.05 3.65 4.05 4.65 4.05 5.65 2.0 5.7 -2.05 5.7 -4.0 5.7 -4.0 -1.25 -3.8 -2.45 -2.95 -4.15 -2.25 -4.9 Q-1.55 -5.5 -1.1 -6.4 L-0.75 -7.25 -0.6 -8.75 -0.6 -14.0 M-0.4 -4.0 L-0.65 -4.3 -0.85 -4.5 -1.35 -4.5 -2.8 -3.35 Q-3.25 -2.8 -2.9 -2.0 -2.15 -1.65 -1.6 -2.15 L-0.85 -3.1 Q-0.55 -3.5 -0.4 -4.0" fill="#96d0e9" fill-rule="evenodd" stroke="none"/>
    </g>
  </defs>
</svg>
