<?xml version="1.0" encoding="UTF-8" standalone="no"?>
<svg xmlns:ffdec="https://www.free-decompiler.com/flash" xmlns:xlink="http://www.w3.org/1999/xlink" ffdec:objectType="frame" height="28.95px" width="10.0px" xmlns="http://www.w3.org/2000/svg">
  <g transform="matrix(1.0, 0.0, 0.0, 1.0, 5.0, 14.0)">
    <use ffdec:characterId="2798" height="28.95" transform="matrix(1.0, 0.0, 0.0, 1.0, -5.0, -14.0)" width="10.0" xlink:href="#shape0"/>
  </g>
  <defs>
    <g id="shape0" transform="matrix(1.0, 0.0, 0.0, 1.0, 5.0, 14.0)">
      <path d="M1.2 -13.0 L0.6 -13.0 -0.6 -13.0 -1.3 -13.0 -1.3 -14.0 1.2 -14.0 1.2 -13.0" fill="#e0c787" fill-rule="evenodd" stroke="none"/>
      <path d="M-0.6 -13.0 L0.6 -13.0 0.6 -8.75 0.8 -7.25 Q0.9 -6.75 1.25 -6.25 L2.35 -5.0 3.0 -4.05 3.75 -2.55 4.0 -1.25 4.05 11.05 3.95 12.9 3.8 13.65 3.5 13.85 3.05 13.9 -3.4 13.85 -3.7 13.6 -4.0 12.9 -4.0 -1.25 -3.8 -2.45 -2.95 -4.15 -2.25 -4.9 Q-1.55 -5.5 -1.1 -6.4 L-0.75 -7.25 -0.6 -8.75 -0.6 -13.0 M-0.65 -4.3 L-0.85 -4.5 -1.35 -4.5 -2.8 -3.35 Q-3.25 -2.8 -2.9 -2.0 -2.15 -1.65 -1.6 -2.15 L-0.85 -3.1 Q-0.55 -3.5 -0.4 -4.0 L-0.65 -4.3" fill="#0c120e" fill-rule="evenodd" stroke="none"/>
      <path d="M0.6 -13.0 L1.2 -13.0 1.6 -13.0 1.6 -8.75 Q1.4 -7.9 1.9 -7.0 L2.75 -5.9 3.3 -5.2 4.05 -4.25 4.85 -2.8 5.0 -2.15 5.0 11.5 4.95 12.95 4.8 13.7 4.65 14.0 4.4 14.35 3.75 14.8 3.4 14.95 3.0 14.95 -3.0 14.95 Q-4.35 14.85 -4.7 13.7 L-5.0 11.9 -5.0 11.5 -5.0 -2.15 Q-4.95 -3.15 -4.45 -3.8 L-3.25 -5.2 -3.0 -5.5 -2.45 -6.2 -1.8 -7.1 -1.65 -7.45 -1.6 -7.65 -1.6 -8.75 -1.6 -13.0 -1.3 -13.0 -0.6 -13.0 -0.6 -8.75 -0.75 -7.25 -1.1 -6.4 Q-1.55 -5.5 -2.25 -4.9 L-2.95 -4.15 -3.8 -2.45 -4.0 -1.25 -4.0 12.9 -3.7 13.6 -3.4 13.85 3.05 13.9 3.5 13.85 3.8 13.65 3.95 12.9 4.05 11.05 4.0 -1.25 3.75 -2.55 3.0 -4.05 2.35 -5.0 1.25 -6.25 Q0.9 -6.75 0.8 -7.25 L0.6 -8.75 0.6 -13.0" fill="#2b4132" fill-rule="evenodd" stroke="none"/>
      <path d="M-0.65 -4.3 L-0.4 -4.0 Q-0.55 -3.5 -0.85 -3.1 L-1.6 -2.15 Q-2.15 -1.65 -2.9 -2.0 -3.25 -2.8 -2.8 -3.35 L-1.35 -4.5 -0.85 -4.5 -0.65 -4.3" fill="#cee5d4" fill-rule="evenodd" stroke="none"/>
      <path d="M2.75 8.05 L2.55 8.2 2.35 8.1 2.0 7.9 1.7 7.6 1.05 8.0 0.9 7.9 0.8 7.6 0.65 7.9 0.35 8.25 0.1 8.25 -0.05 8.2 -0.25 7.9 -0.65 8.2 -0.9 8.15 -1.15 7.95 -1.55 8.9 -1.4 8.05 -1.1 7.35 -0.95 7.5 -0.85 7.6 -0.5 7.45 -0.25 7.4 0.15 7.7 0.7 7.15 1.0 7.1 Q1.25 7.25 1.1 7.35 L1.5 7.55 Q2.25 7.55 2.75 8.05 M0.75 3.1 L1.0 4.3 1.35 3.1 1.6 2.75 2.1 3.7 Q2.4 4.65 2.6 3.65 L3.65 3.7 3.35 3.9 3.15 4.05 2.8 4.15 2.7 4.85 2.6 4.95 2.45 5.05 2.25 4.9 1.6 3.3 1.6 4.9 Q1.6 5.4 1.15 5.35 0.35 4.95 0.4 4.0 L0.35 4.15 0.1 4.35 0.0 4.25 -0.15 4.05 -0.2 3.95 -0.45 4.4 -0.6 4.6 -0.75 4.5 -1.0 4.05 -1.3 5.0 -1.5 5.05 -1.9 3.8 Q-2.0 4.75 -2.55 5.4 L-2.45 4.8 Q-2.25 3.85 -1.7 3.35 L-1.35 4.35 -1.2 3.95 -1.0 3.75 -0.9 3.65 -0.6 3.9 -0.25 3.6 -0.2 3.45 -0.1 3.4 0.0 3.5 0.1 3.75 0.4 3.4 0.75 3.1" fill="#cee5d4" fill-rule="evenodd" stroke="none"/>
    </g>
  </defs>
</svg>
