<?xml version="1.0" encoding="UTF-8" standalone="no"?>
<svg xmlns:ffdec="https://www.free-decompiler.com/flash" xmlns:xlink="http://www.w3.org/1999/xlink" ffdec:objectType="frame" height="46.0px" width="15.0px" xmlns="http://www.w3.org/2000/svg">
  <g transform="matrix(1.0, 0.0, 0.0, 1.0, 7.5, 23.75)">
    <use ffdec:characterId="1932" height="46.0" transform="matrix(1.0, 0.0, 0.0, 1.0, -7.25, -23.75)" width="14.75" xlink:href="#shape0"/>
  </g>
  <defs>
    <g id="shape0" transform="matrix(1.0, 0.0, 0.0, 1.0, 7.25, 23.75)">
      <path d="M0.65 -19.55 Q0.75 -20.25 2.4 -20.7 L3.1 -20.85 Q5.5 -21.35 5.5 -20.25 5.5 -19.8 4.95 -19.2 L3.15 -18.2 0.75 -19.1 0.65 -19.55 M0.0 -21.35 L-0.55 -20.15 -1.0 -20.0 Q-2.15 -19.65 -1.3 -19.05 L-1.45 -18.05 -2.75 -17.2 -2.5 -14.75 -2.75 -14.15 Q-1.75 -12.7 -0.2 -11.8 L0.5 -11.35 1.65 -10.85 1.85 -10.5 1.8 -10.4 1.35 -10.4 1.3 -10.4 1.05 -10.4 0.8 -10.45 Q-0.5 -10.85 -1.55 -12.05 L-1.6 -11.6 -0.35 -9.35 1.35 -10.1 1.75 -10.25 2.7 -11.0 3.25 -15.25 3.4 -11.7 Q3.4 -10.0 2.7 -8.7 L3.1 -9.0 3.4 -9.45 3.9 -10.55 4.35 -12.3 4.4 -12.5 4.6 -14.45 4.3 -15.5 4.0 -16.6 Q4.0 -17.8 4.9 -17.5 L5.0 -17.45 5.4 -17.2 5.85 -16.8 6.0 -16.3 5.9 -14.4 5.2 -11.95 5.2 -11.4 Q5.25 -9.0 3.45 -7.3 L3.25 -7.1 3.4 -4.9 3.4 -4.5 Q4.55 -4.75 4.8 -3.7 L4.85 -3.0 4.5 -2.0 Q3.95 -1.15 2.85 -1.15 1.9 -1.15 1.55 -2.2 L1.5 -2.25 1.35 -3.05 Q1.35 -3.65 2.25 -4.1 L2.25 -4.2 1.85 -6.4 1.9 -6.9 1.75 -7.15 1.8 -7.95 -0.05 -7.7 -1.3 -8.7 -1.85 -9.25 -2.15 -10.15 -3.15 -6.4 -3.95 -6.75 -4.1 -7.05 -4.2 -7.7 -3.9 -10.75 -5.35 -9.45 -5.5 -9.25 -5.8 -9.45 -5.9 -9.9 -5.9 -10.05 -5.55 -12.95 -5.45 -14.05 Q-5.25 -15.5 -4.45 -16.0 -4.45 -17.05 -3.95 -17.95 L-4.15 -18.4 -4.05 -19.3 -2.8 -21.35 -1.1 -22.45 -0.25 -22.4 0.0 -21.35 M-3.15 -5.15 Q-2.5 -4.9 -2.5 -4.25 L-2.5 -4.1 -2.55 -3.25 -2.75 -3.15 -2.9 -3.1 -3.6 -3.0 Q-4.55 -3.0 -4.65 -4.45 -4.65 -5.4 -3.55 -5.25 L-3.15 -5.15" fill="#ff0000" fill-rule="evenodd" stroke="none"/>
      <path d="M2.4 -20.7 Q0.75 -20.25 0.65 -19.55 L-1.3 -19.05 Q-2.15 -19.65 -1.0 -20.0 L-0.55 -20.15 0.0 -21.35 0.3 -21.3 2.4 -20.7 M5.4 -17.2 L5.0 -17.45 4.9 -17.5 4.9 -18.35 5.4 -17.2 M5.9 -14.4 L5.85 -8.05 5.1 -6.8 Q4.4 -5.65 3.4 -4.9 L3.25 -7.1 3.45 -7.3 Q5.25 -9.0 5.2 -11.4 L5.2 -11.95 5.9 -14.4 M0.5 -7.0 L1.75 -7.15 1.9 -6.9 1.85 -6.4 2.25 -4.2 1.75 -4.0 1.35 -5.05 0.35 -5.5 Q-0.25 -6.0 -0.4 -6.75 L0.5 -7.0 M-3.95 -6.75 L-3.55 -5.75 -2.2 -5.6 -0.5 -7.1 Q-0.55 -4.65 -1.45 -3.85 L-2.5 -4.1 -2.5 -4.25 Q-2.5 -4.9 -3.15 -5.15 L-4.1 -5.3 -4.2 -5.25 -4.45 -5.8 -4.7 -7.65 Q-4.8 -8.8 -5.3 -9.4 L-5.35 -9.45 -3.9 -10.75 -4.2 -7.7 -4.1 -7.05 -3.95 -6.75 M-5.45 -14.05 Q-5.4 -17.3 -4.1 -19.25 L-4.05 -19.3 -4.15 -18.4 -3.95 -17.95 Q-4.45 -17.05 -4.45 -16.0 -5.25 -15.5 -5.45 -14.05" fill="#ffcc99" fill-rule="evenodd" stroke="none"/>
      <path d="M0.65 -19.55 L0.75 -19.1 3.15 -18.2 4.95 -19.2 4.9 -18.35 4.9 -17.5 Q4.0 -17.8 4.0 -16.6 L4.3 -15.5 4.6 -14.45 4.4 -12.5 4.35 -12.3 3.9 -10.55 3.4 -9.45 3.1 -9.0 2.7 -8.7 Q3.4 -10.0 3.4 -11.7 L3.25 -15.25 2.7 -11.0 1.75 -10.25 1.8 -10.4 1.85 -10.5 2.5 -12.95 1.8 -14.0 1.85 -15.3 2.5 -16.3 Q2.1 -17.8 0.2 -17.8 L-0.85 -17.35 -1.25 -16.6 Q-1.35 -16.0 -0.85 -15.55 -2.3 -14.75 -1.35 -13.0 -0.95 -12.3 -0.3 -12.05 L0.25 -12.0 0.5 -11.35 -0.2 -11.8 Q-1.75 -12.7 -2.75 -14.15 L-2.5 -14.75 -2.75 -17.2 -1.45 -18.05 -1.3 -19.05 0.65 -19.55 M1.35 -10.1 L-0.35 -9.35 -1.6 -11.6 -1.55 -12.05 Q-0.5 -10.85 0.8 -10.45 L1.05 -10.4 1.1 -10.3 1.3 -10.4 1.35 -10.4 1.35 -10.1 M4.8 -3.7 Q5.35 -3.25 5.35 -2.25 5.35 -1.3 4.7 -0.65 L4.3 -0.35 Q3.85 -0.1 3.3 0.0 L2.85 0.0 2.35 -0.05 Q1.75 -0.2 1.55 -0.85 1.4 -1.25 1.5 -1.75 L1.55 -2.2 Q1.9 -1.15 2.85 -1.15 3.95 -1.15 4.5 -2.0 L4.85 -3.0 4.8 -3.7 M1.75 -7.15 L0.5 -7.0 -0.5 -7.1 -2.2 -5.6 -3.55 -5.75 -3.95 -6.75 -3.15 -6.4 -2.15 -10.15 -1.85 -9.25 -1.3 -8.7 -0.05 -7.7 1.8 -7.95 1.75 -7.15 M-4.2 -5.25 L-4.1 -5.3 -3.15 -5.15 -3.55 -5.25 Q-4.65 -5.4 -4.65 -4.45 -4.55 -3.0 -3.6 -3.0 L-2.9 -3.1 -2.75 -3.15 -2.85 -2.5 Q-3.1 -1.5 -3.85 -1.5 -5.05 -1.5 -5.4 -2.65 L-5.5 -4.0 Q-5.5 -5.1 -4.2 -5.25" fill="#990000" fill-rule="evenodd" stroke="none"/>
      <path d="M1.05 -10.4 L1.3 -10.4 1.1 -10.3 1.05 -10.4 M1.65 -10.85 L0.5 -11.35 0.25 -12.0 -0.35 -14.1 -0.85 -15.55 Q-1.35 -16.0 -1.25 -16.6 L-0.85 -17.35 0.2 -17.8 Q2.1 -17.8 2.5 -16.3 L1.85 -15.3 1.8 -14.0 1.65 -10.85" fill="#ffffff" fill-rule="evenodd" stroke="none"/>
      <path d="M1.75 -10.25 L1.35 -10.1 1.35 -10.4 1.8 -10.4 1.75 -10.25 M1.85 -10.5 L1.65 -10.85 1.8 -14.0 2.5 -12.95 1.85 -10.5 M-0.85 -15.55 L-0.35 -14.1 0.25 -12.0 -0.3 -12.05 Q-0.95 -12.3 -1.35 -13.0 -2.3 -14.75 -0.85 -15.55" fill="#650101" fill-rule="evenodd" stroke="none"/>
      <path d="M5.85 -16.8 L7.5 -18.5 6.6 -14.5 6.0 -11.0 Q6.0 -10.75 6.35 -9.75 L6.5 -9.35 5.9 -8.15 5.85 -8.05 5.9 -14.4 6.0 -16.3 5.85 -16.8 M5.15 18.0 L4.9 18.3 Q3.6 21.5 0.35 22.2 L-0.5 22.25 Q-3.15 22.15 -4.7 20.2 L-5.9 18.35 -5.1 8.1 Q-5.1 6.15 -5.4 2.7 L-5.45 2.0 -5.55 1.25 -5.75 -3.05 -5.8 -6.65 -5.9 -9.95 -5.9 -9.9 -5.8 -9.45 -5.5 -9.25 -5.35 -9.45 -5.3 -9.4 Q-4.8 -8.8 -4.7 -7.65 L-4.45 -5.8 -4.2 -5.25 Q-5.5 -5.1 -5.5 -4.0 L-5.4 -2.65 Q-5.05 -1.5 -3.85 -1.5 -3.1 -1.5 -2.85 -2.5 L-2.75 -3.15 -2.55 -3.25 -2.5 -4.1 -1.45 -3.85 Q-0.55 -4.65 -0.5 -7.1 L0.5 -7.0 -0.4 -6.75 Q-0.25 -6.0 0.35 -5.5 L1.35 -5.05 1.75 -4.0 2.25 -4.2 2.25 -4.1 Q1.35 -3.65 1.35 -3.05 L1.5 -2.25 1.55 -2.2 1.5 -1.75 Q1.4 -1.25 1.55 -0.85 1.75 -0.2 2.35 -0.05 L2.4 1.25 2.4 2.0 2.55 4.85 2.95 2.0 3.05 1.25 3.3 0.0 Q3.85 -0.1 4.3 -0.35 L4.3 1.25 4.3 2.0 4.25 8.55 Q4.25 10.65 4.65 12.5 L5.0 15.5 4.85 17.45 4.9 17.6 4.9 17.95 5.15 18.0 M-5.55 -12.95 L-5.75 -13.5 -6.75 -15.25 -6.75 -20.25 -5.75 -19.25 Q-5.15 -19.7 -4.7 -21.35 L-4.0 -23.75 -2.8 -21.35 -4.05 -19.3 -4.1 -19.25 Q-5.4 -17.3 -5.45 -14.05 L-5.55 -12.95" fill="#943939" fill-rule="evenodd" stroke="none"/>
      <path d="M6.5 -9.35 L7.0 -10.65 7.2 -11.1 7.3 -6.0 6.75 1.25 6.7 2.0 6.65 2.6 6.5 4.95 5.9 10.95 5.7 4.95 5.55 2.0 5.5 1.25 5.5 1.0 5.9 -8.15 6.5 -9.35" fill="#ca6868" fill-rule="evenodd" stroke="none"/>
      <path d="M5.9 10.95 L5.85 12.45 5.7 15.6 5.75 16.25 5.15 18.0 4.9 17.95 4.9 17.6 4.85 17.45 5.0 15.5 4.65 12.5 Q4.25 10.65 4.25 8.55 L4.3 2.0 4.3 1.25 4.3 -0.35 4.7 -0.65 Q5.35 -1.3 5.35 -2.25 5.35 -3.25 4.8 -3.7 4.55 -4.75 3.4 -4.5 L3.4 -4.9 Q4.4 -5.65 5.1 -6.8 L5.85 -8.05 5.9 -8.15 5.5 1.0 5.5 1.25 5.55 2.0 5.7 4.95 5.9 10.95 M-5.9 18.35 L-5.85 13.45 Q-5.65 10.7 -6.1 9.1 -6.55 7.45 -6.5 3.7 L-6.5 2.0 -6.5 1.25 Q-6.55 -0.75 -6.75 -2.05 L-7.2 -9.4 -7.25 -10.6 -6.85 -10.45 -5.9 -9.95 -5.8 -6.65 -5.75 -3.05 -5.55 1.25 -5.45 2.0 -5.4 2.7 Q-5.1 6.15 -5.1 8.1 L-5.9 18.35 M2.35 -0.05 L2.85 0.0 3.3 0.0 3.05 1.25 2.95 2.0 2.55 4.85 2.4 2.0 2.4 1.25 2.35 -0.05" fill="#b74040" fill-rule="evenodd" stroke="none"/>
    </g>
  </defs>
</svg>
