<?xml version="1.0" encoding="UTF-8" standalone="no"?>
<svg xmlns:ffdec="https://www.free-decompiler.com/flash" xmlns:xlink="http://www.w3.org/1999/xlink" ffdec:objectType="frame" height="46.0px" width="15.0px" xmlns="http://www.w3.org/2000/svg">
  <g transform="matrix(1.0, 0.0, 0.0, 1.0, 7.5, 23.75)">
    <use ffdec:characterId="1933" height="43.7" transform="matrix(1.0, 0.0, 0.0, 1.0, -7.25, -22.2)" width="14.75" xlink:href="#shape0"/>
  </g>
  <defs>
    <g id="shape0" transform="matrix(1.0, 0.0, 0.0, 1.0, 7.25, 22.2)">
      <path d="M1.7 -21.9 Q4.4 -20.0 5.2 -18.3 6.0 -16.55 6.0 -10.95 L5.5 1.0 5.7 4.95 5.9 10.95 6.75 14.1 Q6.55 13.9 7.5 16.35 L4.95 14.25 4.85 13.65 4.65 12.5 4.3 9.7 4.8 8.5 5.4 7.05 5.3 6.45 5.35 5.85 5.3 4.9 Q5.1 4.3 4.3 3.9 L4.3 -1.15 4.35 -4.15 Q3.1 -0.05 2.55 4.85 L2.35 -0.8 Q2.35 -4.3 3.6 -9.4 4.8 -14.45 4.8 -15.6 L4.8 -15.65 Q4.8 -18.35 3.1 -19.95 1.55 -21.45 -0.65 -21.35 -2.9 -21.25 -4.4 -19.55 L-5.55 -17.5 Q-6.1 -16.1 -6.1 -14.3 -5.75 -6.8 -5.75 -3.05 L-5.4 2.7 Q-5.1 6.15 -5.1 8.1 L-5.8 11.25 -6.1 9.1 Q-6.55 7.45 -6.5 3.7 -6.45 -0.05 -6.75 -2.05 L-7.2 -9.4 -7.25 -13.3 -7.1 -16.25 Q-5.65 -22.9 0.65 -22.1 L1.7 -21.9" fill="#b74040" fill-rule="evenodd" stroke="none"/>
      <path d="M-5.8 11.25 L-5.1 8.1 Q-5.1 6.15 -5.4 2.7 L-5.75 -3.05 Q-5.75 -6.8 -6.1 -14.3 -6.1 -16.1 -5.55 -17.5 L-4.4 -19.55 Q-2.9 -21.25 -0.65 -21.35 1.55 -21.45 3.1 -19.95 4.8 -18.35 4.8 -15.65 L4.8 -15.6 Q4.8 -14.45 3.6 -9.4 2.35 -4.3 2.35 -0.8 L2.55 4.85 Q3.1 -0.05 4.35 -4.15 L4.3 -1.15 4.3 3.9 4.0 3.75 3.4 4.3 Q2.85 4.5 2.85 5.05 L3.25 5.8 3.6 6.65 3.45 7.55 2.75 8.05 1.75 9.4 1.75 10.5 1.9 10.6 1.9 10.95 Q2.15 11.65 3.0 11.65 L3.95 11.35 4.15 10.5 Q4.15 10.1 4.3 9.7 L4.65 12.5 4.85 13.65 4.95 14.25 4.65 13.95 3.35 12.6 Q2.9 12.6 1.6 13.5 L0.6 14.25 0.15 14.2 Q-0.85 11.25 -3.9 13.55 L-4.45 14.0 -5.85 15.2 -6.9 16.1 -5.8 11.25 M-2.8 8.25 L-2.9 8.35 -3.15 9.3 -3.0 10.3 Q-2.55 11.25 -1.0 11.25 -0.2 11.25 0.25 10.75 L0.6 9.8 0.1 8.9 -0.2 8.55 -0.8 7.95 -2.8 8.0 -2.8 8.25 M-4.4 4.65 L-4.65 5.4 Q-4.65 7.25 -3.5 7.25 -2.3 7.25 -2.3 6.3 L-2.35 5.85 -2.25 5.55 Q-2.25 4.9 -3.35 4.4 -4.2 4.05 -4.4 4.65" fill="#943939" fill-rule="evenodd" stroke="none"/>
      <path d="M5.9 10.95 L5.7 4.95 5.5 1.0 6.0 -10.95 Q6.0 -16.55 5.2 -18.3 4.4 -20.0 1.7 -21.9 3.55 -21.5 5.05 -20.4 6.95 -19.0 7.0 -17.45 L7.05 -17.0 7.3 -6.0 6.65 2.6 6.5 4.95 5.9 10.95" fill="#ca6868" fill-rule="evenodd" stroke="none"/>
      <path d="M4.3 3.9 Q5.1 4.3 5.3 4.9 L5.35 5.85 5.3 6.45 4.85 7.65 4.4 7.65 Q4.25 6.75 3.65 6.05 3.1 5.35 3.1 5.05 3.1 4.65 3.4 4.3 L4.0 3.75 4.3 3.9 M3.45 7.55 L4.25 7.4 3.35 8.9 3.15 9.8 Q3.15 10.55 2.35 10.65 L1.9 10.6 1.75 10.5 1.75 9.4 2.75 8.05 3.45 7.55 M-2.8 8.25 L-2.8 8.0 -0.8 7.95 -0.2 8.55 0.1 9.5 Q-0.15 9.85 -0.85 9.85 L-2.35 9.65 Q-2.35 9.3 -2.8 9.0 L-2.8 8.25 M4.15 14.65 L2.4 16.6 1.95 16.65 1.75 16.65 1.0 16.5 0.95 16.25 -0.55 15.15 -2.5 13.35 0.15 14.2 0.6 14.25 2.95 15.0 4.15 14.65 M-1.4 18.0 Q-2.35 18.0 -3.0 17.15 -3.7 16.25 -3.7 15.0 L-1.6 15.75 -1.4 18.0 M-4.4 4.65 Q-4.2 4.05 -3.35 4.4 -2.25 4.9 -2.25 5.55 L-2.35 5.85 -2.7 6.25 -3.25 6.6 -4.4 6.35 -4.5 5.25 -4.4 4.65" fill="#ff0000" fill-rule="evenodd" stroke="none"/>
      <path d="M5.3 6.45 L5.4 7.05 4.8 8.5 4.3 9.7 Q4.15 10.1 4.15 10.5 L3.95 11.35 3.0 11.65 Q2.15 11.65 1.9 10.95 L1.9 10.6 2.35 10.65 Q3.15 10.55 3.15 9.8 L3.35 8.9 4.25 7.4 3.45 7.55 3.6 6.65 3.25 5.8 2.85 5.05 Q2.85 4.5 3.4 4.3 3.1 4.65 3.1 5.05 3.1 5.35 3.65 6.05 4.25 6.75 4.4 7.65 L4.85 7.65 5.3 6.45 M-0.2 8.55 L0.1 8.9 0.6 9.8 0.25 10.75 Q-0.2 11.25 -1.0 11.25 -2.55 11.25 -3.0 10.3 L-3.15 9.3 -2.9 8.35 -2.8 8.25 -2.8 9.0 Q-2.35 9.3 -2.35 9.65 L-0.85 9.85 Q-0.15 9.85 0.1 9.5 L-0.2 8.55 M4.65 13.95 L4.15 14.65 2.95 15.0 0.6 14.25 1.6 13.5 Q2.9 12.6 3.35 12.6 L4.65 13.95 M1.95 16.65 L1.75 16.8 1.75 16.65 1.95 16.65 M-3.7 15.0 L-4.45 14.0 -3.9 13.55 Q-0.85 11.25 0.15 14.2 L-2.5 13.35 -0.55 15.15 -1.75 14.5 -1.6 15.75 -3.7 15.0 M-2.35 5.85 L-2.3 6.3 Q-2.3 7.25 -3.5 7.25 -4.65 7.25 -4.65 5.4 L-4.4 4.65 -4.5 5.25 -4.4 6.35 -3.25 6.6 -2.7 6.25 -2.35 5.85" fill="#990000" fill-rule="evenodd" stroke="none"/>
      <path d="M1.75 16.8 L1.75 20.75 Q1.5 20.75 1.5 21.25 L-1.25 21.5 -1.4 18.0 -1.6 15.75 -1.75 14.5 -0.55 15.15 0.95 16.25 1.0 16.5 1.75 16.65 1.75 16.8" fill="#ffffff" fill-rule="evenodd" stroke="none"/>
    </g>
  </defs>
</svg>
