<?xml version="1.0" encoding="UTF-8" standalone="no"?>
<svg xmlns:ffdec="https://www.free-decompiler.com/flash" xmlns:xlink="http://www.w3.org/1999/xlink" ffdec:objectType="frame" height="46.0px" width="15.0px" xmlns="http://www.w3.org/2000/svg">
  <g transform="matrix(1.0, 0.0, 0.0, 1.0, 7.5, 23.75)">
    <use ffdec:characterId="1934" height="45.25" transform="matrix(1.0, 0.0, 0.0, 1.0, -7.25, -23.75)" width="14.75" xlink:href="#shape0"/>
  </g>
  <defs>
    <g id="shape0" transform="matrix(1.0, 0.0, 0.0, 1.0, 7.25, 23.75)">
      <path d="M2.4 -20.7 Q0.75 -20.25 0.65 -19.55 L-1.3 -19.05 Q-2.15 -19.65 -1.0 -20.0 L-0.55 -20.15 0.0 -21.35 0.3 -21.3 2.4 -20.7 M5.4 -17.2 L5.0 -17.45 4.9 -17.5 4.9 -18.35 5.4 -17.2 M5.9 -14.4 L5.85 -8.05 5.1 -6.8 Q4.4 -5.65 3.4 -4.9 L3.25 -7.1 3.45 -7.3 Q5.25 -9.0 5.2 -11.4 L5.2 -11.95 5.9 -14.4 M0.5 -7.0 L1.75 -7.15 1.9 -6.9 1.85 -6.4 2.25 -4.2 1.75 -4.0 1.35 -5.05 0.35 -5.5 Q-0.25 -6.0 -0.4 -6.75 L0.5 -7.0 M-3.95 -6.75 L-3.55 -5.75 -2.2 -5.6 -0.5 -7.1 Q-0.55 -4.65 -1.45 -3.85 L-2.5 -4.1 -2.5 -4.25 Q-2.5 -4.9 -3.15 -5.15 L-4.1 -5.3 -4.2 -5.25 -4.45 -5.8 -4.7 -7.65 Q-4.8 -8.8 -5.3 -9.4 L-5.35 -9.45 -3.9 -10.75 -4.2 -7.7 -4.1 -7.05 -3.95 -6.75 M-5.45 -14.05 Q-5.4 -17.3 -4.1 -19.25 L-4.05 -19.3 -4.15 -18.4 -3.95 -17.95 Q-4.45 -17.05 -4.45 -16.0 -5.25 -15.5 -5.45 -14.05" fill="#ffcc99" fill-rule="evenodd" stroke="none"/>
      <path d="M0.65 -19.55 Q0.75 -20.25 2.4 -20.7 L3.1 -20.85 Q5.5 -21.35 5.5 -20.25 5.5 -19.8 4.95 -19.2 L3.15 -18.2 0.75 -19.1 0.65 -19.55 M0.0 -21.35 L-0.55 -20.15 -1.0 -20.0 Q-2.15 -19.65 -1.3 -19.05 L-1.45 -18.05 -2.75 -17.2 -2.5 -14.75 -2.75 -14.15 Q-1.75 -12.7 -0.2 -11.8 L0.5 -11.35 1.65 -10.85 1.85 -10.5 1.8 -10.4 1.35 -10.4 1.3 -10.4 1.05 -10.4 0.8 -10.45 Q-0.5 -10.85 -1.55 -12.05 L-1.6 -11.6 -0.35 -9.35 1.35 -10.1 1.75 -10.25 2.7 -11.0 3.25 -15.25 3.4 -11.7 Q3.4 -10.0 2.7 -8.7 L3.1 -9.0 3.4 -9.45 3.9 -10.55 4.35 -12.3 4.4 -12.5 4.6 -14.45 4.3 -15.5 4.0 -16.6 Q4.0 -17.8 4.9 -17.5 L5.0 -17.45 5.4 -17.2 5.85 -16.8 6.0 -16.3 5.9 -14.4 5.2 -11.95 5.2 -11.4 Q5.25 -9.0 3.45 -7.3 L3.25 -7.1 3.4 -4.9 3.4 -4.5 Q4.55 -4.75 4.8 -3.7 L4.85 -3.25 4.85 -3.0 4.5 -2.0 4.3 -1.75 3.6 -1.25 2.85 -1.15 2.35 -1.2 Q1.8 -1.45 1.55 -2.2 L1.5 -2.25 1.35 -3.05 1.4 -3.25 Q1.5 -3.7 2.25 -4.1 L2.25 -4.2 1.85 -6.4 1.9 -6.9 1.75 -7.15 1.8 -7.95 -0.05 -7.7 -1.3 -8.7 -1.85 -9.25 -2.15 -10.15 -3.15 -6.4 -3.95 -6.75 -4.1 -7.05 -4.2 -7.7 -3.9 -10.75 -5.35 -9.45 -5.5 -9.25 -5.8 -9.45 -5.9 -9.9 -5.9 -10.05 -5.55 -12.95 -5.45 -14.05 Q-5.25 -15.5 -4.45 -16.0 -4.45 -17.05 -3.95 -17.95 L-4.15 -18.4 -4.05 -19.3 -2.8 -21.35 -1.1 -22.45 -0.25 -22.4 0.0 -21.35 M4.15 14.65 L2.4 16.6 1.95 16.65 1.75 16.65 1.0 16.5 0.95 16.25 -0.55 15.15 -2.5 13.35 0.15 14.2 0.6 14.25 2.95 15.0 4.15 14.65 M-1.4 18.0 Q-2.35 18.0 -3.0 17.15 -3.7 16.25 -3.7 15.0 L-1.6 15.75 -1.4 18.0 M4.3 3.9 Q5.1 4.3 5.3 4.9 L5.35 5.85 5.3 6.45 4.85 7.65 4.4 7.65 Q4.25 6.75 3.65 6.05 3.1 5.35 3.1 5.05 3.1 4.65 3.4 4.3 L4.0 3.75 4.3 3.9 M3.45 7.55 L4.25 7.4 3.35 8.9 3.15 9.8 Q3.15 10.55 2.35 10.65 L1.9 10.6 1.75 10.5 1.75 9.4 2.75 8.05 3.45 7.55 M-2.8 8.25 L-2.8 8.0 -0.8 7.95 -0.2 8.55 0.1 9.5 Q-0.15 9.85 -0.85 9.85 L-2.35 9.65 Q-2.35 9.3 -2.8 9.0 L-2.8 8.25 M-3.15 -5.15 Q-2.5 -4.9 -2.5 -4.25 L-2.5 -4.1 -2.55 -3.25 -2.75 -3.15 -2.9 -3.1 -3.6 -3.0 Q-4.0 -3.0 -4.25 -3.25 -4.6 -3.6 -4.65 -4.45 -4.65 -5.4 -3.55 -5.25 L-3.15 -5.15 M-2.35 5.85 L-2.7 6.25 -3.25 6.6 -4.4 6.35 -4.5 5.25 -4.4 4.65 Q-4.2 4.05 -3.35 4.4 -2.25 4.9 -2.25 5.55 L-2.35 5.85" fill="#ff0000" fill-rule="evenodd" stroke="none"/>
      <path d="M0.65 -19.55 L0.75 -19.1 3.15 -18.2 4.95 -19.2 4.9 -18.35 4.9 -17.5 Q4.0 -17.8 4.0 -16.6 L4.3 -15.5 4.6 -14.45 4.4 -12.5 4.35 -12.3 3.9 -10.55 3.4 -9.45 3.1 -9.0 2.7 -8.7 Q3.4 -10.0 3.4 -11.7 L3.25 -15.25 2.7 -11.0 1.75 -10.25 1.8 -10.4 1.85 -10.5 2.5 -12.95 1.8 -14.0 1.85 -15.3 2.5 -16.3 Q2.1 -17.8 0.2 -17.8 L-0.85 -17.35 -1.25 -16.6 Q-1.35 -16.0 -0.85 -15.55 -2.3 -14.75 -1.35 -13.0 -0.95 -12.3 -0.3 -12.05 L0.25 -12.0 0.5 -11.35 -0.2 -11.8 Q-1.75 -12.7 -2.75 -14.15 L-2.5 -14.75 -2.75 -17.2 -1.45 -18.05 -1.3 -19.05 0.65 -19.55 M1.35 -10.1 L-0.35 -9.35 -1.6 -11.6 -1.55 -12.05 Q-0.5 -10.85 0.8 -10.45 L1.05 -10.4 1.1 -10.3 1.3 -10.4 1.35 -10.4 1.35 -10.1 M4.65 13.95 L4.15 14.65 2.95 15.0 0.6 14.25 1.6 13.5 Q2.9 12.6 3.35 12.6 L4.65 13.95 M1.95 16.65 L1.75 16.8 1.75 16.65 1.95 16.65 M-3.7 15.0 L-4.45 14.0 -3.9 13.55 Q-0.85 11.25 0.15 14.2 L-2.5 13.35 -0.55 15.15 -1.75 14.5 -1.6 15.75 -3.7 15.0 M4.8 -3.7 L5.15 -3.25 5.35 -2.25 Q5.35 -1.3 4.7 -0.65 L4.3 -0.35 Q3.85 -0.1 3.3 0.0 L2.85 0.0 2.35 -0.05 Q1.75 -0.2 1.55 -0.85 1.4 -1.25 1.5 -1.75 L1.55 -2.2 Q1.8 -1.45 2.35 -1.2 L2.85 -1.15 3.6 -1.25 4.3 -1.75 4.5 -2.0 4.85 -3.0 4.85 -3.25 4.8 -3.7 M5.3 6.45 L5.4 7.05 4.8 8.5 4.3 9.7 Q4.15 10.1 4.15 10.5 L3.95 11.35 3.0 11.65 Q2.15 11.65 1.9 10.95 L1.9 10.6 2.35 10.65 Q3.15 10.55 3.15 9.8 L3.35 8.9 4.25 7.4 3.45 7.55 3.6 6.65 3.25 5.8 2.85 5.05 Q2.85 4.5 3.4 4.3 3.1 4.65 3.1 5.05 3.1 5.35 3.65 6.05 4.25 6.75 4.4 7.65 L4.85 7.65 5.3 6.45 M1.75 -7.15 L0.5 -7.0 -0.5 -7.1 -2.2 -5.6 -3.55 -5.75 -3.95 -6.75 -3.15 -6.4 -2.15 -10.15 -1.85 -9.25 -1.3 -8.7 -0.05 -7.7 1.8 -7.95 1.75 -7.15 M-0.2 8.55 L0.1 8.9 0.6 9.8 0.25 10.75 Q-0.2 11.25 -1.0 11.25 -2.55 11.25 -3.0 10.3 L-3.15 9.3 -2.9 8.35 -2.8 8.25 -2.8 9.0 Q-2.35 9.3 -2.35 9.65 L-0.85 9.85 Q-0.15 9.85 0.1 9.5 L-0.2 8.55 M-4.2 -5.25 L-4.1 -5.3 -3.15 -5.15 -3.55 -5.25 Q-4.65 -5.4 -4.65 -4.45 -4.6 -3.6 -4.25 -3.25 -4.0 -3.0 -3.6 -3.0 L-2.9 -3.1 -2.75 -3.15 -2.85 -2.5 Q-3.1 -1.5 -3.85 -1.5 -5.05 -1.5 -5.4 -2.65 L-5.45 -3.25 -5.5 -4.0 Q-5.5 -5.1 -4.2 -5.25 M-2.35 5.85 L-2.3 6.3 Q-2.3 7.25 -3.5 7.25 -4.65 7.25 -4.65 5.4 L-4.4 4.65 -4.5 5.25 -4.4 6.35 -3.25 6.6 -2.7 6.25 -2.35 5.85" fill="#990000" fill-rule="evenodd" stroke="none"/>
      <path d="M1.05 -10.4 L1.3 -10.4 1.1 -10.3 1.05 -10.4 M1.65 -10.85 L0.5 -11.35 0.25 -12.0 -0.35 -14.1 -0.85 -15.55 Q-1.35 -16.0 -1.25 -16.6 L-0.85 -17.35 0.2 -17.8 Q2.1 -17.8 2.5 -16.3 L1.85 -15.3 1.8 -14.0 1.65 -10.85 M1.75 16.8 L1.75 20.75 Q1.5 20.75 1.5 21.25 L-1.25 21.5 -1.4 18.0 -1.6 15.75 -1.75 14.5 -0.55 15.15 0.95 16.25 1.0 16.5 1.75 16.65 1.75 16.8" fill="#ffffff" fill-rule="evenodd" stroke="none"/>
      <path d="M1.75 -10.25 L1.35 -10.1 1.35 -10.4 1.8 -10.4 1.75 -10.25 M1.85 -10.5 L1.65 -10.85 1.8 -14.0 2.5 -12.95 1.85 -10.5 M-0.85 -15.55 L-0.35 -14.1 0.25 -12.0 -0.3 -12.05 Q-0.95 -12.3 -1.35 -13.0 -2.3 -14.75 -0.85 -15.55" fill="#650101" fill-rule="evenodd" stroke="none"/>
      <path d="M5.85 -16.8 L7.5 -18.5 6.6 -14.5 6.0 -11.0 Q6.0 -10.75 6.35 -9.75 L6.5 -9.35 5.9 -8.15 5.85 -8.05 5.9 -14.4 6.0 -16.3 5.85 -16.8 M4.95 14.25 L4.65 13.95 3.35 12.6 Q2.9 12.6 1.6 13.5 L0.6 14.25 0.15 14.2 Q-0.85 11.25 -3.9 13.55 L-4.45 14.0 -5.85 15.2 -6.9 16.1 -5.8 11.25 -5.1 8.1 Q-5.1 6.15 -5.4 2.7 L-5.45 2.0 -5.75 -2.55 -5.75 -3.05 -5.75 -3.25 -5.8 -6.65 -5.9 -9.95 -5.9 -9.9 -5.8 -9.45 -5.5 -9.25 -5.35 -9.45 -5.3 -9.4 Q-4.8 -8.8 -4.7 -7.65 L-4.45 -5.8 -4.2 -5.25 Q-5.5 -5.1 -5.5 -4.0 L-5.45 -3.25 -5.4 -2.65 Q-5.05 -1.5 -3.85 -1.5 -3.1 -1.5 -2.85 -2.5 L-2.75 -3.15 -2.55 -3.25 -2.5 -4.1 -1.45 -3.85 Q-0.55 -4.65 -0.5 -7.1 L0.5 -7.0 -0.4 -6.75 Q-0.25 -6.0 0.35 -5.5 L1.35 -5.05 1.75 -4.0 2.25 -4.2 2.25 -4.1 Q1.5 -3.7 1.4 -3.25 L1.35 -3.05 1.5 -2.25 1.55 -2.2 1.5 -1.75 Q1.4 -1.25 1.55 -0.85 1.75 -0.2 2.35 -0.05 L2.4 2.0 2.55 4.85 2.95 2.0 3.3 0.0 Q3.85 -0.1 4.3 -0.35 L4.3 2.0 4.3 3.9 4.0 3.75 3.4 4.3 Q2.85 4.5 2.85 5.05 L3.25 5.8 3.6 6.65 3.45 7.55 2.75 8.05 1.75 9.4 1.75 10.5 1.9 10.6 1.9 10.95 Q2.15 11.65 3.0 11.65 L3.95 11.35 4.15 10.5 Q4.15 10.1 4.3 9.7 L4.65 12.5 4.85 13.65 4.95 14.25 M-5.55 -12.95 L-5.75 -13.5 -6.75 -15.25 -6.75 -20.25 -5.75 -19.25 Q-5.15 -19.7 -4.7 -21.35 L-4.0 -23.75 -2.8 -21.35 -4.05 -19.3 -4.1 -19.25 Q-5.4 -17.3 -5.45 -14.05 L-5.55 -12.95 M-2.8 8.25 L-2.9 8.35 -3.15 9.3 -3.0 10.3 Q-2.55 11.25 -1.0 11.25 -0.2 11.25 0.25 10.75 L0.6 9.8 0.1 8.9 -0.2 8.55 -0.8 7.95 -2.8 8.0 -2.8 8.25 M-4.4 4.65 L-4.65 5.4 Q-4.65 7.25 -3.5 7.25 -2.3 7.25 -2.3 6.3 L-2.35 5.85 -2.25 5.55 Q-2.25 4.9 -3.35 4.4 -4.2 4.05 -4.4 4.65" fill="#943939" fill-rule="evenodd" stroke="none"/>
      <path d="M5.9 10.95 L6.75 14.1 Q6.55 13.9 7.5 16.35 L4.95 14.25 4.85 13.65 4.65 12.5 4.3 9.7 4.8 8.5 5.4 7.05 5.3 6.45 5.35 5.85 5.3 4.9 Q5.1 4.3 4.3 3.9 L4.3 2.0 4.3 -0.35 4.7 -0.65 Q5.35 -1.3 5.35 -2.25 L5.15 -3.25 4.8 -3.7 Q4.55 -4.75 3.4 -4.5 L3.4 -4.9 Q4.4 -5.65 5.1 -6.8 L5.85 -8.05 5.9 -8.15 5.5 1.0 5.5 1.15 5.55 2.0 5.7 4.95 5.9 10.95 M-5.8 11.25 L-6.1 9.1 Q-6.55 7.45 -6.5 3.7 L-6.5 2.0 Q-6.5 -0.55 -6.75 -2.05 L-6.85 -3.25 -7.2 -9.4 -7.25 -10.6 -6.85 -10.45 -5.9 -9.95 -5.8 -6.65 -5.75 -3.25 -5.75 -3.05 -5.75 -2.55 -5.45 2.0 -5.4 2.7 Q-5.1 6.15 -5.1 8.1 L-5.8 11.25 M2.35 -0.05 L2.85 0.0 3.3 0.0 2.95 2.0 2.55 4.85 2.4 2.0 2.35 -0.05" fill="#b74040" fill-rule="evenodd" stroke="none"/>
      <path d="M6.5 -9.35 L7.0 -10.65 7.2 -11.1 7.3 -6.0 7.05 -2.45 6.7 2.0 6.65 2.6 6.5 4.95 5.9 10.95 5.7 4.95 5.55 2.0 5.5 1.15 5.5 1.0 5.9 -8.15 6.5 -9.35" fill="#ca6868" fill-rule="evenodd" stroke="none"/>
    </g>
  </defs>
</svg>
