<?xml version="1.0" encoding="UTF-8" standalone="no"?>
<svg xmlns:ffdec="https://www.free-decompiler.com/flash" xmlns:xlink="http://www.w3.org/1999/xlink" ffdec:objectType="frame" height="10.85px" width="18.8px" xmlns="http://www.w3.org/2000/svg">
  <g transform="matrix(1.0, 0.0, 0.0, 1.0, 9.4, 5.6)">
    <use ffdec:characterId="870" height="10.85" transform="matrix(1.0, 0.0, 0.0, 1.0, -9.4, -5.6)" width="18.8" xlink:href="#shape0"/>
  </g>
  <defs>
    <g id="shape0" transform="matrix(1.0, 0.0, 0.0, 1.0, 9.4, 5.6)">
      <path d="M1.25 -0.85 L1.1 -1.3 2.15 -1.25 2.05 -1.1 1.45 -0.7 1.25 -0.85 M0.25 -2.7 Q0.6 -2.4 0.35 -2.0 L0.25 -1.85 0.1 -1.9 -0.25 -2.2 Q-0.45 -2.5 0.15 -2.75 L0.25 -2.7 M2.8 -0.1 L2.5 -0.5 2.7 -0.9 3.3 -0.9 3.35 -0.7 Q3.35 -0.15 2.8 -0.1 M4.35 -0.35 L4.65 -0.4 5.2 -0.15 4.45 0.25 4.35 -0.35 M-0.75 -5.15 L-1.6 -3.8 -1.35 -3.3 -1.55 -2.65 Q-1.85 -2.15 -2.2 -2.15 L-3.25 -2.55 -3.75 -3.0 -4.0 -3.25 -4.4 -3.1 -4.8 -3.35 -5.2 -3.7 -5.0 -3.75 -6.9 -3.75 -7.25 -4.05 -7.4 -4.4 -8.05 -5.45 -6.9 -5.55 -6.5 -5.1 Q-5.35 -5.2 -4.3 -5.6 L-2.4 -5.4 -2.0 -4.7 -1.45 -5.2 -0.75 -5.15 M1.05 4.75 L1.35 4.65 1.55 4.65 1.55 4.6 1.6 4.6 2.85 4.65 5.2 4.3 6.65 3.75 6.6 3.6 7.3 3.25 9.1 3.05 9.4 3.7 9.3 3.7 8.5 4.25 6.05 5.2 3.5 5.1 1.05 4.75" fill="#472512" fill-rule="evenodd" stroke="none"/>
      <path d="M0.25 -2.7 L0.15 -2.75 Q-0.45 -2.5 -0.25 -2.2 L0.1 -1.9 0.25 -1.85 0.35 -2.0 Q0.6 -2.4 0.25 -2.7 M1.25 -0.85 L1.45 -0.7 2.05 -1.1 2.15 -1.25 1.1 -1.3 1.25 -0.85 M6.25 0.55 L5.3 0.65 Q4.95 0.65 5.35 1.0 L5.15 1.25 Q2.85 2.7 0.35 1.45 L0.2 1.3 0.15 1.1 0.3 0.7 -0.25 0.1 -0.05 -0.15 Q0.65 0.0 0.5 -0.4 0.65 -0.8 0.1 -0.8 L-1.0 -0.85 Q-1.15 0.15 -1.8 0.9 L-2.65 1.1 Q-2.8 0.15 -3.55 -0.15 -3.9 0.6 -4.8 0.15 -5.35 0.0 -5.55 -0.6 L-5.35 -0.85 -5.0 -1.0 -5.6 -0.95 -6.2 -2.2 -7.05 -0.1 -7.65 -1.1 -7.5 -2.8 -7.6 -2.95 -7.8 -3.0 -7.85 -2.9 -7.9 -3.9 -8.4 -3.25 -8.6 -4.3 -8.45 -5.1 -8.05 -5.45 -7.4 -4.4 -7.25 -4.05 -6.9 -3.75 -5.0 -3.75 -5.2 -3.7 -5.45 -3.65 Q-5.15 -2.95 -4.4 -3.1 L-4.0 -3.25 -3.75 -3.0 -3.25 -2.55 -2.2 -2.15 Q-1.85 -2.15 -1.55 -2.65 L-1.35 -3.3 -1.6 -3.8 -0.75 -5.15 -0.25 -4.55 Q0.4 -1.2 6.2 -1.05 L7.25 -0.6 Q9.4 0.15 8.65 2.1 L7.3 3.25 6.6 3.6 6.65 3.75 5.2 4.3 2.85 4.65 1.6 4.6 1.55 4.6 1.55 4.65 1.35 4.65 1.05 4.75 0.95 4.75 0.6 4.65 0.25 4.4 0.0 4.35 -0.1 4.3 -0.5 4.05 Q-0.7 3.85 -1.15 3.8 -1.3 3.55 -3.0 3.35 L-3.55 3.2 -3.55 3.3 -3.7 3.55 -4.05 3.9 -3.8 4.2 -3.7 4.5 -4.05 4.75 -4.55 4.6 -5.5 4.4 -6.15 4.3 -6.7 4.45 -7.2 4.35 -7.25 4.35 -7.6 3.95 -7.7 3.35 -7.6 3.2 -7.1 2.85 -7.1 2.7 -7.55 2.6 -8.45 2.35 -8.55 2.15 -8.4 1.7 -4.9 2.4 -0.95 2.85 2.4 3.6 4.0 3.55 4.7 3.4 5.5 3.15 6.2 2.8 7.55 1.95 8.05 1.3 Q7.95 0.65 7.45 0.15 L7.2 0.1 6.95 0.15 6.25 -0.15 6.2 -0.05 6.25 0.55 M1.4 -0.1 L1.45 -0.35 1.25 -0.4 1.4 -0.25 1.4 -0.1 M2.8 -0.1 Q3.35 -0.15 3.35 -0.7 L3.3 -0.9 2.7 -0.9 2.5 -0.5 2.8 -0.1 M4.35 -0.35 L4.45 0.25 5.2 -0.15 4.65 -0.4 4.35 -0.35 M-0.1 -1.4 L-0.15 -1.85 -0.2 -1.8 -0.15 -1.75 -0.1 -1.4" fill="#8d4925" fill-rule="evenodd" stroke="none"/>
      <path d="M-7.65 -1.1 L-7.05 -0.1 -6.2 -2.2 -5.6 -0.95 -5.0 -1.0 -5.35 -0.85 -5.55 -0.6 Q-5.35 0.0 -4.8 0.15 -3.9 0.6 -3.55 -0.15 -2.8 0.15 -2.65 1.1 L-1.8 0.9 Q-1.15 0.15 -1.0 -0.85 L0.1 -0.8 Q0.65 -0.8 0.5 -0.4 0.65 0.0 -0.05 -0.15 L-0.25 0.1 0.3 0.7 0.15 1.1 0.2 1.3 0.35 1.45 Q2.85 2.7 5.15 1.25 L5.35 1.0 Q4.95 0.65 5.3 0.65 L6.25 0.55 6.9 0.8 7.35 1.0 7.35 1.1 7.55 1.95 6.2 2.8 5.5 3.15 4.7 3.4 4.0 3.55 2.4 3.6 -0.95 2.85 -4.9 2.4 -8.4 1.7 -8.55 2.15 -8.45 2.35 -7.55 2.6 -7.1 2.7 -7.1 2.85 -7.6 3.2 -7.7 3.35 -7.6 3.95 -7.25 4.35 -9.4 4.05 -9.05 2.65 -9.0 1.75 -8.9 -0.2 -8.8 -1.9 -8.7 -3.5 -8.6 -4.3 -8.4 -3.25 -8.35 -1.55 -8.1 0.15 -7.65 -1.1 M1.4 -0.1 L1.4 -0.25 1.25 -0.4 1.45 -0.35 1.4 -0.1 M0.6 4.65 L-3.0 3.9 -3.4 4.9 -6.7 4.45 -6.15 4.3 -5.5 4.4 -4.55 4.6 -4.05 4.75 -3.7 4.5 -3.8 4.2 -4.05 3.9 -3.7 3.55 -3.55 3.3 -3.55 3.2 -3.0 3.35 Q-1.3 3.55 -1.15 3.8 -0.7 3.85 -0.5 4.05 L-0.1 4.3 0.0 4.35 0.25 4.4 0.6 4.65 M-0.1 -1.4 L-0.15 -1.75 -0.2 -1.8 -0.15 -1.85 -0.1 -1.4" fill="#67351b" fill-rule="evenodd" stroke="none"/>
      <path d="M-7.65 -1.1 L-8.1 0.15 -8.35 -1.55 -8.4 -3.25 -7.9 -3.9 -7.85 -2.9 -7.8 -3.0 -7.6 -2.95 -7.5 -2.8 -7.65 -1.1 M7.55 1.95 L7.35 1.1 7.35 1.0 6.9 0.8 6.25 0.55 6.2 -0.05 6.25 -0.15 6.95 0.15 7.2 0.1 7.45 0.15 Q7.95 0.65 8.05 1.3 L7.55 1.95 M-4.4 -3.1 Q-5.15 -2.95 -5.45 -3.65 L-5.2 -3.7 -4.8 -3.35 -4.4 -3.1" fill="#d17d50" fill-rule="evenodd" stroke="none"/>
    </g>
  </defs>
</svg>
