<?xml version="1.0" encoding="UTF-8" standalone="no"?>
<svg xmlns:ffdec="https://www.free-decompiler.com/flash" xmlns:xlink="http://www.w3.org/1999/xlink" ffdec:objectType="frame" height="89.25px" width="60.75px" xmlns="http://www.w3.org/2000/svg">
  <g transform="matrix(1.0, 0.0, 0.0, 1.0, 31.25, 45.65)">
    <use ffdec:characterId="1694" height="87.1" transform="matrix(1.0, 0.0, 0.0, 1.0, -30.4, -43.5)" width="59.65" xlink:href="#shape0"/>
    <use ffdec:characterId="1081" height="100.0" id="shape" transform="matrix(0.48, 0.0, 0.0, 0.8, -23.9983, -40.0009)" width="100.0" xlink:href="#sprite0"/>
  </g>
  <defs>
    <g id="shape0" transform="matrix(1.0, 0.0, 0.0, 1.0, 30.4, 43.5)">
      <path d="M28.05 -24.6 Q28.8 -22.35 29.1 -19.95 29.0 -12.75 24.6 4.4 L21.55 11.9 Q18.65 17.95 17.4 26.0 16.15 34.1 15.25 36.95 13.4 39.55 11.05 41.15 7.45 43.6 2.35 43.6 -11.2 43.6 -16.1 36.4 -17.6 34.15 -18.25 31.15 L-18.45 29.9 -18.8 28.0 -19.9 25.1 -20.6 19.5 Q-21.25 14.35 -21.2 11.9 L-21.15 6.6 Q-21.15 3.7 -22.25 1.95 -23.35 0.2 -27.05 -8.2 L-29.1 -13.2 Q-30.6 -19.35 -30.4 -23.9 -30.3 -26.7 -29.85 -29.0 -29.85 -21.75 -25.95 -14.5 L-22.5 -5.15 -22.15 -7.9 Q-21.55 -12.2 -21.55 -14.0 L-21.4 -14.0 Q-18.75 2.65 -18.75 4.4 L-18.75 6.55 -16.25 0.9 Q-15.15 -2.0 -14.7 -6.2 -14.4 -8.6 -14.05 -13.25 L-13.9 -13.25 Q-13.75 -11.55 -13.75 -8.3 -13.75 -5.95 -14.25 -3.5 L-14.75 0.0 Q-14.75 0.6 -15.25 3.0 -15.25 4.2 -16.35 8.25 L-16.55 9.05 -16.15 11.95 -15.0 17.4 -13.75 17.4 Q-12.75 15.8 -10.25 14.4 L-10.25 16.4 Q-10.7 18.25 -12.0 21.65 -13.0 24.75 -13.0 27.4 -13.0 31.4 -10.4 36.65 -9.3 38.85 -8.2 40.15 -3.55 42.1 2.25 42.35 7.15 41.8 8.75 40.85 L10.1 40.05 11.0 39.45 12.0 38.45 Q12.75 37.55 13.6 33.65 14.45 29.75 14.9 24.45 15.35 19.1 17.25 15.05 L20.1 8.9 17.85 10.2 Q7.75 15.55 4.75 18.5 L4.6 18.4 Q7.95 13.95 15.6 8.5 16.6 7.85 19.35 6.1 21.75 4.55 22.1 3.6 L23.2 1.3 Q24.15 -4.5 26.45 -13.6 28.45 -21.7 28.05 -24.6 M10.5 -1.3 L10.05 -1.4 Q12.25 -3.4 14.3 -7.0 16.45 -9.7 24.8 -12.55 L21.05 -9.3 Q20.4 -8.7 19.8 -7.45 19.2 -6.25 15.25 -4.05 11.3 -1.9 10.5 -1.3" fill="#ad4949" fill-rule="evenodd" stroke="none"/>
      <path d="M-29.85 -29.0 Q-29.15 -32.75 -27.55 -35.25 -25.5 -38.45 -21.8 -40.4 L-21.65 -40.5 Q-20.35 -41.2 -18.8 -41.7 -14.6 -43.2 -8.75 -43.5 L-2.25 -43.5 Q4.35 -43.5 9.55 -42.25 L11.75 -42.0 Q14.3 -41.3 17.1 -39.65 19.0 -39.0 20.25 -38.05 L21.15 -36.85 Q23.6 -34.85 24.8 -32.6 L27.05 -27.4 27.85 -25.25 28.05 -24.6 Q28.45 -21.7 26.45 -13.6 24.15 -4.5 23.2 1.3 L22.1 3.6 Q21.75 4.55 19.35 6.1 16.6 7.85 15.6 8.5 7.95 13.95 4.6 18.4 L4.75 18.5 Q7.75 15.55 17.85 10.2 L20.1 8.9 17.25 15.05 Q15.35 19.1 14.9 24.45 14.45 29.75 13.6 33.65 12.75 37.55 12.0 38.45 L11.0 39.45 10.1 40.05 8.75 40.85 Q7.15 41.8 2.25 42.35 -3.55 42.1 -8.2 40.15 -9.3 38.85 -10.4 36.65 -13.0 31.4 -13.0 27.4 -13.0 24.75 -12.0 21.65 -10.7 18.25 -10.25 16.4 L-10.25 14.4 Q-12.75 15.8 -13.75 17.4 L-15.0 17.4 -16.15 11.95 -16.55 9.05 -16.35 8.25 Q-15.25 4.2 -15.25 3.0 -14.75 0.6 -14.75 0.0 L-14.25 -3.5 Q-13.75 -5.95 -13.75 -8.3 -13.75 -11.55 -13.9 -13.25 L-14.05 -13.25 Q-14.4 -8.6 -14.7 -6.2 -15.15 -2.0 -16.25 0.9 L-18.75 6.55 -18.75 4.4 Q-18.75 2.65 -21.4 -14.0 L-21.55 -14.0 Q-21.55 -12.2 -22.15 -7.9 L-22.5 -5.15 -25.95 -14.5 Q-29.85 -21.75 -29.85 -29.0 M10.5 -1.3 Q11.3 -1.9 15.25 -4.05 19.2 -6.25 19.8 -7.45 20.4 -8.7 21.05 -9.3 L24.8 -12.55 Q16.45 -9.7 14.3 -7.0 12.25 -3.4 10.05 -1.4 L10.5 -1.3" fill="#8e3c3c" fill-rule="evenodd" stroke="none"/>
      <path d="M29.1 -19.95 Q29.4 -17.3 29.15 -14.45 L29.05 -13.25 Q28.25 -7.2 25.05 7.6 L22.0 15.75 Q21.05 18.1 20.2 22.95 L18.5 30.25 Q17.15 34.2 15.25 36.95 16.15 34.1 17.4 26.0 18.65 17.95 21.55 11.9 L24.6 4.4 Q29.0 -12.75 29.1 -19.95 M-19.9 25.1 Q-22.85 17.2 -22.8 12.0 -22.75 5.85 -26.7 -5.4 -28.2 -9.6 -29.1 -13.2 L-27.05 -8.2 Q-23.35 0.2 -22.25 1.95 -21.15 3.7 -21.15 6.6 L-21.2 11.9 Q-21.25 14.35 -20.6 19.5 L-19.9 25.1" fill="#e98d8d" fill-rule="evenodd" stroke="none"/>
    </g>
    <g id="sprite0" transform="matrix(1.0, 0.0, 0.0, 1.0, 50.0, 50.0)">
      <use ffdec:characterId="1080" height="100.0" transform="matrix(1.0, 0.0, 0.0, 1.0, -50.0, -50.0)" width="100.0" xlink:href="#shape1"/>
    </g>
    <g id="shape1" transform="matrix(1.0, 0.0, 0.0, 1.0, 50.0, 50.0)">
      <path d="M50.0 50.0 L-50.0 50.0 -50.0 -50.0 50.0 -50.0 50.0 50.0 Z" fill="none" stroke="#9900ff" stroke-linecap="round" stroke-linejoin="round" stroke-width="0.05"/>
    </g>
  </defs>
</svg>
