<?xml version="1.0" encoding="UTF-8" standalone="no"?>
<svg xmlns:ffdec="https://www.free-decompiler.com/flash" xmlns:xlink="http://www.w3.org/1999/xlink" ffdec:objectType="frame" height="181.0px" width="500.0px" xmlns="http://www.w3.org/2000/svg">
  <g transform="matrix(1.0, 0.0, 0.0, 1.0, 0.0, 20.5)">
    <use ffdec:characterId="2733" height="120.0" transform="matrix(1.0, 0.0, 0.0, 1.0, 0.0, 0.0)" width="500.0" xlink:href="#shape0"/>
    <use ffdec:characterId="2738" height="129.0" transform="matrix(0.5, 0.0, 0.0, 0.5, 67.5, 96.0)" width="182.0" xlink:href="#sprite0"/>
    <use ffdec:characterId="2743" height="42.0" transform="matrix(0.5, 0.0, 0.0, 0.5, 159.5, 97.0)" width="123.0" xlink:href="#sprite2"/>
    <use ffdec:characterId="2750" height="41.0" id="rail" transform="matrix(0.5001, 0.0, 0.0, 0.5, 4.8, -20.5)" width="981.5" xlink:href="#sprite4"/>
    <use ffdec:characterId="2751" height="120.0" transform="matrix(1.0, 0.0, 0.0, 1.0, 0.0, 0.0)" width="66.0" xlink:href="#shape10"/>
    <use ffdec:characterId="2753" height="240.0" id="sideShadow" transform="matrix(0.5, 0.0, 0.0, 0.5, 455.0, 0.0)" width="90.0" xlink:href="#sprite8"/>
  </g>
  <defs>
    <g id="shape0" transform="matrix(1.0, 0.0, 0.0, 1.0, 0.0, 0.0)">
      <path d="M496.0 20.0 L496.0 1.85 448.0 1.85 446.0 1.85 446.0 20.0 496.0 20.0 M226.0 0.0 L500.0 0.0 500.0 20.0 500.0 42.0 500.0 59.0 500.0 60.0 500.0 98.0 500.0 100.0 500.0 120.0 496.0 120.0 446.0 120.0 444.0 120.0 394.0 120.0 392.0 120.0 392.0 118.0 394.0 118.0 444.0 118.0 446.0 118.0 496.0 118.0 496.0 100.0 448.0 100.0 446.0 100.0 444.0 100.0 418.0 100.0 394.0 100.0 392.0 100.0 334.0 100.0 332.0 100.0 282.0 100.0 280.0 100.0 230.0 100.0 230.0 118.0 280.0 118.0 282.0 118.0 332.0 118.0 334.0 118.0 334.0 120.0 332.0 120.0 282.0 120.0 280.0 120.0 226.0 120.0 0.0 120.0 0.0 100.0 0.0 98.0 32.0 98.0 32.0 60.0 32.0 59.0 32.0 42.0 32.0 22.0 0.0 22.0 0.0 20.0 32.0 20.0 32.0 1.85 0.0 1.85 0.0 0.0 160.0 0.0 160.0 1.85 136.5 1.85 131.0 1.85 114.0 1.85 114.0 20.0 160.0 20.0 160.0 22.0 136.5 22.0 131.0 22.0 114.0 22.0 114.0 42.0 114.0 59.0 114.0 60.0 114.0 98.0 160.0 98.0 160.0 118.0 162.0 118.0 221.0 118.0 224.0 118.0 226.0 118.0 226.0 98.0 280.0 98.0 280.0 60.0 280.0 59.0 280.0 42.0 280.0 22.0 226.0 22.0 226.0 20.0 280.0 20.0 280.0 1.85 226.0 1.85 226.0 0.0 M496.0 42.0 L496.0 22.0 448.0 22.0 446.0 22.0 446.0 42.0 446.0 59.0 446.0 60.0 446.0 98.0 496.0 98.0 496.0 60.0 496.0 59.0 496.0 42.0 M444.0 1.85 L418.0 1.85 394.0 1.85 394.0 20.0 444.0 20.0 444.0 1.85 M444.0 42.0 L444.0 22.0 418.0 22.0 394.0 22.0 394.0 98.0 444.0 98.0 444.0 60.0 444.0 59.0 444.0 42.0 M332.0 20.0 L332.0 1.85 282.0 1.85 282.0 20.0 332.0 20.0 M392.0 20.0 L392.0 1.85 334.0 1.85 334.0 20.0 392.0 20.0 M332.0 98.0 L332.0 22.0 282.0 22.0 282.0 42.0 282.0 59.0 282.0 60.0 282.0 98.0 332.0 98.0 M334.0 22.0 L334.0 42.0 334.0 59.0 334.0 60.0 334.0 98.0 392.0 98.0 392.0 22.0 334.0 22.0 M112.0 20.0 L112.0 1.85 66.0 1.85 33.0 1.85 33.0 20.0 112.0 20.0 M112.0 42.0 L112.0 22.0 66.0 22.0 33.0 22.0 33.0 42.0 33.0 59.0 33.0 60.0 33.0 98.0 112.0 98.0 112.0 60.0 112.0 59.0 112.0 42.0 M7.0 118.0 L64.0 118.0 64.0 100.0 33.0 100.0 32.0 100.0 31.55 100.0 29.55 100.0 7.0 100.0 5.0 100.0 2.0 100.0 2.0 118.0 5.0 118.0 7.0 118.0 M70.0 118.0 L156.0 118.0 156.0 100.0 114.0 100.0 112.0 100.0 70.0 100.0 70.0 118.0" fill="#474849" fill-rule="evenodd" stroke="none"/>
      <path d="M496.0 20.0 L446.0 20.0 446.0 1.85 448.0 1.85 496.0 1.85 496.0 20.0 M392.0 120.0 L334.0 120.0 334.0 118.0 334.0 100.0 392.0 100.0 392.0 118.0 392.0 120.0 M0.0 20.0 L0.0 1.85 32.0 1.85 32.0 20.0 0.0 20.0 M226.0 1.85 L280.0 1.85 280.0 20.0 226.0 20.0 226.0 1.85 M160.0 20.0 L114.0 20.0 114.0 1.85 131.0 1.85 136.5 1.85 160.0 1.85 160.0 20.0 M446.0 100.0 L448.0 100.0 496.0 100.0 496.0 118.0 446.0 118.0 446.0 100.0 M444.0 118.0 L394.0 118.0 394.0 100.0 418.0 100.0 444.0 100.0 444.0 118.0 M444.0 1.85 L444.0 20.0 394.0 20.0 394.0 1.85 418.0 1.85 444.0 1.85 M392.0 20.0 L334.0 20.0 334.0 1.85 392.0 1.85 392.0 20.0 M332.0 20.0 L282.0 20.0 282.0 1.85 332.0 1.85 332.0 20.0 M332.0 100.0 L332.0 118.0 282.0 118.0 282.0 100.0 332.0 100.0 M280.0 118.0 L230.0 118.0 230.0 100.0 280.0 100.0 280.0 118.0 M112.0 20.0 L33.0 20.0 33.0 1.85 66.0 1.85 112.0 1.85 112.0 20.0" fill="#595959" fill-rule="evenodd" stroke="none"/>
      <path d="M0.0 98.0 L0.0 60.0 0.0 59.0 0.0 42.0 0.0 22.0 32.0 22.0 32.0 42.0 32.0 59.0 32.0 60.0 32.0 98.0 0.0 98.0 M226.0 22.0 L280.0 22.0 280.0 42.0 280.0 59.0 280.0 60.0 280.0 98.0 226.0 98.0 226.0 60.0 226.0 59.0 226.0 42.0 226.0 22.0 M160.0 98.0 L114.0 98.0 114.0 60.0 114.0 59.0 114.0 42.0 114.0 22.0 131.0 22.0 136.5 22.0 160.0 22.0 160.0 42.0 160.0 59.0 160.0 60.0 160.0 98.0 M496.0 42.0 L496.0 59.0 496.0 60.0 496.0 98.0 446.0 98.0 446.0 60.0 446.0 59.0 446.0 42.0 446.0 22.0 448.0 22.0 496.0 22.0 496.0 42.0 M446.0 100.0 L446.0 118.0 444.0 118.0 444.0 100.0 446.0 100.0 M394.0 118.0 L392.0 118.0 392.0 100.0 394.0 100.0 394.0 118.0 M444.0 42.0 L444.0 59.0 444.0 60.0 444.0 98.0 394.0 98.0 394.0 22.0 418.0 22.0 444.0 22.0 444.0 42.0 M334.0 22.0 L392.0 22.0 392.0 98.0 334.0 98.0 334.0 60.0 334.0 59.0 334.0 42.0 334.0 22.0 M332.0 98.0 L282.0 98.0 282.0 60.0 282.0 59.0 282.0 42.0 282.0 22.0 332.0 22.0 332.0 98.0 M332.0 118.0 L332.0 100.0 334.0 100.0 334.0 118.0 332.0 118.0 M282.0 100.0 L282.0 118.0 280.0 118.0 280.0 100.0 282.0 100.0 M112.0 42.0 L112.0 59.0 112.0 60.0 112.0 98.0 33.0 98.0 33.0 60.0 33.0 59.0 33.0 42.0 33.0 22.0 66.0 22.0 112.0 22.0 112.0 42.0" fill="#4b4b4d" fill-rule="evenodd" stroke="none"/>
      <path d="M224.0 118.0 L221.0 118.0 221.0 100.0 224.0 100.0 224.0 118.0" fill="#443f43" fill-rule="evenodd" stroke="none"/>
      <path d="M226.0 22.0 L226.0 42.0 226.0 59.0 226.0 60.0 226.0 98.0 194.0 98.0 194.0 60.0 194.0 59.0 194.0 42.0 194.0 22.0 226.0 22.0 M160.0 22.0 L193.0 22.0 193.0 42.0 193.0 59.0 193.0 60.0 193.0 98.0 160.0 98.0 160.0 60.0 160.0 59.0 160.0 42.0 160.0 22.0" fill="#9f9fa0" fill-rule="evenodd" stroke="none"/>
      <path d="M160.0 0.0 L226.0 0.0 226.0 1.85 194.0 1.85 194.0 20.0 226.0 20.0 226.0 22.0 194.0 22.0 194.0 42.0 194.0 59.0 194.0 60.0 194.0 98.0 226.0 98.0 226.0 118.0 224.0 118.0 224.0 100.0 221.0 100.0 194.0 100.0 193.0 100.0 162.0 100.0 162.0 118.0 160.0 118.0 160.0 98.0 193.0 98.0 193.0 60.0 193.0 59.0 193.0 42.0 193.0 22.0 160.0 22.0 160.0 20.0 193.0 20.0 193.0 1.85 160.0 1.85 160.0 0.0" fill="#938e8e" fill-rule="evenodd" stroke="none"/>
      <path d="M5.0 118.0 L2.0 118.0 2.0 100.0 5.0 100.0 5.0 118.0" fill="#3f4041" fill-rule="evenodd" stroke="none"/>
      <path d="M7.0 118.0 L5.0 118.0 5.0 100.0 7.0 100.0 7.0 118.0" fill="#000000" fill-rule="evenodd" stroke="none"/>
      <path d="M7.0 100.0 L29.55 100.0 31.55 100.0 32.0 100.0 33.0 100.0 64.0 100.0 64.0 118.0 7.0 118.0 7.0 100.0" fill="#aeb4b8" fill-rule="evenodd" stroke="none"/>
      <path d="M226.0 1.85 L226.0 20.0 194.0 20.0 194.0 1.85 226.0 1.85 M160.0 1.85 L193.0 1.85 193.0 20.0 160.0 20.0 160.0 1.85" fill="#b7b7b7" fill-rule="evenodd" stroke="none"/>
    </g>
    <g id="sprite0" transform="matrix(1.0, 0.0, 0.0, 1.0, 5.0, 8.0)">
      <clipPath id="clipPath0" transform="matrix(1.0, 0.0, 0.0, 1.0, 0.0, 0.0)">
        <path d="M172.0 0.0 L172.0 36.0 0.0 36.0 0.0 0.0 84.0 0.0 88.0 0.0 172.0 0.0" fill="#797d80" fill-rule="evenodd" stroke="none"/>
      </clipPath>
      <g clip-path="url(#clipPath0)">
        <use ffdec:characterId="2735" height="36.0" transform="matrix(1.0, 0.0, 0.0, 1.0, 0.0, 0.0)" width="172.0" xlink:href="#shape2"/>
        <filter id="filter0">
          <feConvolveMatrix divisor="9.0" in="SourceGraphic" kernelMatrix="1 1 1 1 1 1 1 1 1" order="3 3" result="filterResult0"/>
          <feConvolveMatrix divisor="9.0" in="filterResult0" kernelMatrix="1 1 1 1 1 1 1 1 1" order="3 3" result="filterResult1"/>
          <feConvolveMatrix divisor="9.0" in="filterResult1" kernelMatrix="1 1 1 1 1 1 1 1 1" order="3 3" result="filterResult2"/>
        </filter>
        <use ffdec:characterId="2737" filter="url(#filter0)" height="129.0" transform="matrix(1.0, 0.0, 0.0, 1.0, -5.0, -8.0)" width="182.0" xlink:href="#sprite1"/>
      </g>
    </g>
    <g id="shape2" transform="matrix(1.0, 0.0, 0.0, 1.0, 0.0, 0.0)">
      <path d="M172.0 0.0 L172.0 36.0 0.0 36.0 0.0 0.0 84.0 0.0 88.0 0.0 172.0 0.0" fill="#aeb4b8" fill-rule="evenodd" stroke="none"/>
    </g>
    <g id="sprite1" transform="matrix(1.0, 0.0, 0.0, 1.0, 5.0, 8.0)">
      <use ffdec:characterId="2736" height="129.0" transform="matrix(1.0, 0.0, 0.0, 1.0, -5.0, -8.0)" width="182.0" xlink:href="#shape3"/>
    </g>
    <g id="shape3" transform="matrix(1.0, 0.0, 0.0, 1.0, 5.0, 8.0)">
      <path d="M83.9 -8.0 L88.15 -8.0 177.0 -8.0 177.0 36.0 172.0 36.0 172.0 121.0 152.0 121.0 152.0 36.0 -5.0 36.0 -5.0 -8.0 83.9 -8.0" fill="#000000" fill-opacity="0.29803923" fill-rule="evenodd" stroke="none"/>
    </g>
    <g id="sprite2" transform="matrix(1.0, 0.0, 0.0, 1.0, 5.0, 6.0)">
      <clipPath id="clipPath1" transform="matrix(1.0, 0.0, 0.0, 1.0, 0.0, 0.0)">
        <path d="M118.0 0.0 L118.0 36.0 0.0 36.0 0.0 0.0 62.0 0.0 64.0 0.0 114.0 0.0 118.0 0.0" fill="#000000" fill-rule="evenodd" stroke="none"/>
      </clipPath>
      <g clip-path="url(#clipPath1)">
        <use ffdec:characterId="2740" height="36.0" transform="matrix(1.0, 0.0, 0.0, 1.0, 0.0, 0.0)" width="118.0" xlink:href="#shape5"/>
        <filter id="filter1">
          <feConvolveMatrix divisor="9.0" in="SourceGraphic" kernelMatrix="1 1 1 1 1 1 1 1 1" order="3 3" result="filterResult3"/>
          <feConvolveMatrix divisor="9.0" in="filterResult3" kernelMatrix="1 1 1 1 1 1 1 1 1" order="3 3" result="filterResult4"/>
          <feConvolveMatrix divisor="9.0" in="filterResult4" kernelMatrix="1 1 1 1 1 1 1 1 1" order="3 3" result="filterResult5"/>
        </filter>
        <use ffdec:characterId="2742" filter="url(#filter1)" height="42.0" transform="matrix(1.0, 0.0, 0.0, 1.0, -5.0, -6.0)" width="123.0" xlink:href="#sprite3"/>
      </g>
    </g>
    <g id="shape5" transform="matrix(1.0, 0.0, 0.0, 1.0, 0.0, 0.0)">
      <path d="M114.0 0.0 L114.0 36.0 0.0 36.0 0.0 0.0 62.0 0.0 64.0 0.0 114.0 0.0" fill="#dbdedf" fill-rule="evenodd" stroke="none"/>
      <path d="M114.0 36.0 L114.0 0.0 118.0 0.0 118.0 36.0 114.0 36.0" fill="#000000" fill-rule="evenodd" stroke="none"/>
    </g>
    <g id="sprite3" transform="matrix(1.0, 0.0, 0.0, 1.0, 5.0, 6.0)">
      <use ffdec:characterId="2741" height="42.0" transform="matrix(1.0, 0.0, 0.0, 1.0, -5.0, -6.0)" width="123.0" xlink:href="#shape6"/>
    </g>
    <g id="shape6" transform="matrix(1.0, 0.0, 0.0, 1.0, 5.0, 6.0)">
      <path d="M106.0 16.0 L21.5 16.0 -5.0 16.0 -5.0 -6.0 118.0 -6.0 118.0 36.0 110.0 36.0 110.0 16.0 106.0 16.0" fill="#000000" fill-opacity="0.29803923" fill-rule="evenodd" stroke="none"/>
    </g>
    <g id="sprite4" transform="matrix(1.0, 0.0, 0.0, 1.0, 0.0, 0.0)">
      <use ffdec:characterId="2745" height="36.0" transform="matrix(1.0, 0.0, 0.0, 1.0, 0.5, 5.0)" width="6.0" xlink:href="#sprite5"/>
      <use ffdec:characterId="2747" height="8.0" transform="matrix(1.0, 0.0, 0.0, 1.0, 0.0, 0.0)" width="8.0" xlink:href="#sprite6"/>
      <use ffdec:characterId="2747" height="8.0" transform="matrix(1.0, 0.0, 0.0, 1.0, 0.0, 10.0)" width="8.0" xlink:href="#sprite6"/>
      <use ffdec:characterId="2747" height="8.0" transform="matrix(1.0, 0.0, 0.0, 1.0, 0.0, 20.0)" width="8.0" xlink:href="#sprite6"/>
      <use ffdec:characterId="2745" height="36.0" transform="matrix(1.0, 0.0, 0.0, 1.0, 122.5, 5.0)" width="6.0" xlink:href="#sprite5"/>
      <use ffdec:characterId="2749" height="6.0" transform="matrix(1.2, 0.0, 0.0, 1.0, 6.5, 1.0)" width="100.0" xlink:href="#sprite7"/>
      <use ffdec:characterId="2749" height="6.0" transform="matrix(1.2, 0.0, 0.0, 1.0, 6.5, 11.0)" width="100.0" xlink:href="#sprite7"/>
      <use ffdec:characterId="2749" height="6.0" transform="matrix(1.2, 0.0, 0.0, 1.0, 6.5, 21.0)" width="100.0" xlink:href="#sprite7"/>
      <use ffdec:characterId="2745" height="36.0" transform="matrix(1.0, 0.0, 0.0, 1.0, 304.5, 5.0)" width="6.0" xlink:href="#sprite5"/>
      <use ffdec:characterId="2749" height="6.0" transform="matrix(1.8, 0.0, 0.0, 1.0, 125.5, 1.0)" width="100.0" xlink:href="#sprite7"/>
      <use ffdec:characterId="2747" height="8.0" transform="matrix(1.0, 0.0, 0.0, 1.0, 121.5, 0.0)" width="8.0" xlink:href="#sprite6"/>
      <use ffdec:characterId="2749" height="6.0" transform="matrix(1.8, 0.0, 0.0, 1.0, 125.5, 11.0)" width="100.0" xlink:href="#sprite7"/>
      <use ffdec:characterId="2749" height="6.0" transform="matrix(1.8, 0.0, 0.0, 1.0, 125.5, 21.0)" width="100.0" xlink:href="#sprite7"/>
      <use ffdec:characterId="2747" height="8.0" transform="matrix(1.0, 0.0, 0.0, 1.0, 121.5, 10.0)" width="8.0" xlink:href="#sprite6"/>
      <use ffdec:characterId="2747" height="8.0" transform="matrix(1.0, 0.0, 0.0, 1.0, 121.5, 20.0)" width="8.0" xlink:href="#sprite6"/>
      <use ffdec:characterId="2745" height="36.0" transform="matrix(1.0, 0.0, 0.0, 1.0, 426.5, 5.0)" width="6.0" xlink:href="#sprite5"/>
      <use ffdec:characterId="2747" height="8.0" transform="matrix(1.0, 0.0, 0.0, 1.0, 425.5, 0.0)" width="8.0" xlink:href="#sprite6"/>
      <use ffdec:characterId="2747" height="8.0" transform="matrix(1.0, 0.0, 0.0, 1.0, 425.5, 10.0)" width="8.0" xlink:href="#sprite6"/>
      <use ffdec:characterId="2747" height="8.0" transform="matrix(1.0, 0.0, 0.0, 1.0, 425.5, 20.0)" width="8.0" xlink:href="#sprite6"/>
      <use ffdec:characterId="2749" height="6.0" transform="matrix(1.2, 0.0, 0.0, 1.0, 306.5, 1.0)" width="100.0" xlink:href="#sprite7"/>
      <use ffdec:characterId="2749" height="6.0" transform="matrix(1.2, 0.0, 0.0, 1.0, 306.5, 11.0)" width="100.0" xlink:href="#sprite7"/>
      <use ffdec:characterId="2749" height="6.0" transform="matrix(1.2, 0.0, 0.0, 1.0, 306.5, 21.0)" width="100.0" xlink:href="#sprite7"/>
      <use ffdec:characterId="2747" height="8.0" transform="matrix(1.0, 0.0, 0.0, 1.0, 303.5, 0.0)" width="8.0" xlink:href="#sprite6"/>
      <use ffdec:characterId="2747" height="8.0" transform="matrix(1.0, 0.0, 0.0, 1.0, 303.5, 10.0)" width="8.0" xlink:href="#sprite6"/>
      <use ffdec:characterId="2747" height="8.0" transform="matrix(1.0, 0.0, 0.0, 1.0, 303.5, 20.0)" width="8.0" xlink:href="#sprite6"/>
      <use ffdec:characterId="2749" height="6.0" transform="matrix(5.2, 0.0, 0.0, 1.0, 456.5, 1.0)" width="100.0" xlink:href="#sprite7"/>
      <use ffdec:characterId="2749" height="6.0" transform="matrix(5.2, 0.0, 0.0, 1.0, 456.5, 11.0)" width="100.0" xlink:href="#sprite7"/>
      <use ffdec:characterId="2749" height="6.0" transform="matrix(5.2, 0.0, 0.0, 1.0, 456.5, 21.0)" width="100.0" xlink:href="#sprite7"/>
      <use ffdec:characterId="2745" height="36.0" transform="matrix(1.0, 0.0, 0.0, 1.0, 452.5, 5.0)" width="6.0" xlink:href="#sprite5"/>
      <use ffdec:characterId="2747" height="8.0" transform="matrix(1.0, 0.0, 0.0, 1.0, 451.5, 0.0)" width="8.0" xlink:href="#sprite6"/>
      <use ffdec:characterId="2747" height="8.0" transform="matrix(1.0, 0.0, 0.0, 1.0, 451.5, 10.0)" width="8.0" xlink:href="#sprite6"/>
      <use ffdec:characterId="2747" height="8.0" transform="matrix(1.0, 0.0, 0.0, 1.0, 451.5, 20.0)" width="8.0" xlink:href="#sprite6"/>
      <use ffdec:characterId="2745" height="36.0" transform="matrix(1.0, 0.0, 0.0, 1.0, 974.5, 5.0)" width="6.0" xlink:href="#sprite5"/>
      <use ffdec:characterId="2747" height="8.0" transform="matrix(1.0, 0.0, 0.0, 1.0, 973.5, 0.0)" width="8.0" xlink:href="#sprite6"/>
      <use ffdec:characterId="2747" height="8.0" transform="matrix(1.0, 0.0, 0.0, 1.0, 973.5, 10.0)" width="8.0" xlink:href="#sprite6"/>
      <use ffdec:characterId="2747" height="8.0" transform="matrix(1.0, 0.0, 0.0, 1.0, 973.5, 20.0)" width="8.0" xlink:href="#sprite6"/>
    </g>
    <g id="sprite5" transform="matrix(1.0, 0.0, 0.0, 1.0, 0.0, 0.0)">
      <use ffdec:characterId="2744" height="36.0" transform="matrix(1.0, 0.0, 0.0, 1.0, 0.0, 0.0)" width="6.0" xlink:href="#shape7"/>
    </g>
    <g id="shape7" transform="matrix(1.0, 0.0, 0.0, 1.0, 0.0, 0.0)">
      <path d="M6.0 0.0 L6.0 36.0 0.0 36.0 0.0 0.0 6.0 0.0" fill="url(#gradient0)" fill-rule="evenodd" stroke="none"/>
    </g>
    <linearGradient gradientTransform="matrix(0.0037, 0.0, 0.0, 0.022, 3.0, 18.0)" gradientUnits="userSpaceOnUse" id="gradient0" spreadMethod="pad" x1="-819.2" x2="819.2">
      <stop offset="0.0" stop-color="#999999"/>
      <stop offset="0.5176470588235295" stop-color="#666666"/>
      <stop offset="1.0" stop-color="#999999"/>
    </linearGradient>
    <g id="sprite6" transform="matrix(1.0, 0.0, 0.0, 1.0, 4.0, 0.0)">
      <use ffdec:characterId="2746" height="8.0" transform="matrix(1.0, 0.0, 0.0, 1.0, -4.0, 0.0)" width="8.0" xlink:href="#shape8"/>
    </g>
    <g id="shape8" transform="matrix(1.0, 0.0, 0.0, 1.0, 4.0, 0.0)">
      <path d="M0.0 8.0 Q-1.7 8.0 -2.9 6.8 -4.0 5.65 -4.0 4.0 -4.0 2.3 -2.9 1.1 -1.7 0.0 0.0 0.0 1.65 0.0 2.8 1.1 4.0 2.3 4.0 4.0 4.0 5.65 2.8 6.8 1.65 8.0 0.0 8.0" fill="url(#gradient1)" fill-rule="evenodd" stroke="none"/>
    </g>
    <radialGradient cx="0" cy="0" gradientTransform="matrix(0.0104, 0.0, 0.0, 0.0095, -0.15, 0.1)" gradientUnits="userSpaceOnUse" id="gradient1" r="819.2" spreadMethod="pad">
      <stop offset="0.0" stop-color="#d9dbe1"/>
      <stop offset="0.49019607843137253" stop-color="#666666"/>
      <stop offset="1.0" stop-color="#cccccc"/>
    </radialGradient>
    <g id="sprite7" transform="matrix(1.0, 0.0, 0.0, 1.0, 0.0, 0.0)">
      <use ffdec:characterId="2748" height="6.0" transform="matrix(1.0, 0.0, 0.0, 1.0, 0.0, 0.0)" width="100.0" xlink:href="#shape9"/>
    </g>
    <g id="shape9" transform="matrix(1.0, 0.0, 0.0, 1.0, 0.0, 0.0)">
      <path d="M100.0 6.0 L0.0 6.0 0.0 0.0 100.0 0.0 100.0 6.0" fill="url(#gradient2)" fill-rule="evenodd" stroke="none"/>
    </g>
    <linearGradient gradientTransform="matrix(0.0, 0.0034, -0.0043, 0.0, 92.85, 2.9)" gradientUnits="userSpaceOnUse" id="gradient2" spreadMethod="pad" x1="-819.2" x2="819.2">
      <stop offset="0.0" stop-color="#d9dbe1"/>
      <stop offset="0.36470588235294116" stop-color="#666666"/>
      <stop offset="1.0" stop-color="#cccccc"/>
    </linearGradient>
    <g id="shape10" transform="matrix(1.0, 0.0, 0.0, 1.0, 0.0, 0.0)">
      <path d="M0.0 0.0 L1.5 0.0 66.0 0.0 66.0 61.35 66.0 68.0 66.0 69.35 66.0 120.0 33.0 120.0 32.0 120.0 31.55 120.0 29.55 120.0 0.0 120.0 0.0 69.35 0.0 68.0 0.0 61.35 0.0 0.0" fill="#000000" fill-opacity="0.49803922" fill-rule="evenodd" stroke="none"/>
    </g>
    <g id="sprite8" transform="matrix(1.0, 0.0, 0.0, 1.0, 0.0, 0.0)">
      <use ffdec:characterId="2752" height="240.0" transform="matrix(1.0, 0.0, 0.0, 1.0, 0.0, 0.0)" width="90.0" xlink:href="#shape11"/>
    </g>
    <g id="shape11" transform="matrix(1.0, 0.0, 0.0, 1.0, 0.0, 0.0)">
      <path d="M90.0 240.0 L0.0 240.0 0.0 180.0 90.0 0.0 90.0 240.0" fill="#000000" fill-opacity="0.29803923" fill-rule="evenodd" stroke="none"/>
    </g>
  </defs>
</svg>
