<?xml version="1.0" encoding="UTF-8" standalone="no"?>
<svg xmlns:ffdec="https://www.free-decompiler.com/flash" xmlns:xlink="http://www.w3.org/1999/xlink" ffdec:objectType="frame" height="57.9px" width="57.9px" xmlns="http://www.w3.org/2000/svg">
  <g transform="matrix(1.0, 0.0, 0.0, 1.0, 28.95, 28.95)">
    <use ffdec:characterId="2615" height="19.5" id="jet3" transform="matrix(1.0, 0.0, 0.0, 1.0, -2.9, 9.45)" width="5.8" xlink:href="#sprite0"/>
    <use ffdec:characterId="2615" height="19.5" id="jet1" transform="matrix(-1.0, 0.0, 0.0, -1.0, 2.9, -9.45)" width="5.8" xlink:href="#sprite0"/>
    <use ffdec:characterId="2615" height="19.5" id="jet4" transform="matrix(1.0E-4, 1.0, -1.0, 1.0E-4, -9.4503, -2.8998)" width="5.8" xlink:href="#sprite0"/>
    <use ffdec:characterId="2615" height="19.5" id="jet2" transform="matrix(1.0E-4, -1.0, 1.0, 1.0E-4, 9.4497, 2.9002)" width="5.8" xlink:href="#sprite0"/>
    <use ffdec:characterId="2616" height="23.0" transform="matrix(1.0, 0.0, 0.0, 1.0, -11.5, -11.5)" width="23.0" xlink:href="#shape1"/>
    <use ffdec:characterId="2621" ffdec:characterName="game_fla.homingminelight_215" height="4.0" id="light" transform="matrix(1.0, 0.0, 0.0, 1.0, -2.0, -2.0)" width="4.0" xlink:href="#sprite1"/>
  </g>
  <defs>
    <g id="sprite0" transform="matrix(1.0, 0.0, 0.0, 1.0, 2.9, -2.45)">
      <use ffdec:characterId="2614" height="19.5" transform="matrix(1.0, 0.0, 0.0, 1.0, -2.9, 2.45)" width="5.8" xlink:href="#shape0"/>
    </g>
    <g id="shape0" transform="matrix(1.0, 0.0, 0.0, 1.0, 2.9, -2.45)">
      <path d="M0.0 21.95 Q-1.2 21.95 -2.05 19.15 -2.9 16.25 -2.9 12.2 -2.9 8.15 -2.05 5.3 -1.2 2.45 0.0 2.45 1.2 2.45 2.05 5.3 2.9 8.15 2.9 12.2 2.9 16.25 2.05 19.15 1.2 21.95 0.0 21.95" fill="url(#gradient0)" fill-rule="evenodd" stroke="none"/>
    </g>
    <radialGradient cx="0" cy="0" fx="598.4" fy="0" gradientTransform="matrix(0.0, -0.013, 0.0049, 0.0, 0.0, 12.2)" gradientUnits="userSpaceOnUse" id="gradient0" r="819.2" spreadMethod="pad">
      <stop offset="0.0" stop-color="#0000ff" stop-opacity="0.4"/>
      <stop offset="0.3215686274509804" stop-color="#bcbdfe" stop-opacity="0.29803923"/>
      <stop offset="0.8470588235294118" stop-color="#0000ff" stop-opacity="0.0"/>
    </radialGradient>
    <g id="shape1" transform="matrix(1.0, 0.0, 0.0, 1.0, 11.5, 11.5)">
      <path d="M11.5 -3.0 L11.5 3.0 3.0 3.0 3.0 11.5 -3.0 11.5 -3.0 3.0 -11.5 3.0 -11.5 -3.0 -3.0 -3.0 -3.0 -11.5 3.0 -11.5 3.0 -3.0 11.5 -3.0 M3.0 -3.0 L-3.0 -3.0 -3.0 3.0 3.0 3.0 3.0 -3.0" fill="#464646" fill-rule="evenodd" stroke="none"/>
      <path d="M6.0 -7.4 L5.6 -7.0 5.3 -7.55 4.1 -8.55 2.55 -9.15 0.85 -9.45 -0.85 -9.4 -2.0 -9.3 -3.25 -8.9 -4.6 -8.25 Q-5.25 -7.85 -5.5 -7.2 L-5.55 -6.95 -6.0 -7.4 -6.35 -7.75 Q-3.6 -10.0 0.0 -10.0 3.6 -10.0 6.35 -7.75 L6.0 -7.4 M4.65 -6.05 L2.0 -3.4 Q1.15 -4.05 0.0 -4.0 -1.15 -4.05 -2.0 -3.4 L-4.75 -6.15 -4.65 -6.15 -2.35 -6.25 1.25 -6.35 3.8 -6.15 4.65 -6.05 M-2.4 -0.6 L-1.75 -1.75 Q-1.05 -2.45 0.0 -2.5 1.0 -2.5 1.75 -1.75 L2.45 -0.65 2.5 0.0 Q2.45 1.05 1.75 1.75 1.0 2.5 0.0 2.5 -1.0 2.5 -1.75 1.75 -2.5 1.0 -2.5 0.0 L-2.4 -0.6 M7.4 -6.0 L7.75 -6.35 Q10.0 -3.6 10.0 0.0 10.0 3.6 7.75 6.35 L7.4 6.0 8.1 4.9 Q9.0 3.4 9.2 1.65 9.4 -0.15 9.15 -0.9 L8.8 0.3 Q8.25 1.45 7.1 1.45 L5.4 1.0 4.0 0.5 3.85 1.2 4.0 0.0 Q4.05 -1.15 3.4 -2.0 L7.4 -6.0 M6.0 7.4 L6.35 7.75 5.8 8.2 Q3.3 9.95 0.0 10.0 -3.25 10.0 -5.8 8.15 L-6.35 7.75 -6.0 7.4 -5.95 7.35 -5.9 7.4 -5.65 7.6 -5.3 7.75 -4.75 8.0 Q0.25 10.55 5.65 7.65 L5.75 7.6 6.0 7.4 M-7.4 6.0 L-7.75 6.35 Q-10.0 3.6 -10.0 0.0 -9.95 -3.65 -7.75 -6.35 L-7.4 -6.0 -3.4 -2.0 Q-3.95 -1.15 -4.0 0.0 L-3.85 1.15 -4.0 0.5 -7.05 1.25 Q-8.5 1.25 -8.95 -0.3 L-9.1 -1.45 -9.1 -1.95 -9.1 -2.35 -9.2 -2.1 -9.25 -1.95 -9.3 -1.9 -9.3 -1.7 -9.4 0.9 Q-9.4 2.8 -8.0 4.9 L-7.3 5.9 -7.4 6.0" fill="#cccccc" fill-rule="evenodd" stroke="none"/>
      <path d="M-6.25 -7.15 Q-4.9 -5.7 -4.05 -4.15 L-2.4 -0.6 -2.5 0.0 Q-2.5 1.0 -1.75 1.75 -1.0 2.5 0.0 2.5 1.0 2.5 1.75 1.75 2.45 1.05 2.5 0.0 L2.45 -0.65 4.05 -4.15 Q4.9 -5.7 6.25 -7.15 L6.7 -6.7 7.4 -6.0 3.4 -2.0 Q4.05 -1.15 4.0 0.0 L3.85 1.2 3.6 1.85 3.55 1.95 3.5 2.0 3.45 2.05 4.05 2.65 4.0 2.65 3.95 2.75 3.45 3.5 Q4.75 4.85 5.4 6.8 L2.5 3.9 2.05 3.45 1.3 3.8 0.0 4.0 -1.3 3.85 -2.0 3.5 -2.05 3.45 -2.55 4.0 -5.4 6.85 Q-4.8 4.9 -3.45 3.5 L-3.95 2.75 -4.0 2.65 -3.45 2.05 -3.85 1.15 -4.0 0.0 Q-3.95 -1.15 -3.4 -2.0 L-7.4 -6.0 -6.7 -6.7 -6.25 -7.15" fill="#666666" fill-rule="evenodd" stroke="none"/>
      <path d="M5.6 -7.0 L4.65 -6.05 3.8 -6.15 1.25 -6.35 -2.35 -6.25 -4.65 -6.15 -4.75 -6.15 -5.55 -6.95 -5.5 -7.2 Q-5.25 -7.85 -4.6 -8.25 L-3.25 -8.9 -2.0 -9.3 -0.85 -9.4 0.85 -9.45 2.55 -9.15 4.1 -8.55 5.3 -7.55 5.6 -7.0" fill="#e9e5e5" fill-rule="evenodd" stroke="none"/>
      <path d="M3.85 1.2 L4.0 0.5 5.4 1.0 7.1 1.45 Q8.25 1.45 8.8 0.3 L9.15 -0.9 Q9.4 -0.15 9.2 1.65 9.0 3.4 8.1 4.9 L7.4 6.0 4.05 2.65 3.45 2.05 3.5 2.0 3.55 1.95 3.6 1.85 3.85 1.2 M1.3 3.8 L2.05 3.45 2.5 3.9 1.6 3.8 1.3 3.8 M5.9 7.3 L6.0 7.4 5.75 7.6 5.9 7.3 M-5.3 7.75 L-5.65 7.6 -5.9 7.4 -5.95 7.35 -5.6 7.05 -5.55 7.25 -5.3 7.75 M-1.3 3.85 L-1.65 3.85 -2.55 4.0 -2.05 3.45 -2.0 3.5 -1.3 3.85 M-7.3 5.9 L-8.0 4.9 Q-9.4 2.8 -9.4 0.9 L-9.3 -1.7 -9.3 -1.9 -9.25 -1.95 -9.2 -2.1 -9.1 -2.35 -9.1 -1.95 -9.1 -1.45 -8.95 -0.3 Q-8.5 1.25 -7.05 1.25 L-4.0 0.5 -3.85 1.15 -3.45 2.05 -4.0 2.65 -7.3 5.9" fill="#a3a3b8" fill-rule="evenodd" stroke="none"/>
      <path d="M2.5 3.9 L5.4 6.8 5.9 7.3 5.75 7.6 5.65 7.65 Q5.45 7.15 4.7 6.6 3.95 6.0 1.1 5.85 -1.75 5.7 -3.25 6.35 -4.85 7.0 -4.85 7.4 L-4.75 8.0 -5.3 7.75 -5.55 7.25 -5.6 7.05 -5.4 6.85 -2.55 4.0 -1.65 3.85 -1.3 3.85 0.0 4.0 1.3 3.8 1.6 3.8 2.5 3.9" fill="#aeaebd" fill-rule="evenodd" stroke="none"/>
      <path d="M5.65 7.65 Q0.25 10.55 -4.75 8.0 L-4.85 7.4 Q-4.85 7.0 -3.25 6.35 -1.75 5.7 1.1 5.85 3.95 6.0 4.7 6.6 5.45 7.15 5.65 7.65" fill="#b8b8c2" fill-rule="evenodd" stroke="none"/>
      <path d="M5.6 -7.0 L6.0 -7.4 6.25 -7.15 Q4.9 -5.7 4.05 -4.15 L2.45 -0.65 1.75 -1.75 Q1.0 -2.5 0.0 -2.5 -1.05 -2.45 -1.75 -1.75 L-2.4 -0.6 -4.05 -4.15 Q-4.9 -5.7 -6.25 -7.15 L-6.0 -7.4 -5.55 -6.95 -4.75 -6.15 -2.0 -3.4 Q-1.15 -4.05 0.0 -4.0 1.15 -4.05 2.0 -3.4 L4.65 -6.05 5.6 -7.0 M7.4 6.0 L6.7 6.7 6.0 7.4 5.9 7.3 5.4 6.8 Q4.75 4.85 3.45 3.5 L3.95 2.75 4.0 2.65 4.05 2.65 7.4 6.0 M-6.0 7.4 L-6.7 6.7 -7.4 6.0 -7.3 5.9 -4.0 2.65 -3.95 2.75 -3.45 3.5 Q-4.8 4.9 -5.4 6.85 L-5.6 7.05 -5.95 7.35 -6.0 7.4" fill="#464646" fill-rule="evenodd" stroke="none"/>
    </g>
    <g id="sprite1" transform="matrix(1.0, 0.0, 0.0, 1.0, 2.0, 2.0)">
      <use ffdec:characterId="2617" height="4.0" transform="matrix(1.0, 0.0, 0.0, 1.0, -2.0, -2.0)" width="4.0" xlink:href="#shape2"/>
    </g>
    <g id="shape2" transform="matrix(1.0, 0.0, 0.0, 1.0, 2.0, 2.0)">
      <path d="M1.85 -0.8 L2.0 0.0 Q1.95 0.85 1.4 1.4 0.8 2.0 0.0 2.0 -0.85 1.95 -1.4 1.4 -1.95 0.85 -2.0 0.0 L-1.8 -0.8 Q-0.1 -2.2 1.85 -0.8" fill="#666666" fill-opacity="0.99607843" fill-rule="evenodd" stroke="none"/>
      <path d="M-1.8 -0.8 L-1.4 -1.4 Q-0.85 -1.95 0.0 -2.0 0.8 -2.0 1.4 -1.4 L1.85 -0.8 Q-0.1 -2.2 -1.8 -0.8" fill="#464646" fill-rule="evenodd" stroke="none"/>
    </g>
  </defs>
</svg>
