<?xml version="1.0" encoding="UTF-8" standalone="no"?>
<svg xmlns:ffdec="https://www.free-decompiler.com/flash" xmlns:xlink="http://www.w3.org/1999/xlink" ffdec:objectType="frame" height="55.9px" width="19.2px" xmlns="http://www.w3.org/2000/svg">
  <g transform="matrix(1.0, 0.0, 0.0, 1.0, 9.7, 29.6)">
    <use ffdec:characterId="2299" height="47.85" transform="matrix(1.0, 0.0, 0.0, 1.0, -9.7, -25.95)" width="19.2" xlink:href="#shape0"/>
  </g>
  <defs>
    <g id="shape0" transform="matrix(1.0, 0.0, 0.0, 1.0, 9.7, 25.95)">
      <path d="M3.6 -25.25 L3.5 -25.1 3.2 -25.35 3.6 -25.25" fill="#8d8c47" fill-rule="evenodd" stroke="none"/>
      <path d="M3.5 -25.1 L3.6 -25.25 Q9.75 -23.05 9.5 -15.95 L9.5 -15.2 8.9 -7.7 8.65 -5.7 9.05 5.5 6.75 5.5 Q6.8 3.75 5.55 2.5 L4.9 1.85 4.25 -2.6 3.0 -1.45 1.6 -0.15 2.75 -4.5 6.05 -7.5 8.45 -11.5 8.2 -14.15 8.05 -15.25 Q7.0 -20.8 3.5 -25.1" fill="#77ddb4" fill-rule="evenodd" stroke="none"/>
      <path d="M3.5 -25.1 Q7.0 -20.8 8.05 -15.25 L8.2 -14.15 8.45 -11.5 6.05 -7.5 Q7.3 -11.4 6.6 -15.25 6.2 -17.25 5.2 -19.25 3.55 -22.8 1.35 -23.85 -1.0 -25.05 -3.9 -23.25 -9.4 -19.85 -8.4 -13.45 L-8.15 -11.65 -6.1 5.65 -8.1 5.65 -8.05 0.5 -8.0 -1.8 Q-8.0 -6.7 -9.25 -11.55 L-9.35 -11.9 Q-10.7 -18.55 -6.45 -23.05 -3.0 -26.55 1.35 -25.85 L2.55 -25.6 3.2 -25.35 3.5 -25.1 M2.75 -4.5 L1.6 -0.15 1.1 0.5 0.25 1.55 Q1.0 -3.5 2.25 -8.65 L2.6 -10.25 Q2.3 -8.25 2.4 -6.55 2.5 -5.55 2.75 -4.5 M3.0 -1.45 L4.25 -2.6 4.9 1.85 4.35 2.3 4.15 1.6 3.45 1.15 2.5 0.55 3.0 -1.45" fill="#33cc99" fill-rule="evenodd" stroke="none"/>
      <path d="M6.05 -7.5 L2.75 -4.5 Q2.5 -5.55 2.4 -6.55 2.3 -8.25 2.6 -10.25 L2.25 -8.65 Q1.0 -3.5 0.25 1.55 L-0.45 3.3 -0.55 5.0 0.3 5.2 1.2 5.6 -6.1 5.65 -8.15 -11.65 -8.4 -13.45 Q-9.4 -19.85 -3.9 -23.25 -1.0 -25.05 1.35 -23.85 3.55 -22.8 5.2 -19.25 6.2 -17.25 6.6 -15.25 7.3 -11.4 6.05 -7.5 M1.6 -0.15 L3.0 -1.45 2.5 0.55 1.1 0.5 1.6 -0.15" fill="#2baa77" fill-rule="evenodd" stroke="none"/>
      <path d="M0.3 5.2 L-0.55 5.0 -0.45 3.3 -0.15 4.05 3.3 2.95 3.45 1.15 4.15 1.6 4.35 2.3 4.1 2.95 Q2.9 5.75 0.3 5.2 M1.35 11.95 L2.05 11.6 2.25 10.4 2.2 10.05 Q0.05 9.4 -1.0 12.45 L-1.4 12.25 Q-3.05 13.35 -4.4 15.15 L-5.0 15.35 -5.45 15.7 -5.55 14.7 -4.45 12.85 -4.0 11.05 Q-2.75 11.5 -1.65 10.3 L-1.4 9.95 -1.4 8.75 -0.6 9.05 3.65 7.45 7.05 12.4 7.15 13.25 5.9 13.5 4.6 13.1 4.2 13.65 4.1 13.4 Q4.35 12.7 4.2 11.75 L4.25 11.8 4.85 12.05 5.3 11.8 5.2 11.3 4.45 10.05 4.2 9.75 Q3.75 9.6 3.2 10.45 2.65 11.35 2.4 12.6 L2.3 12.45 1.5 13.15 1.35 11.95 M-1.05 14.35 L-1.95 15.85 -2.45 14.2 -0.1 12.85 -1.05 13.6 -1.05 14.35" fill="#990000" fill-rule="evenodd" stroke="none"/>
      <path d="M-0.45 3.3 L0.25 1.55 1.1 0.5 2.5 0.55 3.45 1.15 3.3 2.95 -0.15 4.05 -0.45 3.3 M1.35 11.95 L0.75 12.05 -0.1 12.85 -2.45 14.2 -1.95 15.85 -1.05 14.35 -1.5 17.45 -1.9 16.75 Q-2.75 15.55 -4.4 15.15 -3.05 13.35 -1.4 12.25 L-1.0 12.45 Q0.05 9.4 2.2 10.05 L2.25 10.4 2.05 11.6 1.35 11.95 M2.4 12.6 Q2.65 11.35 3.2 10.45 3.75 9.6 4.2 9.75 L4.45 10.05 5.2 11.3 5.3 11.8 4.85 12.05 4.25 11.8 4.2 11.75 Q4.35 12.7 4.1 13.4 L4.2 13.65 4.6 13.1 5.9 13.5 Q4.75 13.95 4.8 15.05 L4.9 15.5 3.7 15.35 3.2 17.45 2.8 17.75 2.75 17.75 2.8 17.8 3.0 21.15 1.5 21.3 0.6 20.0 2.8 14.45 Q2.05 14.0 2.4 12.6 M-1.4 8.75 L-1.4 9.95 -1.65 10.3 Q-2.75 11.5 -4.0 11.05 -4.35 11.1 -4.7 10.55 L-5.15 9.25 -5.05 7.65 -4.55 7.25 Q-3.15 6.55 -1.9 7.6 L-1.4 8.75" fill="#ff0000" fill-rule="evenodd" stroke="none"/>
      <path d="M-4.0 11.05 L-4.45 12.85 -5.45 9.2 -5.15 9.25 -4.7 10.55 Q-4.35 11.1 -4.0 11.05 M5.15 9.35 L6.9 9.45 7.05 12.4 5.15 9.35" fill="#ffcc99" fill-rule="evenodd" stroke="none"/>
      <path d="M-6.1 5.65 L1.2 5.6 6.75 5.5 6.9 9.45 5.15 9.35 3.65 7.45 -0.6 9.05 -1.4 8.75 -1.9 7.6 Q-3.15 6.55 -4.55 7.25 L-5.05 7.65 -5.15 9.25 -5.45 9.2 -4.45 12.85 -5.55 14.7 -6.1 5.65" fill="#e2b181" fill-rule="evenodd" stroke="none"/>
      <path d="M-0.1 12.85 L0.75 12.05 1.35 11.95 1.5 13.15 2.3 12.45 2.4 12.6 Q2.05 14.0 2.8 14.45 L0.6 20.0 1.5 21.3 Q1.05 21.75 0.45 21.85 L0.3 21.85 0.2 21.85 Q-1.0 22.05 -1.6 21.1 L-1.8 20.7 -1.6 19.95 -1.35 18.25 -1.35 18.1 -1.5 17.45 -1.05 14.35 -1.05 13.6 -0.1 12.85" fill="#ffffff" fill-rule="evenodd" stroke="none"/>
      <path d="M4.9 1.85 L5.55 2.5 Q6.8 3.75 6.75 5.5 L1.2 5.6 0.3 5.2 Q2.9 5.75 4.1 2.95 L4.35 2.3 4.9 1.85" fill="#62543a" fill-rule="evenodd" stroke="none"/>
    </g>
  </defs>
</svg>
