<?xml version="1.0" encoding="UTF-8" standalone="no"?>
<svg xmlns:ffdec="https://www.free-decompiler.com/flash" xmlns:xlink="http://www.w3.org/1999/xlink" ffdec:objectType="frame" height="55.9px" width="19.2px" xmlns="http://www.w3.org/2000/svg">
  <g transform="matrix(1.0, 0.0, 0.0, 1.0, 9.7, 29.6)">
    <use ffdec:characterId="2300" height="51.5" transform="matrix(1.0, 0.0, 0.0, 1.0, -9.65, -29.6)" width="19.15" xlink:href="#shape0"/>
  </g>
  <defs>
    <g id="shape0" transform="matrix(1.0, 0.0, 0.0, 1.0, 9.65, 29.6)">
      <path d="M9.15 -19.4 L9.5 -17.75 9.2 -16.75 Q8.9 -17.65 7.95 -17.9 L6.85 -18.05 7.55 -15.95 7.8 -15.1 7.65 -14.6 7.85 -13.9 7.25 -13.05 7.55 -11.95 6.7 -9.5 4.8 -8.2 5.6 -9.8 Q7.95 -15.55 4.7 -19.5 L0.9 -19.95 0.7 -20.35 -0.15 -20.6 -2.25 -20.5 -3.1 -19.9 -3.35 -19.9 -3.3 -19.8 -4.05 -18.2 Q-5.55 -14.95 -5.55 -11.3 L-6.75 -14.3 -7.75 -15.15 -8.55 -16.45 -9.15 -18.35 -8.75 -19.55 -8.75 -19.6 -8.55 -20.0 -8.05 -21.15 -8.3 -19.8 -6.1 -18.55 -5.25 -20.55 -2.55 -22.1 -2.4 -23.55 -1.0 -23.7 -1.55 -25.4 -1.25 -25.8 2.1 -26.3 3.35 -26.1 5.1 -24.85 5.5 -23.7 5.25 -23.25 6.85 -21.7 6.55 -20.85 7.05 -19.05 7.95 -19.9 9.15 -19.4 M5.9 13.5 Q4.75 13.95 4.8 15.05 L4.9 15.5 3.7 15.35 3.2 17.45 2.8 17.75 2.75 17.75 2.8 17.8 3.0 21.15 1.5 21.3 0.6 20.0 2.8 14.45 Q2.05 14.0 2.4 12.6 2.65 11.35 3.2 10.45 3.75 9.6 4.2 9.75 L4.45 10.05 5.2 11.3 5.3 11.8 4.85 12.05 4.25 11.8 4.2 11.75 Q4.35 12.7 4.1 13.4 L4.2 13.65 4.6 13.1 5.9 13.5 M-1.5 17.45 L-1.9 16.75 Q-2.75 15.55 -4.4 15.15 -3.05 13.35 -1.4 12.25 L-1.0 12.45 Q0.05 9.4 2.2 10.05 L2.25 10.4 2.05 11.6 1.35 11.95 0.75 12.05 -0.1 12.85 -2.45 14.2 -1.95 15.85 -1.05 14.35 -1.5 17.45 M1.7 -22.05 Q0.35 -23.0 -1.05 -22.95 L4.7 -19.5 1.7 -22.05 M-2.1 -12.45 L-0.45 -11.15 0.9 -11.6 2.6 -12.65 3.0 -16.75 Q3.65 -15.6 3.4 -14.3 3.1 -12.8 2.25 -11.85 L0.9 -10.65 1.45 -10.55 3.45 -11.85 5.55 -13.55 Q4.5 -9.1 0.7 -8.0 -1.9 -7.8 -4.45 -8.8 L-4.3 -11.5 -4.25 -11.7 -2.85 -11.6 -2.1 -12.45 M-5.35 -9.85 Q-4.55 -9.25 -4.2 -7.8 L-2.7 -7.35 -1.95 -6.9 Q-1.1 -6.75 -1.0 -5.95 L-1.1 -5.35 -1.15 -5.2 -1.1 -5.0 -0.85 -3.95 -0.85 -3.85 -0.8 -3.55 -0.2 -3.1 0.75 -1.85 -5.1 -0.95 -5.15 -1.35 -5.15 -2.85 -4.35 -3.45 -4.4 -3.55 -2.75 -4.0 -2.65 -4.95 -4.15 -6.0 Q-6.3 -7.65 -7.4 -10.2 L-6.55 -9.85 -5.35 -9.85 M3.9 -5.3 Q4.4 -6.5 5.7 -6.7 L6.2 -6.6 7.25 -4.1 3.9 -5.3 M-1.0 2.6 L-2.6 2.1 -3.2 1.0 -3.15 0.9 -0.8 0.55 Q-0.3 0.95 -0.2 1.8 L-0.35 2.4 -1.0 2.6 M0.25 1.55 L0.8 0.9 0.85 0.85 1.1 0.5 2.5 0.55 3.45 1.15 3.3 2.95 -0.1 4.05 -0.15 4.05 -0.45 3.3 -0.2 2.7 0.25 1.55 M-7.2 -22.7 L-7.1 -24.4 Q-5.35 -25.8 -3.3 -25.45 L-3.0 -24.9 -2.9 -24.1 -3.8 -24.2 -4.3 -23.25 -5.4 -22.65 -6.6 -23.05 -7.2 -22.7 M-5.15 9.25 L-5.05 7.65 -4.55 7.25 Q-3.15 6.55 -1.9 7.6 L-1.4 8.75 -1.4 9.95 -1.65 10.3 Q-2.75 11.5 -4.0 11.05 -4.35 11.1 -4.7 10.55 L-5.15 9.25" fill="#ff0000" fill-rule="evenodd" stroke="none"/>
      <path d="M3.35 -26.1 L7.3 -29.45 6.05 -24.3 5.1 -24.85 3.35 -26.1 M-7.6 -22.35 Q-7.55 -23.95 -8.0 -25.4 L-8.35 -26.55 -8.85 -28.0 -6.9 -26.85 -2.8 -29.6 2.1 -26.3 -1.25 -25.8 -1.55 -25.4 -3.0 -24.9 -3.3 -25.45 Q-5.35 -25.8 -7.1 -24.4 L-7.2 -22.7 -7.25 -22.55 -7.6 -22.35 M1.6 -0.15 L3.0 -1.45 2.5 0.55 1.1 0.5 1.6 -0.15 M-5.1 -0.95 L-4.6 0.15 -4.0 1.15 -4.65 2.65 -3.1 4.1 Q-1.3 4.95 -0.5 4.55 L-0.55 5.0 0.3 5.2 1.2 5.6 -6.1 5.65 -6.85 -4.7 -6.15 -4.15 -5.95 -4.15 -4.4 -3.55 -4.35 -3.45 -5.15 -2.85 -5.15 -1.35 -5.1 -0.95 M-0.8 0.55 L0.5 0.2 0.25 1.55 -0.2 2.7 -0.35 2.4 -0.2 1.8 Q-0.3 0.95 -0.8 0.55 M0.85 -1.85 L0.75 -1.85 -0.2 -3.1 -0.8 -3.55 -0.85 -3.85 -0.85 -3.95 1.3 -4.3 0.85 -1.85 M-8.5 -14.55 L-8.55 -16.45 -7.75 -15.15 -8.5 -14.55" fill="#2baa77" fill-rule="evenodd" stroke="none"/>
      <path d="M6.05 -24.3 L6.75 -23.45 7.95 -21.7 7.95 -19.9 7.05 -19.05 6.55 -20.85 6.85 -21.7 5.25 -23.25 5.5 -23.7 5.1 -24.85 6.05 -24.3 M6.9 9.45 L7.05 12.4 5.15 9.35 6.9 9.45 M-8.05 -21.15 L-7.8 -21.65 -7.6 -22.35 -7.25 -22.55 -7.25 -21.35 -5.75 -20.35 -5.25 -20.55 -6.1 -18.55 -8.3 -19.8 -8.05 -21.15 M-2.9 -24.1 L-3.0 -24.9 -1.55 -25.4 -1.0 -23.7 -2.4 -23.55 -2.9 -24.1 M-4.45 12.85 L-5.45 9.2 -5.15 9.25 -4.7 10.55 Q-4.35 11.1 -4.0 11.05 L-4.45 12.85" fill="#ffcc99" fill-rule="evenodd" stroke="none"/>
      <path d="M6.75 -23.45 Q8.55 -21.85 9.15 -19.4 L7.95 -19.9 7.95 -21.7 6.75 -23.45 M9.5 -17.75 L9.5 -15.95 9.35 -12.6 8.6 -4.9 8.6 -3.5 8.85 0.95 9.0 3.95 9.05 5.5 6.75 5.55 6.75 5.5 Q6.8 3.75 5.55 2.5 L4.9 1.85 4.85 1.9 4.4 -1.65 7.1 -2.15 7.2 -2.85 7.25 -4.1 6.2 -6.6 7.1 -6.6 9.3 -12.65 8.75 -15.9 Q9.25 -16.1 9.2 -16.75 L9.5 -17.75 M3.3 -4.0 L4.15 -2.5 3.0 -1.45 1.6 -0.15 2.6 -4.0 3.3 -4.0" fill="#77ddb4" fill-rule="evenodd" stroke="none"/>
      <path d="M1.5 21.3 Q1.05 21.75 0.45 21.85 L0.3 21.85 0.2 21.85 Q-1.0 22.05 -1.6 21.1 L-1.8 20.7 -1.6 19.95 -1.35 18.25 -1.35 18.1 -1.5 17.45 -1.05 14.35 -1.05 13.6 -0.1 12.85 0.75 12.05 1.35 11.95 1.5 13.15 2.3 12.45 2.4 12.6 Q2.05 14.0 2.8 14.45 L0.6 20.0 1.5 21.3 M-0.15 -20.6 L0.7 -20.35 0.9 -19.95 0.85 -19.1 Q2.0 -17.15 1.75 -14.7 L1.45 -13.25 0.65 -13.0 0.05 -13.35 -0.25 -13.9 -2.6 -17.95 -3.3 -19.8 -3.35 -19.9 -3.1 -19.9 -0.15 -20.6" fill="#ffffff" fill-rule="evenodd" stroke="none"/>
      <path d="M7.05 12.4 L7.15 13.25 5.9 13.5 4.6 13.1 4.2 13.65 4.1 13.4 Q4.35 12.7 4.2 11.75 L4.25 11.8 4.85 12.05 5.3 11.8 5.2 11.3 4.45 10.05 4.2 9.75 Q3.75 9.6 3.2 10.45 2.65 11.35 2.4 12.6 L2.3 12.45 1.5 13.15 1.35 11.95 2.05 11.6 2.25 10.4 2.2 10.05 Q0.05 9.4 -1.0 12.45 L-1.4 12.25 Q-3.05 13.35 -4.4 15.15 L-5.0 15.35 -5.45 15.7 -5.55 14.7 -4.45 12.85 -4.0 11.05 Q-2.75 11.5 -1.65 10.3 L-1.4 9.95 -1.4 8.75 -0.6 9.05 3.65 7.45 7.05 12.4 M-8.45 -6.8 L-8.85 -9.25 -8.4 -9.7 -7.4 -10.2 Q-6.3 -7.65 -4.15 -6.0 L-2.65 -4.95 -2.75 -4.0 -4.4 -3.55 -5.95 -4.15 -6.15 -4.15 -6.85 -4.7 -7.05 -5.0 -8.45 -6.8 M1.7 -22.05 L4.7 -19.5 -1.05 -22.95 Q0.35 -23.0 1.7 -22.05 M0.9 -19.95 L4.7 -19.5 Q7.95 -15.55 5.6 -9.8 L4.8 -8.2 Q2.85 -6.0 0.3 -5.25 L-1.1 -5.0 -1.15 -5.2 -1.1 -5.35 -1.0 -5.95 Q-1.1 -6.75 -1.95 -6.9 L-2.7 -7.35 -4.2 -7.8 Q-4.55 -9.25 -5.35 -9.85 L-5.15 -10.35 -5.55 -11.3 Q-5.55 -14.95 -4.05 -18.2 L-3.3 -19.8 -2.6 -17.95 -3.1 -18.45 -3.6 -18.5 -4.25 -11.7 -4.3 -11.5 -4.45 -8.8 Q-1.9 -7.8 0.7 -8.0 4.5 -9.1 5.55 -13.55 L3.45 -11.85 1.45 -10.55 0.9 -10.65 2.25 -11.85 Q3.1 -12.8 3.4 -14.3 3.65 -15.6 3.0 -16.75 L2.6 -12.65 0.9 -11.6 -0.45 -11.15 -2.1 -12.45 -1.5 -13.25 -0.85 -13.2 -0.25 -13.9 0.05 -13.35 0.65 -13.0 1.45 -13.25 1.75 -14.7 Q2.0 -17.15 0.85 -19.1 L0.9 -19.95 M7.55 -15.95 L6.85 -18.05 7.95 -17.9 Q8.9 -17.65 9.2 -16.75 9.25 -16.1 8.75 -15.9 L8.0 -16.2 7.55 -15.95 M3.9 -5.3 L7.25 -4.1 7.2 -2.85 4.15 -2.5 3.3 -4.0 3.55 -4.4 3.9 -5.3 M0.8 -1.8 L1.1 -1.1 1.05 -0.35 0.5 0.2 -0.8 0.55 -3.15 0.9 -3.25 0.9 -3.2 1.0 -2.6 2.1 -1.0 2.6 -2.15 3.5 -4.0 1.15 -4.6 0.15 -5.1 -0.95 0.75 -1.85 0.8 -1.8 M4.35 2.3 L4.1 2.95 Q3.3 4.8 1.9 5.2 1.15 5.4 0.3 5.2 L-0.55 5.0 -0.5 4.55 -0.45 3.3 -0.15 4.05 -0.1 4.05 3.3 2.95 3.45 1.15 4.15 1.6 4.35 2.3 M-0.1 12.85 L-1.05 13.6 -1.05 14.35 -1.95 15.85 -2.45 14.2 -0.1 12.85 M-7.2 -22.7 L-6.6 -23.05 -5.4 -22.65 -4.3 -23.25 -3.8 -24.2 -2.9 -24.1 -2.4 -23.55 -2.55 -22.1 -5.25 -20.55 -5.75 -20.35 -7.25 -21.35 -7.25 -22.55 -7.2 -22.7 M-3.1 -19.9 L-2.25 -20.5 -0.15 -20.6 -3.1 -19.9" fill="#990000" fill-rule="evenodd" stroke="none"/>
      <path d="M4.8 -8.2 L6.7 -9.5 7.55 -11.95 7.25 -13.05 7.85 -13.9 7.65 -14.6 7.8 -15.1 7.55 -15.95 8.0 -16.2 8.75 -15.9 9.3 -12.65 7.1 -6.6 6.2 -6.6 5.7 -6.7 Q4.4 -6.5 3.9 -5.3 L3.55 -4.4 3.3 -4.0 2.6 -4.0 1.3 -4.3 -0.85 -3.95 -1.1 -5.0 0.3 -5.25 Q2.85 -6.0 4.8 -8.2 M-5.55 -11.3 L-5.15 -10.35 -5.35 -9.85 -6.55 -9.85 -7.4 -10.2 -8.4 -9.7 -8.2 -11.05 -8.65 -11.95 -8.5 -14.55 -7.75 -15.15 -6.75 -14.3 -5.55 -11.3 M4.15 -2.5 L7.2 -2.85 7.1 -2.15 4.4 -1.65 4.15 -2.5 M-4.0 1.15 L-2.15 3.5 -1.0 2.6 -0.35 2.4 -0.2 2.7 -0.45 3.3 -0.5 4.55 Q-1.3 4.95 -3.1 4.1 L-4.65 2.65 -4.0 1.15 M6.75 5.5 L1.2 5.6 0.3 5.2 Q1.15 5.4 1.9 5.2 3.3 4.8 4.1 2.95 L4.35 2.3 4.85 1.9 4.9 1.85 5.55 2.5 Q6.8 3.75 6.75 5.5" fill="#62543a" fill-rule="evenodd" stroke="none"/>
      <path d="M0.8 -1.8 L0.75 -1.85 0.85 -1.85 0.8 -1.8 M-3.2 1.0 L-3.25 0.9 -3.15 0.9 -3.2 1.0" fill="#666633" fill-rule="evenodd" stroke="none"/>
      <path d="M-6.1 5.65 L-8.1 5.65 -8.05 -2.8 -8.45 -6.8 -7.05 -5.0 -6.85 -4.7 -6.1 5.65 M-8.85 -9.25 L-9.35 -11.9 Q-10.05 -15.5 -9.15 -18.35 L-8.55 -16.45 -8.5 -14.55 -8.65 -11.95 -8.2 -11.05 -8.4 -9.7 -8.85 -9.25 M2.6 -4.0 L1.6 -0.15 1.1 0.5 0.85 0.85 0.8 0.9 0.25 1.55 0.5 0.2 1.05 -0.35 1.1 -1.1 0.8 -1.8 0.85 -1.85 1.3 -4.3 2.6 -4.0 M3.0 -1.45 L4.15 -2.5 4.4 -1.65 4.85 1.9 4.35 2.3 4.15 1.6 3.45 1.15 2.5 0.55 3.0 -1.45" fill="#33cc99" fill-rule="evenodd" stroke="none"/>
      <path d="M-0.25 -13.9 L-0.85 -13.2 -1.5 -13.25 -2.1 -12.45 -2.85 -11.6 -4.25 -11.7 -3.6 -18.5 -3.1 -18.45 -2.6 -17.95 -0.25 -13.9" fill="#650101" fill-rule="evenodd" stroke="none"/>
      <path d="M6.75 5.55 L6.9 9.45 5.15 9.35 3.65 7.45 -0.6 9.05 -1.4 8.75 -1.9 7.6 Q-3.15 6.55 -4.55 7.25 L-5.05 7.65 -5.15 9.25 -5.45 9.2 -4.45 12.85 -5.55 14.7 -6.1 5.65 1.2 5.6 6.75 5.5 6.75 5.55" fill="#e2b181" fill-rule="evenodd" stroke="none"/>
    </g>
  </defs>
</svg>
