<?xml version="1.0" encoding="UTF-8" standalone="no"?>
<svg xmlns:ffdec="https://www.free-decompiler.com/flash" xmlns:xlink="http://www.w3.org/1999/xlink" ffdec:objectType="frame" height="211.85px" width="36.0px" xmlns="http://www.w3.org/2000/svg">
  <g transform="matrix(1.0, 0.0, 0.0, 1.0, 18.0, 111.85)">
    <use ffdec:characterId="2592" height="211.85" transform="matrix(1.0, 0.0, 0.0, 1.0, -18.0, -111.85)" width="36.0" xlink:href="#shape0"/>
  </g>
  <defs>
    <g id="shape0" transform="matrix(1.0, 0.0, 0.0, 1.0, 18.0, 111.85)">
      <path d="M18.0 -95.05 L15.55 -88.95 15.0 -87.25 13.5 -87.0 11.1 -88.15 9.25 -92.8 10.45 -91.25 13.05 -92.75 Q16.9 -95.0 18.0 -95.05 M6.05 -92.9 L-0.45 -106.1 -1.45 -106.0 -2.45 -101.85 -3.2 -99.0 -7.95 -84.35 -9.3 -82.6 -10.75 -69.95 -11.8 -82.9 -15.45 -84.55 -16.7 -84.45 -11.0 -94.0 -10.0 -86.5 -0.05 -110.6 3.6 -101.9 6.05 -92.9 M5.65 96.65 L-8.4 97.5 -11.55 96.85 -4.0 95.15 -2.4 96.6 2.05 94.65 5.65 96.65" fill="#948163" fill-rule="evenodd" stroke="none"/>
      <path d="M9.25 -92.8 L11.1 -88.15 9.75 -88.85 7.85 -90.2 7.75 -90.3 6.05 -92.9 3.6 -101.9 9.25 -92.8 M-0.05 -110.6 L-10.0 -86.5 -11.0 -94.0 -16.7 -84.45 -18.0 -84.35 Q-16.7 -94.1 -8.55 -99.4 L-6.1 -100.95 -0.5 -111.85 -0.05 -110.6 M5.65 96.65 L7.15 97.55 Q13.05 100.45 18.0 96.1 L17.45 99.05 17.05 100.0 3.4 99.3 2.1 99.2 1.1 99.35 0.55 100.0 -10.3 100.0 Q-10.95 99.65 -11.6 99.45 L-12.25 99.3 -13.05 99.5 -13.9 100.0 -18.0 100.0 -18.0 95.5 -17.15 97.95 -11.55 96.85 -8.4 97.5 5.65 96.65" fill="#cfbba0" fill-rule="evenodd" stroke="none"/>
      <path d="M13.7 94.45 L18.0 96.1 Q13.05 100.45 7.15 97.55 L5.65 96.65 2.05 94.65 -2.4 96.6 -4.0 95.15 -11.55 96.85 -17.15 97.95 -18.0 95.5 -13.4 94.35 -8.85 92.85 Q-10.0 78.0 -8.4 63.15 L-3.25 77.3 Q-5.45 63.65 -4.35 49.8 -3.35 37.35 -5.9 25.25 -0.85 26.15 3.95 24.5 L5.2 23.95 4.35 42.1 6.35 43.05 6.45 43.95 Q7.1 47.75 10.8 48.9 L11.75 49.05 11.35 49.7 5.4 48.95 Q9.45 61.9 9.0 75.5 L6.5 57.5 Q5.4 76.75 8.65 95.75 L13.7 94.45 M7.85 -90.2 L9.75 -88.85 7.25 -69.45 8.0 -69.25 9.8 -76.95 Q12.4 -71.7 11.75 -66.45 9.55 -49.1 9.0 -31.5 L7.05 -36.05 Q4.45 -17.9 6.55 0.35 L7.7 8.7 Q3.8 8.65 1.05 11.4 L-0.1 12.7 8.1 12.5 8.85 18.15 7.6 18.1 6.0 15.5 5.8 18.4 -6.0 24.4 Q-7.7 11.25 -7.15 -1.95 L-6.9 -9.2 -8.05 -8.75 -9.5 -8.55 -11.5 -9.15 -11.35 -10.6 -13.0 -11.5 -10.85 -12.25 -10.35 -13.2 -8.85 -11.4 -6.7 -12.4 -2.45 -101.85 -1.45 -106.0 -0.45 -106.1 6.05 -92.9 7.75 -90.3 7.75 -89.95 7.85 -90.2 M-7.95 -84.35 L-3.2 -99.0 -8.35 -65.4 -7.95 -84.35" fill="#392a15" fill-rule="evenodd" stroke="none"/>
      <path d="M11.1 -88.15 L13.5 -87.0 15.0 -87.25 15.55 -88.95 Q15.75 -69.8 15.2 -50.65 L13.0 -58.3 Q12.45 -53.65 13.05 -49.15 16.35 -23.45 13.6 2.45 L9.0 -14.5 Q15.3 11.25 13.45 37.8 L7.85 35.05 8.0 36.2 8.15 36.7 8.45 37.1 9.35 38.05 10.1 38.7 10.9 39.15 12.75 40.05 12.95 42.9 13.35 43.35 13.65 43.85 13.85 44.45 13.9 45.25 13.85 46.15 13.65 46.85 13.3 47.45 12.9 48.0 12.55 58.4 Q11.7 76.4 13.7 94.45 L8.65 95.75 Q5.4 76.75 6.5 57.5 L9.0 75.5 Q9.45 61.9 5.4 48.95 L11.35 49.7 11.75 49.05 10.8 48.9 Q7.1 47.75 6.45 43.95 L6.35 43.05 4.35 42.1 5.2 23.95 10.75 21.3 10.6 19.5 8.85 18.15 8.1 12.5 Q10.3 12.4 11.5 11.8 12.65 11.2 12.45 10.4 12.25 9.6 10.8 9.15 9.3 8.65 7.7 8.7 L6.55 0.35 Q4.45 -17.9 7.05 -36.05 L9.0 -31.5 Q9.55 -49.1 11.75 -66.45 12.4 -71.7 9.8 -76.95 L8.0 -69.25 7.25 -69.45 9.75 -88.85 11.1 -88.15 M7.85 -90.2 L7.75 -89.95 7.75 -90.3 7.85 -90.2 M-2.45 -101.85 L-6.7 -12.4 -8.85 -11.4 -10.35 -13.2 -10.85 -12.25 -13.0 -11.5 -11.35 -10.6 -11.5 -9.15 -9.5 -8.55 -8.05 -8.75 -6.9 -9.2 -7.15 -1.95 Q-7.7 11.25 -6.0 24.4 L-5.9 25.25 Q-3.35 37.35 -4.35 49.8 -5.45 63.65 -3.25 77.3 L-8.4 63.15 Q-10.0 78.0 -8.85 92.85 L-13.4 94.35 Q-14.45 79.3 -13.4 64.25 L-13.05 59.9 -11.0 72.05 Q-11.3 49.45 -13.9 26.75 L-9.25 47.55 Q-10.65 24.25 -15.35 1.5 -16.35 -3.4 -15.65 -8.35 -14.35 -17.35 -6.35 -22.45 L-7.55 -22.4 -8.7 -22.25 -9.75 -21.85 Q-10.8 -21.45 -11.7 -20.85 L-12.6 -20.25 -14.35 -18.75 -12.85 -66.2 -15.4 -54.0 -15.45 -84.55 -11.8 -82.9 -10.75 -69.95 -9.3 -82.6 -7.95 -84.35 -8.35 -65.4 -3.2 -99.0 -2.45 -101.85 M5.8 18.4 L6.0 15.5 7.6 18.1 5.8 18.4" fill="#4e3322" fill-rule="evenodd" stroke="none"/>
      <path d="M15.55 -88.95 L18.0 -95.05 18.0 96.1 13.7 94.45 Q11.7 76.4 12.55 58.4 L12.9 48.0 13.3 47.45 13.65 46.85 13.85 46.15 13.9 45.25 13.85 44.45 13.65 43.85 13.35 43.35 12.95 42.9 12.75 40.05 10.9 39.15 10.1 38.7 9.35 38.05 8.45 37.1 8.15 36.7 8.0 36.2 7.85 35.05 13.45 37.8 Q15.3 11.25 9.0 -14.5 L13.6 2.45 Q16.35 -23.45 13.05 -49.15 12.45 -53.65 13.0 -58.3 L15.2 -50.65 Q15.75 -69.8 15.55 -88.95 M-6.0 24.4 L5.8 18.4 7.6 18.1 8.85 18.15 10.6 19.5 10.75 21.3 5.2 23.95 3.95 24.5 Q-0.85 26.15 -5.9 25.25 L-6.0 24.4 M8.1 12.5 L-0.1 12.7 1.05 11.4 Q3.8 8.65 7.7 8.7 9.3 8.65 10.8 9.15 12.25 9.6 12.45 10.4 12.65 11.2 11.5 11.8 10.3 12.4 8.1 12.5 M-16.7 -84.45 L-15.45 -84.55 -15.4 -54.0 -12.85 -66.2 -14.35 -18.75 -12.6 -20.25 -11.7 -20.85 Q-10.8 -21.45 -9.75 -21.85 L-8.7 -22.25 -7.55 -22.4 -6.35 -22.45 Q-14.35 -17.35 -15.65 -8.35 -16.35 -3.4 -15.35 1.5 -10.65 24.25 -9.25 47.55 L-13.9 26.75 Q-11.3 49.45 -11.0 72.05 L-13.05 59.9 -13.4 64.25 Q-14.45 79.3 -13.4 94.35 L-18.0 95.5 -18.0 -84.35 -16.7 -84.45" fill="#5b4434" fill-rule="evenodd" stroke="none"/>
    </g>
  </defs>
</svg>
