<?xml version="1.0" encoding="UTF-8" standalone="no"?>
<svg xmlns:ffdec="https://www.free-decompiler.com/flash" xmlns:xlink="http://www.w3.org/1999/xlink" ffdec:objectType="frame" height="128.85px" width="101.05px" xmlns="http://www.w3.org/2000/svg">
  <g transform="matrix(1.0, 0.0, 0.0, 1.0, 51.4, 73.8)">
    <use ffdec:characterId="2170" height="20.9" id="neck" transform="matrix(1.0, 0.0, 0.0, 1.0, -17.65, -55.0)" width="39.15" xlink:href="#sprite0"/>
    <use ffdec:characterId="2168" height="80.35" transform="matrix(1.0, 0.0, 0.0, 1.0, -44.4, -40.25)" width="87.4" xlink:href="#shape1"/>
    <use ffdec:characterId="1138" height="0.0" id="spineRef" transform="matrix(1.0, 0.0, 0.0, 1.0, 8.85, -47.9)" width="0.0" xlink:href="#sprite1"/>
  </g>
  <defs>
    <g id="sprite0" transform="matrix(1.0, 0.0, 0.0, 1.0, 18.3, 12.75)">
      <use ffdec:characterId="2169" height="20.9" transform="matrix(1.0, 0.0, 0.0, 1.0, -18.3, -12.75)" width="39.15" xlink:href="#shape0"/>
    </g>
    <g id="shape0" transform="matrix(1.0, 0.0, 0.0, 1.0, 18.3, 12.75)">
      <path d="M5.45 -12.25 L6.25 -12.75 7.9 -12.5 Q9.1 -11.35 8.1 -9.85 L7.6 -9.75 Q7.5 -11.5 5.45 -12.25 M7.45 -9.55 Q8.65 -8.8 8.65 -7.9 L9.25 -7.6 10.7 -6.55 11.05 -6.3 14.4 -4.7 17.0 -3.0 19.3 -0.55 20.5 -0.25 20.85 0.6 20.1 1.35 19.9 2.25 Q19.55 2.6 18.75 2.6 16.8 2.6 14.8 1.2 L12.85 -0.5 13.0 -0.55 16.45 0.2 17.0 0.25 17.0 0.1 16.6 -0.65 Q15.55 -2.65 14.65 -3.3 L11.55 -5.65 10.85 -6.05 13.15 -4.45 Q9.1 -6.55 8.3 -7.1 L8.25 -7.1 7.85 -6.85 Q7.85 -7.65 6.85 -8.2 5.85 -8.75 4.4 -8.75 L2.15 -9.55 Q1.9 -9.55 1.5 -9.2 L1.25 -9.0 Q1.25 -8.6 0.9 -8.4 L-0.25 -8.2 -1.9 -8.25 -2.6 -6.75 -3.25 -6.95 -6.35 -5.5 Q-7.3 -2.4 -9.25 -2.25 L-10.4 -2.45 -9.8 -4.65 Q-6.55 -7.5 -2.5 -8.95 L-0.25 -9.75 0.3 -9.7 Q0.65 -11.9 4.45 -10.8 L5.0 -10.6 5.1 -9.85 5.6 -9.45 7.45 -9.55 M4.1 -7.05 L3.4 -6.55 5.3 -3.7 5.05 -3.3 7.0 -1.55 6.75 -0.7 6.35 -0.55 Q4.65 0.15 3.4 -1.0 L3.25 -1.7 3.3 -2.5 4.05 -3.25 1.8 -5.15 -1.15 -1.65 -2.9 -1.65 -3.5 -2.6 -3.2 -4.1 -0.45 -4.95 -0.2 -5.45 1.55 -7.65 2.75 -7.3 3.15 -8.0 3.8 -8.35 3.65 -7.75 4.1 -7.05 M14.2 1.85 Q15.15 1.85 15.85 2.35 16.5 2.8 16.5 3.5 16.0 5.8 14.55 5.15 L14.0 5.05 13.9 2.25 14.2 1.85" fill="#ff0000" fill-rule="evenodd" stroke="none"/>
      <path d="M7.6 -9.75 L7.45 -9.55 5.6 -9.45 5.1 -9.85 5.0 -10.6 5.45 -12.25 Q7.5 -11.5 7.6 -9.75 M7.85 -6.85 L7.75 -6.25 Q7.75 -5.85 7.25 -5.55 6.75 -5.25 6.05 -5.25 L4.1 -7.05 3.65 -7.75 3.8 -8.35 4.4 -8.75 Q5.85 -8.75 6.85 -8.2 7.85 -7.65 7.85 -6.85" fill="#ffffff" fill-rule="evenodd" stroke="none"/>
      <path d="M19.9 2.25 L19.55 2.95 18.25 4.5 17.85 4.55 17.8 4.5 16.5 3.5 Q16.5 2.8 15.85 2.35 15.15 1.85 14.2 1.85 10.75 -0.8 9.85 -0.75 L7.75 -0.85 7.75 -0.8 7.45 0.5 Q6.9 1.25 5.35 1.25 3.5 1.25 3.0 0.4 2.8 -0.05 2.9 -0.5 2.9 -1.2 3.25 -1.7 L3.4 -1.0 Q4.65 0.15 6.35 -0.55 L6.75 -0.7 7.0 -1.55 5.05 -3.3 5.3 -3.7 3.4 -6.55 4.1 -7.05 6.05 -5.25 Q8.5 -1.95 12.55 -0.9 L13.75 -0.75 14.05 -1.6 Q11.2 -4.55 7.75 -6.25 L7.85 -6.85 8.25 -7.1 8.3 -7.1 Q9.1 -6.55 13.15 -4.45 L10.85 -6.05 11.55 -5.65 14.65 -3.3 Q15.55 -2.65 16.6 -0.65 L17.0 0.1 17.0 0.25 16.45 0.2 13.0 -0.55 12.85 -0.5 14.8 1.2 Q16.8 2.6 18.75 2.6 19.55 2.6 19.9 2.25 M-2.6 -6.75 L-1.9 -8.25 -0.25 -8.2 0.9 -8.4 Q1.25 -8.6 1.25 -9.0 L1.5 -9.2 Q1.9 -9.55 2.15 -9.55 L4.4 -8.75 3.8 -8.35 3.15 -8.0 2.75 -7.3 1.55 -7.65 -0.2 -5.45 -0.25 -5.6 -0.25 -6.05 -2.6 -6.75 M3.3 -2.5 L2.25 -3.15 -0.85 -0.1 -2.0 -0.05 -3.0 -0.7 -3.4 -1.05 Q-3.9 -1.7 -3.5 -2.6 L-2.9 -1.65 -1.15 -1.65 1.8 -5.15 4.05 -3.25 3.3 -2.5" fill="#990000" fill-rule="evenodd" stroke="none"/>
      <path d="M7.75 -6.25 Q11.2 -4.55 14.05 -1.6 L13.75 -0.75 12.55 -0.9 Q8.5 -1.95 6.05 -5.25 6.75 -5.25 7.25 -5.55 7.75 -5.85 7.75 -6.25" fill="#650101" fill-rule="evenodd" stroke="none"/>
      <path d="M17.8 4.5 Q17.25 5.45 17.2 6.95 L18.2 8.0 18.3 8.15 18.05 8.0 Q16.55 7.15 15.15 6.9 7.6 3.3 4.1 2.8 0.6 2.25 -2.5 2.75 L-2.55 2.75 -6.25 3.3 -15.95 2.15 Q-17.25 1.9 -18.3 2.15 -14.0 -2.05 -9.8 -4.65 L-10.4 -2.45 -9.25 -2.25 Q-7.3 -2.4 -6.35 -5.5 L-3.25 -6.95 -2.6 -6.75 -0.25 -6.05 -0.25 -5.6 -0.2 -5.45 -0.45 -4.95 -3.2 -4.1 -3.5 -2.6 Q-3.9 -1.7 -3.4 -1.05 L-3.0 -0.7 -2.0 -0.05 -0.85 -0.1 2.25 -3.15 3.3 -2.5 3.25 -1.7 Q2.9 -1.2 2.9 -0.5 2.8 -0.05 3.0 0.4 3.5 1.25 5.35 1.25 6.9 1.25 7.45 0.5 L7.75 -0.8 7.75 -0.85 9.85 -0.75 Q10.75 -0.8 14.2 1.85 L13.9 2.25 14.0 5.05 14.55 5.15 Q16.0 5.8 16.5 3.5 L17.8 4.5" fill="#ffcc99" fill-rule="evenodd" stroke="none"/>
    </g>
    <g id="shape1" transform="matrix(1.0, 0.0, 0.0, 1.0, 44.4, 40.25)">
      <path d="M-43.7 19.7 L-41.9 6.0 Q-40.65 -0.45 -38.5 -6.75 L-37.2 -10.5 Q-34.35 -17.5 -29.9 -23.8 -25.9 -29.6 -22.55 -35.5 L-21.6 -36.9 -20.05 -38.75 Q-19.0 -39.85 -17.65 -40.1 -16.6 -40.35 -15.3 -40.1 -9.1 -38.95 -5.6 -38.95 L-1.9 -39.5 -1.85 -39.5 Q1.25 -40.0 4.75 -39.45 8.25 -38.95 15.8 -35.35 17.2 -35.1 18.7 -34.25 L18.95 -34.1 20.05 -33.15 21.65 -31.25 22.45 -29.35 23.4 -27.5 24.75 -25.65 Q29.8 -20.3 35.4 -15.55 L38.15 -11.3 Q40.6 -6.85 39.75 -3.45 39.2 -1.5 38.35 -0.05 L36.95 1.75 36.5 2.15 Q36.25 -1.75 35.3 -3.05 34.15 -4.65 32.55 -5.7 30.95 -6.8 29.55 -7.15 L27.4 -7.8 Q26.65 -8.1 24.05 -13.0 21.4 -17.9 19.6 -27.5 L16.8 -31.0 Q12.05 -35.9 6.45 -36.45 L6.05 -36.45 2.85 -36.55 Q-0.5 -36.45 -3.05 -35.5 -7.15 -33.0 -10.1 -29.1 -14.75 -23.0 -16.6 -15.2 L-14.95 -22.65 -12.6 -30.1 Q-15.55 -27.85 -17.1 -24.55 -19.05 -20.25 -19.9 -15.35 L-18.95 -22.75 -19.35 -22.05 -20.8 -18.25 -21.8 -14.25 -22.25 -15.7 -23.1 -7.7 -23.85 -10.5 Q-24.7 -14.25 -24.65 -18.1 -24.55 -22.15 -23.3 -26.0 L-26.5 -22.0 Q-30.8 -16.6 -33.95 -10.5 -37.45 -2.35 -39.8 6.0 L-40.9 10.05 -40.5 10.3 -40.95 11.5 -33.2 6.0 -30.5 4.45 -31.05 5.7 -31.55 6.0 -33.25 7.3 Q-40.55 13.15 -43.45 22.3 L-43.7 19.7 M35.0 5.25 Q40.1 11.15 41.8 18.95 L42.25 21.2 42.35 21.95 43.0 30.3 42.4 33.9 Q41.9 30.0 40.9 27.25 39.55 23.75 37.4 22.2 33.5 19.4 33.3 19.6 L30.85 17.8 30.6 17.6 30.65 17.6 Q33.15 18.45 38.0 21.15 35.65 17.6 35.2 13.1 34.7 8.6 33.5 7.8 L33.15 8.25 34.25 6.65 35.0 5.25 M-27.75 8.0 L-33.05 10.9 Q-31.35 9.1 -28.95 8.35 L-27.75 8.0" fill="#d6d88e" fill-rule="evenodd" stroke="none"/>
      <path d="M-8.9 -25.45 L-7.95 -27.55 Q-5.25 -33.45 0.9 -34.75 L3.25 -34.9 6.35 -34.7 Q9.8 -34.35 12.3 -32.95 14.85 -30.6 16.2 -27.5 L17.35 -23.25 17.45 -21.8 Q17.5 -16.15 14.25 -12.1 12.9 -10.4 11.0 -9.0 6.2 -5.2 1.3 -5.2 L0.9 -5.25 -1.25 -5.25 Q-2.4 -5.75 -3.4 -6.45 -9.3 -10.55 -10.0 -16.85 L-10.05 -17.25 Q-10.35 -21.0 -8.9 -25.45 M11.6 -18.75 L11.0 -19.5 Q6.05 -23.8 0.8 -20.05 L-0.25 -19.2 -2.05 -20.45 Q-5.05 -18.15 -4.15 -14.95 L-3.7 -16.1 -3.05 -15.15 -3.3 -13.55 -3.85 -13.1 -4.05 -11.8 -2.95 -13.1 -1.55 -9.25 -0.65 -10.9 0.65 -10.8 0.5 -8.3 1.6 -10.5 2.65 -10.05 2.25 -8.3 3.4 -8.25 3.75 -9.65 4.4 -9.85 5.6 -8.5 7.2 -10.75 7.45 -9.75 5.95 -8.15 Q7.45 -8.5 8.25 -9.85 L9.1 -11.45 10.05 -11.45 10.5 -10.65 11.35 -11.0 12.45 -13.15 11.6 -18.75 M9.75 -10.95 L9.6 -10.55 Q9.6 -10.3 9.75 -10.1 9.85 -9.95 10.0 -9.95 10.15 -9.95 10.3 -10.1 L10.4 -10.55 10.3 -10.95 10.0 -11.15 Q9.85 -11.15 9.75 -10.95" fill="#ffcc99" fill-rule="evenodd" stroke="none"/>
      <path d="M-43.7 19.7 L-43.45 22.3 Q-40.55 13.15 -33.25 7.3 L-31.55 6.0 -31.05 5.7 -30.5 4.45 -33.2 6.0 -40.95 11.5 -40.5 10.3 -40.9 10.05 -39.8 6.0 Q-37.45 -2.35 -33.95 -10.5 -30.8 -16.6 -26.5 -22.0 L-23.3 -26.0 Q-24.55 -22.15 -24.65 -18.1 -24.7 -14.25 -23.85 -10.5 L-23.1 -7.7 -22.25 -15.7 -21.8 -14.25 -20.8 -18.25 -19.35 -22.05 -18.95 -22.75 -19.9 -15.35 Q-19.05 -20.25 -17.1 -24.55 -15.55 -27.85 -12.6 -30.1 L-14.95 -22.65 -16.6 -15.2 Q-14.75 -23.0 -10.1 -29.1 -7.15 -33.0 -3.05 -35.5 -0.5 -36.45 2.85 -36.55 L6.05 -36.45 6.45 -36.45 Q12.05 -35.9 16.8 -31.0 L19.6 -27.5 Q21.4 -17.9 24.05 -13.0 26.65 -8.1 27.4 -7.8 L29.55 -7.15 Q30.95 -6.8 32.55 -5.7 34.15 -4.65 35.3 -3.05 36.25 -1.75 36.5 2.15 L33.95 4.2 35.0 5.25 34.25 6.65 33.15 8.25 33.5 7.8 Q34.7 8.6 35.2 13.1 35.65 17.6 38.0 21.15 33.15 18.45 30.65 17.6 L30.6 17.6 30.85 17.8 33.3 19.6 Q33.5 19.4 37.4 22.2 39.55 23.75 40.9 27.25 41.9 30.0 42.4 33.9 L42.35 33.95 Q40.0 42.05 29.35 39.45 L29.95 33.95 29.65 31.45 Q29.3 29.3 28.6 27.25 27.85 25.05 26.7 23.05 L28.55 24.9 30.15 27.25 31.2 30.0 32.1 33.15 32.2 34.75 Q32.35 39.4 33.3 39.35 34.25 39.3 35.55 32.2 35.55 29.5 34.65 27.25 L34.1 26.15 Q34.05 23.3 31.15 19.55 L28.9 17.05 31.2 17.15 31.55 17.05 31.55 17.0 31.9 16.8 31.95 16.5 32.2 16.25 32.05 12.35 Q31.9 10.25 31.45 8.9 L30.85 7.05 30.45 6.3 32.15 4.5 Q27.25 5.4 22.6 2.45 17.9 -0.55 15.75 -1.1 L16.55 -1.2 17.7 -1.0 Q18.7 -0.85 21.45 0.6 24.15 2.05 29.0 1.75 33.85 1.4 29.1 -2.55 24.35 -6.5 23.75 -6.6 23.1 -6.7 21.95 -9.0 L21.05 -10.8 Q18.6 -16.95 17.35 -23.25 L16.2 -27.5 Q14.85 -30.6 12.3 -32.95 9.8 -34.35 6.35 -34.7 L3.25 -34.9 0.9 -34.75 Q-5.25 -33.45 -7.95 -27.55 L-8.9 -25.45 Q-13.45 -18.45 -14.6 -10.5 L-15.0 -3.15 -15.75 -9.9 -16.65 -3.45 -17.95 -5.1 -18.75 -10.5 -19.15 -11.25 -19.25 -11.05 -19.35 -10.5 -21.25 -0.75 -22.05 -1.9 -26.25 -8.9 Q-26.65 -4.9 -25.55 -0.9 -25.0 1.05 -25.95 2.75 L-23.5 2.8 -23.3 3.3 -21.8 3.5 -28.2 6.0 -23.15 5.7 -23.7 6.0 Q-27.6 8.15 -29.65 12.2 L-30.45 14.0 -26.45 10.65 -27.7 12.8 -32.4 27.2 -33.5 19.3 Q-35.5 22.75 -35.65 26.8 L-35.7 28.7 -35.65 29.45 -35.45 30.3 -35.65 31.5 -35.55 32.3 -35.1 33.0 -39.8 32.6 Q-44.0 32.05 -44.4 28.7 L-43.7 19.7 M-10.0 -16.85 Q-9.3 -10.55 -3.4 -6.45 -2.4 -5.75 -1.25 -5.25 L0.9 -5.25 1.3 -5.2 Q6.2 -5.2 11.0 -9.0 12.9 -10.4 14.25 -12.1 13.3 -9.25 11.25 -7.05 8.8 -4.4 5.45 -3.8 -8.8 -2.05 -10.0 -16.85 M-27.75 8.0 L-28.95 8.35 Q-31.35 9.1 -33.05 10.9 L-27.75 8.0" fill="#c6c553" fill-rule="evenodd" stroke="none"/>
      <path d="M29.35 39.45 L25.85 38.7 25.1 38.45 25.0 38.4 24.15 38.15 Q3.25 31.75 -11.45 31.9 L-30.6 32.7 -33.15 32.95 -34.55 33.1 -35.1 33.0 -35.55 32.3 -35.65 31.5 -35.45 30.3 -35.65 29.45 -35.7 28.7 -35.65 26.8 Q-35.5 22.75 -33.5 19.3 L-32.4 27.2 -27.7 12.8 -26.45 10.65 -30.45 14.0 -29.65 12.2 Q-27.6 8.15 -23.7 6.0 L-23.15 5.7 -28.2 6.0 -21.8 3.5 -23.3 3.3 -23.5 2.8 -25.95 2.75 Q-25.0 1.05 -25.55 -0.9 -26.65 -4.9 -26.25 -8.9 L-22.05 -1.9 -21.25 -0.75 -19.35 -10.5 -19.25 -11.05 -19.15 -11.25 -18.75 -10.5 -17.95 -5.1 -16.65 -3.45 -15.75 -9.9 -15.0 -3.15 -14.6 -10.5 Q-13.45 -18.45 -8.9 -25.45 -10.35 -21.0 -10.05 -17.25 L-10.0 -16.85 Q-8.8 -2.05 5.45 -3.8 8.8 -4.4 11.25 -7.05 13.3 -9.25 14.25 -12.1 17.5 -16.15 17.45 -21.8 L17.35 -23.25 Q18.6 -16.95 21.05 -10.8 L21.95 -9.0 Q23.1 -6.7 23.75 -6.6 24.35 -6.5 29.1 -2.55 33.85 1.4 29.0 1.75 24.15 2.05 21.45 0.6 18.7 -0.85 17.7 -1.0 L16.55 -1.2 15.75 -1.1 Q17.9 -0.55 22.6 2.45 27.25 5.4 32.15 4.5 L30.45 6.3 30.85 7.05 31.45 8.9 Q31.9 10.25 32.05 12.35 L32.2 16.25 31.95 16.5 31.9 16.8 31.55 17.0 31.55 17.05 31.2 17.15 28.9 17.05 31.15 19.55 Q34.05 23.3 34.1 26.15 L34.65 27.25 Q35.55 29.5 35.55 32.2 34.25 39.3 33.3 39.35 32.35 39.4 32.2 34.75 L32.1 33.15 31.2 30.0 30.15 27.25 28.55 24.9 26.7 23.05 Q27.85 25.05 28.6 27.25 29.3 29.3 29.65 31.45 L29.95 33.95 29.35 39.45" fill="#b1b134" fill-rule="evenodd" stroke="none"/>
      <path d="M9.75 -10.95 Q9.85 -11.15 10.0 -11.15 L10.3 -10.95 10.4 -10.55 10.3 -10.1 Q10.15 -9.95 10.0 -9.95 9.85 -9.95 9.75 -10.1 9.6 -10.3 9.6 -10.55 L9.75 -10.95 M11.6 -18.75 L12.45 -13.15 11.35 -11.0 10.5 -10.65 10.05 -11.45 9.1 -11.45 8.25 -9.85 Q7.45 -8.5 5.95 -8.15 L7.45 -9.75 7.2 -10.75 5.6 -8.5 4.4 -9.85 3.75 -9.65 3.4 -8.25 2.25 -8.3 2.65 -10.05 1.6 -10.5 0.5 -8.3 0.65 -10.8 -0.65 -10.9 -1.55 -9.25 -2.95 -13.1 -4.05 -11.8 -3.85 -13.1 -3.3 -13.55 -3.05 -15.15 -3.7 -16.1 -4.15 -14.95 Q-5.05 -18.15 -2.05 -20.45 L-0.25 -19.2 0.8 -20.05 Q6.05 -23.8 11.0 -19.5 L11.6 -18.75" fill="#ebbb98" fill-rule="evenodd" stroke="none"/>
    </g>
  </defs>
</svg>
