<?xml version="1.0" encoding="UTF-8" standalone="no"?>
<svg xmlns:ffdec="https://www.free-decompiler.com/flash" xmlns:xlink="http://www.w3.org/1999/xlink" ffdec:objectType="frame" height="128.85px" width="101.05px" xmlns="http://www.w3.org/2000/svg">
  <g transform="matrix(1.0, 0.0, 0.0, 1.0, 51.4, 73.8)">
    <use ffdec:characterId="2173" height="95.3" transform="matrix(1.0, 0.0, 0.0, 1.0, -45.7, -40.25)" width="91.85" xlink:href="#shape0"/>
    <use ffdec:characterId="2172" height="49.35" id="wound" transform="matrix(1.0, 0.0, 0.0, 1.0, -17.55, -39.6)" width="36.3" xlink:href="#sprite0"/>
    <use ffdec:characterId="1138" height="0.0" id="spineRef" transform="matrix(1.0, 0.0, 0.0, 1.0, 8.85, -47.9)" width="0.0" xlink:href="#sprite1"/>
  </g>
  <defs>
    <g id="shape0" transform="matrix(1.0, 0.0, 0.0, 1.0, 45.7, 40.25)">
      <path d="M-43.7 19.7 L-41.9 6.0 Q-40.65 -0.45 -38.5 -6.75 L-37.2 -10.5 Q-34.35 -17.5 -29.9 -23.8 -25.9 -29.6 -22.55 -35.5 L-21.6 -36.9 -20.05 -38.75 Q-19.0 -39.85 -17.65 -40.1 -16.6 -40.35 -15.3 -40.1 -9.1 -38.95 -5.6 -38.95 L-1.9 -39.5 -1.85 -39.5 Q1.25 -40.0 4.75 -39.45 8.25 -38.95 15.8 -35.35 17.2 -35.1 18.7 -34.25 L18.95 -34.1 20.05 -33.15 21.65 -31.25 22.45 -29.35 23.4 -27.5 24.75 -25.65 Q29.8 -20.3 35.4 -15.55 L38.15 -11.3 Q40.6 -6.85 39.75 -3.45 39.2 -1.5 38.35 -0.05 L36.95 1.75 36.5 2.15 Q36.25 -1.75 35.3 -3.05 34.15 -4.65 32.55 -5.7 30.95 -6.8 29.55 -7.15 L27.4 -7.8 Q26.65 -8.1 24.05 -13.0 21.4 -17.9 19.6 -27.5 L16.8 -31.0 Q12.05 -35.9 6.45 -36.45 L6.05 -36.45 2.85 -36.55 Q-0.5 -36.45 -3.05 -35.5 -7.15 -33.0 -10.1 -29.1 -14.75 -23.0 -16.6 -15.2 L-14.95 -22.65 -12.6 -30.1 Q-15.55 -27.85 -17.1 -24.55 -19.05 -20.25 -19.9 -15.35 L-18.95 -22.75 -19.35 -22.05 -20.8 -18.25 -21.8 -14.25 -22.25 -15.7 -22.85 -9.95 -23.7 -10.0 -23.85 -10.5 Q-24.7 -14.25 -24.65 -18.1 -24.55 -22.15 -23.3 -26.0 L-26.5 -22.0 Q-30.8 -16.6 -33.95 -10.5 -37.45 -2.35 -39.8 6.0 L-40.9 10.05 -40.5 10.3 -40.95 11.5 -33.2 6.0 -30.5 4.45 -31.05 5.7 -31.55 6.0 -33.25 7.3 Q-37.65 10.85 -40.45 15.55 L-43.45 22.3 -43.7 19.7 M35.0 5.25 Q40.1 11.15 41.8 18.95 L42.25 21.2 42.35 21.95 42.4 22.55 46.15 29.4 43.8 28.05 42.65 33.8 41.25 30.15 41.0 29.4 40.45 27.65 40.35 27.4 Q40.35 25.4 39.6 24.0 38.85 22.55 37.8 22.55 L37.4 22.2 35.4 20.8 35.25 20.7 35.05 19.6 35.95 20.05 38.0 21.15 36.7 18.8 37.25 15.15 35.5 15.1 35.2 13.1 Q34.7 8.6 33.5 7.8 L33.15 8.25 34.25 6.65 35.0 5.25 M30.75 17.65 L30.65 17.65 30.6 17.6 30.65 17.6 30.75 17.65 M-32.3 10.2 L-32.3 10.5 -33.05 10.9 -32.3 10.2" fill="#d6d88e" fill-rule="evenodd" stroke="none"/>
      <path d="M-8.9 -25.45 L-7.95 -27.55 Q-5.25 -33.45 0.9 -34.75 L3.25 -34.9 6.35 -34.7 Q9.8 -34.35 12.3 -32.95 14.85 -30.6 16.2 -27.5 L17.35 -23.25 17.45 -21.8 Q17.5 -16.15 14.25 -12.1 12.9 -10.4 11.0 -9.0 6.2 -5.2 1.3 -5.2 L0.9 -5.25 -1.25 -5.25 Q-2.4 -5.75 -3.4 -6.45 -9.3 -10.55 -10.0 -16.85 L-10.05 -17.25 Q-10.35 -21.0 -8.9 -25.45 M11.6 -18.75 L11.0 -19.5 Q6.05 -23.8 0.8 -20.05 L-0.25 -19.2 -2.05 -20.45 Q-5.05 -18.15 -4.15 -14.95 L-3.7 -16.1 -3.05 -15.15 -3.3 -13.55 -3.85 -13.1 -4.05 -11.8 -2.95 -13.1 -1.55 -9.25 -0.65 -10.9 0.65 -10.8 0.5 -8.3 1.6 -10.5 2.65 -10.05 2.25 -8.3 3.4 -8.25 3.75 -9.65 4.4 -9.85 5.6 -8.5 7.2 -10.75 7.45 -9.75 5.95 -8.15 Q7.45 -8.5 8.25 -9.85 L9.1 -11.45 10.05 -11.45 10.5 -10.65 11.35 -11.0 12.45 -13.15 11.6 -18.75 M10.0 -9.95 Q10.15 -9.95 10.3 -10.1 L10.4 -10.55 10.3 -10.95 10.0 -11.15 Q9.85 -11.15 9.75 -10.95 L9.6 -10.55 Q9.6 -10.3 9.75 -10.1 9.85 -9.95 10.0 -9.95" fill="#ffcc99" fill-rule="evenodd" stroke="none"/>
      <path d="M-43.7 19.7 L-43.45 22.3 -40.45 15.55 Q-37.65 10.85 -33.25 7.3 L-31.55 6.0 -31.05 5.7 -30.5 4.45 -33.2 6.0 -40.95 11.5 -40.5 10.3 -40.9 10.05 -39.8 6.0 Q-37.45 -2.35 -33.95 -10.5 -30.8 -16.6 -26.5 -22.0 L-23.3 -26.0 Q-24.55 -22.15 -24.65 -18.1 -24.7 -14.25 -23.85 -10.5 L-23.7 -10.0 -25.5 -9.15 -26.2 -8.8 -26.25 -8.9 -26.25 -8.7 -26.85 -7.8 -29.65 -10.55 -30.45 -9.85 Q-33.0 -4.8 -28.1 -1.3 L-28.35 -0.1 Q-28.95 3.7 -25.3 4.9 L-28.2 6.0 -23.15 5.7 -23.7 6.0 -26.4 7.9 Q-28.1 7.5 -30.6 7.9 L-30.75 7.95 -31.5 8.05 -31.45 8.25 Q-32.15 8.8 -32.3 10.2 L-33.05 10.9 -32.3 10.5 -32.35 11.15 -30.9 12.7 -34.45 13.95 -33.65 16.3 -35.7 16.55 -38.65 18.15 -38.35 19.7 -37.45 22.65 -35.85 25.9 -39.7 22.85 -40.85 23.8 -41.1 28.3 -41.65 27.9 -45.7 30.9 Q-45.75 28.85 -44.65 27.05 L-43.7 25.65 -43.7 19.7 M-22.85 -9.95 L-22.25 -15.7 -21.8 -14.25 -20.8 -18.25 -19.35 -22.05 -18.95 -22.75 -19.9 -15.35 Q-19.05 -20.25 -17.1 -24.55 -15.55 -27.85 -12.6 -30.1 L-14.95 -22.65 -16.6 -15.2 Q-14.75 -23.0 -10.1 -29.1 -7.15 -33.0 -3.05 -35.5 -0.5 -36.45 2.85 -36.55 L6.05 -36.45 6.45 -36.45 Q12.05 -35.9 16.8 -31.0 L19.6 -27.5 Q21.4 -17.9 24.05 -13.0 26.65 -8.1 27.4 -7.8 L29.55 -7.15 Q30.95 -6.8 32.55 -5.7 34.15 -4.65 35.3 -3.05 36.25 -1.75 36.5 2.15 L33.95 4.2 35.0 5.25 34.25 6.65 33.15 8.25 33.5 7.8 Q34.7 8.6 35.2 13.1 L35.5 15.1 34.4 15.2 34.5 14.4 Q34.5 13.55 34.05 13.05 L34.05 12.95 Q34.05 11.3 32.05 11.5 L32.0 11.5 31.45 8.9 30.85 7.05 30.45 6.3 32.15 4.5 Q27.25 5.4 22.6 2.45 17.9 -0.55 15.75 -1.1 L16.55 -1.2 17.7 -1.0 Q18.7 -0.85 21.45 0.6 24.15 2.05 29.0 1.75 33.85 1.4 29.1 -2.55 24.35 -6.5 23.75 -6.6 23.1 -6.7 21.95 -9.0 L21.05 -10.8 Q18.6 -16.95 17.35 -23.25 L16.2 -27.5 Q14.85 -30.6 12.3 -32.95 9.8 -34.35 6.35 -34.7 L3.25 -34.9 0.9 -34.75 Q-5.25 -33.45 -7.95 -27.55 L-8.9 -25.45 Q-13.45 -18.45 -14.6 -10.5 L-15.0 -3.15 -15.75 -9.9 -16.65 -3.45 -17.95 -5.1 -18.75 -10.5 -19.15 -11.25 -19.25 -11.05 -19.35 -10.5 -20.25 -5.85 -20.35 -6.6 Q-20.35 -8.0 -21.05 -8.95 -21.8 -9.95 -22.85 -9.95 M40.45 27.65 L40.25 27.85 40.35 27.4 40.45 27.65 M-10.0 -16.85 Q-9.3 -10.55 -3.4 -6.45 -2.4 -5.75 -1.25 -5.25 L0.9 -5.25 1.3 -5.2 Q6.2 -5.2 11.0 -9.0 12.9 -10.4 14.25 -12.1 13.3 -9.25 11.25 -7.05 8.8 -4.4 5.45 -3.8 -8.8 -2.05 -10.0 -16.85 M36.7 18.8 L38.0 21.15 35.95 20.05 36.7 18.8 M35.25 20.7 L35.4 20.8 37.4 22.2 37.8 22.55 35.05 22.2 35.25 20.7 M-21.9 3.55 L-21.85 3.5 -21.8 3.5 -21.9 3.55 M-22.1 -2.0 L-20.8 -2.9 -21.25 -0.75 -22.05 -1.9 -22.1 -2.0" fill="#c6c553" fill-rule="evenodd" stroke="none"/>
      <path d="M-8.9 -25.45 Q-10.35 -21.0 -10.05 -17.25 L-10.0 -16.85 Q-8.8 -2.05 5.45 -3.8 8.8 -4.4 11.25 -7.05 13.3 -9.25 14.25 -12.1 17.5 -16.15 17.45 -21.8 L17.35 -23.25 Q18.6 -16.95 21.05 -10.8 L21.95 -9.0 Q23.1 -6.7 23.75 -6.6 24.35 -6.5 29.1 -2.55 33.85 1.4 29.0 1.75 24.15 2.05 21.45 0.6 18.7 -0.85 17.7 -1.0 L16.55 -1.2 15.75 -1.1 Q17.9 -0.55 22.6 2.45 27.25 5.4 32.15 4.5 L30.45 6.3 30.85 7.05 31.45 8.9 32.0 11.5 Q30.65 11.65 30.2 12.5 29.65 12.95 29.55 13.85 L25.4 10.2 26.0 7.5 25.95 5.75 22.25 5.4 22.0 4.25 21.5 4.1 19.6 4.05 Q19.1 4.2 18.85 4.6 L18.55 5.8 18.15 6.2 15.9 6.55 13.75 5.6 12.8 4.05 Q11.6 2.2 10.0 0.8 11.2 3.0 12.05 5.3 L10.1 6.55 Q8.75 7.9 8.75 9.75 L8.8 10.45 13.05 11.5 12.0 11.4 12.0 11.6 11.75 11.65 11.75 11.7 11.75 11.75 11.5 11.8 11.6 12.7 11.35 14.15 11.2 14.8 8.0 15.2 8.0 14.8 8.05 14.8 8.25 14.3 8.3 13.4 Q8.3 12.25 4.85 10.05 1.35 7.9 0.05 8.35 L0.1 8.5 Q-2.05 7.6 -3.1 7.6 -2.1 8.6 1.1 13.55 1.3 14.7 1.1 15.7 L-0.35 15.3 Q-1.65 15.1 -2.7 15.3 -3.0 10.05 -5.5 5.3 -6.95 8.6 -6.15 11.95 L-6.25 11.95 Q-6.85 12.1 -6.85 12.9 L-6.85 13.0 -7.0 13.1 Q-7.6 13.6 -7.6 14.6 L-6.65 16.55 -5.75 18.35 -6.4 19.75 -9.15 20.75 -9.7 17.25 Q-9.35 16.25 -9.35 14.8 L-9.4 14.2 -9.35 13.65 -9.45 12.7 -9.6 12.35 -11.4 12.1 -12.0 12.1 -12.35 12.1 Q-13.5 12.15 -14.35 12.55 -15.5 13.05 -15.6 14.05 -16.1 14.75 -16.1 15.8 -16.05 16.7 -15.6 17.55 -14.7 19.3 -12.75 19.3 L-11.75 19.2 -17.95 25.85 -18.5 23.3 -17.0 20.8 -19.15 19.45 -19.0 19.35 Q-18.0 18.75 -18.0 17.65 L-18.0 17.35 -18.0 17.3 Q-17.8 17.0 -17.85 16.35 -20.9 14.15 -22.3 14.2 L-22.25 13.35 -21.6 12.6 Q-24.2 8.95 -24.5 8.75 -25.3 8.15 -26.4 7.9 L-23.7 6.0 -23.15 5.7 -28.2 6.0 -25.3 4.9 -22.35 4.55 -21.9 3.55 -21.8 3.5 -21.85 3.5 -21.7 0.6 -23.35 -1.8 -22.1 -2.0 -22.05 -1.9 -21.25 -0.75 -20.8 -2.9 -20.25 -5.85 -19.35 -10.5 -19.25 -11.05 -19.15 -11.25 -18.75 -10.5 -17.95 -5.1 -16.65 -3.45 -15.75 -9.9 -15.0 -3.15 -14.6 -10.5 Q-13.45 -18.45 -8.9 -25.45 M21.15 13.65 L22.6 13.4 Q23.9 12.55 23.75 10.8 L25.2 10.35 25.5 15.0 24.5 15.55 22.65 14.45 21.5 15.45 21.15 13.65 M29.35 17.55 L29.15 17.55 29.3 17.5 29.35 17.55 M-26.2 -8.8 L-26.25 -8.7 -26.25 -8.9 -26.2 -8.8 M-30.15 13.25 L-29.8 13.45 -30.45 14.0 -30.15 13.25" fill="#b1b134" fill-rule="evenodd" stroke="none"/>
      <path d="M10.0 -9.95 Q9.85 -9.95 9.75 -10.1 9.6 -10.3 9.6 -10.55 L9.75 -10.95 Q9.85 -11.15 10.0 -11.15 L10.3 -10.95 10.4 -10.55 10.3 -10.1 Q10.15 -9.95 10.0 -9.95 M11.6 -18.75 L12.45 -13.15 11.35 -11.0 10.5 -10.65 10.05 -11.45 9.1 -11.45 8.25 -9.85 Q7.45 -8.5 5.95 -8.15 L7.45 -9.75 7.2 -10.75 5.6 -8.5 4.4 -9.85 3.75 -9.65 3.4 -8.25 2.25 -8.3 2.65 -10.05 1.6 -10.5 0.5 -8.3 0.65 -10.8 -0.65 -10.9 -1.55 -9.25 -2.95 -13.1 -4.05 -11.8 -3.85 -13.1 -3.3 -13.55 -3.05 -15.15 -3.7 -16.1 -4.15 -14.95 Q-5.05 -18.15 -2.05 -20.45 L-0.25 -19.2 0.8 -20.05 Q6.05 -23.8 11.0 -19.5 L11.6 -18.75" fill="#ebbb98" fill-rule="evenodd" stroke="none"/>
      <path d="M40.25 27.85 L39.0 30.15 37.8 31.15 37.25 29.0 39.25 26.4 36.2 26.45 31.65 23.9 31.65 22.5 30.5 22.25 29.25 23.1 29.15 24.3 34.5 27.15 33.6 27.55 35.95 30.1 30.8 28.65 29.6 29.15 Q28.7 30.2 26.5 30.5 L26.2 30.55 25.25 30.9 28.8 31.75 24.55 33.65 26.45 34.1 27.3 34.15 29.7 33.5 31.1 32.55 31.8 31.9 Q29.75 34.35 26.15 34.55 21.8 35.1 20.2 31.25 L18.55 30.8 18.3 31.05 18.2 31.15 17.65 30.6 16.15 30.1 15.0 29.7 14.6 30.8 14.15 30.8 11.65 31.15 9.55 30.25 9.8 29.8 2.25 23.85 Q0.35 22.5 -1.0 21.9 L1.25 20.9 -5.7 20.65 Q-9.25 21.55 -9.25 22.3 -9.25 23.55 -8.0 22.65 L-5.4 22.5 Q-5.75 22.8 -5.75 23.4 L-5.7 24.05 -6.35 24.1 -6.25 25.8 Q-7.55 26.1 -8.75 26.85 L-4.1 28.15 Q-3.65 28.4 -2.9 29.8 -2.05 31.4 -1.85 32.35 L0.25 32.35 1.25 31.55 1.0 30.8 -1.7 28.95 -1.95 28.8 Q-1.5 28.45 -1.5 27.35 -2.3 26.15 -3.5 25.75 L-3.35 25.3 -3.8 24.3 -1.95 24.35 Q0.3 29.05 7.55 33.0 L9.1 33.8 8.0 36.75 Q6.0 36.65 6.0 39.15 L6.3 40.85 6.35 41.0 Q4.6 45.25 3.8 45.95 L3.75 46.35 1.9 47.95 2.0 47.65 0.65 48.6 0.65 48.25 0.65 48.2 -0.25 47.8 -2.45 46.5 Q-3.7 46.6 -4.7 47.3 L-5.05 47.6 Q-6.3 48.65 -6.3 49.15 L-6.8 50.25 -7.35 49.85 -8.25 49.05 -8.2 48.4 Q-8.05 46.4 -6.65 45.4 L-7.05 44.6 -8.15 44.95 -8.9 44.65 -6.75 41.9 -4.65 42.2 -2.85 41.05 -2.45 40.25 1.7 40.2 Q3.0 39.35 4.1 39.55 L4.75 37.55 2.2 37.5 1.0 38.2 0.5 37.65 -3.75 38.15 -5.85 35.8 -3.2 36.55 -1.1 35.45 -1.6 34.8 -5.45 34.65 -6.0 34.15 -10.6 35.9 -9.5 36.4 -8.55 36.1 -6.5 39.1 Q-8.2 41.75 -10.9 43.4 -13.65 45.05 -16.85 45.1 L-16.7 45.75 -17.25 46.25 -18.5 45.35 -18.6 44.7 -15.2 41.85 -11.0 41.5 -10.9 40.35 -10.7 38.5 -15.4 38.4 -12.15 32.35 -12.75 31.1 Q-13.45 30.65 -13.85 29.6 -14.25 28.6 -14.25 27.55 -14.25 26.5 -13.9 25.7 L-14.1 24.6 Q-14.1 22.7 -11.6 21.6 L-9.15 20.75 -6.4 19.75 -5.75 18.35 -6.65 16.55 -7.6 14.6 Q-7.6 13.6 -7.0 13.1 L-6.85 13.0 -6.7 13.9 -6.6 14.1 -5.8 14.1 -4.35 13.75 -4.35 14.15 Q-4.35 14.8 -4.85 15.25 -5.35 15.75 -5.35 16.35 L-5.0 17.35 -5.0 17.15 Q-5.0 16.05 -3.55 15.55 L-2.7 15.3 Q-1.65 15.1 -0.35 15.3 L1.1 15.7 2.0 16.1 2.8 16.15 1.45 14.1 1.1 13.55 Q-2.1 8.6 -3.1 7.6 -2.05 7.6 0.1 8.5 0.35 9.35 3.0 12.35 4.0 12.35 5.15 13.75 6.35 15.1 7.0 15.1 L7.5 15.1 7.8 14.95 8.0 14.8 8.0 15.2 Q7.95 15.9 10.05 17.35 L10.9 16.6 11.2 14.8 11.35 14.15 11.75 14.4 17.55 17.9 17.65 18.15 18.9 21.35 19.3 21.3 19.75 19.4 19.9 18.45 Q20.4 19.05 22.5 19.3 L25.05 19.4 25.3 18.85 25.05 18.1 22.95 16.65 Q21.9 16.0 20.95 16.1 L21.5 15.45 22.65 14.45 24.5 15.55 25.0 15.85 27.2 19.4 27.55 17.65 29.25 17.45 29.4 17.45 29.3 17.5 29.15 17.55 29.35 17.55 30.65 17.65 30.75 17.65 35.05 19.6 35.25 20.7 35.05 22.2 37.8 22.55 Q38.85 22.55 39.6 24.0 40.35 25.4 40.35 27.4 L40.25 27.85 M35.85 32.05 L31.95 31.85 35.85 32.05 M-19.95 41.8 Q-21.35 39.6 -23.6 37.95 -20.25 39.9 -18.25 36.95 L-17.85 36.15 -17.75 35.9 -17.85 35.15 -18.2 34.7 -18.25 34.55 -22.1 34.8 -22.0 35.75 -23.85 37.8 Q-24.55 37.3 -25.3 36.9 L-19.6 30.1 -17.55 30.4 -17.45 30.55 Q-16.85 31.45 -16.5 32.4 -15.35 35.25 -15.7 38.45 -17.4 38.45 -18.55 39.35 -19.75 40.25 -19.75 41.55 L-19.95 41.8 M-26.55 34.7 L-28.75 32.3 -33.75 34.95 -35.7 34.1 -41.1 28.3 -40.85 23.8 -39.7 22.85 -35.85 25.9 -37.45 22.65 -38.35 19.7 -38.65 18.15 -35.7 16.55 -33.65 16.3 -30.7 16.45 -29.1 17.1 -20.3 21.4 -20.8 25.6 -21.7 26.5 -22.4 27.65 Q-21.8 26.05 -22.5 24.3 L-23.8 24.85 Q-27.4 20.65 -32.15 22.2 -33.55 22.55 -34.75 23.4 -30.65 23.05 -27.15 24.75 L-32.75 25.4 -30.25 26.6 -31.85 26.8 -33.5 29.05 -36.25 28.55 -30.6 30.55 -30.9 29.9 -29.85 28.8 -29.75 27.65 -28.25 27.9 -29.35 29.8 -26.55 28.9 -26.65 30.45 Q-24.65 30.6 -23.3 29.0 L-24.2 30.55 -26.55 34.7 M34.05 13.05 Q34.5 13.55 34.5 14.4 L34.4 15.2 Q34.2 16.05 33.5 16.65 32.6 17.35 31.5 17.35 L30.6 17.15 Q29.8 16.75 29.55 15.6 L29.5 14.3 29.55 13.85 Q29.65 12.95 30.2 12.5 L30.0 13.45 30.05 14.15 30.05 14.45 Q30.4 15.3 31.75 15.3 L32.65 15.1 33.3 14.55 Q34.0 13.85 34.05 13.05 M21.5 4.1 L22.0 4.25 22.25 5.4 21.45 5.15 21.5 4.1 M26.0 7.5 L25.4 10.2 25.2 10.35 23.75 10.8 Q23.9 12.55 22.6 13.4 L21.15 13.65 18.95 13.2 15.85 14.0 14.1 13.2 13.05 11.5 8.8 10.45 8.75 9.75 Q8.75 7.9 10.1 6.55 L9.9 8.95 11.0 9.4 Q12.85 9.6 14.3 8.65 14.3 9.75 15.15 10.2 20.0 12.45 23.6 8.5 L25.2 8.5 26.0 7.5 M17.0 25.7 L17.0 25.1 16.9 24.4 21.6 24.75 21.75 25.1 24.0 25.3 25.05 26.4 25.25 26.6 25.05 26.6 25.75 26.95 Q27.05 27.85 27.85 27.85 L28.45 27.85 30.5 28.35 Q30.9 27.95 31.05 26.6 L27.75 26.3 26.8 25.15 26.8 24.85 25.55 23.9 25.5 23.85 Q23.8 22.45 21.0 21.9 L20.55 22.15 22.55 23.2 21.05 23.6 21.3 24.1 16.75 23.6 16.75 24.05 Q16.3 23.2 15.05 22.95 L13.3 22.85 13.05 22.05 Q11.95 21.9 10.55 21.15 L10.3 21.3 8.25 19.8 Q6.55 18.6 5.3 19.2 L5.1 19.1 4.75 18.4 1.0 18.3 0.85 18.35 0.8 19.05 Q0.8 20.3 1.05 19.8 L1.8 19.85 2.05 19.9 2.15 19.9 2.3 19.9 Q3.95 22.65 10.15 25.85 16.45 29.1 20.1 29.35 23.7 29.6 23.8 28.85 22.05 27.9 18.85 26.5 L17.0 25.7 M3.55 20.0 L4.0 20.05 4.6 20.05 5.5 20.35 6.6 21.05 6.25 20.9 3.55 20.0 M18.55 5.8 L18.85 4.6 Q19.1 4.2 19.6 4.05 L19.3 5.3 18.55 5.8 M12.0 11.6 L12.0 11.7 11.85 11.7 11.75 11.7 11.75 11.65 12.0 11.6 M12.0 22.7 L11.75 22.6 11.75 22.5 12.0 22.7 M-30.45 -9.85 L-30.6 -8.3 -25.3 -0.5 -25.75 2.15 -25.5 3.0 -21.9 3.55 -22.35 4.55 -25.3 4.9 Q-28.95 3.7 -28.35 -0.1 L-28.1 -1.3 Q-33.0 -4.8 -30.45 -9.85 M-23.35 -1.8 L-26.85 -7.8 -26.25 -8.7 -26.2 -8.8 -25.5 -9.15 -25.6 -6.4 Q-23.25 -5.3 -20.85 -6.05 L-20.35 -6.6 -20.25 -5.85 -20.8 -2.9 -22.1 -2.0 -23.35 -1.8 M-15.6 14.05 L-15.6 14.15 Q-15.6 14.85 -15.25 15.3 -14.55 16.3 -12.5 16.3 L-11.0 16.05 -10.25 15.6 -10.05 15.45 Q-9.55 14.95 -9.4 14.2 L-9.35 14.8 Q-9.35 16.25 -9.7 17.25 -10.25 18.8 -11.75 19.2 L-12.75 19.3 Q-14.7 19.3 -15.6 17.55 -16.05 16.7 -16.1 15.8 -16.1 14.75 -15.6 14.05 M-18.0 17.35 L-18.0 17.65 Q-18.0 18.75 -19.0 19.35 L-19.15 19.45 -20.5 19.8 Q-23.5 19.8 -24.35 18.85 -24.75 18.45 -24.75 17.15 L-24.6 16.1 -24.75 16.1 Q-25.55 16.1 -28.25 14.45 L-28.95 14.0 -29.8 13.45 -30.15 13.25 -30.9 12.7 -32.35 11.15 -32.3 10.5 -32.3 10.2 Q-32.15 8.8 -31.45 8.25 -31.35 9.9 -29.9 11.2 -29.0 11.95 -27.6 12.6 L-23.75 13.8 Q-22.9 13.8 -22.25 13.35 L-22.3 14.2 Q-23.5 14.2 -23.5 15.85 -23.5 16.7 -23.15 17.05 -22.4 17.8 -20.0 17.8 -18.5 17.8 -18.0 17.35" fill="#990000" fill-rule="evenodd" stroke="none"/>
      <path d="M-23.7 -10.0 L-22.85 -9.95 Q-21.8 -9.95 -21.05 -8.95 -20.35 -8.0 -20.35 -6.6 L-20.85 -6.05 Q-23.25 -5.3 -25.6 -6.4 L-25.5 -9.15 -23.7 -10.0 M37.8 31.15 L35.85 32.05 31.95 31.85 31.8 31.9 31.1 32.55 29.7 33.5 27.3 34.15 26.45 34.1 24.55 33.65 28.8 31.75 25.25 30.9 26.2 30.55 26.5 30.5 Q28.7 30.2 29.6 29.15 L30.8 28.65 35.95 30.1 33.6 27.55 34.5 27.15 29.15 24.3 29.25 23.1 30.5 22.25 31.65 22.5 31.65 23.9 36.2 26.45 39.25 26.4 37.25 29.0 37.8 31.15 M1.9 47.95 L1.25 49.35 -0.35 51.8 Q-1.15 52.8 -2.9 52.5 L-3.0 51.75 -2.45 51.2 0.5 49.15 -6.3 49.15 Q-6.3 48.65 -5.05 47.6 L-4.7 47.3 Q-3.7 46.6 -2.45 46.5 L-0.25 47.8 0.65 48.2 0.65 48.25 0.65 48.6 2.0 47.65 1.9 47.95 M-8.2 48.4 L-8.5 48.45 -9.35 48.35 -10.25 47.3 -8.15 44.95 -7.05 44.6 -6.65 45.4 Q-8.05 46.4 -8.2 48.4 M32.0 11.5 L32.05 11.5 Q34.05 11.3 34.05 12.95 L34.05 13.05 Q34.0 13.85 33.3 14.55 L32.65 15.1 31.75 15.3 Q30.4 15.3 30.05 14.45 L30.05 14.15 30.0 13.45 30.2 12.5 Q30.65 11.65 32.0 11.5 M21.5 4.1 L21.45 5.15 22.25 5.4 25.95 5.75 26.0 7.5 25.2 8.5 23.6 8.5 Q20.0 12.45 15.15 10.2 14.3 9.75 14.3 8.65 12.85 9.6 11.0 9.4 L9.9 8.95 10.1 6.55 12.05 5.3 13.75 5.6 15.9 6.55 18.15 6.2 18.55 5.8 19.3 5.3 19.6 4.05 21.5 4.1 M13.05 11.5 L14.1 13.2 Q13.75 13.25 13.45 13.6 L12.85 14.3 13.75 14.9 12.5 14.65 11.75 14.4 11.75 13.65 11.8 13.65 11.85 13.55 11.6 12.7 11.5 11.8 11.75 11.75 11.85 11.7 12.0 11.7 12.0 11.6 12.0 11.4 13.05 11.5 M8.0 14.8 L7.8 14.95 7.5 15.1 7.0 15.1 Q6.35 15.1 5.15 13.75 4.0 12.35 3.0 12.35 0.35 9.35 0.1 8.5 L0.05 8.35 Q1.35 7.9 4.85 10.05 8.3 12.25 8.3 13.4 L8.25 14.3 8.05 14.8 8.0 14.8 M-4.35 13.75 L-5.8 14.1 -6.6 14.1 -6.7 13.9 -6.85 13.0 -6.85 12.9 Q-6.85 12.1 -6.25 11.95 L-6.15 11.95 -4.35 11.85 -4.2 12.1 -4.1 13.05 -4.25 13.6 -4.35 13.75 M-15.4 38.4 L-10.7 38.5 -10.9 40.35 -19.75 41.55 Q-19.75 40.25 -18.55 39.35 -17.4 38.45 -15.7 38.45 L-15.4 38.4 M2.3 19.9 L2.15 19.9 2.05 19.9 1.8 19.85 1.05 19.8 Q0.8 20.3 0.8 19.05 L0.85 18.35 1.0 18.3 4.75 18.4 5.1 19.1 5.3 19.2 Q6.55 18.6 8.25 19.8 L10.3 21.3 10.55 21.15 Q11.95 21.9 13.05 22.05 L13.3 22.85 15.05 22.95 Q16.3 23.2 16.75 24.05 L16.75 23.6 21.3 24.1 21.05 23.6 22.55 23.2 20.55 22.15 21.0 21.9 Q23.8 22.45 25.5 23.85 L25.55 23.9 26.8 24.85 26.8 25.15 27.75 26.3 31.05 26.6 Q30.9 27.95 30.5 28.35 L28.45 27.85 27.85 27.85 Q27.05 27.85 25.75 26.95 L25.05 26.6 25.25 26.6 25.05 26.4 24.0 25.3 21.75 25.1 21.6 24.75 16.9 24.4 17.0 25.1 17.0 25.7 16.9 25.9 16.8 26.3 16.8 26.45 16.0 26.6 14.05 26.4 13.0 26.6 11.5 25.3 10.55 24.3 10.65 23.3 6.6 21.05 5.5 20.35 4.6 20.05 4.0 20.05 3.55 20.0 2.3 19.9 M12.0 22.7 L11.75 22.5 11.75 22.6 12.0 22.7 M-1.95 24.35 L-3.8 24.3 -3.35 25.3 -3.5 25.75 Q-2.3 26.15 -1.5 27.35 -1.5 28.45 -1.95 28.8 L-1.7 28.95 1.0 30.8 1.25 31.55 0.25 32.35 -1.85 32.35 Q-2.05 31.4 -2.9 29.8 -3.65 28.4 -4.1 28.15 L-8.75 26.85 Q-7.55 26.1 -6.25 25.8 L-6.35 24.1 -5.7 24.05 -5.75 23.4 Q-5.75 22.8 -5.4 22.5 L-8.0 22.65 Q-9.25 23.55 -9.25 22.3 -9.25 21.55 -5.7 20.65 L1.25 20.9 -1.0 21.9 Q0.35 22.5 2.25 23.85 L9.8 29.8 9.55 30.25 9.5 30.35 1.65 26.5 Q-0.5 25.35 -1.8 24.35 L-1.95 24.35 M-16.7 45.75 L-16.85 45.1 Q-13.65 45.05 -10.9 43.4 -8.2 41.75 -6.5 39.1 L-8.55 36.1 -9.5 36.4 -10.6 35.9 -6.0 34.15 -5.45 34.65 -1.6 34.8 -1.1 35.45 -3.2 36.55 -5.85 35.8 -3.75 38.15 0.5 37.65 1.0 38.2 2.2 37.5 4.75 37.55 4.1 39.55 Q3.0 39.35 1.7 40.2 L-2.45 40.25 -2.85 41.05 -4.65 42.2 -6.75 41.9 -8.9 44.65 -15.85 46.85 -16.7 45.75 M-21.9 3.55 L-25.5 3.0 -25.75 2.15 -25.3 -0.5 -30.6 -8.3 -30.45 -9.85 -29.65 -10.55 -26.85 -7.8 -23.35 -1.8 -21.7 0.6 -21.85 3.5 -21.9 3.55 M-15.6 14.05 Q-15.5 13.05 -14.35 12.55 -13.5 12.15 -12.35 12.1 L-12.0 12.1 -11.4 12.1 -9.6 12.35 -9.45 12.7 -9.35 13.65 -9.4 14.2 Q-9.55 14.95 -10.05 15.45 L-10.25 15.6 -11.0 16.05 -12.5 16.3 Q-14.55 16.3 -15.25 15.3 -15.6 14.85 -15.6 14.15 L-15.6 14.05 M-22.3 14.2 Q-20.9 14.15 -17.85 16.35 -17.8 17.0 -18.0 17.3 L-18.0 17.35 Q-18.5 17.8 -20.0 17.8 -22.4 17.8 -23.15 17.05 -23.5 16.7 -23.5 15.85 -23.5 14.2 -22.3 14.2 M-22.25 13.35 Q-22.9 13.8 -23.75 13.8 L-27.6 12.6 Q-29.0 11.95 -29.9 11.2 -31.35 9.9 -31.45 8.25 L-31.5 8.05 -30.75 7.95 -30.6 7.9 Q-28.1 7.5 -26.4 7.9 -25.3 8.15 -24.5 8.75 -24.2 8.95 -21.6 12.6 L-22.25 13.35 M-22.4 27.65 L-23.3 29.0 Q-24.65 30.6 -26.65 30.45 L-26.55 28.9 -29.35 29.8 -28.25 27.9 -29.75 27.65 -29.85 28.8 -30.9 29.9 -30.6 30.55 -36.25 28.55 -33.5 29.05 -31.85 26.8 -30.25 26.6 -32.75 25.4 -27.15 24.75 Q-30.65 23.05 -34.75 23.4 -33.55 22.55 -32.15 22.2 -27.4 20.65 -23.8 24.85 L-22.5 24.3 Q-21.8 26.05 -22.4 27.65 M-22.0 35.75 L-22.1 34.8 -18.25 34.55 -18.2 34.7 -17.85 35.15 -17.75 35.9 -17.85 36.15 -21.85 36.3 -22.0 35.75" fill="#ff0000" fill-rule="evenodd" stroke="none"/>
      <path d="M-25.3 36.9 L-25.4 37.0 Q-26.55 38.65 -26.25 40.3 L-26.4 40.5 -27.0 40.85 -27.35 40.35 -27.35 40.85 -28.25 40.85 -27.95 39.8 -28.7 39.2 Q-29.5 38.65 -29.5 37.8 L-29.75 37.9 -29.35 37.35 -28.25 36.15 -26.55 34.7 -24.2 30.55 -23.3 29.0 -22.4 27.65 -21.7 26.5 -20.8 25.6 -20.3 21.4 -29.1 17.1 -30.7 16.45 -33.65 16.3 -34.45 13.95 -30.9 12.7 -30.15 13.25 -30.45 14.0 -29.8 13.45 -28.95 14.0 -28.25 14.45 Q-25.55 16.1 -24.75 16.1 L-24.6 16.1 -24.75 17.15 Q-24.75 18.45 -24.35 18.85 -23.5 19.8 -20.5 19.8 L-19.15 19.45 -17.0 20.8 -18.5 23.3 -17.95 25.85 -11.75 19.2 Q-10.25 18.8 -9.7 17.25 L-9.15 20.75 -11.6 21.6 Q-14.1 22.7 -14.1 24.6 L-13.9 25.7 Q-14.25 26.5 -14.25 27.55 -14.25 28.6 -13.85 29.6 -13.45 30.65 -12.75 31.1 L-12.15 32.35 -15.4 38.4 -15.7 38.45 Q-15.35 35.25 -16.5 32.4 -16.85 31.45 -17.45 30.55 L-17.55 30.4 -19.6 30.1 -25.3 36.9 M34.4 15.2 L35.5 15.1 37.25 15.15 36.7 18.8 35.95 20.05 35.05 19.6 30.75 17.65 30.65 17.6 30.6 17.6 30.65 17.65 29.35 17.55 29.3 17.5 29.4 17.45 29.25 17.45 27.55 17.65 27.2 19.4 25.0 15.85 24.5 15.55 25.5 15.0 25.2 10.35 25.4 10.2 29.55 13.85 29.5 14.3 29.55 15.6 Q29.8 16.75 30.6 17.15 L31.5 17.35 Q32.6 17.35 33.5 16.65 34.2 16.05 34.4 15.2 M15.85 14.0 L18.95 13.2 21.15 13.65 21.5 15.45 20.95 16.1 Q20.35 16.1 19.9 18.45 L19.75 19.4 19.3 21.3 18.9 21.35 17.65 18.15 17.55 17.9 15.85 14.0 M11.2 14.8 L10.9 16.6 10.05 17.35 Q7.95 15.9 8.0 15.2 L11.2 14.8 M1.1 13.55 L1.45 14.1 2.8 16.15 2.0 16.1 1.1 15.7 Q1.3 14.7 1.1 13.55 M-2.7 15.3 L-3.55 15.55 Q-5.0 16.05 -5.0 17.15 L-5.0 17.35 -5.35 16.35 Q-5.35 15.75 -4.85 15.25 -4.35 14.8 -4.35 14.15 L-4.35 13.75 -4.25 13.6 -4.1 13.05 -4.2 12.1 -4.35 11.85 -6.15 11.95 Q-6.95 8.6 -5.5 5.3 -3.0 10.05 -2.7 15.3 M12.05 5.3 Q11.2 3.0 10.0 0.8 11.6 2.2 12.8 4.05 L13.75 5.6 12.05 5.3" fill="#a45619" fill-rule="evenodd" stroke="none"/>
      <path d="M11.65 31.15 L22.25 35.45 16.9 35.6 9.1 33.8 7.55 33.0 Q0.3 29.05 -1.95 24.35 L-1.8 24.35 Q-0.5 25.35 1.65 26.5 L9.5 30.35 9.55 30.25 11.65 31.15 M-3.0 51.75 L-4.5 53.2 -4.4 54.0 Q-5.45 54.4 -6.5 55.05 L-8.75 55.05 -8.95 54.55 -9.1 53.45 -7.85 51.85 -6.8 50.25 -6.3 49.15 0.5 49.15 -2.45 51.2 -3.0 51.75 M-8.5 48.45 L-8.95 49.8 -10.65 50.25 -11.75 49.1 -17.55 48.8 -17.25 46.25 -16.7 45.75 -15.85 46.85 -8.9 44.65 -8.15 44.95 -10.25 47.3 -9.35 48.35 -8.5 48.45 M-18.6 44.7 L-20.4 44.85 -21.05 44.05 -19.95 41.8 -19.75 41.55 -10.9 40.35 -11.0 41.5 -15.2 41.85 -18.6 44.7 M-23.6 37.95 L-23.85 37.8 -22.0 35.75 -21.85 36.3 -17.85 36.15 -18.25 36.95 Q-20.25 39.9 -23.6 37.95 M14.1 13.2 L15.85 14.0 17.55 17.9 11.75 14.4 11.35 14.15 11.6 12.7 11.85 13.55 11.8 13.65 11.75 13.65 11.75 14.4 12.5 14.65 13.75 14.9 12.85 14.3 13.45 13.6 Q13.75 13.25 14.1 13.2 M20.95 16.1 Q21.9 16.0 22.95 16.65 L25.05 18.1 25.3 18.85 25.05 19.4 22.5 19.3 Q20.4 19.05 19.9 18.45 20.35 16.1 20.95 16.1 M17.0 25.7 L18.85 26.5 Q22.05 27.9 23.8 28.85 23.7 29.6 20.1 29.35 16.45 29.1 10.15 25.85 3.95 22.65 2.3 19.9 L3.55 20.0 6.25 20.9 6.6 21.05 10.65 23.3 10.55 24.3 11.5 25.3 13.0 26.6 14.05 26.4 16.0 26.6 16.8 26.45 16.8 26.3 16.9 25.9 17.0 25.7 M11.85 11.7 L11.75 11.75 11.75 11.7 11.85 11.7" fill="#ffffff" fill-rule="evenodd" stroke="none"/>
    </g>
    <g id="sprite0" transform="matrix(1.0, 0.0, 0.0, 1.0, 18.15, 24.7)">
      <use ffdec:characterId="2171" height="49.35" transform="matrix(1.0, 0.0, 0.0, 1.0, -18.15, -24.7)" width="36.3" xlink:href="#shape1"/>
    </g>
    <g id="shape1" transform="matrix(1.0, 0.0, 0.0, 1.0, 18.15, 24.7)">
      <path d="M12.45 -15.85 Q13.4 -14.8 14.65 -14.4 L16.55 -14.2 16.8 -14.25 17.45 -14.8 17.4 -13.0 17.1 -12.85 15.6 -12.6 15.15 -12.7 Q13.1 -13.45 12.45 -15.85 M6.8 -21.95 Q6.8 -21.6 5.25 -20.7 3.6 -19.8 2.4 -19.8 2.05 -19.8 1.65 -20.05 L0.9 -20.3 -0.85 -19.5 -1.05 -18.6 -2.65 -18.45 -1.95 -17.25 -3.0 -17.25 -4.15 -16.3 -3.85 -15.15 4.55 -15.55 6.5 -14.7 Q3.45 -16.85 -0.3 -16.55 L-0.2 -18.0 Q0.55 -18.5 1.4 -18.45 L4.3 -18.0 7.4 -17.2 9.1 -15.6 Q12.9 -14.4 12.9 -10.65 L12.75 -9.45 12.15 -10.8 11.15 -8.2 11.1 -8.5 11.0 -8.6 10.75 -8.65 Q11.35 -10.05 11.0 -11.3 10.4 -13.3 8.4 -13.2 L9.8 -9.95 8.9 -7.1 8.9 -6.45 9.75 -7.0 9.9 -7.05 10.05 -6.9 8.25 -3.7 8.95 -4.0 7.25 -2.7 8.05 -1.7 3.4 -1.05 6.15 0.1 4.25 1.3 5.95 1.8 7.35 2.15 9.35 1.55 10.0 1.25 12.2 1.4 12.55 1.1 12.15 1.85 Q11.2 3.4 9.0 3.4 L8.0 3.35 7.9 3.45 7.8 3.6 7.05 3.35 Q5.15 2.85 5.15 4.55 L5.35 5.65 Q5.9 6.45 7.5 6.45 8.2 6.45 8.6 5.8 L8.9 4.9 9.15 6.45 9.0 7.0 8.7 7.35 8.2 7.7 7.95 7.65 7.3 7.55 Q6.35 7.5 5.9 7.9 4.75 7.65 4.45 6.85 4.25 6.35 4.4 5.95 4.4 5.4 4.55 4.95 L2.35 5.45 Q1.0 6.4 -1.2 6.4 L-1.7 6.4 -1.85 7.05 -2.0 7.65 -2.0 7.95 -2.05 8.7 -2.85 8.25 -3.0 6.5 -5.5 7.05 -5.15 6.7 -5.5 5.3 -5.3 4.2 -5.3 5.35 Q-4.45 6.35 -3.35 5.85 L-0.65 4.65 -2.2 3.75 -0.85 2.55 0.35 2.4 -0.25 3.55 2.85 2.7 3.05 1.55 -0.65 1.65 -1.2 1.25 -3.7 1.9 -4.4 1.3 -5.1 1.4 Q-7.25 1.4 -7.25 -0.7 L-7.15 -1.6 Q-9.35 -4.05 -9.35 -4.8 L-8.75 -6.3 -8.85 -8.35 Q-8.85 -9.65 -7.45 -11.35 L-7.35 -11.45 Q-7.25 -12.65 -6.1 -13.05 L-5.65 -13.15 -5.0 -14.15 -5.75 -14.85 -6.0 -15.4 -6.8 -15.55 Q-7.35 -15.85 -7.4 -16.5 L-7.4 -16.6 -7.1 -16.35 -5.2 -17.45 -3.85 -18.3 -3.25 -18.7 -3.35 -18.85 -3.45 -18.9 -1.3 -20.25 0.8 -21.6 0.9 -21.6 2.25 -21.9 3.55 -22.2 6.8 -21.95 M9.45 -1.85 L9.75 -2.6 9.65 -1.9 9.45 -1.85 M12.75 -2.85 L12.2 -1.65 12.4 -1.45 10.5 -1.0 10.3 -1.8 12.75 -2.85 M-6.0 4.15 Q-5.85 4.5 -5.85 4.95 -5.85 6.1 -6.0 6.55 L-6.1 6.8 Q-6.65 7.8 -8.1 7.8 -9.9 7.8 -10.7 6.35 L-11.1 4.8 -11.1 4.65 -10.65 5.45 Q-9.85 6.45 -8.1 6.45 L-6.9 6.15 -6.35 5.45 Q-6.05 4.85 -6.0 4.15 M-9.8 -15.45 L-9.85 -15.4 Q-10.55 -14.35 -11.6 -14.35 -13.3 -14.35 -13.7 -15.5 -12.15 -15.5 -11.05 -16.3 -9.95 -17.1 -9.95 -18.25 -9.35 -17.85 -9.35 -16.9 L-9.35 -16.85 Q-9.35 -16.2 -9.8 -15.45 M-5.15 -19.9 L-4.95 -20.0 -4.8 -20.05 -5.0 -19.85 -5.15 -19.9 M-3.55 -21.2 L-8.35 -21.35 -8.85 -21.55 Q-6.65 -21.3 -4.6 -22.45 -3.2 -23.2 -1.8 -23.9 L-1.45 -23.6 -2.25 -22.6 -2.2 -21.85 -3.55 -21.2 M5.15 -11.1 L4.35 -10.6 Q4.05 -14.4 0.1 -13.95 L-0.5 -12.45 Q0.35 -9.95 3.15 -9.9 L3.85 -10.05 2.65 -8.4 Q-3.2 -12.8 -3.3 -6.15 -3.3 -5.55 -2.7 -5.1 L-0.55 -3.8 -3.15 -2.2 1.1 -2.3 1.05 -1.15 2.2 -2.4 2.65 -2.75 2.6 -2.85 4.4 -3.2 3.6 -4.6 4.6 -4.2 Q7.9 -6.85 7.75 -10.95 L6.2 -8.75 6.3 -9.1 Q6.6 -10.1 6.05 -10.9 L5.15 -11.1 M1.15 8.9 L2.25 8.95 Q3.2 8.95 3.7 8.4 L4.05 7.95 4.05 8.2 3.9 9.1 Q3.6 9.85 2.65 9.85 1.55 9.85 1.25 9.25 L1.15 8.9 M3.95 7.55 Q3.35 7.2 2.4 7.15 L2.15 7.15 2.6 7.05 Q3.6 6.9 3.95 7.55 M-0.05 10.65 L-1.85 8.7 Q-1.35 8.7 -0.9 9.0 L-0.55 9.3 Q-0.05 9.85 -0.05 10.65 M9.25 8.6 Q10.0 9.15 10.0 10.2 L9.55 11.55 Q9.0 12.45 8.15 12.45 5.95 12.45 5.05 11.35 L4.65 10.2 Q4.65 9.4 4.95 8.9 L5.5 8.3 5.35 8.8 5.25 9.4 5.4 10.15 Q5.75 10.8 7.15 10.8 8.4 10.8 8.9 10.4 9.3 10.05 9.3 9.05 L9.25 8.6 M0.8 11.3 Q2.2 12.65 1.15 14.4 L0.7 14.55 0.7 16.8 -1.0 17.6 -1.45 17.5 Q-2.9 17.5 -3.0 16.05 -0.9 16.45 -1.25 15.3 L-0.1 13.0 0.35 12.8 0.8 11.3 M-3.0 12.55 L-2.95 12.4 -3.5 10.3 Q-2.7 10.25 -2.1 10.7 -1.5 11.1 -1.65 11.65 -1.8 12.2 -2.7 12.45 L-3.0 12.55 M-3.55 10.25 L-5.25 9.85 Q-5.95 9.45 -5.95 8.85 L-4.6 9.05 -3.55 10.25 M-14.75 -2.2 L-14.75 -1.7 Q-14.75 -1.25 -14.9 -0.9 -15.25 -0.15 -16.1 -0.15 -18.15 -0.15 -18.1 -2.25 L-18.1 -2.5 -18.0 -2.3 Q-17.55 -1.55 -16.2 -1.55 -15.15 -1.55 -14.75 -2.2 M-7.05 -7.9 Q-7.15 -6.8 -8.05 -6.3 -9.4 -5.6 -9.0 -4.15 -7.65 -3.8 -6.45 -4.95 -5.7 -5.65 -5.45 -6.7 -5.25 -7.8 -6.0 -8.55 -6.2 -9.3 -5.5 -9.8 L-3.5 -11.55 Q-4.3 -12.4 -5.3 -11.55 -6.45 -10.6 -6.8 -9.25 L-7.05 -7.9 M-5.6 -4.55 Q-6.15 -4.2 -6.15 -3.6 -6.15 -2.65 -5.35 -2.05 -5.15 -2.1 -4.45 -3.1 L-3.75 -4.3 Q-3.75 -4.95 -3.9 -4.55 -4.95 -4.9 -5.6 -4.55 M-5.25 12.55 Q-5.0 12.9 -5.0 13.3 -5.0 15.2 -6.85 15.2 -8.15 15.2 -8.5 14.1 L-8.65 13.35 Q-8.25 13.7 -7.45 13.7 -6.25 13.7 -5.25 12.55" fill="#990000" fill-rule="evenodd" stroke="none"/>
      <path d="M17.45 -14.8 L16.8 -14.25 16.55 -14.2 14.65 -14.4 Q13.4 -14.8 12.45 -15.85 L12.35 -17.15 Q12.9 -17.85 13.75 -17.75 15.7 -17.95 17.35 -16.6 L17.4 -16.2 17.65 -15.8 17.45 -14.85 17.45 -14.8 M-1.05 -18.6 L-0.2 -18.0 -0.3 -16.55 Q3.45 -16.85 6.5 -14.7 L4.55 -15.55 -3.85 -15.15 -4.15 -16.3 -3.0 -17.25 -1.95 -17.25 -2.65 -18.45 -1.05 -18.6 M12.75 -9.45 L13.55 -7.65 13.9 -7.65 Q14.85 -7.45 13.9 -5.3 L11.95 -5.15 11.45 -5.45 8.95 -4.0 8.25 -3.7 10.05 -6.9 9.9 -7.05 9.75 -7.0 8.9 -6.45 8.9 -7.1 9.8 -9.95 8.4 -13.2 Q10.4 -13.3 11.0 -11.3 11.35 -10.05 10.75 -8.65 L11.0 -8.6 11.1 -8.5 11.15 -8.2 12.15 -10.8 12.75 -9.45 M8.05 -1.7 L8.1 -1.65 8.25 -1.5 9.35 -1.85 9.45 -1.85 9.65 -1.9 9.75 -2.6 9.75 -3.35 Q10.85 -5.15 12.75 -3.8 L12.75 -2.85 10.3 -1.8 10.5 -1.0 12.4 -1.45 12.7 -0.4 Q12.9 0.4 12.55 1.1 L12.2 1.4 10.0 1.25 9.35 1.55 7.35 2.15 5.95 1.8 4.25 1.3 6.15 0.1 3.4 -1.05 8.05 -1.7 M7.8 3.6 Q8.9 4.05 8.9 4.85 L8.9 4.9 8.6 5.8 Q8.2 6.45 7.5 6.45 5.9 6.45 5.35 5.65 L5.15 4.55 Q5.15 2.85 7.05 3.35 L7.8 3.6 M-9.4 2.6 L-8.55 2.55 Q-6.0 2.55 -6.0 3.95 L-6.0 4.15 Q-6.05 4.85 -6.35 5.45 L-6.9 6.15 -8.1 6.45 Q-9.85 6.45 -10.65 5.45 L-11.1 4.65 -11.15 4.3 Q-11.15 2.85 -9.4 2.6 M-5.55 7.25 L-5.5 7.05 -3.0 6.5 -2.85 8.25 -2.05 8.7 -1.85 8.7 -0.05 10.65 0.55 10.85 0.8 11.3 0.35 12.8 -0.1 13.0 -1.25 15.3 Q-0.9 16.45 -3.0 16.05 -3.95 15.0 -3.35 13.45 L-3.0 12.55 -2.7 12.45 Q-1.8 12.2 -1.65 11.65 -1.5 11.1 -2.1 10.7 -2.7 10.25 -3.5 10.3 L-3.55 10.25 -4.6 9.05 -5.95 8.85 -5.55 7.25 M-5.3 4.2 L-4.9 3.65 -4.25 3.4 -4.15 2.8 -3.7 1.9 -1.2 1.25 -0.65 1.65 3.05 1.55 2.85 2.7 -0.25 3.55 0.35 2.4 -0.85 2.55 -2.2 3.75 -0.65 4.65 -3.35 5.85 Q-4.45 6.35 -5.3 5.35 L-5.3 4.2 M-13.7 -15.5 Q-14.15 -15.6 -14.25 -16.05 -14.55 -17.0 -13.75 -17.8 -12.2 -19.3 -10.2 -18.65 L-9.95 -18.25 Q-9.95 -17.1 -11.05 -16.3 -12.15 -15.5 -13.7 -15.5 M-7.65 -17.5 Q-7.6 -18.9 -6.7 -19.65 L-5.15 -19.9 -5.0 -19.85 -4.8 -20.05 -3.55 -21.2 -2.2 -21.85 -2.25 -22.6 -1.45 -23.6 -1.3 -23.65 2.15 -24.3 Q4.7 -24.8 6.1 -23.85 7.05 -23.25 7.05 -22.55 L7.0 -22.15 6.9 -21.95 6.8 -21.95 3.55 -22.2 2.25 -21.9 0.9 -21.6 0.8 -21.6 -1.3 -20.25 -3.45 -18.9 -3.35 -18.85 -3.25 -18.7 -3.85 -18.3 -5.2 -17.45 -7.1 -16.35 -7.4 -16.6 -7.55 -16.8 -7.65 -17.45 -7.65 -17.5 M-8.85 -21.55 L-9.05 -21.7 -9.3 -21.95 -9.4 -22.2 -9.35 -22.6 -9.2 -23.3 Q-6.3 -25.4 -2.6 -24.3 L-1.8 -23.9 Q-3.2 -23.2 -4.6 -22.45 -6.65 -21.3 -8.85 -21.55 M5.9 7.9 Q6.35 7.5 7.3 7.55 L7.95 7.65 8.2 7.7 Q9.05 7.95 9.25 8.6 L9.3 9.05 Q9.3 10.05 8.9 10.4 8.4 10.8 7.15 10.8 5.75 10.8 5.4 10.15 L5.25 9.4 5.35 8.8 5.5 8.3 5.9 7.9 M4.05 7.95 L3.7 8.4 Q3.2 8.95 2.25 8.95 L1.15 8.9 1.15 8.65 1.05 8.1 Q1.05 7.25 2.15 7.15 L2.4 7.15 Q3.35 7.2 3.95 7.55 L4.15 7.7 4.05 7.95 M-18.1 -2.5 L-18.15 -3.1 Q-18.15 -4.65 -16.35 -4.4 L-15.25 -4.05 -16.1 -7.0 Q-16.1 -9.2 -14.1 -8.9 -12.15 -8.65 -12.15 -6.85 -12.15 -6.2 -13.15 -4.7 -14.15 -3.3 -14.45 -3.3 L-14.6 -3.3 -14.6 -3.05 Q-14.6 -2.55 -14.75 -2.2 -15.15 -1.55 -16.2 -1.55 -17.55 -1.55 -18.0 -2.3 L-18.1 -2.5 M-7.05 -7.9 L-6.8 -9.25 Q-6.45 -10.6 -5.3 -11.55 -4.3 -12.4 -3.5 -11.55 L-5.5 -9.8 Q-6.2 -9.3 -6.0 -8.55 -5.25 -7.8 -5.45 -6.7 -5.7 -5.65 -6.45 -4.95 -7.65 -3.8 -9.0 -4.15 -9.4 -5.6 -8.05 -6.3 -7.15 -6.8 -7.05 -7.9 M-5.6 -4.55 Q-4.95 -4.9 -3.9 -4.55 -3.75 -4.95 -3.75 -4.3 L-4.45 -3.1 Q-5.15 -2.1 -5.35 -2.05 -6.15 -2.65 -6.15 -3.6 -6.15 -4.2 -5.6 -4.55 M-8.65 13.35 Q-9.0 13.05 -9.0 12.45 -9.0 11.1 -7.25 11.05 -5.5 10.95 -5.0 12.2 L-5.25 12.55 Q-6.25 13.7 -7.45 13.7 -8.25 13.7 -8.65 13.35 M-3.7 20.6 Q-5.85 20.6 -5.85 19.05 -5.85 17.65 -4.15 17.8 -2.5 17.95 -2.5 19.3 -2.5 20.6 -3.7 20.6" fill="#ff0000" fill-rule="evenodd" stroke="none"/>
      <path d="M5.15 -11.1 L6.05 -10.9 Q6.6 -10.1 6.3 -9.1 L6.2 -8.75 7.75 -10.95 Q7.9 -6.85 4.6 -4.2 L3.6 -4.6 4.4 -3.2 2.6 -2.85 2.65 -2.75 2.2 -2.4 1.05 -1.15 1.1 -2.3 -3.15 -2.2 -0.55 -3.8 -2.7 -5.1 Q-3.3 -5.55 -3.3 -6.15 -3.2 -12.8 2.65 -8.4 L3.85 -10.05 3.15 -9.9 Q0.35 -9.95 -0.5 -12.45 L0.1 -13.95 Q4.05 -14.4 4.35 -10.6 L5.15 -11.1" fill="#650101" fill-rule="evenodd" stroke="none"/>
      <path d="M15.6 -12.6 L17.1 -12.85 17.5 -12.25 Q17.65 -11.2 17.25 -10.5 L16.5 -9.35 15.6 -12.6 M9.0 7.0 Q14.5 3.45 16.4 -2.65 L16.6 -1.75 Q16.9 -0.3 16.45 0.9 L15.5 3.65 18.15 6.8 16.8 8.15 Q18.3 9.75 17.8 10.55 L17.05 11.35 14.15 9.95 Q13.2 11.25 11.7 11.5 L10.65 11.45 8.9 14.7 Q9.3 15.95 10.05 16.95 L11.1 18.05 10.8 19.85 Q9.1 20.8 8.3 19.85 L5.8 16.4 5.8 15.95 Q4.7 15.1 3.15 15.55 3.1 16.65 2.5 17.25 L2.0 17.55 -0.25 18.55 Q-1.65 23.6 -5.8 20.85 -7.45 19.75 -6.4 17.75 L-6.1 17.1 -10.9 16.9 -12.15 17.55 Q-13.15 19.8 -14.35 19.95 L-15.05 19.95 -15.75 19.6 -16.05 19.4 Q-16.3 18.7 -15.95 18.15 L-15.4 17.55 Q-15.15 17.3 -14.8 17.15 L-13.45 16.45 Q-11.85 14.05 -11.0 11.25 -10.55 9.75 -10.85 8.45 L-12.1 8.95 -13.1 8.45 -12.1 5.4 -13.5 5.3 -13.1 2.95 -13.75 1.85 -12.95 0.6 -12.5 0.2 -12.0 -0.05 -10.65 0.6 -10.45 -0.15 -9.4 2.6 Q-11.15 2.85 -11.15 4.3 L-11.1 4.65 -11.1 4.8 -10.7 6.35 Q-9.9 7.8 -8.1 7.8 -6.65 7.8 -6.1 6.8 L-5.55 7.25 -5.95 8.85 Q-5.95 9.45 -5.25 9.85 L-3.55 10.25 -3.5 10.3 -2.95 12.4 -3.0 12.55 -3.35 13.45 Q-3.95 15.0 -3.0 16.05 -2.9 17.5 -1.45 17.5 L-1.0 17.6 0.7 16.8 0.7 14.55 1.15 14.4 Q2.2 12.65 0.8 11.3 L0.55 10.85 -0.05 10.65 Q-0.05 9.85 -0.55 9.3 L-0.9 9.0 1.25 9.25 Q1.55 9.85 2.65 9.85 3.6 9.85 3.9 9.1 L4.95 8.9 Q4.65 9.4 4.65 10.2 L5.05 11.35 Q5.95 12.45 8.15 12.45 9.0 12.45 9.55 11.55 L10.0 10.2 Q10.0 9.15 9.25 8.6 9.05 7.95 8.2 7.7 L8.7 7.35 9.0 7.0 M-6.8 -15.55 L-8.55 -12.65 -9.5 -10.55 -10.6 -8.75 -11.55 -9.9 -11.1 -10.8 Q-10.25 -12.55 -8.85 -14.15 L-9.6 -15.5 -9.8 -15.45 Q-9.35 -16.2 -9.35 -16.85 L-9.35 -16.9 -7.7 -17.5 -7.65 -17.5 -7.65 -17.45 -7.55 -16.8 -7.4 -16.6 -7.4 -16.5 Q-7.35 -15.85 -6.8 -15.55 M7.95 24.35 L7.55 24.65 5.45 21.9 Q4.6 19.0 7.3 19.65 L8.15 21.25 Q9.05 23.0 7.95 24.35 M-5.25 12.55 L-5.0 12.2 Q-5.5 10.95 -7.25 11.05 -9.0 11.1 -9.0 12.45 -9.0 13.05 -8.65 13.35 L-8.5 14.1 Q-8.15 15.2 -6.85 15.2 -5.0 15.2 -5.0 13.3 -5.0 12.9 -5.25 12.55 M-3.7 20.6 Q-2.5 20.6 -2.5 19.3 -2.5 17.95 -4.15 17.8 -5.85 17.65 -5.85 19.05 -5.85 20.6 -3.7 20.6" fill="#a45619" fill-rule="evenodd" stroke="none"/>
    </g>
  </defs>
</svg>
