<?xml version="1.0" encoding="UTF-8" standalone="no"?>
<svg xmlns:ffdec="https://www.free-decompiler.com/flash" xmlns:xlink="http://www.w3.org/1999/xlink" ffdec:objectType="frame" height="61.95px" width="10.75px" xmlns="http://www.w3.org/2000/svg">
  <g transform="matrix(1.0, 0.0, 0.0, 1.0, 5.15, 8.65)">
    <use ffdec:characterId="1357" ffdec:characterName="game_fla.upperarm1_805" height="38.3" id="upperArm1" transform="matrix(1.0, 0.0, 0.0, 1.0, -5.15, -8.65)" width="10.75" xlink:href="#sprite0"/>
    <use ffdec:characterId="1361" height="32.75" id="lowerArmOuter1" transform="matrix(1.0, 0.0, 0.0, 1.0, -4.55, 20.55)" width="9.15" xlink:href="#sprite2"/>
  </g>
  <defs>
    <g id="sprite0" transform="matrix(1.0, 0.0, 0.0, 1.0, 5.3, 20.1)">
      <use ffdec:characterId="1353" height="36.6" transform="matrix(1.0, 0.0, 0.0, 1.0, -4.1, -18.45)" width="9.35" xlink:href="#shape0"/>
      <use ffdec:characterId="1081" height="100.0" id="shape" transform="matrix(0.1, 0.0, 0.0, 0.36, -4.9995, -17.9993)" width="100.0" xlink:href="#sprite1"/>
    </g>
    <g id="shape0" transform="matrix(1.0, 0.0, 0.0, 1.0, 4.1, 18.45)">
      <path d="M4.45 -16.35 Q5.25 -14.5 5.25 -10.95 5.25 -7.85 4.7 -6.45 L4.6 -6.1 4.3 -2.55 3.65 3.25 3.65 3.75 3.6 4.25 3.55 5.1 3.45 6.1 Q3.2 8.4 3.25 13.6 3.25 14.85 2.8 15.9 2.5 16.8 1.55 17.45 -0.65 18.8 -2.95 17.5 -4.05 16.0 -4.1 13.85 L-4.0 11.0 Q-3.85 9.75 -3.85 8.55 L-3.8 7.1 -4.1 -4.3 -4.05 -9.9 -4.05 -11.2 -3.95 -13.6 Q-3.75 -15.85 -2.5 -17.2 -1.3 -18.6 1.2 -18.4 3.65 -18.25 4.45 -16.35 M-1.35 0.7 L-1.5 0.8 -1.4 0.8 -1.35 0.7" fill="#ffcc99" fill-rule="evenodd" stroke="none"/>
      <path d="M-1.35 0.7 L-1.4 0.8 -1.5 0.8 -1.35 0.7" fill="#ffcc66" fill-rule="evenodd" stroke="none"/>
    </g>
    <g id="sprite1" transform="matrix(1.0, 0.0, 0.0, 1.0, 50.0, 50.0)">
      <use ffdec:characterId="1080" height="100.0" transform="matrix(1.0, 0.0, 0.0, 1.0, -50.0, -50.0)" width="100.0" xlink:href="#shape1"/>
    </g>
    <g id="shape1" transform="matrix(1.0, 0.0, 0.0, 1.0, 50.0, 50.0)">
      <path d="M50.0 50.0 L-50.0 50.0 -50.0 -50.0 50.0 -50.0 50.0 50.0 Z" fill="none" stroke="#9900ff" stroke-linecap="round" stroke-linejoin="round" stroke-width="0.05"/>
    </g>
    <g id="sprite2" transform="matrix(1.0, 0.0, 0.0, 1.0, 4.6, 4.3)">
      <use ffdec:characterId="1360" ffdec:characterName="game_fla.lowerarm1_807" height="32.75" id="lowerArm1" transform="matrix(1.0, 0.0, 0.0, 1.0, -4.6, -4.3)" width="9.15" xlink:href="#sprite3"/>
    </g>
    <g id="sprite3" transform="matrix(1.0, 0.0, 0.0, 1.0, 5.25, 15.0)">
      <use ffdec:characterId="1358" height="32.7" transform="matrix(1.0, 0.0, 0.0, 1.0, -5.25, -14.95)" width="9.05" xlink:href="#shape2"/>
      <use ffdec:characterId="1081" height="100.0" id="shape" transform="matrix(0.07, 0.0, 0.0, 0.3, -3.4996, -15.0002)" width="100.0" xlink:href="#sprite1"/>
    </g>
    <g id="shape2" transform="matrix(1.0, 0.0, 0.0, 1.0, 5.25, 14.95)">
      <path d="M-2.65 11.75 L-2.5 11.15 Q-2.4 9.45 -2.05 8.7 L-2.25 6.45 Q-2.25 4.45 -2.8 1.45 L-3.85 -3.75 -4.7 -7.75 Q-5.15 -9.7 -4.55 -11.2 -3.5 -14.0 -0.6 -14.95 L2.05 -13.85 Q3.75 -13.05 3.55 -6.7 L2.7 8.9 Q3.15 9.3 3.45 10.3 3.9 11.7 3.75 13.55 L3.65 14.05 3.15 12.5 Q2.75 13.35 2.5 14.15 L2.25 15.15 1.8 15.95 0.95 17.15 1.55 15.7 Q1.55 15.1 1.25 15.1 1.0 15.1 0.95 15.25 L0.7 15.5 -0.7 14.9 Q-1.95 14.4 -1.95 14.0 L-1.45 12.25 Q-0.9 10.5 -0.9 9.9 L-1.05 9.6 -1.15 9.1 -0.95 8.7 -0.75 8.1 Q-0.6 6.0 -1.85 -0.5 L-3.15 -7.95 -3.25 -8.0 -3.25 -7.85 Q-3.3 -6.85 -2.2 -0.4 -1.1 6.05 -1.3 8.1 L-2.45 11.2 -2.55 11.7 -2.65 11.75" fill="#ffcc99" fill-rule="evenodd" stroke="none"/>
      <path d="M2.25 15.15 L2.5 14.15 Q2.75 13.35 3.15 12.5 L3.65 14.05 Q3.65 14.55 3.25 14.85 2.8 15.2 2.25 15.15" fill="#e2b181" fill-rule="evenodd" stroke="none"/>
      <path d="M-2.65 11.75 L-2.55 11.7 -2.45 11.2 -1.3 8.1 Q-1.1 6.05 -2.2 -0.4 -3.3 -6.85 -3.25 -7.85 L-3.25 -8.0 -3.15 -7.95 -1.85 -0.5 Q-0.6 6.0 -0.75 8.1 L-0.95 8.7 -1.15 9.1 -1.05 9.6 -0.9 9.9 Q-0.9 10.5 -1.45 12.25 L-1.95 14.0 Q-1.95 14.4 -0.7 14.9 L0.7 15.5 0.95 15.25 Q1.0 15.1 1.25 15.1 1.55 15.1 1.55 15.7 L0.95 17.15 0.8 17.55 0.55 17.45 0.25 17.5 -1.25 17.75 -2.5 17.25 -2.65 16.7 -3.0 16.65 Q-4.4 16.8 -5.1 15.75 L-5.15 15.7 -5.25 15.1 -4.25 14.5 Q-3.25 13.7 -2.65 11.75" fill="#ebbb98" fill-rule="evenodd" stroke="none"/>
    </g>
  </defs>
</svg>
