<?xml version="1.0" encoding="UTF-8" standalone="no"?>
<svg xmlns:ffdec="https://www.free-decompiler.com/flash" xmlns:xlink="http://www.w3.org/1999/xlink" ffdec:objectType="frame" height="20.9px" width="14.6px" xmlns="http://www.w3.org/2000/svg">
  <g transform="matrix(1.0, 0.0, 0.0, 1.0, 7.9, 11.8)">
    <use ffdec:characterId="2328" height="20.9" transform="matrix(1.0, 0.0, 0.0, 1.0, -7.9, -11.8)" width="14.6" xlink:href="#shape0"/>
  </g>
  <defs>
    <g id="shape0" transform="matrix(1.0, 0.0, 0.0, 1.0, 7.9, 11.8)">
      <path d="M6.0 -10.35 Q5.75 -10.35 5.6 -10.1 L5.45 -9.6 4.9 -8.3 4.15 -7.85 2.9 -8.9 1.85 -10.0 3.05 -9.8 2.05 -11.0 Q3.65 -12.45 5.55 -11.3 L5.95 -11.05 6.0 -10.35 M-3.1 -5.35 L-3.15 -5.3 -3.2 -5.25 -3.25 -5.2 -3.95 -3.9 -5.2 -3.45 -7.0 -4.2 -3.9 -6.2 -3.7 -6.6 -3.25 -7.25 -3.9 -8.0 -3.65 -9.45 -2.3 -8.7 -3.1 -5.35 M-5.4 -1.15 L-5.05 -1.15 Q-4.5 -1.0 -4.95 -0.55 L-7.1 1.05 -7.6 0.35 -7.55 -0.1 -5.4 -1.15 M-4.85 1.65 L-3.65 1.95 Q-3.15 2.25 -3.15 2.7 L-3.2 3.45 -4.15 4.25 -6.9 3.85 -5.75 4.75 -6.0 5.4 -7.35 4.7 -7.6 4.2 -7.15 2.1 -6.75 1.8 -5.9 2.25 -4.85 1.65 M-1.9 4.55 L-1.2 5.25 -0.9 7.05 -0.9 7.15 -1.35 7.3 -1.6 6.25 -3.85 5.3 -3.55 4.4 -1.9 4.55 M-1.85 -0.25 L-1.25 -0.35 Q-0.1 -0.45 0.75 0.3 L0.75 1.15 0.5 1.5 0.0 1.85 -1.45 1.65 -2.25 0.5 -1.85 -0.25" fill="#ff0000" fill-rule="evenodd" stroke="none"/>
      <path d="M5.45 -9.6 L5.25 -8.5 Q4.8 -7.15 3.2 -7.15 L1.95 -7.35 0.7 -7.55 -1.1 -7.7 -3.05 -5.45 -3.1 -5.35 -2.3 -8.7 -3.65 -9.45 -3.25 -9.7 -0.1 -8.55 0.7 -9.1 1.25 -9.55 Q1.7 -9.95 2.05 -11.0 L3.05 -9.8 1.85 -10.0 2.9 -8.9 4.15 -7.85 4.9 -8.3 5.45 -9.6 M-5.2 -3.45 L-5.7 -3.25 -6.25 -1.2 -5.4 -1.15 -7.55 -0.1 -7.65 -1.7 Q-7.6 -3.1 -7.0 -4.2 L-5.2 -3.45 M-4.95 -0.55 L-4.9 0.0 Q-4.8 0.95 -5.05 1.55 L-4.85 1.65 -5.9 2.25 -6.75 1.8 -7.15 2.1 -7.4 1.8 -7.9 1.0 -7.6 0.35 -7.1 1.05 -4.95 -0.55 M-3.15 2.7 L-1.9 4.55 -3.55 4.4 -3.85 5.3 -1.6 6.25 -1.35 7.3 -1.55 7.35 -1.5 7.5 -2.8 7.85 -2.6 8.05 -1.9 8.4 -1.35 8.05 -0.6 8.45 1.85 8.1 Q1.0 9.3 -0.85 9.05 L-1.95 9.1 -3.95 8.15 -4.55 8.0 -6.5 6.85 -6.45 5.65 -6.0 5.4 -5.75 4.75 -6.9 3.85 -4.15 4.25 -3.2 3.45 -3.15 2.7 M-3.7 -6.6 L-3.9 -8.0 -3.25 -7.25 -3.7 -6.6 M0.5 1.5 L0.15 2.1 -0.9 2.7 -1.55 2.2 Q-2.35 1.5 -2.6 0.4 L-1.85 -0.25 -2.25 0.5 -1.45 1.65 0.0 1.85 0.5 1.5 M-3.95 8.15 L-2.95 7.8 -3.05 7.5 Q-3.8 7.2 -3.95 8.15" fill="#990000" fill-rule="evenodd" stroke="none"/>
      <path d="M5.45 -9.6 L5.6 -10.1 Q5.75 -10.35 6.0 -10.35 5.45 -6.55 5.45 -5.7 L5.65 -3.95 4.95 -2.6 4.85 -2.35 4.9 -1.65 5.2 -0.95 5.2 -0.9 5.25 -0.85 5.75 0.45 6.0 1.2 6.6 2.15 6.7 2.95 6.7 4.0 6.6 4.2 6.2 4.65 5.9 4.8 5.85 4.65 5.4 4.05 5.3 4.0 3.9 3.55 2.8 3.9 2.5 4.05 1.95 3.75 Q1.75 3.4 1.95 3.1 L3.0 1.7 1.5 2.65 0.8 3.3 Q-0.55 4.5 -0.5 5.05 L-0.4 5.7 -0.35 5.95 -0.2 5.75 1.0 4.45 1.6 3.95 2.25 4.8 2.35 4.95 2.4 5.1 Q1.4 5.15 0.15 5.8 L0.1 5.85 -0.85 6.45 -0.9 7.05 -1.2 5.25 -1.9 4.55 -3.15 2.7 Q-3.15 2.25 -3.65 1.95 L-4.85 1.65 -5.05 1.55 Q-4.8 0.95 -4.9 0.0 L-4.95 -0.55 Q-4.5 -1.0 -5.05 -1.15 L-5.4 -1.15 -6.25 -1.2 -5.7 -3.25 -5.2 -3.45 -3.95 -3.9 -3.25 -5.2 -3.2 -5.25 -3.15 -5.3 -3.1 -5.35 -3.05 -5.45 -1.1 -7.7 0.7 -7.55 1.95 -7.35 3.2 -7.15 Q4.8 -7.15 5.25 -8.5 L5.45 -9.6 M-2.5 -3.05 Q-3.5 -2.65 -3.5 -2.15 L-3.5 -2.1 Q-2.35 -2.2 -1.25 -1.6 L0.5 -0.6 Q1.05 -0.2 2.15 0.45 2.85 -0.4 2.8 -0.75 L2.9 -1.65 3.6 -2.0 3.7 -2.0 4.1 -2.15 4.3 -2.6 4.3 -2.7 4.25 -3.05 Q4.5 -3.05 3.75 -4.0 3.0 -4.9 0.75 -4.6 -1.5 -4.35 -2.05 -3.75 L-2.5 -3.05 M0.5 1.5 L0.75 1.15 0.75 0.3 Q-0.1 -0.45 -1.25 -0.35 L-1.85 -0.25 -2.6 0.4 Q-2.35 1.5 -1.55 2.2 L-0.9 2.7 0.15 2.1 0.5 1.5 M-1.35 7.3 L-0.9 7.15 -0.95 7.7 -1.5 7.5 -1.55 7.35 -1.35 7.3 M4.0 6.65 L4.0 6.8 3.95 6.8 3.8 6.95 3.75 7.0 3.5 7.35 3.5 6.95 3.4 6.8 3.05 6.7 2.7 6.7 1.9 6.8 0.25 7.5 -0.2 7.55 0.1 7.15 0.85 6.75 1.7 6.35 2.55 6.15 3.3 6.15 3.85 6.5 4.0 6.65" fill="#ffcc99" fill-rule="evenodd" stroke="none"/>
      <path d="M2.4 5.1 L2.35 4.95 2.25 4.8 1.6 3.95 1.7 3.75 1.75 3.75 1.95 3.75 2.5 4.05 2.8 3.9 3.9 3.55 5.3 4.0 5.4 4.05 5.85 4.65 5.9 4.8 5.4 4.85 5.25 4.85 5.15 4.85 5.0 4.85 4.85 4.85 4.25 5.35 4.25 5.5 4.2 5.4 4.15 5.3 2.75 5.05 2.55 5.1 2.4 5.1 M-2.5 -3.05 L-2.15 -3.0 1.3 -3.75 2.45 -3.75 2.9 -3.5 Q3.45 -3.05 4.05 -3.05 L4.25 -3.05 4.3 -2.7 4.3 -2.6 4.1 -2.15 3.7 -2.0 3.6 -2.0 2.9 -1.65 2.8 -0.75 Q2.85 -0.4 2.15 0.45 1.05 -0.2 0.5 -0.6 L-1.25 -1.6 Q-2.35 -2.2 -3.5 -2.1 L-3.5 -2.15 Q-3.5 -2.65 -2.5 -3.05 M0.85 -1.85 L1.45 -1.6 1.6 -1.2 2.0 -1.55 2.35 -2.0 2.45 -2.3 -0.05 -2.35 0.85 -1.85 M4.1 6.2 L4.0 6.65 3.85 6.5 3.3 6.15 4.0 6.2 4.1 6.2 M3.5 7.35 L3.45 7.45 2.6 7.35 0.25 7.5 1.9 6.8 2.7 6.7 3.05 6.7 3.4 6.8 3.5 6.95 3.5 7.35" fill="#c79b68" fill-rule="evenodd" stroke="none"/>
      <path d="M0.85 -1.85 L-0.05 -2.35 2.45 -2.3 2.35 -2.0 2.0 -1.55 1.6 -1.2 1.45 -1.6 0.85 -1.85" fill="#000000" fill-rule="evenodd" stroke="none"/>
      <path d="M1.6 3.95 L1.0 4.45 -0.2 5.75 -0.35 5.95 -0.4 5.7 -0.5 5.05 Q-0.55 4.5 0.8 3.3 L1.5 2.65 3.0 1.7 1.95 3.1 Q1.75 3.4 1.95 3.75 L1.75 3.75 1.7 3.75 1.6 3.95" fill="#ebbb98" fill-rule="evenodd" stroke="none"/>
      <path d="M-0.9 7.05 L-0.85 6.45 0.1 5.85 0.15 5.8 Q1.4 5.15 2.4 5.1 L2.55 5.1 2.75 5.05 4.15 5.3 4.2 5.4 4.1 6.2 4.0 6.2 3.3 6.15 2.55 6.15 1.7 6.35 0.85 6.75 0.1 7.15 -0.2 7.55 -0.95 7.7 -0.9 7.15 -0.9 7.05 M4.25 -3.05 L4.05 -3.05 Q3.45 -3.05 2.9 -3.5 L2.45 -3.75 1.3 -3.75 -2.15 -3.0 -2.5 -3.05 -2.05 -3.75 Q-1.5 -4.35 0.75 -4.6 3.0 -4.9 3.75 -4.0 4.5 -3.05 4.25 -3.05" fill="#996633" fill-rule="evenodd" stroke="none"/>
      <path d="M-3.95 8.15 Q-3.8 7.2 -3.05 7.5 L-2.95 7.8 -3.95 8.15 M1.85 8.1 L-0.6 8.45 -1.35 8.05 -1.9 8.4 -2.6 8.05 -2.8 7.85 -1.5 7.5 -0.95 7.7 -0.2 7.55 0.25 7.5 2.6 7.35 2.45 7.95 1.85 8.1" fill="#ffffff" fill-rule="evenodd" stroke="none"/>
    </g>
  </defs>
</svg>
