<?xml version="1.0" encoding="UTF-8" standalone="no"?>
<svg xmlns:ffdec="https://www.free-decompiler.com/flash" xmlns:xlink="http://www.w3.org/1999/xlink" ffdec:objectType="frame" height="29.25px" width="33.7px" xmlns="http://www.w3.org/2000/svg">
  <g transform="matrix(1.0, 0.0, 0.0, 1.0, 15.95, 18.75)">
    <use ffdec:characterId="1251" height="19.1" transform="matrix(1.0, 0.0, 0.0, 1.0, -11.0, -9.45)" width="21.4" xlink:href="#shape0"/>
  </g>
  <defs>
    <g id="shape0" transform="matrix(1.0, 0.0, 0.0, 1.0, 11.0, 9.45)">
      <path d="M-10.25 2.9 Q-10.5 -1.35 -9.9 -4.05 L-9.25 -6.9 -9.25 -7.05 -8.8 -8.15 -7.95 -8.95 Q-7.4 -9.45 -4.6 -9.4 L-4.6 -9.45 2.15 -9.45 Q6.8 -9.4 8.7 -8.3 L9.75 -7.25 9.85 -6.65 9.85 -5.2 Q10.4 -4.15 10.4 -1.85 L10.35 -0.3 Q10.2 1.15 9.6 2.3 L9.2 3.1 8.95 3.65 8.85 3.1 8.75 2.8 Q8.45 1.55 7.35 0.85 L7.3 0.8 6.5 0.5 6.45 0.2 Q6.0 -2.95 4.0 -5.45 L3.55 -5.6 3.05 -5.45 Q2.8 -5.55 1.75 -5.05 L-1.35 -5.2 -2.55 -6.95 Q-2.75 -5.2 -3.55 -4.7 -4.4 -4.2 -4.6 -3.6 L-4.7 -3.45 -4.7 -3.6 -4.85 -4.35 -6.75 -5.0 -8.25 -4.1 -8.45 -3.7 -8.55 -1.9 -8.35 -1.5 -7.45 -1.15 Q-8.4 0.2 -8.15 1.85 L-8.0 2.55 -8.8 2.35 -9.15 2.3 -9.9 2.55 -10.25 2.9 M-2.4 9.6 L-3.45 9.55 -6.0 9.4 -8.3 8.85 Q-9.45 8.55 -9.9 6.3 L-9.65 6.45 -9.2 6.45 -9.1 6.6 -9.15 7.1 -8.75 7.65 Q-7.8 8.7 -6.5 8.75 L-5.95 8.95 -5.75 9.0 -4.55 9.35 -2.4 9.6 M9.3 -4.1 L7.8 -5.05 Q6.75 -5.05 6.4 -4.15 L6.05 -2.85 6.15 -2.1 Q6.25 -1.6 6.5 -1.15 L6.85 -0.7 Q7.1 -0.4 7.55 -0.4 L9.15 -0.5 9.35 -1.0 9.45 -1.15 Q10.0 -2.5 9.45 -3.85 L9.3 -4.1" fill="#e9e9e9" fill-rule="evenodd" stroke="none"/>
      <path d="M7.8 6.65 Q7.4 7.8 6.35 8.45 L5.8 8.8 Q5.0 9.25 4.2 9.3 L2.85 9.35 2.15 9.45 0.7 9.6 0.25 9.65 -0.4 9.65 -1.15 9.65 -2.4 9.6 -4.55 9.35 -5.75 9.0 -5.95 8.95 -6.5 8.75 -6.9 8.05 -6.7 7.15 -7.0 6.35 -8.8 6.15 -9.1 6.45 -9.2 6.45 -9.65 6.45 -9.9 6.3 -10.1 6.15 Q-11.5 4.95 -10.75 3.3 L-10.25 2.9 -9.9 2.55 -10.5 3.4 -10.2 4.3 -10.1 4.45 Q-9.7 5.1 -8.85 5.3 L-8.3 5.45 -8.15 5.45 -7.45 4.75 -5.4 4.3 -3.85 1.35 -4.65 0.45 -2.8 -0.7 -2.65 -1.35 -1.65 -2.05 -2.45 -2.2 Q-6.1 -0.7 -6.5 2.95 L-6.95 3.15 -6.95 1.4 -6.4 -0.25 Q-6.3 -0.65 -6.35 -1.05 L-7.45 -1.15 -8.35 -1.5 -8.55 -1.9 -8.45 -3.7 -8.25 -4.1 -8.0 -3.55 Q-7.0 -1.65 -4.85 -2.85 L-4.8 -3.05 -4.0 -2.95 Q-2.25 -3.9 -0.2 -4.25 0.15 -3.05 1.15 -2.5 2.75 -1.7 3.4 -3.25 4.7 -2.7 5.1 -1.75 L4.95 -0.75 4.6 -1.75 3.3 -2.0 2.9 0.3 4.05 0.65 4.9 -0.3 5.0 0.4 Q5.25 1.9 6.75 2.35 L6.2 3.25 6.05 3.1 5.5 2.95 4.9 3.75 5.35 4.4 5.1 5.45 3.5 6.65 0.15 7.15 -4.2 7.1 -4.25 7.65 Q-2.95 8.6 -1.45 8.7 L0.15 8.7 0.55 7.8 0.9 7.55 1.75 7.85 1.85 8.0 Q2.6 8.5 3.5 8.3 L4.0 8.15 Q5.2 7.55 5.8 6.3 L6.45 5.0 7.1 4.75 7.8 6.65 M9.3 -4.1 L9.45 -3.85 Q10.0 -2.5 9.45 -1.15 L9.35 -1.0 9.15 -0.5 7.55 -0.4 Q7.1 -0.4 6.85 -0.7 L6.5 -1.15 Q6.25 -1.6 6.15 -2.1 L6.05 -2.85 7.5 -1.55 Q8.25 -1.4 8.7 -2.1 L9.15 -3.0 9.3 -4.1 M6.4 -4.15 Q6.75 -5.05 7.8 -5.05 L6.4 -4.15 M-1.45 5.35 Q-0.35 5.9 1.0 5.9 2.05 6.0 2.7 5.1 3.4 4.1 3.35 2.85 3.3 0.1 0.45 -0.35 -0.7 -0.6 -1.55 0.15 -2.45 0.95 -2.5 2.15 -3.95 2.1 -4.6 3.6 -5.3 5.45 -3.5 6.05 L-2.2 5.9 -1.45 5.35" fill="#990000" fill-rule="evenodd" stroke="none"/>
      <path d="M-9.9 2.55 L-9.15 2.3 -8.8 2.35 -8.0 2.55 -7.45 3.2 -7.45 3.35 -7.0 3.2 -6.95 3.15 -6.5 2.95 Q-6.1 -0.7 -2.45 -2.2 L-1.65 -2.05 -2.65 -1.35 -2.8 -0.7 -4.65 0.45 -3.85 1.35 -5.4 4.3 -7.45 4.75 -8.15 5.45 -8.3 5.45 -8.85 5.3 Q-9.7 5.1 -10.1 4.45 L-10.2 4.3 -10.5 3.4 -9.9 2.55 M-8.25 -4.1 L-6.75 -5.0 -4.85 -4.35 -4.7 -3.6 -4.7 -3.45 -4.8 -3.05 -4.85 -2.85 Q-7.0 -1.65 -8.0 -3.55 L-8.25 -4.1 M4.95 -0.75 L4.9 -0.3 4.05 0.65 2.9 0.3 3.3 -2.0 4.6 -1.75 4.95 -0.75 M6.2 3.25 L5.8 3.9 5.75 4.0 5.55 4.6 6.45 5.0 5.8 6.3 Q5.2 7.55 4.0 8.15 L3.5 8.3 Q2.6 8.5 1.85 8.0 L1.75 7.85 0.9 7.55 0.55 7.8 0.15 8.7 -1.45 8.7 Q-2.95 8.6 -4.25 7.65 L-4.2 7.1 0.15 7.15 3.5 6.65 5.1 5.45 5.35 4.4 4.9 3.75 5.5 2.95 6.05 3.1 6.2 3.25 M7.8 -5.05 L9.3 -4.1 9.15 -3.0 8.7 -2.1 Q8.25 -1.4 7.5 -1.55 L6.05 -2.85 6.4 -4.15 7.8 -5.05" fill="#ff0000" fill-rule="evenodd" stroke="none"/>
      <path d="M-1.45 5.35 L-2.2 5.9 -3.5 6.05 Q-5.3 5.45 -4.6 3.6 -3.95 2.1 -2.5 2.15 -2.45 0.95 -1.55 0.15 -0.7 -0.6 0.45 -0.35 3.3 0.1 3.35 2.85 3.4 4.1 2.7 5.1 2.05 6.0 1.0 5.9 -0.35 5.9 -1.45 5.35" fill="#650101" fill-rule="evenodd" stroke="none"/>
      <path d="M8.95 3.65 L8.15 6.05 7.8 6.65 7.1 4.75 6.45 5.0 5.55 4.6 5.75 4.0 5.8 3.9 6.2 3.25 6.75 2.35 Q5.25 1.9 5.0 0.4 L4.9 -0.3 4.95 -0.75 5.1 -1.75 Q4.7 -2.7 3.4 -3.25 2.75 -1.7 1.15 -2.5 0.15 -3.05 -0.2 -4.25 -2.25 -3.9 -4.0 -2.95 L-4.8 -3.05 -4.7 -3.45 -4.6 -3.6 Q-4.4 -4.2 -3.55 -4.7 -2.75 -5.2 -2.55 -6.95 L-1.35 -5.2 1.75 -5.05 Q2.8 -5.55 3.05 -5.45 L3.55 -5.6 4.0 -5.45 Q6.0 -2.95 6.45 0.2 L6.5 0.5 7.3 0.8 7.35 0.85 Q8.45 1.55 8.75 2.8 L8.85 3.1 8.95 3.65 M-8.0 2.55 L-8.15 1.85 Q-8.4 0.2 -7.45 -1.15 L-6.35 -1.05 Q-6.3 -0.65 -6.4 -0.25 L-6.95 1.4 -6.95 3.15 -7.0 3.2 -7.45 3.35 -7.45 3.2 -8.0 2.55 M-9.2 6.45 L-9.1 6.45 -8.8 6.15 -7.0 6.35 -6.7 7.15 -6.9 8.05 -6.5 8.75 Q-7.8 8.7 -8.75 7.65 L-9.15 7.1 -9.1 6.6 -9.2 6.45" fill="#cc8080" fill-rule="evenodd" stroke="none"/>
    </g>
  </defs>
</svg>
