<?xml version="1.0" encoding="UTF-8" standalone="no"?>
<svg xmlns:ffdec="https://www.free-decompiler.com/flash" xmlns:xlink="http://www.w3.org/1999/xlink" ffdec:objectType="frame" height="29.25px" width="33.7px" xmlns="http://www.w3.org/2000/svg">
  <g transform="matrix(1.0, 0.0, 0.0, 1.0, 15.95, 18.75)">
    <use ffdec:characterId="1253" height="16.2" id="chunk1" transform="matrix(1.0, 0.0, 0.0, 1.0, -8.25, -18.75)" width="19.7" xlink:href="#sprite0"/>
    <use ffdec:characterId="1255" height="16.5" id="chunk2" transform="matrix(1.0, 0.0, 0.0, 1.0, 1.95, -6.0)" width="15.8" xlink:href="#sprite1"/>
    <use ffdec:characterId="1257" height="16.6" id="chunk3" transform="matrix(1.0, 0.0, 0.0, 1.0, -15.95, -6.2)" width="14.6" xlink:href="#sprite2"/>
  </g>
  <defs>
    <g id="sprite0" transform="matrix(1.0, 0.0, 0.0, 1.0, 9.55, 8.9)">
      <use ffdec:characterId="1252" height="16.2" transform="matrix(1.0, 0.0, 0.0, 1.0, -9.55, -8.9)" width="19.7" xlink:href="#shape0"/>
    </g>
    <g id="shape0" transform="matrix(1.0, 0.0, 0.0, 1.0, 9.55, 8.9)">
      <path d="M-4.15 -5.3 L-4.25 -4.15 -5.0 -3.9 -5.75 -4.5 -6.7 -5.3 -5.85 -5.5 -4.15 -5.3 M-4.25 -6.9 L-5.3 -7.5 -5.3 -8.25 Q-3.75 -9.1 -2.15 -8.85 L-1.3 -8.65 -1.7 -7.25 -2.4 -6.7 -4.25 -6.9" fill="#ffffff" fill-rule="evenodd" stroke="none"/>
      <path d="M-7.15 -1.15 L-6.8 -2.0 Q-6.0 -3.7 -4.2 -3.9 L-3.65 -3.65 -2.15 -4.4 -1.15 -3.6 0.75 -3.85 2.4 -3.6 Q3.15 -3.4 3.65 -2.85 4.65 -1.9 5.95 -1.5 L6.45 -0.7 6.45 -0.65 6.25 0.05 Q5.35 0.6 4.3 0.55 L3.9 0.5 3.1 0.25 2.9 0.05 2.95 -0.4 2.95 -0.55 3.05 -1.05 1.85 -1.75 Q1.05 -2.25 0.25 -2.25 L-5.5 -2.6 -7.15 -1.15 M8.3 -0.75 Q6.6 -0.95 6.05 -2.7 L6.05 -3.25 6.55 -3.1 9.75 -1.65 9.45 -0.8 8.3 -0.75 M5.85 -3.7 L5.0 -3.4 1.8 -4.4 Q1.3 -4.6 1.4 -4.8 L1.55 -4.95 4.85 -4.85 5.15 -4.8 5.95 -4.45 5.85 -3.7 M-0.85 -5.2 Q-2.45 -5.1 -3.7 -6.15 L-4.25 -6.6 -4.25 -6.9 -2.4 -6.7 -1.7 -7.25 -0.5 -6.4 -0.3 -6.2 -0.4 -6.0 -0.85 -5.2 M-3.3 -0.6 L-3.35 -0.4 -3.7 0.1 Q-4.2 0.65 -4.85 0.65 -6.25 0.65 -6.2 -0.4 L-6.2 -0.5 -6.05 -1.0 Q-5.4 -1.75 -4.3 -1.65 L-3.7 -1.65 -3.3 -0.6 M0.7 4.15 L1.6 4.5 3.15 4.6 3.65 4.45 3.85 4.0 4.1 4.15 4.2 5.05 3.35 5.95 1.7 6.4 1.1 6.0 1.45 5.5 0.7 4.15 M-2.9 6.7 L-3.75 5.85 -2.2 4.95 -1.45 5.1 -2.4 5.8 -2.55 6.45 -2.9 6.7" fill="#ff0000" fill-rule="evenodd" stroke="none"/>
      <path d="M6.45 -0.65 L6.45 -0.7 5.95 -1.5 Q4.65 -1.9 3.65 -2.85 3.15 -3.4 2.4 -3.6 L0.75 -3.85 -1.15 -3.6 -2.15 -4.4 -3.65 -3.65 -4.2 -3.9 Q-6.0 -3.7 -6.8 -2.0 L-7.15 -1.15 -7.1 -0.65 -8.95 -0.55 -8.25 -2.55 -5.75 -4.5 -5.0 -3.9 -4.25 -4.15 -4.15 -5.3 -4.25 -6.6 -3.7 -6.15 Q-2.45 -5.1 -0.85 -5.2 L1.55 -4.95 1.4 -4.8 Q1.3 -4.6 1.8 -4.4 L5.0 -3.4 5.85 -3.7 6.55 -3.1 6.05 -3.25 6.05 -2.7 Q6.6 -0.95 8.3 -0.75 L6.45 -0.65 M2.95 -0.55 L2.95 -0.4 2.9 0.05 3.1 0.25 3.9 0.5 4.3 0.55 Q5.35 0.6 6.25 0.05 L6.05 1.1 5.75 1.4 5.05 1.75 4.6 1.75 3.4 1.45 3.1 1.4 2.65 -0.05 2.9 -0.5 2.95 -0.55 M-3.35 -0.4 L-3.5 0.3 -3.75 0.9 Q-4.3 1.45 -5.0 1.45 L-5.1 1.45 -6.45 0.85 -6.5 -0.55 -6.05 -1.0 -6.2 -0.5 -6.2 -0.4 Q-6.25 0.65 -4.85 0.65 -4.2 0.65 -3.7 0.1 L-3.35 -0.4 M-4.15 3.85 L-4.1 4.15 -3.75 4.2 Q-2.0 3.25 0.05 2.9 L0.7 4.15 1.45 5.5 1.1 6.0 1.7 6.4 0.7 6.6 -0.3 6.7 -1.95 7.3 -2.9 6.7 -2.55 6.45 -2.4 5.8 -1.45 5.1 -2.2 4.95 -3.75 5.85 -4.2 6.35 -5.15 6.45 Q-6.8 6.25 -7.35 4.65 L-6.05 3.65 -5.55 3.85 -5.5 5.55 -4.15 3.85 M3.15 4.6 L3.65 3.9 3.85 4.0 3.65 4.45 3.15 4.6 M4.1 4.15 L4.45 4.35 4.65 4.15 6.0 5.5 5.15 6.25 3.35 5.95 4.2 5.05 4.1 4.15 M8.0 3.75 Q8.0 4.4 7.65 4.85 7.3 5.25 6.75 5.25 L6.6 4.5 8.0 3.75 M-8.3 3.7 Q-8.7 3.5 -9.15 3.25 L-9.2 1.4 -8.25 1.9 -8.2 1.9 -8.25 2.7 -8.3 3.7" fill="#990000" fill-rule="evenodd" stroke="none"/>
      <path d="M-7.1 -0.65 L-7.15 -1.15 -5.5 -2.6 0.25 -2.25 Q1.05 -2.25 1.85 -1.75 L3.05 -1.05 2.95 -0.55 2.9 -0.5 -3.3 -0.6 -3.7 -1.65 -4.3 -1.65 Q-5.4 -1.75 -6.05 -1.0 L-6.5 -0.55 -7.1 -0.65" fill="#ebbb98" fill-rule="evenodd" stroke="none"/>
      <path d="M-9.4 1.25 L-9.5 1.2 -9.55 1.2 -9.25 -0.25 -9.4 1.25" fill="#3f81e5" fill-rule="evenodd" stroke="none"/>
      <path d="M6.45 -0.65 L8.3 -0.75 9.45 -0.8 10.15 -0.4 9.9 -0.2 9.6 0.1 Q8.4 0.9 6.9 1.05 L6.05 1.1 6.25 0.05 6.45 -0.65 M-8.95 -0.55 L-7.1 -0.65 -6.5 -0.55 -6.45 0.85 -5.1 1.45 -5.6 1.95 -5.65 1.95 -5.7 1.9 -5.8 1.9 -6.45 1.75 -6.85 1.2 -8.6 0.7 -8.9 0.3 -8.95 -0.4 -8.95 -0.55 M2.9 -0.5 L2.65 -0.05 3.1 1.4 3.4 1.45 4.6 1.75 4.4 1.9 5.35 3.35 4.9 4.05 4.7 4.1 4.65 4.15 4.45 4.35 4.1 4.15 3.85 4.0 3.65 3.9 3.15 4.6 1.6 4.5 0.7 4.15 0.05 2.9 Q-2.0 3.25 -3.75 4.2 L-4.1 4.15 -4.15 3.85 -4.2 3.3 Q-4.0 2.85 -3.3 2.45 -2.65 2.0 -2.4 0.85 L-2.65 1.05 -3.75 0.9 -3.5 0.3 -3.35 -0.4 -3.3 -0.6 2.9 -0.5 M-1.1 1.95 L1.45 2.3 0.45 0.7 -1.95 0.35 -2.1 0.55 -1.1 1.95" fill="#cc8080" fill-rule="evenodd" stroke="none"/>
      <path d="M-3.75 0.9 L-2.65 1.05 -2.4 0.85 Q-2.65 2.0 -3.3 2.45 -4.0 2.85 -4.2 3.3 L-4.15 3.85 -5.5 5.55 -5.55 3.85 -6.05 3.65 -7.35 4.65 -8.7 5.7 -8.6 5.05 -8.3 3.7 -8.25 2.7 -8.2 1.9 -8.25 1.9 -9.2 1.4 -9.4 1.25 -9.25 -0.25 -9.25 -0.4 -8.95 -0.4 -8.9 0.3 -8.6 0.7 -6.85 1.2 -6.45 1.75 -5.8 1.9 -5.7 1.9 -5.65 1.95 -5.6 1.95 -5.1 1.45 -5.0 1.45 Q-4.3 1.45 -3.75 0.9 M4.65 4.15 L4.7 4.1 4.9 4.05 5.35 3.35 4.4 1.9 4.6 1.75 5.05 1.75 5.75 1.4 6.05 1.1 6.9 1.05 Q8.4 0.9 9.6 0.1 L9.9 -0.2 10.05 0.15 10.05 0.35 10.05 0.5 10.1 1.0 9.7 1.0 9.45 1.1 9.8 3.25 Q9.15 3.25 8.55 3.55 L8.0 3.75 6.6 4.5 6.75 5.25 7.0 6.4 6.0 5.5 4.65 4.15 M-1.1 1.95 L-2.1 0.55 -1.95 0.35 0.45 0.7 1.45 2.3 -1.1 1.95" fill="#e9e9e9" fill-rule="evenodd" stroke="none"/>
    </g>
    <g id="sprite1" transform="matrix(1.0, 0.0, 0.0, 1.0, 6.7, 9.05)">
      <use ffdec:characterId="1254" height="16.5" transform="matrix(1.0, 0.0, 0.0, 1.0, -6.7, -9.05)" width="15.8" xlink:href="#shape1"/>
    </g>
    <g id="shape1" transform="matrix(1.0, 0.0, 0.0, 1.0, 6.7, 9.05)">
      <path d="M3.9 4.8 Q1.65 7.3 -3.6 7.45 L-3.75 7.1 -4.55 6.85 Q-5.75 6.2 -6.15 5.0 L-5.95 4.15 -5.9 5.0 -5.45 5.4 -4.05 4.4 -3.65 4.6 -3.35 4.95 -3.7 5.6 -3.3 5.9 -2.45 5.5 Q0.85 6.8 2.3 3.55 L2.55 2.8 3.2 2.55 3.9 4.45 3.9 4.8 M-5.1 2.8 L-4.8 2.55 -4.65 1.3 Q-4.65 0.65 -5.25 -0.35 L-5.45 -0.75 -5.05 -0.55 -5.2 -1.65 -4.7 -1.9 -4.85 -1.55 -4.25 -0.25 Q-3.7 0.9 -3.7 1.95 L-3.7 2.15 -3.9 3.05 -3.75 3.25 -5.1 2.8 M-1.25 -5.25 L-0.6 -7.35 -0.3 -6.5 0.0 -6.25 Q2.55 -6.15 4.3 -7.9 L4.65 -8.35 4.55 -8.05 3.9 -7.25 2.45 -6.15 1.6 -5.3 0.75 -4.65 -1.25 -5.25 M5.4 -6.3 Q6.15 -4.7 5.45 -3.2 L5.25 -2.7 3.65 -2.6 Q3.0 -2.6 2.6 -3.35 2.15 -4.05 2.15 -5.05 L3.6 -3.75 Q4.35 -3.6 4.8 -4.35 L5.25 -5.25 5.4 -6.3 M1.2 -4.1 L1.2 -3.95 1.05 -3.0 1.2 -4.1 M1.0 -2.55 L1.1 -1.8 Q1.35 -0.3 2.85 0.1 L2.3 1.0 1.6 0.75 1.0 1.55 1.45 2.2 0.9 3.05 Q-0.1 4.6 -2.0 4.55 L-3.2 3.7 -3.05 3.7 -2.9 3.7 Q-1.85 3.75 -1.2 2.9 -0.5 1.9 -0.55 0.65 -0.55 -1.6 -2.4 -2.3 L-2.55 -2.3 -3.05 -2.4 -1.6 -3.3 -1.45 -4.35 -0.1 -4.1 -0.65 -3.75 -1.0 -1.9 0.15 -1.55 1.0 -2.55" fill="#990000" fill-rule="evenodd" stroke="none"/>
      <path d="M-5.95 4.15 L-5.7 3.25 -5.1 2.8 -3.75 3.25 -3.2 3.7 -2.0 4.55 Q-0.1 4.6 0.9 3.05 L1.45 2.2 1.0 1.55 1.6 0.75 2.3 1.0 1.65 2.35 2.55 2.8 2.3 3.55 Q0.85 6.8 -2.45 5.5 L-3.3 5.9 -3.7 5.6 -3.35 4.95 -3.65 4.6 -4.05 4.4 -5.45 5.4 -5.9 5.0 -5.95 4.15 M-5.45 -0.75 L-6.7 -1.65 -6.25 -2.75 -5.65 -3.0 -4.5 -3.15 -3.45 -3.3 -1.25 -5.25 0.75 -4.65 1.2 -4.1 1.05 -3.0 1.0 -2.55 0.15 -1.55 -1.0 -1.9 -0.65 -3.75 -0.1 -4.1 -1.45 -4.35 -1.6 -3.3 -3.05 -2.4 -4.7 -1.9 -5.2 -1.65 -5.05 -0.55 -5.45 -0.75 M-0.6 -7.35 Q0.75 -9.6 3.35 -8.85 L4.0 -8.65 4.6 -8.5 4.65 -8.35 4.3 -7.9 Q2.55 -6.15 0.0 -6.25 L-0.3 -6.5 -0.6 -7.35 M3.9 -7.25 L5.4 -6.3 5.25 -5.25 4.8 -4.35 Q4.35 -3.6 3.6 -3.75 L2.15 -5.05 2.45 -6.15 3.9 -7.25" fill="#ff0000" fill-rule="evenodd" stroke="none"/>
      <path d="M-3.05 -2.4 L-2.55 -2.3 -2.4 -2.3 Q-0.55 -1.6 -0.55 0.65 -0.5 1.9 -1.2 2.9 -1.85 3.75 -2.9 3.7 L-3.05 3.7 -3.2 3.7 -3.75 3.25 -3.9 3.05 -3.7 2.15 -3.7 1.95 Q-3.7 0.9 -4.25 -0.25 L-4.85 -1.55 -4.7 -1.9 -3.05 -2.4" fill="#650101" fill-rule="evenodd" stroke="none"/>
      <path d="M4.15 4.2 L3.9 4.8 3.9 4.45 4.15 4.2" fill="#2d6ed0" fill-rule="evenodd" stroke="none"/>
      <path d="M5.0 2.0 L4.6 3.3 4.5 3.35 4.45 3.45 4.15 4.2 3.9 4.45 3.2 2.55 2.55 2.8 1.65 2.35 2.3 1.0 2.85 0.1 Q1.35 -0.3 1.1 -1.8 L1.0 -2.55 1.05 -3.0 1.2 -3.95 1.2 -4.1 0.75 -4.65 1.6 -5.3 Q2.35 -3.6 2.6 -1.7 L3.4 -1.4 Q4.85 -0.45 5.0 1.35 L5.0 2.0" fill="#cc8080" fill-rule="evenodd" stroke="none"/>
      <path d="M4.55 -8.05 L5.3 -8.25 5.6 -8.35 5.95 -8.4 5.95 -8.35 5.95 -8.1 6.0 -7.65 8.35 -7.3 6.85 -5.7 9.1 -4.7 Q5.7 -4.45 5.85 -1.75 L5.75 -1.35 5.4 0.35 5.35 0.55 5.35 0.7 5.25 0.95 5.0 2.0 5.0 1.35 Q4.85 -0.45 3.4 -1.4 L2.6 -1.7 Q2.35 -3.6 1.6 -5.3 L2.45 -6.15 2.15 -5.05 Q2.15 -4.05 2.6 -3.35 3.0 -2.6 3.65 -2.6 L5.25 -2.7 5.45 -3.2 Q6.15 -4.7 5.4 -6.3 L3.9 -7.25 4.55 -8.05" fill="#e9e9e9" fill-rule="evenodd" stroke="none"/>
    </g>
    <g id="sprite2" transform="matrix(1.0, 0.0, 0.0, 1.0, 8.35, 9.35)">
      <use ffdec:characterId="1256" height="16.6" transform="matrix(1.0, 0.0, 0.0, 1.0, -8.35, -9.35)" width="14.6" xlink:href="#shape2"/>
    </g>
    <g id="shape2" transform="matrix(1.0, 0.0, 0.0, 1.0, 8.35, 9.35)">
      <path d="M1.45 -6.6 L1.5 -5.25 2.2 -4.8 -0.75 -4.3 -0.75 -3.2 -0.5 -2.8 -1.35 -1.6 Q-1.85 -0.6 -2.0 0.6 L-2.45 0.8 -2.45 -0.95 -1.9 -2.55 Q-1.8 -3.0 -1.85 -3.4 L-2.95 -3.45 -3.85 -3.85 -3.75 -6.45 -2.35 -5.3 -1.65 -4.8 1.45 -6.6 M4.15 -2.45 L4.2 -1.6 4.25 -1.55 4.15 -1.6 3.45 -1.6 3.25 -1.5 3.25 -1.15 Q4.85 0.65 5.9 0.65 L6.2 0.6 6.25 1.1 6.2 1.4 5.6 4.1 3.85 2.9 4.2 1.4 4.2 1.2 2.35 -1.35 2.0 -0.2 Q0.55 -0.25 -0.1 1.25 -0.8 3.1 1.0 3.7 L1.85 3.75 2.45 3.45 5.7 4.55 6.05 5.25 5.7 6.8 1.85 7.25 -0.05 7.0 -1.3 6.65 -2.0 6.4 -2.4 5.7 -2.2 4.8 -2.55 4.0 -4.35 3.8 -4.6 4.15 -5.15 4.15 -5.25 4.1 -5.6 3.8 Q-7.05 2.6 -6.25 0.95 L-5.4 0.2 -6.0 1.05 Q-5.7 2.55 -4.35 2.95 L-3.65 3.1 -3.0 2.4 -0.9 1.95 0.65 -1.0 -0.15 -1.9 1.0 -2.55 0.5 -3.4 0.85 -3.95 1.5 -3.5 Q2.6 -2.65 4.15 -2.45 M-3.65 -7.55 L-2.9 -8.85 -2.55 -8.3 -1.2 -8.25 -0.4 -7.35 -0.95 -7.35 -3.65 -7.55 M0.25 5.3 Q1.0 5.85 1.85 6.15 L4.45 6.05 4.15 4.8 0.3 4.75 0.25 5.3" fill="#990000" fill-rule="evenodd" stroke="none"/>
      <path d="M2.2 -4.8 Q3.0 -4.8 3.6 -4.1 4.15 -3.45 4.15 -2.45 2.6 -2.65 1.5 -3.5 L0.85 -3.95 0.5 -3.4 1.0 -2.55 -0.15 -1.9 0.65 -1.0 -0.9 1.95 -3.0 2.4 -3.65 3.1 -4.35 2.95 Q-5.7 2.55 -6.0 1.05 L-5.4 0.2 -4.65 -0.05 -3.5 0.2 -3.0 0.85 -3.0 1.0 -2.55 0.85 -2.45 0.8 -2.0 0.6 Q-1.85 -0.6 -1.35 -1.6 L-0.5 -2.8 -0.75 -3.2 -0.75 -4.3 2.2 -4.8 M4.25 -1.55 L5.1 -1.1 Q6.25 -0.3 6.25 0.2 L6.25 0.55 6.2 0.6 5.9 0.65 Q4.85 0.65 3.25 -1.15 L3.25 -1.5 3.45 -1.6 4.15 -1.6 4.25 -1.55 M5.6 4.1 L5.7 4.55 2.45 3.45 2.65 2.9 3.85 2.9 5.6 4.1 M-2.9 -8.85 L-2.45 -9.35 -1.65 -9.3 Q0.85 -9.0 1.45 -6.6 L-1.65 -4.8 -2.35 -5.3 -3.75 -6.45 -2.25 -7.35 -0.95 -7.35 -0.4 -7.35 -1.2 -8.25 -2.55 -8.3 -2.9 -8.85 M0.25 5.3 L0.3 4.75 4.15 4.8 4.45 6.05 1.85 6.15 Q1.0 5.85 0.25 5.3" fill="#ff0000" fill-rule="evenodd" stroke="none"/>
      <path d="M2.45 3.45 L1.85 3.75 1.0 3.7 Q-0.8 3.1 -0.1 1.25 0.55 -0.25 2.0 -0.2 L2.35 -1.35 4.2 1.2 4.2 1.4 3.85 2.9 2.65 2.9 2.45 3.45" fill="#650101" fill-rule="evenodd" stroke="none"/>
      <path d="M-2.0 6.4 L-2.55 6.3 Q-3.85 5.8 -4.65 4.75 L-4.6 4.15 -4.35 3.8 -2.55 4.0 -2.2 4.8 -2.4 5.7 -2.0 6.4 M-2.95 -3.45 L-1.85 -3.4 Q-1.8 -3.0 -1.9 -2.55 L-2.45 -0.95 -2.45 0.8 -2.55 0.85 -3.0 1.0 -3.0 0.85 -3.5 0.2 -3.65 -0.5 Q-3.9 -2.1 -3.0 -3.4 L-2.95 -3.45" fill="#cc8080" fill-rule="evenodd" stroke="none"/>
      <path d="M-4.65 4.75 L-5.15 4.15 -4.6 4.15 -4.65 4.75 M-6.25 0.95 L-6.25 0.7 -6.25 0.3 -6.3 0.0 -6.3 -0.75 -6.15 -2.5 -6.2 -2.25 -8.35 -5.3 -6.95 -4.75 -6.15 -5.0 -5.7 -5.6 -5.35 -7.75 -5.25 -8.25 -5.25 -8.3 -3.65 -7.55 -0.95 -7.35 -2.25 -7.35 -3.75 -6.45 -3.85 -3.85 -2.95 -3.45 -3.0 -3.4 Q-3.9 -2.1 -3.65 -0.5 L-3.5 0.2 -4.65 -0.05 -5.4 0.2 -6.25 0.95" fill="#e9e9e9" fill-rule="evenodd" stroke="none"/>
    </g>
  </defs>
</svg>
