<?xml version="1.0" encoding="UTF-8" standalone="no"?>
<svg xmlns:ffdec="https://www.free-decompiler.com/flash" xmlns:xlink="http://www.w3.org/1999/xlink" ffdec:objectType="frame" height="64.55px" width="26.5px" xmlns="http://www.w3.org/2000/svg">
  <g transform="matrix(1.0, 0.0, 0.0, 1.0, 12.4, 37.05)">
    <use ffdec:characterId="1542" height="56.05" transform="matrix(1.0, 0.0, 0.0, 1.0, -10.3, -28.65)" width="21.25" xlink:href="#shape0"/>
    <use ffdec:characterId="1081" height="100.0" id="shape" transform="matrix(0.18, 0.0, 0.0, 0.55, -8.9996, -27.4994)" width="100.0" xlink:href="#sprite0"/>
  </g>
  <defs>
    <g id="shape0" transform="matrix(1.0, 0.0, 0.0, 1.0, 10.3, 28.65)">
      <path d="M-8.0 5.55 L-7.3 5.7 -7.15 5.75 -6.35 5.8 1.6 6.3 3.7 6.25 3.7 6.4 3.8 6.4 5.0 6.25 5.05 6.2 7.35 6.3 7.2 9.4 -0.1 9.6 -6.05 8.85 -5.05 12.85 Q-4.1 16.75 -4.05 17.6 L-3.9 18.7 Q-4.25 16.55 -6.1 13.55 L-7.55 10.95 -8.0 5.55" fill="#e2b181" fill-rule="evenodd" stroke="none"/>
      <path d="M6.8 16.3 L3.0 16.6 -1.3 17.4 Q-2.7 17.75 -3.65 18.5 L-3.9 18.7 Q-5.0 19.45 -5.45 20.45 L-6.1 21.75 -6.35 22.2 -6.75 20.9 -7.55 10.95 -6.1 13.55 Q-4.25 16.55 -3.9 18.7 L-4.05 17.6 Q-4.1 16.75 -5.05 12.85 L-6.05 8.85 -0.1 9.6 7.2 9.4 6.95 13.0 6.8 16.3 M-0.4 27.4 Q0.6 25.9 0.1 23.7 -0.35 21.45 0.1 20.5 0.55 19.55 1.45 19.4 L2.8 19.1 6.8 18.6 6.9 20.15 Q7.0 21.75 5.95 24.0 4.35 27.05 1.3 27.3 L-0.4 27.4" fill="#ffcc99" fill-rule="evenodd" stroke="none"/>
      <path d="M10.95 -17.55 L10.7 -13.2 9.65 -9.3 8.25 -5.5 Q8.25 -4.65 9.0 -1.8 L9.45 0.0 9.1 3.7 8.6 6.2 7.35 6.3 5.05 6.2 5.0 6.25 3.8 6.4 Q3.8 3.6 4.15 -1.3 L4.2 -1.5 4.5 -1.25 Q5.65 -0.15 6.0 1.25 L5.2 -3.1 4.1 -8.95 5.2 -10.45 Q6.75 -12.4 6.75 -14.85 6.75 -24.0 0.35 -24.0 -3.55 -24.0 -5.5 -21.25 -7.25 -18.75 -7.25 -14.1 L-7.0 -11.5 -6.65 -10.1 Q-7.7 -5.7 -7.55 -4.05 -7.3 -1.65 -8.2 -0.1 L-5.3 -3.45 -4.8 -3.9 -6.45 0.05 Q-7.4 2.9 -7.3 5.7 L-8.0 5.55 -8.8 5.35 -9.4 5.15 Q-10.2 4.8 -10.25 4.2 L-10.25 1.35 -10.25 -5.6 -10.2 -7.25 -10.2 -7.85 -10.0 -12.9 -9.8 -15.85 -9.7 -17.05 -7.75 -21.0 Q-4.1 -26.75 1.5 -26.75 4.95 -26.75 8.0 -23.5 10.6 -20.7 10.95 -17.55" fill="#b4b4b4" fill-rule="evenodd" stroke="none"/>
      <path d="M6.8 16.3 L6.8 17.85 6.8 18.6 2.8 19.1 1.45 19.4 Q0.55 19.55 0.1 20.5 -0.35 21.45 0.1 23.7 0.6 25.9 -0.4 27.4 L-0.45 27.4 -1.2 27.35 Q-2.7 27.2 -3.8 26.65 -5.35 25.0 -6.15 22.75 L-6.35 22.2 -6.1 21.75 -5.45 20.45 Q-5.0 19.45 -3.9 18.7 L-3.65 18.5 Q-2.7 17.75 -1.3 17.4 L3.0 16.6 6.8 16.3" fill="#333333" fill-rule="evenodd" stroke="none"/>
      <path d="M-7.3 5.7 Q-7.4 2.9 -6.45 0.05 L-4.8 -3.9 -5.3 -3.45 -8.2 -0.1 Q-7.3 -1.65 -7.55 -4.05 -7.7 -5.7 -6.65 -10.1 L-7.0 -11.5 -7.25 -14.1 Q-7.25 -18.75 -5.5 -21.25 -3.55 -24.0 0.35 -24.0 6.75 -24.0 6.75 -14.85 6.75 -12.4 5.2 -10.45 L4.1 -8.95 5.2 -3.1 6.0 1.25 Q5.65 -0.15 4.5 -1.25 L4.2 -1.5 4.15 -1.3 Q3.8 3.6 3.8 6.4 L3.7 6.4 3.7 6.25 1.6 6.3 -6.35 5.8 -7.15 5.75 -7.3 5.7" fill="#a1a1a1" fill-rule="evenodd" stroke="none"/>
      <path d="M10.95 -17.55 Q10.6 -20.7 8.0 -23.5 4.95 -26.75 1.5 -26.75 -4.1 -26.75 -7.75 -21.0 L-9.7 -17.05 -9.3 -19.2 -8.8 -20.6 -8.35 -21.6 Q-7.2 -24.5 -6.3 -25.6 -4.6 -27.6 -2.3 -28.25 L-0.95 -28.55 3.45 -28.3 Q7.25 -27.8 9.3 -24.1 10.65 -21.5 10.95 -18.0 L10.95 -17.55 M9.45 0.0 L9.0 -1.8 Q8.25 -4.65 8.25 -5.5 L9.65 -9.3 10.7 -13.2 10.45 -10.25 10.4 -10.05 9.45 0.0" fill="#d4d4d4" fill-rule="evenodd" stroke="none"/>
    </g>
    <g id="sprite0" transform="matrix(1.0, 0.0, 0.0, 1.0, 50.0, 50.0)">
      <use ffdec:characterId="1080" height="100.0" transform="matrix(1.0, 0.0, 0.0, 1.0, -50.0, -50.0)" width="100.0" xlink:href="#shape1"/>
    </g>
    <g id="shape1" transform="matrix(1.0, 0.0, 0.0, 1.0, 50.0, 50.0)">
      <path d="M50.0 50.0 L-50.0 50.0 -50.0 -50.0 50.0 -50.0 50.0 50.0 Z" fill="none" stroke="#9900ff" stroke-linecap="round" stroke-linejoin="round" stroke-width="0.05"/>
    </g>
  </defs>
</svg>
