<?xml version="1.0" encoding="UTF-8" standalone="no"?>
<svg xmlns:ffdec="https://www.free-decompiler.com/flash" xmlns:xlink="http://www.w3.org/1999/xlink" ffdec:objectType="frame" height="64.55px" width="26.5px" xmlns="http://www.w3.org/2000/svg">
  <g transform="matrix(1.0, 0.0, 0.0, 1.0, 12.4, 37.05)">
    <use ffdec:characterId="1544" height="49.4" transform="matrix(1.0, 0.0, 0.0, 1.0, -10.3, -28.65)" width="21.25" xlink:href="#shape0"/>
  </g>
  <defs>
    <g id="shape0" transform="matrix(1.0, 0.0, 0.0, 1.0, 10.3, 28.65)">
      <path d="M7.3 6.3 L7.1 9.4 7.0 9.4 6.6 8.7 Q6.0 7.6 5.0 6.95 L4.25 6.35 5.0 6.25 5.05 6.2 6.2 6.3 7.3 6.3 M-7.65 9.65 L-8.0 5.55 -7.3 5.7 -7.15 5.75 -6.7 5.8 -4.5 6.0 1.35 6.35 1.6 6.3 3.25 6.3 2.3 6.6 2.05 9.65 -1.55 9.55 -1.6 8.85 Q-2.4 8.5 -3.25 8.3 -5.75 7.55 -7.65 9.65 M-7.3 11.0 L-7.35 11.3 -7.4 11.2 -7.3 11.0" fill="#e2b181" fill-rule="evenodd" stroke="none"/>
      <path d="M6.95 11.6 L5.0 13.55 3.05 13.2 2.6 13.8 2.3 14.1 2.1 14.3 1.85 13.65 1.5 13.4 -0.1 15.75 Q-0.4 15.75 -0.65 15.4 L-1.0 14.35 -1.3 14.0 -1.25 13.3 0.35 11.85 2.0 10.95 2.6 11.65 3.0 11.7 2.95 11.7 4.25 11.85 6.95 11.6 M-3.8 17.65 L-4.4 15.15 Q-5.5 15.2 -6.35 14.2 L-7.45 12.4 -7.35 11.3 -7.3 11.0 -6.35 8.95 -4.6 8.5 -3.35 9.95 -3.9 11.05 -4.8 11.65 -5.05 12.05 -4.7 13.3 -3.7 13.85 -3.15 16.15 -3.7 16.7 -2.4 18.2 -2.5 18.5 -3.8 17.65 M3.9 -1.25 L4.15 -0.95 4.65 -0.35 4.55 1.9 3.9 3.4 3.5 4.2 1.75 4.4 1.3 3.85 Q0.2 2.35 -0.1 0.5 1.0 2.8 2.95 2.5 L3.45 2.05 3.9 -1.25" fill="#990000" fill-rule="evenodd" stroke="none"/>
      <path d="M7.1 9.4 L7.0 11.6 6.95 11.6 4.25 11.85 2.95 11.7 2.9 11.7 2.8 11.65 2.6 11.65 2.0 10.95 0.35 11.85 -1.25 13.3 -1.3 14.0 -1.3 14.3 -1.85 15.15 -2.05 18.35 Q-2.2 18.3 -2.4 18.2 L-3.7 16.7 -3.15 16.15 -3.7 13.85 -4.7 13.3 -5.05 12.05 -4.8 11.65 -3.9 11.05 -3.35 9.95 -4.6 8.5 -6.35 8.95 -7.3 11.0 -7.4 11.2 -7.5 11.45 -7.65 9.65 Q-5.75 7.55 -3.25 8.3 -2.4 8.5 -1.6 8.85 L-1.55 9.55 -2.9 12.8 2.05 9.65 2.3 6.6 3.25 6.3 3.7 6.25 3.7 6.4 3.8 6.4 4.25 6.35 5.0 6.95 Q6.0 7.6 6.6 8.7 L7.0 9.4 7.1 9.4 M1.4 15.55 L1.0 15.95 0.3 16.45 -0.15 16.35 -0.1 15.75 1.5 13.4 1.85 13.65 2.1 14.3 1.4 15.55 M-0.25 -0.5 L1.95 -2.35 3.9 -1.25 3.45 2.05 2.95 2.5 Q1.0 2.8 -0.1 0.5 L-0.25 -0.5" fill="#ff0000" fill-rule="evenodd" stroke="none"/>
      <path d="M3.05 13.2 L2.9 13.6 2.6 13.8 3.05 13.2 M2.3 14.1 L2.25 14.9 2.1 15.15 Q1.85 15.5 1.4 15.55 L2.1 14.3 2.3 14.1 M-7.45 12.4 L-7.5 11.45 -7.4 11.2 -7.35 11.3 -7.45 12.4 M-2.4 18.2 Q-2.2 18.3 -2.05 18.35 L-2.5 18.5 -2.4 18.2 M-1.3 14.3 L-1.3 14.0 -1.0 14.35 -1.3 14.3 M2.6 11.65 L2.8 11.65 2.9 11.7 2.95 11.7 3.0 11.7 2.6 11.65 M-1.55 9.55 L2.05 9.65 -2.9 12.8 -1.55 9.55" fill="#ffcc99" fill-rule="evenodd" stroke="none"/>
      <path d="M1.0 15.95 L1.6 18.95 0.2 20.05 Q-1.25 20.8 -2.7 20.75 L-3.05 20.45 -3.8 17.65 -2.5 18.5 -2.05 18.35 -1.85 15.15 -1.3 14.3 -1.0 14.35 -0.65 15.4 Q-0.4 15.75 -0.1 15.75 L-0.15 16.35 0.3 16.45 1.0 15.95" fill="#ffffff" fill-rule="evenodd" stroke="none"/>
      <path d="M10.65 -12.95 L10.5 -10.95 10.45 -10.25 10.4 -10.05 9.45 0.0 9.0 -1.8 Q8.25 -4.65 8.25 -5.5 L9.65 -9.3 10.65 -12.95 M-9.7 -17.05 L-9.3 -19.2 -8.8 -20.6 -8.35 -21.6 Q-7.2 -24.5 -6.3 -25.6 -4.6 -27.6 -2.3 -28.25 L-0.95 -28.55 3.45 -28.3 Q7.25 -27.8 9.3 -24.1 10.65 -21.5 10.95 -18.0 L10.95 -17.55 Q10.6 -20.7 8.0 -23.5 4.95 -26.75 1.5 -26.75 -4.1 -26.75 -7.75 -21.0 L-9.7 -17.05" fill="#d4d4d4" fill-rule="evenodd" stroke="none"/>
      <path d="M10.95 -17.55 L10.9 -16.55 10.8 -15.1 10.65 -12.95 9.65 -9.3 8.25 -5.5 Q8.25 -4.65 9.0 -1.8 L9.45 0.0 9.1 3.7 8.6 6.2 8.35 6.25 8.1 6.25 7.3 6.3 6.2 6.3 5.05 6.2 5.0 6.25 4.25 6.35 3.8 6.4 3.9 3.4 4.55 1.9 4.65 -0.35 4.15 -0.95 4.15 -1.3 4.2 -1.5 4.5 -1.25 Q5.65 -0.15 6.0 1.25 L5.2 -3.1 4.1 -8.95 5.2 -10.45 Q6.75 -12.4 6.75 -14.85 6.75 -24.0 0.35 -24.0 -3.55 -24.0 -5.5 -21.25 -7.25 -18.75 -7.25 -14.1 L-7.0 -11.5 -6.65 -10.1 Q-7.7 -5.7 -7.55 -4.05 -7.3 -1.65 -8.2 -0.1 L-5.3 -3.45 -4.8 -3.9 -6.45 0.05 Q-7.4 2.9 -7.3 5.7 L-8.0 5.55 -8.8 5.35 -9.4 5.15 Q-10.2 4.8 -10.25 4.2 L-10.25 1.35 -10.25 -5.6 -10.0 -12.9 -9.8 -15.85 -9.7 -17.05 -7.75 -21.0 Q-4.1 -26.75 1.5 -26.75 4.95 -26.75 8.0 -23.5 10.6 -20.7 10.95 -17.55" fill="#b4b4b4" fill-rule="evenodd" stroke="none"/>
      <path d="M-7.3 5.7 Q-7.4 2.9 -6.45 0.05 L-4.8 -3.9 -5.3 -3.45 -8.2 -0.1 Q-7.3 -1.65 -7.55 -4.05 -7.7 -5.7 -6.65 -10.1 L-7.0 -11.5 -7.25 -14.1 Q-7.25 -18.75 -5.5 -21.25 -3.55 -24.0 0.35 -24.0 6.75 -24.0 6.75 -14.85 6.75 -12.4 5.2 -10.45 L4.1 -8.95 5.2 -3.1 6.0 1.25 Q5.65 -0.15 4.5 -1.25 L4.2 -1.5 4.15 -1.3 4.15 -0.95 3.9 -1.25 1.95 -2.35 -0.25 -0.5 -1.55 1.6 -2.4 0.7 -3.1 1.05 -1.85 3.75 -2.15 4.45 Q-3.0 5.8 -4.5 6.0 L-6.7 5.8 -7.15 5.75 -7.3 5.7 M3.9 3.4 L3.8 6.4 3.7 6.4 3.7 6.25 3.25 6.3 1.6 6.3 1.35 6.35 1.75 4.4 3.5 4.2 3.9 3.4" fill="#a1a1a1" fill-rule="evenodd" stroke="none"/>
      <path d="M-4.5 6.0 Q-3.0 5.8 -2.15 4.45 L-1.85 3.75 -3.1 1.05 -2.4 0.7 -1.55 1.6 -0.25 -0.5 -0.1 0.5 Q0.2 2.35 1.3 3.85 L1.75 4.4 1.35 6.35 -4.5 6.0" fill="#9c4d4d" fill-rule="evenodd" stroke="none"/>
    </g>
  </defs>
</svg>
