<?xml version="1.0" encoding="UTF-8" standalone="no"?>
<svg xmlns:ffdec="https://www.free-decompiler.com/flash" xmlns:xlink="http://www.w3.org/1999/xlink" ffdec:objectType="frame" height="5.0px" width="5.0px" xmlns="http://www.w3.org/2000/svg">
  <g transform="matrix(1.0, 0.0, 0.0, 1.0, 0.0, 0.0)">
    <use ffdec:characterId="2627" height="5.0" transform="matrix(1.0, 0.0, 0.0, 1.0, 0.0, 0.0)" width="5.0" xlink:href="#shape0"/>
    <use ffdec:characterId="819" height="2.0" transform="matrix(0.3, 0.0, 0.0, 1.5, 1.015, 1.0)" width="10.0" xlink:href="#shape1"/>
  </g>
  <defs>
    <g id="shape0" transform="matrix(1.0, 0.0, 0.0, 1.0, 0.0, 0.0)">
      <path d="M5.0 0.0 L2.5 2.5 0.0 0.0 5.0 0.0" fill="#333333" fill-rule="evenodd" stroke="none"/>
      <path d="M2.5 2.5 L5.0 5.0 0.0 5.0 2.5 2.5" fill="#999999" fill-rule="evenodd" stroke="none"/>
      <path d="M5.0 0.0 L5.0 5.0 2.5 2.5 5.0 0.0 M0.0 5.0 L0.0 0.0 2.5 2.5 0.0 5.0" fill="#666666" fill-rule="evenodd" stroke="none"/>
    </g>
    <g id="shape1" transform="matrix(1.0, 0.0, 0.0, 1.0, -2.05, -6.0)">
      <path d="M12.05 6.0 L12.05 8.0 2.05 8.0 2.05 6.0 12.05 6.0" fill="#000000" fill-rule="evenodd" stroke="none"/>
    </g>
  </defs>
</svg>
