<?xml version="1.0" encoding="UTF-8" standalone="no"?>
<svg xmlns:ffdec="https://www.free-decompiler.com/flash" xmlns:xlink="http://www.w3.org/1999/xlink" ffdec:objectType="frame" height="20.0px" width="40.0px" xmlns="http://www.w3.org/2000/svg">
  <g transform="matrix(1.0, 0.0, 0.0, 1.0, -80.0, 0.0)">
    <clipPath id="clip1">
      <path d="M 0,0 L 5.0,0 L 5.0,5.0 L 0,5.0 Z"/>
    </clipPath>
    <clipPath id="clip2">
      <path d="M 0,15.0 L 5.0,15.0 L 5.0,20.0 L 0,20.0 Z"/>
    </clipPath>
    <clipPath id="clip3">
      <path d="M 15.0,0 L 20.0,0 L 20.0,5.0 L 15.0,5.0 Z"/>
    </clipPath>
    <clipPath id="clip4">
      <path d="M 15.0,15.0 L 20.0,15.0 L 20.0,20.0 L 15.0,20.0 Z"/>
    </clipPath>
    <clipPath id="clip5">
      <path d="M 5.0,0 L 15.0,0 L 15.0,5.0 L 5.0,5.0 Z"/>
    </clipPath>
    <clipPath id="clip6">
      <path d="M 0,5.0 L 5.0,5.0 L 5.0,15.0 L 0,15.0 Z"/>
    </clipPath>
    <clipPath id="clip7">
      <path d="M 5.0,15.0 L 15.0,15.0 L 15.0,20.0 L 5.0,20.0 Z"/>
    </clipPath>
    <clipPath id="clip8">
      <path d="M 15.0,5.0 L 20.0,5.0 L 20.0,15.0 L 15.0,15.0 Z"/>
    </clipPath>
    <clipPath id="clip9">
      <path d="M 5.0,5.0 L 15.0,5.0 L 15.0,15.0 L 5.0,15.0 Z"/>
    </clipPath>
    <g ffdec:characterId="735" id="colorBorder">
      <use clip-path="url(#clip1)" transform="matrix(1.0, 0.0, 0.0, 1.0, 80.0, 0.0)" xlink:href="#sprite0"/>
      <use clip-path="url(#clip2)" transform="matrix(1.0, 0.0, 0.0, 1.0, 80.0, 0.0)" xlink:href="#sprite0"/>
      <use clip-path="url(#clip3)" transform="matrix(1.0, 0.0, 0.0, 1.0, 100.0, 0.0)" xlink:href="#sprite0"/>
      <use clip-path="url(#clip4)" transform="matrix(1.0, 0.0, 0.0, 1.0, 100.0, 0.0)" xlink:href="#sprite0"/>
      <use clip-path="url(#clip5)" transform="matrix(3.0, 0.0, 0.0, 1.0, 70.0, 0.0)" xlink:href="#sprite0"/>
      <use clip-path="url(#clip6)" transform="matrix(1.0, 0.0, 0.0, 1.0, 80.0, 0.0)" xlink:href="#sprite0"/>
      <use clip-path="url(#clip7)" transform="matrix(3.0, 0.0, 0.0, 1.0, 70.0, 0.0)" xlink:href="#sprite0"/>
      <use clip-path="url(#clip8)" transform="matrix(1.0, 0.0, 0.0, 1.0, 100.0, 0.0)" xlink:href="#sprite0"/>
      <use clip-path="url(#clip9)" transform="matrix(3.0, 0.0, 0.0, 1.0, 70.0, 0.0)" xlink:href="#sprite0"/>
    </g>
    <use ffdec:characterId="813" height="16.0" id="noColorSprite" transform="matrix(1.0, 0.0, 0.0, 1.0, 89.5, 2.0)" width="21.0" xlink:href="#sprite1"/>
  </g>
  <defs>
    <g id="sprite0" transform="matrix(1.0, 0.0, 0.0, 1.0, 0.0, 0.0)">
      <use ffdec:characterId="734" height="20.0" transform="matrix(1.0, 0.0, 0.0, 1.0, 0.0, 0.0)" width="20.0" xlink:href="#shape0"/>
    </g>
    <g id="shape0" transform="matrix(1.0, 0.0, 0.0, 1.0, 0.0, 0.0)">
      <path d="M0.0 0.0 L4.95 0.0 15.05 0.0 20.0 0.0 18.0 2.0 15.05 2.0 4.95 2.0 2.0 2.0 0.0 0.0" fill="#8e8e8e" fill-rule="evenodd" stroke="none"/>
      <path d="M20.0 0.0 L20.0 4.95 20.0 15.05 20.0 20.0 18.0 18.0 18.0 15.05 18.0 4.95 18.0 2.0 20.0 0.0 M0.0 20.0 L0.0 15.05 0.0 4.95 0.0 0.0 2.0 2.0 2.0 4.95 2.0 15.05 2.0 18.0 0.0 20.0" fill="#b7b7b7" fill-rule="evenodd" stroke="none"/>
      <path d="M20.0 20.0 L15.05 20.0 4.95 20.0 0.0 20.0 2.0 18.0 4.95 18.0 15.05 18.0 18.0 18.0 20.0 20.0" fill="#e6e6e6" fill-rule="evenodd" stroke="none"/>
      <path d="M18.0 2.0 L18.0 4.95 18.0 15.05 18.0 18.0 15.05 18.0 4.95 18.0 2.0 18.0 2.0 15.05 2.0 4.95 2.0 2.0 4.95 2.0 15.05 2.0 18.0 2.0" fill="#fffffe" fill-rule="evenodd" stroke="none"/>
    </g>
    <g id="sprite1" transform="matrix(1.0, 0.0, 0.0, 1.0, 0.0, 0.0)">
      <use ffdec:characterId="812" height="16.0" transform="matrix(1.0, 0.0, 0.0, 1.0, 0.0, 0.0)" width="21.0" xlink:href="#shape1"/>
    </g>
    <g id="shape1" transform="matrix(1.0, 0.0, 0.0, 1.0, 0.0, 0.0)">
      <path d="M0.0 16.0 L16.0 0.0 21.0 0.0 5.0 16.0 0.0 16.0" fill="#ff0000" fill-rule="evenodd" stroke="none"/>
    </g>
  </defs>
</svg>
