<?xml version="1.0" encoding="UTF-8" standalone="no"?>
<svg xmlns:ffdec="https://www.free-decompiler.com/flash" xmlns:xlink="http://www.w3.org/1999/xlink" ffdec:objectType="frame" height="33.25px" width="10.75px" xmlns="http://www.w3.org/2000/svg">
  <g transform="matrix(1.0, 0.0, 0.0, 1.0, 5.1, 17.25)">
    <use ffdec:characterId="1269" height="29.55" transform="matrix(1.0, 0.0, 0.0, 1.0, -4.0, -15.05)" width="8.7" xlink:href="#shape0"/>
    <use ffdec:characterId="1081" height="100.0" id="shape" transform="matrix(0.09, 0.0, 0.0, 0.3, -4.4998, -14.9994)" width="100.0" xlink:href="#sprite0"/>
  </g>
  <defs>
    <g id="shape0" transform="matrix(1.0, 0.0, 0.0, 1.0, 4.0, 15.05)">
      <path d="M4.55 -9.0 L4.35 -6.25 4.15 -3.4 Q3.95 -1.95 3.9 0.05 L3.6 3.9 3.3 7.5 3.25 9.85 3.0 12.15 Q2.7 13.8 1.3 14.25 L-1.3 14.4 Q-2.8 13.8 -3.05 12.4 -4.05 10.7 -3.9 6.15 L-3.9 4.25 -3.7 -2.3 Q-3.6 -5.35 -3.85 -7.5 -4.15 -9.7 -3.9 -11.5 -3.7 -13.35 -2.45 -14.3 -1.2 -15.25 1.1 -15.0 3.35 -14.8 4.0 -13.6 4.65 -12.4 4.7 -11.35 L4.55 -9.0" fill="#ffcc99" fill-rule="evenodd" stroke="none"/>
    </g>
    <g id="sprite0" transform="matrix(1.0, 0.0, 0.0, 1.0, 50.0, 50.0)">
      <use ffdec:characterId="1080" height="100.0" transform="matrix(1.0, 0.0, 0.0, 1.0, -50.0, -50.0)" width="100.0" xlink:href="#shape1"/>
    </g>
    <g id="shape1" transform="matrix(1.0, 0.0, 0.0, 1.0, 50.0, 50.0)">
      <path d="M50.0 50.0 L-50.0 50.0 -50.0 -50.0 50.0 -50.0 50.0 50.0 Z" fill="none" stroke="#9900ff" stroke-linecap="round" stroke-linejoin="round" stroke-width="0.05"/>
    </g>
  </defs>
</svg>
