<?xml version="1.0" encoding="UTF-8" standalone="no"?>
<svg xmlns:ffdec="https://www.free-decompiler.com/flash" xmlns:xlink="http://www.w3.org/1999/xlink" ffdec:objectType="frame" height="33.25px" width="10.75px" xmlns="http://www.w3.org/2000/svg">
  <g transform="matrix(1.0, 0.0, 0.0, 1.0, 5.1, 17.25)">
    <use ffdec:characterId="1271" height="31.05" transform="matrix(1.0, 0.0, 0.0, 1.0, -4.4, -15.05)" width="9.1" xlink:href="#shape0"/>
  </g>
  <defs>
    <g id="shape0" transform="matrix(1.0, 0.0, 0.0, 1.0, 4.4, 15.05)">
      <path d="M-3.9 5.45 L-3.55 5.25 -3.5 5.25 -1.6 4.9 -1.3 5.3 -1.3 6.55 -1.8 7.35 -1.85 7.45 -2.6 7.9 -3.55 7.75 -3.6 7.75 -3.7 7.7 -4.4 6.75 -4.15 5.75 -3.9 5.45 M-1.85 8.85 L-1.55 9.1 -1.4 9.55 1.8 8.55 1.65 10.45 0.95 10.6 Q0.55 9.85 0.0 10.6 L-0.5 11.05 -1.05 11.55 -1.3 14.2 -2.05 13.45 -2.1 13.3 -2.15 12.05 -3.95 11.4 -3.45 10.95 -3.4 8.95 -3.35 8.95 -3.0 9.0 -1.85 8.85 M-2.8 0.65 L-0.9 0.15 -0.35 0.3 0.85 0.9 1.35 1.55 1.55 2.25 1.45 3.65 1.3 3.8 -0.3 3.8 -0.4 3.8 Q-2.1 4.0 -3.05 2.75 L-2.8 0.65 M1.6 13.5 L1.0 13.45 0.95 13.4 1.05 11.75 1.4 11.3 2.8 11.7 2.65 12.95 1.6 13.5" fill="#ff0000" fill-rule="evenodd" stroke="none"/>
      <path d="M-1.3 6.55 L-1.55 8.8 -1.85 8.85 -3.0 9.0 -3.35 8.95 -3.4 8.95 -3.7 8.9 -4.05 8.35 -4.4 7.75 -4.4 6.75 -3.7 7.7 -3.6 7.75 -3.55 7.75 -2.6 7.9 -1.85 7.45 -1.8 7.35 -1.3 6.55 M-1.4 9.55 L-0.5 8.85 0.05 6.35 0.4 6.2 -0.25 6.15 -0.5 4.75 -2.55 4.15 -3.75 3.15 -3.6 2.25 -3.3 1.3 -2.8 0.65 -3.05 2.75 Q-2.1 4.0 -0.4 3.8 L-0.3 3.8 1.3 3.8 1.45 3.65 1.55 2.25 2.2 3.2 2.15 4.05 1.8 4.7 1.7 6.2 1.4 6.2 2.1 6.95 Q3.35 8.65 2.45 10.4 L3.0 12.0 3.1 12.25 2.9 13.2 2.8 13.55 1.6 13.5 2.65 12.95 2.8 11.7 1.4 11.3 1.05 11.75 0.95 10.6 1.65 10.45 1.8 8.55 -1.4 9.55 M-2.1 13.3 L-2.75 13.25 -3.55 12.85 Q-4.15 12.35 -4.2 11.7 L-4.2 11.6 -3.95 11.4 -2.15 12.05 -2.1 13.3" fill="#990000" fill-rule="evenodd" stroke="none"/>
      <path d="M0.95 13.4 L0.95 13.45 0.95 14.35 Q0.8 14.95 0.3 15.35 L-0.9 15.95 -1.1 16.0 -1.85 15.6 -2.05 13.45 -1.3 14.2 -1.05 11.55 -0.5 11.05 0.0 10.6 Q0.55 9.85 0.95 10.6 L1.05 11.75 0.95 13.4" fill="#ffffff" fill-rule="evenodd" stroke="none"/>
      <path d="M-3.9 5.45 L-3.9 5.2 -3.9 4.9 -3.9 4.25 -3.8 0.9 -3.7 -2.3 -3.7 -2.4 Q-3.6 -5.35 -3.85 -7.5 -4.15 -9.7 -3.9 -11.5 -3.7 -13.35 -2.45 -14.3 -1.2 -15.25 1.1 -15.0 3.35 -14.8 4.0 -13.6 4.65 -12.4 4.7 -11.35 L4.55 -9.0 4.35 -6.25 4.15 -3.4 4.05 -2.4 3.9 0.05 3.6 3.9 3.3 7.5 3.25 9.85 3.0 12.0 2.45 10.4 Q3.35 8.65 2.1 6.95 L1.4 6.2 1.7 6.2 1.8 4.7 2.15 4.05 2.2 3.2 1.55 2.25 1.35 1.55 0.85 0.9 -0.35 0.3 -0.9 0.15 -2.8 0.65 -3.3 1.3 -3.6 2.25 -3.75 3.15 -2.55 4.15 -0.5 4.75 -0.25 6.15 0.4 6.2 0.05 6.35 -0.5 8.85 -1.4 9.55 -1.55 9.1 -1.85 8.85 -1.55 8.8 -1.3 6.55 -1.3 5.3 -1.6 4.9 -3.5 5.25 -3.55 5.25 -3.9 5.45 M-4.2 11.6 L-4.05 8.35 -3.7 8.9 -3.4 8.95 -3.45 10.95 -3.95 11.4 -4.2 11.6" fill="#ffcc99" fill-rule="evenodd" stroke="none"/>
    </g>
  </defs>
</svg>
