<?xml version="1.0" encoding="UTF-8" standalone="no"?>
<svg xmlns:ffdec="https://www.free-decompiler.com/flash" xmlns:xlink="http://www.w3.org/1999/xlink" ffdec:objectType="frame" height="33.25px" width="10.75px" xmlns="http://www.w3.org/2000/svg">
  <g transform="matrix(1.0, 0.0, 0.0, 1.0, 5.1, 17.25)">
    <use ffdec:characterId="1272" height="33.25" transform="matrix(1.0, 0.0, 0.0, 1.0, -5.1, -17.25)" width="10.75" xlink:href="#shape0"/>
  </g>
  <defs>
    <g id="shape0" transform="matrix(1.0, 0.0, 0.0, 1.0, 5.1, 17.25)">
      <path d="M2.15 -14.2 L2.45 -14.75 2.45 -14.8 2.15 -15.3 Q1.8 -15.65 1.8 -15.9 L1.8 -16.25 1.95 -16.4 3.45 -16.05 Q4.3 -15.65 4.3 -15.15 L4.3 -14.5 4.15 -13.3 3.85 -12.7 3.75 -12.6 0.65 -9.55 0.55 -9.5 0.85 -8.55 Q0.85 -8.0 0.4 -7.35 -0.15 -6.65 -0.8 -6.65 -1.7 -6.65 -1.95 -7.9 L-2.05 -8.3 Q-2.05 -9.75 -0.6 -9.85 L0.25 -9.7 0.95 -10.95 Q1.7 -12.25 1.7 -13.3 L2.1 -14.15 2.15 -14.2 M0.85 -16.9 L0.85 -16.65 Q0.85 -16.1 -0.05 -15.45 L-0.9 -14.95 -1.15 -14.9 -1.25 -14.9 -1.25 -14.85 -1.2 -14.5 Q-1.25 -13.15 -1.5 -12.45 -1.95 -11.15 -3.65 -11.15 L-3.95 -11.15 -4.2 -11.2 -4.2 -10.65 Q-4.2 -9.45 -4.35 -8.9 L-4.7 -8.9 -4.8 -8.9 -4.8 -9.5 -4.8 -11.6 -5.0 -11.95 -5.05 -12.2 -5.05 -12.25 -5.05 -12.8 Q-5.05 -13.8 -3.95 -14.25 L-2.95 -14.55 -1.6 -14.95 -1.7 -14.95 Q-2.2 -15.2 -2.2 -15.8 -2.2 -16.45 -1.45 -16.9 -0.55 -17.45 0.7 -17.15 L0.85 -16.9 M1.6 13.5 L1.0 13.45 0.95 13.4 1.05 11.75 1.4 11.3 2.8 11.7 2.65 12.95 1.6 13.5 M-2.05 13.45 L-2.1 13.3 -2.15 12.05 -3.95 11.4 -3.45 10.95 -3.4 8.95 -3.35 8.95 -3.0 9.0 -1.85 8.85 -1.55 9.1 -1.4 9.55 1.8 8.55 1.65 10.45 0.95 10.6 Q0.55 9.85 0.0 10.6 L-0.5 11.05 -1.05 11.55 -1.3 14.2 -2.05 13.45 M-4.4 6.75 L-4.15 5.75 -3.9 5.45 -3.55 5.25 -3.5 5.25 -1.6 4.9 -1.3 5.3 -1.3 6.55 -1.8 7.35 -1.85 7.45 -2.6 7.9 -3.55 7.75 -3.6 7.75 -3.7 7.7 -4.4 6.75 M1.55 2.25 L1.45 3.65 1.3 3.8 -0.3 3.8 -0.4 3.8 Q-2.1 4.0 -3.05 2.75 L-2.8 0.65 -0.9 0.15 -0.35 0.3 0.85 0.9 1.35 1.55 1.55 2.25" fill="#ff0000" fill-rule="evenodd" stroke="none"/>
      <path d="M1.95 -16.4 L1.8 -16.25 1.8 -15.9 Q1.8 -15.65 2.15 -15.3 L2.45 -14.8 2.45 -14.75 2.15 -14.2 1.0 -14.7 0.55 -14.5 -0.2 -14.35 -0.7 -14.4 Q-0.55 -14.05 -0.55 -13.45 -0.55 -12.75 -1.2 -11.95 L-1.2 -11.9 -1.55 -10.95 -1.55 -10.9 -1.55 -10.6 -1.75 -10.5 -1.8 -10.5 Q-2.15 -10.15 -2.65 -10.15 L-3.1 -10.15 -3.35 -8.85 -3.4 -8.0 -3.55 -6.4 -3.65 -6.3 -3.7 -5.95 -3.75 -5.85 -3.85 -6.15 -3.9 -6.2 -4.05 -6.15 Q-4.35 -6.6 -4.7 -8.85 L-4.7 -8.9 -4.35 -8.9 Q-4.2 -9.45 -4.2 -10.65 L-4.2 -11.2 -3.95 -11.15 -3.65 -11.15 Q-1.95 -11.15 -1.5 -12.45 -1.25 -13.15 -1.2 -14.5 L-1.25 -14.85 -1.25 -14.9 -1.15 -14.9 -0.9 -14.95 -0.05 -15.45 Q0.85 -16.1 0.85 -16.65 L0.85 -16.9 1.95 -16.4 M-1.95 -7.9 Q-1.7 -6.65 -0.8 -6.65 -0.15 -6.65 0.4 -7.35 0.85 -8.0 0.85 -8.55 L0.55 -9.5 0.65 -9.55 Q1.2 -9.35 1.2 -8.15 1.2 -7.4 0.7 -6.55 0.0 -5.4 -1.3 -5.4 -2.55 -5.4 -2.2 -6.95 L-1.95 -7.9 M3.75 -12.6 L3.85 -12.7 4.15 -13.3 4.3 -14.5 4.85 -13.25 5.65 -10.7 Q5.45 -6.35 4.45 -6.1 L4.35 -6.15 Q3.8 -6.6 3.8 -7.45 3.8 -8.95 4.3 -9.75 L4.7 -10.65 4.7 -10.9 3.75 -12.6 M-5.05 -12.2 L-5.0 -11.95 -4.8 -11.6 -4.8 -9.5 -5.05 -12.2 M3.0 12.0 L3.1 12.25 2.9 13.2 2.8 13.55 1.6 13.5 2.65 12.95 2.8 11.7 1.4 11.3 1.05 11.75 0.95 10.6 1.65 10.45 1.8 8.55 -1.4 9.55 -0.5 8.85 0.05 6.35 0.4 6.2 -0.25 6.15 -0.5 4.75 -2.55 4.15 -3.75 3.15 -3.6 2.25 -3.3 1.3 -2.8 0.65 -3.05 2.75 Q-2.1 4.0 -0.4 3.8 L-0.3 3.8 1.3 3.8 1.45 3.65 1.55 2.25 2.2 3.2 2.15 4.05 1.8 4.7 1.7 6.2 1.4 6.2 2.1 6.95 Q3.35 8.65 2.45 10.4 L3.0 12.0 M-2.1 13.3 L-2.75 13.25 -3.55 12.85 Q-4.15 12.35 -4.2 11.7 L-4.2 11.6 -3.95 11.4 -2.15 12.05 -2.1 13.3 M-4.05 8.35 L-4.4 7.75 -4.4 6.75 -3.7 7.7 -3.6 7.75 -3.55 7.75 -2.6 7.9 -1.85 7.45 -1.8 7.35 -1.3 6.55 -1.55 8.8 -1.85 8.85 -3.0 9.0 -3.35 8.95 -3.4 8.95 -3.7 8.9 -4.05 8.35" fill="#990000" fill-rule="evenodd" stroke="none"/>
      <path d="M-3.7 -5.95 L-3.65 -6.3 -3.55 -6.4 -3.4 -8.0 -3.35 -8.85 -3.1 -10.15 -2.65 -10.15 Q-2.15 -10.15 -1.8 -10.5 L-1.75 -10.5 -1.55 -10.6 -1.55 -10.9 -1.55 -10.95 -1.2 -11.9 -1.2 -11.95 Q-0.55 -12.75 -0.55 -13.45 -0.55 -14.05 -0.7 -14.4 L-0.2 -14.35 0.55 -14.5 1.0 -14.7 2.15 -14.2 2.1 -14.15 1.7 -13.3 Q1.7 -12.25 0.95 -10.95 L0.25 -9.7 -0.6 -9.85 Q-2.05 -9.75 -2.05 -8.3 L-1.95 -7.9 -2.2 -6.95 Q-2.55 -5.4 -1.3 -5.4 0.0 -5.4 0.7 -6.55 1.2 -7.4 1.2 -8.15 1.2 -9.35 0.65 -9.55 L3.75 -12.6 4.7 -10.9 4.7 -10.65 4.3 -9.75 Q3.8 -8.95 3.8 -7.45 3.8 -6.6 4.35 -6.15 L4.15 -3.4 4.05 -2.4 4.0 -2.1 3.9 -0.55 3.9 0.05 3.6 3.9 3.3 7.5 3.25 9.85 3.0 12.0 2.45 10.4 Q3.35 8.65 2.1 6.95 L1.4 6.2 1.7 6.2 1.8 4.7 2.15 4.05 2.2 3.2 1.55 2.25 1.35 1.55 0.85 0.9 -0.35 0.3 -0.9 0.15 -2.8 0.65 -3.3 1.3 -3.6 2.25 -3.75 3.15 -2.55 4.15 -0.5 4.75 -0.25 6.15 0.4 6.2 0.05 6.35 -0.5 8.85 -1.4 9.55 -1.55 9.1 -1.85 8.85 -1.55 8.8 -1.3 6.55 -1.3 5.3 -1.6 4.9 -3.5 5.25 -3.55 5.25 -3.9 5.45 -3.9 5.2 -3.9 4.9 -3.9 4.25 -3.8 0.9 -3.75 -0.15 -3.7 -2.3 -3.7 -2.4 -3.7 -5.95 M-4.2 11.6 L-4.05 8.35 -3.7 8.9 -3.4 8.95 -3.45 10.95 -3.95 11.4 -4.2 11.6" fill="#ffcc99" fill-rule="evenodd" stroke="none"/>
      <path d="M0.95 13.4 L0.95 13.45 0.95 14.35 Q0.8 14.95 0.3 15.35 L-0.9 15.95 -1.1 16.0 -1.85 15.6 -2.05 13.45 -1.3 14.2 -1.05 11.55 -0.5 11.05 0.0 10.6 Q0.55 9.85 0.95 10.6 L1.05 11.75 0.95 13.4" fill="#ffffff" fill-rule="evenodd" stroke="none"/>
    </g>
  </defs>
</svg>
