<?xml version="1.0" encoding="UTF-8" standalone="no"?>
<svg xmlns:ffdec="https://www.free-decompiler.com/flash" xmlns:xlink="http://www.w3.org/1999/xlink" ffdec:objectType="frame" height="26.1px" width="18.25px" xmlns="http://www.w3.org/2000/svg">
  <g transform="matrix(1.0, 0.0, 0.0, 1.0, 9.15, 13.05)">
    <use ffdec:characterId="1966" height="26.1" transform="matrix(1.0, 0.0, 0.0, 1.0, -9.15, -13.05)" width="18.25" xlink:href="#shape0"/>
  </g>
  <defs>
    <g id="shape0" transform="matrix(1.0, 0.0, 0.0, 1.0, 9.15, 13.05)">
      <path d="M8.95 -4.7 L9.1 -3.15 8.45 -0.95 8.4 -0.8 6.6 0.65 6.45 0.75 6.05 1.2 Q4.75 2.7 4.7 3.5 L4.5 3.85 4.75 4.0 4.75 4.05 5.0 4.25 5.2 4.0 6.4 4.0 7.0 3.95 7.0 3.85 7.45 3.75 7.05 5.45 Q6.45 7.25 5.65 7.25 4.7 7.25 4.35 6.75 L4.15 6.45 4.05 5.95 4.1 5.75 4.05 5.8 4.0 5.85 3.6 5.8 3.5 5.3 3.75 4.85 3.9 4.55 5.4 1.8 6.4 0.3 Q5.85 -0.35 6.1 -2.5 6.3 -3.8 4.9 -4.45 L4.6 -4.6 4.45 -4.7 3.65 -5.15 2.9 -5.2 2.4 -5.25 2.25 -5.25 2.0 -5.25 1.85 -5.3 1.9 -4.95 1.95 -4.3 Q1.95 -3.6 1.55 -3.0 L1.35 -2.7 0.65 -2.25 0.15 -2.15 -0.1 -2.15 -0.6 -2.15 Q-1.7 -2.3 -1.95 -3.0 L-2.0 -3.05 -2.0 -4.05 -2.0 -4.0 Q-1.7 -3.5 0.0 -3.5 0.8 -3.5 1.05 -3.85 L1.25 -4.7 1.15 -5.5 1.25 -5.5 3.15 -7.2 4.95 -9.0 Q5.75 -7.9 4.95 -6.3 L5.0 -6.25 5.1 -6.25 4.95 -6.15 3.2 -6.0 Q3.65 -5.35 4.2 -5.25 L5.6 -5.25 Q5.45 -4.5 5.8 -4.35 L6.9 -4.25 8.85 -4.4 8.95 -4.7 M8.5 0.8 L8.5 1.3 Q8.5 2.0 7.5 2.8 L7.5 2.85 7.35 2.75 7.45 2.6 7.2 2.25 Q7.0 2.1 6.8 2.1 L7.85 0.9 8.5 0.8 M-2.6 -12.8 L-2.5 -13.0 -2.05 -12.8 Q-2.6 -12.85 -2.7 -12.35 L-2.6 -12.8 M1.7 -10.45 L3.45 -10.1 3.6 -10.0 2.2 -9.9 2.2 -10.15 1.7 -10.45 M0.7 -6.9 L-2.65 -11.7 -1.15 -10.35 0.0 -9.25 2.0 -9.5 2.0 -9.05 Q2.0 -8.5 2.85 -7.9 L1.7 -6.9 1.6 -7.05 1.5 -7.0 0.8 -6.8 0.75 -6.8 0.7 -6.9 M0.6 -6.25 L0.8 -6.25 0.7 -6.15 0.55 -6.25 0.6 -6.25 M0.05 6.0 Q0.5 6.7 0.5 7.5 L0.4 8.55 -0.5 9.5 -1.9 7.65 -3.1 5.5 -2.2 6.35 Q-1.1 7.2 -0.25 7.2 0.15 7.2 0.25 6.95 L0.25 6.5 -1.05 4.95 -0.4 5.5 0.05 6.0 M-1.8 -7.7 L-1.15 -8.25 -3.05 -8.35 -3.15 -8.35 -1.3 -8.5 Q-1.15 -8.7 -1.15 -8.25 L-1.15 -8.1 Q-1.15 -7.7 -1.4 -7.65 L-1.8 -7.7 M-4.5 -8.15 L-4.5 -6.8 -3.6 -6.75 -2.2 -7.4 -1.9 -7.6 Q-1.55 -6.55 -4.0 -5.5 -4.8 -6.1 -4.8 -6.8 -4.8 -7.9 -4.5 -8.15" fill="#990000" fill-rule="evenodd" stroke="none"/>
      <path d="M5.1 -6.25 Q6.15 -7.05 7.7 -6.9 L7.8 -6.65 8.0 -6.75 Q8.75 -7.05 9.0 -5.0 L8.95 -4.7 8.85 -4.4 6.9 -4.25 5.8 -4.35 Q5.45 -4.5 5.6 -5.25 L4.2 -5.25 Q3.65 -5.35 3.2 -6.0 L4.95 -6.15 5.1 -6.25 M8.4 -0.8 Q8.95 -1.0 8.95 -0.25 L8.75 0.75 8.5 0.8 7.85 0.9 6.8 2.1 Q7.0 2.1 7.2 2.25 L7.45 2.6 7.35 2.75 7.5 2.85 7.6 2.95 Q7.7 2.55 7.7 3.2 L7.6 3.7 7.45 3.75 7.0 3.85 7.0 3.95 6.4 4.0 5.2 4.0 5.0 4.25 4.75 4.05 4.75 4.0 4.5 3.85 4.7 3.5 Q4.75 2.7 6.05 1.2 L6.45 0.75 6.6 0.65 8.4 -0.8 M-2.05 -12.8 L-0.6 -12.15 1.7 -10.45 2.2 -10.15 2.2 -9.9 3.6 -10.0 Q5.0 -10.0 5.0 -9.1 L4.95 -9.0 3.15 -7.2 1.25 -5.5 1.15 -5.5 1.25 -4.7 1.05 -3.85 Q0.8 -3.5 0.0 -3.5 -1.7 -3.5 -2.0 -4.0 L-2.0 -4.05 -2.0 -4.75 Q-2.0 -6.35 -0.35 -6.4 L0.25 -6.35 0.55 -6.25 0.7 -6.15 0.8 -6.25 1.65 -6.9 1.7 -6.9 2.85 -7.9 Q2.0 -8.5 2.0 -9.05 L2.0 -9.5 0.0 -9.25 -1.15 -10.35 -2.65 -11.7 -2.75 -11.75 -2.75 -11.8 -2.7 -12.35 Q-2.6 -12.85 -2.05 -12.8 M-3.1 5.5 L-3.25 5.1 Q-3.25 3.6 -2.15 4.1 -1.65 4.35 -1.05 4.95 L0.25 6.5 0.25 6.95 Q0.15 7.2 -0.25 7.2 -1.1 7.2 -2.2 6.35 L-3.1 5.5 M-3.15 -8.35 L-3.05 -8.35 -1.15 -8.25 -1.8 -7.7 -1.9 -7.6 -2.2 -7.4 -3.6 -6.75 -4.5 -6.8 -4.5 -8.15 -4.5 -8.3 -3.15 -8.35" fill="#ff0000" fill-rule="evenodd" stroke="none"/>
      <path d="M5.4 1.8 L3.9 4.55 3.6 4.45 3.55 4.25 3.15 1.8 3.5 1.7 4.55 1.9 4.9 1.65 5.1 1.2 5.4 1.8" fill="#ffcc99" fill-rule="evenodd" stroke="none"/>
      <path d="M4.35 6.75 L4.45 7.15 5.05 8.85 6.4 12.3 5.5 11.6 5.9 12.45 2.45 9.85 4.05 13.05 1.4 12.7 0.3 12.45 -0.3 12.3 -1.5 11.95 -2.0 11.7 -2.3 11.65 -3.45 11.15 -9.05 8.95 Q-9.3 5.55 -9.0 2.35 -8.8 -0.1 -8.2 -2.6 L-8.15 -3.1 -6.85 -7.2 -6.2 -9.1 -7.7 -3.1 -7.75 -2.6 -7.35 4.7 -5.7 -0.95 -5.8 0.55 -5.75 2.05 -5.4 5.35 -4.35 -0.55 -4.4 2.95 -3.45 0.45 -3.4 0.4 -1.95 -3.0 Q-1.7 -2.3 -0.6 -2.15 L-0.85 0.4 -0.9 2.3 -0.6 4.75 -0.4 5.5 -1.05 4.95 Q-1.65 4.35 -2.15 4.1 -3.25 3.6 -3.25 5.1 L-3.1 5.5 -1.9 7.65 -0.5 9.5 0.4 8.55 0.5 7.5 Q0.5 6.7 0.05 6.0 L-0.05 5.65 -0.3 4.6 -0.6 2.5 -0.4 0.4 0.15 -2.15 0.65 -2.25 0.85 0.1 0.95 0.05 1.35 -2.7 1.55 -3.0 Q1.95 -3.6 1.95 -4.3 L1.9 -4.95 2.0 -5.25 2.25 -5.25 2.4 -5.25 2.35 -4.55 Q2.35 -4.0 2.65 -2.9 L2.65 -3.05 Q2.45 -3.95 2.9 -5.2 L3.65 -5.15 4.45 -4.7 4.45 -4.2 4.55 -4.2 4.6 -4.6 4.9 -4.45 Q6.3 -3.8 6.1 -2.5 5.85 -0.35 6.4 0.3 L5.4 1.8 5.1 1.2 4.9 1.65 4.55 1.9 3.5 1.7 3.15 1.8 3.55 4.25 3.6 4.45 3.75 4.85 3.5 5.3 3.6 5.8 4.0 5.85 4.05 5.8 4.05 5.95 4.15 6.45 4.35 6.75 M0.55 -6.25 L0.25 -6.35 0.3 -6.45 0.7 -6.9 0.75 -6.8 0.8 -6.8 0.6 -6.25 0.55 -6.25" fill="#251c16" fill-rule="evenodd" stroke="none"/>
      <path d="M-6.2 -9.1 L-4.6 -11.5 -2.9 -13.0 -2.8 -13.05 -2.6 -12.8 -2.7 -12.35 -2.75 -11.8 -2.75 -11.75 -2.65 -11.7 0.7 -6.9 0.3 -6.45 0.25 -6.35 -0.35 -6.4 Q-2.0 -6.35 -2.0 -4.75 L-2.0 -4.05 -2.0 -3.05 -1.95 -3.0 -3.4 0.4 -3.45 0.45 -4.4 2.95 -4.35 -0.55 -5.4 5.35 -5.75 2.05 -5.8 0.55 -5.7 -0.95 -7.35 4.7 -7.75 -2.6 -7.7 -3.1 -6.2 -9.1 M0.8 -6.8 L1.5 -7.0 1.6 -7.05 1.7 -6.9 1.65 -6.9 0.8 -6.25 0.6 -6.25 0.8 -6.8 M4.45 -4.7 L4.6 -4.6 4.55 -4.2 4.45 -4.2 4.45 -4.7 M2.0 -5.25 L1.9 -4.95 1.85 -5.3 2.0 -5.25 M1.35 -2.7 L0.95 0.05 0.85 0.1 0.65 -2.25 1.35 -2.7 M0.15 -2.15 L-0.4 0.4 -0.6 2.5 -0.3 4.6 -0.05 5.65 0.05 6.0 -0.4 5.5 -0.6 4.75 -0.9 2.3 -0.85 0.4 -0.6 -2.15 -0.1 -2.15 0.15 -2.15 M2.4 -5.25 L2.9 -5.2 Q2.45 -3.95 2.65 -3.05 L2.65 -2.9 Q2.35 -4.0 2.35 -4.55 L2.4 -5.25 M-3.15 -8.35 L-4.5 -8.3 -4.5 -8.15 Q-4.8 -7.9 -4.8 -6.8 -4.8 -6.1 -4.0 -5.5 -1.55 -6.55 -1.9 -7.6 L-1.8 -7.7 -1.4 -7.65 Q-1.15 -7.7 -1.15 -8.1 L-1.15 -8.25 Q-1.15 -8.7 -1.3 -8.5 L-3.15 -8.35" fill="#4f3d31" fill-rule="evenodd" stroke="none"/>
    </g>
  </defs>
</svg>
