<?xml version="1.0" encoding="UTF-8" standalone="no"?>
<svg xmlns:ffdec="https://www.free-decompiler.com/flash" xmlns:xlink="http://www.w3.org/1999/xlink" ffdec:objectType="frame" height="51.9px" width="42.3px" xmlns="http://www.w3.org/2000/svg">
  <g transform="matrix(1.0, 0.0, 0.0, 1.0, 19.9, 24.95)">
    <use ffdec:characterId="1884" height="51.9" transform="matrix(1.0, 0.0, 0.0, 1.0, -19.9, -24.95)" width="42.3" xlink:href="#shape0"/>
  </g>
  <defs>
    <g id="shape0" transform="matrix(1.0, 0.0, 0.0, 1.0, 19.9, 24.95)">
      <path d="M15.35 -22.6 L15.45 -22.3 Q15.6 -21.55 16.2 -21.1 L16.95 -20.4 16.55 -19.85 16.45 -19.95 Q15.4 -20.55 13.8 -20.55 12.95 -20.55 12.45 -20.05 11.95 -19.55 11.45 -19.55 8.6 -19.55 6.8 -21.65 L8.05 -22.0 8.7 -21.7 Q9.1 -21.45 9.45 -21.45 L12.1 -21.95 12.9 -21.6 Q13.4 -21.3 13.7 -21.3 15.0 -21.3 15.35 -22.6 M-16.5 22.5 L-16.45 22.0 -19.55 17.25 -19.1 15.75 -18.65 14.45 -18.95 12.4 -19.3 10.2 Q-19.3 8.6 -17.7 8.2 L-16.15 8.35 -14.95 9.2 Q-13.35 8.95 -11.85 8.05 L-10.55 6.7 Q-9.15 4.35 -9.45 1.35 -8.4 4.8 -9.35 8.15 -10.15 10.9 -12.6 12.55 L-11.7 12.65 -9.15 11.05 Q-7.85 11.05 -7.0 9.8 -6.6 9.25 -6.55 8.6 L-6.55 4.4 Q-6.7 1.95 -8.1 -0.1 -9.55 -2.1 -11.65 -3.55 L-13.8 -4.95 -13.85 -4.9 -12.9 -4.0 Q-11.05 -2.4 -10.0 -0.1 L-11.4 -0.65 -13.45 -1.1 -14.75 -1.1 -14.7 -0.9 Q-14.7 0.1 -15.55 0.7 -16.45 1.25 -16.45 3.95 L-16.65 3.95 -16.7 3.95 -18.6 0.25 Q-18.8 -0.2 -18.8 -2.5 L-18.8 -2.8 -19.2 -3.75 Q-19.9 -5.5 -19.9 -6.25 L-18.85 -8.4 -18.8 -8.5 -18.45 -7.55 Q-17.25 -8.05 -15.75 -9.65 L-13.7 -11.95 -11.2 -12.3 -11.8 -12.55 Q-14.9 -13.65 -16.85 -12.25 -17.2 -13.95 -16.15 -14.75 -14.65 -15.9 -9.75 -15.9 L-7.25 -15.45 -5.45 -15.05 Q-4.8 -15.05 -5.3 -15.15 -6.05 -17.15 -8.45 -17.95 L-7.55 -17.8 -6.7 -18.4 -5.55 -19.05 -4.2 -18.6 -3.95 -18.5 Q-4.95 -17.75 -4.95 -16.6 -4.95 -16.0 -4.55 -16.45 L-1.8 -17.3 Q-0.8 -17.65 -0.8 -18.4 -0.8 -19.0 -1.1 -19.2 L-0.8 -19.25 -0.5 -16.65 Q-0.6 -13.9 -3.05 -13.9 L-4.4 -13.95 Q-3.9 -12.45 -4.1 -11.3 L-4.3 -10.25 -4.75 -10.05 -5.65 -9.65 -6.05 -9.45 -5.6 -8.75 -5.5 -8.55 -5.3 -7.35 Q-6.15 -8.35 -7.15 -8.95 -7.55 -10.0 -9.45 -9.9 -11.85 -9.8 -12.2 -8.05 L-10.0 -7.6 Q-9.2 -7.2 -8.5 -7.15 -7.2 -6.2 -5.45 -6.2 L-5.4 -5.7 -4.4 -6.1 -4.35 -5.85 -1.7 -1.95 -0.2 -0.05 -0.2 0.2 Q-0.25 1.1 -0.6 1.8 0.5 1.75 1.0 1.2 L1.05 1.9 1.05 2.35 Q-0.5 1.95 -2.1 2.9 -0.65 3.35 0.75 4.05 L-0.05 6.3 -2.25 4.9 -2.7 0.2 -2.85 0.2 -3.15 4.4 Q-3.4 4.3 -3.7 4.15 L-3.85 4.3 -3.2 5.1 Q-3.4 7.2 -4.55 9.1 -5.05 9.9 -5.2 10.95 -5.45 12.8 -6.4 14.4 L-14.8 16.75 -16.1 16.45 -16.25 19.05 Q-15.45 18.9 -14.85 18.3 -12.95 18.4 -11.1 17.5 L-6.5 14.7 -7.65 16.25 -9.6 18.4 -7.95 18.2 -5.1 17.1 Q-2.7 16.0 -0.8 14.25 L-0.2 13.4 0.75 11.2 Q1.55 13.25 1.55 13.85 L0.95 16.25 0.75 16.95 0.4 17.25 1.4 16.8 1.65 16.6 Q1.95 17.85 3.4 17.25 6.15 15.85 8.0 13.35 L8.65 12.2 8.8 11.55 Q9.45 12.3 9.45 13.2 L9.3 14.9 9.1 15.4 8.5 16.1 7.95 16.45 5.65 17.7 5.05 17.95 3.8 18.5 2.55 18.95 2.0 18.85 -0.9 18.25 Q-7.75 21.95 -15.35 22.45 L-16.05 22.55 -16.1 22.5 -16.5 22.5 M-18.05 -11.0 L-18.5 -12.8 Q-18.05 -11.9 -17.45 -11.7 L-18.05 -11.0 M18.3 -18.4 L19.3 -18.85 19.05 -18.4 18.6 -18.25 Q18.5 -18.25 18.3 -18.4 M15.9 -15.85 L15.2 -15.05 14.6 -15.0 Q13.55 -14.9 13.0 -15.6 L12.9 -15.8 13.3 -17.35 13.45 -17.6 13.75 -17.95 13.8 -16.65 13.85 -16.65 15.45 -16.35 15.85 -16.75 15.9 -15.85 M12.8 -12.75 Q13.6 -13.0 14.0 -12.5 13.1 -12.9 10.05 -10.85 L10.1 -10.9 Q11.1 -11.95 12.2 -12.5 L12.8 -12.75 M14.3 -12.1 L14.45 -12.2 15.15 -13.05 15.9 -13.9 15.95 -13.8 16.55 -13.15 16.55 -13.05 15.6 -9.55 15.1 -8.15 15.7 -7.6 Q16.75 -6.3 16.55 -4.45 L16.0 -2.75 15.5 -2.5 Q14.5 -1.9 13.45 -1.95 11.65 -1.95 10.35 -2.85 9.05 -3.75 9.05 -5.0 L9.05 -5.05 9.55 -6.5 10.35 -7.7 6.55 -5.6 4.45 -4.35 6.2 -4.35 6.1 -3.6 6.45 -3.25 7.05 -3.1 7.55 -0.45 6.85 0.55 7.95 1.9 6.65 3.15 4.15 3.8 2.55 2.95 Q2.6 1.5 2.2 0.2 L1.6 -1.2 0.95 -2.5 -0.15 -4.35 -1.7 -6.85 -3.25 -8.8 -2.3 -9.75 -1.6 -9.0 -0.85 -9.8 -1.1 -10.8 -0.5 -12.2 0.85 -13.0 1.1 -13.05 2.05 -6.65 2.05 -6.4 2.2 -6.35 3.85 -7.2 4.75 -7.5 1.65 -6.0 2.05 -5.7 3.7 -6.25 Q7.45 -7.65 11.1 -9.55 L12.75 -10.45 14.3 -11.7 14.3 -11.85 14.3 -12.1 M14.85 -6.5 Q14.85 -8.15 12.5 -8.1 10.1 -8.05 10.1 -5.85 L10.2 -4.9 Q10.4 -4.2 11.2 -4.05 L13.45 -3.95 Q14.15 -3.95 14.55 -4.95 L14.85 -6.5 M11.15 2.5 L11.3 2.65 Q11.8 3.05 11.8 3.95 11.8 5.1 11.3 5.95 10.5 7.3 8.8 7.3 L7.85 7.25 Q6.55 7.05 6.15 6.35 L6.05 5.35 Q6.05 4.3 6.5 3.6 L6.45 4.1 Q6.45 4.65 7.55 5.3 L9.8 5.3 Q10.9 4.85 11.15 4.35 L11.3 3.45 11.15 2.5 M2.55 4.9 L2.8 5.05 4.0 6.5 4.8 7.7 4.8 8.8 3.55 8.8 1.9 8.2 1.8 8.05 2.55 5.0 2.55 4.9 M-2.15 6.4 L-0.9 8.0 -2.5 10.55 -2.15 6.4" fill="#990000" fill-rule="evenodd" stroke="none"/>
      <path d="M-18.8 -8.5 L-18.8 -8.65 Q-18.8 -9.9 -18.05 -11.0 L-17.45 -11.7 Q-18.05 -11.9 -18.5 -12.8 L-18.55 -12.85 -18.55 -12.9 Q-19.15 -13.95 -19.15 -15.05 -19.15 -18.5 -12.9 -18.55 L-8.45 -17.95 Q-6.05 -17.15 -5.3 -15.15 -4.8 -15.05 -5.45 -15.05 L-7.25 -15.45 -9.75 -15.9 Q-14.65 -15.9 -16.15 -14.75 -17.2 -13.95 -16.85 -12.25 -14.9 -13.65 -11.8 -12.55 L-11.2 -12.3 -13.7 -11.95 -15.75 -9.65 Q-17.25 -8.05 -18.45 -7.55 L-18.8 -8.5 M-3.95 -18.5 L-2.85 -19.1 -1.1 -19.2 Q-0.8 -19.0 -0.8 -18.4 -0.8 -17.65 -1.8 -17.3 L-4.55 -16.45 Q-4.95 -16.0 -4.95 -16.6 -4.95 -17.75 -3.95 -18.5 M0.6 -19.45 L0.95 -19.55 2.35 -20.4 Q3.35 -21.05 4.7 -21.25 L4.85 -20.8 Q4.95 -20.0 3.7 -17.15 2.3 -17.6 0.95 -19.05 L0.6 -19.45 M8.05 -22.0 L7.95 -22.05 Q15.45 -26.55 15.45 -23.75 L15.35 -22.6 Q15.0 -21.3 13.7 -21.3 13.4 -21.3 12.9 -21.6 L12.1 -21.95 9.45 -21.45 Q9.1 -21.45 8.7 -21.7 L8.05 -22.0 M17.45 -19.1 L17.5 -19.15 19.45 -19.8 19.3 -18.85 18.3 -18.4 17.7 -18.6 Q17.45 -18.8 17.45 -19.1 M14.0 -12.5 L14.3 -12.1 14.3 -11.85 14.3 -11.7 12.75 -10.45 11.1 -9.55 Q7.45 -7.65 3.7 -6.25 L2.05 -5.7 1.65 -6.0 4.75 -7.5 8.1 -9.55 9.4 -10.4 9.8 -10.7 9.9 -10.75 10.05 -10.85 Q13.1 -12.9 14.0 -12.5 M13.75 -17.95 Q14.4 -18.65 15.6 -18.65 L16.1 -18.1 15.85 -16.75 15.45 -16.35 13.85 -16.65 13.8 -16.65 13.75 -17.95 M-1.1 -10.8 L-0.85 -9.8 -1.6 -9.0 -2.3 -9.75 -1.2 -11.0 -1.1 -10.8 M-3.25 -8.8 L-1.7 -6.85 -0.15 -4.35 0.95 -2.5 1.6 -1.2 2.2 0.2 Q2.6 1.5 2.55 2.95 L2.5 2.95 1.75 2.65 1.05 2.35 1.05 1.9 1.0 1.2 Q0.5 1.75 -0.6 1.8 -0.25 1.1 -0.2 0.2 L-0.2 -0.05 -1.7 -1.95 -4.35 -5.85 -4.4 -6.1 -3.25 -8.8 M6.65 3.15 L7.95 1.9 10.3 1.85 11.15 2.5 11.3 3.45 11.15 4.35 Q10.9 4.85 9.8 5.3 L7.55 5.3 Q6.45 4.65 6.45 4.1 L6.5 3.6 6.65 3.15 M14.85 -6.5 L14.55 -4.95 Q14.15 -3.95 13.45 -3.95 L11.2 -4.05 Q10.4 -4.2 10.2 -4.9 L10.1 -5.85 Q10.1 -8.05 12.5 -8.1 14.85 -8.15 14.85 -6.5 M5.5 12.25 L5.75 11.55 Q6.5 9.8 8.35 10.3 L8.8 11.55 8.65 12.2 8.0 13.35 Q6.15 15.85 3.4 17.25 1.95 17.85 1.65 16.6 1.7 15.0 3.45 14.75 L4.25 14.4 Q5.1 14.1 5.45 13.3 L5.5 12.25 M0.75 4.05 L2.55 4.9 2.55 5.0 1.8 8.05 1.1 7.3 -0.05 6.3 0.75 4.05 M-2.25 4.9 L-3.15 4.4 -2.85 0.2 -2.7 0.2 -2.25 4.9 M-3.2 5.1 L-2.15 6.4 -2.5 10.55 -0.9 8.0 0.95 10.55 0.75 11.2 -0.2 13.4 -0.8 14.25 Q-2.7 16.0 -5.1 17.1 L-7.95 18.2 -9.6 18.4 -7.65 16.25 -6.5 14.7 -11.1 17.5 Q-12.95 18.4 -14.85 18.3 -15.45 18.9 -16.25 19.05 L-16.1 16.45 -14.8 16.75 -6.4 14.4 Q-5.45 12.8 -5.2 10.95 -5.05 9.9 -4.55 9.1 -3.4 7.2 -3.2 5.1 M-5.45 -6.2 Q-7.2 -6.2 -8.5 -7.15 -9.2 -7.2 -10.0 -7.6 L-12.2 -8.05 Q-11.85 -9.8 -9.45 -9.9 -7.55 -10.0 -7.15 -8.95 -6.15 -8.35 -5.3 -7.35 L-5.45 -6.2 M-5.5 -8.55 L-5.6 -8.75 -6.05 -9.45 -5.65 -9.65 -4.75 -10.05 -5.5 -8.55" fill="#ff0000" fill-rule="evenodd" stroke="none"/>
      <path d="M-16.15 8.35 L-16.25 7.7 -16.65 3.95 -16.45 3.95 Q-16.45 1.25 -15.55 0.7 -14.7 0.1 -14.7 -0.9 L-14.75 -1.1 -13.45 -1.1 -11.4 -0.65 -10.0 -0.1 Q-11.05 -2.4 -12.9 -4.0 L-13.85 -4.9 -13.8 -4.95 -11.65 -3.55 Q-9.55 -2.1 -8.1 -0.1 -6.7 1.95 -6.55 4.4 L-6.55 8.6 Q-6.6 9.25 -7.0 9.8 -7.85 11.05 -9.15 11.05 L-11.7 12.65 -12.6 12.55 Q-10.15 10.9 -9.35 8.15 -8.4 4.8 -9.45 1.35 -9.15 4.35 -10.55 6.7 L-11.85 8.05 Q-13.35 8.95 -14.95 9.2 L-16.15 8.35" fill="#650101" fill-rule="evenodd" stroke="none"/>
      <path d="M20.55 -21.3 Q22.4 -19.1 22.4 -16.9 L22.35 -16.2 22.4 -16.2 22.3 -15.65 22.15 -15.0 22.0 -14.5 21.65 -13.05 20.85 -9.55 19.2 -3.15 18.6 -1.4 17.95 0.05 17.9 0.2 16.75 2.4 15.1 5.85 Q13.9 8.65 12.95 12.0 L12.1 13.3 Q11.2 14.7 8.3 17.6 L8.25 17.65 8.15 17.7 Q5.9 20.35 2.8 21.4 L0.15 22.05 0.3 21.5 1.9 20.85 4.05 19.85 Q6.65 18.05 8.5 16.1 L9.1 15.4 Q10.85 13.25 11.75 10.95 L12.4 7.45 13.0 5.85 15.0 0.2 15.05 0.05 15.55 -1.4 16.0 -2.75 16.55 -4.45 17.9 -9.55 18.4 -13.05 18.4 -13.15 Q18.4 -13.6 19.0 -14.55 L19.0 -18.2 19.05 -18.4 19.3 -18.85 19.45 -19.8 19.55 -19.9 Q20.45 -20.4 20.55 -21.3 M16.6 -17.6 L16.45 -17.4 16.1 -16.15 15.9 -15.85 15.85 -16.75 16.1 -18.1 16.15 -18.05 16.6 -17.6 M15.2 -15.05 L13.15 -13.05 12.8 -12.75 12.2 -12.5 Q11.1 -11.95 10.1 -10.9 L10.05 -10.85 9.9 -10.75 9.8 -10.7 8.4 -10.1 7.15 -9.65 6.9 -9.55 6.65 -9.45 4.35 -9.0 5.25 -9.55 7.05 -10.6 7.5 -10.85 7.85 -11.05 10.6 -13.05 13.0 -15.6 Q13.55 -14.9 14.6 -15.0 L15.2 -15.05" fill="#5383b4" fill-rule="evenodd" stroke="none"/>
      <path d="M16.95 -20.4 L18.6 -22.05 Q20.55 -23.55 20.55 -21.55 L20.55 -21.3 Q20.45 -20.4 19.55 -19.9 L19.45 -19.8 17.5 -19.15 17.45 -19.1 17.4 -19.1 17.55 -18.45 17.45 -17.7 Q17.55 -17.45 16.95 -17.45 16.8 -17.45 16.6 -17.6 L16.15 -18.05 16.1 -18.1 15.6 -18.65 Q14.4 -18.65 13.75 -17.95 L13.45 -17.6 13.3 -17.35 12.45 -16.55 Q11.9 -16.55 11.75 -16.85 L11.7 -16.9 11.55 -17.1 10.75 -16.75 Q9.15 -15.95 6.7 -13.15 6.3 -13.35 5.85 -13.75 L5.45 -14.2 Q4.75 -14.1 4.35 -13.8 L4.35 -13.6 4.35 -13.05 3.9 -12.1 3.7 -11.8 Q3.25 -11.15 3.15 -10.35 L3.15 -9.55 Q3.15 -8.4 3.7 -7.45 L3.85 -7.2 2.2 -6.35 2.05 -6.65 1.1 -13.05 0.85 -13.0 -0.5 -12.2 -1.1 -10.8 -1.2 -11.0 -2.3 -9.75 -3.25 -8.8 -4.4 -6.1 -5.4 -5.7 -5.45 -6.2 -5.3 -7.35 -5.5 -8.55 -4.75 -10.05 -4.3 -10.25 -4.1 -11.3 Q-3.9 -12.45 -4.4 -13.95 L-3.05 -13.9 Q-0.6 -13.9 -0.5 -16.65 L-0.8 -19.25 -0.95 -20.7 -0.8 -20.9 0.6 -19.45 0.95 -19.05 Q2.3 -17.6 3.7 -17.15 4.95 -20.0 4.85 -20.8 L4.7 -21.25 Q4.45 -22.25 4.45 -23.75 4.45 -24.6 4.95 -24.95 L6.55 -22.0 6.8 -21.65 Q8.6 -19.55 11.45 -19.55 11.95 -19.55 12.45 -20.05 12.95 -20.55 13.8 -20.55 15.4 -20.55 16.45 -19.95 L16.55 -19.85 16.95 -20.4 M0.15 22.05 L-0.45 26.9 -1.05 26.95 -4.9 24.05 -6.0 24.25 -7.0 24.75 -7.9 25.25 -8.7 26.05 Q-12.8 24.05 -16.6 23.75 L-16.5 22.5 -16.1 22.5 -16.05 22.55 -15.35 22.45 Q-7.75 21.95 -0.9 18.25 L2.0 18.85 0.3 21.5 0.15 22.05 M2.55 2.95 L4.15 3.8 6.65 3.15 6.5 3.6 Q6.05 4.3 6.05 5.35 L6.15 6.35 Q6.55 7.05 7.85 7.25 7.95 8.0 8.35 8.95 L8.9 10.0 8.7 10.3 Q8.2 9.85 7.3 9.6 5.3 9.1 5.3 10.95 L5.4 12.05 5.5 12.25 5.45 13.3 Q5.1 14.1 4.25 14.4 L3.45 14.75 Q1.7 15.0 1.65 16.6 L1.4 16.8 0.4 17.25 0.75 16.95 0.95 16.25 1.55 13.85 Q1.55 13.25 0.75 11.2 L0.95 10.55 -0.9 8.0 -2.15 6.4 -3.2 5.1 -3.85 4.3 -3.7 4.15 Q-3.4 4.3 -3.15 4.4 L-2.25 4.9 -0.05 6.3 1.1 7.3 1.8 8.05 1.9 8.2 3.55 8.8 4.8 8.8 4.8 7.7 4.0 6.5 2.8 5.05 2.55 4.9 0.75 4.05 Q-0.65 3.35 -2.1 2.9 -0.5 1.95 1.05 2.35 L1.75 2.65 2.5 2.95 2.55 2.95 M7.95 1.9 L6.85 0.55 7.55 -0.45 7.05 -3.1 6.45 -3.25 6.1 -3.6 6.2 -4.35 4.45 -4.35 6.55 -5.6 7.8 -4.6 9.05 -5.0 Q9.05 -3.75 10.35 -2.85 11.65 -1.95 13.45 -1.95 L11.3 2.65 11.15 2.5 10.3 1.85 7.95 1.9 M5.65 17.7 L5.65 17.8 Q5.65 18.9 4.8 18.9 L4.1 18.65 3.8 18.5 5.05 17.95 5.65 17.7" fill="#642d45" fill-rule="evenodd" stroke="none"/>
      <path d="M17.45 -19.1 Q17.45 -18.8 17.7 -18.6 L18.3 -18.4 Q18.5 -18.25 18.6 -18.25 L19.05 -18.4 19.0 -18.2 19.0 -14.55 Q18.4 -13.6 18.4 -13.15 L18.4 -13.05 17.9 -9.55 16.55 -4.45 Q16.75 -6.3 15.7 -7.6 L15.1 -8.15 15.6 -9.55 16.55 -13.05 16.55 -13.15 15.95 -13.8 15.9 -13.9 15.15 -13.05 14.45 -12.2 14.3 -12.1 14.0 -12.5 Q13.6 -13.0 12.8 -12.75 L13.15 -13.05 15.2 -15.05 15.9 -15.85 16.1 -16.15 16.45 -17.4 16.6 -17.6 Q16.8 -17.45 16.95 -17.45 17.55 -17.45 17.45 -17.7 L17.55 -18.45 17.4 -19.1 17.45 -19.1 M8.4 -10.1 L9.8 -10.7 9.4 -10.4 8.4 -10.1 M13.45 -1.95 Q14.5 -1.9 15.5 -2.5 L16.0 -2.75 15.55 -1.4 15.05 0.05 15.0 0.2 13.0 5.85 12.4 7.45 11.75 10.95 Q10.85 13.25 9.1 15.4 L9.3 14.9 9.45 13.2 Q9.45 12.3 8.8 11.55 L8.35 10.3 Q6.5 9.8 5.75 11.55 L5.5 12.25 5.4 12.05 5.3 10.95 Q5.3 9.1 7.3 9.6 8.2 9.85 8.7 10.3 L8.9 10.0 8.35 8.95 Q7.95 8.0 7.85 7.25 L8.8 7.3 Q10.5 7.3 11.3 5.95 11.8 5.1 11.8 3.95 11.8 3.05 11.3 2.65 L13.45 -1.95 M8.5 16.1 Q6.65 18.05 4.05 19.85 L1.9 20.85 0.3 21.5 2.0 18.85 2.55 18.95 3.8 18.5 4.1 18.65 4.8 18.9 Q5.65 18.9 5.65 17.8 L5.65 17.7 7.95 16.45 8.5 16.1" fill="#336699" fill-rule="evenodd" stroke="none"/>
      <path d="M3.85 -7.2 L3.7 -7.45 Q3.15 -8.4 3.15 -9.55 L3.15 -10.35 Q3.25 -11.15 3.7 -11.8 L3.9 -12.1 4.35 -13.05 4.35 -13.6 4.35 -13.8 Q4.75 -14.1 5.45 -14.2 L5.85 -13.75 Q6.3 -13.35 6.7 -13.15 9.15 -15.95 10.75 -16.75 L11.55 -17.1 11.7 -16.9 11.75 -16.85 10.65 -15.0 10.4 -14.45 9.6 -13.05 7.85 -11.05 7.5 -10.85 7.05 -10.6 5.25 -9.55 4.35 -9.0 6.65 -9.45 6.9 -9.55 7.15 -9.65 8.4 -10.1 9.4 -10.4 8.1 -9.55 4.75 -7.5 3.85 -7.2 M6.55 -5.6 L10.35 -7.7 9.55 -6.5 9.05 -5.05 9.05 -5.0 7.8 -4.6 6.55 -5.6 M2.05 -6.65 L2.2 -6.35 2.05 -6.4 2.05 -6.65" fill="#2e5d8c" fill-rule="evenodd" stroke="none"/>
      <path d="M13.3 -17.35 L12.9 -15.8 13.0 -15.6 10.6 -13.05 7.85 -11.05 9.6 -13.05 10.4 -14.45 10.65 -15.0 11.75 -16.85 Q11.9 -16.55 12.45 -16.55 L13.3 -17.35" fill="#2a547e" fill-rule="evenodd" stroke="none"/>
    </g>
  </defs>
</svg>
