<?xml version="1.0" encoding="UTF-8" standalone="no"?>
<svg xmlns:ffdec="https://www.free-decompiler.com/flash" xmlns:xlink="http://www.w3.org/1999/xlink" ffdec:objectType="frame" height="52.8px" width="50.55px" xmlns="http://www.w3.org/2000/svg">
  <g transform="matrix(1.0, 0.0, 0.0, 1.0, 27.8, 23.65)">
    <use ffdec:characterId="2178" height="52.8" transform="matrix(1.0, 0.0, 0.0, 1.0, -27.8, -23.65)" width="50.55" xlink:href="#shape0"/>
  </g>
  <defs>
    <g id="shape0" transform="matrix(1.0, 0.0, 0.0, 1.0, 27.8, 23.65)">
      <path d="M19.45 -10.75 L18.95 -8.0 18.7 -6.35 17.75 -6.65 17.2 -7.6 17.85 -8.0 17.9 -8.05 Q19.1 -8.85 19.1 -9.45 L18.95 -10.7 19.45 -10.75 M19.15 -4.95 L18.4 -3.45 18.7 -1.85 19.1 -1.65 Q15.95 -2.1 13.85 -0.35 L13.45 0.0 Q12.75 0.65 12.2 1.55 L14.95 0.85 15.85 1.45 Q19.25 3.65 22.75 1.8 L21.8 5.65 17.25 6.0 16.9 6.25 14.45 6.2 14.9 5.65 11.95 3.05 12.1 2.2 10.6 0.05 10.15 -0.15 10.3 -0.55 9.85 -1.6 10.45 -1.55 15.3 -6.3 16.25 -5.65 Q17.65 -4.8 19.15 -4.95 M22.5 6.8 L22.6 8.0 21.85 10.45 Q20.9 12.55 19.8 12.55 L19.7 12.5 19.65 13.25 19.95 14.95 20.0 15.1 Q18.25 19.35 17.45 20.05 L17.4 20.45 15.55 22.05 15.65 21.75 14.3 22.7 14.3 22.35 14.3 22.3 13.4 21.9 11.2 20.6 Q9.95 20.7 8.95 21.4 L8.6 21.7 Q7.35 22.75 7.35 23.25 L6.85 24.35 6.3 23.95 5.4 23.15 5.45 22.5 Q5.6 20.5 7.0 19.5 L6.6 18.7 5.5 19.05 4.75 18.75 6.9 16.0 9.0 16.3 10.8 15.15 11.2 14.35 15.35 14.3 Q16.65 13.45 17.75 13.65 L18.4 11.65 15.85 11.6 14.65 12.3 14.15 11.75 9.9 12.25 7.8 9.9 10.45 10.65 12.35 9.7 14.35 9.05 16.7 8.2 17.95 8.2 Q19.9 9.45 21.05 9.45 22.4 9.45 22.5 8.0 L22.5 6.8 M-3.6 20.35 L-4.85 19.45 -4.95 18.8 -1.55 15.95 2.65 15.6 2.75 14.45 2.95 12.6 -1.75 12.5 1.5 6.45 1.05 5.65 0.9 5.2 0.1 4.35 -0.2 3.7 -0.45 2.8 -0.6 1.65 -0.55 0.9 -0.25 -0.2 -0.4 -0.85 -0.45 -1.3 Q-0.45 -2.8 1.15 -3.8 L1.25 -3.85 1.95 -4.25 2.05 -4.3 2.15 -4.3 2.4 -4.4 4.5 -5.15 4.7 -5.15 5.45 -5.25 Q6.2 -5.45 6.8 -5.95 7.75 -6.8 7.75 -8.0 L7.7 -8.1 7.0 -9.35 6.9 -9.5 6.8 -9.7 6.6 -10.1 Q5.95 -11.55 6.8 -12.9 L6.95 -12.0 7.15 -12.0 9.3 -12.15 8.3 -9.5 Q8.3 -9.0 8.65 -8.55 L8.65 -8.75 8.85 -9.5 10.95 -10.6 12.65 -10.65 13.3 -10.6 14.25 -10.35 Q14.4 -11.55 14.7 -12.4 L12.65 -15.5 11.95 -16.55 10.3 -15.0 7.3 -15.2 4.15 -17.55 Q2.75 -16.45 0.9 -16.85 L-1.65 -17.9 -1.75 -18.4 3.3 -18.75 3.7 -19.9 5.2 -21.15 4.65 -20.0 Q7.35 -16.25 11.35 -18.75 L11.5 -19.55 11.9 -18.95 11.9 -18.9 Q11.9 -18.3 12.15 -17.85 L12.65 -17.45 Q13.15 -17.1 13.9 -17.1 14.3 -16.3 15.85 -14.5 15.6 -13.95 15.6 -13.0 15.35 -12.35 15.65 -11.8 16.05 -10.95 17.7 -10.75 L17.6 -10.7 15.85 -8.95 13.45 -9.1 Q12.45 -9.0 11.45 -8.0 L10.85 -7.35 12.65 -8.0 13.75 -8.3 Q14.25 -8.3 14.45 -8.0 L13.55 -6.8 4.65 -3.95 4.45 -3.25 4.95 -2.8 8.25 -3.4 7.95 -1.85 7.3 -1.8 7.4 -0.1 4.9 0.95 5.9 1.1 6.9 1.35 Q10.5 2.45 11.8 6.35 L11.0 6.75 10.5 8.0 10.3 8.4 10.1 8.85 8.2 8.75 7.65 8.25 3.05 10.0 4.15 10.5 5.1 10.2 7.15 13.2 Q5.45 15.85 2.75 17.5 0.0 19.15 -3.2 19.2 L-3.05 19.85 -3.6 20.35 M-6.3 15.9 L-6.65 15.35 -7.45 15.55 Q-8.5 15.55 -11.9 11.55 L-11.9 11.3 Q-11.8 10.4 -11.2 10.2 L-10.95 10.2 -5.95 4.2 -5.8 4.25 -5.75 4.25 -3.9 4.5 -3.8 4.65 -3.5 5.1 -3.05 6.0 -2.85 6.5 Q-2.15 8.25 -2.0 10.15 L-1.95 10.55 -2.05 12.55 -3.55 12.8 Q-4.3 13.0 -4.9 13.45 -6.1 14.35 -6.1 15.65 L-6.3 15.9 M-14.15 9.9 L-14.55 9.9 Q-16.25 9.9 -17.35 8.55 L-17.8 7.85 -20.1 9.05 -22.05 8.2 -26.7 3.25 -25.55 3.15 Q-24.8 1.4 -23.85 0.25 -20.25 -4.2 -13.5 -1.15 L-19.1 -0.5 -16.6 0.7 -18.2 0.9 -19.85 3.15 -22.6 2.65 -16.95 4.65 -17.25 4.0 -16.2 2.9 -16.1 1.75 -14.6 2.0 -15.7 3.9 -12.9 3.0 -13.0 4.55 Q-11.45 4.85 -10.15 3.7 L-9.65 3.1 -10.55 4.65 -12.3 7.7 -12.6 8.45 Q-13.2 9.65 -14.15 9.9 M-27.05 2.85 L-27.1 2.8 -27.05 2.75 -27.05 2.85 M-24.75 -2.25 L-23.3 -5.45 -23.8 -6.8 -20.35 -6.0 -20.45 -5.5 -20.05 -4.75 -15.1 -8.6 -6.75 -4.55 -6.65 -4.5 -7.15 -0.35 -7.15 -0.3 -8.05 0.6 -8.2 0.9 -8.75 1.75 -8.5 0.7 -8.5 0.55 -8.45 0.1 -8.5 -0.05 -8.65 -0.7 -8.8 -1.5 -8.85 -1.6 -10.15 -1.05 -11.25 -2.0 Q-17.05 -5.4 -23.85 -2.65 L-24.75 -2.25 M-3.4 -20.45 L-2.85 -20.55 -0.35 -20.65 -2.85 -20.5 -3.4 -20.45 M4.25 -11.7 L4.2 -9.5 3.95 -8.65 3.65 -8.0 2.4 -6.85 1.9 -6.7 1.65 -6.65 0.9 -6.6 -0.75 -7.0 Q-1.5 -7.45 -1.95 -8.35 L-2.35 -9.5 -2.0 -11.55 -2.0 -11.6 -1.95 -11.85 -1.8 -11.65 -1.25 -11.05 Q1.0 -8.85 3.0 -10.35 L4.2 -11.6 4.25 -11.7 M-8.6 -12.55 L-8.65 -11.7 Q-9.5 -11.7 -9.75 -10.85 L-9.85 -10.05 Q-9.85 -9.2 -9.5 -8.85 -8.9 -8.25 -7.25 -8.1 L-6.35 -8.1 -5.05 -8.2 Q-4.6 -8.35 -4.35 -8.55 L-4.35 -8.25 -4.35 -8.0 Q-4.45 -7.1 -5.35 -6.55 L-5.5 -6.45 Q-6.15 -6.1 -6.85 -6.1 L-9.2 -6.3 Q-10.2 -6.55 -10.65 -6.95 L-10.7 -7.05 Q-11.1 -7.45 -11.1 -8.6 L-11.1 -8.75 -10.95 -9.8 -11.1 -9.8 -11.4 -9.85 Q-12.35 -10.05 -14.6 -11.45 L-15.1 -11.75 -16.15 -12.45 -16.5 -12.65 -17.25 -13.2 Q-17.85 -13.2 -18.25 -13.85 -18.65 -14.5 -18.65 -15.4 L-18.65 -15.7 -17.8 -17.65 -17.35 -16.7 Q-16.6 -15.05 -15.1 -13.9 L-13.95 -13.3 -10.5 -12.2 -10.1 -12.1 Q-9.25 -12.1 -8.6 -12.55 M-8.35 9.85 L-9.75 11.45 -7.8 12.7 -7.6 12.85 Q-5.85 12.9 -4.6 11.05 L-4.55 11.0 -4.2 10.25 -4.1 10.0 -4.2 9.25 -4.35 9.1 -4.55 8.8 -4.6 8.65 -7.4 8.8 -8.45 8.9 -8.35 9.85" fill="#990000" fill-rule="evenodd" stroke="none"/>
      <path d="M17.75 -16.3 L17.75 -16.2 16.75 -15.45 16.7 -15.25 17.8 -15.15 Q20.0 -14.45 20.0 -11.8 L19.85 -10.95 Q19.7 -10.8 19.45 -10.75 L18.95 -10.7 19.1 -9.45 Q19.1 -8.85 17.9 -8.05 L17.85 -8.0 17.2 -7.6 17.75 -6.65 18.7 -6.35 Q19.45 -5.9 19.3 -5.2 L19.15 -4.95 Q17.65 -4.8 16.25 -5.65 L15.3 -6.3 10.45 -1.55 9.85 -1.6 10.3 -0.55 10.15 -0.15 10.6 0.05 12.1 2.2 11.95 3.05 14.9 5.65 14.45 6.2 16.9 6.25 17.25 6.0 21.8 5.65 22.3 6.0 22.5 6.8 22.5 8.0 Q22.4 9.45 21.05 9.45 19.9 9.45 17.95 8.2 L16.7 8.2 14.35 9.05 12.35 9.7 10.45 10.65 7.8 9.9 9.9 12.25 14.15 11.75 14.65 12.3 15.85 11.6 18.4 11.65 17.75 13.65 Q16.65 13.45 15.35 14.3 L11.2 14.35 10.8 15.15 9.0 16.3 6.9 16.0 4.75 18.75 -2.2 20.95 -3.05 19.85 -3.2 19.2 Q0.0 19.15 2.75 17.5 5.45 15.85 7.15 13.2 L5.1 10.2 4.15 10.5 3.05 10.0 7.65 8.25 8.2 8.75 10.1 8.85 10.3 8.4 10.5 8.0 11.0 6.75 11.8 6.35 Q10.5 2.45 6.9 1.35 L5.9 1.1 4.9 0.95 7.4 -0.1 7.3 -1.8 7.95 -1.85 8.25 -3.4 4.95 -2.8 4.45 -3.25 4.65 -3.95 13.55 -6.8 14.45 -8.0 Q14.25 -8.3 13.75 -8.3 L12.65 -8.0 10.85 -7.35 11.45 -8.0 Q12.45 -9.0 13.45 -9.1 L15.85 -8.95 17.6 -10.7 17.7 -10.75 Q16.05 -10.95 15.65 -11.8 15.35 -12.35 15.6 -13.0 15.6 -13.95 15.85 -14.5 14.3 -16.3 13.9 -17.1 L16.5 -16.95 17.75 -16.3 M19.1 -1.65 Q20.6 -1.65 21.7 -0.65 22.75 0.35 22.75 1.8 19.25 3.65 15.85 1.45 L14.95 0.85 12.2 1.55 Q12.75 0.65 13.45 0.0 L13.85 -0.35 Q15.95 -2.1 19.1 -1.65 M15.55 22.05 L14.9 23.45 13.3 25.9 Q12.5 26.9 10.75 26.6 L10.65 25.85 11.2 25.3 Q12.7 24.3 14.15 23.25 L7.35 23.25 Q7.35 22.75 8.6 21.7 L8.95 21.4 Q9.95 20.7 11.2 20.6 L13.4 21.9 14.3 22.3 14.3 22.35 14.3 22.7 15.65 21.75 15.55 22.05 M5.45 22.5 L5.15 22.55 4.3 22.45 3.4 21.4 5.5 19.05 6.6 18.7 7.0 19.5 Q5.6 20.5 5.45 22.5 M-26.7 3.25 L-27.05 2.85 -27.05 2.75 Q-27.2 0.4 -25.7 -1.25 L-24.75 -2.25 -23.85 -2.65 Q-17.05 -5.4 -11.25 -2.0 L-10.15 -1.05 -8.85 -1.6 -8.8 -1.5 -8.65 -0.7 -8.5 -0.05 -8.45 0.1 -8.5 0.55 -8.5 0.7 -8.75 1.75 -9.65 3.1 -10.15 3.7 Q-11.45 4.85 -13.0 4.55 L-12.9 3.0 -15.7 3.9 -14.6 2.0 -16.1 1.75 -16.2 2.9 -17.25 4.0 -16.95 4.65 -22.6 2.65 -19.85 3.15 -18.2 0.9 -16.6 0.7 -19.1 -0.5 -13.5 -1.15 Q-20.25 -4.2 -23.85 0.25 -24.8 1.4 -25.55 3.15 L-26.7 3.25 M-7.45 -19.45 L-6.75 -19.65 -6.8 -19.05 -7.45 -19.45 M-3.85 -20.4 L-3.4 -20.45 -2.85 -20.5 -0.35 -20.65 Q1.45 -21.1 3.1 -20.3 L3.7 -19.9 3.3 -18.75 -1.75 -18.4 -3.85 -20.4 M5.2 -21.15 L9.85 -20.9 11.3 -20.25 11.5 -19.55 11.35 -18.75 Q7.35 -16.25 4.65 -20.0 L5.2 -21.15 M9.3 -12.15 L7.15 -12.0 6.95 -12.0 6.8 -12.9 6.8 -13.1 7.0 -13.65 Q7.2 -13.95 7.5 -13.95 L9.45 -13.8 9.3 -12.15 M-1.75 12.5 L2.95 12.6 2.75 14.45 -6.1 15.65 Q-6.1 14.35 -4.9 13.45 -4.3 13.0 -3.55 12.8 L-2.05 12.55 -1.75 12.5 M-1.95 -11.85 Q-1.0 -12.9 0.2 -13.35 L2.55 -13.65 2.8 -13.6 3.85 -13.3 4.2 -13.2 4.25 -11.7 4.2 -11.6 3.0 -10.35 Q1.0 -8.85 -1.25 -11.05 L-1.8 -11.65 -1.95 -11.85 M-8.6 -14.2 L-7.95 -13.3 -8.2 -12.9 -8.6 -12.55 Q-9.25 -12.1 -10.1 -12.1 L-10.5 -12.2 -13.95 -13.3 -15.1 -13.9 Q-16.6 -15.05 -17.35 -16.7 L-17.8 -17.65 -15.1 -18.2 -12.75 -18.0 -12.65 -17.95 -8.6 -14.2 M-8.65 -11.7 L-7.35 -11.4 -6.35 -10.9 -4.2 -9.55 Q-4.15 -8.9 -4.35 -8.6 L-4.35 -8.55 Q-4.6 -8.35 -5.05 -8.2 L-6.35 -8.1 -7.25 -8.1 Q-8.9 -8.25 -9.5 -8.85 -9.85 -9.2 -9.85 -10.05 L-9.75 -10.85 Q-9.5 -11.7 -8.65 -11.7 M-4.2 10.25 L-8.2 10.4 -8.35 9.85 -8.45 8.9 -7.4 8.8 -4.6 8.65 -4.55 8.8 -4.35 9.1 -4.2 9.25 -4.1 10.0 -4.2 10.25" fill="#ff0000" fill-rule="evenodd" stroke="none"/>
      <path d="M10.65 25.85 L9.15 27.3 9.25 28.1 7.15 29.15 4.9 29.15 4.7 28.65 Q4.55 28.3 4.55 27.55 L5.8 25.95 6.85 24.35 7.35 23.25 14.15 23.25 Q12.7 24.3 11.2 25.3 L10.65 25.85 M5.15 22.55 L4.7 23.9 3.0 24.35 1.9 23.2 -3.9 22.9 -3.6 20.35 -3.05 19.85 -2.2 20.95 4.75 18.75 5.5 19.05 3.4 21.4 4.3 22.45 5.15 22.55 M-4.95 18.8 L-6.75 18.95 -7.4 18.15 -6.3 15.9 -6.1 15.65 2.75 14.45 2.65 15.6 -1.55 15.95 -4.95 18.8 M-4.2 10.25 L-4.55 11.0 -4.6 11.05 Q-5.85 12.9 -7.6 12.85 L-7.8 12.7 -9.75 11.45 -8.35 9.85 -8.2 10.4 -4.2 10.25" fill="#ffffff" fill-rule="evenodd" stroke="none"/>
      <path d="M11.95 -18.95 L16.8 -23.55 15.75 -20.3 19.2 -20.7 20.1 -19.95 16.7 -17.1 16.5 -16.95 13.9 -17.1 Q13.15 -17.1 12.65 -17.45 L12.15 -17.85 Q11.9 -18.3 11.9 -18.9 L11.95 -18.95 M-11.9 11.3 Q-12.9 12.85 -12.6 14.4 L-12.75 14.6 -13.35 14.95 -13.7 14.45 -13.7 14.95 -14.6 14.95 -14.3 13.9 -15.05 13.3 Q-15.85 12.75 -15.85 11.9 L-16.1 12.0 -15.7 11.45 -14.6 10.25 -14.15 9.9 Q-13.2 9.65 -12.6 8.45 L-12.3 7.7 -10.55 4.65 -9.65 3.1 -8.75 1.75 -8.2 0.9 -8.05 0.6 -7.15 -0.3 -7.15 -0.35 -6.65 -4.5 -6.75 -4.55 -15.1 -8.6 -20.05 -4.75 -20.45 -5.5 -20.35 -6.0 -23.8 -6.8 -23.85 -6.8 -27.2 -6.1 -27.8 -6.45 -24.0 -10.55 -27.65 -11.65 -27.6 -12.7 -23.45 -13.2 -19.95 -13.35 -19.2 -13.15 -18.8 -12.65 -17.25 -13.2 -16.5 -12.65 -16.8 -11.9 -16.15 -12.45 -15.1 -11.75 -14.6 -11.45 Q-12.35 -10.05 -11.4 -9.85 L-11.1 -9.8 -10.95 -9.8 -11.1 -8.75 -11.1 -8.6 Q-11.1 -7.45 -10.7 -7.05 L-10.65 -6.95 Q-10.2 -6.55 -9.2 -6.3 L-6.85 -6.1 Q-6.15 -6.1 -5.5 -6.45 L-5.45 -6.4 -3.35 -5.1 -4.85 -2.6 -4.3 -0.05 1.9 -6.7 2.4 -6.85 3.65 -8.0 3.95 -8.65 4.5 -5.15 2.4 -4.4 2.15 -4.3 2.05 -4.3 1.95 -4.25 1.25 -3.85 1.15 -3.8 Q-0.45 -2.8 -0.45 -1.3 L-0.4 -0.85 -0.25 -0.2 -0.55 0.9 -0.6 1.65 -0.45 2.8 -0.2 3.7 0.1 4.35 0.9 5.2 1.05 5.65 1.5 6.45 -1.75 12.5 -2.05 12.55 -1.95 10.55 -2.0 10.15 Q-2.15 8.25 -2.85 6.5 L-3.05 6.0 -3.5 5.1 -3.8 4.65 -3.9 4.5 -5.75 4.25 -5.8 4.25 -5.95 4.2 -10.95 10.2 -11.2 10.2 Q-11.8 10.4 -11.9 11.3 M-12.65 -18.9 L-11.75 -20.05 -13.1 -22.7 -7.45 -19.45 -6.8 -19.05 -6.75 -19.65 -7.65 -23.65 -3.85 -20.4 -1.75 -18.4 -1.65 -17.9 -5.05 -16.0 -4.3 -14.9 -4.3 -14.85 -4.5 -13.7 -5.6 -14.95 -7.75 -13.45 -8.6 -14.2 -12.65 -17.95 -12.7 -18.0 -13.15 -18.3 -12.65 -18.9 M10.3 -15.0 L10.95 -10.6 8.85 -9.5 8.65 -8.75 8.65 -8.55 Q8.3 -9.0 8.3 -9.5 L9.3 -12.15 9.45 -13.8 7.5 -13.95 7.3 -15.2 10.3 -15.0" fill="#a45619" fill-rule="evenodd" stroke="none"/>
      <path d="M16.7 -17.1 L17.75 -16.35 17.75 -16.3 16.5 -16.95 16.7 -17.1 M11.9 -18.95 L11.95 -18.95 11.9 -18.9 11.9 -18.95 M10.3 -15.0 L11.95 -16.55 12.65 -15.5 14.7 -12.4 Q14.4 -11.55 14.25 -10.35 L13.3 -10.6 12.65 -10.65 10.95 -10.6 10.3 -15.0 M6.8 -12.9 Q5.95 -11.55 6.6 -10.1 L6.8 -9.7 6.9 -9.5 7.0 -9.35 7.7 -8.1 7.75 -8.0 Q7.75 -6.8 6.8 -5.95 6.2 -5.45 5.45 -5.25 L4.7 -5.15 4.5 -5.15 3.95 -8.65 4.2 -9.5 4.25 -11.7 4.2 -13.2 3.85 -13.3 2.8 -13.6 2.55 -13.65 0.2 -13.35 Q-1.0 -12.9 -1.95 -11.85 L-2.0 -11.6 -2.0 -11.55 -2.35 -9.5 -1.95 -8.35 Q-1.5 -7.45 -0.75 -7.0 L0.9 -6.6 1.65 -6.65 1.9 -6.7 -4.3 -0.05 -4.85 -2.6 -3.35 -5.1 -5.45 -6.4 -5.5 -6.45 -5.35 -6.55 Q-4.45 -7.1 -4.35 -8.0 L-4.35 -8.25 -4.35 -8.55 -4.35 -8.6 Q-4.15 -8.9 -4.2 -9.55 L-6.35 -10.9 -7.35 -11.4 -8.65 -11.7 -8.6 -12.55 -8.2 -12.9 -7.95 -13.3 -8.6 -14.2 -7.75 -13.45 -5.6 -14.95 -4.5 -13.7 -4.3 -14.85 -4.3 -14.9 -5.05 -16.0 -1.65 -17.9 0.9 -16.85 Q2.75 -16.45 4.15 -17.55 L7.3 -15.2 7.5 -13.95 Q7.2 -13.95 7.0 -13.65 L6.8 -13.1 6.8 -12.9 M-12.75 -18.0 L-12.7 -18.0 -12.65 -17.95 -12.75 -18.0 M-16.5 -12.65 L-16.15 -12.45 -16.8 -11.9 -16.5 -12.65" fill="#b1b134" fill-rule="evenodd" stroke="none"/>
      <path d="M-23.45 -13.2 L-24.05 -13.95 -18.45 -19.45 -15.1 -19.25 -12.65 -18.9 -13.15 -18.3 -12.7 -18.0 -12.75 -18.0 -15.1 -18.2 -17.8 -17.65 -18.65 -15.7 -19.4 -15.0 -18.65 -15.4 Q-18.65 -14.5 -18.25 -13.85 -17.85 -13.2 -17.25 -13.2 L-18.8 -12.65 -19.2 -13.15 -19.95 -13.35 -23.45 -13.2" fill="#c6c553" fill-rule="evenodd" stroke="none"/>
      <path d="M-18.65 -15.4 L-19.4 -15.0 -18.65 -15.7 -18.65 -15.4" fill="#d6d88e" fill-rule="evenodd" stroke="none"/>
    </g>
  </defs>
</svg>
