<?xml version="1.0" encoding="UTF-8" standalone="no"?>
<svg xmlns:ffdec="https://www.free-decompiler.com/flash" xmlns:xlink="http://www.w3.org/1999/xlink" ffdec:objectType="frame" height="74.8px" width="27.8px" xmlns="http://www.w3.org/2000/svg">
  <g transform="matrix(1.0, 0.0, 0.0, 1.0, 14.5, 37.0)">
    <use ffdec:characterId="1432" height="74.6" transform="matrix(1.0, 0.0, 0.0, 1.0, -14.5, -36.8)" width="27.5" xlink:href="#shape0"/>
  </g>
  <defs>
    <g id="shape0" transform="matrix(1.0, 0.0, 0.0, 1.0, 14.5, 36.8)">
      <path d="M8.75 -33.15 Q9.95 -31.9 10.75 -30.25 L10.85 -29.95 9.0 -25.85 7.15 -22.4 7.25 -20.1 8.5 -20.75 10.0 -20.75 Q9.75 -19.9 8.25 -18.9 L7.4 -18.35 Q7.55 -16.5 7.85 -14.8 L8.95 -15.25 11.0 -15.75 11.0 -15.55 9.3 -13.65 8.45 -12.55 8.25 -12.25 Q8.65 -9.25 8.65 -6.0 8.65 -1.0 8.1 1.8 L7.95 2.55 7.45 11.15 7.4 12.05 7.25 13.9 7.25 14.3 7.2 14.65 7.15 15.15 7.15 15.4 7.15 15.5 Q7.0 16.7 7.15 18.5 L7.2 19.15 7.5 21.5 7.65 23.45 Q7.75 25.95 9.1 27.15 L8.95 27.3 8.65 28.15 8.25 29.1 Q7.4 28.85 7.05 28.15 L7.2 27.8 7.45 26.75 7.55 26.05 Q7.55 25.45 6.6 25.45 L6.55 25.45 6.0 22.95 5.85 22.3 5.7 21.5 6.0 20.75 5.95 19.7 Q5.8 19.35 5.25 19.3 L5.25 19.15 4.95 16.95 4.5 15.1 4.45 14.65 4.45 14.6 4.4 14.65 2.1 19.15 1.55 20.05 0.9 21.2 1.4 19.15 2.35 15.4 2.5 14.95 2.55 14.65 2.75 13.9 4.35 6.9 Q4.75 1.6 6.0 -8.35 L5.5 -15.45 Q5.5 -15.75 5.8 -16.15 L5.9 -16.25 6.1 -16.9 5.95 -17.55 5.6 -18.7 4.75 -20.8 Q6.35 -20.8 6.35 -22.1 6.35 -24.0 7.85 -26.75 9.05 -29.0 9.4 -28.55 9.1 -29.25 8.5 -29.25 L6.0 -27.95 3.5 -26.5 2.5 -27.0 Q4.15 -27.45 5.7 -28.4 7.25 -29.4 7.65 -30.1 L7.8 -30.7 8.4 -32.0 8.75 -33.15 M-9.65 -33.3 L-9.55 -33.4 Q-9.2 -33.65 -8.8 -33.85 L-7.0 -35.25 -7.75 -32.75 -8.0 -30.65 -8.25 -29.6 Q-8.2 -27.6 -8.85 -23.5 L-8.95 -22.8 -10.1 -19.7 Q-10.75 -17.55 -10.75 -16.1 -10.75 -14.85 -10.1 -13.9 L-9.1 -12.75 -7.8 -11.95 Q-5.15 -10.7 -4.8 -7.4 L-4.25 -3.05 Q-4.0 -1.25 -4.0 0.55 -4.0 2.9 -4.5 6.15 -4.95 9.05 -5.0 11.6 L-5.0 12.35 -5.05 13.9 -5.1 14.65 -5.2 15.65 -5.7 19.15 -6.0 20.75 -6.3 22.25 -6.9 24.6 -7.7 24.9 -7.95 25.0 -7.8 24.25 -7.65 23.45 -7.55 22.25 -7.35 19.15 -7.2 17.9 -7.2 17.7 -7.15 17.35 -6.95 15.1 -6.9 14.65 -6.8 13.9 -6.75 13.35 Q-5.75 5.0 -5.75 0.35 -5.75 -5.9 -8.85 -10.3 L-10.75 -12.75 -11.0 -13.05 Q-12.0 -14.35 -12.0 -15.25 L-12.0 -15.3 Q-12.8 -17.25 -13.0 -18.8 L-12.95 -19.65 -12.85 -20.25 -12.9 -20.9 -12.95 -23.75 Q-12.95 -29.55 -9.65 -33.3" fill="#90bce7" fill-rule="evenodd" stroke="none"/>
      <path d="M7.5 -33.5 L7.25 -33.5 Q7.6 -32.25 5.45 -30.75 L3.0 -29.5 1.05 -28.45 Q0.95 -27.75 2.0 -27.75 5.7 -27.75 7.85 -33.05 L7.5 -33.5 M-7.0 -35.25 Q-6.05 -35.9 -2.9 -36.55 L2.9 -36.3 5.75 -35.25 7.75 -34.05 7.85 -33.95 8.75 -33.15 8.4 -32.0 7.8 -30.7 7.65 -30.1 Q7.25 -29.4 5.7 -28.4 4.15 -27.45 2.5 -27.0 L3.5 -26.5 6.0 -27.95 8.5 -29.25 Q9.1 -29.25 9.4 -28.55 9.05 -29.0 7.85 -26.75 6.35 -24.0 6.35 -22.1 6.35 -20.8 4.75 -20.8 L5.6 -18.7 5.95 -17.55 6.1 -16.9 5.9 -16.25 5.8 -16.15 Q5.5 -15.75 5.5 -15.45 L6.0 -8.35 Q4.75 1.6 4.35 6.9 L2.75 13.9 2.55 14.65 2.5 14.95 2.35 15.4 1.4 19.15 0.9 21.2 1.55 20.05 2.1 19.15 4.4 14.65 4.45 14.6 4.45 14.65 4.5 15.1 4.95 16.95 5.25 19.15 5.25 19.3 5.0 19.25 3.95 20.15 Q3.5 20.55 3.5 21.35 L3.75 22.55 3.9 23.1 3.3 23.15 3.0 25.2 2.05 24.85 2.05 23.4 0.1 25.9 -0.1 25.9 -1.0 25.75 Q-2.05 24.8 -2.1 24.05 -2.1 23.75 -2.85 23.75 L-3.15 19.15 -3.2 18.4 -3.4 19.15 -4.05 21.95 -4.35 23.95 -4.35 24.0 -4.4 23.95 Q-4.8 23.1 -5.25 22.75 -5.45 23.4 -5.9 23.85 -6.3 24.3 -6.9 24.6 L-6.3 22.25 -6.0 20.75 -5.7 19.15 -5.2 15.65 -5.1 14.65 -5.05 13.9 -5.0 12.35 -5.0 11.6 Q-4.95 9.05 -4.5 6.15 -4.0 2.9 -4.0 0.55 -4.0 -1.25 -4.25 -3.05 L-4.8 -7.4 Q-5.15 -10.7 -7.8 -11.95 L-9.1 -12.75 -10.1 -13.9 Q-10.75 -14.85 -10.75 -16.1 -10.75 -17.55 -10.1 -19.7 L-8.95 -22.8 -8.85 -23.5 Q-8.2 -27.6 -8.25 -29.6 L-8.0 -30.65 -7.75 -32.75 -7.0 -35.25 M3.75 36.15 L3.05 36.5 3.1 36.4 3.75 36.15 M0.15 -4.25 L0.0 -8.1 -0.15 -9.7 -0.15 -8.9 -0.65 2.0 -0.55 11.15 -0.55 13.9 -0.55 14.65 -0.5 19.15 -0.45 20.75 -0.2 19.15 0.05 18.05 0.15 -4.25 M5.2 23.55 L4.95 23.35 4.85 23.3 5.15 22.65 5.7 21.5 5.85 22.3 6.0 22.95 6.55 25.45 6.05 25.5 6.05 25.3 5.9 25.2 5.9 25.1 Q5.9 23.95 5.2 23.55 M-1.8 -24.5 L-2.05 -21.3 -1.1 -15.4 -0.3 -10.75 -0.9 -16.8 -1.65 -24.5 -1.8 -24.5" fill="#82add7" fill-rule="evenodd" stroke="none"/>
      <path d="M10.85 -29.95 Q11.7 -27.95 11.95 -25.4 12.65 -22.45 12.9 -16.2 L13.0 -8.85 13.0 -3.4 Q13.0 4.45 12.3 11.15 L12.25 11.7 11.95 13.9 11.85 14.65 11.15 19.05 11.1 19.15 10.95 20.1 10.9 20.35 10.85 20.65 10.8 22.25 Q10.75 23.3 11.0 23.9 L10.9 23.9 10.45 23.15 10.25 22.95 10.05 22.75 10.05 22.7 9.9 22.5 9.85 22.4 Q9.4 21.9 8.8 21.9 8.35 21.9 8.05 22.65 L7.8 23.65 Q7.8 24.8 8.5 25.4 L8.75 25.6 9.4 26.05 Q9.8 26.25 10.4 26.6 9.7 26.7 9.1 27.15 7.75 25.95 7.65 23.45 L7.5 21.5 7.2 19.15 7.15 18.5 Q7.0 16.7 7.15 15.5 L7.15 15.4 7.15 15.15 7.2 14.65 7.25 14.3 7.25 13.9 7.4 12.05 7.45 11.15 7.95 2.55 8.1 1.8 Q8.65 -1.0 8.65 -6.0 8.65 -9.25 8.25 -12.25 L8.45 -12.55 9.3 -13.65 11.0 -15.55 11.0 -15.75 8.95 -15.25 7.85 -14.8 Q7.55 -16.5 7.4 -18.35 L8.25 -18.9 Q9.75 -19.9 10.0 -20.75 L8.5 -20.75 7.25 -20.1 7.15 -22.4 9.0 -25.85 10.85 -29.95 M-8.7 25.7 L-8.7 25.65 -8.85 23.0 -8.85 22.25 -8.8 20.95 -9.0 19.15 -9.05 18.55 -9.1 17.95 -9.05 16.2 -9.25 14.65 -9.35 14.05 -9.35 13.9 -9.85 11.25 -9.85 -0.4 -10.35 -4.3 -10.85 -8.45 -11.95 -12.75 -12.15 -13.6 Q-13.25 -15.45 -13.85 -18.7 L-14.0 -19.55 -14.45 -23.5 -14.5 -26.05 Q-14.5 -29.8 -10.35 -32.85 L-9.65 -33.3 Q-12.95 -29.55 -12.95 -23.75 L-12.9 -20.9 -12.85 -20.25 -12.95 -19.65 -13.0 -18.8 Q-12.8 -17.25 -12.0 -15.3 L-12.0 -15.25 Q-12.0 -14.35 -11.0 -13.05 L-10.75 -12.75 -8.85 -10.3 Q-5.75 -5.9 -5.75 0.35 -5.75 5.0 -6.75 13.35 L-6.8 13.9 -6.9 14.65 -6.95 15.1 -7.15 17.35 -7.2 17.7 -7.2 17.9 -7.35 19.15 -7.55 22.25 -7.65 23.45 -7.8 24.25 -7.95 25.0 -8.7 25.8 -8.7 25.7" fill="#aacdf0" fill-rule="evenodd" stroke="none"/>
      <path d="M7.5 -33.5 L7.85 -33.05 Q5.7 -27.75 2.0 -27.75 0.95 -27.75 1.05 -28.45 L3.0 -29.5 5.45 -30.75 Q7.6 -32.25 7.25 -33.5 L7.5 -33.5 M0.15 -4.25 L0.05 18.05 -0.2 19.15 -0.45 20.75 -0.5 19.15 -0.55 14.65 -0.55 13.9 -0.55 11.15 -0.65 2.0 -0.15 -8.9 -0.15 -9.7 0.0 -8.1 0.15 -4.25 M-1.8 -24.5 L-1.65 -24.5 -0.9 -16.8 -0.3 -10.75 -1.1 -15.4 -2.05 -21.3 -1.8 -24.5" fill="#7091b1" fill-rule="evenodd" stroke="none"/>
      <path d="M-0.6 36.3 L-1.05 35.5 -0.95 35.25 -0.4 34.5 1.3 32.8 3.1 32.15 3.4 31.2 Q3.4 30.75 3.9 30.45 L4.1 30.35 Q4.4 30.15 4.85 30.1 L5.7 30.0 5.5 30.5 5.25 31.0 5.15 31.2 4.5 32.2 3.15 33.15 2.2 33.2 0.8 35.25 0.2 37.15 -0.45 37.15 -0.6 36.3 M-4.25 33.3 L-6.25 33.05 -6.6 32.7 -6.65 32.5 -6.15 32.1 -5.35 32.5 -5.0 32.3 -3.2 31.8 Q-2.05 31.35 -1.55 30.25 L-2.2 29.4 Q-2.65 28.65 -2.7 27.75 L-2.3 27.05 -1.9 26.75 -1.8 26.75 Q-1.05 27.5 -0.7 28.35 -0.4 29.0 -0.4 29.7 L-0.4 29.85 -0.4 30.5 -1.0 30.55 Q-1.6 31.9 -2.95 32.95 -3.45 33.3 -4.25 33.3 M3.0 25.2 L3.3 23.15 3.9 23.1 4.85 23.3 4.95 23.35 5.2 23.55 5.55 24.35 5.35 24.95 5.9 25.2 6.05 25.3 6.05 25.5 6.55 25.45 6.6 25.45 Q7.55 25.45 7.55 26.05 L7.45 26.75 6.9 27.35 6.4 27.4 Q6.0 27.4 5.65 26.85 L5.45 26.45 5.3 26.0 4.65 26.05 4.5 26.05 4.45 26.1 3.3 27.05 2.9 26.9 2.8 26.6 2.8 26.4 3.0 25.2 M-6.9 27.75 L-7.0 27.15 -7.0 26.9 Q-7.0 25.75 -5.9 25.75 L-5.8 25.75 Q-4.7 25.85 -4.6 26.55 L-4.6 26.7 -4.65 27.1 -5.1 27.9 -5.3 28.1 -5.8 28.3 -5.9 28.3 Q-6.6 28.25 -6.85 27.85 L-6.9 27.75" fill="#ff0000" fill-rule="evenodd" stroke="none"/>
      <path d="M8.25 29.1 L7.75 30.2 7.25 31.1 7.0 31.6 7.2 30.9 7.25 30.8 7.25 30.65 7.1 30.5 6.95 30.35 Q6.5 30.1 5.7 30.0 L4.85 30.1 4.6 29.65 4.05 29.15 Q3.8 29.15 3.3 29.55 L2.4 29.9 1.95 29.8 1.8 29.65 Q1.8 28.75 1.45 28.2 L1.05 27.75 Q1.05 26.75 1.35 26.05 1.55 25.35 2.05 24.9 L2.05 24.85 3.0 25.2 2.8 26.4 2.8 26.6 Q2.45 27.5 2.45 28.05 L2.5 28.5 2.8 28.65 Q3.35 27.85 4.9 26.8 L5.3 26.5 Q5.15 26.8 5.15 27.15 L5.15 27.85 Q5.35 28.55 6.3 28.55 6.75 28.55 7.05 28.15 7.4 28.85 8.25 29.1 M-8.4 31.25 L-8.45 31.05 -8.35 30.95 -8.35 28.85 -8.65 29.2 -9.1 29.7 -10.4 30.35 Q-9.5 29.15 -8.95 26.9 L-8.7 25.7 -8.7 25.8 -7.95 25.0 -7.7 24.9 -6.9 24.6 Q-6.3 24.3 -5.9 23.85 -5.45 23.4 -5.25 22.75 -4.8 23.1 -4.4 23.95 L-4.35 24.0 -4.45 25.0 -4.2 26.4 -4.3 26.85 -4.6 26.55 Q-4.7 25.85 -5.8 25.75 L-5.9 25.75 Q-7.0 25.75 -7.0 26.9 L-7.0 27.15 -6.9 27.75 -6.9 27.9 Q-7.55 28.6 -7.75 30.15 -7.8 30.55 -8.2 31.05 L-8.4 31.25 M-2.85 23.75 Q-2.1 23.75 -2.1 24.05 -2.05 24.8 -1.0 25.75 L-0.1 25.9 0.1 25.9 0.05 25.95 -0.5 27.1 -0.6 26.95 Q-1.05 26.4 -1.8 26.75 L-1.9 26.75 -2.3 27.05 -2.45 27.15 -2.85 24.15 -2.85 23.75 M3.9 23.1 L3.75 22.55 3.5 21.35 Q3.5 20.55 3.95 20.15 L5.0 19.25 5.25 19.3 Q5.8 19.35 5.95 19.7 L6.0 20.75 5.7 21.5 5.15 22.65 4.85 23.3 3.9 23.1" fill="#73667c" fill-rule="evenodd" stroke="none"/>
      <path d="M7.25 30.8 L6.85 30.85 6.1 31.4 5.6 31.7 Q5.1 32.15 4.7 33.05 4.2 34.35 4.2 35.4 L4.25 35.75 4.25 35.8 3.75 36.15 3.1 36.4 3.4 34.7 2.4 34.4 0.8 35.25 2.2 33.2 3.15 33.15 4.5 32.2 5.15 31.2 5.25 31.0 5.5 30.5 5.7 30.0 Q6.5 30.1 6.95 30.35 L7.1 30.5 7.25 30.65 7.25 30.8 M-0.95 35.25 L-4.25 33.3 Q-3.45 33.3 -2.95 32.95 -1.6 31.9 -1.0 30.55 L-0.4 30.5 -0.4 29.85 -0.4 29.7 Q-0.4 29.0 -0.7 28.35 -1.05 27.5 -1.8 26.75 -1.05 26.4 -0.6 26.95 L-0.5 27.1 -0.45 27.2 -0.1 27.95 0.85 29.25 1.45 30.2 Q1.65 30.95 1.1 31.7 0.15 30.8 -1.05 31.5 -1.95 31.95 -2.0 33.2 L-2.0 33.9 Q-1.5 34.55 -0.7 34.5 L-0.4 34.5 -0.95 35.25 M-6.6 32.7 L-7.0 32.55 -7.5 32.35 -7.95 32.2 -8.0 32.15 -8.1 32.05 -8.25 31.8 -8.4 31.25 -7.9 31.25 -7.8 31.3 -7.7 31.4 -7.2 31.65 -5.9 31.6 Q-3.4 31.3 -3.1 29.9 L-3.0 29.15 -3.0 28.4 Q-2.95 27.55 -2.45 27.15 L-2.3 27.05 -2.7 27.75 Q-2.65 28.65 -2.2 29.4 L-1.55 30.25 Q-2.05 31.35 -3.2 31.8 L-5.0 32.3 -5.35 32.5 -6.15 32.1 -6.65 32.5 -6.6 32.7 M5.2 23.55 Q5.9 23.95 5.9 25.1 L5.9 25.2 5.35 24.95 5.55 24.35 5.2 23.55 M2.8 26.6 L2.9 26.9 3.3 27.05 4.45 26.1 4.5 26.05 4.65 26.05 5.3 26.0 5.45 26.45 5.65 26.85 Q6.0 27.4 6.4 27.4 L6.9 27.35 7.45 26.75 7.2 27.8 7.05 28.15 Q6.75 28.55 6.3 28.55 5.35 28.55 5.15 27.85 L5.15 27.15 Q5.15 26.8 5.3 26.5 L4.9 26.8 Q3.35 27.85 2.8 28.65 L2.5 28.5 2.45 28.05 Q2.45 27.5 2.8 26.6 M3.4 31.2 L3.1 32.15 1.3 32.8 1.3 32.45 1.2 31.9 Q2.35 30.95 2.85 31.0 L3.4 31.2 M-6.9 27.9 L-6.9 27.75 -6.85 27.85 Q-6.6 28.25 -5.9 28.3 L-5.8 28.3 -5.3 28.1 -5.1 27.9 -4.65 27.1 -4.6 26.7 -4.6 26.55 -4.3 26.85 -4.25 27.05 Q-4.25 28.05 -4.55 28.55 -4.8 28.9 -5.3 28.9 L-5.9 28.85 Q-6.65 28.7 -6.85 28.15 L-6.9 27.9" fill="#990000" fill-rule="evenodd" stroke="none"/>
      <path d="M10.05 22.75 L9.0 25.7 8.75 25.6 8.5 25.4 Q7.8 24.8 7.8 23.65 L8.05 22.65 Q8.35 21.9 8.8 21.9 9.4 21.9 9.85 22.4 L9.9 22.5 10.05 22.7 10.05 22.75 M-4.35 24.0 L-4.35 23.95 -4.05 21.95 -3.4 19.15 -3.2 18.4 -3.15 19.15 -2.85 23.75 -2.85 24.15 -2.45 27.15 Q-2.95 27.55 -3.0 28.4 L-3.0 29.15 -3.1 29.9 Q-3.4 31.3 -5.9 31.6 L-7.2 31.65 -7.7 31.4 -7.8 31.3 -7.9 31.25 -8.4 31.25 -8.2 31.05 Q-7.8 30.55 -7.75 30.15 -7.55 28.6 -6.9 27.9 L-6.85 28.15 Q-6.65 28.7 -5.9 28.85 L-5.3 28.9 Q-4.8 28.9 -4.55 28.55 -4.25 28.05 -4.25 27.05 L-4.3 26.85 -4.2 26.4 -4.45 25.0 -4.35 24.0 M0.1 25.9 L2.05 23.4 2.05 24.85 2.05 24.9 Q1.55 25.35 1.35 26.05 1.05 26.75 1.05 27.75 L1.45 28.2 Q1.8 28.75 1.8 29.65 L1.95 29.8 2.4 29.9 3.3 29.55 Q3.8 29.15 4.05 29.15 L4.6 29.65 4.85 30.1 Q4.4 30.15 4.1 30.35 L3.9 30.45 Q3.4 30.75 3.4 31.2 L2.85 31.0 Q2.35 30.95 1.2 31.9 L1.1 31.7 Q1.65 30.95 1.45 30.2 L0.85 29.25 -0.1 27.95 -0.45 27.2 -0.5 27.1 0.05 25.95 0.1 25.9" fill="#ffcc99" fill-rule="evenodd" stroke="none"/>
      <path d="M3.05 36.5 Q1.95 38.0 0.15 37.8 L-0.45 37.65 -0.6 36.3 -0.45 37.15 0.2 37.15 0.8 35.25 2.4 34.4 3.4 34.7 3.1 36.4 3.05 36.5 M1.3 32.8 L-0.4 34.5 -0.7 34.5 Q-1.5 34.55 -2.0 33.9 L-2.0 33.2 Q-1.95 31.95 -1.05 31.5 0.15 30.8 1.1 31.7 L1.2 31.9 1.3 32.45 1.3 32.8" fill="#ffffff" fill-rule="evenodd" stroke="none"/>
    </g>
  </defs>
</svg>
