<?xml version="1.0" encoding="UTF-8" standalone="no"?>
<svg xmlns:ffdec="https://www.free-decompiler.com/flash" xmlns:xlink="http://www.w3.org/1999/xlink" ffdec:objectType="frame" height="36.0px" width="125.6px" xmlns="http://www.w3.org/2000/svg">
  <g transform="matrix(1.0, 0.0, 0.0, 1.0, 62.8, 0.0)">
    <use ffdec:characterId="663" height="36.0" transform="matrix(1.0, 0.0, 0.0, 1.0, -62.8, 0.0)" width="125.6" xlink:href="#shape0"/>
  </g>
  <defs>
    <g id="shape0" transform="matrix(1.0, 0.0, 0.0, 1.0, 62.8, 0.0)">
      <path d="M62.5 31.0 L62.8 33.2 Q63.05 35.9 60.2 36.0 L51.75 36.0 49.8 36.0 17.65 36.0 15.75 36.0 -60.0 36.0 Q-63.05 36.0 -62.8 33.2 L-62.45 31.0 -61.7 26.0 -58.55 4.8 Q-58.45 2.2 -57.1 1.0 -56.0 0.05 -54.15 0.0 L54.25 0.0 Q56.05 0.05 57.15 1.0 58.5 2.2 58.6 4.8 L61.75 26.0 62.5 31.0" fill="#1c1c6c" fill-opacity="0.49803922" fill-rule="evenodd" stroke="none"/>
    </g>
  </defs>
</svg>
