<?xml version="1.0" encoding="UTF-8" standalone="no"?>
<svg xmlns:ffdec="https://www.free-decompiler.com/flash" xmlns:xlink="http://www.w3.org/1999/xlink" ffdec:objectType="frame" height="110.0px" width="19.95px" xmlns="http://www.w3.org/2000/svg">
  <g transform="matrix(1.0, 0.0, 0.0, 1.0, 9.1, 13.35)">
    <use ffdec:characterId="2301" ffdec:characterName="game_fla.upperarm2_333" height="55.9" id="upperArm2" transform="matrix(1.0, 0.0, 0.0, 1.0, -9.1, -13.35)" width="19.2" xlink:href="#sprite0"/>
    <use ffdec:characterId="2305" height="66.15" id="lowerArmOuter2" transform="matrix(1.0, 0.0, 0.0, 1.0, -6.05, 30.5)" width="16.9" xlink:href="#sprite2"/>
  </g>
  <defs>
    <g id="sprite0" transform="matrix(1.0, 0.0, 0.0, 1.0, 9.7, 29.6)">
      <use ffdec:characterId="2297" height="52.25" transform="matrix(1.0, 0.0, 0.0, 1.0, -9.7, -25.95)" width="19.2" xlink:href="#shape0"/>
      <use ffdec:characterId="1081" height="100.0" id="shape" transform="matrix(0.18, 0.0, 0.0, 0.52, -8.9996, -25.9995)" width="100.0" xlink:href="#sprite1"/>
    </g>
    <g id="shape0" transform="matrix(1.0, 0.0, 0.0, 1.0, 9.7, 25.95)">
      <path d="M3.6 -25.25 L3.5 -25.1 3.2 -25.35 3.6 -25.25 M6.0 11.4 L5.95 11.2 6.1 11.15 6.0 11.4" fill="#8d8c47" fill-rule="evenodd" stroke="none"/>
      <path d="M3.5 -25.1 L3.6 -25.25 Q9.75 -23.05 9.5 -15.95 L9.5 -15.2 8.9 -7.7 8.65 -5.7 9.05 5.5 6.75 5.5 5.3 5.55 5.15 4.05 4.25 -2.6 3.0 -1.45 1.6 -0.15 2.75 -4.5 6.05 -7.5 8.45 -11.5 8.2 -14.15 8.05 -15.25 Q7.0 -20.8 3.5 -25.1" fill="#77ddb4" fill-rule="evenodd" stroke="none"/>
      <path d="M3.5 -25.1 Q7.0 -20.8 8.05 -15.25 L8.2 -14.15 8.45 -11.5 6.05 -7.5 Q7.3 -11.4 6.6 -15.25 6.2 -17.25 5.2 -19.25 3.55 -22.8 1.35 -23.85 -1.0 -25.05 -3.9 -23.25 -9.4 -19.85 -8.4 -13.45 L-8.15 -11.65 -6.1 5.65 -8.1 5.65 -8.05 0.5 -8.0 -1.8 Q-8.0 -6.7 -9.25 -11.55 L-9.35 -11.9 Q-10.7 -18.55 -6.45 -23.05 -3.0 -26.55 1.35 -25.85 L2.55 -25.6 3.2 -25.35 3.5 -25.1 M2.75 -4.5 L1.6 -0.15 0.25 1.55 Q1.0 -3.5 2.25 -8.65 L2.6 -10.25 Q2.3 -8.25 2.4 -6.55 2.5 -5.55 2.75 -4.5 M3.0 -1.45 L4.25 -2.6 5.15 4.05 5.3 5.55 3.35 5.55 3.25 5.3 3.2 5.55 1.8 5.6 1.9 5.25 1.55 4.1 3.0 -1.45" fill="#33cc99" fill-rule="evenodd" stroke="none"/>
      <path d="M6.05 -7.5 L2.75 -4.5 Q2.5 -5.55 2.4 -6.55 2.3 -8.25 2.6 -10.25 L2.25 -8.65 Q1.0 -3.5 0.25 1.55 L1.6 -0.15 3.0 -1.45 1.55 4.1 1.9 5.25 1.8 5.6 -6.1 5.65 -8.15 -11.65 -8.4 -13.45 Q-9.4 -19.85 -3.9 -23.25 -1.0 -25.05 1.35 -23.85 3.55 -22.8 5.2 -19.25 6.2 -17.25 6.6 -15.25 7.3 -11.4 6.05 -7.5" fill="#2baa77" fill-rule="evenodd" stroke="none"/>
      <path d="M5.3 5.55 L6.75 5.5 6.9 9.45 -5.45 9.2 -3.1 17.5 -2.7 19.5 -2.2 23.05 -3.6 19.6 -4.0 18.5 -5.3 14.25 -5.55 14.7 -6.1 5.65 1.8 5.6 3.2 5.55 3.35 5.55 5.3 5.55 M7.15 17.3 L6.4 21.5 Q6.05 22.8 5.3 23.7 4.5 24.8 3.4 25.55 L2.15 26.2 2.95 22.05 3.3 20.4 1.95 16.6 1.75 15.95 1.35 14.1 2.75 15.85 2.8 15.9 4.15 17.35 7.15 17.3" fill="#e2b181" fill-rule="evenodd" stroke="none"/>
      <path d="M3.2 5.55 L3.25 5.3 3.35 5.55 3.2 5.55 M6.0 11.4 L6.1 11.15 5.95 11.2 6.0 11.4 M6.9 9.45 L7.2 16.2 7.15 17.3 4.15 17.35 2.8 15.9 2.75 15.85 1.35 14.1 1.75 15.95 1.95 16.6 3.3 20.4 2.95 22.05 2.15 26.2 Q1.0 26.4 -0.1 26.2 -1.8 26.4 -3.25 24.55 -4.7 22.65 -5.05 19.8 L-5.15 18.65 -5.55 14.7 -5.3 14.25 -4.0 18.5 -3.6 19.6 -2.2 23.05 -2.7 19.5 -3.1 17.5 -5.45 9.2 6.9 9.45" fill="#ffcc99" fill-rule="evenodd" stroke="none"/>
    </g>
    <g id="sprite1" transform="matrix(1.0, 0.0, 0.0, 1.0, 50.0, 50.0)">
      <use ffdec:characterId="1080" height="100.0" transform="matrix(1.0, 0.0, 0.0, 1.0, -50.0, -50.0)" width="100.0" xlink:href="#shape1"/>
    </g>
    <g id="shape1" transform="matrix(1.0, 0.0, 0.0, 1.0, 50.0, 50.0)">
      <path d="M50.0 50.0 L-50.0 50.0 -50.0 -50.0 50.0 -50.0 50.0 50.0 Z" fill="none" stroke="#9900ff" stroke-linecap="round" stroke-linejoin="round" stroke-width="0.05"/>
    </g>
    <g id="sprite2" transform="matrix(1.0, 0.0, 0.0, 1.0, 9.05, 4.95)">
      <use ffdec:characterId="2304" ffdec:characterName="game_fla.lowerarm2_335" height="66.15" id="lowerArm2" transform="matrix(1.0, 0.0, 0.0, 1.0, -9.05, -4.95)" width="16.9" xlink:href="#sprite3"/>
    </g>
    <g id="sprite3" transform="matrix(1.0, 0.0, 0.0, 1.0, 8.75, 30.75)">
      <use ffdec:characterId="2302" height="46.25" transform="matrix(1.0, 0.0, 0.0, 1.0, -7.35, -29.7)" width="14.55" xlink:href="#shape2"/>
      <use ffdec:characterId="1464" ffdec:characterName="game_fla.hand2_336" height="21.85" id="hand" transform="matrix(1.0, 0.0, 0.0, 1.0, -7.7, 13.55)" width="15.6" xlink:href="#sprite4"/>
      <use ffdec:characterId="1081" height="100.0" id="shape" transform="matrix(0.15, 0.0, 0.0, 0.6, -7.4997, -29.9995)" width="100.0" xlink:href="#sprite1"/>
    </g>
    <g id="shape2" transform="matrix(1.0, 0.0, 0.0, 1.0, 7.35, 29.7)">
      <path d="M6.5 -25.45 Q5.35 -23.1 4.45 -20.6 L3.7 -18.05 2.25 -20.95 0.75 -22.45 -1.6 -24.15 -0.15 -24.85 1.3 -26.5 Q1.7 -27.2 1.75 -28.25 3.7 -26.9 5.75 -26.05 L6.2 -25.85 6.5 -25.45" fill="#e2b181" fill-rule="evenodd" stroke="none"/>
      <path d="M1.75 -28.25 Q1.7 -27.2 1.3 -26.5 L-0.15 -24.85 -1.6 -24.15 0.75 -22.45 2.25 -20.95 3.7 -18.05 4.45 -20.6 Q5.35 -23.1 6.5 -25.45 7.2 -23.9 7.2 -21.55 L6.9 -16.55 5.3 2.4 5.3 4.4 6.15 12.35 6.55 14.1 Q4.35 16.8 3.5 16.5 1.25 12.4 0.65 10.15 L0.6 10.05 Q0.2 8.0 -0.05 5.8 -0.6 1.0 -0.3 -3.75 -0.55 -5.0 -2.1 -6.2 L-2.25 -6.3 -3.1 -7.65 -5.1 -12.1 -5.75 -14.4 -6.1 -16.0 -5.95 -14.1 -5.75 -12.3 -4.15 -3.0 Q-3.35 0.2 -3.0 4.0 L-2.55 16.05 -3.45 14.1 -3.5 10.25 -3.5 10.2 -4.2 3.65 Q-4.35 0.15 -5.45 -3.4 L-6.4 -6.7 -6.75 -10.05 -7.05 -12.75 -7.2 -15.4 -7.3 -18.1 -7.35 -21.05 -7.15 -24.85 -6.95 -26.95 -6.35 -28.95 -6.05 -29.7 1.75 -28.25" fill="#ffcc99" fill-rule="evenodd" stroke="none"/>
      <path d="M-2.55 16.05 L-3.0 4.0 Q-3.35 0.2 -4.15 -3.0 L-5.75 -12.3 -5.95 -14.1 -6.1 -16.0 -5.75 -14.4 -5.1 -12.1 -3.1 -7.65 -2.25 -6.3 -2.1 -6.2 Q-0.55 -5.0 -0.3 -3.75 -0.6 1.0 -0.05 5.8 0.2 8.0 0.6 10.05 L0.65 10.15 Q1.25 12.4 3.5 16.5 L-2.55 16.05" fill="#ebbb98" fill-rule="evenodd" stroke="none"/>
    </g>
    <g id="sprite4" transform="matrix(1.0, 0.0, 0.0, 1.0, 8.8, 7.45)">
      <use ffdec:characterId="1462" height="14.95" transform="matrix(1.0, 0.0, 0.0, 1.0, -6.75, -7.45)" width="13.55" xlink:href="#shape3"/>
    </g>
    <g id="shape3" transform="matrix(1.0, 0.0, 0.0, 1.0, 6.75, 7.45)">
      <path d="M0.85 -7.45 L5.35 -7.45 5.65 -6.2 6.25 -3.75 6.4 -3.35 6.45 -3.15 6.45 -3.0 4.9 2.05 4.0 4.55 -1.6 2.8 -2.45 2.45 Q-1.4 4.45 0.9 4.55 L0.25 4.85 -6.65 3.6 -6.75 3.1 -6.45 0.85 -6.3 0.05 -5.55 -0.6 -0.3 -1.0 -0.25 -1.0 -0.25 -1.05 -0.75 -3.5 0.55 -4.75 Q1.1 -5.35 2.85 -5.15 L2.15 -6.45 1.7 -6.55 1.35 -6.6 0.85 -7.45 M-3.75 -7.45 L-3.75 -6.75 -4.15 -4.95 -4.65 -4.85 -4.65 -6.05 -4.6 -6.6 -4.55 -6.7 -4.5 -7.45 -3.75 -7.45 M-5.1 -2.4 L-5.1 -2.2 -5.15 -2.3 -5.1 -2.4" fill="#ffcc99" fill-rule="evenodd" stroke="none"/>
      <path d="M0.85 -7.45 L1.35 -6.6 1.7 -6.55 2.15 -6.45 2.85 -5.15 Q1.1 -5.35 0.55 -4.75 L-0.75 -3.5 -0.25 -1.05 -0.3 -1.0 -5.55 -0.6 -5.1 -2.2 -5.1 -2.4 -4.65 -4.85 -4.15 -4.95 -3.75 -6.75 -3.75 -7.45 0.85 -7.45" fill="#ebbb98" fill-rule="evenodd" stroke="none"/>
      <path d="M-6.65 3.6 L0.25 4.85 0.9 4.55 Q-1.4 4.45 -2.45 2.45 L-1.6 2.8 4.0 4.55 4.9 2.05 6.45 -3.0 6.8 -0.1 Q6.9 2.8 6.0 5.6 L5.6 5.95 5.35 6.5 Q2.85 8.15 0.3 7.05 L-1.5 7.2 Q-4.45 7.25 -6.25 5.15 L-6.65 4.65 -6.7 3.6 -6.65 3.6" fill="#e2b181" fill-rule="evenodd" stroke="none"/>
    </g>
  </defs>
</svg>
