<?xml version="1.0" encoding="UTF-8" standalone="no"?>
<svg xmlns:ffdec="https://www.free-decompiler.com/flash" xmlns:xlink="http://www.w3.org/1999/xlink" ffdec:objectType="frame" height="61.95px" width="43.4px" xmlns="http://www.w3.org/2000/svg">
  <g transform="matrix(1.0, 0.0, 0.0, 1.0, 26.0, 38.55)">
    <use ffdec:characterId="1221" height="13.65" transform="matrix(1.0, 0.0, 0.0, 1.0, -10.0, 1.35)" width="11.55" xlink:href="#shape0"/>
    <use ffdec:characterId="2234" height="27.55" transform="matrix(1.0, 0.0, 0.0, 1.0, -13.55, -13.25)" width="25.6" xlink:href="#sprite0"/>
    <use ffdec:characterId="2235" height="20.15" transform="matrix(1.0, 0.0, 0.0, 1.0, -11.65, -5.6)" width="17.75" xlink:href="#shape2"/>
  </g>
  <defs>
    <g id="shape0" transform="matrix(1.0, 0.0, 0.0, 1.0, 10.0, -1.35)">
      <path d="M-1.15 14.15 L-1.15 14.0 -1.3 13.65 -1.65 13.0 -1.85 12.75 -3.25 12.55 Q-5.4 9.15 -9.45 8.65 L-9.65 9.35 -9.8 9.45 -9.35 8.2 Q-7.85 4.75 -5.95 1.35 0.9 1.8 1.5 8.05 1.8 11.85 -1.15 14.15" fill="#c79b68" fill-rule="evenodd" stroke="none"/>
      <path d="M-9.8 9.45 L-9.65 9.35 -9.45 8.65 Q-5.4 9.15 -3.25 12.55 L-1.85 12.75 -1.65 13.0 -1.3 13.65 -1.15 14.0 -1.15 14.15 -1.2 14.55 -3.3 14.6 -4.55 13.4 -5.05 13.05 -4.5 12.8 -4.2 12.45 Q-4.2 11.55 -5.25 11.35 -6.15 11.25 -6.3 11.85 L-6.35 12.15 -6.0 12.6 -7.45 11.9 -9.5 11.45 -9.5 11.3 Q-10.05 11.15 -10.0 10.0 L-10.0 9.95 -9.8 9.45" fill="#990000" fill-rule="evenodd" stroke="none"/>
      <path d="M-6.0 12.6 L-6.35 12.15 -6.3 11.85 Q-6.15 11.25 -5.25 11.35 -4.2 11.55 -4.2 12.45 L-4.5 12.8 -5.05 13.05 -5.3 13.15 -6.0 12.6" fill="#650101" fill-rule="evenodd" stroke="none"/>
    </g>
    <g id="sprite0" transform="matrix(1.0, 0.0, 0.0, 1.0, 12.8, 13.8)">
      <use ffdec:characterId="2233" height="27.55" transform="matrix(1.0, 0.0, 0.0, 1.0, -12.8, -13.8)" width="25.6" xlink:href="#shape1"/>
    </g>
    <g id="shape1" transform="matrix(1.0, 0.0, 0.0, 1.0, 12.8, 13.8)">
      <path d="M-6.7 7.65 L-6.05 7.45 -5.45 6.65 -5.0 5.5 Q-5.0 4.85 -5.7 4.35 L-6.85 2.7 Q-7.3 1.55 -6.8 -0.05 -6.35 -1.65 -5.45 -1.65 -3.85 -1.65 -3.15 0.85 L-2.45 3.3 -2.05 3.15 Q0.15 1.55 0.35 -1.0 L0.3 -1.6 1.3 -3.0 1.45 -4.9 3.95 -5.55 Q4.9 -5.9 6.25 -6.6 8.7 -7.85 9.45 -7.85 L10.2 -7.85 11.2 -8.15 11.9 -6.6 Q12.4 -5.0 12.4 -3.05 L12.05 -0.2 Q11.35 0.2 11.35 1.4 L11.6 2.2 11.95 2.7 11.95 2.75 Q12.8 3.4 12.8 4.65 12.75 5.8 11.65 5.8 L11.55 5.8 11.9 5.55 10.05 5.2 9.7 6.05 10.05 6.9 10.45 6.55 10.4 7.05 10.5 7.45 10.65 7.7 10.55 7.95 10.6 8.05 Q10.15 7.8 10.15 8.7 L10.2 9.45 9.35 10.3 9.35 10.8 9.35 11.05 9.3 11.5 Q9.1 13.75 6.8 13.7 L5.75 13.75 4.35 13.65 4.3 13.65 Q-0.05 12.65 -2.9 11.05 L-3.35 10.8 -4.55 10.05 -4.7 9.95 -5.45 9.1 -6.7 7.65 M10.7 -0.65 L11.25 -1.0 Q11.35 -1.0 11.45 -1.1 11.1 -1.95 9.95 -1.5 L8.8 -1.1 7.5 -0.8 6.05 -0.15 Q5.85 -0.15 5.7 0.05 L5.75 0.1 5.5 0.4 Q6.2 2.4 8.55 2.4 9.95 1.9 11.05 0.75 L11.35 0.45 Q11.6 -0.25 11.1 -0.7 L10.7 -0.65 M8.85 8.35 Q8.15 8.55 7.9 8.8 L8.2 8.9 9.5 8.6 Q10.1 8.6 10.1 8.3 L10.0 8.1 9.8 8.05 9.0 8.25 9.05 8.3 8.85 8.35 M-4.95 1.3 L-5.5 1.55 -5.65 1.95 -5.3 2.45 -4.25 1.9 -4.4 0.25 -6.25 0.2 -6.05 1.05 -5.6 0.35 -4.9 0.65 -4.85 1.0 -4.95 1.3 M-5.05 2.5 Q-5.35 3.3 -4.65 3.5 L-4.35 3.3 -4.6 2.8 -5.05 2.5" fill="#ffcc99" fill-rule="evenodd" stroke="none"/>
      <path d="M11.55 5.8 L10.9 5.95 10.45 6.55 10.05 6.9 9.7 6.05 10.05 5.2 11.9 5.55 11.55 5.8 M5.75 0.1 L10.7 -0.65 11.1 -0.7 Q11.6 -0.25 11.35 0.45 L11.05 0.75 Q9.95 1.9 8.55 2.4 6.2 2.4 5.5 0.4 L5.75 0.1 M8.1 1.45 Q8.15 1.95 8.75 1.6 8.85 0.4 10.1 0.35 L8.7 0.3 8.0 0.7 Q7.75 1.05 8.1 1.45 M-5.05 2.5 L-4.6 2.8 -4.35 3.3 -4.65 3.5 Q-5.35 3.3 -5.05 2.5 M-4.95 1.3 L-4.85 1.0 -4.9 0.65 -5.6 0.35 -6.05 1.05 -6.25 0.2 -4.4 0.25 -4.25 1.9 -5.3 2.45 -5.65 1.95 -5.5 1.55 -4.95 1.3" fill="#c79b68" fill-rule="evenodd" stroke="none"/>
      <path d="M8.85 8.35 L9.05 8.3 9.0 8.25 9.8 8.05 10.0 8.1 10.1 8.3 Q10.1 8.6 9.5 8.6 L8.2 8.9 7.9 8.8 Q8.15 8.55 8.85 8.35" fill="#ebbb98" fill-rule="evenodd" stroke="none"/>
      <path d="M8.1 1.45 Q7.75 1.05 8.0 0.7 L8.7 0.3 10.1 0.35 Q8.85 0.4 8.75 1.6 8.15 1.95 8.1 1.45" fill="#000000" fill-rule="evenodd" stroke="none"/>
      <path d="M-6.7 7.65 L-7.45 6.85 -8.05 6.15 -8.3 5.9 Q-11.45 3.4 -12.3 1.35 -12.8 0.15 -12.8 -2.7 -12.8 -7.8 -8.85 -10.9 -5.3 -13.7 -0.2 -13.8 4.9 -13.9 8.45 -11.2 L10.2 -9.55 Q10.6 -9.55 10.9 -9.15 L11.2 -8.15 10.2 -7.85 9.45 -7.85 Q8.7 -7.85 6.25 -6.6 4.9 -5.9 3.95 -5.55 L1.45 -4.9 1.3 -3.0 0.3 -1.6 0.35 -1.0 Q0.15 1.55 -2.05 3.15 L-2.45 3.3 -3.15 0.85 Q-3.85 -1.65 -5.45 -1.65 -6.35 -1.65 -6.8 -0.05 -7.3 1.55 -6.85 2.7 L-5.7 4.35 Q-5.0 4.85 -5.0 5.5 L-5.45 6.65 -6.05 7.45 -6.7 7.65 M5.75 0.1 L5.7 0.05 Q5.85 -0.15 6.05 -0.15 L7.5 -0.8 8.8 -1.1 9.95 -1.5 Q11.1 -1.95 11.45 -1.1 11.35 -1.0 11.25 -1.0 L10.7 -0.65 5.75 0.1" fill="#996633" fill-rule="evenodd" stroke="none"/>
    </g>
    <g id="shape2" transform="matrix(1.0, 0.0, 0.0, 1.0, 11.65, 5.6)">
      <path d="M-5.65 -4.65 L-2.7 -3.0 -1.8 -3.45 -1.9 -1.95 -2.15 -1.55 -3.1 -1.3 -5.65 -4.2 -5.65 -4.65 M-3.1 4.9 Q-1.4 6.0 -4.3 7.45 L-5.2 7.75 -5.85 6.5 -5.55 5.6 -5.5 6.6 -3.0 6.25 -3.1 4.9 M-11.4 1.75 L-9.35 3.45 -9.4 4.85 -8.95 5.2 -7.55 5.0 -7.75 7.0 Q-9.85 5.95 -11.05 4.1 L-11.65 3.15 -11.4 1.75 M-2.85 8.95 L-2.55 7.2 -2.6 7.65 -2.2 8.35 -1.0 8.65 -0.25 8.2 0.2 8.6 0.85 8.5 1.5 9.05 2.8 8.65 3.25 8.0 3.35 9.05 2.95 9.75 0.25 9.65 -1.7 11.0 -2.35 10.9 -2.85 10.4 -0.65 9.65 -1.1 9.0 -2.85 8.95 M4.4 4.4 L4.4 5.15 3.3 6.7 2.3 6.65 4.4 4.4 M5.9 12.2 Q6.3 12.15 5.95 13.35 L4.1 14.35 2.0 13.5 5.9 12.2" fill="#990000" fill-rule="evenodd" stroke="none"/>
      <path d="M-5.65 -4.65 L-5.4 -5.3 -4.6 -5.55 Q-2.15 -5.95 -1.8 -3.45 L-2.7 -3.0 -5.65 -4.65 M-5.55 5.6 L-5.6 5.35 -5.2 4.65 -3.45 4.5 -3.1 4.9 -3.0 6.25 -5.5 6.6 -5.55 5.6 M-11.4 1.75 L-10.95 1.0 -9.65 1.15 -9.2 1.75 -8.65 2.8 -7.15 4.35 -7.55 5.0 -8.95 5.2 -9.4 4.85 -9.35 3.45 -11.4 1.75 M2.0 13.5 L1.5 13.7 Q-2.5 12.6 -6.0 10.15 L-6.95 10.45 -7.35 10.1 -7.0 8.5 -4.9 8.2 -3.6 9.6 -3.35 9.2 -2.85 8.95 -1.1 9.0 -0.65 9.65 -2.85 10.4 -2.35 10.9 -1.7 11.0 2.45 11.75 Q4.05 10.7 6.0 11.35 L5.9 12.2 2.0 13.5 M-2.55 7.2 Q-1.35 5.95 0.4 6.25 L1.25 7.3 2.45 5.35 Q3.45 3.8 4.4 3.7 L4.4 4.4 2.3 6.65 3.3 6.7 3.25 8.0 2.8 8.65 1.5 9.05 0.85 8.5 0.2 8.6 -0.25 8.2 -1.0 8.65 -2.2 8.35 -2.6 7.65 -2.55 7.2 M-3.1 13.9 L-3.9 14.5 -4.75 14.55 -5.2 13.65 -5.05 12.8 -4.6 12.7 -3.35 12.55 -3.1 13.9" fill="#ff0000" fill-rule="evenodd" stroke="none"/>
    </g>
  </defs>
</svg>
