<?xml version="1.0" encoding="UTF-8" standalone="no"?>
<svg xmlns:ffdec="https://www.free-decompiler.com/flash" xmlns:xlink="http://www.w3.org/1999/xlink" ffdec:objectType="frame" height="64.55px" width="21.65px" xmlns="http://www.w3.org/2000/svg">
  <g transform="matrix(1.0, 0.0, 0.0, 1.0, 11.9, 4.75)">
    <use ffdec:characterId="2127" ffdec:characterName="game_fla.lowerarm2_419" height="64.55" id="lowerArm2" transform="matrix(1.0, 0.0, 0.0, 1.0, -11.9, -4.75)" width="21.65" xlink:href="#sprite0"/>
  </g>
  <defs>
    <g id="sprite0" transform="matrix(1.0, 0.0, 0.0, 1.0, 10.65, 30.3)">
      <use ffdec:characterId="2122" height="44.55" transform="matrix(1.0, 0.0, 0.0, 1.0, -10.65, -30.3)" width="21.3" xlink:href="#shape0"/>
      <use ffdec:characterId="2125" ffdec:characterName="game_fla.fwhand2_420" height="20.0" id="hand" transform="matrix(1.0, 0.0, 0.0, 1.0, -7.55, 14.25)" width="16.2" xlink:href="#sprite1"/>
      <use ffdec:characterId="1081" height="100.0" id="shape" transform="matrix(0.18, 0.0, 0.0, 0.56, -8.9989, -28.0006)" width="100.0" xlink:href="#sprite2"/>
    </g>
    <g id="shape0" transform="matrix(1.0, 0.0, 0.0, 1.0, 10.65, 30.3)">
      <path d="M-4.15 14.25 L-5.1 14.25 -5.15 14.0 -6.15 8.55 -6.45 7.45 -6.95 5.5 -8.05 1.3 -8.2 0.65 -9.75 -7.45 -10.55 -14.2 Q-10.95 -17.35 -9.25 -22.15 L-9.0 -22.5 -9.35 -23.85 -9.5 -24.55 Q-9.75 -26.0 -8.8 -27.25 L-7.4 -28.75 -6.9 -29.1 Q-3.25 -31.2 0.35 -29.7 2.85 -28.7 4.75 -27.0 L7.5 -24.65 Q8.3 -24.1 9.05 -22.4 10.8 -20.2 10.65 -16.1 10.55 -12.9 9.45 -9.75 L6.6 -1.05 6.05 0.65 Q5.6 2.2 5.65 3.25 L5.65 5.5 5.6 5.7 5.75 8.1 6.6 14.0 6.65 14.25 0.15 14.25 0.0 14.0 -0.05 13.95 Q-0.95 12.65 -2.15 8.7 L-3.1 5.5 -4.6 0.4 -7.35 -9.6 -7.85 -11.75 Q-7.5 -6.6 -6.5 -1.3 L-5.2 5.5 -4.85 7.3 -3.95 12.25 Q-3.75 13.65 -4.0 14.0 L-4.1 14.1 -4.15 14.25" fill="#ffcc99" fill-rule="evenodd" stroke="none"/>
      <path d="M0.15 14.25 L-4.15 14.25 -4.1 14.1 -4.0 14.0 Q-3.75 13.65 -3.95 12.25 L-4.85 7.3 -5.2 5.5 -6.5 -1.3 Q-7.5 -6.6 -7.85 -11.75 L-7.35 -9.6 -4.6 0.4 -3.1 5.5 -2.15 8.7 Q-0.95 12.65 -0.05 13.95 L0.0 14.0 0.15 14.25" fill="#ebbb98" fill-rule="evenodd" stroke="none"/>
    </g>
    <g id="sprite1" transform="matrix(1.0, 0.0, 0.0, 1.0, 8.4, 8.0)">
      <use ffdec:characterId="2123" height="16.05" transform="matrix(1.0, 0.0, 0.0, 1.0, -7.25, -8.0)" width="14.45" xlink:href="#shape1"/>
    </g>
    <g id="shape1" transform="matrix(1.0, 0.0, 0.0, 1.0, 7.25, 8.0)">
      <path d="M-0.7 -8.0 L5.8 -8.0 6.15 -5.4 6.55 -3.9 Q7.45 -1.1 7.15 0.35 L7.05 0.9 Q6.8 3.25 6.35 4.4 L5.7 5.4 5.0 6.0 4.75 6.15 3.25 6.9 Q2.3 7.1 1.5 7.7 0.65 8.2 -0.2 7.95 L-0.4 7.9 Q-1.2 7.7 -1.5 6.95 L-0.6 7.25 -0.4 7.25 -0.15 7.1 -0.1 7.1 -0.4 6.95 Q-0.85 6.55 -0.85 5.3 L-0.4 4.75 -0.3 4.7 0.2 4.5 0.35 4.45 1.0 5.15 1.1 5.4 1.45 6.25 1.55 6.2 2.15 5.7 2.55 5.25 2.95 4.85 3.95 3.95 3.55 3.15 Q3.15 2.55 3.3 0.85 L2.35 0.35 1.25 1.5 0.5 2.5 0.05 3.5 -0.2 3.95 -0.4 4.2 -0.9 4.4 -1.5 4.35 -2.05 4.15 -3.1 3.45 Q-3.95 2.9 -4.05 2.15 -4.15 1.4 -2.8 1.95 L-2.5 1.95 -2.65 1.2 Q-2.35 1.15 -2.35 0.1 -2.35 -1.4 -1.9 -2.35 L-1.3 -3.3 -1.25 -3.9 -1.5 -4.65 Q-1.75 -5.15 -2.95 -5.55 L-3.5 -5.7 -3.45 -5.95 -3.7 -6.8 -3.95 -7.45 -3.8 -7.7 -1.95 -7.25 -0.35 -7.0 Q-0.05 -7.0 -0.7 -8.0 M-6.45 -0.95 L-6.4 -1.25 Q-6.35 -1.95 -6.45 -2.65 L-6.5 -3.65 Q-6.75 -5.6 -5.95 -7.2 L-5.95 -8.0 -5.0 -8.0 -5.05 -7.1 -4.85 -5.45 -5.2 -5.2 Q-5.6 -4.9 -5.5 -3.8 -5.7 -2.05 -6.2 -1.35 L-6.35 -1.1 -6.45 -0.95 M-2.1 5.85 L-2.05 5.85 -2.15 5.95 -2.1 5.85" fill="#ffcc99" fill-rule="evenodd" stroke="none"/>
      <path d="M-1.5 6.95 L-2.55 6.75 -3.15 6.5 -3.3 6.4 -3.85 5.65 Q-4.4 4.6 -4.7 4.6 L-5.2 4.4 Q-6.45 3.75 -5.75 2.25 -7.6 1.65 -7.15 0.0 L-6.6 -0.7 -6.45 -0.95 -6.35 -1.1 -6.2 -1.35 Q-5.7 -2.05 -5.5 -3.8 -5.6 -4.9 -5.2 -5.2 L-4.85 -5.45 -5.05 -7.1 -5.0 -8.0 -0.7 -8.0 Q-0.05 -7.0 -0.35 -7.0 L-1.95 -7.25 -3.8 -7.7 -3.95 -7.45 -3.7 -6.8 -3.45 -5.95 -3.5 -5.7 -2.95 -5.55 Q-1.75 -5.15 -1.5 -4.65 L-1.25 -3.9 -1.3 -3.3 -1.9 -2.35 Q-2.35 -1.4 -2.35 0.1 -2.35 1.15 -2.65 1.2 L-2.5 1.95 -2.8 1.95 Q-4.15 1.4 -4.05 2.15 -3.95 2.9 -3.1 3.45 L-2.05 4.15 -2.4 4.9 -2.1 5.85 -2.15 5.95 -2.05 5.85 -1.4 5.65 -1.2 5.05 -1.5 4.35 -0.9 4.4 -0.4 4.2 -0.2 3.95 0.05 3.5 0.5 2.5 0.9 2.85 2.15 2.65 1.9 1.85 1.5 1.55 1.25 1.5 2.35 0.35 3.3 0.85 Q3.15 2.55 3.55 3.15 L3.95 3.95 2.95 4.85 2.55 5.25 2.15 5.7 1.55 6.2 1.45 6.25 1.1 5.4 1.0 5.15 0.35 4.45 0.2 4.5 -0.3 4.7 -0.4 4.75 -0.85 5.3 Q-0.85 6.55 -0.4 6.95 L-0.1 7.1 -0.15 7.1 -0.4 7.25 -0.6 7.25 -1.5 6.95 M-4.7 4.6 L-4.9 2.9 -4.1 1.35 -3.15 1.0 -2.65 -0.85 Q-2.4 -2.55 -2.9 -3.9 L-5.4 -1.1 -4.4 0.6 -4.85 1.6 -5.0 2.0 Q-5.4 3.35 -4.7 4.6 M-2.7 4.6 L-3.0 3.75 Q-3.55 4.1 -3.5 5.25 L-3.45 5.95 Q-2.9 5.35 -2.7 4.6" fill="#ebbb98" fill-rule="evenodd" stroke="none"/>
      <path d="M-2.05 4.15 L-1.5 4.35 -1.2 5.05 -1.4 5.65 -2.05 5.85 -2.1 5.85 -2.4 4.9 -2.05 4.15 M0.5 2.5 L1.25 1.5 1.5 1.55 1.9 1.85 2.15 2.65 0.9 2.85 0.5 2.5 M-4.7 4.6 Q-5.4 3.35 -5.0 2.0 L-4.85 1.6 -4.4 0.6 -5.4 -1.1 -2.9 -3.9 Q-2.4 -2.55 -2.65 -0.85 L-3.15 1.0 -4.1 1.35 -4.9 2.9 -4.7 4.6 M-2.7 4.6 Q-2.9 5.35 -3.45 5.95 L-3.5 5.25 Q-3.55 4.1 -3.0 3.75 L-2.7 4.6" fill="#e2b181" fill-rule="evenodd" stroke="none"/>
    </g>
    <g id="sprite2" transform="matrix(1.0, 0.0, 0.0, 1.0, 50.0, 50.0)">
      <use ffdec:characterId="1080" height="100.0" transform="matrix(1.0, 0.0, 0.0, 1.0, -50.0, -50.0)" width="100.0" xlink:href="#shape2"/>
    </g>
    <g id="shape2" transform="matrix(1.0, 0.0, 0.0, 1.0, 50.0, 50.0)">
      <path d="M50.0 50.0 L-50.0 50.0 -50.0 -50.0 50.0 -50.0 50.0 50.0 Z" fill="none" stroke="#9900ff" stroke-linecap="round" stroke-linejoin="round" stroke-width="0.05"/>
    </g>
  </defs>
</svg>
