<?xml version="1.0" encoding="UTF-8" standalone="no"?>
<svg xmlns:ffdec="https://www.free-decompiler.com/flash" xmlns:xlink="http://www.w3.org/1999/xlink" ffdec:objectType="frame" height="71.0px" width="44.8px" xmlns="http://www.w3.org/2000/svg">
  <g transform="matrix(1.0, 0.0, 0.0, 1.0, 22.4, 35.5)">
    <use ffdec:characterId="855" height="19.5" id="s0" transform="matrix(0.359, 0.0, 0.0, 3.641, -22.3999, -35.5)" width="19.5" xlink:href="#sprite0"/>
    <use ffdec:characterId="855" height="19.5" id="s2" transform="matrix(0.359, 0.0, 0.0, 3.641, 15.4001, -35.5)" width="19.5" xlink:href="#sprite0"/>
    <use ffdec:characterId="855" height="19.5" id="s1" transform="matrix(1.5794, 0.0, 0.0, 0.3577, -15.3995, 28.5123)" width="19.5" xlink:href="#sprite0"/>
    <use ffdec:characterId="552" height="10.0" id="c0" transform="matrix(1.2584, 0.0, 0.0, 1.2584, -14.592, 15.458)" width="10.0" xlink:href="#sprite1"/>
    <use ffdec:characterId="552" height="10.0" id="c1" transform="matrix(0.9375, 0.0, 0.0, 0.9375, -12.6375, 5.2125)" width="10.0" xlink:href="#sprite1"/>
    <use ffdec:characterId="855" height="19.5" id="r0" transform="matrix(0.348, 0.0, 0.0, 1.1127, -0.1428, 6.0015)" width="19.5" xlink:href="#sprite0"/>
    <use ffdec:characterId="855" height="19.5" id="r1" transform="matrix(0.2706, 0.0, 0.0, 1.1952, 8.1621, 4.3469)" width="19.5" xlink:href="#sprite0"/>
    <use ffdec:characterId="855" height="19.5" id="r3" transform="matrix(0.2706, 0.0, 0.0, 0.475, 5.2621, -6.6813)" width="19.5" xlink:href="#sprite0"/>
    <use ffdec:characterId="855" height="19.5" id="r2" transform="matrix(0.9274, 0.0, 0.0, 0.3687, -3.3421, -17.4445)" width="19.5" xlink:href="#sprite0"/>
    <use ffdec:characterId="855" height="19.5" id="r4" transform="matrix(0.8681, 0.0, 0.0, 0.6824, -13.414, -9.053)" width="19.5" xlink:href="#sprite0"/>
    <use ffdec:characterId="552" height="10.0" id="c2" transform="matrix(0.9375, 0.0, 0.0, 0.9375, -14.4375, -20.9375)" width="10.0" xlink:href="#sprite1"/>
    <use ffdec:characterId="855" height="19.5" id="r5" transform="matrix(0.6472, 0.0, 0.0, 0.4899, 0.8401, -29.6265)" width="19.5" xlink:href="#sprite0"/>
    <use ffdec:characterId="855" height="19.5" id="block" transform="matrix(2.2974, 0.0, 0.0, 3.641, -22.3993, -35.5)" width="19.5" xlink:href="#sprite0"/>
  </g>
  <defs>
    <g id="sprite0" transform="matrix(1.0, 0.0, 0.0, 1.0, 9.75, 9.75)">
      <use ffdec:characterId="854" height="19.5" transform="matrix(1.0, 0.0, 0.0, 1.0, -9.75, -9.75)" width="19.5" xlink:href="#shape0"/>
    </g>
    <g id="shape0" transform="matrix(1.0, 0.0, 0.0, 1.0, 9.75, 9.75)">
      <path d="M9.75 -9.75 L9.75 9.75 -9.75 9.75 -9.75 -9.75 9.75 -9.75" fill="#00ff33" fill-rule="evenodd" stroke="none"/>
    </g>
    <g id="sprite1" transform="matrix(1.0, 0.0, 0.0, 1.0, 5.0, 5.0)">
      <use ffdec:characterId="551" height="10.0" transform="matrix(1.0, 0.0, 0.0, 1.0, -5.0, -5.0)" width="10.0" xlink:href="#shape1"/>
    </g>
    <g id="shape1" transform="matrix(1.0, 0.0, 0.0, 1.0, 5.0, 5.0)">
      <path d="M3.55 -3.5 Q5.0 -2.05 5.0 0.0 5.0 2.05 3.55 3.55 2.05 5.0 0.0 5.0 -2.05 5.0 -3.55 3.55 -5.0 2.05 -5.0 0.0 -5.0 -2.05 -3.55 -3.5 -2.05 -5.0 0.0 -5.0 2.05 -5.0 3.55 -3.5" fill="#ff00ff" fill-rule="evenodd" stroke="none"/>
    </g>
  </defs>
</svg>
