<?xml version="1.0" encoding="UTF-8" standalone="no"?>
<svg xmlns:ffdec="https://www.free-decompiler.com/flash" xmlns:xlink="http://www.w3.org/1999/xlink" ffdec:objectType="frame" height="73.2px" width="47.45px" xmlns="http://www.w3.org/2000/svg">
  <g transform="matrix(1.0, 0.0, 0.0, 1.0, 20.0, 37.5)">
    <use ffdec:characterId="1909" height="22.25" transform="matrix(1.0, 0.0, 0.0, 1.0, -17.55, 13.45)" width="45.0" xlink:href="#shape0"/>
    <use ffdec:characterId="1911" height="57.9" transform="matrix(1.0, 0.0, 0.0, 1.0, -20.0, -37.5)" width="39.25" xlink:href="#shape1"/>
  </g>
  <defs>
    <g id="shape0" transform="matrix(1.0, 0.0, 0.0, 1.0, 17.55, -13.45)">
      <path d="M-0.45 14.5 L6.25 13.9 Q6.35 14.55 6.9 15.2 L3.2 17.6 3.1 17.65 2.85 17.75 1.7 18.65 1.4 19.3 Q0.7 15.4 -0.45 14.5" fill="#cbbfaf" fill-rule="evenodd" stroke="none"/>
      <path d="M6.9 15.2 L7.05 15.4 7.75 16.1 4.85 17.9 4.25 18.35 Q2.65 19.5 2.1 20.7 L2.0 21.0 1.05 20.45 Q1.05 19.75 1.2 19.55 L1.4 19.3 1.7 18.65 2.85 17.75 3.1 17.65 3.2 17.6 6.9 15.2 M8.65 16.9 L9.15 17.3 9.65 17.75 8.8 18.6 Q7.9 19.05 7.1 19.7 5.5 20.85 4.95 22.05 L4.9 22.2 3.6 21.75 3.75 21.45 Q4.4 20.3 6.1 19.0 L7.4 17.95 8.65 16.9 M11.0 19.0 L11.7 19.95 11.9 20.05 11.8 20.1 10.1 21.2 Q8.5 22.35 7.95 23.55 L6.55 22.9 6.6 22.8 Q7.25 21.65 8.95 20.35 L10.35 19.35 11.0 19.0 M13.35 20.85 L14.6 21.5 15.1 21.75 13.4 22.85 Q11.8 24.0 11.25 25.2 L9.8 24.45 9.6 24.35 9.6 24.3 Q10.25 23.15 11.95 21.85 12.7 21.25 13.35 20.85 M16.65 22.5 L17.5 22.9 18.85 23.5 Q17.4 23.65 14.65 26.35 L14.25 26.25 12.9 25.95 13.1 26.05 12.9 25.95 Q13.55 24.8 15.25 23.5 L16.65 22.5 M-17.55 30.4 L-17.5 28.6 -17.55 27.5 -17.55 27.2 -15.8 19.65 -15.55 17.95 Q-15.4 16.5 -14.95 15.85 -14.0 14.55 -11.55 13.95 L-7.7 14.1 Q-6.45 14.75 -6.45 20.1 -6.45 22.45 -8.1 23.0 L-12.45 23.45 Q-14.3 23.65 -15.1 25.65 -15.85 27.55 -15.5 30.8 L-17.55 30.4 M-6.5 32.1 Q-3.15 23.1 0.0 23.1 1.3 23.1 5.35 24.9 L10.05 27.15 Q9.3 28.0 9.15 29.55 L9.05 32.45 Q5.3 32.25 1.65 32.35 L-6.5 32.1" fill="#af5745" fill-rule="evenodd" stroke="none"/>
      <path d="M27.25 30.1 L27.45 30.95 27.45 32.1 Q21.5 36.0 14.2 35.7 L-0.1 35.3 -12.8 35.1 Q-17.4 35.0 -17.45 31.65 -12.2 32.85 0.35 33.15 L16.05 33.3 Q19.2 33.15 22.2 32.3 25.15 31.4 27.25 30.1" fill="#e5e5e5" fill-rule="evenodd" stroke="none"/>
      <path d="M7.75 16.1 L7.85 16.2 8.05 16.35 8.65 16.9 7.4 17.95 6.1 19.0 Q4.4 20.3 3.75 21.45 L3.6 21.75 4.9 22.2 4.95 22.05 Q5.5 20.85 7.1 19.7 7.9 19.05 8.8 18.6 L9.65 17.75 9.75 17.85 10.9 18.9 11.0 19.0 10.35 19.35 8.95 20.35 Q7.25 21.65 6.6 22.8 L6.55 22.9 7.95 23.55 Q8.5 22.35 10.1 21.2 L11.8 20.1 11.9 20.05 13.35 20.85 Q12.7 21.25 11.95 21.85 10.25 23.15 9.6 24.3 L9.6 24.35 9.8 24.45 11.25 25.2 Q11.8 24.0 13.4 22.85 L15.1 21.75 16.65 22.5 15.25 23.5 Q13.55 24.8 12.9 25.95 L13.1 26.05 12.9 25.95 14.25 26.25 13.45 27.3 Q12.45 28.45 12.45 29.15 12.45 29.75 12.75 30.0 L13.45 30.15 Q13.9 30.15 16.55 29.05 19.2 27.95 19.7 27.9 L23.35 27.3 Q25.0 26.8 25.4 26.05 L26.45 27.55 26.95 28.85 27.15 29.35 27.15 29.7 24.15 31.05 Q18.1 33.5 11.45 32.6 L9.05 32.45 9.15 29.55 Q9.3 28.0 10.05 27.15 L5.35 24.9 Q1.3 23.1 0.0 23.1 -3.15 23.1 -6.5 32.1 L-12.75 31.4 -15.5 30.8 Q-15.85 27.55 -15.1 25.65 -14.3 23.65 -12.45 23.45 L-8.1 23.0 Q-6.45 22.45 -6.45 20.1 -6.45 14.75 -7.7 14.1 L-11.55 13.95 -7.95 13.5 Q-2.65 13.3 -1.0 14.15 L-0.45 14.5 Q0.7 15.4 1.4 19.3 L1.2 19.55 Q1.05 19.75 1.05 20.45 L2.0 21.0 2.1 20.7 Q2.65 19.5 4.25 18.35 L4.85 17.9 7.75 16.1" fill="#b4b4b4" fill-rule="evenodd" stroke="none"/>
      <path d="M18.85 23.5 L20.9 24.35 23.8 25.4 Q24.2 25.35 25.05 25.8 L25.4 26.05 Q25.0 26.8 23.35 27.3 L19.7 27.9 Q19.2 27.95 16.55 29.05 13.9 30.15 13.45 30.15 L12.75 30.0 Q12.45 29.75 12.45 29.15 12.45 28.45 13.45 27.3 L14.25 26.25 14.65 26.35 Q17.4 23.65 18.85 23.5" fill="#cbcbcb" fill-rule="evenodd" stroke="none"/>
      <path d="M27.15 29.7 L27.25 30.1 Q25.15 31.4 22.2 32.3 19.2 33.15 16.05 33.3 L0.35 33.15 Q-12.2 32.85 -17.45 31.65 L-17.55 30.4 -15.5 30.8 -12.75 31.4 -6.5 32.1 1.65 32.35 Q5.3 32.25 9.05 32.45 L11.45 32.6 Q18.1 33.5 24.15 31.05 L27.15 29.7" fill="#666666" fill-rule="evenodd" stroke="none"/>
    </g>
    <g id="shape1" transform="matrix(1.0, 0.0, 0.0, 1.0, 20.0, 37.5)">
      <path d="M7.5 -31.45 L7.6 -31.4 7.65 -31.45 7.5 -31.5 7.5 -31.45 M6.25 -30.65 L6.75 -33.65 7.75 -33.55 8.95 -34.5 Q9.85 -35.5 10.35 -35.5 L10.65 -33.85 10.25 -31.05 10.0 -28.2 10.0 -28.15 10.1 -27.0 10.15 -25.75 9.95 -24.5 Q8.7 -25.2 7.55 -26.4 6.95 -27.1 6.5 -27.85 L6.1 -29.6 6.25 -30.65 M12.8 -16.45 L13.9 -20.0 Q15.4 -24.3 15.25 -26.0 L15.6 -26.0 17.0 -23.1 Q17.4 -21.9 17.4 -20.25 16.4 -14.95 15.65 -12.75 15.15 -11.25 14.8 -11.15 L12.9 -12.4 12.85 -12.5 Q12.35 -13.4 12.35 -13.9 12.35 -14.75 12.8 -16.45" fill="#ffffff" fill-rule="evenodd" stroke="none"/>
      <path d="M11.85 -25.45 L12.55 -25.2 12.5 -24.05 11.15 -23.2 10.35 -22.8 8.2 -21.95 6.8 -21.65 8.75 -23.75 Q8.05 -23.95 7.8 -24.4 L6.9 -25.6 3.45 -29.25 Q2.4 -30.4 2.7 -31.9 2.95 -32.45 3.4 -32.05 L4.95 -30.25 6.5 -27.85 Q6.95 -27.1 7.55 -26.4 8.7 -25.2 9.95 -24.5 L11.85 -25.45 M16.25 -11.45 L17.2 -9.45 Q17.45 -7.15 15.8 -5.45 L15.0 -9.4 12.6 -8.4 13.75 -10.0 12.95 -10.55 11.45 -12.25 Q10.65 -13.2 11.0 -14.25 L12.9 -12.4 14.8 -11.15 16.25 -11.45 M-4.25 -31.05 L-1.05 -30.9 5.6 -26.9 5.25 -26.55 -0.35 -28.2 0.7 -27.7 Q2.1 -26.95 3.55 -26.6 4.15 -26.4 4.25 -25.6 L4.2 -25.15 Q0.35 -22.7 -1.5 -18.4 L-2.4 -18.3 -2.75 -18.6 -3.5 -23.5 -4.6 -27.85 -4.3 -28.55 -3.85 -28.6 -3.4 -28.95 -4.6 -28.95 -4.25 -31.05 M3.35 -17.55 L3.95 -18.05 5.4 -17.9 5.3 -17.0 4.85 -15.35 Q4.0 -13.05 2.75 -11.05 L2.35 -11.55 2.0 -12.3 2.45 -16.25 Q2.65 -16.8 3.0 -17.2 L3.35 -17.55 M2.55 -9.45 L3.0 -11.0 Q3.4 -9.7 3.1 -8.55 L2.8 -7.45 2.55 -6.8 1.4 -4.25 Q0.85 -3.0 -0.1 -2.65 -1.0 -2.45 -1.45 -3.3 L-0.95 -5.2 -0.15 -6.2 0.95 -7.2 1.95 -8.1 2.2 -8.35 2.55 -9.45 M7.6 -3.55 L6.8 -2.05 Q6.25 -1.8 5.65 -2.05 L5.0 -2.4 4.85 -2.85 4.85 -3.05 Q4.85 -4.75 6.25 -4.9 7.4 -5.05 7.6 -4.3 L7.6 -4.0 7.6 -3.55 M3.1 -0.3 Q3.65 -1.45 4.95 -1.15 L5.2 -0.8 5.25 -0.25 4.2 1.6 2.9 1.55 2.75 0.9 Q2.8 0.25 3.1 -0.3 M-9.7 -25.8 L-9.15 -25.8 Q-8.4 -25.75 -7.95 -25.15 L-7.9 -24.6 -8.05 -23.3 Q-8.4 -22.35 -9.35 -22.5 -11.45 -22.3 -12.15 -24.05 L-11.95 -24.55 Q-11.0 -25.6 -9.7 -25.8 M-6.3 -16.25 L-5.85 -16.3 -5.55 -16.35 -5.25 -16.2 -5.05 -16.05 Q-4.45 -14.85 -4.8 -13.7 L-4.85 -13.55 -5.3 -12.2 Q-5.8 -10.6 -7.35 -10.55 L-7.55 -10.85 Q-8.8 -13.55 -7.0 -15.55 L-6.3 -16.25" fill="#ff0000" fill-rule="evenodd" stroke="none"/>
      <path d="M10.1 -27.0 Q10.4 -26.25 11.35 -25.75 L11.85 -25.45 9.95 -24.5 10.15 -25.75 10.1 -27.0 M12.5 -24.05 L11.75 -22.1 Q11.0 -21.0 11.0 -20.25 L11.0 -20.2 11.5 -18.7 11.6 -18.35 12.8 -16.45 Q12.35 -14.75 12.35 -13.9 12.35 -13.4 12.85 -12.5 L12.9 -12.4 11.0 -14.25 Q10.65 -13.2 11.45 -12.25 L12.95 -10.55 13.75 -10.0 12.6 -8.4 15.0 -9.4 15.8 -5.45 15.4 -2.8 15.4 -2.55 15.0 -2.5 Q13.9 -2.5 13.7 -3.75 L13.75 -5.5 11.6 -5.9 11.3 -7.45 11.05 -8.95 10.8 -8.6 9.75 -7.45 9.7 -7.65 Q9.5 -8.65 10.1 -11.0 L9.95 -11.85 9.05 -13.85 8.95 -14.05 8.55 -14.75 Q9.5 -16.3 9.5 -16.75 8.65 -16.85 8.45 -17.9 L8.5 -18.25 8.4 -18.25 8.4 -18.55 8.75 -21.0 Q6.75 -19.0 6.25 -19.0 5.7 -19.0 4.7 -19.5 L4.15 -20.2 4.1 -20.3 Q3.25 -21.7 3.25 -22.55 L3.35 -23.35 4.5 -24.55 4.5 -24.9 4.25 -25.6 Q4.15 -26.4 3.55 -26.6 2.1 -26.95 0.7 -27.7 L-0.35 -28.2 5.25 -26.55 5.6 -26.9 -1.05 -30.9 -0.05 -31.05 0.55 -31.2 2.7 -31.9 Q2.4 -30.4 3.45 -29.25 L6.9 -25.6 7.8 -24.4 Q8.05 -23.95 8.75 -23.75 L6.8 -21.65 8.2 -21.95 10.35 -22.8 11.15 -23.2 12.5 -24.05 M15.65 -12.75 L15.95 -12.25 16.25 -11.45 14.8 -11.15 Q15.15 -11.25 15.65 -12.75 M-12.15 -33.6 L-9.55 -33.5 -9.25 -33.5 Q-7.55 -32.9 -6.2 -32.2 L-7.15 -30.95 -7.7 -30.05 -8.4 -30.5 -10.95 -32.3 -11.9 -33.0 -12.15 -33.6 M-5.7 -31.95 Q-4.9 -31.55 -4.25 -31.05 L-4.6 -28.95 -3.4 -28.95 -3.85 -28.6 -4.3 -28.55 -4.6 -27.85 -5.25 -28.6 -5.3 -28.85 -6.4 -29.3 -6.25 -29.95 -5.7 -31.95 M4.95 -30.25 L6.25 -30.65 6.1 -29.6 6.5 -27.85 4.95 -30.25 M-4.35 -13.85 L-4.3 -12.5 Q-4.3 -11.35 -5.0 -10.4 L-7.75 -7.75 -8.65 -9.4 Q-9.4 -10.9 -9.4 -11.45 -9.4 -14.2 -7.15 -15.8 L-6.85 -16.0 Q-4.65 -17.4 -4.35 -13.85 M-7.95 -21.5 Q-8.5 -20.5 -9.75 -20.5 L-10.05 -20.5 -11.05 -20.6 -11.8 -20.85 Q-12.45 -21.15 -12.7 -21.7 -13.0 -22.35 -12.8 -23.05 L-12.8 -23.25 Q-12.7 -25.7 -10.15 -25.8 L-9.7 -25.8 Q-11.0 -25.6 -11.95 -24.55 L-12.15 -24.05 Q-11.45 -22.3 -9.35 -22.5 -8.4 -22.35 -8.05 -23.3 L-7.9 -24.6 -7.95 -25.15 Q-7.5 -24.65 -7.5 -23.75 -7.5 -22.9 -7.65 -22.3 L-7.95 -21.5 M5.4 -17.9 Q6.0 -17.3 6.0 -15.0 6.0 -15.65 3.5 -8.6 L3.7 -7.7 3.75 -7.45 4.0 -6.25 Q4.0 -5.45 2.4 -3.5 0.9 -1.65 0.05 -1.5 L-0.1 -1.5 -0.65 -1.5 Q-1.75 -1.65 -2.1 -2.35 L-2.25 -3.2 Q-2.25 -4.15 -0.95 -5.2 L-1.45 -3.3 Q-1.0 -2.45 -0.1 -2.65 0.85 -3.0 1.4 -4.25 L2.55 -6.8 2.8 -7.45 3.1 -8.55 Q3.4 -9.7 3.0 -11.0 L2.55 -9.45 2.6 -10.3 2.35 -11.55 2.75 -11.05 Q4.0 -13.05 4.85 -15.35 L5.3 -17.0 5.4 -17.9 M1.85 -12.8 L1.65 -14.0 Q1.65 -15.2 2.45 -16.25 L2.0 -12.3 1.85 -12.8 M4.85 -2.85 L5.0 -2.4 5.65 -2.05 Q6.25 -1.8 6.8 -2.05 L7.6 -3.55 Q8.2 -2.15 7.25 -0.9 L5.1 1.6 4.25 2.35 Q3.45 2.45 2.95 1.85 2.5 1.25 2.6 0.55 2.95 -1.65 4.85 -2.85 M3.1 -0.3 Q2.8 0.25 2.75 0.9 L2.9 1.55 4.2 1.6 5.25 -0.25 5.2 -0.8 4.95 -1.15 Q3.65 -1.45 3.1 -0.3 M-6.3 -16.25 L-7.0 -15.55 Q-8.8 -13.55 -7.55 -10.85 L-7.35 -10.55 Q-5.8 -10.6 -5.3 -12.2 L-4.85 -13.55 -4.8 -13.7 Q-4.45 -14.85 -5.05 -16.05 L-5.25 -16.2 -5.55 -16.35 -5.85 -16.3 -6.3 -16.25" fill="#990000" fill-rule="evenodd" stroke="none"/>
      <path d="M14.75 2.5 L16.15 0.95 16.35 0.75 Q17.95 -1.25 18.95 -3.15 L18.25 -0.25 17.25 3.25 18.15 3.0 19.0 2.75 19.25 2.75 Q17.65 4.25 16.8 6.55 16.35 7.7 16.15 8.8 L15.95 17.15 15.95 18.95 14.9 19.3 14.95 18.25 15.05 16.75 15.2 14.1 Q15.2 10.95 14.0 9.0 L13.95 8.95 Q12.85 7.1 12.75 3.5 L13.0 3.5 14.75 2.5 M-17.9 19.75 L-18.25 19.9 -19.3 16.75 -20.0 14.15 Q-20.0 11.35 -18.25 -0.05 L-17.6 -4.0 -16.25 -12.0 -16.25 -20.4 -15.6 -16.7 Q-15.05 -13.45 -15.05 -10.5 L-15.9 -4.0 -16.55 0.45 Q-18.05 11.1 -18.05 16.75 L-17.9 19.75 M-17.7 -25.7 L-18.05 -26.25 -18.3 -27.85 Q-18.3 -29.25 -17.7 -30.8 L-16.9 -32.45 -16.85 -32.5 -16.75 -32.05 -16.3 -30.65 -17.1 -27.8 -17.7 -25.7" fill="#5383b4" fill-rule="evenodd" stroke="none"/>
      <path d="M11.6 20.3 L9.7 20.4 8.9 20.3 2.65 19.15 2.4 19.1 -2.6 19.1 Q-2.3 18.05 -2.15 16.75 L-2.1 16.25 -1.8 11.5 -0.6 6.7 Q0.2 3.8 -0.05 1.9 -0.3 0.6 0.05 -1.5 0.9 -1.65 2.4 -3.5 4.0 -5.45 4.0 -6.25 L3.75 -7.45 3.7 -7.7 4.2 -7.85 Q5.25 -8.1 5.5 -8.5 7.0 -10.5 7.85 -10.5 L7.5 -9.35 8.0 -9.9 8.0 -9.85 7.75 -8.7 7.5 -7.25 7.85 -7.1 8.5 -7.0 Q9.15 -7.0 9.75 -7.45 L10.8 -8.6 11.05 -8.95 11.3 -7.45 11.6 -5.9 10.9 -6.2 10.45 -4.7 9.75 -5.5 8.1 -4.5 7.6 -4.3 Q7.4 -5.05 6.25 -4.9 4.85 -4.75 4.85 -3.05 L4.85 -2.85 Q2.95 -1.65 2.6 0.55 2.5 1.25 2.95 1.85 3.45 2.45 4.25 2.35 L5.1 1.6 Q5.8 2.05 5.9 2.85 L6.25 5.0 9.05 1.75 8.25 6.1 Q7.7 9.8 7.7 13.35 L8.1 14.15 9.05 14.85 Q9.45 12.35 12.8 12.35 L13.55 12.4 13.8 12.75 13.6 13.1 13.6 13.15 13.35 14.25 12.8 15.75 12.35 16.75 11.95 17.6 12.7 18.3 13.2 18.95 Q13.2 19.8 12.45 20.1 L11.6 20.3 M-3.95 19.1 L-12.55 19.6 Q-11.3 18.4 -10.35 16.75 L-9.4 15.1 Q-6.9 10.9 -6.45 9.75 L-6.3 9.65 Q-7.7 10.35 -9.3 11.75 -9.65 13.0 -10.6 14.1 -12.05 15.75 -14.05 15.75 -15.25 15.75 -15.85 14.5 L-16.15 13.25 Q-16.15 11.1 -15.35 2.8 L-14.6 -4.0 -13.8 -8.75 -10.35 -19.6 -10.05 -20.5 -9.75 -20.5 Q-8.5 -20.5 -7.95 -21.5 L-7.3 -21.15 Q-6.25 -20.45 -6.25 -19.75 -6.25 -19.35 -7.15 -18.05 L-8.25 -16.75 -8.3 -16.6 Q-8.35 -16.5 -8.5 -16.5 -7.6 -16.5 -7.15 -15.8 -9.4 -14.2 -9.4 -11.45 -9.4 -10.9 -8.65 -9.4 L-7.75 -7.75 -5.0 -10.4 Q-4.3 -11.35 -4.3 -12.5 L-4.35 -13.85 -3.25 -14.0 Q-3.55 -15.25 -2.9 -16.45 L-2.2 -17.75 -1.75 -17.75 Q-1.15 -17.75 0.35 -20.25 L2.25 -23.5 2.5 -23.5 Q2.0 -22.5 2.0 -21.35 2.0 -20.95 3.75 -20.0 L3.95 -19.9 3.75 -19.6 Q3.25 -18.95 3.25 -18.1 L3.35 -17.55 3.0 -17.2 Q2.65 -16.8 2.45 -16.25 1.65 -15.2 1.65 -14.0 L1.85 -12.8 1.5 -12.5 -1.05 -10.6 -2.75 -9.25 -2.25 -9.25 Q-1.9 -9.25 -1.6 -9.5 L-1.0 -9.75 Q-0.5 -9.75 0.7 -9.0 L-0.05 -7.45 -0.15 -6.2 -0.95 -5.2 Q-2.25 -4.15 -2.25 -3.2 L-2.1 -2.35 Q-1.75 -1.65 -0.65 -1.5 -1.15 1.75 -1.9 4.65 -3.5 10.7 -3.85 16.75 L-3.95 19.1 M-16.25 -24.2 L-16.35 -24.3 -16.65 -25.1 -16.7 -26.05 -16.55 -27.5 Q-16.05 -28.3 -14.05 -28.25 -13.35 -29.75 -12.0 -31.25 L-11.45 -31.8 Q-10.45 -29.35 -8.5 -28.5 L-7.7 -30.05 -7.15 -30.95 -6.2 -32.2 -5.75 -33.0 -5.5 -33.25 -5.7 -31.95 -6.25 -29.95 -6.4 -29.3 -6.75 -27.5 Q-6.75 -26.1 -6.15 -24.85 L-5.65 -24.05 Q-5.9 -23.45 -6.5 -22.95 L-7.65 -22.3 Q-7.5 -22.9 -7.5 -23.75 -7.5 -24.65 -7.95 -25.15 -8.4 -25.75 -9.15 -25.8 L-9.7 -25.8 -10.15 -25.8 Q-12.7 -25.7 -12.8 -23.25 -15.35 -23.3 -16.25 -24.2 M1.95 -8.1 L0.95 -7.2 0.95 -7.65 1.0 -8.8 1.15 -8.7 1.95 -8.1 M-11.8 -20.85 L-11.05 -20.6 -11.2 -20.35 -11.8 -20.85" fill="#2e5d8c" fill-rule="evenodd" stroke="none"/>
      <path d="M-2.6 19.1 L-3.95 19.1 -3.85 16.75 Q-3.5 10.7 -1.9 4.65 -1.15 1.75 -0.65 -1.5 L-0.1 -1.5 0.05 -1.5 Q-0.3 0.6 -0.05 1.9 0.2 3.8 -0.6 6.7 L-1.8 11.5 -2.1 16.25 -2.15 16.75 Q-2.3 18.05 -2.6 19.1 M1.0 -8.8 L0.95 -7.65 0.95 -7.2 -0.15 -6.2 -0.05 -7.45 0.7 -9.0 Q0.9 -9.5 1.0 -8.8" fill="#2a547e" fill-rule="evenodd" stroke="none"/>
      <path d="M14.9 19.3 L12.45 20.3 11.6 20.3 12.45 20.1 Q13.2 19.8 13.2 18.95 L12.7 18.3 11.95 17.6 12.35 16.75 12.8 15.75 13.35 14.25 13.6 13.15 13.6 13.1 13.8 12.75 13.55 12.4 12.8 12.35 Q9.45 12.35 9.05 14.85 L8.1 14.15 7.7 13.35 Q7.7 9.8 8.25 6.1 L9.05 1.75 9.3 0.5 9.45 -0.35 Q9.85 -1.15 11.2 -1.65 L10.5 1.75 Q10.5 2.5 11.25 3.0 11.9 3.45 12.75 3.5 12.85 7.1 13.95 8.95 L14.0 9.0 Q15.2 10.95 15.2 14.1 L15.05 16.75 14.95 18.25 14.9 19.3 M-12.55 19.6 L-15.55 19.25 Q-16.8 19.25 -17.9 19.75 L-18.05 16.75 Q-18.05 11.1 -16.55 0.45 L-15.9 -4.0 -15.05 -10.5 Q-15.05 -13.45 -15.6 -16.7 L-16.25 -20.4 -16.25 -24.2 Q-15.35 -23.3 -12.8 -23.25 L-12.8 -23.05 Q-13.0 -22.35 -12.7 -21.7 -12.45 -21.15 -11.8 -20.85 L-11.2 -20.35 -11.05 -20.6 -10.05 -20.5 -10.35 -19.6 -13.8 -8.75 -14.6 -4.0 -15.35 2.8 Q-16.15 11.1 -16.15 13.25 L-15.85 14.5 Q-15.25 15.75 -14.05 15.75 -12.05 15.75 -10.6 14.1 -9.65 13.0 -9.3 11.75 -7.7 10.35 -6.3 9.65 L-6.45 9.75 Q-6.9 10.9 -9.4 15.1 L-10.35 16.75 Q-11.3 18.4 -12.55 19.6 M-16.65 -25.1 Q-17.3 -25.3 -17.7 -25.7 L-17.1 -27.8 -16.3 -30.65 -16.75 -32.05 -16.85 -32.5 -16.35 -33.4 -16.25 -35.75 Q-15.75 -35.75 -15.75 -35.5 L-14.5 -35.5 -13.75 -37.5 -12.75 -35.2 -12.35 -34.15 -12.15 -33.6 -11.9 -33.0 -10.95 -32.3 -11.45 -31.8 -12.0 -31.25 Q-13.35 -29.75 -14.05 -28.25 -16.05 -28.3 -16.55 -27.5 L-16.7 -26.05 -16.65 -25.1 M7.85 -10.5 L7.9 -10.55 7.9 -10.5 8.0 -9.9 7.5 -9.35 7.85 -10.5 M10.45 -4.7 L10.9 -6.2 11.6 -5.9 11.75 -5.0 11.55 -3.5 11.1 -4.0 10.45 -4.7" fill="#336699" fill-rule="evenodd" stroke="none"/>
      <path d="M15.4 -2.55 L14.75 2.5 13.0 3.5 12.75 3.5 Q11.9 3.45 11.25 3.0 10.5 2.5 10.5 1.75 L11.2 -1.65 11.55 -3.5 11.75 -5.0 11.6 -5.9 13.75 -5.5 13.7 -3.75 Q13.9 -2.5 15.0 -2.5 L15.4 -2.55 M4.25 -25.6 L4.5 -24.9 4.5 -24.55 3.35 -23.35 3.25 -22.55 Q3.25 -21.7 4.1 -20.3 L4.15 -20.2 4.7 -19.5 3.95 -19.9 3.75 -20.0 Q2.0 -20.95 2.0 -21.35 2.0 -22.5 2.5 -23.5 L2.25 -23.5 0.35 -20.25 Q-1.15 -17.75 -1.75 -17.75 L-2.2 -17.75 Q-2.85 -17.9 -2.8 -18.35 L-2.75 -18.6 -2.4 -18.3 -1.5 -18.4 Q0.35 -22.7 4.2 -25.15 L4.25 -25.6 M8.55 -14.75 L8.95 -14.05 9.05 -13.85 9.95 -11.85 10.1 -11.0 Q9.5 -8.65 9.7 -7.65 L9.75 -7.45 Q9.15 -7.0 8.5 -7.0 L7.85 -7.1 7.5 -7.25 7.75 -8.7 8.0 -9.85 8.0 -9.9 7.9 -10.5 7.9 -10.55 7.65 -11.25 7.25 -12.5 Q7.25 -12.8 8.4 -14.5 L8.55 -14.75 M-11.45 -31.8 L-10.95 -32.3 -8.4 -30.5 -7.7 -30.05 -8.5 -28.5 Q-10.45 -29.35 -11.45 -31.8 M-6.4 -29.3 L-5.3 -28.85 -5.25 -28.6 -4.6 -27.85 -3.5 -23.5 Q-4.8 -23.15 -5.65 -24.05 L-6.15 -24.85 Q-6.75 -26.1 -6.75 -27.5 L-6.4 -29.3" fill="#583a30" fill-rule="evenodd" stroke="none"/>
      <path d="M4.7 -19.5 Q5.7 -19.0 6.25 -19.0 6.75 -19.0 8.75 -21.0 L8.4 -18.55 8.4 -18.25 8.5 -18.25 8.45 -17.9 Q8.65 -16.85 9.5 -16.75 9.5 -16.3 8.55 -14.75 L8.4 -14.5 Q7.25 -12.8 7.25 -12.5 L7.65 -11.25 7.9 -10.55 7.85 -10.5 Q7.0 -10.5 5.5 -8.5 5.25 -8.1 4.2 -7.85 L3.7 -7.7 3.5 -8.6 Q6.0 -15.65 6.0 -15.0 6.0 -17.3 5.4 -17.9 L3.95 -18.05 3.35 -17.55 3.25 -18.1 Q3.25 -18.95 3.75 -19.6 L3.95 -19.9 4.7 -19.5 M-2.2 -17.75 L-2.9 -16.45 Q-3.55 -15.25 -3.25 -14.0 L-4.35 -13.85 Q-4.65 -17.4 -6.85 -16.0 L-7.15 -15.8 Q-7.6 -16.5 -8.5 -16.5 -8.35 -16.5 -8.3 -16.6 L-8.25 -16.75 -7.15 -18.05 Q-6.25 -19.35 -6.25 -19.75 -6.25 -20.45 -7.3 -21.15 L-7.95 -21.5 -7.65 -22.3 -6.5 -22.95 Q-5.9 -23.45 -5.65 -24.05 -4.8 -23.15 -3.5 -23.5 L-2.75 -18.6 -2.8 -18.35 Q-2.85 -17.9 -2.2 -17.75 M0.7 -9.0 Q-0.5 -9.75 -1.0 -9.75 L-1.6 -9.5 Q-1.9 -9.25 -2.25 -9.25 L-2.75 -9.25 -1.05 -10.6 1.5 -12.5 1.85 -12.8 2.0 -12.3 2.35 -11.55 2.6 -10.3 2.55 -9.45 2.2 -8.35 1.95 -8.1 1.15 -8.7 1.0 -8.8 Q0.9 -9.5 0.7 -9.0 M7.6 -3.55 L7.6 -4.0 7.6 -4.3 8.1 -4.5 9.75 -5.5 10.45 -4.7 11.1 -4.0 11.55 -3.5 11.2 -1.65 Q9.85 -1.15 9.45 -0.35 L9.3 0.5 9.05 1.75 6.25 5.0 5.9 2.85 Q5.8 2.05 5.1 1.6 L7.25 -0.9 Q8.2 -2.15 7.6 -3.55" fill="#642d45" fill-rule="evenodd" stroke="none"/>
    </g>
  </defs>
</svg>
