<?xml version="1.0" encoding="UTF-8" standalone="no"?>
<svg xmlns:ffdec="https://www.free-decompiler.com/flash" xmlns:xlink="http://www.w3.org/1999/xlink" ffdec:objectType="frame" height="499.45px" width="496.15px" xmlns="http://www.w3.org/2000/svg">
  <g transform="matrix(1.0, 0.0, 0.0, 1.0, 270.5, 376.7)">
    <use ffdec:characterId="159" height="396.05" transform="matrix(1.0, 0.0, 0.0, 1.0, -231.5, -279.3)" width="425.6" xlink:href="#shape0"/>
  </g>
  <defs>
    <g id="shape0" transform="matrix(1.0, 0.0, 0.0, 1.0, 231.5, 279.3)">
      <path d="M84.0 -214.85 Q83.85 -208.5 80.55 -203.4 77.7 -199.05 68.75 -190.6 71.1 -187.3 72.6 -177.95 L72.1 -175.0 Q71.75 -171.65 69.05 -163.95 L60.8 -141.95 66.1 -135.55 Q71.6 -129.0 71.85 -129.0 L72.25 -129.0 73.3 -126.55 Q74.7 -122.8 74.5 -121.0 75.0 -121.0 75.0 -120.5 L75.45 -120.6 Q79.75 -123.35 91.5 -124.0 90.7 -126.4 91.95 -127.6 L94.8 -130.8 Q97.55 -134.1 102.0 -135.5 L99.55 -141.15 Q102.1 -144.25 102.1 -146.1 L100.1 -152.2 98.9 -155.95 Q105.65 -170.95 121.55 -173.25 L121.5 -171.0 121.5 -165.5 Q125.1 -171.85 131.25 -174.6 136.75 -177.0 145.5 -177.0 160.85 -177.0 164.0 -169.5 164.65 -167.85 166.55 -165.8 L170.05 -162.2 170.65 -161.5 170.85 -155.35 Q162.15 -152.0 158.75 -149.5 155.2 -146.85 151.85 -141.5 159.0 -146.0 164.75 -146.0 L170.85 -145.65 Q172.0 -145.1 175.0 -140.5 183.45 -139.2 189.65 -131.95 L191.0 -130.25 191.1 -126.5 Q191.1 -117.5 184.9 -109.65 180.0 -103.5 172.35 -100.55 164.35 -104.35 157.3 -100.95 152.45 -98.65 149.7 -95.15 145.45 -89.7 142.5 -89.0 137.2 -87.7 132.3 -83.65 127.8 -79.9 125.8 -75.65 131.25 -80.15 136.2 -82.2 141.7 -84.5 148.25 -84.5 L153.05 -84.35 Q155.6 -84.0 162.0 -88.5 165.45 -89.95 174.2 -88.75 182.9 -87.55 182.65 -84.85 182.4 -82.2 187.4 -78.55 192.4 -74.95 194.1 -73.2 L194.1 -71.75 Q194.1 -62.05 183.35 -54.9 172.6 -47.8 174.95 -40.45 177.3 -33.1 166.7 -24.65 L168.1 -23.35 168.75 -17.95 Q169.2 -14.4 169.0 -11.5 175.85 -9.95 177.5 -6.95 179.1 -4.0 179.55 0.2 182.1 3.5 185.35 6.2 188.55 8.85 190.8 12.35 L193.8 17.2 Q192.8 26.05 188.4 34.75 178.75 53.75 157.35 53.75 150.1 53.75 143.4 47.45 L140.75 44.6 Q134.95 44.3 133.2 43.3 132.25 42.55 131.6 42.25 L127.85 41.75 Q127.5 44.25 126.2 46.65 132.35 50.05 137.1 55.7 145.35 65.55 146.05 78.75 143.55 81.9 141.1 87.0 138.95 91.7 125.4 99.0 L121.95 100.8 Q114.4 105.25 106.0 106.75 L96.1 107.5 71.0 105.2 Q68.75 104.65 66.55 103.7 L62.0 101.45 61.05 101.05 54.95 102.0 52.5 104.0 Q36.35 116.75 15.0 116.75 9.35 116.75 4.4 115.65 L-2.5 116.0 Q-29.85 116.0 -43.0 102.0 L-43.55 101.4 Q-50.1 99.9 -53.65 97.15 L-58.05 92.9 Q-60.3 91.0 -63.85 91.0 -75.3 91.0 -79.95 93.9 -84.5 96.65 -94.5 96.5 -96.5 97.05 -98.25 99.8 -101.35 102.25 -111.0 102.25 -130.65 102.25 -149.05 90.3 -157.6 84.75 -162.5 78.2 -167.75 71.2 -167.75 64.5 -167.75 60.5 -165.8 57.75 -166.8 54.8 -167.0 51.75 -167.0 46.2 -164.3 44.0 L-164.15 43.9 Q-162.7 40.2 -158.8 37.85 -154.15 35.05 -147.7 34.85 L-152.1 30.0 Q-158.0 23.1 -159.0 19.0 -160.65 12.35 -167.3 7.15 L-171.45 3.55 Q-172.4 2.45 -172.85 1.25 L-174.0 1.25 Q-212.2 1.25 -225.55 -22.25 -231.25 -32.4 -231.5 -47.25 L-231.5 -47.3 -230.5 -50.0 Q-226.95 -58.5 -220.5 -58.5 -217.55 -58.5 -214.9 -56.45 -212.15 -53.95 -210.5 -53.0 -204.15 -57.85 -199.15 -59.75 -193.2 -62.0 -184.75 -62.0 L-175.45 -61.75 Q-170.35 -61.05 -167.0 -58.0 L-167.0 -58.5 Q-166.9 -62.25 -172.2 -66.65 -177.45 -71.0 -182.5 -71.5 L-177.25 -73.4 -172.0 -73.5 -164.65 -72.55 -159.0 -71.5 Q-157.35 -70.8 -155.15 -67.7 -153.05 -64.7 -151.0 -64.0 -141.45 -60.7 -138.65 -58.75 -133.85 -55.4 -133.5 -49.0 -120.35 -54.7 -113.75 -54.55 L-106.3 -53.9 Q-109.1 -56.0 -110.7 -56.9 -115.2 -59.4 -119.5 -59.0 -125.15 -58.45 -127.5 -61.35 -128.65 -62.8 -130.4 -65.9 L-130.0 -65.5 Q-129.05 -65.5 -121.75 -73.9 L-114.25 -83.0 Q-115.85 -84.45 -121.95 -87.3 -125.25 -88.85 -126.4 -89.95 L-128.2 -92.5 Q-134.55 -94.2 -137.0 -100.65 -138.7 -105.05 -138.25 -109.6 -138.25 -116.1 -135.55 -120.4 L-134.25 -122.0 -133.65 -125.95 -133.6 -126.0 -132.2 -128.95 -131.0 -131.0 -130.05 -131.0 Q-128.8 -133.5 -126.3 -135.05 -122.05 -137.7 -115.35 -137.15 -109.25 -136.65 -104.45 -134.0 L-102.25 -132.55 -94.55 -131.0 -94.1 -131.0 -98.05 -135.1 Q-101.25 -138.55 -101.5 -140.6 -113.75 -141.45 -117.75 -139.8 L-121.05 -138.5 -128.0 -137.85 Q-136.35 -137.85 -139.9 -144.05 L-142.5 -143.6 -149.35 -144.1 Q-155.65 -144.6 -165.75 -149.45 -174.4 -153.55 -177.55 -170.7 -176.1 -179.3 -169.5 -187.0 -160.5 -197.5 -149.45 -197.5 -138.4 -197.5 -132.0 -195.7 L-130.25 -195.15 Q-133.3 -199.0 -138.45 -202.15 -147.1 -207.5 -155.75 -207.5 L-159.75 -207.2 Q-159.15 -211.25 -157.2 -214.1 -153.5 -219.55 -145.5 -219.5 -145.4 -224.2 -141.3 -226.7 -137.6 -229.0 -131.5 -229.0 -127.0 -229.0 -123.45 -225.7 -119.4 -221.9 -120.5 -216.5 L-114.35 -217.5 -107.75 -218.5 Q-103.4 -218.5 -96.9 -214.5 -90.1 -209.8 -87.5 -208.5 -94.15 -203.5 -97.3 -199.4 -85.9 -202.25 -81.45 -201.5 -77.05 -200.8 -71.3 -195.95 L-63.5 -189.15 -64.6 -178.95 -65.0 -175.35 -62.0 -174.85 -54.2 -172.95 -53.35 -174.15 Q-51.3 -177.0 -48.85 -179.5 -47.2 -181.9 -44.45 -184.65 -55.45 -189.55 -61.25 -199.9 -65.3 -207.15 -66.35 -216.35 L-66.25 -215.6 Q-65.15 -225.7 -58.0 -233.5 -49.35 -243.0 -37.25 -243.0 -35.3 -243.0 -33.0 -242.0 -31.85 -241.5 -28.1 -238.9 -26.9 -245.65 -24.0 -248.9 -21.25 -253.2 -14.55 -256.1 -7.95 -258.95 -0.6 -259.4 L6.6 -256.15 Q11.05 -253.85 11.0 -251.0 22.95 -252.0 32.1 -248.3 40.45 -244.95 42.5 -239.1 44.2 -230.7 45.45 -231.8 46.65 -232.95 48.75 -233.7 50.8 -234.5 55.75 -234.5 66.75 -234.5 76.5 -225.0 81.65 -220.0 84.0 -214.85 M67.95 -85.95 Q65.4 -87.0 62.5 -87.0 57.05 -87.0 53.35 -84.8 50.3 -82.95 47.85 -79.3 50.2 -78.15 53.15 -75.2 L56.5 -71.4 56.15 -71.0 53.1 -66.7 Q48.55 -70.0 45.95 -70.7 L39.5 -71.0 Q35.6 -71.0 32.4 -68.45 L28.1 -64.1 Q34.55 -64.65 40.0 -63.25 45.5 -61.85 52.0 -58.0 L52.0 -57.1 Q57.25 -61.35 62.9 -59.15 68.55 -56.95 69.3 -55.15 L70.1 -53.0 75.45 -54.2 81.45 -55.4 Q88.85 -56.85 92.0 -59.0 101.25 -65.35 115.0 -62.2 L116.0 -62.0 116.0 -62.15 116.0 -63.5 Q116.0 -67.5 111.6 -69.05 109.05 -69.95 105.0 -70.05 L96.45 -69.55 95.15 -69.4 90.5 -69.0 82.25 -74.0 77.7 -76.55 76.05 -79.1 Q72.45 -84.1 67.95 -85.95 M11.4 -115.95 Q11.25 -116.35 8.45 -117.0 5.65 -117.65 0.95 -116.4 -3.8 -115.2 -6.2 -113.45 -4.65 -120.3 -1.4 -124.6 3.45 -131.0 11.5 -131.0 L14.85 -130.5 Q12.3 -137.5 9.35 -140.5 4.9 -145.0 -3.85 -145.0 -12.65 -145.0 -18.25 -142.5 -23.85 -140.05 -28.15 -126.65 -31.75 -128.9 -40.3 -129.0 -50.2 -129.1 -54.8 -122.9 -59.05 -117.25 -58.9 -106.0 -64.9 -101.6 -65.55 -99.1 -65.85 -98.0 -65.85 -91.0 L-65.75 -86.5 Q-65.45 -84.25 -64.2 -82.45 L-70.8 -82.85 -74.85 -83.0 Q-85.85 -83.0 -85.85 -68.0 -85.85 -64.75 -83.85 -60.45 -82.15 -56.85 -79.85 -54.0 -85.25 -54.9 -87.9 -51.8 L-90.1 -48.55 -90.9 -47.3 -90.3 -46.9 Q-88.2 -45.45 -86.85 -44.0 -86.35 -44.15 -76.35 -48.55 -70.05 -51.35 -64.85 -51.0 -63.45 -60.65 -60.9 -63.75 -59.05 -65.95 -52.2 -65.65 -49.8 -68.95 -45.55 -72.7 -38.45 -79.0 -33.5 -79.0 L-28.95 -78.5 -25.85 -78.1 -23.6 -82.35 Q-21.0 -86.7 -17.95 -89.5 -10.85 -96.0 0.5 -96.0 6.25 -96.0 9.2 -93.75 L9.35 -93.6 Q14.3 -95.9 17.4 -96.95 23.45 -99.0 28.5 -99.0 35.95 -99.0 40.15 -96.7 43.25 -95.0 49.0 -89.0 47.85 -90.4 44.05 -96.4 40.2 -102.55 37.45 -106.05 28.1 -118.0 18.5 -118.0 14.7 -118.0 11.4 -115.95 M60.0 -9.0 L58.1 -6.75 Q49.7 3.9 44.5 -5.25 L43.65 -4.65 Q35.35 -0.4 28.65 -7.45 30.75 -1.95 28.2 2.95 23.9 4.35 19.5 2.5 21.9 10.9 31.6 11.05 24.8 14.95 17.0 14.5 39.8 22.6 58.0 7.5 L48.35 6.65 Q60.1 2.7 60.0 -9.0 M107.5 -7.5 L107.0 -7.5 Q107.6 -3.55 102.5 0.85 97.65 5.0 93.75 5.0 90.45 5.0 86.5 2.0 87.9 7.9 84.2 10.95 L80.85 13.2 Q79.0 14.5 75.5 15.85 L75.6 16.0 Q76.85 18.45 80.6 20.35 84.9 22.5 88.25 22.5 L89.35 22.45 Q87.15 25.1 84.4 26.85 81.05 29.0 76.65 29.9 80.5 33.3 83.3 32.5 L87.5 31.5 107.5 24.0 Q108.0 24.0 108.0 23.5 110.85 21.65 113.6 16.1 L118.0 7.5 117.5 7.5 109.0 11.5 106.5 11.5 106.5 10.5 Q108.4 8.85 108.85 6.75 L109.0 3.0 Q109.0 0.25 107.5 -7.5 M-99.25 -3.3 Q-96.95 -0.85 -94.5 0.5 L-89.8 1.85 Q-86.7 2.55 -86.0 3.5 -82.65 7.7 -78.9 10.35 -73.8 14.0 -69.0 14.0 -63.75 14.0 -61.6 12.7 -59.75 11.6 -56.5 7.0 -59.45 8.05 -64.1 6.15 -68.3 4.45 -69.5 2.5 L-69.5 1.5 Q-61.7 2.05 -59.5 -2.0 -64.75 -2.0 -70.1 -5.0 -75.45 -8.0 -76.75 -8.0 L-83.85 -5.75 Q-91.0 -3.5 -93.5 -3.5 -96.95 -3.5 -100.1 -4.25 L-99.25 -3.3 M-29.85 10.85 Q-34.8 9.55 -35.5 7.5 -38.7 9.55 -42.8 11.3 L-45.55 12.4 -40.55 14.4 Q-36.55 16.0 -33.75 16.0 -29.2 16.0 -26.6 14.9 -24.65 14.05 -22.1 11.6 -25.45 12.05 -29.85 10.85 M-10.0 25.7 Q-13.75 23.3 -17.0 22.5 L-17.0 25.0 Q-15.1 31.0 -8.35 34.1 -4.5 35.85 -0.3 36.35 0.05 41.45 2.45 44.2 5.05 47.25 9.15 47.15 11.85 49.7 13.5 50.25 L19.0 50.5 23.55 50.4 Q26.2 50.0 27.5 48.75 27.4 50.45 23.2 52.45 18.9 54.45 14.7 54.5 L15.5 52.75 14.75 52.75 11.9 53.25 10.7 53.5 9.0 53.75 Q3.75 53.75 3.0 49.25 L-2.3 53.05 Q-5.3 55.25 -8.5 55.25 L-9.5 55.1 Q-7.65 56.25 -3.9 58.75 -0.15 61.25 2.5 61.25 6.9 61.25 10.4 59.05 12.0 58.0 13.25 56.65 16.75 59.0 21.0 59.0 24.25 59.0 27.6 57.95 30.55 56.95 32.5 55.5 33.85 59.0 30.65 61.25 L26.95 63.75 Q32.7 65.5 34.5 65.5 39.25 65.5 41.6 64.2 45.45 62.0 49.0 61.0 L56.05 59.0 Q60.85 57.2 61.0 55.0 L64.8 55.7 68.0 56.0 72.2 55.8 77.5 53.0 Q70.55 52.05 66.8 50.2 62.25 47.95 58.5 42.75 62.7 43.9 67.15 41.2 71.5 38.6 72.0 35.5 L63.25 37.0 54.25 38.0 48.75 37.8 Q48.05 37.65 42.5 35.0 41.3 37.35 37.1 39.4 32.85 41.5 29.5 41.5 27.15 41.5 25.2 40.4 L22.85 38.65 22.15 38.95 Q18.7 40.5 16.5 40.5 13.9 40.5 11.1 38.95 L6.05 36.0 Q8.55 35.25 11.2 33.4 15.5 30.4 16.0 27.5 L12.7 27.75 10.0 28.0 Q7.25 28.0 6.45 27.05 L6.25 26.8 4.35 27.25 -2.5 27.5 Q-7.2 27.5 -10.0 25.7 M-73.0 26.0 L-77.65 25.7 Q-79.05 24.95 -79.5 21.0 -79.95 23.3 -81.35 24.4 -82.85 25.5 -85.75 25.5 -89.8 25.5 -96.15 21.45 -102.05 17.65 -104.0 14.5 L-104.0 15.0 Q-102.45 18.15 -99.3 21.2 -95.15 25.3 -93.5 27.5 L-93.5 33.0 -98.0 33.0 Q-98.55 32.4 -100.15 31.75 L-102.0 31.0 -102.0 31.5 Q-101.4 33.35 -96.4 37.0 -92.65 39.7 -94.5 43.0 -95.8 45.35 -99.2 46.5 -102.1 47.5 -106.0 47.5 L-110.35 47.4 Q-111.6 47.2 -112.5 46.5 -111.05 48.95 -106.7 50.3 -102.6 51.5 -97.0 51.5 -93.65 51.5 -87.05 49.75 L-80.25 48.0 Q-78.7 48.0 -77.3 49.1 L-74.6 51.5 Q-70.3 55.0 -62.25 55.0 -56.1 55.0 -53.45 53.8 -49.75 51.6 -45.5 49.5 -49.85 50.4 -55.15 47.7 -60.2 45.2 -61.5 42.0 L-61.0 42.0 Q-60.7 42.75 -58.3 42.95 L-55.0 43.0 -43.95 42.1 -39.0 41.6 -42.4 40.75 Q-47.5 38.95 -47.5 35.75 -47.5 34.75 -45.75 32.2 L-44.0 29.75 -44.0 29.0 Q-46.8 30.75 -47.2 30.9 L-50.75 31.0 Q-55.9 31.0 -58.6 27.7 -61.35 24.35 -60.15 19.15 -62.8 21.75 -65.55 23.5 -69.6 26.0 -73.0 26.0" fill="#484848" fill-rule="evenodd" stroke="none"/>
      <path d="M-66.35 -216.35 L-66.75 -221.9 -66.75 -222.1 -66.75 -222.35 -66.75 -222.7 -66.75 -223.1 Q-66.75 -230.4 -66.0 -234.05 -64.8 -239.8 -60.75 -247.1 -55.35 -256.85 -43.2 -261.2 L-34.1 -263.85 Q-29.15 -265.2 -27.25 -266.35 4.2 -285.2 30.15 -276.65 40.2 -273.35 46.45 -266.7 52.25 -260.55 52.25 -254.6 L52.1 -252.65 54.1 -251.2 Q55.35 -250.0 56.7 -247.2 64.9 -246.2 68.5 -243.1 L74.25 -238.65 Q77.7 -235.95 78.75 -234.1 80.9 -230.45 82.45 -224.85 84.0 -219.3 84.0 -215.35 L84.0 -214.85 Q81.65 -220.0 76.5 -225.0 66.75 -234.5 55.75 -234.5 50.8 -234.5 48.75 -233.7 46.65 -232.95 45.45 -231.8 44.2 -230.7 42.5 -239.1 40.45 -244.95 32.1 -248.3 22.95 -252.0 11.0 -251.0 11.05 -253.85 6.6 -256.15 L-0.6 -259.4 Q-7.95 -258.95 -14.55 -256.1 -21.25 -253.2 -24.0 -248.9 -26.9 -245.65 -28.1 -238.9 -31.85 -241.5 -33.0 -242.0 -35.3 -243.0 -37.25 -243.0 -49.35 -243.0 -58.0 -233.5 -65.15 -225.7 -66.25 -215.6 L-66.35 -216.35 M72.25 -129.0 Q73.9 -129.15 74.9 -130.5 L75.4 -131.35 76.8 -131.8 81.0 -132.35 Q83.05 -132.35 85.0 -131.2 86.9 -129.8 87.75 -129.35 88.1 -130.25 95.35 -136.9 L98.7 -140.2 99.55 -141.2 99.55 -141.15 102.0 -135.5 Q97.55 -134.1 94.8 -130.8 L91.95 -127.6 Q90.7 -126.4 91.5 -124.0 79.75 -123.35 75.45 -120.6 L75.0 -120.5 Q75.0 -121.0 74.5 -121.0 74.7 -122.8 73.3 -126.55 L72.25 -129.0 M98.9 -155.95 Q98.1 -158.6 98.1 -159.25 98.1 -171.8 106.25 -179.65 114.35 -187.5 128.95 -187.95 135.15 -194.65 148.95 -191.15 162.25 -187.75 167.85 -179.35 170.3 -175.15 170.65 -167.8 L170.65 -161.5 170.05 -162.2 166.55 -165.8 Q164.65 -167.85 164.0 -169.5 160.85 -177.0 145.5 -177.0 136.75 -177.0 131.25 -174.6 125.1 -171.85 121.5 -165.5 L121.5 -171.0 121.55 -173.25 Q105.65 -170.95 98.9 -155.95 M170.85 -155.35 L171.05 -155.3 173.0 -154.8 173.6 -154.65 Q183.95 -151.6 188.2 -142.4 190.5 -137.4 191.0 -130.25 L189.65 -131.95 Q183.45 -139.2 175.0 -140.5 172.0 -145.1 170.85 -145.65 L164.75 -146.0 Q159.0 -146.0 151.85 -141.5 155.2 -146.85 158.75 -149.5 162.15 -152.0 170.85 -155.35 M172.35 -100.55 L176.95 -99.3 177.55 -99.05 178.65 -98.55 184.45 -93.85 184.55 -93.7 184.7 -93.45 Q187.3 -93.3 189.65 -89.2 191.8 -85.45 192.9 -81.3 193.9 -77.45 194.1 -73.2 192.4 -74.95 187.4 -78.55 182.4 -82.2 182.65 -84.85 182.9 -87.55 174.2 -88.75 165.45 -89.95 162.0 -88.5 155.6 -84.0 153.05 -84.35 L148.25 -84.5 Q141.7 -84.5 136.2 -82.2 131.25 -80.15 125.8 -75.65 127.8 -79.9 132.3 -83.65 137.2 -87.7 142.5 -89.0 145.45 -89.7 149.7 -95.15 152.45 -98.65 157.3 -100.95 164.35 -104.35 172.35 -100.55 M168.1 -23.35 L176.85 -15.55 Q183.35 -10.15 183.35 -6.35 183.35 -4.5 182.75 -2.5 184.05 -2.05 185.6 -1.05 189.0 1.15 191.45 4.75 194.1 8.6 194.1 11.9 L193.8 17.2 190.8 12.35 Q188.55 8.85 185.35 6.2 182.1 3.5 179.55 0.2 179.1 -4.0 177.5 -6.95 175.85 -9.95 169.0 -11.5 169.2 -14.4 168.75 -17.95 L168.1 -23.35 M-231.5 -47.3 L-231.5 -48.5 Q-231.5 -72.85 -215.1 -84.3 -200.95 -94.15 -179.0 -92.25 -158.95 -90.55 -143.5 -80.5 L-145.95 -83.7 -141.25 -78.3 -130.4 -65.9 Q-128.65 -62.8 -127.5 -61.35 -125.15 -58.45 -119.5 -59.0 -115.2 -59.4 -110.7 -56.9 -109.1 -56.0 -106.3 -53.9 L-113.75 -54.55 Q-120.35 -54.7 -133.5 -49.0 -133.85 -55.4 -138.65 -58.75 -141.45 -60.7 -151.0 -64.0 -153.05 -64.7 -155.15 -67.7 -157.35 -70.8 -159.0 -71.5 L-164.65 -72.55 -172.0 -73.5 -177.25 -73.4 -182.5 -71.5 Q-177.45 -71.0 -172.2 -66.65 -166.9 -62.25 -167.0 -58.5 L-167.0 -58.0 Q-170.35 -61.05 -175.45 -61.75 L-184.75 -62.0 Q-193.2 -62.0 -199.15 -59.75 -204.15 -57.85 -210.5 -53.0 -212.15 -53.95 -214.9 -56.45 -217.55 -58.5 -220.5 -58.5 -226.95 -58.5 -230.5 -50.0 L-231.5 -47.3 M-177.55 -170.7 L-178.5 -176.85 Q-181.1 -199.45 -170.1 -205.05 -173.5 -230.0 -157.55 -237.3 -141.6 -244.65 -129.55 -243.8 -117.5 -243.0 -107.85 -241.15 -98.25 -239.35 -89.55 -227.95 -82.5 -218.8 -82.5 -209.1 L-82.5 -208.85 Q-79.65 -208.95 -77.0 -207.85 -72.3 -205.9 -68.3 -200.2 -66.2 -197.15 -64.7 -193.7 -63.5 -190.8 -63.5 -189.85 L-63.5 -189.15 -71.3 -195.95 Q-77.05 -200.8 -81.45 -201.5 -85.9 -202.25 -97.3 -199.4 -94.15 -203.5 -87.5 -208.5 -90.1 -209.8 -96.9 -214.5 -103.4 -218.5 -107.75 -218.5 L-114.35 -217.5 -120.5 -216.5 Q-119.4 -221.9 -123.45 -225.7 -127.0 -229.0 -131.5 -229.0 -137.6 -229.0 -141.3 -226.7 -145.4 -224.2 -145.5 -219.5 -153.5 -219.55 -157.2 -214.1 -159.15 -211.25 -159.75 -207.2 L-155.75 -207.5 Q-147.1 -207.5 -138.45 -202.15 -133.3 -199.0 -130.25 -195.15 L-132.0 -195.7 Q-138.4 -197.5 -149.45 -197.5 -160.5 -197.5 -169.5 -187.0 -176.1 -179.3 -177.55 -170.7 M11.4 -115.95 Q14.7 -118.0 18.5 -118.0 28.1 -118.0 37.45 -106.05 40.2 -102.55 44.05 -96.4 47.85 -90.4 49.0 -89.0 43.25 -95.0 40.15 -96.7 35.95 -99.0 28.5 -99.0 23.45 -99.0 17.4 -96.95 14.3 -95.9 9.35 -93.6 L9.2 -93.75 Q6.25 -96.0 0.5 -96.0 -10.85 -96.0 -17.95 -89.5 -21.0 -86.7 -23.6 -82.35 L-25.85 -78.1 -28.95 -78.5 -33.5 -79.0 Q-38.45 -79.0 -45.55 -72.7 -49.8 -68.95 -52.2 -65.65 -59.05 -65.95 -60.9 -63.75 -63.45 -60.65 -64.85 -51.0 -70.05 -51.35 -76.35 -48.55 -86.35 -44.15 -86.85 -44.0 -88.2 -45.45 -90.3 -46.9 L-90.9 -47.3 -90.1 -48.55 -87.9 -51.8 Q-85.25 -54.9 -79.85 -54.0 -82.15 -56.85 -83.85 -60.45 -85.85 -64.75 -85.85 -68.0 -85.85 -83.0 -74.85 -83.0 L-70.8 -82.85 -64.2 -82.45 Q-65.45 -84.25 -65.75 -86.5 L-65.85 -91.0 Q-65.85 -98.0 -65.55 -99.1 -64.9 -101.6 -58.9 -106.0 -59.05 -117.25 -54.8 -122.9 -50.2 -129.1 -40.3 -129.0 -31.75 -128.9 -28.15 -126.65 -23.85 -140.05 -18.25 -142.5 -12.65 -145.0 -3.85 -145.0 4.9 -145.0 9.35 -140.5 12.3 -137.5 14.85 -130.5 L11.5 -131.0 Q3.45 -131.0 -1.4 -124.6 -4.65 -120.3 -6.2 -113.45 -3.8 -115.2 0.95 -116.4 5.65 -117.65 8.45 -117.0 11.25 -116.35 11.4 -115.95 M67.95 -85.95 Q72.45 -84.1 76.05 -79.1 L77.7 -76.55 82.25 -74.0 90.5 -69.0 95.15 -69.4 96.45 -69.55 105.0 -70.05 Q109.05 -69.95 111.6 -69.05 116.0 -67.5 116.0 -63.5 L116.0 -62.15 116.0 -62.0 115.0 -62.2 Q101.25 -65.35 92.0 -59.0 88.85 -56.85 81.45 -55.4 L75.45 -54.2 70.1 -53.0 69.3 -55.15 Q68.55 -56.95 62.9 -59.15 57.25 -61.35 52.0 -57.1 L52.0 -58.0 Q45.5 -61.85 40.0 -63.25 34.55 -64.65 28.1 -64.1 L32.4 -68.45 Q35.6 -71.0 39.5 -71.0 L45.95 -70.7 Q48.55 -70.0 53.1 -66.7 L56.15 -71.0 56.5 -71.4 53.15 -75.2 Q50.2 -78.15 47.85 -79.3 50.3 -82.95 53.35 -84.8 57.05 -87.0 62.5 -87.0 65.4 -87.0 67.95 -85.95" fill="#616161" fill-rule="evenodd" stroke="none"/>
      <path d="M60.0 -9.0 Q60.1 2.7 48.35 6.65 L58.0 7.5 Q39.8 22.6 17.0 14.5 24.8 14.95 31.6 11.05 21.9 10.9 19.5 2.5 23.9 4.35 28.2 2.95 30.75 -1.95 28.65 -7.45 35.35 -0.4 43.65 -4.65 L44.5 -5.25 Q49.7 3.9 58.1 -6.75 L60.0 -9.0 M107.5 -7.5 Q109.0 0.25 109.0 3.0 L108.85 6.75 Q108.4 8.85 106.5 10.5 L106.5 11.5 109.0 11.5 117.5 7.5 118.0 7.5 113.6 16.1 Q110.85 21.65 108.0 23.5 108.0 24.0 107.5 24.0 L87.5 31.5 83.3 32.5 Q80.5 33.3 76.65 29.9 81.05 29.0 84.4 26.85 87.15 25.1 89.35 22.45 L88.25 22.5 Q84.9 22.5 80.6 20.35 76.85 18.45 75.6 16.0 L75.5 15.85 Q79.0 14.5 80.85 13.2 L84.2 10.95 Q87.9 7.9 86.5 2.0 90.45 5.0 93.75 5.0 97.65 5.0 102.5 0.85 107.6 -3.55 107.0 -7.5 L107.5 -7.5 M-99.25 -3.3 L-100.1 -4.25 Q-96.95 -3.5 -93.5 -3.5 -91.0 -3.5 -83.85 -5.75 L-76.75 -8.0 Q-75.45 -8.0 -70.1 -5.0 -64.75 -2.0 -59.5 -2.0 -61.7 2.05 -69.5 1.5 L-69.5 2.5 Q-68.3 4.45 -64.1 6.15 -59.45 8.05 -56.5 7.0 -59.75 11.6 -61.6 12.7 -63.75 14.0 -69.0 14.0 -73.8 14.0 -78.9 10.35 -82.65 7.7 -86.0 3.5 -86.7 2.55 -89.8 1.85 L-94.5 0.5 Q-96.95 -0.85 -99.25 -3.3 M-87.6 -2.05 Q-84.25 -0.2 -83.0 -0.5 -80.15 4.45 -77.55 7.05 -74.95 9.65 -72.25 10.75 -69.55 11.8 -66.25 11.25 -62.95 10.65 -62.0 9.5 -68.35 8.95 -76.0 -0.5 L-68.0 -1.0 Q-70.95 -1.9 -72.95 -3.15 -74.95 -4.45 -76.5 -6.0 L-87.6 -2.05 M-29.85 10.85 Q-25.45 12.05 -22.1 11.6 -24.65 14.05 -26.6 14.9 -29.2 16.0 -33.75 16.0 -36.55 16.0 -40.55 14.4 L-45.55 12.4 -42.8 11.3 Q-38.7 9.55 -35.5 7.5 -34.8 9.55 -29.85 10.85 M-30.85 11.95 Q-33.75 11.25 -36.0 10.1 L-37.85 11.45 -39.35 12.6 Q-35.95 14.5 -32.75 14.5 -31.05 14.5 -28.7 12.5 L-28.55 12.35 -30.85 11.95 M-10.0 25.7 Q-7.2 27.5 -2.5 27.5 L4.35 27.25 6.25 26.8 6.45 27.05 Q7.25 28.0 10.0 28.0 L12.7 27.75 16.0 27.5 Q15.5 30.4 11.2 33.4 8.55 35.25 6.05 36.0 L11.1 38.95 Q13.9 40.5 16.5 40.5 18.7 40.5 22.15 38.95 L22.85 38.65 25.2 40.4 Q27.15 41.5 29.5 41.5 32.85 41.5 37.1 39.4 41.3 37.35 42.5 35.0 48.05 37.65 48.75 37.8 L54.25 38.0 63.25 37.0 72.0 35.5 Q71.5 38.6 67.15 41.2 62.7 43.9 58.5 42.75 62.25 47.95 66.8 50.2 70.55 52.05 77.5 53.0 L72.2 55.8 68.0 56.0 64.8 55.7 61.0 55.0 Q60.85 57.2 56.05 59.0 L49.0 61.0 Q45.45 62.0 41.6 64.2 39.25 65.5 34.5 65.5 32.7 65.5 26.95 63.75 L30.65 61.25 Q33.85 59.0 32.5 55.5 30.55 56.95 27.6 57.95 24.25 59.0 21.0 59.0 16.75 59.0 13.25 56.65 12.0 58.0 10.4 59.05 6.9 61.25 2.5 61.25 -0.15 61.25 -3.9 58.75 -7.65 56.25 -9.5 55.1 L-8.5 55.25 Q-5.3 55.25 -2.3 53.05 L3.0 49.25 Q3.75 53.75 9.0 53.75 L10.7 53.5 11.9 53.25 14.75 52.75 15.5 52.75 14.7 54.5 Q18.9 54.45 23.2 52.45 27.4 50.45 27.5 48.75 26.2 50.0 23.55 50.4 L19.0 50.5 13.5 50.25 Q11.85 49.7 9.15 47.15 5.05 47.25 2.45 44.2 0.05 41.45 -0.3 36.35 -4.5 35.85 -8.35 34.1 -15.1 31.0 -17.0 25.0 L-17.0 22.5 Q-13.75 23.3 -10.0 25.7 M-11.1 28.05 L-9.6 30.15 Q-6.65 33.5 -2.0 33.5 0.65 33.5 3.7 32.2 L9.0 30.0 Q-1.85 30.0 -4.45 29.7 -8.5 29.25 -11.1 28.05 M-73.0 26.0 Q-69.6 26.0 -65.55 23.5 -62.8 21.75 -60.15 19.15 -61.35 24.35 -58.6 27.7 -55.9 31.0 -50.75 31.0 L-47.2 30.9 Q-46.8 30.75 -44.0 29.0 L-44.0 29.75 -45.75 32.2 Q-47.5 34.75 -47.5 35.75 -47.5 38.95 -42.4 40.75 L-39.0 41.6 -43.95 42.1 -55.0 43.0 -58.3 42.95 Q-60.7 42.75 -61.0 42.0 L-61.5 42.0 Q-60.2 45.2 -55.15 47.7 -49.85 50.4 -45.5 49.5 -49.75 51.6 -53.45 53.8 -56.1 55.0 -62.25 55.0 -70.3 55.0 -74.6 51.5 L-77.3 49.1 Q-78.7 48.0 -80.25 48.0 L-87.05 49.75 Q-93.65 51.5 -97.0 51.5 -102.6 51.5 -106.7 50.3 -111.05 48.95 -112.5 46.5 -111.6 47.2 -110.35 47.4 L-106.0 47.5 Q-102.1 47.5 -99.2 46.5 -95.8 45.35 -94.5 43.0 -92.65 39.7 -96.4 37.0 -101.4 33.35 -102.0 31.5 L-102.0 31.0 -100.15 31.75 Q-98.55 32.4 -98.0 33.0 L-93.5 33.0 -93.5 27.5 Q-95.15 25.3 -99.3 21.2 -102.45 18.15 -104.0 15.0 L-104.0 14.5 Q-102.05 17.65 -96.15 21.45 -89.8 25.5 -85.75 25.5 -82.85 25.5 -81.35 24.4 -79.95 23.3 -79.5 21.0 -79.05 24.95 -77.65 25.7 L-73.0 26.0 M-78.5 28.85 Q-82.45 31.3 -88.2 27.6 -87.55 35.2 -94.0 35.55 L-95.0 35.5 -95.0 36.0 Q-91.9 36.05 -89.75 40.0 -89.85 45.95 -96.7 49.15 -91.7 49.4 -78.5 44.05 -70.2 52.85 -56.2 50.9 -65.25 47.15 -64.15 38.25 -57.6 40.8 -50.5 40.0 -52.45 37.15 -51.0 34.0 -60.6 34.15 -64.5 26.5 -72.7 32.9 -78.5 28.85 M103.7 10.55 Q106.35 8.6 106.0 1.25 102.3 4.6 98.95 6.55 95.05 8.75 90.5 7.0 92.1 12.2 87.3 15.2 84.7 16.85 81.7 17.35 L83.15 18.4 Q85.15 19.5 88.75 19.5 92.25 19.5 95.0 18.0 94.1 22.1 92.2 24.3 90.05 26.8 85.5 29.0 L86.0 29.0 Q93.45 28.4 102.45 23.15 111.4 17.9 111.25 13.15 102.55 14.85 100.5 13.0 L103.7 10.55 M53.0 1.0 Q49.65 3.45 45.95 1.25 43.8 0.0 42.5 -2.0 39.5 1.2 35.1 0.05 33.15 -0.6 31.5 -2.0 32.3 1.7 30.2 4.8 28.65 7.2 26.0 7.0 29.15 7.95 32.55 7.95 L34.35 7.9 34.4 8.7 Q34.4 11.2 32.9 12.85 30.45 15.6 26.5 16.0 46.25 15.0 50.5 9.5 L50.5 9.0 49.2 9.2 Q44.55 9.55 41.05 6.35 46.9 5.35 52.05 1.95 L53.5 1.0 53.0 1.0 M41.45 41.0 Q37.5 44.8 31.95 45.45 31.45 48.8 29.2 51.45 26.05 55.35 21.45 56.35 L20.5 56.5 Q24.3 57.35 26.8 56.55 32.1 55.1 35.0 50.5 L42.0 51.0 41.25 53.5 Q39.3 58.7 34.0 60.5 41.65 62.8 48.2 58.3 52.15 55.65 53.65 51.0 L55.45 51.35 Q59.05 51.85 62.3 50.3 60.65 49.6 59.15 48.45 55.0 45.1 54.0 40.0 L43.25 39.0 41.45 41.0 M9.5 43.45 Q16.6 47.5 21.5 47.5 23.75 47.5 27.0 46.0 L27.0 45.5 19.3 44.15 Q14.65 43.35 12.0 42.0 9.75 40.8 5.6 40.05 L4.0 39.75 Q5.9 41.4 9.5 43.45 M8.5 55.3 Q4.45 55.25 1.1 52.65 L-4.65 56.6 Q3.05 62.8 9.75 56.1 L10.5 55.25 8.5 55.3" fill="#844823" fill-rule="evenodd" stroke="none"/>
      <path d="M-87.6 -2.05 L-76.5 -6.0 Q-74.95 -4.45 -72.95 -3.15 -70.95 -1.9 -68.0 -1.0 L-76.0 -0.5 Q-68.35 8.95 -62.0 9.5 -62.95 10.65 -66.25 11.25 -69.55 11.8 -72.25 10.75 -74.95 9.65 -77.55 7.05 -80.15 4.45 -83.0 -0.5 -84.25 -0.2 -87.6 -2.05 M-76.35 -3.2 Q-76.75 -3.75 -77.1 -3.75 -80.9 -2.95 -81.5 -1.75 L-78.55 2.7 Q-76.6 5.5 -73.25 8.0 -75.75 4.95 -76.55 3.1 L-78.5 -1.5 -75.0 -2.25 -75.25 -2.5 Q-75.9 -2.6 -76.35 -3.2 M-30.85 11.95 L-28.55 12.35 -28.7 12.5 Q-31.05 14.5 -32.75 14.5 -35.95 14.5 -39.35 12.6 L-37.85 11.45 -36.0 10.1 Q-33.75 11.25 -30.85 11.95 M-11.1 28.05 Q-8.5 29.25 -4.45 29.7 -1.85 30.0 9.0 30.0 L3.7 32.2 Q0.65 33.5 -2.0 33.5 -6.65 33.5 -9.6 30.15 L-11.1 28.05 M-66.0 29.5 L-66.85 30.35 Q-73.2 36.45 -79.5 31.5 -79.9 32.25 -80.55 32.5 -84.4 33.65 -87.0 31.0 -87.65 34.05 -89.5 36.5 L-88.5 37.6 Q-85.3 41.25 -87.9 45.0 L-87.05 44.8 Q-81.9 43.9 -78.5 40.05 -72.85 47.55 -64.0 48.0 L-64.0 47.5 Q-69.95 43.35 -67.0 35.5 -60.55 38.05 -53.85 37.75 L-54.2 35.35 Q-61.4 35.25 -66.0 29.5 M-78.5 28.85 Q-72.7 32.9 -64.5 26.5 -60.6 34.15 -51.0 34.0 -52.45 37.15 -50.5 40.0 -57.6 40.8 -64.15 38.25 -65.25 47.15 -56.2 50.9 -70.2 52.85 -78.5 44.05 -91.7 49.4 -96.7 49.15 -89.85 45.95 -89.75 40.0 -91.9 36.05 -95.0 36.0 L-95.0 35.5 -94.0 35.55 Q-87.55 35.2 -88.2 27.6 -82.45 31.3 -78.5 28.85 M103.7 10.55 L100.5 13.0 Q102.55 14.85 111.25 13.15 111.4 17.9 102.45 23.15 93.45 28.4 86.0 29.0 L85.5 29.0 Q90.05 26.8 92.2 24.3 94.1 22.1 95.0 18.0 92.25 19.5 88.75 19.5 85.15 19.5 83.15 18.4 L81.7 17.35 Q84.7 16.85 87.3 15.2 92.1 12.2 90.5 7.0 95.05 8.75 98.95 6.55 102.3 4.6 106.0 1.25 106.35 8.6 103.7 10.55 M98.55 8.6 Q95.6 9.85 92.5 9.75 92.0 11.25 91.45 13.6 L91.25 14.15 Q90.5 15.8 87.75 17.5 L92.45 16.85 Q94.45 16.2 96.15 14.7 L96.25 17.6 Q96.25 20.3 95.65 21.95 95.15 23.3 93.75 25.0 L93.75 25.25 100.95 20.85 Q104.85 18.45 107.2 16.05 101.5 16.95 97.75 13.2 L100.75 10.1 Q102.65 7.9 103.5 5.75 L98.55 8.6 M53.0 1.0 L53.5 1.0 52.05 1.95 Q46.9 5.35 41.05 6.35 44.55 9.55 49.2 9.2 L50.5 9.0 50.5 9.5 Q46.25 15.0 26.5 16.0 30.45 15.6 32.9 12.85 34.4 11.2 34.4 8.7 L34.35 7.9 32.55 7.95 Q29.15 7.95 26.0 7.0 28.65 7.2 30.2 4.8 32.3 1.7 31.5 -2.0 33.15 -0.6 35.1 0.05 39.5 1.2 42.5 -2.0 43.8 0.0 45.95 1.25 49.65 3.45 53.0 1.0 M46.5 3.5 L46.3 3.4 46.25 3.25 Q44.9 3.15 43.85 2.25 L41.75 0.5 Q40.75 1.7 39.9 1.9 L37.35 2.0 34.95 1.95 Q33.7 1.85 33.0 1.25 33.0 2.8 32.45 4.15 L32.45 4.25 Q31.8 5.55 30.75 6.25 33.8 5.75 34.8 6.75 35.5 7.45 35.5 9.75 L35.15 11.75 Q34.8 12.7 34.8 13.25 37.6 13.35 41.25 12.1 L47.0 10.0 Q43.25 10.35 41.3 9.4 39.35 8.45 38.75 5.25 L43.05 4.6 46.5 3.5 M45.65 41.75 Q43.05 41.65 44.15 41.75 45.2 41.8 43.85 42.4 42.5 42.95 40.45 44.9 38.35 46.85 34.25 47.5 38.25 48.85 40.5 49.0 L43.25 48.5 43.2 51.2 43.1 53.45 43.05 54.0 Q42.75 55.75 40.4 58.85 44.3 58.15 46.3 56.45 48.3 54.75 49.2 53.05 L50.65 50.0 Q51.3 48.6 52.65 48.25 54.15 48.2 55.5 48.75 L53.45 46.35 Q52.35 44.95 52.6 44.0 52.8 43.05 50.5 42.45 L45.65 41.75 M41.45 41.0 L43.25 39.0 54.0 40.0 Q55.0 45.1 59.15 48.45 60.65 49.6 62.3 50.3 59.05 51.85 55.45 51.35 L53.65 51.0 Q52.15 55.65 48.2 58.3 41.65 62.8 34.0 60.5 39.3 58.7 41.25 53.5 L42.0 51.0 35.0 50.5 Q32.1 55.1 26.8 56.55 24.3 57.35 20.5 56.5 L21.45 56.35 Q26.05 55.35 29.2 51.45 31.45 48.8 31.95 45.45 37.5 44.8 41.45 41.0 M9.5 43.45 Q5.9 41.4 4.0 39.75 L5.6 40.05 Q9.75 40.8 12.0 42.0 14.65 43.35 19.3 44.15 L27.0 45.5 27.0 46.0 Q23.75 47.5 21.5 47.5 16.6 47.5 9.5 43.45 M8.5 55.3 L10.5 55.25 9.75 56.1 Q3.05 62.8 -4.65 56.6 L1.1 52.65 Q4.45 55.25 8.5 55.3 M5.25 56.5 L1.0 55.5 -0.3 56.55 Q0.35 57.15 1.35 57.25 L4.0 56.95 5.25 56.5" fill="#ffcc00" fill-rule="evenodd" stroke="none"/>
      <path d="M-76.35 -3.2 Q-75.9 -2.6 -75.25 -2.5 L-75.0 -2.25 -78.5 -1.5 -76.55 3.1 Q-75.75 4.95 -73.25 8.0 -76.6 5.5 -78.55 2.7 L-81.5 -1.75 Q-80.9 -2.95 -77.1 -3.75 -76.75 -3.75 -76.35 -3.2 M-66.0 29.5 Q-61.4 35.25 -54.2 35.35 L-53.85 37.75 Q-60.55 38.05 -67.0 35.5 -69.95 43.35 -64.0 47.5 L-64.0 48.0 Q-72.85 47.55 -78.5 40.05 -81.9 43.9 -87.05 44.8 L-87.9 45.0 Q-85.3 41.25 -88.5 37.6 L-89.5 36.5 Q-87.65 34.05 -87.0 31.0 -84.4 33.65 -80.55 32.5 -79.9 32.25 -79.5 31.5 -73.2 36.45 -66.85 30.35 L-66.0 29.5 M-70.3 36.85 Q-69.45 35.2 -66.75 32.25 L-72.05 35.35 Q-73.25 36.0 -74.35 36.0 -75.4 36.0 -79.1 34.5 L-80.3 34.9 -82.35 35.25 -84.8 34.75 Q-85.95 34.25 -86.5 33.75 L-86.6 34.35 Q-86.75 34.65 -86.0 36.05 -85.25 37.4 -84.95 38.75 -84.7 40.05 -85.0 42.0 L-83.55 41.15 Q-79.5 39.05 -78.75 36.0 L-73.1 42.0 Q-71.35 43.7 -68.3 45.4 -70.05 44.15 -70.15 42.9 L-70.7 40.05 Q-71.1 38.5 -70.3 36.85 M98.55 8.6 L103.5 5.75 Q102.65 7.9 100.75 10.1 L97.75 13.2 Q101.5 16.95 107.2 16.05 104.85 18.45 100.95 20.85 L93.75 25.25 93.75 25.0 Q95.15 23.3 95.65 21.95 96.25 20.3 96.25 17.6 L96.15 14.7 Q94.45 16.2 92.45 16.85 L87.75 17.5 Q90.5 15.8 91.25 14.15 L91.45 13.6 Q92.0 11.25 92.5 9.75 95.6 9.85 98.55 8.6 M97.75 16.5 L97.75 16.75 98.0 20.1 Q100.45 18.75 102.25 18.0 L99.85 17.5 97.75 16.5 M96.75 11.75 L96.75 11.25 Q96.1 11.75 93.25 11.75 L93.0 13.75 Q96.75 12.7 96.75 11.75 M46.5 3.5 L43.05 4.6 38.75 5.25 Q39.35 8.45 41.3 9.4 43.25 10.35 47.0 10.0 L41.25 12.1 Q37.6 13.35 34.8 13.25 34.8 12.7 35.15 11.75 L35.5 9.75 Q35.5 7.45 34.8 6.75 33.8 5.75 30.75 6.25 31.8 5.55 32.45 4.25 L32.45 4.15 Q33.0 2.8 33.0 1.25 33.7 1.85 34.95 1.95 L37.35 2.0 39.9 1.9 Q40.75 1.7 41.75 0.5 L43.85 2.25 Q44.9 3.15 46.25 3.25 L46.3 3.4 46.5 3.5 M40.5 10.25 L40.5 10.0 Q38.65 10.25 37.7 9.05 L36.5 6.75 36.5 7.25 36.7 10.65 40.5 10.25 M41.75 3.0 L41.5 3.0 34.25 3.25 33.7 4.65 36.0 4.75 39.15 4.65 Q40.45 4.35 41.75 3.0 M45.65 41.75 L50.5 42.45 Q52.8 43.05 52.6 44.0 52.35 44.95 53.45 46.35 L55.5 48.75 Q54.15 48.2 52.65 48.25 51.3 48.6 50.65 50.0 L49.2 53.05 Q48.3 54.75 46.3 56.45 44.3 58.15 40.4 58.85 42.75 55.75 43.05 54.0 L43.1 53.45 43.2 51.2 43.25 48.5 40.5 49.0 Q38.25 48.85 34.25 47.5 38.35 46.85 40.45 44.9 42.5 42.95 43.85 42.4 45.2 41.8 44.15 41.75 43.05 41.65 45.65 41.75 M41.25 46.25 L44.5 45.75 44.9 47.6 45.25 49.75 44.9 52.3 44.7 53.35 Q46.0 52.4 46.95 50.15 48.2 47.25 51.5 47.5 50.1 45.1 50.0 44.25 48.7 44.25 47.55 43.75 46.4 43.25 45.35 43.25 42.0 45.9 41.0 46.25 L41.25 46.25 M5.25 56.5 L4.0 56.95 1.35 57.25 Q0.35 57.15 -0.3 56.55 L1.0 55.5 5.25 56.5" fill="#ffff00" fill-rule="evenodd" stroke="none"/>
      <path d="M-70.3 36.85 Q-71.1 38.5 -70.7 40.05 L-70.15 42.9 Q-70.05 44.15 -68.3 45.4 -71.35 43.7 -73.1 42.0 L-78.75 36.0 Q-79.5 39.05 -83.55 41.15 L-85.0 42.0 Q-84.7 40.05 -84.95 38.75 -85.25 37.4 -86.0 36.05 -86.75 34.65 -86.6 34.35 L-86.5 33.75 Q-85.95 34.25 -84.8 34.75 L-82.35 35.25 -80.3 34.9 -79.1 34.5 Q-75.4 36.0 -74.35 36.0 -73.25 36.0 -72.05 35.35 L-66.75 32.25 Q-69.45 35.2 -70.3 36.85 M96.75 11.75 Q96.75 12.7 93.0 13.75 L93.25 11.75 Q96.1 11.75 96.75 11.25 L96.75 11.75 M97.75 16.5 L99.85 17.5 102.25 18.0 Q100.45 18.75 98.0 20.1 L97.75 16.75 97.75 16.5 M41.75 3.0 Q40.45 4.35 39.15 4.65 L36.0 4.75 33.7 4.65 34.25 3.25 41.5 3.0 41.75 3.0 M40.5 10.25 L36.7 10.65 36.5 7.25 36.5 6.75 37.7 9.05 Q38.65 10.25 40.5 10.0 L40.5 10.25 M41.25 46.25 L41.0 46.25 Q42.0 45.9 45.35 43.25 46.4 43.25 47.55 43.75 48.7 44.25 50.0 44.25 50.1 45.1 51.5 47.5 48.2 47.25 46.95 50.15 46.0 52.4 44.7 53.35 L44.9 52.3 45.25 49.75 44.9 47.6 44.5 45.75 41.25 46.25" fill="#ffffff" fill-rule="evenodd" stroke="none"/>
    </g>
  </defs>
</svg>
