<?xml version="1.0" encoding="UTF-8" standalone="no"?>
<svg xmlns:ffdec="https://www.free-decompiler.com/flash" xmlns:xlink="http://www.w3.org/1999/xlink" ffdec:objectType="frame" height="499.45px" width="496.15px" xmlns="http://www.w3.org/2000/svg">
  <g transform="matrix(1.0, 0.0, 0.0, 1.0, 270.5, 376.7)">
    <use ffdec:characterId="162" height="413.2" transform="matrix(1.0, 0.0, 0.0, 1.0, -242.5, -305.85)" width="450.6" xlink:href="#shape0"/>
  </g>
  <defs>
    <g id="shape0" transform="matrix(1.0, 0.0, 0.0, 1.0, 242.5, 305.85)">
      <path d="M203.1 -173.05 Q202.55 -170.15 202.1 -169.35 201.4 -168.15 199.55 -161.6 197.7 -155.05 193.65 -148.25 184.55 -132.9 167.8 -129.35 168.6 -127.45 168.6 -125.25 168.6 -123.3 167.75 -120.05 163.15 -117.0 162.5 -112.0 160.5 -114.0 153.5 -114.0 143.45 -114.0 139.25 -111.35 135.05 -108.7 129.9 -99.2 L129.75 -98.95 Q135.55 -102.4 141.3 -103.65 147.3 -105.0 153.75 -105.0 158.7 -105.0 163.65 -103.0 168.55 -101.0 168.95 -101.35 169.3 -101.75 178.65 -105.0 187.95 -108.25 192.95 -107.6 197.95 -107.0 200.1 -103.65 L202.3 -99.75 203.25 -98.15 202.65 -96.8 Q203.35 -95.15 203.35 -93.25 204.0 -83.55 202.35 -75.3 199.15 -59.0 187.85 -59.0 L183.45 -59.2 Q178.2 -54.9 169.35 -54.0 174.85 -52.9 178.95 -50.0 L179.7 -49.45 180.95 -40.85 Q181.95 -34.1 181.5 -33.9 181.05 -33.75 183.75 -30.4 186.4 -27.05 186.3 -24.3 186.15 -21.55 189.0 -19.1 191.85 -16.7 197.05 -16.0 202.2 -15.35 205.05 -14.15 208.1 -8.05 208.1 2.5 208.1 7.6 202.65 12.9 198.35 17.05 192.3 18.75 L191.6 19.6 Q188.7 23.25 184.75 26.35 172.8 35.6 156.35 35.6 144.7 35.6 140.4 25.75 139.0 22.65 138.55 18.9 L138.35 15.6 138.4 14.6 137.6 16.15 Q137.5 20.75 136.75 23.1 L136.0 25.0 Q135.15 29.8 127.15 35.9 121.95 39.85 117.25 41.55 L118.65 42.8 Q124.45 41.1 131.0 41.15 141.35 41.3 147.75 46.3 155.35 52.3 155.35 64.25 155.35 67.15 154.25 71.65 152.6 78.5 149.15 84.1 138.6 101.1 115.35 101.1 93.15 101.1 81.9 91.1 78.1 87.7 76.05 83.55 75.05 81.5 74.75 80.05 71.75 79.8 69.15 78.6 66.4 84.45 59.85 89.65 56.45 92.3 52.5 94.35 L48.55 97.35 Q45.1 99.8 37.35 100.35 29.55 100.9 24.2 100.6 L21.85 100.6 12.75 99.75 Q10.65 101.05 7.85 102.35 -2.8 107.35 -11.5 107.35 -30.6 107.35 -52.3 82.15 L-59.1 73.6 -61.0 73.6 Q-66.15 69.8 -67.6 66.35 -68.5 64.15 -68.5 59.25 L-69.8 56.85 -74.35 55.85 Q-74.75 59.0 -76.45 62.6 -79.5 68.9 -85.7 73.85 -103.25 87.85 -141.0 87.85 -155.0 87.85 -160.5 82.15 L-169.0 82.35 Q-177.45 82.35 -181.75 74.85 L-182.75 73.0 -184.85 71.05 Q-186.5 68.85 -186.5 62.6 -186.5 55.55 -184.75 52.2 L-183.55 50.4 -184.7 47.15 Q-186.0 42.45 -186.0 36.6 -186.0 31.6 -179.3 26.85 -172.7 22.1 -163.5 20.45 -153.35 18.6 -144.85 21.65 L-141.0 23.35 -141.25 17.35 Q-141.25 14.1 -135.35 10.45 -134.55 9.95 -133.8 9.6 L-132.4 10.0 Q-130.05 9.2 -126.8 9.55 L-124.25 9.95 Q-128.35 7.35 -131.0 5.0 -133.65 5.9 -137.05 4.4 -137.8 4.75 -138.5 4.75 -141.6 4.75 -143.45 3.5 L-144.45 3.65 -146.5 1.35 Q-149.45 -2.35 -150.9 -6.45 -154.35 -5.5 -156.0 -5.5 -171.45 -5.5 -177.5 -14.75 -180.75 -19.7 -180.75 -26.0 L-180.55 -28.7 Q-180.25 -29.7 -179.45 -30.4 L-179.5 -31.5 Q-180.45 -30.85 -181.55 -30.2 -189.55 -25.25 -197.35 -24.4 -198.75 -23.35 -200.3 -22.4 -201.2 -20.25 -204.75 -18.75 -208.95 -17.0 -214.5 -17.0 -221.85 -17.0 -224.75 -19.3 -231.25 -20.75 -234.05 -24.65 -238.15 -30.45 -239.55 -36.5 -241.0 -42.6 -239.9 -46.5 L-238.95 -49.15 -237.3 -52.0 -236.15 -53.4 Q-238.6 -56.65 -240.2 -61.75 -242.5 -69.05 -242.5 -76.75 L-242.45 -77.5 -239.6 -80.1 Q-229.9 -88.1 -221.0 -87.5 L-217.55 -87.5 Q-217.85 -84.4 -216.5 -79.45 -213.8 -81.65 -209.15 -83.2 -203.9 -85.0 -198.6 -85.4 -197.35 -89.05 -193.5 -91.2 -189.4 -93.5 -183.75 -93.5 -178.15 -93.5 -174.45 -90.3 -172.55 -88.7 -171.55 -86.7 L-168.75 -87.0 Q-162.35 -87.0 -155.9 -83.5 L-154.0 -83.5 Q-143.5 -77.9 -139.75 -73.35 -137.45 -70.6 -136.05 -66.65 L-135.8 -66.7 -132.75 -67.0 Q-128.0 -67.0 -125.35 -65.8 -123.55 -65.0 -122.15 -63.4 -122.3 -64.8 -123.0 -67.2 -123.7 -69.6 -125.35 -70.85 -127.0 -72.15 -131.0 -74.55 -129.45 -79.05 -126.25 -82.85 -121.2 -88.75 -113.15 -91.9 -119.05 -93.8 -123.2 -98.25 -128.5 -103.9 -128.5 -108.75 L-128.35 -110.0 Q-147.15 -110.15 -152.9 -114.7 -154.8 -116.2 -155.15 -118.25 L-155.25 -119.1 -155.5 -123.5 Q-155.5 -136.7 -147.15 -145.75 -139.95 -153.45 -128.75 -156.25 -119.2 -158.65 -111.7 -156.45 -111.45 -161.1 -109.7 -164.15 -121.2 -165.1 -127.75 -168.05 -129.5 -166.65 -131.8 -165.25 -140.75 -159.75 -149.0 -159.75 L-150.15 -159.8 Q-157.95 -152.75 -172.0 -152.75 -185.8 -152.75 -192.3 -165.55 -194.9 -170.65 -195.75 -175.6 -187.4 -198.85 -159.5 -199.0 -170.45 -206.45 -191.1 -196.35 -187.9 -220.15 -168.5 -226.0 -164.0 -234.15 -157.8 -236.9 -151.65 -239.65 -140.45 -239.5 -129.25 -239.35 -122.7 -236.25 -116.15 -233.2 -113.6 -229.35 L-110.95 -229.8 -104.4 -230.0 Q-100.4 -230.15 -97.25 -228.65 L-92.65 -226.0 Q-92.9 -223.3 -93.5 -220.65 L-93.5 -218.5 Q-93.5 -215.15 -93.9 -211.35 L-92.9 -210.2 -93.45 -208.45 Q-94.35 -205.75 -95.0 -205.0 -91.4 -203.1 -87.05 -198.7 L-84.05 -195.4 -84.4 -196.25 Q-81.7 -190.05 -81.3 -185.0 -79.95 -185.65 -77.4 -185.9 -71.65 -186.5 -65.1 -184.35 -57.45 -181.85 -52.85 -176.65 -48.35 -171.55 -47.45 -164.65 -38.75 -163.85 -31.1 -156.6 -31.5 -162.3 -31.5 -166.0 -31.5 -171.1 -26.95 -177.8 -24.6 -181.3 -21.6 -184.35 -39.1 -185.1 -46.95 -189.75 L-47.45 -190.05 Q-65.9 -191.75 -72.55 -202.25 -75.15 -206.45 -75.8 -211.9 L-76.0 -216.85 Q-74.25 -220.4 -71.0 -223.4 -67.3 -226.9 -60.5 -230.5 -56.9 -232.35 -50.25 -237.4 -44.15 -241.05 -36.8 -240.1 L-38.2 -242.1 Q-40.45 -244.85 -42.5 -245.0 L-40.25 -247.25 Q-38.9 -248.6 -37.5 -249.0 L-41.7 -249.5 -45.5 -250.0 Q-43.5 -255.35 -40.45 -258.45 -36.85 -262.0 -31.5 -263.0 L-23.95 -263.0 Q-20.25 -272.3 -12.25 -278.55 -2.75 -286.0 2.6 -286.45 L11.95 -286.2 Q15.95 -285.5 16.4 -282.8 19.45 -286.6 21.3 -287.05 L30.85 -287.5 Q38.55 -287.5 45.5 -283.0 49.35 -280.5 51.25 -277.3 50.75 -272.45 48.9 -268.0 45.45 -259.75 41.1 -255.3 L42.55 -256.0 45.5 -257.2 Q45.5 -253.65 44.9 -249.35 44.3 -245.05 43.5 -242.5 46.5 -243.5 48.5 -243.5 L50.0 -243.4 Q50.9 -243.15 51.0 -242.0 50.9 -244.4 57.05 -245.85 61.85 -247.0 66.5 -247.0 78.6 -247.0 90.5 -240.45 95.25 -237.85 98.55 -234.85 L98.6 -233.5 Q98.6 -230.3 95.15 -223.8 92.55 -218.95 89.4 -216.75 L89.95 -215.35 Q91.35 -211.4 91.35 -206.1 91.35 -201.65 84.4 -197.5 79.4 -194.5 72.35 -192.9 72.85 -189.75 72.85 -185.5 72.85 -179.95 69.15 -169.75 66.5 -162.35 63.35 -159.15 L64.1 -156.25 Q65.35 -150.3 65.35 -143.1 65.35 -140.85 64.85 -137.9 L64.85 -132.85 Q64.85 -131.5 62.5 -126.1 60.1 -120.75 60.1 -119.75 L61.5 -112.85 61.85 -110.95 Q61.95 -115.3 63.45 -118.95 68.3 -120.4 73.65 -122.7 79.0 -125.0 87.75 -125.0 94.45 -125.0 100.6 -120.9 L105.7 -117.3 109.45 -115.0 106.1 -124.0 107.95 -125.05 Q110.25 -126.2 114.5 -127.5 L114.5 -130.0 113.7 -133.95 Q113.25 -136.25 113.45 -137.95 L116.35 -139.55 Q116.4 -145.0 117.0 -149.55 L115.15 -153.3 Q113.15 -157.95 112.1 -162.85 112.1 -170.7 112.8 -175.4 L110.6 -177.85 Q110.2 -178.5 110.15 -182.3 114.4 -190.6 120.9 -195.4 129.5 -201.75 141.5 -201.5 L139.6 -197.15 Q138.7 -196.85 137.9 -196.4 L136.3 -195.0 137.5 -195.0 138.55 -194.1 139.5 -193.5 Q140.95 -193.5 142.8 -194.5 144.6 -195.5 147.0 -195.5 L147.0 -196.5 142.95 -197.45 Q143.6 -199.15 144.8 -200.4 L145.35 -200.9 148.55 -202.55 Q156.7 -206.5 160.75 -206.5 167.25 -206.5 175.35 -200.4 180.0 -196.9 182.0 -193.8 174.75 -194.05 169.4 -190.4 164.0 -186.75 164.6 -184.25 L164.5 -184.2 Q169.85 -186.5 177.75 -186.5 186.85 -186.5 196.35 -179.55 201.05 -176.1 203.1 -173.05 M71.05 -85.5 L76.8 -87.25 Q81.65 -88.5 85.0 -88.5 L86.5 -88.45 Q81.8 -95.75 79.0 -97.6 75.35 -100.0 67.0 -100.0 55.8 -100.0 51.65 -94.5 48.9 -90.8 47.0 -79.0 41.7 -80.7 37.0 -78.55 33.0 -76.65 31.0 -73.0 L33.95 -73.7 36.75 -74.0 Q40.55 -74.0 49.65 -70.7 55.8 -68.5 58.3 -67.2 L63.4 -68.4 Q67.7 -69.3 70.85 -68.55 74.0 -67.85 78.4 -69.9 82.8 -72.0 85.5 -72.0 L88.7 -71.7 90.3 -71.45 Q96.0 -74.2 104.7 -75.65 L114.75 -76.85 Q111.85 -79.8 108.95 -81.3 104.65 -83.5 98.75 -83.5 96.25 -83.5 91.75 -82.0 87.3 -80.5 84.75 -80.5 84.1 -80.5 78.95 -82.55 73.95 -84.55 72.0 -85.5 L71.05 -85.5 M9.5 -161.15 Q9.1 -163.85 2.55 -166.9 -4.1 -170.0 -9.25 -170.0 -16.15 -170.0 -20.5 -166.5 -25.5 -162.5 -25.5 -155.0 -25.5 -151.6 -24.5 -149.4 -23.7 -147.65 -23.5 -144.2 L-24.1 -142.6 -24.25 -142.05 -25.65 -143.3 Q-27.4 -144.65 -29.7 -145.65 -35.3 -148.0 -43.5 -148.0 -54.3 -148.0 -61.4 -143.65 -66.65 -140.45 -71.1 -133.85 L-66.75 -134.0 Q-61.8 -134.0 -58.8 -131.75 -56.2 -129.75 -54.0 -125.0 -54.5 -125.5 -56.75 -125.5 -60.85 -125.5 -64.95 -120.45 L-65.35 -119.9 Q-72.4 -119.5 -78.2 -116.45 -86.5 -112.15 -86.5 -105.0 L-86.4 -102.25 -89.2 -100.4 Q-91.55 -98.6 -92.5 -97.0 L-94.95 -92.6 Q-96.0 -90.15 -96.0 -87.0 -96.0 -81.6 -94.05 -80.8 L-87.6 -80.55 Q-88.95 -78.45 -90.3 -74.8 L-90.5 -74.2 -85.3 -75.5 Q-81.1 -76.5 -78.5 -76.5 -76.5 -76.5 -73.45 -75.15 L-69.0 -73.0 Q-67.7 -81.9 -65.5 -84.5 -67.3 -103.95 -38.0 -103.0 -28.85 -116.25 -15.85 -108.05 L-7.1 -107.35 Q-0.4 -106.35 6.0 -103.0 L12.5 -103.0 Q11.25 -105.3 9.05 -107.5 7.0 -109.6 5.1 -110.55 9.7 -113.75 11.75 -114.25 L18.5 -114.5 Q23.7 -114.5 26.95 -113.35 30.1 -112.2 32.5 -109.5 32.5 -117.4 27.15 -123.65 21.7 -130.0 14.5 -130.0 10.2 -130.0 5.7 -128.95 L-0.15 -127.25 -3.5 -131.7 -5.8 -135.15 Q-10.95 -138.65 -12.0 -141.45 L-12.25 -142.25 -12.45 -145.5 -12.45 -146.0 -12.0 -146.45 Q-10.3 -148.1 -8.0 -148.5 L-10.0 -150.4 -12.0 -150.5 -12.45 -150.5 -12.5 -150.5 Q-12.4 -154.5 -11.6 -157.05 L-10.5 -159.5 Q-8.05 -163.0 -1.25 -163.0 L4.6 -162.5 9.5 -161.15 M37.0 -13.5 Q35.2 -13.5 33.35 -11.65 L30.7 -8.7 35.25 -8.0 Q38.95 -8.0 40.7 -9.1 44.3 -11.45 47.0 -12.5 L41.15 -13.0 37.0 -13.5 M139.55 -60.95 Q135.4 -62.9 129.7 -67.1 135.85 -54.0 136.3 -43.85 137.8 -45.0 139.55 -45.85 143.45 -47.75 147.1 -47.7 148.6 -50.4 152.0 -52.2 154.95 -53.8 158.65 -54.3 150.75 -55.8 139.55 -60.95 M105.5 -10.5 Q105.55 -9.0 104.3 -8.6 L101.5 -8.5 Q101.75 -6.05 101.45 -2.85 101.15 0.55 100.35 2.7 L103.7 1.4 Q107.0 -0.5 107.0 -4.5 107.0 -5.85 106.35 -8.1 L105.5 -10.5 M42.8 44.95 L39.7 47.85 Q38.45 48.8 36.0 50.0 L42.0 50.5 Q46.6 50.5 48.85 49.25 51.15 48.0 53.5 44.0 L46.75 44.8 42.8 44.95 M45.1 40.85 Q47.95 39.95 49.65 38.55 L51.0 37.0 47.75 36.75 Q43.35 36.25 39.8 34.95 L37.5 34.0 37.0 35.55 35.65 37.8 35.05 38.5 Q33.75 39.8 32.3 40.3 L33.2 40.9 Q34.4 41.55 35.6 41.85 L37.25 42.0 Q41.5 42.0 45.1 40.85 M20.0 35.0 L20.0 32.5 12.8 34.8 8.85 35.4 10.45 35.95 Q13.65 37.0 15.0 37.0 L17.8 36.9 Q18.9 36.55 20.0 35.0 M-29.45 -135.25 L-34.5 -134.0 -36.3 -136.0 Q-37.9 -138.0 -40.65 -138.15 L-38.1 -139.95 Q-34.55 -142.0 -31.75 -142.0 -27.55 -142.0 -25.2 -140.8 -23.2 -139.8 -20.0 -136.5 -24.6 -136.5 -29.45 -135.25 M-7.35 -233.2 Q-4.15 -232.25 -2.5 -231.5 L-2.5 -232.0 Q-6.95 -237.3 -9.3 -238.75 -12.95 -241.0 -19.75 -241.0 -26.3 -241.0 -30.1 -239.7 -34.4 -238.3 -38.05 -234.45 -33.45 -233.4 -31.1 -231.9 -28.75 -230.45 -27.85 -231.25 -26.95 -232.1 -22.3 -233.5 -17.7 -234.9 -14.6 -234.7 -11.55 -234.5 -7.35 -233.2 M-84.5 -15.0 Q-84.75 -15.0 -86.85 -14.0 L-89.85 -12.5 -92.45 -11.45 -95.35 -10.6 -94.35 -9.4 Q-93.5 -8.6 -92.65 -8.3 L-86.25 -8.0 -81.65 -8.1 Q-79.6 -8.45 -79.0 -10.0 L-79.0 -13.0 Q-81.15 -13.0 -82.5 -14.0 L-83.1 -14.4 Q-83.95 -15.0 -84.5 -15.0 M-75.5 23.5 L-76.95 23.6 -80.55 24.5 -83.6 25.35 -85.0 25.5 -85.5 25.5 -83.4 27.4 Q-78.85 31.0 -73.5 31.0 L-69.15 30.15 -66.5 29.0 -68.1 27.9 -70.9 25.75 Q-73.45 23.75 -75.1 23.55 L-75.5 23.5 M-71.35 36.45 L-71.05 36.95 Q-69.95 37.75 -67.2 38.8 -63.85 40.0 -62.25 40.0 L-61.3 39.85 -61.1 39.75 -60.5 39.5 -60.25 39.0 -60.0 38.5 -64.05 38.05 -66.75 37.3 Q-70.4 36.1 -72.5 34.5 L-71.35 36.45" fill="#4f4f4f" fill-rule="evenodd" stroke="none"/>
      <path d="M110.15 -182.3 L110.1 -184.5 Q110.1 -194.9 114.3 -202.1 120.6 -212.95 135.0 -213.55 136.9 -214.5 139.85 -214.5 L142.5 -214.1 Q143.75 -215.95 146.1 -217.4 150.55 -220.15 157.1 -220.65 163.55 -221.2 168.1 -219.3 171.15 -218.05 172.35 -216.05 177.15 -214.35 180.8 -208.4 184.1 -203.0 185.35 -197.3 194.85 -196.3 199.8 -190.15 204.75 -184.0 203.8 -177.3 L203.1 -173.05 Q201.05 -176.1 196.35 -179.55 186.85 -186.5 177.75 -186.5 169.85 -186.5 164.5 -184.2 L164.6 -184.25 Q164.0 -186.75 169.4 -190.4 174.75 -194.05 182.0 -193.8 180.0 -196.9 175.35 -200.4 167.25 -206.5 160.75 -206.5 156.7 -206.5 148.55 -202.55 L145.35 -200.9 144.8 -200.4 Q143.6 -199.15 142.95 -197.45 L147.0 -196.5 147.0 -195.5 Q144.6 -195.5 142.8 -194.5 140.95 -193.5 139.5 -193.5 L138.55 -194.1 137.5 -195.0 136.3 -195.0 137.9 -196.4 Q138.7 -196.85 139.6 -197.15 L141.5 -201.5 Q129.5 -201.75 120.9 -195.4 114.4 -190.6 110.15 -182.3 M167.75 -120.05 L168.75 -120.4 Q176.6 -123.05 184.0 -123.6 206.1 -125.15 206.1 -106.35 204.7 -101.55 203.25 -98.15 L202.3 -99.75 200.1 -103.65 Q197.95 -107.0 192.95 -107.6 187.95 -108.25 178.65 -105.0 169.3 -101.75 168.95 -101.35 168.55 -101.0 163.65 -103.0 158.7 -105.0 153.75 -105.0 147.3 -105.0 141.3 -103.65 135.55 -102.4 129.75 -98.95 L129.9 -99.2 Q135.05 -108.7 139.25 -111.35 143.45 -114.0 153.5 -114.0 160.5 -114.0 162.5 -112.0 163.15 -117.0 167.75 -120.05 M179.7 -49.45 L180.95 -48.4 185.1 -39.3 185.1 -39.0 184.85 -36.0 184.6 -35.35 Q188.2 -31.75 190.85 -27.25 L191.45 -26.15 Q200.45 -21.9 204.4 -15.3 L205.05 -14.15 Q202.2 -15.35 197.05 -16.0 191.85 -16.7 189.0 -19.1 186.15 -21.55 186.3 -24.3 186.4 -27.05 183.75 -30.4 181.05 -33.75 181.5 -33.9 181.95 -34.1 180.95 -40.85 L179.7 -49.45 M-242.45 -77.5 L-242.5 -77.5 -242.35 -79.1 -238.7 -88.2 -238.0 -88.95 -236.85 -90.05 Q-228.9 -96.75 -207.2 -100.55 -205.8 -102.75 -203.05 -104.45 -197.85 -107.65 -190.5 -107.9 -183.05 -108.1 -177.95 -105.1 -173.5 -102.45 -172.5 -98.05 -168.75 -100.7 -163.9 -100.35 -156.45 -99.75 -147.15 -92.15 -139.8 -86.15 -133.3 -77.65 L-131.0 -74.55 Q-127.0 -72.15 -125.35 -70.85 -123.7 -69.6 -123.0 -67.2 -122.3 -64.8 -122.15 -63.4 -123.55 -65.0 -125.35 -65.8 -128.0 -67.0 -132.75 -67.0 L-135.8 -66.7 -136.05 -66.65 Q-137.45 -70.6 -139.75 -73.35 -143.5 -77.9 -154.0 -83.5 L-155.9 -83.5 Q-162.35 -87.0 -168.75 -87.0 L-171.55 -86.7 Q-172.55 -88.7 -174.45 -90.3 -178.15 -93.5 -183.75 -93.5 -189.4 -93.5 -193.5 -91.2 -197.35 -89.05 -198.6 -85.4 -203.9 -85.0 -209.15 -83.2 -213.8 -81.65 -216.5 -79.45 -217.85 -84.4 -217.55 -87.5 L-221.0 -87.5 Q-229.9 -88.1 -239.6 -80.1 L-242.45 -77.5 M-195.75 -175.6 Q-196.25 -178.25 -196.25 -180.85 -196.25 -187.6 -195.95 -188.75 -195.2 -192.0 -191.1 -196.35 -193.4 -199.35 -195.05 -204.7 -197.5 -212.6 -197.5 -219.85 -197.5 -224.8 -194.25 -230.3 -190.2 -237.1 -182.25 -242.5 -161.05 -256.75 -119.0 -256.75 -107.6 -256.75 -99.0 -243.7 -96.15 -239.45 -94.1 -234.45 -92.5 -230.5 -92.5 -229.5 L-92.65 -226.0 -97.25 -228.65 Q-100.4 -230.15 -104.4 -230.0 L-110.95 -229.8 -113.6 -229.35 Q-116.15 -233.2 -122.7 -236.25 -129.25 -239.35 -140.45 -239.5 -151.65 -239.65 -157.8 -236.9 -164.0 -234.15 -168.5 -226.0 -187.9 -220.15 -191.1 -196.35 -170.45 -206.45 -159.5 -199.0 -187.4 -198.85 -195.75 -175.6 M-92.9 -210.2 L-92.6 -209.85 Q-88.0 -204.15 -84.8 -197.1 L-84.7 -196.95 -84.4 -196.25 -84.05 -195.4 -87.05 -198.7 Q-91.4 -203.1 -95.0 -205.0 -94.35 -205.75 -93.45 -208.45 L-92.9 -210.2 M-76.0 -216.85 L-76.0 -218.35 -76.0 -226.85 Q-75.75 -232.35 -74.15 -236.25 -69.9 -246.6 -55.05 -249.45 L-55.5 -253.35 Q-55.5 -268.95 -46.85 -277.45 -39.7 -284.45 -27.75 -285.95 -20.8 -286.85 -14.1 -285.8 -6.9 -296.45 4.85 -302.15 15.75 -307.4 25.4 -305.2 35.0 -303.0 38.8 -300.9 42.6 -298.85 47.05 -292.8 51.45 -286.75 51.4 -280.25 L51.25 -277.3 Q49.35 -280.5 45.5 -283.0 38.55 -287.5 30.85 -287.5 L21.3 -287.05 Q19.45 -286.6 16.4 -282.8 15.95 -285.5 11.95 -286.2 L2.6 -286.45 Q-2.75 -286.0 -12.25 -278.55 -20.25 -272.3 -23.95 -263.0 L-31.5 -263.0 Q-36.85 -262.0 -40.45 -258.45 -43.5 -255.35 -45.5 -250.0 L-41.7 -249.5 -37.5 -249.0 Q-38.9 -248.6 -40.25 -247.25 L-42.5 -245.0 Q-40.45 -244.85 -38.2 -242.1 L-36.8 -240.1 Q-44.15 -241.05 -50.25 -237.4 -56.9 -232.35 -60.5 -230.5 -67.3 -226.9 -71.0 -223.4 -74.25 -220.4 -76.0 -216.85 M45.5 -257.2 Q52.2 -259.75 59.95 -261.0 L60.6 -261.1 60.95 -261.15 61.3 -261.2 62.4 -261.35 62.75 -261.4 Q75.15 -262.95 82.9 -260.0 85.95 -258.85 88.05 -257.0 90.1 -255.65 92.2 -252.65 95.0 -248.65 96.85 -242.95 98.3 -238.45 98.55 -234.85 95.25 -237.85 90.5 -240.45 78.6 -247.0 66.5 -247.0 61.85 -247.0 57.05 -245.85 50.9 -244.4 51.0 -242.0 50.9 -243.15 50.0 -243.4 L48.5 -243.5 Q46.5 -243.5 43.5 -242.5 44.3 -245.05 44.9 -249.35 45.5 -253.65 45.5 -257.2 M63.45 -118.95 Q64.95 -122.6 67.85 -125.55 73.1 -130.85 81.55 -132.6 89.5 -134.2 96.55 -132.1 99.95 -131.1 102.3 -129.45 103.75 -131.75 106.7 -133.85 108.9 -135.45 113.45 -137.95 113.25 -136.25 113.7 -133.95 L114.5 -130.0 114.5 -127.5 Q110.25 -126.2 107.95 -125.05 L106.1 -124.0 109.45 -115.0 105.7 -117.3 100.6 -120.9 Q94.45 -125.0 87.75 -125.0 79.0 -125.0 73.65 -122.7 68.3 -120.4 63.45 -118.95 M9.5 -161.15 L4.6 -162.5 -1.25 -163.0 Q-8.05 -163.0 -10.5 -159.5 L-11.6 -157.05 Q-12.4 -154.5 -12.5 -150.5 L-12.45 -150.5 -12.0 -150.5 -10.0 -150.4 -8.0 -148.5 Q-10.3 -148.1 -12.0 -146.45 L-12.45 -146.0 -12.45 -145.5 -12.25 -142.25 -12.0 -141.45 Q-10.95 -138.65 -5.8 -135.15 L-3.5 -131.7 -0.15 -127.25 5.7 -128.95 Q10.2 -130.0 14.5 -130.0 21.7 -130.0 27.15 -123.65 32.5 -117.4 32.5 -109.5 30.1 -112.2 26.95 -113.35 23.7 -114.5 18.5 -114.5 L11.75 -114.25 Q9.7 -113.75 5.1 -110.55 7.0 -109.6 9.05 -107.5 11.25 -105.3 12.5 -103.0 L6.0 -103.0 Q-0.4 -106.35 -7.1 -107.35 L-15.85 -108.05 Q-28.85 -116.25 -38.0 -103.0 -67.3 -103.95 -65.5 -84.5 -67.7 -81.9 -69.0 -73.0 L-73.45 -75.15 Q-76.5 -76.5 -78.5 -76.5 -81.1 -76.5 -85.3 -75.5 L-90.5 -74.2 -90.3 -74.8 Q-88.95 -78.45 -87.6 -80.55 L-94.05 -80.8 Q-96.0 -81.6 -96.0 -87.0 -96.0 -90.15 -94.95 -92.6 L-92.5 -97.0 Q-91.55 -98.6 -89.2 -100.4 L-86.4 -102.25 -86.5 -105.0 Q-86.5 -112.15 -78.2 -116.45 -72.4 -119.5 -65.35 -119.9 L-64.95 -120.45 Q-60.85 -125.5 -56.75 -125.5 -54.5 -125.5 -54.0 -125.0 -56.2 -129.75 -58.8 -131.75 -61.8 -134.0 -66.75 -134.0 L-71.1 -133.85 Q-66.65 -140.45 -61.4 -143.65 -54.3 -148.0 -43.5 -148.0 -35.3 -148.0 -29.7 -145.65 -27.4 -144.65 -25.65 -143.3 L-24.25 -142.05 -24.1 -142.6 -23.5 -144.2 Q-23.7 -147.65 -24.5 -149.4 -25.5 -151.6 -25.5 -155.0 -25.5 -162.5 -20.5 -166.5 -16.15 -170.0 -9.25 -170.0 -4.1 -170.0 2.55 -166.9 9.1 -163.85 9.5 -161.15 M71.05 -85.5 L72.0 -85.5 Q73.95 -84.55 78.95 -82.55 84.1 -80.5 84.75 -80.5 87.3 -80.5 91.75 -82.0 96.25 -83.5 98.75 -83.5 104.65 -83.5 108.95 -81.3 111.85 -79.8 114.75 -76.85 L104.7 -75.65 Q96.0 -74.2 90.3 -71.45 L88.7 -71.7 85.5 -72.0 Q82.8 -72.0 78.4 -69.9 74.0 -67.85 70.85 -68.55 67.7 -69.3 63.4 -68.4 L58.3 -67.2 Q55.8 -68.5 49.65 -70.7 40.55 -74.0 36.75 -74.0 L33.95 -73.7 31.0 -73.0 Q33.0 -76.65 37.0 -78.55 41.7 -80.7 47.0 -79.0 48.9 -90.8 51.65 -94.5 55.8 -100.0 67.0 -100.0 75.35 -100.0 79.0 -97.6 81.8 -95.75 86.5 -88.45 L85.0 -88.5 Q81.65 -88.5 76.8 -87.25 L71.05 -85.5 M-7.35 -233.2 Q-11.55 -234.5 -14.6 -234.7 -17.7 -234.9 -22.3 -233.5 -26.95 -232.1 -27.85 -231.25 -28.75 -230.45 -31.1 -231.9 -33.45 -233.4 -38.05 -234.45 -34.4 -238.3 -30.1 -239.7 -26.3 -241.0 -19.75 -241.0 -12.95 -241.0 -9.3 -238.75 -6.95 -237.3 -2.5 -232.0 L-2.5 -231.5 Q-4.15 -232.25 -7.35 -233.2 M-29.45 -135.25 Q-24.6 -136.5 -20.0 -136.5 -23.2 -139.8 -25.2 -140.8 -27.55 -142.0 -31.75 -142.0 -34.55 -142.0 -38.1 -139.95 L-40.65 -138.15 Q-37.9 -138.0 -36.3 -136.0 L-34.5 -134.0 -29.45 -135.25" fill="#616161" fill-rule="evenodd" stroke="none"/>
      <path d="M37.0 -13.5 L41.15 -13.0 47.0 -12.5 Q44.3 -11.45 40.7 -9.1 38.95 -8.0 35.25 -8.0 L30.7 -8.7 33.35 -11.65 Q35.2 -13.5 37.0 -13.5 M105.5 -10.5 L106.35 -8.1 Q107.0 -5.85 107.0 -4.5 107.0 -0.5 103.7 1.4 L100.35 2.7 Q101.15 0.55 101.45 -2.85 101.75 -6.05 101.5 -8.5 L104.3 -8.6 Q105.55 -9.0 105.5 -10.5 M42.8 44.95 L46.75 44.8 53.5 44.0 Q51.15 48.0 48.85 49.25 46.6 50.5 42.0 50.5 L36.0 50.0 Q38.45 48.8 39.7 47.85 L42.8 44.95 M45.1 40.85 Q41.5 42.0 37.25 42.0 L35.6 41.85 Q34.4 41.55 33.2 40.9 L32.3 40.3 Q33.75 39.8 35.05 38.5 L35.65 37.8 37.0 35.55 37.5 34.0 39.8 34.95 Q43.35 36.25 47.75 36.75 L51.0 37.0 49.65 38.55 Q47.95 39.95 45.1 40.85 M40.5 39.5 L45.0 39.2 46.35 38.1 45.15 37.85 39.15 36.25 37.8 38.45 37.35 39.15 40.5 39.5 M20.0 35.0 Q18.9 36.55 17.8 36.9 L15.0 37.0 Q13.65 37.0 10.45 35.95 L8.85 35.4 12.8 34.8 20.0 32.5 20.0 35.0 M-84.5 -15.0 Q-83.95 -15.0 -83.1 -14.4 L-82.5 -14.0 Q-81.15 -13.0 -79.0 -13.0 L-79.0 -10.0 Q-79.6 -8.45 -81.65 -8.1 L-86.25 -8.0 -92.65 -8.3 Q-93.5 -8.6 -94.35 -9.4 L-95.35 -10.6 -92.45 -11.45 -89.85 -12.5 -86.85 -14.0 Q-84.75 -15.0 -84.5 -15.0 M-84.0 -10.5 L-79.45 -10.95 -81.15 -11.55 -85.05 -13.15 Q-86.3 -12.45 -87.6 -11.85 L-90.3 -10.8 -89.05 -10.6 -84.0 -10.5 M-71.35 36.45 L-72.5 34.5 Q-70.4 36.1 -66.75 37.3 L-64.05 38.05 -60.0 38.5 -60.25 39.0 -60.5 39.5 -61.1 39.75 -61.3 39.85 -62.25 40.0 Q-63.85 40.0 -67.2 38.8 -69.95 37.75 -71.05 36.95 L-71.35 36.45 M-75.5 23.5 L-75.1 23.55 Q-73.45 23.75 -70.9 25.75 L-68.1 27.9 -66.5 29.0 -69.15 30.15 -73.5 31.0 Q-78.85 31.0 -83.4 27.4 L-85.5 25.5 -85.0 25.5 -83.6 25.35 -80.55 24.5 -76.95 23.6 -75.5 23.5 M-71.75 29.0 L-70.8 28.95 -72.2 27.8 -76.2 24.3 Q-77.55 25.2 -79.0 25.85 L-81.45 26.8 -78.85 27.9 Q-75.45 29.0 -71.75 29.0" fill="#844823" fill-rule="evenodd" stroke="none"/>
      <path d="M40.5 39.5 L37.35 39.15 37.8 38.45 39.15 36.25 45.15 37.85 46.35 38.1 45.0 39.2 40.5 39.5 M-84.0 -10.5 L-89.05 -10.6 -90.3 -10.8 -87.6 -11.85 Q-86.3 -12.45 -85.05 -13.15 L-81.15 -11.55 -79.45 -10.95 -84.0 -10.5 M-71.75 29.0 Q-75.45 29.0 -78.85 27.9 L-81.45 26.8 -79.0 25.85 Q-77.55 25.2 -76.2 24.3 L-72.2 27.8 -70.8 28.95 -71.75 29.0" fill="#ffcc00" fill-rule="evenodd" stroke="none"/>
    </g>
  </defs>
</svg>
