<?xml version="1.0" encoding="UTF-8" standalone="no"?>
<svg xmlns:ffdec="https://www.free-decompiler.com/flash" xmlns:xlink="http://www.w3.org/1999/xlink" ffdec:objectType="frame" height="499.45px" width="496.15px" xmlns="http://www.w3.org/2000/svg">
  <g transform="matrix(1.0, 0.0, 0.0, 1.0, 270.5, 376.7)">
    <use ffdec:characterId="164" height="420.8" transform="matrix(1.0, 0.0, 0.0, 1.0, -249.85, -318.5)" width="463.65" xlink:href="#shape0"/>
  </g>
  <defs>
    <g id="shape0" transform="matrix(1.0, 0.0, 0.0, 1.0, 249.85, 318.5)">
      <path d="M200.5 -186.95 L200.55 -184.35 Q198.5 -173.4 196.15 -168.05 194.95 -160.9 188.9 -154.1 181.9 -146.25 170.65 -143.55 169.05 -141.7 163.55 -139.75 160.3 -138.6 157.55 -137.95 L157.55 -136.85 157.55 -136.1 157.6 -136.1 Q158.6 -136.15 159.25 -135.5 165.75 -136.8 169.35 -134.3 L169.1 -133.35 168.5 -131.5 168.5 -128.5 Q169.9 -129.4 172.7 -129.8 L172.3 -130.85 Q173.8 -127.7 173.8 -122.0 173.8 -120.5 172.6 -118.2 L172.65 -117.65 174.1 -120.2 175.55 -122.1 Q174.5 -119.45 174.5 -118.35 L174.25 -111.0 Q173.8 -114.6 169.3 -116.4 164.8 -118.25 159.85 -118.25 154.15 -118.25 150.65 -117.0 146.4 -115.5 143.0 -111.5 156.55 -116.35 174.25 -111.0 L187.4 -114.35 Q192.1 -115.5 198.0 -115.5 204.45 -115.5 208.4 -114.15 211.35 -113.15 213.3 -111.35 212.45 -108.15 210.2 -104.15 207.9 -100.15 205.0 -98.0 207.45 -96.55 208.6 -92.55 209.55 -89.15 209.55 -82.15 209.55 -77.15 207.15 -72.6 202.95 -64.6 193.15 -64.6 187.25 -64.6 181.9 -67.5 175.05 -60.75 164.4 -60.75 149.95 -60.75 139.55 -69.75 136.1 -72.75 133.7 -76.25 L132.15 -78.75 126.0 -81.65 Q116.35 -86.85 116.15 -87.0 L116.0 -86.3 Q119.05 -84.05 121.05 -77.65 123.15 -70.9 123.15 -64.55 121.85 -58.0 119.85 -55.9 L120.0 -55.75 Q125.65 -48.4 125.65 -41.35 122.5 -33.0 119.35 -29.5 122.55 -28.05 127.15 -24.9 L127.9 -24.35 127.55 -27.55 127.25 -33.65 Q127.25 -37.75 130.35 -42.1 134.8 -48.4 143.0 -47.5 145.75 -47.25 148.1 -46.35 149.3 -51.9 154.4 -55.45 160.4 -59.6 169.1 -59.5 177.7 -59.45 183.75 -55.3 190.4 -50.7 190.4 -43.1 190.4 -39.2 188.15 -33.0 L187.8 -32.0 188.05 -31.95 188.25 -26.1 Q188.35 -24.35 191.05 -22.95 193.7 -21.6 199.55 -20.35 204.05 -19.45 206.45 -18.65 210.05 -13.3 210.05 -7.0 210.05 -6.15 208.85 -3.65 207.35 -0.45 205.05 2.3 199.75 8.7 192.5 10.1 191.2 13.85 185.05 18.75 178.0 24.4 173.4 25.25 L172.7 25.25 172.3 25.5 Q169.35 27.25 167.4 27.25 150.95 27.25 146.05 23.05 143.8 21.15 143.8 16.3 143.8 11.95 144.05 10.55 137.15 14.05 131.75 14.05 L130.15 14.0 130.25 14.2 Q133.25 20.2 133.25 23.6 133.25 26.25 128.5 30.6 123.3 35.35 118.5 35.5 109.8 35.75 106.6 37.55 105.8 38.0 103.55 41.0 L102.4 43.55 Q112.3 40.85 116.85 44.1 120.25 46.5 120.3 51.8 L122.8 50.65 Q123.45 41.95 133.05 39.75 L137.9 39.3 147.0 38.75 Q160.2 43.4 163.3 46.9 164.65 48.45 164.95 50.6 L165.05 55.0 Q165.05 62.4 160.8 72.55 155.35 85.65 146.1 87.45 L145.75 87.9 Q143.9 90.35 138.5 93.9 133.05 97.4 115.25 96.55 97.4 95.65 92.4 90.65 87.4 85.65 86.95 82.95 L87.0 79.35 Q87.0 77.4 87.55 75.55 L87.5 75.55 Q74.45 75.55 69.1 71.0 66.05 68.4 66.05 65.3 66.05 57.7 67.5 53.75 69.2 49.1 73.15 46.75 69.25 45.7 64.95 42.45 L63.1 43.75 Q60.95 45.15 59.05 46.0 L62.1 50.05 Q65.75 55.65 65.75 60.0 65.75 74.9 52.75 84.75 41.75 93.05 30.0 93.05 15.25 93.05 7.55 89.25 L6.85 88.9 4.8 91.8 Q-3.5 102.3 -18.0 102.3 -36.85 102.3 -48.35 85.75 -53.5 78.35 -55.6 70.8 L-56.25 70.8 Q-64.6 70.8 -66.65 64.8 -67.25 62.9 -67.2 60.7 L-67.0 58.8 Q-67.0 48.35 -55.55 38.5 -53.3 36.55 -51.25 35.25 -57.35 37.4 -63.25 40.1 -66.4 41.55 -74.75 41.55 L-81.9 40.95 -81.5 43.15 -81.5 50.35 Q-81.5 51.8 -82.95 55.3 -84.8 59.85 -87.85 63.75 -96.9 75.3 -111.75 75.3 L-113.7 75.25 Q-116.25 77.05 -121.75 79.05 -131.85 82.75 -139.75 82.75 -151.6 82.75 -157.3 81.5 L-157.5 81.55 Q-160.45 82.55 -164.25 82.55 -183.0 82.55 -189.6 72.75 -192.6 68.35 -192.6 62.0 -192.6 55.55 -191.9 53.5 -190.9 50.45 -187.95 48.6 -188.65 46.7 -189.0 44.0 L-189.35 35.0 Q-189.35 27.65 -181.3 21.85 -173.55 16.3 -163.6 15.75 -160.15 15.55 -155.05 17.05 -155.9 16.8 -154.35 18.0 L-151.85 20.15 -149.1 22.1 Q-146.95 23.95 -143.2 28.55 L-143.5 26.5 Q-143.5 24.5 -142.7 22.8 L-142.6 22.25 -143.0 21.55 Q-142.0 7.65 -131.2 9.6 -124.5 10.85 -115.85 17.3 L-114.95 15.2 Q-113.1 11.0 -111.1 7.3 -115.95 5.15 -121.75 -0.7 -127.2 -6.2 -129.05 -9.8 L-129.35 -9.5 Q-132.3 -6.25 -133.75 -6.25 -139.8 -6.25 -145.0 -11.4 -149.1 -15.45 -149.1 -17.15 L-149.1 -17.45 -149.5 -17.35 -155.45 -15.75 Q-156.05 -13.75 -159.35 -11.75 -163.3 -9.35 -167.0 -9.35 -174.55 -9.35 -176.15 -17.6 -176.95 -21.75 -176.25 -26.25 -176.25 -28.2 -172.1 -31.45 L-170.75 -33.25 Q-168.9 -35.2 -166.25 -35.35 -167.45 -37.75 -168.5 -41.5 L-169.8 -47.0 -178.15 -43.85 Q-192.45 -38.6 -193.0 -38.6 L-194.2 -38.6 -197.75 -38.1 Q-201.7 -38.1 -204.9 -38.85 L-204.85 -37.8 Q-204.85 -33.4 -209.2 -29.0 -214.15 -24.0 -222.5 -23.05 -228.95 -22.65 -234.95 -25.15 L-237.8 -26.5 -238.5 -26.95 Q-243.2 -28.6 -245.6 -32.6 -247.6 -36.0 -247.6 -40.3 -247.6 -46.95 -245.05 -51.25 -242.75 -55.2 -238.5 -56.75 -245.35 -58.5 -248.1 -64.0 -249.85 -67.5 -249.85 -74.85 L-249.4 -77.75 Q-245.65 -83.85 -235.4 -87.6 -224.7 -91.5 -212.45 -91.5 L-212.6 -90.95 Q-213.05 -89.15 -213.9 -88.5 L-208.5 -92.1 Q-205.75 -93.5 -202.9 -93.55 -201.35 -97.65 -196.95 -100.3 -192.55 -103.0 -187.75 -103.0 -182.95 -103.0 -181.85 -101.35 L-180.5 -99.9 -179.65 -96.7 Q-178.45 -92.1 -177.9 -91.0 -176.9 -93.15 -173.55 -94.4 -170.55 -95.5 -166.9 -95.5 -164.75 -95.5 -161.2 -93.25 -158.7 -91.65 -156.9 -90.0 -155.45 -88.6 -152.4 -87.75 L-146.4 -86.0 Q-140.4 -83.7 -137.4 -80.3 -134.0 -76.5 -132.9 -70.0 L-128.9 -70.0 -131.25 -72.7 Q-129.9 -89.3 -111.45 -91.85 -105.25 -92.7 -99.15 -91.6 -103.05 -93.0 -106.95 -95.25 -110.4 -97.2 -112.9 -99.3 -120.05 -100.05 -123.25 -102.0 -126.4 -104.0 -125.95 -107.95 -125.5 -111.9 -122.7 -116.5 -120.1 -120.7 -116.5 -124.45 L-114.4 -126.45 Q-122.7 -125.75 -125.5 -122.0 -128.25 -118.25 -130.45 -117.25 -132.65 -116.25 -141.3 -115.85 -150.0 -115.5 -155.75 -119.65 -158.35 -121.55 -159.0 -124.75 L-158.65 -125.1 Q-159.2 -126.9 -159.5 -130.25 -159.8 -133.85 -159.75 -137.6 -159.75 -138.85 -157.45 -142.75 -154.8 -147.35 -151.1 -151.5 -140.6 -163.35 -129.25 -163.35 -124.3 -163.35 -121.5 -159.75 -119.6 -157.35 -119.6 -155.8 -119.6 -154.85 -120.1 -154.1 -120.75 -153.1 -122.0 -153.1 -122.5 -153.1 -123.1 -153.5 L-123.85 -153.0 -124.6 -152.6 Q-120.9 -152.95 -115.8 -152.45 L-108.8 -151.4 -109.2 -156.1 Q-109.35 -159.65 -108.7 -163.85 -108.1 -168.05 -107.7 -173.4 L-107.65 -174.5 Q-116.5 -172.7 -123.3 -175.15 -128.1 -176.9 -129.55 -177.85 -130.85 -176.05 -133.5 -173.6 -136.7 -170.65 -138.95 -169.55 -141.7 -167.85 -144.5 -167.85 L-147.0 -168.1 Q-149.6 -165.1 -157.75 -165.1 -164.1 -165.1 -168.0 -166.9 -169.4 -164.45 -172.85 -161.6 -179.65 -156.0 -188.0 -156.0 -199.1 -156.0 -202.85 -165.1 -203.6 -166.85 -203.95 -169.05 L-203.6 -169.5 -197.9 -174.1 Q-197.85 -178.2 -195.15 -182.9 L-190.9 -190.5 Q-189.05 -195.35 -185.6 -198.25 -181.95 -201.35 -176.9 -202.0 L-176.75 -202.0 -179.15 -203.0 Q-181.45 -204.0 -183.15 -204.0 -187.35 -204.0 -192.1 -199.05 L-198.8 -191.8 Q-207.95 -192.55 -212.0 -199.7 -209.7 -209.6 -201.4 -217.5 -199.0 -219.8 -193.9 -227.15 -188.6 -233.4 -182.4 -233.5 -179.5 -245.15 -165.3 -244.1 -162.65 -247.7 -158.35 -249.15 -154.45 -250.5 -147.15 -250.5 L-140.35 -250.35 Q-139.15 -250.1 -134.4 -248.0 L-134.4 -247.5 Q-135.85 -247.5 -136.85 -246.55 -129.25 -247.0 -123.1 -244.75 -117.1 -242.45 -113.95 -238.05 L-114.15 -239.25 -114.4 -241.0 -104.4 -241.0 Q-101.2 -240.55 -98.65 -238.8 L-98.5 -237.1 Q-97.85 -230.4 -97.85 -226.0 -97.85 -223.2 -100.45 -216.95 -94.85 -214.2 -91.4 -202.1 -88.8 -193.05 -88.1 -184.3 L-83.55 -188.0 Q-76.45 -192.7 -69.55 -191.75 -61.6 -193.45 -56.0 -190.8 -47.6 -186.8 -47.6 -176.05 -47.6 -172.75 -48.1 -169.85 -48.6 -167.15 -49.4 -165.85 L-50.4 -162.9 -51.1 -161.0 Q-59.05 -160.9 -67.0 -155.0 L-74.5 -147.5 Q-65.25 -150.0 -54.0 -142.5 -39.9 -154.3 -29.6 -150.9 -28.65 -148.45 -28.25 -145.4 L-25.3 -142.5 Q-22.75 -139.75 -21.55 -137.85 L-40.5 -134.5 Q-48.25 -141.65 -56.5 -136.5 -66.6 -137.15 -76.5 -125.5 -89.75 -124.55 -95.0 -113.0 -102.25 -105.0 -99.1 -91.75 -97.1 -96.3 -93.1 -97.25 -89.1 -98.2 -85.75 -98.1 -82.4 -98.0 -80.15 -97.2 L-74.5 -94.5 Q-70.65 -102.5 -64.45 -107.45 -56.75 -113.5 -46.95 -112.45 -43.9 -116.3 -40.25 -118.1 -35.45 -120.5 -26.75 -120.5 -24.7 -120.5 -22.2 -118.45 -20.45 -117.0 -19.8 -115.55 L-17.9 -116.35 Q-14.8 -117.5 -13.25 -117.5 -11.05 -117.5 -6.7 -113.8 -3.2 -110.8 -2.0 -109.0 -2.0 -112.85 -2.3 -114.9 -0.3 -120.1 1.2 -121.7 4.2 -125.0 11.25 -125.0 14.75 -125.0 18.95 -120.0 22.85 -115.35 23.0 -113.95 23.1 -121.75 21.0 -127.5 17.5 -137.0 9.0 -137.0 5.65 -137.0 -1.25 -133.25 -6.05 -130.6 -9.65 -130.7 L-10.55 -135.75 Q-11.5 -140.15 -11.5 -143.0 -11.5 -147.9 -9.2 -150.45 -7.05 -152.95 -2.0 -154.0 L-6.8 -155.35 -12.5 -156.5 -15.5 -156.4 Q-17.2 -156.15 -18.5 -155.0 -15.1 -174.5 3.25 -174.5 L5.45 -174.2 8.0 -173.5 1.3 -179.15 Q-2.4 -181.7 -13.05 -183.05 -15.45 -184.95 -17.85 -187.85 L-20.85 -191.85 -26.5 -191.85 Q-34.7 -189.9 -43.95 -198.25 -46.15 -200.25 -47.95 -202.45 L-51.0 -200.6 Q-57.6 -197.0 -65.75 -197.0 -77.15 -197.0 -81.25 -211.95 -82.1 -215.05 -82.55 -218.2 L-82.35 -217.05 Q-78.3 -225.55 -68.3 -234.8 -58.35 -244.1 -45.25 -242.0 L-48.65 -244.9 Q-49.95 -245.8 -56.25 -247.0 -52.35 -249.8 -47.8 -251.05 -43.55 -252.25 -38.0 -252.25 L-34.55 -252.2 Q-32.6 -252.05 -31.75 -251.5 L-31.5 -251.5 Q-33.6 -253.9 -37.15 -254.8 L-45.15 -255.75 -52.85 -255.4 -58.1 -254.7 Q-54.6 -266.4 -48.4 -272.15 -41.25 -278.75 -29.25 -278.75 L-25.85 -278.7 -23.65 -278.45 Q-21.85 -283.7 -18.65 -288.2 -14.35 -294.25 -7.45 -298.3 -0.55 -302.4 6.25 -303.65 13.0 -304.9 16.55 -304.4 20.05 -303.9 21.25 -302.35 22.25 -301.05 22.5 -299.05 24.1 -299.95 26.65 -300.65 30.6 -301.75 34.5 -301.75 40.4 -301.75 45.5 -299.4 47.0 -298.75 48.15 -297.9 48.9 -295.25 48.8 -293.35 48.5 -288.4 46.2 -283.75 45.4 -282.25 44.45 -281.2 44.8 -278.2 44.8 -274.0 44.8 -269.25 41.25 -264.25 35.75 -256.5 24.5 -256.5 L21.35 -256.7 19.85 -256.6 22.55 -255.6 Q29.95 -252.55 34.9 -247.8 L37.7 -244.6 39.9 -246.3 40.2 -246.45 41.15 -242.65 Q41.65 -240.15 41.5 -238.0 45.2 -240.6 48.15 -241.6 50.9 -242.5 54.75 -242.7 L57.7 -245.95 Q60.85 -249.1 63.25 -250.0 69.3 -252.25 71.7 -252.45 L78.75 -252.25 Q79.05 -252.25 81.8 -254.2 84.55 -256.2 89.5 -255.75 94.45 -255.3 96.55 -254.15 L101.75 -250.75 Q103.4 -249.5 105.45 -247.2 L105.55 -244.65 105.65 -234.65 Q105.65 -231.45 101.55 -224.35 98.95 -219.9 96.05 -217.6 L97.05 -216.25 97.7 -210.9 97.9 -206.85 Q97.9 -204.1 94.5 -200.5 89.55 -195.35 81.0 -195.35 L75.25 -195.85 Q74.5 -188.75 72.15 -183.9 69.0 -177.4 61.4 -171.15 64.05 -165.25 64.05 -160.75 L64.1 -153.2 Q63.8 -146.25 61.95 -140.85 58.15 -129.6 48.3 -125.95 49.0 -122.7 49.0 -118.6 L48.7 -116.7 49.1 -115.3 Q49.75 -112.6 49.75 -106.9 49.75 -103.85 47.85 -97.75 L46.55 -94.3 Q46.8 -93.5 49.5 -91.55 46.75 -87.55 46.75 -83.5 42.3 -83.0 38.5 -79.95 34.7 -76.95 34.95 -72.65 37.6 -75.45 39.8 -76.2 41.95 -77.0 45.4 -77.0 L50.15 -76.8 Q51.5 -76.65 56.75 -74.25 60.3 -72.55 61.75 -71.55 L62.45 -71.05 Q64.55 -73.5 68.25 -75.05 72.75 -77.0 79.0 -76.75 80.7 -82.15 94.55 -80.45 96.8 -82.5 98.95 -83.3 101.05 -84.1 103.5 -84.5 L108.65 -85.55 114.15 -86.4 Q109.5 -90.25 107.6 -91.25 103.85 -93.25 98.0 -93.25 96.3 -93.25 85.5 -88.6 74.7 -83.95 72.15 -85.6 69.6 -87.3 66.1 -88.2 62.65 -89.15 62.5 -89.25 64.1 -93.2 71.9 -97.85 79.7 -102.5 84.75 -102.5 86.4 -102.5 88.25 -101.75 86.15 -104.95 82.1 -107.5 78.0 -110.1 74.35 -111.1 72.1 -112.25 70.25 -114.0 66.05 -117.95 66.05 -121.85 66.05 -123.4 66.3 -124.4 70.4 -126.95 72.9 -127.7 75.6 -128.5 81.85 -128.5 90.65 -128.5 96.4 -125.6 98.2 -124.65 107.75 -117.75 L107.25 -123.5 Q107.25 -125.1 111.6 -126.55 115.1 -127.75 116.25 -127.75 L116.25 -133.4 Q116.3 -134.6 116.6 -135.55 L117.25 -135.65 120.15 -135.85 Q120.6 -139.25 123.0 -143.45 125.55 -148.0 129.45 -151.8 L129.9 -152.25 Q126.2 -154.0 122.3 -158.0 116.15 -164.3 116.15 -167.55 116.15 -176.25 116.95 -179.9 117.6 -182.85 118.8 -184.85 116.75 -187.3 115.05 -192.25 114.15 -194.85 113.55 -197.45 117.05 -205.15 121.5 -210.4 125.9 -215.65 131.15 -216.0 L139.0 -216.5 138.4 -211.75 138.35 -211.75 Q135.65 -211.75 134.25 -211.1 132.45 -210.25 132.05 -208.1 L133.9 -207.1 Q136.3 -205.75 137.35 -205.75 L138.15 -205.8 Q139.3 -205.95 140.55 -206.6 142.2 -207.5 144.75 -207.5 L148.15 -206.75 150.35 -206.0 150.75 -206.0 Q148.55 -208.75 145.9 -210.1 143.7 -211.25 141.0 -211.55 142.6 -217.8 148.5 -219.95 152.7 -221.5 162.6 -221.5 167.1 -221.5 173.2 -217.5 L173.8 -217.1 Q166.7 -214.0 165.05 -206.5 L165.05 -205.65 Q166.65 -206.7 168.75 -207.35 172.25 -208.5 176.6 -208.5 181.4 -208.5 187.2 -204.9 192.55 -201.55 194.25 -198.25 L196.5 -194.2 199.0 -189.5 200.5 -186.95 M-177.25 -97.5 L-176.45 -98.2 -177.25 -97.5 M6.4 -257.1 Q7.75 -258.0 10.15 -258.15 L10.4 -258.15 9.9 -258.5 Q7.35 -260.55 5.55 -260.6 L5.55 -257.0 6.4 -257.1 M91.75 -106.85 L93.55 -105.15 95.3 -103.5 Q95.75 -104.25 96.25 -106.75 L93.7 -107.05 91.75 -106.85 M13.0 -150.1 L12.65 -149.1 Q12.3 -148.25 12.3 -147.55 12.3 -147.25 13.7 -145.6 15.3 -143.85 15.75 -142.5 L16.0 -142.35 14.5 -146.25 Q13.3 -149.15 13.25 -150.1 L13.0 -150.1 M-37.6 -247.7 Q-42.45 -245.4 -42.95 -240.5 L-36.95 -240.05 -33.1 -238.8 Q-31.25 -239.8 -26.85 -240.4 L-18.85 -241.0 -13.3 -240.55 Q-10.4 -240.05 -8.75 -239.25 -12.65 -244.9 -16.8 -247.15 -21.1 -249.5 -27.75 -249.5 -33.7 -249.5 -37.6 -247.7 M-147.35 -192.85 Q-149.0 -191.35 -153.4 -188.2 L-157.3 -185.5 -154.05 -184.45 Q-153.4 -185.65 -151.3 -187.5 L-146.6 -191.35 -147.35 -192.85 M-90.4 -87.5 L-88.0 -87.5 -79.35 -84.05 Q-73.45 -82.0 -69.25 -82.0 L-67.6 -83.0 Q-66.3 -84.0 -64.5 -84.0 -67.95 -85.65 -71.8 -88.8 -73.3 -90.0 -78.25 -90.0 -82.0 -90.0 -86.4 -88.9 L-90.4 -87.5 M-137.15 40.7 L-137.5 40.35 -137.6 37.75 Q-138.9 36.75 -140.0 35.3 L-139.3 37.15 Q-138.85 38.75 -138.85 43.15 L-138.85 43.55 Q-137.85 43.0 -137.6 42.3 L-137.5 40.9 -137.15 40.7" fill="#545454" fill-rule="evenodd" stroke="none"/>
      <path d="M113.55 -197.45 L112.65 -202.0 Q112.65 -203.75 114.1 -207.5 115.95 -212.45 119.05 -216.6 126.95 -227.25 139.55 -228.65 L141.05 -230.45 Q143.65 -233.2 147.35 -235.15 157.3 -240.4 166.4 -236.1 172.6 -232.8 178.0 -227.7 L181.85 -223.55 Q183.15 -223.65 185.3 -222.8 190.35 -220.7 194.65 -215.85 197.0 -213.8 198.45 -210.6 199.65 -207.85 199.8 -205.35 L200.5 -186.95 199.0 -189.5 196.5 -194.2 194.25 -198.25 Q192.55 -201.55 187.2 -204.9 181.4 -208.5 176.6 -208.5 172.25 -208.5 168.75 -207.35 166.65 -206.7 165.05 -205.65 L165.05 -206.5 Q166.7 -214.0 173.8 -217.1 L173.2 -217.5 Q167.1 -221.5 162.6 -221.5 152.7 -221.5 148.5 -219.95 142.6 -217.8 141.0 -211.55 143.7 -211.25 145.9 -210.1 148.55 -208.75 150.75 -206.0 L150.35 -206.0 148.15 -206.75 144.75 -207.5 Q142.2 -207.5 140.55 -206.6 139.3 -205.95 138.15 -205.8 L137.35 -205.75 Q136.3 -205.75 133.9 -207.1 L132.05 -208.1 Q132.45 -210.25 134.25 -211.1 135.65 -211.75 138.35 -211.75 L138.4 -211.75 139.0 -216.5 131.15 -216.0 Q125.9 -215.65 121.5 -210.4 117.05 -205.15 113.55 -197.45 M169.35 -134.3 L170.5 -133.35 171.4 -132.3 171.65 -131.95 171.7 -131.85 171.75 -131.8 172.3 -130.85 172.7 -129.8 Q169.9 -129.4 168.5 -128.5 L168.5 -131.5 169.1 -133.35 169.35 -134.3 M175.55 -122.1 Q175.95 -122.5 176.3 -122.7 177.25 -123.2 178.8 -125.35 180.35 -127.55 183.3 -129.0 186.25 -130.45 196.2 -131.05 206.15 -131.65 210.65 -125.65 213.8 -121.45 213.8 -115.0 213.8 -113.3 213.3 -111.35 211.35 -113.15 208.4 -114.15 204.45 -115.5 198.0 -115.5 192.1 -115.5 187.4 -114.35 L174.25 -111.0 Q156.55 -116.35 143.0 -111.5 146.4 -115.5 150.65 -117.0 154.15 -118.25 159.85 -118.25 164.8 -118.25 169.3 -116.4 173.8 -114.6 174.25 -111.0 L174.5 -118.35 Q174.5 -119.45 175.55 -122.1 M188.05 -31.95 Q191.3 -31.1 195.0 -28.9 L196.25 -28.15 Q203.0 -23.8 206.45 -18.65 204.05 -19.45 199.55 -20.35 193.7 -21.6 191.05 -22.95 188.35 -24.35 188.25 -26.1 L188.05 -31.95 M-249.4 -77.75 L-248.0 -81.45 Q-245.8 -86.1 -241.8 -90.05 -231.1 -100.7 -212.5 -102.1 L-207.75 -102.5 -206.35 -105.45 Q-204.25 -109.0 -201.2 -111.2 -192.7 -117.45 -182.35 -109.75 -179.6 -108.05 -177.75 -99.9 L-177.25 -97.5 -176.45 -98.2 -155.6 -102.95 -155.45 -102.85 -154.4 -102.05 -154.25 -101.95 -152.1 -99.8 Q-150.05 -97.45 -148.4 -94.25 -136.85 -86.3 -131.8 -74.1 L-131.25 -72.7 -128.9 -70.0 -132.9 -70.0 Q-134.0 -76.5 -137.4 -80.3 -140.4 -83.7 -146.4 -86.0 L-152.4 -87.75 Q-155.45 -88.6 -156.9 -90.0 -158.7 -91.65 -161.2 -93.25 -164.75 -95.5 -166.9 -95.5 -170.55 -95.5 -173.55 -94.4 -176.9 -93.15 -177.9 -91.0 -178.45 -92.1 -179.65 -96.7 L-180.5 -99.9 -181.85 -101.35 Q-182.95 -103.0 -187.75 -103.0 -192.55 -103.0 -196.95 -100.3 -201.35 -97.65 -202.9 -93.55 -205.75 -93.5 -208.5 -92.1 L-213.9 -88.5 Q-213.05 -89.15 -212.6 -90.95 L-212.45 -91.5 Q-224.7 -91.5 -235.4 -87.6 -245.65 -83.85 -249.4 -77.75 M-203.95 -169.05 L-204.05 -169.7 -204.5 -174.45 -204.5 -174.6 -204.5 -175.4 Q-204.5 -180.45 -202.6 -184.8 L-198.8 -191.8 -192.1 -199.05 Q-187.35 -204.0 -183.15 -204.0 -181.45 -204.0 -179.15 -203.0 L-176.75 -202.0 -176.9 -202.0 Q-181.95 -201.35 -185.6 -198.25 -189.05 -195.35 -190.9 -190.5 L-195.15 -182.9 Q-197.85 -178.2 -197.9 -174.1 L-203.6 -169.5 -203.95 -169.05 M-212.0 -199.7 L-212.15 -200.0 Q-214.5 -204.45 -214.5 -209.75 -214.5 -227.15 -201.05 -237.9 -196.05 -241.9 -191.8 -242.7 L-190.7 -242.85 Q-190.95 -247.15 -184.8 -251.7 -178.65 -256.3 -166.0 -254.6 L-164.6 -254.35 Q-163.25 -256.6 -159.25 -258.65 -153.75 -261.5 -145.85 -262.85 L-132.45 -263.25 Q-129.95 -262.8 -128.45 -261.85 -126.95 -262.9 -122.1 -264.4 -117.9 -265.75 -109.0 -260.4 L-105.05 -257.5 Q-103.35 -255.55 -102.05 -253.35 -100.25 -250.35 -99.85 -247.75 -99.2 -243.9 -98.65 -238.8 -101.2 -240.55 -104.4 -241.0 L-114.4 -241.0 -114.15 -239.25 -113.95 -238.05 Q-117.1 -242.45 -123.1 -244.75 -129.25 -247.0 -136.85 -246.55 -135.85 -247.5 -134.4 -247.5 L-134.4 -248.0 Q-139.15 -250.1 -140.35 -250.35 L-147.15 -250.5 Q-154.45 -250.5 -158.35 -249.15 -162.65 -247.7 -165.3 -244.1 -179.5 -245.15 -182.4 -233.5 -188.6 -233.4 -193.9 -227.15 -199.0 -219.8 -201.4 -217.5 -209.7 -209.6 -212.0 -199.7 M-51.1 -161.0 L-46.0 -161.6 Q-42.25 -161.35 -39.25 -160.3 -37.5 -159.7 -36.0 -158.75 L-35.9 -158.7 -29.7 -151.1 -29.6 -150.9 Q-39.9 -154.3 -54.0 -142.5 -65.25 -150.0 -74.5 -147.5 L-67.0 -155.0 Q-59.05 -160.9 -51.1 -161.0 M-21.55 -137.85 L-21.25 -138.5 Q-19.75 -141.45 -19.75 -145.0 L-19.75 -153.1 Q-25.65 -153.4 -27.35 -160.85 -28.25 -164.75 -27.85 -169.1 -27.85 -179.95 -16.2 -182.55 L-13.05 -183.05 Q-2.4 -181.7 1.3 -179.15 L8.0 -173.5 5.45 -174.2 3.25 -174.5 Q-15.1 -174.5 -18.5 -155.0 -17.2 -156.15 -15.5 -156.4 L-12.5 -156.5 -6.8 -155.35 -2.0 -154.0 Q-7.05 -152.95 -9.2 -150.45 -11.5 -147.9 -11.5 -143.0 -11.5 -140.15 -10.55 -135.75 L-9.65 -130.7 Q-6.05 -130.6 -1.25 -133.25 5.65 -137.0 9.0 -137.0 17.5 -137.0 21.0 -127.5 23.1 -121.75 23.0 -113.95 22.85 -115.35 18.95 -120.0 14.75 -125.0 11.25 -125.0 4.2 -125.0 1.2 -121.7 -0.3 -120.1 -2.3 -114.9 -2.0 -112.85 -2.0 -109.0 -3.2 -110.8 -6.7 -113.8 -11.05 -117.5 -13.25 -117.5 -14.8 -117.5 -17.9 -116.35 L-19.8 -115.55 Q-20.45 -117.0 -22.2 -118.45 -24.7 -120.5 -26.75 -120.5 -35.45 -120.5 -40.25 -118.1 -43.9 -116.3 -46.95 -112.45 -56.75 -113.5 -64.45 -107.45 -70.65 -102.5 -74.5 -94.5 L-80.15 -97.2 Q-82.4 -98.0 -85.75 -98.1 -89.1 -98.2 -93.1 -97.25 -97.1 -96.3 -99.1 -91.75 -102.25 -105.0 -95.0 -113.0 -89.75 -124.55 -76.5 -125.5 -66.6 -137.15 -56.5 -136.5 -48.25 -141.65 -40.5 -134.5 L-21.55 -137.85 M-82.55 -218.2 L-83.1 -226.3 -83.1 -227.05 Q-83.1 -235.6 -78.0 -242.55 -73.75 -248.35 -66.85 -251.9 -63.75 -253.5 -60.9 -254.3 -61.45 -255.95 -61.75 -259.25 L-62.1 -265.9 Q-62.1 -275.2 -55.45 -281.5 -49.9 -286.75 -40.8 -289.1 -32.95 -291.15 -26.15 -290.25 L-23.5 -289.75 Q-22.25 -295.3 -16.4 -301.45 L-13.75 -303.85 Q-11.9 -307.2 -9.0 -309.95 0.9 -319.6 18.0 -318.35 L27.5 -318.35 Q37.7 -319.1 43.4 -308.7 46.9 -302.25 48.15 -297.9 47.0 -298.75 45.5 -299.4 40.4 -301.75 34.5 -301.75 30.6 -301.75 26.65 -300.65 24.1 -299.95 22.5 -299.05 22.25 -301.05 21.25 -302.35 20.05 -303.9 16.55 -304.4 13.0 -304.9 6.25 -303.65 -0.55 -302.4 -7.45 -298.3 -14.35 -294.25 -18.65 -288.2 -21.85 -283.7 -23.65 -278.45 L-25.85 -278.7 -29.25 -278.75 Q-41.25 -278.75 -48.4 -272.15 -54.6 -266.4 -58.1 -254.7 L-52.85 -255.4 -45.15 -255.75 -37.15 -254.8 Q-33.6 -253.9 -31.5 -251.5 L-31.75 -251.5 Q-32.6 -252.05 -34.55 -252.2 L-38.0 -252.25 Q-43.55 -252.25 -47.8 -251.05 -52.35 -249.8 -56.25 -247.0 -49.95 -245.8 -48.65 -244.9 L-45.25 -242.0 Q-58.35 -244.1 -68.3 -234.8 -78.3 -225.55 -82.35 -217.05 L-82.55 -218.2 M40.2 -246.45 L40.2 -246.5 41.6 -247.25 48.8 -249.95 49.65 -250.2 53.15 -250.9 Q53.65 -253.85 56.9 -257.35 61.75 -262.65 68.8 -262.5 71.95 -265.15 73.9 -265.95 78.1 -267.8 86.0 -268.25 L86.4 -267.9 Q93.9 -268.0 97.55 -264.85 103.45 -260.5 104.55 -254.75 L105.45 -247.2 Q103.4 -249.5 101.75 -250.75 L96.55 -254.15 Q94.45 -255.3 89.5 -255.75 84.55 -256.2 81.8 -254.2 79.05 -252.25 78.75 -252.25 L71.7 -252.45 Q69.3 -252.25 63.25 -250.0 60.85 -249.1 57.7 -245.95 L54.75 -242.7 Q50.9 -242.5 48.15 -241.6 45.2 -240.6 41.5 -238.0 41.65 -240.15 41.15 -242.65 L40.2 -246.45 M49.5 -91.55 L52.55 -99.25 Q54.3 -103.15 55.3 -104.35 62.4 -113.05 74.35 -111.1 78.0 -110.1 82.1 -107.5 86.15 -104.95 88.25 -101.75 86.4 -102.5 84.75 -102.5 79.7 -102.5 71.9 -97.85 64.1 -93.2 62.5 -89.25 62.65 -89.15 66.1 -88.2 69.6 -87.3 72.15 -85.6 74.7 -83.95 85.5 -88.6 96.3 -93.25 98.0 -93.25 103.85 -93.25 107.6 -91.25 109.5 -90.25 114.15 -86.4 L108.65 -85.55 103.5 -84.5 Q101.05 -84.1 98.95 -83.3 96.8 -82.5 94.55 -80.45 80.7 -82.15 79.0 -76.75 72.75 -77.0 68.25 -75.05 64.55 -73.5 62.45 -71.05 L61.75 -71.55 Q60.3 -72.55 56.75 -74.25 51.5 -76.65 50.15 -76.8 L45.4 -77.0 Q41.95 -77.0 39.8 -76.2 37.6 -75.45 34.95 -72.65 34.7 -76.95 38.5 -79.95 42.3 -83.0 46.75 -83.5 46.75 -87.55 49.5 -91.55 M66.3 -124.4 Q66.45 -125.25 66.75 -125.7 L66.8 -125.8 Q67.35 -131.05 72.85 -134.3 78.25 -137.45 86.1 -137.7 93.9 -138.0 99.0 -135.1 103.05 -132.8 104.45 -130.85 105.25 -132.3 108.25 -133.55 111.75 -135.05 116.6 -135.55 116.3 -134.6 116.25 -133.4 L116.25 -127.75 Q115.1 -127.75 111.6 -126.55 107.25 -125.1 107.25 -123.5 L107.75 -117.75 Q98.2 -124.65 96.4 -125.6 90.65 -128.5 81.85 -128.5 75.6 -128.5 72.9 -127.7 70.4 -126.95 66.3 -124.4 M-37.6 -247.7 Q-33.7 -249.5 -27.75 -249.5 -21.1 -249.5 -16.8 -247.15 -12.65 -244.9 -8.75 -239.25 -10.4 -240.05 -13.3 -240.55 L-18.85 -241.0 -26.85 -240.4 Q-31.25 -239.8 -33.1 -238.8 L-36.95 -240.05 -42.95 -240.5 Q-42.45 -245.4 -37.6 -247.7 M-90.4 -87.5 L-86.4 -88.9 Q-82.0 -90.0 -78.25 -90.0 -73.3 -90.0 -71.8 -88.8 -67.95 -85.65 -64.5 -84.0 -66.3 -84.0 -67.6 -83.0 L-69.25 -82.0 Q-73.45 -82.0 -79.35 -84.05 L-88.0 -87.5 -90.4 -87.5" fill="#616161" fill-rule="evenodd" stroke="none"/>
    </g>
  </defs>
</svg>
