<?xml version="1.0" encoding="UTF-8" standalone="no"?>
<svg xmlns:ffdec="https://www.free-decompiler.com/flash" xmlns:xlink="http://www.w3.org/1999/xlink" ffdec:objectType="frame" height="499.45px" width="496.15px" xmlns="http://www.w3.org/2000/svg">
  <g transform="matrix(1.0, 0.0, 0.0, 1.0, 270.5, 376.7)">
    <use ffdec:characterId="166" height="428.3" transform="matrix(1.0, 0.0, 0.0, 1.0, -256.3, -331.0)" width="470.55" xlink:href="#shape0"/>
  </g>
  <defs>
    <g id="shape0" transform="matrix(1.0, 0.0, 0.0, 1.0, 256.3, 331.0)">
      <path d="M196.5 -202.2 L196.8 -193.3 Q196.8 -179.55 189.05 -167.65 187.8 -165.7 187.4 -165.45 182.4 -160.65 180.1 -161.25 177.6 -157.95 171.45 -152.9 166.8 -151.0 161.45 -150.15 L161.75 -145.5 Q161.75 -144.2 160.3 -141.6 L166.15 -141.25 168.4 -140.6 Q166.9 -139.85 165.75 -137.8 L163.75 -133.5 164.35 -133.5 169.75 -134.0 174.65 -133.8 Q175.95 -133.55 177.45 -132.5 L177.5 -130.65 Q177.15 -126.45 175.85 -124.85 174.75 -123.45 170.15 -123.25 L169.65 -122.75 Q168.25 -121.25 168.25 -120.85 168.25 -120.05 168.55 -119.35 L169.25 -118.25 169.25 -115.45 169.35 -115.4 Q174.0 -111.6 177.55 -106.25 L178.25 -103.85 Q179.25 -104.35 181.2 -104.5 178.45 -105.75 177.25 -108.0 176.4 -109.6 176.4 -111.6 176.4 -112.65 176.55 -113.6 L176.65 -115.25 179.0 -112.75 179.25 -112.5 Q184.5 -119.6 190.15 -121.75 L201.1 -125.85 Q206.45 -127.75 209.75 -126.65 L212.3 -125.5 Q213.8 -121.3 213.8 -115.1 213.8 -111.65 208.8 -108.0 202.4 -103.3 191.45 -103.0 L197.35 -101.0 Q208.9 -96.7 212.25 -92.1 212.95 -91.1 213.65 -84.6 214.25 -79.2 214.25 -77.3 214.25 -75.1 211.05 -71.85 207.05 -67.85 201.75 -67.85 194.55 -67.85 189.8 -72.25 188.0 -73.95 187.15 -75.25 L186.3 -76.45 184.9 -79.25 183.9 -79.45 Q182.7 -76.8 177.55 -73.25 169.65 -67.75 160.25 -67.75 151.2 -67.75 143.0 -73.75 135.75 -79.1 135.75 -82.8 135.75 -83.75 136.5 -84.25 L141.0 -84.5 141.05 -84.3 Q142.2 -83.95 146.15 -81.55 150.75 -78.75 156.3 -78.75 157.1 -78.75 159.8 -82.0 159.8 -85.7 160.1 -86.95 159.0 -87.35 156.85 -90.85 153.5 -87.1 147.95 -86.0 142.4 -84.9 138.65 -87.0 134.9 -89.15 133.4 -90.85 L129.0 -90.85 124.5 -91.35 123.55 -91.95 123.1 -90.85 124.1 -87.9 126.15 -81.55 Q127.25 -78.0 124.45 -68.35 121.6 -58.7 116.8 -58.25 119.1 -55.5 119.6 -51.0 120.05 -46.5 119.95 -44.05 119.8 -41.65 118.05 -36.45 115.9 -30.15 112.75 -29.45 113.85 -28.25 114.65 -27.75 116.6 -26.15 124.25 -21.55 L124.75 -21.2 124.8 -21.6 124.3 -23.2 Q124.0 -24.85 124.3 -26.65 123.25 -32.45 125.4 -36.55 127.55 -40.7 136.9 -43.1 L136.9 -46.35 Q137.85 -47.1 140.6 -50.2 144.05 -52.95 149.9 -53.1 L153.45 -53.3 153.3 -55.8 Q153.3 -56.45 155.05 -58.65 157.1 -61.2 161.35 -63.9 165.55 -66.6 174.4 -64.85 180.25 -63.7 182.55 -61.85 184.8 -60.05 184.95 -60.15 187.05 -58.85 188.2 -55.9 189.3 -53.0 190.05 -50.0 190.8 -47.0 187.7 -40.5 184.55 -34.05 179.8 -33.75 L180.6 -32.15 188.7 -32.75 190.5 -24.25 201.25 -22.3 Q205.6 -20.95 208.1 -18.45 L208.15 -18.85 Q207.9 -13.2 206.05 -9.0 201.7 0.65 190.0 1.0 189.55 4.45 188.55 6.8 185.1 14.9 175.5 15.9 L173.4 16.8 Q168.3 18.75 159.4 18.45 150.45 18.15 147.8 17.15 145.1 16.15 144.15 11.6 143.2 7.05 144.95 2.55 L141.5 2.45 139.65 3.85 Q134.25 7.75 128.95 8.85 131.55 11.5 131.55 14.6 131.55 21.8 126.0 26.25 120.05 31.05 108.45 31.0 107.05 33.6 104.2 34.3 105.45 36.9 104.0 41.0 L102.95 43.75 104.25 42.85 Q107.6 40.9 111.45 40.35 121.9 38.75 121.9 48.75 121.9 51.05 121.05 53.05 119.6 56.3 116.4 56.3 L115.4 56.3 Q116.4 57.55 116.75 58.8 120.35 57.0 125.1 55.95 L128.1 55.35 128.05 54.6 Q128.05 45.25 135.2 40.25 141.4 35.85 150.85 35.9 159.9 35.95 166.55 39.9 173.65 44.15 173.65 50.6 173.65 59.9 171.45 67.0 167.1 81.0 155.65 81.0 L145.95 80.2 144.55 82.5 Q135.7 96.05 117.9 96.05 99.7 96.05 92.8 89.35 89.3 85.95 89.3 81.5 89.3 77.75 91.8 71.35 92.75 68.9 93.9 67.15 L92.4 67.65 86.0 69.85 77.5 69.15 Q74.5 68.1 72.05 65.0 69.05 61.1 69.05 57.1 69.05 53.45 70.75 49.25 71.85 46.55 73.3 45.55 L73.3 44.75 Q73.3 38.25 78.35 31.25 69.65 31.0 62.55 27.3 L61.05 26.45 60.85 27.0 Q58.7 33.15 56.1 36.35 L57.15 37.05 Q61.15 39.95 63.0 42.55 64.05 44.0 64.65 48.05 65.05 51.05 64.8 55.85 64.55 60.65 62.2 66.8 59.85 72.95 55.3 77.05 52.55 80.0 48.3 82.55 38.5 88.5 30.25 88.5 10.6 88.5 2.7 77.6 2.45 81.4 1.5 84.55 -2.35 97.25 -17.0 97.25 L-19.4 97.1 -22.5 97.3 Q-38.6 97.3 -45.4 88.9 -47.55 86.2 -48.75 82.55 -48.75 77.75 -49.1 76.55 L-53.3 67.8 -57.0 64.65 Q-58.95 62.9 -59.55 62.8 L-60.75 62.8 Q-68.55 62.8 -70.25 58.3 -70.75 56.9 -70.6 55.15 L-70.35 53.6 Q-70.35 47.3 -68.4 43.35 -65.65 37.85 -58.5 34.55 -52.2 31.65 -40.85 27.8 L-31.45 24.75 -41.0 22.05 Q-46.55 20.35 -49.45 19.15 L-57.2 27.15 Q-63.25 33.15 -75.1 33.3 -86.95 33.45 -95.1 31.9 L-95.3 32.7 -95.9 35.05 -96.05 35.6 Q-93.4 36.7 -91.45 38.55 -88.6 41.3 -88.6 44.55 -88.6 50.95 -93.6 57.75 -101.15 68.0 -116.0 68.0 L-120.3 67.65 -121.25 68.55 Q-131.8 79.05 -145.25 79.05 -156.4 79.05 -162.05 75.45 L-163.25 74.6 Q-166.85 77.25 -170.0 77.25 -188.9 77.25 -194.5 70.3 -197.4 66.75 -196.5 62.6 -196.5 56.1 -194.6 52.55 -192.35 48.3 -187.65 48.2 -189.25 46.35 -190.25 42.3 L-191.25 34.85 Q-191.25 23.1 -184.75 17.85 -179.15 13.4 -170.35 14.65 -162.3 15.8 -156.0 20.9 -149.5 26.2 -149.5 32.3 -149.5 34.15 -150.3 37.1 -150.0 38.6 -150.0 40.9 -150.0 43.15 -150.3 44.55 L-147.5 43.15 Q-144.3 41.95 -137.4 41.8 L-137.5 37.35 -137.45 36.55 Q-142.8 35.35 -145.1 28.6 -146.55 24.4 -146.5 19.75 -146.5 17.0 -143.2 14.0 -138.65 9.85 -131.0 10.8 -126.7 9.5 -118.85 18.55 L-115.15 23.05 Q-114.2 20.95 -111.6 18.75 -109.1 16.6 -106.9 16.25 -106.2 10.35 -102.2 7.3 -100.55 6.0 -98.45 5.35 -100.3 4.95 -104.6 3.0 -108.95 1.05 -112.5 -3.05 -116.1 -7.15 -119.95 -13.65 L-122.8 -18.6 -125.8 -15.35 Q-127.0 -13.9 -129.5 -13.1 L-133.35 -12.7 -136.25 -12.75 -142.5 -12.25 Q-145.2 -13.85 -148.15 -17.7 -151.25 -21.7 -151.25 -23.9 L-151.2 -24.3 -151.65 -25.95 -153.1 -24.9 -158.15 -21.3 Q-158.4 -18.45 -159.1 -17.0 -161.45 -12.35 -169.25 -12.35 -175.85 -12.35 -177.65 -17.35 -178.5 -19.9 -178.1 -22.8 -178.1 -25.4 -178.5 -29.15 -178.4 -31.0 -176.85 -32.55 -176.15 -34.55 -173.15 -36.35 -169.7 -38.35 -164.4 -39.45 L-159.95 -40.1 -160.1 -41.35 Q-160.2 -42.35 -159.7 -44.8 -162.25 -46.45 -164.35 -48.9 L-166.7 -52.15 -173.65 -50.75 -178.1 -49.65 -179.75 -48.35 Q-183.35 -45.75 -187.25 -45.75 L-190.5 -45.85 Q-196.95 -46.3 -200.25 -48.65 L-202.1 -50.35 Q-202.9 -51.4 -203.3 -52.5 L-204.35 -54.5 Q-204.8 -56.0 -204.85 -57.5 -205.45 -54.75 -206.75 -51.85 -208.05 -48.95 -209.8 -47.05 -210.5 -47.65 -210.6 -37.8 -210.7 -27.95 -225.4 -26.65 -240.1 -25.35 -248.25 -31.5 -253.1 -35.15 -253.1 -39.9 L-253.1 -40.05 -253.1 -40.1 -253.85 -43.85 Q-253.85 -48.65 -248.6 -51.45 -244.15 -53.85 -237.1 -54.25 L-228.25 -53.85 -228.5 -54.75 Q-229.25 -57.6 -229.5 -60.6 -229.5 -64.8 -226.5 -69.5 L-229.65 -66.7 Q-235.9 -61.6 -240.0 -61.6 L-245.0 -61.95 Q-249.65 -61.95 -252.95 -65.15 -256.25 -68.4 -256.25 -73.0 L-256.2 -77.5 -255.15 -78.8 Q-252.75 -81.45 -244.9 -86.5 -242.8 -87.85 -238.35 -88.75 -234.15 -89.65 -233.35 -90.85 -232.6 -92.1 -227.2 -94.05 -221.85 -96.0 -217.6 -95.5 L-210.3 -94.95 -210.1 -95.2 -207.3 -98.25 Q-207.95 -103.35 -204.3 -106.0 -200.9 -108.5 -194.65 -108.5 -190.85 -108.5 -187.95 -105.25 -186.45 -103.6 -185.8 -101.65 L-186.75 -98.35 Q-188.4 -93.6 -191.35 -92.15 L-190.45 -90.0 -183.25 -97.6 -184.0 -96.8 -184.4 -93.05 -184.45 -88.2 -181.55 -90.8 Q-178.5 -93.75 -175.7 -95.75 -172.95 -97.75 -163.85 -98.1 -154.8 -98.5 -151.4 -91.0 -149.65 -89.95 -144.25 -87.65 L-142.05 -86.7 Q-141.6 -85.65 -141.6 -84.9 L-141.6 -84.5 Q-137.45 -83.4 -135.25 -78.75 -133.1 -74.2 -133.1 -66.8 -133.1 -64.95 -134.5 -61.35 L-135.05 -60.05 Q-133.3 -58.55 -131.2 -55.95 L-130.8 -55.45 -130.1 -56.5 Q-127.75 -59.75 -127.25 -60.85 L-126.35 -64.8 Q-129.05 -66.8 -130.4 -72.25 -131.5 -76.65 -131.5 -82.0 -131.5 -85.7 -127.6 -89.3 -120.85 -95.5 -106.0 -93.1 -100.05 -92.05 -93.0 -88.9 L-91.0 -88.6 -90.25 -88.4 Q-87.85 -87.3 -83.4 -84.7 -74.9 -79.75 -72.0 -79.75 L-69.0 -80.25 -63.95 -80.25 Q-56.75 -85.6 -51.0 -85.5 L-51.0 -85.75 Q-51.65 -85.75 -52.5 -86.45 -53.35 -87.15 -60.2 -88.9 L-63.25 -91.15 -63.85 -91.6 Q-67.4 -93.7 -82.6 -91.85 -97.8 -90.05 -104.15 -95.95 -110.55 -101.9 -110.05 -106.3 L-107.45 -111.15 Q-111.8 -108.9 -116.4 -108.0 -121.05 -107.1 -123.75 -110.25 -126.5 -113.4 -126.5 -116.3 -126.5 -121.2 -121.15 -126.8 L-114.2 -134.6 Q-119.1 -132.35 -123.0 -132.75 L-126.25 -132.1 -129.25 -131.45 Q-132.2 -127.05 -138.6 -122.85 -143.1 -119.9 -146.8 -118.85 L-152.0 -118.35 Q-154.3 -118.35 -156.95 -120.75 L-158.55 -121.7 Q-161.1 -122.25 -162.0 -125.5 -162.5 -127.45 -162.35 -129.6 -162.35 -138.5 -157.35 -146.5 -154.8 -150.5 -146.15 -160.5 -145.7 -165.1 -142.3 -167.1 -138.85 -169.15 -133.6 -168.1 -128.6 -167.05 -124.95 -163.9 -121.0 -160.5 -121.0 -156.55 -121.0 -154.85 -122.5 -153.75 -124.3 -152.5 -127.75 -152.5 L-138.95 -153.3 -140.3 -152.15 Q-144.2 -148.8 -144.5 -147.85 L-144.8 -145.65 -141.95 -148.15 -138.35 -151.1 Q-136.5 -152.1 -131.75 -150.6 -125.6 -148.6 -121.85 -148.6 L-116.85 -148.75 -107.9 -148.75 Q-104.85 -148.65 -99.75 -146.05 L-99.75 -147.35 -99.7 -149.1 Q-103.75 -151.1 -106.1 -155.5 -108.6 -160.15 -108.6 -165.6 -108.6 -169.55 -106.2 -173.4 -105.2 -175.0 -104.2 -175.6 L-104.5 -176.6 Q-105.0 -178.6 -105.1 -180.75 L-105.05 -182.2 -108.5 -181.75 Q-113.05 -181.75 -115.4 -182.55 L-115.6 -182.5 Q-117.75 -181.75 -119.25 -181.75 L-131.9 -182.55 Q-133.15 -182.9 -134.15 -183.45 L-134.1 -180.9 Q-134.1 -178.75 -139.0 -176.2 -144.05 -173.6 -148.75 -173.6 -153.25 -173.6 -155.0 -175.2 -155.3 -174.25 -155.85 -173.5 -157.75 -170.75 -162.25 -170.75 -166.45 -170.75 -168.0 -174.75 -168.75 -176.7 -168.75 -179.25 -168.75 -181.7 -166.55 -183.45 -164.45 -185.1 -161.65 -185.2 L-160.5 -185.15 Q-154.15 -190.4 -147.7 -192.95 -143.2 -194.75 -140.2 -194.05 L-140.1 -195.55 -139.85 -200.2 -138.15 -202.75 -142.8 -203.0 -148.65 -203.55 Q-150.6 -201.2 -154.15 -198.15 -162.55 -190.75 -168.5 -190.75 L-170.1 -190.75 Q-170.45 -186.7 -173.35 -182.75 -176.75 -178.1 -182.65 -176.6 -182.0 -174.4 -182.0 -170.9 -182.0 -167.1 -185.35 -164.0 -190.05 -159.6 -199.5 -159.6 -204.7 -159.6 -207.8 -161.35 L-208.0 -163.85 Q-208.0 -173.65 -200.25 -176.25 -200.5 -183.9 -196.7 -190.25 -194.15 -194.6 -190.3 -197.4 L-190.25 -197.4 -184.4 -200.15 Q-185.35 -200.75 -186.1 -201.65 L-186.7 -201.25 Q-191.55 -198.25 -203.95 -198.2 L-219.25 -199.2 Q-221.95 -200.2 -223.35 -203.35 L-223.05 -202.75 Q-213.4 -229.7 -190.5 -234.25 -193.15 -238.4 -190.75 -241.75 -189.05 -248.15 -184.25 -250.25 -180.9 -251.75 -173.1 -251.75 -171.15 -251.75 -169.45 -250.7 L-167.2 -249.15 -160.0 -255.15 Q-151.0 -262.0 -145.85 -262.0 -141.0 -262.0 -138.2 -260.3 -136.25 -259.15 -133.25 -255.5 -136.15 -255.95 -138.0 -254.5 -139.7 -253.2 -140.0 -250.75 -137.8 -251.45 -131.75 -251.95 L-126.1 -252.25 -123.85 -252.2 -121.75 -251.75 -123.5 -254.75 Q-123.15 -255.35 -119.8 -255.95 L-115.1 -256.5 Q-111.55 -256.5 -106.2 -252.95 L-102.75 -250.4 Q-100.25 -244.4 -100.25 -243.5 -100.25 -237.55 -102.1 -232.5 -104.1 -227.15 -109.1 -220.25 -111.85 -216.45 -113.95 -211.2 -111.85 -212.9 -106.35 -210.65 -99.65 -207.9 -97.25 -203.0 -95.75 -199.2 -94.6 -195.5 -93.25 -191.05 -93.1 -188.65 -92.35 -187.0 -92.35 -185.6 -92.85 -175.55 -94.2 -170.9 L-93.55 -170.1 -91.95 -167.9 Q-91.65 -170.95 -90.25 -177.05 -88.1 -186.75 -85.85 -189.5 -76.5 -201.15 -64.3 -196.4 -59.45 -194.55 -56.2 -190.6 -53.0 -186.7 -53.0 -182.85 -53.0 -180.1 -59.7 -172.0 -62.9 -168.15 -65.85 -165.85 -75.35 -160.45 -79.25 -155.0 -77.75 -155.6 -72.3 -156.2 L-66.6 -156.75 -62.55 -156.2 -61.45 -155.7 Q-59.75 -156.75 -53.0 -158.75 -46.3 -160.8 -35.05 -154.2 -34.45 -151.55 -34.35 -148.4 L-30.55 -145.75 Q-23.55 -140.35 -20.9 -135.55 L-34.05 -139.05 Q-39.05 -140.45 -43.5 -141.0 L-52.7 -140.45 Q-57.45 -139.4 -59.05 -138.05 -66.4 -138.25 -73.45 -134.9 -79.1 -132.2 -83.45 -127.8 -92.75 -125.9 -97.6 -119.7 -103.15 -112.7 -103.05 -107.45 L-102.95 -101.6 -102.6 -99.9 Q-99.75 -102.85 -94.65 -105.1 -88.75 -107.75 -85.35 -107.25 -82.0 -106.75 -80.6 -105.9 -77.95 -109.8 -73.2 -112.55 -68.45 -115.35 -64.3 -116.5 -60.2 -117.65 -58.45 -117.4 L-56.25 -117.25 Q-54.45 -131.2 -36.75 -124.5 -24.95 -131.3 -21.75 -120.0 -16.0 -122.6 -11.1 -113.9 L-11.25 -113.05 -11.8 -111.3 Q-10.55 -109.55 -9.5 -107.1 L-8.95 -105.8 -9.0 -107.85 Q-9.0 -109.7 -6.75 -115.45 L-5.4 -118.0 -6.65 -119.9 Q-5.6 -122.25 -3.5 -124.05 0.2 -127.25 5.75 -127.25 9.65 -127.25 13.05 -125.1 16.65 -122.8 17.25 -119.5 L17.5 -119.5 17.5 -121.0 Q17.65 -126.05 12.65 -132.4 7.25 -139.25 1.5 -139.25 -1.75 -139.25 -3.75 -137.25 -5.75 -135.2 -5.75 -131.75 L-5.5 -130.3 -5.25 -128.85 -6.85 -126.2 -8.0 -123.8 Q-8.7 -126.75 -8.85 -129.65 L-8.8 -130.5 -10.4 -130.35 Q-10.25 -128.45 -10.35 -125.5 L-10.75 -116.9 -10.95 -118.3 Q-11.35 -121.55 -12.0 -123.25 -12.5 -124.6 -14.5 -127.3 -16.0 -129.3 -16.0 -131.25 -16.0 -140.7 -12.6 -146.65 -8.95 -153.0 -2.0 -154.25 L-5.75 -154.75 Q-8.7 -154.75 -11.2 -153.65 -13.0 -152.85 -14.3 -151.55 -23.55 -152.15 -27.95 -157.9 -27.5 -165.85 -22.0 -171.5 -16.1 -177.5 -8.0 -177.5 -5.1 -177.5 -1.3 -175.95 L4.25 -173.25 Q2.25 -175.65 -0.75 -180.3 -3.15 -183.45 -6.35 -185.1 -3.85 -184.6 -2.1 -183.3 L-2.35 -185.5 -2.35 -185.9 Q-2.95 -190.05 -10.75 -192.65 -18.6 -195.25 -21.2 -195.0 -22.85 -197.05 -26.4 -198.2 L-29.8 -200.4 Q-30.75 -200.95 -32.0 -199.55 -39.45 -199.95 -44.9 -205.25 -48.2 -208.45 -49.55 -211.7 L-51.1 -209.15 Q-57.1 -200.1 -67.75 -200.1 L-76.95 -200.75 -80.45 -202.65 Q-82.7 -203.95 -84.2 -206.55 -85.7 -209.15 -86.25 -212.45 -87.25 -218.6 -87.55 -223.7 -73.4 -245.2 -54.75 -240.7 -54.65 -243.5 -59.7 -246.35 -54.75 -248.35 -47.2 -248.0 -48.15 -244.3 -47.25 -243.0 L-38.1 -246.8 -29.1 -247.5 Q-25.65 -247.5 -18.4 -244.4 -22.1 -250.0 -26.05 -251.6 L-32.75 -253.75 Q-36.55 -254.8 -38.7 -255.75 L-33.6 -256.5 -33.85 -257.6 -34.1 -258.85 -38.5 -258.35 -45.85 -258.35 -46.05 -258.15 Q-46.25 -258.1 -46.25 -258.9 L-46.15 -259.3 Q-46.8 -259.95 -47.35 -261.5 L-47.4 -261.5 Q-51.9 -259.35 -58.25 -259.35 -63.1 -259.35 -65.65 -261.5 -65.65 -262.05 -66.65 -262.85 -67.45 -263.45 -68.05 -265.95 -64.5 -274.95 -58.4 -280.4 -49.9 -288.0 -37.0 -288.0 L-33.8 -287.9 Q-32.5 -287.6 -31.1 -286.35 L-31.0 -286.2 -28.85 -283.8 -28.45 -284.5 -28.3 -284.15 -28.0 -283.0 -27.75 -282.75 Q-20.8 -290.35 -18.0 -290.75 L-19.05 -293.05 -19.0 -293.1 -18.65 -293.3 -18.9 -296.15 -18.95 -296.65 Q-9.55 -309.6 -5.6 -312.85 2.35 -319.5 15.5 -319.5 L21.9 -319.4 Q25.65 -319.0 27.95 -316.45 L29.4 -316.5 Q36.65 -316.45 40.65 -315.2 44.95 -313.9 47.8 -310.7 L47.75 -305.5 Q47.75 -301.35 45.35 -297.9 41.95 -293.05 35.0 -292.6 L24.25 -291.25 Q29.6 -290.6 33.45 -288.45 37.5 -286.2 38.5 -282.8 41.3 -280.8 41.3 -277.0 41.3 -273.3 38.75 -268.35 34.8 -260.75 27.25 -260.75 23.1 -260.75 20.55 -262.25 18.5 -263.4 18.5 -264.65 18.5 -272.05 21.3 -277.05 21.0 -278.55 19.85 -280.1 L19.7 -280.3 Q18.25 -282.2 15.6 -284.2 L14.05 -284.25 12.1 -283.55 Q13.8 -277.75 13.8 -274.6 13.8 -268.8 13.25 -267.15 11.55 -262.0 5.0 -262.0 3.35 -262.0 2.85 -262.7 L-1.45 -263.0 Q-5.25 -262.6 -6.0 -260.35 L-5.35 -260.0 Q15.35 -260.75 26.2 -248.2 30.1 -243.7 32.15 -238.0 L32.25 -237.75 35.05 -239.6 36.75 -240.55 36.0 -238.4 Q35.75 -237.45 35.75 -235.85 35.75 -234.5 36.25 -231.5 37.35 -232.9 39.5 -234.4 41.55 -235.85 43.0 -236.25 L47.15 -237.05 51.75 -237.75 Q53.7 -237.75 54.5 -237.0 55.45 -237.5 55.6 -238.9 55.8 -240.05 56.5 -240.25 55.95 -241.2 54.8 -242.2 L53.5 -243.3 Q54.55 -249.1 58.5 -252.6 62.9 -256.5 67.7 -256.5 L75.3 -256.45 Q78.1 -256.35 83.25 -252.75 86.35 -259.9 90.55 -262.9 94.9 -266.0 99.0 -266.0 104.85 -266.0 110.1 -261.6 112.35 -259.7 113.9 -257.65 L113.9 -257.45 Q114.55 -253.8 114.55 -248.25 114.55 -241.15 108.0 -232.5 102.9 -225.75 96.4 -223.2 L97.45 -222.65 Q102.5 -219.9 102.5 -216.5 102.5 -210.6 101.5 -207.5 99.1 -200.0 91.5 -200.0 80.35 -200.0 74.25 -206.85 71.95 -209.4 70.95 -211.7 L68.15 -209.25 Q69.75 -207.85 71.2 -204.9 74.5 -198.25 74.5 -193.25 74.5 -192.0 70.05 -188.5 L63.75 -183.85 Q62.9 -183.2 60.45 -178.9 L58.9 -176.6 60.65 -172.1 Q62.75 -166.85 62.75 -162.5 L62.0 -150.85 Q62.0 -147.1 59.3 -143.0 55.05 -136.5 46.25 -136.5 L40.75 -136.9 39.6 -135.65 Q36.05 -131.75 35.5 -127.75 L35.55 -126.5 38.15 -123.3 38.85 -122.3 38.4 -122.9 Q40.55 -118.5 41.0 -114.5 41.4 -110.55 42.9 -107.2 L45.0 -102.55 45.2 -103.7 Q44.75 -100.2 42.3 -93.25 L41.8 -91.8 43.5 -89.95 Q46.75 -86.3 49.5 -82.2 L49.8 -81.75 Q48.4 -80.4 46.95 -78.3 45.15 -75.65 44.75 -73.75 L44.75 -73.25 Q50.65 -78.5 60.25 -78.5 61.9 -78.5 64.75 -77.55 L68.75 -76.25 77.8 -79.65 Q81.35 -80.9 83.75 -80.25 82.15 -81.45 78.85 -82.3 L73.5 -83.25 73.75 -83.25 Q76.35 -84.7 79.65 -85.65 83.4 -86.75 86.3 -86.9 89.2 -87.05 91.8 -86.85 94.4 -86.7 95.25 -86.0 107.85 -94.5 120.45 -89.35 119.05 -98.05 96.5 -101.2 91.2 -99.9 86.95 -96.3 82.65 -92.7 80.9 -92.55 79.15 -92.45 75.8 -90.5 L70.75 -87.25 Q66.4 -90.1 63.75 -90.5 L56.5 -90.5 59.05 -92.65 59.0 -92.95 59.05 -92.7 Q65.5 -98.2 71.65 -101.95 81.6 -108.0 88.25 -108.0 L90.4 -107.95 Q91.1 -106.85 91.25 -105.85 L91.5 -104.45 Q92.5 -104.1 94.0 -103.05 L96.5 -101.2 Q98.4 -102.0 100.8 -102.35 L100.95 -102.35 100.85 -102.65 Q100.3 -104.65 100.3 -105.6 100.3 -109.55 102.85 -113.5 105.8 -118.0 110.95 -118.55 111.95 -119.95 114.1 -120.95 L114.75 -121.2 111.5 -121.65 111.45 -121.65 Q110.45 -121.05 108.7 -120.85 L106.8 -119.5 Q101.7 -116.0 98.5 -116.0 81.75 -116.0 74.3 -121.75 70.25 -124.85 69.65 -128.75 L69.05 -130.55 68.75 -131.75 Q70.95 -133.7 73.8 -134.5 L81.6 -135.25 Q88.1 -135.25 93.65 -132.55 98.4 -130.2 103.0 -125.5 104.65 -127.55 106.9 -128.8 109.25 -130.1 111.75 -130.25 116.8 -130.5 118.1 -131.8 119.3 -133.0 122.35 -133.0 L123.25 -132.9 123.9 -131.9 123.75 -133.3 Q123.75 -140.8 125.7 -143.8 128.25 -147.65 135.75 -150.2 L136.15 -152.85 134.65 -156.4 134.55 -156.65 Q128.0 -158.05 124.05 -163.1 120.3 -167.9 120.3 -172.65 120.3 -177.2 121.6 -181.2 122.25 -183.3 123.25 -184.85 117.75 -188.05 116.15 -195.0 114.55 -202.0 115.0 -208.75 115.0 -210.45 116.05 -212.1 L124.15 -219.8 Q126.55 -221.35 132.2 -221.65 L132.05 -221.5 131.25 -220.25 131.5 -220.25 Q132.2 -220.85 133.45 -220.95 L135.85 -221.0 140.3 -220.5 144.0 -219.75 Q143.35 -221.9 141.4 -222.95 L139.05 -223.85 141.45 -225.5 Q148.4 -229.25 153.85 -229.0 L161.6 -228.15 Q163.85 -227.55 166.5 -225.6 164.25 -224.2 161.25 -220.0 184.2 -224.2 196.5 -202.2 M78.0 -225.1 L83.75 -225.85 83.8 -225.9 Q80.7 -227.0 77.5 -230.2 L78.0 -225.1 M58.95 -237.7 L61.8 -238.9 58.3 -239.55 58.95 -237.7 M156.4 -181.3 Q153.15 -179.65 151.0 -179.1 L154.15 -178.65 158.0 -178.25 Q159.25 -178.25 160.1 -179.0 L161.5 -180.25 Q159.1 -182.2 156.4 -181.3 M121.0 -122.45 L123.0 -122.5 Q128.15 -122.45 131.85 -120.85 L132.65 -120.5 133.85 -122.6 135.15 -125.15 Q128.7 -125.95 125.8 -128.6 L124.65 -130.0 Q125.05 -128.45 125.05 -126.5 125.05 -124.65 123.3 -123.85 122.5 -123.5 121.3 -123.2 L121.0 -122.45 M153.15 -118.15 L158.5 -118.0 Q165.9 -115.5 168.5 -114.0 166.9 -116.9 164.85 -118.35 162.5 -120.0 159.25 -120.0 156.5 -120.0 155.0 -119.35 154.25 -119.0 153.15 -118.15 M27.85 -178.15 L28.3 -178.6 29.15 -179.35 Q27.1 -182.45 26.25 -188.5 25.65 -192.7 25.65 -197.3 L24.5 -196.8 24.8 -196.1 25.55 -190.15 25.75 -185.8 Q26.05 -182.55 25.8 -180.35 L25.8 -180.25 Q25.8 -177.15 23.05 -172.6 L21.2 -169.85 19.5 -167.6 Q15.5 -162.5 11.5 -159.55 L11.5 -158.75 Q10.25 -152.95 9.3 -150.5 L15.85 -144.7 24.5 -136.35 24.55 -136.35 Q21.55 -139.5 19.75 -147.1 18.2 -153.7 18.0 -161.0 18.0 -163.55 19.6 -166.85 21.3 -168.6 24.0 -169.75 26.1 -170.6 27.0 -173.75 L27.85 -178.15 M161.8 -8.55 Q163.7 -9.95 170.55 -9.95 176.1 -9.95 178.45 -8.95 L176.9 -11.35 Q174.7 -14.75 170.9 -16.6 169.2 -15.65 165.95 -13.4 L160.8 -9.85 161.8 -8.55 M-159.75 -237.1 Q-163.0 -237.1 -165.35 -239.9 L-165.9 -240.65 -166.55 -241.05 Q-167.65 -239.3 -169.6 -237.6 -173.2 -234.45 -177.6 -233.5 L-177.5 -231.4 -177.5 -229.7 -171.9 -229.15 Q-167.55 -228.45 -164.9 -227.4 -164.25 -229.45 -162.55 -232.7 -161.15 -235.45 -159.65 -237.1 L-159.75 -237.1 M-216.1 -86.35 L-217.8 -84.7 Q-220.75 -81.9 -222.95 -80.75 -223.05 -76.5 -223.35 -74.25 -223.4 -73.85 -223.6 -73.4 -220.95 -76.4 -217.5 -79.0 -213.55 -81.95 -210.45 -83.0 L-213.0 -84.35 -216.1 -86.35 M-1.95 58.2 L-1.8 52.55 -5.5 53.4 Q-3.55 55.7 -1.95 58.2 M-83.0 4.5 Q-84.9 5.65 -89.75 5.15 L-83.1 6.9 -83.1 6.65 -83.0 4.5" fill="#595959" fill-rule="evenodd" stroke="none"/>
      <path d="M116.05 -212.1 L117.15 -213.45 117.05 -217.0 Q117.05 -221.3 123.15 -226.7 127.45 -230.55 132.75 -231.9 134.05 -235.55 137.9 -238.25 143.1 -241.85 150.8 -242.6 158.3 -243.35 163.7 -241.05 167.2 -239.5 168.65 -237.1 L172.1 -236.4 Q179.15 -234.4 186.05 -229.1 L190.2 -223.25 Q192.8 -219.5 193.55 -217.1 195.4 -211.25 196.2 -204.9 L196.25 -204.55 196.5 -202.2 Q184.2 -224.2 161.25 -220.0 164.25 -224.2 166.5 -225.6 163.85 -227.55 161.6 -228.15 L153.85 -229.0 Q148.4 -229.25 141.45 -225.5 L139.05 -223.85 141.4 -222.95 Q143.35 -221.9 144.0 -219.75 L140.3 -220.5 135.85 -221.0 133.45 -220.95 Q132.2 -220.85 131.5 -220.25 L131.25 -220.25 132.05 -221.5 132.2 -221.65 Q126.55 -221.35 124.15 -219.8 L116.05 -212.1 M168.4 -140.6 Q171.6 -139.55 174.3 -137.55 177.05 -135.5 177.45 -132.5 175.95 -133.55 174.65 -133.8 L169.75 -134.0 164.35 -133.5 163.75 -133.5 165.75 -137.8 Q166.9 -139.85 168.4 -140.6 M176.65 -115.25 Q177.15 -119.9 180.65 -125.15 185.55 -132.6 192.75 -134.0 L196.0 -134.45 197.15 -134.95 203.45 -135.4 Q212.55 -134.3 212.55 -128.05 L212.3 -125.6 212.3 -125.5 209.75 -126.65 Q206.45 -127.75 201.1 -125.85 L190.15 -121.75 Q184.5 -119.6 179.25 -112.5 L179.0 -112.75 176.65 -115.25 M188.7 -32.75 L189.05 -32.75 Q197.05 -32.55 202.15 -29.7 208.15 -26.35 208.15 -20.25 L208.15 -20.05 208.15 -18.85 208.1 -18.45 Q205.6 -20.95 201.25 -22.3 L190.5 -24.25 188.7 -32.75 M-256.2 -77.5 L-255.9 -80.9 -255.75 -82.2 -255.7 -82.6 Q-254.75 -90.55 -244.9 -94.35 -236.6 -97.55 -231.7 -97.5 L-229.85 -98.85 Q-226.75 -100.6 -221.85 -100.7 -217.4 -100.85 -213.9 -99.6 L-213.55 -99.45 -209.95 -99.25 -209.1 -99.05 -209.0 -101.3 Q-209.0 -108.0 -205.3 -111.7 -202.1 -114.8 -197.1 -115.0 -192.5 -115.2 -188.95 -112.95 -185.25 -110.55 -185.25 -107.0 -185.25 -104.3 -185.8 -101.65 -186.45 -103.6 -187.95 -105.25 -190.85 -108.5 -194.65 -108.5 -200.9 -108.5 -204.3 -106.0 -207.95 -103.35 -207.3 -98.25 L-210.1 -95.2 -210.3 -94.95 -217.6 -95.5 Q-221.85 -96.0 -227.2 -94.05 -232.6 -92.1 -233.35 -90.85 -234.15 -89.65 -238.35 -88.75 -242.8 -87.85 -244.9 -86.5 -252.75 -81.45 -255.15 -78.8 L-256.2 -77.5 M-183.25 -97.6 L-174.4 -105.1 -174.35 -105.15 -174.0 -105.35 Q-161.4 -112.2 -154.25 -105.45 -151.85 -103.15 -150.4 -99.6 -149.55 -97.4 -149.4 -95.85 L-147.9 -94.35 Q-143.3 -89.5 -142.05 -86.7 L-144.25 -87.65 Q-149.65 -89.95 -151.4 -91.0 -154.8 -98.5 -163.85 -98.1 -172.95 -97.75 -175.7 -95.75 -178.5 -93.75 -181.55 -90.8 L-184.45 -88.2 -184.4 -93.05 -184.0 -96.8 -183.25 -97.6 M-90.25 -88.4 L-89.9 -88.35 -77.5 -85.95 -76.5 -85.85 -71.65 -85.15 -68.75 -86.6 Q-65.15 -88.05 -60.2 -88.9 -53.35 -87.15 -52.5 -86.45 -51.65 -85.75 -51.0 -85.75 L-51.0 -85.5 Q-56.75 -85.6 -63.95 -80.25 L-69.0 -80.25 -72.0 -79.75 Q-74.9 -79.75 -83.4 -84.7 -87.85 -87.3 -90.25 -88.4 M-207.8 -161.35 Q-208.5 -161.75 -209.1 -162.25 -211.35 -164.1 -211.35 -166.0 -211.35 -171.4 -210.65 -173.0 -209.2 -176.4 -203.35 -178.75 -204.0 -179.75 -204.5 -181.75 L-205.1 -185.8 Q-205.1 -190.85 -195.1 -195.25 L-194.55 -195.45 -190.3 -197.4 Q-194.15 -194.6 -196.7 -190.25 -200.5 -183.9 -200.25 -176.25 -208.0 -173.65 -208.0 -163.85 L-207.8 -161.35 M-223.35 -203.35 L-223.6 -203.95 -223.95 -215.0 Q-222.2 -231.8 -208.5 -238.65 -202.85 -241.5 -197.65 -241.35 L-196.1 -241.2 Q-195.5 -242.4 -193.05 -243.2 L-191.85 -243.55 -191.9 -243.6 Q-192.1 -244.1 -192.1 -247.1 -192.1 -251.15 -189.9 -256.35 -187.7 -261.55 -180.25 -260.85 -172.85 -260.15 -170.3 -257.85 L-167.35 -255.2 -164.45 -257.8 -159.75 -261.35 Q-159.4 -261.75 -158.1 -265.0 -157.0 -267.65 -155.1 -268.75 -152.2 -270.4 -144.1 -270.5 -135.3 -270.65 -132.35 -268.0 -131.25 -265.95 -128.95 -264.6 -128.3 -267.6 -126.25 -269.4 -123.6 -271.8 -119.4 -271.6 -115.45 -271.4 -112.25 -269.1 -108.9 -266.7 -108.35 -263.35 L-103.5 -252.2 -102.75 -250.4 -106.2 -252.95 Q-111.55 -256.5 -115.1 -256.5 L-119.8 -255.95 Q-123.15 -255.35 -123.5 -254.75 L-121.75 -251.75 -123.85 -252.2 -126.1 -252.25 -131.75 -251.95 Q-137.8 -251.45 -140.0 -250.75 -139.7 -253.2 -138.0 -254.5 -136.15 -255.95 -133.25 -255.5 -136.25 -259.15 -138.2 -260.3 -141.0 -262.0 -145.85 -262.0 -151.0 -262.0 -160.0 -255.15 L-167.2 -249.15 -169.45 -250.7 Q-171.15 -251.75 -173.1 -251.75 -180.9 -251.75 -184.25 -250.25 -189.05 -248.15 -190.75 -241.75 -193.15 -238.4 -190.5 -234.25 -213.4 -229.7 -223.05 -202.75 L-223.35 -203.35 M-65.85 -165.85 L-64.95 -166.2 Q-58.8 -168.3 -52.45 -167.9 -48.8 -167.7 -45.9 -166.7 L-44.7 -166.3 Q-42.65 -165.45 -40.95 -164.15 L-40.85 -164.05 Q-36.5 -160.65 -35.05 -154.2 -46.3 -160.8 -53.0 -158.75 -59.75 -156.75 -61.45 -155.7 L-62.55 -156.2 -66.6 -156.75 -72.3 -156.2 Q-77.75 -155.6 -79.25 -155.0 -75.35 -160.45 -65.85 -165.85 M-20.9 -135.55 L-19.15 -137.75 Q-15.5 -141.8 -14.85 -143.75 L-14.15 -149.55 -13.85 -151.55 -14.3 -151.55 Q-13.0 -152.85 -11.2 -153.65 -8.7 -154.75 -5.75 -154.75 L-2.0 -154.25 Q-8.95 -153.0 -12.6 -146.65 -16.0 -140.7 -16.0 -131.25 -16.0 -129.3 -14.5 -127.3 -12.5 -124.6 -12.0 -123.25 -11.35 -121.55 -10.95 -118.3 L-10.75 -116.9 -11.05 -114.2 -11.1 -113.9 Q-16.0 -122.6 -21.75 -120.0 -24.95 -131.3 -36.75 -124.5 -54.45 -131.2 -56.25 -117.25 L-58.45 -117.4 Q-60.2 -117.65 -64.3 -116.5 -68.45 -115.35 -73.2 -112.55 -77.95 -109.8 -80.6 -105.9 -82.0 -106.75 -85.35 -107.25 -88.75 -107.75 -94.65 -105.1 -99.75 -102.85 -102.6 -99.9 L-102.95 -101.6 -103.05 -107.45 Q-103.15 -112.7 -97.6 -119.7 -92.75 -125.9 -83.45 -127.8 -79.1 -132.2 -73.45 -134.9 -66.4 -138.25 -59.05 -138.05 -57.45 -139.4 -52.7 -140.45 L-43.5 -141.0 Q-39.05 -140.45 -34.05 -139.05 L-20.9 -135.55 M-27.95 -157.9 Q-29.25 -159.6 -30.1 -161.75 -31.75 -165.75 -31.95 -172.3 -32.2 -178.85 -25.2 -183.35 -18.25 -187.9 -10.0 -185.5 L-6.35 -185.1 Q-3.15 -183.45 -0.75 -180.3 2.25 -175.65 4.25 -173.25 L-1.3 -175.95 Q-5.1 -177.5 -8.0 -177.5 -16.1 -177.5 -22.0 -171.5 -27.5 -165.85 -27.95 -157.9 M-87.55 -223.7 L-87.75 -228.25 Q-87.75 -234.95 -83.35 -240.7 -79.4 -245.9 -73.2 -248.9 -67.2 -251.8 -61.9 -251.3 L-60.25 -251.05 Q-56.9 -252.1 -52.75 -252.5 -49.25 -252.8 -46.5 -252.55 L-45.25 -253.6 Q-43.15 -254.9 -38.7 -255.75 -36.55 -254.8 -32.75 -253.75 L-26.05 -251.6 Q-22.1 -250.0 -18.4 -244.4 -25.65 -247.5 -29.1 -247.5 L-38.1 -246.8 -47.25 -243.0 Q-48.15 -244.3 -47.2 -248.0 -54.75 -248.35 -59.7 -246.35 -54.65 -243.5 -54.75 -240.7 -73.4 -245.2 -87.55 -223.7 M-68.05 -265.95 L-68.45 -267.75 Q-69.25 -271.9 -69.1 -275.5 -69.1 -280.05 -63.45 -286.25 -57.0 -293.4 -48.25 -295.5 L-40.0 -295.75 Q-37.6 -295.75 -35.9 -294.35 -34.25 -292.95 -34.25 -291.0 L-31.1 -286.35 Q-32.5 -287.6 -33.8 -287.9 L-37.0 -288.0 Q-49.9 -288.0 -58.4 -280.4 -64.5 -274.95 -68.05 -265.95 M-28.45 -284.5 L-28.45 -284.55 -28.2 -285.0 -27.9 -285.45 Q-25.1 -289.5 -19.05 -293.05 L-19.0 -293.1 -19.05 -293.05 -18.0 -290.75 Q-20.8 -290.35 -27.75 -282.75 L-28.0 -283.0 -28.3 -284.15 -28.45 -284.5 M-18.95 -296.65 L-19.35 -300.6 Q-19.35 -310.4 -12.0 -317.9 -1.65 -328.4 21.0 -331.0 40.35 -328.1 45.65 -319.1 47.5 -315.95 47.8 -311.7 L47.8 -310.7 Q44.95 -313.9 40.65 -315.2 36.65 -316.45 29.4 -316.5 L27.95 -316.45 Q25.65 -319.0 21.9 -319.4 L15.5 -319.5 Q2.35 -319.5 -5.6 -312.85 -9.55 -309.6 -18.95 -296.65 M36.75 -240.55 L36.75 -240.6 37.8 -241.15 45.0 -243.95 Q49.15 -245.05 52.1 -244.55 51.8 -245.55 51.8 -246.75 51.8 -248.65 53.2 -250.35 L53.25 -252.25 Q53.25 -257.0 62.35 -260.9 68.9 -263.7 76.0 -264.35 L80.5 -264.6 83.2 -264.15 Q84.95 -266.5 93.5 -270.75 99.5 -271.7 103.8 -270.2 106.95 -269.1 110.05 -266.25 112.8 -263.05 113.9 -257.65 112.35 -259.7 110.1 -261.6 104.85 -266.0 99.0 -266.0 94.9 -266.0 90.55 -262.9 86.35 -259.9 83.25 -252.75 78.1 -256.35 75.3 -256.45 L67.7 -256.5 Q62.9 -256.5 58.5 -252.6 54.55 -249.1 53.5 -243.3 L54.8 -242.2 Q55.95 -241.2 56.5 -240.25 55.8 -240.05 55.6 -238.9 55.45 -237.5 54.5 -237.0 53.7 -237.75 51.75 -237.75 L47.15 -237.05 43.0 -236.25 Q41.55 -235.85 39.5 -234.4 37.35 -232.9 36.25 -231.5 35.75 -234.5 35.75 -235.85 35.75 -237.45 36.0 -238.4 L36.75 -240.55 M38.85 -122.3 L45.0 -108.35 45.0 -108.1 45.25 -105.05 45.25 -104.95 45.25 -104.7 45.2 -103.7 45.0 -102.55 42.9 -107.2 Q41.4 -110.55 41.0 -114.5 40.55 -118.5 38.4 -122.9 L38.85 -122.3 M49.8 -81.75 L49.9 -81.55 50.35 -80.9 Q50.75 -83.95 53.8 -87.65 L53.95 -87.85 55.6 -89.65 56.5 -90.5 63.75 -90.5 Q66.4 -90.1 70.75 -87.25 L75.8 -90.5 Q79.15 -92.45 80.9 -92.55 82.65 -92.7 86.95 -96.3 91.2 -99.9 96.5 -101.2 119.05 -98.05 120.45 -89.35 107.85 -94.5 95.25 -86.0 94.4 -86.7 91.8 -86.85 89.2 -87.05 86.3 -86.9 83.4 -86.75 79.65 -85.65 76.35 -84.7 73.75 -83.25 L73.5 -83.25 78.85 -82.3 Q82.15 -81.45 83.75 -80.25 81.35 -80.9 77.8 -79.65 L68.75 -76.25 64.75 -77.55 Q61.9 -78.5 60.25 -78.5 50.65 -78.5 44.75 -73.25 L44.75 -73.75 Q45.15 -75.65 46.95 -78.3 48.4 -80.4 49.8 -81.75 M59.0 -92.95 L59.0 -93.05 Q59.0 -95.45 59.55 -97.75 L59.8 -98.5 Q60.05 -105.65 64.5 -110.45 68.65 -114.9 75.0 -116.1 81.0 -117.25 85.5 -115.05 90.1 -112.8 90.25 -108.15 L90.25 -108.1 90.4 -107.95 88.25 -108.0 Q81.6 -108.0 71.65 -101.95 65.5 -98.2 59.05 -92.7 L59.0 -92.95 M68.75 -131.75 L68.65 -132.1 68.25 -134.1 68.25 -134.15 68.25 -134.35 Q68.25 -137.05 72.9 -140.7 79.05 -145.65 88.0 -144.25 96.15 -141.7 100.95 -137.25 103.2 -135.2 104.3 -133.15 L106.65 -134.65 Q110.1 -136.25 114.15 -136.3 L114.55 -136.3 122.6 -133.7 123.3 -132.9 123.25 -132.9 122.35 -133.0 Q119.3 -133.0 118.1 -131.8 116.8 -130.5 111.75 -130.25 109.25 -130.1 106.9 -128.8 104.65 -127.55 103.0 -125.5 98.4 -130.2 93.65 -132.55 88.1 -135.25 81.6 -135.25 L73.8 -134.5 Q70.95 -133.7 68.75 -131.75 M153.15 -118.15 Q154.25 -119.0 155.0 -119.35 156.5 -120.0 159.25 -120.0 162.5 -120.0 164.85 -118.35 166.9 -116.9 168.5 -114.0 165.9 -115.5 158.5 -118.0 L153.15 -118.15 M23.05 -172.6 Q25.2 -175.6 27.85 -178.15 L27.0 -173.75 Q26.1 -170.6 24.0 -169.75 21.3 -168.6 19.6 -166.85 L21.2 -169.85 23.05 -172.6 M-8.0 -123.8 L-6.85 -126.2 -5.25 -128.85 -5.5 -130.3 -5.75 -131.75 Q-5.75 -135.2 -3.75 -137.25 -1.75 -139.25 1.5 -139.25 7.25 -139.25 12.65 -132.4 17.65 -126.05 17.5 -121.0 L17.5 -119.5 17.25 -119.5 Q16.65 -122.8 13.05 -125.1 9.65 -127.25 5.75 -127.25 0.2 -127.25 -3.5 -124.05 -5.6 -122.25 -6.65 -119.9 L-7.75 -122.8 -8.0 -123.8" fill="#616161" fill-rule="evenodd" stroke="none"/>
    </g>
  </defs>
</svg>
