<?xml version="1.0" encoding="UTF-8" standalone="no"?>
<svg xmlns:ffdec="https://www.free-decompiler.com/flash" xmlns:xlink="http://www.w3.org/1999/xlink" ffdec:objectType="frame" height="499.45px" width="496.15px" xmlns="http://www.w3.org/2000/svg">
  <g transform="matrix(1.0, 0.0, 0.0, 1.0, 270.5, 376.7)">
    <use ffdec:characterId="167" height="433.05" transform="matrix(1.0, 0.0, 0.0, 1.0, -259.5, -336.55)" width="474.6" xlink:href="#shape0"/>
  </g>
  <defs>
    <g id="shape0" transform="matrix(1.0, 0.0, 0.0, 1.0, 259.5, 336.55)">
      <path d="M116.55 -212.7 Q124.9 -221.75 127.4 -222.7 L129.45 -223.45 132.0 -225.15 135.4 -225.7 139.8 -225.85 Q144.05 -226.0 136.75 -228.4 141.95 -231.5 145.0 -232.7 L150.5 -232.9 155.85 -232.45 159.4 -231.9 159.8 -231.65 160.65 -231.1 Q157.9 -229.25 156.75 -227.1 L157.45 -227.25 163.5 -227.4 Q163.95 -226.25 164.0 -224.85 170.95 -226.3 176.25 -224.6 178.6 -223.85 180.7 -222.4 182.5 -221.15 184.1 -219.4 191.35 -211.25 193.25 -207.85 L193.15 -208.8 Q193.75 -205.05 193.8 -200.95 L193.4 -199.4 193.95 -193.0 Q194.0 -186.4 186.15 -177.6 178.3 -168.85 176.0 -169.35 L174.35 -166.35 Q169.5 -158.1 163.85 -158.1 160.0 -158.1 156.6 -159.1 L151.85 -159.35 Q149.35 -161.9 149.35 -162.5 L149.35 -162.95 148.35 -161.8 Q146.2 -159.8 145.85 -156.6 L145.85 -156.1 Q149.4 -157.35 151.35 -157.35 157.75 -157.35 161.4 -153.35 163.85 -150.65 163.85 -148.85 163.85 -146.95 163.15 -145.1 L162.5 -143.8 164.5 -143.3 Q168.1 -142.25 171.3 -140.55 L170.0 -141.2 163.25 -137.5 155.0 -133.0 155.0 -132.5 Q157.2 -132.5 159.45 -133.5 161.7 -134.5 164.25 -134.5 168.55 -134.5 173.85 -132.85 177.45 -131.75 180.0 -130.4 179.45 -127.85 177.15 -125.9 174.2 -123.35 168.85 -122.6 L168.85 -122.35 Q168.85 -121.1 167.75 -119.7 166.6 -118.35 166.6 -117.1 L171.5 -111.6 Q176.35 -106.3 176.35 -103.25 176.35 -97.95 174.9 -95.4 L173.45 -93.45 Q175.4 -93.2 176.85 -92.6 L176.85 -94.0 Q176.85 -100.0 179.1 -101.95 180.5 -103.15 183.1 -102.9 183.6 -104.15 183.6 -105.35 183.6 -106.6 182.5 -108.7 181.35 -110.85 181.35 -112.1 181.35 -113.85 181.75 -115.65 L181.65 -115.1 Q183.0 -116.75 185.25 -118.45 190.75 -122.55 195.0 -122.0 195.85 -127.0 200.55 -129.7 204.55 -132.0 210.0 -132.0 L214.25 -131.8 214.2 -132.3 214.35 -130.1 Q214.6 -129.35 214.2 -128.6 213.4 -127.05 210.35 -127.35 L211.75 -123.9 Q212.6 -121.75 212.6 -120.25 212.6 -115.45 209.5 -112.15 203.8 -106.05 189.35 -108.35 L189.9 -106.45 190.1 -103.85 Q190.1 -101.85 189.45 -101.15 L192.45 -100.1 Q197.4 -98.35 200.35 -98.35 209.8 -98.35 213.35 -92.15 215.1 -89.05 215.1 -85.0 215.1 -81.5 213.35 -77.9 210.9 -72.75 206.35 -72.75 L205.2 -72.85 Q203.4 -72.0 200.35 -72.0 192.45 -72.0 188.4 -77.6 186.0 -80.9 185.85 -83.3 L180.35 -85.4 Q180.2 -79.45 174.15 -74.85 167.65 -70.0 158.35 -70.0 149.1 -70.0 144.65 -75.55 L141.4 -80.2 Q139.5 -82.9 137.35 -84.1 L137.65 -84.35 139.85 -84.6 Q142.65 -84.6 145.5 -80.85 148.3 -77.1 153.0 -77.1 154.55 -77.1 156.1 -77.8 156.95 -78.2 158.6 -79.1 L158.05 -80.3 157.85 -82.85 Q157.85 -86.5 160.65 -89.6 L161.35 -90.3 Q159.0 -90.9 156.9 -93.35 L153.85 -96.85 Q152.1 -96.25 150.55 -94.85 L147.9 -92.3 Q144.3 -89.1 137.85 -89.1 134.4 -89.1 133.2 -90.3 L131.75 -92.95 Q130.5 -95.2 125.75 -96.15 L125.85 -94.85 Q125.85 -92.35 125.35 -91.1 L125.05 -90.5 Q122.5 -98.15 102.35 -101.85 102.3 -112.2 106.0 -114.55 L110.45 -114.75 Q111.4 -117.9 114.85 -119.95 119.15 -122.55 125.25 -122.4 131.45 -122.2 135.6 -119.15 L136.05 -118.8 136.85 -119.35 Q139.05 -120.9 140.35 -123.05 L142.05 -126.45 142.45 -127.1 141.8 -129.1 139.6 -133.1 138.85 -131.45 Q138.1 -130.1 136.85 -130.1 125.85 -130.1 125.85 -136.85 125.85 -142.3 129.0 -145.65 131.6 -148.4 135.85 -149.1 L137.0 -149.25 Q137.9 -151.75 138.1 -155.0 137.65 -156.9 137.6 -160.45 128.7 -161.25 125.65 -166.35 123.85 -169.35 124.35 -172.35 124.35 -180.3 127.4 -183.9 119.15 -186.4 116.9 -196.7 115.4 -203.55 116.6 -210.6 L116.55 -212.7 M39.8 -317.2 L39.9 -314.05 Q39.95 -299.4 21.6 -302.95 19.7 -301.2 17.35 -299.95 15.85 -299.05 14.0 -299.35 L10.2 -295.9 9.45 -295.2 7.4 -293.4 4.75 -290.6 7.9 -288.3 9.25 -287.15 11.65 -288.8 Q15.9 -291.15 21.4 -291.35 26.6 -291.5 30.15 -289.45 34.8 -288.8 36.0 -285.5 L36.45 -283.45 36.55 -282.95 Q39.5 -281.55 39.5 -277.75 L39.45 -275.65 39.25 -274.35 Q38.95 -274.35 38.7 -273.95 L38.45 -273.75 Q37.9 -269.85 32.0 -265.15 L30.45 -263.85 30.25 -263.95 28.45 -264.5 24.5 -264.1 22.4 -264.25 21.65 -263.6 21.3 -264.55 Q18.4 -265.55 17.5 -268.65 16.8 -270.95 17.25 -273.5 17.25 -277.6 17.5 -278.5 18.15 -281.05 21.0 -281.6 L21.45 -281.5 21.85 -282.0 21.65 -282.15 Q18.15 -285.1 16.35 -285.1 14.25 -285.1 9.3 -282.9 L6.75 -279.9 4.6 -277.85 6.15 -275.55 Q8.25 -271.75 8.25 -263.85 8.25 -262.4 0.0 -260.85 -8.05 -259.35 -15.0 -259.35 L-17.3 -258.7 Q-11.0 -257.6 -6.5 -257.6 12.25 -257.6 19.0 -249.15 21.85 -245.5 22.2 -240.35 L31.5 -236.3 33.1 -235.65 32.0 -233.0 Q30.5 -229.5 30.5 -228.65 L30.5 -225.9 Q31.95 -228.2 33.9 -229.5 36.5 -231.3 39.5 -230.9 39.2 -233.8 41.8 -235.25 43.9 -236.4 47.25 -236.4 51.3 -236.4 53.5 -233.9 L54.0 -233.25 53.5 -236.9 53.6 -238.75 54.1 -238.95 56.35 -234.95 57.5 -231.85 Q59.65 -234.25 62.4 -235.75 66.65 -238.1 69.7 -237.0 73.0 -235.75 73.0 -230.75 73.0 -229.25 70.9 -227.0 68.75 -224.75 68.75 -224.0 68.75 -222.25 70.5 -220.6 72.45 -218.85 75.0 -218.85 76.9 -218.85 78.6 -219.65 79.55 -220.1 81.2 -221.05 84.1 -222.45 88.6 -219.6 L93.1 -220.6 93.35 -224.65 Q87.05 -225.0 84.3 -227.0 82.45 -228.35 81.25 -232.2 80.1 -236.0 77.8 -237.45 74.1 -239.85 65.0 -239.85 57.7 -239.85 54.75 -244.35 53.3 -246.65 53.25 -249.25 53.25 -252.5 55.2 -255.9 L57.95 -257.2 Q63.65 -259.4 69.75 -259.4 77.1 -259.4 83.55 -255.25 86.95 -253.05 89.5 -250.2 L89.0 -253.35 88.4 -257.15 91.6 -254.85 91.75 -257.5 Q97.0 -261.9 103.25 -261.9 110.35 -261.9 113.95 -258.45 116.0 -256.55 116.65 -253.75 L115.8 -250.35 Q114.25 -244.5 111.9 -239.4 106.75 -228.05 100.1 -225.4 102.25 -223.45 103.2 -220.45 104.1 -217.75 104.1 -211.75 104.1 -204.35 90.85 -204.35 85.55 -204.35 80.65 -207.05 75.1 -210.1 75.25 -214.6 73.0 -214.85 71.1 -216.05 69.4 -217.1 68.25 -217.1 L64.5 -213.95 Q61.35 -211.7 58.35 -211.1 61.2 -210.75 64.7 -209.05 68.9 -206.95 71.95 -203.6 75.0 -200.3 75.0 -197.85 75.0 -194.85 72.25 -192.75 68.15 -190.25 65.45 -188.15 62.25 -185.65 59.55 -182.0 L59.6 -180.95 59.15 -180.95 60.25 -175.15 Q62.0 -167.05 62.0 -163.85 62.0 -155.05 61.0 -151.1 58.45 -141.1 50.0 -141.1 L43.8 -141.35 40.0 -138.35 Q36.0 -135.45 34.5 -133.7 L33.5 -132.35 Q32.65 -129.85 32.15 -126.95 L32.1 -126.7 33.8 -123.85 33.9 -123.7 35.75 -116.2 37.5 -107.5 Q37.75 -105.8 41.55 -101.25 L43.5 -98.7 Q43.3 -96.7 37.85 -89.95 44.15 -87.45 50.25 -82.85 L51.8 -81.65 48.0 -73.0 Q57.2 -81.45 60.55 -80.1 L60.85 -80.2 67.0 -80.5 71.85 -79.75 75.5 -79.0 Q77.3 -79.0 82.05 -80.75 86.55 -82.4 92.0 -82.5 89.3 -84.95 84.6 -86.9 80.4 -88.6 76.85 -88.9 L78.15 -89.3 Q82.7 -90.5 88.0 -90.5 L92.7 -89.8 97.35 -88.75 98.0 -88.9 108.2 -90.85 Q115.75 -92.25 122.15 -88.55 128.55 -84.9 128.6 -77.45 128.25 -69.65 125.1 -65.75 122.05 -62.05 116.2 -59.95 118.35 -55.45 118.35 -47.5 118.35 -42.05 117.1 -38.5 114.75 -31.75 108.35 -31.75 105.15 -31.75 102.15 -33.85 L101.6 -32.25 Q101.6 -28.75 105.05 -25.55 107.25 -23.55 112.6 -20.45 L119.65 -16.0 Q121.3 -16.75 122.05 -17.2 125.6 -19.3 125.6 -21.35 L124.6 -25.9 Q123.55 -29.75 123.6 -32.3 123.65 -34.9 127.4 -38.75 131.1 -42.6 136.75 -43.4 L138.4 -43.55 Q138.75 -50.35 142.75 -53.5 146.65 -56.45 152.5 -55.35 L154.55 -54.8 Q155.35 -59.1 157.45 -61.5 L157.7 -61.75 Q158.85 -64.8 162.0 -66.4 166.4 -68.6 172.85 -67.5 179.2 -66.45 183.7 -62.9 188.6 -59.0 188.6 -54.0 188.6 -47.75 186.85 -44.3 183.45 -37.45 173.7 -37.0 L173.85 -35.5 Q173.85 -34.55 174.95 -33.45 L177.6 -31.0 Q178.4 -31.0 184.8 -32.75 L189.55 -33.95 Q190.4 -31.35 190.55 -26.7 L192.0 -25.95 Q194.25 -24.75 199.85 -23.9 205.4 -23.05 208.1 -21.35 L208.1 -21.6 207.85 -20.05 Q208.35 -18.55 208.35 -17.0 208.35 -14.55 203.6 -9.55 198.1 -3.75 192.85 -3.75 188.45 -3.75 185.35 -4.75 186.6 -2.7 186.6 0.0 186.6 5.35 182.6 9.55 176.15 16.25 161.35 16.25 147.6 16.25 144.6 10.3 143.65 8.4 143.9 6.15 144.05 5.05 144.35 4.25 144.35 0.95 146.2 -1.8 L137.35 -1.25 Q136.15 -1.25 134.9 0.0 L131.85 2.75 Q129.5 4.3 125.8 5.3 L125.85 7.0 Q125.85 7.65 128.5 10.65 131.1 13.65 131.1 16.0 131.1 18.6 126.85 22.8 122.05 27.5 117.35 27.5 L112.45 27.45 107.35 27.2 103.65 30.35 Q104.75 31.9 104.35 33.65 L104.05 34.65 102.45 38.9 103.55 43.9 112.45 40.15 112.75 40.05 Q122.85 37.5 122.85 46.25 122.85 49.5 121.65 50.8 120.0 52.5 115.35 52.5 L112.45 52.3 Q110.3 52.2 109.2 50.3 107.65 47.65 104.45 47.7 L103.85 47.85 101.85 53.0 112.45 54.45 114.5 55.2 Q117.55 56.6 119.55 58.95 L120.2 59.75 Q125.85 58.75 130.55 58.8 131.45 49.4 137.6 43.8 143.85 38.15 153.6 37.55 162.6 37.0 169.6 40.7 176.85 44.55 176.85 50.5 176.85 58.2 173.1 65.55 166.45 78.5 150.85 78.5 146.45 78.5 142.95 77.4 142.05 80.3 140.6 82.8 133.1 95.75 112.85 95.75 L112.45 95.75 Q103.35 95.75 96.95 91.8 90.5 87.85 90.5 82.25 90.1 80.25 90.1 77.85 90.1 76.7 90.5 75.55 91.55 74.0 92.75 72.6 97.5 66.9 104.5 64.4 L104.65 61.5 97.35 62.0 95.6 63.7 Q93.4 65.75 90.5 66.3 L83.35 67.0 Q75.75 67.0 73.25 62.4 L72.8 61.4 Q70.0 59.2 70.0 57.25 70.0 53.05 72.85 49.8 L73.6 49.05 74.0 45.5 Q74.0 40.25 78.25 37.4 80.9 35.65 84.45 35.2 85.5 33.4 87.8 32.15 85.9 31.0 84.25 29.25 L82.2 26.75 82.0 26.75 Q70.75 26.75 63.25 18.0 L60.95 14.95 55.65 11.7 Q58.0 15.5 58.0 19.5 58.0 24.0 52.5 28.5 50.7 30.0 48.65 31.1 52.2 32.4 55.25 34.3 64.75 40.1 64.75 48.5 64.75 59.6 59.5 68.75 52.95 80.15 39.8 83.55 32.0 88.5 27.0 88.5 17.55 88.5 11.5 82.25 5.65 78.9 2.55 71.5 0.7 67.15 0.05 61.9 L-0.25 56.85 Q-0.25 49.15 1.0 48.0 -5.1 50.0 -12.0 50.0 L-17.45 49.8 Q-11.6 51.75 -7.7 55.8 -3.65 60.1 -2.9 65.8 -1.65 67.8 -1.05 69.7 L-1.0 69.75 Q0.5 72.0 0.5 76.5 0.5 80.9 -3.5 87.0 -9.75 96.5 -21.5 96.5 -30.35 96.5 -32.8 93.95 -33.45 93.25 -33.55 92.4 -39.45 90.05 -43.5 85.5 -46.35 82.35 -47.9 78.5 -49.0 75.75 -49.0 74.25 L-48.75 70.3 -53.1 65.45 -57.55 62.9 -61.3 60.35 Q-67.9 59.5 -69.75 54.4 -70.45 52.45 -70.45 50.1 L-70.25 48.0 Q-70.25 33.9 -49.1 29.8 L-46.8 29.4 Q-38.1 25.25 -30.1 22.75 L-27.8 22.1 -29.8 21.05 -35.5 20.45 -36.0 20.5 Q-40.3 20.5 -45.45 18.55 -50.5 16.6 -52.25 14.5 -53.9 15.4 -58.25 19.6 L-58.25 19.85 Q-58.25 23.55 -65.8 27.75 -71.15 30.75 -76.05 31.65 L-76.8 32.15 -76.8 31.8 -80.0 32.0 -83.05 31.65 -85.5 31.75 Q-93.9 31.75 -99.0 27.6 -100.65 26.25 -101.95 24.45 L-103.25 22.5 -104.0 23.35 Q-104.75 24.05 -104.75 25.5 L-103.0 28.05 Q-101.25 30.35 -101.25 31.5 -101.25 33.2 -102.65 39.6 L-102.85 40.6 Q-91.0 40.55 -91.0 47.0 -91.0 50.7 -93.95 55.3 -97.2 60.25 -102.4 61.7 -106.5 64.5 -113.0 64.5 L-126.25 63.75 -126.25 64.25 Q-126.25 67.8 -133.25 72.5 -140.65 77.5 -147.5 77.5 -158.15 77.5 -166.5 69.95 L-166.75 70.25 Q-170.6 76.0 -177.5 76.0 -185.85 76.0 -192.0 72.75 -199.7 68.65 -200.7 61.65 -201.7 55.0 -193.1 49.2 -200.7 54.0 -196.9 51.35 -194.5 49.6 -192.0 48.5 -188.9 47.35 -186.0 48.0 L-185.0 47.75 Q-191.5 42.7 -193.05 39.45 -194.0 37.5 -194.0 32.35 -194.0 20.8 -187.7 16.55 -182.45 13.0 -173.85 15.05 -166.3 16.85 -160.05 21.85 -153.75 26.8 -153.75 31.0 -153.75 36.15 -160.75 42.95 L-161.6 43.75 -161.0 43.75 Q-156.85 43.75 -154.0 45.1 -149.2 40.75 -140.0 40.5 -140.0 37.25 -138.0 33.25 -144.4 31.4 -147.05 28.15 -149.0 25.8 -149.0 22.5 -149.0 20.95 -147.75 18.3 -146.25 15.2 -143.95 13.05 -137.55 7.0 -129.0 12.0 -125.75 13.35 -121.45 20.6 -119.4 24.05 -118.5 25.95 L-117.3 25.4 Q-110.95 22.75 -108.95 21.45 -104.75 18.75 -103.5 14.75 -101.8 9.15 -97.25 7.65 -93.4 6.3 -88.55 8.2 -86.1 9.15 -84.2 10.6 -85.2 6.85 -85.25 1.0 -105.9 0.5 -114.7 -16.1 -117.1 -20.55 -118.25 -25.1 L-119.5 -22.75 Q-123.55 -16.0 -132.0 -16.0 L-132.9 -16.1 Q-134.9 -14.75 -138.0 -14.75 -147.6 -14.75 -151.05 -23.2 -152.75 -27.4 -152.75 -33.75 L-154.15 -33.9 Q-155.7 -30.7 -157.75 -29.0 -160.0 -27.1 -160.0 -23.35 -160.0 -19.5 -162.55 -17.05 -165.65 -14.0 -172.0 -14.0 -176.85 -14.0 -178.8 -19.15 -179.75 -21.75 -179.75 -24.6 L-179.65 -31.25 Q-179.25 -34.75 -177.25 -36.65 -173.15 -40.6 -159.75 -40.0 L-159.7 -40.0 -158.7 -40.35 -156.0 -40.75 -155.65 -40.75 Q-156.05 -43.75 -155.25 -48.5 -164.15 -49.05 -166.5 -55.5 L-166.65 -56.0 -167.15 -55.35 Q-170.5 -51.3 -178.55 -51.0 L-178.85 -51.4 Q-179.5 -52.25 -180.75 -50.5 -182.0 -48.75 -185.95 -47.8 -189.95 -46.9 -196.35 -50.05 -202.75 -53.2 -199.95 -61.85 L-208.15 -62.85 Q-205.3 -51.0 -214.3 -47.6 -212.75 -45.9 -212.75 -44.0 L-212.65 -42.75 Q-212.25 -41.55 -212.25 -40.35 -212.25 -35.25 -214.3 -32.5 -218.1 -27.25 -229.0 -27.25 -234.05 -27.25 -237.35 -28.55 -248.55 -29.15 -252.75 -34.2 -255.25 -37.2 -255.25 -42.5 -255.25 -49.35 -248.6 -52.5 -242.9 -55.25 -234.0 -54.65 L-231.0 -54.35 Q-232.55 -58.35 -233.25 -62.5 -233.25 -65.75 -225.0 -74.6 -216.4 -83.85 -212.0 -83.85 L-209.1 -84.15 Q-210.15 -86.5 -214.5 -88.55 L-215.3 -88.9 Q-216.35 -87.9 -218.2 -86.85 -222.2 -84.6 -225.0 -84.6 L-228.3 -85.0 Q-229.5 -83.1 -230.55 -80.15 -232.55 -74.55 -233.9 -72.75 -236.55 -69.15 -242.0 -68.5 L-248.0 -68.5 -251.9 -69.15 Q-257.55 -68.3 -259.0 -74.15 L-258.95 -74.1 Q-258.05 -81.15 -249.55 -86.45 -241.25 -91.65 -235.0 -90.0 -233.95 -96.3 -225.7 -96.6 -215.8 -95.75 -212.0 -96.5 -211.6 -97.7 -212.35 -98.45 L-213.6 -99.6 -212.5 -99.2 -212.45 -99.15 -209.7 -99.2 -209.75 -99.35 Q-211.0 -101.85 -211.0 -105.35 -210.05 -106.9 -208.2 -107.75 -205.55 -109.0 -200.75 -109.0 -194.45 -109.0 -192.5 -107.6 -190.95 -106.5 -189.5 -102.9 -190.15 -101.15 -191.3 -99.35 -194.6 -94.1 -200.0 -94.1 L-202.2 -94.2 -198.45 -89.55 Q-196.95 -87.5 -196.5 -85.9 L-191.5 -86.95 -187.35 -87.4 -186.95 -89.9 -187.05 -89.35 Q-184.1 -91.95 -178.75 -95.0 -170.85 -99.5 -165.75 -99.5 -159.0 -99.5 -151.95 -95.2 -147.45 -92.45 -145.75 -90.85 L-142.3 -84.4 Q-140.95 -83.85 -139.8 -83.0 -135.25 -79.6 -135.25 -71.6 -135.25 -70.05 -137.25 -67.85 -139.25 -65.7 -139.25 -64.5 -139.25 -63.5 -135.1 -58.15 -133.0 -55.45 -132.0 -53.5 L-128.35 -57.8 Q-125.25 -62.0 -125.25 -65.0 -125.25 -67.8 -123.65 -71.15 -128.85 -72.2 -130.3 -75.9 -130.9 -77.55 -130.8 -79.85 L-130.5 -82.6 Q-130.4 -89.25 -127.0 -91.4 -119.05 -99.05 -111.15 -94.7 L-109.0 -94.95 Q-106.75 -94.8 -104.25 -93.35 -101.15 -91.5 -90.95 -83.75 L-87.4 -81.05 -86.2 -81.35 Q-82.85 -80.55 -77.9 -78.15 -73.4 -76.0 -70.0 -76.0 -66.7 -76.0 -63.65 -77.85 -61.1 -79.4 -55.0 -78.5 -52.95 -82.95 -51.15 -84.2 -49.25 -85.5 -44.75 -85.5 L-41.7 -85.4 -39.9 -84.95 Q-40.8 -85.7 -43.45 -86.55 L-48.5 -88.0 -56.9 -88.05 -55.7 -91.4 Q-58.1 -92.0 -59.15 -93.2 L-60.5 -94.85 Q-61.45 -95.6 -63.5 -95.6 -64.75 -95.6 -65.6 -93.95 -68.1 -92.35 -77.5 -92.35 L-81.85 -92.55 -85.0 -92.1 Q-99.7 -92.1 -103.5 -100.35 L-104.0 -101.65 Q-102.3 -104.85 -99.15 -107.55 -94.25 -111.85 -88.5 -112.5 -86.35 -112.75 -79.15 -117.45 -72.25 -122.0 -67.5 -122.0 L-65.35 -121.7 -63.0 -121.0 Q-63.5 -123.75 -61.35 -127.15 -59.2 -130.6 -57.0 -131.05 L-54.5 -131.45 Q-53.65 -131.25 -51.0 -132.0 -48.15 -132.0 -46.05 -130.75 -43.95 -129.5 -43.25 -129.5 -42.4 -129.5 -35.6 -131.25 L-35.45 -131.3 -34.6 -131.5 -29.5 -131.5 Q-26.5 -129.35 -25.3 -127.55 -23.7 -125.15 -24.0 -122.0 -19.15 -123.15 -15.5 -119.95 -13.15 -117.85 -12.15 -114.7 -12.8 -112.05 -14.4 -108.85 -13.55 -107.55 -13.25 -105.85 -12.6 -103.6 -12.15 -100.1 -11.3 -102.75 -9.7 -106.05 -5.9 -114.05 -1.5 -117.6 L-1.25 -118.75 Q-4.9 -121.5 -5.75 -122.55 L-6.1 -123.1 -5.85 -122.7 Q-4.8 -124.2 -2.75 -126.0 1.85 -130.0 5.75 -130.0 8.85 -130.0 10.25 -128.55 12.55 -126.2 14.0 -125.5 L13.3 -127.35 Q12.65 -128.75 9.7 -131.5 L7.0 -135.8 Q6.3 -136.75 3.1 -138.6 -0.1 -140.5 -4.0 -138.1 -8.15 -138.1 -10.0 -140.5 L-11.1 -138.0 Q-13.5 -132.65 -13.5 -130.85 -13.5 -129.6 -12.25 -127.65 -11.0 -125.75 -11.0 -124.5 -11.0 -123.4 -12.2 -120.75 -12.2 -126.2 -18.95 -130.55 -18.7 -132.9 -17.5 -136.05 L-15.65 -140.85 -16.2 -140.45 -11.5 -144.45 -11.6 -147.7 Q-9.95 -149.75 -8.1 -150.9 -6.3 -152.0 -0.5 -154.0 -1.0 -154.0 -1.0 -154.5 -2.15 -154.5 -3.05 -155.0 L-5.25 -155.5 Q-9.35 -155.5 -11.55 -151.85 -13.65 -151.85 -16.5 -153.85 -26.95 -154.25 -31.0 -159.75 -30.8 -166.25 -25.0 -171.9 -18.85 -177.85 -11.5 -177.85 L-6.9 -177.15 Q-3.95 -176.35 4.0 -171.85 L-3.15 -183.2 Q-2.75 -185.45 -1.0 -189.65 L-0.75 -190.15 -2.0 -194.15 -5.65 -195.95 Q-9.55 -197.1 -16.5 -197.1 -21.25 -197.1 -22.45 -200.2 L-22.75 -201.35 -23.0 -201.35 Q-26.4 -201.35 -28.55 -204.7 L-28.7 -204.95 -33.0 -204.6 Q-39.8 -204.6 -42.5 -209.05 -47.1 -210.15 -49.3 -216.35 -50.55 -219.95 -50.7 -223.5 L-51.5 -222.1 -53.05 -219.55 -53.25 -220.15 -53.8 -219.15 -53.05 -216.55 Q-59.15 -207.45 -66.2 -205.75 -69.75 -203.6 -74.0 -203.6 -83.65 -203.6 -87.5 -210.6 -89.5 -214.25 -89.5 -218.5 -89.5 -222.25 -89.05 -225.55 -85.9 -230.4 -80.3 -234.05 -72.2 -239.4 -63.5 -239.4 L-59.25 -238.45 -55.25 -237.0 Q-55.8 -238.25 -57.2 -239.6 -59.2 -241.4 -60.5 -240.9 L-60.55 -241.15 Q-60.7 -241.4 -61.0 -241.4 L-58.05 -242.1 -55.25 -242.4 -53.7 -242.4 -51.65 -242.25 Q-50.8 -241.9 -50.15 -239.9 -46.75 -243.7 -44.15 -247.5 -41.65 -249.9 -33.75 -249.9 -29.05 -249.9 -25.35 -248.8 -21.3 -247.6 -19.5 -245.4 L-19.5 -246.15 Q-19.5 -249.8 -29.0 -253.4 -33.9 -255.25 -37.2 -255.95 L-36.0 -255.95 -36.0 -256.2 -34.5 -256.35 -34.0 -257.35 -44.55 -257.05 Q-45.8 -258.5 -46.5 -261.15 -47.25 -263.95 -47.25 -266.35 L-47.15 -268.9 -48.05 -270.4 -48.3 -271.45 -50.0 -271.35 -52.1 -269.1 Q-52.95 -267.85 -53.45 -267.55 -55.1 -266.35 -63.0 -266.35 -69.5 -266.35 -71.85 -268.8 -70.9 -275.65 -62.5 -282.0 -53.9 -288.5 -47.25 -288.5 -42.15 -288.5 -37.0 -285.0 L-37.0 -282.75 Q-34.95 -281.9 -33.35 -279.0 -31.25 -275.25 -30.85 -269.4 -30.05 -272.05 -27.7 -276.15 -24.25 -282.0 -19.85 -286.9 L-19.1 -287.7 Q-20.45 -288.6 -20.8 -290.95 -21.1 -292.9 -20.75 -295.1 L-20.75 -295.9 -20.4 -297.6 -20.35 -297.7 -16.5 -302.0 Q-16.05 -302.8 -13.95 -308.15 -12.0 -313.0 -11.0 -314.5 -6.85 -320.55 -0.75 -323.15 4.8 -325.5 13.5 -325.5 21.7 -325.5 30.5 -322.5 37.15 -320.2 39.8 -317.2 M64.55 -91.7 L63.55 -94.15 Q64.95 -94.75 66.3 -95.65 68.75 -97.25 73.0 -101.4 77.3 -105.7 79.55 -107.2 83.45 -109.85 87.5 -109.85 91.65 -109.85 93.9 -108.6 L93.5 -110.05 Q94.6 -106.8 94.8 -102.35 76.25 -95.35 73.8 -92.05 72.75 -90.65 71.85 -88.75 L64.55 -91.7 M31.95 -175.45 L33.1 -176.25 32.5 -177.85 Q32.0 -179.5 31.9 -181.05 29.55 -187.0 31.45 -192.95 31.9 -194.0 32.65 -195.05 L32.55 -195.4 33.25 -196.15 Q32.65 -196.9 32.4 -197.9 32.0 -199.25 32.2 -200.3 L32.0 -202.45 Q31.15 -203.95 30.5 -205.9 26.65 -196.6 22.0 -196.6 L20.1 -196.65 19.95 -195.95 18.95 -190.9 19.35 -189.95 18.95 -189.8 19.1 -186.85 19.35 -186.95 21.65 -180.95 20.75 -179.15 Q17.2 -170.15 10.1 -163.95 L8.1 -162.9 Q9.5 -160.05 9.5 -153.0 L9.45 -150.45 11.9 -148.45 11.95 -148.4 13.75 -142.55 Q15.15 -136.95 16.5 -135.5 20.65 -130.8 24.0 -122.5 L24.5 -122.5 Q27.1 -125.75 23.8 -132.95 24.95 -135.25 26.35 -137.4 L26.65 -138.0 27.65 -140.3 Q24.4 -141.95 23.25 -147.2 22.4 -151.05 22.75 -155.1 L22.8 -157.0 24.0 -158.5 26.6 -160.3 Q29.1 -161.8 30.5 -161.5 31.0 -162.6 30.85 -169.55 30.8 -173.7 31.95 -175.45 M142.65 -185.35 Q147.6 -183.6 153.9 -179.95 L156.3 -182.2 Q162.05 -187.2 166.1 -186.6 L163.85 -188.85 155.05 -190.0 Q147.5 -185.35 142.85 -185.35 L142.65 -185.35 M123.35 -131.8 L123.35 -131.25 Q123.35 -127.65 122.1 -127.1 L115.6 -126.85 114.0 -124.95 Q112.15 -123.1 109.85 -123.1 108.6 -123.1 105.5 -124.1 102.35 -125.1 101.1 -125.1 100.45 -125.1 99.75 -124.45 L98.2 -123.1 Q95.1 -121.1 87.35 -121.1 77.4 -121.1 73.25 -127.1 71.45 -129.8 71.1 -132.55 72.65 -134.85 75.05 -136.0 78.1 -137.5 84.75 -137.5 91.6 -137.5 94.9 -136.15 98.85 -134.55 102.5 -129.5 107.3 -132.25 108.95 -132.85 111.9 -134.0 116.0 -134.0 118.5 -134.0 123.35 -131.8 M157.75 -121.5 Q154.6 -121.5 152.85 -120.3 156.8 -119.6 162.2 -117.3 166.6 -115.4 167.0 -114.4 L167.0 -114.5 163.35 -119.35 Q161.4 -121.5 157.75 -121.5 M159.45 -11.75 L159.05 -9.8 165.5 -10.95 Q173.35 -11.7 179.0 -9.5 177.85 -11.4 177.85 -13.5 L177.85 -13.8 176.95 -14.85 Q173.75 -18.6 171.6 -19.95 170.15 -20.85 168.35 -21.4 L168.35 -21.25 Q168.35 -19.7 163.15 -16.05 L159.55 -13.65 159.45 -11.75 M2.4 47.55 L1.6 47.8 2.45 48.3 2.4 47.55 M-106.2 -257.45 Q-102.45 -249.15 -101.85 -246.35 -101.5 -244.75 -101.5 -237.6 L-105.6 -232.15 Q-110.35 -225.3 -115.3 -215.95 L-114.75 -215.95 -117.15 -212.3 -117.4 -211.9 -117.8 -211.35 -117.85 -211.25 -117.95 -211.15 -119.0 -209.35 -119.15 -208.35 -119.4 -208.25 -119.55 -207.35 -120.0 -204.35 -119.55 -202.85 Q-117.15 -203.9 -114.35 -204.4 -109.05 -205.4 -105.5 -203.9 -102.05 -202.45 -101.55 -198.95 L-100.6 -198.6 -101.15 -198.0 Q-100.05 -197.0 -99.1 -195.6 -95.0 -189.45 -95.0 -180.5 -95.0 -177.9 -97.1 -171.75 L-99.25 -165.85 Q-99.25 -165.15 -96.85 -162.15 L-94.9 -159.25 -91.35 -169.4 Q-87.25 -180.75 -87.25 -187.75 -87.25 -193.05 -82.0 -195.8 -77.2 -198.35 -70.5 -197.65 -63.6 -196.9 -59.0 -193.15 -53.75 -188.9 -53.75 -182.25 -53.75 -180.5 -56.55 -177.7 -59.45 -174.7 -63.7 -172.45 -68.55 -169.85 -73.05 -169.15 L-71.15 -168.95 Q-73.0 -167.95 -75.0 -165.9 -79.3 -161.4 -81.0 -160.85 L-63.0 -160.85 Q-61.4 -162.55 -60.05 -162.8 L-56.0 -162.85 Q-49.0 -162.85 -44.75 -160.6 -41.95 -159.1 -40.0 -156.5 L-40.0 -155.5 Q-40.0 -153.4 -41.65 -150.45 L-40.1 -149.7 Q-34.05 -146.7 -28.85 -141.6 -23.75 -136.55 -23.75 -133.75 L-23.75 -133.15 -23.75 -133.25 Q-26.0 -135.25 -34.15 -138.85 -43.55 -143.0 -47.75 -143.0 -49.6 -143.0 -53.45 -141.6 -57.05 -140.25 -59.0 -139.0 -72.25 -140.85 -85.5 -131.0 -99.7 -130.35 -104.25 -116.25 -113.35 -110.6 -119.5 -110.6 -124.75 -110.6 -126.0 -114.35 L-126.25 -118.85 Q-126.25 -124.8 -123.8 -127.7 L-120.3 -131.65 Q-117.5 -134.9 -114.75 -139.1 L-114.55 -139.55 -113.75 -140.6 Q-116.6 -140.7 -119.45 -139.1 -121.25 -138.15 -122.85 -137.8 -123.15 -137.0 -125.15 -137.45 -127.2 -137.95 -129.7 -135.85 -132.3 -133.75 -133.5 -133.85 -134.5 -131.45 -136.3 -128.6 -141.2 -120.85 -148.5 -120.85 -158.55 -120.85 -162.25 -126.35 -164.1 -129.15 -164.0 -132.35 -164.0 -137.1 -159.25 -146.1 -154.65 -154.75 -149.25 -160.85 -147.55 -162.8 -147.8 -168.35 -146.8 -173.05 -138.0 -173.35 -129.3 -171.45 -126.4 -166.85 -124.75 -164.2 -124.75 -158.85 -124.75 -157.75 -125.85 -156.6 -127.05 -155.3 -129.0 -154.6 -133.65 -154.75 -137.95 -155.7 L-142.75 -156.6 Q-147.7 -156.6 -148.7 -154.4 -149.5 -150.85 -151.25 -148.1 -149.95 -147.55 -149.15 -146.95 L-149.05 -146.95 -143.95 -146.1 -142.2 -147.8 Q-138.55 -151.6 -135.5 -151.6 -133.75 -151.6 -130.75 -148.6 -128.1 -148.6 -126.55 -147.2 L-125.15 -146.5 Q-123.5 -145.5 -122.8 -144.05 L-119.7 -144.9 Q-114.25 -145.75 -106.85 -144.1 -99.15 -142.45 -94.05 -139.05 L-92.95 -138.3 -92.45 -140.3 -91.95 -141.85 Q-95.55 -142.05 -96.75 -144.95 -97.4 -146.55 -97.25 -148.35 -97.25 -149.6 -96.35 -152.65 L-95.65 -155.45 -97.0 -155.35 Q-107.45 -155.35 -108.45 -164.45 -109.0 -169.2 -107.5 -176.35 -104.0 -180.65 -106.95 -185.3 -109.95 -183.6 -114.5 -183.6 -116.5 -183.6 -118.7 -185.0 L-123.5 -184.35 Q-133.9 -184.35 -136.7 -188.1 -138.15 -190.0 -137.5 -192.25 -137.5 -193.75 -136.35 -197.1 -135.0 -201.1 -133.0 -204.25 L-132.3 -205.25 -132.9 -205.2 -132.25 -211.85 -132.25 -212.35 Q-138.5 -208.35 -145.5 -208.35 L-152.45 -208.75 -154.2 -206.5 Q-155.9 -204.0 -156.85 -201.55 L-158.3 -200.95 Q-161.75 -199.8 -165.5 -199.45 L-166.1 -199.1 Q-170.5 -196.3 -172.65 -195.2 -172.25 -193.95 -172.25 -192.1 -172.25 -187.7 -172.45 -186.8 -173.25 -183.75 -176.75 -182.35 -178.2 -181.8 -184.4 -181.4 L-192.0 -180.35 Q-193.1 -179.85 -194.55 -178.6 L-193.5 -178.0 Q-190.75 -176.15 -190.75 -172.35 -190.75 -167.35 -191.5 -165.6 -193.75 -160.35 -202.0 -160.35 -203.55 -160.35 -204.95 -161.8 L-207.0 -161.6 Q-209.3 -161.6 -212.45 -165.05 -212.3 -167.65 -211.6 -169.05 -211.1 -170.1 -207.95 -172.25 -204.85 -174.45 -203.45 -180.15 -202.1 -185.85 -197.7 -188.45 -193.3 -191.1 -191.35 -193.7 L-185.3 -195.95 -182.0 -196.3 -179.2 -197.45 -179.55 -199.7 -179.35 -203.4 Q-179.3 -205.25 -180.0 -205.6 -185.65 -204.95 -189.15 -207.7 -193.4 -201.6 -200.0 -201.6 -219.15 -201.6 -225.05 -206.85 -226.5 -208.15 -227.25 -210.35 L-226.3 -212.4 Q-223.2 -218.75 -218.05 -224.0 -206.15 -236.15 -194.5 -234.0 -195.45 -234.95 -196.35 -237.3 -197.15 -239.25 -197.4 -240.9 L-195.1 -240.45 -193.4 -243.8 -193.25 -243.95 -193.55 -244.75 Q-194.25 -247.0 -194.55 -249.35 -193.75 -251.25 -190.35 -253.3 -185.1 -256.4 -180.5 -256.4 -176.9 -256.4 -175.2 -255.25 L-170.5 -251.4 Q-169.8 -252.1 -167.35 -253.4 -165.3 -254.45 -164.5 -255.9 -163.55 -257.55 -161.05 -258.25 -158.3 -259.0 -157.5 -259.9 L-152.45 -265.35 Q-149.75 -267.4 -145.0 -267.4 -140.75 -267.4 -138.85 -266.2 -136.9 -264.95 -135.0 -260.9 -136.65 -260.25 -137.5 -258.45 L-139.0 -255.4 Q-137.95 -255.9 -133.15 -256.65 -129.0 -257.25 -128.0 -258.4 -125.7 -261.1 -123.95 -262.1 -121.75 -263.4 -118.5 -263.4 -112.9 -263.4 -109.9 -261.3 -108.35 -260.25 -106.2 -257.5 L-106.2 -257.45 M-23.45 -133.0 L-23.3 -133.15 -23.45 -133.0 M-2.0 -294.35 L-1.5 -294.9 Q-4.25 -294.5 -6.3 -293.2 L-9.05 -291.65 Q-8.7 -290.35 -10.0 -287.95 -11.0 -286.15 -10.85 -285.8 -10.85 -285.7 -10.7 -285.75 L-10.6 -285.75 -7.2 -284.9 Q-7.1 -286.2 -5.8 -288.75 -4.2 -291.9 -2.0 -294.35 M-9.0 -229.1 Q-12.45 -229.1 -15.5 -226.95 -18.5 -224.9 -23.85 -224.85 L-23.25 -223.35 Q-21.45 -220.3 -15.15 -219.95 L-13.75 -223.35 Q-12.25 -227.65 -7.35 -228.85 L-9.0 -229.1 M-166.0 -246.1 L-170.75 -246.6 Q-171.9 -242.3 -173.5 -240.25 -176.3 -236.6 -183.5 -236.6 L-186.9 -237.1 -187.65 -236.45 -186.8 -235.65 Q-183.0 -231.75 -183.0 -229.25 -183.0 -226.75 -183.35 -224.1 -176.4 -228.35 -172.0 -228.35 L-166.9 -227.5 Q-163.75 -226.7 -162.75 -226.1 -162.85 -233.85 -158.15 -239.15 -162.3 -239.8 -164.35 -241.85 -166.15 -243.7 -166.0 -246.1 M-163.25 -187.05 L-160.05 -189.7 Q-155.05 -193.45 -150.05 -195.0 -144.55 -196.7 -141.25 -194.95 -137.5 -192.9 -137.5 -186.5 -137.5 -182.75 -139.7 -180.15 -142.75 -176.6 -149.0 -176.6 -152.75 -176.6 -154.8 -180.1 -156.25 -182.5 -156.25 -184.6 L-157.3 -184.1 Q-156.5 -183.0 -156.5 -181.6 -156.5 -178.4 -158.3 -176.4 -160.1 -174.35 -163.0 -174.35 -165.15 -174.35 -166.95 -177.6 L-167.5 -177.6 -167.5 -178.65 Q-169.0 -181.85 -169.0 -183.1 -169.0 -185.3 -167.05 -186.35 -165.5 -187.2 -163.25 -187.05 M-164.5 -75.5 L-164.45 -76.05 -168.0 -75.6 -168.25 -75.6 Q-168.4 -72.65 -170.2 -69.9 L-167.15 -66.95 Q-166.7 -72.05 -164.2 -74.65 L-164.5 -75.5 M-57.5 -145.2 Q-59.65 -148.35 -67.5 -148.35 -69.65 -148.35 -70.95 -149.45 -71.95 -148.75 -73.85 -148.3 -69.8 -146.15 -61.25 -143.4 L-56.5 -141.6 -56.35 -143.65 -57.5 -145.2 M-79.0 18.45 L-79.0 18.7 -78.7 18.65 -79.0 18.45 M-46.05 57.9 L-46.1 58.15 -45.75 58.25 -46.05 57.9" fill="#5e5e5e" fill-rule="evenodd" stroke="none"/>
      <path d="M193.15 -208.8 L193.25 -207.85 Q191.35 -211.25 184.1 -219.4 182.5 -221.15 180.7 -222.4 178.6 -223.85 176.25 -224.6 170.95 -226.3 164.0 -224.85 163.95 -226.25 163.5 -227.4 L157.45 -227.25 156.75 -227.1 Q157.9 -229.25 160.65 -231.1 L159.8 -231.65 159.4 -231.9 155.85 -232.45 150.5 -232.9 145.0 -232.7 Q141.95 -231.5 136.75 -228.4 144.05 -226.0 139.8 -225.85 L135.4 -225.7 132.0 -225.15 129.45 -223.45 127.4 -222.7 Q124.9 -221.75 116.55 -212.7 L116.4 -216.55 116.35 -216.85 Q116.5 -221.8 118.7 -225.45 L120.15 -227.45 120.3 -227.6 120.45 -227.8 129.95 -233.65 130.8 -233.9 131.25 -234.05 131.7 -234.15 131.85 -234.2 134.0 -238.05 Q136.1 -241.65 143.15 -243.9 150.2 -246.15 156.25 -244.05 162.25 -242.0 167.05 -239.2 L172.95 -237.45 174.95 -236.3 175.6 -235.9 175.95 -235.65 191.75 -214.65 191.9 -214.2 192.2 -213.2 192.6 -211.45 193.15 -208.8 M102.35 -101.85 Q122.5 -98.15 125.05 -90.5 L126.25 -89.0 Q128.6 -85.25 128.6 -79.1 L128.6 -77.45 Q128.55 -84.9 122.15 -88.55 115.75 -92.25 108.2 -90.85 L98.0 -88.9 97.35 -88.75 92.7 -89.8 88.0 -90.5 Q82.7 -90.5 78.15 -89.3 L76.85 -88.9 Q80.4 -88.6 84.6 -86.9 89.3 -84.95 92.0 -82.5 86.55 -82.4 82.05 -80.75 77.3 -79.0 75.5 -79.0 L71.85 -79.75 67.0 -80.5 60.85 -80.2 60.55 -80.1 Q57.2 -81.45 48.0 -73.0 L51.8 -81.65 Q54.75 -87.2 59.75 -91.15 60.0 -90.8 60.25 -90.85 62.3 -91.8 64.55 -91.7 L71.85 -88.75 Q72.75 -90.65 73.8 -92.05 76.25 -95.35 94.8 -102.35 L102.35 -101.85 M214.2 -132.3 L214.25 -131.8 210.0 -132.0 Q204.55 -132.0 200.55 -129.7 195.85 -127.0 195.0 -122.0 190.75 -122.55 185.25 -118.45 183.0 -116.75 181.65 -115.1 L181.75 -115.65 185.3 -123.8 185.4 -124.0 185.55 -124.15 185.65 -124.35 185.8 -124.5 185.9 -124.7 186.05 -124.85 186.5 -125.5 Q191.15 -131.6 197.85 -135.3 204.55 -139.0 209.2 -138.0 L211.0 -137.35 211.45 -137.1 211.5 -137.05 211.6 -137.0 214.2 -132.3 M180.0 -130.4 Q177.45 -131.75 173.85 -132.85 168.55 -134.5 164.25 -134.5 161.7 -134.5 159.45 -133.5 157.2 -132.5 155.0 -132.5 L155.0 -133.0 163.25 -137.5 170.0 -141.2 171.3 -140.55 175.0 -138.25 175.2 -138.1 Q180.1 -134.6 180.1 -131.85 L180.1 -131.7 180.1 -131.6 180.1 -131.5 180.05 -131.0 180.0 -130.4 M-20.4 -297.6 L-19.4 -302.8 Q-21.05 -312.3 -13.85 -321.0 7.8 -347.15 36.1 -329.35 38.25 -329.0 39.2 -323.9 L39.75 -319.15 39.85 -317.2 39.8 -317.2 Q37.15 -320.2 30.5 -322.5 21.7 -325.5 13.5 -325.5 4.8 -325.5 -0.75 -323.15 -6.85 -320.55 -11.0 -314.5 -12.0 -313.0 -13.95 -308.15 -16.05 -302.8 -16.5 -302.0 L-20.35 -297.7 -20.4 -297.6 M33.1 -235.65 L33.5 -235.5 33.55 -235.5 34.5 -235.1 36.95 -239.2 37.85 -239.45 45.0 -243.35 Q48.1 -244.15 51.15 -241.95 52.75 -240.8 54.1 -238.95 L53.6 -238.75 53.5 -236.9 54.0 -233.25 53.5 -233.9 Q51.3 -236.4 47.25 -236.4 43.9 -236.4 41.8 -235.25 39.2 -233.8 39.5 -230.9 36.5 -231.3 33.9 -229.5 31.95 -228.2 30.5 -225.9 L30.5 -228.65 Q30.5 -229.5 32.0 -233.0 L33.1 -235.65 M55.2 -255.9 L55.8 -256.9 57.0 -258.6 Q62.0 -265.1 70.5 -265.1 76.85 -265.1 84.45 -260.15 L88.4 -257.15 89.0 -253.35 89.5 -250.2 Q86.95 -253.05 83.55 -255.25 77.1 -259.4 69.75 -259.4 63.65 -259.4 57.95 -257.2 L55.2 -255.9 M91.75 -257.5 L91.9 -258.55 Q92.15 -260.9 92.75 -262.8 L92.8 -262.9 93.0 -263.6 93.2 -264.1 93.25 -264.15 93.8 -265.4 95.15 -267.45 95.7 -268.05 95.85 -268.15 95.85 -268.2 Q99.25 -271.45 104.6 -270.1 109.35 -268.85 113.2 -264.9 117.1 -260.85 117.1 -257.0 L117.05 -255.9 116.65 -253.75 Q116.0 -256.55 113.95 -258.45 110.35 -261.9 103.25 -261.9 97.0 -261.9 91.75 -257.5 M33.9 -123.7 L37.75 -117.75 Q43.5 -107.95 43.5 -98.85 L43.5 -98.7 41.55 -101.25 Q37.75 -105.8 37.5 -107.5 L35.75 -116.2 33.9 -123.7 M63.55 -94.15 Q62.75 -96.75 62.75 -100.0 62.75 -105.6 67.75 -110.95 72.6 -116.1 78.8 -117.7 85.55 -119.45 89.85 -115.7 L89.95 -115.6 91.5 -113.85 91.65 -113.7 93.5 -110.05 93.9 -108.6 Q91.65 -109.85 87.5 -109.85 83.45 -109.85 79.55 -107.2 77.3 -105.7 73.0 -101.4 68.75 -97.25 66.3 -95.65 64.95 -94.75 63.55 -94.15 M-37.0 -285.0 Q-42.15 -288.5 -47.25 -288.5 -53.9 -288.5 -62.5 -282.0 -70.9 -275.65 -71.85 -268.8 L-72.05 -269.0 Q-73.0 -270.15 -73.0 -272.0 -73.0 -282.1 -67.35 -289.0 -62.3 -295.15 -54.85 -296.7 -47.6 -298.2 -42.4 -294.5 -37.95 -291.25 -37.0 -285.15 L-37.0 -285.0 M-37.2 -255.95 Q-33.9 -255.25 -29.0 -253.4 -19.5 -249.8 -19.5 -246.15 L-19.5 -245.4 Q-21.3 -247.6 -25.35 -248.8 -29.05 -249.9 -33.75 -249.9 -41.65 -249.9 -44.15 -247.5 -46.75 -243.7 -50.15 -239.9 -50.8 -241.9 -51.65 -242.25 L-53.7 -242.4 -55.25 -242.4 -58.05 -242.1 -61.0 -241.4 Q-60.7 -241.4 -60.55 -241.15 L-60.5 -240.9 Q-59.2 -241.4 -57.2 -239.6 -55.8 -238.25 -55.25 -237.0 L-59.25 -238.45 -63.5 -239.4 Q-72.2 -239.4 -80.3 -234.05 -85.9 -230.4 -89.05 -225.55 L-89.0 -225.9 -87.3 -233.45 -87.25 -233.6 -87.2 -233.7 -87.15 -233.85 -87.05 -234.05 -87.0 -234.2 -86.95 -234.35 -86.9 -234.5 -86.8 -234.7 -86.75 -234.85 -86.7 -235.0 -86.65 -235.15 -86.55 -235.3 -86.5 -235.45 -86.45 -235.6 -86.35 -235.75 -86.25 -235.95 -86.15 -236.2 -86.1 -236.35 -86.0 -236.55 -85.9 -236.75 -85.8 -236.95 -85.65 -237.15 -85.55 -237.35 -85.45 -237.6 -85.05 -238.3 Q-81.35 -244.5 -75.25 -246.4 -70.7 -247.8 -66.75 -246.45 L-65.5 -247.45 Q-62.8 -249.15 -58.85 -249.25 -54.95 -249.35 -52.25 -247.75 L-50.25 -246.0 -50.15 -245.9 -49.9 -247.25 Q-49.45 -250.4 -49.0 -251.3 L-48.45 -252.1 -48.1 -252.45 -47.95 -252.6 -47.15 -253.2 -46.5 -253.65 -46.45 -253.65 -46.4 -253.7 -46.3 -253.75 -46.2 -253.8 -45.95 -253.9 -43.35 -254.9 -42.9 -255.0 -40.65 -255.55 -38.7 -255.85 -38.6 -255.9 -38.25 -255.95 -37.2 -255.95 M-3.15 -183.2 L4.0 -171.85 Q-3.95 -176.35 -6.9 -177.15 L-11.5 -177.85 Q-18.85 -177.85 -25.0 -171.9 -30.8 -166.25 -31.0 -159.75 L-31.0 -159.7 -31.2 -160.05 -31.45 -160.4 Q-33.25 -163.15 -33.3 -166.2 L-33.25 -167.5 Q-33.25 -173.85 -30.65 -176.95 -30.15 -179.45 -29.05 -181.4 -25.65 -187.6 -17.5 -187.6 -12.45 -187.6 -8.5 -186.15 L-9.0 -185.95 -9.5 -185.95 -6.85 -185.45 Q-5.5 -184.85 -4.3 -184.05 L-4.0 -183.85 -3.15 -183.2 M-11.55 -151.85 Q-9.35 -155.5 -5.25 -155.5 L-3.05 -155.0 Q-2.15 -154.5 -1.0 -154.5 -1.0 -154.0 -0.5 -154.0 -6.3 -152.0 -8.1 -150.9 -9.95 -149.75 -11.6 -147.7 L-11.0 -151.35 -11.15 -151.85 -11.5 -151.85 -11.55 -151.85 M-16.2 -140.45 L-15.65 -140.85 -17.5 -136.05 Q-18.7 -132.9 -18.95 -130.55 -12.2 -126.2 -12.2 -120.75 L-12.2 -120.7 Q-11.75 -119.35 -11.75 -117.85 -11.75 -116.4 -12.15 -114.7 -13.15 -117.85 -15.5 -119.95 -19.15 -123.15 -24.0 -122.0 -23.7 -125.15 -25.3 -127.55 -26.5 -129.35 -29.5 -131.5 L-34.6 -131.5 -35.45 -131.3 -35.6 -131.25 Q-42.4 -129.5 -43.25 -129.5 -43.95 -129.5 -46.05 -130.75 -48.15 -132.0 -51.0 -132.0 -53.65 -131.25 -54.5 -131.45 L-57.0 -131.05 Q-59.2 -130.6 -61.35 -127.15 -63.5 -123.75 -63.0 -121.0 L-65.35 -121.7 -67.5 -122.0 Q-72.25 -122.0 -79.15 -117.45 -86.35 -112.75 -88.5 -112.5 -94.25 -111.85 -99.15 -107.55 -102.3 -104.85 -104.0 -101.65 -104.75 -103.8 -104.75 -106.45 L-104.5 -110.1 -104.25 -116.25 Q-99.7 -130.35 -85.5 -131.0 -72.25 -140.85 -59.0 -139.0 -57.05 -140.25 -53.45 -141.6 -49.6 -143.0 -47.75 -143.0 -43.55 -143.0 -34.15 -138.85 -26.0 -135.25 -23.75 -133.25 L-23.75 -133.15 -23.75 -133.05 -23.75 -133.0 -23.8 -132.6 -23.6 -132.8 -23.45 -133.0 -23.3 -133.15 Q-19.75 -137.75 -16.2 -140.45 M-4.0 -138.1 Q-0.1 -140.5 3.1 -138.6 6.3 -136.75 7.0 -135.8 L9.7 -131.5 Q12.65 -128.75 13.3 -127.35 L14.0 -125.5 Q12.55 -126.2 10.25 -128.55 8.85 -130.0 5.75 -130.0 1.85 -130.0 -2.75 -126.0 -4.8 -124.2 -5.85 -122.7 L-6.1 -123.1 -6.5 -124.7 -6.5 -124.9 -6.5 -125.1 Q-6.5 -126.85 -5.85 -128.15 L-6.65 -130.95 -6.75 -131.65 -6.75 -132.05 -6.75 -132.35 Q-6.75 -135.6 -5.7 -136.9 -5.1 -137.7 -3.95 -138.1 L-4.0 -138.1 M-56.9 -88.05 L-48.5 -88.0 -43.45 -86.55 Q-40.8 -85.7 -39.9 -84.95 L-41.7 -85.4 -44.75 -85.5 Q-49.25 -85.5 -51.15 -84.2 -52.95 -82.95 -55.0 -78.5 -61.1 -79.4 -63.65 -77.85 -66.7 -76.0 -70.0 -76.0 -73.4 -76.0 -77.9 -78.15 -82.85 -80.55 -86.2 -81.35 L-83.3 -81.95 -83.1 -82.0 -75.5 -82.7 -67.9 -83.35 Q-63.95 -88.1 -59.0 -88.1 L-56.9 -88.05 M-145.75 -90.85 Q-147.45 -92.45 -151.95 -95.2 -159.0 -99.5 -165.75 -99.5 -170.85 -99.5 -178.75 -95.0 -184.1 -91.95 -187.05 -89.35 L-186.95 -89.9 -183.85 -97.65 -183.6 -98.05 -183.4 -98.3 -183.3 -98.45 -183.1 -98.75 -183.0 -98.9 -182.9 -99.05 -181.6 -100.8 -181.45 -101.0 Q-175.75 -107.9 -168.1 -109.35 -160.05 -110.9 -154.8 -105.0 -153.2 -103.2 -152.0 -100.85 L-148.25 -95.1 -148.0 -94.7 -146.05 -91.35 -145.75 -90.85 M-189.5 -102.9 Q-190.95 -106.5 -192.5 -107.6 -194.45 -109.0 -200.75 -109.0 -205.55 -109.0 -208.2 -107.75 -210.05 -106.9 -211.0 -105.35 -211.0 -111.4 -207.5 -113.95 -204.55 -116.15 -199.85 -115.4 -195.6 -114.75 -192.25 -112.2 -188.75 -109.55 -188.75 -106.85 L-188.75 -106.4 -188.95 -104.7 -189.35 -103.35 -189.5 -102.85 -189.5 -102.9 M-213.6 -99.6 L-212.35 -98.45 Q-211.6 -97.7 -212.0 -96.5 -215.8 -95.75 -225.7 -96.6 -233.95 -96.3 -235.0 -90.0 -241.25 -91.65 -249.55 -86.45 -258.05 -81.15 -258.95 -74.1 L-259.0 -74.15 -259.5 -77.85 -259.5 -78.0 Q-259.45 -82.65 -259.2 -84.1 -258.4 -88.9 -255.1 -92.05 -249.35 -97.5 -234.7 -99.25 L-233.0 -100.7 Q-229.65 -102.9 -225.25 -102.95 -220.55 -103.05 -217.5 -100.35 L-217.25 -100.1 -216.0 -100.1 -213.6 -99.6 M208.1 -21.6 L208.1 -21.35 Q205.4 -23.05 199.85 -23.9 194.25 -24.75 192.0 -25.95 L190.55 -26.7 Q190.4 -31.35 189.55 -33.95 L192.85 -34.5 Q201.05 -34.5 205.35 -28.5 L206.95 -25.95 Q208.1 -23.65 208.1 -21.75 L208.1 -21.6 M11.95 -148.4 Q16.55 -144.2 20.55 -138.25 22.75 -135.05 23.7 -132.8 L23.8 -132.95 Q27.1 -125.75 24.5 -122.5 L24.0 -122.5 Q20.65 -130.8 16.5 -135.5 15.15 -136.95 13.75 -142.55 L11.95 -148.4 M22.8 -157.0 Q23.0 -160.6 23.95 -163.95 L24.25 -164.85 30.6 -174.45 31.95 -175.5 31.95 -175.45 Q30.8 -173.7 30.85 -169.55 31.0 -162.6 30.5 -161.5 29.1 -161.8 26.6 -160.3 L24.0 -158.5 22.8 -157.0 M123.35 -131.8 Q118.5 -134.0 116.0 -134.0 111.9 -134.0 108.95 -132.85 107.3 -132.25 102.5 -129.5 98.85 -134.55 94.9 -136.15 91.6 -137.5 84.75 -137.5 78.1 -137.5 75.05 -136.0 72.65 -134.85 71.1 -132.55 L71.0 -133.85 Q71.0 -137.0 74.25 -140.7 77.7 -144.55 82.35 -146.0 94.95 -149.85 103.85 -133.1 L110.45 -135.9 Q114.6 -137.35 117.85 -137.35 121.25 -137.35 122.65 -134.45 123.25 -133.15 123.35 -131.8 M157.75 -121.5 Q161.4 -121.5 163.35 -119.35 L167.0 -114.5 167.0 -114.4 Q166.6 -115.4 162.2 -117.3 156.8 -119.6 152.85 -120.3 154.6 -121.5 157.75 -121.5 M-194.55 -249.35 L-194.75 -253.25 Q-194.75 -256.65 -193.2 -259.85 -191.5 -263.5 -188.5 -265.0 -180.7 -268.95 -168.75 -256.85 -166.15 -257.3 -165.05 -258.6 -164.45 -259.3 -163.55 -260.9 -162.55 -262.1 -160.0 -262.8 -159.25 -268.8 -156.2 -271.9 -151.45 -276.8 -141.05 -274.95 -137.55 -274.7 -134.75 -272.35 -132.0 -270.05 -131.6 -268.4 -131.25 -266.7 -131.45 -265.05 L-129.4 -265.6 Q-128.95 -270.0 -126.1 -272.35 -123.15 -274.8 -118.6 -274.3 -114.3 -273.85 -111.15 -271.05 -107.75 -268.05 -107.75 -264.0 L-107.8 -260.4 -106.5 -258.1 -106.2 -257.5 -106.2 -257.45 -106.2 -257.5 Q-108.35 -260.25 -109.9 -261.3 -112.9 -263.4 -118.5 -263.4 -121.75 -263.4 -123.95 -262.1 -125.7 -261.1 -128.0 -258.4 -129.0 -257.25 -133.15 -256.65 -137.95 -255.9 -139.0 -255.4 L-137.5 -258.45 Q-136.65 -260.25 -135.0 -260.9 -136.9 -264.95 -138.85 -266.2 -140.75 -267.4 -145.0 -267.4 -149.75 -267.4 -152.45 -265.35 L-157.5 -259.9 Q-158.3 -259.0 -161.05 -258.25 -163.55 -257.55 -164.5 -255.9 -165.3 -254.45 -167.35 -253.4 -169.8 -252.1 -170.5 -251.4 L-175.2 -255.25 Q-176.9 -256.4 -180.5 -256.4 -185.1 -256.4 -190.35 -253.3 -193.75 -251.25 -194.55 -249.35 M-71.15 -168.95 L-67.7 -168.25 -67.4 -168.5 Q-62.9 -172.35 -56.25 -171.9 -49.7 -171.45 -45.1 -167.2 -40.35 -162.9 -40.0 -156.5 -41.95 -159.1 -44.75 -160.6 -49.0 -162.85 -56.0 -162.85 L-60.05 -162.8 Q-61.4 -162.55 -63.0 -160.85 L-81.0 -160.85 Q-79.3 -161.4 -75.0 -165.9 -73.0 -167.95 -71.15 -168.95 M-197.4 -240.9 Q-197.15 -239.25 -196.35 -237.3 -195.45 -234.95 -194.5 -234.0 -206.15 -236.15 -218.05 -224.0 -223.2 -218.75 -226.3 -212.4 L-227.25 -210.35 Q-227.85 -212.1 -227.95 -214.45 L-228.0 -215.5 -228.0 -215.85 -228.0 -216.1 -227.85 -217.85 -227.85 -218.05 -227.75 -218.65 -224.2 -227.9 -224.1 -228.1 -224.0 -228.25 -223.9 -228.45 -223.75 -228.6 -223.65 -228.8 -223.5 -229.0 -223.1 -229.65 -222.8 -230.1 Q-215.1 -241.1 -200.5 -241.1 L-197.4 -240.9 M-191.35 -193.7 Q-193.3 -191.1 -197.7 -188.45 -202.1 -185.85 -203.45 -180.15 -204.85 -174.45 -207.95 -172.25 -211.1 -170.1 -211.6 -169.05 -212.3 -167.65 -212.45 -165.05 L-212.45 -165.0 -212.55 -165.15 Q-215.25 -168.15 -215.25 -168.85 -215.25 -170.65 -212.55 -174.0 -209.75 -177.5 -207.0 -178.85 -206.5 -179.9 -207.15 -183.75 -207.2 -187.35 -204.0 -188.6 L-191.35 -193.7" fill="#616161" fill-rule="evenodd" stroke="none"/>
    </g>
  </defs>
</svg>
