<?xml version="1.0" encoding="UTF-8" standalone="no"?>
<svg xmlns:ffdec="https://www.free-decompiler.com/flash" xmlns:xlink="http://www.w3.org/1999/xlink" ffdec:objectType="frame" height="499.45px" width="496.15px" xmlns="http://www.w3.org/2000/svg">
  <g transform="matrix(1.0, 0.0, 0.0, 1.0, 270.5, 376.7)">
    <use ffdec:characterId="168" height="433.25" transform="matrix(1.0, 0.0, 0.0, 1.0, -263.0, -338.25)" width="479.8" xlink:href="#shape0"/>
  </g>
  <defs>
    <g id="shape0" transform="matrix(1.0, 0.0, 0.0, 1.0, 263.0, 338.25)">
      <path d="M182.45 -233.0 L184.1 -229.95 Q187.25 -223.85 188.6 -217.0 L188.75 -214.8 Q190.5 -212.75 191.85 -209.9 194.75 -203.85 194.75 -197.75 194.75 -196.7 193.35 -192.9 191.55 -188.05 189.0 -183.9 182.6 -173.35 174.2 -171.6 173.65 -169.65 172.5 -167.5 169.1 -161.0 162.75 -161.0 151.15 -161.0 148.25 -164.9 146.5 -163.8 144.6 -163.3 146.9 -162.65 147.55 -159.5 L147.65 -157.15 Q148.35 -157.6 149.35 -157.95 L156.05 -158.2 Q160.1 -157.5 162.75 -155.25 165.8 -152.7 165.8 -148.9 165.8 -147.7 164.0 -146.5 161.75 -145.0 158.1 -145.0 L159.05 -144.65 Q162.25 -143.45 164.0 -142.3 172.9 -141.85 177.25 -138.6 181.55 -135.4 181.3 -130.1 181.1 -125.4 171.55 -124.9 L171.05 -124.6 Q168.55 -123.15 166.5 -122.75 L166.5 -122.05 Q166.5 -120.5 165.55 -118.15 L165.1 -117.1 168.2 -114.25 Q172.0 -110.4 174.85 -106.3 L176.05 -104.45 Q178.4 -107.15 185.6 -104.5 182.9 -110.8 182.9 -116.3 182.9 -121.75 189.4 -128.7 194.9 -134.55 202.05 -136.5 202.5 -137.8 203.8 -138.8 205.6 -140.2 208.2 -140.5 210.8 -140.75 212.55 -139.65 214.55 -138.4 214.55 -135.85 214.55 -134.4 213.65 -132.65 L212.85 -131.35 Q213.9 -126.9 213.9 -119.25 213.9 -115.95 209.15 -113.5 202.35 -110.1 187.4 -109.75 L187.4 -107.5 188.9 -104.1 188.7 -103.25 188.8 -103.2 Q193.4 -101.05 198.3 -97.8 L198.6 -97.6 202.8 -98.3 Q208.65 -98.6 212.45 -95.25 216.8 -91.4 216.8 -83.8 216.8 -80.6 215.45 -77.6 213.25 -72.75 208.4 -72.75 196.85 -72.75 191.8 -79.0 189.1 -82.35 188.85 -86.15 L187.15 -86.1 Q183.95 -86.1 181.7 -87.45 181.35 -84.5 180.45 -82.25 177.4 -74.9 169.1 -74.6 L166.3 -72.85 Q162.9 -71.25 160.5 -71.25 154.35 -71.25 150.45 -74.2 148.45 -75.05 146.8 -76.45 145.2 -77.85 143.05 -81.05 L143.25 -81.6 147.6 -78.1 149.5 -76.95 152.75 -75.95 153.35 -75.75 153.5 -75.75 Q156.35 -75.75 159.05 -78.05 L160.3 -79.05 159.05 -82.1 Q159.05 -85.05 159.8 -87.7 160.65 -90.6 162.25 -91.85 159.95 -92.95 157.8 -95.35 155.8 -97.55 154.95 -99.3 152.15 -96.1 148.5 -96.1 L146.6 -96.15 Q143.8 -92.25 135.75 -92.25 129.85 -92.25 128.3 -95.3 L127.95 -97.1 123.05 -99.9 121.65 -100.7 Q124.5 -97.45 126.55 -93.45 129.5 -87.85 129.5 -83.25 129.5 -77.0 128.0 -72.75 124.85 -64.05 116.4 -63.3 L117.7 -57.55 118.8 -51.5 Q118.8 -44.75 118.25 -42.5 116.25 -34.6 109.0 -34.6 106.6 -34.6 102.3 -36.4 L103.15 -35.4 Q105.95 -31.7 106.3 -27.1 107.05 -26.0 114.55 -18.7 117.75 -15.55 119.25 -13.35 L120.25 -14.1 Q125.75 -17.9 126.65 -19.85 L128.85 -23.0 128.3 -23.9 Q124.55 -30.15 124.55 -32.85 124.55 -36.35 127.65 -39.2 130.4 -41.7 134.45 -42.8 L138.4 -43.4 Q138.8 -57.1 150.75 -56.75 L155.05 -56.15 155.05 -56.3 Q155.05 -59.8 157.2 -63.65 160.45 -69.5 166.9 -69.5 178.5 -69.5 185.3 -62.35 190.05 -57.4 190.05 -53.75 190.05 -48.55 187.4 -45.65 183.85 -41.8 174.4 -39.6 L173.5 -39.6 177.5 -34.85 177.8 -34.45 Q182.55 -36.3 188.6 -36.5 196.95 -36.8 202.5 -33.85 208.8 -30.55 208.8 -24.15 L208.95 -20.1 Q208.85 -17.1 207.65 -15.0 204.25 -8.75 191.15 -8.75 185.15 -8.75 176.45 -15.75 169.1 -21.65 168.45 -24.4 L166.1 -22.95 161.75 -20.35 Q160.8 -17.9 158.3 -13.75 L157.6 -12.55 Q161.2 -13.75 165.5 -14.05 174.2 -14.6 180.7 -11.5 187.65 -8.15 187.65 -2.55 L187.7 1.0 Q187.4 3.95 185.7 6.25 180.5 13.05 163.15 13.05 151.2 13.05 146.2 9.8 143.3 7.95 143.3 5.75 143.3 0.85 145.3 -2.95 L142.45 -3.85 141.9 -3.75 132.5 -3.75 Q131.6 -2.05 128.55 1.8 L125.9 4.8 129.1 7.1 Q132.3 9.95 132.3 12.6 132.3 17.05 129.55 20.3 125.6 25.0 117.0 25.0 111.9 25.0 107.65 23.5 L105.05 25.45 Q102.0 27.35 98.45 28.0 99.6 28.4 100.65 29.2 103.05 30.95 103.05 33.5 L102.8 36.15 102.5 39.5 102.4 39.55 Q104.25 43.2 104.25 46.3 104.25 47.65 102.25 50.05 L102.25 50.1 101.7 52.5 107.95 53.2 Q113.95 54.4 118.05 56.8 120.7 58.35 121.85 60.05 L133.1 60.05 133.05 59.6 Q133.05 50.4 140.1 43.8 146.5 37.75 155.55 36.45 164.75 35.15 171.0 39.65 178.05 44.7 178.05 55.4 178.05 61.2 173.55 67.5 166.6 77.25 152.65 77.25 145.5 77.25 142.05 75.9 140.4 79.7 137.95 83.0 129.45 94.25 115.0 94.25 99.2 94.25 93.8 86.8 91.5 83.55 91.5 78.55 91.5 69.2 111.3 62.85 103.05 60.0 100.75 60.0 L97.95 59.7 Q93.9 64.8 87.5 64.8 78.45 64.8 74.55 61.0 72.05 58.5 72.05 55.0 72.05 52.8 73.8 49.3 74.6 47.75 75.5 46.7 L75.5 44.4 Q75.5 37.75 83.4 35.0 85.8 34.2 87.8 34.25 88.05 30.95 90.15 29.1 90.8 28.5 91.6 28.1 86.7 27.65 84.7 26.0 82.3 24.0 81.85 22.75 L81.0 22.75 Q72.4 20.9 65.4 16.45 L64.85 16.1 Q62.05 14.7 60.1 13.1 L59.55 12.6 59.55 13.4 59.85 17.0 Q59.75 20.15 58.0 22.5 52.85 29.4 34.0 29.75 L34.2 31.1 Q39.45 29.35 46.4 30.35 54.1 31.45 59.2 35.3 65.0 39.75 65.0 46.35 65.0 57.5 62.0 64.0 56.8 75.1 43.45 76.55 L43.3 76.75 Q38.1 86.25 29.5 86.25 0.8 86.25 0.8 57.85 0.8 51.5 1.5 48.3 1.75 47.0 2.45 45.7 -3.2 47.3 -9.75 47.3 -16.8 47.3 -21.0 46.3 L-22.3 45.95 -25.75 46.75 Q-17.05 48.95 -9.65 55.4 -1.0 63.0 -1.0 69.0 -1.0 77.65 -3.4 83.55 -8.05 95.0 -20.75 95.0 -32.85 95.0 -41.3 85.3 -43.8 82.45 -46.15 78.45 L-48.35 75.0 -48.35 67.3 Q-52.1 66.9 -57.55 58.9 L-60.75 59.0 Q-69.45 59.0 -71.5 53.0 -72.15 51.1 -72.05 48.65 L-71.85 46.25 Q-71.85 40.8 -65.15 36.3 -59.25 32.35 -50.35 30.3 L-41.7 29.05 Q-41.4 25.9 -35.5 22.85 -30.0 19.95 -21.75 18.1 L-21.0 17.95 -21.25 17.25 -21.95 14.4 Q-29.55 17.0 -38.75 17.0 -45.65 17.0 -51.95 12.2 L-54.55 10.0 Q-56.3 13.75 -58.85 17.0 -68.7 29.25 -86.0 29.25 -97.3 29.25 -101.0 23.3 -101.75 22.05 -102.15 20.35 L-105.9 24.4 Q-103.6 28.35 -103.1 29.85 -102.6 31.45 -102.6 35.75 -102.6 36.85 -103.75 38.65 L-104.15 39.25 -100.75 39.65 Q-97.35 40.5 -95.1 42.6 -92.5 44.95 -92.5 48.0 -92.5 52.2 -96.4 56.25 -102.4 62.5 -115.0 62.5 -122.25 62.5 -126.85 61.1 -127.85 63.5 -129.85 66.25 -135.75 74.25 -146.5 74.25 -156.85 74.25 -164.35 69.25 L-166.95 67.3 Q-167.95 68.75 -169.95 70.5 -175.05 75.0 -182.25 75.0 -192.9 75.0 -198.25 68.3 -200.95 65.0 -201.5 61.6 -201.5 45.65 -187.1 48.15 -189.45 46.65 -191.7 44.3 -197.0 38.75 -197.0 34.6 -197.0 25.05 -191.05 19.95 L-190.65 19.65 Q-189.45 18.4 -187.7 17.5 -182.5 14.7 -175.0 15.45 -167.45 16.15 -162.3 19.95 -156.5 24.15 -156.5 30.4 -156.5 34.5 -159.7 39.7 -161.35 42.45 -163.35 44.65 L-163.15 44.75 Q-162.25 45.15 -161.45 45.55 -160.3 44.5 -158.4 43.45 -154.05 41.1 -148.05 39.95 L-137.95 39.55 Q-136.6 36.05 -133.5 31.9 L-133.05 31.35 -137.0 31.5 Q-147.4 31.5 -149.6 25.8 -150.7 23.0 -149.75 20.35 -149.75 13.7 -145.1 11.0 -140.95 8.55 -134.8 9.95 -128.8 11.3 -124.5 15.4 -119.85 19.95 -119.85 25.65 L-119.85 26.05 -117.15 25.6 Q-114.3 25.3 -112.6 25.55 L-111.3 24.7 Q-106.3 22.1 -105.75 21.5 L-102.6 16.9 -102.6 16.15 Q-102.6 12.4 -102.1 11.0 -100.65 6.8 -95.5 6.8 -90.45 6.8 -85.25 9.85 -83.0 11.15 -81.95 11.95 L-81.65 11.65 Q-83.2 8.85 -84.25 3.5 L-85.2 -2.75 Q-88.1 -0.75 -91.75 -0.75 -100.4 -0.75 -107.1 -10.0 -109.4 -13.2 -110.85 -16.35 -113.6 -18.6 -115.6 -23.85 -116.7 -26.7 -117.35 -29.65 L-119.25 -26.5 Q-123.95 -19.45 -130.55 -19.35 -131.2 -19.0 -132.0 -18.6 -136.3 -16.6 -140.75 -16.6 -147.55 -16.6 -149.85 -25.1 -150.9 -28.8 -150.85 -32.6 -153.3 -34.15 -154.2 -39.1 -154.85 -42.7 -154.6 -46.25 -154.6 -48.15 -153.95 -50.25 L-154.0 -50.25 Q-160.8 -50.25 -164.1 -55.85 L-165.2 -58.0 -166.1 -57.25 Q-170.85 -53.35 -174.0 -53.35 -176.6 -53.35 -178.3 -54.05 -181.9 -50.85 -184.5 -50.85 -194.8 -50.85 -198.85 -55.75 -201.0 -58.35 -201.0 -61.55 -201.0 -63.3 -200.4 -64.6 L-211.3 -65.1 Q-210.0 -60.6 -210.0 -56.25 -210.0 -53.7 -212.5 -51.35 -214.5 -49.5 -217.5 -48.75 L-217.5 -48.7 Q-215.75 -45.2 -215.75 -39.0 -215.75 -36.25 -220.1 -32.25 -226.1 -26.75 -235.5 -26.75 -249.75 -26.75 -253.95 -33.25 -255.5 -35.6 -255.5 -40.9 -255.5 -56.55 -230.65 -54.85 -231.4 -56.05 -231.85 -57.7 -232.5 -60.05 -232.5 -64.85 -232.5 -70.7 -226.45 -76.1 -221.15 -80.85 -213.15 -83.6 L-207.5 -85.15 -210.45 -86.9 Q-213.1 -88.7 -214.4 -90.25 -215.5 -89.3 -217.35 -88.2 -221.8 -85.6 -224.5 -85.6 L-229.55 -86.0 -229.6 -85.9 Q-231.1 -82.35 -233.25 -79.25 -239.55 -70.1 -247.5 -70.1 -257.85 -70.1 -261.35 -74.35 -263.0 -76.35 -263.0 -80.0 -263.0 -84.85 -258.5 -89.4 -254.65 -93.3 -248.6 -96.05 -243.05 -98.55 -238.75 -98.8 L-236.3 -98.65 Q-235.05 -99.8 -231.45 -101.35 -225.1 -104.15 -219.5 -103.0 -216.1 -102.2 -214.05 -100.55 L-213.65 -100.2 -212.15 -100.4 -210.35 -99.8 -210.75 -100.75 Q-211.7 -103.4 -211.85 -106.15 -211.85 -110.85 -208.55 -113.6 -205.5 -116.1 -201.2 -116.05 -196.9 -116.0 -193.9 -113.4 -190.6 -110.5 -190.6 -105.5 -190.6 -102.8 -194.0 -99.5 -198.15 -95.45 -204.25 -95.35 -198.85 -90.3 -198.85 -86.15 L-198.85 -85.8 -198.1 -86.5 Q-195.5 -88.75 -193.0 -88.75 L-188.0 -88.5 Q-187.9 -98.0 -182.2 -104.55 -176.9 -110.55 -169.35 -111.6 -161.75 -112.6 -156.55 -107.85 -152.05 -103.65 -151.05 -96.35 L-149.15 -94.2 Q-145.1 -89.1 -143.2 -84.05 L-142.6 -83.65 Q-137.25 -79.7 -137.25 -75.25 -137.25 -71.65 -138.9 -67.75 -139.6 -66.05 -140.45 -64.9 L-138.95 -63.05 Q-134.9 -57.5 -133.05 -52.2 L-132.35 -52.8 Q-129.05 -55.6 -125.45 -58.05 -125.1 -66.0 -121.05 -72.5 -128.9 -72.7 -131.65 -76.6 -133.0 -78.6 -133.0 -82.25 -133.0 -94.4 -123.95 -96.05 -116.55 -97.45 -104.05 -91.75 -93.85 -87.1 -84.15 -79.8 L-82.85 -78.8 -79.9 -79.7 -64.6 -81.35 -61.7 -83.05 Q-57.95 -84.6 -52.7 -85.25 L-52.75 -85.4 -52.75 -88.25 Q-52.75 -91.0 -52.35 -93.45 -56.25 -94.25 -60.4 -103.0 -62.0 -100.05 -67.3 -97.4 -72.6 -94.8 -83.65 -94.5 -94.7 -94.25 -100.0 -99.5 -102.85 -102.35 -102.85 -105.5 L-102.4 -117.75 -102.25 -119.1 Q-103.35 -118.35 -104.75 -117.5 -111.25 -113.6 -117.5 -113.6 -123.45 -113.6 -124.9 -118.0 -125.6 -120.2 -125.1 -122.5 -125.1 -130.6 -119.0 -135.85 -115.35 -139.0 -110.35 -140.55 -112.85 -141.65 -113.85 -142.35 L-120.35 -142.35 -122.8 -141.45 -124.8 -140.95 -125.1 -140.55 Q-126.3 -138.95 -127.0 -138.75 -132.35 -137.65 -134.85 -135.3 -136.05 -134.25 -137.8 -133.8 -138.8 -131.45 -141.1 -128.4 -146.6 -121.0 -154.5 -121.0 -162.4 -121.0 -164.5 -127.4 -165.55 -130.65 -165.0 -134.0 -165.0 -138.6 -157.5 -152.4 -154.8 -157.35 -152.7 -160.2 L-151.0 -165.05 Q-148.7 -170.6 -146.25 -173.25 -144.8 -174.75 -138.75 -172.95 -133.35 -171.35 -131.6 -169.85 -129.4 -167.8 -128.75 -166.1 -128.35 -165.0 -128.35 -162.55 -128.35 -158.65 -130.95 -157.85 L-142.5 -157.35 Q-148.65 -157.35 -149.4 -156.55 L-149.55 -156.15 -149.65 -155.8 -149.85 -155.4 -152.0 -149.9 -153.5 -146.2 Q-151.1 -147.35 -147.5 -147.35 -145.7 -147.35 -143.05 -148.85 -139.8 -150.65 -138.5 -151.0 -136.75 -150.6 -134.05 -148.35 L-133.5 -147.9 Q-132.15 -148.25 -129.35 -147.3 -125.25 -145.9 -124.2 -144.25 L-112.4 -143.8 Q-107.9 -143.1 -103.85 -141.9 -97.25 -142.65 -92.1 -140.7 -90.1 -139.9 -88.7 -138.85 L-88.75 -139.0 -88.9 -141.75 Q-93.9 -141.95 -96.3 -145.5 -97.75 -147.65 -97.75 -149.6 L-97.25 -156.25 Q-101.7 -156.25 -104.35 -159.5 -106.25 -161.8 -106.25 -163.25 L-106.15 -164.3 -106.5 -165.25 Q-106.95 -166.9 -107.0 -168.6 -107.0 -169.8 -105.6 -174.8 -104.25 -179.75 -104.25 -181.15 -104.25 -184.15 -106.65 -187.15 L-106.9 -187.5 -107.6 -187.0 Q-110.55 -185.0 -113.5 -185.0 -119.1 -185.0 -121.55 -188.25 L-127.5 -188.1 Q-134.25 -188.1 -134.25 -195.6 -134.25 -200.2 -129.1 -212.75 L-127.8 -215.75 -132.85 -215.95 Q-134.05 -215.15 -135.65 -214.4 -142.3 -211.25 -152.5 -211.25 L-155.0 -211.4 -157.95 -207.0 Q-162.8 -200.1 -165.0 -200.1 L-175.0 -197.25 -176.15 -198.45 Q-177.5 -199.45 -178.0 -202.65 -178.35 -204.95 -178.25 -207.4 L-178.25 -207.85 -181.5 -207.85 Q-185.75 -209.35 -188.9 -211.0 -189.95 -209.35 -192.6 -207.0 -197.5 -202.75 -202.5 -202.75 -217.45 -202.75 -224.25 -207.4 -228.6 -210.35 -228.6 -214.0 L-228.5 -216.85 -228.2 -216.85 -228.5 -219.55 Q-228.5 -227.35 -221.8 -234.3 -215.55 -240.8 -207.05 -243.15 -199.35 -245.25 -193.9 -242.7 L-194.35 -243.5 Q-195.6 -246.0 -195.75 -248.6 -195.75 -260.5 -191.85 -264.8 -188.65 -268.3 -183.25 -266.4 -178.8 -264.8 -174.65 -260.45 -172.35 -258.1 -171.4 -256.3 L-170.5 -256.9 Q-166.4 -259.55 -161.65 -261.5 L-157.8 -262.95 Q-158.6 -263.85 -159.0 -265.25 -159.35 -266.5 -159.35 -270.1 -159.35 -274.3 -154.7 -276.05 -150.45 -277.7 -144.45 -276.65 -138.35 -275.55 -134.25 -272.25 -129.6 -268.5 -129.6 -263.25 L-129.6 -262.0 -127.75 -262.75 -126.8 -263.4 Q-127.55 -265.15 -127.75 -266.9 -127.75 -270.9 -124.55 -273.3 -121.7 -275.4 -117.55 -275.5 -113.4 -275.55 -110.55 -273.55 -107.35 -271.3 -107.35 -267.5 -107.35 -266.75 -108.35 -264.45 L-109.35 -262.05 Q-109.35 -257.75 -105.7 -253.7 -102.1 -249.7 -102.1 -247.25 L-102.4 -244.95 Q-101.5 -243.85 -101.5 -241.65 -101.5 -240.0 -106.6 -233.3 -112.3 -225.75 -113.5 -222.75 -114.6 -219.95 -118.9 -211.85 L-122.85 -204.15 Q-122.85 -203.1 -120.5 -201.35 -116.4 -203.9 -109.0 -203.6 -103.35 -201.75 -101.25 -199.25 -99.85 -197.5 -99.85 -194.75 L-99.85 -194.2 Q-96.0 -190.6 -96.0 -184.4 -96.0 -178.65 -97.15 -173.95 -98.25 -169.4 -100.25 -166.7 -98.1 -165.95 -96.55 -164.35 L-95.85 -163.55 -95.25 -165.0 Q-92.9 -168.45 -89.45 -170.05 -89.95 -171.55 -90.25 -173.75 -90.7 -177.35 -90.6 -181.1 -90.6 -182.45 -89.6 -185.1 -88.3 -188.6 -86.0 -191.4 -79.2 -199.7 -67.0 -198.1 L-63.5 -198.1 Q-55.1 -195.3 -52.95 -191.5 -52.0 -189.8 -52.0 -184.75 -52.0 -182.15 -55.15 -179.9 -58.3 -177.7 -64.25 -176.0 -66.8 -175.25 -73.0 -170.55 L-73.9 -169.85 -71.8 -168.75 -70.35 -167.75 -61.5 -172.0 Q-54.45 -175.1 -46.7 -169.8 -44.2 -168.1 -42.1 -165.75 -40.35 -163.9 -40.35 -163.5 -40.35 -160.4 -41.75 -157.5 -43.5 -153.8 -46.85 -152.85 -36.05 -152.55 -29.65 -141.9 -26.3 -136.3 -25.15 -130.8 L-23.55 -133.65 Q-21.05 -137.75 -17.65 -141.05 -14.1 -144.55 -11.8 -144.95 -9.1 -145.35 -9.1 -141.25 -9.1 -138.9 -12.15 -134.05 -13.7 -131.55 -15.0 -129.95 -12.75 -126.55 -12.75 -123.75 -12.75 -122.6 -13.5 -121.1 -14.0 -120.1 -14.65 -119.6 L-14.45 -119.0 Q-13.6 -116.0 -13.6 -113.0 -14.5 -109.75 -15.85 -106.6 L-16.25 -105.6 Q-14.6 -102.45 -14.0 -99.45 L-10.8 -100.85 Q-10.2 -103.6 -8.4 -107.0 -6.0 -111.55 -2.5 -115.35 L-0.6 -117.25 -1.6 -119.1 Q-2.75 -121.5 -3.25 -124.0 L-2.8 -126.45 -3.25 -128.3 Q-3.25 -133.45 -2.6 -135.2 -2.0 -136.75 -0.8 -137.75 L-1.2 -138.75 -1.35 -139.75 Q-7.4 -139.8 -9.3 -143.6 -10.25 -145.6 -10.0 -147.9 -10.0 -151.3 -8.35 -153.9 -11.1 -154.35 -13.35 -155.9 L-18.5 -155.5 Q-26.65 -155.5 -30.3 -161.15 -32.5 -164.6 -32.5 -168.6 -32.5 -179.35 -27.3 -184.55 -22.9 -188.85 -15.85 -188.55 -9.6 -188.25 -4.4 -184.75 L-1.75 -182.6 -1.75 -182.75 Q-1.75 -186.15 -0.4 -188.15 L-1.1 -190.75 Q-1.65 -193.3 -1.7 -195.55 L-3.35 -196.25 Q-8.6 -198.5 -9.5 -198.5 -17.15 -198.5 -19.45 -200.65 -20.0 -201.15 -20.2 -202.0 -26.1 -202.3 -27.8 -206.3 L-30.75 -206.0 Q-37.15 -206.0 -39.85 -208.1 -40.8 -208.85 -41.2 -209.75 -46.3 -211.05 -48.6 -216.1 -50.15 -219.5 -50.1 -223.4 -50.1 -224.6 -49.5 -226.35 L-51.65 -224.7 Q-54.3 -222.7 -56.05 -221.9 L-56.0 -220.8 Q-56.0 -216.55 -60.0 -212.0 -66.05 -205.1 -78.0 -205.1 -86.65 -205.1 -88.85 -213.25 -89.95 -217.3 -89.35 -221.5 -89.35 -229.75 -86.3 -235.95 -80.9 -247.05 -67.5 -246.5 L-64.65 -245.65 Q-61.15 -247.45 -55.95 -247.45 L-50.2 -246.85 -50.25 -247.35 Q-50.25 -250.55 -44.85 -255.2 L-43.2 -256.5 Q-46.35 -257.35 -48.25 -259.85 -50.0 -262.2 -50.0 -264.0 -50.0 -266.3 -49.3 -269.75 L-48.85 -271.65 -49.0 -273.15 -48.75 -274.85 Q-55.5 -270.35 -64.75 -270.35 -72.7 -270.35 -74.35 -274.25 -74.9 -275.5 -74.75 -277.1 L-74.5 -278.9 Q-74.5 -285.65 -70.4 -289.95 -64.5 -296.2 -49.5 -299.1 -41.65 -297.05 -39.45 -294.8 -38.1 -293.45 -38.1 -290.2 -36.75 -286.95 -36.75 -282.1 -36.75 -280.7 -37.75 -277.5 -34.2 -278.2 -31.9 -271.7 -29.75 -265.7 -29.75 -260.05 L-29.75 -259.85 -28.35 -259.9 -28.4 -260.1 Q-28.9 -262.9 -28.5 -267.5 -28.15 -272.1 -23.8 -279.35 -20.95 -284.15 -18.8 -286.7 -20.8 -287.85 -21.3 -291.9 -21.6 -294.75 -21.25 -297.75 -21.25 -310.05 -13.8 -321.1 L-13.75 -323.05 Q-13.75 -327.45 -9.5 -331.5 -5.75 -335.1 -0.2 -337.0 5.25 -338.9 9.05 -337.9 L9.9 -337.65 17.1 -337.95 Q26.05 -337.65 31.45 -333.6 38.0 -328.7 38.0 -319.05 38.0 -315.1 35.5 -311.35 31.6 -305.5 23.25 -305.5 20.35 -305.5 16.55 -306.45 15.4 -304.25 12.8 -301.75 L4.25 -293.1 Q4.4 -292.65 5.9 -290.15 L6.6 -288.85 7.3 -288.8 9.85 -290.4 Q13.8 -292.45 18.9 -293.4 24.4 -294.4 27.9 -293.45 32.0 -292.3 32.0 -288.65 L31.8 -286.95 Q33.6 -286.9 34.95 -285.85 36.35 -284.8 37.2 -282.75 38.75 -280.85 38.75 -279.1 L38.3 -276.0 38.3 -275.35 Q38.3 -272.65 35.55 -269.75 31.75 -265.75 25.0 -265.75 19.0 -265.75 17.3 -269.9 16.45 -272.0 16.8 -274.25 16.8 -277.0 20.15 -280.7 22.4 -283.2 24.95 -284.75 22.05 -284.75 19.8 -285.65 17.5 -286.6 14.4 -286.6 L11.9 -285.35 Q9.65 -284.1 8.5 -284.1 L8.35 -284.1 7.3 -280.15 5.55 -273.6 5.55 -270.4 Q5.65 -267.8 4.35 -264.85 3.05 -261.9 -2.7 -261.8 L-10.6 -262.4 -11.75 -262.75 -13.5 -261.0 -14.75 -259.8 Q-6.75 -257.8 -3.5 -256.1 L-3.15 -255.9 2.25 -256.35 Q18.55 -256.35 22.75 -246.1 24.1 -242.85 24.1 -238.6 L24.1 -238.5 29.0 -238.75 Q33.7 -236.4 36.05 -234.65 36.05 -239.55 39.5 -241.65 42.65 -243.55 47.15 -242.55 51.65 -241.55 54.8 -238.3 57.55 -235.4 58.15 -231.75 60.75 -235.15 65.5 -236.6 L70.5 -236.6 Q72.45 -235.8 73.05 -233.75 L73.3 -230.55 Q73.3 -229.65 71.95 -228.2 70.55 -226.7 70.55 -225.1 70.55 -224.2 71.55 -222.35 72.5 -220.5 72.5 -218.75 72.5 -216.85 70.05 -215.5 67.1 -213.85 61.75 -213.85 60.15 -213.85 58.95 -214.4 L58.85 -213.85 61.15 -213.65 Q67.5 -212.85 71.7 -209.45 76.5 -205.6 76.5 -199.65 76.5 -195.35 74.2 -193.3 72.8 -192.1 68.5 -190.65 63.8 -189.05 61.3 -187.3 59.4 -185.95 57.8 -184.05 59.35 -181.4 60.3 -178.25 60.75 -176.4 61.45 -169.85 L62.05 -162.5 Q62.05 -155.0 60.6 -151.4 56.85 -142.3 45.0 -144.25 L42.45 -144.25 41.2 -142.1 Q38.6 -138.5 32.6 -135.75 L30.25 -129.55 29.65 -128.05 Q31.4 -126.45 33.8 -123.4 37.05 -119.25 39.8 -114.55 42.55 -109.9 42.55 -108.5 42.55 -100.55 40.85 -97.95 40.0 -96.7 34.3 -91.2 L36.7 -88.35 Q41.65 -86.9 47.45 -82.7 51.35 -79.8 54.15 -76.6 55.0 -86.7 62.7 -91.75 65.25 -93.45 67.5 -93.75 66.8 -97.8 66.75 -102.0 66.75 -103.7 67.25 -105.3 L67.25 -105.5 Q67.25 -110.5 71.75 -114.6 76.0 -118.45 81.65 -119.25 87.65 -120.05 91.55 -116.65 96.05 -112.7 96.05 -104.05 L96.05 -100.6 96.25 -100.6 Q100.85 -100.6 104.05 -99.45 L104.0 -99.75 104.0 -102.65 Q104.0 -106.55 104.3 -107.5 L104.65 -108.25 104.55 -108.65 Q104.4 -109.45 104.55 -110.35 104.55 -112.65 106.45 -114.25 108.6 -116.05 113.0 -116.7 L112.95 -116.75 Q112.7 -117.8 112.8 -119.0 112.8 -121.4 116.7 -122.6 120.45 -123.7 125.3 -123.1 130.55 -122.45 133.9 -120.05 135.7 -118.75 136.7 -117.1 L139.55 -120.2 Q144.0 -124.8 144.0 -129.65 144.0 -130.75 142.0 -133.35 140.6 -135.15 140.2 -136.9 138.55 -135.4 137.0 -133.35 L132.0 -133.35 Q127.65 -137.55 127.15 -138.55 126.8 -139.2 126.8 -142.8 126.8 -147.2 129.9 -150.05 132.65 -152.55 136.7 -152.95 L139.15 -152.9 139.05 -153.25 Q138.4 -155.35 138.5 -157.75 138.5 -160.5 139.0 -161.5 139.5 -162.5 140.6 -163.0 131.8 -163.25 128.65 -166.7 125.45 -170.15 125.3 -173.7 125.2 -175.7 125.35 -176.4 L125.3 -176.5 Q124.8 -177.4 124.8 -178.9 124.8 -183.8 128.8 -187.15 L128.85 -187.15 Q117.8 -188.2 115.25 -203.0 113.9 -211.0 115.0 -219.65 115.0 -223.4 118.7 -226.9 121.9 -229.95 126.8 -231.95 130.1 -233.25 132.8 -233.55 133.45 -242.1 141.0 -245.15 148.1 -248.05 159.15 -245.55 169.45 -243.15 177.25 -237.6 180.45 -235.3 182.45 -233.0 M60.55 -262.75 Q66.55 -265.25 75.1 -264.1 83.9 -262.95 90.25 -258.45 92.6 -256.8 94.3 -254.85 94.45 -258.5 95.25 -262.1 97.0 -269.85 101.0 -269.85 111.65 -269.85 116.25 -263.25 118.8 -259.55 118.8 -255.9 118.8 -251.65 117.55 -247.85 115.55 -241.8 111.1 -241.3 110.2 -238.45 107.55 -234.25 103.25 -227.5 99.2 -227.1 L100.0 -226.5 Q101.85 -224.9 103.2 -221.85 104.5 -219.05 104.5 -217.05 104.5 -213.1 103.05 -210.15 100.45 -204.75 93.75 -204.75 86.7 -204.75 81.25 -210.1 78.65 -212.7 77.65 -214.5 L75.05 -215.6 Q73.8 -216.15 73.8 -217.5 L73.85 -218.4 74.0 -218.85 75.0 -218.85 Q75.5 -219.45 77.75 -220.2 L84.3 -221.55 91.6 -221.1 Q93.25 -225.8 95.3 -227.2 85.8 -227.9 82.7 -232.5 80.8 -235.35 81.05 -239.25 L81.05 -240.35 78.3 -241.1 65.0 -241.25 Q58.0 -243.5 55.6 -247.3 54.05 -249.75 54.05 -254.3 54.05 -260.05 60.55 -262.75 M18.05 -199.1 L17.45 -194.5 16.8 -189.9 Q16.8 -189.35 17.7 -187.9 18.55 -186.45 18.55 -185.25 18.55 -180.55 16.05 -174.35 13.2 -167.35 8.65 -165.7 9.8 -162.4 9.8 -159.0 L9.45 -154.95 8.95 -151.55 Q16.7 -151.0 19.25 -141.1 20.1 -137.8 20.25 -133.75 L20.25 -133.65 Q21.15 -134.2 22.3 -134.6 L23.25 -134.85 23.8 -135.55 Q26.4 -138.8 27.05 -143.4 27.1 -145.55 28.7 -145.8 L27.25 -147.15 27.25 -147.65 Q25.15 -151.3 25.0 -153.25 24.5 -161.45 24.5 -165.6 24.5 -171.7 28.2 -175.95 30.9 -179.1 35.4 -180.8 34.8 -183.45 34.75 -186.1 34.75 -191.35 35.6 -195.15 36.45 -198.85 38.0 -200.15 34.3 -202.15 32.05 -208.0 31.25 -210.15 30.75 -212.3 30.25 -209.9 29.3 -207.7 26.0 -200.1 18.05 -199.6 L18.05 -199.1 M155.4 -193.05 Q153.85 -191.55 150.25 -189.65 146.6 -187.75 143.3 -186.9 L144.0 -186.2 Q145.85 -185.5 148.9 -183.4 L152.45 -180.8 154.7 -183.0 Q158.0 -185.85 162.8 -188.2 165.9 -189.75 168.4 -190.45 L166.4 -190.85 161.5 -191.75 Q159.7 -191.75 155.4 -193.05 M115.75 -129.2 L107.5 -126.75 Q102.9 -126.75 101.05 -127.85 L100.75 -128.05 99.25 -126.85 Q94.7 -123.75 84.75 -123.75 76.25 -123.75 73.25 -130.5 72.25 -131.7 71.8 -134.1 71.35 -136.5 71.55 -138.6 71.55 -141.7 76.3 -144.0 80.85 -146.25 86.8 -146.35 93.15 -146.45 97.25 -143.9 101.8 -141.05 102.0 -135.5 105.45 -136.85 109.65 -137.6 122.75 -139.85 122.75 -134.05 L122.5 -130.85 Q121.7 -129.0 118.5 -129.0 L115.75 -129.2 M123.05 48.75 Q121.55 50.5 117.0 50.5 108.85 50.5 106.3 47.55 105.25 46.35 105.25 43.85 105.25 41.9 108.15 40.05 111.0 38.25 114.55 37.85 118.45 37.45 120.9 39.3 123.8 41.45 123.8 46.25 123.8 47.95 123.05 48.75 M-161.2 -234.4 Q-161.1 -237.8 -153.5 -242.4 -160.45 -242.7 -163.15 -244.8 -164.65 -246.05 -164.8 -248.8 L-165.0 -248.75 -171.6 -248.75 Q-172.2 -246.95 -173.25 -245.2 -177.25 -238.6 -186.25 -238.6 L-189.25 -239.0 Q-185.8 -234.65 -185.6 -226.8 L-183.75 -227.6 Q-179.55 -229.05 -173.35 -228.6 -167.25 -228.15 -163.0 -226.2 -161.3 -225.4 -160.2 -224.5 -160.2 -226.0 -160.65 -227.95 -161.3 -231.0 -161.2 -234.4 M-9.0 -293.8 Q-10.85 -293.0 -10.85 -291.35 -10.85 -290.15 -10.0 -289.05 -8.95 -287.6 -7.25 -288.0 L-6.3 -291.55 -4.75 -295.1 -9.0 -293.8 M-8.65 -231.15 L-13.25 -229.6 Q-21.4 -227.0 -26.05 -225.95 L-21.45 -223.2 Q-17.15 -220.45 -15.35 -218.6 -15.35 -219.75 -13.9 -223.0 -12.05 -227.15 -9.25 -230.45 L-8.65 -231.15 M-178.25 -185.75 Q-182.9 -182.5 -189.75 -182.5 L-193.7 -183.05 -194.25 -182.0 -195.4 -180.3 Q-195.1 -179.4 -195.1 -178.15 L-194.2 -176.15 Q-193.35 -174.65 -193.35 -173.65 -193.35 -167.85 -193.85 -166.4 -195.6 -161.25 -202.5 -161.25 -211.15 -161.25 -213.6 -165.25 -214.5 -166.65 -214.5 -170.3 -214.5 -173.4 -211.45 -176.8 -209.0 -179.65 -205.55 -181.4 L-205.75 -182.65 Q-205.75 -187.2 -204.5 -189.1 L-204.45 -188.95 Q-202.85 -190.8 -197.3 -192.75 -188.35 -195.45 -186.1 -196.5 -178.25 -200.15 -175.7 -196.2 -174.6 -194.45 -174.6 -190.25 -174.6 -188.3 -178.25 -185.75 M-169.6 -181.9 Q-169.6 -188.3 -163.8 -187.7 L-163.05 -187.55 Q-162.05 -189.25 -159.9 -190.9 -156.3 -193.65 -151.15 -195.3 -146.0 -196.95 -142.45 -196.4 -138.5 -195.8 -138.5 -192.5 -138.5 -190.05 -140.15 -185.8 -142.2 -180.55 -145.0 -179.25 L-150.5 -179.25 Q-152.65 -180.2 -154.35 -182.7 L-155.9 -185.15 -158.05 -184.4 -158.1 -184.35 -158.2 -184.2 -158.0 -183.1 Q-158.0 -181.15 -158.5 -179.35 -159.45 -176.1 -161.75 -176.1 -167.5 -176.1 -169.1 -178.75 -169.6 -179.6 -169.6 -181.9 M-170.25 -78.35 L-172.05 -78.45 Q-171.5 -76.55 -171.5 -74.6 -171.5 -73.8 -172.2 -72.05 -170.0 -71.95 -167.9 -70.0 L-165.95 -67.85 -166.05 -68.5 -166.1 -71.5 Q-166.1 -75.15 -163.35 -79.25 -165.95 -78.35 -170.25 -78.35 M-177.15 -37.1 Q-173.6 -39.4 -168.4 -40.3 -163.3 -41.2 -159.7 -40.15 -155.75 -39.0 -155.75 -36.05 -155.75 -33.4 -158.85 -30.6 -162.2 -27.55 -162.75 -24.6 -163.45 -20.8 -164.45 -19.3 -165.65 -17.5 -168.0 -16.3 -176.9 -10.8 -179.75 -21.35 L-180.25 -23.5 Q-181.1 -28.2 -181.1 -31.0 -181.1 -34.45 -177.15 -37.1 M-64.7 -149.7 Q-61.05 -148.35 -59.4 -148.35 -55.7 -148.35 -53.8 -149.05 L-50.85 -150.0 Q-54.1 -152.75 -59.8 -152.95 -64.65 -153.15 -68.85 -151.6 -68.2 -150.95 -64.7 -149.7" fill="#5e5e5e" fill-rule="evenodd" stroke="none"/>
    </g>
  </defs>
</svg>
