<?xml version="1.0" encoding="UTF-8" standalone="no"?>
<svg xmlns:ffdec="https://www.free-decompiler.com/flash" xmlns:xlink="http://www.w3.org/1999/xlink" ffdec:objectType="frame" height="499.45px" width="496.15px" xmlns="http://www.w3.org/2000/svg">
  <g transform="matrix(1.0, 0.0, 0.0, 1.0, 270.5, 376.7)">
    <use ffdec:characterId="169" height="433.75" transform="matrix(1.0, 0.0, 0.0, 1.0, -265.1, -340.95)" width="484.4" xlink:href="#shape0"/>
  </g>
  <defs>
    <g id="shape0" transform="matrix(1.0, 0.0, 0.0, 1.0, 265.1, 340.95)">
      <path d="M192.8 -198.9 Q192.8 -198.05 191.25 -194.3 189.3 -189.65 186.7 -185.6 179.65 -174.6 171.35 -173.45 171.05 -172.1 170.55 -171.1 167.35 -164.75 157.15 -164.75 150.95 -164.75 148.9 -166.85 146.05 -164.25 140.4 -164.25 133.05 -164.25 128.65 -168.75 124.8 -172.65 124.8 -177.9 124.8 -184.8 128.95 -188.1 130.6 -189.4 132.6 -189.95 118.5 -191.05 114.9 -204.5 112.9 -211.95 114.15 -221.0 114.15 -227.65 119.1 -231.4 123.75 -234.95 130.05 -234.15 L133.85 -233.2 Q133.65 -234.6 133.8 -235.9 133.8 -244.05 142.25 -246.85 150.15 -249.4 160.8 -246.1 172.0 -242.55 179.35 -234.45 187.4 -225.5 187.8 -213.8 192.8 -206.15 192.8 -198.9 M34.5 -327.5 Q34.5 -321.85 33.3 -317.75 30.95 -309.75 24.75 -309.75 18.55 -309.75 15.4 -311.25 L14.45 -311.85 Q14.05 -309.65 11.3 -307.75 L11.3 -307.5 Q11.3 -306.2 9.75 -303.4 8.0 -300.2 5.3 -297.35 L2.3 -294.55 4.15 -292.55 5.65 -289.95 Q6.4 -291.65 9.0 -293.3 12.55 -295.55 17.25 -296.4 22.25 -297.35 25.5 -295.95 29.25 -294.35 29.25 -290.0 29.25 -288.05 29.05 -287.75 28.25 -286.25 24.5 -286.25 20.75 -286.25 18.9 -286.9 17.0 -287.6 15.15 -287.6 13.1 -287.6 11.15 -286.65 9.2 -285.75 8.75 -285.75 7.2 -285.75 6.3 -286.25 L4.8 -281.75 Q4.8 -277.1 2.35 -272.45 L1.2 -270.5 0.05 -269.05 Q-2.8 -266.0 -7.0 -265.85 L-9.6 -265.85 -10.9 -264.6 Q-13.85 -261.85 -17.0 -260.5 -10.75 -259.45 -6.2 -257.7 -2.9 -256.45 -1.6 -255.2 L6.5 -255.85 Q13.65 -256.8 18.8 -250.45 22.75 -245.6 22.75 -242.25 L22.65 -241.2 Q23.75 -240.6 23.75 -239.55 L23.75 -239.1 Q26.3 -239.9 29.65 -238.55 33.75 -236.8 36.75 -232.65 37.5 -236.9 39.55 -239.75 42.6 -243.9 46.9 -243.35 51.2 -242.8 54.2 -237.7 56.35 -233.95 57.15 -228.65 57.8 -230.2 59.05 -231.6 61.6 -234.35 65.25 -235.35 68.9 -236.35 71.45 -235.0 74.25 -233.55 74.25 -229.75 74.25 -229.0 73.15 -227.5 72.0 -226.0 72.0 -225.05 72.0 -224.75 72.75 -222.8 L73.5 -220.55 Q73.5 -219.4 69.5 -217.6 65.5 -215.85 63.0 -215.85 58.9 -215.85 57.25 -219.55 56.6 -215.9 54.55 -212.7 L56.5 -213.25 69.05 -213.6 Q73.2 -212.6 74.35 -210.25 L75.35 -209.2 Q78.75 -205.1 78.75 -201.25 78.75 -198.1 75.75 -196.0 72.7 -193.85 68.1 -193.85 62.75 -193.85 57.85 -188.4 L56.5 -186.5 Q59.95 -183.35 61.35 -174.55 62.3 -168.75 62.3 -157.5 62.3 -154.6 59.75 -151.5 55.95 -146.85 48.5 -146.85 L39.35 -147.35 39.55 -146.5 Q39.55 -144.4 37.8 -142.0 36.3 -139.9 34.25 -139.2 34.15 -137.95 32.3 -134.75 30.35 -131.4 30.3 -129.6 L30.4 -126.25 32.9 -124.9 Q36.7 -122.55 39.35 -119.3 42.3 -115.75 42.4 -110.3 42.45 -104.9 36.85 -99.15 33.8 -96.05 30.15 -93.85 35.65 -90.3 36.9 -87.0 L37.55 -86.8 Q44.0 -84.75 48.05 -80.6 51.6 -76.9 52.5 -72.2 54.85 -75.2 58.25 -76.45 58.0 -77.35 58.0 -78.75 58.0 -79.7 58.5 -80.7 58.65 -85.0 62.85 -89.75 66.95 -94.5 72.1 -96.55 71.0 -97.4 70.25 -100.4 69.75 -102.5 69.55 -104.75 69.55 -112.6 73.65 -117.35 77.3 -121.55 82.7 -121.95 87.95 -122.3 91.7 -118.9 95.8 -115.2 95.8 -108.75 95.8 -104.5 92.55 -97.85 L92.5 -97.7 95.25 -97.3 Q99.45 -95.95 102.95 -95.4 L103.05 -97.05 Q103.05 -101.45 105.0 -104.85 107.35 -109.0 112.15 -110.25 L110.0 -110.25 108.6 -110.4 107.0 -110.6 106.9 -110.75 106.8 -111.55 Q106.8 -117.8 113.75 -118.05 L114.75 -118.05 Q114.4 -119.05 114.4 -119.75 L114.4 -119.9 114.3 -120.9 Q114.3 -123.3 117.7 -124.15 L118.5 -124.3 Q121.5 -125.15 125.5 -124.35 130.05 -123.5 133.1 -120.95 135.55 -118.9 136.3 -116.35 L141.4 -121.9 Q144.95 -126.0 144.85 -127.95 144.75 -129.95 145.2 -132.3 L145.35 -132.95 Q144.4 -134.4 143.55 -137.0 L142.9 -139.0 142.7 -138.75 Q139.9 -135.6 135.4 -135.6 130.0 -135.6 128.3 -140.6 127.65 -142.55 127.65 -146.25 127.65 -150.5 130.35 -153.15 132.8 -155.65 136.25 -155.5 138.55 -155.45 140.35 -154.15 L141.55 -155.1 141.0 -155.95 140.15 -157.25 Q140.15 -162.1 143.85 -161.65 146.85 -161.3 147.45 -158.7 153.05 -161.3 158.1 -160.0 161.65 -159.05 163.85 -156.25 165.9 -153.55 165.9 -150.35 165.9 -148.1 163.4 -147.1 161.25 -146.25 156.9 -146.25 L156.35 -146.25 159.5 -144.8 Q161.8 -143.55 163.75 -142.1 L164.9 -142.4 171.7 -142.1 Q181.55 -140.1 181.55 -134.6 181.55 -132.35 179.95 -129.1 177.95 -125.1 175.4 -125.25 L170.9 -125.25 170.5 -125.6 169.85 -124.9 Q167.6 -122.65 163.7 -122.0 L163.05 -118.35 Q166.55 -116.85 170.8 -111.85 174.6 -107.35 175.7 -105.05 L176.3 -105.95 Q179.6 -110.1 187.55 -105.6 L196.8 -99.45 201.3 -96.55 Q203.3 -97.85 205.45 -98.65 211.4 -100.95 214.95 -97.85 219.3 -94.15 219.3 -83.05 219.3 -80.25 216.15 -77.6 211.9 -74.0 205.75 -75.05 199.55 -76.1 196.5 -79.1 193.45 -82.1 194.3 -84.5 194.75 -86.0 194.4 -86.8 186.45 -87.1 183.15 -90.0 L181.6 -90.2 Q181.1 -86.9 179.65 -83.85 176.0 -76.1 168.15 -76.1 L164.95 -76.5 162.9 -75.25 Q159.15 -73.1 156.9 -73.1 153.05 -73.1 148.65 -75.75 L151.15 -75.55 154.05 -75.25 Q156.0 -75.25 161.55 -78.65 L161.4 -78.85 160.15 -81.65 Q160.15 -86.35 161.0 -88.75 161.85 -91.05 163.6 -92.3 160.5 -93.25 158.05 -96.75 156.5 -99.0 155.9 -100.45 L153.55 -101.4 153.0 -100.9 Q147.9 -95.9 143.9 -97.5 142.85 -95.9 142.05 -95.25 140.6 -94.25 136.4 -94.25 132.4 -94.25 130.2 -96.95 L127.8 -100.85 Q126.9 -102.0 124.1 -103.0 124.9 -101.5 124.9 -99.75 L124.9 -99.3 Q125.7 -98.8 126.75 -97.3 130.3 -91.95 130.3 -86.8 L130.35 -81.4 Q130.2 -77.3 129.0 -74.4 125.55 -66.1 113.4 -66.05 L117.15 -60.9 Q119.75 -56.55 119.75 -53.75 119.45 -49.55 118.0 -45.5 115.15 -37.35 109.5 -37.35 104.55 -37.35 101.35 -39.3 99.8 -40.25 99.1 -41.25 L98.95 -41.45 97.0 -44.0 94.35 -42.15 Q91.75 -40.6 90.0 -40.6 80.7 -40.6 76.85 -42.1 L74.5 -43.5 71.55 -42.35 Q68.45 -41.35 65.05 -40.9 69.05 -39.9 71.5 -38.65 77.3 -40.5 83.75 -40.5 89.1 -40.5 92.25 -39.0 L92.5 -39.05 Q98.15 -39.6 101.5 -36.0 104.85 -33.2 108.25 -27.35 110.9 -22.85 115.6 -17.3 117.05 -15.55 117.3 -11.55 L117.7 -11.85 Q120.85 -13.8 123.6 -14.7 L126.05 -15.35 Q126.75 -17.85 129.3 -21.05 130.65 -22.75 132.25 -23.8 128.9 -25.1 126.8 -29.35 124.8 -33.35 124.8 -35.9 124.8 -38.55 127.95 -41.1 131.85 -44.25 138.8 -44.35 138.55 -45.4 138.55 -47.8 138.55 -54.1 144.05 -56.05 148.85 -57.75 156.2 -55.75 L156.95 -55.55 156.45 -57.0 Q155.9 -59.3 156.15 -62.05 156.15 -63.85 160.25 -67.6 165.25 -72.2 170.4 -71.0 184.35 -69.15 188.05 -63.85 189.4 -61.9 189.65 -59.15 L189.65 -54.55 Q189.65 -51.55 185.8 -48.35 180.95 -44.4 173.1 -44.25 173.8 -42.65 173.8 -41.05 173.8 -39.7 173.2 -38.45 L178.35 -36.45 179.3 -35.95 Q183.85 -38.3 189.65 -38.85 197.5 -39.6 202.7 -36.7 208.65 -33.4 208.65 -26.4 208.65 -22.35 205.9 -18.35 202.15 -12.85 195.15 -12.85 182.5 -12.85 175.4 -18.45 173.05 -20.35 171.65 -22.55 170.65 -24.15 170.65 -24.85 L170.8 -26.6 167.15 -29.0 166.7 -29.85 Q158.35 -26.85 158.95 -23.15 158.5 -21.45 156.55 -19.25 L154.6 -17.35 Q155.3 -16.1 155.3 -14.55 L155.3 -14.25 Q160.9 -16.55 168.85 -16.4 176.9 -16.25 182.4 -13.65 188.55 -10.7 188.55 -5.75 188.55 -0.7 184.8 4.3 179.15 11.8 167.9 11.8 150.2 11.8 145.45 6.0 143.8 4.05 143.65 1.35 143.55 -0.1 143.8 -2.05 L144.2 -3.25 Q142.2 -3.8 140.75 -5.05 L139.7 -6.3 Q136.35 -4.85 131.9 -4.85 130.85 -4.85 129.95 -5.35 126.65 0.3 124.75 2.85 L125.8 3.1 Q133.3 5.2 133.3 9.5 133.3 14.6 131.05 17.25 126.85 22.25 114.5 22.25 109.5 22.25 106.95 20.35 105.8 19.5 105.3 18.35 104.15 20.6 102.05 22.75 L100.9 23.9 97.85 24.55 Q88.1 26.15 85.6 23.0 L81.4 17.5 80.0 17.5 Q72.55 16.65 64.85 12.1 L61.1 9.6 Q60.6 13.6 58.75 17.0 54.45 25.0 44.25 25.0 L35.5 24.5 Q35.3 28.5 34.75 31.8 L33.85 35.85 34.75 35.0 Q39.9 30.75 47.4 30.2 54.85 29.65 60.05 33.1 65.8 36.85 65.8 43.9 65.8 61.3 56.55 68.0 51.25 71.85 41.3 72.75 L40.95 73.8 Q37.35 84.55 25.5 84.55 8.75 84.55 3.3 72.5 1.0 67.35 1.0 57.85 1.0 51.15 1.2 49.2 1.45 46.65 2.1 44.8 -1.65 46.05 -3.25 46.05 L-17.3 45.25 -20.85 44.45 Q-25.1 45.75 -29.25 45.75 L-35.5 45.15 Q-37.9 46.35 -39.7 46.7 L-39.75 47.05 -40.15 49.95 -37.5 48.8 Q-36.1 48.8 -35.25 49.25 L-34.5 49.05 Q-18.65 47.6 -12.4 52.85 -6.15 58.05 -4.45 62.6 -2.75 67.1 -2.75 70.6 -2.75 74.1 -4.2 79.6 -7.65 92.5 -18.0 92.5 -35.4 92.5 -44.5 79.0 -47.6 74.45 -49.25 68.95 L-50.3 64.75 Q-54.5 60.5 -56.1 57.55 L-57.0 57.55 Q-66.35 57.55 -70.5 53.8 -73.1 51.4 -73.1 48.35 L-72.95 47.65 -73.35 44.75 Q-73.35 42.0 -72.45 41.15 L-72.25 41.0 Q-71.2 37.7 -67.55 35.05 -63.05 31.85 -56.05 30.45 L-45.35 30.0 -41.15 30.4 -38.45 31.1 Q-38.85 29.9 -38.85 28.6 -38.85 23.5 -31.45 20.05 -25.1 17.1 -15.15 16.1 L-9.65 15.7 Q-9.55 12.4 -9.0 9.3 L-13.0 10.95 Q-20.5 13.8 -24.25 13.8 -38.0 13.8 -51.85 6.75 L-55.9 4.5 -57.25 6.85 Q-59.9 11.4 -62.3 13.85 -63.65 16.2 -65.85 18.5 -73.85 26.75 -89.25 26.75 -95.25 26.75 -98.0 24.55 -100.75 22.35 -100.75 17.4 -100.75 13.5 -100.25 11.8 -98.95 7.3 -94.5 7.3 -89.9 7.3 -85.75 9.3 -84.5 9.9 -83.65 10.45 L-81.5 10.25 Q-84.4 0.15 -85.15 -5.35 L-85.55 -9.35 -86.45 -9.4 -86.1 -8.3 Q-86.1 -6.85 -87.25 -4.75 -88.7 -2.1 -90.75 -2.1 -98.5 -2.1 -105.1 -9.75 -107.35 -12.35 -109.0 -15.35 -110.35 -17.9 -110.35 -18.75 -110.35 -19.75 -109.8 -19.75 -112.5 -22.55 -114.3 -25.7 -116.0 -28.75 -116.0 -30.25 L-116.0 -30.45 -116.6 -33.15 Q-116.6 -36.1 -115.95 -38.75 L-117.6 -38.9 Q-117.8 -34.7 -118.9 -30.85 -121.3 -22.25 -127.25 -22.25 L-129.8 -22.3 -130.95 -21.15 Q-134.05 -18.25 -138.0 -18.25 -145.95 -18.25 -148.25 -23.4 -149.5 -26.1 -149.35 -29.85 -150.3 -33.65 -152.25 -36.5 -153.75 -38.65 -153.75 -41.3 L-153.3 -45.8 Q-152.8 -48.7 -151.9 -49.7 -155.05 -52.55 -160.25 -58.5 -162.2 -59.2 -162.85 -61.5 L-162.85 -61.6 Q-163.95 -61.65 -164.75 -62.55 L-164.75 -62.3 Q-164.75 -59.95 -167.7 -57.6 -171.35 -54.75 -177.0 -54.75 -179.85 -54.75 -181.7 -55.8 -183.7 -54.0 -186.75 -54.0 -196.55 -54.0 -199.35 -58.75 -200.8 -61.15 -200.25 -63.8 -200.25 -65.6 -199.65 -67.05 -201.65 -67.4 -203.15 -68.05 L-211.75 -67.5 -213.55 -67.6 -213.4 -66.85 -212.25 -61.1 Q-212.25 -51.75 -218.5 -51.75 L-218.6 -51.75 Q-218.6 -49.75 -219.0 -49.1 L-219.8 -48.3 Q-218.75 -46.8 -218.75 -45.1 -218.75 -38.55 -220.5 -35.35 -224.3 -28.35 -236.25 -28.35 -248.85 -28.35 -255.0 -32.85 -259.0 -35.85 -259.0 -38.9 -259.0 -46.95 -252.7 -51.25 -247.3 -54.9 -238.85 -55.0 -232.9 -55.05 -227.95 -53.4 L-226.75 -53.35 -226.6 -53.5 -228.5 -54.75 Q-230.9 -56.7 -231.75 -59.25 L-231.55 -59.9 -231.35 -60.05 -231.75 -61.8 Q-232.3 -65.0 -232.1 -68.3 -232.1 -75.25 -227.6 -79.0 -223.85 -82.15 -217.65 -82.6 L-216.85 -83.25 Q-213.75 -85.45 -208.75 -85.3 -204.45 -85.2 -200.8 -83.5 L-200.55 -83.6 -200.75 -84.85 Q-200.75 -91.6 -188.25 -90.4 L-186.4 -95.2 Q-184.25 -100.5 -184.25 -101.0 -184.35 -104.85 -182.8 -106.6 L-181.45 -107.8 -180.25 -109.25 Q-177.1 -112.35 -171.0 -112.35 L-165.9 -111.9 Q-160.7 -111.6 -157.25 -107.9 -153.85 -104.3 -153.85 -101.35 L-153.95 -100.5 Q-151.7 -98.7 -149.1 -95.35 -140.5 -84.25 -140.5 -73.6 -140.5 -70.5 -140.95 -69.7 L-143.5 -66.75 Q-141.35 -65.3 -139.6 -63.45 -135.25 -58.9 -135.25 -53.6 L-135.35 -51.4 -131.9 -53.85 Q-126.2 -57.7 -125.75 -58.25 L-123.25 -61.6 -123.25 -61.9 Q-123.25 -68.25 -120.25 -72.8 L-121.85 -73.9 -122.85 -74.65 -125.7 -75.25 -127.0 -75.0 Q-131.35 -75.0 -134.05 -79.5 -136.0 -82.75 -136.0 -85.1 -136.0 -94.25 -126.6 -95.05 -118.5 -95.75 -105.85 -90.4 -94.15 -85.5 -85.15 -78.35 L-81.9 -75.6 Q-75.15 -77.45 -66.75 -77.55 L-57.15 -77.0 Q-54.4 -80.25 -50.5 -82.45 -48.55 -83.6 -46.8 -84.2 -49.05 -90.9 -49.65 -97.75 L-50.0 -97.75 Q-54.5 -100.75 -62.45 -111.7 -62.1 -104.85 -66.9 -101.2 -71.75 -97.6 -84.6 -95.7 -95.35 -97.5 -99.55 -103.75 -102.5 -108.2 -101.75 -113.35 -101.75 -120.95 -101.55 -122.45 L-101.45 -123.05 Q-111.45 -116.1 -120.0 -116.1 -122.75 -116.1 -124.5 -118.25 -125.75 -119.8 -125.75 -120.75 -125.75 -127.35 -120.1 -132.95 -115.2 -137.85 -107.75 -140.5 -100.6 -143.05 -95.35 -142.1 -90.3 -141.2 -89.8 -137.35 L-84.75 -137.2 -84.5 -139.85 -84.25 -143.6 -90.0 -143.35 Q-94.4 -143.35 -96.25 -148.85 -97.25 -151.9 -97.25 -155.25 -97.25 -158.05 -96.8 -160.4 L-97.3 -160.1 Q-98.55 -159.35 -100.0 -159.35 -105.5 -159.35 -106.55 -162.75 -107.05 -164.5 -106.5 -166.5 -106.5 -169.5 -104.85 -176.25 -103.25 -183.0 -103.25 -185.6 -103.25 -186.85 -104.25 -188.4 L-104.45 -188.75 Q-105.55 -187.05 -106.0 -186.85 L-113.0 -186.85 Q-117.25 -188.3 -121.1 -189.05 L-121.85 -190.0 -122.75 -191.1 Q-124.85 -190.35 -127.0 -190.35 -128.95 -190.35 -130.1 -192.75 L-131.25 -194.8 -132.2 -197.9 Q-133.15 -201.4 -132.25 -203.0 L-129.4 -208.05 Q-127.55 -211.5 -127.3 -214.2 L-126.8 -213.45 Q-124.4 -219.0 -123.1 -220.7 L-123.0 -221.1 -123.0 -221.6 -128.0 -220.35 -131.5 -219.85 Q-134.5 -219.85 -137.05 -222.65 L-137.65 -223.35 -137.9 -221.7 Q-139.2 -217.0 -154.5 -213.85 -157.25 -211.65 -161.4 -207.45 -164.75 -204.05 -168.0 -201.85 L-174.5 -202.1 -175.3 -205.95 Q-175.9 -208.45 -177.0 -210.35 -187.3 -211.65 -190.0 -213.05 L-190.45 -213.3 Q-195.4 -205.1 -207.5 -205.1 -223.05 -205.1 -227.65 -210.35 -229.6 -212.6 -229.6 -218.25 -229.6 -219.65 -227.5 -223.9 -225.25 -228.45 -222.15 -232.85 -213.7 -244.85 -207.0 -244.85 -194.6 -244.85 -189.75 -238.65 -187.25 -235.45 -187.25 -231.5 L-187.15 -229.7 -177.0 -230.1 Q-171.2 -230.1 -166.7 -227.2 -162.25 -224.35 -161.6 -224.35 -157.95 -224.35 -158.25 -228.15 -158.35 -230.05 -159.25 -232.25 -159.25 -239.3 -158.05 -240.85 -156.5 -242.9 -151.5 -243.15 -149.85 -244.8 -148.0 -245.85 -151.65 -248.35 -155.3 -247.95 -157.15 -247.8 -158.5 -247.1 -162.95 -247.1 -165.25 -250.35 L-165.85 -251.3 Q-166.45 -250.85 -167.0 -250.85 -170.05 -250.85 -173.15 -252.2 -173.55 -249.0 -174.55 -247.35 -178.0 -241.85 -189.5 -241.85 -194.1 -241.85 -196.0 -248.6 -196.95 -251.95 -197.0 -255.35 -197.0 -259.65 -196.7 -260.55 -196.05 -262.35 -192.0 -267.1 L-183.0 -267.1 -177.45 -262.35 Q-174.2 -259.3 -173.3 -257.3 -172.0 -256.6 -171.0 -256.6 -168.35 -258.5 -164.55 -260.25 -159.95 -262.35 -155.55 -262.85 L-156.55 -263.85 Q-159.0 -266.6 -159.0 -269.6 -159.0 -275.2 -154.5 -277.75 -150.45 -280.05 -144.6 -279.0 -138.75 -277.95 -134.75 -274.15 -130.25 -269.85 -130.25 -263.85 -130.25 -262.75 -134.05 -260.9 -136.75 -259.55 -139.15 -259.05 -136.85 -257.35 -135.5 -257.35 L-127.15 -258.95 -127.05 -259.2 Q-126.35 -260.45 -123.75 -260.6 -125.8 -261.95 -127.1 -265.8 -127.75 -267.75 -128.0 -269.5 -128.0 -273.85 -124.85 -276.25 -122.15 -278.3 -118.0 -278.4 -114.05 -278.45 -111.1 -276.7 -108.0 -274.9 -108.0 -272.0 -108.0 -268.3 -109.35 -265.65 L-110.05 -264.5 -109.5 -261.6 Q-109.65 -252.15 -105.6 -249.9 -103.25 -248.65 -102.8 -248.05 -101.5 -246.45 -101.5 -242.75 -101.5 -238.8 -109.05 -233.35 L-112.3 -231.0 -119.55 -214.8 -126.5 -198.85 Q-124.9 -197.25 -122.3 -197.05 L-121.5 -199.3 -121.45 -199.35 -119.05 -200.2 Q-113.85 -202.1 -110.5 -202.1 -104.85 -202.1 -102.25 -199.45 -100.75 -197.9 -100.75 -196.5 L-101.15 -195.0 Q-98.55 -194.4 -97.0 -189.9 -95.75 -186.35 -95.75 -183.85 -95.75 -180.15 -97.2 -175.15 -98.85 -169.5 -101.0 -167.6 -97.7 -168.05 -96.3 -165.8 L-95.7 -164.45 -95.3 -165.35 Q-92.95 -170.35 -88.15 -171.6 L-88.55 -172.65 Q-89.8 -176.3 -90.5 -180.1 -90.5 -183.15 -89.5 -185.9 L-89.5 -186.35 Q-89.5 -188.4 -86.75 -191.35 -84.65 -193.6 -82.0 -195.25 -77.8 -198.3 -72.35 -199.7 -65.05 -201.55 -59.9 -199.4 -54.25 -196.95 -54.25 -190.6 -54.25 -189.8 -54.85 -188.8 L-54.75 -186.75 Q-54.75 -183.85 -56.8 -182.85 -58.7 -181.85 -63.75 -181.85 L-67.1 -179.7 Q-74.5 -175.05 -77.9 -171.3 L-75.5 -170.6 Q-72.2 -169.5 -71.2 -168.2 -66.7 -170.9 -61.6 -172.6 -53.05 -175.5 -47.8 -173.7 -41.5 -171.5 -41.5 -162.85 -41.5 -158.4 -46.6 -155.5 L-45.5 -155.15 Q-38.85 -152.9 -34.15 -146.15 -29.0 -138.75 -29.0 -129.5 L-29.0 -129.1 -27.0 -130.45 Q-22.3 -133.2 -21.5 -136.0 -20.55 -139.1 -18.25 -141.25 -14.85 -144.35 -9.75 -143.85 L-9.55 -143.55 -9.35 -142.55 -10.25 -142.05 Q-10.25 -141.45 -12.2 -137.35 -14.15 -133.2 -14.25 -132.1 L-14.05 -127.45 -14.1 -126.35 Q-13.75 -125.35 -13.75 -123.8 -13.75 -122.4 -14.0 -121.75 -14.35 -120.85 -15.2 -120.5 L-15.0 -117.0 Q-15.0 -113.8 -17.75 -106.5 L-18.35 -104.9 Q-16.9 -102.45 -16.25 -99.35 L-16.1 -98.1 Q-13.9 -100.4 -9.4 -100.85 L-9.6 -102.5 Q-9.6 -108.15 -1.9 -113.55 L-0.7 -114.35 -0.9 -114.75 Q-1.25 -115.7 -1.25 -117.75 L-0.6 -121.95 Q0.0 -124.85 0.05 -127.1 L-0.5 -128.5 Q-1.25 -130.6 -1.25 -131.35 -1.25 -133.75 1.25 -136.25 L2.3 -137.1 2.3 -137.25 1.15 -141.85 Q0.55 -144.0 0.3 -145.45 -2.2 -143.5 -3.0 -143.5 -6.75 -143.5 -7.5 -145.65 -7.85 -146.75 -7.5 -148.0 -7.5 -151.9 -7.05 -153.85 L-6.55 -155.45 Q-8.7 -155.9 -10.1 -157.25 L-11.2 -158.5 Q-14.3 -157.1 -18.75 -157.1 -28.2 -157.1 -31.6 -166.35 -33.25 -170.75 -33.25 -176.85 -33.25 -181.6 -28.15 -185.15 -23.3 -188.45 -16.85 -188.95 -10.05 -189.45 -5.6 -186.3 -3.2 -184.6 -1.9 -182.05 -1.55 -184.15 -0.15 -186.15 -1.15 -188.05 -1.7 -192.15 -2.2 -195.75 -2.35 -199.45 L-9.85 -200.5 -10.75 -200.5 Q-16.2 -200.5 -17.85 -201.75 -18.45 -202.15 -18.5 -203.0 L-19.05 -203.5 -19.25 -203.5 Q-22.45 -203.5 -24.25 -205.65 -25.3 -206.9 -25.5 -208.3 -40.2 -208.85 -45.4 -215.1 -48.25 -218.6 -48.25 -225.4 L-48.15 -230.3 Q-49.25 -230.6 -50.2 -231.3 -50.7 -229.1 -51.55 -227.25 -53.6 -222.9 -57.65 -221.55 -59.5 -218.35 -62.15 -215.5 -69.7 -207.35 -79.0 -207.35 -88.75 -207.35 -90.75 -212.6 -91.35 -214.3 -91.2 -216.55 L-90.85 -219.0 Q-90.85 -225.05 -87.15 -232.45 -86.0 -237.95 -81.7 -241.4 -76.65 -245.4 -68.65 -245.75 L-60.85 -245.05 -57.15 -245.5 -51.2 -245.05 Q-50.95 -248.55 -47.55 -252.3 -44.95 -255.15 -41.3 -257.35 L-40.7 -260.95 -40.6 -261.5 -43.0 -258.75 -46.5 -258.75 Q-50.3 -259.65 -52.1 -263.1 -53.35 -265.5 -53.35 -268.35 L-53.05 -272.15 Q-53.75 -272.75 -53.9 -274.2 L-53.85 -276.85 Q-60.05 -276.5 -63.5 -275.1 -66.5 -273.85 -70.75 -273.85 -73.9 -273.85 -74.75 -278.1 -75.2 -280.25 -75.0 -282.55 -75.0 -287.7 -69.5 -292.9 -64.3 -297.8 -57.35 -300.1 -50.05 -302.5 -45.25 -300.3 -39.75 -297.8 -39.75 -289.8 L-39.85 -287.9 Q-35.6 -282.9 -35.6 -278.3 -35.6 -275.35 -36.05 -272.65 -31.05 -268.8 -31.0 -261.3 L-30.3 -261.4 -26.75 -261.5 -27.25 -262.9 Q-27.8 -264.8 -27.85 -266.85 -27.85 -272.05 -25.0 -276.0 L-16.5 -287.85 -15.2 -289.8 -15.25 -289.85 -15.4 -289.9 Q-16.6 -288.6 -17.5 -288.6 -21.15 -288.6 -22.35 -293.9 -22.95 -296.55 -22.85 -299.35 -22.85 -307.45 -18.7 -314.25 -17.2 -316.7 -15.25 -318.6 L-15.85 -320.3 Q-16.45 -322.55 -16.25 -324.9 -16.25 -328.95 -12.35 -333.45 -8.5 -338.0 -3.25 -339.75 1.95 -341.5 4.5 -340.7 7.0 -339.95 7.95 -339.0 12.05 -340.2 17.25 -339.9 24.4 -339.5 29.1 -336.55 34.5 -333.1 34.5 -327.5 M55.55 -257.05 Q55.55 -263.05 61.85 -265.35 67.6 -267.4 75.65 -265.6 83.9 -263.7 89.45 -258.75 94.5 -254.3 95.5 -248.7 L95.85 -248.7 95.5 -251.15 Q95.25 -253.7 95.3 -256.35 95.3 -262.9 99.2 -266.5 102.75 -269.8 107.75 -269.15 112.85 -268.5 116.25 -264.0 120.15 -258.9 120.15 -250.65 120.15 -247.4 116.9 -243.7 113.8 -240.15 109.25 -239.2 108.65 -237.4 107.3 -235.25 103.6 -229.25 97.0 -229.25 88.5 -229.25 85.75 -232.6 84.5 -234.15 84.5 -237.1 L84.6 -239.6 84.8 -240.2 81.25 -241.45 Q77.15 -243.0 70.25 -242.1 63.8 -241.3 61.35 -242.95 59.95 -243.9 58.55 -246.35 57.35 -247.65 56.4 -251.6 55.55 -255.05 55.55 -257.05 M38.5 -281.45 Q39.25 -279.0 39.25 -275.35 39.25 -272.55 35.25 -269.7 30.5 -266.35 23.5 -266.35 18.9 -266.35 17.25 -269.95 16.4 -271.75 16.5 -273.65 16.5 -278.9 18.15 -280.95 21.75 -285.45 34.0 -285.75 37.25 -285.8 38.5 -281.45 M4.15 -238.4 Q7.0 -238.2 10.5 -237.1 15.45 -235.55 18.85 -233.05 19.3 -235.25 20.4 -236.7 L18.75 -236.6 Q9.65 -236.6 5.2 -239.35 L4.15 -238.4 M20.2 -202.95 L20.5 -201.55 20.05 -199.15 20.25 -197.5 Q20.25 -195.9 17.4 -193.55 L15.2 -191.95 14.25 -186.1 14.15 -185.55 Q15.05 -185.2 15.05 -181.25 15.05 -177.45 12.15 -173.15 10.1 -170.15 7.35 -168.1 9.05 -165.15 9.05 -161.9 L8.95 -155.75 8.3 -152.95 Q9.6 -152.6 11.15 -151.7 19.05 -147.1 19.05 -138.3 19.05 -136.15 18.6 -134.95 19.3 -133.6 20.85 -133.6 L27.45 -140.0 27.0 -140.55 Q26.5 -141.45 26.8 -142.4 26.8 -145.55 30.25 -147.25 L32.4 -148.85 32.65 -148.95 Q28.3 -150.55 26.55 -153.35 25.25 -155.5 25.35 -158.45 L25.8 -162.0 Q25.8 -167.6 26.0 -169.05 26.5 -172.5 28.8 -177.35 31.7 -183.55 40.05 -186.7 39.3 -187.8 38.8 -189.7 38.3 -191.9 38.25 -194.25 38.25 -199.5 41.1 -203.65 L40.0 -203.6 Q37.55 -203.6 36.1 -207.65 35.4 -209.5 34.9 -211.95 L33.55 -212.35 27.85 -214.05 27.2 -212.0 Q25.1 -206.55 19.55 -204.0 L20.2 -202.95 M75.2 -216.35 Q72.8 -217.9 72.8 -218.7 72.8 -219.55 74.65 -220.0 77.7 -220.7 88.05 -220.35 L91.25 -220.35 Q96.05 -231.7 100.5 -227.3 102.15 -225.7 103.25 -222.3 104.25 -219.25 104.25 -216.75 104.25 -213.7 102.75 -211.1 100.05 -206.5 94.7 -206.35 89.3 -206.25 86.55 -209.65 83.75 -213.1 80.65 -213.95 77.55 -214.8 75.2 -216.35 M149.8 -193.2 Q146.9 -190.55 139.55 -190.0 143.95 -189.05 147.25 -186.0 150.2 -183.2 151.05 -179.75 152.25 -182.55 155.0 -185.5 160.75 -191.65 169.9 -193.75 L157.1 -195.3 151.4 -195.8 Q150.9 -194.2 149.8 -193.2 M108.8 -129.1 Q102.9 -127.8 102.05 -128.5 L101.1 -129.3 101.05 -129.25 Q98.3 -125.1 88.75 -125.1 78.85 -125.1 74.75 -132.5 72.5 -136.5 72.5 -140.75 72.5 -144.3 77.1 -146.3 81.5 -148.15 87.3 -147.6 93.45 -147.0 97.45 -143.9 101.8 -140.45 102.05 -134.95 L103.85 -136.6 Q106.95 -138.9 111.2 -139.75 115.6 -140.65 118.5 -139.3 121.8 -137.8 121.8 -133.85 121.8 -131.75 118.25 -131.05 L108.8 -129.1 M201.25 -136.85 Q201.75 -137.85 202.95 -138.95 204.85 -140.7 207.4 -141.6 213.9 -143.9 213.9 -138.05 213.9 -135.7 213.45 -134.85 L212.9 -134.15 Q214.9 -130.95 214.9 -125.0 L214.75 -121.95 Q214.4 -120.85 213.55 -120.3 213.15 -118.65 212.4 -117.65 208.95 -113.0 197.65 -113.0 189.25 -113.0 186.5 -113.95 185.9 -112.65 186.0 -110.95 L186.55 -107.6 186.4 -107.35 Q184.9 -108.5 183.7 -112.35 182.8 -115.3 182.8 -116.4 182.8 -117.45 184.1 -119.85 185.2 -121.95 185.95 -122.05 186.85 -125.45 190.2 -129.2 194.65 -134.15 200.3 -136.5 L201.25 -136.85 M173.55 68.05 Q167.0 75.05 155.4 75.05 146.1 75.05 142.35 72.7 130.5 92.8 120.5 92.8 100.45 92.8 94.8 87.3 92.8 85.4 92.5 82.7 L92.5 78.85 Q92.5 73.2 98.75 68.85 105.2 64.35 117.2 62.6 L116.85 62.55 111.65 60.95 Q108.2 59.8 105.75 58.3 101.85 59.85 99.3 57.5 L98.0 55.55 97.05 57.75 Q94.3 63.5 88.75 63.5 78.05 63.5 74.55 59.25 73.05 57.45 73.05 54.1 73.05 50.35 73.55 49.4 74.45 47.85 76.85 47.05 76.4 46.05 76.1 44.95 75.75 43.7 75.75 43.05 75.75 37.75 80.3 34.75 83.65 32.5 88.15 32.2 88.7 31.05 89.75 30.3 91.7 28.85 94.65 29.1 97.45 29.3 99.5 31.0 101.75 32.8 101.75 35.35 L101.7 36.4 Q104.8 39.4 104.8 43.8 104.8 46.65 101.8 49.8 100.45 51.25 98.75 52.25 L98.5 53.7 Q99.45 53.25 101.35 52.95 104.9 52.45 109.65 53.0 121.75 54.3 121.75 58.9 121.75 60.7 120.2 61.85 L119.4 62.3 125.0 61.75 136.95 61.8 Q135.7 61.45 135.8 61.1 L137.05 54.7 Q138.2 48.7 143.4 43.0 148.55 37.25 156.85 35.55 165.75 33.8 171.5 38.95 178.15 44.9 178.15 58.65 178.15 63.05 173.55 68.05 M123.85 48.3 Q122.75 49.4 118.3 49.6 113.8 49.8 109.8 46.2 L106.5 43.35 Q106.5 41.45 109.5 39.7 112.5 37.95 119.15 37.7 125.75 37.4 125.35 42.3 124.95 47.2 123.85 48.3 M-9.3 -297.2 L-12.35 -296.5 -12.25 -291.35 Q-12.0 -291.15 -11.75 -289.95 -9.95 -290.1 -8.3 -291.05 -7.15 -291.8 -6.85 -290.85 -6.9 -292.45 -6.1 -293.7 -5.1 -295.25 -4.6 -296.85 -4.1 -298.5 -4.35 -299.05 -6.4 -298.0 -9.3 -297.2 M-6.05 -236.95 Q-8.25 -234.9 -13.5 -232.6 -20.0 -229.8 -25.25 -229.0 L-21.6 -226.7 -16.0 -222.45 Q-15.6 -224.1 -13.45 -227.05 -10.8 -230.6 -7.55 -233.45 -5.25 -235.5 -3.45 -236.35 -4.95 -236.45 -6.05 -236.95 M-162.5 -178.1 Q-163.7 -178.1 -166.25 -179.6 -168.05 -180.65 -169.45 -180.95 L-169.5 -182.1 Q-169.5 -183.8 -167.25 -185.75 -164.75 -187.9 -161.5 -187.15 L-161.3 -187.4 -161.9 -187.55 -162.5 -188.35 Q-156.75 -194.2 -148.75 -196.5 -139.25 -199.3 -139.25 -190.75 -139.25 -187.3 -141.55 -184.35 -144.15 -181.1 -148.0 -181.1 L-148.25 -181.1 Q-149.65 -182.25 -152.1 -182.75 L-152.75 -182.85 -152.8 -183.85 -152.85 -183.85 Q-155.5 -185.1 -156.75 -185.1 -158.15 -185.1 -159.7 -183.95 L-159.95 -183.75 Q-159.65 -181.45 -159.95 -179.8 L-160.1 -179.15 Q-161.8 -178.1 -162.5 -178.1 M-179.05 -188.45 Q-179.25 -187.4 -180.55 -186.75 -182.7 -185.65 -189.2 -185.0 -190.15 -185.8 -191.5 -186.3 -193.45 -187.05 -194.75 -186.25 -195.6 -185.7 -195.95 -184.6 L-196.25 -184.6 Q-196.8 -182.7 -196.75 -179.1 -196.7 -173.95 -196.8 -172.95 -197.3 -165.3 -203.0 -161.6 L-210.0 -161.35 Q-213.75 -163.75 -215.0 -165.25 -216.25 -166.7 -216.25 -168.6 -210.0 -180.25 -203.25 -180.85 L-202.0 -182.1 Q-206.5 -185.9 -206.5 -188.25 -206.5 -190.75 -206.25 -190.85 -205.05 -190.9 -200.0 -192.55 -193.95 -194.55 -190.85 -195.2 -179.0 -197.8 -179.0 -190.5 L-179.05 -188.45 M-216.2 -100.55 Q-213.95 -100.6 -210.9 -99.2 -212.65 -100.85 -213.35 -103.85 -214.15 -107.2 -213.6 -110.4 -213.6 -113.3 -210.35 -115.0 -207.2 -116.65 -203.15 -116.25 -198.8 -115.85 -196.0 -113.1 -192.75 -109.9 -192.75 -104.4 -192.75 -102.2 -196.6 -99.7 -200.7 -97.1 -205.0 -97.1 L-207.75 -97.4 Q-205.8 -96.15 -204.25 -94.5 -201.35 -91.4 -201.35 -88.55 -201.35 -86.95 -201.5 -86.5 -201.9 -85.25 -203.5 -85.25 -207.15 -85.25 -212.5 -88.3 -215.1 -89.8 -216.35 -91.15 -217.6 -90.05 -220.0 -88.9 -224.8 -86.5 -228.0 -86.5 L-230.65 -86.8 Q-231.85 -83.8 -234.5 -79.85 -240.75 -70.6 -249.5 -70.6 -253.55 -70.6 -257.0 -72.35 L-257.25 -72.35 Q-262.35 -72.35 -264.25 -78.5 -265.15 -81.55 -265.1 -84.85 -265.1 -89.1 -260.65 -92.5 -256.85 -95.45 -250.9 -97.0 -245.4 -98.5 -241.2 -98.05 L-238.55 -97.45 Q-234.35 -99.6 -229.3 -101.0 -218.3 -104.1 -216.2 -100.55 M-167.0 -135.5 Q-167.0 -139.8 -160.6 -152.5 L-160.25 -152.85 Q-155.25 -158.05 -155.25 -161.5 L-155.25 -162.55 Q-149.3 -173.55 -148.0 -174.35 L-140.5 -174.1 Q-135.7 -170.95 -134.3 -169.2 -133.0 -167.55 -133.0 -164.85 -133.0 -161.95 -137.35 -159.8 L-138.8 -159.15 -140.0 -160.1 Q-146.45 -162.7 -150.6 -159.2 L-150.75 -159.2 Q-155.5 -158.45 -155.5 -154.25 L-155.25 -152.15 -155.15 -151.9 -155.55 -149.95 -155.55 -140.95 Q-153.45 -146.7 -148.7 -147.6 -143.95 -148.5 -143.6 -149.55 -142.35 -151.15 -138.85 -150.75 -136.75 -150.5 -135.2 -149.6 L-134.55 -149.15 -133.0 -149.4 -132.7 -149.4 -127.65 -143.9 -124.55 -140.6 -124.7 -140.05 -124.75 -139.95 -127.6 -141.05 Q-133.7 -142.65 -135.1 -137.1 L-142.25 -135.85 Q-142.05 -135.2 -142.6 -133.35 -143.25 -131.0 -144.65 -129.0 -148.7 -123.1 -156.5 -123.1 -158.45 -123.1 -159.7 -124.2 L-161.0 -124.1 Q-166.05 -124.1 -167.05 -129.65 -167.5 -132.45 -167.0 -135.5 M-177.25 -77.85 Q-177.25 -75.95 -178.05 -74.25 L-175.5 -74.05 Q-171.0 -73.35 -168.1 -70.55 L-166.75 -69.0 -166.85 -71.25 Q-166.85 -71.9 -164.95 -76.05 -163.6 -79.55 -163.25 -82.9 -166.3 -82.1 -170.25 -82.1 -175.5 -82.1 -179.45 -83.55 -181.4 -84.3 -182.75 -85.1 L-182.75 -85.15 -183.35 -85.4 -183.65 -84.3 -182.0 -83.65 Q-177.25 -81.45 -177.25 -77.85 M-173.75 -15.25 Q-184.35 -15.25 -184.35 -28.5 -184.35 -32.55 -181.25 -35.15 -175.75 -39.75 -161.5 -39.1 -159.75 -38.75 -158.7 -37.35 -157.85 -36.25 -157.85 -35.5 -157.85 -33.95 -161.1 -30.25 -164.55 -26.35 -164.85 -25.0 -165.55 -21.7 -166.55 -19.85 -169.05 -15.25 -173.75 -15.25 M-68.0 -150.1 L-66.7 -149.2 -66.0 -148.85 Q-63.4 -150.55 -63.05 -151.75 -62.8 -151.55 -61.95 -151.3 -58.35 -150.2 -47.5 -155.6 -53.5 -157.7 -58.55 -157.3 -66.1 -156.7 -68.0 -150.1 M-151.65 -165.5 L-151.8 -165.1 -151.7 -165.15 -151.65 -165.5 M-21.2 -69.2 L-18.85 -64.75 Q-17.05 -61.15 -12.65 -54.55 -14.75 -58.5 -17.0 -64.5 L-20.65 -75.15 Q-21.7 -73.6 -22.7 -72.4 L-21.2 -69.2 M-114.4 24.9 Q-103.5 23.25 -103.5 34.5 -103.5 35.85 -105.15 38.4 L-102.55 38.6 Q-97.65 39.25 -95.1 40.75 -93.35 43.25 -92.9 45.05 -92.5 46.45 -92.5 49.3 -92.5 52.5 -97.5 56.05 -104.05 60.75 -114.75 60.75 -121.95 60.75 -128.05 56.75 L-128.95 58.45 Q-130.9 62.0 -131.1 64.55 -131.3 67.2 -136.6 69.6 -141.9 72.05 -147.5 72.05 -159.7 72.05 -165.25 65.8 L-166.55 64.15 Q-168.65 66.35 -172.95 69.3 -181.65 75.25 -187.5 75.25 -196.05 75.25 -200.9 69.3 -204.25 65.15 -204.25 61.85 L-204.2 59.4 Q-204.05 58.5 -203.7 57.95 -203.35 52.85 -197.1 49.3 -194.35 47.7 -190.95 46.65 -196.7 45.0 -198.85 39.25 -200.0 36.25 -200.0 29.6 -200.0 24.95 -193.85 20.6 -187.75 16.35 -180.25 15.5 -171.9 14.6 -166.2 18.25 -160.5 21.85 -160.5 28.85 -160.5 35.85 -163.75 40.05 -167.0 44.25 -167.9 45.05 L-167.75 45.1 Q-165.45 45.6 -163.9 46.35 -162.65 44.65 -158.6 42.0 -152.05 37.7 -147.5 39.05 -142.45 39.85 -138.35 41.2 L-135.7 42.2 Q-135.45 39.75 -133.7 36.8 L-133.65 36.65 Q-133.05 34.85 -132.25 33.65 -132.15 32.45 -131.6 31.4 L-132.25 30.0 -136.25 30.05 Q-146.85 30.05 -149.6 27.0 -150.55 25.95 -150.6 24.5 L-150.6 19.1 Q-150.75 15.15 -147.55 12.65 -144.35 10.1 -137.0 10.15 -129.65 10.25 -126.25 15.4 -122.9 20.55 -121.55 24.0 -121.0 25.55 -121.2 26.65 -117.8 25.4 -114.4 24.9" fill="#616161" fill-rule="evenodd" stroke="none"/>
    </g>
  </defs>
</svg>
