<?xml version="1.0" encoding="UTF-8" standalone="no"?>
<svg xmlns:ffdec="https://www.free-decompiler.com/flash" xmlns:xlink="http://www.w3.org/1999/xlink" ffdec:objectType="frame" height="499.45px" width="496.15px" xmlns="http://www.w3.org/2000/svg">
  <g transform="matrix(1.0, 0.0, 0.0, 1.0, 270.5, 376.7)">
    <use ffdec:characterId="170" height="434.6" transform="matrix(1.0, 0.0, 0.0, 1.0, -267.45, -343.1)" width="489.1" xlink:href="#shape0"/>
  </g>
  <defs>
    <g id="shape0" transform="matrix(1.0, 0.0, 0.0, 1.0, 267.45, 343.1)">
      <path d="M186.8 -211.9 L188.6 -209.45 Q191.05 -205.8 191.05 -203.75 191.05 -194.55 187.15 -188.75 182.25 -181.55 170.6 -177.5 L170.8 -176.0 Q170.8 -173.25 167.25 -170.75 163.05 -167.75 156.5 -167.75 151.4 -167.75 150.05 -171.65 149.65 -172.9 149.65 -174.2 146.95 -168.0 136.5 -168.0 130.75 -168.0 128.05 -174.05 126.7 -177.1 126.5 -180.25 126.5 -185.15 130.2 -188.35 133.55 -191.2 138.4 -191.65 143.2 -192.05 146.55 -189.8 150.25 -187.3 150.25 -182.5 L150.45 -180.9 Q151.85 -186.0 156.4 -188.75 158.9 -190.25 160.95 -190.05 161.95 -189.95 162.5 -189.45 L168.5 -193.0 171.25 -194.6 Q167.55 -194.35 160.05 -196.75 L154.7 -198.65 Q154.4 -199.75 151.95 -201.35 L149.8 -202.35 Q149.8 -199.4 147.0 -197.0 142.65 -193.25 133.0 -193.25 122.35 -193.25 117.0 -204.1 114.35 -209.55 113.8 -214.8 113.8 -218.2 114.4 -219.35 L114.25 -222.6 Q114.25 -228.9 118.2 -232.35 121.6 -235.35 126.9 -235.6 131.25 -235.8 134.75 -234.2 L134.75 -234.5 Q134.75 -240.05 135.0 -241.35 135.8 -246.05 139.25 -246.85 149.95 -249.4 159.5 -247.75 170.0 -245.9 174.5 -239.5 182.85 -229.25 184.55 -226.1 187.0 -221.5 187.0 -214.15 L186.8 -211.9 M31.75 -329.85 Q31.75 -323.05 31.25 -320.85 29.45 -313.1 22.75 -313.1 17.4 -313.1 12.75 -316.25 12.45 -314.15 10.0 -311.5 L8.3 -309.9 8.3 -309.5 Q8.3 -307.1 5.55 -302.0 4.0 -299.1 2.1 -297.35 L2.15 -297.3 Q6.0 -293.75 6.0 -286.9 6.0 -283.25 4.0 -278.1 1.15 -270.85 -3.5 -270.85 L-7.45 -271.2 -9.25 -271.4 -11.85 -268.65 Q-16.35 -263.9 -18.0 -263.0 L-22.0 -263.0 Q-23.5 -263.75 -25.0 -268.65 -25.0 -275.1 -23.6 -277.5 -22.2 -279.85 -18.45 -282.35 -18.3 -287.5 -16.4 -291.4 L-17.25 -291.35 Q-22.05 -291.35 -23.25 -295.1 L-23.5 -299.4 Q-23.5 -307.35 -17.85 -314.35 L-14.35 -318.05 Q-15.3 -318.8 -16.0 -320.0 -16.95 -321.65 -17.25 -323.35 -17.25 -330.55 -12.95 -335.9 -9.15 -340.6 -3.5 -342.3 2.0 -344.0 5.95 -342.0 8.05 -340.9 9.15 -339.05 13.0 -340.5 18.0 -340.5 25.9 -340.5 29.55 -335.5 31.75 -332.55 31.75 -329.85 M25.2 -298.15 Q28.55 -296.9 28.55 -294.3 28.55 -290.45 27.8 -290.0 L20.1 -289.35 16.95 -288.7 13.75 -288.1 Q8.55 -288.1 7.3 -289.45 7.0 -289.85 7.0 -291.75 7.0 -294.7 10.35 -296.7 13.35 -298.5 17.8 -298.9 22.1 -299.3 25.2 -298.15 M56.75 -254.65 Q56.75 -259.9 58.75 -262.65 62.4 -267.75 73.0 -268.0 87.45 -264.1 92.55 -258.85 96.05 -255.2 96.05 -249.05 L95.75 -246.65 97.45 -247.0 97.65 -247.05 97.3 -248.5 97.25 -253.75 Q97.25 -260.7 100.95 -264.85 104.35 -268.6 109.15 -268.4 114.0 -268.25 117.3 -263.95 121.0 -259.1 121.0 -250.8 121.0 -240.25 110.0 -240.25 L107.05 -240.4 107.25 -238.0 Q107.25 -236.05 104.05 -233.9 100.15 -231.25 94.5 -231.25 89.1 -231.25 87.75 -235.65 87.1 -237.8 87.5 -239.75 87.5 -242.7 89.05 -244.1 86.6 -244.25 84.1 -245.15 81.2 -246.25 78.0 -246.25 74.1 -246.25 72.1 -245.0 70.1 -243.75 66.75 -243.75 59.3 -243.75 57.3 -249.15 56.3 -251.85 56.75 -254.65 M34.8 -272.85 Q28.95 -268.6 24.0 -268.6 18.05 -268.6 16.8 -272.5 16.2 -274.45 16.75 -276.55 16.75 -279.95 20.5 -283.1 25.25 -287.1 33.25 -287.1 37.6 -287.1 39.25 -283.0 L40.05 -278.65 Q40.05 -276.7 34.8 -272.85 M19.45 -250.7 Q23.25 -247.35 23.25 -242.9 L23.2 -241.35 25.9 -240.75 Q31.0 -239.35 32.2 -237.55 34.65 -236.1 36.35 -233.3 38.9 -229.05 39.25 -223.2 39.45 -224.55 39.85 -225.3 L39.7 -226.05 Q39.55 -227.05 39.55 -231.4 39.55 -238.75 42.1 -241.5 44.4 -243.95 47.8 -241.95 51.1 -240.0 53.45 -234.95 56.0 -229.3 56.0 -222.4 56.0 -221.5 55.2 -220.15 L55.25 -218.75 Q55.25 -216.65 52.25 -212.3 56.45 -215.15 61.95 -216.0 69.4 -217.25 74.75 -214.25 80.55 -211.0 80.55 -204.3 80.55 -201.6 76.45 -199.0 71.25 -195.7 62.25 -195.35 59.85 -195.3 56.45 -191.0 L55.85 -190.25 Q58.05 -188.65 59.55 -186.15 62.05 -181.95 62.05 -177.5 62.6 -170.0 61.25 -163.25 58.5 -149.85 48.75 -149.85 43.4 -149.85 39.35 -150.85 39.8 -150.3 39.8 -149.5 39.8 -147.1 37.35 -143.1 34.7 -138.85 31.0 -137.95 L30.4 -135.05 29.8 -132.05 Q29.8 -128.9 29.95 -128.35 L32.1 -124.3 Q36.55 -123.25 37.75 -121.0 39.05 -118.4 39.3 -115.9 L39.3 -110.85 Q39.3 -104.05 33.0 -98.5 29.55 -95.45 24.8 -93.6 L28.2 -92.05 Q33.25 -89.35 35.05 -86.1 36.85 -86.35 39.0 -86.1 44.75 -83.4 49.95 -74.15 52.15 -70.25 53.35 -67.0 56.45 -70.9 60.95 -73.9 L61.8 -74.45 61.55 -75.45 Q60.95 -78.45 61.0 -81.55 61.0 -85.35 64.2 -89.5 67.0 -93.1 71.25 -95.75 L74.1 -97.3 Q72.85 -99.5 72.1 -102.7 70.95 -107.5 71.05 -112.1 71.05 -116.3 74.75 -119.75 78.35 -123.1 82.95 -123.55 87.9 -124.05 91.1 -120.55 94.8 -116.45 94.8 -107.85 94.8 -104.15 92.5 -100.0 91.2 -97.6 89.4 -96.05 91.8 -95.05 94.75 -93.0 L96.8 -91.5 102.3 -89.85 104.7 -89.0 Q103.5 -91.9 103.55 -95.0 103.55 -105.3 107.75 -108.45 L108.85 -109.1 108.05 -109.9 Q107.75 -110.3 107.75 -111.65 107.75 -114.55 111.5 -116.8 115.25 -119.1 115.25 -121.9 115.25 -124.4 118.35 -125.7 121.15 -126.8 125.15 -126.45 129.2 -126.1 131.95 -124.35 135.05 -122.45 135.05 -119.55 135.05 -118.5 134.35 -117.85 L134.15 -117.7 136.45 -114.3 140.75 -119.75 Q146.4 -126.55 146.8 -128.0 147.2 -129.35 147.25 -131.9 L147.35 -134.05 Q145.25 -134.45 144.3 -137.6 143.75 -139.4 143.75 -141.0 143.75 -142.35 144.0 -143.4 L140.0 -139.1 136.0 -139.1 Q131.35 -143.0 130.05 -145.1 128.75 -147.15 128.75 -150.65 128.75 -153.3 131.35 -155.4 133.8 -157.4 137.05 -157.65 139.65 -157.85 141.55 -156.7 141.9 -157.65 142.55 -158.6 144.25 -160.95 147.25 -159.8 150.35 -161.5 153.4 -162.45 167.05 -166.7 167.05 -153.4 L167.05 -151.55 Q166.85 -150.35 165.55 -149.5 162.75 -147.75 154.05 -147.35 L155.8 -146.6 Q159.65 -144.7 162.55 -141.45 163.45 -142.4 165.4 -143.15 168.8 -144.45 173.3 -144.4 178.1 -144.3 181.2 -142.65 184.8 -140.75 184.8 -137.25 184.8 -133.25 184.0 -131.25 182.35 -127.1 177.5 -127.1 172.1 -127.1 167.7 -130.8 L167.8 -129.0 168.0 -127.25 Q168.05 -126.05 167.5 -125.25 166.15 -123.15 160.5 -122.9 L161.5 -121.1 Q162.5 -118.95 162.75 -116.95 167.2 -116.2 171.0 -112.15 173.7 -109.2 175.8 -105.7 175.95 -115.5 189.1 -106.8 193.95 -103.6 198.25 -99.35 L200.9 -96.45 201.55 -96.9 Q205.05 -99.2 209.75 -99.1 214.7 -99.0 217.9 -96.05 221.65 -92.65 221.65 -86.3 221.65 -82.9 218.45 -80.9 214.6 -78.5 206.65 -78.5 199.45 -78.5 197.9 -84.65 197.35 -86.9 197.55 -89.2 194.7 -89.7 190.95 -91.35 189.45 -92.0 188.4 -92.6 L182.9 -92.6 180.75 -93.1 180.8 -92.05 Q180.8 -90.1 178.95 -87.0 178.5 -84.75 176.05 -81.95 171.75 -77.0 164.5 -78.25 163.75 -78.85 163.2 -80.0 162.05 -80.5 161.55 -81.35 161.15 -82.05 161.3 -82.95 L161.5 -83.8 Q161.5 -86.45 162.7 -89.7 163.6 -92.2 164.9 -93.35 161.15 -95.0 157.8 -100.45 155.35 -104.4 154.5 -106.75 L153.6 -104.95 Q150.9 -100.1 146.75 -100.1 L142.55 -100.7 Q142.3 -99.6 140.55 -98.35 138.35 -96.85 135.75 -96.85 131.85 -96.85 127.95 -101.85 125.9 -104.5 125.2 -106.1 L121.0 -106.1 Q123.8 -104.1 126.35 -101.15 130.55 -96.25 130.55 -92.9 130.55 -89.25 129.75 -87.25 L129.7 -87.1 Q130.5 -86.05 130.5 -84.55 130.5 -82.2 129.7 -79.0 128.95 -75.9 128.0 -74.25 125.9 -70.5 118.35 -69.75 L113.55 -68.85 Q112.35 -68.35 111.8 -67.45 119.5 -63.9 120.0 -57.5 120.15 -54.0 119.0 -49.6 116.7 -41.0 107.5 -41.0 101.35 -41.0 98.3 -45.5 L97.45 -47.05 Q93.95 -43.6 90.5 -43.6 80.0 -43.6 75.0 -46.2 L74.85 -46.25 Q68.2 -42.5 59.5 -42.5 51.1 -42.5 45.8 -44.0 L45.6 -43.15 Q50.65 -42.65 56.75 -40.85 65.95 -38.15 71.9 -34.1 L72.6 -33.6 77.2 -34.75 Q84.75 -36.4 89.8 -35.6 L91.15 -35.3 91.85 -35.65 Q95.85 -37.35 100.75 -34.0 105.65 -30.65 110.35 -25.4 115.05 -20.2 115.05 -17.25 115.05 -13.4 113.5 -10.1 L112.2 -7.9 116.7 -9.9 Q122.25 -12.15 125.25 -12.55 126.1 -14.75 128.2 -17.2 131.7 -21.25 136.3 -23.75 139.2 -25.3 141.5 -25.55 L141.5 -25.65 139.8 -25.55 136.25 -25.35 Q128.45 -25.35 126.5 -31.75 126.05 -33.25 126.05 -39.25 126.05 -40.95 128.8 -42.45 131.35 -43.8 134.9 -44.4 L139.4 -44.75 138.75 -46.35 Q138.1 -48.5 138.0 -50.8 138.0 -52.55 141.05 -55.05 145.25 -58.5 151.5 -57.1 154.25 -56.6 157.05 -55.55 L156.75 -56.4 Q156.35 -57.8 156.25 -59.0 156.25 -65.7 161.2 -69.5 165.7 -72.95 172.1 -72.7 178.55 -72.45 182.95 -68.55 187.9 -64.2 187.9 -57.05 187.9 -53.5 184.4 -51.25 179.85 -48.3 169.9 -47.85 175.65 -43.15 175.65 -40.35 L175.65 -40.15 176.9 -39.65 Q179.0 -38.7 180.2 -37.6 L182.45 -38.8 Q187.3 -40.85 193.35 -40.75 200.0 -40.6 204.2 -37.7 209.15 -34.3 209.15 -27.75 209.15 -24.75 205.4 -21.35 200.15 -16.6 190.9 -16.6 183.45 -16.6 179.8 -19.35 178.8 -20.1 178.25 -20.8 176.35 -21.5 175.55 -24.2 175.0 -26.0 175.05 -27.9 175.05 -30.0 175.2 -30.45 L172.15 -32.25 Q171.4 -31.8 170.15 -31.6 L163.25 -31.35 157.0 -29.2 157.0 -27.55 Q157.0 -24.95 154.05 -21.35 151.9 -18.75 149.35 -17.75 151.45 -16.35 152.2 -15.15 153.4 -15.85 155.15 -16.35 160.85 -18.05 169.1 -17.5 177.4 -16.9 183.05 -14.35 189.4 -11.5 189.4 -7.35 189.4 -2.05 186.05 2.0 180.25 9.0 166.0 9.0 153.75 9.0 148.5 4.3 145.3 1.45 145.3 -2.0 L145.35 -3.7 Q143.5 -4.8 142.05 -6.75 L141.0 -8.85 138.5 -8.6 137.6 -8.6 Q133.65 -6.75 129.5 -6.75 L127.35 -6.9 125.05 -2.9 124.25 -1.6 Q127.25 -0.8 129.55 0.7 133.75 3.45 133.75 7.6 133.75 10.6 130.0 14.6 125.2 19.75 118.0 19.75 110.55 19.75 107.45 16.5 106.45 15.45 105.95 14.1 L105.95 14.05 104.55 17.0 Q101.55 22.55 96.5 22.55 90.15 22.55 87.55 20.5 84.9 20.1 83.75 17.5 L83.0 14.25 83.0 13.95 Q78.3 12.85 72.35 10.25 65.75 7.4 62.15 4.7 61.8 6.9 61.1 9.0 57.65 19.3 46.5 19.3 L35.5 18.45 34.6 19.3 33.05 20.8 32.8 22.6 32.35 26.25 31.9 35.1 32.65 34.5 Q38.1 30.4 46.0 29.0 53.85 27.65 59.3 29.8 65.35 32.15 65.35 38.0 65.35 44.4 62.1 54.05 57.15 68.75 48.25 68.75 41.35 68.75 38.3 67.35 L38.45 68.55 Q38.8 71.75 36.55 76.45 34.25 81.1 22.15 81.7 10.0 82.25 3.55 73.55 0.25 69.15 0.25 62.85 0.25 53.4 5.25 42.55 L5.95 41.1 Q-0.9 43.0 -9.65 43.0 -14.0 43.0 -18.15 41.25 L-18.2 41.25 Q-22.9 43.05 -31.4 43.05 L-36.85 42.55 -37.65 42.9 -41.1 44.4 -40.75 45.25 Q-40.3 46.55 -40.3 49.6 -40.3 51.55 -40.85 53.75 -35.5 49.75 -25.4 49.75 -9.9 49.75 -5.15 60.3 -2.8 65.65 -3.5 71.15 -3.5 76.95 -5.55 81.0 -9.7 89.3 -24.55 89.3 -39.4 89.3 -46.3 78.25 -53.25 67.15 -53.5 58.35 L-53.5 55.05 -58.9 55.5 Q-69.35 55.5 -72.4 50.45 -73.95 47.9 -73.4 45.25 -73.4 39.2 -67.4 34.7 -62.05 30.7 -54.15 29.35 -46.4 27.95 -40.9 29.9 -35.45 31.85 -34.95 36.35 -33.6 36.5 -33.2 37.5 L-32.4 37.55 Q-34.9 35.95 -35.7 32.05 -36.1 30.0 -36.0 27.5 L-35.8 25.35 Q-35.8 21.75 -28.85 18.45 -22.45 15.4 -14.65 14.5 -8.85 13.8 -3.25 15.1 L-3.5 10.5 Q-3.5 4.5 -1.95 -0.1 -7.1 5.3 -16.5 9.05 L-33.5 9.05 Q-49.1 3.9 -56.05 0.55 -57.55 4.0 -61.2 9.05 -68.0 18.4 -74.4 18.8 -80.35 24.75 -87.5 24.75 -95.75 24.75 -97.9 21.0 -98.5 19.95 -98.5 16.25 -98.5 12.7 -98.0 10.8 -96.9 6.55 -93.5 6.55 -89.3 6.55 -85.6 9.7 L-83.7 11.5 -80.6 8.5 -80.35 8.3 Q-82.55 4.15 -83.8 -9.25 L-84.3 -13.85 -84.75 -13.85 -90.55 -14.15 Q-88.25 -10.9 -88.25 -9.85 -88.25 -7.5 -88.75 -6.5 -89.75 -4.5 -93.0 -4.5 -100.2 -4.5 -104.75 -10.6 -108.0 -15.0 -108.0 -17.75 L-107.8 -20.9 -110.2 -23.1 Q-113.3 -26.3 -115.05 -30.15 -116.35 -33.05 -116.35 -34.75 -116.35 -36.95 -114.6 -41.0 L-117.05 -41.25 -118.35 -41.45 Q-118.7 -37.9 -120.0 -33.85 -122.9 -24.75 -129.0 -24.75 L-130.1 -24.8 -131.6 -23.35 Q-134.55 -20.75 -136.0 -20.75 -137.8 -20.75 -139.45 -21.25 L-140.25 -21.25 Q-146.2 -21.25 -148.1 -25.8 -149.05 -28.1 -148.85 -30.5 L-148.85 -30.75 Q-152.0 -37.05 -152.0 -40.55 -152.0 -41.8 -151.75 -41.1 L-152.0 -45.0 Q-152.0 -47.65 -150.4 -49.35 L-149.6 -50.05 -153.5 -55.0 -157.75 -60.9 -158.3 -61.0 -158.5 -61.0 Q-163.1 -61.0 -165.0 -64.75 -166.0 -66.75 -166.0 -68.85 -166.0 -71.7 -165.45 -74.75 -164.7 -78.75 -163.35 -80.85 L-160.5 -87.25 -159.9 -88.5 -161.0 -88.0 -162.8 -86.7 Q-166.0 -84.85 -173.5 -84.85 -179.95 -84.85 -183.3 -89.05 L-183.7 -88.65 -184.85 -87.45 -184.85 -86.55 Q-184.85 -85.2 -187.0 -84.25 L-187.6 -84.0 Q-185.25 -82.85 -183.5 -81.15 -181.05 -78.75 -180.6 -76.05 L-180.35 -76.0 Q-176.3 -75.6 -172.0 -74.15 -167.75 -72.7 -167.3 -68.75 -166.85 -64.85 -167.75 -62.85 -170.0 -57.75 -177.5 -57.75 -181.75 -57.75 -183.5 -58.65 L-183.85 -58.5 Q-186.45 -57.35 -190.0 -57.35 -195.6 -57.35 -198.6 -61.35 -200.6 -64.0 -200.6 -65.85 -200.6 -70.95 -195.9 -73.0 L-194.9 -73.35 -196.6 -75.25 -197.35 -76.3 -197.25 -75.35 Q-197.25 -72.55 -199.75 -71.35 -203.75 -69.5 -215.75 -69.5 L-217.35 -69.6 Q-214.75 -63.35 -214.75 -58.35 -214.75 -56.35 -216.4 -54.6 L-217.5 -53.65 Q-217.7 -52.35 -218.85 -50.5 -219.7 -49.2 -220.6 -48.55 L-220.6 -47.15 Q-220.6 -41.55 -223.6 -36.5 -229.05 -27.35 -242.0 -27.35 -255.35 -27.35 -259.4 -33.25 -261.4 -36.2 -260.75 -39.4 -260.75 -44.4 -259.05 -46.9 -256.45 -50.8 -248.0 -54.5 L-238.85 -54.8 -225.75 -53.25 -224.75 -53.0 -225.35 -54.05 Q-230.3 -54.7 -232.0 -61.1 -232.95 -64.7 -232.75 -68.6 -232.75 -72.4 -231.2 -75.15 -230.75 -80.05 -223.1 -81.3 L-222.3 -81.4 -219.4 -81.85 Q-218.5 -82.85 -216.85 -84.05 -211.65 -87.8 -205.0 -86.1 -202.4 -86.45 -199.65 -81.65 L-199.5 -81.4 -199.6 -82.55 Q-199.6 -84.75 -197.35 -85.5 L-197.7 -86.15 Q-198.4 -87.6 -198.35 -89.1 -198.35 -90.4 -196.5 -91.35 -193.95 -92.7 -189.0 -92.25 L-188.3 -91.95 Q-187.85 -94.05 -186.25 -96.15 L-186.5 -99.25 Q-186.5 -104.75 -184.55 -108.25 -181.2 -114.3 -172.5 -114.25 -161.45 -113.45 -156.55 -105.2 -154.5 -101.7 -153.8 -97.7 L-152.05 -96.0 Q-147.75 -91.75 -144.45 -86.85 -141.0 -81.8 -141.0 -79.5 -141.0 -75.3 -141.35 -73.85 -142.5 -69.35 -146.55 -69.0 -146.85 -66.5 -148.2 -65.1 L-148.1 -65.1 Q-137.0 -63.3 -137.0 -52.55 L-137.1 -50.15 -136.45 -50.6 Q-132.1 -53.3 -127.9 -55.35 -124.05 -57.25 -121.4 -58.05 -122.25 -60.1 -122.25 -62.8 -122.25 -67.5 -118.85 -72.1 L-118.6 -72.4 -119.7 -73.5 Q-121.25 -75.2 -121.5 -76.0 -123.0 -75.5 -124.75 -75.5 -132.35 -75.5 -135.1 -78.5 -136.4 -79.85 -136.5 -81.75 L-137.35 -83.9 Q-137.8 -85.65 -137.85 -87.5 -137.85 -91.55 -135.6 -93.6 -131.2 -97.5 -119.3 -94.0 L-119.25 -94.0 Q-114.6 -94.0 -110.7 -91.05 -107.65 -90.1 -105.0 -88.65 -101.2 -86.55 -99.65 -84.45 -94.5 -83.65 -89.2 -79.3 -85.25 -76.05 -83.35 -73.05 -76.6 -74.7 -68.2 -74.7 -60.0 -74.7 -53.9 -73.05 L-53.85 -73.15 Q-49.95 -77.55 -45.1 -81.25 L-42.9 -82.8 -44.15 -87.5 Q-45.4 -93.4 -45.75 -99.1 L-45.75 -100.7 -48.5 -102.85 -57.35 -110.35 Q-59.5 -112.3 -61.0 -114.65 -63.0 -103.95 -72.75 -100.25 -77.75 -98.3 -82.8 -98.45 L-82.5 -98.5 -84.55 -98.55 -85.0 -98.6 -85.0 -98.55 -86.1 -98.65 -87.0 -98.6 Q-96.4 -98.6 -99.75 -105.5 -101.45 -108.95 -101.25 -113.0 -101.25 -120.25 -100.7 -122.25 -99.65 -126.05 -96.9 -125.85 -96.5 -130.9 -93.9 -134.65 L-95.1 -134.5 Q-96.8 -131.7 -102.1 -127.0 -110.95 -119.25 -118.5 -119.25 -123.55 -119.25 -125.1 -121.85 -125.75 -122.9 -125.75 -124.85 -125.75 -130.85 -120.85 -136.2 -116.45 -140.95 -110.05 -143.35 -103.7 -145.7 -99.25 -144.25 -96.1 -143.2 -94.95 -140.35 -91.55 -141.85 -88.25 -141.85 L-86.75 -141.8 Q-86.75 -144.2 -86.55 -144.85 -89.85 -145.8 -92.75 -149.0 -96.5 -153.1 -96.5 -156.85 L-96.4 -160.2 -97.75 -160.0 Q-100.6 -160.0 -106.25 -166.25 -106.75 -166.2 -106.7 -169.35 -106.65 -172.55 -105.65 -173.85 -104.7 -175.2 -103.15 -180.6 L-102.25 -182.7 -102.65 -184.7 Q-103.35 -187.95 -103.35 -190.1 L-103.3 -190.55 Q-103.85 -190.3 -104.5 -190.0 -108.15 -188.35 -111.25 -188.35 L-112.8 -188.6 Q-118.4 -188.85 -122.0 -190.85 L-123.7 -192.0 -124.5 -192.0 Q-131.75 -192.0 -131.75 -197.15 -131.75 -200.55 -125.9 -198.7 -124.25 -198.2 -123.05 -197.6 L-120.65 -199.4 Q-117.15 -201.35 -112.55 -201.75 -107.6 -202.2 -104.45 -200.4 -100.75 -198.3 -100.75 -193.75 L-100.95 -192.85 -100.05 -192.55 Q-96.75 -190.8 -96.75 -184.9 -96.75 -180.9 -97.6 -176.15 -98.5 -171.2 -101.5 -168.3 -97.0 -167.45 -96.05 -166.65 L-95.3 -165.95 Q-93.0 -171.25 -86.5 -170.85 L-86.4 -170.85 -89.4 -174.65 Q-90.6 -176.6 -90.6 -180.05 -90.6 -190.15 -85.25 -195.95 -80.65 -200.9 -73.4 -201.75 -66.85 -202.5 -61.6 -199.75 -56.25 -196.95 -56.25 -192.4 -56.25 -187.4 -57.65 -186.0 -59.15 -184.55 -69.1 -180.0 -72.35 -178.5 -77.0 -174.7 L-81.45 -170.9 Q-79.2 -170.5 -77.55 -169.15 -76.1 -167.95 -75.6 -166.8 -68.9 -173.3 -54.0 -174.85 -46.75 -175.5 -44.6 -171.4 -43.75 -169.8 -43.75 -166.05 -43.75 -159.7 -48.95 -158.5 L-53.6 -158.0 -58.0 -157.25 -66.35 -152.45 -64.8 -152.6 -60.35 -152.2 -55.8 -154.4 Q-49.45 -157.2 -46.5 -156.75 -37.45 -153.85 -35.25 -147.8 -34.55 -145.95 -34.2 -142.7 -33.85 -139.2 -33.5 -138.0 L-30.45 -128.4 -27.45 -130.75 Q-24.45 -132.5 -22.5 -132.1 L-22.6 -134.0 Q-22.6 -138.75 -17.35 -141.4 -15.25 -142.5 -13.75 -142.15 -12.1 -141.8 -12.1 -139.85 -12.1 -138.55 -14.35 -131.15 -16.6 -123.6 -16.75 -120.75 -17.1 -113.3 -18.05 -109.7 -19.15 -105.7 -21.1 -103.9 L-20.05 -102.45 Q-18.25 -99.75 -17.3 -97.5 -14.8 -99.65 -11.3 -100.5 L-8.15 -100.95 -8.25 -102.4 Q-8.25 -109.15 -4.7 -112.1 -2.9 -113.6 -0.6 -113.9 L-0.6 -117.5 Q-0.6 -123.45 3.1 -130.6 L3.0 -133.75 Q3.0 -135.65 5.3 -137.85 4.4 -139.55 3.25 -142.25 L0.95 -147.8 Q-1.0 -146.1 -1.5 -146.1 -5.15 -146.1 -5.95 -148.5 -6.4 -149.7 -6.1 -151.1 -6.1 -153.65 -5.35 -154.65 L-3.45 -156.45 Q-6.8 -157.05 -8.75 -159.5 -9.6 -160.55 -9.95 -161.55 -13.95 -159.75 -17.75 -159.75 -27.8 -159.75 -31.25 -168.5 -33.0 -172.9 -32.75 -177.85 -32.75 -182.15 -28.5 -186.1 -24.25 -190.1 -15.5 -189.85 -7.3 -188.3 -4.55 -184.2 -2.95 -181.75 -2.75 -178.05 -1.65 -181.65 0.95 -185.45 L1.75 -186.5 Q-0.9 -187.05 -1.6 -189.75 -2.05 -191.45 -1.75 -193.5 -1.75 -196.75 0.25 -199.5 -12.65 -199.9 -19.2 -204.0 -23.15 -206.45 -24.0 -209.25 L-24.25 -209.25 Q-37.5 -209.25 -43.1 -216.5 -46.6 -221.0 -46.6 -227.0 L-46.3 -231.2 Q-48.9 -232.05 -51.1 -233.95 L-51.55 -234.35 -51.5 -232.3 Q-51.5 -228.1 -53.3 -226.2 -54.95 -224.5 -59.1 -222.95 L-60.1 -221.25 Q-61.2 -219.55 -62.2 -218.9 L-62.05 -218.6 Q-71.9 -210.0 -83.0 -210.0 -89.35 -210.0 -91.0 -214.1 -91.5 -215.3 -91.5 -219.0 -91.5 -239.75 -75.75 -243.45 L-71.55 -244.1 -71.0 -244.1 -70.45 -244.2 Q-67.15 -244.45 -63.1 -244.3 L-59.1 -244.1 Q-55.35 -243.55 -52.85 -241.85 L-52.45 -241.55 -52.5 -244.9 Q-52.5 -245.5 -49.8 -248.85 -46.85 -252.5 -43.8 -255.4 L-41.85 -257.15 -41.85 -258.3 Q-41.85 -260.15 -40.85 -262.45 L-39.1 -266.35 -39.1 -266.75 -39.55 -266.15 Q-39.95 -265.75 -40.75 -265.75 -42.1 -265.75 -42.95 -266.35 -43.55 -265.4 -44.8 -264.15 -47.3 -261.7 -49.0 -262.1 L-52.5 -262.1 Q-54.5 -263.1 -55.05 -265.55 L-55.25 -268.9 Q-55.25 -271.9 -54.3 -274.4 -53.3 -277.05 -51.4 -278.6 L-51.25 -279.5 Q-51.25 -280.35 -51.9 -280.6 L-56.75 -281.1 Q-61.15 -281.1 -64.4 -279.2 -67.3 -277.05 -68.5 -276.5 L-72.0 -276.5 Q-75.05 -278.3 -75.75 -280.15 L-76.0 -283.5 Q-76.0 -288.25 -71.6 -293.05 -67.75 -297.25 -62.35 -299.45 -57.0 -301.65 -53.75 -301.65 L-49.0 -301.5 Q-44.6 -300.8 -42.65 -297.55 -41.3 -295.35 -41.1 -289.35 L-39.5 -286.9 Q-38.25 -284.7 -38.25 -283.5 -38.25 -280.35 -39.15 -276.85 -39.65 -274.95 -40.3 -273.75 -39.1 -273.45 -37.65 -272.6 -30.8 -268.5 -30.6 -261.15 -26.6 -262.05 -21.5 -262.0 -9.45 -259.15 -3.65 -255.75 L-0.65 -253.6 Q0.2 -254.9 2.7 -255.4 6.3 -256.1 11.1 -254.9 16.15 -253.55 19.45 -250.7 M21.65 -234.6 L21.0 -235.75 Q20.3 -237.1 19.75 -238.5 14.8 -237.8 10.3 -239.9 6.0 -240.2 3.5 -241.85 L3.0 -241.1 Q0.7 -237.85 -3.25 -237.85 -5.7 -237.85 -7.4 -238.6 L-8.15 -238.1 Q-15.75 -232.85 -26.5 -232.85 L-30.15 -233.0 -24.15 -228.25 -17.5 -222.45 Q-16.3 -228.35 -11.75 -231.85 -6.4 -236.0 2.0 -235.9 9.7 -235.9 15.75 -232.6 18.25 -231.25 19.8 -229.65 19.9 -232.35 21.3 -234.2 L21.65 -234.6 M16.35 -207.35 Q18.8 -205.3 18.8 -202.85 L18.75 -198.35 Q18.0 -195.5 15.0 -194.95 L13.85 -190.85 Q12.35 -185.35 12.05 -181.35 11.8 -177.6 9.15 -173.9 L6.95 -171.4 Q10.0 -169.0 10.0 -158.55 L8.9 -153.9 Q17.3 -152.6 19.0 -146.5 19.6 -144.2 19.45 -140.25 19.3 -135.9 19.5 -134.85 L21.7 -134.65 23.8 -136.85 Q25.75 -138.75 27.25 -139.6 L27.25 -139.65 Q27.25 -149.25 33.55 -151.65 L35.65 -152.15 Q30.9 -154.25 28.55 -158.35 26.15 -162.65 26.75 -167.35 26.75 -174.25 29.8 -181.25 34.25 -191.35 43.25 -192.75 43.2 -194.2 43.3 -195.65 43.3 -201.9 46.5 -206.65 44.55 -205.6 42.5 -205.6 39.7 -205.6 38.35 -209.6 37.65 -211.6 37.55 -213.75 L37.55 -214.45 30.55 -217.25 27.25 -217.75 24.5 -217.85 Q23.3 -207.6 16.2 -207.5 L16.35 -207.35 M38.9 -218.5 L38.6 -218.1 38.95 -218.05 38.9 -218.5 M74.2 -223.75 L75.1 -222.0 74.9 -221.2 74.9 -221.15 74.7 -220.85 74.6 -220.75 74.25 -220.55 73.1 -219.85 71.55 -219.05 Q69.8 -217.85 66.85 -217.85 61.75 -217.85 59.4 -220.0 57.05 -222.2 57.3 -223.75 57.3 -226.85 59.95 -229.7 62.3 -232.2 65.8 -233.55 69.25 -234.9 71.65 -234.35 74.3 -233.7 74.3 -230.9 L74.65 -227.55 Q74.8 -225.85 74.2 -223.75 M76.5 -219.55 Q76.5 -220.95 76.85 -221.3 77.2 -221.65 78.8 -221.65 L93.05 -222.35 93.1 -225.45 Q93.5 -227.65 96.0 -228.25 100.65 -229.3 102.7 -223.7 104.0 -220.25 104.0 -216.1 104.0 -214.3 102.55 -212.0 100.25 -208.35 95.75 -208.35 91.15 -208.35 88.75 -211.25 87.5 -212.75 86.8 -214.6 85.35 -215.95 80.55 -217.35 76.5 -218.55 76.5 -219.55 M143.0 -219.6 Q142.4 -219.1 142.0 -217.6 L141.75 -215.6 Q141.75 -215.15 142.75 -213.35 143.9 -211.25 144.75 -211.25 145.5 -211.25 145.9 -211.55 L146.25 -211.85 146.3 -214.1 Q146.3 -215.1 144.85 -216.9 143.2 -219.0 143.0 -219.6 M117.0 -132.75 Q112.25 -130.5 106.5 -130.5 101.05 -130.5 98.65 -131.6 L98.5 -131.5 Q95.2 -128.25 89.75 -128.25 80.05 -128.25 76.35 -134.5 74.5 -137.6 74.5 -141.4 74.5 -144.3 75.85 -145.75 78.2 -148.35 85.0 -148.35 95.6 -148.35 99.25 -143.15 100.8 -140.9 101.05 -137.3 105.3 -138.1 108.5 -140.25 114.4 -144.2 118.3 -141.55 121.25 -139.5 121.25 -136.6 121.25 -134.8 117.0 -132.75 M146.75 -147.35 L145.3 -147.6 145.25 -146.15 Q145.85 -146.9 146.75 -147.35 M3.8 -11.05 L3.1 -8.45 4.4 -9.65 4.9 -10.05 3.8 -11.05 M201.8 -138.6 Q201.8 -140.95 203.75 -142.85 205.5 -144.6 208.0 -145.1 210.5 -145.65 212.2 -144.5 214.15 -143.2 214.15 -140.15 214.15 -137.95 212.3 -136.65 211.35 -135.95 210.1 -135.6 L210.25 -135.55 Q215.15 -133.75 215.15 -127.25 215.15 -117.8 201.1 -115.85 L190.95 -115.05 Q186.05 -114.65 185.4 -113.5 183.65 -115.15 183.65 -116.15 183.65 -121.85 188.55 -127.2 193.05 -132.1 199.4 -134.6 L203.25 -135.75 Q202.3 -136.15 201.95 -136.75 201.8 -136.95 201.8 -138.6 M177.6 46.4 Q180.05 52.05 180.05 58.0 180.05 62.8 177.85 66.25 173.55 73.0 162.25 73.0 L153.25 72.75 Q149.85 72.5 139.75 72.5 135.0 83.15 127.3 87.75 120.95 91.5 111.5 91.5 100.25 91.5 96.5 85.8 95.35 84.0 95.05 81.85 L95.0 80.0 Q95.0 74.4 99.7 69.55 106.65 62.4 121.0 63.0 L121.0 62.75 139.9 62.75 139.5 60.25 139.05 55.0 Q139.05 53.5 140.4 50.5 142.15 46.55 145.0 43.5 153.4 34.4 167.0 36.75 174.05 38.4 177.6 46.4 M124.5 45.8 Q122.85 47.05 119.0 47.05 115.15 47.05 112.8 45.2 110.4 43.35 109.7 41.5 109.0 39.65 111.55 37.95 113.9 36.35 117.15 36.3 120.5 36.25 122.7 37.95 125.25 39.95 125.25 43.6 125.25 45.25 124.5 45.8 M91.4 30.25 Q97.4 29.65 101.3 32.0 105.8 34.7 105.8 40.5 105.8 42.45 99.5 49.0 96.7 51.9 94.3 53.65 94.3 56.85 93.25 58.55 91.35 61.8 86.0 61.8 78.7 61.8 76.0 58.0 74.55 55.95 74.55 52.85 74.55 48.1 78.05 45.75 L78.05 45.5 77.5 44.05 77.0 40.5 Q77.0 36.65 81.5 33.65 85.7 30.8 91.4 30.25 M108.95 57.45 Q102.45 56.1 99.05 56.3 103.65 52.55 113.0 52.5 123.05 52.45 123.05 58.35 123.05 60.1 122.55 60.6 121.35 61.75 118.4 60.25 115.45 58.75 108.95 57.45 M-6.75 -297.6 Q-6.95 -299.35 -6.15 -301.45 -7.0 -299.75 -7.35 -299.6 -9.4 -298.6 -13.6 -298.2 -13.0 -297.25 -13.1 -295.85 L-13.1 -291.85 Q-10.65 -292.3 -9.05 -293.05 -7.45 -293.8 -6.9 -294.6 -6.55 -295.85 -6.75 -297.6 M-109.0 -274.8 Q-109.0 -272.4 -111.3 -268.9 L-112.65 -266.75 Q-114.0 -264.75 -115.3 -263.8 L-115.25 -263.0 Q-115.25 -260.95 -116.25 -257.7 L-117.2 -254.9 -111.05 -255.4 Q-101.6 -254.7 -101.6 -248.85 -101.6 -245.65 -104.85 -241.05 -108.2 -236.35 -112.1 -235.3 -112.4 -231.95 -113.75 -228.45 -115.6 -223.6 -119.0 -219.6 -121.6 -216.5 -123.55 -210.8 -125.7 -204.65 -127.5 -202.1 L-128.4 -202.2 -129.2 -202.45 -130.0 -202.35 Q-131.75 -202.35 -132.1 -204.55 L-132.1 -206.9 Q-132.1 -210.4 -128.2 -217.25 L-122.75 -226.6 -121.75 -228.9 Q-125.4 -226.75 -129.75 -226.75 -134.5 -226.75 -137.5 -230.2 -137.8 -227.9 -141.65 -224.75 L-144.9 -222.6 -151.9 -217.55 -163.6 -209.65 -164.0 -209.35 Q-167.35 -206.35 -169.25 -206.35 -170.15 -206.35 -171.1 -207.4 -172.55 -207.85 -173.75 -212.1 L-173.95 -212.55 -177.7 -213.5 -182.5 -214.75 -184.25 -214.25 Q-185.35 -213.75 -186.0 -213.75 -190.7 -213.75 -192.85 -216.2 L-193.0 -216.35 Q-194.1 -214.7 -195.9 -213.15 -202.25 -207.6 -213.5 -207.6 -224.2 -207.6 -228.0 -213.1 -229.95 -215.9 -229.75 -219.1 -229.75 -220.65 -228.2 -225.05 -226.3 -230.35 -223.7 -234.75 -216.2 -247.65 -207.5 -245.5 -195.4 -245.85 -190.45 -236.75 -188.75 -233.65 -188.0 -229.9 L-185.6 -230.55 Q-180.4 -231.55 -172.55 -230.5 -165.05 -229.5 -159.5 -227.3 L-157.85 -226.55 -156.25 -227.55 -156.85 -230.15 Q-157.35 -232.95 -157.35 -236.1 -157.35 -241.55 -156.7 -242.65 -154.9 -245.65 -147.15 -246.5 -148.9 -247.45 -150.6 -247.75 L-156.35 -248.5 Q-161.05 -249.2 -162.1 -249.85 -164.95 -251.7 -168.5 -252.95 -170.6 -254.05 -170.6 -257.1 -170.6 -262.3 -165.05 -263.65 -160.4 -264.8 -153.2 -262.95 -146.05 -261.15 -140.1 -256.65 L-139.25 -256.0 Q-136.95 -257.4 -133.8 -258.15 L-129.25 -258.7 Q-127.95 -261.3 -124.25 -263.9 L-123.15 -264.6 -124.5 -266.75 Q-126.35 -270.4 -126.35 -272.9 -126.35 -276.7 -123.65 -278.85 -121.25 -280.65 -117.65 -280.7 -114.25 -280.7 -111.7 -279.15 -109.0 -277.45 -109.0 -274.8 M-159.0 -274.0 Q-159.0 -278.45 -154.8 -280.35 -150.9 -282.05 -145.5 -280.8 -139.95 -279.55 -136.2 -275.9 -132.0 -271.7 -132.0 -265.9 -132.0 -264.3 -133.9 -263.1 -135.8 -261.85 -138.5 -261.85 -141.65 -261.85 -144.5 -262.6 -152.3 -262.65 -156.1 -266.2 -158.85 -268.8 -158.85 -272.25 L-158.75 -273.65 -159.0 -274.0 M-2.15 -244.3 L-2.4 -243.8 -1.75 -243.95 -2.15 -244.3 M-197.25 -258.0 Q-197.25 -262.7 -196.55 -264.25 -194.3 -269.05 -186.0 -268.85 -177.7 -266.1 -174.6 -261.95 -172.5 -259.15 -172.5 -254.8 -172.5 -252.25 -175.9 -249.35 -180.1 -245.75 -186.5 -245.75 -194.65 -245.75 -196.75 -251.8 -197.8 -254.85 -197.25 -258.0 M-162.65 -188.8 Q-142.2 -209.7 -142.2 -189.6 -142.2 -188.05 -144.2 -186.1 -146.8 -183.6 -150.55 -183.6 L-157.4 -185.6 -159.9 -186.35 Q-159.95 -184.15 -160.7 -182.65 -161.9 -180.25 -164.55 -180.25 -167.75 -180.25 -168.9 -182.2 -169.55 -183.2 -169.55 -184.35 -169.55 -187.6 -164.7 -188.55 L-162.65 -188.8 M-181.5 -190.3 Q-183.0 -187.7 -185.0 -187.25 L-185.7 -187.45 -189.5 -187.25 Q-190.35 -187.25 -194.45 -188.35 L-199.35 -188.95 -199.55 -188.8 -199.35 -184.1 Q-199.35 -183.45 -200.55 -181.8 -198.6 -180.65 -198.6 -177.35 -198.6 -171.85 -199.5 -169.1 -201.8 -162.0 -209.25 -162.0 -215.2 -162.0 -217.0 -165.75 -217.9 -167.6 -217.6 -169.5 -217.6 -172.65 -214.65 -176.05 -211.9 -179.2 -208.1 -181.0 L-207.4 -181.3 -207.0 -182.2 Q-206.25 -183.65 -206.25 -184.0 L-207.35 -186.0 Q-208.5 -187.9 -208.5 -189.25 -208.5 -191.5 -206.8 -192.25 -205.15 -192.95 -200.15 -193.25 -196.65 -196.55 -189.75 -197.15 -185.85 -197.5 -183.2 -196.45 -180.35 -195.3 -180.35 -193.0 -180.35 -192.25 -181.5 -190.3 M-162.2 -151.8 L-161.75 -152.95 -160.65 -153.9 -159.2 -155.25 Q-157.5 -156.35 -157.5 -153.6 L-157.55 -152.6 Q-156.75 -151.05 -156.35 -147.85 L-156.1 -142.2 Q-151.45 -148.75 -142.7 -149.75 -138.5 -150.25 -135.7 -148.7 -132.75 -147.05 -132.75 -143.65 -132.75 -141.9 -138.0 -138.65 -141.7 -136.35 -147.65 -138.0 -145.7 -132.55 -147.45 -129.85 -151.65 -123.5 -160.75 -123.5 -164.7 -123.5 -167.0 -128.35 -168.15 -130.8 -168.5 -133.4 -168.5 -141.25 -163.0 -150.5 L-162.2 -151.8 M-226.0 -102.5 Q-218.4 -104.55 -217.2 -98.15 -217.0 -99.7 -215.35 -99.9 -213.65 -100.1 -211.25 -98.8 -205.25 -95.45 -205.25 -90.05 -205.25 -87.75 -207.0 -87.75 -212.1 -87.75 -215.1 -92.25 -216.55 -94.35 -217.0 -96.0 L-217.0 -95.55 Q-217.0 -90.35 -224.3 -88.7 L-229.95 -87.55 Q-232.85 -86.75 -233.75 -85.35 L-234.65 -82.7 Q-235.4 -80.55 -236.8 -79.15 -241.25 -74.6 -254.0 -74.6 -263.85 -74.6 -266.55 -80.45 -267.85 -83.35 -267.25 -86.4 -267.25 -90.65 -263.35 -93.35 -256.9 -97.85 -240.3 -97.85 -238.3 -97.85 -233.7 -99.65 L-226.0 -102.5 M-213.35 -103.4 Q-214.85 -105.8 -214.85 -108.25 -214.85 -112.0 -211.8 -114.45 -208.95 -116.7 -205.1 -116.6 -201.05 -116.55 -198.4 -113.85 -195.35 -110.8 -195.35 -105.25 -195.35 -99.25 -205.0 -99.25 -210.8 -99.25 -213.35 -103.4 M-167.25 -25.35 L-167.1 -23.3 Q-167.05 -21.6 -168.55 -19.05 -170.05 -16.55 -176.85 -16.75 -183.65 -16.95 -184.65 -20.6 -185.65 -24.3 -185.5 -27.05 -185.5 -37.0 -173.1 -38.75 L-164.6 -38.45 Q-160.75 -37.5 -160.75 -35.85 -160.75 -33.9 -163.85 -31.75 -167.0 -29.55 -167.25 -25.35 M-153.25 -171.4 L-151.55 -172.95 Q-149.3 -174.25 -146.4 -174.05 -140.45 -173.6 -139.3 -168.4 -138.25 -166.6 -138.25 -164.15 -138.25 -162.4 -141.75 -160.6 -145.35 -158.75 -149.0 -158.75 L-152.6 -158.55 -157.15 -158.0 Q-158.7 -157.6 -158.45 -160.2 L-158.1 -164.0 Q-158.1 -167.8 -155.0 -170.25 L-153.25 -171.4 M-19.55 -78.5 Q-20.3 -77.35 -22.0 -75.4 L-21.75 -71.85 Q-21.75 -70.4 -23.4 -67.0 L-23.25 -66.75 -20.6 -62.75 Q-19.15 -60.7 -12.95 -53.6 L-12.9 -53.55 Q-12.3 -54.95 -11.2 -56.2 L-13.15 -59.35 Q-16.85 -66.0 -17.85 -71.25 L-19.35 -78.8 -19.55 -78.5 M-119.9 26.35 Q-117.1 25.15 -113.6 25.4 -104.4 26.1 -104.4 34.4 -104.4 35.6 -105.5 37.5 -96.3 37.55 -93.55 42.5 -92.55 44.3 -92.55 48.4 -92.55 50.55 -99.4 54.3 -107.05 58.5 -114.15 58.5 -121.1 58.5 -126.45 55.05 L-128.5 53.6 -130.75 57.7 Q-134.05 63.35 -134.05 63.95 L-134.15 64.8 -139.75 67.35 Q-143.05 68.7 -146.8 68.75 L-151.3 68.75 Q-160.15 68.75 -163.6 66.05 -167.1 63.35 -167.5 61.35 L-167.55 58.35 -167.5 56.75 Q-169.75 59.9 -172.1 62.55 -182.25 73.8 -192.65 73.8 -201.35 73.8 -203.7 67.8 -204.4 65.9 -204.45 63.6 L-204.3 61.6 Q-204.3 54.25 -200.4 50.55 -195.4 45.75 -183.65 44.35 L-189.45 42.85 Q-200.55 38.95 -200.55 30.6 -200.55 23.1 -194.7 18.55 -189.5 14.5 -181.85 14.1 -174.3 13.75 -169.0 17.1 -163.15 20.75 -163.15 27.15 -163.15 31.65 -165.95 36.55 -168.8 41.6 -173.65 43.45 L-173.65 43.75 -173.85 43.55 -174.75 43.8 -173.65 43.8 -173.65 44.0 -166.25 45.6 -164.35 46.1 Q-163.65 44.25 -162.05 42.55 -157.9 38.05 -149.65 38.05 -143.75 38.05 -135.45 43.8 L-132.9 45.6 Q-132.8 38.9 -128.25 32.1 L-130.95 29.55 -132.4 27.9 -143.65 28.75 Q-150.05 28.75 -151.65 25.25 -152.0 24.5 -152.05 21.7 L-152.3 19.3 Q-152.3 16.1 -148.8 13.45 L-147.65 12.5 Q-143.7 9.75 -137.95 9.95 -132.25 10.2 -128.55 12.55 -124.85 14.9 -124.4 18.45 L-123.9 22.5 -123.6 22.75 Q-121.75 24.3 -120.05 26.4 L-119.9 26.35" fill="#636363" fill-rule="evenodd" stroke="none"/>
    </g>
  </defs>
</svg>
