<?xml version="1.0" encoding="UTF-8" standalone="no"?>
<svg xmlns:ffdec="https://www.free-decompiler.com/flash" xmlns:xlink="http://www.w3.org/1999/xlink" ffdec:objectType="frame" height="499.45px" width="496.15px" xmlns="http://www.w3.org/2000/svg">
  <g transform="matrix(1.0, 0.0, 0.0, 1.0, 270.5, 376.7)">
    <use ffdec:characterId="175" height="437.9" transform="matrix(1.0, 0.0, 0.0, 1.0, -270.5, -354.45)" width="496.1" xlink:href="#shape0"/>
  </g>
  <defs>
    <g id="shape0" transform="matrix(1.0, 0.0, 0.0, 1.0, 270.5, 354.45)">
      <path d="M185.15 -224.1 Q185.4 -220.45 184.5 -217.75 184.0 -216.15 183.1 -214.85 182.35 -213.1 181.05 -211.3 176.55 -205.9 172.1 -202.05 L168.3 -197.6 168.85 -198.15 165.0 -193.25 Q163.6 -190.0 157.0 -190.0 153.1 -190.0 151.8 -193.75 151.15 -195.6 151.25 -197.5 151.25 -199.9 153.45 -201.35 155.35 -202.6 158.25 -202.65 160.55 -202.75 162.3 -202.0 L167.45 -202.3 Q171.4 -203.0 172.45 -204.45 L173.7 -206.3 Q174.55 -207.75 174.55 -209.8 L169.95 -209.1 Q168.05 -208.95 164.65 -209.95 161.2 -210.95 157.9 -215.75 L155.0 -215.5 Q150.65 -215.5 149.5 -218.5 148.95 -220.0 149.25 -221.5 149.25 -224.2 152.25 -224.65 L155.5 -224.8 Q154.65 -226.85 153.5 -228.35 144.2 -228.65 140.45 -234.35 138.8 -236.85 138.4 -240.2 137.0 -242.55 137.0 -247.35 137.0 -255.7 144.45 -257.5 151.15 -259.1 160.9 -255.1 170.55 -251.1 177.3 -244.0 184.75 -236.15 184.75 -228.1 L185.15 -224.1 M8.15 -347.9 Q16.8 -346.85 16.8 -339.35 L16.75 -336.2 16.1 -335.05 Q14.45 -330.05 9.45 -330.85 6.85 -331.25 4.25 -335.5 1.65 -339.7 -0.85 -340.1 -9.65 -340.05 -11.05 -340.3 -16.45 -341.15 -17.65 -345.3 -18.2 -347.2 -17.8 -349.85 -17.55 -351.5 -13.3 -353.45 -8.4 -355.6 -5.15 -353.1 -3.15 -352.15 -1.4 -349.25 L0.65 -346.5 2.2 -347.3 Q4.85 -348.3 8.15 -347.9 M19.65 -310.6 Q20.0 -310.35 20.0 -308.85 20.0 -306.9 18.3 -305.85 17.05 -305.1 16.0 -305.1 L12.65 -305.45 8.5 -305.6 8.15 -306.05 Q7.75 -306.5 7.75 -308.0 7.75 -311.4 12.3 -311.3 L19.25 -310.85 19.65 -310.6 M66.8 -271.65 Q70.05 -273.1 75.65 -274.4 81.25 -275.7 86.8 -273.5 92.35 -271.3 93.5 -269.1 94.3 -267.45 94.3 -266.75 94.3 -262.8 93.55 -261.95 91.7 -259.8 84.0 -260.05 79.9 -260.2 75.85 -257.2 71.65 -254.15 69.0 -254.15 63.1 -254.15 61.5 -257.95 60.7 -259.9 61.05 -261.9 61.05 -266.25 62.3 -268.2 63.55 -270.25 66.8 -271.65 M34.5 -287.0 Q34.5 -284.6 33.05 -283.65 30.7 -282.1 23.5 -282.1 21.45 -282.1 20.3 -284.15 19.5 -285.5 19.5 -286.35 19.5 -287.95 20.1 -289.2 20.85 -294.3 26.65 -294.2 29.15 -294.15 31.2 -293.0 33.25 -291.85 33.25 -290.35 L33.25 -290.3 Q34.5 -288.95 34.5 -287.0 M7.25 -255.4 Q7.25 -258.3 9.6 -259.2 L14.75 -259.05 Q17.75 -258.1 19.9 -256.05 22.25 -253.8 22.25 -251.3 22.25 -249.4 21.8 -248.7 20.95 -247.3 18.25 -247.3 12.3 -247.3 9.25 -250.95 7.25 -253.3 7.25 -255.4 M30.25 -248.5 Q37.0 -243.7 37.0 -240.5 37.0 -238.55 33.55 -236.8 33.25 -237.3 33.25 -236.05 L34.9 -234.05 Q36.55 -232.1 36.55 -231.15 36.55 -227.8 33.75 -227.8 27.25 -227.8 25.8 -230.45 25.55 -230.9 25.55 -234.0 25.55 -234.6 27.45 -237.9 29.5 -241.4 30.55 -242.05 29.15 -243.9 25.75 -245.65 23.5 -246.85 23.5 -249.4 23.5 -253.35 30.25 -248.5 M39.75 -226.8 Q40.2 -227.9 41.75 -227.9 45.2 -227.9 46.45 -227.1 L48.0 -225.4 Q49.0 -226.6 49.0 -228.05 49.0 -230.65 46.25 -231.5 43.45 -232.4 44.15 -239.45 44.8 -246.55 49.55 -244.25 54.25 -242.0 54.9 -238.0 L55.5 -232.85 Q55.5 -228.3 55.0 -225.95 53.7 -219.8 49.5 -219.8 L49.2 -219.8 49.05 -219.7 Q48.0 -218.85 46.1 -218.75 L42.05 -219.25 Q39.95 -219.8 39.55 -222.1 39.4 -223.25 39.5 -224.55 39.5 -226.2 39.75 -226.8 M17.8 -227.45 Q18.25 -223.4 14.95 -221.15 11.65 -218.9 10.9 -218.25 13.4 -218.1 14.55 -216.45 L15.3 -214.5 Q15.3 -207.65 6.75 -207.65 4.05 -207.65 -3.3 -210.05 -9.55 -212.1 -13.25 -213.8 -17.8 -215.9 -19.3 -218.05 L-26.25 -218.55 Q-33.1 -218.55 -37.2 -225.55 -40.1 -230.4 -40.1 -233.4 -40.1 -237.45 -37.0 -238.9 -33.5 -240.5 -30.5 -233.4 -27.4 -228.5 -18.35 -224.4 -17.55 -227.05 -9.85 -230.0 -12.05 -231.25 -12.1 -232.8 L-12.2 -237.2 Q-12.25 -240.0 -8.8 -240.8 -5.4 -241.65 1.2 -239.75 7.75 -237.9 12.55 -234.7 17.3 -231.5 17.8 -227.45 M8.35 -202.4 L6.8 -202.2 3.75 -201.8 Q3.25 -202.3 3.25 -201.05 3.25 -200.1 6.55 -197.0 9.8 -193.95 9.8 -190.4 9.8 -187.1 8.4 -185.2 L2.5 -178.9 1.8 -179.15 Q1.85 -180.2 3.7 -183.25 5.5 -186.3 5.5 -187.6 5.5 -189.85 3.7 -191.05 1.85 -192.3 1.8 -195.4 -1.0 -195.6 -1.75 -197.5 L-2.0 -199.75 Q-2.0 -203.45 -1.35 -204.4 0.5 -207.3 7.75 -207.3 10.9 -207.3 13.5 -205.8 15.75 -204.5 15.75 -203.3 15.75 -202.1 14.8 -201.4 13.75 -200.65 11.75 -200.65 9.8 -200.65 9.05 -201.5 L8.35 -202.4 M77.55 -241.2 Q79.55 -239.4 79.55 -236.9 79.55 -235.1 78.75 -234.3 77.3 -232.8 73.0 -232.8 68.15 -232.8 67.0 -235.15 66.75 -235.7 66.75 -238.15 66.75 -241.05 68.75 -242.4 70.55 -243.6 73.15 -243.2 75.75 -242.85 77.55 -241.2 M56.8 -217.25 Q58.15 -220.5 63.15 -221.7 67.8 -222.9 73.2 -221.9 78.75 -220.85 81.55 -218.1 84.8 -214.9 83.0 -210.65 82.05 -208.2 80.6 -206.45 79.2 -204.7 70.3 -208.0 61.4 -211.25 57.7 -209.2 53.95 -207.2 55.1 -212.3 55.65 -214.8 56.8 -217.25 M125.8 -253.3 Q124.55 -250.05 120.0 -250.05 114.4 -250.05 110.05 -253.6 107.9 -255.4 106.8 -257.3 106.8 -264.55 109.85 -268.7 112.55 -272.45 116.55 -272.4 120.5 -272.4 123.25 -268.8 126.3 -264.8 126.3 -258.15 126.3 -254.55 125.8 -253.3 M99.7 -250.75 Q101.35 -251.4 103.8 -250.8 109.8 -249.2 109.8 -244.85 109.8 -241.05 107.0 -241.05 102.15 -241.05 99.55 -244.15 97.8 -246.25 97.8 -247.9 97.8 -250.0 99.7 -250.75 M96.3 -227.65 Q96.3 -232.7 100.4 -230.2 104.5 -227.65 104.5 -224.05 L104.4 -221.4 Q105.0 -219.35 104.9 -218.7 104.7 -216.3 101.25 -215.3 L101.2 -215.3 101.1 -215.25 100.95 -215.2 100.85 -215.2 98.75 -215.0 Q96.25 -215.15 94.7 -217.8 93.6 -219.7 93.25 -222.25 L96.35 -226.75 96.3 -227.65 M114.0 -236.7 Q117.65 -247.05 132.2 -240.2 134.75 -238.55 136.85 -236.1 140.75 -231.5 140.75 -226.6 140.75 -219.75 139.75 -217.0 137.4 -210.5 129.5 -210.5 118.5 -210.5 115.1 -222.45 112.5 -231.7 114.0 -236.7 M132.45 -203.7 Q134.5 -205.2 137.25 -204.75 140.15 -204.25 142.05 -201.8 144.25 -198.9 144.25 -194.25 L143.9 -191.55 Q143.5 -190.1 143.5 -189.0 L142.0 -188.6 139.0 -188.25 Q137.5 -188.25 133.8 -193.3 130.25 -198.1 130.25 -199.25 130.25 -202.15 132.45 -203.7 M132.5 -158.15 Q131.9 -159.5 132.25 -161.1 132.25 -164.1 133.25 -166.0 134.7 -168.75 138.0 -168.75 140.95 -168.75 142.5 -166.0 143.5 -164.2 143.5 -162.6 143.5 -155.5 138.5 -155.5 133.7 -155.5 132.5 -158.15 M153.95 -164.3 L152.8 -164.0 150.55 -163.3 147.0 -162.0 Q145.6 -162.55 145.55 -162.6 145.0 -163.1 145.0 -164.75 145.0 -169.7 149.55 -171.2 154.85 -173.0 164.0 -169.0 L163.25 -166.75 159.4 -166.0 Q158.1 -165.25 155.7 -164.95 L154.7 -164.6 153.95 -164.3 M90.1 -158.55 Q94.25 -157.8 97.15 -155.45 100.35 -152.85 100.35 -149.35 100.35 -148.65 99.8 -147.65 98.9 -146.05 96.85 -144.35 93.35 -142.9 88.85 -144.35 82.95 -145.75 81.4 -148.0 79.85 -150.3 79.85 -153.1 79.85 -156.5 83.05 -158.0 85.95 -159.3 90.1 -158.55 M115.1 -149.25 Q115.1 -147.0 113.1 -145.35 111.2 -143.85 108.85 -143.85 104.95 -143.85 103.9 -146.85 103.35 -148.35 103.6 -149.85 103.6 -151.5 105.4 -152.55 107.05 -153.55 109.35 -153.55 115.1 -153.6 115.1 -149.25 M118.35 -130.85 Q118.35 -133.05 120.55 -134.4 122.5 -135.65 125.35 -135.65 128.2 -135.65 130.15 -134.45 132.35 -133.05 132.35 -130.6 132.35 -126.7 131.4 -124.75 129.8 -121.5 125.35 -121.5 120.0 -121.5 118.65 -126.5 117.95 -128.95 118.35 -130.85 M84.3 -133.3 Q86.8 -135.8 90.25 -135.4 93.8 -135.0 96.15 -131.75 98.85 -128.0 95.8 -123.55 L91.75 -117.65 Q90.7 -116.2 87.35 -117.1 84.0 -118.0 82.15 -121.45 81.6 -122.45 81.6 -126.0 81.6 -130.65 84.3 -133.3 M118.35 -113.45 Q122.3 -112.6 125.55 -110.65 128.85 -108.7 128.85 -107.1 128.85 -103.2 127.4 -100.75 125.5 -97.5 121.35 -97.5 L121.15 -97.5 118.4 -98.1 Q110.5 -100.15 108.55 -103.55 107.45 -105.5 107.85 -107.75 107.85 -115.7 118.35 -113.45 M158.35 -130.5 Q162.35 -128.75 162.35 -123.25 162.35 -121.6 161.15 -120.25 L160.6 -119.7 Q161.35 -118.75 161.35 -117.0 L162.85 -117.7 Q164.25 -118.25 165.85 -118.25 171.5 -118.25 173.6 -114.2 174.65 -112.15 174.6 -109.85 L174.5 -107.4 174.35 -105.75 174.55 -105.1 Q174.4 -104.5 172.85 -104.5 167.75 -104.5 162.6 -110.5 158.35 -115.4 158.35 -117.1 L158.55 -118.8 157.85 -118.75 Q155.9 -118.75 153.65 -120.75 151.4 -122.75 150.6 -122.75 L145.9 -119.35 140.85 -116.0 139.1 -116.05 137.35 -116.5 137.0 -117.15 Q136.6 -117.65 136.6 -119.1 136.6 -122.3 140.6 -125.7 144.45 -128.95 149.5 -130.4 154.85 -132.0 158.35 -130.5 M147.1 -146.5 Q147.1 -157.4 157.1 -149.0 162.1 -144.8 167.1 -138.25 167.1 -136.6 164.85 -135.6 163.1 -134.85 161.35 -134.85 154.8 -134.85 150.4 -140.1 147.1 -144.05 147.1 -146.5 M58.65 -179.3 Q57.75 -173.45 57.75 -169.85 57.75 -168.2 55.8 -167.4 53.45 -166.4 48.0 -166.4 37.65 -166.4 34.75 -170.15 33.8 -171.4 33.8 -174.65 L33.4 -186.25 Q33.5 -193.0 36.0 -197.15 42.9 -208.95 51.75 -202.45 54.95 -200.15 57.35 -196.15 59.55 -192.6 59.55 -190.65 59.55 -185.15 58.65 -179.3 M5.95 -174.3 Q8.05 -172.7 8.05 -171.8 8.05 -170.5 7.55 -169.55 6.7 -167.9 4.5 -167.9 L-0.5 -168.4 Q-3.8 -168.4 -4.9 -171.3 -5.4 -172.7 -5.25 -173.75 -5.25 -179.55 1.4 -176.95 3.85 -176.0 5.95 -174.3 M10.0 -164.0 Q10.0 -161.4 5.45 -160.15 -0.5 -158.45 -2.0 -157.05 L-2.8 -157.95 -3.0 -159.35 -0.1 -162.4 4.0 -165.9 Q5.85 -167.2 7.85 -166.7 10.0 -166.15 10.0 -164.0 M5.25 -158.55 L7.75 -158.9 15.5 -157.55 Q17.35 -157.55 18.9 -152.3 20.25 -147.75 20.25 -146.3 L20.0 -141.9 Q19.2 -138.5 16.25 -139.15 L16.0 -141.1 15.75 -143.1 Q15.75 -143.7 16.3 -144.6 L16.8 -146.1 Q16.8 -148.1 14.9 -149.15 L10.65 -150.45 Q4.5 -152.0 4.5 -156.5 4.5 -158.1 5.25 -158.55 M37.5 -153.05 Q35.4 -151.8 33.75 -151.8 31.75 -151.8 31.3 -153.25 31.1 -154.0 31.25 -154.85 31.25 -158.1 35.65 -159.45 40.0 -160.75 40.0 -156.4 40.0 -154.55 37.5 -153.05 M31.05 -136.35 Q34.0 -135.6 34.0 -131.3 34.0 -128.35 33.5 -124.85 32.95 -120.95 32.05 -118.9 30.8 -114.2 26.65 -111.8 22.45 -109.4 18.5 -109.45 L13.45 -109.8 12.0 -109.3 Q11.7 -105.0 11.05 -103.85 9.45 -101.1 4.8 -100.65 L4.9 -100.3 5.35 -100.35 Q8.65 -100.6 13.3 -98.75 18.0 -96.85 21.25 -93.95 L22.6 -92.6 23.6 -92.7 Q26.0 -92.55 29.6 -89.4 33.1 -86.4 35.6 -82.5 38.35 -78.25 38.35 -75.25 38.35 -70.6 37.6 -68.45 36.2 -64.45 31.85 -63.25 36.35 -60.05 36.35 -56.5 36.35 -52.0 35.7 -47.75 L41.1 -48.3 Q47.6 -48.0 52.6 -44.1 57.85 -40.05 57.85 -34.6 57.85 -29.7 55.05 -27.1 53.05 -21.6 45.85 -19.75 L38.35 -19.75 Q31.75 -21.55 29.25 -22.75 L30.9 -21.6 Q34.1 -19.2 35.1 -16.75 L44.35 -17.0 Q52.65 -17.0 58.1 -12.25 62.1 -8.8 62.1 -6.6 62.1 -4.8 61.0 -2.45 59.7 0.3 57.85 0.75 L48.35 1.0 Q43.25 1.0 38.65 -4.0 L35.2 -7.45 Q33.15 -9.0 30.85 -9.0 29.05 -9.0 24.55 -4.2 L21.7 -1.45 Q23.15 5.3 20.5 8.4 16.15 13.4 13.05 15.15 L13.1 16.25 Q13.1 17.45 12.2 20.65 L11.6 23.1 20.5 33.65 24.3 34.55 25.15 34.8 Q25.85 33.1 27.55 31.55 30.25 28.95 34.0 28.0 L36.45 27.6 Q36.9 23.95 37.95 19.8 56.75 9.4 61.25 30.9 L61.3 32.0 61.4 35.45 Q61.4 38.0 58.05 42.15 54.55 46.65 51.45 47.05 L50.9 47.5 Q48.45 49.5 46.35 49.5 40.95 49.5 38.15 42.1 L37.85 41.25 Q36.05 42.5 34.85 42.5 L28.1 42.25 27.2 41.25 26.85 41.25 29.2 44.2 Q31.35 47.15 32.3 50.7 34.9 60.8 27.05 65.65 9.55 71.15 2.8 58.5 2.45 52.9 0.75 47.45 -1.25 40.9 2.3 35.15 3.25 33.65 4.3 32.5 4.1 31.8 4.2 31.05 L4.7 27.8 Q4.85 25.85 4.0 24.5 L4.0 23.35 3.5 23.2 2.6 23.0 Q0.2 26.25 -3.0 26.25 -22.35 26.25 -27.55 21.25 -29.2 19.65 -29.25 17.65 L-29.0 15.6 Q-29.0 10.9 -23.7 8.75 -19.0 6.85 -12.0 7.4 -5.2 7.95 -0.3 10.4 2.8 12.0 4.1 13.85 L8.25 13.45 Q5.3 9.85 3.85 4.05 2.5 -1.35 2.5 -8.35 2.5 -14.2 5.75 -18.05 9.65 -22.65 17.4 -22.85 18.4 -24.15 19.95 -24.65 11.55 -25.7 6.0 -34.3 5.2 -35.55 4.55 -36.75 0.75 -38.95 0.75 -44.5 0.75 -45.45 0.9 -46.25 -0.25 -46.95 -0.7 -48.55 -1.15 -49.95 -1.0 -51.5 L0.75 -58.2 1.8 -62.1 Q0.65 -65.95 -1.75 -71.2 -7.5 -83.7 -7.5 -88.5 -7.5 -94.55 -4.25 -96.65 L-4.25 -96.7 Q-3.4 -99.4 -2.35 -101.35 -3.55 -101.85 -4.2 -102.7 -5.0 -103.65 -5.0 -105.65 -5.0 -108.35 -3.6 -110.65 -1.35 -114.3 3.5 -113.8 3.05 -116.55 3.45 -118.15 L3.25 -119.55 Q3.1 -121.7 3.25 -124.0 3.25 -124.7 3.75 -126.6 L4.25 -129.4 Q4.25 -130.35 4.8 -132.7 5.35 -135.05 5.55 -139.5 5.75 -143.95 8.4 -143.35 10.9 -142.8 12.9 -141.6 14.05 -141.45 14.95 -140.55 16.5 -139.0 16.5 -136.0 16.5 -132.0 15.75 -130.75 L15.75 -130.7 15.8 -129.5 Q15.8 -126.7 14.7 -124.95 13.55 -123.2 13.55 -121.05 13.55 -120.5 14.55 -119.35 L15.55 -117.85 16.25 -117.7 16.6 -117.6 Q15.05 -122.45 15.05 -123.3 15.05 -126.1 18.0 -129.55 20.8 -132.8 24.55 -134.8 28.45 -136.95 31.05 -136.35 M66.3 -80.7 Q71.0 -81.9 78.25 -80.9 85.05 -79.95 90.15 -77.7 93.15 -76.35 94.5 -75.0 95.15 -75.65 96.0 -76.1 98.9 -77.5 103.5 -76.2 107.7 -74.95 110.95 -72.1 114.35 -69.1 114.35 -66.25 114.35 -60.9 113.4 -59.5 111.35 -56.5 103.35 -56.5 97.35 -56.5 94.4 -63.0 L93.25 -66.05 Q89.95 -62.0 82.85 -62.0 76.55 -62.0 76.0 -66.3 75.75 -68.05 76.2 -71.0 72.25 -70.2 71.1 -69.6 70.95 -65.4 69.6 -62.0 66.85 -55.0 59.85 -55.0 53.2 -55.0 47.85 -59.9 44.1 -63.35 43.1 -66.25 L45.35 -66.75 49.8 -65.3 54.1 -64.25 58.6 -65.0 58.75 -67.4 Q57.5 -68.0 57.1 -68.95 56.85 -69.55 56.85 -71.25 56.85 -74.85 59.75 -76.95 L61.65 -78.0 Q62.9 -79.85 66.3 -80.7 M66.6 -93.75 Q66.6 -101.1 73.1 -101.85 78.5 -102.5 87.5 -98.7 95.0 -95.5 101.85 -90.75 108.35 -86.2 108.35 -84.5 108.65 -82.6 108.4 -81.55 107.85 -79.5 104.85 -79.5 103.8 -79.5 102.1 -80.3 101.35 -79.5 98.85 -79.5 92.5 -79.5 88.35 -83.0 85.35 -85.55 85.35 -87.0 L85.35 -87.15 76.35 -88.0 Q68.65 -88.0 66.9 -90.7 66.0 -92.1 66.6 -93.75 M76.25 -71.15 L75.6 -71.15 75.2 -71.15 76.25 -71.1 76.25 -71.15 M79.6 -33.75 Q81.05 -34.65 81.4 -36.65 81.8 -39.0 82.3 -39.6 84.7 -42.55 100.85 -40.25 106.65 -36.55 108.2 -33.0 109.1 -31.0 109.1 -25.85 109.1 -22.25 108.75 -21.15 108.3 -19.8 106.65 -19.5 L91.35 -19.75 Q89.15 -19.75 85.7 -17.25 84.25 -16.2 82.75 -15.6 L83.3 -15.3 Q87.1 -13.1 87.1 -10.75 87.1 -8.9 86.55 -7.55 L88.5 -8.2 103.75 -8.8 Q106.85 -9.4 108.35 -8.25 L108.75 -7.8 Q109.1 -7.45 109.1 -6.0 109.1 -4.7 105.9 -3.3 L106.15 -2.75 105.2 -2.6 Q104.55 -2.1 101.85 -1.35 L101.1 -1.15 101.1 -0.6 Q101.1 2.4 100.3 3.5 99.05 5.25 94.85 5.25 88.0 5.25 86.8 2.8 L86.6 2.15 Q85.45 1.55 84.9 0.6 84.4 -0.25 84.45 -1.35 L84.55 -2.05 79.5 -4.0 79.35 -4.0 Q72.45 -4.0 67.15 -8.45 L64.6 -10.85 63.1 -12.25 63.1 -13.1 62.85 -14.25 Q62.85 -17.4 66.65 -18.4 L67.45 -18.55 64.85 -21.05 Q60.6 -25.75 60.6 -28.25 60.6 -31.05 62.85 -33.5 65.35 -36.25 68.85 -36.25 L74.6 -35.2 79.6 -33.75 M159.25 -59.25 Q165.95 -57.9 172.05 -54.65 177.85 -51.5 177.85 -49.6 L177.6 -45.5 Q171.1 -43.3 166.7 -42.3 154.25 -39.65 153.2 -40.1 152.15 -40.55 151.4 -34.7 150.65 -28.9 145.0 -29.8 139.35 -30.75 133.65 -33.55 128.1 -36.2 128.1 -39.5 128.1 -44.2 132.25 -46.6 135.7 -48.6 140.6 -48.4 140.7 -56.05 146.4 -58.7 151.25 -60.9 159.25 -59.25 M158.9 -64.5 L159.1 -66.35 Q159.1 -80.0 172.35 -76.85 177.0 -75.75 181.45 -73.0 185.6 -70.4 185.6 -69.1 185.6 -65.3 182.85 -62.75 179.3 -59.5 171.85 -59.5 161.9 -59.5 159.65 -62.25 158.85 -63.15 158.9 -64.5 M110.6 -3.6 Q110.6 -8.4 114.25 -11.45 117.35 -14.1 122.25 -14.8 L126.95 -14.9 130.2 -14.15 Q133.85 -12.8 133.85 -10.1 133.85 -8.1 132.5 -5.35 L131.1 -3.0 Q127.4 2.75 121.85 2.75 114.9 2.75 112.1 -0.25 110.6 -1.85 110.6 -3.6 M145.35 -25.25 Q145.35 -23.0 143.8 -21.45 140.9 -18.45 133.1 -18.75 L131.95 -19.75 Q131.35 -20.5 131.35 -22.1 131.35 -24.75 135.25 -27.25 139.75 -30.15 145.1 -28.25 L145.35 -25.25 M156.3 -24.2 Q161.35 -27.15 168.85 -26.8 176.15 -26.45 181.4 -23.3 187.1 -19.85 187.1 -14.75 187.1 -11.3 181.8 -9.05 174.55 -6.0 158.35 -6.0 152.35 -6.0 150.9 -10.05 150.15 -12.1 150.6 -14.35 150.6 -20.8 156.3 -24.2 M206.0 -151.75 Q206.65 -152.4 209.05 -153.3 211.45 -154.25 213.75 -150.35 214.6 -148.2 210.1 -147.7 205.55 -147.25 205.25 -148.75 204.95 -150.3 206.0 -151.75 M178.7 -153.9 Q186.5 -155.85 186.5 -148.75 186.5 -145.95 184.5 -145.0 182.35 -144.0 175.5 -144.0 173.15 -144.0 171.95 -145.05 L169.25 -147.5 Q170.1 -149.3 172.9 -151.2 175.7 -153.1 178.7 -153.9 M195.7 -137.25 Q198.95 -139.7 203.9 -140.35 208.6 -140.95 212.05 -139.55 215.75 -138.05 215.75 -135.0 215.75 -125.25 198.0 -125.25 193.35 -125.25 192.25 -127.5 192.0 -127.95 192.0 -130.1 192.0 -134.4 195.7 -137.25 M180.2 -116.8 Q182.85 -116.85 187.15 -114.3 191.0 -112.0 194.35 -108.7 L194.9 -108.2 Q182.4 -106.85 179.3 -108.7 177.1 -110.05 177.1 -113.0 177.1 -116.75 180.2 -116.8 M217.85 -112.2 Q220.85 -112.05 223.2 -110.35 225.6 -108.55 225.6 -106.25 225.6 -102.4 224.4 -100.25 222.15 -96.25 215.85 -96.25 212.8 -96.25 211.15 -99.8 210.35 -101.55 210.1 -103.5 210.1 -108.15 212.5 -110.45 214.6 -112.4 217.85 -112.2 M176.0 -90.45 Q173.1 -87.0 170.55 -86.9 167.95 -86.85 166.9 -87.7 166.15 -88.35 165.7 -89.15 L165.35 -89.85 Q165.1 -90.5 165.1 -92.0 165.1 -93.95 167.0 -95.6 168.8 -97.15 171.25 -97.65 L174.4 -97.7 178.1 -97.0 178.5 -96.75 Q178.85 -96.5 178.85 -95.0 178.85 -93.8 176.1 -90.55 L176.0 -90.45 M201.85 -54.25 Q204.2 -53.65 205.2 -49.3 205.85 -46.6 205.85 -43.6 205.85 -41.25 205.65 -40.6 204.9 -38.5 201.85 -38.0 L189.85 -38.75 Q185.1 -39.05 182.9 -40.4 179.1 -42.75 179.1 -45.0 179.1 -49.05 183.5 -51.7 189.55 -55.4 201.85 -54.25 M178.7 35.05 Q184.1 40.15 184.1 51.25 184.1 55.3 179.9 58.8 174.15 63.5 163.35 63.5 159.35 63.5 156.5 62.6 L149.05 61.55 148.75 61.75 148.55 61.1 150.0 56.95 149.75 51.5 Q150.45 44.75 155.0 39.35 160.0 33.45 166.85 32.1 174.0 30.65 178.7 35.05 M126.1 31.75 Q126.1 33.7 125.1 35.5 123.55 38.25 120.35 38.25 L117.15 38.0 115.85 37.75 Q115.35 34.75 115.35 32.85 115.35 30.95 116.15 30.15 116.9 29.35 120.4 28.75 123.9 28.15 125.6 30.25 126.1 30.2 126.1 31.75 M89.85 37.5 Q84.7 37.5 82.65 33.0 L81.6 28.85 Q81.6 27.3 85.1 25.65 88.45 24.1 92.75 23.55 103.85 22.15 103.85 28.85 103.85 31.4 99.9 34.25 95.45 37.5 89.85 37.5 M89.85 46.0 Q89.85 47.9 87.1 49.0 L84.35 49.75 Q81.25 49.75 79.6 46.25 L78.6 42.85 Q78.6 42.05 80.35 41.05 82.2 40.05 84.25 39.9 89.85 39.5 89.85 46.0 M120.25 51.65 L115.2 50.8 106.75 50.55 106.75 50.35 Q115.25 48.35 117.9 48.55 120.05 48.6 122.0 50.55 L121.4 51.5 120.25 51.65 M111.45 61.2 Q125.6 53.95 140.6 61.25 L140.85 61.05 141.1 62.75 Q141.1 65.25 127.65 74.8 L119.95 80.1 Q116.25 83.35 111.15 83.45 L103.5 83.0 Q100.95 82.45 99.6 80.5 98.8 79.35 98.85 77.7 L99.1 75.6 Q99.1 72.35 102.45 68.3 105.95 64.05 111.45 61.2 M-75.95 -302.05 L-76.0 -304.6 Q-68.7 -315.75 -55.2 -312.75 L-50.45 -311.35 Q-47.4 -310.4 -46.05 -307.2 -43.0 -299.95 -48.7 -294.1 -47.95 -291.6 -50.1 -290.2 -55.3 -286.7 -59.2 -291.55 L-60.2 -293.1 -61.45 -296.05 Q-68.65 -294.05 -74.05 -298.3 -75.8 -299.7 -75.95 -302.05 M-5.2 -333.3 Q-1.25 -331.95 -1.25 -326.15 -1.25 -325.3 -2.7 -323.2 L-3.75 -321.75 Q-3.8 -318.95 -4.75 -317.85 -5.65 -316.85 -8.0 -316.85 -12.8 -316.85 -14.2 -318.95 -14.75 -319.75 -14.75 -321.35 L-14.7 -321.85 -16.05 -320.95 -18.0 -319.45 -18.6 -317.35 -18.35 -316.95 -18.75 -317.0 -19.75 -314.65 Q-21.75 -310.35 -23.5 -310.35 -25.85 -310.35 -27.3 -312.4 -28.25 -313.75 -28.25 -314.6 -28.25 -316.0 -27.3 -317.65 L-26.9 -319.6 -26.5 -321.85 Q-26.5 -323.95 -22.55 -327.25 -18.6 -330.5 -13.85 -332.35 -8.5 -334.45 -5.2 -333.3 M-17.15 -305.8 Q-14.9 -308.15 -11.5 -308.1 -7.25 -308.1 -4.25 -305.7 -1.25 -303.35 -1.25 -299.95 L-1.25 -299.0 Q-1.25 -297.55 -1.75 -296.5 L-1.75 -296.0 Q-1.75 -291.95 -6.85 -289.7 L-10.8 -287.8 Q-9.5 -287.05 -9.5 -286.0 -9.5 -283.35 -11.25 -281.9 -12.8 -280.6 -15.0 -280.6 -17.5 -280.6 -18.0 -281.1 L-19.05 -290.75 -19.75 -298.35 Q-19.75 -303.2 -17.15 -305.8 M-118.5 -278.6 Q-123.5 -278.6 -124.5 -281.4 L-124.6 -281.75 Q-125.45 -282.3 -125.8 -283.35 -126.0 -284.0 -126.0 -286.35 -126.0 -289.1 -124.5 -290.1 -123.35 -290.85 -120.5 -290.85 -116.9 -290.85 -115.25 -289.35 L-114.65 -288.7 -114.05 -288.45 Q-112.0 -287.35 -112.0 -284.35 -112.0 -281.55 -114.5 -279.9 -116.45 -278.6 -118.5 -278.6 M-108.5 -261.1 Q-108.5 -257.25 -111.5 -255.05 L-120.1 -249.4 Q-120.9 -248.4 -122.05 -247.4 -125.8 -244.15 -131.95 -243.85 -132.2 -243.75 -132.5 -243.6 -136.75 -243.6 -137.25 -245.9 -138.4 -251.25 -132.75 -251.4 L-129.25 -249.85 -127.5 -249.95 -126.65 -250.1 Q-124.55 -250.6 -123.5 -252.0 L-123.55 -252.1 -124.0 -255.0 Q-124.0 -257.75 -121.7 -260.4 -122.75 -260.55 -123.5 -260.85 -129.25 -260.85 -134.1 -259.05 -132.75 -258.05 -132.75 -256.1 -132.75 -253.35 -140.25 -248.35 -145.25 -245.0 -148.0 -244.0 -150.0 -242.6 -152.0 -240.6 L-152.25 -240.1 Q-152.5 -239.95 -152.5 -241.5 L-152.45 -244.5 Q-153.35 -245.3 -153.95 -246.7 -154.75 -248.6 -154.75 -250.1 -154.75 -252.4 -152.05 -254.7 L-152.25 -254.8 Q-153.5 -255.35 -153.5 -256.6 -153.5 -259.05 -149.8 -261.45 L-152.0 -262.35 Q-153.1 -260.85 -157.25 -260.45 L-163.0 -260.35 Q-167.7 -260.35 -169.0 -262.4 -169.5 -263.15 -169.5 -265.35 -169.5 -269.2 -166.85 -270.85 -164.4 -272.4 -160.45 -271.7 -152.4 -270.25 -147.05 -263.0 L-144.1 -264.3 Q-134.35 -268.3 -124.0 -268.1 -122.3 -267.55 -120.65 -266.2 -119.55 -265.25 -115.75 -264.85 L-115.65 -264.65 Q-112.85 -265.8 -110.9 -265.15 -108.5 -264.35 -108.5 -261.1 M-138.0 -276.35 Q-144.8 -276.35 -151.85 -279.25 -158.95 -282.15 -158.25 -288.65 -157.55 -295.15 -149.8 -293.3 -142.05 -291.5 -135.5 -279.5 L-135.75 -277.6 Q-135.7 -277.3 -135.95 -276.95 -136.45 -276.35 -138.0 -276.35 M-127.25 -227.85 L-128.0 -233.85 Q-127.1 -235.7 -123.55 -238.65 -119.5 -242.05 -116.75 -242.1 -118.9 -238.85 -120.55 -233.55 -121.65 -229.85 -124.5 -227.85 L-127.25 -227.85 M-158.05 -230.3 Q-160.1 -228.85 -160.5 -228.85 -162.5 -228.85 -165.9 -230.15 L-170.5 -229.85 Q-173.8 -229.85 -175.7 -231.75 L-186.5 -229.6 Q-189.0 -229.6 -189.0 -230.1 L-189.25 -230.75 -189.35 -231.05 -189.8 -232.1 -189.75 -234.35 Q-189.75 -243.65 -176.5 -240.85 -171.65 -239.8 -167.4 -237.55 -165.1 -236.35 -164.05 -235.35 -157.25 -233.4 -154.75 -233.1 -155.85 -231.85 -158.05 -230.3 M-150.0 -201.85 Q-150.0 -199.2 -150.75 -197.4 -152.05 -194.2 -155.3 -193.85 -158.0 -192.6 -161.0 -192.6 L-163.25 -192.95 -164.0 -193.85 -161.7 -196.95 -161.75 -197.85 Q-161.75 -203.75 -156.65 -204.55 L-153.3 -204.95 Q-150.1 -205.35 -150.0 -201.85 M-98.95 -231.45 Q-99.15 -237.35 -91.2 -246.2 -85.75 -249.2 -79.75 -248.3 -73.8 -247.45 -71.95 -246.6 L-69.1 -245.05 Q-68.3 -245.9 -66.15 -245.7 L-65.5 -245.55 Q-62.6 -243.2 -62.55 -239.4 L-62.55 -238.45 Q-61.7 -234.05 -63.8 -233.45 -67.25 -232.25 -69.25 -235.1 -69.2 -229.7 -79.5 -224.0 -87.45 -221.75 -90.55 -222.05 -93.65 -222.4 -96.2 -223.95 -98.8 -225.55 -98.95 -231.45 M-104.95 -204.9 Q-101.75 -202.5 -99.85 -199.4 -99.3 -200.0 -98.15 -200.0 -95.9 -200.05 -95.9 -197.5 -95.9 -194.2 -98.65 -189.75 -102.2 -183.85 -102.9 -181.85 L-103.2 -182.25 -103.3 -183.4 Q-103.3 -185.65 -101.85 -189.7 -100.4 -193.75 -100.4 -197.85 L-100.4 -198.1 -100.6 -198.45 -101.15 -199.1 -116.0 -196.35 Q-120.85 -196.35 -122.6 -197.05 -123.95 -197.6 -127.25 -200.6 -121.6 -206.65 -113.35 -207.6 -107.75 -208.25 -105.75 -205.5 L-104.95 -204.9 M-25.0 -265.6 L-19.5 -263.7 -16.05 -262.9 -13.65 -262.5 Q-12.1 -262.75 -7.65 -262.45 -3.25 -262.2 -3.1 -258.55 -2.95 -254.95 -4.25 -253.7 -5.55 -252.45 -11.05 -254.65 -16.75 -257.05 -24.15 -251.9 -31.6 -246.75 -39.1 -246.65 -46.6 -246.55 -48.5 -250.45 -49.4 -252.4 -49.1 -254.5 -49.1 -258.15 -45.1 -260.95 -40.7 -264.0 -31.85 -265.8 L-25.0 -265.6 M-65.5 -200.65 Q-65.3 -199.25 -66.6 -196.75 L-68.5 -194.4 -73.25 -190.35 Q-82.35 -182.85 -85.5 -182.85 -89.95 -182.85 -91.0 -186.6 L-91.25 -191.5 Q-91.25 -199.45 -87.1 -204.35 -83.5 -208.65 -78.0 -209.35 -72.7 -210.05 -68.9 -207.05 -67.1 -205.65 -66.05 -203.75 L-65.5 -200.65 M-189.6 -274.55 Q-185.9 -274.0 -183.2 -271.9 -180.25 -269.65 -180.25 -266.75 -180.25 -262.7 -182.3 -261.15 -184.9 -259.1 -192.5 -259.1 -197.55 -259.1 -198.8 -263.4 -199.4 -265.55 -199.0 -267.85 -199.0 -271.8 -196.05 -273.55 -193.5 -275.1 -189.6 -274.55 M-218.3 -224.2 Q-220.9 -220.25 -228.0 -219.1 L-231.0 -220.35 -231.1 -221.65 -231.25 -224.85 Q-231.25 -231.55 -224.0 -233.0 L-222.8 -233.15 -223.75 -235.25 Q-223.75 -240.7 -219.35 -246.6 -215.0 -252.35 -209.6 -254.4 -203.65 -256.65 -199.9 -252.6 -195.5 -247.8 -195.3 -239.95 -195.1 -232.15 -197.9 -228.85 -200.75 -225.6 -207.45 -223.2 -214.15 -220.85 -217.75 -225.15 L-218.3 -224.2 M-192.75 -198.1 Q-195.2 -195.4 -198.75 -195.05 L-215.75 -194.35 Q-214.55 -197.6 -210.35 -199.1 -206.2 -200.65 -201.45 -201.75 -196.7 -202.9 -192.75 -198.1 M-167.75 -172.1 Q-167.75 -174.55 -165.35 -175.8 -163.25 -176.9 -160.1 -176.6 -157.05 -176.3 -154.9 -174.8 -152.5 -173.15 -152.5 -170.75 -152.5 -167.3 -154.25 -165.9 -155.85 -164.6 -159.5 -164.6 -165.1 -164.6 -167.0 -168.4 -167.95 -170.3 -167.75 -172.1 M-174.0 -149.85 L-172.25 -147.3 -168.0 -147.85 Q-163.4 -147.85 -160.3 -145.5 L-158.85 -144.25 -158.6 -144.15 Q-158.2 -143.95 -157.8 -143.85 L-158.0 -145.6 Q-158.0 -148.25 -156.15 -150.3 -153.5 -153.2 -148.25 -151.6 L-148.0 -151.8 Q-147.75 -151.65 -147.75 -150.1 -147.75 -147.85 -150.35 -145.95 -151.85 -144.9 -155.5 -142.4 L-155.5 -142.35 -159.25 -137.2 Q-159.65 -136.25 -160.5 -135.5 L-160.6 -135.4 -160.55 -135.45 Q-162.15 -134.25 -165.35 -133.9 -170.8 -133.35 -174.05 -139.35 -175.65 -142.35 -176.0 -145.35 L-176.0 -146.0 -176.0 -146.35 -175.95 -146.85 -175.75 -151.35 -174.75 -151.35 -174.4 -149.65 -174.0 -149.85 M-216.25 -185.1 Q-214.7 -185.0 -209.4 -187.8 -207.75 -183.1 -207.75 -182.1 -207.75 -177.95 -208.7 -176.4 L-209.7 -175.2 -210.0 -174.65 Q-211.95 -171.1 -217.0 -171.1 -221.0 -171.1 -222.75 -174.5 L-223.35 -175.85 Q-224.2 -177.0 -224.5 -178.55 -225.15 -182.15 -221.9 -183.5 -220.05 -185.3 -216.25 -185.1 M-212.5 -126.0 Q-209.75 -125.75 -207.7 -124.1 -205.5 -122.35 -205.5 -120.1 -205.5 -116.5 -206.5 -115.25 -207.95 -113.5 -212.5 -113.5 -218.05 -113.5 -219.3 -115.75 -219.5 -116.15 -219.5 -118.75 -219.5 -122.7 -217.3 -124.6 -215.45 -126.25 -212.5 -126.0 M-240.75 -99.75 L-241.4 -100.75 -241.5 -103.1 -241.2 -105.2 Q-240.7 -106.5 -239.0 -107.5 L-230.7 -107.55 -223.75 -107.25 -223.5 -106.6 Q-223.25 -106.05 -223.25 -104.6 -223.25 -102.45 -226.05 -101.0 -228.95 -99.5 -233.5 -99.5 L-240.75 -99.75 M-192.0 -118.0 Q-192.0 -123.9 -187.95 -125.2 -184.55 -126.25 -179.0 -124.05 -174.25 -122.15 -170.05 -118.85 -166.0 -115.65 -166.0 -114.0 -166.0 -111.5 -171.05 -107.25 -176.35 -102.75 -180.5 -102.75 -186.9 -102.75 -190.05 -109.75 -192.0 -114.15 -192.0 -118.0 M-246.05 -101.7 Q-241.5 -98.95 -241.5 -96.0 -241.5 -93.3 -243.5 -91.6 -245.95 -89.55 -253.0 -87.25 L-263.0 -87.25 Q-268.4 -91.1 -269.65 -93.05 -270.5 -94.4 -270.5 -97.85 -270.5 -102.8 -265.95 -104.65 -262.05 -106.3 -256.0 -105.25 -250.3 -104.3 -246.05 -101.7 M-250.6 -56.6 L-240.0 -56.9 -231.6 -53.75 -231.45 -53.95 -231.3 -54.0 -231.6 -53.75 -231.4 -51.6 -240.0 -47.9 Q-243.7 -46.15 -246.5 -43.25 L-247.0 -42.7 -251.7 -36.4 Q-261.85 -29.75 -265.15 -34.8 -268.45 -39.9 -267.15 -42.95 -265.85 -46.05 -264.75 -47.35 L-263.05 -48.95 -261.1 -51.15 Q-257.0 -55.05 -250.6 -56.6 M-174.45 -75.05 L-181.45 -75.3 -191.0 -75.75 Q-194.15 -76.8 -195.3 -79.45 -196.0 -81.1 -196.0 -84.0 -196.0 -87.95 -190.2 -86.0 -184.3 -83.25 -184.1 -83.25 -182.85 -83.25 -180.8 -84.5 -178.75 -85.75 -177.5 -85.75 -174.55 -85.75 -173.5 -84.45 -172.5 -83.15 -172.65 -81.85 L-172.75 -78.05 Q-172.75 -75.6 -174.45 -75.05 M-166.55 -80.9 Q-167.0 -82.15 -167.0 -83.35 L-164.25 -96.1 Q-164.25 -110.3 -156.5 -106.15 -154.2 -104.95 -151.15 -102.0 L-148.75 -99.75 Q-148.75 -94.6 -149.6 -92.6 -150.2 -91.15 -152.2 -89.9 -158.5 -85.95 -163.5 -77.0 -165.7 -78.4 -166.55 -80.9 M-218.7 -83.95 L-221.9 -82.25 Q-222.55 -80.95 -224.65 -79.1 L-228.25 -75.75 Q-229.5 -72.8 -226.9 -67.95 -227.5 -64.0 -232.0 -69.75 -235.75 -73.75 -233.85 -81.15 L-233.7 -81.2 Q-233.3 -82.7 -232.0 -84.2 -230.2 -86.3 -227.75 -87.4 -225.2 -88.5 -223.55 -87.65 L-222.85 -87.15 -222.5 -87.35 Q-213.6 -98.35 -207.75 -86.45 -207.1 -85.1 -212.15 -83.15 L-218.7 -83.95 M-174.2 -31.5 Q-175.75 -27.75 -180.5 -27.75 -184.25 -27.75 -186.75 -31.3 -188.5 -33.75 -188.5 -35.0 -188.5 -38.6 -186.15 -40.7 -184.1 -42.5 -181.0 -42.6 -178.0 -42.7 -175.85 -41.2 -173.5 -39.5 -173.5 -36.75 -173.5 -33.25 -174.2 -31.5 M-7.1 -183.3 L-6.85 -180.15 Q-6.75 -177.25 -7.6 -175.05 -10.25 -168.15 -21.5 -168.15 -27.8 -168.15 -31.4 -175.4 -33.2 -179.1 -33.75 -183.1 -33.75 -187.1 -29.6 -190.7 -25.6 -194.15 -20.4 -195.1 -14.85 -196.2 -11.25 -193.6 -7.1 -190.55 -7.1 -183.3 M-39.5 -157.85 Q-39.5 -152.6 -41.05 -148.85 -41.85 -146.9 -43.0 -145.55 L-43.05 -145.25 -43.4 -142.1 Q-41.7 -140.05 -40.3 -137.65 -38.85 -135.15 -37.9 -132.7 L-34.85 -130.8 Q-33.8 -129.75 -33.4 -128.15 L-25.25 -138.2 Q-25.85 -138.9 -27.5 -139.65 -30.0 -140.85 -30.0 -142.6 -30.0 -145.05 -28.95 -145.9 -26.9 -147.5 -20.25 -146.35 L-20.0 -144.5 Q-20.5 -143.1 -20.8 -141.0 L-21.05 -139.1 Q-21.15 -136.7 -21.75 -132.75 L-27.65 -122.35 Q-32.95 -112.75 -31.3 -111.4 -28.25 -109.75 -26.8 -106.3 -25.5 -103.2 -25.5 -96.5 -25.5 -95.15 -25.9 -92.95 L-26.5 -89.0 -27.05 -88.75 -27.15 -87.8 Q-24.0 -86.8 -24.0 -83.85 -24.0 -79.4 -28.7 -73.0 L-31.2 -70.05 -31.0 -66.5 -31.25 -61.25 -31.25 -60.75 -30.75 -60.5 Q-28.05 -58.95 -25.75 -56.65 L-25.65 -56.65 Q-22.45 -56.7 -17.75 -53.5 -13.15 -50.35 -9.85 -46.0 -6.25 -41.25 -6.25 -37.5 -6.25 -33.05 -6.75 -31.85 -8.15 -28.7 -14.0 -26.25 -14.05 -18.95 -15.55 -16.05 -19.4 -8.75 -32.5 -8.75 -44.3 -8.75 -53.3 -13.3 -59.4 -16.35 -61.5 -19.5 L-61.5 -23.05 -62.65 -23.25 Q-62.0 -21.0 -62.0 -18.0 -62.0 -11.05 -62.3 -9.75 -63.75 -3.0 -70.0 -3.0 -77.7 -3.0 -81.25 -10.5 -83.0 -14.25 -83.25 -18.0 -83.25 -21.8 -79.95 -25.15 -76.75 -28.35 -72.6 -29.25 L-68.65 -29.35 -69.2 -30.8 Q-70.6 -34.7 -70.75 -38.85 L-70.55 -40.2 -71.75 -39.75 -71.9 -39.65 -76.0 -36.0 -76.3 -36.05 Q-79.85 -32.0 -86.5 -32.0 -100.55 -32.0 -109.0 -37.75 -115.5 -42.2 -115.5 -46.35 -115.5 -58.9 -94.25 -54.45 -88.35 -53.2 -82.6 -51.0 -84.6 -54.45 -85.35 -57.0 L-86.25 -59.65 -88.55 -60.05 -91.6 -60.85 -94.55 -61.65 -96.55 -60.9 Q-98.85 -60.05 -109.65 -63.8 -120.45 -67.55 -121.6 -75.55 -122.75 -83.6 -118.2 -86.0 L-117.15 -86.4 -116.7 -86.9 -114.65 -88.55 Q-116.4 -96.5 -119.5 -95.75 -121.9 -92.1 -126.85 -89.6 -132.0 -87.0 -137.5 -87.0 -141.75 -87.0 -142.8 -90.85 -143.3 -92.8 -143.0 -95.0 -143.0 -101.0 -134.4 -100.0 -123.8 -97.55 -119.75 -97.0 L-119.5 -95.75 Q-113.85 -97.9 -108.3 -92.0 -107.8 -89.95 -103.25 -81.3 -100.5 -78.95 -98.05 -75.85 -95.85 -72.95 -94.2 -68.0 L-84.75 -66.5 Q-82.9 -69.35 -82.1 -69.75 L-80.05 -70.55 Q-79.05 -72.35 -76.8 -74.15 -71.0 -78.85 -61.0 -77.0 -54.9 -77.45 -52.25 -73.7 -51.35 -72.4 -50.95 -71.0 L-49.2 -71.45 -49.2 -71.85 -49.0 -73.75 Q-49.0 -78.4 -45.1 -82.2 -41.65 -85.55 -36.5 -87.2 L-33.9 -87.9 -34.05 -88.5 -34.35 -90.15 Q-37.0 -92.4 -39.75 -97.3 -44.0 -104.8 -44.0 -107.0 -44.0 -110.3 -43.8 -110.8 -42.85 -113.0 -38.5 -113.0 L-35.65 -112.8 -36.0 -113.8 Q-36.35 -115.2 -36.0 -116.75 -36.0 -119.3 -35.5 -121.8 -36.05 -121.55 -36.75 -121.35 L-37.05 -120.55 Q-38.0 -118.5 -41.5 -118.5 -50.05 -118.5 -56.3 -131.15 -59.35 -137.4 -60.75 -143.5 -60.75 -149.5 -56.95 -150.25 L-56.05 -150.35 -56.5 -153.2 Q-57.15 -158.55 -56.75 -164.1 -56.75 -165.95 -54.3 -168.05 -50.65 -171.1 -44.0 -169.6 -41.8 -167.95 -40.45 -162.95 -39.5 -159.45 -39.5 -157.85 M-53.15 -175.95 L-56.2 -175.35 Q-61.7 -174.2 -65.5 -168.6 -65.75 -165.55 -66.55 -163.65 -68.1 -160.1 -74.0 -160.1 -76.35 -160.1 -77.8 -165.25 -78.75 -168.8 -78.75 -170.75 -78.75 -171.3 -76.6 -173.0 -75.85 -175.1 -74.05 -176.75 -70.9 -179.65 -65.0 -180.6 -52.0 -187.1 -52.0 -177.75 -52.0 -176.4 -53.15 -175.95 M-68.45 -142.4 Q-65.75 -138.3 -65.75 -133.35 -65.75 -128.0 -67.25 -123.35 -69.85 -115.25 -76.0 -114.25 L-76.1 -114.3 Q-79.6 -112.25 -84.0 -112.25 -95.35 -112.25 -97.75 -116.25 -98.5 -117.55 -98.35 -119.35 L-98.25 -119.85 -98.5 -120.55 -98.5 -124.25 Q-98.5 -128.8 -96.2 -130.75 -93.4 -133.2 -86.05 -134.05 L-86.0 -137.75 Q-86.0 -141.35 -83.8 -143.65 L-82.95 -144.4 Q-81.2 -148.35 -78.25 -149.55 -75.3 -150.8 -73.05 -148.4 -70.8 -146.0 -68.45 -142.4 M-84.25 -174.6 Q-84.25 -173.45 -86.2 -169.7 -88.2 -165.9 -89.75 -164.85 L-91.85 -164.6 Q-93.8 -164.6 -95.5 -169.1 -96.3 -171.35 -96.75 -173.6 -96.75 -178.7 -90.5 -178.65 -88.0 -178.65 -86.2 -177.55 -84.25 -176.4 -84.25 -174.6 M-102.45 -151.05 Q-96.8 -150.75 -92.75 -147.1 L-101.1 -145.15 Q-105.95 -144.1 -109.75 -140.1 -110.95 -138.8 -111.75 -136.9 L-112.95 -134.1 Q-114.5 -131.35 -120.5 -131.35 -123.25 -131.35 -123.75 -133.9 -124.0 -135.2 -123.75 -136.75 -123.75 -139.8 -120.5 -143.3 -117.35 -146.75 -112.55 -148.9 -107.4 -151.25 -102.45 -151.05 M-114.65 -56.05 Q-114.65 -54.05 -115.4 -53.65 L-119.65 -53.25 Q-126.3 -53.25 -126.3 -55.3 -126.3 -59.1 -120.45 -59.2 -114.65 -59.25 -114.65 -56.05 M-150.95 -68.55 Q-148.4 -64.45 -145.3 -62.05 -142.2 -59.7 -135.45 -59.55 -128.75 -59.4 -127.85 -52.75 -127.0 -46.1 -129.3 -42.5 -132.3 -37.75 -137.5 -37.75 -148.0 -37.75 -148.8 -44.75 -149.2 -48.35 -147.5 -53.0 -147.5 -54.7 -158.35 -66.25 -153.5 -72.7 -150.95 -68.55 M-93.8 -26.9 Q-91.9 -24.85 -92.0 -22.75 L-92.5 -20.75 -93.9 -20.35 -97.0 -20.0 Q-101.4 -20.0 -103.3 -23.05 -104.2 -24.5 -104.25 -25.6 -104.25 -28.65 -102.3 -29.65 -100.6 -30.5 -98.05 -29.6 -95.55 -28.75 -93.8 -26.9 M-24.0 43.1 Q-16.95 43.7 -12.15 47.95 -6.75 52.7 -6.75 60.1 -6.75 64.2 -11.45 69.5 -17.0 75.75 -24.0 75.75 -35.55 75.75 -39.5 66.55 -41.25 62.45 -41.25 56.0 -41.25 49.3 -35.85 45.7 -30.95 42.45 -24.0 43.1 M-50.75 22.6 Q-46.5 23.95 -46.5 27.25 -46.5 29.8 -52.7 35.55 L-53.5 36.3 -53.5 36.95 Q-52.55 36.25 -51.0 36.15 -49.3 36.05 -48.1 36.95 -46.75 37.9 -46.75 39.5 -46.75 42.25 -47.95 44.05 -49.5 46.25 -52.5 46.25 -55.0 46.25 -55.0 45.75 L-55.25 42.1 Q-56.3 43.25 -58.0 43.5 L-66.0 43.5 Q-79.15 37.6 -71.55 28.2 L-69.55 26.0 -69.5 25.95 Q-65.75 23.15 -60.1 22.2 L-50.75 22.6 M-82.7 2.5 Q-80.25 3.85 -80.25 4.6 -80.25 7.75 -82.75 10.25 -85.5 13.0 -89.5 13.0 -94.6 13.0 -95.8 9.5 -96.0 8.9 -96.0 5.35 -96.0 -1.2 -88.1 0.5 -85.3 1.1 -82.7 2.5 M-101.5 33.25 Q-97.45 33.75 -97.25 37.6 L-97.3 38.5 Q-98.0 40.8 -99.95 42.5 -104.65 46.5 -116.0 46.5 -124.4 46.5 -128.3 43.3 -131.0 41.05 -131.0 38.0 -131.0 35.15 -125.7 33.55 L-121.15 32.6 Q-122.7 31.65 -123.3 28.75 L-123.5 25.3 Q-123.5 20.15 -116.25 22.3 -113.4 23.15 -111.25 24.8 -109.0 26.5 -109.0 28.0 -109.0 29.85 -111.55 31.3 L-113.15 32.05 Q-107.0 32.05 -102.3 33.05 L-101.5 33.25 M-134.45 13.0 Q-137.5 16.5 -147.5 16.5 -153.95 16.5 -155.5 12.75 -156.25 10.9 -155.75 9.0 -155.75 7.8 -152.2 6.05 -148.65 4.3 -144.35 3.35 -133.0 0.9 -133.0 7.0 -133.0 11.3 -134.45 13.0 M-145.9 39.25 Q-141.5 42.8 -141.5 45.35 -141.5 50.95 -144.45 52.8 -147.4 54.6 -158.55 56.0 -169.75 57.45 -169.75 48.35 -169.75 39.2 -165.35 35.75 -161.65 32.85 -155.6 34.35 -150.45 35.6 -145.9 39.25 M-175.6 17.0 Q-174.7 23.2 -177.8 29.35 -180.95 35.5 -192.0 35.5 -201.4 35.5 -205.0 28.5 -206.8 24.95 -206.75 20.05 -206.75 15.15 -202.35 12.15 -197.95 9.15 -192.7 9.05 L-182.0 9.85 Q-176.55 10.75 -175.6 17.0 M-209.65 51.0 Q-207.6 49.6 -203.7 49.1 -181.8 27.95 -173.75 41.5 -183.35 46.55 -186.15 55.0 -189.0 63.45 -195.05 64.55 L-206.05 65.5 Q-211.05 65.3 -212.0 61.75 -213.0 58.15 -212.6 55.45 -212.25 52.75 -209.65 51.0" fill="#6f6f6f" fill-rule="evenodd" stroke="none"/>
    </g>
  </defs>
</svg>
