<?xml version="1.0" encoding="UTF-8" standalone="no"?>
<svg xmlns:ffdec="https://www.free-decompiler.com/flash" xmlns:xlink="http://www.w3.org/1999/xlink" ffdec:objectType="frame" height="499.45px" width="496.15px" xmlns="http://www.w3.org/2000/svg">
  <g transform="matrix(1.0, 0.0, 0.0, 1.0, 270.5, 376.7)">
    <use ffdec:characterId="178" height="442.4" transform="matrix(1.0, 0.0, 0.0, 1.0, -270.0, -363.5)" width="495.25" xlink:href="#shape0"/>
  </g>
  <defs>
    <g id="shape0" transform="matrix(1.0, 0.0, 0.0, 1.0, 270.0, 363.5)">
      <path d="M166.75 -253.7 L167.8 -252.0 168.25 -252.05 Q171.4 -252.15 173.4 -249.65 175.65 -246.85 175.75 -241.45 177.85 -240.45 179.65 -238.65 183.65 -234.65 183.65 -228.65 183.65 -225.9 182.1 -223.35 180.5 -217.35 176.65 -213.35 L176.75 -213.85 177.05 -214.8 177.25 -216.45 176.95 -218.0 174.95 -217.95 Q173.2 -217.2 168.35 -217.35 163.45 -217.5 160.35 -222.0 L159.25 -223.95 Q159.1 -223.4 158.45 -222.9 157.35 -222.05 155.1 -222.05 151.05 -222.05 150.15 -224.75 149.65 -226.1 150.0 -227.6 150.0 -228.4 151.0 -229.2 152.6 -230.55 156.0 -230.15 157.2 -229.55 158.0 -228.75 L157.9 -230.3 Q157.9 -233.75 159.0 -236.3 L157.0 -235.8 150.5 -235.8 Q143.6 -237.2 140.45 -242.5 138.25 -246.2 138.25 -250.8 138.25 -262.65 154.75 -262.3 157.25 -262.3 160.35 -260.45 163.1 -258.8 164.5 -256.9 L166.75 -253.7 M162.15 -201.5 Q160.6 -199.3 156.85 -199.3 153.5 -199.3 152.15 -203.2 151.5 -205.15 151.5 -207.0 151.5 -209.45 153.3 -210.45 154.9 -211.4 157.25 -210.85 159.6 -210.25 161.2 -208.55 163.0 -206.6 163.0 -204.05 163.0 -202.7 162.15 -201.5 M10.5 -351.05 Q11.0 -349.6 11.0 -346.25 11.0 -345.35 10.35 -344.3 9.4 -342.8 7.6 -342.8 -1.0 -342.8 -1.0 -350.05 -1.0 -352.15 -0.3 -353.2 1.1 -355.35 5.5 -355.15 9.35 -354.35 10.5 -351.05 M17.75 -316.25 Q15.85 -314.55 12.35 -314.55 10.05 -314.55 9.15 -316.25 8.75 -317.05 8.9 -318.8 9.05 -320.55 14.05 -318.8 19.0 -317.1 17.75 -316.25 M30.25 -298.5 Q32.1 -297.4 32.1 -295.35 32.1 -290.3 23.35 -290.3 21.45 -290.3 20.65 -292.15 20.25 -293.1 20.25 -294.05 20.25 -298.75 26.2 -299.25 28.55 -299.45 30.25 -298.5 M78.5 -280.4 Q85.25 -284.7 89.85 -280.95 93.35 -278.05 93.35 -274.35 93.35 -271.5 89.5 -270.85 83.5 -269.85 80.25 -267.55 77.9 -264.85 75.95 -263.2 72.35 -260.05 67.0 -260.05 63.85 -260.05 62.6 -264.0 62.0 -265.95 62.0 -268.0 62.0 -271.2 67.2 -274.25 L78.5 -280.4 M8.4 -261.75 Q8.4 -262.8 8.8 -263.25 9.75 -264.3 12.75 -263.9 16.05 -263.75 18.75 -260.3 21.0 -257.45 21.0 -255.75 21.0 -254.4 20.5 -253.95 19.9 -253.4 18.0 -253.4 L18.0 -253.5 13.2 -254.25 Q8.4 -258.15 8.4 -261.75 M25.8 -250.85 L25.35 -250.75 Q24.3 -250.75 24.0 -251.45 L24.0 -251.9 Q24.0 -255.3 29.7 -251.55 35.4 -247.75 35.4 -245.5 L35.35 -244.5 Q35.35 -244.25 34.75 -244.25 L33.5 -245.55 30.15 -248.45 Q27.65 -250.65 25.8 -250.85 M35.25 -237.2 Q35.25 -235.85 34.65 -235.15 33.45 -233.9 30.1 -233.9 27.9 -233.9 27.25 -235.9 27.0 -236.65 27.0 -238.35 27.0 -241.55 31.15 -241.15 35.25 -240.75 35.25 -237.2 M13.05 -237.3 Q16.25 -235.15 16.25 -232.2 16.25 -230.75 15.5 -229.75 14.2 -228.05 11.0 -228.05 L8.95 -228.2 10.5 -226.65 Q13.15 -223.85 14.9 -220.55 16.4 -217.75 16.4 -216.4 16.4 -215.3 15.1 -214.25 13.2 -212.75 9.35 -212.75 5.05 -212.75 0.85 -217.05 -2.15 -222.05 -9.5 -224.55 -16.85 -227.1 -16.65 -229.15 -16.5 -231.25 -14.7 -232.35 -11.95 -234.1 -6.25 -233.55 L-4.7 -233.65 -8.75 -234.55 Q-12.95 -234.85 -14.1 -236.4 -14.5 -237.0 -14.5 -238.75 -14.5 -240.0 -14.05 -240.5 L-12.5 -241.45 -8.45 -242.15 -5.75 -242.15 Q6.95 -241.95 13.05 -237.3 M7.75 -206.9 Q3.35 -206.9 1.8 -205.35 0.9 -204.5 0.85 -202.5 0.25 -203.15 0.25 -204.3 0.25 -208.95 6.9 -208.9 9.4 -208.9 11.45 -208.05 13.5 -207.25 13.5 -206.15 L13.2 -205.3 Q12.8 -204.9 12.25 -204.9 11.4 -204.9 9.6 -205.9 L7.75 -206.9 M0.25 -200.55 Q0.25 -202.2 1.7 -202.3 3.0 -202.45 4.85 -201.3 9.4 -198.4 9.4 -193.95 L9.3 -192.35 Q8.5 -190.9 8.05 -189.5 L7.75 -190.9 7.0 -194.25 Q6.3 -195.75 4.05 -197.05 2.25 -198.1 1.45 -198.85 L0.65 -199.55 Q0.25 -200.2 0.25 -200.55 M36.9 -205.3 Q36.9 -207.2 38.75 -209.05 40.8 -211.2 44.0 -211.65 L50.75 -211.65 Q55.25 -210.65 56.55 -206.15 57.1 -204.35 57.1 -199.95 57.1 -198.8 56.05 -195.8 55.0 -192.85 55.0 -190.4 L55.6 -182.8 Q55.6 -181.25 53.5 -179.2 51.0 -176.75 47.6 -176.75 40.0 -176.75 37.75 -182.5 36.65 -185.4 37.0 -188.8 37.0 -191.0 37.7 -193.7 L38.4 -196.4 37.65 -200.15 Q36.9 -204.05 36.9 -205.3 M79.1 -245.9 Q79.75 -245.45 80.25 -243.8 L80.6 -242.0 Q80.6 -240.7 78.8 -239.75 76.55 -238.55 72.6 -238.55 70.0 -238.55 69.35 -241.3 69.05 -242.7 69.25 -243.9 L69.3 -244.85 Q69.5 -245.3 71.6 -245.85 L74.85 -246.6 79.1 -245.9 M55.0 -241.45 L55.6 -237.05 Q55.6 -231.4 53.0 -230.5 L46.8 -238.6 Q44.9 -241.45 44.9 -245.55 44.9 -248.15 48.05 -249.2 51.55 -250.35 54.25 -245.25 L55.0 -241.45 M44.5 -232.25 Q45.6 -232.35 48.35 -230.4 L51.0 -228.2 50.85 -227.5 Q50.65 -227.0 50.25 -227.0 49.95 -227.0 49.65 -227.25 L48.25 -227.0 Q47.1 -226.55 46.85 -225.65 46.55 -224.75 44.6 -224.75 42.65 -224.8 42.25 -226.05 42.05 -226.7 42.25 -227.4 42.25 -228.5 42.75 -230.05 43.45 -232.2 44.5 -232.25 M59.3 -220.15 Q62.85 -221.6 69.1 -221.7 75.35 -221.8 79.9 -220.05 84.4 -218.3 84.1 -214.95 83.75 -211.6 81.5 -210.55 79.25 -209.5 76.85 -210.6 74.4 -211.7 72.55 -214.95 70.7 -218.25 56.4 -218.4 55.7 -218.75 59.3 -220.15 M125.6 -260.35 Q124.5 -258.1 117.35 -258.5 110.2 -258.9 109.4 -261.75 108.55 -264.65 108.75 -267.0 108.75 -271.3 111.5 -274.0 114.0 -276.4 117.5 -276.4 121.1 -276.35 123.5 -273.65 126.25 -270.6 126.45 -266.6 126.65 -262.65 125.6 -260.35 M105.9 -255.75 Q110.35 -255.15 110.35 -251.55 110.35 -249.6 107.75 -249.45 L105.15 -249.5 Q102.7 -249.75 101.85 -251.3 101.4 -252.1 101.4 -253.35 101.4 -256.35 105.9 -255.75 M113.25 -241.4 Q113.25 -247.05 116.95 -249.0 120.4 -250.8 125.15 -248.7 130.0 -246.6 133.3 -241.6 137.0 -235.95 137.0 -228.7 137.0 -222.4 131.75 -220.8 L130.25 -220.4 Q123.9 -219.35 119.5 -223.85 117.85 -226.0 116.2 -229.95 113.25 -237.0 113.25 -241.4 M103.1 -226.8 Q104.0 -225.4 104.0 -223.05 104.0 -222.2 103.25 -221.45 102.4 -220.65 101.25 -220.65 97.05 -220.65 96.1 -223.25 95.65 -224.55 96.0 -225.9 96.0 -227.35 97.25 -228.15 98.2 -228.75 99.45 -228.7 99.05 -229.75 99.0 -230.8 99.0 -233.0 101.45 -231.5 103.85 -230.0 103.85 -228.05 103.85 -227.15 103.1 -226.8 M137.2 -211.65 Q141.65 -211.15 141.65 -206.75 141.65 -204.95 140.9 -201.4 139.95 -196.8 138.75 -196.8 136.05 -196.8 134.1 -202.95 133.15 -206.05 132.75 -209.15 132.75 -210.45 134.15 -211.15 135.45 -211.85 137.2 -211.65 M158.55 -174.85 Q160.9 -173.25 160.9 -172.75 160.9 -171.9 158.2 -171.6 L151.35 -170.3 Q147.2 -169.3 146.45 -170.5 145.65 -171.75 145.75 -172.7 145.75 -180.15 153.35 -177.5 155.9 -176.6 158.55 -174.85 M133.7 -171.2 Q134.75 -172.75 138.0 -173.0 141.35 -170.9 141.95 -170.0 142.25 -169.5 142.25 -167.3 L142.0 -165.0 Q141.2 -163.3 138.1 -163.3 134.15 -163.3 133.25 -165.65 133.1 -166.1 133.1 -168.75 133.1 -170.4 133.7 -171.2 M148.75 -153.0 Q148.75 -154.15 149.6 -155.4 150.8 -157.2 152.75 -155.65 L154.0 -153.7 Q154.6 -152.5 155.4 -151.75 L161.1 -147.95 Q164.5 -145.75 164.5 -144.15 164.5 -143.0 164.05 -142.5 163.6 -142.05 161.25 -141.9 158.85 -141.75 155.45 -143.4 152.0 -145.05 150.85 -146.8 149.4 -148.95 149.05 -150.1 148.75 -151.05 148.75 -153.0 M90.0 -162.5 Q95.95 -162.5 97.7 -159.6 98.25 -158.65 98.3 -157.5 L98.25 -156.4 Q98.25 -155.0 97.75 -154.3 96.55 -152.65 92.75 -152.65 85.15 -152.65 82.75 -154.95 81.65 -156.05 81.65 -158.45 81.65 -159.95 83.15 -161.0 85.3 -162.5 90.0 -162.5 M112.5 -155.0 Q112.5 -153.9 111.2 -152.85 109.8 -151.75 108.25 -151.75 104.85 -151.75 104.0 -153.9 103.6 -155.0 103.85 -156.25 103.85 -158.95 108.2 -158.9 112.5 -158.85 112.5 -155.0 M121.15 -133.35 L121.9 -137.05 121.65 -138.25 121.4 -139.45 Q121.4 -142.35 124.55 -142.0 127.7 -141.6 128.25 -139.15 L129.2 -136.1 129.65 -132.95 Q129.65 -130.65 129.25 -129.95 128.25 -128.15 124.35 -128.15 122.15 -128.15 121.4 -130.75 121.05 -132.0 121.15 -133.35 M97.85 -137.85 Q97.5 -134.85 96.35 -132.05 94.1 -126.5 90.0 -126.5 87.25 -126.5 86.1 -130.95 85.55 -133.15 85.5 -135.4 85.5 -137.5 87.45 -139.15 89.2 -140.65 91.7 -141.2 L95.9 -140.95 Q97.85 -140.05 97.85 -137.85 M120.35 -119.0 Q123.5 -118.9 124.35 -118.25 127.1 -114.9 127.5 -113.9 L127.75 -110.5 Q127.75 -108.8 125.85 -107.4 123.3 -105.55 118.35 -105.55 113.3 -105.55 110.8 -110.55 109.5 -113.05 109.25 -115.75 109.25 -117.5 109.8 -118.15 111.35 -119.95 116.75 -119.05 L120.35 -119.0 M143.25 -127.8 L139.0 -126.55 Q138.15 -126.9 137.9 -128.1 L137.85 -131.2 Q137.85 -134.0 143.65 -134.55 L151.4 -135.15 Q153.35 -135.3 154.0 -134.4 L156.1 -133.95 Q160.15 -132.3 160.15 -127.25 160.15 -125.75 157.85 -125.75 153.1 -125.75 152.1 -129.35 L151.85 -130.9 Q150.9 -130.25 148.2 -129.35 L143.25 -127.8 M1.6 -173.65 Q-1.95 -173.65 -3.45 -175.65 -4.5 -176.95 -4.5 -178.85 -4.5 -181.75 0.95 -179.8 6.35 -177.9 6.35 -175.15 6.35 -174.2 5.75 -173.95 L1.6 -173.65 M8.85 -167.0 Q8.85 -165.9 8.1 -165.9 L6.6 -166.15 Q5.2 -166.15 0.75 -164.5 L0.6 -164.75 Q1.6 -167.4 5.2 -168.8 8.85 -170.25 8.85 -167.0 M6.1 -158.65 Q6.1 -159.5 7.95 -161.0 9.9 -162.5 12.05 -163.2 18.0 -165.15 18.0 -159.0 L16.25 -156.15 14.25 -153.65 Q8.8 -153.65 7.1 -155.25 6.1 -156.2 6.1 -158.65 M37.55 -160.25 Q36.1 -158.9 34.2 -158.75 32.25 -158.6 31.95 -160.3 L31.6 -163.0 Q31.6 -165.05 35.3 -165.4 39.0 -165.75 39.0 -162.45 39.0 -161.6 37.55 -160.25 M30.1 -137.6 L30.15 -131.75 Q30.15 -115.7 14.1 -116.25 L14.05 -116.2 14.0 -116.65 Q14.0 -116.95 15.75 -119.25 L17.6 -122.05 Q17.7 -122.5 17.05 -123.45 16.4 -124.35 16.35 -129.3 L16.5 -132.5 Q16.5 -134.3 19.1 -138.25 21.65 -142.2 26.0 -142.75 29.35 -142.95 30.1 -137.6 M13.8 -138.8 Q13.1 -135.35 10.3 -125.95 L10.25 -125.75 12.25 -116.75 Q12.25 -115.45 11.3 -113.85 10.55 -112.55 9.4 -111.9 L9.4 -111.8 Q9.4 -109.4 8.15 -106.6 L6.9 -104.3 Q14.25 -105.3 14.25 -93.65 L13.8 -91.65 14.45 -93.0 Q16.65 -97.0 19.5 -95.75 29.2 -96.25 32.2 -87.95 33.5 -84.45 33.5 -76.8 33.5 -74.85 31.4 -70.95 30.3 -68.9 29.1 -67.7 L29.9 -67.35 Q32.9 -65.9 33.65 -64.5 L34.15 -61.75 34.35 -58.65 Q34.35 -57.85 32.5 -54.0 L32.2 -53.4 33.35 -51.3 Q36.55 -52.2 40.45 -52.0 45.85 -51.7 49.3 -49.25 53.35 -46.35 53.35 -41.15 53.35 -37.0 51.75 -33.95 49.3 -29.35 43.5 -28.05 L36.1 -28.05 36.6 -27.05 38.0 -24.25 Q39.15 -22.1 45.05 -18.25 L46.3 -17.4 48.85 -17.5 Q56.8 -17.5 59.1 -13.15 59.9 -11.65 59.9 -8.0 59.9 -6.85 58.75 -6.25 56.85 -5.25 51.85 -5.25 44.85 -5.25 40.5 -9.15 37.7 -11.6 37.0 -14.25 L35.9 -17.35 32.15 -20.65 29.75 -20.75 Q24.9 -20.75 22.0 -15.05 L19.85 -11.15 19.3 -10.5 19.75 -10.0 20.9 -7.3 Q21.25 -5.7 21.25 -1.9 16.35 5.9 10.05 8.35 L11.2 9.95 10.0 8.35 9.7 7.9 10.0 8.3 9.65 5.95 Q9.65 4.35 6.6 -3.95 3.5 -12.25 3.5 -17.05 3.5 -20.4 7.3 -22.9 L7.95 -23.3 Q9.5 -25.75 14.35 -25.9 L17.05 -25.7 Q18.35 -27.85 23.15 -29.2 L25.45 -29.7 Q25.7 -30.7 27.35 -31.2 L27.0 -31.55 Q24.5 -34.05 24.5 -35.9 L24.55 -36.15 Q18.15 -36.8 13.35 -42.15 10.4 -45.45 9.6 -47.6 6.45 -48.95 5.35 -53.55 4.55 -56.8 4.9 -60.25 4.9 -64.15 6.05 -67.6 4.0 -69.2 2.4 -73.55 1.15 -77.05 0.1 -81.65 -1.75 -85.45 -2.25 -88.55 -2.75 -91.7 -2.75 -94.6 -2.75 -97.5 -0.2 -100.35 L1.45 -101.95 -0.4 -104.15 Q-0.75 -104.55 -1.05 -107.0 L-1.3 -109.9 Q-1.3 -112.75 2.75 -115.25 L4.25 -116.05 4.25 -116.25 4.25 -116.5 Q4.35 -121.95 6.1 -126.15 7.9 -130.5 7.9 -132.5 7.9 -134.55 7.2 -138.1 L7.05 -138.95 Q5.4 -139.6 4.5 -142.05 3.75 -144.1 3.75 -145.65 3.75 -148.0 5.5 -148.55 7.2 -149.15 10.85 -145.7 14.45 -142.25 13.8 -138.8 M68.1 -100.0 Q67.95 -102.2 69.7 -103.8 71.4 -105.4 74.8 -104.7 78.2 -104.0 84.5 -100.35 L92.85 -95.3 Q94.9 -93.9 101.45 -91.35 107.4 -88.4 107.25 -86.8 107.1 -85.25 105.95 -84.9 L101.7 -84.7 Q98.5 -84.8 93.4 -87.7 88.2 -90.6 84.4 -93.0 L79.5 -93.3 Q73.05 -93.45 68.6 -97.8 L68.15 -99.75 68.1 -100.0 M77.0 -77.7 Q74.45 -76.55 67.45 -77.75 70.9 -76.5 71.75 -72.55 71.75 -68.9 70.7 -67.0 68.7 -63.3 62.85 -63.3 61.0 -63.3 55.8 -65.3 51.5 -66.95 50.1 -67.75 50.75 -68.75 51.35 -68.75 L52.95 -68.5 54.5 -68.25 Q61.7 -68.25 63.15 -70.15 L62.35 -72.0 58.75 -74.3 Q58.0 -74.95 58.0 -76.25 58.0 -79.8 60.65 -81.4 63.45 -83.15 73.75 -85.65 78.25 -86.05 84.4 -82.05 L92.35 -76.55 93.4 -75.2 Q93.85 -76.55 96.2 -77.6 99.05 -78.85 102.65 -78.7 112.0 -78.3 112.0 -70.1 112.0 -68.7 110.0 -67.05 107.45 -64.9 103.5 -64.9 98.15 -64.9 95.2 -69.55 93.7 -71.9 93.25 -74.5 L93.35 -75.1 Q88.2 -70.75 81.35 -70.75 77.45 -70.75 76.65 -72.5 76.25 -73.4 76.65 -74.4 76.65 -76.4 77.0 -77.7 M67.75 -38.45 Q71.6 -38.1 75.45 -36.2 L80.75 -33.1 Q80.4 -34.15 80.2 -35.75 79.9 -37.9 79.85 -40.1 79.85 -41.4 83.05 -42.6 86.95 -44.1 93.75 -44.5 101.1 -45.15 104.45 -39.5 106.5 -36.05 106.5 -33.05 106.45 -30.05 103.15 -29.5 L92.95 -28.1 85.55 -27.25 85.65 -26.15 Q85.65 -22.75 78.5 -22.75 72.6 -22.75 66.75 -27.3 61.25 -31.6 61.25 -35.25 61.25 -36.35 61.7 -37.0 63.25 -38.3 65.25 -38.5 L66.25 -38.55 67.75 -38.45 M80.15 -19.65 Q84.9 -16.6 84.9 -14.55 84.9 -11.8 79.85 -11.8 78.15 -11.8 74.4 -13.55 70.4 -15.4 69.5 -15.5 64.1 -16.05 64.1 -19.75 64.1 -21.15 64.75 -21.8 66.25 -23.25 71.0 -23.25 75.3 -22.7 80.15 -19.65 M143.0 -54.95 Q143.0 -62.1 157.25 -62.9 L157.25 -63.0 165.5 -63.0 166.0 -62.9 173.75 -62.75 Q175.3 -62.25 176.15 -60.3 176.75 -58.9 176.75 -57.6 176.75 -55.35 174.4 -54.3 170.3 -52.85 166.75 -51.15 L160.75 -47.95 Q156.55 -46.15 150.35 -46.15 L147.4 -46.55 Q148.3 -45.5 148.8 -43.85 149.4 -41.95 149.4 -39.8 149.4 -37.95 149.0 -37.35 147.75 -35.25 143.0 -35.25 137.95 -35.25 133.9 -39.5 L130.9 -43.75 Q130.9 -45.25 132.9 -46.1 136.35 -47.5 145.7 -47.4 144.15 -48.5 143.45 -50.5 142.7 -52.65 143.0 -54.95 M159.0 -72.25 L159.25 -73.6 Q159.25 -76.3 161.35 -77.9 163.9 -79.9 170.0 -80.5 L177.4 -80.1 180.85 -78.0 Q184.65 -74.65 184.65 -73.75 184.65 -72.15 179.75 -69.4 174.25 -66.4 169.1 -66.4 161.15 -66.4 159.4 -69.8 158.85 -70.9 159.0 -72.25 M88.05 -15.3 L92.3 -15.55 Q96.6 -14.85 97.95 -11.45 L100.5 -10.75 Q100.15 -10.15 98.95 -9.7 L98.4 -9.5 98.5 -7.9 Q98.5 -7.2 97.75 -6.4 96.5 -5.15 93.85 -5.15 88.45 -5.15 86.75 -9.5 85.9 -11.65 86.1 -13.7 86.1 -14.65 88.05 -15.3 M116.75 -18.35 Q119.55 -20.85 123.6 -21.2 L124.75 -21.3 Q129.1 -22.45 130.8 -19.75 131.65 -18.4 131.65 -16.5 131.65 -14.95 128.35 -12.5 L126.0 -10.9 121.75 -8.95 Q118.1 -7.75 116.1 -9.25 113.25 -11.35 113.4 -13.45 113.5 -15.55 116.75 -18.35 M143.75 -29.95 Q143.75 -26.5 135.5 -26.5 133.85 -26.5 133.5 -28.0 133.3 -28.7 133.4 -29.5 133.4 -33.3 140.75 -33.65 142.95 -33.05 143.55 -31.95 143.75 -31.5 143.75 -29.95 M156.5 -15.05 Q150.0 -15.15 150.9 -20.35 150.9 -24.8 156.4 -28.5 161.9 -32.25 165.9 -29.65 173.75 -33.65 181.35 -29.15 184.05 -27.6 185.1 -25.8 186.1 -24.0 185.8 -21.7 185.45 -19.45 182.8 -17.65 180.1 -15.85 178.75 -16.35 168.45 -15.05 167.05 -17.55 162.95 -15.0 156.5 -15.05 M212.85 -154.25 Q212.85 -153.15 212.5 -152.9 L209.1 -152.5 Q207.1 -152.5 206.65 -153.5 L206.6 -154.85 Q206.6 -156.45 209.75 -156.8 212.85 -157.1 212.85 -154.25 M173.25 -149.0 Q171.35 -149.0 171.35 -151.4 171.35 -155.4 177.95 -158.8 180.65 -160.2 182.45 -159.95 184.5 -159.7 184.5 -157.25 184.5 -153.65 180.0 -151.1 176.35 -149.0 173.25 -149.0 M197.9 -140.75 Q201.6 -143.55 206.75 -143.9 L206.75 -144.0 207.1 -143.95 208.5 -144.0 208.05 -143.9 210.7 -143.75 Q214.65 -142.75 214.65 -138.65 214.65 -136.55 210.95 -133.9 206.65 -130.8 201.25 -130.8 197.1 -130.8 195.5 -133.25 194.6 -134.6 194.6 -136.5 194.6 -138.25 197.9 -140.75 M173.65 -114.25 Q173.25 -112.0 171.75 -112.0 167.95 -112.0 164.9 -116.0 162.35 -119.4 162.35 -121.85 162.35 -123.75 163.05 -123.55 L166.75 -121.5 Q173.75 -119.1 173.75 -116.9 L173.65 -114.25 M177.15 -120.45 Q177.15 -124.75 182.7 -122.5 188.0 -120.35 189.25 -117.15 188.85 -116.75 187.85 -116.75 179.9 -116.75 177.95 -117.9 177.15 -118.4 177.15 -120.45 M218.75 -117.9 Q221.45 -118.0 223.2 -116.5 225.25 -114.8 225.25 -111.55 225.25 -109.75 223.55 -107.85 221.15 -105.25 217.0 -105.25 214.3 -105.25 213.0 -109.0 212.35 -110.85 212.25 -112.75 212.25 -115.0 214.3 -116.45 216.2 -117.85 218.75 -117.9 M204.45 -50.15 Q203.45 -48.9 200.25 -47.65 L193.0 -47.65 Q184.8 -49.05 182.6 -50.75 181.0 -52.0 181.0 -55.5 181.0 -57.5 184.75 -59.15 188.45 -60.75 193.1 -60.9 198.15 -61.1 201.4 -59.35 205.15 -57.3 205.15 -53.1 205.15 -51.05 204.45 -50.15 M174.8 -95.7 Q172.3 -93.3 170.35 -93.3 168.5 -93.3 168.0 -95.7 167.8 -96.9 167.9 -98.15 167.9 -101.35 172.45 -101.8 177.0 -102.3 177.0 -98.8 177.0 -97.9 174.8 -95.7 M180.2 29.15 Q183.25 31.75 183.25 33.95 L183.2 37.3 Q183.15 38.45 182.6 38.85 183.5 40.35 183.75 41.75 184.25 44.25 184.25 46.8 184.25 50.15 178.4 54.2 172.55 58.25 165.85 57.6 159.1 56.95 157.25 53.05 155.4 49.1 155.4 46.55 155.4 41.25 161.3 35.65 L161.9 35.1 Q162.6 31.1 165.15 28.75 168.15 26.0 172.8 26.3 177.15 26.55 180.2 29.15 M122.95 31.6 Q121.25 32.65 118.75 32.65 116.9 32.65 116.25 30.6 L116.0 28.5 Q116.0 27.0 116.4 26.65 117.55 25.55 122.0 26.0 123.6 26.85 124.15 27.8 124.5 28.45 124.5 29.35 124.5 30.65 122.95 31.6 M97.0 18.0 Q102.15 18.55 102.15 23.05 102.15 24.65 98.25 27.25 94.05 30.1 90.5 30.1 85.95 30.1 84.3 26.3 L83.5 22.35 Q83.5 19.2 89.5 18.0 L97.0 18.0 M88.4 40.3 Q88.4 41.15 87.45 42.2 86.25 43.65 84.35 43.65 80.8 43.65 80.0 41.25 L79.9 38.75 Q79.9 37.5 80.85 36.45 82.4 34.75 85.75 35.15 88.4 35.4 88.4 40.3 M110.2 78.7 L109.6 78.9 Q102.95 78.9 101.4 75.45 101.1 74.75 101.1 70.5 101.1 66.15 106.55 62.3 112.5 58.1 124.0 55.25 133.85 55.1 136.7 57.1 138.0 58.0 138.0 60.55 138.0 62.3 134.75 63.55 130.6 64.85 128.75 65.5 L123.65 67.6 Q117.75 78.6 111.85 78.6 L110.45 78.6 110.2 78.7 M56.2 17.5 Q59.9 22.2 59.9 28.3 59.9 30.65 57.25 34.1 53.55 39.0 47.35 39.0 43.1 39.0 39.2 27.9 36.15 19.1 36.15 15.9 36.15 12.05 39.85 10.9 43.35 9.8 48.05 11.55 52.95 13.45 56.2 17.5 M8.5 11.65 L8.5 11.95 Q9.75 14.15 9.75 16.85 L9.0 22.55 Q9.0 23.95 12.9 28.25 16.9 32.75 19.0 33.15 23.5 34.1 26.7 38.15 29.25 41.4 29.25 43.65 29.25 47.2 28.85 51.1 L28.0 52.9 Q27.1 54.05 25.6 54.75 23.45 55.75 19.15 56.6 L14.75 56.75 Q5.25 56.4 2.0 51.7 0.5 49.55 0.5 45.55 0.5 36.35 2.85 24.5 L4.05 19.35 5.35 14.0 5.65 12.8 0.4 14.4 Q-5.0 16.1 -10.1 16.1 -16.45 16.1 -21.5 13.35 -26.65 10.5 -26.65 6.8 -26.65 2.55 -21.15 1.4 L-9.05 1.85 Q-2.15 3.25 3.0 6.0 8.5 8.95 8.5 11.65 M38.0 32.35 Q36.8 34.4 33.1 34.4 30.0 34.4 29.2 31.25 L29.0 28.05 Q29.0 26.05 30.5 24.85 31.85 23.7 33.75 23.8 38.5 24.0 38.5 29.8 38.5 31.5 38.0 32.35 M-4.55 -360.4 L-4.25 -357.3 Q-4.25 -356.05 -5.1 -355.15 -6.35 -353.9 -9.1 -353.9 -14.05 -353.9 -15.4 -356.75 -15.8 -357.6 -15.8 -360.0 -15.8 -361.3 -14.45 -362.2 -12.65 -363.5 -8.75 -363.5 -5.45 -363.5 -4.55 -360.4 M-76.75 -314.25 Q-76.75 -318.55 -74.5 -320.25 -70.7 -323.15 -61.0 -318.05 -51.4 -313.65 -49.35 -312.05 -46.65 -310.0 -46.65 -306.1 -46.65 -303.6 -48.15 -300.45 -50.35 -295.9 -54.35 -295.9 -57.7 -295.9 -60.45 -300.2 L-63.3 -305.25 Q-65.75 -307.65 -68.6 -306.75 L-73.75 -306.9 Q-75.35 -307.9 -75.9 -309.3 L-76.75 -311.95 -76.75 -314.25 M-8.0 -335.2 Q-9.55 -332.15 -13.75 -332.15 -17.2 -332.15 -18.55 -334.5 -21.85 -332.55 -23.1 -327.4 -23.85 -324.35 -24.3 -323.55 -25.15 -321.9 -27.0 -321.9 -29.1 -321.9 -29.75 -324.35 -30.1 -325.55 -29.8 -328.2 -29.5 -330.9 -25.3 -334.4 -21.15 -337.9 -19.0 -338.25 -19.4 -341.1 -17.6 -342.45 -15.75 -343.85 -13.35 -344.2 -7.25 -345.05 -7.25 -338.9 -7.25 -336.75 -8.0 -335.2 M-12.25 -315.6 Q-9.0 -316.35 -6.95 -314.55 -4.55 -312.4 -4.55 -307.1 -4.55 -306.0 -5.35 -304.45 -6.2 -302.85 -7.4 -301.8 -10.6 -300.0 -11.05 -299.25 L-11.15 -298.85 Q-8.25 -298.4 -8.25 -295.5 -8.25 -292.5 -11.6 -292.5 -15.0 -292.5 -15.75 -294.0 L-15.9 -295.9 -15.75 -296.95 -19.1 -302.4 Q-20.0 -304.3 -20.0 -308.25 -20.0 -310.45 -17.6 -312.75 -15.2 -314.95 -12.25 -315.6 M-114.15 -291.0 Q-114.15 -289.3 -114.5 -288.9 -115.55 -287.65 -119.85 -287.65 -122.45 -287.65 -124.0 -290.2 -125.05 -291.95 -125.05 -292.95 -125.05 -295.4 -123.35 -296.35 -121.85 -297.2 -119.6 -296.65 -117.4 -296.1 -115.85 -294.6 -114.15 -292.95 -114.15 -291.0 M-110.65 -263.85 Q-110.65 -262.55 -113.45 -260.45 -116.65 -258.15 -119.85 -258.15 -122.3 -258.15 -123.05 -260.2 -123.4 -261.25 -123.3 -262.3 -123.3 -263.95 -121.3 -265.6 -119.45 -267.15 -116.95 -267.75 -110.65 -269.4 -110.65 -263.85 M-84.0 -254.5 Q-78.6 -254.5 -74.55 -251.75 -71.75 -249.85 -70.75 -247.4 L-69.9 -247.45 Q-66.3 -246.9 -66.3 -240.55 -66.3 -239.75 -67.15 -238.8 -68.1 -237.8 -69.1 -237.8 -70.9 -237.8 -71.95 -238.6 -73.75 -235.85 -81.25 -233.15 -88.75 -230.5 -94.15 -232.0 -96.3 -232.95 -97.4 -236.15 -98.15 -238.2 -97.75 -240.3 -97.75 -247.4 -93.45 -251.2 -89.75 -254.5 -84.0 -254.5 M-140.95 -279.9 L-144.95 -280.45 Q-148.45 -280.75 -152.95 -286.0 -157.5 -291.25 -157.5 -295.0 -157.5 -296.55 -155.2 -297.5 -152.1 -298.9 -147.05 -296.75 -144.6 -295.7 -143.45 -294.1 -142.9 -293.35 -142.25 -291.5 -140.0 -285.65 -138.55 -281.0 L-139.0 -280.0 -140.95 -279.9 M-141.8 -265.75 Q-141.05 -266.25 -137.6 -270.2 -135.6 -272.1 -135.65 -271.5 L-125.15 -271.9 Q-117.65 -271.45 -118.05 -270.35 -118.5 -269.35 -121.9 -269.35 -125.35 -269.4 -127.9 -268.45 -130.5 -267.55 -131.9 -266.5 -133.2 -265.55 -133.5 -264.75 L-134.4 -261.65 Q-135.05 -259.6 -136.15 -258.15 L-137.3 -254.95 Q-138.05 -252.85 -140.5 -251.8 -146.6 -249.25 -149.75 -246.9 L-150.2 -247.3 -150.25 -247.9 Q-150.25 -249.05 -148.75 -252.15 L-147.35 -255.25 Q-148.15 -255.7 -148.5 -256.95 L-148.8 -258.9 Q-148.8 -262.25 -146.8 -263.35 L-141.8 -265.75 M-150.15 -268.9 L-153.2 -268.2 -156.55 -267.55 -159.15 -266.45 -161.35 -265.55 Q-167.65 -265.55 -169.25 -267.95 -169.65 -268.55 -169.65 -270.8 -169.65 -275.3 -162.2 -273.9 -156.05 -272.75 -150.25 -269.25 L-150.15 -268.9 M-136.5 -251.9 Q-136.5 -253.3 -136.0 -254.0 -135.1 -255.25 -132.5 -255.25 L-130.2 -254.85 Q-129.55 -254.5 -128.6 -254.4 -127.7 -254.3 -125.55 -254.95 -123.4 -255.65 -123.1 -254.25 -122.8 -252.9 -128.45 -250.75 -133.8 -248.75 -135.0 -248.75 -136.4 -248.75 -136.5 -251.9 M-125.75 -236.55 Q-126.65 -236.6 -126.55 -238.7 -126.5 -240.8 -123.85 -243.95 -121.2 -247.1 -119.0 -247.8 L-119.0 -247.1 Q-119.0 -246.15 -120.1 -243.95 L-121.65 -240.05 Q-122.1 -238.35 -123.35 -237.5 L-125.0 -236.5 -125.75 -236.55 M-158.8 -242.15 L-156.85 -242.2 Q-156.25 -242.05 -156.25 -241.4 -156.25 -240.85 -161.75 -239.55 -167.8 -238.15 -170.15 -238.15 -172.55 -238.15 -173.9 -238.9 -175.25 -239.7 -177.55 -240.35 -179.85 -241.0 -181.35 -239.65 -182.9 -238.35 -185.4 -238.15 -187.95 -237.95 -188.5 -238.75 -189.1 -239.6 -188.8 -240.65 -188.4 -242.2 -187.0 -243.8 -185.6 -245.45 -178.75 -246.0 L-173.25 -243.65 Q-168.45 -241.75 -163.3 -241.75 L-161.15 -241.85 -158.8 -242.15 M-157.15 -208.85 Q-152.8 -209.1 -152.8 -204.8 -152.8 -203.0 -155.35 -200.85 -157.9 -198.7 -159.7 -197.5 -161.5 -196.3 -161.3 -197.35 L-160.8 -199.25 -161.15 -201.85 -161.5 -204.8 Q-161.5 -208.65 -157.15 -208.85 M-124.5 -205.5 Q-124.5 -207.7 -121.0 -209.4 -117.75 -210.95 -113.25 -211.25 -108.65 -211.65 -105.55 -210.45 -102.05 -209.05 -102.05 -206.1 -102.05 -204.9 -104.9 -203.35 -107.75 -201.85 -109.0 -202.05 L-113.3 -202.75 -117.45 -203.6 -120.15 -204.2 -124.5 -205.0 -124.5 -205.5 M-87.4 -207.6 Q-82.6 -214.65 -74.25 -213.3 -70.0 -212.3 -68.9 -209.95 -68.5 -209.05 -68.5 -206.0 -68.5 -203.8 -71.3 -201.6 L-78.65 -196.75 -88.5 -188.8 Q-90.0 -188.8 -90.45 -193.9 L-90.65 -199.1 Q-90.65 -202.8 -87.4 -207.6 M-36.5 -256.25 Q-41.05 -254.9 -43.75 -256.25 -46.05 -256.8 -47.4 -258.7 -48.5 -260.2 -48.5 -261.4 -48.5 -263.75 -45.25 -266.25 -41.05 -269.5 -34.25 -269.5 L-19.75 -268.55 Q-18.5 -267.4 -17.25 -267.0 -11.6 -265.2 -8.5 -265.45 -5.3 -265.9 -4.75 -264.25 -4.4 -263.25 -4.4 -261.8 -4.4 -261.0 -5.9 -260.15 -7.75 -259.15 -10.5 -259.15 -14.25 -259.15 -17.8 -261.55 -20.15 -260.85 -26.5 -260.45 -35.55 -256.4 -36.5 -256.25 M-31.25 -237.25 Q-30.45 -234.55 -26.95 -233.0 L-18.0 -230.0 Q-18.95 -227.6 -26.8 -228.05 -34.7 -228.5 -37.25 -232.9 -39.8 -237.35 -39.65 -241.0 -39.65 -242.55 -37.8 -243.65 -35.6 -244.9 -33.55 -242.0 -31.75 -239.35 -31.25 -237.25 M-20.5 -200.05 Q-17.8 -201.55 -14.5 -201.05 -10.35 -201.35 -9.15 -194.25 -8.75 -191.75 -8.75 -185.4 -8.75 -182.7 -10.7 -180.8 -12.55 -178.95 -16.0 -178.3 L-17.5 -177.25 Q-20.65 -175.3 -24.85 -175.3 -29.9 -175.3 -32.05 -180.3 -33.4 -183.4 -33.6 -187.1 -33.85 -190.8 -31.3 -194.65 -28.8 -198.55 -25.45 -198.85 L-21.75 -199.25 -20.5 -200.05 M-196.3 -277.8 Q-194.05 -279.7 -190.75 -280.05 -187.55 -280.4 -185.25 -279.05 -182.75 -277.55 -182.75 -274.65 -182.75 -273.2 -184.85 -270.65 -187.85 -267.05 -192.6 -267.05 -196.85 -267.05 -198.25 -269.75 -198.95 -271.05 -198.8 -272.45 -198.8 -275.7 -196.3 -277.8 M-198.5 -248.6 Q-198.5 -244.15 -200.5 -239.55 -204.2 -231.25 -212.75 -231.25 -218.55 -231.25 -220.4 -236.8 -221.35 -239.55 -221.15 -242.4 -221.15 -248.05 -217.6 -252.85 -214.35 -257.2 -209.8 -258.8 -205.15 -260.45 -202.05 -258.15 -198.5 -255.5 -198.5 -248.6 M-223.75 -234.55 Q-220.1 -234.7 -220.55 -228.5 -221.0 -222.35 -224.9 -222.55 -228.85 -222.75 -229.65 -225.3 -230.15 -226.75 -230.15 -228.6 -230.2 -230.45 -228.8 -232.45 -227.45 -234.45 -223.75 -234.55 M-212.75 -199.8 Q-213.9 -199.5 -213.9 -200.25 -213.95 -201.0 -210.2 -203.05 -206.45 -205.15 -203.75 -204.65 -200.65 -204.7 -198.95 -203.45 -197.75 -202.55 -197.75 -201.75 -197.75 -201.3 -204.6 -200.2 L-212.75 -199.8 M-166.75 -178.7 Q-165.45 -180.5 -161.75 -180.5 -157.5 -180.5 -155.9 -178.0 -155.15 -176.8 -155.15 -175.2 -155.15 -173.65 -157.45 -172.25 -159.95 -170.75 -163.25 -170.75 -165.9 -170.75 -166.9 -173.35 -167.4 -174.65 -167.4 -176.0 -167.4 -177.8 -166.75 -178.7 M-168.2 -150.25 L-164.85 -151.0 Q-160.85 -151.0 -160.0 -147.65 L-160.0 -144.25 Q-160.0 -142.95 -160.75 -141.95 -162.05 -140.3 -165.1 -140.3 -170.95 -140.3 -174.5 -144.65 -177.0 -147.7 -177.0 -149.65 -177.0 -151.85 -175.5 -151.05 -172.5 -149.55 -170.9 -149.55 L-168.2 -150.25 M-212.65 -188.1 Q-212.25 -187.1 -212.25 -184.6 -212.25 -181.7 -212.75 -181.0 -214.55 -178.5 -221.85 -178.5 -224.4 -178.5 -225.05 -182.0 -225.4 -183.75 -225.25 -185.55 -225.25 -187.0 -223.5 -189.15 -220.95 -192.15 -217.0 -191.0 -213.65 -190.3 -212.65 -188.1 M-214.0 -132.2 Q-211.6 -131.45 -209.9 -129.65 -208.0 -127.6 -208.0 -125.15 -208.0 -124.25 -209.25 -123.2 -211.0 -121.75 -214.1 -121.75 -218.6 -121.75 -219.75 -125.15 -220.35 -126.9 -220.05 -128.75 -220.05 -131.25 -218.15 -132.15 -216.45 -132.95 -214.0 -132.2 M-224.85 -109.2 Q-224.95 -107.95 -228.6 -107.45 L-236.25 -106.95 Q-240.2 -106.95 -241.0 -107.6 -241.75 -108.25 -241.75 -108.95 -241.7 -110.15 -241.3 -110.5 -240.1 -111.3 -235.65 -111.35 -224.75 -111.45 -224.85 -109.2 M-170.9 -126.9 Q-168.7 -123.9 -169.35 -121.2 -170.0 -118.55 -172.65 -115.55 -176.05 -111.75 -180.6 -111.75 -184.9 -111.75 -189.7 -116.75 -194.0 -121.2 -194.0 -123.55 -194.0 -125.9 -193.2 -127.05 -191.9 -129.0 -188.0 -129.9 L-181.0 -129.9 Q-173.1 -129.95 -170.9 -126.9 M-162.65 -112.1 Q-160.95 -113.4 -158.4 -112.6 -155.95 -111.85 -154.15 -109.7 -152.25 -107.4 -152.25 -104.65 -152.25 -99.0 -154.3 -95.5 -156.15 -92.35 -162.75 -85.0 -164.05 -87.25 -163.8 -90.0 L-163.25 -94.3 Q-163.25 -95.95 -163.9 -100.5 L-164.55 -107.0 Q-164.55 -110.65 -162.65 -112.1 M-266.0 -109.45 Q-262.4 -111.15 -257.2 -110.2 -252.0 -109.25 -248.4 -106.25 -244.4 -102.9 -244.4 -98.45 -244.4 -95.85 -248.55 -94.25 -252.35 -92.75 -257.0 -92.65 -261.25 -93.2 -263.25 -94.3 -270.0 -98.1 -270.0 -103.0 -270.0 -107.5 -266.0 -109.45 M-264.3 -56.25 L-262.6 -57.1 Q-254.4 -60.8 -241.15 -58.25 L-241.0 -57.9 Q-250.05 -54.5 -253.1 -46.2 -254.5 -42.45 -255.45 -41.4 -257.25 -39.4 -261.25 -39.4 -267.05 -39.4 -268.65 -44.5 L-269.05 -46.25 Q-270.1 -51.5 -266.15 -54.9 L-264.3 -56.25 M-173.65 -91.55 Q-172.5 -89.65 -172.75 -87.55 -173.0 -85.55 -173.5 -84.7 -174.05 -83.85 -175.95 -83.55 -177.85 -83.2 -183.55 -84.3 -184.9 -84.3 -185.5 -83.9 L-188.25 -83.55 Q-192.7 -83.55 -194.3 -85.45 -195.05 -86.35 -195.05 -87.55 L-194.8 -89.2 Q-194.05 -90.4 -191.0 -90.4 -189.9 -90.4 -187.7 -89.3 L-185.65 -88.25 Q-183.1 -88.25 -180.3 -90.1 -174.8 -93.5 -173.65 -91.55 M-211.75 -89.0 Q-213.7 -88.0 -216.25 -88.0 -218.75 -88.0 -220.8 -89.3 -221.15 -88.6 -225.4 -86.3 -230.4 -83.55 -231.75 -79.5 L-232.25 -79.3 Q-232.85 -79.7 -233.4 -81.2 -233.9 -82.6 -233.9 -83.5 -233.9 -89.45 -227.35 -92.1 -224.7 -93.15 -222.85 -92.55 L-222.1 -92.2 -220.5 -93.3 Q-217.65 -95.0 -214.1 -95.0 -211.95 -95.0 -210.75 -92.95 L-210.0 -90.75 Q-210.0 -89.85 -211.75 -89.0 M-177.9 -37.15 Q-179.8 -35.55 -182.5 -35.55 -186.55 -35.55 -187.65 -39.5 -188.25 -41.5 -188.0 -43.65 -188.0 -44.6 -186.8 -46.05 -185.15 -48.1 -182.5 -47.4 -178.15 -46.8 -176.9 -43.85 -176.4 -42.65 -176.4 -39.4 -176.4 -38.45 -177.9 -37.15 M-26.0 -151.7 Q-22.9 -151.8 -23.7 -147.55 -23.9 -146.4 -24.2 -145.6 L-24.8 -143.8 Q-25.4 -141.95 -26.0 -141.4 L-26.35 -141.5 Q-26.35 -142.2 -27.1 -144.05 -29.8 -143.7 -29.9 -146.35 L-29.55 -149.1 Q-29.1 -151.55 -26.0 -151.7 M-48.85 -175.75 Q-43.15 -175.75 -41.75 -169.35 -41.3 -167.3 -41.35 -164.8 L-41.5 -162.55 Q-41.5 -159.5 -43.2 -154.15 -44.75 -149.1 -47.0 -147.3 -44.85 -143.75 -42.9 -139.65 -40.05 -133.65 -40.05 -131.35 -39.5 -128.9 -39.5 -128.25 -39.5 -127.2 -39.75 -126.65 -40.2 -125.75 -41.5 -125.25 L-43.85 -125.25 Q-50.9 -125.25 -55.25 -137.6 -57.45 -143.8 -58.25 -150.45 -58.25 -157.25 -55.4 -156.55 -53.5 -156.1 -50.6 -152.5 L-52.35 -157.75 Q-54.75 -165.55 -54.75 -169.8 -54.75 -171.75 -53.8 -173.3 -52.35 -175.75 -48.85 -175.75 M-69.5 -174.4 L-69.0 -170.95 Q-68.5 -168.1 -68.5 -167.1 -68.5 -166.2 -69.3 -165.55 -70.35 -164.8 -72.35 -164.8 -74.6 -164.8 -77.05 -167.75 -79.25 -170.35 -79.25 -171.75 -79.25 -173.65 -75.2 -176.95 -69.9 -181.25 -69.25 -182.05 -65.4 -186.95 -60.8 -188.5 -56.05 -190.15 -56.05 -186.05 -56.05 -184.55 -62.75 -180.3 -69.5 -176.0 -69.5 -174.4 M-74.55 -153.7 Q-71.0 -151.4 -68.55 -147.7 -65.8 -143.6 -65.8 -139.7 -65.8 -136.6 -68.25 -131.85 -70.35 -127.7 -73.25 -126.15 -73.75 -123.95 -75.0 -122.4 -78.55 -118.05 -87.85 -118.05 -94.15 -118.05 -95.65 -124.45 -96.0 -125.8 -96.0 -131.8 -96.0 -134.45 -92.95 -137.25 -88.9 -140.95 -82.75 -139.15 L-81.25 -138.6 -82.4 -142.1 Q-83.3 -145.65 -83.3 -150.4 -83.3 -154.65 -80.55 -155.35 -78.1 -156.0 -74.55 -153.7 M-41.85 -117.1 L-37.9 -117.2 -37.9 -117.3 Q-38.4 -117.6 -38.45 -118.35 L-38.25 -120.1 Q-38.25 -128.1 -32.0 -136.85 -29.45 -140.45 -27.7 -140.85 -25.75 -141.3 -25.75 -137.35 -25.75 -136.5 -28.55 -132.9 -31.35 -129.35 -32.5 -127.1 -33.65 -124.9 -34.45 -122.05 L-36.05 -117.25 -36.05 -117.2 -36.15 -116.3 -34.0 -114.75 Q-32.5 -112.85 -31.4 -110.65 -30.25 -108.4 -30.0 -106.65 L-28.05 -97.05 Q-27.7 -95.25 -27.65 -91.3 -26.0 -90.25 -26.0 -88.4 -26.0 -85.1 -28.45 -80.7 -31.4 -75.45 -36.2 -74.45 L-36.0 -73.75 Q-33.5 -67.5 -33.5 -66.2 L-33.55 -62.75 Q-30.0 -62.55 -25.7 -61.15 -19.7 -59.2 -16.0 -55.65 -12.35 -52.15 -11.9 -47.35 -11.45 -42.6 -12.65 -39.0 -13.85 -35.4 -20.35 -35.4 L-20.5 -35.4 Q-20.2 -30.6 -22.2 -24.5 -24.25 -18.45 -34.15 -18.0 -44.1 -17.55 -53.9 -22.15 -63.75 -26.8 -63.75 -34.75 -63.75 -36.5 -63.35 -37.7 L-62.6 -39.35 Q-65.3 -39.85 -69.5 -42.25 -73.0 -44.25 -74.05 -45.4 -74.55 -43.95 -75.8 -42.7 -78.8 -39.75 -85.1 -39.75 -93.4 -39.75 -96.65 -40.85 -101.55 -42.5 -105.55 -48.3 -107.3 -50.75 -111.6 -53.35 -114.8 -55.25 -114.8 -57.65 -114.8 -59.35 -112.7 -61.0 -109.9 -63.25 -105.5 -61.8 -104.0 -61.35 -100.25 -58.8 -97.7 -57.05 -92.0 -56.8 -87.9 -56.65 -81.2 -53.65 L-78.5 -52.3 -79.8 -56.0 Q-80.55 -58.3 -80.55 -62.1 -80.55 -65.95 -78.05 -67.65 L-75.2 -69.45 Q-74.7 -74.55 -71.35 -78.0 -67.8 -81.65 -62.65 -82.1 -57.55 -82.55 -54.0 -79.55 -50.05 -76.25 -50.05 -70.1 -50.05 -68.65 -50.9 -65.15 L-51.8 -62.2 -50.85 -61.3 -49.25 -61.5 -47.0 -61.7 -47.25 -62.9 Q-48.0 -66.55 -48.0 -68.15 -48.0 -71.75 -45.15 -75.75 L-45.3 -76.5 -45.5 -79.7 Q-45.5 -81.35 -43.1 -83.5 -42.8 -86.85 -40.45 -89.15 -38.15 -91.45 -34.55 -92.2 L-34.05 -92.3 -33.0 -97.25 Q-33.0 -99.85 -38.2 -104.7 -43.4 -109.6 -43.4 -113.25 -43.4 -115.9 -41.85 -117.1 M-93.35 -182.1 Q-91.8 -182.95 -89.75 -183.15 -84.5 -183.6 -84.5 -179.65 -84.5 -178.15 -86.0 -175.8 -88.0 -172.65 -91.0 -172.65 -93.4 -172.65 -94.45 -176.5 L-95.0 -180.2 Q-95.0 -181.2 -93.35 -182.1 M-104.9 -150.8 L-109.0 -146.2 Q-111.75 -142.85 -112.05 -139.5 -112.4 -136.15 -118.85 -135.0 -120.9 -135.0 -121.55 -137.65 -121.9 -138.95 -121.8 -140.35 -121.8 -141.65 -119.35 -144.3 -116.85 -147.0 -113.35 -149.45 -104.2 -155.75 -97.3 -154.0 -103.55 -152.1 -104.9 -150.8 M-157.75 -153.1 Q-157.75 -156.6 -154.5 -157.15 -151.3 -157.7 -151.3 -153.3 -151.3 -152.15 -152.7 -150.75 L-155.75 -148.5 -157.35 -150.85 Q-157.75 -151.55 -157.75 -153.1 M-142.8 -102.9 Q-142.1 -105.15 -138.85 -105.15 L-136.25 -104.65 -133.5 -104.15 Q-131.95 -104.15 -128.6 -105.65 -125.25 -107.2 -125.3 -105.55 -125.35 -103.9 -129.05 -99.45 -132.75 -95.05 -137.1 -94.55 -141.5 -94.05 -142.35 -96.2 -143.2 -98.4 -142.9 -100.1 L-142.8 -102.9 M-115.5 -102.7 Q-118.25 -104.75 -120.8 -104.8 L-115.6 -105.25 Q-109.85 -102.6 -108.6 -97.6 -108.15 -90.9 -107.3 -88.25 -106.8 -84.2 -104.0 -78.65 -101.65 -74.05 -98.75 -70.15 -99.15 -69.75 -99.6 -69.75 L-99.95 -69.8 -100.1 -69.8 -102.45 -70.15 -103.85 -70.0 Q-105.8 -70.0 -110.8 -73.8 L-116.25 -78.15 Q-119.1 -80.3 -120.85 -82.75 -122.75 -85.4 -122.75 -87.5 -122.75 -93.75 -117.25 -94.65 L-114.9 -94.7 -114.2 -96.0 Q-112.9 -98.3 -112.9 -99.2 -112.9 -100.75 -115.5 -102.7 M-118.15 -60.2 Q-119.8 -59.55 -122.6 -59.55 -125.25 -59.55 -125.75 -60.8 L-125.8 -62.55 Q-125.8 -63.9 -121.25 -63.55 -116.75 -63.2 -116.75 -61.65 -116.75 -60.8 -118.15 -60.2 M-143.95 -66.7 Q-142.75 -67.8 -140.1 -67.8 -133.8 -67.8 -130.9 -62.65 -130.0 -61.0 -129.55 -59.0 L-129.25 -57.15 Q-129.25 -55.05 -131.0 -52.0 -133.45 -47.75 -137.35 -47.75 -144.45 -47.75 -146.8 -53.1 -148.0 -55.8 -148.05 -59.0 -149.2 -60.85 -153.75 -66.0 L-157.55 -70.3 -158.25 -71.15 Q-158.25 -73.1 -156.3 -71.75 L-152.65 -69.2 Q-146.65 -65.65 -146.45 -65.65 -145.2 -65.65 -143.95 -66.7 M-135.15 -0.8 Q-134.8 -0.3 -134.8 1.25 -134.8 5.15 -138.35 7.1 -141.9 9.0 -148.5 9.5 -155.15 10.0 -155.8 8.35 -156.45 6.7 -156.3 5.55 -156.3 2.95 -153.75 1.05 -149.6 -2.05 -139.75 -2.0 -136.15 -2.45 -135.15 -0.8 M-94.5 -29.25 Q-95.3 -28.25 -97.5 -28.25 -101.85 -28.25 -103.1 -31.1 -103.5 -32.05 -103.5 -34.75 -103.5 -38.05 -98.75 -36.25 -94.0 -34.45 -94.0 -31.1 -94.0 -29.85 -94.5 -29.25 M-93.6 -4.9 Q-91.85 -6.1 -87.75 -6.15 -83.65 -6.25 -83.25 -3.05 -82.9 0.15 -84.8 2.1 -87.1 4.4 -90.0 4.4 -93.8 4.4 -94.95 1.5 -95.4 0.4 -95.4 -1.95 -95.4 -3.7 -93.6 -4.9 M-66.3 -32.4 Q-63.5 -28.25 -63.5 -22.25 -63.5 -14.65 -70.1 -14.65 -77.2 -14.65 -80.0 -21.9 -81.4 -25.6 -81.4 -30.0 -81.4 -34.4 -78.6 -36.4 -76.0 -38.2 -72.45 -37.15 -68.75 -36.0 -66.3 -32.4 M-27.25 39.0 Q-13.6 39.8 -9.35 44.6 -7.25 47.0 -7.25 52.35 -7.25 56.3 -11.7 60.55 -16.15 64.8 -23.35 64.65 -30.6 64.5 -35.5 59.85 -40.4 55.2 -40.4 50.5 -40.4 46.65 -38.5 43.85 -35.25 39.15 -27.25 39.0 M-47.4 20.9 Q-47.4 24.25 -52.7 28.6 -59.0 33.75 -66.85 33.75 -70.65 33.75 -73.05 30.0 -74.75 27.35 -74.75 25.95 -74.75 22.05 -70.5 19.25 -66.7 16.8 -61.05 16.0 -55.6 15.2 -51.65 16.45 -47.4 17.8 -47.4 20.9 M-50.0 35.5 Q-51.05 36.75 -52.85 36.75 -55.3 36.75 -56.0 35.35 L-56.25 33.9 Q-56.25 30.35 -52.75 29.65 -49.25 28.9 -49.25 33.55 -49.25 34.55 -50.0 35.5 M-112.55 24.05 Q-112.55 25.1 -113.55 25.85 -114.95 26.9 -117.75 26.9 -121.75 26.9 -122.95 25.15 -123.5 24.45 -123.5 22.8 -123.5 21.0 -121.8 20.0 -120.2 19.1 -118.0 19.25 -112.55 19.6 -112.55 24.05 M-107.5 35.9 L-108.4 35.9 Q-108.4 38.05 -109.65 38.65 -112.35 39.9 -123.0 39.9 -128.05 39.9 -130.2 36.5 -131.3 34.8 -131.4 32.85 -131.4 31.0 -130.75 30.25 -129.5 28.8 -125.25 28.1 -115.7 29.65 -112.2 30.95 -111.75 30.25 -110.55 29.65 -107.95 28.3 -103.5 28.65 -100.75 28.65 -100.75 32.55 -100.75 33.75 -102.55 34.75 -104.5 35.9 -107.5 35.9 M-148.7 46.05 Q-159.6 49.5 -162.75 49.5 -166.45 49.5 -167.35 45.25 L-167.5 41.05 Q-167.5 33.95 -163.8 31.15 -160.6 28.7 -155.65 29.9 -151.05 31.05 -147.5 34.45 -143.8 38.05 -143.8 41.85 -143.8 44.2 -148.7 46.05 M-178.85 15.4 Q-178.6 19.75 -182.4 23.95 -186.2 28.15 -194.95 28.15 -203.7 28.15 -206.3 22.0 -207.65 18.9 -207.8 15.55 -207.8 11.25 -206.0 9.15 -203.35 6.05 -195.0 3.5 L-188.25 3.5 Q-181.85 5.15 -180.0 9.2 -179.15 11.05 -178.85 15.4 M-188.05 43.6 L-188.75 47.0 Q-189.35 49.8 -192.55 53.15 -197.75 58.6 -206.1 58.6 -210.9 58.6 -212.55 55.05 -213.4 53.25 -213.3 51.3 -213.3 48.8 -210.15 46.75 L-200.9 41.65 -193.5 36.3 Q-189.25 33.15 -184.5 32.5 -179.5 32.15 -179.5 33.5 -179.5 34.2 -183.1 36.6 -186.9 39.05 -187.25 40.25 L-188.05 43.6" fill="#777777" fill-rule="evenodd" stroke="none"/>
    </g>
  </defs>
</svg>
