<?xml version="1.0" encoding="UTF-8" standalone="no"?>
<svg xmlns:ffdec="https://www.free-decompiler.com/flash" xmlns:xlink="http://www.w3.org/1999/xlink" ffdec:objectType="frame" height="499.45px" width="496.15px" xmlns="http://www.w3.org/2000/svg">
  <g transform="matrix(1.0, 0.0, 0.0, 1.0, 270.5, 376.7)">
    <use ffdec:characterId="152" height="281.85" transform="matrix(1.0, 0.0, 0.0, 1.0, -131.75, -179.15)" width="267.85" xlink:href="#shape0"/>
  </g>
  <defs>
    <g id="shape0" transform="matrix(1.0, 0.0, 0.0, 1.0, 131.75, 179.15)">
      <path d="M-107.45 -98.1 Q-106.85 -100.45 -105.7 -102.45 -103.85 -105.65 -100.0 -108.85 -99.25 -109.45 -96.45 -109.95 -93.05 -110.5 -91.8 -110.95 -88.05 -126.0 -79.3 -130.6 -71.15 -134.85 -63.5 -134.85 -60.65 -134.85 -56.9 -132.85 -53.45 -131.05 -53.0 -129.85 L-52.85 -131.95 -52.75 -132.8 Q-52.4 -135.7 -51.5 -135.9 L-47.75 -136.0 Q-41.75 -136.0 -38.2 -132.6 -38.45 -125.9 -38.0 -113.6 -35.05 -121.85 -29.6 -125.0 -24.15 -128.15 -16.0 -126.85 -13.7 -138.3 -3.3 -144.35 7.05 -150.4 18.35 -148.15 29.65 -145.9 29.5 -135.85 31.05 -140.15 33.35 -142.15 35.6 -144.2 41.45 -142.6 47.3 -141.0 50.5 -126.85 59.7 -129.25 61.95 -119.8 L59.25 -116.75 56.0 -112.85 46.5 -99.85 Q57.2 -107.5 62.05 -106.7 L69.95 -105.7 74.0 -105.2 70.0 -96.35 Q81.5 -106.35 87.0 -107.6 L95.0 -108.85 Q98.85 -108.85 103.25 -107.75 107.65 -106.7 112.95 -104.05 118.3 -101.35 120.0 -87.35 132.05 -87.05 133.35 -78.65 134.65 -70.25 135.5 -68.7 129.55 -52.1 123.95 -50.65 126.15 -47.2 128.0 -43.2 131.35 -35.9 131.35 -31.0 131.35 -17.5 130.1 -12.55 128.3 -5.45 123.5 -0.3 L124.75 4.9 Q128.35 20.2 128.35 22.0 128.35 27.35 124.75 34.85 121.45 41.65 116.6 47.5 110.4 55.0 92.45 60.15 81.5 63.25 73.55 64.05 73.05 67.8 68.5 74.6 65.6 78.95 61.95 83.1 58.6 86.55 54.55 88.75 7.5 114.25 -41.0 93.1 -45.2 89.95 -48.75 86.5 L-51.75 83.45 -61.5 84.0 Q-87.35 84.0 -101.75 61.3 -106.75 53.45 -109.55 44.05 -111.1 38.95 -111.55 35.45 L-112.55 34.0 Q-116.0 28.5 -116.0 20.5 L-115.75 12.15 Q-119.8 3.8 -122.5 1.0 -127.95 -4.7 -130.1 -12.25 L-130.7 -14.8 -128.75 -20.8 Q-125.1 -30.65 -119.0 -40.0 -112.95 -45.25 -106.0 -50.5 -100.0 -55.1 -95.7 -57.65 L-99.4 -75.9 -96.75 -79.9 Q-101.65 -82.45 -105.0 -90.55 -106.55 -94.3 -107.45 -98.1 M86.0 -112.85 L85.25 -112.15 85.45 -113.0 86.0 -112.85 M21.0 -57.8 Q19.55 -61.3 11.95 -66.45 4.3 -71.6 -5.1 -69.4 L-20.05 -66.15 Q-25.6 -65.15 -29.4 -62.8 -33.25 -60.45 -36.45 -54.25 -39.7 -48.05 -42.0 -46.0 -44.8 -43.4 -46.8 -39.85 -49.35 -35.4 -49.5 -31.0 -39.4 -40.45 -27.5 -37.0 -17.55 -47.85 10.0 -45.0 15.0 -52.5 29.5 -43.0 35.75 -48.35 45.5 -42.5 42.25 -46.25 39.75 -49.6 37.0 -51.75 34.5 -52.8 31.95 -53.85 27.2 -54.1 22.4 -54.35 21.0 -57.8 M35.05 -0.65 Q27.65 21.45 7.65 14.2 5.5 13.4 4.25 11.5 -10.85 20.75 -23.5 5.7 L-27.3 1.5 -28.5 1.3 Q-35.75 8.95 -44.9 2.15 -46.85 0.7 -49.0 -0.35 L-49.2 5.75 Q-52.7 8.85 -57.7 8.9 -60.9 9.3 -64.25 8.75 -50.8 12.95 -46.9 26.8 -50.3 29.7 -54.85 29.25 -56.8 29.0 -58.75 29.25 L-58.7 29.9 -57.3 31.25 Q-60.25 34.05 -64.4 33.2 L-71.35 32.2 -68.05 34.9 -68.0 35.5 -57.5 47.6 -58.75 51.05 -51.8 50.65 Q-44.95 53.9 -40.65 60.2 -39.9 61.35 -38.55 61.65 -23.95 58.15 -12.85 67.0 9.8 58.15 33.65 66.75 47.65 49.5 66.2 36.8 69.35 37.05 72.3 35.9 74.1 35.2 75.55 34.05 L75.2 33.45 Q65.85 29.65 72.35 20.8 L76.6 14.8 75.5 14.0 Q67.1 17.45 65.55 9.7 64.2 2.8 61.6 -4.05 61.25 -5.0 61.55 -6.2 L60.75 -7.7 60.0 -8.1 Q58.5 0.65 52.65 4.55 46.8 8.4 39.65 7.5 L36.35 -0.9 35.05 -0.65" fill="#363636" fill-rule="evenodd" stroke="none"/>
      <path d="M135.5 -68.7 Q134.65 -70.25 133.35 -78.65 132.05 -87.05 120.0 -87.35 118.3 -101.35 112.95 -104.05 107.65 -106.7 103.25 -107.75 98.85 -108.85 95.0 -108.85 L87.0 -107.6 Q81.5 -106.35 70.0 -96.35 L74.0 -105.2 69.95 -105.7 62.05 -106.7 Q57.2 -107.5 46.5 -99.85 L56.0 -112.85 59.25 -116.75 61.95 -119.8 Q59.7 -129.25 50.5 -126.85 47.3 -141.0 41.45 -142.6 35.6 -144.2 33.35 -142.15 31.05 -140.15 29.5 -135.85 29.65 -145.9 18.35 -148.15 7.05 -150.4 -3.3 -144.35 -13.7 -138.3 -16.0 -126.85 -24.15 -128.15 -29.6 -125.0 -35.05 -121.85 -38.0 -113.6 -38.45 -125.9 -38.2 -132.6 -41.75 -136.0 -47.75 -136.0 L-51.5 -135.9 Q-52.4 -135.7 -52.75 -132.8 L-52.85 -131.95 -53.0 -129.85 Q-53.45 -131.05 -56.9 -132.85 -60.65 -134.85 -63.5 -134.85 -71.15 -134.85 -79.3 -130.6 -88.05 -126.0 -91.8 -110.95 -93.05 -110.5 -96.45 -109.95 -99.25 -109.45 -100.0 -108.85 -103.85 -105.65 -105.7 -102.45 -106.85 -100.45 -107.45 -98.1 L-108.25 -102.5 Q-108.25 -107.55 -105.85 -114.85 -103.25 -122.7 -98.85 -129.9 L-98.15 -131.0 Q-84.35 -155.1 -56.65 -151.0 -48.7 -149.65 -40.6 -149.3 L-32.0 -159.85 -28.1 -163.7 Q-5.45 -184.75 16.0 -177.1 33.95 -172.4 46.85 -163.75 51.5 -160.65 54.55 -157.6 L56.6 -156.3 56.6 -155.4 Q59.15 -152.35 60.05 -149.4 65.1 -140.55 65.1 -123.25 L65.35 -122.75 73.55 -124.25 Q82.2 -125.75 85.35 -125.75 119.85 -125.75 131.15 -101.25 134.85 -93.15 135.8 -82.65 136.1 -79.6 136.1 -70.5 L135.5 -68.7 M-99.4 -75.9 L-95.7 -57.65 Q-100.0 -55.1 -106.0 -50.5 -112.95 -45.25 -119.0 -40.0 -125.1 -30.65 -128.75 -20.8 L-130.7 -14.8 Q-131.75 -19.65 -131.75 -26.0 -131.75 -38.4 -127.6 -48.2 -123.5 -58.0 -115.3 -61.75 -107.1 -65.55 -103.75 -69.9 L-99.4 -75.9 M86.0 -112.85 L85.45 -113.0 85.25 -112.15 86.0 -112.85 M21.0 -57.8 Q22.4 -54.35 27.2 -54.1 31.95 -53.85 34.5 -52.8 37.0 -51.75 39.75 -49.6 42.25 -46.25 45.5 -42.5 35.75 -48.35 29.5 -43.0 15.0 -52.5 10.0 -45.0 -17.55 -47.85 -27.5 -37.0 -39.4 -40.45 -49.5 -31.0 -49.35 -35.4 -46.8 -39.85 -44.8 -43.4 -42.0 -46.0 -39.7 -48.05 -36.45 -54.25 -33.25 -60.45 -29.4 -62.8 -25.6 -65.15 -20.05 -66.15 L-5.1 -69.4 Q4.3 -71.6 11.95 -66.45 19.55 -61.3 21.0 -57.8" fill="#616161" fill-rule="evenodd" stroke="none"/>
      <path d="M35.05 -0.65 L36.35 -0.9 39.65 7.5 Q46.8 8.4 52.65 4.55 58.5 0.65 60.0 -8.1 L60.75 -7.7 61.55 -6.2 Q61.25 -5.0 61.6 -4.05 64.2 2.8 65.55 9.7 67.1 17.45 75.5 14.0 L76.6 14.8 72.35 20.8 Q65.85 29.65 75.2 33.45 L75.55 34.05 Q74.1 35.2 72.3 35.9 69.35 37.05 66.2 36.8 47.65 49.5 33.65 66.75 9.8 58.15 -12.85 67.0 -23.95 58.15 -38.55 61.65 -39.9 61.35 -40.65 60.2 -44.95 53.9 -51.8 50.65 L-58.75 51.05 -57.5 47.6 -68.0 35.5 -68.05 34.9 -71.35 32.2 -64.4 33.2 Q-60.25 34.05 -57.3 31.25 L-58.7 29.9 -58.75 29.25 Q-56.8 29.0 -54.85 29.25 -50.3 29.7 -46.9 26.8 -50.8 12.95 -64.25 8.75 -60.9 9.3 -57.7 8.9 -52.7 8.85 -49.2 5.75 L-49.0 -0.35 Q-46.85 0.7 -44.9 2.15 -35.75 8.95 -28.5 1.3 L-27.3 1.5 -23.5 5.7 Q-10.85 20.75 4.25 11.5 5.5 13.4 7.65 14.2 27.65 21.45 35.05 -0.65 M64.55 20.3 Q62.4 19.75 61.1 18.25 57.15 13.75 56.0 7.55 50.6 14.25 42.8 17.15 36.45 19.35 34.0 13.85 29.45 17.25 24.25 20.3 12.2 27.25 2.0 18.05 0.0 20.2 -3.05 20.75 -21.75 24.8 -29.85 8.3 L-30.25 9.85 -31.55 10.25 Q-34.05 11.15 -36.65 10.65 -40.75 10.3 -44.6 8.55 L-44.85 9.95 -45.5 11.25 -46.85 12.75 Q-43.6 15.45 -40.95 18.6 -36.5 24.05 -36.35 31.0 L-36.8 31.3 -37.2 31.55 -38.15 31.7 -39.6 31.5 -41.1 31.0 -41.75 32.0 Q-42.75 34.0 -44.55 35.2 -50.05 38.9 -56.5 37.25 L-56.5 38.3 Q-50.1 41.05 -44.2 44.65 -38.75 48.0 -38.0 54.0 L-37.5 54.8 Q-35.3 52.45 -32.25 51.9 -17.1 48.9 -8.2 61.0 L-7.3 61.15 -4.95 59.6 Q14.75 49.65 35.9 59.1 39.3 43.2 59.25 34.55 L59.45 30.25 Q59.5 29.35 59.7 28.5 60.85 23.8 64.55 20.3" fill="#844823" fill-rule="evenodd" stroke="none"/>
      <path d="M64.55 20.3 Q60.85 23.8 59.7 28.5 59.5 29.35 59.45 30.25 L59.25 34.55 Q39.3 43.2 35.9 59.1 14.75 49.65 -4.95 59.6 L-7.3 61.15 -8.2 61.0 Q-17.1 48.9 -32.25 51.9 -35.3 52.45 -37.5 54.8 L-38.0 54.0 Q-38.75 48.0 -44.2 44.65 -50.1 41.05 -56.5 38.3 L-56.5 37.25 Q-50.05 38.9 -44.55 35.2 -42.75 34.0 -41.75 32.0 L-41.1 31.0 -39.6 31.5 -38.15 31.7 -37.2 31.55 -36.8 31.3 -36.35 31.0 Q-36.5 24.05 -40.95 18.6 -43.6 15.45 -46.85 12.75 L-45.5 11.25 -44.85 9.95 -44.6 8.55 Q-40.75 10.3 -36.65 10.65 -34.05 11.15 -31.55 10.25 L-30.25 9.85 -29.85 8.3 Q-21.75 24.8 -3.05 20.75 0.0 20.2 2.0 18.05 12.2 27.25 24.25 20.3 29.45 17.25 34.0 13.85 36.45 19.35 42.8 17.15 50.6 14.25 56.0 7.55 57.15 13.75 61.1 18.25 62.4 19.75 64.55 20.3 M57.75 22.05 L57.2 21.9 Q53.9 20.2 53.25 16.15 49.85 18.5 46.95 21.0 37.25 29.6 33.05 20.5 L32.05 20.5 31.3 21.65 29.95 22.9 Q30.5 23.9 30.5 24.75 30.5 35.3 17.5 37.0 19.65 35.85 20.9 33.75 22.0 31.9 22.0 30.0 L21.85 27.95 Q11.6 31.6 1.0 22.3 -19.15 32.0 -30.25 14.8 L-38.35 15.05 Q-36.75 20.4 -33.45 25.3 -31.25 28.65 -31.05 31.0 -28.6 32.1 -26.05 32.65 L-17.5 33.0 -23.2 34.5 Q-27.4 35.5 -29.75 35.5 L-33.05 35.45 -34.0 35.3 -37.0 36.05 -41.1 40.0 -35.1 48.9 Q-15.2 39.25 -5.0 57.0 1.95 52.1 9.1 50.05 L8.0 49.15 Q5.8 47.25 5.5 45.5 L5.5 44.5 9.0 44.5 16.75 45.5 20.3 45.4 Q22.7 45.1 23.0 44.0 L23.5 44.0 Q22.85 45.9 21.45 47.5 L20.35 48.65 Q27.3 48.8 34.5 51.6 35.75 34.35 54.05 30.0 51.9 24.5 57.75 22.05" fill="#ffcc00" fill-rule="evenodd" stroke="none"/>
      <path d="M57.75 22.05 Q51.9 24.5 54.05 30.0 35.75 34.35 34.5 51.6 27.3 48.8 20.35 48.65 L21.45 47.5 Q22.85 45.9 23.5 44.0 L23.0 44.0 Q22.7 45.1 20.3 45.4 L16.75 45.5 9.0 44.5 5.5 44.5 5.5 45.5 Q5.8 47.25 8.0 49.15 L9.1 50.05 Q1.95 52.1 -5.0 57.0 -15.2 39.25 -35.1 48.9 L-41.1 40.0 -37.0 36.05 -34.0 35.3 -33.05 35.45 -29.75 35.5 Q-27.4 35.5 -23.2 34.5 L-17.5 33.0 -26.05 32.65 Q-28.6 32.1 -31.05 31.0 -31.25 28.65 -33.45 25.3 -36.75 20.4 -38.35 15.05 L-30.25 14.8 Q-19.15 32.0 1.0 22.3 11.6 31.6 21.85 27.95 L22.0 30.0 Q22.0 31.9 20.9 33.75 19.65 35.85 17.5 37.0 30.5 35.3 30.5 24.75 30.5 23.9 29.95 22.9 L31.3 21.65 32.05 20.5 33.05 20.5 Q37.25 29.6 46.95 21.0 49.85 18.5 53.25 16.15 53.9 20.2 57.2 21.9 L57.75 22.05 M50.1 21.65 L45.35 25.2 Q41.6 28.65 36.75 28.0 L32.55 23.3 Q34.4 27.4 33.65 29.15 27.95 42.25 10.9 39.4 16.55 37.4 16.55 31.5 6.9 29.45 -2.15 25.85 -22.0 32.55 -32.45 17.55 -30.0 31.95 -11.65 31.65 -23.3 39.5 -36.75 39.75 -37.05 41.5 -36.0 43.05 -35.4 43.95 -34.45 44.25 L-32.85 43.65 Q-15.1 38.3 -4.55 52.0 L2.9 47.9 -2.6 41.75 Q12.65 43.7 27.75 39.55 L25.7 45.3 Q27.35 45.1 28.95 45.9 30.15 46.5 31.05 47.55 32.4 45.0 33.55 41.8 34.65 38.55 39.85 33.1 L50.1 21.65" fill="#ffff00" fill-rule="evenodd" stroke="none"/>
      <path d="M50.1 21.65 L39.85 33.1 Q34.65 38.55 33.55 41.8 32.4 45.0 31.05 47.55 30.15 46.5 28.95 45.9 27.35 45.1 25.7 45.3 L27.75 39.55 Q12.65 43.7 -2.6 41.75 L2.9 47.9 -4.55 52.0 Q-15.1 38.3 -32.85 43.65 L-34.45 44.25 Q-35.4 43.95 -36.0 43.05 -37.05 41.5 -36.75 39.75 -23.3 39.5 -11.65 31.65 -30.0 31.95 -32.45 17.55 -22.0 32.55 -2.15 25.85 6.9 29.45 16.55 31.5 16.55 37.4 10.9 39.4 27.95 42.25 33.65 29.15 34.4 27.4 32.55 23.3 L36.75 28.0 Q41.6 28.65 45.35 25.2 L50.1 21.65" fill="#ffffff" fill-rule="evenodd" stroke="none"/>
    </g>
  </defs>
</svg>
