<?xml version="1.0" encoding="UTF-8" standalone="no"?>
<svg xmlns:ffdec="https://www.free-decompiler.com/flash" xmlns:xlink="http://www.w3.org/1999/xlink" ffdec:objectType="frame" height="499.45px" width="496.15px" xmlns="http://www.w3.org/2000/svg">
  <g transform="matrix(1.0, 0.0, 0.0, 1.0, 270.5, 376.7)">
    <use ffdec:characterId="180" height="444.55" transform="matrix(1.0, 0.0, 0.0, 1.0, -270.0, -369.35)" width="494.75" xlink:href="#shape0"/>
  </g>
  <defs>
    <g id="shape0" transform="matrix(1.0, 0.0, 0.0, 1.0, 270.0, 369.35)">
      <path d="M166.0 -253.9 L167.95 -254.15 Q170.55 -254.15 172.35 -252.7 174.35 -251.1 174.35 -248.4 174.35 -246.55 173.75 -244.55 L173.25 -243.2 Q176.65 -242.4 178.55 -240.45 180.5 -238.4 180.5 -235.75 L180.5 -232.45 179.75 -229.15 178.6 -225.9 178.65 -228.2 178.65 -228.4 Q178.1 -227.4 176.75 -226.15 173.75 -223.5 169.1 -223.5 162.2 -223.5 160.15 -228.4 159.15 -230.9 159.5 -233.5 159.5 -237.45 160.4 -239.05 161.4 -240.9 163.65 -242.05 L162.45 -243.4 160.35 -242.5 Q151.3 -239.45 146.9 -241.7 142.5 -243.95 142.35 -244.25 L140.0 -248.0 Q139.6 -249.0 139.05 -251.5 138.5 -254.2 138.5 -255.65 138.5 -258.65 140.85 -261.25 144.75 -265.5 153.5 -265.25 161.4 -263.85 164.3 -259.3 165.7 -257.15 166.0 -253.9 M3.4 -351.35 Q0.15 -350.75 -0.8 -353.75 L-1.05 -357.25 Q-1.05 -358.7 -0.7 -359.35 0.0 -360.75 2.35 -360.75 5.25 -360.75 6.55 -358.1 L6.85 -354.15 6.8 -352.65 Q6.65 -351.95 3.4 -351.35 M30.05 -297.5 Q28.75 -296.15 26.35 -296.15 22.35 -296.15 21.5 -297.8 21.05 -298.65 21.4 -299.75 21.4 -300.75 22.9 -301.7 24.35 -302.65 26.2 -302.95 31.0 -303.7 31.0 -299.65 31.0 -298.5 30.05 -297.5 M74.9 -282.0 Q81.35 -288.35 86.6 -286.0 88.5 -285.15 89.75 -283.35 90.85 -281.75 91.05 -279.5 91.2 -277.3 86.0 -276.85 80.75 -276.45 78.4 -274.0 L75.55 -268.05 Q73.3 -264.15 68.75 -264.15 64.55 -264.15 63.25 -267.2 62.65 -268.75 62.85 -270.3 62.85 -273.05 67.4 -276.4 L74.9 -282.0 M51.5 -251.25 Q54.0 -250.3 54.55 -248.8 54.75 -248.35 54.75 -246.4 54.75 -235.9 52.75 -235.9 50.45 -235.9 48.1 -242.0 46.95 -245.05 46.25 -248.2 46.25 -249.55 46.75 -250.0 47.75 -250.9 51.5 -251.25 M19.4 -260.05 Q18.95 -259.3 17.35 -259.3 11.85 -259.3 10.0 -261.4 9.0 -262.55 9.0 -264.9 9.0 -267.9 14.35 -266.0 19.65 -264.1 19.65 -261.3 L19.4 -260.05 M34.5 -241.0 Q34.5 -239.85 34.0 -239.0 33.15 -237.65 31.25 -237.65 29.15 -237.65 28.5 -239.8 28.15 -240.9 28.25 -241.8 28.25 -244.05 31.4 -244.05 34.5 -244.05 34.5 -241.0 M4.4 -234.65 Q-1.65 -237.25 -3.5 -237.15 -12.0 -236.9 -14.6 -237.85 -16.25 -238.5 -16.25 -240.5 -16.25 -243.75 -10.25 -244.25 14.25 -243.2 14.25 -234.05 L14.2 -232.85 Q13.75 -232.0 11.6 -232.0 10.5 -232.0 4.4 -234.65 M14.5 -223.85 Q15.65 -222.45 15.65 -220.3 15.65 -219.6 15.0 -218.75 14.05 -217.5 10.8 -217.45 7.55 -217.45 6.35 -219.4 L1.75 -225.0 Q-0.9 -227.3 -8.6 -229.0 -14.65 -230.3 -14.65 -232.85 -14.65 -234.85 -13.15 -235.25 L-8.0 -235.5 -2.3 -235.85 Q3.3 -235.45 6.55 -233.3 9.8 -231.2 11.0 -228.8 12.2 -226.6 14.5 -223.85 M38.1 -208.9 Q38.1 -211.2 41.0 -213.4 43.85 -215.55 47.4 -215.9 51.3 -216.35 53.9 -214.15 56.45 -211.95 56.4 -208.45 56.35 -204.95 55.15 -201.7 L53.5 -197.6 Q54.15 -195.95 54.45 -193.95 54.75 -191.9 54.75 -187.05 54.75 -185.65 54.05 -185.0 52.85 -183.9 49.35 -183.9 40.8 -183.9 39.0 -189.25 38.05 -191.95 38.85 -195.1 38.85 -197.9 39.75 -200.0 L39.0 -203.25 38.1 -208.9 M77.75 -244.35 Q76.25 -243.25 73.75 -243.25 71.25 -243.25 70.55 -244.9 70.25 -245.55 70.25 -247.15 70.25 -250.4 74.7 -249.95 79.15 -249.5 79.15 -246.65 79.15 -245.3 77.75 -244.35 M47.4 -232.55 Q47.2 -232.15 46.25 -232.15 45.0 -232.15 44.7 -232.65 L44.6 -233.4 Q44.6 -234.65 46.05 -234.65 47.5 -234.6 47.5 -233.5 L47.4 -232.55 M61.4 -222.75 Q74.05 -224.2 80.25 -221.05 82.0 -220.0 83.4 -218.1 84.75 -216.25 84.75 -215.0 L84.5 -213.4 Q83.9 -212.25 82.1 -212.25 78.85 -212.25 76.15 -214.75 74.75 -216.05 73.25 -217.8 L70.0 -220.15 Q66.85 -221.95 61.4 -222.4 L61.4 -222.75 M111.5 -275.65 Q114.05 -279.85 120.0 -278.55 125.95 -276.95 125.75 -269.65 125.5 -262.4 117.5 -262.4 112.95 -262.4 111.35 -264.8 110.15 -266.6 110.15 -270.85 L110.35 -272.5 Q110.7 -274.3 111.5 -275.65 M107.6 -254.0 L104.7 -254.25 104.0 -255.25 Q104.5 -256.0 106.65 -255.9 108.55 -255.85 109.4 -255.3 108.6 -254.0 107.6 -254.0 M114.65 -244.35 Q114.65 -250.45 117.95 -252.2 120.95 -253.8 125.3 -251.45 129.6 -249.1 132.6 -244.3 135.9 -238.9 135.9 -232.85 135.9 -230.7 133.75 -229.25 130.9 -227.3 125.0 -227.3 119.0 -227.3 116.25 -235.7 114.85 -239.95 114.65 -244.35 M102.9 -227.4 Q102.3 -224.5 99.65 -225.1 98.45 -225.35 98.15 -227.25 98.05 -228.55 98.25 -229.4 98.45 -230.45 98.7 -230.65 99.25 -231.25 100.9 -230.9 102.75 -230.5 103.05 -228.95 L102.9 -227.4 M151.3 -232.25 L155.5 -232.5 156.25 -231.65 156.0 -230.5 Q155.45 -230.05 153.35 -230.05 150.9 -230.05 150.9 -231.4 150.9 -232.05 151.3 -232.25 M138.6 -217.0 Q142.65 -217.85 142.65 -213.9 142.65 -211.4 141.2 -208.6 139.7 -205.65 136.95 -204.1 L136.8 -205.05 135.55 -209.1 Q134.5 -211.75 134.5 -213.3 134.5 -216.2 138.6 -217.0 M153.9 -214.5 Q156.0 -215.95 158.25 -214.7 160.45 -213.5 160.8 -212.25 L161.15 -210.0 Q161.15 -208.8 160.4 -207.65 159.5 -206.25 157.85 -206.25 153.6 -206.25 152.25 -209.2 151.75 -210.35 151.75 -211.7 151.75 -213.1 153.9 -214.5 M159.6 -175.9 Q159.6 -175.15 156.25 -174.45 L149.5 -173.8 Q147.2 -173.8 146.6 -176.25 146.35 -177.4 146.5 -178.4 148.2 -182.6 152.05 -181.35 155.9 -180.1 157.75 -178.6 159.6 -177.15 159.6 -175.9 M137.85 -175.9 Q141.65 -175.1 141.65 -169.65 141.65 -168.55 140.85 -168.2 L136.6 -167.8 Q134.7 -167.8 134.15 -170.55 133.9 -171.95 134.0 -173.25 134.0 -174.7 135.2 -175.45 136.35 -176.2 137.85 -175.9 M160.55 -151.0 Q162.75 -150.05 162.75 -148.35 162.75 -147.55 162.2 -147.3 L159.85 -147.0 Q156.1 -147.0 152.65 -151.0 149.75 -154.35 149.75 -155.9 149.75 -158.4 151.65 -157.6 153.05 -157.0 155.25 -154.75 157.25 -152.5 160.55 -151.0 M89.7 -166.25 Q96.75 -165.25 96.75 -160.6 96.75 -159.15 95.3 -158.3 93.85 -157.45 89.3 -157.75 84.7 -158.05 83.6 -159.95 82.45 -161.9 82.6 -163.45 82.6 -165.15 84.8 -165.95 L89.7 -166.25 M111.5 -160.1 Q111.5 -159.05 110.5 -158.4 109.4 -157.65 107.25 -157.65 104.15 -157.65 104.15 -159.8 104.15 -162.4 107.85 -162.65 111.5 -162.95 111.5 -160.1 M98.1 -142.55 Q98.1 -140.25 97.0 -136.7 95.45 -131.55 92.75 -131.55 89.3 -131.55 87.65 -135.85 86.85 -138.0 86.8 -139.65 86.75 -141.35 88.65 -143.4 90.55 -145.5 94.35 -147.7 98.1 -149.9 98.1 -142.55 M86.3 -100.55 L90.0 -98.05 99.7 -93.5 Q105.75 -90.65 105.75 -89.75 105.75 -88.75 103.85 -88.75 101.9 -88.8 93.85 -93.75 85.8 -98.75 80.1 -98.0 74.4 -97.3 71.65 -100.25 70.15 -101.85 70.15 -105.0 70.15 -107.35 74.35 -106.65 78.35 -105.95 81.25 -103.5 L86.3 -100.55 M117.25 -121.25 L123.95 -121.35 Q126.25 -120.7 126.25 -116.0 126.25 -114.65 124.5 -113.25 122.25 -111.5 118.85 -111.5 113.7 -111.5 111.65 -115.05 110.6 -116.95 110.6 -119.3 110.6 -121.1 111.75 -121.25 L117.25 -121.25 M151.25 -134.0 L150.15 -134.15 147.65 -133.6 142.5 -133.05 Q139.8 -133.05 139.15 -134.3 138.85 -134.95 139.1 -135.5 139.1 -140.3 151.25 -136.5 152.4 -136.05 155.1 -135.55 157.15 -135.2 157.9 -134.5 158.55 -133.95 158.65 -133.15 L158.65 -131.8 Q158.65 -129.0 155.35 -129.0 152.5 -129.0 151.6 -131.15 151.25 -132.05 151.25 -134.0 M122.25 -142.05 Q122.25 -144.65 124.7 -144.6 127.1 -144.55 127.1 -141.8 L126.45 -140.45 Q128.35 -139.5 128.35 -134.15 128.35 -133.6 127.25 -132.95 126.1 -132.3 124.85 -132.3 122.0 -132.3 122.0 -133.75 122.0 -137.9 123.3 -139.55 122.85 -139.9 122.6 -140.55 122.3 -141.25 122.25 -142.05 M4.5 -176.5 Q4.05 -176.15 3.35 -176.15 L2.45 -176.35 1.5 -176.55 Q-1.05 -176.55 -3.75 -180.55 -3.75 -182.6 0.65 -181.5 5.0 -180.4 5.0 -177.55 5.0 -176.9 4.5 -176.5 M16.35 -163.5 Q16.35 -161.9 15.35 -159.8 13.9 -156.8 11.35 -156.8 8.2 -156.8 7.25 -158.15 6.85 -158.7 6.85 -159.85 6.85 -160.25 8.35 -162.2 10.0 -164.4 11.6 -165.8 16.35 -169.95 16.35 -163.5 M8.1 -150.25 Q12.75 -148.75 12.75 -142.9 12.75 -139.9 12.05 -136.5 11.25 -132.8 10.0 -130.25 9.25 -128.7 8.35 -123.15 L8.15 -122.0 8.2 -121.95 Q10.25 -118.7 10.25 -115.4 10.25 -113.9 8.75 -110.4 6.75 -105.75 4.1 -105.75 1.6 -105.75 0.75 -108.3 0.35 -109.6 0.4 -110.9 0.4 -111.55 3.3 -115.15 4.6 -116.8 5.3 -118.1 L5.2 -118.75 Q4.9 -120.9 4.85 -123.15 4.85 -124.1 6.9 -129.6 8.9 -135.1 8.9 -136.8 L7.95 -140.75 7.65 -141.8 Q5.7 -142.45 4.5 -145.05 3.4 -147.4 3.4 -148.85 3.4 -149.95 4.85 -150.4 L8.1 -150.25 M36.5 -164.5 Q35.85 -164.05 33.85 -164.05 L33.3 -164.15 33.15 -164.25 33.1 -164.9 Q33.1 -165.7 35.05 -166.5 37.0 -167.3 37.0 -165.75 37.0 -164.85 36.5 -164.5 M27.1 -129.65 Q25.0 -122.9 18.75 -119.9 L18.7 -119.85 Q18.6 -119.9 18.6 -120.3 L19.05 -121.45 19.5 -122.9 Q19.5 -123.75 17.45 -127.4 15.35 -131.1 15.35 -135.5 15.35 -138.15 17.4 -140.75 19.25 -143.2 21.85 -144.45 24.5 -145.75 26.3 -145.0 28.35 -144.15 28.35 -140.9 28.35 -133.6 27.1 -129.65 M7.85 -117.0 L7.8 -116.95 7.8 -116.85 7.85 -117.0 M5.55 -105.7 Q12.85 -106.15 12.85 -96.5 12.85 -94.4 11.8 -90.55 L12.45 -90.15 14.3 -88.75 14.2 -89.2 Q13.75 -91.45 14.2 -93.35 14.6 -95.25 15.95 -96.35 16.85 -97.1 19.0 -98.05 26.75 -100.05 28.95 -92.5 L29.4 -90.5 29.8 -88.45 Q30.6 -84.1 30.6 -82.75 30.6 -80.6 28.75 -75.75 L27.3 -72.65 28.0 -72.3 Q33.0 -69.7 33.0 -64.9 33.0 -62.25 32.1 -59.65 31.35 -57.45 30.15 -56.25 31.0 -55.5 31.9 -54.0 L32.2 -53.5 34.0 -54.0 Q43.1 -55.65 47.95 -52.45 51.35 -50.15 51.35 -47.05 51.35 -43.8 49.85 -40.5 47.5 -35.5 42.75 -35.9 L35.25 -35.9 Q27.15 -35.05 23.7 -39.2 22.15 -41.1 21.85 -43.3 17.05 -43.7 14.6 -48.7 13.7 -50.65 13.3 -52.6 L11.8 -52.55 Q10.4 -52.65 9.35 -55.15 8.3 -57.7 8.15 -60.7 7.95 -63.7 8.15 -66.5 8.35 -69.15 10.6 -71.75 7.05 -72.75 5.55 -77.05 4.5 -80.05 3.4 -85.5 L-0.45 -93.45 Q-1.75 -96.5 -1.75 -100.2 -1.75 -102.15 0.55 -103.85 2.8 -105.55 5.55 -105.7 M78.1 -86.95 L78.75 -87.05 Q80.45 -86.95 82.9 -83.65 83.4 -82.9 87.05 -80.35 L90.5 -77.65 Q90.5 -76.55 87.8 -75.55 84.95 -74.55 81.75 -74.45 78.5 -74.35 77.15 -76.65 75.95 -78.75 76.85 -82.25 75.2 -80.8 72.0 -80.8 69.25 -80.8 68.35 -81.75 L68.2 -81.9 67.25 -81.15 67.0 -80.95 67.8 -80.55 Q71.75 -78.6 71.75 -75.6 71.75 -72.55 70.9 -71.25 69.85 -69.7 67.45 -69.05 L64.9 -68.6 59.85 -68.0 Q59.3 -68.0 59.0 -68.3 L60.85 -69.35 62.75 -70.4 63.75 -71.75 Q64.15 -72.55 64.15 -73.15 L64.1 -74.9 Q60.45 -75.85 59.6 -76.8 59.0 -77.4 59.0 -79.3 59.0 -83.8 64.2 -86.0 66.35 -86.85 67.8 -86.3 L68.8 -85.55 Q70.85 -88.05 74.1 -88.5 77.35 -89.0 78.1 -86.95 M27.75 -33.75 Q27.75 -34.9 29.15 -35.45 L33.5 -35.25 34.85 -33.35 35.65 -31.65 37.35 -28.3 Q38.5 -26.2 40.25 -24.5 42.8 -22.0 51.95 -18.85 59.0 -16.4 59.0 -12.75 59.0 -11.6 58.0 -10.55 56.4 -9.0 53.0 -9.0 46.05 -9.0 41.1 -14.15 38.1 -17.25 37.25 -20.0 36.55 -22.15 34.3 -25.65 L31.4 -30.0 30.25 -29.9 Q27.8 -28.45 25.25 -26.25 L22.7 -23.4 20.85 -21.45 Q20.3 -20.05 19.15 -18.2 L17.45 -15.85 18.15 -14.25 18.9 -10.85 19.4 -7.55 Q19.4 -6.05 17.85 -2.5 15.75 2.25 13.0 2.25 L12.85 2.25 12.35 2.25 12.35 2.1 12.0 1.75 11.9 1.15 12.1 0.9 Q10.95 -3.9 7.3 -9.0 3.6 -14.15 3.6 -18.75 3.6 -21.75 6.4 -24.35 8.9 -26.65 12.5 -27.75 L18.6 -27.95 19.2 -27.7 24.9 -31.95 Q26.45 -32.95 27.7 -33.45 L27.75 -33.75 M66.2 -31.9 Q62.25 -37.0 62.25 -40.25 62.25 -45.75 73.25 -39.1 77.55 -36.5 80.8 -33.5 84.25 -30.3 84.25 -28.7 84.25 -27.75 82.15 -27.0 79.75 -26.05 75.85 -26.05 70.8 -26.05 66.2 -31.9 M79.15 -39.7 Q79.15 -42.1 82.35 -44.5 86.5 -47.7 93.75 -48.15 98.35 -50.45 101.9 -44.55 104.6 -40.15 104.6 -37.8 104.6 -36.1 103.8 -36.1 L98.9 -35.75 90.6 -34.3 84.0 -32.6 Q81.7 -32.0 80.15 -35.85 79.4 -37.75 79.15 -39.7 M73.25 -19.0 Q67.65 -19.75 65.8 -21.1 64.65 -21.95 64.65 -23.75 64.65 -27.6 74.45 -24.05 84.25 -20.45 84.25 -17.15 84.25 -16.15 84.05 -15.8 83.65 -15.25 82.5 -15.25 81.9 -15.25 78.6 -16.95 75.15 -18.75 73.25 -19.0 M144.75 -56.0 Q144.75 -62.45 153.75 -64.65 158.1 -65.75 165.85 -65.75 176.35 -65.75 176.35 -61.3 176.35 -60.3 175.85 -59.2 L175.8 -59.0 169.5 -58.15 Q164.55 -56.55 161.25 -52.65 157.95 -48.8 152.0 -48.8 146.15 -48.8 144.85 -52.35 144.25 -54.15 144.75 -56.0 M159.0 -76.55 Q159.0 -79.85 162.9 -81.65 166.3 -83.2 171.45 -83.1 176.4 -83.0 180.0 -81.5 183.9 -79.85 183.9 -77.4 183.9 -75.7 177.85 -72.9 171.55 -70.0 167.0 -70.0 161.35 -70.0 159.7 -72.7 159.0 -73.8 159.0 -76.55 M110.4 -79.25 Q110.85 -78.4 110.85 -76.65 110.85 -75.1 109.9 -73.4 108.3 -70.5 104.75 -70.5 98.8 -70.5 96.0 -72.25 93.85 -73.55 93.85 -75.6 93.85 -77.55 95.7 -78.95 98.8 -81.2 106.5 -81.25 109.5 -81.05 110.4 -79.25 M94.45 -18.25 Q95.55 -18.15 96.15 -17.0 L96.75 -15.4 Q96.75 -14.25 95.85 -13.4 94.4 -12.0 90.85 -12.0 88.2 -12.0 87.5 -14.75 87.15 -16.1 87.35 -17.4 L87.45 -18.05 Q87.7 -18.6 89.4 -18.9 L92.2 -18.8 Q93.35 -18.4 94.45 -18.25 M114.6 -17.15 Q114.15 -18.5 114.5 -19.95 114.5 -21.65 117.2 -23.75 119.4 -25.4 122.25 -25.95 L126.0 -26.15 127.25 -26.15 Q129.1 -25.1 129.7 -23.65 L130.0 -21.25 Q130.0 -19.05 127.6 -17.0 L126.3 -16.05 Q123.55 -14.4 119.5 -14.4 115.55 -14.4 114.6 -17.15 M142.75 -37.8 Q136.95 -37.8 133.95 -41.05 132.0 -43.15 132.0 -44.75 132.0 -46.4 134.25 -46.75 139.5 -47.65 144.75 -49.75 149.15 -50.8 149.15 -44.35 149.15 -43.1 147.5 -40.75 145.4 -37.8 142.75 -37.8 M151.6 -23.7 Q151.6 -26.2 154.75 -29.45 158.85 -33.65 164.75 -33.25 L165.85 -32.7 Q167.55 -34.6 171.25 -34.05 181.0 -31.8 183.0 -30.1 184.25 -29.05 184.25 -24.95 184.25 -23.45 182.8 -22.75 181.3 -22.05 177.25 -22.05 L170.15 -22.8 166.2 -23.8 Q165.55 -22.7 163.1 -21.3 159.55 -19.3 156.25 -19.3 153.05 -19.3 152.0 -21.5 L151.6 -23.7 M177.65 -161.0 Q183.0 -165.9 183.0 -159.9 183.0 -157.7 181.45 -155.5 179.05 -152.15 174.25 -152.15 172.9 -152.15 172.45 -152.9 L172.25 -153.7 Q172.25 -154.5 173.95 -156.85 175.65 -159.25 177.65 -161.0 M196.9 -137.2 Q196.55 -138.5 196.75 -139.85 196.75 -141.85 199.7 -144.25 203.7 -147.5 210.0 -146.75 212.4 -146.3 213.25 -144.9 213.75 -144.15 213.75 -142.8 213.75 -140.2 211.35 -137.95 207.8 -134.65 200.35 -134.65 197.65 -134.65 196.9 -137.2 M175.45 -102.5 Q175.85 -100.5 174.75 -99.3 173.3 -97.75 170.6 -97.75 169.3 -97.75 169.0 -99.05 L168.85 -101.6 Q168.8 -103.5 171.95 -104.0 175.05 -104.5 175.45 -102.5 M170.5 -119.25 Q169.65 -118.65 167.5 -118.65 164.55 -118.65 163.6 -120.75 L163.25 -122.9 Q163.25 -127.0 167.25 -124.65 171.25 -122.3 171.25 -120.8 171.25 -119.75 170.5 -119.25 M219.4 -121.65 Q221.55 -121.65 223.05 -120.35 224.75 -118.9 224.75 -116.5 224.75 -114.85 223.6 -113.2 221.85 -110.65 218.25 -110.65 215.55 -110.65 214.5 -113.4 214.0 -114.75 214.0 -116.2 214.0 -118.85 215.7 -120.35 217.2 -121.7 219.4 -121.65 M202.5 -55.45 Q200.4 -54.05 196.1 -54.05 186.4 -54.05 183.5 -56.5 182.0 -57.75 182.0 -60.95 182.0 -62.0 184.45 -63.6 187.65 -65.7 191.75 -65.05 199.25 -65.6 202.3 -62.5 204.1 -60.7 204.1 -58.0 204.1 -56.5 202.5 -55.45 M181.4 36.35 Q182.45 37.15 182.75 38.5 183.25 40.85 183.25 43.4 183.25 46.65 179.9 49.15 175.7 52.35 167.95 52.4 L164.75 52.5 Q159.5 52.5 158.1 48.25 L157.75 43.6 Q157.75 39.5 163.35 36.0 L164.2 35.55 164.0 34.85 163.6 30.6 Q163.6 27.1 166.6 25.0 169.6 22.85 173.55 23.05 177.45 23.25 180.2 25.8 182.9 28.35 182.9 32.35 182.9 33.8 181.65 35.9 L181.4 36.35 M123.25 28.35 Q122.05 29.1 120.0 29.1 117.5 29.1 116.85 27.65 L116.65 25.85 Q116.65 23.3 120.5 23.6 124.35 23.85 124.35 26.55 124.35 27.65 123.25 28.35 M84.75 19.05 Q84.75 16.1 91.5 15.5 98.0 15.15 99.95 17.5 100.75 18.45 100.75 20.8 100.75 22.65 99.15 23.5 96.85 24.65 90.6 24.65 84.75 24.65 84.75 19.05 M84.35 38.5 Q81.8 38.5 80.95 37.0 80.5 36.25 80.5 34.8 80.5 32.6 84.85 32.6 86.45 32.6 87.15 34.15 L87.5 35.8 Q87.5 36.4 86.4 37.4 85.2 38.5 84.35 38.5 M101.4 71.25 Q101.4 69.85 102.45 67.3 103.8 63.95 106.2 61.25 113.25 53.35 126.0 54.6 132.6 54.55 135.0 56.15 136.5 57.1 136.5 58.95 136.5 61.6 130.1 62.4 122.35 63.4 119.75 66.1 118.6 69.0 117.1 71.45 113.5 76.2 108.2 74.95 102.9 73.7 102.1 72.6 101.4 71.7 101.4 71.25 M46.65 7.4 Q57.5 9.65 57.5 20.4 57.5 23.15 54.85 27.6 52.15 32.0 47.75 31.9 43.35 31.8 42.25 28.85 39.7 24.8 38.3 21.95 36.9 19.1 36.35 17.2 L35.95 14.75 35.75 13.3 Q35.5 6.95 42.5 7.0 L46.65 7.4 M1.75 7.9 L-13.5 8.85 Q-19.7 8.85 -23.5 6.1 -26.3 4.05 -26.3 2.45 -26.3 0.25 -24.8 -0.85 -22.85 -2.25 -17.0 -3.3 L-10.5 -3.3 Q-6.6 -3.8 -0.4 0.7 5.35 4.9 5.35 6.9 5.35 7.3 1.75 7.9 M7.55 8.35 Q8.65 8.1 8.65 12.15 L8.1 18.65 Q8.1 25.55 11.05 28.25 12.8 29.9 17.5 30.75 22.2 31.6 23.95 33.15 26.9 35.8 27.1 40.4 27.3 44.95 21.55 46.9 15.75 48.85 9.5 48.45 3.25 48.0 1.5 40.35 1.0 37.95 1.2 34.9 L1.5 31.9 Q1.5 21.25 5.1 12.2 6.5 8.6 7.55 8.35 M36.9 26.65 Q35.75 27.75 33.6 27.75 31.55 27.75 30.75 26.35 L30.4 25.05 Q30.4 20.95 34.1 21.1 37.75 21.25 37.75 25.05 37.75 25.9 36.9 26.65 M-7.35 -363.4 Q-8.8 -362.3 -10.25 -362.3 -14.75 -362.3 -14.75 -366.5 -14.75 -367.55 -14.05 -368.3 -12.8 -369.6 -9.5 -369.3 -7.3 -368.3 -6.55 -367.25 -6.0 -366.5 -6.0 -365.15 -6.0 -364.4 -7.35 -363.4 M-14.5 -349.85 Q-10.1 -350.2 -9.95 -345.85 L-10.0 -344.75 Q-10.0 -343.2 -10.7 -341.7 -11.75 -339.25 -14.1 -339.25 -18.05 -339.25 -19.25 -341.65 -20.5 -344.1 -20.45 -345.45 -20.4 -346.8 -18.5 -348.35 -17.0 -349.6 -14.5 -349.85 M-61.0 -323.25 Q-58.1 -319.6 -52.15 -316.3 -48.0 -313.95 -48.0 -310.9 -48.0 -309.5 -49.65 -306.8 -51.8 -303.4 -54.5 -303.4 -55.8 -303.4 -59.0 -307.9 -62.35 -312.65 -63.75 -313.05 -71.4 -315.35 -73.6 -317.1 -75.4 -318.55 -75.4 -321.65 -75.4 -326.0 -73.25 -327.65 -69.6 -330.45 -61.0 -323.25 M-22.0 -343.4 L-21.6 -343.35 -21.5 -342.9 -23.55 -339.4 Q-25.65 -335.8 -25.65 -334.85 -25.65 -333.8 -26.0 -332.75 -26.6 -330.9 -28.0 -330.9 -29.15 -330.9 -29.4 -331.8 L-29.5 -332.9 Q-29.5 -335.3 -27.2 -338.4 -25.0 -341.35 -22.0 -343.4 M-7.05 -315.65 Q-6.9 -311.8 -7.75 -309.4 -9.5 -304.75 -14.25 -304.75 -18.0 -304.75 -19.0 -308.2 -19.5 -309.95 -19.25 -311.8 -19.25 -313.85 -17.35 -316.7 -15.45 -319.5 -13.4 -320.6 -11.35 -321.7 -9.25 -320.6 -7.2 -319.5 -7.05 -315.65 M-13.25 -301.0 Q-13.6 -301.8 -13.55 -302.4 -13.55 -304.55 -11.05 -303.85 -8.55 -303.15 -8.55 -300.75 -8.55 -300.15 -9.15 -299.7 -9.75 -299.3 -10.6 -299.3 -12.55 -299.3 -13.25 -301.0 M-154.9 -300.6 Q-153.25 -301.8 -150.9 -301.7 -145.15 -301.45 -144.15 -295.05 L-142.7 -288.8 -141.15 -282.65 -141.25 -282.0 -141.85 -281.9 Q-147.25 -282.4 -152.2 -288.2 -156.65 -293.45 -156.65 -297.1 -156.65 -299.25 -154.9 -300.6 M-122.65 -300.0 L-119.6 -300.05 Q-115.25 -298.7 -115.25 -294.75 -115.25 -293.9 -116.25 -293.35 -117.3 -292.75 -119.0 -292.75 -122.3 -292.75 -123.5 -295.05 -124.05 -296.25 -124.0 -297.55 -124.0 -299.35 -122.65 -300.0 M-121.25 -274.5 Q-121.25 -274.25 -122.25 -273.55 L-127.15 -273.0 Q-134.35 -270.85 -135.35 -267.1 L-135.15 -265.8 Q-135.15 -264.2 -138.75 -258.45 -142.7 -252.0 -147.35 -251.25 L-147.3 -251.25 -147.75 -251.5 Q-144.75 -255.9 -143.5 -258.8 L-143.4 -259.0 Q-147.0 -259.45 -147.9 -260.7 -148.3 -261.25 -148.3 -263.2 -148.3 -264.05 -144.75 -266.15 -140.45 -268.7 -138.9 -270.5 -136.75 -273.05 -134.55 -273.8 -130.8 -275.15 -121.55 -275.0 L-121.4 -274.95 Q-121.25 -274.9 -121.25 -274.5 M-112.75 -267.15 Q-112.75 -265.55 -114.0 -264.25 -115.75 -262.4 -119.25 -262.4 -121.4 -262.4 -122.05 -264.5 -122.4 -265.55 -122.3 -266.65 -122.3 -267.5 -120.8 -268.65 -119.3 -269.7 -117.5 -270.2 -112.75 -271.45 -112.75 -267.15 M-83.25 -259.25 Q-75.95 -256.5 -73.75 -253.45 -72.7 -251.9 -72.65 -247.95 L-72.6 -247.95 Q-70.25 -246.9 -70.25 -244.75 -70.25 -242.0 -73.25 -242.0 -73.95 -242.0 -74.4 -242.55 L-75.0 -241.8 Q-78.2 -238.05 -84.6 -238.05 -92.45 -238.05 -95.45 -241.65 -97.15 -243.7 -97.45 -247.25 -97.8 -250.8 -95.6 -255.1 -93.45 -259.45 -83.25 -259.25 M-160.25 -270.25 L-163.25 -270.0 -165.1 -269.55 Q-167.05 -269.1 -168.3 -270.4 -169.6 -271.75 -169.3 -272.7 -169.3 -276.3 -163.95 -275.5 -159.9 -274.95 -153.25 -272.0 L-154.3 -270.9 -155.25 -270.25 Q-155.45 -270.05 -160.25 -270.25 M-160.5 -244.75 Q-160.85 -243.15 -166.15 -243.1 -171.45 -243.05 -174.95 -243.95 L-179.4 -244.8 Q-180.35 -244.75 -182.4 -243.25 -184.45 -241.75 -185.8 -241.75 -187.2 -241.75 -187.5 -243.75 -187.5 -244.3 -184.7 -246.05 -181.65 -247.9 -179.75 -247.75 L-168.4 -246.05 -161.1 -245.25 Q-160.5 -245.25 -160.5 -244.75 M-154.75 -208.5 Q-154.75 -207.9 -156.95 -204.25 L-159.25 -200.75 Q-161.0 -200.75 -161.65 -204.65 -162.0 -206.6 -162.0 -208.65 -162.0 -209.75 -161.35 -210.25 -160.15 -211.25 -156.5 -211.3 -155.35 -210.55 -155.0 -209.75 -154.75 -209.25 -154.75 -208.5 M-103.75 -210.4 Q-103.75 -206.65 -105.85 -206.65 -110.65 -206.65 -114.9 -208.8 -118.25 -210.5 -120.5 -209.65 L-121.15 -210.4 Q-117.9 -214.25 -112.55 -214.55 -107.2 -214.85 -105.45 -213.4 -103.75 -212.0 -103.75 -210.4 M-86.9 -209.05 Q-82.7 -217.45 -74.0 -215.55 -72.15 -215.85 -71.15 -213.65 -70.5 -212.15 -70.5 -210.8 -70.5 -208.65 -72.45 -206.75 L-77.9 -202.0 -88.5 -193.9 Q-89.05 -193.9 -89.35 -196.4 L-89.5 -199.0 Q-89.5 -203.9 -86.9 -209.05 M-29.25 -272.55 L-12.3 -269.0 Q-5.65 -267.65 -5.65 -265.0 -5.65 -262.9 -10.5 -262.9 -12.6 -262.9 -15.4 -264.25 -18.2 -265.65 -22.45 -266.35 -26.7 -267.05 -30.7 -265.2 -34.7 -263.35 -39.1 -263.05 -43.5 -262.75 -45.5 -264.9 -46.55 -266.1 -46.55 -267.35 -46.55 -269.2 -45.35 -270.1 -43.5 -271.45 -37.75 -272.5 L-37.75 -272.55 -29.25 -272.55 M-35.35 -246.0 Q-31.95 -244.65 -31.75 -240.4 -31.3 -238.75 -28.5 -236.15 L-23.75 -232.25 -23.9 -231.65 -25.25 -231.5 Q-32.1 -231.5 -36.0 -236.75 -38.75 -240.5 -38.75 -243.75 -38.75 -245.4 -37.7 -246.0 -36.75 -246.55 -35.35 -246.0 M-23.1 -201.4 L-22.25 -202.65 Q-20.55 -204.35 -17.0 -205.3 -11.75 -205.3 -10.2 -198.2 -9.65 -195.5 -9.7 -191.8 -9.8 -188.15 -11.25 -186.55 -12.8 -185.0 -14.45 -184.45 -16.15 -183.9 -16.5 -183.9 -17.0 -183.0 -18.5 -181.8 -21.0 -179.8 -23.85 -179.8 -30.2 -179.8 -32.25 -187.05 -33.25 -190.65 -33.0 -194.3 -33.0 -198.95 -26.4 -200.95 L-23.1 -201.4 M-198.0 -277.35 Q-198.0 -278.9 -196.05 -280.6 -194.1 -282.35 -190.55 -283.4 -187.05 -284.45 -186.05 -280.85 -185.1 -277.3 -187.55 -274.4 -190.05 -271.55 -193.7 -271.55 -197.35 -271.55 -197.95 -274.4 -198.2 -275.85 -198.0 -277.35 M-217.55 -256.2 Q-213.5 -261.5 -207.5 -263.05 -202.85 -264.25 -201.35 -256.65 -201.25 -248.5 -201.5 -247.2 -201.75 -245.9 -204.45 -241.2 -207.2 -236.55 -211.85 -236.55 -218.55 -236.55 -220.4 -242.0 -221.35 -244.75 -221.0 -248.05 -221.0 -251.75 -217.55 -256.2 M-221.2 -228.0 Q-222.45 -225.75 -224.25 -225.75 -227.75 -225.75 -228.95 -228.5 -229.6 -229.9 -229.5 -231.55 -229.5 -233.2 -228.05 -234.4 -226.7 -235.5 -224.85 -235.65 -220.25 -235.95 -220.25 -230.9 -220.25 -229.7 -221.2 -228.0 M-211.6 -203.0 Q-212.7 -203.0 -212.55 -204.2 -212.4 -205.45 -209.5 -206.45 -206.6 -207.45 -201.0 -206.5 L-199.95 -205.65 -199.75 -205.25 Q-199.7 -204.95 -200.5 -204.45 L-205.25 -203.75 -210.5 -203.2 -211.6 -203.0 M-164.95 -182.3 L-160.8 -182.5 Q-157.95 -181.9 -157.35 -179.55 -156.75 -177.2 -157.55 -176.4 -159.0 -175.0 -163.1 -175.0 -165.7 -175.0 -166.25 -177.3 -166.5 -178.5 -166.25 -179.8 -166.25 -181.5 -164.95 -182.3 M-166.2 -154.1 L-162.65 -154.2 Q-162.0 -153.05 -161.85 -151.4 -161.75 -149.75 -162.65 -147.65 -163.6 -145.6 -167.25 -145.5 -170.95 -145.4 -174.2 -147.55 -177.5 -149.7 -177.5 -150.65 -177.5 -151.8 -174.95 -152.1 -169.05 -152.85 -166.2 -154.1 M-220.25 -182.55 Q-223.95 -182.55 -225.15 -186.05 -225.75 -187.8 -225.65 -189.65 -225.65 -191.8 -223.85 -193.1 -222.15 -194.3 -219.85 -194.2 -214.05 -193.9 -214.05 -187.75 -214.05 -182.55 -220.25 -182.55 M-210.4 -127.55 Q-211.45 -126.5 -214.25 -126.5 -218.55 -126.5 -220.0 -128.75 -220.65 -129.75 -220.65 -131.6 -220.65 -133.7 -218.95 -134.6 L-215.2 -134.95 Q-209.75 -133.9 -209.75 -129.55 -209.75 -128.2 -210.4 -127.55 M-172.75 -132.0 Q-172.2 -130.75 -172.15 -129.1 L-172.15 -127.5 Q-172.15 -124.3 -173.4 -121.4 -175.5 -116.55 -180.25 -116.55 -186.1 -116.55 -191.2 -122.05 -195.25 -126.5 -195.25 -128.55 -195.25 -130.8 -192.9 -132.1 -189.15 -134.2 -179.35 -135.4 -174.3 -135.85 -172.75 -132.0 M-164.65 -113.7 Q-162.85 -115.25 -160.5 -114.95 -154.55 -114.1 -154.55 -104.65 -154.55 -102.05 -157.35 -97.9 -159.75 -94.35 -161.1 -91.0 L-161.15 -90.25 -161.5 -90.0 Q-162.05 -93.55 -164.5 -99.95 -166.5 -105.25 -166.5 -109.2 -166.5 -112.0 -164.65 -113.7 M-270.0 -108.05 Q-270.0 -109.65 -267.5 -111.2 -263.8 -113.5 -256.5 -112.8 -251.0 -111.55 -248.85 -108.0 -247.5 -105.75 -247.5 -102.3 -247.5 -100.75 -248.7 -99.6 -250.7 -97.75 -255.35 -97.75 -264.0 -97.75 -267.7 -101.85 -270.0 -104.45 -270.0 -108.05 M-264.0 -59.6 Q-257.65 -64.8 -247.5 -63.5 L-246.65 -62.65 Q-251.5 -59.65 -252.7 -58.4 -255.4 -55.7 -255.25 -53.5 -255.0 -48.6 -255.1 -47.95 -255.65 -44.05 -260.25 -43.6 L-262.6 -43.55 Q-267.45 -43.55 -268.55 -47.55 -269.15 -49.6 -268.75 -52.1 -268.75 -55.7 -264.0 -59.6 M-176.5 -90.1 Q-178.65 -89.0 -180.35 -89.0 L-184.0 -89.15 -184.1 -89.25 -184.25 -89.75 -178.5 -95.25 Q-176.05 -97.5 -174.95 -95.4 -174.25 -94.15 -174.25 -92.25 -174.25 -91.2 -176.5 -90.1 M-185.55 -88.6 Q-187.5 -87.75 -190.6 -87.75 -193.0 -87.75 -193.7 -89.2 -194.0 -89.75 -194.0 -90.85 -194.0 -92.95 -190.8 -92.5 -187.65 -92.05 -184.25 -89.5 -184.25 -89.15 -185.55 -88.6 M-221.0 -93.65 Q-220.95 -95.9 -216.15 -96.25 -211.3 -96.65 -211.3 -93.65 -211.3 -93.2 -214.0 -92.55 L-218.3 -91.75 -220.45 -92.0 Q-221.0 -92.45 -221.0 -92.8 -221.6 -91.85 -223.8 -89.75 -227.25 -86.5 -229.75 -86.5 -231.05 -86.5 -231.5 -88.0 L-231.75 -89.6 Q-231.75 -94.3 -226.25 -94.65 L-222.5 -94.25 -221.0 -93.65 M-178.9 -43.05 Q-180.2 -41.25 -184.0 -41.25 -186.55 -41.25 -187.25 -43.75 -187.55 -45.05 -187.4 -46.4 -187.4 -47.7 -185.95 -48.8 -184.6 -49.9 -182.8 -50.15 -178.25 -50.8 -178.25 -45.75 -178.25 -43.95 -178.9 -43.05 M-28.1 -150.4 Q-28.6 -149.6 -28.4 -148.25 L-28.55 -147.8 -29.1 -147.65 Q-30.0 -147.65 -30.2 -148.75 L-30.25 -149.9 Q-30.25 -151.35 -28.85 -152.35 -27.5 -153.35 -27.5 -152.0 -27.5 -151.35 -28.1 -150.4 M-42.85 -174.3 L-42.75 -168.5 Q-42.75 -164.05 -43.5 -162.15 -44.4 -159.8 -48.3 -155.25 -49.95 -157.6 -52.0 -164.75 L-53.6 -170.0 Q-54.05 -171.65 -54.05 -174.25 -54.05 -176.7 -52.8 -179.0 -51.55 -181.3 -47.5 -180.8 -43.5 -180.3 -42.85 -174.3 M-73.9 -179.3 L-69.5 -184.0 Q-67.75 -186.65 -64.3 -189.35 -59.75 -192.95 -59.75 -188.4 L-64.95 -183.35 Q-70.15 -178.1 -70.15 -174.8 -70.15 -173.25 -69.75 -172.15 -69.4 -171.0 -69.4 -170.1 L-69.5 -168.75 Q-69.8 -167.9 -71.0 -167.9 -74.5 -167.9 -76.5 -170.5 -77.9 -172.25 -77.9 -173.55 -77.9 -174.9 -73.9 -179.3 M-74.25 -158.9 L-70.25 -153.25 Q-67.25 -148.4 -67.25 -142.15 -67.25 -139.55 -70.1 -136.55 -72.5 -134.0 -75.25 -133.35 L-75.25 -132.5 Q-75.25 -129.75 -77.25 -127.0 -80.25 -122.9 -86.25 -122.9 -91.65 -122.9 -93.2 -128.15 -94.0 -130.85 -93.75 -134.0 -93.75 -137.7 -91.7 -140.75 -89.7 -143.8 -85.75 -143.0 -79.7 -142.35 -77.1 -138.7 -76.9 -142.45 -79.7 -146.55 -82.5 -150.7 -82.6 -154.2 -82.75 -157.7 -80.25 -159.55 -77.25 -161.8 -74.25 -158.9 M-55.75 -161.0 Q-54.7 -161.0 -47.25 -148.05 -44.6 -143.4 -43.8 -141.3 -42.65 -138.3 -42.65 -135.0 -42.65 -133.05 -42.9 -132.15 -43.6 -129.9 -45.85 -129.9 -51.65 -129.9 -54.9 -142.2 -57.05 -150.4 -57.05 -155.9 L-57.0 -158.75 Q-56.8 -161.0 -55.75 -161.0 M-42.55 -119.7 Q-39.9 -120.3 -35.5 -116.75 -32.75 -114.25 -31.9 -110.75 L-29.25 -98.75 -29.3 -98.3 -29.4 -98.15 -32.45 -102.7 Q-34.45 -105.8 -37.25 -107.75 -42.6 -111.45 -43.6 -112.75 -44.65 -114.05 -44.65 -117.15 -44.65 -119.2 -42.55 -119.7 M-33.05 -134.9 Q-37.3 -128.85 -37.75 -122.65 L-37.8 -122.5 -38.25 -122.4 Q-38.9 -123.85 -38.9 -126.0 -38.9 -131.6 -33.9 -137.95 -31.9 -140.5 -30.45 -141.2 -28.9 -142.0 -28.9 -140.15 -30.95 -137.9 -33.05 -134.9 M-86.3 -179.85 Q-87.8 -177.75 -90.25 -177.75 -93.1 -177.75 -93.75 -180.05 -94.05 -181.2 -93.8 -182.55 -93.8 -184.85 -89.5 -185.6 -85.25 -186.3 -85.25 -182.65 -85.25 -181.4 -86.3 -179.85 M-107.55 -150.8 Q-109.7 -147.95 -111.05 -145.5 L-111.5 -144.0 Q-113.0 -135.65 -119.75 -139.65 L-120.25 -140.15 -120.5 -140.85 -120.8 -143.75 Q-120.8 -145.65 -113.0 -150.85 -104.85 -156.35 -101.25 -155.75 L-106.15 -152.65 -107.55 -150.8 M-143.65 -103.15 Q-143.65 -105.05 -142.6 -105.9 -141.1 -107.1 -136.25 -108.05 -135.45 -108.2 -132.35 -111.45 -130.3 -113.55 -130.3 -110.8 -130.3 -109.55 -131.5 -107.05 L-133.25 -103.5 Q-135.35 -97.15 -140.0 -97.15 -142.35 -97.15 -143.25 -100.1 -143.65 -101.6 -143.65 -103.15 M-111.5 -105.1 Q-110.65 -104.35 -110.3 -103.4 L-109.3 -99.65 Q-108.45 -94.5 -108.6 -91.9 -108.8 -89.35 -108.45 -84.25 -108.15 -79.2 -107.05 -78.15 L-105.75 -76.9 -105.15 -76.5 -105.0 -76.15 Q-105.15 -75.9 -105.85 -75.7 L-107.0 -75.55 Q-108.8 -75.55 -111.85 -79.3 L-115.75 -84.0 Q-120.15 -87.2 -121.4 -88.65 -122.9 -90.35 -122.9 -92.55 -122.9 -98.15 -117.65 -99.0 L-114.6 -98.9 -114.5 -99.0 Q-113.05 -100.2 -113.05 -101.9 -113.05 -103.8 -114.55 -105.25 L-118.5 -108.65 Q-113.05 -107.45 -111.5 -105.1 M-106.35 -66.3 Q-101.85 -66.3 -97.35 -59.45 L-93.0 -59.8 Q-82.35 -57.6 -78.35 -54.7 -75.15 -52.35 -75.15 -48.4 -75.15 -46.4 -78.3 -45.25 L-84.5 -43.55 Q-91.65 -43.15 -94.15 -44.25 L-96.75 -45.35 Q-98.75 -46.45 -100.4 -48.85 -101.9 -51.1 -102.75 -53.55 -105.0 -57.15 -109.6 -59.15 -113.0 -60.65 -113.0 -63.4 -113.0 -64.8 -111.8 -65.45 -110.3 -66.3 -106.35 -66.3 M-161.15 -87.8 L-161.1 -87.9 -161.05 -87.45 -161.15 -87.8 M-144.5 -68.5 Q-142.15 -70.75 -139.0 -71.1 -135.7 -71.5 -133.55 -69.35 -131.05 -66.9 -131.05 -61.75 -131.05 -59.8 -132.65 -57.75 -134.85 -55.05 -138.6 -55.05 -143.2 -55.05 -145.5 -58.75 L-146.7 -61.25 -146.7 -61.1 -148.75 -66.4 -148.65 -66.75 Q-146.75 -65.6 -144.5 -68.5 M-144.95 -5.45 Q-139.05 -7.35 -137.8 -4.8 -136.6 -2.25 -141.15 1.0 -145.7 4.15 -150.8 4.75 -155.95 5.35 -156.85 3.05 -157.25 1.9 -157.0 0.7 -157.0 -0.6 -153.95 -2.1 -150.9 -3.6 -144.95 -5.45 M-88.25 -10.4 Q-86.45 -10.3 -85.4 -8.7 -84.55 -7.5 -84.55 -6.35 -84.55 -5.1 -85.65 -3.9 -87.35 -2.15 -90.75 -2.15 -93.3 -2.15 -93.9 -4.45 -94.2 -5.65 -94.0 -7.1 -94.0 -8.15 -92.8 -9.2 -91.15 -10.65 -88.25 -10.4 M-28.35 -87.15 Q-29.75 -83.95 -31.15 -81.85 -32.55 -79.75 -35.85 -79.0 L-39.65 -78.35 -39.25 -77.3 -37.4 -71.9 -35.0 -66.2 -34.55 -65.1 Q-31.5 -64.75 -28.0 -63.4 -15.8 -58.7 -15.8 -48.9 -15.65 -46.65 -16.25 -44.65 -17.4 -40.75 -21.25 -40.75 L-25.4 -40.75 -25.65 -40.75 Q-25.5 -40.0 -25.5 -38.15 -25.5 -34.6 -27.3 -31.1 -29.95 -26.1 -35.0 -25.5 L-43.0 -25.55 Q-53.35 -26.1 -59.05 -31.65 -63.25 -35.7 -63.25 -39.65 -63.25 -41.7 -62.9 -42.9 L-62.7 -43.55 Q-65.55 -44.3 -68.85 -46.4 -73.5 -49.35 -75.25 -52.25 -77.45 -55.95 -77.85 -57.55 -78.05 -58.45 -78.05 -62.15 -78.05 -69.0 -73.55 -70.45 L-72.95 -70.6 -72.9 -71.2 Q-72.9 -76.7 -69.65 -80.4 -66.75 -83.65 -62.45 -84.5 -58.25 -85.25 -55.25 -83.25 -52.0 -81.05 -52.0 -76.5 -52.0 -70.95 -53.0 -68.5 -53.45 -67.35 -55.85 -63.45 L-55.55 -62.5 -55.5 -62.35 -50.2 -61.65 -45.55 -60.4 -45.7 -61.65 Q-46.1 -65.0 -46.05 -68.45 -46.05 -72.55 -45.65 -74.9 L-44.95 -76.75 -45.4 -79.75 Q-45.4 -81.25 -43.8 -82.65 L-43.8 -83.25 Q-43.8 -84.35 -42.55 -86.6 -41.3 -88.85 -41.3 -90.0 -41.3 -91.25 -39.45 -93.45 -37.05 -96.2 -34.0 -96.4 -27.0 -96.65 -27.0 -91.15 -27.0 -90.4 -28.35 -87.15 M-72.6 -41.45 Q-69.15 -41.15 -66.9 -38.15 -64.3 -34.7 -64.3 -28.65 -64.3 -26.35 -64.9 -25.05 -66.3 -22.0 -70.6 -22.0 -76.75 -22.0 -79.4 -27.7 -80.75 -30.6 -80.9 -33.75 -80.9 -37.35 -78.3 -39.6 -75.85 -41.75 -72.6 -41.45 M-35.2 37.35 Q-30.2 35.8 -23.5 36.05 -16.8 36.3 -11.95 39.65 -7.1 43.0 -7.1 49.4 -7.1 52.65 -10.4 55.95 -13.7 59.25 -24.85 58.3 -36.05 57.35 -38.0 52.85 -39.95 48.3 -40.2 45.6 L-40.25 43.0 Q-40.25 38.9 -35.2 37.35 M-54.05 23.45 Q-60.45 27.0 -68.75 27.0 -72.05 27.0 -73.6 24.75 -74.35 23.6 -74.5 22.45 -74.5 18.25 -73.55 17.0 -71.05 13.6 -61.5 12.6 L-61.5 12.5 -54.0 12.5 Q-50.75 13.55 -49.5 15.05 -48.65 16.15 -48.65 17.9 -48.65 20.4 -54.05 23.45 M-51.05 28.7 Q-51.05 29.75 -51.55 30.25 -52.3 31.0 -54.35 31.0 -55.55 31.0 -55.9 29.5 L-56.0 28.15 Q-56.0 26.05 -53.5 25.9 -51.05 25.75 -51.05 28.7 M-113.5 21.9 Q-113.5 22.7 -114.45 23.3 -115.5 23.9 -117.1 23.9 -121.4 23.9 -122.75 21.75 -123.25 20.95 -123.25 19.3 -123.25 16.4 -118.35 17.4 -113.5 18.4 -113.5 21.9 M-103.5 29.4 Q-103.5 30.2 -104.3 31.0 -105.45 32.1 -107.85 32.1 -110.85 32.1 -111.95 30.75 L-111.8 31.8 Q-111.8 33.4 -113.95 34.45 -116.8 35.75 -122.85 35.75 -127.8 35.75 -129.75 33.25 -131.7 30.75 -130.75 29.25 -128.4 24.9 -119.25 26.4 -114.75 27.8 -113.25 28.9 L-112.45 29.7 -112.5 28.25 Q-112.5 25.5 -108.0 25.7 -103.5 25.85 -103.5 29.4 M-160.25 44.45 Q-166.55 44.9 -166.7 40.95 L-166.8 33.95 Q-166.75 30.9 -163.3 28.75 -160.4 26.95 -155.75 28.05 -151.6 29.05 -148.25 31.8 -144.8 34.55 -144.8 37.05 -144.8 39.45 -149.2 41.65 -153.95 44.0 -160.25 44.45 M-195.5 22.9 Q-203.6 23.0 -206.25 16.5 -207.15 14.3 -207.15 9.1 -207.15 5.9 -203.9 2.8 -199.2 -1.65 -188.8 -0.25 -185.1 0.45 -183.0 3.7 -181.75 5.65 -181.1 9.05 -180.5 12.4 -183.95 17.6 -187.4 22.8 -195.5 22.9 M-190.8 36.45 Q-191.4 38.15 -191.75 41.6 L-192.2 43.5 Q-192.65 45.2 -194.4 47.8 -196.2 50.4 -199.75 51.95 L-201.5 52.75 Q-204.2 53.75 -206.35 53.75 -209.8 53.75 -211.5 50.5 -212.35 48.85 -212.5 47.1 -212.5 43.75 -205.2 41.15 L-202.05 40.2 Q-200.45 38.5 -195.2 35.2 -187.75 30.55 -185.05 29.65 L-188.75 33.4 Q-190.25 34.75 -190.8 36.45" fill="#7c7c7c" fill-rule="evenodd" stroke="none"/>
    </g>
  </defs>
</svg>
