<?xml version="1.0" encoding="UTF-8" standalone="no"?>
<svg xmlns:ffdec="https://www.free-decompiler.com/flash" xmlns:xlink="http://www.w3.org/1999/xlink" ffdec:objectType="frame" height="499.45px" width="496.15px" xmlns="http://www.w3.org/2000/svg">
  <g transform="matrix(1.0, 0.0, 0.0, 1.0, 270.5, 376.7)">
    <use ffdec:characterId="183" height="447.7" transform="matrix(1.0, 0.0, 0.0, 1.0, -268.75, -376.7)" width="492.65" xlink:href="#shape0"/>
  </g>
  <defs>
    <g id="shape0" transform="matrix(1.0, 0.0, 0.0, 1.0, 268.75, 376.7)">
      <path d="M172.1 -253.7 L172.4 -250.85 Q172.4 -248.55 171.8 -247.85 170.6 -246.5 166.15 -246.5 163.75 -246.5 162.95 -249.55 162.65 -250.55 162.6 -251.6 161.8 -250.5 160.4 -249.5 157.15 -247.25 151.0 -247.35 144.8 -247.45 142.25 -251.0 139.7 -254.55 139.55 -257.8 139.55 -262.2 143.3 -265.1 146.85 -267.85 151.6 -267.9 156.6 -267.95 159.9 -264.85 163.6 -261.4 163.65 -254.9 L165.4 -256.25 170.15 -256.1 Q171.6 -255.3 172.1 -253.7 M179.3 -238.05 Q179.3 -236.4 175.7 -232.85 171.85 -229.1 169.15 -229.1 L164.05 -229.35 Q161.95 -230.3 161.35 -233.1 L161.15 -237.05 Q161.15 -240.75 164.0 -243.4 166.6 -245.8 170.25 -246.25 173.95 -246.65 176.45 -244.7 179.3 -242.5 179.3 -238.05 M3.05 -364.75 L2.8 -362.65 Q2.35 -361.8 0.75 -361.8 -1.75 -361.8 -2.25 -363.55 -2.5 -364.4 -2.25 -365.25 -2.25 -368.7 0.4 -368.15 3.05 -367.6 3.05 -364.75 M28.15 -304.75 L28.0 -303.8 25.5 -303.55 Q23.5 -303.55 23.05 -304.65 22.85 -305.25 23.0 -305.8 23.0 -307.7 25.65 -307.55 28.25 -307.4 28.25 -305.9 L28.15 -304.75 M75.0 -287.2 Q77.05 -289.6 84.0 -289.25 L85.8 -287.85 Q87.0 -286.7 87.0 -286.0 87.0 -284.2 86.55 -283.75 85.7 -282.85 82.5 -282.85 81.95 -282.85 79.3 -281.05 L77.1 -279.4 75.5 -276.75 75.55 -274.35 Q75.55 -273.2 73.55 -271.75 71.35 -270.1 69.0 -270.1 66.2 -270.1 65.0 -272.85 64.25 -274.5 64.25 -275.8 64.25 -277.1 66.3 -278.15 L69.4 -279.5 Q72.95 -281.9 73.5 -283.1 L74.05 -285.05 Q74.35 -286.4 75.0 -287.2 M54.5 -252.6 Q54.5 -251.85 53.3 -249.05 52.35 -246.65 53.0 -242.6 L52.25 -242.1 Q48.95 -244.6 48.25 -246.25 48.0 -246.9 48.0 -250.0 48.0 -254.55 51.25 -254.55 52.45 -254.55 53.5 -253.9 54.5 -253.25 54.5 -252.6 M77.6 -250.1 Q77.4 -249.75 76.5 -249.75 72.8 -249.75 72.3 -251.25 72.05 -252.05 72.5 -253.25 75.15 -253.85 76.55 -253.2 77.75 -252.65 77.75 -251.4 L77.6 -250.1 M17.4 -265.75 L17.3 -265.0 16.9 -264.8 15.75 -264.6 Q13.8 -264.6 11.5 -266.5 9.5 -268.15 9.5 -268.85 9.5 -272.15 13.5 -270.5 17.5 -268.9 17.5 -266.85 L17.4 -265.75 M33.25 -245.2 L33.05 -244.85 30.75 -244.5 29.65 -244.6 29.5 -244.75 29.4 -245.05 29.3 -246.05 Q29.3 -247.95 31.3 -247.95 33.25 -247.95 33.25 -246.05 L33.25 -245.2 M6.0 -229.2 Q5.9 -231.6 -1.45 -234.55 -10.45 -235.0 -10.75 -236.45 -11.1 -237.9 -7.2 -238.6 8.35 -238.7 13.45 -225.3 L11.75 -224.2 Q6.85 -223.5 6.45 -225.15 6.1 -226.8 6.0 -229.2 M2.2 -240.1 Q-3.45 -242.75 -4.5 -242.75 L-15.0 -241.35 -17.0 -241.6 -17.1 -243.5 Q-17.1 -247.9 -4.3 -244.95 7.9 -242.2 10.3 -239.35 L10.05 -237.85 7.75 -237.5 2.2 -240.1 M40.15 -214.25 Q40.2 -216.05 41.0 -217.4 43.5 -221.7 52.5 -220.1 54.4 -219.3 54.9 -217.25 L55.05 -214.25 Q55.05 -208.35 50.9 -205.3 53.25 -202.55 53.25 -197.3 53.25 -195.65 51.1 -194.35 48.9 -193.05 45.25 -194.6 41.6 -196.15 40.65 -198.5 39.65 -200.85 41.8 -206.55 41.0 -207.3 40.75 -208.25 40.25 -210.35 40.25 -212.6 L40.15 -214.25 M79.9 -225.0 Q85.3 -222.4 85.3 -218.55 85.3 -216.6 81.6 -217.95 77.85 -219.35 76.15 -220.85 74.45 -222.45 71.95 -227.45 76.6 -226.6 79.9 -225.0 M122.95 -275.25 Q123.4 -270.8 122.45 -270.5 121.5 -270.25 120.0 -269.6 L116.0 -269.6 Q113.2 -270.15 112.5 -272.65 112.25 -273.4 112.25 -276.25 112.25 -279.5 114.15 -281.55 115.8 -283.4 118.65 -282.85 121.5 -282.35 122.0 -281.05 122.45 -279.75 122.95 -275.25 M128.45 -253.2 Q130.4 -250.35 131.25 -246.85 132.05 -243.4 130.9 -241.25 128.65 -236.95 122.0 -237.0 117.3 -238.6 116.15 -245.55 114.75 -247.9 114.75 -252.6 114.75 -256.8 117.45 -257.95 119.8 -259.0 123.15 -257.55 126.45 -256.1 128.45 -253.2 M101.65 -232.9 Q100.75 -232.3 100.4 -232.25 L99.45 -233.25 Q99.15 -233.65 99.15 -234.0 99.15 -235.25 99.3 -235.5 L100.95 -235.4 102.9 -234.0 101.65 -232.9 M139.1 -221.7 L141.55 -221.75 Q142.65 -221.15 142.65 -219.6 142.65 -216.85 139.95 -216.0 136.55 -214.95 136.0 -214.1 L135.75 -213.85 Q135.5 -213.75 135.5 -214.55 135.5 -220.1 139.1 -221.7 M159.9 -217.5 Q159.9 -215.9 159.7 -215.45 159.0 -214.1 156.2 -214.1 153.65 -214.1 153.05 -215.4 152.75 -216.05 152.95 -216.8 152.95 -221.4 156.45 -220.5 157.7 -220.2 158.85 -219.2 159.9 -218.25 159.9 -217.5 M150.05 -184.9 L150.8 -185.3 Q153.15 -185.2 154.45 -183.2 L155.3 -181.85 155.45 -179.65 153.45 -179.2 151.95 -180.1 147.9 -179.6 Q147.05 -183.05 150.05 -184.9 M139.3 -178.1 L139.15 -175.5 Q138.5 -175.1 137.25 -175.1 134.9 -175.1 134.25 -176.85 133.9 -177.75 134.05 -178.55 134.05 -180.2 136.7 -179.9 139.3 -179.65 139.3 -178.1 M160.25 -154.8 L159.4 -154.6 Q156.3 -154.6 153.6 -156.55 151.85 -157.8 151.3 -158.85 L151.3 -161.0 152.15 -161.0 Q153.2 -158.9 155.75 -158.3 158.9 -157.6 160.4 -156.1 L160.3 -155.0 160.25 -154.8 M93.55 -167.25 L93.45 -165.95 Q93.0 -164.85 91.5 -164.35 86.35 -164.0 84.8 -165.9 84.25 -166.6 84.25 -168.15 84.25 -170.55 88.9 -170.2 93.55 -169.85 93.55 -167.25 M93.3 -152.5 Q95.1 -152.15 96.4 -150.3 97.8 -148.2 97.8 -145.0 97.8 -143.85 96.25 -141.6 94.5 -139.1 93.0 -139.1 90.3 -139.1 89.25 -143.1 88.75 -145.1 88.75 -146.65 88.75 -149.75 90.15 -151.35 91.45 -152.8 93.3 -152.5 M118.95 -126.75 Q123.55 -127.8 123.55 -123.25 123.55 -121.2 122.55 -120.25 121.1 -118.85 117.15 -118.85 116.35 -118.85 115.75 -119.4 115.3 -119.8 115.3 -120.1 L112.05 -120.35 Q110.85 -121.6 110.55 -122.8 L110.65 -124.85 111.65 -124.9 113.25 -124.75 Q113.95 -124.75 118.95 -126.75 M96.7 -100.1 Q100.6 -98.6 104.15 -95.75 L102.95 -94.45 Q102.4 -94.1 101.2 -95.2 100.0 -96.35 97.65 -97.35 95.3 -98.4 90.65 -101.5 L90.65 -102.1 96.7 -100.1 M85.5 -104.1 L78.0 -104.1 Q74.65 -105.0 73.25 -106.2 72.0 -107.25 72.0 -108.65 L72.05 -110.6 Q73.75 -110.95 76.95 -108.75 81.15 -105.9 86.3 -104.85 85.85 -104.2 85.5 -104.1 M158.05 -139.6 Q158.05 -138.1 157.7 -137.35 157.1 -136.1 155.4 -136.1 154.1 -136.1 152.95 -137.6 152.05 -138.75 152.05 -139.15 152.05 -141.75 155.05 -141.15 158.05 -140.6 158.05 -139.6 M151.8 -140.5 Q149.95 -140.25 149.25 -140.5 L142.8 -141.85 142.6 -142.1 Q142.4 -142.25 142.4 -143.0 142.4 -146.05 146.4 -145.1 150.4 -144.15 151.8 -140.5 M126.6 -145.8 Q126.05 -145.35 126.05 -144.65 126.05 -143.95 126.6 -142.85 L127.25 -141.1 126.95 -140.6 125.85 -140.35 124.35 -140.55 123.8 -140.75 123.55 -142.25 Q123.55 -143.65 123.8 -144.55 L124.05 -146.15 Q124.05 -147.5 124.55 -147.8 L127.05 -147.85 127.3 -146.65 126.6 -145.8 M2.5 -182.6 L-1.35 -183.1 -1.6 -184.85 0.6 -184.8 Q1.7 -184.6 2.8 -183.75 2.8 -182.8 2.5 -182.6 M14.3 -168.1 Q14.3 -166.7 12.15 -164.8 L8.0 -164.95 Q7.6 -165.3 10.9 -170.2 14.3 -175.2 14.3 -168.1 M4.15 -151.7 L4.05 -152.65 Q4.05 -154.9 7.55 -154.8 11.0 -154.65 11.0 -152.8 11.0 -148.0 8.7 -136.9 7.15 -129.5 7.15 -124.45 L7.5 -124.85 Q9.2 -122.6 8.8 -121.0 8.0 -119.3 8.0 -118.05 8.0 -117.4 8.55 -116.9 9.05 -116.35 9.05 -115.75 9.05 -114.05 8.35 -112.4 7.35 -110.1 5.5 -110.1 3.55 -110.1 3.05 -111.55 2.85 -112.3 3.0 -113.15 3.0 -114.85 3.85 -115.95 L6.0 -119.0 6.4 -121.9 6.45 -122.35 Q5.05 -125.45 5.0 -126.8 4.9 -128.65 7.0 -134.65 9.05 -140.7 9.05 -143.75 L8.65 -148.55 Q7.6 -152.85 4.25 -151.35 L4.15 -151.7 M24.8 -150.3 Q26.3 -149.3 26.3 -146.05 26.3 -140.05 25.65 -138.35 22.9 -131.15 22.0 -128.0 20.1 -130.3 18.5 -134.25 16.75 -138.45 16.75 -141.25 16.75 -147.25 21.55 -150.0 23.5 -151.15 24.8 -150.3 M2.3 -106.25 Q3.3 -108.7 5.5 -109.15 7.75 -109.6 9.3 -108.05 11.0 -106.4 11.0 -102.85 11.0 -99.4 10.55 -97.6 L10.3 -96.7 Q11.35 -94.4 12.45 -90.5 L12.9 -88.95 Q12.75 -91.95 13.2 -95.15 13.95 -100.25 16.3 -101.8 18.5 -103.25 21.0 -101.1 23.55 -99.05 24.8 -94.55 26.3 -89.45 25.4 -83.25 25.1 -80.9 23.6 -79.55 L22.3 -78.65 22.55 -78.6 Q28.8 -77.15 29.15 -73.05 L29.4 -66.5 Q29.35 -65.2 28.8 -64.3 L27.55 -61.35 27.1 -60.5 Q27.85 -58.75 28.0 -56.6 31.0 -58.75 35.0 -58.75 41.05 -58.75 44.25 -55.75 46.55 -53.65 46.55 -51.4 46.55 -49.3 44.25 -46.5 41.15 -42.75 36.25 -42.75 27.2 -42.75 23.25 -47.15 21.45 -49.2 21.15 -51.15 19.8 -52.1 18.55 -53.9 17.65 -55.15 17.05 -56.3 14.85 -57.3 13.95 -60.3 12.6 -64.75 12.6 -67.25 12.55 -69.8 12.95 -73.05 L13.35 -76.5 Q9.4 -77.25 8.55 -80.7 8.0 -83.05 7.25 -89.1 7.15 -89.9 5.1 -92.75 4.45 -93.65 4.15 -94.65 2.75 -95.4 2.0 -96.7 0.65 -99.0 0.95 -101.4 1.25 -103.85 2.3 -106.25 M74.5 -87.25 L70.05 -87.35 68.95 -87.9 68.25 -88.5 Q69.25 -89.5 71.85 -90.3 74.4 -91.1 76.6 -91.1 77.25 -91.1 78.6 -89.85 L79.95 -88.4 Q80.65 -88.15 81.5 -87.5 82.7 -86.7 82.95 -84.85 84.3 -80.15 86.0 -79.75 L86.05 -79.35 81.5 -79.6 80.65 -79.75 Q80.3 -79.6 78.45 -81.3 76.6 -83.05 76.3 -84.0 76.3 -86.15 77.2 -87.55 77.75 -88.4 78.5 -88.55 L77.95 -88.95 76.5 -89.85 75.3 -89.75 Q75.45 -88.4 74.5 -87.25 M66.4 -87.55 L66.55 -86.55 Q66.55 -86.0 65.65 -84.55 64.75 -83.05 64.75 -82.25 L64.75 -82.15 Q65.5 -82.7 67.4 -81.7 70.55 -80.05 70.55 -77.25 L70.05 -75.35 66.7 -72.1 68.25 -73.85 68.25 -73.9 66.7 -72.1 65.55 -71.3 65.25 -71.35 66.7 -73.85 Q67.75 -75.85 67.75 -76.4 L67.45 -77.7 Q64.15 -77.5 62.55 -80.4 61.3 -82.6 61.3 -85.35 61.3 -86.55 62.9 -87.55 64.6 -88.6 66.25 -87.85 L66.4 -87.55 M18.35 -78.4 Q16.65 -78.85 15.5 -80.15 16.25 -77.85 16.7 -77.0 17.15 -77.85 18.2 -78.35 L18.35 -78.4 M21.8 -34.25 L22.0 -34.0 21.8 -34.0 Q19.6 -31.3 17.8 -29.85 L18.05 -27.5 Q18.05 -24.85 16.05 -23.85 14.0 -22.85 14.0 -21.5 14.0 -18.75 16.15 -15.8 18.3 -12.8 18.3 -11.75 18.3 -11.05 17.3 -7.25 L16.25 -3.1 15.75 -3.1 Q16.75 -7.7 15.35 -10.1 14.35 -11.75 11.55 -13.05 8.0 -14.65 7.15 -15.4 5.05 -17.2 5.05 -20.55 5.05 -25.2 7.1 -28.65 8.85 -31.7 11.55 -32.8 L13.75 -33.25 15.25 -33.35 18.0 -33.1 21.8 -34.25 M26.0 -35.35 L25.55 -36.0 Q28.45 -41.9 31.5 -41.3 33.75 -40.9 37.25 -36.1 L37.25 -36.0 38.1 -34.1 38.2 -33.6 Q39.25 -30.85 39.35 -28.3 40.9 -25.9 43.3 -24.65 45.35 -23.65 49.5 -23.05 53.45 -22.5 54.75 -21.7 57.0 -20.25 57.0 -16.55 57.0 -15.65 56.25 -15.25 L53.5 -14.85 Q49.15 -14.85 44.25 -20.1 41.8 -22.75 40.25 -25.4 L39.75 -26.4 Q40.45 -24.55 41.25 -23.6 L41.2 -23.55 37.55 -28.6 36.7 -29.55 36.65 -29.8 Q35.25 -31.1 34.2 -32.6 32.9 -34.5 32.5 -36.2 L31.85 -36.75 30.5 -37.2 28.05 -36.5 26.0 -35.35 M77.25 -42.85 Q77.25 -43.95 80.35 -46.75 83.65 -49.75 87.15 -51.5 L89.3 -52.45 Q90.0 -53.35 91.75 -53.05 94.5 -53.4 95.85 -51.45 99.65 -49.35 100.3 -46.1 L100.05 -45.35 Q97.55 -44.35 94.15 -43.7 L92.8 -43.45 88.85 -41.75 Q85.7 -40.4 83.0 -38.55 80.3 -36.75 78.55 -39.1 77.25 -40.9 77.25 -42.85 M65.2 -45.0 Q68.65 -45.45 71.8 -40.75 74.4 -38.25 78.85 -36.25 81.75 -34.95 81.75 -33.0 L80.8 -31.85 79.5 -30.75 Q76.1 -30.05 68.95 -34.75 62.05 -39.2 62.05 -41.15 62.05 -44.6 65.2 -45.0 M65.3 -28.95 Q75.2 -28.1 82.45 -21.55 75.05 -22.0 68.2 -25.35 65.7 -25.45 65.35 -27.85 L65.3 -28.95 M160.5 -80.25 Q160.5 -83.05 161.9 -84.4 165.4 -87.7 171.6 -86.6 176.7 -85.9 178.8 -84.15 180.65 -82.35 180.65 -81.5 180.65 -80.6 177.9 -79.95 174.0 -79.1 170.7 -77.0 168.7 -75.95 166.35 -75.95 162.2 -75.95 160.95 -77.9 160.5 -78.6 160.5 -80.25 M137.75 -52.3 Q143.45 -53.15 145.55 -54.1 L146.15 -48.3 Q146.15 -47.2 144.4 -45.5 142.7 -43.85 141.9 -43.85 136.8 -43.85 135.05 -46.75 L134.3 -49.8 Q134.3 -51.75 137.75 -52.3 M146.65 -57.25 Q146.4 -57.65 146.4 -59.75 146.4 -62.05 150.65 -64.4 154.45 -66.55 160.0 -67.85 165.5 -69.2 169.3 -68.9 173.55 -68.55 173.55 -66.25 171.5 -65.8 169.0 -64.8 164.0 -62.8 161.8 -59.85 L158.9 -56.2 Q157.1 -54.45 154.4 -54.1 L149.9 -54.1 146.65 -57.25 M107.3 -82.15 Q107.3 -80.1 106.8 -79.4 105.4 -77.25 100.4 -77.25 L98.9 -77.35 98.5 -77.45 Q95.3 -78.2 94.35 -79.05 93.8 -79.55 93.8 -80.9 93.8 -82.5 95.75 -84.0 97.5 -85.4 100.0 -86.05 105.25 -87.4 106.05 -84.45 L107.15 -84.25 107.3 -82.15 M121.3 -31.5 L123.4 -31.75 Q127.15 -31.75 128.15 -26.9 128.15 -25.8 126.55 -24.1 125.15 -22.6 123.3 -22.1 L121.4 -21.85 Q117.8 -21.85 116.4 -23.5 115.65 -24.4 115.65 -25.55 115.65 -27.65 117.5 -29.5 119.05 -31.05 121.3 -31.5 M94.05 -19.35 L90.05 -19.35 Q88.2 -19.5 87.7 -20.25 87.55 -20.45 87.55 -21.15 87.55 -23.85 90.85 -23.45 94.15 -23.05 94.15 -20.85 L94.05 -19.35 M159.0 -35.95 L163.3 -36.15 Q165.3 -35.1 165.3 -31.85 165.3 -29.6 162.2 -28.1 159.35 -26.75 155.9 -26.75 L153.05 -26.85 152.85 -26.65 Q152.65 -26.6 152.65 -27.4 152.65 -30.1 154.65 -32.6 156.45 -34.9 159.0 -35.95 M180.2 -161.15 Q177.4 -160.05 175.9 -158.35 175.25 -158.8 174.85 -159.8 174.55 -160.6 174.55 -161.3 174.55 -165.05 178.3 -166.25 182.05 -167.45 182.05 -163.5 182.05 -161.9 180.2 -161.15 M199.4 -145.0 Q199.4 -146.65 201.3 -148.25 203.05 -149.7 205.4 -150.3 211.4 -151.75 211.4 -146.65 211.4 -144.75 210.05 -143.05 208.5 -141.1 205.9 -140.6 L200.4 -140.6 Q199.4 -142.85 199.4 -145.0 M169.15 -125.1 Q166.75 -125.1 165.7 -126.35 165.05 -127.1 165.05 -127.8 165.05 -128.5 165.35 -129.0 L165.65 -129.75 168.3 -128.0 Q169.5 -127.2 170.3 -126.0 L170.15 -125.4 Q169.95 -125.1 169.15 -125.1 M174.15 -106.5 Q174.15 -105.85 173.35 -105.0 L172.4 -104.25 170.05 -104.35 169.7 -104.6 169.65 -105.5 Q169.65 -106.45 170.6 -107.25 171.85 -108.35 174.05 -107.6 L174.15 -106.5 M215.3 -121.35 Q215.3 -125.5 219.6 -125.35 223.9 -125.15 223.9 -122.05 223.9 -120.15 223.05 -118.85 221.8 -117.0 218.9 -117.0 216.55 -117.0 215.7 -119.15 215.25 -120.2 215.3 -121.35 M186.0 -63.6 L185.1 -64.85 Q183.85 -70.95 190.95 -71.7 198.05 -72.45 199.95 -70.85 201.9 -69.15 201.9 -66.25 201.9 -65.0 199.95 -63.95 197.95 -62.9 193.5 -63.1 L186.0 -63.6 M182.45 -31.1 Q182.15 -30.2 180.9 -30.0 169.75 -29.85 166.6 -31.2 165.3 -31.75 165.3 -33.5 165.3 -35.7 166.05 -36.5 167.55 -38.1 172.65 -38.1 179.0 -38.1 181.4 -35.35 182.6 -34.0 182.55 -32.55 L182.45 -31.1 M173.9 17.5 Q177.3 17.35 179.5 19.45 182.0 21.9 182.0 26.45 182.0 28.4 179.45 30.4 L177.35 31.7 178.1 32.65 Q180.3 35.5 180.3 36.3 180.3 40.3 177.45 42.85 173.25 46.55 167.9 46.05 160.8 45.7 160.05 42.75 159.4 40.35 159.4 39.0 159.4 35.35 161.85 33.1 163.65 31.5 166.85 30.4 L166.15 29.05 Q165.75 27.9 165.7 26.45 L165.8 25.0 Q165.8 21.75 168.35 19.6 170.7 17.55 173.9 17.5 M121.65 23.5 L119.9 23.8 Q118.3 23.8 117.4 22.8 L117.4 20.25 120.3 20.35 Q121.8 21.0 121.8 22.0 L121.65 23.5 M87.05 18.3 L86.9 17.8 Q86.55 17.2 86.55 16.6 86.55 12.7 91.75 13.0 L94.55 13.6 Q97.55 13.75 98.4 14.55 98.8 14.95 98.8 16.4 98.8 18.05 98.2 18.6 96.95 19.65 92.95 19.75 L91.65 19.8 88.95 19.4 Q87.65 19.05 87.05 18.3 M86.05 32.75 Q85.6 33.3 83.65 33.3 L82.65 33.2 82.55 33.05 82.3 31.35 82.55 29.3 Q86.3 28.05 86.3 31.0 L86.05 32.75 M103.95 69.5 Q102.55 67.0 103.15 64.25 103.75 61.45 108.95 57.7 111.45 56.35 115.05 55.1 126.95 50.85 133.55 53.3 L133.3 53.95 133.3 54.75 Q126.5 54.15 121.3 56.25 116.1 58.3 115.85 65.75 112.25 71.05 110.9 71.0 L105.05 71.0 103.95 69.5 M55.0 11.8 Q55.0 14.7 53.25 18.55 50.9 23.8 47.0 23.8 43.25 23.8 39.05 17.05 35.55 11.4 35.55 9.75 35.55 6.9 37.0 4.75 38.95 1.8 43.0 1.8 50.35 1.8 53.35 6.25 55.0 8.7 55.0 11.8 M32.3 17.05 Q32.65 16.7 35.55 17.0 L35.55 19.55 Q35.75 20.25 34.5 20.25 L33.2 20.1 32.3 19.75 32.3 17.05 M6.4 7.6 Q7.25 11.4 6.55 13.15 L5.3 16.1 Q4.8 17.2 4.9 20.6 5.0 23.95 6.05 23.85 L13.2 22.65 Q16.4 22.6 18.8 23.85 22.25 25.65 22.25 29.35 L22.4 29.7 23.0 31.6 Q23.0 33.25 19.55 36.4 15.9 39.8 12.5 40.55 L7.0 40.55 Q4.5 39.95 2.7 38.55 0.9 37.15 1.0 35.6 0.55 35.05 0.35 34.3 L0.25 31.85 Q-0.1 27.6 0.3 23.15 0.7 18.65 2.5 16.0 4.3 13.25 5.0 11.1 L6.4 7.6 M11.25 22.75 L13.0 22.65 Q8.8 23.0 11.25 22.75 M-9.7 -376.3 L-9.55 -375.95 -9.45 -375.0 Q-9.45 -373.65 -9.75 -373.3 -10.2 -372.8 -12.0 -372.8 -14.25 -372.8 -14.95 -373.85 L-15.25 -375.05 Q-15.25 -376.05 -13.4 -376.5 L-9.7 -376.3 M-26.75 -347.8 Q-26.75 -345.9 -28.25 -344.4 L-30.25 -344.3 -30.35 -345.8 Q-30.35 -346.95 -29.95 -347.3 -29.55 -347.7 -27.25 -348.55 -26.75 -349.05 -26.75 -347.8 M-21.85 -354.15 Q-21.85 -357.45 -18.55 -356.85 -15.2 -356.2 -15.2 -354.7 -15.2 -351.1 -19.6 -351.1 -21.35 -351.1 -21.8 -352.45 L-21.85 -354.15 M-53.45 -322.8 Q-52.5 -322.45 -51.65 -321.7 -50.1 -320.3 -50.1 -318.35 -50.1 -316.0 -51.1 -314.4 -52.7 -311.9 -56.5 -311.9 -58.6 -311.9 -59.5 -314.6 -59.95 -315.95 -60.0 -317.4 L-60.0 -317.75 -61.95 -322.05 -69.7 -329.9 Q-70.25 -331.0 -70.25 -333.65 -70.25 -337.05 -66.85 -336.85 -63.25 -336.7 -60.0 -332.15 -59.1 -331.15 -58.8 -329.55 L-58.35 -326.9 Q-57.9 -325.1 -55.8 -324.2 L-53.35 -323.05 -53.45 -322.8 M-19.1 -326.3 Q-18.95 -328.15 -15.7 -328.9 L-14.05 -329.1 -13.0 -328.4 -12.35 -327.0 -12.25 -326.4 Q-11.5 -325.45 -11.5 -324.15 -11.5 -321.45 -12.25 -320.05 -13.55 -317.55 -17.25 -317.55 -19.5 -317.55 -19.95 -320.15 L-20.1 -321.7 -20.1 -323.25 Q-20.1 -324.45 -19.65 -325.25 L-19.1 -326.3 M-147.95 -305.15 Q-146.35 -303.65 -145.9 -301.55 L-145.4 -296.8 -144.55 -289.9 -144.7 -289.65 Q-144.95 -289.3 -145.7 -289.15 -148.2 -288.65 -150.85 -291.7 -152.85 -294.05 -153.15 -295.4 -155.3 -305.65 -151.2 -306.35 -149.6 -306.6 -147.95 -305.15 M-122.75 -303.05 Q-122.75 -305.2 -120.3 -304.6 -117.9 -304.05 -117.9 -302.1 L-118.1 -300.9 Q-118.85 -300.0 -121.4 -300.3 -122.05 -300.8 -122.5 -301.7 L-122.75 -303.05 M-115.95 -270.45 Q-117.1 -269.8 -118.8 -269.8 L-121.2 -270.05 -121.3 -271.4 Q-121.3 -273.65 -118.0 -273.95 -114.75 -274.3 -114.75 -272.15 -114.75 -271.05 -115.95 -270.45 M-96.6 -257.1 Q-96.6 -260.1 -93.3 -262.45 -90.05 -264.75 -85.95 -264.95 -81.5 -265.2 -78.65 -262.65 -75.35 -259.65 -75.6 -256.0 -75.9 -252.4 -78.65 -250.7 -81.4 -249.05 -87.25 -248.75 -93.1 -248.5 -94.85 -249.85 -96.6 -251.25 -96.6 -257.1 M-134.3 -275.5 Q-134.8 -274.6 -135.45 -271.35 -136.0 -268.7 -137.25 -267.55 L-137.5 -267.3 Q-138.3 -264.05 -143.25 -261.3 -141.25 -263.9 -141.0 -265.85 L-142.25 -265.8 -143.4 -265.9 -144.2 -265.95 -145.0 -266.15 -144.8 -266.65 -145.1 -267.65 Q-145.1 -269.9 -142.8 -270.55 L-142.6 -270.6 -139.85 -273.8 Q-135.6 -277.85 -130.35 -279.05 -133.15 -277.65 -134.3 -275.5 M-158.25 -278.8 Q-161.3 -277.25 -161.9 -277.3 -162.5 -277.4 -165.1 -276.55 -167.75 -275.7 -167.75 -277.85 -167.75 -280.0 -166.35 -280.45 -164.25 -281.2 -159.25 -279.55 L-158.25 -278.8 M-157.25 -211.15 Q-158.1 -209.4 -159.25 -209.4 -160.6 -209.4 -161.0 -210.5 L-161.1 -211.75 Q-161.1 -214.7 -158.8 -215.7 -156.5 -216.75 -156.5 -214.15 -156.5 -212.7 -157.25 -211.15 M-103.5 -214.85 Q-103.5 -214.0 -104.9 -213.4 -106.1 -212.9 -107.5 -212.9 -109.85 -212.9 -111.5 -214.75 -113.15 -216.65 -116.6 -216.65 -113.7 -220.5 -108.55 -219.4 -103.5 -218.3 -103.5 -214.85 M-85.2 -216.35 Q-82.9 -218.8 -80.1 -219.95 -77.0 -221.25 -75.05 -219.95 -72.75 -218.45 -72.75 -213.55 -83.9 -209.75 -87.35 -201.4 L-87.55 -201.2 Q-87.8 -201.0 -88.35 -200.9 L-88.45 -200.75 -88.6 -201.5 -88.05 -206.75 Q-87.5 -211.35 -87.5 -212.0 -87.5 -213.9 -85.2 -216.35 M-8.5 -272.4 Q-4.5 -271.3 -8.4 -271.2 -12.3 -271.1 -18.85 -274.55 -25.45 -278.05 -30.6 -277.1 -35.8 -276.15 -36.65 -274.5 -37.55 -272.9 -42.5 -272.9 -43.75 -272.9 -44.0 -273.9 L-44.0 -274.65 Q-44.0 -279.65 -28.25 -277.5 -22.2 -276.65 -17.4 -275.15 L-8.5 -272.4 M-32.35 -248.4 L-33.1 -240.3 -33.5 -240.05 Q-34.3 -240.8 -36.0 -244.45 -37.6 -247.95 -37.6 -248.75 -37.6 -251.35 -34.95 -251.1 -32.35 -250.8 -32.35 -248.4 M-20.75 -207.45 Q-19.0 -209.35 -16.7 -209.8 -10.85 -210.85 -10.85 -201.5 -10.85 -198.85 -11.6 -197.0 -12.95 -193.75 -16.5 -193.75 L-17.6 -193.95 Q-17.85 -192.45 -18.5 -191.35 -19.85 -189.1 -22.75 -189.1 -25.2 -189.1 -26.45 -190.0 -29.0 -190.15 -30.65 -194.5 L-31.75 -198.4 Q-31.75 -201.05 -29.95 -203.3 -28.2 -205.45 -26.0 -205.75 -23.8 -206.0 -22.45 -204.5 -22.05 -206.05 -20.75 -207.45 M-187.85 -284.35 Q-187.85 -282.4 -188.9 -280.8 -190.35 -278.55 -193.25 -278.55 -196.0 -278.55 -196.9 -280.7 -197.35 -281.8 -197.25 -283.05 -197.25 -287.35 -192.55 -287.95 -190.65 -288.25 -189.3 -287.35 -187.85 -286.35 -187.85 -284.35 M-184.5 -248.9 L-185.2 -249.0 Q-185.5 -249.1 -185.5 -249.9 -185.5 -252.35 -183.15 -252.65 -180.4 -252.95 -174.75 -250.3 L-176.5 -250.35 -178.3 -250.55 Q-181.9 -250.55 -183.1 -249.85 L-184.5 -248.9 M-203.65 -260.75 Q-204.1 -255.1 -204.5 -253.95 -204.9 -252.8 -207.4 -249.05 -209.9 -245.3 -213.75 -245.3 -218.65 -245.3 -219.35 -249.95 -220.1 -254.6 -219.55 -256.4 L-218.05 -260.3 Q-217.15 -262.4 -215.45 -264.25 -210.35 -269.7 -206.5 -267.3 -204.2 -266.15 -203.65 -260.75 M-222.95 -237.7 Q-222.05 -237.1 -222.05 -236.65 -222.05 -231.6 -225.0 -231.6 -227.0 -231.6 -227.65 -233.2 L-227.85 -235.0 Q-227.85 -238.95 -224.9 -238.5 -223.9 -238.35 -222.95 -237.7 M-203.5 -209.6 Q-204.6 -208.5 -207.4 -208.4 -208.9 -208.3 -211.25 -208.35 L-208.0 -210.45 Q-206.3 -211.6 -204.0 -210.75 L-203.5 -209.6 M-162.85 -185.7 Q-159.6 -184.75 -159.6 -183.1 -159.6 -180.85 -165.0 -180.5 L-165.75 -181.8 -166.1 -183.15 Q-166.1 -186.7 -162.85 -185.7 M-176.25 -153.0 Q-171.65 -154.25 -170.5 -156.6 L-170.1 -158.05 -170.25 -159.6 Q-166.95 -159.85 -165.9 -157.2 L-165.5 -154.35 Q-165.5 -153.45 -166.75 -152.5 -168.35 -151.25 -171.0 -151.25 L-174.05 -150.95 -176.25 -153.0 M-217.25 -190.8 Q-218.35 -189.3 -222.5 -189.3 -223.65 -189.3 -224.1 -191.8 L-224.35 -194.05 Q-224.35 -198.75 -220.55 -197.8 -216.75 -196.8 -216.75 -193.6 -216.75 -191.45 -217.25 -190.8 M-211.5 -135.35 Q-211.5 -134.5 -211.8 -133.45 -212.25 -132.0 -213.0 -131.85 L-217.0 -131.75 Q-218.2 -132.55 -218.85 -134.1 L-219.35 -135.9 Q-219.35 -140.6 -215.4 -139.05 -213.95 -138.5 -212.75 -137.3 -211.5 -136.15 -211.5 -135.35 M-213.35 -99.6 L-213.15 -99.2 Q-213.0 -98.85 -213.0 -98.1 -213.0 -97.55 -214.0 -96.75 -215.25 -95.75 -217.0 -95.75 L-219.35 -95.85 -219.75 -96.1 -219.85 -97.0 Q-219.85 -98.2 -218.0 -99.2 -215.85 -100.4 -213.35 -99.6 M-181.0 -125.6 Q-187.8 -125.6 -192.0 -128.2 -195.25 -130.25 -195.25 -132.15 -195.25 -133.6 -192.25 -136.2 -189.15 -138.85 -185.65 -140.25 -176.1 -144.0 -176.1 -133.5 -176.1 -125.6 -181.0 -125.6 M-167.35 -114.75 Q-167.35 -116.4 -166.1 -117.75 -164.45 -119.5 -161.25 -119.5 -158.5 -119.5 -157.75 -117.0 -157.5 -116.2 -157.5 -114.15 -157.5 -109.4 -158.15 -106.55 -158.5 -104.85 -160.75 -97.85 -165.15 -103.6 -166.3 -106.75 -167.35 -109.5 -167.35 -114.75 M-265.75 -116.8 Q-263.15 -118.35 -259.4 -118.15 -255.7 -117.9 -253.1 -116.05 -250.25 -113.95 -250.25 -110.75 -250.25 -109.35 -252.5 -107.25 -256.8 -104.0 -266.85 -106.5 -268.2 -107.25 -268.5 -108.9 L-268.6 -111.75 Q-268.6 -115.0 -265.75 -116.8 M-268.75 -55.9 Q-268.75 -60.45 -266.25 -63.45 -262.9 -67.45 -255.75 -67.35 -257.35 -66.1 -258.5 -63.5 -259.6 -61.1 -259.6 -59.35 -259.6 -57.85 -258.8 -54.85 -258.0 -51.85 -258.0 -50.55 -258.0 -49.25 -259.4 -48.5 -260.6 -47.85 -262.25 -47.85 -266.45 -47.85 -268.05 -51.8 -268.8 -53.8 -268.75 -55.9 M-177.15 -97.2 L-180.85 -96.0 -181.3 -96.2 Q-181.5 -96.35 -181.5 -97.1 -181.5 -98.75 -178.75 -100.4 -176.0 -102.0 -176.0 -98.9 -176.0 -97.7 -177.15 -97.2 M-187.0 -94.6 Q-187.2 -94.35 -188.0 -94.35 L-190.1 -94.55 -192.75 -94.75 -192.85 -94.95 -193.0 -95.85 Q-193.0 -97.55 -191.3 -96.95 -188.7 -95.65 -186.85 -95.1 L-187.0 -94.6 M-181.2 -52.35 Q-180.35 -51.25 -180.35 -49.35 -180.35 -49.0 -181.5 -48.0 L-183.0 -47.0 Q-183.45 -47.0 -184.7 -47.8 -186.15 -48.65 -186.6 -49.5 L-186.6 -52.85 Q-182.7 -54.4 -181.2 -52.35 M-222.0 -96.4 Q-222.0 -95.2 -224.25 -93.75 -226.25 -92.5 -227.0 -92.5 L-229.1 -92.6 -229.2 -92.6 -229.35 -93.4 Q-229.35 -94.95 -227.45 -96.7 -225.1 -98.75 -222.1 -97.75 L-222.0 -96.4 M-186.25 -1.5 Q-184.55 2.85 -188.15 7.55 -191.75 12.25 -197.65 12.75 -203.6 13.25 -205.75 9.55 -207.35 6.8 -207.35 5.6 -207.35 0.6 -206.25 -1.5 -203.9 -5.85 -196.0 -7.6 -190.85 -7.2 -189.4 -6.55 -188.0 -5.9 -186.25 -1.5 M-46.35 -185.3 Q-43.25 -180.3 -44.85 -174.4 L-45.15 -172.0 Q-45.15 -168.6 -46.5 -165.85 L-46.6 -164.75 -47.25 -164.6 -49.7 -168.7 Q-55.1 -176.35 -51.65 -184.6 -50.1 -186.85 -47.65 -186.3 -46.8 -186.0 -46.35 -185.3 M-65.85 -192.6 L-68.9 -188.1 Q-70.0 -186.55 -70.0 -184.65 L-70.5 -181.85 -71.0 -179.05 -71.0 -175.85 Q-71.35 -173.85 -73.25 -173.85 -75.8 -173.85 -76.5 -176.05 -76.9 -177.2 -76.75 -178.4 -76.75 -179.6 -74.15 -182.05 -71.25 -184.9 -70.85 -185.75 -67.75 -192.4 -66.25 -193.35 L-65.85 -192.6 M-69.35 -153.85 Q-69.35 -151.65 -69.75 -148.7 -70.4 -143.7 -71.85 -142.25 L-74.25 -142.25 Q-75.4 -147.15 -78.95 -152.75 -81.75 -157.2 -81.75 -161.8 -81.75 -167.8 -75.55 -162.5 -73.2 -160.5 -71.3 -157.9 -69.35 -155.2 -69.35 -153.85 M-54.5 -168.35 Q-52.85 -165.1 -50.75 -157.35 -49.15 -151.2 -49.35 -150.7 L-46.85 -147.85 Q-43.25 -143.6 -45.6 -139.65 -48.0 -135.75 -51.5 -142.65 -55.0 -149.6 -55.3 -153.15 L-56.1 -163.25 Q-56.1 -167.2 -54.5 -168.35 M-43.0 -124.1 Q-37.55 -125.0 -34.65 -118.85 -32.75 -114.85 -32.75 -111.8 L-32.75 -111.0 -32.85 -110.85 Q-36.55 -115.05 -41.45 -118.1 -43.6 -119.4 -43.6 -123.4 -43.6 -124.15 -43.3 -124.2 L-43.0 -124.1 M-79.15 -145.95 Q-75.55 -144.15 -75.45 -141.95 -75.35 -139.8 -77.25 -136.5 -79.9 -131.85 -84.0 -131.85 L-87.35 -132.0 Q-90.2 -133.5 -90.85 -136.1 -91.1 -136.95 -91.0 -140.6 -90.95 -142.45 -90.3 -144.0 -88.0 -151.9 -80.0 -146.4 L-79.15 -145.95 M-32.05 -100.05 Q-30.35 -98.8 -30.35 -95.0 -30.35 -93.7 -32.5 -90.5 -35.15 -86.5 -38.25 -86.5 L-39.25 -86.55 -39.9 -85.9 Q-42.6 -83.25 -42.6 -81.1 -42.6 -80.25 -40.35 -75.35 -38.15 -70.45 -37.75 -68.3 L-37.6 -67.65 Q-32.35 -68.8 -27.45 -64.75 -22.1 -60.35 -22.1 -55.55 -22.1 -52.4 -22.85 -50.85 -24.75 -47.1 -30.75 -47.1 L-31.75 -47.15 Q-31.8 -44.5 -33.85 -41.35 -36.85 -36.85 -42.0 -36.85 -54.7 -36.85 -59.25 -41.7 -61.35 -44.0 -61.35 -47.15 -61.35 -48.65 -60.75 -49.95 L-63.25 -49.6 Q-71.6 -49.6 -74.75 -59.35 -76.3 -64.25 -76.25 -69.65 -76.25 -71.1 -74.65 -72.45 -73.0 -73.85 -70.6 -74.25 L-68.9 -74.4 -69.25 -76.0 Q-69.85 -79.55 -69.5 -83.1 -69.5 -85.1 -66.9 -87.2 -64.35 -89.3 -61.15 -90.0 -57.65 -90.75 -55.45 -89.25 -52.85 -87.45 -52.85 -82.8 -52.85 -79.35 -54.85 -75.1 -56.8 -70.9 -59.85 -69.5 L-56.75 -63.45 Q-56.1 -61.6 -56.1 -58.25 L-56.1 -58.15 -55.5 -58.0 -53.2 -57.75 -48.35 -57.1 -48.25 -56.85 -46.55 -56.95 -42.9 -56.85 -43.0 -57.15 Q-43.55 -59.25 -43.6 -61.5 -43.6 -63.7 -43.3 -64.15 L-42.2 -65.0 -44.35 -81.3 Q-44.35 -84.2 -41.35 -88.2 -41.35 -92.2 -39.65 -95.55 -38.1 -98.5 -35.85 -99.85 -33.6 -101.15 -32.05 -100.05 M-87.25 -190.1 Q-87.1 -189.85 -87.1 -188.6 -87.1 -185.5 -90.5 -185.5 L-92.5 -185.75 -92.6 -187.8 Q-92.6 -188.65 -90.4 -189.45 -88.35 -190.25 -87.25 -190.1 M-107.35 -159.1 L-110.25 -154.75 Q-111.85 -152.05 -112.25 -150.1 -111.8 -147.9 -111.95 -146.15 -112.25 -142.75 -115.5 -142.75 -117.75 -142.75 -118.2 -144.0 -118.45 -144.65 -118.25 -145.4 -118.25 -148.8 -114.4 -152.75 L-107.35 -159.1 M-144.0 -108.0 Q-143.55 -109.65 -140.95 -112.1 -138.5 -114.55 -137.1 -114.9 -136.4 -108.95 -137.7 -106.4 L-139.4 -103.4 -139.95 -102.45 -140.4 -102.45 -141.7 -102.65 Q-143.8 -103.25 -144.15 -105.6 -144.3 -106.8 -144.0 -108.0 M-114.5 -109.75 Q-112.3 -109.55 -110.5 -105.4 -108.75 -101.25 -109.75 -98.75 -110.7 -90.15 -111.85 -85.0 -112.2 -88.85 -117.0 -93.4 -121.0 -97.2 -121.0 -100.4 L-120.75 -102.65 Q-120.3 -104.1 -119.0 -105.0 L-115.5 -105.0 -113.2 -103.25 Q-112.85 -104.4 -112.85 -104.85 -112.85 -106.4 -114.75 -109.5 L-114.75 -109.75 -114.6 -109.75 -114.5 -109.75 -114.5 -109.6 -114.5 -109.75 M-108.05 -67.45 Q-109.55 -69.9 -107.5 -71.65 -103.7 -73.05 -99.2 -68.65 -97.3 -65.65 -98.3 -62.1 -97.45 -62.85 -96.0 -63.25 -92.8 -64.15 -88.3 -63.2 -83.7 -62.25 -80.6 -59.95 -77.1 -57.4 -77.1 -54.15 -77.1 -52.35 -77.85 -51.85 -79.05 -51.1 -83.5 -51.1 -93.7 -51.1 -97.25 -53.85 -99.5 -55.6 -99.5 -59.5 -99.5 -61.1 -98.35 -62.1 L-99.2 -61.9 -105.0 -65.4 Q-106.95 -65.7 -108.05 -67.45 M-134.75 -75.15 Q-132.8 -73.45 -132.8 -70.95 -132.8 -69.05 -134.4 -66.9 -136.3 -64.3 -139.0 -64.3 -141.9 -64.3 -143.95 -67.0 -145.4 -68.95 -145.4 -69.85 -145.4 -73.35 -143.4 -75.2 -141.7 -76.85 -139.1 -76.75 -136.55 -76.7 -134.75 -75.15 M-148.15 -9.5 Q-140.25 -11.7 -140.25 -8.85 -140.25 -6.8 -143.3 -5.45 -146.35 -4.1 -149.3 -3.0 -152.25 -1.9 -154.75 -1.75 L-155.7 -3.15 Q-156.1 -3.95 -156.1 -4.4 -156.1 -7.3 -148.15 -9.5 M-88.0 -13.6 Q-86.5 -12.3 -86.5 -11.85 L-86.65 -10.3 -86.85 -8.85 -89.5 -8.6 Q-92.3 -8.6 -93.0 -10.0 -93.3 -10.7 -93.1 -11.5 -93.1 -13.25 -92.0 -13.6 L-88.0 -13.6 M-59.25 -52.25 L-59.2 -52.2 -59.1 -52.35 -59.25 -52.25 M-73.65 -46.3 Q-70.85 -45.4 -68.9 -42.85 -66.75 -39.95 -66.75 -36.1 -66.75 -34.45 -67.6 -33.1 -68.9 -31.1 -71.75 -31.1 -78.35 -31.95 -79.45 -36.45 -80.6 -39.85 -80.6 -41.25 -80.6 -44.55 -78.45 -45.95 -76.45 -47.15 -73.65 -46.3 M-22.15 -7.3 Q-19.6 -9.75 -9.75 -8.35 -5.25 -7.35 -2.1 -6.0 3.8 -3.45 3.8 -1.1 3.8 -0.25 -1.0 -0.1 L-12.2 -0.45 -20.75 -1.45 Q-22.95 -1.95 -23.85 -3.4 -24.75 -4.85 -22.15 -7.3 M-38.75 38.25 Q-39.0 34.45 -34.75 32.3 -30.5 30.1 -24.4 30.75 -18.3 31.4 -14.25 33.95 -9.75 36.8 -9.2 40.05 -8.7 43.25 -14.1 45.7 -19.55 48.15 -25.2 47.3 -30.85 46.4 -34.65 44.25 -38.5 42.05 -38.75 38.25 M-51.0 9.55 Q-50.6 10.35 -50.6 11.4 -50.6 12.35 -56.2 15.05 -62.35 18.0 -66.5 18.0 -72.35 18.0 -73.65 16.3 -74.25 15.45 -73.75 14.4 -73.75 11.7 -70.15 9.45 -67.2 7.65 -63.15 6.95 -61.95 6.8 -58.4 7.0 -54.8 7.2 -51.0 9.55 M-117.0 17.05 L-117.05 17.2 -118.0 17.3 Q-121.35 17.3 -121.7 16.3 L-121.85 14.3 -121.75 14.15 -120.75 14.05 Q-119.95 14.05 -118.75 14.55 -117.6 15.05 -117.0 15.55 L-116.85 16.1 -117.0 17.05 M-106.6 23.55 L-107.25 24.2 Q-107.9 24.8 -108.75 25.0 L-111.85 25.0 -112.05 24.8 -112.1 24.0 Q-112.1 22.75 -110.95 22.4 -109.6 21.95 -106.85 22.8 L-106.6 23.55 M-112.9 28.65 Q-113.2 30.2 -115.45 30.45 -120.05 31.05 -124.9 29.4 -129.5 27.85 -129.7 26.1 -130.0 24.1 -127.55 23.0 -125.3 22.0 -121.95 22.1 -118.55 22.25 -116.1 23.4 -113.3 24.6 -113.0 26.6 -112.8 28.3 -112.9 28.65 M-161.7 37.9 Q-164.45 38.1 -165.45 33.65 L-165.85 29.7 Q-166.3 23.85 -156.8 24.3 -153.15 24.5 -150.35 25.7 -147.25 27.0 -147.15 28.65 -146.95 31.8 -150.5 34.4 -154.6 37.4 -161.7 37.9 M-196.4 36.35 L-196.5 36.3 -196.5 37.5 Q-196.4 38.8 -197.0 40.5 -202.55 45.6 -206.65 46.05 -210.75 46.5 -211.25 40.9 -211.75 35.25 -203.35 35.15 L-202.45 35.15 Q-200.65 34.25 -199.35 33.05 L-197.3 30.5 Q-195.55 28.55 -194.25 28.5 L-193.85 28.8 Q-194.85 30.55 -196.4 36.35" fill="#848484" fill-rule="evenodd" stroke="none"/>
    </g>
  </defs>
</svg>
