<?xml version="1.0" encoding="UTF-8" standalone="no"?>
<svg xmlns:ffdec="https://www.free-decompiler.com/flash" xmlns:xlink="http://www.w3.org/1999/xlink" ffdec:objectType="frame" height="499.45px" width="496.15px" xmlns="http://www.w3.org/2000/svg">
  <g transform="matrix(1.0, 0.0, 0.0, 1.0, 270.5, 376.7)">
    <use ffdec:characterId="187" height="409.4" transform="matrix(1.0, 0.0, 0.0, 1.0, -267.0, -345.6)" width="488.0" xlink:href="#shape0"/>
  </g>
  <defs>
    <g id="shape0" transform="matrix(1.0, 0.0, 0.0, 1.0, 267.0, 345.6)">
      <path d="M168.5 -249.65 L172.25 -249.3 Q175.6 -247.85 174.6 -244.25 L174.25 -243.5 Q172.6 -240.75 169.0 -240.75 165.4 -240.75 164.5 -242.45 164.35 -242.8 164.35 -244.5 164.35 -246.15 165.25 -247.8 166.45 -249.9 168.5 -249.65 M167.95 -256.8 Q167.5 -256.15 165.5 -256.15 163.45 -256.15 163.05 -257.0 162.8 -257.4 163.0 -257.9 163.0 -260.1 165.3 -260.55 167.6 -261.0 168.0 -259.25 168.4 -257.5 167.95 -256.8 M80.0 -295.45 Q81.6 -294.4 81.6 -293.45 81.6 -292.7 81.2 -292.4 L80.2 -291.95 76.3 -292.15 Q73.1 -292.6 74.4 -294.45 78.45 -296.45 80.0 -295.45 M65.9 -283.3 Q65.9 -286.15 68.8 -286.5 71.7 -286.9 71.7 -284.0 71.7 -283.05 71.0 -282.3 70.2 -281.4 68.75 -281.4 67.1 -281.4 66.35 -282.3 65.9 -282.85 65.9 -283.3 M50.8 -217.15 Q50.2 -216.25 48.25 -216.25 44.95 -216.25 44.0 -218.75 43.55 -219.95 43.75 -220.8 43.75 -225.75 47.5 -224.8 51.25 -223.85 51.25 -219.55 51.25 -217.75 50.8 -217.15 M46.65 -213.15 Q49.55 -212.75 49.55 -210.85 49.55 -209.6 49.0 -208.6 48.4 -207.5 47.5 -207.5 44.75 -207.5 44.0 -209.1 43.75 -209.65 43.75 -211.0 43.75 -213.55 46.65 -213.15 M140.65 -266.5 Q140.65 -268.15 143.45 -270.35 L144.2 -270.95 Q147.4 -273.25 151.0 -272.75 156.05 -272.35 158.25 -270.05 159.75 -268.5 159.75 -266.2 159.75 -264.75 159.25 -264.0 158.25 -262.55 156.15 -263.05 154.05 -263.55 152.8 -264.45 L146.5 -264.7 140.95 -264.95 Q140.65 -265.45 140.65 -266.5 M124.5 -259.4 Q124.5 -257.75 124.1 -256.15 123.4 -253.3 121.75 -253.3 119.05 -253.3 116.25 -257.5 113.9 -260.95 113.9 -261.95 113.9 -266.65 119.2 -264.4 121.25 -263.5 122.85 -262.05 124.5 -260.5 124.5 -259.4 M120.15 -285.15 Q120.15 -284.7 119.15 -283.95 L117.5 -283.0 115.75 -283.0 Q115.05 -283.2 114.65 -283.9 114.25 -284.45 114.25 -284.95 114.25 -286.2 114.75 -287.1 115.45 -288.25 116.75 -288.25 118.7 -288.25 119.6 -286.85 120.15 -285.95 120.15 -285.15 M22.4 -149.3 Q20.75 -147.35 20.75 -145.1 L20.5 -144.85 Q18.75 -148.6 18.75 -150.4 18.75 -152.75 19.2 -153.55 20.2 -155.25 23.8 -154.75 L24.0 -152.65 Q24.0 -151.25 22.4 -149.3 M9.15 -106.3 Q8.0 -103.15 8.0 -101.75 8.0 -100.75 9.05 -97.6 6.4 -100.0 4.25 -109.3 4.25 -113.15 7.25 -114.2 10.25 -115.25 10.25 -111.05 10.25 -109.4 9.15 -106.3 M17.2 -108.45 Q18.4 -108.25 19.3 -106.5 20.3 -104.55 20.3 -101.85 L20.25 -97.0 Q19.7 -93.35 17.0 -93.35 14.55 -93.35 14.05 -97.05 13.8 -98.95 14.05 -100.9 14.05 -108.95 17.2 -108.45 M25.25 -79.0 Q23.35 -69.0 21.05 -65.2 L22.8 -60.1 Q24.0 -60.25 25.7 -62.05 28.6 -65.2 33.0 -64.0 36.2 -62.3 37.2 -60.95 38.05 -59.8 38.05 -57.9 38.05 -56.3 35.5 -55.35 33.2 -54.5 29.75 -54.5 L27.95 -54.6 27.75 -54.6 Q26.45 -54.6 25.55 -55.2 L24.6 -55.8 Q20.35 -60.1 19.15 -63.15 L19.0 -63.1 18.8 -64.3 18.6 -65.45 Q17.6 -70.7 17.5 -71.9 17.25 -73.95 17.25 -79.5 17.25 -85.3 21.25 -84.75 22.85 -84.55 24.0 -83.05 25.25 -81.4 25.25 -79.0 M4.45 -28.55 Q4.05 -29.1 4.05 -29.85 4.05 -34.15 9.55 -36.2 11.8 -37.05 13.35 -36.55 15.05 -36.0 15.05 -33.9 15.05 -33.0 14.55 -32.25 13.85 -31.25 12.5 -31.25 11.9 -31.25 11.4 -31.75 10.95 -32.25 10.3 -32.25 9.25 -32.25 7.2 -30.1 L5.0 -27.75 4.45 -28.55 M75.75 -47.1 Q75.2 -49.95 76.75 -50.85 78.3 -51.75 85.25 -56.85 90.9 -54.35 85.7 -50.15 80.45 -46.0 78.45 -45.85 L76.05 -45.85 Q75.95 -45.9 75.8 -46.0 L75.75 -47.1 M76.75 -37.0 Q74.4 -37.15 69.2 -41.65 64.3 -45.9 64.3 -46.65 64.3 -51.7 69.05 -47.05 72.7 -43.45 76.75 -37.0 M49.45 -27.6 L53.25 -25.75 Q53.15 -24.8 52.85 -24.55 52.5 -24.25 51.25 -24.25 48.3 -24.25 47.25 -26.05 L46.8 -28.05 Q46.8 -29.3 47.05 -28.5 L49.45 -27.6 M48.8 -0.9 Q49.25 5.3 48.95 7.3 48.6 9.3 45.15 9.3 41.7 9.3 39.8 5.55 37.9 1.8 37.4 0.25 36.9 -1.35 38.05 -3.3 39.2 -5.25 43.8 -6.15 48.35 -7.1 48.8 -0.9 M150.2 -61.9 L149.85 -63.05 Q149.0 -66.2 154.75 -69.9 159.85 -73.15 162.95 -73.1 153.6 -60.85 152.2 -60.9 150.85 -60.95 150.2 -61.9 M102.05 -90.75 Q102.05 -89.55 101.85 -89.05 101.45 -88.1 100.0 -87.35 L96.5 -87.35 95.5 -88.25 Q95.25 -88.7 95.25 -89.65 95.25 -90.85 96.45 -91.65 98.05 -92.7 101.0 -92.1 L101.75 -91.8 102.05 -90.75 M121.05 -36.95 L122.8 -36.75 122.9 -36.6 123.0 -35.8 Q123.0 -34.35 122.55 -33.75 122.15 -33.15 121.15 -33.05 L120.5 -33.0 Q118.95 -33.0 118.0 -34.1 L118.0 -36.75 121.05 -36.95 M208.75 -150.35 L208.3 -149.05 Q207.7 -147.95 206.5 -147.75 L203.0 -147.75 Q201.25 -149.1 201.25 -149.5 201.25 -150.75 202.5 -152.1 203.85 -153.6 205.5 -153.6 207.45 -153.6 208.25 -152.25 208.75 -151.4 208.75 -150.35 M220.5 -127.5 L221.0 -126.85 220.85 -125.3 Q220.5 -124.5 219.35 -124.5 218.2 -124.5 217.75 -125.6 217.5 -126.15 217.5 -126.8 217.5 -127.45 217.75 -127.65 L218.6 -127.9 Q219.8 -127.9 220.5 -127.5 M197.95 -74.65 Q197.3 -73.75 195.0 -73.75 192.7 -73.75 190.55 -74.5 L188.05 -75.6 Q188.05 -76.5 189.0 -76.85 L196.5 -77.1 198.25 -75.6 Q198.3 -75.1 197.95 -74.65 M168.3 -89.75 Q171.85 -89.2 175.5 -86.5 L175.25 -85.85 Q175.05 -85.5 174.25 -85.5 L172.35 -85.75 165.0 -85.1 Q163.95 -85.4 163.65 -86.1 L163.55 -87.05 Q163.55 -88.05 163.95 -88.7 164.5 -89.7 166.0 -89.8 L167.9 -89.8 168.3 -89.75 M177.3 -38.25 L175.0 -38.0 Q169.5 -38.0 167.8 -38.85 167.0 -39.3 167.0 -40.35 167.0 -42.7 172.25 -42.6 177.5 -42.55 177.5 -39.15 L177.4 -38.25 177.3 -38.25 M175.8 20.3 Q174.5 21.3 171.0 21.3 169.35 21.3 169.05 20.3 L169.05 19.15 Q169.05 15.65 172.9 15.15 176.75 14.6 176.75 17.75 176.75 19.55 175.8 20.3 M169.5 34.8 L166.0 34.8 Q164.25 34.0 163.75 32.9 L163.55 31.35 Q163.55 27.0 168.95 27.1 171.0 27.15 172.6 27.95 174.3 28.8 174.3 30.0 174.3 33.9 169.5 34.8 M113.8 59.55 Q113.8 60.75 112.0 62.25 110.15 63.8 108.5 63.8 105.7 63.8 105.1 62.45 L105.05 61.0 Q105.05 58.4 107.6 56.0 L113.75 51.3 114.25 52.05 Q112.6 53.2 113.0 55.65 L113.8 59.55 M3.05 21.25 Q4.8 19.0 8.75 19.0 12.65 19.0 14.75 20.3 16.3 21.3 16.3 22.35 16.3 24.6 14.3 26.3 12.0 28.3 8.25 28.3 3.55 28.3 2.3 26.5 2.0 26.05 2.0 24.35 2.0 22.65 3.05 21.25 M-59.0 -337.85 Q-59.2 -337.6 -60.0 -337.6 -62.1 -337.6 -63.65 -340.75 -64.75 -343.05 -64.75 -344.1 L-64.6 -345.25 Q-61.35 -346.5 -60.0 -343.2 -59.15 -339.2 -58.75 -338.35 L-59.0 -337.85 M-55.35 -331.65 Q-53.25 -330.65 -53.25 -329.1 L-53.5 -327.0 -54.0 -326.85 Q-56.6 -327.25 -57.25 -328.3 L-57.5 -330.0 Q-57.5 -332.6 -55.35 -331.65 M-15.4 -333.1 Q-15.8 -332.4 -17.5 -332.1 -19.0 -333.5 -19.0 -334.8 -19.0 -337.2 -17.1 -336.8 -15.25 -336.45 -15.25 -334.25 -15.25 -333.35 -15.4 -333.1 M-147.85 -311.85 L-147.75 -311.05 Q-147.75 -310.3 -148.4 -307.6 L-149.5 -303.85 Q-150.1 -304.9 -150.75 -307.25 -151.35 -309.55 -151.35 -310.65 -151.35 -311.65 -150.95 -312.0 -150.25 -312.55 -148.0 -312.0 L-147.85 -311.85 M-84.5 -263.05 Q-86.2 -261.05 -89.0 -261.05 -92.2 -261.05 -93.4 -262.95 -94.0 -263.9 -94.0 -265.15 -94.0 -270.75 -88.5 -271.2 -86.3 -271.4 -84.7 -270.35 -83.0 -269.25 -83.0 -267.35 -83.0 -264.85 -84.5 -263.05 M-85.15 -216.6 Q-85.35 -216.65 -85.35 -217.4 -85.35 -220.8 -80.95 -222.65 -76.6 -224.45 -76.6 -220.75 -76.6 -219.55 -76.85 -219.4 L-77.85 -219.3 Q-80.6 -219.35 -84.5 -216.6 L-85.15 -216.6 M-29.45 -206.35 Q-29.45 -208.65 -28.4 -209.7 -27.4 -210.65 -25.95 -210.25 -22.5 -209.3 -22.5 -204.55 L-22.7 -199.8 -22.95 -199.6 Q-23.05 -199.35 -23.75 -199.35 -27.5 -199.35 -28.85 -202.65 -29.45 -204.2 -29.45 -206.35 M-16.6 -204.75 Q-19.6 -204.75 -20.2 -206.7 -20.5 -207.65 -20.2 -208.75 -20.2 -212.2 -17.25 -213.7 -16.1 -214.25 -15.25 -214.05 -14.35 -213.75 -14.35 -212.75 -14.2 -210.7 -14.45 -208.75 -14.9 -204.75 -16.6 -204.75 M-208.8 -271.45 Q-209.8 -269.0 -210.8 -264.3 -211.85 -259.65 -214.5 -259.45 -217.15 -259.3 -217.55 -261.85 -217.8 -263.15 -217.55 -264.6 -217.55 -271.65 -212.65 -274.3 -210.75 -275.35 -209.3 -274.7 -207.8 -273.95 -208.8 -271.45 M-187.25 -136.6 Q-189.75 -136.6 -191.35 -138.6 -192.2 -139.6 -192.5 -140.65 -192.5 -141.65 -191.05 -143.5 -189.5 -145.55 -185.95 -146.6 -182.4 -147.65 -182.75 -142.35 -183.1 -137.1 -184.2 -136.85 L-187.25 -136.6 M-165.8 -122.4 Q-164.9 -123.45 -161.35 -122.85 L-161.1 -121.85 -161.25 -112.85 Q-161.6 -112.35 -162.5 -112.1 L-164.6 -116.1 Q-166.1 -118.95 -166.1 -120.4 -166.1 -122.05 -165.8 -122.4 M-264.25 -120.75 Q-262.9 -121.5 -259.3 -121.75 -255.75 -122.0 -255.5 -118.8 -255.25 -115.6 -256.95 -115.55 L-261.8 -115.5 Q-264.95 -115.5 -265.25 -116.25 -265.6 -117.0 -265.6 -118.0 -265.6 -120.0 -264.25 -120.75 M-265.0 -60.75 Q-265.8 -61.2 -266.4 -62.0 -267.0 -62.8 -267.0 -63.5 L-266.85 -64.85 -266.75 -66.0 Q-265.4 -66.0 -264.0 -64.45 -262.75 -63.1 -262.75 -62.4 L-262.85 -61.1 -263.4 -60.95 -265.0 -60.75 M-205.35 -5.9 Q-205.35 -12.85 -198.55 -13.15 -195.95 -13.3 -193.85 -12.15 -191.75 -11.05 -191.75 -9.4 -191.75 -6.65 -193.9 -4.6 -196.1 -2.6 -199.8 -2.1 -203.55 -1.6 -204.45 -2.95 -205.35 -4.35 -205.35 -5.9 M-48.15 -179.15 L-48.5 -178.75 Q-49.15 -181.5 -50.3 -184.7 -50.85 -186.25 -50.85 -188.9 -50.85 -193.25 -48.15 -193.4 -45.5 -193.55 -45.95 -191.2 L-46.75 -186.6 -47.6 -181.85 -48.15 -179.15 M-79.0 -149.3 Q-79.0 -146.5 -79.4 -145.35 -80.1 -143.25 -82.5 -143.25 -86.05 -143.25 -86.85 -145.5 -87.3 -146.6 -87.0 -147.75 -87.0 -152.6 -83.0 -152.55 -81.45 -152.55 -80.25 -151.65 -79.0 -150.65 -79.0 -149.3 M-72.75 -155.5 L-72.9 -155.25 -73.5 -154.85 Q-76.1 -158.35 -76.6 -166.35 L-76.5 -168.25 Q-72.35 -168.8 -72.35 -164.65 -72.35 -163.55 -72.7 -160.4 -73.0 -157.85 -72.75 -155.5 M-52.6 -161.1 Q-52.4 -153.55 -51.0 -151.5 -51.25 -151.25 -52.0 -151.25 -53.15 -151.25 -53.85 -154.2 L-54.35 -157.3 -54.05 -163.2 Q-53.8 -168.85 -54.1 -172.0 L-53.25 -172.0 Q-52.85 -169.05 -52.6 -161.1 M-57.3 -99.2 Q-55.85 -98.2 -55.85 -95.8 -55.85 -94.9 -58.2 -89.75 L-61.0 -84.0 -62.5 -81.3 -62.8 -82.05 -62.85 -83.15 -63.9 -87.05 Q-65.0 -91.1 -65.0 -92.4 -65.0 -98.15 -60.4 -99.55 -58.6 -100.1 -57.3 -99.2 M-37.8 -104.05 Q-35.5 -104.85 -35.5 -102.05 -35.5 -100.55 -37.1 -99.6 L-38.75 -99.0 -40.0 -99.25 -40.1 -100.75 Q-40.1 -103.25 -37.8 -104.05 M-118.35 -108.1 Q-118.35 -109.05 -117.0 -110.0 L-113.5 -110.0 Q-112.9 -109.55 -112.25 -108.4 -111.6 -107.25 -112.05 -106.45 L-113.6 -102.65 Q-114.7 -99.7 -115.75 -99.65 -116.8 -99.6 -117.75 -103.75 L-118.35 -108.1 M-81.85 -60.25 Q-82.35 -59.85 -83.75 -59.85 -92.05 -59.85 -95.0 -61.5 -96.5 -62.35 -96.5 -63.8 -96.5 -67.75 -89.0 -66.15 -86.0 -65.5 -83.85 -64.25 -81.5 -62.9 -81.5 -61.55 -81.5 -60.6 -81.85 -60.25 M-136.6 -77.25 Q-137.05 -76.5 -139.25 -76.5 -141.6 -76.5 -142.05 -77.5 L-142.0 -78.6 Q-142.0 -82.35 -139.25 -82.45 -136.5 -82.55 -136.5 -79.3 L-136.6 -77.25 M-33.8 -68.5 Q-31.85 -67.1 -31.85 -63.4 -31.85 -61.6 -32.5 -61.0 -33.6 -60.0 -37.25 -60.0 -41.4 -60.0 -42.5 -64.9 -43.05 -67.4 -42.75 -70.0 L-42.25 -73.0 Q-41.8 -74.95 -40.5 -72.6 -38.4 -71.8 -33.8 -68.5 M-63.35 -76.55 Q-61.45 -73.85 -60.9 -71.0 L-60.0 -68.5 -59.0 -65.35 -59.0 -62.5 -58.95 -62.5 Q-59.25 -61.9 -59.85 -61.6 L-63.4 -61.5 Q-65.55 -62.05 -67.1 -64.95 L-69.5 -69.65 Q-70.35 -71.5 -70.65 -73.55 -71.55 -78.1 -70.4 -79.85 -69.4 -81.2 -67.25 -80.15 -65.25 -79.15 -63.35 -76.55 M-59.0 -56.75 Q-59.35 -60.0 -52.3 -59.8 -45.25 -59.65 -40.65 -55.7 -36.05 -51.7 -38.1 -49.3 -40.15 -46.9 -46.5 -48.2 -52.9 -49.5 -55.75 -51.5 -58.65 -53.5 -59.0 -56.75 M-74.0 -43.6 Q-77.05 -43.6 -77.75 -46.45 -78.1 -47.9 -77.85 -49.5 -77.85 -52.25 -74.2 -51.1 -70.6 -49.9 -70.6 -47.05 -70.6 -43.6 -74.0 -43.6 M-7.25 -11.7 Q-4.7 -10.8 -3.1 -9.6 -3.45 -8.8 -4.0 -8.6 -10.75 -8.85 -14.25 -8.5 -20.85 -8.5 -20.85 -11.55 -20.85 -14.05 -15.35 -13.45 L-12.55 -13.6 -11.35 -13.45 -9.45 -13.55 Q-7.45 -13.1 -7.25 -11.7 M-16.05 26.55 Q-12.5 28.45 -13.2 30.85 -13.9 33.25 -16.75 33.55 L-26.0 33.0 Q-32.5 32.2 -33.7 31.4 -34.95 30.55 -35.15 28.65 -35.35 26.75 -31.8 25.4 -28.55 24.15 -23.9 24.5 -19.25 24.85 -16.05 26.55 M-56.2 3.1 L-56.1 4.0 Q-56.1 5.45 -59.75 7.0 -63.85 8.75 -69.25 8.75 L-70.25 8.55 -70.6 8.05 Q-70.75 8.6 -70.75 7.35 -70.75 5.45 -67.1 3.95 -62.75 2.1 -56.35 2.8 L-56.2 3.1 M-118.25 23.3 L-122.25 23.8 Q-125.15 23.8 -126.35 22.25 -127.1 21.3 -127.1 20.1 -127.1 18.05 -122.05 19.1 -117.0 20.15 -117.0 21.6 -117.0 22.75 -118.25 23.3 M-153.15 19.9 Q-151.25 21.25 -152.1 21.75 -152.95 22.25 -155.1 24.7 -157.25 27.15 -159.45 27.5 -161.7 27.8 -162.6 25.55 L-163.35 23.3 Q-163.35 20.9 -161.45 19.65 -159.8 18.5 -157.3 18.6 -154.85 18.7 -153.15 19.9 M-202.25 35.75 Q-203.9 37.5 -206.0 37.5 -209.2 37.5 -209.9 36.0 L-210.0 34.05 Q-210.0 32.0 -205.35 30.65 -200.75 29.25 -200.75 32.5 -200.75 34.15 -202.25 35.75" fill="#8d8d8d" fill-rule="evenodd" stroke="none"/>
    </g>
  </defs>
</svg>
