<?xml version="1.0" encoding="UTF-8" standalone="no"?>
<svg xmlns:ffdec="https://www.free-decompiler.com/flash" xmlns:xlink="http://www.w3.org/1999/xlink" ffdec:objectType="frame" height="499.45px" width="496.15px" xmlns="http://www.w3.org/2000/svg">
  <g transform="matrix(1.0, 0.0, 0.0, 1.0, 270.5, 376.7)">
    <use ffdec:characterId="188" height="379.05" transform="matrix(1.0, 0.0, 0.0, 1.0, -264.5, -347.3)" width="472.25" xlink:href="#shape0"/>
  </g>
  <defs>
    <g id="shape0" transform="matrix(1.0, 0.0, 0.0, 1.0, 264.5, 347.3)">
      <path d="M174.0 -249.1 L174.15 -247.65 Q174.15 -246.35 173.1 -245.3 171.7 -243.9 169.0 -243.9 166.75 -243.9 166.1 -245.5 165.8 -246.3 165.9 -247.25 165.9 -249.0 166.1 -249.25 167.0 -250.5 171.1 -250.5 173.4 -250.5 174.0 -249.1 M78.75 -294.25 Q76.25 -294.25 75.0 -294.85 74.1 -295.25 74.1 -295.75 74.1 -296.65 77.3 -297.0 80.5 -297.35 80.5 -295.5 80.5 -294.25 78.75 -294.25 M66.1 -285.15 L66.1 -285.6 Q66.1 -287.55 68.2 -287.35 L69.4 -287.1 Q70.6 -287.0 70.6 -286.0 70.6 -285.0 70.25 -284.45 69.6 -283.55 67.75 -283.55 66.6 -283.55 66.25 -284.25 66.05 -284.6 66.1 -285.05 L66.1 -285.15 M47.05 -226.15 Q50.0 -225.45 50.0 -222.7 50.0 -221.3 49.6 -220.8 49.0 -220.05 47.1 -220.05 45.1 -220.05 44.4 -222.05 44.1 -223.0 44.1 -224.35 44.1 -226.8 47.05 -226.15 M47.85 -210.5 Q47.2 -209.75 46.0 -209.75 44.85 -209.75 44.45 -210.35 L44.25 -211.05 Q44.25 -213.8 46.3 -213.95 48.35 -214.05 48.35 -211.9 48.35 -211.1 47.85 -210.5 M150.45 -273.5 Q159.9 -273.65 159.9 -267.9 159.9 -266.9 159.45 -266.65 159.0 -266.45 157.15 -266.65 155.3 -266.85 154.3 -267.55 153.3 -268.3 149.8 -268.5 146.3 -268.7 144.25 -267.8 142.1 -266.95 141.65 -267.25 141.15 -267.55 141.05 -268.3 L141.0 -269.55 Q141.0 -271.15 143.95 -272.3 146.75 -273.45 150.45 -273.5 M123.0 -258.2 Q122.4 -257.05 120.35 -257.05 118.4 -257.05 115.65 -260.8 113.25 -264.15 113.25 -265.15 113.25 -268.35 118.25 -265.95 123.25 -263.5 123.25 -260.15 L123.0 -258.2 M115.0 -287.5 Q115.0 -289.05 116.95 -289.2 118.9 -289.4 118.9 -287.4 118.9 -286.45 118.7 -286.2 118.2 -285.5 116.25 -285.5 115.4 -285.5 115.1 -286.55 L115.0 -287.5 M20.75 -149.05 Q19.4 -150.35 19.4 -153.5 19.4 -155.45 21.35 -155.7 23.25 -155.9 23.25 -153.0 23.25 -152.25 20.75 -149.05 M6.5 -103.5 L6.1 -105.3 5.6 -110.75 Q5.85 -114.9 8.2 -115.1 10.5 -115.3 10.3 -112.95 10.05 -110.65 8.85 -108.15 L6.5 -103.5 M19.6 -100.5 Q18.9 -97.5 17.0 -97.5 15.75 -97.5 15.2 -103.0 14.9 -105.75 14.85 -108.45 14.85 -109.8 16.25 -110.15 17.85 -110.65 19.35 -108.15 19.9 -105.65 19.9 -103.9 L19.6 -100.5 M75.4 -50.5 Q75.4 -52.05 80.45 -55.1 85.5 -58.1 85.5 -54.9 85.5 -53.8 82.75 -51.45 79.65 -48.9 77.1 -48.9 76.0 -48.9 75.6 -49.65 L75.4 -50.5 M24.8 -80.25 Q24.6 -77.1 22.4 -72.0 20.2 -66.9 20.55 -64.25 L20.95 -61.15 Q17.95 -65.3 17.0 -81.3 17.0 -83.55 18.35 -84.55 L22.25 -84.45 Q24.95 -83.45 24.8 -80.25 M32.25 -64.6 L34.75 -63.1 Q36.85 -61.55 36.85 -59.9 36.85 -58.9 35.25 -57.75 33.15 -56.25 29.75 -56.25 25.7 -56.25 24.5 -58.0 24.1 -58.6 24.1 -60.0 24.1 -61.35 25.45 -62.7 26.55 -63.85 28.25 -64.3 L30.25 -64.65 32.25 -64.6 M5.25 -31.25 Q4.65 -31.6 4.65 -32.35 4.65 -36.05 9.35 -37.65 L12.55 -37.95 Q14.0 -37.5 14.0 -35.9 14.0 -34.6 13.0 -34.45 L10.25 -34.5 Q7.55 -34.5 6.4 -33.15 L5.25 -31.25 M40.0 -6.0 Q41.6 -6.85 43.9 -6.65 46.7 -6.45 48.0 -4.65 48.45 -3.1 48.9 2.8 49.1 4.15 48.65 5.25 47.85 7.4 44.75 7.4 40.7 7.4 39.0 2.5 38.15 0.1 38.1 -2.4 38.1 -3.2 38.5 -4.2 39.05 -5.5 40.0 -6.0 M74.5 -41.4 Q73.8 -41.4 69.65 -45.4 65.5 -49.35 65.5 -49.75 65.5 -52.05 69.45 -48.65 73.35 -45.25 74.75 -41.75 75.1 -41.4 74.5 -41.4 M150.25 -63.5 L150.1 -64.2 Q150.1 -64.75 151.1 -66.5 152.15 -68.3 153.1 -69.3 154.6 -70.9 157.4 -72.0 160.5 -73.2 160.5 -71.5 160.5 -71.1 151.5 -62.8 150.6 -62.8 150.25 -63.5 M207.6 -151.2 Q207.1 -150.25 205.0 -150.25 202.65 -150.25 201.9 -151.0 L201.65 -151.8 Q201.65 -154.15 204.7 -154.15 207.75 -154.1 207.75 -152.75 L207.6 -151.2 M173.1 -88.2 L169.25 -87.3 166.1 -87.0 Q163.55 -87.0 163.4 -88.55 L163.4 -88.75 Q163.4 -90.75 167.8 -90.7 L171.25 -90.15 Q172.9 -89.6 173.95 -88.4 L173.1 -88.2 M176.2 -40.8 Q175.55 -40.25 173.5 -40.25 170.8 -40.25 169.0 -41.15 167.6 -41.9 167.6 -42.4 167.6 -44.05 172.15 -43.9 176.65 -43.75 176.65 -42.0 176.65 -41.15 176.2 -40.8 M170.0 17.5 Q169.75 17.1 169.75 16.05 169.75 13.8 172.85 13.85 175.9 13.85 175.9 16.95 175.9 17.65 175.25 18.1 174.5 18.65 173.1 18.65 170.65 18.65 170.0 17.5 M172.05 30.65 Q171.15 31.75 168.6 31.75 164.65 31.75 164.65 29.95 164.65 26.65 168.6 25.95 172.5 25.25 172.5 28.95 172.5 30.1 172.05 30.65 M13.6 24.75 Q11.8 25.85 8.85 25.85 4.5 25.85 3.25 24.25 2.75 23.65 2.75 22.15 2.75 20.65 4.7 19.5 6.5 18.45 8.95 18.3 15.1 17.9 15.1 22.8 15.1 23.85 13.6 24.75 M-59.5 -341.3 Q-59.65 -340.75 -60.5 -340.75 -61.95 -340.75 -63.0 -343.5 L-63.8 -346.35 -61.65 -346.4 Q-59.5 -344.5 -59.5 -342.45 L-59.5 -341.3 M-83.55 -268.4 Q-83.55 -267.25 -84.3 -266.25 -85.55 -264.55 -88.5 -264.55 L-91.25 -264.65 Q-92.15 -265.05 -92.65 -266.05 L-93.0 -267.8 Q-93.0 -268.85 -91.85 -270.45 -90.25 -272.8 -87.75 -272.0 -83.55 -271.8 -83.55 -268.4 M-85.25 -218.9 L-85.3 -219.75 Q-85.3 -222.1 -81.15 -222.85 -77.0 -223.6 -77.0 -222.05 -77.0 -221.95 -80.7 -220.25 L-84.5 -218.55 Q-85.1 -218.55 -85.25 -218.9 M-23.5 -204.2 L-23.8 -202.95 Q-24.2 -202.15 -25.15 -202.3 -27.9 -202.8 -28.4 -206.6 L-28.25 -210.4 Q-28.0 -211.6 -25.95 -211.25 -23.8 -210.95 -23.35 -208.55 -23.1 -206.35 -23.5 -204.2 M-14.75 -209.75 Q-15.4 -207.8 -17.5 -207.8 -19.05 -207.8 -19.35 -209.05 L-19.3 -210.55 Q-19.6 -214.0 -17.35 -215.85 -15.1 -217.75 -14.75 -214.2 -14.4 -210.65 -14.75 -209.75 M-209.25 -273.55 Q-209.25 -272.45 -211.75 -267.45 -214.45 -262.25 -215.5 -262.25 -216.7 -262.25 -217.0 -265.0 L-217.0 -267.8 Q-217.0 -270.75 -213.1 -274.75 -209.25 -278.75 -209.25 -273.55 M-187.95 -147.35 Q-184.0 -148.9 -184.0 -144.25 -184.0 -142.6 -184.5 -141.3 -185.45 -138.75 -188.0 -138.75 -190.6 -138.75 -191.5 -141.0 -191.9 -142.0 -191.9 -143.55 -191.9 -144.4 -190.65 -145.55 -189.4 -146.75 -187.95 -147.35 M-165.3 -123.3 Q-165.3 -125.15 -163.25 -124.15 -161.25 -123.1 -161.25 -121.0 L-161.7 -118.85 -162.3 -116.65 -162.3 -116.55 -162.75 -116.5 Q-163.95 -116.5 -164.75 -120.05 L-165.3 -123.3 M-261.1 -117.75 Q-263.65 -117.75 -264.3 -119.2 -264.5 -119.55 -264.5 -120.85 -264.5 -123.3 -260.6 -123.3 -256.75 -123.25 -256.75 -120.35 -256.75 -117.75 -261.1 -117.75 M-204.5 -10.5 Q-204.5 -11.65 -202.75 -12.65 -200.65 -13.95 -197.0 -14.0 -193.9 -13.4 -193.5 -12.6 L-192.9 -10.6 Q-192.75 -9.4 -194.55 -7.0 -196.35 -4.65 -200.05 -4.5 -203.75 -4.4 -204.45 -7.4 -204.85 -8.9 -204.5 -10.5 M-50.05 -192.25 Q-50.05 -196.6 -48.25 -197.05 -46.5 -197.5 -46.5 -195.35 -46.5 -193.25 -47.2 -189.45 L-48.0 -185.25 -48.5 -184.9 Q-50.05 -187.95 -50.05 -192.25 M-74.2 -168.75 Q-72.65 -167.7 -72.9 -167.25 L-73.8 -158.5 Q-75.65 -160.15 -75.8 -168.15 -75.8 -169.8 -74.2 -168.75 M-82.65 -153.25 Q-79.5 -153.3 -79.5 -149.8 -79.5 -146.0 -82.85 -146.0 -84.9 -146.0 -85.55 -148.4 L-85.8 -150.65 Q-85.8 -153.2 -82.65 -153.25 M-113.75 -105.9 Q-114.95 -103.55 -115.75 -102.75 L-117.05 -106.2 Q-117.9 -108.45 -117.9 -109.65 -117.9 -111.3 -115.2 -111.8 -112.55 -112.25 -112.55 -109.45 -112.55 -108.35 -113.75 -105.9 M-91.25 -63.25 L-94.7 -63.65 Q-96.9 -64.25 -96.9 -66.15 -96.9 -68.05 -89.45 -66.9 -82.0 -65.7 -82.0 -63.65 -82.0 -63.0 -82.5 -62.5 -83.05 -62.0 -84.0 -62.0 L-87.15 -62.6 -91.25 -63.25 M-36.85 -61.8 Q-41.05 -61.8 -42.2 -66.8 -42.8 -69.3 -42.55 -72.0 -42.55 -76.2 -37.75 -72.8 -33.0 -69.45 -33.0 -65.75 -33.0 -61.8 -36.85 -61.8 M-38.45 -54.0 Q-38.9 -52.15 -39.55 -51.7 -40.25 -51.25 -44.6 -50.7 -48.95 -50.15 -53.75 -53.0 -58.5 -55.8 -58.5 -58.15 -58.5 -59.05 -57.7 -59.75 -56.2 -61.0 -52.75 -60.5 L-51.0 -60.5 Q-43.15 -59.2 -40.35 -57.35 -38.0 -55.85 -38.45 -54.0 M-58.2 -92.55 L-62.05 -85.65 -62.5 -85.75 Q-62.95 -89.0 -63.65 -90.95 -64.5 -93.35 -64.5 -95.7 -64.5 -100.2 -60.65 -100.95 -56.8 -101.65 -57.2 -97.75 -57.6 -93.85 -58.2 -92.55 M-65.1 -78.45 Q-59.25 -71.7 -59.25 -65.0 -59.25 -64.45 -59.95 -64.0 -60.75 -63.5 -62.1 -63.5 -65.35 -63.5 -68.5 -71.5 -70.05 -75.55 -71.0 -79.7 -71.0 -82.2 -69.15 -81.65 -67.45 -81.15 -65.1 -78.45 M-7.05 -11.25 L-15.0 -11.65 Q-20.4 -11.95 -20.4 -13.25 -20.4 -16.65 -12.45 -14.4 -4.5 -12.15 -4.5 -11.65 -4.5 -11.15 -7.05 -11.25 M-33.55 29.1 Q-35.45 27.9 -34.85 26.7 -34.3 25.45 -33.95 25.1 -33.4 24.6 -31.0 23.9 L-20.25 23.9 Q-17.45 24.25 -15.55 26.05 -14.05 27.45 -13.85 28.55 -13.7 29.65 -14.45 30.15 L-23.4 30.45 Q-31.65 30.25 -33.55 29.1 M-61.5 4.9 Q-65.15 6.25 -67.5 6.25 -69.3 6.25 -69.85 5.5 L-70.0 4.7 Q-70.0 3.95 -63.9 2.3 -57.8 0.65 -57.8 2.65 -57.8 3.55 -61.5 4.9 M-154.1 21.7 Q-155.6 22.5 -155.9 23.0 L-156.9 24.2 Q-158.0 25.25 -159.0 25.25 -161.3 25.25 -162.05 23.15 L-162.4 20.95 Q-162.4 18.95 -158.95 18.8 -155.5 18.65 -152.5 20.5 -152.65 20.95 -154.1 21.7" fill="#909090" fill-rule="evenodd" stroke="none"/>
    </g>
  </defs>
</svg>
