<?xml version="1.0" encoding="UTF-8" standalone="no"?>
<svg xmlns:ffdec="https://www.free-decompiler.com/flash" xmlns:xlink="http://www.w3.org/1999/xlink" ffdec:objectType="frame" height="499.45px" width="496.15px" xmlns="http://www.w3.org/2000/svg">
  <g transform="matrix(1.0, 0.0, 0.0, 1.0, 270.5, 376.7)">
    <use ffdec:characterId="153" height="307.0" transform="matrix(1.0, 0.0, 0.0, 1.0, -147.65, -194.4)" width="289.3" xlink:href="#shape0"/>
  </g>
  <defs>
    <g id="shape0" transform="matrix(1.0, 0.0, 0.0, 1.0, 147.65, 194.4)">
      <path d="M-113.0 -103.15 L-113.0 -103.35 Q-113.0 -105.65 -112.45 -110.25 -111.85 -115.65 -111.0 -118.85 -110.45 -120.85 -105.2 -122.15 -99.2 -123.65 -98.0 -124.85 -96.8 -126.05 -94.9 -130.55 -93.1 -134.9 -91.0 -136.85 -88.45 -139.25 -85.45 -141.2 L-82.5 -142.85 -70.0 -142.85 Q-68.4 -141.3 -64.4 -139.8 L-59.0 -137.85 Q-58.55 -140.65 -59.35 -143.95 -60.25 -147.6 -62.0 -147.85 -61.2 -148.9 -55.45 -152.25 -51.15 -154.7 -50.2 -157.15 -43.05 -157.25 -39.95 -153.3 -38.4 -151.4 -37.15 -147.75 L-36.0 -144.05 Q-34.9 -146.85 -32.95 -148.95 -30.9 -151.15 -26.5 -153.85 -21.6 -156.9 -19.8 -158.55 -16.55 -161.45 -15.1 -165.45 -17.0 -159.75 -17.0 -156.35 -17.0 -155.05 -16.5 -153.4 -16.0 -151.8 -16.0 -150.85 -14.25 -157.95 -6.85 -162.5 0.2 -166.85 9.0 -166.85 17.65 -166.85 22.75 -164.65 26.9 -162.85 32.0 -157.85 35.8 -159.7 35.0 -161.85 42.7 -162.8 46.25 -153.05 L48.75 -145.3 Q50.2 -141.15 52.0 -139.85 53.3 -139.3 56.4 -136.2 L59.35 -132.95 Q56.65 -128.4 55.0 -126.0 58.6 -127.8 64.55 -129.35 70.85 -131.0 74.75 -131.0 L80.65 -130.5 85.3 -130.05 83.85 -130.15 Q83.65 -126.5 81.0 -121.0 93.35 -126.5 99.2 -125.9 105.0 -125.35 109.65 -123.95 114.35 -122.6 118.35 -115.65 L122.4 -108.65 Q123.5 -109.1 127.35 -108.6 131.2 -108.1 134.35 -105.4 137.1 -101.7 137.65 -94.75 138.4 -85.4 139.1 -79.5 138.3 -75.4 136.35 -69.75 133.35 -61.05 129.35 -58.05 L130.35 -56.65 128.05 -53.4 Q125.4 -49.35 125.4 -48.0 125.4 -45.45 127.6 -43.35 L132.4 -39.0 Q139.3 -31.8 139.4 -15.95 137.7 -11.7 134.7 -7.6 L132.4 -4.6 133.85 1.45 Q134.5 4.8 135.55 17.25 136.5 29.65 129.65 40.95 122.75 52.25 95.85 60.85 L78.15 64.6 68.65 82.4 Q52.15 112.6 12.85 112.6 -27.1 112.6 -47.45 94.85 -51.6 91.25 -54.6 87.2 -62.65 88.6 -83.2 85.7 -103.75 82.75 -111.2 70.0 -118.7 57.2 -117.75 48.5 -117.75 45.15 -119.45 42.3 L-123.1 37.2 Q-128.5 30.0 -128.5 19.6 L-128.3 16.35 Q-139.1 11.65 -144.0 -5.6 -143.85 -17.35 -141.55 -23.35 -138.95 -30.05 -130.8 -36.95 -128.8 -46.1 -121.5 -50.55 -113.25 -55.55 -102.0 -51.85 -104.55 -54.95 -109.7 -62.45 -113.45 -66.95 -110.0 -79.05 L-102.35 -87.75 Q-109.6 -90.1 -113.0 -103.15 M41.65 -49.95 L40.95 -51.85 Q39.2 -55.4 35.5 -57.0 L27.4 -58.15 Q22.25 -58.65 20.5 -61.0 L11.1 -73.1 Q5.25 -79.0 -1.75 -79.0 -8.75 -78.4 -11.0 -76.45 -13.3 -74.5 -16.0 -74.5 L-20.25 -74.5 Q-29.6 -74.5 -34.95 -67.15 -38.05 -62.75 -41.05 -53.05 L-44.35 -50.95 Q-48.15 -48.4 -50.2 -46.15 -54.0 -41.9 -54.6 -35.25 -51.55 -39.15 -46.45 -41.2 -40.95 -43.5 -33.5 -43.5 L-28.2 -43.35 -26.95 -43.05 Q-21.75 -50.15 -13.85 -51.45 L-3.85 -52.5 1.25 -51.5 Q4.3 -50.8 6.0 -50.0 7.8 -50.9 9.7 -52.7 11.5 -54.55 15.3 -54.5 19.05 -54.45 21.85 -52.55 24.65 -50.65 30.45 -50.9 36.2 -51.15 38.7 -50.9 40.2 -50.8 41.65 -49.95 M52.0 -27.0 Q55.05 -29.4 58.3 -30.35 62.35 -31.6 67.5 -31.0 L56.65 -35.4 Q53.9 -36.55 46.35 -41.75 L49.4 -35.1 Q51.35 -32.0 52.0 -27.0 M71.1 -3.7 Q68.45 -7.3 68.75 -11.85 67.8 -8.5 66.25 -5.55 60.15 5.75 48.25 1.05 47.0 5.85 44.15 9.85 39.35 16.65 32.8 11.6 13.85 25.35 2.5 5.55 1.1 9.5 -2.55 10.55 -6.25 11.55 -16.7 9.7 L-29.0 -0.45 Q-31.0 0.95 -33.2 1.7 -50.75 8.15 -59.2 -11.4 L-59.55 -8.7 Q-59.95 -4.55 -58.65 -0.65 L-58.4 1.15 Q-59.5 2.75 -61.4 3.25 L-70.25 3.55 Q-66.1 5.75 -62.6 8.85 -56.3 14.4 -58.75 22.55 -64.3 22.45 -69.5 20.05 -70.15 23.4 -72.65 25.95 -78.45 31.9 -85.6 30.3 -67.05 35.45 -70.85 53.4 L-72.45 54.4 Q-76.6 56.75 -78.5 56.9 L-82.4 56.75 -82.65 56.75 Q-81.35 59.35 -79.2 60.8 -77.05 62.2 -71.65 62.0 -66.25 61.8 -63.45 59.1 L-60.4 56.05 Q-50.9 58.45 -47.55 64.0 L-40.7 72.6 Q-41.45 72.0 -46.6 73.65 -23.05 76.15 -9.35 86.5 L-1.75 80.5 Q26.0 75.55 42.2 86.5 51.75 61.45 72.35 55.0 63.45 42.85 75.3 37.25 77.4 40.0 80.5 40.0 82.95 40.0 86.0 38.6 88.85 37.3 89.75 36.0 L89.25 35.5 Q84.35 34.8 82.05 33.95 80.4 33.35 79.5 32.5 L80.65 28.65 Q80.75 22.65 95.55 19.3 L95.4 18.45 92.5 18.9 Q72.15 20.25 78.45 1.0 73.9 0.0 71.1 -3.7" fill="#393939" fill-rule="evenodd" stroke="none"/>
      <path d="M139.1 -79.5 Q138.4 -85.4 137.65 -94.75 137.1 -101.7 134.35 -105.4 131.2 -108.1 127.35 -108.6 123.5 -109.1 122.4 -108.65 L118.35 -115.65 Q114.35 -122.6 109.65 -123.95 105.0 -125.35 99.2 -125.9 93.35 -126.5 81.0 -121.0 83.65 -126.5 83.85 -130.15 L85.3 -130.05 80.65 -130.5 74.75 -131.0 Q70.85 -131.0 64.55 -129.35 58.6 -127.8 55.0 -126.0 56.65 -128.4 59.35 -132.95 L56.4 -136.2 Q53.3 -139.3 52.0 -139.85 50.2 -141.15 48.75 -145.3 L46.25 -153.05 Q42.7 -162.8 35.0 -161.85 35.8 -159.7 32.0 -157.85 26.9 -162.85 22.75 -164.65 17.65 -166.85 9.0 -166.85 0.2 -166.85 -6.85 -162.5 -14.25 -157.95 -16.0 -150.85 -16.0 -151.8 -16.5 -153.4 -17.0 -155.05 -17.0 -156.35 -17.0 -159.75 -15.1 -165.45 -16.55 -161.45 -19.8 -158.55 -21.6 -156.9 -26.5 -153.85 -30.9 -151.15 -32.95 -148.95 -34.9 -146.85 -36.0 -144.05 L-37.15 -147.75 Q-38.4 -151.4 -39.95 -153.3 -43.05 -157.25 -50.2 -157.15 -51.15 -154.7 -55.45 -152.25 -61.2 -148.9 -62.0 -147.85 -60.25 -147.6 -59.35 -143.95 -58.55 -140.65 -59.0 -137.85 L-64.4 -139.8 Q-68.4 -141.3 -70.0 -142.85 L-82.5 -142.85 -85.45 -141.2 Q-88.45 -139.25 -91.0 -136.85 -93.1 -134.9 -94.9 -130.55 -96.8 -126.05 -98.0 -124.85 -99.2 -123.65 -105.2 -122.15 -110.45 -120.85 -111.0 -118.85 -111.85 -115.65 -112.45 -110.25 -113.0 -105.65 -113.0 -103.35 L-113.0 -103.15 -113.75 -106.45 Q-115.7 -116.1 -115.5 -126.0 -115.5 -144.15 -101.7 -154.5 -89.85 -163.4 -71.35 -164.5 -54.2 -165.55 -41.05 -159.65 L-40.6 -159.45 Q-38.95 -162.7 -35.0 -167.6 -27.65 -176.65 -17.05 -184.5 -6.5 -192.4 4.75 -193.8 L17.95 -194.25 23.0 -193.75 Q29.85 -193.35 34.65 -188.0 46.9 -178.05 54.8 -166.75 64.6 -152.7 64.6 -140.85 L64.6 -140.05 66.0 -140.5 74.85 -143.25 109.85 -143.5 Q131.25 -132.6 136.95 -115.25 139.15 -108.7 139.55 -99.8 L139.6 -84.35 Q139.6 -82.3 139.1 -79.5 M-110.0 -79.05 Q-113.45 -66.95 -109.7 -62.45 -104.55 -54.95 -102.0 -51.85 -113.25 -55.55 -121.5 -50.55 -128.8 -46.1 -130.8 -36.95 -138.95 -30.05 -141.55 -23.35 -143.85 -17.35 -144.0 -5.6 L-144.0 -5.55 -144.25 -6.5 -144.95 -9.35 -145.05 -9.75 Q-148.2 -23.7 -147.5 -38.25 -147.5 -46.35 -133.05 -58.25 L-131.2 -59.55 Q-120.8 -67.35 -110.0 -79.1 L-110.0 -79.05 M139.4 -15.95 Q139.3 -31.8 132.4 -39.0 L127.6 -43.35 Q125.4 -45.45 125.4 -48.0 125.4 -49.35 128.05 -53.4 L130.35 -56.65 136.2 -47.05 Q141.85 -37.45 141.65 -27.1 141.55 -21.35 139.4 -15.95 M41.65 -49.95 Q40.2 -50.8 38.7 -50.9 36.2 -51.15 30.45 -50.9 24.65 -50.65 21.85 -52.55 19.05 -54.45 15.3 -54.5 11.5 -54.55 9.7 -52.7 7.8 -50.9 6.0 -50.0 4.3 -50.8 1.25 -51.5 L-3.85 -52.5 -13.85 -51.45 Q-21.75 -50.15 -26.95 -43.05 L-28.2 -43.35 -33.5 -43.5 Q-40.95 -43.5 -46.45 -41.2 -51.55 -39.15 -54.6 -35.25 -54.0 -41.9 -50.2 -46.15 -48.15 -48.4 -44.35 -50.95 L-41.05 -53.05 Q-38.05 -62.75 -34.95 -67.15 -29.6 -74.5 -20.25 -74.5 L-16.0 -74.5 Q-13.3 -74.5 -11.0 -76.45 -8.75 -78.4 -1.75 -79.0 5.25 -79.0 11.1 -73.1 L20.5 -61.0 Q22.25 -58.65 27.4 -58.15 L35.5 -57.0 Q39.2 -55.4 40.95 -51.85 L41.65 -49.95 M52.0 -27.0 Q51.35 -32.0 49.4 -35.1 L46.35 -41.75 Q53.9 -36.55 56.65 -35.4 L67.5 -31.0 Q62.35 -31.6 58.3 -30.35 55.05 -29.4 52.0 -27.0" fill="#616161" fill-rule="evenodd" stroke="none"/>
      <path d="M71.1 -3.7 Q73.9 0.0 78.45 1.0 72.15 20.25 92.5 18.9 L95.4 18.45 95.55 19.3 Q80.75 22.65 80.65 28.65 L79.5 32.5 Q80.4 33.35 82.05 33.95 84.35 34.8 89.25 35.5 L89.75 36.0 Q88.85 37.3 86.0 38.6 82.95 40.0 80.5 40.0 77.4 40.0 75.3 37.25 63.45 42.85 72.35 55.0 51.75 61.45 42.2 86.5 26.0 75.55 -1.75 80.5 L-9.35 86.5 Q-23.05 76.15 -46.6 73.65 -41.45 72.0 -40.7 72.6 L-47.55 64.0 Q-50.9 58.45 -60.4 56.05 L-63.45 59.1 Q-66.25 61.8 -71.65 62.0 -77.05 62.2 -79.2 60.8 -81.35 59.35 -82.65 56.75 L-82.4 56.75 -78.5 56.9 Q-76.6 56.75 -72.45 54.4 L-70.85 53.4 Q-67.05 35.45 -85.6 30.3 -78.45 31.9 -72.65 25.95 -70.15 23.4 -69.5 20.05 -64.3 22.45 -58.75 22.55 -56.3 14.4 -62.6 8.85 -66.1 5.75 -70.25 3.55 L-61.4 3.25 Q-59.5 2.75 -58.4 1.15 L-58.65 -0.65 Q-59.95 -4.55 -59.55 -8.7 L-59.2 -11.4 Q-50.75 8.15 -33.2 1.7 -31.0 0.95 -29.0 -0.45 L-16.7 9.7 Q-6.25 11.55 -2.55 10.55 1.1 9.5 2.5 5.55 13.85 25.35 32.8 11.6 39.35 16.65 44.15 9.85 47.0 5.85 48.25 1.05 60.15 5.75 66.25 -5.55 67.8 -8.5 68.75 -11.85 68.45 -7.3 71.1 -3.7 M-28.4 9.45 L-29.15 10.45 Q-39.35 12.3 -56.25 5.45 -50.75 13.2 -50.65 18.5 -50.6 23.75 -55.7 31.4 L-66.85 28.9 Q-60.95 41.2 -59.65 49.85 -43.35 50.35 -35.0 70.55 -26.7 69.25 -22.2 75.55 -14.7 71.55 -7.25 78.9 -3.9 76.7 -0.15 75.05 L3.0 75.1 7.5 75.55 Q9.5 73.9 13.85 73.25 19.05 72.35 23.65 75.3 L30.4 71.55 33.5 72.15 Q36.9 72.95 40.0 74.3 44.15 62.5 56.55 57.8 54.65 50.25 67.55 53.75 63.45 44.9 66.15 40.0 68.85 35.1 75.0 31.55 73.5 25.75 81.4 21.8 L74.9 22.2 Q69.7 19.55 68.3 13.85 L66.75 7.3 59.5 15.25 55.55 15.25 52.5 12.1 51.15 6.15 Q50.8 20.75 44.8 25.25 42.6 26.25 41.0 25.9 35.15 25.15 32.4 19.65 28.65 21.8 24.3 22.7 10.7 25.6 3.65 15.2 -0.5 18.2 -5.65 18.8 -19.15 19.6 -28.4 9.45 M-34.5 35.75 L-29.3 34.55 Q-24.75 40.2 -21.15 41.1 -17.6 41.95 -17.4 42.2 L-22.5 42.55 Q-28.6 42.55 -32.45 39.7 L-37.0 35.55 -37.0 35.25 -35.95 35.45 -34.5 35.75 M25.05 55.8 Q24.65 56.95 21.9 59.25 19.15 61.5 12.85 63.9 9.9 60.55 5.75 56.9 L5.75 56.95 3.75 53.85 3.25 52.85 Q8.0 55.95 9.5 56.5 L12.3 57.65 Q13.6 58.25 14.5 58.1 L16.55 57.05 18.0 55.55 20.2 55.45 25.05 55.8 M17.25 32.5 L19.35 32.95 Q23.1 33.1 25.75 30.45 31.05 35.7 36.3 33.75 L37.25 33.8 37.3 33.85 36.4 33.8 37.45 34.15 37.75 34.55 36.45 35.85 Q25.05 45.65 17.25 32.5 M5.15 56.3 L5.3 56.45 5.2 56.35 5.15 56.3" fill="#844823" fill-rule="evenodd" stroke="none"/>
      <path d="M-2.15 20.55 Q-7.25 22.55 -11.05 22.55 -17.3 22.55 -21.65 20.75 -24.45 19.6 -24.85 18.8 -26.05 17.8 -27.5 17.3 L-28.0 17.0 -45.85 13.6 Q-42.6 18.75 -43.25 23.05 -43.95 27.35 -43.55 29.45 -43.2 31.5 -38.4 30.65 -33.6 29.8 -31.6 29.0 L-28.6 27.75 Q-28.1 29.15 -24.25 32.75 -20.8 36.0 -18.8 36.65 -17.5 37.4 -15.55 37.8 -11.7 41.25 -5.05 41.75 L-4.9 41.9 -5.6 42.25 -6.75 42.0 Q-8.0 42.0 -11.1 43.3 -14.2 44.55 -18.3 44.9 L-26.35 44.4 Q-30.35 43.55 -37.85 38.45 -46.0 35.4 -50.0 36.9 -52.85 36.05 -53.85 37.3 L-53.7 37.9 Q-55.45 35.35 -53.9 39.95 -52.3 44.9 -52.85 46.55 L-50.5 47.0 -50.35 46.3 Q-44.75 48.55 -41.1 51.6 -37.45 54.65 -32.5 65.0 -28.5 64.25 -29.95 64.4 -31.4 64.55 -29.1 64.1 L-18.55 64.4 Q-10.25 65.05 -5.5 69.8 5.9 67.35 5.3 64.7 4.7 62.0 2.25 58.35 -0.2 54.65 -3.65 51.5 L-4.05 50.95 -5.0 50.05 Q-3.35 49.9 -0.5 48.55 2.2 47.3 3.0 46.5 4.2 48.3 5.85 49.6 8.35 51.55 11.0 51.55 L17.05 51.3 17.25 51.75 17.95 52.0 19.0 52.05 Q27.7 52.05 30.5 50.8 31.85 50.2 32.5 49.55 L32.5 50.0 Q31.85 50.9 31.55 52.15 22.0 65.65 22.9 65.15 23.8 64.65 23.35 65.7 22.9 66.7 26.8 65.45 30.65 64.15 38.0 68.75 40.2 59.2 41.9 57.7 43.6 56.15 50.4 54.7 L50.1 54.3 Q50.0 53.2 53.55 50.65 57.05 48.05 62.05 49.55 58.95 41.0 62.7 36.7 66.4 32.4 73.3 27.05 65.6 24.6 63.9 22.25 62.65 20.5 63.3 18.75 58.5 18.45 56.1 20.35 L52.8 24.25 Q52.1 25.05 47.5 27.7 L46.75 28.15 Q45.3 27.95 43.35 28.65 L42.1 29.2 42.0 29.0 Q41.7 29.05 41.35 29.25 L41.0 29.5 41.0 29.95 40.8 30.35 40.85 30.9 Q40.25 33.6 37.45 37.1 33.2 42.25 28.0 42.25 20.35 42.25 17.1 35.8 16.1 33.95 15.2 30.75 L14.3 27.65 14.5 27.55 Q14.4 28.6 15.15 29.25 15.95 30.05 17.5 30.05 L19.7 29.7 19.9 29.4 Q22.05 29.0 24.9 27.7 28.6 26.05 30.0 24.5 L29.75 24.05 21.5 25.5 19.8 25.85 19.75 25.7 11.05 25.3 6.45 21.65 2.25 18.5 -2.15 20.55 M-28.4 9.45 Q-19.15 19.6 -5.65 18.8 -0.5 18.2 3.65 15.2 10.7 25.6 24.3 22.7 28.65 21.8 32.4 19.65 35.15 25.15 41.0 25.9 42.6 26.25 44.8 25.25 50.8 20.75 51.15 6.15 L52.5 12.1 55.55 15.25 59.5 15.25 66.75 7.3 68.3 13.85 Q69.7 19.55 74.9 22.2 L81.4 21.8 Q73.5 25.75 75.0 31.55 68.85 35.1 66.15 40.0 63.45 44.9 67.55 53.75 54.65 50.25 56.55 57.8 44.15 62.5 40.0 74.3 36.9 72.95 33.5 72.15 L30.4 71.55 23.65 75.3 Q19.05 72.35 13.85 73.25 9.5 73.9 7.5 75.55 L3.0 75.1 -0.15 75.05 Q-3.9 76.7 -7.25 78.9 -14.7 71.55 -22.2 75.55 -26.7 69.25 -35.0 70.55 -43.35 50.35 -59.65 49.85 -60.95 41.2 -66.85 28.9 L-55.7 31.4 Q-50.6 23.75 -50.65 18.5 -50.75 13.2 -56.25 5.45 -39.35 12.3 -29.15 10.45 L-28.4 9.45 M-34.5 35.75 L-35.95 35.45 -37.0 35.25 -37.0 35.55 -32.45 39.7 Q-28.6 42.55 -22.5 42.55 L-17.4 42.2 Q-17.6 41.95 -21.15 41.1 -24.75 40.2 -29.3 34.55 L-34.5 35.75 M17.25 32.5 Q25.05 45.65 36.45 35.85 L37.75 34.55 37.45 34.15 36.4 33.8 37.3 33.85 37.25 33.8 36.3 33.75 Q31.05 35.7 25.75 30.45 23.1 33.1 19.35 32.95 L17.25 32.5 M25.05 55.8 L20.2 55.45 18.0 55.55 16.55 57.05 14.5 58.1 Q13.6 58.25 12.3 57.65 L9.5 56.5 Q8.0 55.95 3.25 52.85 L3.75 53.85 5.75 56.95 5.75 56.9 Q9.9 60.55 12.85 63.9 19.15 61.5 21.9 59.25 24.65 56.95 25.05 55.8 M5.15 56.3 L5.2 56.35 5.3 56.45 5.15 56.3" fill="#ffcc00" fill-rule="evenodd" stroke="none"/>
      <path d="M-2.15 20.55 L2.25 18.5 6.45 21.65 11.05 25.3 19.75 25.7 19.8 25.85 21.5 25.5 29.75 24.05 30.0 24.5 Q28.6 26.05 24.9 27.7 22.05 29.0 19.9 29.4 L19.7 29.7 17.5 30.05 Q15.95 30.05 15.15 29.25 14.4 28.6 14.5 27.55 L14.3 27.65 15.2 30.75 Q16.1 33.95 17.1 35.8 20.35 42.25 28.0 42.25 33.2 42.25 37.45 37.1 40.25 33.6 40.85 30.9 L40.8 30.35 41.0 29.95 41.0 29.5 41.35 29.25 Q41.7 29.05 42.0 29.0 L42.1 29.2 43.35 28.65 Q45.3 27.95 46.75 28.15 L47.5 27.7 Q52.1 25.05 52.8 24.25 L56.1 20.35 Q58.5 18.45 63.3 18.75 62.65 20.5 63.9 22.25 65.6 24.6 73.3 27.05 66.4 32.4 62.7 36.7 58.95 41.0 62.05 49.55 57.05 48.05 53.55 50.65 50.0 53.2 50.1 54.3 L50.4 54.7 Q43.6 56.15 41.9 57.7 40.2 59.2 38.0 68.75 30.65 64.15 26.8 65.45 22.9 66.7 23.35 65.7 23.8 64.65 22.9 65.15 22.0 65.65 31.55 52.15 31.85 50.9 32.5 50.0 L32.5 49.55 Q31.85 50.2 30.5 50.8 27.7 52.05 19.0 52.05 L17.95 52.0 17.25 51.75 17.05 51.3 11.0 51.55 Q8.35 51.55 5.85 49.6 4.2 48.3 3.0 46.5 2.2 47.3 -0.5 48.55 -3.35 49.9 -5.0 50.05 L-4.05 50.95 -3.65 51.5 Q-0.2 54.65 2.25 58.35 4.7 62.0 5.3 64.7 5.9 67.35 -5.5 69.8 -10.25 65.05 -18.55 64.4 L-29.1 64.1 Q-31.4 64.55 -29.95 64.4 -28.5 64.25 -32.5 65.0 -37.45 54.65 -41.1 51.6 -44.75 48.55 -50.35 46.3 L-50.5 47.0 -52.85 46.55 Q-52.3 44.9 -53.9 39.95 -55.45 35.35 -53.7 37.9 L-53.85 37.3 Q-52.85 36.05 -50.0 36.9 -46.0 35.4 -37.85 38.45 -30.35 43.55 -26.35 44.4 L-18.3 44.9 Q-14.2 44.55 -11.1 43.3 -8.0 42.0 -6.75 42.0 L-5.6 42.25 -4.9 41.9 -5.05 41.75 Q-11.7 41.25 -15.55 37.8 -17.5 37.4 -18.8 36.65 -20.8 36.0 -24.25 32.75 -28.1 29.15 -28.6 27.75 L-31.6 29.0 Q-33.6 29.8 -38.4 30.65 -43.2 31.5 -43.55 29.45 -43.95 27.35 -43.25 23.05 -42.6 18.75 -45.85 13.6 L-28.0 17.0 -27.5 17.3 Q-26.05 17.8 -24.85 18.8 -24.45 19.6 -21.65 20.75 -17.3 22.55 -11.05 22.55 -7.25 22.55 -2.15 20.55 M-36.5 20.65 Q-37.0 25.1 -34.45 25.0 L-30.75 24.55 Q-30.05 24.35 -23.45 28.75 -14.7 37.4 3.3 40.8 -21.05 53.85 -46.35 40.3 L-46.7 44.3 Q-28.2 53.65 -7.75 56.0 -8.0 54.55 -9.05 53.3 L-11.9 50.05 Q-3.6 44.15 6.5 44.1 13.45 48.45 21.1 45.4 L23.0 44.5 0.0 22.05 Q-12.35 28.05 -25.05 25.2 L-30.75 19.9 Q-32.1 18.25 -36.5 20.65 M58.4 22.85 L57.85 23.05 Q55.2 25.1 50.25 28.3 45.3 31.5 40.7 38.65 36.05 45.8 27.3 45.65 L35.85 46.9 33.8 58.95 Q42.8 44.2 56.85 39.3 L59.5 36.0 Q67.45 26.35 58.4 22.85" fill="#ffff00" fill-rule="evenodd" stroke="none"/>
      <path d="M-36.5 20.65 Q-32.1 18.25 -30.75 19.9 L-25.05 25.2 Q-12.35 28.05 0.0 22.05 L23.0 44.5 21.1 45.4 Q13.45 48.45 6.5 44.1 -3.6 44.15 -11.9 50.05 L-9.05 53.3 Q-8.0 54.55 -7.75 56.0 -28.2 53.65 -46.7 44.3 L-46.35 40.3 Q-21.05 53.85 3.3 40.8 -14.7 37.4 -23.45 28.75 -30.05 24.35 -30.75 24.55 L-34.45 25.0 Q-37.0 25.1 -36.5 20.65 M58.4 22.85 Q67.45 26.35 59.5 36.0 L56.85 39.3 Q42.8 44.2 33.8 58.95 L35.85 46.9 27.3 45.65 Q36.05 45.8 40.7 38.65 45.3 31.5 50.25 28.3 55.2 25.1 57.85 23.05 L58.4 22.85" fill="#ffffff" fill-rule="evenodd" stroke="none"/>
    </g>
  </defs>
</svg>
