<?xml version="1.0" encoding="UTF-8" standalone="no"?>
<svg xmlns:ffdec="https://www.free-decompiler.com/flash" xmlns:xlink="http://www.w3.org/1999/xlink" ffdec:objectType="frame" height="499.45px" width="496.15px" xmlns="http://www.w3.org/2000/svg">
  <g transform="matrix(1.0, 0.0, 0.0, 1.0, 270.5, 376.7)">
    <use ffdec:characterId="189" height="407.95" transform="matrix(1.0, 0.0, 0.0, 1.0, -264.15, -348.8)" width="471.7" xlink:href="#shape0"/>
  </g>
  <defs>
    <g id="shape0" transform="matrix(1.0, 0.0, 0.0, 1.0, 264.15, 348.8)">
      <path d="M166.8 -249.5 Q166.8 -252.35 169.8 -252.35 172.8 -252.35 172.8 -249.0 172.8 -247.65 172.05 -247.1 171.35 -246.6 169.75 -246.6 167.7 -246.6 167.05 -248.0 166.75 -248.7 166.8 -249.5 M74.6 -297.55 Q74.6 -298.7 76.7 -298.6 78.75 -298.5 78.75 -297.35 L78.65 -296.8 78.25 -296.5 76.0 -296.4 Q75.1 -296.4 74.75 -297.05 L74.6 -297.55 M68.0 -285.4 Q66.6 -285.4 66.25 -286.0 L66.15 -286.75 Q66.15 -288.55 67.85 -288.7 69.5 -288.85 69.5 -287.0 69.5 -285.4 68.0 -285.4 M44.75 -225.65 Q44.75 -227.95 46.95 -227.7 49.1 -227.45 49.1 -225.35 49.1 -223.25 47.0 -223.25 45.8 -223.25 45.15 -224.5 L44.75 -225.65 M47.6 -213.0 Q47.6 -212.5 47.25 -212.15 46.85 -211.75 46.1 -211.75 44.5 -211.75 44.5 -213.0 44.5 -213.65 45.25 -214.0 L46.1 -214.25 Q47.6 -214.25 47.6 -213.0 M150.15 -274.45 Q158.45 -274.3 158.85 -270.1 158.9 -269.45 158.5 -268.75 157.95 -267.95 156.95 -267.85 155.75 -267.7 153.7 -269.35 151.65 -271.15 149.05 -270.9 147.45 -270.7 146.2 -270.1 L144.7 -269.5 Q142.35 -269.25 142.25 -270.7 142.05 -272.55 144.55 -273.6 146.75 -274.55 150.15 -274.45 M115.0 -288.7 Q115.0 -290.9 116.6 -290.35 118.15 -289.85 118.15 -289.0 118.15 -287.05 116.35 -287.05 115.4 -287.05 115.1 -287.85 L115.0 -288.7 M117.4 -267.1 Q121.75 -265.55 121.75 -262.4 121.75 -261.45 121.3 -261.1 L119.5 -260.75 Q116.6 -260.75 114.55 -262.85 113.0 -264.5 113.0 -265.65 113.0 -268.6 117.4 -267.1 M22.5 -156.85 L23.1 -156.7 Q23.3 -156.65 23.3 -155.85 23.3 -155.15 22.75 -153.95 22.1 -152.5 21.25 -152.35 20.25 -153.35 20.25 -155.0 L20.45 -155.75 Q20.9 -156.35 22.5 -156.85 M10.0 -112.9 Q10.0 -112.5 8.65 -110.35 L7.25 -108.25 Q6.25 -108.25 6.25 -111.15 6.25 -115.1 8.15 -116.05 10.0 -117.0 10.0 -112.9 M18.8 -101.75 L18.3 -101.4 Q17.75 -101.1 17.0 -101.1 15.8 -101.1 15.55 -104.0 L15.55 -107.0 Q15.55 -112.1 17.3 -111.35 19.0 -110.55 19.0 -104.9 L18.8 -101.75 M69.55 -49.9 L73.0 -46.25 73.05 -45.85 Q73.05 -45.65 72.65 -45.65 72.1 -45.65 69.5 -48.0 L67.0 -50.35 Q67.0 -52.15 69.55 -49.9 M75.7 -52.6 L75.65 -53.15 Q75.65 -54.05 79.35 -56.3 83.0 -58.5 83.0 -56.6 83.0 -55.25 81.2 -53.75 79.25 -52.15 77.25 -52.15 76.0 -52.15 75.7 -52.6 M23.75 -75.75 L21.85 -71.4 20.25 -68.4 Q20.1 -68.4 19.0 -74.95 L17.85 -81.55 Q17.85 -86.45 21.5 -86.45 22.85 -86.45 23.95 -85.6 25.1 -84.75 25.1 -83.55 L24.65 -80.0 23.75 -75.75 M36.0 -61.35 Q36.0 -60.05 34.75 -58.9 32.85 -57.25 29.1 -57.25 25.7 -57.25 24.9 -59.15 24.5 -60.1 24.75 -61.15 24.75 -62.55 26.5 -63.7 28.15 -64.8 30.4 -65.05 36.0 -65.7 36.0 -61.35 M12.5 -37.15 L11.45 -37.15 10.25 -37.3 Q8.05 -37.3 7.1 -36.65 L5.85 -35.55 5.8 -35.5 5.75 -35.9 Q5.75 -37.95 9.25 -39.1 12.75 -40.3 12.75 -38.65 L12.5 -37.15 M39.85 -6.1 Q41.55 -8.35 45.0 -7.8 46.8 -6.65 47.2 -4.45 L47.35 -1.0 Q47.7 0.7 47.35 2.2 46.75 5.1 43.6 5.1 41.5 5.1 39.9 1.0 39.15 -1.05 38.75 -3.2 38.75 -4.7 39.85 -6.1 M158.1 -72.75 L158.35 -72.55 157.4 -71.8 Q156.4 -71.2 155.55 -69.85 L154.4 -67.85 153.7 -66.1 Q153.25 -65.05 152.0 -65.25 150.75 -65.5 150.75 -67.2 150.75 -68.15 153.55 -70.4 156.5 -72.8 158.1 -72.75 M207.55 -152.85 L206.4 -151.85 202.65 -151.85 202.5 -152.05 202.3 -153.05 Q202.3 -153.9 203.7 -154.45 205.4 -155.05 207.3 -153.6 L207.55 -152.85 M172.25 -90.25 Q171.95 -89.95 170.4 -89.7 L167.75 -89.5 167.15 -89.5 166.15 -89.6 165.5 -89.75 165.25 -92.35 Q166.75 -92.65 172.05 -91.1 L172.3 -90.35 172.25 -90.25 M175.1 -42.5 L172.25 -42.95 168.75 -43.6 168.5 -44.0 171.85 -44.65 175.8 -44.75 Q175.8 -44.3 176.25 -43.6 L176.0 -42.9 Q175.8 -42.5 175.1 -42.5 M170.4 15.35 Q170.4 13.0 172.7 12.95 175.0 12.95 175.0 15.5 175.0 16.75 171.85 16.75 170.65 16.75 170.4 16.1 L170.4 15.35 M171.0 28.5 Q170.45 29.4 168.5 29.4 166.3 29.4 165.75 28.5 L165.65 27.3 Q165.65 25.4 168.45 25.7 171.25 26.05 171.25 27.4 L171.0 28.5 M109.85 57.5 Q109.4 59.15 107.85 59.15 106.6 59.15 106.25 58.55 106.1 58.3 106.1 57.6 106.1 55.75 108.05 54.55 110.0 53.4 110.0 55.55 L109.85 57.5 M13.15 23.95 Q11.75 25.1 9.35 25.1 5.1 25.1 4.1 22.6 L3.9 19.95 Q3.9 19.05 5.5 18.2 7.15 17.35 9.1 17.25 14.25 17.05 14.25 22.05 14.25 23.05 13.15 23.95 M-62.9 -348.6 L-62.5 -348.8 Q-60.6 -347.85 -60.6 -345.75 L-60.65 -344.95 -60.85 -344.8 -61.0 -344.65 -62.6 -346.1 Q-63.35 -347.05 -63.35 -347.6 -63.35 -348.35 -62.9 -348.6 M-86.1 -267.75 Q-87.25 -266.3 -89.75 -266.3 -91.3 -266.3 -91.8 -267.7 -92.1 -268.45 -92.05 -269.15 -92.05 -272.6 -88.65 -272.75 -85.3 -272.9 -85.3 -269.85 -85.3 -268.7 -86.1 -267.75 M-84.45 -219.9 L-84.6 -220.75 Q-84.6 -222.15 -82.15 -223.35 -79.75 -224.5 -78.5 -224.0 L-78.35 -223.85 -78.25 -223.1 Q-78.25 -222.45 -80.85 -221.8 -83.45 -221.15 -84.35 -220.0 L-84.45 -219.9 M-46.75 -198.1 Q-46.75 -197.3 -47.55 -193.45 L-48.4 -188.9 -48.75 -188.55 -49.15 -190.65 -49.5 -193.05 Q-49.5 -195.15 -48.1 -198.1 -46.75 -201.1 -46.75 -198.1 M-24.25 -209.9 Q-24.25 -209.25 -24.6 -208.25 L-25.15 -206.3 -25.75 -206.05 Q-27.0 -207.05 -27.6 -209.1 -28.0 -210.5 -28.0 -211.65 -28.0 -213.9 -26.1 -213.3 -24.25 -212.7 -24.25 -209.9 M-16.25 -212.15 Q-17.5 -210.65 -17.75 -210.65 -19.05 -210.65 -18.75 -213.55 -18.75 -216.8 -16.85 -217.6 -15.0 -218.35 -15.0 -213.9 -15.0 -213.65 -16.25 -212.15 M-210.85 -271.3 Q-212.1 -270.05 -212.75 -268.75 L-213.15 -266.4 Q-213.55 -264.65 -214.75 -264.65 -216.65 -264.65 -216.5 -265.9 -216.5 -272.9 -213.3 -275.4 -212.1 -276.35 -211.15 -275.8 -210.15 -275.2 -210.15 -273.25 -210.15 -272.0 -210.85 -271.3 M-164.75 -124.85 Q-164.45 -125.55 -163.4 -125.35 L-162.05 -124.0 -162.3 -119.1 -162.9 -118.85 Q-163.7 -119.55 -164.3 -121.15 -164.8 -122.65 -164.8 -124.0 L-164.75 -124.85 M-188.25 -141.3 Q-190.0 -141.3 -190.9 -143.15 -191.5 -144.35 -191.5 -145.3 -191.5 -147.6 -188.15 -148.05 -184.8 -148.5 -184.8 -145.05 -184.8 -144.0 -185.45 -142.9 -186.4 -141.3 -188.25 -141.3 M-258.55 -119.85 Q-259.15 -119.35 -260.65 -119.35 -263.2 -119.35 -263.9 -120.45 L-264.15 -122.15 Q-264.15 -125.1 -260.95 -124.8 -257.8 -124.5 -257.8 -122.1 -257.8 -120.5 -258.55 -119.85 M-203.55 -10.9 Q-203.55 -12.7 -202.05 -14.05 -200.65 -15.25 -198.7 -15.5 -193.9 -16.15 -193.9 -11.4 -193.9 -7.55 -199.1 -7.55 -202.15 -7.55 -203.15 -9.15 -203.65 -10.0 -203.55 -10.9 M-75.15 -170.0 Q-74.9 -170.95 -73.9 -170.65 -73.65 -170.9 -73.65 -170.25 L-74.0 -163.25 -74.15 -161.05 -74.8 -160.9 -74.75 -162.15 -75.25 -168.65 -75.15 -170.0 M-59.65 -102.3 Q-57.7 -102.5 -57.75 -98.95 -57.8 -95.45 -58.7 -94.05 -59.65 -92.7 -61.5 -88.8 -62.3 -89.55 -63.1 -92.35 -63.9 -95.2 -63.9 -97.45 -63.9 -99.7 -62.75 -100.9 -61.65 -102.1 -59.65 -102.3 M-84.25 -149.9 Q-85.0 -150.65 -85.0 -152.45 -85.0 -155.45 -82.7 -155.0 -80.4 -154.55 -80.4 -151.75 -80.4 -149.9 -81.75 -149.9 L-84.25 -149.9 M-113.65 -109.2 Q-114.45 -108.35 -114.85 -105.6 L-115.5 -105.35 Q-117.1 -108.1 -117.1 -110.85 -117.1 -112.75 -115.1 -113.15 -113.1 -113.55 -113.1 -111.4 -113.1 -109.85 -113.65 -109.2 M-83.9 -63.75 Q-84.4 -63.15 -85.25 -63.15 L-87.15 -63.6 -89.25 -64.25 -92.3 -64.55 Q-94.25 -64.65 -95.25 -65.65 -95.9 -66.35 -95.9 -67.25 -95.9 -68.2 -89.7 -67.3 -83.55 -66.45 -83.55 -65.3 -83.55 -64.15 -83.9 -63.75 M-37.75 -63.75 Q-40.6 -63.75 -41.85 -68.6 -42.45 -70.95 -42.5 -73.15 -42.5 -74.35 -41.1 -74.3 -39.8 -74.3 -38.0 -73.2 -33.55 -70.45 -33.55 -66.4 -33.55 -63.75 -37.75 -63.75 M-69.75 -80.55 Q-69.75 -83.5 -68.25 -83.0 -66.9 -82.6 -64.85 -79.8 -60.0 -73.0 -60.0 -67.85 L-60.0 -66.15 Q-60.25 -65.0 -61.6 -65.0 -63.4 -65.0 -65.25 -67.15 -67.15 -69.35 -67.95 -71.35 -68.75 -73.35 -69.25 -76.3 L-69.75 -80.55 M-48.35 -61.05 Q-39.3 -59.6 -39.8 -56.65 -40.35 -53.7 -44.55 -53.0 -48.8 -52.3 -53.1 -54.65 -57.4 -57.0 -57.4 -59.0 -57.4 -60.4 -54.55 -61.0 -51.8 -61.6 -48.35 -61.05 M-9.5 -13.15 L-10.0 -13.0 Q-14.75 -13.0 -16.5 -13.75 -17.75 -14.25 -17.75 -15.4 L-17.65 -15.75 -13.7 -15.3 Q-10.15 -14.55 -9.5 -13.5 L-9.5 -13.15 M-16.25 29.35 L-23.25 29.9 Q-29.35 29.9 -32.0 28.15 -33.75 27.0 -33.75 25.3 -33.75 23.95 -30.85 23.15 -28.05 22.35 -24.4 22.55 -15.05 23.0 -15.05 27.8 -15.05 28.95 -16.25 29.35 M-60.5 2.0 Q-60.5 2.45 -62.75 2.9 L-65.75 3.35 -67.5 3.25 -68.0 2.7 Q-68.0 1.75 -67.25 1.5 L-61.75 0.75 Q-61.2 1.1 -60.8 1.55 L-60.5 2.0 M-155.55 21.0 Q-157.1 22.65 -158.85 22.65 -160.9 22.65 -161.55 21.6 -161.85 21.05 -161.75 20.5 -161.75 18.7 -160.5 18.05 -158.6 17.05 -154.05 18.9 L-155.55 21.0" fill="#939393" fill-rule="evenodd" stroke="none"/>
    </g>
  </defs>
</svg>
