<?xml version="1.0" encoding="UTF-8" standalone="no"?>
<svg xmlns:ffdec="https://www.free-decompiler.com/flash" xmlns:xlink="http://www.w3.org/1999/xlink" ffdec:objectType="frame" height="499.45px" width="496.15px" xmlns="http://www.w3.org/2000/svg">
  <g transform="matrix(1.0, 0.0, 0.0, 1.0, 270.5, 376.7)">
    <use ffdec:characterId="190" height="304.25" transform="matrix(1.0, 0.0, 0.0, 1.0, -262.5, -276.75)" width="433.9" xlink:href="#shape0"/>
  </g>
  <defs>
    <g id="shape0" transform="matrix(1.0, 0.0, 0.0, 1.0, 262.5, 276.75)">
      <path d="M170.1 -250.0 Q168.6 -250.0 168.3 -250.95 168.1 -251.45 168.25 -251.8 168.25 -253.15 169.85 -252.9 171.4 -252.6 171.4 -251.0 171.4 -250.0 170.1 -250.0 M151.2 -276.65 Q157.9 -276.35 158.0 -273.65 158.05 -271.0 157.45 -271.0 156.8 -271.0 154.65 -272.4 152.55 -273.8 150.8 -273.65 L146.3 -273.3 Q143.55 -273.1 144.05 -275.05 144.45 -277.0 151.2 -276.65 M118.1 -264.5 Q116.05 -264.5 114.6 -265.55 113.4 -266.35 113.4 -267.05 113.4 -269.0 116.35 -267.75 119.25 -266.5 119.25 -265.45 119.25 -264.5 118.1 -264.5 M17.25 -112.9 Q18.2 -111.15 18.05 -108.9 L17.65 -105.5 17.25 -105.3 Q16.4 -106.25 16.2 -108.3 L16.25 -111.75 Q16.3 -114.7 17.25 -112.9 M7.5 -111.75 Q7.1 -112.3 7.1 -113.3 7.1 -114.75 8.55 -115.7 10.0 -116.65 10.0 -114.9 L8.9 -113.45 7.5 -111.75 M24.15 -82.2 Q22.15 -72.6 21.15 -72.15 20.15 -71.75 19.45 -78.25 L18.85 -84.85 Q18.85 -86.1 19.8 -86.75 20.75 -87.4 21.95 -87.1 25.0 -86.4 24.15 -82.2 M35.1 -61.75 Q35.1 -60.9 33.35 -60.0 31.45 -59.0 29.25 -59.0 26.25 -59.0 25.4 -60.65 25.15 -61.2 25.15 -62.7 25.15 -63.8 26.7 -64.7 28.2 -65.55 30.15 -65.65 35.1 -66.0 35.1 -61.75 M39.25 -5.8 Q39.25 -8.75 42.9 -9.05 46.5 -9.35 46.5 -5.0 46.5 -3.55 45.5 -1.05 44.3 2.0 42.85 2.0 41.9 2.0 40.45 -2.0 L39.25 -5.8 M8.5 21.85 Q5.75 21.85 5.1 20.5 L5.0 18.8 Q5.0 16.8 9.25 16.65 13.5 16.5 13.5 19.2 13.5 21.85 8.5 21.85 M-86.9 -270.45 Q-87.55 -269.65 -88.75 -269.65 -90.6 -269.65 -91.25 -270.75 L-91.55 -272.0 Q-91.55 -274.25 -88.95 -274.25 -86.4 -274.2 -86.4 -272.05 -86.4 -271.15 -86.9 -270.45 M-25.1 -211.35 L-26.0 -210.6 -27.5 -212.15 Q-27.5 -213.65 -26.5 -213.85 L-25.0 -212.1 -25.1 -211.35 M-15.8 -217.7 Q-15.6 -217.65 -15.6 -216.85 L-16.0 -215.7 Q-16.5 -214.75 -17.0 -214.6 L-17.65 -215.0 Q-17.85 -215.3 -17.85 -216.15 L-17.75 -217.75 -16.5 -217.85 -15.8 -217.7 M-212.5 -272.0 Q-214.55 -269.0 -214.65 -267.5 L-215.0 -267.4 Q-215.4 -268.25 -215.4 -269.9 -215.4 -272.6 -212.95 -275.4 -210.5 -278.2 -210.5 -275.15 L-212.5 -272.0 M-187.05 -145.05 Q-188.1 -143.65 -189.0 -143.65 -190.55 -143.65 -191.0 -145.65 L-191.15 -147.7 Q-191.15 -149.05 -188.6 -149.5 -186.05 -150.0 -186.05 -147.25 -186.05 -146.4 -187.05 -145.05 M-259.15 -124.85 Q-259.0 -124.75 -259.0 -124.0 -259.0 -122.8 -259.9 -122.1 -260.55 -121.6 -261.25 -121.6 -262.5 -121.6 -262.35 -121.85 L-262.5 -123.35 -262.3 -124.55 Q-261.7 -125.25 -259.35 -125.0 L-259.15 -124.85 M-195.85 -11.55 Q-197.3 -10.05 -199.75 -10.05 -201.65 -10.05 -202.5 -11.8 -203.0 -12.85 -203.0 -13.75 -203.0 -16.2 -198.85 -16.55 -194.75 -16.95 -194.75 -13.75 -194.75 -12.65 -195.85 -11.55 M-58.65 -101.45 L-58.55 -99.5 Q-58.55 -97.85 -59.35 -96.2 -60.25 -94.35 -62.0 -93.0 L-62.65 -96.55 -63.25 -100.85 Q-63.25 -101.6 -62.65 -102.3 -61.85 -103.25 -60.35 -103.25 -59.05 -103.25 -58.65 -101.45 M-81.65 -154.9 L-81.35 -154.35 Q-82.05 -153.35 -82.5 -153.25 L-83.9 -153.25 Q-84.25 -153.3 -84.25 -154.1 -84.25 -155.95 -81.85 -155.5 L-81.65 -154.9 M-114.2 -110.95 L-115.0 -109.6 -115.8 -110.35 -116.0 -111.55 Q-116.0 -112.25 -115.1 -112.3 L-113.35 -112.1 -114.2 -110.95 M-84.85 -65.25 Q-87.15 -65.25 -89.95 -66.1 L-94.75 -67.15 -95.5 -68.05 Q-95.5 -69.75 -89.7 -68.05 L-83.9 -66.0 Q-83.9 -65.25 -84.85 -65.25 M-36.0 -67.25 Q-36.9 -66.75 -38.35 -66.75 -40.55 -66.75 -41.85 -70.05 -42.45 -71.75 -42.65 -73.5 -42.65 -76.55 -38.9 -74.05 -35.15 -71.55 -35.15 -68.65 -35.15 -67.8 -36.0 -67.25 M-68.75 -81.55 Q-68.75 -83.8 -67.55 -83.65 -66.45 -83.45 -64.9 -81.5 -61.05 -76.75 -61.05 -72.4 -61.05 -68.25 -62.1 -68.25 -65.5 -68.25 -67.45 -74.5 -68.75 -78.7 -68.75 -81.55 M-56.75 -60.4 Q-56.75 -62.15 -51.35 -62.15 -45.75 -62.15 -42.8 -60.15 -40.75 -58.75 -40.75 -57.35 -40.75 -56.25 -42.1 -55.85 L-48.85 -55.25 Q-53.25 -55.25 -55.45 -57.8 -56.55 -59.05 -56.75 -60.4 M-31.75 26.1 Q-33.3 26.15 -33.3 24.5 -33.3 23.3 -31.75 22.85 L-24.0 22.9 -18.9 23.65 Q-15.5 24.3 -15.5 25.9 -15.5 27.5 -17.1 27.5 L-31.75 26.1 M-156.9 20.1 Q-157.85 20.65 -159.0 20.65 -161.0 20.65 -161.0 18.8 -161.0 16.5 -158.45 16.5 -155.9 16.5 -155.9 18.65 -155.9 19.5 -156.9 20.1" fill="#959595" fill-rule="evenodd" stroke="none"/>
    </g>
  </defs>
</svg>
