<?xml version="1.0" encoding="UTF-8" standalone="no"?>
<svg xmlns:ffdec="https://www.free-decompiler.com/flash" xmlns:xlink="http://www.w3.org/1999/xlink" ffdec:objectType="frame" height="499.45px" width="496.15px" xmlns="http://www.w3.org/2000/svg">
  <g transform="matrix(1.0, 0.0, 0.0, 1.0, 270.5, 376.7)">
    <use ffdec:characterId="191" height="303.85" transform="matrix(1.0, 0.0, 0.0, 1.0, -214.5, -278.3)" width="372.3" xlink:href="#shape0"/>
  </g>
  <defs>
    <g id="shape0" transform="matrix(1.0, 0.0, 0.0, 1.0, 214.5, 278.3)">
      <path d="M157.55 -274.55 L157.5 -274.3 151.75 -275.15 146.0 -275.3 145.6 -275.45 145.0 -275.9 Q147.55 -277.95 151.6 -278.25 156.35 -278.65 157.8 -275.3 L157.55 -274.55 M21.25 -75.0 L20.75 -74.85 20.05 -81.0 19.5 -85.55 Q19.5 -87.95 21.65 -88.45 23.75 -89.0 23.75 -87.0 L22.5 -80.75 21.25 -75.0 M32.0 -60.1 L28.5 -60.1 Q27.25 -60.2 26.55 -61.3 26.05 -62.05 26.05 -62.6 26.05 -64.2 27.35 -65.45 28.55 -66.6 30.2 -66.85 34.3 -67.4 34.3 -62.4 34.3 -61.8 33.35 -61.1 L32.0 -60.1 M44.4 -3.5 Q43.2 -0.8 42.25 -0.35 41.8 -2.55 40.9 -4.15 40.25 -5.35 40.25 -6.9 40.25 -10.3 42.9 -10.7 45.55 -11.15 45.55 -7.25 45.55 -6.1 44.4 -3.5 M12.2 19.0 Q11.05 19.25 10.25 20.05 L6.55 20.05 5.85 19.15 5.75 17.85 Q5.75 15.2 9.4 15.75 13.0 16.25 13.0 18.3 13.0 18.8 12.2 19.0 M-87.25 -274.15 Q-87.1 -273.1 -87.65 -272.4 -88.15 -271.85 -88.75 -271.85 L-89.9 -271.95 -90.85 -272.35 -90.85 -274.6 -90.75 -275.25 -87.35 -275.1 -87.25 -274.15 M-211.35 -277.6 Q-211.25 -277.75 -211.25 -276.5 -211.25 -275.65 -212.3 -274.25 L-213.75 -272.0 -214.25 -271.85 -214.45 -272.3 -214.5 -273.35 Q-214.5 -276.35 -212.5 -277.75 L-211.35 -277.6 M-187.6 -148.9 Q-187.6 -148.0 -187.75 -147.35 L-188.05 -147.2 -189.25 -147.1 Q-190.9 -147.1 -191.35 -148.2 -191.6 -148.75 -191.5 -149.4 -191.5 -150.3 -190.4 -150.6 L-187.85 -150.85 -187.6 -148.9 M-196.2 -12.45 Q-197.35 -11.35 -199.4 -11.35 -201.35 -11.35 -201.95 -12.6 L-202.15 -14.05 Q-202.15 -17.45 -198.65 -17.55 -195.15 -17.6 -195.15 -14.9 -195.15 -13.45 -196.2 -12.45 M-59.85 -99.0 Q-60.55 -98.2 -60.85 -96.35 L-61.25 -96.35 Q-61.1 -97.2 -61.4 -98.95 L-61.75 -101.4 Q-61.75 -104.1 -60.0 -104.1 -58.3 -104.1 -58.75 -101.95 -59.2 -99.85 -59.85 -99.0 M-86.4 -67.65 L-87.5 -67.5 -90.35 -68.0 -94.1 -68.85 -94.2 -68.65 -94.35 -69.4 -94.25 -70.25 -90.25 -69.4 Q-87.15 -68.5 -86.25 -67.85 L-86.4 -67.65 M-37.0 -71.4 Q-37.0 -70.15 -37.4 -69.85 L-39.0 -69.6 Q-41.7 -69.6 -42.35 -71.9 L-42.5 -74.5 Q-42.5 -75.35 -42.2 -75.65 L-41.5 -76.0 Q-39.6 -75.25 -38.35 -74.1 -37.0 -72.8 -37.0 -71.4 M-62.1 -77.3 Q-62.1 -74.7 -62.85 -71.85 -65.5 -73.05 -67.35 -80.9 -67.35 -84.95 -64.7 -82.7 -62.1 -80.5 -62.1 -77.3 M-50.8 -63.05 L-48.65 -62.5 Q-45.1 -61.9 -41.85 -59.6 L-41.75 -58.95 Q-41.75 -58.6 -42.5 -58.6 L-42.65 -58.6 -42.6 -58.35 Q-43.2 -57.5 -45.0 -57.5 L-46.45 -57.7 -48.25 -57.5 Q-51.1 -57.5 -53.5 -58.95 -55.5 -60.2 -55.5 -60.9 -55.5 -61.75 -54.8 -61.95 -53.5 -63.4 -50.8 -63.05 M-18.85 22.85 Q-16.8 23.1 -16.1 24.25 L-16.35 25.25 -18.0 25.55 -19.15 25.3 -20.7 25.05 -25.75 24.6 Q-29.9 24.35 -32.0 23.25 -30.75 21.35 -29.5 21.2 -28.8 21.1 -28.05 21.5 L-24.7 21.4 Q-20.6 21.6 -19.35 22.8 L-18.85 22.85 M-157.05 17.25 L-157.3 18.55 -157.65 18.8 -158.9 19.25 Q-160.0 18.85 -160.25 18.15 L-160.3 17.25 Q-160.3 16.25 -159.7 16.15 L-157.3 16.05 -157.05 17.25" fill="#999999" fill-rule="evenodd" stroke="none"/>
    </g>
  </defs>
</svg>
