<?xml version="1.0" encoding="UTF-8" standalone="no"?>
<svg xmlns:ffdec="https://www.free-decompiler.com/flash" xmlns:xlink="http://www.w3.org/1999/xlink" ffdec:objectType="frame" height="499.45px" width="496.15px" xmlns="http://www.w3.org/2000/svg">
  <g transform="matrix(1.0, 0.0, 0.0, 1.0, 270.5, 376.7)">
    <use ffdec:characterId="192" height="301.5" transform="matrix(1.0, 0.0, 0.0, 1.0, -201.4, -278.75)" width="358.1" xlink:href="#shape0"/>
  </g>
  <defs>
    <g id="shape0" transform="matrix(1.0, 0.0, 0.0, 1.0, 201.4, 278.75)">
      <path d="M156.1 -276.45 L154.75 -277.0 148.75 -277.3 Q147.85 -277.3 147.6 -277.55 156.0 -279.8 156.5 -277.85 157.0 -275.95 156.1 -276.45 M21.5 -82.3 L20.65 -82.55 20.5 -84.3 20.75 -87.5 Q20.75 -89.05 21.9 -89.45 23.0 -89.9 23.0 -88.35 L22.75 -85.95 Q22.25 -84.55 22.0 -82.75 L21.5 -82.3 M32.5 -62.65 Q31.65 -61.75 30.1 -61.75 28.15 -61.75 27.65 -62.55 27.45 -63.0 27.6 -63.4 27.6 -67.0 30.35 -66.75 33.1 -66.55 33.1 -64.05 33.1 -63.3 32.5 -62.65 M40.85 -10.65 L41.65 -11.6 Q42.1 -12.05 42.8 -11.75 45.0 -10.85 45.0 -8.85 45.0 -7.9 44.2 -5.85 L42.75 -3.0 Q42.6 -3.15 41.6 -5.75 40.6 -8.4 40.55 -9.25 40.5 -10.15 40.85 -10.65 M7.25 17.5 L6.6 16.95 6.5 16.2 Q6.5 14.9 9.1 15.05 11.65 15.15 11.65 16.5 L11.45 16.9 10.75 17.6 9.65 17.65 9.65 17.7 8.5 17.75 7.25 17.65 7.25 17.5 M-88.25 -273.85 L-89.1 -273.75 Q-90.55 -273.75 -90.25 -274.8 -90.25 -275.9 -89.1 -275.7 -88.0 -275.5 -88.0 -274.55 -88.0 -274.0 -88.25 -273.85 M-188.15 -150.65 Q-188.15 -150.3 -188.5 -149.7 -188.95 -148.9 -189.75 -148.9 -191.0 -148.9 -190.8 -150.45 -190.8 -151.25 -190.25 -151.45 L-188.25 -151.4 -188.15 -150.65 M-201.35 -13.8 Q-201.5 -14.6 -201.05 -16.3 -200.65 -18.05 -198.2 -17.8 -195.8 -17.6 -195.75 -16.15 -195.7 -14.75 -195.95 -13.9 -196.25 -13.1 -198.75 -13.05 -201.25 -13.0 -201.35 -13.8 M-59.1 -102.25 Q-59.65 -101.2 -60.0 -101.15 -60.65 -101.6 -60.75 -102.15 L-60.8 -103.0 Q-60.8 -104.65 -59.65 -104.65 -58.55 -104.65 -58.55 -103.7 -58.55 -103.3 -59.1 -102.25 M-38.35 -72.25 Q-38.55 -71.75 -39.25 -71.75 -41.25 -71.75 -42.25 -74.75 -42.25 -76.35 -40.25 -75.5 -38.25 -74.65 -38.25 -73.15 L-38.35 -72.25 M-63.5 -76.25 Q-65.0 -77.9 -65.55 -79.7 -66.0 -81.1 -66.0 -83.1 L-65.75 -83.8 Q-65.4 -84.3 -64.6 -84.3 -63.15 -84.3 -62.7 -82.3 L-62.55 -80.2 -62.65 -78.1 Q-62.8 -77.1 -63.5 -76.25 M-43.8 -60.4 Q-43.8 -59.75 -45.0 -59.75 -48.95 -59.75 -51.4 -60.8 -53.3 -61.6 -53.3 -62.3 -53.3 -63.8 -48.55 -63.05 -43.8 -62.3 -43.8 -60.4 M-19.5 22.75 L-23.15 22.25 -28.8 20.85 -28.8 20.5 -22.7 20.95 Q-18.9 21.6 -18.5 22.25 -18.15 22.75 -19.5 22.75 M-157.75 16.1 L-158.3 17.0 -158.75 17.35 -159.2 17.3 -159.5 17.1 -159.55 16.35 -159.5 15.65 Q-158.85 15.5 -157.8 15.65 L-157.75 16.1" fill="#999999" fill-rule="evenodd" stroke="none"/>
    </g>
  </defs>
</svg>
