<?xml version="1.0" encoding="UTF-8" standalone="no"?>
<svg xmlns:ffdec="https://www.free-decompiler.com/flash" xmlns:xlink="http://www.w3.org/1999/xlink" ffdec:objectType="frame" height="499.45px" width="496.15px" xmlns="http://www.w3.org/2000/svg">
  <g transform="matrix(1.0, 0.0, 0.0, 1.0, 270.5, 376.7)">
    <use ffdec:characterId="193" height="101.35" transform="matrix(1.0, 0.0, 0.0, 1.0, -199.9, -85.5)" width="243.55" xlink:href="#shape0"/>
  </g>
  <defs>
    <g id="shape0" transform="matrix(1.0, 0.0, 0.0, 1.0, 199.9, 85.5)">
      <path d="M31.25 -63.75 L29.25 -63.75 Q28.25 -64.45 28.25 -65.05 28.25 -66.95 30.25 -66.9 32.25 -66.85 32.25 -65.9 32.25 -64.5 31.25 -63.75 M43.25 -9.05 L42.75 -7.65 Q42.3 -8.25 41.95 -9.35 41.6 -10.45 41.6 -11.05 41.6 -12.65 42.65 -12.35 43.65 -12.1 43.65 -10.65 L43.25 -9.05 M10.5 14.95 L10.25 15.75 8.85 15.85 7.6 15.6 7.25 15.15 Q7.4 14.5 7.7 14.3 L10.4 14.25 10.5 14.95 M-196.75 -15.8 L-197.25 -15.15 -199.0 -15.15 Q-199.9 -15.75 -199.9 -16.8 -199.9 -17.95 -198.2 -17.85 -196.5 -17.75 -196.5 -16.45 L-196.75 -15.8 M-39.5 -74.25 L-39.55 -74.1 -40.0 -74.0 Q-41.05 -74.0 -41.5 -74.75 L-41.75 -75.7 Q-41.75 -76.7 -40.6 -76.35 -39.5 -76.0 -39.5 -75.0 L-39.5 -74.25 M-62.3 -82.55 L-62.55 -79.9 -62.75 -79.7 Q-62.85 -79.55 -63.25 -79.55 -64.5 -79.55 -64.5 -84.3 L-64.5 -85.15 Q-63.15 -86.05 -62.6 -84.5 -62.3 -83.65 -62.3 -82.55 M-44.65 -62.0 Q-44.8 -61.15 -47.0 -61.15 -48.55 -61.15 -49.95 -61.8 -51.3 -62.45 -51.3 -63.0 -51.3 -64.05 -49.45 -63.6 L-44.65 -62.0" fill="#999999" fill-rule="evenodd" stroke="none"/>
    </g>
  </defs>
</svg>
