<?xml version="1.0" encoding="UTF-8" standalone="no"?>
<svg xmlns:ffdec="https://www.free-decompiler.com/flash" xmlns:xlink="http://www.w3.org/1999/xlink" ffdec:objectType="frame" height="499.45px" width="496.15px" xmlns="http://www.w3.org/2000/svg">
  <g transform="matrix(1.0, 0.0, 0.0, 1.0, 270.5, 376.7)">
    <use ffdec:characterId="194" height="69.0" transform="matrix(1.0, 0.0, 0.0, 1.0, -199.0, -85.75)" width="230.5" xlink:href="#shape0"/>
  </g>
  <defs>
    <g id="shape0" transform="matrix(1.0, 0.0, 0.0, 1.0, 199.0, 85.75)">
      <path d="M31.05 -65.7 Q30.85 -65.5 30.35 -65.5 28.75 -65.5 28.75 -66.3 28.75 -67.25 29.75 -67.35 30.8 -67.45 31.5 -66.25 L31.05 -65.7 M-197.15 -18.0 L-197.3 -17.05 -198.25 -16.75 -198.8 -17.05 -198.9 -17.25 -199.0 -17.75 Q-199.0 -18.15 -198.4 -18.4 -197.85 -18.6 -197.25 -18.4 -197.15 -18.65 -197.15 -18.0 M-63.4 -83.3 L-63.5 -84.8 Q-63.5 -85.6 -63.0 -85.75 -62.4 -85.6 -62.4 -84.9 L-62.55 -81.5 -62.8 -81.5 -63.4 -83.3 M-45.3 -62.4 L-47.35 -62.9 Q-49.0 -63.35 -49.65 -63.75 L-47.55 -63.65 Q-46.0 -62.7 -45.3 -62.4" fill="#999999" fill-rule="evenodd" stroke="none"/>
    </g>
  </defs>
</svg>
