<?xml version="1.0" encoding="UTF-8" standalone="no"?>
<svg xmlns:ffdec="https://www.free-decompiler.com/flash" xmlns:xlink="http://www.w3.org/1999/xlink" ffdec:objectType="frame" height="499.45px" width="496.15px" xmlns="http://www.w3.org/2000/svg">
  <g transform="matrix(1.0, 0.0, 0.0, 1.0, 270.5, 376.7)">
    <use ffdec:characterId="155" height="337.85" transform="matrix(1.0, 0.0, 0.0, 1.0, -173.25, -215.1)" width="326.35" xlink:href="#shape0"/>
  </g>
  <defs>
    <g id="shape0" transform="matrix(1.0, 0.0, 0.0, 1.0, 173.25, 215.1)">
      <path d="M-137.0 -144.85 L-136.9 -143.65 Q-133.4 -146.55 -127.9 -149.15 -116.45 -154.5 -106.0 -154.5 L-101.45 -154.4 Q-98.85 -154.15 -97.5 -153.0 -98.0 -155.85 -95.95 -157.95 -93.7 -160.25 -90.5 -159.0 L-91.2 -162.65 -91.5 -165.75 Q-91.5 -172.1 -86.5 -176.5 -81.45 -181.0 -74.0 -181.0 -62.3 -181.0 -61.5 -169.3 L-59.55 -172.45 Q-57.2 -175.75 -53.75 -176.1 -50.35 -176.5 -45.45 -174.45 L-41.8 -172.9 -41.15 -168.05 -39.0 -157.0 -38.5 -157.0 Q-38.65 -163.05 -32.7 -168.25 L-27.65 -172.4 Q-24.8 -174.85 -23.5 -177.0 -19.7 -183.15 -15.75 -185.95 -10.75 -189.5 -3.5 -189.5 0.05 -189.5 2.05 -188.3 3.75 -187.25 11.9 -179.8 L17.0 -180.5 21.45 -181.35 28.5 -182.0 Q34.1 -182.0 38.35 -176.75 42.55 -171.55 42.0 -165.5 44.8 -170.8 45.65 -173.35 46.5 -175.75 46.75 -178.0 L48.0 -178.0 Q53.1 -176.1 55.75 -171.05 60.8 -164.1 63.95 -145.9 L57.05 -137.3 59.0 -137.0 62.5 -136.5 Q64.1 -136.5 68.55 -139.25 73.0 -142.0 78.0 -142.0 83.75 -142.0 88.6 -137.9 93.4 -133.85 92.5 -130.0 L96.65 -130.75 108.0 -133.45 Q115.25 -135.4 119.05 -126.5 125.35 -135.85 133.5 -131.0 138.35 -129.45 141.2 -121.0 143.5 -114.05 143.5 -106.25 L143.35 -103.1 144.2 -101.75 Q145.4 -99.5 146.2 -95.65 L146.3 -96.9 Q145.95 -89.85 145.95 -85.55 146.0 -77.95 131.3 -62.45 L125.35 -73.0 Q126.5 -70.45 131.3 -62.45 134.65 -57.6 135.75 -56.7 120.45 -58.9 109.65 -52.0 117.05 -52.3 123.6 -45.2 L131.6 -47.4 Q136.3 -48.9 140.4 -45.15 144.45 -41.45 145.75 -38.75 146.6 -30.9 148.1 -27.3 149.6 -23.7 149.55 -19.8 L149.5 -15.7 148.3 -12.95 Q142.9 -0.95 140.45 1.5 L141.4 2.95 Q143.1 5.85 143.1 8.75 143.1 52.95 117.85 60.5 L102.1 60.8 Q95.2 66.75 83.5 66.75 L81.2 66.6 81.0 67.5 Q79.4 76.45 76.75 84.0 74.35 90.85 71.5 95.65 71.25 97.8 67.5 101.8 62.9 106.7 55.7 111.0 36.1 122.75 10.5 122.75 -21.1 122.75 -40.1 110.8 -49.2 105.1 -57.85 93.2 -67.55 99.5 -83.5 99.5 -109.65 99.5 -123.55 77.75 -128.25 70.4 -130.85 61.55 -132.75 55.0 -132.75 51.5 L-132.75 51.3 Q-139.45 49.15 -143.0 40.45 -145.4 34.65 -145.75 28.6 -145.75 23.35 -145.05 18.25 -157.2 13.2 -165.2 -1.0 -167.25 -4.6 -168.8 -8.35 -170.5 -16.2 -170.5 -24.0 -170.5 -33.9 -169.0 -38.25 -166.95 -44.3 -164.0 -37.5 L-163.5 -37.5 Q-161.4 -43.25 -157.15 -46.95 -152.95 -50.65 -146.5 -50.5 -145.9 -55.4 -144.1 -57.15 -142.3 -58.95 -136.6 -60.5 -130.95 -62.05 -126.55 -60.95 -122.15 -59.85 -121.0 -57.0 -119.25 -58.5 -115.3 -58.85 L-108.5 -59.0 -102.9 -58.9 Q-99.55 -58.65 -98.65 -57.7 -103.2 -63.6 -107.95 -66.5 -113.8 -70.05 -122.0 -70.5 L-123.95 -75.55 Q-125.0 -78.1 -125.0 -80.0 L-124.5 -83.85 -124.2 -86.2 Q-120.55 -89.2 -115.75 -90.85 L-111.4 -91.95 -111.5 -92.85 Q-111.5 -96.05 -108.7 -100.05 L-107.25 -101.85 Q-123.0 -107.4 -131.05 -123.85 -136.15 -134.25 -137.0 -144.85 M137.85 -55.85 L139.6 -55.05 138.5 -55.55 137.85 -55.85 M17.3 -79.0 Q16.3 -80.4 14.45 -86.1 12.6 -91.85 7.15 -96.15 1.7 -100.45 -4.05 -100.3 -9.85 -100.2 -13.45 -98.35 -17.1 -96.55 -20.0 -91.0 -21.95 -93.3 -24.5 -93.8 L-29.0 -94.0 Q-36.2 -94.0 -40.35 -91.25 -43.6 -89.05 -45.9 -84.3 L-49.7 -75.25 Q-52.3 -69.55 -55.85 -66.0 L-55.85 -61.35 Q-63.2 -61.9 -66.85 -48.0 L-67.85 -40.0 Q-64.1 -45.95 -57.65 -50.9 -49.6 -57.0 -42.35 -57.0 -39.05 -57.0 -34.0 -54.95 -28.05 -52.25 -25.0 -51.0 -25.8 -55.3 -18.4 -59.8 -11.45 -64.0 -5.5 -64.0 L0.5 -63.0 6.5 -62.0 Q6.7 -62.0 12.1 -64.5 18.1 -67.0 21.0 -67.0 L28.15 -66.8 Q31.6 -66.3 32.0 -64.0 L32.0 -66.5 Q32.0 -69.95 25.95 -72.7 20.5 -75.2 17.3 -79.0 M50.95 -55.8 L45.1 -56.7 38.45 -56.5 Q36.3 -56.0 34.9 -55.0 L37.0 -55.0 Q45.45 -54.55 49.15 -45.3 L52.0 -36.95 Q53.8 -31.9 56.0 -29.0 L63.35 -34.45 Q67.9 -38.0 72.0 -38.0 L76.7 -37.35 Q79.5 -36.75 81.0 -36.0 80.8 -41.65 76.8 -45.75 72.7 -50.0 67.0 -50.0 L62.2 -49.35 57.0 -48.0 Q52.4 -55.2 50.95 -55.8 M93.85 2.25 Q89.25 8.8 86.0 9.7 82.6 10.7 79.25 10.5 L74.0 4.0 Q59.05 18.55 39.25 17.25 L30.75 10.1 28.25 12.85 Q22.6 19.25 15.05 22.2 3.55 24.35 -3.05 20.55 -9.65 16.7 -13.5 12.0 -20.1 12.9 -24.6 8.35 -29.7 3.2 -30.4 -3.95 -31.3 -0.9 -32.75 1.85 -35.1 6.25 -39.25 4.05 -42.1 2.55 -44.1 -0.1 L-46.65 1.7 Q-67.3 14.9 -83.6 -5.5 -84.25 1.3 -81.5 7.45 -78.7 13.65 -73.15 17.8 L-75.45 19.4 Q-79.45 22.15 -84.05 20.7 -87.8 19.7 -90.4 16.85 L-90.75 18.25 Q-92.3 23.85 -97.55 26.5 -101.55 28.5 -105.85 28.5 L-89.7 33.6 -89.2 34.15 Q-90.15 35.85 -91.75 37.05 -93.25 38.15 -95.2 38.4 L-99.85 38.25 -94.85 40.55 Q-87.1 43.7 -79.15 41.35 L-77.05 43.5 Q-75.6 45.05 -74.5 46.95 -73.4 48.85 -72.9 51.0 -77.3 56.55 -84.35 56.95 -91.6 57.9 -97.75 53.55 L-98.75 53.8 Q-94.45 59.4 -87.65 61.3 -78.65 63.75 -70.5 58.9 L-68.05 66.1 -65.05 65.1 Q-54.55 61.95 -44.4 66.65 L-52.55 72.75 Q-25.5 81.2 2.7 79.0 L4.65 80.85 Q5.95 82.2 6.7 83.95 7.35 85.55 7.55 87.55 L10.1 87.45 13.65 86.3 16.95 84.15 17.5 84.75 57.45 76.35 53.0 73.25 55.1 71.15 Q62.5 63.6 67.65 54.4 74.75 52.25 82.1 53.3 L82.15 52.3 79.6 51.35 Q77.8 50.65 76.4 49.4 75.1 48.2 74.05 46.4 L77.4 43.5 77.7 42.5 100.0 29.0 Q86.65 29.75 91.5 21.35 93.85 18.95 94.3 15.6 94.75 12.25 93.85 7.65 L93.85 2.25" fill="#3e3e3e" fill-rule="evenodd" stroke="none"/>
      <path d="M-137.0 -144.85 L-137.2 -147.85 -137.2 -148.25 -137.2 -151.75 Q-136.3 -162.15 -131.5 -169.65 -122.55 -183.65 -99.8 -188.7 -93.4 -193.35 -84.35 -194.7 -74.45 -196.2 -67.25 -193.0 -62.9 -191.05 -61.0 -187.9 -58.6 -186.0 -55.95 -183.1 L-55.4 -182.5 Q-47.9 -179.75 -42.0 -176.1 L-40.9 -175.4 Q-40.35 -181.05 -36.6 -187.05 -34.5 -190.5 -31.8 -193.35 L-30.15 -199.6 -26.0 -202.95 Q-9.3 -215.1 18.75 -215.1 28.85 -215.1 38.05 -209.75 44.75 -205.85 52.45 -197.95 L55.05 -195.15 57.0 -189.75 58.4 -184.35 Q64.75 -176.05 64.75 -168.35 64.9 -156.55 63.95 -145.9 60.8 -164.1 55.75 -171.05 53.1 -176.1 48.0 -178.0 L46.75 -178.0 Q46.5 -175.75 45.65 -173.35 44.8 -170.8 42.0 -165.5 42.55 -171.55 38.35 -176.75 34.1 -182.0 28.5 -182.0 L21.45 -181.35 17.0 -180.5 11.9 -179.8 Q3.75 -187.25 2.05 -188.3 0.05 -189.5 -3.5 -189.5 -10.75 -189.5 -15.75 -185.95 -19.7 -183.15 -23.5 -177.0 -24.8 -174.85 -27.65 -172.4 L-32.7 -168.25 Q-38.65 -163.05 -38.5 -157.0 L-39.0 -157.0 -41.15 -168.05 -41.8 -172.9 -45.45 -174.45 Q-50.35 -176.5 -53.75 -176.1 -57.2 -175.75 -59.55 -172.45 L-61.5 -169.3 Q-62.3 -181.0 -74.0 -181.0 -81.45 -181.0 -86.5 -176.5 -91.5 -172.1 -91.5 -165.75 L-91.2 -162.65 -90.5 -159.0 Q-93.7 -160.25 -95.95 -157.95 -98.0 -155.85 -97.5 -153.0 -98.85 -154.15 -101.45 -154.4 L-106.0 -154.5 Q-116.45 -154.5 -127.9 -149.15 -133.4 -146.55 -136.9 -143.65 L-137.0 -144.85 M63.95 -145.9 L64.75 -146.35 Q76.35 -152.6 90.5 -152.6 L93.7 -152.45 Q98.35 -153.5 110.95 -154.05 150.4 -148.55 147.0 -109.2 L146.9 -107.45 146.5 -100.85 146.3 -96.9 146.2 -95.65 Q145.4 -99.5 144.2 -101.75 L143.35 -103.1 143.5 -106.25 Q143.5 -114.05 141.2 -121.0 138.35 -129.45 133.5 -131.0 125.35 -135.85 119.05 -126.5 115.25 -135.4 108.0 -133.45 L96.65 -130.75 92.5 -130.0 Q93.4 -133.85 88.6 -137.9 83.75 -142.0 78.0 -142.0 73.0 -142.0 68.55 -139.25 64.1 -136.5 62.5 -136.5 L59.0 -137.0 57.05 -137.3 63.95 -145.9 M135.75 -56.7 L137.85 -55.85 138.5 -55.55 139.6 -55.05 150.0 -45.15 150.05 -45.0 150.1 -44.9 150.4 -44.05 150.5 -43.8 150.55 -43.5 150.65 -43.25 150.75 -42.75 150.85 -42.4 150.9 -42.1 150.95 -41.55 Q152.3 -31.5 153.0 -28.25 153.6 -25.4 149.5 -15.7 L149.55 -19.8 Q149.6 -23.7 148.1 -27.3 146.6 -30.9 145.75 -38.75 144.45 -41.45 140.4 -45.15 136.3 -48.9 131.6 -47.4 L123.6 -45.2 Q117.05 -52.3 109.65 -52.0 120.45 -58.9 135.75 -56.7 M-168.8 -8.35 Q-172.05 -16.05 -173.25 -24.25 -173.25 -42.15 -164.45 -54.45 -157.1 -64.8 -145.1 -69.35 -138.9 -71.7 -133.25 -71.95 -131.75 -77.2 -128.8 -81.3 -126.8 -84.1 -124.2 -86.2 L-124.5 -83.85 -125.0 -80.0 Q-125.0 -78.1 -123.95 -75.55 L-122.0 -70.5 Q-113.8 -70.05 -107.95 -66.5 -103.2 -63.6 -98.65 -57.7 -99.55 -58.65 -102.9 -58.9 L-108.5 -59.0 -115.3 -58.85 Q-119.25 -58.5 -121.0 -57.0 -122.15 -59.85 -126.55 -60.95 -130.95 -62.05 -136.6 -60.5 -142.3 -58.95 -144.1 -57.15 -145.9 -55.4 -146.5 -50.5 -152.95 -50.65 -157.15 -46.95 -161.4 -43.25 -163.5 -37.5 L-164.0 -37.5 Q-166.95 -44.3 -169.0 -38.25 -170.5 -33.9 -170.5 -24.0 -170.5 -16.2 -168.8 -8.35 M50.95 -55.8 Q52.4 -55.2 57.0 -48.0 L62.2 -49.35 67.0 -50.0 Q72.7 -50.0 76.8 -45.75 80.8 -41.65 81.0 -36.0 79.5 -36.75 76.7 -37.35 L72.0 -38.0 Q67.9 -38.0 63.35 -34.45 L56.0 -29.0 Q53.8 -31.9 52.0 -36.95 L49.15 -45.3 Q45.45 -54.55 37.0 -55.0 L34.9 -55.0 Q36.3 -56.0 38.45 -56.5 L45.1 -56.7 50.95 -55.8 M17.3 -79.0 Q20.5 -75.2 25.95 -72.7 32.0 -69.95 32.0 -66.5 L32.0 -64.0 Q31.6 -66.3 28.15 -66.8 L21.0 -67.0 Q18.1 -67.0 12.1 -64.5 6.7 -62.0 6.5 -62.0 L0.5 -63.0 -5.5 -64.0 Q-11.45 -64.0 -18.4 -59.8 -25.8 -55.3 -25.0 -51.0 -28.05 -52.25 -34.0 -54.95 -39.05 -57.0 -42.35 -57.0 -49.6 -57.0 -57.65 -50.9 -64.1 -45.95 -67.85 -40.0 L-66.85 -48.0 Q-63.2 -61.9 -55.85 -61.35 L-55.85 -66.0 Q-52.3 -69.55 -49.7 -75.25 L-45.9 -84.3 Q-43.6 -89.05 -40.35 -91.25 -36.2 -94.0 -29.0 -94.0 L-24.5 -93.8 Q-21.95 -93.3 -20.0 -91.0 -17.1 -96.55 -13.45 -98.35 -9.85 -100.2 -4.05 -100.3 1.7 -100.45 7.15 -96.15 12.6 -91.85 14.45 -86.1 16.3 -80.4 17.3 -79.0" fill="#616161" fill-rule="evenodd" stroke="none"/>
      <path d="M89.2 14.3 Q81.0 17.1 74.2 11.7 L72.75 10.5 67.0 13.05 67.3 17.3 Q67.3 20.2 64.3 24.5 60.45 30.05 55.0 30.05 L50.6 29.8 47.9 33.4 50.25 35.15 56.05 35.3 51.1 39.6 Q48.35 41.0 40.5 41.0 L39.55 40.95 Q33.9 45.45 27.0 46.75 L28.75 49.05 Q32.65 52.5 40.0 53.3 40.85 54.1 42.0 54.4 L37.45 55.35 Q24.5 58.0 22.6 56.25 18.55 59.55 13.4 61.0 17.5 64.35 20.2 67.75 18.7 69.95 17.6 70.9 15.1 73.1 11.7 72.55 L14.1 74.85 Q16.95 77.0 21.0 77.0 L23.3 76.9 Q24.05 76.75 24.5 76.3 L25.0 79.75 27.9 77.7 43.75 73.25 43.65 72.55 43.55 72.75 Q43.15 72.15 41.0 71.8 L41.3 71.5 Q44.9 69.0 46.8 65.3 48.2 62.45 48.8 58.5 49.5 53.8 55.15 51.75 L59.8 50.15 Q61.55 49.45 62.75 48.5 L63.5 48.55 64.5 48.4 64.75 48.05 64.55 47.75 63.75 47.55 63.25 46.8 61.9 46.95 Q59.6 46.0 58.35 44.55 57.3 43.3 56.55 40.55 L56.8 40.55 59.7 41.1 62.6 41.5 Q65.75 41.5 69.0 39.45 74.7 40.25 81.4 36.6 85.3 34.4 88.75 31.75 85.5 24.05 88.45 16.2 L89.2 14.3 M93.85 2.25 L93.85 7.65 Q94.75 12.25 94.3 15.6 93.85 18.95 91.5 21.35 86.65 29.75 100.0 29.0 L77.7 42.5 77.4 43.5 74.05 46.4 Q75.1 48.2 76.4 49.4 77.8 50.65 79.6 51.35 L82.15 52.3 82.1 53.3 Q74.75 52.25 67.65 54.4 62.5 63.6 55.1 71.15 L53.0 73.25 57.45 76.35 17.5 84.75 16.95 84.15 13.65 86.3 10.1 87.45 7.55 87.55 Q7.35 85.55 6.7 83.95 5.95 82.2 4.65 80.85 L2.7 79.0 Q-25.5 81.2 -52.55 72.75 L-44.4 66.65 Q-54.55 61.95 -65.05 65.1 L-68.05 66.1 -70.5 58.9 Q-78.65 63.75 -87.65 61.3 -94.45 59.4 -98.75 53.8 L-97.75 53.55 Q-91.6 57.9 -84.35 56.95 -77.3 56.55 -72.9 51.0 -73.4 48.85 -74.5 46.95 -75.6 45.05 -77.05 43.5 L-79.15 41.35 Q-87.1 43.7 -94.85 40.55 L-99.85 38.25 -95.2 38.4 Q-93.25 38.15 -91.75 37.05 -90.15 35.85 -89.2 34.15 L-89.7 33.6 -105.85 28.5 Q-101.55 28.5 -97.55 26.5 -92.3 23.85 -90.75 18.25 L-90.4 16.85 Q-87.8 19.7 -84.05 20.7 -79.45 22.15 -75.45 19.4 L-73.15 17.8 Q-78.7 13.65 -81.5 7.45 -84.25 1.3 -83.6 -5.5 -67.3 14.9 -46.65 1.7 L-44.1 -0.1 Q-42.1 2.55 -39.25 4.05 -35.1 6.25 -32.75 1.85 -31.3 -0.9 -30.4 -3.95 -29.7 3.2 -24.6 8.35 -20.1 12.9 -13.5 12.0 -9.65 16.7 -3.05 20.55 3.55 24.35 15.05 22.2 22.6 19.25 28.25 12.85 L30.75 10.1 39.25 17.25 Q59.05 18.55 74.0 4.0 L79.25 10.5 Q82.6 10.7 86.0 9.7 89.25 8.8 93.85 2.25 M23.25 44.45 L24.3 43.15 26.45 46.0 Q28.95 44.15 31.25 41.75 21.8 41.25 15.5 34.2 L19.05 35.25 Q24.25 36.5 28.5 33.5 31.3 33.95 34.0 33.5 37.15 33.1 39.85 31.45 46.5 27.2 47.8 19.55 48.05 21.6 48.05 20.3 L47.95 19.45 47.8 19.55 45.35 20.8 Q43.7 21.65 42.0 22.0 34.65 22.35 31.5 15.3 L30.55 16.75 Q27.0 22.55 21.05 25.8 14.85 29.15 7.75 28.0 -3.1 25.95 -12.05 19.4 L-13.5 19.55 -13.65 20.7 -19.25 20.55 Q-27.55 18.65 -30.5 10.55 -39.35 15.4 -44.0 8.55 -47.65 10.9 -51.85 12.0 -64.5 15.15 -75.1 7.35 -73.9 11.6 -71.35 15.2 -63.9 25.8 -50.85 24.25 L-52.25 26.45 -53.5 26.75 Q-48.15 28.3 -36.75 26.9 L-44.65 32.05 Q-32.75 37.95 -19.6 35.75 -20.7 37.95 -22.35 39.7 -24.2 41.65 -26.7 42.4 -33.05 44.15 -38.25 39.85 -43.3 41.95 -48.3 36.65 -53.3 37.3 -58.3 36.7 -73.3 34.85 -85.5 25.0 L-89.25 28.45 Q-79.4 32.9 -72.1 41.85 -66.35 48.95 -63.7 57.6 -55.0 62.2 -46.25 55.8 -36.3 60.1 -27.9 56.05 L-29.0 57.3 Q-34.7 62.65 -42.9 61.85 -34.05 65.1 -38.8 71.1 L-16.15 72.4 -13.15 74.35 Q-9.15 76.2 -4.75 75.2 -2.85 74.75 -1.5 73.35 1.7 70.2 5.05 67.65 L4.5 67.5 1.8 68.3 Q-1.05 69.1 -3.6 67.7 -6.3 66.2 -8.6 64.0 L-3.75 64.15 Q3.05 64.75 8.0 60.75 1.2 59.3 -1.4 58.25 -9.05 55.0 -10.25 46.5 -6.3 48.9 -1.85 50.4 3.4 52.25 8.85 52.1 16.8 51.65 22.9 44.8 L23.75 44.6 23.25 44.45" fill="#844823" fill-rule="evenodd" stroke="none"/>
      <path d="M89.2 14.3 L88.45 16.2 Q85.5 24.05 88.75 31.75 85.3 34.4 81.4 36.6 74.7 40.25 69.0 39.45 65.75 41.5 62.6 41.5 L59.7 41.1 56.8 40.55 56.55 40.55 Q57.3 43.3 58.35 44.55 59.6 46.0 61.9 46.95 L63.25 46.8 63.75 47.55 64.55 47.75 64.75 48.05 64.5 48.4 63.5 48.55 62.75 48.5 Q61.55 49.45 59.8 50.15 L55.15 51.75 Q49.5 53.8 48.8 58.5 48.2 62.45 46.8 65.3 44.9 69.0 41.3 71.5 L41.0 71.8 Q43.15 72.15 43.55 72.75 L43.65 72.55 43.75 73.25 27.9 77.7 25.0 79.75 24.5 76.3 Q24.05 76.75 23.3 76.9 L21.0 77.0 Q16.95 77.0 14.1 74.85 L11.7 72.55 Q15.1 73.1 17.6 70.9 18.7 69.95 20.2 67.75 17.5 64.35 13.4 61.0 18.55 59.55 22.6 56.25 24.5 58.0 37.45 55.35 L42.0 54.4 Q40.85 54.1 40.0 53.3 32.65 52.5 28.75 49.05 L27.0 46.75 Q33.9 45.45 39.55 40.95 L40.5 41.0 Q48.35 41.0 51.1 39.6 L56.05 35.3 50.25 35.15 47.9 33.4 50.6 29.8 55.0 30.05 Q60.45 30.05 64.3 24.5 67.3 20.2 67.3 17.3 L67.0 13.05 72.75 10.5 74.2 11.7 Q81.0 17.1 89.2 14.3 M82.2 19.25 L82.55 19.25 82.35 20.35 82.2 19.25 M84.8 31.5 Q81.05 24.75 83.9 17.85 77.95 18.6 72.95 15.5 L71.8 14.85 70.55 14.8 Q71.55 25.15 63.7 30.95 61.95 32.2 59.7 31.75 L59.05 32.9 Q71.75 39.45 84.55 32.25 L84.8 31.5 M22.9 44.8 Q16.8 51.65 8.85 52.1 3.4 52.25 -1.85 50.4 -6.3 48.9 -10.25 46.5 -9.05 55.0 -1.4 58.25 1.2 59.3 8.0 60.75 3.05 64.75 -3.75 64.15 L-8.6 64.0 Q-6.3 66.2 -3.6 67.7 -1.05 69.1 1.8 68.3 L4.5 67.5 5.05 67.65 Q1.7 70.2 -1.5 73.35 -2.85 74.75 -4.75 75.2 -9.15 76.2 -13.15 74.35 L-16.15 72.4 -38.8 71.1 Q-34.05 65.1 -42.9 61.85 -34.7 62.65 -29.0 57.3 L-27.9 56.05 Q-36.3 60.1 -46.25 55.8 -55.0 62.2 -63.7 57.6 -66.35 48.95 -72.1 41.85 -79.4 32.9 -89.25 28.45 L-85.5 25.0 Q-73.3 34.85 -58.3 36.7 -53.3 37.3 -48.3 36.65 -43.3 41.95 -38.25 39.85 -33.05 44.15 -26.7 42.4 -24.2 41.65 -22.35 39.7 -20.7 37.95 -19.6 35.75 -32.75 37.95 -44.65 32.05 L-36.75 26.9 Q-48.15 28.3 -53.5 26.75 L-52.25 26.45 -50.85 24.25 Q-63.9 25.8 -71.35 15.2 -73.9 11.6 -75.1 7.35 -64.5 15.15 -51.85 12.0 -47.65 10.9 -44.0 8.55 -39.35 15.4 -30.5 10.55 -27.55 18.65 -19.25 20.55 L-13.65 20.7 -13.5 19.55 -12.05 19.4 Q-3.1 25.95 7.75 28.0 14.85 29.15 21.05 25.8 27.0 22.55 30.55 16.75 L31.5 15.3 Q34.65 22.35 42.0 22.0 43.7 21.65 45.35 20.8 L47.8 19.55 47.95 19.45 48.05 20.3 Q48.05 21.6 47.8 19.55 46.5 27.2 39.85 31.45 37.15 33.1 34.0 33.5 31.3 33.95 28.5 33.5 24.25 36.5 19.05 35.25 L15.5 34.2 Q21.8 41.25 31.25 41.75 28.95 44.15 26.45 46.0 L24.3 43.15 23.25 44.45 Q14.1 41.4 11.55 32.75 15.85 33.15 23.3 29.95 33.75 34.8 41.5 25.85 L42.0 25.0 Q36.2 26.4 31.6 23.2 L30.6 22.35 22.1 28.95 Q2.15 32.45 -11.9 24.15 L-12.5 25.0 Q-22.3 26.55 -28.8 19.7 L-31.5 15.05 Q-34.25 18.3 -40.4 15.15 -43.75 13.45 -45.05 12.45 L-46.1 13.5 -51.2 14.95 -57.9 15.55 Q-60.7 15.3 -61.45 15.6 -62.25 15.8 -60.25 16.3 -49.85 21.85 -43.6 21.05 -37.5 25.65 -30.1 23.4 -31.25 28.1 -37.25 30.55 -26.85 34.65 -16.0 32.8 L-19.35 42.7 -24.95 46.75 Q-39.7 48.6 -49.35 41.3 -59.85 43.25 -70.85 36.8 L-60.75 52.7 Q-56.0 57.15 -45.75 50.95 -30.7 56.3 -26.35 49.5 -20.2 58.55 -28.95 63.3 -30.4 64.15 -32.1 64.5 -25.35 71.55 -16.85 67.05 -14.6 69.25 -11.6 69.8 L-7.4 70.25 -10.35 69.3 -15.85 63.85 -14.9 59.05 -4.6 59.55 -8.85 57.8 Q-19.7 50.35 -12.0 39.55 1.7 49.45 22.9 44.8 M43.3 43.45 Q40.1 44.0 38.15 46.65 L37.75 47.25 32.05 47.3 33.35 50.15 Q38.85 53.15 45.1 52.05 L46.85 51.55 Q39.05 63.4 20.6 64.15 25.6 67.8 27.5 73.65 L28.0 75.3 Q39.9 71.25 45.5 60.15 L49.3 51.05 Q54.5 50.2 58.75 47.3 L53.5 40.0 Q50.7 42.75 46.9 43.4 45.1 43.7 43.3 43.45 M49.3 51.05 Q48.65 56.65 49.1 53.3 L49.2 52.2 49.3 51.05" fill="#ffcc00" fill-rule="evenodd" stroke="none"/>
      <path d="M84.8 31.5 L84.55 32.25 Q71.75 39.45 59.05 32.9 L59.7 31.75 Q61.95 32.2 63.7 30.95 71.55 25.15 70.55 14.8 L71.8 14.85 72.95 15.5 Q77.95 18.6 83.9 17.85 81.05 24.75 84.8 31.5 M82.2 19.25 L82.35 20.35 82.55 19.25 82.2 19.25 M80.05 21.0 L73.55 19.95 72.75 20.3 Q72.25 24.5 70.65 28.5 69.65 30.95 67.0 31.5 70.8 32.85 74.75 32.55 78.6 33.15 81.25 30.3 80.05 28.4 79.65 26.1 79.25 23.55 80.05 21.0 M23.25 44.45 L23.75 44.6 22.9 44.8 Q1.7 49.45 -12.0 39.55 -19.7 50.35 -8.85 57.8 L-4.6 59.55 -14.9 59.05 -15.85 63.85 -10.35 69.3 -7.4 70.25 -11.6 69.8 Q-14.6 69.25 -16.85 67.05 -25.35 71.55 -32.1 64.5 -30.4 64.15 -28.95 63.3 -20.2 58.55 -26.35 49.5 -30.7 56.3 -45.75 50.95 -56.0 57.15 -60.75 52.7 L-70.85 36.8 Q-59.85 43.25 -49.35 41.3 -39.7 48.6 -24.95 46.75 L-19.35 42.7 -16.0 32.8 Q-26.85 34.65 -37.25 30.55 -31.25 28.1 -30.1 23.4 -37.5 25.65 -43.6 21.05 -49.85 21.85 -60.25 16.3 -62.25 15.8 -61.45 15.6 -60.7 15.3 -57.9 15.55 L-51.2 14.95 -46.1 13.5 -45.05 12.45 Q-43.75 13.45 -40.4 15.15 -34.25 18.3 -31.5 15.05 L-28.8 19.7 Q-22.3 26.55 -12.5 25.0 L-11.9 24.15 Q2.15 32.45 22.1 28.95 L30.6 22.35 31.6 23.2 Q36.2 26.4 42.0 25.0 L41.5 25.85 Q33.75 34.8 23.3 29.95 15.85 33.15 11.55 32.75 14.1 41.4 23.25 44.45 M43.3 43.45 Q45.1 43.7 46.9 43.4 50.7 42.75 53.5 40.0 L58.75 47.3 Q54.5 50.2 49.3 51.05 L45.5 60.15 Q39.9 71.25 28.0 75.3 L27.5 73.65 Q25.6 67.8 20.6 64.15 39.05 63.4 46.85 51.55 L45.1 52.05 Q38.85 53.15 33.35 50.15 L32.05 47.3 37.75 47.25 38.15 46.65 Q40.1 44.0 43.3 43.45 M28.75 66.5 L28.55 67.5 31.25 71.3 Q37.1 69.45 40.65 64.4 L41.6 62.9 43.2 60.5 42.75 59.3 28.75 66.5 M15.55 43.85 L13.95 43.0 Q8.35 39.75 5.85 33.95 L5.25 32.3 1.75 32.35 Q-5.55 31.7 -10.75 26.7 -19.25 27.9 -27.0 25.05 L-28.75 28.7 Q-21.9 31.0 -14.45 29.7 -5.15 47.0 15.55 43.85 M43.75 44.85 L41.55 44.3 37.5 48.85 42.0 50.3 54.55 47.5 53.25 43.3 50.05 44.7 43.75 44.85 M49.3 51.05 L49.2 52.2 49.1 53.3 Q48.65 56.65 49.3 51.05 M-48.5 45.75 L-51.0 44.3 -63.45 42.9 -60.1 47.2 Q-55.85 53.8 -49.8 48.5 -38.75 51.4 -33.0 49.0 L-48.5 45.75 M-31.75 19.85 L-31.85 19.05 -32.0 19.0 -38.65 18.15 -42.35 18.0 Q-41.5 19.1 -38.35 20.2 -35.35 21.25 -33.5 21.25 -31.75 21.25 -31.75 19.85 M-15.5 57.5 L-18.75 49.05 -21.75 50.2 Q-18.75 53.15 -20.35 56.55 -22.55 61.3 -27.5 64.0 L-25.75 64.3 -24.1 64.65 -21.65 64.8 Q-19.8 64.4 -18.6 62.8 L-18.6 56.25 -15.5 57.5" fill="#ffff00" fill-rule="evenodd" stroke="none"/>
      <path d="M80.05 21.0 Q79.25 23.55 79.65 26.1 80.05 28.4 81.25 30.3 78.6 33.15 74.75 32.55 70.8 32.85 67.0 31.5 69.65 30.95 70.65 28.5 72.25 24.5 72.75 20.3 L73.55 19.95 80.05 21.0 M43.75 44.85 L50.05 44.7 53.25 43.3 54.55 47.5 42.0 50.3 37.5 48.85 41.55 44.3 43.75 44.85 M15.55 43.85 Q-5.15 47.0 -14.45 29.7 -21.9 31.0 -28.75 28.7 L-27.0 25.05 Q-19.25 27.9 -10.75 26.7 -5.55 31.7 1.75 32.35 L5.25 32.3 5.85 33.95 Q8.35 39.75 13.95 43.0 L15.55 43.85 M28.75 66.5 L42.75 59.3 43.2 60.5 41.6 62.9 40.65 64.4 Q37.1 69.45 31.25 71.3 L28.55 67.5 28.75 66.5 M-31.75 19.85 Q-31.75 21.25 -33.5 21.25 -35.35 21.25 -38.35 20.2 -41.5 19.1 -42.35 18.0 L-38.65 18.15 -32.0 19.0 -31.85 19.05 -31.75 19.85 M-48.5 45.75 L-33.0 49.0 Q-38.75 51.4 -49.8 48.5 -55.85 53.8 -60.1 47.2 L-63.45 42.9 -51.0 44.3 -48.5 45.75 M-15.5 57.5 L-18.6 56.25 -18.6 62.8 Q-19.8 64.4 -21.65 64.8 L-24.1 64.65 -25.75 64.3 -27.5 64.0 Q-22.55 61.3 -20.35 56.55 -18.75 53.15 -21.75 50.2 L-18.75 49.05 -15.5 57.5" fill="#ffffff" fill-rule="evenodd" stroke="none"/>
    </g>
  </defs>
</svg>
