<?xml version="1.0" encoding="UTF-8" standalone="no"?>
<svg xmlns:ffdec="https://www.free-decompiler.com/flash" xmlns:xlink="http://www.w3.org/1999/xlink" ffdec:objectType="frame" height="19.6px" width="14.7px" xmlns="http://www.w3.org/2000/svg">
  <g transform="matrix(1.0, 0.0, 0.0, 1.0, 7.35, 9.8)">
    <use ffdec:characterId="2054" height="19.6" transform="matrix(1.0, 0.0, 0.0, 1.0, -7.35, -9.8)" width="14.7" xlink:href="#shape0"/>
  </g>
  <defs>
    <g id="shape0" transform="matrix(1.0, 0.0, 0.0, 1.0, 7.35, 9.8)">
      <path d="M4.7 -8.2 L3.05 -8.15 -0.2 -7.45 -2.5 -7.1 -3.3 -6.45 -2.45 -5.75 Q-2.4 -5.55 -2.5 -5.45 -2.85 -4.9 -3.45 -5.1 L-3.85 -5.4 -4.4 -6.05 -5.35 -6.25 -5.4 -6.9 -5.15 -7.25 Q-3.85 -8.5 -2.1 -8.95 L-0.9 -9.25 1.4 -9.0 1.6 -8.65 4.3 -8.85 Q4.8 -8.7 4.7 -8.2 M-0.3 -7.3 Q-0.1 -7.35 0.15 -7.05 L0.65 -6.05 Q0.9 -5.15 1.45 -4.85 L1.95 -4.15 Q1.95 -3.55 1.55 -3.35 L1.15 -3.3 Q0.35 -3.3 0.1 -3.85 L0.0 -4.4 0.25 -5.3 -0.15 -6.1 -0.75 -6.9 -0.3 -7.3 M-5.05 -0.1 L-3.1 -0.4 -1.3 -0.4 Q-0.25 -0.3 -0.25 0.2 L-0.25 0.65 -0.3 0.95 Q-0.4 1.85 -0.8 2.0 L-0.9 2.05 Q-1.3 2.45 -1.75 2.45 L-2.3 2.2 -2.4 1.95 -3.55 1.8 Q-3.05 1.5 -2.75 1.5 L-2.25 1.55 -1.85 1.15 -1.85 0.6 -1.9 0.55 -2.65 0.8 -4.4 1.0 -4.55 1.85 -4.55 1.9 -4.1 2.3 -3.1 3.5 Q-1.95 4.95 -0.8 6.75 L-0.4 7.05 -0.25 7.55 -0.25 8.3 -0.05 8.35 -0.15 8.7 -0.05 8.8 0.35 9.05 0.5 9.05 -0.75 9.15 Q-1.35 7.5 -2.2 6.25 -3.55 4.3 -5.25 2.7 L-5.65 2.9 -5.25 3.55 -6.8 2.0 -5.9 1.35 -5.85 0.3 -5.5 0.05 -5.05 -0.1" fill="#ff0000" fill-rule="evenodd" stroke="none"/>
      <path d="M5.5 -9.4 L5.65 -9.25 5.2 -8.65 4.7 -8.2 Q4.8 -8.7 4.3 -8.85 L1.6 -8.65 1.4 -9.0 1.45 -9.0 2.85 -9.3 Q3.2 -9.85 4.15 -9.8 L5.5 -9.4 M-0.2 -7.45 L-0.3 -7.3 -0.75 -6.9 -0.15 -6.1 0.25 -5.3 0.0 -4.4 0.1 -3.85 Q0.35 -3.3 1.15 -3.3 L1.55 -3.35 1.45 -3.15 Q1.05 -2.4 0.6 -2.4 -0.2 -2.4 -0.5 -3.0 L-0.65 -3.6 -0.45 -5.05 -0.65 -5.65 -0.9 -6.4 -0.85 -6.8 -1.3 -6.45 -2.45 -5.75 -3.3 -6.45 -2.5 -7.1 -0.2 -7.45 M-3.85 -5.4 L-4.2 -5.4 -4.4 -5.4 -6.1 -5.45 -6.25 -5.55 -6.4 -5.7 -6.0 -6.1 -5.55 -6.65 -5.55 -7.05 -5.25 -7.55 -5.2 -7.55 Q-4.8 -9.1 -3.1 -9.1 L-2.2 -9.0 -2.1 -8.95 Q-3.85 -8.5 -5.15 -7.25 L-5.4 -6.9 -5.35 -6.25 -4.4 -6.05 -3.85 -5.4 M-0.3 0.95 L-0.2 1.35 -0.3 2.6 Q-0.6 3.55 -1.7 3.55 -2.5 3.55 -3.5 2.05 L-4.1 2.3 -4.55 1.9 -4.55 1.85 -4.4 1.0 -2.65 0.8 -1.9 0.55 -1.85 0.6 -1.85 1.15 -2.25 1.55 -2.75 1.5 Q-3.05 1.5 -3.55 1.8 L-2.4 1.95 -2.3 2.2 -1.75 2.45 Q-1.3 2.45 -0.9 2.05 L-0.8 2.0 Q-0.4 1.85 -0.3 0.95 M-0.25 7.55 L-0.05 7.8 -0.05 8.35 Q0.55 8.35 0.95 8.65 1.35 8.9 1.35 9.3 L1.0 9.6 -0.4 9.6 -0.85 9.8 -2.5 8.2 Q-5.6 8.35 -6.65 5.4 L-6.4 4.05 Q-7.5 3.15 -7.35 1.8 -6.6 0.9 -7.1 -0.05 -7.45 -0.75 -7.0 -1.45 -6.4 -1.45 -5.95 -1.0 -5.5 -0.55 -5.5 0.05 L-5.85 0.3 -5.9 1.35 -6.8 2.0 -5.25 3.55 -5.65 2.9 -5.25 2.7 Q-3.55 4.3 -2.2 6.25 -1.35 7.5 -0.75 9.15 L0.5 9.05 0.35 9.05 -0.05 8.8 -0.15 8.7 -0.05 8.35 -0.25 8.3 -0.25 7.55" fill="#990000" fill-rule="evenodd" stroke="none"/>
      <path d="M4.7 -8.2 L5.2 -8.65 5.65 -9.25 5.5 -9.4 5.85 -9.5 6.1 -9.15 6.1 -5.3 5.95 -4.95 6.25 -3.95 5.75 -2.15 5.2 -0.85 6.25 1.35 Q7.3 3.65 7.3 5.1 L7.35 5.25 7.1 6.9 5.9 6.2 5.35 6.0 4.6 6.0 3.2 5.9 3.25 5.85 3.15 5.85 3.35 5.5 3.9 4.5 3.0 5.2 Q2.3 5.8 2.3 6.05 L1.35 8.2 2.3 7.4 2.9 6.45 2.95 6.2 3.05 6.7 3.05 6.75 3.1 6.9 3.5 7.85 3.95 8.65 Q2.85 8.75 2.25 9.1 L2.15 9.2 1.35 9.3 Q1.35 8.9 0.95 8.65 0.55 8.35 -0.05 8.35 L-0.05 7.8 -0.25 7.55 -0.4 7.05 -0.8 6.75 Q-1.95 4.95 -3.1 3.5 L-4.1 2.3 -3.5 2.05 Q-2.5 3.55 -1.7 3.55 -0.6 3.55 -0.3 2.6 L-0.2 1.35 -0.3 0.95 -0.25 0.65 0.35 1.05 2.45 2.3 Q3.1 2.3 4.0 1.0 4.8 -0.15 4.8 -0.7 L4.7 -1.3 4.95 -1.8 Q4.75 -2.1 4.55 -2.05 1.4 -2.65 -1.3 -1.5 L-0.3 -0.9 -1.3 -0.4 -3.1 -0.4 -5.05 -0.1 -4.85 -0.5 Q-3.75 -2.4 -4.85 -3.95 L-4.4 -5.4 -4.2 -5.4 -3.85 -5.4 -3.45 -5.1 Q-2.85 -4.9 -2.5 -5.45 -2.4 -5.55 -2.45 -5.75 L-1.3 -6.45 -0.85 -6.8 -0.9 -6.4 -0.65 -5.65 -0.45 -5.05 -0.65 -3.6 -0.5 -3.0 Q-0.2 -2.4 0.6 -2.4 1.05 -2.4 1.45 -3.15 L1.55 -3.35 Q1.95 -3.55 1.95 -4.15 L1.45 -4.85 Q0.9 -5.15 0.65 -6.05 L0.15 -7.05 Q-0.1 -7.35 -0.3 -7.3 L-0.2 -7.45 3.05 -8.15 4.7 -8.2" fill="#ffcc99" fill-rule="evenodd" stroke="none"/>
      <path d="M-4.4 -5.4 L-4.85 -3.95 Q-3.75 -2.4 -4.85 -0.5 L-5.05 -0.1 -5.5 0.05 Q-5.5 -0.55 -5.95 -1.0 -6.4 -1.45 -7.0 -1.45 L-7.2 -1.95 -7.25 -2.2 -7.35 -4.65 -7.25 -5.5 -6.25 -5.55 -6.1 -5.45 -4.4 -5.4 M-0.3 -0.9 L-1.3 -1.5 Q1.4 -2.65 4.55 -2.05 4.75 -2.1 4.95 -1.8 L4.7 -1.3 -0.3 -0.9" fill="#4f3d31" fill-rule="evenodd" stroke="none"/>
      <path d="M-1.3 -0.4 L-0.3 -0.9 4.7 -1.3 4.8 -0.7 Q4.8 -0.15 4.0 1.0 3.1 2.3 2.45 2.3 L0.35 1.05 -0.25 0.65 -0.25 0.2 Q-0.25 -0.3 -1.3 -0.4 M1.35 9.3 L2.15 9.2 2.25 9.1 Q2.85 8.75 3.95 8.65 L3.5 7.85 3.1 6.9 3.05 6.75 3.05 6.7 2.95 6.2 3.15 5.85 3.25 5.85 3.2 5.9 4.6 6.0 5.35 6.0 5.9 6.2 7.1 6.9 6.65 7.2 6.0 7.2 4.65 6.85 4.4 8.15 4.3 8.45 4.3 8.55 4.2 8.85 4.15 8.85 4.15 9.0 3.9 9.55 3.8 9.55 3.0 9.45 2.9 9.5 2.0 9.65 1.6 9.65 1.45 9.65 1.15 9.6 1.0 9.6 1.35 9.3 M3.4 -0.6 L3.05 -0.45 1.3 0.05 1.45 0.3 Q2.15 0.15 2.35 0.6 L2.8 1.05 2.95 1.0 3.35 0.0 3.5 -0.4 3.4 -0.6" fill="#c79b68" fill-rule="evenodd" stroke="none"/>
      <path d="M3.4 -0.6 L3.5 -0.4 3.35 0.0 2.95 1.0 2.8 1.05 2.35 0.6 Q2.15 0.15 1.45 0.3 L1.3 0.05 3.05 -0.45 3.4 -0.6" fill="#000000" fill-rule="evenodd" stroke="none"/>
      <path d="M2.95 6.2 L2.9 6.45 2.3 7.4 1.35 8.2 2.3 6.05 Q2.3 5.8 3.0 5.2 L3.9 4.5 3.35 5.5 3.15 5.85 2.95 6.2" fill="#ebbb98" fill-rule="evenodd" stroke="none"/>
    </g>
  </defs>
</svg>
