<?xml version="1.0" encoding="UTF-8" standalone="no"?>
<svg xmlns:ffdec="https://www.free-decompiler.com/flash" xmlns:xlink="http://www.w3.org/1999/xlink" ffdec:objectType="frame" height="48.15px" width="17.2px" xmlns="http://www.w3.org/2000/svg">
  <g transform="matrix(1.0, 0.0, 0.0, 1.0, 8.65, 25.9)">
    <use ffdec:characterId="2008" height="48.15" transform="matrix(1.0, 0.0, 0.0, 1.0, -8.65, -25.9)" width="17.2" xlink:href="#shape0"/>
  </g>
  <defs>
    <g id="shape0" transform="matrix(1.0, 0.0, 0.0, 1.0, 8.65, 25.9)">
      <path d="M3.8 -21.15 L5.45 -22.4 Q4.65 -20.0 5.3 -17.6 L5.75 -16.1 6.85 -17.75 7.9 -18.9 8.55 -19.3 8.25 -17.6 7.55 -15.75 7.1 -14.9 6.95 -14.5 6.65 -13.65 6.4 -11.5 6.45 -10.1 Q6.25 -7.3 5.7 -5.7 5.4 -4.75 5.5 0.0 L4.0 -6.0 Q3.0 -2.55 3.0 -1.1 3.0 1.45 3.65 4.45 L3.7 5.1 3.8 7.65 3.9 10.0 Q3.95 10.7 4.7 11.25 L5.65 11.9 5.75 12.0 5.85 12.45 5.7 15.6 5.75 16.25 5.15 18.0 4.9 17.95 4.9 17.6 4.25 16.85 3.2 15.6 Q2.8 14.95 2.4 14.95 1.95 14.95 1.05 13.55 L0.65 8.8 0.75 7.8 0.25 5.6 -0.25 4.25 -0.05 3.15 0.2 2.65 1.7 6.25 1.9 6.0 1.1 1.05 1.0 0.5 1.75 -2.5 2.95 -9.7 2.85 -11.0 4.85 -14.0 5.7 -14.9 Q5.95 -16.5 4.4 -16.9 L4.15 -16.9 4.0 -17.05 Q4.0 -18.05 3.55 -18.75 3.1 -19.45 2.5 -19.45 L2.7 -19.75 3.1 -20.3 3.55 -20.5 3.75 -21.1 3.8 -21.15 M-5.9 18.35 L-6.2 18.05 -6.15 16.6 -6.15 16.55 -6.05 16.2 -5.85 13.45 Q-5.65 10.7 -6.1 9.1 -6.55 7.45 -6.5 3.7 -6.45 -0.05 -6.75 -2.05 L-7.2 -9.4 -7.25 -13.3 -7.25 -13.4 -7.25 -14.0 Q-7.35 -16.35 -7.8 -18.0 L-8.65 -21.75 -7.8 -21.85 -6.05 -20.8 Q-6.6 -21.65 -5.95 -22.8 -5.0 -24.35 -5.55 -25.9 L-4.3 -24.55 -2.15 -22.25 -2.0 -22.05 -1.65 -21.55 -1.6 -21.6 -1.4 -21.45 1.3 -18.6 2.35 -14.45 2.1 -13.9 2.2 -13.4 2.15 -13.4 Q1.4 -15.15 0.0 -16.9 L-0.25 -17.2 -0.25 -17.7 -0.75 -19.2 -2.35 -19.7 Q-3.85 -19.65 -4.35 -18.3 -5.1 -17.15 -5.0 -15.8 L-4.9 -15.25 Q-5.5 -13.35 -5.5 -9.95 -5.5 -6.25 -3.1 -5.7 L-4.45 -3.65 Q-5.35 -2.35 -5.35 -1.45 -5.35 -0.8 -5.0 -0.5 L-4.45 -0.3 -4.5 -0.2 Q-4.7 1.65 -4.35 3.85 -4.35 5.35 -3.7 5.8 -3.1 6.25 -3.1 7.7 L-3.9 11.25 Q-4.75 14.1 -4.75 15.2 -6.15 17.7 -5.9 18.35 M5.5 -14.25 L5.6 -14.5 5.4 -14.5 5.5 -14.25" fill="#b74040" fill-rule="evenodd" stroke="none"/>
      <path d="M-2.0 -22.05 L-1.75 -22.8 -1.5 -22.95 -0.6 -23.0 Q0.15 -23.95 1.5 -23.55 3.2 -23.2 3.35 -21.85 L3.2 -21.75 1.4 -21.75 Q0.45 -21.7 -0.3 -22.2 L-1.6 -21.6 -1.65 -21.55 -2.0 -22.05 M2.5 -19.45 Q3.1 -19.45 3.55 -18.75 4.0 -18.05 4.0 -17.05 L4.15 -16.9 4.4 -16.9 Q5.95 -16.5 5.7 -14.9 L4.85 -14.0 2.75 -12.75 2.2 -13.4 2.1 -13.9 2.35 -14.45 3.0 -16.1 2.6 -16.45 Q1.65 -17.55 1.55 -19.1 L1.7 -19.3 2.5 -19.45 M-4.35 -18.3 Q-3.85 -19.65 -2.35 -19.7 L-0.75 -19.2 -0.25 -17.7 -0.55 -17.15 Q-1.1 -16.25 -2.0 -15.9 -3.25 -15.35 -4.3 -16.15 L-4.35 -18.3" fill="#ff0000" fill-rule="evenodd" stroke="none"/>
      <path d="M3.35 -21.85 L3.75 -21.2 3.75 -21.1 3.55 -20.5 3.1 -20.3 -1.4 -21.45 -1.6 -21.6 -0.3 -22.2 Q0.45 -21.7 1.4 -21.75 L3.2 -21.75 3.35 -21.85 M4.85 -14.0 L2.85 -11.0 1.9 -11.4 1.75 -11.75 Q1.6 -12.75 2.15 -13.4 L2.2 -13.4 2.75 -12.75 4.85 -14.0 M1.3 -18.6 L1.55 -19.1 Q1.65 -17.55 2.6 -16.45 L3.0 -16.1 2.35 -14.45 1.3 -18.6 M-0.25 -17.2 Q-0.6 -15.25 -2.25 -14.1 L-2.75 -14.05 Q-4.25 -13.9 -4.9 -15.25 L-5.0 -15.8 Q-5.1 -17.15 -4.35 -18.3 L-4.3 -16.15 Q-3.25 -15.35 -2.0 -15.9 -1.1 -16.25 -0.55 -17.15 L-0.25 -17.7 -0.25 -17.2" fill="#990000" fill-rule="evenodd" stroke="none"/>
      <path d="M3.75 -21.2 L3.8 -21.15 3.75 -21.1 3.75 -21.2 M3.1 -20.3 L2.7 -19.75 2.5 -19.45 1.7 -19.3 1.55 -19.1 1.3 -18.6 -1.4 -21.45 3.1 -20.3" fill="#ffcc99" fill-rule="evenodd" stroke="none"/>
      <path d="M5.15 18.0 L4.9 18.3 Q3.6 21.5 0.35 22.2 L-0.5 22.25 Q-4.1 22.1 -5.7 18.55 L-5.9 18.35 Q-6.15 17.7 -4.75 15.2 -4.75 14.1 -3.9 11.25 L-3.1 7.7 Q-3.1 6.25 -3.7 5.8 -4.35 5.35 -4.35 3.85 -4.7 1.65 -4.5 -0.2 L-4.45 -0.3 -5.0 -0.5 Q-5.35 -0.8 -5.35 -1.45 -5.35 -2.35 -4.45 -3.65 L-3.1 -5.7 Q-5.5 -6.25 -5.5 -9.95 -5.5 -13.35 -4.9 -15.25 -4.25 -13.9 -2.75 -14.05 L-2.25 -14.1 Q-0.6 -15.25 -0.25 -17.2 L0.0 -16.9 Q1.4 -15.15 2.15 -13.4 1.6 -12.75 1.75 -11.75 L1.9 -11.4 2.85 -11.0 2.95 -9.7 1.75 -2.5 1.0 0.5 1.1 1.05 1.9 6.0 1.7 6.25 0.2 2.65 -0.05 3.15 -0.25 4.25 0.25 5.6 0.75 7.8 0.65 8.8 1.05 13.55 Q1.95 14.95 2.4 14.95 2.8 14.95 3.2 15.6 L4.25 16.85 4.9 17.6 4.9 17.95 5.15 18.0" fill="#943939" fill-rule="evenodd" stroke="none"/>
      <path d="M7.1 -14.9 L7.3 -6.0 6.65 2.6 6.0 8.85 5.85 12.45 5.75 12.0 5.65 11.9 4.7 11.25 Q3.95 10.7 3.9 10.0 L3.8 7.65 3.7 5.1 3.65 4.45 Q3.0 1.45 3.0 -1.1 3.0 -2.55 4.0 -6.0 L5.5 0.0 Q5.4 -4.75 5.7 -5.7 6.25 -7.3 6.45 -10.1 L6.4 -11.5 6.65 -13.65 6.95 -14.5 7.1 -14.9 M-7.25 -13.3 L-7.25 -14.0 -7.25 -13.4 -7.25 -13.3 M5.5 -14.25 L5.4 -14.5 5.6 -14.5 5.5 -14.25" fill="#ca6868" fill-rule="evenodd" stroke="none"/>
    </g>
  </defs>
</svg>
