<?xml version="1.0" encoding="UTF-8" standalone="no"?>
<svg xmlns:ffdec="https://www.free-decompiler.com/flash" xmlns:xlink="http://www.w3.org/1999/xlink" ffdec:objectType="frame" height="48.15px" width="17.2px" xmlns="http://www.w3.org/2000/svg">
  <g transform="matrix(1.0, 0.0, 0.0, 1.0, 8.65, 25.9)">
    <use ffdec:characterId="2009" height="44.05" transform="matrix(1.0, 0.0, 0.0, 1.0, -7.55, -22.2)" width="14.85" xlink:href="#shape0"/>
  </g>
  <defs>
    <g id="shape0" transform="matrix(1.0, 0.0, 0.0, 1.0, 7.55, 22.2)">
      <path d="M-7.25 -13.3 L-7.1 -16.25 Q-5.65 -22.9 0.65 -22.1 3.15 -21.8 5.05 -20.4 6.95 -19.0 7.0 -17.45 L7.05 -17.0 7.3 -6.0 6.65 2.6 6.6 3.25 Q6.15 9.35 6.0 8.85 L5.9 11.25 5.85 12.25 5.75 12.1 5.75 12.0 5.65 11.9 5.45 11.8 5.25 11.6 4.7 11.25 4.25 10.85 4.15 9.0 3.85 8.15 3.8 7.65 3.7 5.1 3.65 4.45 3.45 3.25 Q3.0 0.95 3.0 -1.1 3.0 -2.55 4.0 -6.0 L5.5 0.0 Q5.4 -4.75 5.7 -5.7 6.25 -7.3 6.45 -10.1 6.6 -12.95 4.1 -16.8 1.6 -20.7 -1.25 -20.45 -4.15 -20.25 -5.35 -17.9 -6.6 -15.6 -7.25 -13.3" fill="#ca6868" fill-rule="evenodd" stroke="none"/>
      <path d="M5.85 12.25 L7.3 15.85 5.7 15.6 5.75 16.25 Q5.6 16.5 5.4 17.25 L3.9 15.25 3.45 14.85 Q2.4 14.0 1.55 14.85 L0.95 11.25 0.65 9.05 0.65 8.8 0.75 7.8 0.25 5.6 -0.25 4.25 -0.05 3.25 -0.05 3.15 0.2 2.65 0.5 3.25 1.65 6.15 1.7 6.25 1.9 6.0 1.85 5.7 1.5 3.25 1.1 1.05 1.0 0.5 1.75 -2.5 2.95 -9.7 Q2.95 -13.25 0.0 -16.9 -2.35 -19.7 -2.85 -17.85 -5.5 -17.25 -5.5 -9.95 -5.5 -6.25 -3.1 -5.7 L-4.45 -3.65 Q-5.35 -2.35 -5.35 -1.45 -5.35 -0.8 -5.0 -0.5 L-4.45 -0.3 -4.5 -0.2 Q-4.65 1.4 -4.4 3.25 L-4.4 3.3 -4.35 3.8 -4.35 3.85 Q-4.35 5.35 -3.7 5.8 -3.2 6.15 -3.1 7.25 L-3.25 7.2 -4.65 7.3 -5.1 7.75 Q-6.45 9.85 -5.5 12.0 L-4.75 11.35 -3.95 11.3 -5.9 18.35 -5.9 14.0 -7.55 14.7 -6.25 9.7 -6.25 8.25 Q-6.55 6.6 -6.5 3.7 L-6.5 3.25 Q-6.45 -0.15 -6.75 -2.05 L-7.2 -9.4 -7.25 -13.3 Q-6.6 -15.6 -5.35 -17.9 -4.15 -20.25 -1.25 -20.45 1.6 -20.7 4.1 -16.8 6.6 -12.95 6.45 -10.1 6.25 -7.3 5.7 -5.7 5.4 -4.75 5.5 0.0 L4.0 -6.0 Q3.0 -2.55 3.0 -1.1 3.0 0.95 3.45 3.25 L3.65 4.45 3.7 5.1 3.8 7.65 3.85 8.15 2.45 7.75 2.05 7.95 1.75 8.9 1.65 10.75 Q2.45 12.75 4.25 10.85 L4.7 11.25 5.25 11.6 5.45 11.8 5.65 11.9 5.75 12.0 5.75 12.1 5.85 12.25" fill="#b74040" fill-rule="evenodd" stroke="none"/>
      <path d="M-4.75 17.05 L-5.9 18.35 -3.95 11.3 -1.1 12.85 -0.4 12.45 -0.15 11.7 -0.2 10.5 Q-0.2 9.15 -1.0 8.2 -1.85 7.25 -3.05 7.25 L-3.1 7.25 Q-3.2 6.15 -3.7 5.8 -4.35 5.35 -4.35 3.85 L-4.35 3.8 -4.4 3.3 -4.4 3.25 Q-4.65 1.4 -4.5 -0.2 L-4.45 -0.3 -5.0 -0.5 Q-5.35 -0.8 -5.35 -1.45 -5.35 -2.35 -4.45 -3.65 L-3.1 -5.7 Q-5.5 -6.25 -5.5 -9.95 -5.5 -17.25 -2.85 -17.85 -2.35 -19.7 0.0 -16.9 2.95 -13.25 2.95 -9.7 L1.75 -2.5 1.0 0.5 1.1 1.05 1.5 3.25 1.85 5.7 1.9 6.0 1.7 6.25 1.65 6.15 0.5 3.25 0.2 2.65 -0.05 3.15 -0.05 3.25 -0.25 4.25 0.25 5.6 0.75 7.8 0.65 8.8 0.65 9.05 0.95 11.25 1.55 14.85 Q0.1 13.0 -0.9 13.0 L-2.2 14.25 -3.2 15.3 -4.75 17.05 M-0.6 3.15 L-0.35 2.4 Q0.0 0.9 -1.25 0.1 L-2.4 -0.15 -2.75 0.25 -3.0 0.25 -3.1 0.7 Q-4.6 2.75 -2.3 5.05 L-1.3 5.0 -0.6 3.15" fill="#943939" fill-rule="evenodd" stroke="none"/>
      <path d="M0.25 19.95 L-1.2 21.85 -1.85 17.85 -2.15 16.45 -4.4 17.15 -4.75 17.05 -3.2 15.3 -1.25 14.6 -1.25 15.05 -0.65 15.0 -0.6 16.85 0.25 19.95 M3.85 8.15 L4.15 9.0 Q4.15 9.65 3.8 10.1 3.4 10.5 2.9 10.5 2.4 10.45 2.1 10.0 1.75 9.5 1.75 8.9 L2.05 7.95 2.45 7.75 3.85 8.15 M-1.25 0.1 Q0.0 0.9 -0.35 2.4 L-0.6 3.15 -0.85 3.5 -1.25 3.65 Q-3.8 3.2 -3.1 0.7 L-3.0 0.25 -2.75 0.25 -1.25 0.1 M-3.25 7.2 L-3.1 7.25 -3.05 7.25 -2.35 8.75 -2.55 9.15 -0.2 10.5 -0.15 11.7 Q-1.85 12.55 -2.95 10.25 L-3.3 9.5 -4.9 9.85 Q-5.6 8.7 -4.7 7.6 L-4.35 7.3 -3.25 7.2" fill="#ff0000" fill-rule="evenodd" stroke="none"/>
      <path d="M3.45 14.85 L3.1 15.8 Q2.65 16.6 1.55 16.4 1.55 15.8 0.9 15.4 L-0.65 15.0 -1.25 15.05 -1.25 14.6 -3.2 15.3 -2.2 14.25 -0.9 13.0 Q0.1 13.0 1.55 14.85 2.4 14.0 3.45 14.85 M-1.85 17.85 L-3.7 17.5 -4.4 17.15 -2.15 16.45 -1.85 17.85 M4.15 9.0 L4.25 10.85 Q2.45 12.75 1.65 10.75 L1.75 8.9 Q1.75 9.5 2.1 10.0 2.4 10.45 2.9 10.5 3.4 10.5 3.8 10.1 4.15 9.65 4.15 9.0 M-0.6 3.15 L-1.3 5.0 -2.3 5.05 Q-4.6 2.75 -3.1 0.7 -3.8 3.2 -1.25 3.65 L-0.85 3.5 -0.6 3.15 M-2.75 0.25 L-2.4 -0.15 -1.25 0.1 -2.75 0.25 M-3.95 11.3 L-4.75 11.35 -5.5 12.0 Q-6.45 9.85 -5.1 7.75 L-4.65 7.3 -3.25 7.2 -4.35 7.3 -4.7 7.6 Q-5.6 8.7 -4.9 9.85 L-3.3 9.5 -2.95 10.25 Q-1.85 12.55 -0.15 11.7 L-0.4 12.45 -1.1 12.85 -3.95 11.3 M-3.05 7.25 Q-1.85 7.25 -1.0 8.2 -0.2 9.15 -0.2 10.5 L-2.55 9.15 -2.35 8.75 -3.05 7.25" fill="#990000" fill-rule="evenodd" stroke="none"/>
      <path d="M1.55 16.4 L1.75 19.4 0.25 19.95 -0.6 16.85 -0.65 15.0 0.9 15.4 Q1.55 15.8 1.55 16.4" fill="#ffffff" fill-rule="evenodd" stroke="none"/>
    </g>
  </defs>
</svg>
