<?xml version="1.0" encoding="UTF-8" standalone="no"?>
<svg xmlns:ffdec="https://www.free-decompiler.com/flash" xmlns:xlink="http://www.w3.org/1999/xlink" ffdec:objectType="frame" height="40.0px" width="40.0px" xmlns="http://www.w3.org/2000/svg">
  <g transform="matrix(1.0, 0.0, 0.0, 1.0, 20.0, 20.0)">
    <use ffdec:characterId="886" height="40.0" transform="matrix(1.0, 0.0, 0.0, 1.0, -20.0, -20.0)" width="40.0" xlink:href="#shape0"/>
    <use ffdec:characterId="892" height="28.1" transform="matrix(1.0, 0.0, 0.0, 1.0, -15.9, -14.95)" width="31.8" xlink:href="#shape1"/>
    <use ffdec:characterId="888" height="35.0" transform="matrix(1.0, 0.0, 0.0, 1.0, -17.5, -17.5)" width="35.0" xlink:href="#shape2"/>
  </g>
  <defs>
    <g id="shape0" transform="matrix(1.0, 0.0, 0.0, 1.0, 20.0, 20.0)">
      <path d="M-19.95 0.05 Q-19.75 4.05 -17.95 7.65 L-16.3 10.5 -13.95 13.3 -11.0 15.75 Q-7.75 17.85 -3.95 18.65 L2.1 18.95 Q5.95 18.55 9.35 16.6 L12.6 14.4 13.85 13.3 15.4 11.75 Q17.9 8.95 19.05 5.55 L19.45 4.2 Q19.95 2.2 20.0 0.05 L20.0 0.55 19.6 4.2 Q18.55 9.3 14.95 13.3 L14.15 14.15 Q8.3 20.0 0.0 20.0 -8.25 20.0 -14.15 14.15 L-14.95 13.3 Q-17.2 10.8 -18.45 7.85 -19.9 4.45 -20.0 0.55 L-20.0 0.4 -19.95 0.05" fill="#bfb45a" fill-rule="evenodd" stroke="none"/>
      <path d="M-19.95 0.05 Q-19.65 -2.75 -18.85 -5.35 -17.7 -8.95 -15.4 -11.7 -12.8 -14.8 -9.35 -16.65 -5.95 -18.45 -2.0 -18.9 L4.05 -18.6 Q7.95 -17.8 11.1 -15.65 13.7 -13.95 15.65 -11.5 L17.35 -9.05 18.8 -6.1 Q19.9 -3.3 20.0 -0.25 L20.0 0.05 Q19.95 2.2 19.45 4.2 L19.05 5.55 Q17.9 8.95 15.4 11.75 L13.85 13.3 12.6 14.4 9.35 16.6 Q5.95 18.55 2.1 18.95 L-3.95 18.65 Q-7.75 17.85 -11.0 15.75 L-13.95 13.3 -16.3 10.5 -17.95 7.65 Q-19.75 4.05 -19.95 0.05" fill="#f7e773" fill-rule="evenodd" stroke="none"/>
      <path d="M-20.0 -0.25 L-19.95 0.05 -20.0 0.4 -20.0 0.0 -20.0 -0.25" fill="#feee54" fill-rule="evenodd" stroke="none"/>
      <path d="M20.0 -0.25 Q19.9 -3.3 18.8 -6.1 L17.35 -9.05 15.65 -11.5 Q13.7 -13.95 11.1 -15.65 7.95 -17.8 4.05 -18.6 L-2.0 -18.9 Q-5.95 -18.45 -9.35 -16.65 -12.8 -14.8 -15.4 -11.7 -17.7 -8.95 -18.85 -5.35 -19.65 -2.75 -19.95 0.05 L-20.0 -0.25 -20.0 -0.5 Q-19.8 -8.45 -14.15 -14.15 -8.25 -20.0 0.0 -20.0 8.3 -20.0 14.15 -14.15 16.05 -12.2 17.35 -10.0 18.4 -8.2 19.05 -6.25 19.95 -3.55 20.0 -0.5 L20.0 -0.25" fill="#faf9d1" fill-rule="evenodd" stroke="none"/>
      <path d="M12.35 -11.95 Q16.75 -7.55 17.35 -1.55 L17.45 0.4 17.35 2.4 Q16.75 8.35 12.35 12.75 7.25 17.85 0.0 17.85 -7.25 17.85 -12.35 12.75 -17.45 7.65 -17.45 0.4 -17.45 -6.85 -12.35 -11.95 -7.25 -17.05 0.0 -17.05 7.25 -17.05 12.35 -11.95" fill="url(#gradient0)" fill-rule="evenodd" stroke="none"/>
    </g>
    <linearGradient gradientTransform="matrix(0.0, 0.0176, -0.0213, 0.0, 0.0, -1.45)" gradientUnits="userSpaceOnUse" id="gradient0" spreadMethod="pad" x1="-819.2" x2="819.2">
      <stop offset="0.0" stop-color="#ecdd6e"/>
      <stop offset="1.0" stop-color="#e7d86b"/>
    </linearGradient>
    <g id="shape1" transform="matrix(1.0, 0.0, 0.0, 1.0, 15.9, 14.95)">
      <path d="M8.2 -11.65 L8.25 -11.35 8.25 -11.25 8.55 -10.95 8.7 -10.65 8.7 -10.6 8.65 -10.4 8.6 -10.15 8.55 -10.05 7.7 -7.35 7.7 -6.35 7.8 -5.65 8.05 -4.4 8.35 -2.3 8.35 -1.35 8.35 -1.3 8.3 -0.9 8.25 -0.7 8.05 -0.05 7.65 1.0 7.5 1.35 7.1 2.15 7.05 2.2 6.65 2.7 5.9 4.25 4.5 6.45 4.05 6.35 4.0 6.45 0.7 5.55 0.65 5.0 0.65 4.95 0.65 4.8 0.65 3.5 0.7 4.55 4.0 5.45 5.75 2.75 6.55 1.25 7.0 0.35 7.75 -1.7 7.8 -1.9 7.85 -2.3 Q7.95 -3.5 7.55 -5.4 L7.3 -6.65 7.2 -7.35 7.15 -7.95 4.95 -8.5 5.1 -9.25 7.3 -8.65 8.05 -10.95 8.15 -11.3 8.15 -11.4 8.2 -11.65 M-5.1 -9.25 L-4.95 -8.5 -7.15 -7.95 -7.2 -7.35 -7.3 -6.65 -7.55 -5.4 Q-7.95 -3.5 -7.85 -2.3 L-7.8 -1.9 -7.75 -1.7 -7.0 0.35 -6.55 1.25 -5.75 2.75 -4.0 5.45 -0.7 4.55 -0.65 3.5 -0.65 4.8 -0.65 4.95 -0.65 5.0 -0.7 5.55 -4.0 6.45 -4.05 6.35 -4.5 6.45 -5.9 4.25 -6.65 2.7 -7.05 2.2 -7.1 2.15 -7.5 1.35 -7.65 1.0 -8.05 -0.05 -8.25 -0.7 -8.3 -0.9 -8.35 -1.3 -8.35 -1.35 -8.35 -2.3 -8.05 -4.4 -7.8 -5.65 -7.7 -6.35 -7.7 -7.35 -8.55 -10.05 -8.6 -10.15 -8.65 -10.4 -8.7 -10.6 -8.7 -10.65 -8.55 -10.95 -8.25 -11.25 -8.25 -11.35 -8.2 -11.65 -8.15 -11.4 -8.15 -11.3 -8.05 -10.95 -7.3 -8.65 -5.1 -9.25" fill="#bfb45a" fill-rule="evenodd" stroke="none"/>
      <path d="M8.2 -11.65 L8.15 -11.4 8.15 -11.3 8.05 -10.95 7.3 -8.65 5.1 -9.25 4.95 -8.5 7.15 -7.95 7.2 -7.35 7.3 -6.65 7.55 -5.4 Q7.95 -3.5 7.85 -2.3 L7.8 -1.9 7.75 -1.7 7.0 0.35 6.55 1.25 5.75 2.75 4.0 5.45 0.7 4.55 0.65 3.5 0.65 2.35 0.65 2.2 0.65 1.35 0.6 0.95 0.6 0.75 0.6 0.5 Q0.7 -1.25 0.95 -2.25 L1.05 -2.55 1.3 -3.1 Q1.85 -4.15 3.15 -5.6 4.75 -7.4 4.9 -8.0 L4.95 -8.5 4.7 -8.55 4.9 -9.0 4.95 -9.3 5.1 -9.25 5.55 -11.1 Q6.0 -12.8 7.35 -12.45 8.05 -12.25 8.2 -11.65 M-4.7 -8.55 L-4.95 -8.5 -4.9 -8.0 Q-4.75 -7.4 -3.15 -5.6 -1.85 -4.15 -1.3 -3.1 L-1.05 -2.55 -0.95 -2.25 Q-0.7 -1.25 -0.6 0.5 L-0.6 0.75 -0.6 0.95 -0.65 1.35 -0.65 2.2 -0.65 2.35 -0.65 3.5 -0.7 4.55 -4.0 5.45 -5.75 2.75 -6.55 1.25 -7.0 0.35 -7.75 -1.7 -7.8 -1.9 -7.85 -2.3 Q-7.95 -3.5 -7.55 -5.4 L-7.3 -6.65 -7.2 -7.35 -7.15 -7.95 -4.95 -8.5 -5.1 -9.25 -7.3 -8.65 -8.05 -10.95 -8.15 -11.3 -8.15 -11.4 -8.2 -11.65 Q-8.05 -12.25 -7.35 -12.45 -6.0 -12.8 -5.55 -11.1 L-5.1 -9.25 -4.95 -9.3 -4.9 -9.0 -4.7 -8.55" fill="#f7e773" fill-rule="evenodd" stroke="none"/>
      <path d="M0.6 0.5 Q0.6 -1.15 0.75 -2.25 L0.9 -3.15 1.05 -3.55 Q1.45 -4.75 3.15 -6.6 L4.7 -8.55 4.95 -8.5 4.9 -8.0 Q4.75 -7.4 3.15 -5.6 1.85 -4.15 1.3 -3.1 L1.05 -2.55 0.95 -2.25 Q0.7 -1.25 0.6 0.5 M4.95 -9.3 L5.55 -12.1 Q6.0 -13.8 7.35 -13.45 8.5 -13.15 8.2 -11.65 8.05 -12.25 7.35 -12.45 6.0 -12.8 5.55 -11.1 L5.1 -9.25 4.95 -9.3 M-0.6 0.5 Q-0.7 -1.25 -0.95 -2.25 L-1.05 -2.55 -1.3 -3.1 Q-1.85 -4.15 -3.15 -5.6 -4.75 -7.4 -4.9 -8.0 L-4.95 -8.5 -4.7 -8.55 -3.15 -6.6 Q-1.45 -4.75 -1.05 -3.55 L-0.9 -3.15 -0.75 -2.25 Q-0.6 -1.15 -0.6 0.5 M-4.95 -9.3 L-5.1 -9.25 -5.55 -11.1 Q-6.0 -12.8 -7.35 -12.45 -8.05 -12.25 -8.2 -11.65 -8.5 -13.15 -7.35 -13.45 -6.0 -13.8 -5.55 -12.1 L-4.95 -9.3" fill="#faf9d1" fill-rule="evenodd" stroke="none"/>
      <path d="M-11.9 -1.85 L-12.25 -1.6 -13.2 -3.4 Q-14.1 -4.9 -15.25 -4.25 L-15.8 -3.6 -15.8 -3.65 Q-16.15 -4.7 -15.25 -5.25 -14.1 -5.9 -13.2 -4.4 L-11.9 -1.85 M-12.0 -1.05 L-11.55 -1.3 -9.4 0.3 -7.7 1.55 -7.05 2.15 -7.0 2.2 -6.6 2.7 -5.85 4.25 -5.7 4.75 -4.95 7.35 -4.2 10.45 -4.4 10.55 -4.95 8.35 Q-5.8 4.95 -6.6 3.7 L-7.35 2.85 -8.05 2.25 -9.4 1.3 -11.75 -0.55 -12.0 -1.05" fill="#faf9d1" fill-rule="evenodd" stroke="none"/>
      <path d="M-15.8 -3.6 L-15.25 -4.25 Q-14.1 -4.9 -13.2 -3.4 L-12.25 -1.6 -11.9 -1.85 -11.75 -1.55 -11.55 -1.3 -12.0 -1.05 -12.25 -1.6 -13.95 -0.6 -15.55 -3.05 -15.8 -3.6 M-4.4 10.55 L-7.15 12.15 -9.5 10.0 Q-11.95 7.5 -12.65 6.2 -13.25 5.1 -13.4 2.6 L-13.65 0.0 -13.65 -0.05 -12.0 -1.05 -11.75 -0.55 -9.4 1.3 -8.05 2.25 -7.35 2.85 -6.6 3.7 Q-5.8 4.95 -4.95 8.35 L-4.4 10.55" fill="#f7e773" fill-rule="evenodd" stroke="none"/>
      <path d="M-15.8 -3.65 L-15.8 -3.6 -15.55 -3.05 -13.95 -0.6 -12.25 -1.6 -12.0 -1.05 -13.65 -0.05 -13.65 0.0 -13.4 2.6 Q-13.25 5.1 -12.65 6.2 -11.95 7.5 -9.5 10.0 L-7.15 12.15 -4.4 10.55 -4.2 11.45 -7.15 13.15 -9.5 11.0 Q-11.95 8.5 -12.65 7.2 -13.25 6.1 -13.4 3.6 -13.5 1.1 -13.8 0.65 L-15.55 -2.05 -15.8 -2.6 Q-16.0 -3.2 -15.8 -3.65" fill="#bfb45a" fill-rule="evenodd" stroke="none"/>
      <path d="M12.25 -1.6 L11.9 -1.85 13.2 -4.4 Q14.1 -5.9 15.25 -5.25 16.15 -4.7 15.8 -3.65 L15.8 -3.6 15.25 -4.25 Q14.1 -4.9 13.2 -3.4 L12.25 -1.6 M11.55 -1.3 L12.0 -1.05 11.75 -0.55 9.4 1.3 8.05 2.25 7.35 2.85 6.6 3.7 Q5.8 4.95 4.95 8.35 L4.4 10.55 4.2 10.45 4.95 7.35 5.7 4.75 5.85 4.25 6.6 2.7 7.0 2.2 7.05 2.15 7.7 1.55 9.4 0.3 11.55 -1.3" fill="#faf9d1" fill-rule="evenodd" stroke="none"/>
      <path d="M12.25 -1.6 L12.0 -1.05 11.55 -1.3 11.75 -1.55 11.9 -1.85 12.25 -1.6 13.2 -3.4 Q14.1 -4.9 15.25 -4.25 L15.8 -3.6 15.55 -3.05 13.95 -0.6 12.25 -1.6 M12.0 -1.05 L13.65 -0.05 13.65 0.0 13.4 2.6 Q13.25 5.1 12.65 6.2 11.95 7.5 9.5 10.0 L7.15 12.15 4.4 10.55 4.95 8.35 Q5.8 4.95 6.6 3.7 L7.35 2.85 8.05 2.25 9.4 1.3 11.75 -0.55 12.0 -1.05" fill="#f7e773" fill-rule="evenodd" stroke="none"/>
      <path d="M12.0 -1.05 L12.25 -1.6 13.95 -0.6 15.55 -3.05 15.8 -3.6 15.8 -3.65 Q16.0 -3.2 15.8 -2.6 L15.55 -2.05 13.8 0.65 Q13.5 1.1 13.4 3.6 13.25 6.1 12.65 7.2 11.95 8.5 9.5 11.0 L7.15 13.15 4.2 11.45 4.4 10.55 7.15 12.15 9.5 10.0 Q11.95 7.5 12.65 6.2 13.25 5.1 13.4 2.6 L13.65 0.0 13.65 -0.05 12.0 -1.05" fill="#bfb45a" fill-rule="evenodd" stroke="none"/>
      <path d="M7.8 3.45 Q7.6 0.65 5.5 -1.45 3.25 -3.75 0.0 -3.75 -3.25 -3.75 -5.5 -1.45 -7.6 0.65 -7.75 3.45 L-7.8 3.45 -7.8 3.1 Q-7.65 0.1 -5.5 -2.05 -3.25 -4.35 0.0 -4.35 3.25 -4.35 5.5 -2.05 7.65 0.1 7.8 3.1 L7.8 3.45 M-7.7 5.0 Q-7.5 7.6 -5.5 9.6 -3.25 11.85 0.0 11.85 3.25 11.85 5.5 9.6 7.45 7.6 7.75 5.0 L7.8 5.0 Q7.8 8.2 5.5 10.5 3.25 12.8 0.0 12.8 -3.25 12.8 -5.5 10.5 -7.8 8.2 -7.8 5.0 L-7.7 5.0" fill="#bfb45a" fill-rule="evenodd" stroke="none"/>
      <path d="M7.8 4.05 L7.75 4.05 Q7.45 1.45 5.5 -0.5 3.25 -2.8 0.0 -2.8 -3.25 -2.8 -5.5 -0.5 -7.5 1.45 -7.7 4.05 L-7.8 4.05 -7.8 3.7 -7.75 3.45 Q-7.6 0.65 -5.5 -1.45 -3.25 -3.75 0.0 -3.75 3.25 -3.75 5.5 -1.45 7.6 0.65 7.8 3.45 L7.8 3.7 7.8 4.05" fill="#faf9d1" fill-rule="evenodd" stroke="none"/>
      <path d="M-7.8 4.05 L-7.7 4.05 Q-7.5 1.45 -5.5 -0.5 -3.25 -2.8 0.0 -2.8 3.25 -2.8 5.5 -0.5 7.45 1.45 7.75 4.05 L7.8 4.05 7.8 4.55 7.75 5.0 Q7.45 7.6 5.5 9.6 3.25 11.85 0.0 11.85 -3.25 11.85 -5.5 9.6 -7.5 7.6 -7.7 5.0 L-7.75 4.55 -7.8 4.05" fill="#e7d86b" fill-rule="evenodd" stroke="none"/>
      <path d="M4.5 -1.25 Q6.05 0.3 6.3 2.4 L6.35 2.4 6.35 2.8 6.3 3.2 Q6.05 5.3 4.5 6.9 2.65 8.7 0.05 8.7 -2.6 8.7 -4.4 6.9 -6.0 5.3 -6.15 3.2 L-6.2 2.8 -6.25 2.4 -6.15 2.4 Q-6.0 0.3 -4.4 -1.25 -2.6 -3.1 0.05 -3.1 2.65 -3.1 4.5 -1.25" fill="#f7e773" fill-rule="evenodd" stroke="none"/>
      <path d="M0.8 -2.35 L1.45 -2.65 Q1.95 -2.65 2.15 -2.35 2.5 -2.1 2.5 -1.65 2.5 -1.25 2.15 -0.95 1.95 -0.7 1.45 -0.7 L0.8 -0.95 Q0.55 -1.25 0.55 -1.65 0.55 -2.1 0.8 -2.35 M0.6 1.3 L0.35 2.0 -0.35 2.25 -1.0 2.0 -1.35 1.3 -1.0 0.6 Q-0.75 0.3 -0.35 0.3 0.1 0.3 0.35 0.6 L0.6 1.3 M-2.1 -0.7 L-2.75 -0.95 -3.0 -1.65 -2.75 -2.35 -2.1 -2.65 -1.4 -2.35 Q-1.05 -2.1 -1.05 -1.65 -1.05 -1.25 -1.4 -0.95 -1.65 -0.7 -2.1 -0.7" fill="#bfb45a" fill-rule="evenodd" stroke="none"/>
      <path d="M2.1 -13.4 L2.1 -12.75 1.3 -12.0 1.1 -12.4 2.1 -13.4 M1.3 -11.0 L1.3 -10.4 0.0 -11.0 -1.2 -10.4 -1.3 -10.4 -1.2 -11.0 -1.15 -11.0 0.0 -11.65 1.3 -11.0 M-1.2 -12.0 L-2.05 -12.75 -2.05 -13.4 -1.0 -12.4 -1.2 -12.0" fill="#bfb45a" fill-rule="evenodd" stroke="none"/>
      <path d="M1.3 -12.0 L1.3 -11.0 0.0 -11.65 -1.15 -11.0 -1.2 -12.0 -1.0 -12.4 -2.05 -13.4 -0.6 -13.6 0.0 -14.95 0.7 -13.6 2.1 -13.4 1.1 -12.4 1.3 -12.0" fill="#fff191" fill-rule="evenodd" stroke="none"/>
    </g>
    <g id="shape2" transform="matrix(1.0, 0.0, 0.0, 1.0, 17.5, 17.5)">
      <path d="M17.5 0.05 L17.35 -1.4 Q16.6 -7.1 12.35 -11.35 7.25 -16.5 0.0 -16.5 -7.25 -16.5 -12.35 -11.35 -17.15 -6.6 -17.45 0.0 L-17.5 0.5 -17.5 0.0 -17.5 -0.35 -17.5 -0.5 Q-17.3 -7.45 -12.35 -12.35 -7.25 -17.5 0.0 -17.5 7.25 -17.5 12.35 -12.35 16.6 -8.15 17.35 -2.45 L17.5 -0.5 17.5 -0.35 17.5 0.0 17.5 0.5 17.5 0.05" fill="#bfb45a" fill-rule="evenodd" stroke="none"/>
      <path d="M17.5 0.05 L17.5 0.5 17.35 2.45 Q16.6 8.15 12.35 12.35 7.25 17.5 0.0 17.5 -7.25 17.5 -12.35 12.35 -17.3 7.45 -17.5 0.5 L-17.45 0.0 Q-17.15 6.6 -12.35 11.35 -7.25 16.5 0.0 16.5 7.25 16.5 12.35 11.35 16.6 7.15 17.35 1.4 L17.5 0.05" fill="#faf9d1" fill-rule="evenodd" stroke="none"/>
    </g>
  </defs>
</svg>
