<?xml version="1.0" encoding="UTF-8" standalone="no"?>
<svg xmlns:ffdec="https://www.free-decompiler.com/flash" xmlns:xlink="http://www.w3.org/1999/xlink" ffdec:objectType="frame" height="38.35px" width="34.3px" xmlns="http://www.w3.org/2000/svg">
  <g transform="matrix(1.0, 0.0, 0.0, 1.0, 14.8, 38.05)">
    <use ffdec:characterId="2353" height="38.35" transform="matrix(1.0, 0.0, 0.0, 1.0, -14.8, -38.05)" width="34.3" xlink:href="#shape0"/>
  </g>
  <defs>
    <g id="shape0" transform="matrix(1.0, 0.0, 0.0, 1.0, 14.8, 38.05)">
      <path d="M-14.75 -13.1 L-14.75 -15.0 -14.7 -13.1 -14.75 -13.1" fill="#ffffff" fill-rule="evenodd" stroke="none"/>
      <path d="M8.1 -29.15 L8.2 -29.1 8.0 -28.9 8.1 -29.15" fill="#bb77a7" fill-rule="evenodd" stroke="none"/>
      <path d="M8.1 -29.15 L8.2 -29.1 8.1 -29.15" fill="#d7a55b" fill-rule="evenodd" stroke="none"/>
      <path d="M8.2 -29.1 L8.1 -29.15 Q9.3 -31.95 16.55 -31.95 L18.95 -31.35 18.95 -31.05 18.95 -30.85 19.0 -29.8 19.0 -29.35 19.25 -24.5 19.2 -24.3 19.25 -23.8 19.3 -23.55 19.3 -23.4 19.35 -21.6 19.25 -21.1 19.2 -20.55 18.15 -13.2 18.1 -12.75 18.05 -12.55 17.95 -12.05 Q15.55 -0.7 10.5 -0.7 L10.1 -0.75 8.2 -0.55 Q11.65 -2.25 11.5 -7.45 11.3 -14.75 11.7 -20.85 L12.05 -27.0 Q12.05 -27.6 10.7 -28.5 9.45 -29.3 8.95 -29.3 L8.2 -29.1 M-5.05 -0.35 Q-7.05 -0.75 -8.65 -1.65 -11.9 -3.6 -13.25 -6.45 L-14.1 -8.55 Q-14.6 -10.05 -14.7 -11.6 L-14.75 -13.1 -14.7 -13.1 -14.75 -15.0 -14.5 -18.95 -14.3 -20.6 -13.75 -25.4 -13.25 -28.4 -13.1 -29.35 -12.7 -32.1 -12.7 -32.15 -12.65 -32.1 -12.6 -32.0 -12.25 -32.0 -12.2 -32.1 -12.1 -32.5 -8.05 -32.55 -8.2 -32.1 -9.95 -25.4 Q-10.85 -20.9 -10.85 -16.7 -10.85 -9.85 -5.05 -0.35" fill="#bfa47b" fill-rule="evenodd" stroke="none"/>
      <path d="M8.2 -29.1 L8.95 -29.3 Q9.45 -29.3 10.7 -28.5 12.05 -27.6 12.05 -27.0 L11.7 -20.85 Q11.3 -14.75 11.5 -7.45 11.65 -2.25 8.2 -0.55 L8.1 -0.55 Q7.2 -0.05 5.05 0.15 L1.15 0.3 0.7 0.15 -4.55 -0.25 -5.05 -0.35 Q-10.85 -9.85 -10.85 -16.7 -10.85 -20.9 -9.95 -25.4 L-8.2 -32.1 -8.05 -32.55 -12.1 -32.5 -12.2 -32.1 -12.25 -32.0 -12.6 -32.0 -12.65 -32.1 -12.7 -32.15 -12.5 -34.25 -6.05 -33.9 -5.75 -36.5 -12.3 -36.75 -12.2 -38.05 19.3 -37.2 19.4 -36.65 19.5 -35.75 13.7 -35.9 13.95 -33.2 18.9 -33.2 18.5 -32.55 18.75 -32.1 18.95 -31.35 16.55 -31.95 Q9.3 -31.95 8.1 -29.15 L8.0 -28.9 8.2 -29.1 M12.2 -36.0 L-4.2 -36.5 -4.6 -33.75 12.4 -33.25 12.2 -36.0" fill="#b18f5f" fill-rule="evenodd" stroke="none"/>
      <path d="M19.5 -35.75 Q18.95 -34.4 18.9 -33.2 L13.95 -33.2 13.7 -35.9 19.5 -35.75 M12.2 -36.0 L12.4 -33.25 -4.6 -33.75 -4.2 -36.5 12.2 -36.0 M-12.5 -34.25 L-12.3 -36.75 -5.75 -36.5 -6.05 -33.9 -12.5 -34.25" fill="#000000" fill-rule="evenodd" stroke="none"/>
    </g>
  </defs>
</svg>
