<?xml version="1.0" encoding="UTF-8" standalone="no"?>
<svg xmlns:ffdec="https://www.free-decompiler.com/flash" xmlns:xlink="http://www.w3.org/1999/xlink" ffdec:objectType="frame" height="71.4px" width="31.0px" xmlns="http://www.w3.org/2000/svg">
  <g transform="matrix(1.0, 0.0, 0.0, 1.0, 15.75, 36.65)">
    <use ffdec:characterId="1568" height="69.45" transform="matrix(1.0, 0.0, 0.0, 1.0, -14.75, -34.85)" width="28.5" xlink:href="#shape0"/>
  </g>
  <defs>
    <g id="shape0" transform="matrix(1.0, 0.0, 0.0, 1.0, 14.75, 34.85)">
      <path d="M7.8 -32.7 Q9.2 -31.7 10.1 -30.25 L10.65 -29.3 11.1 -28.3 Q12.65 -24.65 13.05 -21.6 12.65 -20.2 12.55 -18.6 L12.25 -16.6 Q12.1 -16.25 12.1 -14.15 L11.95 -10.3 11.75 -3.75 11.7 -2.15 Q11.4 8.2 11.6 10.0 L11.75 11.25 12.1 16.15 12.1 16.25 12.0 17.35 11.65 21.4 11.55 22.0 11.55 22.2 11.65 22.6 Q12.25 24.5 13.75 27.5 L13.5 27.5 Q12.9 26.35 11.9 25.45 L11.15 24.8 10.4 24.15 10.0 23.75 9.7 24.2 9.7 20.2 10.25 19.25 9.7 19.25 9.7 18.75 9.9 17.35 10.0 16.25 10.0 16.05 10.15 11.25 10.15 10.0 10.15 3.1 8.1 6.65 7.1 8.45 7.85 5.85 10.3 -2.5 10.65 -9.35 11.1 -18.6 Q11.4 -26.55 7.8 -32.7 M-10.05 22.05 L-10.55 22.45 -12.0 23.75 -12.0 23.5 -11.05 20.9 -10.75 19.7 -10.85 18.25 -10.95 16.25 -11.1 11.25 -11.15 8.85 Q-11.4 -0.4 -12.0 -4.5 L-13.65 -14.3 Q-14.75 -19.9 -14.75 -21.5 -14.75 -24.85 -14.05 -27.25 -14.2 -23.45 -11.85 -12.65 -10.3 -5.3 -9.8 3.75 L-8.1 -1.25 -6.9 -4.95 -6.5 0.5 Q-6.5 5.5 -8.2 11.25 L-8.5 12.15 -8.7 12.85 -8.9 13.45 Q-9.4 13.7 -9.4 14.75 L-9.4 15.0 -9.45 15.15 -9.5 15.35 -9.55 15.5 -9.55 16.25 -9.6 17.5 -9.7 18.2 -9.85 19.0 -10.05 22.05" fill="#42a553" fill-opacity="0.9843137" fill-rule="evenodd" stroke="none"/>
      <path d="M13.05 -21.6 L13.15 -18.8 Q12.9 -14.35 13.0 -11.4 L13.0 -2.0 Q13.3 0.15 12.55 9.9 L12.55 10.0 12.45 11.25 12.45 11.55 12.15 15.6 12.1 16.15 11.75 11.25 11.6 10.0 Q11.4 8.2 11.7 -2.15 L11.75 -3.75 11.95 -10.3 12.1 -14.15 Q12.1 -16.25 12.25 -16.6 L12.55 -18.6 Q12.65 -20.2 13.05 -21.6" fill="#7abc67" fill-opacity="0.9843137" fill-rule="evenodd" stroke="none"/>
      <path d="M-9.75 21.8 L-10.05 22.05 -9.85 19.0 -9.7 18.2 -9.6 17.5 -9.55 16.25 -9.55 15.5 -9.5 15.35 -9.45 15.15 -9.5 16.05 -9.45 16.25 -9.25 17.2 Q-8.8 18.15 -7.8 18.25 L-8.25 18.75 Q-8.1 19.4 -8.4 20.6 L-8.5 21.1 -9.0 21.25 -9.75 21.8 M-14.05 -27.25 L-13.35 -29.2 -13.3 -29.3 Q-10.35 -35.1 -2.1 -34.8 4.35 -35.1 7.8 -32.7 11.4 -26.55 11.1 -18.6 L10.65 -9.35 10.3 -2.5 7.85 5.85 7.1 8.45 8.1 6.65 10.15 3.1 10.15 10.0 10.15 11.25 10.0 16.05 10.0 16.25 9.9 17.35 9.7 18.75 9.7 19.25 9.25 19.15 9.25 18.8 9.25 18.6 9.25 18.15 Q9.25 17.3 8.85 17.05 L9.0 16.4 9.0 16.25 9.0 16.1 9.0 15.8 Q9.0 14.65 7.4 14.8 L6.8 14.9 6.35 15.1 5.75 14.0 5.5 14.25 Q5.7 16.0 4.6 16.0 3.75 16.0 3.25 15.5 L3.35 16.25 3.35 16.75 3.3 17.5 3.0 17.5 3.0 18.75 3.5 19.5 Q2.85 19.2 1.35 20.7 L0.55 21.5 -1.25 23.0 -1.6 22.25 Q-1.85 21.8 -1.75 21.25 L-2.0 21.25 -3.35 23.05 -3.7 23.55 -3.75 22.75 Q-3.75 22.1 -3.35 21.4 -3.0 20.65 -3.0 19.85 L-3.05 19.25 -3.0 19.25 Q-1.15 19.25 -1.15 16.3 L-1.15 16.25 Q-1.05 15.85 -1.25 15.45 L-1.55 15.05 Q-1.75 14.2 -3.1 14.55 -4.15 14.8 -4.55 15.45 L-4.55 15.5 Q-6.45 14.25 -7.45 13.75 -8.4 13.2 -8.9 13.45 L-8.7 12.85 -8.5 12.15 -8.2 11.25 Q-6.5 5.5 -6.5 0.5 L-6.9 -4.95 -8.1 -1.25 -9.8 3.75 Q-10.3 -5.3 -11.85 -12.65 -14.2 -23.45 -14.05 -27.25 M9.7 20.2 L9.7 24.2 9.15 25.35 8.55 24.55 8.1 23.1 8.8 21.55 9.7 20.2" fill="#348740" fill-opacity="0.9843137" fill-rule="evenodd" stroke="none"/>
      <path d="M9.7 19.25 L10.25 19.25 9.7 20.2 8.8 21.55 8.1 23.1 8.0 22.75 6.75 19.75 5.75 21.0 4.5 21.0 5.0 19.35 4.95 18.5 4.25 17.5 4.1 17.5 3.3 17.5 3.35 16.75 3.35 16.25 3.25 15.5 Q3.75 16.0 4.6 16.0 5.7 16.0 5.5 14.25 L5.75 14.0 6.35 15.1 6.3 15.15 6.25 15.15 6.15 15.25 Q5.75 15.6 5.6 16.25 L5.5 17.25 5.6 18.0 Q5.9 18.5 7.0 18.4 6.4 20.4 8.0 20.4 9.1 20.4 9.25 19.15 L9.7 19.25 M-3.95 23.9 L-4.75 25.5 -4.85 23.85 -5.15 21.8 Q-5.6 19.95 -6.5 19.0 -6.55 20.15 -7.4 20.6 L-8.5 21.1 -8.4 20.6 Q-8.1 19.4 -8.25 18.75 L-7.8 18.25 -7.6 18.25 -6.85 18.0 -5.8 17.25 -5.25 17.4 -4.8 18.55 Q-4.3 19.25 -3.05 19.25 L-3.0 19.85 Q-3.0 20.65 -3.35 21.4 -3.75 22.1 -3.75 22.75 L-3.7 23.55 -3.95 23.9" fill="#695227" fill-rule="evenodd" stroke="none"/>
      <path d="M-4.35 31.45 L-5.0 31.5 -5.1 31.5 -6.45 31.4 Q-7.2 31.2 -7.5 30.8 L-7.6 30.25 -7.65 29.75 -7.6 29.35 -7.55 29.35 -5.3 30.1 -6.25 28.8 -6.75 28.1 -8.7 25.15 -8.75 25.05 Q-8.75 24.3 -7.6 24.05 L-6.7 24.05 Q-6.25 24.15 -6.0 24.5 L-5.9 26.9 Q-5.05 29.85 -4.8 30.0 L-4.8 30.1 -5.05 30.15 -2.9 30.85 -2.8 31.0 -3.75 31.35 -4.35 31.45 M6.15 15.25 L6.25 15.15 6.3 15.15 6.35 15.1 6.8 14.9 7.4 14.8 Q9.0 14.65 9.0 15.8 L9.0 16.1 8.95 16.25 8.65 16.95 8.85 17.05 Q9.25 17.3 9.25 18.15 L9.25 18.6 9.05 19.1 9.0 19.15 8.1 19.4 Q7.2 19.4 7.0 18.95 L7.0 18.4 Q7.0 17.85 7.25 17.5 L7.5 17.25 6.5 17.25 Q5.75 17.1 5.75 16.25 5.75 15.6 6.15 15.25 M3.3 17.5 L4.1 17.5 3.9 18.5 3.5 20.75 Q3.5 21.9 3.9 23.05 3.3 22.4 2.75 22.4 2.15 22.4 0.75 24.55 L0.55 21.5 1.35 20.7 Q2.85 19.2 3.5 19.5 L3.0 18.75 3.0 17.5 3.3 17.5 M0.2 32.85 L-0.25 33.15 -0.55 33.0 -0.65 32.5 Q-0.65 30.7 1.85 29.05 5.5 26.65 6.5 25.5 L7.55 26.4 7.75 27.3 7.6 28.1 7.65 28.25 7.65 29.4 7.25 29.65 6.9 29.05 6.8 28.85 6.6 28.9 6.35 29.0 Q4.75 29.45 3.5 30.0 1.9 30.8 1.25 31.65 L0.2 32.85 M1.65 27.1 L1.0 27.35 Q-1.95 28.25 -2.5 28.5 -2.65 28.75 -2.7 28.6 L-2.75 28.25 Q-2.75 27.65 -1.35 26.65 L-0.85 26.25 -0.15 25.8 0.85 25.2 1.1 25.1 1.85 25.2 2.0 25.05 2.25 25.0 2.65 25.5 2.5 25.95 2.5 26.25 1.65 27.1 M-1.55 15.05 L-1.5 15.45 -1.6 16.25 Q-1.95 17.4 -3.35 17.4 L-3.4 17.4 Q-4.9 17.4 -4.75 16.5 L-5.35 16.5 -6.45 16.5 -6.7 16.5 -6.9 16.65 -8.0 17.1 -8.85 16.25 -8.9 16.15 -9.2 16.0 Q-9.4 15.85 -9.4 15.0 L-9.4 14.75 Q-9.4 13.7 -8.9 13.45 -8.4 13.2 -7.45 13.75 -6.45 14.25 -4.55 15.5 L-4.55 15.45 Q-4.15 14.8 -3.1 14.55 -1.75 14.2 -1.55 15.05" fill="#ff0000" fill-rule="evenodd" stroke="none"/>
      <path d="M9.7 26.75 L9.75 27.0 9.7 27.3 8.7 28.8 6.2 30.8 6.6 30.05 6.35 29.0 6.6 28.9 6.8 28.85 6.9 29.05 7.25 29.65 7.65 29.4 7.65 28.25 7.6 28.1 7.75 27.3 7.55 26.4 6.5 25.5 Q5.5 26.65 1.85 29.05 -0.65 30.7 -0.65 32.5 L-0.55 33.0 -0.25 33.15 0.2 32.85 0.35 33.3 -1.6 32.85 Q-1.8 32.1 -2.75 31.65 L-4.35 31.45 -3.75 31.35 -2.8 31.0 -2.9 30.85 -5.05 30.15 -4.8 30.1 -4.8 30.0 Q-5.05 29.85 -5.9 26.9 L-6.0 24.5 Q-6.25 24.15 -6.7 24.05 L-4.85 23.85 -4.75 25.5 -3.95 23.9 Q-2.85 24.05 -2.05 25.25 -1.55 25.95 -1.35 26.65 -2.75 27.65 -2.75 28.25 L-2.7 28.6 -2.75 28.8 Q-2.75 30.6 -1.5 30.6 L1.65 27.25 1.65 27.1 2.5 26.25 2.5 25.95 2.65 25.5 2.25 25.0 2.0 25.05 1.85 25.2 1.1 25.1 0.85 25.2 -0.15 25.8 0.7 24.55 0.75 24.55 Q2.15 22.4 2.75 22.4 3.3 22.4 3.9 23.05 L4.35 23.7 4.45 23.9 Q5.2 25.0 6.1 25.0 L6.7 24.5 Q6.8 24.0 7.35 24.0 L7.95 24.15 8.55 24.55 9.15 25.35 9.4 26.0 9.7 26.75 M-7.6 30.25 L-8.2 29.35 Q-9.0 28.1 -9.0 27.4 L-8.9 26.0 -8.7 25.15 -6.75 28.1 -6.25 28.8 -5.3 30.1 -7.55 29.35 -7.6 29.35 -7.65 29.75 -7.6 30.25 M6.15 15.25 Q5.75 15.6 5.75 16.25 5.75 17.1 6.5 17.25 L7.5 17.25 7.25 17.5 Q7.0 17.85 7.0 18.4 L7.0 18.95 Q7.2 19.4 8.1 19.4 L9.0 19.15 9.05 19.1 9.25 18.6 9.25 18.8 9.25 19.15 Q9.1 20.4 8.0 20.4 6.4 20.4 7.0 18.4 5.9 18.5 5.6 18.0 L5.5 17.25 5.6 16.25 Q5.75 15.6 6.15 15.25 M8.85 17.05 L8.65 16.95 8.95 16.25 9.0 16.1 9.0 16.25 9.0 16.4 8.85 17.05 M-1.55 15.05 L-1.25 15.45 Q-1.05 15.85 -1.15 16.25 L-1.15 16.3 Q-1.15 19.25 -3.0 19.25 L-3.05 19.25 Q-4.3 19.25 -4.8 18.55 L-5.25 17.4 -5.8 17.25 -6.85 18.0 -7.6 18.25 -7.8 18.25 Q-8.8 18.15 -9.25 17.2 L-9.45 16.25 -9.5 16.05 -9.45 15.15 -9.4 15.0 Q-9.4 15.85 -9.2 16.0 L-8.9 16.15 -8.85 16.25 -8.0 17.1 -6.9 16.65 -6.7 16.5 -6.45 16.5 -5.35 16.5 -4.75 16.5 Q-4.9 17.4 -3.4 17.4 L-3.35 17.4 Q-1.95 17.4 -1.6 16.25 L-1.5 15.45 -1.55 15.05" fill="#990000" fill-rule="evenodd" stroke="none"/>
      <path d="M10.4 24.15 L10.2 24.85 9.7 26.75 9.4 26.0 9.15 25.35 9.7 24.2 10.0 23.75 10.4 24.15 M-8.9 26.0 Q-9.6 23.85 -9.75 21.8 L-9.0 21.25 -8.5 21.1 -7.4 20.6 Q-6.55 20.15 -6.5 19.0 -5.6 19.95 -5.15 21.8 L-4.85 23.85 -6.7 24.05 -7.6 24.05 Q-8.75 24.3 -8.75 25.05 L-8.7 25.15 -8.9 26.0 M4.1 17.5 L4.25 17.5 4.95 18.5 5.0 19.35 4.5 21.0 5.75 21.0 6.75 19.75 8.0 22.75 8.1 23.1 8.55 24.55 7.95 24.15 7.35 24.0 Q6.8 24.0 6.7 24.5 L6.1 25.0 Q5.2 25.0 4.45 23.9 L4.35 23.7 3.9 23.05 Q3.5 21.9 3.5 20.75 L3.9 18.5 4.1 17.5 M0.55 21.5 L0.75 24.55 0.7 24.55 -0.15 25.8 -0.85 26.25 -1.35 26.65 Q-1.55 25.95 -2.05 25.25 -2.85 24.05 -3.95 23.9 L-3.7 23.55 -3.35 23.05 -2.0 21.25 -1.75 21.25 Q-1.85 21.8 -1.6 22.25 L-1.25 23.0 0.55 21.5" fill="#c79b68" fill-rule="evenodd" stroke="none"/>
      <path d="M6.2 30.8 L4.6 32.5 3.55 33.5 Q2.25 34.6 1.6 34.6 L1.0 34.35 0.35 33.3 0.2 32.85 1.25 31.65 Q1.9 30.8 3.5 30.0 4.75 29.45 6.35 29.0 L6.6 30.05 6.2 30.8 M1.65 27.1 L1.65 27.25 -1.5 30.6 Q-2.75 30.6 -2.75 28.8 L-2.7 28.6 Q-2.65 28.75 -2.5 28.5 -1.95 28.25 1.0 27.35 L1.65 27.1" fill="#ffffff" fill-rule="evenodd" stroke="none"/>
    </g>
  </defs>
</svg>
