<?xml version="1.0" encoding="UTF-8" standalone="no"?>
<svg xmlns:ffdec="https://www.free-decompiler.com/flash" xmlns:xlink="http://www.w3.org/1999/xlink" ffdec:objectType="frame" height="208.0px" width="125.0px" xmlns="http://www.w3.org/2000/svg">
  <g transform="matrix(1.0, 0.0, 0.0, 1.0, 4.0, 4.0)">
    <use ffdec:characterId="2716" height="208.0" transform="matrix(1.0, 0.0, 0.0, 1.0, -4.0, -4.0)" width="125.0" xlink:href="#shape0"/>
  </g>
  <defs>
    <g id="shape0" transform="matrix(1.0, 0.0, 0.0, 1.0, 4.0, 4.0)">
      <path d="M121.0 -4.0 L121.0 204.0 110.0 204.0 110.0 200.0 56.0 200.0 56.0 204.0 54.0 204.0 52.0 204.0 52.0 200.0 29.1 200.0 17.1 200.0 -4.0 200.0 -4.0 196.0 17.1 196.0 29.1 196.0 110.0 196.0 110.0 16.0 9.6 16.0 -4.0 16.0 -4.0 -4.0 9.6 -4.0 121.0 -4.0" fill="#000000" fill-opacity="0.29803923" fill-rule="evenodd" stroke="none"/>
    </g>
  </defs>
</svg>
