<?xml version="1.0" encoding="UTF-8" standalone="no"?>
<svg xmlns:ffdec="https://www.free-decompiler.com/flash" xmlns:xlink="http://www.w3.org/1999/xlink" ffdec:objectType="frame" height="40.0px" width="350.0px" xmlns="http://www.w3.org/2000/svg">
  <g transform="matrix(1.0, 0.0, 0.0, 1.0, 175.0, 20.0)">
    <use ffdec:characterId="1064" height="40.0" transform="matrix(1.0, 0.0, 0.0, 1.0, -175.0, -20.0)" width="350.0" xlink:href="#shape0"/>
    <use ffdec:characterId="1066" height="16.2" id="nub" transform="matrix(1.0, 0.0, 0.0, 1.0, 144.0, -12.2)" width="14.7" xlink:href="#sprite0"/>
  </g>
  <defs>
    <g id="shape0" transform="matrix(1.0, 0.0, 0.0, 1.0, 175.0, 20.0)">
      <path d="M171.5 -20.0 L175.0 -20.0 175.0 -18.5 171.5 -18.5 171.5 -20.0 M-175.0 -18.5 L-175.0 -20.0 -171.5 -20.0 -171.5 -18.5 -175.0 -18.5" fill="#635050" fill-rule="evenodd" stroke="none"/>
      <path d="M171.5 -20.0 L171.5 -18.5 168.0 -18.5 168.0 -20.0 171.5 -20.0 M-171.5 -20.0 L-168.0 -20.0 -168.0 -18.5 -171.5 -18.5 -171.5 -20.0 M168.0 -4.05 L168.0 -2.85 167.85 -0.6 Q167.05 4.7 163.0 8.7 160.75 10.95 158.1 12.2 155.05 13.6 151.45 13.7 L-151.45 13.7 Q-155.05 13.6 -158.1 12.2 -160.8 10.95 -163.05 8.7 -167.8 3.95 -168.0 -2.7 L-168.0 -4.05 Q-167.75 2.5 -163.05 7.2 -158.2 12.05 -151.45 12.2 L151.45 12.2 Q158.2 12.05 163.0 7.2 167.75 2.5 168.0 -4.05" fill="#cccccc" fill-rule="evenodd" stroke="none"/>
      <path d="M-168.0 -20.0 L168.0 -20.0 168.0 -18.5 -168.0 -18.5 -168.0 -20.0" fill="#7f7f7f" fill-rule="evenodd" stroke="none"/>
      <path d="M168.0 -18.5 L171.5 -18.5 171.5 18.5 -171.5 18.5 -171.5 -18.5 -168.0 -18.5 -168.0 -7.35 -168.0 -7.0 -168.0 -5.85 -168.0 -5.5 -168.0 -4.05 -168.0 -2.7 Q-167.8 3.95 -163.05 8.7 -160.8 10.95 -158.1 12.2 -155.05 13.6 -151.45 13.7 L151.45 13.7 Q155.05 13.6 158.1 12.2 160.75 10.95 163.0 8.7 167.05 4.7 167.85 -0.6 L168.0 -2.85 168.0 -4.05 168.0 -5.5 168.0 -5.9 168.0 -6.25 168.0 -6.6 168.0 -7.0 168.0 -7.4 168.0 -18.5 M168.25 14.35 L168.1 14.3 168.2 14.2 168.25 14.35 M170.05 11.0 Q170.05 9.05 169.1 9.0 168.15 8.95 168.5 11.15 L168.5 11.8 168.25 12.85 167.65 12.7 Q166.75 12.75 166.75 13.65 L166.75 14.0 165.2 13.8 Q164.9 13.8 164.35 14.25 163.8 14.65 162.5 14.65 L160.65 14.6 Q158.75 14.75 157.5 15.8 L159.15 16.05 159.9 16.0 161.25 16.0 161.85 16.25 162.75 16.5 166.6 16.8 167.45 16.75 167.8 17.0 168.65 16.9 Q169.3 16.9 169.75 14.25 L170.05 11.0 M-160.3 13.45 L-161.75 13.05 -161.85 13.85 Q-162.1 14.3 -161.3 14.25 L-159.95 14.25 -159.8 14.15 Q-159.55 13.6 -160.3 13.45 M-169.35 6.0 Q-170.25 7.4 -170.05 9.3 -169.95 10.25 -169.3 10.9 L-168.4 11.4 -168.05 11.35 -167.1 10.8 -166.3 15.0 Q-165.25 14.7 -164.6 13.3 L-164.4 12.75 -164.95 11.8 -163.8 11.85 -164.2 11.5 -166.5 8.9 -167.85 7.05 -168.8 6.05 -169.35 6.0 M-166.15 13.8 L-166.1 13.4 -166.05 13.55 -166.15 13.8" fill="#999999" fill-rule="evenodd" stroke="none"/>
      <path d="M171.5 20.0 L-171.5 20.0 -171.5 18.5 171.5 18.5 171.5 20.0 M168.0 -18.5 L168.0 -7.4 168.0 -7.0 168.0 -6.6 168.0 -6.25 168.0 -5.9 168.0 -5.5 168.0 -4.05 Q167.75 2.5 163.0 7.2 158.2 12.05 151.45 12.2 L-151.45 12.2 Q-158.2 12.05 -163.05 7.2 -167.75 2.5 -168.0 -4.05 L-168.0 -5.5 -168.0 -5.85 -168.0 -7.0 -168.0 -7.35 -168.0 -18.5 168.0 -18.5" fill="#666666" fill-rule="evenodd" stroke="none"/>
      <path d="M171.5 -18.5 L175.0 -18.5 175.0 18.5 171.5 18.5 171.5 -18.5 M-174.95 18.5 L-175.0 -18.5 -171.5 -18.5 -171.5 18.5 -174.95 18.5" fill="#453a3a" fill-rule="evenodd" stroke="none"/>
      <path d="M175.0 18.5 L175.0 20.0 171.5 20.0 171.5 18.5 175.0 18.5 M-171.5 20.0 L-174.95 20.0 -174.95 18.5 -171.5 18.5 -171.5 20.0" fill="#2f2626" fill-rule="evenodd" stroke="none"/>
      <path d="M170.05 11.0 L169.75 14.25 Q169.3 16.9 168.65 16.9 L167.8 17.0 167.45 16.75 166.6 16.8 162.75 16.5 161.85 16.25 161.25 16.0 159.9 16.0 159.15 16.05 157.5 15.8 Q158.75 14.75 160.65 14.6 L162.5 14.65 Q163.8 14.65 164.35 14.25 164.9 13.8 165.2 13.8 L166.75 14.0 166.75 13.65 Q166.75 12.75 167.65 12.7 L168.25 12.85 168.5 11.8 168.5 11.15 Q168.15 8.95 169.1 9.0 170.05 9.05 170.05 11.0 M168.25 14.35 L168.2 14.2 168.1 14.3 168.25 14.35 M-166.15 13.8 L-166.05 13.55 -166.1 13.4 -166.15 13.8 M-169.35 6.0 L-168.8 6.05 -167.85 7.05 -166.5 8.9 -164.2 11.5 -163.8 11.85 -164.95 11.8 -164.4 12.75 -164.6 13.3 Q-165.25 14.7 -166.3 15.0 L-167.1 10.8 -168.05 11.35 -168.4 11.4 -169.3 10.9 Q-169.95 10.25 -170.05 9.3 -170.25 7.4 -169.35 6.0 M-160.3 13.45 Q-159.55 13.6 -159.8 14.15 L-159.95 14.25 -161.3 14.25 Q-162.1 14.3 -161.85 13.85 L-161.75 13.05 -160.3 13.45" fill="#919191" fill-rule="evenodd" stroke="none"/>
      <path d="M158.7 -3.55 L158.7 -4.1 158.7 -4.65 158.7 -3.55" fill="#737373" fill-rule="evenodd" stroke="none"/>
    </g>
    <g id="sprite0" transform="matrix(1.0, 0.0, 0.0, 1.0, 7.35, 8.1)">
      <use ffdec:characterId="1065" height="16.2" transform="matrix(1.0, 0.0, 0.0, 1.0, -7.35, -8.1)" width="14.7" xlink:href="#shape1"/>
    </g>
    <g id="shape1" transform="matrix(1.0, 0.0, 0.0, 1.0, 7.35, 8.1)">
      <path d="M0.0 -8.1 Q3.05 -8.1 5.2 -5.95 7.3 -3.85 7.35 -0.9 L7.35 -0.55 7.35 0.0 Q7.1 -2.55 5.2 -4.45 3.05 -6.6 0.0 -6.6 -3.05 -6.6 -5.2 -4.45 -7.1 -2.55 -7.3 0.0 L-7.35 -0.55 -7.35 -1.0 -7.35 -1.25 Q-7.15 -4.0 -5.2 -5.95 -3.05 -8.1 0.0 -8.1 M0.0 -4.65 Q1.6 -4.65 2.75 -3.5 3.9 -2.35 3.9 -0.75 L3.9 -0.7 3.85 0.0 Q3.65 -1.1 2.75 -2.0 1.6 -3.15 0.0 -3.15 -1.65 -3.15 -2.8 -2.0 -3.65 -1.1 -3.85 0.0 L-3.95 -0.65 -3.95 -0.85 Q-3.9 -2.4 -2.8 -3.5 -1.65 -4.65 0.0 -4.65" fill="#8f8f8f" fill-rule="evenodd" stroke="none"/>
      <path d="M-2.8 3.55 Q-3.9 2.45 -3.95 0.9 L-3.95 0.65 -3.85 0.0 Q-3.65 1.2 -2.8 2.05 -1.65 3.2 0.0 3.2 1.6 3.2 2.75 2.05 3.65 1.2 3.85 0.0 L3.9 0.75 Q3.9 2.4 2.75 3.55 1.6 4.7 0.0 4.7 -1.65 4.7 -2.8 3.55 M-7.3 0.0 Q-7.1 2.55 -5.2 4.45 -3.05 6.6 0.0 6.6 3.05 6.6 5.2 4.45 7.1 2.55 7.35 0.0 L7.35 0.55 7.35 1.05 Q7.25 3.9 5.2 5.95 3.05 8.1 0.0 8.1 -3.05 8.1 -5.2 5.95 -7.3 3.85 -7.35 0.95 L-7.35 0.55 -7.3 0.0" fill="#555555" fill-rule="evenodd" stroke="none"/>
    </g>
  </defs>
</svg>
