<?xml version="1.0" encoding="UTF-8" standalone="no"?>
<svg xmlns:ffdec="https://www.free-decompiler.com/flash" xmlns:xlink="http://www.w3.org/1999/xlink" ffdec:objectType="frame" height="26.65px" width="23.5px" xmlns="http://www.w3.org/2000/svg">
  <g transform="matrix(1.0, 0.0, 0.0, 1.0, 12.45, 14.5)">
    <use ffdec:characterId="1115" height="26.65" transform="matrix(1.0, 0.0, 0.0, 1.0, -12.45, -14.5)" width="23.5" xlink:href="#shape0"/>
  </g>
  <defs>
    <g id="shape0" transform="matrix(1.0, 0.0, 0.0, 1.0, 12.45, 14.5)">
      <path d="M-1.35 -10.8 L-1.9 -10.65 Q-0.85 -11.35 0.5 -13.1 1.95 -14.5 4.85 -14.5 6.75 -14.5 7.5 -12.65 L7.4 -11.95 7.4 -11.9 Q7.35 -11.65 6.75 -11.65 L5.8 -12.0 2.95 -12.9 -1.35 -10.8 M-6.5 8.3 L-6.95 7.95 -6.75 7.6 -6.25 6.5 -0.6 6.9 Q0.3 4.8 0.9 2.2 L1.15 1.85 3.15 2.25 3.45 3.05 Q2.1 6.5 -1.4 7.9 L-1.8 8.05 -3.5 8.1 1.2 9.25 -0.15 9.65 Q-3.35 9.65 -6.15 8.5 L-6.5 8.3 M-12.25 -2.1 L-12.25 -2.15 -11.8 -2.75 Q-7.4 -2.25 -7.4 1.95 L-7.5 2.5 Q-9.5 1.0 -11.85 0.0 L-12.1 -0.1 -12.25 -2.1 M-9.95 -5.5 L-10.05 -5.65 -10.1 -6.25 Q-10.1 -8.65 -6.7 -8.35 -2.3 -8.35 -2.35 -4.65 L-2.55 -4.1 -3.4 -4.05 -4.4 -4.5 -4.75 -4.8 -4.95 -6.05 Q-5.25 -6.5 -6.0 -6.5 L-8.65 -6.05 -9.5 -5.15 -9.95 -5.5" fill="#ff0000" fill-rule="evenodd" stroke="none"/>
      <path d="M3.5 -2.05 Q4.0 -2.7 4.95 -3.0 L5.65 -2.95 6.05 -2.5 6.15 -2.3 6.0 -1.95 5.55 -1.35 Q4.65 -0.85 4.35 -1.6 L3.15 -1.35 3.15 -1.5 3.5 -2.05" fill="#000000" fill-rule="evenodd" stroke="none"/>
      <path d="M4.7 9.0 L5.15 10.4 4.85 10.8 3.8 10.6 3.35 10.9 -1.15 10.35 -0.15 9.65 1.2 9.25 4.7 9.0" fill="#ffffff" fill-rule="evenodd" stroke="none"/>
      <path d="M4.8 8.95 L4.7 9.0 1.2 9.25 -3.5 8.1 -1.8 8.05 -1.4 7.9 Q2.1 6.5 3.45 3.05 L3.15 2.25 Q5.0 2.85 5.0 4.1 5.0 4.55 3.0 6.75 L2.05 7.8 2.55 7.95 3.2 8.2 4.8 8.95 M3.35 10.9 L3.4 11.35 2.65 12.1 Q-4.55 12.65 -6.5 8.3 L-6.15 8.5 Q-3.35 9.65 -0.15 9.65 L-1.15 10.35 3.35 10.9 M-6.75 7.6 L-6.9 7.2 -7.25 4.75 -9.0 4.05 Q-10.2 3.55 -11.0 2.85 -13.0 1.05 -12.25 -2.1 L-12.1 -0.1 -11.85 0.0 Q-9.5 1.0 -7.5 2.5 L-7.4 1.95 Q-7.4 -2.25 -11.8 -2.75 L-9.95 -5.5 -9.5 -5.15 -8.65 -6.05 -6.0 -6.5 Q-5.25 -6.5 -4.95 -6.05 L-4.75 -4.8 -4.4 -4.5 -3.4 -4.05 -2.55 -4.1 -2.35 -4.65 Q-2.3 -8.35 -6.7 -8.35 L-1.35 -10.8 2.95 -12.9 5.8 -12.0 Q2.6 -11.55 0.5 -9.15 L-1.6 -7.0 Q-0.2 -4.0 -2.65 -2.9 -5.35 -1.8 -5.35 -4.95 L-5.75 -4.7 -6.65 -4.0 -6.7 -0.45 -6.35 1.25 Q-5.85 3.15 -4.65 4.45 L-3.0 5.85 -0.6 6.9 -6.25 6.5 -6.75 7.6" fill="#9f0000" fill-rule="evenodd" stroke="none"/>
      <path d="M7.4 -11.95 L7.75 -11.95 8.0 -11.1 8.15 -10.1 8.45 -8.8 8.45 -8.7 8.9 -7.45 8.7 -7.05 8.75 -6.55 8.75 -5.95 8.95 -5.15 8.95 -4.95 8.9 -4.25 8.45 -3.95 8.35 -2.55 8.5 -1.8 8.55 -1.7 9.6 0.4 10.7 2.75 11.05 3.7 11.05 3.95 10.95 4.15 10.75 4.45 10.75 4.35 10.55 4.1 10.0 4.0 9.35 4.0 8.85 4.15 6.95 4.45 6.85 4.45 6.7 4.7 6.75 4.8 Q6.3 4.95 6.3 4.7 L6.45 3.95 6.75 2.85 6.85 2.55 7.4 1.15 7.35 1.05 Q6.9 1.5 6.15 2.85 L6.05 3.0 Q5.9 3.25 5.85 3.95 L5.8 5.1 5.1 6.8 4.75 7.1 3.2 8.2 2.55 7.95 2.05 7.8 3.0 6.75 Q5.0 4.55 5.0 4.1 5.0 2.85 3.15 2.25 L1.15 1.85 0.9 2.2 Q0.3 4.8 -0.6 6.9 L-3.0 5.85 -3.4 3.25 -3.45 2.95 Q-3.75 0.9 -4.8 0.15 L-5.05 -0.65 -5.15 -2.05 -5.65 -4.45 -5.75 -4.7 -5.35 -4.95 Q-5.35 -1.8 -2.65 -2.9 -0.2 -4.0 -1.6 -7.0 L0.5 -9.15 Q2.6 -11.55 5.8 -12.0 L6.75 -11.65 Q7.35 -11.65 7.4 -11.9 L7.4 -11.95 M8.95 7.8 L8.2 8.3 7.05 9.1 6.95 9.2 6.7 9.45 6.4 9.8 5.5 9.3 Q6.8 7.75 8.35 6.85 L8.4 6.8 8.45 6.8 8.45 6.85 8.55 6.95 8.65 7.05 8.8 7.3 8.95 7.8 M7.6 -3.95 L7.7 -4.1 7.85 -4.45 7.35 -5.15 7.15 -5.25 5.85 -5.4 4.9 -5.15 2.8 -4.6 2.65 -4.55 2.45 -4.5 -0.1 -3.7 -0.95 -3.35 0.3 -3.25 0.7 -1.55 0.7 -1.5 0.85 -1.0 1.1 -0.1 1.1 -0.05 Q1.25 0.25 2.05 0.45 L2.45 0.5 3.1 1.05 Q3.25 1.25 3.5 1.3 L4.75 0.75 4.85 0.7 5.45 0.3 6.4 -0.5 Q7.0 -1.1 7.25 -1.85 L7.3 -2.05 7.6 -3.95 M6.75 4.9 L7.25 5.5 7.55 5.85 6.55 6.05 Q6.85 5.4 6.75 4.9" fill="#ffcc99" fill-rule="evenodd" stroke="none"/>
      <path d="M7.6 -3.95 L7.45 -3.85 4.15 -3.6 2.6 -3.35 2.45 -3.35 1.95 -3.35 0.3 -3.25 -0.95 -3.35 -0.1 -3.7 2.45 -4.5 2.65 -4.55 2.8 -4.6 4.9 -5.15 5.85 -5.4 7.15 -5.25 7.35 -5.15 7.85 -4.45 7.7 -4.1 7.6 -3.95 M-5.75 -4.7 L-5.65 -4.45 -5.15 -2.05 -5.05 -0.65 -6.7 -0.45 -6.65 -4.0 -5.75 -4.7" fill="#593c1e" fill-rule="evenodd" stroke="none"/>
      <path d="M10.75 4.45 L10.3 4.85 Q9.7 5.25 8.9 5.25 L8.7 5.25 8.7 5.3 8.65 5.75 8.65 5.85 8.6 6.1 8.75 6.4 8.85 6.6 8.95 6.75 9.1 7.15 9.1 7.3 8.95 7.8 8.8 7.3 8.65 7.05 8.55 6.95 8.45 6.85 8.45 6.8 8.4 6.8 7.55 5.85 7.25 5.5 6.75 4.9 6.75 4.8 6.7 4.7 6.85 4.45 6.95 4.45 8.85 4.15 9.35 4.0 10.0 4.0 10.55 4.1 10.75 4.35 10.75 4.45 M0.3 -3.25 L1.95 -3.35 2.45 -3.35 2.6 -3.35 4.15 -3.6 7.45 -3.85 7.6 -3.95 7.3 -2.05 7.25 -1.85 7.1 -1.85 Q6.4 -1.85 5.95 -1.3 5.5 -0.75 4.75 -0.75 4.3 -0.75 3.8 -1.05 L3.25 -1.35 2.55 -1.1 2.45 -1.05 2.35 -1.0 2.3 -0.95 0.85 -1.0 0.7 -1.5 0.7 -1.55 1.35 -2.2 0.3 -3.25 M3.5 -2.05 L3.15 -1.5 3.15 -1.35 4.35 -1.6 Q4.65 -0.85 5.55 -1.35 L6.0 -1.95 6.15 -2.3 6.05 -2.5 5.65 -2.95 4.95 -3.0 Q4.0 -2.7 3.5 -2.05" fill="#c79b68" fill-rule="evenodd" stroke="none"/>
      <path d="M0.3 -3.25 L1.35 -2.2 0.7 -1.55 0.3 -3.25 M0.85 -1.0 L2.3 -0.95 2.35 -1.0 2.45 -1.05 2.55 -1.1 3.25 -1.35 3.8 -1.05 Q4.3 -0.75 4.75 -0.75 5.5 -0.75 5.95 -1.3 6.4 -1.85 7.1 -1.85 L7.25 -1.85 Q7.0 -1.1 6.4 -0.5 L5.45 0.3 4.85 0.7 4.75 0.75 3.5 1.3 Q3.25 1.25 3.1 1.05 L2.45 0.5 2.05 0.45 Q1.25 0.25 1.1 -0.05 L1.1 -0.1 0.85 -1.0 M5.1 6.8 L5.8 5.1 5.85 3.95 Q5.9 3.25 6.05 3.0 L6.15 2.85 Q6.9 1.5 7.35 1.05 L7.4 1.15 6.85 2.55 6.75 2.85 6.45 3.95 6.3 4.7 Q6.3 4.95 6.75 4.8 L6.75 4.9 Q6.85 5.4 6.55 6.05 5.8 6.3 5.2 6.7 L5.1 6.8" fill="#ebbb98" fill-rule="evenodd" stroke="none"/>
      <path d="M5.5 9.3 L4.8 8.95 3.2 8.2 4.75 7.1 5.1 6.8 5.2 6.7 Q5.8 6.3 6.55 6.05 L7.55 5.85 8.4 6.8 8.35 6.85 Q6.8 7.75 5.5 9.3 M-5.05 -0.65 L-4.8 0.15 Q-3.75 0.9 -3.45 2.95 L-3.4 3.25 -3.0 5.85 -4.65 4.45 Q-5.85 3.15 -6.35 1.25 L-6.7 -0.45 -5.05 -0.65" fill="#dbb790" fill-rule="evenodd" stroke="none"/>
    </g>
  </defs>
</svg>
