<?xml version="1.0" encoding="UTF-8" standalone="no"?>
<svg xmlns:ffdec="https://www.free-decompiler.com/flash" xmlns:xlink="http://www.w3.org/1999/xlink" ffdec:objectType="frame" height="167.5px" width="5.6px" xmlns="http://www.w3.org/2000/svg">
  <g transform="matrix(1.0, 0.0, 0.0, 1.0, 2.8, 83.0)">
    <use ffdec:characterId="3054" height="167.5" transform="matrix(1.0, 0.0, 0.0, 1.0, -2.8, -83.0)" width="5.6" xlink:href="#shape0"/>
  </g>
  <defs>
    <g id="shape0" transform="matrix(1.0, 0.0, 0.0, 1.0, 2.8, 83.0)">
      <path d="M2.45 -61.35 L1.25 -44.5 1.5 -44.4 2.8 -44.0 2.8 -42.65 1.0 -42.65 1.05 -38.2 1.5 83.0 1.05 84.05 0.65 84.35 0.25 84.5 0.0 84.5 -0.1 84.5 -0.2 84.5 -1.05 84.05 -1.5 83.0 -1.0 -38.2 -1.0 -42.65 -2.8 -42.65 -2.8 -44.0 -1.4 -44.4 -1.2 -44.5 -2.45 -61.35 0.0 -83.0 2.45 -61.35 M0.05 55.15 L0.05 54.65 0.05 54.25 0.05 55.15" fill="#00ff00" fill-rule="evenodd" stroke="none"/>
    </g>
  </defs>
</svg>
