<?xml version="1.0" encoding="UTF-8" standalone="no"?>
<svg xmlns:ffdec="https://www.free-decompiler.com/flash" xmlns:xlink="http://www.w3.org/1999/xlink" ffdec:objectType="frame" height="78.8px" width="41.95px" xmlns="http://www.w3.org/2000/svg">
  <g transform="matrix(1.0, 0.0, 0.0, 1.0, 12.6, 6.35)">
    <use ffdec:characterId="1759" ffdec:characterName="game_fla.lowerleg2_582" height="78.8" id="lowerLeg2" transform="matrix(1.0, 0.0, 0.0, 1.0, -12.6, -6.35)" width="41.95" xlink:href="#sprite0"/>
  </g>
  <defs>
    <g id="sprite0" transform="matrix(1.0, 0.0, 0.0, 1.0, 12.25, 38.15)">
      <use ffdec:characterId="1754" height="52.75" transform="matrix(1.0, 0.0, 0.0, 1.0, -12.25, -38.15)" width="21.7" xlink:href="#shape0"/>
      <use ffdec:characterId="1755" height="28.65" transform="matrix(1.0, 0.0, 0.0, 1.0, -11.3, 12.0)" width="41.0" xlink:href="#shape1"/>
      <use ffdec:characterId="1081" height="100.0" id="shape" transform="matrix(0.2, 0.0, 0.0, 0.7601, -9.9998, -38.0028)" width="100.0" xlink:href="#sprite1"/>
    </g>
    <g id="shape0" transform="matrix(1.0, 0.0, 0.0, 1.0, 12.25, 38.15)">
      <path d="M3.35 -35.7 L4.7 -37.65 6.4 -37.7 Q7.95 -36.55 8.85 -34.1 L9.2 -33.0 9.45 -28.95 8.75 -30.85 8.15 -30.8 7.25 -31.4 3.85 -28.9 3.7 -28.85 2.85 -30.3 2.7 -33.1 3.35 -35.7 M8.65 -17.25 L8.75 -17.9 8.85 -16.8 8.4 -13.1 8.2 -7.0 8.0 2.6 Q7.5 3.85 7.5 6.7 L7.6 7.75 7.45 8.3 7.35 10.55 7.45 12.05 7.25 13.5 7.2 14.55 7.2 14.6 -7.85 14.6 -8.0 13.5 -8.0 13.4 -8.35 11.65 -8.35 11.45 -8.4 11.2 -9.15 6.0 -10.75 0.45 Q-11.3 -2.05 -11.55 -5.65 -12.25 -10.05 -12.25 -15.2 L-11.95 -19.15 Q-11.7 -23.15 -11.75 -25.1 -11.85 -28.15 -10.55 -30.1 -8.25 -33.65 -5.0 -33.45 L-3.4 -33.15 -1.2 -33.0 Q-0.55 -32.75 -1.25 -32.25 L-1.4 -32.15 -1.9 -31.85 -2.05 -31.75 -2.2 -31.65 -2.2 -31.6 -3.15 -30.1 -0.1 -27.4 Q1.2 -23.1 2.8 -18.85 L3.45 -17.1 3.6 -15.8 3.65 -6.55 3.4 -3.9 3.8 -2.7 4.2 6.15 4.45 7.05 4.6 6.1 5.1 1.45 5.5 -2.45 5.85 -6.85 5.85 -6.9 Q7.5 -10.5 8.2 -14.5 L8.55 -16.7 8.65 -17.25 M-1.6 -9.15 L-1.8 -9.25 -3.1 -15.2 -6.2 -10.85 -7.95 -8.45 -9.95 -8.95 -8.7 -4.8 -7.6 -0.55 -6.75 3.15 -6.55 4.3 Q-6.1 6.45 -4.95 8.35 L-4.7 8.8 -4.65 8.95 -4.6 9.0 Q-3.5 6.25 -3.2 2.65 L-3.2 0.55 -3.2 -1.2 -2.85 -5.6 -2.8 -6.3 -2.7 -6.3 -2.05 -8.25 -1.6 -9.15" fill="#f4c398" fill-rule="evenodd" stroke="none"/>
      <path d="M9.45 -28.95 L9.4 -23.0 8.65 -17.25 8.55 -16.7 8.2 -14.5 Q7.5 -10.5 5.85 -6.9 L5.85 -6.85 5.5 -2.45 5.1 1.45 4.6 6.1 4.45 7.05 4.2 6.15 3.8 -2.7 3.4 -3.9 3.65 -6.55 3.6 -15.8 3.45 -17.1 2.8 -18.85 Q1.2 -23.1 -0.1 -27.4 L-3.15 -30.1 -2.2 -31.6 -2.2 -31.65 -2.05 -31.75 -1.9 -31.85 -1.4 -32.15 -1.25 -32.25 Q-0.55 -32.75 -1.2 -33.0 L-0.1 -34.3 2.25 -36.6 3.3 -36.15 3.35 -35.7 2.7 -33.1 2.85 -30.3 3.7 -28.85 3.85 -28.9 7.25 -31.4 8.15 -30.8 8.75 -30.85 9.45 -28.95 M-1.6 -9.15 L-2.05 -8.25 -2.7 -6.3 -2.8 -6.3 -2.85 -5.6 -3.2 -1.2 -3.2 0.55 -3.2 2.65 Q-3.5 6.25 -4.6 9.0 L-4.65 8.95 -4.7 8.8 -4.95 8.35 Q-6.1 6.45 -6.55 4.3 L-6.75 3.15 -7.6 -0.55 -8.7 -4.8 -9.95 -8.95 -7.95 -8.45 -6.2 -10.85 -3.1 -15.2 -1.8 -9.25 -1.6 -9.15" fill="#ebbb98" fill-rule="evenodd" stroke="none"/>
    </g>
    <g id="shape1" transform="matrix(1.0, 0.0, 0.0, 1.0, 11.3, -12.0)">
      <path d="M4.3 22.95 L4.4 23.15 4.2 23.7 4.3 22.95 M24.9 37.3 L24.35 37.85 24.7 37.6 24.9 37.3" fill="#ffe6e6" fill-rule="evenodd" stroke="none"/>
      <path d="M4.55 12.0 L7.95 12.0 7.9 12.7 7.85 14.45 Q7.85 16.45 9.2 19.95 L9.75 21.25 9.95 22.0 Q10.85 24.15 12.9 25.65 15.75 27.75 23.8 30.55 27.45 31.8 28.6 33.75 L28.6 34.0 28.6 35.0 Q28.7 35.65 29.5 35.95 L29.55 35.95 29.7 36.65 29.55 37.75 27.9 39.05 26.4 39.6 26.45 39.55 Q27.3 38.85 27.3 37.15 27.3 34.75 23.75 32.85 18.75 30.7 15.9 29.35 12.05 27.55 9.5 25.2 L9.15 24.65 Q7.85 22.75 6.9 22.1 4.5 18.45 4.5 13.75 L4.55 12.0 M17.75 40.55 L13.4 40.0 12.35 39.4 9.05 38.2 Q6.15 37.3 4.65 37.3 L4.15 37.3 3.2 37.55 2.3 37.5 -1.4 37.8 -0.2 37.35 2.55 36.15 6.45 36.15 Q7.75 36.6 12.2 38.8 15.2 40.1 17.75 40.55 M-7.75 37.3 Q-9.15 37.0 -9.8 35.75 L-10.15 35.4 -11.15 33.4 -11.3 31.7 Q-11.3 30.3 -10.35 27.95 -9.6 26.0 -9.45 24.55 L-8.65 22.15 -8.65 18.3 -8.6 17.8 -9.0 14.9 -9.15 14.15 -9.3 12.8 -8.9 12.8 -6.15 12.65 Q-5.25 16.35 -5.25 18.8 -5.25 22.9 -6.3 26.55 L-6.45 26.7 -8.95 29.95 Q-9.5 30.95 -9.5 32.7 L-8.95 35.1 Q-8.55 36.15 -7.85 36.7 L-7.75 37.3" fill="#f9f9f9" fill-rule="evenodd" stroke="none"/>
      <path d="M-6.15 12.65 L-3.45 12.45 3.3 12.0 4.55 12.0 4.5 13.75 Q4.5 18.45 6.9 22.1 7.85 22.75 9.15 24.65 L9.5 25.2 Q12.05 27.55 15.9 29.35 18.75 30.7 23.75 32.85 27.3 34.75 27.3 37.15 27.3 38.85 26.45 39.55 L26.4 39.6 26.05 39.65 24.3 39.9 23.1 40.4 20.55 40.65 17.75 40.55 Q15.2 40.1 12.2 38.8 7.75 36.6 6.45 36.15 L2.55 36.15 -0.2 37.35 -1.4 37.8 -1.45 37.8 -3.6 37.95 Q-5.5 37.95 -6.75 37.35 L-6.9 37.35 -7.75 37.3 -7.85 36.7 Q-8.55 36.15 -8.95 35.1 L-9.5 32.7 Q-9.5 30.95 -8.95 29.95 L-6.45 26.7 -6.3 26.55 Q-5.25 22.9 -5.25 18.8 -5.25 16.35 -6.15 12.65 M4.3 22.95 L4.2 23.7 4.4 23.15 4.3 22.95 M24.9 37.3 L24.7 37.6 24.35 37.85 24.9 37.3 M-3.35 24.1 L-3.25 23.2 Q-3.25 22.6 -3.7 22.0 -4.25 21.3 -4.55 22.6 L-4.6 23.6 -4.7 24.55 -5.55 26.7 -5.85 28.55 -5.75 29.85 Q-5.35 31.1 -3.85 31.1 L-1.65 31.4 -1.1 31.2 -0.8 30.75 -1.1 30.2 -1.1 30.1 Q-1.1 29.85 -2.6 29.5 -3.65 29.25 -3.95 28.4 L-4.1 27.75 -3.55 25.5 -3.25 24.3 -3.35 24.1" fill="#eaeaea" fill-rule="evenodd" stroke="none"/>
      <path d="M-3.35 24.1 L-3.25 24.3 -3.55 25.5 -4.1 27.75 -3.95 28.4 Q-3.65 29.25 -2.6 29.5 -1.1 29.85 -1.1 30.1 L-1.1 30.2 -0.8 30.75 -1.1 31.2 -1.65 31.4 -3.85 31.1 Q-5.35 31.1 -5.75 29.85 L-5.85 28.55 -5.55 26.7 -4.7 24.55 -4.6 23.6 -4.55 22.6 Q-4.25 21.3 -3.7 22.0 -3.25 22.6 -3.25 23.2 L-3.35 24.1" fill="#c7c7c7" fill-rule="evenodd" stroke="none"/>
    </g>
    <g id="sprite1" transform="matrix(1.0, 0.0, 0.0, 1.0, 50.0, 50.0)">
      <use ffdec:characterId="1080" height="100.0" transform="matrix(1.0, 0.0, 0.0, 1.0, -50.0, -50.0)" width="100.0" xlink:href="#shape2"/>
    </g>
    <g id="shape2" transform="matrix(1.0, 0.0, 0.0, 1.0, 50.0, 50.0)">
      <path d="M50.0 50.0 L-50.0 50.0 -50.0 -50.0 50.0 -50.0 50.0 50.0 Z" fill="none" stroke="#9900ff" stroke-linecap="round" stroke-linejoin="round" stroke-width="0.05"/>
    </g>
  </defs>
</svg>
