<?xml version="1.0" encoding="UTF-8" standalone="no"?>
<svg xmlns:ffdec="https://www.free-decompiler.com/flash" xmlns:xlink="http://www.w3.org/1999/xlink" ffdec:objectType="frame" height="28.3px" width="8.8px" xmlns="http://www.w3.org/2000/svg">
  <g transform="matrix(1.0, 0.0, 0.0, 1.0, 4.3, 15.2)">
    <use ffdec:characterId="1203" height="28.3" transform="matrix(1.0, 0.0, 0.0, 1.0, -4.3, -15.2)" width="8.8" xlink:href="#shape0"/>
  </g>
  <defs>
    <g id="shape0" transform="matrix(1.0, 0.0, 0.0, 1.0, 4.3, 15.2)">
      <path d="M3.65 -1.5 L3.1 6.0 3.8 7.15 Q4.2 8.25 4.05 9.75 L4.0 10.15 Q4.0 10.55 3.6 10.8 L2.65 11.0 2.25 11.65 1.45 12.6 1.1 12.85 1.05 12.85 0.8 12.9 -0.6 13.1 -1.05 12.95 Q-0.75 12.6 -0.3 12.6 L0.6 12.55 0.7 12.4 0.8 12.4 1.85 11.2 0.15 10.75 0.25 10.25 Q0.4 10.0 1.1 9.85 L1.35 9.85 1.8 9.55 1.75 9.0 Q1.7 8.6 1.8 8.25 2.0 7.8 2.45 7.5 L2.05 7.05 Q1.8 6.8 1.5 6.7 L1.3 6.7 0.95 6.65 Q0.3 6.65 -0.3 7.1 -0.95 7.6 -1.2 8.2 L-1.9 8.75 -2.15 8.9 -1.95 8.3 -1.8 7.8 Q-1.7 6.45 -1.35 5.85 L-1.55 4.05 Q-1.55 2.45 -2.1 0.05 L-2.4 -1.35 -2.25 -1.35 -2.35 -1.45 Q-1.2 -2.2 -0.2 -3.55 L0.5 -3.85 Q0.5 -0.7 1.75 1.95 L2.4 -1.85 3.35 -1.45 3.65 -1.5 M0.1 2.4 Q0.05 1.5 -0.75 0.4 L-1.15 -0.2 -0.7 2.4 Q-0.4 4.5 -0.8 5.9 L-0.05 5.85 0.7 5.85 Q0.25 5.35 0.15 4.3 L0.1 2.4" fill="#ffcc99" fill-rule="evenodd" stroke="none"/>
      <path d="M-1.05 12.95 L-1.8 12.7 -1.95 12.3 -2.05 12.35 -2.5 12.4 Q-3.3 12.3 -3.45 11.7 L-4.3 11.45 -4.05 10.8 -3.45 10.5 -2.25 9.2 -2.15 8.9 -1.9 8.75 -1.2 8.2 Q-0.95 7.6 -0.3 7.1 0.3 6.65 0.95 6.65 L0.8 6.9 0.5 7.65 Q0.35 7.9 0.85 8.8 L1.25 9.65 1.35 9.85 1.1 9.85 Q0.4 10.0 0.25 10.25 L0.15 10.75 1.85 11.2 0.8 12.4 0.7 12.4 0.6 12.55 -0.3 12.6 Q-0.75 12.6 -1.05 12.95 M0.1 2.4 L0.15 4.3 Q0.25 5.35 0.7 5.85 L-0.05 5.85 -0.8 5.9 Q-0.4 4.5 -0.7 2.4 L-1.15 -0.2 -0.75 0.4 Q0.05 1.5 0.1 2.4 M-2.5 -7.45 L-2.5 -7.5 -2.4 -7.45 -2.5 -7.45" fill="#ebbb98" fill-rule="evenodd" stroke="none"/>
      <path d="M0.95 6.65 L1.3 6.7 1.5 6.7 Q1.8 6.8 2.05 7.05 L2.45 7.5 Q2.0 7.8 1.8 8.25 1.7 8.6 1.75 9.0 L1.8 9.55 1.35 9.85 1.25 9.65 0.85 8.8 Q0.35 7.9 0.5 7.65 L0.8 6.9 0.95 6.65" fill="#e2b181" fill-rule="evenodd" stroke="none"/>
      <path d="M-2.2 -10.35 Q-2.5 -10.9 -2.4 -11.8 L-1.95 -13.9 -1.95 -14.0 -2.1 -15.2 Q-0.1 -14.1 0.65 -14.0 L0.9 -13.05 1.0 -12.75 1.05 -12.65 1.5 -10.4 1.2 -9.8 1.2 -8.35 1.05 -8.4 0.7 -9.0 0.45 -10.05 0.3 -10.4 -0.05 -11.7 -0.3 -11.1 -0.35 -11.0 -0.55 -10.95 Q-1.05 -11.7 -1.15 -12.6 L-1.2 -13.55 -1.2 -13.75 -1.2 -13.8 -1.3 -13.8 -1.4 -13.65 -1.8 -13.15 -1.9 -12.2 -2.15 -10.3 -2.2 -10.35 M4.25 -5.0 L4.4 -4.55 Q4.7 -3.75 4.1 -3.4 L3.0 -2.75 1.95 -3.25 1.65 -3.7 2.1 -5.0 2.55 -5.15 2.35 -5.75 3.15 -6.1 4.25 -5.0 M-3.6 -6.7 L-2.85 -7.4 Q-2.5 -7.5 -2.3 -7.25 L-2.2 -7.15 -2.0 -6.45 -0.65 -6.75 Q-0.8 -6.1 -1.1 -5.5 L-1.25 -5.1 -1.0 -4.45 -1.45 -4.0 -1.85 -3.6 -2.25 -3.45 -2.6 -4.15 -3.6 -6.7 M0.95 -7.0 L1.25 -6.4 1.35 -5.65 0.45 -4.95 -0.6 -6.85 -0.2 -7.9 0.5 -7.5 0.95 -7.0" fill="#ff0000" fill-rule="evenodd" stroke="none"/>
      <path d="M-2.2 -10.35 L-2.15 -10.3 -1.9 -12.2 -1.8 -13.15 -1.4 -13.65 -1.2 -13.55 -1.15 -12.6 Q-1.05 -11.7 -0.55 -10.95 L-0.35 -11.0 Q0.05 -9.0 -0.2 -7.9 L-0.6 -6.85 -0.65 -6.75 -2.0 -6.45 -2.2 -7.15 -2.2 -7.25 -2.25 -9.9 -2.2 -10.35 M1.2 -8.35 L1.2 -9.8 1.5 -10.4 2.5 -6.9 2.35 -5.9 1.25 -6.4 0.95 -7.0 0.95 -7.25 1.2 -8.35" fill="#ffffff" fill-rule="evenodd" stroke="none"/>
      <path d="M2.5 -6.9 L3.75 -5.8 3.85 -5.65 4.25 -5.0 3.15 -6.1 2.35 -5.75 2.55 -5.15 2.1 -5.0 1.65 -3.7 1.95 -3.25 3.0 -2.75 4.1 -3.4 3.8 -1.55 3.65 -1.5 3.35 -1.45 2.4 -1.85 1.75 1.95 Q0.5 -0.7 0.5 -3.85 L-0.2 -3.55 Q-1.2 -2.2 -2.35 -1.45 -3.0 -2.4 -3.2 -3.45 L-3.45 -5.6 -3.6 -6.7 -2.6 -4.15 -2.25 -3.45 -1.85 -3.6 -1.45 -4.0 -1.0 -4.45 -1.25 -5.1 -1.1 -5.5 Q-0.8 -6.1 -0.65 -6.75 L-0.6 -6.85 0.45 -4.95 1.35 -5.65 1.25 -6.4 2.35 -5.9 2.5 -6.9" fill="#990000" fill-rule="evenodd" stroke="none"/>
    </g>
  </defs>
</svg>
