<?xml version="1.0" encoding="UTF-8" standalone="no"?>
<svg xmlns:ffdec="https://www.free-decompiler.com/flash" xmlns:xlink="http://www.w3.org/1999/xlink" ffdec:objectType="frame" height="99.95px" width="602.0px" xmlns="http://www.w3.org/2000/svg">
  <g transform="matrix(1.0, 0.0, 0.0, 1.0, 0.0, 0.0)">
    <use ffdec:characterId="3114" height="99.95" transform="matrix(1.0, 0.0, 0.0, 1.0, 0.0, 0.0)" width="40.0" xlink:href="#sprite0"/>
    <use ffdec:characterId="3114" height="99.95" transform="matrix(1.0, 0.0, 0.0, 1.0, 40.0, 0.0)" width="40.0" xlink:href="#sprite0"/>
    <use ffdec:characterId="3114" height="99.95" transform="matrix(1.0, 0.0, 0.0, 1.0, 80.0, 0.0)" width="40.0" xlink:href="#sprite0"/>
    <use ffdec:characterId="3114" height="99.95" transform="matrix(1.0, 0.0, 0.0, 1.0, 120.0, 0.0)" width="40.0" xlink:href="#sprite0"/>
    <use ffdec:characterId="3114" height="99.95" transform="matrix(1.0, 0.0, 0.0, 1.0, 160.0, 0.0)" width="40.0" xlink:href="#sprite0"/>
    <use ffdec:characterId="3114" height="99.95" transform="matrix(1.0, 0.0, 0.0, 1.0, 200.0, 0.0)" width="40.0" xlink:href="#sprite0"/>
    <use ffdec:characterId="3114" height="99.95" transform="matrix(1.0, 0.0, 0.0, 1.0, 240.0, 0.0)" width="40.0" xlink:href="#sprite0"/>
    <use ffdec:characterId="3114" height="99.95" transform="matrix(1.0, 0.0, 0.0, 1.0, 280.0, 0.0)" width="40.0" xlink:href="#sprite0"/>
    <use ffdec:characterId="3114" height="99.95" transform="matrix(1.0, 0.0, 0.0, 1.0, 320.0, 0.0)" width="40.0" xlink:href="#sprite0"/>
    <use ffdec:characterId="3114" height="99.95" transform="matrix(1.0, 0.0, 0.0, 1.0, 360.0, 0.0)" width="40.0" xlink:href="#sprite0"/>
    <use ffdec:characterId="3114" height="99.95" transform="matrix(1.0, 0.0, 0.0, 1.0, 400.0, 0.0)" width="40.0" xlink:href="#sprite0"/>
    <use ffdec:characterId="3114" height="99.95" transform="matrix(1.0, 0.0, 0.0, 1.0, 440.0, 0.0)" width="40.0" xlink:href="#sprite0"/>
    <use ffdec:characterId="3114" height="99.95" transform="matrix(1.0, 0.0, 0.0, 1.0, 480.0, 0.0)" width="40.0" xlink:href="#sprite0"/>
    <use ffdec:characterId="3114" height="99.95" transform="matrix(1.0, 0.0, 0.0, 1.0, 520.0, 0.0)" width="40.0" xlink:href="#sprite0"/>
    <use ffdec:characterId="3114" height="99.95" transform="matrix(1.0, 0.0, 0.0, 1.0, 560.0, 0.0)" width="40.0" xlink:href="#sprite0"/>
    <use ffdec:characterId="3115" height="99.95" transform="matrix(1.0, 0.0, 0.0, 1.0, 600.0, 0.0)" width="2.0" xlink:href="#shape1"/>
  </g>
  <defs>
    <g id="sprite0" transform="matrix(1.0, 0.0, 0.0, 1.0, 0.0, 0.0)">
      <use ffdec:characterId="3113" height="99.95" transform="matrix(1.0, 0.0, 0.0, 1.0, 0.0, 0.0)" width="40.0" xlink:href="#shape0"/>
    </g>
    <g id="shape0" transform="matrix(1.0, 0.0, 0.0, 1.0, 0.0, 0.0)">
      <path d="M0.0 89.95 L0.0 0.0 2.0 0.0 2.0 5.0 2.0 59.95 38.5 59.95 40.0 59.95 40.0 61.95 2.0 61.95 2.0 63.95 2.0 89.95 0.0 89.95" fill="#495e73" fill-rule="evenodd" stroke="none"/>
      <path d="M40.0 89.95 L40.0 96.95 0.0 96.95 0.0 89.95 2.0 89.95 38.5 89.95 40.0 89.95" fill="#aaaeba" fill-rule="evenodd" stroke="none"/>
      <path d="M2.0 0.0 L40.0 0.0 40.0 59.95 38.5 59.95 38.5 5.0 2.0 5.0 2.0 0.0 M40.0 61.95 L40.0 89.95 38.5 89.95 38.5 63.95 2.0 63.95 2.0 61.95 40.0 61.95" fill="#000000" fill-opacity="0.29803923" fill-rule="evenodd" stroke="none"/>
      <path d="M40.0 96.95 L40.0 99.95 0.0 99.95 0.0 96.95 40.0 96.95" fill="#2e3e4e" fill-rule="evenodd" stroke="none"/>
    </g>
    <g id="shape1" transform="matrix(1.0, 0.0, 0.0, 1.0, -600.0, 0.0)">
      <path d="M602.0 90.0 L602.0 99.95 600.0 99.95 600.0 90.0 602.0 90.0" fill="#aaaeba" fill-rule="evenodd" stroke="none"/>
      <path d="M600.0 90.0 L600.0 0.0 602.0 0.0 602.0 90.0 600.0 90.0" fill="#495e73" fill-rule="evenodd" stroke="none"/>
    </g>
  </defs>
</svg>
