<?xml version="1.0" encoding="UTF-8" standalone="no"?>
<svg xmlns:ffdec="https://www.free-decompiler.com/flash" xmlns:xlink="http://www.w3.org/1999/xlink" ffdec:objectType="frame" height="27.3px" width="27.3px" xmlns="http://www.w3.org/2000/svg">
  <g transform="matrix(1.0, 0.0, 0.0, 1.0, 15.95, 13.2)">
    <use ffdec:characterId="2064" height="27.3" transform="matrix(1.0, 0.0, 0.0, 1.0, -15.95, -13.2)" width="27.3" xlink:href="#shape0"/>
  </g>
  <defs>
    <g id="shape0" transform="matrix(1.0, 0.0, 0.0, 1.0, 15.95, 13.2)">
      <path d="M1.0 -11.4 L1.5 -11.95 1.95 -12.0 2.5 -11.85 3.05 -9.25 4.0 -8.35 5.0 -7.7 5.1 -7.7 6.25 -7.4 7.95 -6.75 10.5 -4.95 11.3 -4.25 11.35 -3.25 10.95 -2.7 10.75 -1.15 10.15 -0.75 8.75 -0.25 8.35 -0.25 7.35 0.4 6.8 0.05 5.3 1.25 3.75 0.35 4.9 -1.55 4.45 -1.55 2.4 -3.95 1.45 -4.15 0.9 -4.05 -0.65 -4.95 -0.6 -5.0 0.1 -5.45 0.6 -5.3 4.4 -3.5 6.1 -2.7 6.95 -2.2 7.9 -1.9 7.75 -3.15 8.0 -3.45 7.9 -4.1 8.5 -4.6 9.0 -5.1 8.9 -5.4 8.7 -5.7 8.45 -6.0 7.0 -6.45 6.25 -5.75 5.05 -5.9 4.45 -6.7 3.15 -7.65 2.7 -7.9 1.75 -8.35 1.85 -9.7 0.8 -10.25 1.0 -11.4 M-8.35 -4.25 Q-8.05 -6.95 -6.2 -9.05 -6.75 -10.1 -6.3 -11.3 L-5.8 -11.5 -5.05 -11.3 -1.8 -11.15 -1.0 -10.15 -1.75 -9.8 -1.9 -9.3 -2.7 -8.9 -2.55 -7.95 -2.2 -7.7 -2.05 -7.15 -2.45 -6.4 -3.5 -6.0 -3.1 -5.6 -3.2 -4.45 -3.6 -4.3 -4.05 -4.45 -5.25 -6.95 -5.95 -6.5 -5.9 -5.95 Q-5.9 -2.95 -8.35 -4.25 M-0.1 -13.2 L0.35 -13.1 0.95 -11.9 Q0.65 -11.4 0.15 -11.6 L-0.4 -11.75 -0.75 -12.6 -0.1 -13.2 M-0.15 -8.95 L-0.1 -9.0 0.05 -8.85 -0.15 -8.95 M0.25 -8.65 L0.95 -8.2 1.3 -7.15 1.1 -6.5 0.1 -6.05 -0.4 -5.85 -1.2 -6.25 -0.9 -6.45 Q0.1 -7.35 0.25 -8.65 M6.75 4.35 L5.25 3.15 4.2 2.15 4.7 1.7 5.45 1.5 6.55 2.95 6.8 4.05 6.75 4.35 M-3.55 -3.5 L-2.85 -3.95 -1.95 -3.85 -0.95 -2.5 -0.65 -1.4 -1.5 0.05 -2.25 0.05 -3.5 -0.2 -3.8 -0.8 Q-4.35 -2.2 -3.55 -3.5" fill="#ff0000" fill-rule="evenodd" stroke="none"/>
      <path d="M-1.8 -11.15 L-1.8 -12.4 -0.1 -13.2 -0.75 -12.6 -0.4 -11.75 0.15 -11.6 Q0.65 -11.4 0.95 -11.9 L1.0 -11.4 0.8 -10.25 0.6 -10.1 -0.05 -9.8 -1.0 -10.15 -1.8 -11.15 M-2.2 -7.7 Q-2.45 -8.8 -1.45 -9.1 L-0.15 -8.95 0.05 -8.85 0.25 -8.65 Q0.1 -7.35 -0.9 -6.45 L-1.2 -6.25 -1.55 -6.5 -2.05 -7.15 -2.2 -7.7" fill="#ffffff" fill-rule="evenodd" stroke="none"/>
      <path d="M8.75 -0.25 L9.1 0.75 8.55 1.5 8.2 2.2 7.15 2.85 6.55 2.95 5.45 1.5 4.7 1.7 4.2 2.15 5.25 3.15 6.75 4.35 6.85 5.3 6.5 5.85 4.9 6.05 Q4.3 4.4 2.85 3.2 L3.05 0.35 2.7 -0.35 1.8 -1.9 0.35 -1.7 0.35 -1.2 0.05 0.55 -1.1 1.25 -1.9 1.1 -3.5 -0.2 -2.25 0.05 -1.5 0.05 -0.65 -1.4 -0.95 -2.5 -1.95 -3.85 -2.85 -3.95 -3.55 -3.5 -3.6 -4.3 -3.2 -4.45 -3.1 -5.6 -3.5 -6.0 -2.45 -6.4 -2.05 -7.15 -1.55 -6.5 -1.2 -6.25 -0.4 -5.85 0.1 -6.05 0.6 -5.3 0.1 -5.45 -0.6 -5.0 -0.65 -4.95 0.9 -4.05 1.45 -4.15 2.4 -3.95 4.45 -1.55 4.9 -1.55 3.75 0.35 5.3 1.25 6.8 0.05 7.35 0.4 8.35 -0.25 8.75 -0.25 M0.8 -10.25 L1.85 -9.7 1.75 -8.35 2.7 -7.9 3.15 -7.65 4.45 -6.7 5.05 -5.9 6.25 -5.75 7.0 -6.45 8.45 -6.0 8.7 -5.7 8.9 -5.4 9.0 -5.1 8.5 -4.6 7.9 -4.1 8.0 -3.45 7.75 -3.15 7.9 -1.9 6.95 -2.2 6.1 -2.7 4.4 -3.5 4.65 -3.95 Q4.05 -5.6 2.5 -6.95 L1.3 -7.15 0.95 -8.2 0.25 -8.65 0.05 -8.85 -0.1 -9.0 -0.15 -8.95 -1.45 -9.1 Q-2.45 -8.8 -2.2 -7.7 L-2.55 -7.95 -2.7 -8.9 -1.9 -9.3 -1.75 -9.8 -1.0 -10.15 -0.05 -9.8 0.6 -10.1 0.8 -10.25" fill="#990000" fill-rule="evenodd" stroke="none"/>
      <path d="M4.4 -3.5 L0.6 -5.3 0.1 -6.05 1.1 -6.5 1.3 -7.15 2.5 -6.95 Q4.05 -5.6 4.65 -3.95 L4.4 -3.5" fill="#650101" fill-rule="evenodd" stroke="none"/>
      <path d="M8.2 2.2 L7.25 4.4 7.25 7.1 7.4 7.65 7.1 7.15 6.5 5.85 6.85 5.3 6.75 4.35 6.8 4.05 6.55 2.95 7.15 2.85 8.2 2.2 M4.8 8.6 Q1.35 6.9 -0.05 6.6 L-0.5 6.5 Q-0.3 4.3 -1.9 1.1 L-1.1 1.25 1.65 4.0 3.15 5.85 4.8 8.6 M0.35 -1.2 L0.35 -1.7 1.8 -1.9 2.7 -0.35 0.35 -1.2" fill="#e2b181" fill-rule="evenodd" stroke="none"/>
      <path d="M7.25 4.4 L8.2 6.45 8.25 6.55 10.3 13.15 7.7 10.55 Q7.05 10.0 4.8 8.6 L3.15 5.85 1.65 4.0 -1.1 1.25 0.05 0.55 0.35 -1.2 2.7 -0.35 3.05 0.35 2.85 3.2 Q4.3 4.4 4.9 6.05 L6.5 5.85 7.1 7.15 7.4 7.65 7.25 7.1 7.25 4.4 M-0.5 6.5 L-3.65 6.0 Q-6.2 5.8 -8.65 5.95 L-11.0 6.05 -11.35 6.3 -10.8 2.8 -9.85 -0.5 -8.45 -4.05 -8.35 -4.25 Q-5.9 -2.95 -5.9 -5.95 L-5.95 -6.5 -5.25 -6.95 -4.05 -4.45 -3.6 -4.3 -3.55 -3.5 Q-4.35 -2.2 -3.8 -0.8 L-3.5 -0.2 -1.9 1.1 Q-0.3 4.3 -0.5 6.5" fill="#ffcc99" fill-rule="evenodd" stroke="none"/>
      <path d="M-11.95 9.75 Q-13.05 9.8 -15.95 10.9 -13.7 1.95 -12.15 -2.55 -8.35 -3.55 7.8 2.85 9.25 3.85 10.3 5.15 L11.3 14.1 Q9.25 12.1 5.7 11.3 L2.5 10.5 -11.95 9.75" fill="#fd8181" fill-rule="evenodd" stroke="none"/>
    </g>
  </defs>
</svg>
