<?xml version="1.0" encoding="UTF-8" standalone="no"?>
<svg xmlns:ffdec="https://www.free-decompiler.com/flash" xmlns:xlink="http://www.w3.org/1999/xlink" ffdec:objectType="frame" height="10.0px" width="500.0px" xmlns="http://www.w3.org/2000/svg">
  <g transform="matrix(1.0, 0.0, 0.0, 1.0, 0.0, 0.0)">
    <use ffdec:characterId="827" height="10.0" id="bg" transform="matrix(1.0, 0.0, 0.0, 1.0, 0.0, 0.0)" width="500.0" xlink:href="#sprite0"/>
    <use ffdec:characterId="828" height="10.0" id="scrollTab" transform="matrix(1.0, 0.0, 0.0, 1.0, 0.0, 0.0)" width="500.0" xlink:href="#sprite1"/>
  </g>
  <defs>
    <g id="sprite0" transform="matrix(1.0, 0.0, 0.0, 1.0, 0.0, 0.0)">
      <use ffdec:characterId="823" height="270.0" transform="matrix(50.0, 0.0, 0.0, 0.037, 0.0, 0.0)" width="10.0" xlink:href="#shape0"/>
    </g>
    <g id="shape0" transform="matrix(1.0, 0.0, 0.0, 1.0, 0.0, 0.0)">
      <path d="M10.0 0.0 L10.0 270.0 0.0 270.0 0.0 0.0 10.0 0.0" fill="#666666" fill-rule="evenodd" stroke="none"/>
    </g>
    <g id="sprite1" transform="matrix(1.0, 0.0, 0.0, 1.0, 0.0, 0.0)">
      <use ffdec:characterId="87" height="30.0" transform="matrix(16.6667, 0.0, 0.0, 0.3333, 0.0, 0.0)" width="30.0" xlink:href="#shape1"/>
    </g>
    <g id="shape1" transform="matrix(1.0, 0.0, 0.0, 1.0, 0.0, 0.0)">
      <path d="M30.0 30.0 L0.0 30.0 0.0 0.0 30.0 0.0 30.0 30.0" fill="#cccccc" fill-rule="evenodd" stroke="none"/>
    </g>
  </defs>
</svg>
