<?xml version="1.0" encoding="UTF-8" standalone="no"?>
<svg xmlns:ffdec="https://www.free-decompiler.com/flash" xmlns:xlink="http://www.w3.org/1999/xlink" ffdec:objectType="frame" height="64.25px" width="34.75px" xmlns="http://www.w3.org/2000/svg">
  <g transform="matrix(1.0, 0.0, 0.0, 1.0, 15.6, 33.05)">
    <use ffdec:characterId="1184" height="64.25" transform="matrix(1.0, 0.0, 0.0, 1.0, -15.6, -33.05)" width="34.75" xlink:href="#shape0"/>
  </g>
  <defs>
    <g id="shape0" transform="matrix(1.0, 0.0, 0.0, 1.0, 15.6, 33.05)">
      <path d="M14.0 -19.15 L14.7 -19.0 15.15 -19.45 15.2 -19.6 Q15.5 -20.9 15.1 -22.0 L14.85 -22.55 14.9 -22.9 16.8 -23.9 19.0 -24.85 19.15 -24.85 16.8 -20.1 15.75 -17.85 15.55 -17.4 15.5 -15.45 15.0 -8.55 14.7 -8.6 12.0 -9.9 11.85 -9.15 12.5 -8.35 11.6 -7.55 11.85 -6.3 10.0 -6.85 9.4 -6.35 11.5 -3.9 9.85 -3.45 8.05 -3.85 7.45 -3.4 9.55 -1.15 8.55 -0.9 6.75 -0.9 6.3 -0.55 6.1 -0.05 Q5.15 0.5 5.05 1.65 L5.05 1.85 5.05 2.4 8.75 1.45 10.15 1.95 8.15 2.85 8.65 4.15 12.75 4.2 12.65 4.6 Q12.55 5.05 11.95 5.05 L11.55 5.05 -0.9 5.0 -10.0 5.0 -12.95 5.0 -13.5 5.0 -14.8 5.0 -15.15 -2.6 Q-14.6 -1.15 -13.8 -0.25 L-13.75 -0.15 -13.6 0.0 Q-11.55 2.0 -8.05 0.7 L-7.0 0.15 -7.85 -0.9 -7.65 -2.7 -6.1 -1.85 -5.15 -2.0 -5.05 -2.5 -6.1 -3.85 -3.65 -3.65 -3.45 -4.25 -5.4 -6.35 -6.25 -7.65 -3.2 -6.3 -2.85 -6.85 -1.1 -6.9 1.05 -5.25 1.15 -7.0 3.4 -3.4 3.8 -3.25 4.3 -3.55 2.9 -9.05 8.1 -6.35 8.5 -6.6 Q6.8 -9.2 4.55 -11.05 L3.7 -11.75 1.85 -12.95 0.5 -13.95 5.9 -12.35 5.1 -13.5 5.6 -13.5 6.15 -13.7 6.25 -14.0 Q6.15 -14.2 5.65 -14.4 L8.75 -13.45 5.85 -16.25 6.55 -17.2 6.1 -17.5 7.1 -17.5 7.3 -17.55 8.15 -16.0 8.5 -16.45 Q8.65 -15.95 9.1 -15.5 9.9 -14.75 10.6 -14.75 L12.5 -15.0 13.0 -15.75 13.15 -16.85 13.8 -18.6 14.0 -19.15 M14.7 -5.95 L14.5 -4.6 12.55 -5.9 14.7 -5.95 M14.1 -2.0 L14.05 -1.9 13.0 -1.75 12.7 -1.95 13.95 -2.1 14.1 -2.0 M-15.25 -6.2 L-15.25 -6.35 -13.7 -3.85 -15.25 -6.2 M-7.2 -26.55 L-6.75 -25.9 -6.5 -25.45 -4.8 -22.65 -4.85 -22.7 -6.4 -23.0 -6.7 -23.0 -6.75 -23.05 -8.5 -23.8 -8.25 -24.05 -8.15 -24.75 -7.9 -26.55 -7.85 -27.5 -7.2 -26.55 M-3.8 -20.8 L-3.75 -20.9 -3.75 -20.95 -3.6 -20.9 -3.8 -20.8" fill="#242724" fill-rule="evenodd" stroke="none"/>
      <path d="M7.3 -17.55 L7.1 -17.5 6.1 -17.5 0.7 -17.85 1.35 -18.8 Q1.95 -20.1 2.55 -20.1 3.05 -20.1 3.95 -19.4 4.85 -18.75 5.45 -18.75 L6.65 -19.0 7.3 -17.55 M5.65 -14.4 Q6.15 -14.2 6.25 -14.0 L6.15 -13.7 5.6 -13.5 5.1 -13.5 4.95 -13.5 -0.35 -14.85 -2.8 -15.75 -2.3 -16.1 Q0.8 -17.7 4.0 -15.5 L5.65 -14.4 M-2.25 -19.1 L-1.05 -17.95 -2.5 -18.05 -2.25 -19.1" fill="#8ab66c" fill-rule="evenodd" stroke="none"/>
      <path d="M15.0 -8.35 L14.7 -6.05 12.5 -8.35 11.85 -9.15 12.0 -9.9 14.7 -8.6 15.0 -8.35 M14.5 -4.6 L14.5 -4.55 14.1 -2.0 13.95 -2.1 11.5 -3.9 9.4 -6.35 10.0 -6.85 11.85 -6.3 12.55 -5.9 14.5 -4.6 M13.95 -1.15 L13.05 3.1 10.15 1.95 8.75 1.45 6.1 -0.05 6.3 -0.55 6.75 -0.9 8.55 -0.9 10.7 -0.3 9.55 -1.15 7.45 -3.4 8.05 -3.85 9.85 -3.45 12.65 -2.0 12.7 -1.95 13.0 -1.75 13.95 -1.15 M-15.25 -7.7 L-15.25 -8.8 -15.0 -9.6 -14.3 -9.15 Q-9.9 -6.15 -8.25 -1.1 -8.75 -1.25 -9.15 -1.5 -12.25 -2.9 -14.1 -5.55 L-15.25 -7.7 M6.1 -17.5 L6.55 -17.2 5.85 -16.25 0.5 -17.35 2.05 -16.65 4.0 -15.5 Q0.8 -17.7 -2.3 -16.1 L-2.8 -15.75 -3.35 -15.95 0.5 -13.95 1.85 -12.95 2.6 -12.0 2.5 -11.1 2.45 -11.0 2.35 -11.05 -2.3 -12.7 0.5 -9.3 -0.1 -9.15 -4.4 -11.2 -0.65 -7.75 -1.1 -6.9 -2.85 -6.85 -4.8 -7.95 Q-7.4 -9.4 -9.7 -11.25 L-9.2 -11.4 Q-3.7 -13.25 -4.55 -18.8 -3.95 -19.6 -3.8 -20.8 L-3.6 -20.9 -3.75 -20.95 -3.75 -21.1 -3.25 -20.65 -3.15 -20.15 -2.3 -19.15 -2.25 -19.1 -2.5 -18.05 -1.05 -17.95 Q-0.5 -17.5 -0.15 -17.5 0.3 -17.5 0.7 -17.85 L6.1 -17.5 M-5.4 -6.35 L-3.45 -4.25 -3.65 -3.65 -6.1 -3.85 -7.25 -4.45 -9.8 -6.35 Q-11.05 -7.05 -11.9 -8.4 L-14.25 -11.45 -14.25 -11.55 -14.25 -11.75 -11.45 -11.25 Q-8.8 -8.4 -5.4 -6.35 M4.95 -13.5 L4.6 -13.0 -0.35 -14.85 4.95 -13.5" fill="#44855a" fill-rule="evenodd" stroke="none"/>
      <path d="M15.0 -8.55 L15.0 -8.35 14.7 -8.6 15.0 -8.55 M14.7 -6.05 L14.8 -5.95 14.7 -5.95 12.55 -5.9 11.85 -6.3 11.6 -7.55 12.5 -8.35 14.7 -6.05 M14.05 -1.9 L13.95 -1.15 13.0 -1.75 14.05 -1.9 M13.05 3.1 L12.75 4.2 8.65 4.15 8.15 2.85 10.15 1.95 13.05 3.1 M-15.15 -2.6 L-15.2 -4.45 -15.25 -6.2 -13.7 -3.85 -15.25 -6.35 -15.25 -7.45 -15.25 -7.7 -14.1 -5.55 Q-12.25 -2.9 -9.15 -1.5 -8.75 -1.25 -8.25 -1.1 -9.9 -6.15 -14.3 -9.15 L-15.0 -9.6 -15.25 -8.8 -15.25 -10.2 -15.25 -10.3 -15.25 -10.45 -15.25 -12.1 -14.6 -11.85 -14.25 -9.5 -14.25 -11.4 -14.25 -11.45 -11.9 -8.4 Q-11.05 -7.05 -9.8 -6.35 L-7.25 -4.45 -6.1 -3.85 -5.05 -2.5 -5.15 -2.0 -6.1 -1.85 -7.65 -2.7 -7.85 -0.9 -7.0 0.15 -8.05 0.7 Q-11.55 2.0 -13.6 0.0 L-13.75 -0.15 -13.8 -0.25 Q-14.6 -1.15 -15.15 -2.6 M5.85 -16.25 L8.75 -13.45 5.65 -14.4 4.0 -15.5 2.05 -16.65 0.5 -17.35 5.85 -16.25 M5.1 -13.5 L5.9 -12.35 0.5 -13.95 -3.35 -15.95 -2.8 -15.75 -0.35 -14.85 4.6 -13.0 4.95 -13.5 5.1 -13.5 M1.85 -12.95 L3.7 -11.75 4.55 -11.05 Q6.8 -9.2 8.5 -6.6 L8.1 -6.35 2.9 -9.05 4.3 -3.55 3.8 -3.25 3.4 -3.4 1.15 -7.0 1.05 -5.25 -1.1 -6.9 -0.65 -7.75 -4.4 -11.2 -0.1 -9.15 0.5 -9.3 -2.3 -12.7 2.35 -11.05 2.45 -11.0 2.5 -11.1 2.6 -12.0 1.85 -12.95 M-2.85 -6.85 L-3.2 -6.3 -6.25 -7.65 -5.4 -6.35 Q-8.8 -8.4 -11.45 -11.25 L-9.7 -11.25 Q-7.4 -9.4 -4.8 -7.95 L-2.85 -6.85 M11.5 -3.9 L13.95 -2.1 12.7 -1.95 12.65 -2.0 9.85 -3.45 11.5 -3.9 M8.55 -0.9 L9.55 -1.15 10.7 -0.3 8.55 -0.9 M8.75 1.45 L5.05 2.4 5.05 1.85 5.05 1.65 Q5.15 0.5 6.1 -0.05 L8.75 1.45" fill="#2c5277" fill-rule="evenodd" stroke="none"/>
      <path d="M-15.2 -12.55 L-15.2 -12.75 -15.2 -12.9 -15.2 -13.4 -15.15 -14.45 -15.05 -14.4 -14.75 -12.55 -15.2 -12.55 M-7.75 -22.6 L-8.25 -22.25 -8.75 -21.35 -8.55 -22.35 -8.35 -23.4 -7.75 -22.6 M-8.95 -20.4 L-8.8 -18.8 Q-8.7 -18.35 -8.2 -18.1 L-6.85 -17.65 Q-5.5 -17.9 -4.7 -18.65 L-4.5 -17.45 Q-4.05 -14.05 -11.15 -12.95 L-13.4 -12.65 -14.2 -12.6 -14.05 -14.1 -13.85 -14.05 -13.45 -14.0 -12.0 -14.1 Q-10.7 -14.4 -9.25 -15.35 -11.1 -15.3 -12.7 -15.9 L-13.35 -16.1 -13.95 -15.95 -14.0 -16.55 -14.15 -18.05 -12.75 -18.15 Q-11.75 -18.35 -10.85 -18.9 L-9.6 -17.25 -8.95 -20.4" fill="#e58a8a" fill-rule="evenodd" stroke="none"/>
      <path d="M-15.25 -12.1 L-15.2 -12.55 -14.75 -12.55 -14.6 -11.85 -15.25 -12.1 M-15.15 -14.45 L-15.1 -14.85 -15.05 -14.4 -15.15 -14.45 M-14.5 -20.2 L-14.65 -21.15 -15.6 -25.85 -15.6 -26.0 -13.5 -22.95 -13.35 -22.75 -12.95 -22.15 -12.85 -21.95 -12.4 -21.25 -12.35 -21.15 -11.65 -20.1 -10.85 -18.9 Q-11.75 -18.35 -12.75 -18.15 L-14.15 -18.05 -14.2 -18.15 -14.4 -19.8 -14.5 -20.2 M-6.7 -23.0 L-7.75 -22.6 -8.35 -23.4 -8.65 -23.65 -8.5 -23.8 -6.75 -23.05 -6.7 -23.0 M-8.75 -21.35 L-8.8 -21.2 -8.75 -21.35 M-4.7 -18.65 L-4.55 -18.8 Q-3.7 -13.25 -9.2 -11.4 L-9.7 -11.25 -11.45 -11.25 -14.25 -11.75 -14.2 -12.6 -13.4 -12.65 -11.15 -12.95 Q-4.05 -14.05 -4.5 -17.45 L-4.7 -18.65 M-13.95 -15.95 L-13.35 -16.1 -12.7 -15.9 Q-11.1 -15.3 -9.25 -15.35 -10.7 -14.4 -12.0 -14.1 L-13.45 -14.0 -13.85 -14.05 -14.05 -14.1 -13.85 -15.05 -13.95 -15.95" fill="#a65b5b" fill-rule="evenodd" stroke="none"/>
      <path d="M-3.2 -27.4 L-2.3 -26.6 -0.8 -25.6 -0.6 -25.45 -0.1 -25.25 0.6 -25.35 0.8 -25.9 Q1.45 -27.5 3.0 -28.4 L4.65 -28.25 4.55 -25.2 4.5 -24.75 4.45 -23.75 4.45 -23.7 Q4.35 -22.3 5.0 -21.15 L5.25 -20.8 6.35 -20.65 7.15 -21.0 7.85 -21.8 11.55 -20.2 Q10.0 -18.65 8.5 -16.45 L8.15 -16.0 7.3 -17.55 6.65 -19.0 5.45 -18.75 Q4.85 -18.75 3.95 -19.4 3.05 -20.1 2.55 -20.1 1.95 -20.1 1.35 -18.8 L0.7 -17.85 Q0.3 -17.5 -0.15 -17.5 -0.5 -17.5 -1.05 -17.95 L-2.25 -19.1 -2.3 -19.15 -3.15 -20.15 -3.25 -20.65 -2.3 -20.4 -1.85 -20.4 -1.6 -20.45 Q0.1 -21.4 -0.15 -23.4 L-0.3 -24.05 -1.5 -25.0 -1.6 -25.05 -2.3 -25.15 Q-3.05 -25.15 -3.6 -24.6 L-4.05 -23.85 Q-4.4 -23.05 -4.2 -22.3 L-4.8 -22.65 -6.5 -25.45 -5.55 -26.1 -3.3 -27.45 -3.2 -27.4 M11.05 7.8 L10.4 11.45 Q11.05 19.85 9.2 23.1 7.3 26.3 7.0 25.45 L3.65 29.15 Q2.25 31.05 0.05 31.2 -2.05 31.2 -4.2 30.25 L-7.05 28.75 -8.45 27.45 Q-9.2 26.5 -9.55 25.55 L-10.7 22.8 Q-12.9 17.0 -12.95 12.45 L-13.4 7.55 -12.15 7.55 -12.05 8.1 Q-11.95 8.75 -11.15 9.55 -10.5 10.2 -8.7 11.3 -7.85 11.3 -6.2 13.0 L-5.85 13.35 -6.0 11.6 Q-6.1 10.8 -7.6 9.05 L-8.7 7.8 -8.85 7.6 -8.8 7.6 Q2.6 6.2 11.05 7.8 M-8.8 -21.2 L-8.9 -20.65 -8.95 -20.4 -9.6 -17.25 -10.85 -18.9 -11.65 -20.1 -10.1 -22.1 -8.65 -23.65 -8.35 -23.4 -8.55 -22.35 -8.75 -21.35 -8.8 -21.2" fill="#ffcc99" fill-rule="evenodd" stroke="none"/>
      <path d="M-12.15 7.55 L-8.85 7.6 -8.7 7.8 -7.6 9.05 Q-6.1 10.8 -6.0 11.6 L-5.85 13.35 -6.2 13.0 Q-7.85 11.3 -8.7 11.3 -10.5 10.2 -11.15 9.55 -11.95 8.75 -12.05 8.1 L-12.15 7.55" fill="#f4c398" fill-rule="evenodd" stroke="none"/>
      <path d="M-8.8 7.6 L-8.85 7.6 -12.15 7.55 -12.9 5.25 -12.95 5.0 -10.0 5.0 -9.95 5.2 -8.8 7.6" fill="#cda57e" fill-rule="evenodd" stroke="none"/>
      <path d="M11.55 5.05 L11.05 7.8 Q2.6 6.2 -8.8 7.6 L-9.95 5.2 -10.0 5.0 -0.9 5.0 11.55 5.05 M-13.4 7.55 L-13.5 5.25 -13.5 5.0 -12.95 5.0 -12.9 5.25 -12.15 7.55 -13.4 7.55" fill="#e2b181" fill-rule="evenodd" stroke="none"/>
      <path d="M6.75 -31.4 L5.55 -31.4 4.8 -31.4 3.1 -30.9 2.7 -29.8 6.9 -26.9 6.0 -27.15 6.35 -26.6 7.0 -26.5 7.65 -25.5 Q10.0 -23.05 13.3 -21.8 L13.55 -21.75 13.7 -21.7 14.15 -21.55 14.85 -22.55 15.1 -22.0 Q15.5 -20.9 15.2 -19.6 L15.15 -19.45 14.7 -19.0 14.0 -19.15 13.85 -19.2 11.55 -20.2 7.85 -21.8 7.15 -21.0 6.35 -20.65 5.25 -20.8 5.0 -21.15 Q4.35 -22.3 4.45 -23.7 L4.45 -23.75 4.5 -24.75 4.55 -25.2 4.65 -28.25 3.0 -28.4 Q1.45 -27.5 0.8 -25.9 L0.6 -25.35 -0.1 -25.25 -0.6 -25.45 -0.8 -25.6 -2.3 -26.6 -3.2 -27.4 -2.3 -27.35 -2.2 -27.35 -1.55 -27.65 -2.25 -28.9 -1.8 -29.3 Q-0.1 -29.85 1.15 -31.05 L1.35 -31.95 1.35 -32.05 2.6 -32.0 Q4.6 -32.15 6.75 -31.4 M13.75 -24.45 L13.6 -24.6 Q12.2 -25.8 10.5 -24.85 L9.8 -24.5 7.25 -26.55 7.8 -27.1 7.85 -27.3 10.55 -26.85 12.35 -26.5 13.5 -24.85 13.75 -24.45 M11.25 -27.9 L8.5 -28.8 9.75 -29.45 11.25 -27.9 M-15.1 -14.85 L-15.25 -15.7 -15.4 -16.85 -15.35 -17.95 -14.5 -20.2 -14.4 -19.8 -14.2 -18.15 -14.15 -18.05 -14.0 -16.55 -13.95 -15.95 -13.85 -15.05 -14.05 -14.1 -14.2 -12.6 -14.25 -11.75 -14.25 -11.55 -14.25 -11.45 -14.25 -11.4 -14.25 -9.5 -14.6 -11.85 -14.75 -12.55 -15.05 -14.4 -15.1 -14.85 M-13.35 -22.75 L-13.15 -23.15 -11.95 -25.2 -11.45 -26.0 Q-10.4 -27.55 -8.85 -28.6 -7.4 -29.85 -5.6 -30.55 L-1.45 -32.25 -4.8 -29.4 -3.2 -29.25 Q-4.3 -29.0 -5.2 -28.25 L-7.2 -26.55 -7.85 -27.5 -7.9 -26.55 Q-9.3 -26.5 -10.6 -25.7 L-11.45 -25.0 -11.9 -24.4 -12.65 -22.65 -12.75 -22.2 -12.85 -21.95 -12.95 -22.15 -13.35 -22.75 M-6.75 -25.9 L-5.3 -26.8 -3.8 -27.35 -3.3 -27.45 -5.55 -26.1 -6.5 -25.45 -6.75 -25.9 M-4.8 -22.65 L-4.2 -22.3 Q-4.4 -23.05 -4.05 -23.85 L-3.6 -24.6 Q-3.05 -25.15 -2.3 -25.15 L-1.6 -25.05 -3.0 -24.75 -3.3 -23.55 -3.25 -23.45 -3.2 -23.25 -2.75 -22.6 -2.4 -22.4 -2.3 -22.35 -1.25 -22.3 -0.95 -22.45 -0.3 -24.05 -0.15 -23.4 Q0.1 -21.4 -1.6 -20.45 L-1.85 -20.4 -2.3 -20.4 -3.25 -20.65 -3.75 -21.1 -3.75 -20.95 -3.75 -20.9 -3.8 -20.8 Q-3.95 -19.6 -4.55 -18.8 L-4.7 -18.65 Q-5.5 -17.9 -6.85 -17.65 L-8.2 -18.1 Q-8.7 -18.35 -8.8 -18.8 L-8.95 -20.4 -8.9 -20.65 -8.8 -21.2 -8.75 -21.35 -8.25 -22.25 -7.75 -22.6 -6.7 -23.0 -6.4 -23.0 -6.65 -22.9 -7.8 -22.45 Q-8.8 -20.95 -7.65 -19.7 L-6.75 -19.1 -6.4 -19.0 Q-5.55 -18.9 -4.85 -19.35 L-4.7 -19.45 -4.55 -19.6 Q-4.3 -19.9 -4.2 -20.4 L-4.15 -20.65 -4.15 -21.15 -4.2 -21.6 -4.4 -22.15 -4.8 -22.65 M-8.5 -23.8 L-8.65 -23.65 -10.1 -22.1 -11.65 -20.1 -12.35 -21.15 -12.4 -21.25 -11.05 -22.35 -9.05 -23.95 -9.0 -24.0 -8.15 -24.75 -8.25 -24.05 -8.5 -23.8" fill="#990000" fill-rule="evenodd" stroke="none"/>
      <path d="M14.85 -22.55 L14.15 -21.55 13.7 -21.7 13.55 -21.75 13.3 -21.8 Q10.0 -23.05 7.65 -25.5 L7.0 -26.5 6.35 -26.6 6.0 -27.15 6.9 -26.9 2.7 -29.8 3.1 -30.9 4.8 -31.4 5.55 -31.4 6.75 -31.4 Q8.0 -31.4 8.9 -30.8 9.65 -30.3 9.75 -29.6 L9.75 -29.45 8.5 -28.8 11.25 -27.9 12.4 -27.0 12.5 -26.9 12.65 -26.6 12.35 -26.5 10.55 -26.85 7.85 -27.3 7.8 -27.1 7.25 -26.55 9.8 -24.5 10.5 -24.85 Q12.2 -25.8 13.6 -24.6 L13.75 -24.45 14.9 -23.0 14.9 -22.9 14.85 -22.55 M1.35 -32.05 L1.35 -31.95 1.15 -31.05 Q-0.1 -29.85 -1.8 -29.3 L-2.25 -28.9 -1.55 -27.65 -2.2 -27.35 -2.3 -27.35 -3.2 -27.4 -3.3 -27.45 -3.8 -27.35 -5.3 -26.8 -6.75 -25.9 -7.2 -26.55 -5.2 -28.25 Q-4.3 -29.0 -3.2 -29.25 L-4.8 -29.4 -1.45 -32.25 0.5 -33.05 1.35 -32.05 M-12.85 -21.95 L-12.75 -22.2 -12.65 -22.65 -11.9 -24.4 -11.45 -25.0 -10.6 -25.7 Q-9.3 -26.5 -7.9 -26.55 L-8.15 -24.75 -9.0 -24.0 -9.05 -23.95 -11.05 -22.35 -12.4 -21.25 -12.85 -21.95 M-1.6 -25.05 L-1.5 -25.0 -0.3 -24.05 -0.95 -22.45 -1.25 -22.3 -2.3 -22.35 -2.4 -22.4 -2.75 -22.6 -3.2 -23.25 -3.25 -23.45 -3.3 -23.55 -3.0 -24.75 -1.6 -25.05 M-6.4 -23.0 L-4.85 -22.7 -4.8 -22.65 -4.4 -22.15 -4.2 -21.6 -4.15 -21.15 -4.15 -20.65 -4.2 -20.4 Q-4.3 -19.9 -4.55 -19.6 L-4.7 -19.45 -4.85 -19.35 Q-5.55 -18.9 -6.4 -19.0 L-6.75 -19.1 -7.65 -19.7 Q-8.8 -20.95 -7.8 -22.45 L-6.65 -22.9 -6.4 -23.0" fill="#ff0000" fill-rule="evenodd" stroke="none"/>
      <path d="M11.55 -20.2 L13.85 -19.2 14.0 -19.15 13.8 -18.6 13.15 -16.85 13.0 -15.75 12.5 -15.0 10.6 -14.75 Q9.9 -14.75 9.1 -15.5 8.65 -15.95 8.5 -16.45 10.0 -18.65 11.55 -20.2" fill="#601211" fill-rule="evenodd" stroke="none"/>
    </g>
  </defs>
</svg>
