<?xml version="1.0" encoding="UTF-8" standalone="no"?>
<svg xmlns:ffdec="https://www.free-decompiler.com/flash" xmlns:xlink="http://www.w3.org/1999/xlink" ffdec:objectType="frame" height="14.0px" width="21.7px" xmlns="http://www.w3.org/2000/svg">
  <g transform="matrix(1.0, 0.0, 0.0, 1.0, 13.15, 7.2)">
    <use ffdec:characterId="865" height="13.45" transform="matrix(1.0, 0.0, 0.0, 1.0, -9.9, -6.8)" width="18.0" xlink:href="#shape0"/>
  </g>
  <defs>
    <g id="shape0" transform="matrix(1.0, 0.0, 0.0, 1.0, 9.9, 6.8)">
      <path d="M0.85 -6.7 L2.65 -6.45 4.2 -6.65 4.35 -6.75 5.75 -6.8 5.85 -6.75 Q6.1 -6.45 6.35 -6.45 7.5 -4.6 7.85 -2.45 L7.9 -2.3 8.05 -0.9 Q8.25 1.45 7.5 3.75 L7.3 4.3 6.6 5.9 6.3 6.45 6.1 6.45 5.65 6.65 5.4 6.6 5.2 6.45 3.85 5.5 3.5 5.3 2.55 4.5 2.3 4.55 Q2.0 4.65 1.7 4.25 L1.65 3.95 1.85 3.45 2.0 3.2 Q1.45 1.35 1.4 -0.25 L1.35 -2.1 1.35 -2.35 1.5 -3.3 0.65 -4.0 0.95 -4.15 1.25 -4.15 2.2 -3.35 2.05 -2.95 2.4 -2.55 2.45 -2.1 Q2.35 -0.1 2.8 1.65 L3.05 2.5 Q2.75 2.6 2.75 3.25 2.75 3.6 2.9 3.75 L3.35 3.9 3.85 3.8 3.9 3.9 Q4.7 4.85 5.95 5.45 L6.35 3.75 6.9 1.85 Q7.4 0.25 7.0 -1.4 L6.7 -2.45 5.7 -5.65 4.2 -5.05 3.65 -5.0 Q3.45 -5.1 3.4 -5.5 L1.9 -4.8 2.55 -5.5 2.45 -6.0 2.3 -6.05 1.65 -5.75 1.35 -5.3 0.25 -5.3 0.55 -5.5 0.65 -5.7 0.7 -5.75 0.8 -6.1 0.85 -6.35 0.85 -6.4 0.85 -6.45 0.85 -6.55 0.85 -6.7 M-5.05 -5.15 L-4.5 -5.1 -4.3 -4.7 -4.35 -4.15 -4.4 -4.05 -4.65 -3.4 -4.8 -3.2 -5.45 -3.05 -5.6 -3.05 -5.7 -3.1 -6.15 -3.25 -6.3 -3.35 -6.5 -3.55 -6.75 -3.75 -5.7 -3.35 -5.15 -3.75 Q-4.55 -4.45 -5.05 -5.15 M-0.9 -4.35 L-0.65 -3.6 Q-0.35 -3.3 0.05 -3.3 -0.15 -2.55 -0.9 -2.8 L-1.25 -2.95 -1.5 -3.5 -1.5 -3.75 -1.45 -3.9 -0.9 -4.35" fill="#ffd7d7" fill-rule="evenodd" stroke="none"/>
      <path d="M-8.5 -1.3 L-8.2 -2.1 -8.05 -2.4 -6.85 -4.05 -6.75 -3.75 -6.5 -3.55 -6.3 -3.35 -6.15 -3.25 -5.7 -3.1 -5.6 -3.05 -5.45 -3.05 -4.8 -3.2 -4.65 -3.4 -4.4 -4.05 -4.35 -4.15 -4.3 -4.7 -4.5 -5.1 -5.05 -5.15 -4.05 -5.6 -3.3 -5.95 -2.9 -6.1 -2.75 -6.15 0.85 -6.7 0.85 -6.55 0.85 -6.45 0.85 -6.4 0.85 -6.35 0.8 -6.1 0.7 -5.75 0.65 -5.7 0.55 -5.5 0.25 -5.3 -0.6 -4.95 -0.6 -4.85 Q-0.5 -4.35 -0.9 -4.35 L-1.45 -3.9 -1.5 -3.75 -1.5 -3.5 -1.25 -2.95 -0.9 -2.8 Q-0.15 -2.55 0.05 -3.3 L0.05 -3.4 0.4 -3.6 0.65 -4.0 1.5 -3.3 1.35 -2.35 1.05 -2.95 Q0.4 -1.35 0.4 0.3 L0.65 0.75 Q0.85 1.5 0.25 2.0 L-0.4 2.3 -1.0 1.85 -1.4 1.7 -1.0 2.3 -1.6 2.5 -3.0 2.05 -2.2 3.1 -3.2 2.65 Q-3.85 2.25 -4.4 2.1 L-4.4 2.25 -3.5 3.15 -4.2 3.15 -5.15 2.55 -5.9 1.75 -6.5 0.75 Q-6.6 1.45 -6.1 2.0 -5.7 2.4 -6.15 2.65 L-7.35 1.4 -7.65 0.8 -7.6 0.2 Q-7.5 -0.9 -8.4 -1.05 L-8.5 -1.1 -8.5 -1.15 -8.5 -1.3 M-8.4 0.4 L-8.4 0.75 -8.45 0.5 -8.45 0.45 -8.4 0.4" fill="#9b5004" fill-rule="evenodd" stroke="none"/>
      <path d="M-6.85 -4.05 L-5.45 -4.3 -5.05 -5.15 Q-4.55 -4.45 -5.15 -3.75 L-5.7 -3.35 -6.75 -3.75 -6.85 -4.05 M0.25 -5.3 L1.35 -5.3 1.65 -5.75 2.3 -6.05 2.45 -6.0 2.55 -5.5 1.9 -4.8 3.4 -5.5 Q3.45 -5.1 3.65 -5.0 L4.2 -5.05 5.7 -5.65 6.7 -2.45 7.0 -1.4 Q7.4 0.25 6.9 1.85 L6.35 3.75 5.95 5.45 Q4.7 4.85 3.9 3.9 L3.85 3.8 3.35 3.9 2.9 3.75 Q2.75 3.6 2.75 3.25 2.75 2.6 3.05 2.5 L2.8 1.65 Q2.35 -0.1 2.45 -2.1 L2.4 -2.55 2.05 -2.95 2.2 -3.35 1.25 -4.15 0.95 -4.15 0.65 -4.0 0.4 -3.6 0.05 -3.4 0.05 -3.3 Q-0.35 -3.3 -0.65 -3.6 L-0.9 -4.35 Q-0.5 -4.35 -0.6 -4.85 L-0.6 -4.95 0.25 -5.3 M5.55 -0.05 L5.3 -1.05 4.8 -1.4 Q4.5 -1.35 4.3 -0.9 L4.2 0.05 4.45 0.9 5.4 0.75 5.55 -0.05" fill="#ff9999" fill-rule="evenodd" stroke="none"/>
      <path d="M5.2 6.45 L0.1 6.4 -1.45 6.3 -2.95 5.85 -4.35 5.5 -5.65 4.65 -6.85 3.7 -7.6 2.7 -8.35 1.0 -8.4 0.75 -8.4 0.4 -8.45 0.35 -8.45 0.25 -8.5 -1.1 -8.4 -1.05 Q-7.5 -0.9 -7.6 0.2 L-7.65 0.8 -7.35 1.4 -6.15 2.65 Q-5.7 2.4 -6.1 2.0 -6.6 1.45 -6.5 0.75 L-5.9 1.75 -5.15 2.55 -4.2 3.15 -3.5 3.15 -4.4 2.25 -4.4 2.1 Q-3.85 2.25 -3.2 2.65 L-2.2 3.1 -3.0 2.05 -1.6 2.5 -1.0 2.3 -1.4 1.7 -1.0 1.85 -0.4 2.3 0.25 2.0 Q0.85 1.5 0.65 0.75 L0.4 0.3 Q0.4 -1.35 1.05 -2.95 L1.35 -2.35 1.35 -2.1 1.4 -0.25 Q1.45 1.35 2.0 3.2 L1.85 3.45 1.65 3.95 1.7 4.25 Q2.0 4.65 2.3 4.55 L2.55 4.5 3.5 5.3 3.85 5.5 5.2 6.45" fill="#723a03" fill-rule="evenodd" stroke="none"/>
      <path d="M-9.85 -0.25 L-9.9 -0.85 Q-9.9 -1.5 -9.0 -1.45 L-8.5 -1.3 -8.5 -1.15 -8.5 -1.1 -8.45 0.25 -9.3 -0.15 -9.85 -0.25 M4.2 0.05 L4.3 -0.9 Q4.5 -1.35 4.8 -1.4 L5.3 -1.05 5.55 -0.05 4.2 0.05" fill="#ffffff" fill-rule="evenodd" stroke="none"/>
      <path d="M-8.35 1.0 L-8.6 1.1 -9.0 0.9 -9.05 0.85 Q-9.8 0.85 -9.8 0.35 L-9.85 -0.25 -9.3 -0.15 -8.45 0.25 -8.45 0.35 -8.5 0.45 -8.45 0.5 -8.4 0.75 -8.35 1.0 M5.55 -0.05 L5.4 0.75 4.45 0.9 4.2 0.05 5.55 -0.05" fill="#cccccc" fill-rule="evenodd" stroke="none"/>
    </g>
  </defs>
</svg>
