<?xml version="1.0" encoding="UTF-8" standalone="no"?>
<svg xmlns:ffdec="https://www.free-decompiler.com/flash" xmlns:xlink="http://www.w3.org/1999/xlink" ffdec:objectType="frame" height="28.3px" width="27.5px" xmlns="http://www.w3.org/2000/svg">
  <g transform="matrix(1.0, 0.0, 0.0, 1.0, 14.0, 14.5)">
    <use ffdec:characterId="1625" height="28.3" transform="matrix(1.0, 0.0, 0.0, 1.0, -14.0, -14.5)" width="27.5" xlink:href="#shape0"/>
  </g>
  <defs>
    <g id="shape0" transform="matrix(1.0, 0.0, 0.0, 1.0, 14.0, 14.5)">
      <path d="M2.4 -12.55 L2.5 -12.6 4.75 -13.25 Q5.25 -13.25 7.75 -11.25 L8.55 -10.6 6.85 -10.75 5.5 -10.5 4.25 -10.25 3.45 -10.45 3.5 -11.75 3.25 -11.75 2.75 -10.95 Q2.25 -11.45 2.25 -12.0 L2.4 -12.55 M-5.25 10.75 L-6.1 8.9 -6.35 8.3 Q-6.6 7.85 -6.65 6.75 L-8.1 5.85 -10.25 4.25 -10.75 2.9 -8.95 3.7 -6.75 4.75 -6.75 4.55 -6.7 3.35 -6.4 3.8 Q-6.25 4.25 -6.25 4.9 L-6.25 4.95 -6.35 5.6 -5.85 5.6 -5.4 6.25 -5.2 6.55 -2.75 9.8 -2.35 9.5 -1.8 6.9 2.5 8.45 1.35 8.9 1.0 8.9 -0.3 8.4 -1.75 8.05 -1.5 8.55 -1.6 8.95 -1.7 9.05 -2.1 9.15 -2.1 9.25 Q-2.1 9.9 -2.2 9.55 L-2.15 9.7 -2.5 9.8 -2.75 9.8 -3.0 9.8 -3.0 9.9 -5.0 10.1 -4.75 10.25 -4.7 10.4 -5.25 10.75 M-11.5 0.15 Q-11.9 -0.6 -12.5 -0.75 L-11.55 -2.35 -10.9 -2.5 Q-10.35 -2.5 -10.0 -2.0 L-9.75 -1.25 -11.5 0.1 -11.5 0.15 M-6.05 -10.75 L-5.35 -11.25 -4.5 -11.4 -5.0 -9.55 -6.05 -10.75 M-3.35 -11.5 L-1.5 -11.85 0.25 -12.0 0.25 -10.5 -2.35 -9.85 -2.8 -10.35 -3.35 -11.5 M4.65 -4.9 Q4.85 -5.45 5.65 -5.45 L5.9 -5.45 Q6.85 -5.4 7.15 -4.6 L7.25 -3.85 Q7.25 -2.45 6.1 -2.45 4.8 -2.45 4.5 -3.35 L4.5 -4.3 4.65 -4.9 M0.5 -4.3 L0.1 -3.75 -2.2 -2.9 -2.6 -1.85 -3.8 -1.6 -4.35 -2.15 -4.3 -2.35 -4.3 -2.5 Q-3.55 -3.8 -2.35 -4.7 L-4.1 -5.7 -4.25 -6.05 -5.05 -5.35 Q-4.65 -9.4 -1.95 -7.95 L-1.7 -7.55 Q-1.2 -6.7 -1.3 -5.65 L0.5 -4.3 M1.45 4.95 Q0.05 4.75 -0.85 3.8 L-1.5 3.05 Q-0.95 1.0 0.5 -0.35 1.95 1.45 2.25 4.0 L3.95 4.35 4.35 3.75 5.1 4.35 4.55 4.55 4.65 5.8 4.1 6.0 4.0 6.0 1.75 5.1 1.45 4.95" fill="#ff0000" fill-rule="evenodd" stroke="none"/>
      <path d="M8.65 9.1 L8.5 9.3 7.85 9.4 Q7.05 9.4 6.0 8.85 3.4 7.35 1.5 5.15 L1.45 4.95 1.75 5.1 4.0 6.0 4.1 6.0 6.7 7.2 7.75 7.75 8.65 9.1 M4.75 10.8 L6.9 12.0 Q6.35 12.9 5.75 12.9 5.1 12.9 3.45 12.1 L1.4 11.0 -1.7 9.05 -1.6 8.95 -1.5 8.55 -1.75 8.05 -0.3 8.4 1.0 8.9 1.35 8.9 4.75 10.8 M-11.15 -6.25 L-13.3 -10.6 -14.0 -12.75 -13.3 -11.4 Q-12.45 -10.2 -10.7 -9.0 L-9.05 -7.7 -7.65 -6.05 -7.3 -5.45 -8.0 -5.25 -8.7 -5.4 -9.0 -5.6 -9.0 -5.75 -9.25 -5.75 -9.0 -5.6 Q-8.95 -5.0 -8.5 -4.3 L-8.0 -3.15 -8.75 -3.6 -9.9 -4.4 -10.2 -4.55 -11.15 -6.25 M-7.0 -9.1 L-7.95 -10.25 Q-9.85 -12.5 -10.75 -14.25 L-10.4 -14.35 -9.75 -14.5 -6.5 -11.25 -6.05 -10.75 -5.0 -9.55 -5.05 -9.4 -5.25 -8.85 -5.7 -7.6 -7.0 -9.1" fill="#ffffff" fill-rule="evenodd" stroke="none"/>
      <path d="M8.55 -10.6 L10.25 -8.75 10.1 -8.0 8.5 -8.0 8.5 -9.0 7.4 -8.25 Q6.7 -7.75 5.85 -7.75 3.45 -7.75 3.45 -10.45 L4.25 -10.25 5.5 -10.5 6.85 -10.75 8.55 -10.6 M6.0 8.85 L4.75 10.8 1.35 8.9 2.5 8.45 -1.8 6.9 Q-1.15 5.1 -2.0 3.65 L-2.2 3.15 Q-1.0 0.25 1.75 -1.45 4.65 -0.9 5.85 1.9 L7.35 5.25 7.15 5.95 6.7 7.2 4.1 6.0 4.65 5.8 4.55 4.55 5.1 4.35 4.35 3.75 3.95 4.35 2.25 4.0 Q1.95 1.45 0.5 -0.35 -0.95 1.0 -1.5 3.05 L-0.85 3.8 Q0.05 4.75 1.45 4.95 L1.5 5.15 Q3.4 7.35 6.0 8.85 M3.45 12.1 L0.35 13.8 -3.65 11.65 Q-4.45 11.25 -5.15 10.95 L-5.45 10.8 -5.4 10.75 -5.25 10.75 -4.7 10.4 -4.75 10.25 -5.0 10.1 -3.0 9.9 -3.0 9.8 -2.75 9.8 -2.5 9.8 -2.15 9.7 -2.2 9.55 Q-2.1 9.9 -2.1 9.25 L-2.1 9.15 -1.7 9.05 1.4 11.0 3.45 12.1 M-10.75 2.9 L-11.05 1.55 -11.5 0.15 -11.5 0.1 -9.75 -1.25 -10.0 -2.0 Q-10.35 -2.5 -10.9 -2.5 L-11.55 -2.35 -11.5 -2.65 -11.75 -3.65 -12.0 -4.65 Q-12.0 -5.45 -11.15 -6.25 L-10.2 -4.55 -9.9 -4.4 -8.75 -3.6 -8.0 -3.15 -8.0 -2.9 Q-8.0 -2.3 -8.35 -1.4 -8.75 -0.45 -8.75 0.25 L-7.4 1.25 Q-6.85 1.8 -6.65 2.5 L-6.7 3.35 -6.75 4.55 -6.75 4.75 -8.95 3.7 -10.75 2.9 M-9.05 -7.7 Q-7.65 -8.55 -7.0 -9.1 L-5.7 -7.6 Q-6.3 -6.35 -6.9 -5.75 -7.1 -5.55 -7.3 -5.45 L-7.65 -6.05 -9.05 -7.7 M0.25 -12.0 Q0.95 -12.0 2.4 -12.55 L2.25 -12.0 Q2.25 -11.45 2.75 -10.95 L1.8 -10.25 1.1 -9.8 Q0.15 -9.25 -0.5 -9.25 -1.65 -9.25 -2.35 -9.85 L0.25 -10.5 0.25 -12.0 M4.05 -3.85 L4.4 -4.75 4.65 -4.9 4.5 -4.3 4.5 -3.35 Q4.8 -2.45 6.1 -2.45 7.25 -2.45 7.25 -3.85 L7.15 -4.6 Q7.9 -4.05 7.9 -2.9 7.9 -2.15 7.25 -1.75 6.7 -1.35 5.85 -1.35 L5.15 -1.45 4.55 -1.9 4.15 -2.6 4.05 -3.65 4.05 -3.85 M0.5 -4.3 L-1.3 -5.65 Q-1.2 -6.7 -1.7 -7.55 L-1.95 -7.95 -1.7 -8.05 -0.8 -7.25 0.75 -4.9 0.5 -4.3 M-5.05 -5.35 L-4.25 -6.05 -4.1 -5.7 -2.35 -4.7 Q-3.55 -3.8 -4.3 -2.5 L-4.3 -2.35 -4.35 -2.15 -3.8 -1.6 -2.6 -1.85 -2.2 -2.9 0.1 -3.75 -0.45 -3.05 -1.05 -2.15 -2.05 -0.15 -2.75 0.0 -3.35 -0.2 -4.5 -1.05 -4.55 -1.75 -4.35 -2.45 -3.75 -3.8 -4.25 -4.25 -4.7 -4.8 -5.05 -5.35" fill="#990000" fill-rule="evenodd" stroke="none"/>
      <path d="M-4.5 -11.4 L-4.25 -13.25 -4.0 -13.25 -3.35 -11.5 -2.8 -10.35 -2.35 -9.85 Q-1.65 -9.25 -0.5 -9.25 0.15 -9.25 1.1 -9.8 L0.65 -8.2 1.0 -8.1 0.6 -7.2 0.4 -6.8 -0.1 -6.8 -0.1 -7.15 Q-0.2 -7.3 -0.6 -7.3 L-0.8 -7.25 -1.7 -8.05 -1.95 -7.95 Q-4.65 -9.4 -5.05 -5.35 L-4.7 -4.8 -4.25 -4.25 -3.75 -3.8 -4.35 -2.45 Q-4.7 -4.35 -6.3 -5.4 L-6.9 -5.75 Q-6.3 -6.35 -5.7 -7.6 L-5.25 -8.85 -5.05 -9.4 -5.0 -9.55 -4.5 -11.4 M1.8 -2.75 L2.5 -2.85 3.5 -2.5 4.0 -2.2 Q4.3 -2.0 4.55 -1.9 L5.15 -1.45 5.85 -1.35 Q6.7 -1.35 7.25 -1.75 L7.25 0.15 Q6.4 0.75 6.0 1.6 L5.85 1.9 Q4.65 -0.9 1.75 -1.45 -1.0 0.25 -2.2 3.15 L-2.0 3.65 Q-1.15 5.1 -1.8 6.9 L-2.35 9.5 -2.75 9.8 -5.2 6.55 -5.4 6.25 -5.85 5.6 -6.35 5.6 -6.25 4.95 -6.25 4.9 Q-6.25 4.25 -6.4 3.8 -4.95 3.2 -4.05 1.4 L-3.35 -0.2 -2.75 0.0 -2.05 -0.15 -1.05 -2.15 -0.45 -3.05 0.05 -1.65 0.85 -2.35 1.8 -2.75" fill="#695227" fill-rule="evenodd" stroke="none"/>
      <path d="M2.75 -10.95 L3.25 -11.75 3.5 -11.75 3.45 -10.45 Q3.45 -7.75 5.85 -7.75 6.7 -7.75 7.4 -8.25 L8.5 -9.0 8.5 -8.0 10.1 -8.0 10.0 -7.8 9.55 -6.65 9.15 -6.6 9.1 -6.6 9.05 -6.6 8.35 -6.45 7.9 -6.35 6.0 -6.1 5.6 -6.15 5.65 -5.45 Q4.85 -5.45 4.65 -4.9 L4.4 -4.75 4.9 -6.4 3.15 -7.2 Q2.75 -7.4 2.45 -7.55 L1.8 -5.3 1.75 -4.2 1.8 -2.75 0.85 -2.35 0.05 -1.65 -0.45 -3.05 0.1 -3.75 0.5 -4.3 0.75 -4.9 -0.8 -7.25 -0.6 -7.3 Q-0.2 -7.3 -0.1 -7.15 L-0.1 -6.8 0.4 -6.8 0.6 -7.2 1.0 -8.1 0.65 -8.2 1.1 -9.8 1.8 -10.25 2.75 -10.95 M3.5 -2.5 L4.05 -3.85 4.05 -3.65 4.15 -2.6 4.55 -1.9 Q4.3 -2.0 4.0 -2.2 L3.5 -2.5 M-6.9 -5.75 L-6.3 -5.4 Q-4.7 -4.35 -4.35 -2.45 L-4.55 -1.75 -4.5 -1.05 -3.35 -0.2 -4.05 1.4 Q-4.95 3.2 -6.4 3.8 L-6.7 3.35 -6.65 2.5 Q-6.85 1.8 -7.4 1.25 L-8.75 0.25 Q-8.75 -0.45 -8.35 -1.4 -8.0 -2.3 -8.0 -2.9 L-8.0 -3.15 -8.5 -4.3 Q-8.95 -5.0 -9.0 -5.6 L-8.7 -5.4 -8.0 -5.25 -7.3 -5.45 Q-7.1 -5.55 -6.9 -5.75" fill="#3e9f4c" fill-rule="evenodd" stroke="none"/>
      <path d="M10.2 2.5 Q10.75 4.05 11.25 4.9 L11.0 4.9 10.15 4.05 9.35 3.25 8.75 2.65 Q8.1 1.9 8.0 1.4 L8.0 2.25 10.2 10.8 8.65 9.1 7.75 7.75 7.15 5.95 7.35 5.25 5.85 1.9 6.0 1.6 Q6.4 0.75 7.25 0.15 L7.25 -1.75 Q7.9 -2.15 7.9 -2.9 7.9 -4.05 7.15 -4.6 6.85 -5.4 5.9 -5.45 L5.65 -5.45 5.6 -6.15 6.0 -6.1 7.9 -6.35 8.6 -2.3 8.85 -1.0 8.85 -1.5 9.4 0.15 10.2 2.5 M1.8 -2.75 L1.75 -4.2 1.8 -5.3 2.45 -7.55 Q2.75 -7.4 3.15 -7.2 L4.9 -6.4 4.4 -4.75 4.05 -3.85 3.5 -2.5 2.5 -2.85 1.8 -2.75" fill="#4ec262" fill-rule="evenodd" stroke="none"/>
      <path d="M9.15 -6.6 Q9.15 -3.7 9.1 -6.6 L9.15 -6.6 M9.05 -6.6 L8.85 -1.5 8.85 -1.0 8.6 -2.3 7.9 -6.35 8.35 -6.45 9.05 -6.6" fill="#90dd79" fill-rule="evenodd" stroke="none"/>
      <path d="M10.1 -8.0 L11.5 -8.0 12.2 -8.75 Q12.65 -9.2 13.25 -9.25 L13.5 -9.25 11.4 -5.75 10.75 -4.55 10.55 -2.3 10.4 -0.65 10.4 -0.25 10.2 2.5 9.4 0.15 8.85 -1.5 9.05 -6.6 9.1 -6.6 Q9.15 -3.7 9.15 -6.6 L9.55 -6.65 10.0 -7.8 10.1 -8.0" fill="#cec9ab" fill-rule="evenodd" stroke="none"/>
    </g>
  </defs>
</svg>
