<?xml version="1.0" encoding="UTF-8" standalone="no"?>
<svg xmlns:ffdec="https://www.free-decompiler.com/flash" xmlns:xlink="http://www.w3.org/1999/xlink" ffdec:objectType="frame" height="49.75px" width="9.95px" xmlns="http://www.w3.org/2000/svg">
  <g transform="matrix(1.0, 0.0, 0.0, 1.0, 4.7, 5.4)">
    <use ffdec:characterId="1201" ffdec:characterName="game_fla.upperarm2_810" height="31.55" id="upperArm2" transform="matrix(1.0, 0.0, 0.0, 1.0, -4.7, -5.4)" width="9.75" xlink:href="#sprite0"/>
    <use ffdec:characterId="1205" height="28.3" id="lowerArmOuter2" transform="matrix(1.0, 0.0, 0.0, 1.0, -3.55, 16.05)" width="8.8" xlink:href="#sprite2"/>
  </g>
  <defs>
    <g id="sprite0" transform="matrix(1.0, 0.0, 0.0, 1.0, 4.95, 15.85)">
      <use ffdec:characterId="1197" height="30.35" transform="matrix(1.0, 0.0, 0.0, 1.0, -4.55, -14.85)" width="8.7" xlink:href="#shape0"/>
      <use ffdec:characterId="1081" height="100.0" id="shape" transform="matrix(0.09, 0.0, 0.0, 0.3, -4.4998, -14.9986)" width="100.0" xlink:href="#sprite1"/>
    </g>
    <g id="shape0" transform="matrix(1.0, 0.0, 0.0, 1.0, 4.55, 14.85)">
      <path d="M3.35 -13.45 L4.0 -11.4 4.05 -10.85 4.15 -7.9 3.75 6.45 4.0 11.65 3.65 13.5 2.5 14.85 -1.85 15.0 Q-3.05 13.8 -3.2 12.05 L-3.3 9.7 -3.2 7.7 -3.4 4.85 -3.4 4.65 -3.4 4.55 -3.6 2.8 -3.6 2.5 -3.7 1.8 -3.7 1.1 -3.7 0.6 -4.55 -9.05 -4.35 -10.95 Q-4.15 -12.05 -3.6 -12.9 -1.85 -15.6 2.4 -14.55 3.05 -14.2 3.35 -13.45 M-1.3 0.2 L-1.2 0.15 -1.35 0.2 -1.3 0.2" fill="#ffcc99" fill-rule="evenodd" stroke="none"/>
    </g>
    <g id="sprite1" transform="matrix(1.0, 0.0, 0.0, 1.0, 50.0, 50.0)">
      <use ffdec:characterId="1080" height="100.0" transform="matrix(1.0, 0.0, 0.0, 1.0, -50.0, -50.0)" width="100.0" xlink:href="#shape1"/>
    </g>
    <g id="shape1" transform="matrix(1.0, 0.0, 0.0, 1.0, 50.0, 50.0)">
      <path d="M50.0 50.0 L-50.0 50.0 -50.0 -50.0 50.0 -50.0 50.0 50.0 Z" fill="none" stroke="#9900ff" stroke-linecap="round" stroke-linejoin="round" stroke-width="0.05"/>
    </g>
    <g id="sprite2" transform="matrix(1.0, 0.0, 0.0, 1.0, 4.1, 5.75)">
      <use ffdec:characterId="1204" ffdec:characterName="game_fla.lowerarm2_812" height="28.3" id="lowerArm2" transform="matrix(1.0, 0.0, 0.0, 1.0, -4.1, -5.75)" width="8.8" xlink:href="#sprite3"/>
    </g>
    <g id="sprite3" transform="matrix(1.0, 0.0, 0.0, 1.0, 4.3, 15.2)">
      <use ffdec:characterId="1202" height="26.15" transform="matrix(1.0, 0.0, 0.0, 1.0, -4.3, -13.05)" width="8.4" xlink:href="#shape2"/>
      <use ffdec:characterId="1081" height="100.0" id="shape" transform="matrix(0.07, 0.0, 0.0, 0.25, -3.4996, -12.5)" width="100.0" xlink:href="#sprite1"/>
    </g>
    <g id="shape2" transform="matrix(1.0, 0.0, 0.0, 1.0, 4.3, 13.05)">
      <path d="M-2.15 8.9 L-1.95 8.3 -1.8 7.8 Q-1.7 6.45 -1.35 5.85 L-1.55 4.05 Q-1.55 2.45 -2.1 0.05 L-3.05 -4.1 -3.85 -7.3 Q-4.3 -8.85 -3.7 -10.05 -2.75 -12.3 0.0 -13.05 L2.45 -12.2 Q4.05 -11.55 3.9 -6.45 L3.1 6.0 3.8 7.15 Q4.2 8.25 4.05 9.75 L4.0 10.15 Q4.0 10.55 3.6 10.8 L2.65 11.0 2.25 11.65 1.45 12.6 1.1 12.85 1.05 12.85 0.8 12.9 -0.6 13.1 -1.05 12.95 Q-0.75 12.6 -0.3 12.6 L0.6 12.55 0.7 12.4 0.8 12.4 1.85 11.2 0.15 10.75 0.25 10.25 Q0.4 10.0 1.1 9.85 L1.35 9.85 1.8 9.55 1.75 9.0 Q1.7 8.6 1.8 8.25 2.0 7.8 2.45 7.5 L2.05 7.05 Q1.8 6.8 1.5 6.7 L1.3 6.7 0.95 6.65 Q0.3 6.65 -0.3 7.1 -0.95 7.6 -1.2 8.2 L-1.9 8.75 -2.15 8.9 M-2.5 -7.5 L-2.5 -7.45 -2.4 -7.45 -2.5 -7.5 M-0.05 5.85 L0.7 5.85 Q0.25 5.35 0.15 4.3 L0.1 2.4 Q0.05 1.5 -0.75 0.4 L-1.15 -0.2 -0.7 2.4 Q-0.4 4.5 -0.8 5.9 L-0.05 5.85" fill="#ffcc99" fill-rule="evenodd" stroke="none"/>
      <path d="M0.95 6.65 L1.3 6.7 1.5 6.7 Q1.8 6.8 2.05 7.05 L2.45 7.5 Q2.0 7.8 1.8 8.25 1.7 8.6 1.75 9.0 L1.8 9.55 1.35 9.85 1.25 9.65 0.85 8.8 Q0.35 7.9 0.5 7.65 L0.8 6.9 0.95 6.65" fill="#e2b181" fill-rule="evenodd" stroke="none"/>
      <path d="M-2.15 8.9 L-1.9 8.75 -1.2 8.2 Q-0.95 7.6 -0.3 7.1 0.3 6.65 0.95 6.65 L0.8 6.9 0.5 7.65 Q0.35 7.9 0.85 8.8 L1.25 9.65 1.35 9.85 1.1 9.85 Q0.4 10.0 0.25 10.25 L0.15 10.75 1.85 11.2 0.8 12.4 0.7 12.4 0.6 12.55 -0.3 12.6 Q-0.75 12.6 -1.05 12.95 L-1.8 12.7 -1.95 12.3 -2.05 12.35 -2.5 12.4 Q-3.3 12.3 -3.45 11.7 L-4.3 11.45 -4.05 10.8 -3.45 10.5 -2.25 9.2 -2.15 8.9 M-2.5 -7.5 L-2.4 -7.45 -2.5 -7.45 -2.5 -7.5 M-0.05 5.85 L-0.8 5.9 Q-0.4 4.5 -0.7 2.4 L-1.15 -0.2 -0.75 0.4 Q0.05 1.5 0.1 2.4 L0.15 4.3 Q0.25 5.35 0.7 5.85 L-0.05 5.85" fill="#ebbb98" fill-rule="evenodd" stroke="none"/>
    </g>
  </defs>
</svg>
