<?xml version="1.0" encoding="UTF-8" standalone="no"?>
<svg xmlns:ffdec="https://www.free-decompiler.com/flash" xmlns:xlink="http://www.w3.org/1999/xlink" ffdec:objectType="frame" height="18.0px" width="16.0px" xmlns="http://www.w3.org/2000/svg">
  <g transform="matrix(1.0, 0.0, 0.0, 1.0, 8.0, 0.0)">
    <use ffdec:characterId="997" height="18.0" transform="matrix(1.0, 0.0, 0.0, 1.0, -8.0, 0.0)" width="16.0" xlink:href="#shape0"/>
    <use ffdec:characterId="999" height="15.5" transform="matrix(1.0, 0.0, 0.0, 1.0, -5.45, 1.45)" width="11.0" xlink:href="#sprite0"/>
  </g>
  <defs>
    <g id="shape0" transform="matrix(1.0, 0.0, 0.0, 1.0, 8.0, 0.0)">
      <path d="M3.0 7.0 L5.55 7.0 8.0 8.0 4.0 8.0 4.0 8.2 3.0 7.0 M-5.45 7.0 L-3.0 7.0 -4.0 8.0 -8.0 8.0 -5.45 7.0 M-3.0 17.0 L3.0 17.0 3.85 18.0 -4.0 18.0 -3.0 17.0" fill="#cccccc" fill-rule="evenodd" stroke="none"/>
      <path d="M3.0 7.0 L4.0 8.2 4.0 18.0 3.85 18.0 3.0 17.0 3.0 7.0 M-3.0 7.0 L-3.0 17.0 -4.0 18.0 -4.0 8.0 -3.0 7.0" fill="#999999" fill-rule="evenodd" stroke="none"/>
      <path d="M8.0 8.0 L5.55 7.0 0.2 1.5 -0.6 2.3 -0.75 2.4 -5.45 7.0 -8.0 8.0 0.2 0.0 8.0 8.0" fill="#666666" fill-rule="evenodd" stroke="none"/>
      <path d="M5.55 7.0 L3.0 7.0 3.0 17.0 -3.0 17.0 -3.0 7.0 -5.45 7.0 -0.75 2.4 -0.6 2.3 0.2 1.5 5.55 7.0" fill="#00cc33" fill-rule="evenodd" stroke="none"/>
    </g>
    <g id="sprite0" transform="matrix(1.0, 0.0, 0.0, 1.0, 5.5, 0.0)">
      <use ffdec:characterId="998" height="15.5" transform="matrix(1.0, 0.0, 0.0, 1.0, -5.5, 0.0)" width="11.0" xlink:href="#shape1"/>
    </g>
    <g id="shape1" transform="matrix(1.0, 0.0, 0.0, 1.0, 5.5, 0.0)">
      <path d="M0.9 1.85 L0.55 2.35 Q1.05 8.55 0.7 14.6 L0.15 14.4 0.2 1.35 0.9 1.85 M1.55 2.25 L2.15 2.85 2.0 5.25 1.5 5.85 1.75 10.35 Q1.0 6.35 1.55 2.25 M3.5 4.85 L2.3 5.2 2.7 4.4 3.2 4.15 3.5 4.85 M1.9 14.45 L1.4 14.8 1.55 12.0 Q2.15 12.8 2.05 13.95 L1.9 14.45 M-0.6 1.7 L-0.85 2.1 Q-0.05 4.75 -1.0 7.55 -0.25 5.1 -1.4 2.65 L-0.6 1.7 M-2.7 3.75 L-2.7 4.8 -3.55 4.65 -2.7 3.75 M-2.35 11.2 L-1.95 3.4 Q-1.35 7.75 -1.85 12.2 L-1.8 13.95 -1.85 14.3 -1.95 14.4 -2.2 13.8 -2.55 13.3 -1.85 12.2 -2.35 11.2 M-1.05 14.3 L-1.1 8.3 Q0.25 11.25 -0.45 14.3 L-1.05 14.3" fill="#36422d" fill-rule="evenodd" stroke="none"/>
      <path d="M0.9 1.85 L0.2 1.35 0.15 14.4 0.7 14.6 Q1.05 8.55 0.55 2.35 L0.9 1.85 M1.55 2.25 Q1.0 6.35 1.75 10.35 L1.5 5.85 2.0 5.25 2.15 2.85 1.55 2.25 M3.5 4.85 L3.2 4.15 2.7 4.4 2.3 5.2 3.5 4.85 M2.95 5.5 L2.95 15.5 -3.05 15.5 -3.05 5.5 -5.5 5.5 -0.8 0.9 -0.65 0.8 0.15 0.0 5.5 5.5 2.95 5.5 M-1.05 14.3 L-0.45 14.3 Q0.25 11.25 -1.1 8.3 L-1.05 14.3 M-2.35 11.2 L-1.85 12.2 -2.55 13.3 -2.2 13.8 -1.95 14.4 -1.85 14.3 -1.8 13.95 -1.85 12.2 Q-1.35 7.75 -1.95 3.4 L-2.35 11.2 M-2.7 3.75 L-3.55 4.65 -2.7 4.8 -2.7 3.75 M-0.6 1.7 L-1.4 2.65 Q-0.25 5.1 -1.0 7.55 -0.05 4.75 -0.85 2.1 L-0.6 1.7 M1.9 14.45 L2.05 13.95 Q2.15 12.8 1.55 12.0 L1.4 14.8 1.9 14.45" fill="#2e3726" fill-rule="evenodd" stroke="none"/>
    </g>
  </defs>
</svg>
