<?xml version="1.0" encoding="UTF-8" standalone="no"?>
<svg xmlns:ffdec="https://www.free-decompiler.com/flash" xmlns:xlink="http://www.w3.org/1999/xlink" ffdec:objectType="frame" height="63.15px" width="33.7px" xmlns="http://www.w3.org/2000/svg">
  <g transform="matrix(1.0, 0.0, 0.0, 1.0, 12.5, 30.9)">
    <use ffdec:characterId="1610" height="63.15" transform="matrix(1.0, 0.0, 0.0, 1.0, -11.9, -30.9)" width="33.1" xlink:href="#shape0"/>
    <use ffdec:characterId="1081" height="100.0" id="shape" transform="matrix(0.2, 0.0, 0.0, 0.6001, -9.9998, -30.0026)" width="100.0" xlink:href="#sprite0"/>
  </g>
  <defs>
    <g id="shape0" transform="matrix(1.0, 0.0, 0.0, 1.0, 11.9, 30.9)">
      <path d="M8.85 -28.35 Q6.0 -25.8 6.0 -25.35 L6.1 -25.15 6.2 -24.95 6.15 -24.5 Q6.15 -24.05 6.65 -22.05 L7.15 -18.75 6.65 -16.0 Q6.3 -14.6 6.5 -10.7 L2.3 -10.9 -0.1 -10.8 -0.75 -10.75 -2.8 -10.45 -3.2 -10.55 -2.3 -14.6 -5.7 -10.5 -5.85 -10.3 Q-7.15 -10.0 -7.9 -9.3 L-9.15 -8.75 Q-10.0 -10.05 -10.0 -11.0 -10.0 -12.5 -7.8 -19.1 -7.6 -19.65 -8.05 -22.6 -8.2 -23.7 -7.95 -24.5 -7.35 -25.6 -6.1 -26.6 L-4.35 -27.8 0.15 -29.95 Q6.5 -32.45 8.85 -28.35" fill="#3e9f4c" fill-rule="evenodd" stroke="none"/>
      <path d="M6.5 -10.7 Q6.3 -14.6 6.65 -16.0 L7.15 -18.75 6.65 -22.05 Q6.15 -24.05 6.15 -24.5 L6.2 -24.95 6.1 -25.15 6.0 -25.35 Q6.0 -25.8 8.85 -28.35 L9.35 -28.1 8.9 -26.9 Q8.4 -25.5 8.4 -24.75 8.4 -24.25 8.8 -23.6 L9.5 -22.5 9.75 -21.15 10.0 -19.75 10.5 -16.55 9.55 -9.55 8.4 -10.15 7.5 -10.45 6.5 -10.7 M-7.95 -24.5 Q-8.2 -23.7 -8.05 -22.6 -7.6 -19.65 -7.8 -19.1 -10.0 -12.5 -10.0 -11.0 -10.0 -10.05 -9.15 -8.75 L-10.1 -8.25 -10.8 -7.95 Q-11.2 -12.7 -10.55 -16.1 -9.7 -20.9 -8.2 -24.05 L-7.95 -24.5 M-5.85 -10.3 L-5.7 -10.5 -2.3 -14.6 -3.2 -10.55 -4.3 -10.55 -4.6 -10.55 -5.85 -10.3" fill="#4ec262" fill-rule="evenodd" stroke="none"/>
      <path d="M-3.2 -10.55 L-2.8 -10.45 -0.75 -10.75 -1.4 -10.4 Q-3.65 -9.1 -4.0 -7.25 L-3.5 -7.0 -3.0 -6.75 Q-4.5 -6.75 -4.75 -4.75 L-6.4 -4.4 -6.5 -3.5 Q-6.5 -2.95 -5.7 -1.95 L-4.75 -0.75 -5.5 0.1 Q-6.0 0.8 -5.75 1.5 L-7.65 1.55 Q-8.25 1.7 -8.25 2.75 L-8.25 3.0 -9.55 2.65 -10.2 2.15 -10.25 1.35 -10.15 -0.15 -9.0 -1.25 Q-9.3 -1.25 -9.75 -1.7 L-10.25 -2.5 -8.85 -2.8 -8.75 -3.6 -8.75 -4.5 -9.0 -4.25 -9.25 -4.0 -11.25 -4.0 -11.25 -6.0 Q-10.75 -6.5 -10.1 -6.5 L-9.5 -6.35 -9.0 -6.25 Q-8.95 -6.95 -8.0 -7.65 L-6.5 -8.5 Q-5.2 -9.1 -4.7 -9.95 L-4.3 -10.55 -3.2 -10.55 M2.3 -10.9 L6.5 -10.7 7.5 -10.45 7.65 -10.3 Q8.35 -9.45 8.0 -8.25 9.15 -8.2 9.4 -7.75 L9.5 -6.85 9.5 -5.75 8.75 -6.75 7.0 -6.75 6.75 -6.5 8.2 -5.5 Q8.75 -5.15 8.75 -4.25 8.75 -3.7 8.25 -3.25 7.8 -2.8 7.75 -2.0 8.95 -1.35 9.75 0.05 L10.0 0.55 Q9.5 1.7 8.6 2.05 L8.5 1.5 Q7.6 1.5 6.85 1.0 L5.4 -0.1 Q4.6 -0.75 4.7 -2.1 4.75 -2.95 3.85 -3.05 L4.15 -3.2 4.9 -3.25 5.5 -3.05 Q5.8 -3.05 6.0 -3.25 L6.15 -3.45 6.35 -4.05 Q6.35 -5.85 3.7 -6.25 L2.6 -6.25 2.0 -6.75 2.45 -7.35 3.1 -7.5 Q4.0 -7.5 4.5 -7.0 L4.5 -8.5 2.3 -10.9" fill="#cec9ab" fill-rule="evenodd" stroke="none"/>
      <path d="M-0.75 -10.75 L-0.1 -10.8 2.3 -10.9 4.5 -8.5 4.5 -7.0 Q4.0 -7.5 3.1 -7.5 L2.45 -7.35 2.0 -6.75 2.6 -6.25 3.7 -6.25 Q6.35 -5.85 6.35 -4.05 L6.15 -3.45 6.0 -3.25 Q5.8 -3.05 5.5 -3.05 L4.9 -3.25 4.15 -3.2 3.85 -3.05 Q4.75 -2.95 4.7 -2.1 4.6 -0.75 5.4 -0.1 L6.85 1.0 Q7.6 1.5 8.5 1.5 L8.6 2.05 8.05 2.15 7.75 2.15 6.85 2.15 Q6.2 2.65 5.25 2.65 2.45 2.65 1.05 1.6 L0.9 1.75 Q0.2 2.65 -1.25 2.65 L-4.85 2.45 Q-5.9 3.0 -7.5 3.0 L-8.25 3.0 -8.25 2.75 Q-8.25 1.7 -7.65 1.55 L-5.75 1.5 Q-6.0 0.8 -5.5 0.1 L-4.75 -0.75 -5.7 -1.95 Q-6.5 -2.95 -6.5 -3.5 L-6.4 -4.4 -4.75 -4.75 Q-4.5 -6.75 -3.0 -6.75 L-3.5 -7.0 -4.0 -7.25 Q-3.65 -9.1 -1.4 -10.4 L-0.75 -10.75" fill="#9c9982" fill-rule="evenodd" stroke="none"/>
      <path d="M-9.15 -8.75 L-7.9 -9.3 Q-7.15 -10.0 -5.85 -10.3 L-4.6 -10.55 -4.3 -10.55 -4.7 -9.95 Q-5.2 -9.1 -6.5 -8.5 L-8.0 -7.65 Q-8.95 -6.95 -9.0 -6.25 L-9.5 -6.35 -10.1 -6.5 Q-10.75 -6.5 -11.25 -6.0 L-11.25 -4.0 -9.25 -4.0 -9.0 -4.25 -8.75 -4.5 -8.75 -3.6 -8.85 -2.8 -10.25 -2.5 -9.75 -1.7 Q-9.3 -1.25 -9.0 -1.25 L-10.15 -0.15 -10.25 1.35 -10.2 2.15 -10.4 1.95 Q-11.0 1.15 -11.0 -0.75 L-11.0 -1.05 -11.2 -1.5 Q-11.85 -3.05 -11.9 -7.0 L-11.65 -7.25 -10.8 -7.95 -10.1 -8.25 -9.15 -8.75 M7.5 -10.45 L8.4 -10.15 9.55 -9.55 Q10.6 -8.8 10.75 -7.55 L10.9 -6.75 10.45 -4.95 10.5 -4.2 10.35 -0.7 10.0 0.55 9.75 0.05 Q8.95 -1.35 7.75 -2.0 7.8 -2.8 8.25 -3.25 8.75 -3.7 8.75 -4.25 8.75 -5.15 8.2 -5.5 L6.75 -6.5 7.0 -6.75 8.75 -6.75 9.5 -5.75 9.5 -6.85 9.4 -7.75 Q9.15 -8.2 8.0 -8.25 8.35 -9.45 7.65 -10.3 L7.5 -10.45" fill="#fff9d4" fill-rule="evenodd" stroke="none"/>
      <path d="M8.05 2.15 L7.9 3.2 6.5 3.4 2.75 3.75 3.0 8.75 2.65 13.2 Q2.9 16.4 3.1 17.45 L3.35 19.55 Q3.45 20.6 4.5 21.55 L5.85 22.45 6.4 22.3 7.0 21.7 Q7.05 23.35 4.5 23.35 1.85 23.4 1.55 24.65 11.65 25.2 18.0 30.1 L-1.6 29.35 -9.15 28.7 Q-9.2 27.4 -8.2 26.7 -7.1 25.95 -7.0 24.8 -6.95 24.1 -7.5 23.4 L-8.7 21.05 -7.35 21.35 -6.05 21.75 Q-4.3 21.85 -4.25 20.3 -4.15 19.3 -5.6 18.15 L-6.1 17.7 -6.35 17.4 Q-6.6 17.1 -6.5 16.65 L-6.5 16.55 Q-6.45 16.1 -6.0 15.85 -5.5 15.65 -5.5 15.1 L-6.0 10.85 -5.95 8.45 Q-5.8 7.2 -5.25 6.5 L-5.25 4.0 -8.15 3.8 -9.45 3.7 -9.5 3.1 -9.55 2.65 -8.25 3.0 -7.5 3.0 Q-5.9 3.0 -4.85 2.45 L-1.25 2.65 Q0.2 2.65 0.9 1.75 L1.05 1.6 Q2.45 2.65 5.25 2.65 6.2 2.65 6.85 2.15 L7.75 2.15 8.05 2.15" fill="#111111" fill-rule="evenodd" stroke="none"/>
      <path d="M7.9 3.2 Q6.65 13.05 7.15 14.6 L7.25 14.9 8.75 17.3 8.15 20.4 Q9.5 20.6 11.2 22.45 13.15 24.6 14.45 25.2 L18.5 26.6 Q20.3 27.25 21.2 28.0 L21.2 28.2 20.8 30.2 18.0 30.1 Q11.65 25.2 1.55 24.65 1.85 23.4 4.5 23.35 7.05 23.35 7.0 21.7 L6.4 22.3 5.85 22.45 4.5 21.55 Q3.45 20.6 3.35 19.55 L3.1 17.45 Q2.9 16.4 2.65 13.2 L3.0 8.75 2.75 3.75 6.5 3.4 7.9 3.2 M-11.65 28.3 L-11.6 27.8 -11.3 26.8 -11.45 25.35 Q-11.3 22.95 -10.5 20.9 L-9.75 18.15 -9.7 18.1 -9.4 17.4 Q-9.05 16.65 -9.25 13.9 L-9.25 8.2 -9.45 3.7 -8.15 3.8 -5.25 4.0 -5.25 6.5 Q-5.8 7.2 -5.95 8.45 L-6.0 10.85 -5.5 15.1 Q-5.5 15.65 -6.0 15.85 -6.45 16.1 -6.5 16.55 L-6.5 16.65 Q-6.6 17.1 -6.35 17.4 L-6.1 17.7 -5.6 18.15 Q-4.15 19.3 -4.25 20.3 -4.3 21.85 -6.05 21.75 L-7.35 21.35 -8.7 21.05 -7.5 23.4 Q-6.95 24.1 -7.0 24.8 -7.1 25.95 -8.2 26.7 -9.2 27.4 -9.15 28.7 L-11.65 28.3" fill="#333333" fill-rule="evenodd" stroke="none"/>
      <path d="M8.75 17.3 Q9.85 19.5 13.2 21.9 L15.35 23.7 Q15.85 23.8 16.35 24.05 L17.4 24.55 Q21.0 26.2 21.2 28.0 20.3 27.25 18.5 26.6 L14.45 25.2 Q13.15 24.6 11.2 22.45 9.5 20.6 8.15 20.4 L8.75 17.3" fill="#666666" fill-rule="evenodd" stroke="none"/>
      <path d="M20.8 30.2 L20.55 31.35 Q20.5 31.85 18.05 32.25 L-6.5 30.9 Q-10.75 30.55 -11.2 29.85 L-11.65 28.3 -9.15 28.7 -1.6 29.35 18.0 30.1 20.8 30.2" fill="#e5e5e5" fill-rule="evenodd" stroke="none"/>
      <path d="M10.5 -16.55 L10.0 -19.75 9.75 -21.15 9.5 -22.5 8.8 -23.6 Q8.4 -24.25 8.4 -24.75 8.4 -25.5 8.9 -26.9 L9.35 -28.1 10.55 -26.5 Q11.45 -25.05 10.5 -16.55" fill="#90dd79" fill-rule="evenodd" stroke="none"/>
    </g>
    <g id="sprite0" transform="matrix(1.0, 0.0, 0.0, 1.0, 50.0, 50.0)">
      <use ffdec:characterId="1080" height="100.0" transform="matrix(1.0, 0.0, 0.0, 1.0, -50.0, -50.0)" width="100.0" xlink:href="#shape1"/>
    </g>
    <g id="shape1" transform="matrix(1.0, 0.0, 0.0, 1.0, 50.0, 50.0)">
      <path d="M50.0 50.0 L-50.0 50.0 -50.0 -50.0 50.0 -50.0 50.0 50.0 Z" fill="none" stroke="#9900ff" stroke-linecap="round" stroke-linejoin="round" stroke-width="0.05"/>
    </g>
  </defs>
</svg>
