<?xml version="1.0" encoding="UTF-8" standalone="no"?>
<svg xmlns:ffdec="https://www.free-decompiler.com/flash" xmlns:xlink="http://www.w3.org/1999/xlink" ffdec:objectType="frame" height="13.0px" width="13.0px" xmlns="http://www.w3.org/2000/svg">
  <g transform="matrix(1.0, 0.0, 0.0, 1.0, 0.0, 1.0)">
    <use ffdec:characterId="49" height="13.0" transform="matrix(1.0, 0.0, 0.0, 1.0, 0.0, -1.0)" width="13.0" xlink:href="#shape0"/>
    <use ffdec:characterId="51" height="13.0" transform="matrix(1.0, 0.0, 0.0, 1.0, 0.0, -1.0)" width="13.0" xlink:href="#shape1"/>
  </g>
  <defs>
    <g id="shape0" transform="matrix(1.0, 0.0, 0.0, 1.0, 0.0, 1.0)">
      <path d="M13.0 -1.0 L13.0 12.0 0.0 12.0 0.0 -1.0 13.0 -1.0" fill="#00ff00" fill-opacity="0.0" fill-rule="evenodd" stroke="none"/>
    </g>
    <g id="shape1" transform="matrix(1.0, 0.0, 0.0, 1.0, 0.0, 1.0)">
      <path d="M12.5 2.0 L13.0 2.0 13.0 9.0 12.5 9.0 12.0 8.5 12.0 2.5 12.5 2.0 M11.0 7.5 L10.0 6.5 10.0 4.5 11.0 3.5 11.0 7.5 M0.0 3.0 L1.5 3.0 4.0 5.5 1.5 8.0 0.0 8.0 0.0 3.0 M5.25 1.75 L7.0 0.0 7.0 2.55 6.55 3.05 5.25 1.75 M7.0 8.5 L7.0 11.0 5.25 9.25 6.5 8.0 7.0 8.5" fill="#ffffff" fill-rule="evenodd" stroke="none"/>
      <path d="M0.0 0.5 L1.5 -1.0 6.5 4.0 11.5 -1.0 13.0 0.5 8.0 5.5 13.0 10.5 11.5 12.0 6.5 7.0 1.5 12.0 0.0 10.5 5.0 5.5 0.0 0.5" fill="#ffffff" fill-rule="evenodd" stroke="none"/>
    </g>
  </defs>
</svg>
