<?xml version="1.0" encoding="UTF-8" standalone="no"?>
<svg xmlns:ffdec="https://www.free-decompiler.com/flash" xmlns:xlink="http://www.w3.org/1999/xlink" ffdec:objectType="frame" height="23.95px" width="17.75px" xmlns="http://www.w3.org/2000/svg">
  <g transform="matrix(1.0, 0.0, 0.0, 1.0, 8.85, 11.95)">
    <use ffdec:characterId="1792" height="23.95" transform="matrix(1.0, 0.0, 0.0, 1.0, -8.85, -11.95)" width="17.75" xlink:href="#shape0"/>
  </g>
  <defs>
    <g id="shape0" transform="matrix(1.0, 0.0, 0.0, 1.0, 8.85, 11.95)">
      <path d="M3.7 -9.85 L4.05 -9.5 6.6 -5.65 7.7 -3.5 8.45 -2.1 8.35 -0.95 8.0 -2.1 6.4 -5.3 3.7 -9.85 M8.7 -4.05 L7.1 -6.75 Q5.8 -8.7 3.8 -10.1 5.85 -9.2 7.3 -7.55 L8.9 -5.45 8.7 -4.05 M7.95 4.5 L7.15 2.8 Q6.1 0.55 4.75 -1.35 L1.8 -4.75 -1.8 -7.95 -2.85 -8.7 Q-0.7 -8.2 1.1 -6.9 2.95 -5.5 4.15 -3.4 5.4 -1.35 6.75 0.35 L7.0 0.55 7.2 0.5 7.45 0.55 7.75 0.5 7.95 0.5 8.3 -0.25 8.25 1.1 7.95 4.5 M-3.95 -8.9 L-3.05 -8.2 0.3 -4.9 Q2.0 -3.4 3.35 -1.4 4.7 0.55 5.5 2.85 L5.55 3.0 5.55 3.05 5.6 3.15 5.65 3.25 5.8 3.25 5.95 3.25 Q6.7 4.45 7.05 5.8 L7.55 7.75 7.2 10.2 7.0 8.95 Q6.55 6.75 5.5 4.9 L5.6 5.35 4.35 2.2 Q3.35 0.0 2.0 -1.9 L-1.05 -5.55 Q-2.65 -7.15 -3.95 -8.9 M1.65 6.95 L0.35 4.2 0.6 4.6 -0.3 3.15 -3.15 -0.8 -4.75 -2.8 -7.45 -5.6 -6.75 -5.2 -5.1 -3.9 -3.8 -2.8 -3.75 -2.8 -1.25 0.6 0.35 2.9 Q1.55 4.75 2.25 6.65 L3.25 9.75 3.25 9.95 3.85 12.0 2.2 9.75 -0.6 5.65 -3.1 1.7 Q-4.25 -0.3 -5.7 -2.05 -7.3 -3.85 -8.35 -5.85 L-8.85 -6.65 -8.0 -6.2 -7.9 -5.85 -7.7 -5.4 -8.35 -5.85 -7.3 -4.85 Q-6.35 -2.85 -4.8 -1.05 L-2.6 1.8 -1.9 2.45 Q-1.5 3.1 -1.4 3.5 0.25 5.0 1.0 7.3 L1.45 7.8 1.7 7.95 1.65 6.95" fill="#da9c78" fill-rule="evenodd" stroke="none"/>
      <path d="M4.05 -9.5 L3.7 -9.85 3.8 -10.1 Q5.8 -8.7 7.1 -6.75 L8.7 -4.05 8.55 -3.0 7.55 -4.95 6.55 -6.7 4.05 -9.5 M-2.85 -8.7 L-1.8 -7.95 1.8 -4.75 4.75 -1.35 Q6.1 0.55 7.15 2.8 L7.95 4.5 7.75 6.35 7.3 5.1 Q6.55 2.9 5.3 0.7 L2.65 -3.35 Q1.45 -5.1 -0.35 -6.3 L-3.05 -8.2 -3.95 -8.9 -4.4 -9.2 -2.85 -8.7 M-3.15 -0.8 L-0.3 3.15 0.6 4.6 0.35 4.2 1.65 6.95 Q0.0 5.5 -1.1 3.05 L-1.85 1.75 -4.6 -1.9 Q-5.9 -3.55 -7.3 -4.85 L-8.35 -5.85 -7.7 -5.4 -4.3 -2.15 -3.15 -0.8 M-5.75 -10.3 L-5.6 -9.85 -7.75 -11.65 -7.5 -11.5 -6.6 -11.1 -5.75 -10.3" fill="#8c3734" fill-rule="evenodd" stroke="none"/>
      <path d="M4.05 -9.5 L6.55 -6.7 7.55 -4.95 8.55 -3.0 8.5 -2.95 8.5 -2.45 8.45 -2.1 7.7 -3.5 6.6 -5.65 4.05 -9.5 M-3.05 -8.2 L-0.35 -6.3 Q1.45 -5.1 2.65 -3.35 L5.3 0.7 Q6.55 2.9 7.3 5.1 L7.75 6.35 7.55 7.75 7.05 5.8 Q6.7 4.45 5.95 3.25 L5.8 3.25 5.65 3.25 5.6 3.15 5.55 3.05 5.55 3.0 5.5 2.85 Q4.7 0.55 3.35 -1.4 2.0 -3.4 0.3 -4.9 L-3.05 -8.2 M-3.15 -0.8 L-4.3 -2.15 -7.7 -5.4 -7.9 -5.85 -8.0 -6.2 -8.0 -6.25 -7.9 -6.15 -7.45 -5.6 -4.75 -2.8 -3.15 -0.8 M-7.3 -4.85 Q-5.9 -3.55 -4.6 -1.9 L-1.85 1.75 -1.1 3.05 Q0.0 5.5 1.65 6.95 L1.7 7.95 1.45 7.8 1.0 7.3 Q0.25 5.0 -1.4 3.5 -1.5 3.1 -1.9 2.45 L-2.6 1.8 -4.8 -1.05 Q-6.35 -2.85 -7.3 -4.85 M-5.75 -10.3 L-5.25 -9.6 Q-5.75 -9.6 -6.8 -10.55 L-8.3 -11.95 -7.75 -11.65 -5.6 -9.85 -5.75 -10.3 M-7.75 -11.65 L-7.65 -11.6 -7.55 -11.6 -7.5 -11.5 -7.75 -11.65" fill="#a95c4d" fill-rule="evenodd" stroke="none"/>
    </g>
  </defs>
</svg>
