<?xml version="1.0" encoding="UTF-8" standalone="no"?>
<svg xmlns:ffdec="https://www.free-decompiler.com/flash" xmlns:xlink="http://www.w3.org/1999/xlink" ffdec:objectType="frame" height="319.0px" width="790.0px" xmlns="http://www.w3.org/2000/svg">
  <g transform="matrix(1.0, 0.0, 0.0, 1.0, 0.0, 0.0)">
    <use ffdec:characterId="3160" height="280.0" transform="matrix(1.0, 0.0, 0.0, 1.0, 0.0, 0.0)" width="790.0" xlink:href="#shape0"/>
    <use ffdec:characterId="3164" height="269.0" transform="matrix(1.0, 0.0, 0.0, 1.0, 27.0, 50.0)" width="52.0" xlink:href="#sprite0"/>
    <use ffdec:characterId="3164" height="269.0" transform="matrix(1.0, 0.0, 0.0, 1.0, 103.0, 50.0)" width="52.0" xlink:href="#sprite0"/>
    <use ffdec:characterId="3164" height="269.0" transform="matrix(1.0, 0.0, 0.0, 1.0, 179.0, 50.0)" width="52.0" xlink:href="#sprite0"/>
    <use ffdec:characterId="3164" height="269.0" transform="matrix(1.0, 0.0, 0.0, 1.0, 255.0, 50.0)" width="52.0" xlink:href="#sprite0"/>
    <use ffdec:characterId="3164" height="269.0" transform="matrix(1.0, 0.0, 0.0, 1.0, 331.0, 50.0)" width="52.0" xlink:href="#sprite0"/>
    <use ffdec:characterId="3164" height="269.0" transform="matrix(1.0, 0.0, 0.0, 1.0, 407.0, 50.0)" width="52.0" xlink:href="#sprite0"/>
    <use ffdec:characterId="3164" height="269.0" transform="matrix(1.0, 0.0, 0.0, 1.0, 483.0, 50.0)" width="52.0" xlink:href="#sprite0"/>
    <use ffdec:characterId="3164" height="269.0" transform="matrix(1.0, 0.0, 0.0, 1.0, 559.0, 50.0)" width="52.0" xlink:href="#sprite0"/>
    <use ffdec:characterId="3164" height="269.0" transform="matrix(1.0, 0.0, 0.0, 1.0, 635.0, 50.0)" width="52.0" xlink:href="#sprite0"/>
    <use ffdec:characterId="3164" height="269.0" transform="matrix(1.0, 0.0, 0.0, 1.0, 711.0, 50.0)" width="52.0" xlink:href="#sprite0"/>
  </g>
  <defs>
    <g id="shape0" transform="matrix(1.0, 0.0, 0.0, 1.0, 0.0, 0.0)">
      <path d="M790.0 40.0 L790.0 49.0 0.0 49.0 0.0 40.0 790.0 40.0 M790.0 50.0 L790.0 160.0 0.0 160.0 0.0 50.0 790.0 50.0 M790.0 161.0 L790.0 220.0 0.0 220.0 0.0 161.0 790.0 161.0 M790.0 221.0 L790.0 260.0 0.0 260.0 0.0 221.0 790.0 221.0 M790.0 261.0 L790.0 280.0 0.0 280.0 0.0 261.0 790.0 261.0 M0.0 39.0 L0.0 0.0 30.0 0.0 38.0 0.0 68.0 0.0 76.0 0.0 790.0 0.0 790.0 39.0 0.0 39.0" fill="#bfbfc2" fill-rule="evenodd" stroke="none"/>
      <path d="M790.0 49.0 L790.0 50.0 0.0 50.0 0.0 49.0 790.0 49.0 M790.0 160.0 L790.0 161.0 0.0 161.0 0.0 160.0 790.0 160.0 M790.0 220.0 L790.0 221.0 0.0 221.0 0.0 220.0 790.0 220.0 M790.0 260.0 L790.0 261.0 0.0 261.0 0.0 260.0 790.0 260.0 M0.0 40.0 L0.0 39.0 790.0 39.0 790.0 40.0 0.0 40.0" fill="#b1b1b4" fill-rule="evenodd" stroke="none"/>
      <path d="M3.0 0.0 L3.0 280.0 0.0 280.0 0.0 0.0 3.0 0.0" fill="#000000" fill-opacity="0.2" fill-rule="evenodd" stroke="none"/>
      <path d="M790.0 0.0 L790.0 280.0 787.0 280.0 787.0 0.0 790.0 0.0" fill="#ffffff" fill-opacity="0.2" fill-rule="evenodd" stroke="none"/>
    </g>
    <g id="sprite0" transform="matrix(1.0, 0.0, 0.0, 1.0, 0.0, 0.0)">
      <use ffdec:characterId="3161" height="230.0" transform="matrix(1.0, 0.0, 0.0, 1.0, 0.0, 0.0)" width="52.0" xlink:href="#shape1"/>
      <use ffdec:characterId="3163" height="57.0" transform="matrix(1.0, 0.0, 0.0, 1.0, 11.95, 112.0)" width="28.0" xlink:href="#sprite1"/>
      <use ffdec:characterId="3163" height="57.0" transform="matrix(1.0, 0.0, 0.0, 1.0, 11.95, 212.0)" width="28.0" xlink:href="#sprite1"/>
    </g>
    <g id="shape1" transform="matrix(1.0, 0.0, 0.0, 1.0, 0.0, 0.0)">
      <path d="M49.0 230.0 L49.0 10.0 41.0 10.0 11.0 10.0 3.0 10.0 3.0 110.0 0.0 110.0 0.0 0.0 52.0 0.0 52.0 230.0 49.0 230.0 M0.0 111.0 L3.0 111.0 3.0 170.0 0.0 170.0 0.0 111.0 M3.0 171.0 L3.0 210.0 0.0 210.0 0.0 171.0 3.0 171.0 M3.0 211.0 L3.0 230.0 0.0 230.0 0.0 211.0 3.0 211.0" fill="#bfbfc2" fill-rule="evenodd" stroke="none"/>
      <path d="M0.0 110.0 L3.0 110.0 3.0 111.0 0.0 111.0 0.0 110.0 M3.0 170.0 L3.0 171.0 0.0 171.0 0.0 170.0 3.0 170.0 M3.0 210.0 L3.0 211.0 0.0 211.0 0.0 210.0 3.0 210.0" fill="#b1b1b4" fill-rule="evenodd" stroke="none"/>
      <path d="M11.0 230.0 L11.0 211.0 41.0 211.0 41.0 230.0 11.0 230.0 M41.0 111.0 L41.0 170.0 11.0 170.0 11.0 111.0 41.0 111.0" fill="#2e2e30" fill-rule="evenodd" stroke="none"/>
      <path d="M41.0 171.0 L41.0 210.0 11.0 210.0 11.0 171.0 41.0 171.0" fill="#3a393e" fill-rule="evenodd" stroke="none"/>
      <path d="M41.0 10.0 L49.0 10.0 49.0 230.0 41.0 230.0 41.0 211.0 11.0 211.0 11.0 230.0 3.0 230.0 3.0 211.0 3.0 210.0 3.0 171.0 3.0 170.0 3.0 111.0 3.0 110.0 3.0 10.0 11.0 10.0 11.0 98.0 11.0 101.0 11.0 104.0 11.0 107.0 11.0 110.0 41.0 110.0 41.0 107.0 41.0 104.0 41.0 101.0 41.0 98.0 41.0 10.0 M41.0 171.0 L11.0 171.0 11.0 210.0 41.0 210.0 41.0 171.0 M41.0 111.0 L11.0 111.0 11.0 170.0 41.0 170.0 41.0 111.0" fill="#252527" fill-rule="evenodd" stroke="none"/>
      <path d="M11.0 10.0 L41.0 10.0 41.0 98.0 11.0 98.0 11.0 10.0" fill="#111111" fill-rule="evenodd" stroke="none"/>
      <path d="M41.0 107.0 L41.0 110.0 11.0 110.0 11.0 107.0 41.0 107.0" fill="url(#gradient0)" fill-rule="evenodd" stroke="none"/>
      <path d="M41.0 104.0 L41.0 107.0 11.0 107.0 11.0 104.0 41.0 104.0" fill="url(#gradient1)" fill-rule="evenodd" stroke="none"/>
      <path d="M41.0 101.0 L41.0 104.0 11.0 104.0 11.0 101.0 41.0 101.0" fill="url(#gradient2)" fill-rule="evenodd" stroke="none"/>
      <path d="M41.0 98.0 L41.0 101.0 11.0 101.0 11.0 98.0 41.0 98.0" fill="url(#gradient3)" fill-rule="evenodd" stroke="none"/>
      <path d="M46.95 10.0 L48.95 10.0 52.0 0.0 52.0 230.0 46.95 230.0 46.95 10.0 M9.0 103.3 L9.0 102.0 11.0 98.0 11.0 230.0 9.0 230.0 9.0 103.3" fill="#000000" fill-opacity="0.2" fill-rule="evenodd" stroke="none"/>
      <path d="M0.0 0.0 L3.0 10.0 3.0 230.0 0.0 230.0 0.0 0.0" fill="#ffffff" fill-opacity="0.2" fill-rule="evenodd" stroke="none"/>
      <path d="M52.0 0.0 L48.95 10.0 46.95 10.0 3.0 10.0 0.0 0.0 52.0 0.0" fill="#000000" fill-opacity="0.29803923" fill-rule="evenodd" stroke="none"/>
    </g>
    <linearGradient gradientTransform="matrix(0.0, -0.0018, 0.0055, 0.0, 26.0, 108.5)" gradientUnits="userSpaceOnUse" id="gradient0" spreadMethod="pad" x1="-819.2" x2="819.2">
      <stop offset="0.0" stop-color="#3a393e"/>
      <stop offset="1.0" stop-color="#111111"/>
    </linearGradient>
    <linearGradient gradientTransform="matrix(0.0, -0.0018, 0.0055, 0.0, 26.0, 105.5)" gradientUnits="userSpaceOnUse" id="gradient1" spreadMethod="pad" x1="-819.2" x2="819.2">
      <stop offset="0.0" stop-color="#3a393e"/>
      <stop offset="1.0" stop-color="#111111"/>
    </linearGradient>
    <linearGradient gradientTransform="matrix(0.0, -0.0018, 0.0055, 0.0, 26.0, 102.5)" gradientUnits="userSpaceOnUse" id="gradient2" spreadMethod="pad" x1="-819.2" x2="819.2">
      <stop offset="0.0" stop-color="#3a393e"/>
      <stop offset="1.0" stop-color="#111111"/>
    </linearGradient>
    <linearGradient gradientTransform="matrix(0.0, -0.0018, 0.0055, 0.0, 26.0, 99.5)" gradientUnits="userSpaceOnUse" id="gradient3" spreadMethod="pad" x1="-819.2" x2="819.2">
      <stop offset="0.0" stop-color="#3a393e"/>
      <stop offset="1.0" stop-color="#111111"/>
    </linearGradient>
    <g id="sprite1" transform="matrix(1.0, 0.0, 0.0, 1.0, 0.0, 0.0)">
      <use ffdec:characterId="3162" height="57.0" transform="matrix(1.0, 0.0, 0.0, 1.0, 0.0, 0.0)" width="28.0" xlink:href="#shape2"/>
    </g>
    <g id="shape2" transform="matrix(1.0, 0.0, 0.0, 1.0, 0.0, 0.0)">
      <path d="M28.0 0.0 L28.0 57.0 0.0 57.0 0.0 0.0 28.0 0.0" fill="url(#gradient4)" fill-rule="evenodd" stroke="none"/>
    </g>
    <linearGradient gradientTransform="matrix(0.0, -0.036, 0.0347, 0.0, 14.0, 28.5)" gradientUnits="userSpaceOnUse" id="gradient4" spreadMethod="pad" x1="-819.2" x2="819.2">
      <stop offset="0.0" stop-color="#252527"/>
      <stop offset="0.18823529411764706" stop-color="#2e2e30"/>
      <stop offset="0.6823529411764706" stop-color="#252527"/>
      <stop offset="0.8941176470588236" stop-color="#2e2e30"/>
      <stop offset="1.0" stop-color="#252527"/>
    </linearGradient>
  </defs>
</svg>
