<?xml version="1.0" encoding="UTF-8" standalone="no"?>
<svg xmlns:ffdec="https://www.free-decompiler.com/flash" xmlns:xlink="http://www.w3.org/1999/xlink" ffdec:objectType="frame" height="15.0px" width="3.0px" xmlns="http://www.w3.org/2000/svg">
  <g transform="matrix(1.0, 0.0, 0.0, 1.0, 1.5, 7.5)">
    <use ffdec:characterId="2702" height="12.25" transform="matrix(1.0, 0.0, 0.0, 1.0, -1.5, -4.75)" width="3.0" xlink:href="#shape0"/>
  </g>
  <defs>
    <g id="shape0" transform="matrix(1.0, 0.0, 0.0, 1.0, 1.5, 4.75)">
      <path d="M-1.5 -3.8 L-0.7 -4.5 0.5 -4.75 1.5 -4.3 1.5 -3.3 0.5 -3.55 -0.5 -2.9 -1.5 -3.8 M1.5 -0.6 L1.5 0.0 0.5 0.0 -0.5 0.35 -1.5 -0.05 -1.5 -0.6 -0.5 -0.9 0.5 -0.9 1.5 -0.6" fill="#d6d6d6" fill-rule="evenodd" stroke="none"/>
      <path d="M1.5 -3.3 L1.5 -0.6 0.5 -0.9 0.5 -3.55 1.5 -3.3 M1.5 0.0 L1.5 6.05 1.05 7.05 0.5 7.4 0.05 7.5 0.0 7.5 -0.5 7.4 -1.05 7.05 -1.5 6.05 -1.5 -0.05 -0.5 0.35 -0.5 6.05 -0.35 6.35 0.0 6.5 0.35 6.35 0.5 6.05 0.5 0.0 1.5 0.0 M-1.5 -0.6 L-1.5 -3.8 -0.5 -2.9 -0.5 -0.9 -1.5 -0.6" fill="#919191" fill-rule="evenodd" stroke="none"/>
      <path d="M-0.5 -2.9 L0.5 -3.55 0.5 -0.9 -0.5 -0.9 -0.5 -2.9 M0.5 0.0 L0.5 6.05 0.35 6.35 0.0 6.5 -0.35 6.35 -0.5 6.05 -0.5 0.35 0.5 0.0" fill="#727272" fill-rule="evenodd" stroke="none"/>
    </g>
  </defs>
</svg>
