<?xml version="1.0" encoding="UTF-8" standalone="no"?>
<svg xmlns:ffdec="https://www.free-decompiler.com/flash" xmlns:xlink="http://www.w3.org/1999/xlink" ffdec:objectType="frame" height="13.7px" width="10.35px" xmlns="http://www.w3.org/2000/svg">
  <g transform="matrix(1.0, 0.0, 0.0, 1.0, 3.35, 7.95)">
    <use ffdec:characterId="1217" height="13.7" transform="matrix(1.0, 0.0, 0.0, 1.0, -3.35, -7.95)" width="10.35" xlink:href="#shape0"/>
  </g>
  <defs>
    <g id="shape0" transform="matrix(1.0, 0.0, 0.0, 1.0, 3.35, 7.95)">
      <path d="M-0.3 -7.45 L1.4 -5.2 1.65 -5.05 1.5 -5.05 Q3.1 -3.1 4.45 -2.15 L5.35 -1.6 5.25 4.35 5.25 5.75 4.8 4.3 -3.35 2.65 Q-2.25 -0.1 -2.15 -2.95 -2.2 -4.6 -2.5 -5.85 L-2.65 -6.4 -3.05 -7.2 Q-2.3 -7.55 -1.6 -7.95 L-0.3 -7.45" fill="#ffcc99" fill-rule="evenodd" stroke="none"/>
      <path d="M5.35 -1.6 L4.45 -2.15 Q3.1 -3.1 1.5 -5.05 L1.65 -5.05 1.4 -5.2 -0.3 -7.45 7.0 -4.85 5.85 -3.1 5.45 -1.85 5.35 -1.6" fill="#e2b181" fill-rule="evenodd" stroke="none"/>
    </g>
  </defs>
</svg>
