<?xml version="1.0" encoding="UTF-8" standalone="no"?>
<svg xmlns:ffdec="https://www.free-decompiler.com/flash" xmlns:xlink="http://www.w3.org/1999/xlink" ffdec:objectType="frame" height="16.2px" width="14.7px" xmlns="http://www.w3.org/2000/svg">
  <g transform="matrix(1.0, 0.0, 0.0, 1.0, 7.35, 8.1)">
    <use ffdec:characterId="1065" height="16.2" transform="matrix(1.0, 0.0, 0.0, 1.0, -7.35, -8.1)" width="14.7" xlink:href="#shape0"/>
  </g>
  <defs>
    <g id="shape0" transform="matrix(1.0, 0.0, 0.0, 1.0, 7.35, 8.1)">
      <path d="M0.0 -8.1 Q3.05 -8.1 5.2 -5.95 7.3 -3.85 7.35 -0.9 L7.35 -0.55 7.35 0.0 Q7.1 -2.55 5.2 -4.45 3.05 -6.6 0.0 -6.6 -3.05 -6.6 -5.2 -4.45 -7.1 -2.55 -7.3 0.0 L-7.35 -0.55 -7.35 -1.0 -7.35 -1.25 Q-7.15 -4.0 -5.2 -5.95 -3.05 -8.1 0.0 -8.1 M0.0 -4.65 Q1.6 -4.65 2.75 -3.5 3.9 -2.35 3.9 -0.75 L3.9 -0.7 3.85 0.0 Q3.65 -1.1 2.75 -2.0 1.6 -3.15 0.0 -3.15 -1.65 -3.15 -2.8 -2.0 -3.65 -1.1 -3.85 0.0 L-3.95 -0.65 -3.95 -0.85 Q-3.9 -2.4 -2.8 -3.5 -1.65 -4.65 0.0 -4.65" fill="#8f8f8f" fill-rule="evenodd" stroke="none"/>
      <path d="M-2.8 3.55 Q-3.9 2.45 -3.95 0.9 L-3.95 0.65 -3.85 0.0 Q-3.65 1.2 -2.8 2.05 -1.65 3.2 0.0 3.2 1.6 3.2 2.75 2.05 3.65 1.2 3.85 0.0 L3.9 0.75 Q3.9 2.4 2.75 3.55 1.6 4.7 0.0 4.7 -1.65 4.7 -2.8 3.55 M-7.3 0.0 Q-7.1 2.55 -5.2 4.45 -3.05 6.6 0.0 6.6 3.05 6.6 5.2 4.45 7.1 2.55 7.35 0.0 L7.35 0.55 7.35 1.05 Q7.25 3.9 5.2 5.95 3.05 8.1 0.0 8.1 -3.05 8.1 -5.2 5.95 -7.3 3.85 -7.35 0.95 L-7.35 0.55 -7.3 0.0" fill="#555555" fill-rule="evenodd" stroke="none"/>
    </g>
  </defs>
</svg>
