<?xml version="1.0" encoding="UTF-8" standalone="no"?>
<svg xmlns:ffdec="https://www.free-decompiler.com/flash" xmlns:xlink="http://www.w3.org/1999/xlink" ffdec:objectType="frame" height="228.15px" width="100.0px" xmlns="http://www.w3.org/2000/svg">
  <g transform="matrix(1.0, 0.0, 0.0, 1.0, 50.0, 172.15)">
    <use ffdec:characterId="552" height="10.0" id="base" transform="matrix(6.4994, 0.0, 0.0, 6.4994, -32.4969, -32.4969)" width="10.0" xlink:href="#sprite0"/>
    <use ffdec:characterId="552" height="10.0" id="p0_0" transform="matrix(0.2, 0.0, 0.0, 0.2, -30.0, -172.15)" width="10.0" xlink:href="#sprite0"/>
    <use ffdec:characterId="552" height="10.0" id="p1_1" transform="matrix(0.2, 0.0, 0.0, 0.2, 28.0, -172.15)" width="10.0" xlink:href="#sprite0"/>
    <use ffdec:characterId="552" height="10.0" id="p0_3" transform="matrix(0.2, 0.0, 0.0, 0.2, -33.5, -1.0)" width="10.0" xlink:href="#sprite0"/>
    <use ffdec:characterId="552" height="10.0" id="p1_2" transform="matrix(0.2, 0.0, 0.0, 0.2, 31.5, -1.0)" width="10.0" xlink:href="#sprite0"/>
    <use ffdec:characterId="552" height="10.0" id="p0_1" transform="matrix(0.2, 0.0, 0.0, 0.2, -23.0, -172.15)" width="10.0" xlink:href="#sprite0"/>
    <use ffdec:characterId="552" height="10.0" id="p1_0" transform="matrix(0.2, 0.0, 0.0, 0.2, 21.0, -172.15)" width="10.0" xlink:href="#sprite0"/>
    <use ffdec:characterId="552" height="10.0" id="p0_2" transform="matrix(0.2, 0.0, 0.0, 0.2, -14.5, -1.0)" width="10.0" xlink:href="#sprite0"/>
    <use ffdec:characterId="552" height="10.0" id="p1_3" transform="matrix(0.2, 0.0, 0.0, 0.2, 12.5, -1.0)" width="10.0" xlink:href="#sprite0"/>
    <use ffdec:characterId="552" height="10.0" id="base0" transform="matrix(0.2, 0.0, 0.0, 0.2, -38.0, 19.0)" width="10.0" xlink:href="#sprite0"/>
    <use ffdec:characterId="552" height="10.0" id="base1" transform="matrix(0.2, 0.0, 0.0, 0.2, 36.0, 19.0)" width="10.0" xlink:href="#sprite0"/>
    <use ffdec:characterId="552" height="10.0" id="base2" transform="matrix(0.2, 0.0, 0.0, 0.2, 48.0, 54.0)" width="10.0" xlink:href="#sprite0"/>
    <use ffdec:characterId="552" height="10.0" id="base3" transform="matrix(0.2, 0.0, 0.0, 0.2, -50.0, 54.0)" width="10.0" xlink:href="#sprite0"/>
  </g>
  <defs>
    <g id="sprite0" transform="matrix(1.0, 0.0, 0.0, 1.0, 5.0, 5.0)">
      <use ffdec:characterId="551" height="10.0" transform="matrix(1.0, 0.0, 0.0, 1.0, -5.0, -5.0)" width="10.0" xlink:href="#shape0"/>
    </g>
    <g id="shape0" transform="matrix(1.0, 0.0, 0.0, 1.0, 5.0, 5.0)">
      <path d="M3.55 -3.5 Q5.0 -2.05 5.0 0.0 5.0 2.05 3.55 3.55 2.05 5.0 0.0 5.0 -2.05 5.0 -3.55 3.55 -5.0 2.05 -5.0 0.0 -5.0 -2.05 -3.55 -3.5 -2.05 -5.0 0.0 -5.0 2.05 -5.0 3.55 -3.5" fill="#ff00ff" fill-rule="evenodd" stroke="none"/>
    </g>
  </defs>
</svg>
