<?xml version="1.0" encoding="UTF-8" standalone="no"?>
<svg xmlns:ffdec="https://www.free-decompiler.com/flash" xmlns:xlink="http://www.w3.org/1999/xlink" ffdec:objectType="frame" height="73.7px" width="26.0px" xmlns="http://www.w3.org/2000/svg">
  <g transform="matrix(1.0, 0.0, 0.0, 1.0, 13.25, 34.6)">
    <use ffdec:characterId="1650" ffdec:characterName="game_fla.hand2_622" height="23.0" id="hand" transform="matrix(1.0, 0.0, 0.0, 1.0, -9.25, 16.1)" width="18.65" xlink:href="#sprite0"/>
    <use ffdec:characterId="1652" height="54.05" transform="matrix(1.0, 0.0, 0.0, 1.0, -13.25, -32.5)" width="26.0" xlink:href="#shape1"/>
  </g>
  <defs>
    <g id="sprite0" transform="matrix(1.0, 0.0, 0.0, 1.0, 9.65, 9.2)">
      <use ffdec:characterId="1648" height="18.45" transform="matrix(1.0, 0.0, 0.0, 1.0, -8.3, -9.2)" width="16.6" xlink:href="#shape0"/>
    </g>
    <g id="shape0" transform="matrix(1.0, 0.0, 0.0, 1.0, 8.3, 9.2)">
      <path d="M-1.7 8.0 L-2.95 7.75 -3.6 7.45 -3.8 7.35 -4.45 6.5 Q-5.05 5.3 -5.4 5.3 L-6.0 5.05 Q-7.4 4.3 -6.6 2.6 -8.75 1.9 -8.2 0.0 L-7.6 -0.8 -7.4 -1.1 -7.3 -1.25 -7.15 -1.55 Q-6.55 -2.35 -6.3 -4.35 -6.45 -5.65 -6.0 -6.0 L-5.6 -6.25 -5.8 -8.15 -5.75 -9.2 -0.8 -9.2 Q-0.05 -8.05 -0.4 -8.05 L-2.25 -8.35 -4.35 -8.85 -4.55 -8.55 -4.25 -7.8 -3.95 -6.85 -4.0 -6.55 -3.4 -6.4 -1.7 -5.35 -1.45 -4.5 -1.5 -3.8 -2.2 -2.7 Q-2.7 -1.6 -2.7 0.1 -2.7 1.3 -3.05 1.4 L-2.85 2.25 -3.2 2.25 Q-4.75 1.6 -4.65 2.45 -4.55 3.35 -3.55 3.95 L-2.35 4.75 -2.75 5.65 -2.4 6.75 -2.35 6.75 -1.6 6.5 -1.4 5.8 -1.7 5.0 -1.05 5.05 -0.45 4.85 -0.25 4.55 0.05 4.0 0.55 2.85 1.05 3.3 2.45 3.05 2.2 2.15 1.7 1.8 1.45 1.7 2.7 0.4 3.8 1.0 Q3.6 2.95 4.1 3.6 L4.55 4.55 3.4 5.6 2.95 6.05 2.45 6.55 1.8 7.15 1.65 7.2 1.25 6.2 1.15 5.9 0.4 5.1 0.25 5.15 -0.35 5.4 -0.45 5.45 Q-1.0 5.8 -1.0 6.1 -1.0 7.55 -0.45 8.0 L-0.1 8.15 -0.15 8.15 -0.45 8.35 -0.7 8.35 Q-1.45 8.35 -1.7 8.0 M-5.4 5.3 L-5.65 3.35 -4.7 1.55 -3.6 1.15 Q-3.2 0.25 -3.05 -1.0 -2.75 -2.95 -3.35 -4.5 L-6.2 -1.25 -5.05 0.7 -5.6 1.85 -5.75 2.3 Q-6.2 3.85 -5.4 5.3 M-3.45 4.3 Q-4.1 4.7 -4.0 6.05 L-3.95 6.85 Q-3.35 6.15 -3.1 5.3 L-3.45 4.3" fill="#ebbb98" fill-rule="evenodd" stroke="none"/>
      <path d="M-0.8 -9.2 L6.65 -9.2 7.05 -6.2 7.55 -4.5 Q8.55 -1.25 8.2 0.4 L8.1 1.05 Q7.8 3.75 7.3 5.05 L6.55 6.2 5.75 6.9 5.45 7.05 3.75 7.95 Q2.65 8.15 1.7 8.85 0.75 9.45 -0.25 9.15 L-0.45 9.1 Q-1.4 8.85 -1.7 8.0 -1.45 8.35 -0.7 8.35 L-0.45 8.35 -0.15 8.15 -0.1 8.15 -0.45 8.0 Q-1.0 7.55 -1.0 6.1 -1.0 5.8 -0.45 5.45 L-0.35 5.4 0.25 5.15 0.4 5.1 1.15 5.9 1.25 6.2 1.65 7.2 1.8 7.15 2.45 6.55 2.95 6.05 3.4 5.6 4.55 4.55 4.1 3.6 Q3.6 2.95 3.8 1.0 L2.7 0.4 1.45 1.7 0.55 2.85 0.05 4.0 -0.25 4.55 -0.45 4.85 -1.05 5.05 -1.7 5.0 -2.35 4.75 -3.55 3.95 Q-4.55 3.35 -4.65 2.45 -4.75 1.6 -3.2 2.25 L-2.85 2.25 -3.05 1.4 Q-2.7 1.3 -2.7 0.1 -2.7 -1.6 -2.2 -2.7 L-1.5 -3.8 -1.45 -4.5 -1.7 -5.35 -3.4 -6.4 -4.0 -6.55 -3.95 -6.85 -4.25 -7.8 -4.55 -8.55 -4.35 -8.85 -2.25 -8.35 -0.4 -8.05 Q-0.05 -8.05 -0.8 -9.2 M-7.4 -1.1 L-7.35 -1.45 Q-7.3 -2.25 -7.4 -3.05 L-7.45 -4.2 Q-7.75 -6.45 -6.85 -8.3 L-6.85 -9.2 -5.75 -9.2 -5.8 -8.15 -5.6 -6.25 -6.0 -6.0 Q-6.45 -5.65 -6.3 -4.35 -6.55 -2.35 -7.15 -1.55 L-7.3 -1.25 -7.4 -1.1" fill="#ffcc99" fill-rule="evenodd" stroke="none"/>
      <path d="M-2.35 4.75 L-1.7 5.0 -1.4 5.8 -1.6 6.5 -2.35 6.75 -2.4 6.75 -2.75 5.65 -2.35 4.75 M0.55 2.85 L1.45 1.7 1.7 1.8 2.2 2.15 2.45 3.05 1.05 3.3 0.55 2.85 M-5.4 5.3 Q-6.2 3.85 -5.75 2.3 L-5.6 1.85 -5.05 0.7 -6.2 -1.25 -3.35 -4.5 Q-2.75 -2.95 -3.05 -1.0 -3.2 0.25 -3.6 1.15 L-4.7 1.55 -5.65 3.35 -5.4 5.3 M-3.45 4.3 L-3.1 5.3 Q-3.35 6.15 -3.95 6.85 L-4.0 6.05 Q-4.1 4.7 -3.45 4.3" fill="#e2b181" fill-rule="evenodd" stroke="none"/>
    </g>
    <g id="shape1" transform="matrix(1.0, 0.0, 0.0, 1.0, 13.25, 32.5)">
      <path d="M10.15 -23.25 L10.6 -24.05 11.25 -25.2 10.9 -22.6 10.65 -21.1 10.5 -20.35 10.55 -20.15 10.7 -19.1 9.75 -15.25 9.75 -12.25 8.65 -4.15 Q7.6 3.3 7.5 5.65 L6.9 5.45 6.6 5.5 3.95 5.65 Q4.7 5.55 4.8 2.05 4.9 -1.6 3.25 -6.6 L3.25 -9.0 4.45 -5.1 Q5.3 -2.6 6.5 -1.5 6.9 -7.0 7.7 -12.35 L8.1 -16.1 8.65 -16.7 Q9.4 -17.75 9.4 -20.35 L9.45 -21.9 9.4 -22.05 9.55 -22.25 10.15 -23.25 M-8.6 7.0 L-9.45 1.25 -10.9 -8.5 -10.9 -12.3 Q-11.15 -14.85 -11.55 -16.4 L-11.75 -17.2 -12.2 -18.55 -13.25 -21.0 -13.25 -21.25 Q-13.0 -20.3 -11.85 -19.2 L-10.75 -18.2 -10.5 -18.0 -9.55 -17.3 -9.35 -13.75 Q-9.15 -10.35 -8.75 -8.5 L-7.05 -3.75 Q-6.0 -1.1 -6.25 1.25 -6.5 4.25 -6.2 6.35 L-7.0 6.4 -7.95 6.65 -8.0 6.65 -8.6 7.0" fill="#ad4949" fill-rule="evenodd" stroke="none"/>
      <path d="M8.1 -16.1 L7.7 -12.35 Q6.9 -7.0 6.5 -1.5 5.3 -2.6 4.45 -5.1 L3.25 -9.0 3.25 -6.6 Q4.9 -1.6 4.8 2.05 4.7 5.55 3.95 5.65 L3.15 5.7 -2.9 6.15 -5.0 6.3 -6.2 6.35 Q-6.5 4.25 -6.25 1.25 -6.0 -1.1 -7.05 -3.75 L-8.75 -8.5 Q-9.15 -10.35 -9.35 -13.75 L-9.55 -17.3 Q-8.25 -16.4 -7.5 -16.25 L-7.6 -13.85 -7.55 -13.5 Q-8.4 -13.25 -8.5 -12.25 -8.6 -10.95 -7.65 -10.0 L-6.45 -9.2 -4.95 -9.0 Q-3.85 -9.2 -3.25 -9.95 -2.6 -11.3 -3.75 -12.55 L-4.2 -12.95 Q-3.95 -14.7 -3.3 -15.35 -2.7 -16.0 -1.25 -16.0 L-0.35 -15.85 0.25 -15.25 0.95 -15.55 1.0 -16.5 Q1.0 -18.3 -0.05 -19.5 L-2.2 -21.7 -1.95 -23.05 -1.6 -24.15 -0.8 -26.25 -0.25 -27.75 -0.1 -26.55 0.15 -24.4 0.5 -22.55 0.65 -22.0 0.7 -21.7 1.25 -20.05 Q2.3 -17.5 4.15 -17.25 3.8 -16.7 2.95 -16.25 2.05 -15.8 1.9 -14.85 1.75 -13.85 2.15 -13.0 L2.8 -12.3 5.1 -12.2 Q5.75 -12.45 6.2 -13.0 L6.7 -13.95 6.9 -14.9 6.9 -15.4 8.1 -16.1" fill="#8e3c3c" fill-rule="evenodd" stroke="none"/>
      <path d="M11.15 -18.3 L11.85 -18.95 Q12.65 -19.45 12.75 -20.0 L12.75 -19.25 11.25 -14.15 11.25 -12.55 11.05 -7.35 10.35 -0.3 9.6 7.8 9.35 7.0 8.5 6.0 8.45 5.95 7.5 5.65 Q7.6 3.3 8.65 -4.15 L9.75 -12.25 9.75 -15.25 10.7 -19.1 10.75 -18.25 11.0 -18.0 11.15 -18.3" fill="#e98d8d" fill-rule="evenodd" stroke="none"/>
      <path d="M9.6 7.8 L9.65 7.9 Q10.25 9.6 10.25 11.45 L10.15 12.8 10.15 13.75 10.1 17.4 10.05 17.65 9.75 18.85 9.75 16.0 8.7 15.3 Q8.35 15.25 8.5 14.6 L8.45 13.65 7.5 10.75 7.0 9.25 8.75 10.25 Q9.0 7.25 6.6 5.5 L6.9 5.45 7.5 5.65 8.45 5.95 8.5 6.0 9.35 7.0 9.6 7.8 M-8.45 18.6 Q-9.15 16.8 -9.4 13.7 L-9.45 12.7 Q-9.7 9.75 -8.75 7.05 L-8.6 7.0 -8.0 6.65 -7.95 6.65 -7.0 6.4 -6.2 6.35 -5.0 6.3 Q-6.7 7.2 -7.2 8.95 L-7.25 9.1 -7.5 9.2 Q-8.5 9.7 -8.5 11.15 L-8.35 11.65 -8.0 11.75 -7.85 11.7 -8.1 13.7 -8.45 18.6" fill="#fff9d4" fill-rule="evenodd" stroke="none"/>
      <path d="M9.75 18.85 Q9.75 19.95 8.75 20.75 7.75 21.5 6.3 21.5 L6.05 20.65 4.5 20.0 Q4.6 18.15 4.15 16.5 4.0 16.0 3.35 15.65 L2.0 15.5 2.2 13.7 3.1 13.65 4.0 14.0 4.0 11.0 3.25 10.0 Q4.2 7.95 3.4 6.1 L3.15 5.7 3.95 5.65 6.6 5.5 Q9.0 7.25 8.75 10.25 L7.0 9.25 7.5 10.75 8.45 13.65 8.5 14.6 Q8.35 15.25 8.7 15.3 L9.75 16.0 9.75 18.85 M-7.7 19.85 L-8.45 18.6 -8.1 13.7 -7.85 11.7 -8.0 11.75 -8.35 11.65 -8.5 11.15 Q-8.5 9.7 -7.5 9.2 L-7.25 9.1 -7.2 8.95 Q-6.7 7.2 -5.0 6.3 L-2.9 6.15 Q-4.55 6.8 -5.35 8.5 L-5.75 9.5 -4.25 10.25 -6.2 10.45 Q-6.85 11.0 -6.65 11.9 L-6.35 13.0 -6.25 13.35 -6.65 14.1 Q-6.7 15.15 -6.25 16.2 -6.05 16.8 -6.1 17.45 L-6.2 17.95 -7.2 18.55 -7.7 19.85" fill="#cec9ab" fill-rule="evenodd" stroke="none"/>
      <path d="M6.3 21.5 L6.05 21.55 3.75 21.45 -5.45 21.15 Q-6.6 20.85 -7.4 20.2 L-7.7 19.85 -7.2 18.55 -6.2 17.95 -6.1 17.45 Q-6.05 16.8 -6.25 16.2 -6.7 15.15 -6.65 14.1 L-6.25 13.35 -6.35 13.0 -6.65 11.9 Q-6.85 11.0 -6.2 10.45 L-4.25 10.25 -5.75 9.5 -5.35 8.5 Q-4.55 6.8 -2.9 6.15 L3.15 5.7 3.4 6.1 Q4.2 7.95 3.25 10.0 L4.0 11.0 4.0 14.0 3.1 13.65 2.2 13.7 2.0 15.5 3.35 15.65 Q4.0 16.0 4.15 16.5 4.6 18.15 4.5 20.0 L6.05 20.65 6.3 21.5" fill="#9c9982" fill-rule="evenodd" stroke="none"/>
      <path d="M2.0 -29.85 L2.5 -32.5 2.75 -32.0 4.85 -32.5 5.05 -29.4 5.15 -26.9 2.2 -24.5 1.35 -26.3 1.35 -27.15 1.55 -28.2 2.0 -29.85 M-5.25 -26.85 L-5.15 -27.45 -5.0 -31.75 Q-2.45 -31.15 -1.8 -30.05 L-1.75 -30.0 Q-1.5 -29.45 -1.5 -27.8 -1.5 -26.6 -1.65 -25.9 L-4.5 -24.35 -4.65 -24.55 Q-5.4 -25.6 -5.25 -26.85" fill="#ffffff" fill-rule="evenodd" stroke="none"/>
      <path d="M2.0 -29.85 L1.55 -28.2 1.35 -27.15 -0.1 -26.55 -0.25 -27.75 -0.8 -26.25 -1.65 -25.9 Q-1.5 -26.6 -1.5 -27.8 -1.5 -29.45 -1.75 -30.0 L-1.4 -30.0 2.0 -29.85 M1.35 -26.3 L2.2 -24.5 0.5 -22.55 0.15 -24.4 0.95 -25.5 1.35 -26.3 M5.15 -26.9 L5.05 -29.4 6.1 -29.05 7.7 -28.2 5.15 -26.9 M9.25 -26.35 L9.85 -23.45 Q9.05 -24.2 8.25 -24.0 L7.9 -23.9 7.75 -23.75 8.0 -23.15 8.25 -23.05 8.65 -22.85 9.05 -22.65 9.55 -22.25 9.4 -22.05 8.95 -21.3 7.15 -22.55 Q6.0 -22.55 5.4 -21.75 4.5 -20.6 5.15 -20.55 L5.8 -20.25 Q6.9 -19.8 6.55 -18.65 L6.2 -18.0 5.85 -17.4 6.9 -15.6 6.9 -15.4 6.9 -14.9 6.7 -13.95 6.2 -13.0 Q5.75 -12.45 5.1 -12.2 L2.8 -12.3 2.15 -13.0 Q1.75 -13.85 1.9 -14.85 2.05 -15.8 2.95 -16.25 3.8 -16.7 4.15 -17.25 L4.4 -17.8 4.0 -18.45 5.75 -18.55 5.75 -20.1 3.9 -20.5 3.9 -18.65 3.75 -19.9 1.25 -20.05 0.7 -21.7 0.65 -22.0 Q3.4 -22.65 5.85 -24.45 L7.5 -25.8 8.9 -25.6 9.25 -26.35 M11.75 -21.3 L11.45 -19.5 11.05 -19.8 10.55 -20.15 10.5 -20.35 10.65 -21.1 10.95 -21.05 11.45 -21.15 11.75 -21.3 M-11.85 -19.2 L-11.3 -20.8 -11.15 -21.4 -10.75 -22.65 -9.65 -25.55 -9.5 -25.9 -8.9 -23.4 -7.25 -25.65 Q-6.4 -25.65 -5.75 -26.15 L-5.25 -26.85 Q-5.4 -25.6 -4.65 -24.55 L-4.5 -24.35 -8.65 -21.75 -8.5 -20.45 Q-8.3 -19.4 -7.25 -18.85 -6.2 -18.3 -5.15 -19.05 L-5.5 -21.1 -7.75 -21.8 -4.8 -23.25 -4.3 -23.1 -6.65 -22.1 Q-6.05 -21.75 -5.6 -21.25 -4.05 -19.55 -3.85 -17.6 L-4.75 -17.0 Q-5.7 -16.5 -6.55 -16.3 L-6.9 -16.8 -8.05 -17.05 -8.3 -17.25 -8.8 -17.95 -9.35 -19.75 -10.75 -18.2 -11.85 -19.2 M-9.25 -26.3 L-9.0 -26.55 -8.25 -26.2 -9.25 -26.3 M-4.2 -12.95 L-3.75 -12.55 Q-2.6 -11.3 -3.25 -9.95 -3.85 -9.2 -4.95 -9.0 L-6.45 -9.2 -7.65 -10.0 Q-8.6 -10.95 -8.5 -12.25 -8.4 -13.25 -7.55 -13.5 L-7.0 -13.55 -7.65 -13.15 -7.85 -11.6 -7.0 -10.8 -5.25 -10.8 -4.05 -11.95 -4.25 -12.95 -4.2 -12.95 M2.25 -13.6 Q2.5 -12.9 3.5 -13.0 L4.55 -13.55 5.35 -14.4 5.65 -15.0 Q5.9 -15.85 5.7 -16.65 L3.75 -16.75 Q2.45 -15.75 2.25 -14.1 L2.25 -13.6" fill="#990000" fill-rule="evenodd" stroke="none"/>
      <path d="M1.35 -27.15 L1.35 -26.3 0.95 -25.5 0.15 -24.4 -0.1 -26.55 1.35 -27.15 M2.2 -24.5 L5.15 -26.9 7.7 -28.2 8.4 -28.25 8.9 -28.0 9.25 -26.35 8.9 -25.6 7.5 -25.8 5.85 -24.45 Q3.4 -22.65 0.65 -22.0 L0.5 -22.55 2.2 -24.5 M9.85 -23.45 L10.15 -23.25 9.55 -22.25 9.05 -22.65 8.65 -22.85 8.25 -23.05 8.0 -23.15 7.75 -23.75 7.9 -23.9 8.25 -24.0 Q9.05 -24.2 9.85 -23.45 M10.9 -22.6 L11.9 -21.75 11.75 -21.35 11.75 -21.3 11.45 -21.15 10.95 -21.05 10.65 -21.1 10.9 -22.6 M-9.5 -25.9 L-9.5 -26.3 -9.25 -26.3 -8.25 -26.2 -7.6 -26.0 -7.25 -25.65 -8.9 -23.4 -9.5 -25.9 M-0.8 -26.25 L-1.6 -24.15 -1.95 -23.05 -2.8 -22.65 -4.3 -23.1 -4.8 -23.25 -7.75 -21.8 -5.5 -21.1 -5.15 -19.05 Q-6.2 -18.3 -7.25 -18.85 -8.3 -19.4 -8.5 -20.45 L-8.65 -21.75 -4.5 -24.35 -1.65 -25.9 -0.8 -26.25 M4.0 -18.45 L3.9 -18.5 3.9 -18.65 3.9 -20.5 5.75 -20.1 5.75 -18.55 4.0 -18.45 M2.25 -13.6 L2.25 -14.1 Q2.45 -15.75 3.75 -16.75 L5.7 -16.65 Q5.9 -15.85 5.65 -15.0 L5.35 -14.4 4.55 -13.55 3.5 -13.0 Q2.5 -12.9 2.25 -13.6 M-4.25 -12.95 L-4.05 -11.95 -5.25 -10.8 -7.0 -10.8 -7.85 -11.6 -7.65 -13.15 -7.0 -13.55 -4.25 -12.95" fill="#ff0000" fill-rule="evenodd" stroke="none"/>
      <path d="M11.05 -19.8 L11.15 -18.3 11.0 -18.0 10.75 -18.25 10.7 -19.1 10.55 -20.15 11.05 -19.8 M8.95 -21.3 L8.65 -20.9 8.25 -20.3 6.2 -18.0 6.55 -18.65 Q6.9 -19.8 5.8 -20.25 L5.15 -20.55 Q4.5 -20.6 5.4 -21.75 6.0 -22.55 7.15 -22.55 L8.95 -21.3 M-1.95 -23.05 L-2.2 -21.7 -2.25 -21.45 -2.25 -20.0 Q-2.7 -18.55 -3.85 -17.6 -4.05 -19.55 -5.6 -21.25 -6.05 -21.75 -6.65 -22.1 L-4.3 -23.1 -2.8 -22.65 -1.95 -23.05 M-7.5 -16.25 Q-8.25 -16.4 -9.55 -17.3 L-10.5 -18.0 -10.75 -18.2 -9.35 -19.75 -8.8 -17.95 -8.3 -17.25 -8.05 -17.05 -6.9 -16.8 -6.55 -16.3 -7.35 -16.25 -7.5 -16.25 M1.25 -20.05 L3.75 -19.9 3.9 -18.65 3.9 -18.5 4.0 -18.45 4.4 -17.8 4.15 -17.25 Q2.3 -17.5 1.25 -20.05" fill="#ffcc99" fill-rule="evenodd" stroke="none"/>
      <path d="M8.25 -20.3 L8.1 -16.1 6.9 -15.4 6.9 -15.6 5.85 -17.4 6.2 -18.0 8.25 -20.3 M-2.2 -21.7 L-0.05 -19.5 Q1.0 -18.3 1.0 -16.5 L0.95 -15.55 0.25 -15.25 -0.35 -15.85 -1.25 -16.0 Q-2.7 -16.0 -3.3 -15.35 -3.95 -14.7 -4.2 -12.95 L-4.25 -12.95 -7.0 -13.55 -7.55 -13.5 -7.6 -13.85 -7.5 -16.25 -7.35 -16.25 -6.55 -16.3 Q-5.7 -16.5 -4.75 -17.0 L-3.85 -17.6 Q-2.7 -18.55 -2.25 -20.0 L-2.25 -21.45 -2.2 -21.7" fill="#a92d2d" fill-rule="evenodd" stroke="none"/>
      <path d="M9.4 -22.05 L9.45 -21.9 9.4 -20.35 Q9.4 -17.75 8.65 -16.7 L8.1 -16.1 8.25 -20.3 8.65 -20.9 8.95 -21.3 9.4 -22.05" fill="#bf3838" fill-rule="evenodd" stroke="none"/>
    </g>
  </defs>
</svg>
