<?xml version="1.0" encoding="UTF-8" standalone="no"?>
<svg xmlns:ffdec="https://www.free-decompiler.com/flash" xmlns:xlink="http://www.w3.org/1999/xlink" ffdec:objectType="frame" height="81.6px" width="30.1px" xmlns="http://www.w3.org/2000/svg">
  <g transform="matrix(1.0, 0.0, 0.0, 1.0, 10.5, 39.25)">
    <use ffdec:characterId="1986" height="80.7" transform="matrix(1.0, 0.0, 0.0, 1.0, -10.5, -38.35)" width="30.1" xlink:href="#shape0"/>
    <use ffdec:characterId="1081" height="100.0" id="shape" transform="matrix(0.18, 0.0, 0.0, 0.7801, -8.9996, -39.0045)" width="100.0" xlink:href="#sprite0"/>
  </g>
  <defs>
    <g id="shape0" transform="matrix(1.0, 0.0, 0.0, 1.0, 10.5, 38.35)">
      <path d="M-8.15 31.05 L-8.15 31.0 -7.4 28.2 -7.2 27.25 -6.6 24.3 -6.25 22.0 -6.1 19.8 Q-6.1 18.55 -6.35 18.05 -7.9 3.3 -9.2 -1.8 L-9.75 -3.95 Q-10.5 -6.0 -10.5 -8.05 L-10.25 -17.25 Q-10.2 -18.6 -9.35 -20.95 L-8.2 -24.35 -7.85 -25.5 -7.7 -25.85 -7.0 -29.45 -6.15 -32.9 -5.7 -34.5 -5.65 -35.6 Q-4.35 -37.0 -2.6 -37.8 L-1.9 -38.15 -1.85 -38.25 Q2.8 -38.7 5.8 -37.35 8.75 -36.0 10.1 -32.8 L9.85 -32.3 9.8 -30.8 9.5 -29.1 9.45 -28.8 9.3 -28.35 9.2 -27.4 8.65 -21.7 Q7.45 -8.9 7.1 -3.15 L5.9 11.2 Q5.15 18.5 4.95 22.0 L4.9 22.85 Q4.75 25.05 5.4 26.9 6.25 29.25 8.45 30.95 L9.0 31.4 8.1 31.75 7.25 32.15 Q3.25 29.9 1.7 26.95 L1.65 26.9 1.7 26.15 Q1.3 25.8 1.2 25.05 L1.2 23.6 1.3 22.8 0.9 22.0 0.2 20.35 -0.25 19.15 Q0.05 17.95 0.1 16.45 L0.2 11.3 0.35 10.0 0.35 9.95 0.5 9.75 Q1.35 7.9 2.0 4.1 2.5 0.45 2.95 -1.5 3.35 -3.45 3.95 -4.5 L4.05 -9.7 Q3.6 -16.15 3.5 -19.35 L3.25 -24.25 3.25 -24.45 Q3.2 -25.35 2.8 -25.85 L3.05 -26.65 3.75 -28.4 4.1 -29.3 4.55 -30.3 4.95 -30.95 4.95 -31.0 5.05 -31.35 5.2 -30.2 5.1 -29.35 4.9 -28.85 4.95 -28.6 Q4.6 -28.25 4.6 -27.55 L5.05 -25.1 5.2 -24.2 5.85 -20.7 Q5.9 -18.25 6.75 -13.85 L7.2 -16.55 7.35 -17.8 Q7.35 -18.95 7.65 -19.9 L8.5 -28.0 8.65 -30.3 8.75 -31.2 8.8 -31.45 7.35 -32.65 Q6.0 -33.7 5.65 -34.3 4.65 -31.1 1.55 -27.9 -1.55 -24.7 -2.05 -10.85 L-3.0 -21.7 -2.65 -24.05 -2.45 -26.7 Q-1.8 -27.85 -1.1 -30.0 -0.4 -32.2 0.0 -35.45 0.4 -38.75 -2.7 -34.2 -5.8 -29.65 -4.75 -29.9 -3.7 -30.1 -3.35 -29.55 L-2.95 -28.35 -3.55 -25.0 -4.0 -21.4 -6.0 -18.65 Q-6.95 -17.1 -7.8 -13.0 L-8.4 -9.35 Q-8.7 -8.0 -8.7 -3.65 -8.7 -2.7 -6.9 4.05 L-5.3 9.9 Q-5.1 11.15 -4.5 12.15 L-4.25 12.5 -4.2 9.9 -4.35 8.5 -3.2 0.8 Q-2.6 -1.45 -2.25 -4.6 L-2.1 -4.6 -1.5 1.3 -1.35 3.6 -1.35 4.15 -1.45 11.05 -1.45 11.35 -1.2 12.05 -0.9 13.1 -1.1 14.5 -1.35 17.05 -1.35 17.35 -2.9 22.0 -3.15 22.7 -2.75 25.15 Q-2.75 25.75 -3.15 26.45 -3.55 27.1 -3.6 27.95 L-3.6 28.1 -3.35 30.0 -3.45 30.25 -3.15 32.8 Q-4.4 32.05 -5.5 31.75 L-5.6 31.7 -5.45 30.5 Q-5.4 29.75 -5.6 29.15 L-6.9 31.4 -7.8 31.1 -8.15 31.05" fill="#a58c7c" fill-rule="evenodd" stroke="none"/>
      <path d="M-6.9 31.4 L-5.6 29.15 Q-5.4 29.75 -5.45 30.5 L-5.6 31.7 -5.5 31.75 -6.9 31.4 M-3.15 32.8 L-3.45 30.25 -3.35 30.0 -3.6 28.1 -3.6 27.95 Q-3.55 27.1 -3.15 26.45 -2.75 25.75 -2.75 25.15 L-3.15 22.7 -2.9 22.0 -1.35 17.35 -1.35 17.05 -1.1 14.5 -0.9 13.1 -1.2 12.05 -1.45 11.35 -1.45 11.05 -1.35 4.15 -1.35 3.6 -1.5 1.3 -2.1 -4.6 -2.25 -4.6 Q-2.6 -1.45 -3.2 0.8 L-4.35 8.5 -4.2 9.9 -4.25 12.5 -4.5 12.15 Q-5.1 11.15 -5.3 9.9 L-6.9 4.05 Q-8.7 -2.7 -8.7 -3.65 -8.7 -8.0 -8.4 -9.35 L-7.8 -13.0 Q-6.95 -17.1 -6.0 -18.65 L-4.0 -21.4 -3.55 -25.0 -2.95 -28.35 -3.35 -29.55 Q-3.7 -30.1 -4.75 -29.9 -5.8 -29.65 -2.7 -34.2 0.4 -38.75 0.0 -35.45 -0.4 -32.2 -1.1 -30.0 -1.8 -27.85 -2.45 -26.7 L-2.65 -24.05 -3.0 -21.7 -2.05 -10.85 Q-1.55 -24.7 1.55 -27.9 4.65 -31.1 5.65 -34.3 6.0 -33.7 7.35 -32.65 L8.8 -31.45 8.75 -31.2 6.4 -31.05 5.95 -30.55 6.25 -29.5 6.75 -26.55 6.8 -21.75 7.65 -19.9 Q7.35 -18.95 7.35 -17.8 L7.2 -16.55 6.75 -13.85 Q5.9 -18.25 5.85 -20.7 L5.2 -24.2 5.05 -25.1 4.6 -27.55 Q4.6 -28.25 4.95 -28.6 L4.9 -28.85 5.1 -29.35 5.2 -30.2 5.05 -31.35 4.95 -31.0 4.95 -30.95 4.55 -30.3 4.1 -29.3 3.75 -28.4 3.05 -26.65 2.8 -25.85 Q3.2 -25.35 3.25 -24.45 L3.25 -24.25 3.5 -19.35 Q3.6 -16.15 4.05 -9.7 L3.95 -4.5 Q3.35 -3.45 2.95 -1.5 2.5 0.45 2.0 4.1 1.35 7.9 0.5 9.75 L0.35 9.95 0.35 10.0 0.2 11.3 0.1 16.45 Q0.05 17.95 -0.25 19.15 L0.2 20.35 0.9 22.0 1.3 22.8 1.2 23.6 1.2 25.05 Q1.3 25.8 1.7 26.15 L1.65 26.9 1.7 26.95 Q3.25 29.9 7.25 32.15 L5.45 33.1 Q4.55 33.6 4.15 34.05 0.75 34.7 -3.15 32.8 M0.0 27.75 L0.1 27.3 0.1 27.05 0.0 27.3 -0.1 27.65 -0.35 27.45 -0.9 27.0 -1.1 26.9 Q-1.15 25.8 -1.5 24.8 L-2.4 25.6 -2.45 26.7 -2.45 26.9 -2.8 28.05 -2.85 28.8 -2.5 30.25 Q-1.9 31.6 -0.6 31.6 -0.05 31.6 0.5 30.5 L1.0 28.75 0.0 27.75" fill="#987e68" fill-rule="evenodd" stroke="none"/>
      <path d="M8.75 -31.2 L8.65 -30.3 8.5 -28.0 7.65 -19.9 6.8 -21.75 6.75 -26.55 6.25 -29.5 5.95 -30.55 6.4 -31.05 8.75 -31.2 M0.0 27.75 L1.0 28.75 0.5 30.5 Q-0.05 31.6 -0.6 31.6 -1.9 31.6 -2.5 30.25 L-2.85 28.8 -2.8 28.05 -2.45 26.9 -2.45 26.7 -2.4 25.6 -1.5 24.8 Q-1.15 25.8 -1.1 26.9 L-0.9 27.0 -0.35 27.45 -0.1 27.65 0.0 27.3 0.1 27.05 0.1 27.3 0.0 27.75" fill="#8e7665" fill-rule="evenodd" stroke="none"/>
      <path d="M17.9 36.1 L18.05 36.2 Q19.15 37.15 19.35 38.3 L19.4 40.3 19.05 40.1 15.3 39.95 4.05 38.6 -4.85 37.0 -9.15 36.1 -9.6 36.05 -9.65 35.25 -9.55 34.55 -8.25 34.25 Q-7.45 34.25 -0.35 36.25 6.75 38.25 9.6 38.25 L14.3 38.15 Q17.0 37.7 17.9 36.1 M19.45 40.85 L19.35 41.65 Q18.7 41.95 18.0 42.2 L16.45 42.35 13.35 42.15 1.75 40.15 -0.3 39.75 -0.35 39.75 Q-0.7 40.35 -2.8 40.1 L-7.3 39.5 Q-9.15 39.3 -9.45 37.75 L-9.45 37.1 -9.15 37.15 -2.6 38.25 0.95 38.7 2.75 39.05 5.0 39.45 7.65 39.85 7.45 39.85 8.65 40.05 9.6 40.2 11.15 40.35 14.3 40.75 15.95 40.9 17.85 41.0 19.45 40.85" fill="#282828" fill-rule="evenodd" stroke="none"/>
      <path d="M9.0 31.4 Q9.45 31.35 9.85 31.65 L12.0 33.1 Q16.65 35.15 17.9 36.1 17.0 37.7 14.3 38.15 L9.6 38.25 Q6.75 38.25 -0.35 36.25 -7.45 34.25 -8.25 34.25 L-9.55 34.55 -9.45 34.0 -8.85 31.85 Q-8.65 31.25 -8.15 31.05 L-7.8 31.1 -6.9 31.4 -5.5 31.75 Q-4.4 32.05 -3.15 32.8 0.75 34.7 4.15 34.05 4.55 33.6 5.45 33.1 L7.25 32.15 8.1 31.75 9.0 31.4 M15.5 36.75 Q16.0 36.75 16.0 35.9 15.3 35.4 12.95 35.2 L9.6 35.5 12.05 36.15 15.5 36.75" fill="#363636" fill-rule="evenodd" stroke="none"/>
      <path d="M19.4 40.3 L19.6 40.45 19.6 40.65 19.45 40.85 17.85 41.0 15.95 40.9 14.3 40.75 11.15 40.35 9.6 40.2 8.65 40.05 7.45 39.85 7.65 39.85 5.0 39.45 2.75 39.05 0.95 38.7 -2.6 38.25 -9.15 37.15 -9.45 37.1 -9.6 36.05 -9.15 36.1 -4.85 37.0 4.05 38.6 15.3 39.95 19.05 40.1 19.4 40.3 M15.5 36.75 L12.05 36.15 9.6 35.5 12.95 35.2 Q15.3 35.4 16.0 35.9 16.0 36.75 15.5 36.75" fill="#444444" fill-rule="evenodd" stroke="none"/>
    </g>
    <g id="sprite0" transform="matrix(1.0, 0.0, 0.0, 1.0, 50.0, 50.0)">
      <use ffdec:characterId="1080" height="100.0" transform="matrix(1.0, 0.0, 0.0, 1.0, -50.0, -50.0)" width="100.0" xlink:href="#shape1"/>
    </g>
    <g id="shape1" transform="matrix(1.0, 0.0, 0.0, 1.0, 50.0, 50.0)">
      <path d="M50.0 50.0 L-50.0 50.0 -50.0 -50.0 50.0 -50.0 50.0 50.0 Z" fill="none" stroke="#9900ff" stroke-linecap="round" stroke-linejoin="round" stroke-width="0.05"/>
    </g>
  </defs>
</svg>
