<?xml version="1.0" encoding="UTF-8" standalone="no"?>
<svg xmlns:ffdec="https://www.free-decompiler.com/flash" xmlns:xlink="http://www.w3.org/1999/xlink" ffdec:objectType="frame" height="81.6px" width="30.1px" xmlns="http://www.w3.org/2000/svg">
  <g transform="matrix(1.0, 0.0, 0.0, 1.0, 10.5, 39.25)">
    <use ffdec:characterId="1988" height="62.1" transform="matrix(1.0, 0.0, 0.0, 1.0, -10.5, -38.35)" width="20.6" xlink:href="#shape0"/>
  </g>
  <defs>
    <g id="shape0" transform="matrix(1.0, 0.0, 0.0, 1.0, 10.5, 38.35)">
      <path d="M-7.05 11.5 Q-8.2 2.05 -9.2 -1.8 L-9.75 -3.95 Q-10.5 -6.0 -10.5 -8.05 L-10.25 -17.25 Q-10.2 -18.6 -9.35 -20.95 L-8.2 -24.35 -7.85 -25.5 -7.7 -25.85 -7.0 -29.45 -6.15 -32.9 -5.7 -34.5 -5.65 -35.6 Q-4.35 -37.0 -2.6 -37.8 L-1.9 -38.15 -1.85 -38.25 Q2.8 -38.7 5.8 -37.35 8.75 -36.0 10.1 -32.8 L9.85 -32.3 9.8 -30.8 9.5 -29.1 9.45 -28.8 9.3 -28.35 9.2 -27.4 8.65 -21.7 Q7.45 -8.9 7.1 -3.15 L6.25 7.65 6.1 7.85 4.05 11.0 3.35 9.75 2.55 10.2 2.05 7.85 1.9 7.35 2.35 7.35 Q4.0 7.35 4.9 0.9 L5.25 -0.3 Q5.25 -1.25 4.15 -1.25 3.0 -1.25 3.0 -0.45 L3.2 -0.15 3.15 0.0 Q3.15 0.55 3.45 0.8 3.25 1.9 2.3 2.15 L2.95 -1.5 Q3.35 -3.45 3.95 -4.5 L4.05 -9.7 Q3.6 -16.15 3.5 -19.35 L3.25 -24.25 3.25 -24.45 Q3.2 -25.35 2.8 -25.85 L3.05 -26.65 3.75 -28.4 4.1 -29.3 4.55 -30.3 4.95 -30.95 4.95 -31.0 5.05 -31.35 5.2 -30.2 5.1 -29.35 4.9 -28.85 4.95 -28.6 Q4.6 -28.25 4.6 -27.55 L5.05 -25.1 5.2 -24.2 5.85 -20.7 Q5.9 -18.25 6.75 -13.85 L7.2 -16.55 7.35 -17.8 Q7.35 -18.95 7.65 -19.9 L8.5 -28.0 8.65 -30.3 8.75 -31.2 8.8 -31.45 7.35 -32.65 Q6.0 -33.7 5.65 -34.3 4.65 -31.1 1.55 -27.9 -1.55 -24.7 -2.05 -10.85 L-3.0 -21.7 -2.65 -24.05 -2.45 -26.7 Q-1.8 -27.85 -1.1 -30.0 -0.4 -32.2 0.0 -35.45 0.4 -38.75 -2.7 -34.2 -5.8 -29.65 -4.75 -29.9 -3.7 -30.1 -3.35 -29.55 L-2.95 -28.35 -3.55 -25.0 -4.0 -21.4 -6.0 -18.65 Q-6.95 -17.1 -7.8 -13.0 L-8.4 -9.35 Q-8.7 -8.0 -8.7 -3.65 -8.7 -2.7 -6.9 4.05 L-5.5 9.25 -5.6 9.45 -7.05 11.5 M5.35 17.0 L5.3 17.7 4.8 17.3 5.1 17.25 5.35 17.0 M3.55 22.15 L3.35 22.1 3.5 22.0 3.55 22.15 M-2.65 -1.55 L-2.25 -4.6 -2.1 -4.6 -1.5 1.3 -1.45 2.35 -1.5 2.5 -1.9 2.5 Q-1.9 1.85 -2.2 1.5 L-2.2 1.45 Q-1.75 0.65 -1.75 -0.1 -1.75 -1.1 -2.45 -1.5 L-2.65 -1.55" fill="#a58c7c" fill-rule="evenodd" stroke="none"/>
      <path d="M-5.5 9.25 L-6.9 4.05 Q-8.7 -2.7 -8.7 -3.65 -8.7 -8.0 -8.4 -9.35 L-7.8 -13.0 Q-6.95 -17.1 -6.0 -18.65 L-4.0 -21.4 -3.55 -25.0 -2.95 -28.35 -3.35 -29.55 Q-3.7 -30.1 -4.75 -29.9 -5.8 -29.65 -2.7 -34.2 0.4 -38.75 0.0 -35.45 -0.4 -32.2 -1.1 -30.0 -1.8 -27.85 -2.45 -26.7 L-2.65 -24.05 -3.0 -21.7 -2.05 -10.85 Q-1.55 -24.7 1.55 -27.9 4.65 -31.1 5.65 -34.3 6.0 -33.7 7.35 -32.65 L8.8 -31.45 8.75 -31.2 6.4 -31.05 5.95 -30.55 6.25 -29.5 6.75 -26.55 6.8 -21.75 7.65 -19.9 Q7.35 -18.95 7.35 -17.8 L7.2 -16.55 6.75 -13.85 Q5.9 -18.25 5.85 -20.7 L5.2 -24.2 5.05 -25.1 4.6 -27.55 Q4.6 -28.25 4.95 -28.6 L4.9 -28.85 5.1 -29.35 5.2 -30.2 5.05 -31.35 4.95 -31.0 4.95 -30.95 4.55 -30.3 4.1 -29.3 3.75 -28.4 3.05 -26.65 2.8 -25.85 Q3.2 -25.35 3.25 -24.45 L3.25 -24.25 3.5 -19.35 Q3.6 -16.15 4.05 -9.7 L3.95 -4.5 Q3.35 -3.45 2.95 -1.5 L2.3 2.15 2.25 2.15 2.0 2.25 Q1.25 2.4 0.9 3.0 0.5 -1.45 0.5 -5.25 -0.6 -0.15 -1.45 2.35 L-1.5 1.3 -2.1 -4.6 -2.25 -4.6 -2.65 -1.55 -4.1 -1.75 -5.55 -1.6 -5.8 -0.55 -6.0 0.85 Q-6.0 1.4 -5.0 2.0 L-4.5 2.25 -4.5 2.35 -4.5 3.1 -4.3 3.15 -4.25 3.35 -4.05 3.9 -3.7 4.5 -3.75 4.7 -4.35 4.55 -5.0 4.5 Q-5.5 4.5 -5.65 4.75 L-5.8 5.65 -5.9 6.65 Q-5.9 7.35 -5.15 8.15 L-5.05 8.25 -5.5 9.25" fill="#987e68" fill-rule="evenodd" stroke="none"/>
      <path d="M8.75 -31.2 L8.65 -30.3 8.5 -28.0 7.65 -19.9 6.8 -21.75 6.75 -26.55 6.25 -29.5 5.95 -30.55 6.4 -31.05 8.75 -31.2" fill="#8e7665" fill-rule="evenodd" stroke="none"/>
      <path d="M3.45 0.8 Q3.15 0.55 3.15 0.0 L3.2 -0.15 3.25 -0.15 3.5 0.15 3.45 0.8 M4.9 0.9 Q4.0 7.35 2.35 7.35 L1.9 7.35 1.4 7.15 Q0.8 6.9 0.6 6.2 L0.6 4.9 Q0.6 3.7 0.75 3.3 L0.9 3.0 Q1.25 2.4 2.0 2.25 1.05 2.65 1.0 4.0 L1.0 4.05 1.0 4.15 Q0.95 4.8 1.25 5.15 1.6 5.5 2.35 5.5 3.45 5.5 4.9 0.9 M2.55 10.2 L3.35 9.75 4.05 11.0 4.15 11.2 4.4 12.0 3.8 11.3 3.5 11.15 Q3.0 11.15 2.9 11.4 L2.65 11.9 2.55 11.7 1.8 10.75 1.7 10.7 1.7 10.65 1.8 10.75 2.55 10.2 M5.45 15.7 L5.5 16.1 5.35 17.0 5.1 17.25 4.8 17.3 3.5 17.35 3.05 17.8 3.15 15.15 3.0 14.25 4.2 13.55 4.25 13.5 Q5.25 14.8 5.45 15.7 M0.85 19.25 L0.6 19.25 -1.05 18.45 -1.0 17.8 Q-1.0 13.55 -2.45 14.55 L-2.85 14.9 -2.8 14.5 Q-2.8 13.95 -3.5 13.3 L-4.3 12.75 Q-3.65 11.8 -3.05 10.0 L-3.15 10.0 -3.4 8.65 -3.4 8.55 -4.3 8.75 -5.05 8.25 -5.15 8.15 Q-5.9 7.35 -5.9 6.65 L-5.8 5.65 -5.8 5.8 -5.75 6.55 Q-5.5 7.05 -4.7 7.2 L-4.0 7.25 Q-3.6 7.25 -3.3 6.7 L-3.05 6.05 Q-2.75 6.75 -2.75 7.85 L-2.75 8.3 -2.65 8.55 -2.4 7.35 Q-2.15 6.1 -1.85 6.2 L-1.6 6.35 -1.75 6.65 -0.4 9.75 -0.25 10.05 -1.4 10.1 Q-1.3 10.3 -1.75 11.05 L-2.25 12.05 Q-2.25 13.05 -1.65 14.1 L-0.4 16.25 Q-0.25 16.05 -0.25 15.6 L-0.45 14.85 -0.8 14.25 0.1 13.2 0.65 12.15 0.4 11.25 0.45 11.25 1.25 12.0 1.55 12.0 1.85 12.1 Q2.75 12.5 2.75 12.9 L2.25 13.75 1.65 14.7 Q0.6 15.3 0.6 16.45 0.6 17.35 0.9 18.05 L0.85 18.6 0.85 19.25 M-3.85 17.0 L-4.25 16.75 -6.35 15.35 Q-6.9 14.85 -6.9 14.0 L-6.8 13.35 Q-6.55 12.45 -5.5 12.1 L-5.3 12.3 -5.5 12.25 -5.5 12.55 Q-4.6 16.5 -4.0 16.5 L-3.75 16.5 -3.85 17.0 M-1.9 2.5 L-1.9 2.6 Q-1.9 3.1 -2.4 3.9 -2.9 4.75 -3.25 4.75 L-3.7 4.5 -4.05 3.9 -4.25 3.35 -4.3 3.15 -3.55 3.25 -3.35 3.25 -2.3 3.15 -2.25 2.05 -2.2 1.5 Q-1.9 1.85 -1.9 2.5 M-4.5 1.7 L-4.5 2.35 -4.5 2.25 -4.55 2.05 -4.5 1.7" fill="#990000" fill-rule="evenodd" stroke="none"/>
      <path d="M3.05 17.8 Q2.65 20.65 1.5 21.5 0.95 21.05 0.85 19.25 L0.85 18.6 0.9 18.05 Q0.6 17.35 0.6 16.45 0.6 15.3 1.65 14.7 L1.6 14.75 2.15 14.6 3.0 14.25 3.15 15.15 3.05 17.8 M-1.05 18.45 L-1.55 23.6 -2.4 23.75 Q-2.9 23.75 -3.2 22.85 L-3.25 23.0 -3.65 23.0 -3.8 19.75 -3.8 19.1 -3.9 17.9 -3.85 17.0 -3.75 16.5 -3.55 16.45 -3.55 16.35 -3.05 15.4 -2.85 14.9 -2.45 14.55 Q-1.0 13.55 -1.0 17.8 L-1.05 18.45" fill="#ffffff" fill-rule="evenodd" stroke="none"/>
      <path d="M2.3 2.15 Q3.25 1.9 3.45 0.8 L3.5 0.15 3.25 -0.15 3.2 -0.15 3.0 -0.45 Q3.0 -1.25 4.15 -1.25 5.25 -1.25 5.25 -0.3 L4.9 0.9 Q3.45 5.5 2.35 5.5 1.6 5.5 1.25 5.15 0.95 4.8 1.0 4.15 L1.0 4.05 1.0 4.0 Q1.05 2.65 2.0 2.25 L2.25 2.15 2.3 2.15 M-1.4 6.15 Q-0.15 7.55 0.75 9.1 L0.8 9.1 1.0 9.2 Q1.65 9.6 1.65 10.45 L1.7 10.65 1.7 10.7 1.8 10.75 2.55 11.7 2.65 11.9 2.9 11.4 Q3.0 11.15 3.5 11.15 L3.8 11.3 4.4 12.0 4.6 12.25 Q4.6 13.15 4.25 13.5 L4.2 13.55 3.0 14.25 2.15 14.6 1.6 14.75 1.65 14.7 2.25 13.75 2.75 12.9 Q2.75 12.5 1.85 12.1 L1.55 12.0 1.25 12.0 0.45 11.25 0.4 11.25 0.65 12.15 0.1 13.2 -0.8 14.25 -0.45 14.85 -0.25 15.6 Q-0.25 16.05 -0.4 16.25 L-1.65 14.1 Q-2.25 13.05 -2.25 12.05 L-1.75 11.05 Q-1.3 10.3 -1.4 10.1 L-0.25 10.05 -0.4 9.75 -1.75 6.65 -1.6 6.35 -1.55 6.15 -1.4 6.15 M-3.75 4.7 Q-3.05 5.0 -3.05 5.8 L-3.05 6.05 -3.3 6.7 Q-3.6 7.25 -4.0 7.25 L-4.7 7.2 Q-5.5 7.05 -5.75 6.55 L-5.8 5.8 -5.8 5.65 -5.65 4.75 Q-5.5 4.5 -5.0 4.5 L-4.35 4.55 -3.75 4.7 M-2.2 1.45 L-2.2 1.5 -2.25 2.05 -2.3 3.15 -3.35 3.25 -3.55 3.25 -4.3 3.15 -4.5 3.1 -4.5 2.35 -4.5 1.7 -4.5 0.85 -4.4 0.75 -3.5 0.65 -3.15 0.7 Q-2.45 0.8 -2.25 1.35 L-2.2 1.45 M-3.75 16.5 L-4.0 16.5 Q-4.6 16.5 -5.5 12.55 L-5.5 12.25 -5.3 12.3 -4.3 12.75 -3.5 13.3 Q-2.8 13.95 -2.8 14.5 L-2.85 14.9 -3.05 15.4 -3.55 16.35 -3.55 16.45 -3.75 16.5" fill="#ff0000" fill-rule="evenodd" stroke="none"/>
      <path d="M0.9 3.0 L0.75 3.3 Q0.6 3.7 0.6 4.9 L0.6 6.2 Q0.8 6.9 1.4 7.15 L0.8 9.1 0.75 9.1 Q-0.15 7.55 -1.4 6.15 L-1.35 4.15 -1.35 3.6 -1.45 2.35 Q-0.6 -0.15 0.5 -5.25 0.5 -1.45 0.9 3.0 M-4.5 2.25 L-5.0 2.0 Q-6.0 1.4 -6.0 0.85 L-5.8 -0.55 -5.55 -1.6 -4.1 -1.75 -2.65 -1.55 -3.15 0.7 -3.5 0.65 -4.4 0.75 -4.5 0.85 -4.5 1.7 -4.55 2.05 -4.5 2.25 M-4.3 8.75 L-4.2 9.9 -4.25 12.5 -4.5 12.15 Q-5.1 11.15 -5.3 9.9 L-5.5 9.25 -5.05 8.25 -4.3 8.75" fill="#ebbb98" fill-rule="evenodd" stroke="none"/>
      <path d="M-7.05 11.5 L-5.6 9.45 -5.5 9.25 -5.3 9.9 Q-5.1 11.15 -4.5 12.15 L-4.25 12.5 -4.2 9.9 -4.3 8.75 -3.4 8.55 -3.4 8.65 -3.15 10.0 -3.05 10.0 Q-3.65 11.8 -4.3 12.75 L-5.3 12.3 -5.5 12.1 Q-6.55 12.45 -6.8 13.35 L-6.85 13.2 -7.05 11.5 M1.9 7.35 L2.05 7.85 2.55 10.2 1.8 10.75 1.7 10.65 1.65 10.45 Q1.65 9.6 1.0 9.2 L0.8 9.1 1.4 7.15 1.9 7.35 M4.05 11.0 L6.1 7.85 6.25 7.65 5.9 11.2 5.45 15.7 Q5.25 14.8 4.25 13.5 4.6 13.15 4.6 12.25 L4.4 12.0 4.15 11.2 4.05 11.0 M-1.4 6.15 L-1.55 6.15 -1.6 6.35 -1.85 6.2 Q-2.15 6.1 -2.4 7.35 L-2.65 8.55 -2.75 8.3 -2.75 7.85 Q-2.75 6.75 -3.05 6.05 L-3.05 5.8 Q-3.05 5.0 -3.75 4.7 L-3.7 4.5 -3.25 4.75 Q-2.9 4.75 -2.4 3.9 -1.9 3.1 -1.9 2.6 L-1.9 2.5 -1.5 2.5 -1.45 2.35 -1.35 3.6 -1.35 4.15 -1.4 6.15 M-2.65 -1.55 L-2.45 -1.5 Q-1.75 -1.1 -1.75 -0.1 -1.75 0.65 -2.2 1.45 L-2.25 1.35 Q-2.45 0.8 -3.15 0.7 L-2.65 -1.55" fill="#ffcc99" fill-rule="evenodd" stroke="none"/>
    </g>
  </defs>
</svg>
