<?xml version="1.0" encoding="UTF-8" standalone="no"?>
<svg xmlns:ffdec="https://www.free-decompiler.com/flash" xmlns:xlink="http://www.w3.org/1999/xlink" ffdec:objectType="frame" height="81.6px" width="30.1px" xmlns="http://www.w3.org/2000/svg">
  <g transform="matrix(1.0, 0.0, 0.0, 1.0, 10.5, 39.25)">
    <use ffdec:characterId="1989" height="63.0" transform="matrix(1.0, 0.0, 0.0, 1.0, -10.5, -39.25)" width="24.0" xlink:href="#shape0"/>
  </g>
  <defs>
    <g id="shape0" transform="matrix(1.0, 0.0, 0.0, 1.0, 10.5, 39.25)">
      <path d="M7.4 -7.1 L7.35 -6.75 7.1 -3.15 7.1 -3.05 7.0 -3.5 7.25 -6.25 7.3 -6.9 7.4 -7.1 M6.8 1.25 L6.25 7.65 6.1 7.85 4.05 11.0 3.35 9.75 2.55 10.2 2.05 7.85 1.9 7.35 2.35 7.35 Q3.85 7.35 4.75 1.85 4.95 2.25 5.5 2.25 6.3 2.25 6.8 1.25 M5.35 17.0 L5.3 17.7 4.8 17.3 5.1 17.25 5.35 17.0 M-7.05 11.5 Q-8.2 2.05 -9.2 -1.8 L-9.75 -3.95 -10.35 -6.25 -10.5 -8.05 -10.25 -17.25 Q-10.2 -18.6 -9.35 -20.95 L-8.2 -24.35 -7.85 -25.5 -7.7 -25.85 -7.0 -29.45 -6.15 -32.9 -5.7 -34.5 -5.65 -35.6 Q-4.35 -37.0 -2.6 -37.8 L-1.9 -38.15 -1.85 -38.25 -1.7 -38.25 -1.8 -37.8 -1.65 -36.25 Q-2.05 -35.7 -2.75 -35.3 L-5.5 -34.0 -3.3 -33.55 -3.15 -33.5 Q-5.7 -29.7 -4.75 -29.9 L-4.5 -29.95 -4.3 -29.95 -3.8 -29.9 -3.8 -29.85 -3.75 -29.15 -3.0 -28.6 -2.95 -28.35 -3.55 -25.0 -3.75 -23.45 -3.85 -23.35 Q-4.5 -22.8 -4.5 -21.65 L-4.4 -20.95 -5.8 -18.95 Q-6.45 -19.5 -6.85 -19.5 -7.9 -19.5 -8.5 -18.5 -9.0 -17.65 -9.0 -16.5 -9.0 -15.2 -7.3 -15.0 L-7.75 -13.25 -7.8 -13.0 -8.15 -10.9 -8.75 -11.0 Q-9.4 -11.0 -9.75 -10.25 L-10.0 -9.1 Q-10.0 -8.15 -9.5 -7.5 L-8.65 -6.85 -8.65 -6.25 -8.7 -3.65 Q-8.7 -2.7 -6.9 4.05 L-5.5 9.25 -5.6 9.45 -7.05 11.5 M-1.6 -28.5 L-1.15 -28.6 -0.85 -27.25 -0.5 -25.6 -0.85 -24.9 -1.15 -23.6 -1.15 -23.45 Q-1.5 -24.2 -2.55 -24.05 L-2.65 -24.0 -2.65 -24.05 -2.45 -26.7 -1.6 -28.5 M-2.8 -19.8 L-2.25 -19.8 Q-1.6 -19.8 -1.25 -20.2 L-1.45 -18.85 -1.6 -17.4 -2.1 -17.05 -2.5 -16.7 -2.8 -19.7 -2.8 -19.8 M-0.85 -22.3 L-1.0 -22.85 -0.75 -22.65 -0.85 -22.3 M5.1 -8.6 L5.6 -8.25 5.8 -8.1 5.65 -6.95 5.55 -6.25 5.25 -4.0 5.5 -3.05 5.75 -2.15 5.2 -0.7 Q5.0 -1.25 4.15 -1.25 3.0 -1.25 3.0 -0.45 L3.2 -0.15 3.15 0.0 Q3.15 0.55 3.45 0.8 3.25 1.9 2.3 2.15 L2.95 -1.5 Q3.35 -3.45 3.95 -4.5 L4.0 -6.25 4.05 -7.2 5.1 -8.6 M-2.25 -2.5 L-2.6 -1.95 -2.25 -4.6 -2.1 -4.6 -1.9 -3.1 -2.25 -2.5 M-1.9 0.8 L-1.5 1.0 -1.5 1.3 -1.45 2.35 -1.5 2.5 -1.9 2.5 Q-1.9 1.85 -2.2 1.5 L-2.2 1.45 -1.9 0.8 M-2.3 -14.0 L-2.0 -14.15 -1.85 -14.2 -2.05 -10.85 -2.3 -14.0 M3.5 22.0 L3.55 22.15 3.35 22.1 3.5 22.0" fill="#a58c7c" fill-rule="evenodd" stroke="none"/>
      <path d="M-3.0 -28.6 L-2.1 -28.5 -1.6 -28.5 -2.45 -26.7 -2.65 -24.05 -2.65 -24.0 Q-3.4 -23.9 -3.75 -23.45 L-3.55 -25.0 -2.95 -28.35 -3.0 -28.6 M-4.4 -20.95 Q-4.1 -20.0 -2.8 -19.8 L-2.8 -19.7 -2.5 -16.7 Q-4.65 -15.0 -6.25 -11.0 -4.8 -13.0 -2.3 -14.0 L-2.05 -10.85 -1.85 -14.2 -0.15 -14.85 -0.25 -14.0 Q-0.25 -12.9 0.85 -12.6 L0.55 -12.0 Q-0.7 -10.1 -2.5 -9.75 L-2.5 -9.5 Q-2.0 -9.6 -0.3 -10.25 L2.5 -10.75 3.6 -10.4 2.95 -9.15 2.65 -9.2 Q1.45 -9.35 1.1 -8.5 L1.0 -7.4 0.6 -6.25 0.4 -6.05 -1.9 -3.1 -2.1 -4.6 -2.25 -4.6 -2.6 -1.95 -2.75 -1.6 -4.1 -1.75 -5.55 -1.6 -5.8 -0.55 -6.0 0.85 Q-6.0 1.4 -5.0 2.0 L-4.5 2.25 -4.5 2.35 -4.5 3.1 -4.3 3.15 -4.25 3.35 -4.05 3.9 -3.7 4.5 -3.75 4.7 -4.35 4.55 -5.0 4.5 Q-5.5 4.5 -5.65 4.75 L-5.8 5.65 -5.9 6.65 Q-5.9 7.35 -5.15 8.15 L-5.05 8.25 -5.5 9.25 -6.9 4.05 Q-8.7 -2.7 -8.7 -3.65 L-8.65 -6.25 -8.65 -6.85 -8.0 -6.75 Q-7.5 -6.75 -7.0 -7.5 -6.5 -8.2 -6.5 -8.75 L-6.75 -9.25 Q-6.5 -9.5 -6.5 -9.85 -6.5 -10.4 -7.5 -10.75 L-8.15 -10.9 -7.8 -13.0 -7.75 -13.25 -7.3 -15.0 -6.85 -15.0 Q-5.85 -15.0 -5.25 -15.75 -4.75 -16.35 -4.75 -17.0 L-4.85 -17.65 -4.85 -17.7 -5.0 -18.2 -5.0 -18.25 -5.75 -18.95 -5.8 -18.95 -4.4 -20.95 M-1.25 -20.2 L-1.05 -20.45 -0.8 -21.4 -0.85 -22.25 -0.85 -22.3 -0.75 -22.65 -0.1 -22.5 0.0 -22.5 0.0 -22.0 -0.25 -18.75 Q-0.25 -18.4 -1.6 -17.4 L-1.45 -18.85 -1.25 -20.2 M2.0 2.25 Q1.25 2.4 0.9 3.0 L0.7 -0.15 0.75 -1.55 0.65 -4.15 Q1.6 -3.9 2.15 -4.65 L2.45 -5.15 Q2.95 -5.4 3.15 -6.25 L3.35 -6.5 4.05 -7.2 4.0 -6.25 3.95 -4.5 Q3.35 -3.45 2.95 -1.5 L2.3 2.15 2.25 2.15 2.0 2.25 M-1.5 1.0 L-1.05 1.1 -1.45 2.35 -1.5 1.3 -1.5 1.0 M-1.65 -31.5 L-2.55 -31.4 -3.4 -31.55 -4.0 -31.65 -4.05 -30.8 -3.8 -29.9 -4.3 -29.95 -4.5 -29.95 -4.75 -29.9 Q-5.7 -29.7 -3.15 -33.5 L-1.75 -33.25 -1.65 -31.5" fill="#987e68" fill-rule="evenodd" stroke="none"/>
      <path d="M8.25 -30.7 L8.35 -30.4 Q8.35 -29.75 7.95 -28.6 L7.5 -27.1 7.55 -26.95 7.05 -27.3 6.65 -27.45 Q5.65 -27.8 5.1 -26.5 L4.9 -25.95 3.95 -24.2 3.1 -26.25 2.9 -26.1 Q2.5 -25.75 2.5 -24.55 2.9 -23.1 2.65 -22.05 2.5 -21.35 3.5 -20.6 L4.0 -20.25 4.0 -20.15 3.5 -20.25 Q2.1 -20.5 1.5 -21.35 1.1 -22.0 1.1 -23.15 L1.15 -23.7 0.9 -23.15 Q0.55 -22.55 0.0 -22.5 L-0.1 -22.5 -0.75 -22.65 -1.0 -22.85 -0.85 -22.3 -0.85 -22.25 -0.8 -21.4 -1.05 -20.45 -1.25 -20.2 Q-1.6 -19.8 -2.25 -19.8 L-2.8 -19.8 Q-4.1 -20.0 -4.4 -20.95 L-4.5 -21.65 Q-4.5 -22.8 -3.85 -23.35 L-4.15 -22.35 -4.0 -21.5 Q-3.7 -20.65 -2.9 -20.5 L-2.6 -20.5 Q-1.0 -20.5 -1.0 -22.5 -1.0 -23.05 -1.15 -23.45 L-1.15 -23.6 -0.85 -24.9 -0.9 -24.6 Q-1.15 -23.8 -0.55 -23.55 L-0.1 -23.5 0.0 -23.5 Q1.05 -23.5 1.25 -24.65 L1.25 -24.3 1.25 -24.05 1.95 -26.25 Q2.9 -28.65 3.75 -29.25 L3.2 -29.8 2.35 -30.7 Q0.45 -29.0 -1.15 -28.6 L-1.6 -28.5 -2.1 -28.5 -3.0 -28.6 -3.75 -29.15 -3.8 -29.85 -3.4 -29.6 -2.75 -29.5 -1.35 -29.75 -1.15 -29.8 Q-0.7 -30.0 -0.15 -30.3 1.25 -31.05 1.75 -31.75 L1.6 -32.0 0.7 -31.85 0.95 -32.15 -0.3 -33.4 -0.5 -33.6 Q-1.25 -34.55 -1.55 -35.75 L-1.65 -36.25 -1.8 -37.8 -1.7 -38.25 Q-1.45 -38.75 -0.7 -39.05 L-0.05 -39.1 -0.15 -38.35 -0.15 -38.3 0.1 -37.1 0.5 -36.6 Q0.5 -35.6 1.15 -35.1 L3.9 -33.05 Q3.5 -32.3 3.45 -31.95 3.4 -31.5 4.2 -31.2 L5.0 -31.05 5.1 -31.0 5.25 -31.0 Q5.1 -30.55 5.25 -30.2 5.4 -29.7 6.25 -29.6 L6.85 -29.55 Q7.6 -29.55 8.0 -30.25 L8.25 -30.7 M8.3 -24.55 L8.4 -24.3 8.1 -23.7 7.65 -22.8 7.0 -21.35 6.0 -18.55 5.75 -16.8 5.8 -16.3 5.95 -16.2 5.9 -15.8 6.1 -14.75 6.5 -15.35 7.05 -16.35 7.15 -16.45 8.3 -17.45 8.75 -18.3 9.45 -19.9 Q9.85 -18.8 9.85 -17.75 L9.8 -17.55 Q8.8 -15.15 8.0 -14.15 L7.25 -13.55 8.2 -16.7 8.5 -17.75 8.3 -17.45 7.05 -15.8 6.55 -15.1 5.0 -12.8 Q4.75 -13.65 4.65 -14.95 L4.65 -15.55 4.7 -15.95 4.85 -15.75 5.15 -19.35 5.1 -19.8 5.5 -20.0 5.6 -20.6 4.55 -22.8 5.3 -23.35 5.35 -23.45 5.85 -24.5 6.9 -24.35 8.15 -24.25 8.25 -24.3 8.3 -24.55 M7.1 -3.05 L7.25 -2.75 7.5 -2.05 Q7.5 -0.9 7.1 0.4 L6.8 1.2 6.8 1.25 Q6.3 2.25 5.5 2.25 4.95 2.25 4.75 1.85 3.85 7.35 2.35 7.35 L1.9 7.35 1.4 7.15 Q0.8 6.9 0.6 6.2 L0.6 4.9 Q0.6 3.7 0.75 3.3 L0.9 3.0 Q1.25 2.4 2.0 2.25 1.05 2.65 1.0 4.0 L1.0 4.05 1.0 4.15 Q0.95 4.8 1.25 5.15 1.6 5.5 2.35 5.5 3.4 5.5 4.7 1.6 L4.65 1.3 Q4.65 0.75 5.2 -0.7 L5.75 -2.15 5.5 -3.05 5.25 -4.0 5.55 -6.25 5.65 -6.95 5.8 -8.1 5.95 -9.5 6.2 -8.45 6.55 -7.25 6.65 -6.4 6.65 -6.25 6.75 -5.15 7.05 -6.25 7.3 -6.9 7.25 -6.25 7.0 -3.5 7.1 -3.05 M5.45 15.7 L5.5 16.1 5.35 17.0 5.1 17.25 4.8 17.3 3.5 17.35 3.05 17.8 3.15 15.15 3.0 14.25 4.2 13.55 4.25 13.5 Q5.25 14.8 5.45 15.7 M0.85 19.25 L0.6 19.25 -1.05 18.45 -1.0 17.8 Q-1.0 13.55 -2.45 14.55 L-2.85 14.9 -2.8 14.5 Q-2.8 13.95 -3.5 13.3 L-4.3 12.75 Q-3.65 11.8 -3.05 10.0 L-3.15 10.0 -3.4 8.65 -3.4 8.55 -4.3 8.75 -5.05 8.25 -5.15 8.15 Q-5.9 7.35 -5.9 6.65 L-5.8 5.65 -5.8 5.8 -5.75 6.55 Q-5.5 7.05 -4.7 7.2 L-4.0 7.25 Q-3.6 7.25 -3.3 6.7 L-3.05 6.05 Q-2.75 6.75 -2.75 7.85 L-2.75 8.3 -2.65 8.55 -2.4 7.35 Q-2.15 6.1 -1.85 6.2 L-1.6 6.35 -1.75 6.65 -0.4 9.75 -0.25 10.05 -1.4 10.1 Q-1.3 10.3 -1.75 11.05 L-2.25 12.05 Q-2.25 13.05 -1.65 14.1 L-0.4 16.25 Q-0.25 16.05 -0.25 15.6 L-0.45 14.85 -0.8 14.25 0.1 13.2 0.65 12.15 0.4 11.25 0.45 11.25 1.25 12.0 1.55 12.0 1.85 12.1 Q2.75 12.5 2.75 12.9 L2.25 13.75 1.65 14.7 Q0.6 15.3 0.6 16.45 0.6 17.35 0.9 18.05 L0.85 18.6 0.85 19.25 M-3.85 17.0 L-4.25 16.75 -6.35 15.35 Q-6.9 14.85 -6.9 14.0 L-6.8 13.35 Q-6.55 12.45 -5.5 12.1 L-5.3 12.3 -5.5 12.25 -5.5 12.55 Q-4.6 16.5 -4.0 16.5 L-3.75 16.5 -3.85 17.0 M3.8 -13.6 Q3.1 -12.5 1.75 -12.5 L0.85 -12.6 Q-0.25 -12.9 -0.25 -14.0 L-0.15 -14.85 0.15 -15.85 0.1 -15.3 0.15 -15.0 Q0.25 -13.95 1.45 -13.8 L1.75 -13.8 Q3.0 -13.8 3.75 -14.25 L4.2 -14.65 4.0 -14.1 3.8 -13.65 3.8 -13.6 M6.55 -11.55 L7.1 -10.45 7.5 -9.4 6.5 -11.35 6.55 -11.55 M3.15 -6.25 Q2.95 -5.4 2.45 -5.15 L2.15 -4.65 Q1.6 -3.9 0.65 -4.15 L0.75 -1.55 0.7 -0.15 0.6 0.1 Q0.3 1.1 -0.6 1.1 L-1.05 1.1 -1.5 1.0 -1.9 0.8 -2.65 -0.1 -2.8 -0.8 -2.8 -1.4 -2.75 -1.6 -2.6 -1.95 -2.25 -2.5 -2.6 -1.55 -2.65 -1.25 -2.65 -0.6 Q-2.5 -0.05 -1.75 0.0 L-1.6 0.0 Q-1.05 0.0 -0.6 -0.5 L-0.25 -1.1 Q0.15 -1.95 0.15 -3.0 0.15 -4.0 0.5 -4.65 0.95 -5.45 2.0 -5.7 2.5 -5.8 2.85 -6.05 L3.1 -6.25 3.15 -6.25 M3.2 -0.15 L3.25 -0.15 3.5 0.15 3.45 0.8 Q3.15 0.55 3.15 0.0 L3.2 -0.15 M7.35 -2.3 L7.1 -2.95 6.75 -3.15 6.0 -2.2 5.6 -1.3 5.9 0.05 6.25 1.1 6.75 -0.3 6.9 -0.2 7.1 0.0 7.35 -2.3 M-3.7 4.5 L-4.05 3.9 -4.25 3.35 -4.3 3.15 -3.55 3.25 -3.35 3.25 -2.3 3.15 -2.25 2.05 -2.2 1.5 Q-1.9 1.85 -1.9 2.5 L-1.9 2.6 Q-1.9 3.1 -2.4 3.9 -2.9 4.75 -3.25 4.75 L-3.7 4.5 M-4.5 2.35 L-4.5 2.25 -4.55 2.05 -4.5 1.7 -4.5 2.35 M1.7 10.65 L1.8 10.75 2.55 10.2 3.35 9.75 4.05 11.0 4.15 11.2 4.4 12.0 3.8 11.3 3.5 11.15 Q3.0 11.15 2.9 11.4 L2.65 11.9 2.55 11.7 1.8 10.75 1.7 10.7 1.7 10.65" fill="#990000" fill-rule="evenodd" stroke="none"/>
      <path d="M-0.05 -39.1 L-0.05 -39.25 0.0 -39.25 0.7 -38.35 0.75 -38.25 1.65 -36.75 1.65 -36.6 4.5 -34.8 5.55 -34.1 5.95 -33.8 6.2 -33.6 7.15 -32.9 7.75 -32.3 Q8.35 -31.7 8.35 -31.3 L8.35 -31.15 8.25 -30.7 8.0 -30.25 Q7.6 -29.55 6.85 -29.55 L6.25 -29.6 Q5.4 -29.7 5.25 -30.2 5.1 -30.55 5.25 -31.0 L5.1 -31.0 5.0 -31.05 4.2 -31.2 Q3.4 -31.5 3.45 -31.95 3.5 -32.3 3.9 -33.05 L1.15 -35.1 Q0.5 -35.6 0.5 -36.6 L0.1 -37.1 -0.15 -38.3 -0.15 -38.35 -0.05 -39.1 M7.55 -26.95 L8.3 -25.75 8.35 -25.3 8.3 -24.55 8.25 -24.3 8.15 -24.25 6.9 -24.35 5.85 -24.5 5.35 -23.45 5.3 -23.35 4.55 -22.8 5.6 -20.6 5.5 -20.0 5.1 -19.8 5.15 -19.35 4.85 -15.75 4.7 -15.95 4.65 -15.55 4.4 -14.95 4.2 -14.65 3.75 -14.25 Q3.0 -13.8 1.75 -13.8 L1.45 -13.8 Q0.25 -13.95 0.15 -15.0 L0.1 -15.3 0.15 -15.85 Q0.3 -16.55 0.85 -17.0 1.75 -17.75 3.5 -17.75 L3.6 -17.75 4.2 -17.65 4.0 -20.15 4.0 -20.25 3.5 -20.6 Q2.5 -21.35 2.65 -22.05 2.9 -23.1 2.5 -24.55 2.5 -25.75 2.9 -26.1 L3.1 -26.25 3.95 -24.2 4.9 -25.95 5.1 -26.5 Q5.65 -27.8 6.65 -27.45 L7.05 -27.3 7.55 -26.95 M7.65 -8.85 L7.45 -7.3 7.4 -7.1 7.3 -6.9 7.05 -6.25 6.75 -5.15 6.65 -6.25 6.65 -6.4 6.55 -7.25 6.2 -8.45 5.95 -9.5 5.85 -9.9 5.1 -8.6 4.05 -7.2 3.35 -6.5 3.15 -6.25 3.1 -6.25 2.85 -6.05 Q2.5 -5.8 2.0 -5.7 0.95 -5.45 0.5 -4.65 0.15 -4.0 0.15 -3.0 0.15 -1.95 -0.25 -1.1 L-0.6 -0.5 Q-1.05 0.0 -1.6 0.0 L-1.75 0.0 Q-2.5 -0.05 -2.65 -0.6 L-2.65 -1.25 -2.6 -1.55 -2.25 -2.5 -1.9 -3.1 0.4 -6.05 0.6 -6.25 1.0 -7.4 1.1 -8.5 Q1.45 -9.35 2.65 -9.2 L2.95 -9.15 3.6 -10.4 3.95 -11.05 4.2 -11.5 5.0 -12.8 6.55 -15.1 7.05 -15.8 8.3 -17.45 8.5 -17.75 8.2 -16.7 7.25 -13.55 6.65 -11.85 6.55 -11.55 6.5 -11.35 7.5 -9.4 7.55 -9.25 7.65 -9.0 7.65 -8.85 M-0.65 -31.65 L0.7 -31.85 1.6 -32.0 1.75 -31.75 Q1.25 -31.05 -0.15 -30.3 -0.7 -30.0 -1.15 -29.8 L-1.35 -29.75 -2.75 -29.5 -3.4 -29.6 -3.8 -29.85 -3.8 -29.9 -4.05 -30.8 -4.0 -31.65 -3.4 -31.55 -2.55 -31.4 -1.65 -31.5 -0.65 -31.65 M1.25 -24.65 Q1.05 -23.5 0.0 -23.5 L-0.1 -23.5 -0.55 -23.55 Q-1.15 -23.8 -0.9 -24.6 L-0.85 -24.9 -0.5 -25.6 0.2 -25.95 0.3 -25.95 Q1.25 -26.2 1.25 -25.1 L1.25 -24.65 M-1.15 -23.45 Q-1.0 -23.05 -1.0 -22.5 -1.0 -20.5 -2.6 -20.5 L-2.9 -20.5 Q-3.7 -20.65 -4.0 -21.5 L-4.15 -22.35 -3.85 -23.35 -3.75 -23.45 Q-3.4 -23.9 -2.65 -24.0 L-2.55 -24.05 Q-1.5 -24.2 -1.15 -23.45 M5.2 -0.7 Q4.65 0.75 4.65 1.3 L4.7 1.6 Q3.4 5.5 2.35 5.5 1.6 5.5 1.25 5.15 0.95 4.8 1.0 4.15 L1.0 4.05 1.0 4.0 Q1.05 2.65 2.0 2.25 L2.25 2.15 2.3 2.15 Q3.25 1.9 3.45 0.8 L3.5 0.15 3.25 -0.15 3.2 -0.15 3.0 -0.45 Q3.0 -1.25 4.15 -1.25 5.0 -1.25 5.2 -0.7 M7.35 -2.3 L7.1 0.0 6.9 -0.2 6.75 -0.3 6.25 1.1 5.9 0.05 5.6 -1.3 6.0 -2.2 6.75 -3.15 7.1 -2.95 7.35 -2.3 M-5.8 5.65 L-5.65 4.75 Q-5.5 4.5 -5.0 4.5 L-4.35 4.55 -3.75 4.7 Q-3.05 5.0 -3.05 5.8 L-3.05 6.05 -3.3 6.7 Q-3.6 7.25 -4.0 7.25 L-4.7 7.2 Q-5.5 7.05 -5.75 6.55 L-5.8 5.8 -5.8 5.65 M-4.3 3.15 L-4.5 3.1 -4.5 2.35 -4.5 1.7 -4.5 0.85 -4.4 0.75 -3.5 0.65 -3.15 0.7 Q-2.45 0.8 -2.25 1.35 L-2.2 1.45 -2.2 1.5 -2.25 2.05 -2.3 3.15 -3.35 3.25 -3.55 3.25 -4.3 3.15 M-1.6 6.35 L-1.55 6.15 -1.4 6.15 Q-0.15 7.55 0.75 9.1 L0.8 9.1 1.0 9.2 Q1.65 9.6 1.65 10.45 L1.7 10.65 1.7 10.7 1.8 10.75 2.55 11.7 2.65 11.9 2.9 11.4 Q3.0 11.15 3.5 11.15 L3.8 11.3 4.4 12.0 4.6 12.25 Q4.6 13.15 4.25 13.5 L4.2 13.55 3.0 14.25 2.15 14.6 1.6 14.75 1.65 14.7 2.25 13.75 2.75 12.9 Q2.75 12.5 1.85 12.1 L1.55 12.0 1.25 12.0 0.45 11.25 0.4 11.25 0.65 12.15 0.1 13.2 -0.8 14.25 -0.45 14.85 -0.25 15.6 Q-0.25 16.05 -0.4 16.25 L-1.65 14.1 Q-2.25 13.05 -2.25 12.05 L-1.75 11.05 Q-1.3 10.3 -1.4 10.1 L-0.25 10.05 -0.4 9.75 -1.75 6.65 -1.6 6.35 M-3.75 16.5 L-4.0 16.5 Q-4.6 16.5 -5.5 12.55 L-5.5 12.25 -5.3 12.3 -4.3 12.75 -3.5 13.3 Q-2.8 13.95 -2.8 14.5 L-2.85 14.9 -3.05 15.4 -3.55 16.35 -3.55 16.45 -3.75 16.5" fill="#ff0000" fill-rule="evenodd" stroke="none"/>
      <path d="M-0.3 -33.4 L-0.65 -31.65 -1.65 -31.5 -1.75 -33.25 -3.15 -33.5 -2.7 -34.2 -2.6 -34.35 -2.05 -35.1 -1.55 -35.75 Q-1.25 -34.55 -0.5 -33.6 L-0.3 -33.4 M3.2 -29.8 L3.75 -29.25 Q2.9 -28.65 1.95 -26.25 L1.25 -24.05 1.25 -24.3 1.25 -24.65 1.25 -25.1 Q1.25 -26.2 0.3 -25.95 0.85 -27.2 1.55 -27.9 L3.2 -29.8 M0.0 -22.5 Q0.55 -22.55 0.9 -23.15 L1.15 -23.7 1.1 -23.15 Q1.1 -22.0 1.5 -21.35 2.1 -20.5 3.5 -20.25 L3.5 -19.35 3.6 -17.75 3.5 -17.75 Q1.75 -17.75 0.85 -17.0 0.3 -16.55 0.15 -15.85 L-0.15 -14.85 -1.85 -14.2 -1.75 -15.85 -1.6 -17.4 Q-0.25 -18.4 -0.25 -18.75 L0.0 -22.0 0.0 -22.5 M0.85 -12.6 L1.75 -12.5 Q3.1 -12.5 3.8 -13.6 L3.95 -11.05 3.6 -10.4 2.5 -10.75 -0.3 -10.25 Q-2.0 -9.6 -2.5 -9.5 L-2.5 -9.75 Q-0.7 -10.1 0.55 -12.0 L0.85 -12.6 M0.9 3.0 L0.75 3.3 Q0.6 3.7 0.6 4.9 L0.6 6.2 Q0.8 6.9 1.4 7.15 L0.8 9.1 0.75 9.1 Q-0.15 7.55 -1.4 6.15 L-1.35 4.15 -1.35 3.6 -1.45 2.35 -1.05 1.1 -0.6 1.1 Q0.3 1.1 0.6 0.1 L0.7 -0.15 0.9 3.0 M-2.75 -1.6 L-2.8 -1.4 -2.8 -0.8 -3.15 0.7 -3.5 0.65 -4.4 0.75 -4.5 0.85 -4.5 1.7 -4.55 2.05 -4.5 2.25 -5.0 2.0 Q-6.0 1.4 -6.0 0.85 L-5.8 -0.55 -5.55 -1.6 -4.1 -1.75 -2.75 -1.6 M-7.3 -15.0 Q-6.7 -17.5 -6.0 -18.65 L-5.8 -18.95 -5.75 -18.95 -5.0 -18.25 -5.0 -18.2 -4.85 -17.7 -4.85 -17.65 -4.75 -17.0 Q-4.75 -16.35 -5.25 -15.75 -5.85 -15.0 -6.85 -15.0 L-7.3 -15.0 M-8.15 -10.9 L-7.5 -10.75 Q-6.5 -10.4 -6.5 -9.85 -6.5 -9.5 -6.75 -9.25 L-6.5 -8.75 Q-6.5 -8.2 -7.0 -7.5 -7.5 -6.75 -8.0 -6.75 L-8.65 -6.85 -8.4 -9.35 -8.15 -10.9 M-5.5 9.25 L-5.05 8.25 -4.3 8.75 -4.2 9.9 -4.25 12.5 -4.5 12.15 Q-5.1 11.15 -5.3 9.9 L-5.5 9.25 M-2.3 -14.0 Q-4.8 -13.0 -6.25 -11.0 -4.65 -15.0 -2.5 -16.7 L-2.3 -14.0" fill="#ebbb98" fill-rule="evenodd" stroke="none"/>
      <path d="M9.8 -17.55 L10.75 -18.75 Q9.3 -15.95 8.05 -10.5 L7.65 -8.85 7.65 -9.0 7.55 -9.25 7.5 -9.4 7.1 -10.45 6.55 -11.55 6.65 -11.85 7.25 -13.55 8.0 -14.15 Q8.8 -15.15 9.8 -17.55 M6.25 7.65 L5.9 11.2 5.45 15.7 Q5.25 14.8 4.25 13.5 4.6 13.15 4.6 12.25 L4.4 12.0 4.15 11.2 4.05 11.0 6.1 7.85 6.25 7.65 M-6.8 13.35 L-6.85 13.2 -7.05 11.5 -5.6 9.45 -5.5 9.25 -5.3 9.9 Q-5.1 11.15 -4.5 12.15 L-4.25 12.5 -4.2 9.9 -4.3 8.75 -3.4 8.55 -3.4 8.65 -3.15 10.0 -3.05 10.0 Q-3.65 11.8 -4.3 12.75 L-5.3 12.3 -5.5 12.1 Q-6.55 12.45 -6.8 13.35 M-0.3 -33.4 L0.95 -32.15 0.7 -31.85 -0.65 -31.65 -0.3 -33.4 M-1.15 -28.6 Q0.45 -29.0 2.35 -30.7 L3.2 -29.8 1.55 -27.9 Q0.85 -27.2 0.3 -25.95 L0.2 -25.95 -0.5 -25.6 -0.85 -27.25 -1.15 -28.6 M3.5 -20.25 L4.0 -20.15 4.2 -17.65 3.6 -17.75 3.5 -19.35 3.5 -20.25 M4.65 -15.55 L4.65 -14.95 Q4.75 -13.65 5.0 -12.8 L4.2 -11.5 3.95 -11.05 3.8 -13.6 3.8 -13.65 4.0 -14.1 4.2 -14.65 4.4 -14.95 4.65 -15.55 M5.1 -8.6 L5.85 -9.9 5.95 -9.5 5.8 -8.1 5.6 -8.25 5.1 -8.6 M1.4 7.15 L1.9 7.35 2.05 7.85 2.55 10.2 1.8 10.75 1.7 10.65 1.65 10.45 Q1.65 9.6 1.0 9.2 L0.8 9.1 1.4 7.15 M-2.8 -0.8 L-2.65 -0.1 -1.9 0.8 -2.2 1.45 -2.25 1.35 Q-2.45 0.8 -3.15 0.7 L-2.8 -0.8 M-1.65 -36.25 L-1.55 -35.75 -2.05 -35.1 -2.6 -34.35 -2.7 -34.2 -3.15 -33.5 -3.3 -33.55 -5.5 -34.0 -2.75 -35.3 Q-2.05 -35.7 -1.65 -36.25 M-2.5 -16.7 L-2.1 -17.05 -1.6 -17.4 -1.75 -15.85 -1.85 -14.2 -2.0 -14.15 -2.3 -14.0 -2.5 -16.7 M-5.8 -18.95 L-6.0 -18.65 Q-6.7 -17.5 -7.3 -15.0 -9.0 -15.2 -9.0 -16.5 -9.0 -17.65 -8.5 -18.5 -7.9 -19.5 -6.85 -19.5 -6.45 -19.5 -5.8 -18.95 M-3.75 4.7 L-3.7 4.5 -3.25 4.75 Q-2.9 4.75 -2.4 3.9 -1.9 3.1 -1.9 2.6 L-1.9 2.5 -1.5 2.5 -1.45 2.35 -1.35 3.6 -1.35 4.15 -1.4 6.15 -1.55 6.15 -1.6 6.35 -1.85 6.2 Q-2.15 6.1 -2.4 7.35 L-2.65 8.55 -2.75 8.3 -2.75 7.85 Q-2.75 6.75 -3.05 6.05 L-3.05 5.8 Q-3.05 5.0 -3.75 4.7 M-8.65 -6.85 L-9.5 -7.5 Q-10.0 -8.15 -10.0 -9.1 L-9.75 -10.25 Q-9.4 -11.0 -8.75 -11.0 L-8.15 -10.9 -8.4 -9.35 -8.65 -6.85" fill="#ffcc99" fill-rule="evenodd" stroke="none"/>
      <path d="M8.4 -24.3 L9.05 -25.65 10.25 -28.25 10.75 -28.25 10.6 -26.4 10.6 -26.25 Q11.6 -26.55 12.2 -27.5 12.85 -28.45 13.35 -28.65 13.5 -29.0 13.5 -28.4 13.5 -27.9 12.15 -25.4 L10.0 -21.5 9.45 -19.9 8.75 -18.3 8.3 -17.45 7.15 -16.45 7.05 -16.35 6.5 -15.35 6.1 -14.75 5.9 -15.8 5.95 -16.2 5.8 -16.3 5.75 -16.8 6.0 -18.55 7.0 -21.35 7.65 -22.8 8.1 -23.7 8.4 -24.3 M3.05 17.8 Q2.65 20.65 1.5 21.5 0.95 21.05 0.85 19.25 L0.85 18.6 0.9 18.05 Q0.6 17.35 0.6 16.45 0.6 15.3 1.65 14.7 L1.6 14.75 2.15 14.6 3.0 14.25 3.15 15.15 3.05 17.8 M-1.05 18.45 L-1.55 23.6 -2.4 23.75 Q-2.9 23.75 -3.2 22.85 L-3.25 23.0 -3.65 23.0 -3.8 19.75 -3.8 19.1 -3.9 17.9 -3.85 17.0 -3.75 16.5 -3.55 16.45 -3.55 16.35 -3.05 15.4 -2.85 14.9 -2.45 14.55 Q-1.0 13.55 -1.0 17.8 L-1.05 18.45" fill="#ffffff" fill-rule="evenodd" stroke="none"/>
    </g>
  </defs>
</svg>
