<?xml version="1.0" encoding="UTF-8" standalone="no"?>
<svg xmlns:ffdec="https://www.free-decompiler.com/flash" xmlns:xlink="http://www.w3.org/1999/xlink" ffdec:objectType="frame" height="30.9px" width="23.6px" xmlns="http://www.w3.org/2000/svg">
  <g transform="matrix(1.0, 0.0, 0.0, 1.0, 11.8, 15.45)">
    <use ffdec:characterId="1995" height="30.9" transform="matrix(1.0, 0.0, 0.0, 1.0, -11.8, -15.45)" width="23.6" xlink:href="#shape0"/>
  </g>
  <defs>
    <g id="shape0" transform="matrix(1.0, 0.0, 0.0, 1.0, 11.8, 15.45)">
      <path d="M-3.2 4.35 L-3.35 3.65 Q-5.55 1.6 -7.8 0.0 L-7.8 1.15 -7.55 2.05 -7.3 2.95 -7.3 4.2 -7.8 4.45 -9.05 1.4 Q-9.8 -0.95 -9.8 -1.9 L-9.8 -2.45 -9.65 -2.4 -9.8 -3.65 Q-9.8 -4.85 -9.2 -5.8 L-9.1 -5.9 -9.35 -6.6 -9.7 -7.55 -11.7 -7.85 -11.8 -8.05 -10.8 -8.75 Q-9.2 -9.6 -7.25 -9.7 L-6.95 -10.3 -7.1 -10.85 -6.25 -11.9 -5.5 -12.5 Q-4.25 -13.7 -3.8 -15.45 L-0.75 -13.6 Q0.25 -14.6 1.85 -14.85 L1.95 -13.8 3.55 -13.45 5.8 -14.95 5.4 -12.15 5.65 -11.8 Q6.05 -11.35 6.05 -10.9 L6.75 -9.95 Q8.2 -7.6 8.2 -4.2 8.2 -3.15 7.65 -1.5 L7.4 -0.65 7.6 -0.7 8.2 -0.65 8.2 -0.75 Q8.2 -2.0 8.9 -2.5 L8.7 -1.65 10.05 0.2 11.0 -0.1 Q11.5 -1.5 10.8 -2.6 11.8 -2.15 11.8 -0.35 11.8 1.65 10.05 1.65 L8.95 1.35 8.95 1.55 10.55 6.4 10.45 7.2 9.05 8.2 Q8.95 7.7 9.2 6.55 9.2 5.85 7.85 3.7 L7.05 2.7 6.95 7.1 Q6.15 10.95 2.7 10.95 L1.3 10.8 Q1.25 11.35 0.75 11.7 L-0.55 12.05 Q-2.2 12.05 -2.8 11.0 L-3.1 10.05 Q-3.1 8.75 -2.25 8.45 L-4.3 6.15 -4.2 5.95 -4.6 5.85 Q-4.55 5.3 -4.3 5.05 L-4.3 5.9 -3.3 5.95 Q-2.65 5.95 -2.1 5.55 L-3.1 4.4 -3.2 4.35 M-4.6 6.7 Q-4.6 7.25 -5.0 7.8 -5.55 8.45 -6.4 8.45 -7.8 8.45 -7.8 7.25 -7.8 6.5 -6.95 6.15 L-6.95 7.05 -6.9 7.05 -6.85 7.15 -6.8 7.2 -5.5 7.2 Q-4.85 7.15 -4.75 6.95 L-4.6 6.7 M-1.0 -11.2 L-1.2 -10.75 Q-2.7 -10.3 -2.7 -9.05 -2.75 -7.85 -2.4 -7.4 L-2.7 -6.35 Q-2.7 -5.45 -2.2 -4.5 L-2.15 -4.3 -2.8 -4.6 0.15 -1.5 0.25 -0.85 1.45 -0.55 1.45 -0.15 1.2 0.45 1.45 0.8 3.4 0.5 Q3.45 2.1 2.4 3.25 1.5 4.25 0.15 4.2 L1.7 4.65 6.45 -1.05 5.35 -0.55 4.65 -0.7 4.05 -1.55 5.05 -2.35 6.45 -2.7 Q7.5 -3.15 7.85 -4.3 8.1 -5.15 7.75 -6.15 L7.1 -6.7 7.35 -8.05 Q6.75 -9.05 5.35 -9.35 4.35 -9.45 3.5 -10.05 L2.8 -11.7 Q1.75 -11.95 0.8 -11.3 L0.85 -11.15 0.65 -11.3 -0.3 -11.6 0.05 -11.85 -0.1 -12.15 -2.55 -12.65 -3.45 -12.15 -4.95 -10.35 -5.1 -10.05 Q-5.45 -8.85 -7.2 -6.1 L-5.1 -8.3 Q-4.45 -9.65 -2.9 -10.3 L-1.0 -11.2 M1.45 -2.3 L0.45 -3.5 -0.15 -4.65 -0.55 -5.3 -0.55 -5.4 -0.35 -5.55 -0.45 -5.6 Q-0.2 -6.1 0.95 -6.45 L1.2 -6.5 1.2 -6.35 Q1.2 -5.7 2.0 -5.2 2.85 -4.7 4.05 -4.7 L4.25 -4.7 4.05 -4.1 4.5 -3.05 Q3.65 -2.05 2.15 -2.3 L1.45 -2.3 M5.3 -6.1 L5.3 -6.6 Q5.3 -8.7 3.25 -8.55 L2.4 -8.35 2.45 -9.25 2.25 -9.95 5.6 -8.6 5.8 -6.75 5.3 -6.1 M-4.3 -8.25 L-5.1 -7.1 -5.6 -5.9 -5.85 -4.8 Q-6.05 -3.15 -5.7 -1.45 -5.5 -0.6 -4.8 0.35 L-2.6 -0.7 -1.05 0.1 -1.2 -0.15 -1.65 -0.8 -3.0 -2.25 Q-3.85 -3.1 -5.1 -3.35 L-4.1 -7.4 -4.3 -8.25 M5.15 5.5 Q4.45 6.2 4.15 7.15 L3.2 7.65 1.45 7.55 1.45 9.2 3.2 9.05 3.45 8.25 4.05 8.05 Q5.35 7.75 5.7 6.4 5.25 6.75 5.55 5.75 5.7 4.9 5.15 5.5 M0.1 8.35 Q-1.1 7.75 -1.95 8.85 L-2.55 10.05 Q-2.6 10.5 -2.25 10.7 -0.8 11.4 0.25 10.4 L0.1 8.35 M-7.35 9.95 Q-5.8 10.25 -5.05 11.55 -4.25 12.95 -4.75 14.65 -5.15 15.25 -5.9 15.4 -7.5 15.6 -8.25 14.25 L-8.55 13.35 Q-8.65 12.05 -8.25 10.6 -8.35 12.3 -6.7 12.5 L-6.2 12.45 -6.0 13.65 -4.95 13.55 -4.8 12.2 -7.35 9.95" fill="#990000" fill-rule="evenodd" stroke="none"/>
      <path d="M8.9 -2.5 L9.3 -2.85 9.95 -2.9 10.8 -2.6 Q11.5 -1.5 11.0 -0.1 L10.05 0.2 8.7 -1.65 8.9 -2.5 M-4.3 6.15 L-4.6 6.7 -4.75 6.95 Q-4.85 7.15 -5.5 7.2 L-6.8 7.2 -6.85 7.15 -6.9 7.05 -6.95 7.05 -6.95 6.15 -6.95 5.95 -6.85 5.65 -5.55 5.7 -4.85 5.55 -4.8 5.8 -4.6 5.85 -4.2 5.95 -4.3 6.15 M-4.3 5.05 L-4.3 3.95 -3.2 4.35 -3.1 4.4 -2.1 5.55 Q-2.65 5.95 -3.3 5.95 L-4.3 5.9 -4.3 5.05 M-0.3 -11.6 L-1.0 -11.2 -2.9 -10.3 Q-4.45 -9.65 -5.1 -8.3 L-7.2 -6.1 Q-5.45 -8.85 -5.1 -10.05 L-4.95 -10.35 -3.45 -12.15 -2.55 -12.65 -0.1 -12.15 0.05 -11.85 -0.3 -11.6 M0.3 -9.8 L0.4 -9.8 0.65 -9.35 0.55 -9.0 0.9 -9.05 1.1 -9.0 1.15 -8.6 Q1.15 -7.95 0.2 -7.35 -0.6 -6.85 -1.15 -6.85 -1.8 -6.85 -1.7 -7.05 L-1.7 -7.1 -1.8 -7.3 0.05 -8.8 -0.1 -9.4 0.0 -9.85 0.3 -9.8 M-2.15 -4.3 L1.0 -2.3 1.45 -2.3 2.15 -2.3 Q3.65 -2.05 4.5 -3.05 L4.05 -4.1 4.25 -4.7 5.3 -6.1 5.8 -6.75 5.6 -8.6 2.25 -9.95 0.85 -11.15 0.8 -11.3 Q1.75 -11.95 2.8 -11.7 L3.5 -10.05 Q4.35 -9.45 5.35 -9.35 6.75 -9.05 7.35 -8.05 L7.1 -6.7 7.75 -6.15 Q8.1 -5.15 7.85 -4.3 7.5 -3.15 6.45 -2.7 L5.05 -2.35 4.05 -1.55 4.65 -0.7 5.35 -0.55 6.45 -1.05 1.7 4.65 0.15 4.2 Q1.5 4.25 2.4 3.25 3.45 2.1 3.4 0.5 L1.45 0.8 1.2 0.45 1.45 -0.15 1.45 -0.55 0.25 -0.85 0.15 -1.5 -2.8 -4.6 -2.15 -4.3 M-4.3 -8.25 L-4.1 -7.4 -5.1 -3.35 Q-3.85 -3.1 -3.0 -2.25 L-1.65 -0.8 -1.2 -0.15 -1.05 0.1 -2.6 -0.7 -4.8 0.35 Q-5.5 -0.6 -5.7 -1.45 -6.05 -3.15 -5.85 -4.8 L-5.6 -5.9 -5.1 -7.1 -4.3 -8.25 M0.1 8.35 L0.25 10.4 Q-0.8 11.4 -2.25 10.7 -2.6 10.5 -2.55 10.05 L-1.95 8.85 Q-1.1 7.75 0.1 8.35 M5.15 5.5 Q5.7 4.9 5.55 5.75 5.25 6.75 5.7 6.4 5.35 7.75 4.05 8.05 L3.45 8.25 3.2 9.05 1.45 9.2 1.45 7.55 3.2 7.65 4.15 7.15 Q4.45 6.2 5.15 5.5 M-8.25 10.6 Q-7.95 9.95 -7.35 9.95 L-4.8 12.2 -4.95 13.55 -6.0 13.65 -6.2 12.45 -6.7 12.5 Q-8.35 12.3 -8.25 10.6" fill="#ff0000" fill-rule="evenodd" stroke="none"/>
      <path d="M-1.0 -11.2 L-0.3 -11.6 0.65 -11.3 0.85 -11.15 2.25 -9.95 2.45 -9.25 2.4 -8.35 3.25 -8.55 Q5.3 -8.7 5.3 -6.6 L5.3 -6.1 4.25 -4.7 4.05 -4.7 Q2.85 -4.7 2.0 -5.2 1.2 -5.7 1.2 -6.35 L1.2 -6.5 0.95 -6.45 Q-0.2 -6.1 -0.45 -5.6 L-0.35 -5.55 -0.55 -5.4 -0.55 -5.3 -0.15 -4.65 0.45 -3.5 1.45 -2.3 1.0 -2.3 -2.15 -4.3 -2.2 -4.5 Q-2.7 -5.45 -2.7 -6.35 L-2.4 -7.4 Q-2.2 -7.1 -1.8 -7.1 L-1.7 -7.1 -1.7 -7.05 Q-1.8 -6.85 -1.15 -6.85 -0.6 -6.85 0.2 -7.35 1.15 -7.95 1.15 -8.6 L1.1 -9.0 0.9 -9.05 0.55 -9.0 0.65 -9.35 0.4 -9.8 0.3 -9.8 Q0.1 -11.2 -1.2 -10.75 L-1.0 -11.2" fill="#650101" fill-rule="evenodd" stroke="none"/>
      <path d="M-1.2 -10.75 Q0.1 -11.2 0.3 -9.8 L0.0 -9.85 -0.1 -9.4 0.05 -8.8 -1.8 -7.3 -1.7 -7.1 -1.8 -7.1 Q-2.2 -7.1 -2.4 -7.4 -2.75 -7.85 -2.7 -9.05 -2.7 -10.3 -1.2 -10.75" fill="#ffffff" fill-rule="evenodd" stroke="none"/>
    </g>
  </defs>
</svg>
