<?xml version="1.0" encoding="UTF-8" standalone="no"?>
<svg xmlns:ffdec="https://www.free-decompiler.com/flash" xmlns:xlink="http://www.w3.org/1999/xlink" ffdec:objectType="frame" height="31.0px" width="40.8px" xmlns="http://www.w3.org/2000/svg">
  <g transform="matrix(1.0, 0.0, 0.0, 1.0, 20.05, 15.3)">
    <use ffdec:characterId="544" height="24.8" id="m3" transform="matrix(1.0, 0.0, 0.0, 1.0, -20.05, -15.3)" width="28.75" xlink:href="#sprite0"/>
    <use ffdec:characterId="546" height="19.45" id="m1" transform="matrix(1.0, 0.0, 0.0, 1.0, 3.1, -13.95)" width="17.65" xlink:href="#sprite1"/>
    <use ffdec:characterId="548" height="13.9" id="m2" transform="matrix(1.0, 0.0, 0.0, 1.0, -9.35, 1.3)" width="25.4" xlink:href="#sprite2"/>
    <use ffdec:characterId="550" height="17.65" id="m0" transform="matrix(1.0, 0.0, 0.0, 1.0, -9.15, -7.8)" width="22.1" xlink:href="#sprite3"/>
    <use ffdec:characterId="552" height="10.0" id="c3" transform="matrix(2.1703, 0.0, 0.0, 2.1703, -17.0516, -13.5016)" width="10.0" xlink:href="#sprite4"/>
    <use ffdec:characterId="552" height="10.0" id="c0" transform="matrix(1.6928, 0.0, 0.0, 1.6928, -5.9142, -7.7642)" width="10.0" xlink:href="#sprite4"/>
    <use ffdec:characterId="552" height="10.0" id="c1" transform="matrix(1.4558, 0.0, 0.0, 1.4558, 4.9208, -10.6792)" width="10.0" xlink:href="#sprite4"/>
    <use ffdec:characterId="552" height="10.0" id="c2" transform="matrix(1.3261, 0.0, 0.0, 1.3261, -4.3306, 2.4194)" width="10.0" xlink:href="#sprite4"/>
  </g>
  <defs>
    <g id="sprite0" transform="matrix(1.0, 0.0, 0.0, 1.0, 14.4, 12.4)">
      <use ffdec:characterId="543" height="24.8" transform="matrix(1.0, 0.0, 0.0, 1.0, -14.4, -12.4)" width="28.75" xlink:href="#shape0"/>
    </g>
    <g id="shape0" transform="matrix(1.0, 0.0, 0.0, 1.0, 14.4, 12.4)">
      <path d="M2.1 -11.2 L3.0 -10.1 2.4 -10.15 2.0 -9.0 0.6 -9.8 -10.0 -3.65 -12.7 1.0 -11.6 0.6 -8.05 -3.75 -5.8 -3.85 -5.2 -4.7 -3.8 -4.8 -2.1 -4.75 Q-1.95 -4.8 -1.95 -5.0 L-0.8 -5.9 1.1 -6.05 3.9 -6.65 3.6 -5.95 5.65 -4.4 2.25 -4.15 1.65 -3.65 0.8 -3.6 0.6 -2.9 -1.4 -3.1 -3.0 -2.8 -4.65 -3.3 -5.5 -1.6 -7.05 -1.75 -7.4 -0.25 -8.4 -2.0 -12.7 2.4 -13.3 3.25 -13.45 4.45 -14.4 2.5 Q-14.2 1.0 -13.65 -0.4 L-12.1 -3.7 -10.65 -5.45 -10.2 -6.0 -9.2 -7.1 Q-7.95 -8.4 -6.35 -9.3 L-5.4 -9.7 Q-4.5 -10.45 -2.5 -11.2 -0.45 -12.0 1.15 -12.4 L1.4 -12.0 1.4 -11.95 0.7 -11.85 -3.3 -10.4 -7.4 -7.2 -8.3 -6.65 -8.65 -6.15 -9.45 -5.7 -11.0 -4.0 -12.3 -1.3 -11.05 -3.2 -9.55 -4.55 -9.3 -4.85 -7.2 -6.7 -6.8 -6.8 -4.15 -8.75 -0.6 -10.6 0.15 -11.2 2.1 -11.2 M-12.15 5.55 L-11.8 5.35 -9.9 3.05 -9.45 3.2 -9.4 3.15 -9.35 3.1 -9.3 3.1 -8.8 3.25 -4.4 1.8 -4.25 1.4 -3.5 0.95 0.7 0.4 2.7 0.4 2.85 0.4 3.35 0.2 3.8 -0.35 4.05 -0.4 4.4 -0.75 4.6 -0.8 7.25 -0.35 4.7 1.35 4.75 1.4 5.0 2.2 2.05 1.3 0.8 4.05 -2.35 4.65 -4.8 3.0 -5.2 4.4 -6.55 4.4 -7.75 4.95 -7.2 5.75 -7.9 5.8 -8.75 5.55 -11.05 7.05 -11.2 5.15 -12.15 5.55 M7.15 8.55 L7.75 9.6 7.7 9.65 7.6 9.85 2.8 12.4 2.6 12.3 -0.4 11.8 -3.2 10.8 -3.0 10.8 -3.05 9.6 -2.4 9.4 -1.0 11.05 4.3 8.8 5.2 7.4 6.95 8.55 7.15 8.55" fill="#3c5619" fill-rule="evenodd" stroke="none"/>
      <path d="M2.1 -11.2 L1.4 -11.95 1.4 -12.0 4.8 -10.7 8.05 -7.15 11.5 -6.5 10.85 -2.4 14.35 2.05 11.8 4.1 12.4 6.15 11.0 6.7 10.95 8.45 9.75 9.6 8.5 9.65 8.4 9.3 8.5 9.2 6.7 7.3 7.25 6.0 5.2 4.65 5.6 1.6 8.5 -1.35 8.9 -1.75 9.0 -1.8 5.6 -2.0 5.55 -2.0 6.6 -3.55 5.65 -4.4 3.6 -5.95 3.9 -6.65 4.7 -8.2 3.0 -10.1 2.1 -11.2 M-12.15 5.55 L-11.2 5.15 -11.05 7.05 -11.0 7.5 -12.9 5.8 -12.15 5.55 M10.0 -1.0 L9.45 -0.95 9.2 -0.5 Q9.05 -0.2 9.2 0.05 L9.7 0.4 10.2 0.3 10.55 -0.1 10.45 -0.65 10.0 -1.0 M9.6 -3.9 L9.0 -3.9 8.7 -3.4 8.7 -2.9 9.2 -2.6 Q9.4 -2.45 9.65 -2.6 L10.05 -3.05 9.95 -3.6 9.6 -3.9 M8.75 5.85 L9.95 4.5 8.35 5.1 8.3 5.5 8.75 5.85 M9.6 2.65 L10.0 2.15 8.2 1.8 8.05 2.2 9.0 2.75 9.6 2.65 M9.2 7.0 L8.9 7.2 8.8 7.05 8.8 7.0 9.0 7.0 9.2 7.0 M9.0 7.35 L9.45 7.2 9.85 6.85 9.85 6.5 9.6 6.4 9.05 6.5 8.7 6.85 8.6 7.2 Q8.7 7.35 9.0 7.35 M-10.9 7.6 L-8.4 8.6 -8.0 10.15 -10.9 7.6 M-7.95 10.2 L-5.85 9.75 -4.95 10.1 -7.95 10.2" fill="#b11612" fill-rule="evenodd" stroke="none"/>
      <path d="M1.4 -11.95 L2.1 -11.2 0.15 -11.2 -0.6 -10.6 -4.15 -8.75 -6.8 -6.8 -7.2 -6.7 -9.3 -4.85 -9.55 -4.55 -11.05 -3.2 -12.3 -1.3 -11.0 -4.0 -9.45 -5.7 -8.65 -6.15 -8.3 -6.65 -7.4 -7.2 -3.3 -10.4 0.7 -11.85 1.4 -11.95 M3.0 -10.1 L4.7 -8.2 4.6 -8.15 Q4.4 -7.6 3.75 -7.45 L2.05 -7.3 Q1.75 -7.2 1.1 -7.6 0.4 -8.05 -0.4 -8.0 L-2.7 -5.9 -5.3 -5.1 -5.3 -4.95 -3.8 -4.8 -5.2 -4.7 -5.8 -3.85 -8.05 -3.75 -11.6 0.6 -12.7 1.0 -10.0 -3.65 0.6 -9.8 2.0 -9.0 2.4 -10.15 3.0 -10.1 M4.6 4.85 L5.75 5.7 6.3 6.2 5.8 7.35 7.15 8.55 6.95 8.55 5.2 7.4 4.3 8.8 -1.0 11.05 -2.4 9.4 -3.05 9.6 -3.0 10.8 -3.2 10.8 -4.95 10.1 -5.85 9.75 -7.95 10.2 -8.0 10.2 -8.0 10.15 -8.4 8.6 -10.9 7.6 -7.35 7.7 -6.0 7.1 -2.6 6.6 -2.1 6.7 4.6 4.85" fill="#819438" fill-rule="evenodd" stroke="none"/>
      <path d="M4.7 -8.2 L3.9 -6.65 1.1 -6.05 -0.8 -5.9 -1.95 -5.0 Q-1.95 -4.8 -2.1 -4.75 L-3.8 -4.8 -5.3 -4.95 -5.3 -5.1 -2.7 -5.9 -0.4 -8.0 Q0.4 -8.05 1.1 -7.6 1.75 -7.2 2.05 -7.3 L3.75 -7.45 Q4.4 -7.6 4.6 -8.15 L4.7 -8.2 M5.55 -2.0 L5.6 -2.0 9.0 -1.8 8.9 -1.75 Q8.75 -1.6 8.55 -1.6 L8.55 -1.7 8.5 -1.35 7.25 -0.35 4.6 -0.8 4.4 -0.75 4.05 -0.4 3.8 -0.35 3.35 0.2 2.85 0.4 2.7 0.4 0.7 0.4 -3.5 0.95 -4.25 1.4 -4.4 1.8 -8.8 3.25 -9.3 3.1 -9.35 3.1 -9.4 3.15 -9.45 3.2 -9.9 3.05 -11.8 5.35 -12.15 5.55 -12.9 5.8 -13.45 4.45 -13.3 3.25 -12.7 2.4 -8.4 -2.0 -7.4 -0.25 -7.05 -1.75 -5.5 -1.6 -4.65 -3.3 -4.0 -2.4 -2.15 -1.05 -3.6 0.1 -3.15 0.6 4.05 -2.3 5.55 -2.0 M-11.05 7.05 L-8.75 5.55 -7.9 5.8 -7.2 5.75 -7.75 4.95 -6.55 4.4 -5.2 4.4 -4.8 3.0 -2.35 4.65 0.8 4.05 2.05 1.3 5.0 2.2 4.6 4.85 -2.1 6.7 -2.6 6.6 -6.0 7.1 -7.35 7.7 -10.9 7.6 -11.0 7.6 -11.0 7.5 -11.05 7.05" fill="#a2ab58" fill-rule="evenodd" stroke="none"/>
      <path d="M5.65 -4.4 L6.6 -3.55 5.55 -2.0 4.05 -2.3 -3.15 0.6 -3.6 0.1 -2.15 -1.05 -4.0 -2.4 -4.65 -3.3 -3.0 -2.8 -1.4 -3.1 0.6 -2.9 0.8 -3.6 1.65 -3.65 2.25 -4.15 5.65 -4.4 M8.9 -1.75 L8.5 -1.35 5.6 1.6 5.2 4.65 7.25 6.0 6.7 7.3 8.5 9.2 8.4 9.3 8.5 9.65 7.7 9.65 7.75 9.6 7.15 8.55 5.8 7.35 6.3 6.2 5.75 5.7 4.6 4.85 5.0 2.2 4.75 1.4 4.7 1.35 7.25 -0.35 8.5 -1.35 8.55 -1.7 8.55 -1.6 Q8.75 -1.6 8.9 -1.75" fill="#d0d3a6" fill-rule="evenodd" stroke="none"/>
      <path d="M9.6 -3.9 L9.95 -3.6 10.05 -3.05 9.65 -2.6 Q9.4 -2.45 9.2 -2.6 L8.7 -2.9 8.7 -3.4 9.0 -3.9 9.6 -3.9 M10.0 -1.0 L10.45 -0.65 10.55 -0.1 10.2 0.3 9.7 0.4 9.2 0.05 Q9.05 -0.2 9.2 -0.5 L9.45 -0.95 10.0 -1.0 M9.6 2.65 L9.0 2.75 8.05 2.2 8.2 1.8 10.0 2.15 9.6 2.65 M8.75 5.85 L8.3 5.5 8.35 5.1 9.95 4.5 8.75 5.85 M9.0 7.35 Q8.7 7.35 8.6 7.2 L8.7 6.85 9.05 6.5 9.6 6.4 9.85 6.5 9.85 6.85 9.45 7.2 9.0 7.35 M9.2 7.0 L9.0 7.0 8.8 7.0 8.8 7.05 8.9 7.2 9.2 7.0" fill="#330605" fill-rule="evenodd" stroke="none"/>
      <path d="M-0.4 11.8 L2.6 12.3 2.8 12.4 -0.4 11.8" fill="#6b7e00" fill-rule="evenodd" stroke="none"/>
    </g>
    <g id="sprite1" transform="matrix(1.0, 0.0, 0.0, 1.0, 8.8, 9.75)">
      <use ffdec:characterId="545" height="19.45" transform="matrix(1.0, 0.0, 0.0, 1.0, -8.8, -9.75)" width="17.65" xlink:href="#shape1"/>
    </g>
    <g id="shape1" transform="matrix(1.0, 0.0, 0.0, 1.0, 8.8, 9.75)">
      <path d="M-5.85 -9.6 L-5.85 -9.75 -5.45 -9.6 -4.9 -9.5 0.1 -7.85 1.65 -6.95 2.05 -6.5 3.45 -5.85 5.05 -4.35 5.3 -3.7 0.8 -7.1 -5.8 -9.3 -5.85 -9.6 M5.85 -2.1 L7.3 1.65 7.1 1.7 6.25 1.0 6.25 0.7 4.6 -0.9 3.7 -2.3 3.15 -2.3 2.65 -2.9 2.25 -3.05 1.8 -3.5 -5.15 -6.9 -5.4 -8.25 -4.2 -7.45 2.85 -5.05 5.85 -2.1 M8.75 5.55 L8.85 5.8 8.75 5.8 7.4 5.95 6.7 5.5 6.95 6.0 5.95 6.1 5.9 6.1 3.65 2.95 -2.95 0.2 -5.35 -0.65 -5.95 -1.85 -5.8 -1.85 -6.35 -3.0 -5.85 -3.45 -3.5 -2.8 -2.95 -3.1 0.6 -0.7 1.7 -1.2 2.05 -1.35 3.25 -0.9 3.3 -0.4 5.1 1.05 6.95 3.3 7.7 3.3 8.75 5.55" fill="#3c5619" fill-rule="evenodd" stroke="none"/>
      <path d="M-4.7 -4.2 L-4.35 -4.4 -3.8 -4.5 -3.35 -4.3 -1.45 -3.4 Q1.45 -2.1 1.55 -2.15 2.1 -1.95 1.8 -1.3 L1.7 -1.2 0.6 -0.7 -2.95 -3.1 -3.5 -2.8 -5.85 -3.45 -4.7 -4.2 M-2.95 0.2 L3.65 2.95 5.9 6.1 5.95 6.1 6.0 6.2 2.05 3.8 -0.15 3.65 -2.95 0.2 M6.95 6.0 L6.7 5.5 7.4 5.95 6.95 6.0 M-4.35 2.55 L-3.55 2.2 -0.25 3.65 -3.85 3.3 -3.35 3.3 -4.35 2.55" fill="#a2ab58" fill-rule="evenodd" stroke="none"/>
      <path d="M-5.8 -9.3 L0.8 -7.1 5.3 -3.7 5.85 -2.1 2.85 -5.05 -4.2 -7.45 -5.4 -8.25 -5.8 -9.3 M7.3 1.65 L8.75 5.55 7.7 3.3 6.95 3.3 5.1 1.05 3.3 -0.4 3.25 -0.9 2.05 -1.35 1.7 -1.2 1.8 -1.3 Q2.1 -1.95 1.55 -2.15 1.45 -2.1 -1.45 -3.4 L-3.35 -4.3 -3.8 -4.5 -4.35 -4.4 -5.15 -6.9 1.8 -3.5 2.25 -3.05 2.65 -2.9 3.15 -2.3 3.7 -2.3 4.6 -0.9 6.25 0.7 6.25 1.0 7.1 1.7 7.3 1.65" fill="#819438" fill-rule="evenodd" stroke="none"/>
      <path d="M-5.85 -9.6 L-5.8 -9.3 -5.4 -8.25 -5.15 -6.9 -4.35 -4.4 -4.7 -4.2 -5.8 -7.7 -5.85 -9.6 M8.75 5.8 L8.45 6.8 7.75 6.9 5.45 7.15 1.75 4.65 -4.05 3.85 -6.4 2.2 -6.3 1.45 -5.1 0.9 -6.65 -2.4 -6.35 -3.0 -5.8 -1.85 -5.95 -1.85 -5.35 -0.65 -2.95 0.2 -0.15 3.65 2.05 3.8 6.0 6.2 5.95 6.1 6.95 6.0 7.4 5.95 8.75 5.8 M-4.35 2.55 L-3.35 3.3 -3.85 3.3 -0.25 3.65 -3.55 2.2 -4.35 2.55" fill="#d0d3a6" fill-rule="evenodd" stroke="none"/>
      <path d="M7.75 6.9 L4.4 9.55 -2.45 9.7 -2.6 8.5 -6.9 2.8 -7.55 2.15 -7.15 0.25 -7.95 -1.5 -5.75 -4.5 -5.9 -9.7 -5.85 -9.6 -5.8 -7.7 -4.7 -4.2 -5.85 -3.45 -6.35 -3.0 -6.65 -2.4 -5.1 0.9 -6.3 1.45 -6.4 2.2 -4.05 3.85 1.75 4.65 5.45 7.15 7.75 6.9 M1.25 7.4 Q0.9 7.25 0.65 7.7 L0.35 8.55 Q0.25 8.85 0.45 8.9 L1.0 8.5 1.4 7.9 1.25 7.4 M1.15 7.65 L1.2 7.6 1.2 7.8 1.15 7.8 1.15 7.65 M3.4 8.55 L3.25 8.4 2.7 8.55 Q2.25 8.7 2.25 8.75 2.2 8.95 2.3 9.15 L3.4 8.55 M-8.65 2.95 L-8.55 2.95 -8.8 3.2 -8.65 2.95 M-2.0 7.95 L-1.6 7.55 -1.2 6.95 Q-1.15 6.55 -1.35 6.5 -1.8 6.35 -1.95 6.7 L-2.1 7.1 Q-2.35 7.85 -2.0 7.95" fill="#b11612" fill-rule="evenodd" stroke="none"/>
      <path d="M3.4 8.55 L2.3 9.15 Q2.2 8.95 2.25 8.75 2.25 8.7 2.7 8.55 L3.25 8.4 3.4 8.55 M1.15 7.65 L1.15 7.8 1.2 7.8 1.2 7.6 1.15 7.65 M1.25 7.4 L1.4 7.9 1.0 8.5 0.45 8.9 Q0.25 8.85 0.35 8.55 L0.65 7.7 Q0.9 7.25 1.25 7.4 M-2.0 7.95 Q-2.35 7.85 -2.1 7.1 L-1.95 6.7 Q-1.8 6.35 -1.35 6.5 -1.15 6.55 -1.2 6.95 L-1.6 7.55 -2.0 7.95" fill="#330605" fill-rule="evenodd" stroke="none"/>
    </g>
    <g id="sprite2" transform="matrix(1.0, 0.0, 0.0, 1.0, 12.7, 6.95)">
      <use ffdec:characterId="547" height="13.9" transform="matrix(1.0, 0.0, 0.0, 1.0, -12.7, -6.95)" width="25.4" xlink:href="#shape2"/>
    </g>
    <g id="shape2" transform="matrix(1.0, 0.0, 0.0, 1.0, 12.7, 6.95)">
      <path d="M-2.45 -5.8 L0.1 -6.95 1.85 -5.7 3.35 -5.3 3.6 -4.6 4.8 -3.3 5.85 -3.85 7.8 -1.95 9.3 -2.55 9.85 -0.55 11.4 -0.25 9.85 0.5 8.85 -1.35 -0.3 -2.55 -11.7 1.4 -12.4 0.15 -10.7 -0.05 -10.4 -0.8 -9.0 -0.65 -6.15 -3.6 -4.45 -3.85 -3.3 -5.45 -2.55 -5.8 -3.4 -4.1 -3.4 -3.85 -3.2 -3.85 Q-2.55 -3.75 -2.4 -4.8 -2.3 -5.85 -2.45 -5.8 M12.55 -0.05 L12.6 -0.05 12.5 0.0 12.55 -0.05 M-10.1 4.2 L-12.7 2.95 -11.85 1.9 -11.55 2.25 -10.85 2.6 -9.8 3.15 -10.1 4.2 M2.0 -4.1 L2.1 -4.4 2.25 -4.2 2.0 -4.1 M2.3 -4.9 Q1.75 -5.1 1.6 -4.1 1.65 -3.65 2.1 -3.6 2.65 -3.5 2.7 -4.15 2.8 -4.55 2.3 -4.9 M0.0 -4.55 L0.2 -5.1 0.0 -5.85 -0.45 -5.25 -0.75 -4.4 -0.75 -4.25 -0.5 -4.2 Q-0.25 -4.2 0.0 -4.55" fill="#b11612" fill-rule="evenodd" stroke="none"/>
      <path d="M-2.55 -5.8 L-2.45 -5.8 Q-2.3 -5.85 -2.4 -4.8 -2.55 -3.75 -3.2 -3.85 L-3.4 -3.85 -3.4 -4.1 -2.55 -5.8 M0.0 -4.55 Q-0.25 -4.2 -0.5 -4.2 L-0.75 -4.25 -0.75 -4.4 -0.45 -5.25 0.0 -5.85 0.2 -5.1 0.0 -4.55 M2.3 -4.9 Q2.8 -4.55 2.7 -4.15 2.65 -3.5 2.1 -3.6 1.65 -3.65 1.6 -4.1 1.75 -5.1 2.3 -4.9 M2.0 -4.1 L2.25 -4.2 2.1 -4.4 2.0 -4.1" fill="#330605" fill-rule="evenodd" stroke="none"/>
      <path d="M9.8 2.6 Q7.1 4.75 3.15 5.85 L2.2 6.05 -0.55 6.6 -4.1 6.95 -4.65 6.85 -5.7 6.35 0.1 5.85 2.05 5.45 2.65 5.3 Q8.25 3.9 11.5 0.35 L11.65 0.25 12.3 -0.05 12.25 0.1 9.8 2.6 M8.05 -0.75 L6.35 -0.25 6.2 0.1 5.75 0.25 5.7 0.1 5.25 -0.1 5.2 -0.35 4.5 -0.4 3.2 -0.45 2.95 -0.1 0.85 -1.05 0.7 -0.3 -0.4 -0.75 -0.75 -0.4 -2.35 -0.15 -3.15 0.6 -4.15 -0.3 -4.5 0.35 -5.25 0.0 -5.2 -0.1 -0.15 -1.55 8.05 -0.75 M-10.85 2.6 L-8.3 2.8 -7.45 3.35 -5.45 2.15 -4.7 2.8 -2.85 2.2 -2.2 2.45 -2.1 2.6 -2.1 2.9 -1.2 3.05 -1.15 3.0 -0.9 1.85 0.25 2.15 2.95 2.15 3.6 1.9 4.4 2.6 8.75 -0.15 9.55 1.05 7.8 2.15 7.05 3.25 -0.65 4.9 Q-0.6 5.65 -1.0 4.65 L-2.05 4.95 -4.15 4.4 -5.0 5.55 -6.0 4.65 -9.05 4.15 -8.85 3.6 -9.8 3.15 -10.85 2.6" fill="#3c5619" fill-rule="evenodd" stroke="none"/>
      <path d="M12.6 -0.15 L12.55 -0.05 12.5 0.0 9.8 2.6 12.25 0.1 12.3 -0.05 12.6 -0.15 M-5.25 0.0 L-4.5 0.35 -4.15 -0.3 -3.15 0.6 -2.35 -0.15 -0.75 -0.4 -0.4 -0.75 0.7 -0.3 0.85 -1.05 2.95 -0.1 3.2 -0.45 4.5 -0.4 5.2 -0.35 5.25 -0.1 5.7 0.1 5.75 0.25 6.2 0.1 6.35 -0.25 8.05 -0.75 8.35 -0.7 8.75 -0.15 4.4 2.6 3.6 1.9 2.95 2.15 0.25 2.15 -0.9 1.85 -1.15 3.0 -1.2 3.05 -2.1 2.9 -2.1 2.6 -2.2 2.45 -2.85 2.2 -4.7 2.8 -5.45 2.15 -7.45 3.35 -8.3 2.8 -10.85 2.6 -11.55 2.25 -8.5 1.15 -8.15 1.0 -5.35 -0.05 -5.25 0.0" fill="#6b7e00" fill-rule="evenodd" stroke="none"/>
      <path d="M11.4 -0.25 L12.7 -0.9 12.6 -0.15 12.3 -0.05 11.65 0.25 9.55 1.05 8.75 -0.15 8.35 -0.7 8.05 -0.75 -0.15 -1.55 -5.2 -0.1 -5.25 0.0 -5.35 -0.05 -8.15 1.0 -8.5 1.15 -11.55 2.25 -11.85 1.9 -12.15 1.55 -11.7 1.4 -0.3 -2.55 8.85 -1.35 9.85 0.5 11.4 -0.25 M-9.3 4.6 L-10.15 4.25 -10.1 4.2 -9.8 3.15 -8.85 3.6 -9.05 4.15 -9.3 4.6" fill="#d0d3a6" fill-rule="evenodd" stroke="none"/>
      <path d="M-5.7 6.35 L-9.3 4.6 -9.05 4.15 -6.0 4.65 -5.0 5.55 -4.15 4.4 -2.05 4.95 -1.0 4.65 Q-0.6 5.65 -0.65 4.9 L7.05 3.25 7.8 2.15 9.55 1.05 11.65 0.25 11.5 0.35 Q8.25 3.9 2.65 5.3 L2.05 5.45 0.1 5.85 -5.7 6.35" fill="#576600" fill-rule="evenodd" stroke="none"/>
    </g>
    <g id="sprite3" transform="matrix(1.0, 0.0, 0.0, 1.0, 11.05, 8.8)">
      <use ffdec:characterId="549" height="17.65" transform="matrix(1.0, 0.0, 0.0, 1.0, -11.05, -8.8)" width="22.1" xlink:href="#shape3"/>
    </g>
    <g id="shape3" transform="matrix(1.0, 0.0, 0.0, 1.0, 11.05, 8.8)">
      <path d="M-4.05 7.9 Q-5.85 7.25 -7.1 5.95 L-8.25 4.7 -8.75 3.0 -9.65 2.45 -10.55 2.3 -10.85 1.0 Q-11.2 -0.1 -11.0 -1.05 L-10.5 -1.9 Q-9.45 -2.65 -9.45 -4.05 L-9.45 -4.4 -4.7 -7.15 -4.05 -6.65 -3.25 -6.65 -2.25 -7.6 -1.05 -8.5 -0.8 -8.6 0.0 -8.05 0.4 -8.0 0.8 -8.0 2.6 -8.8 3.25 -8.45 Q3.55 -8.25 3.9 -8.15 L10.4 -6.2 9.65 0.5 6.65 4.05 5.1 5.45 Q3.75 6.5 2.05 7.2 L-0.8 8.1 -2.1 7.85 -4.05 7.9 M3.15 -6.65 L3.45 -6.45 3.75 -6.55 4.0 -6.7 4.25 -6.9 4.6 -7.5 4.4 -7.75 3.4 -7.65 2.95 -6.9 3.15 -6.65 M4.7 -4.75 L6.45 -4.55 7.2 -5.05 7.35 -5.35 Q6.7 -5.65 6.1 -5.9 L5.05 -5.05 4.7 -4.75 M6.85 -3.7 L6.25 -3.0 7.55 -2.85 8.05 -3.8 6.85 -3.7 M3.2 2.85 L3.55 3.4 4.5 2.2 3.55 2.1 3.15 2.5 3.2 2.85 M1.8 3.3 L1.3 1.95 0.05 4.05 1.25 4.4 1.8 3.6 1.8 3.3 M-8.45 -1.25 L-7.2 -0.55 -6.25 -2.25 -6.3 -2.85 -7.8 -1.9 -8.45 -1.25 M-4.65 -0.6 L-5.7 0.25 -4.85 1.35 -4.15 0.05 -4.3 -0.2 -4.5 -0.5 -4.65 -0.6 M-1.3 0.65 Q-2.65 0.85 -3.45 2.3 L-2.1 3.0 -1.6 2.05 -1.3 0.65" fill="#b11612" fill-rule="evenodd" stroke="none"/>
      <path d="M-1.3 0.65 L-1.6 2.05 -2.1 3.0 -3.45 2.3 Q-2.65 0.85 -1.3 0.65 M-4.65 -0.6 L-4.5 -0.5 -4.3 -0.2 -4.15 0.05 -4.85 1.35 -5.7 0.25 -4.65 -0.6 M-8.45 -1.25 L-7.8 -1.9 -6.3 -2.85 -6.25 -2.25 -7.2 -0.55 -8.45 -1.25 M1.8 3.3 L1.8 3.6 1.25 4.4 0.05 4.05 1.3 1.95 1.8 3.3 M3.2 2.85 L3.15 2.5 3.55 2.1 4.5 2.2 3.55 3.4 3.2 2.85 M6.85 -3.7 L8.05 -3.8 7.55 -2.85 6.25 -3.0 6.85 -3.7 M4.7 -4.75 L5.05 -5.05 6.1 -5.9 Q6.7 -5.65 7.35 -5.35 L7.2 -5.05 6.45 -4.55 4.7 -4.75 M3.15 -6.65 L2.95 -6.9 3.4 -7.65 4.4 -7.75 4.6 -7.5 4.25 -6.9 4.0 -6.7 3.75 -6.55 3.45 -6.45 3.15 -6.65" fill="#330605" fill-rule="evenodd" stroke="none"/>
      <path d="M-4.05 7.9 L-2.1 7.85 -0.8 8.1 2.05 7.2 Q3.75 6.5 5.1 5.45 L6.65 4.05 9.65 0.5 10.4 -6.2 11.05 -6.15 10.9 0.95 9.8 2.1 8.65 3.15 6.85 4.9 4.15 7.15 2.3 8.35 -0.05 8.85 -0.2 8.85 -0.75 8.85 -0.95 8.75 -4.05 7.9" fill="#d0d3a6" fill-rule="evenodd" stroke="none"/>
    </g>
    <g id="sprite4" transform="matrix(1.0, 0.0, 0.0, 1.0, 5.0, 5.0)">
      <use ffdec:characterId="551" height="10.0" transform="matrix(1.0, 0.0, 0.0, 1.0, -5.0, -5.0)" width="10.0" xlink:href="#shape4"/>
    </g>
    <g id="shape4" transform="matrix(1.0, 0.0, 0.0, 1.0, 5.0, 5.0)">
      <path d="M3.55 -3.5 Q5.0 -2.05 5.0 0.0 5.0 2.05 3.55 3.55 2.05 5.0 0.0 5.0 -2.05 5.0 -3.55 3.55 -5.0 2.05 -5.0 0.0 -5.0 -2.05 -3.55 -3.5 -2.05 -5.0 0.0 -5.0 2.05 -5.0 3.55 -3.5" fill="#ff00ff" fill-opacity="0.49803922" fill-rule="evenodd" stroke="none"/>
    </g>
  </defs>
</svg>
