<?xml version="1.0" encoding="UTF-8" standalone="no"?>
<svg xmlns:ffdec="https://www.free-decompiler.com/flash" xmlns:xlink="http://www.w3.org/1999/xlink" ffdec:objectType="frame" height="48.4px" width="21.95px" xmlns="http://www.w3.org/2000/svg">
  <g transform="matrix(1.0, 0.0, 0.0, 1.0, 12.05, 23.5)">
    <use ffdec:characterId="1290" height="45.35" transform="matrix(1.0, 0.0, 0.0, 1.0, -9.65, -22.35)" width="18.55" xlink:href="#shape0"/>
    <use ffdec:characterId="1081" height="100.0" id="shape" transform="matrix(0.16, 0.0, 0.0, 0.45, -7.9994, -22.4998)" width="100.0" xlink:href="#sprite0"/>
  </g>
  <defs>
    <g id="shape0" transform="matrix(1.0, 0.0, 0.0, 1.0, 9.65, 22.35)">
      <path d="M5.75 11.8 L5.1 18.55 Q4.95 19.65 3.95 21.0 1.3 24.0 -4.0 22.45 -7.35 21.45 -7.4 15.2 L-7.4 15.0 -7.4 14.1 -7.3 11.35 -6.4 11.45 -6.15 11.5 -5.85 15.6 -5.6 15.5 -5.65 16.25 -5.35 15.4 -5.3 15.35 -5.2 14.85 -4.75 12.85 -4.6 12.4 -4.5 11.7 -3.5 11.75 1.55 11.5 5.75 11.8" fill="#e2b181" fill-rule="evenodd" stroke="none"/>
      <path d="M-8.55 -17.2 L-8.15 -17.75 -8.0 -18.0 -5.55 -19.85 Q-1.3 -22.05 3.55 -22.35 L4.2 -22.3 5.65 -21.65 6.05 -21.3 Q6.1 -19.95 6.75 -17.0 7.5 -13.55 7.5 -11.25 7.5 -6.45 5.45 -1.55 L1.25 6.75 1.25 7.0 3.9 4.35 Q5.45 2.75 6.5 2.25 5.4 4.2 4.7 7.7 L4.25 9.9 4.0 9.9 1.2 9.7 -4.05 9.4 -5.35 9.4 -6.2 9.45 -6.7 9.55 -6.1 6.3 -4.5 -1.75 -5.8 0.55 -7.0 2.5 Q-6.9 0.05 -7.8 -5.15 -8.75 -10.55 -8.75 -12.5 L-8.55 -17.2" fill="#2766c4" fill-rule="evenodd" stroke="none"/>
      <path d="M-8.55 -17.2 L-8.75 -12.5 Q-8.75 -10.55 -7.8 -5.15 -6.9 0.05 -7.0 2.5 L-5.8 0.55 -4.5 -1.75 -6.1 6.3 -6.7 9.55 -7.0 9.65 -7.25 9.65 -9.1 9.65 -9.1 9.0 Q-8.75 8.25 -8.7 6.45 L-8.7 6.15 -8.8 2.15 -8.85 0.35 -8.65 -5.25 Q-8.6 -8.05 -8.9 -9.0 L-9.6 -12.35 Q-9.85 -14.6 -9.2 -15.95 L-8.55 -17.2 M4.25 9.9 L4.7 7.7 Q5.4 4.2 6.5 2.25 5.45 2.75 3.9 4.35 L1.25 7.0 1.25 6.75 5.45 -1.55 Q7.5 -6.45 7.5 -11.25 7.5 -13.55 6.75 -17.0 6.1 -19.95 6.05 -21.3 L6.65 -20.5 Q7.65 -19.2 8.15 -17.5 L8.25 -17.2 8.6 -14.8 8.8 -8.95 8.75 -7.8 8.9 6.3 8.9 8.35 8.75 9.25 8.75 9.75 5.95 9.85 4.25 9.9" fill="#3875d2" fill-rule="evenodd" stroke="none"/>
      <path d="M-6.7 9.55 L-6.2 9.45 -5.35 9.4 -4.05 9.4 1.2 9.7 4.0 9.9 4.25 9.9 5.95 9.85 5.75 11.8 1.55 11.5 -3.5 11.75 -4.5 11.7 -4.6 12.4 -4.75 12.85 -5.2 14.85 -5.3 15.35 -5.35 15.4 -5.65 16.25 -5.6 15.5 -5.85 15.6 -6.15 11.5 -6.4 11.45 -7.3 11.35 -7.25 9.65 -7.0 9.65 -6.7 9.55" fill="#d5a675" fill-rule="evenodd" stroke="none"/>
    </g>
    <g id="sprite0" transform="matrix(1.0, 0.0, 0.0, 1.0, 50.0, 50.0)">
      <use ffdec:characterId="1080" height="100.0" transform="matrix(1.0, 0.0, 0.0, 1.0, -50.0, -50.0)" width="100.0" xlink:href="#shape1"/>
    </g>
    <g id="shape1" transform="matrix(1.0, 0.0, 0.0, 1.0, 50.0, 50.0)">
      <path d="M50.0 50.0 L-50.0 50.0 -50.0 -50.0 50.0 -50.0 50.0 50.0 Z" fill="none" stroke="#9900ff" stroke-linecap="round" stroke-linejoin="round" stroke-width="0.05"/>
    </g>
  </defs>
</svg>
