<?xml version="1.0" encoding="UTF-8" standalone="no"?>
<svg xmlns:ffdec="https://www.free-decompiler.com/flash" xmlns:xlink="http://www.w3.org/1999/xlink" ffdec:objectType="frame" height="48.4px" width="21.95px" xmlns="http://www.w3.org/2000/svg">
  <g transform="matrix(1.0, 0.0, 0.0, 1.0, 12.05, 23.5)">
    <use ffdec:characterId="1293" height="48.4" transform="matrix(1.0, 0.0, 0.0, 1.0, -12.05, -23.5)" width="21.95" xlink:href="#shape0"/>
  </g>
  <defs>
    <g id="shape0" transform="matrix(1.0, 0.0, 0.0, 1.0, 12.05, 23.5)">
      <path d="M1.9 22.55 Q0.6 25.15 -1.45 24.85 -2.3 24.7 -1.85 23.65 L-1.85 23.5 0.75 21.4 2.0 22.25 1.9 22.55 M-0.4 -20.4 L-0.3 -21.8 Q-0.05 -23.25 0.9 -23.4 L2.25 -23.3 3.05 -21.75 2.45 -21.05 1.95 -21.0 2.1 -19.2 2.1 -18.35 1.75 -17.7 0.95 -17.65 0.65 -18.05 -0.25 -19.4 -0.35 -19.55 -0.35 -20.3 -0.4 -20.4" fill="#ffffff" fill-rule="evenodd" stroke="none"/>
      <path d="M4.35 20.45 L3.75 21.3 3.25 21.7 1.9 22.55 2.0 22.25 2.2 21.95 2.3 21.35 1.9 20.2 2.5 18.15 2.9 18.4 3.4 19.85 2.85 20.65 3.05 21.25 4.0 20.9 4.35 20.45 M-3.35 22.7 L-6.4 21.05 -6.75 19.55 -6.75 18.5 -5.5 19.6 -4.8 19.45 -4.05 20.35 -3.35 20.4 -3.15 20.8 -3.2 21.55 -3.55 21.85 -3.35 22.7 M-8.6 -12.85 L-6.65 -17.15 -4.7 -17.85 -5.25 -17.2 -4.0 -16.7 -4.95 -16.1 -4.7 -15.55 -5.05 -15.55 Q-5.65 -15.4 -5.5 -14.8 L-6.35 -14.55 -6.8 -13.65 -7.7 -13.15 -8.6 -12.85 M-3.25 -18.45 L-2.15 -19.6 -2.0 -18.25 -0.75 -18.0 -0.3 -18.3 0.4 -17.8 0.65 -18.05 0.95 -17.65 1.75 -17.7 2.1 -18.35 2.1 -19.2 2.95 -19.1 Q3.05 -18.65 3.55 -18.45 L3.85 -18.35 4.4 -18.15 Q4.6 -17.5 4.95 -17.05 L4.05 -16.85 4.0 -16.5 3.55 -16.6 Q1.95 -16.9 1.9 -16.15 1.9 -15.25 0.85 -16.05 -0.25 -16.85 -0.75 -16.7 L-0.45 -15.6 Q-0.1 -13.0 -2.15 -11.6 L-2.8 -11.6 -3.9 -12.9 -4.1 -14.0 -3.1 -14.1 -3.4 -15.55 -2.7 -16.35 -2.6 -18.0 -3.25 -18.45 M-0.55 -20.35 L-0.4 -20.4 -0.35 -20.3 -0.55 -20.35 M-2.8 -10.45 L-2.85 -10.5 -2.85 -10.6 -2.8 -10.45 M3.35 -11.8 L4.55 -10.8 Q5.65 -10.8 6.55 -11.5 6.35 -10.5 5.8 -9.9 5.25 -9.25 4.65 -9.35 L3.3 -9.55 2.85 -10.4 3.35 -11.8 M1.0 -7.6 L0.8 -7.35 -0.05 -6.55 -0.95 -6.5 -1.5 -7.25 -2.55 -9.75 -1.15 -9.15 -0.35 -7.8 1.0 -7.6 M0.8 15.05 L0.85 14.95 1.4 14.6 0.8 15.05 M3.15 15.0 L3.3 16.15 2.5 17.15 1.85 17.4 0.95 17.05 0.8 16.15 2.65 16.45 3.15 15.0 M-2.7 18.25 Q-1.6 17.0 -1.25 17.05 L0.35 18.55 0.5 18.5 0.15 18.85 0.5 19.2 0.1 20.05 Q-0.5 21.35 -1.65 22.1 L-2.05 21.8 -1.3 20.05 -1.65 19.4 -1.6 17.9 -2.7 18.25 M-3.35 -5.65 L-3.45 -4.85 -4.35 -4.05 -5.8 -4.95 -7.4 -4.7 -7.7 -4.75 -7.75 -4.8 Q-8.1 -5.0 -8.3 -5.55 -8.5 -6.3 -8.35 -7.3 L-8.3 -7.8 -8.2 -7.65 -7.35 -6.25 -5.8 -6.1 -4.0 -5.05 -3.35 -5.65 M-7.5 -9.25 L-8.25 -7.9 -8.2 -8.1 -7.6 -9.15 -7.5 -9.25 M-5.35 15.45 L-5.3 14.8 Q-3.3 16.55 -2.7 13.85 L-2.65 13.0 -2.4 13.1 -2.3 13.7 Q-2.5 17.75 -5.35 15.45 M-3.35 16.65 L-3.25 16.6 -3.3 16.9 -3.35 16.65 M-3.5 17.6 L-3.7 18.75 -4.1 18.95 -5.35 18.55 -5.1 17.5 -3.5 17.6 M-5.05 17.3 L-5.0 16.85 -4.5 16.75 -5.05 17.3" fill="#990000" fill-rule="evenodd" stroke="none"/>
      <path d="M6.2 -18.1 L5.95 -17.85 5.3 -17.25 4.95 -17.05 Q4.6 -17.5 4.4 -18.15 L3.85 -18.35 3.55 -18.45 Q3.05 -18.65 2.95 -19.1 L4.5 -19.6 Q5.55 -19.1 6.2 -18.1 M4.4 20.35 L4.35 20.45 4.0 20.9 3.05 21.25 2.85 20.65 3.4 19.85 2.9 18.4 2.5 18.15 1.9 20.2 2.3 21.35 2.2 21.95 2.0 22.25 0.75 21.4 -1.85 23.5 -3.1 23.1 -3.35 22.7 -3.55 21.85 -3.2 21.55 -3.15 20.8 -3.35 20.4 -4.05 20.35 -4.8 19.45 -2.7 18.25 -1.6 17.9 -1.65 19.4 -1.3 20.05 -2.05 21.8 -1.65 22.1 Q-0.5 21.35 0.1 20.05 L0.5 19.2 0.15 18.85 0.5 18.5 1.85 17.4 2.5 17.15 Q3.45 17.3 4.0 18.25 4.6 19.15 4.4 20.35 M-4.7 -17.85 L-3.25 -18.45 -2.6 -18.0 -2.7 -16.35 -3.4 -15.55 -3.1 -14.1 -4.1 -14.0 -5.5 -14.8 Q-5.65 -15.4 -5.05 -15.55 L-4.7 -15.55 -4.95 -16.1 -4.0 -16.7 -5.25 -17.2 -4.7 -17.85 M-2.15 -19.6 L-1.6 -20.0 -0.55 -20.35 -0.35 -20.3 -0.35 -19.55 -0.25 -19.4 0.65 -18.05 0.4 -17.8 -0.3 -18.3 -0.75 -18.0 -2.0 -18.25 -2.15 -19.6 M-2.55 -9.75 L-2.8 -10.45 -2.85 -10.6 -2.4 -11.4 -0.95 -11.2 0.3 -11.1 1.5 -10.25 1.55 -10.2 Q2.2 -9.45 1.85 -8.5 L1.4 -7.7 1.0 -7.6 -0.35 -7.8 -1.15 -9.15 -2.55 -9.75 M5.65 -13.15 L6.55 -12.9 6.55 -11.5 Q5.65 -10.8 4.55 -10.8 L3.35 -11.8 4.15 -12.35 5.65 -13.15 M0.8 15.05 L1.4 14.6 3.15 15.0 2.65 16.45 0.8 16.15 0.8 15.05 M-6.95 -9.7 L-6.5 -9.35 -6.35 -8.65 Q-5.8 -6.7 -3.8 -6.55 L-3.4 -6.15 Q-3.3 -5.95 -3.35 -5.65 L-4.0 -5.05 -5.8 -6.1 -7.35 -6.25 -8.2 -7.65 -8.3 -7.8 -8.35 -7.85 -8.25 -7.9 -7.5 -9.25 -7.35 -9.4 -7.3 -9.4 -6.95 -9.7 M-5.3 14.8 L-5.2 13.7 Q-5.05 13.1 -4.75 12.85 -4.3 12.45 -3.55 12.55 L-3.5 12.55 -3.05 12.85 -2.65 13.0 -2.7 13.85 Q-3.3 16.55 -5.3 14.8 M-3.35 16.65 L-3.3 16.9 -3.5 17.6 -5.1 17.5 -5.05 17.3 -4.5 16.75 -3.55 16.55 -3.35 16.65" fill="#ff0000" fill-rule="evenodd" stroke="none"/>
      <path d="M4.0 -16.5 L3.9 -16.0 2.0 -13.55 1.75 -13.75 Q1.25 -14.3 0.8 -14.35 L0.5 -14.4 0.15 -14.3 0.65 -13.1 0.65 -12.95 -0.4 -13.0 -0.95 -11.2 -2.4 -11.4 -2.85 -10.6 -2.85 -10.5 -2.8 -10.45 -2.55 -9.75 -2.55 -9.7 -4.3 -9.1 -6.15 -11.2 -7.25 -10.45 -7.5 -10.85 -7.7 -13.15 -6.8 -13.65 -6.35 -14.55 -5.5 -14.8 -4.1 -14.0 -3.9 -12.9 -2.8 -11.6 -2.15 -11.6 Q-0.1 -13.0 -0.45 -15.6 L-0.75 -16.7 Q-0.25 -16.85 0.85 -16.05 1.9 -15.25 1.9 -16.15 1.95 -16.9 3.55 -16.6 L4.0 -16.5" fill="#f4c398" fill-rule="evenodd" stroke="none"/>
      <path d="M-8.75 -10.95 L-8.85 -12.35 -8.75 -12.65 -8.6 -12.85 -7.7 -13.15 -7.5 -10.85 -7.8 -11.1 -8.3 -11.0 -8.65 -10.95 -8.75 -10.95" fill="#ffcc99" fill-rule="evenodd" stroke="none"/>
      <path d="M5.95 10.2 L5.1 18.55 4.4 20.35 Q4.6 19.15 4.0 18.25 3.45 17.3 2.5 17.15 L3.3 16.15 3.15 15.0 1.4 14.6 0.85 14.95 0.8 15.05 0.8 16.15 0.95 17.05 1.85 17.4 0.5 18.5 0.35 18.55 -1.25 17.05 Q-1.6 17.0 -2.7 18.25 L-4.8 19.45 -5.5 19.6 -6.75 18.5 -6.75 19.55 Q-7.4 17.85 -7.4 15.2 L-7.35 12.3 -7.3 11.35 -6.4 11.45 -6.15 11.5 -6.1 12.3 -5.85 15.6 -5.6 15.5 -5.65 16.25 -5.35 15.45 Q-2.5 17.75 -2.3 13.7 L-2.4 13.1 -2.65 13.0 -3.05 12.85 -3.5 12.55 -3.55 12.55 Q-4.3 12.45 -4.75 12.85 L-4.6 12.4 -4.6 12.3 -4.5 11.7 -3.5 11.75 1.55 11.5 5.75 11.8 5.95 10.2 M2.0 -13.55 L3.9 -16.0 4.0 -16.5 4.05 -16.85 4.2 -16.65 Q4.85 -16.1 4.8 -15.5 L4.8 -15.45 4.6 -14.7 4.3 -14.1 4.25 -14.05 3.75 -13.5 Q3.2 -13.15 2.55 -13.25 L2.0 -13.55 M-7.25 -10.45 L-6.15 -11.2 -4.3 -9.1 -2.55 -9.7 -2.55 -8.5 Q-2.65 -7.8 -3.4 -6.9 L-3.8 -6.55 Q-5.8 -6.7 -6.35 -8.65 L-6.5 -9.35 -6.95 -9.7 -7.15 -10.15 -7.25 -10.45 M-0.95 -11.2 L-0.4 -13.0 0.65 -12.95 0.7 -12.05 0.3 -11.1 -0.95 -11.2 M-3.3 16.9 L-3.25 16.6 -3.35 16.65 -3.55 16.55 -4.5 16.75 -5.0 16.85 -5.05 17.3 -5.1 17.5 -5.35 18.55 -4.1 18.95 -3.7 18.75 -3.5 17.6 -3.3 16.9" fill="#e2b181" fill-rule="evenodd" stroke="none"/>
      <path d="M-7.15 -10.15 L-6.95 -9.7 -7.3 -9.4 -7.35 -9.4 -7.3 -9.45 -7.15 -10.15 M-8.35 -7.85 L-8.3 -7.8 -8.35 -7.3 -8.55 -7.5 -8.35 -7.85" fill="#7b5515" fill-rule="evenodd" stroke="none"/>
      <path d="M4.95 -17.05 L5.3 -17.25 6.65 -14.2 6.5 -14.1 5.65 -13.15 4.15 -12.35 3.35 -11.8 2.85 -10.4 2.5 -10.9 1.75 -10.9 1.5 -10.25 0.3 -11.1 0.7 -12.05 0.65 -12.95 0.65 -13.1 0.15 -14.3 0.5 -14.4 0.8 -14.35 Q1.25 -14.3 1.75 -13.75 L2.0 -13.55 2.55 -13.25 Q3.2 -13.15 3.75 -13.5 L4.25 -14.05 4.3 -14.1 4.6 -14.7 4.8 -15.45 4.8 -15.5 Q4.85 -16.1 4.2 -16.65 L4.05 -16.85 4.95 -17.05 M-2.55 -9.7 L-2.55 -9.75 -1.5 -7.25 Q-2.6 -5.35 -2.95 -3.0 L-3.1 -1.8 -3.85 -1.0 -4.3 -2.65 -5.55 -3.2 -7.4 -2.6 -7.45 -2.6 -7.4 -4.7 -5.8 -4.95 -4.35 -4.05 -3.45 -4.85 -3.35 -5.65 Q-3.3 -5.95 -3.4 -6.15 L-3.8 -6.55 -3.4 -6.9 Q-2.65 -7.8 -2.55 -8.5 L-2.55 -9.7 M4.65 -9.35 L4.75 -7.35 3.3 -9.55 4.65 -9.35" fill="#5e3b70" fill-rule="evenodd" stroke="none"/>
      <path d="M5.95 -17.85 L7.3 -14.1 7.5 -11.25 Q7.5 -6.45 5.45 -1.55 L1.25 6.75 1.25 7.0 3.9 4.35 Q5.45 2.75 6.5 2.25 5.4 4.2 4.7 7.7 L4.25 9.9 4.0 9.9 1.2 9.7 -4.05 9.4 -5.35 9.4 -6.2 9.45 -6.7 9.55 -6.1 6.3 -4.5 -1.75 -5.8 0.55 -7.0 2.5 Q-6.95 0.7 -7.4 -2.6 L-5.55 -3.2 -4.3 -2.65 -3.85 -1.0 -3.1 -1.8 -2.95 -3.0 Q-2.6 -5.35 -1.5 -7.25 L-0.95 -6.5 -0.05 -6.55 0.8 -7.35 1.0 -7.6 1.4 -7.7 1.85 -8.5 Q2.2 -9.45 1.55 -10.2 L1.5 -10.25 1.75 -10.9 2.5 -10.9 2.85 -10.4 3.3 -9.55 4.75 -7.35 4.65 -9.35 Q5.25 -9.25 5.8 -9.9 6.35 -10.5 6.55 -11.5 L6.55 -12.9 5.65 -13.15 6.5 -14.1 6.65 -14.2 5.3 -17.25 5.95 -17.85" fill="#2766c4" fill-rule="evenodd" stroke="none"/>
      <path d="M6.2 -18.1 L6.4 -18.45 6.45 -18.5 Q6.85 -19.2 7.45 -19.25 L7.8 -19.5 9.9 -20.45 8.65 -17.85 8.35 -16.75 8.6 -14.8 8.8 -8.95 8.75 -7.8 8.9 6.3 8.9 8.35 8.75 9.25 8.75 9.75 5.95 9.85 4.25 9.9 4.7 7.7 Q5.4 4.2 6.5 2.25 5.45 2.75 3.9 4.35 L1.25 7.0 1.25 6.75 5.45 -1.55 Q7.5 -6.45 7.5 -11.25 L7.3 -14.1 5.95 -17.85 6.2 -18.1 M-7.25 9.65 L-9.1 9.65 -9.1 9.0 Q-8.75 8.25 -8.7 6.45 L-8.7 6.15 -8.8 2.15 -8.85 0.35 -8.85 -3.0 -8.95 -4.45 -9.45 -7.5 Q-9.7 -8.6 -12.05 -12.1 L-9.4 -11.1 -8.8 -10.95 -8.75 -10.95 -8.65 -10.95 -8.3 -11.0 -7.8 -11.1 -7.5 -10.85 -7.25 -10.45 -7.15 -10.15 -7.3 -9.45 -7.35 -9.4 -7.5 -9.25 -7.6 -9.15 -8.2 -8.1 -8.25 -7.9 -8.35 -7.85 -8.55 -7.5 -8.35 -7.3 Q-8.5 -6.3 -8.3 -5.55 -8.1 -5.0 -7.75 -4.8 L-7.7 -4.75 -7.4 -4.7 -7.45 -2.6 -7.4 -2.6 Q-6.95 0.7 -7.0 2.5 L-5.8 0.55 -4.5 -1.75 -6.1 6.3 -6.7 9.55 -7.0 9.65 -7.25 9.65" fill="#3875d2" fill-rule="evenodd" stroke="none"/>
      <path d="M4.25 9.9 L5.95 9.85 5.95 10.2 5.75 11.8 1.55 11.5 -3.5 11.75 -4.5 11.7 -4.6 12.3 -4.6 12.4 -4.75 12.85 Q-5.05 13.1 -5.2 13.7 L-5.3 14.8 -5.35 15.45 -5.65 16.25 -5.6 15.5 -5.85 15.6 -6.1 12.3 -6.15 11.5 -6.4 11.45 -7.3 11.35 -7.3 11.15 -7.25 10.9 -7.25 9.65 -7.0 9.65 -6.7 9.55 -6.2 9.45 -5.35 9.4 -4.05 9.4 1.2 9.7 4.0 9.9 4.25 9.9" fill="#d5a675" fill-rule="evenodd" stroke="none"/>
    </g>
  </defs>
</svg>
