<?xml version="1.0" encoding="UTF-8" standalone="no"?>
<svg xmlns:ffdec="https://www.free-decompiler.com/flash" xmlns:xlink="http://www.w3.org/1999/xlink" ffdec:objectType="frame" height="77.5px" width="39.25px" xmlns="http://www.w3.org/2000/svg">
  <g transform="matrix(1.0, 0.0, 0.0, 1.0, 22.3, 47.5)">
    <use ffdec:characterId="2510" height="24.8" transform="matrix(1.0, 0.0, 0.0, 1.0, -15.15, 5.2)" width="21.75" xlink:href="#sprite0"/>
    <use ffdec:characterId="2512" height="44.05" transform="matrix(1.0, 0.0, 0.0, 1.0, -17.65, -15.65)" width="34.6" xlink:href="#sprite1"/>
    <use ffdec:characterId="1111" height="100.0" id="shape" transform="matrix(0.32, 0.0, 0.0, 0.32, -16.0004, -16.0004)" width="100.0" xlink:href="#sprite2"/>
  </g>
  <defs>
    <g id="sprite0" transform="matrix(1.0, 0.0, 0.0, 1.0, 10.9, 12.8)">
      <use ffdec:characterId="2509" height="24.8" transform="matrix(1.0, 0.0, 0.0, 1.0, -10.9, -12.8)" width="21.75" xlink:href="#shape0"/>
    </g>
    <g id="shape0" transform="matrix(1.0, 0.0, 0.0, 1.0, 10.9, 12.8)">
      <path d="M7.75 3.2 L7.55 3.55 7.65 4.95 Q7.7 5.75 7.9 6.45 L7.05 4.9 6.0 2.35 4.1 -1.05 Q3.5 -1.5 2.55 -1.7 L0.85 -2.4 Q0.05 -2.85 -0.6 -4.2 L-2.3 -6.95 -4.6 -10.25 -4.45 -10.4 -4.35 -10.45 -2.5 -12.05 Q-1.0 -13.25 1.2 -12.55 3.4 -11.85 4.3 -11.1 5.2 -10.4 6.05 -10.05 8.4 -9.15 10.05 -7.45 L10.25 -7.25 Q10.9 -6.4 10.35 -5.6 L9.8 -4.6 9.25 -3.1 8.9 -1.95 8.95 -1.65 Q9.15 -0.25 8.9 1.05 L8.3 2.4 7.75 3.2 M0.0 5.3 Q0.25 2.7 -2.1 -1.3 3.15 3.05 5.25 7.4 1.85 5.7 0.45 5.4 L0.0 5.3" fill="#e2b181" fill-rule="evenodd" stroke="none"/>
      <path d="M-4.6 -10.25 L-2.3 -6.95 -0.6 -4.2 Q0.05 -2.85 0.85 -2.4 L2.55 -1.7 Q3.5 -1.5 4.1 -1.05 L6.0 2.35 7.05 4.9 7.9 6.45 Q7.7 5.75 7.65 4.95 L7.55 3.55 7.75 3.2 8.0 3.75 8.8 5.35 10.85 12.0 8.2 9.4 Q7.6 8.8 5.25 7.4 3.15 3.05 -2.1 -1.3 0.25 2.7 0.0 5.3 L-3.2 4.8 Q-5.7 4.6 -8.15 4.75 L-10.5 4.8 -10.9 5.1 -10.3 1.6 -9.4 -1.7 -7.95 -5.35 -5.9 -8.5 -4.6 -10.25" fill="#ffcc99" fill-rule="evenodd" stroke="none"/>
    </g>
    <g id="sprite1" transform="matrix(1.0, 0.0, 0.0, 1.0, 17.15, 22.8)">
      <use ffdec:characterId="2511" height="44.05" transform="matrix(1.0, 0.0, 0.0, 1.0, -17.15, -22.8)" width="34.6" xlink:href="#shape1"/>
    </g>
    <g id="shape1" transform="matrix(1.0, 0.0, 0.0, 1.0, 17.15, 22.8)">
      <path d="M10.8 -13.35 L10.8 -14.45 Q10.8 -15.05 10.15 -14.75 L9.65 -14.05 Q10.05 -13.45 10.8 -13.35 M14.55 -13.55 L14.55 -13.35 14.6 -13.3 14.6 -11.9 14.65 -11.6 14.85 -10.65 15.25 -9.0 15.1 -8.4 14.45 -8.15 14.1 -8.25 14.35 -8.45 14.8 -8.95 14.7 -9.7 Q13.75 -10.5 12.65 -10.8 L11.75 -11.0 6.25 -9.55 Q7.5 -11.85 6.95 -14.35 L6.5 -15.6 Q6.9 -12.5 4.9 -10.6 L4.85 -9.5 Q5.15 -8.95 5.6 -8.55 L5.85 -8.4 5.75 -7.85 Q7.25 -5.7 10.55 -5.4 L11.95 -4.55 Q13.25 -5.55 14.1 -7.1 L14.35 -7.2 14.45 -6.6 15.8 -3.55 16.2 -1.9 16.35 -0.85 15.75 -0.55 14.6 -0.9 13.55 -0.95 12.65 -1.05 12.4 -1.0 12.5 -0.95 12.85 -0.4 11.25 -0.3 11.25 -0.35 11.7 -1.25 12.2 -1.4 12.6 -1.2 12.6 -2.3 13.25 -2.55 Q14.05 -2.55 13.3 -3.0 L12.35 -3.5 10.55 -1.85 10.4 0.15 8.3 1.55 8.1 1.5 7.75 1.35 7.55 1.3 7.4 1.3 7.5 -0.45 6.5 1.25 5.85 1.25 5.4 1.15 Q4.6 1.25 3.85 0.25 L3.65 0.3 3.5 0.0 3.4 -0.9 3.4 -1.55 Q3.4 -4.1 2.4 -6.65 2.0 -9.65 3.1 -12.5 L4.0 -15.45 1.35 -17.15 Q-0.85 -15.75 -3.6 -16.3 -6.15 -16.8 -8.5 -18.1 L-8.8 -19.1 -8.8 -19.55 -8.45 -19.95 Q-6.65 -21.8 -4.4 -22.3 L0.55 -22.75 5.05 -22.25 Q6.95 -22.0 8.8 -21.15 L10.4 -20.2 12.55 -18.2 Q13.95 -16.7 14.15 -15.7 L14.55 -13.55 M8.3 -17.9 L7.7 -18.05 Q7.4 -18.0 7.25 -17.75 L7.05 -17.25 7.4 -16.75 7.9 -16.65 8.45 -16.9 8.55 -17.45 8.3 -17.9 M11.95 3.5 L11.65 2.85 11.75 2.55 12.15 2.25 13.55 1.45 14.1 2.15 13.8 3.45 11.95 3.5 M13.35 1.25 L13.7 0.95 13.65 0.85 13.75 0.85 13.75 0.95 13.65 1.1 13.65 1.2 13.35 1.25 M-2.35 -18.9 L-2.2 -19.45 Q-2.2 -19.75 -2.5 -19.9 L-3.2 -20.05 Q-3.55 -20.0 -3.75 -19.75 L-4.0 -19.2 Q-3.95 -18.9 -3.6 -18.75 L-3.0 -18.65 Q-2.65 -18.7 -2.35 -18.9 M-3.7 -1.5 L-5.95 -4.7 -6.5 -5.65 -6.6 -6.05 -6.5 -6.85 -6.1 -7.55 -5.75 -7.9 -4.95 -7.95 Q-3.1 -7.3 -2.0 -5.55 L-1.55 -4.65 -1.45 -4.55 -0.25 -2.1 -0.05 -1.55 -0.25 -0.85 -1.0 3.1 -1.9 0.25 -2.1 -0.55 -2.55 -1.05 -2.8 -1.1 -3.7 -1.5 M-5.85 -5.9 L-5.5 -5.55 -4.45 -6.0 -3.75 -5.3 -4.0 -3.35 -2.6 -2.95 -2.25 -3.55 -2.5 -4.2 -3.45 -4.05 -2.85 -4.9 -3.25 -5.55 Q-3.95 -6.45 -4.95 -6.9 L-5.85 -5.9" fill="#ffcc99" fill-rule="evenodd" stroke="none"/>
      <path d="M14.6 -13.3 L14.55 -13.35 14.55 -13.55 14.6 -13.3 M12.85 -0.4 L12.5 -0.95 12.4 -1.0 12.65 -1.05 13.55 -0.95 14.6 -0.9 13.85 -0.75 13.75 -0.25 13.35 -0.35 13.1 -0.35 12.85 -0.4 M14.35 -7.2 L14.1 -7.1 Q13.25 -5.55 11.95 -4.55 L10.55 -5.4 Q7.25 -5.7 5.75 -7.85 L5.85 -8.4 9.3 -8.85 Q11.8 -9.25 14.1 -8.25 L14.45 -8.15 14.35 -7.2 M9.2 -7.2 Q10.4 -6.45 11.8 -6.55 L11.85 -6.95 9.5 -7.45 9.2 -7.2 M-5.85 -5.9 L-4.95 -6.9 Q-3.95 -6.45 -3.25 -5.55 L-2.85 -4.9 -3.45 -4.05 -2.5 -4.2 -2.25 -3.55 -2.6 -2.95 -4.0 -3.35 -3.75 -5.3 -4.45 -6.0 -5.5 -5.55 -5.85 -5.9" fill="#c79b68" fill-rule="evenodd" stroke="none"/>
      <path d="M6.5 1.25 L7.5 -0.45 7.4 1.3 6.5 1.25 M10.4 0.15 L10.55 -1.85 12.35 -3.5 13.3 -3.0 Q14.05 -2.55 13.25 -2.55 L12.6 -2.3 12.6 -1.2 12.2 -1.4 11.7 -1.25 11.25 -0.35 11.25 -0.3 10.4 0.15 M5.85 -8.4 L5.6 -8.55 Q5.15 -8.95 4.85 -9.5 L4.9 -10.6 Q6.9 -12.5 6.5 -15.6 L6.95 -14.35 Q7.5 -11.85 6.25 -9.55 L5.95 -9.1 5.9 -8.6 5.85 -8.4 M11.65 2.85 L11.5 2.7 11.55 2.7 11.75 2.55 11.65 2.85 M12.15 2.25 L13.35 1.25 13.65 1.2 13.55 1.45 12.15 2.25" fill="#ebbb98" fill-rule="evenodd" stroke="none"/>
      <path d="M9.2 -7.2 L9.5 -7.45 11.85 -6.95 11.8 -6.55 Q10.4 -6.45 9.2 -7.2" fill="#000000" fill-rule="evenodd" stroke="none"/>
      <path d="M10.8 -13.35 Q10.05 -13.45 9.65 -14.05 L10.15 -14.75 Q10.8 -15.05 10.8 -14.45 L10.8 -13.35 M8.3 -17.9 L8.55 -17.45 8.45 -16.9 7.9 -16.65 7.4 -16.75 7.05 -17.25 7.25 -17.75 Q7.4 -18.0 7.7 -18.05 L8.3 -17.9 M-2.35 -18.9 Q-2.65 -18.7 -3.0 -18.65 L-3.6 -18.75 Q-3.95 -18.9 -4.0 -19.2 L-3.75 -19.75 Q-3.55 -20.0 -3.2 -20.05 L-2.5 -19.9 Q-2.2 -19.75 -2.2 -19.45 L-2.35 -18.9" fill="#996633" fill-rule="evenodd" stroke="none"/>
      <path d="M3.65 0.3 L3.85 0.25 Q4.6 1.25 5.4 1.15 L5.85 1.25 6.2 1.5 Q5.9 2.1 5.25 2.2 L4.25 1.6 3.5 0.7 Q3.5 0.45 3.65 0.3 M7.75 1.35 L8.1 1.5 8.3 1.55 10.4 0.15 11.25 -0.3 12.85 -0.4 13.1 -0.35 Q13.5 0.15 12.9 0.2 10.55 0.65 9.0 2.6 8.25 3.55 8.35 4.8 7.6 3.75 8.2 2.65 L7.4 2.6 6.5 3.35 Q6.5 2.05 7.75 1.35 M6.25 -9.55 L11.75 -11.0 12.65 -10.8 Q13.75 -10.5 14.7 -9.7 L14.8 -8.95 Q12.45 -10.65 9.5 -9.9 L5.95 -9.1 6.25 -9.55 M0.05 -15.3 L1.5 -14.5 0.8 -12.85 -0.1 -12.75 -1.5 -13.6 Q-2.0 -13.3 -2.5 -13.05 L-3.1 -13.75 -1.05 -15.55 0.05 -15.3 M15.8 5.6 L16.25 8.1 16.2 8.9 14.9 6.4 14.15 5.75 Q12.35 5.55 11.3 3.85 11.65 3.7 11.95 3.5 L13.8 3.45 15.8 5.6 M-9.3 -18.05 Q-10.55 -17.2 -10.4 -16.35 L-10.7 -15.9 -10.0 -15.45 -9.45 -15.7 -9.8 -14.4 -10.45 -14.2 -10.6 -14.4 -12.85 -15.0 -13.0 -15.5 -11.9 -16.2 -11.85 -17.05 Q-12.0 -18.1 -10.25 -18.35 L-9.45 -18.3 -9.3 -18.05 M-6.55 -14.25 L-6.15 -14.85 -5.45 -15.05 -5.25 -13.35 -6.35 -13.2 -6.55 -14.25 M-7.7 -13.65 L-8.5 -13.6 -8.35 -15.25 -7.45 -14.55 -7.7 -13.65 M-1.55 -4.65 L-1.45 -4.6 -1.45 -4.55 -1.55 -4.65" fill="#cccccc" fill-rule="evenodd" stroke="none"/>
      <path d="M4.0 -15.45 L3.1 -12.5 Q2.0 -9.65 2.4 -6.65 3.4 -4.1 3.4 -1.55 L3.4 -0.9 3.35 -1.3 Q3.25 -1.75 3.3 -3.05 L2.5 -4.6 2.1 -5.3 1.4 -6.4 Q0.85 -7.25 0.4 -8.8 L0.9 -8.7 1.45 -9.95 Q2.45 -12.55 4.0 -15.45 M14.35 -8.45 L14.1 -8.25 Q11.8 -9.25 9.3 -8.85 L5.85 -8.4 5.9 -8.6 10.1 -9.3 Q12.15 -9.7 14.35 -8.45 M-13.35 3.05 L-12.05 2.05 -11.25 0.95 -10.05 -1.1 -9.6 -1.2 -8.65 -3.9 -8.15 -4.1 -7.7 -3.5 -8.65 -6.5 -9.15 -7.45 -9.15 -10.6 -8.25 -9.0 -7.45 -8.4 -6.55 -8.5 -5.8 -9.65 -5.55 -9.7 -5.3 -9.7 -4.7 -9.35 -4.2 -9.1 -3.9 -9.65 Q-3.45 -10.55 -3.15 -11.4 L-2.05 -8.7 -1.85 -9.3 -1.15 -9.8 -1.05 -9.75 -1.1 -9.35 -1.2 -8.9 -1.25 -8.55 -1.25 -8.4 Q-0.85 -7.2 0.15 -6.4 L0.25 -5.75 0.6 -4.4 0.6 -4.35 Q0.35 -3.6 0.4 -3.3 L1.0 -2.3 1.1 -1.05 1.1 -0.45 Q1.05 1.6 0.5 3.4 0.3 4.35 0.4 5.3 L1.25 4.05 1.25 5.1 Q1.35 6.9 2.4 8.6 L6.0 11.8 3.8 8.05 3.65 7.85 2.3 5.7 2.25 5.65 2.25 4.1 2.9 3.55 Q3.6 6.35 5.95 7.0 5.1 5.9 4.55 4.8 L5.2 5.35 7.4 7.15 7.5 7.45 Q8.1 8.95 9.2 10.25 L9.6 10.7 Q9.35 8.7 8.15 7.15 10.6 9.05 11.35 12.1 L11.85 12.35 13.0 15.5 Q13.05 12.85 12.4 10.35 14.25 12.75 14.0 15.75 L13.9 16.4 13.4 18.0 13.85 17.45 14.6 16.45 15.0 15.45 15.75 17.4 15.55 17.85 16.45 19.45 16.0 19.4 15.15 18.95 14.35 17.85 13.7 18.6 Q12.8 19.8 13.0 21.25 L11.85 19.75 12.0 18.7 12.05 17.2 11.65 15.25 11.35 14.95 9.75 15.05 9.9 16.95 8.1 13.75 7.8 13.6 7.25 13.45 Q5.25 13.7 5.15 14.8 L2.95 12.45 Q2.35 12.7 1.85 14.2 L1.5 13.1 0.55 9.8 -0.4 7.45 Q-1.2 7.6 -1.75 9.35 L-2.05 9.05 -2.0 6.6 Q-1.85 5.1 -1.25 3.7 L-1.0 3.1 -0.25 -0.85 -0.05 -1.55 -0.25 -2.1 -1.45 -4.55 -1.45 -4.6 -1.55 -4.65 -2.0 -5.55 Q-3.1 -7.3 -4.95 -7.95 L-5.75 -7.9 -6.1 -7.55 -6.5 -6.85 -6.6 -6.05 -6.5 -5.65 -5.95 -4.7 -3.7 -1.5 -3.4 -1.05 -3.25 -0.3 -3.1 0.15 -3.15 0.25 -3.8 1.6 Q-3.75 3.2 -4.8 4.7 L-5.45 5.7 -6.8 4.4 -7.4 5.5 -8.0 5.1 -7.85 2.4 Q-8.85 3.05 -10.1 3.6 L-12.1 4.15 -13.25 4.25 -13.65 3.75 -13.35 3.05 M-16.7 -5.45 L-14.65 -6.55 -14.6 -5.65 Q-14.7 -4.05 -15.5 -2.45 L-14.95 -4.7 -15.85 -5.1 -16.4 -4.95 -16.7 -5.45 M-16.45 0.3 Q-15.0 0.05 -14.1 -1.15 L-13.4 -2.15 -12.8 -1.9 -11.6 -2.3 -11.95 0.5 Q-13.4 0.95 -14.6 1.7 L-15.35 2.1 -16.3 1.85 -16.45 0.3 M-10.4 -10.3 L-10.0 -9.85 -10.1 -7.9 -10.7 -7.9 -10.4 -10.3 M14.9 13.1 Q14.75 9.25 11.7 6.65 L13.45 6.9 13.85 7.5 Q15.35 9.9 15.35 12.75 L14.95 13.1 14.9 13.1" fill="#666666" fill-rule="evenodd" stroke="none"/>
      <path d="M-8.8 -19.55 L-8.8 -19.1 -8.5 -18.1 Q-6.15 -16.8 -3.6 -16.3 -0.85 -15.75 1.35 -17.15 L4.0 -15.45 Q2.45 -12.55 1.45 -9.95 L0.9 -8.7 0.4 -8.8 Q0.85 -7.25 1.4 -6.4 L2.1 -5.3 2.5 -4.6 3.3 -3.05 Q3.25 -1.75 3.35 -1.3 L3.4 -0.9 3.5 0.0 3.65 0.3 Q3.5 0.45 3.5 0.7 L4.25 1.6 5.25 2.2 Q5.9 2.1 6.2 1.5 L5.85 1.25 6.5 1.25 7.4 1.3 7.55 1.3 7.75 1.35 Q6.5 2.05 6.5 3.35 L7.4 2.6 8.2 2.65 Q7.6 3.75 8.35 4.8 8.25 3.55 9.0 2.6 10.55 0.65 12.9 0.2 13.5 0.15 13.1 -0.35 L13.35 -0.35 13.75 -0.25 13.9 0.3 13.75 0.85 13.65 0.85 13.7 0.95 13.35 1.25 12.15 2.25 11.75 2.55 11.55 2.7 11.5 2.7 11.65 2.85 11.95 3.5 Q11.65 3.7 11.3 3.85 12.35 5.55 14.15 5.75 L14.9 6.4 16.2 8.9 16.25 8.1 15.8 5.6 Q17.15 7.65 17.4 10.2 17.6 12.75 17.05 14.3 L16.7 15.35 16.55 16.25 16.5 18.65 16.45 19.45 15.55 17.85 15.75 17.4 15.0 15.45 14.6 16.45 13.85 17.45 13.4 18.0 13.9 16.4 14.0 15.75 Q14.25 12.75 12.4 10.35 13.05 12.85 13.0 15.5 L11.85 12.35 11.35 12.1 Q10.6 9.05 8.15 7.15 9.35 8.7 9.6 10.7 L9.2 10.25 Q8.1 8.95 7.5 7.45 L7.4 7.15 5.2 5.35 4.55 4.8 Q5.1 5.9 5.95 7.0 3.6 6.35 2.9 3.55 L2.25 4.1 2.25 5.65 2.3 5.7 3.65 7.85 3.8 8.05 6.0 11.8 2.4 8.6 Q1.35 6.9 1.25 5.1 L1.25 4.05 0.4 5.3 Q0.3 4.35 0.5 3.4 1.05 1.6 1.1 -0.45 L1.1 -1.05 1.0 -2.3 0.4 -3.3 Q0.35 -3.6 0.6 -4.35 L0.6 -4.4 0.25 -5.75 0.15 -6.4 Q-0.85 -7.2 -1.25 -8.4 L-1.25 -8.55 -1.2 -8.9 -1.1 -9.35 -1.05 -9.75 -1.15 -9.8 -1.85 -9.3 -2.05 -8.7 -3.15 -11.4 Q-3.45 -10.55 -3.9 -9.65 L-4.2 -9.1 -4.7 -9.35 -5.3 -9.7 -5.55 -9.7 -5.8 -9.65 -6.55 -8.5 -7.45 -8.4 -8.25 -9.0 -9.15 -10.6 -9.15 -7.45 -8.65 -6.5 -7.7 -3.5 -8.15 -4.1 -8.65 -3.9 -9.6 -1.2 -10.05 -1.1 -11.25 0.95 -12.05 2.05 -13.35 3.05 -13.2 2.25 -12.45 1.2 -11.95 0.5 -11.6 -2.3 -12.8 -1.9 -13.4 -2.15 -14.1 -1.15 Q-15.0 0.05 -16.45 0.3 L-15.5 -2.45 Q-14.7 -4.05 -14.6 -5.65 L-14.65 -6.55 -16.7 -5.45 -17.15 -5.6 -14.45 -9.6 -14.65 -13.25 Q-14.35 -15.4 -12.7 -17.2 -10.65 -19.65 -8.8 -19.55 M14.8 -8.95 L14.35 -8.45 Q12.15 -9.7 10.1 -9.3 L5.9 -8.6 5.95 -9.1 9.5 -9.9 Q12.45 -10.65 14.8 -8.95 M0.05 -15.3 L-1.05 -15.55 -3.1 -13.75 -2.5 -13.05 Q-2.0 -13.3 -1.5 -13.6 L-0.1 -12.75 0.8 -12.85 1.5 -14.5 0.05 -15.3 M-9.3 -18.05 L-9.45 -18.3 -10.25 -18.35 Q-12.0 -18.1 -11.85 -17.05 L-11.9 -16.2 -13.0 -15.5 -12.85 -15.0 -10.6 -14.4 -10.45 -14.2 -9.8 -14.4 -9.45 -15.7 -10.0 -15.45 -10.7 -15.9 -10.4 -16.35 Q-10.55 -17.2 -9.3 -18.05 M-7.7 -13.65 L-7.45 -14.55 -8.35 -15.25 -8.5 -13.6 -7.7 -13.65 M-6.55 -14.25 L-6.35 -13.2 -5.25 -13.35 -5.45 -15.05 -6.15 -14.85 -6.55 -14.25 M-10.4 -10.3 L-10.7 -7.9 -10.1 -7.9 -10.0 -9.85 -10.4 -10.3 M14.95 13.1 L15.35 12.75 Q15.35 9.9 13.85 7.5 L13.45 6.9 11.7 6.65 Q14.75 9.25 14.9 13.1 L14.95 13.15 14.95 13.1" fill="#999999" fill-rule="evenodd" stroke="none"/>
      <path d="M14.9 13.1 L14.95 13.1 14.95 13.15 14.9 13.1" fill="#3333ff" fill-rule="evenodd" stroke="none"/>
    </g>
    <g id="sprite2" transform="matrix(1.0, 0.0, 0.0, 1.0, 50.0, 50.0)">
      <use ffdec:characterId="1110" height="100.0" transform="matrix(1.0, 0.0, 0.0, 1.0, -50.0, -50.0)" width="100.0" xlink:href="#shape2"/>
    </g>
    <g id="shape2" transform="matrix(1.0, 0.0, 0.0, 1.0, 50.0, 50.0)">
      <path d="M35.35 -35.35 Q50.0 -20.7 50.0 0.0 50.0 20.7 35.35 35.35 20.7 50.0 0.0 50.0 -20.7 50.0 -35.35 35.35 -50.0 20.7 -50.0 0.0 -50.0 -20.7 -35.35 -35.35 -20.7 -50.0 0.0 -50.0 20.7 -50.0 35.35 -35.35 Z" fill="none" stroke="#9900ff" stroke-linecap="round" stroke-linejoin="round" stroke-width="0.05"/>
    </g>
  </defs>
</svg>
