<?xml version="1.0" encoding="UTF-8" standalone="no"?>
<svg xmlns:ffdec="https://www.free-decompiler.com/flash" xmlns:xlink="http://www.w3.org/1999/xlink" ffdec:objectType="frame" height="274.85px" width="73.85px" xmlns="http://www.w3.org/2000/svg">
  <g transform="matrix(1.0, 0.0, 0.0, 1.0, 34.8, 96.25)">
    <use ffdec:characterId="1748" height="105.7" id="arm2" transform="matrix(0.9999, 0.0, 0.0, 0.9999, -12.7993, -37.1492)" width="30.0" xlink:href="#sprite0"/>
    <use ffdec:characterId="1761" height="148.75" id="leg2" transform="matrix(0.9998, 0.0, 0.0, 0.9998, -20.1464, 29.8535)" width="48.35" xlink:href="#sprite6"/>
    <use ffdec:characterId="1777" height="72.25" id="headOuter" transform="matrix(1.0, 0.0, 0.0, 1.0, -30.95, -96.25)" width="55.85" xlink:href="#sprite10"/>
    <use ffdec:characterId="1790" ffdec:characterName="game_fla.pelvis_591" height="56.75" id="pelvis" transform="matrix(0.999, -7.0E-4, 7.0E-4, 0.999, -31.0926, 10.1067)" width="70.2" xlink:href="#sprite15"/>
    <use ffdec:characterId="1805" height="144.25" id="leg1" transform="matrix(0.9996, 0.0, 0.0, 0.9996, -21.6933, 33.8058)" width="48.85" xlink:href="#sprite17"/>
    <use ffdec:characterId="1823" ffdec:characterName="game_fla.chest_603" height="115.75" id="chest" transform="matrix(1.0, 0.0, 0.0, 1.0, -34.8, -66.95)" width="70.25" xlink:href="#sprite22"/>
    <use ffdec:characterId="1835" height="116.7" id="arm1" transform="matrix(0.9998, 0.0, 0.0, 0.9998, -12.4482, -41.6473)" width="20.6" xlink:href="#sprite25"/>
  </g>
  <defs>
    <g id="sprite0" transform="matrix(1.0, 0.0, 0.0, 1.0, 9.3, 10.35)">
      <use ffdec:characterId="1741" ffdec:characterName="game_fla.upperarm2_575" height="53.95" id="upperArm2" transform="matrix(1.0, 0.0, 0.0, 1.0, -9.3, -10.35)" width="21.45" xlink:href="#sprite1"/>
      <use ffdec:characterId="1747" height="65.55" id="lowerArmOuter2" transform="matrix(1.0, 0.0, 0.0, 1.0, -7.0496, 29.8003)" width="27.75" xlink:href="#sprite3"/>
    </g>
    <g id="sprite1" transform="matrix(1.0, 0.0, 0.0, 1.0, 10.2, 26.6)">
      <use ffdec:characterId="1737" height="53.95" transform="matrix(1.0, 0.0, 0.0, 1.0, -10.2, -26.6)" width="21.35" xlink:href="#shape0"/>
      <use ffdec:characterId="1081" height="100.0" id="shape" transform="matrix(0.18, 0.0, 0.0, 0.52, -8.9996, -25.9995)" width="100.0" xlink:href="#sprite2"/>
    </g>
    <g id="shape0" transform="matrix(1.0, 0.0, 0.0, 1.0, 10.2, 26.6)">
      <path d="M7.2 9.5 L6.95 13.0 6.95 13.6 Q6.65 17.95 6.9 20.15 7.0 21.75 5.95 24.0 4.35 27.05 1.3 27.3 -1.85 27.6 -3.8 26.65 -5.35 25.0 -6.15 22.75 L-6.75 20.9 -7.3 14.2 -7.4 13.95 -7.4 11.75 -7.3 9.1 -7.3 8.0 -7.4 7.2 -7.5 6.9 -7.5 6.4 -7.8 1.6 -7.75 1.65 -7.8 0.85 -7.75 -0.35 -7.7 -0.3 -7.75 0.1 -7.75 0.45 -7.75 0.5 Q-7.75 3.25 -7.45 3.95 L-6.5 5.2 -6.4 5.5 Q-5.6 7.85 -5.55 8.65 -5.55 9.75 -4.0 11.65 L-1.75 14.25 -1.4 14.15 -1.3 13.7 -2.55 11.25 -3.2 9.8 -3.1 8.9 -3.1 8.35 -2.3 6.1 -2.15 5.8 -2.0 5.65 -1.1 4.1 -0.75 3.75 1.65 3.35 Q2.65 3.7 3.75 4.8 L4.45 6.95 Q5.1 9.4 5.65 9.4 L5.95 9.4 6.25 9.5 6.4 9.45 7.0 9.55 7.2 9.5 M-2.35 1.8 L-2.4 1.8 -2.35 1.8 M3.0 1.45 L3.1 1.4 3.1 1.45 3.0 1.45 M-4.0 18.35 L-3.9 18.8 -3.95 18.35 -4.0 18.35" fill="#ffcc99" fill-rule="evenodd" stroke="none"/>
      <path d="M3.6 1.2 L3.0 2.05 Q3.0 2.25 5.1 3.2 L5.3 3.45 Q6.25 4.45 6.25 5.1 L5.9 6.35 5.5 7.25 7.4 8.5 7.25 9.25 7.2 9.5 7.0 9.55 6.4 9.45 6.25 9.5 5.95 9.4 5.65 9.4 Q5.1 9.4 4.45 6.95 L3.75 4.8 Q2.65 3.7 1.65 3.35 L-0.75 3.75 -1.1 4.1 -2.0 5.65 -2.15 5.8 -2.3 6.1 -3.1 8.35 -3.1 8.9 -3.2 9.8 -2.55 11.25 -1.3 13.7 -1.4 14.15 -1.75 14.25 -4.0 11.65 Q-5.55 9.75 -5.55 8.65 -5.6 7.85 -6.4 5.5 L-6.5 5.2 -7.45 3.95 Q-7.75 3.25 -7.75 0.5 L-7.75 0.45 -7.75 0.1 -7.7 -0.3 -7.6 -0.25 -7.5 -0.2 -7.05 0.4 -6.4 1.25 -6.4 1.75 Q-6.15 2.15 -6.05 2.65 L-5.95 2.95 -5.75 4.0 -5.8 4.75 -4.95 4.65 -2.8 4.6 -2.8 4.5 Q-2.8 2.8 -2.4 1.8 L-2.35 1.8 -2.35 1.75 -2.05 1.15 -1.75 0.75 -1.1 0.45 -1.35 -0.05 -1.65 -0.75 Q-1.65 -1.75 -0.7 -2.55 L0.15 -3.25 Q1.2 -3.2 2.0 -2.65 L2.7 -2.0 3.0 -1.55 3.4 -0.4 2.85 1.55 3.0 1.45 3.1 1.45 3.1 1.4 3.3 1.3 3.6 1.2" fill="#ebbb98" fill-rule="evenodd" stroke="none"/>
      <path d="M-8.15 -20.15 L-8.0 -20.55 -7.35 -21.6 -6.75 -22.35 Q-4.8 -24.6 -2.2 -25.7 L-2.1 -25.7 Q0.5 -26.85 3.45 -26.5 L4.5 -26.05 Q6.6 -25.25 8.3 -23.85 9.5 -22.6 10.15 -21.05 L10.9 -18.1 Q11.35 -16.0 11.05 -13.35 L10.5 -8.7 10.05 -5.4 9.95 -4.2 9.75 -4.15 Q9.6 3.4 8.95 4.95 L9.0 5.75 9.25 8.7 9.05 9.05 8.55 9.2 7.4 8.5 5.5 7.25 5.9 6.35 6.25 5.1 Q6.25 4.45 5.3 3.45 L5.1 3.2 Q3.0 2.25 3.0 2.05 L3.6 1.2 4.55 1.0 4.55 0.95 Q4.55 -0.75 5.5 -2.1 5.45 -2.65 5.55 -3.0 L5.35 -4.4 5.6 -5.6 6.65 -9.85 6.65 -9.75 7.15 -11.0 Q8.0 -12.6 8.25 -15.3 L8.2 -15.9 8.3 -16.9 8.1 -17.6 7.2 -21.35 5.55 -23.8 Q4.1 -24.5 2.15 -24.6 L-0.5 -24.55 Q-1.2 -25.7 -4.6 -23.45 -7.15 -21.75 -8.15 -20.15 M-8.85 -0.55 L-8.9 -0.5 -8.9 -0.55 -8.85 -0.55 M-9.2 -9.5 L-9.25 -10.15 -9.25 -13.45 -9.05 -16.35 -8.85 -17.6 -9.2 -10.4 -9.2 -9.5 M-6.4 -7.95 L-6.35 -8.15 -6.35 -8.05 -6.4 -7.95" fill="#d7d3d0" fill-rule="evenodd" stroke="none"/>
      <path d="M-8.15 -20.15 Q-7.15 -21.75 -4.6 -23.45 -1.2 -25.7 -0.5 -24.55 L2.15 -24.6 Q4.1 -24.5 5.55 -23.8 L7.2 -21.35 8.1 -17.6 8.3 -16.9 8.2 -15.9 8.25 -15.3 Q8.0 -12.6 7.15 -11.0 L6.65 -9.75 6.65 -9.85 5.6 -5.6 5.35 -4.4 5.55 -3.0 Q5.45 -2.65 5.5 -2.1 4.55 -0.75 4.55 0.95 L4.55 1.0 3.6 1.2 3.3 1.3 3.1 1.4 3.0 1.45 2.85 1.55 3.4 -0.4 3.0 -1.55 2.7 -2.0 2.0 -2.65 Q1.2 -3.2 0.15 -3.25 L-0.7 -2.55 Q-1.65 -1.75 -1.65 -0.75 L-1.35 -0.05 -1.1 0.45 -1.75 0.75 -2.05 1.15 -2.35 1.75 -2.35 1.8 -2.4 1.8 Q-2.8 2.8 -2.8 4.5 L-2.8 4.6 -4.95 4.65 -5.8 4.75 -5.75 4.0 -5.95 2.95 -6.05 2.65 Q-6.15 2.15 -6.4 1.75 L-6.4 1.25 -7.05 0.4 -7.5 -0.2 -7.6 -0.25 -7.7 -0.3 -7.75 -0.35 -7.85 -0.35 -8.85 -0.55 -8.9 -0.55 -9.05 -0.6 -9.25 -0.6 -9.35 -1.2 -9.35 -1.25 -10.2 -2.9 -10.05 -3.2 -10.0 -3.25 -9.75 -3.5 -9.5 -3.9 -9.25 -4.2 -9.25 -4.3 -9.05 -5.0 -9.2 -9.5 -9.2 -10.4 -8.85 -17.6 -8.85 -18.05 Q-8.85 -19.05 -8.15 -20.15 M-6.4 -7.95 L-6.35 -8.05 -6.35 -8.15 -6.4 -7.95" fill="#bbb4ae" fill-rule="evenodd" stroke="none"/>
    </g>
    <g id="sprite2" transform="matrix(1.0, 0.0, 0.0, 1.0, 50.0, 50.0)">
      <use ffdec:characterId="1080" height="100.0" transform="matrix(1.0, 0.0, 0.0, 1.0, -50.0, -50.0)" width="100.0" xlink:href="#shape1"/>
    </g>
    <g id="shape1" transform="matrix(1.0, 0.0, 0.0, 1.0, 50.0, 50.0)">
      <path d="M50.0 50.0 L-50.0 50.0 -50.0 -50.0 50.0 -50.0 50.0 50.0 Z" fill="none" stroke="#9900ff" stroke-linecap="round" stroke-linejoin="round" stroke-width="0.05"/>
    </g>
    <g id="sprite3" transform="matrix(1.0, 0.0, 0.0, 1.0, 9.4, 5.8)">
      <use ffdec:characterId="1746" ffdec:characterName="game_fla.lowerarm2_577" height="65.55" id="lowerArm2" transform="matrix(1.0, 0.0, 0.0, 1.0, -9.4, -5.8)" width="27.75" xlink:href="#sprite4"/>
    </g>
    <g id="sprite4" transform="matrix(1.0, 0.0, 0.0, 1.0, 9.3, 30.75)">
      <use ffdec:characterId="1743" ffdec:characterName="game_fla.hand2_578" height="21.85" id="hand" transform="matrix(1.0, 0.0, 0.0, 1.0, -8.3, 12.95)" width="15.6" xlink:href="#sprite5"/>
      <use ffdec:characterId="1744" height="48.2" transform="matrix(1.0, 0.0, 0.0, 1.0, -8.85, -29.5)" width="27.3" xlink:href="#shape3"/>
      <use ffdec:characterId="1081" height="100.0" id="shape" transform="matrix(0.15, 0.0, 0.0, 0.6, -7.4997, -29.9995)" width="100.0" xlink:href="#sprite2"/>
    </g>
    <g id="sprite5" transform="matrix(1.0, 0.0, 0.0, 1.0, 8.8, 7.45)">
      <use ffdec:characterId="1462" height="14.95" transform="matrix(1.0, 0.0, 0.0, 1.0, -6.75, -7.45)" width="13.55" xlink:href="#shape2"/>
    </g>
    <g id="shape2" transform="matrix(1.0, 0.0, 0.0, 1.0, 6.75, 7.45)">
      <path d="M0.85 -7.45 L5.35 -7.45 5.65 -6.2 6.25 -3.75 6.4 -3.35 6.45 -3.15 6.45 -3.0 4.9 2.05 4.0 4.55 -1.6 2.8 -2.45 2.45 Q-1.4 4.45 0.9 4.55 L0.25 4.85 -6.65 3.6 -6.75 3.1 -6.45 0.85 -6.3 0.05 -5.55 -0.6 -0.3 -1.0 -0.25 -1.0 -0.25 -1.05 -0.75 -3.5 0.55 -4.75 Q1.1 -5.35 2.85 -5.15 L2.15 -6.45 1.7 -6.55 1.35 -6.6 0.85 -7.45 M-3.75 -7.45 L-3.75 -6.75 -4.15 -4.95 -4.65 -4.85 -4.65 -6.05 -4.6 -6.6 -4.55 -6.7 -4.5 -7.45 -3.75 -7.45 M-5.1 -2.4 L-5.1 -2.2 -5.15 -2.3 -5.1 -2.4" fill="#ffcc99" fill-rule="evenodd" stroke="none"/>
      <path d="M0.85 -7.45 L1.35 -6.6 1.7 -6.55 2.15 -6.45 2.85 -5.15 Q1.1 -5.35 0.55 -4.75 L-0.75 -3.5 -0.25 -1.05 -0.3 -1.0 -5.55 -0.6 -5.1 -2.2 -5.1 -2.4 -4.65 -4.85 -4.15 -4.95 -3.75 -6.75 -3.75 -7.45 0.85 -7.45" fill="#ebbb98" fill-rule="evenodd" stroke="none"/>
      <path d="M-6.65 3.6 L0.25 4.85 0.9 4.55 Q-1.4 4.45 -2.45 2.45 L-1.6 2.8 4.0 4.55 4.9 2.05 6.45 -3.0 6.8 -0.1 Q6.9 2.8 6.0 5.6 L5.6 5.95 5.35 6.5 Q2.85 8.15 0.3 7.05 L-1.5 7.2 Q-4.45 7.25 -6.25 5.15 L-6.65 4.65 -6.7 3.6 -6.65 3.6" fill="#e2b181" fill-rule="evenodd" stroke="none"/>
    </g>
    <g id="shape3" transform="matrix(1.0, 0.0, 0.0, 1.0, 8.85, 29.5)">
      <path d="M-4.85 -2.85 L-5.2 -4.15 -5.65 -8.75 -5.8 -8.3 -5.2 -10.5 -3.85 -15.7 -3.2 -18.1 Q-2.4 -20.75 -1.2 -23.2 L-0.25 -25.05 1.45 -27.75 1.8 -28.2 Q2.3 -28.15 2.45 -27.75 2.55 -27.2 1.85 -25.95 0.55 -23.55 1.45 -21.05 1.7 -20.2 1.3 -18.3 L1.15 -17.7 0.35 -21.15 -0.75 -19.8 -1.8 -15.7 -2.8 -10.5 -3.4 -6.05 -3.65 -3.15 -3.65 -2.75 -4.85 -2.85 M3.6 7.5 L4.3 7.4 5.15 7.85 5.3 11.2 5.35 11.45 5.45 12.15 5.45 12.65 5.35 13.0 5.25 13.25 Q1.4 23.3 -3.2 14.85 L-3.65 14.95 -3.8 13.75 -3.95 13.4 -4.15 13.0 -3.5 11.8 Q-2.65 10.0 -2.7 8.4 -2.05 10.6 -1.9 11.75 L-1.9 12.0 Q-1.75 12.15 -1.65 12.1 L-0.6 12.0 3.25 11.85 3.35 11.85 Q4.35 11.75 4.8 11.45 L5.05 11.1 4.25 9.55 3.6 8.95 3.6 7.5" fill="#ebbb98" fill-rule="evenodd" stroke="none"/>
      <path d="M-3.65 -2.75 L-3.65 -3.15 -3.4 -6.05 -2.8 -10.5 -1.8 -15.7 -0.75 -19.8 0.35 -21.15 1.15 -17.7 1.3 -18.3 Q1.7 -20.2 1.45 -21.05 0.55 -23.55 1.85 -25.95 2.55 -27.2 2.45 -27.75 2.3 -28.15 1.8 -28.2 L1.45 -27.75 -0.25 -25.05 -1.2 -23.2 Q-2.4 -20.75 -3.2 -18.1 L-3.85 -15.7 -5.2 -10.5 -5.8 -8.3 -5.65 -8.75 -5.2 -4.15 -4.85 -2.85 Q-5.65 -3.1 -6.05 -3.65 L-6.1 -3.7 -6.25 -3.85 -6.85 -8.45 -7.0 -10.5 -7.15 -14.55 -7.1 -15.7 -7.0 -23.95 Q-5.65 -24.95 -5.8 -22.2 -5.25 -22.15 -4.75 -23.55 -4.3 -24.85 -4.6 -27.75 L-4.7 -28.5 -3.95 -28.15 -2.1 -27.85 Q0.65 -27.8 2.6 -29.5 L4.85 -28.65 5.15 -27.75 Q6.35 -23.95 6.55 -20.8 L6.65 -15.7 6.6 -14.7 6.5 -14.75 Q6.25 -15.4 5.6 -14.85 4.75 -14.05 4.35 -12.75 L4.35 -12.6 4.1 -11.45 4.15 -11.05 Q4.1 -8.5 2.15 -8.5 1.5 -8.5 1.2 -9.0 L1.0 -9.05 1.0 -9.0 Q0.85 -8.2 0.3 -7.45 L0.25 -7.35 0.15 -7.2 -0.35 -6.4 -0.15 -6.1 0.25 -5.65 Q1.65 -4.1 1.65 -2.85 1.65 -1.55 1.1 -1.05 L1.05 -0.85 0.85 -0.9 0.15 -0.75 -1.85 -1.1 -1.9 -1.1 -1.95 -1.15 Q-2.9 -1.65 -3.0 -2.8 L-3.65 -2.75 M3.45 7.5 L3.5 7.5 3.6 7.5 3.6 8.95 4.25 9.55 5.05 11.1 4.8 11.45 Q4.35 11.75 3.35 11.85 L3.25 11.85 -0.6 12.0 -1.65 12.1 Q-1.75 12.15 -1.9 12.0 L-1.9 11.75 Q-2.05 10.6 -2.7 8.4 -2.65 10.0 -3.5 11.8 L-4.15 13.0 -3.95 13.4 -4.05 13.5 -4.15 13.15 -4.15 13.0 -4.15 12.75 -4.2 11.85 -4.15 11.85 -4.35 8.7 -3.0 8.0 -2.85 8.0 0.25 7.65 3.45 7.5 M5.45 12.65 L5.55 13.25 5.55 13.35 5.25 13.25 5.35 13.0 5.45 12.65" fill="#ffcc99" fill-rule="evenodd" stroke="none"/>
      <path d="M4.35 -12.6 L4.35 -12.75 Q4.75 -14.05 5.6 -14.85 6.25 -15.4 6.5 -14.75 L6.6 -14.7 6.75 -14.5 6.85 -13.4 Q6.85 -9.7 6.15 -2.4 L6.5 2.05 6.4 4.1 6.4 4.2 6.4 4.65 6.6 5.2 6.75 6.15 6.75 7.4 Q6.65 8.0 6.0 8.0 L5.15 7.85 4.3 7.4 3.6 7.5 3.5 7.5 3.45 7.5 3.55 6.8 3.75 5.65 4.1 2.55 4.25 -0.7 4.35 -4.8 4.15 -5.9 4.25 -6.6 4.6 -9.8 4.35 -12.6 M18.4 -2.45 L18.45 -2.45 18.4 -2.35 18.4 -2.45" fill="#d7d3d0" fill-rule="evenodd" stroke="none"/>
      <path d="M-4.7 -28.5 L-4.6 -27.75 Q-4.3 -24.85 -4.75 -23.55 -5.25 -22.15 -5.8 -22.2 -5.65 -24.95 -7.0 -23.95 L-5.75 -27.75 -5.6 -28.3 Q-5.4 -28.9 -4.7 -28.5" fill="#e2b181" fill-rule="evenodd" stroke="none"/>
      <path d="M-3.65 -2.75 L-3.0 -2.8 Q-2.9 -1.65 -1.95 -1.15 L-1.9 -1.1 -1.85 -1.1 0.15 -0.75 0.85 -0.9 1.05 -0.85 1.1 -1.05 Q1.65 -1.55 1.65 -2.85 1.65 -4.1 0.25 -5.65 L-0.15 -6.1 -0.35 -6.4 0.15 -7.2 0.25 -7.35 0.3 -7.45 Q0.85 -8.2 1.0 -9.0 L1.0 -9.05 1.2 -9.0 Q1.5 -8.5 2.15 -8.5 4.1 -8.5 4.15 -11.05 L4.1 -11.45 4.35 -12.6 4.6 -9.8 4.25 -6.6 4.15 -5.9 4.35 -4.8 4.25 -0.7 4.1 2.55 3.75 5.65 3.55 6.8 3.45 7.5 0.25 7.65 -2.85 8.0 -3.0 8.0 -4.35 8.7 -5.0 8.9 -5.65 8.75 -5.65 7.6 -5.75 7.5 Q-5.75 5.9 -6.7 2.0 L-7.1 0.25 -7.1 0.2 -7.2 -0.25 -7.35 -0.55 -7.5 -1.1 -8.15 -2.45 -8.75 -3.05 -8.85 -3.3 -8.2 -4.4 -7.55 -5.5 -7.55 -5.55 -7.5 -5.6 -6.9 -4.65 -6.25 -3.85 -6.1 -3.7 -6.05 -3.65 Q-5.65 -3.1 -4.85 -2.85 L-3.65 -2.75" fill="#bbb4ae" fill-rule="evenodd" stroke="none"/>
    </g>
    <g id="sprite6" transform="matrix(1.0, 0.0, 0.0, 1.0, 17.75, 20.6)">
      <use ffdec:characterId="1753" ffdec:characterName="game_fla.upperleg2_580" height="88.2" id="upperLeg2" transform="matrix(1.0, 0.0, 0.0, 1.0, -17.75, -20.6)" width="40.05" xlink:href="#sprite7"/>
      <use ffdec:characterId="1760" height="78.8" id="lowerLegOuter2" transform="matrix(1.0, 0.0, 0.0, 1.0, -11.3496, 49.3502)" width="41.95" xlink:href="#sprite8"/>
    </g>
    <g id="sprite7" transform="matrix(1.0, 0.0, 0.0, 1.0, 20.45, 45.35)">
      <use ffdec:characterId="1749" height="87.8" transform="matrix(1.0, 0.0, 0.0, 1.0, -20.45, -44.95)" width="40.05" xlink:href="#shape4"/>
      <use ffdec:characterId="1081" height="100.0" id="shape" transform="matrix(0.32, 0.0, 0.0, 0.82, -15.9996, -40.9988)" width="100.0" xlink:href="#sprite2"/>
    </g>
    <g id="shape4" transform="matrix(1.0, 0.0, 0.0, 1.0, 20.45, 44.95)">
      <path d="M4.4 8.4 L5.0 5.65 Q5.95 1.9 5.95 -0.25 L5.5 -5.05 4.75 -7.65 4.75 -8.2 3.65 -10.75 Q3.65 -11.75 3.8 -12.55 4.0 -14.0 4.6 -14.75 4.7 -14.05 5.1 -13.25 L6.35 -11.2 6.35 -11.45 6.5 -12.05 7.5 -14.0 7.7 -14.95 8.55 -17.2 8.8 -17.6 9.05 -17.95 9.15 -18.1 9.9 -19.4 9.7 -19.95 9.6 -20.15 9.3 -20.35 9.15 -20.4 8.5 -20.1 Q8.15 -19.8 7.7 -19.8 L7.5 -20.3 7.05 -21.25 7.55 -21.85 8.2 -22.8 8.35 -22.9 8.3 -23.0 8.4 -23.25 8.5 -23.35 Q9.0 -23.6 9.0 -24.5 L7.95 -26.75 8.15 -26.9 8.55 -27.7 8.55 -27.75 10.85 -29.25 10.8 -29.55 Q11.5 -30.2 11.5 -30.85 L11.45 -31.3 11.25 -31.4 10.85 -31.5 10.2 -31.25 9.85 -31.0 9.45 -32.15 10.65 -34.5 Q11.25 -36.7 12.05 -37.85 L12.1 -38.4 12.1 -38.45 11.9 -40.35 9.45 -42.15 Q16.65 -39.3 17.0 -34.9 L18.05 -32.75 18.1 -32.35 18.45 -31.8 Q19.6 -27.95 19.6 -24.1 L18.95 -19.05 18.25 -17.15 18.25 -10.1 Q18.35 -8.05 17.4 -4.3 L17.4 -3.8 16.75 -1.8 Q16.1 -0.1 16.05 1.45 L15.85 4.55 Q15.7 5.75 15.35 6.25 L15.3 6.55 14.9 9.35 Q14.0 9.85 13.45 10.55 L12.95 11.25 Q11.9 12.55 11.9 14.5 10.85 14.9 10.85 16.7 10.85 17.7 11.05 18.0 L11.2 18.2 9.55 19.55 9.3 19.8 9.25 19.65 Q9.1 17.6 7.8 17.6 6.75 17.55 6.5 18.75 L6.15 18.45 5.45 18.1 5.55 17.9 Q5.95 16.9 5.95 16.05 L5.7 14.65 5.45 14.1 6.05 13.5 6.15 13.35 Q7.1 12.3 7.1 11.2 L6.75 10.1 6.65 9.75 Q6.15 8.35 4.95 8.35 L4.4 8.4 M-12.05 -42.4 L-13.2 -41.55 Q-14.7 -39.15 -15.0 -37.85 -15.2 -36.95 -16.25 -34.6 L-16.35 -31.6 -16.4 -31.1 -16.25 -31.25 -15.95 -30.9 Q-15.3 -29.9 -14.6 -27.95 -13.9 -25.8 -13.9 -25.0 -13.9 -24.25 -14.4 -23.4 -14.9 -22.55 -14.9 -21.25 L-15.25 -21.05 -14.3 -15.6 -14.3 -15.25 -14.1 -14.7 -13.3 -12.45 Q-12.25 -9.45 -12.0 -7.85 L-11.6 -5.65 -8.3 -12.0 -7.5 -10.75 Q-7.5 -10.4 -7.65 -10.0 L-7.85 -9.25 Q-7.85 -8.45 -9.3 -4.3 L-9.85 -2.45 -10.15 -1.0 -10.4 0.9 Q-10.3 2.15 -10.5 4.7 L-10.35 9.05 -9.4 13.4 -9.4 13.5 -8.9 14.45 Q-10.25 14.9 -10.25 16.3 L-9.85 17.9 -10.3 18.05 -11.3 18.65 Q-12.2 19.4 -12.4 20.85 L-14.25 19.25 -13.7 18.55 Q-13.15 18.05 -13.15 17.5 -13.15 16.2 -14.15 15.35 L-14.2 15.35 -14.4 15.3 -16.05 15.6 -15.95 12.1 Q-15.95 7.7 -16.8 3.95 L-17.65 -0.9 -17.65 -1.15 -17.8 -1.6 -18.25 -3.7 Q-18.2 -5.6 -18.55 -6.15 -18.95 -6.75 -18.95 -7.75 L-18.75 -10.5 -18.85 -10.5 -18.8 -11.3 Q-18.7 -12.7 -18.75 -14.35 -18.75 -16.8 -19.4 -19.55 L-20.1 -21.95 -20.45 -27.05 Q-20.45 -36.15 -14.3 -41.0 L-12.05 -42.4 M10.35 8.45 L10.45 9.25 Q10.65 9.95 11.45 9.95 12.2 9.95 12.7 9.5 L13.15 8.6 Q13.15 7.2 11.75 6.9 10.35 6.65 10.35 8.45" fill="#6a502d" fill-rule="evenodd" stroke="none"/>
      <path d="M9.45 -42.15 L11.9 -40.35 12.1 -38.45 12.1 -38.4 12.05 -37.85 Q11.25 -36.7 10.65 -34.5 L9.45 -32.15 9.85 -31.0 10.2 -31.25 10.85 -31.5 11.25 -31.4 11.45 -31.3 11.5 -30.85 Q11.5 -30.2 10.8 -29.55 L10.85 -29.25 8.55 -27.75 8.55 -27.7 8.15 -26.9 7.95 -26.75 9.0 -24.5 Q9.0 -23.6 8.5 -23.35 L8.4 -23.25 8.3 -23.0 8.35 -22.9 8.2 -22.8 7.55 -21.85 7.05 -21.25 7.5 -20.3 7.7 -19.8 Q8.15 -19.8 8.5 -20.1 L9.15 -20.4 9.3 -20.35 9.6 -20.15 9.7 -19.95 9.9 -19.4 9.15 -18.1 9.05 -17.95 8.8 -17.6 8.55 -17.2 7.7 -14.95 7.5 -14.0 6.5 -12.05 6.35 -11.45 6.35 -11.2 5.1 -13.25 Q4.7 -14.05 4.6 -14.75 4.0 -14.0 3.8 -12.55 3.65 -11.75 3.65 -10.75 L4.75 -8.2 4.75 -7.65 5.5 -5.05 5.95 -0.25 Q5.95 1.9 5.0 5.65 L4.4 8.4 4.25 8.45 3.8 8.45 3.8 8.6 Q3.2 8.85 2.85 9.5 L2.65 10.0 2.4 10.0 Q0.2 10.0 0.2 11.9 L0.5 13.0 0.85 13.5 0.85 13.55 1.0 14.85 1.05 15.0 0.4 15.75 0.2 16.85 0.45 18.1 0.65 18.5 0.2 18.9 Q0.05 19.2 0.05 19.9 0.05 20.65 0.2 20.95 -1.15 21.25 -1.65 22.35 L-1.95 21.95 Q-1.5 21.2 -1.5 20.75 -1.45 18.8 -2.8 18.8 -3.75 18.8 -4.5 20.15 -4.5 17.55 -5.15 16.15 L-5.3 15.8 Q-5.95 14.2 -7.25 14.2 L-8.9 14.45 -9.4 13.5 -9.4 13.4 -10.35 9.05 -10.5 4.7 Q-10.3 2.15 -10.4 0.9 L-10.15 -1.0 -9.85 -2.45 -9.3 -4.3 Q-7.85 -8.45 -7.85 -9.25 L-7.65 -10.0 Q-7.5 -10.4 -7.5 -10.75 L-8.3 -12.0 -11.6 -5.65 -12.0 -7.85 Q-12.25 -9.45 -13.3 -12.45 L-14.1 -14.7 -14.3 -15.25 -14.3 -15.6 -15.25 -21.05 -14.9 -21.25 Q-14.9 -22.55 -14.4 -23.4 -13.9 -24.25 -13.9 -25.0 -13.9 -25.8 -14.6 -27.95 -15.3 -29.9 -15.95 -30.9 L-16.25 -31.25 -16.4 -31.1 -16.35 -31.6 -16.25 -34.6 Q-15.2 -36.95 -15.0 -37.85 -14.7 -39.15 -13.2 -41.55 L-12.05 -42.4 Q-7.6 -45.25 -0.6 -44.9 L2.1 -44.5 4.2 -44.05 Q5.35 -43.85 8.9 -42.4 L9.45 -42.15 M-3.85 11.95 Q-4.1 11.45 -4.6 11.45 -5.85 11.45 -5.85 12.5 -5.9 13.75 -4.85 13.75 L-4.45 13.7 Q-4.15 13.65 -3.95 13.45 L-3.65 12.95 -3.75 12.2 -3.85 11.95 M-7.05 9.05 Q-7.85 9.1 -7.85 9.85 -7.95 10.7 -7.1 10.7 -6.25 10.7 -6.25 9.85 -6.25 9.0 -7.05 9.05" fill="#554024" fill-rule="evenodd" stroke="none"/>
      <path d="M4.4 8.4 L4.95 8.35 Q6.15 8.35 6.65 9.75 L6.75 10.1 7.1 11.2 Q7.1 12.3 6.15 13.35 L6.05 13.5 5.45 14.1 5.7 14.65 5.95 16.05 Q5.95 16.9 5.55 17.9 L5.45 18.1 6.15 18.45 Q0.45 23.7 -3.75 30.1 L-2.55 31.15 -1.2 31.0 1.05 30.5 3.45 29.15 7.65 30.1 8.3 27.15 Q8.45 25.85 8.25 24.65 L7.9 23.85 8.65 22.15 9.55 19.55 11.2 18.2 11.05 18.0 Q10.85 17.7 10.85 16.7 10.85 14.9 11.9 14.5 11.9 12.55 12.95 11.25 L13.45 10.55 13.4 11.55 Q12.8 19.4 10.8 28.75 10.1 31.95 8.65 34.85 L8.55 35.1 7.6 36.85 4.7 40.95 Q3.85 42.0 -0.6 42.65 -4.75 43.3 -7.95 42.05 L-8.5 41.55 Q-11.55 38.4 -11.55 32.95 L-11.3 30.15 Q-11.15 29.1 -11.15 27.9 L-11.15 27.65 -10.7 27.85 -10.45 26.4 -10.3 26.55 -9.85 26.4 -9.85 25.15 -8.05 22.15 Q-5.55 18.25 -5.5 17.65 L-5.15 16.15 Q-4.5 17.55 -4.5 20.15 -3.75 18.8 -2.8 18.8 -1.45 18.8 -1.5 20.75 -1.5 21.2 -1.95 21.95 L-1.65 22.35 Q-1.15 21.25 0.2 20.95 0.05 20.65 0.05 19.9 0.05 19.2 0.2 18.9 L0.65 18.5 0.45 18.1 0.2 16.85 0.4 15.75 1.05 15.0 1.0 14.85 0.85 13.55 0.85 13.5 0.5 13.0 0.2 11.9 Q0.2 10.0 2.4 10.0 L2.65 10.0 2.85 9.5 Q3.2 8.85 3.8 8.6 L3.8 8.45 4.25 8.45 4.4 8.4 M10.35 8.45 Q10.35 6.65 11.75 6.9 13.15 7.2 13.15 8.6 L12.7 9.5 Q12.2 9.95 11.45 9.95 10.65 9.95 10.45 9.25 L10.35 8.45 M-3.85 11.95 L-3.75 12.2 -3.65 12.95 -3.95 13.45 Q-4.15 13.65 -4.45 13.7 L-3.85 11.95" fill="#f4c398" fill-rule="evenodd" stroke="none"/>
      <path d="M6.15 18.45 L6.5 18.75 Q6.75 17.55 7.8 17.6 9.1 17.6 9.25 19.65 L9.3 19.8 9.55 19.55 8.65 22.15 7.9 23.85 8.25 24.65 Q8.45 25.85 8.3 27.15 L7.65 30.1 3.45 29.15 1.05 30.5 -1.2 31.0 -2.55 31.15 -3.75 30.1 Q0.45 23.7 6.15 18.45 M-8.9 14.45 L-7.25 14.2 Q-5.95 14.2 -5.3 15.8 L-5.15 16.15 -5.5 17.65 Q-5.55 18.25 -8.05 22.15 L-9.85 25.15 -9.85 26.4 -10.3 26.55 -10.45 26.4 -10.7 27.85 -11.15 27.65 -11.2 27.0 -11.2 20.05 -11.3 18.65 -10.3 18.05 -9.85 17.9 -10.25 16.3 Q-10.25 14.9 -8.9 14.45 M-7.05 9.05 Q-6.25 9.0 -6.25 9.85 -6.25 10.7 -7.1 10.7 -7.95 10.7 -7.85 9.85 -7.85 9.1 -7.05 9.05 M-4.45 13.7 L-4.85 13.75 Q-5.9 13.75 -5.85 12.5 -5.85 11.45 -4.6 11.45 -4.1 11.45 -3.85 11.95 L-4.45 13.7" fill="#ebbb98" fill-rule="evenodd" stroke="none"/>
    </g>
    <g id="sprite8" transform="matrix(1.0, 0.0, 0.0, 1.0, 12.6, 6.35)">
      <use ffdec:characterId="1759" ffdec:characterName="game_fla.lowerleg2_582" height="78.8" id="lowerLeg2" transform="matrix(1.0, 0.0, 0.0, 1.0, -12.6, -6.35)" width="41.95" xlink:href="#sprite9"/>
    </g>
    <g id="sprite9" transform="matrix(1.0, 0.0, 0.0, 1.0, 12.25, 38.15)">
      <use ffdec:characterId="1754" height="52.75" transform="matrix(1.0, 0.0, 0.0, 1.0, -12.25, -38.15)" width="21.7" xlink:href="#shape5"/>
      <use ffdec:characterId="1755" height="28.65" transform="matrix(1.0, 0.0, 0.0, 1.0, -11.3, 12.0)" width="41.0" xlink:href="#shape6"/>
      <use ffdec:characterId="1081" height="100.0" id="shape" transform="matrix(0.2, 0.0, 0.0, 0.7601, -9.9998, -38.0028)" width="100.0" xlink:href="#sprite2"/>
    </g>
    <g id="shape5" transform="matrix(1.0, 0.0, 0.0, 1.0, 12.25, 38.15)">
      <path d="M3.35 -35.7 L4.7 -37.65 6.4 -37.7 Q7.95 -36.55 8.85 -34.1 L9.2 -33.0 9.45 -28.95 8.75 -30.85 8.15 -30.8 7.25 -31.4 3.85 -28.9 3.7 -28.85 2.85 -30.3 2.7 -33.1 3.35 -35.7 M8.65 -17.25 L8.75 -17.9 8.85 -16.8 8.4 -13.1 8.2 -7.0 8.0 2.6 Q7.5 3.85 7.5 6.7 L7.6 7.75 7.45 8.3 7.35 10.55 7.45 12.05 7.25 13.5 7.2 14.55 7.2 14.6 -7.85 14.6 -8.0 13.5 -8.0 13.4 -8.35 11.65 -8.35 11.45 -8.4 11.2 -9.15 6.0 -10.75 0.45 Q-11.3 -2.05 -11.55 -5.65 -12.25 -10.05 -12.25 -15.2 L-11.95 -19.15 Q-11.7 -23.15 -11.75 -25.1 -11.85 -28.15 -10.55 -30.1 -8.25 -33.65 -5.0 -33.45 L-3.4 -33.15 -1.2 -33.0 Q-0.55 -32.75 -1.25 -32.25 L-1.4 -32.15 -1.9 -31.85 -2.05 -31.75 -2.2 -31.65 -2.2 -31.6 -3.15 -30.1 -0.1 -27.4 Q1.2 -23.1 2.8 -18.85 L3.45 -17.1 3.6 -15.8 3.65 -6.55 3.4 -3.9 3.8 -2.7 4.2 6.15 4.45 7.05 4.6 6.1 5.1 1.45 5.5 -2.45 5.85 -6.85 5.85 -6.9 Q7.5 -10.5 8.2 -14.5 L8.55 -16.7 8.65 -17.25 M-1.6 -9.15 L-1.8 -9.25 -3.1 -15.2 -6.2 -10.85 -7.95 -8.45 -9.95 -8.95 -8.7 -4.8 -7.6 -0.55 -6.75 3.15 -6.55 4.3 Q-6.1 6.45 -4.95 8.35 L-4.7 8.8 -4.65 8.95 -4.6 9.0 Q-3.5 6.25 -3.2 2.65 L-3.2 0.55 -3.2 -1.2 -2.85 -5.6 -2.8 -6.3 -2.7 -6.3 -2.05 -8.25 -1.6 -9.15" fill="#f4c398" fill-rule="evenodd" stroke="none"/>
      <path d="M9.45 -28.95 L9.4 -23.0 8.65 -17.25 8.55 -16.7 8.2 -14.5 Q7.5 -10.5 5.85 -6.9 L5.85 -6.85 5.5 -2.45 5.1 1.45 4.6 6.1 4.45 7.05 4.2 6.15 3.8 -2.7 3.4 -3.9 3.65 -6.55 3.6 -15.8 3.45 -17.1 2.8 -18.85 Q1.2 -23.1 -0.1 -27.4 L-3.15 -30.1 -2.2 -31.6 -2.2 -31.65 -2.05 -31.75 -1.9 -31.85 -1.4 -32.15 -1.25 -32.25 Q-0.55 -32.75 -1.2 -33.0 L-0.1 -34.3 2.25 -36.6 3.3 -36.15 3.35 -35.7 2.7 -33.1 2.85 -30.3 3.7 -28.85 3.85 -28.9 7.25 -31.4 8.15 -30.8 8.75 -30.85 9.45 -28.95 M-1.6 -9.15 L-2.05 -8.25 -2.7 -6.3 -2.8 -6.3 -2.85 -5.6 -3.2 -1.2 -3.2 0.55 -3.2 2.65 Q-3.5 6.25 -4.6 9.0 L-4.65 8.95 -4.7 8.8 -4.95 8.35 Q-6.1 6.45 -6.55 4.3 L-6.75 3.15 -7.6 -0.55 -8.7 -4.8 -9.95 -8.95 -7.95 -8.45 -6.2 -10.85 -3.1 -15.2 -1.8 -9.25 -1.6 -9.15" fill="#ebbb98" fill-rule="evenodd" stroke="none"/>
    </g>
    <g id="shape6" transform="matrix(1.0, 0.0, 0.0, 1.0, 11.3, -12.0)">
      <path d="M4.3 22.95 L4.4 23.15 4.2 23.7 4.3 22.95 M24.9 37.3 L24.35 37.85 24.7 37.6 24.9 37.3" fill="#ffe6e6" fill-rule="evenodd" stroke="none"/>
      <path d="M4.55 12.0 L7.95 12.0 7.9 12.7 7.85 14.45 Q7.85 16.45 9.2 19.95 L9.75 21.25 9.95 22.0 Q10.85 24.15 12.9 25.65 15.75 27.75 23.8 30.55 27.45 31.8 28.6 33.75 L28.6 34.0 28.6 35.0 Q28.7 35.65 29.5 35.95 L29.55 35.95 29.7 36.65 29.55 37.75 27.9 39.05 26.4 39.6 26.45 39.55 Q27.3 38.85 27.3 37.15 27.3 34.75 23.75 32.85 18.75 30.7 15.9 29.35 12.05 27.55 9.5 25.2 L9.15 24.65 Q7.85 22.75 6.9 22.1 4.5 18.45 4.5 13.75 L4.55 12.0 M17.75 40.55 L13.4 40.0 12.35 39.4 9.05 38.2 Q6.15 37.3 4.65 37.3 L4.15 37.3 3.2 37.55 2.3 37.5 -1.4 37.8 -0.2 37.35 2.55 36.15 6.45 36.15 Q7.75 36.6 12.2 38.8 15.2 40.1 17.75 40.55 M-7.75 37.3 Q-9.15 37.0 -9.8 35.75 L-10.15 35.4 -11.15 33.4 -11.3 31.7 Q-11.3 30.3 -10.35 27.95 -9.6 26.0 -9.45 24.55 L-8.65 22.15 -8.65 18.3 -8.6 17.8 -9.0 14.9 -9.15 14.15 -9.3 12.8 -8.9 12.8 -6.15 12.65 Q-5.25 16.35 -5.25 18.8 -5.25 22.9 -6.3 26.55 L-6.45 26.7 -8.95 29.95 Q-9.5 30.95 -9.5 32.7 L-8.95 35.1 Q-8.55 36.15 -7.85 36.7 L-7.75 37.3" fill="#f9f9f9" fill-rule="evenodd" stroke="none"/>
      <path d="M-6.15 12.65 L-3.45 12.45 3.3 12.0 4.55 12.0 4.5 13.75 Q4.5 18.45 6.9 22.1 7.85 22.75 9.15 24.65 L9.5 25.2 Q12.05 27.55 15.9 29.35 18.75 30.7 23.75 32.85 27.3 34.75 27.3 37.15 27.3 38.85 26.45 39.55 L26.4 39.6 26.05 39.65 24.3 39.9 23.1 40.4 20.55 40.65 17.75 40.55 Q15.2 40.1 12.2 38.8 7.75 36.6 6.45 36.15 L2.55 36.15 -0.2 37.35 -1.4 37.8 -1.45 37.8 -3.6 37.95 Q-5.5 37.95 -6.75 37.35 L-6.9 37.35 -7.75 37.3 -7.85 36.7 Q-8.55 36.15 -8.95 35.1 L-9.5 32.7 Q-9.5 30.95 -8.95 29.95 L-6.45 26.7 -6.3 26.55 Q-5.25 22.9 -5.25 18.8 -5.25 16.35 -6.15 12.65 M4.3 22.95 L4.2 23.7 4.4 23.15 4.3 22.95 M24.9 37.3 L24.7 37.6 24.35 37.85 24.9 37.3 M-3.35 24.1 L-3.25 23.2 Q-3.25 22.6 -3.7 22.0 -4.25 21.3 -4.55 22.6 L-4.6 23.6 -4.7 24.55 -5.55 26.7 -5.85 28.55 -5.75 29.85 Q-5.35 31.1 -3.85 31.1 L-1.65 31.4 -1.1 31.2 -0.8 30.75 -1.1 30.2 -1.1 30.1 Q-1.1 29.85 -2.6 29.5 -3.65 29.25 -3.95 28.4 L-4.1 27.75 -3.55 25.5 -3.25 24.3 -3.35 24.1" fill="#eaeaea" fill-rule="evenodd" stroke="none"/>
      <path d="M-3.35 24.1 L-3.25 24.3 -3.55 25.5 -4.1 27.75 -3.95 28.4 Q-3.65 29.25 -2.6 29.5 -1.1 29.85 -1.1 30.1 L-1.1 30.2 -0.8 30.75 -1.1 31.2 -1.65 31.4 -3.85 31.1 Q-5.35 31.1 -5.75 29.85 L-5.85 28.55 -5.55 26.7 -4.7 24.55 -4.6 23.6 -4.55 22.6 Q-4.25 21.3 -3.7 22.0 -3.25 22.6 -3.25 23.2 L-3.35 24.1" fill="#c7c7c7" fill-rule="evenodd" stroke="none"/>
    </g>
    <g id="sprite10" transform="matrix(1.0, 0.0, 0.0, 1.0, 29.3, 76.5)">
      <use ffdec:characterId="1776" ffdec:characterName="game_fla.head_584" height="72.25" id="head" transform="matrix(1.0, 0.0, 0.0, 1.0, -29.3, -76.5)" width="55.85" xlink:href="#sprite11"/>
    </g>
    <g id="sprite11" transform="matrix(1.0, 0.0, 0.0, 1.0, 38.0, 35.8)">
      <use ffdec:characterId="1763" height="30.4" transform="matrix(1.0, 0.0, 0.0, 1.0, -15.6, 6.05)" width="26.5" xlink:href="#sprite12"/>
      <use ffdec:characterId="1765" height="34.8" transform="matrix(1.0, 0.0, 0.0, 1.0, -15.1, -17.85)" width="31.5" xlink:href="#sprite13"/>
      <use ffdec:characterId="1111" height="100.0" id="shape" transform="matrix(0.34, 0.0, 0.0, 0.34, -17.0006, -17.0021)" width="100.0" xlink:href="#sprite14"/>
    </g>
    <g id="sprite12" transform="matrix(1.0, 0.0, 0.0, 1.0, 12.1, 12.4)">
      <use ffdec:characterId="1762" height="30.4" transform="matrix(1.0, 0.0, 0.0, 1.0, -12.1, -12.4)" width="26.5" xlink:href="#shape7"/>
    </g>
    <g id="shape7" transform="matrix(1.0, 0.0, 0.0, 1.0, 12.1, 12.4)">
      <path d="M9.65 3.1 L9.45 3.25 8.5 1.4 Q7.9 -0.25 6.65 -1.6 L4.05 -4.75 2.6 -7.05 Q1.1 -9.2 0.9 -11.9 L1.35 -11.0 3.0 -7.85 Q3.95 -5.9 5.9 -5.0 9.15 -3.6 12.5 -2.35 L14.4 -1.7 Q12.25 -1.8 10.95 -0.1 L10.7 0.35 9.65 3.1" fill="#c79b68" fill-rule="evenodd" stroke="none"/>
      <path d="M0.9 -11.9 Q1.1 -9.2 2.6 -7.05 L4.05 -4.75 6.65 -1.6 Q7.9 -0.25 8.5 1.4 L9.45 3.25 9.65 3.1 9.05 8.75 8.2 13.65 Q7.95 14.75 7.3 15.75 L6.4 16.8 5.2 17.5 2.85 18.0 Q0.0 17.75 -2.4 16.75 -5.15 15.5 -7.6 13.9 L-9.6 12.55 Q-12.3 11.0 -11.95 7.75 L-11.8 7.25 -12.1 6.8 -8.75 -1.55 Q-8.3 -2.7 -8.0 -4.05 -7.5 -6.0 -7.5 -8.0 L-7.4 -10.15 -6.55 -9.0 -6.35 -9.05 -5.75 -9.35 -5.45 -9.25 -5.25 -9.45 -5.2 -10.05 -5.15 -10.9 -4.65 -10.45 -3.85 -10.4 -3.55 -10.0 -2.9 -10.95 -2.15 -10.6 -1.8 -11.5 -0.75 -11.65 -0.75 -12.4 0.9 -11.9" fill="#ffcc99" fill-rule="evenodd" stroke="none"/>
    </g>
    <g id="sprite13" transform="matrix(1.0, 0.0, 0.0, 1.0, 15.45, 18.15)">
      <use ffdec:characterId="1764" height="34.8" transform="matrix(1.0, 0.0, 0.0, 1.0, -15.45, -18.15)" width="31.5" xlink:href="#shape8"/>
    </g>
    <g id="shape8" transform="matrix(1.0, 0.0, 0.0, 1.0, 15.45, 18.15)">
      <path d="M-14.7 -0.3 L-14.7 -2.2 -15.45 -3.25 -14.85 -6.85 -15.35 -7.2 -15.2 -7.8 Q-14.5 -9.4 -13.05 -10.55 L-12.8 -10.8 -9.35 -14.1 Q-7.45 -15.5 -5.25 -16.1 L-2.0 -16.8 -1.6 -17.3 0.2 -17.2 0.7 -18.0 1.25 -18.15 3.25 -17.25 Q3.95 -16.9 4.7 -16.7 L4.8 -16.7 5.0 -16.75 5.2 -16.75 6.35 -15.9 6.5 -16.05 7.0 -16.05 7.65 -15.7 7.65 -13.7 7.5 -13.0 6.95 -12.95 7.35 -13.25 2.7 -15.0 1.3 -14.2 0.9 -14.75 0.45 -15.2 0.25 -15.15 -1.1 -14.85 -1.15 -15.05 -1.75 -15.2 -2.2 -15.1 -5.4 -14.25 -5.8 -13.55 -5.8 -13.45 -4.3 -13.95 -3.4 -13.8 -4.15 -12.95 -2.6 -13.2 -2.3 -12.85 -1.4 -13.35 -0.8 -13.3 -0.55 -12.85 -1.15 -11.3 -1.1 -11.3 0.5 -12.4 0.65 -12.35 0.75 -12.05 1.7 -11.3 1.8 -11.25 1.35 -10.95 0.3 -10.0 2.0 -6.75 1.4 -4.9 1.3 -5.7 -1.0 -6.35 -2.1 -8.0 -2.95 -8.1 -3.5 -8.95 -4.05 -9.0 -4.65 -9.4 -4.7 -9.3 -4.8 -10.0 -5.65 -9.45 -6.65 -8.05 -7.35 -9.6 -8.15 -8.7 -8.75 -9.0 -10.5 -7.25 -9.95 -9.0 -10.0 -9.05 -12.0 -6.4 -12.95 -8.05 Q-13.4 -5.6 -13.2 -3.2 L-14.7 -0.3 M7.25 -15.65 L7.05 -15.5 6.95 -15.25 7.05 -14.95 Q7.15 -14.85 7.25 -14.85 7.35 -14.85 7.45 -14.95 L7.55 -15.25 7.45 -15.5 7.25 -15.65 M5.9 -15.6 L5.9 -16.2 4.85 -15.7 Q5.05 -15.15 5.75 -15.2 L5.9 -15.6 M2.05 -17.6 L1.15 -17.45 1.4 -17.05 -1.2 -17.0 -2.05 -15.95 -0.15 -15.85 0.0 -16.0 0.15 -16.2 1.6 -16.2 2.0 -16.45 2.35 -16.15 3.65 -16.3 Q3.05 -17.35 2.05 -17.6 M12.5 -3.25 L10.5 -3.05 9.2 -2.7 8.35 -2.4 Q7.9 -2.45 7.45 -2.1 L7.35 -2.05 7.3 -2.15 Q7.3 -2.5 8.3 -2.75 L8.35 -2.75 Q8.5 -3.15 9.2 -3.25 L10.25 -3.35 10.4 -3.4 10.5 -3.4 10.65 -3.8 11.4 -3.6 Q12.35 -3.75 12.5 -3.25 M-7.05 -14.9 L-7.3 -14.65 -6.8 -14.45 -5.25 -14.7 Q-4.2 -15.05 -3.65 -15.9 L-5.45 -15.5 -7.05 -14.9 M-8.0 -14.45 L-9.85 -13.1 -10.75 -12.15 -10.05 -12.1 -9.25 -12.6 -7.9 -13.8 -7.5 -14.6 -8.0 -14.45" fill="#8d817a" fill-rule="evenodd" stroke="none"/>
      <path d="M2.05 -17.6 Q3.05 -17.35 3.65 -16.3 L2.35 -16.15 2.0 -16.45 1.6 -16.2 0.15 -16.2 0.0 -16.0 -0.15 -15.85 -2.05 -15.95 -1.2 -17.0 1.4 -17.05 1.15 -17.45 2.05 -17.6 M5.9 -15.6 L5.75 -15.2 Q5.05 -15.15 4.85 -15.7 L5.9 -16.2 5.9 -15.6 M7.25 -15.65 L7.45 -15.5 7.55 -15.25 7.45 -14.95 Q7.35 -14.85 7.25 -14.85 7.15 -14.85 7.05 -14.95 L6.95 -15.25 7.05 -15.5 7.25 -15.65 M-8.0 -14.45 L-7.5 -14.6 -7.9 -13.8 -9.25 -12.6 -10.05 -12.1 -10.75 -12.15 -9.85 -13.1 -8.0 -14.45 M-7.05 -14.9 L-5.45 -15.5 -3.65 -15.9 Q-4.2 -15.05 -5.25 -14.7 L-6.8 -14.45 -7.3 -14.65 -7.05 -14.9" fill="#cfcac7" fill-rule="evenodd" stroke="none"/>
      <path d="M-4.6 5.85 L-4.6 6.6 -5.65 6.75 -6.0 7.65 -6.75 7.3 -7.4 8.25 -7.7 7.85 -8.5 7.8 -9.0 7.35 -9.05 8.2 -9.05 8.55 -9.1 8.75 -9.3 9.0 -9.6 8.8 -9.65 8.75 -10.2 9.2 -10.4 9.25 -10.75 8.9 Q-11.45 7.85 -11.45 6.75 L-12.6 7.2 Q-12.9 4.35 -14.4 1.85 L-14.25 1.1 -14.75 0.65 -14.7 -0.3 -13.2 -3.2 Q-13.4 -5.6 -12.95 -8.05 L-12.0 -6.4 -10.0 -9.05 -9.95 -9.0 -10.5 -7.25 -8.75 -9.0 -8.15 -8.7 -7.35 -9.6 -6.65 -8.05 -5.65 -9.45 -4.8 -10.0 -4.7 -9.3 -4.65 -9.4 -4.05 -9.0 -3.5 -8.95 -2.95 -8.1 -2.1 -8.0 -1.0 -6.35 1.3 -5.7 1.4 -4.9 1.1 -3.8 1.0 -3.75 Q0.35 -3.65 0.25 -3.0 L0.15 -2.55 0.05 -2.3 -0.3 -2.1 Q-0.6 -0.9 -0.3 0.5 -0.2 1.15 -0.4 1.8 L-0.5 1.85 -0.55 1.85 -1.1 1.2 -2.5 1.25 Q-2.5 -1.55 -4.95 -3.35 -6.6 -3.4 -7.5 -2.0 -8.25 -0.9 -7.75 0.45 L-6.85 2.55 -6.2 3.65 -6.3 4.2 -5.55 5.45 -4.6 5.85 M1.8 -11.25 L1.7 -11.3 0.75 -12.05 0.65 -12.35 0.5 -12.4 -1.1 -11.3 -1.15 -11.3 -0.55 -12.85 -0.8 -13.3 -1.4 -13.35 -2.3 -12.85 -2.6 -13.2 -4.15 -12.95 -3.4 -13.8 -4.3 -13.95 -5.8 -13.45 -5.8 -13.55 -5.4 -14.25 -2.2 -15.1 -1.75 -15.2 -1.15 -15.05 -1.1 -14.85 0.25 -15.15 0.45 -15.2 0.9 -14.75 1.3 -14.2 2.7 -15.0 7.35 -13.25 6.95 -12.95 6.25 -12.65 6.2 -12.4 5.9 -12.2 Q3.75 -12.35 1.8 -11.25 M6.8 -1.3 L6.7 -1.3 6.65 -1.4 7.35 -2.05 7.45 -2.1 Q7.9 -2.45 8.35 -2.4 L9.2 -2.7 10.5 -3.05 12.5 -3.25 12.6 -3.25 12.9 -3.0 Q12.9 -2.75 12.0 -2.45 L11.8 -2.4 11.75 -2.35 11.15 -2.25 10.55 -2.1 10.3 -2.05 10.0 -2.0 9.95 -1.85 9.2 -1.75 8.45 -1.65 7.75 -1.65 6.8 -1.3" fill="#615752" fill-rule="evenodd" stroke="none"/>
      <path d="M7.65 -13.7 L9.5 -13.05 9.55 -13.0 Q10.1 -12.85 10.7 -12.1 L11.2 -11.65 11.4 -11.25 12.0 -10.45 12.45 -8.65 13.45 -5.65 13.8 -4.95 13.9 -3.8 13.85 -3.6 13.85 -3.5 13.8 -3.35 13.75 -2.9 13.7 -2.85 13.75 -2.75 13.3 -2.3 13.35 -2.75 13.3 -3.05 Q13.0 -3.45 12.6 -3.25 L12.5 -3.25 Q12.35 -3.75 11.4 -3.6 L10.65 -3.8 10.5 -3.4 10.4 -3.4 10.25 -3.35 9.2 -3.25 Q8.5 -3.15 8.35 -2.75 L8.3 -2.75 Q7.3 -2.5 7.3 -2.15 L7.35 -2.05 6.65 -1.4 6.7 -1.3 6.8 -1.3 6.65 -1.05 Q6.8 -0.6 7.25 -0.45 L7.95 0.55 7.75 1.7 Q7.95 2.4 8.2 2.05 L10.3 1.15 11.55 0.85 12.3 0.3 13.45 -1.0 13.15 -1.3 13.1 -1.55 13.1 -1.6 13.45 -1.0 13.95 -0.45 Q14.7 0.2 15.05 1.4 L15.1 1.7 15.9 4.35 15.95 4.35 16.0 4.65 15.95 4.8 16.05 5.2 15.65 5.5 12.0 5.75 13.55 7.55 13.55 7.65 13.7 7.75 13.65 7.85 13.75 8.0 11.85 9.3 13.8 9.1 14.1 8.95 13.85 8.15 14.15 8.6 14.15 8.7 14.15 9.15 14.2 9.15 14.2 9.2 14.65 9.95 14.4 10.3 12.3 10.6 12.95 11.75 13.1 12.25 13.25 12.25 13.2 12.65 13.4 13.75 13.6 14.3 12.85 15.35 12.35 15.55 10.75 16.45 10.65 16.5 10.4 16.45 9.6 16.15 9.45 16.05 8.65 15.8 7.8 15.55 6.05 14.9 4.6 14.3 2.75 13.6 Q1.95 13.4 1.3 12.95 L0.15 11.8 -0.75 10.35 -1.6 8.85 -2.5 7.25 -2.95 6.35 -4.6 5.85 -5.55 5.45 -6.3 4.2 -6.2 3.65 -6.85 2.55 -7.75 0.45 Q-8.25 -0.9 -7.5 -2.0 -6.6 -3.4 -4.95 -3.35 -2.5 -1.55 -2.5 1.25 L-1.1 1.2 -0.55 1.85 -0.5 1.85 -0.4 1.8 Q-0.2 1.15 -0.3 0.5 -0.6 -0.9 -0.3 -2.1 L0.05 -2.3 0.15 -2.55 0.25 -3.0 Q0.35 -3.65 1.0 -3.75 L1.1 -3.8 1.4 -4.9 2.0 -6.75 0.3 -10.0 1.35 -10.95 1.8 -11.25 Q3.75 -12.35 5.9 -12.2 L6.2 -12.4 6.25 -12.65 6.95 -12.95 7.5 -13.0 7.65 -13.7 M13.55 11.4 L13.55 11.5 13.5 11.6 13.55 11.4 M4.8 -1.05 L4.9 -0.15 5.0 0.15 Q5.5 0.1 5.65 -1.1 5.75 -2.3 7.7 -3.5 L7.5 -3.6 6.2 -3.05 6.0 -3.2 5.9 -3.25 4.7 -2.3 4.2 -2.45 3.55 -1.7 3.8 -1.55 4.0 -1.35 Q4.25 -1.1 4.55 -1.05 L4.8 -1.05 M10.4 -7.55 L12.75 -7.55 12.55 -8.1 10.4 -7.55 M13.45 -5.65 L13.15 -6.25 10.55 -5.65 13.45 -5.65 M-5.2 -2.45 L-5.85 -2.5 -6.9 -1.35 -6.7 -0.2 -6.55 -0.05 -6.35 -0.05 -6.3 -0.95 -5.5 -1.3 -5.4 -1.05 -5.65 1.2 -4.95 1.8 Q-4.45 2.3 -4.3 2.75 L-3.95 3.05 -3.95 2.95 -4.15 2.15 -4.65 0.95 -4.4 -1.75 -5.2 -2.45 M11.9 4.65 Q12.45 4.25 12.95 4.3 L12.5 3.75 12.1 3.45 Q11.6 3.75 11.2 4.3 L10.4 5.8 9.65 7.0 Q8.75 8.05 8.25 9.2 L7.95 10.55 8.0 10.9 8.0 11.15 8.5 9.8 Q8.85 8.55 9.8 7.7 L11.3 6.2 Q11.85 5.55 11.9 5.8 L11.85 5.15 11.9 4.65 M2.5 3.7 L1.3 4.0 Q3.45 4.55 3.85 5.25 4.25 5.9 4.2 7.9 4.7 7.8 4.95 6.95 L5.35 4.45 4.0 3.95 Q2.9 3.5 2.5 3.7 M10.55 16.55 L10.35 16.65 10.3 16.65 10.55 16.55" fill="#ffcc99" fill-rule="evenodd" stroke="none"/>
      <path d="M13.75 8.0 L13.75 7.95 13.8 8.0 13.85 8.15 14.1 8.95 13.8 9.1 11.85 9.3 13.75 8.0 M4.8 -1.05 L4.55 -1.05 Q4.25 -1.1 4.0 -1.35 L3.8 -1.55 3.55 -1.7 4.2 -2.45 4.7 -2.3 5.9 -3.25 6.0 -3.2 6.2 -3.05 7.5 -3.6 7.7 -3.5 Q5.75 -2.3 5.65 -1.1 5.5 0.1 5.0 0.15 L4.9 -0.15 4.8 -1.05 M10.4 -7.55 L12.55 -8.1 12.75 -7.55 10.4 -7.55 M13.45 -5.65 L10.55 -5.65 13.15 -6.25 13.45 -5.65 M11.9 4.65 L11.85 5.15 11.9 5.8 Q11.85 5.55 11.3 6.2 L9.8 7.7 Q8.85 8.55 8.5 9.8 L8.0 11.15 8.0 10.9 7.95 10.55 8.25 9.2 Q8.75 8.05 9.65 7.0 L10.4 5.8 11.2 4.3 Q11.6 3.75 12.1 3.45 L12.5 3.75 12.95 4.3 Q12.45 4.25 11.9 4.65 M2.5 3.7 Q2.9 3.5 4.0 3.95 L5.35 4.45 4.95 6.95 Q4.7 7.8 4.2 7.9 4.25 5.9 3.85 5.25 3.45 4.55 1.3 4.0 L2.5 3.7" fill="#ebbb98" fill-rule="evenodd" stroke="none"/>
      <path d="M13.3 -2.3 L13.1 -1.6 13.1 -1.55 13.15 -1.3 13.45 -1.0 12.3 0.3 11.55 0.85 10.3 1.15 8.2 2.05 Q7.95 2.4 7.75 1.7 L7.95 0.55 7.25 -0.45 Q6.8 -0.6 6.65 -1.05 L6.8 -1.3 7.75 -1.65 8.45 -1.65 9.2 -1.75 9.95 -1.85 10.0 -2.0 10.3 -2.05 10.55 -2.1 11.15 -2.25 11.75 -2.35 11.8 -2.4 12.0 -2.45 Q12.9 -2.75 12.9 -3.0 L12.6 -3.25 Q13.0 -3.45 13.3 -3.05 L13.35 -2.75 13.3 -2.3 M16.05 5.2 L16.0 5.55 15.9 6.15 13.9 6.4 13.7 7.75 13.55 7.55 12.0 5.75 15.65 5.5 16.05 5.2 M14.4 10.3 L14.5 10.2 14.25 10.6 13.55 11.4 13.5 11.6 13.25 12.15 13.25 12.25 13.1 12.25 12.95 11.75 12.3 10.6 14.4 10.3 M8.65 -0.2 L8.6 -0.15 10.0 -0.3 10.6 0.4 Q11.0 0.75 10.95 0.3 L10.95 0.2 11.4 -0.6 11.5 -0.8 11.8 -1.3 11.6 -1.7 10.7 -1.25 9.25 -0.6 9.15 -0.55 8.8 -0.45 8.65 -0.2 M-5.2 -2.45 L-4.4 -1.75 -4.65 0.95 -4.15 2.15 -3.95 2.95 -3.95 3.05 -4.3 2.75 Q-4.45 2.3 -4.95 1.8 L-5.65 1.2 -5.4 -1.05 -5.5 -1.3 -6.3 -0.95 -6.35 -0.05 -6.55 -0.05 -6.7 -0.2 -6.9 -1.35 -5.85 -2.5 -5.2 -2.45" fill="#c79b68" fill-rule="evenodd" stroke="none"/>
      <path d="M8.65 -0.2 L8.8 -0.45 9.15 -0.55 9.25 -0.6 10.7 -1.25 11.6 -1.7 11.8 -1.3 11.5 -0.8 11.4 -0.6 10.95 0.2 10.95 0.3 Q11.0 0.75 10.6 0.4 L10.0 -0.3 8.6 -0.15 8.65 -0.2" fill="#000000" fill-rule="evenodd" stroke="none"/>
    </g>
    <g id="sprite14" transform="matrix(1.0, 0.0, 0.0, 1.0, 50.0, 50.0)">
      <use ffdec:characterId="1110" height="100.0" transform="matrix(1.0, 0.0, 0.0, 1.0, -50.0, -50.0)" width="100.0" xlink:href="#shape9"/>
    </g>
    <g id="shape9" transform="matrix(1.0, 0.0, 0.0, 1.0, 50.0, 50.0)">
      <path d="M35.35 -35.35 Q50.0 -20.7 50.0 0.0 50.0 20.7 35.35 35.35 20.7 50.0 0.0 50.0 -20.7 50.0 -35.35 35.35 -50.0 20.7 -50.0 0.0 -50.0 -20.7 -35.35 -35.35 -20.7 -50.0 0.0 -50.0 20.7 -50.0 35.35 -35.35 Z" fill="none" stroke="#9900ff" stroke-linecap="round" stroke-linejoin="round" stroke-width="0.05"/>
    </g>
    <g id="sprite15" transform="matrix(1.0, 0.0, 0.0, 1.0, 30.65, 34.9)">
      <use ffdec:characterId="1779" height="33.4" id="mc" transform="matrix(1.045, 0.0, 0.0, 1.0, -22.9934, -15.9)" width="43.05" xlink:href="#sprite16"/>
      <use ffdec:characterId="1081" height="100.0" id="shape" transform="matrix(0.44, 0.0, 0.0, 0.33, -22.0001, -16.5001)" width="100.0" xlink:href="#sprite2"/>
    </g>
    <g id="sprite16" transform="matrix(1.0, 0.0, 0.0, 1.0, 18.75, 30.6)">
      <use ffdec:characterId="1778" height="33.4" transform="matrix(1.0, 0.0, 0.0, 1.0, -18.75, -30.6)" width="43.05" xlink:href="#shape10"/>
    </g>
    <g id="shape10" transform="matrix(1.0, 0.0, 0.0, 1.0, 18.75, 30.6)">
      <path d="M10.25 1.95 Q14.6 0.25 14.4 -4.95 L14.35 -10.55 14.45 -15.45 14.65 -18.35 15.1 -24.5 Q15.1 -25.1 13.4 -26.0 11.8 -26.8 11.2 -26.8 L10.25 -26.6 10.15 -26.65 10.15 -26.7 Q11.7 -29.45 20.8 -29.45 L23.8 -28.85 23.8 -28.55 23.8 -28.35 23.85 -27.3 23.85 -26.85 24.2 -22.0 24.1 -21.8 24.2 -21.3 24.25 -21.05 24.25 -20.9 24.3 -19.1 24.2 -18.6 24.1 -18.05 23.75 -15.45 22.8 -10.7 22.75 -10.25 22.65 -10.05 22.55 -9.55 Q19.5 1.8 13.15 1.8 L12.65 1.75 10.25 1.95 M-10.25 -30.05 Q-13.5 -22.35 -13.75 -15.45 L-13.8 -14.2 Q-13.8 -12.25 -13.2 -10.05 -11.7 -4.6 -6.45 2.15 -9.0 1.75 -11.0 0.85 -15.1 -1.1 -16.8 -3.95 L-17.9 -6.05 Q-18.5 -7.55 -18.65 -9.1 L-18.7 -9.95 -18.7 -10.6 -18.65 -10.6 -18.7 -12.5 -18.5 -15.45 -18.4 -16.45 -18.15 -18.1 -16.8 -25.9 -16.6 -26.85 -16.05 -30.05 -10.25 -30.05" fill="#6a502d" fill-rule="evenodd" stroke="none"/>
      <path d="M23.8 -28.85 L20.8 -29.45 Q11.7 -29.45 10.15 -26.7 L10.15 -26.65 10.25 -26.6 11.2 -26.8 Q11.8 -26.8 13.4 -26.0 15.1 -25.1 15.1 -24.5 L14.65 -18.35 14.45 -15.45 14.35 -10.55 14.4 -4.95 Q14.6 0.25 10.25 1.95 L10.1 1.95 6.25 2.65 1.35 2.8 0.8 2.65 -5.85 2.25 -6.45 2.15 Q-11.7 -4.6 -13.2 -10.05 -13.8 -12.25 -13.8 -14.2 L-13.75 -15.45 Q-13.5 -22.35 -10.25 -30.05 L10.35 -30.05 16.15 -30.5 23.05 -30.2 23.8 -28.85" fill="#554024" fill-rule="evenodd" stroke="none"/>
      <path d="M-18.7 -12.5 L-18.65 -10.6 -18.7 -10.6 -18.7 -12.5" fill="#ffffff" fill-rule="evenodd" stroke="none"/>
    </g>
    <g id="sprite17" transform="matrix(1.0, 0.0, 0.0, 1.0, 19.0, 16.6)">
      <use ffdec:characterId="1797" ffdec:characterName="game_fla.upperleg1_599" height="87.8" id="upperLeg1" transform="matrix(1.0, 0.0, 0.0, 1.0, -19.0, -16.6)" width="40.1" xlink:href="#sprite18"/>
      <use ffdec:characterId="1804" height="78.2" id="lowerLegOuter1" transform="matrix(0.9999, 0.0, 0.0, 0.9999, -13.0991, 49.451)" width="42.95" xlink:href="#sprite20"/>
    </g>
    <g id="sprite18" transform="matrix(1.0, 0.0, 0.0, 1.0, 20.45, 44.95)">
      <use ffdec:characterId="1791" height="87.8" transform="matrix(1.0, 0.0, 0.0, 1.0, -20.45, -44.95)" width="40.05" xlink:href="#shape11"/>
      <use ffdec:characterId="1793" height="23.95" transform="matrix(1.0, 0.0, 0.0, 1.0, -4.55, -0.5)" width="17.75" xlink:href="#sprite19"/>
      <use ffdec:characterId="1081" height="100.0" id="shape" transform="matrix(0.3, 0.0, 0.0, 0.82, -14.9994, -40.9988)" width="100.0" xlink:href="#sprite2"/>
    </g>
    <g id="shape11" transform="matrix(1.0, 0.0, 0.0, 1.0, 20.45, 44.95)">
      <path d="M9.45 -42.15 L10.25 -41.8 13.95 -39.75 15.75 -38.0 Q16.85 -36.55 17.0 -34.9 L18.05 -32.75 18.1 -32.35 18.45 -31.8 18.9 -30.15 19.25 -28.5 19.6 -24.1 19.25 -21.45 Q18.5 -22.05 17.65 -22.2 L17.15 -22.25 Q14.9 -22.25 13.55 -21.45 L13.45 -21.45 Q14.1 -22.7 14.1 -23.5 14.1 -25.65 13.75 -26.95 15.0 -27.3 15.0 -28.8 14.95 -29.8 14.55 -30.3 14.1 -30.85 13.35 -30.85 12.0 -30.85 11.7 -29.95 L11.65 -29.0 10.85 -28.85 Q9.55 -28.45 8.55 -27.0 L8.15 -26.35 7.95 -26.75 8.15 -26.9 8.55 -27.7 8.55 -27.75 10.85 -29.25 10.8 -29.55 Q11.35 -30.1 11.5 -30.6 L11.5 -30.85 11.45 -31.3 11.25 -31.4 10.85 -31.5 10.45 -31.4 10.2 -31.25 9.85 -31.0 9.45 -32.15 9.6 -32.35 10.65 -34.5 11.5 -36.85 12.05 -37.85 12.1 -38.35 12.1 -38.45 11.9 -40.35 10.6 -41.4 10.35 -41.6 9.6 -42.1 9.45 -42.15 M-18.9 -27.75 L-20.45 -27.55 Q-20.3 -35.25 -15.65 -39.8 L-14.65 -40.7 -14.3 -41.0 -12.15 -42.35 -13.2 -41.55 -14.4 -39.4 -15.0 -37.85 Q-15.2 -36.95 -16.25 -34.6 L-16.35 -31.6 -16.4 -31.1 -16.35 -31.15 -16.25 -31.25 -16.15 -31.1 Q-15.4 -30.15 -14.6 -27.95 L-14.5 -27.7 Q-15.45 -27.15 -15.7 -26.05 L-15.9 -25.95 -15.95 -26.1 -16.55 -26.9 Q-17.45 -27.75 -18.8 -27.75 L-18.9 -27.75" fill="#6a502d" fill-rule="evenodd" stroke="none"/>
      <path d="M9.45 -42.15 L9.6 -42.1 10.35 -41.6 10.6 -41.4 11.9 -40.35 12.1 -38.45 12.1 -38.35 12.05 -37.85 11.5 -36.85 10.65 -34.5 9.6 -32.35 9.45 -32.15 9.85 -31.0 10.2 -31.25 10.45 -31.4 10.85 -31.5 11.25 -31.4 11.45 -31.3 11.5 -30.85 11.5 -30.6 Q11.35 -30.1 10.8 -29.55 L10.85 -29.25 8.55 -27.75 8.55 -27.7 8.15 -26.9 7.95 -26.75 8.15 -26.35 7.65 -24.8 Q7.2 -25.4 6.45 -25.4 5.2 -25.4 4.5 -24.85 L4.5 -25.35 4.5 -25.95 4.1 -27.3 Q5.95 -27.55 5.95 -29.65 5.95 -32.35 3.7 -32.35 2.75 -32.35 2.2 -31.1 L1.85 -29.9 Q0.6 -30.75 -0.9 -31.05 L-1.65 -31.15 -1.95 -32.5 -2.55 -33.4 -3.1 -33.9 -3.8 -34.1 Q-4.6 -34.1 -4.9 -33.5 -5.4 -33.15 -5.4 -32.35 L-5.25 -31.5 -4.95 -31.0 -5.2 -30.7 -5.75 -30.25 Q-6.15 -30.85 -7.1 -30.95 L-7.15 -31.0 -7.2 -31.0 -7.25 -31.0 Q-9.0 -31.15 -9.0 -29.35 L-8.85 -28.35 Q-8.65 -27.7 -8.15 -27.5 -8.0 -27.0 -7.05 -26.85 L-6.95 -25.7 -6.9 -25.45 -6.95 -25.45 Q-8.85 -24.75 -9.25 -23.3 L-9.5 -23.45 -9.7 -23.55 -11.4 -24.35 -11.35 -24.55 -11.1 -25.75 Q-11.1 -27.15 -11.55 -27.7 -12.2 -28.65 -13.15 -28.2 L-13.6 -28.1 -14.5 -27.7 -14.6 -27.95 Q-15.4 -30.15 -16.15 -31.1 L-16.25 -31.25 -16.35 -31.15 -16.4 -31.1 -16.35 -31.6 -16.25 -34.6 Q-15.2 -36.95 -15.0 -37.85 L-14.4 -39.4 -13.2 -41.55 -12.15 -42.35 -12.05 -42.4 -11.35 -42.8 -9.1 -43.8 Q-5.5 -45.15 -0.6 -44.9 L2.1 -44.5 4.2 -44.05 Q5.35 -43.85 8.9 -42.4 L9.2 -42.25 9.45 -42.15 M5.55 -33.7 Q5.55 -32.75 6.75 -32.75 7.75 -32.75 7.75 -33.35 7.75 -34.75 6.65 -34.85 5.55 -34.95 5.55 -33.7" fill="#554024" fill-rule="evenodd" stroke="none"/>
      <path d="M5.55 -33.7 Q5.55 -34.95 6.65 -34.85 7.75 -34.75 7.75 -33.35 7.75 -32.75 6.75 -32.75 5.55 -32.75 5.55 -33.7 M-9.7 -23.55 L-9.5 -23.45 -9.25 -23.3 Q-8.85 -24.75 -6.95 -25.45 L-6.9 -25.45 -6.95 -25.7 -7.05 -26.85 Q-8.0 -27.0 -8.15 -27.5 -8.65 -27.7 -8.85 -28.35 L-9.0 -29.35 Q-9.0 -31.15 -7.25 -31.0 L-7.2 -31.0 -7.15 -31.0 -7.1 -30.95 Q-6.15 -30.85 -5.75 -30.25 L-5.2 -30.7 -4.95 -31.0 -5.25 -31.5 -5.4 -32.35 Q-5.4 -33.15 -4.9 -33.5 -4.6 -34.1 -3.8 -34.1 L-3.1 -33.9 -2.55 -33.4 -1.95 -32.5 -1.65 -31.15 -0.9 -31.05 Q0.6 -30.75 1.85 -29.9 L2.2 -31.1 Q2.75 -32.35 3.7 -32.35 5.95 -32.35 5.95 -29.65 5.95 -27.55 4.1 -27.3 L4.5 -25.95 3.65 -24.6 3.5 -24.15 Q2.7 -21.45 2.7 -19.5 2.7 -18.3 3.25 -17.25 L3.75 -15.95 3.65 -15.4 3.65 -15.3 3.55 -15.25 3.3 -14.95 2.6 -14.25 2.55 -13.1 2.55 -11.8 2.6 -11.6 Q2.75 -11.0 3.1 -10.75 L3.4 -9.45 3.55 -8.8 Q2.55 -8.4 1.7 -7.15 L1.35 -6.4 1.05 -8.55 Q0.75 -9.65 0.1 -10.05 L-0.2 -10.2 -1.65 -10.15 Q-2.8 -9.8 -3.75 -8.65 -4.65 -7.6 -4.7 -6.6 L-4.75 -6.8 Q-5.55 -8.35 -7.25 -8.6 L-7.05 -9.9 Q-7.05 -12.95 -9.6 -12.85 L-10.6 -12.7 -11.05 -15.1 -10.7 -18.45 -10.4 -21.7 Q-10.4 -23.45 -9.8 -23.1 L-9.7 -23.55 M-4.15 -18.25 L-4.05 -17.7 -4.2 -18.45 -4.2 -18.35 -4.15 -18.25 M-3.95 -15.15 L-3.6 -15.35 -3.6 -15.4 -3.6 -15.35 -3.95 -15.15 M-2.85 -14.3 L-2.7 -13.4 Q-2.4 -12.45 -1.35 -12.45 0.0 -12.45 0.0 -13.65 0.0 -15.7 -1.4 -15.75 -2.85 -15.85 -2.85 -14.3" fill="#82bfe3" fill-rule="evenodd" stroke="none"/>
      <path d="M8.15 -26.35 L8.55 -27.0 Q9.55 -28.45 10.85 -28.85 L11.65 -29.0 11.7 -29.95 Q12.0 -30.85 13.35 -30.85 14.1 -30.85 14.55 -30.3 L13.15 -27.35 12.95 -26.95 11.05 -23.7 11.45 -22.75 Q11.45 -22.3 10.9 -22.3 L10.65 -22.3 9.5 -23.7 Q7.2 -26.25 7.2 -22.8 7.2 -21.95 7.75 -20.85 L8.55 -19.5 Q9.9 -17.55 9.9 -15.75 9.9 -15.05 9.1 -12.4 L9.05 -12.3 9.05 -12.2 8.65 -11.05 Q6.55 -10.85 6.5 -8.35 5.9 -9.05 4.6 -9.05 L3.55 -8.8 3.4 -9.45 3.1 -10.75 Q2.75 -11.0 2.6 -11.6 L2.55 -11.8 2.55 -13.1 2.6 -14.25 3.3 -14.95 3.55 -15.25 3.65 -15.3 3.65 -15.4 3.75 -15.95 3.25 -17.25 Q2.7 -18.3 2.7 -19.5 2.7 -21.45 3.5 -24.15 L3.65 -24.6 4.5 -25.95 4.5 -25.35 4.5 -24.85 Q5.2 -25.4 6.45 -25.4 7.2 -25.4 7.65 -24.8 L8.15 -26.35 M-9.7 -23.55 L-9.8 -23.1 Q-10.4 -23.45 -10.4 -21.7 L-10.7 -18.45 -11.05 -15.1 -10.6 -12.7 Q-12.1 -12.25 -12.15 -10.45 -14.2 -10.3 -15.15 -9.3 -15.4 -10.15 -15.95 -10.8 L-15.95 -13.9 -14.9 -16.45 -15.15 -17.7 -14.7 -19.15 -14.4 -20.85 Q-14.1 -21.65 -14.1 -22.3 L-14.1 -22.5 -14.15 -22.45 -14.35 -22.6 -14.55 -22.75 -14.7 -22.75 -15.35 -22.9 Q-16.15 -23.05 -16.45 -25.3 L-16.55 -26.9 -15.95 -26.1 -15.9 -25.95 -15.7 -26.05 Q-15.45 -27.15 -14.5 -27.7 L-13.6 -28.1 -13.15 -28.2 Q-12.2 -28.65 -11.55 -27.7 -11.1 -27.15 -11.1 -25.75 L-11.35 -24.55 -11.4 -24.35 -9.7 -23.55 M-15.2 -25.05 L-15.1 -25.35 -15.3 -25.7 -15.2 -25.05" fill="#9ecde9" fill-rule="evenodd" stroke="none"/>
      <path d="M14.55 -30.3 Q14.95 -29.8 15.0 -28.8 15.0 -27.3 13.75 -26.95 14.1 -25.65 14.1 -23.5 14.1 -22.7 13.45 -21.45 L13.55 -21.45 Q14.9 -22.25 17.15 -22.25 L17.65 -22.2 17.5 -18.95 17.45 -18.75 17.4 -17.1 17.4 -16.25 17.35 -15.7 17.35 -15.4 17.15 -12.7 16.85 -12.7 Q16.0 -12.6 15.5 -12.2 14.4 -11.5 14.4 -9.75 L14.85 -8.35 14.55 -8.25 12.05 -7.45 12.05 -8.0 Q12.05 -9.25 11.55 -9.95 11.15 -10.5 10.55 -10.75 L9.3 -11.05 8.65 -11.05 9.05 -12.2 9.05 -12.3 9.1 -12.4 Q9.9 -15.05 9.9 -15.75 9.9 -17.55 8.55 -19.5 L7.75 -20.85 Q7.2 -21.95 7.2 -22.8 7.2 -26.25 9.5 -23.7 L10.65 -22.3 10.9 -22.3 Q11.45 -22.3 11.45 -22.75 L11.05 -23.7 12.95 -26.95 13.15 -27.35 14.55 -30.3 M19.25 -28.5 L18.9 -30.15 19.25 -28.55 19.25 -28.5 M-16.85 -11.65 L-18.4 -12.35 -18.9 -12.45 -18.9 -13.4 -19.15 -15.65 -19.2 -16.15 -19.2 -18.85 -19.2 -20.15 -19.05 -23.05 -19.05 -23.2 -19.05 -23.3 -19.0 -23.9 -19.05 -24.25 -18.9 -27.75 -18.8 -27.75 Q-17.45 -27.75 -16.55 -26.9 L-16.45 -25.3 Q-16.15 -23.05 -15.35 -22.9 L-14.7 -22.75 -14.55 -22.75 -14.35 -22.6 -14.15 -22.45 -14.1 -22.5 -14.1 -22.3 Q-14.1 -21.65 -14.4 -20.85 L-14.7 -19.15 -15.15 -17.7 -14.9 -16.45 -15.95 -13.9 -15.95 -10.8 -16.85 -11.65 M-15.75 -21.3 L-15.8 -21.2 -15.7 -21.3 -15.75 -21.3" fill="#cbe4f3" fill-rule="evenodd" stroke="none"/>
      <path d="M18.3 -17.9 L18.3 -17.85 18.3 -17.8 18.3 -17.9 M-15.2 -25.05 L-15.3 -25.7 -15.1 -25.35 -15.2 -25.05 M-16.85 -7.6 L-16.9 -7.6 -16.85 -7.65 -16.85 -7.6" fill="#ffe6e6" fill-rule="evenodd" stroke="none"/>
      <path d="M-10.6 -12.7 L-9.6 -12.85 Q-7.05 -12.95 -7.05 -9.9 L-7.25 -8.6 Q-5.55 -8.35 -4.75 -6.8 L-4.7 -6.6 Q-4.65 -7.6 -3.75 -8.65 -2.8 -9.8 -1.65 -10.15 L-0.2 -10.2 0.1 -10.05 0.55 -8.45 1.05 -8.55 1.35 -6.4 1.7 -7.15 Q2.55 -8.4 3.55 -8.8 L4.6 -9.05 Q5.9 -9.05 6.5 -8.35 6.55 -10.85 8.65 -11.05 L9.3 -11.05 10.55 -10.75 10.75 -9.7 11.55 -9.95 Q12.05 -9.25 12.05 -8.0 L12.05 -7.45 14.55 -8.25 14.85 -8.35 14.4 -9.75 Q14.4 -11.5 15.5 -12.2 15.55 -10.65 15.25 -9.15 L14.65 -4.7 Q14.05 -3.95 13.1 -4.4 L10.5 -5.15 10.15 -4.9 Q8.65 -5.55 7.45 -6.3 L5.1 -5.75 4.2 -6.4 Q2.5 -6.4 1.3 -5.05 1.0 -4.7 0.5 -4.6 L0.05 -4.45 -1.65 -6.5 -3.0 -6.35 -3.8 -5.55 Q-4.5 -4.8 -5.25 -4.85 L-5.75 -5.05 -6.45 -6.75 -8.35 -7.95 -10.4 -7.6 Q-12.25 -5.0 -15.2 -5.8 -15.65 -5.9 -16.0 -6.15 L-16.35 -7.35 -16.4 -8.25 -16.75 -10.25 -16.85 -11.65 -15.95 -10.8 Q-15.4 -10.15 -15.15 -9.3 -14.2 -10.3 -12.15 -10.45 -12.1 -12.25 -10.6 -12.7 M-2.85 -14.3 Q-2.85 -15.85 -1.4 -15.75 0.0 -15.7 0.0 -13.65 0.0 -12.45 -1.35 -12.45 -2.4 -12.45 -2.7 -13.4 L-2.85 -14.3" fill="#ebbb98" fill-rule="evenodd" stroke="none"/>
      <path d="M-3.8 -5.55 L-3.0 -6.35 -1.65 -6.5 0.05 -4.45 0.5 -4.6 Q1.0 -4.7 1.3 -5.05 2.5 -6.4 4.2 -6.4 L5.1 -5.75 7.45 -6.3 Q8.65 -5.55 10.15 -4.9 L10.5 -5.15 13.1 -4.4 Q14.05 -3.95 14.65 -4.7 13.85 3.65 13.15 7.5 L13.15 8.0 Q12.95 9.75 12.9 11.55 12.3 19.4 10.3 28.75 9.6 31.95 8.15 34.85 L8.05 35.1 7.1 36.85 4.2 40.95 Q3.35 42.0 -1.1 42.65 -5.25 43.3 -8.45 42.05 L-8.95 41.55 Q-12.05 38.4 -12.05 32.95 L-11.8 30.15 -11.6 27.9 -11.6 27.65 -11.2 27.85 -10.95 26.4 -10.8 26.55 -10.35 26.4 -10.3 25.15 -8.55 22.15 Q-6.05 18.25 -6.0 17.65 -5.45 14.65 -3.7 10.25 L-3.3 6.85 -3.25 5.0 -3.4 -2.2 -3.55 -2.65 -3.75 -4.05 -3.8 -5.55 M8.15 22.15 Q10.65 16.15 9.35 9.95 L7.4 16.9 Q0.55 22.75 -4.25 30.1 L-3.05 31.15 -1.7 31.0 Q-0.5 31.0 0.55 30.5 L2.95 29.15 7.15 30.1 7.8 27.15 Q7.95 25.85 7.75 24.65 L7.4 23.85 8.15 22.15 M-1.65 -2.15 L-1.75 -2.3 -1.8 -2.15 -1.65 -2.15" fill="#ffcc99" fill-rule="evenodd" stroke="none"/>
      <path d="M8.15 22.15 L7.4 23.85 7.75 24.65 Q7.95 25.85 7.8 27.15 L7.15 30.1 2.95 29.15 0.55 30.5 Q-0.5 31.0 -1.7 31.0 L-3.05 31.15 -4.25 30.1 Q0.55 22.75 7.4 16.9 L9.35 9.95 Q10.65 16.15 8.15 22.15 M-11.6 27.65 L-11.7 27.0 -11.7 20.05 -12.2 14.1 -12.45 12.75 -12.4 12.75 -12.4 12.7 -12.75 10.3 -12.95 9.0 -13.95 3.65 -14.55 0.9 -14.8 -0.15 -16.0 -6.15 Q-15.65 -5.9 -15.2 -5.8 -12.25 -5.0 -10.4 -7.6 L-8.35 -7.95 -6.45 -6.75 -5.75 -5.05 -5.25 -4.85 Q-4.5 -4.8 -3.8 -5.55 L-3.75 -4.05 -3.55 -2.65 -3.4 -2.2 -3.25 5.0 -3.3 6.85 -3.7 10.25 Q-5.45 14.65 -6.0 17.65 -6.05 18.25 -8.55 22.15 L-10.3 25.15 -10.35 26.4 -10.8 26.55 -10.95 26.4 -11.2 27.85 -11.6 27.65" fill="#f4c398" fill-rule="evenodd" stroke="none"/>
      <path d="M-3.95 -15.15 L-3.6 -15.35 -3.6 -15.4 -3.6 -15.35 -3.95 -15.15 M-4.15 -18.25 L-4.2 -18.35 -4.2 -18.45 -4.05 -17.7 -4.15 -18.25" fill="#ffcece" fill-rule="evenodd" stroke="none"/>
      <path d="M-15.75 -21.3 L-15.7 -21.3 -15.8 -21.2 -15.75 -21.3 M-1.65 -2.15 L-1.8 -2.15 -1.75 -2.3 -1.65 -2.15" fill="#ffc4c4" fill-rule="evenodd" stroke="none"/>
    </g>
    <g id="sprite19" transform="matrix(1.0, 0.0, 0.0, 1.0, 8.85, 11.95)">
      <use ffdec:characterId="1792" height="23.95" transform="matrix(1.0, 0.0, 0.0, 1.0, -8.85, -11.95)" width="17.75" xlink:href="#shape12"/>
    </g>
    <g id="shape12" transform="matrix(1.0, 0.0, 0.0, 1.0, 8.85, 11.95)">
      <path d="M3.7 -9.85 L4.05 -9.5 6.6 -5.65 7.7 -3.5 8.45 -2.1 8.35 -0.95 8.0 -2.1 6.4 -5.3 3.7 -9.85 M8.7 -4.05 L7.1 -6.75 Q5.8 -8.7 3.8 -10.1 5.85 -9.2 7.3 -7.55 L8.9 -5.45 8.7 -4.05 M7.95 4.5 L7.15 2.8 Q6.1 0.55 4.75 -1.35 L1.8 -4.75 -1.8 -7.95 -2.85 -8.7 Q-0.7 -8.2 1.1 -6.9 2.95 -5.5 4.15 -3.4 5.4 -1.35 6.75 0.35 L7.0 0.55 7.2 0.5 7.45 0.55 7.75 0.5 7.95 0.5 8.3 -0.25 8.25 1.1 7.95 4.5 M-3.95 -8.9 L-3.05 -8.2 0.3 -4.9 Q2.0 -3.4 3.35 -1.4 4.7 0.55 5.5 2.85 L5.55 3.0 5.55 3.05 5.6 3.15 5.65 3.25 5.8 3.25 5.95 3.25 Q6.7 4.45 7.05 5.8 L7.55 7.75 7.2 10.2 7.0 8.95 Q6.55 6.75 5.5 4.9 L5.6 5.35 4.35 2.2 Q3.35 0.0 2.0 -1.9 L-1.05 -5.55 Q-2.65 -7.15 -3.95 -8.9 M1.65 6.95 L0.35 4.2 0.6 4.6 -0.3 3.15 -3.15 -0.8 -4.75 -2.8 -7.45 -5.6 -6.75 -5.2 -5.1 -3.9 -3.8 -2.8 -3.75 -2.8 -1.25 0.6 0.35 2.9 Q1.55 4.75 2.25 6.65 L3.25 9.75 3.25 9.95 3.85 12.0 2.2 9.75 -0.6 5.65 -3.1 1.7 Q-4.25 -0.3 -5.7 -2.05 -7.3 -3.85 -8.35 -5.85 L-8.85 -6.65 -8.0 -6.2 -7.9 -5.85 -7.7 -5.4 -8.35 -5.85 -7.3 -4.85 Q-6.35 -2.85 -4.8 -1.05 L-2.6 1.8 -1.9 2.45 Q-1.5 3.1 -1.4 3.5 0.25 5.0 1.0 7.3 L1.45 7.8 1.7 7.95 1.65 6.95" fill="#da9c78" fill-rule="evenodd" stroke="none"/>
      <path d="M4.05 -9.5 L3.7 -9.85 3.8 -10.1 Q5.8 -8.7 7.1 -6.75 L8.7 -4.05 8.55 -3.0 7.55 -4.95 6.55 -6.7 4.05 -9.5 M-2.85 -8.7 L-1.8 -7.95 1.8 -4.75 4.75 -1.35 Q6.1 0.55 7.15 2.8 L7.95 4.5 7.75 6.35 7.3 5.1 Q6.55 2.9 5.3 0.7 L2.65 -3.35 Q1.45 -5.1 -0.35 -6.3 L-3.05 -8.2 -3.95 -8.9 -4.4 -9.2 -2.85 -8.7 M-3.15 -0.8 L-0.3 3.15 0.6 4.6 0.35 4.2 1.65 6.95 Q0.0 5.5 -1.1 3.05 L-1.85 1.75 -4.6 -1.9 Q-5.9 -3.55 -7.3 -4.85 L-8.35 -5.85 -7.7 -5.4 -4.3 -2.15 -3.15 -0.8 M-5.75 -10.3 L-5.6 -9.85 -7.75 -11.65 -7.5 -11.5 -6.6 -11.1 -5.75 -10.3" fill="#8c3734" fill-rule="evenodd" stroke="none"/>
      <path d="M4.05 -9.5 L6.55 -6.7 7.55 -4.95 8.55 -3.0 8.5 -2.95 8.5 -2.45 8.45 -2.1 7.7 -3.5 6.6 -5.65 4.05 -9.5 M-3.05 -8.2 L-0.35 -6.3 Q1.45 -5.1 2.65 -3.35 L5.3 0.7 Q6.55 2.9 7.3 5.1 L7.75 6.35 7.55 7.75 7.05 5.8 Q6.7 4.45 5.95 3.25 L5.8 3.25 5.65 3.25 5.6 3.15 5.55 3.05 5.55 3.0 5.5 2.85 Q4.7 0.55 3.35 -1.4 2.0 -3.4 0.3 -4.9 L-3.05 -8.2 M-3.15 -0.8 L-4.3 -2.15 -7.7 -5.4 -7.9 -5.85 -8.0 -6.2 -8.0 -6.25 -7.9 -6.15 -7.45 -5.6 -4.75 -2.8 -3.15 -0.8 M-7.3 -4.85 Q-5.9 -3.55 -4.6 -1.9 L-1.85 1.75 -1.1 3.05 Q0.0 5.5 1.65 6.95 L1.7 7.95 1.45 7.8 1.0 7.3 Q0.25 5.0 -1.4 3.5 -1.5 3.1 -1.9 2.45 L-2.6 1.8 -4.8 -1.05 Q-6.35 -2.85 -7.3 -4.85 M-5.75 -10.3 L-5.25 -9.6 Q-5.75 -9.6 -6.8 -10.55 L-8.3 -11.95 -7.75 -11.65 -5.6 -9.85 -5.75 -10.3 M-7.75 -11.65 L-7.65 -11.6 -7.55 -11.6 -7.5 -11.5 -7.75 -11.65" fill="#a95c4d" fill-rule="evenodd" stroke="none"/>
    </g>
    <g id="sprite20" transform="matrix(1.0, 0.0, 0.0, 1.0, 9.95, 7.5)">
      <use ffdec:characterId="1803" ffdec:characterName="game_fla.lowerleg1_602" height="78.2" id="lowerLeg1" transform="matrix(1.0, 0.0, 0.0, 1.0, -9.95, -7.5)" width="42.95" xlink:href="#sprite21"/>
    </g>
    <g id="sprite21" transform="matrix(1.0, 0.0, 0.0, 1.0, 13.75, 38.15)">
      <use ffdec:characterId="1798" height="68.7" transform="matrix(1.0, 0.0, 0.0, 1.0, -13.75, -38.15)" width="23.2" xlink:href="#shape13"/>
      <use ffdec:characterId="1799" height="27.85" transform="matrix(1.0, 0.0, 0.0, 1.0, -12.05, 12.2)" width="41.25" xlink:href="#shape14"/>
      <use ffdec:characterId="1081" height="100.0" id="shape" transform="matrix(0.2, 0.0, 0.0, 0.7601, -9.9998, -38.0028)" width="100.0" xlink:href="#sprite2"/>
    </g>
    <g id="shape13" transform="matrix(1.0, 0.0, 0.0, 1.0, 13.75, 38.15)">
      <path d="M3.35 -35.7 L4.7 -37.65 6.4 -37.7 Q7.95 -36.55 8.85 -34.1 L9.2 -33.0 9.45 -28.95 8.75 -30.85 8.15 -30.8 7.25 -31.4 3.85 -28.9 3.7 -28.85 2.85 -30.3 2.7 -33.1 3.35 -35.7 M8.75 -17.9 L8.85 -16.8 8.4 -13.1 8.2 -7.0 8.0 2.6 Q7.5 3.85 7.5 6.7 L7.6 7.75 7.45 8.3 7.35 10.55 7.45 12.05 7.2 14.55 7.25 17.1 7.05 18.8 Q7.35 21.0 7.85 22.0 L7.85 22.2 8.8 23.3 9.05 23.55 9.05 23.6 9.05 25.05 8.75 26.45 8.0 27.0 7.65 27.6 6.65 27.75 5.75 26.95 Q4.4 29.8 1.5 30.45 -1.3 30.9 -3.9 29.6 -5.2 30.75 -7.05 29.95 -9.15 29.05 -9.9 27.05 L-9.8 26.45 -9.3 23.6 -9.25 23.3 Q-8.3 21.25 -7.85 15.35 -7.85 14.0 -8.0 13.4 L-8.35 11.65 -8.35 11.45 -8.4 11.2 -9.15 6.0 -10.75 0.45 -10.95 -0.55 Q-11.55 -0.65 -12.2 -2.7 L-13.0 -6.25 -13.5 -9.35 -13.75 -11.9 -13.7 -12.9 -13.75 -13.4 -13.6 -14.35 -13.45 -16.25 -13.15 -20.65 Q-13.0 -23.85 -11.75 -26.1 -11.6 -28.5 -10.55 -30.1 -8.25 -33.65 -5.0 -33.45 L-3.4 -33.15 -1.2 -33.0 Q-0.55 -32.75 -1.25 -32.25 L-1.4 -32.15 -1.9 -31.85 -2.05 -31.75 -2.2 -31.65 -2.2 -31.6 -3.15 -30.1 -0.1 -27.4 1.0 -24.0 2.8 -18.85 3.45 -17.1 3.6 -15.8 3.65 -6.55 3.4 -3.9 3.8 -2.7 4.2 6.15 4.45 7.05 4.6 6.1 5.1 1.45 5.5 -2.45 5.85 -6.85 5.85 -6.9 Q7.5 -10.5 8.2 -14.5 L8.55 -16.7 8.75 -17.9 M-2.05 -8.25 L-1.6 -9.15 -1.8 -9.25 -3.1 -15.2 -6.2 -10.85 -7.95 -8.45 -9.95 -8.95 -8.7 -4.8 -7.6 -0.55 -6.75 3.15 -6.55 4.3 Q-6.1 6.45 -4.95 8.35 L-4.7 8.8 -4.65 8.95 -4.6 9.0 Q-3.5 6.25 -3.2 2.65 L-3.2 0.55 -3.2 -1.2 -2.85 -5.6 -2.8 -6.3 -2.7 -6.3 -2.05 -8.25" fill="#ffcc99" fill-rule="evenodd" stroke="none"/>
      <path d="M9.45 -23.9 L9.4 -23.0 8.75 -17.9 8.55 -16.7 8.2 -14.5 Q7.5 -10.5 5.85 -6.9 L5.85 -6.85 5.5 -2.45 5.1 1.45 4.6 6.1 4.45 7.05 4.2 6.15 3.8 -2.7 3.4 -3.9 3.65 -6.55 3.6 -15.8 3.45 -17.1 2.8 -18.85 1.0 -24.0 -0.1 -27.4 -3.15 -30.1 -2.2 -31.6 -2.2 -31.65 -2.05 -31.75 -1.9 -31.85 -1.4 -32.15 -1.25 -32.25 Q-0.55 -32.75 -1.2 -33.0 L-0.1 -34.3 2.25 -36.6 3.3 -36.15 3.35 -35.7 2.7 -33.1 2.85 -30.3 3.7 -28.85 3.85 -28.9 Q3.9 -26.25 5.35 -23.95 L6.9 -22.0 7.55 -21.15 9.45 -23.9 M-2.05 -8.25 L-2.7 -6.3 -2.8 -6.3 -2.85 -5.6 -3.2 -1.2 -3.2 0.55 -3.2 2.65 Q-3.5 6.25 -4.6 9.0 L-4.65 8.95 -4.7 8.8 -4.95 8.35 Q-6.1 6.45 -6.55 4.3 L-6.75 3.15 -7.6 -0.55 -8.7 -4.8 -9.95 -8.95 -7.95 -8.45 -6.2 -10.85 -3.1 -15.2 -1.8 -9.25 -1.6 -9.15 -2.05 -8.25" fill="#f4c398" fill-rule="evenodd" stroke="none"/>
      <path d="M9.45 -28.95 L9.45 -23.9 7.55 -21.15 6.9 -22.0 5.35 -23.95 Q3.9 -26.25 3.85 -28.9 L7.25 -31.4 8.15 -30.8 8.75 -30.85 9.45 -28.95" fill="#ebbb98" fill-rule="evenodd" stroke="none"/>
    </g>
    <g id="shape14" transform="matrix(1.0, 0.0, 0.0, 1.0, 12.05, -12.2)">
      <path d="M4.4 12.2 L7.8 12.2 7.8 12.4 8.15 17.8 8.2 18.55 7.9 18.55 6.35 18.55 5.0 18.65 Q4.35 16.45 4.35 13.95 L4.4 12.2 M-8.85 19.2 L-8.85 18.95 -8.55 16.15 -8.8 13.0 -8.45 13.0 -5.8 12.85 Q-4.95 16.55 -4.95 19.0 L-4.95 19.5 -5.55 19.5 -6.25 19.4 -7.65 19.4 -8.65 19.15 -8.85 19.2" fill="#f9f9f9" fill-rule="evenodd" stroke="none"/>
      <path d="M-5.8 12.85 L-3.2 12.65 3.25 12.2 4.4 12.2 4.35 13.95 Q4.35 16.45 5.0 18.65 L4.6 18.75 4.25 19.15 3.8 20.05 3.4 21.2 3.4 21.75 3.3 21.9 3.3 21.7 3.3 20.9 3.2 19.15 3.2 19.1 3.15 18.95 2.95 18.8 Q2.7 18.65 2.4 18.8 L-0.25 18.8 -0.3 18.85 -0.7 18.75 -4.95 19.5 -4.95 19.0 Q-4.95 16.55 -5.8 12.85" fill="#eaeaea" fill-rule="evenodd" stroke="none"/>
      <path d="M8.2 18.55 Q9.25 18.6 9.25 18.95 L9.2 19.4 8.85 21.1 8.9 22.05 8.9 22.25 9.0 22.5 10.15 23.6 10.25 23.7 10.7 24.15 12.25 25.7 13.25 26.6 14.2 27.45 15.25 28.25 16.25 29.0 16.35 29.0 16.7 29.15 17.05 29.25 18.7 29.9 20.0 30.4 23.1 30.9 Q25.05 30.9 26.5 32.45 L27.25 33.65 27.35 34.0 27.6 34.85 26.3 34.9 25.25 35.3 23.4 35.3 22.15 35.25 20.3 35.0 19.0 34.75 17.6 34.4 15.75 33.9 15.5 33.8 14.05 33.25 11.85 32.4 Q10.2 31.75 8.85 30.5 L7.8 29.4 7.7 29.3 6.5 30.5 Q6.05 30.95 5.45 31.1 L4.1 31.05 Q3.05 31.0 2.8 29.9 L2.6 28.25 2.6 26.5 2.9 24.15 2.95 23.6 Q3.0 22.65 3.3 21.9 L3.4 21.75 3.4 21.2 3.8 20.05 4.25 19.15 4.6 18.75 5.0 18.65 6.35 18.55 7.9 18.55 8.2 18.55 M25.0 33.1 L25.8 33.7 Q26.5 33.55 26.05 32.75 25.6 31.85 24.65 31.9 L19.85 31.35 Q20.3 32.3 22.05 32.3 L23.95 32.8 25.0 33.1" fill="#5c4627" fill-rule="evenodd" stroke="none"/>
      <path d="M27.6 34.85 L28.15 35.65 28.3 35.75 27.55 36.15 26.35 36.85 24.45 37.4 22.6 37.55 20.7 37.7 19.7 37.7 18.7 37.6 17.15 37.35 15.55 37.25 13.65 37.05 12.65 36.9 11.65 36.65 10.2 36.35 8.65 35.85 7.3 35.5 5.9 35.0 4.3 34.5 2.5 34.0 1.6 33.75 1.4 33.7 0.5 33.6 -1.45 33.25 -2.9 32.95 -4.5 32.95 -6.15 32.95 -7.3 33.15 -8.6 33.3 -10.1 33.35 -11.7 33.35 -11.75 33.15 -11.75 32.9 -12.05 30.9 -12.05 30.75 -12.0 30.65 -11.9 30.3 -11.95 29.3 -11.75 28.05 -11.65 27.9 -11.05 25.85 -10.3 23.85 -10.2 23.6 -9.6 21.45 -9.35 20.15 -9.05 19.5 -9.05 19.4 -8.85 19.2 -8.65 19.15 -7.65 19.4 -6.25 19.4 -5.55 19.5 -4.95 19.5 -0.7 18.75 -0.3 18.85 -0.25 18.8 2.4 18.8 Q2.7 18.65 2.95 18.8 L3.15 18.95 3.2 19.1 3.2 19.15 3.3 20.9 3.3 21.7 3.3 21.9 Q3.0 22.65 2.95 23.6 L2.9 24.15 2.6 26.5 2.6 28.25 2.8 29.9 Q3.05 31.0 4.1 31.05 L5.45 31.1 Q6.05 30.95 6.5 30.5 L7.7 29.3 7.8 29.4 8.85 30.5 Q10.2 31.75 11.85 32.4 L14.05 33.25 15.5 33.8 15.75 33.9 17.6 34.4 19.0 34.75 20.3 35.0 22.15 35.25 23.4 35.3 25.25 35.3 26.3 34.9 27.6 34.85 M28.7 36.4 L29.2 37.65 28.2 38.5 Q27.2 39.25 26.05 39.45 L24.8 39.8 23.35 39.95 21.65 40.05 20.0 40.0 18.3 39.8 16.6 39.55 14.65 39.25 12.85 39.05 11.1 38.6 9.1 38.25 8.1 38.05 7.1 37.85 6.4 37.65 4.9 37.15 3.25 36.75 2.35 36.45 2.0 37.8 1.15 38.0 -1.4 38.05 -3.2 38.05 -5.0 38.05 -6.8 37.85 -8.65 37.5 -10.4 37.3 -10.75 37.2 Q-10.9 37.1 -11.1 36.95 L-11.6 33.9 -10.6 33.95 -8.8 33.8 -7.4 33.7 -6.95 33.65 -5.25 33.6 -3.85 33.65 -3.0 33.7 -2.15 33.8 -0.3 34.15 1.4 34.5 2.95 34.9 4.8 35.5 5.9 35.85 7.3 36.35 8.7 36.85 10.05 36.95 11.25 37.2 13.1 37.75 14.85 38.0 16.75 38.1 18.6 38.1 20.3 38.5 22.1 38.45 24.0 38.3 25.85 37.75 27.6 37.2 Q28.25 37.05 28.7 36.4" fill="#42321c" fill-rule="evenodd" stroke="none"/>
      <path d="M28.3 35.75 L28.45 35.75 28.7 36.4 Q28.25 37.05 27.6 37.2 L25.85 37.75 24.0 38.3 22.1 38.45 20.3 38.5 18.6 38.1 16.75 38.1 14.85 38.0 13.1 37.75 11.25 37.2 10.05 36.95 8.7 36.85 7.3 36.35 5.9 35.85 4.8 35.5 2.95 34.9 1.4 34.5 -0.3 34.15 -2.15 33.8 -3.0 33.7 -3.85 33.65 -5.25 33.6 -6.95 33.65 -7.4 33.7 -8.8 33.8 -10.6 33.95 -11.6 33.9 -11.7 33.35 -10.1 33.35 -8.6 33.3 -7.3 33.15 -6.15 32.95 -4.5 32.95 -2.9 32.95 -1.45 33.25 0.5 33.6 1.4 33.7 1.6 33.75 2.5 34.0 4.3 34.5 5.9 35.0 7.3 35.5 8.65 35.85 10.2 36.35 11.65 36.65 12.65 36.9 13.65 37.05 15.55 37.25 17.15 37.35 18.7 37.6 19.7 37.7 20.7 37.7 22.6 37.55 24.45 37.4 26.35 36.85 27.55 36.15 28.3 35.75" fill="#6a502d" fill-rule="evenodd" stroke="none"/>
      <path d="M25.0 33.1 L23.95 32.8 22.05 32.3 Q20.3 32.3 19.85 31.35 L24.65 31.9 Q25.6 31.85 26.05 32.75 26.5 33.55 25.8 33.7 L25.0 33.1" fill="#b68b52" fill-rule="evenodd" stroke="none"/>
    </g>
    <g id="sprite22" transform="matrix(1.0, 0.0, 0.0, 1.0, 34.8, 66.95)">
      <use ffdec:characterId="1806" height="0.6" transform="matrix(1.0, 0.0, 0.0, 1.0, 12.05, 16.4)" width="0.75" xlink:href="#shape15"/>
      <use ffdec:characterId="1808" height="92.25" transform="matrix(1.0, 1.0E-4, -1.0E-4, 1.0, -21.5938, -43.4519)" width="46.6" xlink:href="#sprite23"/>
      <use ffdec:characterId="1081" height="100.0" id="shape" transform="matrix(0.4004, 0.0, 0.0, 0.82, -20.0203, -40.9981)" width="100.0" xlink:href="#sprite2"/>
      <use ffdec:characterId="1138" height="0.0" id="spineRef" transform="matrix(1.0, 0.0, 0.0, 1.0, 7.2, -46.7)" width="0.0" xlink:href="#sprite24"/>
    </g>
    <g id="shape15" transform="matrix(1.0, 0.0, 0.0, 1.0, -12.05, -16.4)">
      <path d="M12.25 17.0 L12.05 16.4 Q12.6 16.4 12.8 16.75 L12.25 17.0" fill="#d7d3d0" fill-rule="evenodd" stroke="none"/>
    </g>
    <g id="sprite23" transform="matrix(1.0, 0.0, 0.0, 1.0, 20.85, 67.2)">
      <use ffdec:characterId="1807" height="92.25" transform="matrix(1.0, 0.0, 0.0, 1.0, -20.85, -67.2)" width="46.6" xlink:href="#shape16"/>
    </g>
    <g id="shape16" transform="matrix(1.0, 0.0, 0.0, 1.0, 20.85, 67.2)">
      <path d="M11.3 -54.9 L11.15 -55.35 11.1 -55.95 11.1 -56.0 11.1 -56.45 11.1 -56.8 11.05 -56.75 11.05 -57.15 11.05 -57.3 11.1 -58.75 12.15 -57.55 12.35 -57.3 13.25 -55.95 Q14.8 -53.35 15.9 -49.65 L16.4 -47.2 15.8 -47.7 Q14.8 -48.7 12.9 -51.15 L13.05 -52.2 11.3 -54.9 M17.95 -40.0 L17.7 -40.35 17.85 -40.5 17.95 -40.0 M-17.25 5.65 L-16.65 5.25 -16.45 4.25 -15.55 4.35 Q-12.9 4.35 -12.25 5.05 L-11.9 6.35 -11.95 6.75 -11.85 6.8 -11.95 7.45 -12.95 7.25 Q-15.1 7.55 -16.65 6.65 L-19.05 5.15 -19.2 4.6 Q-18.75 4.75 -18.15 5.25 -17.7 5.65 -17.3 5.65 L-17.25 5.65 M-9.4 7.65 L-8.85 7.15 -7.95 6.35 -7.15 6.6 -3.8 7.15 -3.75 7.95 -3.95 7.95 -6.35 7.6 -9.4 7.65 M0.7 8.0 L0.9 7.35 1.75 6.55 Q2.5 5.7 4.05 5.7 L4.2 5.7 5.4 5.65 Q6.35 6.1 6.95 7.5 L6.95 7.55 6.95 7.7 6.95 7.9 6.95 8.0 6.75 9.05 1.75 8.0 0.7 8.0 M8.7 9.45 L8.9 8.8 9.0 8.75 9.65 8.5 10.5 8.25 10.6 8.25 10.65 8.4 Q10.95 8.75 11.45 8.9 L11.6 9.15 12.3 9.75 12.25 9.75 10.35 9.6 8.7 9.45 M16.2 9.45 L16.35 9.0 Q17.95 8.8 18.95 7.7 L19.25 7.7 20.45 8.6 Q19.35 9.5 17.55 9.8 L16.95 9.9 16.75 9.9 16.2 9.9 16.2 9.55 16.2 9.45 M-15.9 -8.5 Q-16.0 -7.05 -16.6 -6.05 -17.3 -4.9 -18.75 -4.1 L-18.6 -5.15 -18.5 -5.7 -18.45 -6.1 -18.45 -6.75 -18.5 -6.75 -18.4 -7.15 -18.4 -7.3 -18.4 -7.55 -18.45 -8.15 -18.45 -8.5 -18.35 -9.15 -18.35 -9.2 -18.25 -10.8 -18.1 -10.8 Q-17.4 -10.85 -16.55 -9.9 L-15.9 -8.55 -15.9 -8.5 M-13.15 0.45 L-12.75 0.1 Q-12.45 -0.3 -12.5 -0.65 L-11.15 -0.7 Q-10.75 -0.1 -10.15 0.1 L-10.25 0.7 Q-10.65 1.55 -12.15 1.55 -12.9 1.55 -13.15 0.45 M-7.15 -4.4 L-7.05 -4.9 Q-6.7 -6.6 -3.55 -6.6 L-3.5 -6.6 -3.5 -6.3 -3.6 -5.6 -3.65 -5.5 -3.6 -4.8 -3.8 -3.2 Q-4.2 -2.0 -5.45 -2.0 L-5.5 -2.0 -5.5 -2.05 -5.95 -2.6 -7.15 -4.4" fill="#ffcc99" fill-rule="evenodd" stroke="none"/>
      <path d="M17.7 -40.35 L17.25 -41.0 13.8 -46.2 12.6 -48.8 12.9 -51.15 Q14.8 -48.7 15.8 -47.7 L16.4 -47.2 16.5 -46.7 16.95 -44.7 17.75 -41.0 17.85 -40.5 17.7 -40.35 M-16.45 4.25 Q-15.95 3.1 -14.2 3.5 -12.95 3.75 -12.35 4.5 L-11.95 4.7 Q-11.8 5.15 -11.8 5.7 L-11.85 6.8 -11.95 6.75 -11.9 6.35 -12.25 5.05 Q-12.9 4.35 -15.55 4.35 L-16.45 4.25 M-7.95 6.35 L-6.75 5.75 -5.0 5.75 Q-4.1 6.05 -3.85 6.9 L-3.8 7.15 -7.15 6.6 -7.95 6.35 M0.9 7.35 Q1.6 4.95 3.65 3.85 L4.75 3.5 4.95 3.5 4.9 3.4 Q4.7 2.95 4.65 2.4 L4.65 2.35 4.65 2.15 Q4.65 0.15 5.95 1.2 7.25 2.2 7.25 4.05 L7.25 4.25 7.25 4.3 7.15 4.7 7.1 4.8 6.7 5.15 6.75 5.7 6.7 5.7 6.75 6.45 6.75 6.55 6.95 7.5 Q6.35 6.1 5.4 5.65 L4.2 5.7 4.05 5.7 Q2.5 5.7 1.75 6.55 L0.9 7.35 M16.35 9.0 Q16.55 8.35 17.0 8.1 L17.15 8.05 17.2 8.0 18.95 7.7 Q17.95 8.8 16.35 9.0 M6.35 5.4 L6.25 5.35 6.3 5.4 6.35 5.4 M-18.25 -13.05 L-17.75 -12.6 Q-16.0 -10.85 -15.9 -9.15 L-15.9 -8.95 -15.9 -8.55 -16.55 -9.9 Q-17.4 -10.85 -18.1 -10.8 L-18.25 -10.8 -18.25 -10.9 -18.3 -12.6 -18.25 -13.05 M-10.15 0.1 Q-10.75 -0.1 -11.15 -0.7 L-12.5 -0.65 Q-12.45 -0.3 -12.75 0.1 L-13.15 0.45 -13.3 -0.4 -13.35 -0.65 Q-13.35 -2.6 -11.75 -2.5 -10.15 -2.4 -10.15 -0.4 L-10.15 -0.1 -10.15 -0.05 -10.15 0.1 M-3.5 -6.6 L-3.55 -6.6 Q-6.7 -6.6 -7.05 -4.9 L-7.15 -4.4 -7.55 -5.7 -7.55 -5.75 -7.55 -5.9 Q-7.55 -8.75 -5.75 -8.65 L-5.55 -8.75 Q-3.9 -9.4 -3.5 -6.75 L-3.5 -6.6" fill="#ebbb98" fill-rule="evenodd" stroke="none"/>
      <path d="M11.3 -54.9 Q10.75 -55.35 10.35 -56.1 L10.2 -56.35 9.7 -57.3 9.05 -58.25 Q8.55 -59.05 8.1 -59.15 L7.9 -58.95 7.15 -58.1 6.6 -57.5 Q4.4 -59.95 1.9 -61.8 0.1 -63.1 -0.7 -63.25 -1.5 -63.9 -2.6 -64.05 L-3.1 -64.1 -1.65 -64.1 -0.75 -64.1 2.55 -62.7 4.8 -60.65 6.65 -59.1 8.9 -61.95 10.4 -64.05 10.8 -63.55 11.0 -62.15 10.95 -61.15 11.0 -60.8 11.05 -60.35 11.1 -59.35 11.1 -58.75 11.05 -57.3 11.05 -57.15 11.0 -56.9 11.05 -56.75 11.1 -56.8 11.1 -56.45 11.05 -56.25 11.1 -56.0 11.1 -55.95 11.15 -55.35 11.3 -54.9 M18.95 -38.6 L18.55 -39.15 17.95 -40.0 17.85 -40.5 17.75 -41.0 16.95 -44.7 16.5 -46.7 16.4 -47.2 15.9 -49.65 Q14.8 -53.35 13.25 -55.95 L13.5 -56.05 14.9 -54.35 15.15 -54.1 Q16.25 -52.85 17.25 -52.1 L18.7 -50.9 18.6 -50.65 Q18.15 -49.25 18.15 -48.35 18.15 -47.4 18.8 -44.25 L19.3 -41.65 19.25 -41.0 19.1 -38.85 19.0 -38.8 19.0 -39.1 18.95 -38.6 M19.05 -40.35 L19.05 -40.5 19.05 -40.45 19.05 -40.25 19.05 -40.35 M-16.35 -12.55 L-16.3 -12.55 -16.3 -12.3 -16.4 -12.5 -16.35 -12.55" fill="#beb7b1" fill-rule="evenodd" stroke="none"/>
      <path d="M10.8 -63.55 L10.4 -64.05 8.9 -61.95 6.65 -59.1 4.8 -60.65 2.55 -62.7 -0.75 -64.1 -1.65 -64.1 -3.1 -64.1 -2.6 -64.05 Q-1.5 -63.9 -0.7 -63.25 0.1 -63.1 1.9 -61.8 4.4 -59.95 6.6 -57.5 L7.15 -58.1 7.9 -58.95 8.1 -59.15 Q8.55 -59.05 9.05 -58.25 L9.7 -57.3 10.2 -56.35 10.35 -56.1 Q10.75 -55.35 11.3 -54.9 L13.05 -52.2 12.9 -51.15 12.6 -48.8 13.8 -46.2 17.25 -41.0 17.7 -40.35 17.95 -40.0 18.55 -39.15 18.95 -38.6 19.75 -37.55 19.85 -37.25 19.85 -37.15 19.95 -35.4 20.05 -33.85 Q19.65 -32.2 19.65 -30.9 20.5 -28.25 21.6 -25.7 L21.65 -25.6 21.95 -25.0 22.65 -23.55 22.85 -23.2 24.15 -17.8 24.15 -17.65 24.45 -16.15 24.85 -13.65 24.95 -12.2 24.85 -13.65 25.25 -11.25 25.75 -8.05 Q25.35 -6.05 25.35 -3.8 L24.85 2.55 Q24.3 6.75 24.3 8.6 L22.2 10.15 22.3 9.15 22.15 9.15 22.15 6.6 22.15 6.5 22.1 3.05 22.35 3.05 22.65 3.7 22.8 4.3 23.1 4.1 23.15 3.0 Q23.15 1.5 21.3 -5.6 L21.5 -5.85 Q22.85 -4.15 23.75 -2.0 L24.15 -4.25 23.9 -5.8 23.8 -6.55 23.8 -6.7 23.35 -9.45 23.05 -10.7 21.85 -14.75 21.6 -15.6 19.35 -22.35 19.3 -23.0 19.25 -23.35 19.0 -23.35 19.0 -23.0 18.9 -22.3 18.8 -21.75 18.7 -21.55 18.6 -21.8 18.5 -21.8 Q18.15 -20.9 18.15 -20.25 L18.25 -18.25 18.3 -16.5 15.6 -22.1 15.6 -22.2 15.65 -22.2 15.5 -22.45 14.85 -23.0 14.6 -23.3 14.35 -23.55 13.75 -24.45 13.5 -24.95 13.2 -25.7 12.8 -27.0 12.85 -27.7 12.9 -27.65 Q13.0 -28.35 13.55 -27.75 L14.1 -27.0 14.45 -27.1 17.35 -27.45 17.5 -27.6 17.45 -27.8 18.15 -30.05 Q18.15 -31.4 16.8 -35.4 L14.6 -41.3 14.3 -41.95 13.15 -44.05 12.7 -44.95 11.95 -46.9 10.55 -50.15 10.35 -50.65 Q8.6 -53.25 5.85 -55.05 L3.4 -56.75 Q1.95 -57.7 0.45 -58.05 -1.45 -58.85 -3.75 -58.9 L-5.6 -58.65 -6.15 -58.5 Q-7.65 -58.6 -9.65 -57.05 -10.8 -56.2 -11.75 -55.0 L-12.3 -54.45 Q-14.85 -51.75 -14.85 -50.5 L-14.85 -50.2 -15.0 -50.0 Q-15.95 -48.75 -16.7 -45.45 -17.4 -42.5 -17.4 -40.45 L-17.4 -39.8 Q-18.0 -38.5 -18.0 -36.05 L-18.0 -35.65 -18.35 -34.7 -18.6 -28.05 -18.85 -23.7 -18.35 -19.2 -18.8 -14.0 -18.85 -14.0 -18.75 -15.0 -19.3 -25.5 -19.45 -27.95 Q-19.75 -32.8 -19.5 -39.15 L-19.25 -42.95 -18.6 -47.0 Q-17.9 -50.35 -16.45 -53.65 L-15.3 -55.9 -12.3 -58.75 Q-9.6 -61.3 -8.15 -63.7 -4.75 -66.65 -0.15 -67.15 L5.3 -66.7 Q8.15 -65.6 10.85 -63.95 L10.8 -63.7 10.8 -63.55 M11.1 -56.0 L11.05 -56.25 11.1 -56.45 11.1 -56.0 M11.05 -56.75 L11.0 -56.9 11.05 -57.15 11.05 -56.75 M11.05 -60.35 L11.0 -60.8 11.1 -60.5 11.05 -60.35 M19.85 -28.55 L19.85 -28.6 19.85 -27.9 19.85 -28.55 M19.65 -29.75 L19.6 -29.55 19.65 -29.65 19.65 -29.75 M22.6 3.9 L22.4 3.9 22.4 7.4 22.75 4.35 22.6 3.9 M-16.7 17.05 L-16.85 17.4 -17.1 17.1 -16.7 17.05" fill="#e8e7e6" fill-rule="evenodd" stroke="none"/>
      <path d="M-18.8 -14.0 L-18.35 -19.2 -18.85 -23.7 -18.6 -28.05 -18.35 -34.7 -18.0 -35.65 -18.0 -36.05 Q-18.0 -38.5 -17.4 -39.8 L-17.4 -40.45 Q-17.4 -42.5 -16.7 -45.45 -15.95 -48.75 -15.0 -50.0 L-14.85 -50.2 -14.85 -50.5 Q-14.85 -51.75 -12.3 -54.45 L-11.75 -55.0 Q-10.8 -56.2 -9.65 -57.05 -7.65 -58.6 -6.15 -58.5 L-5.6 -58.65 -3.75 -58.9 Q-1.45 -58.85 0.45 -58.05 1.95 -57.7 3.4 -56.75 L5.85 -55.05 Q8.6 -53.25 10.35 -50.65 L10.55 -50.15 11.95 -46.9 12.7 -44.95 13.15 -44.05 14.3 -41.95 14.6 -41.3 16.8 -35.4 Q18.15 -31.4 18.15 -30.05 L17.45 -27.8 17.5 -27.6 17.35 -27.45 14.45 -27.1 14.1 -27.0 13.55 -27.75 Q13.0 -28.35 12.9 -27.65 L12.85 -27.7 12.8 -27.0 13.2 -25.7 13.5 -24.95 13.75 -24.45 14.35 -23.55 14.6 -23.3 14.85 -23.0 15.5 -22.45 15.65 -22.2 15.6 -22.2 15.6 -22.1 18.3 -16.5 18.25 -18.25 18.15 -20.25 Q18.15 -20.9 18.5 -21.8 L18.6 -21.8 18.7 -21.55 18.8 -21.75 18.9 -22.3 19.0 -23.0 19.0 -23.35 19.25 -23.35 19.3 -23.0 19.35 -22.35 21.6 -15.6 21.85 -14.75 23.05 -10.7 23.35 -9.45 23.8 -6.7 23.8 -6.55 23.9 -5.8 24.15 -4.25 23.75 -2.0 Q22.85 -4.15 21.5 -5.85 L21.3 -5.6 Q23.15 1.5 23.15 3.0 L23.1 4.1 22.8 4.3 22.65 3.7 22.35 3.05 22.1 3.05 22.15 6.5 22.15 6.6 22.15 9.15 22.3 9.15 22.2 10.15 22.15 10.75 22.0 10.8 Q21.65 9.85 20.55 8.7 L20.45 8.6 19.25 7.7 18.95 7.7 17.2 8.0 17.15 8.05 17.25 7.65 17.25 7.4 17.25 7.35 17.5 6.65 18.0 4.8 Q18.0 1.95 16.1 5.25 L15.9 5.6 Q15.2 5.95 14.45 6.85 L15.5 1.55 16.25 -1.45 16.6 -3.2 Q16.6 -6.35 16.1 -9.1 L15.6 -10.55 Q15.45 -7.5 14.4 -4.9 L14.3 -4.55 14.0 -6.0 13.65 -9.35 13.05 -12.5 12.9 -13.5 12.7 -14.4 12.75 -15.15 Q12.4 -15.2 12.35 -16.15 L12.3 -16.55 11.25 -18.05 9.0 -21.55 8.35 -23.35 8.3 -23.6 7.7 -24.95 7.45 -25.7 6.25 -29.0 3.75 -31.7 2.6 -34.05 1.95 -35.4 1.55 -36.2 1.15 -38.35 Q1.8 -38.2 2.85 -36.55 L4.85 -34.65 6.5 -33.9 Q6.95 -33.9 7.4 -34.7 L7.75 -35.4 7.85 -35.55 7.15 -39.5 5.0 -44.55 3.35 -48.15 1.85 -51.0 -1.05 -53.55 -2.1 -54.65 -2.1 -54.7 -2.4 -54.8 -6.5 -55.6 Q-11.45 -55.1 -13.9 -46.45 L-14.4 -44.5 -14.7 -43.8 Q-14.65 -41.9 -14.85 -40.95 L-15.25 -36.55 -15.35 -34.1 -15.75 -24.95 -15.45 -17.3 -15.05 -15.2 -14.15 -12.05 -13.95 -11.0 -13.85 -9.85 -13.9 -8.9 -14.0 -4.55 Q-14.85 -6.1 -15.3 -8.0 L-15.55 -9.1 -15.8 -9.25 -15.8 -8.6 -15.8 -8.45 -15.8 -7.85 -15.85 -5.95 -15.9 -5.55 -16.15 -4.9 -16.05 -4.65 Q-17.4 0.55 -17.4 1.5 L-17.35 3.1 -17.3 4.3 -17.25 4.95 -17.3 5.2 -17.25 5.65 -17.3 5.65 Q-17.7 5.65 -18.15 5.25 -18.75 4.75 -19.2 4.6 L-19.25 4.55 -20.85 4.55 -20.8 4.0 -20.05 -3.55 Q-19.35 -3.8 -18.75 -4.1 -17.3 -4.9 -16.6 -6.05 -16.0 -7.05 -15.9 -8.5 L-15.9 -8.55 -15.9 -8.95 -15.9 -9.15 Q-16.0 -10.85 -17.75 -12.6 L-18.25 -13.05 -18.85 -13.5 -18.8 -14.0 M6.75 5.7 L6.75 6.0 6.75 6.45 6.7 5.7 6.75 5.7 M16.1 10.65 L16.1 10.55 16.15 9.9 16.2 9.45 16.2 9.55 16.2 9.9 16.2 10.05 16.15 10.65 16.1 10.65 M22.6 3.9 L22.75 4.35 22.4 7.4 22.4 3.9 22.6 3.9 M19.65 -29.75 L19.65 -29.65 19.6 -29.55 19.65 -29.75 M-16.35 -12.55 L-16.4 -12.5 -16.3 -12.3 -16.3 -12.55 -16.35 -12.55 M-3.6 -4.8 L-3.65 -5.5 -3.6 -5.6 -3.6 -5.15 -3.6 -4.8" fill="#d7d3d0" fill-rule="evenodd" stroke="none"/>
      <path d="M-17.25 5.65 L-17.3 5.2 -17.25 4.95 -17.3 4.3 -17.35 3.1 -17.4 1.5 Q-17.4 0.55 -16.05 -4.65 L-16.15 -4.9 -15.9 -5.55 -15.85 -5.95 -15.8 -7.85 -15.8 -8.45 -15.8 -8.6 -15.8 -9.25 -15.55 -9.1 -15.3 -8.0 Q-14.85 -6.1 -14.0 -4.55 L-13.9 -8.9 -13.85 -9.85 -13.95 -11.0 -14.15 -12.05 -15.05 -15.2 -15.45 -17.3 -15.75 -24.95 -15.35 -34.1 -15.25 -36.55 -14.85 -40.95 Q-14.65 -41.9 -14.7 -43.8 L-14.4 -44.5 -13.9 -46.45 Q-11.45 -55.1 -6.5 -55.6 L-2.4 -54.8 -2.1 -54.7 -2.1 -54.65 -1.05 -53.55 1.85 -51.0 3.35 -48.15 5.0 -44.55 7.15 -39.5 7.85 -35.55 7.75 -35.4 7.4 -34.7 Q6.95 -33.9 6.5 -33.9 L4.85 -34.65 2.85 -36.55 Q1.8 -38.2 1.15 -38.35 L1.55 -36.2 1.95 -35.4 2.6 -34.05 3.75 -31.7 6.25 -29.0 7.45 -25.7 7.7 -24.95 8.3 -23.6 8.35 -23.35 9.0 -21.55 11.25 -18.05 12.3 -16.55 12.35 -16.15 Q12.4 -15.2 12.75 -15.15 L12.7 -14.4 12.9 -13.5 13.05 -12.5 13.65 -9.35 14.0 -6.0 14.3 -4.55 14.4 -4.9 Q15.45 -7.5 15.6 -10.55 L16.1 -9.1 Q16.6 -6.35 16.6 -3.2 L16.25 -1.45 15.5 1.55 14.45 6.85 Q15.2 5.95 15.9 5.6 L16.1 5.25 Q18.0 1.95 18.0 4.8 L17.5 6.65 17.25 7.35 17.25 7.4 17.25 7.65 17.15 8.05 17.0 8.1 Q16.55 8.35 16.35 9.0 L16.2 9.45 16.15 9.9 16.1 10.55 16.1 10.65 Q16.1 11.65 16.5 12.55 14.7 13.05 13.6 13.65 13.45 11.05 12.3 9.75 L11.6 9.15 11.45 8.9 Q10.95 8.75 10.65 8.4 L10.6 8.25 10.5 8.25 9.65 8.5 9.0 8.75 8.9 8.8 8.7 9.45 8.3 10.7 Q7.6 10.15 6.5 9.75 L6.55 9.55 6.75 9.05 6.95 8.0 6.95 7.9 6.95 7.7 6.95 7.55 6.95 7.5 6.75 6.55 6.75 6.45 6.75 6.0 6.75 5.7 6.7 5.15 7.1 4.8 7.15 4.7 7.25 4.3 7.25 4.25 7.25 4.05 Q7.25 2.2 5.95 1.2 4.65 0.15 4.65 2.15 L4.65 2.35 4.65 2.4 Q4.7 2.95 4.9 3.4 L4.95 3.5 4.75 3.5 3.65 3.85 Q1.6 4.95 0.9 7.35 L0.7 8.0 0.5 10.15 0.5 10.35 0.9 12.85 0.8 12.85 -0.55 13.0 Q-0.55 11.4 -2.25 10.75 L-4.05 10.2 -4.25 10.15 Q-3.8 9.15 -3.75 8.35 L-3.75 8.2 -3.75 7.95 -3.8 7.15 -3.85 6.9 Q-4.1 6.05 -5.0 5.75 L-6.75 5.75 -7.95 6.35 -8.85 7.15 -9.4 7.65 -9.85 8.35 -10.4 9.85 -10.45 10.1 -10.45 10.5 -10.6 10.5 -10.8 10.4 -11.3 10.15 -12.65 9.5 -13.3 9.25 -12.15 7.85 -11.95 7.45 -11.85 6.8 -11.8 5.7 Q-11.8 5.15 -11.95 4.7 L-12.35 4.5 Q-12.95 3.75 -14.2 3.5 -15.95 3.1 -16.45 4.25 L-16.65 5.25 -17.25 5.65 M-10.15 0.1 L-10.15 -0.05 -10.15 -0.1 -10.15 -0.4 Q-10.15 -2.4 -11.75 -2.5 -13.35 -2.6 -13.35 -0.65 L-13.3 -0.4 -13.15 0.45 Q-12.9 1.55 -12.15 1.55 -10.65 1.55 -10.25 0.7 L-10.15 0.1 M-3.5 -6.6 L-3.5 -6.75 Q-3.9 -9.4 -5.55 -8.75 L-5.75 -8.65 Q-7.55 -8.75 -7.55 -5.9 L-7.55 -5.75 -7.55 -5.7 -7.15 -4.4 -5.95 -2.6 -5.5 -2.05 -5.5 -2.0 -5.45 -2.0 Q-4.2 -2.0 -3.8 -3.2 L-3.6 -4.8 -3.6 -5.15 -3.6 -5.6 -3.5 -6.3 -3.5 -6.6" fill="#bbb4ae" fill-rule="evenodd" stroke="none"/>
      <path d="M19.85 -28.55 L19.85 -27.9 19.85 -28.6 19.85 -28.55" fill="#848c9f" fill-rule="evenodd" stroke="none"/>
      <path d="M14.55 20.8 L14.35 20.7 14.6 20.15 14.65 20.15 14.55 20.8" fill="#d6d3d1" fill-rule="evenodd" stroke="none"/>
      <path d="M23.75 -18.95 Q24.15 -19.3 24.15 -17.6 L23.85 -11.6 23.65 -11.45 23.65 -11.3 23.15 -9.2 22.8 -8.35 Q22.75 -6.7 21.6 -3.4 L20.95 -1.7 20.95 -1.3 19.8 1.95 Q18.65 5.2 18.5 6.4 L18.0 6.6 17.65 7.15 17.2 8.75 16.75 7.15 16.95 5.7 16.6 5.8 16.55 5.2 Q16.5 4.0 17.55 1.15 L19.75 -5.0 20.85 -8.45 21.05 -9.05 Q23.0 -16.6 22.75 -23.8 22.65 -27.65 23.7 -20.5 L23.75 -20.35 23.75 -19.95 23.75 -19.9 23.75 -18.95 M1.9 7.1 Q3.3 9.05 3.3 11.3 L3.25 11.7 Q3.3 11.9 2.8 11.9 L1.7 11.05 1.7 10.9 Q1.7 9.05 -0.8 5.95 L-3.65 0.8 Q-4.7 -1.0 -5.95 -2.15 L-6.2 -2.65 -10.5 -9.25 -12.4 -12.25 -14.55 -15.45 -15.3 -16.15 -15.3 -16.1 Q-20.5 -24.7 -20.5 -31.7 -20.5 -33.15 -19.7 -33.65 L-19.7 -33.05 Q-19.7 -27.75 -17.1 -23.8 L-16.1 -22.55 -15.7 -21.7 -14.55 -20.0 Q-13.2 -17.3 -12.25 -16.55 L-10.0 -13.35 Q-6.6 -9.2 -3.2 -4.05 1.9 3.75 1.9 6.9 L1.9 7.1" fill="#554024" fill-rule="evenodd" stroke="none"/>
      <path d="M1.2 13.5 L1.4 12.4 1.55 11.3 1.6 10.2 1.7 9.0 1.75 7.9 1.75 6.8 1.75 5.7 1.7 4.15 1.85 3.9 2.15 3.5 2.35 3.2 2.45 3.05 2.45 3.0 3.0 2.75 4.75 2.75 5.0 2.85 5.6 2.85 6.35 2.8 7.4 2.8 8.6 2.75 11.35 2.8 12.9 2.7 14.25 2.9 15.35 2.85 17.45 3.1 17.75 3.4 18.1 4.05 18.35 4.9 18.4 5.35 18.5 7.9 18.65 9.5 18.7 10.3 18.8 11.4 18.65 11.4 18.05 13.15 17.95 13.7 15.0 13.8 13.0 13.8 10.95 13.8 9.85 13.75 8.85 13.75 7.75 13.75 6.7 13.75 5.6 13.7 4.55 13.7 3.45 13.6 2.35 13.6 1.2 13.5 M19.0 14.15 L19.0 14.7 18.85 16.55 18.85 18.3 18.9 20.25 Q18.4 20.7 17.95 21.65 L17.75 22.0 Q16.6 22.6 15.15 22.45 L10.9 22.55 9.2 22.65 7.5 22.75 5.8 22.85 4.0 22.85 3.1 22.85 2.7 22.7 2.15 21.9 1.3 20.45 1.55 14.75 18.25 15.4 19.0 14.15 M9.35 11.55 L9.4 12.05 9.5 12.4 10.35 12.65 Q11.3 12.65 11.85 11.8 L11.85 11.45 11.65 10.7 11.35 10.45 10.85 10.3 9.75 10.35 Q9.3 10.55 9.25 11.25 L9.35 11.55" fill="#8b693a" fill-rule="evenodd" stroke="none"/>
      <path d="M9.35 11.55 L9.25 11.25 Q9.3 10.55 9.75 10.35 L10.85 10.3 Q11.15 10.8 10.8 11.35 L10.4 11.65 9.35 11.55" fill="#ebebeb" fill-rule="evenodd" stroke="none"/>
      <path d="M10.85 10.3 L11.35 10.45 11.65 10.7 11.85 11.45 11.85 11.8 Q11.3 12.65 10.35 12.65 L9.5 12.4 9.4 12.05 9.35 11.55 10.4 11.65 10.8 11.35 Q11.15 10.8 10.85 10.3" fill="#bbb4ae" fill-rule="evenodd" stroke="none"/>
      <path d="M18.8 11.4 L19.0 14.15 18.25 15.4 1.55 14.75 1.55 14.3 Q1.55 13.7 1.2 13.5 L2.35 13.6 3.45 13.6 4.55 13.7 5.6 13.7 6.7 13.75 7.75 13.75 8.85 13.75 9.85 13.75 10.95 13.8 13.0 13.8 15.0 13.8 17.95 13.7 18.05 13.15 18.65 11.4 18.8 11.4 M18.9 20.25 L18.85 21.45 18.85 22.0 18.85 22.3 18.7 23.3 18.1 23.8 17.75 24.1 16.95 24.3 16.75 24.35 16.35 24.35 15.0 24.55 12.0 24.9 9.7 25.0 9.1 25.0 7.2 25.0 3.6 24.85 3.2 24.8 2.0 24.35 1.7 23.5 1.4 21.7 1.3 20.45 2.15 21.9 2.7 22.7 3.1 22.85 4.0 22.85 5.8 22.85 7.5 22.75 9.2 22.65 10.9 22.55 15.15 22.45 Q16.6 22.6 17.75 22.0 L17.95 21.65 Q18.4 20.7 18.9 20.25" fill="#6a502d" fill-rule="evenodd" stroke="none"/>
    </g>
    <g id="sprite25" transform="matrix(1.0, 0.0, 0.0, 1.0, 10.6, 16.35)">
      <use ffdec:characterId="1828" ffdec:characterName="game_fla.upperarm1_613" height="60.5" id="upperArm1" transform="matrix(1.0, 0.0, 0.0, 1.0, -10.6, -16.35)" width="20.45" xlink:href="#sprite26"/>
      <use ffdec:characterId="1834" height="67.95" id="lowerArmOuter1" transform="matrix(0.9999, 0.0, 0.0, 0.9999, -8.4994, 32.4003)" width="18.5" xlink:href="#sprite27"/>
    </g>
    <g id="sprite26" transform="matrix(1.0, 0.0, 0.0, 1.0, 9.3, 33.0)">
      <use ffdec:characterId="1824" height="55.0" transform="matrix(1.0, 0.0, 0.0, 1.0, -9.3, -27.65)" width="20.45" xlink:href="#shape17"/>
      <use ffdec:characterId="1081" height="100.0" id="shape" transform="matrix(0.18, 0.0, 0.0, 0.55, -8.9996, -27.4994)" width="100.0" xlink:href="#sprite2"/>
    </g>
    <g id="shape17" transform="matrix(1.0, 0.0, 0.0, 1.0, 9.3, 27.65)">
      <path d="M-9.2 -10.55 L-9.25 -11.2 -9.25 -14.5 -9.05 -17.4 -8.5 -20.25 -8.0 -21.6 -7.35 -22.65 -6.75 -23.4 Q-4.8 -25.65 -2.2 -26.75 L-2.1 -26.75 Q0.5 -27.9 3.45 -27.55 L4.5 -27.1 Q6.6 -26.3 8.3 -24.9 9.5 -23.65 10.15 -22.1 L10.9 -19.15 Q11.35 -17.05 11.05 -14.4 L10.5 -9.75 10.05 -6.45 9.95 -5.25 Q9.25 -5.15 7.9 -4.3 L7.65 -4.15 7.2 -3.85 8.05 -7.05 8.4 -8.15 8.2 -9.8 8.25 -12.9 8.25 -15.15 8.2 -15.9 8.3 -16.9 8.1 -17.6 7.2 -21.35 5.55 -23.8 Q4.1 -24.5 2.15 -24.6 L-0.5 -24.55 Q-1.2 -25.7 -4.6 -23.45 -8.85 -20.6 -8.85 -18.05 L-9.2 -10.55 M-8.9 -1.55 L-8.9 -1.85 -8.75 -2.15 -8.7 -1.9 -8.85 -1.65 -8.9 -1.55 M0.15 -9.05 L0.15 -9.7 0.15 -9.25 0.15 -9.05 M5.5 -2.15 L5.55 -3.0 5.35 -4.4 5.6 -5.6 6.65 -9.85 6.9 -8.7 6.9 -5.2 7.0 -3.65 5.5 -2.15" fill="#e8e7e6" fill-rule="evenodd" stroke="none"/>
      <path d="M-9.2 -10.55 L-8.85 -18.05 Q-8.85 -20.6 -4.6 -23.45 -1.2 -25.7 -0.5 -24.55 L2.15 -24.6 Q4.1 -24.5 5.55 -23.8 L7.2 -21.35 8.1 -17.6 8.3 -16.9 8.2 -15.9 8.25 -15.15 8.25 -12.9 8.2 -9.8 8.4 -8.15 8.05 -7.05 7.2 -3.85 7.0 -3.65 6.9 -5.2 6.9 -8.7 6.65 -9.85 5.6 -5.6 5.35 -4.4 5.55 -3.0 5.5 -2.15 5.5 -2.1 5.1 -1.4 4.8 -0.6 4.65 -0.1 4.6 0.15 4.55 0.95 Q4.5 1.8 4.6 2.4 L3.5 2.05 2.45 1.75 Q3.05 1.65 3.05 1.15 L2.85 -0.2 2.8 -0.35 2.6 -0.95 2.4 -1.5 1.4 -3.65 1.35 -3.7 0.4 -6.45 0.05 -7.45 0.0 -8.35 Q0.0 -9.45 0.15 -10.1 L0.15 -9.95 0.15 -9.7 0.15 -9.05 0.2 -8.75 0.2 -8.7 Q0.4 -7.5 1.3 -7.5 2.2 -7.5 2.8 -8.25 3.35 -8.95 3.35 -9.5 L3.3 -10.5 Q3.15 -11.85 2.5 -12.2 L3.0 -11.7 3.9 -14.55 3.75 -14.75 3.9 -15.7 Q3.9 -19.7 3.0 -19.85 2.2 -20.05 1.95 -20.4 L1.2 -21.8 -0.8 -21.8 -1.85 -21.4 -3.1 -20.75 -3.65 -19.85 -4.0 -19.45 -4.8 -17.15 -5.25 -16.1 -5.9 -14.2 Q-6.6 -11.3 -6.6 -8.9 L-6.55 -7.35 -6.5 -7.4 -6.65 -6.2 -6.6 -5.3 -6.35 -4.2 -6.35 -4.1 -6.4 -4.1 -6.4 -3.65 -6.6 -0.4 -6.65 0.5 -6.45 0.9 Q-6.8 0.05 -7.7 -0.3 L-7.75 -0.35 -7.85 -0.35 -9.05 -0.6 -9.1 -1.1 -8.9 -1.55 -8.85 -1.65 -8.7 -1.9 -8.75 -2.15 Q-9.2 -4.4 -9.2 -10.4 L-9.2 -10.55 M1.95 1.3 L2.1 1.6 1.95 1.35 1.95 1.3" fill="#d7d3d0" fill-rule="evenodd" stroke="none"/>
      <path d="M-6.5 -7.4 L-6.55 -7.35 -6.6 -8.9 Q-6.6 -11.3 -5.9 -14.2 L-5.25 -16.1 -4.8 -17.15 -4.0 -19.45 -3.65 -19.85 -3.1 -20.75 -1.85 -21.4 -0.8 -21.8 1.2 -21.8 1.95 -20.4 Q2.2 -20.05 3.0 -19.85 3.9 -19.7 3.9 -15.7 L3.75 -14.75 3.9 -14.55 3.0 -11.7 2.5 -12.2 1.85 -12.3 1.75 -12.3 Q0.2 -12.0 0.15 -10.1 0.0 -9.45 0.0 -8.35 L0.05 -7.45 0.4 -6.45 1.35 -3.7 1.4 -3.65 2.4 -1.5 2.6 -0.95 2.8 -0.35 2.85 -0.2 3.05 1.15 Q3.05 1.65 2.45 1.75 L2.2 1.75 2.1 1.6 1.95 1.3 Q1.2 -0.1 0.5 -0.15 L-0.6 -0.15 Q-2.1 1.55 -2.1 3.4 L-1.95 3.85 -1.8 4.25 -2.1 4.8 Q-2.25 5.6 -3.45 7.85 L-3.6 8.4 -3.95 8.55 -5.85 5.75 -6.0 5.85 -6.3 5.75 -6.35 5.4 -6.0 2.75 -6.2 1.7 -6.25 1.6 -6.3 1.4 -6.45 0.9 -6.65 0.5 -6.6 -0.4 -6.4 -3.65 Q-4.7 -2.55 -4.1 -2.55 L-3.95 -2.55 -3.85 -2.55 Q-3.6 -2.65 -3.65 -3.0 L-3.65 -3.05 -3.25 -3.85 -2.9 -4.95 Q-2.9 -5.85 -3.15 -6.5 L-3.3 -6.85 -3.3 -7.0 -4.1 -8.1 Q-4.55 -8.55 -4.75 -8.35 -5.05 -8.65 -5.55 -8.65 -6.45 -8.65 -6.5 -7.4 M-5.2 4.65 L-5.15 4.7 -5.2 4.55 -5.2 4.65" fill="#bbb4ae" fill-rule="evenodd" stroke="none"/>
      <path d="M7.6 2.3 L7.6 4.3 Q7.6 7.4 7.4 8.2 L6.95 9.45 7.2 9.4 6.95 13.0 6.95 13.6 Q6.65 17.95 6.9 20.15 7.0 21.75 5.95 24.0 4.35 27.05 1.3 27.3 -1.85 27.6 -3.8 26.65 -5.35 25.0 -6.15 22.75 L-6.75 20.9 -7.3 14.2 -7.4 13.95 -7.4 11.75 -7.3 9.1 -7.3 8.0 -7.4 7.2 -7.5 6.9 -7.5 6.4 -7.8 1.6 -7.75 1.65 -7.8 0.85 -7.75 -0.35 -7.7 -0.3 -7.75 0.1 Q-7.75 1.4 -7.35 2.25 L-7.35 2.4 -7.15 2.65 -7.25 3.05 -6.4 5.5 Q-5.6 7.85 -5.55 8.65 -5.55 9.75 -4.0 11.65 L-1.75 14.25 -1.4 14.15 -1.3 13.7 -2.55 11.25 -3.2 9.8 -3.1 8.9 -3.1 8.35 -2.3 6.1 -2.15 5.8 -2.0 5.65 -1.1 4.1 -0.5 3.5 0.0 3.05 1.4 2.65 4.1 2.95 4.6 2.95 4.8 2.95 5.0 2.9 5.45 2.7 5.85 2.45 5.95 2.45 7.05 2.9 7.15 2.9 7.35 3.1 7.5 2.75 7.45 2.3 7.6 2.3 M-3.15 -6.5 Q-2.9 -5.85 -2.9 -4.95 L-3.25 -3.85 -3.65 -3.05 -3.65 -3.0 Q-3.6 -2.65 -3.85 -2.55 L-3.95 -2.55 -4.1 -2.55 Q-4.7 -2.55 -6.4 -3.65 L-6.4 -4.1 -6.35 -4.1 -6.35 -4.15 -6.35 -4.2 -6.6 -5.3 -6.5 -5.3 Q-5.8 -5.3 -5.6 -5.9 L-5.55 -6.65 -4.25 -6.75 -3.2 -6.5 -3.15 -6.5 M3.3 -10.5 L3.35 -9.5 Q3.35 -8.95 2.8 -8.25 2.2 -7.5 1.3 -7.5 0.4 -7.5 0.2 -8.7 L0.2 -8.75 0.15 -9.05 0.15 -9.25 0.75 -9.15 Q1.4 -9.15 3.3 -10.5 M4.65 -0.1 L4.7 -0.05 4.6 0.15 4.65 -0.1 M5.5 -1.6 L5.55 -1.6 5.5 -1.5 5.5 -1.6 M5.55 -1.75 L5.6 -1.75 5.5 -1.65 5.55 -1.75 M0.5 2.6 L0.8 2.5 0.4 2.65 0.5 2.6 M-7.5 3.75 L-7.45 3.8 -7.5 3.6 -7.5 3.75 M-3.95 18.35 L-4.0 18.35 -3.9 18.8 -3.95 18.35" fill="#ffcc99" fill-rule="evenodd" stroke="none"/>
      <path d="M7.2 -3.85 L7.65 -4.15 7.9 -4.3 7.9 -3.1 7.6 1.1 7.65 1.65 7.6 2.25 7.6 2.3 7.45 2.3 7.5 2.75 7.35 3.1 7.15 2.9 7.05 2.9 5.95 2.45 5.85 2.45 5.45 2.7 5.0 2.9 4.8 2.95 4.6 2.95 4.1 2.95 1.4 2.65 0.0 3.05 -0.5 3.5 -1.1 4.1 -2.0 5.65 -2.15 5.8 -2.3 6.1 -3.1 8.35 -3.1 8.9 -3.2 9.8 -2.55 11.25 -1.3 13.7 -1.4 14.15 -1.75 14.25 -4.0 11.65 Q-5.55 9.75 -5.55 8.65 -5.6 7.85 -6.4 5.5 L-7.25 3.05 -7.15 2.65 -7.35 2.4 -7.35 2.25 Q-7.75 1.4 -7.75 0.1 L-7.7 -0.3 Q-6.8 0.05 -6.45 0.9 L-6.3 1.4 -6.25 1.6 -6.2 1.7 -6.0 2.75 -6.35 5.4 -6.3 5.75 -6.0 5.85 -5.85 5.75 -3.95 8.55 -3.6 8.4 -3.45 7.85 Q-2.25 5.6 -2.1 4.8 L-1.8 4.25 -1.95 3.85 -2.1 3.4 Q-2.1 1.55 -0.6 -0.15 L0.5 -0.15 Q1.2 -0.1 1.95 1.3 L1.95 1.35 2.1 1.6 2.2 1.75 2.45 1.75 3.5 2.05 4.6 2.4 Q4.5 1.8 4.55 0.95 L4.6 0.15 4.7 -0.05 4.65 -0.1 4.8 -0.6 5.1 -1.4 5.5 -2.1 5.5 -2.15 7.0 -3.65 7.2 -3.85 M-6.5 -7.4 Q-6.45 -8.65 -5.55 -8.65 -5.05 -8.65 -4.75 -8.35 -4.55 -8.55 -4.1 -8.1 L-3.3 -7.0 -3.3 -6.85 -3.15 -6.5 -3.2 -6.5 -4.25 -6.75 -5.55 -6.65 -5.6 -5.9 Q-5.8 -5.3 -6.5 -5.3 L-6.6 -5.3 -6.65 -6.2 -6.5 -7.4 M0.15 -10.1 Q0.2 -12.0 1.75 -12.3 L1.85 -12.3 2.5 -12.2 Q3.15 -11.85 3.3 -10.5 1.4 -9.15 0.75 -9.15 L0.15 -9.25 0.15 -9.7 0.15 -9.95 0.15 -10.1 M5.55 -1.75 L5.5 -1.65 5.6 -1.75 5.55 -1.75 M5.5 -1.6 L5.5 -1.5 5.55 -1.6 5.5 -1.6 M0.5 2.6 L0.4 2.65 0.8 2.5 0.5 2.6 M-5.2 4.65 L-5.2 4.55 -5.15 4.7 -5.2 4.65" fill="#ebbb98" fill-rule="evenodd" stroke="none"/>
      <path d="M-6.35 -4.2 L-6.35 -4.15 -6.35 -4.1 -6.35 -4.2 M-7.5 3.75 L-7.5 3.6 -7.45 3.8 -7.5 3.75" fill="#c4beb9" fill-rule="evenodd" stroke="none"/>
    </g>
    <g id="sprite27" transform="matrix(1.0, 0.0, 0.0, 1.0, 9.4, 5.45)">
      <use ffdec:characterId="1833" ffdec:characterName="game_fla.lowerarm1_615" height="67.95" id="lowerArm1" transform="matrix(1.0, 0.0, 0.0, 1.0, -9.4, -5.45)" width="18.5" xlink:href="#sprite28"/>
    </g>
    <g id="sprite28" transform="matrix(1.0, 0.0, 0.0, 1.0, 8.95, 30.35)">
      <use ffdec:characterId="1830" ffdec:characterName="game_fla.hand_616" height="24.55" id="hand" transform="matrix(1.0, 0.0, 0.0, 1.0, -8.95, 13.05)" width="16.7" xlink:href="#sprite29"/>
      <use ffdec:characterId="1831" height="48.2" transform="matrix(1.0, 0.0, 0.0, 1.0, -7.15, -29.5)" width="13.85" xlink:href="#shape19"/>
      <use ffdec:characterId="1081" height="100.0" id="shape" transform="matrix(0.15, 0.0, 0.0, 0.6, -7.4997, -29.9995)" width="100.0" xlink:href="#sprite2"/>
    </g>
    <g id="sprite29" transform="matrix(1.0, 0.0, 0.0, 1.0, 9.35, 8.9)">
      <use ffdec:characterId="1547" height="17.85" transform="matrix(1.0, 0.0, 0.0, 1.0, -7.3, -8.9)" width="14.65" xlink:href="#shape18"/>
    </g>
    <g id="shape18" transform="matrix(1.0, 0.0, 0.0, 1.0, 7.3, 8.9)">
      <path d="M4.95 -8.9 L5.15 -8.9 5.15 -8.7 7.35 0.55 6.75 2.2 5.6 3.65 5.8 6.3 5.15 5.3 Q3.45 6.0 1.8 7.05 L0.45 6.1 Q-0.4 7.25 -1.15 6.95 L-2.0 6.65 -2.55 5.85 -6.25 4.75 -5.9 4.05 Q-4.8 1.7 -4.3 -0.85 -3.95 -2.9 -3.25 -4.7 -2.75 -5.95 -2.55 -7.15 L-2.45 -7.75 1.6 -8.25 1.35 -7.75 1.75 -7.35 2.2 -7.15 4.15 -4.0 4.95 -7.2 Q5.1 -7.95 4.85 -8.65 L4.95 -8.9 M-4.75 -7.5 L-4.45 -8.45 -4.55 -8.8 -4.55 -8.9 -4.05 -8.9 -4.75 -7.5" fill="#ffcc99" fill-rule="evenodd" stroke="none"/>
      <path d="M5.8 6.3 L5.75 6.7 5.7 6.85 Q4.9 7.55 3.7 8.05 L2.65 7.7 2.5 7.65 2.0 8.1 0.85 8.65 -0.3 8.95 -1.2 7.95 -1.25 8.0 -1.85 8.5 -3.05 8.5 Q-4.9 8.0 -5.5 6.3 L-6.55 5.9 -7.2 4.85 -7.3 4.6 Q-7.2 -0.15 -5.5 -5.05 L-4.75 -7.5 -4.05 -8.9 4.95 -8.9 4.85 -8.65 Q5.1 -7.95 4.95 -7.2 L4.15 -4.0 2.2 -7.15 1.75 -7.35 1.35 -7.75 1.6 -8.25 -2.45 -7.75 -2.55 -7.15 Q-2.75 -5.95 -3.25 -4.7 -3.95 -2.9 -4.3 -0.85 -4.8 1.7 -5.9 4.05 L-6.25 4.75 -2.55 5.85 -2.0 6.65 -1.15 6.95 Q-0.4 7.25 0.45 6.1 L1.8 7.05 Q3.45 6.0 5.15 5.3 L5.8 6.3" fill="#ebbb98" fill-rule="evenodd" stroke="none"/>
    </g>
    <g id="shape19" transform="matrix(1.0, 0.0, 0.0, 1.0, 7.15, 29.5)">
      <path d="M2.45 -27.75 Q2.3 -28.15 1.8 -28.2 L1.45 -27.75 -0.25 -25.05 -1.2 -23.2 Q-2.4 -20.75 -3.2 -18.1 L-3.85 -15.7 -5.2 -10.5 -5.8 -8.3 -5.65 -8.75 -5.2 -4.15 -3.7 1.65 -3.6 2.15 -3.65 -3.15 -3.4 -6.05 -2.8 -10.5 -1.8 -15.7 -0.75 -19.8 0.35 -21.15 1.15 -17.7 1.3 -18.3 Q1.7 -20.2 1.45 -21.05 0.55 -23.55 1.85 -25.95 2.55 -27.2 2.45 -27.75 M-4.7 -28.5 L-3.95 -28.15 -2.1 -27.85 Q0.65 -27.8 2.6 -29.5 L4.85 -28.65 5.15 -27.75 Q6.35 -23.95 6.55 -20.8 L6.65 -15.7 6.4 -12.75 6.2 -10.5 5.55 -3.2 5.15 2.85 5.1 4.75 4.85 2.85 3.85 -2.55 3.35 -4.95 3.6 8.95 4.25 9.55 5.05 11.1 Q4.85 11.75 3.25 11.85 L-1.65 12.1 Q-1.75 12.15 -1.9 12.0 -1.95 10.85 -2.7 8.4 -2.65 10.5 -4.15 13.0 -4.15 8.7 -5.1 2.8 L-5.25 2.05 Q-6.45 -4.5 -6.85 -8.45 L-7.0 -10.5 -7.15 -14.55 -7.1 -15.7 -7.0 -23.95 Q-5.65 -24.95 -5.8 -22.2 -5.25 -22.15 -4.75 -23.55 -4.3 -24.85 -4.6 -27.75 L-4.7 -28.5 M5.45 12.65 L5.5 13.0 5.35 13.0 5.45 12.65" fill="#ffcc99" fill-rule="evenodd" stroke="none"/>
      <path d="M2.45 -27.75 Q2.55 -27.2 1.85 -25.95 0.55 -23.55 1.45 -21.05 1.7 -20.2 1.3 -18.3 L1.15 -17.7 0.35 -21.15 -0.75 -19.8 -1.8 -15.7 -2.8 -10.5 -3.4 -6.05 -3.65 -3.15 -3.6 2.15 -3.7 1.65 -5.2 -4.15 -5.65 -8.75 -5.8 -8.3 -5.2 -10.5 -3.85 -15.7 -3.2 -18.1 Q-2.4 -20.75 -1.2 -23.2 L-0.25 -25.05 1.45 -27.75 1.8 -28.2 Q2.3 -28.15 2.45 -27.75 M-4.15 13.0 Q-2.65 10.5 -2.7 8.4 -1.95 10.85 -1.9 12.0 -1.75 12.15 -1.65 12.1 L3.25 11.85 Q4.85 11.75 5.05 11.1 L4.25 9.55 3.6 8.95 3.35 -4.95 3.85 -2.55 4.85 2.85 5.1 4.75 5.15 9.6 5.3 11.2 5.45 12.15 5.45 12.65 5.35 13.0 Q1.1 24.4 -4.15 13.0" fill="#ebbb98" fill-rule="evenodd" stroke="none"/>
      <path d="M-4.7 -28.5 L-4.6 -27.75 Q-4.3 -24.85 -4.75 -23.55 -5.25 -22.15 -5.8 -22.2 -5.65 -24.95 -7.0 -23.95 L-5.75 -27.75 -5.6 -28.3 Q-5.4 -28.9 -4.7 -28.5" fill="#e2b181" fill-rule="evenodd" stroke="none"/>
    </g>
  </defs>
</svg>
