<?xml version="1.0" encoding="UTF-8" standalone="no"?>
<svg xmlns:ffdec="https://www.free-decompiler.com/flash" xmlns:xlink="http://www.w3.org/1999/xlink" ffdec:objectType="frame" height="4.0px" width="45.5px" xmlns="http://www.w3.org/2000/svg">
  <g transform="matrix(1.0, 0.0, 0.0, 1.0, 22.5, 2.0)">
    <use ffdec:characterId="2898" height="4.0" transform="matrix(1.0, 0.0, 0.0, 1.0, -22.5, -2.0)" width="45.5" xlink:href="#shape0"/>
    <use ffdec:characterId="2900" height="2.0" id="bar" transform="matrix(1.0, 0.0, 0.0, 2.0, -22.5, -2.0)" width="45.5" xlink:href="#sprite0"/>
  </g>
  <defs>
    <g id="shape0" transform="matrix(1.0, 0.0, 0.0, 1.0, 22.5, 2.0)">
      <path d="M-22.5 0.0 L-22.5 -2.0 23.0 -2.0 23.0 0.0 -22.5 0.0" fill="#d2d2d2" fill-rule="evenodd" stroke="none"/>
      <path d="M23.0 0.0 L23.0 2.0 -22.5 2.0 -22.5 0.0 23.0 0.0" fill="#f7f7f7" fill-rule="evenodd" stroke="none"/>
    </g>
    <g id="sprite0" transform="matrix(1.0, 0.0, 0.0, 1.0, 0.0, 1.0)">
      <use ffdec:characterId="2899" height="2.0" transform="matrix(1.0, 0.0, 0.0, 1.0, 0.0, -1.0)" width="45.5" xlink:href="#shape1"/>
    </g>
    <g id="shape1" transform="matrix(1.0, 0.0, 0.0, 1.0, 0.0, 1.0)">
      <path d="M0.0 0.0 L0.0 -1.0 45.5 -1.0 45.5 0.0 0.0 0.0" fill="#64b7bb" fill-rule="evenodd" stroke="none"/>
      <path d="M45.5 0.0 L45.5 1.0 0.0 1.0 0.0 0.0 45.5 0.0" fill="#95cdd0" fill-rule="evenodd" stroke="none"/>
    </g>
  </defs>
</svg>
