<?xml version="1.0" encoding="UTF-8" standalone="no"?>
<svg xmlns:ffdec="https://www.free-decompiler.com/flash" xmlns:xlink="http://www.w3.org/1999/xlink" ffdec:objectType="frame" height="151.4px" width="40.25px" xmlns="http://www.w3.org/2000/svg">
  <g transform="matrix(1.0, 0.0, 0.0, 1.0, 13.75, 11.0)">
    <use ffdec:characterId="2311" ffdec:characterName="game_fla.upperleg2_338" height="86.35" id="upperLeg2" transform="matrix(1.0, 0.0, 0.0, 1.0, -13.35, -11.0)" width="31.0" xlink:href="#sprite0"/>
    <use ffdec:characterId="2318" height="79.9" id="lowerLegOuter2" transform="matrix(1.0, 0.0, 0.0, 1.0, -13.75, 60.5)" width="40.25" xlink:href="#sprite2"/>
  </g>
  <defs>
    <g id="sprite0" transform="matrix(1.0, 0.0, 0.0, 1.0, 14.15, 45.35)">
      <use ffdec:characterId="2307" height="83.65" transform="matrix(1.0, 0.0, 0.0, 1.0, -13.2, -44.05)" width="27.8" xlink:href="#shape0"/>
      <use ffdec:characterId="1081" height="100.0" id="shape" transform="matrix(0.26, 0.0, 0.0, 0.82, -12.9997, -40.9988)" width="100.0" xlink:href="#sprite1"/>
    </g>
    <g id="shape0" transform="matrix(1.0, 0.0, 0.0, 1.0, 13.2, 44.05)">
      <path d="M-9.55 -41.4 L-9.6 -41.35 -9.6 -41.4 -9.55 -41.4 M-7.2 0.95 L-1.55 1.2 -1.7 4.5 -6.95 4.1 -6.95 4.0 -7.0 4.1 -6.95 4.1 -8.4 8.8 -9.15 1.05 -9.15 0.85 -7.2 0.95" fill="#c79b68" fill-rule="evenodd" stroke="none"/>
      <path d="M-1.55 1.2 L6.2 1.65 10.9 2.1 12.55 2.2 12.4 5.75 -1.7 4.5 -1.95 7.1 Q-3.5 11.25 -3.9 14.3 -4.0 14.85 -6.1 18.8 L-6.25 19.15 -8.3 22.75 -8.1 18.5 Q-7.95 14.3 -8.4 8.8 L-6.95 4.1 -7.0 4.1 -6.95 4.0 -6.95 4.1 -1.7 4.5 -1.55 1.2 M7.75 13.55 L9.3 6.85 Q10.45 12.85 8.45 18.8 L7.9 20.35 8.2 21.25 Q8.4 22.4 8.25 23.65 L8.1 24.9 7.75 26.65 4.1 25.7 2.05 27.05 1.25 27.4 4.0 23.3 Q6.1 19.25 7.75 13.55" fill="#d5a675" fill-rule="evenodd" stroke="none"/>
      <path d="M12.4 5.75 L12.25 8.4 Q11.95 14.1 11.1 20.75 L10.4 25.25 10.3 25.8 8.75 31.45 7.85 33.45 5.4 37.6 Q4.65 38.6 0.65 39.45 -1.45 39.75 -3.25 39.5 -5.0 39.25 -6.45 38.55 -9.05 37.7 -10.45 35.35 L-11.3 33.7 -11.05 30.7 -10.0 28.45 Q-8.6 25.35 -8.5 24.7 L-8.3 22.75 -6.25 19.15 -6.1 18.8 Q-4.0 14.85 -3.9 14.3 -3.5 11.25 -1.95 7.1 L-1.7 4.5 12.4 5.75 M7.75 13.55 Q6.1 19.25 4.0 23.3 L1.25 27.4 2.05 27.05 4.1 25.7 7.75 26.65 8.1 24.9 8.25 23.65 Q8.4 22.4 8.2 21.25 L7.9 20.35 8.45 18.8 Q10.45 12.85 9.3 6.85 L7.75 13.55" fill="#e2b181" fill-rule="evenodd" stroke="none"/>
      <path d="M10.65 -39.35 L10.85 -38.8 Q11.2 -37.65 11.0 -36.5 L11.0 -36.45 Q10.8 -35.35 9.0 -31.3 L7.15 -27.35 6.95 -26.3 7.85 -26.6 8.65 -26.8 9.3 -26.7 6.45 -21.3 Q5.1 -18.85 4.45 -16.85 L4.1 -15.65 4.3 -15.6 5.0 -16.95 Q6.15 -18.75 8.55 -19.55 8.2 -19.3 7.75 -17.5 L7.35 -15.45 Q6.85 -12.75 6.2 1.65 L-1.55 1.2 -7.2 0.95 Q-6.85 -7.2 -9.45 -15.6 L-12.4 -25.6 -12.9 -27.35 -12.9 -28.15 -12.95 -34.8 -12.95 -34.85 Q-12.3 -38.1 -9.75 -41.2 L-9.6 -41.35 -9.55 -41.4 Q-7.05 -44.4 -1.4 -44.0 4.5 -43.7 9.2 -40.4 L9.8 -40.0 10.65 -39.35" fill="#957648" fill-rule="evenodd" stroke="none"/>
      <path d="M6.2 1.65 Q6.85 -12.75 7.35 -15.45 L7.75 -17.5 Q8.2 -19.3 8.55 -19.55 6.15 -18.75 5.0 -16.95 L4.3 -15.6 4.1 -15.65 4.45 -16.85 Q5.1 -18.85 6.45 -21.3 L9.3 -26.7 8.65 -26.8 7.85 -26.6 6.95 -26.3 7.15 -27.35 9.0 -31.3 Q10.8 -35.35 11.0 -36.45 L11.0 -36.5 Q11.2 -37.65 10.85 -38.8 L10.65 -39.35 Q12.7 -37.7 13.55 -36.0 13.7 -34.6 13.35 -32.5 L13.25 -32.1 11.85 -26.9 11.5 -18.6 11.35 -13.75 10.9 2.1 6.2 1.65 M-12.9 -27.35 L-12.4 -25.6 -9.45 -15.6 Q-6.85 -7.2 -7.2 0.95 L-9.15 0.85 -11.7 0.7 -12.1 -4.75 -12.7 -17.6 -12.9 -27.35" fill="#b18f5f" fill-rule="evenodd" stroke="none"/>
      <path d="M10.9 2.1 L11.35 -13.75 11.5 -18.6 11.85 -26.9 13.25 -32.1 13.35 -32.5 Q13.7 -34.6 13.55 -36.0 14.1 -35.0 14.05 -33.9 L14.3 -24.2 14.5 -9.2 14.6 -5.35 14.25 2.35 12.55 2.2 10.9 2.1" fill="#bfa47b" fill-rule="evenodd" stroke="none"/>
      <path d="M-12.95 -34.8 L-12.9 -28.15 -13.0 -28.8 Q-13.45 -32.1 -12.95 -34.8" fill="#ad5a95" fill-rule="evenodd" stroke="none"/>
    </g>
    <g id="sprite1" transform="matrix(1.0, 0.0, 0.0, 1.0, 50.0, 50.0)">
      <use ffdec:characterId="1080" height="100.0" transform="matrix(1.0, 0.0, 0.0, 1.0, -50.0, -50.0)" width="100.0" xlink:href="#shape1"/>
    </g>
    <g id="shape1" transform="matrix(1.0, 0.0, 0.0, 1.0, 50.0, 50.0)">
      <path d="M50.0 50.0 L-50.0 50.0 -50.0 -50.0 50.0 -50.0 50.0 50.0 Z" fill="none" stroke="#9900ff" stroke-linecap="round" stroke-linejoin="round" stroke-width="0.05"/>
    </g>
    <g id="sprite2" transform="matrix(1.0, 0.0, 0.0, 1.0, 15.95, 4.75)">
      <use ffdec:characterId="2317" ffdec:characterName="game_fla.lowerleg2_340" height="79.9" id="lowerLeg2" transform="matrix(1.0, 0.0, 0.0, 1.0, -15.95, -4.75)" width="40.25" xlink:href="#sprite3"/>
    </g>
    <g id="sprite3" transform="matrix(1.0, 0.0, 0.0, 1.0, 14.25, 38.15)">
      <use ffdec:characterId="2312" height="66.3" transform="matrix(1.0, 0.0, 0.0, 1.0, -11.0, -38.15)" width="20.45" xlink:href="#shape2"/>
      <use ffdec:characterId="2313" height="20.9" transform="matrix(1.0, 0.0, 0.0, 1.0, -14.25, 20.85)" width="40.25" xlink:href="#shape3"/>
      <use ffdec:characterId="1081" height="100.0" id="shape" transform="matrix(0.2, 0.0, 0.0, 0.7601, -9.9998, -38.0028)" width="100.0" xlink:href="#sprite1"/>
    </g>
    <g id="shape2" transform="matrix(1.0, 0.0, 0.0, 1.0, 11.0, 38.15)">
      <path d="M3.35 -35.7 L4.7 -37.65 6.4 -37.7 Q7.95 -36.55 8.85 -34.1 L9.2 -33.0 9.45 -28.95 8.75 -30.85 8.15 -30.8 7.25 -31.4 3.7 -28.85 2.85 -30.3 2.7 -33.1 3.35 -35.7 M8.25 -14.2 L7.45 -7.1 7.0 -3.45 6.6 3.1 6.75 9.85 6.85 13.2 5.3 13.2 3.6 13.6 3.9 11.55 3.95 11.5 3.6 10.1 2.7 6.1 2.65 5.65 Q1.95 6.9 1.75 10.25 L1.65 11.85 1.35 10.55 1.65 13.8 1.65 13.95 1.55 13.95 -6.25 15.4 -6.7 15.6 -6.4 11.55 -6.35 10.85 Q-6.25 7.75 -6.75 4.35 L-6.55 4.3 Q-6.0 6.8 -4.6 9.0 -3.2 5.45 -3.2 0.55 L-2.85 -5.6 -2.8 -6.3 -2.7 -6.3 -2.05 -8.25 -1.6 -9.15 -1.8 -9.25 -3.1 -15.2 -6.2 -10.85 -7.95 -8.45 -9.95 -8.95 -10.15 -8.95 -10.7 -11.55 -10.8 -14.45 -11.0 -17.1 -10.95 -20.4 -10.25 -27.8 Q-1.75 -34.95 -0.35 -34.05 -0.2 -34.1 -0.5 -33.65 L-1.4 -32.7 -3.15 -30.1 -0.1 -27.4 Q1.2 -23.1 2.8 -18.85 L3.45 -17.1 3.6 -15.8 3.65 -6.55 3.4 -3.9 3.8 -2.7 4.2 6.15 4.45 7.05 5.85 -6.85 5.85 -6.9 Q7.45 -10.4 8.15 -14.25 L8.25 -14.2" fill="#e2b181" fill-rule="evenodd" stroke="none"/>
      <path d="M9.45 -28.95 L9.4 -23.0 8.55 -16.7 8.2 -14.5 8.15 -14.25 Q7.45 -10.4 5.85 -6.9 L5.85 -6.85 4.45 7.05 4.2 6.15 3.8 -2.7 3.4 -3.9 3.65 -6.55 3.6 -15.8 3.45 -17.1 2.8 -18.85 Q1.2 -23.1 -0.1 -27.4 L-3.15 -30.1 -1.4 -32.7 -0.5 -33.65 Q-0.2 -34.1 -0.35 -34.05 L-0.1 -34.3 2.25 -36.6 3.3 -36.15 3.35 -35.7 2.7 -33.1 2.85 -30.3 3.7 -28.85 7.25 -31.4 8.15 -30.8 8.75 -30.85 9.45 -28.95 M-6.75 4.35 L-7.4 1.05 -8.5 -2.9 -9.05 -4.7 -10.15 -8.95 -9.95 -8.95 -7.95 -8.45 -6.2 -10.85 -3.1 -15.2 -1.8 -9.25 -1.6 -9.15 -2.05 -8.25 -2.7 -6.3 -2.8 -6.3 -2.85 -5.6 -3.2 0.55 Q-3.2 5.45 -4.6 9.0 -6.0 6.8 -6.55 4.3 L-6.75 4.35" fill="#d5a675" fill-rule="evenodd" stroke="none"/>
      <path d="M8.55 -16.7 L8.25 -14.2 8.15 -14.25 8.2 -14.5 8.55 -16.7" fill="#ffcc99" fill-rule="evenodd" stroke="none"/>
      <path d="M1.65 11.85 L1.75 10.25 Q1.95 6.9 2.65 5.65 L2.7 6.1 3.6 10.1 3.95 11.5 3.9 11.55 3.6 13.6 3.5 13.6 1.65 13.95 1.65 13.8 1.65 11.85" fill="#f4c398" fill-rule="evenodd" stroke="none"/>
      <path d="M1.65 11.85 L1.65 13.8 1.35 10.55 1.65 11.85" fill="#ebbb98" fill-rule="evenodd" stroke="none"/>
      <path d="M6.85 13.2 L7.1 13.2 7.45 16.8 7.75 19.3 Q7.85 21.1 7.0 22.65 4.05 28.15 -2.2 28.15 L-3.55 28.05 Q-9.05 27.3 -7.3 20.9 L-7.2 19.45 -7.3 15.9 -6.7 15.6 -6.25 15.4 1.55 13.95 1.65 14.65 2.2 17.5 3.05 19.7 3.35 20.35 4.15 21.65 4.35 22.0 4.4 21.7 Q4.45 20.25 3.95 18.8 L3.55 16.85 3.4 14.9 3.5 13.6 3.6 13.6 5.3 13.2 6.85 13.2 M-0.85 16.05 L-1.1 16.35 -3.0 18.45 -3.45 19.0 Q-4.2 20.1 -4.0 21.9 L-3.8 22.5 -2.75 24.5 -1.5 18.85 -0.85 16.05" fill="#d9d9d9" fill-rule="evenodd" stroke="none"/>
      <path d="M1.65 13.95 L3.5 13.6 3.4 14.9 3.55 16.85 3.95 18.8 Q4.45 20.25 4.4 21.7 L4.35 22.0 4.15 21.65 3.35 20.35 3.05 19.7 2.2 17.5 1.65 14.65 1.55 13.95 1.65 13.95 M-0.85 16.05 L-1.5 18.85 -2.75 24.5 -3.8 22.5 -4.0 21.9 Q-4.2 20.1 -3.45 19.0 L-3.0 18.45 -1.1 16.35 -0.85 16.05" fill="#aaaaaa" fill-rule="evenodd" stroke="none"/>
    </g>
    <g id="shape3" transform="matrix(1.0, 0.0, 0.0, 1.0, 14.25, -20.85)">
      <path d="M-13.35 31.25 L-12.95 28.3 Q-12.7 26.45 -11.4 23.7 -10.0 20.7 -8.9 20.85 L-6.9 21.75 Q-5.1 22.65 -2.65 22.95 -0.35 23.25 3.55 22.95 6.85 22.75 7.15 22.95 7.6 23.2 7.9 23.8 L8.2 24.35 7.3 24.65 Q5.95 25.25 5.1 26.1 L4.75 26.5 5.4 26.75 8.7 25.3 8.75 25.3 9.2 25.9 Q7.8 26.55 6.85 27.7 L5.95 28.85 7.55 28.4 Q9.05 27.8 10.25 26.85 L10.6 27.1 10.95 27.25 8.4 30.25 9.1 30.85 10.15 29.95 12.3 28.1 12.8 28.4 10.75 31.05 10.4 31.6 10.9 31.8 11.85 31.5 Q13.3 30.75 14.3 29.2 L14.8 29.5 13.0 32.0 12.5 32.5 13.35 33.05 14.05 32.65 16.1 30.25 16.7 30.6 17.15 30.85 15.05 33.25 15.25 34.2 15.9 33.95 Q17.45 33.1 18.4 31.55 L18.45 31.55 19.15 31.95 19.45 32.15 20.65 32.9 19.45 32.65 18.85 33.5 18.05 34.5 17.65 35.55 17.45 35.95 20.55 36.7 23.35 37.3 24.1 37.4 22.2 37.45 20.85 37.3 13.7 35.85 11.65 35.4 3.05 34.1 -13.25 31.75 -13.35 31.25 M-14.25 34.9 L-14.2 34.5 -13.6 34.65 -10.1 35.35 -5.25 35.85 -3.85 36.05 4.8 37.05 11.4 38.85 7.85 38.2 2.95 37.2 -2.85 36.55 -8.5 35.95 -13.65 35.05 -14.25 34.9" fill="#000000" fill-rule="evenodd" stroke="none"/>
      <path d="M8.2 24.35 L8.7 25.3 5.4 26.75 4.75 26.5 5.1 26.1 Q5.95 25.25 7.3 24.65 L8.2 24.35 M9.2 25.9 L10.25 26.85 Q9.05 27.8 7.55 28.4 L5.95 28.85 6.85 27.7 Q7.8 26.55 9.2 25.9 M10.95 27.25 L12.3 28.1 10.15 29.95 9.1 30.85 8.4 30.25 10.95 27.25 M12.8 28.4 L14.3 29.2 Q13.3 30.75 11.85 31.5 L10.9 31.8 10.4 31.6 10.75 31.05 12.8 28.4 M14.8 29.5 L16.1 30.25 14.05 32.65 13.35 33.05 12.5 32.5 13.0 32.0 14.8 29.5 M17.15 30.85 L18.4 31.55 Q17.45 33.1 15.9 33.95 L15.25 34.2 15.05 33.25 17.15 30.85 M20.65 32.9 Q22.25 33.2 23.5 33.9 L24.2 34.4 Q25.2 35.1 25.6 35.9 L25.8 36.75 Q26.15 38.25 25.85 39.65 L25.85 39.85 25.95 40.55 25.75 41.45 Q23.25 42.05 19.7 41.5 L0.3 37.9 -0.75 37.75 -5.6 37.3 -10.55 37.0 -11.55 36.9 -13.85 36.45 -14.2 35.35 -14.25 34.9 -13.65 35.05 -8.5 35.95 -2.85 36.55 2.95 37.2 7.85 38.2 11.4 38.85 4.8 37.05 -3.85 36.05 -5.25 35.85 -10.1 35.35 -13.6 34.65 -14.2 34.5 -13.35 31.25 -13.25 31.75 3.05 34.1 11.65 35.4 13.7 35.85 20.85 37.3 22.2 37.45 24.1 37.4 23.35 37.3 20.55 36.7 17.45 35.95 17.65 35.55 18.05 34.5 18.85 33.5 19.45 32.65 20.65 32.9" fill="#ffffff" fill-rule="evenodd" stroke="none"/>
      <path d="M8.7 25.3 L8.75 25.3" fill="none" stroke="#943965" stroke-linecap="round" stroke-linejoin="round" stroke-width="0.05"/>
    </g>
  </defs>
</svg>
