<?xml version="1.0" encoding="UTF-8" standalone="no"?>
<svg xmlns:ffdec="https://www.free-decompiler.com/flash" xmlns:xlink="http://www.w3.org/1999/xlink" ffdec:objectType="frame" height="56.95px" width="47.65px" xmlns="http://www.w3.org/2000/svg">
  <g transform="matrix(1.0, 0.0, 0.0, 1.0, 24.0, 37.45)">
    <use ffdec:characterId="1521" height="39.95" id="mc" transform="matrix(1.045, 0.0, 0.0, 1.0, -17.8657, -21.35)" width="34.3" xlink:href="#sprite0"/>
    <use ffdec:characterId="1519" height="33.25" id="wound" transform="matrix(1.0E-4, 1.0, -1.0, 1.0E-4, 18.0991, -37.4515)" width="25.95" xlink:href="#sprite1"/>
  </g>
  <defs>
    <g id="sprite0" transform="matrix(1.0, 0.0, 0.0, 1.0, 14.8, 38.05)">
      <use ffdec:characterId="1520" height="39.95" transform="matrix(1.0, 0.0, 0.0, 1.0, -14.8, -38.05)" width="34.3" xlink:href="#shape0"/>
    </g>
    <g id="shape0" transform="matrix(1.0, 0.0, 0.0, 1.0, 14.8, 38.05)">
      <path d="M-14.75 -13.1 L-14.75 -15.0 -14.7 -13.1 -14.75 -13.1" fill="#ffffff" fill-rule="evenodd" stroke="none"/>
      <path d="M-1.6 -27.35 Q-1.6 -26.15 -2.35 -25.3 -3.1 -24.5 -4.15 -24.5 L-5.5 -24.55 -6.05 -25.8 -5.35 -25.6 Q-2.7 -24.75 -1.6 -27.35 M-9.15 -20.95 L-9.3 -18.35 -7.95 -19.65 -4.5 -22.15 -3.15 -20.2 -7.65 -16.7 -6.85 -16.5 -4.85 -17.75 -3.45 -19.1 -3.05 -16.9 -2.55 -16.8 -4.1 -14.15 -3.15 -14.8 -1.55 -16.0 -0.4 -17.4 2.35 -18.35 11.15 -14.1 11.75 -15.75 10.8 -16.85 13.05 -17.75 Q14.55 -14.85 14.65 -11.6 L14.65 -10.1 14.6 -7.95 13.95 -3.15 13.85 -2.65 13.85 -2.6 13.8 -2.55 11.05 -0.7 9.15 -0.15 8.8 -0.45 5.5 0.35 5.15 1.1 3.35 1.65 Q-3.95 2.9 -9.2 -1.95 L-9.25 -2.0 -10.4 -3.2 -10.6 -4.4 -10.2 -4.95 -11.15 -6.45 -12.4 -7.1 -12.25 -8.65 -11.55 -9.0 -11.65 -11.05 -12.45 -11.55 -10.95 -16.55 -12.35 -17.85 -12.8 -18.75 -10.75 -19.15 -10.2 -19.45 Q-9.3 -20.1 -9.15 -20.95 M-0.25 -20.35 L0.4 -22.4 2.35 -20.65 0.6 -20.55 1.9 -19.6 0.0 -18.45 -0.75 -18.7 -0.25 -20.35 M5.8 -19.8 L6.65 -22.4 9.65 -21.45 9.15 -18.8 7.9 -20.25 7.0 -19.1 5.8 -19.8 M13.1 -22.05 L11.75 -21.85 9.45 -24.4 Q9.2 -25.25 9.5 -26.0 9.7 -25.25 10.45 -24.8 11.15 -24.35 11.9 -24.2 L12.75 -24.2 13.8 -26.05 Q14.75 -24.4 13.1 -22.05 M8.3 -13.6 L7.6 -13.25 Q8.25 -11.05 10.4 -10.65 L11.45 -10.65 11.9 -10.65 11.75 -12.0 8.3 -13.6 M6.35 -8.65 Q7.15 -9.35 7.15 -9.9 5.4 -15.7 3.55 -15.7 -0.85 -15.7 -0.85 -12.1 -0.45 -11.4 -0.45 -10.9 L-0.45 -8.75 Q0.25 -7.85 4.45 -7.85 5.45 -7.85 6.35 -8.65 M2.95 -1.75 L3.0 -1.6 3.95 -1.45 5.4 -1.65 5.9 -1.15 9.05 -2.35 9.0 -3.4 8.6 -3.55 6.45 -3.0 6.25 -3.4 4.75 -3.4 2.95 -1.75 M0.7 -1.4 L0.85 -2.0 Q-1.05 -4.2 -3.65 -5.85 L-1.8 -3.75 Q-1.0 -2.85 -1.45 -2.2 L-1.6 -2.1 -1.9 -2.1 -2.2 -2.1 -2.65 -2.25 -3.7 -2.65 -6.7 -6.75 -6.05 -8.5 -3.65 -8.35 -3.25 -8.75 -2.7 -8.85 -2.5 -12.3 -5.5 -11.6 -5.1 -13.8 Q-6.4 -13.15 -7.75 -12.6 -9.15 -12.05 -10.0 -11.1 L-11.0 -9.55 -9.5 -9.5 Q-8.4 -9.65 -7.0 -10.4 L-8.15 -5.05 -9.95 -6.9 -8.4 -4.5 -7.55 -4.0 -6.85 -3.55 -6.2 -3.05 -3.1 -1.25 -1.7 -1.05 0.7 -1.4 M0.45 -4.25 Q3.1 -4.25 3.1 -5.95 3.1 -6.65 2.1 -7.4 1.05 -8.15 -0.1 -8.15 -1.5 -8.15 -1.5 -6.85 -1.2 -4.25 0.45 -4.25 M7.75 -5.1 L7.95 -5.6 9.25 -5.05 10.35 -5.25 10.55 -6.55 11.05 -6.9 11.15 -8.9 10.3 -9.2 6.75 -6.4 4.6 -6.95 6.8 -4.65 7.75 -5.1" fill="#990000" fill-rule="evenodd" stroke="none"/>
      <path d="M6.35 -8.65 Q5.45 -7.85 4.45 -7.85 0.25 -7.85 -0.45 -8.75 L-0.45 -10.9 Q-0.45 -11.4 -0.85 -12.1 -0.85 -15.7 3.55 -15.7 5.4 -15.7 7.15 -9.9 7.15 -9.35 6.35 -8.65 M0.45 -4.25 Q-1.2 -4.25 -1.5 -6.85 -1.5 -8.15 -0.1 -8.15 1.05 -8.15 2.1 -7.4 3.1 -6.65 3.1 -5.95 3.1 -4.25 0.45 -4.25" fill="#650101" fill-rule="evenodd" stroke="none"/>
      <path d="M-1.65 -28.65 L-1.6 -27.35 Q-2.7 -24.75 -5.35 -25.6 L-6.05 -25.8 Q-6.0 -29.65 -2.45 -29.6 L-1.7 -29.45 -1.65 -28.65 M-9.25 -23.65 L-9.15 -21.2 -9.15 -20.95 Q-9.3 -20.1 -10.2 -19.45 L-10.75 -19.15 -12.8 -18.75 -12.85 -19.6 -12.7 -21.05 Q-12.45 -22.45 -11.55 -23.75 L-11.05 -24.4 -10.05 -24.75 Q-9.5 -24.3 -9.25 -23.65 M-3.15 -20.2 L-2.0 -17.25 -0.25 -20.35 -0.75 -18.7 0.0 -18.45 1.9 -19.6 0.6 -20.55 2.35 -20.65 4.75 -19.3 5.55 -17.85 5.8 -19.8 7.0 -19.1 7.9 -20.25 9.15 -18.8 8.95 -16.4 10.8 -16.85 11.75 -15.75 11.15 -14.1 2.35 -18.35 -0.4 -17.4 -1.55 -16.0 -3.15 -14.8 -4.1 -14.15 -2.55 -16.8 -3.05 -16.9 -3.45 -19.1 -4.85 -17.75 -6.85 -16.5 -7.65 -16.7 -3.15 -20.2 M9.5 -26.0 Q9.5 -26.95 9.95 -27.6 10.35 -28.3 10.95 -28.3 12.15 -28.3 13.0 -27.65 13.8 -27.0 13.8 -26.05 L12.75 -24.2 11.9 -24.2 Q11.15 -24.35 10.45 -24.8 9.7 -25.25 9.5 -26.0 M8.3 -13.6 L11.75 -12.0 11.9 -10.65 11.45 -10.65 10.4 -10.65 Q8.25 -11.05 7.6 -13.25 L8.3 -13.6 M0.7 -1.4 L-1.7 -1.05 -3.1 -1.25 -6.2 -3.05 -6.85 -3.55 -7.55 -4.0 -8.4 -4.5 -9.95 -6.9 -8.15 -5.05 -7.0 -10.4 Q-8.4 -9.65 -9.5 -9.5 L-11.0 -9.55 -10.0 -11.1 Q-9.15 -12.05 -7.75 -12.6 -6.4 -13.15 -5.1 -13.8 L-5.5 -11.6 -2.5 -12.3 -2.7 -8.85 -3.25 -8.75 -3.65 -8.35 -6.05 -8.5 -6.7 -6.75 -3.7 -2.65 -2.65 -2.25 -2.2 -2.1 -1.9 -2.1 -1.6 -2.1 -1.45 -2.2 Q-1.0 -2.85 -1.8 -3.75 L-3.65 -5.85 Q-1.05 -4.2 0.85 -2.0 L0.7 -1.4 M2.95 -1.75 L4.75 -3.4 6.25 -3.4 6.45 -3.0 8.6 -3.55 9.0 -3.4 9.05 -2.35 5.9 -1.15 5.4 -1.65 3.95 -1.45 3.0 -1.6 2.95 -1.75 M7.75 -5.1 L6.8 -4.65 4.6 -6.95 6.75 -6.4 10.3 -9.2 11.15 -8.9 11.05 -6.9 10.55 -6.55 10.35 -5.25 9.25 -5.05 7.95 -5.6 7.75 -5.1" fill="#ff0000" fill-rule="evenodd" stroke="none"/>
      <path d="M13.8 -2.55 L13.2 -1.65 Q12.2 -0.85 11.05 -0.7 L13.8 -2.55 M-9.2 -1.95 L-9.85 -2.45 -9.25 -2.0 -9.2 -1.95" fill="#bfa47b" fill-rule="evenodd" stroke="none"/>
      <path d="M8.1 -29.15 L8.2 -29.1 8.1 -29.15" fill="#d7a55b" fill-rule="evenodd" stroke="none"/>
      <path d="M18.9 -33.2 L13.95 -33.2 13.7 -35.9 19.5 -35.75 Q18.95 -34.4 18.9 -33.2 M-12.3 -36.75 L-5.75 -36.5 -6.05 -33.9 -12.5 -34.25 -12.3 -36.75 M12.2 -36.0 L12.4 -33.25 -4.6 -33.75 -4.2 -36.5 12.2 -36.0" fill="#000000" fill-rule="evenodd" stroke="none"/>
      <path d="M9.45 -24.4 L8.4 -25.75 7.05 -23.8 5.75 -25.5 Q4.85 -26.85 4.55 -28.35 L3.55 -24.9 1.95 -24.9 0.85 -26.6 Q0.0 -27.85 -1.65 -28.65 L-1.7 -29.45 -2.45 -29.6 Q-6.0 -29.65 -6.05 -25.8 L-5.5 -24.55 -4.15 -24.5 -6.35 -22.85 -7.1 -23.3 -7.75 -25.9 -9.25 -23.65 Q-9.5 -24.3 -10.05 -24.75 L-9.95 -25.4 -8.2 -32.1 -8.05 -32.55 -12.1 -32.5 -12.2 -32.1 -12.25 -32.0 -12.6 -32.0 -12.65 -32.1 -12.7 -32.15 -12.5 -34.25 -6.05 -33.9 -5.75 -36.5 -12.3 -36.75 -12.2 -38.05 19.3 -37.2 19.4 -36.65 19.5 -35.75 13.7 -35.9 13.95 -33.2 18.9 -33.2 18.5 -32.55 18.75 -32.1 18.95 -31.35 16.55 -31.95 Q9.3 -31.95 8.1 -29.15 L8.0 -28.9 8.2 -29.1 8.95 -29.3 Q9.45 -29.3 10.7 -28.5 L10.95 -28.3 Q10.35 -28.3 9.95 -27.6 9.5 -26.95 9.5 -26.0 9.2 -25.25 9.45 -24.4 M12.2 -36.0 L-4.2 -36.5 -4.6 -33.75 12.4 -33.25 12.2 -36.0" fill="#2e5d8c" fill-rule="evenodd" stroke="none"/>
      <path d="M14.65 -10.1 L15.8 -11.35 15.35 -7.55 Q14.95 -5.05 13.95 -3.15 L14.6 -7.95 14.65 -10.1 M15.85 -11.85 L15.0 -13.25 15.55 -15.3 13.1 -22.05 Q14.75 -24.4 13.8 -26.05 13.8 -27.0 13.0 -27.65 12.15 -28.3 10.95 -28.3 L10.7 -28.5 Q9.45 -29.3 8.95 -29.3 L8.2 -29.1 8.0 -28.9 8.1 -29.15 Q9.3 -31.95 16.55 -31.95 L18.95 -31.35 18.95 -31.3 Q16.6 -31.2 16.5 -29.15 16.95 -26.35 16.85 -25.25 L16.65 -20.75 16.25 -16.5 15.85 -11.85 M-12.7 -32.15 L-12.65 -32.1 -12.6 -32.0 -12.25 -32.0 -12.2 -32.1 -12.1 -32.5 -8.05 -32.55 -8.2 -32.1 -9.95 -25.4 -10.05 -24.75 -11.05 -24.4 -11.55 -23.75 Q-12.45 -22.45 -12.7 -21.05 L-11.85 -29.7 Q-11.85 -30.0 -12.8 -30.7 L-12.85 -30.75 -12.7 -32.1 -12.7 -32.15 M8.1 -29.15 L8.2 -29.1 8.1 -29.15 M-12.85 -19.6 L-12.8 -18.75 -12.35 -17.85 -13.05 -17.2 -12.9 -15.4 Q-12.75 -13.55 -13.3 -11.85 L-13.35 -13.2 -12.85 -19.6" fill="#336699" fill-rule="evenodd" stroke="none"/>
      <path d="M15.8 -11.35 L16.0 -11.6 15.85 -11.85 16.25 -16.5 16.65 -20.75 16.85 -25.25 Q16.95 -26.35 16.5 -29.15 16.6 -31.2 18.95 -31.3 L18.95 -31.05 18.95 -30.85 19.0 -29.8 19.0 -29.35 19.25 -24.5 19.2 -24.3 19.25 -23.8 19.3 -23.55 19.3 -23.4 19.35 -21.6 19.25 -21.1 19.2 -20.55 18.15 -13.2 18.1 -12.75 18.05 -12.55 17.95 -12.05 17.9 -11.85 17.85 -11.65 16.6 -7.15 16.55 -7.05 16.45 -6.8 16.4 -6.65 16.35 -6.5 16.3 -6.35 13.85 -2.65 13.95 -3.15 Q14.95 -5.05 15.35 -7.55 L15.8 -11.35 M-9.85 -2.45 L-13.0 -5.95 -13.25 -6.45 -14.1 -8.55 Q-14.6 -10.05 -14.7 -11.6 L-14.75 -13.1 -14.7 -13.1 -14.75 -15.0 -14.5 -18.95 -14.3 -20.6 -13.75 -25.4 -13.25 -28.4 -13.1 -29.35 -12.85 -30.75 -12.8 -30.7 Q-11.85 -30.0 -11.85 -29.7 L-12.7 -21.05 -12.85 -19.6 -13.35 -13.2 -13.3 -11.85 Q-13.7 -10.7 -14.4 -9.65 L-13.85 -8.15 Q-12.6 -5.2 -10.4 -3.2 L-9.25 -2.0 -9.85 -2.45" fill="#5383b4" fill-rule="evenodd" stroke="none"/>
      <path d="M-1.65 -28.65 Q0.0 -27.85 0.85 -26.6 L1.95 -24.9 3.55 -24.9 4.55 -28.35 Q4.85 -26.85 5.75 -25.5 L7.05 -23.8 8.4 -25.75 9.45 -24.4 11.75 -21.85 13.1 -22.05 15.55 -15.3 15.0 -13.25 15.85 -11.85 16.0 -11.6 15.8 -11.35 14.65 -10.1 14.65 -11.6 Q14.55 -14.85 13.05 -17.75 L10.8 -16.85 8.95 -16.4 9.15 -18.8 9.65 -21.45 6.65 -22.4 5.8 -19.8 5.55 -17.85 4.75 -19.3 2.35 -20.65 0.4 -22.4 -0.25 -20.35 -2.0 -17.25 -3.15 -20.2 -4.5 -22.15 -7.95 -19.65 -9.3 -18.35 -9.15 -20.95 -9.15 -21.2 -9.25 -23.65 -7.75 -25.9 -7.1 -23.3 -6.35 -22.85 -4.15 -24.5 Q-3.1 -24.5 -2.35 -25.3 -1.6 -26.15 -1.6 -27.35 L-1.65 -28.65 M-13.3 -11.85 Q-12.75 -13.55 -12.9 -15.4 L-13.05 -17.2 -12.35 -17.85 -10.95 -16.55 -12.45 -11.55 -11.65 -11.05 -11.55 -9.0 -12.25 -8.65 -12.4 -7.1 -11.15 -6.45 -10.2 -4.95 -10.6 -4.4 -10.4 -3.2 Q-12.6 -5.2 -13.85 -8.15 L-14.4 -9.65 Q-13.7 -10.7 -13.3 -11.85" fill="#632e46" fill-rule="evenodd" stroke="none"/>
    </g>
    <g id="sprite1" transform="matrix(1.0, 0.0, 0.0, 1.0, 10.3, 16.4)">
      <use ffdec:characterId="1518" height="33.25" transform="matrix(1.0, 0.0, 0.0, 1.0, -10.3, -16.4)" width="25.95" xlink:href="#shape1"/>
    </g>
    <g id="shape1" transform="matrix(1.0, 0.0, 0.0, 1.0, 10.3, 16.4)">
      <path d="M4.3 -13.15 L4.7 -13.65 6.15 -13.3 6.35 -12.7 6.0 -11.0 3.95 -11.05 4.3 -13.15 M7.4 10.9 L7.75 11.25 7.6 13.45 6.5 13.45 6.3 12.65 4.35 12.4 4.05 11.55 2.55 11.05 2.7 8.3 1.05 7.1 -0.2 7.45 -0.1 8.2 0.65 8.85 0.95 11.7 -0.6 12.8 -1.2 12.7 -2.15 9.5 -2.05 8.15 -2.8 7.8 -3.0 6.4 Q-2.35 6.4 -2.55 5.75 L-2.9 4.4 -4.05 4.2 -4.7 3.45 -6.45 4.2 -7.6 2.65 -7.4 1.75 -5.1 2.15 -4.95 0.0 Q-4.9 -1.0 -4.25 -1.75 L-3.5 -1.45 -2.3 3.65 -1.45 4.05 0.0 2.3 1.5 2.15 2.8 -0.75 2.2 -1.45 2.05 0.15 1.5 0.4 0.05 -0.3 -0.5 -1.7 -1.55 -1.85 -1.8 -2.6 1.6 -11.6 2.6 -10.6 Q3.05 -8.55 2.45 -6.8 1.85 -4.9 0.45 -3.45 L0.95 -2.6 4.2 -5.4 5.45 -5.15 5.3 -3.6 5.25 -3.0 5.35 -3.15 6.35 -3.8 6.4 -3.85 7.1 -3.95 7.35 -3.9 8.9 -1.85 9.0 -1.4 9.05 -1.35 Q9.75 0.95 9.3 3.1 L8.95 4.5 9.25 4.85 10.05 5.1 10.05 5.15 10.2 5.45 Q10.45 6.1 10.2 6.65 L10.15 6.75 9.8 7.4 9.05 7.7 Q8.3 8.2 7.4 8.0 L7.1 7.9 Q6.2 6.5 6.1 5.15 L6.15 4.2 Q6.2 3.4 6.6 2.6 L7.0 1.85 6.2 1.9 6.15 1.9 Q5.15 1.9 4.3 1.25 L4.1 1.1 Q3.1 3.45 1.25 5.5 L2.35 6.35 Q4.3 8.0 5.25 10.5 L7.35 10.9 7.4 10.9" fill="#ff0000" fill-rule="evenodd" stroke="none"/>
      <path d="M4.3 -13.15 L3.95 -11.05 6.0 -11.0 6.35 -12.7 6.15 -13.3 4.7 -13.65 6.4 -15.85 6.65 -15.25 6.65 -15.15 6.95 -14.35 Q8.0 -11.25 7.25 -8.35 L6.15 -8.4 4.2 -5.4 0.95 -2.6 0.45 -3.45 Q1.85 -4.9 2.45 -6.8 3.05 -8.55 2.6 -10.6 L1.6 -11.6 1.85 -12.0 2.6 -11.9 Q3.7 -12.2 4.3 -13.15 M7.6 13.45 L7.55 13.7 7.2 14.6 6.45 15.5 5.95 15.85 5.85 15.75 4.2 14.05 3.8 14.3 1.4 13.45 1.4 13.0 1.95 12.8 2.45 11.6 2.15 9.7 1.4 8.9 0.65 8.85 -0.1 8.2 -0.2 7.45 1.05 7.1 2.7 8.3 2.55 11.05 4.05 11.55 4.35 12.4 6.3 12.65 6.5 13.45 7.6 13.45 M-5.65 8.05 L-6.15 6.4 Q-4.95 5.9 -4.35 4.8 L-4.05 4.2 -2.9 4.4 -2.55 5.75 Q-2.35 6.4 -3.0 6.4 L-3.35 5.85 -3.85 5.65 -4.45 6.1 Q-5.3 6.9 -5.65 8.05 M-4.25 -1.75 L-3.75 -2.05 -2.85 -1.9 -1.8 -2.6 -1.55 -1.85 -0.5 -1.7 0.05 -0.3 1.5 0.4 2.05 0.15 2.2 -1.45 2.8 -0.75 1.5 2.15 0.0 2.3 -1.45 4.05 -2.3 3.65 -3.5 -1.45 -4.25 -1.75 M7.35 -3.9 L7.75 -4.0 8.2 -4.2 8.6 -4.05 9.15 -2.95 Q10.15 -0.65 10.3 1.7 L10.25 3.9 10.05 5.1 9.25 4.85 8.95 4.5 9.3 3.1 Q9.75 0.95 9.05 -1.35 L8.9 -1.85 7.35 -3.9" fill="#990000" fill-rule="evenodd" stroke="none"/>
      <path d="M7.45 10.0 L7.45 10.15 7.4 10.9 7.35 10.9 5.25 10.5 Q4.3 8.0 2.35 6.35 L1.25 5.5 Q3.1 3.45 4.1 1.1 L4.3 1.25 Q5.15 1.9 6.15 1.9 L6.2 1.9 7.0 1.85 6.6 2.6 Q6.2 3.4 6.15 4.2 L6.1 5.15 Q6.2 6.5 7.1 7.9 L7.45 10.0 M4.2 -5.4 L6.15 -8.4 7.25 -8.35 7.35 -3.9 7.1 -3.95 6.4 -3.85 6.35 -3.8 5.35 -3.15 5.25 -3.0 5.3 -3.6 5.45 -5.15 4.2 -5.4" fill="#ebbb98" fill-rule="evenodd" stroke="none"/>
      <path d="M1.4 13.45 L0.3 13.95 -0.6 12.8 0.95 11.7 0.65 8.85 1.4 8.9 2.15 9.7 2.45 11.6 1.95 12.8 1.4 13.0 1.4 13.45 M-2.15 9.5 L-2.8 9.35 -3.7 10.0 -4.05 10.95 -4.95 11.35 -5.7 10.95 -5.65 8.05 Q-5.3 6.9 -4.45 6.1 L-3.85 5.65 -3.35 5.85 -3.0 6.4 -2.8 7.8 -2.05 8.15 -2.15 9.5 M-6.15 6.4 L-10.3 7.7 -8.5 4.65 -8.85 1.7 -7.85 1.3 -7.4 1.75 -7.6 2.65 -6.45 4.2 -4.7 3.45 -4.05 4.2 -4.35 4.8 Q-4.95 5.9 -6.15 6.4" fill="#ffffff" fill-rule="evenodd" stroke="none"/>
      <path d="M6.65 -15.25 L6.65 -16.15 7.2 -16.25 8.1 -16.4 7.95 -10.3 10.65 -10.6 10.65 -12.1 11.65 -12.55 11.95 -11.75 Q12.0 -9.75 12.35 -8.3 L11.55 -3.7 13.05 -1.65 12.1 -0.95 Q11.85 2.1 12.35 5.15 L11.7 5.75 Q11.4 9.3 15.65 9.7 L15.4 10.15 15.25 10.15 Q13.0 10.65 11.5 12.45 L11.3 12.4 11.3 12.65 9.75 13.95 9.95 10.3 7.45 10.0 7.1 7.9 7.4 8.0 7.35 8.4 10.1 8.8 10.15 6.75 10.2 6.65 Q10.45 6.1 10.2 5.45 L10.25 3.9 10.3 1.7 10.6 -8.95 7.85 -8.75 7.75 -4.0 7.35 -3.9 7.25 -8.35 Q8.0 -11.25 6.95 -14.35 L6.65 -15.15 6.65 -15.25 M7.2 14.6 L7.1 16.85 5.8 16.75 5.85 15.75 5.95 15.85 6.45 15.5 7.2 14.6" fill="#632e46" fill-rule="evenodd" stroke="none"/>
    </g>
  </defs>
</svg>
