<?xml version="1.0" encoding="UTF-8" standalone="no"?>
<svg xmlns:ffdec="https://www.free-decompiler.com/flash" xmlns:xlink="http://www.w3.org/1999/xlink" ffdec:objectType="frame" height="60.3px" width="14.05px" xmlns="http://www.w3.org/2000/svg">
  <g transform="matrix(1.0, 0.0, 0.0, 1.0, 7.5, 27.5)">
    <use ffdec:characterId="2013" ffdec:characterName="game_fla.hand1_534" height="19.6" id="hand" transform="matrix(1.0, 0.0, 0.0, 1.0, -7.5, 13.2)" width="13.1" xlink:href="#sprite0"/>
    <use ffdec:characterId="2014" height="41.3" transform="matrix(1.0, 0.0, 0.0, 1.0, -6.55, -27.5)" width="13.1" xlink:href="#shape1"/>
    <use ffdec:characterId="1081" height="100.0" id="shape" transform="matrix(0.12, 0.0, 0.0, 0.54, -5.999, -27.0004)" width="100.0" xlink:href="#sprite1"/>
  </g>
  <defs>
    <g id="sprite0" transform="matrix(1.0, 0.0, 0.0, 1.0, 7.5, 7.1)">
      <use ffdec:characterId="1447" height="14.1" transform="matrix(1.0, 0.0, 0.0, 1.0, -5.75, -7.1)" width="11.35" xlink:href="#shape0"/>
    </g>
    <g id="shape0" transform="matrix(1.0, 0.0, 0.0, 1.0, 5.75, 7.1)">
      <path d="M3.95 -7.1 L4.1 -7.1 4.1 -6.95 5.5 0.15 Q5.7 1.2 5.4 1.75 L4.5 2.9 4.65 5.05 4.1 4.25 Q2.75 4.8 1.45 5.65 L0.35 4.9 Q-0.3 5.8 -0.9 5.55 L-1.6 5.3 -2.05 4.7 -5.0 3.8 -4.7 3.25 Q-3.85 1.35 -3.45 -0.7 L-2.6 -3.75 Q-2.2 -4.75 -2.05 -5.7 L-1.95 -6.2 1.3 -6.6 1.1 -6.2 1.4 -5.9 1.75 -5.7 3.3 -3.2 3.95 -5.75 3.9 -6.9 3.95 -7.1 M-3.8 -6.0 L-3.55 -6.75 -3.65 -7.05 -3.65 -7.1 -3.25 -7.1 -3.8 -6.0" fill="#ffcc99" fill-rule="evenodd" stroke="none"/>
      <path d="M4.65 5.05 L4.6 5.35 4.55 5.5 2.95 6.45 2.1 6.15 2.0 6.1 1.6 6.5 0.7 6.9 0.05 6.85 -0.95 6.35 -1.0 6.4 -1.5 6.8 -2.4 6.5 -4.4 5.05 -5.25 4.7 -5.75 3.9 -5.45 1.85 -4.55 -2.55 -3.8 -6.0 -3.25 -7.1 3.95 -7.1 3.9 -6.9 3.95 -5.75 3.3 -3.2 1.75 -5.7 1.4 -5.9 1.1 -6.2 1.3 -6.6 -1.95 -6.2 -2.05 -5.7 Q-2.2 -4.75 -2.6 -3.75 L-3.45 -0.7 Q-3.85 1.35 -4.7 3.25 L-5.0 3.8 -2.05 4.7 -1.6 5.3 -0.9 5.55 Q-0.3 5.8 0.35 4.9 L1.45 5.65 Q2.75 4.8 4.1 4.25 L4.65 5.05" fill="#ebbb98" fill-rule="evenodd" stroke="none"/>
    </g>
    <g id="shape1" transform="matrix(1.0, 0.0, 0.0, 1.0, 6.55, 27.5)">
      <path d="M6.2 -20.15 L6.2 -19.8 5.55 -10.8 Q5.55 -8.9 6.05 -2.45 L6.55 6.15 6.35 9.7 5.35 3.95 Q4.7 0.1 4.75 -2.55 4.15 -2.25 3.7 -0.8 L3.0 1.2 3.0 -3.0 Q3.0 -7.4 4.5 -12.15 5.65 -15.85 6.2 -20.15" fill="#ca6868" fill-rule="evenodd" stroke="none"/>
      <path d="M-4.95 -25.2 Q-3.45 -27.0 -1.55 -27.3 L0.75 -27.45 2.7 -26.9 Q4.05 -26.6 5.0 -23.8 5.35 -21.75 4.5 -20.0 3.65 -18.3 2.65 -17.5 L1.0 -10.8 0.25 -7.5 0.2 -6.45 0.3 1.05 Q0.3 3.05 1.9 5.35 3.45 7.7 3.45 8.45 3.45 9.5 3.05 10.4 2.3 11.85 0.65 11.85 -1.6 11.85 -2.85 10.95 -4.2 10.95 -4.5 9.0 L-4.5 7.0 -4.3 2.45 -4.95 -7.1 -4.45 -13.65 -4.95 -17.6 -4.9 -18.55 Q-5.5 -19.5 -5.7 -20.55 -5.95 -21.65 -5.85 -23.05 -5.8 -24.5 -4.95 -25.2" fill="#943939" fill-rule="evenodd" stroke="none"/>
      <path d="M5.0 -23.8 L6.1 -20.8 6.2 -20.15 Q5.65 -15.85 4.5 -12.15 3.0 -7.4 3.0 -3.0 L3.0 1.2 3.7 -0.8 Q4.15 -2.25 4.75 -2.55 4.7 0.1 5.35 3.95 L6.35 9.7 Q6.5 11.35 6.05 12.65 5.6 13.95 0.8 13.75 L-5.2 13.5 Q-6.4 13.4 -6.3 9.4 L-6.2 5.1 -6.3 3.55 -6.25 -2.9 Q-6.15 -8.15 -6.4 -13.05 L-6.55 -17.85 -6.45 -22.9 Q-5.7 -24.75 -4.95 -25.2 -5.8 -24.5 -5.85 -23.05 -5.95 -21.65 -5.7 -20.55 -5.5 -19.5 -4.9 -18.55 L-4.95 -17.6 -4.45 -13.65 -4.95 -7.1 -4.3 2.45 -4.5 7.0 -4.5 9.0 Q-4.2 10.95 -2.85 10.95 -1.6 11.85 0.65 11.85 2.3 11.85 3.05 10.4 3.45 9.5 3.45 8.45 3.45 7.7 1.9 5.35 0.3 3.05 0.3 1.05 L0.2 -6.45 0.25 -7.5 1.0 -10.8 2.65 -17.5 Q3.65 -18.3 4.5 -20.0 5.35 -21.75 5.0 -23.8" fill="#b74040" fill-rule="evenodd" stroke="none"/>
    </g>
    <g id="sprite1" transform="matrix(1.0, 0.0, 0.0, 1.0, 50.0, 50.0)">
      <use ffdec:characterId="1080" height="100.0" transform="matrix(1.0, 0.0, 0.0, 1.0, -50.0, -50.0)" width="100.0" xlink:href="#shape2"/>
    </g>
    <g id="shape2" transform="matrix(1.0, 0.0, 0.0, 1.0, 50.0, 50.0)">
      <path d="M50.0 50.0 L-50.0 50.0 -50.0 -50.0 50.0 -50.0 50.0 50.0 Z" fill="none" stroke="#9900ff" stroke-linecap="round" stroke-linejoin="round" stroke-width="0.05"/>
    </g>
  </defs>
</svg>
