<?xml version="1.0" encoding="UTF-8" standalone="no"?>
<svg xmlns:ffdec="https://www.free-decompiler.com/flash" xmlns:xlink="http://www.w3.org/1999/xlink" ffdec:objectType="frame" height="86.35px" width="31.0px" xmlns="http://www.w3.org/2000/svg">
  <g transform="matrix(1.0, 0.0, 0.0, 1.0, 14.15, 45.35)">
    <use ffdec:characterId="2499" height="85.85" transform="matrix(1.0, 0.0, 0.0, 1.0, -14.15, -45.35)" width="31.0" xlink:href="#shape0"/>
  </g>
  <defs>
    <g id="shape0" transform="matrix(1.0, 0.0, 0.0, 1.0, 14.15, 45.35)">
      <path d="M3.2 -39.05 L3.1 -35.15 -0.25 -36.85 -0.45 -37.8 -1.2 -40.6 -0.1 -40.6 0.4 -41.3 Q0.2 -42.85 -1.0 -43.7 L-1.4 -43.55 -2.0 -42.3 Q-1.75 -45.5 1.15 -45.35 2.0 -45.05 2.25 -44.15 2.95 -42.2 3.1 -40.1 L3.2 -39.05 M3.25 38.05 Q1.3 40.95 -1.95 40.45 L-2.75 40.25 -3.1 39.3 0.25 36.55 2.7 34.8 3.6 37.45 3.25 38.05 M-2.6 32.2 L-2.4 32.6 Q-1.35 32.1 -1.25 31.65 L-1.25 31.6 -0.05 30.55 0.95 30.7 1.2 31.1 0.5 33.3 -0.45 34.0 Q-2.15 34.6 -3.35 33.2 L-3.95 32.45 -3.05 32.3 -2.6 32.2" fill="#ffffff" fill-rule="evenodd" stroke="none"/>
      <path d="M12.95 -34.0 L12.7 -33.45 Q9.7 -33.7 7.4 -36.05 L6.15 -35.25 Q5.3 -36.2 5.1 -37.65 L4.9 -39.9 5.0 -40.4 6.65 -38.65 7.4 -37.7 7.9 -36.55 12.95 -34.5 12.95 -34.0 M3.1 -35.15 L3.75 -34.35 4.2 -33.55 4.4 -32.9 6.15 -31.45 6.7 -31.45 6.3 -31.05 6.15 -30.4 5.05 -29.8 Q1.8 -30.75 0.75 -34.05 L-2.7 -36.85 -2.35 -37.35 -5.15 -40.5 -4.9 -41.2 -4.7 -41.7 -3.9 -41.0 Q-3.0 -38.8 -1.05 -37.4 L-0.25 -36.85 3.1 -35.15 M-10.45 -30.6 L-6.95 -31.65 -5.8 -29.5 -6.1 -28.8 -9.5 -29.35 -10.45 -30.6 M-6.7 -31.75 L-6.45 -33.15 -7.75 -35.55 -6.75 -35.9 -3.95 -33.95 -4.7 -32.85 -3.4 -32.45 -2.7 -32.75 -2.45 -31.85 -3.4 -31.25 -3.6 -31.55 -3.7 -31.15 Q-4.75 -30.75 -5.85 -31.4 L-6.7 -31.75 M-0.25 -24.35 L0.9 -23.4 1.25 -21.15 0.2 -19.3 Q-1.85 -19.55 -2.3 -21.7 L-2.45 -23.0 -1.8 -24.2 -0.8 -24.55 -0.25 -24.35 M3.5 -26.35 L3.5 -27.6 4.35 -27.9 Q6.15 -28.6 7.65 -27.45 L8.65 -26.45 8.85 -25.65 8.65 -25.0 8.35 -24.65 8.25 -24.4 8.0 -23.85 8.8 -21.75 8.6 -21.05 7.75 -20.35 6.2 -23.65 5.8 -23.85 5.2 -26.1 3.5 -26.35 M4.55 37.6 L4.5 37.65 4.45 37.65 3.6 37.45 2.7 34.8 0.25 36.55 -3.1 39.3 -3.3 38.6 -2.65 36.65 -0.45 34.0 0.5 33.3 4.55 32.95 4.45 30.1 5.05 29.6 5.7 29.9 Q6.65 30.45 7.0 31.3 L6.95 31.75 7.05 33.0 6.85 33.7 6.05 34.35 5.1 34.35 5.2 36.3 4.55 37.6 M-2.0 -42.3 L-1.4 -43.55 -1.0 -43.7 Q0.2 -42.85 0.4 -41.3 L-0.1 -40.6 -1.2 -40.6 Q-1.65 -40.65 -1.9 -41.1 L-2.0 -42.3 M-8.8 -28.5 L-7.3 -28.45 -5.35 -27.55 -5.45 -25.75 -6.3 -24.85 Q-8.4 -24.4 -9.35 -26.4 L-9.85 -27.45 -9.3 -28.25 -8.8 -28.5 M0.9 22.0 L0.55 21.2 1.1 19.75 3.1 20.15 3.25 21.15 3.1 21.8 2.7 22.05 0.9 22.0 M3.35 22.65 L3.8 22.65 4.35 23.5 4.0 24.2 3.65 24.45 3.7 25.25 3.35 26.25 3.15 26.5 2.55 26.85 1.95 26.9 0.95 26.25 0.9 26.15 Q0.55 25.55 0.7 24.85 L1.1 23.95 Q1.35 23.65 1.65 23.7 L2.6 23.8 3.35 22.65 M5.15 21.25 L6.35 20.45 8.25 20.15 Q8.85 20.25 9.15 20.85 9.55 21.3 9.45 21.95 L7.1 25.45 5.6 25.35 4.8 23.85 4.55 22.65 5.15 21.25 M-5.25 22.8 L-3.35 22.45 -3.15 23.3 -3.45 24.0 Q-4.1 25.5 -5.25 26.2 L-5.45 27.5 -5.95 27.95 -6.6 27.85 -6.9 26.45 -6.5 25.35 -5.25 22.8 M-8.2 30.15 L-7.85 30.8 Q-7.1 31.9 -7.25 33.45 -8.3 31.55 -8.7 29.1 L-8.45 28.75 -8.2 30.15 M-2.55 30.0 Q-2.45 30.55 -2.65 31.65 L-2.6 32.2 -3.05 32.3 -3.95 32.45 -4.0 31.45 -2.7 31.0 -2.7 30.35 -2.55 30.0 M-1.25 31.6 L-1.5 29.9 -1.45 29.7 -0.3 29.85 -0.05 30.55 -1.25 31.6 M3.7 29.65 L2.7 30.45 2.6 31.75 1.45 31.55 1.25 30.3 1.5 30.2 1.5 30.1 Q1.6 29.4 2.2 28.95 L2.15 28.25 Q2.85 28.6 3.75 28.25 L3.8 28.2 3.8 28.45 Q4.05 28.7 3.9 29.5 L3.7 29.65 M-6.4 34.75 L-6.4 33.3 Q-6.2 32.05 -5.1 30.9 L-4.75 31.7 -5.9 33.55 -4.65 35.25 -5.4 35.95 -6.4 34.75" fill="#ff0000" fill-rule="evenodd" stroke="none"/>
      <path d="M4.9 -39.9 L5.1 -37.65 Q5.3 -36.2 6.15 -35.25 L7.4 -36.05 Q9.7 -33.7 12.7 -33.45 L12.95 -34.0 13.25 -33.15 12.85 -32.7 7.65 -33.6 6.7 -31.45 6.15 -31.45 4.4 -32.9 4.2 -33.55 3.75 -34.35 3.1 -35.15 3.2 -39.05 4.9 -39.9 M0.75 -34.05 L0.25 -34.05 -1.55 -35.15 -2.7 -32.75 -3.4 -32.45 -4.7 -32.85 -3.95 -33.95 -6.75 -35.9 -7.75 -35.55 -6.45 -33.15 -6.7 -31.75 -6.95 -31.65 -10.45 -30.6 -10.75 -31.05 Q-9.0 -34.85 -6.75 -38.4 L-4.9 -41.2 -5.15 -40.5 -2.35 -37.35 -2.7 -36.85 0.75 -34.05 M6.1 -19.6 L5.4 -22.1 3.55 -23.15 3.85 -24.35 3.35 -25.85 3.5 -26.35 5.2 -26.1 5.8 -23.85 6.2 -23.65 7.75 -20.35 8.6 -21.05 8.3 -19.15 6.1 -19.6 M6.6 35.6 Q6.45 36.55 5.85 37.15 5.25 37.7 4.55 37.6 L5.2 36.3 5.1 34.35 6.05 34.35 6.85 33.7 6.6 35.6 M4.45 37.65 L3.25 38.05 3.6 37.45 4.45 37.65 M-2.65 36.65 L-4.2 36.7 -6.6 35.65 -6.45 35.35 -6.4 34.75 -5.4 35.95 -4.65 35.25 -5.9 33.55 -4.75 31.7 -5.1 30.9 -4.1 30.0 -3.4 29.55 -3.25 30.55 -2.7 30.35 -2.7 31.0 -4.0 31.45 -3.95 32.45 -3.35 33.2 Q-2.15 34.6 -0.45 34.0 L-2.65 36.65 M-7.5 35.0 Q-10.2 32.55 -9.55 27.55 L-8.85 26.4 -8.4 27.9 -8.45 28.75 -8.7 29.1 Q-8.3 31.55 -7.25 33.45 L-7.35 34.2 -7.5 35.0 M-12.0 -27.95 L-10.9 -30.7 -10.8 -29.65 Q-10.95 -28.9 -12.0 -27.95 M8.35 -24.65 L8.35 -24.55 8.25 -24.4 8.35 -24.65 M1.2 -19.7 L0.55 -18.65 -0.2 -17.8 Q-1.4 -16.9 -2.55 -17.55 L-3.1 -17.9 -3.3 -21.15 -2.45 -23.0 -2.3 -21.7 Q-1.85 -19.55 0.2 -19.3 L1.25 -21.15 1.2 -19.7 M-0.45 -37.8 L-0.25 -36.85 -1.05 -37.4 Q-3.0 -38.8 -3.9 -41.0 L-0.45 -37.8 M-9.85 -27.45 L-9.35 -26.4 Q-8.4 -24.4 -6.3 -24.85 L-5.45 -25.75 -5.7 -24.9 -6.65 -24.15 -8.25 -22.95 Q-9.4 -23.75 -10.05 -24.8 L-10.5 -25.85 -9.85 -27.45 M1.0 22.75 L0.9 22.0 2.7 22.05 3.1 21.8 3.25 21.15 3.35 22.65 2.6 23.8 1.65 23.7 1.0 22.75 M-3.15 23.3 L-2.8 25.7 -3.15 26.75 -4.6 28.7 -5.2 28.75 -5.3 28.6 -5.95 27.95 -5.45 27.5 -5.25 26.2 Q-4.1 25.5 -3.45 24.0 L-3.15 23.3 M-1.45 29.7 Q-1.1 27.9 0.15 27.4 L1.1 27.25 0.4 25.75 0.7 24.85 Q0.55 25.55 0.9 26.15 L0.95 26.25 1.95 26.9 2.55 26.85 3.15 26.5 3.35 26.25 3.7 25.25 4.25 25.8 4.4 27.45 3.8 28.2 3.75 28.25 Q2.85 28.6 2.15 28.25 L2.2 28.95 Q1.6 29.4 1.5 30.1 L1.5 30.2 1.25 30.3 1.45 31.55 2.6 31.75 2.7 30.45 3.7 29.65 4.45 30.1 4.55 32.95 0.5 33.3 1.2 31.1 0.95 30.7 -0.05 30.55 -0.3 29.85 -1.45 29.7 M9.45 21.95 L9.5 23.0 Q9.5 25.2 7.85 26.4 L7.6 26.55 5.45 26.35 4.9 25.25 4.9 25.05 4.8 23.85 5.6 25.35 7.1 25.45 9.45 21.95" fill="#990000" fill-rule="evenodd" stroke="none"/>
      <path d="M6.7 -31.45 L7.65 -33.6 12.85 -32.7 13.25 -33.15 13.3 -33.15 13.2 -31.05 13.2 -29.35 12.1 -28.55 11.6 -28.5 11.45 -28.5 10.8 -28.5 Q8.15 -28.5 7.9 -27.95 L7.65 -27.45 Q6.15 -28.6 4.35 -27.9 L3.5 -27.6 3.5 -26.35 3.35 -25.85 3.85 -24.35 3.55 -23.15 5.4 -22.1 6.1 -19.6 5.55 -18.95 5.5 -18.9 3.45 -18.1 3.15 -18.15 Q1.65 -18.4 1.55 -20.5 1.5 -21.1 1.8 -23.35 L0.9 -23.4 -0.25 -24.35 -0.5 -25.65 -0.4 -27.8 0.2 -29.1 -0.05 -30.25 -1.4 -29.95 -2.05 -29.95 Q-2.55 -30.05 -3.05 -30.7 L-3.4 -31.25 -2.45 -31.85 -2.7 -32.75 -1.55 -35.15 0.25 -34.05 0.75 -34.05 Q1.8 -30.75 5.05 -29.8 L6.15 -30.4 6.3 -31.05 6.7 -31.45 M-6.95 -31.65 L-6.7 -31.75 -5.85 -31.4 Q-4.75 -30.75 -3.7 -31.15 -4.0 -29.8 -4.4 -28.8 L-4.55 -28.5 -5.35 -27.55 -7.3 -28.45 -8.8 -28.5 -9.5 -29.3 -9.5 -29.35 -6.1 -28.8 -5.8 -29.5 -6.95 -31.65 M-9.55 -41.4 L-9.7 -41.25 -9.65 -41.4 -9.35 -41.55 -9.45 -41.3 -9.55 -41.4" fill="#c79b68" fill-rule="evenodd" stroke="none"/>
      <path d="M3.45 -18.1 L5.5 -18.9 5.5 -18.8 5.7 -17.1 5.7 -17.05 Q5.95 -14.1 4.0 -11.8 L2.15 -7.2 Q3.25 -12.2 1.55 -16.6 L0.55 -18.65 1.2 -19.7 2.75 -16.7 3.45 -18.1 M8.65 -25.0 L8.85 -25.65 8.65 -26.45 10.2 -26.45 10.25 -26.45 10.55 -26.2 11.25 -24.3 11.85 -24.1 13.9 -23.4 13.0 -22.05 11.75 -22.15 11.2 -22.3 Q10.0 -22.9 9.6 -24.25 L8.65 -25.0 M10.05 28.15 L9.75 28.25 Q8.85 28.75 8.6 30.15 L8.5 31.35 8.65 31.7 9.2 32.55 7.85 35.25 7.4 34.15 7.05 33.0 6.95 31.75 7.0 31.3 6.9 30.3 7.8 26.6 7.8 26.55 9.7 26.85 9.75 27.6 10.05 28.15 M-2.45 -23.0 L-3.3 -21.15 -3.75 -21.5 -7.25 -18.3 Q-5.8 -20.9 -5.75 -23.9 L-6.65 -24.15 -5.7 -24.9 -5.45 -25.75 -5.35 -27.55 -4.55 -28.5 Q-2.25 -27.55 -2.5 -24.85 L-2.6 -24.05 -1.8 -24.2 -2.45 -23.0 M-1.35 21.8 L-1.0 17.6 -0.85 17.75 -0.4 19.9 -0.6 20.1 Q0.15 21.9 -0.3 23.75 L-0.45 24.6 Q-0.7 25.75 -1.5 26.35 L-1.85 26.5 -1.45 23.2 -1.35 21.8 M4.75 25.15 L4.9 25.05 4.9 25.25 4.75 25.15" fill="#912333" fill-rule="evenodd" stroke="none"/>
      <path d="M-3.4 -31.25 L-3.05 -30.7 Q-2.55 -30.05 -2.05 -29.95 L-1.4 -29.95 -0.05 -30.25 0.2 -29.1 -0.4 -27.8 -0.5 -25.65 -0.25 -24.35 -0.8 -24.55 -1.8 -24.2 -2.6 -24.05 -2.5 -24.85 Q-2.25 -27.55 -4.55 -28.5 L-4.4 -28.8 Q-4.0 -29.8 -3.7 -31.15 L-3.6 -31.55 -3.4 -31.25 M0.9 -23.4 L1.8 -23.35 Q1.5 -21.1 1.55 -20.5 1.65 -18.4 3.15 -18.15 L3.45 -18.1 2.75 -16.7 1.2 -19.7 1.25 -21.15 0.9 -23.4 M7.65 -27.45 L7.9 -27.95 Q8.15 -28.5 10.8 -28.5 L11.45 -28.5 11.5 -28.0 11.55 -26.9 11.3 -26.3 10.95 -25.65 10.55 -26.2 10.25 -26.45 10.2 -26.45 8.65 -26.45 7.65 -27.45 M-6.6 35.65 L-7.5 37.8 -7.6 38.5 -7.7 38.45 -8.8 37.75 Q-7.95 36.95 -7.5 35.0 L-7.35 34.2 -7.25 33.45 Q-7.1 31.9 -7.85 30.8 L-8.2 30.15 -6.75 30.15 -5.2 28.75 -4.6 28.7 -4.5 28.7 -3.8 28.8 Q-3.05 28.8 -2.35 28.05 L-1.85 26.5 -1.5 26.35 Q-0.7 25.75 -0.45 24.6 L-0.3 23.75 Q0.15 21.9 -0.6 20.1 L-0.4 19.9 1.0 22.75 1.65 23.7 Q1.35 23.65 1.1 23.95 L0.7 24.85 0.4 25.75 1.1 27.25 0.15 27.4 Q-1.1 27.9 -1.45 29.7 L-1.5 29.9 -1.25 31.6 -1.25 31.65 Q-1.35 32.1 -2.4 32.6 L-2.6 32.2 -2.65 31.65 Q-2.45 30.55 -2.55 30.0 -2.7 29.3 -3.4 29.55 L-4.1 30.0 -5.1 30.9 Q-6.2 32.05 -6.4 33.3 L-6.4 34.75 -6.45 35.35 -6.6 35.65 M-8.2 21.7 Q-9.6 21.85 -10.8 22.95 -11.55 22.55 -12.25 21.45 L-12.05 16.0 -10.25 14.55 -9.4 14.6 -9.45 13.0 -6.7 12.3 -2.05 17.2 -3.2 18.4 Q-1.6 20.0 -1.35 21.8 L-1.45 23.2 Q-1.7 24.4 -2.6 25.65 L-2.8 25.7 -3.15 23.3 -3.35 22.45 -5.25 22.8 Q-5.7 22.0 -7.05 21.75 L-7.15 21.45 -7.35 21.7 -7.7 21.65 -8.2 21.7 M-3.7 -1.5 Q-2.1 0.1 -2.95 2.55 L-3.5 3.05 -2.45 3.9 -2.75 5.6 -3.05 5.85 Q-5.75 7.1 -7.0 4.25 L-7.2 3.2 Q-7.65 0.85 -7.0 -1.35 L-6.5 -2.2 -6.9 -2.35 -7.5 -2.95 Q-8.7 -4.15 -8.95 -6.1 L-9.0 -6.4 -8.15 -7.7 -8.0 -8.6 -5.85 -8.1 -2.45 -9.65 -2.15 -9.5 Q-0.6 -8.5 -0.55 -6.55 L-3.35 -4.1 -2.8 -2.45 -2.95 -1.9 -3.75 -1.65 -3.8 -1.7 -3.7 -1.5 M4.4 27.45 L4.25 25.8 4.35 25.75 4.75 25.15 4.9 25.25 5.45 26.35 7.6 26.55 7.8 26.55 7.8 26.6 6.9 30.3 6.65 29.4 Q6.0 27.75 4.7 27.5 L4.55 27.45 4.4 27.45" fill="#663333" fill-rule="evenodd" stroke="none"/>
      <path d="M-10.75 -31.05 L-10.45 -30.6 -9.5 -29.35 -9.5 -29.3 -9.3 -28.25 -9.85 -27.45 -10.5 -25.85 -10.05 -24.8 Q-9.4 -23.75 -8.25 -22.95 -7.5 -18.4 -7.2 -13.75 L-7.0 -9.6 -7.3 -9.5 -8.1 -9.55 -8.4 -9.95 -10.85 -9.5 -11.15 -9.1 -11.35 -11.95 Q-11.9 -20.1 -14.15 -30.3 -12.45 -27.65 -12.0 -27.95 -10.95 -28.9 -10.8 -29.65 L-10.9 -30.7 -11.0 -31.15 -10.95 -31.35 -10.75 -31.05 M11.45 -28.5 L11.6 -28.5 12.1 -28.55 11.85 -24.1 11.25 -24.3 10.55 -26.2 10.95 -25.65 11.3 -26.3 11.55 -26.9 11.5 -28.0 11.45 -28.5 M-11.5 23.75 L-11.75 24.1 -12.3 24.85 -12.3 23.3 -11.5 23.75 M-11.9 13.8 L-11.45 7.4 Q-10.9 0.1 -11.05 -6.4 L-10.05 -5.55 -9.05 -4.25 Q-8.4 -3.2 -8.1 -1.9 L-8.35 -0.7 Q-9.15 3.15 -6.95 6.65 L-6.8 11.3 -7.95 11.65 -8.2 11.75 Q-10.05 12.55 -11.9 13.8 M9.6 -24.25 Q10.0 -22.9 11.2 -22.3 L11.75 -22.15 11.4 -18.6 10.95 -14.6 Q10.35 -9.7 10.3 -6.15 L9.9 -6.3 Q8.65 -6.5 8.45 -5.4 L8.85 -3.65 9.25 -2.9 9.25 -2.85 8.4 -1.95 8.1 -1.45 8.1 -2.2 8.05 -3.1 Q7.85 -13.2 8.1 -17.05 9.15 -17.35 9.75 -18.05 10.35 -18.85 10.4 -20.15 L10.35 -20.5 8.9 -21.7 9.6 -24.25 M7.95 5.0 L8.5 4.5 8.55 4.45 9.6 4.9 Q9.5 5.05 9.55 5.15 8.35 6.45 8.15 7.4 L8.2 8.25 7.8 8.55 7.95 5.0 M7.6 10.95 L8.25 11.45 8.5 11.55 8.8 11.6 8.3 19.2 8.25 20.15 6.35 20.45 6.7 18.45 6.95 17.65 6.95 16.9 7.1 15.65 7.6 10.95 M-6.75 30.15 L-8.2 30.15 -8.45 28.75 -8.4 27.9 -8.4 27.7 -6.9 26.45 -6.6 27.85 -6.6 28.5 -6.75 30.15 M7.85 26.4 L7.8 26.55 7.6 26.55 7.85 26.4" fill="#ad5a95" fill-rule="evenodd" stroke="none"/>
      <path d="M12.1 -28.55 L13.2 -29.35 16.85 -32.85 Q13.25 -20.05 13.6 -14.4 L13.95 -6.85 13.25 -7.05 13.1 -7.1 Q12.0 -7.2 11.7 -6.55 L11.0 -5.25 Q10.9 -5.9 10.3 -6.15 10.35 -9.7 10.95 -14.6 L11.4 -18.6 11.75 -22.15 13.0 -22.05 13.9 -23.4 11.85 -24.1 12.1 -28.55 M11.95 13.15 L12.45 12.9 10.35 28.0 10.35 28.1 10.05 28.15 9.75 27.6 9.7 26.85 7.8 26.55 7.85 26.4 Q9.5 25.2 9.5 23.0 L9.45 21.95 Q9.55 21.3 9.15 20.85 8.85 20.25 8.25 20.15 L8.3 19.2 8.8 11.6 9.3 11.55 9.35 11.65 9.7 12.35 Q10.2 12.95 11.3 13.15 L11.95 13.15 M9.6 4.9 L9.75 4.95 9.55 5.15 Q9.5 5.05 9.6 4.9 M13.4 -4.4 L13.45 -4.3 13.35 -4.3 13.4 -4.4" fill="#b66ba0" fill-rule="evenodd" stroke="none"/>
      <path d="M5.55 -18.95 L6.1 -19.6 8.3 -19.15 8.6 -21.05 8.8 -21.75 8.9 -21.7 10.35 -20.5 10.4 -20.15 Q10.35 -18.85 9.75 -18.05 9.15 -17.35 8.1 -17.05 L7.65 -17.0 Q6.65 -17.3 6.65 -16.65 L7.15 -13.35 4.95 -11.35 4.0 -11.8 Q5.95 -14.1 5.7 -17.05 L5.7 -17.1 5.5 -18.8 5.55 -18.9 5.55 -18.95 M-10.8 22.95 L-11.5 23.75 -12.3 23.3 -12.25 21.45 Q-11.55 22.55 -10.8 22.95 M-12.05 16.0 L-11.9 13.8 Q-10.05 12.55 -8.2 11.75 L-7.95 11.65 -6.8 11.3 -4.05 11.65 -3.2 10.9 -2.8 10.8 -2.7 10.15 Q-2.25 7.4 0.25 7.85 1.1 8.0 1.1 9.3 0.65 11.75 -0.55 12.25 L-0.65 12.85 Q-1.05 15.15 -2.8 14.9 -2.1 16.35 -1.0 17.6 L-1.35 21.8 Q-1.6 20.0 -3.2 18.4 L-2.05 17.2 -6.7 12.3 -9.45 13.0 -9.4 14.6 -10.25 14.55 -12.05 16.0 M-11.05 -6.4 L-11.05 -6.45 -11.15 -9.1 -10.85 -9.5 -8.4 -9.95 -8.1 -9.55 -7.3 -9.5 -7.0 -9.6 -0.15 -11.25 0.5 -9.2 Q1.2 -6.6 -0.05 -4.55 L-0.8 -3.55 -1.55 -3.5 -1.95 -2.6 -1.75 -1.35 -2.05 -1.75 -2.35 -0.95 -1.55 0.95 Q-1.15 2.55 -1.45 4.2 L-1.8 5.35 Q-2.5 7.25 -4.25 8.35 L-6.95 6.65 Q-9.15 3.15 -8.35 -0.7 L-8.1 -1.9 Q-8.4 -3.2 -9.05 -4.25 L-10.05 -5.55 -11.05 -6.4 M-3.1 -17.9 L-2.55 -17.55 Q-1.4 -16.9 -0.2 -17.8 L0.05 -17.35 0.25 -16.15 0.25 -16.05 Q-0.15 -14.55 -2.25 -14.95 L-2.3 -14.95 -2.85 -15.15 Q-3.75 -15.55 -3.7 -16.75 L-3.1 -17.9 M-3.75 -1.65 L-2.95 -1.9 -2.8 -2.45 -3.35 -4.1 -0.55 -6.55 Q-0.6 -8.5 -2.15 -9.5 L-2.45 -9.65 -5.85 -8.1 -8.0 -8.6 -8.15 -7.7 -9.0 -6.4 -8.95 -6.1 Q-8.7 -4.15 -7.5 -2.95 L-6.9 -2.35 -6.5 -2.2 -7.0 -1.35 Q-7.65 0.85 -7.2 3.2 L-7.0 4.25 Q-5.75 7.1 -3.05 5.85 L-2.75 5.6 -2.45 3.9 -3.5 3.05 -2.95 2.55 Q-2.1 0.1 -3.7 -1.5 L-3.75 -1.65 M-0.85 17.75 L0.3 18.8 -0.4 19.9 -0.85 17.75 M3.8 22.65 Q4.1 21.45 5.0 21.25 L5.15 21.25 4.55 22.65 4.8 23.85 4.9 25.05 4.75 25.15 Q4.25 24.9 4.0 24.2 L4.35 23.5 3.8 22.65 M-7.05 21.75 L-7.15 21.75 -7.35 21.7 -7.15 21.45 -7.05 21.75 M-2.8 25.7 L-2.6 25.65 Q-1.7 24.4 -1.45 23.2 L-1.85 26.5 -3.15 26.75 -2.8 25.7" fill="#8a4664" fill-rule="evenodd" stroke="none"/>
      <path d="M5.5 -18.9 L5.55 -18.95 5.55 -18.9 5.5 -18.8 5.5 -18.9 M9.6 -24.25 L8.9 -21.7 8.8 -21.75 8.0 -23.85 8.25 -24.4 8.35 -24.55 8.35 -24.65 8.65 -25.0 9.6 -24.25 M8.1 -17.05 Q7.85 -13.2 8.05 -3.1 L8.1 -2.2 8.1 -1.45 7.45 -0.4 Q5.95 0.2 5.5 0.5 4.8 0.95 4.55 2.35 4.0 5.35 6.5 5.8 7.05 5.9 7.95 5.0 L7.8 8.55 Q7.45 8.85 7.35 9.5 7.25 9.95 7.45 10.5 L7.6 10.95 7.1 15.65 6.95 16.9 6.85 16.45 Q6.6 15.75 6.0 15.65 L4.55 15.8 5.0 15.3 5.85 13.9 Q6.25 10.6 5.35 10.45 1.65 9.8 1.1 13.2 1.0 13.65 1.6 14.7 2.35 16.1 3.3 16.25 L4.15 16.05 Q3.75 16.45 3.6 17.25 3.4 18.6 5.3 18.95 L5.95 18.95 6.7 18.45 6.35 20.45 5.15 21.25 5.0 21.25 Q4.1 21.45 3.8 22.65 L3.35 22.65 3.25 21.15 3.1 20.15 1.1 19.75 0.55 21.2 0.9 22.0 1.0 22.75 -0.4 19.9 0.3 18.8 -0.85 17.75 -1.0 17.6 Q-2.1 16.35 -2.8 14.9 -1.05 15.15 -0.65 12.85 L-0.55 12.25 Q0.65 11.75 1.1 9.3 1.1 8.0 0.25 7.85 -2.25 7.4 -2.7 10.15 L-2.8 10.8 -3.2 10.9 -4.05 11.65 -6.8 11.3 -6.95 6.65 -4.25 8.35 Q-2.5 7.25 -1.8 5.35 L-1.45 4.2 Q-1.15 2.55 -1.55 0.95 L-2.35 -0.95 -2.05 -1.75 -1.75 -1.35 -1.95 -2.6 -1.55 -3.5 -0.8 -3.55 -0.05 -4.55 Q1.2 -6.6 0.5 -9.2 L-0.15 -11.25 -7.0 -9.6 -7.2 -13.75 Q-7.5 -18.4 -8.25 -22.95 L-6.65 -24.15 -5.75 -23.9 Q-5.8 -20.9 -7.25 -18.3 L-3.75 -21.5 -3.3 -21.15 -3.1 -17.9 -3.7 -16.75 Q-3.75 -15.55 -2.85 -15.15 L-2.3 -14.95 -2.25 -14.95 Q-0.15 -14.55 0.25 -16.05 L0.25 -16.15 0.05 -17.35 -0.2 -17.8 0.55 -18.65 1.55 -16.6 Q3.25 -12.2 2.15 -7.2 L4.0 -11.8 4.95 -11.35 7.15 -13.35 6.65 -16.65 Q6.65 -17.3 7.65 -17.0 L8.1 -17.05 M8.0 -3.1 L8.0 -3.2 Q7.9 -5.1 7.25 -5.2 6.7 -5.3 5.85 -4.7 L5.1 -3.8 5.05 -3.65 Q4.9 -2.3 6.45 -2.05 7.7 -1.85 8.0 -3.1 M-9.5 -29.3 L-8.8 -28.5 -9.3 -28.25 -9.5 -29.3 M-3.7 -1.5 L-3.8 -1.7 -3.75 -1.65 -3.7 -1.5 M-1.85 26.5 L-2.35 28.05 Q-3.05 28.8 -3.8 28.8 L-4.5 28.7 -4.6 28.7 -3.15 26.75 -1.85 26.5 M-5.2 28.75 L-6.75 30.15 -6.6 28.5 -6.6 27.85 -5.95 27.95 -5.3 28.6 -5.2 28.75 M4.25 25.8 L3.7 25.25 3.65 24.45 4.0 24.2 Q4.25 24.9 4.75 25.15 L4.35 25.75 4.25 25.8" fill="#994d83" fill-rule="evenodd" stroke="none"/>
      <path d="M13.1 -7.1 L13.05 -6.5 Q12.5 0.8 12.25 8.4 L11.95 13.15 11.3 13.15 Q10.2 12.95 9.7 12.35 9.85 9.6 9.3 6.85 L8.25 11.45 7.6 10.95 7.45 10.5 Q7.25 9.95 7.35 9.5 7.45 8.85 7.8 8.55 L8.2 8.25 8.15 7.4 Q8.35 6.45 9.55 5.15 L9.75 4.95 9.6 4.9 8.55 4.45 8.5 4.5 7.95 5.0 Q7.05 5.9 6.5 5.8 4.0 5.35 4.55 2.35 4.8 0.95 5.5 0.5 5.95 0.2 7.45 -0.4 L8.1 -1.45 8.4 -1.95 9.25 -2.85 9.25 -2.9 8.85 -3.65 8.45 -5.4 Q8.65 -6.5 9.9 -6.3 L10.3 -6.15 Q10.9 -5.9 11.0 -5.25 L11.7 -6.55 Q12.0 -7.2 13.1 -7.1 M9.75 28.25 L8.75 31.45 8.65 31.7 8.5 31.35 8.6 30.15 Q8.85 28.75 9.75 28.25 M7.4 34.15 L6.6 35.6 6.85 33.7 7.05 33.0 7.4 34.15 M-9.55 27.55 L-8.5 24.7 -8.3 22.75 -7.7 21.65 -7.35 21.7 -7.15 21.75 -7.05 21.75 Q-5.7 22.0 -5.25 22.8 L-6.5 25.35 -6.9 26.45 -8.4 27.7 -8.4 27.9 -8.85 26.4 -9.55 27.55 M8.0 -3.1 Q7.7 -1.85 6.45 -2.05 4.9 -2.3 5.05 -3.65 L5.1 -3.8 5.85 -4.7 Q6.7 -5.3 7.25 -5.2 7.9 -5.1 8.0 -3.2 L8.0 -3.1 M5.95 18.95 L5.3 18.95 Q3.4 18.6 3.6 17.25 3.75 16.45 4.15 16.05 L3.3 16.25 Q2.35 16.1 1.6 14.7 1.0 13.65 1.1 13.2 1.65 9.8 5.35 10.45 6.25 10.6 5.85 13.9 L5.0 15.3 4.55 15.8 6.0 15.65 Q6.6 15.75 6.85 16.45 L5.95 18.95 M-3.4 29.55 Q-2.7 29.3 -2.55 30.0 L-2.7 30.35 -3.25 30.55 -3.4 29.55 M4.45 30.1 L3.7 29.65 3.9 29.5 Q4.05 28.7 3.8 28.45 L3.8 28.2 4.4 27.45 4.55 27.45 4.7 27.5 Q6.0 27.75 6.65 29.4 L6.9 30.3 7.0 31.3 Q6.65 30.45 5.7 29.9 L5.05 29.6 4.45 30.1" fill="#e2b181" fill-rule="evenodd" stroke="none"/>
      <path d="M-8.3 22.75 L-8.2 21.7 -7.7 21.65 -8.3 22.75 M8.25 11.45 L9.3 6.85 Q9.85 9.6 9.7 12.35 L9.35 11.65 9.3 11.55 8.8 11.6 8.5 11.55 8.25 11.45 M6.7 18.45 L5.95 18.95 6.85 16.45 6.95 16.9 6.95 17.65 6.7 18.45" fill="#d5a675" fill-rule="evenodd" stroke="none"/>
    </g>
  </defs>
</svg>
