<?xml version="1.0" encoding="UTF-8" standalone="no"?>
<svg xmlns:ffdec="https://www.free-decompiler.com/flash" xmlns:xlink="http://www.w3.org/1999/xlink" ffdec:objectType="frame" height="18.5px" width="16.65px" xmlns="http://www.w3.org/2000/svg">
  <g transform="matrix(1.0, 0.0, 0.0, 1.0, 11.05, 2.5)">
    <use ffdec:characterId="1405" height="18.5" transform="matrix(1.0, 0.0, 0.0, 1.0, -11.05, -2.5)" width="16.65" xlink:href="#shape0"/>
  </g>
  <defs>
    <g id="shape0" transform="matrix(1.0, 0.0, 0.0, 1.0, 11.05, 2.5)">
      <path d="M-3.2 -0.55 L-2.95 -0.65 -2.65 -0.7 -2.55 -1.9 -2.55 -1.95 -2.5 -2.5 Q-1.05 -2.4 -0.7 -1.7 -0.55 -1.45 -0.55 -0.5 -0.55 0.4 -0.85 1.1 L-1.3 1.8 -1.4 1.95 -1.75 2.75 -2.05 3.1 -2.5 3.35 -2.9 3.35 -3.0 3.15 -3.15 3.15 -4.5 2.75 Q-4.9 2.75 -6.0 1.45 L-7.0 0.3 -6.95 0.15 -5.8 0.2 -4.95 0.7 -4.75 0.85 -2.9 2.35 -2.3 1.6 -2.6 0.9 -3.0 0.9 -3.65 0.75 -4.15 0.5 -4.25 0.2 -4.25 0.1 Q-4.25 -0.3 -3.2 -0.55 M0.1 4.0 L0.7 4.65 Q2.6 4.6 3.6 3.75 L3.45 3.6 Q2.9 2.95 3.0 2.6 L3.3 2.65 4.0 2.9 4.5 3.3 Q5.6 3.5 5.6 4.5 L5.1 5.9 4.8 6.0 4.75 6.0 4.15 5.5 3.35 5.6 Q2.1 5.6 0.85 4.95 L0.9 5.45 0.6 6.45 0.25 7.75 -0.05 8.0 -1.75 3.85 -0.9 3.65 0.1 4.0 M-6.7 3.5 L-5.65 3.25 -5.6 3.25 Q-4.15 3.25 -4.2 4.2 L-4.25 4.35 Q-4.25 4.95 -4.5 5.25 -4.8 5.65 -5.5 5.65 -6.9 5.65 -6.9 4.25 L-6.7 3.5" fill="#ff0000" fill-rule="evenodd" stroke="none"/>
      <path d="M-2.55 -1.95 L-2.55 -1.9 -2.65 -0.7 -2.95 -0.65 -3.2 -0.55 -3.45 -0.85 -3.5 -1.4 -3.4 -2.0 -2.55 -1.95 M-4.25 0.2 L-4.15 0.5 -3.65 0.75 -3.0 0.9 -2.6 0.9 -2.3 1.6 -2.9 2.35 -4.75 0.85 -4.75 0.8 -4.65 0.35 -4.65 0.25 -4.25 0.2" fill="#ffffff" fill-rule="evenodd" stroke="none"/>
      <path d="M-4.75 0.85 L-4.95 0.7 -5.8 0.2 -4.65 0.35 -4.75 0.8 -4.75 0.85 M-6.95 0.15 L-7.0 0.3 -6.0 1.45 Q-4.9 2.75 -4.5 2.75 L-3.15 3.15 -3.0 3.15 -2.9 3.35 -2.5 3.35 -2.05 3.1 -1.0 3.6 -0.9 3.65 -1.75 3.85 -0.05 8.0 0.25 7.75 0.6 6.45 0.9 5.45 0.85 4.95 Q2.1 5.6 3.35 5.6 L4.15 5.5 4.75 6.0 4.8 6.0 4.45 6.25 4.2 6.35 3.75 6.4 1.9 5.95 Q1.35 6.25 1.0 6.75 0.75 7.15 0.7 8.25 0.4 9.1 -1.0 9.1 -1.45 9.1 -2.65 5.05 L-4.2 4.2 Q-4.15 3.25 -5.6 3.25 L-5.65 3.25 -6.55 2.7 -6.9 2.55 -7.75 2.1 -7.8 2.0 -8.15 1.85 -7.95 1.0 Q-7.9 -0.25 -6.95 0.15 M-1.3 1.8 L-0.85 1.1 Q1.8 1.8 3.3 2.65 L3.0 2.6 Q2.9 2.95 3.45 3.6 L3.6 3.75 Q2.6 4.6 0.7 4.65 L0.1 4.0 1.75 4.4 Q2.6 4.4 2.75 4.0 1.85 3.1 -0.85 2.0 L-1.3 1.8 M-4.5 5.25 L-4.5 5.4 Q-4.5 6.9 -6.0 6.9 -7.25 6.9 -7.65 6.0 L-7.8 5.05 Q-7.8 3.6 -6.7 3.5 L-6.9 4.25 Q-6.9 5.65 -5.5 5.65 -4.8 5.65 -4.5 5.25" fill="#990000" fill-rule="evenodd" stroke="none"/>
      <path d="M-2.05 3.1 L-1.75 2.75 -1.4 1.95 -1.3 1.8 -0.85 2.0 Q1.85 3.1 2.75 4.0 2.6 4.4 1.75 4.4 L0.1 4.0 -0.9 3.65 -1.0 3.6 -2.05 3.1" fill="#650101" fill-rule="evenodd" stroke="none"/>
      <path d="M-6.7 3.5 Q-7.8 3.6 -7.8 5.05 L-7.65 6.0 Q-7.25 6.9 -6.0 6.9 -4.5 6.9 -4.5 5.4 L-4.5 5.25 Q-4.25 4.95 -4.25 4.35 L-4.2 4.2 -2.65 5.05 Q-1.45 9.1 -1.0 9.1 0.4 9.1 0.7 8.25 0.75 7.15 1.0 6.75 1.35 6.25 1.9 5.95 L3.75 6.4 4.2 6.35 4.25 6.75 3.75 8.95 3.6 9.4 3.4 10.4 3.65 12.0 4.65 16.0 2.75 14.7 Q1.35 13.9 0.35 13.8 L-1.75 13.3 -3.45 13.2 -11.05 13.7 -9.3 10.05 -8.25 5.15 -7.85 3.7 -7.75 2.1 -6.9 2.55 -6.55 2.7 -5.65 3.25 -6.7 3.5" fill="#ffcc99" fill-rule="evenodd" stroke="none"/>
      <path d="M4.25 6.75 L4.2 6.35 4.45 6.25 4.25 6.75" fill="#e2b181" fill-rule="evenodd" stroke="none"/>
    </g>
  </defs>
</svg>
