<?xml version="1.0" encoding="UTF-8" standalone="no"?>
<svg xmlns:ffdec="https://www.free-decompiler.com/flash" xmlns:xlink="http://www.w3.org/1999/xlink" ffdec:objectType="frame" height="80.05px" width="42.95px" xmlns="http://www.w3.org/2000/svg">
  <g transform="matrix(1.0, 0.0, 0.0, 1.0, 17.7, 4.0)">
    <use ffdec:characterId="2565" ffdec:characterName="game_fla.lowerleg1_282" height="80.05" id="lowerLeg1" transform="matrix(1.0, 0.0, 0.0, 1.0, -17.7, -4.0)" width="42.95" xlink:href="#sprite0"/>
  </g>
  <defs>
    <g id="sprite0" transform="matrix(1.0, 0.0, 0.0, 1.0, 17.5, 39.75)">
      <use ffdec:characterId="2560" height="66.05" transform="matrix(1.0, 0.0, 0.0, 1.0, -17.5, -39.75)" width="29.65" xlink:href="#shape0"/>
      <use ffdec:characterId="2561" height="22.95" transform="matrix(1.0, 0.0, 0.0, 1.0, -12.65, 17.35)" width="38.1" xlink:href="#shape1"/>
      <use ffdec:characterId="1081" height="100.0" id="shape" transform="matrix(0.2, 0.0, 0.0, 0.7601, -9.9998, -38.0028)" width="100.0" xlink:href="#sprite1"/>
    </g>
    <g id="shape0" transform="matrix(1.0, 0.0, 0.0, 1.0, 17.5, 39.75)">
      <path d="M-10.15 -8.95 L-10.15 -8.9 -9.75 -8.4 -9.6 -7.9 -9.6 -7.3 -9.45 -7.4 -8.7 -4.8 -7.6 -0.55 -6.75 3.15 -6.55 4.3 Q-6.0 6.8 -4.6 9.0 -3.5 6.25 -3.2 2.65 L-3.2 0.55 -3.2 -1.2 -2.85 -5.6 -2.8 -6.3 -2.7 -6.3 -2.05 -8.25 -1.6 -9.15 -1.8 -9.25 -3.1 -15.2 -4.2 -13.55 -4.1 -14.6 -4.0 -15.15 Q-6.15 -15.15 -6.5 -17.15 -6.8 -20.1 -4.65 -20.35 L-4.5 -20.35 Q-2.65 -20.1 -2.0 -18.8 L-1.75 -18.1 Q-0.35 -18.4 1.1 -15.95 L-0.1 -13.75 Q1.0 -14.8 2.4 -14.55 L3.0 -14.35 3.65 -13.35 3.65 -6.55 3.4 -3.9 3.8 -2.7 4.2 6.15 4.45 7.05 5.1 1.45 5.5 -2.45 5.85 -6.85 5.85 -6.9 Q6.95 -9.3 7.65 -11.9 L7.7 -11.85 7.85 -12.25 7.8 -12.4 8.2 -14.5 8.25 -14.75 8.35 -14.8 8.25 -14.2 7.45 -7.1 7.0 -3.45 6.95 -2.65 6.7 1.25 6.6 3.1 7.05 21.1 Q5.8 23.55 3.75 25.45 L3.1 25.7 Q-2.45 27.55 -6.85 23.65 L-6.85 22.5 -6.95 19.45 -6.4 11.55 Q-6.15 7.65 -6.95 3.15 -7.3 1.3 -7.8 -0.55 L-8.5 -2.9 -9.05 -4.7 -10.15 -8.95 M-8.95 -8.7 L-9.15 -9.15 Q-9.35 -11.1 -7.85 -11.25 -6.8 -11.35 -6.2 -10.85 L-7.95 -8.45 -8.95 -8.7 M8.55 -16.7 L8.5 -16.3 8.55 -16.7 M0.7 -22.25 Q1.15 -20.75 0.55 -19.15 L0.35 -18.85 Q-0.75 -17.95 -1.55 -19.0 -2.7 -20.9 -1.15 -22.65 -0.8 -23.1 0.0 -22.9 L0.7 -22.25 M1.65 11.85 L1.35 10.55 1.65 13.8 1.6 15.65 Q1.75 17.05 2.25 17.55 L3.05 21.55 5.6 21.8 3.2 16.05 3.9 11.55 3.95 11.5 2.7 6.1 2.65 5.65 Q1.85 7.2 1.65 11.85 M-10.55 -23.75 Q-9.9 -23.45 -9.8 -22.7 -9.75 -22.1 -10.15 -21.3 -10.5 -20.6 -10.95 -20.35 L-10.95 -20.4 -10.55 -23.75 M-1.3 15.9 L-1.95 16.8 Q-5.25 21.0 -2.85 25.25 -1.7 20.6 -1.05 15.9 L-0.95 15.25 -1.3 15.9" fill="#ffcc99" fill-rule="evenodd" stroke="none"/>
      <path d="M3.65 -13.35 L3.65 -13.25 5.7 -14.05 5.8 -14.1 7.65 -11.9 Q6.95 -9.3 5.85 -6.9 L5.85 -6.85 5.5 -2.45 5.1 1.45 4.45 7.05 4.2 6.15 3.8 -2.7 3.4 -3.9 3.65 -6.55 3.65 -13.35 M9.0 -19.95 L8.55 -16.7 8.5 -16.3 7.65 -17.1 Q6.5 -18.25 6.5 -18.45 6.4 -19.3 7.25 -19.4 L8.45 -19.0 8.7 -19.6 9.0 -19.95 M4.7 -27.25 Q5.65 -27.3 5.75 -26.35 5.85 -25.05 4.6 -24.95 4.1 -24.9 3.8 -25.25 L3.65 -25.7 4.7 -27.25 M8.25 -14.75 L8.2 -14.5 7.8 -12.4 7.65 -12.85 Q7.5 -14.3 8.25 -14.75 M1.65 13.8 L1.35 10.55 1.65 11.85 1.65 13.8 M3.2 16.05 L5.6 21.8 3.05 21.55 2.25 17.55 2.65 17.65 3.2 16.05 M-1.3 15.9 L-0.95 15.25 -1.05 15.9 Q-1.7 20.6 -2.85 25.25 -5.25 21.0 -1.95 16.8 L-1.3 15.9" fill="#ebbb98" fill-rule="evenodd" stroke="none"/>
      <path d="M-9.75 -8.4 L-9.6 -7.95 -9.6 -7.9 -9.75 -8.4 M-9.45 -7.4 L-8.55 -7.85 -8.95 -8.7 -7.95 -8.45 -6.2 -10.85 Q-5.75 -10.45 -5.55 -9.7 L-5.1 -10.7 Q-4.8 -11.5 -4.1 -11.95 L-4.25 -12.65 -4.2 -13.55 -3.1 -15.2 -1.8 -9.25 -1.6 -9.15 -2.05 -8.25 -2.7 -6.3 -2.8 -6.3 -2.85 -5.6 -3.2 -1.2 -3.2 0.55 -3.2 2.65 Q-3.5 6.25 -4.6 9.0 -6.0 6.8 -6.55 4.3 L-6.75 3.15 -7.6 -0.55 -8.7 -4.8 -9.45 -7.4 M1.65 11.85 Q1.85 7.2 2.65 5.65 L2.7 6.1 3.95 11.5 3.9 11.55 3.2 16.05 2.65 17.65 2.25 17.55 Q1.75 17.05 1.6 15.65 L1.65 13.8 1.65 11.85" fill="#f4c398" fill-rule="evenodd" stroke="none"/>
      <path d="M-7.2 -34.35 L-6.85 -34.6 Q-6.3 -35.15 -5.7 -36.0 -4.65 -36.95 -2.15 -37.6 -1.25 -37.75 0.7 -38.4 L2.85 -39.1 3.3 -38.75 Q4.45 -37.9 4.45 -37.5 L4.25 -36.95 4.1 -35.85 Q6.1 -33.25 6.15 -32.3 6.3 -31.1 5.55 -30.15 L5.25 -29.85 3.7 -28.55 Q3.6 -29.15 3.2 -29.1 L2.9 -28.35 Q2.65 -27.6 2.9 -25.35 3.05 -23.85 3.8 -23.15 L5.0 -22.2 4.5 -21.35 Q4.15 -21.0 4.2 -20.5 5.4 -17.1 5.6 -14.85 L5.7 -14.05 3.65 -13.25 3.65 -13.35 3.0 -14.35 3.25 -15.15 3.55 -16.35 3.8 -18.4 1.65 -23.2 1.75 -23.6 1.7 -24.0 1.4 -24.65 1.3 -24.95 0.2 -25.65 0.15 -26.9 0.45 -27.2 -0.75 -28.3 -0.1 -28.45 -0.35 -29.35 -1.05 -28.95 -1.4 -28.55 -1.95 -28.0 -1.4 -27.4 Q-1.8 -25.95 -2.95 -24.95 -5.0 -23.25 -5.45 -20.7 L-4.5 -20.35 -4.65 -20.35 Q-6.8 -20.1 -6.5 -17.15 -6.15 -15.15 -4.0 -15.15 L-4.1 -14.6 -4.2 -13.55 -4.25 -12.65 -4.1 -11.95 Q-4.8 -11.5 -5.1 -10.7 L-5.55 -9.7 Q-5.75 -10.45 -6.2 -10.85 -6.8 -11.35 -7.85 -11.25 -9.35 -11.1 -9.15 -9.15 L-8.95 -8.7 -8.55 -7.85 -9.45 -7.4 -9.6 -7.3 -9.6 -7.9 -9.6 -7.95 -9.75 -8.4 -10.15 -8.9 -10.15 -8.95 Q-10.8 -9.65 -11.65 -9.65 L-10.7 -11.35 -9.5 -12.7 Q-9.1 -13.6 -8.25 -13.7 -7.9 -14.8 -8.1 -16.55 L-8.6 -19.45 -8.75 -19.9 -7.8 -22.65 Q-7.35 -22.2 -6.95 -22.2 -5.65 -22.35 -4.7 -25.5 L-5.0 -26.4 -5.7 -28.45 -6.2 -30.0 -7.2 -33.95 -7.15 -34.2 -7.2 -34.35 M2.25 -31.95 Q2.1 -33.75 0.2 -33.55 -1.45 -33.35 -1.25 -31.25 -1.1 -29.7 0.85 -29.9 L1.7 -30.65 Q2.3 -31.45 2.25 -31.95" fill="#ad5a95" fill-rule="evenodd" stroke="none"/>
      <path d="M-7.2 -34.35 L-7.15 -34.2 -7.35 -34.2 -7.2 -34.35 M5.7 -14.05 L5.6 -14.85 Q5.4 -17.1 4.2 -20.5 4.15 -21.0 4.5 -21.35 L5.0 -22.2 3.8 -23.15 Q3.05 -23.85 2.9 -25.35 2.65 -27.6 2.9 -28.35 L3.2 -29.1 Q3.6 -29.15 3.7 -28.55 L5.25 -29.85 5.55 -30.15 Q6.3 -31.1 6.15 -32.3 6.1 -33.25 4.1 -35.85 L4.25 -36.95 4.45 -37.5 Q4.45 -37.9 3.3 -38.75 L2.85 -39.1 4.75 -39.7 Q9.0 -40.15 10.3 -33.6 L10.8 -26.45 11.75 -22.95 Q11.45 -22.45 11.5 -21.2 11.55 -20.05 12.15 -18.45 L11.65 -18.45 Q10.3 -19.15 9.35 -20.45 L9.0 -19.95 8.7 -19.6 8.45 -19.0 7.25 -19.4 Q6.4 -19.3 6.5 -18.45 6.5 -18.25 7.65 -17.1 L8.5 -16.3 9.0 -15.95 9.6 -14.65 8.8 -14.9 8.35 -14.8 8.25 -14.75 Q7.5 -14.3 7.65 -12.85 L7.8 -12.4 7.85 -12.25 7.7 -11.85 7.65 -11.9 5.8 -14.1 5.7 -14.05 M4.7 -27.25 L3.65 -25.7 3.8 -25.25 Q4.1 -24.9 4.6 -24.95 5.85 -25.05 5.75 -26.35 5.65 -27.3 4.7 -27.25" fill="#bb77a7" fill-rule="evenodd" stroke="none"/>
      <path d="M-4.5 -20.35 L-5.45 -20.7 Q-5.0 -23.25 -2.95 -24.95 -1.8 -25.95 -1.4 -27.4 L-1.95 -28.0 -1.4 -28.55 -1.05 -28.95 -0.35 -29.35 -0.1 -28.45 -0.75 -28.3 0.45 -27.2 0.15 -26.9 0.2 -25.65 1.3 -24.95 1.4 -24.65 1.7 -24.0 1.75 -23.6 1.65 -23.2 3.8 -18.4 3.55 -16.35 3.25 -15.15 3.0 -14.35 2.4 -14.55 Q1.0 -14.8 -0.1 -13.75 L1.1 -15.95 Q-0.35 -18.4 -1.75 -18.1 L-2.0 -18.8 Q-2.65 -20.1 -4.5 -20.35 M2.25 -31.95 Q2.3 -31.45 1.7 -30.65 L0.85 -29.9 Q-1.1 -29.7 -1.25 -31.25 -1.45 -33.35 0.2 -33.55 2.1 -33.75 2.25 -31.95 M0.7 -22.25 L0.0 -22.9 Q-0.8 -23.1 -1.15 -22.65 -2.7 -20.9 -1.55 -19.0 -0.75 -17.95 0.35 -18.85 L0.55 -19.15 Q1.15 -20.75 0.7 -22.25" fill="#8a4664" fill-rule="evenodd" stroke="none"/>
      <path d="M-7.15 -34.2 L-7.2 -33.95 -6.2 -30.0 -5.7 -28.45 -5.0 -26.4 -4.7 -25.5 Q-5.65 -22.35 -6.95 -22.2 -7.35 -22.2 -7.8 -22.65 L-8.75 -19.9 -8.6 -19.45 -8.1 -16.55 Q-7.9 -14.8 -8.25 -13.7 -9.1 -13.6 -9.5 -12.7 L-10.7 -11.35 -11.65 -9.65 -12.0 -9.65 Q-13.6 -9.5 -13.8 -7.8 L-13.9 -3.9 -14.35 -3.55 -15.0 -4.7 Q-16.05 -5.8 -17.5 -4.85 L-17.1 -5.6 -15.9 -7.5 Q-15.1 -9.0 -15.25 -10.45 -15.35 -11.5 -13.95 -15.05 -11.15 -15.75 -11.4 -18.0 L-11.7 -18.8 Q-11.95 -19.3 -12.4 -19.4 L-12.15 -20.2 -11.4 -20.25 -10.95 -20.35 Q-10.5 -20.6 -10.15 -21.3 -9.75 -22.1 -9.8 -22.7 -9.9 -23.45 -10.55 -23.75 L-11.8 -23.9 -11.9 -24.3 -11.6 -27.65 Q-11.8 -29.7 -11.25 -30.7 -10.5 -32.1 -7.35 -34.2 L-7.15 -34.2" fill="#b66ba0" fill-rule="evenodd" stroke="none"/>
    </g>
    <g id="shape1" transform="matrix(1.0, 0.0, 0.0, 1.0, 12.65, -17.35)">
      <path d="M4.0 18.9 L5.2 19.95 6.05 20.9 Q6.8 21.1 7.05 22.65 L7.45 25.0 Q7.85 25.75 9.65 27.1 L10.1 27.45 10.15 27.5 14.4 30.45 15.8 31.2 20.8 33.95 21.65 34.1 23.3 34.0 Q24.45 34.1 24.85 35.1 L25.35 36.35 Q25.2 35.95 24.75 35.9 L24.1 36.25 Q24.3 36.75 24.15 37.65 24.05 38.35 23.65 38.65 22.85 38.5 22.8 37.45 L22.65 37.35 Q22.25 39.05 21.4 38.9 L21.15 38.8 20.75 38.8 20.45 37.55 19.45 38.2 18.6 38.65 18.55 38.6 18.35 38.5 17.8 38.45 17.65 38.2 17.75 38.1 17.7 37.7 17.85 37.0 17.85 36.95 17.45 36.85 15.25 38.7 15.25 38.75 13.65 38.6 13.35 38.35 Q12.5 37.4 11.7 37.0 4.1 34.45 -6.75 34.75 -10.25 35.25 -12.65 31.45 L-12.6 30.65 -12.6 30.3 Q-12.3 28.3 -6.3 19.3 L-5.8 18.5 -5.0 18.65 -3.85 17.85 -4.5 21.65 Q-5.05 26.15 -4.35 30.8 L-3.95 30.55 -0.85 32.1 0.9 31.05 1.05 30.55 2.45 29.9 2.7 28.75 2.15 28.65 4.15 26.9 4.0 18.9 M25.35 37.2 L25.2 37.7 25.1 37.75 25.35 37.2 M25.05 37.8 L25.0 38.1 24.95 38.0 25.05 37.8 M3.1 18.35 L3.1 18.7 Q3.0 21.2 2.35 23.9 1.65 26.8 -0.4 28.95 -1.45 29.4 -2.15 28.5 L-3.0 27.45 Q-3.3 24.55 -2.3 21.95 L-0.75 19.0 -1.0 17.95 -2.2 17.45 3.1 18.35" fill="#ffcc99" fill-rule="evenodd" stroke="none"/>
      <path d="M2.15 28.65 L2.7 28.75 2.45 29.9 1.05 30.55 0.9 31.05 -0.85 32.1 -3.95 30.55 -4.35 30.8 Q-5.05 26.15 -4.5 21.65 L-3.85 17.85 -3.15 17.35 -2.2 17.45 -1.0 17.95 -0.75 19.0 -2.3 21.95 Q-3.3 24.55 -3.0 27.45 L-2.15 28.5 Q-1.45 29.4 -0.4 28.95 L0.15 28.95 0.7 29.3 2.15 28.65" fill="#f4c398" fill-rule="evenodd" stroke="none"/>
      <path d="M4.0 18.9 L4.15 26.9 2.15 28.65 0.7 29.3 0.15 28.95 -0.4 28.95 Q1.65 26.8 2.35 23.9 3.0 21.2 3.1 18.7 L3.1 18.35 3.9 18.8 4.0 18.9 M-12.65 31.45 Q-10.25 35.25 -6.75 34.75 4.1 34.45 11.7 37.0 12.5 37.4 13.35 38.35 L13.65 38.6 15.25 38.75 Q15.0 39.35 16.5 39.65 L17.1 39.75 Q17.75 39.85 17.95 39.45 L18.05 39.1 17.8 38.45 18.35 38.5 18.55 38.6 18.5 38.7 Q18.5 39.05 18.8 39.3 19.25 39.75 20.8 39.95 22.0 40.1 22.35 39.5 L22.6 39.55 Q23.25 39.55 23.4 38.75 L23.45 39.05 24.7 38.25 24.95 38.0 25.0 38.1 Q24.65 39.55 23.1 40.0 21.3 40.6 16.6 40.0 L13.7 40.1 13.15 39.85 11.45 39.05 4.3 37.3 -3.0 37.1 Q-10.95 38.0 -12.65 31.45" fill="#ebbb98" fill-rule="evenodd" stroke="none"/>
      <path d="M15.25 38.75 L15.25 38.7 17.45 36.85 17.85 36.95 17.85 37.0 17.7 37.7 17.75 38.1 17.65 38.2 17.8 38.45 18.05 39.1 17.95 39.45 Q17.75 39.85 17.1 39.75 L16.5 39.65 Q15.0 39.35 15.25 38.75 M18.55 38.6 L18.6 38.65 19.45 38.2 20.45 37.55 20.75 38.8 21.15 38.8 21.4 38.9 Q22.25 39.05 22.65 37.35 L22.8 37.45 Q22.85 38.5 23.65 38.65 24.05 38.35 24.15 37.65 24.3 36.75 24.1 36.25 L24.75 35.9 Q25.2 35.95 25.35 36.35 L25.45 36.6 25.45 36.75 25.45 37.0 25.4 37.05 25.35 37.2 25.1 37.75 25.05 37.8 24.95 38.0 24.7 38.25 23.45 39.05 23.4 38.75 Q23.25 39.55 22.6 39.55 L22.35 39.5 Q22.0 40.1 20.8 39.95 19.25 39.75 18.8 39.3 18.5 39.05 18.5 38.7 L18.55 38.6" fill="#e2b181" fill-rule="evenodd" stroke="none"/>
    </g>
    <g id="sprite1" transform="matrix(1.0, 0.0, 0.0, 1.0, 50.0, 50.0)">
      <use ffdec:characterId="1080" height="100.0" transform="matrix(1.0, 0.0, 0.0, 1.0, -50.0, -50.0)" width="100.0" xlink:href="#shape2"/>
    </g>
    <g id="shape2" transform="matrix(1.0, 0.0, 0.0, 1.0, 50.0, 50.0)">
      <path d="M50.0 50.0 L-50.0 50.0 -50.0 -50.0 50.0 -50.0 50.0 50.0 Z" fill="none" stroke="#9900ff" stroke-linecap="round" stroke-linejoin="round" stroke-width="0.05"/>
    </g>
  </defs>
</svg>
