<?xml version="1.0" encoding="UTF-8" standalone="no"?>
<svg xmlns:ffdec="https://www.free-decompiler.com/flash" xmlns:xlink="http://www.w3.org/1999/xlink" ffdec:objectType="frame" height="123.9px" width="34.75px" xmlns="http://www.w3.org/2000/svg">
  <g transform="matrix(1.0, 0.0, 0.0, 1.0, 16.7, 16.0)">
    <use ffdec:characterId="1187" ffdec:characterName="game_fla.upperarm1_879" height="64.25" id="upperArm1" transform="matrix(1.0, 0.0, 0.0, 1.0, -16.7, -16.0)" width="34.75" xlink:href="#sprite0"/>
    <use ffdec:characterId="1194" height="73.65" id="lowerArmOuter1" transform="matrix(1.0, 0.0, 0.0, 1.0, -12.6, 34.25)" width="24.7" xlink:href="#sprite2"/>
  </g>
  <defs>
    <g id="sprite0" transform="matrix(1.0, 0.0, 0.0, 1.0, 15.6, 33.05)">
      <use ffdec:characterId="1183" height="63.2" transform="matrix(1.0, 0.0, 0.0, 1.0, -15.3, -32.0)" width="30.85" xlink:href="#shape0"/>
      <use ffdec:characterId="1081" height="100.0" id="shape" transform="matrix(0.28, 0.0, 0.0, 0.58, -13.9984, -28.9986)" width="100.0" xlink:href="#sprite1"/>
    </g>
    <g id="shape0" transform="matrix(1.0, 0.0, 0.0, 1.0, 15.3, 32.0)">
      <path d="M-12.45 -25.4 L-11.45 -27.15 -11.4 -27.3 Q-8.15 -32.4 1.3 -31.95 10.7 -31.55 13.35 -25.25 15.95 -18.95 15.5 -15.45 L15.0 -8.55 14.7 -8.6 12.0 -9.9 11.85 -9.15 12.5 -8.35 11.6 -7.55 11.85 -6.3 10.0 -6.85 9.4 -6.35 11.5 -3.9 9.85 -3.45 8.05 -3.85 7.45 -3.4 9.55 -1.15 8.55 -0.9 6.75 -0.9 6.3 -0.55 6.1 -0.05 Q5.15 0.5 5.05 1.65 L5.05 1.85 5.05 2.4 8.75 1.45 10.15 1.95 8.15 2.85 8.65 4.15 12.75 4.2 12.65 4.6 Q12.55 5.05 11.95 5.05 L11.55 5.05 -0.9 5.0 -10.0 5.0 -12.95 5.0 -13.5 5.0 -14.8 5.0 -15.15 -2.6 Q-14.6 -1.15 -13.8 -0.25 L-13.75 -0.15 -13.6 0.0 Q-11.55 2.0 -8.05 0.7 L-7.0 0.15 -7.85 -0.9 -7.65 -2.7 -6.1 -1.85 -5.15 -2.0 -5.05 -2.5 -6.1 -3.85 -3.65 -3.65 -3.45 -4.25 -5.4 -6.35 -6.25 -7.65 -3.2 -6.3 -2.85 -6.85 -1.1 -6.9 1.05 -5.25 1.15 -7.0 3.4 -3.4 3.8 -3.25 4.3 -3.55 2.9 -9.05 8.1 -6.35 8.5 -6.6 Q6.8 -9.2 4.55 -11.05 L3.7 -11.75 1.85 -12.95 0.5 -13.95 5.9 -12.35 5.1 -13.5 5.6 -13.5 6.15 -13.7 6.25 -14.0 Q6.15 -14.2 5.65 -14.4 L8.75 -13.45 5.85 -16.25 6.55 -17.2 6.1 -17.5 7.1 -17.5 Q7.95 -17.6 8.4 -17.85 8.85 -18.15 8.65 -18.45 8.45 -18.8 7.05 -19.1 L9.9 -18.8 Q8.35 -20.35 6.55 -21.35 L7.85 -22.05 Q6.0 -24.05 2.7 -23.7 L4.9 -25.0 Q0.9 -27.25 -2.6 -24.2 L-3.4 -23.35 -1.95 -22.8 -5.45 -21.75 -3.6 -20.9 -4.95 -20.3 -5.3 -20.85 -6.7 -22.95 -6.75 -23.05 -9.6 -24.25 -12.45 -25.4 M14.7 -5.95 L14.5 -4.6 12.55 -5.9 14.7 -5.95 M14.1 -2.0 L14.05 -1.9 13.0 -1.75 12.7 -1.95 13.95 -2.1 14.1 -2.0 M-15.25 -6.2 L-15.25 -6.35 -13.7 -3.85 -15.25 -6.2 M-5.8 -25.05 L-5.4 -24.85 Q-2.7 -25.65 -1.15 -28.0 L-2.3 -28.0 -5.45 -26.7 -5.8 -25.05" fill="#242724" fill-rule="evenodd" stroke="none"/>
      <path d="M15.0 -8.55 L15.0 -8.35 14.7 -8.6 15.0 -8.55 M14.7 -6.05 L14.8 -5.95 14.7 -5.95 12.55 -5.9 11.85 -6.3 11.6 -7.55 12.5 -8.35 14.7 -6.05 M14.05 -1.9 L13.95 -1.15 13.0 -1.75 14.05 -1.9 M13.05 3.1 L12.75 4.2 8.65 4.15 8.15 2.85 10.15 1.95 13.05 3.1 M-15.15 -2.6 L-15.2 -4.45 -15.25 -6.2 -13.7 -3.85 -15.25 -6.35 -15.25 -7.45 -15.25 -7.7 -14.1 -5.55 Q-12.25 -2.9 -9.15 -1.5 -8.75 -1.25 -8.25 -1.1 -9.9 -6.15 -14.3 -9.15 L-15.0 -9.6 -15.25 -8.8 -15.25 -10.2 -15.25 -10.3 -15.25 -10.45 -15.25 -12.1 -14.45 -11.75 -14.4 -11.7 -11.9 -8.4 Q-11.05 -7.05 -9.8 -6.35 L-7.25 -4.45 -6.1 -3.85 -5.05 -2.5 -5.15 -2.0 -6.1 -1.85 -7.65 -2.7 -7.85 -0.9 -7.0 0.15 -8.05 0.7 Q-11.55 2.0 -13.6 0.0 L-13.75 -0.15 -13.8 -0.25 Q-14.6 -1.15 -15.15 -2.6 M5.85 -16.25 L8.75 -13.45 5.65 -14.4 4.0 -15.5 2.05 -16.65 0.5 -17.35 5.85 -16.25 M5.1 -13.5 L5.9 -12.35 0.5 -13.95 -3.35 -15.95 -2.8 -15.75 -0.35 -14.85 4.6 -13.0 4.95 -13.5 5.1 -13.5 M1.85 -12.95 L3.7 -11.75 4.55 -11.05 Q6.8 -9.2 8.5 -6.6 L8.1 -6.35 2.9 -9.05 4.3 -3.55 3.8 -3.25 3.4 -3.4 1.15 -7.0 1.05 -5.25 -1.1 -6.9 -0.65 -7.75 -4.4 -11.2 -0.1 -9.15 0.5 -9.3 -2.3 -12.7 2.35 -11.05 2.45 -11.0 2.5 -11.1 2.6 -12.0 1.85 -12.95 M-2.85 -6.85 L-3.2 -6.3 -6.25 -7.65 -5.4 -6.35 Q-8.8 -8.4 -11.45 -11.25 L-9.7 -11.25 Q-7.4 -9.4 -4.8 -7.95 L-2.85 -6.85 M11.5 -3.9 L13.95 -2.1 12.7 -1.95 12.65 -2.0 9.85 -3.45 11.5 -3.9 M8.55 -0.9 L9.55 -1.15 10.7 -0.3 8.55 -0.9 M8.75 1.45 L5.05 2.4 5.05 1.85 5.05 1.65 Q5.15 0.5 6.1 -0.05 L8.75 1.45" fill="#2c5277" fill-rule="evenodd" stroke="none"/>
      <path d="M15.0 -8.35 L14.7 -6.05 12.5 -8.35 11.85 -9.15 12.0 -9.9 14.7 -8.6 15.0 -8.35 M14.5 -4.6 L14.5 -4.55 14.1 -2.0 13.95 -2.1 11.5 -3.9 9.4 -6.35 10.0 -6.85 11.85 -6.3 12.55 -5.9 14.5 -4.6 M13.95 -1.15 L13.05 3.1 10.15 1.95 8.75 1.45 6.1 -0.05 6.3 -0.55 6.75 -0.9 8.55 -0.9 10.7 -0.3 9.55 -1.15 7.45 -3.4 8.05 -3.85 9.85 -3.45 12.65 -2.0 12.7 -1.95 13.0 -1.75 13.95 -1.15 M-15.25 -7.7 L-15.25 -8.8 -15.0 -9.6 -14.3 -9.15 Q-9.9 -6.15 -8.25 -1.1 -8.75 -1.25 -9.15 -1.5 -12.25 -2.9 -14.1 -5.55 L-15.25 -7.7 M-4.95 -20.3 L-3.6 -20.9 -5.45 -21.75 -1.95 -22.8 -3.4 -21.65 -3.15 -20.15 6.55 -21.35 Q8.35 -20.35 9.9 -18.8 L7.05 -19.1 Q3.55 -20.6 0.1 -19.95 L-2.2 -19.45 -2.5 -18.05 6.1 -17.5 6.55 -17.2 5.85 -16.25 0.5 -17.35 2.05 -16.65 4.0 -15.5 Q0.8 -17.7 -2.3 -16.1 L-2.8 -15.75 -3.35 -15.95 0.5 -13.95 1.85 -12.95 2.6 -12.0 2.5 -11.1 2.45 -11.0 2.35 -11.05 -2.3 -12.7 0.5 -9.3 -0.1 -9.15 -4.4 -11.2 -0.65 -7.75 -1.1 -6.9 -2.85 -6.85 -4.8 -7.95 Q-7.4 -9.4 -9.7 -11.25 L-9.2 -11.4 Q-3.4 -13.35 -4.7 -19.45 L-4.95 -20.3 M-5.4 -6.35 L-3.45 -4.25 -3.65 -3.65 -6.1 -3.85 -7.25 -4.45 -9.8 -6.35 Q-11.05 -7.05 -11.9 -8.4 L-14.4 -11.7 -14.45 -11.75 -14.4 -11.75 -11.45 -11.25 Q-8.8 -8.4 -5.4 -6.35 M4.95 -13.5 L4.6 -13.0 -0.35 -14.85 4.95 -13.5" fill="#44855a" fill-rule="evenodd" stroke="none"/>
      <path d="M-15.25 -12.1 L-15.2 -12.55 -14.4 -12.6 -13.4 -12.65 -11.15 -12.95 Q-4.05 -14.05 -4.5 -17.45 -4.85 -19.6 -5.3 -20.85 L-4.95 -20.3 -4.7 -19.45 Q-3.4 -13.35 -9.2 -11.4 L-9.7 -11.25 -11.45 -11.25 -14.4 -11.75 -14.45 -11.75 -15.25 -12.1 M-15.15 -14.45 L-15.1 -15.1 -14.9 -17.2 -14.15 -16.65 -13.35 -16.2 -12.7 -15.9 Q-11.1 -15.3 -9.25 -15.35 -10.7 -14.4 -12.0 -14.1 L-13.45 -14.0 -14.4 -14.15 -15.15 -14.45 M-14.75 -18.2 L-14.4 -19.95 -13.55 -19.85 -13.05 -19.9 -12.25 -20.15 -14.15 -20.95 -14.1 -21.05 -14.0 -21.45 -13.9 -21.7 -12.85 -22.15 Q-10.7 -22.85 -8.55 -21.2 -10.45 -18.45 -13.0 -18.15 L-13.05 -18.15 -13.9 -18.1 -14.75 -18.2 M-9.6 -24.25 L-6.75 -23.05 -6.7 -22.95 Q-5.5 -19.9 -6.75 -18.5 -6.9 -23.1 -9.6 -24.25" fill="#a65b5b" fill-rule="evenodd" stroke="none"/>
      <path d="M-15.2 -12.55 L-15.2 -12.75 -15.2 -12.9 -15.2 -13.4 -15.15 -14.45 -14.4 -14.15 -13.45 -14.0 -12.0 -14.1 Q-10.7 -14.4 -9.25 -15.35 -11.1 -15.3 -12.7 -15.9 L-13.35 -16.2 -14.15 -16.65 -14.9 -17.2 -14.75 -18.2 -13.9 -18.1 -13.05 -18.15 -13.0 -18.15 Q-10.45 -18.45 -8.55 -21.2 -10.7 -22.85 -12.85 -22.15 L-13.9 -21.7 -13.65 -22.5 -12.75 -24.75 -12.65 -24.95 -12.45 -25.4 -9.6 -24.25 Q-6.9 -23.1 -6.75 -18.5 -5.5 -19.9 -6.7 -22.95 L-5.3 -20.85 Q-4.85 -19.6 -4.5 -17.45 -4.05 -14.05 -11.15 -12.95 L-13.4 -12.65 -14.4 -12.6 -15.2 -12.55 M-14.4 -19.95 L-14.15 -20.95 -12.25 -20.15 -13.05 -19.9 -13.55 -19.85 -14.4 -19.95" fill="#e58a8a" fill-rule="evenodd" stroke="none"/>
      <path d="M-1.95 -22.8 L-3.4 -23.35 -2.6 -24.2 Q0.9 -27.25 4.9 -25.0 L2.7 -23.7 Q6.0 -24.05 7.85 -22.05 L6.55 -21.35 -3.15 -20.15 -3.4 -21.65 -1.95 -22.8 M7.05 -19.1 Q8.45 -18.8 8.65 -18.45 8.85 -18.15 8.4 -17.85 7.95 -17.6 7.1 -17.5 L6.1 -17.5 -2.5 -18.05 -2.2 -19.45 0.1 -19.95 Q3.55 -20.6 7.05 -19.1 M5.65 -14.4 Q6.15 -14.2 6.25 -14.0 L6.15 -13.7 5.6 -13.5 5.1 -13.5 4.95 -13.5 -0.35 -14.85 -2.8 -15.75 -2.3 -16.1 Q0.8 -17.7 4.0 -15.5 L5.65 -14.4 M-5.8 -25.05 L-5.45 -26.7 -2.3 -28.0 -1.15 -28.0 Q-2.7 -25.65 -5.4 -24.85 L-5.8 -25.05" fill="#8ab66c" fill-rule="evenodd" stroke="none"/>
      <path d="M-10.0 5.0 L-9.95 5.2 -8.8 7.6 -8.85 7.6 -12.15 7.55 -12.9 5.25 -12.95 5.0 -10.0 5.0" fill="#cda57e" fill-rule="evenodd" stroke="none"/>
      <path d="M11.05 7.8 L10.4 11.45 Q11.05 19.85 9.2 23.1 7.3 26.3 7.0 25.45 L3.65 29.15 Q2.25 31.05 0.05 31.2 -2.05 31.2 -4.2 30.25 L-7.05 28.75 -8.45 27.45 Q-9.2 26.5 -9.55 25.55 L-10.7 22.8 Q-12.9 17.0 -12.95 12.45 L-13.4 7.55 -12.15 7.55 -12.05 8.1 Q-11.95 8.75 -11.15 9.55 -10.5 10.2 -8.7 11.3 -7.85 11.3 -6.2 13.0 L-5.85 13.35 -6.0 11.6 Q-6.1 10.8 -7.6 9.05 L-8.7 7.8 -8.85 7.6 -8.8 7.6 Q2.6 6.2 11.05 7.8" fill="#ffcc99" fill-rule="evenodd" stroke="none"/>
      <path d="M-12.15 7.55 L-8.85 7.6 -8.7 7.8 -7.6 9.05 Q-6.1 10.8 -6.0 11.6 L-5.85 13.35 -6.2 13.0 Q-7.85 11.3 -8.7 11.3 -10.5 10.2 -11.15 9.55 -11.95 8.75 -12.05 8.1 L-12.15 7.55" fill="#f4c398" fill-rule="evenodd" stroke="none"/>
      <path d="M11.55 5.05 L11.05 7.8 Q2.6 6.2 -8.8 7.6 L-9.95 5.2 -10.0 5.0 -0.9 5.0 11.55 5.05 M-13.4 7.55 L-13.5 5.25 -13.5 5.0 -12.95 5.0 -12.9 5.25 -12.15 7.55 -13.4 7.55" fill="#e2b181" fill-rule="evenodd" stroke="none"/>
    </g>
    <g id="sprite1" transform="matrix(1.0, 0.0, 0.0, 1.0, 50.0, 50.0)">
      <use ffdec:characterId="1080" height="100.0" transform="matrix(1.0, 0.0, 0.0, 1.0, -50.0, -50.0)" width="100.0" xlink:href="#shape1"/>
    </g>
    <g id="shape1" transform="matrix(1.0, 0.0, 0.0, 1.0, 50.0, 50.0)">
      <path d="M50.0 50.0 L-50.0 50.0 -50.0 -50.0 50.0 -50.0 50.0 50.0 Z" fill="none" stroke="#9900ff" stroke-linecap="round" stroke-linejoin="round" stroke-width="0.05"/>
    </g>
    <g id="sprite2" transform="matrix(1.0, 0.0, 0.0, 1.0, 12.6, 7.7)">
      <use ffdec:characterId="1193" ffdec:characterName="game_fla.lowerarm1_881" height="73.65" id="lowerArm1" transform="matrix(1.0, 0.0, 0.0, 1.0, -12.6, -7.7)" width="24.7" xlink:href="#sprite3"/>
    </g>
    <g id="sprite3" transform="matrix(1.0, 0.0, 0.0, 1.0, 13.15, 34.55)">
      <use ffdec:characterId="1188" height="51.7" transform="matrix(1.0, 0.0, 0.0, 1.0, -13.15, -34.55)" width="24.7" xlink:href="#shape2"/>
      <use ffdec:characterId="1191" ffdec:characterName="game_fla.hand1_882" height="23.0" id="hand" transform="matrix(1.0, 0.0, 0.0, 1.0, -9.25, 16.1)" width="18.65" xlink:href="#sprite4"/>
      <use ffdec:characterId="1081" height="100.0" id="shape" transform="matrix(0.2, 0.0, 0.0, 0.65, -9.9991, -32.5012)" width="100.0" xlink:href="#sprite1"/>
    </g>
    <g id="shape2" transform="matrix(1.0, 0.0, 0.0, 1.0, 13.15, 34.55)">
      <path d="M-4.2 -23.1 L-4.4 -23.55 -4.2 -23.1" fill="#583a30" fill-rule="evenodd" stroke="none"/>
      <path d="M-11.85 -26.9 L-11.8 -27.05 -11.8 -27.1 Q-8.9 -31.05 -6.75 -32.55 -3.9 -34.55 0.2 -34.55 L3.8 -34.2 Q5.0 -33.9 7.05 -32.8 L8.3 -31.95 8.75 -31.5 Q9.4 -30.8 9.65 -29.85 11.5 -24.3 11.55 -21.4 11.55 -18.2 9.7 -7.25 7.85 3.65 7.6 8.5 L7.15 16.65 7.25 17.15 -4.05 17.15 -3.75 16.9 Q-4.05 16.95 -3.2 11.25 -2.3 5.1 -5.5 -1.8 -5.35 -1.0 -5.35 2.55 L-5.5 11.6 Q-5.65 17.05 -4.85 17.15 L-6.35 17.15 -6.35 16.6 Q-6.35 13.3 -8.65 4.45 L-11.45 -6.2 -13.05 -14.05 -13.15 -16.2 Q-13.2 -18.1 -12.55 -20.15 L-11.7 -23.4 -11.3 -22.2 Q-10.8 -20.35 -9.25 -19.75 L-9.25 -21.75 -9.7 -23.35 -10.15 -25.0 -11.0 -26.0 -11.85 -26.9 M1.0 -8.95 Q1.5 -12.0 1.1 -14.95 L0.35 -18.85 Q-0.35 -21.1 -1.65 -23.2 -4.05 -27.05 -3.9 -31.4 L-3.8 -32.3 -4.0 -33.05 -4.6 -32.35 -5.9 -30.95 Q-6.6 -30.35 -6.6 -28.55 -6.6 -27.7 -5.65 -25.7 L-4.5 -23.5 -4.1 -22.85 -2.7 -19.0 Q-2.05 -16.95 -1.35 -13.0 -0.65 -9.05 -1.25 -1.95 0.45 -5.9 1.0 -8.95" fill="#ffcc99" fill-rule="evenodd" stroke="none"/>
      <path d="M1.0 -8.95 Q0.45 -5.9 -1.25 -1.95 -0.65 -9.05 -1.35 -13.0 -2.05 -16.95 -2.7 -19.0 L-4.1 -22.85 -4.5 -23.5 -5.65 -25.7 Q-6.6 -27.7 -6.6 -28.55 -6.6 -30.35 -5.9 -30.95 L-4.6 -32.35 -4.0 -33.05 -3.8 -32.3 -3.9 -31.4 Q-4.05 -27.05 -1.65 -23.2 -0.35 -21.1 0.35 -18.85 L1.1 -14.95 Q1.5 -12.0 1.0 -8.95 M-4.2 -23.1 L-4.4 -23.55 -4.2 -23.1" fill="#ebbb98" fill-rule="evenodd" stroke="none"/>
      <path d="M-4.05 17.15 L-4.85 17.15 Q-5.65 17.05 -5.5 11.6 L-5.35 2.55 Q-5.35 -1.0 -5.5 -1.8 -2.3 5.1 -3.2 11.25 -4.05 16.95 -3.75 16.9 L-4.05 17.15 M-11.7 -23.4 L-11.7 -23.6 -11.9 -25.35 -11.95 -25.95 -11.85 -26.85 -11.85 -26.9 -11.0 -26.0 -10.15 -25.0 -9.7 -23.35 -9.25 -21.75 -9.25 -19.75 Q-10.8 -20.35 -11.3 -22.2 L-11.7 -23.4" fill="#f4c398" fill-rule="evenodd" stroke="none"/>
    </g>
    <g id="sprite4" transform="matrix(1.0, 0.0, 0.0, 1.0, 9.65, 9.2)">
      <use ffdec:characterId="1189" height="18.4" transform="matrix(1.0, 0.0, 0.0, 1.0, -8.35, -9.2)" width="16.75" xlink:href="#shape3"/>
    </g>
    <g id="shape3" transform="matrix(1.0, 0.0, 0.0, 1.0, 8.35, 9.2)">
      <path d="M-1.75 -9.15 L6.75 -9.15 6.8 -8.7 6.05 -8.8 5.3 -8.8 Q5.1 -8.45 5.2 -8.2 L1.15 -8.25 -1.6 -8.3 -1.75 -9.15 M-1.4 -6.35 L1.15 -6.35 5.15 -6.25 5.15 -2.35 Q4.6 -0.75 2.2 -0.85 -0.25 -0.95 -0.7 -2.0 -1.2 -3.1 -1.4 -6.35" fill="#ffcc99" fill-rule="evenodd" stroke="none"/>
      <path d="M2.8 8.2 Q2.25 8.45 1.8 8.8 0.8 9.35 -0.15 9.1 -1.25 8.9 -1.65 7.95 L-2.85 7.7 Q-3.2 7.65 -3.55 7.4 L-3.75 7.3 -4.35 6.45 Q-5.0 5.25 -5.35 5.25 L-5.9 5.0 Q-7.35 4.25 -6.55 2.55 -6.1 2.45 -6.15 2.1 L-6.1 2.1 Q-5.35 2.15 -5.35 2.65 -5.35 3.15 -4.55 3.55 L-4.0 3.85 -3.7 4.0 -3.8 4.05 -5.0 5.0 -5.1 5.1 -5.0 5.25 -4.65 5.6 -3.8 5.85 -2.6 5.1 -2.6 5.05 -2.45 5.25 -2.3 5.4 -2.15 5.55 -1.25 6.15 -0.55 6.35 -0.25 6.5 -0.85 6.9 -1.65 7.95 0.3 7.65 1.1 7.1 2.45 8.1 2.8 8.2" fill="#ebbb98" fill-rule="evenodd" stroke="none"/>
      <path d="M-6.55 2.55 Q-8.7 1.85 -8.3 -0.15 L-7.55 -0.7 Q-7.25 2.05 -5.9 2.1 L-6.1 2.1 -6.15 2.1 Q-6.1 2.45 -6.55 2.55 M1.1 7.1 L0.3 7.65 -1.65 7.95 -0.85 6.9 -0.25 6.5 -0.55 6.35 0.2 6.4 1.0 6.3 1.1 7.05 1.1 7.1 M-2.45 5.25 L-2.6 5.05 -2.6 5.1 -3.8 5.85 -4.65 5.6 -5.0 5.25 -5.1 5.1 -5.0 5.0 -3.8 4.05 -3.7 4.0 -3.25 4.15 -2.65 4.3 -2.45 5.25" fill="#e2b181" fill-rule="evenodd" stroke="none"/>
      <path d="M-1.6 -8.3 L1.15 -8.25 5.2 -8.2 5.3 -8.2 5.15 -6.25 1.15 -6.35 -1.4 -6.35 -1.6 -8.3 M4.7 7.25 L4.15 7.75 3.8 7.9 Q3.25 8.0 2.8 8.2 L2.45 8.1 1.1 7.1 1.1 7.05 1.0 6.3 0.2 6.4 -0.55 6.35 -1.25 6.15 -2.15 5.55 -2.3 5.4 -2.45 5.25 -2.65 4.3 -3.25 4.15 -3.7 4.0 -4.0 3.85 -4.55 3.55 Q-5.35 3.15 -5.35 2.65 -5.35 2.15 -6.1 2.1 L-5.9 2.1 Q-7.25 2.05 -7.55 -0.7 L-7.4 -0.85 Q-7.25 -2.0 -7.35 -3.1 L-7.4 -4.25 Q-7.6 -5.85 -7.2 -7.25 L-6.8 -8.35 -6.8 -9.15 -5.9 -9.15 -5.85 -8.9 -5.25 -5.6 -5.4 -1.6 -5.2 -1.05 -4.5 -0.3 -3.75 0.75 -3.0 1.1 -2.75 1.45 -2.65 2.2 Q-2.65 2.8 -2.2 2.75 L-0.95 3.35 -0.9 3.35 0.15 4.6 3.1 4.0 3.4 4.85 3.3 5.3 2.95 5.65 3.9 7.15 4.7 7.25" fill="#242724" fill-rule="evenodd" stroke="none"/>
      <path d="M-1.75 -9.15 L-1.6 -8.3 -1.4 -6.35 Q-1.2 -3.1 -0.7 -2.0 -0.25 -0.95 2.2 -0.85 4.6 -0.75 5.15 -2.35 L5.15 -6.25 5.3 -8.2 5.2 -8.2 Q5.1 -8.45 5.3 -8.8 L6.05 -8.8 6.8 -8.7 6.9 -8.0 6.9 -7.85 7.15 -6.25 7.6 -4.55 Q8.3 -2.2 8.4 -0.7 L8.3 0.35 8.15 1.0 Q7.9 3.7 7.35 5.0 L6.6 6.15 5.8 6.85 5.5 7.0 4.7 7.25 3.9 7.15 2.95 5.65 3.3 5.3 3.4 4.85 3.1 4.0 0.15 4.6 -0.9 3.35 -0.95 3.35 -2.2 2.75 Q-2.65 2.8 -2.65 2.2 L-2.75 1.45 -3.0 1.1 -3.75 0.75 -4.5 -0.3 -5.2 -1.05 -5.4 -1.6 -5.25 -5.6 -5.85 -8.9 -5.9 -9.15 -4.8 -9.15 -3.45 -9.15 -1.75 -9.15" fill="#313531" fill-rule="evenodd" stroke="none"/>
    </g>
  </defs>
</svg>
