<?xml version="1.0" encoding="UTF-8" standalone="no"?>
<svg xmlns:ffdec="https://www.free-decompiler.com/flash" xmlns:xlink="http://www.w3.org/1999/xlink" ffdec:objectType="frame" height="123.65px" width="26.5px" xmlns="http://www.w3.org/2000/svg">
  <g transform="matrix(1.0, 0.0, 0.0, 1.0, 13.05, 19.9)">
    <use ffdec:characterId="1546" ffdec:characterName="game_fla.upperarm1_730" height="64.55" id="upperArm1" transform="matrix(1.0, 0.0, 0.0, 1.0, -13.05, -19.9)" width="26.5" xlink:href="#sprite0"/>
    <use ffdec:characterId="1553" height="69.3" id="lowerArmOuter1" transform="matrix(0.9989, 0.0, 0.0, 0.9989, -10.4893, 34.5058)" width="19.85" xlink:href="#sprite2"/>
  </g>
  <defs>
    <g id="sprite0" transform="matrix(1.0, 0.0, 0.0, 1.0, 12.4, 37.05)">
      <use ffdec:characterId="1542" height="56.05" transform="matrix(1.0, 0.0, 0.0, 1.0, -10.3, -28.65)" width="21.25" xlink:href="#shape0"/>
      <use ffdec:characterId="1081" height="100.0" id="shape" transform="matrix(0.18, 0.0, 0.0, 0.55, -8.9996, -27.4994)" width="100.0" xlink:href="#sprite1"/>
    </g>
    <g id="shape0" transform="matrix(1.0, 0.0, 0.0, 1.0, 10.3, 28.65)">
      <path d="M-8.0 5.55 L-7.3 5.7 -7.15 5.75 -6.35 5.8 1.6 6.3 3.7 6.25 3.7 6.4 3.8 6.4 5.0 6.25 5.05 6.2 7.35 6.3 7.2 9.4 -0.1 9.6 -6.05 8.85 -5.05 12.85 Q-4.1 16.75 -4.05 17.6 L-3.9 18.7 Q-4.25 16.55 -6.1 13.55 L-7.55 10.95 -8.0 5.55" fill="#e2b181" fill-rule="evenodd" stroke="none"/>
      <path d="M6.8 16.3 L3.0 16.6 -1.3 17.4 Q-2.7 17.75 -3.65 18.5 L-3.9 18.7 Q-5.0 19.45 -5.45 20.45 L-6.1 21.75 -6.35 22.2 -6.75 20.9 -7.55 10.95 -6.1 13.55 Q-4.25 16.55 -3.9 18.7 L-4.05 17.6 Q-4.1 16.75 -5.05 12.85 L-6.05 8.85 -0.1 9.6 7.2 9.4 6.95 13.0 6.8 16.3 M-0.4 27.4 Q0.6 25.9 0.1 23.7 -0.35 21.45 0.1 20.5 0.55 19.55 1.45 19.4 L2.8 19.1 6.8 18.6 6.9 20.15 Q7.0 21.75 5.95 24.0 4.35 27.05 1.3 27.3 L-0.4 27.4" fill="#ffcc99" fill-rule="evenodd" stroke="none"/>
      <path d="M10.95 -17.55 L10.7 -13.2 9.65 -9.3 8.25 -5.5 Q8.25 -4.65 9.0 -1.8 L9.45 0.0 9.1 3.7 8.6 6.2 7.35 6.3 5.05 6.2 5.0 6.25 3.8 6.4 Q3.8 3.6 4.15 -1.3 L4.2 -1.5 4.5 -1.25 Q5.65 -0.15 6.0 1.25 L5.2 -3.1 4.1 -8.95 5.2 -10.45 Q6.75 -12.4 6.75 -14.85 6.75 -24.0 0.35 -24.0 -3.55 -24.0 -5.5 -21.25 -7.25 -18.75 -7.25 -14.1 L-7.0 -11.5 -6.65 -10.1 Q-7.7 -5.7 -7.55 -4.05 -7.3 -1.65 -8.2 -0.1 L-5.3 -3.45 -4.8 -3.9 -6.45 0.05 Q-7.4 2.9 -7.3 5.7 L-8.0 5.55 -8.8 5.35 -9.4 5.15 Q-10.2 4.8 -10.25 4.2 L-10.25 1.35 -10.25 -5.6 -10.2 -7.25 -10.2 -7.85 -10.0 -12.9 -9.8 -15.85 -9.7 -17.05 -7.75 -21.0 Q-4.1 -26.75 1.5 -26.75 4.95 -26.75 8.0 -23.5 10.6 -20.7 10.95 -17.55" fill="#b4b4b4" fill-rule="evenodd" stroke="none"/>
      <path d="M6.8 16.3 L6.8 17.85 6.8 18.6 2.8 19.1 1.45 19.4 Q0.55 19.55 0.1 20.5 -0.35 21.45 0.1 23.7 0.6 25.9 -0.4 27.4 L-0.45 27.4 -1.2 27.35 Q-2.7 27.2 -3.8 26.65 -5.35 25.0 -6.15 22.75 L-6.35 22.2 -6.1 21.75 -5.45 20.45 Q-5.0 19.45 -3.9 18.7 L-3.65 18.5 Q-2.7 17.75 -1.3 17.4 L3.0 16.6 6.8 16.3" fill="#333333" fill-rule="evenodd" stroke="none"/>
      <path d="M-7.3 5.7 Q-7.4 2.9 -6.45 0.05 L-4.8 -3.9 -5.3 -3.45 -8.2 -0.1 Q-7.3 -1.65 -7.55 -4.05 -7.7 -5.7 -6.65 -10.1 L-7.0 -11.5 -7.25 -14.1 Q-7.25 -18.75 -5.5 -21.25 -3.55 -24.0 0.35 -24.0 6.75 -24.0 6.75 -14.85 6.75 -12.4 5.2 -10.45 L4.1 -8.95 5.2 -3.1 6.0 1.25 Q5.65 -0.15 4.5 -1.25 L4.2 -1.5 4.15 -1.3 Q3.8 3.6 3.8 6.4 L3.7 6.4 3.7 6.25 1.6 6.3 -6.35 5.8 -7.15 5.75 -7.3 5.7" fill="#a1a1a1" fill-rule="evenodd" stroke="none"/>
      <path d="M10.95 -17.55 Q10.6 -20.7 8.0 -23.5 4.95 -26.75 1.5 -26.75 -4.1 -26.75 -7.75 -21.0 L-9.7 -17.05 -9.3 -19.2 -8.8 -20.6 -8.35 -21.6 Q-7.2 -24.5 -6.3 -25.6 -4.6 -27.6 -2.3 -28.25 L-0.95 -28.55 3.45 -28.3 Q7.25 -27.8 9.3 -24.1 10.65 -21.5 10.95 -18.0 L10.95 -17.55 M9.45 0.0 L9.0 -1.8 Q8.25 -4.65 8.25 -5.5 L9.65 -9.3 10.7 -13.2 10.45 -10.25 10.4 -10.05 9.45 0.0" fill="#d4d4d4" fill-rule="evenodd" stroke="none"/>
    </g>
    <g id="sprite1" transform="matrix(1.0, 0.0, 0.0, 1.0, 50.0, 50.0)">
      <use ffdec:characterId="1080" height="100.0" transform="matrix(1.0, 0.0, 0.0, 1.0, -50.0, -50.0)" width="100.0" xlink:href="#shape1"/>
    </g>
    <g id="shape1" transform="matrix(1.0, 0.0, 0.0, 1.0, 50.0, 50.0)">
      <path d="M50.0 50.0 L-50.0 50.0 -50.0 -50.0 50.0 -50.0 50.0 50.0 Z" fill="none" stroke="#9900ff" stroke-linecap="round" stroke-linejoin="round" stroke-width="0.05"/>
    </g>
    <g id="sprite2" transform="matrix(1.0, 0.0, 0.0, 1.0, 9.9, 5.2)">
      <use ffdec:characterId="1552" ffdec:characterName="game_fla.lowerarm1_732" height="69.3" id="lowerArm1" transform="matrix(1.0, 0.0, 0.0, 1.0, -9.9, -5.2)" width="19.85" xlink:href="#sprite3"/>
    </g>
    <g id="sprite3" transform="matrix(1.0, 0.0, 0.0, 1.0, 11.4, 31.7)">
      <use ffdec:characterId="1549" ffdec:characterName="game_fla.hand_373" height="24.55" id="hand" transform="matrix(1.0, 0.0, 0.0, 1.0, -8.95, 13.05)" width="16.7" xlink:href="#sprite4"/>
      <use ffdec:characterId="1550" height="46.3" transform="matrix(1.0, 0.0, 0.0, 1.0, -9.75, -31.7)" width="16.65" xlink:href="#shape3"/>
      <use ffdec:characterId="1081" height="100.0" id="shape" transform="matrix(0.15, 0.0, 0.0, 0.6, -7.4997, -29.9995)" width="100.0" xlink:href="#sprite1"/>
    </g>
    <g id="sprite4" transform="matrix(1.0, 0.0, 0.0, 1.0, 9.35, 8.9)">
      <use ffdec:characterId="1547" height="17.85" transform="matrix(1.0, 0.0, 0.0, 1.0, -7.3, -8.9)" width="14.65" xlink:href="#shape2"/>
    </g>
    <g id="shape2" transform="matrix(1.0, 0.0, 0.0, 1.0, 7.3, 8.9)">
      <path d="M4.95 -8.9 L5.15 -8.9 5.15 -8.7 7.35 0.55 6.75 2.2 5.6 3.65 5.8 6.3 5.15 5.3 Q3.45 6.0 1.8 7.05 L0.45 6.1 Q-0.4 7.25 -1.15 6.95 L-2.0 6.65 -2.55 5.85 -6.25 4.75 -5.9 4.05 Q-4.8 1.7 -4.3 -0.85 -3.95 -2.9 -3.25 -4.7 -2.75 -5.95 -2.55 -7.15 L-2.45 -7.75 1.6 -8.25 1.35 -7.75 1.75 -7.35 2.2 -7.15 4.15 -4.0 4.95 -7.2 Q5.1 -7.95 4.85 -8.65 L4.95 -8.9 M-4.75 -7.5 L-4.45 -8.45 -4.55 -8.8 -4.55 -8.9 -4.05 -8.9 -4.75 -7.5" fill="#ffcc99" fill-rule="evenodd" stroke="none"/>
      <path d="M5.8 6.3 L5.75 6.7 5.7 6.85 Q4.9 7.55 3.7 8.05 L2.65 7.7 2.5 7.65 2.0 8.1 0.85 8.65 -0.3 8.95 -1.2 7.95 -1.25 8.0 -1.85 8.5 -3.05 8.5 Q-4.9 8.0 -5.5 6.3 L-6.55 5.9 -7.2 4.85 -7.3 4.6 Q-7.2 -0.15 -5.5 -5.05 L-4.75 -7.5 -4.05 -8.9 4.95 -8.9 4.85 -8.65 Q5.1 -7.95 4.95 -7.2 L4.15 -4.0 2.2 -7.15 1.75 -7.35 1.35 -7.75 1.6 -8.25 -2.45 -7.75 -2.55 -7.15 Q-2.75 -5.95 -3.25 -4.7 -3.95 -2.9 -4.3 -0.85 -4.8 1.7 -5.9 4.05 L-6.25 4.75 -2.55 5.85 -2.0 6.65 -1.15 6.95 Q-0.4 7.25 0.45 6.1 L1.8 7.05 Q3.45 6.0 5.15 5.3 L5.8 6.3" fill="#ebbb98" fill-rule="evenodd" stroke="none"/>
    </g>
    <g id="shape3" transform="matrix(1.0, 0.0, 0.0, 1.0, 9.75, 31.7)">
      <path d="M1.85 -25.95 Q3.05 -28.05 1.8 -28.2 L-0.25 -25.05 -1.2 -23.2 Q-2.4 -20.75 -3.2 -18.1 L-5.8 -8.3 -5.65 -8.75 -5.2 -4.15 -3.7 1.65 -3.6 2.15 -3.65 -3.15 -3.4 -6.05 Q-2.7 -12.8 -0.75 -19.8 L0.35 -21.15 1.15 -17.7 1.3 -18.3 Q1.7 -20.2 1.45 -21.05 0.55 -23.55 1.85 -25.95 M-4.7 -28.5 L-3.95 -28.15 -2.1 -27.85 -1.85 -27.85 Q-0.8 -28.7 1.55 -28.75 L2.6 -28.8 Q4.5 -28.65 5.4 -26.9 6.35 -23.65 6.55 -20.8 6.85 -17.3 6.4 -12.75 L5.55 -3.2 5.15 2.85 5.1 4.75 4.85 2.85 3.85 -2.55 3.35 -4.95 3.55 4.75 -3.0 4.75 -4.75 4.95 -5.1 2.8 -5.25 2.05 Q-6.45 -4.5 -6.85 -8.45 -7.25 -12.45 -7.15 -14.55 L-7.0 -23.95 Q-5.65 -24.95 -5.8 -22.2 -5.25 -22.15 -4.75 -23.55 -4.25 -25.0 -4.7 -28.5" fill="#ffcc99" fill-rule="evenodd" stroke="none"/>
      <path d="M1.85 -25.95 Q0.55 -23.55 1.45 -21.05 1.7 -20.2 1.3 -18.3 L1.15 -17.7 0.35 -21.15 -0.75 -19.8 Q-2.7 -12.8 -3.4 -6.05 L-3.65 -3.15 -3.6 2.15 -3.7 1.65 -5.2 -4.15 -5.65 -8.75 -5.8 -8.3 -3.2 -18.1 Q-2.4 -20.75 -1.2 -23.2 L-0.25 -25.05 1.8 -28.2 Q3.05 -28.05 1.85 -25.95 M3.55 4.75 L3.35 -4.95 3.85 -2.55 4.85 2.85 5.1 4.75 3.55 4.75" fill="#ebbb98" fill-rule="evenodd" stroke="none"/>
      <path d="M-4.7 -28.5 Q-4.25 -25.0 -4.75 -23.55 -5.25 -22.15 -5.8 -22.2 -5.65 -24.95 -7.0 -23.95 L-5.6 -28.3 Q-5.4 -28.9 -4.7 -28.5" fill="#e2b181" fill-rule="evenodd" stroke="none"/>
      <path d="M3.9 14.5 L2.5 14.6 2.5 14.25 2.55 12.5 2.6 11.85 2.65 11.0 2.65 7.6 Q2.75 6.15 2.15 5.85 L0.65 5.75 Q-1.35 5.75 -1.85 6.35 -2.25 6.85 -2.25 8.85 L-2.15 10.3 -2.05 11.6 -1.8 14.5 -2.85 14.45 -2.9 14.45 -3.25 12.75 -3.3 11.4 -3.35 8.85 Q-3.35 6.4 -3.15 6.0 L-2.55 5.4 -1.35 5.25 -0.55 5.2 2.8 5.05 3.55 5.65 Q4.1 6.4 3.9 7.85 3.8 8.35 3.85 9.2 L4.0 10.55 4.15 11.75 4.25 13.1 4.1 14.15 3.9 14.5" fill="#e2e2e2" fill-rule="evenodd" stroke="none"/>
      <path d="M2.5 14.6 L1.9 14.6 -1.8 14.5 -2.05 11.6 -2.15 10.3 -2.25 8.85 Q-2.25 6.85 -1.85 6.35 -1.35 5.75 0.65 5.75 L2.15 5.85 Q2.75 6.15 2.65 7.6 L2.65 11.0 2.6 11.85 2.55 12.5 2.5 14.25 2.5 14.6" fill="#d4d4d4" fill-rule="evenodd" stroke="none"/>
      <path d="M-4.75 4.95 L-3.0 4.75 3.55 4.75 5.1 4.75 5.15 4.75 Q5.75 5.5 5.8 6.7 L5.75 8.75 5.85 12.65 5.75 13.9 4.95 14.3 4.85 14.35 3.9 14.5 4.1 14.15 4.25 13.1 4.15 11.75 4.0 10.55 3.85 9.2 Q3.8 8.35 3.9 7.85 4.1 6.4 3.55 5.65 L2.8 5.05 -0.55 5.2 -1.35 5.25 -2.55 5.4 -3.15 6.0 Q-3.35 6.4 -3.35 8.85 L-3.3 11.4 -3.25 12.75 -2.9 14.45 -3.45 14.35 -4.8 14.0 Q-5.1 13.8 -5.0 13.35 L-4.85 12.85 -4.85 12.2 -4.85 12.0 -5.1 10.0 -5.3 8.25 -5.4 7.65 -5.4 7.4 -5.4 6.95 Q-5.4 5.85 -5.2 5.45 L-4.75 4.95" fill="#f3f3f3" fill-rule="evenodd" stroke="none"/>
      <path d="M-7.5 -30.6 Q-6.2 -32.0 -1.35 -31.65 L-1.85 -29.65 -1.65 -26.45 -1.6 -25.55 -1.3 -21.1 -1.25 -20.65 1.4 -20.65 6.85 -20.05 6.9 -19.3 6.9 -18.9 6.75 -17.0 0.45 -17.15 -4.95 -17.1 -7.35 -17.05 Q-7.6 -17.05 -7.7 -18.25 L-7.0 -18.2 Q-5.45 -18.2 -4.7 -19.7 -4.35 -20.4 -4.2 -21.45 L-4.05 -22.85 -4.05 -23.35 -4.1 -24.55 -4.15 -25.05 -4.45 -27.0 -4.8 -28.8 Q-5.35 -29.9 -6.4 -30.3 L-6.95 -30.5 -7.5 -30.6" fill="#333333" fill-rule="evenodd" stroke="none"/>
      <path d="M-4.05 -23.35 L-4.05 -22.85 -4.2 -21.45 Q-4.35 -20.4 -4.7 -19.7 L-4.65 -20.45 Q-4.65 -22.2 -4.9 -23.65 L-4.95 -23.85 Q-5.5 -26.55 -6.8 -26.55 -7.95 -26.55 -8.5 -25.25 -9.0 -24.2 -9.0 -22.5 L-8.95 -20.45 -8.45 -18.65 Q-8.85 -19.0 -8.9 -19.6 L-9.5 -22.25 Q-9.9 -23.75 -9.6 -26.2 L-9.2 -28.9 Q-8.65 -29.7 -7.8 -29.7 -5.55 -29.7 -4.8 -27.15 L-4.3 -24.35 -4.05 -23.35" fill="#e2e2e2" fill-rule="evenodd" stroke="none"/>
      <path d="M-7.5 -30.6 L-6.95 -30.5 -6.4 -30.3 Q-5.35 -29.9 -4.8 -28.8 L-4.45 -27.0 -4.15 -25.05 -4.1 -24.55 -4.05 -23.35 -4.3 -24.35 -4.8 -27.15 Q-5.55 -29.7 -7.8 -29.7 -8.65 -29.7 -9.2 -28.9 L-8.95 -29.8 Q-8.65 -30.7 -7.5 -30.6" fill="#f3f3f3" fill-rule="evenodd" stroke="none"/>
      <path d="M-4.7 -19.7 Q-5.45 -18.2 -7.0 -18.2 L-7.7 -18.25 -8.45 -18.65 -8.95 -20.45 -9.0 -22.5 Q-9.0 -24.2 -8.5 -25.25 -7.95 -26.55 -6.8 -26.55 -5.5 -26.55 -4.95 -23.85 L-4.9 -23.65 Q-4.65 -22.2 -4.65 -20.45 L-4.7 -19.7" fill="#d4d4d4" fill-rule="evenodd" stroke="none"/>
    </g>
  </defs>
</svg>
