<?xml version="1.0" encoding="UTF-8" standalone="no"?>
<svg xmlns:ffdec="https://www.free-decompiler.com/flash" xmlns:xlink="http://www.w3.org/1999/xlink" ffdec:objectType="frame" height="66.2px" width="20.3px" xmlns="http://www.w3.org/2000/svg">
  <g transform="matrix(1.0, 0.0, 0.0, 1.0, 10.25, 30.8)">
    <use ffdec:characterId="2026" ffdec:characterName="game_fla.hand2_458" height="21.85" id="hand" transform="matrix(1.0, 0.0, 0.0, 1.0, -7.7, 13.55)" width="15.6" xlink:href="#sprite0"/>
    <use ffdec:characterId="2027" height="45.55" transform="matrix(1.0, 0.0, 0.0, 1.0, -8.8, -30.8)" width="17.45" xlink:href="#shape1"/>
    <use ffdec:characterId="1081" height="100.0" id="shape" transform="matrix(0.15, 0.0, 0.0, 0.6, -7.4997, -29.9995)" width="100.0" xlink:href="#sprite1"/>
  </g>
  <defs>
    <g id="sprite0" transform="matrix(1.0, 0.0, 0.0, 1.0, 8.8, 7.45)">
      <use ffdec:characterId="1462" height="14.95" transform="matrix(1.0, 0.0, 0.0, 1.0, -6.75, -7.45)" width="13.55" xlink:href="#shape0"/>
    </g>
    <g id="shape0" transform="matrix(1.0, 0.0, 0.0, 1.0, 6.75, 7.45)">
      <path d="M0.85 -7.45 L5.35 -7.45 5.65 -6.2 6.25 -3.75 6.4 -3.35 6.45 -3.15 6.45 -3.0 4.9 2.05 4.0 4.55 -1.6 2.8 -2.45 2.45 Q-1.4 4.45 0.9 4.55 L0.25 4.85 -6.65 3.6 -6.75 3.1 -6.45 0.85 -6.3 0.05 -5.55 -0.6 -0.3 -1.0 -0.25 -1.0 -0.25 -1.05 -0.75 -3.5 0.55 -4.75 Q1.1 -5.35 2.85 -5.15 L2.15 -6.45 1.7 -6.55 1.35 -6.6 0.85 -7.45 M-3.75 -7.45 L-3.75 -6.75 -4.15 -4.95 -4.65 -4.85 -4.65 -6.05 -4.6 -6.6 -4.55 -6.7 -4.5 -7.45 -3.75 -7.45 M-5.1 -2.4 L-5.1 -2.2 -5.15 -2.3 -5.1 -2.4" fill="#ffcc99" fill-rule="evenodd" stroke="none"/>
      <path d="M0.85 -7.45 L1.35 -6.6 1.7 -6.55 2.15 -6.45 2.85 -5.15 Q1.1 -5.35 0.55 -4.75 L-0.75 -3.5 -0.25 -1.05 -0.3 -1.0 -5.55 -0.6 -5.1 -2.2 -5.1 -2.4 -4.65 -4.85 -4.15 -4.95 -3.75 -6.75 -3.75 -7.45 0.85 -7.45" fill="#ebbb98" fill-rule="evenodd" stroke="none"/>
      <path d="M-6.65 3.6 L0.25 4.85 0.9 4.55 Q-1.4 4.45 -2.45 2.45 L-1.6 2.8 4.0 4.55 4.9 2.05 6.45 -3.0 6.8 -0.1 Q6.9 2.8 6.0 5.6 L5.6 5.95 5.35 6.5 Q2.85 8.15 0.3 7.05 L-1.5 7.2 Q-4.45 7.25 -6.25 5.15 L-6.65 4.65 -6.7 3.6 -6.65 3.6" fill="#e2b181" fill-rule="evenodd" stroke="none"/>
    </g>
    <g id="shape1" transform="matrix(1.0, 0.0, 0.0, 1.0, 8.8, 30.8)">
      <path d="M5.05 -27.0 L5.95 -26.1 7.0 -24.8 7.7 -21.45 7.9 -20.3 7.95 -18.15 7.15 -13.5 Q5.9 -8.25 5.7 -5.85 5.5 -3.5 6.55 -1.55 L7.0 -0.75 7.0 -0.7 7.85 2.1 Q8.65 4.75 8.65 6.9 L8.45 9.55 Q8.15 10.8 7.55 11.4 L6.45 10.45 Q6.3 10.55 6.25 8.95 6.2 6.95 5.55 5.15 L3.25 -0.65 Q3.75 -3.9 3.85 -7.2 L3.85 -9.15 Q3.7 -12.85 5.0 -16.4 L6.1 -19.7 Q6.75 -21.85 6.45 -23.65 6.1 -25.45 5.05 -27.0 M-4.35 11.75 Q-6.85 9.7 -7.05 6.3 L-7.25 -0.25 -6.65 -5.65 -7.3 -8.95 Q-8.4 -14.5 -8.8 -18.85 L-8.2 -22.45 -7.8 -24.6 -7.7 -23.45 Q-8.0 -21.9 -7.55 -20.6 -6.5 -17.2 -6.25 -15.35 L-5.7 -11.45 -5.0 -6.4 Q-4.75 -4.4 -4.8 -2.35 L-4.9 -0.4 -5.1 1.1 -5.5 2.45 Q-6.05 3.8 -5.35 5.3 L-5.15 5.95 -5.25 7.8 -5.1 10.3 Q-5.0 11.15 -4.35 11.75" fill="#996633" fill-rule="evenodd" stroke="none"/>
      <path d="M-7.8 -24.6 L-7.35 -27.1 Q-6.0 -30.05 -3.55 -30.6 -1.15 -31.25 0.6 -29.65 3.05 -28.85 5.05 -27.0 6.1 -25.45 6.45 -23.65 6.75 -21.85 6.1 -19.7 L5.0 -16.4 Q3.7 -12.85 3.85 -9.15 L3.85 -7.2 Q3.75 -3.9 3.25 -0.65 L5.55 5.15 Q6.2 6.95 6.25 8.95 6.3 10.55 6.45 10.45 L7.55 11.4 7.0 11.95 3.45 11.5 -4.35 11.75 Q-5.0 11.15 -5.1 10.3 L-5.25 7.8 -5.15 5.95 -5.35 5.3 Q-6.05 3.8 -5.5 2.45 L-5.1 1.1 -4.9 -0.4 -4.8 -2.35 Q-4.75 -4.4 -5.0 -6.4 L-5.7 -11.45 -6.25 -15.35 Q-6.5 -17.2 -7.55 -20.6 -8.0 -21.9 -7.7 -23.45 L-7.8 -24.6" fill="#86592d" fill-rule="evenodd" stroke="none"/>
      <path d="M7.95 -18.15 L8.0 -16.45 Q8.05 -13.2 7.55 -7.4 L7.0 -0.75 6.55 -1.55 Q5.5 -3.5 5.7 -5.85 5.9 -8.25 7.15 -13.5 L7.95 -18.15" fill="#bf8040" fill-rule="evenodd" stroke="none"/>
      <path d="M7.0 11.95 L7.05 13.4 Q7.05 13.9 6.35 14.05 L2.85 14.35 -3.6 14.75 -4.05 13.95 -4.35 11.75 3.45 11.5 7.0 11.95" fill="#fd8181" fill-rule="evenodd" stroke="none"/>
    </g>
    <g id="sprite1" transform="matrix(1.0, 0.0, 0.0, 1.0, 50.0, 50.0)">
      <use ffdec:characterId="1080" height="100.0" transform="matrix(1.0, 0.0, 0.0, 1.0, -50.0, -50.0)" width="100.0" xlink:href="#shape2"/>
    </g>
    <g id="shape2" transform="matrix(1.0, 0.0, 0.0, 1.0, 50.0, 50.0)">
      <path d="M50.0 50.0 L-50.0 50.0 -50.0 -50.0 50.0 -50.0 50.0 50.0 Z" fill="none" stroke="#9900ff" stroke-linecap="round" stroke-linejoin="round" stroke-width="0.05"/>
    </g>
  </defs>
</svg>
