<?xml version="1.0" encoding="UTF-8" standalone="no"?>
<svg xmlns:ffdec="https://www.free-decompiler.com/flash" xmlns:xlink="http://www.w3.org/1999/xlink" ffdec:objectType="frame" height="109.7px" width="55.85px" xmlns="http://www.w3.org/2000/svg">
  <g transform="matrix(1.0, 0.0, 0.0, 1.0, 27.0, 70.9)">
    <use ffdec:characterId="1997" height="67.7" transform="matrix(1.0, 0.0, 0.0, 1.0, -15.2, -34.4)" width="30.8" xlink:href="#shape0"/>
    <use ffdec:characterId="1138" height="0.0" id="spineRef" transform="matrix(1.0, 0.0, 0.0, 1.0, 0.85, -40.9)" width="0.0" xlink:href="#sprite0"/>
  </g>
  <defs>
    <g id="shape0" transform="matrix(1.0, 0.0, 0.0, 1.0, 15.2, 34.4)">
      <path d="M12.0 1.1 L12.0 1.15 Q12.0 3.1 11.6 4.85 L10.15 4.25 10.6 3.9 10.75 2.9 10.6 1.85 9.65 1.95 8.65 3.65 7.5 3.65 Q8.05 4.65 7.7 5.45 7.5 5.95 6.95 6.1 L6.65 5.95 6.4 5.35 5.65 5.0 Q4.3 4.3 3.05 4.65 3.55 3.4 4.0 3.3 L7.1 3.5 7.35 3.25 Q6.5 2.85 5.5 1.35 L5.15 0.75 Q4.05 -1.05 2.75 -4.0 2.75 -6.05 5.3 -4.25 L6.1 -3.6 6.3 -3.65 7.0 -3.0 Q7.4 -2.4 8.85 -2.4 L9.65 -3.25 Q10.35 -4.1 10.75 -4.15 L10.8 -3.55 10.6 -2.6 11.0 -2.2 10.75 -1.75 11.45 -1.65 11.6 -1.4 11.65 -1.2 11.0 0.4 11.25 0.6 11.55 0.55 12.0 1.1 M11.85 6.75 Q11.0 6.8 10.6 7.7 L9.6 9.35 8.1 8.05 7.15 7.3 Q8.1 7.9 9.3 7.7 L9.6 7.3 Q10.1 6.65 9.95 5.75 L11.85 6.75 M8.25 10.9 L6.05 12.75 3.45 10.85 -0.5 7.35 1.6 10.75 0.9 12.05 0.25 12.1 -0.75 14.6 -1.95 14.15 Q-6.1 10.85 -9.7 13.6 L-10.6 14.35 -10.8 11.5 -11.25 11.05 -13.6 12.05 -15.2 12.3 -12.8 8.0 Q-12.75 6.7 -12.05 5.6 L-11.55 5.0 -10.95 5.5 -10.45 6.35 -10.65 7.6 -10.15 8.1 Q-7.4 9.4 -4.55 7.7 L-4.8 6.45 -3.9 8.15 -1.85 6.75 -3.4 5.8 -4.15 5.2 -4.75 4.3 -4.6 3.7 -4.4 3.2 -4.15 2.75 -3.25 2.15 -0.8 2.85 -1.35 0.6 -0.2 1.3 Q1.5 2.0 2.85 0.75 L2.9 -0.65 Q3.65 2.5 0.75 3.3 L0.2 3.35 2.6 4.75 1.85 5.05 1.35 4.35 -0.2 4.4 -0.55 4.85 1.65 5.25 4.05 10.2 5.75 10.8 5.4 8.0 8.25 10.9 M4.45 14.75 L3.3 16.8 2.1 15.35 1.15 14.2 1.15 12.45 4.45 14.75 M1.85 19.55 Q2.3 20.6 1.45 21.5 L0.55 22.45 0.45 22.65 0.15 23.6 -0.4 23.4 Q-1.75 23.15 -3.0 23.95 L-4.95 25.95 -5.2 25.8 -5.8 25.9 -6.0 24.6 -6.8 24.1 0.5 20.8 0.5 19.8 0.0 18.4 Q-0.15 18.1 -0.75 18.25 L-2.55 19.0 -5.05 19.4 -5.25 19.8 -1.3 19.9 -5.2 22.2 -7.05 22.05 -8.0 19.9 -8.45 20.0 -8.65 19.9 -8.15 19.6 -7.85 19.5 -7.6 19.4 -7.4 19.35 -5.45 19.65 Q-5.0 19.75 -5.0 18.6 L-5.0 18.4 -4.7 18.35 -4.55 18.15 -4.4 18.0 -4.3 17.65 -4.05 17.2 -3.0 16.15 Q-2.25 16.25 -2.0 15.95 L-1.7 15.85 -1.65 15.85 0.4 17.25 1.3 18.7 1.85 19.55 M0.1 25.15 Q0.15 26.0 -0.35 27.25 L-0.4 27.3 -0.85 28.3 -0.85 28.4 -0.95 28.75 Q-1.7 28.9 -2.3 29.65 L-3.0 30.8 -5.0 29.45 -3.6 28.75 -2.75 28.95 -2.4 28.0 Q-1.75 26.55 -2.25 25.1 L-1.9 24.65 0.1 25.15 M-9.65 18.7 Q-10.15 17.75 -10.45 16.25 -10.0 16.15 -9.65 15.85 L-9.05 15.4 -7.15 15.15 Q-6.65 14.9 -6.5 14.35 L-5.75 15.2 -5.2 15.55 -4.45 15.8 -4.8 15.9 -7.2 16.4 -7.6 17.05 -7.9 17.55 -8.45 17.9 -9.65 18.7 M-11.1 -1.95 L-11.9 -1.75 -11.5 -2.15 -11.1 -1.95 M-12.35 -1.3 L-12.25 0.5 -11.45 0.75 -9.55 0.7 -9.0 1.2 -9.25 2.95 Q-7.95 3.45 -6.9 2.55 L-6.75 2.0 Q-6.4 3.15 -7.2 4.1 L-7.85 4.75 Q-8.85 4.65 -9.3 3.8 L-9.85 2.65 -12.15 1.65 -13.05 0.7 -12.95 -0.45 -12.35 -1.3 M-9.8 5.7 Q-9.1 4.85 -7.1 5.35 L-6.25 5.6 -7.55 5.4 -9.8 5.7 M-6.6 19.9 L-6.45 19.85 -6.7 19.8 -6.6 19.9" fill="#990000" fill-rule="evenodd" stroke="none"/>
      <path d="M6.1 15.8 L4.45 14.75 1.15 12.45 1.15 14.2 1.6 16.8 2.6 18.25 Q3.3 19.25 3.95 19.85 L4.7 20.9 Q2.95 20.95 1.85 19.55 L1.3 18.7 0.4 17.25 -1.65 15.85 -1.7 15.85 -2.0 15.95 Q-2.25 16.25 -3.0 16.15 L-4.05 17.2 -4.3 17.65 -4.4 18.0 -4.55 18.15 -4.7 18.35 -5.0 18.4 Q-6.5 16.55 -7.6 17.05 L-7.2 16.4 -4.8 15.9 -4.45 15.8 -5.2 15.55 -5.75 15.2 -6.5 14.35 -6.55 14.05 -6.6 13.45 Q-6.7 12.9 -7.0 12.9 L-8.35 13.15 -9.65 13.6 -9.7 13.6 Q-6.1 10.85 -1.95 14.15 L-0.75 14.6 0.25 12.1 0.9 12.05 1.6 10.75 -0.5 7.35 3.45 10.85 Q5.1 12.5 6.15 14.5 L6.7 16.15 6.1 15.8 M0.15 23.6 L0.6 23.85 0.7 24.65 0.1 25.15 -1.9 24.65 -2.25 25.1 Q-1.75 26.55 -2.4 28.0 L-2.75 28.95 -3.6 28.75 -2.95 27.8 -3.05 27.2 Q-6.75 29.4 -4.95 25.95 L-3.0 23.95 Q-1.75 23.15 -0.4 23.4 L0.15 23.6 M-0.4 27.3 Q-0.05 28.75 0.4 29.05 L0.35 29.15 -0.8 30.7 -2.3 32.6 -2.6 32.65 -2.75 32.6 Q-3.05 32.6 -3.15 32.25 -3.35 31.55 -3.0 30.8 L-2.3 29.65 Q-1.7 28.9 -0.95 28.75 L-0.85 28.4 -0.85 28.3 -0.4 27.3 M-6.8 24.1 L-7.45 24.1 -7.85 23.8 -7.65 22.55 -7.05 22.05 -5.2 22.2 -1.3 19.9 -5.25 19.8 -5.05 19.4 -2.55 19.0 -0.75 18.25 Q-0.15 18.1 0.0 18.4 L0.5 19.8 0.5 20.8 -6.8 24.1 M-11.9 -1.75 L-11.1 -1.95 Q-9.3 -1.95 -8.0 -0.8 -6.75 0.35 -6.75 2.0 L-6.9 2.55 Q-7.95 3.45 -9.25 2.95 L-9.0 1.2 -9.55 0.7 -11.45 0.75 -12.25 0.5 -12.35 -1.3 -11.9 -1.75 M-1.35 0.6 L-1.25 -0.55 2.9 -0.65 2.85 0.75 Q1.5 2.0 -0.2 1.3 L-1.35 0.6 M2.6 4.75 L3.05 4.65 Q4.3 4.3 5.65 5.0 L6.4 5.35 6.65 5.95 6.95 6.1 Q7.5 5.95 7.7 5.45 8.05 4.65 7.5 3.65 L8.65 3.65 9.65 1.95 10.6 1.85 10.75 2.9 10.6 3.9 10.15 4.25 9.95 5.75 Q10.1 6.65 9.6 7.3 L9.3 7.7 Q8.1 7.9 7.15 7.3 L6.65 6.9 4.1 6.15 5.4 8.0 5.75 10.8 4.05 10.2 1.65 5.25 -0.55 4.85 -0.2 4.4 1.35 4.35 1.85 5.05 2.6 4.75 M5.5 1.35 L5.4 2.0 4.6 2.15 Q3.85 2.15 3.6 1.6 L3.5 1.15 Q3.5 0.25 4.3 0.35 4.8 0.4 5.15 0.75 L5.5 1.35 M-10.45 6.35 L-9.8 5.7 -7.55 5.4 -6.25 5.6 Q-5.35 5.95 -4.8 6.45 L-4.55 7.7 Q-7.4 9.4 -10.15 8.1 L-10.65 7.6 -10.45 6.35" fill="#ff0000" fill-rule="evenodd" stroke="none"/>
      <path d="M11.6 4.85 L12.4 5.25 12.3 6.0 11.8 6.0 11.85 6.75 9.95 5.75 10.15 4.25 11.6 4.85 M9.6 9.35 L11.4 11.05 11.35 11.75 10.85 11.85 Q9.5 11.65 8.25 10.9 L5.4 8.0 4.1 6.15 6.65 6.9 7.15 7.3 8.1 8.05 9.6 9.35 M6.05 12.75 Q8.5 14.55 8.5 15.5 8.5 16.5 7.85 16.5 7.05 16.5 6.1 15.8 L6.7 16.15 6.15 14.5 Q5.1 12.5 3.45 10.85 L6.05 12.75 M3.3 16.8 Q5.95 20.1 6.65 21.9 L6.25 22.4 4.7 20.9 3.95 19.85 Q3.3 19.25 2.6 18.25 L1.6 16.8 1.15 14.2 2.1 15.35 3.3 16.8 M0.35 29.15 L0.7 29.3 1.35 29.25 Q1.75 29.2 1.1 30.85 0.3 32.5 -0.7 32.85 L-2.0 33.3 Q-2.45 33.3 -2.6 32.65 L-2.3 32.6 -0.8 30.7 0.35 29.15 M-5.0 29.45 L-6.75 29.65 -7.1 28.7 -5.8 25.9 -5.2 25.8 -4.95 25.95 Q-6.75 29.4 -3.05 27.2 L-2.95 27.8 -3.6 28.75 -5.0 29.45 M-8.65 19.9 L-9.5 20.15 -10.3 20.0 -10.4 19.85 -10.5 19.4 -9.65 18.7 -8.45 17.9 -7.9 17.55 -7.6 17.05 Q-6.5 16.55 -5.0 18.4 L-5.0 18.6 Q-5.0 19.75 -5.45 19.65 L-7.4 19.35 -7.6 19.4 -7.85 19.5 -8.15 19.6 -8.65 19.9 M-10.45 16.25 L-10.75 16.25 Q-11.55 16.25 -11.75 15.85 L-11.75 15.4 -10.6 14.35 -9.7 13.6 -9.65 13.6 -8.35 13.15 -7.0 12.9 Q-6.7 12.9 -6.6 13.45 L-6.55 14.05 -6.5 14.35 Q-6.65 14.9 -7.15 15.15 L-9.05 15.4 -9.65 15.85 Q-10.0 16.15 -10.45 16.25" fill="#ffffff" fill-rule="evenodd" stroke="none"/>
      <path d="M-12.95 -24.75 L-12.8 -25.5 -12.0 -28.2 Q-11.35 -29.75 -10.05 -31.1 -4.65 -34.7 -2.85 -34.05 L-1.05 -34.4 Q3.25 -33.95 6.25 -31.45 8.7 -29.45 9.45 -27.0 L12.1 -19.45 Q14.75 -14.1 14.8 -9.8 14.4 -10.9 12.85 -11.75 10.55 -13.0 10.2 -13.85 9.75 -14.95 9.4 -17.8 8.95 -21.3 6.45 -27.2 3.95 -33.1 -1.35 -32.85 -6.7 -32.6 -9.3 -29.35 L-12.95 -24.75" fill="#ca6868" fill-rule="evenodd" stroke="none"/>
      <path d="M14.8 -9.8 L14.8 -9.7 14.8 -9.1 14.65 -7.1 14.3 -7.85 12.8 -9.0 10.85 -9.35 10.2 -9.7 Q8.3 -10.65 8.3 -12.35 L8.05 -14.85 7.7 -17.35 Q7.3 -20.7 6.55 -22.55 5.2 -25.65 2.05 -27.6 -6.35 -31.5 -10.0 -23.5 -11.9 -19.45 -12.15 -14.1 L-12.2 -13.9 -12.2 -12.9 -12.2 -12.3 -12.15 -11.9 -11.75 -5.65 -13.3 -9.7 -13.3 -9.65 -13.95 -12.35 Q-14.65 -12.1 -14.65 -10.2 -14.65 -7.05 -13.5 -2.45 L-12.95 -0.45 -13.05 0.7 -12.15 1.65 -11.7 2.55 -10.95 5.5 -11.55 5.0 -12.05 5.6 Q-12.75 6.7 -12.8 8.0 L-13.55 2.7 Q-14.65 -4.5 -14.75 -7.65 L-14.7 -13.35 -14.8 -14.15 Q-14.8 -16.85 -14.15 -19.65 L-12.95 -24.75 -9.3 -29.35 Q-6.7 -32.6 -1.35 -32.85 3.95 -33.1 6.45 -27.2 8.95 -21.3 9.4 -17.8 9.75 -14.95 10.2 -13.85 10.55 -13.0 12.85 -11.75 14.4 -10.9 14.8 -9.8 M13.85 -4.65 L13.9 -4.25 13.65 -3.05 13.4 -1.8 13.65 -0.65 13.85 0.5 14.4 1.1 15.5 2.6 15.6 2.75 15.55 3.0 15.1 3.1 Q13.75 3.1 12.1 1.2 L12.0 1.1 11.55 0.55 11.25 0.6 11.0 0.4 11.65 -1.2 11.6 -1.4 11.8 -1.45 12.7 -3.0 13.75 -4.5 13.85 -4.65" fill="#b74040" fill-rule="evenodd" stroke="none"/>
      <path d="M14.65 -7.1 L14.2 -5.35 13.85 -4.65 13.75 -4.5 12.7 -3.0 11.8 -1.45 11.6 -1.4 11.45 -1.65 10.75 -1.75 11.0 -2.2 10.6 -2.6 10.8 -3.55 10.75 -4.15 Q10.35 -4.1 9.65 -3.25 L8.85 -2.4 Q7.4 -2.4 7.0 -3.0 L6.3 -3.65 6.1 -3.6 5.3 -4.25 Q2.75 -6.05 2.75 -4.0 4.05 -1.05 5.15 0.75 4.8 0.4 4.3 0.35 3.5 0.25 3.5 1.15 L3.6 1.6 Q3.85 2.15 4.6 2.15 L5.4 2.0 5.5 1.35 Q6.5 2.85 7.35 3.25 L7.1 3.5 4.0 3.3 Q3.55 3.4 3.05 4.65 L2.6 4.75 0.2 3.35 0.75 3.3 Q3.65 2.5 2.9 -0.65 L-1.25 -0.55 -1.35 0.6 -0.8 2.85 -3.25 2.15 -4.15 2.75 -4.4 3.2 -4.6 3.7 -4.75 4.3 -4.15 5.2 -3.4 5.8 -1.85 6.75 -3.9 8.15 -4.8 6.45 Q-5.35 5.95 -6.25 5.6 L-7.1 5.35 Q-9.1 4.85 -9.8 5.7 L-10.45 6.35 -10.95 5.5 -11.7 2.55 -12.15 1.65 -9.85 2.65 -9.3 3.8 Q-8.85 4.65 -7.85 4.75 L-7.2 4.1 Q-6.4 3.15 -6.75 2.0 -6.75 0.35 -8.0 -0.8 -9.3 -1.95 -11.1 -1.95 L-11.5 -2.15 -11.9 -1.75 -12.35 -1.3 -12.95 -0.45 -13.5 -2.45 Q-14.65 -7.05 -14.65 -10.2 -14.65 -12.1 -13.95 -12.35 L-13.3 -9.65 -13.3 -9.7 -11.75 -5.65 -12.15 -11.9 -12.2 -12.3 -12.2 -12.9 -12.2 -13.9 -12.15 -14.1 Q-11.9 -19.45 -10.0 -23.5 -6.35 -31.5 2.05 -27.6 5.2 -25.65 6.55 -22.55 7.3 -20.7 7.7 -17.35 L8.05 -14.85 8.3 -12.35 Q8.3 -10.65 10.2 -9.7 L10.85 -9.35 12.8 -9.0 14.3 -7.85 14.65 -7.1" fill="#943939" fill-rule="evenodd" stroke="none"/>
    </g>
  </defs>
</svg>
