<?xml version="1.0" encoding="UTF-8" standalone="no"?>
<svg xmlns:ffdec="https://www.free-decompiler.com/flash" xmlns:xlink="http://www.w3.org/1999/xlink" ffdec:objectType="frame" height="48.4px" width="21.95px" xmlns="http://www.w3.org/2000/svg">
  <g transform="matrix(1.0, 0.0, 0.0, 1.0, 12.05, 23.5)">
    <use ffdec:characterId="2278" height="47.25" transform="matrix(1.0, 0.0, 0.0, 1.0, -9.65, -22.35)" width="18.55" xlink:href="#shape0"/>
  </g>
  <defs>
    <g id="shape0" transform="matrix(1.0, 0.0, 0.0, 1.0, 9.65, 22.35)">
      <path d="M6.05 8.95 L5.1 18.55 4.4 20.35 Q4.6 19.15 4.0 18.25 3.45 17.3 2.5 17.15 L3.3 16.15 3.15 15.0 1.4 14.6 0.85 14.95 0.8 15.05 0.8 16.15 0.95 17.05 1.85 17.4 0.5 18.5 0.35 18.55 -1.25 17.05 Q-1.6 17.0 -2.7 18.25 L-4.8 19.45 -5.5 19.6 -6.75 18.5 -6.75 19.55 Q-7.4 17.85 -7.4 15.2 L-7.1 8.85 -7.15 10.0 -6.2 10.0 -5.85 15.6 -5.6 15.5 -5.65 16.25 -5.35 15.45 Q-2.5 17.75 -2.3 13.7 L-2.4 13.1 -2.65 13.0 -3.05 12.85 -3.5 12.55 -3.55 12.55 Q-4.3 12.45 -4.75 12.85 L-4.6 12.4 -4.5 11.7 -4.15 10.05 6.05 8.95 M-3.35 16.65 L-3.55 16.55 -4.5 16.75 -5.0 16.85 -5.05 17.3 -5.1 17.5 -5.35 18.55 -4.1 18.95 -3.7 18.75 -3.5 17.6 -3.3 16.9 -3.25 16.6 -3.35 16.65" fill="#ffcc99" fill-rule="evenodd" stroke="none"/>
      <path d="M6.3 6.75 L6.2 7.7 6.1 8.6 6.05 8.95 -4.15 10.05 -4.5 11.7 -4.6 12.4 -4.75 12.85 Q-5.05 13.1 -5.2 13.7 L-5.3 14.8 -5.35 15.45 -5.65 16.25 -5.6 15.5 -5.85 15.6 -6.2 10.0 -7.15 10.0 -7.1 8.85 -7.0 7.3 -6.25 7.35 -6.2 7.35 -6.25 7.95 -6.25 8.0 -6.2 10.0 -4.2 10.05 -3.65 7.45 -3.6 7.45 3.8 7.1 3.85 7.05 6.3 6.75" fill="#f4c398" fill-rule="evenodd" stroke="none"/>
      <path d="M4.4 20.35 L4.35 20.45 4.0 20.9 3.05 21.25 2.85 20.65 3.4 19.85 2.9 18.4 2.5 18.15 1.9 20.2 2.3 21.35 2.2 21.95 2.0 22.25 0.75 21.4 -1.85 23.5 -3.1 23.1 -3.35 22.7 -3.55 21.85 -3.2 21.55 -3.15 20.8 -3.35 20.4 -4.05 20.35 -4.8 19.45 -2.7 18.25 -1.6 17.9 -1.65 19.4 -1.3 20.05 -2.05 21.8 -1.65 22.1 Q-0.5 21.35 0.1 20.05 L0.5 19.2 0.15 18.85 0.5 18.5 1.85 17.4 2.5 17.15 Q3.45 17.3 4.0 18.25 4.6 19.15 4.4 20.35 M-5.3 14.8 L-5.2 13.7 Q-5.05 13.1 -4.75 12.85 -4.3 12.45 -3.55 12.55 L-3.5 12.55 -3.05 12.85 -2.65 13.0 -2.7 13.85 Q-3.3 16.55 -5.3 14.8 M-4.5 16.75 L-3.55 16.55 -3.35 16.65 -3.3 16.9 -3.5 17.6 -5.1 17.5 -5.05 17.3 -4.5 16.75 M0.8 16.15 L0.8 15.05 1.4 14.6 3.15 15.0 2.65 16.45 0.8 16.15" fill="#ff0000" fill-rule="evenodd" stroke="none"/>
      <path d="M4.35 20.45 L3.75 21.3 3.25 21.7 1.9 22.55 2.0 22.25 2.2 21.95 2.3 21.35 1.9 20.2 2.5 18.15 2.9 18.4 3.4 19.85 2.85 20.65 3.05 21.25 4.0 20.9 4.35 20.45 M-3.35 22.7 L-6.4 21.05 -6.75 19.55 -6.75 18.5 -5.5 19.6 -4.8 19.45 -4.05 20.35 -3.35 20.4 -3.15 20.8 -3.2 21.55 -3.55 21.85 -3.35 22.7 M-2.65 13.0 L-2.4 13.1 -2.3 13.7 Q-2.5 17.75 -5.35 15.45 L-5.3 14.8 Q-3.3 16.55 -2.7 13.85 L-2.65 13.0 M-4.5 16.75 L-5.05 17.3 -5.0 16.85 -4.5 16.75 M-5.1 17.5 L-3.5 17.6 -3.7 18.75 -4.1 18.95 -5.35 18.55 -5.1 17.5 M-3.3 16.9 L-3.35 16.65 -3.25 16.6 -3.3 16.9 M-2.7 18.25 Q-1.6 17.0 -1.25 17.05 L0.35 18.55 0.5 18.5 0.15 18.85 0.5 19.2 0.1 20.05 Q-0.5 21.35 -1.65 22.1 L-2.05 21.8 -1.3 20.05 -1.65 19.4 -1.6 17.9 -2.7 18.25 M1.85 17.4 L0.95 17.05 0.8 16.15 2.65 16.45 3.15 15.0 3.3 16.15 2.5 17.15 1.85 17.4 M0.8 15.05 L0.85 14.95 1.4 14.6 0.8 15.05" fill="#990000" fill-rule="evenodd" stroke="none"/>
      <path d="M1.9 22.55 Q0.6 25.15 -1.45 24.85 -2.3 24.7 -1.85 23.65 L-1.85 23.5 0.75 21.4 2.0 22.25 1.9 22.55" fill="#ffffff" fill-rule="evenodd" stroke="none"/>
      <path d="M8.25 -17.2 L8.6 -14.8 8.8 -8.95 8.75 -7.8 8.9 6.3 7.25 6.6 6.3 6.75 3.85 7.05 3.8 7.1 Q3.8 4.35 4.5 0.35 L5.75 -7.45 5.6 -7.5 Q5.75 -8.6 7.65 -14.35 L8.0 -15.7 8.25 -17.2 M-7.0 7.3 L-8.55 7.05 -8.7 6.15 -8.8 2.15 -8.85 0.35 -8.65 -5.25 Q-8.6 -8.05 -8.9 -9.0 L-9.6 -12.35 Q-9.85 -14.6 -9.2 -15.95 -8.85 -16.95 -8.15 -17.75 L-8.15 -16.65 -8.1 -16.0 -8.0 -15.25 -8.0 -15.05 -7.95 -14.2 -7.95 -14.0 -7.8 -13.45 -7.7 -13.15 -6.35 -7.9 Q-3.7 -10.1 -2.05 -15.3 -3.15 -11.05 -4.8 -5.65 L-5.75 -2.75 -5.7 0.1 -5.75 1.0 Q-3.95 -0.85 -2.1 -3.2 L-1.0 -4.6 -0.95 -4.65 1.7 -8.9 -1.4 1.55 Q-2.45 4.65 -3.45 6.65 L-3.45 6.7 -3.9 7.45 -5.3 7.45 -6.0 7.35 -6.2 7.35 -6.25 7.35 -7.0 7.3" fill="#66cc33" fill-rule="evenodd" stroke="none"/>
      <path d="M-8.15 -17.75 L-8.0 -18.0 -5.55 -19.85 Q-1.3 -22.05 3.55 -22.35 L4.2 -22.3 5.65 -21.65 6.65 -20.5 Q7.65 -19.2 8.15 -17.5 L8.25 -17.2 8.0 -15.7 7.65 -14.35 Q5.75 -8.6 5.6 -7.5 L5.75 -7.45 4.5 0.35 Q3.8 4.35 3.8 7.1 L-3.6 7.45 -3.65 7.45 -3.9 7.45 -3.45 6.7 -3.45 6.65 Q-2.45 4.65 -1.4 1.55 L1.7 -8.9 -0.95 -4.65 -1.0 -4.6 -2.1 -3.2 Q-3.95 -0.85 -5.75 1.0 L-5.7 0.1 -5.75 -2.75 -4.8 -5.65 Q-3.15 -11.05 -2.05 -15.3 -3.7 -10.1 -6.35 -7.9 L-7.7 -13.15 -7.8 -13.45 -7.95 -14.0 -7.95 -14.2 -8.0 -15.05 -8.0 -15.25 -8.1 -16.0 -8.15 -16.65 -8.15 -17.75" fill="#5eaa2b" fill-rule="evenodd" stroke="none"/>
      <path d="M-3.9 7.45 L-3.65 7.45 -4.2 10.05 -6.2 10.0 -6.25 8.0 -6.25 7.95 -6.2 7.35 -6.0 7.35 -5.3 7.45 -3.9 7.45" fill="#e2b181" fill-rule="evenodd" stroke="none"/>
    </g>
  </defs>
</svg>
