<?xml version="1.0" encoding="UTF-8" standalone="no"?>
<svg xmlns:ffdec="https://www.free-decompiler.com/flash" xmlns:xlink="http://www.w3.org/1999/xlink" ffdec:objectType="frame" height="23.0px" width="18.65px" xmlns="http://www.w3.org/2000/svg">
  <g transform="matrix(1.0, 0.0, 0.0, 1.0, 9.65, 9.2)">
    <use ffdec:characterId="1190" height="23.0" transform="matrix(1.0, 0.0, 0.0, 1.0, -9.65, -9.2)" width="18.65" xlink:href="#shape0"/>
  </g>
  <defs>
    <g id="shape0" transform="matrix(1.0, 0.0, 0.0, 1.0, 9.65, 9.2)">
      <path d="M-1.75 -9.15 L6.75 -9.15 6.8 -8.7 6.05 -8.8 5.3 -8.8 Q5.1 -8.45 5.2 -8.2 L1.15 -8.25 -1.6 -8.3 -1.75 -9.15 M8.2 2.45 L8.65 4.7 8.8 5.8 Q9.3 8.8 8.4 10.45 L7.4 12.5 6.8 13.35 Q5.65 13.5 5.65 12.6 L5.7 12.5 Q7.0 7.2 6.1 5.0 L5.7 4.0 5.25 3.1 6.45 2.65 7.7 2.45 8.2 2.45 M4.85 5.8 Q4.45 6.95 4.25 9.25 3.95 11.9 1.15 13.75 -0.3 13.55 -0.05 12.3 2.7 8.4 1.8 4.9 L1.55 4.1 1.3 4.05 4.25 3.85 4.9 3.9 4.85 5.8 M0.35 5.35 L0.35 5.55 Q-0.1 8.0 -2.25 9.95 L-3.15 10.65 Q-5.65 11.85 -5.85 11.45 L-6.4 10.3 Q-2.35 7.65 -2.4 4.0 L-2.5 3.45 -0.95 3.75 -0.55 3.85 Q0.3 4.05 0.85 4.4 L0.35 5.35 M-4.1 4.3 Q-5.0 6.2 -7.35 6.95 L-7.75 7.05 -8.85 6.85 Q-9.35 6.8 -9.35 6.6 L-9.45 6.6 -7.35 5.4 -6.3 4.5 -6.05 4.2 -5.35 3.0 -5.2 3.0 -5.1 3.05 -3.6 3.45 -4.05 4.25 -4.1 4.25 -4.1 4.3 M-1.4 -6.35 L1.15 -6.35 5.15 -6.25 5.15 -2.35 Q4.6 -0.75 2.2 -0.85 -0.25 -0.95 -0.7 -2.0 -1.2 -3.1 -1.4 -6.35" fill="#ffcc99" fill-rule="evenodd" stroke="none"/>
      <path d="M6.8 13.35 L5.8 13.65 Q4.5 13.45 4.3 12.9 L4.45 12.5 4.85 10.8 Q5.25 8.55 4.85 5.8 L4.9 3.9 4.9 3.3 5.25 3.1 5.7 4.0 6.1 5.0 Q7.0 7.2 5.7 12.5 L5.65 12.6 Q5.65 13.5 6.8 13.35 M1.15 13.75 L-0.1 13.8 Q-1.45 13.1 -0.8 12.25 0.15 10.9 0.55 9.5 0.9 8.3 0.55 6.25 L0.4 5.55 0.35 5.35 0.85 4.4 1.05 4.0 1.3 4.05 1.55 4.1 1.8 4.9 Q2.7 8.4 -0.05 12.3 -0.3 13.55 1.15 13.75 M-5.85 11.45 Q-6.85 11.9 -7.45 10.7 -7.75 9.85 -7.0 9.35 -4.15 8.1 -4.1 5.0 L-4.1 4.3 -4.1 4.25 -4.05 4.25 -3.6 3.45 -3.4 3.15 -3.3 3.25 -3.45 3.25 -2.5 3.45 -2.4 4.0 Q-2.35 7.65 -6.4 10.3 L-5.85 11.45 M-9.45 6.6 L-9.65 6.1 -9.65 5.7 -8.7 4.5 -7.35 3.45 -7.35 3.05 -7.15 2.7 -5.35 3.0 -6.05 4.2 -6.3 4.5 -7.35 5.4 -9.45 6.6" fill="#e2b181" fill-rule="evenodd" stroke="none"/>
      <path d="M6.8 -8.7 L6.8 -8.6 6.85 -8.4 6.85 -8.15 6.9 -8.0 6.9 -7.85 7.15 -6.25 7.6 -4.55 7.75 -4.0 Q8.35 -2.05 8.4 -0.7 L8.3 0.35 8.15 1.0 8.05 2.05 8.1 2.05 8.2 2.45 7.7 2.45 6.45 2.65 5.25 3.1 4.9 2.4 4.9 3.3 4.9 3.9 4.25 3.85 1.3 4.05 1.05 4.0 0.85 4.4 Q0.3 4.05 -0.55 3.85 L-0.95 3.75 -2.5 3.45 -2.55 3.15 -2.65 2.05 -2.8 2.05 -3.4 3.15 -3.6 3.45 -5.1 3.05 -5.2 3.0 -5.35 3.0 -5.25 2.8 -5.1 2.05 -5.1 0.3 -5.2 -0.4 -5.2 -1.05 -5.4 -1.6 -5.25 -5.6 -5.85 -8.9 -5.9 -9.15 -4.8 -9.15 -3.45 -9.15 -1.75 -9.15 -1.6 -8.3 -1.4 -6.35 Q-1.2 -3.1 -0.7 -2.0 -0.25 -0.95 2.2 -0.85 4.6 -0.75 5.15 -2.35 L5.15 -6.25 5.3 -8.2 5.2 -8.2 Q5.1 -8.45 5.3 -8.8 L6.05 -8.8 6.8 -8.7" fill="#313531" fill-rule="evenodd" stroke="none"/>
      <path d="M-7.15 2.7 L-6.85 2.05 -7.2 0.3 -7.35 -0.6 -7.4 -0.85 Q-7.7 -2.9 -7.45 -5.0 -7.5 -6.2 -7.2 -7.25 L-6.8 -8.35 -6.8 -9.15 -5.9 -9.15 -5.85 -8.9 -5.25 -5.6 -5.4 -1.6 -5.2 -1.05 -5.2 -0.4 -5.1 0.3 -5.1 2.05 -5.25 2.8 -5.35 3.0 -7.15 2.7 M-1.6 -8.3 L1.15 -8.25 5.2 -8.2 5.3 -8.2 5.15 -6.25 1.15 -6.35 -1.4 -6.35 -1.6 -8.3 M-3.4 3.15 L-2.8 2.05 -2.65 2.05 -2.55 3.15 -2.5 3.45 -3.45 3.25 -3.3 3.25 -3.4 3.15 M4.9 3.3 L4.9 2.4 5.25 3.1 4.9 3.3" fill="#242724" fill-rule="evenodd" stroke="none"/>
    </g>
  </defs>
</svg>
