<?xml version="1.0" encoding="UTF-8" standalone="no"?>
<svg xmlns:ffdec="https://www.free-decompiler.com/flash" xmlns:xlink="http://www.w3.org/1999/xlink" ffdec:objectType="frame" height="204.1px" width="75.05px" xmlns="http://www.w3.org/2000/svg">
  <g transform="matrix(1.0, 0.0, 0.0, 1.0, 37.5, 102.05)">
    <use ffdec:characterId="973" height="204.1" transform="matrix(1.0, 0.0, 0.0, 1.0, -37.5, -102.05)" width="75.05" xlink:href="#shape0"/>
  </g>
  <defs>
    <g id="shape0" transform="matrix(1.0, 0.0, 0.0, 1.0, 37.5, 102.05)">
      <path d="M12.3 -27.55 L11.9 -27.25 11.8 -27.2 11.35 -27.5 9.15 -28.65 Q8.55 -29.05 8.3 -30.55 8.2 -31.25 8.25 -31.95 L9.05 -33.45 Q10.45 -36.3 10.7 -37.95 L11.65 -41.15 Q11.85 -42.3 11.6 -43.3 L11.45 -43.3 Q10.55 -40.45 7.1 -36.0 L7.65 -40.7 7.9 -41.8 10.35 -47.25 11.1 -49.05 Q11.25 -49.95 10.3 -52.2 L9.9 -53.05 9.55 -53.75 8.95 -54.8 9.0 -55.3 Q9.1 -56.55 8.75 -57.45 10.45 -59.95 10.55 -61.1 10.55 -62.9 9.95 -64.3 L10.4 -63.55 Q11.25 -62.2 11.3 -60.5 L11.35 -59.75 11.45 -57.75 11.65 -56.1 Q11.85 -54.8 12.35 -53.25 L12.6 -52.2 13.3 -49.05 Q13.55 -47.55 14.8 -50.1 14.1 -44.5 14.1 -43.0 14.0 -39.4 14.25 -36.5 L13.65 -33.35 12.9 -29.95 12.95 -29.8 12.8 -29.05 12.5 -27.8 12.3 -27.55 M10.35 -13.0 L11.35 -10.4 10.45 -10.1 10.2 -9.95 9.95 -9.8 9.95 -9.85 10.0 -9.95 10.35 -13.0 M30.95 14.95 L34.15 19.1 34.5 19.65 35.0 20.35 Q36.9 22.95 37.35 24.6 L37.55 27.7 Q35.7 23.85 34.65 22.55 L30.95 18.5 Q28.75 16.85 27.6 14.25 26.45 11.6 23.9 10.3 21.2 9.05 17.3 2.85 L12.6 -2.85 11.25 -4.5 9.4 -6.45 8.6 -7.25 7.35 -8.5 8.2 -9.65 8.45 -10.0 8.85 -9.25 9.5 -8.4 9.85 -7.95 10.4 -7.35 10.65 -7.1 11.05 -6.65 12.95 -4.45 13.75 -3.4 15.45 -1.4 17.2 0.55 23.4 8.25 30.95 14.95 M23.05 40.9 L16.05 42.1 16.3 40.8 16.3 39.9 16.25 38.85 Q19.95 37.5 21.35 37.4 L21.4 37.4 21.5 37.4 24.15 37.05 Q25.4 36.65 27.15 35.6 28.9 34.5 29.3 34.4 L29.75 34.3 29.9 34.15 30.1 34.05 Q30.5 33.9 33.8 35.85 33.95 36.0 33.7 36.35 L32.4 36.3 30.2 36.45 Q29.75 36.6 29.25 37.2 L28.4 38.2 27.2 38.85 25.95 39.5 25.05 40.05 23.05 40.9 M-23.7 -4.35 L-23.25 -5.85 -23.15 -6.05 -21.55 -11.7 -20.1 -16.2 -19.3 -17.15 -19.45 -17.55 -22.5 -25.9 Q-23.45 -29.0 -24.35 -34.55 -23.0 -29.95 -17.95 -20.75 L-17.9 -20.15 -17.85 -19.8 -17.75 -18.85 -17.45 -16.2 -17.0 -13.4 -17.55 -12.8 -18.2 -14.45 -19.2 -11.8 -20.05 -9.45 Q-21.1 -6.6 -21.9 -4.85 L-23.25 -4.65 -23.7 -4.35 M-25.4 -36.5 Q-25.95 -38.0 -25.55 -39.45 -25.35 -40.55 -22.55 -45.3 L-14.9 -53.5 -14.15 -54.8 -12.6 -56.95 -12.6 -57.0 Q-11.75 -61.4 -10.35 -64.05 -8.2 -66.95 -5.7 -68.2 L-3.05 -69.1 -3.0 -69.1 -0.75 -69.5 0.55 -69.55 Q4.3 -69.55 6.3 -68.25 L6.7 -68.0 7.8 -67.15 8.3 -66.6 Q7.3 -67.45 5.95 -68.1 1.95 -70.05 -1.55 -67.25 L1.0 -67.9 Q2.9 -68.3 6.15 -65.3 9.35 -62.35 7.8 -58.85 L7.75 -58.75 Q6.75 -56.55 3.4 -52.95 2.75 -52.2 1.2 -51.4 -0.35 -50.6 -0.5 -49.8 -0.65 -49.0 -2.75 -46.1 L-5.9 -41.95 -8.15 -40.0 -9.85 -38.65 -11.2 -37.25 -11.8 -35.05 -12.25 -36.1 -13.75 -39.2 -12.3 -41.95 Q-11.25 -44.0 -11.05 -44.8 L-10.0 -45.9 -9.8 -45.7 -9.8 -45.4 -10.25 -40.9 -6.0 -46.9 -3.7 -52.3 -2.15 -53.95 Q-1.55 -52.9 0.15 -53.55 L2.4 -55.15 Q4.0 -56.9 4.4 -58.8 L4.5 -59.75 Q4.5 -61.5 3.3 -62.95 1.75 -64.9 -0.9 -64.8 -3.6 -64.75 -4.85 -62.85 -5.75 -61.5 -5.95 -60.6 L-6.0 -60.0 -5.7 -57.85 Q-7.25 -58.7 -7.35 -59.8 -8.15 -58.5 -9.2 -57.35 L-10.15 -56.25 -11.65 -54.5 -12.95 -52.95 -13.15 -52.8 -14.6 -51.35 -20.8 -44.95 -20.6 -45.1 Q-23.95 -41.95 -24.8 -39.65 -25.65 -37.25 -25.4 -36.5 M8.0 -19.3 L8.15 -19.25 8.25 -19.25 8.65 -19.25 9.2 -19.15 Q8.95 -18.8 8.8 -17.85 L8.8 -17.75 8.95 -16.9 8.95 -16.85 Q7.45 -15.55 6.9 -13.75 L6.65 -13.0 6.5 -12.75 Q5.95 -11.8 4.9 -10.8 L5.1 -11.6 5.8 -13.75 6.1 -14.95 Q6.3 -16.2 5.9 -17.5 L5.6 -18.25 5.55 -18.35 4.55 -20.0 5.8 -19.7 8.0 -19.3 M-7.45 -21.9 L-6.0 -17.15 -6.85 -16.95 -7.75 -16.5 -8.25 -16.05 -8.7 -16.05 -8.8 -16.35 -8.95 -16.9 Q-9.4 -18.9 -11.1 -20.05 -11.8 -20.5 -12.55 -21.85 L-12.95 -22.6 -14.05 -25.1 -14.95 -27.65 -15.2 -29.85 -15.3 -30.75 -15.5 -32.8 -15.5 -32.85 -15.8 -35.6 -15.95 -37.0 -16.05 -37.95 -16.35 -41.2 Q-16.55 -42.8 -17.7 -42.8 L-16.45 -42.8 -15.45 -41.05 -15.1 -40.4 -14.15 -38.45 -13.15 -35.65 -11.35 -27.9 Q-10.45 -24.95 -7.65 -22.45 L-7.6 -22.35 -7.45 -21.9 M-10.85 6.55 L-10.4 6.9 -6.15 9.95 Q3.3 16.75 8.05 20.8 L9.05 21.65 9.1 21.7 9.75 21.8 Q10.7 21.8 11.05 21.05 11.35 20.4 11.2 19.2 10.85 15.9 10.0 13.35 9.25 11.15 8.15 9.55 L8.4 9.3 10.25 11.35 11.1 12.6 Q12.7 15.55 13.55 21.5 L16.3 21.0 18.7 20.75 Q17.4 17.55 18.4 7.3 18.3 8.85 19.4 10.7 20.65 12.6 20.55 14.25 L20.15 20.65 24.6 20.8 25.1 20.95 Q24.25 20.9 23.25 21.4 20.6 22.75 19.95 22.7 L19.8 22.7 Q15.85 22.6 13.75 22.75 L12.65 22.85 11.6 23.0 11.4 23.1 10.15 24.0 9.7 24.5 8.95 23.75 8.5 23.2 8.5 23.15 Q8.15 22.8 7.8 22.7 L7.5 22.6 7.25 22.4 6.35 22.7 Q1.75 18.1 -0.8 16.1 L-8.65 9.95 -13.65 6.05 -13.95 5.8 -13.85 5.75 -13.75 5.75 -11.35 6.5 -10.85 6.55 M12.2 27.15 L12.4 27.25 13.15 27.6 14.6 28.25 17.35 29.3 13.3 29.65 13.2 29.65 12.85 28.6 12.8 28.3 12.2 27.15 M-13.75 6.0 L-14.2 5.85 -14.1 5.85 -13.75 6.0 M-21.4 -4.8 L-20.5 -5.65 -18.4 -8.0 -18.1 -8.45 -17.85 -8.4 -19.35 -4.25 -19.45 -4.35 -19.55 -4.35 -20.65 -4.65 -21.4 -4.8" fill="#4ec262" fill-rule="evenodd" stroke="none"/>
      <path d="M11.8 -27.2 L11.4 -27.1 11.4 -26.95 11.4 -26.9 11.35 -27.0 11.25 -27.05 11.05 -27.0 8.1 -27.4 4.35 -28.35 3.7 -28.45 2.7 -28.65 1.05 -29.0 -9.1 -30.55 -9.7 -30.6 -10.0 -30.6 -11.8 -35.05 -11.2 -37.25 -9.85 -38.65 -8.15 -40.0 -5.9 -41.95 0.35 -48.05 3.95 -51.35 7.5 -55.7 8.75 -57.45 Q9.1 -56.55 9.0 -55.3 L8.95 -54.8 9.55 -53.75 9.9 -53.05 10.3 -52.2 Q11.25 -49.95 11.1 -49.05 L10.35 -47.25 7.9 -41.8 7.65 -40.7 7.1 -36.0 Q10.55 -40.45 11.45 -43.3 L11.6 -43.3 Q11.85 -42.3 11.65 -41.15 L10.7 -37.95 Q10.45 -36.3 9.05 -33.45 L8.25 -31.95 Q8.2 -31.25 8.3 -30.55 8.55 -29.05 9.15 -28.65 L11.35 -27.5 11.8 -27.2 M10.45 -14.2 L10.45 -14.15 10.4 -13.85 10.35 -13.0 10.0 -9.95 9.95 -9.85 9.95 -9.8 9.9 -9.45 10.0 -9.2 8.8 -10.6 Q9.9 -12.4 10.45 -14.2 M37.55 27.7 L37.4 30.15 Q36.2 36.45 30.85 40.05 L30.5 40.25 30.1 40.45 30.0 40.45 Q27.7 41.45 26.6 40.85 L25.65 40.4 Q31.6 39.1 32.55 38.0 L33.7 36.35 Q33.95 36.0 33.8 35.85 30.5 33.9 30.1 34.05 L29.9 34.15 29.75 34.3 29.3 34.4 Q28.9 34.5 27.15 35.6 25.4 36.65 24.15 37.05 L21.5 37.4 21.4 37.4 21.35 37.4 Q19.95 37.5 16.25 38.85 16.0 37.1 15.2 34.8 L14.35 32.55 14.15 31.95 13.4 30.4 13.2 30.1 13.2 29.8 13.2 29.65 13.3 29.65 17.35 29.3 14.6 28.25 13.15 27.6 12.4 27.25 12.2 27.15 12.15 27.1 Q11.45 26.05 10.6 25.5 L10.35 25.2 9.7 24.5 10.15 24.0 11.4 23.1 11.6 23.0 12.65 22.85 13.75 22.75 Q15.85 22.6 19.8 22.7 L19.95 22.7 Q20.6 22.75 23.25 21.4 24.25 20.9 25.1 20.95 L24.6 20.8 20.15 20.65 20.55 14.25 Q20.65 12.6 19.4 10.7 18.3 8.85 18.4 7.3 17.4 17.55 18.7 20.75 L16.3 21.0 13.55 21.5 Q12.7 15.55 11.1 12.6 L10.25 11.35 8.4 9.3 8.15 9.55 Q9.25 11.15 10.0 13.35 10.85 15.9 11.2 19.2 11.35 20.4 11.05 21.05 10.7 21.8 9.75 21.8 L9.1 21.7 9.05 21.65 8.05 20.8 Q3.3 16.75 -6.15 9.95 L-10.4 6.9 -10.85 6.55 -10.65 6.55 -9.4 6.95 Q-7.95 7.15 -7.05 5.35 L-6.95 5.15 -6.05 5.7 -5.15 5.15 -4.3 4.3 -4.0 3.85 -3.85 3.85 -2.85 3.9 -1.45 2.3 -1.45 2.15 -1.5 1.8 -2.4 -0.4 -2.15 -0.9 -1.65 -1.35 -1.15 -1.85 -0.85 -2.5 -0.7 -2.7 Q1.25 -4.45 2.6 -5.0 L3.5 -5.35 Q5.55 -6.4 7.35 -8.5 L8.6 -7.25 9.4 -6.45 11.25 -4.5 12.6 -2.85 17.3 2.85 Q21.2 9.05 23.9 10.3 26.45 11.6 27.6 14.25 28.75 16.85 30.95 18.5 L34.65 22.55 Q35.7 23.85 37.55 27.7 M-24.35 -34.55 L-24.4 -34.8 -25.4 -36.5 Q-25.65 -37.25 -24.8 -39.65 -23.95 -41.95 -20.6 -45.1 L-20.8 -44.95 -14.6 -51.35 -13.15 -52.8 -12.95 -52.95 -11.65 -54.5 -10.15 -56.25 -9.2 -57.35 Q-8.15 -58.5 -7.35 -59.8 -7.25 -58.7 -5.7 -57.85 L-6.0 -60.0 -5.95 -60.6 Q-5.75 -61.5 -4.85 -62.85 -3.6 -64.75 -0.9 -64.8 1.75 -64.9 3.3 -62.95 4.5 -61.5 4.5 -59.75 L4.4 -58.8 Q4.0 -56.9 2.4 -55.15 L0.15 -53.55 Q-1.55 -52.9 -2.15 -53.95 L-3.7 -52.3 -6.0 -46.9 -10.25 -40.9 -9.8 -45.4 -9.8 -45.7 -10.0 -45.9 -11.05 -44.8 Q-11.25 -44.0 -12.3 -41.95 L-13.75 -39.2 -15.25 -41.6 -15.4 -41.75 -16.45 -42.8 -17.7 -42.8 Q-16.55 -42.8 -16.35 -41.2 L-16.05 -37.95 -15.95 -37.0 -15.8 -35.6 -15.5 -32.85 -15.5 -32.8 -15.3 -30.75 -15.2 -29.85 -14.95 -27.65 -14.05 -25.1 -12.95 -22.6 -12.55 -21.85 Q-11.8 -20.5 -11.1 -20.05 -9.4 -18.9 -8.95 -16.9 L-8.8 -16.35 -8.7 -16.05 -10.3 -15.95 -11.55 -15.65 Q-13.55 -15.1 -14.9 -14.1 L-15.0 -14.0 -15.75 -13.95 -16.0 -13.85 -16.45 -13.75 -17.0 -13.4 -17.45 -16.2 -17.75 -18.85 -17.85 -19.8 -17.9 -20.15 -17.95 -20.75 Q-23.0 -29.95 -24.35 -34.55 M4.55 -20.0 L5.55 -18.35 5.6 -18.25 5.9 -17.5 Q6.3 -16.2 6.1 -14.95 L5.8 -13.75 5.1 -11.6 4.9 -10.8 4.85 -10.75 4.6 -10.6 3.55 -9.65 2.4 -9.1 Q1.0 -8.55 0.8 -7.3 L-0.55 -6.05 -1.6 -5.95 -2.75 -5.4 -3.8 -7.15 -2.8 -7.65 -2.3 -8.25 Q-2.05 -8.85 -2.4 -9.95 L-2.4 -10.05 Q-2.4 -10.75 -2.75 -11.55 L-3.5 -13.2 -4.05 -14.3 -4.2 -16.1 Q-4.55 -17.3 -6.0 -17.15 L-7.45 -21.9 -7.0 -21.85 -6.0 -21.8 -4.3 -21.7 -1.5 -21.5 Q1.15 -21.1 3.4 -20.35 L3.5 -20.35 4.55 -20.0 M-13.65 6.05 L-13.75 6.0 -14.1 5.85 -13.95 5.8 -13.65 6.05 M-19.35 -4.25 L-17.85 -8.4 -18.1 -8.45 -18.4 -8.0 -20.5 -5.65 -21.4 -4.8 -21.9 -4.85 Q-21.1 -6.6 -20.05 -9.45 L-19.2 -11.8 -18.2 -14.45 -17.55 -12.8 Q-18.25 -11.7 -17.6 -9.6 L-16.9 -8.4 -16.6 -8.15 -16.55 -7.1 -16.15 -5.9 -16.1 -5.8 Q-15.55 -4.75 -14.8 -4.8 L-14.25 -4.35 -14.25 -3.0 -15.5 -3.1 -16.0 -3.2 -19.35 -4.25" fill="#3e9f4c" fill-rule="evenodd" stroke="none"/>
      <path d="M15.75 -2.9 L19.3 1.0 Q21.0 2.35 27.05 10.05 L30.95 14.95 23.4 8.25 17.2 0.55 15.45 -1.4 13.75 -3.4 12.95 -4.45 11.05 -6.65 10.65 -7.1 10.4 -7.35 9.85 -7.95 9.5 -8.4 8.85 -9.25 8.45 -10.0 8.45 -10.05 8.8 -10.6 10.0 -9.2 11.35 -7.7 12.95 -5.95 15.75 -2.9 M25.65 40.4 L23.05 40.9 25.05 40.05 25.95 39.5 27.2 38.85 28.4 38.2 29.25 37.2 Q29.75 36.6 30.2 36.45 L32.4 36.3 33.7 36.35 32.55 38.0 Q31.6 39.1 25.65 40.4 M-20.1 -16.2 L-19.45 -17.55 -19.3 -17.15 -20.1 -16.2 M-14.15 -54.8 L-13.05 -60.45 Q-12.15 -63.55 -10.8 -65.8 -9.15 -68.7 -6.95 -70.25 L-5.3 -71.15 -4.5 -71.4 -3.1 -71.75 -2.35 -71.9 -1.4 -71.95 2.0 -71.55 5.4 -70.6 Q7.35 -69.9 8.95 -68.85 L10.6 -67.6 11.2 -67.1 12.3 -66.4 12.75 -65.95 13.55 -64.65 14.1 -63.2 Q15.45 -60.7 16.05 -57.4 16.95 -52.4 15.5 -42.7 14.8 -38.3 15.5 -43.1 L14.25 -36.5 Q14.0 -39.4 14.1 -43.0 14.1 -44.5 14.8 -50.1 13.55 -47.55 13.3 -49.05 L12.6 -52.2 12.35 -53.25 Q11.85 -54.8 11.65 -56.1 L11.45 -57.75 11.35 -59.75 11.3 -60.5 Q11.25 -62.2 10.4 -63.55 L9.95 -64.3 Q10.55 -62.9 10.55 -61.1 10.45 -59.95 8.75 -57.45 L7.5 -55.7 3.95 -51.35 0.35 -48.05 -5.9 -41.95 -2.75 -46.1 Q-0.65 -49.0 -0.5 -49.8 -0.35 -50.6 1.2 -51.4 2.75 -52.2 3.4 -52.95 6.75 -56.55 7.75 -58.75 L7.8 -58.85 Q9.35 -62.35 6.15 -65.3 2.9 -68.3 1.0 -67.9 L-1.55 -67.25 Q1.95 -70.05 5.95 -68.1 7.3 -67.45 8.3 -66.6 L7.8 -67.15 6.7 -68.0 6.3 -68.25 Q4.3 -69.55 0.55 -69.55 L-0.75 -69.5 -3.0 -69.1 -3.05 -69.1 -5.7 -68.2 Q-8.2 -66.95 -10.35 -64.05 -11.75 -61.4 -12.6 -57.0 L-12.6 -56.95 -14.15 -54.8 M-11.8 -35.05 L-10.0 -30.6 -7.8 -24.35 Q-7.5 -23.55 -7.6 -22.35 L-7.65 -22.45 Q-10.45 -24.95 -11.35 -27.9 L-13.15 -35.65 -14.15 -38.45 -15.1 -40.4 -15.45 -41.05 -16.45 -42.8 -15.4 -41.75 -15.25 -41.6 -13.75 -39.2 -12.25 -36.1 -11.8 -35.05" fill="#90dd79" fill-rule="evenodd" stroke="none"/>
      <path d="M17.05 -56.7 L17.3 -52.6 Q17.75 -46.4 17.15 -42.1 L16.1 -37.55 14.8 -31.85 Q14.4 -29.15 12.3 -27.55 L12.5 -27.8 12.8 -29.05 12.95 -29.8 12.9 -29.95 13.65 -33.35 14.25 -36.5 15.5 -43.1 Q14.8 -38.3 15.5 -42.7 16.95 -52.4 16.05 -57.4 15.45 -60.7 14.1 -63.2 L13.55 -64.65 12.75 -65.95 12.3 -66.4 11.2 -67.1 10.6 -67.6 8.95 -68.85 Q7.35 -69.9 5.4 -70.6 L2.0 -71.55 -1.4 -71.95 -2.35 -71.9 -1.4 -72.2 -1.25 -72.2 2.35 -72.5 4.15 -72.15 Q9.0 -70.95 12.1 -67.4 L12.6 -66.8 13.45 -65.6 13.5 -65.55 13.7 -65.2 Q15.7 -62.0 17.05 -56.7 M-3.55 71.3 L-5.0 71.4 -5.45 71.1 -5.65 71.0 Q-5.35 70.45 -5.5 70.0 -5.7 69.35 -7.05 68.15 -6.05 66.85 -5.85 65.65 L-5.8 64.6 -4.7 64.15 -4.25 63.2 -3.65 61.95 -4.9 60.7 -4.0 59.5 Q-3.0 60.25 -2.75 60.75 L-1.7 59.35 -1.95 57.45 -0.45 58.55 0.55 59.4 0.9 59.8 1.15 61.4 Q1.25 62.55 0.3 63.35 L0.45 63.15 0.3 62.95 0.0 62.5 Q-0.2 62.35 -1.25 62.5 L-0.9 63.55 Q-0.6 64.15 -0.55 64.9 L-1.45 66.1 Q-1.85 65.55 -2.55 65.5 -3.2 65.55 -3.6 66.05 -4.2 66.85 -3.55 67.4 L-2.85 67.8 -2.2 67.1 Q-1.05 68.25 -1.75 69.2 L-3.15 70.45 -3.55 71.3 M-24.15 4.65 L-24.95 4.55 Q-26.55 4.3 -26.85 3.1 L-25.65 2.4 Q-26.15 0.9 -23.35 -1.25 L-23.05 -1.4 -21.95 -1.1 -21.55 -0.75 Q-21.15 -0.75 -21.0 -0.95 -20.95 -0.85 -20.85 -1.5 -20.75 -2.0 -21.5 -2.45 L-20.7 -2.8 -19.85 -3.0 -19.8 -3.0 -18.75 -2.6 -17.7 -2.2 Q-17.4 -2.15 -16.0 -3.2 L-15.5 -3.1 -14.25 -3.0 -14.15 -1.7 -14.3 -1.6 -14.15 -1.6 -13.95 0.3 Q-14.45 -0.2 -15.4 -0.35 -16.6 -0.55 -17.85 0.2 L-19.1 0.75 -19.0 1.1 -19.1 1.6 -19.2 2.0 -19.4 2.35 -21.55 2.5 -21.7 2.35 -21.7 1.75 -21.35 1.4 -20.85 1.45 -21.35 1.05 -22.65 1.45 Q-23.85 2.1 -24.1 4.05 L-24.15 4.65 M4.9 -10.8 Q5.95 -11.8 6.5 -12.75 L6.65 -13.0 6.9 -13.75 Q7.45 -15.55 8.95 -16.85 L8.95 -16.9 8.8 -17.75 8.8 -17.85 Q8.95 -18.8 9.2 -19.15 L9.45 -17.85 9.5 -17.75 9.65 -16.7 9.65 -15.7 Q9.5 -14.8 9.0 -13.85 L8.6 -13.05 7.5 -12.15 7.3 -12.0 7.1 -11.8 6.1 -10.55 6.0 -9.8 Q6.35 -10.6 7.25 -11.0 L7.6 -11.1 8.2 -11.35 8.35 -11.4 8.35 -11.1 8.45 -10.05 8.45 -10.0 8.2 -9.65 7.35 -8.5 Q5.55 -6.4 3.5 -5.35 L3.05 -5.95 Q1.9 -6.1 -1.05 -3.85 L-1.9 -3.95 -2.75 -5.4 -1.6 -5.95 -0.55 -6.05 0.8 -7.3 Q1.0 -8.55 2.4 -9.1 L3.55 -9.65 4.6 -10.6 4.85 -10.75 4.9 -10.8 M-2.4 -9.95 Q-2.05 -8.85 -2.3 -8.25 L-2.8 -7.65 -3.5 -8.1 -4.45 -8.3 -5.7 -8.1 -5.85 -8.05 Q-6.15 -8.9 -6.7 -9.0 L-7.35 -8.9 -7.9 -10.55 Q-8.75 -12.35 -10.3 -12.5 -9.65 -13.0 -9.65 -13.55 L-10.05 -15.05 -10.3 -15.95 -8.7 -16.05 -8.25 -16.05 -7.75 -16.5 -7.25 -16.2 -6.4 -14.95 -5.2 -15.05 -4.65 -13.65 Q-4.3 -12.45 -4.4 -11.9 -4.85 -11.75 -5.0 -12.25 L-6.2 -11.9 Q-4.4 -10.9 -2.6 -10.05 L-2.4 -9.95 M10.0 -9.2 L9.9 -9.45 9.95 -9.8 10.2 -9.95 10.45 -9.9 11.45 -9.4 12.1 -7.8 11.35 -7.7 10.0 -9.2 M13.2 29.65 L13.2 29.8 13.2 30.1 13.4 30.4 14.15 31.95 13.6 31.4 13.45 31.3 13.2 31.05 Q12.15 30.2 11.1 30.0 L9.8 29.9 Q9.7 30.1 9.75 30.4 L9.65 31.0 Q9.2 29.55 7.25 29.9 L6.4 28.45 5.5 28.6 Q4.95 28.75 4.25 29.8 L3.4 31.1 2.35 30.65 Q1.55 30.35 0.95 30.8 L0.3 29.0 Q0.05 28.5 -0.95 28.8 L-1.2 28.9 -1.3 27.55 -1.0 26.75 -0.25 26.45 1.2 26.1 Q1.7 26.1 2.6 26.9 2.5 26.6 2.8 26.05 3.1 25.5 3.45 25.3 L4.1 26.55 4.95 26.45 5.8 26.15 5.45 26.0 5.15 25.8 4.55 23.9 6.45 23.3 Q7.1 23.65 7.3 24.25 L7.3 24.9 7.35 25.4 7.5 25.4 7.65 25.35 Q8.3 25.35 9.0 25.9 L10.25 27.1 10.75 27.55 11.7 28.25 12.2 28.4 12.55 28.5 12.85 28.6 13.2 29.65 M15.2 34.8 Q16.0 37.1 16.25 38.85 L16.3 39.9 16.25 40.05 Q15.6 41.0 14.35 41.05 14.65 42.15 14.3 42.5 L14.0 42.7 13.5 42.85 12.45 43.2 12.55 43.1 13.15 42.2 12.65 40.55 12.45 40.55 12.3 40.35 11.8 42.05 Q11.6 42.65 10.75 42.95 L9.65 42.75 8.3 42.65 Q8.05 44.0 6.95 45.15 L6.6 45.55 Q5.35 45.4 4.7 44.65 L5.2 44.4 Q4.9 43.55 5.2 42.7 L5.8 40.95 Q6.15 40.05 7.5 39.7 8.3 39.5 8.15 38.6 L8.4 38.85 8.65 39.6 8.65 40.2 9.0 40.65 9.25 40.65 9.85 40.7 Q11.6 40.15 11.15 37.55 L10.85 36.5 11.15 35.75 11.7 35.95 11.85 36.0 12.2 36.55 Q12.45 37.4 12.15 38.05 L13.55 37.6 13.95 36.9 Q14.4 36.0 15.2 34.8 M-10.05 52.35 L-10.0 52.5 -9.05 52.8 -7.9 53.35 -7.7 53.5 -6.8 54.15 -6.55 54.5 -6.5 54.55 -7.35 54.7 Q-8.7 55.25 -9.45 56.35 -10.3 55.7 -10.7 55.55 L-12.25 55.5 Q-11.1 55.95 -10.75 57.05 L-10.7 58.85 Q-10.5 59.0 -10.2 58.6 L-9.0 59.5 -8.9 60.4 -9.3 61.15 Q-9.6 61.6 -10.3 61.65 L-11.5 61.4 -12.05 60.8 Q-12.15 60.65 -11.45 59.85 L-12.1 59.35 Q-12.7 58.9 -13.5 59.0 L-14.05 59.1 -13.95 58.65 -13.9 57.6 -12.85 55.0 -12.3 53.6 -12.15 53.7 -10.05 52.35 M-14.25 -4.35 L-14.8 -4.8 Q-15.55 -4.75 -16.1 -5.8 L-16.15 -5.9 -16.05 -6.55 Q-15.35 -7.7 -15.0 -8.95 L-16.15 -8.8 -16.6 -9.9 Q-17.2 -11.95 -16.0 -13.85 L-15.75 -13.95 -15.0 -14.0 -14.9 -14.1 -14.9 -13.9 Q-15.0 -12.4 -14.05 -9.25 L-13.85 -8.75 -13.2 -7.4 -14.15 -6.7 -14.2 -6.7 Q-14.9 -6.1 -14.75 -5.75 L-14.25 -5.05 -13.5 -4.4 -14.1 -4.25 -14.25 -4.35 M-14.15 -10.7 L-14.55 -11.2 Q-14.85 -12.25 -13.7 -12.6 -12.6 -12.95 -12.25 -11.9 L-12.3 -11.05 Q-12.5 -10.5 -13.05 -10.35 -13.65 -10.15 -14.15 -10.7 M-14.95 2.0 L-14.15 2.25 -14.1 2.35 -15.1 3.2 -15.8 3.65 -16.55 4.0 -16.3 2.3 -16.2 2.25 -14.95 2.0 M-14.6 62.15 L-14.15 60.3 -13.65 60.75 Q-13.05 61.45 -13.25 62.25 L-14.6 62.15" fill="#cec9ab" fill-rule="evenodd" stroke="none"/>
      <path d="M-17.15 6.2 Q-19.85 5.75 -20.75 5.0 L-24.15 4.65 -24.1 4.05 Q-23.85 2.1 -22.65 1.45 L-21.35 1.05 -20.85 1.45 -21.35 1.4 -21.7 1.75 -21.7 2.35 -21.55 2.5 -19.4 2.35 -19.2 2.0 -19.1 1.6 -19.0 1.1 -19.1 0.75 -17.85 0.2 Q-16.6 -0.55 -15.4 -0.35 -14.45 -0.2 -13.95 0.3 L-13.25 3.75 -13.1 4.0 -12.25 4.7 -11.25 4.75 Q-10.25 6.1 -8.5 6.0 L-7.5 5.7 -7.15 5.15 -7.1 5.05 -6.95 5.15 -7.05 5.35 Q-7.95 7.15 -9.4 6.95 L-10.65 6.55 -10.85 6.55 -11.35 6.5 -13.75 5.75 -13.85 5.75 -13.95 5.8 -14.1 5.85 -14.2 5.85 -15.65 6.25 -16.65 6.25 -17.15 6.2 M-2.8 -7.65 L-3.8 -7.15 -4.2 -7.05 -4.9 -7.0 Q-6.55 -6.05 -9.4 -5.2 L-10.9 -4.95 -12.2 -4.7 -13.35 -4.45 -13.5 -4.4 -14.25 -5.05 -14.75 -5.75 Q-14.9 -6.1 -14.2 -6.7 L-14.15 -6.7 -13.2 -7.4 -13.85 -8.75 -14.05 -9.25 Q-15.0 -12.4 -14.9 -13.9 L-14.9 -14.1 Q-13.55 -15.1 -11.55 -15.65 L-10.3 -15.95 -10.05 -15.05 -9.65 -13.55 Q-9.65 -13.0 -10.3 -12.5 -8.75 -12.35 -7.9 -10.55 L-7.35 -8.9 -6.7 -9.0 Q-6.15 -8.9 -5.85 -8.05 L-5.7 -8.1 -4.45 -8.3 -3.5 -8.1 -2.8 -7.65 M3.5 -5.35 L2.6 -5.0 Q1.25 -4.45 -0.7 -2.7 L-0.85 -2.5 -1.15 -1.85 -1.65 -1.35 -2.15 -0.9 -1.75 -1.95 Q-1.65 -2.65 -1.7 -3.6 L-1.9 -3.95 -1.05 -3.85 Q1.9 -6.1 3.05 -5.95 L3.5 -5.35 M14.15 31.95 L14.35 32.55 15.2 34.8 Q14.4 36.0 13.95 36.9 L13.55 37.6 12.15 38.05 Q12.45 37.4 12.2 36.55 L11.85 36.0 11.7 35.95 11.15 35.75 10.85 36.5 11.15 37.55 Q11.6 40.15 9.85 40.7 L9.25 40.65 9.0 40.65 8.65 40.2 8.65 39.6 8.4 38.85 8.15 38.6 Q8.3 39.5 7.5 39.7 6.15 40.05 5.8 40.95 L5.2 42.7 Q4.9 43.55 5.2 44.4 L4.7 44.65 4.45 44.2 4.35 43.9 4.1 43.05 Q3.4 42.55 3.1 41.65 2.3 39.0 2.85 37.35 L2.7 37.2 Q1.6 36.85 1.2 35.45 0.5 33.35 0.3 31.95 -0.5 31.1 -1.0 29.6 L-1.2 28.9 -0.95 28.8 Q0.05 28.5 0.3 29.0 L0.95 30.8 Q1.55 30.35 2.35 30.65 L3.4 31.1 4.25 29.8 Q4.95 28.75 5.5 28.6 L6.4 28.45 7.25 29.9 Q9.2 29.55 9.65 31.0 L9.75 30.4 Q9.7 30.1 9.8 29.9 L11.1 30.0 Q12.15 30.2 13.2 31.05 L13.45 31.3 13.6 31.4 14.15 31.95 M-6.5 54.55 Q-5.65 54.95 -4.75 55.5 L-4.2 55.85 -2.2 57.25 -1.95 57.45 -1.7 59.35 -2.75 60.75 Q-3.0 60.25 -4.0 59.5 L-4.9 60.7 -3.65 61.95 -4.25 63.2 -4.7 64.15 -5.8 64.6 -5.85 65.65 Q-6.05 66.85 -7.05 68.15 -5.7 69.35 -5.5 70.0 -5.35 70.45 -5.65 71.0 L-5.7 70.9 -6.45 70.35 Q-7.25 70.4 -8.0 69.8 L-10.05 67.9 -11.0 67.2 -11.8 66.55 Q-12.5 66.45 -13.2 65.9 L-15.55 63.95 Q-15.0 63.3 -14.6 62.15 L-13.25 62.25 Q-13.05 61.45 -13.65 60.75 L-14.15 60.3 -14.1 59.8 -14.05 59.1 -13.5 59.0 Q-12.7 58.9 -12.1 59.35 L-11.45 59.85 Q-12.15 60.65 -12.05 60.8 L-11.5 61.4 -10.3 61.65 Q-9.6 61.6 -9.3 61.15 L-8.9 60.4 -9.0 59.5 -10.2 58.6 Q-10.5 59.0 -10.7 58.85 L-10.75 57.05 Q-11.1 55.95 -12.25 55.5 L-10.7 55.55 Q-10.3 55.7 -9.45 56.35 -8.7 55.25 -7.35 54.7 L-6.5 54.55 M-14.15 -10.7 Q-13.65 -10.15 -13.05 -10.35 -12.5 -10.5 -12.3 -11.05 L-12.25 -11.9 Q-12.6 -12.95 -13.7 -12.6 -14.85 -12.25 -14.55 -11.2 L-14.15 -10.7 M-14.95 2.0 L-16.2 2.25 -16.3 2.3 -16.55 4.0 -15.8 3.65 -15.1 3.2 -14.1 2.35 -14.15 2.25 -14.95 2.0" fill="#9c9982" fill-rule="evenodd" stroke="none"/>
      <path d="M15.35 -65.35 Q16.9 -63.35 16.85 -62.05 16.8 -60.8 17.05 -56.7 15.7 -62.0 13.7 -65.2 L13.5 -65.55 13.45 -65.6 12.6 -66.8 12.1 -67.4 Q9.0 -70.95 4.15 -72.15 L2.35 -72.5 -1.25 -72.2 -1.4 -72.2 -2.35 -71.9 -3.1 -71.75 -4.5 -71.4 Q-4.15 -73.1 -2.1 -73.6 L-0.4 -73.85 1.45 -73.8 3.4 -73.6 4.7 -73.3 Q7.95 -72.3 12.0 -68.7 L13.05 -67.75 13.7 -67.15 14.85 -65.95 15.35 -65.35 M9.7 -19.3 L10.0 -18.85 10.6 -17.65 10.7 -17.55 Q11.0 -17.15 10.8 -15.7 L10.45 -14.2 Q9.9 -12.4 8.8 -10.6 L8.45 -10.05 8.35 -11.1 8.35 -11.4 8.2 -11.35 7.6 -11.1 7.25 -11.0 Q6.35 -10.6 6.0 -9.8 L6.1 -10.55 7.1 -11.8 7.3 -12.0 7.5 -12.15 8.6 -13.05 9.0 -13.85 Q9.5 -14.8 9.65 -15.7 L9.65 -16.7 9.5 -17.75 9.45 -17.85 9.2 -19.15 Q9.4 -19.55 9.7 -19.3 M11.35 -10.4 Q12.75 -10.65 13.2 -9.5 L13.5 -7.75 14.15 -6.65 15.0 -5.15 15.45 -3.65 15.55 -3.5 15.75 -2.9 12.95 -5.95 11.35 -7.7 12.1 -7.8 11.45 -9.4 10.45 -9.9 10.2 -9.95 10.45 -10.1 11.35 -10.4 M16.05 42.1 Q15.65 43.3 14.5 43.85 L13.8 44.25 13.75 44.3 13.1 44.35 11.9 44.3 11.25 44.6 7.85 45.55 6.6 45.55 6.95 45.15 Q8.05 44.0 8.3 42.65 L9.65 42.75 10.75 42.95 Q11.6 42.65 11.8 42.05 L12.3 40.35 12.45 40.55 12.65 40.55 13.15 42.2 12.55 43.1 12.45 43.2 13.5 42.85 14.0 42.7 14.3 42.5 Q14.65 42.15 14.35 41.05 15.6 41.0 16.25 40.05 L16.3 39.9 16.3 40.8 16.05 42.1 M2.75 62.65 Q3.15 63.9 2.55 64.95 L2.15 65.7 0.75 66.9 0.35 67.5 Q-1.35 69.75 -1.95 70.25 L-2.95 71.0 -3.55 71.3 -3.15 70.45 -1.75 69.2 Q-1.05 68.25 -2.2 67.1 L-2.85 67.8 -3.55 67.4 Q-4.2 66.85 -3.6 66.05 -3.2 65.55 -2.55 65.5 -1.85 65.55 -1.45 66.1 L-0.55 64.9 Q-0.6 64.15 -0.9 63.55 L-1.25 62.5 Q-0.2 62.35 0.0 62.5 L0.3 62.95 0.45 63.15 0.3 63.35 Q1.25 62.55 1.15 61.4 L0.9 59.8 1.05 59.9 1.7 60.7 2.2 61.5 2.75 62.65 M-26.85 3.1 L-26.85 2.95 -26.7 1.65 Q-26.5 0.55 -25.95 -0.05 -25.25 -0.8 -24.65 -2.6 -24.6 -3.65 -23.7 -4.35 L-23.25 -4.65 -21.9 -4.85 -21.4 -4.8 -20.65 -4.65 -19.55 -4.35 -19.45 -4.35 -19.35 -4.25 -16.0 -3.2 Q-17.4 -2.15 -17.7 -2.2 L-18.75 -2.6 -19.8 -3.0 -19.85 -3.0 -20.7 -2.8 -21.5 -2.45 Q-20.75 -2.0 -20.85 -1.5 -20.95 -0.85 -21.0 -0.95 -21.15 -0.75 -21.55 -0.75 L-21.95 -1.1 -23.05 -1.4 -23.35 -1.25 Q-26.15 0.9 -25.65 2.4 L-26.85 3.1 M-6.0 -17.15 Q-4.55 -17.3 -4.2 -16.1 L-4.05 -14.3 -3.5 -13.2 -2.75 -11.55 Q-2.4 -10.75 -2.4 -10.05 L-2.4 -9.95 -2.6 -10.05 Q-4.4 -10.9 -6.2 -11.9 L-5.0 -12.25 Q-4.85 -11.75 -4.4 -11.9 -4.3 -12.45 -4.65 -13.65 L-5.2 -15.05 -6.4 -14.95 -7.25 -16.2 -7.75 -16.5 -6.85 -16.95 -6.0 -17.15 M9.7 24.5 L10.35 25.2 10.6 25.5 Q11.45 26.05 12.15 27.1 L12.2 27.15 12.8 28.3 12.85 28.6 12.55 28.5 12.2 28.4 11.7 28.25 10.75 27.55 10.25 27.1 9.0 25.9 Q8.3 25.35 7.65 25.35 L7.5 25.4 7.35 25.4 7.3 24.9 7.3 24.25 Q7.1 23.65 6.45 23.3 L4.55 23.9 5.15 25.8 5.45 26.0 5.8 26.15 4.95 26.45 4.1 26.55 3.45 25.3 Q3.1 25.5 2.8 26.05 2.5 26.6 2.6 26.9 1.7 26.1 1.2 26.1 L-0.25 26.45 -1.0 26.75 -0.85 26.5 Q-0.3 25.7 1.5 25.15 L1.8 25.05 2.2 24.7 Q3.3 23.8 6.35 22.7 L7.25 22.4 7.5 22.6 7.8 22.7 Q8.15 22.8 8.5 23.15 L8.5 23.2 8.95 23.75 9.7 24.5 M-11.15 51.35 L-10.05 52.35 -12.15 53.7 -12.3 53.6 -11.25 51.3 -11.15 51.35 M-16.15 -5.9 L-16.55 -7.1 -16.6 -8.15 -16.9 -8.4 -17.6 -9.6 Q-18.25 -11.7 -17.55 -12.8 L-17.0 -13.4 -16.45 -13.75 -16.0 -13.85 Q-17.2 -11.95 -16.6 -9.9 L-16.15 -8.8 -15.0 -8.95 Q-15.35 -7.7 -16.05 -6.55 L-16.15 -5.9 M-14.15 -1.6 L-14.3 -1.6 -14.15 -1.7 -14.15 -1.6" fill="#fff9d4" fill-rule="evenodd" stroke="none"/>
      <path d="M8.6 -81.5 L8.3 -82.4 7.75 -83.95 7.05 -85.05 Q6.7 -85.65 6.45 -86.75 6.15 -87.85 7.75 -92.45 L11.1 -87.35 12.35 -85.1 12.4 -84.1 14.05 -85.6 14.15 -85.75 14.9 -86.85 16.25 -86.95 17.35 -87.4 18.95 -87.8 18.8 -90.45 18.2 -93.3 18.0 -94.35 18.25 -93.7 19.45 -90.55 19.65 -87.9 22.45 -88.2 22.45 -90.15 22.1 -92.2 22.85 -90.5 23.2 -88.2 24.85 -88.3 27.0 -88.4 26.95 -86.45 26.8 -85.8 26.3 -85.1 26.25 -84.45 Q26.2 -83.9 26.5 -82.65 L26.6 -82.2 Q27.05 -81.35 27.7 -80.65 L28.0 -79.8 27.95 -79.4 Q27.8 -78.45 27.3 -78.15 L26.95 -78.5 Q26.55 -78.9 26.2 -78.95 L25.35 -78.7 24.4 -78.55 23.7 -78.7 23.45 -79.6 Q23.25 -78.7 23.9 -77.45 L24.3 -76.75 24.4 -76.4 24.45 -76.4 24.55 -75.8 24.5 -75.7 23.85 -75.85 21.0 -75.05 23.75 -75.1 Q24.15 -74.65 24.0 -74.2 L23.9 -73.95 Q23.35 -73.8 22.15 -73.95 L21.65 -73.9 Q21.3 -73.7 21.25 -73.2 L21.2 -73.15 Q21.1 -72.7 21.45 -72.6 L22.2 -72.4 Q22.7 -72.25 22.95 -72.4 L23.15 -72.45 23.0 -72.1 22.8 -70.85 Q22.7 -70.25 21.6 -69.4 L18.95 -69.5 Q18.95 -70.3 18.4 -71.5 L14.75 -74.55 11.75 -76.75 11.05 -77.2 10.8 -78.3 Q11.65 -78.8 12.5 -80.15 11.4 -78.95 10.35 -79.25 9.7 -79.45 9.3 -80.15 L8.7 -81.4 8.6 -81.5 M25.15 -86.3 L25.3 -86.75 Q25.4 -87.35 25.1 -87.1 L24.4 -86.8 22.0 -86.7 18.15 -86.05 17.9 -86.0 17.9 -85.8 17.25 -85.6 19.4 -83.75 20.65 -82.3 20.85 -81.45 20.8 -81.35 Q22.4 -82.25 23.6 -83.15 L23.9 -83.45 24.95 -84.35 25.3 -84.35 25.3 -85.1 25.5 -85.65 25.15 -86.3 M22.9 -79.45 L22.15 -78.4 21.6 -77.5 21.5 -77.45 21.3 -77.15 20.1 -75.95 18.85 -74.55 18.75 -74.5 18.75 -74.4 18.9 -74.55 20.9 -76.0 22.1 -77.15 22.3 -77.4 22.3 -77.45 23.2 -79.9 22.9 -79.45 M9.85 -86.95 Q8.65 -88.15 8.2 -87.35 7.75 -86.65 8.35 -86.5 L9.15 -86.4 9.3 -86.4 9.75 -86.2 10.25 -85.5 10.1 -84.65 9.85 -84.25 Q9.6 -84.05 9.35 -84.0 9.2 -84.0 9.15 -83.55 9.05 -83.1 9.25 -82.5 9.45 -81.7 10.05 -81.6 10.75 -81.5 10.8 -81.85 10.9 -82.2 10.35 -82.65 9.8 -83.05 9.75 -83.45 L10.55 -84.0 10.7 -84.0 10.8 -84.4 Q11.05 -85.85 9.85 -86.95 M-3.8 -7.15 L-2.75 -5.4 -1.9 -3.95 -1.7 -3.6 Q-1.65 -2.65 -1.75 -1.95 L-2.15 -0.9 -2.4 -0.4 -1.5 1.8 -2.3 1.1 Q-3.6 2.15 -4.75 3.5 L-6.15 3.05 -6.25 3.35 -6.3 3.35 Q-6.7 4.25 -7.3 4.2 L-8.1 4.2 -8.8 3.6 -12.3 3.65 -12.2 2.95 -11.95 0.65 -12.0 -1.45 -12.05 -1.7 -12.15 -2.8 -12.2 -4.7 -10.9 -4.95 -9.4 -5.2 Q-6.55 -6.05 -4.9 -7.0 L-4.2 -7.05 -3.8 -7.15" fill="#ffcc99" fill-rule="evenodd" stroke="none"/>
      <path d="M8.1 -79.05 L8.2 -79.35 8.45 -80.45 8.6 -80.9 8.6 -81.5 8.7 -81.4 9.3 -80.15 Q9.7 -79.45 10.35 -79.25 11.4 -78.95 12.5 -80.15 11.65 -78.8 10.8 -78.3 L11.05 -77.2 10.0 -77.9 8.1 -79.05" fill="#e2b181" fill-rule="evenodd" stroke="none"/>
      <path d="M23.9 -73.95 L23.35 -73.1 23.15 -72.45 22.95 -72.4 Q22.7 -72.25 22.2 -72.4 L21.45 -72.6 Q21.1 -72.7 21.2 -73.15 L21.25 -73.2 Q21.3 -73.7 21.65 -73.9 L22.15 -73.95 Q23.35 -73.8 23.9 -73.95 M22.9 -79.45 L23.2 -79.9 22.3 -77.45 22.3 -77.4 22.1 -77.15 20.9 -76.0 18.9 -74.55 18.75 -74.4 18.75 -74.5 18.85 -74.55 20.1 -75.95 21.3 -77.15 21.5 -77.45 21.6 -77.5 22.15 -78.4 22.9 -79.45 M-1.5 1.8 L-1.45 2.15 -1.45 2.3 -2.85 3.9 -3.85 3.85 -4.0 3.85 -4.3 4.3 -5.15 5.15 -6.05 5.7 -6.95 5.15 -7.1 5.05 -7.15 5.15 -7.5 5.7 -8.5 6.0 Q-10.25 6.1 -11.25 4.75 L-12.25 4.7 -13.1 4.0 -13.25 3.75 -13.95 0.3 -14.15 -1.6 -14.15 -1.7 -14.25 -3.0 -14.25 -4.35 -14.1 -4.25 -13.5 -4.4 -13.35 -4.45 -12.2 -4.7 -12.15 -2.8 -12.05 -1.7 -12.0 -1.45 -11.95 0.65 -12.2 2.95 -12.3 3.65 -8.8 3.6 -8.1 4.2 -7.3 4.2 Q-6.7 4.25 -6.3 3.35 L-6.25 3.35 -6.15 3.05 -4.75 3.5 Q-3.6 2.15 -2.3 1.1 L-1.5 1.8" fill="#ebbb98" fill-rule="evenodd" stroke="none"/>
      <path d="M13.75 47.75 L13.75 49.75 12.85 51.7 Q11.35 53.85 7.75 57.65 L7.6 57.8 8.0 55.45 Q8.65 53.25 10.65 50.6 L11.0 49.85 Q11.45 49.25 12.7 48.4 L13.75 47.75" fill="#7abc67" fill-opacity="0.9843137" fill-rule="evenodd" stroke="none"/>
      <path d="M13.75 44.3 L13.65 44.5 13.4 45.1 13.1 44.35 13.75 44.3 M13.5 47.25 L13.75 47.75 12.7 48.4 Q11.45 49.25 11.0 49.85 L10.65 50.6 Q8.65 53.25 8.0 55.45 L7.6 57.8 2.75 62.65 2.2 61.5 1.7 60.7 1.05 59.9 0.9 59.8 0.55 59.4 0.65 59.25 1.25 58.45 2.5 57.15 Q3.4 55.65 3.6 53.6 L3.6 53.4 3.85 49.15 5.0 52.35 5.2 52.9 5.35 53.9 6.75 52.15 8.6 49.55 9.05 48.7 9.35 48.35 Q9.3 48.2 9.4 48.1 L9.45 47.9 12.0 47.4 13.5 47.25 M-10.35 30.7 L-10.55 29.55 Q-12.3 20.4 -13.6 16.45 -14.85 12.45 -16.8 7.1 L-17.15 6.2 -16.65 6.25 -15.65 6.25 -14.8 8.4 Q-12.0 15.4 -10.05 24.25 L-9.2 19.05 -8.6 15.2 -7.3 20.5 Q-6.65 24.7 -7.05 29.65 L-10.35 30.7 M-6.6 46.55 L-6.7 46.6 -7.6 47.35 Q-9.05 48.4 -10.65 50.45 L-11.15 51.35 -11.25 51.3 -9.8 49.35 -7.95 47.2 -7.7 47.0 Q-7.4 46.8 -6.6 46.55" fill="#42a553" fill-opacity="0.9843137" fill-rule="evenodd" stroke="none"/>
      <path d="M13.4 45.1 Q13.65 46.1 13.5 47.25 L12.0 47.4 9.45 47.9 9.4 48.1 Q9.3 48.2 9.35 48.35 L9.05 48.7 8.6 49.55 6.75 52.15 5.35 53.9 5.2 52.9 5.0 52.35 3.85 49.15 3.6 53.4 3.6 53.6 Q3.4 55.65 2.5 57.15 L1.25 58.45 0.65 59.25 0.55 59.4 -0.45 58.55 -1.95 57.45 -2.2 57.25 -4.2 55.85 -4.75 55.5 Q-5.65 54.95 -6.5 54.55 L-6.55 54.5 -6.8 54.15 -7.7 53.5 -7.9 53.35 -9.05 52.8 -10.0 52.5 -10.05 52.35 -11.15 51.35 -10.65 50.45 Q-9.05 48.4 -7.6 47.35 L-6.7 46.6 -6.6 46.55 Q-4.05 45.7 3.4 44.35 L4.45 44.2 4.7 44.65 Q5.35 45.4 6.6 45.55 L7.85 45.55 11.25 44.6 11.9 44.3 13.1 44.35 13.4 45.1 M6.35 22.7 Q3.3 23.8 2.2 24.7 L1.8 25.05 1.5 25.15 Q-0.3 25.7 -0.85 26.5 L-1.0 26.75 -1.3 27.55 -1.7 27.75 -2.25 27.95 -6.45 29.45 -7.05 29.65 Q-6.65 24.7 -7.3 20.5 L-8.6 15.2 -9.2 19.05 -10.05 24.25 Q-12.0 15.4 -14.8 8.4 L-15.65 6.25 -14.2 5.85 -13.75 6.0 -13.65 6.05 -8.65 9.95 -0.8 16.1 Q1.75 18.1 6.35 22.7" fill="#348740" fill-opacity="0.9843137" fill-rule="evenodd" stroke="none"/>
      <path d="M-5.45 71.1 L-6.25 71.85 -6.3 71.8 -7.45 71.15 Q-9.65 70.05 -10.65 69.2 L-13.45 73.35 -15.9 76.05 -16.05 75.95 -16.1 76.55 -16.15 78.55 -17.95 77.2 Q-18.0 75.85 -18.5 75.5 L-19.6 76.9 Q-19.65 77.8 -20.7 79.1 L-22.55 81.2 -22.75 82.6 Q-22.75 83.8 -23.0 84.3 L-20.9 83.7 -18.7 83.15 -18.5 83.3 Q-19.25 85.85 -19.1 88.1 -18.85 90.2 -17.9 92.5 L-14.45 96.6 Q-12.7 98.55 -13.2 100.4 L-14.35 99.45 -29.55 87.05 -34.85 82.25 -34.35 81.55 Q-33.3 80.1 -30.85 79.35 L-30.7 79.35 -29.1 77.5 Q-27.55 75.75 -26.5 76.5 -25.45 77.2 -20.85 74.05 L-22.85 74.15 -24.65 74.05 -25.05 73.75 Q-23.75 73.15 -22.95 72.2 L-21.85 70.8 -22.35 70.25 -21.95 69.6 -20.45 67.7 Q-19.6 66.8 -18.7 66.6 L-17.2 64.65 -16.45 64.5 -16.25 64.45 -15.55 63.95 -13.2 65.9 Q-12.5 66.45 -11.8 66.55 L-11.0 67.2 -10.05 67.9 -8.0 69.8 Q-7.25 70.4 -6.45 70.35 L-5.7 70.9 -5.65 71.0 -5.45 71.1 M-2.25 27.95 L-1.7 27.75 -1.3 27.55 -1.2 28.9 -1.0 29.6 Q-0.5 31.1 0.3 31.95 0.5 33.35 1.2 35.45 1.6 36.85 2.7 37.2 L2.85 37.35 Q2.3 39.0 3.1 41.65 3.4 42.55 4.1 43.05 L4.35 43.9 4.45 44.2 3.4 44.35 2.8 43.05 Q1.65 40.85 1.3 39.55 L-3.2 41.25 -3.35 41.3 -4.75 41.65 -7.25 42.25 -7.7 42.35 -7.8 42.4 -11.6 44.0 -13.55 44.9 Q-14.5 45.3 -15.1 46.6 L-15.55 48.15 -15.25 48.6 Q-14.8 48.75 -14.5 49.05 -16.1 49.55 -16.85 47.1 -17.65 44.6 -18.95 44.7 -17.6 50.0 -17.8 54.7 -17.9 57.15 -18.45 59.4 L-19.15 61.85 -19.25 62.05 -19.35 61.6 -19.75 60.15 -19.95 59.25 Q-23.4 46.2 -24.4 43.05 L-26.05 35.65 Q-24.8 35.25 -23.8 35.95 -22.75 36.8 -21.65 36.55 -20.95 36.4 -20.45 35.7 L-18.6 33.85 Q-18.45 34.3 -18.45 35.25 L-18.45 36.6 Q-18.05 38.25 -16.5 37.85 -15.55 37.65 -14.85 35.9 L-14.6 35.35 -14.4 35.0 -13.75 34.6 -13.65 34.6 Q-13.15 34.5 -12.8 34.85 -12.5 35.25 -11.95 35.1 L-9.7 34.05 Q-8.4 33.45 -8.05 33.35 L-7.5 33.2 -5.75 32.65 -3.65 32.8 -1.25 32.05 -2.0 29.2 -2.25 27.95" fill="#111111" fill-rule="evenodd" stroke="none"/>
      <path d="M11.35 -26.6 L11.3 -26.25 11.25 -25.6 10.75 -23.25 10.1 -20.05 Q10.0 -19.5 9.7 -19.3 9.4 -19.55 9.2 -19.15 L8.65 -19.25 8.25 -19.25 8.15 -19.25 8.0 -19.3 8.05 -19.5 8.4 -22.7 Q8.7 -24.8 9.8 -25.85 10.45 -26.4 11.35 -26.6 M-6.25 71.85 L-6.5 72.15 Q-13.2 79.0 -13.7 80.5 L-13.75 80.8 -14.0 83.6 -16.4 85.75 Q-15.4 86.7 -15.15 89.25 -14.9 92.1 -14.2 93.4 L-11.85 96.95 Q-10.8 98.5 -10.55 99.65 L-10.65 99.8 -12.15 101.15 Q-12.65 100.8 -13.2 100.4 -12.7 98.55 -14.45 96.6 L-17.9 92.5 Q-18.85 90.2 -19.1 88.1 -19.25 85.85 -18.5 83.3 L-18.7 83.15 -20.9 83.7 -23.0 84.3 Q-22.75 83.8 -22.75 82.6 L-22.55 81.2 -20.7 79.1 Q-19.65 77.8 -19.6 76.9 L-18.5 75.5 Q-18.0 75.85 -17.95 77.2 L-16.15 78.55 -16.1 76.55 -16.05 75.95 -15.9 76.05 -13.45 73.35 -10.65 69.2 Q-9.65 70.05 -7.45 71.15 L-6.3 71.8 -6.25 71.85 M-36.95 80.15 L-36.6 79.75 -35.75 79.15 -35.0 77.9 Q-33.4 76.1 -31.6 74.95 L-29.3 73.2 -29.25 73.15 -28.55 72.8 Q-27.8 72.4 -26.35 70.1 L-22.95 65.55 -21.15 63.0 Q-20.15 64.9 -19.65 64.8 L-18.5 64.7 -19.25 62.05 -19.15 61.85 -18.45 59.4 Q-17.9 57.15 -17.8 54.7 -17.6 50.0 -18.95 44.7 -17.65 44.6 -16.85 47.1 -16.1 49.55 -14.5 49.05 -14.8 48.75 -15.25 48.6 L-15.55 48.15 -15.1 46.6 Q-14.5 45.3 -13.55 44.9 L-11.6 44.0 -7.8 42.4 -7.7 42.35 -7.25 42.25 -4.75 41.65 -3.35 41.3 -3.2 41.25 1.3 39.55 Q1.65 40.85 2.8 43.05 L3.4 44.35 Q-4.05 45.7 -6.6 46.55 -7.4 46.8 -7.7 47.0 L-7.95 47.2 -9.8 49.35 -12.9 49.75 -12.9 50.55 Q-13.05 51.65 -13.95 53.25 L-13.95 53.3 -15.1 55.5 -15.55 56.65 -15.65 57.15 -15.8 61.45 -15.8 62.0 -16.0 63.6 -16.25 64.45 -16.45 64.5 -17.2 64.65 -18.7 66.6 Q-19.6 66.8 -20.45 67.7 L-21.95 69.6 -22.35 70.25 -21.85 70.8 -22.95 72.2 Q-23.75 73.15 -25.05 73.75 L-24.65 74.05 -22.85 74.15 -20.85 74.05 Q-25.45 77.2 -26.5 76.5 -27.55 75.75 -29.1 77.5 L-30.7 79.35 -30.85 79.35 Q-33.3 80.1 -34.35 81.55 L-34.85 82.25 -35.15 81.95 -36.95 80.15 M-26.4 33.2 L-25.85 33.1 -24.8 33.05 -23.5 32.45 -19.0 32.1 -16.1 31.95 -16.05 32.0 -15.3 32.1 Q-14.5 32.15 -11.9 31.15 L-10.35 30.7 -7.05 29.65 -6.45 29.45 -2.25 27.95 -2.0 29.2 -1.25 32.05 -3.65 32.8 -5.75 32.65 -7.5 33.2 -8.05 33.35 Q-8.4 33.45 -9.7 34.05 L-11.95 35.1 Q-12.5 35.25 -12.8 34.85 -13.15 34.5 -13.65 34.6 L-13.75 34.6 -14.4 35.0 -14.6 35.35 -14.85 35.9 Q-15.55 37.65 -16.5 37.85 -18.05 38.25 -18.45 36.6 L-18.45 35.25 Q-18.45 34.3 -18.6 33.85 L-20.45 35.7 Q-20.95 36.4 -21.65 36.55 -22.75 36.8 -23.8 35.95 -24.8 35.25 -26.05 35.65 L-26.4 33.2" fill="#333333" fill-rule="evenodd" stroke="none"/>
      <path d="M-12.15 101.15 L-13.05 101.95 Q-13.4 102.35 -15.6 101.15 L-34.4 85.35 Q-37.6 82.5 -37.5 81.65 L-36.95 80.15 -35.15 81.95 -34.85 82.25 -29.55 87.05 -14.35 99.45 -13.2 100.4 Q-12.65 100.8 -12.15 101.15 M-21.15 63.0 L-21.25 62.75 -27.35 38.9 Q-28.25 34.7 -27.75 34.05 L-26.4 33.2 -26.05 35.65 -24.4 43.05 Q-23.4 46.2 -19.95 59.25 L-19.75 60.15 -19.35 61.6 -19.25 62.05 -18.5 64.7 -19.65 64.8 Q-20.15 64.9 -21.15 63.0" fill="#e5e5e5" fill-rule="evenodd" stroke="none"/>
      <path d="M-14.0 83.6 Q-14.5 86.1 -13.25 90.0 -12.8 91.4 -12.6 92.75 L-12.0 93.6 -11.45 94.65 Q-9.6 98.15 -10.55 99.65 -10.8 98.5 -11.85 96.95 L-14.2 93.4 Q-14.9 92.1 -15.15 89.25 -15.4 86.7 -16.4 85.75 L-14.0 83.6 M-9.8 49.35 L-11.25 51.3 -12.3 53.6 -12.85 55.0 -13.9 57.6 -13.95 58.65 -14.05 59.1 -14.1 59.8 -14.15 60.3 -14.6 62.15 Q-15.0 63.3 -15.55 63.95 L-16.25 64.45 -16.0 63.6 -15.8 62.0 -15.8 61.45 -15.65 57.15 -15.55 56.65 -15.1 55.5 -13.95 53.3 -13.95 53.25 Q-13.05 51.65 -12.9 50.55 L-12.9 49.75 -9.8 49.35" fill="#666666" fill-rule="evenodd" stroke="none"/>
      <path d="M5.7 -99.3 L7.1 -99.85 8.8 -100.05 9.35 -99.9 Q11.6 -99.4 13.05 -97.45 14.3 -95.65 14.7 -92.8 L14.6 -91.9 Q13.3 -93.95 11.7 -95.4 L11.2 -95.5 Q11.1 -95.15 11.3 -94.8 L11.55 -94.15 11.4 -93.3 Q11.1 -94.3 9.65 -96.0 8.15 -98.05 5.7 -99.3 M14.75 -100.55 L12.7 -101.2 12.7 -101.3 16.45 -101.25 Q18.5 -100.95 19.8 -100.35 L22.95 -98.7 Q24.05 -98.05 24.75 -96.2 L25.4 -93.85 25.5 -93.35 25.2 -93.85 24.15 -95.15 21.7 -97.35 21.85 -97.15 22.2 -96.15 22.5 -95.3 22.6 -95.15 22.55 -95.0 22.5 -95.3 20.0 -97.45 17.85 -98.8 18.25 -98.35 Q19.25 -97.15 19.85 -95.05 L20.05 -94.6 20.15 -94.3 20.1 -94.15 20.0 -94.65 19.85 -95.05 Q19.35 -96.1 18.05 -97.05 L14.9 -99.1 14.2 -99.25 15.45 -95.15 15.55 -94.9 15.45 -94.5 15.4 -94.65 13.55 -97.85 Q12.3 -99.5 10.4 -100.3 L9.85 -100.4 13.95 -100.6 14.9 -100.4 14.75 -100.55 M25.65 -93.05 L25.6 -92.95 25.55 -93.25 25.65 -93.05 M17.9 -85.8 L17.9 -86.0 18.15 -86.05 22.0 -86.7 24.4 -86.8 25.1 -87.1 Q25.4 -87.35 25.3 -86.75 L25.15 -86.3 23.85 -86.0 18.55 -85.65 17.9 -85.8 M3.45 -97.4 L3.4 -97.25 Q3.1 -96.45 2.95 -94.9 L2.75 -92.2 2.5 -91.0 1.35 -90.4 Q0.5 -89.8 0.25 -88.0 -0.05 -88.8 0.1 -90.1 L0.4 -92.35 Q0.5 -93.2 1.5 -95.9 L1.95 -96.25 3.45 -97.4 M7.8 -95.05 L8.55 -93.6 8.4 -93.45 7.35 -93.1 6.35 -92.55 6.25 -92.5 Q5.95 -93.0 5.2 -95.3 L4.6 -97.2 4.9 -98.8 Q6.45 -97.25 7.8 -95.05" fill="#724f2c" fill-rule="evenodd" stroke="none"/>
      <path d="M5.7 -99.3 Q8.15 -98.05 9.65 -96.0 11.1 -94.3 11.4 -93.3 L11.55 -94.15 11.3 -94.8 Q11.1 -95.15 11.2 -95.5 L11.7 -95.4 Q13.3 -93.95 14.6 -91.9 L14.7 -92.8 Q14.3 -95.65 13.05 -97.45 11.6 -99.4 9.35 -99.9 L8.8 -100.05 7.1 -99.85 5.7 -99.3 M14.75 -100.55 L14.9 -100.4 13.95 -100.6 9.85 -100.4 10.4 -100.3 Q12.3 -99.5 13.55 -97.85 L15.4 -94.65 15.45 -94.5 15.55 -94.9 15.45 -95.15 14.2 -99.25 14.9 -99.1 18.05 -97.05 Q19.35 -96.1 19.85 -95.05 L20.0 -94.65 20.1 -94.15 20.15 -94.3 20.05 -94.6 19.85 -95.05 Q19.25 -97.15 18.25 -98.35 L17.85 -98.8 20.0 -97.45 22.5 -95.3 22.55 -95.0 22.6 -95.15 22.5 -95.3 22.2 -96.15 21.85 -97.15 21.7 -97.35 24.15 -95.15 25.2 -93.85 25.5 -93.35 25.4 -93.85 24.75 -96.2 Q24.05 -98.05 22.95 -98.7 L19.8 -100.35 Q18.5 -100.95 16.45 -101.25 L12.7 -101.3 12.7 -101.2 14.75 -100.55 M-1.7 -86.9 L-1.6 -89.25 Q-1.45 -92.75 1.5 -97.25 4.5 -101.85 11.35 -102.05 18.2 -102.25 21.75 -100.55 25.3 -98.9 27.0 -96.15 L28.15 -93.4 28.25 -92.95 Q28.7 -90.95 28.7 -88.3 L27.0 -88.4 24.85 -88.3 23.2 -88.2 22.85 -90.5 22.1 -92.2 22.45 -90.15 22.45 -88.2 19.65 -87.9 19.45 -90.55 18.25 -93.7 18.0 -94.35 18.2 -93.3 18.8 -90.45 18.95 -87.8 17.35 -87.4 16.25 -86.95 14.9 -86.85 14.15 -85.75 14.05 -85.6 12.4 -84.1 12.35 -85.1 11.1 -87.35 7.75 -92.45 Q6.15 -87.85 6.45 -86.75 6.7 -85.65 7.05 -85.05 L7.75 -83.95 8.3 -82.4 8.6 -81.5 8.6 -80.9 8.45 -80.45 8.2 -79.35 8.1 -79.05 7.35 -79.5 6.7 -79.95 4.7 -80.9 3.2 -81.5 3.05 -82.4 Q2.8 -83.6 2.05 -84.6 0.65 -86.5 -1.7 -86.9 M25.65 -93.05 L25.55 -93.25 25.6 -92.95 25.65 -93.05 M7.8 -95.05 Q6.45 -97.25 4.9 -98.8 L4.6 -97.2 5.2 -95.3 Q5.95 -93.0 6.25 -92.5 L6.35 -92.55 7.35 -93.1 8.4 -93.45 8.55 -93.6 7.8 -95.05 M3.45 -97.4 L1.95 -96.25 1.5 -95.9 Q0.5 -93.2 0.4 -92.35 L0.1 -90.1 Q-0.05 -88.8 0.25 -88.0 0.5 -89.8 1.35 -90.4 L2.5 -91.0 2.75 -92.2 2.95 -94.9 Q3.1 -96.45 3.4 -97.25 L3.45 -97.4 M-1.75 -83.85 L-1.05 -83.5 -0.4 -82.8 0.15 -81.7 -0.1 -81.45 -0.75 -80.3 -0.9 -80.1 -0.95 -80.0 -1.05 -79.75 Q-1.7 -81.1 -1.75 -83.35 L-1.75 -83.85" fill="#5b3f23" fill-rule="evenodd" stroke="none"/>
      <path d="M27.3 -78.15 L26.5 -78.0 24.95 -77.9 24.3 -77.4 24.3 -76.75 23.9 -77.45 Q23.25 -78.7 23.45 -79.6 L23.7 -78.7 24.4 -78.55 25.35 -78.7 26.2 -78.95 Q26.55 -78.9 26.95 -78.5 L27.3 -78.15 M24.5 -75.7 L23.75 -75.1 21.0 -75.05 23.85 -75.85 24.5 -75.7 M25.15 -86.3 L25.5 -85.65 25.3 -85.1 25.3 -84.35 24.95 -84.35 23.9 -83.45 23.6 -83.15 Q22.4 -82.25 20.8 -81.35 L20.85 -81.45 20.65 -82.3 19.4 -83.75 17.25 -85.6 17.9 -85.8 18.55 -85.65 23.85 -86.0 25.15 -86.3 M23.3 -84.7 L23.2 -84.95 21.1 -84.85 21.6 -84.05 21.95 -83.75 22.45 -83.45 23.3 -84.7 M9.85 -86.95 Q11.05 -85.85 10.8 -84.4 L10.7 -84.0 10.55 -84.0 9.75 -83.45 Q9.8 -83.05 10.35 -82.65 10.9 -82.2 10.8 -81.85 10.75 -81.5 10.05 -81.6 9.45 -81.7 9.25 -82.5 9.05 -83.1 9.15 -83.55 9.2 -84.0 9.35 -84.0 9.6 -84.05 9.85 -84.25 L10.1 -84.65 10.25 -85.5 9.75 -86.2 9.3 -86.4 9.15 -86.4 8.35 -86.5 Q7.75 -86.65 8.2 -87.35 8.65 -88.15 9.85 -86.95" fill="#c79b68" fill-rule="evenodd" stroke="none"/>
      <path d="M23.3 -84.7 L22.45 -83.45 21.95 -83.75 21.6 -84.05 21.1 -84.85 23.2 -84.95 23.3 -84.7" fill="#000000" fill-rule="evenodd" stroke="none"/>
      <path d="M18.85 -68.95 L18.25 -67.8 18.0 -67.35 Q16.8 -65.6 15.35 -65.35 L14.85 -65.95 Q15.75 -65.85 16.65 -66.45 18.15 -67.35 17.3 -69.1 L16.85 -69.9 16.45 -70.45 14.75 -72.15 11.75 -74.2 10.0 -75.35 8.85 -76.15 8.2 -76.6 6.85 -77.45 6.55 -77.6 5.75 -78.05 5.1 -78.35 4.2 -78.75 2.95 -79.25 1.6 -79.7 1.3 -79.75 1.3 -79.8 1.2 -79.8 -0.1 -79.65 -0.85 -79.3 -1.5 -78.8 -1.05 -79.75 -0.95 -80.0 -0.9 -80.1 -0.75 -80.3 Q-0.5 -80.8 0.25 -80.9 L0.55 -80.95 0.8 -80.95 Q0.75 -81.5 0.15 -81.7 L-0.4 -82.8 -1.05 -83.5 -1.75 -83.85 -2.3 -84.0 Q-3.6 -84.2 -4.65 -83.4 -5.6 -82.65 -5.75 -81.45 L-5.65 -80.1 -5.25 -79.25 -4.5 -78.55 Q-3.95 -78.15 -3.2 -78.05 L-2.45 -78.0 -2.35 -77.95 -2.2 -78.0 -2.0 -78.05 -1.75 -78.2 -1.75 -78.15 -1.85 -77.85 -2.05 -77.6 -4.45 -77.5 Q-5.5 -77.9 -5.9 -78.35 -6.5 -78.95 -6.75 -80.05 L-6.7 -81.9 Q-6.6 -82.6 -5.65 -83.55 -4.55 -84.65 -2.45 -84.3 L-1.75 -84.1 Q-0.75 -83.75 0.1 -82.65 L0.65 -81.65 1.25 -81.3 1.8 -81.4 1.1 -82.65 0.95 -82.95 0.85 -83.1 0.35 -83.7 Q-0.5 -84.7 -1.75 -85.15 L-2.35 -85.35 -4.85 -85.25 -6.3 -84.45 -6.95 -83.65 -7.75 -82.35 -7.95 -80.25 -7.35 -78.5 Q-6.95 -77.45 -5.8 -76.55 -4.6 -75.7 -3.65 -75.6 L-2.0 -75.55 -1.75 -75.6 -1.4 -75.7 -1.35 -75.65 -0.8 -75.3 0.15 -74.6 1.45 -73.8 -0.4 -73.85 -0.75 -74.05 Q-1.45 -74.5 -1.75 -75.0 L-2.05 -74.95 -2.5 -74.9 -3.65 -75.05 -4.95 -75.4 Q-6.5 -76.0 -7.65 -77.5 -9.05 -79.45 -8.7 -81.9 -8.4 -84.05 -6.9 -85.45 L-6.85 -85.45 -4.5 -86.25 -3.15 -86.35 -1.75 -86.15 -1.65 -86.15 Q-0.45 -85.75 0.6 -84.95 1.55 -84.2 1.85 -83.45 L2.35 -81.7 2.6 -80.75 5.15 -79.75 5.95 -79.35 7.6 -78.4 7.9 -78.35 8.0 -78.15 10.0 -76.9 11.35 -76.0 11.45 -75.95 11.75 -75.75 14.75 -73.6 Q16.8 -72.05 17.85 -70.8 L18.65 -69.6 18.85 -68.95" fill="#e5c051" fill-rule="evenodd" stroke="none"/>
      <path d="M1.45 -73.8 L0.15 -74.6 -0.8 -75.3 -1.35 -75.65 -1.4 -75.7 -1.75 -75.6 -2.0 -75.55 -3.65 -75.6 Q-4.6 -75.7 -5.8 -76.55 -6.95 -77.45 -7.35 -78.5 L-7.95 -80.25 -7.75 -82.35 -6.95 -83.65 -6.3 -84.45 -4.85 -85.25 -2.35 -85.35 -1.75 -85.15 Q-0.5 -84.7 0.35 -83.7 L0.85 -83.1 0.95 -82.95 1.1 -82.65 1.8 -81.4 1.25 -81.3 0.65 -81.65 0.1 -82.65 Q-0.75 -83.75 -1.75 -84.1 L-2.45 -84.3 Q-4.55 -84.65 -5.65 -83.55 -6.6 -82.6 -6.7 -81.9 L-6.75 -80.05 Q-6.5 -78.95 -5.9 -78.35 -5.5 -77.9 -4.45 -77.5 L-2.05 -77.6 -1.85 -77.85 -1.75 -78.15 -1.75 -78.2 -1.75 -78.3 -1.5 -78.8 -0.85 -79.3 -0.1 -79.65 1.2 -79.8 1.3 -79.8 1.3 -79.75 1.6 -79.7 2.95 -79.25 4.2 -78.75 5.1 -78.35 5.75 -78.05 6.55 -77.6 6.85 -77.45 8.2 -76.6 8.85 -76.15 10.0 -75.35 11.75 -74.2 14.75 -72.15 16.45 -70.45 16.85 -69.9 17.3 -69.1 Q18.15 -67.35 16.65 -66.45 15.75 -65.85 14.85 -65.95 L13.7 -67.15 13.05 -67.75 12.0 -68.7 Q7.95 -72.3 4.7 -73.3 L3.4 -73.6 1.45 -73.8" fill="#a68b3a" fill-rule="evenodd" stroke="none"/>
      <path d="M-1.7 -86.9 Q0.65 -86.5 2.05 -84.6 2.8 -83.6 3.05 -82.4 L3.2 -81.5 4.7 -80.9 6.7 -79.95 7.35 -79.5 8.1 -79.05 10.0 -77.9 11.05 -77.2 11.75 -76.75 14.75 -74.55 18.4 -71.5 Q18.95 -70.3 18.95 -69.5 L18.85 -68.95 18.65 -69.6 17.85 -70.8 Q16.8 -72.05 14.75 -73.6 L11.75 -75.75 11.45 -75.95 11.35 -76.0 10.0 -76.9 8.0 -78.15 7.9 -78.35 7.6 -78.4 5.95 -79.35 5.15 -79.75 2.6 -80.75 2.35 -81.7 1.85 -83.45 Q1.55 -84.2 0.6 -84.95 -0.45 -85.75 -1.65 -86.15 L-1.75 -86.15 -3.15 -86.35 -4.5 -86.25 -6.85 -85.45 -6.35 -85.9 Q-4.25 -87.3 -1.85 -86.95 L-1.7 -86.9 M0.15 -81.7 Q0.75 -81.5 0.8 -80.95 L0.55 -80.95 0.25 -80.9 Q-0.5 -80.8 -0.75 -80.3 L-0.1 -81.45 0.15 -81.7" fill="#ffecb6" fill-rule="evenodd" stroke="none"/>
      <path d="M11.4 -26.9 L11.35 -26.6 Q10.45 -26.4 9.8 -25.85 8.7 -24.8 8.4 -22.7 L8.05 -19.5 8.0 -19.3 5.8 -19.7 4.55 -20.0 3.5 -20.35 3.4 -20.35 Q1.15 -21.1 -1.5 -21.5 L-4.3 -21.7 -6.0 -21.8 -7.0 -21.85 -7.45 -21.9 -7.6 -22.35 Q-7.5 -23.55 -7.8 -24.35 L-10.0 -30.6 -9.7 -30.6 -9.1 -30.55 1.05 -29.0 2.7 -28.65 3.7 -28.45 4.35 -28.35 8.1 -27.4 11.05 -27.0 11.25 -27.05 11.35 -27.0 11.4 -26.9" fill="#222222" fill-rule="evenodd" stroke="none"/>
    </g>
  </defs>
</svg>
