<?xml version="1.0" encoding="UTF-8" standalone="no"?>
<svg xmlns:ffdec="https://www.free-decompiler.com/flash" xmlns:xlink="http://www.w3.org/1999/xlink" ffdec:objectType="frame" height="59.9px" width="12.85px" xmlns="http://www.w3.org/2000/svg">
  <g transform="matrix(1.0, 0.0, 0.0, 1.0, 6.85, 27.2)">
    <use ffdec:characterId="1371" ffdec:characterName="game_fla.hand2_738" height="17.45" id="hand" transform="matrix(1.0, 0.0, 0.0, 1.0, -6.85, 15.25)" width="12.35" xlink:href="#sprite0"/>
    <use ffdec:characterId="1372" height="44.55" transform="matrix(1.0, 0.0, 0.0, 1.0, -6.05, -27.2)" width="11.3" xlink:href="#shape1"/>
    <use ffdec:characterId="1081" height="100.0" id="shape" transform="matrix(0.12, 0.0, 0.0, 0.54, -5.999, -27.0004)" width="100.0" xlink:href="#sprite1"/>
  </g>
  <defs>
    <g id="sprite0" transform="matrix(1.0, 0.0, 0.0, 1.0, 7.05, 5.95)">
      <use ffdec:characterId="1369" height="11.85" transform="matrix(1.0, 0.0, 0.0, 1.0, -5.4, -5.95)" width="10.7" xlink:href="#shape0"/>
    </g>
    <g id="shape0" transform="matrix(1.0, 0.0, 0.0, 1.0, 5.4, 5.95)">
      <path d="M0.7 -5.95 L4.3 -5.95 4.5 -4.95 5.0 -3.0 5.1 -2.7 5.15 -2.5 5.15 -2.4 3.9 1.65 Q3.65 2.7 2.95 3.15 L-1.3 2.25 -1.95 1.95 Q-1.1 3.55 0.7 3.65 L0.2 3.9 -5.3 2.9 -5.4 2.5 -5.15 0.7 -5.05 0.05 -4.45 -0.5 -0.25 -0.8 -0.2 -0.8 -0.2 -0.85 -0.6 -2.8 0.45 -3.8 Q0.9 -4.3 2.3 -4.1 L1.7 -5.15 1.35 -5.25 1.1 -5.3 0.7 -5.95 M-3.7 -3.9 L-3.7 -4.85 -3.7 -5.3 -3.65 -5.35 -3.6 -5.95 -3.0 -5.95 -3.0 -5.4 -3.3 -3.95 -3.7 -3.9" fill="#ffcc99" fill-rule="evenodd" stroke="none"/>
      <path d="M0.7 -5.95 L1.1 -5.3 1.35 -5.25 1.7 -5.15 2.3 -4.1 Q0.9 -4.3 0.45 -3.8 L-0.6 -2.8 -0.2 -0.85 -0.25 -0.8 -4.45 -0.5 -4.1 -1.75 -4.1 -1.9 -3.7 -3.9 -3.3 -3.95 -3.0 -5.4 -3.0 -5.95 0.7 -5.95" fill="#ebbb98" fill-rule="evenodd" stroke="none"/>
      <path d="M-5.3 2.9 L0.2 3.9 0.7 3.65 Q-1.1 3.55 -1.95 1.95 L-1.3 2.25 2.95 3.15 Q3.65 2.7 3.9 1.65 L5.15 -2.4 5.25 0.2 4.8 4.5 4.5 4.75 4.3 5.2 Q2.75 6.15 1.2 5.8 L-1.9 5.25 Q-3.4 5.0 -4.75 4.2 L-5.3 2.9" fill="#e2b181" fill-rule="evenodd" stroke="none"/>
    </g>
    <g id="shape1" transform="matrix(1.0, 0.0, 0.0, 1.0, 6.05, 27.2)">
      <path d="M-4.95 -24.85 Q-4.65 -25.75 -3.9 -26.3 -2.45 -27.35 0.65 -27.15 2.1 -27.05 3.1 -26.3 L3.75 -25.65 Q5.3 -23.8 5.25 -19.55 5.05 -12.3 4.45 -6.1 3.8 0.05 3.9 4.2 L3.8 9.95 3.85 10.25 4.0 13.1 Q4.4 14.6 4.4 15.6 4.4 16.2 4.1 16.2 L3.95 16.2 3.85 17.35 Q2.65 17.0 1.8 15.95 L1.5 15.55 0.35 15.55 -1.15 15.5 -3.4 15.5 Q-3.75 11.6 -4.15 9.25 L-4.9 3.25 -5.05 1.9 Q-5.75 -4.45 -6.0 -11.2 L-6.0 -12.35 Q-6.2 -17.9 -5.8 -21.4 L-5.1 -20.45 Q-4.8 -21.75 -5.15 -23.15 L-4.95 -24.85 M1.1 -8.5 L1.3 -9.05 1.05 -8.5 1.1 -8.5 M2.4 -16.6 Q2.4 -17.85 1.7 -19.85 L0.4 -23.15 0.3 -23.15 Q0.9 -20.15 0.9 -18.6 0.9 -17.4 1.2 -15.8 L1.45 -13.4 1.55 -12.0 1.3 -10.65 1.35 -10.25 1.4 -10.3 2.4 -16.6 M-3.15 9.65 L-3.15 10.7 -2.95 12.6 -2.75 14.9 -2.45 14.95 1.1 14.65 1.1 14.15 Q0.8 12.8 0.25 8.0 -0.2 4.0 -0.9 2.15 L-0.65 12.3 Q-0.65 13.0 -1.25 13.9 L-1.9 13.9 Q-2.0 13.1 -2.45 11.7 L-3.15 9.65" fill="#ffcc99" fill-rule="evenodd" stroke="none"/>
      <path d="M-5.8 -21.4 L-5.9 -22.8 Q-5.9 -23.8 -4.95 -24.85 L-5.15 -23.15 Q-4.8 -21.75 -5.1 -20.45 L-5.8 -21.4 M2.4 -16.6 L1.4 -10.3 1.35 -10.25 1.3 -10.65 1.55 -12.0 1.45 -13.4 1.2 -15.8 Q0.9 -17.4 0.9 -18.6 0.9 -20.15 0.3 -23.15 L0.4 -23.15 1.7 -19.85 Q2.4 -17.85 2.4 -16.6 M1.1 -8.5 L1.05 -8.5 1.3 -9.05 1.1 -8.5 M-3.15 9.65 L-2.45 11.7 Q-2.0 13.1 -1.9 13.9 L-1.25 13.9 Q-0.65 13.0 -0.65 12.3 L-0.9 2.15 Q-0.2 4.0 0.25 8.0 0.8 12.8 1.1 14.15 L1.1 14.65 -2.45 14.95 -2.75 14.9 -2.95 12.6 -3.15 10.7 -3.15 9.65" fill="#f4c398" fill-rule="evenodd" stroke="none"/>
    </g>
    <g id="sprite1" transform="matrix(1.0, 0.0, 0.0, 1.0, 50.0, 50.0)">
      <use ffdec:characterId="1080" height="100.0" transform="matrix(1.0, 0.0, 0.0, 1.0, -50.0, -50.0)" width="100.0" xlink:href="#shape2"/>
    </g>
    <g id="shape2" transform="matrix(1.0, 0.0, 0.0, 1.0, 50.0, 50.0)">
      <path d="M50.0 50.0 L-50.0 50.0 -50.0 -50.0 50.0 -50.0 50.0 50.0 Z" fill="none" stroke="#9900ff" stroke-linecap="round" stroke-linejoin="round" stroke-width="0.05"/>
    </g>
  </defs>
</svg>
