<?xml version="1.0" encoding="UTF-8" standalone="no"?>
<svg xmlns:ffdec="https://www.free-decompiler.com/flash" xmlns:xlink="http://www.w3.org/1999/xlink" ffdec:objectType="frame" height="56.05px" width="29.7px" xmlns="http://www.w3.org/2000/svg">
  <g transform="matrix(1.0, 0.0, 0.0, 1.0, 14.85, 26.95)">
    <use ffdec:characterId="2117" height="54.1" transform="matrix(1.0, 0.0, 0.0, 1.0, -14.85, -26.95)" width="29.7" xlink:href="#shape0"/>
    <use ffdec:characterId="1081" height="100.0" id="shape" transform="matrix(0.27, 0.0, 0.0, 0.5199, -13.4995, -25.9964)" width="100.0" xlink:href="#sprite0"/>
  </g>
  <defs>
    <g id="shape0" transform="matrix(1.0, 0.0, 0.0, 1.0, 14.85, 26.95)">
      <path d="M14.1 -19.35 Q15.0 -16.8 14.8 -14.05 L14.3 -9.35 13.6 -6.3 Q13.05 -4.75 12.8 -2.95 L11.45 3.75 Q10.9 6.4 10.95 7.45 L10.4 11.3 9.75 17.75 Q9.2 22.85 8.4 24.1 L5.95 26.5 Q4.35 27.7 0.45 26.75 -3.45 25.8 -4.45 25.05 -5.5 24.3 -7.3 21.15 -9.95 17.25 -12.0 10.2 -13.3 5.85 -14.1 -2.95 L-14.45 -5.1 -14.75 -7.55 -14.85 -10.2 -14.65 -11.95 -13.4 -16.1 -12.8 -17.8 -12.35 -18.75 Q-6.45 -28.6 6.0 -26.6 9.5 -25.85 12.0 -22.9 13.3 -21.35 14.1 -19.35 M6.65 -21.4 Q4.3 -23.4 0.9 -23.4 -2.5 -23.45 -4.9 -21.6 -6.2 -20.6 -6.85 -19.25 L-7.3 -18.8 Q-10.1 -15.8 -10.1 -10.8 -10.1 -7.9 -6.8 -6.2 -2.6 -4.05 -0.75 -0.25 0.35 2.1 0.85 4.85 L1.6 10.5 1.85 10.5 2.0 9.6 Q2.0 1.7 4.95 -5.55 L7.25 -11.25 8.3 -12.4 Q9.25 -13.9 9.25 -15.15 9.25 -19.1 6.65 -21.4" fill="#ffcc99" fill-rule="evenodd" stroke="none"/>
      <path d="M6.65 -21.4 Q9.25 -19.1 9.25 -15.15 9.25 -13.9 8.3 -12.4 L7.25 -11.25 4.95 -5.55 Q2.0 1.7 2.0 9.6 L1.85 10.5 1.6 10.5 0.85 4.85 Q0.35 2.1 -0.75 -0.25 -2.6 -4.05 -6.8 -6.2 -10.1 -7.9 -10.1 -10.8 -10.1 -15.8 -7.3 -18.8 L-6.85 -19.25 Q-6.2 -20.6 -4.9 -21.6 -2.5 -23.45 0.9 -23.4 4.3 -23.4 6.65 -21.4" fill="#f4c398" fill-rule="evenodd" stroke="none"/>
    </g>
    <g id="sprite0" transform="matrix(1.0, 0.0, 0.0, 1.0, 50.0, 50.0)">
      <use ffdec:characterId="1080" height="100.0" transform="matrix(1.0, 0.0, 0.0, 1.0, -50.0, -50.0)" width="100.0" xlink:href="#shape1"/>
    </g>
    <g id="shape1" transform="matrix(1.0, 0.0, 0.0, 1.0, 50.0, 50.0)">
      <path d="M50.0 50.0 L-50.0 50.0 -50.0 -50.0 50.0 -50.0 50.0 50.0 Z" fill="none" stroke="#9900ff" stroke-linecap="round" stroke-linejoin="round" stroke-width="0.05"/>
    </g>
  </defs>
</svg>
