<?xml version="1.0" encoding="UTF-8" standalone="no"?>
<svg xmlns:ffdec="https://www.free-decompiler.com/flash" xmlns:xlink="http://www.w3.org/1999/xlink" ffdec:objectType="frame" height="22.45px" width="108.55px" xmlns="http://www.w3.org/2000/svg">
  <g transform="matrix(1.0, 0.0, 0.0, 1.0, 0.0, 0.0)">
    <use ffdec:characterId="807" height="22.45" transform="matrix(1.0, 0.0, 0.0, 1.0, 0.0, 0.0)" width="108.55" xlink:href="#shape0"/>
  </g>
  <defs>
    <g id="shape0" transform="matrix(1.0, 0.0, 0.0, 1.0, 0.0, 0.0)">
      <path d="M105.25 3.3 Q108.55 6.6 108.55 11.25 108.55 15.85 105.25 19.15 102.2 22.25 97.9 22.45 L97.35 22.45 10.5 22.45 Q6.35 22.2 3.3 19.15 0.0 15.85 0.0 11.25 0.0 6.6 3.3 3.3 6.35 0.3 10.5 0.1 L10.5 0.0 97.9 0.0 97.9 0.05 Q102.2 0.25 105.25 3.3" fill="#ffffff" fill-rule="evenodd" stroke="none"/>
    </g>
  </defs>
</svg>
