<?xml version="1.0" encoding="UTF-8" standalone="no"?>
<svg xmlns:ffdec="https://www.free-decompiler.com/flash" xmlns:xlink="http://www.w3.org/1999/xlink" ffdec:objectType="frame" height="24.35px" width="16.5px" xmlns="http://www.w3.org/2000/svg">
  <g transform="matrix(1.0, 0.0, 0.0, 1.0, 8.25, 9.6)">
    <use ffdec:characterId="2596" height="24.35" transform="matrix(1.0, 0.0, 0.0, 1.0, -8.25, -9.6)" width="16.5" xlink:href="#shape0"/>
  </g>
  <defs>
    <g id="shape0" transform="matrix(1.0, 0.0, 0.0, 1.0, 8.25, 9.6)">
      <path d="M7.75 -2.5 L8.25 -2.5 8.25 2.5 7.75 2.5 6.85 2.5 5.1 2.5 2.7 2.5 0.0 2.5 -2.65 2.5 -5.05 2.5 -6.85 2.5 -7.75 2.5 -8.25 2.5 -8.25 -2.5 -7.75 -2.5 7.75 -2.5 M1.05 -1.05 L0.0 -1.5 -1.05 -1.05 -1.5 0.0 Q-1.5 0.65 -1.05 1.1 -0.6 1.5 0.0 1.5 0.65 1.5 1.05 1.1 1.5 0.65 1.5 0.0 L1.05 -1.05" fill="url(#gradient0)" fill-rule="evenodd" stroke="none"/>
      <path d="M1.05 -1.05 L1.5 0.0 Q1.5 0.65 1.05 1.1 0.65 1.5 0.0 1.5 -0.6 1.5 -1.05 1.1 -1.5 0.65 -1.5 0.0 L-1.05 -1.05 0.0 -1.5 1.05 -1.05" fill="#b8bdc6" fill-rule="evenodd" stroke="none"/>
      <path d="M7.75 -3.5 L7.75 -2.5 -7.75 -2.5 -7.75 -3.5 7.75 -3.5 M6.25 8.6 L6.25 9.6 4.9 9.6 -4.9 9.6 -6.25 9.6 -6.25 8.6 6.25 8.6 M5.55 11.1 L5.55 11.9 4.85 14.35 4.2 14.65 4.2 11.35 4.2 11.1 5.55 11.1 M2.9 11.35 L2.7 14.75 -2.65 14.75 -2.85 11.35 -2.9 11.1 2.9 11.1 2.9 11.35 M-4.2 11.35 L-4.2 14.65 -4.85 14.35 -5.5 11.9 -5.5 11.1 -4.2 11.1 -4.2 11.35" fill="#545454" fill-rule="evenodd" stroke="none"/>
      <path d="M7.75 -4.5 L7.75 -3.5 -7.75 -3.5 -7.75 -4.5 7.75 -4.5 M7.75 4.0 L7.75 6.1 -7.75 6.1 -7.75 4.0 -6.85 4.0 -5.05 4.0 -2.65 4.0 0.0 4.0 2.7 4.0 5.1 4.0 6.85 4.0 7.75 4.0" fill="url(#gradient1)" fill-rule="evenodd" stroke="none"/>
      <path d="M-7.75 -4.5 L-7.75 -4.6 Q-7.75 -9.6 -2.75 -9.6 L2.75 -9.6 Q7.75 -9.6 7.75 -4.6 L7.75 -4.5 -7.75 -4.5" fill="url(#gradient2)" fill-rule="evenodd" stroke="none"/>
      <path d="M7.75 2.5 L7.75 3.5 6.85 3.5 6.85 2.5 7.75 2.5 M5.1 2.5 L5.1 3.5 2.7 3.5 2.7 2.5 5.1 2.5 M0.0 2.5 L0.0 3.5 -2.65 3.5 -2.65 2.5 0.0 2.5 M-5.05 2.5 L-5.05 3.5 -6.85 3.5 -6.85 2.5 -5.05 2.5" fill="#515151" fill-rule="evenodd" stroke="none"/>
      <path d="M4.9 9.6 L4.9 10.25 4.2 10.25 4.2 11.1 4.2 11.35 2.9 11.35 2.9 11.1 3.0 10.35 -2.95 10.35 -2.9 11.1 -2.85 11.35 -4.2 11.35 -4.2 11.1 -4.2 10.25 -4.9 10.25 -4.9 9.6 4.9 9.6 M-7.75 3.5 L-7.75 2.5 -6.85 2.5 -6.85 3.5 -7.75 3.5 M5.1 2.5 L6.85 2.5 6.85 3.5 5.1 3.5 5.1 2.5 M2.7 3.5 L0.0 3.5 0.0 2.5 2.7 2.5 2.7 3.5 M-2.65 2.5 L-2.65 3.5 -5.05 3.5 -5.05 2.5 -2.65 2.5" fill="#202020" fill-rule="evenodd" stroke="none"/>
      <path d="M-7.75 4.0 L-7.75 3.5 -6.85 3.5 -6.85 4.0 -7.75 4.0 M5.1 3.5 L6.85 3.5 6.85 4.0 5.1 4.0 5.1 3.5 M0.0 4.0 L0.0 3.5 2.7 3.5 2.7 4.0 0.0 4.0 M-5.05 3.5 L-2.65 3.5 -2.65 4.0 -5.05 4.0 -5.05 3.5" fill="#3c3c3c" fill-rule="evenodd" stroke="none"/>
      <path d="M7.75 3.5 L7.75 4.0 6.85 4.0 6.85 3.5 7.75 3.5 M5.1 3.5 L5.1 4.0 2.7 4.0 2.7 3.5 5.1 3.5 M0.0 3.5 L0.0 4.0 -2.65 4.0 -2.65 3.5 0.0 3.5 M-5.05 3.5 L-5.05 4.0 -6.85 4.0 -6.85 3.5 -5.05 3.5" fill="#666666" fill-rule="evenodd" stroke="none"/>
      <path d="M7.75 6.1 L7.4 7.6 Q7.1 8.6 6.25 8.6 L-6.25 8.6 Q-7.05 8.6 -7.35 7.6 L-7.75 6.1 7.75 6.1" fill="url(#gradient3)" fill-rule="evenodd" stroke="none"/>
      <path d="M4.9 10.25 Q5.45 10.35 5.55 11.1 L4.2 11.1 4.2 10.25 4.9 10.25 M-5.5 11.1 Q-5.45 10.35 -4.9 10.25 L-4.2 10.25 -4.2 11.1 -5.5 11.1 M2.9 11.1 L-2.9 11.1 -2.95 10.35 3.0 10.35 2.9 11.1" fill="#787878" fill-rule="evenodd" stroke="none"/>
    </g>
    <linearGradient gradientTransform="matrix(0.0102, 0.0, 0.0, 0.0042, 0.0, 15.3)" gradientUnits="userSpaceOnUse" id="gradient0" spreadMethod="pad" x1="-819.2" x2="819.2">
      <stop offset="0.0" stop-color="#dce7ef"/>
      <stop offset="0.11764705882352941" stop-color="#999999"/>
      <stop offset="0.30196078431372547" stop-color="#dce7ef"/>
      <stop offset="0.39215686274509803" stop-color="#dce7ef"/>
      <stop offset="0.6039215686274509" stop-color="#666666"/>
      <stop offset="1.0" stop-color="#dce7ef"/>
    </linearGradient>
    <linearGradient gradientTransform="matrix(0.0093, 0.0, 0.0, 0.0185, 0.0, 48.65)" gradientUnits="userSpaceOnUse" id="gradient1" spreadMethod="pad" x1="-819.2" x2="819.2">
      <stop offset="0.0" stop-color="#dce7ef"/>
      <stop offset="0.11764705882352941" stop-color="#6692bb"/>
      <stop offset="0.30196078431372547" stop-color="#dce7ef"/>
      <stop offset="0.39215686274509803" stop-color="#dce7ef"/>
      <stop offset="0.6039215686274509" stop-color="#426693"/>
      <stop offset="1.0" stop-color="#dce7ef"/>
    </linearGradient>
    <radialGradient cx="0" cy="0" gradientTransform="matrix(0.0, -0.0034, 0.0088, 0.0, -0.1, -7.7)" gradientUnits="userSpaceOnUse" id="gradient2" r="819.2" spreadMethod="pad">
      <stop offset="0.0" stop-color="#666666"/>
      <stop offset="1.0" stop-color="#000000"/>
    </radialGradient>
    <linearGradient gradientTransform="matrix(0.0093, 0.0, 0.0, 0.0185, 0.0, 62.65)" gradientUnits="userSpaceOnUse" id="gradient3" spreadMethod="pad" x1="-819.2" x2="819.2">
      <stop offset="0.0" stop-color="#c9d3da"/>
      <stop offset="0.11764705882352941" stop-color="#5d85aa"/>
      <stop offset="0.30196078431372547" stop-color="#c9d3da"/>
      <stop offset="0.39215686274509803" stop-color="#c6d0d8"/>
      <stop offset="0.6039215686274509" stop-color="#3c5d86"/>
      <stop offset="1.0" stop-color="#c9d3da"/>
    </linearGradient>
  </defs>
</svg>
