<?xml version="1.0" encoding="UTF-8" standalone="no"?>
<svg xmlns:ffdec="https://www.free-decompiler.com/flash" xmlns:xlink="http://www.w3.org/1999/xlink" ffdec:objectType="frame" height="26.4px" width="22.75px" xmlns="http://www.w3.org/2000/svg">
  <g transform="matrix(1.0, 0.0, 0.0, 1.0, 11.35, 13.2)">
    <use ffdec:characterId="2527" height="26.4" transform="matrix(1.0, 0.0, 0.0, 1.0, -11.35, -13.2)" width="22.75" xlink:href="#shape0"/>
  </g>
  <defs>
    <g id="shape0" transform="matrix(1.0, 0.0, 0.0, 1.0, 11.35, 13.2)">
      <path d="M1.1 -11.45 L1.6 -12.0 2.0 -12.05 2.6 -11.9 3.1 -9.25 4.05 -8.35 5.1 -7.7 5.2 -7.7 6.3 -7.35 8.0 -6.75 Q9.4 -6.05 10.65 -4.9 L11.35 -4.2 11.4 -3.25 11.0 -2.7 10.85 -1.15 10.2 -0.75 8.8 -0.2 8.4 -0.25 7.4 0.4 6.85 0.05 5.35 1.25 3.8 0.35 4.95 -1.55 4.5 -1.55 2.45 -4.0 1.5 -4.15 0.95 -4.05 -0.6 -4.95 -0.55 -5.0 Q-0.15 -5.2 0.2 -5.45 L0.65 -5.3 4.45 -3.5 6.2 -2.7 7.05 -2.15 7.95 -1.9 7.85 -3.15 8.05 -3.5 8.0 -4.1 8.6 -4.55 9.05 -5.1 8.95 -5.4 8.75 -5.7 8.5 -5.95 7.05 -6.45 6.35 -5.75 5.1 -5.95 4.5 -6.7 3.2 -7.7 2.8 -7.9 1.8 -8.4 1.95 -9.75 0.95 -10.3 1.1 -11.45 M-8.25 -4.3 Q-8.0 -6.95 -6.1 -9.05 -6.65 -10.15 -6.25 -11.3 L-5.7 -11.5 -5.0 -11.3 -1.75 -11.15 -0.95 -10.15 -1.7 -9.85 -1.8 -9.3 -2.65 -8.9 -2.5 -7.95 -2.15 -7.7 -1.95 -7.15 -2.45 -6.4 -3.45 -6.0 -3.05 -5.6 -3.15 -4.45 -3.55 -4.3 -4.0 -4.45 -5.2 -6.95 -5.95 -6.5 -5.8 -5.95 Q-5.85 -2.95 -8.25 -4.3 M-0.05 -13.2 L0.4 -13.1 1.0 -11.85 Q0.7 -11.45 0.2 -11.55 L-0.35 -11.75 -0.7 -12.6 -0.05 -13.2 M-0.1 -9.0 L-0.05 -9.05 0.1 -8.85 -0.1 -9.0 M0.3 -8.65 L1.0 -8.25 1.35 -7.2 1.15 -6.5 0.15 -6.05 -0.3 -5.85 -1.15 -6.25 -0.85 -6.5 Q0.15 -7.35 0.3 -8.65 M-3.5 -3.5 L-2.8 -3.95 -1.9 -3.9 -0.9 -2.5 -0.6 -1.4 -1.45 0.05 -2.2 0.05 -3.45 -0.2 -3.75 -0.8 Q-4.3 -2.2 -3.5 -3.5 M6.8 4.35 L5.3 3.2 4.25 2.15 4.7 1.7 5.5 1.5 6.6 2.95 6.8 4.05 6.8 4.35" fill="#ff0000" fill-rule="evenodd" stroke="none"/>
      <path d="M8.8 -0.2 L9.15 0.8 8.6 1.5 8.3 2.25 Q7.95 2.7 7.25 2.85 L6.6 2.95 5.5 1.5 4.7 1.7 4.25 2.15 5.3 3.2 6.8 4.35 6.9 5.3 6.55 5.85 4.95 6.05 Q4.35 4.4 2.9 3.2 L3.1 0.35 2.75 -0.35 1.85 -1.9 0.4 -1.7 0.4 -1.2 0.1 0.55 -1.05 1.2 -1.85 1.1 -3.45 -0.2 -2.2 0.05 -1.45 0.05 -0.6 -1.4 -0.9 -2.5 -1.9 -3.9 -2.8 -3.95 -3.5 -3.5 -3.55 -4.3 -3.15 -4.45 -3.05 -5.6 -3.45 -6.0 -2.45 -6.4 -1.95 -7.15 -1.5 -6.5 -1.15 -6.25 -0.3 -5.85 0.15 -6.05 0.65 -5.3 0.2 -5.45 Q-0.15 -5.2 -0.55 -5.0 L-0.6 -4.95 0.95 -4.05 1.5 -4.15 2.45 -4.0 4.5 -1.55 4.95 -1.55 3.8 0.35 5.35 1.25 6.85 0.05 7.4 0.4 8.4 -0.25 8.8 -0.2 M0.95 -10.3 L1.95 -9.75 1.8 -8.4 2.8 -7.9 3.2 -7.7 4.5 -6.7 5.1 -5.95 6.35 -5.75 7.05 -6.45 8.5 -5.95 8.75 -5.7 8.95 -5.4 9.05 -5.1 8.6 -4.55 8.0 -4.1 8.05 -3.5 7.85 -3.15 7.95 -1.9 7.05 -2.15 6.2 -2.7 4.45 -3.5 4.7 -3.9 Q4.1 -5.6 2.55 -6.95 L1.35 -7.2 1.0 -8.25 0.3 -8.65 0.1 -8.85 -0.05 -9.05 -0.1 -9.0 -1.4 -9.1 Q-2.4 -8.8 -2.15 -7.7 L-2.5 -7.95 -2.65 -8.9 -1.8 -9.3 -1.7 -9.85 -0.95 -10.15 0.0 -9.8 0.7 -10.05 0.95 -10.3" fill="#990000" fill-rule="evenodd" stroke="none"/>
      <path d="M-1.75 -11.15 L-1.75 -12.4 -0.05 -13.2 -0.7 -12.6 -0.35 -11.75 0.2 -11.55 Q0.7 -11.45 1.0 -11.85 L1.1 -11.45 0.95 -10.3 0.7 -10.05 0.0 -9.8 -0.95 -10.15 -1.75 -11.15 M-2.15 -7.7 Q-2.4 -8.8 -1.4 -9.1 L-0.1 -9.0 0.1 -8.85 0.3 -8.65 Q0.15 -7.35 -0.85 -6.5 L-1.15 -6.25 -1.5 -6.5 -1.95 -7.15 -2.15 -7.7" fill="#ffffff" fill-rule="evenodd" stroke="none"/>
      <path d="M7.3 4.4 L8.3 6.45 8.35 6.55 10.4 13.2 7.75 10.6 Q7.15 10.0 4.8 8.6 L3.2 5.85 1.7 4.0 -1.05 1.2 0.1 0.55 0.4 -1.2 2.75 -0.35 3.1 0.35 2.9 3.2 Q4.35 4.4 4.95 6.05 L6.55 5.85 7.15 7.2 7.45 7.65 7.3 7.15 7.3 4.4 M-0.45 6.5 L-3.65 6.0 Q-6.15 5.8 -8.6 5.95 L-10.95 6.0 -11.35 6.3 -10.75 2.8 -9.85 -0.5 -8.4 -4.15 -8.25 -4.3 Q-5.85 -2.95 -5.8 -5.95 L-5.95 -6.5 -5.2 -6.95 -4.0 -4.45 -3.55 -4.3 -3.5 -3.5 Q-4.3 -2.2 -3.75 -0.8 L-3.45 -0.2 -1.85 1.1 Q-0.25 4.3 -0.45 6.5" fill="#ffcc99" fill-rule="evenodd" stroke="none"/>
      <path d="M4.45 -3.5 L0.65 -5.3 0.15 -6.05 1.15 -6.5 1.35 -7.2 2.55 -6.95 Q4.1 -5.6 4.7 -3.9 L4.45 -3.5" fill="#650101" fill-rule="evenodd" stroke="none"/>
      <path d="M8.3 2.25 L7.3 4.4 7.3 7.15 7.45 7.65 7.15 7.2 6.55 5.85 6.9 5.3 6.8 4.35 6.8 4.05 6.6 2.95 7.25 2.85 Q7.95 2.7 8.3 2.25 M4.8 8.6 Q1.4 6.9 0.0 6.6 L-0.45 6.5 Q-0.25 4.3 -1.85 1.1 L-1.05 1.2 1.7 4.0 3.2 5.85 4.8 8.6 M0.4 -1.2 L0.4 -1.7 1.85 -1.9 2.75 -0.35 0.4 -1.2" fill="#e2b181" fill-rule="evenodd" stroke="none"/>
    </g>
  </defs>
</svg>
