<?xml version="1.0" encoding="UTF-8" standalone="no"?>
<svg xmlns:ffdec="https://www.free-decompiler.com/flash" xmlns:xlink="http://www.w3.org/1999/xlink" ffdec:objectType="frame" height="40.05px" width="135.05px" xmlns="http://www.w3.org/2000/svg">
  <g transform="matrix(1.0, 0.0, 0.0, 1.0, 0.0, 0.0)">
    <use ffdec:characterId="442" height="40.05" transform="matrix(1.0, 0.0, 0.0, 1.0, 0.0, 0.0)" width="135.05" xlink:href="#shape0"/>
  </g>
  <defs>
    <g id="shape0" transform="matrix(1.0, 0.0, 0.0, 1.0, 0.0, 0.0)">
      <path d="M130.2 0.0 L131.7 0.2 133.05 0.9 134.1 1.95 134.8 3.25 135.05 4.75 135.05 35.3 134.8 36.8 134.1 38.1 133.05 39.15 131.7 39.8 130.2 40.05 4.75 40.05 3.8 39.95 2.9 39.65 1.35 38.65 Q0.7 38.0 0.35 37.15 L0.05 36.25 0.0 35.3 0.0 4.75 Q-0.05 3.95 0.2 3.25 L0.9 1.95 Q1.3 1.3 1.95 0.9 2.5 0.45 3.25 0.2 L4.75 0.0 130.2 0.0" fill="#a6a6a6" fill-rule="evenodd" stroke="none"/>
      <path d="M132.45 1.55 L133.3 2.4 133.85 3.5 134.05 4.7 134.05 35.25 133.85 36.45 133.3 37.5 132.45 38.35 131.4 38.9 130.15 39.1 4.7 39.1 3.2 38.8 1.95 37.95 1.15 36.75 Q0.85 36.05 0.85 35.25 L0.85 4.7 Q0.8 4.05 1.0 3.5 1.2 2.9 1.55 2.4 1.9 1.9 2.4 1.55 2.9 1.2 3.5 1.0 L4.7 0.85 130.15 0.85 131.4 1.0 132.45 1.55" fill="#000000" fill-rule="evenodd" stroke="none"/>
      <path d="M28.2 12.35 L28.7 12.4 29.45 12.55 30.3 12.8 31.2 13.25 32.05 13.95 32.9 14.9 32.85 14.95 32.8 15.0 32.65 15.1 32.4 15.3 Q31.95 15.6 31.45 16.2 L30.55 17.7 30.25 18.65 30.15 19.8 30.2 20.7 30.4 21.5 31.0 22.8 31.85 23.75 32.65 24.4 33.25 24.8 33.55 24.9 33.45 25.3 33.1 26.1 32.6 27.25 31.75 28.55 30.95 29.7 30.1 30.7 29.05 31.45 27.85 31.7 27.8 31.7 26.75 31.55 25.85 31.25 24.85 30.9 23.65 30.7 22.4 30.85 21.45 31.2 20.55 31.55 19.45 31.75 19.4 31.75 18.25 31.5 17.2 30.75 16.25 29.7 15.4 28.5 14.85 27.65 14.35 26.75 13.9 25.7 13.5 24.65 13.2 23.5 12.95 22.35 12.8 21.2 Q12.7 20.6 12.75 20.0 12.7 19.4 12.8 18.85 L13.0 17.7 13.3 16.65 13.8 15.6 14.8 14.3 16.05 13.3 Q16.7 12.85 17.5 12.65 L19.1 12.4 20.3 12.55 21.45 12.95 22.45 13.35 23.3 13.5 24.2 13.3 25.35 12.85 26.7 12.45 27.75 12.35 28.2 12.35" fill="#ffffff" fill-rule="evenodd" stroke="none"/>
      <path d="M27.45 6.3 L28.25 6.2 28.25 7.35 28.0 8.4 27.55 9.45 26.95 10.3 26.2 11.1 25.25 11.65 24.2 12.05 23.4 12.15 23.15 12.15 23.1 11.0 23.4 9.9 23.9 8.95 24.45 8.15 25.1 7.5 Q25.4 7.2 25.8 7.0 L26.6 6.6 27.45 6.3" fill="#ffffff" fill-rule="evenodd" stroke="none"/>
      <path d="M47.3 22.5 L46.25 25.95 49.7 25.95 48.6 22.5 48.35 21.65 47.95 20.15 47.3 22.5 M45.85 27.65 L44.65 31.55 42.4 31.55 42.4 31.5 46.65 18.2 49.35 18.2 53.7 31.5 53.65 31.55 51.4 31.55 50.1 27.65 45.85 27.65" fill="#ffffff" fill-rule="evenodd" stroke="none"/>
      <path d="M61.8 24.4 Q61.1 23.45 60.0 23.45 59.2 23.45 58.6 23.95 57.95 24.45 57.75 25.3 L57.65 25.95 57.65 27.55 57.8 28.5 58.3 29.3 Q58.9 30.0 59.95 30.0 61.1 30.0 61.8 29.1 62.45 28.15 62.45 26.65 62.4 25.25 61.8 24.4 M64.7 26.6 Q64.7 29.05 63.35 30.5 62.15 31.75 60.4 31.75 58.55 31.75 57.7 30.5 L57.65 35.4 55.5 35.45 55.45 35.4 55.45 25.05 55.45 23.5 55.4 21.9 55.4 21.85 57.3 21.85 57.45 23.3 Q58.55 21.65 60.7 21.7 62.4 21.7 63.55 23.05 64.65 24.4 64.7 26.6" fill="#ffffff" fill-rule="evenodd" stroke="none"/>
      <path d="M72.85 24.4 Q72.15 23.45 71.05 23.45 70.25 23.45 69.65 23.95 69.0 24.45 68.8 25.3 L68.7 25.95 68.7 27.55 68.85 28.5 69.35 29.3 Q69.95 30.0 71.0 30.0 72.15 30.0 72.85 29.1 73.5 28.15 73.5 26.65 73.45 25.25 72.85 24.4 M75.75 26.6 Q75.75 29.05 74.4 30.5 73.2 31.75 71.45 31.75 69.6 31.75 68.75 30.5 L68.7 35.4 66.55 35.45 66.5 35.4 66.5 25.05 66.5 23.5 66.45 21.9 66.45 21.85 68.35 21.85 68.5 23.3 Q69.6 21.65 71.75 21.7 73.45 21.7 74.6 23.05 75.7 24.4 75.75 26.6" fill="#ffffff" fill-rule="evenodd" stroke="none"/>
      <path d="M85.75 19.95 L84.4 19.8 Q83.3 19.8 82.7 20.35 82.15 20.85 82.15 21.55 82.15 22.3 82.75 22.8 L83.5 23.3 84.7 23.85 Q86.4 24.5 87.25 25.45 88.05 26.4 88.05 27.8 88.05 29.5 86.85 30.55 85.55 31.7 83.2 31.75 81.05 31.75 79.75 30.9 L80.2 29.1 80.3 29.1 Q81.65 29.9 83.35 29.9 L84.4 29.8 85.2 29.4 Q85.85 28.85 85.85 27.95 85.85 27.15 85.3 26.6 L84.6 26.1 83.5 25.6 Q79.95 24.25 79.95 21.75 79.95 20.1 81.2 19.05 82.45 17.95 84.5 18.0 86.3 17.95 87.5 18.6 L87.0 20.4 86.95 20.4 Q86.4 20.1 85.75 19.95" fill="#ffffff" fill-rule="evenodd" stroke="none"/>
      <path d="M95.05 23.55 L92.75 23.55 92.75 28.15 Q92.7 29.0 93.05 29.45 93.35 29.9 93.95 29.9 L94.9 29.8 94.95 29.85 95.0 31.45 93.3 31.75 Q92.0 31.7 91.3 30.95 90.55 30.15 90.6 28.35 L90.6 23.55 89.2 23.55 89.2 23.5 89.2 21.9 89.2 21.85 90.6 21.85 90.6 20.15 92.7 19.5 92.75 19.5 92.75 21.85 95.05 21.85 95.1 21.9 95.1 23.5 95.05 23.55" fill="#ffffff" fill-rule="evenodd" stroke="none"/>
      <path d="M102.85 24.45 Q102.15 23.3 100.95 23.3 99.7 23.3 99.05 24.45 98.75 24.9 98.6 25.5 98.45 26.05 98.45 26.75 L98.6 27.95 99.05 29.0 Q99.7 30.1 100.95 30.1 102.15 30.1 102.85 28.95 L103.25 27.9 103.4 26.7 103.25 25.45 102.85 24.45 M105.7 26.65 Q105.65 28.85 104.4 30.3 103.05 31.75 100.9 31.75 98.75 31.75 97.5 30.35 96.2 28.9 96.25 26.8 96.25 24.55 97.55 23.1 98.8 21.65 101.05 21.7 103.15 21.65 104.45 23.1 105.7 24.45 105.7 26.65" fill="#ffffff" fill-rule="evenodd" stroke="none"/>
      <path d="M112.65 23.8 L112.6 23.8 111.95 23.75 Q110.8 23.75 110.2 24.6 L109.8 25.45 109.7 26.45 109.7 31.5 109.65 31.55 107.5 31.55 107.5 31.5 107.5 24.95 107.5 23.35 107.45 21.9 109.3 21.9 109.45 23.7 Q109.75 22.75 110.5 22.2 111.2 21.65 112.05 21.7 L112.6 21.7 112.65 23.8" fill="#ffffff" fill-rule="evenodd" stroke="none"/>
      <path d="M119.65 24.05 Q119.1 23.15 118.0 23.2 116.95 23.15 116.35 24.05 115.8 24.7 115.7 25.65 L120.05 25.65 Q120.05 24.7 119.65 24.05 M122.2 26.2 L122.1 27.2 115.7 27.2 Q115.75 28.6 116.6 29.35 117.4 30.0 118.7 30.0 L120.05 29.9 121.25 29.55 121.3 29.55 121.65 31.05 120.15 31.55 118.4 31.7 Q116.15 31.65 114.85 30.35 113.6 29.0 113.6 26.8 113.55 24.6 114.75 23.2 116.0 21.65 118.15 21.65 120.25 21.65 121.3 23.2 122.15 24.4 122.2 26.2" fill="#ffffff" fill-rule="evenodd" stroke="none"/>
      <path d="M47.9 10.05 Q47.9 8.9 47.3 8.3 46.7 7.7 45.55 7.7 L44.75 7.8 44.75 12.6 45.4 12.65 Q46.6 12.65 47.25 12.0 47.85 11.3 47.9 10.05 M43.65 13.45 L43.65 7.0 44.55 6.85 45.45 6.85 Q47.2 6.8 48.1 7.6 49.05 8.45 49.05 10.05 49.05 11.8 48.0 12.7 47.0 13.55 45.2 13.55 L43.65 13.45" fill="#ffffff" fill-rule="evenodd" stroke="none"/>
      <path d="M53.5 9.95 Q53.15 9.4 52.55 9.4 51.95 9.4 51.65 9.95 51.35 10.4 51.35 11.1 51.35 11.7 51.65 12.2 L52.55 12.75 53.45 12.15 53.75 11.05 53.5 9.95 M54.9 11.05 Q54.9 12.1 54.3 12.85 53.6 13.55 52.55 13.55 51.45 13.55 50.85 12.85 50.25 12.15 50.25 11.1 50.2 10.0 50.85 9.3 51.5 8.55 52.6 8.6 53.65 8.6 54.3 9.3 54.9 9.95 54.9 11.05" fill="#ffffff" fill-rule="evenodd" stroke="none"/>
      <path d="M57.0 8.7 L57.55 10.95 57.85 12.3 58.2 10.95 58.9 8.7 59.75 8.7 60.45 10.9 60.8 12.3 61.1 10.9 61.7 8.7 62.75 8.7 62.8 8.7 61.3 13.45 60.3 13.45 59.65 11.4 59.3 10.05 58.95 11.4 58.3 13.45 57.3 13.45 55.9 8.7 57.0 8.7" fill="#ffffff" fill-rule="evenodd" stroke="none"/>
      <path d="M68.25 10.6 L68.25 13.45 68.2 13.45 67.15 13.45 67.1 13.45 67.1 10.75 66.9 9.8 Q66.65 9.5 66.2 9.5 65.75 9.5 65.45 9.85 65.15 10.15 65.2 10.65 L65.2 13.4 64.1 13.45 64.05 10.05 64.05 8.7 64.05 8.65 65.0 8.65 65.05 9.35 Q65.25 9.05 65.6 8.85 66.0 8.55 66.55 8.6 67.25 8.55 67.7 9.0 68.25 9.55 68.25 10.6" fill="#ffffff" fill-rule="evenodd" stroke="none"/>
      <path d="M71.05 6.55 L71.05 13.4 70.0 13.4 70.0 6.55 71.05 6.55" fill="#ffffff" fill-rule="evenodd" stroke="none"/>
      <path d="M75.85 9.95 Q75.5 9.4 74.9 9.4 74.3 9.4 74.0 9.95 73.7 10.4 73.7 11.1 73.7 11.7 74.0 12.2 74.3 12.7 74.9 12.75 L75.8 12.15 76.1 11.05 75.85 9.95 M77.25 11.05 Q77.25 12.1 76.65 12.85 75.95 13.55 74.9 13.55 73.8 13.55 73.2 12.85 72.6 12.15 72.6 11.1 72.55 10.0 73.2 9.3 73.85 8.55 74.95 8.6 76.0 8.6 76.65 9.3 77.25 9.95 77.25 11.05" fill="#ffffff" fill-rule="evenodd" stroke="none"/>
      <path d="M81.15 11.1 Q79.55 11.1 79.55 12.05 L79.75 12.55 80.2 12.75 80.85 12.5 81.2 12.0 81.2 11.8 81.2 11.1 81.15 11.1 M81.2 10.3 L80.95 9.65 Q80.7 9.4 80.25 9.4 79.55 9.4 79.05 9.75 L79.0 9.7 78.75 9.05 Q79.45 8.55 80.4 8.6 82.3 8.55 82.3 10.55 L82.3 12.3 82.35 13.4 82.35 13.45 81.4 13.45 81.3 12.95 Q80.75 13.55 79.9 13.55 79.2 13.55 78.8 13.15 78.4 12.7 78.45 12.15 78.4 11.25 79.15 10.8 79.5 10.55 80.0 10.45 L81.15 10.35 81.2 10.3" fill="#ffffff" fill-rule="evenodd" stroke="none"/>
      <path d="M88.25 6.55 L88.25 12.15 88.3 13.45 88.25 13.5 87.35 13.5 87.25 12.8 Q86.75 13.6 85.75 13.6 84.85 13.6 84.3 12.9 83.7 12.2 83.75 11.15 83.7 9.95 84.35 9.25 84.95 8.6 85.85 8.6 86.7 8.55 87.1 9.15 L87.15 6.55 87.2 6.55 88.25 6.55 M84.85 11.1 Q84.85 11.8 85.15 12.2 85.45 12.65 86.05 12.65 86.5 12.65 86.85 12.3 L87.15 11.45 87.15 10.65 87.1 10.35 86.75 9.75 86.05 9.5 Q85.5 9.45 85.15 9.95 84.8 10.4 84.85 11.1" fill="#ffffff" fill-rule="evenodd" stroke="none"/>
      <path d="M95.85 9.95 Q95.5 9.4 94.9 9.4 94.3 9.4 94.0 9.95 93.7 10.4 93.7 11.1 93.7 11.7 94.0 12.2 L94.9 12.75 95.8 12.15 96.1 11.05 95.85 9.95 M97.25 11.05 Q97.25 12.1 96.65 12.85 95.95 13.55 94.9 13.55 93.85 13.55 93.2 12.85 92.6 12.15 92.6 11.1 92.55 10.0 93.2 9.3 93.85 8.55 94.95 8.6 96.0 8.6 96.65 9.3 97.25 9.95 97.25 11.05" fill="#ffffff" fill-rule="evenodd" stroke="none"/>
      <path d="M102.95 10.6 L102.95 13.45 102.9 13.45 101.85 13.45 101.8 13.45 101.8 10.75 Q101.8 10.1 101.6 9.8 101.35 9.5 100.9 9.5 100.45 9.5 100.15 9.85 99.85 10.15 99.9 10.65 L99.9 13.4 98.8 13.45 98.75 10.05 98.75 8.7 98.75 8.65 99.7 8.65 99.75 9.35 100.3 8.85 Q100.7 8.55 101.25 8.6 101.95 8.55 102.4 9.0 102.95 9.55 102.95 10.6" fill="#ffffff" fill-rule="evenodd" stroke="none"/>
      <path d="M109.95 9.5 L108.8 9.5 108.8 11.75 Q108.8 12.6 109.4 12.6 L109.85 12.55 109.9 12.6 109.9 13.4 109.05 13.55 Q108.4 13.5 108.05 13.15 107.7 12.75 107.7 11.85 L107.7 9.5 107.05 9.5 107.05 9.45 107.05 8.7 107.05 8.65 107.7 8.65 107.7 7.8 108.75 7.5 108.8 7.5 108.8 8.65 109.95 8.65 109.95 8.7 109.95 9.45 109.95 9.5" fill="#ffffff" fill-rule="evenodd" stroke="none"/>
      <path d="M112.4 6.55 L112.45 6.55 112.45 9.3 Q112.95 8.6 113.85 8.6 114.5 8.6 114.95 9.05 115.45 9.55 115.5 10.65 L115.5 13.45 115.45 13.5 114.4 13.5 114.35 13.45 114.35 10.75 Q114.35 9.5 113.45 9.55 L112.85 9.7 Q112.6 9.85 112.5 10.25 L112.45 10.6 112.45 13.45 112.4 13.45 111.35 13.45 111.35 6.55 112.4 6.55" fill="#ffffff" fill-rule="evenodd" stroke="none"/>
      <path d="M119.65 9.5 L119.15 9.35 Q118.65 9.35 118.35 9.8 L118.05 10.55 120.15 10.55 119.95 9.8 119.65 9.5 M121.2 11.35 L118.05 11.35 Q118.1 12.0 118.5 12.35 L119.5 12.7 120.75 12.45 120.8 12.5 121.0 13.2 120.2 13.5 119.35 13.55 Q118.25 13.55 117.6 12.9 116.95 12.2 117.0 11.15 L117.1 10.15 Q117.25 9.7 117.55 9.35 118.15 8.55 119.25 8.6 120.25 8.55 120.8 9.35 121.25 9.95 121.25 10.85 L121.2 11.35" fill="#ffffff" fill-rule="evenodd" stroke="none"/>
    </g>
  </defs>
</svg>
