<?xml version="1.0" encoding="UTF-8" standalone="no"?>
<svg xmlns:ffdec="https://www.free-decompiler.com/flash" xmlns:xlink="http://www.w3.org/1999/xlink" ffdec:objectType="frame" height="18.0px" width="26.0px" xmlns="http://www.w3.org/2000/svg">
  <g transform="matrix(1.0, 0.0, 0.0, 1.0, 13.0, 0.0)">
    <use ffdec:characterId="992" height="18.0" transform="matrix(1.0, 0.0, 0.0, 1.0, -13.0, 0.0)" width="26.0" xlink:href="#shape0"/>
  </g>
  <defs>
    <g id="shape0" transform="matrix(1.0, 0.0, 0.0, 1.0, 13.0, 0.0)">
      <path d="M-2.5 18.0 L-5.75 18.0 -5.75 2.0 -6.75 2.0 -7.85 2.0 -13.0 2.0 -13.0 0.0 13.0 0.0 13.0 2.0 -1.9 2.0 -2.5 2.0 -2.5 18.0" fill="#727b7e" fill-rule="evenodd" stroke="none"/>
      <path d="M-5.75 18.0 L-6.75 18.0 -6.75 2.0 -5.75 2.0 -5.75 18.0" fill="#888f94" fill-rule="evenodd" stroke="none"/>
      <path d="M-6.75 18.0 L-7.85 18.0 -7.85 2.0 -6.75 2.0 -6.75 18.0" fill="#a0a7ae" fill-rule="evenodd" stroke="none"/>
      <path d="M-1.9 18.0 L-2.5 18.0 -2.5 2.0 -1.9 2.0 -1.9 18.0 M-7.85 18.0 L-13.0 18.0 -13.0 2.0 -7.85 2.0 -7.85 18.0" fill="#b8bdc6" fill-rule="evenodd" stroke="none"/>
      <path d="M13.0 2.0 L13.0 18.0 -1.9 18.0 -1.9 2.0 13.0 2.0" fill="#eceefa" fill-rule="evenodd" stroke="none"/>
    </g>
  </defs>
</svg>
