<?xml version="1.0" encoding="UTF-8" standalone="no"?>
<svg xmlns:ffdec="https://www.free-decompiler.com/flash" xmlns:xlink="http://www.w3.org/1999/xlink" ffdec:objectType="frame" height="244.45px" width="112.25px" xmlns="http://www.w3.org/2000/svg">
  <g transform="matrix(1.0, 0.0, 0.0, 1.0, 54.9, 183.3)">
    <use ffdec:characterId="1706" height="113.4" transform="matrix(1.0, 0.0, 0.0, 1.0, -48.65, -53.15)" width="99.45" xlink:href="#shape0"/>
    <use ffdec:characterId="1081" height="100.0" id="shape" transform="matrix(0.8504, 0.0, 0.0, 0.95, -42.5186, -47.5014)" width="100.0" xlink:href="#sprite0"/>
    <use ffdec:characterId="1707" height="0.0" id="spineRef" transform="matrix(1.0, 0.0, 0.0, 1.0, 4.6, -55.2)" width="0.0" xlink:href="#sprite1"/>
  </g>
  <defs>
    <g id="shape0" transform="matrix(1.0, 0.0, 0.0, 1.0, 48.65, 53.15)">
      <path d="M-36.7 -0.65 L-36.75 -0.65 -37.05 -0.75 -36.7 -0.65" fill="#702f2f" fill-rule="evenodd" stroke="none"/>
      <path d="M46.55 24.45 L45.85 24.5 45.75 24.55 45.2 24.5 45.05 24.5 44.7 24.5 43.05 24.0 40.25 23.55 Q41.4 17.8 40.45 17.25 38.9 22.4 36.05 22.45 37.6 21.35 39.1 18.95 40.55 16.5 35.1 12.25 29.6 8.0 26.25 9.75 22.85 11.45 21.0 11.25 19.15 11.0 15.25 9.45 19.15 10.45 21.85 8.0 L23.25 6.35 28.1 1.6 Q30.4 -0.8 30.75 -3.95 29.55 -3.35 26.7 -2.8 27.65 -7.35 26.65 -9.45 25.45 -12.05 20.65 -15.55 15.85 -19.05 14.4 -24.9 L14.35 -25.45 Q13.75 -32.4 9.3 -36.4 4.85 -40.4 -1.9 -40.45 -8.35 -40.5 -13.15 -37.05 -19.0 -34.2 -22.75 -28.7 -26.55 -23.2 -28.15 -12.05 L-28.1 -12.05 -29.65 -8.95 -31.3 -6.05 -33.05 -3.85 -31.3 -5.2 -30.95 -5.5 -27.1 -8.6 Q-28.15 -1.0 -28.25 4.9 -27.3 4.65 -29.0 6.75 -30.35 8.4 -31.3 8.65 L-31.8 8.65 -31.8 8.75 -31.3 9.25 -28.7 10.8 Q-26.0 12.15 -24.9 12.35 -23.9 12.55 -24.55 12.6 L-31.3 11.6 -31.4 11.55 -34.8 11.25 Q-37.7 11.25 -39.65 12.45 L-40.8 13.3 Q-43.95 16.15 -43.65 17.75 -43.4 19.35 -42.8 19.95 L-43.2 20.05 -43.7 20.2 -44.75 20.05 -45.2 19.95 -46.15 19.5 -46.35 18.0 Q-46.35 15.15 -43.8 12.45 L-43.55 12.2 -40.9 9.55 -38.7 8.4 -37.0 6.45 -36.45 5.9 -35.35 4.05 Q-34.75 2.6 -34.3 0.75 L-34.25 -1.35 Q-34.35 0.5 -35.35 2.2 -36.5 3.85 -37.75 4.5 L-40.85 6.1 -40.75 1.55 Q-40.7 -1.8 -40.25 -3.8 -40.25 -4.6 -39.7 -6.05 -38.7 -8.9 -35.65 -14.2 L-32.85 -19.45 Q-31.7 -25.2 -30.7 -27.9 -27.7 -35.8 -21.1 -41.6 -25.25 -37.7 -24.95 -32.9 -24.3 -35.75 -21.75 -38.0 -19.2 -40.25 -17.75 -40.55 -16.3 -40.8 -15.95 -41.0 -13.45 -42.1 -7.15 -43.25 L1.85 -43.25 Q10.55 -42.1 16.05 -37.85 18.05 -35.5 19.55 -32.75 21.55 -29.05 22.25 -25.6 23.15 -23.8 25.5 -21.7 L30.4 -17.0 31.7 -14.85 33.0 -11.2 Q33.85 -8.6 34.35 -7.9 L34.35 -7.75 34.7 -6.25 32.55 -1.65 Q30.7 2.1 34.25 1.85 37.8 1.6 42.4 10.8 47.45 14.85 47.9 17.7 49.0 18.8 48.95 20.4 L48.95 21.2 48.1 23.4 47.45 23.95 46.55 24.45 M45.75 35.0 L47.6 35.95 48.85 36.95 49.1 39.75 Q49.1 41.65 48.7 42.8 48.25 44.0 48.25 45.2 L48.25 45.25 48.65 46.55 47.05 45.45 46.55 45.3 Q46.65 44.6 47.05 43.85 48.0 42.0 48.0 41.25 48.0 40.0 46.4 38.65 45.0 37.45 43.5 37.0 42.2 36.6 40.4 35.1 L40.2 34.95 41.35 34.95 44.05 35.05 45.75 35.0 M-46.5 40.6 L-46.7 37.95 -46.15 36.55 -45.0 34.1 Q-44.7 33.2 -42.75 32.4 -41.1 31.75 -40.35 31.2 L-39.25 31.25 -20.0 31.5 -18.0 31.55 -15.75 31.35 -15.3 31.35 -18.15 32.15 Q-22.35 33.15 -25.85 33.15 L-31.3 32.85 -34.6 32.65 -34.8 32.65 Q-36.55 32.7 -38.3 33.3 L-40.25 34.15 -40.7 34.4 -40.75 34.6 -41.45 37.25 Q-41.75 38.1 -41.75 40.25 L-43.4 40.1 -45.35 40.2 -45.4 40.25 -46.5 40.6 M26.1 33.5 L29.05 33.7 31.4 34.85 Q34.3 36.3 36.75 38.25 L36.5 38.25 Q30.75 35.4 26.1 33.5 M3.0 5.7 Q4.6 5.65 5.8 6.55 L-8.5 10.3 -18.05 9.9 Q-15.15 9.85 -10.15 8.75 L-9.85 8.7 Q-8.05 7.7 -6.0 6.8 -1.75 5.05 3.0 5.7 M-36.7 -0.65 L-37.05 -0.75 -36.75 -0.65 -36.7 -0.65 M-43.4 2.4 L-43.55 2.55 -43.55 2.4 -43.4 2.4" fill="#ad4949" fill-rule="evenodd" stroke="none"/>
      <path d="M-16.2 -49.7 Q-14.95 -51.3 -13.0 -52.15 -10.15 -53.5 -6.85 -53.05 L3.25 -51.55 7.8 -50.75 Q9.4 -50.5 10.85 -49.75 L13.2 -48.25 Q14.8 -46.95 15.2 -44.85 L18.9 -41.6 Q22.25 -38.35 24.75 -34.3 L29.5 -26.75 Q31.85 -23.05 33.6 -19.2 32.0 -20.35 30.95 -22.05 30.15 -23.35 29.6 -24.85 L28.55 -26.9 26.5 -29.75 20.55 -37.45 16.55 -42.3 13.25 -45.9 11.5 -45.65 11.25 -47.65 10.75 -47.65 9.75 -47.15 8.9 -48.5 5.1 -49.9 4.1 -49.2 -2.6 -49.4 -5.75 -50.15 -6.05 -50.85 -7.85 -50.15 -9.35 -50.75 -10.75 -51.05 Q-13.55 -50.65 -16.2 -49.7 M38.35 -6.0 L42.0 -2.2 Q44.85 1.25 45.9 4.55 46.95 7.85 47.5 8.95 50.7 13.15 50.8 18.1 L50.7 19.0 50.25 17.15 Q49.3 12.55 46.25 8.95 L45.7 7.3 44.65 3.8 Q43.9 1.8 43.0 0.35 42.05 -1.15 40.35 -2.8 38.6 -4.5 38.35 -6.0 M48.65 46.55 L49.65 48.1 49.6 49.3 49.4 50.6 49.35 50.85 49.2 51.55 48.75 53.0 48.55 53.65 48.6 55.4 Q48.6 57.05 47.55 58.05 L46.35 55.8 Q45.6 54.5 44.0 55.0 L44.0 54.15 42.7 53.45 44.65 53.05 44.75 54.0 45.25 54.0 48.0 50.75 46.5 48.75 46.8 49.45 47.0 50.75 46.7 50.6 45.95 50.55 44.2 51.15 45.0 49.0 44.4 48.3 41.6 49.05 41.15 48.85 41.2 48.05 Q38.2 45.05 34.15 47.2 L33.1 46.65 Q28.65 47.1 25.3 44.8 L40.7 45.85 42.35 45.85 44.2 45.55 45.95 45.25 46.0 45.25 46.55 45.3 47.05 45.45 48.65 46.55 M-47.05 55.15 Q-47.8 54.45 -48.2 53.4 L-48.35 52.0 -48.55 50.25 -48.4 46.85 -48.6 44.7 -48.65 43.6 Q-48.6 42.4 -47.65 41.4 L-47.6 41.35 -47.0 40.9 -46.75 40.75 -46.5 40.6 -45.4 40.25 -45.35 40.2 -43.4 40.1 -41.75 40.25 -41.25 40.35 -38.3 40.45 -36.65 40.55 -34.8 40.7 -31.8 41.1 -31.3 41.2 -25.25 42.25 -24.0 42.25 Q-27.95 44.5 -32.6 42.15 L-34.05 41.8 -34.5 42.75 -32.75 43.5 -32.85 44.0 -37.0 43.75 -36.25 42.75 Q-37.75 41.6 -39.55 41.6 L-41.0 43.05 -39.75 43.9 -40.7 44.65 -40.95 45.4 Q-41.65 46.0 -42.5 46.2 L-43.45 46.1 -43.5 44.9 -41.75 42.9 -41.3 42.95 -41.95 42.1 Q-44.1 41.75 -46.0 42.75 L-46.15 45.8 -45.75 46.35 Q-45.55 47.55 -46.35 48.6 L-47.0 49.25 -47.0 51.0 -45.75 49.75 -45.0 49.75 Q-45.05 48.9 -44.7 48.15 L-44.25 47.45 -43.2 47.5 -43.6 50.05 -45.0 50.1 -46.1 51.25 -45.8 53.05 -47.05 55.15" fill="#fff9d4" fill-rule="evenodd" stroke="none"/>
      <path d="M-16.2 -49.7 Q-13.55 -50.65 -10.75 -51.05 L-9.35 -50.75 -7.85 -50.15 -6.05 -50.85 -5.75 -50.15 -2.6 -49.4 4.1 -49.2 5.1 -49.9 8.9 -48.5 9.75 -47.15 10.75 -47.65 11.25 -47.65 11.5 -45.65 13.25 -45.9 16.55 -42.3 20.55 -37.45 26.5 -29.75 28.55 -26.9 29.6 -24.85 Q30.15 -23.35 30.95 -22.05 32.0 -20.35 33.6 -19.2 L35.5 -15.5 Q36.3 -13.95 37.0 -10.65 L37.25 -9.15 37.65 -7.0 38.35 -6.0 Q38.6 -4.5 40.35 -2.8 42.05 -1.15 43.0 0.35 43.9 1.8 44.65 3.8 L45.7 7.3 46.25 8.95 Q49.3 12.55 50.25 17.15 L50.7 19.0 Q50.85 20.55 50.1 22.0 L48.75 23.7 47.35 24.35 46.55 24.45 47.45 23.95 48.1 23.4 48.95 21.2 Q49.45 19.9 49.3 18.75 L49.05 17.2 48.75 15.7 Q48.0 12.75 44.85 8.95 L44.0 6.45 Q43.45 4.55 41.5 0.95 39.5 -2.65 34.7 -6.25 L34.35 -7.75 34.35 -7.9 34.2 -10.15 33.8 -12.45 Q32.7 -18.25 29.7 -22.55 26.7 -26.8 23.05 -32.5 19.4 -38.25 17.5 -40.25 L13.6 -43.5 Q2.4 -48.1 -9.6 -47.85 L-17.55 -47.05 -16.2 -49.7 M45.85 24.5 L46.1 24.6 46.05 24.6 45.9 24.6 45.8 24.55 45.85 24.5 M47.55 58.05 L47.25 58.3 Q43.05 60.25 40.0 57.8 L39.25 57.75 39.25 59.25 38.75 59.25 37.75 58.5 37.45 59.0 36.0 59.1 35.8 58.55 35.15 57.5 34.4 56.75 37.0 56.25 35.65 53.85 37.05 54.1 38.8 53.1 38.65 52.05 38.15 51.85 35.2 53.2 31.0 53.0 31.1 52.25 30.6 51.9 27.6 51.85 26.25 53.25 25.3 50.3 26.0 50.35 26.15 49.9 29.05 50.3 30.0 49.65 Q29.4 48.15 27.95 47.5 L25.9 47.6 25.25 46.75 24.25 47.0 24.6 47.5 24.9 48.0 25.1 48.8 25.0 49.55 22.0 49.5 19.9 47.4 18.75 47.5 22.25 47.0 Q21.7 46.55 21.1 46.4 L13.45 43.25 25.3 44.8 Q28.65 47.1 33.1 46.65 L34.15 47.2 Q38.2 45.05 41.2 48.05 L41.15 48.85 41.6 49.05 44.4 48.3 45.0 49.0 44.2 51.15 45.95 50.55 46.7 50.6 47.0 50.75 46.8 49.45 46.5 48.75 48.0 50.75 45.25 54.0 44.75 54.0 44.65 53.05 42.7 53.45 44.0 54.15 44.0 55.0 Q45.6 54.5 46.35 55.8 L47.55 58.05 M-45.5 56.05 L-47.05 55.15 -45.8 53.05 -46.1 51.25 -45.0 50.1 -43.6 50.05 -43.2 47.5 -44.25 47.45 -44.7 48.15 Q-45.05 48.9 -45.0 49.75 L-45.75 49.75 -47.0 51.0 -47.0 49.25 -46.35 48.6 Q-45.55 47.55 -45.75 46.35 L-46.15 45.8 -46.0 42.75 Q-44.1 41.75 -41.95 42.1 L-41.3 42.95 -41.75 42.9 -43.5 44.9 -43.45 46.1 -42.5 46.2 Q-41.65 46.0 -40.95 45.4 L-40.7 44.65 -39.75 43.9 -41.0 43.05 -39.55 41.6 Q-37.75 41.6 -36.25 42.75 L-37.0 43.75 -32.85 44.0 -32.75 43.5 -34.5 42.75 -34.05 41.8 -32.6 42.15 Q-27.95 44.5 -24.0 42.25 L-4.05 43.15 Q-5.35 44.25 -7.25 43.95 L-9.5 43.25 -11.35 44.5 -15.25 43.55 -16.5 44.75 -18.15 43.8 Q-20.65 42.15 -23.0 43.75 L-21.5 44.25 -23.0 44.5 -23.15 45.3 -21.5 47.25 -21.5 49.0 -22.0 49.0 -23.35 47.6 Q-24.35 46.7 -25.6 47.15 L-25.55 45.45 -26.25 45.0 -27.2 45.15 -29.5 46.25 -26.0 47.25 -27.0 48.0 -27.0 49.75 -27.75 49.75 -30.25 48.25 -32.6 49.45 -35.15 47.8 -36.35 48.3 Q-37.0 48.7 -37.5 49.25 L-38.0 50.2 -36.0 51.25 -36.25 52.6 -37.7 53.35 -38.35 53.8 -38.75 54.1 -39.05 54.15 Q-42.4 54.5 -45.5 56.05 M13.35 46.0 L7.6 45.15 Q10.1 42.5 13.35 46.0 M23.4 53.8 L17.35 50.75 19.4 49.9 Q20.25 50.2 21.1 50.65 L21.85 51.15 Q23.1 52.15 23.55 53.65 L23.4 53.8 M15.0 53.3 L15.0 53.65 Q13.5 53.45 13.35 52.2 L13.4 52.05 Q14.55 52.25 15.0 53.3 M-16.75 46.15 L-15.45 45.95 Q-14.75 46.75 -15.1 47.8 L-15.4 48.4 -16.65 48.15 -16.65 49.35 -18.85 49.65 -19.55 48.6 -16.75 46.15 M-10.3 45.1 L-10.0 45.35 -9.8 45.9 Q-11.0 47.2 -12.75 46.6 L-12.55 45.35 Q-11.6 44.6 -10.3 45.1 M-6.1 44.65 Q-3.5 43.45 -1.05 45.15 L-0.4 45.65 -1.9 45.8 -2.5 45.15 -6.2 45.65 -6.1 44.65 M-41.15 53.1 L-40.9 53.7 -40.3 53.9 Q-39.95 53.9 -39.7 53.7 L-39.45 53.1 Q-39.45 52.75 -39.7 52.55 -39.95 52.3 -40.3 52.3 L-40.9 52.55 -41.15 53.1 M-31.55 52.75 L-35.5 52.65 Q-34.9 51.2 -33.35 50.75 -30.95 49.95 -30.15 52.1 L-31.25 51.85 -31.55 52.75" fill="#cec9ab" fill-rule="evenodd" stroke="none"/>
      <path d="M-46.7 37.95 L-46.75 37.3 -46.55 34.2 -45.7 32.55 Q-44.75 31.1 -43.45 31.05 L-43.4 31.05 -40.35 31.2 Q-41.1 31.75 -42.75 32.4 -44.7 33.2 -45.0 34.1 L-46.15 36.55 -46.7 37.95 M-46.15 19.5 L-46.3 19.45 -47.1 18.05 -47.25 17.5 -47.2 16.35 -46.95 14.7 -46.6 13.5 -46.6 12.55 -46.6 12.45 -46.7 7.35 -46.75 6.45 -46.75 6.25 Q-46.75 2.55 -45.75 -1.5 L-44.8 -6.05 Q-42.55 -14.7 -37.25 -22.65 -35.7 -24.95 -33.55 -30.15 -31.4 -35.3 -29.7 -37.85 -25.7 -43.7 -17.55 -47.05 L-9.6 -47.85 Q2.4 -48.1 13.6 -43.5 L17.5 -40.25 Q19.4 -38.25 23.05 -32.5 26.7 -26.8 29.7 -22.55 32.7 -18.25 33.8 -12.45 L34.2 -10.15 34.35 -7.9 Q33.85 -8.6 33.0 -11.2 L31.7 -14.85 30.4 -17.0 25.5 -21.7 Q23.15 -23.8 22.25 -25.6 21.55 -29.05 19.55 -32.75 18.05 -35.5 16.05 -37.85 10.55 -42.1 1.85 -43.25 L-7.15 -43.25 Q-13.45 -42.1 -15.95 -41.0 -16.3 -40.8 -17.75 -40.55 -19.2 -40.25 -21.75 -38.0 -24.3 -35.75 -24.95 -32.9 -25.25 -37.7 -21.1 -41.6 -27.7 -35.8 -30.7 -27.9 -31.7 -25.2 -32.85 -19.45 L-35.65 -14.2 Q-38.7 -8.9 -39.7 -6.05 -40.25 -4.6 -40.25 -3.8 -40.7 -1.8 -40.75 1.55 L-40.85 6.1 -37.75 4.5 Q-36.5 3.85 -35.35 2.2 -34.35 0.5 -34.25 -1.35 L-34.3 0.75 Q-34.75 2.6 -35.35 4.05 L-36.45 5.9 -37.0 6.45 -38.7 8.4 -40.9 9.55 -43.55 12.2 -43.8 12.45 Q-46.35 15.15 -46.35 18.0 L-46.15 19.5 M34.7 -6.25 Q39.5 -2.65 41.5 0.95 43.45 4.55 44.0 6.45 L44.85 8.95 Q48.0 12.75 48.75 15.7 L49.05 17.2 49.3 18.75 Q49.45 19.9 48.95 21.2 L48.95 20.4 Q49.0 18.8 47.9 17.7 47.45 14.85 42.4 10.8 37.8 1.6 34.25 1.85 30.7 2.1 32.55 -1.65 L34.7 -6.25 M-43.4 2.4 L-43.55 2.4 -43.55 2.55 -43.4 2.4" fill="#e98d8d" fill-rule="evenodd" stroke="none"/>
      <path d="M47.25 58.3 L46.7 58.65 Q44.0 60.25 37.25 60.25 L35.5 60.25 24.65 59.6 15.4 58.6 8.0 58.5 -31.3 56.0 -34.8 55.85 -37.85 55.75 -38.3 55.8 -43.35 56.35 -45.5 56.05 Q-42.4 54.5 -39.05 54.15 L-38.75 54.1 -38.35 53.8 -37.7 53.35 -36.25 52.6 -36.0 51.25 -38.0 50.2 -37.5 49.25 Q-37.0 48.7 -36.35 48.3 L-35.15 47.8 -32.6 49.45 -30.25 48.25 -27.75 49.75 -27.0 49.75 -27.0 48.0 -26.0 47.25 -29.5 46.25 -27.2 45.15 -26.25 45.0 -25.55 45.45 -25.6 47.15 Q-24.35 46.7 -23.35 47.6 L-22.0 49.0 -21.5 49.0 -21.5 47.25 -23.15 45.3 -23.0 44.5 -21.5 44.25 -23.0 43.75 Q-20.65 42.15 -18.15 43.8 L-16.5 44.75 -15.25 43.55 -11.35 44.5 -9.5 43.25 -7.25 43.95 Q-5.35 44.25 -4.05 43.15 L-3.2 43.35 -0.5 43.2 1.3 42.95 7.0 42.5 13.45 43.25 21.1 46.4 Q21.7 46.55 22.25 47.0 L18.75 47.5 19.9 47.4 22.0 49.5 25.0 49.55 25.1 48.8 24.9 48.0 24.6 47.5 24.25 47.0 25.25 46.75 25.9 47.6 27.95 47.5 Q29.4 48.15 30.0 49.65 L29.05 50.3 26.15 49.9 26.0 50.35 25.3 50.3 26.25 53.25 27.6 51.85 30.6 51.9 31.1 52.25 31.0 53.0 35.2 53.2 38.15 51.85 38.65 52.05 38.8 53.1 37.05 54.1 35.65 53.85 37.0 56.25 34.4 56.75 35.15 57.5 35.8 58.55 36.0 59.1 37.45 59.0 37.75 58.5 38.75 59.25 39.25 59.25 39.25 57.75 40.0 57.8 Q43.05 60.25 47.25 58.3 M13.35 46.0 Q10.1 42.5 7.6 45.15 L13.35 46.0 M15.0 53.3 Q14.55 52.25 13.4 52.05 L13.35 52.2 Q13.5 53.45 15.0 53.65 L15.0 53.3 M23.4 53.8 L23.55 53.65 Q23.1 52.15 21.85 51.15 L21.1 50.65 Q20.25 50.2 19.4 49.9 L17.35 50.75 23.4 53.8 M-6.1 44.65 L-6.2 45.65 -2.5 45.15 -1.9 45.8 -0.4 45.65 -1.05 45.15 Q-3.5 43.45 -6.1 44.65 M-10.3 45.1 Q-11.6 44.6 -12.55 45.35 L-12.75 46.6 Q-11.0 47.2 -9.8 45.9 L-10.0 45.35 -10.3 45.1 M-16.75 46.15 L-19.55 48.6 -18.85 49.65 -16.65 49.35 -16.65 48.15 -15.4 48.4 -15.1 47.8 Q-14.75 46.75 -15.45 45.95 L-16.75 46.15 M-41.15 53.1 L-40.9 52.55 -40.3 52.3 Q-39.95 52.3 -39.7 52.55 -39.45 52.75 -39.45 53.1 L-39.7 53.7 Q-39.95 53.9 -40.3 53.9 L-40.9 53.7 -41.15 53.1 M-31.55 52.75 L-31.25 51.85 -30.15 52.1 Q-30.95 49.95 -33.35 50.75 -34.9 51.2 -35.5 52.65 L-31.55 52.75" fill="#9c9982" fill-rule="evenodd" stroke="none"/>
      <path d="M-42.8 19.95 Q-43.4 19.35 -43.65 17.75 -43.95 16.15 -40.8 13.3 L-39.65 12.45 Q-37.7 11.25 -34.8 11.25 L-31.4 11.55 -31.3 11.6 -24.55 12.6 Q-23.9 12.55 -24.9 12.35 -26.0 12.15 -28.7 10.8 L-31.3 9.25 -31.8 8.75 -31.8 8.65 -31.3 8.65 Q-30.35 8.4 -29.0 6.75 -27.3 4.65 -28.25 4.9 -28.15 -1.0 -27.1 -8.6 L-30.95 -5.5 -31.3 -5.2 -33.05 -3.85 -31.3 -6.05 -29.65 -8.95 -28.1 -12.05 -28.15 -12.05 Q-26.55 -23.2 -22.75 -28.7 -19.0 -34.2 -13.15 -37.05 -8.35 -40.5 -1.9 -40.45 4.85 -40.4 9.3 -36.4 13.75 -32.4 14.35 -25.45 L14.4 -24.9 Q15.85 -19.05 20.65 -15.55 25.45 -12.05 26.65 -9.45 27.65 -7.35 26.7 -2.8 29.55 -3.35 30.75 -3.95 30.4 -0.8 28.1 1.6 L23.25 6.35 21.85 8.0 Q19.15 10.45 15.25 9.45 19.15 11.0 21.0 11.25 22.85 11.45 26.25 9.75 29.6 8.0 35.1 12.25 40.55 16.5 39.1 18.95 37.6 21.35 36.05 22.45 38.9 22.4 40.45 17.25 41.4 17.8 40.25 23.55 L34.25 23.35 25.2 23.95 Q20.45 24.4 11.5 23.8 -8.05 23.1 -31.3 20.55 L-33.75 20.25 -34.8 20.2 -34.9 20.2 -38.3 20.05 -41.25 19.85 -41.3 19.85 -42.25 19.8 -42.8 19.95 M40.2 34.95 L40.4 35.1 Q42.2 36.6 43.5 37.0 45.0 37.45 46.4 38.65 48.0 40.0 48.0 41.25 48.0 42.0 47.05 43.85 46.65 44.6 46.55 45.3 L46.0 45.25 45.95 45.25 44.2 45.55 42.35 45.85 40.7 45.85 25.3 44.8 13.45 43.25 7.0 42.5 1.3 42.95 -0.5 43.2 -3.2 43.35 -4.05 43.15 -24.0 42.25 -25.25 42.25 -31.3 41.2 -31.8 41.1 -34.8 40.7 -36.65 40.55 -38.3 40.45 -41.25 40.35 -41.75 40.25 Q-41.75 38.1 -41.45 37.25 L-40.75 34.6 -40.7 34.4 -40.25 34.15 -38.3 33.3 Q-36.55 32.7 -34.8 32.65 L-34.6 32.65 -31.3 32.85 -25.85 33.15 Q-22.35 33.15 -18.15 32.15 L-15.3 31.35 -9.8 31.6 Q-4.6 32.0 -0.1 31.85 L12.1 32.65 25.95 33.5 26.1 33.5 Q30.75 35.4 36.5 38.25 L36.75 38.25 Q34.3 36.3 31.4 34.85 L29.05 33.7 35.5 34.25 40.2 34.95 M3.0 5.7 Q-1.75 5.05 -6.0 6.8 -8.05 7.7 -9.85 8.7 L-10.15 8.75 Q-15.15 9.85 -18.05 9.9 L-8.5 10.3 5.8 6.55 Q4.6 5.65 3.0 5.7" fill="#8e3c3c" fill-rule="evenodd" stroke="none"/>
      <path d="M45.9 24.6 L45.9 24.65 46.1 28.85 45.85 33.85 Q41.85 32.55 37.5 32.5 40.35 31.75 44.5 31.75 44.4 29.15 41.5 29.45 L36.25 29.75 36.5 29.75 40.7 28.65 Q43.25 28.05 43.25 26.35 L43.2 24.5 43.05 24.0 44.7 24.5 45.05 24.5 45.2 24.5 45.75 24.55 45.85 24.5 45.8 24.55 45.9 24.6 M-43.4 31.05 L-43.7 20.2 -43.2 20.05 -42.8 19.95 -42.25 19.8 -41.3 19.85 -41.25 19.85 -41.5 21.5 Q-41.5 22.5 -40.95 22.6 -40.3 22.8 -40.0 24.0 L-31.9 25.5 -36.2 25.5 Q-40.5 25.5 -40.5 27.5 L-39.85 29.25 Q-39.35 30.2 -39.25 31.25 L-40.35 31.2 -43.4 31.05" fill="#333333" fill-rule="evenodd" stroke="none"/>
      <path d="M45.85 33.85 L45.75 35.0 44.05 35.05 41.35 34.95 40.2 34.95 35.5 34.25 29.05 33.7 26.1 33.5 25.95 33.5 12.1 32.65 -0.1 31.85 Q-4.6 32.0 -9.8 31.6 L-15.3 31.35 -15.75 31.35 -18.0 31.55 -20.0 31.5 -39.25 31.25 Q-39.35 30.2 -39.85 29.25 L-40.5 27.5 Q-40.5 25.5 -36.2 25.5 L-31.9 25.5 -40.0 24.0 Q-40.3 22.8 -40.95 22.6 -41.5 22.5 -41.5 21.5 L-41.25 19.85 -38.3 20.05 -34.9 20.2 -34.8 20.2 -33.75 20.25 -31.3 20.55 Q-8.05 23.1 11.5 23.8 20.45 24.4 25.2 23.95 L34.25 23.35 40.25 23.55 43.05 24.0 43.2 24.5 43.25 26.35 Q43.25 28.05 40.7 28.65 L36.5 29.75 36.25 29.75 41.5 29.45 Q44.4 29.15 44.5 31.75 40.35 31.75 37.5 32.5 41.85 32.55 45.85 33.85" fill="#222222" fill-rule="evenodd" stroke="none"/>
    </g>
    <g id="sprite0" transform="matrix(1.0, 0.0, 0.0, 1.0, 50.0, 50.0)">
      <use ffdec:characterId="1080" height="100.0" transform="matrix(1.0, 0.0, 0.0, 1.0, -50.0, -50.0)" width="100.0" xlink:href="#shape1"/>
    </g>
    <g id="shape1" transform="matrix(1.0, 0.0, 0.0, 1.0, 50.0, 50.0)">
      <path d="M50.0 50.0 L-50.0 50.0 -50.0 -50.0 50.0 -50.0 50.0 50.0 Z" fill="none" stroke="#9900ff" stroke-linecap="round" stroke-linejoin="round" stroke-width="0.05"/>
    </g>
  </defs>
</svg>
