<?xml version="1.0" encoding="UTF-8" standalone="no"?>
<svg xmlns:ffdec="https://www.free-decompiler.com/flash" xmlns:xlink="http://www.w3.org/1999/xlink" ffdec:objectType="frame" height="244.45px" width="112.25px" xmlns="http://www.w3.org/2000/svg">
  <g transform="matrix(1.0, 0.0, 0.0, 1.0, 54.9, 183.3)">
    <use ffdec:characterId="1706" height="113.4" transform="matrix(1.0, 0.0, 0.0, 1.0, -48.65, -53.15)" width="99.45" xlink:href="#shape0"/>
    <use ffdec:characterId="1711" height="49.9" id="wound" transform="matrix(1.0, 0.0, 0.0, 1.0, -25.2, -47.1)" width="46.5" xlink:href="#sprite0"/>
    <use ffdec:characterId="1707" height="0.0" id="spineRef" transform="matrix(1.0, 0.0, 0.0, 1.0, 4.6, -55.2)" width="0.0" xlink:href="#sprite1"/>
  </g>
  <defs>
    <g id="shape0" transform="matrix(1.0, 0.0, 0.0, 1.0, 48.65, 53.15)">
      <path d="M-36.7 -0.65 L-36.75 -0.65 -37.05 -0.75 -36.7 -0.65" fill="#702f2f" fill-rule="evenodd" stroke="none"/>
      <path d="M46.55 24.45 L45.85 24.5 45.75 24.55 45.2 24.5 45.05 24.5 44.7 24.5 43.05 24.0 40.25 23.55 Q41.4 17.8 40.45 17.25 38.9 22.4 36.05 22.45 37.6 21.35 39.1 18.95 40.55 16.5 35.1 12.25 29.6 8.0 26.25 9.75 22.85 11.45 21.0 11.25 19.15 11.0 15.25 9.45 19.15 10.45 21.85 8.0 L23.25 6.35 28.1 1.6 Q30.4 -0.8 30.75 -3.95 29.55 -3.35 26.7 -2.8 27.65 -7.35 26.65 -9.45 25.45 -12.05 20.65 -15.55 15.85 -19.05 14.4 -24.9 L14.35 -25.45 Q13.75 -32.4 9.3 -36.4 4.85 -40.4 -1.9 -40.45 -8.35 -40.5 -13.15 -37.05 -19.0 -34.2 -22.75 -28.7 -26.55 -23.2 -28.15 -12.05 L-28.1 -12.05 -29.65 -8.95 -31.3 -6.05 -33.05 -3.85 -31.3 -5.2 -30.95 -5.5 -27.1 -8.6 Q-28.15 -1.0 -28.25 4.9 -27.3 4.65 -29.0 6.75 -30.35 8.4 -31.3 8.65 L-31.8 8.65 -31.8 8.75 -31.3 9.25 -28.7 10.8 Q-26.0 12.15 -24.9 12.35 -23.9 12.55 -24.55 12.6 L-31.3 11.6 -31.4 11.55 -34.8 11.25 Q-37.7 11.25 -39.65 12.45 L-40.8 13.3 Q-43.95 16.15 -43.65 17.75 -43.4 19.35 -42.8 19.95 L-43.2 20.05 -43.7 20.2 -44.75 20.05 -45.2 19.95 -46.15 19.5 -46.35 18.0 Q-46.35 15.15 -43.8 12.45 L-43.55 12.2 -40.9 9.55 -38.7 8.4 -37.0 6.45 -36.45 5.9 -35.35 4.05 Q-34.75 2.6 -34.3 0.75 L-34.25 -1.35 Q-34.35 0.5 -35.35 2.2 -36.5 3.85 -37.75 4.5 L-40.85 6.1 -40.75 1.55 Q-40.7 -1.8 -40.25 -3.8 -40.25 -4.6 -39.7 -6.05 -38.7 -8.9 -35.65 -14.2 L-32.85 -19.45 Q-31.7 -25.2 -30.7 -27.9 -27.7 -35.8 -21.1 -41.6 -25.25 -37.7 -24.95 -32.9 -24.3 -35.75 -21.75 -38.0 -19.2 -40.25 -17.75 -40.55 -16.3 -40.8 -15.95 -41.0 -13.45 -42.1 -7.15 -43.25 L1.85 -43.25 Q10.55 -42.1 16.05 -37.85 18.05 -35.5 19.55 -32.75 21.55 -29.05 22.25 -25.6 23.15 -23.8 25.5 -21.7 L30.4 -17.0 31.7 -14.85 33.0 -11.2 Q33.85 -8.6 34.35 -7.9 L34.35 -7.75 34.7 -6.25 32.55 -1.65 Q30.7 2.1 34.25 1.85 37.8 1.6 42.4 10.8 47.45 14.85 47.9 17.7 49.0 18.8 48.95 20.4 L48.95 21.2 48.1 23.4 47.45 23.95 46.55 24.45 M45.75 35.0 L47.6 35.95 48.85 36.95 49.1 39.75 Q49.1 41.65 48.7 42.8 48.25 44.0 48.25 45.2 L48.25 45.25 48.65 46.55 47.05 45.45 46.55 45.3 Q46.65 44.6 47.05 43.85 48.0 42.0 48.0 41.25 48.0 40.0 46.4 38.65 45.0 37.45 43.5 37.0 42.2 36.6 40.4 35.1 L40.2 34.95 41.35 34.95 44.05 35.05 45.75 35.0 M-46.5 40.6 L-46.7 37.95 -46.15 36.55 -45.0 34.1 Q-44.7 33.2 -42.75 32.4 -41.1 31.75 -40.35 31.2 L-39.25 31.25 -20.0 31.5 -18.0 31.55 -15.75 31.35 -15.3 31.35 -18.15 32.15 Q-22.35 33.15 -25.85 33.15 L-31.3 32.85 -34.6 32.65 -34.8 32.65 Q-36.55 32.7 -38.3 33.3 L-40.25 34.15 -40.7 34.4 -40.75 34.6 -41.45 37.25 Q-41.75 38.1 -41.75 40.25 L-43.4 40.1 -45.35 40.2 -45.4 40.25 -46.5 40.6 M26.1 33.5 L29.05 33.7 31.4 34.85 Q34.3 36.3 36.75 38.25 L36.5 38.25 Q30.75 35.4 26.1 33.5 M3.0 5.7 Q4.6 5.65 5.8 6.55 L-8.5 10.3 -18.05 9.9 Q-15.15 9.85 -10.15 8.75 L-9.85 8.7 Q-8.05 7.7 -6.0 6.8 -1.75 5.05 3.0 5.7 M-36.7 -0.65 L-37.05 -0.75 -36.75 -0.65 -36.7 -0.65 M-43.4 2.4 L-43.55 2.55 -43.55 2.4 -43.4 2.4" fill="#ad4949" fill-rule="evenodd" stroke="none"/>
      <path d="M-16.2 -49.7 Q-14.95 -51.3 -13.0 -52.15 -10.15 -53.5 -6.85 -53.05 L3.25 -51.55 7.8 -50.75 Q9.4 -50.5 10.85 -49.75 L13.2 -48.25 Q14.8 -46.95 15.2 -44.85 L18.9 -41.6 Q22.25 -38.35 24.75 -34.3 L29.5 -26.75 Q31.85 -23.05 33.6 -19.2 32.0 -20.35 30.95 -22.05 30.15 -23.35 29.6 -24.85 L28.55 -26.9 26.5 -29.75 20.55 -37.45 16.55 -42.3 13.25 -45.9 11.5 -45.65 11.25 -47.65 10.75 -47.65 9.75 -47.15 8.9 -48.5 5.1 -49.9 4.1 -49.2 -2.6 -49.4 -5.75 -50.15 -6.05 -50.85 -7.85 -50.15 -9.35 -50.75 -10.75 -51.05 Q-13.55 -50.65 -16.2 -49.7 M38.35 -6.0 L42.0 -2.2 Q44.85 1.25 45.9 4.55 46.95 7.85 47.5 8.95 50.7 13.15 50.8 18.1 L50.7 19.0 50.25 17.15 Q49.3 12.55 46.25 8.95 L45.7 7.3 44.65 3.8 Q43.9 1.8 43.0 0.35 42.05 -1.15 40.35 -2.8 38.6 -4.5 38.35 -6.0 M48.65 46.55 L49.65 48.1 49.6 49.3 49.4 50.6 49.35 50.85 49.2 51.55 48.75 53.0 48.55 53.65 48.6 55.4 Q48.6 57.05 47.55 58.05 L46.35 55.8 Q45.6 54.5 44.0 55.0 L44.0 54.15 42.7 53.45 44.65 53.05 44.75 54.0 45.25 54.0 48.0 50.75 46.5 48.75 46.8 49.45 47.0 50.75 46.7 50.6 45.95 50.55 44.2 51.15 45.0 49.0 44.4 48.3 41.6 49.05 41.15 48.85 41.2 48.05 Q38.2 45.05 34.15 47.2 L33.1 46.65 Q28.65 47.1 25.3 44.8 L40.7 45.85 42.35 45.85 44.2 45.55 45.95 45.25 46.0 45.25 46.55 45.3 47.05 45.45 48.65 46.55 M-47.05 55.15 Q-47.8 54.45 -48.2 53.4 L-48.35 52.0 -48.55 50.25 -48.4 46.85 -48.6 44.7 -48.65 43.6 Q-48.6 42.4 -47.65 41.4 L-47.6 41.35 -47.0 40.9 -46.75 40.75 -46.5 40.6 -45.4 40.25 -45.35 40.2 -43.4 40.1 -41.75 40.25 -41.25 40.35 -38.3 40.45 -36.65 40.55 -34.8 40.7 -31.8 41.1 -31.3 41.2 -25.25 42.25 -24.0 42.25 Q-27.95 44.5 -32.6 42.15 L-34.05 41.8 -34.5 42.75 -32.75 43.5 -32.85 44.0 -37.0 43.75 -36.25 42.75 Q-37.75 41.6 -39.55 41.6 L-41.0 43.05 -39.75 43.9 -40.7 44.65 -40.95 45.4 Q-41.65 46.0 -42.5 46.2 L-43.45 46.1 -43.5 44.9 -41.75 42.9 -41.3 42.95 -41.95 42.1 Q-44.1 41.75 -46.0 42.75 L-46.15 45.8 -45.75 46.35 Q-45.55 47.55 -46.35 48.6 L-47.0 49.25 -47.0 51.0 -45.75 49.75 -45.0 49.75 Q-45.05 48.9 -44.7 48.15 L-44.25 47.45 -43.2 47.5 -43.6 50.05 -45.0 50.1 -46.1 51.25 -45.8 53.05 -47.05 55.15" fill="#fff9d4" fill-rule="evenodd" stroke="none"/>
      <path d="M-16.2 -49.7 Q-13.55 -50.65 -10.75 -51.05 L-9.35 -50.75 -7.85 -50.15 -6.05 -50.85 -5.75 -50.15 -2.6 -49.4 4.1 -49.2 5.1 -49.9 8.9 -48.5 9.75 -47.15 10.75 -47.65 11.25 -47.65 11.5 -45.65 13.25 -45.9 16.55 -42.3 20.55 -37.45 26.5 -29.75 28.55 -26.9 29.6 -24.85 Q30.15 -23.35 30.95 -22.05 32.0 -20.35 33.6 -19.2 L35.5 -15.5 Q36.3 -13.95 37.0 -10.65 L37.25 -9.15 37.65 -7.0 38.35 -6.0 Q38.6 -4.5 40.35 -2.8 42.05 -1.15 43.0 0.35 43.9 1.8 44.65 3.8 L45.7 7.3 46.25 8.95 Q49.3 12.55 50.25 17.15 L50.7 19.0 Q50.85 20.55 50.1 22.0 L48.75 23.7 47.35 24.35 46.55 24.45 47.45 23.95 48.1 23.4 48.95 21.2 Q49.45 19.9 49.3 18.75 L49.05 17.2 48.75 15.7 Q48.0 12.75 44.85 8.95 L44.0 6.45 Q43.45 4.55 41.5 0.95 39.5 -2.65 34.7 -6.25 L34.35 -7.75 34.35 -7.9 34.2 -10.15 33.8 -12.45 Q32.7 -18.25 29.7 -22.55 26.7 -26.8 23.05 -32.5 19.4 -38.25 17.5 -40.25 L13.6 -43.5 Q2.4 -48.1 -9.6 -47.85 L-17.55 -47.05 -16.2 -49.7 M45.85 24.5 L46.1 24.6 46.05 24.6 45.9 24.6 45.8 24.55 45.85 24.5 M47.55 58.05 L47.25 58.3 Q43.05 60.25 40.0 57.8 L39.25 57.75 39.25 59.25 38.75 59.25 37.75 58.5 37.45 59.0 36.0 59.1 35.8 58.55 35.15 57.5 34.4 56.75 37.0 56.25 35.65 53.85 37.05 54.1 38.8 53.1 38.65 52.05 38.15 51.85 35.2 53.2 31.0 53.0 31.1 52.25 30.6 51.9 27.6 51.85 26.25 53.25 25.3 50.3 26.0 50.35 26.15 49.9 29.05 50.3 30.0 49.65 Q29.4 48.15 27.95 47.5 L25.9 47.6 25.25 46.75 24.25 47.0 24.6 47.5 24.9 48.0 25.1 48.8 25.0 49.55 22.0 49.5 19.9 47.4 18.75 47.5 22.25 47.0 Q21.7 46.55 21.1 46.4 L13.45 43.25 25.3 44.8 Q28.65 47.1 33.1 46.65 L34.15 47.2 Q38.2 45.05 41.2 48.05 L41.15 48.85 41.6 49.05 44.4 48.3 45.0 49.0 44.2 51.15 45.95 50.55 46.7 50.6 47.0 50.75 46.8 49.45 46.5 48.75 48.0 50.75 45.25 54.0 44.75 54.0 44.65 53.05 42.7 53.45 44.0 54.15 44.0 55.0 Q45.6 54.5 46.35 55.8 L47.55 58.05 M-45.5 56.05 L-47.05 55.15 -45.8 53.05 -46.1 51.25 -45.0 50.1 -43.6 50.05 -43.2 47.5 -44.25 47.45 -44.7 48.15 Q-45.05 48.9 -45.0 49.75 L-45.75 49.75 -47.0 51.0 -47.0 49.25 -46.35 48.6 Q-45.55 47.55 -45.75 46.35 L-46.15 45.8 -46.0 42.75 Q-44.1 41.75 -41.95 42.1 L-41.3 42.95 -41.75 42.9 -43.5 44.9 -43.45 46.1 -42.5 46.2 Q-41.65 46.0 -40.95 45.4 L-40.7 44.65 -39.75 43.9 -41.0 43.05 -39.55 41.6 Q-37.75 41.6 -36.25 42.75 L-37.0 43.75 -32.85 44.0 -32.75 43.5 -34.5 42.75 -34.05 41.8 -32.6 42.15 Q-27.95 44.5 -24.0 42.25 L-4.05 43.15 Q-5.35 44.25 -7.25 43.95 L-9.5 43.25 -11.35 44.5 -15.25 43.55 -16.5 44.75 -18.15 43.8 Q-20.65 42.15 -23.0 43.75 L-21.5 44.25 -23.0 44.5 -23.15 45.3 -21.5 47.25 -21.5 49.0 -22.0 49.0 -23.35 47.6 Q-24.35 46.7 -25.6 47.15 L-25.55 45.45 -26.25 45.0 -27.2 45.15 -29.5 46.25 -26.0 47.25 -27.0 48.0 -27.0 49.75 -27.75 49.75 -30.25 48.25 -32.6 49.45 -35.15 47.8 -36.35 48.3 Q-37.0 48.7 -37.5 49.25 L-38.0 50.2 -36.0 51.25 -36.25 52.6 -37.7 53.35 -38.35 53.8 -38.75 54.1 -39.05 54.15 Q-42.4 54.5 -45.5 56.05 M13.35 46.0 L7.6 45.15 Q10.1 42.5 13.35 46.0 M23.4 53.8 L17.35 50.75 19.4 49.9 Q20.25 50.2 21.1 50.65 L21.85 51.15 Q23.1 52.15 23.55 53.65 L23.4 53.8 M15.0 53.3 L15.0 53.65 Q13.5 53.45 13.35 52.2 L13.4 52.05 Q14.55 52.25 15.0 53.3 M-16.75 46.15 L-15.45 45.95 Q-14.75 46.75 -15.1 47.8 L-15.4 48.4 -16.65 48.15 -16.65 49.35 -18.85 49.65 -19.55 48.6 -16.75 46.15 M-10.3 45.1 L-10.0 45.35 -9.8 45.9 Q-11.0 47.2 -12.75 46.6 L-12.55 45.35 Q-11.6 44.6 -10.3 45.1 M-6.1 44.65 Q-3.5 43.45 -1.05 45.15 L-0.4 45.65 -1.9 45.8 -2.5 45.15 -6.2 45.65 -6.1 44.65 M-41.15 53.1 L-40.9 53.7 -40.3 53.9 Q-39.95 53.9 -39.7 53.7 L-39.45 53.1 Q-39.45 52.75 -39.7 52.55 -39.95 52.3 -40.3 52.3 L-40.9 52.55 -41.15 53.1 M-31.55 52.75 L-35.5 52.65 Q-34.9 51.2 -33.35 50.75 -30.95 49.95 -30.15 52.1 L-31.25 51.85 -31.55 52.75" fill="#cec9ab" fill-rule="evenodd" stroke="none"/>
      <path d="M-46.7 37.95 L-46.75 37.3 -46.55 34.2 -45.7 32.55 Q-44.75 31.1 -43.45 31.05 L-43.4 31.05 -40.35 31.2 Q-41.1 31.75 -42.75 32.4 -44.7 33.2 -45.0 34.1 L-46.15 36.55 -46.7 37.95 M-46.15 19.5 L-46.3 19.45 -47.1 18.05 -47.25 17.5 -47.2 16.35 -46.95 14.7 -46.6 13.5 -46.6 12.55 -46.6 12.45 -46.7 7.35 -46.75 6.45 -46.75 6.25 Q-46.75 2.55 -45.75 -1.5 L-44.8 -6.05 Q-42.55 -14.7 -37.25 -22.65 -35.7 -24.95 -33.55 -30.15 -31.4 -35.3 -29.7 -37.85 -25.7 -43.7 -17.55 -47.05 L-9.6 -47.85 Q2.4 -48.1 13.6 -43.5 L17.5 -40.25 Q19.4 -38.25 23.05 -32.5 26.7 -26.8 29.7 -22.55 32.7 -18.25 33.8 -12.45 L34.2 -10.15 34.35 -7.9 Q33.85 -8.6 33.0 -11.2 L31.7 -14.85 30.4 -17.0 25.5 -21.7 Q23.15 -23.8 22.25 -25.6 21.55 -29.05 19.55 -32.75 18.05 -35.5 16.05 -37.85 10.55 -42.1 1.85 -43.25 L-7.15 -43.25 Q-13.45 -42.1 -15.95 -41.0 -16.3 -40.8 -17.75 -40.55 -19.2 -40.25 -21.75 -38.0 -24.3 -35.75 -24.95 -32.9 -25.25 -37.7 -21.1 -41.6 -27.7 -35.8 -30.7 -27.9 -31.7 -25.2 -32.85 -19.45 L-35.65 -14.2 Q-38.7 -8.9 -39.7 -6.05 -40.25 -4.6 -40.25 -3.8 -40.7 -1.8 -40.75 1.55 L-40.85 6.1 -37.75 4.5 Q-36.5 3.85 -35.35 2.2 -34.35 0.5 -34.25 -1.35 L-34.3 0.75 Q-34.75 2.6 -35.35 4.05 L-36.45 5.9 -37.0 6.45 -38.7 8.4 -40.9 9.55 -43.55 12.2 -43.8 12.45 Q-46.35 15.15 -46.35 18.0 L-46.15 19.5 M34.7 -6.25 Q39.5 -2.65 41.5 0.95 43.45 4.55 44.0 6.45 L44.85 8.95 Q48.0 12.75 48.75 15.7 L49.05 17.2 49.3 18.75 Q49.45 19.9 48.95 21.2 L48.95 20.4 Q49.0 18.8 47.9 17.7 47.45 14.85 42.4 10.8 37.8 1.6 34.25 1.85 30.7 2.1 32.55 -1.65 L34.7 -6.25 M-43.4 2.4 L-43.55 2.4 -43.55 2.55 -43.4 2.4" fill="#e98d8d" fill-rule="evenodd" stroke="none"/>
      <path d="M47.25 58.3 L46.7 58.65 Q44.0 60.25 37.25 60.25 L35.5 60.25 24.65 59.6 15.4 58.6 8.0 58.5 -31.3 56.0 -34.8 55.85 -37.85 55.75 -38.3 55.8 -43.35 56.35 -45.5 56.05 Q-42.4 54.5 -39.05 54.15 L-38.75 54.1 -38.35 53.8 -37.7 53.35 -36.25 52.6 -36.0 51.25 -38.0 50.2 -37.5 49.25 Q-37.0 48.7 -36.35 48.3 L-35.15 47.8 -32.6 49.45 -30.25 48.25 -27.75 49.75 -27.0 49.75 -27.0 48.0 -26.0 47.25 -29.5 46.25 -27.2 45.15 -26.25 45.0 -25.55 45.45 -25.6 47.15 Q-24.35 46.7 -23.35 47.6 L-22.0 49.0 -21.5 49.0 -21.5 47.25 -23.15 45.3 -23.0 44.5 -21.5 44.25 -23.0 43.75 Q-20.65 42.15 -18.15 43.8 L-16.5 44.75 -15.25 43.55 -11.35 44.5 -9.5 43.25 -7.25 43.95 Q-5.35 44.25 -4.05 43.15 L-3.2 43.35 -0.5 43.2 1.3 42.95 7.0 42.5 13.45 43.25 21.1 46.4 Q21.7 46.55 22.25 47.0 L18.75 47.5 19.9 47.4 22.0 49.5 25.0 49.55 25.1 48.8 24.9 48.0 24.6 47.5 24.25 47.0 25.25 46.75 25.9 47.6 27.95 47.5 Q29.4 48.15 30.0 49.65 L29.05 50.3 26.15 49.9 26.0 50.35 25.3 50.3 26.25 53.25 27.6 51.85 30.6 51.9 31.1 52.25 31.0 53.0 35.2 53.2 38.15 51.85 38.65 52.05 38.8 53.1 37.05 54.1 35.65 53.85 37.0 56.25 34.4 56.75 35.15 57.5 35.8 58.55 36.0 59.1 37.45 59.0 37.75 58.5 38.75 59.25 39.25 59.25 39.25 57.75 40.0 57.8 Q43.05 60.25 47.25 58.3 M13.35 46.0 Q10.1 42.5 7.6 45.15 L13.35 46.0 M15.0 53.3 Q14.55 52.25 13.4 52.05 L13.35 52.2 Q13.5 53.45 15.0 53.65 L15.0 53.3 M23.4 53.8 L23.55 53.65 Q23.1 52.15 21.85 51.15 L21.1 50.65 Q20.25 50.2 19.4 49.9 L17.35 50.75 23.4 53.8 M-6.1 44.65 L-6.2 45.65 -2.5 45.15 -1.9 45.8 -0.4 45.65 -1.05 45.15 Q-3.5 43.45 -6.1 44.65 M-10.3 45.1 Q-11.6 44.6 -12.55 45.35 L-12.75 46.6 Q-11.0 47.2 -9.8 45.9 L-10.0 45.35 -10.3 45.1 M-16.75 46.15 L-19.55 48.6 -18.85 49.65 -16.65 49.35 -16.65 48.15 -15.4 48.4 -15.1 47.8 Q-14.75 46.75 -15.45 45.95 L-16.75 46.15 M-41.15 53.1 L-40.9 52.55 -40.3 52.3 Q-39.95 52.3 -39.7 52.55 -39.45 52.75 -39.45 53.1 L-39.7 53.7 Q-39.95 53.9 -40.3 53.9 L-40.9 53.7 -41.15 53.1 M-31.55 52.75 L-31.25 51.85 -30.15 52.1 Q-30.95 49.95 -33.35 50.75 -34.9 51.2 -35.5 52.65 L-31.55 52.75" fill="#9c9982" fill-rule="evenodd" stroke="none"/>
      <path d="M-42.8 19.95 Q-43.4 19.35 -43.65 17.75 -43.95 16.15 -40.8 13.3 L-39.65 12.45 Q-37.7 11.25 -34.8 11.25 L-31.4 11.55 -31.3 11.6 -24.55 12.6 Q-23.9 12.55 -24.9 12.35 -26.0 12.15 -28.7 10.8 L-31.3 9.25 -31.8 8.75 -31.8 8.65 -31.3 8.65 Q-30.35 8.4 -29.0 6.75 -27.3 4.65 -28.25 4.9 -28.15 -1.0 -27.1 -8.6 L-30.95 -5.5 -31.3 -5.2 -33.05 -3.85 -31.3 -6.05 -29.65 -8.95 -28.1 -12.05 -28.15 -12.05 Q-26.55 -23.2 -22.75 -28.7 -19.0 -34.2 -13.15 -37.05 -8.35 -40.5 -1.9 -40.45 4.85 -40.4 9.3 -36.4 13.75 -32.4 14.35 -25.45 L14.4 -24.9 Q15.85 -19.05 20.65 -15.55 25.45 -12.05 26.65 -9.45 27.65 -7.35 26.7 -2.8 29.55 -3.35 30.75 -3.95 30.4 -0.8 28.1 1.6 L23.25 6.35 21.85 8.0 Q19.15 10.45 15.25 9.45 19.15 11.0 21.0 11.25 22.85 11.45 26.25 9.75 29.6 8.0 35.1 12.25 40.55 16.5 39.1 18.95 37.6 21.35 36.05 22.45 38.9 22.4 40.45 17.25 41.4 17.8 40.25 23.55 L34.25 23.35 25.2 23.95 Q20.45 24.4 11.5 23.8 -8.05 23.1 -31.3 20.55 L-33.75 20.25 -34.8 20.2 -34.9 20.2 -38.3 20.05 -41.25 19.85 -41.3 19.85 -42.25 19.8 -42.8 19.95 M40.2 34.95 L40.4 35.1 Q42.2 36.6 43.5 37.0 45.0 37.45 46.4 38.65 48.0 40.0 48.0 41.25 48.0 42.0 47.05 43.85 46.65 44.6 46.55 45.3 L46.0 45.25 45.95 45.25 44.2 45.55 42.35 45.85 40.7 45.85 25.3 44.8 13.45 43.25 7.0 42.5 1.3 42.95 -0.5 43.2 -3.2 43.35 -4.05 43.15 -24.0 42.25 -25.25 42.25 -31.3 41.2 -31.8 41.1 -34.8 40.7 -36.65 40.55 -38.3 40.45 -41.25 40.35 -41.75 40.25 Q-41.75 38.1 -41.45 37.25 L-40.75 34.6 -40.7 34.4 -40.25 34.15 -38.3 33.3 Q-36.55 32.7 -34.8 32.65 L-34.6 32.65 -31.3 32.85 -25.85 33.15 Q-22.35 33.15 -18.15 32.15 L-15.3 31.35 -9.8 31.6 Q-4.6 32.0 -0.1 31.85 L12.1 32.65 25.95 33.5 26.1 33.5 Q30.75 35.4 36.5 38.25 L36.75 38.25 Q34.3 36.3 31.4 34.85 L29.05 33.7 35.5 34.25 40.2 34.95 M3.0 5.7 Q-1.75 5.05 -6.0 6.8 -8.05 7.7 -9.85 8.7 L-10.15 8.75 Q-15.15 9.85 -18.05 9.9 L-8.5 10.3 5.8 6.55 Q4.6 5.65 3.0 5.7" fill="#8e3c3c" fill-rule="evenodd" stroke="none"/>
      <path d="M45.9 24.6 L45.9 24.65 46.1 28.85 45.85 33.85 Q41.85 32.55 37.5 32.5 40.35 31.75 44.5 31.75 44.4 29.15 41.5 29.45 L36.25 29.75 36.5 29.75 40.7 28.65 Q43.25 28.05 43.25 26.35 L43.2 24.5 43.05 24.0 44.7 24.5 45.05 24.5 45.2 24.5 45.75 24.55 45.85 24.5 45.8 24.55 45.9 24.6 M-43.4 31.05 L-43.7 20.2 -43.2 20.05 -42.8 19.95 -42.25 19.8 -41.3 19.85 -41.25 19.85 -41.5 21.5 Q-41.5 22.5 -40.95 22.6 -40.3 22.8 -40.0 24.0 L-31.9 25.5 -36.2 25.5 Q-40.5 25.5 -40.5 27.5 L-39.85 29.25 Q-39.35 30.2 -39.25 31.25 L-40.35 31.2 -43.4 31.05" fill="#333333" fill-rule="evenodd" stroke="none"/>
      <path d="M45.85 33.85 L45.75 35.0 44.05 35.05 41.35 34.95 40.2 34.95 35.5 34.25 29.05 33.7 26.1 33.5 25.95 33.5 12.1 32.65 -0.1 31.85 Q-4.6 32.0 -9.8 31.6 L-15.3 31.35 -15.75 31.35 -18.0 31.55 -20.0 31.5 -39.25 31.25 Q-39.35 30.2 -39.85 29.25 L-40.5 27.5 Q-40.5 25.5 -36.2 25.5 L-31.9 25.5 -40.0 24.0 Q-40.3 22.8 -40.95 22.6 -41.5 22.5 -41.5 21.5 L-41.25 19.85 -38.3 20.05 -34.9 20.2 -34.8 20.2 -33.75 20.25 -31.3 20.55 Q-8.05 23.1 11.5 23.8 20.45 24.4 25.2 23.95 L34.25 23.35 40.25 23.55 43.05 24.0 43.2 24.5 43.25 26.35 Q43.25 28.05 40.7 28.65 L36.5 29.75 36.25 29.75 41.5 29.45 Q44.4 29.15 44.5 31.75 40.35 31.75 37.5 32.5 41.85 32.55 45.85 33.85" fill="#222222" fill-rule="evenodd" stroke="none"/>
    </g>
    <g id="sprite0" transform="matrix(1.0, 0.0, 0.0, 1.0, 23.3, 27.2)">
      <use ffdec:characterId="1710" height="49.9" transform="matrix(1.0, 0.0, 0.0, 1.0, -23.3, -27.2)" width="46.5" xlink:href="#shape1"/>
    </g>
    <g id="shape1" transform="matrix(1.0, 0.0, 0.0, 1.0, 23.3, 27.2)">
      <path d="M-2.95 -26.0 L-3.2 -24.45 -3.1 -24.45 Q-2.1 -25.1 -0.85 -25.35 L0.7 -25.6 Q2.45 -25.75 4.0 -24.85 L4.3 -23.55 5.0 -23.0 8.05 -23.6 Q8.85 -23.9 8.85 -24.5 L8.85 -24.75 9.05 -24.35 9.35 -22.7 Q9.35 -22.05 8.85 -21.6 L5.8 -21.4 Q4.05 -21.55 3.15 -22.95 L2.1 -23.75 -0.55 -24.25 -1.35 -23.9 -1.8 -23.0 -1.25 -22.8 -3.5 -23.05 -0.05 -20.65 -5.4 -20.5 -8.0 -19.15 -4.9 -19.9 -0.25 -19.35 Q2.7 -18.35 5.1 -16.15 7.3 -16.0 8.4 -14.25 10.65 -10.75 11.75 -6.7 L10.5 -4.4 10.35 -6.2 Q10.0 -8.2 8.95 -10.05 L7.75 -12.0 8.05 -10.3 8.7 -4.8 Q8.85 -2.25 7.65 -0.1 L6.7 1.25 Q4.8 3.1 2.35 3.9 L3.65 1.9 3.85 1.45 3.6 1.15 0.4 2.0 Q-2.0 1.0 -4.45 -0.05 L-3.3 -2.15 -4.0 -2.1 -5.85 -1.65 -7.1 -1.3 -6.85 -2.5 -8.0 -4.05 -5.45 -6.15 -6.2 -5.95 -9.45 -4.6 -10.85 -4.75 -11.35 -7.85 -8.9 -9.25 -8.6 -9.35 -8.25 -9.15 -8.2 -10.25 -9.7 -9.75 -12.2 -8.65 Q-13.0 -8.3 -13.55 -7.55 L-13.95 -6.8 -11.6 -7.65 -11.55 -4.8 -12.65 -4.05 -10.9 -2.7 -9.15 -1.25 -6.8 0.65 -11.65 -0.55 -13.0 -1.45 -14.05 -2.8 -13.35 -0.8 Q-12.9 0.25 -11.75 0.9 -8.95 2.45 -6.0 3.4 L-4.4 3.8 -3.95 3.3 -1.0 3.75 0.15 4.85 -1.95 5.1 -3.55 5.3 Q-3.55 5.55 -5.75 6.95 L-2.1 6.2 0.35 6.75 -0.35 7.4 -6.05 8.6 Q-2.6 9.35 0.7 8.0 L1.85 7.1 Q3.6 4.8 6.05 3.15 7.7 2.05 8.5 0.05 L9.0 0.15 12.4 -4.9 13.4 -2.65 14.25 -2.75 12.35 0.75 10.25 0.75 10.25 1.75 11.15 2.3 9.4 4.55 8.1 6.65 Q7.5 7.65 6.2 7.95 L6.0 7.55 Q4.8 7.05 3.5 7.85 2.2 8.5 2.35 10.1 2.5 10.8 3.3 10.55 L5.05 9.8 6.05 9.25 5.9 10.4 6.4 10.45 5.5 11.05 Q5.65 12.2 7.7 11.6 10.45 11.35 12.3 9.3 12.6 11.45 10.6 12.7 8.55 14.0 6.5 12.9 L5.65 12.0 5.5 12.05 Q4.95 12.15 4.5 12.4 2.75 12.95 1.5 11.65 L1.5 10.65 Q1.65 9.35 2.55 8.4 L1.35 8.6 -0.3 9.3 Q-1.4 10.0 -2.85 10.4 L-7.9 10.9 -10.2 10.5 -2.55 9.5 -10.4 8.35 -10.65 7.7 -11.9 7.7 -12.25 8.2 -12.2 9.35 -12.3 9.2 -12.8 7.75 -12.8 7.7 Q-12.8 6.6 -11.65 5.85 -10.5 5.05 -8.85 5.05 -7.35 4.5 -6.3 3.35 -9.25 2.6 -11.95 1.3 L-12.15 1.2 Q-13.8 0.35 -14.15 -1.45 -14.65 -3.9 -15.55 -6.3 L-15.7 -7.65 Q-14.95 -10.25 -14.55 -13.0 L-14.1 -11.95 Q-12.15 -12.95 -10.3 -14.45 L-10.0 -14.95 Q-9.5 -16.05 -9.35 -17.0 L-10.75 -17.35 -13.0 -15.9 Q-12.65 -18.2 -10.8 -19.6 L-10.6 -19.75 -10.4 -19.9 -7.55 -21.65 -6.9 -22.4 -5.0 -23.45 -4.2 -24.1 Q-3.4 -25.05 -2.95 -26.0 M9.35 -21.25 L9.25 -20.7 Q9.25 -20.2 9.95 -19.75 10.65 -19.25 11.5 -19.25 11.75 -19.25 12.1 -20.0 L12.5 -20.95 12.65 -20.0 Q12.65 -19.2 12.2 -18.55 11.55 -17.75 10.35 -17.75 L9.9 -17.75 10.25 -16.25 Q11.5 -16.8 12.5 -15.5 L10.2 -14.05 Q8.6 -16.9 5.85 -19.05 L6.8 -19.15 7.5 -18.4 8.55 -18.4 9.25 -19.75 8.8 -19.95 Q8.85 -20.85 9.35 -21.25 M14.45 -9.25 L11.35 -12.05 12.6 -13.8 14.65 -15.1 15.25 -14.4 16.4 -14.8 17.25 -13.3 18.8 -11.6 19.85 -11.0 19.7 -10.25 Q19.25 -9.65 18.35 -9.8 L17.35 -10.1 17.0 -10.25 Q16.7 -10.65 16.7 -11.15 16.75 -12.15 16.1 -12.95 15.5 -13.65 14.5 -13.4 L13.75 -12.9 14.1 -11.1 14.45 -9.25 M17.25 -15.0 L17.15 -15.1 17.2 -15.05 17.25 -15.0 M21.5 9.15 L21.65 9.65 Q21.65 10.75 19.75 10.75 19.1 10.75 17.6 8.75 L16.4 6.85 15.1 3.9 Q14.5 3.55 13.75 3.25 L11.9 2.4 12.25 2.4 13.3 2.1 13.35 2.0 13.45 2.05 15.1 3.9 15.45 4.25 16.2 5.05 16.9 5.8 20.6 9.6 21.35 9.25 21.5 9.15 M-4.0 18.2 L-4.5 19.9 -5.9 19.95 Q-7.0 19.3 -6.9 17.85 -7.4 17.45 -7.95 17.2 L-9.05 17.05 -9.75 17.9 -10.7 18.0 -11.05 18.45 -11.75 18.75 -12.35 18.35 -12.6 17.8 -12.75 17.5 Q-12.75 16.75 -12.35 16.2 -11.95 15.65 -11.35 15.65 L-12.0 16.4 -11.9 16.85 -11.85 16.85 -10.3 16.5 -8.25 15.65 -7.95 16.45 Q-6.6 17.5 -5.3 16.3 L-5.15 15.9 -5.15 16.0 -5.1 16.35 -5.5 16.65 -5.65 17.05 -5.15 18.1 -4.0 18.2 M-17.35 -2.35 L-17.55 -2.1 -17.8 -1.95 -18.25 -2.7 -17.85 -3.1 -17.8 -3.3 -17.5 -5.05 -18.05 -5.5 -17.8 -5.5 -17.65 -5.5 Q-17.5 -5.6 -17.5 -5.05 -16.6 -3.75 -17.35 -2.35 M-17.85 -0.85 L-17.95 0.35 -19.6 0.7 -19.9 -1.0 -19.7 -1.65 -19.0 -0.55 -17.85 -0.85 M-19.65 0.8 L-20.2 3.05 -21.0 3.25 -22.3 2.85 Q-23.7 1.95 -23.15 0.2 -22.85 -0.75 -21.9 -0.85 L-22.5 -0.2 -22.4 1.1 -20.05 1.2 -19.65 0.8 M-19.75 -2.05 L-20.05 -2.45 -20.4 -3.35 Q-20.5 -4.4 -20.05 -5.2 L-19.2 -5.55 -19.8 -5.2 Q-20.2 -4.15 -19.55 -3.2 L-19.3 -3.0 -19.75 -2.05 M-18.45 -12.7 L-18.85 -13.05 Q-19.65 -14.15 -19.25 -15.95 L-17.4 -14.0 -16.3 -14.0 -15.7 -15.05 -15.5 -15.9 -15.45 -15.3 Q-15.6 -12.4 -18.45 -12.7 M3.3 -20.9 L4.05 -20.75 3.7 -20.65 3.3 -20.9 M4.6 -14.65 L4.15 -15.3 5.25 -10.1 3.8 -12.55 Q3.05 -13.65 1.65 -14.0 L-1.2 -13.8 -1.15 -14.85 -1.25 -16.0 -1.8 -17.35 -5.1 -17.25 Q-6.7 -16.3 -6.65 -14.35 -6.6 -13.4 -5.9 -12.75 -5.45 -12.4 -4.9 -12.4 L-2.8 -12.05 -3.15 -8.15 -6.25 -9.55 Q-5.2 -7.5 -3.3 -6.5 L-4.85 -5.4 -4.3 -4.55 -3.2 -4.25 -1.65 -3.95 Q-1.25 -4.05 -0.9 -4.3 L0.5 -5.55 0.95 -5.6 -1.5 -2.0 0.75 -1.8 Q2.7 -2.25 3.7 -3.9 5.45 -3.8 6.3 -5.3 8.1 -8.55 6.25 -11.9 L4.6 -14.65 M22.95 -4.2 L23.15 -3.0 Q22.25 -1.2 20.2 -1.9 L19.7 -2.25 20.05 -4.4 20.4 -3.3 21.65 -3.65 Q22.3 -3.85 22.95 -4.2 M-16.05 -20.25 Q-13.8 -21.45 -11.8 -23.1 L-9.95 -24.25 -7.7 -25.6 Q-7.25 -25.85 -7.25 -26.3 L-6.55 -25.8 -10.15 -22.9 -12.5 -20.9 Q-13.25 -20.35 -14.05 -19.95 -15.2 -19.45 -16.05 -20.25 M-9.25 -13.65 L-10.5 -13.2 Q-11.05 -12.8 -11.05 -12.2 -11.05 -11.6 -10.5 -11.15 -10.0 -10.75 -9.25 -10.75 -8.5 -10.75 -7.95 -11.15 -7.45 -11.6 -7.45 -12.2 -7.45 -12.8 -7.95 -13.2 -8.5 -13.65 -9.25 -13.65 M-12.35 9.0 L-12.4 8.95 -12.4 9.0 -12.35 9.0 M-18.45 18.5 L-17.45 18.6 -16.75 18.0 Q-16.95 19.3 -17.25 19.7 L-17.95 19.8 -18.45 18.65 -18.45 18.5" fill="#990000" fill-rule="evenodd" stroke="none"/>
      <path d="M8.85 -24.75 L8.85 -24.5 Q8.85 -23.9 8.05 -23.6 L5.0 -23.0 4.3 -23.55 4.0 -24.85 Q2.45 -25.75 0.7 -25.6 L-0.85 -25.35 Q-2.1 -25.1 -3.1 -24.45 L-3.2 -24.45 -2.95 -26.0 Q-1.9 -27.8 2.85 -26.95 8.3 -25.9 8.85 -24.75 M-13.0 -15.9 L-10.75 -17.35 -9.35 -17.0 Q-9.5 -16.05 -10.0 -14.95 L-10.3 -14.45 Q-12.15 -12.95 -14.1 -11.95 L-14.55 -13.0 -14.55 -13.3 -14.55 -13.4 -14.0 -14.7 -13.25 -15.65 -13.0 -15.9 M-12.2 9.35 L-12.25 8.2 -11.9 7.7 -10.65 7.7 -10.4 8.35 -2.55 9.5 -10.2 10.5 -11.6 10.2 Q-12.2 9.85 -12.2 9.35 M12.3 9.3 Q10.45 11.35 7.7 11.6 5.65 12.2 5.5 11.05 L6.4 10.45 10.15 8.05 Q12.35 7.05 12.35 9.25 L12.3 9.3 M6.05 9.25 L5.05 9.8 3.3 10.55 Q2.5 10.8 2.35 10.1 2.2 8.5 3.5 7.85 4.8 7.05 6.0 7.55 L6.2 7.95 6.35 8.8 6.05 9.25 M11.15 2.3 L10.25 1.75 10.25 0.75 12.35 0.75 12.4 0.8 12.35 0.75 12.5 0.65 15.3 2.6 17.45 4.1 17.9 4.4 Q21.85 7.15 21.85 8.4 L21.5 9.15 21.35 9.25 20.6 9.6 16.9 5.8 16.2 5.05 15.45 4.25 15.1 3.9 13.45 2.05 13.35 1.95 13.35 2.0 13.3 2.1 12.25 2.4 11.9 2.4 11.15 2.3 M14.25 -2.75 L13.4 -2.65 12.4 -4.9 9.0 0.15 8.5 0.05 Q7.7 2.05 6.05 3.15 3.6 4.8 1.85 7.1 L0.7 8.0 Q-2.6 9.35 -6.05 8.6 L-0.35 7.4 0.35 6.75 -2.1 6.2 -5.75 6.95 Q-3.55 5.55 -3.55 5.3 L-1.95 5.1 0.15 4.85 -1.0 3.75 -3.95 3.3 -4.4 3.8 -6.0 3.4 Q-8.95 2.45 -11.75 0.9 -12.9 0.25 -13.35 -0.8 L-14.05 -2.8 -13.0 -1.45 -11.65 -0.55 -6.8 0.65 -9.15 -1.25 -10.9 -2.7 -12.65 -4.05 -11.55 -4.8 -11.6 -7.65 -13.95 -6.8 -13.55 -7.55 Q-13.0 -8.3 -12.2 -8.65 L-9.7 -9.75 -8.2 -10.25 -8.25 -9.15 -8.6 -9.35 -8.9 -9.25 -11.35 -7.85 -10.85 -4.75 -9.45 -4.6 -6.2 -5.95 -5.45 -6.15 -8.0 -4.05 -6.85 -2.5 -7.1 -1.3 -5.85 -1.65 -4.0 -2.1 -3.3 -2.15 -4.45 -0.05 Q-2.0 1.0 0.4 2.0 L3.6 1.15 3.85 1.45 3.65 1.9 2.35 3.9 Q4.8 3.1 6.7 1.25 L7.65 -0.1 Q8.85 -2.25 8.7 -4.8 L8.05 -10.3 7.75 -12.0 8.95 -10.05 Q10.0 -8.2 10.35 -6.2 L10.5 -4.4 11.75 -6.7 Q10.65 -10.75 8.4 -14.25 7.3 -16.0 5.1 -16.15 2.7 -18.35 -0.25 -19.35 L-4.9 -19.9 -8.0 -19.15 -5.4 -20.5 -0.05 -20.65 -3.5 -23.05 -1.25 -22.8 3.3 -20.9 3.7 -20.65 4.05 -20.75 4.75 -20.8 Q6.9 -20.75 8.8 -19.95 L9.25 -19.75 8.55 -18.4 7.5 -18.4 6.8 -19.15 5.85 -19.05 Q8.6 -16.9 10.2 -14.05 L12.5 -15.5 Q13.8 -16.3 15.05 -16.4 16.4 -16.55 17.25 -15.5 L17.2 -15.05 17.15 -15.1 17.25 -15.0 20.0 -12.2 19.85 -11.0 18.8 -11.6 17.25 -13.3 16.4 -14.8 15.25 -14.4 14.65 -15.1 12.6 -13.8 11.35 -12.05 14.45 -9.25 Q14.85 -8.6 14.9 -7.75 L15.0 -6.5 15.1 -5.35 15.1 -5.15 Q15.25 -3.7 14.25 -2.75 M12.5 -20.95 L12.1 -20.0 Q11.75 -19.25 11.5 -19.25 10.65 -19.25 9.95 -19.75 9.25 -20.2 9.25 -20.7 L9.35 -21.25 9.85 -21.7 12.35 -21.9 12.5 -21.25 12.5 -20.95 M-3.4 17.45 L-3.45 17.6 -4.0 18.2 -5.15 18.1 -5.65 17.05 -5.5 16.65 -5.1 16.35 -4.5 16.35 -4.1 16.45 -4.05 16.45 -3.9 16.5 Q-3.4 16.7 -3.4 17.15 L-3.4 17.45 M-17.8 -1.95 L-17.85 -1.9 -17.8 -1.6 -17.85 -0.85 -19.0 -0.55 -19.7 -1.65 -19.75 -2.05 -19.3 -3.0 -19.55 -3.2 Q-20.2 -4.15 -19.8 -5.2 L-19.2 -5.55 -18.05 -5.5 -17.5 -5.05 -17.8 -3.3 -17.85 -3.1 -18.25 -2.7 -17.8 -1.95 M-19.6 0.7 L-19.65 0.8 -20.05 1.2 -22.4 1.1 -22.5 -0.2 -21.9 -0.85 -19.9 -1.0 -19.6 0.7 M-19.25 -15.95 L-18.75 -17.05 -18.15 -17.25 Q-16.4 -17.65 -15.55 -16.4 L-15.5 -15.9 -15.7 -15.05 -16.3 -14.0 -17.4 -14.0 -19.25 -15.95 M20.05 -4.4 Q20.8 -5.6 22.0 -5.85 L22.85 -5.9 23.15 -5.55 23.2 -4.6 22.95 -4.2 Q22.3 -3.85 21.65 -3.65 L20.4 -3.3 20.05 -4.4 M-16.05 -20.25 L-16.75 -20.7 -16.7 -21.15 Q-16.35 -22.15 -15.7 -22.75 L-15.25 -23.3 Q-12.4 -26.65 -7.9 -26.75 -7.2 -26.9 -7.25 -26.3 -7.25 -25.85 -7.7 -25.6 L-9.95 -24.25 -11.8 -23.1 Q-13.8 -21.45 -16.05 -20.25 M-9.25 -13.65 Q-8.5 -13.65 -7.95 -13.2 -7.45 -12.8 -7.45 -12.2 -7.45 -11.6 -7.95 -11.15 -8.5 -10.75 -9.25 -10.75 -10.0 -10.75 -10.5 -11.15 -11.05 -11.6 -11.05 -12.2 -11.05 -12.8 -10.5 -13.2 L-9.25 -13.65 M-7.95 14.35 L-5.05 14.4 Q-4.85 15.3 -5.15 15.9 L-5.3 16.3 Q-6.6 17.5 -7.95 16.45 L-8.25 15.65 -10.3 16.5 -11.85 16.85 -11.9 16.85 -12.0 16.4 -11.35 15.65 Q-9.8 14.05 -8.2 15.0 L-8.1 14.85 -7.95 14.35 M-12.35 9.0 L-12.4 9.0 -12.4 8.95 -12.35 9.0 M-18.45 18.5 L-18.5 18.5 -18.55 17.35 Q-18.15 15.7 -16.5 15.8 L-16.35 16.15 Q-16.05 17.2 -16.75 18.0 L-17.45 18.6 -18.45 18.5" fill="#ff0000" fill-rule="evenodd" stroke="none"/>
      <path d="M4.6 -14.65 L6.25 -11.9 Q8.1 -8.55 6.3 -5.3 5.45 -3.8 3.7 -3.9 2.7 -2.25 0.75 -1.8 L-1.5 -2.0 0.95 -5.6 0.5 -5.55 -0.9 -4.3 Q-1.25 -4.05 -1.65 -3.95 L-3.2 -4.25 -4.3 -4.55 -4.85 -5.4 -3.3 -6.5 Q-5.2 -7.5 -6.25 -9.55 L-3.15 -8.15 -2.8 -12.05 -4.9 -12.4 Q-5.45 -12.4 -5.9 -12.75 -6.6 -13.4 -6.65 -14.35 -6.7 -16.3 -5.1 -17.25 L-1.8 -17.35 -1.25 -16.0 -1.15 -14.85 -1.2 -13.8 1.65 -14.0 Q3.05 -13.65 3.8 -12.55 L5.25 -10.1 4.15 -15.3 4.6 -14.65" fill="#650101" fill-rule="evenodd" stroke="none"/>
      <path d="M-5.15 16.0 L-4.1 16.45 -4.5 16.35 -5.1 16.35 -5.15 16.0" fill="#aa5649" fill-rule="evenodd" stroke="none"/>
      <path d="M-10.8 -19.6 Q-12.65 -18.2 -13.0 -15.9 L-13.25 -15.65 -14.0 -14.7 -12.25 -19.1 -11.25 -19.6 -10.8 -19.6 M-14.55 -13.0 Q-14.95 -10.25 -15.7 -7.65 L-15.55 -6.3 Q-14.65 -3.9 -14.15 -1.45 -13.8 0.35 -12.15 1.2 L-11.95 1.3 Q-9.25 2.6 -6.3 3.35 -7.35 4.5 -8.85 5.05 -10.5 5.05 -11.65 5.85 -12.8 6.6 -12.8 7.7 L-12.8 7.75 -12.3 9.2 -12.2 9.35 Q-12.2 9.85 -11.6 10.2 L-10.2 10.5 -7.9 10.9 -2.85 10.4 Q-1.4 10.0 -0.3 9.3 L1.35 8.6 2.55 8.4 Q1.65 9.35 1.5 10.65 L1.5 11.65 Q2.75 12.95 4.5 12.4 4.95 12.15 5.5 12.05 L5.65 12.0 6.5 12.9 Q8.55 14.0 10.6 12.7 12.6 11.45 12.3 9.3 L12.35 9.25 Q12.35 7.05 10.15 8.05 L6.4 10.45 5.9 10.4 6.05 9.25 6.35 8.8 6.2 7.95 Q7.5 7.65 8.1 6.65 L9.4 4.55 11.15 2.3 11.9 2.4 13.75 3.25 Q14.5 3.55 15.1 3.9 L14.75 6.25 14.6 6.6 14.1 8.3 Q12.95 11.3 10.95 13.7 L9.5 14.45 Q4.3 17.0 -1.5 16.75 L-2.6 16.75 -3.9 16.5 -4.05 16.45 -4.1 16.45 -5.15 16.0 -5.15 15.9 Q-4.85 15.3 -5.05 14.4 L-7.95 14.35 Q-10.6 12.65 -12.45 10.95 L-13.15 10.3 -14.05 8.85 Q-15.8 5.9 -16.4 2.65 L-16.5 2.65 -16.15 0.95 Q-15.75 -0.65 -15.75 -1.6 -15.75 -2.75 -16.75 -7.15 L-16.7 -7.6 -16.55 -7.65 -16.25 -8.65 -14.55 -13.4 -14.55 -13.3 -14.55 -13.0 M12.35 0.75 L14.25 -2.75 Q15.25 -3.7 15.1 -5.15 L15.1 -5.35 15.0 -6.5 14.9 -7.75 Q14.85 -8.6 14.45 -9.25 L14.1 -11.1 15.15 -9.5 15.5 -8.85 15.35 -4.45 15.1 2.35 15.3 2.35 15.3 2.6 12.5 0.65 12.35 0.75 12.4 0.8 12.35 0.75" fill="#e2b181" fill-rule="evenodd" stroke="none"/>
      <path d="M15.35 -4.45 L15.55 -4.0 Q16.15 -3.0 17.25 -3.0 L17.3 -2.85 Q17.35 -2.75 17.5 -2.75 L16.85 -1.7 16.5 -0.85 Q16.5 -0.15 17.25 0.35 17.85 0.75 18.25 0.75 L17.45 4.1 15.3 2.6 15.3 2.35 15.1 2.35 15.35 -4.45 M15.55 10.65 Q15.0 14.0 16.7 16.9 L16.05 16.3 Q15.05 15.4 13.6 15.0 11.25 17.2 10.95 20.5 L9.75 20.5 9.5 21.75 8.95 20.75 Q8.45 19.7 8.55 18.45 L9.75 17.5 9.75 16.25 Q2.4 16.45 0.3 22.7 L-0.25 21.15 Q0.0 19.2 -1.0 17.55 L-1.5 16.75 Q4.3 17.0 9.5 14.45 L10.95 13.7 Q12.95 11.3 14.1 8.3 L14.6 6.6 15.55 10.65 M-15.35 15.45 Q-15.8 14.0 -18.4 14.25 -17.65 14.15 -17.05 13.25 -16.5 12.45 -16.5 11.75 -16.5 10.75 -18.1 10.75 -19.15 10.75 -20.4 11.95 -19.65 10.7 -18.05 9.05 -16.75 7.7 -16.75 5.85 -16.75 4.85 -17.0 4.75 L-18.1 4.75 -19.0 4.8 Q-19.4 4.85 -19.75 5.25 L-18.0 2.8 Q-17.0 1.0 -17.0 -0.75 -17.0 -1.45 -17.35 -2.35 -16.6 -3.75 -17.5 -5.05 -17.5 -5.6 -17.65 -5.5 L-17.8 -5.5 -17.35 -6.3 -16.7 -7.6 -16.75 -7.15 Q-15.75 -2.75 -15.75 -1.6 -15.75 -0.65 -16.15 0.95 L-16.5 2.65 -16.4 2.65 Q-15.8 5.9 -14.05 8.85 L-13.15 10.3 -12.45 10.95 Q-12.45 11.75 -13.2 12.45 -14.05 13.2 -14.15 13.85 -14.35 15.2 -15.3 15.45 L-15.35 15.45" fill="#e98d8d" fill-rule="evenodd" stroke="none"/>
      <path d="M16.4 6.85 L16.1 7.35 Q15.6 8.05 15.55 10.65 L14.6 6.6 14.75 6.25 15.1 3.9 16.4 6.85 M-0.25 21.15 L-1.15 19.2 Q-2.05 17.85 -3.4 17.45 L-3.4 17.15 Q-3.4 16.7 -3.9 16.5 L-2.6 16.75 -1.5 16.75 -1.0 17.55 Q0.0 19.2 -0.25 21.15 M-12.6 17.8 L-12.8 18.15 Q-13.6 19.65 -13.5 21.75 L-13.5 22.0 Q-14.2 19.85 -15.0 18.7 L-15.25 16.1 -15.35 15.45 -15.3 15.45 Q-14.35 15.2 -14.15 13.85 -14.05 13.2 -13.2 12.45 -12.45 11.75 -12.45 10.95 -10.6 12.65 -7.95 14.35 L-8.1 14.85 -8.2 15.0 Q-9.8 14.05 -11.35 15.65 -11.95 15.65 -12.35 16.2 -12.75 16.75 -12.75 17.5 L-12.6 17.8" fill="#f44545" fill-rule="evenodd" stroke="none"/>
      <path d="M-16.7 -7.6 L-16.8 -7.55 -17.05 -8.65 -16.7 -9.85 -16.4 -11.35 -16.5 -12.05 -17.05 -10.95 Q-17.3 -10.4 -18.0 -10.4 -19.25 -10.4 -19.0 -11.45 L-18.45 -12.7 Q-15.6 -12.4 -15.45 -15.3 L-15.5 -15.9 -15.55 -16.4 Q-13.35 -18.9 -12.15 -19.5 L-12.25 -19.1 -14.0 -14.7 -14.55 -13.4 -16.25 -8.65 -16.55 -7.65 -16.7 -7.6" fill="url(#gradient0)" fill-rule="evenodd" stroke="none"/>
    </g>
    <linearGradient gradientTransform="matrix(0.0, 0.0, 0.0, 0.0, 0.0, 0.0)" gradientUnits="userSpaceOnUse" id="gradient0" spreadMethod="pad" x1="-819.2" x2="819.2">
      <stop offset="0.0" stop-color="#ff0000"/>
      <stop offset="1.0" stop-color="#8e3c3c"/>
    </linearGradient>
  </defs>
</svg>
