<?xml version="1.0" encoding="UTF-8" standalone="no"?>
<svg xmlns:ffdec="https://www.free-decompiler.com/flash" xmlns:xlink="http://www.w3.org/1999/xlink" ffdec:objectType="frame" height="244.45px" width="112.25px" xmlns="http://www.w3.org/2000/svg">
  <g transform="matrix(1.0, 0.0, 0.0, 1.0, 54.9, 183.3)">
    <use ffdec:characterId="1709" height="22.85" id="neck" transform="matrix(1.0, 0.0, 0.0, 1.0, -21.45, -60.0)" width="40.45" xlink:href="#sprite0"/>
    <use ffdec:characterId="1712" height="108.85" transform="matrix(1.0, 0.0, 0.0, 1.0, -47.25, -53.15)" width="98.65" xlink:href="#shape1"/>
    <use ffdec:characterId="1711" height="49.9" id="wound" transform="matrix(1.0, 0.0, 0.0, 1.0, -25.2, -47.1)" width="46.5" xlink:href="#sprite1"/>
    <use ffdec:characterId="1707" height="0.0" id="spineRef" transform="matrix(1.0, 0.0, 0.0, 1.0, 4.6, -55.2)" width="0.0" xlink:href="#sprite2"/>
  </g>
  <defs>
    <g id="sprite0" transform="matrix(1.0, 0.0, 0.0, 1.0, 19.6, 12.75)">
      <use ffdec:characterId="1708" height="22.85" transform="matrix(1.0, 0.0, 0.0, 1.0, -19.6, -12.75)" width="40.45" xlink:href="#shape0"/>
    </g>
    <g id="shape0" transform="matrix(1.0, 0.0, 0.0, 1.0, 19.6, 12.75)">
      <path d="M5.45 -12.25 L6.25 -12.75 7.9 -12.5 Q9.1 -11.35 8.1 -9.85 L7.6 -9.75 Q7.5 -11.5 5.45 -12.25 M7.45 -9.55 Q8.65 -8.8 8.65 -7.9 L9.25 -7.6 10.7 -6.55 11.05 -6.3 14.4 -4.7 17.0 -3.0 19.3 -0.55 20.5 -0.25 20.85 0.6 20.1 1.35 19.9 2.25 Q19.55 2.6 18.75 2.6 16.8 2.6 14.8 1.2 L12.85 -0.5 13.0 -0.55 16.45 0.2 17.0 0.25 17.0 0.1 16.6 -0.65 Q15.55 -2.65 14.65 -3.3 L11.55 -5.65 10.85 -6.05 13.15 -4.45 Q9.1 -6.55 8.3 -7.1 L8.25 -7.1 7.85 -6.85 Q7.85 -7.65 6.85 -8.2 5.85 -8.75 4.4 -8.75 L2.15 -9.55 Q1.9 -9.55 1.5 -9.2 L1.25 -9.0 Q1.25 -8.6 0.9 -8.4 L-0.25 -8.2 -1.9 -8.25 -2.6 -6.75 -3.25 -6.95 -6.35 -5.5 Q-7.3 -2.4 -9.25 -2.25 L-10.4 -2.45 -9.8 -4.65 Q-6.55 -7.5 -2.5 -8.95 L-0.25 -9.75 0.3 -9.7 Q0.65 -11.9 4.45 -10.8 L5.0 -10.6 5.1 -9.85 5.6 -9.45 7.45 -9.55 M4.1 -7.05 L3.4 -6.55 5.3 -3.7 5.05 -3.3 7.0 -1.55 6.75 -0.7 6.35 -0.55 Q4.65 0.15 3.4 -1.0 L3.25 -1.7 3.3 -2.5 4.05 -3.25 1.8 -5.15 -1.15 -1.65 -2.9 -1.65 -3.5 -2.6 -3.2 -4.1 -0.45 -4.95 -0.2 -5.45 1.55 -7.65 2.75 -7.3 3.15 -8.0 3.8 -8.35 3.65 -7.75 4.1 -7.05 M14.2 1.85 Q15.15 1.85 15.85 2.35 16.5 2.8 16.5 3.5 16.0 5.8 14.55 5.15 L14.0 5.05 13.9 2.25 14.2 1.85" fill="#ff0000" fill-rule="evenodd" stroke="none"/>
      <path d="M7.6 -9.75 L7.45 -9.55 5.6 -9.45 5.1 -9.85 5.0 -10.6 5.45 -12.25 Q7.5 -11.5 7.6 -9.75 M7.85 -6.85 L7.75 -6.25 Q7.75 -5.85 7.25 -5.55 6.75 -5.25 6.05 -5.25 L4.1 -7.05 3.65 -7.75 3.8 -8.35 4.4 -8.75 Q5.85 -8.75 6.85 -8.2 7.85 -7.65 7.85 -6.85" fill="#ffffff" fill-rule="evenodd" stroke="none"/>
      <path d="M19.9 2.25 L19.55 2.95 18.25 4.5 17.85 4.55 17.8 4.5 16.5 3.5 Q16.5 2.8 15.85 2.35 15.15 1.85 14.2 1.85 10.75 -0.8 9.85 -0.75 L7.75 -0.85 7.75 -0.8 7.45 0.5 Q6.9 1.25 5.35 1.25 3.5 1.25 3.0 0.4 2.8 -0.05 2.9 -0.5 2.9 -1.2 3.25 -1.7 L3.4 -1.0 Q4.65 0.15 6.35 -0.55 L6.75 -0.7 7.0 -1.55 5.05 -3.3 5.3 -3.7 3.4 -6.55 4.1 -7.05 6.05 -5.25 Q8.5 -1.95 12.55 -0.9 L13.75 -0.75 14.05 -1.6 Q11.2 -4.55 7.75 -6.25 L7.85 -6.85 8.25 -7.1 8.3 -7.1 Q9.1 -6.55 13.15 -4.45 L10.85 -6.05 11.55 -5.65 14.65 -3.3 Q15.55 -2.65 16.6 -0.65 L17.0 0.1 17.0 0.25 16.45 0.2 13.0 -0.55 12.85 -0.5 14.8 1.2 Q16.8 2.6 18.75 2.6 19.55 2.6 19.9 2.25 M-2.6 -6.75 L-1.9 -8.25 -0.25 -8.2 0.9 -8.4 Q1.25 -8.6 1.25 -9.0 L1.5 -9.2 Q1.9 -9.55 2.15 -9.55 L4.4 -8.75 3.8 -8.35 3.15 -8.0 2.75 -7.3 1.55 -7.65 -0.2 -5.45 -0.25 -5.6 -0.25 -6.05 -2.6 -6.75 M3.3 -2.5 L2.25 -3.15 -0.85 -0.1 -2.0 -0.05 -3.0 -0.7 -3.4 -1.05 Q-3.9 -1.7 -3.5 -2.6 L-2.9 -1.65 -1.15 -1.65 1.8 -5.15 4.05 -3.25 3.3 -2.5" fill="#990000" fill-rule="evenodd" stroke="none"/>
      <path d="M7.75 -6.25 Q11.2 -4.55 14.05 -1.6 L13.75 -0.75 12.55 -0.9 Q8.5 -1.95 6.05 -5.25 6.75 -5.25 7.25 -5.55 7.75 -5.85 7.75 -6.25" fill="#650101" fill-rule="evenodd" stroke="none"/>
      <path d="M17.8 4.5 L19.85 10.1 Q16.55 7.15 15.15 6.9 7.6 3.3 4.1 2.8 0.6 2.25 -2.5 2.75 L-2.55 2.75 Q-5.65 3.3 -8.0 4.6 -10.4 5.9 -14.2 5.7 -18.05 5.5 -19.6 4.75 -13.9 -2.15 -9.8 -4.65 L-10.4 -2.45 -9.25 -2.25 Q-7.3 -2.4 -6.35 -5.5 L-3.25 -6.95 -2.6 -6.75 -0.25 -6.05 -0.25 -5.6 -0.2 -5.45 -0.45 -4.95 -3.2 -4.1 -3.5 -2.6 Q-3.9 -1.7 -3.4 -1.05 L-3.0 -0.7 -2.0 -0.05 -0.85 -0.1 2.25 -3.15 3.3 -2.5 3.25 -1.7 Q2.9 -1.2 2.9 -0.5 2.8 -0.05 3.0 0.4 3.5 1.25 5.35 1.25 6.9 1.25 7.45 0.5 L7.75 -0.8 7.75 -0.85 9.85 -0.75 Q10.75 -0.8 14.2 1.85 L13.9 2.25 14.0 5.05 14.55 5.15 Q16.0 5.8 16.5 3.5 L17.8 4.5" fill="#e2b181" fill-rule="evenodd" stroke="none"/>
    </g>
    <g id="shape1" transform="matrix(1.0, 0.0, 0.0, 1.0, 47.25, 53.15)">
      <path d="M49.6 25.85 L48.75 25.0 Q47.65 25.0 47.2 25.55 L46.75 26.25 45.85 23.25 45.85 23.15 Q45.85 22.2 45.0 20.85 L45.0 20.1 Q45.0 19.15 45.3 18.05 L46.1 18.1 Q47.25 18.1 47.65 17.45 48.5 19.2 48.95 21.2 L49.6 25.85 M-45.85 15.6 L-45.75 15.6 -44.25 15.0 -44.0 14.9 -41.95 13.9 -40.9 13.4 Q-43.3 15.6 -43.6 17.05 L-43.65 17.35 -43.65 17.75 -43.6 17.95 -45.75 18.1 -46.35 17.75 Q-46.3 16.65 -45.85 15.6 M34.35 -7.9 L34.35 -7.75 34.7 -6.25 34.5 -5.8 32.7 -1.95 32.55 -1.65 Q30.7 2.1 34.25 1.85 35.85 1.75 37.7 3.55 L40.05 6.55 42.4 10.8 43.4 11.7 43.2 11.9 Q42.25 12.95 41.2 13.4 L41.15 11.5 Q40.7 10.85 39.75 10.85 L39.35 10.9 39.15 10.9 38.1 11.2 37.05 9.4 37.05 9.1 37.0 8.5 36.7 8.5 34.9 7.35 Q34.25 7.2 33.7 7.8 L32.0 10.3 Q28.6 8.5 26.25 9.75 L26.2 9.8 22.95 11.05 21.0 11.25 19.4 10.9 20.15 9.15 21.85 8.0 21.9 7.95 22.95 7.7 Q25.2 7.05 27.3 6.0 28.05 5.55 28.2 4.7 L28.3 3.55 28.3 3.45 28.15 2.95 28.0 2.4 27.6 2.15 28.1 1.6 Q29.65 0.0 30.3 -1.95 L30.75 -3.95 Q29.55 -3.35 26.7 -2.8 27.65 -7.35 26.65 -9.45 25.45 -12.05 20.65 -15.55 15.85 -19.05 14.4 -24.9 L14.35 -25.45 Q13.75 -32.4 9.3 -36.4 4.85 -40.4 -1.9 -40.45 -8.35 -40.5 -13.15 -37.05 -19.0 -34.2 -22.75 -28.7 -26.55 -23.2 -28.15 -12.05 L-28.1 -12.05 -29.65 -8.95 -31.3 -6.05 -33.05 -3.85 -31.3 -5.2 -30.95 -5.5 -27.1 -8.6 -27.85 -1.95 -28.25 4.9 Q-27.3 4.65 -29.0 6.75 -30.35 8.4 -31.3 8.65 L-31.8 8.65 -31.8 8.75 -31.3 9.25 -28.7 10.8 Q-26.0 12.15 -24.9 12.35 -23.9 12.55 -24.55 12.6 L-31.3 11.6 -31.4 11.55 -34.8 11.25 Q-36.75 11.25 -38.25 11.8 L-38.25 11.7 Q-38.25 11.1 -39.0 10.4 -39.7 9.7 -40.8 9.5 L-38.7 8.4 -37.0 6.45 -36.45 5.9 -35.35 4.05 Q-34.75 2.6 -34.3 0.75 L-34.25 -1.35 Q-34.35 0.5 -35.35 2.2 -36.5 3.85 -37.75 4.5 L-40.85 6.1 -40.75 1.55 -40.55 -1.95 -40.25 -3.8 Q-40.25 -4.6 -39.7 -6.05 -38.7 -8.9 -35.65 -14.2 L-32.85 -19.45 Q-31.7 -25.2 -30.7 -27.9 -27.7 -35.8 -21.1 -41.6 -25.25 -37.7 -24.95 -32.9 -24.3 -35.75 -21.75 -38.0 -19.2 -40.25 -17.75 -40.55 -16.3 -40.8 -15.95 -41.0 -13.45 -42.1 -7.15 -43.25 L1.85 -43.25 Q10.55 -42.1 16.05 -37.85 18.05 -35.5 19.55 -32.75 21.55 -29.05 22.25 -25.6 23.15 -23.8 25.5 -21.7 L30.4 -17.0 31.7 -14.85 33.0 -11.2 Q33.85 -8.6 34.35 -7.9 M16.6 10.0 L15.25 9.45 16.65 9.7 17.0 9.75 16.6 10.0 M-16.7 9.85 L-10.15 8.75 -9.85 8.7 Q-8.05 7.7 -6.0 6.8 -1.75 5.05 3.0 5.7 4.6 5.65 5.8 6.55 L-3.25 8.95 -3.75 9.05 -8.5 10.3 -16.3 10.0 -16.7 9.85 M-36.75 -0.65 L-36.7 -0.65 -37.05 -0.75 -36.75 -0.65" fill="#ad4949" fill-rule="evenodd" stroke="none"/>
      <path d="M-16.2 -49.7 Q-14.95 -51.3 -13.0 -52.15 -10.15 -53.5 -6.85 -53.05 L3.25 -51.55 7.8 -50.75 Q9.4 -50.5 10.85 -49.75 L13.2 -48.25 Q14.8 -46.95 15.2 -44.85 L18.9 -41.6 Q22.25 -38.35 24.75 -34.3 L29.5 -26.75 Q31.85 -23.05 33.6 -19.2 32.0 -20.35 30.95 -22.05 30.15 -23.35 29.6 -24.85 L28.55 -26.9 26.5 -29.75 20.55 -37.45 16.55 -42.3 13.25 -45.9 11.5 -45.65 11.25 -47.65 10.75 -47.65 9.75 -47.15 8.9 -48.5 5.1 -49.9 4.1 -49.2 -2.6 -49.4 -5.75 -50.15 -6.05 -50.85 -7.85 -50.15 -9.35 -50.75 -10.75 -51.05 Q-13.55 -50.65 -16.2 -49.7 M38.35 -6.0 L42.0 -2.2 42.2 -1.95 Q44.45 0.85 45.55 3.55 L45.9 4.55 46.55 6.55 47.5 8.95 Q50.7 13.15 50.8 18.1 L50.6 20.7 50.25 17.15 Q49.3 12.55 46.25 8.95 L45.7 7.3 45.55 6.55 44.65 3.8 44.55 3.55 Q43.85 1.7 43.0 0.35 L41.2 -1.95 40.35 -2.8 Q38.6 -4.5 38.35 -6.0" fill="#fff9d4" fill-rule="evenodd" stroke="none"/>
      <path d="M-16.2 -49.7 Q-13.55 -50.65 -10.75 -51.05 L-9.35 -50.75 -7.85 -50.15 -6.05 -50.85 -5.75 -50.15 -2.6 -49.4 4.1 -49.2 5.1 -49.9 8.9 -48.5 9.75 -47.15 10.75 -47.65 11.25 -47.65 11.5 -45.65 13.25 -45.9 16.55 -42.3 20.55 -37.45 26.5 -29.75 28.55 -26.9 29.6 -24.85 Q30.15 -23.35 30.95 -22.05 32.0 -20.35 33.6 -19.2 L35.5 -15.5 Q36.3 -13.95 37.0 -10.65 L37.25 -9.15 37.65 -7.0 38.35 -6.0 Q38.6 -4.5 40.35 -2.8 L41.2 -1.95 43.0 0.35 Q43.85 1.7 44.55 3.55 L44.65 3.8 45.55 6.55 45.7 7.3 46.25 8.95 Q49.3 12.55 50.25 17.15 L50.6 20.7 51.2 26.5 51.4 27.9 49.6 25.85 48.95 21.2 48.85 17.7 Q48.8 17.0 48.9 16.75 L48.75 15.7 Q48.3 13.85 46.85 11.65 L45.7 10.0 44.85 8.95 44.05 6.55 44.0 6.45 42.85 3.55 41.5 0.95 39.45 -1.95 37.35 -4.1 35.4 -5.7 35.15 -5.9 35.05 -6.0 34.7 -6.25 34.35 -7.75 34.35 -7.9 34.2 -10.15 33.8 -12.45 Q32.7 -18.25 29.7 -22.55 26.7 -26.8 23.05 -32.5 19.4 -38.25 17.5 -40.25 L13.6 -43.5 Q2.4 -48.1 -9.6 -47.85 L-17.55 -47.05 -16.2 -49.7" fill="#cec9ab" fill-rule="evenodd" stroke="none"/>
      <path d="M-47.25 17.15 L-47.2 16.35 -47.0 15.1 Q-46.5 15.55 -45.85 15.6 -46.3 16.65 -46.35 17.75 L-47.25 17.15 M-43.95 9.9 L-44.65 10.0 Q-45.2 10.0 -46.65 8.9 L-46.7 7.35 -46.75 6.45 -46.75 6.25 Q-46.75 2.55 -45.75 -1.5 L-45.65 -1.95 -44.8 -6.05 -44.4 -7.5 Q-42.1 -15.35 -37.25 -22.65 -35.7 -24.95 -33.55 -30.15 -31.4 -35.3 -29.7 -37.85 -25.7 -43.7 -17.55 -47.05 L-9.6 -47.85 Q2.4 -48.1 13.6 -43.5 L17.5 -40.25 Q19.4 -38.25 23.05 -32.5 26.7 -26.8 29.7 -22.55 32.7 -18.25 33.8 -12.45 L34.2 -10.15 34.35 -7.9 Q33.85 -8.6 33.0 -11.2 L31.7 -14.85 30.4 -17.0 25.5 -21.7 Q23.15 -23.8 22.25 -25.6 21.55 -29.05 19.55 -32.75 18.05 -35.5 16.05 -37.85 10.55 -42.1 1.85 -43.25 L-7.15 -43.25 Q-13.45 -42.1 -15.95 -41.0 -16.3 -40.8 -17.75 -40.55 -19.2 -40.25 -21.75 -38.0 -24.3 -35.75 -24.95 -32.9 -25.25 -37.7 -21.1 -41.6 -27.7 -35.8 -30.7 -27.9 -31.7 -25.2 -32.85 -19.45 L-35.65 -14.2 Q-38.7 -8.9 -39.7 -6.05 -40.25 -4.6 -40.25 -3.8 L-40.55 -1.95 -40.75 1.55 -40.85 6.1 -37.75 4.5 Q-36.5 3.85 -35.35 2.2 -34.35 0.5 -34.25 -1.35 L-34.3 0.75 Q-34.75 2.6 -35.35 4.05 L-36.45 5.9 -37.0 6.45 -38.7 8.4 -40.8 9.5 -42.0 9.4 -43.15 9.7 -43.3 9.7 -43.95 9.9 M34.7 -6.25 L35.05 -6.0 35.15 -5.9 35.4 -5.7 37.35 -4.1 39.45 -1.95 41.5 0.95 42.85 3.55 44.0 6.45 44.05 6.55 44.85 8.95 45.7 10.0 Q45.25 10.05 44.65 10.55 44.05 10.95 43.4 11.7 L42.4 10.8 40.05 6.55 37.7 3.55 Q35.85 1.75 34.25 1.85 30.7 2.1 32.55 -1.65 L32.7 -1.95 34.5 -5.8 34.7 -6.25 M46.85 11.65 Q48.3 13.85 48.75 15.7 L48.9 16.75 Q48.8 17.0 48.85 17.7 L48.95 21.2 Q48.5 19.2 47.65 17.45 L47.75 17.25 47.85 16.0 Q47.85 14.5 46.95 14.05 L46.8 13.95 47.0 12.6 46.85 11.65 M-43.4 2.4 L-43.55 2.4 -43.55 2.55 -43.4 2.4" fill="#e98d8d" fill-rule="evenodd" stroke="none"/>
      <path d="M-38.25 11.8 Q-36.75 11.25 -34.8 11.25 L-31.4 11.55 -31.3 11.6 -24.55 12.6 Q-23.9 12.55 -24.9 12.35 -26.0 12.15 -28.7 10.8 L-31.3 9.25 -31.8 8.75 -31.8 8.65 -31.3 8.65 Q-30.35 8.4 -29.0 6.75 -27.3 4.65 -28.25 4.9 L-27.85 -1.95 -27.1 -8.6 -30.95 -5.5 -31.3 -5.2 -33.05 -3.85 -31.3 -6.05 -29.65 -8.95 -28.1 -12.05 -28.15 -12.05 Q-26.55 -23.2 -22.75 -28.7 -19.0 -34.2 -13.15 -37.05 -8.35 -40.5 -1.9 -40.45 4.85 -40.4 9.3 -36.4 13.75 -32.4 14.35 -25.45 L14.4 -24.9 Q15.85 -19.05 20.65 -15.55 25.45 -12.05 26.65 -9.45 27.65 -7.35 26.7 -2.8 29.55 -3.35 30.75 -3.95 L30.3 -1.95 Q29.65 0.0 28.1 1.6 L27.6 2.15 Q26.1 2.15 24.8 3.05 L24.15 3.55 22.95 4.45 Q20.2 6.6 17.75 9.05 L17.0 9.75 16.65 9.7 15.25 9.45 16.6 10.0 Q15.25 10.85 13.9 11.3 L14.05 11.45 14.15 12.6 15.85 13.25 15.45 14.6 Q14.45 13.15 13.0 13.05 11.9 11.75 10.5 11.75 9.05 11.75 8.65 13.3 L8.6 13.7 8.4 14.95 8.25 16.5 8.15 15.05 7.85 14.2 7.1 13.0 4.25 11.0 Q1.8 11.45 1.6 12.0 L1.5 12.3 1.1 13.9 1.0 15.1 1.05 16.9 1.05 17.05 1.1 17.25 2.25 19.15 2.5 19.5 1.8 19.3 Q-2.25 18.35 -2.85 22.0 L-2.95 22.45 Q-3.9 22.3 -4.3 21.45 L-4.5 21.0 -4.8 22.05 -5.3 24.25 Q-5.6 25.7 -6.7 26.8 L-8.1 26.85 -8.0 26.5 -7.9 25.65 -7.9 25.55 -8.0 24.75 -8.0 24.55 Q-8.0 22.85 -9.85 23.05 L-10.15 23.1 -11.85 21.9 Q-11.85 21.6 -12.0 21.4 L-12.1 21.4 -14.7 21.45 Q-16.3 21.15 -17.1 19.75 L-18.75 17.0 -18.95 17.45 Q-19.4 18.3 -19.4 19.25 L-19.2 19.95 Q-18.95 20.35 -19.0 20.9 L-19.2 21.15 -20.35 22.2 -22.2 23.8 Q-23.35 24.9 -23.0 26.5 L-24.75 26.5 -26.6 22.15 Q-26.45 20.95 -25.3 20.4 -23.5 19.6 -23.5 18.4 -23.5 17.55 -24.15 17.2 -24.45 17.0 -24.8 16.95 L-24.85 16.95 -25.7 17.05 Q-25.4 16.8 -25.4 16.3 -25.4 15.5 -25.75 14.95 -25.8 13.65 -28.75 13.4 -31.75 13.2 -31.75 14.8 L-31.75 14.95 -31.8 15.5 -31.4 16.5 Q-30.75 17.75 -29.5 17.75 L-28.5 17.45 -27.55 17.15 -26.25 17.25 -25.8 17.15 Q-26.25 17.5 -26.25 18.45 L-26.25 18.65 -27.1 20.0 -27.7 20.9 -32.6 20.7 -33.05 20.4 -33.2 20.35 -33.25 20.3 Q-34.35 19.7 -35.15 19.45 L-34.35 18.55 -33.4 17.15 Q-33.4 14.85 -36.8 16.9 L-36.9 16.95 -38.75 15.25 Q-39.25 15.85 -40.1 16.0 L-42.55 16.0 -43.6 17.95 -43.65 17.75 -43.65 17.35 -43.6 17.05 Q-43.3 15.6 -40.9 13.4 L-40.15 13.05 -38.25 11.8 M21.9 7.95 L21.85 8.0 20.15 9.15 21.9 7.95 M19.4 10.9 L21.0 11.25 22.95 11.05 26.2 9.8 26.25 9.75 Q28.6 8.5 32.0 10.3 L29.95 13.0 Q29.45 13.1 29.05 13.35 28.6 13.5 28.35 13.85 27.55 15.05 27.9 16.7 L28.95 17.4 28.8 18.0 28.75 18.5 31.95 20.8 32.3 21.15 33.2 22.6 33.4 23.65 33.35 24.25 33.3 24.55 33.05 25.95 33.0 26.0 33.0 26.25 33.15 27.55 32.1 27.15 31.25 26.75 31.0 26.55 30.65 26.15 Q29.8 25.1 29.75 23.25 29.7 21.5 28.1 21.5 27.2 21.5 26.2 22.45 L25.9 22.75 Q24.7 24.0 23.25 24.0 L22.95 24.0 Q21.4 23.9 20.5 22.9 19.6 21.9 19.5 20.25 L18.7 20.15 18.3 19.9 19.1 19.85 Q20.8 18.35 20.35 15.9 L19.4 10.9 M15.7 7.6 L15.85 4.9 15.2 4.35 11.6 4.25 10.75 7.25 Q10.7 8.35 11.4 9.2 12.05 10.05 13.1 10.15 14.1 10.2 14.9 9.5 15.65 8.75 15.7 7.6 M-3.25 8.95 L5.8 6.55 Q4.6 5.65 3.0 5.7 -1.75 5.05 -6.0 6.8 -8.05 7.7 -9.85 8.7 L-10.15 8.75 -16.7 9.85 -18.05 8.75 Q-18.05 8.2 -18.45 7.8 -18.9 7.4 -19.5 7.4 L-20.2 7.65 -20.5 8.25 -21.65 10.45 Q-21.1 11.75 -19.9 12.4 -19.25 12.85 -18.5 12.9 L-15.5 12.6 -16.05 13.95 -16.15 14.2 -16.55 14.5 -17.3 16.3 -13.45 19.35 -12.25 20.05 Q-11.05 20.6 -9.65 20.5 -8.9 20.45 -8.25 19.9 L-8.0 18.75 -8.3 18.1 Q-8.3 17.65 -8.85 17.35 L-10.3 17.05 -10.75 16.45 Q-10.55 15.45 -11.45 14.75 -12.05 14.25 -12.75 13.85 L-13.6 13.35 Q-13.55 12.55 -14.1 11.75 -14.9 10.45 -16.3 10.0 L-8.5 10.3 -3.75 9.05 Q-4.65 9.9 -4.25 11.0 L-4.0 11.5 -4.7 11.75 -6.25 11.6 -7.6 12.35 Q-8.4 14.35 -7.5 16.25 -6.9 17.6 -5.9 18.2 -4.55 18.55 -3.55 17.5 L-2.1 15.8 Q-1.2 15.05 -1.45 13.7 L-1.7 12.75 -2.0 12.0 Q-0.9 11.55 -1.05 10.45 L-1.2 9.9 -1.55 9.4 Q-1.95 9.1 -2.5 9.1 L-2.55 9.1 -3.25 8.95" fill="#8e3c3c" fill-rule="evenodd" stroke="none"/>
      <path d="M-44.25 15.0 L-44.25 14.6 -44.0 13.3 -43.75 12.0 -43.8 11.5 -43.6 11.5 Q-42.3 11.5 -40.8 12.55 L-40.15 13.05 -40.9 13.4 -41.95 13.9 -44.0 14.9 -44.25 15.0 M-34.35 18.55 L-35.15 19.45 Q-34.35 19.7 -33.25 20.3 L-33.2 20.35 -33.05 20.4 -34.25 21.75 Q-32.0 22.7 -30.75 23.9 L-31.25 24.75 -34.5 25.5 -34.55 24.75 Q-35.25 20.3 -39.65 19.1 L-37.4 17.25 -37.35 17.25 Q-36.8 17.25 -35.0 18.2 L-34.35 18.55 M1.05 16.9 L1.0 15.1 1.1 13.9 1.5 12.3 2.55 12.25 Q4.3 12.25 5.15 12.8 5.95 13.35 6.75 14.85 L6.9 15.0 7.85 14.2 8.15 15.05 8.25 16.5 8.4 14.95 8.6 13.7 Q9.65 13.0 10.8 13.0 11.95 13.0 13.2 13.75 L13.65 14.05 13.75 14.25 14.25 15.45 14.3 15.6 14.75 18.35 14.75 18.4 Q14.35 17.5 12.85 17.35 L11.25 17.1 Q10.2 17.1 9.7 17.65 8.4 17.9 7.05 18.3 L6.7 18.3 Q6.25 17.75 4.85 17.15 3.9 16.7 3.5 16.9 2.3 16.55 1.05 16.9 M15.7 7.6 Q15.65 8.75 14.9 9.5 14.1 10.2 13.1 10.15 12.05 10.05 11.4 9.2 10.7 8.35 10.75 7.25 L13.25 7.0 Q14.7 6.85 15.7 7.6 M-36.75 -0.65 L-37.05 -0.75 -36.7 -0.65 -36.75 -0.65 M-43.4 2.4 L-43.55 2.55 -43.55 2.4 -43.4 2.4" fill="#e2b181" fill-rule="evenodd" stroke="none"/>
      <path d="M43.75 19.0 L44.0 19.6 36.3 26.8 35.75 25.25 38.5 21.4 38.0 21.2 38.6 19.35 32.75 20.85 31.5 17.6 32.95 18.85 34.7 16.7 35.8 17.1 Q38.85 18.4 41.95 17.55 L43.75 19.0 M24.95 41.65 L20.3 39.6 Q18.75 36.65 16.2 34.55 L14.9 33.5 15.7 33.2 Q18.9 36.2 22.95 36.5 L25.35 36.4 25.8 36.3 26.2 36.2 26.65 36.15 26.25 36.65 27.45 37.5 28.75 37.4 27.7 39.1 26.2 39.0 26.15 39.0 24.95 41.65 M-5.85 41.95 Q-5.25 42.65 -5.75 43.7 L-6.45 44.6 -8.25 46.0 -9.5 49.0 -9.8 47.55 -12.25 48.05 -12.9 48.65 -12.25 49.7 -10.9 50.05 -11.5 50.0 -11.8 51.15 Q-12.25 52.7 -13.4 53.75 -14.15 54.4 -15.1 54.15 L-14.75 53.95 -13.8 51.6 -18.25 51.9 -22.95 50.15 -21.65 49.75 -20.8 48.65 -20.35 49.0 Q-19.5 49.65 -18.5 49.3 L-17.65 48.55 -17.25 49.3 -16.5 49.3 Q-15.8 49.05 -15.25 48.6 L-12.25 46.35 -12.6 45.55 -13.15 45.45 -13.65 44.8 -14.25 44.3 -15.75 43.5 -13.5 43.65 Q-12.8 42.1 -13.5 40.5 -14.6 37.8 -17.25 36.9 L-16.3 34.9 -17.55 34.3 -17.05 32.7 -17.85 31.6 -13.0 33.95 Q-12.5 35.75 -10.7 36.8 L-10.1 37.45 -13.0 36.85 -10.45 38.35 -10.25 38.75 -10.45 39.55 Q-9.7 40.5 -8.35 40.4 -7.2 40.75 -6.4 41.45 L-5.85 41.95 M-24.5 48.7 L-25.1 47.75 -26.7 43.9 -24.75 42.4 -24.0 43.1 -23.5 43.15 -19.6 39.75 -19.6 39.05 -17.85 39.85 -17.35 39.75 -16.9 39.35 -14.9 42.5 -20.85 43.55 Q-22.3 43.8 -22.25 45.15 L-22.25 45.25 -20.9 44.75 Q-18.35 44.5 -16.2 45.45 L-14.7 46.0 -17.3 47.85 -17.25 47.0 -17.85 46.25 Q-18.45 45.65 -19.2 45.2 -20.65 44.4 -21.65 45.6 L-22.6 46.75 -24.5 48.7 M-28.95 42.2 L-29.0 38.7 -29.15 38.05 -31.25 37.6 -31.5 36.75 -29.75 36.7 -29.15 36.3 Q-27.25 36.3 -25.8 34.95 L-24.95 34.05 -24.5 34.35 -24.05 38.6 Q-25.4 40.85 -27.7 41.75 L-28.95 42.2 M-34.45 34.8 Q-35.5 34.8 -36.2 34.25 -36.95 33.65 -36.95 32.85 -36.95 32.05 -36.5 31.5 -36.1 30.95 -35.5 30.95 L-33.15 31.05 -30.75 29.25 -30.25 29.25 -29.75 30.5 -28.2 28.95 -26.0 29.4 -26.7 30.35 Q-29.65 34.1 -34.45 34.8 M-41.55 23.3 L-42.15 21.05 Q-41.1 21.05 -40.35 20.5 -39.65 19.9 -39.65 19.1 -35.25 20.3 -34.55 24.75 L-34.5 25.5 -31.25 24.75 -30.75 23.9 -29.95 23.0 -29.6 25.4 Q-29.85 25.4 -30.05 25.7 L-30.25 26.35 -32.95 27.8 -35.6 28.45 -37.15 28.4 -38.75 22.65 -41.55 23.3 M28.15 2.95 L28.3 3.45 28.3 3.55 28.2 4.7 Q28.05 5.55 27.3 6.0 25.2 7.05 22.95 7.7 L21.9 7.95 20.15 9.15 19.4 10.9 20.35 15.9 Q20.8 18.35 19.1 19.85 L18.3 19.9 Q16.7 19.9 15.95 18.5 14.95 16.6 15.45 14.6 L15.85 13.25 14.15 12.6 14.05 11.45 14.5 11.9 17.2 11.6 17.65 11.5 16.7 12.9 16.3 13.8 Q16.05 15.3 17.0 16.45 L17.6 17.05 17.85 17.15 Q18.45 17.25 18.75 16.65 19.6 15.2 19.35 13.5 19.15 11.75 18.4 10.15 L28.15 2.95 M37.05 9.4 L38.1 11.2 37.45 12.05 37.5 13.05 Q38.45 13.95 39.8 13.35 L40.55 12.65 40.85 11.6 40.55 11.2 39.35 10.9 39.75 10.85 Q40.7 10.85 41.15 11.5 L41.2 13.4 Q41.2 14.35 40.45 15.0 39.7 15.65 38.6 15.65 37.95 15.65 37.5 15.15 37.05 14.65 37.05 13.95 L37.25 12.8 37.15 12.55 37.15 12.5 36.35 12.0 34.85 12.05 33.6 12.7 Q32.4 14.6 31.45 16.6 31.15 17.25 30.55 17.45 L28.95 17.4 27.9 16.7 Q27.55 15.05 28.35 13.85 28.6 13.5 29.05 13.35 29.45 13.1 29.95 13.0 L28.25 14.6 28.25 15.55 30.1 16.3 31.25 15.0 33.85 10.95 34.45 10.05 34.9 9.6 36.5 10.0 37.05 9.4 M-27.7 20.9 L-27.1 20.0 -27.3 20.65 Q-27.3 21.3 -27.15 21.0 L-25.55 19.8 -24.05 18.25 -24.15 17.2 Q-23.5 17.55 -23.5 18.4 -23.5 19.6 -25.3 20.4 -26.45 20.95 -26.6 22.15 L-26.75 23.45 -27.45 23.4 -27.7 22.9 Q-28.1 21.85 -27.7 20.9 M-26.25 18.65 L-26.25 18.45 Q-26.25 17.5 -25.8 17.15 L-26.25 17.25 -27.55 17.15 -28.5 17.45 -29.5 17.75 Q-30.75 17.75 -31.4 16.5 L-31.8 15.5 -31.75 14.95 -31.7 15.5 Q-31.45 16.35 -30.6 16.35 -30.1 16.35 -29.85 16.0 -29.6 15.65 -29.2 15.65 L-26.5 15.75 Q-25.75 15.75 -25.75 15.0 L-25.75 14.95 Q-25.4 15.5 -25.4 16.3 -25.4 16.8 -25.7 17.05 L-24.85 16.95 -24.8 16.95 -25.65 17.8 -26.25 18.65 M-8.0 24.75 L-7.9 25.55 -7.9 25.65 -8.0 26.5 -8.1 26.85 Q-8.3 27.55 -9.05 28.05 -9.6 28.45 -10.35 28.45 -11.65 28.55 -12.25 27.5 L-12.3 26.8 Q-12.4 25.4 -11.65 24.3 L-11.75 24.95 -11.65 25.85 Q-11.4 26.65 -10.25 26.65 -9.1 26.65 -8.45 25.75 -8.05 25.2 -8.0 24.75 M-2.95 22.45 L-2.85 22.0 -2.05 21.0 -1.25 20.4 1.8 19.3 2.5 19.5 2.25 19.15 3.65 19.05 5.35 20.65 Q6.8 21.95 8.7 22.15 L8.5 22.75 12.55 24.2 12.5 25.25 13.4 24.55 17.5 26.45 17.75 27.7 20.2 27.8 Q21.35 28.05 21.6 29.35 L22.45 28.9 22.95 29.15 25.3 30.25 26.2 30.6 27.75 30.95 Q28.4 30.85 28.85 31.3 L28.75 31.5 Q28.1 32.9 26.65 33.55 L26.2 33.8 24.75 34.5 22.95 34.5 Q21.45 34.15 19.55 33.05 L24.25 33.7 26.2 33.6 26.65 33.55 26.2 33.4 Q24.4 32.8 22.95 31.75 L21.7 30.7 Q20.4 29.55 18.6 29.55 17.05 29.9 15.6 30.5 L10.15 27.25 Q6.3 24.85 2.1 23.8 L4.15 23.75 Q5.2 23.75 6.0 22.95 L6.15 22.85 5.6 22.65 5.2 23.1 2.8 22.9 -0.25 22.15 -1.65 22.15 -2.1 22.35 -2.3 22.95 -3.0 23.1 -2.95 22.45 M46.95 14.05 Q47.85 14.5 47.85 16.0 L47.75 17.25 47.65 17.45 Q47.25 18.1 46.1 18.1 L45.3 18.05 Q44.45 17.85 44.15 17.25 L44.1 16.25 Q44.1 14.9 44.8 14.35 L44.65 15.05 44.7 15.85 Q45.0 16.75 46.1 16.75 47.5 16.75 47.5 15.2 47.5 14.4 46.95 14.05 M33.4 23.65 L34.0 23.6 33.3 24.55 33.35 24.25 33.4 23.65 M33.05 25.95 L33.45 25.8 33.0 26.25 33.0 26.0 33.05 25.95 M34.45 30.0 L35.65 28.75 35.7 30.2 35.0 30.0 35.0 30.25 34.45 30.0 M35.65 30.3 L35.45 31.0 35.25 31.0 35.0 30.5 35.0 30.25 35.65 30.3 M-3.75 9.05 L-3.25 8.95 -2.55 9.1 Q-3.1 9.1 -3.4 9.4 -3.8 9.65 -3.8 10.05 -3.8 10.45 -3.4 10.75 L-2.5 11.0 -1.55 10.75 Q-1.2 10.45 -1.2 10.05 L-1.2 9.9 -1.05 10.45 Q-0.9 11.55 -2.0 12.0 L-3.5 11.95 -4.0 11.5 -4.25 11.0 Q-4.65 9.9 -3.75 9.05 M-2.1 15.8 L-3.55 17.5 Q-4.55 18.55 -5.9 18.2 -6.9 17.6 -7.5 16.25 -8.4 14.35 -7.6 12.35 L-6.25 11.6 Q-7.8 12.65 -7.1 14.6 L-6.9 15.0 Q-5.75 16.1 -4.2 15.25 -3.4 14.85 -2.95 14.05 -2.7 13.55 -2.7 12.95 L-3.25 12.45 Q-2.2 13.1 -1.9 14.15 -1.7 14.95 -2.1 15.8 M0.15 25.2 Q0.0 25.55 0.0 25.85 0.0 26.4 3.45 27.65 L5.6 28.4 7.65 29.3 Q6.85 29.55 6.0 30.0 4.55 30.75 3.3 30.95 L0.9 29.25 Q-0.7 28.15 -1.65 27.95 L-2.85 24.7 -2.7 24.65 -2.0 24.75 -1.75 24.9 Q-1.05 25.5 -0.35 25.5 L0.15 25.2 M14.75 18.4 L14.75 18.45 14.75 18.4 M11.85 20.75 L11.9 20.8 11.75 20.75 11.85 20.75 M1.9 31.0 L1.1 30.95 0.8 30.8 1.9 31.0 M32.25 32.4 L32.25 32.5 31.5 34.3 31.55 34.3 31.4 34.4 Q31.65 33.3 32.25 32.4 M-20.5 8.25 Q-20.55 10.1 -18.75 10.85 L-16.3 11.95 Q-15.55 12.2 -14.8 12.6 -14.5 13.35 -15.05 14.1 L-15.6 14.75 -16.15 15.15 Q-13.35 17.9 -10.0 19.05 -8.55 19.5 -8.3 18.1 L-8.0 18.75 -8.25 19.9 Q-8.9 20.45 -9.65 20.5 -11.05 20.6 -12.25 20.05 L-13.45 19.35 -17.3 16.3 -16.55 14.5 -16.15 14.2 -16.05 13.95 -15.5 12.6 -18.5 12.9 Q-19.25 12.85 -19.9 12.4 -21.1 11.75 -21.65 10.45 L-20.5 8.25 M-10.3 17.05 L-11.15 17.15 -10.75 16.45 -10.3 17.05 M-19.5 7.4 Q-18.9 7.4 -18.45 7.8 -18.05 8.2 -18.05 8.75 L-19.5 7.4 M-13.55 26.95 L-13.45 30.6 -16.35 29.2 -15.55 29.4 -15.4 29.0 Q-15.85 27.95 -18.05 26.95 L-18.95 26.55 -18.75 26.35 -15.35 24.85 -14.95 25.05 -15.05 25.4 -15.3 25.35 -15.05 25.6 -14.85 26.1 Q-14.5 26.65 -13.55 26.95 M-21.15 30.55 L-19.45 34.2 -21.45 33.75 -21.15 30.55 M-21.75 36.2 L-21.6 36.35 -21.85 36.45 -21.75 36.2 M-22.55 37.65 L-21.85 37.95 -22.75 37.95 -23.0 38.0 -22.55 37.65 M-25.6 32.2 L-25.9 32.0 -25.55 31.75 -25.6 32.2" fill="#990000" fill-rule="evenodd" stroke="none"/>
      <path d="M10.4 40.9 L14.25 44.75 12.75 44.75 Q10.65 44.25 8.05 41.9 L7.15 41.0 4.25 38.0 0.15 32.3 0.75 32.15 0.85 31.5 4.0 34.55 10.4 40.9 M-15.1 54.15 L-16.5 55.0 Q-18.4 55.85 -19.9 55.65 L-18.25 53.6 -18.25 51.9 -13.8 51.6 -14.75 53.95 -15.1 54.15 M-22.95 50.15 L-24.65 49.6 -24.5 48.7 -22.6 46.75 -21.65 45.6 Q-20.65 44.4 -19.2 45.2 -18.45 45.65 -17.85 46.25 L-17.25 47.0 -17.3 47.85 -17.65 48.55 -18.5 49.3 Q-19.5 49.65 -20.35 49.0 L-20.8 48.65 -21.65 49.75 -22.95 50.15 M-26.7 43.9 L-28.75 44.5 Q-29.55 44.6 -29.75 43.9 L-29.55 42.75 -28.95 42.2 -27.7 41.75 Q-25.4 40.85 -24.05 38.6 L-23.0 38.0 -22.75 37.95 -21.85 37.95 -19.6 39.05 -19.6 39.75 -23.5 43.15 -24.0 43.1 -24.75 42.4 -26.7 43.9 M33.45 25.8 L34.55 25.3 33.15 27.6 33.15 27.55 33.0 26.25 33.45 25.8 M0.15 25.2 L0.6 24.55 Q0.95 23.95 2.1 23.8 6.3 24.85 10.15 27.25 L15.6 30.5 15.75 30.65 19.55 33.05 Q21.45 34.15 22.95 34.5 L24.75 34.5 26.2 33.8 26.65 33.55 Q28.1 32.9 28.75 31.5 L28.85 31.3 Q28.4 30.85 27.75 30.95 L26.2 30.6 25.3 30.25 22.95 29.15 22.45 28.9 22.65 28.75 22.95 28.55 Q24.35 27.65 25.1 27.65 L26.2 27.75 Q27.85 28.0 28.25 29.25 L28.35 29.55 Q28.9 29.3 29.85 29.55 30.8 29.85 31.4 30.4 30.85 31.9 29.55 33.65 28.2 35.35 26.5 36.05 L26.2 36.15 Q26.75 35.95 26.65 36.15 L26.2 36.2 25.8 36.3 25.35 36.4 22.95 36.5 Q18.9 36.2 15.7 33.2 L15.6 33.15 13.7 32.2 11.8 31.3 7.65 29.3 5.6 28.4 3.45 27.65 Q0.0 26.4 0.0 25.85 0.0 25.55 0.15 25.2 M12.55 24.2 L8.5 22.75 8.7 22.15 9.25 22.15 10.35 21.9 11.5 21.65 13.3 22.45 Q12.7 23.55 12.55 24.2 M13.4 24.55 Q14.5 23.75 15.5 23.75 16.8 23.75 17.5 26.45 L13.4 24.55 M-2.2 31.15 L-0.35 34.15 -0.6 33.95 -4.35 31.55 -4.65 31.5 Q-3.75 31.0 -3.0 31.1 L-2.2 31.15 M-13.45 30.6 L-13.5 32.9 -10.95 31.85 Q-6.95 33.95 -3.75 36.0 -4.0 36.0 -4.0 36.5 L-6.5 36.5 -11.8 34.45 -13.0 33.95 -17.85 31.6 -20.1 30.2 -20.4 29.85 -20.65 29.25 -20.1 28.2 -18.05 28.7 -16.35 29.2 -13.45 30.6 M-29.75 26.9 L-30.25 29.25 -30.75 29.25 -33.15 31.05 -35.5 30.95 -36.0 30.9 -34.65 29.1 -32.95 27.8 -30.25 26.35 -30.0 26.9 -29.75 26.9 M-24.95 34.05 L-25.8 34.95 Q-27.25 36.3 -29.15 36.3 L-29.75 36.7 -31.5 36.75 -31.7 36.75 -30.45 35.3 -29.15 33.7 -29.0 33.75 -25.9 32.0 -25.6 32.2 -25.35 32.7 -25.0 33.25 -25.0 34.0 -24.95 34.05" fill="#ffffff" fill-rule="evenodd" stroke="none"/>
      <path d="M44.0 19.6 L44.3 22.95 Q42.75 24.85 40.0 24.75 L37.25 30.75 35.45 31.0 35.65 30.3 35.7 30.2 35.65 28.75 34.45 30.0 33.15 27.6 34.55 25.3 33.45 25.8 33.05 25.95 33.3 24.55 34.0 23.6 33.4 23.65 33.2 22.6 32.75 20.85 38.6 19.35 38.0 21.2 38.5 21.4 35.75 25.25 36.3 26.8 44.0 19.6 M33.75 35.5 L33.45 35.8 33.25 36.0 Q32.2 36.9 31.15 38.6 30.2 40.0 29.15 40.8 L29.1 40.85 29.0 41.0 Q29.1 41.15 28.6 41.15 27.5 41.75 26.25 41.75 L26.2 41.75 24.95 41.65 26.15 39.0 26.2 39.0 27.7 39.1 28.75 37.4 27.45 37.5 26.25 36.65 26.65 36.15 Q26.75 35.95 26.2 36.15 L26.5 36.05 Q28.2 35.35 29.55 33.65 30.85 31.9 31.4 30.4 32.2 31.15 32.25 32.4 31.65 33.3 31.4 34.4 L31.55 34.3 33.7 35.5 33.75 35.5 M-5.8 41.35 Q-6.05 41.35 -5.85 41.95 L-6.4 41.45 Q-7.2 40.75 -8.35 40.4 -9.7 40.5 -10.45 39.55 L-10.25 38.75 -10.45 38.35 -13.0 36.85 -10.1 37.45 -10.05 37.5 -10.05 37.55 Q-5.8 38.75 -5.8 40.65 L-5.8 41.35 M-9.5 49.0 L-9.5 49.4 Q-9.65 50.15 -10.25 50.15 L-10.9 50.05 -12.25 49.7 -12.9 48.65 -12.25 48.05 -9.8 47.55 -9.5 49.0 M-31.25 37.6 Q-32.8 37.2 -33.5 36.4 L-34.25 35.2 -34.45 34.8 Q-29.65 34.1 -26.7 30.35 L-26.0 29.4 -24.5 34.35 -24.95 34.05 -25.0 34.0 -25.0 33.25 -25.35 32.7 -25.6 32.2 -25.55 31.75 -25.9 32.0 -29.0 33.75 -29.15 33.7 -30.45 35.3 -31.7 36.75 -31.5 36.75 -31.25 37.6 M-36.95 32.85 L-37.2 32.75 -37.75 32.4 Q-39.5 30.65 -40.8 26.25 L-41.55 23.3 -38.75 22.65 -37.15 28.4 -35.6 28.45 -32.95 27.8 -34.65 29.1 -36.0 30.9 -35.5 30.95 Q-36.1 30.95 -36.5 31.5 -36.95 32.05 -36.95 32.85 M27.6 2.15 L28.0 2.4 28.15 2.95 18.4 10.15 Q19.15 11.75 19.35 13.5 19.6 15.2 18.75 16.65 18.45 17.25 17.85 17.15 L17.6 17.05 17.0 16.45 Q16.05 15.3 16.3 13.8 L16.7 12.9 17.65 11.5 17.2 11.6 14.5 11.9 14.05 11.45 13.9 11.3 Q15.25 10.85 16.6 10.0 L17.0 9.75 17.75 9.05 Q20.2 6.6 22.95 4.45 L24.15 3.55 24.8 3.05 Q26.1 2.15 27.6 2.15 M32.0 10.3 L33.7 7.8 Q34.25 7.2 34.9 7.35 L36.7 8.5 37.05 9.1 37.05 9.4 36.5 10.0 34.9 9.6 34.45 10.05 33.85 10.95 31.25 15.0 30.1 16.3 28.25 15.55 28.25 14.6 29.95 13.0 32.0 10.3 M38.1 11.2 L39.15 10.9 39.35 10.9 40.55 11.2 40.85 11.6 40.55 12.65 39.8 13.35 Q38.45 13.95 37.5 13.05 L37.45 12.05 38.1 11.2 M-27.1 20.0 L-26.25 18.65 -25.65 17.8 -24.8 16.95 Q-24.45 17.0 -24.15 17.2 L-24.05 18.25 -25.55 19.8 -27.15 21.0 Q-27.3 21.3 -27.3 20.65 L-27.1 20.0 M-31.75 14.95 L-31.75 14.8 Q-31.75 13.2 -28.75 13.4 -25.8 13.65 -25.75 14.95 L-25.75 15.0 Q-25.75 15.75 -26.5 15.75 L-29.2 15.65 Q-29.6 15.65 -29.85 16.0 -30.1 16.35 -30.6 16.35 -31.45 16.35 -31.7 15.5 L-31.75 14.95 M-10.15 23.1 L-9.85 23.05 Q-8.0 22.85 -8.0 24.55 L-8.0 24.75 Q-8.05 25.2 -8.45 25.75 -9.1 26.65 -10.25 26.65 -11.4 26.65 -11.65 25.85 L-11.75 24.95 -11.65 24.3 -10.15 23.1 M-2.85 22.0 Q-2.25 18.35 1.8 19.3 L-1.25 20.4 -2.05 21.0 -2.85 22.0 M2.25 19.15 L1.1 17.25 1.05 17.05 1.05 16.9 Q2.3 16.55 3.5 16.9 3.9 16.7 4.85 17.15 6.25 17.75 6.7 18.3 L7.05 18.3 Q8.4 17.9 9.7 17.65 10.2 17.1 11.25 17.1 L12.85 17.35 Q14.35 17.5 14.75 18.4 L14.75 18.45 Q14.7 19.8 13.65 21.75 L13.3 22.45 11.5 21.65 10.35 21.9 9.25 22.15 8.7 22.15 Q6.8 21.95 5.35 20.65 L3.65 19.05 2.25 19.15 M45.45 13.85 L46.1 13.8 46.8 13.95 46.95 14.05 Q47.5 14.4 47.5 15.2 47.5 16.75 46.1 16.75 45.0 16.75 44.7 15.85 L44.65 15.05 44.8 14.35 Q45.0 13.95 45.45 13.85 M-16.7 9.85 L-16.3 10.0 Q-14.9 10.45 -14.1 11.75 -13.55 12.55 -13.6 13.35 L-12.75 13.85 Q-12.05 14.25 -11.45 14.75 -10.55 15.45 -10.75 16.45 L-11.15 17.15 -10.3 17.05 -8.85 17.35 Q-8.3 17.65 -8.3 18.1 -8.55 19.5 -10.0 19.05 -13.35 17.9 -16.15 15.15 L-15.6 14.75 -15.05 14.1 Q-14.5 13.35 -14.8 12.6 -15.55 12.2 -16.3 11.95 L-18.75 10.85 Q-20.55 10.1 -20.5 8.25 L-20.2 7.65 -19.5 7.4 -18.05 8.75 -16.7 9.85 M-2.55 9.1 L-2.5 9.1 Q-1.95 9.1 -1.55 9.4 L-1.2 9.9 -1.2 10.05 Q-1.2 10.45 -1.55 10.75 L-2.5 11.0 -3.4 10.75 Q-3.8 10.45 -3.8 10.05 -3.8 9.65 -3.4 9.4 -3.1 9.1 -2.55 9.1 M-6.25 11.6 L-4.7 11.75 -3.25 12.45 -2.7 12.95 Q-2.7 13.55 -2.95 14.05 -3.4 14.85 -4.2 15.25 -5.75 16.1 -6.9 15.0 L-7.1 14.6 Q-7.8 12.65 -6.25 11.6 M2.1 23.8 Q0.95 23.95 0.6 24.55 L0.15 25.2 -0.35 25.5 Q-1.05 25.5 -1.75 24.9 L-2.0 24.75 -2.7 24.65 -2.85 24.7 -3.0 23.1 -2.3 22.95 -2.1 22.35 -1.65 22.15 -0.25 22.15 2.8 22.9 5.2 23.1 5.6 22.65 6.15 22.85 6.0 22.95 Q5.2 23.75 4.15 23.75 L2.1 23.8 M13.7 32.2 L15.6 33.15 15.7 33.2 14.9 33.5 13.7 32.2 M19.55 33.05 L15.75 30.65 15.6 30.5 Q17.05 29.9 18.6 29.55 20.4 29.55 21.7 30.7 L22.95 31.75 Q24.4 32.8 26.2 33.4 L26.65 33.55 26.2 33.6 24.25 33.7 19.55 33.05 M11.85 20.75 L11.75 20.75 11.9 20.8 11.85 20.75 M3.3 30.95 L2.5 31.0 1.9 31.0 0.8 30.8 0.4 30.8 0.85 31.5 0.75 32.15 0.15 32.3 4.25 38.0 -0.35 34.15 -2.2 31.15 -1.5 31.3 -1.65 27.95 Q-0.7 28.15 0.9 29.25 L3.3 30.95 M-18.75 26.35 Q-17.15 24.3 -14.85 24.0 L-14.55 24.05 -14.1 24.8 -13.55 26.95 Q-14.5 26.65 -14.85 26.1 L-15.05 25.6 -15.3 25.35 -15.05 25.4 -14.95 25.05 -15.35 24.85 -18.75 26.35 M-20.65 29.25 L-20.4 29.85 -20.1 30.2 -17.85 31.6 -17.05 32.7 -17.55 34.3 -16.3 34.9 -17.25 36.9 Q-14.6 37.8 -13.5 40.5 -12.8 42.1 -13.5 43.65 L-15.75 43.5 -14.25 44.3 -13.65 44.8 -13.15 45.45 -12.6 45.55 -12.25 46.35 -15.25 48.6 Q-15.8 49.05 -16.5 49.3 L-17.25 49.3 -17.65 48.55 -17.3 47.85 -14.7 46.0 -16.2 45.45 Q-18.35 44.5 -20.9 44.75 L-22.25 45.25 -22.25 45.15 Q-22.3 43.8 -20.85 43.55 L-14.9 42.5 -16.9 39.35 -17.35 39.75 -17.85 39.85 -19.6 39.05 -21.85 37.95 -22.55 37.65 -21.85 36.45 -21.6 36.35 -21.75 36.2 -21.45 33.75 -19.45 34.2 -21.15 30.55 -20.65 29.25 M-29.6 25.4 L-29.75 26.9 -30.0 26.9 -30.25 26.35 -30.05 25.7 Q-29.85 25.4 -29.6 25.4 M-18.95 26.55 L-18.05 26.95 Q-15.85 27.95 -15.4 29.0 L-15.55 29.4 -16.35 29.2 -18.05 28.7 -20.1 28.2 -18.95 26.55" fill="#ff0000" fill-rule="evenodd" stroke="none"/>
      <path d="M20.3 39.6 L19.4 39.0 Q18.9 38.6 18.25 38.6 L17.5 38.1 17.05 38.0 Q17.25 39.2 16.95 39.65 15.75 41.25 13.75 41.25 L12.4 41.1 10.4 40.9 4.0 34.55 0.85 31.5 0.4 30.8 0.8 30.8 1.1 30.95 1.9 31.0 2.5 31.0 3.3 30.95 Q4.55 30.75 6.0 30.0 6.85 29.55 7.65 29.3 L11.8 31.3 13.7 32.2 14.9 33.5 16.2 34.55 Q18.75 36.65 20.3 39.6 M7.15 41.0 L6.1 41.5 Q4.9 42.25 3.85 42.25 3.0 42.25 1.5 41.25 0.05 40.25 -1.0 40.25 -1.85 40.25 -3.0 40.75 L-5.8 41.35 -5.8 40.65 Q-5.8 38.75 -10.05 37.55 L-10.05 37.5 -10.1 37.45 -10.7 36.8 Q-12.5 35.75 -13.0 33.95 L-11.8 34.45 -6.5 36.5 -4.0 36.5 Q-4.0 36.0 -3.75 36.0 -6.95 33.95 -10.95 31.85 L-7.0 30.9 -5.65 31.75 -4.65 31.5 -4.35 31.55 -0.6 33.95 -0.35 34.15 4.25 38.0 7.15 41.0" fill="#650101" fill-rule="evenodd" stroke="none"/>
      <path d="M37.25 30.75 L38.8 30.45 Q37.25 31.05 37.0 32.6 L37.05 34.45 37.05 34.7 37.4 36.5 37.4 39.0 Q34.9 36.05 33.75 35.5 L33.7 35.5 31.55 34.3 31.5 34.3 32.25 32.5 32.25 32.4 Q32.2 31.15 31.4 30.4 30.8 29.85 29.85 29.55 28.9 29.3 28.35 29.55 L28.25 29.25 Q27.85 28.0 26.2 27.75 L25.1 27.65 Q24.35 27.65 22.95 28.55 L22.65 28.75 22.45 28.9 21.6 29.35 Q21.35 28.05 20.2 27.8 L17.75 27.7 17.5 26.45 Q16.8 23.75 15.5 23.75 14.5 23.75 13.4 24.55 L12.5 25.25 12.55 24.2 Q12.7 23.55 13.3 22.45 L13.65 21.75 Q14.7 19.8 14.75 18.45 L14.75 18.4 14.75 18.35 14.3 15.6 14.25 15.45 13.75 14.25 13.65 14.05 13.0 13.05 Q14.45 13.15 15.45 14.6 14.95 16.6 15.95 18.5 16.7 19.9 18.3 19.9 L18.7 20.15 19.5 20.25 Q19.6 21.9 20.5 22.9 21.4 23.9 22.95 24.0 L23.25 24.0 Q24.7 24.0 25.9 22.75 L26.2 22.45 Q27.2 21.5 28.1 21.5 29.7 21.5 29.75 23.25 29.8 25.1 30.65 26.15 L31.0 26.55 31.25 26.75 32.1 27.15 33.15 27.55 33.15 27.6 34.45 30.0 35.0 30.25 35.0 30.0 35.7 30.2 35.65 30.3 35.0 30.25 35.0 30.5 35.25 31.0 35.45 31.0 37.25 30.75 M-42.15 21.05 L-43.65 22.1 -43.7 20.2 -46.3 19.45 -47.25 17.15 -46.35 17.75 -45.75 18.1 -43.6 17.95 -42.55 16.0 -40.1 16.0 Q-39.25 15.85 -38.75 15.25 L-36.9 16.95 -37.4 17.25 -39.65 19.1 Q-39.65 19.9 -40.35 20.5 -41.1 21.05 -42.15 21.05 M-32.6 20.7 L-27.7 20.9 Q-28.1 21.85 -27.7 22.9 L-27.45 23.4 -26.75 23.45 -26.6 22.15 -24.75 26.5 -23.0 26.5 Q-23.35 24.9 -22.2 23.8 L-20.35 22.2 -19.2 21.15 -19.0 20.9 Q-18.95 20.35 -19.2 19.95 L-19.4 19.25 Q-19.4 18.3 -18.95 17.45 L-18.75 17.0 -17.1 19.75 Q-16.3 21.15 -14.7 21.45 L-12.1 21.4 -12.0 21.4 Q-11.85 21.6 -11.85 21.9 L-10.15 23.1 -11.65 24.3 Q-12.4 25.4 -12.3 26.8 L-12.25 27.5 Q-11.65 28.55 -10.35 28.45 -9.6 28.45 -9.05 28.05 -8.3 27.55 -8.1 26.85 L-6.7 26.8 Q-5.6 25.7 -5.3 24.25 L-4.8 22.05 -4.5 21.0 -4.3 21.45 Q-3.9 22.3 -2.95 22.45 L-3.0 23.1 -2.85 24.7 -1.65 27.95 -1.5 31.3 -2.2 31.15 -3.0 31.1 Q-3.75 31.0 -4.65 31.5 L-5.65 31.75 -7.0 30.9 -10.95 31.85 -13.5 32.9 -13.45 30.6 -13.55 26.95 -14.1 24.8 -14.55 24.05 -14.85 24.0 Q-17.15 24.3 -18.75 26.35 L-18.95 26.55 -20.1 28.2 -20.65 29.25 -21.15 30.55 -21.45 33.75 -21.75 36.2 -21.85 36.45 -22.55 37.65 -23.0 38.0 -24.05 38.6 -24.5 34.35 -26.0 29.4 -28.2 28.95 -29.75 30.5 -30.25 29.25 -29.75 26.9 -29.6 25.4 -29.95 23.0 -32.6 20.7 M34.7 16.7 L32.95 18.85 31.5 17.6 32.75 20.85 33.2 22.6 32.3 21.15 31.95 20.8 28.75 18.5 28.8 18.0 28.95 17.4 30.55 17.45 Q31.15 17.25 31.45 16.6 32.4 14.6 33.6 12.7 L34.85 12.05 35.1 12.25 37.05 13.95 Q37.05 14.65 37.5 15.15 37.95 15.65 38.6 15.65 L38.95 16.2 38.6 16.15 Q36.3 15.8 34.7 16.7 M-2.0 12.0 L-1.7 12.75 -1.45 13.7 Q-1.2 15.05 -2.1 15.8 -1.7 14.95 -1.9 14.15 -2.2 13.1 -3.25 12.45 L-4.7 11.75 -4.0 11.5 -3.5 11.95 -2.0 12.0" fill="#a92d2d" fill-rule="evenodd" stroke="none"/>
      <path d="M45.0 20.85 L44.5 20.05 43.85 19.05 43.75 19.0 41.95 17.55 Q40.65 16.55 38.95 16.2 L38.6 15.65 Q39.7 15.65 40.45 15.0 41.2 14.35 41.2 13.4 42.25 12.95 43.2 11.9 L43.4 11.7 44.65 12.95 45.45 13.85 Q45.0 13.95 44.8 14.35 44.1 14.9 44.1 16.25 L44.15 17.25 Q44.45 17.85 45.3 18.05 45.0 19.15 45.0 20.1 L45.0 20.85 M36.7 8.5 L37.0 8.5 37.05 9.1 36.7 8.5 M37.05 13.95 L35.1 12.25 34.85 12.05 36.35 12.0 37.15 12.5 37.15 12.55 37.25 12.8 37.05 13.95" fill="#bf3838" fill-rule="evenodd" stroke="none"/>
      <path d="M45.7 10.0 L46.85 11.65 47.0 12.6 46.8 13.95 46.1 13.8 45.45 13.85 44.65 12.95 43.4 11.7 Q44.05 10.95 44.65 10.55 45.25 10.05 45.7 10.0" fill="#f34747" fill-rule="evenodd" stroke="none"/>
      <path d="M-43.8 11.5 L-43.95 9.9 -43.3 9.7 -43.15 9.7 -42.0 9.4 -40.8 9.5 Q-39.7 9.7 -39.0 10.4 -38.25 11.1 -38.25 11.7 L-38.25 11.8 -40.15 13.05 -40.8 12.55 Q-42.3 11.5 -43.6 11.5 L-43.8 11.5 M-36.9 16.95 L-36.8 16.9 Q-33.4 14.85 -33.4 17.15 L-34.35 18.55 -35.0 18.2 Q-36.8 17.25 -37.35 17.25 L-37.4 17.25 -36.9 16.95 M-33.05 20.4 L-32.6 20.7 -29.95 23.0 -30.75 23.9 Q-32.0 22.7 -34.25 21.75 L-33.05 20.4 M1.5 12.3 L1.6 12.0 Q1.8 11.45 4.25 11.0 L7.1 13.0 7.85 14.2 6.9 15.0 6.75 14.85 Q5.95 13.35 5.15 12.8 4.3 12.25 2.55 12.25 L1.5 12.3 M8.6 13.7 L8.65 13.3 Q9.05 11.75 10.5 11.75 11.9 11.75 13.0 13.05 L13.65 14.05 13.2 13.75 Q11.95 13.0 10.8 13.0 9.65 13.0 8.6 13.7 M41.95 17.55 Q38.85 18.4 35.8 17.1 L34.7 16.7 Q36.3 15.8 38.6 16.15 L38.95 16.2 Q40.65 16.55 41.95 17.55 M10.75 7.25 L11.6 4.25 15.2 4.35 15.85 4.9 15.7 7.6 Q14.7 6.85 13.25 7.0 L10.75 7.25" fill="#c79b68" fill-rule="evenodd" stroke="none"/>
    </g>
    <g id="sprite1" transform="matrix(1.0, 0.0, 0.0, 1.0, 23.3, 27.2)">
      <use ffdec:characterId="1710" height="49.9" transform="matrix(1.0, 0.0, 0.0, 1.0, -23.3, -27.2)" width="46.5" xlink:href="#shape2"/>
    </g>
    <g id="shape2" transform="matrix(1.0, 0.0, 0.0, 1.0, 23.3, 27.2)">
      <path d="M-2.95 -26.0 L-3.2 -24.45 -3.1 -24.45 Q-2.1 -25.1 -0.85 -25.35 L0.7 -25.6 Q2.45 -25.75 4.0 -24.85 L4.3 -23.55 5.0 -23.0 8.05 -23.6 Q8.85 -23.9 8.85 -24.5 L8.85 -24.75 9.05 -24.35 9.35 -22.7 Q9.35 -22.05 8.85 -21.6 L5.8 -21.4 Q4.05 -21.55 3.15 -22.95 L2.1 -23.75 -0.55 -24.25 -1.35 -23.9 -1.8 -23.0 -1.25 -22.8 -3.5 -23.05 -0.05 -20.65 -5.4 -20.5 -8.0 -19.15 -4.9 -19.9 -0.25 -19.35 Q2.7 -18.35 5.1 -16.15 7.3 -16.0 8.4 -14.25 10.65 -10.75 11.75 -6.7 L10.5 -4.4 10.35 -6.2 Q10.0 -8.2 8.95 -10.05 L7.75 -12.0 8.05 -10.3 8.7 -4.8 Q8.85 -2.25 7.65 -0.1 L6.7 1.25 Q4.8 3.1 2.35 3.9 L3.65 1.9 3.85 1.45 3.6 1.15 0.4 2.0 Q-2.0 1.0 -4.45 -0.05 L-3.3 -2.15 -4.0 -2.1 -5.85 -1.65 -7.1 -1.3 -6.85 -2.5 -8.0 -4.05 -5.45 -6.15 -6.2 -5.95 -9.45 -4.6 -10.85 -4.75 -11.35 -7.85 -8.9 -9.25 -8.6 -9.35 -8.25 -9.15 -8.2 -10.25 -9.7 -9.75 -12.2 -8.65 Q-13.0 -8.3 -13.55 -7.55 L-13.95 -6.8 -11.6 -7.65 -11.55 -4.8 -12.65 -4.05 -10.9 -2.7 -9.15 -1.25 -6.8 0.65 -11.65 -0.55 -13.0 -1.45 -14.05 -2.8 -13.35 -0.8 Q-12.9 0.25 -11.75 0.9 -8.95 2.45 -6.0 3.4 L-4.4 3.8 -3.95 3.3 -1.0 3.75 0.15 4.85 -1.95 5.1 -3.55 5.3 Q-3.55 5.55 -5.75 6.95 L-2.1 6.2 0.35 6.75 -0.35 7.4 -6.05 8.6 Q-2.6 9.35 0.7 8.0 L1.85 7.1 Q3.6 4.8 6.05 3.15 7.7 2.05 8.5 0.05 L9.0 0.15 12.4 -4.9 13.4 -2.65 14.25 -2.75 12.35 0.75 10.25 0.75 10.25 1.75 11.15 2.3 9.4 4.55 8.1 6.65 Q7.5 7.65 6.2 7.95 L6.0 7.55 Q4.8 7.05 3.5 7.85 2.2 8.5 2.35 10.1 2.5 10.8 3.3 10.55 L5.05 9.8 6.05 9.25 5.9 10.4 6.4 10.45 5.5 11.05 Q5.65 12.2 7.7 11.6 10.45 11.35 12.3 9.3 12.6 11.45 10.6 12.7 8.55 14.0 6.5 12.9 L5.65 12.0 5.5 12.05 Q4.95 12.15 4.5 12.4 2.75 12.95 1.5 11.65 L1.5 10.65 Q1.65 9.35 2.55 8.4 L1.35 8.6 -0.3 9.3 Q-1.4 10.0 -2.85 10.4 L-7.9 10.9 -10.2 10.5 -2.55 9.5 -10.4 8.35 -10.65 7.7 -11.9 7.7 -12.25 8.2 -12.2 9.35 -12.3 9.2 -12.8 7.75 -12.8 7.7 Q-12.8 6.6 -11.65 5.85 -10.5 5.05 -8.85 5.05 -7.35 4.5 -6.3 3.35 -9.25 2.6 -11.95 1.3 L-12.15 1.2 Q-13.8 0.35 -14.15 -1.45 -14.65 -3.9 -15.55 -6.3 L-15.7 -7.65 Q-14.95 -10.25 -14.55 -13.0 L-14.1 -11.95 Q-12.15 -12.95 -10.3 -14.45 L-10.0 -14.95 Q-9.5 -16.05 -9.35 -17.0 L-10.75 -17.35 -13.0 -15.9 Q-12.65 -18.2 -10.8 -19.6 L-10.6 -19.75 -10.4 -19.9 -7.55 -21.65 -6.9 -22.4 -5.0 -23.45 -4.2 -24.1 Q-3.4 -25.05 -2.95 -26.0 M9.35 -21.25 L9.25 -20.7 Q9.25 -20.2 9.95 -19.75 10.65 -19.25 11.5 -19.25 11.75 -19.25 12.1 -20.0 L12.5 -20.95 12.65 -20.0 Q12.65 -19.2 12.2 -18.55 11.55 -17.75 10.35 -17.75 L9.9 -17.75 10.25 -16.25 Q11.5 -16.8 12.5 -15.5 L10.2 -14.05 Q8.6 -16.9 5.85 -19.05 L6.8 -19.15 7.5 -18.4 8.55 -18.4 9.25 -19.75 8.8 -19.95 Q8.85 -20.85 9.35 -21.25 M14.45 -9.25 L11.35 -12.05 12.6 -13.8 14.65 -15.1 15.25 -14.4 16.4 -14.8 17.25 -13.3 18.8 -11.6 19.85 -11.0 19.7 -10.25 Q19.25 -9.65 18.35 -9.8 L17.35 -10.1 17.0 -10.25 Q16.7 -10.65 16.7 -11.15 16.75 -12.15 16.1 -12.95 15.5 -13.65 14.5 -13.4 L13.75 -12.9 14.1 -11.1 14.45 -9.25 M17.25 -15.0 L17.15 -15.1 17.2 -15.05 17.25 -15.0 M21.5 9.15 L21.65 9.65 Q21.65 10.75 19.75 10.75 19.1 10.75 17.6 8.75 L16.4 6.85 15.1 3.9 Q14.5 3.55 13.75 3.25 L11.9 2.4 12.25 2.4 13.3 2.1 13.35 2.0 13.45 2.05 15.1 3.9 15.45 4.25 16.2 5.05 16.9 5.8 20.6 9.6 21.35 9.25 21.5 9.15 M-4.0 18.2 L-4.5 19.9 -5.9 19.95 Q-7.0 19.3 -6.9 17.85 -7.4 17.45 -7.95 17.2 L-9.05 17.05 -9.75 17.9 -10.7 18.0 -11.05 18.45 -11.75 18.75 -12.35 18.35 -12.6 17.8 -12.75 17.5 Q-12.75 16.75 -12.35 16.2 -11.95 15.65 -11.35 15.65 L-12.0 16.4 -11.9 16.85 -11.85 16.85 -10.3 16.5 -8.25 15.65 -7.95 16.45 Q-6.6 17.5 -5.3 16.3 L-5.15 15.9 -5.15 16.0 -5.1 16.35 -5.5 16.65 -5.65 17.05 -5.15 18.1 -4.0 18.2 M-17.35 -2.35 L-17.55 -2.1 -17.8 -1.95 -18.25 -2.7 -17.85 -3.1 -17.8 -3.3 -17.5 -5.05 -18.05 -5.5 -17.8 -5.5 -17.65 -5.5 Q-17.5 -5.6 -17.5 -5.05 -16.6 -3.75 -17.35 -2.35 M-17.85 -0.85 L-17.95 0.35 -19.6 0.7 -19.9 -1.0 -19.7 -1.65 -19.0 -0.55 -17.85 -0.85 M-19.65 0.8 L-20.2 3.05 -21.0 3.25 -22.3 2.85 Q-23.7 1.95 -23.15 0.2 -22.85 -0.75 -21.9 -0.85 L-22.5 -0.2 -22.4 1.1 -20.05 1.2 -19.65 0.8 M-19.75 -2.05 L-20.05 -2.45 -20.4 -3.35 Q-20.5 -4.4 -20.05 -5.2 L-19.2 -5.55 -19.8 -5.2 Q-20.2 -4.15 -19.55 -3.2 L-19.3 -3.0 -19.75 -2.05 M-18.45 -12.7 L-18.85 -13.05 Q-19.65 -14.15 -19.25 -15.95 L-17.4 -14.0 -16.3 -14.0 -15.7 -15.05 -15.5 -15.9 -15.45 -15.3 Q-15.6 -12.4 -18.45 -12.7 M3.3 -20.9 L4.05 -20.75 3.7 -20.65 3.3 -20.9 M4.6 -14.65 L4.15 -15.3 5.25 -10.1 3.8 -12.55 Q3.05 -13.65 1.65 -14.0 L-1.2 -13.8 -1.15 -14.85 -1.25 -16.0 -1.8 -17.35 -5.1 -17.25 Q-6.7 -16.3 -6.65 -14.35 -6.6 -13.4 -5.9 -12.75 -5.45 -12.4 -4.9 -12.4 L-2.8 -12.05 -3.15 -8.15 -6.25 -9.55 Q-5.2 -7.5 -3.3 -6.5 L-4.85 -5.4 -4.3 -4.55 -3.2 -4.25 -1.65 -3.95 Q-1.25 -4.05 -0.9 -4.3 L0.5 -5.55 0.95 -5.6 -1.5 -2.0 0.75 -1.8 Q2.7 -2.25 3.7 -3.9 5.45 -3.8 6.3 -5.3 8.1 -8.55 6.25 -11.9 L4.6 -14.65 M22.95 -4.2 L23.15 -3.0 Q22.25 -1.2 20.2 -1.9 L19.7 -2.25 20.05 -4.4 20.4 -3.3 21.65 -3.65 Q22.3 -3.85 22.95 -4.2 M-16.05 -20.25 Q-13.8 -21.45 -11.8 -23.1 L-9.95 -24.25 -7.7 -25.6 Q-7.25 -25.85 -7.25 -26.3 L-6.55 -25.8 -10.15 -22.9 -12.5 -20.9 Q-13.25 -20.35 -14.05 -19.95 -15.2 -19.45 -16.05 -20.25 M-9.25 -13.65 L-10.5 -13.2 Q-11.05 -12.8 -11.05 -12.2 -11.05 -11.6 -10.5 -11.15 -10.0 -10.75 -9.25 -10.75 -8.5 -10.75 -7.95 -11.15 -7.45 -11.6 -7.45 -12.2 -7.45 -12.8 -7.95 -13.2 -8.5 -13.65 -9.25 -13.65 M-12.35 9.0 L-12.4 8.95 -12.4 9.0 -12.35 9.0 M-18.45 18.5 L-17.45 18.6 -16.75 18.0 Q-16.95 19.3 -17.25 19.7 L-17.95 19.8 -18.45 18.65 -18.45 18.5" fill="#990000" fill-rule="evenodd" stroke="none"/>
      <path d="M8.85 -24.75 L8.85 -24.5 Q8.85 -23.9 8.05 -23.6 L5.0 -23.0 4.3 -23.55 4.0 -24.85 Q2.45 -25.75 0.7 -25.6 L-0.85 -25.35 Q-2.1 -25.1 -3.1 -24.45 L-3.2 -24.45 -2.95 -26.0 Q-1.9 -27.8 2.85 -26.95 8.3 -25.9 8.85 -24.75 M-13.0 -15.9 L-10.75 -17.35 -9.35 -17.0 Q-9.5 -16.05 -10.0 -14.95 L-10.3 -14.45 Q-12.15 -12.95 -14.1 -11.95 L-14.55 -13.0 -14.55 -13.3 -14.55 -13.4 -14.0 -14.7 -13.25 -15.65 -13.0 -15.9 M-12.2 9.35 L-12.25 8.2 -11.9 7.7 -10.65 7.7 -10.4 8.35 -2.55 9.5 -10.2 10.5 -11.6 10.2 Q-12.2 9.85 -12.2 9.35 M12.3 9.3 Q10.45 11.35 7.7 11.6 5.65 12.2 5.5 11.05 L6.4 10.45 10.15 8.05 Q12.35 7.05 12.35 9.25 L12.3 9.3 M6.05 9.25 L5.05 9.8 3.3 10.55 Q2.5 10.8 2.35 10.1 2.2 8.5 3.5 7.85 4.8 7.05 6.0 7.55 L6.2 7.95 6.35 8.8 6.05 9.25 M11.15 2.3 L10.25 1.75 10.25 0.75 12.35 0.75 12.4 0.8 12.35 0.75 12.5 0.65 15.3 2.6 17.45 4.1 17.9 4.4 Q21.85 7.15 21.85 8.4 L21.5 9.15 21.35 9.25 20.6 9.6 16.9 5.8 16.2 5.05 15.45 4.25 15.1 3.9 13.45 2.05 13.35 1.95 13.35 2.0 13.3 2.1 12.25 2.4 11.9 2.4 11.15 2.3 M14.25 -2.75 L13.4 -2.65 12.4 -4.9 9.0 0.15 8.5 0.05 Q7.7 2.05 6.05 3.15 3.6 4.8 1.85 7.1 L0.7 8.0 Q-2.6 9.35 -6.05 8.6 L-0.35 7.4 0.35 6.75 -2.1 6.2 -5.75 6.95 Q-3.55 5.55 -3.55 5.3 L-1.95 5.1 0.15 4.85 -1.0 3.75 -3.95 3.3 -4.4 3.8 -6.0 3.4 Q-8.95 2.45 -11.75 0.9 -12.9 0.25 -13.35 -0.8 L-14.05 -2.8 -13.0 -1.45 -11.65 -0.55 -6.8 0.65 -9.15 -1.25 -10.9 -2.7 -12.65 -4.05 -11.55 -4.8 -11.6 -7.65 -13.95 -6.8 -13.55 -7.55 Q-13.0 -8.3 -12.2 -8.65 L-9.7 -9.75 -8.2 -10.25 -8.25 -9.15 -8.6 -9.35 -8.9 -9.25 -11.35 -7.85 -10.85 -4.75 -9.45 -4.6 -6.2 -5.95 -5.45 -6.15 -8.0 -4.05 -6.85 -2.5 -7.1 -1.3 -5.85 -1.65 -4.0 -2.1 -3.3 -2.15 -4.45 -0.05 Q-2.0 1.0 0.4 2.0 L3.6 1.15 3.85 1.45 3.65 1.9 2.35 3.9 Q4.8 3.1 6.7 1.25 L7.65 -0.1 Q8.85 -2.25 8.7 -4.8 L8.05 -10.3 7.75 -12.0 8.95 -10.05 Q10.0 -8.2 10.35 -6.2 L10.5 -4.4 11.75 -6.7 Q10.65 -10.75 8.4 -14.25 7.3 -16.0 5.1 -16.15 2.7 -18.35 -0.25 -19.35 L-4.9 -19.9 -8.0 -19.15 -5.4 -20.5 -0.05 -20.65 -3.5 -23.05 -1.25 -22.8 3.3 -20.9 3.7 -20.65 4.05 -20.75 4.75 -20.8 Q6.9 -20.75 8.8 -19.95 L9.25 -19.75 8.55 -18.4 7.5 -18.4 6.8 -19.15 5.85 -19.05 Q8.6 -16.9 10.2 -14.05 L12.5 -15.5 Q13.8 -16.3 15.05 -16.4 16.4 -16.55 17.25 -15.5 L17.2 -15.05 17.15 -15.1 17.25 -15.0 20.0 -12.2 19.85 -11.0 18.8 -11.6 17.25 -13.3 16.4 -14.8 15.25 -14.4 14.65 -15.1 12.6 -13.8 11.35 -12.05 14.45 -9.25 Q14.85 -8.6 14.9 -7.75 L15.0 -6.5 15.1 -5.35 15.1 -5.15 Q15.25 -3.7 14.25 -2.75 M12.5 -20.95 L12.1 -20.0 Q11.75 -19.25 11.5 -19.25 10.65 -19.25 9.95 -19.75 9.25 -20.2 9.25 -20.7 L9.35 -21.25 9.85 -21.7 12.35 -21.9 12.5 -21.25 12.5 -20.95 M-3.4 17.45 L-3.45 17.6 -4.0 18.2 -5.15 18.1 -5.65 17.05 -5.5 16.65 -5.1 16.35 -4.5 16.35 -4.1 16.45 -4.05 16.45 -3.9 16.5 Q-3.4 16.7 -3.4 17.15 L-3.4 17.45 M-17.8 -1.95 L-17.85 -1.9 -17.8 -1.6 -17.85 -0.85 -19.0 -0.55 -19.7 -1.65 -19.75 -2.05 -19.3 -3.0 -19.55 -3.2 Q-20.2 -4.15 -19.8 -5.2 L-19.2 -5.55 -18.05 -5.5 -17.5 -5.05 -17.8 -3.3 -17.85 -3.1 -18.25 -2.7 -17.8 -1.95 M-19.6 0.7 L-19.65 0.8 -20.05 1.2 -22.4 1.1 -22.5 -0.2 -21.9 -0.85 -19.9 -1.0 -19.6 0.7 M-19.25 -15.95 L-18.75 -17.05 -18.15 -17.25 Q-16.4 -17.65 -15.55 -16.4 L-15.5 -15.9 -15.7 -15.05 -16.3 -14.0 -17.4 -14.0 -19.25 -15.95 M20.05 -4.4 Q20.8 -5.6 22.0 -5.85 L22.85 -5.9 23.15 -5.55 23.2 -4.6 22.95 -4.2 Q22.3 -3.85 21.65 -3.65 L20.4 -3.3 20.05 -4.4 M-16.05 -20.25 L-16.75 -20.7 -16.7 -21.15 Q-16.35 -22.15 -15.7 -22.75 L-15.25 -23.3 Q-12.4 -26.65 -7.9 -26.75 -7.2 -26.9 -7.25 -26.3 -7.25 -25.85 -7.7 -25.6 L-9.95 -24.25 -11.8 -23.1 Q-13.8 -21.45 -16.05 -20.25 M-9.25 -13.65 Q-8.5 -13.65 -7.95 -13.2 -7.45 -12.8 -7.45 -12.2 -7.45 -11.6 -7.95 -11.15 -8.5 -10.75 -9.25 -10.75 -10.0 -10.75 -10.5 -11.15 -11.05 -11.6 -11.05 -12.2 -11.05 -12.8 -10.5 -13.2 L-9.25 -13.65 M-7.95 14.35 L-5.05 14.4 Q-4.85 15.3 -5.15 15.9 L-5.3 16.3 Q-6.6 17.5 -7.95 16.45 L-8.25 15.65 -10.3 16.5 -11.85 16.85 -11.9 16.85 -12.0 16.4 -11.35 15.65 Q-9.8 14.05 -8.2 15.0 L-8.1 14.85 -7.95 14.35 M-12.35 9.0 L-12.4 9.0 -12.4 8.95 -12.35 9.0 M-18.45 18.5 L-18.5 18.5 -18.55 17.35 Q-18.15 15.7 -16.5 15.8 L-16.35 16.15 Q-16.05 17.2 -16.75 18.0 L-17.45 18.6 -18.45 18.5" fill="#ff0000" fill-rule="evenodd" stroke="none"/>
      <path d="M4.6 -14.65 L6.25 -11.9 Q8.1 -8.55 6.3 -5.3 5.45 -3.8 3.7 -3.9 2.7 -2.25 0.75 -1.8 L-1.5 -2.0 0.95 -5.6 0.5 -5.55 -0.9 -4.3 Q-1.25 -4.05 -1.65 -3.95 L-3.2 -4.25 -4.3 -4.55 -4.85 -5.4 -3.3 -6.5 Q-5.2 -7.5 -6.25 -9.55 L-3.15 -8.15 -2.8 -12.05 -4.9 -12.4 Q-5.45 -12.4 -5.9 -12.75 -6.6 -13.4 -6.65 -14.35 -6.7 -16.3 -5.1 -17.25 L-1.8 -17.35 -1.25 -16.0 -1.15 -14.85 -1.2 -13.8 1.65 -14.0 Q3.05 -13.65 3.8 -12.55 L5.25 -10.1 4.15 -15.3 4.6 -14.65" fill="#650101" fill-rule="evenodd" stroke="none"/>
      <path d="M-5.15 16.0 L-4.1 16.45 -4.5 16.35 -5.1 16.35 -5.15 16.0" fill="#aa5649" fill-rule="evenodd" stroke="none"/>
      <path d="M-10.8 -19.6 Q-12.65 -18.2 -13.0 -15.9 L-13.25 -15.65 -14.0 -14.7 -12.25 -19.1 -11.25 -19.6 -10.8 -19.6 M-14.55 -13.0 Q-14.95 -10.25 -15.7 -7.65 L-15.55 -6.3 Q-14.65 -3.9 -14.15 -1.45 -13.8 0.35 -12.15 1.2 L-11.95 1.3 Q-9.25 2.6 -6.3 3.35 -7.35 4.5 -8.85 5.05 -10.5 5.05 -11.65 5.85 -12.8 6.6 -12.8 7.7 L-12.8 7.75 -12.3 9.2 -12.2 9.35 Q-12.2 9.85 -11.6 10.2 L-10.2 10.5 -7.9 10.9 -2.85 10.4 Q-1.4 10.0 -0.3 9.3 L1.35 8.6 2.55 8.4 Q1.65 9.35 1.5 10.65 L1.5 11.65 Q2.75 12.95 4.5 12.4 4.95 12.15 5.5 12.05 L5.65 12.0 6.5 12.9 Q8.55 14.0 10.6 12.7 12.6 11.45 12.3 9.3 L12.35 9.25 Q12.35 7.05 10.15 8.05 L6.4 10.45 5.9 10.4 6.05 9.25 6.35 8.8 6.2 7.95 Q7.5 7.65 8.1 6.65 L9.4 4.55 11.15 2.3 11.9 2.4 13.75 3.25 Q14.5 3.55 15.1 3.9 L14.75 6.25 14.6 6.6 14.1 8.3 Q12.95 11.3 10.95 13.7 L9.5 14.45 Q4.3 17.0 -1.5 16.75 L-2.6 16.75 -3.9 16.5 -4.05 16.45 -4.1 16.45 -5.15 16.0 -5.15 15.9 Q-4.85 15.3 -5.05 14.4 L-7.95 14.35 Q-10.6 12.65 -12.45 10.95 L-13.15 10.3 -14.05 8.85 Q-15.8 5.9 -16.4 2.65 L-16.5 2.65 -16.15 0.95 Q-15.75 -0.65 -15.75 -1.6 -15.75 -2.75 -16.75 -7.15 L-16.7 -7.6 -16.55 -7.65 -16.25 -8.65 -14.55 -13.4 -14.55 -13.3 -14.55 -13.0 M12.35 0.75 L14.25 -2.75 Q15.25 -3.7 15.1 -5.15 L15.1 -5.35 15.0 -6.5 14.9 -7.75 Q14.85 -8.6 14.45 -9.25 L14.1 -11.1 15.15 -9.5 15.5 -8.85 15.35 -4.45 15.1 2.35 15.3 2.35 15.3 2.6 12.5 0.65 12.35 0.75 12.4 0.8 12.35 0.75" fill="#e2b181" fill-rule="evenodd" stroke="none"/>
      <path d="M15.35 -4.45 L15.55 -4.0 Q16.15 -3.0 17.25 -3.0 L17.3 -2.85 Q17.35 -2.75 17.5 -2.75 L16.85 -1.7 16.5 -0.85 Q16.5 -0.15 17.25 0.35 17.85 0.75 18.25 0.75 L17.45 4.1 15.3 2.6 15.3 2.35 15.1 2.35 15.35 -4.45 M15.55 10.65 Q15.0 14.0 16.7 16.9 L16.05 16.3 Q15.05 15.4 13.6 15.0 11.25 17.2 10.95 20.5 L9.75 20.5 9.5 21.75 8.95 20.75 Q8.45 19.7 8.55 18.45 L9.75 17.5 9.75 16.25 Q2.4 16.45 0.3 22.7 L-0.25 21.15 Q0.0 19.2 -1.0 17.55 L-1.5 16.75 Q4.3 17.0 9.5 14.45 L10.95 13.7 Q12.95 11.3 14.1 8.3 L14.6 6.6 15.55 10.65 M-15.35 15.45 Q-15.8 14.0 -18.4 14.25 -17.65 14.15 -17.05 13.25 -16.5 12.45 -16.5 11.75 -16.5 10.75 -18.1 10.75 -19.15 10.75 -20.4 11.95 -19.65 10.7 -18.05 9.05 -16.75 7.7 -16.75 5.85 -16.75 4.85 -17.0 4.75 L-18.1 4.75 -19.0 4.8 Q-19.4 4.85 -19.75 5.25 L-18.0 2.8 Q-17.0 1.0 -17.0 -0.75 -17.0 -1.45 -17.35 -2.35 -16.6 -3.75 -17.5 -5.05 -17.5 -5.6 -17.65 -5.5 L-17.8 -5.5 -17.35 -6.3 -16.7 -7.6 -16.75 -7.15 Q-15.75 -2.75 -15.75 -1.6 -15.75 -0.65 -16.15 0.95 L-16.5 2.65 -16.4 2.65 Q-15.8 5.9 -14.05 8.85 L-13.15 10.3 -12.45 10.95 Q-12.45 11.75 -13.2 12.45 -14.05 13.2 -14.15 13.85 -14.35 15.2 -15.3 15.45 L-15.35 15.45" fill="#e98d8d" fill-rule="evenodd" stroke="none"/>
      <path d="M16.4 6.85 L16.1 7.35 Q15.6 8.05 15.55 10.65 L14.6 6.6 14.75 6.25 15.1 3.9 16.4 6.85 M-0.25 21.15 L-1.15 19.2 Q-2.05 17.85 -3.4 17.45 L-3.4 17.15 Q-3.4 16.7 -3.9 16.5 L-2.6 16.75 -1.5 16.75 -1.0 17.55 Q0.0 19.2 -0.25 21.15 M-12.6 17.8 L-12.8 18.15 Q-13.6 19.65 -13.5 21.75 L-13.5 22.0 Q-14.2 19.85 -15.0 18.7 L-15.25 16.1 -15.35 15.45 -15.3 15.45 Q-14.35 15.2 -14.15 13.85 -14.05 13.2 -13.2 12.45 -12.45 11.75 -12.45 10.95 -10.6 12.65 -7.95 14.35 L-8.1 14.85 -8.2 15.0 Q-9.8 14.05 -11.35 15.65 -11.95 15.65 -12.35 16.2 -12.75 16.75 -12.75 17.5 L-12.6 17.8" fill="#f44545" fill-rule="evenodd" stroke="none"/>
      <path d="M-16.7 -7.6 L-16.8 -7.55 -17.05 -8.65 -16.7 -9.85 -16.4 -11.35 -16.5 -12.05 -17.05 -10.95 Q-17.3 -10.4 -18.0 -10.4 -19.25 -10.4 -19.0 -11.45 L-18.45 -12.7 Q-15.6 -12.4 -15.45 -15.3 L-15.5 -15.9 -15.55 -16.4 Q-13.35 -18.9 -12.15 -19.5 L-12.25 -19.1 -14.0 -14.7 -14.55 -13.4 -16.25 -8.65 -16.55 -7.65 -16.7 -7.6" fill="url(#gradient0)" fill-rule="evenodd" stroke="none"/>
    </g>
    <linearGradient gradientTransform="matrix(0.0, 0.0, 0.0, 0.0, 0.0, 0.0)" gradientUnits="userSpaceOnUse" id="gradient0" spreadMethod="pad" x1="-819.2" x2="819.2">
      <stop offset="0.0" stop-color="#ff0000"/>
      <stop offset="1.0" stop-color="#8e3c3c"/>
    </linearGradient>
  </defs>
</svg>
