<?xml version="1.0" encoding="UTF-8" standalone="no"?>
<svg xmlns:ffdec="https://www.free-decompiler.com/flash" xmlns:xlink="http://www.w3.org/1999/xlink" ffdec:objectType="frame" height="244.45px" width="112.25px" xmlns="http://www.w3.org/2000/svg">
  <g transform="matrix(1.0, 0.0, 0.0, 1.0, 54.9, 183.3)">
    <use ffdec:characterId="1713" height="7.05" transform="matrix(1.0, 0.0, 0.0, 1.0, -53.9, -183.3)" width="25.85" xlink:href="#shape0"/>
    <use ffdec:characterId="1715" height="52.7" id="chunk1" transform="matrix(1.0, 0.0, 0.0, 1.0, 1.35, -50.95)" width="49.85" xlink:href="#sprite0"/>
    <use ffdec:characterId="1717" height="54.75" id="chunk2" transform="matrix(1.0, 0.0, 0.0, 1.0, -1.2, 5.05)" width="58.55" xlink:href="#sprite1"/>
    <use ffdec:characterId="1719" height="57.6" id="chunk3" transform="matrix(1.0, 0.0, 0.0, 1.0, -54.9, 3.55)" width="58.1" xlink:href="#sprite2"/>
    <use ffdec:characterId="1721" height="62.95" id="chunk4" transform="matrix(1.0, 0.0, 0.0, 1.0, -51.15, -56.3)" width="47.05" xlink:href="#sprite3"/>
    <use ffdec:characterId="1169" height="24.15" id="heart" transform="matrix(1.0, 0.0, 0.0, 1.0, -21.75, -86.8)" width="18.6" xlink:href="#sprite4"/>
    <use ffdec:characterId="1707" height="0.0" id="spineRef" transform="matrix(1.0, 0.0, 0.0, 1.0, 4.6, -55.2)" width="0.0" xlink:href="#sprite10"/>
  </g>
  <defs>
    <g id="shape0" transform="matrix(1.0, 0.0, 0.0, 1.0, 53.9, 183.3)">
      <path d="M-53.85 -176.25 L-53.9 -176.25 -53.9 -176.3 -53.85 -176.25" fill="#ff0000" fill-rule="evenodd" stroke="none"/>
      <path d="M-28.15 -183.3 L-28.05 -183.2 -28.15 -183.25 -28.15 -183.3" fill="#8e3c3c" fill-rule="evenodd" stroke="none"/>
    </g>
    <g id="sprite0" transform="matrix(1.0, 0.0, 0.0, 1.0, 21.9, 27.1)">
      <use ffdec:characterId="1714" height="52.7" transform="matrix(1.0, 0.0, 0.0, 1.0, -21.9, -27.1)" width="49.85" xlink:href="#shape1"/>
    </g>
    <g id="shape1" transform="matrix(1.0, 0.0, 0.0, 1.0, 21.9, 27.1)">
      <path d="M-2.35 -21.05 L-2.45 -20.5 Q-2.45 -20.0 -1.75 -19.55 -1.05 -19.05 -0.2 -19.05 L0.4 -19.8 0.8 -20.75 0.95 -19.8 Q0.95 -19.0 0.5 -18.35 -0.15 -17.55 -1.35 -17.55 L-1.8 -17.55 -1.7 -17.3 -1.45 -16.05 -0.35 -16.15 0.8 -15.3 -1.5 -13.85 -1.55 -13.95 Q-2.55 -15.55 -4.05 -17.05 L-5.85 -18.85 -4.9 -18.95 -4.2 -18.2 -3.15 -18.2 -2.45 -19.55 -2.9 -19.75 Q-2.85 -20.65 -2.35 -21.05 M-2.85 -24.55 L-2.65 -24.15 Q-2.35 -23.4 -2.35 -22.5 L-2.4 -22.0 -2.85 -21.4 -5.9 -21.2 Q-7.65 -21.35 -8.55 -22.75 L-8.9 -23.15 -9.6 -23.55 -12.25 -24.05 -13.05 -23.7 -13.3 -23.15 -13.45 -22.85 -14.2 -23.35 -13.2 -24.95 -9.0 -25.1 -7.7 -24.65 -7.4 -23.35 -6.7 -22.8 -3.95 -23.5 -3.05 -23.75 -2.85 -24.55 M8.15 -10.8 L8.0 -10.05 Q7.55 -9.45 6.65 -9.6 L5.65 -9.9 5.3 -10.05 Q5.0 -10.45 5.0 -10.95 5.05 -11.95 4.4 -12.75 3.8 -13.45 2.8 -13.2 L2.3 -12.85 2.05 -12.7 2.4 -10.9 2.75 -9.1 2.75 -9.05 -0.35 -11.85 2.95 -14.9 3.55 -14.2 4.7 -14.6 5.6 -13.15 6.8 -11.8 8.15 -10.8 M2.55 -2.55 L0.65 0.95 -1.45 0.95 -1.45 1.95 -0.55 2.5 -2.3 4.75 -3.6 6.85 Q-4.2 7.85 -5.5 8.15 L-5.7 7.75 Q-6.9 7.25 -8.2 8.05 -9.5 8.7 -9.35 10.3 -9.2 11.0 -8.4 10.75 L-6.65 10.0 -5.65 9.45 -5.8 10.6 -5.3 10.65 -6.2 11.25 Q-6.05 12.4 -4.0 11.8 -1.25 11.55 0.6 9.5 0.9 11.65 -1.1 12.9 -3.15 14.2 -5.2 13.1 L-6.05 12.2 -6.2 12.25 Q-6.75 12.35 -7.2 12.6 -8.95 13.15 -10.2 11.85 L-10.2 10.85 Q-10.05 9.55 -9.15 8.6 L-10.35 8.8 -11.35 9.2 -11.8 9.4 -12.0 9.5 -12.3 9.7 -12.55 10.9 Q-12.95 12.05 -12.95 13.2 L-12.45 15.5 -12.1 16.7 -13.85 16.4 Q-14.8 16.1 -14.05 16.9 L-14.0 17.2 Q-13.95 18.7 -14.7 19.95 L-15.0 19.55 Q-16.8 16.8 -16.8 14.85 L-16.7 14.5 -15.95 13.5 -15.9 13.45 Q-15.05 12.7 -15.05 12.35 L-15.1 12.0 -15.55 10.7 -15.35 9.95 -15.75 9.35 Q-16.5 8.05 -16.35 6.5 L-16.25 6.25 Q-15.8 5.1 -15.95 4.0 L-16.5 1.5 Q-16.95 0.15 -16.4 -0.4 L-17.3 -3.25 -17.6 -4.1 -17.9 -5.1 -18.9 -8.3 -19.05 -9.9 -18.6 -11.75 -17.7 -13.8 -16.8 -15.65 -18.4 -18.0 -18.35 -18.0 -17.6 -19.05 -17.7 -19.7 -17.1 -20.35 -15.25 -20.05 -15.0 -19.65 Q-10.4 -18.9 -6.4 -16.3 L-4.35 -14.55 -4.15 -14.35 -2.5 -12.4 Q-0.65 -9.75 0.05 -6.5 L-1.2 -4.2 Q-1.8 -8.3 -3.95 -11.8 -2.45 -6.45 -3.9 -1.1 -5.0 2.95 -9.35 4.1 L-7.9 1.55 -11.3 2.2 -13.2 1.4 -13.75 0.55 -14.3 0.1 -16.3 0.1 -15.8 1.15 Q-15.05 2.5 -13.95 3.55 L-12.8 3.5 -12.7 3.95 -11.55 5.05 -12.45 5.35 -12.2 5.2 -11.55 5.05 Q-12.65 4.4 -14.0 4.75 L-14.5 5.05 -15.05 6.35 -13.4 6.95 -12.25 6.6 -11.35 6.95 -12.2 7.65 -12.2 8.65 Q-6.75 5.45 -3.2 0.25 L-2.7 0.35 0.7 -4.7 1.7 -2.45 2.55 -2.55 M11.25 -4.0 L11.45 -2.8 11.35 -2.55 Q10.85 -1.8 10.15 -1.55 L8.5 -1.7 8.0 -2.05 8.35 -4.2 8.7 -3.1 8.9 -3.1 9.95 -3.45 10.4 -3.6 11.25 -4.0 M0.2 2.6 L0.55 2.6 1.6 2.3 1.65 2.2 1.75 2.25 3.4 4.1 4.5 5.25 5.2 6.0 8.9 9.8 9.65 9.45 9.8 9.35 9.95 9.85 Q9.95 10.95 8.05 10.95 7.4 10.95 5.9 8.95 L4.7 7.05 3.4 4.1 2.05 3.45 0.2 2.6 M0.0 17.8 L1.55 17.6 2.2 17.6 2.45 17.6 Q3.1 18.05 3.2 18.75 3.4 20.25 2.65 21.45 L2.15 22.55 1.75 23.75 1.35 24.45 Q0.05 25.35 -1.65 25.35 L-2.25 25.1 -4.3 23.85 -4.8 23.65 -5.15 20.7 Q-6.3 21.55 -7.9 21.55 -8.5 21.55 -9.0 21.95 -9.95 22.65 -10.85 23.2 -12.45 22.55 -13.85 21.05 L-11.3 20.85 -11.0 21.25 -10.35 20.6 -8.15 18.3 -7.2 18.1 Q-6.2 18.1 -4.95 19.0 -3.9 19.7 -3.1 19.85 L-2.2 21.95 -1.95 20.7 -0.75 20.7 0.0 17.8 M5.8 16.9 L6.5 14.3 Q7.0 12.6 9.45 12.6 11.95 12.6 13.95 16.85 L14.95 15.85 17.1 18.3 15.45 19.9 Q13.5 21.1 10.7 21.1 L9.2 20.85 7.7 20.6 6.4 21.8 7.95 17.85 10.7 19.0 Q13.5 20.1 15.75 18.15 L14.65 18.05 11.1 17.0 7.6 17.25 5.8 16.9 M-7.1 -14.45 L-7.4 -14.95 -7.55 -15.1 -6.45 -9.9 -7.9 -12.35 -8.05 -12.55 Q-8.8 -13.5 -10.05 -13.8 L-12.9 -13.6 -12.85 -14.65 -12.9 -15.7 -12.95 -15.8 -13.5 -17.15 -14.2 -17.1 -15.05 -16.9 -15.4 -16.4 -15.55 -15.4 Q-15.55 -14.8 -15.2 -14.3 L-14.9 -14.0 Q-14.3 -13.45 -14.3 -12.4 L-16.4 -10.9 -17.4 -9.6 -17.1 -9.0 -16.55 -7.75 -16.45 -5.0 Q-16.15 -2.85 -15.2 -2.0 L-14.45 -2.5 -12.6 -4.1 Q-11.85 -4.65 -11.2 -5.35 L-10.75 -5.4 -13.2 -1.8 -10.95 -1.6 Q-9.0 -2.05 -8.0 -3.7 -6.25 -3.6 -5.4 -5.1 -3.6 -8.35 -5.45 -11.7 L-5.9 -12.5 -7.1 -14.45" fill="#990000" fill-rule="evenodd" stroke="none"/>
      <path d="M-1.1 -21.6 L0.65 -21.7 0.8 -21.05 0.8 -20.9 0.8 -20.75 0.4 -19.8 -0.2 -19.05 Q-1.05 -19.05 -1.75 -19.55 -2.45 -20.0 -2.45 -20.5 L-2.35 -21.05 -1.85 -21.5 -1.1 -21.6 M-8.15 -26.9 L-5.35 -25.95 -2.85 -24.55 -3.05 -23.75 -3.95 -23.5 -6.7 -22.8 -7.4 -23.35 -7.7 -24.65 -9.0 -25.1 -13.2 -24.95 -14.2 -23.35 -13.45 -22.85 Q-10.8 -21.7 -8.05 -20.9 L-6.35 -20.6 -6.65 -20.6 -6.55 -20.55 -2.9 -19.75 -2.45 -19.55 -3.15 -18.2 -4.2 -18.2 -4.9 -18.95 -5.85 -18.85 -4.05 -17.05 Q-2.55 -15.55 -1.55 -13.95 L-1.5 -13.85 0.8 -15.3 2.65 -15.7 4.55 -15.85 5.55 -15.3 5.5 -14.85 8.3 -12.0 8.15 -10.8 6.8 -11.8 5.6 -13.15 4.7 -14.6 3.55 -14.2 2.95 -14.9 -0.35 -11.85 2.75 -9.05 3.25 -7.7 Q4.2 -4.8 2.55 -2.55 L1.7 -2.45 0.7 -4.7 -2.7 0.35 -3.2 0.25 Q-6.75 5.45 -12.2 8.65 L-12.2 7.65 -11.35 6.95 -12.25 6.6 -13.4 6.95 -15.05 6.35 -14.5 5.05 -14.0 4.75 Q-12.65 4.4 -11.55 5.05 L-12.2 5.2 -12.45 5.35 -11.55 5.05 -12.7 3.95 -12.8 3.5 -13.95 3.55 Q-15.05 2.5 -15.8 1.15 L-16.3 0.1 -14.3 0.1 -13.75 0.55 -13.2 1.4 -11.3 2.2 -7.9 1.55 -9.35 4.1 Q-5.0 2.95 -3.9 -1.1 -2.45 -6.45 -3.95 -11.8 -1.8 -8.3 -1.2 -4.2 L0.05 -6.5 Q-0.65 -9.75 -2.5 -12.4 L-4.15 -14.35 -4.35 -14.55 -6.4 -16.3 Q-10.4 -18.9 -15.0 -19.65 L-15.25 -20.05 -17.1 -20.35 -17.7 -19.7 -17.6 -19.05 -18.35 -18.0 -18.4 -18.0 -16.8 -15.65 -17.7 -13.8 -18.2 -13.5 -19.5 -15.5 -19.3 -16.8 -21.4 -19.85 -20.3 -21.05 -18.65 -20.9 -18.0 -22.0 Q-17.0 -23.6 -15.6 -25.05 L-14.65 -25.8 Q-11.95 -27.4 -8.9 -27.0 L-8.7 -27.0 -8.3 -26.9 -8.15 -26.9 M0.65 0.95 L0.8 0.85 3.6 2.8 5.75 4.3 6.2 4.6 Q10.15 7.35 10.15 8.6 L9.8 9.35 9.65 9.45 8.9 9.8 5.2 6.0 4.5 5.25 3.4 4.1 1.75 2.25 1.65 2.15 1.65 2.2 1.6 2.3 0.55 2.6 0.2 2.6 -0.55 2.5 -1.45 1.95 -1.45 0.95 0.65 0.95 M8.35 -4.2 L9.0 -5.0 Q9.55 -5.5 10.3 -5.65 L11.15 -5.7 11.45 -5.35 11.5 -4.4 11.25 -4.0 10.4 -3.6 9.95 -3.45 8.9 -3.1 8.7 -3.1 8.35 -4.2 M2.45 17.6 Q3.3 17.6 3.9 17.95 4.35 18.25 4.7 19.1 L5.2 19.1 5.8 16.9 7.6 17.25 11.1 17.0 14.65 18.05 15.75 18.15 Q13.5 20.1 10.7 19.0 L7.95 17.85 6.4 21.8 Q4.8 23.55 2.5 24.7 1.45 25.3 0.3 25.6 L-1.65 25.35 Q0.05 25.35 1.35 24.45 L1.75 23.75 2.15 22.55 2.65 21.45 Q3.4 20.25 3.2 18.75 3.1 18.05 2.45 17.6 M-5.5 8.15 Q-5.35 8.5 -5.35 9.0 L-5.65 9.45 -6.65 10.0 -8.4 10.75 Q-9.2 11.0 -9.35 10.3 -9.5 8.7 -8.2 8.05 -6.9 7.25 -5.7 7.75 L-5.5 8.15 M-5.3 10.65 L-1.55 8.25 Q0.65 7.25 0.65 9.45 L0.6 9.5 Q-1.25 11.55 -4.0 11.8 -6.05 12.4 -6.2 11.25 L-5.3 10.65 M-4.8 23.65 L-10.85 23.2 Q-9.95 22.65 -9.0 21.95 -8.5 21.55 -7.9 21.55 -6.3 21.55 -5.15 20.7 L-4.8 23.65" fill="#ff0000" fill-rule="evenodd" stroke="none"/>
      <path d="M-7.1 -14.45 L-5.9 -12.5 -5.45 -11.7 Q-3.6 -8.35 -5.4 -5.1 -6.25 -3.6 -8.0 -3.7 -9.0 -2.05 -10.95 -1.6 L-13.2 -1.8 -10.75 -5.4 -11.2 -5.35 Q-11.85 -4.65 -12.6 -4.1 L-14.45 -2.5 -15.2 -2.0 Q-16.15 -2.85 -16.45 -5.0 L-16.55 -7.75 -17.1 -9.0 -17.4 -9.6 -16.4 -10.9 -14.3 -12.4 Q-14.3 -13.45 -14.9 -14.0 L-15.2 -14.3 Q-15.55 -14.8 -15.55 -15.4 L-15.4 -16.4 -15.05 -16.9 -14.2 -17.1 -13.5 -17.15 -12.95 -15.8 -12.9 -15.7 -12.85 -14.65 -12.9 -13.6 -10.05 -13.8 Q-8.8 -13.5 -8.05 -12.55 L-7.9 -12.35 -6.45 -9.9 -7.55 -15.1 -7.4 -14.95 -7.1 -14.45" fill="#650101" fill-rule="evenodd" stroke="none"/>
      <path d="M-16.7 14.5 L-18.25 12.0 Q-19.9 10.05 -21.05 7.65 L-21.55 6.5 Q-21.9 4.75 -21.9 2.1 -21.9 0.55 -20.85 -1.25 -19.8 -3.1 -19.8 -4.1 -19.8 -5.05 -20.3 -6.55 L-20.8 -8.9 Q-20.8 -10.35 -19.9 -11.75 L-18.2 -13.5 -17.7 -13.8 -18.6 -11.75 -19.05 -9.9 -18.9 -8.3 -17.9 -5.1 -17.6 -4.1 -18.45 -2.05 Q-19.05 -0.65 -18.8 1.1 -18.6 2.7 -19.05 3.8 -19.65 5.15 -19.65 6.2 L-19.65 6.5 Q-19.05 9.0 -17.5 11.1 L-16.75 12.0 -16.45 12.55 -15.95 13.5 -16.7 14.5" fill="#6b476b" fill-rule="evenodd" stroke="none"/>
      <path d="M-17.6 -4.1 L-17.3 -3.25 -16.4 -0.4 Q-16.95 0.15 -16.5 1.5 L-15.95 4.0 Q-15.8 5.1 -16.25 6.25 L-16.35 6.5 Q-16.5 8.05 -15.75 9.35 L-15.35 9.95 -15.55 10.7 -15.1 12.0 -15.05 12.35 Q-15.05 12.7 -15.9 13.45 L-15.95 13.5 -16.45 12.55 -16.75 12.0 -17.5 11.1 Q-19.05 9.0 -19.65 6.5 L-19.65 6.2 Q-19.65 5.15 -19.05 3.8 -18.6 2.7 -18.8 1.1 -19.05 -0.65 -18.45 -2.05 L-17.6 -4.1" fill="#4d334d" fill-rule="evenodd" stroke="none"/>
      <path d="M0.8 -20.9 L0.8 -21.05 0.65 -21.7 -1.1 -21.6 -2.4 -22.0 -2.35 -22.5 Q-2.35 -23.4 -2.65 -24.15 L-2.85 -24.55 -5.35 -25.95 -8.15 -26.9 Q-2.05 -25.8 3.8 -23.4 L7.7 -20.15 Q9.6 -18.15 13.25 -12.4 16.9 -6.7 19.9 -2.45 22.9 1.85 24.0 7.65 L24.4 9.95 24.55 12.2 Q24.05 11.5 23.2 8.9 L21.9 5.25 Q21.5 4.2 20.6 3.1 L15.7 -1.6 Q13.35 -3.7 12.45 -5.5 11.75 -8.95 9.75 -12.65 8.25 -15.4 6.25 -17.75 3.85 -19.6 0.8 -20.9 M5.25 -2.8 L5.55 -2.8 5.6 -2.65 Q5.65 -2.55 5.8 -2.55 L5.5 -2.1 5.15 -1.5 4.8 -0.65 Q4.8 0.05 5.55 0.55 L6.55 0.95 5.75 4.3 3.6 2.8 3.6 2.55 3.4 2.55 3.65 -4.25 3.85 -3.8 Q4.35 -2.95 5.25 -2.8 M24.65 18.65 L24.45 18.3 23.75 16.35 24.7 14.3 24.9 13.85 25.25 14.1 25.35 14.2 25.6 14.4 26.45 15.1 26.6 15.2 26.55 15.3 26.9 16.5 Q27.3 17.55 27.95 18.1 L27.7 18.1 25.5 18.0 Q24.9 18.2 24.65 18.65 M3.85 10.85 Q3.35 14.2 5.0 17.1 L1.9 15.2 0.0 17.8 -0.75 20.7 -1.95 20.7 -2.2 21.95 -3.1 19.85 -3.15 18.65 -1.95 17.7 -1.95 16.45 -3.75 16.65 Q-6.15 16.95 -8.15 18.3 L-10.35 20.6 -11.0 21.25 -11.3 20.85 -13.85 21.05 -17.65 22.1 -14.7 19.95 Q-13.95 18.7 -14.0 17.2 L-14.05 16.9 Q-14.8 16.1 -13.85 16.4 L-12.1 16.7 -10.8 16.95 Q-6.35 16.65 -2.15 14.75 0.05 13.65 1.15 11.4 2.25 9.3 2.9 6.8 L3.85 10.85 M-13.3 -23.15 L-13.05 -23.7 -12.25 -24.05 -9.6 -23.55 -8.9 -23.15 -13.3 -23.15" fill="#e98d8d" fill-rule="evenodd" stroke="none"/>
      <path d="M-1.1 -21.6 L-1.85 -21.5 -2.35 -21.05 Q-2.85 -20.65 -2.9 -19.75 L-6.55 -20.55 -6.65 -20.6 -6.35 -20.6 -8.05 -20.9 Q-10.8 -21.7 -13.45 -22.85 L-13.3 -23.15 -8.9 -23.15 -8.55 -22.75 Q-7.65 -21.35 -5.9 -21.2 L-2.85 -21.4 -2.4 -22.0 -1.1 -21.6 M0.8 -20.75 L0.8 -20.9 Q3.85 -19.6 6.25 -17.75 8.25 -15.4 9.75 -12.65 11.75 -8.95 12.45 -5.5 13.35 -3.7 15.7 -1.6 L20.6 3.1 Q21.5 4.2 21.9 5.25 L23.2 8.9 Q24.05 11.5 24.55 12.2 L24.55 12.35 24.9 13.85 24.7 14.3 23.75 16.35 24.45 18.3 24.65 18.65 24.45 19.45 24.7 22.1 23.35 20.55 Q22.7 19.6 21.3 19.6 L20.85 19.65 20.6 18.7 20.3 18.75 20.45 18.3 20.5 18.15 20.95 16.15 17.65 17.15 16.9 17.3 Q17.85 12.75 16.85 10.65 15.65 8.05 10.85 4.55 7.2 1.9 5.5 -2.1 L5.8 -2.55 Q5.65 -2.55 5.6 -2.65 L5.55 -2.8 5.25 -2.8 4.6 -4.8 4.55 -5.35 4.05 -8.55 Q3.6 -10.45 2.75 -12.05 L2.3 -12.85 2.8 -13.2 Q3.8 -13.45 4.4 -12.75 5.05 -11.95 5.0 -10.95 5.0 -10.45 5.3 -10.05 L5.65 -9.9 6.65 -9.6 Q7.55 -9.45 8.0 -10.05 L8.15 -10.8 8.3 -12.0 5.5 -14.85 5.55 -15.3 4.55 -15.85 2.65 -15.7 0.8 -15.3 -0.35 -16.15 -0.5 -16.3 -1.7 -17.3 -1.8 -17.55 -1.35 -17.55 Q-0.15 -17.55 0.5 -18.35 0.95 -19.0 0.95 -19.8 L0.8 -20.75 M11.25 -4.0 L11.5 -4.4 11.45 -5.35 11.15 -5.7 10.3 -5.65 Q9.55 -5.5 9.0 -5.0 L8.35 -4.2 8.0 -2.05 8.5 -1.7 10.15 -1.55 Q10.85 -1.8 11.35 -2.55 L11.45 -2.8 11.25 -4.0" fill="#ad4949" fill-rule="evenodd" stroke="none"/>
      <path d="M-1.7 -17.3 L-0.5 -16.3 -0.35 -16.15 -1.45 -16.05 -1.7 -17.3 M2.3 -12.85 L2.75 -12.05 Q3.6 -10.45 4.05 -8.55 L4.55 -5.35 4.6 -4.8 5.25 -2.8 Q4.35 -2.95 3.85 -3.8 L3.65 -4.25 3.8 -8.65 3.65 -9.0 3.45 -9.3 2.4 -10.9 2.05 -12.7 2.3 -12.85 M5.5 -2.1 Q7.2 1.9 10.85 4.55 15.65 8.05 16.85 10.65 17.85 12.75 16.9 17.3 L17.65 17.15 20.95 16.15 20.5 18.15 20.45 18.3 20.3 18.75 20.6 18.7 20.85 19.65 20.2 19.85 Q19.7 20.25 19.7 21.45 L19.95 22.35 20.2 23.2 20.2 23.6 17.75 19.3 17.1 18.3 14.95 15.85 13.95 16.85 Q11.95 12.6 9.45 12.6 7.0 12.6 6.5 14.3 L5.8 16.9 5.2 19.1 4.7 19.1 Q4.35 18.25 3.9 17.95 3.3 17.6 2.45 17.6 L2.2 17.6 1.55 17.6 0.0 17.8 1.9 15.2 5.0 17.1 Q3.35 14.2 3.85 10.85 3.9 8.25 4.4 7.55 L4.7 7.05 5.9 8.95 Q7.4 10.95 8.05 10.95 9.95 10.95 9.95 9.85 L9.8 9.35 10.15 8.6 Q10.15 7.35 6.2 4.6 L5.75 4.3 6.55 0.95 5.55 0.55 Q4.8 0.05 4.8 -0.65 L5.15 -1.5 5.5 -2.1 M-8.15 18.3 Q-6.15 16.95 -3.75 16.65 L-1.95 16.45 -1.95 17.7 -3.15 18.65 -3.1 19.85 Q-3.9 19.7 -4.95 19.0 -6.2 18.1 -7.2 18.1 L-8.15 18.3" fill="#8e3c3c" fill-rule="evenodd" stroke="none"/>
      <path d="M2.4 -10.9 L3.45 -9.3 3.65 -9.0 3.8 -8.65 3.65 -4.25 3.4 2.55 3.6 2.55 3.6 2.8 0.8 0.85 0.65 0.95 2.55 -2.55 Q4.2 -4.8 3.25 -7.7 L2.75 -9.05 2.75 -9.1 2.4 -10.9 M0.2 2.6 L2.05 3.45 3.4 4.1 3.05 6.45 2.9 6.8 Q2.25 9.3 1.15 11.4 0.05 13.65 -2.15 14.75 -6.35 16.65 -10.8 16.95 L-12.1 16.7 -12.45 15.5 -12.95 13.2 Q-12.95 12.05 -12.55 10.9 L-12.3 9.7 -12.0 9.5 -11.8 9.4 -11.35 9.2 -10.35 8.8 -9.15 8.6 Q-10.05 9.55 -10.2 10.85 L-10.2 11.85 Q-8.95 13.15 -7.2 12.6 -6.75 12.35 -6.2 12.25 L-6.05 12.2 -5.2 13.1 Q-3.15 14.2 -1.1 12.9 0.9 11.65 0.6 9.5 L0.65 9.45 Q0.65 7.25 -1.55 8.25 L-5.3 10.65 -5.8 10.6 -5.65 9.45 -5.35 9.0 Q-5.35 8.5 -5.5 8.15 -4.2 7.85 -3.6 6.85 L-2.3 4.75 -0.55 2.5 0.2 2.6" fill="#e2b181" fill-rule="evenodd" stroke="none"/>
      <path d="M4.7 7.05 L4.4 7.55 Q3.9 8.25 3.85 10.85 L2.9 6.8 3.05 6.45 3.4 4.1 4.7 7.05" fill="#f44545" fill-rule="evenodd" stroke="none"/>
    </g>
    <g id="sprite1" transform="matrix(1.0, 0.0, 0.0, 1.0, 29.0, 26.75)">
      <use ffdec:characterId="1716" height="54.75" transform="matrix(1.0, 0.0, 0.0, 1.0, -29.0, -26.75)" width="58.55" xlink:href="#shape2"/>
    </g>
    <g id="shape2" transform="matrix(1.0, 0.0, 0.0, 1.0, 29.0, 26.75)">
      <path d="M22.15 2.85 L22.45 6.2 Q20.9 8.1 18.15 8.0 L15.4 14.0 13.6 14.25 13.8 13.55 13.85 13.45 13.8 12.0 12.6 13.25 11.3 10.85 12.7 8.55 11.6 9.05 11.2 9.2 11.45 7.8 12.15 6.85 11.55 6.9 11.35 5.85 10.9 4.1 16.75 2.6 16.15 4.45 16.65 4.65 13.9 8.5 14.45 10.05 22.15 2.85 M11.9 18.75 L11.6 19.05 11.4 19.25 Q10.35 20.15 9.3 21.85 L7.3 24.05 7.25 24.1 7.15 24.25 6.75 24.4 Q5.65 25.0 4.4 25.0 L3.1 24.9 4.3 22.25 5.85 22.35 6.9 20.65 5.6 20.75 4.4 19.9 4.8 19.4 4.6 19.35 4.65 19.3 Q6.35 18.6 7.7 16.9 9.0 15.15 9.55 13.65 10.35 14.4 10.4 15.65 9.8 16.55 9.55 17.65 L9.7 17.55 11.85 18.75 11.9 18.75 M-28.35 10.05 L-28.5 9.4 Q-28.5 5.25 -26.05 3.1 -24.95 2.1 -23.4 1.5 -21.6 0.8 -19.95 1.0 L-19.1 1.2 Q-19.15 0.4 -19.45 0.0 L-18.35 0.15 -17.0 0.4 Q-15.6 1.0 -15.15 1.55 L-14.8 1.55 -12.15 0.9 Q-11.7 0.4 -10.85 0.35 L-10.6 0.35 -9.0 0.6 Q-7.5 0.75 -7.1 1.65 L-7.1 1.7 Q-7.15 3.05 -8.2 5.0 L-8.55 5.7 -10.35 4.9 -10.85 5.0 -11.5 5.15 -12.05 5.3 -11.5 5.85 -10.55 7.0 -10.1 7.6 -10.25 8.15 -10.35 8.25 Q-13.05 6.25 -13.7 6.25 -14.35 7.1 -15.1 7.1 L-16.85 6.85 -17.7 7.0 -19.65 7.05 -19.65 7.1 -20.1 7.15 -20.15 7.15 Q-20.9 7.3 -21.2 7.75 L-21.45 6.3 -21.85 6.0 Q-24.9 5.85 -26.15 6.6 -26.85 7.05 -26.85 7.65 L-26.75 8.35 Q-25.4 8.45 -24.4 9.45 L-22.85 11.15 -21.1 11.25 -20.5 11.75 Q-20.9 12.5 -21.75 12.6 L-23.35 12.75 -23.9 12.35 -25.95 11.45 -26.55 11.25 Q-27.95 10.8 -28.35 10.05 M-18.65 -19.7 Q-10.9 -27.1 -3.1 -19.25 L-2.85 -18.85 -2.3 -18.5 Q-7.45 -21.55 -12.8 -19.95 L-13.2 -19.75 -10.6 -18.95 -5.75 -18.0 Q-12.05 -17.9 -18.45 -18.3 L-18.65 -19.7 M5.75 -14.6 L6.15 -14.35 6.3 -13.8 -3.45 -6.6 Q-2.7 -5.0 -2.5 -3.25 -2.25 -1.55 -3.1 -0.1 -3.4 0.5 -4.0 0.4 L-4.25 0.3 -4.85 -0.3 Q-5.8 -1.45 -5.55 -2.95 L-5.15 -3.85 -4.2 -5.25 -4.65 -5.15 -7.35 -4.85 -7.8 -5.3 -7.95 -5.45 Q-6.6 -5.9 -4.85 -7.0 L-4.1 -7.7 -1.25 -10.35 2.95 -13.7 Q4.25 -14.6 5.75 -14.6 M10.15 -6.45 L11.85 -8.95 Q12.4 -9.55 13.05 -9.4 L14.85 -8.25 15.2 -7.65 15.2 -7.35 14.65 -6.75 13.05 -7.15 12.6 -6.7 12.0 -5.8 9.4 -1.75 8.25 -0.45 6.4 -1.2 6.4 -2.15 8.1 -3.75 10.15 -6.45 M16.25 -5.55 L17.3 -5.85 17.5 -5.85 18.7 -5.55 19.0 -5.15 18.7 -4.1 Q18.5 -3.6 17.95 -3.4 16.6 -2.8 15.65 -3.7 L15.6 -4.7 16.25 -5.55 M24.95 -2.8 L25.1 -2.7 Q25.65 -2.35 25.65 -1.55 25.65 -0.05 24.3 0.0 L24.25 0.0 Q23.15 0.0 22.85 -0.9 L22.8 -1.7 Q22.8 -2.15 22.95 -2.4 23.15 -2.8 23.6 -2.9 L24.25 -2.95 24.3 -2.95 24.95 -2.8 M-6.25 13.75 L-3.25 12.8 Q-1.45 12.8 -0.15 13.95 1.9 15.95 4.8 16.8 L2.4 16.95 -2.3 16.3 -6.1 13.9 -6.25 13.75 M-6.15 16.45 L-6.95 16.75 -8.15 15.45 -6.25 16.4 -6.15 16.45 M-10.0 4.0 L-10.1 4.0 -9.95 4.05 -10.0 4.0 M-19.7 3.0 Q-21.1 3.6 -21.1 4.65 L-20.4 5.55 -20.2 5.8 -19.05 6.15 -18.2 6.4 Q-18.05 5.8 -16.1 4.85 L-15.55 4.6 -16.5 3.9 -18.2 2.3 -18.55 2.35 -19.7 3.0" fill="#ff0000" fill-rule="evenodd" stroke="none"/>
      <path d="M-11.45 24.15 L-10.85 24.75 -7.6 28.0 -9.1 28.0 -10.85 27.3 -13.8 25.15 -14.3 24.7 Q-14.55 24.55 -14.9 24.35 L-17.7 22.2 -18.8 21.25 -21.55 18.6 -22.85 16.85 -23.1 16.55 -24.4 14.7 -24.65 14.3 Q-26.0 12.3 -26.0 11.6 L-25.95 11.45 -23.9 12.35 -23.5 12.8 Q-22.45 12.6 -20.5 14.75 L-20.0 15.35 -19.6 15.9 -19.1 16.55 -17.85 17.8 -11.45 24.15 M11.6 9.05 L12.7 8.55 11.3 10.85 11.3 10.8 Q11.15 10.2 11.15 9.5 L11.6 9.05 M-8.55 5.7 L-9.3 7.45 -10.55 7.0 -11.5 5.85 -12.05 5.3 -11.5 5.15 -10.85 5.0 -10.35 4.9 -8.55 5.7 M-8.45 7.8 Q-7.35 7.0 -6.35 7.0 -5.05 7.0 -4.35 9.7 L-8.45 7.8 M0.6 12.15 L0.8 12.0 Q2.4 10.9 3.25 10.9 5.85 10.9 6.4 12.5 L6.5 12.8 Q7.05 12.55 8.0 12.8 8.95 13.1 9.55 13.65 9.0 15.15 7.7 16.9 6.35 18.6 4.65 19.3 L4.6 19.35 4.8 19.4 3.95 19.55 3.5 19.65 Q-2.0 20.3 -6.15 16.45 L-6.25 16.4 -8.15 15.45 -10.05 14.55 -10.85 14.15 -14.2 12.55 Q-15.3 12.05 -16.25 11.65 L-18.4 10.9 -20.8 9.95 -21.2 7.75 Q-20.9 7.3 -20.15 7.15 L-20.1 7.15 -19.65 7.1 Q-15.5 8.1 -11.7 10.5 L-10.85 11.0 -6.25 13.75 -6.1 13.9 -2.3 16.3 Q0.85 18.15 2.9 17.75 L4.8 16.8 Q6.25 16.15 6.9 14.75 L7.0 14.55 Q6.55 14.1 5.9 14.2 L3.45 13.5 0.6 12.15" fill="#ffffff" fill-rule="evenodd" stroke="none"/>
      <path d="M21.9 2.25 L22.15 2.85 14.45 10.05 13.9 8.5 16.65 4.65 16.15 4.45 16.75 2.6 10.9 4.1 9.65 0.85 11.1 2.1 12.85 -0.05 13.95 0.35 Q17.0 1.65 20.1 0.8 L21.9 2.25 M3.1 24.9 L-1.55 22.85 Q-3.1 19.9 -5.65 17.8 L-6.95 16.75 -6.15 16.45 Q-2.0 20.3 3.5 19.65 L3.95 19.55 4.8 19.4 4.4 19.9 5.6 20.75 6.9 20.65 5.85 22.35 4.3 22.25 3.1 24.9 M-23.75 16.05 L-26.3 14.0 Q-28.3 12.25 -28.35 10.05 -27.95 10.8 -26.55 11.25 L-25.95 11.45 -26.0 11.6 Q-26.0 12.3 -24.65 14.3 L-24.4 14.7 -23.1 16.55 -23.75 16.05 M-26.05 3.1 L-25.75 2.4 -25.2 1.25 Q-25.7 0.65 -25.65 -0.9 L-25.35 -3.3 -26.05 -5.05 Q-26.55 -6.1 -26.65 -6.9 L-22.0 -6.7 -21.9 -6.55 -23.45 -5.4 Q-23.45 -4.15 -23.7 -3.75 L-23.75 -3.6 -24.45 -2.5 Q-24.45 -0.5 -21.5 -0.5 L-20.75 -0.65 -20.8 -0.4 Q-19.9 -0.6 -19.45 0.0 -19.15 0.4 -19.1 1.2 L-19.95 1.0 Q-21.6 0.8 -23.4 1.5 -24.95 2.1 -26.05 3.1 M-26.75 -7.8 Q-26.65 -10.55 -25.0 -13.55 L-24.05 -15.1 -23.45 -14.35 -22.6 -12.95 -22.9 -13.05 -23.2 -11.1 -23.25 -10.5 Q-23.25 -9.7 -26.75 -7.8 M-21.4 -18.2 L-21.35 -18.25 Q-20.55 -18.9 -19.2 -19.45 -18.9 -19.6 -18.65 -19.7 L-18.45 -18.3 Q-12.05 -17.9 -5.75 -18.0 L-10.6 -18.95 -13.2 -19.75 -12.8 -19.95 Q-7.45 -21.55 -2.3 -18.5 L-2.5 -17.3 -2.65 -16.4 -3.05 -14.7 -9.1 -13.4 -13.2 -12.6 Q-15.4 -13.55 -15.6 -16.5 L-18.1 -16.25 Q-19.3 -16.25 -20.2 -16.9 L-21.4 -18.2 M-0.15 -18.15 Q1.3 -18.25 2.5 -18.7 L3.9 -19.25 Q5.45 -19.25 5.6 -18.8 L5.65 -18.75 Q5.8 -18.15 6.0 -18.05 L5.75 -18.0 6.9 -17.8 4.65 -16.45 1.35 -16.3 0.9 -16.65 0.0 -17.85 -0.15 -18.15 M6.3 -13.8 L6.45 -13.3 6.35 -12.05 Q6.2 -11.2 5.45 -10.75 L4.65 -10.35 Q2.45 -9.35 0.05 -8.8 L-1.7 -7.6 -2.45 -5.85 -1.5 -0.85 Q-1.05 1.6 -2.75 3.1 L-3.55 3.15 Q-5.15 3.15 -5.9 1.75 -6.9 -0.15 -6.4 -2.15 L-6.0 -3.5 -7.7 -4.15 -7.8 -5.3 -7.35 -4.85 -4.65 -5.15 -4.2 -5.25 -5.15 -3.85 -5.55 -2.95 Q-5.8 -1.45 -4.85 -0.3 L-4.25 0.3 -4.0 0.4 Q-3.4 0.5 -3.1 -0.1 -2.25 -1.55 -2.5 -3.25 -2.7 -5.0 -3.45 -6.6 L6.3 -13.8 M15.2 -7.35 L16.25 -5.55 15.6 -4.7 15.65 -3.7 Q16.6 -2.8 17.95 -3.4 18.5 -3.6 18.7 -4.1 L19.0 -5.15 18.7 -5.55 17.5 -5.85 17.9 -5.9 Q18.85 -5.9 19.3 -5.25 L19.35 -3.35 Q19.35 -2.4 18.6 -1.75 17.85 -1.1 16.75 -1.1 16.1 -1.1 15.65 -1.6 15.2 -2.1 15.2 -2.8 L15.4 -3.95 15.3 -4.2 15.3 -4.25 14.5 -4.75 13.0 -4.7 11.75 -4.05 9.6 -0.15 8.7 0.7 7.1 0.65 6.05 -0.05 Q5.7 -1.7 6.5 -2.9 6.75 -3.25 7.2 -3.4 L8.1 -3.75 6.4 -2.15 6.4 -1.2 8.25 -0.45 9.4 -1.75 12.0 -5.8 12.6 -6.7 13.05 -7.15 14.65 -6.75 15.2 -7.35 M25.1 -2.7 Q26.0 -2.25 26.0 -0.75 L25.9 0.5 25.8 0.7 Q25.4 1.35 24.3 1.35 L24.25 1.35 23.45 1.3 Q22.6 1.1 22.3 0.5 L22.25 -0.5 Q22.25 -1.85 22.95 -2.4 22.8 -2.15 22.8 -1.7 L22.85 -0.9 Q23.15 0.0 24.25 0.0 L24.3 0.0 Q25.65 -0.05 25.65 -1.55 25.65 -2.35 25.1 -2.7 M11.55 6.9 L12.15 6.85 11.45 7.8 11.5 7.5 11.55 6.9 M11.2 9.2 L11.6 9.05 11.15 9.5 11.15 9.25 11.2 9.2 M12.6 13.25 L13.8 12.0 13.85 13.45 13.15 13.25 13.15 13.5 12.6 13.25 M13.8 13.55 L13.6 14.25 13.4 14.25 Q13.4 13.75 13.15 13.75 L13.15 13.5 13.8 13.55 M-9.3 7.45 L-9.35 8.5 -8.45 7.8 -4.35 9.7 -4.1 10.95 -1.65 11.05 Q-0.5 11.3 -0.25 12.6 L0.6 12.15 3.45 13.5 5.9 14.2 Q6.55 14.1 7.0 14.55 L6.9 14.75 Q6.25 16.15 4.8 16.8 1.9 15.95 -0.15 13.95 -1.45 12.8 -3.25 12.8 L-6.25 13.75 -10.85 11.0 -11.7 10.5 Q-15.5 8.1 -19.65 7.1 L-19.65 7.05 -17.7 7.0 -16.85 6.85 -15.1 7.1 Q-14.35 7.1 -13.7 6.25 -13.05 6.25 -10.35 8.25 L-10.25 8.15 -10.1 7.6 -10.55 7.0 -9.3 7.45 M10.4 15.65 L10.4 15.75 9.65 17.55 9.7 17.55 9.55 17.65 Q9.8 16.55 10.4 15.65 M-2.3 16.3 L2.4 16.95 4.8 16.8 2.9 17.75 Q0.85 18.15 -2.3 16.3 M-10.0 4.0 L-9.95 4.05 -10.1 4.0 -10.0 4.0 M-19.7 3.0 L-18.55 2.35 -18.2 2.3 -16.5 3.9 -15.55 4.6 -16.1 4.85 Q-18.05 5.8 -18.2 6.4 L-19.05 6.15 -20.2 5.8 -20.4 5.55 -21.1 4.65 Q-21.1 3.6 -19.7 3.0 M-21.2 7.75 L-20.8 9.95 -18.4 10.9 -16.25 11.65 Q-15.3 12.05 -14.2 12.55 -15.0 12.8 -15.85 13.25 -17.3 14.0 -18.55 14.2 L-19.35 14.25 -19.4 14.25 -19.8 14.65 -19.6 15.9 -20.0 15.35 -20.5 14.75 Q-22.45 12.6 -23.5 12.8 L-23.9 12.35 -23.35 12.75 -21.75 12.6 Q-20.9 12.5 -20.5 11.75 L-21.1 11.25 -22.85 11.15 -24.4 9.45 Q-25.4 8.45 -26.75 8.35 L-26.85 7.65 Q-26.85 7.05 -26.15 6.6 -24.9 5.85 -21.85 6.0 L-21.45 6.3 -21.2 7.75" fill="#990000" fill-rule="evenodd" stroke="none"/>
      <path d="M6.9 -17.8 L7.85 -20.3 Q8.9 -23.15 8.9 -24.1 L8.85 -25.0 8.85 -25.1 9.8 -24.1 10.5 -23.45 9.3 -20.55 9.35 -20.55 9.25 -20.4 8.15 -17.85 8.1 -17.95 6.25 -15.15 5.75 -14.6 Q4.25 -14.6 2.95 -13.7 L-1.25 -10.35 -4.1 -7.7 -4.85 -7.0 Q-6.6 -5.9 -7.95 -5.45 L-7.8 -5.3 -7.7 -4.15 -6.0 -3.5 -6.4 -2.15 Q-7.4 -3.6 -8.85 -3.7 -9.75 -4.75 -10.85 -4.95 L-11.35 -5.0 Q-12.8 -5.0 -13.2 -3.45 L-13.25 -3.05 -13.45 -1.8 -13.6 -0.25 -13.7 -1.7 -14.0 -2.55 -14.75 -3.75 Q-15.7 -4.75 -17.6 -5.75 -20.05 -5.3 -20.25 -4.75 L-20.35 -4.45 -20.5 -3.85 -20.75 -2.85 -20.75 -2.65 -20.95 -4.0 Q-21.25 -5.5 -21.9 -6.55 L-22.0 -6.7 -26.65 -6.9 -29.0 -6.65 -26.7 -7.25 -16.05 -10.2 Q-17.25 -11.1 -18.85 -11.05 -21.1 -11.35 -23.2 -11.1 L-22.9 -13.05 -22.6 -12.95 -23.45 -14.35 -24.05 -15.1 Q-25.65 -16.8 -28.1 -17.5 L-27.85 -17.5 -25.1 -17.4 Q-23.1 -17.9 -23.1 -19.0 L-23.35 -20.45 -23.6 -21.95 Q-22.7 -20.9 -21.45 -18.3 L-21.4 -18.2 -20.2 -16.9 Q-19.3 -16.25 -18.1 -16.25 L-15.6 -16.5 Q-15.4 -13.55 -13.2 -12.6 L-9.1 -13.4 -3.05 -14.7 -2.65 -16.4 -2.5 -17.3 -2.3 -18.5 Q-1.65 -21.8 -0.65 -22.7 -1.2 -20.2 -0.15 -18.15 L0.0 -17.85 0.9 -16.65 1.35 -16.3 4.65 -16.45 6.9 -17.8 M0.05 -8.8 L0.0 -8.75 -1.7 -7.6 0.05 -8.8 M-2.45 -5.85 L-0.85 -5.5 Q1.0 -5.3 4.4 -7.0 6.75 -8.25 10.15 -6.45 L8.1 -3.75 7.2 -3.4 Q6.75 -3.25 6.5 -2.9 5.7 -1.7 6.05 -0.05 L7.1 0.65 6.95 1.25 6.9 1.75 10.1 4.05 10.45 4.4 11.35 5.85 11.55 6.9 11.5 7.5 11.45 7.8 11.2 9.2 11.15 9.25 11.15 9.5 Q11.15 10.2 11.3 10.8 L10.25 10.4 9.4 10.0 9.15 9.8 8.8 9.4 Q7.95 8.35 7.9 6.5 7.85 4.75 6.25 4.75 5.2 4.75 4.05 6.0 2.85 7.25 1.4 7.25 -0.35 7.25 -1.35 6.15 -2.25 5.15 -2.35 3.5 L-3.15 3.4 -3.55 3.15 -2.75 3.1 Q-1.05 1.6 -1.5 -0.85 L-2.45 -5.85 M-11.1 -9.5 L-10.85 -8.15 -10.45 -7.55 Q-9.8 -6.7 -8.75 -6.6 -7.75 -6.55 -6.95 -7.25 -6.2 -8.0 -6.15 -9.15 L-6.0 -11.85 -6.65 -12.4 -10.25 -12.5 -11.1 -9.5" fill="#8e3c3c" fill-rule="evenodd" stroke="none"/>
      <path d="M10.5 -23.45 Q11.0 -23.0 11.35 -22.85 L10.9 -18.75 10.85 -18.7 10.7 -18.4 Q8.85 -14.65 12.4 -14.9 14.95 -15.1 18.1 -10.35 L20.55 -5.95 21.55 -5.05 21.35 -4.85 Q20.4 -3.8 19.35 -3.35 L19.3 -5.25 Q18.85 -5.9 17.9 -5.9 L17.5 -5.85 17.3 -5.85 16.25 -5.55 15.2 -7.35 15.2 -7.65 15.15 -8.25 14.85 -8.25 13.05 -9.4 Q12.4 -9.55 11.85 -8.95 L10.15 -6.45 Q6.75 -8.25 4.4 -7.0 1.0 -5.3 -0.85 -5.5 L-2.45 -5.85 -1.7 -7.6 0.0 -8.75 0.05 -8.8 Q2.45 -9.35 4.65 -10.35 L5.45 -10.75 Q6.2 -11.2 6.35 -12.05 L6.45 -13.3 6.3 -13.8 6.15 -14.35 5.75 -14.6 6.25 -15.15 8.1 -17.95 8.15 -17.85 9.25 -20.4 9.35 -20.55 9.3 -20.55 10.5 -23.45 M27.75 9.1 L26.9 8.25 Q25.8 8.25 25.35 8.8 L24.9 9.5 24.3 7.4 24.0 6.5 24.0 6.4 Q24.0 5.45 23.15 4.1 L23.15 3.35 Q23.15 2.4 23.45 1.3 L24.25 1.35 24.3 1.35 Q25.4 1.35 25.8 0.7 26.65 2.45 27.1 4.45 L27.75 9.1 M-26.7 -7.25 L-26.75 -7.55 -26.75 -7.8 Q-23.25 -9.7 -23.25 -10.5 L-23.2 -11.1 Q-21.1 -11.35 -18.85 -11.05 -17.25 -11.1 -16.05 -10.2 L-26.7 -7.25" fill="#ad4949" fill-rule="evenodd" stroke="none"/>
      <path d="M-8.2 -2.7 L-8.1 -2.5 -7.6 -1.3 -7.55 -1.15 Q-7.1 0.2 -7.1 1.6 L-7.1 1.65 Q-7.5 0.75 -9.0 0.6 L-10.6 0.35 -10.85 0.35 Q-11.7 0.4 -12.15 0.9 L-14.8 1.55 -15.15 1.55 Q-15.6 1.0 -17.0 0.4 L-18.35 0.15 -19.45 0.0 Q-19.9 -0.6 -20.8 -0.4 L-20.75 -0.65 -21.5 -0.5 Q-24.45 -0.5 -24.45 -2.5 L-23.75 -3.6 -23.35 -3.8 -21.7 -4.15 -20.95 -4.0 -20.75 -2.65 -20.75 -2.85 -20.5 -3.85 -20.35 -4.45 -19.3 -4.5 Q-17.55 -4.5 -16.7 -3.95 -15.9 -3.4 -15.1 -1.9 L-14.95 -1.75 -14.0 -2.55 -13.7 -1.7 -13.6 -0.25 -13.45 -1.8 -13.25 -3.05 Q-12.2 -3.75 -11.05 -3.75 L-10.85 -3.75 Q-9.8 -3.7 -8.65 -3.0 L-8.2 -2.7 M-6.15 -9.15 Q-6.2 -8.0 -6.95 -7.25 -7.75 -6.55 -8.75 -6.6 -9.8 -6.7 -10.45 -7.55 L-10.85 -8.15 -11.1 -9.5 -10.85 -9.55 -8.6 -9.75 Q-7.15 -9.9 -6.15 -9.15" fill="#e2b181" fill-rule="evenodd" stroke="none"/>
      <path d="M17.1 -0.55 Q18.8 -0.2 20.1 0.8 17.0 1.65 13.95 0.35 L12.85 -0.05 Q14.45 -0.95 16.75 -0.6 L17.1 -0.55 M-8.85 -3.7 L-8.2 -2.7 -8.65 -3.0 Q-9.8 -3.7 -10.85 -3.75 L-11.05 -3.75 Q-12.2 -3.75 -13.25 -3.05 L-13.2 -3.45 Q-12.8 -5.0 -11.35 -5.0 L-10.85 -4.95 Q-9.75 -4.75 -8.85 -3.7 M-20.95 -4.0 L-21.7 -4.15 -23.35 -3.8 -23.75 -3.6 -23.7 -3.75 Q-23.45 -4.15 -23.45 -5.4 L-21.9 -6.55 Q-21.25 -5.5 -20.95 -4.0 M-6.15 -9.15 Q-7.15 -9.9 -8.6 -9.75 L-10.85 -9.55 -11.1 -9.5 -10.25 -12.5 -6.65 -12.4 -6.0 -11.85 -6.15 -9.15 M-14.0 -2.55 L-14.95 -1.75 -15.1 -1.9 Q-15.9 -3.4 -16.7 -3.95 -17.55 -4.5 -19.3 -4.5 L-20.35 -4.45 -20.25 -4.75 Q-20.05 -5.3 -17.6 -5.75 -15.7 -4.75 -14.75 -3.75 L-14.0 -2.55" fill="#c79b68" fill-rule="evenodd" stroke="none"/>
      <path d="M15.4 14.0 L16.95 13.7 Q15.4 14.3 15.15 15.85 L15.2 17.7 15.2 17.95 15.55 19.75 15.55 22.25 Q13.05 19.3 11.9 18.75 L11.85 18.75 9.7 17.55 9.65 17.55 10.4 15.75 10.4 15.65 Q10.35 14.4 9.55 13.65 8.95 13.1 8.0 12.8 7.05 12.55 6.5 12.8 L6.4 12.5 Q5.85 10.9 3.25 10.9 2.4 10.9 0.8 12.0 L0.6 12.15 -0.25 12.6 Q-0.5 11.3 -1.65 11.05 L-4.1 10.95 -4.35 9.7 Q-5.05 7.0 -6.35 7.0 -7.35 7.0 -8.45 7.8 L-9.35 8.5 -9.3 7.45 -8.55 5.7 -8.2 5.0 Q-7.15 3.05 -7.1 1.7 L-7.1 1.65 -7.1 1.6 Q-7.1 0.2 -7.55 -1.15 L-7.6 -1.3 -8.1 -2.5 -8.2 -2.7 -8.85 -3.7 Q-7.4 -3.6 -6.4 -2.15 -6.9 -0.15 -5.9 1.75 -5.15 3.15 -3.55 3.15 L-3.15 3.4 -2.35 3.5 Q-2.25 5.15 -1.35 6.15 -0.35 7.25 1.4 7.25 2.85 7.25 4.05 6.0 5.2 4.75 6.25 4.75 7.85 4.75 7.9 6.5 7.95 8.35 8.8 9.4 L9.15 9.8 9.4 10.0 10.25 10.4 11.3 10.8 11.3 10.85 12.6 13.25 13.15 13.5 13.15 13.25 13.85 13.45 13.8 13.55 13.15 13.5 13.15 13.75 Q13.4 13.75 13.4 14.25 L13.6 14.25 15.4 14.0 M7.1 0.65 L8.7 0.7 9.6 -0.15 11.75 -4.05 13.0 -4.7 13.25 -4.5 15.2 -2.8 Q15.2 -2.1 15.65 -1.6 16.1 -1.1 16.75 -1.1 L17.1 -0.55 16.75 -0.6 Q14.45 -0.95 12.85 -0.05 L11.1 2.1 9.65 0.85 10.9 4.1 11.35 5.85 10.45 4.4 10.1 4.05 6.9 1.75 6.95 1.25 7.1 0.65" fill="#a92d2d" fill-rule="evenodd" stroke="none"/>
      <path d="M17.05 -22.35 L20.15 -18.95 20.35 -18.7 Q23.05 -15.4 24.05 -12.2 25.1 -8.9 25.65 -7.8 28.85 -3.6 28.95 1.35 L28.75 3.95 28.4 0.4 Q27.45 -4.2 24.4 -7.8 L24.3 -8.0 Q24.0 -8.75 23.85 -9.45 L23.65 -10.35 22.8 -12.95 Q22.05 -14.95 21.15 -16.4 L19.35 -18.7 18.5 -19.55 17.2 -21.1 Q16.65 -21.95 16.5 -22.75 L17.05 -22.35" fill="#fff9d4" fill-rule="evenodd" stroke="none"/>
      <path d="M14.25 -23.05 Q14.7 -25.55 16.9 -26.75 16.9 -24.1 17.05 -22.35 L16.5 -22.75 Q16.65 -21.95 17.2 -21.1 L18.5 -19.55 19.35 -18.7 21.15 -16.4 Q22.05 -14.95 22.8 -12.95 L23.65 -10.35 23.85 -9.45 Q24.0 -8.75 24.3 -8.0 L24.4 -7.8 Q27.45 -4.2 28.4 0.4 L28.75 3.95 29.35 9.75 29.55 11.15 27.75 9.1 27.1 4.45 27.0 0.95 Q26.95 0.25 27.05 0.0 L26.9 -1.05 Q26.45 -2.9 25.0 -5.1 L24.3 -6.15 23.85 -6.75 23.0 -7.8 Q22.7 -8.4 22.15 -10.3 L22.15 -10.35 Q21.55 -12.25 19.65 -15.8 L17.6 -18.7 15.5 -20.85 14.6 -21.6 14.55 -21.65 14.6 -21.65 14.35 -22.6 14.25 -23.05" fill="#cec9ab" fill-rule="evenodd" stroke="none"/>
      <path d="M11.35 -22.85 L11.65 -22.75 Q12.9 -22.75 13.1 -23.75 13.35 -25.2 13.65 -25.5 L13.65 -25.75 14.25 -23.05 14.35 -22.6 14.6 -21.65 14.55 -21.65 14.6 -21.6 15.5 -20.85 17.6 -18.7 19.65 -15.8 Q21.55 -12.25 22.15 -10.35 L22.15 -10.3 Q22.7 -8.4 23.0 -7.8 L23.85 -6.75 22.8 -6.2 21.55 -5.05 20.55 -5.95 18.1 -10.35 Q14.95 -15.1 12.4 -14.9 8.85 -14.65 10.7 -18.4 L10.85 -18.7 10.9 -18.75 11.35 -22.85 M25.0 -5.1 Q26.45 -2.9 26.9 -1.05 L27.05 0.0 Q26.95 0.25 27.0 0.95 L27.1 4.45 Q26.65 2.45 25.8 0.7 L25.9 0.5 26.0 -0.75 Q26.0 -2.25 25.1 -2.7 L24.95 -2.8 25.15 -4.15 25.0 -5.1" fill="#e98d8d" fill-rule="evenodd" stroke="none"/>
      <path d="M23.15 4.1 L22.65 3.3 22.0 2.3 21.9 2.25 20.1 0.8 Q18.8 -0.2 17.1 -0.55 L16.75 -1.1 Q17.85 -1.1 18.6 -1.75 19.35 -2.4 19.35 -3.35 20.4 -3.8 21.35 -4.85 L21.55 -5.05 22.8 -3.8 23.6 -2.9 Q23.15 -2.8 22.95 -2.4 22.25 -1.85 22.25 -0.5 L22.3 0.5 Q22.6 1.1 23.45 1.3 23.15 2.4 23.15 3.35 L23.15 4.1 M14.85 -8.25 L15.15 -8.25 15.2 -7.65 14.85 -8.25 M13.0 -4.7 L14.5 -4.75 15.3 -4.25 15.3 -4.2 15.4 -3.95 15.2 -2.8 13.25 -4.5 13.0 -4.7" fill="#bf3838" fill-rule="evenodd" stroke="none"/>
      <path d="M23.85 -6.75 L24.3 -6.15 25.0 -5.1 25.15 -4.15 24.95 -2.8 24.3 -2.95 24.25 -2.95 23.6 -2.9 22.8 -3.8 21.55 -5.05 22.8 -6.2 23.85 -6.75" fill="#f34747" fill-rule="evenodd" stroke="none"/>
      <path d="M-1.55 22.85 L-2.45 22.25 Q-2.95 21.85 -3.6 21.85 L-4.35 21.35 -4.8 21.25 Q-4.6 22.45 -4.9 22.9 -6.1 24.5 -8.1 24.5 L-9.45 24.35 -10.85 24.25 -11.45 24.15 -17.85 17.8 -19.1 16.55 -19.6 15.9 -19.8 14.65 -19.4 14.25 -19.35 14.25 -18.55 14.2 Q-17.3 14.0 -15.85 13.25 -15.0 12.8 -14.2 12.55 L-10.85 14.15 -10.05 14.55 -8.15 15.45 -6.95 16.75 -5.65 17.8 Q-3.1 19.9 -1.55 22.85 M-14.9 24.35 L-15.75 24.75 -17.1 25.45 -17.9 25.65 -19.5 24.65 -20.65 23.05 -21.85 20.75 -22.25 19.4 -22.6 18.25 -23.75 16.05 -23.1 16.55 -22.85 16.85 -21.55 18.6 -18.8 21.25 -17.7 22.2 -14.9 24.35" fill="#650101" fill-rule="evenodd" stroke="none"/>
    </g>
    <g id="sprite2" transform="matrix(1.0, 0.0, 0.0, 1.0, 31.3, 25.7)">
      <use ffdec:characterId="1718" height="57.6" transform="matrix(1.0, 0.0, 0.0, 1.0, -31.3, -25.7)" width="58.1" xlink:href="#shape3"/>
    </g>
    <g id="shape3" transform="matrix(1.0, 0.0, 0.0, 1.0, 31.3, 25.7)">
      <path d="M12.15 -20.8 L12.5 -20.55 10.85 -16.75 9.8 -16.15 9.15 -16.4 6.85 -15.5 5.95 -15.55 Q5.65 -15.95 5.5 -16.4 L5.3 -17.1 4.6 -16.9 Q3.25 -16.85 2.15 -17.4 0.85 -18.0 0.45 -19.45 -1.5 -17.6 -3.8 -18.05 L-4.55 -18.95 -10.15 -17.7 -10.6 -17.15 Q-12.0 -15.85 -13.8 -16.2 L-15.7 -17.0 -17.95 -21.25 -17.65 -21.4 -15.45 -21.65 -12.65 -22.2 -13.3 -22.05 -17.0 -21.05 -16.55 -20.75 -16.2 -20.6 -12.05 -20.05 -7.8 -20.65 -4.1 -21.45 -4.85 -21.8 -4.05 -21.7 Q-2.55 -21.85 -1.65 -21.1 L-1.3 -21.25 -3.85 -19.55 -3.45 -19.3 Q-2.9 -19.3 -2.0 -19.95 -1.1 -20.55 -0.2 -20.55 L5.75 -20.8 6.9 -20.5 3.8 -18.85 4.05 -18.1 5.55 -17.95 Q6.8 -17.95 9.45 -19.1 L10.85 -19.75 12.15 -20.8 M14.45 -19.3 L16.0 -18.2 15.15 -18.2 14.85 -18.6 14.45 -19.3 M17.05 -16.15 L18.05 -14.6 16.45 -16.0 17.05 -16.15 M20.25 -6.1 L20.05 -5.25 Q19.6 -2.9 20.4 -0.4 L21.15 2.0 Q22.6 7.45 18.0 7.35 L16.75 7.0 16.0 5.5 16.05 4.95 14.3 4.15 13.1 0.9 15.85 1.65 16.2 -1.55 13.85 -1.45 13.65 -0.85 12.95 -0.7 13.0 -1.35 13.1 -1.8 16.2 -3.95 16.35 -4.7 20.25 -6.1 M10.1 18.15 Q10.7 18.85 10.2 19.9 L9.5 20.8 7.7 22.2 6.45 25.2 6.15 23.75 3.7 24.25 3.05 24.85 3.7 25.9 5.05 26.25 4.45 26.2 4.15 27.35 Q3.7 28.9 2.55 29.95 1.8 30.6 0.85 30.35 L1.2 30.15 2.15 27.8 -2.3 28.1 -7.0 26.35 -5.7 25.95 -4.85 24.85 -4.4 25.2 Q-3.55 25.85 -2.55 25.5 L-1.7 24.75 -1.3 25.5 -0.55 25.5 0.7 24.8 3.7 22.55 3.35 21.75 2.8 21.65 2.3 21.0 1.7 20.5 0.2 19.7 2.45 19.85 Q3.15 18.3 2.45 16.7 1.35 14.0 -1.3 13.1 L-0.35 11.1 -1.6 10.5 -1.1 8.9 -1.9 7.8 2.95 10.15 Q3.45 11.95 5.25 13.0 L5.85 13.65 2.95 13.05 5.5 14.55 5.7 14.95 5.5 15.75 Q6.25 16.7 7.6 16.6 8.75 16.95 9.55 17.65 L10.1 18.15 M-8.55 24.9 L-9.15 23.95 -10.75 20.1 -8.8 18.6 -8.05 19.3 -7.55 19.35 -3.65 15.95 -3.65 15.25 -1.9 16.05 -1.4 15.95 -0.95 15.55 1.05 18.7 -4.9 19.75 Q-6.35 20.0 -6.3 21.35 L-6.3 21.45 -4.95 20.95 Q-2.4 20.7 -0.25 21.65 L1.25 22.2 -1.35 24.05 -1.3 23.2 -1.9 22.45 Q-2.5 21.85 -3.25 21.4 -4.7 20.6 -5.7 21.8 L-6.65 22.95 -8.55 24.9 M-13.0 18.4 L-13.05 14.9 -13.2 14.25 -15.3 13.8 -15.55 12.95 -13.8 12.9 -13.2 12.5 Q-11.3 12.5 -9.85 11.15 L-9.0 10.25 -8.55 10.55 -8.1 14.8 Q-9.45 17.05 -11.75 17.95 L-13.0 18.4 M-18.5 11.0 Q-19.55 11.0 -20.25 10.45 -21.0 9.85 -21.0 9.05 -21.0 8.25 -20.55 7.7 -20.15 7.15 -19.55 7.15 L-17.2 7.25 -14.8 5.45 -14.3 5.45 -13.8 6.7 -12.25 5.15 -10.05 5.6 -10.75 6.55 Q-13.7 10.3 -18.5 11.0 M-25.6 -0.5 L-26.2 -2.75 Q-25.15 -2.75 -24.4 -3.3 -23.7 -3.9 -23.7 -4.7 -19.3 -3.5 -18.6 0.95 L-18.55 1.7 -15.3 0.95 -14.8 0.1 -14.0 -0.8 -13.65 1.6 Q-13.9 1.6 -14.1 1.9 L-14.3 2.55 -17.0 4.0 -19.65 4.65 -21.2 4.6 -22.8 -1.15 -25.6 -0.5 M13.4 -14.7 L12.55 -14.4 12.25 -13.35 12.85 -12.95 14.7 -13.35 14.75 -13.9 14.95 -12.8 13.95 -11.8 12.45 -11.85 11.95 -12.3 12.2 -14.75 12.7 -14.85 13.4 -14.7 M13.85 -8.0 L13.4 -7.3 Q12.45 -6.05 10.85 -5.5 L10.05 -5.6 Q9.05 -6.2 8.45 -7.55 7.55 -9.45 8.35 -11.45 L9.7 -12.2 Q8.15 -11.15 8.85 -9.2 L9.05 -8.8 Q9.85 -8.05 10.85 -8.2 L11.45 -8.55 Q12.7 -9.35 13.25 -10.8 L13.6 -10.25 Q14.3 -9.15 13.85 -8.0 M5.2 -7.35 L5.65 -6.75 4.8 -6.65 5.2 -7.35 M7.65 -5.7 L7.95 -5.05 7.7 -3.9 Q7.05 -3.35 6.3 -3.3 4.9 -3.2 3.7 -3.75 L2.5 -4.45 Q0.35 -5.8 -1.35 -7.5 L-0.6 -9.3 Q-0.35 -9.4 -0.2 -9.6 L-0.1 -9.85 0.45 -11.2 -2.55 -10.9 Q-3.3 -10.95 -3.95 -11.4 -5.15 -12.05 -5.7 -13.35 L-4.55 -15.55 Q-4.6 -13.7 -2.8 -12.95 L-0.35 -11.85 1.15 -11.2 Q1.45 -10.45 0.9 -9.7 L0.35 -9.05 -0.2 -8.65 Q2.6 -5.9 5.95 -4.75 7.4 -4.3 7.65 -5.7 M-3.55 -16.4 Q-2.95 -16.4 -2.5 -16.0 -2.1 -15.6 -2.1 -15.05 L-3.55 -16.4 M-10.65 -1.65 L-10.8 -0.35 -11.5 -0.4 -11.75 -0.9 Q-12.15 -1.95 -11.75 -2.9 L-11.15 -3.8 -11.35 -3.15 Q-11.35 -2.5 -11.2 -2.8 -11.0 -2.85 -9.6 -4.0 -8.1 -5.25 -8.1 -5.55 L-8.2 -6.6 Q-7.55 -6.25 -7.55 -5.4 -7.55 -4.2 -9.35 -3.4 -10.5 -2.85 -10.65 -1.65 M-7.05 14.2 L-6.6 13.85 -5.9 14.15 -6.8 14.15 -7.05 14.2 M-5.9 12.65 L-5.8 12.4 -5.65 12.55 -5.9 12.65 M-5.5 9.95 L-5.2 6.75 -3.5 10.4 -5.5 9.95 M-3.0 2.75 L-2.8 2.55 Q-1.15 1.9 0.6 1.05 L1.0 1.25 0.9 1.6 0.65 1.55 0.9 1.8 1.1 2.3 2.4 3.15 2.5 6.8 -0.4 5.4 0.4 5.6 0.55 5.2 Q0.1 4.15 -2.1 3.15 -2.6 2.9 -3.0 2.75 M7.85 3.05 Q7.65 3.75 6.9 4.25 6.35 4.65 5.6 4.65 4.3 4.75 3.7 3.7 L3.65 3.0 Q3.55 1.6 4.3 0.5 L4.2 1.15 4.3 2.05 Q4.55 2.85 5.7 2.85 6.85 2.85 7.5 1.95 L7.95 0.95 8.05 1.75 8.05 1.85 7.95 2.7 7.85 3.05 M-15.8 -8.85 L-15.75 -8.3 Q-15.5 -7.45 -14.65 -7.45 -14.15 -7.45 -13.9 -7.8 -13.65 -8.15 -13.25 -8.15 L-10.55 -8.05 Q-9.8 -8.05 -9.8 -8.8 L-9.8 -8.85 Q-9.45 -8.3 -9.45 -7.5 -9.45 -7.0 -9.75 -6.75 L-8.9 -6.85 -8.85 -6.85 -9.7 -6.0 -10.3 -5.15 -10.3 -5.35 Q-10.3 -6.3 -9.85 -6.65 L-10.3 -6.55 -11.6 -6.65 -12.55 -6.35 -13.55 -6.05 Q-14.8 -6.05 -15.45 -7.3 L-15.85 -8.3 -15.8 -8.85 M-9.65 8.4 Q-9.8 8.25 -9.95 8.2 L-9.6 7.95 -9.65 8.4" fill="#990000" fill-rule="evenodd" stroke="none"/>
      <path d="M12.15 -20.8 L10.85 -19.75 9.45 -19.1 Q6.8 -17.95 5.55 -17.95 L4.05 -18.1 3.8 -18.85 6.9 -20.5 5.75 -20.8 -0.2 -20.55 Q-1.1 -20.55 -2.0 -19.95 -2.9 -19.3 -3.45 -19.3 L-3.85 -19.55 -1.3 -21.25 Q0.95 -22.7 2.55 -23.25 6.9 -24.8 8.95 -21.85 10.05 -22.5 10.85 -22.5 11.4 -22.5 11.8 -22.0 12.15 -21.5 12.15 -20.8 M-4.85 -21.8 L-4.1 -21.45 -7.8 -20.65 -12.05 -20.05 -16.2 -20.6 -16.55 -20.75 -17.0 -21.05 -13.3 -22.05 -12.65 -22.2 -10.25 -22.95 Q-7.85 -24.0 -6.2 -22.95 L-4.85 -21.8 M10.15 17.55 Q9.9 17.55 10.1 18.15 L9.55 17.65 Q8.75 16.95 7.6 16.6 6.25 16.7 5.5 15.75 L5.7 14.95 5.5 14.55 2.95 13.05 5.85 13.65 5.9 13.7 5.9 13.75 Q10.15 14.95 10.15 16.85 L10.15 17.55 M6.45 25.2 L6.45 25.6 Q6.3 26.35 5.7 26.35 L5.05 26.25 3.7 25.9 3.05 24.85 3.7 24.25 6.15 23.75 6.45 25.2 M-15.3 13.8 Q-16.85 13.4 -17.55 12.6 L-18.3 11.4 -18.5 11.0 Q-13.7 10.3 -10.75 6.55 L-10.05 5.6 -8.55 10.55 -9.0 10.25 -9.05 10.2 -9.05 9.45 -9.4 8.9 -9.65 8.4 -9.6 7.95 -9.95 8.2 -13.05 9.95 -13.2 9.9 -14.5 11.5 -15.75 12.95 -15.55 12.95 -15.3 13.8 M-21.0 9.05 L-21.25 8.95 -21.8 8.6 Q-23.55 6.85 -24.85 2.45 L-25.6 -0.5 -22.8 -1.15 -21.2 4.6 -19.65 4.65 -17.0 4.0 -18.7 5.3 -20.05 7.1 -19.55 7.15 Q-20.15 7.15 -20.55 7.7 -21.0 8.25 -21.0 9.05 M14.75 -13.9 L14.7 -13.35 12.85 -12.95 12.25 -13.35 12.55 -14.4 13.4 -14.7 14.75 -13.9 M-0.75 -13.95 L-0.35 -13.8 Q1.05 -13.35 1.85 -12.05 2.4 -11.25 2.35 -10.45 L3.2 -9.95 4.5 -9.05 Q5.4 -8.35 5.2 -7.35 L4.8 -6.65 5.65 -6.75 7.1 -6.45 Q7.65 -6.15 7.65 -5.7 7.4 -4.3 5.95 -4.75 2.6 -5.9 -0.2 -8.65 L0.35 -9.05 0.9 -9.7 Q1.45 -10.45 1.15 -11.2 L-0.35 -11.85 -2.8 -12.95 Q-4.6 -13.7 -4.55 -15.55 L-4.25 -16.15 -3.55 -16.4 -2.1 -15.05 -0.75 -13.95 M9.7 -12.2 L11.25 -12.05 13.25 -10.8 Q12.7 -9.35 11.45 -8.55 L10.85 -8.2 Q9.85 -8.05 9.05 -8.8 L8.85 -9.2 Q8.15 -11.15 9.7 -12.2 M-13.65 1.6 L-13.8 3.1 -14.05 3.1 -14.3 2.55 -14.1 1.9 Q-13.9 1.6 -13.65 1.6 M-6.6 13.85 L-5.9 12.65 -5.65 12.55 -5.8 12.4 -5.5 9.95 -3.5 10.4 -5.2 6.75 -4.7 5.45 -4.45 6.05 -4.15 6.4 -1.9 7.8 -1.1 8.9 -1.6 10.5 -0.35 11.1 -1.3 13.1 Q1.35 14.0 2.45 16.7 3.15 18.3 2.45 19.85 L0.2 19.7 1.7 20.5 2.3 21.0 2.8 21.65 3.35 21.75 3.7 22.55 0.7 24.8 -0.55 25.5 -1.3 25.5 -1.7 24.75 -1.35 24.05 1.25 22.2 -0.25 21.65 Q-2.4 20.7 -4.95 20.95 L-6.3 21.45 -6.3 21.35 Q-6.35 20.0 -4.9 19.75 L1.05 18.7 -0.95 15.55 -1.4 15.95 -1.9 16.05 -3.65 15.25 -5.9 14.15 -6.6 13.85 M-4.15 4.4 L-3.0 2.75 Q-2.6 2.9 -2.1 3.15 0.1 4.15 0.55 5.2 L0.4 5.6 -0.4 5.4 -2.1 4.9 -4.15 4.4 M-2.8 2.55 Q-1.2 0.5 1.1 0.2 L1.4 0.25 1.85 1.0 2.4 3.15 1.1 2.3 0.9 1.8 0.65 1.55 0.9 1.6 1.0 1.25 0.6 1.05 Q-1.15 1.9 -2.8 2.55 M13.75 7.35 L14.45 7.5 14.3 4.15 16.05 4.95 16.0 5.5 16.75 7.0 16.35 7.0 16.8 7.7 16.7 8.35 16.1 8.5 20.45 14.35 15.6 10.35 13.75 7.35 M13.1 0.9 L12.95 -0.7 13.65 -0.85 13.85 -1.45 16.2 -1.55 15.85 1.65 13.1 0.9 M4.3 0.5 L5.8 -0.7 6.1 -0.75 Q7.95 -0.95 7.95 0.75 L7.95 0.95 7.5 1.95 Q6.85 2.85 5.7 2.85 4.55 2.85 4.3 2.05 L4.2 1.15 4.3 0.5 M16.35 -4.7 L16.2 -3.95 13.1 -1.8 Q13.6 -4.75 16.35 -4.7 M-9.8 -8.85 L-9.8 -8.8 Q-9.8 -8.05 -10.55 -8.05 L-13.25 -8.15 Q-13.65 -8.15 -13.9 -7.8 -14.15 -7.45 -14.65 -7.45 -15.5 -7.45 -15.75 -8.3 L-15.8 -8.85 -15.8 -9.0 Q-15.8 -10.6 -12.8 -10.4 -9.85 -10.15 -9.8 -8.85 M-10.3 -5.15 L-9.7 -6.0 -8.85 -6.85 -8.2 -6.6 -8.1 -5.55 Q-8.1 -5.25 -9.6 -4.0 -11.0 -2.85 -11.2 -2.8 -11.35 -2.5 -11.35 -3.15 L-11.15 -3.8 -10.3 -5.15" fill="#ff0000" fill-rule="evenodd" stroke="none"/>
      <path d="M23.1 13.75 L26.2 16.7 Q27.55 19.25 25.95 18.8 L22.1 15.7 20.5 14.4 20.45 14.35 16.1 8.5 16.7 8.35 16.8 7.7 18.25 9.05 23.1 13.75 M0.85 30.35 L-0.55 31.2 Q-2.45 32.05 -3.95 31.85 L-2.3 29.8 -2.3 28.1 2.15 27.8 1.2 30.15 0.85 30.35 M-7.0 26.35 L-8.7 25.8 -8.55 24.9 -6.65 22.95 -5.7 21.8 Q-4.7 20.6 -3.25 21.4 -2.5 21.85 -1.9 22.45 L-1.3 23.2 -1.35 24.05 -1.7 24.75 -2.55 25.5 Q-3.55 25.85 -4.4 25.2 L-4.85 24.85 -5.7 25.95 -7.0 26.35 M-10.75 20.1 Q-11.65 20.65 -12.8 20.7 -13.6 20.8 -13.8 20.1 L-13.6 18.95 -13.0 18.4 -11.75 17.95 Q-9.45 17.05 -8.1 14.8 L-7.05 14.2 -6.8 14.15 -5.9 14.15 -3.65 15.25 -3.65 15.95 -7.55 19.35 -8.05 19.3 -8.8 18.6 -10.75 20.1 M-13.8 3.1 L-14.3 5.45 -14.8 5.45 -17.2 7.25 -19.55 7.15 -20.05 7.1 -18.7 5.3 -17.0 4.0 -14.3 2.55 -14.05 3.1 -13.8 3.1 M-4.7 5.45 L-4.15 4.4 -2.1 4.9 -0.4 5.4 2.5 6.8 2.45 9.1 5.0 8.05 12.2 12.2 Q11.95 12.2 11.95 12.7 L9.45 12.7 4.15 10.65 2.95 10.15 -1.9 7.8 -4.15 6.4 -4.45 6.05 -4.7 5.45 M11.3 7.7 Q12.2 7.2 12.95 7.3 L13.75 7.35 15.6 10.35 15.35 10.15 11.6 7.75 11.3 7.7 M-9.95 8.2 Q-9.8 8.25 -9.65 8.4 L-9.4 8.9 -9.05 9.45 -9.05 10.2 -9.0 10.25 -9.85 11.15 Q-11.3 12.5 -13.2 12.5 L-13.8 12.9 -15.55 12.95 -15.75 12.95 -14.5 11.5 -13.2 9.9 -13.05 9.95 -9.95 8.2" fill="#ffffff" fill-rule="evenodd" stroke="none"/>
      <path d="M-31.3 -6.65 L-31.25 -7.45 -31.05 -8.7 Q-30.55 -8.25 -29.9 -8.2 -30.35 -7.15 -30.4 -6.05 L-31.3 -6.65 M-28.0 -13.9 L-28.7 -13.8 Q-29.25 -13.8 -30.7 -14.9 L-30.75 -16.45 -30.75 -16.65 -26.95 -16.95 Q-25.4 -16.9 -23.1 -18.2 L-21.6 -16.75 -24.85 -14.3 -26.05 -14.4 -27.2 -14.1 -27.35 -14.1 -28.0 -13.9" fill="#e98d8d" fill-rule="evenodd" stroke="none"/>
      <path d="M-17.95 -21.25 L-15.7 -17.0 -13.8 -16.2 -15.85 -15.15 Q-13.1 -12.75 -9.9 -11.8 L-8.35 -11.25 -22.3 -12.0 Q-22.3 -12.95 -23.05 -13.6 -23.8 -14.3 -24.85 -14.3 L-21.6 -16.75 -23.1 -18.2 -26.2 -21.45 Q-19.95 -18.55 -20.1 -25.7 L-17.95 -21.25 M6.85 -15.5 L9.15 -16.4 9.8 -16.15 10.85 -16.75 12.5 -20.55 13.95 -22.5 14.45 -19.3 14.85 -18.6 15.45 -17.55 15.15 -18.2 16.0 -18.2 20.2 -18.3 17.05 -16.15 16.45 -16.0 12.7 -14.85 12.2 -14.75 7.45 -13.5 -0.35 -13.8 -0.75 -13.95 5.8 -15.05 6.1 -15.1 6.85 -15.5 M-29.9 -8.2 L-29.8 -8.2 -28.3 -8.8 -28.05 -8.9 -26.0 -9.9 -24.95 -10.4 Q-27.35 -8.2 -27.65 -6.75 L-27.7 -6.45 -27.7 -6.05 -27.65 -5.85 -29.8 -5.7 -30.4 -6.05 Q-30.35 -7.15 -29.9 -8.2" fill="#ad4949" fill-rule="evenodd" stroke="none"/>
      <path d="M-26.2 -2.75 L-27.7 -1.7 -27.75 -3.6 -30.35 -4.35 -31.3 -6.65 -30.4 -6.05 -29.8 -5.7 -27.65 -5.85 -26.6 -7.8 -24.15 -7.8 Q-23.3 -7.95 -22.8 -8.55 L-20.95 -6.85 -21.45 -6.55 -23.7 -4.7 Q-23.7 -3.9 -24.4 -3.3 -25.15 -2.75 -26.2 -2.75 M11.95 -12.3 L12.45 -11.85 13.95 -11.8 14.25 -11.0 Q14.7 -9.45 13.85 -8.0 14.3 -9.15 13.6 -10.25 L13.25 -10.8 11.25 -12.05 11.95 -12.3 M-10.65 -1.65 L-8.8 2.7 -7.05 2.7 Q-7.4 1.1 -6.25 0.0 L-4.4 -1.6 -3.25 -2.65 -3.05 -2.9 Q-3.0 -3.45 -3.25 -3.85 L-3.45 -4.55 -3.0 -6.35 -2.8 -6.8 -1.15 -4.05 Q-0.35 -2.65 1.25 -2.35 L3.85 -2.4 3.95 -2.4 4.1 -1.9 5.8 -0.7 4.3 0.5 Q3.55 1.6 3.65 3.0 L3.7 3.7 Q4.3 4.75 5.6 4.65 6.35 4.65 6.9 4.25 7.65 3.75 7.85 3.05 L9.25 3.0 Q10.35 1.9 10.65 0.45 L11.15 -1.75 11.45 -2.8 11.65 -2.35 Q12.05 -1.5 13.0 -1.35 L12.95 -0.7 13.1 0.9 14.3 4.15 14.45 7.5 13.75 7.35 12.95 7.3 Q12.2 7.2 11.3 7.7 L10.3 7.95 8.95 7.1 5.0 8.05 2.45 9.1 2.5 6.8 2.4 3.15 1.85 1.0 1.4 0.25 1.1 0.2 Q-1.2 0.5 -2.8 2.55 L-3.0 2.75 -4.15 4.4 -4.7 5.45 -5.2 6.75 -5.5 9.95 -5.8 12.4 -5.9 12.65 -6.6 13.85 -7.05 14.2 -8.1 14.8 -8.55 10.55 -10.05 5.6 -12.25 5.15 -13.8 6.7 -14.3 5.45 -13.8 3.1 -13.65 1.6 -14.0 -0.8 -16.65 -3.1 -11.75 -2.9 Q-12.15 -1.95 -11.75 -0.9 L-11.5 -0.4 -10.8 -0.35 -10.65 -1.65" fill="#a92d2d" fill-rule="evenodd" stroke="none"/>
      <path d="M-13.8 -16.2 Q-12.0 -15.85 -10.6 -17.15 L-10.15 -17.7 -4.55 -18.95 -3.8 -18.05 Q-1.5 -17.6 0.45 -19.45 0.85 -18.0 2.15 -17.4 3.25 -16.85 4.6 -16.9 L5.3 -17.1 5.5 -16.4 Q5.65 -15.95 5.95 -15.55 L6.85 -15.5 6.1 -15.1 5.8 -15.05 -0.75 -13.95 -2.1 -15.05 Q-2.1 -15.6 -2.5 -16.0 -2.95 -16.4 -3.55 -16.4 L-4.25 -16.15 -4.55 -15.55 -5.7 -13.35 Q-5.15 -12.05 -3.95 -11.4 -3.3 -10.95 -2.55 -10.9 L0.45 -11.2 -0.1 -9.85 -0.2 -9.6 Q-0.35 -9.4 -0.6 -9.3 L-1.35 -7.5 Q0.35 -5.8 2.5 -4.45 L3.7 -3.75 Q4.9 -3.2 6.3 -3.3 7.05 -3.35 7.7 -3.9 L7.95 -5.05 7.65 -5.7 Q7.65 -6.15 7.1 -6.45 L5.65 -6.75 5.2 -7.35 Q5.4 -8.35 4.5 -9.05 L3.2 -9.95 2.35 -10.45 Q2.4 -11.25 1.85 -12.05 1.05 -13.35 -0.35 -13.8 L7.45 -13.5 12.2 -14.75 11.95 -12.3 11.25 -12.05 9.7 -12.2 8.35 -11.45 Q7.55 -9.45 8.45 -7.55 9.05 -6.2 10.05 -5.6 L10.85 -5.5 Q12.45 -6.05 13.4 -7.3 L13.85 -8.0 Q14.7 -9.45 14.25 -11.0 L13.95 -11.8 14.95 -12.8 14.75 -13.9 13.4 -14.7 12.7 -14.85 16.45 -16.0 18.05 -14.6 19.9 -14.1 21.8 -14.1 22.1 -13.55 Q20.35 -9.9 23.4 -7.2 L24.3 -6.45 20.25 -6.1 16.35 -4.7 Q13.6 -4.75 13.1 -1.8 L13.0 -1.35 Q12.05 -1.5 11.65 -2.35 L11.45 -2.8 11.15 -1.75 10.65 0.45 Q10.35 1.9 9.25 3.0 L7.85 3.05 7.95 2.7 8.05 1.85 8.05 1.75 7.95 0.95 7.95 0.75 Q7.95 -0.95 6.1 -0.75 L5.8 -0.7 4.1 -1.9 3.95 -2.4 3.85 -2.4 1.25 -2.35 Q-0.35 -2.65 -1.15 -4.05 L-2.8 -6.8 -3.0 -6.35 -3.45 -4.55 -3.25 -3.85 Q-3.0 -3.45 -3.05 -2.9 L-3.25 -2.65 -4.4 -1.6 -6.25 0.0 Q-7.4 1.1 -7.05 2.7 L-8.8 2.7 -10.65 -1.65 Q-10.5 -2.85 -9.35 -3.4 -7.55 -4.2 -7.55 -5.4 -7.55 -6.25 -8.2 -6.6 L-8.85 -6.85 -8.9 -6.85 -9.75 -6.75 Q-9.45 -7.0 -9.45 -7.5 -9.45 -8.3 -9.8 -8.85 -9.85 -10.15 -12.8 -10.4 -15.8 -10.6 -15.8 -9.0 L-15.8 -8.85 -15.85 -8.3 -15.45 -7.3 Q-14.8 -6.05 -13.55 -6.05 L-12.55 -6.35 -11.6 -6.65 -10.3 -6.55 -9.85 -6.65 Q-10.3 -6.3 -10.3 -5.35 L-10.3 -5.15 -11.15 -3.8 -11.75 -2.9 -16.65 -3.1 -17.1 -3.4 -17.25 -3.45 -17.3 -3.5 -19.2 -4.35 -18.4 -5.25 Q-17.45 -6.4 -17.45 -6.65 -17.45 -8.95 -20.85 -6.9 L-20.95 -6.85 -22.8 -8.55 Q-23.3 -7.95 -24.15 -7.8 L-26.6 -7.8 -27.65 -5.85 -27.7 -6.05 -27.7 -6.45 -27.65 -6.75 Q-27.35 -8.2 -24.95 -10.4 L-24.2 -10.75 Q-22.55 -11.65 -22.3 -12.0 L-8.35 -11.25 -9.9 -11.8 Q-13.1 -12.75 -15.85 -15.15 L-13.8 -16.2 M15.15 -18.2 L15.45 -17.55 14.85 -18.6 15.15 -18.2" fill="#8e3c3c" fill-rule="evenodd" stroke="none"/>
      <path d="M-28.3 -8.8 L-28.3 -9.2 -28.05 -10.5 -27.8 -11.8 -27.85 -12.3 -27.65 -12.3 Q-26.35 -12.3 -24.85 -11.25 L-24.2 -10.75 -24.95 -10.4 -26.0 -9.9 -28.05 -8.9 -28.3 -8.8 M-27.45 -21.4 L-27.6 -21.25 -27.6 -21.4 -27.45 -21.4 M-21.45 -6.55 L-21.4 -6.55 Q-20.85 -6.55 -19.05 -5.6 L-18.4 -5.25 -19.2 -4.35 -17.3 -3.5 -17.25 -3.45 -17.1 -3.4 -18.3 -2.05 Q-16.05 -1.1 -14.8 0.1 L-15.3 0.95 -18.55 1.7 -18.6 0.95 Q-19.3 -3.5 -23.7 -4.7 L-21.45 -6.55" fill="#e2b181" fill-rule="evenodd" stroke="none"/>
      <path d="M-27.85 -12.3 L-28.0 -13.9 -27.35 -14.1 -27.2 -14.1 -26.05 -14.4 -24.85 -14.3 Q-23.8 -14.3 -23.05 -13.6 -22.3 -12.95 -22.3 -12.0 -22.55 -11.65 -24.2 -10.75 L-24.85 -11.25 Q-26.35 -12.3 -27.65 -12.3 L-27.85 -12.3 M-16.65 -3.1 L-14.0 -0.8 -14.8 0.1 Q-16.05 -1.1 -18.3 -2.05 L-17.1 -3.4 -16.65 -3.1 M-18.4 -5.25 L-19.05 -5.6 Q-20.85 -6.55 -21.4 -6.55 L-21.45 -6.55 -20.95 -6.85 -20.85 -6.9 Q-17.45 -8.95 -17.45 -6.65 -17.45 -6.4 -18.4 -5.25" fill="#c79b68" fill-rule="evenodd" stroke="none"/>
      <path d="M21.15 2.0 L22.45 3.7 23.1 5.15 23.45 7.1 23.2 8.95 22.95 10.5 23.15 11.65 23.3 13.0 23.1 13.75 18.25 9.05 16.8 7.7 16.35 7.0 16.75 7.0 18.0 7.35 Q22.6 7.45 21.15 2.0 M22.1 15.7 L22.05 15.8 Q20.55 18.4 19.15 18.4 18.6 18.4 17.7 17.65 L17.45 17.45 Q16.0 16.45 14.95 16.45 14.1 16.45 12.95 16.95 L10.15 17.55 10.15 16.85 Q10.15 14.95 5.9 13.75 L5.9 13.7 5.85 13.65 5.25 13.0 Q3.45 11.95 2.95 10.15 L4.15 10.65 9.45 12.7 11.95 12.7 Q11.95 12.2 12.2 12.2 L5.0 8.05 8.95 7.1 10.3 7.95 11.3 7.7 11.6 7.75 15.35 10.15 15.6 10.35 20.45 14.35 20.5 14.4 22.1 15.7" fill="#650101" fill-rule="evenodd" stroke="none"/>
    </g>
    <g id="sprite3" transform="matrix(1.0, 0.0, 0.0, 1.0, 25.95, 34.5)">
      <use ffdec:characterId="1720" height="62.95" transform="matrix(1.0, 0.0, 0.0, 1.0, -25.95, -34.5)" width="47.05" xlink:href="#shape4"/>
    </g>
    <g id="shape4" transform="matrix(1.0, 0.0, 0.0, 1.0, 25.95, 34.5)">
      <path d="M14.25 -25.3 L16.7 -22.05 Q14.3 -22.55 12.35 -21.5 L9.8 -20.1 12.7 -20.6 Q16.8 -20.15 19.35 -17.1 L20.15 -16.0 Q20.3 -15.7 20.7 -15.75 20.85 -13.35 19.9 -11.2 L19.5 -10.25 Q19.1 -13.95 16.55 -16.85 L15.2 -18.55 Q12.9 -19.05 11.6 -16.9 10.65 -15.45 11.65 -14.0 12.1 -13.35 12.9 -13.35 L15.0 -13.0 14.65 -9.1 11.55 -10.5 Q12.55 -8.5 14.5 -7.45 L12.95 -6.35 13.5 -5.5 16.15 -4.9 19.35 -9.45 Q19.35 -4.3 16.6 -0.05 L16.3 0.25 13.35 -1.0 14.15 -3.1 10.7 -2.25 10.95 -3.45 9.8 -5.0 12.35 -7.1 11.6 -6.9 6.95 -5.7 6.45 -8.8 9.2 -10.3 9.6 -11.2 5.6 -9.6 Q4.4 -8.95 3.85 -7.75 L6.2 -8.6 6.25 -5.75 5.15 -5.0 11.0 -0.3 Q8.2 -1.1 5.55 -2.1 4.35 -2.6 3.75 -3.75 4.4 -2.25 5.5 -1.15 7.0 0.3 9.0 1.15 11.15 2.1 13.4 2.85 L13.85 2.35 16.65 3.5 15.8 4.15 14.25 4.35 12.05 6.0 15.7 5.25 16.85 5.75 15.5 6.9 11.75 7.65 17.3 7.5 17.4 7.1 17.55 7.15 19.65 7.6 19.6 7.8 Q19.15 9.15 20.05 9.3 19.4 11.4 19.4 13.6 L19.6 15.15 Q20.2 17.8 18.05 19.45 L17.45 15.85 16.3 15.8 15.2 15.8 15.0 14.5 16.1 14.4 15.75 11.35 Q15.55 10.3 14.85 9.5 11.3 10.4 7.6 9.55 L15.25 8.55 7.4 7.4 7.15 6.75 5.9 6.75 5.55 7.25 5.6 8.4 5.25 7.6 5.1 6.75 5.4 5.8 Q6.3 4.4 8.2 4.15 10.3 4.0 11.5 2.4 L8.7 1.4 5.65 0.25 Q4.4 -0.35 4.0 -1.55 L3.05 -4.8 Q2.55 -6.4 2.6 -7.9 2.7 -10.9 3.25 -13.95 L3.7 -12.9 Q5.6 -14.15 7.25 -15.7 8.3 -16.6 8.45 -17.95 L7.05 -18.3 4.8 -16.85 4.9 -17.2 Q5.4 -19.25 7.0 -20.55 L12.6 -24.3 13.6 -25.2 14.25 -25.3 M17.5 20.0 Q13.65 23.1 9.1 25.3 L2.9 27.95 Q0.4 28.9 -2.1 28.05 L-4.5 26.45 Q-5.45 25.45 -7.0 25.5 -9.0 25.25 -10.45 24.1 -11.95 22.85 -13.75 22.5 L-14.0 22.45 -14.1 21.75 -14.05 21.35 -14.25 21.8 Q-15.35 22.5 -16.5 22.25 L-22.1 21.3 Q-23.6 21.05 -24.3 19.7 -25.1 18.25 -24.95 16.6 L-23.7 15.45 Q-22.65 14.4 -21.35 14.05 L-20.3 13.8 -19.05 14.3 -19.05 14.15 -18.8 13.55 Q-16.4 13.15 -15.1 15.15 -14.55 15.9 -14.35 16.85 L-14.05 19.35 -14.05 21.35 Q-12.75 17.15 -9.0 15.25 L-7.95 14.9 Q-6.5 14.9 -5.15 14.3 L-3.6 13.25 Q-2.85 12.45 -1.75 12.15 -0.45 11.9 0.9 12.15 L-0.6 13.3 2.15 13.9 2.45 14.5 2.75 17.7 1.5 18.0 2.9 19.0 -1.6 19.2 -3.0 20.5 -8.25 18.5 -7.0 19.35 -6.55 19.95 Q-5.9 21.0 -5.75 22.25 L0.4 23.0 2.6 23.25 Q3.7 23.5 4.75 24.0 L1.0 21.75 1.0 21.0 3.5 21.75 11.0 18.75 9.25 18.0 7.9 17.55 5.1 17.0 Q5.1 16.05 5.5 15.4 5.9 14.7 6.45 14.7 L5.8 15.45 5.95 15.9 9.55 14.7 9.85 15.5 10.9 16.05 11.8 15.7 12.65 14.95 12.65 15.05 12.7 15.4 12.3 15.7 12.15 16.1 12.65 17.15 13.8 17.25 13.6 18.0 15.5 17.75 15.5 17.05 17.5 20.0 M1.75 -21.2 L2.75 -21.75 6.0 -24.05 Q6.85 -24.7 7.85 -25.2 L10.1 -26.55 10.55 -27.25 11.25 -26.75 7.65 -23.85 6.7 -23.0 5.3 -21.85 3.75 -20.9 Q2.6 -20.4 1.75 -21.2 M-1.45 -16.9 L0.4 -14.95 1.5 -14.95 2.1 -16.0 2.3 -16.85 2.35 -16.25 2.25 -15.4 Q1.85 -13.8 0.2 -13.6 L-0.65 -13.65 -1.05 -14.0 Q-1.85 -15.1 -1.45 -16.9 M7.3 -14.15 Q6.75 -13.75 6.75 -13.15 6.75 -12.55 7.3 -12.1 7.8 -11.7 8.55 -11.7 9.3 -11.7 9.85 -12.1 10.35 -12.55 10.35 -13.15 10.35 -13.75 9.85 -14.15 9.3 -14.6 8.55 -14.6 7.8 -14.6 7.3 -14.15 M-8.95 8.0 L-7.85 7.75 -7.35 7.8 -8.6 8.5 -9.25 8.3 -8.95 8.0 M-6.0 9.95 L-6.35 11.85 -7.65 12.25 -9.35 12.0 -9.95 10.0 -14.1 10.15 -15.85 9.7 Q-17.55 9.15 -17.35 7.3 -17.35 6.3 -16.95 5.6 -16.6 4.9 -16.05 4.9 L-16.05 7.4 -12.2 8.25 -11.25 8.7 -9.65 8.95 -8.65 8.9 Q-8.6 9.6 -7.8 9.85 L-6.0 9.95 M0.45 -3.3 L0.25 -3.05 0.0 -2.9 -0.45 -3.65 -0.05 -4.05 0.0 -4.25 0.3 -6.0 -0.25 -6.45 0.0 -6.45 0.15 -6.45 0.3 -6.0 Q1.2 -4.7 0.45 -3.3 M-0.05 -1.8 L-0.15 -0.6 -1.8 -0.25 -2.1 -1.95 -1.9 -2.6 -1.2 -1.5 -0.05 -1.8 M-1.85 -0.15 L-2.4 2.1 -3.2 2.3 -4.5 1.9 Q-5.9 1.0 -5.35 -0.75 -5.05 -1.7 -4.1 -1.8 L-4.7 -1.15 -4.6 0.15 -2.25 0.25 -1.85 -0.15 M-1.95 -3.0 L-2.25 -3.4 -2.6 -4.3 Q-2.7 -5.35 -2.25 -6.15 L-1.4 -6.5 -2.0 -6.15 Q-2.4 -5.1 -1.75 -4.15 L-1.5 -3.95 -1.95 -3.0 M16.75 6.5 L16.85 6.6 16.65 6.65 16.75 6.5 M8.75 16.1 L8.15 16.85 10.9 17.45 10.9 16.9 9.85 16.25 8.75 16.1 M0.35 17.65 L1.0 17.0 Q1.9 16.15 1.3 14.85 0.3 14.9 -0.4 15.75 -1.1 16.6 -0.65 17.55 L0.35 17.65 M-17.25 18.25 Q-16.9 19.15 -15.9 19.85 L-15.3 20.25 -14.9 19.5 Q-15.7 17.4 -17.5 16.0 L-19.65 14.65 -20.6 14.4 Q-21.65 15.25 -21.4 16.8 -21.2 18.35 -19.5 18.35 L-18.4 18.1 -18.0 17.95 -17.8 17.0 -17.25 18.2 -17.3 18.2 -17.25 18.25 M-3.8 16.15 L-3.9 15.9 Q-4.75 15.3 -5.8 15.55 -8.05 15.65 -10.05 17.25 L-9.0 17.1 -9.05 17.75 -8.5 17.9 -7.8 17.45 -4.15 17.55 Q-3.55 17.1 -3.8 16.15" fill="#990000" fill-rule="evenodd" stroke="none"/>
      <path d="M16.7 -22.05 L18.3 -21.0 Q20.7 -18.8 21.0 -16.25 L20.9 -15.9 20.7 -15.75 Q20.3 -15.7 20.15 -16.0 L19.35 -17.1 Q16.8 -20.15 12.7 -20.6 L9.8 -20.1 12.35 -21.5 Q14.3 -22.55 16.7 -22.05 M16.3 0.25 L17.2 1.65 18.45 2.5 Q21.1 4.65 21.1 6.9 L20.75 8.1 20.05 9.3 Q19.15 9.15 19.6 7.8 L19.65 7.6 17.55 7.15 17.4 7.1 17.3 7.5 11.75 7.65 15.5 6.9 16.85 5.75 15.7 5.25 12.05 6.0 14.25 4.35 15.8 4.15 16.65 3.5 13.85 2.35 13.4 2.85 Q11.15 2.1 9.0 1.15 7.0 0.3 5.5 -1.15 4.4 -2.25 3.75 -3.75 4.35 -2.6 5.55 -2.1 8.2 -1.1 11.0 -0.3 L5.15 -5.0 6.25 -5.75 6.2 -8.6 3.85 -7.75 Q4.4 -8.95 5.6 -9.6 L9.6 -11.2 9.2 -10.3 6.45 -8.8 6.95 -5.7 11.6 -6.9 12.35 -7.1 9.8 -5.0 10.95 -3.45 10.7 -2.25 14.15 -3.1 13.35 -1.0 16.3 0.25 M10.55 -27.25 L10.1 -26.55 7.85 -25.2 Q6.85 -24.7 6.0 -24.05 L2.75 -21.75 1.75 -21.2 1.4 -21.4 1.05 -21.65 1.1 -22.1 Q1.45 -23.1 2.1 -23.7 L2.55 -24.25 Q5.4 -27.6 9.9 -27.7 10.6 -27.85 10.55 -27.25 M4.8 -16.85 L7.05 -18.3 8.45 -17.95 Q8.3 -16.6 7.25 -15.7 5.6 -14.15 3.7 -12.9 L3.25 -13.95 3.25 -14.25 3.25 -14.35 Q3.3 -14.95 3.8 -15.65 L4.55 -16.6 4.8 -16.85 M5.6 8.4 L5.55 7.25 5.9 6.75 7.15 6.75 7.4 7.4 15.25 8.55 7.6 9.55 6.2 9.25 Q5.6 8.9 5.6 8.4 M2.3 -16.85 L2.1 -16.0 1.5 -14.95 0.4 -14.95 -1.45 -16.9 -0.95 -18.0 -0.35 -18.2 Q1.4 -18.6 2.25 -17.35 L2.3 -16.85 M9.85 13.4 L12.75 13.45 Q12.95 14.35 12.65 14.95 L11.8 15.7 10.9 16.05 9.85 15.5 9.55 14.7 5.95 15.9 5.8 15.45 6.45 14.7 Q8.0 13.1 9.6 14.05 L9.7 13.9 9.85 13.4 M13.7 15.5 L13.75 15.5 13.9 15.55 Q14.4 15.75 14.4 16.2 L14.4 16.5 14.35 16.65 13.8 17.25 12.65 17.15 12.15 16.1 12.3 15.7 12.7 15.4 13.3 15.4 13.7 15.5 M7.3 -14.15 Q7.8 -14.6 8.55 -14.6 9.3 -14.6 9.85 -14.15 10.35 -13.75 10.35 -13.15 10.35 -12.55 9.85 -12.1 9.3 -11.7 8.55 -11.7 7.8 -11.7 7.3 -12.1 6.75 -12.55 6.75 -13.15 6.75 -13.75 7.3 -14.15 M-7.35 7.8 L-5.6 8.15 -6.0 9.95 -7.8 9.85 Q-8.6 9.6 -8.65 8.9 L-9.65 8.95 -11.25 8.7 -12.2 8.25 -16.05 7.4 -16.05 4.9 -15.85 4.65 -14.95 4.45 Q-14.4 4.65 -13.85 4.95 L-12.85 5.7 Q-11.2 7.5 -9.25 8.3 L-8.6 8.5 -7.35 7.8 M0.0 -2.9 L-0.05 -2.85 0.0 -2.55 -0.05 -1.8 -1.2 -1.5 -1.9 -2.6 -1.95 -3.0 -1.5 -3.95 -1.75 -4.15 Q-2.4 -5.1 -2.0 -6.15 L-1.4 -6.5 -0.25 -6.45 0.3 -6.0 0.0 -4.25 -0.05 -4.05 -0.45 -3.65 0.0 -2.9 M-1.8 -0.25 L-1.85 -0.15 -2.25 0.25 -4.6 0.15 -4.7 -1.15 -4.1 -1.8 -2.1 -1.95 -1.8 -0.25 M16.75 6.5 L16.65 6.65 16.85 6.6 16.75 6.5 M5.1 17.0 L7.9 17.55 9.25 18.0 11.0 18.75 3.5 21.75 1.0 21.0 1.0 21.75 4.75 24.0 Q3.7 23.5 2.6 23.25 L0.4 23.0 -5.75 22.25 Q-5.9 21.0 -6.55 19.95 L-7.0 19.35 -8.25 18.5 -3.0 20.5 -1.6 19.2 2.9 19.0 1.5 18.0 2.75 17.7 2.8 17.75 Q3.6 18.9 4.3 21.05 L4.3 20.8 Q4.2 18.7 5.0 17.2 L5.1 17.0 M0.35 17.65 L-0.65 17.55 Q-1.1 16.6 -0.4 15.75 0.3 14.9 1.3 14.85 1.9 16.15 1.0 17.0 L0.35 17.65 M-17.25 18.2 L-17.8 17.0 -18.0 17.95 -18.4 18.1 -19.5 18.35 Q-21.2 18.35 -21.4 16.8 -21.65 15.25 -20.6 14.4 L-19.65 14.65 -17.5 16.0 Q-15.7 17.4 -14.9 19.5 L-15.3 20.25 -15.9 19.85 Q-16.9 19.15 -17.25 18.25 L-17.25 18.2 M-3.8 16.15 Q-3.55 17.1 -4.15 17.55 L-7.8 17.45 -8.5 17.9 -9.05 17.75 -9.0 17.1 -10.05 17.25 Q-8.05 15.65 -5.8 15.55 -4.75 15.3 -3.9 15.9 L-3.8 16.15" fill="#ff0000" fill-rule="evenodd" stroke="none"/>
      <path d="M12.65 15.05 L13.7 15.5 13.3 15.4 12.7 15.4 12.65 15.05" fill="#aa5649" fill-rule="evenodd" stroke="none"/>
      <path d="M19.5 -10.25 L19.35 -9.45 16.15 -4.9 13.5 -5.5 12.95 -6.35 14.5 -7.45 Q12.55 -8.5 11.55 -10.5 L14.65 -9.1 15.0 -13.0 12.9 -13.35 Q12.1 -13.35 11.65 -14.0 10.65 -15.45 11.6 -16.9 12.9 -19.05 15.2 -18.55 L16.55 -16.85 Q19.1 -13.95 19.5 -10.25" fill="#650101" fill-rule="evenodd" stroke="none"/>
      <path d="M3.5 -30.75 Q4.75 -32.35 6.7 -33.2 9.55 -34.55 12.85 -34.1 L18.05 -34.4 18.15 -34.5 18.1 -34.4 18.05 -34.4 13.95 -31.2 13.65 -31.9 11.85 -31.2 10.35 -31.8 8.3 -31.95 3.5 -30.75" fill="#fff9d4" fill-rule="evenodd" stroke="none"/>
      <path d="M2.15 -28.1 L3.5 -30.75 8.3 -31.95 10.35 -31.8 11.85 -31.2 13.65 -31.9 13.95 -31.2 18.05 -34.4 18.1 -34.4 16.9 -32.45 Q15.75 -30.45 13.9 -29.1 L2.15 -28.1" fill="#cec9ab" fill-rule="evenodd" stroke="none"/>
      <path d="M13.9 -29.1 L17.25 -30.0 17.25 -29.5 15.5 -27.5 17.5 -27.5 Q16.9 -27.1 15.6 -25.95 14.95 -25.5 14.25 -25.3 L13.6 -25.2 12.6 -24.3 12.55 -24.3 6.7 -23.0 7.65 -23.85 11.25 -26.75 10.55 -27.25 Q10.6 -27.85 9.9 -27.7 5.4 -27.6 2.55 -24.25 L2.1 -23.7 Q1.45 -23.1 1.1 -22.1 L1.05 -21.65 1.4 -21.4 Q0.05 -20.9 -2.05 -19.05 -4.6 -16.8 -5.25 -13.95 -5.55 -18.75 -1.4 -22.65 -8.0 -16.85 -11.0 -8.95 -12.0 -6.25 -13.15 -0.5 L-15.85 4.65 -16.05 4.9 Q-16.6 4.9 -16.95 5.6 -17.35 6.3 -17.35 7.3 -19.25 10.8 -20.0 12.9 L-20.3 13.8 -21.35 14.05 Q-22.65 14.4 -23.7 15.45 L-24.95 16.6 -25.95 17.0 -25.75 15.95 -25.6 15.1 -25.1 12.9 -24.7 11.45 Q-22.4 3.6 -17.55 -3.7 -16.0 -6.0 -13.85 -11.2 -11.7 -16.35 -10.0 -18.9 -6.0 -24.75 2.15 -28.1 L13.9 -29.1 M18.05 19.45 L18.25 19.75 18.65 20.45 18.1 21.75 17.55 20.2 17.6 19.9 Q17.7 18.1 16.8 16.6 L16.3 15.8 17.45 15.85 18.05 19.45 M1.1 -8.55 L1.05 -8.1 Q2.05 -3.7 2.05 -2.55 2.05 -1.6 1.65 0.0 L1.3 1.7 1.4 1.7 Q2.0 4.95 3.75 7.9 L4.65 9.35 5.35 10.0 Q5.35 10.8 4.6 11.5 3.75 12.25 3.65 12.9 3.45 14.25 2.5 14.5 L2.45 14.5 2.15 13.9 -0.6 13.3 0.9 12.15 1.3 10.8 Q1.3 9.8 -0.3 9.8 -1.35 9.8 -2.6 11.0 L-0.25 8.1 Q1.05 6.75 1.05 4.9 1.05 3.9 0.8 3.8 L-0.3 3.8 -1.2 3.85 Q-1.6 3.9 -1.95 4.3 L-0.2 1.85 Q0.8 0.05 0.8 -1.7 L0.45 -3.3 Q1.2 -4.7 0.3 -6.0 L0.15 -6.45 0.0 -6.45 0.45 -7.25 1.1 -8.55" fill="#e98d8d" fill-rule="evenodd" stroke="none"/>
      <path d="M-14.1 21.75 L-14.25 21.8 -14.05 21.35 -14.1 21.75 M1.4 -21.4 L1.75 -21.2 Q2.6 -20.4 3.75 -20.9 L5.3 -21.85 6.7 -23.0 12.55 -24.3 12.6 -24.3 7.0 -20.55 6.55 -20.55 5.55 -20.05 5.65 -20.45 Q4.45 -19.85 2.25 -17.35 1.4 -18.6 -0.35 -18.2 L-0.95 -18.0 -1.45 -16.9 Q-1.85 -15.1 -1.05 -14.0 L-0.65 -13.65 -1.2 -12.4 -1.25 -12.1 -3.05 -9.75 Q-6.85 -4.25 -8.45 6.9 L-8.4 6.9 -8.95 8.0 -9.25 8.3 Q-11.2 7.5 -12.85 5.7 L-13.85 4.95 Q-14.4 4.65 -14.95 4.45 L-15.85 4.65 -13.15 -0.5 Q-12.0 -6.25 -11.0 -8.95 -8.0 -16.85 -1.4 -22.65 -5.55 -18.75 -5.25 -13.95 -4.6 -16.8 -2.05 -19.05 0.05 -20.9 1.4 -21.4 M-7.65 12.25 L-7.95 14.9 -9.0 15.25 Q-12.75 17.15 -14.05 21.35 L-14.05 19.35 -14.35 16.85 Q-14.55 15.9 -15.1 15.15 -16.4 13.15 -18.8 13.55 L-19.05 14.15 -19.05 14.3 -20.3 13.8 -20.0 12.9 Q-19.25 10.8 -17.35 7.3 -17.55 9.15 -15.85 9.7 L-14.1 10.15 -9.95 10.0 -11.6 12.9 -13.35 15.1 -11.6 13.75 -11.25 13.45 -9.35 12.0 -7.65 12.25" fill="#ad4949" fill-rule="evenodd" stroke="none"/>
      <path d="M7.0 -20.55 Q5.4 -19.25 4.9 -17.2 L4.8 -16.85 4.55 -16.6 3.8 -15.65 4.3 -16.85 5.55 -20.05 6.55 -20.55 7.0 -20.55 M3.25 -13.95 Q2.7 -10.9 2.6 -7.9 2.55 -6.4 3.05 -4.8 L4.0 -1.55 Q4.4 -0.35 5.65 0.25 L8.7 1.4 11.5 2.4 Q10.3 4.0 8.2 4.15 6.3 4.4 5.4 5.8 L5.1 6.75 5.25 7.6 5.6 8.4 Q5.6 8.9 6.2 9.25 L7.6 9.55 Q11.3 10.4 14.85 9.5 15.55 10.3 15.75 11.35 L16.1 14.4 15.0 14.5 15.2 15.8 13.9 15.55 13.75 15.5 13.7 15.5 12.65 15.05 12.65 14.95 Q12.95 14.35 12.75 13.45 L9.85 13.4 Q7.2 11.7 5.35 10.0 L4.65 9.35 3.75 7.9 Q2.0 4.95 1.4 1.7 L1.3 1.7 1.65 0.0 Q2.05 -1.6 2.05 -2.55 2.05 -3.7 1.05 -8.1 L1.1 -8.55 1.25 -8.6 1.55 -9.6 Q2.15 -11.7 3.25 -14.35 L3.25 -14.25 3.25 -13.95 M-17.25 18.2 L-17.25 18.25 -17.3 18.2 -17.25 18.2" fill="#e2b181" fill-rule="evenodd" stroke="none"/>
      <path d="M-1.25 -12.1 Q-1.25 -11.35 -0.2 -11.35 0.5 -11.35 0.75 -11.9 L1.3 -13.0 1.4 -12.3 1.1 -10.8 0.75 -9.6 Q0.75 -9.05 1.0 -8.5 L1.1 -8.55 0.45 -7.25 0.0 -6.45 -0.25 -6.45 -1.4 -6.5 -2.25 -6.15 Q-2.7 -5.35 -2.6 -4.3 L-2.25 -3.4 -1.95 -3.0 -1.9 -2.6 -2.1 -1.95 -4.1 -1.8 Q-5.05 -1.7 -5.35 -0.75 -5.9 1.0 -4.5 1.9 L-3.2 2.3 -2.4 2.1 -1.85 -0.15 -1.8 -0.25 -0.15 -0.6 -0.05 -1.8 0.0 -2.55 -0.05 -2.85 0.0 -2.9 0.25 -3.05 0.45 -3.3 0.8 -1.7 Q0.8 0.05 -0.2 1.85 L-1.95 4.3 Q-1.6 3.9 -1.2 3.85 L-0.3 3.8 0.8 3.8 Q1.05 3.9 1.05 4.9 1.05 6.75 -0.25 8.1 L-2.6 11.0 Q-1.35 9.8 -0.3 9.8 1.3 9.8 1.3 10.8 L0.9 12.15 Q-0.45 11.9 -1.75 12.15 -2.85 12.45 -3.6 13.25 L-5.15 14.3 Q-6.5 14.9 -7.95 14.9 L-7.65 12.25 -6.35 11.85 -6.0 9.95 -5.6 8.15 -7.35 7.8 -7.85 7.75 -8.95 8.0 -8.4 6.9 -8.45 6.9 Q-6.85 -4.25 -3.05 -9.75 L-1.25 -12.1 M8.75 16.1 L9.85 16.25 10.9 16.9 10.9 17.45 8.15 16.85 8.75 16.1 M15.5 17.05 L15.5 17.75 13.6 18.0 13.8 17.25 14.35 16.65 14.4 16.5 Q15.0 16.7 15.5 17.05 M-9.95 10.0 L-9.35 12.0 -11.25 13.45 -11.6 13.75 -13.35 15.1 -11.6 12.9 -9.95 10.0" fill="#8e3c3c" fill-rule="evenodd" stroke="none"/>
      <path d="M17.55 20.2 L17.5 20.0 15.5 17.05 Q15.0 16.7 14.4 16.5 L14.4 16.2 Q14.4 15.75 13.9 15.55 L15.2 15.8 16.3 15.8 16.8 16.6 Q17.7 18.1 17.6 19.9 L17.55 20.2 M5.35 10.0 Q7.2 11.7 9.85 13.4 L9.7 13.9 9.6 14.05 Q8.0 13.1 6.45 14.7 5.9 14.7 5.5 15.4 5.1 16.05 5.1 17.0 L5.0 17.2 Q4.2 18.7 4.3 20.8 L4.3 21.05 Q3.6 18.9 2.8 17.75 L2.75 17.7 2.45 14.5 2.5 14.5 Q3.45 14.25 3.65 12.9 3.75 12.25 4.6 11.5 5.35 10.8 5.35 10.0" fill="#f44545" fill-rule="evenodd" stroke="none"/>
      <path d="M2.25 -17.35 Q4.45 -19.85 5.65 -20.45 L5.55 -20.05 4.3 -16.85 3.8 -15.65 Q3.3 -14.95 3.25 -14.35 2.15 -11.7 1.55 -9.6 L1.25 -8.6 1.1 -8.55 1.0 -8.5 Q0.75 -9.05 0.75 -9.6 L1.1 -10.8 1.4 -12.3 1.3 -13.0 0.75 -11.9 Q0.5 -11.35 -0.2 -11.35 -1.25 -11.35 -1.25 -12.1 L-1.2 -12.4 -0.65 -13.65 0.2 -13.6 Q1.85 -13.8 2.25 -15.4 L2.35 -16.25 2.3 -16.85 2.25 -17.35" fill="url(#gradient0)" fill-rule="evenodd" stroke="none"/>
    </g>
    <linearGradient gradientTransform="matrix(1.0, 0.0, 0.0, 1.0, 17.8, -0.95)" gradientUnits="userSpaceOnUse" id="gradient0" spreadMethod="pad" x1="-819.2" x2="819.2">
      <stop offset="0.0" stop-color="#ff0000"/>
      <stop offset="1.0" stop-color="#8e3c3c"/>
    </linearGradient>
    <g id="sprite4" transform="matrix(1.0, 0.0, 0.0, 1.0, 9.7, 14.1)">
      <use ffdec:characterId="1152" height="20.0" transform="matrix(1.0, 0.0, 0.0, 1.0, -7.25, -9.95)" width="15.2" xlink:href="#morphshape0"/>
      <use ffdec:characterId="1153" height="13.85" transform="matrix(1.0, 0.0, 0.0, 1.0, -1.95, -9.45)" width="8.55" xlink:href="#morphshape1"/>
      <use ffdec:characterId="1154" height="18.1" transform="matrix(1.0, 0.0, 0.0, 1.0, -5.75, -9.5)" width="11.1" xlink:href="#morphshape2"/>
      <use ffdec:characterId="1156" height="2.55" transform="matrix(1.0, 0.0, 0.0, 1.0, 3.65, -5.5)" width="3.65" xlink:href="#sprite5"/>
      <use ffdec:characterId="1158" height="5.2" transform="matrix(1.0, 0.0, 0.0, 1.0, -1.4, -13.35)" width="3.35" xlink:href="#sprite6"/>
      <use ffdec:characterId="1160" height="5.6" transform="matrix(1.0, 0.0, 0.0, 1.0, -5.65, -12.85)" width="2.4" xlink:href="#sprite7"/>
      <use ffdec:characterId="1162" height="1.7" transform="matrix(1.0, 0.0, 0.0, 1.0, -9.2, -5.0)" width="3.85" xlink:href="#sprite8"/>
      <use ffdec:characterId="1164" height="1.75" transform="matrix(1.0, 0.0, 0.0, 1.0, -9.7, -0.35)" width="3.15" xlink:href="#sprite9"/>
    </g>
    <g id="morphshape0" transform="matrix(1.0, 0.0, 0.0, 1.0, 7.25, 9.95)">
      <path d="M-7.2 -0.55 Q-7.55 4.3 -3.5 7.15 0.4 9.85 4.95 9.95 5.3 9.6 5.6 9.25 7.15 6.3 7.2 2.6 7.05 -4.4 2.4 -6.2 0.85 -8.95 -0.05 -9.9 L-1.2 -9.95 Q-3.05 -9.9 -4.55 -9.1 L-6.7 -3.5 Q-6.95 -2.0 -7.2 -0.55" fill="#990000" fill-rule="evenodd" stroke="none"/>
      <path d="M-7.2 -0.55 Q-6.95 -2.0 -6.7 -3.5 L-4.55 -9.1 Q-3.05 -9.9 -1.2 -9.95 L-0.05 -9.9 Q0.85 -8.95 2.4 -6.2 7.05 -4.4 7.2 2.6 7.15 6.3 5.6 9.25 5.3 9.6 4.95 9.95 0.4 9.85 -3.5 7.15 -7.55 4.3 -7.2 -0.55 Z" fill="none" stroke="#000000" stroke-linecap="round" stroke-linejoin="round" stroke-opacity="0.0" stroke-width="0.0"/>
    </g>
    <g id="morphshape1" transform="matrix(1.0, 0.0, 0.0, 1.0, 1.95, 9.45)">
      <path d="M-1.95 -8.1 Q-1.75 -6.85 -0.15 -5.95 -1.05 -4.55 1.1 -1.9 3.65 1.15 5.8 2.4 7.3 -2.85 0.8 -5.8 0.9 -6.95 0.6 -7.7 -0.1 -8.45 -0.8 -9.2 -1.9 -10.05 -1.95 -8.1" fill="#fe8989" fill-rule="evenodd" stroke="none"/>
      <path d="M-1.95 -8.1 Q-1.9 -10.05 -0.8 -9.2 -0.1 -8.45 0.6 -7.7 0.9 -6.95 0.8 -5.8 7.3 -2.85 5.8 2.4 3.65 1.15 1.1 -1.9 -1.05 -4.55 -0.15 -5.95 -1.75 -6.85 -1.95 -8.1 Z" fill="none" stroke="#000000" stroke-linecap="round" stroke-linejoin="round" stroke-opacity="0.0" stroke-width="0.0"/>
    </g>
    <g id="morphshape2" transform="matrix(1.0, 0.0, 0.0, 1.0, 5.75, 9.5)">
      <path d="M-5.75 0.9 L-5.75 1.05 Q-5.6 1.95 -4.2 4.3 L-3.5 5.2 Q-1.85 6.85 1.15 6.95 L1.55 7.1 Q2.55 7.5 3.15 8.6 3.8 8.55 4.45 8.5 L5.25 8.5 5.35 7.75 5.3 7.1 5.3 6.8 5.2 6.45 5.1 6.45 4.2 6.1 3.9 6.0 Q2.2 5.35 0.7 4.35 L-0.1 3.8 -0.6 3.35 -1.4 2.05 Q-1.5 1.3 -1.6 0.55 L-1.55 -0.05 Q-1.3 -2.25 0.75 -4.4 L0.75 -4.4 Q2.0 -6.0 3.65 -7.25 L4.3 -7.7 3.2 -8.85 3.0 -9.05 2.1 -8.35 1.5 -7.9 Q-0.7 -6.15 -2.9 -4.45 L-3.65 -3.95 Q-5.2 -2.55 -5.75 0.9" fill="#76015b" fill-rule="evenodd" stroke="none"/>
      <path d="M-5.75 0.9 Q-5.2 -2.55 -3.65 -3.95 L-2.9 -4.45 Q-0.7 -6.15 1.5 -7.9 L2.1 -8.35 3.0 -9.05 3.2 -8.85 4.3 -7.7 3.65 -7.25 Q2.0 -6.0 0.75 -4.4 L0.75 -4.4 Q-1.3 -2.25 -1.55 -0.05 L-1.6 0.55 Q-1.5 1.3 -1.4 2.05 L-0.6 3.35 -0.1 3.8 0.7 4.35 Q2.2 5.35 3.9 6.0 L4.2 6.1 5.1 6.45 5.2 6.45 5.3 6.8 5.3 7.1 5.35 7.75 5.25 8.5 4.45 8.5 Q3.8 8.55 3.15 8.6 2.55 7.5 1.55 7.1 L1.15 6.95 Q-1.85 6.85 -3.5 5.2 L-4.2 4.3 Q-5.6 1.95 -5.75 1.05 L-5.75 0.9 Z" fill="none" stroke="#000000" stroke-linecap="round" stroke-linejoin="round" stroke-opacity="0.0" stroke-width="0.0"/>
    </g>
    <g id="sprite5" transform="matrix(1.0, 0.0, 0.0, 1.0, 1.8, 1.3)">
      <use ffdec:characterId="1155" height="2.55" transform="matrix(1.0, 0.0, 0.0, 1.0, -1.8, -1.3)" width="3.65" xlink:href="#shape5"/>
    </g>
    <g id="shape5" transform="matrix(1.0, 0.0, 0.0, 1.0, 1.8, 1.3)">
      <path d="M-1.8 0.85 L-0.75 0.1 1.85 -1.3 1.85 0.15 Q0.8 0.95 -0.4 1.25 L-1.8 0.85" fill="#ff0000" fill-rule="evenodd" stroke="none"/>
    </g>
    <g id="sprite6" transform="matrix(1.0, 0.0, 0.0, 1.0, 1.65, 2.6)">
      <use ffdec:characterId="1157" height="5.2" transform="matrix(1.0, 0.0, 0.0, 1.0, -1.65, -2.6)" width="3.35" xlink:href="#shape6"/>
    </g>
    <g id="shape6" transform="matrix(1.0, 0.0, 0.0, 1.0, 1.65, 2.6)">
      <path d="M1.7 -1.75 Q0.1 0.35 -0.7 2.6 L-1.65 1.05 -0.65 -0.8 0.8 -2.6 1.7 -1.75" fill="#ff0000" fill-rule="evenodd" stroke="none"/>
    </g>
    <g id="sprite7" transform="matrix(1.0, 0.0, 0.0, 1.0, 1.2, 2.8)">
      <use ffdec:characterId="1159" height="5.6" transform="matrix(1.0, 0.0, 0.0, 1.0, -1.2, -2.8)" width="2.4" xlink:href="#shape7"/>
    </g>
    <g id="shape7" transform="matrix(1.0, 0.0, 0.0, 1.0, 1.2, 2.8)">
      <path d="M-1.05 -2.8 L0.15 -2.8 0.65 -1.3 Q1.3 0.9 1.2 1.8 1.1 2.65 0.5 2.7 L0.0 2.8 -0.05 2.8 -0.75 0.75 -1.2 -1.6 -1.05 -2.8" fill="#ff0000" fill-rule="evenodd" stroke="none"/>
    </g>
    <g id="sprite8" transform="matrix(1.0, 0.0, 0.0, 1.0, 1.95, 0.85)">
      <use ffdec:characterId="1161" height="1.7" transform="matrix(1.0, 0.0, 0.0, 1.0, -1.95, -0.85)" width="3.85" xlink:href="#shape8"/>
    </g>
    <g id="shape8" transform="matrix(1.0, 0.0, 0.0, 1.0, 1.95, 0.85)">
      <path d="M1.75 0.55 L1.3 0.85 -1.95 0.7 -1.95 -0.85 -0.4 -0.75 Q0.85 -0.75 1.9 0.15 L1.75 0.55" fill="#ff0000" fill-rule="evenodd" stroke="none"/>
    </g>
    <g id="sprite9" transform="matrix(1.0, 0.0, 0.0, 1.0, 1.6, 0.85)">
      <use ffdec:characterId="1163" height="1.75" transform="matrix(1.0, 0.0, 0.0, 1.0, -1.6, -0.85)" width="3.15" xlink:href="#shape9"/>
    </g>
    <g id="shape9" transform="matrix(1.0, 0.0, 0.0, 1.0, 1.6, 0.85)">
      <path d="M0.2 -0.85 L1.55 -0.75 1.25 0.35 -0.8 0.9 -1.6 0.85 -1.25 -0.3 0.2 -0.85" fill="#ff0000" fill-rule="evenodd" stroke="none"/>
    </g>
  </defs>
</svg>
