<?xml version="1.0" encoding="UTF-8" standalone="no"?>
<svg xmlns:ffdec="https://www.free-decompiler.com/flash" xmlns:xlink="http://www.w3.org/1999/xlink" ffdec:objectType="frame" height="138.15px" width="57.25px" xmlns="http://www.w3.org/2000/svg">
  <g transform="matrix(1.0, 0.0, 0.0, 1.0, 25.5, 13.9)">
    <use ffdec:characterId="1098" ffdec:characterName="game_fla.upperleg2_852" height="88.0" id="upperLeg2" transform="matrix(1.0, 0.0, 0.0, 1.0, -25.5, -13.9)" width="57.25" xlink:href="#sprite0"/>
    <use ffdec:characterId="1105" height="70.7" id="lowerLegOuter2" transform="matrix(1.0, 0.0, 0.0, 1.0, -12.9492, 53.5502)" width="43.35" xlink:href="#sprite2"/>
  </g>
  <defs>
    <g id="sprite0" transform="matrix(1.0, 0.0, 0.0, 1.0, 30.1, 45.75)">
      <use ffdec:characterId="1094" height="85.4" transform="matrix(1.0, 0.0, 0.0, 1.0, -27.75, -43.15)" width="54.9" xlink:href="#shape0"/>
      <use ffdec:characterId="1081" height="100.0" id="shape" transform="matrix(0.4, 0.0, 0.0, 0.8, -19.9982, -40.0009)" width="100.0" xlink:href="#sprite1"/>
    </g>
    <g id="shape0" transform="matrix(1.0, 0.0, 0.0, 1.0, 27.75, 43.15)">
      <path d="M21.0 6.25 L21.35 6.25 21.0 7.9 20.9 8.45 19.8 8.35 16.4 8.6 10.55 8.3 5.65 8.0 1.85 8.05 -1.75 8.25 -10.5 7.9 -17.3 7.55 -18.6 7.5 -19.25 5.15 -19.25 5.05 -19.0 5.05 -12.4 5.25 16.0 6.1 21.0 6.25" fill="#d0a376" fill-rule="evenodd" stroke="none"/>
      <path d="M20.9 8.45 L20.65 9.5 19.55 15.85 Q18.85 20.25 18.15 22.35 L18.1 22.55 15.7 24.5 15.25 24.85 Q13.6 25.9 8.75 26.25 L12.75 26.75 15.15 26.6 17.3 25.75 16.8 29.45 Q16.35 32.45 13.55 36.9 10.7 41.35 5.7 42.1 L3.6 42.25 -3.45 41.8 Q-7.35 41.35 -11.45 37.95 -15.6 34.5 -15.5 31.0 L-15.0 25.75 -15.0 25.4 -15.05 24.35 Q-14.3 24.95 -13.05 25.2 L-11.9 25.35 -8.25 25.4 -5.25 25.75 -5.25 25.5 Q-10.6 23.9 -13.05 22.7 -14.25 22.1 -15.15 21.25 L-15.4 21.0 -16.05 17.4 -16.85 14.25 -18.5 7.95 -18.6 7.5 -17.3 7.55 -10.5 7.9 -1.75 8.25 1.85 8.05 5.65 8.0 10.55 8.3 16.4 8.6 19.8 8.35 20.9 8.45 M-1.75 8.25 L-1.75 8.35 -1.55 8.25 -1.75 8.25" fill="#ebbc8d" fill-rule="evenodd" stroke="none"/>
      <path d="M18.1 22.55 Q17.4 24.5 17.35 25.45 L17.3 25.75 15.15 26.6 12.75 26.75 8.75 26.25 Q13.6 25.9 15.25 24.85 L15.7 24.5 18.1 22.55 M-15.05 24.35 L-15.05 23.95 -15.05 23.8 -15.4 21.0 -15.15 21.25 Q-14.25 22.1 -13.05 22.7 -10.6 23.9 -5.25 25.5 L-5.25 25.75 -8.25 25.4 -11.9 25.35 -13.05 25.2 Q-14.3 24.95 -15.05 24.35" fill="#d8ac8c" fill-rule="evenodd" stroke="none"/>
      <path d="M-26.65 -29.95 L-26.6 -30.15 -24.0 -34.55 Q-22.6 -36.6 -20.3 -38.65 -18.0 -40.7 -12.05 -42.25 -6.1 -43.85 2.7 -42.65 11.45 -41.45 16.1 -36.75 L19.6 -33.1 19.75 -31.5 19.75 -27.6 Q19.75 -20.2 18.75 -17.15 17.0 -11.8 13.3 -5.65 L14.45 -6.8 Q17.65 -10.1 18.9 -10.3 L17.75 -3.6 17.55 -2.6 Q16.05 4.9 16.0 6.1 L-12.4 5.25 -15.0 -5.15 -15.2 -6.05 Q-16.55 -11.4 -16.25 -15.75 -16.15 -17.75 -19.15 -19.2 L-23.5 -21.5 Q-24.75 -22.9 -25.7 -25.6 -26.5 -27.8 -26.65 -29.95 M0.6 -19.65 L0.25 -19.55 Q1.0 -14.15 1.0 -9.65 L1.2 -5.0 1.3 -2.9 1.6 3.75 2.15 3.5 2.4 1.3 2.05 -1.45 1.65 -4.4 1.65 -5.0 Q1.7 -7.6 2.05 -11.65 2.1 -15.6 0.6 -19.65" fill="#749bc1" fill-rule="evenodd" stroke="none"/>
      <path d="M0.6 -19.65 Q2.1 -15.6 2.05 -11.65 1.7 -7.6 1.65 -5.0 L1.65 -4.4 2.05 -1.45 2.4 1.3 2.15 3.5 1.6 3.75 1.3 -2.9 1.2 -5.0 1.0 -9.65 Q1.0 -14.15 0.25 -19.55 L0.6 -19.65" fill="#64829f" fill-rule="evenodd" stroke="none"/>
      <path d="M24.05 -26.75 L24.4 -25.95 26.2 -20.6 Q27.1 -17.75 27.15 -14.15 27.2 -10.6 26.8 -8.2 L26.25 -5.0 25.6 -1.2 Q25.0 2.65 24.8 6.4 L24.8 6.45 21.35 6.25 21.0 6.25 Q21.0 2.15 21.8 -2.75 L22.65 -7.55 Q24.25 -15.4 24.25 -20.25 L24.05 -26.75 M-19.25 5.05 L-23.45 5.0 -23.45 3.65 Q-23.45 2.2 -23.6 1.6 L-23.75 0.75 -23.95 -1.15 -25.1 -8.9 -25.75 -12.75 -27.1 -21.4 -27.05 -21.3 Q-25.55 -18.95 -22.25 -16.5 -20.95 -15.5 -20.4 -13.7 -20.05 -12.45 -20.0 -10.25 -19.95 -9.15 -19.1 -6.85 L-18.9 -6.4 Q-18.25 -4.55 -18.25 -3.75 -18.25 -2.65 -19.0 5.0 L-19.0 5.05 -19.25 5.05" fill="#98b8d7" fill-rule="evenodd" stroke="none"/>
      <path d="M24.05 -26.75 L24.25 -20.25 Q24.25 -15.4 22.65 -7.55 L21.8 -2.75 Q21.0 2.15 21.0 6.25 L16.0 6.1 Q16.05 4.9 17.55 -2.6 L17.75 -3.6 18.9 -10.3 Q17.65 -10.1 14.45 -6.8 L13.3 -5.65 Q17.0 -11.8 18.75 -17.15 19.75 -20.2 19.75 -27.6 L19.75 -31.5 19.6 -33.1 22.1 -30.25 Q23.2 -28.75 24.05 -26.75 M-27.1 -21.4 L-27.45 -23.7 -27.65 -24.95 -27.75 -26.0 Q-27.75 -27.75 -26.65 -29.95 -26.5 -27.8 -25.7 -25.6 -24.75 -22.9 -23.5 -21.5 L-19.15 -19.2 Q-16.15 -17.75 -16.25 -15.75 -16.55 -11.4 -15.2 -6.05 L-15.0 -5.15 -12.4 5.25 -19.0 5.05 -19.0 5.0 Q-18.25 -2.65 -18.25 -3.75 -18.25 -4.55 -18.9 -6.4 L-19.1 -6.85 Q-19.95 -9.15 -20.0 -10.25 -20.05 -12.45 -20.4 -13.7 -20.95 -15.5 -22.25 -16.5 -25.55 -18.95 -27.05 -21.3 L-27.1 -21.4" fill="#81a8cf" fill-rule="evenodd" stroke="none"/>
    </g>
    <g id="sprite1" transform="matrix(1.0, 0.0, 0.0, 1.0, 50.0, 50.0)">
      <use ffdec:characterId="1080" height="100.0" transform="matrix(1.0, 0.0, 0.0, 1.0, -50.0, -50.0)" width="100.0" xlink:href="#shape1"/>
    </g>
    <g id="shape1" transform="matrix(1.0, 0.0, 0.0, 1.0, 50.0, 50.0)">
      <path d="M50.0 50.0 L-50.0 50.0 -50.0 -50.0 50.0 -50.0 50.0 50.0 Z" fill="none" stroke="#9900ff" stroke-linecap="round" stroke-linejoin="round" stroke-width="0.05"/>
    </g>
    <g id="sprite2" transform="matrix(1.0, 0.0, 0.0, 1.0, 18.15, 3.45)">
      <use ffdec:characterId="1104" ffdec:characterName="game_fla.lowerleg2_854" height="70.7" id="lowerLeg2" transform="matrix(1.0, 0.0, 0.0, 1.0, -18.15, -3.45)" width="43.35" xlink:href="#sprite3"/>
    </g>
    <g id="sprite3" transform="matrix(1.0, 0.0, 0.0, 1.0, 16.25, 35.0)">
      <use ffdec:characterId="1099" height="54.45" transform="matrix(1.0, 0.0, 0.0, 1.0, -16.25, -31.25)" width="33.85" xlink:href="#shape2"/>
      <use ffdec:characterId="1100" height="16.25" transform="matrix(1.0, 0.0, 0.0, 1.0, -14.35, 19.45)" width="41.45" xlink:href="#shape3"/>
      <use ffdec:characterId="1081" height="100.0" id="shape" transform="matrix(0.3, 0.0, 0.0, 0.7001, -15.0002, -35.0029)" width="100.0" xlink:href="#sprite1"/>
    </g>
    <g id="shape2" transform="matrix(1.0, 0.0, 0.0, 1.0, 16.25, 31.25)">
      <path d="M-4.05 20.45 L-4.85 20.45 -4.95 20.55 -4.9 20.4 -4.05 20.45" fill="#e0d9bb" fill-rule="evenodd" stroke="none"/>
      <path d="M5.5 19.85 L5.5 20.0 5.45 19.75 5.5 19.6 5.5 19.85" fill="#c2bca3" fill-rule="evenodd" stroke="none"/>
      <path d="M-14.6 -4.2 L-15.75 -10.3 -16.2 -14.75 Q-16.45 -19.25 -14.3 -25.1 -12.2 -30.95 -10.35 -31.1 -7.2 -31.7 -4.7 -29.55 -4.2 -29.5 -3.55 -29.0 10.85 -21.95 16.35 -25.5 18.15 -25.8 17.4 -24.05 L17.4 -24.0 17.35 -23.85 17.3 -23.65 17.2 -23.05 17.1 -22.2 Q15.0 -18.05 13.7 -11.65 L12.1 -2.75 9.9 -2.9 6.6 -3.05 -7.8 -3.85 -11.6 -4.05 -14.6 -4.2 M4.5 -20.05 L4.25 -24.05 Q3.95 -26.6 2.85 -25.85 1.75 -25.1 1.75 -23.85 1.75 -23.15 2.3 -19.95 2.95 -16.2 3.55 -14.5 4.5 -15.45 4.5 -20.05" fill="#ebbc8d" fill-rule="evenodd" stroke="none"/>
      <path d="M4.1 23.2 L2.0 23.2 1.8 21.85 1.25 16.5 Q1.1 15.35 -0.35 11.9 L-1.65 8.55 -4.45 15.65 Q-6.0 19.25 -6.0 23.1 L-6.0 23.2 -8.0 23.2 -7.1 20.7 Q-5.5 16.5 -5.5 13.25 -5.5 9.7 -6.15 5.4 L-6.5 3.35 -7.8 -3.85 6.6 -3.05 4.5 6.65 4.3 7.65 Q3.0 13.65 3.0 16.75 3.0 20.2 4.1 23.2" fill="#c9c4b2" fill-rule="evenodd" stroke="none"/>
      <path d="M6.3 23.2 L4.1 23.2 Q3.0 20.2 3.0 16.75 3.0 13.65 4.3 7.65 L4.5 6.65 6.6 -3.05 9.9 -2.9 7.45 7.8 7.35 8.35 Q6.0 14.65 6.0 18.25 6.0 22.2 6.25 23.05 L6.3 23.2 M2.0 23.2 L-6.0 23.2 -6.0 23.1 Q-6.0 19.25 -4.45 15.65 L-1.65 8.55 -0.35 11.9 Q1.1 15.35 1.25 16.5 L1.8 21.85 2.0 23.2 M-8.0 23.2 L-8.75 23.2 -8.4 21.9 Q-7.25 18.05 -7.25 16.35 -7.25 12.6 -9.2 6.2 L-9.65 4.6 Q-11.15 -0.35 -11.6 -4.05 L-7.8 -3.85 -6.5 3.35 -6.15 5.4 Q-5.5 9.7 -5.5 13.25 -5.5 16.5 -7.1 20.7 L-8.0 23.2 M5.5 19.85 L5.5 19.6 5.45 19.75 5.5 20.0 5.5 19.85 M-4.05 20.45 L-3.7 21.15 Q-3.0 22.35 -2.0 22.0 L-1.25 20.25 Q-0.75 19.35 -0.75 18.35 -1.75 12.9 -2.25 12.0 L-2.5 12.25 -3.55 15.7 -4.4 19.25 -4.05 20.45 -4.9 20.4 -4.95 20.55 -4.85 20.45 -4.05 20.45" fill="#d1cbb9" fill-rule="evenodd" stroke="none"/>
      <path d="M13.05 -2.7 L12.6 -1.05 9.95 7.6 9.6 8.8 Q7.8 14.85 7.8 19.6 7.8 20.65 8.4 22.3 8.55 22.75 9.35 23.2 L6.3 23.2 6.25 23.05 Q6.0 22.2 6.0 18.25 6.0 14.65 7.35 8.35 L7.45 7.8 9.9 -2.9 12.1 -2.75 13.05 -2.7 M-8.75 23.2 L-11.45 23.2 Q-10.25 20.05 -10.25 17.25 -10.25 15.05 -10.8 12.15 L-12.1 6.95 -12.2 6.6 -12.7 4.85 -12.8 4.5 -12.95 3.9 -13.35 2.35 -13.5 1.7 -14.6 -4.2 -11.6 -4.05 Q-11.15 -0.35 -9.65 4.6 L-9.2 6.2 Q-7.25 12.6 -7.25 16.35 -7.25 18.05 -8.4 21.9 L-8.75 23.2 M-4.05 20.45 L-4.4 19.25 -3.55 15.7 -2.5 12.25 -2.25 12.0 Q-1.75 12.9 -0.75 18.35 -0.75 19.35 -1.25 20.25 L-2.0 22.0 Q-3.0 22.35 -3.7 21.15 L-4.05 20.45" fill="#dad4c0" fill-rule="evenodd" stroke="none"/>
      <path d="M17.1 -22.2 L17.0 -20.7 14.35 -8.15 13.4 -4.05 13.35 -3.9 13.25 -3.45 13.05 -2.7 12.1 -2.75 13.7 -11.65 Q15.0 -18.05 17.1 -22.2 M4.5 -20.05 Q4.5 -15.45 3.55 -14.5 2.95 -16.2 2.3 -19.95 1.75 -23.15 1.75 -23.85 1.75 -25.1 2.85 -25.85 3.95 -26.6 4.25 -24.05 L4.5 -20.05" fill="#d8ac8c" fill-rule="evenodd" stroke="none"/>
    </g>
    <g id="shape3" transform="matrix(1.0, 0.0, 0.0, 1.0, 14.35, -19.45)">
      <path d="M26.3 28.25 L23.6 26.85 Q21.45 27.55 19.85 29.15 L15.1 27.9 12.6 27.05 10.25 25.85 8.65 24.85 5.8 23.1 Q5.1 22.25 4.25 22.25 3.45 22.2 2.5 22.8 0.8 23.45 -1.3 23.5 L-9.1 22.9 -11.25 22.65 -12.5 24.15 Q-13.55 26.3 -14.2 28.55 -13.7 24.3 -11.55 20.6 -10.45 21.35 -5.55 22.3 -1.35 23.1 2.7 20.8 3.4 20.4 3.95 20.45 4.45 20.5 4.85 20.85 L5.4 21.5 6.7 22.75 8.2 23.95 9.8 25.0 11.9 26.1 13.55 26.85 15.45 27.6 18.35 25.05 20.0 25.25 Q24.7 25.65 26.3 28.25" fill="#c98644" fill-rule="evenodd" stroke="none"/>
      <path d="M-14.2 28.55 Q-13.55 26.3 -12.5 24.15 L-11.25 22.65 -9.1 22.9 -1.3 23.5 Q0.8 23.45 2.5 22.8 3.45 22.2 4.25 22.25 5.1 22.25 5.8 23.1 L8.65 24.85 10.25 25.85 12.6 27.05 15.1 27.9 19.85 29.15 Q21.45 27.55 23.6 26.85 L26.3 28.25 26.9 29.65 Q25.1 31.7 22.25 31.9 L18.05 32.1 14.5 32.3 11.05 32.35 7.7 32.4 4.45 32.45 1.3 32.45 -4.4 32.3 -9.1 31.9 Q-11.9 31.8 -14.35 30.95 L-14.2 28.55 M13.55 26.85 L11.9 26.1 13.6 24.6 Q14.0 24.25 14.4 24.05 L16.35 24.65 Q15.8 25.0 15.1 25.6 L13.55 26.85 M9.8 25.0 L8.2 23.95 10.9 22.4 12.4 23.2 11.5 23.75 9.8 25.0 M6.7 22.75 L5.4 21.5 7.75 20.2 7.85 20.15 9.45 21.45 Q8.95 21.65 8.35 21.95 L6.7 22.75" fill="#b47b43" fill-rule="evenodd" stroke="none"/>
      <path d="M-14.35 30.95 Q-11.9 31.8 -9.1 31.9 L-4.4 32.3 1.3 32.45 4.45 32.45 7.7 32.4 11.05 32.35 14.5 32.3 18.05 32.1 22.25 31.9 Q25.1 31.7 26.9 29.65 L27.05 30.4 26.9 30.55 Q25.45 32.1 23.4 32.6 L19.1 32.95 18.05 33.0 4.45 33.35 Q-8.9 33.35 -14.35 31.85 L-14.35 30.95 M18.35 25.05 L15.45 27.6 13.55 26.85 15.1 25.6 Q15.8 25.0 16.35 24.65 L14.4 24.05 Q14.0 24.25 13.6 24.6 L11.9 26.1 9.8 25.0 11.5 23.75 12.4 23.2 10.9 22.4 8.2 23.95 6.7 22.75 8.35 21.95 Q8.95 21.65 9.45 21.45 L7.85 20.15 7.75 20.2 7.75 19.9 7.8 19.5 7.95 19.45 10.35 21.05 12.7 22.8 15.05 24.1 16.55 24.7 18.35 25.05" fill="#986d42" fill-rule="evenodd" stroke="none"/>
      <path d="M-14.35 31.85 Q-8.9 33.35 4.45 33.35 L18.05 33.0 19.1 32.95 23.4 32.6 Q25.45 32.1 26.9 30.55 L27.05 30.4 27.1 31.6 Q27.1 32.25 25.15 33.95 23.6 35.2 19.5 35.55 L16.95 35.65 3.9 35.7 -12.25 35.05 -13.4 34.9 Q-14.2 33.9 -14.35 31.85" fill="#af947a" fill-rule="evenodd" stroke="none"/>
    </g>
  </defs>
</svg>
