<?xml version="1.0" encoding="UTF-8" standalone="no"?>
<svg xmlns:ffdec="https://www.free-decompiler.com/flash" xmlns:xlink="http://www.w3.org/1999/xlink" ffdec:objectType="frame" height="50.6px" width="46.5px" xmlns="http://www.w3.org/2000/svg">
  <g transform="matrix(1.0, 0.0, 0.0, 1.0, 23.3, 27.2)">
    <use ffdec:characterId="1892" height="50.6" transform="matrix(1.0, 0.0, 0.0, 1.0, -23.3, -27.2)" width="46.5" xlink:href="#shape0"/>
  </g>
  <defs>
    <g id="shape0" transform="matrix(1.0, 0.0, 0.0, 1.0, 23.3, 27.2)">
      <path d="M-2.95 -26.0 L-3.2 -24.45 -3.1 -24.45 Q-2.1 -25.1 -0.85 -25.35 L0.7 -25.6 Q2.45 -25.75 4.0 -24.85 L4.3 -23.55 5.0 -23.0 8.05 -23.6 Q8.85 -23.9 8.85 -24.5 L8.85 -24.75 9.05 -24.35 9.35 -22.7 Q9.35 -22.05 8.85 -21.6 L5.8 -21.4 Q4.05 -21.55 3.15 -22.95 L2.1 -23.75 -0.55 -24.25 -1.35 -23.9 -1.8 -23.0 -1.25 -22.8 -3.5 -23.05 -0.05 -20.65 -5.4 -20.5 -8.0 -19.15 -4.9 -19.9 -0.25 -19.35 Q2.7 -18.35 5.1 -16.15 7.3 -16.0 8.4 -14.25 10.65 -10.75 11.75 -6.7 L10.5 -4.4 10.35 -6.2 Q10.0 -8.2 8.95 -10.05 L7.75 -12.0 8.05 -10.3 8.7 -4.8 Q8.85 -2.25 7.65 -0.1 L6.7 1.25 Q4.8 3.1 2.35 3.9 L3.65 1.9 3.85 1.45 3.6 1.15 0.4 2.0 Q-2.0 1.0 -4.45 -0.05 L-3.3 -2.15 -4.0 -2.1 -5.85 -1.65 -7.1 -1.3 -6.85 -2.5 -8.0 -4.05 -5.45 -6.15 -6.2 -5.95 -9.45 -4.6 -10.85 -4.75 -11.35 -7.85 -8.9 -9.25 -8.6 -9.35 -8.25 -9.15 -8.2 -10.25 -9.7 -9.75 -12.2 -8.65 Q-13.0 -8.3 -13.55 -7.55 L-13.95 -6.8 -11.6 -7.65 -11.55 -4.8 -12.65 -4.05 -10.9 -2.7 -9.15 -1.25 -6.8 0.65 -11.65 -0.55 -13.0 -1.45 -14.05 -2.8 -13.35 -0.8 Q-12.9 0.25 -11.75 0.9 -8.95 2.45 -6.0 3.4 L-4.4 3.8 -3.95 3.3 -1.0 3.75 0.15 4.85 -1.95 5.1 -3.55 5.3 Q-3.55 5.55 -5.75 6.95 L-2.1 6.2 0.35 6.75 -0.35 7.4 -6.05 8.6 Q-2.6 9.35 0.7 8.0 L1.85 7.1 Q3.6 4.8 6.05 3.15 7.7 2.05 8.5 0.05 L9.0 0.15 12.4 -4.9 13.4 -2.65 14.25 -2.75 12.35 0.75 10.25 0.75 10.25 1.75 11.15 2.3 9.4 4.55 8.1 6.65 Q7.5 7.65 6.2 7.95 L6.0 7.55 Q4.8 7.05 3.5 7.85 2.2 8.5 2.35 10.1 2.5 10.8 3.3 10.55 L5.05 9.8 6.05 9.25 5.9 10.4 6.4 10.45 5.5 11.05 Q5.65 12.2 7.7 11.6 10.45 11.35 12.3 9.3 12.6 11.45 10.6 12.7 8.55 14.0 6.5 12.9 L5.65 12.0 5.5 12.05 Q4.95 12.15 4.5 12.4 2.75 12.95 1.5 11.65 L1.5 10.65 Q1.65 9.35 2.55 8.4 L1.35 8.6 -0.3 9.3 Q-1.4 10.0 -2.85 10.4 L-7.9 10.9 -10.2 10.5 -2.55 9.5 -10.4 8.35 -10.65 7.7 -11.9 7.7 -12.25 8.2 -12.2 9.35 -12.3 9.2 -12.8 7.75 -12.8 7.7 Q-12.8 6.6 -11.65 5.85 -10.5 5.05 -8.85 5.05 -7.35 4.5 -6.3 3.35 -9.25 2.6 -11.95 1.3 L-12.15 1.2 Q-13.8 0.35 -14.15 -1.45 -14.65 -3.9 -15.55 -6.3 L-15.7 -7.65 Q-14.95 -10.25 -14.55 -13.0 L-14.1 -11.95 Q-12.15 -12.95 -10.3 -14.45 L-10.0 -14.95 Q-9.5 -16.05 -9.35 -17.0 L-10.75 -17.35 -13.0 -15.9 Q-12.6 -18.45 -10.4 -19.9 L-7.55 -21.65 -6.9 -22.4 -5.0 -23.45 -4.2 -24.1 Q-3.4 -25.05 -2.95 -26.0 M9.35 -21.25 L9.25 -20.7 Q9.25 -20.2 9.95 -19.75 10.65 -19.25 11.5 -19.25 11.75 -19.25 12.1 -20.0 L12.5 -20.95 12.65 -20.0 Q12.65 -19.2 12.2 -18.55 11.55 -17.75 10.35 -17.75 L9.9 -17.75 10.25 -16.25 Q11.5 -16.8 12.5 -15.5 L10.2 -14.05 Q8.6 -16.9 5.85 -19.05 L6.8 -19.15 7.5 -18.4 8.55 -18.4 9.25 -19.75 8.8 -19.95 Q8.85 -20.85 9.35 -21.25 M19.85 -11.0 L19.7 -10.25 Q19.25 -9.65 18.35 -9.8 L17.35 -10.1 17.0 -10.25 Q16.7 -10.65 16.7 -11.15 16.75 -12.15 16.1 -12.95 15.5 -13.65 14.5 -13.4 L13.75 -12.9 14.45 -9.25 11.35 -12.05 12.6 -13.8 14.65 -15.1 15.25 -14.4 16.4 -14.8 17.25 -13.3 18.8 -11.6 19.85 -11.0 M17.25 -15.0 L17.15 -15.1 17.2 -15.05 17.25 -15.0 M3.3 -20.9 L4.05 -20.75 3.7 -20.65 3.3 -20.9 M4.6 -14.65 L4.15 -15.3 5.25 -10.1 3.8 -12.55 Q3.05 -13.65 1.65 -14.0 L-1.2 -13.8 -1.15 -14.85 -1.25 -16.0 -1.8 -17.35 -5.1 -17.25 Q-6.7 -16.3 -6.65 -14.35 -6.6 -13.4 -5.9 -12.75 -5.45 -12.4 -4.9 -12.4 L-2.8 -12.05 -3.15 -8.15 -6.25 -9.55 Q-5.2 -7.5 -3.3 -6.5 L-4.85 -5.4 -4.3 -4.55 -3.2 -4.25 -1.65 -3.95 Q-1.25 -4.05 -0.9 -4.3 L0.5 -5.55 0.95 -5.6 -1.5 -2.0 0.75 -1.8 Q2.7 -2.25 3.7 -3.9 5.45 -3.8 6.3 -5.3 8.1 -8.55 6.25 -11.9 L4.6 -14.65 M22.95 -4.2 L23.15 -3.0 Q22.25 -1.2 20.2 -1.9 L19.7 -2.25 20.05 -4.4 20.4 -3.3 21.65 -3.65 Q22.3 -3.85 22.95 -4.2 M-7.25 -26.3 L-6.55 -25.8 -10.15 -22.9 -12.5 -20.9 Q-13.25 -20.35 -14.05 -19.95 -15.2 -19.45 -16.05 -20.25 -13.8 -21.45 -11.8 -23.1 L-9.95 -24.25 -7.7 -25.6 Q-7.25 -25.85 -7.25 -26.3 M-21.9 -0.85 L-22.5 -0.2 -22.4 1.1 -20.05 1.2 -19.65 0.8 -20.2 3.05 -21.0 3.25 -22.3 2.85 Q-23.7 1.95 -23.15 0.2 -22.85 -0.75 -21.9 -0.85 M-19.6 0.7 L-19.9 -1.0 -19.7 -1.65 -19.0 -0.55 -17.85 -0.85 -17.95 0.35 -19.6 0.7 M-9.25 -13.65 L-10.5 -13.2 Q-11.05 -12.8 -11.05 -12.2 -11.05 -11.6 -10.5 -11.15 -10.0 -10.75 -9.25 -10.75 -8.5 -10.75 -7.95 -11.15 -7.45 -11.6 -7.45 -12.2 -7.45 -12.8 -7.95 -13.2 -8.5 -13.65 -9.25 -13.65 M-19.25 -15.95 L-17.4 -14.0 -16.3 -14.0 -15.7 -15.05 -15.5 -15.9 -15.45 -15.3 Q-15.6 -12.4 -18.45 -12.7 L-18.85 -13.05 Q-19.65 -14.15 -19.25 -15.95 M-18.05 -5.5 L-17.65 -5.5 Q-17.5 -5.6 -17.5 -5.05 -16.5 -3.6 -17.55 -2.1 L-17.8 -1.95 -18.25 -2.7 -17.85 -3.1 -17.5 -5.05 -18.05 -5.5 M-19.2 -5.55 L-19.8 -5.2 Q-20.2 -4.15 -19.55 -3.2 L-19.3 -3.0 -19.75 -2.05 -20.05 -2.45 -20.4 -3.35 Q-20.5 -4.4 -20.05 -5.2 L-19.2 -5.55 M-5.15 15.9 L-5.15 16.0 -5.1 16.35 -5.5 16.65 -5.65 17.05 -5.15 18.1 -4.0 18.2 -4.5 19.9 -5.9 19.95 Q-7.0 19.3 -6.9 17.85 -7.4 17.45 -7.95 17.2 L-9.05 17.05 -9.75 17.9 -10.7 18.0 -11.05 18.45 -11.75 18.75 -12.35 18.35 -12.75 17.5 Q-12.75 16.75 -12.35 16.2 -11.95 15.65 -11.35 15.65 L-12.0 16.4 -11.9 16.85 -10.3 16.5 -8.25 15.65 -7.95 16.45 Q-6.6 17.5 -5.3 16.3 L-5.15 15.9 M-12.35 9.0 L-12.4 8.95 -12.4 9.0 -12.35 9.0 M-18.45 18.5 L-17.45 18.6 -16.75 18.0 Q-16.95 19.3 -17.25 19.7 L-17.95 19.8 -18.45 18.65 -18.45 18.5 M21.5 9.15 L21.65 9.65 Q21.65 10.75 19.75 10.75 19.1 10.75 17.6 8.75 16.25 6.95 16.25 6.7 L16.9 5.85 16.9 5.8 20.6 9.6 21.35 9.25 21.5 9.15 M15.1 3.9 Q14.5 3.55 13.75 3.25 L11.9 2.4 12.25 2.4 13.3 2.1 13.35 2.0 13.45 2.05 15.1 3.9" fill="#990000" fill-rule="evenodd" stroke="none"/>
      <path d="M8.85 -24.75 L8.85 -24.5 Q8.85 -23.9 8.05 -23.6 L5.0 -23.0 4.3 -23.55 4.0 -24.85 Q2.45 -25.75 0.7 -25.6 L-0.85 -25.35 Q-2.1 -25.1 -3.1 -24.45 L-3.2 -24.45 -2.95 -26.0 Q-1.9 -27.8 2.85 -26.95 8.3 -25.9 8.85 -24.75 M-13.0 -15.9 L-10.75 -17.35 -9.35 -17.0 Q-9.5 -16.05 -10.0 -14.95 L-10.3 -14.45 Q-12.15 -12.95 -14.1 -11.95 L-14.55 -13.0 -14.55 -13.3 -14.55 -13.4 -14.0 -14.7 -13.25 -15.65 -13.0 -15.9 M-12.2 9.35 L-12.25 8.2 -11.9 7.7 -10.65 7.7 -10.4 8.35 -2.55 9.5 -10.2 10.5 -11.6 10.2 Q-12.2 9.85 -12.2 9.35 M12.3 9.3 Q10.45 11.35 7.7 11.6 5.65 12.2 5.5 11.05 L6.4 10.45 10.15 8.05 Q12.35 7.05 12.35 9.25 L12.3 9.3 M6.05 9.25 L5.05 9.8 3.3 10.55 Q2.5 10.8 2.35 10.1 2.2 8.5 3.5 7.85 4.8 7.05 6.0 7.55 L6.2 7.95 6.35 8.8 6.05 9.25 M11.15 2.3 L10.25 1.75 10.25 0.75 12.35 0.75 12.4 0.8 12.35 0.75 12.5 0.65 17.9 4.4 Q21.85 7.15 21.85 8.4 L21.5 9.15 21.35 9.25 20.6 9.6 16.9 5.8 15.1 3.9 13.45 2.05 13.35 1.95 13.35 2.0 13.3 2.1 12.25 2.4 11.9 2.4 11.15 2.3 M14.25 -2.75 L13.4 -2.65 12.4 -4.9 9.0 0.15 8.5 0.05 Q7.7 2.05 6.05 3.15 3.6 4.8 1.85 7.1 L0.7 8.0 Q-2.6 9.35 -6.05 8.6 L-0.35 7.4 0.35 6.75 -2.1 6.2 -5.75 6.95 Q-3.55 5.55 -3.55 5.3 L-1.95 5.1 0.15 4.85 -1.0 3.75 -3.95 3.3 -4.4 3.8 -6.0 3.4 Q-8.95 2.45 -11.75 0.9 -12.9 0.25 -13.35 -0.8 L-14.05 -2.8 -13.0 -1.45 -11.65 -0.55 -6.8 0.65 -9.15 -1.25 -10.9 -2.7 -12.65 -4.05 -11.55 -4.8 -11.6 -7.65 -13.95 -6.8 -13.55 -7.55 Q-13.0 -8.3 -12.2 -8.65 L-9.7 -9.75 -8.2 -10.25 -8.25 -9.15 -8.6 -9.35 -8.9 -9.25 -11.35 -7.85 -10.85 -4.75 -9.45 -4.6 -6.2 -5.95 -5.45 -6.15 -8.0 -4.05 -6.85 -2.5 -7.1 -1.3 -5.85 -1.65 -4.0 -2.1 -3.3 -2.15 -4.45 -0.05 Q-2.0 1.0 0.4 2.0 L3.6 1.15 3.85 1.45 3.65 1.9 2.35 3.9 Q4.8 3.1 6.7 1.25 L7.65 -0.1 Q8.85 -2.25 8.7 -4.8 L8.05 -10.3 7.75 -12.0 8.95 -10.05 Q10.0 -8.2 10.35 -6.2 L10.5 -4.4 11.75 -6.7 Q10.65 -10.75 8.4 -14.25 7.3 -16.0 5.1 -16.15 2.7 -18.35 -0.25 -19.35 L-4.9 -19.9 -8.0 -19.15 -5.4 -20.5 -0.05 -20.65 -3.5 -23.05 -1.25 -22.8 3.3 -20.9 3.7 -20.65 4.05 -20.75 4.75 -20.8 Q6.9 -20.75 8.8 -19.95 L9.25 -19.75 8.55 -18.4 7.5 -18.4 6.8 -19.15 5.85 -19.05 Q8.6 -16.9 10.2 -14.05 L12.5 -15.5 Q13.8 -16.3 15.05 -16.4 16.4 -16.55 17.25 -15.5 L17.2 -15.05 17.15 -15.1 17.25 -15.0 20.0 -12.2 19.85 -11.0 18.8 -11.6 17.25 -13.3 16.4 -14.8 15.25 -14.4 14.65 -15.1 12.6 -13.8 11.35 -12.05 14.45 -9.25 Q14.85 -8.6 14.9 -7.75 L15.1 -5.15 Q15.25 -3.7 14.25 -2.75 M12.5 -20.95 L12.1 -20.0 Q11.75 -19.25 11.5 -19.25 10.65 -19.25 9.95 -19.75 9.25 -20.2 9.25 -20.7 L9.35 -21.25 9.85 -21.7 12.35 -21.9 12.5 -21.25 12.5 -20.95 M20.05 -4.4 Q20.8 -5.6 22.0 -5.85 L22.85 -5.9 23.15 -5.55 23.2 -4.6 22.95 -4.2 Q22.3 -3.85 21.65 -3.65 L20.4 -3.3 20.05 -4.4 M-16.05 -20.25 L-16.75 -20.7 -16.7 -21.15 Q-16.35 -22.15 -15.7 -22.75 L-15.25 -23.3 Q-12.4 -26.65 -7.9 -26.75 -7.2 -26.9 -7.25 -26.3 -7.25 -25.85 -7.7 -25.6 L-9.95 -24.25 -11.8 -23.1 Q-13.8 -21.45 -16.05 -20.25 M-19.65 0.8 L-20.05 1.2 -22.4 1.1 -22.5 -0.2 -21.9 -0.85 -19.9 -1.0 -19.6 0.7 -19.65 0.8 M-9.25 -13.65 Q-8.5 -13.65 -7.95 -13.2 -7.45 -12.8 -7.45 -12.2 -7.45 -11.6 -7.95 -11.15 -8.5 -10.75 -9.25 -10.75 -10.0 -10.75 -10.5 -11.15 -11.05 -11.6 -11.05 -12.2 -11.05 -12.8 -10.5 -13.2 L-9.25 -13.65 M-15.55 -16.4 L-15.5 -15.9 -15.7 -15.05 -16.3 -14.0 -17.4 -14.0 -19.25 -15.95 -18.75 -17.05 -18.15 -17.25 Q-16.4 -17.65 -15.55 -16.4 M-17.8 -1.95 L-17.85 -1.9 -17.8 -1.6 -17.85 -0.85 -19.0 -0.55 -19.7 -1.65 -19.75 -2.05 -19.3 -3.0 -19.55 -3.2 Q-20.2 -4.15 -19.8 -5.2 L-19.2 -5.55 -18.05 -5.5 -17.5 -5.05 -17.85 -3.1 -18.25 -2.7 -17.8 -1.95 M-7.95 14.35 L-5.05 14.4 Q-4.85 15.3 -5.15 15.9 L-5.3 16.3 Q-6.6 17.5 -7.95 16.45 L-8.25 15.65 -10.3 16.5 -11.9 16.85 -12.0 16.4 -11.35 15.65 Q-9.8 14.05 -8.2 15.0 L-8.1 14.85 -7.95 14.35 M-4.1 16.45 L-4.05 16.45 -3.9 16.5 Q-3.4 16.7 -3.4 17.15 L-3.45 17.6 -4.0 18.2 -5.15 18.1 -5.65 17.05 -5.5 16.65 -5.1 16.35 -4.5 16.35 -4.1 16.45 M-12.35 9.0 L-12.4 9.0 -12.4 8.95 -12.35 9.0 M-18.45 18.5 L-18.5 18.5 -18.55 17.35 Q-18.15 15.7 -16.5 15.8 L-16.35 16.15 Q-16.05 17.2 -16.75 18.0 L-17.45 18.6 -18.45 18.5" fill="#ff0000" fill-rule="evenodd" stroke="none"/>
      <path d="M4.6 -14.65 L6.25 -11.9 Q8.1 -8.55 6.3 -5.3 5.45 -3.8 3.7 -3.9 2.7 -2.25 0.75 -1.8 L-1.5 -2.0 0.95 -5.6 0.5 -5.55 -0.9 -4.3 Q-1.25 -4.05 -1.65 -3.95 L-3.2 -4.25 -4.3 -4.55 -4.85 -5.4 -3.3 -6.5 Q-5.2 -7.5 -6.25 -9.55 L-3.15 -8.15 -2.8 -12.05 -4.9 -12.4 Q-5.45 -12.4 -5.9 -12.75 -6.6 -13.4 -6.65 -14.35 -6.7 -16.3 -5.1 -17.25 L-1.8 -17.35 -1.25 -16.0 -1.15 -14.85 -1.2 -13.8 1.65 -14.0 Q3.05 -13.65 3.8 -12.55 L5.25 -10.1 4.15 -15.3 4.6 -14.65" fill="#650101" fill-rule="evenodd" stroke="none"/>
      <path d="M17.9 -3.55 Q17.65 -0.8 16.35 1.55 L15.85 2.25 15.1 2.35 15.5 -9.75 17.2 -5.0 17.9 -3.55 M-15.5 -15.9 L-15.55 -16.4 Q-13.35 -18.9 -12.15 -19.5 L-14.0 -14.7 -14.55 -13.4 Q-15.95 -10.0 -16.55 -7.65 L-16.8 -7.55 -17.05 -8.65 -16.7 -9.85 -16.4 -11.35 -16.5 -12.05 -17.05 -10.95 Q-17.3 -10.4 -18.0 -10.4 -19.25 -10.4 -19.0 -11.45 L-18.45 -12.7 Q-15.6 -12.4 -15.45 -15.3 L-15.5 -15.9 M-12.75 17.5 Q-14.4 17.3 -15.45 14.75 L-16.25 12.25 -16.6 12.25 Q-17.25 12.25 -17.85 11.85 L-18.75 11.15 -19.2 12.6 Q-19.85 13.85 -21.35 13.85 -22.55 13.85 -22.8 13.3 L-22.8 12.7 Q-22.8 10.95 -21.7 10.45 L-16.0 8.75 -16.5 7.1 -16.9 5.1 -16.7 3.35 -16.8 3.15 -16.65 3.15 -16.55 2.65 -16.4 2.65 Q-15.8 5.9 -14.05 8.85 L-13.15 10.3 Q-11.1 12.3 -7.95 14.35 L-8.1 14.85 -8.2 15.0 Q-9.8 14.05 -11.35 15.65 -11.95 15.65 -12.35 16.2 -12.75 16.75 -12.75 17.5 M-5.15 16.0 L-4.1 16.45 -4.5 16.35 -5.1 16.35 -5.15 16.0 M-3.9 16.5 L-2.6 16.75 5.1 16.0 6.55 15.2 Q7.6 14.6 9.7 14.35 L10.45 13.95 10.95 13.7 Q11.25 12.5 12.7 10.6 L14.05 9.0 14.25 7.95 Q14.5 6.3 15.0 5.9 L15.05 6.05 Q15.65 6.55 15.65 7.25 L15.4 8.7 15.4 8.9 15.15 9.45 15.15 10.75 Q15.15 11.8 15.9 13.45 16.65 15.1 16.65 16.0 L16.25 17.7 Q15.75 18.75 15.35 18.75 14.85 18.75 14.6 18.55 L14.0 17.9 13.7 18.45 Q13.4 18.85 12.6 18.85 L11.4 17.45 10.9 17.85 Q9.9 18.75 8.6 18.9 L6.25 18.9 Q5.2 18.95 4.55 19.35 L4.25 19.55 Q4.1 20.3 2.5 21.75 0.65 23.4 -0.35 23.4 L-1.05 23.25 -1.0 22.35 -1.25 21.6 -1.5 20.85 Q-1.5 20.25 -0.9 19.75 -0.25 19.25 0.85 19.1 L0.55 18.4 0.0 18.5 Q-1.25 18.5 -3.45 17.6 L-3.4 17.15 Q-3.4 16.7 -3.9 16.5 M8.65 15.8 L8.5 15.85 8.6 15.85 8.65 15.8" fill="#aa5649" fill-rule="evenodd" stroke="none"/>
    </g>
  </defs>
</svg>
