<?xml version="1.0" encoding="UTF-8" standalone="no"?>
<svg xmlns:ffdec="https://www.free-decompiler.com/flash" xmlns:xlink="http://www.w3.org/1999/xlink" ffdec:objectType="frame" height="78.5px" width="39.3px" xmlns="http://www.w3.org/2000/svg">
  <g transform="matrix(1.0, 0.0, 0.0, 1.0, 11.8, 38.3)">
    <use ffdec:characterId="1474" height="66.45" transform="matrix(1.0, 0.0, 0.0, 1.0, -11.1, -38.3)" width="23.6" xlink:href="#shape0"/>
    <use ffdec:characterId="1475" height="40.25" transform="matrix(1.0, 0.0, 0.0, 1.0, -11.8, -0.05)" width="39.3" xlink:href="#shape1"/>
    <use ffdec:characterId="1081" height="100.0" id="shape" transform="matrix(0.2, 0.0, 0.0, 0.7601, -9.9998, -38.0028)" width="100.0" xlink:href="#sprite0"/>
  </g>
  <defs>
    <g id="shape0" transform="matrix(1.0, 0.0, 0.0, 1.0, 11.1, 38.3)">
      <path d="M8.55 -16.7 L8.25 -14.2 7.45 -7.1 7.0 -3.45 6.95 -2.65 6.8 -0.05 6.75 0.3 6.7 1.25 6.7 1.55 5.1 1.65 5.1 1.45 5.15 0.95 5.25 0.3 5.3 -0.05 5.5 -2.45 5.85 -6.85 5.85 -6.9 Q7.5 -10.5 8.2 -14.5 L8.45 -16.2 8.55 -16.7 M-7.15 2.0 L-7.55 0.3 -7.65 -0.05 -7.8 -0.55 -8.5 -2.9 -9.05 -4.7 Q-10.7 -10.6 -10.7 -11.55 L-10.8 -14.45 -10.95 -16.2 -11.0 -17.1 -10.95 -18.95 -8.8 -19.15 -2.1 -19.25 2.75 -19.0 2.8 -18.85 3.45 -17.1 3.6 -15.8 3.65 -6.55 3.4 -3.9 3.8 -2.7 4.0 1.7 2.55 1.75 0.05 1.85 -3.2 1.95 -3.2 0.55 -3.2 0.3 -3.2 -0.05 -3.2 -1.2 -2.85 -5.6 -2.8 -6.3 -2.7 -6.3 -2.05 -8.25 -1.6 -9.15 -1.8 -9.25 -3.1 -15.2 -6.2 -10.85 -7.95 -8.45 -9.95 -8.95 -8.7 -4.8 -7.6 -0.55 -7.45 -0.05 -7.4 0.3 -7.0 2.0 -7.15 2.0 M-10.7 -22.45 L-10.25 -27.8 Q-9.55 -29.65 -7.3 -30.85 -5.85 -31.7 -4.05 -32.1 L-0.8 -33.1 -0.7 -32.7 -0.1 -30.65 -0.1 -23.25 -2.85 -23.15 -7.4 -22.7 -10.7 -22.45" fill="#e2b181" fill-rule="evenodd" stroke="none"/>
      <path d="M8.85 -18.75 L8.55 -16.7 8.45 -16.2 8.2 -14.5 Q7.5 -10.5 5.85 -6.9 L5.85 -6.85 5.5 -2.45 5.3 -0.05 5.25 0.3 5.15 0.95 5.1 1.45 5.1 1.65 5.0 1.65 4.0 1.7 3.8 -2.7 3.4 -3.9 3.65 -6.55 3.6 -15.8 3.45 -17.1 2.8 -18.85 2.75 -19.0 8.85 -18.75 M-7.0 2.0 L-7.4 0.3 -7.45 -0.05 -7.6 -0.55 -8.7 -4.8 -9.95 -8.95 -7.95 -8.45 -6.2 -10.85 -3.1 -15.2 -1.8 -9.25 -1.6 -9.15 -2.05 -8.25 -2.7 -6.3 -2.8 -6.3 -2.85 -5.6 -3.2 -1.2 -3.2 -0.05 -3.2 0.3 -3.2 0.55 -3.2 1.95 -3.55 1.95 -6.25 2.0 -7.0 2.0" fill="#d5a675" fill-rule="evenodd" stroke="none"/>
      <path d="M-0.8 -33.1 L-1.35 -34.25 -1.0 -34.95 -0.25 -36.2 0.1 -36.8 0.85 -37.65 1.9 -38.2 2.8 -38.3 4.4 -38.2 5.05 -38.1 10.75 -37.45 10.75 -36.65 10.65 -36.2 7.4 -36.65 6.15 -36.4 5.8 -35.15 5.4 -33.9 5.15 -32.95 4.8 -31.7 Q4.65 -31.05 4.65 -29.6 L4.65 -29.05 4.75 -27.35 4.95 -24.45 Q5.3 -21.1 5.8 -20.5 L6.3 -20.4 9.05 -20.2 9.4 -20.3 Q9.2 -19.65 9.15 -18.75 L8.85 -18.75 2.75 -19.0 -2.1 -19.25 -8.8 -19.15 -10.95 -18.95 -11.1 -22.45 -10.9 -22.5 -10.7 -22.45 -7.4 -22.7 -2.85 -23.15 -0.1 -23.25 -0.1 -30.65 -0.7 -32.7 -0.8 -33.1" fill="#333333" fill-rule="evenodd" stroke="none"/>
      <path d="M10.65 -36.2 L11.15 -35.7 Q12.25 -34.35 12.45 -32.65 12.1 -35.15 9.35 -35.45 L7.8 -35.5 6.2 -34.45 5.15 -32.95 5.4 -33.9 5.8 -35.15 6.15 -36.4 7.4 -36.65 10.65 -36.2 M6.7 1.55 L6.6 3.1 6.65 4.4 6.65 5.2 5.15 5.25 5.1 4.4 5.0 1.65 5.1 1.65 6.7 1.55 M6.75 7.4 L6.75 7.6 6.85 9.05 6.9 10.15 5.6 10.3 5.4 8.2 5.35 7.6 5.35 7.45 6.75 7.4 M7.1 12.95 L7.1 13.2 7.15 13.55 7.15 13.8 7.45 16.8 7.7 21.05 Q7.85 24.1 7.45 24.4 L6.85 24.75 Q6.6 19.0 5.95 13.55 L5.9 13.05 6.7 12.95 7.1 12.95 M-7.1 26.15 Q-8.25 24.35 -7.3 20.9 L-7.2 19.45 -6.55 13.0 -4.95 13.1 -4.95 13.2 -5.2 18.45 Q-5.4 21.4 -7.1 26.15 M-6.35 10.5 L-6.4 7.3 -6.4 7.2 -6.25 7.25 -5.45 7.35 -5.1 10.65 -6.35 10.5 M-6.65 5.05 L-6.75 4.4 -6.95 3.15 -7.15 2.0 -7.0 2.0 -6.25 2.0 -5.85 4.4 -5.75 5.15 -6.65 5.05" fill="#cecece" fill-rule="evenodd" stroke="none"/>
      <path d="M12.45 -32.65 L12.5 -31.85 12.5 -28.65 Q12.4 -25.85 11.45 -23.5 L11.6 -26.15 11.5 -27.6 11.0 -27.6 9.45 -26.55 8.7 -26.2 7.55 -26.0 Q6.45 -26.0 5.4 -26.75 L4.75 -27.35 4.65 -29.05 4.65 -29.6 Q4.65 -31.05 4.8 -31.7 L5.15 -32.95 6.2 -34.45 7.8 -35.5 9.35 -35.45 Q12.1 -35.15 12.45 -32.65 M6.85 24.75 Q3.7 28.15 -2.2 28.15 L-3.55 28.05 Q-6.1 27.7 -7.1 26.15 -5.4 21.4 -5.2 18.45 L-4.95 13.2 -4.95 13.1 -2.15 13.15 -1.85 13.15 -1.7 16.65 -2.65 20.4 -3.6 25.0 Q-3.6 27.35 -1.65 27.35 -0.2 27.35 0.8 26.1 1.7 25.0 1.7 23.7 1.7 22.4 1.25 21.25 0.75 20.1 0.75 19.65 0.75 18.55 1.4 16.95 L1.8 15.85 Q2.0 17.05 2.45 17.6 L3.65 19.75 3.9 20.3 2.35 14.3 2.05 13.15 4.1 13.1 5.9 13.05 5.95 13.55 Q6.6 19.0 6.85 24.75 M4.0 1.7 L5.0 1.65 5.1 4.4 5.15 5.25 1.8 5.3 1.95 4.4 1.95 4.2 2.55 1.75 4.0 1.7 M-6.25 2.0 L-3.55 1.95 -3.15 4.4 -3.0 5.3 -5.75 5.15 -5.85 4.4 -6.25 2.0 M-5.1 10.65 L-5.45 7.35 -2.6 7.6 -2.35 9.15 -2.1 10.95 -2.45 10.85 -5.1 10.65 M1.85 10.7 L1.7 7.6 3.7 7.55 4.45 7.5 4.8 7.5 5.35 7.45 5.35 7.6 5.4 8.2 5.6 10.3 1.85 10.7" fill="#c0c0c0" fill-rule="evenodd" stroke="none"/>
      <path d="M11.45 -23.5 Q10.5 -21.2 9.95 -20.75 L9.4 -20.3 9.05 -20.2 6.3 -20.4 5.8 -20.5 Q5.3 -21.1 4.95 -24.45 L4.75 -27.35 5.4 -26.75 Q6.45 -26.0 7.55 -26.0 L8.7 -26.2 9.45 -26.55 11.0 -27.6 11.5 -27.6 11.6 -26.15 11.45 -23.5 M-3.55 1.95 L-3.2 1.95 0.05 1.85 2.55 1.75 1.95 4.2 1.95 4.4 1.8 5.3 1.6 5.3 1.55 5.3 -3.0 5.3 -3.15 4.4 -3.55 1.95 M-2.6 7.6 L-0.75 7.65 1.7 7.6 1.85 10.7 1.65 10.7 -2.1 10.95 -2.35 9.15 -2.6 7.6 M2.05 13.15 L2.35 14.3 3.9 20.3 3.65 19.75 2.45 17.6 Q2.0 17.05 1.8 15.85 L1.4 16.95 Q0.75 18.55 0.75 19.65 0.75 20.1 1.25 21.25 1.7 22.4 1.7 23.7 1.7 25.0 0.8 26.1 -0.2 27.35 -1.65 27.35 -3.6 27.35 -3.6 25.0 L-2.65 20.4 -1.7 16.65 -1.85 13.15 2.05 13.15" fill="#b4b4b4" fill-rule="evenodd" stroke="none"/>
      <path d="M6.65 5.2 L6.7 6.2 6.75 7.4 5.35 7.45 5.15 5.25 6.65 5.2 M6.9 10.15 L7.0 11.5 7.1 12.95 6.7 12.95 5.9 13.05 5.6 10.3 6.9 10.15 M-6.55 13.0 L-6.4 11.55 -6.35 10.5 -5.1 10.65 -4.95 13.1 -6.55 13.0 M-6.4 7.2 L-6.65 5.05 -5.75 5.15 -5.45 7.35 -6.25 7.25 -6.4 7.2" fill="#be6161" fill-rule="evenodd" stroke="none"/>
      <path d="M1.55 5.3 L1.6 5.3 1.8 5.3 5.15 5.25 5.35 7.45 4.8 7.5 4.45 7.5 3.7 7.55 1.7 7.6 1.55 5.3 M-5.75 5.15 L-3.0 5.3 -2.6 7.6 -5.45 7.35 -5.75 5.15 M-5.1 10.65 L-2.45 10.85 -2.1 10.95 -1.85 13.15 -2.15 13.15 -4.95 13.1 -5.1 10.65 M1.85 10.7 L5.6 10.3 5.9 13.05 4.1 13.1 2.05 13.15 1.85 10.7" fill="#ad3939" fill-rule="evenodd" stroke="none"/>
      <path d="M-3.0 5.3 L1.55 5.3 1.7 7.6 -0.75 7.65 -2.6 7.6 -3.0 5.3 M-1.85 13.15 L-2.1 10.95 1.65 10.7 1.85 10.7 2.05 13.15 -1.85 13.15" fill="#8f2d2d" fill-rule="evenodd" stroke="none"/>
    </g>
    <g id="shape1" transform="matrix(1.0, 0.0, 0.0, 1.0, 11.8, 0.05)">
      <path d="M7.75 21.85 L7.95 21.8 Q8.25 21.8 8.9 23.55 L9.25 24.45 8.1 24.6 6.55 25.05 6.4 24.4 6.25 23.85 Q5.8 23.1 4.65 23.1 L1.7 23.75 -0.7 24.0 -3.4 23.8 -4.9 23.5 -7.05 22.95 -7.1 22.95 -7.7 24.05 -7.95 24.45 Q-9.3 27.05 -9.3 28.95 L-9.15 30.2 -9.4 30.9 -10.15 35.6 Q-11.1 35.3 -11.7 34.75 L-11.7 34.7 -11.55 32.25 Q-11.55 31.25 -10.95 28.6 L-10.1 25.35 -9.5 23.6 Q-9.0 22.65 -8.1 21.95 L-7.5 21.7 -6.2 21.75 -5.75 21.9 -5.45 22.0 -3.2 22.9 -1.7 23.4 1.7 23.4 1.8 23.4 5.35 22.5 5.6 22.45 5.85 22.35 6.7 22.15 6.75 22.15 7.75 21.85 M9.85 26.35 L10.15 27.15 10.55 27.45 10.2 27.8 Q9.25 28.9 8.4 30.5 L5.55 30.05 5.6 29.9 3.4 32.65 3.1 33.05 0.9 36.2 -0.7 36.05 Q0.35 33.85 2.1 31.85 L2.15 31.8 Q4.25 29.3 6.25 28.4 L6.75 27.6 Q7.45 27.15 8.5 26.8 L9.85 26.35 M12.55 28.5 L14.9 29.3 Q13.7 30.15 12.65 31.75 L10.75 31.15 10.7 31.15 Q11.4 29.75 12.0 29.05 L12.55 28.5 M17.1 30.0 L19.35 30.85 19.55 30.95 19.75 31.05 22.25 32.05 25.15 33.25 24.05 33.85 22.65 34.0 20.7 33.75 19.2 33.7 17.85 33.35 Q18.85 33.9 19.5 34.85 20.2 35.9 20.5 37.45 L19.45 37.35 Q19.3 36.35 18.45 35.05 L18.35 34.9 16.95 33.1 14.8 32.55 14.8 32.45 14.6 32.4 Q14.8 31.9 15.3 31.35 16.05 30.45 16.55 30.25 L17.1 30.0" fill="#999999" fill-rule="evenodd" stroke="none"/>
      <path d="M25.15 33.25 L26.75 34.5 27.0 34.8 27.35 35.7 Q27.55 36.4 27.4 37.55 L25.9 37.75 20.5 37.45 Q20.2 35.9 19.5 34.85 18.85 33.9 17.85 33.35 L19.2 33.7 20.7 33.75 22.65 34.0 24.05 33.85 25.15 33.25 M-10.15 35.6 L-9.4 30.9 -9.15 30.2 -9.3 28.95 Q-9.3 27.05 -7.95 24.45 L-7.7 24.05 -7.1 22.95 -7.05 22.95 -4.9 23.5 -3.4 23.8 -0.7 24.0 1.7 23.75 4.65 23.1 Q5.8 23.1 6.25 23.85 L6.4 24.4 6.55 25.05 7.0 26.7 6.75 27.6 6.25 28.4 Q4.25 29.3 2.15 31.8 L2.1 31.85 Q0.35 33.85 -0.7 36.05 L-3.75 35.75 Q-5.05 35.6 -8.45 35.8 L-10.15 35.6 M14.6 32.4 L14.8 32.45 14.8 32.55 16.95 33.1 18.35 34.9 18.45 35.05 Q19.3 36.35 19.45 37.35 L15.3 37.0 14.2 36.9 6.45 36.6 0.9 36.2 3.1 33.05 3.4 32.65 5.6 29.9 5.55 30.05 8.4 30.5 10.7 31.15 10.75 31.15 12.65 31.75 13.25 31.95 14.6 32.4" fill="#898989" fill-rule="evenodd" stroke="none"/>
      <path d="M6.7 1.55 L6.6 3.1 6.65 4.4 6.65 5.2 5.15 5.25 5.1 4.4 5.0 1.65 5.1 1.65 6.7 1.55 M6.75 7.4 L6.75 7.6 6.85 9.05 6.9 10.15 5.6 10.3 5.4 8.2 5.35 7.6 5.35 7.45 6.75 7.4 M7.1 12.95 L7.1 13.2 7.15 13.55 7.15 13.8 7.45 16.8 7.7 21.05 7.75 21.85 6.75 22.15 5.95 13.55 5.9 13.05 6.7 12.95 7.1 12.95 M9.25 24.45 L9.55 25.45 9.85 26.35 8.5 26.8 Q7.45 27.15 6.75 27.6 L7.0 26.7 6.55 25.05 8.1 24.6 9.25 24.45 M10.55 27.45 L12.2 28.35 12.55 28.5 12.0 29.05 Q11.4 29.75 10.7 31.15 L8.4 30.5 Q9.25 28.9 10.2 27.8 L10.55 27.45 M14.9 29.3 L15.4 29.45 16.9 29.9 17.0 29.95 17.1 30.0 16.55 30.25 Q16.05 30.45 15.3 31.35 14.8 31.9 14.6 32.4 L13.25 31.95 12.65 31.75 Q13.7 30.15 14.9 29.3 M-7.5 21.7 L-7.3 20.9 -7.2 19.45 -6.55 13.0 -4.95 13.1 -4.95 13.2 -5.2 18.45 Q-5.3 19.95 -5.75 21.9 L-6.2 21.75 -7.5 21.7 M-6.35 10.5 L-6.4 7.3 -6.4 7.2 -6.25 7.25 -5.45 7.35 -5.1 10.65 -6.35 10.5 M-6.65 5.05 L-6.75 4.4 -6.95 3.15 -7.15 2.0 -7.0 2.0 -6.25 2.0 -5.85 4.4 -5.75 5.15 -6.65 5.05" fill="#cecece" fill-rule="evenodd" stroke="none"/>
      <path d="M27.4 37.55 Q28.05 40.2 23.6 40.2 L15.1 40.1 8.6 39.5 8.9 39.55 -7.55 38.45 -10.45 38.35 -11.75 37.85 -11.7 34.75 Q-11.1 35.3 -10.15 35.6 L-8.45 35.8 Q-5.05 35.6 -3.75 35.75 L-0.7 36.05 0.9 36.2 6.45 36.6 14.2 36.9 15.3 37.0 19.45 37.35 20.5 37.45 25.9 37.75 27.4 37.55" fill="#333333" fill-rule="evenodd" stroke="none"/>
      <path d="M5.3 -0.05 L6.8 -0.05 6.75 0.3 6.7 1.25 6.7 1.55 5.1 1.65 5.1 1.45 5.15 0.95 5.25 0.3 5.3 -0.05 M-7.15 2.0 L-7.55 0.3 -7.65 -0.05 -7.45 -0.05 -7.4 0.3 -7.0 2.0 -7.15 2.0 M-3.2 -0.05 L3.95 -0.05 4.0 1.7 2.55 1.75 0.05 1.85 -3.2 1.95 -3.2 0.55 -3.2 0.3 -3.2 -0.05" fill="#e2b181" fill-rule="evenodd" stroke="none"/>
      <path d="M-7.45 -0.05 L-3.2 -0.05 -3.2 0.3 -3.2 0.55 -3.2 1.95 -3.55 1.95 -6.25 2.0 -7.0 2.0 -7.4 0.3 -7.45 -0.05 M3.95 -0.05 L5.3 -0.05 5.25 0.3 5.15 0.95 5.1 1.45 5.1 1.65 5.0 1.65 4.0 1.7 3.95 -0.05" fill="#d5a675" fill-rule="evenodd" stroke="none"/>
      <path d="M6.65 5.2 L6.7 6.2 6.75 7.4 5.35 7.45 5.15 5.25 6.65 5.2 M6.9 10.15 L7.0 11.5 7.1 12.95 6.7 12.95 5.9 13.05 5.6 10.3 6.9 10.15 M-6.55 13.0 L-6.4 11.55 -6.35 10.5 -5.1 10.65 -4.95 13.1 -6.55 13.0 M-6.4 7.2 L-6.65 5.05 -5.75 5.15 -5.45 7.35 -6.25 7.25 -6.4 7.2" fill="#be6161" fill-rule="evenodd" stroke="none"/>
      <path d="M5.0 1.65 L5.1 4.4 5.15 5.25 1.8 5.3 1.95 4.4 1.95 4.2 2.55 1.75 4.0 1.7 5.0 1.65 M-3.55 1.95 L-3.15 4.4 -3.0 5.3 -5.75 5.15 -5.85 4.4 -6.25 2.0 -3.55 1.95 M1.7 7.6 L3.7 7.55 4.45 7.5 4.8 7.5 5.35 7.45 5.35 7.6 5.4 8.2 5.6 10.3 1.85 10.7 1.7 7.6 M-2.6 7.6 L-2.35 9.15 -2.1 10.95 -2.45 10.85 -5.1 10.65 -5.45 7.35 -2.6 7.6 M-4.95 13.1 L-2.15 13.15 -1.85 13.15 -1.7 16.65 -2.65 20.4 -3.2 22.9 -5.45 22.0 -5.75 21.9 Q-5.3 19.95 -5.2 18.45 L-4.95 13.2 -4.95 13.1 M5.9 13.05 L5.95 13.55 6.75 22.15 6.7 22.15 5.85 22.35 5.6 22.45 5.35 22.5 1.8 23.4 1.7 23.4 Q1.65 22.25 1.25 21.25 0.75 20.1 0.75 19.65 0.75 18.55 1.4 16.95 L1.8 15.85 Q2.0 17.05 2.45 17.6 L3.65 19.75 3.9 20.3 2.35 14.3 2.05 13.15 4.1 13.1 5.9 13.05" fill="#c0c0c0" fill-rule="evenodd" stroke="none"/>
      <path d="M1.8 5.3 L1.6 5.3 1.55 5.3 -3.0 5.3 -3.15 4.4 -3.55 1.95 -3.2 1.95 0.05 1.85 2.55 1.75 1.95 4.2 1.95 4.4 1.8 5.3 M1.85 10.7 L1.65 10.7 -2.1 10.95 -2.35 9.15 -2.6 7.6 -0.75 7.65 1.7 7.6 1.85 10.7 M2.05 13.15 L2.35 14.3 3.9 20.3 3.65 19.75 2.45 17.6 Q2.0 17.05 1.8 15.85 L1.4 16.95 Q0.75 18.55 0.75 19.65 0.75 20.1 1.25 21.25 1.65 22.25 1.7 23.4 L-1.7 23.4 -3.2 22.9 -2.65 20.4 -1.7 16.65 -1.85 13.15 2.05 13.15" fill="#b4b4b4" fill-rule="evenodd" stroke="none"/>
      <path d="M5.15 5.25 L5.35 7.45 4.8 7.5 4.45 7.5 3.7 7.55 1.7 7.6 1.55 5.3 1.6 5.3 1.8 5.3 5.15 5.25 M-5.1 10.65 L-2.45 10.85 -2.1 10.95 -1.85 13.15 -2.15 13.15 -4.95 13.1 -5.1 10.65 M1.85 10.7 L5.6 10.3 5.9 13.05 4.1 13.1 2.05 13.15 1.85 10.7 M-5.75 5.15 L-3.0 5.3 -2.6 7.6 -5.45 7.35 -5.75 5.15" fill="#ad3939" fill-rule="evenodd" stroke="none"/>
      <path d="M-3.0 5.3 L1.55 5.3 1.7 7.6 -0.75 7.65 -2.6 7.6 -3.0 5.3 M-2.1 10.95 L1.65 10.7 1.85 10.7 2.05 13.15 -1.85 13.15 -2.1 10.95" fill="#8f2d2d" fill-rule="evenodd" stroke="none"/>
    </g>
    <g id="sprite0" transform="matrix(1.0, 0.0, 0.0, 1.0, 50.0, 50.0)">
      <use ffdec:characterId="1080" height="100.0" transform="matrix(1.0, 0.0, 0.0, 1.0, -50.0, -50.0)" width="100.0" xlink:href="#shape2"/>
    </g>
    <g id="shape2" transform="matrix(1.0, 0.0, 0.0, 1.0, 50.0, 50.0)">
      <path d="M50.0 50.0 L-50.0 50.0 -50.0 -50.0 50.0 -50.0 50.0 50.0 Z" fill="none" stroke="#9900ff" stroke-linecap="round" stroke-linejoin="round" stroke-width="0.05"/>
    </g>
  </defs>
</svg>
