<?xml version="1.0" encoding="UTF-8" standalone="no"?>
<svg xmlns:ffdec="https://www.free-decompiler.com/flash" xmlns:xlink="http://www.w3.org/1999/xlink" ffdec:objectType="frame" height="78.5px" width="39.3px" xmlns="http://www.w3.org/2000/svg">
  <g transform="matrix(1.0, 0.0, 0.0, 1.0, 11.8, 38.3)">
    <use ffdec:characterId="1476" height="38.55" transform="matrix(1.0, 0.0, 0.0, 1.0, -11.35, -36.6)" width="26.5" xlink:href="#shape0"/>
    <use ffdec:characterId="1475" height="40.25" transform="matrix(1.0, 0.0, 0.0, 1.0, -11.8, -0.05)" width="39.3" xlink:href="#shape1"/>
  </g>
  <defs>
    <g id="shape0" transform="matrix(1.0, 0.0, 0.0, 1.0, 11.35, 36.6)">
      <path d="M2.9 -33.25 Q3.35 -33.6 4.35 -33.75 L4.55 -34.55 Q4.55 -35.05 4.8 -35.25 5.45 -35.8 5.9 -35.5 L6.25 -34.75 Q6.4 -33.3 5.85 -31.8 L5.65 -31.0 Q5.4 -31.05 5.3 -30.65 L3.0 -29.85 2.1 -29.55 2.1 -30.5 2.3 -30.85 Q3.0 -32.25 2.95 -32.8 L2.9 -33.25 M8.4 -12.6 L8.0 -11.4 6.4 -5.0 5.95 -5.25 5.6 -10.95 6.45 -14.1 8.4 -12.6 M1.65 -27.15 L1.85 -28.0 1.9 -28.25 3.15 -28.25 5.1 -28.25 4.3 -21.85 3.6 -22.15 3.6 -22.9 2.15 -25.4 2.55 -25.85 2.05 -26.95 1.65 -27.15 M8.75 -22.65 L8.9 -23.05 8.75 -22.65" fill="#ffffff" fill-rule="evenodd" stroke="none"/>
      <path d="M5.05 1.95 L4.0 1.95 3.8 -2.7 3.4 -3.9 3.65 -6.55 3.6 -15.45 4.35 -15.1 4.0 -14.7 4.5 -4.35 5.55 -3.35 5.05 1.95 M-3.2 1.95 L-7.05 1.95 -7.25 1.05 -8.2 -2.95 -8.7 -4.8 -9.95 -8.95 -7.95 -8.45 -6.75 -10.1 -6.2 -10.85 -3.1 -15.2 -2.0 -10.1 -1.8 -9.25 -1.6 -9.15 -2.05 -8.25 -2.7 -6.3 -2.8 -6.3 -2.85 -5.6 -3.2 0.55 -3.2 1.95 M2.0 -36.35 L2.25 -36.6 2.5 -36.45 2.0 -36.35 M3.15 -36.15 L3.3 -36.15 3.35 -35.75 3.15 -36.15 M4.0 -19.1 L2.5 -20.0 2.35 -20.05 2.4 -20.25 Q2.95 -19.9 3.15 -19.85 L3.9 -19.7 4.0 -19.1" fill="#d5a675" fill-rule="evenodd" stroke="none"/>
      <path d="M-10.8 -21.95 L-10.75 -22.1 -10.1 -22.95 -10.35 -22.1 -7.1 -24.15 -7.35 -25.05 -6.75 -26.25 -7.05 -27.2 -5.65 -27.6 -4.7 -27.1 -4.55 -27.15 -4.35 -27.3 -3.8 -27.45 -3.4 -27.75 -2.9 -28.3 -2.95 -28.6 -3.1 -28.95 -3.3 -29.35 -3.8 -29.85 -3.95 -30.15 -1.2 -33.2 -0.7 -33.0 -1.15 -32.1 -1.6 -31.15 -2.15 -30.4 -2.8 -29.65 -2.1 -28.85 -1.35 -29.45 -1.35 -29.05 -1.35 -28.9 -1.4 -28.25 -2.05 -27.65 -1.45 -26.9 -1.5 -25.55 1.15 -24.95 3.55 -21.5 Q1.6 -21.4 0.5 -20.5 L-0.75 -20.85 -1.3 -21.0 -2.85 -22.65 -1.5 -24.05 -2.6 -27.15 -3.65 -26.2 Q-4.95 -25.2 -5.35 -25.15 L-6.4 -25.4 -6.5 -24.55 -6.6 -24.35 -7.0 -23.0 -7.5 -22.05 -8.2 -22.1 -10.8 -21.95 M-9.35 -24.1 L-9.45 -24.3 -10.1 -25.8 -10.0 -26.3 -9.4 -25.85 -8.3 -25.15 -9.35 -24.1 M1.95 -36.3 L2.0 -36.35 2.5 -36.45 3.15 -36.15 3.35 -35.75 3.4 -35.4 Q3.45 -34.5 2.8 -33.45 L2.9 -33.25 2.95 -32.8 Q3.0 -32.25 2.3 -30.85 L2.1 -30.5 2.1 -29.55 0.75 -29.2 0.45 -29.15 0.65 -29.35 0.65 -30.65 0.25 -30.85 2.3 -31.65 2.4 -32.2 1.3 -33.4 2.25 -33.7 1.9 -34.45 1.35 -34.8 2.15 -35.35 1.95 -36.3 M1.9 -28.25 L1.85 -28.0 1.65 -27.15 1.15 -26.65 1.1 -25.1 0.15 -28.2 -0.8 -28.1 -0.3 -28.5 1.9 -28.25 M4.3 -21.85 L5.1 -28.25 5.7 -28.25 6.6 -28.05 6.65 -28.0 5.45 -26.35 6.05 -23.8 5.65 -23.1 6.0 -22.85 5.85 -21.65 5.85 -21.4 4.3 -21.85 M5.5 -19.15 L5.25 -18.1 4.15 -18.95 4.0 -19.1 3.9 -19.7 4.6 -19.6 5.45 -19.2 5.5 -19.15 M13.55 -25.0 Q14.5 -25.25 14.5 -23.15 14.5 -22.2 13.25 -21.6 12.0 -21.05 11.3 -19.75 L11.0 -19.15 10.45 -17.1 Q9.8 -15.5 8.35 -15.5 L7.65 -15.55 Q6.9 -15.75 6.6 -16.35 6.35 -16.75 6.4 -17.25 6.4 -19.05 7.05 -19.65 L7.75 -20.05 8.55 -20.4 11.4 -21.3 Q11.15 -22.15 11.5 -22.95 11.7 -22.3 12.5 -22.0 L13.75 -23.0 Q14.25 -23.4 14.25 -23.9 14.25 -24.85 13.55 -25.0 M10.55 -19.65 L10.75 -20.35 Q10.75 -21.0 10.6 -20.75 L8.05 -19.95 Q6.85 -19.35 6.85 -18.15 L6.85 -17.3 Q7.05 -16.55 7.75 -16.55 9.25 -16.55 9.9 -17.5 10.35 -18.1 10.35 -18.9 L10.55 -19.65 M5.4 -14.65 L6.45 -14.1 5.6 -10.95 5.1 -14.45 5.4 -14.65" fill="#990000" fill-rule="evenodd" stroke="none"/>
      <path d="M-10.1 -22.95 L-9.35 -24.1 -8.3 -25.15 -9.4 -25.85 -10.0 -26.3 -9.6 -26.7 -3.8 -29.85 -3.3 -29.35 -3.1 -28.95 -2.95 -28.6 -2.9 -28.3 -3.4 -27.75 -3.8 -27.45 -4.35 -27.3 -4.55 -27.15 -4.7 -27.1 -5.65 -27.6 -7.05 -27.2 -6.75 -26.25 -7.35 -25.05 -7.1 -24.15 -10.35 -22.1 -10.1 -22.95 M-1.2 -33.2 L-1.45 -34.1 0.75 -36.25 1.95 -36.3 2.15 -35.35 1.35 -34.8 1.9 -34.45 2.25 -33.7 1.3 -33.4 2.4 -32.2 2.3 -31.65 0.25 -30.85 0.65 -30.65 0.65 -29.35 0.45 -29.15 -1.35 -29.05 -1.35 -29.45 -2.1 -28.85 -2.8 -29.65 -2.15 -30.4 -1.6 -31.15 -1.15 -32.1 -0.7 -33.0 -1.2 -33.2 M-0.3 -28.5 L-0.8 -28.1 0.15 -28.2 1.1 -25.1 1.15 -26.65 1.65 -27.15 2.05 -26.95 2.55 -25.85 2.15 -25.4 3.6 -22.9 3.6 -22.15 4.3 -21.85 5.85 -21.4 5.5 -19.15 5.45 -19.2 4.6 -19.6 3.9 -19.7 3.15 -19.85 Q2.95 -19.9 2.4 -20.25 L2.35 -20.05 0.5 -20.5 Q1.6 -21.4 3.55 -21.5 L1.15 -24.95 -1.5 -25.55 -1.45 -26.9 -2.05 -27.65 -1.4 -28.25 -1.35 -28.9 -0.3 -28.5 M6.8 -25.9 L6.5 -25.0 Q6.2 -24.25 6.0 -22.85 L5.65 -23.1 6.05 -23.8 5.45 -26.35 6.65 -28.0 6.8 -27.7 6.9 -27.25 6.5 -26.25 6.8 -25.9 M11.5 -22.95 L11.4 -23.55 Q11.4 -24.8 12.85 -25.0 L13.55 -25.0 Q14.25 -24.85 14.25 -23.9 14.25 -23.4 13.75 -23.0 L12.5 -22.0 Q11.7 -22.3 11.5 -22.95 M10.55 -19.65 L10.35 -18.9 Q10.35 -18.1 9.9 -17.5 9.25 -16.55 7.75 -16.55 7.05 -16.55 6.85 -17.3 L6.85 -18.15 Q6.85 -19.35 8.05 -19.95 L10.6 -20.75 Q10.75 -21.0 10.75 -20.35 L10.55 -19.65 M4.35 -15.1 L5.4 -14.65 5.1 -14.45 5.6 -10.95 5.95 -5.25 6.4 -5.0 6.25 -3.45 5.55 -3.35 4.5 -4.35 4.0 -14.7 4.35 -15.1" fill="#ff0000" fill-rule="evenodd" stroke="none"/>
      <path d="M8.0 -11.4 L7.85 -10.1 7.45 -7.1 7.0 -3.45 6.7 1.95 5.05 1.95 5.55 -3.35 6.25 -3.45 6.4 -5.0 8.0 -11.4 M4.0 1.95 L-3.2 1.95 -3.2 0.55 -2.85 -5.6 -2.8 -6.3 -2.7 -6.3 -2.05 -8.25 -1.6 -9.15 -1.8 -9.25 -2.0 -10.1 -3.1 -15.2 -6.2 -10.85 -6.75 -10.1 -7.95 -8.45 -9.95 -8.95 -10.15 -8.95 -10.45 -10.1 -10.7 -11.55 -10.8 -14.45 -11.0 -17.1 -10.95 -19.25 -10.5 -19.25 -0.2 -16.7 3.6 -15.45 3.65 -6.55 3.4 -3.9 3.8 -2.7 4.0 1.95 M-1.3 -21.0 L-4.7 -21.6 -7.5 -22.05 -7.0 -23.0 -6.6 -24.35 -6.5 -24.55 -6.4 -25.4 -5.35 -25.15 Q-4.95 -25.2 -3.65 -26.2 L-2.6 -27.15 -1.5 -24.05 -2.85 -22.65 -1.3 -21.0" fill="#e2b181" fill-rule="evenodd" stroke="none"/>
      <path d="M-7.05 1.95 L-7.2 1.95 -7.4 1.05 -8.5 -2.9 -9.05 -4.7 -10.15 -8.95 -9.95 -8.95 -8.7 -4.8 -8.2 -2.95 -7.25 1.05 -7.05 1.95" fill="#ffcc99" fill-rule="evenodd" stroke="none"/>
      <path d="M14.95 -27.75 L15.15 -26.05 Q15.15 -24.35 14.0 -21.1 L12.85 -20.5 11.3 -19.75 Q12.0 -21.05 13.25 -21.6 14.5 -22.2 14.5 -23.15 14.5 -25.25 13.55 -25.0 L12.85 -25.0 Q11.4 -24.8 11.4 -23.55 L11.5 -22.95 Q11.15 -22.15 11.4 -21.3 L8.55 -20.4 8.45 -22.0 8.6 -22.35 8.75 -22.65 8.9 -23.05 9.4 -24.35 10.05 -26.5 11.5 -27.45 Q12.3 -28.0 13.35 -28.0 L14.95 -27.75" fill="#c0c0c0" fill-rule="evenodd" stroke="none"/>
      <path d="M5.3 -30.65 L5.7 -30.8 8.1 -31.5 9.45 -31.35 Q14.9 -30.1 14.9 -28.3 L14.9 -27.95 14.75 -28.25 Q14.2 -29.1 12.8 -29.1 10.95 -29.1 10.35 -27.8 L10.05 -26.5 9.4 -24.35 8.9 -23.05 8.75 -22.65 8.6 -22.35 8.45 -22.0 7.8 -20.2 7.75 -20.05 7.05 -19.65 Q6.4 -19.05 6.4 -17.25 6.35 -16.75 6.6 -16.35 6.9 -15.75 7.65 -15.55 L7.9 -15.25 8.55 -14.4 8.9 -13.95 9.0 -13.8 8.65 -12.25 8.65 -12.35 8.4 -12.6 6.45 -14.1 5.4 -14.65 4.35 -15.1 3.6 -15.45 -0.2 -16.7 -10.5 -19.25 -10.95 -19.25 -10.95 -20.4 -10.9 -20.55 -10.95 -20.6 -11.35 -21.85 -10.8 -21.95 -8.2 -22.1 -7.5 -22.05 -4.7 -21.6 -1.3 -21.0 -0.75 -20.85 0.5 -20.5 2.35 -20.05 2.5 -20.0 4.0 -19.1 4.15 -18.95 5.25 -18.1 5.5 -19.15 5.85 -21.4 5.85 -21.65 6.0 -22.85 Q6.2 -24.25 6.5 -25.0 L6.8 -25.9 7.4 -27.6 6.6 -28.05 5.7 -28.25 5.1 -28.25 3.15 -28.25 1.9 -28.25 -0.3 -28.5 -1.35 -28.9 -1.35 -29.05 0.45 -29.15 0.75 -29.2 2.1 -29.55 3.0 -29.85 5.3 -30.65" fill="#333333" fill-rule="evenodd" stroke="none"/>
      <path d="M14.9 -27.95 L14.95 -27.75 13.35 -28.0 Q12.3 -28.0 11.5 -27.45 L10.05 -26.5 10.35 -27.8 Q10.95 -29.1 12.8 -29.1 14.2 -29.1 14.75 -28.25 L14.9 -27.95" fill="#cecece" fill-rule="evenodd" stroke="none"/>
      <path d="M14.0 -21.1 L13.0 -18.6 Q10.8 -13.5 9.85 -13.65 L9.0 -13.8 8.9 -13.95 8.55 -14.4 7.9 -15.25 7.65 -15.55 8.35 -15.5 Q9.8 -15.5 10.45 -17.1 L11.0 -19.15 11.3 -19.75 12.85 -20.5 14.0 -21.1 M8.55 -20.4 L7.75 -20.05 7.8 -20.2 8.45 -22.0 8.55 -20.4" fill="#b4b4b4" fill-rule="evenodd" stroke="none"/>
    </g>
    <g id="shape1" transform="matrix(1.0, 0.0, 0.0, 1.0, 11.8, 0.05)">
      <path d="M7.75 21.85 L7.95 21.8 Q8.25 21.8 8.9 23.55 L9.25 24.45 8.1 24.6 6.55 25.05 6.4 24.4 6.25 23.85 Q5.8 23.1 4.65 23.1 L1.7 23.75 -0.7 24.0 -3.4 23.8 -4.9 23.5 -7.05 22.95 -7.1 22.95 -7.7 24.05 -7.95 24.45 Q-9.3 27.05 -9.3 28.95 L-9.15 30.2 -9.4 30.9 -10.15 35.6 Q-11.1 35.3 -11.7 34.75 L-11.7 34.7 -11.55 32.25 Q-11.55 31.25 -10.95 28.6 L-10.1 25.35 -9.5 23.6 Q-9.0 22.65 -8.1 21.95 L-7.5 21.7 -6.2 21.75 -5.75 21.9 -5.45 22.0 -3.2 22.9 -1.7 23.4 1.7 23.4 1.8 23.4 5.35 22.5 5.6 22.45 5.85 22.35 6.7 22.15 6.75 22.15 7.75 21.85 M9.85 26.35 L10.15 27.15 10.55 27.45 10.2 27.8 Q9.25 28.9 8.4 30.5 L5.55 30.05 5.6 29.9 3.4 32.65 3.1 33.05 0.9 36.2 -0.7 36.05 Q0.35 33.85 2.1 31.85 L2.15 31.8 Q4.25 29.3 6.25 28.4 L6.75 27.6 Q7.45 27.15 8.5 26.8 L9.85 26.35 M12.55 28.5 L14.9 29.3 Q13.7 30.15 12.65 31.75 L10.75 31.15 10.7 31.15 Q11.4 29.75 12.0 29.05 L12.55 28.5 M17.1 30.0 L19.35 30.85 19.55 30.95 19.75 31.05 22.25 32.05 25.15 33.25 24.05 33.85 22.65 34.0 20.7 33.75 19.2 33.7 17.85 33.35 Q18.85 33.9 19.5 34.85 20.2 35.9 20.5 37.45 L19.45 37.35 Q19.3 36.35 18.45 35.05 L18.35 34.9 16.95 33.1 14.8 32.55 14.8 32.45 14.6 32.4 Q14.8 31.9 15.3 31.35 16.05 30.45 16.55 30.25 L17.1 30.0" fill="#999999" fill-rule="evenodd" stroke="none"/>
      <path d="M25.15 33.25 L26.75 34.5 27.0 34.8 27.35 35.7 Q27.55 36.4 27.4 37.55 L25.9 37.75 20.5 37.45 Q20.2 35.9 19.5 34.85 18.85 33.9 17.85 33.35 L19.2 33.7 20.7 33.75 22.65 34.0 24.05 33.85 25.15 33.25 M-10.15 35.6 L-9.4 30.9 -9.15 30.2 -9.3 28.95 Q-9.3 27.05 -7.95 24.45 L-7.7 24.05 -7.1 22.95 -7.05 22.95 -4.9 23.5 -3.4 23.8 -0.7 24.0 1.7 23.75 4.65 23.1 Q5.8 23.1 6.25 23.85 L6.4 24.4 6.55 25.05 7.0 26.7 6.75 27.6 6.25 28.4 Q4.25 29.3 2.15 31.8 L2.1 31.85 Q0.35 33.85 -0.7 36.05 L-3.75 35.75 Q-5.05 35.6 -8.45 35.8 L-10.15 35.6 M14.6 32.4 L14.8 32.45 14.8 32.55 16.95 33.1 18.35 34.9 18.45 35.05 Q19.3 36.35 19.45 37.35 L15.3 37.0 14.2 36.9 6.45 36.6 0.9 36.2 3.1 33.05 3.4 32.65 5.6 29.9 5.55 30.05 8.4 30.5 10.7 31.15 10.75 31.15 12.65 31.75 13.25 31.95 14.6 32.4" fill="#898989" fill-rule="evenodd" stroke="none"/>
      <path d="M6.7 1.55 L6.6 3.1 6.65 4.4 6.65 5.2 5.15 5.25 5.1 4.4 5.0 1.65 5.1 1.65 6.7 1.55 M6.75 7.4 L6.75 7.6 6.85 9.05 6.9 10.15 5.6 10.3 5.4 8.2 5.35 7.6 5.35 7.45 6.75 7.4 M7.1 12.95 L7.1 13.2 7.15 13.55 7.15 13.8 7.45 16.8 7.7 21.05 7.75 21.85 6.75 22.15 5.95 13.55 5.9 13.05 6.7 12.95 7.1 12.95 M9.25 24.45 L9.55 25.45 9.85 26.35 8.5 26.8 Q7.45 27.15 6.75 27.6 L7.0 26.7 6.55 25.05 8.1 24.6 9.25 24.45 M10.55 27.45 L12.2 28.35 12.55 28.5 12.0 29.05 Q11.4 29.75 10.7 31.15 L8.4 30.5 Q9.25 28.9 10.2 27.8 L10.55 27.45 M14.9 29.3 L15.4 29.45 16.9 29.9 17.0 29.95 17.1 30.0 16.55 30.25 Q16.05 30.45 15.3 31.35 14.8 31.9 14.6 32.4 L13.25 31.95 12.65 31.75 Q13.7 30.15 14.9 29.3 M-7.5 21.7 L-7.3 20.9 -7.2 19.45 -6.55 13.0 -4.95 13.1 -4.95 13.2 -5.2 18.45 Q-5.3 19.95 -5.75 21.9 L-6.2 21.75 -7.5 21.7 M-6.35 10.5 L-6.4 7.3 -6.4 7.2 -6.25 7.25 -5.45 7.35 -5.1 10.65 -6.35 10.5 M-6.65 5.05 L-6.75 4.4 -6.95 3.15 -7.15 2.0 -7.0 2.0 -6.25 2.0 -5.85 4.4 -5.75 5.15 -6.65 5.05" fill="#cecece" fill-rule="evenodd" stroke="none"/>
      <path d="M27.4 37.55 Q28.05 40.2 23.6 40.2 L15.1 40.1 8.6 39.5 8.9 39.55 -7.55 38.45 -10.45 38.35 -11.75 37.85 -11.7 34.75 Q-11.1 35.3 -10.15 35.6 L-8.45 35.8 Q-5.05 35.6 -3.75 35.75 L-0.7 36.05 0.9 36.2 6.45 36.6 14.2 36.9 15.3 37.0 19.45 37.35 20.5 37.45 25.9 37.75 27.4 37.55" fill="#333333" fill-rule="evenodd" stroke="none"/>
      <path d="M5.3 -0.05 L6.8 -0.05 6.75 0.3 6.7 1.25 6.7 1.55 5.1 1.65 5.1 1.45 5.15 0.95 5.25 0.3 5.3 -0.05 M-7.15 2.0 L-7.55 0.3 -7.65 -0.05 -7.45 -0.05 -7.4 0.3 -7.0 2.0 -7.15 2.0 M-3.2 -0.05 L3.95 -0.05 4.0 1.7 2.55 1.75 0.05 1.85 -3.2 1.95 -3.2 0.55 -3.2 0.3 -3.2 -0.05" fill="#e2b181" fill-rule="evenodd" stroke="none"/>
      <path d="M-7.45 -0.05 L-3.2 -0.05 -3.2 0.3 -3.2 0.55 -3.2 1.95 -3.55 1.95 -6.25 2.0 -7.0 2.0 -7.4 0.3 -7.45 -0.05 M3.95 -0.05 L5.3 -0.05 5.25 0.3 5.15 0.95 5.1 1.45 5.1 1.65 5.0 1.65 4.0 1.7 3.95 -0.05" fill="#d5a675" fill-rule="evenodd" stroke="none"/>
      <path d="M6.65 5.2 L6.7 6.2 6.75 7.4 5.35 7.45 5.15 5.25 6.65 5.2 M6.9 10.15 L7.0 11.5 7.1 12.95 6.7 12.95 5.9 13.05 5.6 10.3 6.9 10.15 M-6.55 13.0 L-6.4 11.55 -6.35 10.5 -5.1 10.65 -4.95 13.1 -6.55 13.0 M-6.4 7.2 L-6.65 5.05 -5.75 5.15 -5.45 7.35 -6.25 7.25 -6.4 7.2" fill="#be6161" fill-rule="evenodd" stroke="none"/>
      <path d="M5.0 1.65 L5.1 4.4 5.15 5.25 1.8 5.3 1.95 4.4 1.95 4.2 2.55 1.75 4.0 1.7 5.0 1.65 M-3.55 1.95 L-3.15 4.4 -3.0 5.3 -5.75 5.15 -5.85 4.4 -6.25 2.0 -3.55 1.95 M1.7 7.6 L3.7 7.55 4.45 7.5 4.8 7.5 5.35 7.45 5.35 7.6 5.4 8.2 5.6 10.3 1.85 10.7 1.7 7.6 M-2.6 7.6 L-2.35 9.15 -2.1 10.95 -2.45 10.85 -5.1 10.65 -5.45 7.35 -2.6 7.6 M-4.95 13.1 L-2.15 13.15 -1.85 13.15 -1.7 16.65 -2.65 20.4 -3.2 22.9 -5.45 22.0 -5.75 21.9 Q-5.3 19.95 -5.2 18.45 L-4.95 13.2 -4.95 13.1 M5.9 13.05 L5.95 13.55 6.75 22.15 6.7 22.15 5.85 22.35 5.6 22.45 5.35 22.5 1.8 23.4 1.7 23.4 Q1.65 22.25 1.25 21.25 0.75 20.1 0.75 19.65 0.75 18.55 1.4 16.95 L1.8 15.85 Q2.0 17.05 2.45 17.6 L3.65 19.75 3.9 20.3 2.35 14.3 2.05 13.15 4.1 13.1 5.9 13.05" fill="#c0c0c0" fill-rule="evenodd" stroke="none"/>
      <path d="M1.8 5.3 L1.6 5.3 1.55 5.3 -3.0 5.3 -3.15 4.4 -3.55 1.95 -3.2 1.95 0.05 1.85 2.55 1.75 1.95 4.2 1.95 4.4 1.8 5.3 M1.85 10.7 L1.65 10.7 -2.1 10.95 -2.35 9.15 -2.6 7.6 -0.75 7.65 1.7 7.6 1.85 10.7 M2.05 13.15 L2.35 14.3 3.9 20.3 3.65 19.75 2.45 17.6 Q2.0 17.05 1.8 15.85 L1.4 16.95 Q0.75 18.55 0.75 19.65 0.75 20.1 1.25 21.25 1.65 22.25 1.7 23.4 L-1.7 23.4 -3.2 22.9 -2.65 20.4 -1.7 16.65 -1.85 13.15 2.05 13.15" fill="#b4b4b4" fill-rule="evenodd" stroke="none"/>
      <path d="M5.15 5.25 L5.35 7.45 4.8 7.5 4.45 7.5 3.7 7.55 1.7 7.6 1.55 5.3 1.6 5.3 1.8 5.3 5.15 5.25 M-5.1 10.65 L-2.45 10.85 -2.1 10.95 -1.85 13.15 -2.15 13.15 -4.95 13.1 -5.1 10.65 M1.85 10.7 L5.6 10.3 5.9 13.05 4.1 13.1 2.05 13.15 1.85 10.7 M-5.75 5.15 L-3.0 5.3 -2.6 7.6 -5.45 7.35 -5.75 5.15" fill="#ad3939" fill-rule="evenodd" stroke="none"/>
      <path d="M-3.0 5.3 L1.55 5.3 1.7 7.6 -0.75 7.65 -2.6 7.6 -3.0 5.3 M-2.1 10.95 L1.65 10.7 1.85 10.7 2.05 13.15 -1.85 13.15 -2.1 10.95" fill="#8f2d2d" fill-rule="evenodd" stroke="none"/>
    </g>
  </defs>
</svg>
