<?xml version="1.0" encoding="UTF-8" standalone="no"?>
<svg xmlns:ffdec="https://www.free-decompiler.com/flash" xmlns:xlink="http://www.w3.org/1999/xlink" ffdec:objectType="frame" height="78.5px" width="39.3px" xmlns="http://www.w3.org/2000/svg">
  <g transform="matrix(1.0, 0.0, 0.0, 1.0, 11.8, 38.3)">
    <use ffdec:characterId="1477" height="62.65" transform="matrix(1.0, 0.0, 0.0, 1.0, -11.1, -38.3)" width="23.6" xlink:href="#shape0"/>
  </g>
  <defs>
    <g id="shape0" transform="matrix(1.0, 0.0, 0.0, 1.0, 11.1, 38.3)">
      <path d="M8.55 -16.7 L8.5 -16.2 8.45 -16.2 8.55 -16.7 M8.25 -14.2 L7.45 -7.1 7.0 -3.45 6.9 -1.25 6.85 -0.35 6.75 0.7 6.65 1.55 5.1 1.65 5.1 1.5 5.2 0.7 5.25 -0.35 5.35 -1.25 5.85 -6.85 5.85 -6.9 Q7.45 -10.4 8.15 -14.25 L8.25 -14.2 M-6.4 11.55 L-6.35 9.7 Q-6.35 7.6 -6.65 5.2 L-6.7 4.6 -6.65 5.05 -6.4 7.2 -6.4 7.3 -6.35 10.5 -6.4 11.55 M-10.15 -8.95 L-10.7 -11.55 -10.8 -14.45 -10.95 -16.2 -11.0 -17.1 -10.95 -18.95 -8.8 -19.15 -2.1 -19.25 2.75 -19.0 2.8 -18.85 3.45 -17.1 3.6 -15.8 3.65 -6.55 3.4 -3.9 3.8 -2.7 4.0 1.7 2.55 1.75 0.4 1.85 0.15 0.55 -0.95 0.2 -2.55 0.9 -3.2 0.65 -3.2 0.55 -3.15 -0.35 -3.15 -0.75 -3.2 -1.3 -2.85 -5.6 -2.8 -6.3 -2.7 -6.3 -2.05 -8.25 -1.6 -9.15 -1.8 -9.25 -3.1 -15.2 -6.2 -10.85 -7.95 -8.45 -9.95 -8.95 -10.15 -8.95 M-10.7 -22.45 L-10.25 -27.8 Q-9.55 -29.65 -7.3 -30.85 -5.85 -31.7 -4.05 -32.1 L-0.8 -33.1 -0.7 -32.7 -0.1 -30.65 -0.1 -23.25 -2.85 -23.15 -7.4 -22.7 -10.7 -22.45 M-2.55 7.8 L-2.6 7.6 -2.4 7.6 -2.55 7.8 M-1.9 12.6 L-1.95 12.1 -1.9 12.6" fill="#e2b181" fill-rule="evenodd" stroke="none"/>
      <path d="M8.85 -18.75 L8.55 -16.7 8.45 -16.2 8.2 -14.5 8.15 -14.25 Q7.45 -10.4 5.85 -6.9 L5.85 -6.85 5.35 -1.25 5.25 -0.35 5.2 0.7 5.1 1.5 5.1 1.65 5.0 2.35 5.0 1.65 4.0 1.7 3.8 -2.7 3.4 -3.9 3.65 -6.55 3.6 -15.8 3.45 -17.1 2.8 -18.85 2.75 -19.0 8.85 -18.75 M-9.95 -8.95 L-7.95 -8.45 -6.2 -10.85 -3.1 -15.2 -1.8 -9.25 -1.6 -9.15 -2.05 -8.25 -2.7 -6.3 -2.8 -6.3 -2.85 -5.6 -3.2 -1.3 -3.15 -0.75 -3.15 -0.35 -3.2 0.55 -3.2 0.65 -5.25 0.75 -5.8 2.0 -6.25 2.0 -7.0 2.0 -7.25 1.05 -7.3 0.7 -7.55 -0.35 -7.8 -1.3 -8.2 -2.95 -8.7 -4.8 -9.95 -8.95 M-5.45 7.35 L-5.4 7.55 -5.5 7.35 -5.45 7.35" fill="#d5a675" fill-rule="evenodd" stroke="none"/>
      <path d="M8.5 -16.2 L8.25 -14.2 8.15 -14.25 8.2 -14.5 8.45 -16.2 8.5 -16.2 M-6.95 3.15 L-7.4 1.05 -7.45 0.7 -7.75 -0.35 -8.05 -1.35 -8.5 -2.9 -9.05 -4.7 -10.15 -8.95 -9.95 -8.95 -8.7 -4.8 -8.2 -2.95 -7.8 -1.3 -7.55 -0.35 -7.3 0.7 -7.25 1.05 -7.0 2.0 -7.15 2.0 -6.95 3.15" fill="#ffcc99" fill-rule="evenodd" stroke="none"/>
      <path d="M5.4 15.85 L4.15 21.7 3.45 21.75 3.3 14.65 Q3.65 14.6 3.7 14.35 L3.65 14.15 3.9 12.75 2.95 11.8 3.05 11.3 Q3.3 10.7 3.85 10.5 L4.4 10.4 4.5 10.4 Q5.4 10.55 5.75 11.65 L5.9 12.4 5.9 12.55 5.85 12.7 5.7 13.05 4.85 14.5 5.4 15.85 M1.15 19.2 L0.75 19.6 0.3 19.7 Q-0.7 20.0 -1.4 19.15 L-1.1 17.75 -4.3 17.15 -3.9 15.85 -3.1 16.1 -5.45 13.9 -5.15 12.85 -4.95 12.8 Q-3.5 12.5 -2.15 13.15 -1.7 13.4 -1.25 13.75 -0.9 14.05 -0.8 14.5 -0.65 14.7 -0.65 15.15 L-0.8 15.25 -0.8 15.3 -1.5 15.35 -1.85 15.0 -2.75 16.15 1.1 17.05 1.15 19.2 M-2.55 0.9 L-0.95 0.2 0.15 0.55 0.4 1.85 0.4 2.05 0.15 2.35 Q-0.4 2.85 -1.3 2.85 L-2.15 3.85 -4.5 3.5 -4.9 3.1 -4.9 2.55 -4.7 2.0 Q-4.15 0.8 -2.55 0.9 M-2.7 7.9 L-2.55 7.8 -2.4 7.6 -2.3 7.5 Q-1.2 6.6 -0.25 7.2 L-0.2 7.5 -0.15 7.65 -0.1 8.7 -0.3 9.95 -0.35 10.35 0.3 10.7 0.45 10.8 0.7 11.0 0.95 12.5 0.0 13.35 -0.25 13.2 Q-1.1 12.55 -1.35 11.4 L-1.45 10.95 -1.55 10.5 -2.4 10.3 -3.0 9.5 -2.7 7.9" fill="#ff0000" fill-rule="evenodd" stroke="none"/>
      <path d="M1.8 9.7 L1.85 10.7 1.75 10.7 1.8 9.7" fill="#f4c398" fill-rule="evenodd" stroke="none"/>
      <path d="M7.05 12.35 L7.3 12.5 7.25 14.5 5.4 15.85 4.85 14.5 5.7 13.05 5.85 12.7 5.9 12.55 5.9 12.4 6.8 12.15 7.05 12.35 M-4.4 17.4 L-5.15 16.75 Q-6.6 15.05 -6.45 13.0 L-6.4 12.35 -6.4 11.55 -5.65 10.75 -5.05 11.2 -4.15 11.8 -2.0 12.9 -1.9 12.6 -1.95 12.1 -3.75 10.8 -4.15 10.5 -4.05 9.75 Q-3.7 8.6 -2.7 7.9 L-3.0 9.5 -2.4 10.3 -1.55 10.5 -1.45 10.95 -1.35 11.4 Q-1.1 12.55 -0.25 13.2 L0.0 13.35 0.95 12.5 0.85 13.2 0.8 13.25 1.55 13.2 1.55 13.15 1.65 13.15 1.85 13.15 2.05 13.1 2.4 13.0 2.05 12.65 2.6 10.65 2.6 10.5 3.55 10.15 4.4 10.4 3.85 10.5 Q3.3 10.7 3.05 11.3 L2.95 11.8 3.9 12.75 3.65 14.15 3.7 14.35 Q3.65 14.6 3.3 14.65 2.8 14.9 2.45 15.25 1.55 15.9 1.1 17.05 L-2.75 16.15 -1.85 15.0 -1.5 15.35 -0.8 15.3 -0.8 15.25 -0.65 15.15 Q-0.65 14.7 -0.8 14.5 -0.9 14.05 -1.25 13.75 -1.7 13.4 -2.15 13.15 -3.5 12.5 -4.95 12.8 L-5.15 12.85 -5.45 13.9 -3.1 16.1 -3.9 15.85 -4.3 17.15 -4.4 17.4 M-5.8 2.0 L-5.25 0.75 -3.2 0.65 -2.55 0.9 Q-4.15 0.8 -4.7 2.0 L-4.9 2.55 -4.9 3.1 -4.5 3.5 -2.15 3.85 -1.3 2.85 -1.4 4.0 Q-1.55 4.75 -2.1 5.35 L-2.35 5.5 -2.95 5.6 -3.6 5.65 -4.5 5.25 -5.2 4.55 Q-6.1 3.25 -5.8 2.0 M-0.25 7.2 L0.25 7.65 0.6 8.75 0.45 10.05 0.3 10.7 -0.35 10.35 -0.3 9.95 -0.1 8.7 -0.15 7.65 -0.2 7.5 -0.25 7.2" fill="#990000" fill-rule="evenodd" stroke="none"/>
      <path d="M1.4 10.75 L1.35 10.55 1.4 10.75" fill="#ebbb98" fill-rule="evenodd" stroke="none"/>
      <path d="M4.15 21.7 L3.6 22.95 2.25 24.35 1.15 22.95 1.15 19.2 1.1 17.05 Q1.55 15.9 2.45 15.25 2.8 14.9 3.3 14.65 L3.45 21.75 4.15 21.7 M-1.4 19.15 L-2.05 20.45 -4.3 19.85 -4.4 17.4 -4.3 17.15 -1.1 17.75 -1.4 19.15" fill="#ffffff" fill-rule="evenodd" stroke="none"/>
      <path d="M-0.8 -33.1 L-1.35 -34.25 -1.0 -34.95 -0.25 -36.2 0.1 -36.8 0.85 -37.65 1.9 -38.2 2.8 -38.3 4.4 -38.2 5.05 -38.1 10.75 -37.45 10.75 -36.65 10.65 -36.2 7.4 -36.65 6.15 -36.4 5.8 -35.15 5.4 -33.9 5.15 -32.95 4.8 -31.7 Q4.65 -31.05 4.65 -29.6 L4.65 -29.05 4.75 -27.35 4.95 -24.45 Q5.3 -21.1 5.8 -20.5 L6.3 -20.4 7.95 -20.2 9.05 -20.2 9.4 -20.3 Q9.2 -19.65 9.15 -18.75 L8.85 -18.75 2.75 -19.0 -2.1 -19.25 -8.8 -19.15 -10.95 -18.95 -11.1 -22.45 -10.9 -22.5 -10.7 -22.45 -7.4 -22.7 -2.85 -23.15 -0.1 -23.25 -0.1 -30.65 -0.7 -32.7 -0.8 -33.1" fill="#333333" fill-rule="evenodd" stroke="none"/>
      <path d="M10.65 -36.2 L11.15 -35.7 Q12.25 -34.35 12.45 -32.65 12.1 -35.15 9.35 -35.45 L7.8 -35.5 6.2 -34.45 5.15 -32.95 5.4 -33.9 5.8 -35.15 6.15 -36.4 7.4 -36.65 10.65 -36.2 M6.65 1.55 L6.6 2.4 6.6 2.85 6.65 5.2 5.15 5.25 5.1 4.4 5.0 2.35 5.1 1.65 6.65 1.55 M6.7 7.4 L6.75 7.4 6.75 7.6 6.85 9.05 6.9 10.15 6.75 10.15 5.6 10.3 5.4 8.2 5.35 7.6 5.35 7.45 6.7 7.4 M-6.7 4.6 L-6.75 4.4 -6.75 4.35 -6.95 3.15 -7.15 2.0 -7.0 2.0 -6.25 2.0 -5.85 4.4 -5.75 5.15 -6.35 5.1 -6.65 5.05 -6.7 4.6 M-5.4 7.55 L-5.1 10.65 -6.35 10.5 -6.4 7.3 -6.4 7.2 -6.25 7.25 -5.5 7.35 -5.4 7.55" fill="#cecece" fill-rule="evenodd" stroke="none"/>
      <path d="M12.45 -32.65 L12.5 -31.85 12.5 -28.65 Q12.4 -25.85 11.45 -23.5 L11.6 -26.15 11.5 -27.6 11.0 -27.6 9.45 -26.55 8.7 -26.2 7.55 -26.0 Q6.45 -26.0 5.4 -26.75 L4.75 -27.35 4.65 -29.05 4.65 -29.6 Q4.65 -31.05 4.8 -31.7 L5.15 -32.95 6.2 -34.45 7.8 -35.5 9.35 -35.45 Q12.1 -35.15 12.45 -32.65 M4.0 1.7 L5.0 1.65 5.0 2.35 5.1 4.4 5.15 5.25 4.7 5.3 4.15 5.3 1.8 5.3 1.95 4.4 1.95 4.2 2.55 1.75 4.0 1.7 M-6.25 2.0 L-5.8 2.0 Q-6.1 3.25 -5.2 4.55 L-4.5 5.25 -5.75 5.15 -5.85 4.4 -6.25 2.0 M-5.45 7.35 L-4.05 7.5 -2.6 7.6 -2.55 7.8 -2.7 7.9 Q-3.7 8.6 -4.05 9.75 L-4.15 10.5 -3.75 10.8 -5.1 10.65 -5.4 7.55 -5.45 7.35 M4.4 10.4 L3.55 10.15 2.6 10.5 2.6 10.65 1.85 10.7 1.8 9.7 1.7 7.6 2.1 7.6 3.05 7.55 3.7 7.55 4.45 7.5 4.8 7.5 5.35 7.45 5.35 7.6 5.4 8.2 5.6 10.3 4.5 10.4 4.4 10.4" fill="#c0c0c0" fill-rule="evenodd" stroke="none"/>
      <path d="M11.45 -23.5 Q10.5 -21.2 9.95 -20.75 L9.4 -20.3 9.05 -20.2 7.95 -20.2 6.3 -20.4 5.8 -20.5 Q5.3 -21.1 4.95 -24.45 L4.75 -27.35 5.4 -26.75 Q6.45 -26.0 7.55 -26.0 L8.7 -26.2 9.45 -26.55 11.0 -27.6 11.5 -27.6 11.6 -26.15 11.45 -23.5 M0.4 1.85 L2.55 1.75 1.95 4.2 1.95 4.4 1.8 5.3 1.6 5.3 1.55 5.3 -2.1 5.35 Q-1.55 4.75 -1.4 4.0 L-1.3 2.85 Q-0.4 2.85 0.15 2.35 L0.4 2.05 0.4 1.85 M0.25 7.65 L1.7 7.6 1.8 9.7 1.75 10.7 1.65 10.7 1.4 10.75 0.45 10.8 0.3 10.7 0.45 10.05 0.6 8.75 0.25 7.65 M1.4 10.75 L1.35 10.55 1.4 10.75" fill="#b4b4b4" fill-rule="evenodd" stroke="none"/>
      <path d="M-4.5 5.25 L-3.6 5.65 -2.95 5.6 -2.6 7.6 -4.05 7.5 -5.45 7.35 -5.75 5.15 -4.5 5.25 M-5.1 10.65 L-3.75 10.8 -1.95 12.1 -1.9 12.6 -2.0 12.9 -4.15 11.8 -5.05 11.2 -5.1 10.65 M1.7 7.6 L1.55 5.3 1.6 5.3 1.8 5.3 4.15 5.3 4.7 5.3 5.15 5.25 5.35 7.45 4.8 7.5 4.45 7.5 3.7 7.55 3.05 7.55 2.1 7.6 1.7 7.6 M2.6 10.65 L2.05 12.65 2.4 13.0 2.05 13.1 1.85 10.7 2.6 10.65 M4.5 10.4 L5.6 10.3 5.75 11.65 Q5.4 10.55 4.5 10.4" fill="#ad3939" fill-rule="evenodd" stroke="none"/>
      <path d="M6.65 5.2 L6.7 7.4 5.35 7.45 5.15 5.25 6.65 5.2 M6.9 10.15 L7.0 11.5 7.05 12.35 6.8 12.15 5.9 12.4 5.75 11.65 5.6 10.3 6.75 10.15 6.9 10.15 M-5.75 5.15 L-5.45 7.35 -5.5 7.35 -6.25 7.25 -6.4 7.2 -6.65 5.05 -6.35 5.1 -5.75 5.15 M-5.1 10.65 L-5.05 11.2 -5.65 10.75 -6.4 11.55 -6.35 10.5 -5.1 10.65" fill="#be6161" fill-rule="evenodd" stroke="none"/>
      <path d="M-2.6 7.6 L-2.95 5.6 -2.35 5.5 -2.1 5.35 1.55 5.3 1.7 7.6 0.25 7.65 -0.25 7.2 Q-1.2 6.6 -2.3 7.5 L-2.4 7.6 -2.6 7.6 M2.05 13.1 L1.85 13.15 1.65 13.15 1.55 13.15 1.55 13.2 0.8 13.25 0.85 13.2 0.95 12.5 0.7 11.0 0.45 10.8 1.4 10.75 1.65 10.7 1.75 10.7 1.85 10.7 2.05 13.1" fill="#8f2d2d" fill-rule="evenodd" stroke="none"/>
    </g>
  </defs>
</svg>
