<?xml version="1.0" encoding="UTF-8" standalone="no"?>
<svg xmlns:ffdec="https://www.free-decompiler.com/flash" xmlns:xlink="http://www.w3.org/1999/xlink" ffdec:objectType="frame" height="78.5px" width="39.3px" xmlns="http://www.w3.org/2000/svg">
  <g transform="matrix(1.0, 0.0, 0.0, 1.0, 11.8, 38.3)">
    <use ffdec:characterId="1478" height="60.95" transform="matrix(1.0, 0.0, 0.0, 1.0, -11.35, -36.6)" width="26.5" xlink:href="#shape0"/>
  </g>
  <defs>
    <g id="shape0" transform="matrix(1.0, 0.0, 0.0, 1.0, 11.35, 36.6)">
      <path d="M5.3 -30.65 L3.0 -29.85 2.1 -29.55 2.1 -30.5 2.3 -30.85 Q3.0 -32.25 2.95 -32.8 L2.9 -33.25 Q3.35 -33.6 4.35 -33.75 L4.55 -34.55 Q4.55 -35.05 4.8 -35.25 5.45 -35.8 5.9 -35.5 L6.25 -34.75 Q6.4 -33.3 5.85 -31.8 L5.65 -31.0 Q5.35 -31.05 5.3 -30.65 M1.9 -28.25 L3.15 -28.25 5.1 -28.25 4.3 -21.85 3.6 -22.15 3.6 -22.9 2.15 -25.4 2.55 -25.85 2.05 -26.95 1.65 -27.15 1.85 -28.0 1.9 -28.25 M6.45 -14.1 L8.4 -12.6 8.0 -11.4 6.4 -5.0 5.95 -5.25 5.6 -10.95 6.45 -14.1 M8.75 -22.65 L8.9 -23.05 8.75 -22.65 M4.15 21.7 L3.6 22.95 2.25 24.35 1.15 22.95 1.15 19.2 1.1 17.05 Q1.55 15.9 2.45 15.25 2.8 14.9 3.3 14.65 L3.45 21.75 4.15 21.7 M-1.4 19.15 L-2.05 20.45 -4.3 19.85 -4.4 17.4 -4.3 17.15 -1.1 17.75 -1.4 19.15" fill="#ffffff" fill-rule="evenodd" stroke="none"/>
      <path d="M4.0 -19.1 L2.5 -20.0 2.35 -20.05 2.4 -20.25 Q2.95 -19.9 3.15 -19.85 L3.9 -19.7 4.0 -19.1 M3.6 -15.45 L4.35 -15.1 4.0 -14.7 4.5 -4.35 5.55 -3.35 5.35 -1.25 5.3 -0.35 5.25 -0.35 5.25 0.15 5.2 0.7 5.1 1.5 5.1 1.65 5.0 2.35 5.0 1.65 4.0 1.7 3.8 -2.7 3.4 -3.9 3.65 -6.55 3.6 -15.45 M3.35 -35.75 L3.15 -36.15 3.3 -36.15 3.35 -35.75 M2.5 -36.45 L2.0 -36.35 2.25 -36.6 2.5 -36.45 M-9.95 -8.95 L-7.95 -8.45 -6.75 -10.1 -6.2 -10.85 -3.1 -15.2 -2.0 -10.1 -1.8 -9.25 -1.6 -9.15 -2.05 -8.25 -2.7 -6.3 -2.8 -6.3 -2.85 -5.6 -3.2 -1.3 -3.15 -0.75 -3.15 -0.35 -3.2 0.15 -3.2 0.55 -3.2 0.65 -5.25 0.75 -5.8 2.0 -6.25 2.0 -7.0 2.0 -7.25 1.05 -7.3 0.7 -7.45 0.15 -7.55 -0.35 -7.8 -1.3 -8.2 -2.95 -8.7 -4.8 -9.95 -8.95 M-5.5 7.35 L-5.45 7.35 -5.4 7.55 -5.5 7.35" fill="#d5a675" fill-rule="evenodd" stroke="none"/>
      <path d="M2.1 -29.55 L0.75 -29.2 0.45 -29.15 0.65 -29.35 0.65 -30.65 0.25 -30.85 2.3 -31.65 2.4 -32.2 1.3 -33.4 2.25 -33.7 1.9 -34.45 1.35 -34.8 2.15 -35.35 1.95 -36.3 2.0 -36.35 2.5 -36.45 3.15 -36.15 3.35 -35.75 3.4 -35.4 Q3.45 -34.5 2.8 -33.45 L2.9 -33.25 2.95 -32.8 Q3.0 -32.25 2.3 -30.85 L2.1 -30.5 2.1 -29.55 M-1.35 -29.05 L-1.35 -28.9 -1.4 -28.25 -2.05 -27.65 -1.45 -26.9 -1.5 -25.55 1.15 -24.95 3.55 -21.5 Q1.6 -21.4 0.5 -20.5 L-0.75 -20.85 -1.3 -21.0 -1.85 -21.6 -2.05 -21.8 -2.85 -22.65 -1.5 -24.05 -2.6 -27.15 -3.65 -26.2 Q-4.95 -25.2 -5.35 -25.15 L-6.4 -25.4 -6.5 -24.55 -6.6 -24.35 -7.0 -23.0 -7.5 -22.05 -8.2 -22.1 -10.8 -21.95 -10.75 -22.1 -10.1 -22.95 -10.35 -22.1 -7.1 -24.15 -7.35 -25.05 -6.75 -26.25 -7.05 -27.2 -5.65 -27.6 -4.7 -27.1 -4.55 -27.15 -4.35 -27.3 -3.8 -27.45 -3.4 -27.75 -2.9 -28.3 -2.95 -28.6 -3.1 -28.95 -3.3 -29.35 -3.8 -29.85 -3.95 -30.15 -1.2 -33.2 -0.7 -33.0 -1.15 -32.1 -1.6 -31.15 -2.15 -30.4 -2.8 -29.65 -2.1 -28.85 -1.35 -29.45 -1.35 -29.05 M-0.3 -28.5 L1.9 -28.25 1.85 -28.0 1.65 -27.15 1.15 -26.65 1.1 -25.1 0.15 -28.2 -0.8 -28.1 -0.3 -28.5 M5.1 -28.25 L5.7 -28.25 6.6 -28.05 6.65 -28.05 6.65 -28.0 5.45 -26.35 6.05 -23.8 5.65 -23.1 6.0 -22.85 5.85 -21.65 5.85 -21.4 4.3 -21.85 5.1 -28.25 M5.5 -19.15 L5.25 -18.1 4.15 -18.95 4.0 -19.1 3.9 -19.7 4.6 -19.6 5.45 -19.2 5.5 -19.15 M5.4 -14.65 L6.45 -14.1 5.6 -10.95 5.1 -14.45 5.4 -14.65 M7.65 -15.55 Q7.2 -15.7 6.9 -15.95 L6.6 -16.35 Q6.35 -16.75 6.4 -17.25 6.4 -18.4 6.65 -19.05 L7.05 -19.65 7.45 -19.9 7.75 -20.05 8.05 -20.2 8.55 -20.4 11.4 -21.3 Q11.15 -22.15 11.5 -22.95 L12.0 -22.3 12.5 -22.0 13.75 -23.0 Q14.25 -23.4 14.25 -23.9 14.25 -24.85 13.55 -25.0 14.5 -25.25 14.5 -23.15 14.5 -22.2 13.25 -21.6 12.0 -21.05 11.3 -19.75 L11.0 -19.15 10.95 -18.8 10.45 -17.1 10.25 -16.6 Q9.6 -15.55 8.45 -15.5 L8.35 -15.5 7.65 -15.55 M10.55 -19.65 L10.75 -20.35 Q10.75 -21.0 10.6 -20.75 L8.05 -19.95 7.95 -19.9 Q6.85 -19.3 6.85 -18.15 L6.85 -17.3 7.15 -16.75 Q7.35 -16.55 7.75 -16.55 L8.3 -16.55 Q9.25 -16.7 9.8 -17.35 L9.9 -17.5 Q10.35 -18.1 10.35 -18.9 L10.55 -19.65 M7.05 12.35 L7.3 12.5 7.25 14.5 5.4 15.85 4.85 14.5 5.7 13.05 5.85 12.7 5.9 12.55 5.9 12.4 6.8 12.15 7.05 12.35 M-4.4 17.4 L-5.15 16.75 Q-6.6 15.05 -6.45 13.0 L-6.4 12.35 -6.4 11.55 -5.65 10.75 -5.05 11.2 -4.15 11.8 -2.0 12.9 -1.9 12.6 -1.95 12.1 -3.75 10.8 -4.15 10.5 -4.05 9.75 Q-3.7 8.6 -2.7 7.9 L-3.0 9.5 -2.4 10.3 -1.55 10.5 -1.45 10.95 -1.35 11.4 Q-1.1 12.55 -0.25 13.2 L0.0 13.35 0.95 12.5 0.85 13.2 0.8 13.25 1.55 13.2 1.55 13.15 1.65 13.15 1.85 13.15 2.05 13.1 2.4 13.0 2.05 12.65 2.6 10.65 2.6 10.5 3.55 10.15 4.4 10.4 3.85 10.5 Q3.3 10.7 3.05 11.3 L2.95 11.8 3.9 12.75 3.65 14.15 3.7 14.35 Q3.65 14.6 3.3 14.65 2.8 14.9 2.45 15.25 1.55 15.9 1.1 17.05 L-2.75 16.15 -1.85 15.0 -1.5 15.35 -0.8 15.3 -0.8 15.25 -0.65 15.15 Q-0.65 14.7 -0.8 14.5 -0.9 14.05 -1.25 13.75 -1.7 13.4 -2.15 13.15 -3.5 12.5 -4.95 12.8 L-5.15 12.85 -5.45 13.9 -3.1 16.1 -3.9 15.85 -4.3 17.15 -4.4 17.4 M-1.3 2.85 L-1.4 4.0 Q-1.55 4.75 -2.1 5.35 L-2.35 5.5 -2.95 5.6 -3.6 5.65 -4.5 5.25 -5.2 4.55 Q-6.1 3.25 -5.8 2.0 L-5.25 0.75 -3.2 0.65 -2.55 0.9 Q-4.15 0.8 -4.7 2.0 L-4.9 2.55 -4.9 3.1 -4.5 3.5 -2.15 3.85 -1.3 2.85 M0.25 7.65 L0.6 8.75 0.45 10.05 0.3 10.7 -0.35 10.35 -0.3 9.95 -0.1 8.7 -0.15 7.65 -0.2 7.5 -0.25 7.2 0.25 7.65 M-10.0 -26.3 L-9.4 -25.85 -8.3 -25.15 -9.35 -24.1 -9.45 -24.3 -10.1 -25.8 -10.0 -26.3" fill="#990000" fill-rule="evenodd" stroke="none"/>
      <path d="M0.45 -29.15 L-1.35 -29.05 -1.35 -29.45 -2.1 -28.85 -2.8 -29.65 -2.15 -30.4 -1.6 -31.15 -1.15 -32.1 -0.7 -33.0 -1.2 -33.2 -1.45 -34.1 0.75 -36.25 1.95 -36.3 2.15 -35.35 1.35 -34.8 1.9 -34.45 2.25 -33.7 1.3 -33.4 2.4 -32.2 2.3 -31.65 0.25 -30.85 0.65 -30.65 0.65 -29.35 0.45 -29.15 M-1.35 -28.9 L-0.3 -28.5 -0.8 -28.1 0.15 -28.2 1.1 -25.1 1.15 -26.65 1.65 -27.15 2.05 -26.95 2.55 -25.85 2.15 -25.4 3.6 -22.9 3.6 -22.15 4.3 -21.85 5.85 -21.4 5.5 -19.15 5.45 -19.2 4.6 -19.6 3.9 -19.7 3.15 -19.85 Q2.95 -19.9 2.4 -20.25 L2.35 -20.05 0.5 -20.5 Q1.6 -21.4 3.55 -21.5 L1.15 -24.95 -1.5 -25.55 -1.45 -26.9 -2.05 -27.65 -1.4 -28.25 -1.35 -28.9 M6.8 -25.9 L6.5 -25.0 Q6.2 -24.25 6.0 -22.85 L5.65 -23.1 6.05 -23.8 5.45 -26.35 6.65 -28.0 6.8 -27.7 6.9 -27.25 6.5 -26.25 6.8 -25.9 M4.35 -15.1 L5.4 -14.65 5.1 -14.45 5.6 -10.95 5.95 -5.25 6.4 -5.0 6.25 -3.45 5.55 -3.35 4.5 -4.35 4.0 -14.7 4.35 -15.1 M11.5 -22.95 L11.4 -23.55 Q11.4 -24.1 11.7 -24.45 12.05 -24.9 12.85 -25.0 L13.55 -25.0 Q14.25 -24.85 14.25 -23.9 14.25 -23.4 13.75 -23.0 L12.5 -22.0 12.0 -22.3 11.5 -22.95 M10.55 -19.65 L10.35 -18.9 Q10.35 -18.1 9.9 -17.5 L9.8 -17.35 Q9.25 -16.7 8.3 -16.55 L7.75 -16.55 Q7.35 -16.55 7.15 -16.75 L6.85 -17.3 6.85 -18.15 Q6.85 -19.3 7.95 -19.9 L8.05 -19.95 10.6 -20.75 Q10.75 -21.0 10.75 -20.35 L10.55 -19.65 M5.4 15.85 L4.15 21.7 3.45 21.75 3.3 14.65 Q3.65 14.6 3.7 14.35 L3.65 14.15 3.9 12.75 2.95 11.8 3.05 11.3 Q3.3 10.7 3.85 10.5 L4.4 10.4 4.5 10.4 Q5.4 10.55 5.75 11.65 L5.9 12.4 5.9 12.55 5.85 12.7 5.7 13.05 4.85 14.5 5.4 15.85 M1.15 19.2 L0.75 19.6 0.3 19.7 Q-0.7 20.0 -1.4 19.15 L-1.1 17.75 -4.3 17.15 -3.9 15.85 -3.1 16.1 -5.45 13.9 -5.15 12.85 -4.95 12.8 Q-3.5 12.5 -2.15 13.15 -1.7 13.4 -1.25 13.75 -0.9 14.05 -0.8 14.5 -0.65 14.7 -0.65 15.15 L-0.8 15.25 -0.8 15.3 -1.5 15.35 -1.85 15.0 -2.75 16.15 1.1 17.05 1.15 19.2 M0.4 1.85 L0.4 2.05 0.15 2.35 Q-0.4 2.85 -1.3 2.85 L-2.15 3.85 -4.5 3.5 -4.9 3.1 -4.9 2.55 -4.7 2.0 Q-4.15 0.8 -2.55 0.9 L-0.95 0.2 0.15 0.55 0.4 1.85 M0.3 10.7 L0.45 10.8 0.7 11.0 0.95 12.5 0.0 13.35 -0.25 13.2 Q-1.1 12.55 -1.35 11.4 L-1.45 10.95 -1.55 10.5 -2.4 10.3 -3.0 9.5 -2.7 7.9 -2.55 7.8 -2.4 7.6 -2.3 7.5 Q-1.2 6.6 -0.25 7.2 L-0.2 7.5 -0.15 7.65 -0.1 8.7 -0.3 9.95 -0.35 10.35 0.3 10.7 M-9.35 -24.1 L-8.3 -25.15 -9.4 -25.85 -10.0 -26.3 -9.6 -26.7 -3.8 -29.85 -3.3 -29.35 -3.1 -28.95 -2.95 -28.6 -2.9 -28.3 -3.4 -27.75 -3.8 -27.45 -4.35 -27.3 -4.55 -27.15 -4.7 -27.1 -5.65 -27.6 -7.05 -27.2 -6.75 -26.25 -7.35 -25.05 -7.1 -24.15 -10.35 -22.1 -10.1 -22.95 -9.35 -24.1" fill="#ff0000" fill-rule="evenodd" stroke="none"/>
      <path d="M-1.3 -21.0 L-4.7 -21.6 -7.5 -22.05 -7.0 -23.0 -6.6 -24.35 -6.5 -24.55 -6.4 -25.4 -5.35 -25.15 Q-4.95 -25.2 -3.65 -26.2 L-2.6 -27.15 -1.5 -24.05 -2.85 -22.65 -2.05 -21.8 -1.85 -21.6 -1.3 -21.0 M-10.95 -19.25 L-10.5 -19.25 -0.2 -16.7 3.6 -15.45 3.65 -6.55 3.4 -3.9 3.8 -2.7 4.0 1.7 2.55 1.75 0.4 1.85 0.15 0.55 -0.95 0.2 -2.55 0.9 -3.2 0.65 -3.2 0.55 -3.2 0.15 -3.15 -0.35 -3.15 -0.75 -3.2 -1.3 -2.85 -5.6 -2.8 -6.3 -2.7 -6.3 -2.05 -8.25 -1.6 -9.15 -1.8 -9.25 -2.0 -10.1 -3.1 -15.2 -6.2 -10.85 -6.75 -10.1 -7.95 -8.45 -9.95 -8.95 -10.15 -8.95 -10.45 -10.1 -10.7 -11.45 -10.7 -11.55 -10.8 -14.45 -11.0 -17.1 -10.95 -19.25 M8.0 -11.4 L7.85 -10.1 7.45 -7.1 7.0 -3.45 6.9 -1.25 6.85 -0.35 6.8 0.15 6.75 0.7 6.65 1.55 5.1 1.65 5.1 1.5 5.2 0.7 5.25 0.15 5.25 -0.35 5.3 -0.35 5.35 -1.25 5.55 -3.35 6.25 -3.45 6.4 -5.0 8.0 -11.4 M-6.4 11.55 L-6.35 9.7 Q-6.35 7.6 -6.65 5.2 L-6.7 4.6 -6.65 5.05 -6.4 7.2 -6.4 7.3 -6.35 10.5 -6.4 11.55 M-1.95 12.1 L-1.9 12.6 -1.95 12.1 M-2.4 7.6 L-2.55 7.8 -2.6 7.6 -2.4 7.6" fill="#e2b181" fill-rule="evenodd" stroke="none"/>
      <path d="M1.75 10.7 L1.8 9.7 1.85 10.7 1.75 10.7" fill="#f4c398" fill-rule="evenodd" stroke="none"/>
      <path d="M1.4 10.75 L1.35 10.55 1.4 10.75" fill="#ebbb98" fill-rule="evenodd" stroke="none"/>
      <path d="M-6.95 3.15 L-7.4 1.05 -7.45 0.7 -7.6 0.15 -7.65 0.15 -8.05 -1.35 -8.5 -2.9 -9.05 -4.7 -10.15 -8.95 -9.95 -8.95 -8.7 -4.8 -8.2 -2.95 -7.8 -1.3 -7.55 -0.35 -7.45 0.15 -7.3 0.7 -7.25 1.05 -7.0 2.0 -7.15 2.0 -6.95 3.15" fill="#ffcc99" fill-rule="evenodd" stroke="none"/>
      <path d="M10.05 -26.5 L10.35 -27.8 Q10.95 -29.1 12.8 -29.1 14.2 -29.1 14.75 -28.25 L14.9 -27.95 14.95 -27.75 13.35 -28.0 Q12.3 -28.0 11.5 -27.45 L10.05 -26.5 M6.65 1.55 L6.6 2.4 6.6 2.85 6.65 5.2 5.15 5.25 5.1 4.4 5.0 2.35 5.1 1.65 6.65 1.55 M6.7 7.4 L6.75 7.4 6.75 7.6 6.85 9.05 6.9 10.15 6.75 10.15 5.6 10.3 5.4 8.2 5.35 7.6 5.35 7.45 6.7 7.4 M-6.7 4.6 L-6.75 4.4 -6.75 4.35 -6.95 3.15 -7.15 2.0 -7.0 2.0 -6.25 2.0 -5.85 4.4 -5.75 5.15 -6.35 5.1 -6.65 5.05 -6.7 4.6 M-6.35 10.5 L-6.4 7.3 -6.4 7.2 -6.25 7.25 -5.5 7.35 -5.4 7.55 -5.1 10.65 -6.35 10.5" fill="#cecece" fill-rule="evenodd" stroke="none"/>
      <path d="M8.45 -22.0 L8.6 -22.35 8.7 -22.55 8.75 -22.65 8.9 -23.05 9.4 -24.35 10.05 -26.5 11.5 -27.45 Q12.3 -28.0 13.35 -28.0 L14.95 -27.75 15.15 -26.05 Q15.15 -24.35 14.0 -21.1 L12.85 -20.5 11.3 -19.75 Q12.0 -21.05 13.25 -21.6 14.5 -22.2 14.5 -23.15 14.5 -25.25 13.55 -25.0 L12.85 -25.0 Q12.05 -24.9 11.7 -24.45 11.4 -24.1 11.4 -23.55 L11.5 -22.95 Q11.15 -22.15 11.4 -21.3 L8.55 -20.4 8.45 -21.75 8.45 -22.0 M5.0 2.35 L5.1 4.4 5.15 5.25 4.7 5.3 4.15 5.3 1.8 5.3 1.95 4.4 1.95 4.2 2.55 1.75 4.0 1.7 5.0 1.65 5.0 2.35 M1.7 7.6 L2.1 7.6 3.05 7.55 3.7 7.55 4.45 7.5 4.8 7.5 5.35 7.45 5.35 7.6 5.4 8.2 5.6 10.3 4.5 10.4 4.4 10.4 3.55 10.15 2.6 10.5 2.6 10.65 1.85 10.7 1.8 9.7 1.7 7.6 M-2.7 7.9 Q-3.7 8.6 -4.05 9.75 L-4.15 10.5 -3.75 10.8 -5.1 10.65 -5.4 7.55 -5.45 7.35 -4.05 7.5 -2.6 7.6 -2.55 7.8 -2.7 7.9 M-6.25 2.0 L-5.8 2.0 Q-6.1 3.25 -5.2 4.55 L-4.5 5.25 -5.75 5.15 -5.85 4.4 -6.25 2.0" fill="#c0c0c0" fill-rule="evenodd" stroke="none"/>
      <path d="M6.65 5.2 L6.7 7.4 5.35 7.45 5.15 5.25 6.65 5.2 M6.9 10.15 L7.0 11.5 7.05 12.35 6.8 12.15 5.9 12.4 5.75 11.65 5.6 10.3 6.75 10.15 6.9 10.15 M-5.05 11.2 L-5.65 10.75 -6.4 11.55 -6.35 10.5 -5.1 10.65 -5.05 11.2 M-6.4 7.2 L-6.65 5.05 -6.35 5.1 -5.75 5.15 -5.45 7.35 -5.5 7.35 -6.25 7.25 -6.4 7.2" fill="#be6161" fill-rule="evenodd" stroke="none"/>
      <path d="M9.0 -13.8 L8.9 -13.95 8.6 -14.3 8.55 -14.4 7.9 -15.25 7.65 -15.55 8.35 -15.5 8.45 -15.5 Q9.6 -15.55 10.25 -16.6 L10.45 -17.1 10.95 -18.8 11.0 -19.15 11.3 -19.75 12.85 -20.5 14.0 -21.1 13.0 -18.6 Q10.8 -13.5 9.85 -13.65 L9.0 -13.8 M7.75 -20.05 L7.8 -20.2 8.45 -22.0 8.45 -21.75 8.55 -20.4 8.05 -20.2 7.75 -20.05 M2.55 1.75 L1.95 4.2 1.95 4.4 1.8 5.3 1.6 5.3 1.55 5.3 -2.1 5.35 Q-1.55 4.75 -1.4 4.0 L-1.3 2.85 Q-0.4 2.85 0.15 2.35 L0.4 2.05 0.4 1.85 2.55 1.75 M0.25 7.65 L1.7 7.6 1.8 9.7 1.75 10.7 1.65 10.7 1.4 10.75 0.45 10.8 0.3 10.7 0.45 10.05 0.6 8.75 0.25 7.65 M1.4 10.75 L1.35 10.55 1.4 10.75" fill="#b4b4b4" fill-rule="evenodd" stroke="none"/>
      <path d="M1.8 5.3 L4.15 5.3 4.7 5.3 5.15 5.25 5.35 7.45 4.8 7.5 4.45 7.5 3.7 7.55 3.05 7.55 2.1 7.6 1.7 7.6 1.55 5.3 1.6 5.3 1.8 5.3 M1.85 10.7 L2.6 10.65 2.05 12.65 2.4 13.0 2.05 13.1 1.85 10.7 M4.5 10.4 L5.6 10.3 5.75 11.65 Q5.4 10.55 4.5 10.4 M-3.75 10.8 L-1.95 12.1 -1.9 12.6 -2.0 12.9 -4.15 11.8 -5.05 11.2 -5.1 10.65 -3.75 10.8 M-4.5 5.25 L-3.6 5.65 -2.95 5.6 -2.6 7.6 -4.05 7.5 -5.45 7.35 -5.75 5.15 -4.5 5.25" fill="#ad3939" fill-rule="evenodd" stroke="none"/>
      <path d="M-2.1 5.35 L1.55 5.3 1.7 7.6 0.25 7.65 -0.25 7.2 Q-1.2 6.6 -2.3 7.5 L-2.4 7.6 -2.6 7.6 -2.95 5.6 -2.35 5.5 -2.1 5.35 M0.45 10.8 L1.4 10.75 1.65 10.7 1.75 10.7 1.85 10.7 2.05 13.1 1.85 13.15 1.65 13.15 1.55 13.15 1.55 13.2 0.8 13.25 0.85 13.2 0.95 12.5 0.7 11.0 0.45 10.8" fill="#8f2d2d" fill-rule="evenodd" stroke="none"/>
      <path d="M5.3 -30.65 L5.7 -30.8 8.1 -31.5 9.45 -31.35 Q14.9 -30.1 14.9 -28.3 L14.9 -27.95 14.75 -28.25 Q14.2 -29.1 12.8 -29.1 10.95 -29.1 10.35 -27.8 L10.05 -26.5 9.4 -24.35 8.9 -23.05 8.75 -22.65 8.7 -22.55 8.6 -22.35 8.45 -22.0 7.8 -20.2 7.75 -20.05 7.45 -19.9 7.05 -19.65 6.65 -19.05 Q6.4 -18.4 6.4 -17.25 6.35 -16.75 6.6 -16.35 L6.9 -15.95 Q7.2 -15.7 7.65 -15.55 L7.9 -15.25 8.55 -14.4 8.6 -14.3 8.9 -13.95 9.0 -13.8 8.65 -12.25 8.65 -12.35 8.4 -12.6 6.45 -14.1 5.4 -14.65 4.35 -15.1 3.6 -15.45 -0.2 -16.7 -10.5 -19.25 -10.95 -19.25 -10.95 -20.4 -10.9 -20.55 -10.95 -20.6 -11.35 -21.85 -10.8 -21.95 -8.2 -22.1 -7.5 -22.05 -4.7 -21.6 -1.3 -21.0 -0.75 -20.85 0.5 -20.5 2.35 -20.05 2.5 -20.0 4.0 -19.1 4.15 -18.95 5.25 -18.1 5.5 -19.15 5.85 -21.4 5.85 -21.65 6.0 -22.85 Q6.2 -24.25 6.5 -25.0 L6.8 -25.9 7.4 -27.6 6.65 -28.05 6.6 -28.05 5.7 -28.25 5.1 -28.25 3.15 -28.25 1.9 -28.25 -0.3 -28.5 -1.35 -28.9 -1.35 -29.05 0.45 -29.15 0.75 -29.2 2.1 -29.55 3.0 -29.85 5.3 -30.65" fill="#333333" fill-rule="evenodd" stroke="none"/>
    </g>
  </defs>
</svg>
