<?xml version="1.0" encoding="UTF-8" standalone="no"?>
<svg xmlns:ffdec="https://www.free-decompiler.com/flash" xmlns:xlink="http://www.w3.org/1999/xlink" ffdec:objectType="frame" height="109.75px" width="55.25px" xmlns="http://www.w3.org/2000/svg">
  <g transform="matrix(1.0, 0.0, 0.0, 1.0, 25.6, 57.8)">
    <use ffdec:characterId="1617" height="81.9" transform="matrix(1.0, 0.0, 0.0, 1.0, -19.7, -29.95)" width="36.85" xlink:href="#shape0"/>
    <use ffdec:characterId="1081" height="100.0" id="shape" transform="matrix(0.2995, 0.0, 0.0, 0.55, -14.9773, -27.4994)" width="100.0" xlink:href="#sprite0"/>
    <use ffdec:characterId="1138" height="0.0" id="spineRef" transform="matrix(1.0, 0.0, 0.0, 1.0, 5.05, -33.2)" width="0.0" xlink:href="#sprite1"/>
  </g>
  <defs>
    <g id="shape0" transform="matrix(1.0, 0.0, 0.0, 1.0, 19.7, 29.95)">
      <path d="M-14.95 4.8 L-14.6 3.7 Q-14.0 1.65 -14.0 -0.75 L-14.5 -8.85 Q-14.5 -14.95 -13.3 -18.5 -11.6 -21.7 -9.3 -23.3 L-6.85 -24.55 -4.6 -25.25 -3.3 -25.5 Q0.4 -26.1 2.6 -25.1 L3.0 -24.9 Q3.65 -24.8 4.8 -23.7 L5.8 -22.75 7.35 -21.1 Q8.35 -19.85 8.65 -18.2 L9.2 -15.45 9.65 -13.9 Q10.05 -12.65 10.75 -11.15 L11.2 -10.15 12.35 -7.2 Q12.8 -5.7 13.65 -8.4 13.8 -2.8 14.0 -1.25 L15.1 5.1 15.0 8.35 14.75 11.8 14.8 11.95 14.8 12.7 14.65 14.0 14.5 14.25 14.15 14.6 14.05 14.65 13.6 14.45 11.25 13.65 Q10.55 13.35 10.1 11.9 L9.85 10.5 10.4 8.9 Q11.4 5.85 11.4 4.2 L11.9 0.9 Q11.9 -0.25 11.5 -1.2 L11.35 -1.2 Q10.85 1.75 8.15 6.65 L8.0 1.9 8.05 0.8 9.65 -4.95 10.15 -6.8 Q10.15 -7.75 8.9 -9.8 L8.4 -10.6 7.2 -12.2 7.15 -12.7 Q6.8 -16.8 2.95 -16.55 -0.9 -16.35 -2.2 -15.7 L-4.15 -15.55 Q-4.75 -16.1 -9.75 -15.6 L-10.0 -15.6 -10.4 -16.5 -10.45 -16.75 -11.25 -14.45 Q-12.0 -11.75 -12.2 -8.8 L-12.25 -7.85 Q-12.3 -5.65 -11.8 -4.4 L-11.75 -4.3 -11.5 -0.25 Q-11.5 2.95 -12.4 4.3 L-8.05 -2.15 -8.0 -1.75 Q-10.2 7.05 -10.45 10.6 L-10.75 10.75 -13.65 13.2 -14.1 12.85 -14.75 12.1 -14.95 4.8 M-8.15 22.85 L-10.1 24.35 Q-12.45 26.7 -13.6 31.1 L-14.8 36.95 -16.0 41.75 -17.25 42.15 -17.65 42.5 -17.45 41.0 -17.4 40.75 -16.65 34.95 Q-16.45 32.5 -15.85 30.3 L-14.4 27.9 -11.65 24.35 -10.55 22.9 -8.15 22.85 M-15.45 41.75 Q-13.7 39.5 -12.75 37.65 L-12.5 37.65 -13.35 41.95 -13.45 41.9 -15.45 41.75 M9.65 31.9 L9.75 31.1 10.25 27.65 Q10.25 26.0 9.25 24.45 L9.2 24.35 8.0 22.85 11.5 23.05 11.75 23.05 12.15 23.0 12.7 23.0 12.5 24.35 12.5 24.4 12.8 25.25 Q11.5 26.85 11.25 28.7 11.0 30.15 9.65 31.9" fill="#4ec262" fill-rule="evenodd" stroke="none"/>
      <path d="M-6.5 -27.45 L-7.25 -27.2 -8.6 -26.65 Q-8.5 -28.35 -6.5 -29.15 -4.65 -29.95 -1.1 -29.95 L0.25 -29.85 Q3.6 -29.35 8.15 -26.4 L9.3 -25.6 10.05 -25.1 Q13.7 -22.4 13.9 -20.5 L14.9 -15.25 Q12.7 -20.55 10.1 -23.5 L8.45 -25.1 Q4.2 -28.7 -1.95 -28.7 -3.75 -28.7 -5.6 -27.85 L-6.5 -27.45 M-16.0 41.75 L-15.45 41.75 -13.45 41.9 -13.35 41.95 -9.85 42.5 -11.45 43.75 -12.5 43.5 -13.6 43.25 Q-14.15 43.25 -15.2 44.05 -14.4 44.45 -14.4 44.95 -14.4 45.6 -14.5 45.5 -14.6 45.7 -15.0 45.75 -15.15 45.5 -15.45 45.5 L-16.6 45.35 -16.85 45.55 Q-19.3 48.05 -18.6 49.5 L-19.65 50.35 -19.7 50.2 -19.7 48.9 Q-19.7 47.75 -19.25 47.1 -18.65 46.25 -18.35 44.4 -18.45 43.35 -17.65 42.5 L-17.25 42.15 -16.0 41.75 M-6.95 42.4 L-4.8 42.2 -4.8 43.55 -7.95 43.85 -6.95 42.4 M12.7 23.0 Q12.85 22.6 13.15 22.8 L13.55 23.2 14.3 24.3 14.4 24.35 Q14.75 24.7 14.75 26.2 14.75 29.0 13.3 32.15 L13.0 30.85 12.0 31.4 Q11.15 31.9 10.9 32.75 L10.9 32.0 Q10.9 31.6 11.9 30.4 L13.0 29.15 13.3 28.3 13.65 26.4 13.2 24.35 13.15 24.25 12.7 23.0" fill="#fff9d4" fill-rule="evenodd" stroke="none"/>
      <path d="M14.5 14.25 L14.65 14.0 14.8 12.7 14.8 11.95 14.75 11.8 15.0 8.35 15.1 5.1 15.35 -1.55 Q15.4 3.25 15.4 -1.2 15.4 -11.0 13.8 -15.8 12.75 -19.0 11.0 -21.3 9.95 -23.4 8.8 -24.15 8.2 -24.6 7.6 -24.65 L6.95 -25.1 5.1 -26.1 Q1.95 -27.55 -2.15 -27.75 L-6.5 -27.45 -5.6 -27.85 Q-3.75 -28.7 -1.95 -28.7 4.2 -28.7 8.45 -25.1 L10.1 -23.5 Q12.7 -20.55 14.9 -15.25 L15.8 -11.25 Q17.15 -5.2 17.15 -0.85 L16.8 3.8 16.4 9.65 Q16.4 12.4 14.5 14.25 M-9.85 42.5 L-9.35 42.55 -6.95 42.4 -7.95 43.85 -4.8 43.55 -4.8 42.2 -2.7 42.05 Q-1.25 42.05 -0.5 42.65 L-0.2 42.45 Q0.7 41.9 1.15 42.05 L1.2 41.95 2.2 40.8 2.1 40.35 Q2.1 38.4 3.95 37.65 L5.0 37.4 6.1 36.0 Q6.15 34.7 7.45 33.95 L8.5 33.25 9.4 32.15 9.65 31.9 Q11.0 30.15 11.25 28.7 11.5 26.85 12.8 25.25 L12.5 24.4 12.5 24.35 12.7 23.0 13.15 24.25 13.2 24.35 13.65 26.4 13.3 28.3 13.0 29.15 11.9 30.4 Q10.9 31.6 10.9 32.0 L10.9 32.75 Q11.15 31.9 12.0 31.4 L13.0 30.85 13.3 32.15 13.1 32.55 Q11.45 35.85 9.1 37.5 L8.55 37.0 Q7.4 37.0 4.8 39.7 4.5 39.55 3.9 39.7 2.5 40.05 2.5 40.95 L2.55 41.8 2.7 42.05 Q0.55 44.5 -0.1 45.75 -1.15 45.15 -2.85 46.5 L-3.3 45.75 Q-3.75 45.25 -4.2 45.25 -5.05 45.25 -6.25 46.6 L-6.7 46.5 -7.15 45.85 Q-7.7 45.25 -8.85 45.25 -10.05 45.25 -11.25 46.15 L-12.35 46.9 -12.25 47.2 Q-12.25 48.2 -12.45 48.5 -12.9 49.15 -14.5 49.0 L-14.7 48.8 -14.75 48.25 -14.5 47.85 -14.0 47.8 -14.55 47.5 Q-15.35 47.75 -15.8 48.1 -16.85 48.95 -16.85 50.9 L-16.8 51.5 -17.6 51.5 Q-19.2 51.5 -19.65 50.35 L-18.6 49.5 Q-19.3 48.05 -16.85 45.55 L-16.6 45.35 -15.45 45.5 Q-15.15 45.5 -15.0 45.75 -14.6 45.7 -14.5 45.5 -14.4 45.6 -14.4 44.95 -14.4 44.45 -15.2 44.05 -14.15 43.25 -13.6 43.25 L-12.5 43.5 -11.45 43.75 -9.85 42.5 M-8.1 47.5 L-7.25 47.6 -7.2 47.7 -9.35 49.75 -9.35 48.0 Q-8.85 47.5 -8.1 47.5" fill="#cec9ab" fill-rule="evenodd" stroke="none"/>
      <path d="M15.1 5.1 L14.0 -1.25 Q13.8 -2.8 13.65 -8.4 12.8 -5.7 12.35 -7.2 L11.2 -10.15 10.75 -11.15 Q10.05 -12.65 9.65 -13.9 L9.2 -15.45 8.65 -18.2 Q8.35 -19.85 7.35 -21.1 L5.8 -22.75 4.8 -23.7 Q3.65 -24.8 3.0 -24.9 L2.6 -25.1 Q0.4 -26.1 -3.3 -25.5 L-4.6 -25.25 -6.85 -24.55 -9.3 -23.3 Q-11.6 -21.7 -13.3 -18.5 -14.5 -14.95 -14.5 -8.85 L-14.0 -0.75 Q-14.0 1.65 -14.6 3.7 L-14.95 4.8 -15.25 -0.05 Q-15.75 -5.15 -15.75 -8.65 -15.75 -11.85 -15.4 -14.5 -14.95 -17.75 -14.0 -20.15 -12.8 -23.25 -10.8 -25.1 L-9.35 -26.25 -8.6 -26.65 -7.25 -27.2 -6.5 -27.45 -2.15 -27.75 Q1.95 -27.55 5.1 -26.1 L6.95 -25.1 7.6 -24.65 Q8.2 -24.6 8.8 -24.15 9.95 -23.4 11.0 -21.3 12.75 -19.0 13.8 -15.8 15.4 -11.0 15.4 -1.2 15.4 3.25 15.35 -1.55 L15.1 5.1 M-11.15 22.9 L-10.55 22.9 -11.65 24.35 -14.4 27.9 -15.85 30.3 -14.85 27.5 -13.6 24.35 -13.05 22.9 -11.15 22.9" fill="#90dd79" fill-rule="evenodd" stroke="none"/>
      <path d="M-14.75 12.1 L-14.1 12.85 -13.65 13.2 -10.75 10.75 -10.45 10.6 Q-10.2 7.05 -8.0 -1.75 L-8.05 -2.15 -12.4 4.3 Q-11.5 2.95 -11.5 -0.25 L-11.75 -4.3 -11.8 -4.4 Q-12.3 -5.65 -12.25 -7.85 L-12.2 -8.8 Q-12.0 -11.75 -11.25 -14.45 L-10.45 -16.75 -10.4 -16.5 -10.0 -15.6 -9.75 -15.6 Q-4.75 -16.1 -4.15 -15.55 L-2.2 -15.7 Q-0.9 -16.35 2.95 -16.55 6.8 -16.8 7.15 -12.7 L7.2 -12.2 8.4 -10.6 8.9 -9.8 Q10.15 -7.75 10.15 -6.8 L9.65 -4.95 8.05 0.8 8.0 1.9 8.15 6.65 Q10.85 1.75 11.35 -1.2 L11.5 -1.2 Q11.9 -0.25 11.9 0.9 L11.4 4.2 Q11.4 5.85 10.4 8.9 L9.85 10.5 10.1 11.9 Q10.55 13.35 11.25 13.65 L13.6 14.45 14.05 14.65 13.7 14.8 13.7 14.95 13.7 15.0 13.65 14.95 13.55 14.9 13.35 15.0 10.35 15.0 6.5 14.65 Q-6.8 14.05 -8.95 14.65 L-9.8 14.85 -13.55 15.1 Q-14.8 14.85 -14.75 14.15 L-14.75 12.1 M-8.15 22.85 L-3.75 22.75 -1.05 22.5 1.75 22.3 6.9 22.7 8.0 22.85 9.2 24.35 9.25 24.45 Q10.25 26.0 10.25 27.65 L9.75 31.1 9.65 31.9 9.4 32.15 8.5 33.25 7.45 33.95 Q6.15 34.7 6.1 36.0 L5.0 37.4 3.95 37.65 Q2.1 38.4 2.1 40.35 L2.2 40.8 1.2 41.95 1.15 42.05 Q0.7 41.9 -0.2 42.45 L-0.5 42.65 Q-1.25 42.05 -2.7 42.05 L-4.8 42.2 -6.95 42.4 -9.35 42.55 -9.85 42.5 -13.35 41.95 -12.5 37.65 -12.75 37.65 Q-13.7 39.5 -15.45 41.75 L-16.0 41.75 -14.8 36.95 -13.6 31.1 Q-12.45 26.7 -10.1 24.35 L-8.15 22.85" fill="#3e9f4c" fill-rule="evenodd" stroke="none"/>
      <path d="M8.0 22.85 L6.9 22.7 1.75 22.3 -1.05 22.5 -3.75 22.75 -8.15 22.85 -10.55 22.9 -11.15 22.9 -11.25 19.25 Q-11.35 17.15 -12.35 16.35 -12.85 16.0 -13.55 15.9 L-13.55 15.1 -9.8 14.85 -8.95 14.65 Q-6.8 14.05 6.5 14.65 L10.35 15.0 13.35 15.0 13.55 14.9 13.65 14.95 13.7 15.0 13.7 15.3 Q12.85 15.65 12.3 16.35 11.4 17.5 11.4 19.6 L11.5 23.05 8.0 22.85" fill="#222222" fill-rule="evenodd" stroke="none"/>
      <path d="M11.5 23.05 L11.4 19.6 Q11.4 17.5 12.3 16.35 12.85 15.65 13.7 15.3 L13.7 15.65 13.75 16.35 13.6 18.75 13.45 22.0 13.15 22.8 Q12.85 22.6 12.7 23.0 L12.15 23.0 11.75 23.05 11.5 23.05 M-13.55 15.9 Q-12.85 16.0 -12.35 16.35 -11.35 17.15 -11.25 19.25 L-11.15 22.9 -13.05 22.9 Q-13.5 22.0 -13.55 21.15 -13.4 19.8 -13.65 17.95 L-13.55 18.6 -13.55 15.9" fill="#333333" fill-rule="evenodd" stroke="none"/>
      <path d="M9.1 37.5 L8.25 38.0 Q7.0 38.7 5.3 40.75 L5.2 41.0 5.0 41.65 4.6 42.2 3.9 42.8 3.8 42.8 3.2 43.65 2.45 44.8 0.8 47.35 0.75 47.4 0.25 49.65 Q-0.4 51.55 -1.85 51.55 L-3.15 51.35 -3.85 51.4 -6.3 51.05 -6.4 51.05 Q-8.15 51.95 -9.1 51.95 -12.25 51.95 -13.35 51.3 L-16.8 51.5 -16.85 50.9 Q-16.85 48.95 -15.8 48.1 -15.35 47.75 -14.55 47.5 L-14.0 47.8 -14.5 47.85 -14.75 48.25 -14.7 48.8 -14.5 49.0 Q-12.9 49.15 -12.45 48.5 -12.25 48.2 -12.25 47.2 L-12.35 46.9 -11.25 46.15 Q-10.05 45.25 -8.85 45.25 -7.7 45.25 -7.15 45.85 L-6.7 46.5 -6.25 46.6 Q-5.05 45.25 -4.2 45.25 -3.75 45.25 -3.3 45.75 L-2.85 46.5 Q-1.15 45.15 -0.1 45.75 0.55 44.5 2.7 42.05 L2.55 41.8 2.5 40.95 Q2.5 40.05 3.9 39.7 4.5 39.55 4.8 39.7 7.4 37.0 8.55 37.0 L9.1 37.5 M-8.1 47.5 Q-8.85 47.5 -9.35 48.0 L-9.35 49.75 -7.2 47.7 -7.25 47.6 -8.1 47.5" fill="#9c9982" fill-rule="evenodd" stroke="none"/>
    </g>
    <g id="sprite0" transform="matrix(1.0, 0.0, 0.0, 1.0, 50.0, 50.0)">
      <use ffdec:characterId="1080" height="100.0" transform="matrix(1.0, 0.0, 0.0, 1.0, -50.0, -50.0)" width="100.0" xlink:href="#shape1"/>
    </g>
    <g id="shape1" transform="matrix(1.0, 0.0, 0.0, 1.0, 50.0, 50.0)">
      <path d="M50.0 50.0 L-50.0 50.0 -50.0 -50.0 50.0 -50.0 50.0 50.0 Z" fill="none" stroke="#9900ff" stroke-linecap="round" stroke-linejoin="round" stroke-width="0.05"/>
    </g>
  </defs>
</svg>
