<?xml version="1.0" encoding="UTF-8" standalone="no"?>
<svg xmlns:ffdec="https://www.free-decompiler.com/flash" xmlns:xlink="http://www.w3.org/1999/xlink" ffdec:objectType="frame" height="109.75px" width="55.25px" xmlns="http://www.w3.org/2000/svg">
  <g transform="matrix(1.0, 0.0, 0.0, 1.0, 25.6, 57.8)">
    <use ffdec:characterId="1619" height="26.35" id="neck" transform="matrix(1.0, 0.0, 0.0, 1.0, -8.3, -38.6)" width="22.7" xlink:href="#sprite0"/>
    <use ffdec:characterId="1622" height="62.85" transform="matrix(1.0, 0.0, 0.0, 1.0, -17.25, -29.95)" width="34.75" xlink:href="#shape1"/>
    <use ffdec:characterId="1081" height="100.0" id="shape" transform="matrix(0.2995, 0.0, 0.0, 0.55, -14.9773, -27.4994)" width="100.0" xlink:href="#sprite1"/>
    <use ffdec:characterId="1138" height="0.0" id="spineRef" transform="matrix(1.0, 0.0, 0.0, 1.0, 5.05, -33.2)" width="0.0" xlink:href="#sprite2"/>
  </g>
  <defs>
    <g id="sprite0" transform="matrix(1.0, 0.0, 0.0, 1.0, 11.4, 14.7)">
      <use ffdec:characterId="1618" height="26.35" transform="matrix(1.0, 0.0, 0.0, 1.0, -11.4, -14.7)" width="22.7" xlink:href="#shape0"/>
    </g>
    <g id="shape0" transform="matrix(1.0, 0.0, 0.0, 1.0, 11.4, 14.7)">
      <path d="M-0.15 -14.7 L0.3 -14.6 0.9 -13.4 Q0.6 -12.9 0.1 -13.1 L-0.45 -13.25 -0.8 -14.1 -0.15 -14.7 M0.95 -12.9 L1.45 -13.45 1.9 -13.5 2.45 -13.35 3.0 -10.75 3.95 -9.85 4.95 -9.2 5.05 -9.2 6.2 -8.9 7.9 -8.25 Q9.3 -7.55 10.45 -6.45 L11.25 -5.75 11.3 -4.75 10.9 -4.2 10.7 -2.65 10.1 -2.25 8.7 -1.75 8.3 -1.75 7.3 -1.1 6.75 -1.45 5.25 -0.25 3.7 -1.15 4.85 -3.05 4.4 -3.05 2.35 -5.45 1.4 -5.65 0.85 -5.55 -0.7 -6.45 -0.65 -6.5 0.05 -6.95 0.55 -6.8 4.35 -5.0 6.05 -4.2 6.9 -3.7 7.85 -3.4 7.7 -4.65 7.95 -4.95 7.85 -5.6 8.45 -6.1 8.95 -6.6 8.85 -6.9 8.65 -7.2 8.4 -7.5 6.95 -7.95 6.2 -7.25 5.0 -7.4 4.4 -8.2 3.1 -9.15 2.65 -9.4 1.7 -9.85 1.8 -11.2 0.75 -11.75 0.95 -12.9 M-8.4 -5.75 Q-8.1 -8.45 -6.25 -10.55 -6.8 -11.6 -6.35 -12.8 L-5.85 -13.0 -5.1 -12.8 -1.85 -12.65 -1.05 -11.65 -1.8 -11.3 -1.95 -10.8 -2.75 -10.4 -2.6 -9.45 -2.25 -9.2 -2.1 -8.65 -2.5 -7.9 -3.55 -7.5 -3.15 -7.1 -3.25 -5.95 -3.65 -5.8 -4.1 -5.95 -5.3 -8.45 -6.0 -8.0 -5.95 -7.45 Q-5.95 -4.45 -8.4 -5.75 M0.0 -10.35 L-0.2 -10.45 -0.15 -10.5 0.0 -10.35 M-1.25 -7.75 L-0.95 -7.95 Q0.05 -8.85 0.2 -10.15 L0.9 -9.7 1.25 -8.65 1.05 -8.0 Q0.55 -7.75 0.05 -7.55 L-0.45 -7.35 -1.25 -7.75 M6.7 2.85 L5.2 1.65 4.15 0.65 4.65 0.2 5.4 0.0 6.5 1.45 6.75 2.55 6.7 2.85 M-3.6 -5.0 L-2.9 -5.45 -2.0 -5.35 -1.0 -4.0 -0.7 -2.9 -1.55 -1.45 -2.3 -1.45 -3.55 -1.7 -3.85 -2.3 Q-4.4 -3.7 -3.6 -5.0" fill="#ff0000" fill-rule="evenodd" stroke="none"/>
      <path d="M0.9 -13.4 L0.95 -12.9 0.75 -11.75 0.55 -11.6 -0.1 -11.3 -1.05 -11.65 -1.85 -12.65 -1.85 -13.9 -0.15 -14.7 -0.8 -14.1 -0.45 -13.25 0.1 -13.1 Q0.6 -12.9 0.9 -13.4 M0.0 -10.35 L0.2 -10.15 Q0.05 -8.85 -0.95 -7.95 L-1.25 -7.75 -1.6 -8.0 -2.1 -8.65 -2.25 -9.2 Q-2.5 -10.3 -1.5 -10.6 L-0.2 -10.45 0.0 -10.35" fill="#ffffff" fill-rule="evenodd" stroke="none"/>
      <path d="M8.7 -1.75 L9.05 -0.75 8.5 0.0 8.15 0.7 Q7.85 1.2 7.1 1.35 L6.5 1.45 5.4 0.0 4.65 0.2 4.15 0.65 5.2 1.65 6.7 2.85 6.8 3.8 6.45 4.35 4.85 4.55 Q4.25 2.9 2.8 1.7 L3.0 -1.15 2.65 -1.85 1.75 -3.4 0.3 -3.2 0.3 -2.7 0.0 -0.95 -1.15 -0.25 -1.95 -0.4 -3.55 -1.7 -2.3 -1.45 -1.55 -1.45 -0.7 -2.9 -1.0 -4.0 -2.0 -5.35 -2.9 -5.45 -3.6 -5.0 -3.65 -5.8 -3.25 -5.95 -3.15 -7.1 -3.55 -7.5 -2.5 -7.9 -2.1 -8.65 -1.6 -8.0 -1.25 -7.75 -0.45 -7.35 0.05 -7.55 0.55 -6.8 0.05 -6.95 -0.65 -6.5 -0.7 -6.45 0.85 -5.55 1.4 -5.65 2.35 -5.45 4.4 -3.05 4.85 -3.05 3.7 -1.15 5.25 -0.25 6.75 -1.45 7.3 -1.1 8.3 -1.75 8.7 -1.75 M0.75 -11.75 L1.8 -11.2 1.7 -9.85 2.65 -9.4 3.1 -9.15 4.4 -8.2 5.0 -7.4 6.2 -7.25 6.95 -7.95 8.4 -7.5 8.65 -7.2 8.85 -6.9 8.95 -6.6 8.45 -6.1 7.85 -5.6 7.95 -4.95 7.7 -4.65 7.85 -3.4 6.9 -3.7 6.05 -4.2 4.35 -5.0 4.6 -5.45 Q4.0 -7.1 2.45 -8.45 L1.25 -8.65 0.9 -9.7 0.2 -10.15 0.0 -10.35 -0.15 -10.5 -0.2 -10.45 -1.5 -10.6 Q-2.5 -10.3 -2.25 -9.2 L-2.6 -9.45 -2.75 -10.4 -1.95 -10.8 -1.8 -11.3 -1.05 -11.65 -0.1 -11.3 0.55 -11.6 0.75 -11.75" fill="#990000" fill-rule="evenodd" stroke="none"/>
      <path d="M4.35 -5.0 L0.55 -6.8 0.05 -7.55 Q0.55 -7.75 1.05 -8.0 L1.25 -8.65 2.45 -8.45 Q4.0 -7.1 4.6 -5.45 L4.35 -5.0" fill="#650101" fill-rule="evenodd" stroke="none"/>
      <path d="M8.15 0.7 L7.2 2.9 7.2 5.6 7.35 6.15 7.05 5.65 6.45 4.35 6.8 3.8 6.7 2.85 6.75 2.55 6.5 1.45 7.1 1.35 Q7.85 1.2 8.15 0.7 M4.75 7.1 Q1.3 5.4 -0.1 5.1 L-0.55 5.0 Q-0.35 2.8 -1.95 -0.4 L-1.15 -0.25 1.6 2.5 3.1 4.35 4.75 7.1 M0.3 -2.7 L0.3 -3.2 1.75 -3.4 2.65 -1.85 0.3 -2.7" fill="#e2b181" fill-rule="evenodd" stroke="none"/>
      <path d="M7.2 2.9 L8.15 4.95 8.2 5.05 10.25 11.65 7.65 9.05 4.75 7.1 3.1 4.35 1.6 2.5 -1.15 -0.25 0.0 -0.95 0.3 -2.7 2.65 -1.85 3.0 -1.15 2.8 1.7 Q4.25 2.9 4.85 4.55 L6.45 4.35 7.05 5.65 7.35 6.15 7.2 5.6 7.2 2.9 M-0.55 5.0 L-3.7 4.5 Q-6.25 4.3 -8.7 4.45 L-11.05 4.55 -11.4 4.8 -10.85 1.3 -9.9 -2.0 -8.5 -5.55 -8.4 -5.75 Q-5.95 -4.45 -5.95 -7.45 L-6.0 -8.0 -5.3 -8.45 -4.1 -5.95 -3.65 -5.8 -3.6 -5.0 Q-4.4 -3.7 -3.85 -2.3 L-3.55 -1.7 -1.95 -0.4 Q-0.35 2.8 -0.55 5.0" fill="#ffcc99" fill-rule="evenodd" stroke="none"/>
    </g>
    <g id="shape1" transform="matrix(1.0, 0.0, 0.0, 1.0, 17.25, 29.95)">
      <path d="M-14.95 4.8 L-15.25 -0.05 Q-15.75 -5.15 -15.75 -8.65 -15.75 -11.85 -15.4 -14.5 -14.95 -17.75 -14.0 -20.15 -12.8 -23.25 -10.8 -25.1 L-9.35 -26.25 -8.6 -26.65 -7.25 -27.2 -6.5 -27.45 -2.15 -27.75 Q1.95 -27.55 5.1 -26.1 L6.95 -25.1 7.6 -24.65 Q8.2 -24.6 8.8 -24.15 9.95 -23.4 11.0 -21.3 12.75 -19.0 13.8 -15.8 15.4 -11.0 15.4 -1.2 15.4 3.25 15.35 -1.55 L15.1 4.6 15.1 5.1 14.85 3.8 Q14.35 1.5 14.0 -1.25 13.8 -2.8 13.65 -8.4 12.8 -5.7 12.35 -7.2 L11.2 -10.15 10.75 -11.15 Q10.05 -12.65 9.65 -13.9 L9.2 -15.45 8.65 -18.2 Q8.35 -19.85 7.35 -21.1 L5.8 -22.75 4.8 -23.7 Q3.65 -24.8 3.0 -24.9 L2.6 -25.1 Q0.4 -26.1 -3.3 -25.5 L-4.6 -25.25 -6.85 -24.55 -9.3 -23.3 Q-11.6 -21.7 -13.3 -18.5 -14.5 -14.95 -14.5 -8.85 L-14.0 -0.75 Q-14.0 1.65 -14.6 3.7 L-14.95 4.8" fill="#90dd79" fill-rule="evenodd" stroke="none"/>
      <path d="M-14.95 4.8 L-14.6 3.7 Q-14.0 1.65 -14.0 -0.75 L-14.5 -8.85 Q-14.5 -14.95 -13.3 -18.5 -11.6 -21.7 -9.3 -23.3 L-6.85 -24.55 -4.6 -25.25 -3.3 -25.5 Q0.4 -26.1 2.6 -25.1 L3.0 -24.9 Q3.65 -24.8 4.8 -23.7 L5.8 -22.75 7.35 -21.1 Q8.35 -19.85 8.65 -18.2 L9.2 -15.45 9.65 -13.9 Q10.05 -12.65 10.75 -11.15 L11.2 -10.15 12.35 -7.2 Q12.8 -5.7 13.65 -8.4 13.8 -2.8 14.0 -1.25 14.35 1.5 14.85 3.8 L15.1 5.1 15.1 4.6 15.65 6.25 16.45 8.6 17.5 11.0 17.25 11.0 16.4 10.15 15.6 9.35 15.0 8.75 Q14.35 8.0 14.25 7.5 L14.25 8.35 16.45 16.9 14.9 15.2 14.0 13.85 13.4 12.05 13.6 11.35 12.1 8.0 12.25 7.7 Q12.65 6.85 13.5 6.25 L13.5 4.35 Q14.15 3.95 14.15 3.2 14.15 2.05 13.4 1.5 13.1 0.7 12.15 0.65 L11.9 0.65 11.5 -1.2 11.35 -1.2 10.65 1.35 10.3 2.25 9.75 3.6 Q9.1 3.25 8.75 3.25 L8.05 3.35 8.0 1.9 8.05 0.8 9.65 -4.95 10.15 -6.8 Q10.15 -7.75 8.9 -9.8 L8.4 -10.6 7.2 -12.2 7.15 -12.7 Q6.8 -16.8 2.95 -16.55 -0.9 -16.35 -2.2 -15.7 L-4.15 -15.55 Q-4.75 -16.1 -9.75 -15.6 L-10.0 -15.6 -10.4 -16.5 -10.45 -16.75 -11.25 -14.45 Q-12.0 -11.75 -12.2 -8.8 L-12.25 -7.85 Q-12.3 -5.65 -11.8 -4.4 L-11.75 -4.3 -11.5 -0.25 Q-11.5 2.1 -11.95 3.45 L-12.5 3.25 -12.3 4.2 -12.4 4.3 -12.3 4.2 -12.25 4.5 Q-12.25 5.7 -12.9 6.5 L-13.9 7.9 Q-14.15 9.1 -14.75 10.25 L-14.75 10.3 -14.95 4.8 M-11.85 3.55 L-8.05 -2.15 -8.0 -1.75 -8.8 1.5 -10.45 2.1 -10.75 3.1 -10.6 3.65 -11.25 4.6 -11.35 4.3 -11.85 3.55" fill="#4ec262" fill-rule="evenodd" stroke="none"/>
      <path d="M-6.5 -27.45 L-7.25 -27.2 -8.6 -26.65 Q-8.5 -28.35 -6.5 -29.15 -4.65 -29.95 -1.1 -29.95 L0.25 -29.85 Q3.6 -29.35 8.15 -26.4 L9.3 -25.6 10.05 -25.1 Q13.7 -22.4 13.9 -20.5 L14.9 -15.25 Q12.7 -20.55 10.1 -23.5 L8.45 -25.1 Q4.2 -28.7 -1.95 -28.7 -3.75 -28.7 -5.6 -27.85 L-6.5 -27.45" fill="#fff9d4" fill-rule="evenodd" stroke="none"/>
      <path d="M15.1 4.6 L15.35 -1.55 Q15.4 3.25 15.4 -1.2 15.4 -11.0 13.8 -15.8 12.75 -19.0 11.0 -21.3 9.95 -23.4 8.8 -24.15 8.2 -24.6 7.6 -24.65 L6.95 -25.1 5.1 -26.1 Q1.95 -27.55 -2.15 -27.75 L-6.5 -27.45 -5.6 -27.85 Q-3.75 -28.7 -1.95 -28.7 4.2 -28.7 8.45 -25.1 L10.1 -23.5 Q12.7 -20.55 14.9 -15.25 L15.8 -11.25 Q17.15 -5.2 17.15 -0.85 L16.8 3.8 16.45 8.6 15.65 6.25 15.1 4.6" fill="#cec9ab" fill-rule="evenodd" stroke="none"/>
      <path d="M-11.95 3.45 Q-11.5 2.1 -11.5 -0.25 L-11.75 -4.3 -11.8 -4.4 Q-12.3 -5.65 -12.25 -7.85 L-12.2 -8.8 Q-12.0 -11.75 -11.25 -14.45 L-10.45 -16.75 -10.4 -16.5 -10.0 -15.6 -9.75 -15.6 Q-4.75 -16.1 -4.15 -15.55 L-2.2 -15.7 Q-0.9 -16.35 2.95 -16.55 6.8 -16.8 7.15 -12.7 L7.2 -12.2 8.4 -10.6 8.9 -9.8 Q10.15 -7.75 10.15 -6.8 L9.65 -4.95 8.05 0.8 8.0 1.9 8.05 3.35 Q7.5 3.45 7.1 3.75 L6.3 4.45 5.5 2.25 Q4.35 2.85 3.55 4.5 L2.2 7.5 Q1.3 9.3 -0.15 9.9 L-0.75 9.25 Q-1.0 7.35 -2.15 6.95 -2.6 6.5 -3.6 6.65 -5.25 6.9 -5.45 8.35 L-5.65 9.35 Q-5.9 11.25 -4.75 12.7 -5.35 13.25 -6.1 13.25 L-6.55 13.2 -6.75 13.0 Q-6.75 11.95 -7.0 10.95 L-7.25 9.6 -7.0 7.75 Q-7.6 8.15 -8.5 9.05 L-7.5 6.1 -7.15 4.8 -7.25 2.65 Q-7.25 2.15 -7.7 1.85 -8.15 1.5 -8.8 1.5 L-8.0 -1.75 -8.05 -2.15 -11.85 3.55 -11.95 3.45 M9.75 3.6 L10.3 2.25 10.3 2.45 10.4 3.5 10.8 4.2 10.25 3.9 9.75 3.6 M10.65 1.35 L11.35 -1.2 11.5 -1.2 11.9 0.65 Q11.1 0.65 10.9 1.2 L10.65 1.35 M-12.3 4.2 L-12.4 4.3 -12.3 4.2" fill="#3e9f4c" fill-rule="evenodd" stroke="none"/>
      <path d="M12.25 14.95 L11.0 16.9 7.6 15.0 8.75 14.55 4.45 13.0 Q5.1 11.2 4.25 9.75 L4.05 9.25 Q5.25 6.35 8.0 4.65 10.9 5.2 12.1 8.0 L13.6 11.35 13.4 12.05 12.95 13.3 10.35 12.1 10.9 11.9 10.8 10.65 11.35 10.45 10.6 9.85 10.2 10.45 8.5 10.1 Q8.2 7.55 6.75 5.75 5.3 7.1 4.75 9.15 L5.4 9.9 Q6.3 10.85 7.7 11.05 L7.75 11.25 Q9.65 13.45 12.25 14.95 M9.7 18.2 L6.6 19.9 2.6 17.75 0.8 16.9 0.85 16.85 Q1.5 16.7 1.55 16.5 L1.5 16.35 1.25 16.2 3.25 16.0 3.25 15.9 3.5 15.9 3.75 15.9 4.1 15.8 4.05 15.65 Q4.15 16.0 4.15 15.35 L4.15 15.25 4.55 15.15 7.65 17.1 9.7 18.2 M4.6 21.1 L3.6 22.55 1.15 22.75 0.7 23.25 0.2 23.6 Q-0.6 24.25 -1.5 24.0 L-3.0 27.65 -2.5 28.8 Q-3.55 31.0 -5.4 32.25 -6.35 32.9 -7.4 32.9 L-8.15 31.45 -4.0 30.75 -5.05 28.6 Q-3.7 28.15 -3.1 26.65 -2.85 26.0 -3.05 25.35 L-3.75 25.1 -4.05 25.3 Q-7.0 26.75 -8.55 29.25 L-8.95 29.6 -10.25 26.6 -6.5 25.65 -6.45 25.0 -4.2 24.9 -2.9 22.9 -6.85 23.0 -6.75 22.3 -0.6 20.5 Q-2.95 19.35 -5.5 19.4 L-5.55 18.7 Q-5.8 17.4 -6.9 16.7 L-5.75 14.4 -4.4 15.4 -3.95 16.1 -3.5 17.05 Q-3.05 17.4 -2.45 17.4 -1.0 19.4 1.3 19.9 L1.7 19.7 4.6 21.1 M-11.3 23.95 Q-12.2 23.55 -12.9 21.0 L-13.1 20.15 -11.7 19.8 -10.55 19.35 -9.75 19.5 -10.1 20.0 -6.8 20.4 -7.9 21.45 Q-9.15 22.45 -10.75 22.75 L-10.25 22.95 -10.6 23.25 -11.3 23.95 M-13.35 16.95 L-13.15 16.5 -14.1 12.5 -12.9 8.2 Q-13.0 9.1 -12.4 9.75 L-12.05 10.1 -11.5 10.4 -12.9 12.15 -12.75 13.35 -9.05 10.75 -9.65 9.75 -11.6 7.65 -10.2 6.25 -10.7 7.45 -9.35 8.55 -9.95 6.0 -8.5 4.75 -8.25 6.45 -7.8 6.75 -7.5 6.1 -8.5 9.05 -8.7 9.55 Q-7.3 12.95 -8.35 16.4 L-10.1 16.15 Q-10.45 15.15 -11.45 14.65 L-12.15 14.5 -13.1 16.9 -13.35 16.95 M10.3 2.25 L10.65 1.35 10.9 1.2 Q10.75 1.45 10.75 1.8 L10.75 2.75 Q11.05 3.65 12.35 3.65 13.5 3.65 13.5 2.25 L13.4 1.5 Q14.15 2.05 14.15 3.2 14.15 3.95 13.5 4.35 12.95 4.75 12.1 4.75 L11.4 4.65 10.8 4.2 10.4 3.5 10.3 2.45 10.3 2.25 M-10.6 3.65 L-10.75 3.1 -10.45 2.1 -10.6 3.65 M-4.75 12.7 Q-5.9 11.25 -5.65 9.35 L-5.45 8.35 -5.3 11.5 -4.0 11.65 -2.7 10.5 -2.7 11.25 -0.3 12.15 -0.1 11.7 0.4 11.7 0.85 12.35 0.25 12.35 0.25 14.9 0.0 15.1 -0.4 14.8 -2.4 14.8 -2.9 12.95 -4.35 12.95 -4.75 12.7 M-2.15 6.95 Q-1.0 7.35 -0.75 9.25 L-1.35 9.1 -2.0 9.2 -1.75 8.1 Q-1.75 7.3 -2.15 6.95 M-12.35 7.4 L-12.35 7.3 -11.9 6.25 -12.35 7.4 M-10.7 17.0 Q-10.35 17.0 -9.65 17.4 L-9.05 17.65 -9.25 18.2 -9.35 18.5 -9.7 18.25 Q-9.9 17.35 -10.7 17.0 M-8.75 22.45 L-8.5 22.4 -8.0 22.4 -8.3 22.9 Q-8.45 22.55 -8.75 22.45 M-8.05 23.95 L-7.4 24.45 -8.0 24.25 -8.05 23.95 M-1.65 16.1 L-1.75 16.1 -1.75 16.05 -1.65 16.1" fill="#990000" fill-rule="evenodd" stroke="none"/>
      <path d="M14.9 15.2 L14.75 15.4 14.1 15.5 Q13.3 15.5 12.25 14.95 9.65 13.45 7.75 11.25 L7.7 11.05 8.0 11.2 10.25 12.1 10.35 12.1 12.95 13.3 14.0 13.85 14.9 15.2 M11.0 16.9 L13.15 18.1 Q12.6 19.0 12.0 19.0 L9.7 18.2 7.65 17.1 4.55 15.15 4.65 15.05 4.75 14.65 4.5 14.15 5.95 14.5 7.25 15.0 7.6 15.0 11.0 16.9 M6.6 19.9 L9.0 21.15 9.0 21.35 8.35 21.75 7.95 21.75 4.6 21.1 1.7 19.7 1.7 19.65 1.75 19.25 -0.65 17.0 -0.25 17.0 0.8 16.9 2.6 17.75 6.6 19.9 M-8.15 31.45 L-8.55 31.65 Q-9.5 32.25 -10.0 32.25 L-10.45 32.2 -10.75 32.0 -10.85 31.65 -9.25 29.85 -8.95 29.6 -8.55 29.25 Q-8.55 29.45 -8.4 29.25 L-6.3 28.85 -5.05 28.6 -4.0 30.75 -8.15 31.45 M-10.25 26.6 Q-11.9 27.35 -12.5 27.35 -12.9 27.35 -13.1 26.9 L-13.25 26.4 -11.3 23.95 -10.6 23.25 -10.25 22.95 -10.0 23.0 Q-9.3 22.5 -8.75 22.45 -8.45 22.55 -8.3 22.9 L-8.4 23.4 -8.05 23.95 -8.0 24.25 -7.4 24.45 -7.35 24.5 -6.45 25.0 -6.5 25.65 -10.25 26.6 M-13.1 20.15 L-14.0 20.35 Q-14.65 20.05 -14.65 18.9 -14.65 17.4 -13.35 16.95 L-13.1 16.9 -13.5 17.4 -13.4 17.75 -11.45 17.4 -10.75 17.0 -10.7 17.0 Q-9.9 17.35 -9.7 18.25 L-9.35 18.5 -9.75 19.5 -10.55 19.35 -11.7 19.8 -13.1 20.15 M-1.75 16.1 L-1.65 16.1 -1.35 16.4 -1.45 16.3 -1.75 16.1" fill="#ffffff" fill-rule="evenodd" stroke="none"/>
      <path d="M11.9 0.65 L12.15 0.65 Q13.1 0.7 13.4 1.5 L13.5 2.25 Q13.5 3.65 12.35 3.65 11.05 3.65 10.75 2.75 L10.75 1.8 Q10.75 1.45 10.9 1.2 11.1 0.65 11.9 0.65 M-11.25 4.6 L-10.6 3.65 -10.45 2.1 -8.8 1.5 Q-8.15 1.5 -7.7 1.85 -7.25 2.15 -7.25 2.65 L-7.15 4.8 -7.5 6.1 -7.8 6.75 -8.25 6.45 -8.5 4.75 -9.95 6.0 -10.2 6.25 -11.6 7.65 -9.65 9.75 -9.05 10.75 -12.75 13.35 -12.9 12.15 -11.5 10.4 -12.05 10.1 -12.4 9.75 Q-13.0 9.1 -12.9 8.2 L-12.75 7.75 -12.35 7.4 -11.9 6.25 -11.25 4.6 M-5.45 8.35 Q-5.25 6.9 -3.6 6.65 -2.6 6.5 -2.15 6.95 -1.75 7.3 -1.75 8.1 L-2.0 9.2 -1.35 9.1 -0.75 9.25 -0.15 9.9 Q0.0 10.35 0.0 11.0 L-0.1 11.7 -0.3 12.15 -2.7 11.25 -2.7 10.5 -4.0 11.65 -5.3 11.5 -5.45 8.35 M7.7 11.05 Q6.3 10.85 5.4 9.9 L4.75 9.15 Q5.3 7.1 6.75 5.75 8.2 7.55 8.5 10.1 L10.2 10.45 10.6 9.85 11.35 10.45 10.8 10.65 10.9 11.9 10.35 12.1 10.25 12.1 8.0 11.2 7.7 11.05 M4.45 13.0 L8.75 14.55 7.6 15.0 7.25 15.0 5.95 14.5 4.5 14.15 4.75 14.65 4.65 15.05 4.55 15.15 4.15 15.25 4.15 15.35 Q4.15 16.0 4.05 15.65 L4.1 15.8 3.75 15.9 3.5 15.9 3.25 15.9 3.25 16.0 1.25 16.2 1.5 16.35 1.55 16.5 Q1.5 16.7 0.85 16.85 L0.8 16.9 -0.25 17.0 -0.65 17.0 1.75 19.25 1.7 19.65 1.7 19.7 1.3 19.9 Q-1.0 19.4 -2.45 17.4 L-2.25 16.9 Q-2.25 15.7 -2.4 14.8 L-0.4 14.8 0.0 15.1 0.25 14.9 0.25 12.35 0.85 12.35 1.05 12.65 3.5 15.9 3.9 15.6 4.45 13.0 M-6.9 16.7 Q-5.8 17.4 -5.55 18.7 L-5.5 19.4 Q-2.95 19.35 -0.6 20.5 L-6.75 22.3 -6.85 23.0 -2.9 22.9 -4.2 24.9 -6.45 25.0 -7.35 24.5 -7.4 24.45 -8.05 23.95 -8.4 23.4 -8.3 22.9 -8.0 22.4 -8.5 22.4 -8.75 22.45 Q-9.3 22.5 -10.0 23.0 L-10.25 22.95 -10.75 22.75 Q-9.15 22.45 -7.9 21.45 L-6.8 20.4 -10.1 20.0 -9.75 19.5 -9.35 18.5 -9.25 18.2 -9.05 17.65 -9.65 17.4 Q-10.35 17.0 -10.7 17.0 L-10.75 17.0 -11.45 17.4 -13.4 17.75 -13.5 17.4 -13.1 16.9 -12.15 14.5 -11.45 14.65 Q-10.45 15.15 -10.1 16.15 L-8.35 16.4 -8.5 18.0 Q-8.5 18.65 -8.35 18.25 L-8.25 18.25 -7.75 18.15 -6.9 16.7 M-1.65 16.1 L-1.75 16.05 -1.75 16.1 -1.45 16.3 -1.35 16.4 -1.65 16.1 M-8.55 29.25 Q-7.0 26.75 -4.05 25.3 L-3.75 25.1 -3.05 25.35 Q-2.85 26.0 -3.1 26.65 -3.7 28.15 -5.05 28.6 L-6.3 28.85 -8.4 29.25 Q-8.55 29.45 -8.55 29.25" fill="#ff0000" fill-rule="evenodd" stroke="none"/>
      <path d="M-14.1 12.5 L-14.25 12.7 -14.75 13.25 -14.75 12.85 -15.1 12.9 -15.2 12.9 Q-16.25 13.75 -17.25 14.0 L-14.75 10.3 -14.75 10.25 Q-14.15 9.1 -13.9 7.9 L-12.9 6.5 Q-12.25 5.7 -12.25 4.5 L-12.3 4.2 -12.5 3.25 -11.95 3.45 -11.85 3.55 -11.35 4.3 -11.25 4.6 -11.9 6.25 -12.35 7.3 -12.35 7.4 -12.75 7.75 -12.9 8.2 -14.1 12.5 M8.05 3.35 L8.75 3.25 Q9.1 3.25 9.75 3.6 L10.25 3.9 10.8 4.2 11.4 4.65 12.1 4.75 Q12.95 4.75 13.5 4.35 L13.5 6.25 Q12.65 6.85 12.25 7.7 L12.1 8.0 Q10.9 5.2 8.0 4.65 5.25 6.35 4.05 9.25 L4.25 9.75 Q5.1 11.2 4.45 13.0 L3.9 15.6 3.5 15.9 1.05 12.65 0.85 12.35 0.4 11.7 -0.1 11.7 0.0 11.0 Q0.0 10.35 -0.15 9.9 1.3 9.3 2.2 7.5 L3.55 4.5 Q4.35 2.85 5.5 2.25 L6.3 4.45 7.1 3.75 Q7.5 3.45 8.05 3.35 M-8.5 9.05 Q-7.6 8.15 -7.0 7.75 L-7.25 9.6 -7.0 10.95 Q-6.75 11.95 -6.75 13.0 L-6.55 13.2 -6.1 13.25 Q-5.35 13.25 -4.75 12.7 L-4.35 12.95 -2.9 12.95 -2.4 14.8 Q-2.25 15.7 -2.25 16.9 L-2.45 17.4 Q-3.05 17.4 -3.5 17.05 L-3.95 16.1 -4.4 15.4 -5.75 14.4 -6.9 16.7 -7.75 18.15 -8.25 18.25 -8.35 18.25 Q-8.5 18.65 -8.5 18.0 L-8.35 16.4 Q-7.3 12.95 -8.7 9.55 L-8.5 9.05 M-9.95 6.0 L-9.35 8.55 -10.7 7.45 -10.2 6.25 -9.95 6.0" fill="#695227" fill-rule="evenodd" stroke="none"/>
    </g>
    <g id="sprite1" transform="matrix(1.0, 0.0, 0.0, 1.0, 50.0, 50.0)">
      <use ffdec:characterId="1080" height="100.0" transform="matrix(1.0, 0.0, 0.0, 1.0, -50.0, -50.0)" width="100.0" xlink:href="#shape2"/>
    </g>
    <g id="shape2" transform="matrix(1.0, 0.0, 0.0, 1.0, 50.0, 50.0)">
      <path d="M50.0 50.0 L-50.0 50.0 -50.0 -50.0 50.0 -50.0 50.0 50.0 Z" fill="none" stroke="#9900ff" stroke-linecap="round" stroke-linejoin="round" stroke-width="0.05"/>
    </g>
  </defs>
</svg>
