<?xml version="1.0" encoding="UTF-8" standalone="no"?>
<svg xmlns:ffdec="https://www.free-decompiler.com/flash" xmlns:xlink="http://www.w3.org/1999/xlink" ffdec:objectType="frame" height="167.75px" width="26.0px" xmlns="http://www.w3.org/2000/svg">
  <g transform="matrix(1.0, 0.0, 0.0, 1.0, 13.05, 83.25)">
    <use ffdec:characterId="3080" ffdec:characterName="BladeWeaponMC" height="167.75" id="mc" transform="matrix(1.0, 0.0, 0.0, 1.0, -13.05, -83.25)" width="26.0" xlink:href="#sprite0"/>
  </g>
  <defs>
    <g id="sprite0" transform="matrix(1.0, 0.0, 0.0, 1.0, 13.0, 83.25)">
      <use ffdec:characterId="3068" height="86.4" transform="matrix(1.0, 0.0, 0.0, 1.0, -13.0, -43.25)" width="26.0" xlink:href="#shape0"/>
    </g>
    <g id="shape0" transform="matrix(1.0, 0.0, 0.0, 1.0, 13.0, 43.25)">
      <path d="M6.75 -23.15 Q6.25 -25.25 4.95 -26.95 4.05 -28.15 2.7 -28.6 L1.5 -28.85 1.5 -35.6 2.7 -35.9 Q4.05 -36.35 4.95 -37.55 6.25 -39.2 6.75 -41.35 L8.0 -40.2 Q11.3 -36.9 11.3 -32.25 11.3 -29.15 9.9 -26.75 9.15 -25.4 8.0 -24.3 L6.75 -23.15 M-1.5 -28.85 L-2.65 -28.6 Q-4.0 -28.15 -4.95 -26.95 -6.25 -25.3 -6.7 -23.2 L-7.9 -24.3 Q-9.15 -25.5 -9.9 -26.9 L-10.15 -27.35 Q-11.3 -29.55 -11.3 -32.25 -11.3 -35.0 -10.1 -37.3 -9.25 -38.85 -7.9 -40.2 L-6.7 -41.3 Q-6.25 -39.2 -4.95 -37.55 -4.0 -36.35 -2.65 -35.9 L-1.5 -35.6 -1.5 -28.85" fill="#c8c7c5" fill-rule="evenodd" stroke="none"/>
      <path d="M1.5 -28.85 L1.5 -26.2 1.05 -26.2 0.5 -26.2 0.5 -38.9 1.5 -35.8 1.5 -35.6 1.5 -28.85 M1.5 33.15 L1.5 37.2 1.05 38.25 0.95 38.35 1.75 38.9 Q2.5 39.6 2.5 40.65 2.5 41.7 1.75 42.45 1.05 43.15 0.0 43.15 -1.05 43.15 -1.8 42.45 -2.5 41.7 -2.5 40.65 -2.5 39.6 -1.8 38.9 -1.4 38.5 -0.95 38.35 L-1.05 38.25 -1.5 37.2 -1.5 33.15 -1.0 33.15 -0.5 33.15 -0.5 37.2 -0.35 37.55 -0.05 37.7 0.0 37.7 0.35 37.55 0.5 37.2 0.5 33.15 1.05 33.15 1.5 33.15 M-1.5 -26.2 L-1.5 -28.85 -1.5 -35.6 -0.5 -39.05 -0.5 -26.2 -1.0 -26.2 -1.5 -26.2 M1.05 39.6 Q0.65 39.15 0.0 39.15 -0.65 39.15 -1.1 39.6 -1.5 40.0 -1.5 40.65 -1.5 41.3 -1.1 41.75 -0.65 42.15 0.0 42.15 0.65 42.15 1.05 41.75 1.5 41.3 1.5 40.65 1.5 40.0 1.05 39.6" fill="#d7d7d6" fill-rule="evenodd" stroke="none"/>
      <path d="M-0.5 -39.05 L-0.05 -40.55 0.5 -38.9 0.5 -26.2 0.05 -26.2 -0.5 -26.2 -0.5 -39.05 M0.5 33.15 L0.5 37.2 0.35 37.55 0.0 37.7 -0.05 37.7 -0.35 37.55 -0.5 37.2 -0.5 33.15 0.05 33.15 0.5 33.15" fill="#999895" fill-rule="evenodd" stroke="none"/>
      <path d="M1.5 -26.2 L1.5 33.15 1.05 33.15 1.05 -26.2 1.5 -26.2 M-1.5 33.15 L-1.5 -26.2 -1.0 -26.2 -1.0 33.15 -1.5 33.15 M0.05 33.15 L-0.5 33.15 -0.5 -26.2 0.05 -26.2 0.05 33.15" fill="#6f4f31" fill-rule="evenodd" stroke="none"/>
      <path d="M6.75 -41.35 L6.9 -42.2 7.0 -42.85 7.0 -43.25 9.2 -41.4 10.75 -39.55 11.95 -37.45 12.25 -36.7 12.65 -35.4 13.0 -32.6 13.0 -32.25 13.0 -31.6 12.65 -29.05 12.05 -27.3 11.95 -27.1 11.4 -25.95 10.8 -24.95 9.2 -23.05 7.0 -21.25 7.0 -21.55 6.9 -22.25 6.75 -23.15 8.0 -24.3 Q9.15 -25.4 9.9 -26.75 11.3 -29.15 11.3 -32.25 11.3 -36.9 8.0 -40.2 L6.75 -41.35" fill="url(#gradient0)" fill-rule="evenodd" stroke="none"/>
      <path d="M-6.7 -23.2 L-6.85 -22.3 -6.95 -21.6 -6.95 -21.25 -9.15 -23.05 -10.75 -24.95 -11.2 -25.65 -11.75 -26.7 -11.95 -27.1 -12.05 -27.3 -12.6 -29.05 -12.95 -31.6 -13.0 -32.25 -13.0 -32.6 -12.65 -35.4 -12.15 -36.95 -11.95 -37.45 -11.6 -38.15 -10.75 -39.55 -9.15 -41.4 -6.95 -43.2 -6.9 -42.8 -6.85 -42.15 -6.7 -41.3 -7.9 -40.2 Q-9.25 -38.85 -10.1 -37.3 -11.3 -35.0 -11.3 -32.25 -11.3 -29.55 -10.15 -27.35 L-9.9 -26.9 Q-9.15 -25.5 -7.9 -24.3 L-6.7 -23.2" fill="url(#gradient1)" fill-rule="evenodd" stroke="none"/>
      <path d="M-0.5 33.15 L-1.0 33.15 -1.0 -26.2 -0.5 -26.2 -0.5 33.15" fill="#9c6f45" fill-rule="evenodd" stroke="none"/>
      <path d="M0.05 -26.2 L0.5 -26.2 1.05 -26.2 1.05 33.15 0.5 33.15 0.05 33.15 0.05 -26.2" fill="#5b3f27" fill-rule="evenodd" stroke="none"/>
    </g>
    <linearGradient gradientTransform="matrix(0.0, -0.0134, 0.0038, 0.0, 9.85, -32.25)" gradientUnits="userSpaceOnUse" id="gradient0" spreadMethod="pad" x1="-819.2" x2="819.2">
      <stop offset="0.17254901960784313" stop-color="#999895"/>
      <stop offset="0.5333333333333333" stop-color="#ebebeb"/>
      <stop offset="0.8627450980392157" stop-color="#999895"/>
    </linearGradient>
    <linearGradient gradientTransform="matrix(0.0, -0.0134, 0.0038, 0.0, -9.85, -32.2)" gradientUnits="userSpaceOnUse" id="gradient1" spreadMethod="pad" x1="-819.2" x2="819.2">
      <stop offset="0.1411764705882353" stop-color="#999895"/>
      <stop offset="0.5019607843137255" stop-color="#ebebeb"/>
      <stop offset="0.8784313725490196" stop-color="#999895"/>
    </linearGradient>
  </defs>
</svg>
