<?xml version="1.0" encoding="UTF-8" standalone="no"?>
<svg xmlns:ffdec="https://www.free-decompiler.com/flash" xmlns:xlink="http://www.w3.org/1999/xlink" ffdec:objectType="frame" height="39.3px" width="15.3px" xmlns="http://www.w3.org/2000/svg">
  <g transform="matrix(1.0, 0.0, 0.0, 1.0, 7.85, 18.2)">
    <use ffdec:characterId="552" height="10.0" id="p0_1" transform="matrix(0.1995, 0.0, 0.0, 0.1995, 4.6526, -18.1974)" width="10.0" xlink:href="#sprite0"/>
    <use ffdec:characterId="552" height="10.0" id="p0_2" transform="matrix(0.1995, 0.0, 0.0, 0.1995, 5.4526, 19.1026)" width="10.0" xlink:href="#sprite0"/>
    <use ffdec:characterId="552" height="10.0" id="p0_3" transform="matrix(0.1995, 0.0, 0.0, 0.1995, -7.8474, 18.7026)" width="10.0" xlink:href="#sprite0"/>
    <use ffdec:characterId="552" height="10.0" id="p0_0" transform="matrix(0.1995, 0.0, 0.0, 0.1995, -7.8474, -17.9474)" width="10.0" xlink:href="#sprite0"/>
  </g>
  <defs>
    <g id="sprite0" transform="matrix(1.0, 0.0, 0.0, 1.0, 5.0, 5.0)">
      <use ffdec:characterId="551" height="10.0" transform="matrix(1.0, 0.0, 0.0, 1.0, -5.0, -5.0)" width="10.0" xlink:href="#shape0"/>
    </g>
    <g id="shape0" transform="matrix(1.0, 0.0, 0.0, 1.0, 5.0, 5.0)">
      <path d="M3.55 -3.5 Q5.0 -2.05 5.0 0.0 5.0 2.05 3.55 3.55 2.05 5.0 0.0 5.0 -2.05 5.0 -3.55 3.55 -5.0 2.05 -5.0 0.0 -5.0 -2.05 -3.55 -3.5 -2.05 -5.0 0.0 -5.0 2.05 -5.0 3.55 -3.5" fill="#ff00ff" fill-rule="evenodd" stroke="none"/>
    </g>
  </defs>
</svg>
