<?xml version="1.0" encoding="UTF-8" standalone="no"?>
<svg xmlns:ffdec="https://www.free-decompiler.com/flash" xmlns:xlink="http://www.w3.org/1999/xlink" ffdec:objectType="frame" height="84.45px" width="27.2px" xmlns="http://www.w3.org/2000/svg">
  <g transform="matrix(1.0, 0.0, 0.0, 1.0, 11.5, 8.25)">
    <use ffdec:characterId="2280" ffdec:characterName="game_fla.upperleg1_408" height="48.4" id="upperLeg1" transform="matrix(1.0, 0.0, 0.0, 1.0, -11.5, -8.25)" width="21.95" xlink:href="#sprite0"/>
    <use ffdec:characterId="2284" height="47.05" id="lowerLegOuter1" transform="matrix(1.0, 0.0, 0.0, 1.0, -8.25, 29.15)" width="23.95" xlink:href="#sprite2"/>
  </g>
  <defs>
    <g id="sprite0" transform="matrix(1.0, 0.0, 0.0, 1.0, 12.05, 23.5)">
      <use ffdec:characterId="2276" height="45.35" transform="matrix(1.0, 0.0, 0.0, 1.0, -9.65, -22.35)" width="18.55" xlink:href="#shape0"/>
      <use ffdec:characterId="1081" height="100.0" id="shape" transform="matrix(0.16, 0.0, 0.0, 0.44, -7.9994, -22.0001)" width="100.0" xlink:href="#sprite1"/>
    </g>
    <g id="shape0" transform="matrix(1.0, 0.0, 0.0, 1.0, 9.65, 22.35)">
      <path d="M6.05 8.95 L5.1 18.55 Q4.95 19.65 3.95 21.0 1.3 24.0 -4.0 22.45 -7.35 21.45 -7.4 15.2 L-7.1 8.85 -7.15 10.0 -6.2 10.0 -5.85 15.6 -5.6 15.5 -5.65 16.25 -5.35 15.4 -5.3 15.35 -5.2 14.85 -4.75 12.85 -4.6 12.4 -4.5 11.7 -4.15 10.05 6.05 8.95" fill="#ffcc99" fill-rule="evenodd" stroke="none"/>
      <path d="M-3.65 7.45 L-3.6 7.45 3.8 7.1 3.85 7.05 6.3 6.75 6.2 7.6 6.05 8.95 -4.15 10.05 -4.5 11.7 -4.6 12.4 -4.75 12.85 -5.2 14.85 -5.3 15.35 -5.35 15.4 -5.65 16.25 -5.6 15.5 -5.85 15.6 -6.2 10.0 -7.15 10.0 -7.1 8.85 -7.0 7.3 -6.25 7.35 -6.2 7.35 -6.25 7.95 -6.25 8.0 -6.2 10.0 -4.2 10.05 -3.65 7.45" fill="#f4c398" fill-rule="evenodd" stroke="none"/>
      <path d="M-8.15 -17.75 L-8.0 -18.0 -5.55 -19.85 Q-1.3 -22.05 3.55 -22.35 L4.2 -22.3 5.65 -21.65 6.65 -20.5 Q7.65 -19.2 8.15 -17.5 L8.25 -17.2 8.0 -15.7 7.65 -14.35 Q5.75 -8.6 5.6 -7.5 L5.75 -7.45 4.5 0.35 Q3.8 4.35 3.8 7.1 L-3.6 7.45 -3.65 7.45 -3.9 7.45 -3.45 6.7 -3.45 6.65 Q-2.45 4.65 -1.4 1.55 L1.7 -8.9 -0.95 -4.65 -1.0 -4.6 -2.1 -3.2 Q-3.95 -0.85 -5.75 1.0 L-5.7 0.1 -5.75 -2.75 -4.8 -5.65 Q-3.15 -11.05 -2.05 -15.3 -3.7 -10.1 -6.35 -7.9 L-7.7 -13.15 -7.8 -13.45 -7.95 -14.0 -7.95 -14.25 -8.0 -15.05 -8.0 -15.25 -8.1 -16.0 -8.15 -16.65 -8.15 -17.75" fill="#5eaa2b" fill-rule="evenodd" stroke="none"/>
      <path d="M-8.15 -17.75 L-8.15 -16.65 -8.1 -16.0 -8.0 -15.25 -8.0 -15.05 -7.95 -14.25 -7.95 -14.0 -7.8 -13.45 -7.7 -13.15 -6.35 -7.9 Q-3.7 -10.1 -2.05 -15.3 -3.15 -11.05 -4.8 -5.65 L-5.75 -2.75 -5.7 0.1 -5.75 1.0 Q-3.95 -0.85 -2.1 -3.2 L-1.0 -4.6 -0.95 -4.65 1.7 -8.9 -1.4 1.55 Q-2.45 4.65 -3.45 6.65 L-3.45 6.7 -3.9 7.45 -5.3 7.45 -6.0 7.35 -6.2 7.35 -6.25 7.35 -7.0 7.3 -8.55 7.05 -8.7 6.15 -8.8 2.15 -8.85 0.35 -8.65 -5.25 Q-8.6 -8.05 -8.9 -9.0 L-9.6 -12.35 Q-9.85 -14.6 -9.2 -15.95 -8.85 -16.95 -8.15 -17.75 M3.8 7.1 Q3.8 4.35 4.5 0.35 L5.75 -7.45 5.6 -7.5 Q5.75 -8.6 7.65 -14.35 L8.0 -15.7 8.25 -17.2 8.6 -14.8 8.8 -8.95 8.75 -7.8 8.9 6.3 7.25 6.6 6.3 6.75 3.85 7.05 3.8 7.1" fill="#66cc33" fill-rule="evenodd" stroke="none"/>
      <path d="M-3.9 7.45 L-3.65 7.45 -4.2 10.05 -6.2 10.0 -6.25 8.0 -6.25 7.95 -6.2 7.35 -6.0 7.35 -5.3 7.45 -3.9 7.45" fill="#e2b181" fill-rule="evenodd" stroke="none"/>
    </g>
    <g id="sprite1" transform="matrix(1.0, 0.0, 0.0, 1.0, 50.0, 50.0)">
      <use ffdec:characterId="1080" height="100.0" transform="matrix(1.0, 0.0, 0.0, 1.0, -50.0, -50.0)" width="100.0" xlink:href="#shape1"/>
    </g>
    <g id="shape1" transform="matrix(1.0, 0.0, 0.0, 1.0, 50.0, 50.0)">
      <path d="M50.0 50.0 L-50.0 50.0 -50.0 -50.0 50.0 -50.0 50.0 50.0 Z" fill="none" stroke="#9900ff" stroke-linecap="round" stroke-linejoin="round" stroke-width="0.05"/>
    </g>
    <g id="sprite2" transform="matrix(1.0, 0.0, 0.0, 1.0, 8.6, 4.5)">
      <use ffdec:characterId="2283" ffdec:characterName="game_fla.lowerleg1_410" height="47.05" id="lowerLeg1" transform="matrix(1.0, 0.0, 0.0, 1.0, -8.6, -4.5)" width="23.95" xlink:href="#sprite3"/>
    </g>
    <g id="sprite3" transform="matrix(1.0, 0.0, 0.0, 1.0, 7.5, 22.75)">
      <use ffdec:characterId="2281" height="40.5" transform="matrix(1.0, 0.0, 0.0, 1.0, -5.65, -22.75)" width="11.55" xlink:href="#shape2"/>
      <use ffdec:characterId="2226" height="14.55" transform="matrix(1.0, 0.0, 0.0, 1.0, -7.5, 9.75)" width="23.95" xlink:href="#shape3"/>
      <use ffdec:characterId="1081" height="100.0" id="shape" transform="matrix(0.11, 0.0, 0.0, 0.45, -5.5, -22.5021)" width="100.0" xlink:href="#sprite1"/>
    </g>
    <g id="shape2" transform="matrix(1.0, 0.0, 0.0, 1.0, 5.65, 22.75)">
      <path d="M-4.5 4.0 L-4.5 3.95 Q-5.15 -1.45 -5.0 -2.9 -4.9 -4.3 -5.2 -5.9 L-5.65 -12.25 Q-5.6 -15.2 -5.1 -18.15 L-4.0 -19.5 Q-3.6 -22.25 -0.25 -22.7 L0.75 -22.7 Q3.75 -22.45 5.9 -17.45 5.8 -13.5 5.3 -8.85 4.95 -0.65 4.3 4.0 L3.0 4.0 2.95 4.0 3.95 -7.25 Q2.9 -1.05 1.65 4.0 L-4.5 4.0" fill="#ffcc99" fill-rule="evenodd" stroke="none"/>
      <path d="M1.65 4.0 Q2.9 -1.05 3.95 -7.25 L2.95 4.0 1.7 4.0 1.65 4.0" fill="#f4c398" fill-rule="evenodd" stroke="none"/>
      <path d="M1.85 16.4 L0.25 16.45 0.1 16.45 -2.95 17.25 -3.05 17.2 0.6 7.9 1.7 4.0 2.95 4.0 3.0 4.0 1.85 16.4" fill="#cccccc" fill-rule="evenodd" stroke="none"/>
      <path d="M4.3 4.0 L4.3 4.05 4.25 4.15 Q3.55 8.8 3.5 16.4 L1.85 16.4 3.0 4.0 4.3 4.0 M-2.95 17.25 L-4.7 17.75 -4.65 17.5 -4.65 17.25 -4.6 17.0 -4.6 16.75 -4.55 16.5 -4.25 9.2 Q-4.3 6.3 -4.5 4.0 L1.65 4.0 1.7 4.0 0.6 7.9 -3.05 17.2 -2.95 17.25" fill="#ffffff" fill-rule="evenodd" stroke="none"/>
    </g>
    <g id="shape3" transform="matrix(1.0, 0.0, 0.0, 1.0, 7.5, -9.75)">
      <path d="M1.65 9.95 L3.5 10.2 3.7 10.75 4.75 10.4 7.95 10.55 8.1 11.45 7.35 12.9 6.6 13.15 6.0 13.8 7.0 14.9 10.3 16.95 Q10.15 16.9 9.25 17.4 L7.4 18.0 Q6.5 18.0 4.95 16.85 L2.85 15.25 Q1.5 14.5 1.65 12.4 L1.65 9.95 M12.15 18.1 Q12.8 17.95 13.6 18.1 16.75 18.75 16.4 21.0 L16.35 21.55 -7.15 18.95 -7.05 18.5 -2.15 18.95 0.6 19.35 10.1 20.35 Q10.65 18.45 12.15 18.1 M16.25 22.05 L16.2 22.2 15.75 23.25 Q15.55 24.1 14.0 24.25 L6.5 23.6 -0.45 22.6 Q-4.05 22.65 -7.5 21.45 L-7.2 19.45 16.25 22.05 M5.5 10.7 Q4.3 11.1 6.45 12.2 L7.05 11.4 7.15 11.25 7.05 11.1 Q6.35 10.75 5.5 10.7 M5.0 11.85 L4.1 11.7 Q4.6 13.0 5.5 12.25 L5.0 11.85" fill="#ffffff" fill-rule="evenodd" stroke="none"/>
      <path d="M10.3 16.95 L12.15 18.1 Q10.65 18.45 10.1 20.35 L0.6 19.35 -2.15 18.95 -7.05 18.5 -6.65 16.5 Q-6.05 13.25 -4.8 11.1 -4.5 10.7 -2.55 10.25 L0.6 9.75 1.65 9.95 1.65 12.4 Q1.5 14.5 2.85 15.25 L4.95 16.85 Q6.5 18.0 7.4 18.0 L9.25 17.4 Q10.15 16.9 10.3 16.95" fill="#d21b15" fill-rule="evenodd" stroke="none"/>
      <path d="M16.35 21.55 L16.25 22.05 -7.2 19.45 -7.15 18.95 16.35 21.55" fill="#333333" fill-rule="evenodd" stroke="none"/>
    </g>
  </defs>
</svg>
