<?xml version="1.0" encoding="UTF-8" standalone="no"?>
<svg xmlns:ffdec="https://www.free-decompiler.com/flash" xmlns:xlink="http://www.w3.org/1999/xlink" ffdec:objectType="frame" height="19.6px" width="13.1px" xmlns="http://www.w3.org/2000/svg">
  <g transform="matrix(1.0, 0.0, 0.0, 1.0, 7.5, 7.1)">
    <use ffdec:characterId="2012" height="19.6" transform="matrix(1.0, 0.0, 0.0, 1.0, -7.5, -7.1)" width="12.35" xlink:href="#shape0"/>
  </g>
  <defs>
    <g id="shape0" transform="matrix(1.0, 0.0, 0.0, 1.0, 7.5, 7.1)">
      <path d="M-7.35 7.05 L-6.6 6.6 Q-3.5 4.7 -3.9 1.1 L-3.45 -0.7 -2.6 -3.75 Q-2.2 -4.75 -2.05 -5.7 L-1.95 -6.2 1.3 -6.6 1.1 -6.2 1.4 -5.9 1.75 -5.7 3.3 -3.2 3.95 -5.75 3.9 -6.9 3.95 -7.1 4.1 -7.1 4.1 -6.95 4.75 -2.5 Q5.0 -0.7 4.7 2.95 L4.5 6.8 4.0 9.55 Q3.6 11.25 1.65 11.9 L1.1 11.7 Q2.15 10.7 2.65 9.5 3.75 6.5 3.0 3.2 L2.2 6.5 Q1.55 9.5 1.1 10.3 L0.1 11.8 Q-0.45 12.4 -0.9 12.45 L-1.6 12.5 -0.75 10.7 Q0.8 7.4 0.6 3.65 L-0.15 5.7 -0.15 5.45 -0.3 5.55 -0.35 5.9 -0.4 6.1 -1.65 9.15 Q-3.0 10.45 -4.35 10.75 -5.75 11.05 -5.9 10.5 L-4.15 9.35 Q-1.3 7.05 -2.2 3.2 L-3.3 5.2 -3.3 5.1 -3.5 5.3 -3.7 5.5 -4.2 6.2 -5.65 7.05 -6.9 7.25 -7.35 7.05 M-3.25 -7.1 L-3.8 -6.0 -3.55 -6.75 -3.65 -7.05 -3.65 -7.1 -3.25 -7.1" fill="#ffcc99" fill-rule="evenodd" stroke="none"/>
      <path d="M3.95 -7.1 L3.9 -6.9 3.95 -5.75 3.3 -3.2 1.75 -5.7 1.4 -5.9 1.1 -6.2 1.3 -6.6 -1.95 -6.2 -2.05 -5.7 Q-2.2 -4.75 -2.6 -3.75 L-3.45 -0.7 -3.9 1.1 Q-3.5 4.7 -6.6 6.6 L-7.35 7.05 -7.5 6.7 Q-7.5 5.9 -6.75 5.75 L-5.7 5.3 Q-5.3 4.7 -4.75 2.85 L-4.65 2.25 Q-4.6 1.45 -4.9 -1.3 L-4.9 -1.4 -4.7 -3.0 -4.4 -4.05 -3.8 -6.0 -3.25 -7.1 3.95 -7.1 M-3.3 5.2 L-2.2 3.2 Q-1.3 7.05 -4.15 9.35 L-5.9 10.5 -5.9 10.45 Q-6.1 9.9 -5.6 9.3 -5.6 9.2 -5.05 9.05 -3.15 8.4 -3.35 6.75 L-3.25 5.45 -3.3 5.2 M-0.4 6.1 L-0.35 5.9 -0.3 5.55 -0.15 5.45 -0.15 5.7 0.6 3.65 Q0.8 7.4 -0.75 10.7 L-1.6 12.5 -2.05 12.1 -2.1 11.9 -2.05 11.55 Q-1.95 10.85 -1.5 10.5 L-1.4 10.45 -1.25 10.1 -0.9 9.7 Q0.0 7.9 -0.1 6.05 L-0.4 6.1 M2.2 6.5 L3.0 3.2 Q3.75 6.5 2.65 9.5 2.15 10.7 1.1 11.7 0.9 10.6 1.3 10.45 1.7 10.2 2.05 10.05 2.9 7.7 2.2 6.5" fill="#ebbb98" fill-rule="evenodd" stroke="none"/>
    </g>
  </defs>
</svg>
