<?xml version="1.0" encoding="UTF-8" standalone="no"?>
<svg xmlns:ffdec="https://www.free-decompiler.com/flash" xmlns:xlink="http://www.w3.org/1999/xlink" ffdec:objectType="frame" height="58.55px" width="73.25px" xmlns="http://www.w3.org/2000/svg">
  <g transform="matrix(1.0, 0.0, 0.0, 1.0, 35.75, 38.95)">
    <use ffdec:characterId="509" height="58.55" transform="matrix(1.0, 0.0, 0.0, 1.0, -35.75, -38.95)" width="73.25" xlink:href="#shape0"/>
  </g>
  <defs>
    <g id="shape0" transform="matrix(1.0, 0.0, 0.0, 1.0, 35.75, 38.95)">
      <path d="M-25.25 -29.5 L-24.3 -30.1 -21.05 -32.2 Q-18.5 -33.9 -10.0 -36.65 -1.55 -39.45 10.85 -38.85 L23.05 -37.95 24.95 -37.45 25.15 -37.4 Q27.25 -36.9 28.0 -36.15 L28.15 -35.95 28.3 -35.85 28.7 -35.65 Q29.9 -34.85 30.3 -33.9 L31.2 -32.15 31.55 -30.7 31.0 -30.65 30.95 -30.65 30.05 -30.5 29.85 -30.45 29.75 -30.45 27.55 -30.2 21.35 -30.75 18.95 -31.0 18.75 -31.05 18.25 -31.1 15.15 -31.4 Q3.5 -31.95 1.25 -31.6 L-5.2 -30.75 -11.6 -29.85 -14.7 -29.3 -15.3 -29.2 -18.35 -28.5 -20.5 -28.3 -24.35 -27.55 -26.4 -27.45 -26.6 -27.4 -26.55 -27.45 -26.5 -27.6 -26.5 -27.65 -26.35 -27.9 -26.35 -28.0 Q-26.35 -28.7 -25.25 -29.5" fill="#e68888" fill-rule="evenodd" stroke="none"/>
      <path d="M28.7 -35.65 L31.3 -33.65 31.8 -33.2 32.2 -31.2 32.8 -28.75 32.85 -28.7 33.15 -27.4 33.9 -24.5 34.0 -24.15 34.05 -23.95 34.05 -23.9 Q30.85 -27.7 24.9 -27.25 L16.35 -24.5 Q10.15 -22.55 6.65 -22.55 5.75 -22.55 0.2 -23.9 -5.4 -25.3 -12.5 -25.3 L-14.6 -25.25 Q-19.45 -25.0 -22.7 -23.45 -23.4 -24.1 -25.1 -23.25 -27.55 -22.05 -28.1 -21.05 -28.4 -20.35 -30.1 -18.4 L-30.8 -17.5 -31.65 -16.45 -31.65 -16.75 -31.25 -17.85 -31.05 -18.45 -30.5 -19.8 -30.85 -20.45 -30.85 -20.5 -30.7 -23.25 -30.6 -24.5 -30.55 -24.65 -30.6 -24.7 Q-30.15 -25.95 -29.25 -26.9 -27.95 -28.4 -25.25 -29.5 -26.35 -28.7 -26.35 -28.0 L-26.35 -27.9 -26.5 -27.65 -26.5 -27.6 -26.55 -27.45 -26.6 -27.4 -26.4 -27.45 -24.35 -27.55 -20.5 -28.3 -18.35 -28.5 -15.3 -29.2 -14.7 -29.3 -11.6 -29.85 -5.2 -30.75 1.25 -31.6 Q3.5 -31.95 15.15 -31.4 L18.25 -31.1 18.75 -31.05 18.95 -31.0 21.35 -30.75 27.55 -30.2 29.75 -30.45 29.85 -30.45 30.05 -30.5 30.95 -30.65 31.0 -30.65 31.55 -30.7 31.2 -32.15 30.3 -33.9 Q29.9 -34.85 28.7 -35.65 M34.5 -3.8 L33.75 2.15 Q31.7 6.2 21.1 10.4 10.45 14.6 5.2 14.85 L-1.95 15.0 -8.4 14.95 -20.1 14.2 -20.2 14.15 -20.2 14.2 -23.45 8.6 Q-20.85 9.6 -17.65 9.6 L-16.35 10.0 -11.25 10.25 3.85 8.6 Q15.5 6.85 18.65 5.65 21.75 4.45 27.35 0.9 31.05 -0.85 33.95 -3.25 L34.5 -3.8" fill="#ebbb98" fill-rule="evenodd" stroke="none"/>
      <path d="M31.8 -33.2 Q34.0 -31.05 34.75 -28.95 L34.85 -28.7 34.9 -28.55 Q36.55 -24.1 36.95 -21.5 L37.4 -16.15 37.5 -15.6 37.2 -15.75 37.25 -13.85 37.2 -11.0 36.7 -9.5 36.9 -8.5 36.75 -7.8 36.65 -7.55 36.65 -7.5 Q36.65 -6.1 34.5 -3.8 L33.95 -3.25 Q31.05 -0.85 27.35 0.9 21.75 4.45 18.65 5.65 15.5 6.85 3.85 8.6 L-11.25 10.25 -16.35 10.0 -17.65 9.6 Q-20.85 9.6 -23.45 8.6 -26.2 7.55 -28.25 5.45 L-28.6 5.35 -29.7 5.1 -33.85 6.2 -34.3 6.15 Q-35.1 6.0 -35.5 5.3 L-35.6 5.0 -35.75 4.25 -34.75 2.2 -34.75 2.15 -34.75 0.65 -34.75 0.5 -34.7 -8.85 -31.95 -8.85 -31.65 -16.45 -30.8 -17.5 -30.1 -18.4 Q-28.4 -20.35 -28.1 -21.05 -27.55 -22.05 -25.1 -23.25 -23.4 -24.1 -22.7 -23.45 -19.45 -25.0 -14.6 -25.25 L-12.5 -25.3 Q-5.4 -25.3 0.2 -23.9 5.75 -22.55 6.65 -22.55 10.15 -22.55 16.35 -24.5 L24.9 -27.25 Q30.85 -27.7 34.05 -23.9 L34.05 -23.95 34.0 -24.15 33.9 -24.5 33.15 -27.4 32.85 -28.7 32.8 -28.75 32.2 -31.2 31.8 -33.2" fill="#ffcc99" fill-rule="evenodd" stroke="none"/>
      <path d="M33.75 2.15 L33.2 3.9 32.95 5.35 32.75 6.3 32.4 7.2 Q32.15 7.75 32.05 8.35 L31.8 9.15 31.6 9.85 31.6 9.7 Q28.65 14.55 24.9 15.6 10.45 19.6 -6.85 19.6 -11.05 19.6 -16.15 18.35 L-18.4 15.9 -20.2 14.2 -20.2 14.15 -20.1 14.2 -8.4 14.95 -1.95 15.0 5.2 14.85 Q10.45 14.6 21.1 10.4 31.7 6.2 33.75 2.15" fill="#c79b84" fill-rule="evenodd" stroke="none"/>
    </g>
  </defs>
</svg>
